<lmms-project type="song">
  <head masterpitch="0" mastervol="100" timesig_numerator="4.0" timesig_denominator="4.0" bpm="140.0" />
  <song>
    <trackcontainer>
      <track solo="0" name="1 (Ch1)" type="0" muted="0">
        <instrumenttrack usemasterpitch="1" pitch="0.0" basenote="57" pan="0" pitchrange="12" vol="30">
          <eldata />
          <instrument name="tripleoscillator" />
        </instrumenttrack>
        <pattern pos="280476" muted="0" steps="16" name="" type="1">
          <note key="75" pos="0" pan="0" len="12" vol="16" />
          <note key="77" pos="12" pan="0" len="12" vol="22" />
          <note key="79" pos="24" pan="0" len="12" vol="27" />
          <note key="80" pos="36" pan="0" len="12" vol="33" />
          <note key="85" pos="48" pan="0" len="12" vol="39" />
          <note key="84" pos="60" pan="0" len="12" vol="44" />
          <note key="82" pos="72" pan="0" len="12" vol="50" />
          <note key="80" pos="84" pan="0" len="12" vol="55" />
          <note key="79" pos="96" pan="0" len="12" vol="61" />
          <note key="80" pos="108" pan="0" len="12" vol="67" />
          <note key="75" pos="120" pan="0" len="12" vol="72" />
          <note key="73" pos="132" pan="0" len="12" vol="78" />
          <note key="75" pos="144" pan="0" len="24" vol="100" />
        </pattern>
        <pattern pos="1536" muted="0" steps="16" name="" type="1">
          <note key="48" pos="0" pan="0" len="60" vol="100" />
          <note key="60" pos="96" pan="0" len="72" vol="100" />
          <note key="46" pos="192" pan="0" len="48" vol="100" />
          <note key="58" pos="264" pan="0" len="48" vol="100" />
          <note key="44" pos="384" pan="0" len="72" vol="100" />
          <note key="56" pos="480" pan="0" len="84" vol="100" />
          <note key="43" pos="624" pan="0" len="48" vol="100" />
          <note key="46" pos="672" pan="0" len="48" vol="100" />
          <note key="48" pos="768" pan="0" len="48" vol="100" />
          <note key="60" pos="816" pan="0" len="72" vol="100" />
          <note key="46" pos="960" pan="0" len="48" vol="100" />
          <note key="58" pos="1032" pan="0" len="48" vol="100" />
          <note key="44" pos="1152" pan="0" len="48" vol="100" />
          <note key="56" pos="1200" pan="0" len="48" vol="100" />
          <note key="41" pos="1344" pan="0" len="96" vol="100" />
          <note key="55" pos="1440" pan="0" len="48" vol="100" />
          <note key="58" pos="1488" pan="0" len="48" vol="100" />
        </pattern>
        <pattern pos="3072" muted="0" steps="16" name="" type="1">
          <note key="48" pos="0" pan="0" len="48" vol="100" />
          <note key="60" pos="48" pan="0" len="48" vol="100" />
          <note key="46" pos="192" pan="0" len="48" vol="100" />
          <note key="58" pos="264" pan="0" len="48" vol="100" />
          <note key="44" pos="384" pan="0" len="48" vol="100" />
          <note key="56" pos="432" pan="0" len="48" vol="100" />
          <note key="43" pos="624" pan="0" len="48" vol="100" />
          <note key="46" pos="672" pan="0" len="48" vol="100" />
          <note key="48" pos="768" pan="0" len="48" vol="100" />
          <note key="60" pos="816" pan="0" len="48" vol="100" />
          <note key="46" pos="960" pan="0" len="48" vol="100" />
          <note key="58" pos="1032" pan="0" len="48" vol="100" />
          <note key="44" pos="1152" pan="0" len="48" vol="100" />
          <note key="56" pos="1200" pan="0" len="48" vol="100" />
          <note key="43" pos="1392" pan="0" len="48" vol="100" />
          <note key="46" pos="1440" pan="0" len="48" vol="100" />
        </pattern>
        <pattern pos="4608" muted="0" steps="16" name="" type="1">
          <note key="48" pos="0" pan="0" len="48" vol="100" />
          <note key="60" pos="48" pan="0" len="48" vol="100" />
          <note key="46" pos="192" pan="0" len="48" vol="100" />
          <note key="58" pos="264" pan="0" len="48" vol="100" />
          <note key="44" pos="384" pan="0" len="48" vol="100" />
          <note key="56" pos="432" pan="0" len="48" vol="100" />
          <note key="43" pos="624" pan="0" len="48" vol="100" />
          <note key="46" pos="672" pan="0" len="48" vol="100" />
          <note key="48" pos="768" pan="0" len="48" vol="100" />
          <note key="60" pos="816" pan="0" len="48" vol="100" />
          <note key="46" pos="960" pan="0" len="48" vol="100" />
          <note key="58" pos="1032" pan="0" len="48" vol="100" />
          <note key="44" pos="1152" pan="0" len="48" vol="100" />
          <note key="56" pos="1200" pan="0" len="48" vol="100" />
          <note key="43" pos="1392" pan="0" len="48" vol="100" />
          <note key="46" pos="1440" pan="0" len="48" vol="100" />
        </pattern>
        <pattern pos="6144" muted="0" steps="16" name="" type="1">
          <note key="41" pos="0" pan="0" len="96" vol="100" />
          <note key="43" pos="192" pan="0" len="96" vol="100" />
          <note key="44" pos="384" pan="0" len="96" vol="100" />
          <note key="46" pos="576" pan="0" len="48" vol="100" />
          <note key="46" pos="672" pan="0" len="72" vol="100" />
          <note key="41" pos="768" pan="0" len="120" vol="100" />
          <note key="43" pos="960" pan="0" len="96" vol="100" />
          <note key="44" pos="1152" pan="0" len="96" vol="100" />
          <note key="46" pos="1344" pan="0" len="48" vol="100" />
          <note key="46" pos="1440" pan="0" len="72" vol="100" />
        </pattern>
        <pattern pos="7680" muted="0" steps="16" name="" type="1">
          <note key="48" pos="0" pan="0" len="60" vol="100" />
          <note key="60" pos="96" pan="0" len="72" vol="100" />
          <note key="46" pos="192" pan="0" len="48" vol="100" />
          <note key="58" pos="264" pan="0" len="48" vol="100" />
          <note key="44" pos="384" pan="0" len="72" vol="100" />
          <note key="56" pos="480" pan="0" len="84" vol="100" />
          <note key="43" pos="624" pan="0" len="48" vol="100" />
          <note key="46" pos="672" pan="0" len="48" vol="100" />
          <note key="48" pos="768" pan="0" len="48" vol="100" />
          <note key="60" pos="816" pan="0" len="72" vol="100" />
          <note key="46" pos="960" pan="0" len="48" vol="100" />
          <note key="58" pos="1032" pan="0" len="48" vol="100" />
          <note key="44" pos="1152" pan="0" len="48" vol="100" />
          <note key="56" pos="1200" pan="0" len="48" vol="100" />
          <note key="41" pos="1344" pan="0" len="96" vol="100" />
          <note key="55" pos="1440" pan="0" len="48" vol="100" />
          <note key="58" pos="1488" pan="0" len="48" vol="100" />
          <note key="48" pos="1536" pan="0" len="60" vol="100" />
          <note key="60" pos="1632" pan="0" len="72" vol="100" />
          <note key="46" pos="1728" pan="0" len="48" vol="100" />
          <note key="58" pos="1800" pan="0" len="48" vol="100" />
          <note key="44" pos="1920" pan="0" len="72" vol="100" />
          <note key="56" pos="2016" pan="0" len="84" vol="100" />
          <note key="43" pos="2160" pan="0" len="48" vol="100" />
          <note key="46" pos="2208" pan="0" len="48" vol="100" />
          <note key="48" pos="2304" pan="0" len="48" vol="100" />
          <note key="60" pos="2352" pan="0" len="72" vol="100" />
          <note key="46" pos="2496" pan="0" len="48" vol="100" />
          <note key="58" pos="2568" pan="0" len="48" vol="100" />
          <note key="44" pos="2688" pan="0" len="48" vol="100" />
          <note key="56" pos="2736" pan="0" len="48" vol="100" />
          <note key="41" pos="2880" pan="0" len="96" vol="100" />
          <note key="55" pos="2976" pan="0" len="48" vol="100" />
          <note key="58" pos="3024" pan="0" len="48" vol="100" />
        </pattern>
        <pattern pos="10752" muted="0" steps="16" name="" type="1">
          <note key="41" pos="0" pan="0" len="96" vol="100" />
          <note key="43" pos="192" pan="0" len="96" vol="100" />
          <note key="44" pos="384" pan="0" len="96" vol="100" />
          <note key="46" pos="576" pan="0" len="48" vol="100" />
          <note key="46" pos="672" pan="0" len="72" vol="100" />
          <note key="41" pos="768" pan="0" len="120" vol="100" />
          <note key="43" pos="960" pan="0" len="96" vol="100" />
          <note key="44" pos="1152" pan="0" len="96" vol="100" />
          <note key="46" pos="1344" pan="0" len="48" vol="100" />
          <note key="46" pos="1440" pan="0" len="72" vol="100" />
        </pattern>
        <pattern pos="12288" muted="0" steps="16" name="" type="1">
          <note key="48" pos="0" pan="0" len="60" vol="100" />
          <note key="60" pos="96" pan="0" len="72" vol="100" />
          <note key="46" pos="192" pan="0" len="48" vol="100" />
          <note key="58" pos="264" pan="0" len="48" vol="100" />
          <note key="44" pos="384" pan="0" len="72" vol="100" />
          <note key="56" pos="480" pan="0" len="84" vol="100" />
          <note key="46" pos="576" pan="0" len="84" vol="100" />
          <note key="58" pos="672" pan="0" len="48" vol="100" />
          <note key="41" pos="768" pan="0" len="96" vol="100" />
          <note key="53" pos="864" pan="0" len="24" vol="100" />
          <note key="43" pos="960" pan="0" len="48" vol="100" />
          <note key="55" pos="1008" pan="0" len="72" vol="100" />
          <note key="44" pos="1152" pan="0" len="84" vol="100" />
          <note key="56" pos="1248" pan="0" len="84" vol="100" />
          <note key="46" pos="1344" pan="0" len="48" vol="100" />
          <note key="58" pos="1392" pan="0" len="96" vol="100" />
          <note key="48" pos="1536" pan="0" len="60" vol="100" />
          <note key="60" pos="1632" pan="0" len="72" vol="100" />
          <note key="46" pos="1728" pan="0" len="48" vol="100" />
          <note key="58" pos="1800" pan="0" len="48" vol="100" />
          <note key="44" pos="1920" pan="0" len="72" vol="100" />
          <note key="56" pos="2016" pan="0" len="84" vol="100" />
          <note key="46" pos="2112" pan="0" len="60" vol="100" />
          <note key="58" pos="2184" pan="0" len="72" vol="100" />
          <note key="41" pos="2304" pan="0" len="96" vol="100" />
          <note key="53" pos="2400" pan="0" len="24" vol="100" />
          <note key="43" pos="2496" pan="0" len="48" vol="100" />
          <note key="58" pos="2568" pan="0" len="24" vol="100" />
          <note key="48" pos="2688" pan="0" len="84" vol="100" />
          <note key="60" pos="2784" pan="0" len="84" vol="100" />
          <note key="48" pos="2880" pan="0" len="84" vol="100" />
        </pattern>
        <pattern pos="33792" muted="0" steps="16" name="" type="1">
          <note key="39" pos="0" pan="0" len="84" vol="100" />
          <note key="41" pos="84" pan="0" len="12" vol="100" />
          <note key="43" pos="96" pan="0" len="84" vol="100" />
          <note key="41" pos="180" pan="0" len="12" vol="100" />
          <note key="36" pos="192" pan="0" len="84" vol="100" />
          <note key="34" pos="276" pan="0" len="12" vol="100" />
          <note key="36" pos="288" pan="0" len="48" vol="100" />
          <note key="39" pos="336" pan="0" len="24" vol="100" />
          <note key="34" pos="360" pan="0" len="24" vol="100" />
          <note key="39" pos="384" pan="0" len="84" vol="100" />
          <note key="41" pos="468" pan="0" len="12" vol="100" />
          <note key="43" pos="480" pan="0" len="84" vol="100" />
          <note key="41" pos="564" pan="0" len="12" vol="100" />
          <note key="36" pos="576" pan="0" len="192" vol="100" />
          <note key="39" pos="768" pan="0" len="84" vol="100" />
          <note key="41" pos="852" pan="0" len="12" vol="100" />
          <note key="43" pos="864" pan="0" len="84" vol="100" />
          <note key="41" pos="948" pan="0" len="12" vol="100" />
          <note key="36" pos="960" pan="0" len="84" vol="100" />
          <note key="34" pos="1044" pan="0" len="12" vol="100" />
          <note key="36" pos="1056" pan="0" len="48" vol="100" />
          <note key="39" pos="1104" pan="0" len="24" vol="100" />
          <note key="34" pos="1128" pan="0" len="24" vol="100" />
          <note key="39" pos="1152" pan="0" len="84" vol="100" />
          <note key="41" pos="1236" pan="0" len="12" vol="100" />
          <note key="43" pos="1248" pan="0" len="84" vol="100" />
          <note key="41" pos="1332" pan="0" len="12" vol="100" />
          <note key="36" pos="1344" pan="0" len="120" vol="100" />
        </pattern>
        <pattern pos="35328" muted="0" steps="16" name="" type="1">
          <note key="48" pos="0" pan="0" len="24" vol="100" />
          <note key="36" pos="48" pan="0" len="24" vol="100" />
          <note key="48" pos="96" pan="0" len="24" vol="100" />
          <note key="36" pos="144" pan="0" len="24" vol="100" />
          <note key="48" pos="192" pan="0" len="24" vol="100" />
          <note key="36" pos="240" pan="0" len="24" vol="100" />
          <note key="48" pos="288" pan="0" len="24" vol="100" />
          <note key="36" pos="336" pan="0" len="24" vol="100" />
          <note key="48" pos="384" pan="0" len="24" vol="100" />
          <note key="36" pos="432" pan="0" len="24" vol="100" />
          <note key="48" pos="480" pan="0" len="24" vol="100" />
          <note key="36" pos="528" pan="0" len="24" vol="100" />
          <note key="48" pos="576" pan="0" len="24" vol="100" />
          <note key="36" pos="624" pan="0" len="24" vol="100" />
          <note key="48" pos="672" pan="0" len="24" vol="100" />
          <note key="36" pos="720" pan="0" len="24" vol="100" />
          <note key="48" pos="768" pan="0" len="24" vol="100" />
          <note key="36" pos="816" pan="0" len="24" vol="100" />
          <note key="48" pos="864" pan="0" len="24" vol="100" />
          <note key="36" pos="912" pan="0" len="24" vol="100" />
          <note key="48" pos="960" pan="0" len="24" vol="100" />
          <note key="36" pos="1008" pan="0" len="24" vol="100" />
          <note key="48" pos="1056" pan="0" len="24" vol="100" />
          <note key="36" pos="1104" pan="0" len="24" vol="100" />
          <note key="48" pos="1152" pan="0" len="24" vol="100" />
          <note key="36" pos="1200" pan="0" len="24" vol="100" />
          <note key="48" pos="1248" pan="0" len="24" vol="100" />
          <note key="36" pos="1296" pan="0" len="24" vol="100" />
          <note key="48" pos="1344" pan="0" len="24" vol="100" />
          <note key="36" pos="1392" pan="0" len="24" vol="100" />
          <note key="48" pos="1440" pan="0" len="24" vol="100" />
          <note key="36" pos="1488" pan="0" len="24" vol="100" />
        </pattern>
        <pattern pos="36864" muted="0" steps="16" name="" type="1">
          <note key="48" pos="0" pan="0" len="24" vol="100" />
          <note key="36" pos="48" pan="0" len="24" vol="100" />
          <note key="48" pos="96" pan="0" len="24" vol="100" />
          <note key="36" pos="144" pan="0" len="24" vol="100" />
          <note key="48" pos="192" pan="0" len="24" vol="100" />
          <note key="36" pos="240" pan="0" len="24" vol="100" />
          <note key="48" pos="288" pan="0" len="24" vol="100" />
          <note key="36" pos="336" pan="0" len="24" vol="100" />
          <note key="48" pos="384" pan="0" len="24" vol="100" />
          <note key="36" pos="432" pan="0" len="24" vol="100" />
          <note key="48" pos="480" pan="0" len="24" vol="100" />
          <note key="36" pos="528" pan="0" len="24" vol="100" />
          <note key="48" pos="576" pan="0" len="24" vol="100" />
          <note key="36" pos="624" pan="0" len="24" vol="100" />
          <note key="48" pos="672" pan="0" len="24" vol="100" />
          <note key="36" pos="720" pan="0" len="24" vol="100" />
          <note key="48" pos="768" pan="0" len="24" vol="100" />
          <note key="36" pos="816" pan="0" len="24" vol="100" />
          <note key="48" pos="864" pan="0" len="24" vol="100" />
          <note key="36" pos="912" pan="0" len="24" vol="100" />
          <note key="48" pos="960" pan="0" len="24" vol="100" />
          <note key="36" pos="1008" pan="0" len="24" vol="100" />
          <note key="48" pos="1056" pan="0" len="24" vol="100" />
          <note key="36" pos="1104" pan="0" len="24" vol="100" />
          <note key="48" pos="1152" pan="0" len="24" vol="100" />
          <note key="36" pos="1200" pan="0" len="24" vol="100" />
          <note key="48" pos="1248" pan="0" len="24" vol="100" />
          <note key="36" pos="1296" pan="0" len="24" vol="100" />
          <note key="48" pos="1344" pan="0" len="24" vol="100" />
          <note key="36" pos="1392" pan="0" len="24" vol="100" />
          <note key="48" pos="1440" pan="0" len="24" vol="100" />
          <note key="36" pos="1488" pan="0" len="24" vol="100" />
        </pattern>
        <pattern pos="38400" muted="0" steps="16" name="" type="1">
          <note key="48" pos="0" pan="0" len="24" vol="100" />
          <note key="36" pos="48" pan="0" len="24" vol="100" />
          <note key="48" pos="96" pan="0" len="24" vol="100" />
          <note key="36" pos="144" pan="0" len="24" vol="100" />
          <note key="48" pos="192" pan="0" len="24" vol="100" />
          <note key="36" pos="240" pan="0" len="24" vol="100" />
          <note key="48" pos="288" pan="0" len="24" vol="100" />
          <note key="36" pos="336" pan="0" len="24" vol="100" />
          <note key="48" pos="384" pan="0" len="24" vol="100" />
          <note key="36" pos="432" pan="0" len="24" vol="100" />
          <note key="48" pos="480" pan="0" len="24" vol="100" />
          <note key="36" pos="528" pan="0" len="24" vol="100" />
          <note key="48" pos="576" pan="0" len="24" vol="100" />
          <note key="36" pos="624" pan="0" len="24" vol="100" />
          <note key="48" pos="672" pan="0" len="24" vol="100" />
          <note key="36" pos="720" pan="0" len="24" vol="100" />
          <note key="48" pos="768" pan="0" len="24" vol="100" />
          <note key="36" pos="816" pan="0" len="24" vol="100" />
          <note key="48" pos="864" pan="0" len="24" vol="100" />
          <note key="36" pos="912" pan="0" len="24" vol="100" />
          <note key="48" pos="960" pan="0" len="24" vol="100" />
          <note key="36" pos="1008" pan="0" len="24" vol="100" />
          <note key="48" pos="1056" pan="0" len="24" vol="100" />
          <note key="36" pos="1104" pan="0" len="24" vol="100" />
          <note key="51" pos="1152" pan="0" len="24" vol="100" />
          <note key="39" pos="1200" pan="0" len="24" vol="100" />
          <note key="51" pos="1248" pan="0" len="24" vol="100" />
          <note key="39" pos="1296" pan="0" len="24" vol="100" />
          <note key="53" pos="1344" pan="0" len="24" vol="100" />
          <note key="41" pos="1392" pan="0" len="24" vol="100" />
          <note key="53" pos="1440" pan="0" len="24" vol="100" />
          <note key="41" pos="1488" pan="0" len="24" vol="100" />
        </pattern>
        <pattern pos="39936" muted="0" steps="16" name="" type="1">
          <note key="53" pos="768" pan="0" len="24" vol="100" />
          <note key="48" pos="816" pan="0" len="24" vol="100" />
          <note key="53" pos="864" pan="0" len="24" vol="100" />
          <note key="48" pos="912" pan="0" len="24" vol="100" />
          <note key="51" pos="936" pan="0" len="24" vol="100" />
          <note key="49" pos="960" pan="0" len="24" vol="100" />
          <note key="44" pos="1008" pan="0" len="24" vol="100" />
          <note key="49" pos="1056" pan="0" len="24" vol="100" />
          <note key="44" pos="1104" pan="0" len="24" vol="100" />
          <note key="53" pos="1152" pan="0" len="24" vol="100" />
          <note key="48" pos="1200" pan="0" len="24" vol="100" />
          <note key="53" pos="1248" pan="0" len="24" vol="100" />
          <note key="48" pos="1296" pan="0" len="24" vol="100" />
          <note key="51" pos="1320" pan="0" len="24" vol="100" />
          <note key="49" pos="1344" pan="0" len="24" vol="100" />
          <note key="44" pos="1392" pan="0" len="24" vol="100" />
          <note key="49" pos="1440" pan="0" len="24" vol="100" />
          <note key="44" pos="1488" pan="0" len="24" vol="100" />
        </pattern>
        <pattern pos="43008" muted="0" steps="16" name="" type="1">
          <note key="48" pos="0" pan="0" len="24" vol="100" />
          <note key="36" pos="48" pan="0" len="24" vol="100" />
          <note key="48" pos="96" pan="0" len="24" vol="100" />
          <note key="36" pos="144" pan="0" len="24" vol="100" />
          <note key="48" pos="192" pan="0" len="24" vol="100" />
          <note key="36" pos="240" pan="0" len="24" vol="100" />
          <note key="48" pos="288" pan="0" len="24" vol="100" />
          <note key="36" pos="336" pan="0" len="24" vol="100" />
          <note key="48" pos="384" pan="0" len="24" vol="100" />
          <note key="36" pos="432" pan="0" len="24" vol="100" />
          <note key="48" pos="480" pan="0" len="24" vol="100" />
          <note key="36" pos="528" pan="0" len="24" vol="100" />
          <note key="48" pos="576" pan="0" len="24" vol="100" />
          <note key="36" pos="624" pan="0" len="24" vol="100" />
          <note key="48" pos="672" pan="0" len="24" vol="100" />
          <note key="36" pos="720" pan="0" len="24" vol="100" />
          <note key="48" pos="768" pan="0" len="24" vol="100" />
          <note key="36" pos="816" pan="0" len="24" vol="100" />
          <note key="48" pos="864" pan="0" len="24" vol="100" />
          <note key="36" pos="912" pan="0" len="24" vol="100" />
          <note key="48" pos="960" pan="0" len="24" vol="100" />
          <note key="36" pos="1008" pan="0" len="24" vol="100" />
          <note key="48" pos="1056" pan="0" len="24" vol="100" />
          <note key="36" pos="1104" pan="0" len="24" vol="100" />
          <note key="48" pos="1152" pan="0" len="24" vol="100" />
          <note key="36" pos="1200" pan="0" len="24" vol="100" />
          <note key="48" pos="1248" pan="0" len="24" vol="100" />
          <note key="36" pos="1296" pan="0" len="24" vol="100" />
          <note key="48" pos="1344" pan="0" len="24" vol="100" />
          <note key="36" pos="1392" pan="0" len="24" vol="100" />
          <note key="48" pos="1440" pan="0" len="24" vol="100" />
          <note key="36" pos="1488" pan="0" len="24" vol="100" />
        </pattern>
        <pattern pos="46080" muted="0" steps="16" name="" type="1">
          <note key="50" pos="1056" pan="0" len="120" vol="100" />
        </pattern>
        <pattern pos="49152" muted="0" steps="16" name="" type="1">
          <note key="50" pos="1056" pan="0" len="120" vol="100" />
        </pattern>
        <pattern pos="52224" muted="0" steps="16" name="" type="1">
          <note key="45" pos="0" pan="0" len="24" vol="100" />
          <note key="57" pos="48" pan="0" len="24" vol="100" />
          <note key="45" pos="96" pan="0" len="24" vol="100" />
          <note key="57" pos="144" pan="0" len="24" vol="100" />
          <note key="59" pos="168" pan="0" len="24" vol="100" />
          <note key="48" pos="192" pan="0" len="24" vol="100" />
          <note key="60" pos="240" pan="0" len="24" vol="100" />
          <note key="48" pos="288" pan="0" len="24" vol="100" />
          <note key="48" pos="336" pan="0" len="24" vol="100" />
          <note key="64" pos="360" pan="0" len="24" vol="100" />
          <note key="46" pos="384" pan="0" len="24" vol="100" />
          <note key="58" pos="432" pan="0" len="24" vol="100" />
          <note key="46" pos="480" pan="0" len="24" vol="100" />
          <note key="58" pos="528" pan="0" len="24" vol="100" />
          <note key="43" pos="576" pan="0" len="24" vol="100" />
          <note key="55" pos="624" pan="0" len="24" vol="100" />
          <note key="43" pos="672" pan="0" len="24" vol="100" />
          <note key="55" pos="720" pan="0" len="24" vol="100" />
          <note key="46" pos="768" pan="0" len="24" vol="100" />
          <note key="58" pos="816" pan="0" len="24" vol="100" />
          <note key="46" pos="864" pan="0" len="24" vol="100" />
          <note key="58" pos="912" pan="0" len="24" vol="100" />
          <note key="49" pos="960" pan="0" len="24" vol="100" />
          <note key="61" pos="1008" pan="0" len="24" vol="100" />
          <note key="49" pos="1056" pan="0" len="24" vol="100" />
          <note key="61" pos="1104" pan="0" len="24" vol="100" />
          <note key="48" pos="1152" pan="0" len="24" vol="100" />
          <note key="60" pos="1200" pan="0" len="24" vol="100" />
          <note key="48" pos="1248" pan="0" len="24" vol="100" />
          <note key="60" pos="1296" pan="0" len="24" vol="100" />
          <note key="45" pos="1344" pan="0" len="24" vol="100" />
          <note key="57" pos="1392" pan="0" len="24" vol="100" />
          <note key="45" pos="1440" pan="0" len="24" vol="100" />
          <note key="57" pos="1488" pan="0" len="24" vol="100" />
        </pattern>
        <pattern pos="54528" muted="0" steps="16" name="" type="1">
          <note key="46" pos="168" pan="0" len="72" vol="100" />
          <note key="48" pos="240" pan="0" len="72" vol="100" />
          <note key="43" pos="312" pan="0" len="84" vol="100" />
        </pattern>
        <pattern pos="115968" muted="0" steps="16" name="" type="1">
          <note key="48" pos="1296" pan="0" len="72" vol="100" />
          <note key="46" pos="1368" pan="0" len="72" vol="100" />
          <note key="41" pos="1440" pan="0" len="144" vol="100" />
          <note key="44" pos="1584" pan="0" len="72" vol="100" />
          <note key="46" pos="1656" pan="0" len="60" vol="100" />
        </pattern>
        <pattern pos="120576" muted="0" steps="16" name="" type="1">
          <note key="48" pos="1296" pan="0" len="72" vol="100" />
          <note key="46" pos="1368" pan="0" len="72" vol="100" />
          <note key="41" pos="1440" pan="0" len="144" vol="100" />
          <note key="44" pos="1584" pan="0" len="72" vol="100" />
          <note key="46" pos="1656" pan="0" len="60" vol="100" />
        </pattern>
        <pattern pos="122892" muted="0" steps="16" name="" type="1">
          <note key="48" pos="0" pan="0" len="36" vol="100" />
        </pattern>
        <pattern pos="124428" muted="0" steps="16" name="" type="1">
          <note key="48" pos="0" pan="0" len="12" vol="100" />
          <note key="55" pos="12" pan="0" len="12" vol="100" />
          <note key="60" pos="24" pan="0" len="12" vol="100" />
          <note key="62" pos="36" pan="0" len="12" vol="100" />
          <note key="63" pos="48" pan="0" len="12" vol="100" />
          <note key="51" pos="96" pan="0" len="12" vol="100" />
          <note key="58" pos="108" pan="0" len="12" vol="100" />
          <note key="63" pos="120" pan="0" len="12" vol="100" />
          <note key="65" pos="132" pan="0" len="12" vol="100" />
          <note key="70" pos="144" pan="0" len="12" vol="100" />
          <note key="48" pos="192" pan="0" len="12" vol="100" />
          <note key="55" pos="204" pan="0" len="12" vol="100" />
          <note key="60" pos="216" pan="0" len="12" vol="100" />
          <note key="62" pos="228" pan="0" len="12" vol="100" />
          <note key="67" pos="240" pan="0" len="12" vol="100" />
          <note key="51" pos="288" pan="0" len="12" vol="100" />
          <note key="58" pos="300" pan="0" len="12" vol="100" />
          <note key="63" pos="312" pan="0" len="12" vol="100" />
          <note key="65" pos="324" pan="0" len="12" vol="100" />
          <note key="67" pos="336" pan="0" len="12" vol="100" />
          <note key="48" pos="384" pan="0" len="12" vol="100" />
          <note key="55" pos="396" pan="0" len="12" vol="100" />
          <note key="60" pos="408" pan="0" len="12" vol="100" />
          <note key="63" pos="420" pan="0" len="12" vol="100" />
          <note key="67" pos="432" pan="0" len="12" vol="100" />
          <note key="51" pos="480" pan="0" len="12" vol="100" />
          <note key="58" pos="492" pan="0" len="12" vol="100" />
          <note key="63" pos="504" pan="0" len="12" vol="100" />
          <note key="65" pos="516" pan="0" len="12" vol="100" />
          <note key="70" pos="528" pan="0" len="12" vol="100" />
          <note key="48" pos="576" pan="0" len="12" vol="100" />
          <note key="55" pos="588" pan="0" len="12" vol="100" />
          <note key="60" pos="600" pan="0" len="12" vol="100" />
          <note key="62" pos="612" pan="0" len="12" vol="100" />
          <note key="67" pos="624" pan="0" len="12" vol="100" />
          <note key="51" pos="672" pan="0" len="12" vol="100" />
          <note key="58" pos="684" pan="0" len="12" vol="100" />
          <note key="63" pos="696" pan="0" len="12" vol="100" />
          <note key="65" pos="708" pan="0" len="12" vol="100" />
          <note key="67" pos="720" pan="0" len="12" vol="100" />
        </pattern>
        <pattern pos="125196" muted="0" steps="16" name="" type="1">
          <note key="48" pos="0" pan="0" len="12" vol="100" />
          <note key="55" pos="12" pan="0" len="12" vol="100" />
          <note key="60" pos="24" pan="0" len="12" vol="100" />
          <note key="62" pos="36" pan="0" len="12" vol="100" />
          <note key="67" pos="48" pan="0" len="12" vol="100" />
          <note key="51" pos="96" pan="0" len="12" vol="100" />
          <note key="58" pos="108" pan="0" len="12" vol="100" />
          <note key="63" pos="120" pan="0" len="12" vol="100" />
          <note key="65" pos="132" pan="0" len="12" vol="100" />
          <note key="70" pos="144" pan="0" len="12" vol="100" />
          <note key="48" pos="192" pan="0" len="12" vol="100" />
          <note key="55" pos="204" pan="0" len="12" vol="100" />
          <note key="60" pos="216" pan="0" len="12" vol="100" />
          <note key="62" pos="228" pan="0" len="12" vol="100" />
          <note key="67" pos="240" pan="0" len="12" vol="100" />
          <note key="51" pos="288" pan="0" len="12" vol="100" />
          <note key="58" pos="300" pan="0" len="12" vol="100" />
          <note key="63" pos="312" pan="0" len="12" vol="100" />
          <note key="65" pos="324" pan="0" len="12" vol="100" />
          <note key="67" pos="336" pan="0" len="12" vol="100" />
          <note key="65" pos="348" pan="0" len="12" vol="100" />
          <note key="63" pos="360" pan="0" len="12" vol="100" />
          <note key="58" pos="372" pan="0" len="12" vol="100" />
          <note key="48" pos="384" pan="0" len="12" vol="100" />
          <note key="55" pos="396" pan="0" len="12" vol="100" />
          <note key="60" pos="408" pan="0" len="12" vol="100" />
          <note key="62" pos="420" pan="0" len="12" vol="100" />
          <note key="67" pos="432" pan="0" len="12" vol="100" />
          <note key="51" pos="480" pan="0" len="12" vol="100" />
          <note key="58" pos="492" pan="0" len="12" vol="100" />
          <note key="63" pos="504" pan="0" len="12" vol="100" />
          <note key="65" pos="516" pan="0" len="12" vol="100" />
          <note key="70" pos="528" pan="0" len="12" vol="100" />
          <note key="48" pos="576" pan="0" len="12" vol="100" />
          <note key="55" pos="588" pan="0" len="12" vol="100" />
          <note key="60" pos="600" pan="0" len="12" vol="100" />
          <note key="62" pos="612" pan="0" len="12" vol="100" />
          <note key="67" pos="624" pan="0" len="12" vol="100" />
          <note key="51" pos="672" pan="0" len="12" vol="100" />
          <note key="58" pos="684" pan="0" len="12" vol="100" />
          <note key="63" pos="696" pan="0" len="12" vol="100" />
          <note key="65" pos="708" pan="0" len="12" vol="100" />
          <note key="67" pos="720" pan="0" len="12" vol="100" />
        </pattern>
        <pattern pos="125964" muted="0" steps="16" name="" type="1">
          <note key="44" pos="0" pan="0" len="12" vol="100" />
          <note key="56" pos="12" pan="0" len="12" vol="100" />
          <note key="60" pos="24" pan="0" len="12" vol="100" />
          <note key="70" pos="36" pan="0" len="12" vol="100" />
          <note key="72" pos="48" pan="0" len="12" vol="100" />
          <note key="46" pos="96" pan="0" len="12" vol="100" />
          <note key="58" pos="108" pan="0" len="12" vol="100" />
          <note key="62" pos="120" pan="0" len="12" vol="100" />
          <note key="74" pos="132" pan="0" len="12" vol="100" />
          <note key="77" pos="144" pan="0" len="12" vol="100" />
          <note key="48" pos="192" pan="0" len="12" vol="100" />
          <note key="60" pos="204" pan="0" len="12" vol="100" />
          <note key="63" pos="216" pan="0" len="12" vol="100" />
          <note key="67" pos="228" pan="0" len="12" vol="100" />
          <note key="70" pos="240" pan="0" len="12" vol="100" />
          <note key="51" pos="288" pan="0" len="12" vol="100" />
          <note key="63" pos="300" pan="0" len="12" vol="100" />
          <note key="67" pos="312" pan="0" len="12" vol="100" />
          <note key="74" pos="324" pan="0" len="12" vol="100" />
          <note key="75" pos="336" pan="0" len="12" vol="100" />
          <note key="44" pos="384" pan="0" len="12" vol="100" />
          <note key="56" pos="396" pan="0" len="12" vol="100" />
          <note key="60" pos="408" pan="0" len="12" vol="100" />
          <note key="70" pos="420" pan="0" len="12" vol="100" />
          <note key="72" pos="432" pan="0" len="12" vol="100" />
          <note key="46" pos="480" pan="0" len="12" vol="100" />
          <note key="58" pos="492" pan="0" len="12" vol="100" />
          <note key="62" pos="504" pan="0" len="12" vol="100" />
          <note key="74" pos="516" pan="0" len="12" vol="100" />
          <note key="77" pos="528" pan="0" len="12" vol="100" />
          <note key="48" pos="576" pan="0" len="12" vol="100" />
          <note key="60" pos="588" pan="0" len="12" vol="100" />
          <note key="63" pos="600" pan="0" len="12" vol="100" />
          <note key="67" pos="612" pan="0" len="12" vol="100" />
          <note key="70" pos="624" pan="0" len="12" vol="100" />
          <note key="51" pos="672" pan="0" len="12" vol="100" />
          <note key="63" pos="684" pan="0" len="12" vol="100" />
          <note key="67" pos="696" pan="0" len="12" vol="100" />
          <note key="74" pos="708" pan="0" len="12" vol="100" />
          <note key="75" pos="720" pan="0" len="12" vol="100" />
          <note key="44" pos="768" pan="0" len="12" vol="100" />
          <note key="56" pos="780" pan="0" len="12" vol="100" />
          <note key="60" pos="792" pan="0" len="12" vol="100" />
          <note key="70" pos="804" pan="0" len="12" vol="100" />
          <note key="72" pos="816" pan="0" len="12" vol="100" />
          <note key="46" pos="864" pan="0" len="12" vol="100" />
          <note key="58" pos="876" pan="0" len="12" vol="100" />
          <note key="62" pos="888" pan="0" len="12" vol="100" />
          <note key="74" pos="900" pan="0" len="12" vol="100" />
          <note key="77" pos="912" pan="0" len="12" vol="100" />
          <note key="48" pos="960" pan="0" len="12" vol="100" />
          <note key="60" pos="972" pan="0" len="12" vol="100" />
          <note key="63" pos="984" pan="0" len="12" vol="100" />
          <note key="67" pos="996" pan="0" len="12" vol="100" />
          <note key="70" pos="1008" pan="0" len="12" vol="100" />
          <note key="51" pos="1056" pan="0" len="12" vol="100" />
          <note key="63" pos="1068" pan="0" len="12" vol="100" />
          <note key="67" pos="1080" pan="0" len="12" vol="100" />
          <note key="74" pos="1092" pan="0" len="12" vol="100" />
          <note key="75" pos="1104" pan="0" len="12" vol="100" />
          <note key="44" pos="1152" pan="0" len="12" vol="100" />
          <note key="56" pos="1164" pan="0" len="12" vol="100" />
          <note key="60" pos="1176" pan="0" len="12" vol="100" />
          <note key="70" pos="1188" pan="0" len="12" vol="100" />
          <note key="72" pos="1200" pan="0" len="12" vol="100" />
          <note key="46" pos="1248" pan="0" len="12" vol="100" />
          <note key="58" pos="1260" pan="0" len="12" vol="100" />
          <note key="62" pos="1272" pan="0" len="12" vol="100" />
          <note key="74" pos="1284" pan="0" len="12" vol="100" />
          <note key="77" pos="1296" pan="0" len="12" vol="100" />
          <note key="48" pos="1344" pan="0" len="12" vol="100" />
          <note key="60" pos="1356" pan="0" len="12" vol="100" />
          <note key="63" pos="1368" pan="0" len="12" vol="100" />
          <note key="67" pos="1380" pan="0" len="12" vol="100" />
          <note key="70" pos="1392" pan="0" len="12" vol="100" />
          <note key="48" pos="1440" pan="0" len="12" vol="100" />
          <note key="60" pos="1452" pan="0" len="12" vol="100" />
          <note key="63" pos="1464" pan="0" len="12" vol="100" />
          <note key="67" pos="1476" pan="0" len="12" vol="100" />
          <note key="72" pos="1488" pan="0" len="12" vol="100" />
        </pattern>
        <pattern pos="127500" muted="0" steps="16" name="" type="1">
          <note key="48" pos="0" pan="0" len="12" vol="100" />
          <note key="55" pos="12" pan="0" len="12" vol="100" />
          <note key="60" pos="24" pan="0" len="12" vol="100" />
          <note key="62" pos="36" pan="0" len="12" vol="100" />
          <note key="63" pos="48" pan="0" len="12" vol="100" />
          <note key="51" pos="96" pan="0" len="12" vol="100" />
          <note key="58" pos="108" pan="0" len="12" vol="100" />
          <note key="63" pos="120" pan="0" len="12" vol="100" />
          <note key="65" pos="132" pan="0" len="12" vol="100" />
          <note key="70" pos="144" pan="0" len="12" vol="100" />
          <note key="48" pos="192" pan="0" len="12" vol="100" />
          <note key="55" pos="204" pan="0" len="12" vol="100" />
          <note key="60" pos="216" pan="0" len="12" vol="100" />
          <note key="62" pos="228" pan="0" len="12" vol="100" />
          <note key="67" pos="240" pan="0" len="12" vol="100" />
          <note key="51" pos="288" pan="0" len="12" vol="100" />
          <note key="58" pos="300" pan="0" len="12" vol="100" />
          <note key="63" pos="312" pan="0" len="12" vol="100" />
          <note key="65" pos="324" pan="0" len="12" vol="100" />
          <note key="67" pos="336" pan="0" len="12" vol="100" />
          <note key="65" pos="348" pan="0" len="12" vol="100" />
          <note key="63" pos="360" pan="0" len="12" vol="100" />
          <note key="58" pos="372" pan="0" len="12" vol="100" />
          <note key="48" pos="384" pan="0" len="12" vol="100" />
          <note key="55" pos="396" pan="0" len="12" vol="100" />
          <note key="60" pos="408" pan="0" len="12" vol="100" />
          <note key="63" pos="420" pan="0" len="12" vol="100" />
          <note key="67" pos="432" pan="0" len="12" vol="100" />
          <note key="51" pos="480" pan="0" len="12" vol="100" />
          <note key="58" pos="492" pan="0" len="12" vol="100" />
          <note key="63" pos="504" pan="0" len="12" vol="100" />
          <note key="65" pos="516" pan="0" len="12" vol="100" />
          <note key="70" pos="528" pan="0" len="12" vol="100" />
          <note key="48" pos="576" pan="0" len="12" vol="100" />
          <note key="55" pos="588" pan="0" len="12" vol="100" />
          <note key="60" pos="600" pan="0" len="12" vol="100" />
          <note key="62" pos="612" pan="0" len="12" vol="100" />
          <note key="67" pos="624" pan="0" len="12" vol="100" />
          <note key="51" pos="672" pan="0" len="12" vol="100" />
          <note key="58" pos="684" pan="0" len="12" vol="100" />
          <note key="63" pos="696" pan="0" len="12" vol="100" />
          <note key="65" pos="708" pan="0" len="12" vol="100" />
          <note key="67" pos="720" pan="0" len="12" vol="100" />
          <note key="65" pos="732" pan="0" len="12" vol="100" />
          <note key="63" pos="744" pan="0" len="12" vol="100" />
          <note key="58" pos="756" pan="0" len="12" vol="100" />
          <note key="48" pos="768" pan="0" len="12" vol="100" />
          <note key="55" pos="780" pan="0" len="12" vol="100" />
          <note key="60" pos="792" pan="0" len="12" vol="100" />
          <note key="62" pos="804" pan="0" len="12" vol="100" />
          <note key="63" pos="816" pan="0" len="12" vol="100" />
          <note key="51" pos="864" pan="0" len="12" vol="100" />
          <note key="58" pos="876" pan="0" len="12" vol="100" />
          <note key="63" pos="888" pan="0" len="12" vol="100" />
          <note key="65" pos="900" pan="0" len="12" vol="100" />
          <note key="70" pos="912" pan="0" len="12" vol="100" />
          <note key="48" pos="960" pan="0" len="12" vol="100" />
          <note key="55" pos="972" pan="0" len="12" vol="100" />
          <note key="60" pos="984" pan="0" len="12" vol="100" />
          <note key="62" pos="996" pan="0" len="12" vol="100" />
          <note key="67" pos="1008" pan="0" len="12" vol="100" />
          <note key="51" pos="1056" pan="0" len="12" vol="100" />
          <note key="58" pos="1068" pan="0" len="12" vol="100" />
          <note key="63" pos="1080" pan="0" len="12" vol="100" />
          <note key="65" pos="1092" pan="0" len="12" vol="100" />
          <note key="67" pos="1104" pan="0" len="12" vol="100" />
          <note key="65" pos="1116" pan="0" len="12" vol="100" />
          <note key="63" pos="1128" pan="0" len="12" vol="100" />
          <note key="58" pos="1140" pan="0" len="12" vol="100" />
          <note key="48" pos="1152" pan="0" len="12" vol="100" />
          <note key="55" pos="1164" pan="0" len="12" vol="100" />
          <note key="60" pos="1176" pan="0" len="12" vol="100" />
          <note key="63" pos="1188" pan="0" len="12" vol="100" />
          <note key="67" pos="1200" pan="0" len="12" vol="100" />
          <note key="51" pos="1248" pan="0" len="12" vol="100" />
          <note key="58" pos="1260" pan="0" len="12" vol="100" />
          <note key="63" pos="1272" pan="0" len="12" vol="100" />
          <note key="65" pos="1284" pan="0" len="12" vol="100" />
          <note key="70" pos="1296" pan="0" len="12" vol="100" />
          <note key="48" pos="1344" pan="0" len="12" vol="100" />
          <note key="55" pos="1356" pan="0" len="12" vol="100" />
          <note key="60" pos="1368" pan="0" len="12" vol="100" />
          <note key="62" pos="1380" pan="0" len="12" vol="100" />
          <note key="67" pos="1392" pan="0" len="12" vol="100" />
          <note key="51" pos="1440" pan="0" len="12" vol="100" />
          <note key="58" pos="1452" pan="0" len="12" vol="100" />
          <note key="63" pos="1464" pan="0" len="12" vol="100" />
          <note key="65" pos="1476" pan="0" len="12" vol="100" />
          <note key="67" pos="1488" pan="0" len="12" vol="100" />
          <note key="65" pos="1500" pan="0" len="12" vol="100" />
          <note key="63" pos="1512" pan="0" len="12" vol="100" />
          <note key="58" pos="1524" pan="0" len="12" vol="100" />
        </pattern>
        <pattern pos="129036" muted="0" steps="16" name="" type="1">
          <note key="44" pos="0" pan="0" len="12" vol="100" />
          <note key="56" pos="12" pan="0" len="12" vol="100" />
          <note key="60" pos="24" pan="0" len="12" vol="100" />
          <note key="70" pos="36" pan="0" len="12" vol="100" />
          <note key="72" pos="48" pan="0" len="12" vol="100" />
          <note key="46" pos="96" pan="0" len="12" vol="100" />
          <note key="58" pos="108" pan="0" len="12" vol="100" />
          <note key="62" pos="120" pan="0" len="12" vol="100" />
          <note key="74" pos="132" pan="0" len="12" vol="100" />
          <note key="77" pos="144" pan="0" len="12" vol="100" />
          <note key="48" pos="192" pan="0" len="12" vol="100" />
          <note key="60" pos="204" pan="0" len="12" vol="100" />
          <note key="63" pos="216" pan="0" len="12" vol="100" />
          <note key="67" pos="228" pan="0" len="12" vol="100" />
          <note key="70" pos="240" pan="0" len="12" vol="100" />
          <note key="51" pos="288" pan="0" len="12" vol="100" />
          <note key="63" pos="300" pan="0" len="12" vol="100" />
          <note key="67" pos="312" pan="0" len="12" vol="100" />
          <note key="74" pos="324" pan="0" len="12" vol="100" />
          <note key="75" pos="336" pan="0" len="12" vol="100" />
          <note key="44" pos="384" pan="0" len="12" vol="100" />
          <note key="56" pos="396" pan="0" len="12" vol="100" />
          <note key="60" pos="408" pan="0" len="12" vol="100" />
          <note key="70" pos="420" pan="0" len="12" vol="100" />
          <note key="72" pos="432" pan="0" len="12" vol="100" />
          <note key="46" pos="480" pan="0" len="12" vol="100" />
          <note key="58" pos="492" pan="0" len="12" vol="100" />
          <note key="62" pos="504" pan="0" len="12" vol="100" />
          <note key="74" pos="516" pan="0" len="12" vol="100" />
          <note key="77" pos="528" pan="0" len="12" vol="100" />
          <note key="48" pos="576" pan="0" len="12" vol="100" />
          <note key="60" pos="588" pan="0" len="12" vol="100" />
          <note key="63" pos="600" pan="0" len="12" vol="100" />
          <note key="67" pos="612" pan="0" len="12" vol="100" />
          <note key="70" pos="624" pan="0" len="12" vol="100" />
          <note key="51" pos="672" pan="0" len="12" vol="100" />
          <note key="60" pos="684" pan="0" len="12" vol="100" />
          <note key="63" pos="696" pan="0" len="12" vol="100" />
          <note key="67" pos="708" pan="0" len="12" vol="100" />
          <note key="72" pos="720" pan="0" len="12" vol="100" />
          <note key="44" pos="768" pan="0" len="12" vol="100" />
          <note key="56" pos="780" pan="0" len="12" vol="100" />
          <note key="60" pos="792" pan="0" len="12" vol="100" />
          <note key="70" pos="804" pan="0" len="12" vol="100" />
          <note key="72" pos="816" pan="0" len="12" vol="100" />
          <note key="46" pos="864" pan="0" len="12" vol="100" />
          <note key="58" pos="876" pan="0" len="12" vol="100" />
          <note key="62" pos="888" pan="0" len="12" vol="100" />
          <note key="74" pos="900" pan="0" len="12" vol="100" />
          <note key="77" pos="912" pan="0" len="12" vol="100" />
          <note key="48" pos="960" pan="0" len="12" vol="100" />
          <note key="60" pos="972" pan="0" len="12" vol="100" />
          <note key="63" pos="984" pan="0" len="12" vol="100" />
          <note key="67" pos="996" pan="0" len="12" vol="100" />
          <note key="70" pos="1008" pan="0" len="12" vol="100" />
          <note key="51" pos="1056" pan="0" len="12" vol="100" />
          <note key="63" pos="1068" pan="0" len="12" vol="100" />
          <note key="67" pos="1080" pan="0" len="12" vol="100" />
          <note key="74" pos="1092" pan="0" len="12" vol="100" />
          <note key="75" pos="1104" pan="0" len="12" vol="100" />
          <note key="44" pos="1152" pan="0" len="12" vol="100" />
          <note key="56" pos="1164" pan="0" len="12" vol="100" />
          <note key="60" pos="1176" pan="0" len="12" vol="100" />
          <note key="70" pos="1188" pan="0" len="12" vol="100" />
          <note key="72" pos="1200" pan="0" len="12" vol="100" />
          <note key="46" pos="1248" pan="0" len="12" vol="100" />
          <note key="58" pos="1260" pan="0" len="12" vol="100" />
          <note key="62" pos="1272" pan="0" len="12" vol="100" />
          <note key="74" pos="1284" pan="0" len="12" vol="100" />
          <note key="77" pos="1296" pan="0" len="12" vol="100" />
          <note key="48" pos="1344" pan="0" len="12" vol="100" />
          <note key="60" pos="1356" pan="0" len="12" vol="100" />
          <note key="63" pos="1368" pan="0" len="12" vol="100" />
          <note key="67" pos="1380" pan="0" len="12" vol="100" />
          <note key="70" pos="1392" pan="0" len="12" vol="100" />
          <note key="48" pos="1440" pan="0" len="12" vol="100" />
          <note key="60" pos="1452" pan="0" len="12" vol="100" />
          <note key="63" pos="1464" pan="0" len="12" vol="100" />
          <note key="67" pos="1476" pan="0" len="12" vol="100" />
          <note key="72" pos="1488" pan="0" len="12" vol="100" />
        </pattern>
        <pattern pos="165900" muted="0" steps="16" name="" type="1">
          <note key="48" pos="0" pan="0" len="72" vol="100" />
          <note key="51" pos="288" pan="0" len="144" vol="100" />
          <note key="46" pos="432" pan="0" len="336" vol="100" />
        </pattern>
        <pattern pos="166668" muted="0" steps="16" name="" type="1">
          <note key="57" pos="0" pan="0" len="24" vol="100" />
          <note key="45" pos="48" pan="0" len="24" vol="100" />
          <note key="57" pos="96" pan="0" len="24" vol="100" />
          <note key="45" pos="144" pan="0" len="24" vol="100" />
          <note key="57" pos="192" pan="0" len="24" vol="100" />
          <note key="45" pos="240" pan="0" len="24" vol="100" />
          <note key="57" pos="288" pan="0" len="24" vol="100" />
          <note key="45" pos="336" pan="0" len="24" vol="100" />
          <note key="57" pos="384" pan="0" len="24" vol="100" />
          <note key="45" pos="432" pan="0" len="24" vol="100" />
          <note key="57" pos="480" pan="0" len="24" vol="100" />
          <note key="45" pos="528" pan="0" len="24" vol="100" />
          <note key="57" pos="576" pan="0" len="24" vol="100" />
          <note key="45" pos="624" pan="0" len="24" vol="100" />
          <note key="57" pos="672" pan="0" len="24" vol="100" />
          <note key="45" pos="720" pan="0" len="24" vol="100" />
          <note key="57" pos="768" pan="0" len="24" vol="100" />
          <note key="45" pos="816" pan="0" len="24" vol="100" />
          <note key="57" pos="864" pan="0" len="24" vol="100" />
          <note key="45" pos="912" pan="0" len="24" vol="100" />
          <note key="57" pos="960" pan="0" len="24" vol="100" />
          <note key="45" pos="1008" pan="0" len="24" vol="100" />
          <note key="57" pos="1056" pan="0" len="24" vol="100" />
          <note key="45" pos="1104" pan="0" len="24" vol="100" />
          <note key="57" pos="1152" pan="0" len="24" vol="100" />
          <note key="45" pos="1200" pan="0" len="24" vol="100" />
          <note key="57" pos="1248" pan="0" len="24" vol="100" />
          <note key="45" pos="1296" pan="0" len="24" vol="100" />
          <note key="57" pos="1344" pan="0" len="24" vol="100" />
          <note key="45" pos="1392" pan="0" len="24" vol="100" />
          <note key="57" pos="1440" pan="0" len="24" vol="100" />
          <note key="45" pos="1488" pan="0" len="24" vol="100" />
        </pattern>
        <pattern pos="172812" muted="0" steps="16" name="" type="1">
          <note key="53" pos="0" pan="0" len="12" vol="100" />
          <note key="48" pos="288" pan="0" len="12" vol="100" />
          <note key="51" pos="384" pan="0" len="12" vol="100" />
          <note key="48" pos="576" pan="0" len="12" vol="100" />
          <note key="53" pos="672" pan="0" len="12" vol="100" />
          <note key="53" pos="768" pan="0" len="12" vol="100" />
          <note key="48" pos="912" pan="0" len="12" vol="100" />
          <note key="53" pos="960" pan="0" len="12" vol="100" />
          <note key="48" pos="1056" pan="0" len="12" vol="100" />
          <note key="51" pos="1152" pan="0" len="12" vol="100" />
          <note key="53" pos="1296" pan="0" len="12" vol="100" />
          <note key="48" pos="1344" pan="0" len="12" vol="100" />
          <note key="53" pos="1440" pan="0" len="12" vol="100" />
        </pattern>
        <pattern pos="178956" muted="0" steps="16" name="" type="1">
          <note key="59" pos="0" pan="0" len="144" vol="100" />
          <note key="55" pos="144" pan="0" len="144" vol="100" />
          <note key="50" pos="288" pan="0" len="144" vol="100" />
          <note key="57" pos="432" pan="0" len="96" vol="100" />
          <note key="59" pos="576" pan="0" len="144" vol="100" />
          <note key="55" pos="720" pan="0" len="144" vol="100" />
          <note key="50" pos="864" pan="0" len="144" vol="100" />
          <note key="57" pos="1008" pan="0" len="96" vol="100" />
          <note key="55" pos="1152" pan="0" len="120" vol="100" />
          <note key="57" pos="1272" pan="0" len="24" vol="100" />
          <note key="59" pos="1296" pan="0" len="120" vol="100" />
          <note key="57" pos="1416" pan="0" len="24" vol="100" />
          <note key="62" pos="1440" pan="0" len="144" vol="100" />
          <note key="55" pos="1584" pan="0" len="120" vol="100" />
          <note key="57" pos="1704" pan="0" len="12" vol="100" />
          <note key="55" pos="1728" pan="0" len="120" vol="100" />
          <note key="57" pos="1848" pan="0" len="24" vol="100" />
          <note key="59" pos="1872" pan="0" len="12" vol="100" />
          <note key="52" pos="2016" pan="0" len="144" vol="100" />
          <note key="52" pos="2160" pan="0" len="144" vol="100" />
          <note key="55" pos="2304" pan="0" len="192" vol="100" />
          <note key="52" pos="2496" pan="0" len="576" vol="100" />
        </pattern>
        <pattern pos="222732" muted="0" steps="16" name="" type="1">
          <note key="58" pos="768" pan="0" len="192" vol="34" />
          <note key="56" pos="960" pan="0" len="96" vol="34" />
          <note key="54" pos="1056" pan="0" len="60" vol="34" />
          <note key="54" pos="1152" pan="0" len="48" vol="34" />
          <note key="49" pos="1224" pan="0" len="24" vol="34" />
          <note key="54" pos="1248" pan="0" len="72" vol="34" />
          <note key="49" pos="1344" pan="0" len="96" vol="34" />
          <note key="56" pos="1440" pan="0" len="48" vol="34" />
        </pattern>
        <pattern pos="225804" muted="0" steps="16" name="" type="1">
          <note key="58" pos="0" pan="0" len="72" vol="100" />
          <note key="53" pos="72" pan="0" len="24" vol="100" />
          <note key="58" pos="96" pan="0" len="72" vol="100" />
          <note key="53" pos="168" pan="0" len="24" vol="100" />
          <note key="56" pos="192" pan="0" len="72" vol="100" />
          <note key="51" pos="264" pan="0" len="24" vol="100" />
          <note key="54" pos="288" pan="0" len="60" vol="100" />
          <note key="54" pos="384" pan="0" len="72" vol="100" />
          <note key="49" pos="456" pan="0" len="24" vol="100" />
          <note key="54" pos="480" pan="0" len="72" vol="100" />
          <note key="56" pos="552" pan="0" len="24" vol="100" />
          <note key="49" pos="576" pan="0" len="72" vol="100" />
          <note key="51" pos="648" pan="0" len="24" vol="100" />
          <note key="56" pos="672" pan="0" len="48" vol="100" />
          <note key="58" pos="768" pan="0" len="72" vol="100" />
          <note key="53" pos="840" pan="0" len="24" vol="100" />
          <note key="58" pos="864" pan="0" len="72" vol="100" />
          <note key="61" pos="936" pan="0" len="24" vol="100" />
          <note key="60" pos="960" pan="0" len="72" vol="100" />
          <note key="51" pos="1032" pan="0" len="24" vol="100" />
          <note key="54" pos="1056" pan="0" len="60" vol="100" />
          <note key="54" pos="1152" pan="0" len="72" vol="100" />
          <note key="49" pos="1224" pan="0" len="24" vol="100" />
          <note key="54" pos="1248" pan="0" len="72" vol="100" />
          <note key="56" pos="1320" pan="0" len="24" vol="100" />
          <note key="49" pos="1344" pan="0" len="96" vol="100" />
          <note key="56" pos="1440" pan="0" len="48" vol="100" />
        </pattern>
        <pattern pos="227340" muted="0" steps="16" name="" type="1">
          <note key="59" pos="192" pan="0" len="96" vol="100" />
          <note key="58" pos="576" pan="0" len="96" vol="100" />
          <note key="56" pos="960" pan="0" len="96" vol="100" />
          <note key="56" pos="1344" pan="0" len="144" vol="100" />
          <note key="46" pos="1488" pan="0" len="48" vol="100" />
        </pattern>
        <pattern pos="228876" muted="0" steps="16" name="" type="1">
          <note key="56" pos="192" pan="0" len="96" vol="100" />
          <note key="55" pos="576" pan="0" len="96" vol="100" />
          <note key="53" pos="960" pan="0" len="96" vol="100" />
          <note key="65" pos="1344" pan="0" len="96" vol="100" />
          <note key="51" pos="1440" pan="0" len="96" vol="100" />
        </pattern>
        <pattern pos="231948" muted="0" steps="16" name="" type="1">
          <note key="58" pos="768" pan="0" len="192" vol="34" />
          <note key="56" pos="960" pan="0" len="96" vol="34" />
          <note key="54" pos="1056" pan="0" len="60" vol="34" />
          <note key="54" pos="1152" pan="0" len="48" vol="34" />
          <note key="49" pos="1224" pan="0" len="24" vol="34" />
          <note key="54" pos="1248" pan="0" len="72" vol="34" />
          <note key="49" pos="1344" pan="0" len="96" vol="34" />
          <note key="56" pos="1440" pan="0" len="48" vol="34" />
        </pattern>
        <pattern pos="248844" muted="0" steps="16" name="" type="1">
          <note key="43" pos="0" pan="0" len="24" vol="100" />
          <note key="50" pos="216" pan="0" len="12" vol="100" />
          <note key="41" pos="240" pan="0" len="24" vol="100" />
          <note key="43" pos="288" pan="0" len="24" vol="100" />
          <note key="50" pos="408" pan="0" len="24" vol="100" />
          <note key="48" pos="480" pan="0" len="24" vol="100" />
          <note key="43" pos="576" pan="0" len="24" vol="100" />
          <note key="50" pos="792" pan="0" len="12" vol="100" />
          <note key="41" pos="816" pan="0" len="24" vol="100" />
          <note key="43" pos="864" pan="0" len="24" vol="100" />
          <note key="50" pos="960" pan="0" len="24" vol="100" />
          <note key="41" pos="1056" pan="0" len="24" vol="100" />
          <note key="43" pos="1152" pan="0" len="24" vol="100" />
          <note key="50" pos="1368" pan="0" len="12" vol="100" />
          <note key="41" pos="1392" pan="0" len="24" vol="100" />
          <note key="43" pos="1440" pan="0" len="24" vol="100" />
          <note key="50" pos="1560" pan="0" len="24" vol="100" />
          <note key="48" pos="1632" pan="0" len="24" vol="100" />
          <note key="43" pos="1728" pan="0" len="24" vol="100" />
          <note key="50" pos="1944" pan="0" len="12" vol="100" />
          <note key="41" pos="1968" pan="0" len="24" vol="100" />
          <note key="43" pos="2016" pan="0" len="24" vol="100" />
          <note key="50" pos="2136" pan="0" len="24" vol="100" />
          <note key="41" pos="2208" pan="0" len="24" vol="100" />
        </pattern>
        <pattern pos="251148" muted="0" steps="16" name="" type="1">
          <note key="43" pos="0" pan="0" len="24" vol="100" />
          <note key="50" pos="216" pan="0" len="12" vol="100" />
          <note key="41" pos="240" pan="0" len="24" vol="100" />
          <note key="43" pos="288" pan="0" len="24" vol="100" />
          <note key="50" pos="408" pan="0" len="24" vol="100" />
          <note key="48" pos="480" pan="0" len="24" vol="100" />
          <note key="43" pos="576" pan="0" len="24" vol="100" />
          <note key="50" pos="792" pan="0" len="12" vol="100" />
          <note key="41" pos="816" pan="0" len="24" vol="100" />
          <note key="43" pos="864" pan="0" len="24" vol="100" />
          <note key="50" pos="960" pan="0" len="24" vol="100" />
          <note key="41" pos="1056" pan="0" len="24" vol="100" />
          <note key="43" pos="1152" pan="0" len="24" vol="100" />
          <note key="50" pos="1368" pan="0" len="12" vol="100" />
          <note key="41" pos="1392" pan="0" len="24" vol="100" />
          <note key="43" pos="1440" pan="0" len="24" vol="100" />
          <note key="50" pos="1560" pan="0" len="24" vol="100" />
          <note key="48" pos="1632" pan="0" len="24" vol="100" />
          <note key="43" pos="1728" pan="0" len="24" vol="100" />
          <note key="50" pos="1944" pan="0" len="12" vol="100" />
          <note key="41" pos="1968" pan="0" len="24" vol="100" />
          <note key="43" pos="2016" pan="0" len="24" vol="100" />
          <note key="50" pos="2136" pan="0" len="24" vol="100" />
          <note key="41" pos="2208" pan="0" len="24" vol="100" />
        </pattern>
        <pattern pos="253452" muted="0" steps="16" name="" type="1">
          <note key="51" pos="0" pan="0" len="24" vol="100" />
          <note key="58" pos="216" pan="0" len="24" vol="100" />
          <note key="51" pos="240" pan="0" len="24" vol="100" />
          <note key="53" pos="288" pan="0" len="24" vol="100" />
          <note key="57" pos="432" pan="0" len="24" vol="100" />
          <note key="53" pos="528" pan="0" len="12" vol="100" />
          <note key="57" pos="552" pan="0" len="12" vol="100" />
          <note key="55" pos="576" pan="0" len="24" vol="100" />
          <note key="53" pos="792" pan="0" len="12" vol="100" />
          <note key="57" pos="816" pan="0" len="24" vol="100" />
          <note key="58" pos="864" pan="0" len="36" vol="100" />
          <note key="57" pos="1080" pan="0" len="36" vol="100" />
          <note key="51" pos="1152" pan="0" len="24" vol="100" />
          <note key="58" pos="1368" pan="0" len="24" vol="100" />
          <note key="51" pos="1392" pan="0" len="24" vol="100" />
          <note key="48" pos="1440" pan="0" len="24" vol="100" />
          <note key="50" pos="1584" pan="0" len="24" vol="100" />
          <note key="53" pos="1656" pan="0" len="12" vol="100" />
          <note key="57" pos="1680" pan="0" len="12" vol="100" />
          <note key="55" pos="1728" pan="0" len="24" vol="100" />
          <note key="53" pos="1944" pan="0" len="12" vol="100" />
          <note key="43" pos="2016" pan="0" len="24" vol="100" />
          <note key="53" pos="2232" pan="0" len="12" vol="100" />
          <note key="57" pos="2256" pan="0" len="24" vol="100" />
        </pattern>
        <pattern pos="255756" muted="0" steps="16" name="" type="1">
          <note key="51" pos="0" pan="0" len="24" vol="100" />
          <note key="58" pos="216" pan="0" len="24" vol="100" />
          <note key="51" pos="240" pan="0" len="24" vol="100" />
          <note key="53" pos="288" pan="0" len="24" vol="100" />
          <note key="57" pos="432" pan="0" len="24" vol="100" />
          <note key="53" pos="528" pan="0" len="12" vol="100" />
          <note key="57" pos="552" pan="0" len="12" vol="100" />
          <note key="55" pos="576" pan="0" len="24" vol="100" />
          <note key="53" pos="792" pan="0" len="12" vol="100" />
          <note key="57" pos="816" pan="0" len="24" vol="100" />
          <note key="58" pos="864" pan="0" len="36" vol="100" />
          <note key="57" pos="1080" pan="0" len="36" vol="100" />
          <note key="51" pos="1152" pan="0" len="24" vol="100" />
          <note key="58" pos="1368" pan="0" len="24" vol="100" />
          <note key="51" pos="1392" pan="0" len="24" vol="100" />
          <note key="48" pos="1440" pan="0" len="24" vol="100" />
          <note key="50" pos="1584" pan="0" len="24" vol="100" />
          <note key="53" pos="1656" pan="0" len="12" vol="100" />
          <note key="57" pos="1680" pan="0" len="12" vol="100" />
          <note key="55" pos="1728" pan="0" len="24" vol="100" />
          <note key="53" pos="1944" pan="0" len="12" vol="100" />
          <note key="43" pos="2016" pan="0" len="24" vol="100" />
          <note key="53" pos="2232" pan="0" len="12" vol="100" />
          <note key="57" pos="2256" pan="0" len="24" vol="100" />
        </pattern>
        <pattern pos="258060" muted="0" steps="16" name="" type="1">
          <note key="43" pos="0" pan="0" len="24" vol="100" />
          <note key="50" pos="216" pan="0" len="12" vol="100" />
          <note key="41" pos="240" pan="0" len="24" vol="100" />
          <note key="43" pos="288" pan="0" len="24" vol="100" />
          <note key="50" pos="408" pan="0" len="24" vol="100" />
          <note key="48" pos="480" pan="0" len="24" vol="100" />
          <note key="43" pos="576" pan="0" len="24" vol="100" />
          <note key="50" pos="792" pan="0" len="12" vol="100" />
          <note key="41" pos="816" pan="0" len="24" vol="100" />
          <note key="43" pos="864" pan="0" len="24" vol="100" />
          <note key="50" pos="960" pan="0" len="24" vol="100" />
          <note key="41" pos="1056" pan="0" len="24" vol="100" />
          <note key="46" pos="1152" pan="0" len="24" vol="100" />
          <note key="50" pos="1368" pan="0" len="12" vol="100" />
          <note key="46" pos="1392" pan="0" len="24" vol="100" />
          <note key="48" pos="1440" pan="0" len="24" vol="100" />
          <note key="50" pos="1560" pan="0" len="24" vol="100" />
          <note key="48" pos="1632" pan="0" len="24" vol="100" />
          <note key="43" pos="1728" pan="0" len="24" vol="100" />
          <note key="50" pos="1944" pan="0" len="12" vol="100" />
          <note key="41" pos="1968" pan="0" len="24" vol="100" />
          <note key="43" pos="2016" pan="0" len="24" vol="100" />
          <note key="50" pos="2136" pan="0" len="24" vol="100" />
          <note key="41" pos="2208" pan="0" len="24" vol="100" />
        </pattern>
        <pattern pos="260364" muted="0" steps="16" name="" type="1">
          <note key="43" pos="0" pan="0" len="24" vol="100" />
          <note key="46" pos="192" pan="0" len="24" vol="100" />
          <note key="45" pos="216" pan="0" len="12" vol="100" />
          <note key="58" pos="288" pan="0" len="24" vol="100" />
          <note key="50" pos="408" pan="0" len="24" vol="100" />
          <note key="53" pos="480" pan="0" len="24" vol="100" />
          <note key="57" pos="552" pan="0" len="24" vol="100" />
          <note key="43" pos="576" pan="0" len="24" vol="100" />
          <note key="46" pos="792" pan="0" len="12" vol="100" />
          <note key="45" pos="816" pan="0" len="24" vol="100" />
          <note key="46" pos="864" pan="0" len="24" vol="100" />
          <note key="48" pos="960" pan="0" len="24" vol="100" />
          <note key="50" pos="1056" pan="0" len="24" vol="100" />
          <note key="43" pos="1152" pan="0" len="24" vol="100" />
          <note key="46" pos="1344" pan="0" len="24" vol="100" />
          <note key="45" pos="1368" pan="0" len="12" vol="100" />
          <note key="58" pos="1440" pan="0" len="24" vol="100" />
          <note key="50" pos="1560" pan="0" len="24" vol="100" />
          <note key="53" pos="1632" pan="0" len="24" vol="100" />
          <note key="57" pos="1704" pan="0" len="24" vol="100" />
          <note key="43" pos="1728" pan="0" len="24" vol="100" />
          <note key="46" pos="1944" pan="0" len="12" vol="100" />
          <note key="45" pos="1968" pan="0" len="24" vol="100" />
          <note key="46" pos="2016" pan="0" len="24" vol="100" />
          <note key="48" pos="2112" pan="0" len="24" vol="100" />
          <note key="50" pos="2208" pan="0" len="24" vol="100" />
        </pattern>
        <pattern pos="262668" muted="0" steps="16" name="" type="1">
          <note key="51" pos="0" pan="0" len="24" vol="100" />
          <note key="58" pos="216" pan="0" len="24" vol="100" />
          <note key="51" pos="240" pan="0" len="24" vol="100" />
          <note key="53" pos="288" pan="0" len="24" vol="100" />
          <note key="57" pos="432" pan="0" len="24" vol="100" />
          <note key="53" pos="528" pan="0" len="12" vol="100" />
          <note key="57" pos="552" pan="0" len="12" vol="100" />
          <note key="55" pos="576" pan="0" len="24" vol="100" />
          <note key="53" pos="792" pan="0" len="12" vol="100" />
          <note key="57" pos="816" pan="0" len="24" vol="100" />
          <note key="58" pos="864" pan="0" len="36" vol="100" />
          <note key="57" pos="1080" pan="0" len="36" vol="100" />
          <note key="51" pos="1152" pan="0" len="24" vol="100" />
          <note key="58" pos="1368" pan="0" len="24" vol="100" />
          <note key="51" pos="1392" pan="0" len="24" vol="100" />
          <note key="48" pos="1440" pan="0" len="24" vol="100" />
          <note key="50" pos="1584" pan="0" len="24" vol="100" />
          <note key="53" pos="1656" pan="0" len="12" vol="100" />
          <note key="57" pos="1680" pan="0" len="12" vol="100" />
          <note key="55" pos="1728" pan="0" len="24" vol="100" />
          <note key="53" pos="1944" pan="0" len="12" vol="100" />
          <note key="43" pos="2016" pan="0" len="24" vol="100" />
          <note key="53" pos="2232" pan="0" len="12" vol="100" />
          <note key="57" pos="2256" pan="0" len="24" vol="100" />
        </pattern>
        <pattern pos="264972" muted="0" steps="16" name="" type="1">
          <note key="51" pos="0" pan="0" len="24" vol="100" />
          <note key="58" pos="216" pan="0" len="24" vol="100" />
          <note key="51" pos="240" pan="0" len="24" vol="100" />
          <note key="53" pos="288" pan="0" len="24" vol="100" />
          <note key="57" pos="432" pan="0" len="24" vol="100" />
          <note key="53" pos="528" pan="0" len="12" vol="100" />
          <note key="57" pos="552" pan="0" len="12" vol="100" />
          <note key="55" pos="576" pan="0" len="24" vol="100" />
          <note key="53" pos="792" pan="0" len="12" vol="100" />
          <note key="57" pos="816" pan="0" len="24" vol="100" />
          <note key="58" pos="864" pan="0" len="36" vol="100" />
          <note key="57" pos="1080" pan="0" len="36" vol="100" />
          <note key="51" pos="1152" pan="0" len="24" vol="100" />
          <note key="58" pos="1368" pan="0" len="24" vol="100" />
          <note key="51" pos="1392" pan="0" len="24" vol="100" />
          <note key="48" pos="1440" pan="0" len="24" vol="100" />
          <note key="50" pos="1584" pan="0" len="24" vol="100" />
          <note key="53" pos="1656" pan="0" len="12" vol="100" />
          <note key="57" pos="1680" pan="0" len="12" vol="100" />
          <note key="55" pos="1728" pan="0" len="24" vol="100" />
          <note key="53" pos="1944" pan="0" len="12" vol="100" />
          <note key="43" pos="2016" pan="0" len="24" vol="100" />
          <note key="53" pos="2232" pan="0" len="12" vol="100" />
          <note key="57" pos="2256" pan="0" len="24" vol="100" />
        </pattern>
      </track>
      <track solo="0" name="1 (Ch2)" type="0" muted="0">
        <instrumenttrack usemasterpitch="1" pitch="0.0" basenote="57" pan="0" pitchrange="12" vol="30">
          <eldata />
          <instrument name="tripleoscillator" />
        </instrumenttrack>
        <pattern pos="279900" muted="0" steps="16" name="" type="1">
          <note key="75" pos="0" pan="0" len="12" vol="100" />
          <note key="70" pos="24" pan="0" len="12" vol="100" />
          <note key="75" pos="36" pan="0" len="12" vol="100" />
          <note key="78" pos="48" pan="0" len="12" vol="100" />
          <note key="82" pos="60" pan="0" len="12" vol="100" />
          <note key="84" pos="72" pan="0" len="36" vol="100" />
          <note key="80" pos="108" pan="0" len="12" vol="100" />
          <note key="75" pos="132" pan="0" len="12" vol="100" />
          <note key="87" pos="144" pan="0" len="24" vol="100" />
        </pattern>
        <pattern pos="1536" muted="0" steps="16" name="" type="1">
          <note key="79" pos="0" pan="0" len="24" vol="50" />
          <note key="72" pos="48" pan="0" len="24" vol="100" />
          <note key="79" pos="72" pan="0" len="24" vol="50" />
          <note key="79" pos="120" pan="0" len="36" vol="50" />
          <note key="79" pos="192" pan="0" len="36" vol="50" />
          <note key="72" pos="240" pan="0" len="24" vol="100" />
          <note key="79" pos="312" pan="0" len="36" vol="100" />
          <note key="79" pos="384" pan="0" len="48" vol="50" />
          <note key="75" pos="432" pan="0" len="24" vol="100" />
          <note key="79" pos="504" pan="0" len="24" vol="100" />
          <note key="79" pos="576" pan="0" len="36" vol="50" />
          <note key="77" pos="624" pan="0" len="24" vol="100" />
          <note key="77" pos="696" pan="0" len="48" vol="50" />
          <note key="79" pos="768" pan="0" len="24" vol="50" />
          <note key="72" pos="816" pan="0" len="24" vol="100" />
          <note key="79" pos="840" pan="0" len="24" vol="50" />
          <note key="79" pos="888" pan="0" len="36" vol="50" />
          <note key="79" pos="960" pan="0" len="36" vol="50" />
          <note key="72" pos="1008" pan="0" len="24" vol="100" />
          <note key="79" pos="1080" pan="0" len="36" vol="100" />
          <note key="79" pos="1152" pan="0" len="48" vol="50" />
          <note key="75" pos="1200" pan="0" len="24" vol="100" />
          <note key="79" pos="1272" pan="0" len="24" vol="100" />
          <note key="79" pos="1344" pan="0" len="36" vol="50" />
          <note key="77" pos="1392" pan="0" len="24" vol="100" />
          <note key="77" pos="1464" pan="0" len="48" vol="50" />
        </pattern>
        <pattern pos="3072" muted="0" steps="16" name="" type="1">
          <note key="79" pos="0" pan="0" len="24" vol="50" />
          <note key="72" pos="48" pan="0" len="24" vol="100" />
          <note key="79" pos="72" pan="0" len="24" vol="50" />
          <note key="79" pos="120" pan="0" len="36" vol="50" />
          <note key="79" pos="192" pan="0" len="36" vol="50" />
          <note key="72" pos="240" pan="0" len="24" vol="100" />
          <note key="79" pos="312" pan="0" len="36" vol="100" />
          <note key="79" pos="384" pan="0" len="48" vol="50" />
          <note key="75" pos="432" pan="0" len="24" vol="100" />
          <note key="79" pos="504" pan="0" len="24" vol="100" />
          <note key="79" pos="576" pan="0" len="36" vol="50" />
          <note key="77" pos="624" pan="0" len="24" vol="100" />
          <note key="77" pos="696" pan="0" len="48" vol="50" />
          <note key="79" pos="768" pan="0" len="24" vol="50" />
          <note key="72" pos="816" pan="0" len="24" vol="100" />
          <note key="79" pos="840" pan="0" len="24" vol="50" />
          <note key="79" pos="888" pan="0" len="36" vol="50" />
          <note key="79" pos="960" pan="0" len="36" vol="50" />
          <note key="72" pos="1008" pan="0" len="24" vol="100" />
          <note key="79" pos="1080" pan="0" len="36" vol="100" />
          <note key="79" pos="1152" pan="0" len="48" vol="50" />
          <note key="75" pos="1200" pan="0" len="24" vol="100" />
          <note key="79" pos="1272" pan="0" len="24" vol="100" />
          <note key="79" pos="1344" pan="0" len="36" vol="50" />
          <note key="77" pos="1392" pan="0" len="24" vol="100" />
          <note key="77" pos="1464" pan="0" len="48" vol="50" />
        </pattern>
        <pattern pos="4608" muted="0" steps="16" name="" type="1">
          <note key="79" pos="0" pan="0" len="24" vol="50" />
          <note key="72" pos="48" pan="0" len="24" vol="100" />
          <note key="79" pos="72" pan="0" len="24" vol="50" />
          <note key="79" pos="120" pan="0" len="36" vol="50" />
          <note key="79" pos="192" pan="0" len="36" vol="50" />
          <note key="72" pos="240" pan="0" len="24" vol="100" />
          <note key="79" pos="312" pan="0" len="36" vol="100" />
          <note key="79" pos="384" pan="0" len="48" vol="50" />
          <note key="75" pos="432" pan="0" len="24" vol="100" />
          <note key="79" pos="504" pan="0" len="24" vol="100" />
          <note key="79" pos="576" pan="0" len="36" vol="50" />
          <note key="77" pos="624" pan="0" len="24" vol="100" />
          <note key="77" pos="696" pan="0" len="48" vol="50" />
          <note key="79" pos="768" pan="0" len="24" vol="50" />
          <note key="72" pos="816" pan="0" len="24" vol="100" />
          <note key="79" pos="840" pan="0" len="24" vol="50" />
          <note key="79" pos="888" pan="0" len="36" vol="50" />
          <note key="79" pos="960" pan="0" len="36" vol="50" />
          <note key="72" pos="1008" pan="0" len="24" vol="100" />
          <note key="79" pos="1080" pan="0" len="36" vol="100" />
          <note key="79" pos="1152" pan="0" len="48" vol="50" />
          <note key="75" pos="1200" pan="0" len="24" vol="100" />
          <note key="79" pos="1272" pan="0" len="24" vol="100" />
          <note key="79" pos="1344" pan="0" len="36" vol="50" />
          <note key="77" pos="1392" pan="0" len="24" vol="100" />
          <note key="77" pos="1464" pan="0" len="48" vol="50" />
        </pattern>
        <pattern pos="6144" muted="0" steps="16" name="" type="1">
          <note key="80" pos="0" pan="0" len="48" vol="50" />
          <note key="80" pos="192" pan="0" len="48" vol="50" />
          <note key="80" pos="384" pan="0" len="48" vol="50" />
          <note key="82" pos="576" pan="0" len="48" vol="50" />
          <note key="80" pos="768" pan="0" len="48" vol="50" />
          <note key="80" pos="960" pan="0" len="48" vol="50" />
          <note key="80" pos="1152" pan="0" len="48" vol="50" />
          <note key="82" pos="1344" pan="0" len="48" vol="50" />
        </pattern>
        <pattern pos="7680" muted="0" steps="16" name="" type="1">
          <note key="79" pos="0" pan="0" len="24" vol="50" />
          <note key="72" pos="48" pan="0" len="24" vol="100" />
          <note key="79" pos="72" pan="0" len="24" vol="50" />
          <note key="79" pos="120" pan="0" len="36" vol="50" />
          <note key="79" pos="192" pan="0" len="36" vol="50" />
          <note key="72" pos="240" pan="0" len="24" vol="100" />
          <note key="79" pos="312" pan="0" len="36" vol="100" />
          <note key="79" pos="384" pan="0" len="48" vol="50" />
          <note key="75" pos="432" pan="0" len="24" vol="100" />
          <note key="79" pos="504" pan="0" len="24" vol="100" />
          <note key="79" pos="576" pan="0" len="36" vol="50" />
          <note key="77" pos="624" pan="0" len="24" vol="100" />
          <note key="77" pos="696" pan="0" len="48" vol="50" />
          <note key="79" pos="768" pan="0" len="24" vol="50" />
          <note key="72" pos="816" pan="0" len="24" vol="100" />
          <note key="79" pos="840" pan="0" len="24" vol="50" />
          <note key="79" pos="888" pan="0" len="36" vol="50" />
          <note key="79" pos="960" pan="0" len="36" vol="50" />
          <note key="72" pos="1008" pan="0" len="24" vol="100" />
          <note key="79" pos="1080" pan="0" len="36" vol="100" />
          <note key="79" pos="1152" pan="0" len="48" vol="50" />
          <note key="75" pos="1200" pan="0" len="24" vol="100" />
          <note key="79" pos="1272" pan="0" len="24" vol="100" />
          <note key="79" pos="1344" pan="0" len="36" vol="50" />
          <note key="77" pos="1392" pan="0" len="24" vol="100" />
          <note key="77" pos="1464" pan="0" len="48" vol="50" />
          <note key="79" pos="1536" pan="0" len="24" vol="50" />
          <note key="72" pos="1584" pan="0" len="24" vol="100" />
          <note key="79" pos="1608" pan="0" len="24" vol="50" />
          <note key="79" pos="1656" pan="0" len="36" vol="50" />
          <note key="79" pos="1728" pan="0" len="36" vol="50" />
          <note key="72" pos="1776" pan="0" len="24" vol="100" />
          <note key="79" pos="1848" pan="0" len="36" vol="100" />
          <note key="79" pos="1920" pan="0" len="48" vol="50" />
          <note key="75" pos="1968" pan="0" len="24" vol="100" />
          <note key="79" pos="2040" pan="0" len="24" vol="100" />
          <note key="79" pos="2112" pan="0" len="36" vol="50" />
          <note key="77" pos="2160" pan="0" len="24" vol="100" />
          <note key="77" pos="2232" pan="0" len="48" vol="50" />
          <note key="79" pos="2304" pan="0" len="24" vol="50" />
          <note key="72" pos="2352" pan="0" len="24" vol="100" />
          <note key="79" pos="2376" pan="0" len="24" vol="50" />
          <note key="79" pos="2424" pan="0" len="36" vol="50" />
          <note key="79" pos="2496" pan="0" len="36" vol="50" />
          <note key="72" pos="2544" pan="0" len="24" vol="100" />
          <note key="79" pos="2616" pan="0" len="36" vol="100" />
          <note key="79" pos="2688" pan="0" len="48" vol="50" />
          <note key="75" pos="2736" pan="0" len="24" vol="100" />
          <note key="79" pos="2808" pan="0" len="24" vol="100" />
          <note key="79" pos="2880" pan="0" len="36" vol="50" />
          <note key="77" pos="2928" pan="0" len="24" vol="100" />
          <note key="77" pos="3000" pan="0" len="48" vol="50" />
        </pattern>
        <pattern pos="10752" muted="0" steps="16" name="" type="1">
          <note key="80" pos="0" pan="0" len="48" vol="50" />
          <note key="80" pos="192" pan="0" len="48" vol="50" />
          <note key="80" pos="384" pan="0" len="48" vol="50" />
          <note key="82" pos="576" pan="0" len="48" vol="50" />
          <note key="80" pos="768" pan="0" len="48" vol="50" />
          <note key="80" pos="960" pan="0" len="48" vol="50" />
          <note key="80" pos="1152" pan="0" len="48" vol="50" />
          <note key="82" pos="1344" pan="0" len="48" vol="50" />
        </pattern>
        <pattern pos="12288" muted="0" steps="16" name="" type="1">
          <note key="79" pos="0" pan="0" len="24" vol="50" />
          <note key="72" pos="48" pan="0" len="24" vol="100" />
          <note key="79" pos="72" pan="0" len="24" vol="50" />
          <note key="79" pos="120" pan="0" len="36" vol="50" />
          <note key="77" pos="192" pan="0" len="36" vol="50" />
          <note key="77" pos="240" pan="0" len="24" vol="100" />
          <note key="77" pos="312" pan="0" len="36" vol="100" />
          <note key="80" pos="384" pan="0" len="48" vol="50" />
          <note key="75" pos="432" pan="0" len="24" vol="100" />
          <note key="80" pos="504" pan="0" len="24" vol="100" />
          <note key="79" pos="576" pan="0" len="36" vol="50" />
          <note key="77" pos="624" pan="0" len="24" vol="100" />
          <note key="77" pos="696" pan="0" len="48" vol="50" />
          <note key="77" pos="768" pan="0" len="24" vol="50" />
          <note key="77" pos="816" pan="0" len="24" vol="100" />
          <note key="80" pos="840" pan="0" len="24" vol="50" />
          <note key="77" pos="888" pan="0" len="36" vol="50" />
          <note key="77" pos="960" pan="0" len="36" vol="50" />
          <note key="74" pos="1008" pan="0" len="24" vol="100" />
          <note key="77" pos="1080" pan="0" len="36" vol="100" />
          <note key="80" pos="1152" pan="0" len="48" vol="50" />
          <note key="75" pos="1200" pan="0" len="24" vol="100" />
          <note key="80" pos="1272" pan="0" len="24" vol="100" />
          <note key="77" pos="1344" pan="0" len="36" vol="50" />
          <note key="77" pos="1392" pan="0" len="24" vol="100" />
          <note key="77" pos="1464" pan="0" len="48" vol="50" />
          <note key="79" pos="1536" pan="0" len="24" vol="50" />
          <note key="72" pos="1584" pan="0" len="24" vol="100" />
          <note key="79" pos="1608" pan="0" len="24" vol="50" />
          <note key="79" pos="1656" pan="0" len="36" vol="50" />
          <note key="77" pos="1728" pan="0" len="36" vol="50" />
          <note key="77" pos="1776" pan="0" len="24" vol="100" />
          <note key="77" pos="1848" pan="0" len="36" vol="100" />
          <note key="80" pos="1920" pan="0" len="48" vol="50" />
          <note key="75" pos="1968" pan="0" len="24" vol="100" />
          <note key="80" pos="2040" pan="0" len="24" vol="100" />
          <note key="79" pos="2112" pan="0" len="36" vol="50" />
          <note key="77" pos="2160" pan="0" len="24" vol="100" />
          <note key="77" pos="2232" pan="0" len="48" vol="50" />
          <note key="77" pos="2304" pan="0" len="24" vol="50" />
          <note key="77" pos="2352" pan="0" len="24" vol="100" />
          <note key="77" pos="2376" pan="0" len="24" vol="50" />
          <note key="77" pos="2424" pan="0" len="36" vol="50" />
          <note key="74" pos="2496" pan="0" len="36" vol="50" />
          <note key="74" pos="2544" pan="0" len="24" vol="100" />
          <note key="74" pos="2616" pan="0" len="36" vol="100" />
          <note key="75" pos="2688" pan="0" len="48" vol="50" />
          <note key="75" pos="2736" pan="0" len="24" vol="100" />
          <note key="75" pos="2808" pan="0" len="24" vol="100" />
          <note key="75" pos="2880" pan="0" len="108" vol="50" />
        </pattern>
        <pattern pos="46080" muted="0" steps="16" name="" type="1">
          <note key="71" pos="0" pan="0" len="24" vol="23" />
          <note key="74" pos="24" pan="0" len="12" vol="33" />
          <note key="71" pos="48" pan="0" len="24" vol="42" />
          <note key="74" pos="72" pan="0" len="12" vol="52" />
          <note key="71" pos="96" pan="0" len="24" vol="61" />
          <note key="74" pos="120" pan="0" len="12" vol="72" />
          <note key="71" pos="144" pan="0" len="24" vol="81" />
          <note key="74" pos="168" pan="0" len="24" vol="91" />
          <note key="70" pos="192" pan="0" len="24" vol="100" />
          <note key="74" pos="216" pan="0" len="12" vol="89" />
          <note key="70" pos="240" pan="0" len="24" vol="80" />
          <note key="74" pos="264" pan="0" len="12" vol="69" />
          <note key="70" pos="288" pan="0" len="24" vol="59" />
          <note key="74" pos="312" pan="0" len="12" vol="48" />
          <note key="70" pos="336" pan="0" len="24" vol="39" />
          <note key="74" pos="360" pan="0" len="12" vol="28" />
          <note key="68" pos="384" pan="0" len="24" vol="23" />
          <note key="72" pos="408" pan="0" len="12" vol="33" />
          <note key="68" pos="432" pan="0" len="24" vol="42" />
          <note key="72" pos="456" pan="0" len="12" vol="52" />
          <note key="68" pos="480" pan="0" len="24" vol="61" />
          <note key="72" pos="504" pan="0" len="12" vol="72" />
          <note key="68" pos="528" pan="0" len="24" vol="81" />
          <note key="72" pos="552" pan="0" len="12" vol="91" />
          <note key="69" pos="576" pan="0" len="24" vol="100" />
          <note key="72" pos="600" pan="0" len="12" vol="89" />
          <note key="69" pos="624" pan="0" len="24" vol="80" />
          <note key="72" pos="648" pan="0" len="12" vol="69" />
          <note key="69" pos="672" pan="0" len="24" vol="59" />
          <note key="72" pos="696" pan="0" len="12" vol="48" />
          <note key="69" pos="720" pan="0" len="24" vol="39" />
          <note key="72" pos="744" pan="0" len="12" vol="28" />
          <note key="72" pos="768" pan="0" len="24" vol="23" />
          <note key="75" pos="792" pan="0" len="12" vol="33" />
          <note key="72" pos="816" pan="0" len="24" vol="42" />
          <note key="75" pos="840" pan="0" len="12" vol="52" />
          <note key="72" pos="864" pan="0" len="24" vol="61" />
          <note key="75" pos="888" pan="0" len="12" vol="72" />
          <note key="72" pos="912" pan="0" len="24" vol="81" />
          <note key="75" pos="936" pan="0" len="24" vol="91" />
          <note key="71" pos="960" pan="0" len="24" vol="100" />
          <note key="75" pos="984" pan="0" len="12" vol="89" />
          <note key="71" pos="1008" pan="0" len="24" vol="80" />
          <note key="75" pos="1032" pan="0" len="12" vol="69" />
          <note key="71" pos="1056" pan="0" len="24" vol="59" />
          <note key="74" pos="1080" pan="0" len="12" vol="48" />
          <note key="71" pos="1104" pan="0" len="24" vol="39" />
          <note key="74" pos="1128" pan="0" len="12" vol="28" />
          <note key="68" pos="1152" pan="0" len="24" vol="23" />
          <note key="72" pos="1176" pan="0" len="12" vol="33" />
          <note key="68" pos="1200" pan="0" len="24" vol="42" />
          <note key="72" pos="1224" pan="0" len="12" vol="52" />
          <note key="68" pos="1248" pan="0" len="24" vol="61" />
          <note key="72" pos="1272" pan="0" len="12" vol="72" />
          <note key="68" pos="1296" pan="0" len="24" vol="81" />
          <note key="72" pos="1320" pan="0" len="12" vol="91" />
          <note key="69" pos="1344" pan="0" len="24" vol="100" />
          <note key="72" pos="1368" pan="0" len="12" vol="89" />
          <note key="69" pos="1392" pan="0" len="24" vol="80" />
          <note key="72" pos="1416" pan="0" len="12" vol="69" />
          <note key="69" pos="1440" pan="0" len="24" vol="59" />
          <note key="72" pos="1464" pan="0" len="12" vol="48" />
          <note key="69" pos="1488" pan="0" len="24" vol="39" />
          <note key="72" pos="1512" pan="0" len="12" vol="28" />
        </pattern>
        <pattern pos="49152" muted="0" steps="16" name="" type="1">
          <note key="71" pos="0" pan="0" len="24" vol="23" />
          <note key="74" pos="24" pan="0" len="12" vol="33" />
          <note key="71" pos="48" pan="0" len="24" vol="42" />
          <note key="74" pos="72" pan="0" len="12" vol="52" />
          <note key="71" pos="96" pan="0" len="24" vol="61" />
          <note key="74" pos="120" pan="0" len="12" vol="72" />
          <note key="71" pos="144" pan="0" len="24" vol="81" />
          <note key="74" pos="168" pan="0" len="24" vol="91" />
          <note key="70" pos="192" pan="0" len="24" vol="100" />
          <note key="74" pos="216" pan="0" len="12" vol="89" />
          <note key="70" pos="240" pan="0" len="24" vol="80" />
          <note key="74" pos="264" pan="0" len="12" vol="69" />
          <note key="70" pos="288" pan="0" len="24" vol="59" />
          <note key="74" pos="312" pan="0" len="12" vol="48" />
          <note key="70" pos="336" pan="0" len="24" vol="39" />
          <note key="74" pos="360" pan="0" len="12" vol="28" />
          <note key="68" pos="384" pan="0" len="24" vol="23" />
          <note key="72" pos="408" pan="0" len="12" vol="33" />
          <note key="68" pos="432" pan="0" len="24" vol="42" />
          <note key="72" pos="456" pan="0" len="12" vol="52" />
          <note key="68" pos="480" pan="0" len="24" vol="61" />
          <note key="72" pos="504" pan="0" len="12" vol="72" />
          <note key="68" pos="528" pan="0" len="24" vol="81" />
          <note key="72" pos="552" pan="0" len="12" vol="91" />
          <note key="69" pos="576" pan="0" len="24" vol="100" />
          <note key="72" pos="600" pan="0" len="12" vol="89" />
          <note key="69" pos="624" pan="0" len="24" vol="80" />
          <note key="72" pos="648" pan="0" len="12" vol="69" />
          <note key="69" pos="672" pan="0" len="24" vol="59" />
          <note key="72" pos="696" pan="0" len="12" vol="48" />
          <note key="69" pos="720" pan="0" len="24" vol="39" />
          <note key="72" pos="744" pan="0" len="12" vol="28" />
          <note key="72" pos="768" pan="0" len="24" vol="23" />
          <note key="75" pos="792" pan="0" len="12" vol="33" />
          <note key="72" pos="816" pan="0" len="24" vol="42" />
          <note key="75" pos="840" pan="0" len="12" vol="52" />
          <note key="72" pos="864" pan="0" len="24" vol="61" />
          <note key="75" pos="888" pan="0" len="12" vol="72" />
          <note key="72" pos="912" pan="0" len="24" vol="81" />
          <note key="75" pos="936" pan="0" len="24" vol="91" />
          <note key="71" pos="960" pan="0" len="24" vol="100" />
          <note key="75" pos="984" pan="0" len="12" vol="89" />
          <note key="71" pos="1008" pan="0" len="24" vol="80" />
          <note key="75" pos="1032" pan="0" len="12" vol="69" />
          <note key="71" pos="1056" pan="0" len="24" vol="59" />
          <note key="74" pos="1080" pan="0" len="12" vol="48" />
          <note key="71" pos="1104" pan="0" len="24" vol="39" />
          <note key="74" pos="1128" pan="0" len="12" vol="28" />
          <note key="68" pos="1152" pan="0" len="24" vol="23" />
          <note key="72" pos="1176" pan="0" len="12" vol="33" />
          <note key="68" pos="1200" pan="0" len="24" vol="42" />
          <note key="72" pos="1224" pan="0" len="12" vol="52" />
          <note key="68" pos="1248" pan="0" len="24" vol="61" />
          <note key="72" pos="1272" pan="0" len="12" vol="72" />
          <note key="68" pos="1296" pan="0" len="24" vol="81" />
          <note key="72" pos="1320" pan="0" len="12" vol="91" />
          <note key="69" pos="1344" pan="0" len="24" vol="100" />
          <note key="72" pos="1368" pan="0" len="12" vol="89" />
          <note key="69" pos="1392" pan="0" len="24" vol="80" />
          <note key="72" pos="1416" pan="0" len="12" vol="69" />
          <note key="69" pos="1440" pan="0" len="24" vol="59" />
          <note key="72" pos="1464" pan="0" len="12" vol="48" />
          <note key="69" pos="1488" pan="0" len="24" vol="39" />
          <note key="72" pos="1512" pan="0" len="12" vol="28" />
        </pattern>
        <pattern pos="52224" muted="0" steps="16" name="" type="1">
          <note key="73" pos="0" pan="0" len="24" vol="23" />
          <note key="76" pos="24" pan="0" len="12" vol="33" />
          <note key="73" pos="48" pan="0" len="24" vol="42" />
          <note key="76" pos="72" pan="0" len="12" vol="52" />
          <note key="73" pos="96" pan="0" len="24" vol="61" />
          <note key="76" pos="120" pan="0" len="12" vol="72" />
          <note key="73" pos="144" pan="0" len="24" vol="81" />
          <note key="76" pos="168" pan="0" len="24" vol="91" />
          <note key="72" pos="192" pan="0" len="24" vol="100" />
          <note key="76" pos="216" pan="0" len="12" vol="89" />
          <note key="72" pos="240" pan="0" len="24" vol="80" />
          <note key="76" pos="264" pan="0" len="12" vol="69" />
          <note key="72" pos="288" pan="0" len="24" vol="59" />
          <note key="76" pos="312" pan="0" len="12" vol="48" />
          <note key="72" pos="336" pan="0" len="24" vol="39" />
          <note key="76" pos="360" pan="0" len="12" vol="28" />
          <note key="70" pos="384" pan="0" len="24" vol="23" />
          <note key="74" pos="408" pan="0" len="12" vol="33" />
          <note key="70" pos="432" pan="0" len="24" vol="42" />
          <note key="74" pos="456" pan="0" len="12" vol="52" />
          <note key="70" pos="480" pan="0" len="24" vol="61" />
          <note key="74" pos="504" pan="0" len="12" vol="72" />
          <note key="70" pos="528" pan="0" len="24" vol="81" />
          <note key="74" pos="552" pan="0" len="12" vol="91" />
          <note key="71" pos="576" pan="0" len="24" vol="100" />
          <note key="74" pos="600" pan="0" len="12" vol="89" />
          <note key="71" pos="624" pan="0" len="24" vol="80" />
          <note key="74" pos="648" pan="0" len="12" vol="69" />
          <note key="71" pos="672" pan="0" len="24" vol="59" />
          <note key="74" pos="696" pan="0" len="12" vol="48" />
          <note key="71" pos="720" pan="0" len="24" vol="39" />
          <note key="74" pos="744" pan="0" len="12" vol="28" />
          <note key="74" pos="768" pan="0" len="24" vol="23" />
          <note key="77" pos="792" pan="0" len="12" vol="33" />
          <note key="74" pos="816" pan="0" len="24" vol="42" />
          <note key="77" pos="840" pan="0" len="12" vol="52" />
          <note key="74" pos="864" pan="0" len="24" vol="61" />
          <note key="77" pos="888" pan="0" len="12" vol="72" />
          <note key="74" pos="912" pan="0" len="24" vol="81" />
          <note key="77" pos="936" pan="0" len="24" vol="91" />
          <note key="73" pos="960" pan="0" len="24" vol="100" />
          <note key="77" pos="984" pan="0" len="12" vol="89" />
          <note key="73" pos="1008" pan="0" len="24" vol="80" />
          <note key="77" pos="1032" pan="0" len="12" vol="69" />
          <note key="73" pos="1056" pan="0" len="24" vol="59" />
          <note key="76" pos="1080" pan="0" len="12" vol="48" />
          <note key="73" pos="1104" pan="0" len="24" vol="39" />
          <note key="76" pos="1128" pan="0" len="12" vol="28" />
          <note key="72" pos="1152" pan="0" len="24" vol="23" />
          <note key="76" pos="1176" pan="0" len="12" vol="33" />
          <note key="72" pos="1200" pan="0" len="24" vol="42" />
          <note key="76" pos="1224" pan="0" len="12" vol="52" />
          <note key="72" pos="1248" pan="0" len="24" vol="61" />
          <note key="76" pos="1272" pan="0" len="12" vol="72" />
          <note key="72" pos="1296" pan="0" len="24" vol="81" />
          <note key="76" pos="1320" pan="0" len="12" vol="91" />
          <note key="73" pos="1344" pan="0" len="24" vol="100" />
          <note key="76" pos="1368" pan="0" len="12" vol="89" />
          <note key="73" pos="1392" pan="0" len="24" vol="80" />
          <note key="76" pos="1416" pan="0" len="12" vol="69" />
          <note key="73" pos="1440" pan="0" len="24" vol="59" />
          <note key="76" pos="1464" pan="0" len="12" vol="48" />
          <note key="73" pos="1488" pan="0" len="24" vol="39" />
          <note key="76" pos="1512" pan="0" len="12" vol="28" />
        </pattern>
        <pattern pos="54528" muted="0" steps="16" name="" type="1">
          <note key="71" pos="0" pan="0" len="24" vol="23" />
          <note key="74" pos="24" pan="0" len="12" vol="33" />
          <note key="71" pos="48" pan="0" len="24" vol="42" />
          <note key="74" pos="72" pan="0" len="12" vol="52" />
          <note key="71" pos="96" pan="0" len="24" vol="61" />
          <note key="74" pos="120" pan="0" len="12" vol="72" />
        </pattern>
        <pattern pos="55296" muted="0" steps="16" name="" type="1">
          <note key="38" pos="0" pan="0" len="288" vol="34" />
        </pattern>
        <pattern pos="56448" muted="0" steps="16" name="" type="1">
          <note key="62" pos="0" pan="0" len="12" vol="100" />
          <note key="50" pos="72" pan="0" len="12" vol="100" />
          <note key="62" pos="144" pan="0" len="12" vol="100" />
          <note key="50" pos="216" pan="0" len="12" vol="100" />
          <note key="62" pos="288" pan="0" len="12" vol="100" />
          <note key="50" pos="360" pan="0" len="12" vol="100" />
          <note key="62" pos="432" pan="0" len="12" vol="100" />
          <note key="50" pos="504" pan="0" len="12" vol="100" />
          <note key="50" pos="576" pan="0" len="12" vol="100" />
          <note key="50" pos="648" pan="0" len="12" vol="100" />
          <note key="50" pos="720" pan="0" len="12" vol="100" />
          <note key="50" pos="792" pan="0" len="12" vol="100" />
          <note key="50" pos="864" pan="0" len="12" vol="100" />
          <note key="50" pos="936" pan="0" len="12" vol="100" />
          <note key="50" pos="1008" pan="0" len="12" vol="100" />
          <note key="50" pos="1080" pan="0" len="12" vol="100" />
        </pattern>
        <pattern pos="57600" muted="0" steps="16" name="" type="1">
          <note key="62" pos="0" pan="0" len="12" vol="100" />
          <note key="50" pos="72" pan="0" len="12" vol="100" />
          <note key="62" pos="144" pan="0" len="12" vol="100" />
          <note key="50" pos="216" pan="0" len="12" vol="100" />
          <note key="62" pos="288" pan="0" len="12" vol="100" />
          <note key="50" pos="360" pan="0" len="12" vol="100" />
          <note key="62" pos="432" pan="0" len="12" vol="100" />
          <note key="50" pos="504" pan="0" len="12" vol="100" />
          <note key="62" pos="576" pan="0" len="12" vol="100" />
          <note key="50" pos="648" pan="0" len="12" vol="100" />
          <note key="62" pos="720" pan="0" len="12" vol="100" />
          <note key="50" pos="792" pan="0" len="12" vol="100" />
          <note key="62" pos="864" pan="0" len="12" vol="100" />
          <note key="50" pos="936" pan="0" len="12" vol="100" />
          <note key="62" pos="1008" pan="0" len="12" vol="100" />
          <note key="50" pos="1080" pan="0" len="12" vol="100" />
        </pattern>
        <pattern pos="58752" muted="0" steps="16" name="" type="1">
          <note key="62" pos="0" pan="0" len="12" vol="100" />
          <note key="50" pos="72" pan="0" len="12" vol="100" />
          <note key="62" pos="144" pan="0" len="12" vol="100" />
          <note key="50" pos="216" pan="0" len="12" vol="100" />
          <note key="62" pos="288" pan="0" len="12" vol="100" />
          <note key="50" pos="360" pan="0" len="12" vol="100" />
          <note key="62" pos="432" pan="0" len="12" vol="100" />
          <note key="50" pos="504" pan="0" len="12" vol="100" />
          <note key="50" pos="576" pan="0" len="12" vol="100" />
          <note key="50" pos="648" pan="0" len="12" vol="100" />
          <note key="48" pos="720" pan="0" len="12" vol="100" />
          <note key="48" pos="792" pan="0" len="12" vol="100" />
          <note key="43" pos="864" pan="0" len="12" vol="100" />
          <note key="43" pos="936" pan="0" len="12" vol="100" />
          <note key="43" pos="1008" pan="0" len="12" vol="100" />
          <note key="41" pos="1080" pan="0" len="12" vol="100" />
        </pattern>
        <pattern pos="59904" muted="0" steps="16" name="" type="1">
          <note key="62" pos="0" pan="0" len="12" vol="100" />
          <note key="50" pos="72" pan="0" len="12" vol="100" />
          <note key="53" pos="144" pan="0" len="12" vol="100" />
          <note key="43" pos="216" pan="0" len="12" vol="100" />
          <note key="62" pos="288" pan="0" len="12" vol="100" />
          <note key="50" pos="360" pan="0" len="12" vol="100" />
          <note key="53" pos="432" pan="0" len="12" vol="100" />
          <note key="43" pos="504" pan="0" len="12" vol="100" />
          <note key="62" pos="576" pan="0" len="12" vol="100" />
          <note key="50" pos="648" pan="0" len="12" vol="100" />
          <note key="60" pos="720" pan="0" len="12" vol="100" />
          <note key="48" pos="792" pan="0" len="12" vol="100" />
          <note key="55" pos="864" pan="0" len="12" vol="100" />
          <note key="43" pos="936" pan="0" len="12" vol="100" />
          <note key="55" pos="1008" pan="0" len="12" vol="100" />
          <note key="53" pos="1080" pan="0" len="12" vol="100" />
        </pattern>
        <pattern pos="61056" muted="0" steps="16" name="" type="1">
          <note key="62" pos="0" pan="0" len="12" vol="100" />
          <note key="50" pos="72" pan="0" len="12" vol="100" />
          <note key="62" pos="144" pan="0" len="12" vol="100" />
          <note key="50" pos="216" pan="0" len="12" vol="100" />
          <note key="62" pos="288" pan="0" len="12" vol="100" />
          <note key="50" pos="360" pan="0" len="12" vol="100" />
          <note key="62" pos="432" pan="0" len="12" vol="100" />
          <note key="50" pos="504" pan="0" len="12" vol="100" />
          <note key="62" pos="576" pan="0" len="12" vol="100" />
          <note key="50" pos="648" pan="0" len="12" vol="100" />
          <note key="62" pos="720" pan="0" len="12" vol="100" />
          <note key="50" pos="792" pan="0" len="12" vol="100" />
          <note key="62" pos="864" pan="0" len="12" vol="100" />
          <note key="50" pos="936" pan="0" len="12" vol="100" />
          <note key="62" pos="1008" pan="0" len="12" vol="100" />
          <note key="50" pos="1080" pan="0" len="12" vol="100" />
        </pattern>
        <pattern pos="62208" muted="0" steps="16" name="" type="1">
          <note key="67" pos="0" pan="0" len="12" vol="100" />
          <note key="55" pos="72" pan="0" len="12" vol="100" />
          <note key="70" pos="144" pan="0" len="12" vol="100" />
          <note key="58" pos="216" pan="0" len="12" vol="100" />
          <note key="60" pos="288" pan="0" len="12" vol="100" />
          <note key="48" pos="360" pan="0" len="12" vol="100" />
          <note key="48" pos="432" pan="0" len="12" vol="100" />
          <note key="48" pos="504" pan="0" len="12" vol="100" />
          <note key="67" pos="576" pan="0" len="12" vol="100" />
          <note key="55" pos="648" pan="0" len="12" vol="100" />
          <note key="70" pos="720" pan="0" len="12" vol="100" />
          <note key="58" pos="792" pan="0" len="12" vol="100" />
          <note key="60" pos="864" pan="0" len="12" vol="100" />
          <note key="48" pos="936" pan="0" len="12" vol="100" />
          <note key="53" pos="1008" pan="0" len="12" vol="100" />
          <note key="48" pos="1080" pan="0" len="12" vol="100" />
        </pattern>
        <pattern pos="63360" muted="0" steps="16" name="" type="1">
          <note key="62" pos="0" pan="0" len="12" vol="100" />
          <note key="50" pos="72" pan="0" len="12" vol="100" />
          <note key="53" pos="144" pan="0" len="12" vol="100" />
          <note key="43" pos="216" pan="0" len="48" vol="100" />
          <note key="50" pos="288" pan="0" len="12" vol="100" />
          <note key="50" pos="360" pan="0" len="12" vol="100" />
          <note key="53" pos="432" pan="0" len="12" vol="100" />
          <note key="48" pos="504" pan="0" len="12" vol="100" />
          <note key="62" pos="576" pan="0" len="12" vol="100" />
          <note key="50" pos="648" pan="0" len="12" vol="100" />
          <note key="53" pos="720" pan="0" len="12" vol="100" />
          <note key="48" pos="792" pan="0" len="12" vol="100" />
          <note key="53" pos="864" pan="0" len="12" vol="100" />
          <note key="48" pos="936" pan="0" len="12" vol="100" />
          <note key="55" pos="1008" pan="0" len="12" vol="100" />
          <note key="53" pos="1080" pan="0" len="12" vol="100" />
        </pattern>
        <pattern pos="64512" muted="0" steps="16" name="" type="1">
          <note key="62" pos="0" pan="0" len="12" vol="100" />
          <note key="50" pos="72" pan="0" len="12" vol="100" />
          <note key="62" pos="144" pan="0" len="12" vol="100" />
          <note key="50" pos="216" pan="0" len="12" vol="100" />
          <note key="62" pos="288" pan="0" len="12" vol="100" />
          <note key="50" pos="360" pan="0" len="12" vol="100" />
          <note key="62" pos="432" pan="0" len="12" vol="100" />
          <note key="50" pos="504" pan="0" len="12" vol="100" />
          <note key="62" pos="576" pan="0" len="12" vol="100" />
          <note key="50" pos="648" pan="0" len="12" vol="100" />
          <note key="62" pos="720" pan="0" len="12" vol="100" />
          <note key="50" pos="792" pan="0" len="12" vol="100" />
          <note key="62" pos="864" pan="0" len="12" vol="100" />
          <note key="50" pos="936" pan="0" len="12" vol="100" />
          <note key="62" pos="1008" pan="0" len="12" vol="100" />
          <note key="50" pos="1080" pan="0" len="12" vol="100" />
        </pattern>
        <pattern pos="65664" muted="0" steps="16" name="" type="1">
          <note key="62" pos="0" pan="0" len="12" vol="100" />
          <note key="50" pos="72" pan="0" len="12" vol="100" />
          <note key="62" pos="144" pan="0" len="12" vol="100" />
          <note key="50" pos="216" pan="0" len="12" vol="100" />
          <note key="62" pos="288" pan="0" len="12" vol="100" />
          <note key="50" pos="360" pan="0" len="12" vol="100" />
          <note key="62" pos="432" pan="0" len="12" vol="100" />
          <note key="50" pos="504" pan="0" len="12" vol="100" />
          <note key="50" pos="576" pan="0" len="12" vol="100" />
          <note key="50" pos="648" pan="0" len="12" vol="100" />
          <note key="50" pos="720" pan="0" len="12" vol="100" />
          <note key="50" pos="792" pan="0" len="12" vol="100" />
          <note key="50" pos="864" pan="0" len="12" vol="100" />
          <note key="50" pos="936" pan="0" len="12" vol="100" />
          <note key="50" pos="1008" pan="0" len="12" vol="100" />
          <note key="50" pos="1080" pan="0" len="12" vol="100" />
        </pattern>
        <pattern pos="182028" muted="0" steps="16" name="" type="1">
          <note key="72" pos="48" pan="0" len="24" vol="100" />
          <note key="72" pos="192" pan="0" len="24" vol="100" />
          <note key="69" pos="336" pan="0" len="24" vol="100" />
          <note key="67" pos="480" pan="0" len="24" vol="100" />
          <note key="72" pos="624" pan="0" len="24" vol="100" />
          <note key="72" pos="768" pan="0" len="24" vol="100" />
          <note key="69" pos="912" pan="0" len="24" vol="100" />
          <note key="67" pos="1056" pan="0" len="24" vol="100" />
        </pattern>
        <pattern pos="201996" muted="0" steps="16" name="" type="1">
          <note key="71" pos="336" pan="0" len="48" vol="100" />
          <note key="76" pos="384" pan="0" len="60" vol="100" />
          <note key="69" pos="1104" pan="0" len="48" vol="100" />
          <note key="62" pos="1152" pan="0" len="48" vol="100" />
        </pattern>
        <pattern pos="203532" muted="0" steps="16" name="" type="1">
          <note key="36" pos="768" pan="0" len="24" vol="100" />
          <note key="48" pos="816" pan="0" len="24" vol="100" />
          <note key="36" pos="864" pan="0" len="24" vol="100" />
          <note key="48" pos="912" pan="0" len="24" vol="100" />
          <note key="36" pos="960" pan="0" len="24" vol="100" />
          <note key="48" pos="1008" pan="0" len="24" vol="100" />
          <note key="36" pos="1056" pan="0" len="24" vol="100" />
          <note key="48" pos="1104" pan="0" len="24" vol="100" />
          <note key="36" pos="1152" pan="0" len="24" vol="100" />
          <note key="48" pos="1200" pan="0" len="12" vol="100" />
          <note key="36" pos="1248" pan="0" len="24" vol="100" />
          <note key="48" pos="1296" pan="0" len="12" vol="100" />
          <note key="36" pos="1344" pan="0" len="24" vol="100" />
          <note key="48" pos="1392" pan="0" len="12" vol="100" />
          <note key="36" pos="1440" pan="0" len="24" vol="100" />
          <note key="48" pos="1488" pan="0" len="12" vol="100" />
        </pattern>
        <pattern pos="205068" muted="0" steps="16" name="" type="1">
          <note key="48" pos="0" pan="0" len="12" vol="100" />
          <note key="60" pos="24" pan="0" len="12" vol="100" />
          <note key="48" pos="48" pan="0" len="12" vol="100" />
          <note key="60" pos="72" pan="0" len="12" vol="100" />
          <note key="48" pos="96" pan="0" len="12" vol="100" />
          <note key="60" pos="120" pan="0" len="12" vol="100" />
          <note key="48" pos="144" pan="0" len="12" vol="100" />
          <note key="60" pos="168" pan="0" len="12" vol="100" />
          <note key="48" pos="192" pan="0" len="12" vol="100" />
          <note key="60" pos="216" pan="0" len="12" vol="100" />
          <note key="48" pos="240" pan="0" len="12" vol="100" />
          <note key="60" pos="264" pan="0" len="12" vol="100" />
          <note key="48" pos="288" pan="0" len="12" vol="100" />
          <note key="60" pos="312" pan="0" len="12" vol="100" />
          <note key="48" pos="336" pan="0" len="12" vol="100" />
          <note key="60" pos="360" pan="0" len="12" vol="100" />
          <note key="43" pos="384" pan="0" len="24" vol="100" />
          <note key="43" pos="432" pan="0" len="24" vol="100" />
          <note key="43" pos="480" pan="0" len="24" vol="100" />
          <note key="43" pos="528" pan="0" len="24" vol="100" />
          <note key="43" pos="576" pan="0" len="24" vol="100" />
          <note key="43" pos="624" pan="0" len="24" vol="100" />
          <note key="43" pos="672" pan="0" len="24" vol="100" />
          <note key="43" pos="720" pan="0" len="24" vol="100" />
          <note key="41" pos="768" pan="0" len="12" vol="100" />
          <note key="53" pos="792" pan="0" len="12" vol="100" />
          <note key="41" pos="816" pan="0" len="12" vol="100" />
          <note key="53" pos="840" pan="0" len="12" vol="100" />
          <note key="41" pos="864" pan="0" len="12" vol="100" />
          <note key="53" pos="888" pan="0" len="12" vol="100" />
          <note key="41" pos="912" pan="0" len="12" vol="100" />
          <note key="53" pos="936" pan="0" len="12" vol="100" />
          <note key="41" pos="960" pan="0" len="12" vol="100" />
          <note key="53" pos="984" pan="0" len="12" vol="100" />
          <note key="41" pos="1008" pan="0" len="12" vol="100" />
          <note key="53" pos="1032" pan="0" len="12" vol="100" />
          <note key="41" pos="1056" pan="0" len="12" vol="100" />
          <note key="53" pos="1080" pan="0" len="12" vol="100" />
          <note key="41" pos="1104" pan="0" len="12" vol="100" />
          <note key="53" pos="1128" pan="0" len="12" vol="100" />
          <note key="48" pos="1152" pan="0" len="12" vol="100" />
          <note key="48" pos="1200" pan="0" len="12" vol="100" />
          <note key="48" pos="1248" pan="0" len="12" vol="100" />
          <note key="48" pos="1296" pan="0" len="12" vol="100" />
          <note key="44" pos="1344" pan="0" len="12" vol="100" />
          <note key="44" pos="1392" pan="0" len="12" vol="100" />
          <note key="41" pos="1440" pan="0" len="12" vol="100" />
          <note key="43" pos="1488" pan="0" len="12" vol="100" />
        </pattern>
        <pattern pos="206604" muted="0" steps="16" name="" type="1">
          <note key="48" pos="0" pan="0" len="12" vol="100" />
          <note key="60" pos="24" pan="0" len="12" vol="100" />
          <note key="48" pos="48" pan="0" len="12" vol="100" />
          <note key="60" pos="72" pan="0" len="12" vol="100" />
          <note key="48" pos="96" pan="0" len="12" vol="100" />
          <note key="60" pos="120" pan="0" len="12" vol="100" />
          <note key="48" pos="144" pan="0" len="12" vol="100" />
          <note key="60" pos="168" pan="0" len="12" vol="100" />
          <note key="48" pos="192" pan="0" len="12" vol="100" />
          <note key="60" pos="216" pan="0" len="12" vol="100" />
          <note key="48" pos="240" pan="0" len="12" vol="100" />
          <note key="60" pos="264" pan="0" len="12" vol="100" />
          <note key="48" pos="288" pan="0" len="12" vol="100" />
          <note key="60" pos="312" pan="0" len="12" vol="100" />
          <note key="48" pos="336" pan="0" len="12" vol="100" />
          <note key="60" pos="360" pan="0" len="12" vol="100" />
          <note key="43" pos="384" pan="0" len="24" vol="100" />
          <note key="43" pos="432" pan="0" len="24" vol="100" />
          <note key="43" pos="480" pan="0" len="24" vol="100" />
          <note key="43" pos="528" pan="0" len="24" vol="100" />
          <note key="43" pos="576" pan="0" len="24" vol="100" />
          <note key="43" pos="624" pan="0" len="24" vol="100" />
          <note key="43" pos="672" pan="0" len="24" vol="100" />
          <note key="43" pos="720" pan="0" len="24" vol="100" />
          <note key="41" pos="768" pan="0" len="12" vol="100" />
          <note key="53" pos="792" pan="0" len="12" vol="100" />
          <note key="41" pos="816" pan="0" len="12" vol="100" />
          <note key="53" pos="840" pan="0" len="12" vol="100" />
          <note key="41" pos="864" pan="0" len="12" vol="100" />
          <note key="53" pos="888" pan="0" len="12" vol="100" />
          <note key="41" pos="912" pan="0" len="12" vol="100" />
          <note key="53" pos="936" pan="0" len="12" vol="100" />
          <note key="41" pos="960" pan="0" len="12" vol="100" />
          <note key="53" pos="984" pan="0" len="12" vol="100" />
          <note key="41" pos="1008" pan="0" len="12" vol="100" />
          <note key="53" pos="1032" pan="0" len="12" vol="100" />
          <note key="41" pos="1056" pan="0" len="12" vol="100" />
          <note key="53" pos="1080" pan="0" len="12" vol="100" />
          <note key="41" pos="1104" pan="0" len="12" vol="100" />
          <note key="53" pos="1128" pan="0" len="12" vol="100" />
          <note key="48" pos="1152" pan="0" len="12" vol="100" />
          <note key="48" pos="1200" pan="0" len="12" vol="100" />
          <note key="48" pos="1248" pan="0" len="12" vol="100" />
          <note key="48" pos="1296" pan="0" len="12" vol="100" />
          <note key="44" pos="1344" pan="0" len="12" vol="100" />
          <note key="44" pos="1392" pan="0" len="12" vol="100" />
          <note key="41" pos="1440" pan="0" len="12" vol="100" />
          <note key="43" pos="1488" pan="0" len="12" vol="100" />
        </pattern>
        <pattern pos="208140" muted="0" steps="16" name="" type="1">
          <note key="51" pos="0" pan="0" len="12" vol="100" />
          <note key="63" pos="24" pan="0" len="12" vol="100" />
          <note key="51" pos="48" pan="0" len="12" vol="100" />
          <note key="63" pos="72" pan="0" len="12" vol="100" />
          <note key="51" pos="96" pan="0" len="12" vol="100" />
          <note key="63" pos="120" pan="0" len="12" vol="100" />
          <note key="51" pos="144" pan="0" len="12" vol="100" />
          <note key="63" pos="168" pan="0" len="12" vol="100" />
          <note key="51" pos="192" pan="0" len="12" vol="100" />
          <note key="63" pos="216" pan="0" len="12" vol="100" />
          <note key="51" pos="240" pan="0" len="12" vol="100" />
          <note key="63" pos="264" pan="0" len="12" vol="100" />
          <note key="41" pos="288" pan="0" len="12" vol="100" />
          <note key="53" pos="312" pan="0" len="12" vol="100" />
          <note key="41" pos="336" pan="0" len="12" vol="100" />
          <note key="53" pos="360" pan="0" len="12" vol="100" />
          <note key="43" pos="384" pan="0" len="24" vol="100" />
          <note key="55" pos="432" pan="0" len="24" vol="100" />
          <note key="43" pos="480" pan="0" len="24" vol="100" />
          <note key="55" pos="528" pan="0" len="24" vol="100" />
          <note key="43" pos="576" pan="0" len="24" vol="100" />
          <note key="55" pos="624" pan="0" len="24" vol="100" />
          <note key="43" pos="672" pan="0" len="24" vol="100" />
          <note key="55" pos="720" pan="0" len="24" vol="100" />
          <note key="48" pos="768" pan="0" len="12" vol="100" />
          <note key="60" pos="792" pan="0" len="12" vol="100" />
          <note key="48" pos="816" pan="0" len="12" vol="100" />
          <note key="60" pos="840" pan="0" len="12" vol="100" />
          <note key="48" pos="864" pan="0" len="12" vol="100" />
          <note key="60" pos="888" pan="0" len="12" vol="100" />
          <note key="48" pos="912" pan="0" len="12" vol="100" />
          <note key="60" pos="936" pan="0" len="12" vol="100" />
          <note key="48" pos="960" pan="0" len="12" vol="100" />
          <note key="60" pos="984" pan="0" len="12" vol="100" />
          <note key="48" pos="1008" pan="0" len="12" vol="100" />
          <note key="60" pos="1032" pan="0" len="12" vol="100" />
          <note key="46" pos="1056" pan="0" len="12" vol="100" />
          <note key="58" pos="1080" pan="0" len="12" vol="100" />
          <note key="46" pos="1104" pan="0" len="12" vol="100" />
          <note key="58" pos="1128" pan="0" len="12" vol="100" />
          <note key="44" pos="1152" pan="0" len="12" vol="100" />
          <note key="56" pos="1176" pan="0" len="12" vol="100" />
          <note key="44" pos="1200" pan="0" len="12" vol="100" />
          <note key="56" pos="1224" pan="0" len="12" vol="100" />
          <note key="44" pos="1248" pan="0" len="12" vol="100" />
          <note key="56" pos="1272" pan="0" len="12" vol="100" />
          <note key="44" pos="1296" pan="0" len="12" vol="100" />
          <note key="56" pos="1320" pan="0" len="12" vol="100" />
          <note key="44" pos="1344" pan="0" len="12" vol="100" />
          <note key="56" pos="1368" pan="0" len="12" vol="100" />
          <note key="46" pos="1392" pan="0" len="12" vol="100" />
          <note key="58" pos="1416" pan="0" len="12" vol="100" />
          <note key="46" pos="1440" pan="0" len="12" vol="100" />
          <note key="58" pos="1464" pan="0" len="12" vol="100" />
          <note key="46" pos="1488" pan="0" len="12" vol="100" />
          <note key="58" pos="1512" pan="0" len="12" vol="100" />
        </pattern>
        <pattern pos="209676" muted="0" steps="16" name="" type="1">
          <note key="51" pos="0" pan="0" len="12" vol="100" />
          <note key="63" pos="24" pan="0" len="12" vol="100" />
          <note key="51" pos="48" pan="0" len="12" vol="100" />
          <note key="63" pos="72" pan="0" len="12" vol="100" />
          <note key="51" pos="96" pan="0" len="12" vol="100" />
          <note key="63" pos="120" pan="0" len="12" vol="100" />
          <note key="51" pos="144" pan="0" len="12" vol="100" />
          <note key="63" pos="168" pan="0" len="12" vol="100" />
          <note key="51" pos="192" pan="0" len="12" vol="100" />
          <note key="63" pos="216" pan="0" len="12" vol="100" />
          <note key="51" pos="240" pan="0" len="12" vol="100" />
          <note key="63" pos="264" pan="0" len="12" vol="100" />
          <note key="41" pos="288" pan="0" len="12" vol="100" />
          <note key="53" pos="312" pan="0" len="12" vol="100" />
          <note key="41" pos="336" pan="0" len="12" vol="100" />
          <note key="53" pos="360" pan="0" len="12" vol="100" />
          <note key="43" pos="384" pan="0" len="24" vol="100" />
          <note key="55" pos="432" pan="0" len="24" vol="100" />
          <note key="43" pos="480" pan="0" len="24" vol="100" />
          <note key="55" pos="528" pan="0" len="24" vol="100" />
          <note key="43" pos="576" pan="0" len="24" vol="100" />
          <note key="55" pos="624" pan="0" len="24" vol="100" />
          <note key="43" pos="672" pan="0" len="24" vol="100" />
          <note key="55" pos="720" pan="0" len="24" vol="100" />
          <note key="48" pos="768" pan="0" len="12" vol="100" />
          <note key="60" pos="792" pan="0" len="12" vol="100" />
          <note key="48" pos="816" pan="0" len="12" vol="100" />
          <note key="60" pos="840" pan="0" len="12" vol="100" />
          <note key="48" pos="864" pan="0" len="12" vol="100" />
          <note key="60" pos="888" pan="0" len="12" vol="100" />
          <note key="48" pos="912" pan="0" len="12" vol="100" />
          <note key="60" pos="936" pan="0" len="12" vol="100" />
          <note key="48" pos="960" pan="0" len="12" vol="100" />
          <note key="60" pos="984" pan="0" len="12" vol="100" />
          <note key="48" pos="1008" pan="0" len="12" vol="100" />
          <note key="60" pos="1032" pan="0" len="12" vol="100" />
          <note key="46" pos="1056" pan="0" len="12" vol="100" />
          <note key="58" pos="1080" pan="0" len="12" vol="100" />
          <note key="46" pos="1104" pan="0" len="12" vol="100" />
          <note key="58" pos="1128" pan="0" len="12" vol="100" />
          <note key="44" pos="1152" pan="0" len="12" vol="100" />
          <note key="56" pos="1176" pan="0" len="12" vol="100" />
          <note key="44" pos="1200" pan="0" len="12" vol="100" />
          <note key="56" pos="1224" pan="0" len="12" vol="100" />
          <note key="44" pos="1248" pan="0" len="12" vol="100" />
          <note key="56" pos="1272" pan="0" len="12" vol="100" />
          <note key="44" pos="1296" pan="0" len="12" vol="100" />
          <note key="56" pos="1320" pan="0" len="12" vol="100" />
          <note key="44" pos="1344" pan="0" len="12" vol="100" />
          <note key="56" pos="1368" pan="0" len="12" vol="100" />
          <note key="46" pos="1392" pan="0" len="12" vol="100" />
          <note key="58" pos="1416" pan="0" len="12" vol="100" />
          <note key="46" pos="1440" pan="0" len="12" vol="100" />
          <note key="58" pos="1464" pan="0" len="12" vol="100" />
          <note key="46" pos="1488" pan="0" len="12" vol="100" />
          <note key="58" pos="1512" pan="0" len="12" vol="100" />
        </pattern>
        <pattern pos="211212" muted="0" steps="16" name="" type="1">
          <note key="36" pos="0" pan="0" len="24" vol="100" />
          <note key="48" pos="48" pan="0" len="12" vol="100" />
          <note key="36" pos="96" pan="0" len="24" vol="100" />
          <note key="48" pos="144" pan="0" len="12" vol="100" />
          <note key="36" pos="192" pan="0" len="24" vol="100" />
          <note key="48" pos="240" pan="0" len="12" vol="100" />
          <note key="36" pos="288" pan="0" len="24" vol="100" />
          <note key="48" pos="336" pan="0" len="12" vol="100" />
          <note key="36" pos="384" pan="0" len="24" vol="100" />
          <note key="48" pos="432" pan="0" len="12" vol="100" />
          <note key="36" pos="480" pan="0" len="24" vol="100" />
          <note key="48" pos="528" pan="0" len="12" vol="100" />
          <note key="36" pos="576" pan="0" len="24" vol="100" />
          <note key="48" pos="624" pan="0" len="12" vol="100" />
          <note key="36" pos="672" pan="0" len="24" vol="100" />
          <note key="48" pos="720" pan="0" len="12" vol="100" />
          <note key="36" pos="768" pan="0" len="24" vol="100" />
          <note key="48" pos="816" pan="0" len="12" vol="100" />
          <note key="36" pos="864" pan="0" len="24" vol="100" />
          <note key="48" pos="912" pan="0" len="12" vol="100" />
          <note key="36" pos="960" pan="0" len="24" vol="100" />
          <note key="48" pos="1008" pan="0" len="12" vol="100" />
          <note key="36" pos="1056" pan="0" len="24" vol="100" />
          <note key="48" pos="1104" pan="0" len="12" vol="100" />
          <note key="36" pos="1152" pan="0" len="24" vol="100" />
          <note key="48" pos="1200" pan="0" len="12" vol="100" />
          <note key="36" pos="1248" pan="0" len="24" vol="100" />
          <note key="48" pos="1296" pan="0" len="12" vol="100" />
          <note key="36" pos="1344" pan="0" len="24" vol="100" />
          <note key="48" pos="1392" pan="0" len="12" vol="100" />
          <note key="36" pos="1440" pan="0" len="24" vol="100" />
          <note key="48" pos="1488" pan="0" len="12" vol="100" />
        </pattern>
        <pattern pos="212748" muted="0" steps="16" name="" type="1">
          <note key="48" pos="0" pan="0" len="12" vol="100" />
          <note key="60" pos="24" pan="0" len="12" vol="100" />
          <note key="48" pos="48" pan="0" len="12" vol="100" />
          <note key="60" pos="72" pan="0" len="12" vol="100" />
          <note key="48" pos="96" pan="0" len="12" vol="100" />
          <note key="60" pos="120" pan="0" len="12" vol="100" />
          <note key="48" pos="144" pan="0" len="12" vol="100" />
          <note key="60" pos="168" pan="0" len="12" vol="100" />
          <note key="48" pos="192" pan="0" len="12" vol="100" />
          <note key="60" pos="216" pan="0" len="12" vol="100" />
          <note key="48" pos="240" pan="0" len="12" vol="100" />
          <note key="60" pos="264" pan="0" len="12" vol="100" />
          <note key="48" pos="288" pan="0" len="12" vol="100" />
          <note key="60" pos="312" pan="0" len="12" vol="100" />
          <note key="48" pos="336" pan="0" len="12" vol="100" />
          <note key="60" pos="360" pan="0" len="12" vol="100" />
          <note key="43" pos="384" pan="0" len="24" vol="100" />
          <note key="43" pos="432" pan="0" len="24" vol="100" />
          <note key="43" pos="480" pan="0" len="24" vol="100" />
          <note key="43" pos="528" pan="0" len="24" vol="100" />
          <note key="43" pos="576" pan="0" len="24" vol="100" />
          <note key="43" pos="624" pan="0" len="24" vol="100" />
          <note key="43" pos="672" pan="0" len="24" vol="100" />
          <note key="43" pos="720" pan="0" len="24" vol="100" />
          <note key="41" pos="768" pan="0" len="12" vol="100" />
          <note key="53" pos="792" pan="0" len="12" vol="100" />
          <note key="41" pos="816" pan="0" len="12" vol="100" />
          <note key="53" pos="840" pan="0" len="12" vol="100" />
          <note key="41" pos="864" pan="0" len="12" vol="100" />
          <note key="53" pos="888" pan="0" len="12" vol="100" />
          <note key="41" pos="912" pan="0" len="12" vol="100" />
          <note key="53" pos="936" pan="0" len="12" vol="100" />
          <note key="41" pos="960" pan="0" len="12" vol="100" />
          <note key="53" pos="984" pan="0" len="12" vol="100" />
          <note key="41" pos="1008" pan="0" len="12" vol="100" />
          <note key="53" pos="1032" pan="0" len="12" vol="100" />
          <note key="41" pos="1056" pan="0" len="12" vol="100" />
          <note key="53" pos="1080" pan="0" len="12" vol="100" />
          <note key="41" pos="1104" pan="0" len="12" vol="100" />
          <note key="53" pos="1128" pan="0" len="12" vol="100" />
          <note key="48" pos="1152" pan="0" len="12" vol="100" />
          <note key="48" pos="1200" pan="0" len="12" vol="100" />
          <note key="48" pos="1248" pan="0" len="12" vol="100" />
          <note key="48" pos="1296" pan="0" len="12" vol="100" />
          <note key="44" pos="1344" pan="0" len="12" vol="100" />
          <note key="44" pos="1392" pan="0" len="12" vol="100" />
          <note key="41" pos="1440" pan="0" len="12" vol="100" />
          <note key="43" pos="1488" pan="0" len="12" vol="100" />
        </pattern>
        <pattern pos="214284" muted="0" steps="16" name="" type="1">
          <note key="48" pos="0" pan="0" len="12" vol="100" />
          <note key="60" pos="24" pan="0" len="12" vol="100" />
          <note key="48" pos="48" pan="0" len="12" vol="100" />
          <note key="60" pos="72" pan="0" len="12" vol="100" />
          <note key="48" pos="96" pan="0" len="12" vol="100" />
          <note key="60" pos="120" pan="0" len="12" vol="100" />
          <note key="48" pos="144" pan="0" len="12" vol="100" />
          <note key="60" pos="168" pan="0" len="12" vol="100" />
          <note key="48" pos="192" pan="0" len="12" vol="100" />
          <note key="60" pos="216" pan="0" len="12" vol="100" />
          <note key="48" pos="240" pan="0" len="12" vol="100" />
          <note key="60" pos="264" pan="0" len="12" vol="100" />
          <note key="48" pos="288" pan="0" len="12" vol="100" />
          <note key="60" pos="312" pan="0" len="12" vol="100" />
          <note key="48" pos="336" pan="0" len="12" vol="100" />
          <note key="60" pos="360" pan="0" len="12" vol="100" />
          <note key="43" pos="384" pan="0" len="24" vol="100" />
          <note key="43" pos="432" pan="0" len="24" vol="100" />
          <note key="43" pos="480" pan="0" len="24" vol="100" />
          <note key="43" pos="528" pan="0" len="24" vol="100" />
          <note key="43" pos="576" pan="0" len="24" vol="100" />
          <note key="43" pos="624" pan="0" len="24" vol="100" />
          <note key="43" pos="672" pan="0" len="24" vol="100" />
          <note key="43" pos="720" pan="0" len="24" vol="100" />
          <note key="41" pos="768" pan="0" len="12" vol="100" />
          <note key="53" pos="792" pan="0" len="12" vol="100" />
          <note key="41" pos="816" pan="0" len="12" vol="100" />
          <note key="53" pos="840" pan="0" len="12" vol="100" />
          <note key="41" pos="864" pan="0" len="12" vol="100" />
          <note key="53" pos="888" pan="0" len="12" vol="100" />
          <note key="41" pos="912" pan="0" len="12" vol="100" />
          <note key="53" pos="936" pan="0" len="12" vol="100" />
          <note key="41" pos="960" pan="0" len="12" vol="100" />
          <note key="53" pos="984" pan="0" len="12" vol="100" />
          <note key="41" pos="1008" pan="0" len="12" vol="100" />
          <note key="53" pos="1032" pan="0" len="12" vol="100" />
          <note key="41" pos="1056" pan="0" len="12" vol="100" />
          <note key="53" pos="1080" pan="0" len="12" vol="100" />
          <note key="41" pos="1104" pan="0" len="12" vol="100" />
          <note key="53" pos="1128" pan="0" len="12" vol="100" />
          <note key="48" pos="1152" pan="0" len="12" vol="100" />
          <note key="48" pos="1200" pan="0" len="12" vol="100" />
          <note key="48" pos="1248" pan="0" len="12" vol="100" />
          <note key="48" pos="1296" pan="0" len="12" vol="100" />
          <note key="44" pos="1344" pan="0" len="12" vol="100" />
          <note key="44" pos="1392" pan="0" len="12" vol="100" />
          <note key="41" pos="1440" pan="0" len="12" vol="100" />
          <note key="43" pos="1488" pan="0" len="12" vol="100" />
        </pattern>
        <pattern pos="215820" muted="0" steps="16" name="" type="1">
          <note key="51" pos="0" pan="0" len="12" vol="100" />
          <note key="63" pos="24" pan="0" len="12" vol="100" />
          <note key="51" pos="48" pan="0" len="12" vol="100" />
          <note key="63" pos="72" pan="0" len="12" vol="100" />
          <note key="51" pos="96" pan="0" len="12" vol="100" />
          <note key="63" pos="120" pan="0" len="12" vol="100" />
          <note key="51" pos="144" pan="0" len="12" vol="100" />
          <note key="63" pos="168" pan="0" len="12" vol="100" />
          <note key="51" pos="192" pan="0" len="12" vol="100" />
          <note key="63" pos="216" pan="0" len="12" vol="100" />
          <note key="51" pos="240" pan="0" len="12" vol="100" />
          <note key="63" pos="264" pan="0" len="12" vol="100" />
          <note key="41" pos="288" pan="0" len="12" vol="100" />
          <note key="53" pos="312" pan="0" len="12" vol="100" />
          <note key="41" pos="336" pan="0" len="12" vol="100" />
          <note key="53" pos="360" pan="0" len="12" vol="100" />
          <note key="43" pos="384" pan="0" len="24" vol="100" />
          <note key="55" pos="432" pan="0" len="24" vol="100" />
          <note key="43" pos="480" pan="0" len="24" vol="100" />
          <note key="55" pos="528" pan="0" len="24" vol="100" />
          <note key="43" pos="576" pan="0" len="24" vol="100" />
          <note key="55" pos="624" pan="0" len="24" vol="100" />
          <note key="43" pos="672" pan="0" len="24" vol="100" />
          <note key="55" pos="720" pan="0" len="24" vol="100" />
          <note key="48" pos="768" pan="0" len="12" vol="100" />
          <note key="60" pos="792" pan="0" len="12" vol="100" />
          <note key="48" pos="816" pan="0" len="12" vol="100" />
          <note key="60" pos="840" pan="0" len="12" vol="100" />
          <note key="48" pos="864" pan="0" len="12" vol="100" />
          <note key="60" pos="888" pan="0" len="12" vol="100" />
          <note key="48" pos="912" pan="0" len="12" vol="100" />
          <note key="60" pos="936" pan="0" len="12" vol="100" />
          <note key="48" pos="960" pan="0" len="12" vol="100" />
          <note key="60" pos="984" pan="0" len="12" vol="100" />
          <note key="48" pos="1008" pan="0" len="12" vol="100" />
          <note key="60" pos="1032" pan="0" len="12" vol="100" />
          <note key="46" pos="1056" pan="0" len="12" vol="100" />
          <note key="58" pos="1080" pan="0" len="12" vol="100" />
          <note key="46" pos="1104" pan="0" len="12" vol="100" />
          <note key="58" pos="1128" pan="0" len="12" vol="100" />
          <note key="44" pos="1152" pan="0" len="12" vol="100" />
          <note key="56" pos="1176" pan="0" len="12" vol="100" />
          <note key="44" pos="1200" pan="0" len="12" vol="100" />
          <note key="56" pos="1224" pan="0" len="12" vol="100" />
          <note key="44" pos="1248" pan="0" len="12" vol="100" />
          <note key="56" pos="1272" pan="0" len="12" vol="100" />
          <note key="44" pos="1296" pan="0" len="12" vol="100" />
          <note key="56" pos="1320" pan="0" len="12" vol="100" />
          <note key="44" pos="1344" pan="0" len="12" vol="100" />
          <note key="56" pos="1368" pan="0" len="12" vol="100" />
          <note key="46" pos="1392" pan="0" len="12" vol="100" />
          <note key="58" pos="1416" pan="0" len="12" vol="100" />
          <note key="46" pos="1440" pan="0" len="12" vol="100" />
          <note key="58" pos="1464" pan="0" len="12" vol="100" />
          <note key="46" pos="1488" pan="0" len="12" vol="100" />
          <note key="58" pos="1512" pan="0" len="12" vol="100" />
        </pattern>
        <pattern pos="217356" muted="0" steps="16" name="" type="1">
          <note key="51" pos="0" pan="0" len="12" vol="100" />
          <note key="63" pos="24" pan="0" len="12" vol="100" />
          <note key="51" pos="48" pan="0" len="12" vol="100" />
          <note key="63" pos="72" pan="0" len="12" vol="100" />
          <note key="51" pos="96" pan="0" len="12" vol="100" />
          <note key="63" pos="120" pan="0" len="12" vol="100" />
          <note key="51" pos="144" pan="0" len="12" vol="100" />
          <note key="63" pos="168" pan="0" len="12" vol="100" />
          <note key="51" pos="192" pan="0" len="12" vol="100" />
          <note key="63" pos="216" pan="0" len="12" vol="100" />
          <note key="51" pos="240" pan="0" len="12" vol="100" />
          <note key="63" pos="264" pan="0" len="12" vol="100" />
          <note key="41" pos="288" pan="0" len="12" vol="100" />
          <note key="53" pos="312" pan="0" len="12" vol="100" />
          <note key="41" pos="336" pan="0" len="12" vol="100" />
          <note key="53" pos="360" pan="0" len="12" vol="100" />
          <note key="43" pos="384" pan="0" len="24" vol="100" />
          <note key="55" pos="432" pan="0" len="24" vol="100" />
          <note key="43" pos="480" pan="0" len="24" vol="100" />
          <note key="55" pos="528" pan="0" len="24" vol="100" />
          <note key="43" pos="576" pan="0" len="24" vol="100" />
          <note key="55" pos="624" pan="0" len="24" vol="100" />
          <note key="43" pos="672" pan="0" len="24" vol="100" />
          <note key="55" pos="720" pan="0" len="24" vol="100" />
          <note key="48" pos="768" pan="0" len="12" vol="100" />
          <note key="60" pos="792" pan="0" len="12" vol="100" />
          <note key="48" pos="816" pan="0" len="12" vol="100" />
          <note key="60" pos="840" pan="0" len="12" vol="100" />
          <note key="48" pos="864" pan="0" len="12" vol="100" />
          <note key="60" pos="888" pan="0" len="12" vol="100" />
          <note key="48" pos="912" pan="0" len="12" vol="100" />
          <note key="60" pos="936" pan="0" len="12" vol="100" />
          <note key="48" pos="960" pan="0" len="12" vol="100" />
          <note key="60" pos="984" pan="0" len="12" vol="100" />
          <note key="48" pos="1008" pan="0" len="12" vol="100" />
          <note key="60" pos="1032" pan="0" len="12" vol="100" />
          <note key="46" pos="1056" pan="0" len="12" vol="100" />
          <note key="58" pos="1080" pan="0" len="12" vol="100" />
          <note key="46" pos="1104" pan="0" len="12" vol="100" />
          <note key="58" pos="1128" pan="0" len="12" vol="100" />
          <note key="44" pos="1152" pan="0" len="12" vol="100" />
          <note key="56" pos="1176" pan="0" len="12" vol="100" />
          <note key="44" pos="1200" pan="0" len="12" vol="100" />
          <note key="56" pos="1224" pan="0" len="12" vol="100" />
          <note key="44" pos="1248" pan="0" len="12" vol="100" />
          <note key="56" pos="1272" pan="0" len="12" vol="100" />
          <note key="44" pos="1296" pan="0" len="12" vol="100" />
          <note key="56" pos="1320" pan="0" len="12" vol="100" />
          <note key="44" pos="1344" pan="0" len="12" vol="100" />
          <note key="56" pos="1368" pan="0" len="12" vol="100" />
          <note key="46" pos="1392" pan="0" len="12" vol="100" />
          <note key="58" pos="1416" pan="0" len="12" vol="100" />
          <note key="46" pos="1440" pan="0" len="12" vol="100" />
          <note key="58" pos="1464" pan="0" len="12" vol="100" />
          <note key="46" pos="1488" pan="0" len="12" vol="100" />
          <note key="58" pos="1512" pan="0" len="12" vol="100" />
        </pattern>
        <pattern pos="218892" muted="0" steps="16" name="" type="1">
          <note key="36" pos="0" pan="0" len="24" vol="100" />
          <note key="48" pos="48" pan="0" len="12" vol="100" />
          <note key="36" pos="96" pan="0" len="24" vol="100" />
          <note key="48" pos="144" pan="0" len="12" vol="100" />
          <note key="36" pos="192" pan="0" len="24" vol="100" />
          <note key="48" pos="240" pan="0" len="12" vol="100" />
          <note key="36" pos="288" pan="0" len="24" vol="100" />
          <note key="48" pos="336" pan="0" len="12" vol="100" />
          <note key="36" pos="384" pan="0" len="24" vol="100" />
          <note key="48" pos="432" pan="0" len="12" vol="100" />
          <note key="36" pos="480" pan="0" len="24" vol="100" />
          <note key="48" pos="528" pan="0" len="12" vol="100" />
          <note key="36" pos="576" pan="0" len="24" vol="100" />
          <note key="48" pos="624" pan="0" len="12" vol="100" />
          <note key="36" pos="672" pan="0" len="24" vol="100" />
          <note key="48" pos="720" pan="0" len="12" vol="100" />
          <note key="36" pos="768" pan="0" len="24" vol="100" />
          <note key="48" pos="816" pan="0" len="12" vol="100" />
          <note key="36" pos="864" pan="0" len="24" vol="100" />
          <note key="48" pos="912" pan="0" len="12" vol="100" />
          <note key="36" pos="960" pan="0" len="24" vol="100" />
          <note key="48" pos="1008" pan="0" len="12" vol="100" />
          <note key="36" pos="1056" pan="0" len="24" vol="100" />
          <note key="48" pos="1104" pan="0" len="12" vol="100" />
          <note key="36" pos="1152" pan="0" len="24" vol="100" />
          <note key="48" pos="1200" pan="0" len="12" vol="100" />
          <note key="36" pos="1248" pan="0" len="24" vol="100" />
          <note key="48" pos="1296" pan="0" len="12" vol="100" />
          <note key="36" pos="1344" pan="0" len="24" vol="100" />
          <note key="48" pos="1392" pan="0" len="12" vol="100" />
          <note key="36" pos="1440" pan="0" len="24" vol="100" />
          <note key="48" pos="1488" pan="0" len="12" vol="100" />
        </pattern>
        <pattern pos="220428" muted="0" steps="16" name="" type="1">
          <note key="36" pos="0" pan="0" len="24" vol="100" />
          <note key="48" pos="48" pan="0" len="12" vol="100" />
          <note key="36" pos="96" pan="0" len="24" vol="100" />
          <note key="48" pos="144" pan="0" len="12" vol="100" />
        </pattern>
        <pattern pos="268812" muted="0" steps="16" name="" type="1">
          <note key="75" pos="0" pan="0" len="12" vol="100" />
          <note key="70" pos="24" pan="0" len="12" vol="100" />
          <note key="75" pos="36" pan="0" len="12" vol="100" />
          <note key="78" pos="48" pan="0" len="12" vol="100" />
          <note key="82" pos="60" pan="0" len="12" vol="100" />
          <note key="80" pos="72" pan="0" len="36" vol="100" />
          <note key="77" pos="108" pan="0" len="12" vol="100" />
          <note key="73" pos="132" pan="0" len="12" vol="100" />
          <note key="78" pos="144" pan="0" len="12" vol="100" />
          <note key="73" pos="168" pan="0" len="12" vol="100" />
          <note key="78" pos="180" pan="0" len="12" vol="100" />
          <note key="82" pos="192" pan="0" len="12" vol="100" />
          <note key="85" pos="204" pan="0" len="12" vol="100" />
          <note key="84" pos="216" pan="0" len="36" vol="100" />
          <note key="80" pos="252" pan="0" len="24" vol="100" />
          <note key="75" pos="276" pan="0" len="12" vol="100" />
          <note key="83" pos="288" pan="0" len="12" vol="100" />
          <note key="78" pos="312" pan="0" len="12" vol="100" />
          <note key="83" pos="324" pan="0" len="12" vol="100" />
          <note key="87" pos="336" pan="0" len="12" vol="100" />
          <note key="90" pos="348" pan="0" len="12" vol="100" />
          <note key="89" pos="360" pan="0" len="36" vol="100" />
          <note key="85" pos="396" pan="0" len="12" vol="100" />
          <note key="89" pos="420" pan="0" len="12" vol="100" />
          <note key="90" pos="432" pan="0" len="12" vol="100" />
          <note key="87" pos="444" pan="0" len="12" vol="100" />
          <note key="82" pos="456" pan="0" len="12" vol="100" />
          <note key="78" pos="468" pan="0" len="12" vol="100" />
          <note key="77" pos="480" pan="0" len="12" vol="100" />
          <note key="75" pos="492" pan="0" len="12" vol="100" />
          <note key="87" pos="504" pan="0" len="12" vol="100" />
        </pattern>
      </track>
      <track solo="0" name="1 (Ch3)" type="0" muted="0">
        <instrumenttrack usemasterpitch="1" pitch="0.0" basenote="57" pan="0" pitchrange="12" vol="30">
          <eldata />
          <instrument name="tripleoscillator" />
        </instrumenttrack>
        <pattern pos="268044" muted="0" steps="16" name="" type="1">
          <note key="82" pos="24" pan="0" len="12" vol="100" />
          <note key="79" pos="48" pan="0" len="12" vol="100" />
          <note key="74" pos="72" pan="0" len="12" vol="100" />
          <note key="84" pos="96" pan="0" len="12" vol="100" />
          <note key="81" pos="144" pan="0" len="36" vol="100" />
          <note key="78" pos="192" pan="0" len="24" vol="100" />
          <note key="79" pos="216" pan="0" len="72" vol="100" />
        </pattern>
        <pattern pos="1536" muted="0" steps="16" name="" type="1">
          <note key="84" pos="0" pan="0" len="24" vol="50" />
          <note key="84" pos="72" pan="0" len="24" vol="50" />
          <note key="84" pos="120" pan="0" len="36" vol="50" />
          <note key="84" pos="192" pan="0" len="36" vol="50" />
          <note key="79" pos="264" pan="0" len="36" vol="50" />
          <note key="84" pos="312" pan="0" len="36" vol="100" />
          <note key="84" pos="384" pan="0" len="72" vol="50" />
          <note key="84" pos="504" pan="0" len="24" vol="100" />
          <note key="84" pos="576" pan="0" len="36" vol="50" />
          <note key="82" pos="648" pan="0" len="24" vol="62" />
          <note key="82" pos="696" pan="0" len="48" vol="50" />
          <note key="84" pos="768" pan="0" len="24" vol="50" />
          <note key="84" pos="840" pan="0" len="24" vol="50" />
          <note key="84" pos="888" pan="0" len="36" vol="50" />
          <note key="84" pos="960" pan="0" len="36" vol="50" />
          <note key="79" pos="1032" pan="0" len="36" vol="50" />
          <note key="84" pos="1080" pan="0" len="36" vol="100" />
          <note key="84" pos="1152" pan="0" len="72" vol="50" />
          <note key="84" pos="1272" pan="0" len="24" vol="100" />
          <note key="84" pos="1344" pan="0" len="36" vol="50" />
          <note key="82" pos="1416" pan="0" len="24" vol="62" />
          <note key="82" pos="1464" pan="0" len="48" vol="50" />
        </pattern>
        <pattern pos="3072" muted="0" steps="16" name="" type="1">
          <note key="84" pos="0" pan="0" len="24" vol="50" />
          <note key="84" pos="72" pan="0" len="24" vol="50" />
          <note key="84" pos="120" pan="0" len="36" vol="50" />
          <note key="84" pos="192" pan="0" len="36" vol="50" />
          <note key="79" pos="264" pan="0" len="36" vol="50" />
          <note key="84" pos="312" pan="0" len="36" vol="100" />
          <note key="84" pos="384" pan="0" len="72" vol="50" />
          <note key="84" pos="504" pan="0" len="24" vol="100" />
          <note key="84" pos="576" pan="0" len="36" vol="50" />
          <note key="82" pos="648" pan="0" len="24" vol="62" />
          <note key="82" pos="696" pan="0" len="48" vol="50" />
          <note key="84" pos="768" pan="0" len="24" vol="50" />
          <note key="84" pos="840" pan="0" len="24" vol="50" />
          <note key="84" pos="888" pan="0" len="36" vol="50" />
          <note key="84" pos="960" pan="0" len="36" vol="50" />
          <note key="79" pos="1032" pan="0" len="36" vol="50" />
          <note key="84" pos="1080" pan="0" len="36" vol="100" />
          <note key="84" pos="1152" pan="0" len="72" vol="50" />
          <note key="84" pos="1272" pan="0" len="24" vol="100" />
          <note key="84" pos="1344" pan="0" len="36" vol="50" />
          <note key="82" pos="1416" pan="0" len="24" vol="62" />
          <note key="82" pos="1464" pan="0" len="48" vol="50" />
        </pattern>
        <pattern pos="4608" muted="0" steps="16" name="" type="1">
          <note key="84" pos="0" pan="0" len="24" vol="50" />
          <note key="84" pos="72" pan="0" len="24" vol="50" />
          <note key="84" pos="120" pan="0" len="36" vol="50" />
          <note key="84" pos="192" pan="0" len="36" vol="50" />
          <note key="79" pos="264" pan="0" len="36" vol="50" />
          <note key="84" pos="312" pan="0" len="36" vol="100" />
          <note key="84" pos="384" pan="0" len="72" vol="50" />
          <note key="84" pos="504" pan="0" len="24" vol="100" />
          <note key="84" pos="576" pan="0" len="36" vol="50" />
          <note key="82" pos="648" pan="0" len="24" vol="62" />
          <note key="82" pos="696" pan="0" len="48" vol="50" />
          <note key="84" pos="768" pan="0" len="24" vol="50" />
          <note key="84" pos="840" pan="0" len="24" vol="50" />
          <note key="84" pos="888" pan="0" len="36" vol="50" />
          <note key="84" pos="960" pan="0" len="36" vol="50" />
          <note key="79" pos="1032" pan="0" len="36" vol="50" />
          <note key="84" pos="1080" pan="0" len="36" vol="100" />
          <note key="84" pos="1152" pan="0" len="72" vol="50" />
          <note key="84" pos="1272" pan="0" len="24" vol="100" />
          <note key="84" pos="1344" pan="0" len="36" vol="50" />
          <note key="82" pos="1416" pan="0" len="24" vol="62" />
          <note key="82" pos="1464" pan="0" len="48" vol="50" />
        </pattern>
        <pattern pos="6144" muted="0" steps="16" name="" type="1">
          <note key="84" pos="0" pan="0" len="48" vol="50" />
          <note key="84" pos="120" pan="0" len="48" vol="50" />
          <note key="84" pos="192" pan="0" len="120" vol="50" />
          <note key="84" pos="312" pan="0" len="48" vol="50" />
          <note key="84" pos="384" pan="0" len="48" vol="50" />
          <note key="84" pos="504" pan="0" len="48" vol="50" />
          <note key="86" pos="576" pan="0" len="48" vol="50" />
          <note key="86" pos="696" pan="0" len="36" vol="50" />
          <note key="84" pos="768" pan="0" len="48" vol="50" />
          <note key="84" pos="888" pan="0" len="48" vol="50" />
          <note key="84" pos="960" pan="0" len="120" vol="50" />
          <note key="84" pos="1080" pan="0" len="48" vol="50" />
          <note key="84" pos="1152" pan="0" len="48" vol="50" />
          <note key="84" pos="1272" pan="0" len="48" vol="50" />
          <note key="86" pos="1344" pan="0" len="48" vol="50" />
          <note key="86" pos="1464" pan="0" len="36" vol="50" />
        </pattern>
        <pattern pos="7680" muted="0" steps="16" name="" type="1">
          <note key="84" pos="0" pan="0" len="24" vol="50" />
          <note key="84" pos="72" pan="0" len="24" vol="50" />
          <note key="84" pos="120" pan="0" len="36" vol="50" />
          <note key="84" pos="192" pan="0" len="36" vol="50" />
          <note key="79" pos="264" pan="0" len="36" vol="50" />
          <note key="84" pos="312" pan="0" len="36" vol="100" />
          <note key="84" pos="384" pan="0" len="72" vol="50" />
          <note key="84" pos="504" pan="0" len="24" vol="100" />
          <note key="84" pos="576" pan="0" len="36" vol="50" />
          <note key="82" pos="648" pan="0" len="24" vol="62" />
          <note key="82" pos="696" pan="0" len="48" vol="50" />
          <note key="84" pos="768" pan="0" len="24" vol="50" />
          <note key="84" pos="840" pan="0" len="24" vol="50" />
          <note key="84" pos="888" pan="0" len="36" vol="50" />
          <note key="84" pos="960" pan="0" len="36" vol="50" />
          <note key="79" pos="1032" pan="0" len="36" vol="50" />
          <note key="84" pos="1080" pan="0" len="36" vol="100" />
          <note key="84" pos="1152" pan="0" len="72" vol="50" />
          <note key="84" pos="1272" pan="0" len="24" vol="100" />
          <note key="84" pos="1344" pan="0" len="36" vol="50" />
          <note key="82" pos="1416" pan="0" len="24" vol="62" />
          <note key="82" pos="1464" pan="0" len="48" vol="50" />
          <note key="84" pos="1536" pan="0" len="24" vol="50" />
          <note key="84" pos="1608" pan="0" len="24" vol="50" />
          <note key="84" pos="1656" pan="0" len="36" vol="50" />
          <note key="84" pos="1728" pan="0" len="36" vol="50" />
          <note key="79" pos="1800" pan="0" len="36" vol="50" />
          <note key="84" pos="1848" pan="0" len="36" vol="100" />
          <note key="84" pos="1920" pan="0" len="72" vol="50" />
          <note key="84" pos="2040" pan="0" len="24" vol="100" />
          <note key="84" pos="2112" pan="0" len="36" vol="50" />
          <note key="82" pos="2184" pan="0" len="24" vol="62" />
          <note key="82" pos="2232" pan="0" len="48" vol="50" />
          <note key="84" pos="2304" pan="0" len="24" vol="50" />
          <note key="84" pos="2376" pan="0" len="24" vol="50" />
          <note key="84" pos="2424" pan="0" len="36" vol="50" />
          <note key="84" pos="2496" pan="0" len="36" vol="50" />
          <note key="79" pos="2568" pan="0" len="36" vol="50" />
          <note key="84" pos="2616" pan="0" len="36" vol="100" />
          <note key="84" pos="2688" pan="0" len="72" vol="50" />
          <note key="84" pos="2808" pan="0" len="24" vol="100" />
          <note key="84" pos="2880" pan="0" len="36" vol="50" />
          <note key="82" pos="2952" pan="0" len="24" vol="62" />
          <note key="82" pos="3000" pan="0" len="48" vol="50" />
        </pattern>
        <pattern pos="10752" muted="0" steps="16" name="" type="1">
          <note key="84" pos="0" pan="0" len="48" vol="50" />
          <note key="84" pos="120" pan="0" len="48" vol="50" />
          <note key="84" pos="192" pan="0" len="120" vol="50" />
          <note key="84" pos="312" pan="0" len="48" vol="50" />
          <note key="84" pos="384" pan="0" len="48" vol="50" />
          <note key="84" pos="504" pan="0" len="48" vol="50" />
          <note key="86" pos="576" pan="0" len="48" vol="50" />
          <note key="86" pos="696" pan="0" len="36" vol="50" />
          <note key="84" pos="768" pan="0" len="48" vol="50" />
          <note key="84" pos="888" pan="0" len="48" vol="50" />
          <note key="84" pos="960" pan="0" len="120" vol="50" />
          <note key="84" pos="1080" pan="0" len="48" vol="50" />
          <note key="84" pos="1152" pan="0" len="48" vol="50" />
          <note key="84" pos="1272" pan="0" len="48" vol="50" />
          <note key="86" pos="1344" pan="0" len="48" vol="50" />
          <note key="86" pos="1464" pan="0" len="36" vol="50" />
        </pattern>
        <pattern pos="12288" muted="0" steps="16" name="" type="1">
          <note key="84" pos="0" pan="0" len="24" vol="50" />
          <note key="84" pos="72" pan="0" len="24" vol="50" />
          <note key="84" pos="120" pan="0" len="36" vol="50" />
          <note key="82" pos="192" pan="0" len="36" vol="50" />
          <note key="82" pos="264" pan="0" len="36" vol="50" />
          <note key="82" pos="312" pan="0" len="36" vol="100" />
          <note key="84" pos="384" pan="0" len="72" vol="50" />
          <note key="84" pos="504" pan="0" len="24" vol="100" />
          <note key="82" pos="576" pan="0" len="36" vol="50" />
          <note key="82" pos="648" pan="0" len="24" vol="62" />
          <note key="82" pos="696" pan="0" len="48" vol="50" />
          <note key="80" pos="768" pan="0" len="24" vol="50" />
          <note key="84" pos="840" pan="0" len="24" vol="50" />
          <note key="80" pos="888" pan="0" len="36" vol="50" />
          <note key="82" pos="960" pan="0" len="36" vol="50" />
          <note key="86" pos="1032" pan="0" len="36" vol="50" />
          <note key="82" pos="1080" pan="0" len="36" vol="100" />
          <note key="84" pos="1152" pan="0" len="72" vol="50" />
          <note key="84" pos="1272" pan="0" len="24" vol="100" />
          <note key="82" pos="1344" pan="0" len="36" vol="50" />
          <note key="86" pos="1416" pan="0" len="24" vol="62" />
          <note key="82" pos="1464" pan="0" len="48" vol="50" />
          <note key="84" pos="1536" pan="0" len="24" vol="50" />
          <note key="84" pos="1608" pan="0" len="24" vol="50" />
          <note key="84" pos="1656" pan="0" len="36" vol="50" />
          <note key="82" pos="1728" pan="0" len="36" vol="50" />
          <note key="82" pos="1800" pan="0" len="36" vol="50" />
          <note key="82" pos="1848" pan="0" len="36" vol="100" />
          <note key="84" pos="1920" pan="0" len="72" vol="50" />
          <note key="84" pos="2040" pan="0" len="24" vol="100" />
          <note key="82" pos="2112" pan="0" len="36" vol="50" />
          <note key="82" pos="2184" pan="0" len="24" vol="62" />
          <note key="82" pos="2232" pan="0" len="48" vol="50" />
          <note key="80" pos="2304" pan="0" len="24" vol="50" />
          <note key="84" pos="2376" pan="0" len="24" vol="50" />
          <note key="80" pos="2424" pan="0" len="36" vol="50" />
          <note key="77" pos="2496" pan="0" len="36" vol="50" />
          <note key="77" pos="2568" pan="0" len="36" vol="50" />
          <note key="79" pos="2616" pan="0" len="36" vol="100" />
          <note key="79" pos="2688" pan="0" len="72" vol="50" />
          <note key="79" pos="2808" pan="0" len="24" vol="100" />
          <note key="79" pos="2880" pan="0" len="108" vol="50" />
        </pattern>
        <pattern pos="49152" muted="0" steps="16" name="" type="1">
          <note key="79" pos="0" pan="0" len="24" vol="34" />
          <note key="83" pos="24" pan="0" len="12" vol="42" />
          <note key="83" pos="72" pan="0" len="12" vol="59" />
          <note key="79" pos="96" pan="0" len="24" vol="67" />
          <note key="83" pos="120" pan="0" len="12" vol="75" />
          <note key="83" pos="168" pan="0" len="12" vol="92" />
          <note key="77" pos="192" pan="0" len="24" vol="100" />
          <note key="82" pos="216" pan="0" len="12" vol="91" />
          <note key="82" pos="264" pan="0" len="12" vol="72" />
          <note key="77" pos="288" pan="0" len="24" vol="62" />
          <note key="82" pos="312" pan="0" len="12" vol="53" />
          <note key="82" pos="360" pan="0" len="12" vol="34" />
          <note key="84" pos="384" pan="0" len="24" vol="34" />
          <note key="87" pos="408" pan="0" len="12" vol="42" />
          <note key="87" pos="456" pan="0" len="12" vol="59" />
          <note key="84" pos="480" pan="0" len="24" vol="67" />
          <note key="87" pos="504" pan="0" len="12" vol="75" />
          <note key="87" pos="552" pan="0" len="12" vol="92" />
          <note key="84" pos="576" pan="0" len="24" vol="100" />
          <note key="89" pos="600" pan="0" len="12" vol="91" />
          <note key="89" pos="648" pan="0" len="12" vol="72" />
          <note key="84" pos="672" pan="0" len="24" vol="62" />
          <note key="89" pos="696" pan="0" len="12" vol="53" />
          <note key="89" pos="744" pan="0" len="12" vol="34" />
          <note key="80" pos="768" pan="0" len="24" vol="34" />
          <note key="84" pos="792" pan="0" len="12" vol="42" />
          <note key="84" pos="840" pan="0" len="12" vol="59" />
          <note key="80" pos="864" pan="0" len="24" vol="67" />
          <note key="84" pos="888" pan="0" len="12" vol="75" />
          <note key="84" pos="936" pan="0" len="12" vol="92" />
          <note key="78" pos="960" pan="0" len="24" vol="100" />
          <note key="83" pos="984" pan="0" len="12" vol="91" />
          <note key="83" pos="1032" pan="0" len="12" vol="72" />
          <note key="78" pos="1056" pan="0" len="24" vol="62" />
          <note key="83" pos="1080" pan="0" len="12" vol="53" />
          <note key="83" pos="1128" pan="0" len="12" vol="34" />
          <note key="84" pos="1152" pan="0" len="24" vol="34" />
          <note key="87" pos="1176" pan="0" len="12" vol="42" />
          <note key="87" pos="1224" pan="0" len="12" vol="59" />
          <note key="84" pos="1248" pan="0" len="24" vol="67" />
          <note key="87" pos="1272" pan="0" len="12" vol="75" />
          <note key="87" pos="1320" pan="0" len="12" vol="92" />
          <note key="84" pos="1344" pan="0" len="24" vol="100" />
          <note key="89" pos="1368" pan="0" len="12" vol="91" />
          <note key="89" pos="1416" pan="0" len="12" vol="72" />
          <note key="84" pos="1440" pan="0" len="24" vol="62" />
          <note key="89" pos="1464" pan="0" len="12" vol="53" />
          <note key="89" pos="1512" pan="0" len="12" vol="34" />
        </pattern>
        <pattern pos="52224" muted="0" steps="16" name="" type="1">
          <note key="81" pos="0" pan="0" len="24" vol="34" />
          <note key="85" pos="24" pan="0" len="12" vol="42" />
          <note key="85" pos="72" pan="0" len="12" vol="59" />
          <note key="81" pos="96" pan="0" len="24" vol="67" />
          <note key="85" pos="120" pan="0" len="12" vol="75" />
          <note key="85" pos="168" pan="0" len="12" vol="92" />
          <note key="88" pos="192" pan="0" len="24" vol="100" />
          <note key="91" pos="216" pan="0" len="12" vol="91" />
          <note key="91" pos="264" pan="0" len="12" vol="72" />
          <note key="88" pos="288" pan="0" len="24" vol="62" />
          <note key="91" pos="312" pan="0" len="12" vol="53" />
          <note key="91" pos="360" pan="0" len="12" vol="34" />
          <note key="86" pos="384" pan="0" len="24" vol="34" />
          <note key="89" pos="408" pan="0" len="12" vol="42" />
          <note key="89" pos="456" pan="0" len="12" vol="59" />
          <note key="86" pos="480" pan="0" len="24" vol="67" />
          <note key="89" pos="504" pan="0" len="12" vol="75" />
          <note key="89" pos="552" pan="0" len="12" vol="92" />
          <note key="86" pos="576" pan="0" len="24" vol="100" />
          <note key="91" pos="600" pan="0" len="12" vol="91" />
          <note key="91" pos="648" pan="0" len="12" vol="72" />
          <note key="86" pos="672" pan="0" len="24" vol="62" />
          <note key="91" pos="696" pan="0" len="12" vol="53" />
          <note key="91" pos="744" pan="0" len="12" vol="34" />
          <note key="89" pos="768" pan="0" len="24" vol="34" />
          <note key="94" pos="792" pan="0" len="12" vol="42" />
          <note key="94" pos="840" pan="0" len="12" vol="59" />
          <note key="89" pos="864" pan="0" len="24" vol="67" />
          <note key="94" pos="888" pan="0" len="12" vol="75" />
          <note key="94" pos="936" pan="0" len="12" vol="92" />
          <note key="89" pos="960" pan="0" len="24" vol="100" />
          <note key="92" pos="984" pan="0" len="12" vol="91" />
          <note key="92" pos="1032" pan="0" len="12" vol="72" />
          <note key="89" pos="1056" pan="0" len="24" vol="62" />
          <note key="92" pos="1080" pan="0" len="12" vol="53" />
          <note key="91" pos="1128" pan="0" len="12" vol="34" />
          <note key="88" pos="1152" pan="0" len="24" vol="34" />
          <note key="91" pos="1176" pan="0" len="12" vol="42" />
          <note key="91" pos="1224" pan="0" len="12" vol="59" />
          <note key="88" pos="1248" pan="0" len="24" vol="67" />
          <note key="91" pos="1272" pan="0" len="12" vol="75" />
          <note key="91" pos="1320" pan="0" len="12" vol="92" />
          <note key="88" pos="1344" pan="0" len="24" vol="100" />
          <note key="93" pos="1368" pan="0" len="12" vol="91" />
          <note key="93" pos="1416" pan="0" len="12" vol="72" />
          <note key="88" pos="1440" pan="0" len="24" vol="62" />
          <note key="93" pos="1464" pan="0" len="12" vol="53" />
          <note key="93" pos="1512" pan="0" len="12" vol="34" />
        </pattern>
        <pattern pos="57600" muted="0" steps="16" name="" type="1">
          <note key="81" pos="36" pan="0" len="12" vol="100" />
          <note key="81" pos="108" pan="0" len="12" vol="100" />
          <note key="81" pos="168" pan="0" len="12" vol="100" />
          <note key="79" pos="252" pan="0" len="12" vol="100" />
          <note key="81" pos="324" pan="0" len="12" vol="100" />
          <note key="81" pos="396" pan="0" len="12" vol="100" />
          <note key="81" pos="456" pan="0" len="12" vol="100" />
          <note key="74" pos="540" pan="0" len="12" vol="100" />
          <note key="81" pos="612" pan="0" len="12" vol="100" />
          <note key="81" pos="684" pan="0" len="12" vol="100" />
          <note key="81" pos="744" pan="0" len="12" vol="100" />
          <note key="79" pos="828" pan="0" len="12" vol="100" />
          <note key="81" pos="900" pan="0" len="12" vol="100" />
          <note key="81" pos="972" pan="0" len="12" vol="100" />
          <note key="81" pos="1032" pan="0" len="12" vol="100" />
          <note key="74" pos="1116" pan="0" len="12" vol="100" />
        </pattern>
        <pattern pos="59904" muted="0" steps="16" name="" type="1">
          <note key="81" pos="36" pan="0" len="12" vol="100" />
          <note key="81" pos="108" pan="0" len="12" vol="100" />
          <note key="79" pos="168" pan="0" len="12" vol="100" />
          <note key="79" pos="216" pan="0" len="36" vol="100" />
          <note key="79" pos="252" pan="0" len="12" vol="100" />
          <note key="81" pos="324" pan="0" len="12" vol="100" />
          <note key="81" pos="396" pan="0" len="12" vol="100" />
          <note key="84" pos="456" pan="0" len="12" vol="100" />
          <note key="79" pos="504" pan="0" len="36" vol="100" />
          <note key="79" pos="540" pan="0" len="12" vol="100" />
          <note key="81" pos="612" pan="0" len="12" vol="100" />
          <note key="81" pos="684" pan="0" len="12" vol="100" />
          <note key="84" pos="756" pan="0" len="12" vol="100" />
          <note key="79" pos="792" pan="0" len="36" vol="100" />
          <note key="84" pos="828" pan="0" len="12" vol="100" />
          <note key="79" pos="900" pan="0" len="12" vol="100" />
          <note key="79" pos="972" pan="0" len="12" vol="100" />
          <note key="79" pos="1032" pan="0" len="12" vol="100" />
          <note key="81" pos="1080" pan="0" len="24" vol="100" />
          <note key="79" pos="1104" pan="0" len="24" vol="100" />
          <note key="76" pos="1128" pan="0" len="24" vol="100" />
        </pattern>
        <pattern pos="61056" muted="0" steps="16" name="" type="1">
          <note key="81" pos="36" pan="0" len="12" vol="100" />
          <note key="81" pos="108" pan="0" len="12" vol="100" />
          <note key="81" pos="168" pan="0" len="12" vol="100" />
          <note key="79" pos="252" pan="0" len="12" vol="100" />
          <note key="81" pos="324" pan="0" len="12" vol="100" />
          <note key="81" pos="396" pan="0" len="12" vol="100" />
          <note key="81" pos="456" pan="0" len="12" vol="100" />
          <note key="74" pos="540" pan="0" len="12" vol="100" />
          <note key="81" pos="612" pan="0" len="12" vol="100" />
          <note key="81" pos="684" pan="0" len="12" vol="100" />
          <note key="81" pos="744" pan="0" len="12" vol="100" />
          <note key="79" pos="828" pan="0" len="12" vol="100" />
          <note key="81" pos="900" pan="0" len="12" vol="100" />
          <note key="81" pos="972" pan="0" len="12" vol="100" />
          <note key="81" pos="1032" pan="0" len="12" vol="100" />
          <note key="74" pos="1116" pan="0" len="12" vol="100" />
        </pattern>
        <pattern pos="63360" muted="0" steps="16" name="" type="1">
          <note key="81" pos="36" pan="0" len="12" vol="100" />
          <note key="81" pos="108" pan="0" len="12" vol="100" />
          <note key="81" pos="168" pan="0" len="12" vol="100" />
          <note key="79" pos="216" pan="0" len="36" vol="100" />
          <note key="79" pos="252" pan="0" len="12" vol="100" />
          <note key="81" pos="324" pan="0" len="12" vol="100" />
          <note key="81" pos="396" pan="0" len="12" vol="100" />
          <note key="84" pos="456" pan="0" len="12" vol="100" />
          <note key="84" pos="504" pan="0" len="36" vol="100" />
          <note key="82" pos="540" pan="0" len="12" vol="100" />
          <note key="81" pos="612" pan="0" len="12" vol="100" />
          <note key="81" pos="684" pan="0" len="12" vol="100" />
          <note key="84" pos="756" pan="0" len="12" vol="100" />
          <note key="79" pos="792" pan="0" len="36" vol="100" />
          <note key="84" pos="828" pan="0" len="12" vol="100" />
          <note key="81" pos="900" pan="0" len="12" vol="100" />
          <note key="79" pos="972" pan="0" len="12" vol="100" />
          <note key="79" pos="1032" pan="0" len="12" vol="100" />
          <note key="81" pos="1080" pan="0" len="24" vol="100" />
          <note key="79" pos="1104" pan="0" len="24" vol="100" />
          <note key="76" pos="1128" pan="0" len="24" vol="100" />
        </pattern>
        <pattern pos="64512" muted="0" steps="16" name="" type="1">
          <note key="81" pos="36" pan="0" len="12" vol="100" />
          <note key="81" pos="108" pan="0" len="12" vol="100" />
          <note key="81" pos="168" pan="0" len="12" vol="100" />
          <note key="79" pos="252" pan="0" len="12" vol="100" />
          <note key="81" pos="324" pan="0" len="12" vol="100" />
          <note key="81" pos="396" pan="0" len="12" vol="100" />
          <note key="81" pos="456" pan="0" len="12" vol="100" />
          <note key="74" pos="540" pan="0" len="12" vol="100" />
          <note key="81" pos="612" pan="0" len="12" vol="100" />
          <note key="81" pos="684" pan="0" len="12" vol="100" />
          <note key="81" pos="744" pan="0" len="12" vol="100" />
          <note key="79" pos="828" pan="0" len="12" vol="100" />
          <note key="81" pos="900" pan="0" len="12" vol="100" />
          <note key="81" pos="972" pan="0" len="12" vol="100" />
          <note key="81" pos="1032" pan="0" len="12" vol="100" />
          <note key="74" pos="1116" pan="0" len="12" vol="100" />
        </pattern>
        <pattern pos="66816" muted="0" steps="16" name="" type="1">
          <note key="76" pos="504" pan="0" len="36" vol="100" />
          <note key="77" pos="540" pan="0" len="36" vol="100" />
          <note key="62" pos="576" pan="0" len="36" vol="100" />
        </pattern>
        <pattern pos="69120" muted="0" steps="16" name="" type="1">
          <note key="84" pos="432" pan="0" len="72" vol="34" />
          <note key="81" pos="504" pan="0" len="24" vol="100" />
          <note key="74" pos="1044" pan="0" len="36" vol="100" />
          <note key="77" pos="1080" pan="0" len="24" vol="100" />
        </pattern>
        <pattern pos="71424" muted="0" steps="16" name="" type="1">
          <note key="84" pos="432" pan="0" len="72" vol="34" />
          <note key="81" pos="504" pan="0" len="24" vol="100" />
          <note key="74" pos="1044" pan="0" len="36" vol="100" />
          <note key="77" pos="1080" pan="0" len="24" vol="100" />
        </pattern>
        <pattern pos="73728" muted="0" steps="16" name="" type="1">
          <note key="80" pos="288" pan="0" len="180" vol="100" />
          <note key="80" pos="864" pan="0" len="192" vol="100" />
          <note key="80" pos="1440" pan="0" len="180" vol="100" />
        </pattern>
        <pattern pos="76032" muted="0" steps="16" name="" type="1">
          <note key="77" pos="288" pan="0" len="180" vol="100" />
          <note key="77" pos="864" pan="0" len="192" vol="100" />
          <note key="77" pos="1440" pan="0" len="180" vol="100" />
        </pattern>
        <pattern pos="80640" muted="0" steps="16" name="" type="1">
          <note key="84" pos="432" pan="0" len="72" vol="34" />
          <note key="81" pos="504" pan="0" len="24" vol="100" />
          <note key="74" pos="1044" pan="0" len="36" vol="100" />
          <note key="77" pos="1080" pan="0" len="24" vol="100" />
        </pattern>
        <pattern pos="82944" muted="0" steps="16" name="" type="1">
          <note key="84" pos="432" pan="0" len="72" vol="34" />
          <note key="81" pos="504" pan="0" len="24" vol="100" />
          <note key="74" pos="1044" pan="0" len="36" vol="100" />
          <note key="77" pos="1080" pan="0" len="24" vol="100" />
        </pattern>
        <pattern pos="85248" muted="0" steps="16" name="" type="1">
          <note key="80" pos="288" pan="0" len="180" vol="100" />
          <note key="80" pos="864" pan="0" len="192" vol="100" />
          <note key="80" pos="1440" pan="0" len="180" vol="100" />
        </pattern>
        <pattern pos="87552" muted="0" steps="16" name="" type="1">
          <note key="77" pos="288" pan="0" len="180" vol="100" />
          <note key="77" pos="864" pan="0" len="192" vol="100" />
          <note key="77" pos="1440" pan="0" len="180" vol="100" />
        </pattern>
        <pattern pos="163596" muted="0" steps="16" name="" type="1">
          <note key="72" pos="0" pan="0" len="144" vol="100" />
          <note key="74" pos="144" pan="0" len="48" vol="100" />
          <note key="67" pos="192" pan="0" len="96" vol="100" />
          <note key="60" pos="384" pan="0" len="144" vol="100" />
          <note key="62" pos="528" pan="0" len="48" vol="100" />
          <note key="55" pos="576" pan="0" len="96" vol="100" />
          <note key="41" pos="768" pan="0" len="144" vol="100" />
          <note key="43" pos="912" pan="0" len="48" vol="100" />
          <note key="48" pos="960" pan="0" len="144" vol="100" />
          <note key="43" pos="1104" pan="0" len="48" vol="100" />
          <note key="46" pos="1152" pan="0" len="192" vol="100" />
          <note key="41" pos="1344" pan="0" len="144" vol="100" />
        </pattern>
        <pattern pos="182028" muted="0" steps="16" name="" type="1">
          <note key="77" pos="48" pan="0" len="24" vol="100" />
          <note key="75" pos="192" pan="0" len="24" vol="100" />
          <note key="72" pos="336" pan="0" len="24" vol="100" />
          <note key="72" pos="480" pan="0" len="24" vol="100" />
          <note key="77" pos="624" pan="0" len="24" vol="100" />
          <note key="75" pos="768" pan="0" len="24" vol="100" />
          <note key="72" pos="912" pan="0" len="24" vol="100" />
          <note key="72" pos="1056" pan="0" len="24" vol="100" />
        </pattern>
        <pattern pos="203532" muted="0" steps="16" name="" type="1">
          <note key="72" pos="1152" pan="0" len="12" vol="100" />
          <note key="79" pos="1176" pan="0" len="12" vol="100" />
          <note key="75" pos="1200" pan="0" len="12" vol="100" />
          <note key="79" pos="1224" pan="0" len="12" vol="100" />
          <note key="74" pos="1248" pan="0" len="12" vol="100" />
          <note key="79" pos="1272" pan="0" len="12" vol="100" />
          <note key="75" pos="1296" pan="0" len="12" vol="100" />
          <note key="79" pos="1320" pan="0" len="12" vol="100" />
          <note key="72" pos="1344" pan="0" len="12" vol="100" />
          <note key="79" pos="1368" pan="0" len="12" vol="100" />
          <note key="75" pos="1392" pan="0" len="12" vol="100" />
          <note key="79" pos="1416" pan="0" len="12" vol="100" />
          <note key="74" pos="1440" pan="0" len="12" vol="100" />
          <note key="79" pos="1464" pan="0" len="12" vol="100" />
          <note key="75" pos="1488" pan="0" len="12" vol="100" />
          <note key="79" pos="1512" pan="0" len="12" vol="100" />
        </pattern>
        <pattern pos="205068" muted="0" steps="16" name="" type="1">
          <note key="72" pos="0" pan="0" len="12" vol="100" />
          <note key="79" pos="24" pan="0" len="12" vol="100" />
          <note key="75" pos="48" pan="0" len="12" vol="100" />
          <note key="79" pos="72" pan="0" len="12" vol="100" />
          <note key="74" pos="96" pan="0" len="12" vol="100" />
          <note key="79" pos="120" pan="0" len="12" vol="100" />
          <note key="75" pos="144" pan="0" len="12" vol="100" />
          <note key="79" pos="168" pan="0" len="12" vol="100" />
          <note key="72" pos="192" pan="0" len="12" vol="100" />
          <note key="79" pos="216" pan="0" len="12" vol="100" />
          <note key="75" pos="240" pan="0" len="12" vol="100" />
          <note key="79" pos="264" pan="0" len="12" vol="100" />
          <note key="74" pos="288" pan="0" len="12" vol="100" />
          <note key="79" pos="312" pan="0" len="12" vol="100" />
          <note key="75" pos="336" pan="0" len="12" vol="100" />
          <note key="79" pos="360" pan="0" len="12" vol="100" />
          <note key="67" pos="384" pan="0" len="12" vol="100" />
          <note key="74" pos="408" pan="0" len="12" vol="100" />
          <note key="70" pos="432" pan="0" len="12" vol="100" />
          <note key="74" pos="456" pan="0" len="12" vol="100" />
          <note key="69" pos="480" pan="0" len="12" vol="100" />
          <note key="74" pos="504" pan="0" len="12" vol="100" />
          <note key="70" pos="528" pan="0" len="12" vol="100" />
          <note key="74" pos="552" pan="0" len="12" vol="100" />
          <note key="67" pos="576" pan="0" len="12" vol="100" />
          <note key="74" pos="600" pan="0" len="12" vol="100" />
          <note key="70" pos="624" pan="0" len="12" vol="100" />
          <note key="74" pos="648" pan="0" len="12" vol="100" />
          <note key="69" pos="672" pan="0" len="12" vol="100" />
          <note key="74" pos="696" pan="0" len="12" vol="100" />
          <note key="70" pos="720" pan="0" len="12" vol="100" />
          <note key="74" pos="744" pan="0" len="12" vol="100" />
          <note key="65" pos="768" pan="0" len="12" vol="100" />
          <note key="72" pos="792" pan="0" len="12" vol="100" />
          <note key="68" pos="816" pan="0" len="12" vol="100" />
          <note key="72" pos="840" pan="0" len="12" vol="100" />
          <note key="67" pos="864" pan="0" len="12" vol="100" />
          <note key="72" pos="888" pan="0" len="12" vol="100" />
          <note key="65" pos="912" pan="0" len="12" vol="100" />
          <note key="72" pos="936" pan="0" len="12" vol="100" />
          <note key="65" pos="960" pan="0" len="12" vol="100" />
          <note key="72" pos="984" pan="0" len="12" vol="100" />
          <note key="68" pos="1008" pan="0" len="12" vol="100" />
          <note key="72" pos="1032" pan="0" len="12" vol="100" />
          <note key="67" pos="1056" pan="0" len="12" vol="100" />
          <note key="72" pos="1080" pan="0" len="12" vol="100" />
          <note key="68" pos="1104" pan="0" len="12" vol="100" />
          <note key="72" pos="1128" pan="0" len="12" vol="100" />
          <note key="72" pos="1152" pan="0" len="12" vol="100" />
          <note key="79" pos="1176" pan="0" len="12" vol="100" />
          <note key="75" pos="1200" pan="0" len="12" vol="100" />
          <note key="79" pos="1224" pan="0" len="12" vol="100" />
          <note key="74" pos="1248" pan="0" len="12" vol="100" />
          <note key="79" pos="1272" pan="0" len="12" vol="100" />
          <note key="75" pos="1296" pan="0" len="12" vol="100" />
          <note key="79" pos="1320" pan="0" len="12" vol="100" />
          <note key="72" pos="1344" pan="0" len="12" vol="100" />
          <note key="79" pos="1368" pan="0" len="12" vol="100" />
          <note key="75" pos="1392" pan="0" len="12" vol="100" />
          <note key="79" pos="1416" pan="0" len="12" vol="100" />
          <note key="74" pos="1440" pan="0" len="12" vol="100" />
          <note key="79" pos="1464" pan="0" len="12" vol="100" />
          <note key="75" pos="1488" pan="0" len="12" vol="100" />
          <note key="79" pos="1512" pan="0" len="12" vol="100" />
        </pattern>
        <pattern pos="206604" muted="0" steps="16" name="" type="1">
          <note key="72" pos="0" pan="0" len="12" vol="100" />
          <note key="79" pos="24" pan="0" len="12" vol="100" />
          <note key="75" pos="48" pan="0" len="12" vol="100" />
          <note key="79" pos="72" pan="0" len="12" vol="100" />
          <note key="74" pos="96" pan="0" len="12" vol="100" />
          <note key="79" pos="120" pan="0" len="12" vol="100" />
          <note key="75" pos="144" pan="0" len="12" vol="100" />
          <note key="79" pos="168" pan="0" len="12" vol="100" />
          <note key="72" pos="192" pan="0" len="12" vol="100" />
          <note key="79" pos="216" pan="0" len="12" vol="100" />
          <note key="75" pos="240" pan="0" len="12" vol="100" />
          <note key="79" pos="264" pan="0" len="12" vol="100" />
          <note key="74" pos="288" pan="0" len="12" vol="100" />
          <note key="79" pos="312" pan="0" len="12" vol="100" />
          <note key="75" pos="336" pan="0" len="12" vol="100" />
          <note key="79" pos="360" pan="0" len="12" vol="100" />
          <note key="67" pos="384" pan="0" len="12" vol="100" />
          <note key="74" pos="408" pan="0" len="12" vol="100" />
          <note key="70" pos="432" pan="0" len="12" vol="100" />
          <note key="74" pos="456" pan="0" len="12" vol="100" />
          <note key="69" pos="480" pan="0" len="12" vol="100" />
          <note key="74" pos="504" pan="0" len="12" vol="100" />
          <note key="70" pos="528" pan="0" len="12" vol="100" />
          <note key="74" pos="552" pan="0" len="12" vol="100" />
          <note key="67" pos="576" pan="0" len="12" vol="100" />
          <note key="74" pos="600" pan="0" len="12" vol="100" />
          <note key="70" pos="624" pan="0" len="12" vol="100" />
          <note key="74" pos="648" pan="0" len="12" vol="100" />
          <note key="69" pos="672" pan="0" len="12" vol="100" />
          <note key="74" pos="696" pan="0" len="12" vol="100" />
          <note key="70" pos="720" pan="0" len="12" vol="100" />
          <note key="74" pos="744" pan="0" len="12" vol="100" />
          <note key="65" pos="768" pan="0" len="12" vol="100" />
          <note key="72" pos="792" pan="0" len="12" vol="100" />
          <note key="68" pos="816" pan="0" len="12" vol="100" />
          <note key="72" pos="840" pan="0" len="12" vol="100" />
          <note key="67" pos="864" pan="0" len="12" vol="100" />
          <note key="72" pos="888" pan="0" len="12" vol="100" />
          <note key="65" pos="912" pan="0" len="12" vol="100" />
          <note key="72" pos="936" pan="0" len="12" vol="100" />
          <note key="65" pos="960" pan="0" len="12" vol="100" />
          <note key="72" pos="984" pan="0" len="12" vol="100" />
          <note key="68" pos="1008" pan="0" len="12" vol="100" />
          <note key="72" pos="1032" pan="0" len="12" vol="100" />
          <note key="67" pos="1056" pan="0" len="12" vol="100" />
          <note key="72" pos="1080" pan="0" len="12" vol="100" />
          <note key="68" pos="1104" pan="0" len="12" vol="100" />
          <note key="72" pos="1128" pan="0" len="12" vol="100" />
          <note key="72" pos="1152" pan="0" len="12" vol="100" />
          <note key="79" pos="1176" pan="0" len="12" vol="100" />
          <note key="75" pos="1200" pan="0" len="12" vol="100" />
          <note key="79" pos="1224" pan="0" len="12" vol="100" />
          <note key="74" pos="1248" pan="0" len="12" vol="100" />
          <note key="79" pos="1272" pan="0" len="12" vol="100" />
          <note key="75" pos="1296" pan="0" len="12" vol="100" />
          <note key="79" pos="1320" pan="0" len="12" vol="100" />
          <note key="72" pos="1344" pan="0" len="12" vol="100" />
          <note key="79" pos="1368" pan="0" len="12" vol="100" />
          <note key="75" pos="1392" pan="0" len="12" vol="100" />
          <note key="79" pos="1416" pan="0" len="12" vol="100" />
          <note key="74" pos="1440" pan="0" len="12" vol="100" />
          <note key="79" pos="1464" pan="0" len="12" vol="100" />
          <note key="75" pos="1488" pan="0" len="12" vol="100" />
          <note key="79" pos="1512" pan="0" len="12" vol="100" />
        </pattern>
        <pattern pos="208140" muted="0" steps="16" name="" type="1">
          <note key="75" pos="0" pan="0" len="12" vol="100" />
          <note key="82" pos="24" pan="0" len="12" vol="100" />
          <note key="79" pos="48" pan="0" len="12" vol="100" />
          <note key="82" pos="72" pan="0" len="12" vol="100" />
          <note key="77" pos="96" pan="0" len="12" vol="100" />
          <note key="82" pos="120" pan="0" len="12" vol="100" />
          <note key="79" pos="144" pan="0" len="12" vol="100" />
          <note key="82" pos="168" pan="0" len="12" vol="100" />
          <note key="75" pos="192" pan="0" len="12" vol="100" />
          <note key="82" pos="216" pan="0" len="12" vol="100" />
          <note key="79" pos="240" pan="0" len="12" vol="100" />
          <note key="82" pos="264" pan="0" len="12" vol="100" />
          <note key="77" pos="288" pan="0" len="12" vol="100" />
          <note key="82" pos="312" pan="0" len="12" vol="100" />
          <note key="79" pos="336" pan="0" len="12" vol="100" />
          <note key="82" pos="360" pan="0" len="12" vol="100" />
          <note key="67" pos="384" pan="0" len="12" vol="100" />
          <note key="74" pos="408" pan="0" len="12" vol="100" />
          <note key="70" pos="432" pan="0" len="12" vol="100" />
          <note key="74" pos="456" pan="0" len="12" vol="100" />
          <note key="69" pos="480" pan="0" len="12" vol="100" />
          <note key="74" pos="504" pan="0" len="12" vol="100" />
          <note key="70" pos="528" pan="0" len="12" vol="100" />
          <note key="74" pos="552" pan="0" len="12" vol="100" />
          <note key="67" pos="576" pan="0" len="12" vol="100" />
          <note key="74" pos="600" pan="0" len="12" vol="100" />
          <note key="70" pos="624" pan="0" len="12" vol="100" />
          <note key="74" pos="648" pan="0" len="12" vol="100" />
          <note key="69" pos="672" pan="0" len="12" vol="100" />
          <note key="74" pos="696" pan="0" len="12" vol="100" />
          <note key="70" pos="720" pan="0" len="12" vol="100" />
          <note key="74" pos="744" pan="0" len="12" vol="100" />
          <note key="72" pos="768" pan="0" len="12" vol="100" />
          <note key="79" pos="792" pan="0" len="12" vol="100" />
          <note key="75" pos="816" pan="0" len="12" vol="100" />
          <note key="79" pos="840" pan="0" len="12" vol="100" />
          <note key="74" pos="864" pan="0" len="12" vol="100" />
          <note key="79" pos="888" pan="0" len="12" vol="100" />
          <note key="75" pos="912" pan="0" len="12" vol="100" />
          <note key="79" pos="936" pan="0" len="12" vol="100" />
          <note key="72" pos="960" pan="0" len="12" vol="100" />
          <note key="79" pos="984" pan="0" len="12" vol="100" />
          <note key="75" pos="1008" pan="0" len="12" vol="100" />
          <note key="79" pos="1032" pan="0" len="12" vol="100" />
          <note key="74" pos="1056" pan="0" len="12" vol="100" />
          <note key="79" pos="1080" pan="0" len="12" vol="100" />
          <note key="75" pos="1104" pan="0" len="12" vol="100" />
          <note key="79" pos="1128" pan="0" len="12" vol="100" />
          <note key="68" pos="1152" pan="0" len="12" vol="100" />
          <note key="75" pos="1176" pan="0" len="12" vol="100" />
          <note key="72" pos="1200" pan="0" len="12" vol="100" />
          <note key="75" pos="1224" pan="0" len="12" vol="100" />
          <note key="70" pos="1248" pan="0" len="12" vol="100" />
          <note key="75" pos="1272" pan="0" len="12" vol="100" />
          <note key="72" pos="1296" pan="0" len="12" vol="100" />
          <note key="75" pos="1320" pan="0" len="12" vol="100" />
          <note key="68" pos="1344" pan="0" len="12" vol="100" />
          <note key="75" pos="1368" pan="0" len="12" vol="100" />
          <note key="72" pos="1392" pan="0" len="12" vol="100" />
          <note key="75" pos="1416" pan="0" len="12" vol="100" />
          <note key="70" pos="1440" pan="0" len="12" vol="100" />
          <note key="75" pos="1464" pan="0" len="12" vol="100" />
          <note key="72" pos="1488" pan="0" len="12" vol="100" />
          <note key="75" pos="1512" pan="0" len="12" vol="100" />
        </pattern>
        <pattern pos="209676" muted="0" steps="16" name="" type="1">
          <note key="75" pos="0" pan="0" len="12" vol="100" />
          <note key="82" pos="24" pan="0" len="12" vol="100" />
          <note key="79" pos="48" pan="0" len="12" vol="100" />
          <note key="82" pos="72" pan="0" len="12" vol="100" />
          <note key="77" pos="96" pan="0" len="12" vol="100" />
          <note key="82" pos="120" pan="0" len="12" vol="100" />
          <note key="79" pos="144" pan="0" len="12" vol="100" />
          <note key="82" pos="168" pan="0" len="12" vol="100" />
          <note key="75" pos="192" pan="0" len="12" vol="100" />
          <note key="82" pos="216" pan="0" len="12" vol="100" />
          <note key="79" pos="240" pan="0" len="12" vol="100" />
          <note key="82" pos="264" pan="0" len="12" vol="100" />
          <note key="77" pos="288" pan="0" len="12" vol="100" />
          <note key="82" pos="312" pan="0" len="12" vol="100" />
          <note key="79" pos="336" pan="0" len="12" vol="100" />
          <note key="82" pos="360" pan="0" len="12" vol="100" />
          <note key="67" pos="384" pan="0" len="12" vol="100" />
          <note key="74" pos="408" pan="0" len="12" vol="100" />
          <note key="70" pos="432" pan="0" len="12" vol="100" />
          <note key="74" pos="456" pan="0" len="12" vol="100" />
          <note key="69" pos="480" pan="0" len="12" vol="100" />
          <note key="74" pos="504" pan="0" len="12" vol="100" />
          <note key="70" pos="528" pan="0" len="12" vol="100" />
          <note key="74" pos="552" pan="0" len="12" vol="100" />
          <note key="67" pos="576" pan="0" len="12" vol="100" />
          <note key="74" pos="600" pan="0" len="12" vol="100" />
          <note key="70" pos="624" pan="0" len="12" vol="100" />
          <note key="74" pos="648" pan="0" len="12" vol="100" />
          <note key="69" pos="672" pan="0" len="12" vol="100" />
          <note key="74" pos="696" pan="0" len="12" vol="100" />
          <note key="70" pos="720" pan="0" len="12" vol="100" />
          <note key="74" pos="744" pan="0" len="12" vol="100" />
          <note key="72" pos="768" pan="0" len="12" vol="100" />
          <note key="79" pos="792" pan="0" len="12" vol="100" />
          <note key="75" pos="816" pan="0" len="12" vol="100" />
          <note key="79" pos="840" pan="0" len="12" vol="100" />
          <note key="74" pos="864" pan="0" len="12" vol="100" />
          <note key="79" pos="888" pan="0" len="12" vol="100" />
          <note key="75" pos="912" pan="0" len="12" vol="100" />
          <note key="79" pos="936" pan="0" len="12" vol="100" />
          <note key="72" pos="960" pan="0" len="12" vol="100" />
          <note key="79" pos="984" pan="0" len="12" vol="100" />
          <note key="75" pos="1008" pan="0" len="12" vol="100" />
          <note key="79" pos="1032" pan="0" len="12" vol="100" />
          <note key="74" pos="1056" pan="0" len="12" vol="100" />
          <note key="79" pos="1080" pan="0" len="12" vol="100" />
          <note key="75" pos="1104" pan="0" len="12" vol="100" />
          <note key="79" pos="1128" pan="0" len="12" vol="100" />
          <note key="68" pos="1152" pan="0" len="12" vol="100" />
          <note key="75" pos="1176" pan="0" len="12" vol="100" />
          <note key="72" pos="1200" pan="0" len="12" vol="100" />
          <note key="75" pos="1224" pan="0" len="12" vol="100" />
          <note key="70" pos="1248" pan="0" len="12" vol="100" />
          <note key="75" pos="1272" pan="0" len="12" vol="100" />
          <note key="72" pos="1296" pan="0" len="12" vol="100" />
          <note key="75" pos="1320" pan="0" len="12" vol="100" />
          <note key="68" pos="1344" pan="0" len="12" vol="100" />
          <note key="75" pos="1368" pan="0" len="12" vol="100" />
          <note key="72" pos="1392" pan="0" len="12" vol="100" />
          <note key="75" pos="1416" pan="0" len="12" vol="100" />
          <note key="70" pos="1440" pan="0" len="12" vol="100" />
          <note key="75" pos="1464" pan="0" len="12" vol="100" />
          <note key="72" pos="1488" pan="0" len="12" vol="100" />
          <note key="75" pos="1512" pan="0" len="12" vol="100" />
        </pattern>
        <pattern pos="211212" muted="0" steps="16" name="" type="1">
          <note key="72" pos="768" pan="0" len="12" vol="100" />
          <note key="79" pos="792" pan="0" len="12" vol="100" />
          <note key="75" pos="816" pan="0" len="12" vol="100" />
          <note key="79" pos="840" pan="0" len="12" vol="100" />
          <note key="74" pos="864" pan="0" len="12" vol="100" />
          <note key="79" pos="888" pan="0" len="12" vol="100" />
          <note key="75" pos="912" pan="0" len="12" vol="100" />
          <note key="79" pos="936" pan="0" len="12" vol="100" />
          <note key="72" pos="960" pan="0" len="12" vol="100" />
          <note key="79" pos="984" pan="0" len="12" vol="100" />
          <note key="75" pos="1008" pan="0" len="12" vol="100" />
          <note key="79" pos="1032" pan="0" len="12" vol="100" />
          <note key="74" pos="1056" pan="0" len="12" vol="100" />
          <note key="79" pos="1080" pan="0" len="12" vol="100" />
          <note key="75" pos="1104" pan="0" len="12" vol="100" />
          <note key="79" pos="1128" pan="0" len="12" vol="100" />
          <note key="72" pos="1152" pan="0" len="12" vol="100" />
          <note key="79" pos="1176" pan="0" len="12" vol="100" />
          <note key="75" pos="1200" pan="0" len="12" vol="100" />
          <note key="79" pos="1224" pan="0" len="12" vol="100" />
          <note key="74" pos="1248" pan="0" len="12" vol="100" />
          <note key="79" pos="1272" pan="0" len="12" vol="100" />
          <note key="75" pos="1296" pan="0" len="12" vol="100" />
          <note key="79" pos="1320" pan="0" len="12" vol="100" />
          <note key="72" pos="1344" pan="0" len="12" vol="100" />
          <note key="79" pos="1368" pan="0" len="12" vol="100" />
          <note key="75" pos="1392" pan="0" len="12" vol="100" />
          <note key="79" pos="1416" pan="0" len="12" vol="100" />
          <note key="74" pos="1440" pan="0" len="12" vol="100" />
          <note key="79" pos="1464" pan="0" len="12" vol="100" />
          <note key="75" pos="1488" pan="0" len="12" vol="100" />
          <note key="79" pos="1512" pan="0" len="12" vol="100" />
        </pattern>
        <pattern pos="212748" muted="0" steps="16" name="" type="1">
          <note key="72" pos="0" pan="0" len="12" vol="100" />
          <note key="79" pos="24" pan="0" len="12" vol="100" />
          <note key="75" pos="48" pan="0" len="12" vol="100" />
          <note key="79" pos="72" pan="0" len="12" vol="100" />
          <note key="74" pos="96" pan="0" len="12" vol="100" />
          <note key="79" pos="120" pan="0" len="12" vol="100" />
          <note key="75" pos="144" pan="0" len="12" vol="100" />
          <note key="79" pos="168" pan="0" len="12" vol="100" />
          <note key="72" pos="192" pan="0" len="12" vol="100" />
          <note key="79" pos="216" pan="0" len="12" vol="100" />
          <note key="75" pos="240" pan="0" len="12" vol="100" />
          <note key="79" pos="264" pan="0" len="12" vol="100" />
          <note key="74" pos="288" pan="0" len="12" vol="100" />
          <note key="79" pos="312" pan="0" len="12" vol="100" />
          <note key="75" pos="336" pan="0" len="12" vol="100" />
          <note key="79" pos="360" pan="0" len="12" vol="100" />
          <note key="67" pos="384" pan="0" len="12" vol="100" />
          <note key="74" pos="408" pan="0" len="12" vol="100" />
          <note key="70" pos="432" pan="0" len="12" vol="100" />
          <note key="74" pos="456" pan="0" len="12" vol="100" />
          <note key="69" pos="480" pan="0" len="12" vol="100" />
          <note key="74" pos="504" pan="0" len="12" vol="100" />
          <note key="70" pos="528" pan="0" len="12" vol="100" />
          <note key="74" pos="552" pan="0" len="12" vol="100" />
          <note key="67" pos="576" pan="0" len="12" vol="100" />
          <note key="74" pos="600" pan="0" len="12" vol="100" />
          <note key="70" pos="624" pan="0" len="12" vol="100" />
          <note key="74" pos="648" pan="0" len="12" vol="100" />
          <note key="69" pos="672" pan="0" len="12" vol="100" />
          <note key="74" pos="696" pan="0" len="12" vol="100" />
          <note key="70" pos="720" pan="0" len="12" vol="100" />
          <note key="74" pos="744" pan="0" len="12" vol="100" />
          <note key="65" pos="768" pan="0" len="12" vol="100" />
          <note key="72" pos="792" pan="0" len="12" vol="100" />
          <note key="68" pos="816" pan="0" len="12" vol="100" />
          <note key="72" pos="840" pan="0" len="12" vol="100" />
          <note key="67" pos="864" pan="0" len="12" vol="100" />
          <note key="72" pos="888" pan="0" len="12" vol="100" />
          <note key="65" pos="912" pan="0" len="12" vol="100" />
          <note key="72" pos="936" pan="0" len="12" vol="100" />
          <note key="65" pos="960" pan="0" len="12" vol="100" />
          <note key="72" pos="984" pan="0" len="12" vol="100" />
          <note key="68" pos="1008" pan="0" len="12" vol="100" />
          <note key="72" pos="1032" pan="0" len="12" vol="100" />
          <note key="67" pos="1056" pan="0" len="12" vol="100" />
          <note key="72" pos="1080" pan="0" len="12" vol="100" />
          <note key="68" pos="1104" pan="0" len="12" vol="100" />
          <note key="72" pos="1128" pan="0" len="12" vol="100" />
          <note key="72" pos="1152" pan="0" len="12" vol="100" />
          <note key="79" pos="1176" pan="0" len="12" vol="100" />
          <note key="75" pos="1200" pan="0" len="12" vol="100" />
          <note key="79" pos="1224" pan="0" len="12" vol="100" />
          <note key="74" pos="1248" pan="0" len="12" vol="100" />
          <note key="79" pos="1272" pan="0" len="12" vol="100" />
          <note key="75" pos="1296" pan="0" len="12" vol="100" />
          <note key="79" pos="1320" pan="0" len="12" vol="100" />
          <note key="72" pos="1344" pan="0" len="12" vol="100" />
          <note key="79" pos="1368" pan="0" len="12" vol="100" />
          <note key="75" pos="1392" pan="0" len="12" vol="100" />
          <note key="79" pos="1416" pan="0" len="12" vol="100" />
          <note key="74" pos="1440" pan="0" len="12" vol="100" />
          <note key="79" pos="1464" pan="0" len="12" vol="100" />
          <note key="75" pos="1488" pan="0" len="12" vol="100" />
          <note key="79" pos="1512" pan="0" len="12" vol="100" />
        </pattern>
        <pattern pos="214284" muted="0" steps="16" name="" type="1">
          <note key="72" pos="0" pan="0" len="12" vol="100" />
          <note key="79" pos="24" pan="0" len="12" vol="100" />
          <note key="75" pos="48" pan="0" len="12" vol="100" />
          <note key="79" pos="72" pan="0" len="12" vol="100" />
          <note key="74" pos="96" pan="0" len="12" vol="100" />
          <note key="79" pos="120" pan="0" len="12" vol="100" />
          <note key="75" pos="144" pan="0" len="12" vol="100" />
          <note key="79" pos="168" pan="0" len="12" vol="100" />
          <note key="72" pos="192" pan="0" len="12" vol="100" />
          <note key="79" pos="216" pan="0" len="12" vol="100" />
          <note key="75" pos="240" pan="0" len="12" vol="100" />
          <note key="79" pos="264" pan="0" len="12" vol="100" />
          <note key="74" pos="288" pan="0" len="12" vol="100" />
          <note key="79" pos="312" pan="0" len="12" vol="100" />
          <note key="75" pos="336" pan="0" len="12" vol="100" />
          <note key="79" pos="360" pan="0" len="12" vol="100" />
          <note key="67" pos="384" pan="0" len="12" vol="100" />
          <note key="74" pos="408" pan="0" len="12" vol="100" />
          <note key="70" pos="432" pan="0" len="12" vol="100" />
          <note key="74" pos="456" pan="0" len="12" vol="100" />
          <note key="69" pos="480" pan="0" len="12" vol="100" />
          <note key="74" pos="504" pan="0" len="12" vol="100" />
          <note key="70" pos="528" pan="0" len="12" vol="100" />
          <note key="74" pos="552" pan="0" len="12" vol="100" />
          <note key="67" pos="576" pan="0" len="12" vol="100" />
          <note key="74" pos="600" pan="0" len="12" vol="100" />
          <note key="70" pos="624" pan="0" len="12" vol="100" />
          <note key="74" pos="648" pan="0" len="12" vol="100" />
          <note key="69" pos="672" pan="0" len="12" vol="100" />
          <note key="74" pos="696" pan="0" len="12" vol="100" />
          <note key="70" pos="720" pan="0" len="12" vol="100" />
          <note key="74" pos="744" pan="0" len="12" vol="100" />
          <note key="65" pos="768" pan="0" len="12" vol="100" />
          <note key="72" pos="792" pan="0" len="12" vol="100" />
          <note key="68" pos="816" pan="0" len="12" vol="100" />
          <note key="72" pos="840" pan="0" len="12" vol="100" />
          <note key="67" pos="864" pan="0" len="12" vol="100" />
          <note key="72" pos="888" pan="0" len="12" vol="100" />
          <note key="65" pos="912" pan="0" len="12" vol="100" />
          <note key="72" pos="936" pan="0" len="12" vol="100" />
          <note key="65" pos="960" pan="0" len="12" vol="100" />
          <note key="72" pos="984" pan="0" len="12" vol="100" />
          <note key="68" pos="1008" pan="0" len="12" vol="100" />
          <note key="72" pos="1032" pan="0" len="12" vol="100" />
          <note key="67" pos="1056" pan="0" len="12" vol="100" />
          <note key="72" pos="1080" pan="0" len="12" vol="100" />
          <note key="68" pos="1104" pan="0" len="12" vol="100" />
          <note key="72" pos="1128" pan="0" len="12" vol="100" />
          <note key="72" pos="1152" pan="0" len="12" vol="100" />
          <note key="79" pos="1176" pan="0" len="12" vol="100" />
          <note key="75" pos="1200" pan="0" len="12" vol="100" />
          <note key="79" pos="1224" pan="0" len="12" vol="100" />
          <note key="74" pos="1248" pan="0" len="12" vol="100" />
          <note key="79" pos="1272" pan="0" len="12" vol="100" />
          <note key="75" pos="1296" pan="0" len="12" vol="100" />
          <note key="79" pos="1320" pan="0" len="12" vol="100" />
          <note key="72" pos="1344" pan="0" len="12" vol="100" />
          <note key="79" pos="1368" pan="0" len="12" vol="100" />
          <note key="75" pos="1392" pan="0" len="12" vol="100" />
          <note key="79" pos="1416" pan="0" len="12" vol="100" />
          <note key="74" pos="1440" pan="0" len="12" vol="100" />
          <note key="79" pos="1464" pan="0" len="12" vol="100" />
          <note key="75" pos="1488" pan="0" len="12" vol="100" />
          <note key="79" pos="1512" pan="0" len="12" vol="100" />
        </pattern>
        <pattern pos="215820" muted="0" steps="16" name="" type="1">
          <note key="75" pos="0" pan="0" len="12" vol="100" />
          <note key="82" pos="24" pan="0" len="12" vol="100" />
          <note key="79" pos="48" pan="0" len="12" vol="100" />
          <note key="82" pos="72" pan="0" len="12" vol="100" />
          <note key="77" pos="96" pan="0" len="12" vol="100" />
          <note key="82" pos="120" pan="0" len="12" vol="100" />
          <note key="79" pos="144" pan="0" len="12" vol="100" />
          <note key="82" pos="168" pan="0" len="12" vol="100" />
          <note key="75" pos="192" pan="0" len="12" vol="100" />
          <note key="82" pos="216" pan="0" len="12" vol="100" />
          <note key="79" pos="240" pan="0" len="12" vol="100" />
          <note key="82" pos="264" pan="0" len="12" vol="100" />
          <note key="77" pos="288" pan="0" len="12" vol="100" />
          <note key="82" pos="312" pan="0" len="12" vol="100" />
          <note key="79" pos="336" pan="0" len="12" vol="100" />
          <note key="82" pos="360" pan="0" len="12" vol="100" />
          <note key="67" pos="384" pan="0" len="12" vol="100" />
          <note key="74" pos="408" pan="0" len="12" vol="100" />
          <note key="70" pos="432" pan="0" len="12" vol="100" />
          <note key="74" pos="456" pan="0" len="12" vol="100" />
          <note key="69" pos="480" pan="0" len="12" vol="100" />
          <note key="74" pos="504" pan="0" len="12" vol="100" />
          <note key="70" pos="528" pan="0" len="12" vol="100" />
          <note key="74" pos="552" pan="0" len="12" vol="100" />
          <note key="67" pos="576" pan="0" len="12" vol="100" />
          <note key="74" pos="600" pan="0" len="12" vol="100" />
          <note key="70" pos="624" pan="0" len="12" vol="100" />
          <note key="74" pos="648" pan="0" len="12" vol="100" />
          <note key="69" pos="672" pan="0" len="12" vol="100" />
          <note key="74" pos="696" pan="0" len="12" vol="100" />
          <note key="70" pos="720" pan="0" len="12" vol="100" />
          <note key="74" pos="744" pan="0" len="12" vol="100" />
          <note key="72" pos="768" pan="0" len="12" vol="100" />
          <note key="79" pos="792" pan="0" len="12" vol="100" />
          <note key="75" pos="816" pan="0" len="12" vol="100" />
          <note key="79" pos="840" pan="0" len="12" vol="100" />
          <note key="74" pos="864" pan="0" len="12" vol="100" />
          <note key="79" pos="888" pan="0" len="12" vol="100" />
          <note key="75" pos="912" pan="0" len="12" vol="100" />
          <note key="79" pos="936" pan="0" len="12" vol="100" />
          <note key="72" pos="960" pan="0" len="12" vol="100" />
          <note key="79" pos="984" pan="0" len="12" vol="100" />
          <note key="75" pos="1008" pan="0" len="12" vol="100" />
          <note key="79" pos="1032" pan="0" len="12" vol="100" />
          <note key="74" pos="1056" pan="0" len="12" vol="100" />
          <note key="79" pos="1080" pan="0" len="12" vol="100" />
          <note key="75" pos="1104" pan="0" len="12" vol="100" />
          <note key="79" pos="1128" pan="0" len="12" vol="100" />
          <note key="68" pos="1152" pan="0" len="12" vol="100" />
          <note key="75" pos="1176" pan="0" len="12" vol="100" />
          <note key="72" pos="1200" pan="0" len="12" vol="100" />
          <note key="75" pos="1224" pan="0" len="12" vol="100" />
          <note key="70" pos="1248" pan="0" len="12" vol="100" />
          <note key="75" pos="1272" pan="0" len="12" vol="100" />
          <note key="72" pos="1296" pan="0" len="12" vol="100" />
          <note key="75" pos="1320" pan="0" len="12" vol="100" />
          <note key="68" pos="1344" pan="0" len="12" vol="100" />
          <note key="75" pos="1368" pan="0" len="12" vol="100" />
          <note key="72" pos="1392" pan="0" len="12" vol="100" />
          <note key="75" pos="1416" pan="0" len="12" vol="100" />
          <note key="70" pos="1440" pan="0" len="12" vol="100" />
          <note key="75" pos="1464" pan="0" len="12" vol="100" />
          <note key="72" pos="1488" pan="0" len="12" vol="100" />
          <note key="75" pos="1512" pan="0" len="12" vol="100" />
        </pattern>
        <pattern pos="217356" muted="0" steps="16" name="" type="1">
          <note key="75" pos="0" pan="0" len="12" vol="100" />
          <note key="82" pos="24" pan="0" len="12" vol="100" />
          <note key="79" pos="48" pan="0" len="12" vol="100" />
          <note key="82" pos="72" pan="0" len="12" vol="100" />
          <note key="77" pos="96" pan="0" len="12" vol="100" />
          <note key="82" pos="120" pan="0" len="12" vol="100" />
          <note key="79" pos="144" pan="0" len="12" vol="100" />
          <note key="82" pos="168" pan="0" len="12" vol="100" />
          <note key="75" pos="192" pan="0" len="12" vol="100" />
          <note key="82" pos="216" pan="0" len="12" vol="100" />
          <note key="79" pos="240" pan="0" len="12" vol="100" />
          <note key="82" pos="264" pan="0" len="12" vol="100" />
          <note key="77" pos="288" pan="0" len="12" vol="100" />
          <note key="82" pos="312" pan="0" len="12" vol="100" />
          <note key="79" pos="336" pan="0" len="12" vol="100" />
          <note key="82" pos="360" pan="0" len="12" vol="100" />
          <note key="67" pos="384" pan="0" len="12" vol="100" />
          <note key="74" pos="408" pan="0" len="12" vol="100" />
          <note key="70" pos="432" pan="0" len="12" vol="100" />
          <note key="74" pos="456" pan="0" len="12" vol="100" />
          <note key="69" pos="480" pan="0" len="12" vol="100" />
          <note key="74" pos="504" pan="0" len="12" vol="100" />
          <note key="70" pos="528" pan="0" len="12" vol="100" />
          <note key="74" pos="552" pan="0" len="12" vol="100" />
          <note key="67" pos="576" pan="0" len="12" vol="100" />
          <note key="74" pos="600" pan="0" len="12" vol="100" />
          <note key="70" pos="624" pan="0" len="12" vol="100" />
          <note key="74" pos="648" pan="0" len="12" vol="100" />
          <note key="69" pos="672" pan="0" len="12" vol="100" />
          <note key="74" pos="696" pan="0" len="12" vol="100" />
          <note key="70" pos="720" pan="0" len="12" vol="100" />
          <note key="74" pos="744" pan="0" len="12" vol="100" />
          <note key="72" pos="768" pan="0" len="12" vol="100" />
          <note key="79" pos="792" pan="0" len="12" vol="100" />
          <note key="75" pos="816" pan="0" len="12" vol="100" />
          <note key="79" pos="840" pan="0" len="12" vol="100" />
          <note key="74" pos="864" pan="0" len="12" vol="100" />
          <note key="79" pos="888" pan="0" len="12" vol="100" />
          <note key="75" pos="912" pan="0" len="12" vol="100" />
          <note key="79" pos="936" pan="0" len="12" vol="100" />
          <note key="72" pos="960" pan="0" len="12" vol="100" />
          <note key="79" pos="984" pan="0" len="12" vol="100" />
          <note key="75" pos="1008" pan="0" len="12" vol="100" />
          <note key="79" pos="1032" pan="0" len="12" vol="100" />
          <note key="74" pos="1056" pan="0" len="12" vol="100" />
          <note key="79" pos="1080" pan="0" len="12" vol="100" />
          <note key="75" pos="1104" pan="0" len="12" vol="100" />
          <note key="79" pos="1128" pan="0" len="12" vol="100" />
          <note key="68" pos="1152" pan="0" len="12" vol="100" />
          <note key="75" pos="1176" pan="0" len="12" vol="100" />
          <note key="72" pos="1200" pan="0" len="12" vol="100" />
          <note key="75" pos="1224" pan="0" len="12" vol="100" />
          <note key="70" pos="1248" pan="0" len="12" vol="100" />
          <note key="75" pos="1272" pan="0" len="12" vol="100" />
          <note key="72" pos="1296" pan="0" len="12" vol="100" />
          <note key="75" pos="1320" pan="0" len="12" vol="100" />
          <note key="68" pos="1344" pan="0" len="12" vol="100" />
          <note key="75" pos="1368" pan="0" len="12" vol="100" />
          <note key="72" pos="1392" pan="0" len="12" vol="100" />
          <note key="75" pos="1416" pan="0" len="12" vol="100" />
          <note key="70" pos="1440" pan="0" len="12" vol="100" />
          <note key="75" pos="1464" pan="0" len="12" vol="100" />
          <note key="72" pos="1488" pan="0" len="12" vol="100" />
          <note key="75" pos="1512" pan="0" len="12" vol="100" />
        </pattern>
        <pattern pos="218892" muted="0" steps="16" name="" type="1">
          <note key="72" pos="768" pan="0" len="12" vol="100" />
          <note key="79" pos="792" pan="0" len="12" vol="100" />
          <note key="75" pos="816" pan="0" len="12" vol="100" />
          <note key="79" pos="840" pan="0" len="12" vol="100" />
          <note key="74" pos="864" pan="0" len="12" vol="100" />
          <note key="79" pos="888" pan="0" len="12" vol="100" />
          <note key="75" pos="912" pan="0" len="12" vol="100" />
          <note key="79" pos="936" pan="0" len="12" vol="100" />
          <note key="72" pos="960" pan="0" len="12" vol="100" />
          <note key="79" pos="984" pan="0" len="12" vol="100" />
          <note key="75" pos="1008" pan="0" len="12" vol="100" />
          <note key="79" pos="1032" pan="0" len="12" vol="100" />
          <note key="74" pos="1056" pan="0" len="12" vol="100" />
          <note key="79" pos="1080" pan="0" len="12" vol="100" />
          <note key="75" pos="1104" pan="0" len="12" vol="100" />
          <note key="79" pos="1128" pan="0" len="12" vol="100" />
          <note key="72" pos="1152" pan="0" len="12" vol="100" />
          <note key="79" pos="1176" pan="0" len="12" vol="100" />
          <note key="75" pos="1200" pan="0" len="12" vol="100" />
          <note key="79" pos="1224" pan="0" len="12" vol="100" />
          <note key="74" pos="1248" pan="0" len="12" vol="100" />
          <note key="79" pos="1272" pan="0" len="12" vol="100" />
          <note key="75" pos="1296" pan="0" len="12" vol="100" />
          <note key="79" pos="1320" pan="0" len="12" vol="100" />
          <note key="72" pos="1344" pan="0" len="12" vol="100" />
          <note key="79" pos="1368" pan="0" len="12" vol="100" />
          <note key="75" pos="1392" pan="0" len="12" vol="100" />
          <note key="79" pos="1416" pan="0" len="12" vol="100" />
          <note key="74" pos="1440" pan="0" len="12" vol="100" />
          <note key="79" pos="1464" pan="0" len="12" vol="100" />
          <note key="75" pos="1488" pan="0" len="12" vol="100" />
          <note key="79" pos="1512" pan="0" len="12" vol="100" />
        </pattern>
        <pattern pos="248844" muted="0" steps="16" name="" type="1">
          <note key="74" pos="24" pan="0" len="12" vol="50" />
          <note key="74" pos="312" pan="0" len="12" vol="50" />
          <note key="89" pos="432" pan="0" len="12" vol="50" />
          <note key="82" pos="456" pan="0" len="12" vol="50" />
          <note key="74" pos="600" pan="0" len="12" vol="50" />
          <note key="74" pos="888" pan="0" len="12" vol="50" />
          <note key="74" pos="1176" pan="0" len="12" vol="50" />
          <note key="74" pos="1464" pan="0" len="12" vol="50" />
          <note key="74" pos="1752" pan="0" len="12" vol="50" />
          <note key="74" pos="2040" pan="0" len="12" vol="50" />
        </pattern>
        <pattern pos="251148" muted="0" steps="16" name="" type="1">
          <note key="74" pos="24" pan="0" len="12" vol="50" />
          <note key="74" pos="312" pan="0" len="12" vol="50" />
          <note key="89" pos="432" pan="0" len="12" vol="50" />
          <note key="82" pos="456" pan="0" len="12" vol="50" />
          <note key="74" pos="600" pan="0" len="12" vol="50" />
          <note key="74" pos="888" pan="0" len="12" vol="50" />
          <note key="74" pos="1176" pan="0" len="12" vol="50" />
          <note key="74" pos="1464" pan="0" len="12" vol="50" />
          <note key="74" pos="1752" pan="0" len="12" vol="50" />
          <note key="74" pos="2040" pan="0" len="12" vol="50" />
        </pattern>
        <pattern pos="253452" muted="0" steps="16" name="" type="1">
          <note key="74" pos="24" pan="0" len="12" vol="50" />
          <note key="74" pos="312" pan="0" len="12" vol="50" />
          <note key="74" pos="600" pan="0" len="12" vol="50" />
          <note key="77" pos="888" pan="0" len="12" vol="50" />
          <note key="74" pos="1176" pan="0" len="12" vol="50" />
          <note key="74" pos="1464" pan="0" len="12" vol="50" />
          <note key="74" pos="1752" pan="0" len="12" vol="50" />
          <note key="74" pos="2040" pan="0" len="12" vol="50" />
        </pattern>
        <pattern pos="255756" muted="0" steps="16" name="" type="1">
          <note key="74" pos="24" pan="0" len="12" vol="50" />
          <note key="74" pos="312" pan="0" len="12" vol="50" />
          <note key="74" pos="600" pan="0" len="12" vol="50" />
          <note key="77" pos="888" pan="0" len="12" vol="50" />
          <note key="74" pos="1176" pan="0" len="12" vol="50" />
          <note key="74" pos="1464" pan="0" len="12" vol="50" />
          <note key="74" pos="1752" pan="0" len="12" vol="50" />
          <note key="74" pos="2040" pan="0" len="12" vol="50" />
        </pattern>
        <pattern pos="267276" muted="0" steps="16" name="" type="1">
          <note key="74" pos="408" pan="0" len="24" vol="100" />
          <note key="77" pos="432" pan="0" len="24" vol="100" />
          <note key="91" pos="456" pan="0" len="24" vol="100" />
        </pattern>
      </track>
      <track solo="0" name="1 (Ch4)" type="0" muted="0">
        <instrumenttrack usemasterpitch="1" pitch="0.0" basenote="57" pan="0" pitchrange="12" vol="30">
          <eldata />
          <instrument name="tripleoscillator" />
        </instrumenttrack>
        <pattern pos="268044" muted="0" steps="16" name="" type="1">
          <note key="79" pos="0" pan="0" len="12" vol="100" />
          <note key="82" pos="24" pan="0" len="12" vol="100" />
          <note key="86" pos="48" pan="0" len="12" vol="100" />
          <note key="89" pos="72" pan="0" len="12" vol="100" />
          <note key="81" pos="96" pan="0" len="12" vol="100" />
          <note key="78" pos="144" pan="0" len="36" vol="100" />
          <note key="74" pos="192" pan="0" len="24" vol="100" />
          <note key="87" pos="216" pan="0" len="72" vol="100" />
        </pattern>
        <pattern pos="1536" muted="0" steps="16" name="" type="1">
          <note key="87" pos="0" pan="0" len="24" vol="50" />
          <note key="89" pos="72" pan="0" len="36" vol="50" />
          <note key="87" pos="120" pan="0" len="36" vol="50" />
          <note key="87" pos="192" pan="0" len="36" vol="50" />
          <note key="89" pos="264" pan="0" len="48" vol="50" />
          <note key="87" pos="312" pan="0" len="48" vol="50" />
          <note key="87" pos="384" pan="0" len="72" vol="50" />
          <note key="89" pos="456" pan="0" len="48" vol="50" />
          <note key="87" pos="504" pan="0" len="48" vol="50" />
          <note key="87" pos="576" pan="0" len="60" vol="50" />
          <note key="86" pos="648" pan="0" len="48" vol="50" />
          <note key="86" pos="696" pan="0" len="48" vol="50" />
          <note key="87" pos="768" pan="0" len="24" vol="50" />
          <note key="89" pos="840" pan="0" len="36" vol="50" />
          <note key="87" pos="888" pan="0" len="36" vol="50" />
          <note key="87" pos="960" pan="0" len="36" vol="50" />
          <note key="89" pos="1032" pan="0" len="48" vol="50" />
          <note key="87" pos="1080" pan="0" len="48" vol="50" />
          <note key="87" pos="1152" pan="0" len="72" vol="50" />
          <note key="89" pos="1224" pan="0" len="48" vol="50" />
          <note key="87" pos="1272" pan="0" len="48" vol="50" />
          <note key="87" pos="1344" pan="0" len="60" vol="50" />
          <note key="86" pos="1416" pan="0" len="48" vol="50" />
          <note key="86" pos="1464" pan="0" len="48" vol="50" />
        </pattern>
        <pattern pos="3072" muted="0" steps="16" name="" type="1">
          <note key="87" pos="0" pan="0" len="24" vol="50" />
          <note key="89" pos="72" pan="0" len="36" vol="50" />
          <note key="87" pos="120" pan="0" len="36" vol="50" />
          <note key="87" pos="192" pan="0" len="36" vol="50" />
          <note key="89" pos="264" pan="0" len="48" vol="50" />
          <note key="87" pos="312" pan="0" len="48" vol="50" />
          <note key="87" pos="384" pan="0" len="72" vol="50" />
          <note key="89" pos="456" pan="0" len="48" vol="50" />
          <note key="87" pos="504" pan="0" len="48" vol="50" />
          <note key="87" pos="576" pan="0" len="60" vol="50" />
          <note key="86" pos="648" pan="0" len="48" vol="50" />
          <note key="86" pos="696" pan="0" len="48" vol="50" />
          <note key="87" pos="768" pan="0" len="24" vol="50" />
          <note key="89" pos="840" pan="0" len="36" vol="50" />
          <note key="87" pos="888" pan="0" len="36" vol="50" />
          <note key="87" pos="960" pan="0" len="36" vol="50" />
          <note key="89" pos="1032" pan="0" len="48" vol="50" />
          <note key="87" pos="1080" pan="0" len="48" vol="50" />
          <note key="87" pos="1152" pan="0" len="72" vol="50" />
          <note key="89" pos="1224" pan="0" len="48" vol="50" />
          <note key="87" pos="1272" pan="0" len="48" vol="50" />
          <note key="87" pos="1344" pan="0" len="60" vol="50" />
          <note key="86" pos="1416" pan="0" len="48" vol="50" />
          <note key="86" pos="1464" pan="0" len="48" vol="50" />
        </pattern>
        <pattern pos="4608" muted="0" steps="16" name="" type="1">
          <note key="87" pos="0" pan="0" len="24" vol="50" />
          <note key="89" pos="72" pan="0" len="36" vol="50" />
          <note key="87" pos="120" pan="0" len="36" vol="50" />
          <note key="87" pos="192" pan="0" len="36" vol="50" />
          <note key="89" pos="264" pan="0" len="48" vol="50" />
          <note key="87" pos="312" pan="0" len="48" vol="50" />
          <note key="87" pos="384" pan="0" len="72" vol="50" />
          <note key="89" pos="456" pan="0" len="48" vol="50" />
          <note key="87" pos="504" pan="0" len="48" vol="50" />
          <note key="87" pos="576" pan="0" len="60" vol="50" />
          <note key="86" pos="648" pan="0" len="48" vol="50" />
          <note key="86" pos="696" pan="0" len="48" vol="50" />
          <note key="87" pos="768" pan="0" len="24" vol="50" />
          <note key="89" pos="840" pan="0" len="36" vol="50" />
          <note key="87" pos="888" pan="0" len="36" vol="50" />
          <note key="87" pos="960" pan="0" len="36" vol="50" />
          <note key="89" pos="1032" pan="0" len="48" vol="50" />
          <note key="87" pos="1080" pan="0" len="48" vol="50" />
          <note key="87" pos="1152" pan="0" len="72" vol="50" />
          <note key="89" pos="1224" pan="0" len="48" vol="50" />
          <note key="87" pos="1272" pan="0" len="48" vol="50" />
          <note key="87" pos="1344" pan="0" len="60" vol="50" />
          <note key="86" pos="1416" pan="0" len="48" vol="50" />
          <note key="86" pos="1464" pan="0" len="48" vol="50" />
        </pattern>
        <pattern pos="6144" muted="0" steps="16" name="" type="1">
          <note key="89" pos="0" pan="0" len="48" vol="50" />
          <note key="77" pos="48" pan="0" len="12" vol="100" />
          <note key="92" pos="72" pan="0" len="24" vol="50" />
          <note key="89" pos="120" pan="0" len="48" vol="50" />
          <note key="89" pos="192" pan="0" len="48" vol="50" />
          <note key="77" pos="240" pan="0" len="12" vol="100" />
          <note key="91" pos="264" pan="0" len="36" vol="50" />
          <note key="89" pos="312" pan="0" len="48" vol="50" />
          <note key="89" pos="384" pan="0" len="48" vol="50" />
          <note key="77" pos="432" pan="0" len="12" vol="100" />
          <note key="92" pos="456" pan="0" len="36" vol="50" />
          <note key="89" pos="504" pan="0" len="48" vol="50" />
          <note key="89" pos="576" pan="0" len="48" vol="50" />
          <note key="77" pos="624" pan="0" len="12" vol="100" />
          <note key="91" pos="648" pan="0" len="24" vol="50" />
          <note key="89" pos="696" pan="0" len="24" vol="50" />
          <note key="82" pos="720" pan="0" len="12" vol="50" />
          <note key="89" pos="768" pan="0" len="24" vol="50" />
          <note key="77" pos="816" pan="0" len="12" vol="100" />
          <note key="92" pos="840" pan="0" len="24" vol="50" />
          <note key="89" pos="888" pan="0" len="24" vol="50" />
          <note key="77" pos="912" pan="0" len="12" vol="100" />
          <note key="89" pos="960" pan="0" len="48" vol="50" />
          <note key="77" pos="1008" pan="0" len="12" vol="100" />
          <note key="91" pos="1032" pan="0" len="36" vol="50" />
          <note key="89" pos="1080" pan="0" len="24" vol="50" />
          <note key="77" pos="1104" pan="0" len="12" vol="100" />
          <note key="89" pos="1152" pan="0" len="48" vol="50" />
          <note key="77" pos="1200" pan="0" len="12" vol="100" />
          <note key="92" pos="1224" pan="0" len="36" vol="50" />
          <note key="89" pos="1272" pan="0" len="24" vol="50" />
          <note key="77" pos="1296" pan="0" len="12" vol="100" />
          <note key="89" pos="1344" pan="0" len="48" vol="50" />
          <note key="77" pos="1392" pan="0" len="12" vol="100" />
          <note key="91" pos="1416" pan="0" len="24" vol="50" />
          <note key="89" pos="1464" pan="0" len="24" vol="50" />
          <note key="82" pos="1488" pan="0" len="12" vol="50" />
        </pattern>
        <pattern pos="7680" muted="0" steps="16" name="" type="1">
          <note key="87" pos="0" pan="0" len="24" vol="50" />
          <note key="89" pos="72" pan="0" len="36" vol="50" />
          <note key="87" pos="120" pan="0" len="36" vol="50" />
          <note key="87" pos="192" pan="0" len="36" vol="50" />
          <note key="89" pos="264" pan="0" len="48" vol="50" />
          <note key="87" pos="312" pan="0" len="48" vol="50" />
          <note key="87" pos="384" pan="0" len="72" vol="50" />
          <note key="89" pos="456" pan="0" len="48" vol="50" />
          <note key="87" pos="504" pan="0" len="48" vol="50" />
          <note key="87" pos="576" pan="0" len="60" vol="50" />
          <note key="86" pos="648" pan="0" len="48" vol="50" />
          <note key="86" pos="696" pan="0" len="48" vol="50" />
          <note key="87" pos="768" pan="0" len="24" vol="50" />
          <note key="89" pos="840" pan="0" len="36" vol="50" />
          <note key="87" pos="888" pan="0" len="36" vol="50" />
          <note key="87" pos="960" pan="0" len="36" vol="50" />
          <note key="89" pos="1032" pan="0" len="48" vol="50" />
          <note key="87" pos="1080" pan="0" len="48" vol="50" />
          <note key="87" pos="1152" pan="0" len="72" vol="50" />
          <note key="89" pos="1224" pan="0" len="48" vol="50" />
          <note key="87" pos="1272" pan="0" len="48" vol="50" />
          <note key="87" pos="1344" pan="0" len="60" vol="50" />
          <note key="86" pos="1416" pan="0" len="48" vol="50" />
          <note key="86" pos="1464" pan="0" len="48" vol="50" />
          <note key="87" pos="1536" pan="0" len="24" vol="50" />
          <note key="89" pos="1608" pan="0" len="36" vol="50" />
          <note key="87" pos="1656" pan="0" len="36" vol="50" />
          <note key="87" pos="1728" pan="0" len="36" vol="50" />
          <note key="89" pos="1800" pan="0" len="48" vol="50" />
          <note key="87" pos="1848" pan="0" len="48" vol="50" />
          <note key="87" pos="1920" pan="0" len="72" vol="50" />
          <note key="89" pos="1992" pan="0" len="48" vol="50" />
          <note key="87" pos="2040" pan="0" len="48" vol="50" />
          <note key="87" pos="2112" pan="0" len="60" vol="50" />
          <note key="86" pos="2184" pan="0" len="48" vol="50" />
          <note key="86" pos="2232" pan="0" len="48" vol="50" />
          <note key="87" pos="2304" pan="0" len="24" vol="50" />
          <note key="89" pos="2376" pan="0" len="36" vol="50" />
          <note key="87" pos="2424" pan="0" len="36" vol="50" />
          <note key="87" pos="2496" pan="0" len="36" vol="50" />
          <note key="89" pos="2568" pan="0" len="48" vol="50" />
          <note key="87" pos="2616" pan="0" len="48" vol="50" />
          <note key="87" pos="2688" pan="0" len="72" vol="50" />
          <note key="89" pos="2760" pan="0" len="48" vol="50" />
          <note key="87" pos="2808" pan="0" len="48" vol="50" />
          <note key="87" pos="2880" pan="0" len="60" vol="50" />
          <note key="86" pos="2952" pan="0" len="48" vol="50" />
          <note key="86" pos="3000" pan="0" len="48" vol="50" />
        </pattern>
        <pattern pos="10752" muted="0" steps="16" name="" type="1">
          <note key="89" pos="0" pan="0" len="48" vol="50" />
          <note key="77" pos="48" pan="0" len="12" vol="100" />
          <note key="92" pos="72" pan="0" len="24" vol="50" />
          <note key="89" pos="120" pan="0" len="48" vol="50" />
          <note key="89" pos="192" pan="0" len="48" vol="50" />
          <note key="77" pos="240" pan="0" len="12" vol="100" />
          <note key="91" pos="264" pan="0" len="36" vol="50" />
          <note key="89" pos="312" pan="0" len="48" vol="50" />
          <note key="89" pos="384" pan="0" len="48" vol="50" />
          <note key="77" pos="432" pan="0" len="12" vol="100" />
          <note key="92" pos="456" pan="0" len="36" vol="50" />
          <note key="89" pos="504" pan="0" len="48" vol="50" />
          <note key="89" pos="576" pan="0" len="48" vol="50" />
          <note key="77" pos="624" pan="0" len="12" vol="100" />
          <note key="91" pos="648" pan="0" len="24" vol="50" />
          <note key="89" pos="696" pan="0" len="24" vol="50" />
          <note key="82" pos="720" pan="0" len="12" vol="50" />
          <note key="89" pos="768" pan="0" len="24" vol="50" />
          <note key="77" pos="816" pan="0" len="12" vol="100" />
          <note key="92" pos="840" pan="0" len="24" vol="50" />
          <note key="89" pos="888" pan="0" len="24" vol="50" />
          <note key="77" pos="912" pan="0" len="12" vol="100" />
          <note key="89" pos="960" pan="0" len="48" vol="50" />
          <note key="77" pos="1008" pan="0" len="12" vol="100" />
          <note key="91" pos="1032" pan="0" len="36" vol="50" />
          <note key="89" pos="1080" pan="0" len="24" vol="50" />
          <note key="77" pos="1104" pan="0" len="12" vol="100" />
          <note key="89" pos="1152" pan="0" len="48" vol="50" />
          <note key="77" pos="1200" pan="0" len="12" vol="100" />
          <note key="92" pos="1224" pan="0" len="36" vol="50" />
          <note key="89" pos="1272" pan="0" len="24" vol="50" />
          <note key="77" pos="1296" pan="0" len="12" vol="100" />
          <note key="89" pos="1344" pan="0" len="48" vol="50" />
          <note key="77" pos="1392" pan="0" len="12" vol="100" />
          <note key="91" pos="1416" pan="0" len="24" vol="50" />
          <note key="89" pos="1464" pan="0" len="24" vol="50" />
          <note key="82" pos="1488" pan="0" len="12" vol="50" />
        </pattern>
        <pattern pos="12288" muted="0" steps="16" name="" type="1">
          <note key="87" pos="0" pan="0" len="24" vol="50" />
          <note key="89" pos="72" pan="0" len="36" vol="50" />
          <note key="87" pos="120" pan="0" len="36" vol="50" />
          <note key="86" pos="192" pan="0" len="36" vol="50" />
          <note key="89" pos="264" pan="0" len="48" vol="50" />
          <note key="86" pos="312" pan="0" len="48" vol="50" />
          <note key="87" pos="384" pan="0" len="72" vol="50" />
          <note key="89" pos="456" pan="0" len="48" vol="50" />
          <note key="87" pos="504" pan="0" len="48" vol="50" />
          <note key="86" pos="576" pan="0" len="60" vol="50" />
          <note key="86" pos="648" pan="0" len="48" vol="50" />
          <note key="86" pos="696" pan="0" len="48" vol="50" />
          <note key="84" pos="768" pan="0" len="24" vol="50" />
          <note key="89" pos="840" pan="0" len="36" vol="50" />
          <note key="84" pos="888" pan="0" len="36" vol="50" />
          <note key="86" pos="960" pan="0" len="36" vol="50" />
          <note key="89" pos="1032" pan="0" len="48" vol="50" />
          <note key="86" pos="1080" pan="0" len="48" vol="50" />
          <note key="87" pos="1152" pan="0" len="72" vol="50" />
          <note key="89" pos="1224" pan="0" len="48" vol="50" />
          <note key="87" pos="1272" pan="0" len="48" vol="50" />
          <note key="86" pos="1344" pan="0" len="60" vol="50" />
          <note key="89" pos="1416" pan="0" len="48" vol="50" />
          <note key="86" pos="1464" pan="0" len="48" vol="50" />
          <note key="87" pos="1536" pan="0" len="24" vol="50" />
          <note key="89" pos="1608" pan="0" len="36" vol="50" />
          <note key="87" pos="1656" pan="0" len="36" vol="50" />
          <note key="86" pos="1728" pan="0" len="36" vol="50" />
          <note key="89" pos="1800" pan="0" len="48" vol="50" />
          <note key="86" pos="1848" pan="0" len="48" vol="50" />
          <note key="87" pos="1920" pan="0" len="72" vol="50" />
          <note key="89" pos="1992" pan="0" len="48" vol="50" />
          <note key="87" pos="2040" pan="0" len="48" vol="50" />
          <note key="86" pos="2112" pan="0" len="60" vol="50" />
          <note key="86" pos="2184" pan="0" len="48" vol="50" />
          <note key="86" pos="2232" pan="0" len="48" vol="50" />
          <note key="84" pos="2304" pan="0" len="24" vol="50" />
          <note key="87" pos="2376" pan="0" len="36" vol="50" />
          <note key="84" pos="2424" pan="0" len="36" vol="50" />
          <note key="82" pos="2496" pan="0" len="36" vol="50" />
          <note key="82" pos="2568" pan="0" len="48" vol="50" />
          <note key="82" pos="2616" pan="0" len="48" vol="50" />
          <note key="84" pos="2688" pan="0" len="72" vol="50" />
          <note key="87" pos="2760" pan="0" len="48" vol="50" />
          <note key="84" pos="2808" pan="0" len="48" vol="50" />
          <note key="84" pos="2880" pan="0" len="108" vol="50" />
        </pattern>
        <pattern pos="44544" muted="0" steps="16" name="" type="1">
          <note key="71" pos="0" pan="0" len="24" vol="23" />
          <note key="74" pos="24" pan="0" len="12" vol="33" />
          <note key="71" pos="48" pan="0" len="24" vol="42" />
          <note key="74" pos="72" pan="0" len="12" vol="52" />
          <note key="71" pos="96" pan="0" len="24" vol="61" />
          <note key="74" pos="120" pan="0" len="12" vol="72" />
          <note key="71" pos="144" pan="0" len="24" vol="81" />
          <note key="74" pos="168" pan="0" len="24" vol="91" />
          <note key="70" pos="192" pan="0" len="24" vol="100" />
          <note key="74" pos="216" pan="0" len="12" vol="89" />
          <note key="70" pos="240" pan="0" len="24" vol="80" />
          <note key="74" pos="264" pan="0" len="12" vol="69" />
          <note key="70" pos="288" pan="0" len="24" vol="59" />
          <note key="74" pos="312" pan="0" len="12" vol="48" />
          <note key="70" pos="336" pan="0" len="24" vol="39" />
          <note key="74" pos="360" pan="0" len="12" vol="28" />
          <note key="71" pos="384" pan="0" len="24" vol="23" />
          <note key="74" pos="408" pan="0" len="12" vol="33" />
          <note key="71" pos="432" pan="0" len="24" vol="42" />
          <note key="74" pos="456" pan="0" len="12" vol="52" />
          <note key="71" pos="480" pan="0" len="24" vol="61" />
          <note key="74" pos="504" pan="0" len="12" vol="72" />
          <note key="71" pos="528" pan="0" len="24" vol="81" />
          <note key="74" pos="552" pan="0" len="24" vol="91" />
          <note key="70" pos="576" pan="0" len="24" vol="100" />
          <note key="74" pos="600" pan="0" len="12" vol="89" />
          <note key="70" pos="624" pan="0" len="24" vol="80" />
          <note key="74" pos="648" pan="0" len="12" vol="69" />
          <note key="70" pos="672" pan="0" len="24" vol="59" />
          <note key="74" pos="696" pan="0" len="12" vol="48" />
          <note key="70" pos="720" pan="0" len="24" vol="39" />
          <note key="74" pos="744" pan="0" len="12" vol="28" />
          <note key="71" pos="768" pan="0" len="24" vol="23" />
          <note key="74" pos="792" pan="0" len="12" vol="33" />
          <note key="71" pos="816" pan="0" len="24" vol="42" />
          <note key="74" pos="840" pan="0" len="12" vol="52" />
          <note key="71" pos="864" pan="0" len="24" vol="61" />
          <note key="74" pos="888" pan="0" len="12" vol="72" />
          <note key="71" pos="912" pan="0" len="24" vol="81" />
          <note key="74" pos="936" pan="0" len="24" vol="91" />
          <note key="70" pos="960" pan="0" len="24" vol="100" />
          <note key="74" pos="984" pan="0" len="12" vol="89" />
          <note key="70" pos="1008" pan="0" len="24" vol="80" />
          <note key="74" pos="1032" pan="0" len="12" vol="69" />
          <note key="70" pos="1056" pan="0" len="24" vol="59" />
          <note key="74" pos="1080" pan="0" len="12" vol="48" />
          <note key="70" pos="1104" pan="0" len="24" vol="39" />
          <note key="74" pos="1128" pan="0" len="12" vol="28" />
          <note key="71" pos="1152" pan="0" len="24" vol="23" />
          <note key="74" pos="1176" pan="0" len="12" vol="33" />
          <note key="71" pos="1200" pan="0" len="24" vol="42" />
          <note key="74" pos="1224" pan="0" len="12" vol="52" />
          <note key="71" pos="1248" pan="0" len="24" vol="61" />
          <note key="74" pos="1272" pan="0" len="12" vol="72" />
          <note key="71" pos="1296" pan="0" len="24" vol="81" />
          <note key="74" pos="1320" pan="0" len="24" vol="91" />
          <note key="70" pos="1344" pan="0" len="24" vol="100" />
          <note key="74" pos="1368" pan="0" len="12" vol="89" />
          <note key="70" pos="1392" pan="0" len="24" vol="80" />
          <note key="74" pos="1416" pan="0" len="12" vol="69" />
          <note key="70" pos="1440" pan="0" len="24" vol="59" />
          <note key="74" pos="1464" pan="0" len="12" vol="48" />
          <note key="70" pos="1488" pan="0" len="24" vol="39" />
          <note key="74" pos="1512" pan="0" len="12" vol="28" />
        </pattern>
        <pattern pos="47616" muted="0" steps="16" name="" type="1">
          <note key="71" pos="0" pan="0" len="24" vol="23" />
          <note key="74" pos="24" pan="0" len="12" vol="33" />
          <note key="71" pos="48" pan="0" len="24" vol="42" />
          <note key="74" pos="72" pan="0" len="12" vol="52" />
          <note key="71" pos="96" pan="0" len="24" vol="61" />
          <note key="74" pos="120" pan="0" len="12" vol="72" />
          <note key="71" pos="144" pan="0" len="24" vol="81" />
          <note key="74" pos="168" pan="0" len="24" vol="91" />
          <note key="70" pos="192" pan="0" len="24" vol="100" />
          <note key="74" pos="216" pan="0" len="12" vol="89" />
          <note key="70" pos="240" pan="0" len="24" vol="80" />
          <note key="74" pos="264" pan="0" len="12" vol="69" />
          <note key="70" pos="288" pan="0" len="24" vol="59" />
          <note key="74" pos="312" pan="0" len="12" vol="48" />
          <note key="70" pos="336" pan="0" len="24" vol="39" />
          <note key="74" pos="360" pan="0" len="12" vol="28" />
          <note key="71" pos="384" pan="0" len="24" vol="23" />
          <note key="74" pos="408" pan="0" len="12" vol="33" />
          <note key="71" pos="432" pan="0" len="24" vol="42" />
          <note key="74" pos="456" pan="0" len="12" vol="52" />
          <note key="71" pos="480" pan="0" len="24" vol="61" />
          <note key="74" pos="504" pan="0" len="12" vol="72" />
          <note key="71" pos="528" pan="0" len="24" vol="81" />
          <note key="74" pos="552" pan="0" len="24" vol="91" />
          <note key="70" pos="576" pan="0" len="24" vol="100" />
          <note key="74" pos="600" pan="0" len="12" vol="89" />
          <note key="70" pos="624" pan="0" len="24" vol="80" />
          <note key="74" pos="648" pan="0" len="12" vol="69" />
          <note key="70" pos="672" pan="0" len="24" vol="59" />
          <note key="74" pos="696" pan="0" len="12" vol="48" />
          <note key="70" pos="720" pan="0" len="24" vol="39" />
          <note key="74" pos="744" pan="0" len="12" vol="28" />
          <note key="71" pos="768" pan="0" len="24" vol="23" />
          <note key="74" pos="792" pan="0" len="12" vol="33" />
          <note key="71" pos="816" pan="0" len="24" vol="42" />
          <note key="74" pos="840" pan="0" len="12" vol="52" />
          <note key="71" pos="864" pan="0" len="24" vol="61" />
          <note key="74" pos="888" pan="0" len="12" vol="72" />
          <note key="71" pos="912" pan="0" len="24" vol="81" />
          <note key="74" pos="936" pan="0" len="24" vol="91" />
          <note key="70" pos="960" pan="0" len="24" vol="100" />
          <note key="74" pos="984" pan="0" len="12" vol="89" />
          <note key="70" pos="1008" pan="0" len="24" vol="80" />
          <note key="74" pos="1032" pan="0" len="12" vol="69" />
          <note key="70" pos="1056" pan="0" len="24" vol="59" />
          <note key="74" pos="1080" pan="0" len="12" vol="48" />
          <note key="70" pos="1104" pan="0" len="24" vol="39" />
          <note key="74" pos="1128" pan="0" len="12" vol="28" />
          <note key="71" pos="1152" pan="0" len="24" vol="23" />
          <note key="74" pos="1176" pan="0" len="12" vol="33" />
          <note key="71" pos="1200" pan="0" len="24" vol="42" />
          <note key="74" pos="1224" pan="0" len="12" vol="52" />
          <note key="71" pos="1248" pan="0" len="24" vol="61" />
          <note key="74" pos="1272" pan="0" len="12" vol="72" />
          <note key="71" pos="1296" pan="0" len="24" vol="81" />
          <note key="74" pos="1320" pan="0" len="24" vol="91" />
          <note key="70" pos="1344" pan="0" len="24" vol="100" />
          <note key="74" pos="1368" pan="0" len="12" vol="89" />
          <note key="70" pos="1392" pan="0" len="24" vol="80" />
          <note key="74" pos="1416" pan="0" len="12" vol="69" />
          <note key="70" pos="1440" pan="0" len="24" vol="59" />
          <note key="74" pos="1464" pan="0" len="12" vol="48" />
          <note key="70" pos="1488" pan="0" len="24" vol="39" />
          <note key="74" pos="1512" pan="0" len="12" vol="28" />
        </pattern>
        <pattern pos="50688" muted="0" steps="16" name="" type="1">
          <note key="71" pos="0" pan="0" len="24" vol="23" />
          <note key="74" pos="24" pan="0" len="12" vol="33" />
          <note key="71" pos="48" pan="0" len="24" vol="42" />
          <note key="74" pos="72" pan="0" len="12" vol="52" />
          <note key="71" pos="96" pan="0" len="24" vol="61" />
          <note key="74" pos="120" pan="0" len="12" vol="72" />
          <note key="71" pos="144" pan="0" len="24" vol="81" />
          <note key="74" pos="168" pan="0" len="24" vol="91" />
          <note key="70" pos="192" pan="0" len="24" vol="100" />
          <note key="74" pos="216" pan="0" len="12" vol="89" />
          <note key="70" pos="240" pan="0" len="24" vol="80" />
          <note key="74" pos="264" pan="0" len="12" vol="69" />
          <note key="70" pos="288" pan="0" len="24" vol="59" />
          <note key="74" pos="312" pan="0" len="12" vol="48" />
          <note key="70" pos="336" pan="0" len="24" vol="39" />
          <note key="74" pos="360" pan="0" len="12" vol="28" />
          <note key="71" pos="384" pan="0" len="24" vol="23" />
          <note key="74" pos="408" pan="0" len="12" vol="33" />
          <note key="71" pos="432" pan="0" len="24" vol="42" />
          <note key="74" pos="456" pan="0" len="12" vol="52" />
          <note key="71" pos="480" pan="0" len="24" vol="61" />
          <note key="74" pos="504" pan="0" len="12" vol="72" />
          <note key="71" pos="528" pan="0" len="24" vol="81" />
          <note key="74" pos="552" pan="0" len="24" vol="91" />
          <note key="70" pos="576" pan="0" len="24" vol="100" />
          <note key="74" pos="600" pan="0" len="12" vol="89" />
          <note key="70" pos="624" pan="0" len="24" vol="80" />
          <note key="74" pos="648" pan="0" len="12" vol="69" />
          <note key="70" pos="672" pan="0" len="24" vol="59" />
          <note key="74" pos="696" pan="0" len="12" vol="48" />
          <note key="70" pos="720" pan="0" len="24" vol="39" />
          <note key="74" pos="744" pan="0" len="12" vol="28" />
          <note key="71" pos="768" pan="0" len="24" vol="23" />
          <note key="74" pos="792" pan="0" len="12" vol="33" />
          <note key="71" pos="816" pan="0" len="24" vol="42" />
          <note key="74" pos="840" pan="0" len="12" vol="52" />
          <note key="71" pos="864" pan="0" len="24" vol="61" />
          <note key="74" pos="888" pan="0" len="12" vol="72" />
          <note key="71" pos="912" pan="0" len="24" vol="81" />
          <note key="74" pos="936" pan="0" len="24" vol="91" />
          <note key="70" pos="960" pan="0" len="24" vol="100" />
          <note key="74" pos="984" pan="0" len="12" vol="89" />
          <note key="70" pos="1008" pan="0" len="24" vol="80" />
          <note key="74" pos="1032" pan="0" len="12" vol="69" />
          <note key="70" pos="1056" pan="0" len="24" vol="59" />
          <note key="74" pos="1080" pan="0" len="12" vol="48" />
          <note key="70" pos="1104" pan="0" len="24" vol="39" />
          <note key="74" pos="1128" pan="0" len="12" vol="28" />
          <note key="71" pos="1152" pan="0" len="24" vol="23" />
          <note key="74" pos="1176" pan="0" len="12" vol="33" />
          <note key="71" pos="1200" pan="0" len="24" vol="42" />
          <note key="74" pos="1224" pan="0" len="12" vol="52" />
          <note key="71" pos="1248" pan="0" len="24" vol="61" />
          <note key="74" pos="1272" pan="0" len="12" vol="72" />
          <note key="71" pos="1296" pan="0" len="24" vol="81" />
          <note key="74" pos="1320" pan="0" len="24" vol="91" />
          <note key="70" pos="1344" pan="0" len="24" vol="100" />
          <note key="74" pos="1368" pan="0" len="12" vol="89" />
          <note key="70" pos="1392" pan="0" len="24" vol="80" />
          <note key="74" pos="1416" pan="0" len="12" vol="69" />
          <note key="70" pos="1440" pan="0" len="24" vol="59" />
          <note key="74" pos="1464" pan="0" len="12" vol="48" />
          <note key="70" pos="1488" pan="0" len="24" vol="39" />
          <note key="74" pos="1512" pan="0" len="12" vol="28" />
        </pattern>
        <pattern pos="53760" muted="0" steps="16" name="" type="1">
          <note key="45" pos="432" pan="0" len="96" vol="100" />
        </pattern>
        <pattern pos="57600" muted="0" steps="16" name="" type="1">
          <note key="86" pos="36" pan="0" len="12" vol="100" />
          <note key="86" pos="108" pan="0" len="12" vol="100" />
          <note key="86" pos="168" pan="0" len="12" vol="100" />
          <note key="83" pos="252" pan="0" len="12" vol="100" />
          <note key="86" pos="324" pan="0" len="12" vol="100" />
          <note key="86" pos="396" pan="0" len="12" vol="100" />
          <note key="86" pos="456" pan="0" len="12" vol="100" />
          <note key="79" pos="540" pan="0" len="12" vol="100" />
          <note key="86" pos="612" pan="0" len="12" vol="100" />
          <note key="86" pos="684" pan="0" len="12" vol="100" />
          <note key="86" pos="744" pan="0" len="12" vol="100" />
          <note key="83" pos="828" pan="0" len="12" vol="100" />
          <note key="86" pos="900" pan="0" len="12" vol="100" />
          <note key="86" pos="972" pan="0" len="12" vol="100" />
          <note key="86" pos="1032" pan="0" len="12" vol="100" />
          <note key="79" pos="1116" pan="0" len="12" vol="100" />
        </pattern>
        <pattern pos="58752" muted="0" steps="16" name="" type="1">
          <note key="79" pos="252" pan="0" len="12" vol="100" />
        </pattern>
        <pattern pos="59904" muted="0" steps="16" name="" type="1">
          <note key="86" pos="36" pan="0" len="12" vol="100" />
          <note key="86" pos="108" pan="0" len="12" vol="100" />
          <note key="84" pos="168" pan="0" len="12" vol="100" />
          <note key="83" pos="216" pan="0" len="36" vol="100" />
          <note key="84" pos="252" pan="0" len="12" vol="100" />
          <note key="86" pos="324" pan="0" len="12" vol="100" />
          <note key="86" pos="396" pan="0" len="12" vol="100" />
          <note key="88" pos="456" pan="0" len="12" vol="100" />
          <note key="83" pos="504" pan="0" len="36" vol="100" />
          <note key="84" pos="540" pan="0" len="12" vol="100" />
          <note key="86" pos="612" pan="0" len="12" vol="100" />
          <note key="86" pos="684" pan="0" len="12" vol="100" />
          <note key="88" pos="756" pan="0" len="12" vol="100" />
          <note key="84" pos="792" pan="0" len="36" vol="100" />
          <note key="88" pos="828" pan="0" len="12" vol="100" />
          <note key="83" pos="900" pan="0" len="12" vol="100" />
          <note key="83" pos="972" pan="0" len="12" vol="100" />
          <note key="83" pos="1032" pan="0" len="12" vol="100" />
          <note key="84" pos="1080" pan="0" len="24" vol="100" />
          <note key="84" pos="1104" pan="0" len="24" vol="100" />
          <note key="79" pos="1128" pan="0" len="24" vol="100" />
        </pattern>
        <pattern pos="61056" muted="0" steps="16" name="" type="1">
          <note key="86" pos="36" pan="0" len="12" vol="100" />
          <note key="86" pos="108" pan="0" len="12" vol="100" />
          <note key="86" pos="168" pan="0" len="12" vol="100" />
          <note key="83" pos="252" pan="0" len="12" vol="100" />
          <note key="86" pos="324" pan="0" len="12" vol="100" />
          <note key="86" pos="396" pan="0" len="12" vol="100" />
          <note key="86" pos="456" pan="0" len="12" vol="100" />
          <note key="79" pos="540" pan="0" len="12" vol="100" />
          <note key="86" pos="612" pan="0" len="12" vol="100" />
          <note key="86" pos="684" pan="0" len="12" vol="100" />
          <note key="86" pos="744" pan="0" len="12" vol="100" />
          <note key="83" pos="828" pan="0" len="12" vol="100" />
          <note key="86" pos="900" pan="0" len="12" vol="100" />
          <note key="86" pos="972" pan="0" len="12" vol="100" />
          <note key="86" pos="1032" pan="0" len="12" vol="100" />
          <note key="79" pos="1116" pan="0" len="12" vol="100" />
        </pattern>
        <pattern pos="62208" muted="0" steps="16" name="" type="1">
          <note key="72" pos="252" pan="0" len="12" vol="100" />
          <note key="72" pos="828" pan="0" len="12" vol="100" />
        </pattern>
        <pattern pos="63360" muted="0" steps="16" name="" type="1">
          <note key="86" pos="36" pan="0" len="12" vol="100" />
          <note key="86" pos="108" pan="0" len="12" vol="100" />
          <note key="86" pos="168" pan="0" len="12" vol="100" />
          <note key="83" pos="216" pan="0" len="36" vol="100" />
          <note key="84" pos="252" pan="0" len="12" vol="100" />
          <note key="86" pos="324" pan="0" len="12" vol="100" />
          <note key="86" pos="396" pan="0" len="12" vol="100" />
          <note key="89" pos="456" pan="0" len="12" vol="100" />
          <note key="88" pos="504" pan="0" len="36" vol="100" />
          <note key="84" pos="540" pan="0" len="12" vol="100" />
          <note key="86" pos="612" pan="0" len="12" vol="100" />
          <note key="86" pos="684" pan="0" len="12" vol="100" />
          <note key="89" pos="756" pan="0" len="12" vol="100" />
          <note key="84" pos="792" pan="0" len="36" vol="100" />
          <note key="88" pos="828" pan="0" len="12" vol="100" />
          <note key="84" pos="900" pan="0" len="12" vol="100" />
          <note key="67" pos="936" pan="0" len="12" vol="100" />
          <note key="84" pos="972" pan="0" len="12" vol="100" />
          <note key="83" pos="1032" pan="0" len="12" vol="100" />
          <note key="84" pos="1080" pan="0" len="24" vol="100" />
          <note key="84" pos="1104" pan="0" len="24" vol="100" />
          <note key="79" pos="1128" pan="0" len="24" vol="100" />
        </pattern>
        <pattern pos="64512" muted="0" steps="16" name="" type="1">
          <note key="86" pos="36" pan="0" len="12" vol="100" />
          <note key="86" pos="108" pan="0" len="12" vol="100" />
          <note key="86" pos="168" pan="0" len="12" vol="100" />
          <note key="83" pos="252" pan="0" len="12" vol="100" />
          <note key="86" pos="324" pan="0" len="12" vol="100" />
          <note key="86" pos="396" pan="0" len="12" vol="100" />
          <note key="86" pos="456" pan="0" len="12" vol="100" />
          <note key="79" pos="540" pan="0" len="12" vol="100" />
          <note key="86" pos="612" pan="0" len="12" vol="100" />
          <note key="86" pos="684" pan="0" len="12" vol="100" />
          <note key="86" pos="744" pan="0" len="12" vol="100" />
          <note key="83" pos="828" pan="0" len="12" vol="100" />
          <note key="86" pos="900" pan="0" len="12" vol="100" />
          <note key="86" pos="972" pan="0" len="12" vol="100" />
          <note key="86" pos="1032" pan="0" len="12" vol="100" />
          <note key="79" pos="1116" pan="0" len="12" vol="100" />
        </pattern>
        <pattern pos="69120" muted="0" steps="16" name="" type="1">
          <note key="88" pos="432" pan="0" len="72" vol="34" />
          <note key="86" pos="504" pan="0" len="24" vol="100" />
          <note key="79" pos="1044" pan="0" len="36" vol="100" />
          <note key="81" pos="1080" pan="0" len="24" vol="100" />
        </pattern>
        <pattern pos="71424" muted="0" steps="16" name="" type="1">
          <note key="88" pos="432" pan="0" len="72" vol="34" />
          <note key="86" pos="504" pan="0" len="24" vol="100" />
          <note key="79" pos="1044" pan="0" len="36" vol="100" />
          <note key="81" pos="1080" pan="0" len="24" vol="100" />
        </pattern>
        <pattern pos="73728" muted="0" steps="16" name="" type="1">
          <note key="84" pos="288" pan="0" len="180" vol="100" />
          <note key="84" pos="864" pan="0" len="192" vol="100" />
          <note key="84" pos="1440" pan="0" len="180" vol="100" />
        </pattern>
        <pattern pos="76032" muted="0" steps="16" name="" type="1">
          <note key="81" pos="288" pan="0" len="180" vol="100" />
          <note key="81" pos="864" pan="0" len="192" vol="100" />
          <note key="81" pos="1440" pan="0" len="180" vol="100" />
        </pattern>
        <pattern pos="80640" muted="0" steps="16" name="" type="1">
          <note key="88" pos="432" pan="0" len="72" vol="34" />
          <note key="86" pos="504" pan="0" len="24" vol="100" />
          <note key="79" pos="1044" pan="0" len="36" vol="100" />
          <note key="81" pos="1080" pan="0" len="24" vol="100" />
        </pattern>
        <pattern pos="82944" muted="0" steps="16" name="" type="1">
          <note key="88" pos="432" pan="0" len="72" vol="34" />
          <note key="86" pos="504" pan="0" len="24" vol="100" />
          <note key="79" pos="1044" pan="0" len="36" vol="100" />
          <note key="81" pos="1080" pan="0" len="24" vol="100" />
        </pattern>
        <pattern pos="85248" muted="0" steps="16" name="" type="1">
          <note key="84" pos="288" pan="0" len="180" vol="100" />
          <note key="84" pos="864" pan="0" len="192" vol="100" />
          <note key="84" pos="1440" pan="0" len="180" vol="100" />
        </pattern>
        <pattern pos="87552" muted="0" steps="16" name="" type="1">
          <note key="81" pos="288" pan="0" len="180" vol="100" />
          <note key="81" pos="864" pan="0" len="192" vol="100" />
          <note key="81" pos="1440" pan="0" len="180" vol="100" />
        </pattern>
        <pattern pos="132108" muted="0" steps="16" name="" type="1">
          <note key="70" pos="864" pan="0" len="36" vol="100" />
          <note key="74" pos="1248" pan="0" len="36" vol="100" />
        </pattern>
        <pattern pos="172812" muted="0" steps="16" name="" type="1">
          <note key="81" pos="0" pan="0" len="12" vol="100" />
          <note key="81" pos="48" pan="0" len="12" vol="100" />
          <note key="79" pos="72" pan="0" len="12" vol="100" />
          <note key="81" pos="96" pan="0" len="12" vol="100" />
          <note key="81" pos="144" pan="0" len="12" vol="100" />
          <note key="79" pos="168" pan="0" len="12" vol="100" />
          <note key="81" pos="192" pan="0" len="12" vol="100" />
          <note key="84" pos="216" pan="0" len="12" vol="100" />
          <note key="84" pos="264" pan="0" len="12" vol="100" />
          <note key="79" pos="288" pan="0" len="12" vol="100" />
          <note key="79" pos="360" pan="0" len="12" vol="100" />
          <note key="77" pos="372" pan="0" len="12" vol="100" />
          <note key="79" pos="384" pan="0" len="12" vol="100" />
          <note key="79" pos="432" pan="0" len="12" vol="100" />
          <note key="77" pos="456" pan="0" len="24" vol="100" />
          <note key="79" pos="480" pan="0" len="12" vol="100" />
          <note key="79" pos="528" pan="0" len="12" vol="100" />
          <note key="77" pos="552" pan="0" len="12" vol="100" />
          <note key="79" pos="576" pan="0" len="12" vol="100" />
          <note key="82" pos="600" pan="0" len="12" vol="100" />
          <note key="82" pos="648" pan="0" len="12" vol="100" />
          <note key="81" pos="672" pan="0" len="12" vol="100" />
          <note key="81" pos="744" pan="0" len="12" vol="100" />
          <note key="79" pos="756" pan="0" len="12" vol="100" />
          <note key="81" pos="768" pan="0" len="12" vol="100" />
          <note key="81" pos="816" pan="0" len="12" vol="100" />
          <note key="79" pos="840" pan="0" len="12" vol="100" />
          <note key="81" pos="864" pan="0" len="12" vol="100" />
          <note key="81" pos="912" pan="0" len="12" vol="100" />
          <note key="79" pos="936" pan="0" len="12" vol="100" />
          <note key="81" pos="960" pan="0" len="12" vol="100" />
          <note key="84" pos="984" pan="0" len="12" vol="100" />
          <note key="84" pos="1032" pan="0" len="12" vol="100" />
          <note key="79" pos="1056" pan="0" len="12" vol="100" />
          <note key="79" pos="1128" pan="0" len="12" vol="100" />
          <note key="77" pos="1140" pan="0" len="12" vol="100" />
          <note key="79" pos="1152" pan="0" len="12" vol="100" />
          <note key="79" pos="1200" pan="0" len="12" vol="100" />
          <note key="77" pos="1224" pan="0" len="24" vol="100" />
          <note key="79" pos="1248" pan="0" len="12" vol="100" />
          <note key="79" pos="1296" pan="0" len="12" vol="100" />
          <note key="77" pos="1320" pan="0" len="12" vol="100" />
          <note key="79" pos="1344" pan="0" len="12" vol="100" />
          <note key="82" pos="1368" pan="0" len="12" vol="100" />
          <note key="82" pos="1416" pan="0" len="12" vol="100" />
          <note key="77" pos="1440" pan="0" len="12" vol="100" />
          <note key="81" pos="1512" pan="0" len="12" vol="100" />
          <note key="79" pos="1524" pan="0" len="12" vol="100" />
        </pattern>
        <pattern pos="178188" muted="0" steps="16" name="" type="1">
          <note key="48" pos="0" pan="0" len="144" vol="100" />
          <note key="50" pos="144" pan="0" len="48" vol="100" />
          <note key="51" pos="192" pan="0" len="144" vol="100" />
          <note key="53" pos="336" pan="0" len="48" vol="100" />
          <note key="55" pos="384" pan="0" len="144" vol="100" />
          <note key="57" pos="528" pan="0" len="48" vol="100" />
          <note key="53" pos="576" pan="0" len="192" vol="100" />
        </pattern>
        <pattern pos="178956" muted="0" steps="16" name="" type="1">
          <note key="74" pos="0" pan="0" len="24" vol="100" />
          <note key="71" pos="24" pan="0" len="36" vol="100" />
          <note key="71" pos="72" pan="0" len="24" vol="100" />
          <note key="69" pos="120" pan="0" len="24" vol="100" />
          <note key="71" pos="144" pan="0" len="72" vol="100" />
          <note key="73" pos="240" pan="0" len="24" vol="100" />
          <note key="71" pos="264" pan="0" len="24" vol="100" />
          <note key="69" pos="288" pan="0" len="12" vol="100" />
          <note key="74" pos="312" pan="0" len="36" vol="100" />
          <note key="76" pos="360" pan="0" len="48" vol="100" />
          <note key="78" pos="408" pan="0" len="24" vol="100" />
          <note key="76" pos="432" pan="0" len="36" vol="100" />
          <note key="78" pos="528" pan="0" len="24" vol="100" />
          <note key="76" pos="552" pan="0" len="24" vol="100" />
          <note key="74" pos="576" pan="0" len="24" vol="100" />
          <note key="71" pos="600" pan="0" len="36" vol="100" />
          <note key="71" pos="648" pan="0" len="24" vol="100" />
          <note key="69" pos="696" pan="0" len="24" vol="100" />
          <note key="71" pos="720" pan="0" len="84" vol="100" />
          <note key="73" pos="816" pan="0" len="24" vol="100" />
          <note key="71" pos="840" pan="0" len="24" vol="100" />
          <note key="69" pos="864" pan="0" len="24" vol="100" />
          <note key="74" pos="888" pan="0" len="24" vol="100" />
          <note key="76" pos="936" pan="0" len="24" vol="100" />
          <note key="78" pos="984" pan="0" len="24" vol="100" />
          <note key="76" pos="1008" pan="0" len="72" vol="100" />
          <note key="78" pos="1104" pan="0" len="24" vol="100" />
          <note key="81" pos="1128" pan="0" len="24" vol="100" />
          <note key="83" pos="1152" pan="0" len="24" vol="100" />
          <note key="83" pos="1200" pan="0" len="12" vol="100" />
          <note key="83" pos="1224" pan="0" len="12" vol="100" />
          <note key="81" pos="1272" pan="0" len="12" vol="100" />
          <note key="83" pos="1296" pan="0" len="24" vol="100" />
          <note key="83" pos="1344" pan="0" len="24" vol="100" />
          <note key="81" pos="1368" pan="0" len="24" vol="100" />
          <note key="78" pos="1416" pan="0" len="24" vol="100" />
          <note key="81" pos="1440" pan="0" len="24" vol="100" />
          <note key="81" pos="1488" pan="0" len="24" vol="100" />
          <note key="83" pos="1536" pan="0" len="24" vol="100" />
          <note key="81" pos="1560" pan="0" len="24" vol="100" />
          <note key="83" pos="1584" pan="0" len="12" vol="100" />
          <note key="86" pos="1680" pan="0" len="24" vol="100" />
          <note key="85" pos="1704" pan="0" len="24" vol="100" />
          <note key="83" pos="1728" pan="0" len="24" vol="100" />
          <note key="83" pos="1776" pan="0" len="24" vol="100" />
          <note key="83" pos="1800" pan="0" len="48" vol="100" />
          <note key="81" pos="1848" pan="0" len="24" vol="100" />
          <note key="83" pos="1872" pan="0" len="48" vol="100" />
          <note key="83" pos="1920" pan="0" len="12" vol="100" />
          <note key="81" pos="1944" pan="0" len="12" vol="100" />
          <note key="78" pos="1992" pan="0" len="24" vol="100" />
          <note key="76" pos="2016" pan="0" len="12" vol="100" />
          <note key="76" pos="2064" pan="0" len="24" vol="100" />
          <note key="78" pos="2088" pan="0" len="12" vol="100" />
          <note key="74" pos="2136" pan="0" len="24" vol="100" />
          <note key="76" pos="2160" pan="0" len="12" vol="100" />
          <note key="76" pos="2208" pan="0" len="12" vol="100" />
          <note key="74" pos="2256" pan="0" len="24" vol="100" />
          <note key="73" pos="2280" pan="0" len="24" vol="100" />
          <note key="71" pos="2304" pan="0" len="96" vol="100" />
          <note key="73" pos="2448" pan="0" len="24" vol="100" />
          <note key="69" pos="2472" pan="0" len="24" vol="100" />
          <note key="71" pos="2496" pan="0" len="576" vol="100" />
        </pattern>
        <pattern pos="182028" muted="0" steps="16" name="" type="1">
          <note key="81" pos="48" pan="0" len="24" vol="100" />
          <note key="79" pos="192" pan="0" len="24" vol="100" />
          <note key="77" pos="336" pan="0" len="24" vol="100" />
          <note key="75" pos="480" pan="0" len="24" vol="100" />
          <note key="81" pos="624" pan="0" len="24" vol="100" />
          <note key="79" pos="768" pan="0" len="24" vol="100" />
          <note key="77" pos="912" pan="0" len="24" vol="100" />
          <note key="75" pos="1056" pan="0" len="24" vol="100" />
        </pattern>
        <pattern pos="184332" muted="0" steps="16" name="" type="1">
          <note key="50" pos="0" pan="0" len="12" vol="100" />
          <note key="74" pos="24" pan="0" len="12" vol="100" />
          <note key="77" pos="48" pan="0" len="12" vol="100" />
          <note key="50" pos="72" pan="0" len="12" vol="100" />
          <note key="76" pos="96" pan="0" len="12" vol="100" />
          <note key="50" pos="120" pan="0" len="12" vol="100" />
          <note key="74" pos="144" pan="0" len="12" vol="100" />
          <note key="50" pos="168" pan="0" len="12" vol="100" />
          <note key="72" pos="192" pan="0" len="12" vol="100" />
          <note key="53" pos="216" pan="0" len="12" vol="100" />
          <note key="71" pos="240" pan="0" len="12" vol="100" />
          <note key="53" pos="264" pan="0" len="12" vol="100" />
          <note key="69" pos="288" pan="0" len="12" vol="100" />
          <note key="53" pos="312" pan="0" len="12" vol="100" />
          <note key="72" pos="336" pan="0" len="12" vol="100" />
          <note key="53" pos="360" pan="0" len="12" vol="100" />
          <note key="76" pos="384" pan="0" len="12" vol="100" />
          <note key="57" pos="408" pan="0" len="12" vol="100" />
          <note key="72" pos="432" pan="0" len="12" vol="100" />
          <note key="57" pos="456" pan="0" len="12" vol="100" />
          <note key="76" pos="480" pan="0" len="12" vol="100" />
          <note key="57" pos="504" pan="0" len="12" vol="100" />
          <note key="72" pos="528" pan="0" len="12" vol="100" />
          <note key="57" pos="552" pan="0" len="12" vol="100" />
          <note key="71" pos="576" pan="0" len="12" vol="100" />
          <note key="55" pos="600" pan="0" len="12" vol="100" />
          <note key="69" pos="624" pan="0" len="12" vol="100" />
          <note key="55" pos="648" pan="0" len="12" vol="100" />
          <note key="67" pos="672" pan="0" len="12" vol="100" />
          <note key="55" pos="696" pan="0" len="12" vol="100" />
          <note key="71" pos="720" pan="0" len="12" vol="100" />
          <note key="55" pos="744" pan="0" len="12" vol="100" />
        </pattern>
        <pattern pos="185100" muted="0" steps="16" name="" type="1">
          <note key="45" pos="0" pan="0" len="12" vol="100" />
          <note key="69" pos="48" pan="0" len="12" vol="100" />
          <note key="45" pos="72" pan="0" len="12" vol="100" />
          <note key="55" pos="120" pan="0" len="24" vol="100" />
          <note key="59" pos="144" pan="0" len="24" vol="100" />
          <note key="67" pos="168" pan="0" len="24" vol="100" />
          <note key="45" pos="192" pan="0" len="12" vol="100" />
          <note key="45" pos="264" pan="0" len="12" vol="100" />
          <note key="60" pos="312" pan="0" len="24" vol="100" />
          <note key="62" pos="336" pan="0" len="24" vol="100" />
          <note key="59" pos="360" pan="0" len="24" vol="100" />
          <note key="45" pos="384" pan="0" len="12" vol="100" />
          <note key="69" pos="432" pan="0" len="12" vol="100" />
          <note key="45" pos="456" pan="0" len="12" vol="100" />
          <note key="55" pos="504" pan="0" len="24" vol="100" />
          <note key="59" pos="528" pan="0" len="24" vol="100" />
          <note key="67" pos="552" pan="0" len="24" vol="100" />
          <note key="45" pos="576" pan="0" len="12" vol="100" />
          <note key="45" pos="648" pan="0" len="12" vol="100" />
          <note key="60" pos="696" pan="0" len="24" vol="100" />
          <note key="62" pos="720" pan="0" len="24" vol="100" />
          <note key="59" pos="744" pan="0" len="24" vol="100" />
          <note key="45" pos="768" pan="0" len="12" vol="100" />
          <note key="69" pos="816" pan="0" len="12" vol="100" />
          <note key="45" pos="840" pan="0" len="12" vol="100" />
          <note key="55" pos="888" pan="0" len="24" vol="100" />
          <note key="59" pos="912" pan="0" len="24" vol="100" />
          <note key="67" pos="936" pan="0" len="24" vol="100" />
          <note key="45" pos="960" pan="0" len="12" vol="100" />
          <note key="45" pos="1032" pan="0" len="12" vol="100" />
          <note key="60" pos="1080" pan="0" len="24" vol="100" />
          <note key="62" pos="1104" pan="0" len="24" vol="100" />
          <note key="59" pos="1128" pan="0" len="24" vol="100" />
          <note key="45" pos="1152" pan="0" len="12" vol="100" />
          <note key="69" pos="1200" pan="0" len="12" vol="100" />
          <note key="45" pos="1224" pan="0" len="12" vol="100" />
          <note key="55" pos="1272" pan="0" len="24" vol="100" />
          <note key="59" pos="1296" pan="0" len="24" vol="100" />
          <note key="67" pos="1320" pan="0" len="24" vol="100" />
          <note key="45" pos="1344" pan="0" len="12" vol="100" />
          <note key="45" pos="1416" pan="0" len="12" vol="100" />
          <note key="60" pos="1464" pan="0" len="24" vol="100" />
          <note key="62" pos="1488" pan="0" len="24" vol="100" />
          <note key="59" pos="1512" pan="0" len="24" vol="100" />
        </pattern>
        <pattern pos="188172" muted="0" steps="16" name="" type="1">
          <note key="52" pos="0" pan="0" len="12" vol="100" />
          <note key="43" pos="192" pan="0" len="12" vol="100" />
          <note key="45" pos="384" pan="0" len="12" vol="100" />
          <note key="50" pos="576" pan="0" len="12" vol="100" />
          <note key="55" pos="672" pan="0" len="12" vol="100" />
          <note key="52" pos="768" pan="0" len="12" vol="100" />
          <note key="43" pos="960" pan="0" len="12" vol="100" />
          <note key="45" pos="1152" pan="0" len="12" vol="100" />
          <note key="50" pos="1344" pan="0" len="12" vol="100" />
          <note key="55" pos="1440" pan="0" len="12" vol="100" />
        </pattern>
        <pattern pos="189708" muted="0" steps="16" name="" type="1">
          <note key="52" pos="0" pan="0" len="12" vol="100" />
          <note key="43" pos="192" pan="0" len="12" vol="100" />
          <note key="45" pos="384" pan="0" len="12" vol="100" />
          <note key="50" pos="576" pan="0" len="12" vol="100" />
          <note key="55" pos="672" pan="0" len="12" vol="100" />
          <note key="52" pos="768" pan="0" len="12" vol="100" />
          <note key="43" pos="960" pan="0" len="12" vol="100" />
          <note key="45" pos="1152" pan="0" len="12" vol="100" />
          <note key="50" pos="1344" pan="0" len="12" vol="100" />
          <note key="55" pos="1440" pan="0" len="12" vol="100" />
        </pattern>
        <pattern pos="191244" muted="0" steps="16" name="" type="1">
          <note key="47" pos="0" pan="0" len="24" vol="100" />
          <note key="49" pos="72" pan="0" len="24" vol="100" />
          <note key="50" pos="144" pan="0" len="24" vol="100" />
          <note key="40" pos="192" pan="0" len="36" vol="100" />
          <note key="45" pos="384" pan="0" len="24" vol="100" />
          <note key="47" pos="456" pan="0" len="24" vol="100" />
          <note key="43" pos="528" pan="0" len="24" vol="100" />
          <note key="40" pos="576" pan="0" len="24" vol="100" />
          <note key="47" pos="768" pan="0" len="24" vol="100" />
          <note key="49" pos="840" pan="0" len="24" vol="100" />
          <note key="50" pos="912" pan="0" len="24" vol="100" />
          <note key="40" pos="960" pan="0" len="36" vol="100" />
          <note key="45" pos="1152" pan="0" len="24" vol="100" />
          <note key="47" pos="1224" pan="0" len="24" vol="100" />
          <note key="43" pos="1296" pan="0" len="24" vol="100" />
          <note key="40" pos="1344" pan="0" len="24" vol="100" />
        </pattern>
        <pattern pos="194316" muted="0" steps="16" name="" type="1">
          <note key="52" pos="0" pan="0" len="12" vol="100" />
          <note key="43" pos="192" pan="0" len="12" vol="100" />
          <note key="45" pos="384" pan="0" len="12" vol="100" />
          <note key="50" pos="576" pan="0" len="12" vol="100" />
          <note key="55" pos="672" pan="0" len="12" vol="100" />
          <note key="52" pos="768" pan="0" len="12" vol="100" />
          <note key="43" pos="960" pan="0" len="12" vol="100" />
          <note key="45" pos="1152" pan="0" len="12" vol="100" />
          <note key="50" pos="1344" pan="0" len="12" vol="100" />
          <note key="55" pos="1440" pan="0" len="12" vol="100" />
        </pattern>
        <pattern pos="195852" muted="0" steps="16" name="" type="1">
          <note key="47" pos="0" pan="0" len="24" vol="100" />
          <note key="49" pos="72" pan="0" len="24" vol="100" />
          <note key="50" pos="144" pan="0" len="24" vol="100" />
          <note key="40" pos="192" pan="0" len="36" vol="100" />
          <note key="45" pos="384" pan="0" len="24" vol="100" />
          <note key="47" pos="456" pan="0" len="24" vol="100" />
          <note key="43" pos="528" pan="0" len="24" vol="100" />
          <note key="40" pos="576" pan="0" len="24" vol="100" />
          <note key="47" pos="768" pan="0" len="24" vol="100" />
          <note key="49" pos="840" pan="0" len="24" vol="100" />
          <note key="50" pos="912" pan="0" len="24" vol="100" />
          <note key="40" pos="960" pan="0" len="36" vol="100" />
          <note key="45" pos="1152" pan="0" len="24" vol="100" />
          <note key="47" pos="1224" pan="0" len="24" vol="100" />
          <note key="43" pos="1296" pan="0" len="24" vol="100" />
          <note key="40" pos="1344" pan="0" len="24" vol="100" />
        </pattern>
        <pattern pos="200460" muted="0" steps="16" name="" type="1">
          <note key="47" pos="0" pan="0" len="24" vol="100" />
          <note key="49" pos="72" pan="0" len="24" vol="100" />
          <note key="50" pos="144" pan="0" len="24" vol="100" />
          <note key="40" pos="192" pan="0" len="72" vol="100" />
        </pattern>
        <pattern pos="203532" muted="0" steps="16" name="" type="1">
          <note key="84" pos="1176" pan="0" len="12" vol="100" />
          <note key="86" pos="1200" pan="0" len="12" vol="100" />
          <note key="87" pos="1224" pan="0" len="12" vol="100" />
          <note key="84" pos="1272" pan="0" len="12" vol="100" />
          <note key="86" pos="1296" pan="0" len="12" vol="100" />
          <note key="91" pos="1320" pan="0" len="12" vol="100" />
          <note key="84" pos="1368" pan="0" len="12" vol="100" />
          <note key="86" pos="1392" pan="0" len="12" vol="100" />
          <note key="87" pos="1416" pan="0" len="12" vol="100" />
          <note key="84" pos="1464" pan="0" len="12" vol="100" />
          <note key="86" pos="1488" pan="0" len="12" vol="100" />
          <note key="91" pos="1512" pan="0" len="12" vol="100" />
        </pattern>
        <pattern pos="205068" muted="0" steps="16" name="" type="1">
          <note key="84" pos="24" pan="0" len="12" vol="100" />
          <note key="86" pos="48" pan="0" len="12" vol="100" />
          <note key="87" pos="72" pan="0" len="12" vol="100" />
          <note key="87" pos="120" pan="0" len="12" vol="100" />
          <note key="86" pos="144" pan="0" len="12" vol="100" />
          <note key="82" pos="168" pan="0" len="12" vol="100" />
          <note key="84" pos="216" pan="0" len="12" vol="100" />
          <note key="86" pos="240" pan="0" len="12" vol="100" />
          <note key="87" pos="264" pan="0" len="12" vol="100" />
          <note key="87" pos="312" pan="0" len="12" vol="100" />
          <note key="86" pos="336" pan="0" len="12" vol="100" />
          <note key="82" pos="360" pan="0" len="12" vol="100" />
          <note key="79" pos="408" pan="0" len="12" vol="100" />
          <note key="81" pos="432" pan="0" len="12" vol="100" />
          <note key="82" pos="456" pan="0" len="12" vol="100" />
          <note key="79" pos="600" pan="0" len="12" vol="100" />
          <note key="81" pos="624" pan="0" len="12" vol="100" />
          <note key="82" pos="648" pan="0" len="12" vol="100" />
          <note key="77" pos="792" pan="0" len="12" vol="100" />
          <note key="79" pos="816" pan="0" len="12" vol="100" />
          <note key="80" pos="840" pan="0" len="12" vol="100" />
          <note key="80" pos="888" pan="0" len="12" vol="100" />
          <note key="79" pos="912" pan="0" len="12" vol="100" />
          <note key="75" pos="936" pan="0" len="12" vol="100" />
          <note key="77" pos="984" pan="0" len="12" vol="100" />
          <note key="79" pos="1008" pan="0" len="12" vol="100" />
          <note key="80" pos="1032" pan="0" len="12" vol="100" />
          <note key="80" pos="1080" pan="0" len="12" vol="100" />
          <note key="79" pos="1104" pan="0" len="12" vol="100" />
          <note key="75" pos="1128" pan="0" len="12" vol="100" />
          <note key="84" pos="1176" pan="0" len="12" vol="100" />
          <note key="86" pos="1200" pan="0" len="12" vol="100" />
          <note key="89" pos="1224" pan="0" len="12" vol="100" />
          <note key="87" pos="1272" pan="0" len="12" vol="100" />
          <note key="86" pos="1296" pan="0" len="12" vol="100" />
          <note key="82" pos="1320" pan="0" len="12" vol="100" />
          <note key="84" pos="1368" pan="0" len="12" vol="100" />
          <note key="86" pos="1392" pan="0" len="12" vol="100" />
          <note key="87" pos="1416" pan="0" len="12" vol="100" />
          <note key="87" pos="1464" pan="0" len="12" vol="100" />
          <note key="86" pos="1488" pan="0" len="12" vol="100" />
          <note key="82" pos="1512" pan="0" len="12" vol="100" />
        </pattern>
        <pattern pos="206604" muted="0" steps="16" name="" type="1">
          <note key="84" pos="24" pan="0" len="12" vol="100" />
          <note key="86" pos="48" pan="0" len="12" vol="100" />
          <note key="87" pos="72" pan="0" len="12" vol="100" />
          <note key="87" pos="120" pan="0" len="12" vol="100" />
          <note key="86" pos="144" pan="0" len="12" vol="100" />
          <note key="82" pos="168" pan="0" len="12" vol="100" />
          <note key="84" pos="216" pan="0" len="12" vol="100" />
          <note key="86" pos="240" pan="0" len="12" vol="100" />
          <note key="87" pos="264" pan="0" len="12" vol="100" />
          <note key="87" pos="312" pan="0" len="12" vol="100" />
          <note key="86" pos="336" pan="0" len="12" vol="100" />
          <note key="82" pos="360" pan="0" len="12" vol="100" />
          <note key="79" pos="408" pan="0" len="12" vol="100" />
          <note key="81" pos="432" pan="0" len="12" vol="100" />
          <note key="82" pos="456" pan="0" len="12" vol="100" />
          <note key="79" pos="600" pan="0" len="12" vol="100" />
          <note key="81" pos="624" pan="0" len="12" vol="100" />
          <note key="82" pos="648" pan="0" len="12" vol="100" />
          <note key="77" pos="792" pan="0" len="12" vol="100" />
          <note key="79" pos="816" pan="0" len="12" vol="100" />
          <note key="80" pos="840" pan="0" len="12" vol="100" />
          <note key="80" pos="888" pan="0" len="12" vol="100" />
          <note key="79" pos="912" pan="0" len="12" vol="100" />
          <note key="75" pos="936" pan="0" len="12" vol="100" />
          <note key="77" pos="984" pan="0" len="12" vol="100" />
          <note key="79" pos="1008" pan="0" len="12" vol="100" />
          <note key="80" pos="1032" pan="0" len="12" vol="100" />
          <note key="80" pos="1080" pan="0" len="12" vol="100" />
          <note key="79" pos="1104" pan="0" len="12" vol="100" />
          <note key="75" pos="1128" pan="0" len="12" vol="100" />
          <note key="84" pos="1176" pan="0" len="12" vol="100" />
          <note key="86" pos="1200" pan="0" len="12" vol="100" />
          <note key="89" pos="1224" pan="0" len="12" vol="100" />
          <note key="87" pos="1272" pan="0" len="12" vol="100" />
          <note key="86" pos="1296" pan="0" len="12" vol="100" />
          <note key="82" pos="1320" pan="0" len="12" vol="100" />
          <note key="84" pos="1368" pan="0" len="12" vol="100" />
          <note key="86" pos="1392" pan="0" len="12" vol="100" />
          <note key="87" pos="1416" pan="0" len="12" vol="100" />
          <note key="87" pos="1464" pan="0" len="12" vol="100" />
          <note key="86" pos="1488" pan="0" len="12" vol="100" />
          <note key="82" pos="1512" pan="0" len="12" vol="100" />
        </pattern>
        <pattern pos="208140" muted="0" steps="16" name="" type="1">
          <note key="87" pos="24" pan="0" len="12" vol="100" />
          <note key="89" pos="48" pan="0" len="12" vol="100" />
          <note key="91" pos="72" pan="0" len="12" vol="100" />
          <note key="91" pos="120" pan="0" len="12" vol="100" />
          <note key="89" pos="144" pan="0" len="12" vol="100" />
          <note key="87" pos="168" pan="0" len="12" vol="100" />
          <note key="87" pos="216" pan="0" len="12" vol="100" />
          <note key="89" pos="240" pan="0" len="12" vol="100" />
          <note key="91" pos="264" pan="0" len="12" vol="100" />
          <note key="91" pos="312" pan="0" len="12" vol="100" />
          <note key="89" pos="336" pan="0" len="12" vol="100" />
          <note key="87" pos="360" pan="0" len="12" vol="100" />
          <note key="79" pos="408" pan="0" len="12" vol="100" />
          <note key="81" pos="432" pan="0" len="12" vol="100" />
          <note key="82" pos="456" pan="0" len="12" vol="100" />
          <note key="79" pos="600" pan="0" len="12" vol="100" />
          <note key="81" pos="624" pan="0" len="12" vol="100" />
          <note key="82" pos="648" pan="0" len="12" vol="100" />
          <note key="94" pos="696" pan="0" len="12" vol="100" />
          <note key="93" pos="720" pan="0" len="12" vol="100" />
          <note key="91" pos="744" pan="0" len="12" vol="100" />
          <note key="84" pos="792" pan="0" len="12" vol="100" />
          <note key="86" pos="816" pan="0" len="12" vol="100" />
          <note key="87" pos="840" pan="0" len="12" vol="100" />
          <note key="87" pos="888" pan="0" len="12" vol="100" />
          <note key="86" pos="912" pan="0" len="12" vol="100" />
          <note key="82" pos="936" pan="0" len="12" vol="100" />
          <note key="84" pos="984" pan="0" len="12" vol="100" />
          <note key="86" pos="1008" pan="0" len="12" vol="100" />
          <note key="87" pos="1032" pan="0" len="12" vol="100" />
          <note key="87" pos="1080" pan="0" len="12" vol="100" />
          <note key="86" pos="1104" pan="0" len="12" vol="100" />
          <note key="82" pos="1128" pan="0" len="12" vol="100" />
          <note key="80" pos="1176" pan="0" len="12" vol="100" />
          <note key="82" pos="1200" pan="0" len="12" vol="100" />
          <note key="84" pos="1224" pan="0" len="12" vol="100" />
          <note key="84" pos="1272" pan="0" len="12" vol="100" />
          <note key="82" pos="1296" pan="0" len="12" vol="100" />
          <note key="80" pos="1320" pan="0" len="12" vol="100" />
          <note key="80" pos="1368" pan="0" len="12" vol="100" />
          <note key="82" pos="1392" pan="0" len="12" vol="100" />
          <note key="84" pos="1416" pan="0" len="12" vol="100" />
          <note key="84" pos="1464" pan="0" len="12" vol="100" />
          <note key="82" pos="1488" pan="0" len="12" vol="100" />
          <note key="80" pos="1512" pan="0" len="12" vol="100" />
        </pattern>
        <pattern pos="209676" muted="0" steps="16" name="" type="1">
          <note key="87" pos="24" pan="0" len="12" vol="100" />
          <note key="89" pos="48" pan="0" len="12" vol="100" />
          <note key="91" pos="72" pan="0" len="12" vol="100" />
          <note key="91" pos="120" pan="0" len="12" vol="100" />
          <note key="89" pos="144" pan="0" len="12" vol="100" />
          <note key="87" pos="168" pan="0" len="12" vol="100" />
          <note key="87" pos="216" pan="0" len="12" vol="100" />
          <note key="89" pos="240" pan="0" len="12" vol="100" />
          <note key="91" pos="264" pan="0" len="12" vol="100" />
          <note key="91" pos="312" pan="0" len="12" vol="100" />
          <note key="89" pos="336" pan="0" len="12" vol="100" />
          <note key="87" pos="360" pan="0" len="12" vol="100" />
          <note key="79" pos="408" pan="0" len="12" vol="100" />
          <note key="81" pos="432" pan="0" len="12" vol="100" />
          <note key="82" pos="456" pan="0" len="12" vol="100" />
          <note key="79" pos="600" pan="0" len="12" vol="100" />
          <note key="81" pos="624" pan="0" len="12" vol="100" />
          <note key="82" pos="648" pan="0" len="12" vol="100" />
          <note key="94" pos="696" pan="0" len="12" vol="100" />
          <note key="93" pos="720" pan="0" len="12" vol="100" />
          <note key="91" pos="744" pan="0" len="12" vol="100" />
          <note key="84" pos="792" pan="0" len="12" vol="100" />
          <note key="86" pos="816" pan="0" len="12" vol="100" />
          <note key="87" pos="840" pan="0" len="12" vol="100" />
          <note key="87" pos="888" pan="0" len="12" vol="100" />
          <note key="86" pos="912" pan="0" len="12" vol="100" />
          <note key="82" pos="936" pan="0" len="12" vol="100" />
          <note key="84" pos="984" pan="0" len="12" vol="100" />
          <note key="86" pos="1008" pan="0" len="12" vol="100" />
          <note key="87" pos="1032" pan="0" len="12" vol="100" />
          <note key="87" pos="1080" pan="0" len="12" vol="100" />
          <note key="86" pos="1104" pan="0" len="12" vol="100" />
          <note key="82" pos="1128" pan="0" len="12" vol="100" />
          <note key="80" pos="1176" pan="0" len="12" vol="100" />
          <note key="82" pos="1200" pan="0" len="12" vol="100" />
          <note key="84" pos="1224" pan="0" len="12" vol="100" />
          <note key="84" pos="1272" pan="0" len="12" vol="100" />
          <note key="82" pos="1296" pan="0" len="12" vol="100" />
          <note key="80" pos="1320" pan="0" len="12" vol="100" />
          <note key="80" pos="1368" pan="0" len="12" vol="100" />
          <note key="82" pos="1392" pan="0" len="12" vol="100" />
          <note key="84" pos="1416" pan="0" len="12" vol="100" />
          <note key="84" pos="1464" pan="0" len="12" vol="100" />
          <note key="82" pos="1488" pan="0" len="12" vol="100" />
          <note key="80" pos="1512" pan="0" len="12" vol="100" />
        </pattern>
        <pattern pos="211212" muted="0" steps="16" name="" type="1">
          <note key="84" pos="792" pan="0" len="12" vol="100" />
          <note key="86" pos="816" pan="0" len="12" vol="100" />
          <note key="87" pos="840" pan="0" len="12" vol="100" />
          <note key="87" pos="888" pan="0" len="12" vol="100" />
          <note key="86" pos="912" pan="0" len="12" vol="100" />
          <note key="82" pos="936" pan="0" len="12" vol="100" />
          <note key="84" pos="984" pan="0" len="12" vol="100" />
          <note key="86" pos="1008" pan="0" len="12" vol="100" />
          <note key="87" pos="1032" pan="0" len="12" vol="100" />
          <note key="87" pos="1080" pan="0" len="12" vol="100" />
          <note key="86" pos="1104" pan="0" len="12" vol="100" />
          <note key="82" pos="1128" pan="0" len="12" vol="100" />
          <note key="84" pos="1176" pan="0" len="12" vol="100" />
          <note key="86" pos="1200" pan="0" len="12" vol="100" />
          <note key="87" pos="1224" pan="0" len="12" vol="100" />
          <note key="87" pos="1272" pan="0" len="12" vol="100" />
          <note key="86" pos="1296" pan="0" len="12" vol="100" />
          <note key="82" pos="1320" pan="0" len="12" vol="100" />
          <note key="84" pos="1368" pan="0" len="12" vol="100" />
          <note key="86" pos="1392" pan="0" len="12" vol="100" />
          <note key="87" pos="1416" pan="0" len="12" vol="100" />
          <note key="87" pos="1464" pan="0" len="12" vol="100" />
          <note key="86" pos="1488" pan="0" len="12" vol="100" />
          <note key="82" pos="1512" pan="0" len="12" vol="100" />
        </pattern>
        <pattern pos="212748" muted="0" steps="16" name="" type="1">
          <note key="84" pos="24" pan="0" len="12" vol="100" />
          <note key="86" pos="48" pan="0" len="12" vol="100" />
          <note key="87" pos="72" pan="0" len="12" vol="100" />
          <note key="87" pos="120" pan="0" len="12" vol="100" />
          <note key="86" pos="144" pan="0" len="12" vol="100" />
          <note key="82" pos="168" pan="0" len="12" vol="100" />
          <note key="84" pos="216" pan="0" len="12" vol="100" />
          <note key="86" pos="240" pan="0" len="12" vol="100" />
          <note key="87" pos="264" pan="0" len="12" vol="100" />
          <note key="87" pos="312" pan="0" len="12" vol="100" />
          <note key="86" pos="336" pan="0" len="12" vol="100" />
          <note key="82" pos="360" pan="0" len="12" vol="100" />
          <note key="79" pos="408" pan="0" len="12" vol="100" />
          <note key="81" pos="432" pan="0" len="12" vol="100" />
          <note key="82" pos="456" pan="0" len="12" vol="100" />
          <note key="79" pos="600" pan="0" len="12" vol="100" />
          <note key="81" pos="624" pan="0" len="12" vol="100" />
          <note key="82" pos="648" pan="0" len="12" vol="100" />
          <note key="77" pos="792" pan="0" len="12" vol="100" />
          <note key="79" pos="816" pan="0" len="12" vol="100" />
          <note key="80" pos="840" pan="0" len="12" vol="100" />
          <note key="80" pos="888" pan="0" len="12" vol="100" />
          <note key="79" pos="912" pan="0" len="12" vol="100" />
          <note key="75" pos="936" pan="0" len="12" vol="100" />
          <note key="77" pos="984" pan="0" len="12" vol="100" />
          <note key="79" pos="1008" pan="0" len="12" vol="100" />
          <note key="80" pos="1032" pan="0" len="12" vol="100" />
          <note key="80" pos="1080" pan="0" len="12" vol="100" />
          <note key="79" pos="1104" pan="0" len="12" vol="100" />
          <note key="75" pos="1128" pan="0" len="12" vol="100" />
          <note key="84" pos="1176" pan="0" len="12" vol="100" />
          <note key="86" pos="1200" pan="0" len="12" vol="100" />
          <note key="89" pos="1224" pan="0" len="12" vol="100" />
          <note key="87" pos="1272" pan="0" len="12" vol="100" />
          <note key="86" pos="1296" pan="0" len="12" vol="100" />
          <note key="82" pos="1320" pan="0" len="12" vol="100" />
          <note key="84" pos="1368" pan="0" len="12" vol="100" />
          <note key="86" pos="1392" pan="0" len="12" vol="100" />
          <note key="87" pos="1416" pan="0" len="12" vol="100" />
          <note key="87" pos="1464" pan="0" len="12" vol="100" />
          <note key="86" pos="1488" pan="0" len="12" vol="100" />
          <note key="82" pos="1512" pan="0" len="12" vol="100" />
        </pattern>
        <pattern pos="214284" muted="0" steps="16" name="" type="1">
          <note key="84" pos="24" pan="0" len="12" vol="100" />
          <note key="86" pos="48" pan="0" len="12" vol="100" />
          <note key="87" pos="72" pan="0" len="12" vol="100" />
          <note key="87" pos="120" pan="0" len="12" vol="100" />
          <note key="86" pos="144" pan="0" len="12" vol="100" />
          <note key="82" pos="168" pan="0" len="12" vol="100" />
          <note key="84" pos="216" pan="0" len="12" vol="100" />
          <note key="86" pos="240" pan="0" len="12" vol="100" />
          <note key="87" pos="264" pan="0" len="12" vol="100" />
          <note key="87" pos="312" pan="0" len="12" vol="100" />
          <note key="86" pos="336" pan="0" len="12" vol="100" />
          <note key="82" pos="360" pan="0" len="12" vol="100" />
          <note key="79" pos="408" pan="0" len="12" vol="100" />
          <note key="81" pos="432" pan="0" len="12" vol="100" />
          <note key="82" pos="456" pan="0" len="12" vol="100" />
          <note key="79" pos="600" pan="0" len="12" vol="100" />
          <note key="81" pos="624" pan="0" len="12" vol="100" />
          <note key="82" pos="648" pan="0" len="12" vol="100" />
          <note key="77" pos="792" pan="0" len="12" vol="100" />
          <note key="79" pos="816" pan="0" len="12" vol="100" />
          <note key="80" pos="840" pan="0" len="12" vol="100" />
          <note key="80" pos="888" pan="0" len="12" vol="100" />
          <note key="79" pos="912" pan="0" len="12" vol="100" />
          <note key="75" pos="936" pan="0" len="12" vol="100" />
          <note key="77" pos="984" pan="0" len="12" vol="100" />
          <note key="79" pos="1008" pan="0" len="12" vol="100" />
          <note key="80" pos="1032" pan="0" len="12" vol="100" />
          <note key="80" pos="1080" pan="0" len="12" vol="100" />
          <note key="79" pos="1104" pan="0" len="12" vol="100" />
          <note key="75" pos="1128" pan="0" len="12" vol="100" />
          <note key="84" pos="1176" pan="0" len="12" vol="100" />
          <note key="86" pos="1200" pan="0" len="12" vol="100" />
          <note key="89" pos="1224" pan="0" len="12" vol="100" />
          <note key="87" pos="1272" pan="0" len="12" vol="100" />
          <note key="86" pos="1296" pan="0" len="12" vol="100" />
          <note key="82" pos="1320" pan="0" len="12" vol="100" />
          <note key="84" pos="1368" pan="0" len="12" vol="100" />
          <note key="86" pos="1392" pan="0" len="12" vol="100" />
          <note key="87" pos="1416" pan="0" len="12" vol="100" />
          <note key="87" pos="1464" pan="0" len="12" vol="100" />
          <note key="86" pos="1488" pan="0" len="12" vol="100" />
          <note key="82" pos="1512" pan="0" len="12" vol="100" />
        </pattern>
        <pattern pos="215820" muted="0" steps="16" name="" type="1">
          <note key="87" pos="24" pan="0" len="12" vol="100" />
          <note key="89" pos="48" pan="0" len="12" vol="100" />
          <note key="91" pos="72" pan="0" len="12" vol="100" />
          <note key="91" pos="120" pan="0" len="12" vol="100" />
          <note key="89" pos="144" pan="0" len="12" vol="100" />
          <note key="87" pos="168" pan="0" len="12" vol="100" />
          <note key="87" pos="216" pan="0" len="12" vol="100" />
          <note key="89" pos="240" pan="0" len="12" vol="100" />
          <note key="91" pos="264" pan="0" len="12" vol="100" />
          <note key="91" pos="312" pan="0" len="12" vol="100" />
          <note key="89" pos="336" pan="0" len="12" vol="100" />
          <note key="87" pos="360" pan="0" len="12" vol="100" />
          <note key="79" pos="408" pan="0" len="12" vol="100" />
          <note key="81" pos="432" pan="0" len="12" vol="100" />
          <note key="82" pos="456" pan="0" len="12" vol="100" />
          <note key="79" pos="600" pan="0" len="12" vol="100" />
          <note key="81" pos="624" pan="0" len="12" vol="100" />
          <note key="82" pos="648" pan="0" len="12" vol="100" />
          <note key="94" pos="696" pan="0" len="12" vol="100" />
          <note key="93" pos="720" pan="0" len="12" vol="100" />
          <note key="91" pos="744" pan="0" len="12" vol="100" />
          <note key="84" pos="792" pan="0" len="12" vol="100" />
          <note key="86" pos="816" pan="0" len="12" vol="100" />
          <note key="87" pos="840" pan="0" len="12" vol="100" />
          <note key="87" pos="888" pan="0" len="12" vol="100" />
          <note key="86" pos="912" pan="0" len="12" vol="100" />
          <note key="82" pos="936" pan="0" len="12" vol="100" />
          <note key="84" pos="984" pan="0" len="12" vol="100" />
          <note key="86" pos="1008" pan="0" len="12" vol="100" />
          <note key="87" pos="1032" pan="0" len="12" vol="100" />
          <note key="87" pos="1080" pan="0" len="12" vol="100" />
          <note key="86" pos="1104" pan="0" len="12" vol="100" />
          <note key="82" pos="1128" pan="0" len="12" vol="100" />
          <note key="80" pos="1176" pan="0" len="12" vol="100" />
          <note key="82" pos="1200" pan="0" len="12" vol="100" />
          <note key="84" pos="1224" pan="0" len="12" vol="100" />
          <note key="84" pos="1272" pan="0" len="12" vol="100" />
          <note key="82" pos="1296" pan="0" len="12" vol="100" />
          <note key="80" pos="1320" pan="0" len="12" vol="100" />
          <note key="80" pos="1368" pan="0" len="12" vol="100" />
          <note key="82" pos="1392" pan="0" len="12" vol="100" />
          <note key="84" pos="1416" pan="0" len="12" vol="100" />
          <note key="84" pos="1464" pan="0" len="12" vol="100" />
          <note key="82" pos="1488" pan="0" len="12" vol="100" />
          <note key="80" pos="1512" pan="0" len="12" vol="100" />
        </pattern>
        <pattern pos="217356" muted="0" steps="16" name="" type="1">
          <note key="87" pos="24" pan="0" len="12" vol="100" />
          <note key="89" pos="48" pan="0" len="12" vol="100" />
          <note key="91" pos="72" pan="0" len="12" vol="100" />
          <note key="91" pos="120" pan="0" len="12" vol="100" />
          <note key="89" pos="144" pan="0" len="12" vol="100" />
          <note key="87" pos="168" pan="0" len="12" vol="100" />
          <note key="87" pos="216" pan="0" len="12" vol="100" />
          <note key="89" pos="240" pan="0" len="12" vol="100" />
          <note key="91" pos="264" pan="0" len="12" vol="100" />
          <note key="91" pos="312" pan="0" len="12" vol="100" />
          <note key="89" pos="336" pan="0" len="12" vol="100" />
          <note key="87" pos="360" pan="0" len="12" vol="100" />
          <note key="79" pos="408" pan="0" len="12" vol="100" />
          <note key="81" pos="432" pan="0" len="12" vol="100" />
          <note key="82" pos="456" pan="0" len="12" vol="100" />
          <note key="79" pos="600" pan="0" len="12" vol="100" />
          <note key="81" pos="624" pan="0" len="12" vol="100" />
          <note key="82" pos="648" pan="0" len="12" vol="100" />
          <note key="94" pos="696" pan="0" len="12" vol="100" />
          <note key="93" pos="720" pan="0" len="12" vol="100" />
          <note key="91" pos="744" pan="0" len="12" vol="100" />
          <note key="84" pos="792" pan="0" len="12" vol="100" />
          <note key="86" pos="816" pan="0" len="12" vol="100" />
          <note key="87" pos="840" pan="0" len="12" vol="100" />
          <note key="87" pos="888" pan="0" len="12" vol="100" />
          <note key="86" pos="912" pan="0" len="12" vol="100" />
          <note key="82" pos="936" pan="0" len="12" vol="100" />
          <note key="84" pos="984" pan="0" len="12" vol="100" />
          <note key="86" pos="1008" pan="0" len="12" vol="100" />
          <note key="87" pos="1032" pan="0" len="12" vol="100" />
          <note key="87" pos="1080" pan="0" len="12" vol="100" />
          <note key="86" pos="1104" pan="0" len="12" vol="100" />
          <note key="82" pos="1128" pan="0" len="12" vol="100" />
          <note key="80" pos="1176" pan="0" len="12" vol="100" />
          <note key="82" pos="1200" pan="0" len="12" vol="100" />
          <note key="84" pos="1224" pan="0" len="12" vol="100" />
          <note key="84" pos="1272" pan="0" len="12" vol="100" />
          <note key="82" pos="1296" pan="0" len="12" vol="100" />
          <note key="80" pos="1320" pan="0" len="12" vol="100" />
          <note key="80" pos="1368" pan="0" len="12" vol="100" />
          <note key="82" pos="1392" pan="0" len="12" vol="100" />
          <note key="84" pos="1416" pan="0" len="12" vol="100" />
          <note key="84" pos="1464" pan="0" len="12" vol="100" />
          <note key="82" pos="1488" pan="0" len="12" vol="100" />
          <note key="80" pos="1512" pan="0" len="12" vol="100" />
        </pattern>
        <pattern pos="218892" muted="0" steps="16" name="" type="1">
          <note key="84" pos="792" pan="0" len="12" vol="100" />
          <note key="86" pos="816" pan="0" len="12" vol="100" />
          <note key="87" pos="840" pan="0" len="12" vol="100" />
          <note key="87" pos="888" pan="0" len="12" vol="100" />
          <note key="86" pos="912" pan="0" len="12" vol="100" />
          <note key="82" pos="936" pan="0" len="12" vol="100" />
          <note key="84" pos="984" pan="0" len="12" vol="100" />
          <note key="86" pos="1008" pan="0" len="12" vol="100" />
          <note key="87" pos="1032" pan="0" len="12" vol="100" />
          <note key="87" pos="1080" pan="0" len="12" vol="100" />
          <note key="86" pos="1104" pan="0" len="12" vol="100" />
          <note key="82" pos="1128" pan="0" len="12" vol="100" />
          <note key="84" pos="1176" pan="0" len="12" vol="100" />
          <note key="86" pos="1200" pan="0" len="12" vol="100" />
          <note key="87" pos="1224" pan="0" len="12" vol="100" />
          <note key="87" pos="1272" pan="0" len="12" vol="100" />
          <note key="86" pos="1296" pan="0" len="12" vol="100" />
          <note key="82" pos="1320" pan="0" len="12" vol="100" />
          <note key="84" pos="1368" pan="0" len="12" vol="100" />
          <note key="86" pos="1392" pan="0" len="12" vol="100" />
          <note key="87" pos="1416" pan="0" len="12" vol="100" />
          <note key="87" pos="1464" pan="0" len="12" vol="100" />
          <note key="86" pos="1488" pan="0" len="12" vol="100" />
          <note key="82" pos="1512" pan="0" len="12" vol="100" />
        </pattern>
        <pattern pos="248076" muted="0" steps="16" name="" type="1">
          <note key="58" pos="0" pan="0" len="12" vol="100" />
        </pattern>
        <pattern pos="248844" muted="0" steps="16" name="" type="1">
          <note key="79" pos="24" pan="0" len="12" vol="50" />
          <note key="79" pos="72" pan="0" len="12" vol="50" />
          <note key="77" pos="168" pan="0" len="24" vol="50" />
          <note key="74" pos="240" pan="0" len="24" vol="50" />
          <note key="79" pos="312" pan="0" len="12" vol="50" />
          <note key="79" pos="360" pan="0" len="24" vol="50" />
          <note key="72" pos="432" pan="0" len="24" vol="50" />
          <note key="74" pos="480" pan="0" len="24" vol="50" />
          <note key="77" pos="528" pan="0" len="24" vol="50" />
          <note key="79" pos="600" pan="0" len="12" vol="50" />
          <note key="79" pos="648" pan="0" len="12" vol="50" />
          <note key="77" pos="744" pan="0" len="24" vol="50" />
          <note key="74" pos="816" pan="0" len="24" vol="50" />
          <note key="79" pos="888" pan="0" len="12" vol="50" />
          <note key="79" pos="936" pan="0" len="24" vol="50" />
          <note key="72" pos="1008" pan="0" len="24" vol="50" />
          <note key="74" pos="1056" pan="0" len="24" vol="50" />
          <note key="77" pos="1104" pan="0" len="24" vol="50" />
          <note key="79" pos="1176" pan="0" len="12" vol="50" />
          <note key="79" pos="1224" pan="0" len="12" vol="50" />
          <note key="77" pos="1320" pan="0" len="24" vol="50" />
          <note key="74" pos="1392" pan="0" len="24" vol="50" />
          <note key="79" pos="1464" pan="0" len="12" vol="50" />
          <note key="79" pos="1512" pan="0" len="24" vol="50" />
          <note key="72" pos="1584" pan="0" len="24" vol="50" />
          <note key="74" pos="1632" pan="0" len="24" vol="50" />
          <note key="77" pos="1680" pan="0" len="24" vol="50" />
          <note key="79" pos="1752" pan="0" len="12" vol="50" />
          <note key="79" pos="1800" pan="0" len="12" vol="50" />
          <note key="77" pos="1896" pan="0" len="24" vol="50" />
          <note key="74" pos="1968" pan="0" len="24" vol="50" />
          <note key="79" pos="2040" pan="0" len="12" vol="50" />
          <note key="79" pos="2088" pan="0" len="24" vol="50" />
          <note key="72" pos="2160" pan="0" len="24" vol="50" />
          <note key="74" pos="2208" pan="0" len="24" vol="50" />
          <note key="77" pos="2256" pan="0" len="24" vol="50" />
        </pattern>
        <pattern pos="251148" muted="0" steps="16" name="" type="1">
          <note key="79" pos="24" pan="0" len="12" vol="50" />
          <note key="79" pos="72" pan="0" len="12" vol="50" />
          <note key="77" pos="168" pan="0" len="24" vol="50" />
          <note key="74" pos="240" pan="0" len="24" vol="50" />
          <note key="79" pos="312" pan="0" len="12" vol="50" />
          <note key="79" pos="360" pan="0" len="24" vol="50" />
          <note key="72" pos="432" pan="0" len="24" vol="50" />
          <note key="74" pos="480" pan="0" len="24" vol="50" />
          <note key="77" pos="528" pan="0" len="24" vol="50" />
          <note key="79" pos="600" pan="0" len="12" vol="50" />
          <note key="79" pos="648" pan="0" len="12" vol="50" />
          <note key="77" pos="744" pan="0" len="24" vol="50" />
          <note key="74" pos="816" pan="0" len="24" vol="50" />
          <note key="79" pos="888" pan="0" len="12" vol="50" />
          <note key="79" pos="936" pan="0" len="24" vol="50" />
          <note key="72" pos="1008" pan="0" len="24" vol="50" />
          <note key="74" pos="1056" pan="0" len="24" vol="50" />
          <note key="77" pos="1104" pan="0" len="24" vol="50" />
          <note key="79" pos="1176" pan="0" len="12" vol="50" />
          <note key="79" pos="1224" pan="0" len="12" vol="50" />
          <note key="77" pos="1320" pan="0" len="24" vol="50" />
          <note key="74" pos="1392" pan="0" len="24" vol="50" />
          <note key="79" pos="1464" pan="0" len="12" vol="50" />
          <note key="79" pos="1512" pan="0" len="24" vol="50" />
          <note key="72" pos="1584" pan="0" len="24" vol="50" />
          <note key="74" pos="1632" pan="0" len="24" vol="50" />
          <note key="77" pos="1680" pan="0" len="24" vol="50" />
          <note key="79" pos="1752" pan="0" len="12" vol="50" />
          <note key="79" pos="1800" pan="0" len="12" vol="50" />
          <note key="77" pos="1896" pan="0" len="24" vol="50" />
          <note key="74" pos="1968" pan="0" len="24" vol="50" />
          <note key="79" pos="2040" pan="0" len="12" vol="50" />
          <note key="79" pos="2088" pan="0" len="24" vol="50" />
          <note key="72" pos="2160" pan="0" len="24" vol="50" />
          <note key="74" pos="2208" pan="0" len="24" vol="50" />
          <note key="77" pos="2256" pan="0" len="24" vol="50" />
        </pattern>
        <pattern pos="253452" muted="0" steps="16" name="" type="1">
          <note key="79" pos="24" pan="0" len="12" vol="50" />
          <note key="79" pos="72" pan="0" len="12" vol="50" />
          <note key="77" pos="168" pan="0" len="24" vol="50" />
          <note key="74" pos="240" pan="0" len="24" vol="50" />
          <note key="79" pos="312" pan="0" len="12" vol="50" />
          <note key="79" pos="360" pan="0" len="24" vol="50" />
          <note key="72" pos="432" pan="0" len="24" vol="50" />
          <note key="74" pos="480" pan="0" len="24" vol="50" />
          <note key="77" pos="528" pan="0" len="24" vol="50" />
          <note key="79" pos="600" pan="0" len="12" vol="50" />
          <note key="79" pos="648" pan="0" len="12" vol="50" />
          <note key="77" pos="744" pan="0" len="24" vol="50" />
          <note key="74" pos="816" pan="0" len="24" vol="50" />
          <note key="82" pos="888" pan="0" len="12" vol="50" />
          <note key="77" pos="936" pan="0" len="24" vol="50" />
          <note key="75" pos="1008" pan="0" len="24" vol="50" />
          <note key="75" pos="1056" pan="0" len="24" vol="50" />
          <note key="77" pos="1104" pan="0" len="24" vol="50" />
          <note key="79" pos="1176" pan="0" len="12" vol="50" />
          <note key="79" pos="1224" pan="0" len="12" vol="50" />
          <note key="77" pos="1320" pan="0" len="24" vol="50" />
          <note key="74" pos="1392" pan="0" len="24" vol="50" />
          <note key="79" pos="1464" pan="0" len="12" vol="50" />
          <note key="79" pos="1512" pan="0" len="24" vol="50" />
          <note key="72" pos="1584" pan="0" len="24" vol="50" />
          <note key="74" pos="1632" pan="0" len="24" vol="50" />
          <note key="77" pos="1680" pan="0" len="24" vol="50" />
          <note key="79" pos="1752" pan="0" len="12" vol="50" />
          <note key="79" pos="1800" pan="0" len="12" vol="50" />
          <note key="77" pos="1896" pan="0" len="24" vol="50" />
          <note key="74" pos="1968" pan="0" len="24" vol="50" />
          <note key="79" pos="2040" pan="0" len="12" vol="50" />
          <note key="79" pos="2088" pan="0" len="12" vol="50" />
          <note key="77" pos="2184" pan="0" len="24" vol="50" />
          <note key="74" pos="2256" pan="0" len="24" vol="50" />
        </pattern>
        <pattern pos="255756" muted="0" steps="16" name="" type="1">
          <note key="79" pos="24" pan="0" len="12" vol="50" />
          <note key="79" pos="72" pan="0" len="12" vol="50" />
          <note key="77" pos="168" pan="0" len="24" vol="50" />
          <note key="74" pos="240" pan="0" len="24" vol="50" />
          <note key="79" pos="312" pan="0" len="12" vol="50" />
          <note key="79" pos="360" pan="0" len="24" vol="50" />
          <note key="72" pos="432" pan="0" len="24" vol="50" />
          <note key="74" pos="480" pan="0" len="24" vol="50" />
          <note key="77" pos="528" pan="0" len="24" vol="50" />
          <note key="79" pos="600" pan="0" len="12" vol="50" />
          <note key="79" pos="648" pan="0" len="12" vol="50" />
          <note key="77" pos="744" pan="0" len="24" vol="50" />
          <note key="74" pos="816" pan="0" len="24" vol="50" />
          <note key="82" pos="888" pan="0" len="12" vol="50" />
          <note key="77" pos="936" pan="0" len="24" vol="50" />
          <note key="75" pos="1008" pan="0" len="24" vol="50" />
          <note key="75" pos="1056" pan="0" len="24" vol="50" />
          <note key="77" pos="1104" pan="0" len="24" vol="50" />
          <note key="79" pos="1176" pan="0" len="12" vol="50" />
          <note key="79" pos="1224" pan="0" len="12" vol="50" />
          <note key="77" pos="1320" pan="0" len="24" vol="50" />
          <note key="74" pos="1392" pan="0" len="24" vol="50" />
          <note key="79" pos="1464" pan="0" len="12" vol="50" />
          <note key="79" pos="1512" pan="0" len="24" vol="50" />
          <note key="72" pos="1584" pan="0" len="24" vol="50" />
          <note key="74" pos="1632" pan="0" len="24" vol="50" />
          <note key="77" pos="1680" pan="0" len="24" vol="50" />
          <note key="79" pos="1752" pan="0" len="12" vol="50" />
          <note key="79" pos="1800" pan="0" len="12" vol="50" />
          <note key="77" pos="1896" pan="0" len="24" vol="50" />
          <note key="74" pos="1968" pan="0" len="24" vol="50" />
          <note key="79" pos="2040" pan="0" len="12" vol="50" />
          <note key="79" pos="2088" pan="0" len="12" vol="50" />
          <note key="77" pos="2184" pan="0" len="24" vol="50" />
          <note key="74" pos="2256" pan="0" len="24" vol="50" />
        </pattern>
        <pattern pos="267276" muted="0" steps="16" name="" type="1">
          <note key="79" pos="24" pan="0" len="12" vol="100" />
          <note key="77" pos="96" pan="0" len="12" vol="100" />
          <note key="74" pos="216" pan="0" len="12" vol="100" />
          <note key="72" pos="288" pan="0" len="12" vol="100" />
          <note key="82" pos="408" pan="0" len="24" vol="100" />
          <note key="81" pos="432" pan="0" len="24" vol="100" />
          <note key="79" pos="456" pan="0" len="24" vol="100" />
        </pattern>
      </track>
      <track solo="0" name="1 (Ch5)" type="0" muted="0">
        <instrumenttrack usemasterpitch="1" pitch="0.0" basenote="57" pan="0" pitchrange="12" vol="30">
          <eldata />
          <instrument name="tripleoscillator" />
        </instrumenttrack>
        <pattern pos="276444" muted="0" steps="16" name="" type="1">
          <note key="76" pos="0" pan="0" len="12" vol="100" />
          <note key="71" pos="12" pan="0" len="12" vol="47" />
          <note key="76" pos="24" pan="0" len="12" vol="62" />
          <note key="78" pos="36" pan="0" len="12" vol="100" />
          <note key="80" pos="48" pan="0" len="12" vol="47" />
          <note key="83" pos="60" pan="0" len="12" vol="62" />
          <note key="82" pos="72" pan="0" len="12" vol="100" />
          <note key="78" pos="96" pan="0" len="24" vol="100" />
          <note key="80" pos="120" pan="0" len="24" vol="100" />
          <note key="73" pos="144" pan="0" len="12" vol="100" />
          <note key="70" pos="156" pan="0" len="12" vol="100" />
          <note key="73" pos="168" pan="0" len="12" vol="100" />
          <note key="71" pos="180" pan="0" len="12" vol="100" />
          <note key="76" pos="216" pan="0" len="12" vol="100" />
          <note key="78" pos="228" pan="0" len="12" vol="100" />
          <note key="76" pos="240" pan="0" len="12" vol="100" />
          <note key="71" pos="252" pan="0" len="12" vol="100" />
          <note key="71" pos="288" pan="0" len="12" vol="100" />
          <note key="70" pos="300" pan="0" len="12" vol="47" />
          <note key="66" pos="312" pan="0" len="12" vol="62" />
          <note key="68" pos="324" pan="0" len="12" vol="100" />
          <note key="73" pos="360" pan="0" len="12" vol="100" />
          <note key="75" pos="384" pan="0" len="12" vol="62" />
          <note key="76" pos="408" pan="0" len="12" vol="100" />
          <note key="80" pos="432" pan="0" len="12" vol="100" />
          <note key="76" pos="444" pan="0" len="12" vol="47" />
          <note key="80" pos="456" pan="0" len="12" vol="62" />
          <note key="82" pos="468" pan="0" len="36" vol="100" />
          <note key="76" pos="576" pan="0" len="12" vol="100" />
          <note key="71" pos="588" pan="0" len="12" vol="47" />
          <note key="76" pos="600" pan="0" len="12" vol="62" />
          <note key="78" pos="612" pan="0" len="12" vol="100" />
          <note key="80" pos="624" pan="0" len="12" vol="47" />
          <note key="83" pos="636" pan="0" len="12" vol="62" />
          <note key="82" pos="648" pan="0" len="12" vol="100" />
          <note key="78" pos="672" pan="0" len="24" vol="100" />
          <note key="80" pos="696" pan="0" len="24" vol="100" />
          <note key="73" pos="720" pan="0" len="12" vol="100" />
          <note key="70" pos="732" pan="0" len="12" vol="100" />
          <note key="73" pos="744" pan="0" len="12" vol="100" />
          <note key="71" pos="756" pan="0" len="12" vol="100" />
          <note key="76" pos="792" pan="0" len="12" vol="100" />
          <note key="78" pos="804" pan="0" len="12" vol="100" />
          <note key="76" pos="816" pan="0" len="12" vol="100" />
          <note key="71" pos="828" pan="0" len="12" vol="100" />
          <note key="71" pos="864" pan="0" len="12" vol="100" />
          <note key="70" pos="876" pan="0" len="12" vol="47" />
          <note key="66" pos="888" pan="0" len="12" vol="62" />
          <note key="68" pos="900" pan="0" len="12" vol="100" />
          <note key="73" pos="936" pan="0" len="12" vol="100" />
          <note key="75" pos="960" pan="0" len="12" vol="62" />
          <note key="76" pos="984" pan="0" len="12" vol="100" />
          <note key="80" pos="1008" pan="0" len="12" vol="100" />
          <note key="76" pos="1020" pan="0" len="12" vol="47" />
          <note key="80" pos="1032" pan="0" len="12" vol="62" />
          <note key="82" pos="1044" pan="0" len="36" vol="100" />
        </pattern>
        <pattern pos="29184" muted="0" steps="16" name="" type="1">
          <note key="48" pos="384" pan="0" len="192" vol="100" />
        </pattern>
        <pattern pos="35328" muted="0" steps="16" name="" type="1">
          <note key="67" pos="0" pan="0" len="24" vol="0" />
          <note key="67" pos="48" pan="0" len="24" vol="5" />
          <note key="67" pos="96" pan="0" len="24" vol="9" />
          <note key="67" pos="144" pan="0" len="24" vol="17" />
          <note key="67" pos="192" pan="0" len="24" vol="27" />
          <note key="67" pos="240" pan="0" len="24" vol="22" />
          <note key="67" pos="288" pan="0" len="24" vol="20" />
          <note key="67" pos="336" pan="0" len="24" vol="16" />
          <note key="67" pos="384" pan="0" len="24" vol="17" />
          <note key="67" pos="432" pan="0" len="24" vol="30" />
          <note key="67" pos="480" pan="0" len="24" vol="44" />
          <note key="67" pos="528" pan="0" len="24" vol="61" />
          <note key="67" pos="576" pan="0" len="24" vol="77" />
          <note key="67" pos="624" pan="0" len="24" vol="56" />
          <note key="67" pos="672" pan="0" len="24" vol="45" />
          <note key="67" pos="720" pan="0" len="24" vol="33" />
          <note key="67" pos="768" pan="0" len="24" vol="34" />
          <note key="67" pos="816" pan="0" len="24" vol="52" />
          <note key="67" pos="864" pan="0" len="24" vol="69" />
          <note key="67" pos="912" pan="0" len="24" vol="86" />
          <note key="67" pos="960" pan="0" len="24" vol="100" />
          <note key="67" pos="1008" pan="0" len="24" vol="69" />
          <note key="67" pos="1056" pan="0" len="24" vol="52" />
          <note key="67" pos="1104" pan="0" len="24" vol="34" />
          <note key="67" pos="1152" pan="0" len="24" vol="34" />
          <note key="67" pos="1200" pan="0" len="24" vol="52" />
          <note key="67" pos="1248" pan="0" len="24" vol="69" />
          <note key="67" pos="1296" pan="0" len="24" vol="86" />
          <note key="67" pos="1344" pan="0" len="24" vol="100" />
          <note key="67" pos="1392" pan="0" len="24" vol="69" />
          <note key="67" pos="1440" pan="0" len="24" vol="52" />
          <note key="67" pos="1488" pan="0" len="24" vol="34" />
        </pattern>
        <pattern pos="36864" muted="0" steps="16" name="" type="1">
          <note key="67" pos="0" pan="0" len="24" vol="34" />
          <note key="67" pos="48" pan="0" len="24" vol="52" />
          <note key="67" pos="96" pan="0" len="24" vol="69" />
          <note key="67" pos="144" pan="0" len="24" vol="86" />
          <note key="67" pos="192" pan="0" len="24" vol="100" />
          <note key="67" pos="240" pan="0" len="24" vol="69" />
          <note key="67" pos="288" pan="0" len="24" vol="52" />
          <note key="67" pos="336" pan="0" len="24" vol="34" />
          <note key="67" pos="384" pan="0" len="24" vol="34" />
          <note key="67" pos="432" pan="0" len="24" vol="52" />
          <note key="67" pos="480" pan="0" len="24" vol="69" />
          <note key="67" pos="528" pan="0" len="24" vol="86" />
          <note key="67" pos="576" pan="0" len="24" vol="100" />
          <note key="67" pos="624" pan="0" len="24" vol="69" />
          <note key="67" pos="672" pan="0" len="24" vol="52" />
          <note key="67" pos="720" pan="0" len="24" vol="34" />
          <note key="67" pos="768" pan="0" len="24" vol="34" />
          <note key="67" pos="816" pan="0" len="24" vol="52" />
          <note key="67" pos="864" pan="0" len="24" vol="69" />
          <note key="67" pos="912" pan="0" len="24" vol="86" />
          <note key="67" pos="960" pan="0" len="24" vol="100" />
          <note key="67" pos="1008" pan="0" len="24" vol="69" />
          <note key="67" pos="1056" pan="0" len="24" vol="52" />
          <note key="67" pos="1104" pan="0" len="24" vol="34" />
          <note key="67" pos="1152" pan="0" len="24" vol="34" />
          <note key="67" pos="1200" pan="0" len="24" vol="52" />
          <note key="67" pos="1248" pan="0" len="24" vol="69" />
          <note key="67" pos="1296" pan="0" len="24" vol="86" />
          <note key="67" pos="1344" pan="0" len="24" vol="100" />
          <note key="67" pos="1392" pan="0" len="24" vol="69" />
          <note key="67" pos="1440" pan="0" len="24" vol="52" />
          <note key="67" pos="1488" pan="0" len="24" vol="34" />
        </pattern>
        <pattern pos="38400" muted="0" steps="16" name="" type="1">
          <note key="67" pos="0" pan="0" len="24" vol="34" />
          <note key="67" pos="48" pan="0" len="24" vol="52" />
          <note key="67" pos="96" pan="0" len="24" vol="69" />
          <note key="67" pos="144" pan="0" len="24" vol="86" />
          <note key="69" pos="192" pan="0" len="24" vol="100" />
          <note key="69" pos="240" pan="0" len="24" vol="69" />
          <note key="69" pos="288" pan="0" len="24" vol="52" />
          <note key="69" pos="336" pan="0" len="24" vol="34" />
          <note key="67" pos="384" pan="0" len="24" vol="34" />
          <note key="67" pos="432" pan="0" len="24" vol="52" />
          <note key="67" pos="480" pan="0" len="24" vol="69" />
          <note key="67" pos="528" pan="0" len="24" vol="86" />
          <note key="69" pos="576" pan="0" len="24" vol="100" />
          <note key="69" pos="624" pan="0" len="24" vol="69" />
          <note key="69" pos="672" pan="0" len="24" vol="52" />
          <note key="69" pos="720" pan="0" len="24" vol="34" />
          <note key="67" pos="768" pan="0" len="24" vol="34" />
          <note key="67" pos="816" pan="0" len="24" vol="52" />
          <note key="67" pos="864" pan="0" len="24" vol="69" />
          <note key="67" pos="912" pan="0" len="24" vol="86" />
          <note key="69" pos="960" pan="0" len="24" vol="100" />
          <note key="69" pos="1008" pan="0" len="24" vol="69" />
          <note key="69" pos="1056" pan="0" len="24" vol="52" />
          <note key="69" pos="1104" pan="0" len="24" vol="34" />
          <note key="70" pos="1152" pan="0" len="24" vol="34" />
          <note key="70" pos="1200" pan="0" len="24" vol="52" />
          <note key="70" pos="1248" pan="0" len="24" vol="69" />
          <note key="70" pos="1296" pan="0" len="24" vol="86" />
          <note key="72" pos="1344" pan="0" len="24" vol="100" />
          <note key="72" pos="1392" pan="0" len="24" vol="69" />
          <note key="72" pos="1440" pan="0" len="24" vol="52" />
          <note key="72" pos="1488" pan="0" len="24" vol="34" />
        </pattern>
        <pattern pos="39936" muted="0" steps="16" name="" type="1">
          <note key="72" pos="0" pan="0" len="24" vol="34" />
          <note key="72" pos="48" pan="0" len="24" vol="52" />
          <note key="72" pos="96" pan="0" len="24" vol="69" />
          <note key="72" pos="144" pan="0" len="24" vol="86" />
          <note key="73" pos="192" pan="0" len="24" vol="100" />
          <note key="73" pos="240" pan="0" len="24" vol="69" />
          <note key="73" pos="288" pan="0" len="24" vol="52" />
          <note key="73" pos="336" pan="0" len="24" vol="34" />
          <note key="72" pos="384" pan="0" len="24" vol="34" />
          <note key="72" pos="432" pan="0" len="24" vol="52" />
          <note key="72" pos="480" pan="0" len="24" vol="69" />
          <note key="72" pos="528" pan="0" len="24" vol="86" />
          <note key="73" pos="576" pan="0" len="24" vol="100" />
          <note key="73" pos="624" pan="0" len="24" vol="69" />
          <note key="73" pos="672" pan="0" len="24" vol="52" />
          <note key="73" pos="720" pan="0" len="24" vol="34" />
          <note key="72" pos="768" pan="0" len="24" vol="34" />
          <note key="72" pos="816" pan="0" len="24" vol="52" />
          <note key="72" pos="864" pan="0" len="24" vol="69" />
          <note key="72" pos="912" pan="0" len="24" vol="86" />
          <note key="73" pos="960" pan="0" len="24" vol="100" />
          <note key="73" pos="1008" pan="0" len="24" vol="69" />
          <note key="73" pos="1056" pan="0" len="24" vol="52" />
          <note key="73" pos="1104" pan="0" len="24" vol="34" />
          <note key="72" pos="1152" pan="0" len="24" vol="34" />
          <note key="72" pos="1200" pan="0" len="24" vol="52" />
          <note key="72" pos="1248" pan="0" len="24" vol="69" />
          <note key="72" pos="1296" pan="0" len="24" vol="86" />
          <note key="73" pos="1344" pan="0" len="24" vol="100" />
          <note key="73" pos="1392" pan="0" len="24" vol="69" />
          <note key="73" pos="1440" pan="0" len="24" vol="52" />
          <note key="73" pos="1488" pan="0" len="24" vol="34" />
        </pattern>
        <pattern pos="41472" muted="0" steps="16" name="" type="1">
          <note key="71" pos="0" pan="0" len="24" vol="34" />
          <note key="71" pos="48" pan="0" len="24" vol="52" />
          <note key="71" pos="96" pan="0" len="24" vol="69" />
          <note key="71" pos="144" pan="0" len="24" vol="86" />
          <note key="74" pos="192" pan="0" len="24" vol="100" />
          <note key="74" pos="240" pan="0" len="24" vol="69" />
          <note key="74" pos="288" pan="0" len="24" vol="52" />
          <note key="74" pos="336" pan="0" len="24" vol="34" />
          <note key="71" pos="384" pan="0" len="24" vol="34" />
          <note key="71" pos="432" pan="0" len="24" vol="52" />
          <note key="71" pos="480" pan="0" len="24" vol="69" />
          <note key="71" pos="528" pan="0" len="24" vol="86" />
          <note key="74" pos="576" pan="0" len="24" vol="100" />
          <note key="74" pos="624" pan="0" len="24" vol="69" />
          <note key="74" pos="672" pan="0" len="24" vol="52" />
          <note key="74" pos="720" pan="0" len="24" vol="34" />
          <note key="71" pos="768" pan="0" len="24" vol="34" />
          <note key="71" pos="816" pan="0" len="24" vol="52" />
          <note key="71" pos="864" pan="0" len="24" vol="69" />
          <note key="71" pos="912" pan="0" len="24" vol="86" />
          <note key="74" pos="960" pan="0" len="24" vol="100" />
          <note key="74" pos="1008" pan="0" len="24" vol="69" />
          <note key="74" pos="1056" pan="0" len="24" vol="52" />
          <note key="74" pos="1104" pan="0" len="24" vol="34" />
          <note key="71" pos="1152" pan="0" len="24" vol="34" />
          <note key="71" pos="1200" pan="0" len="24" vol="52" />
          <note key="71" pos="1248" pan="0" len="24" vol="69" />
          <note key="71" pos="1296" pan="0" len="24" vol="86" />
          <note key="74" pos="1344" pan="0" len="24" vol="100" />
          <note key="74" pos="1392" pan="0" len="24" vol="69" />
          <note key="74" pos="1440" pan="0" len="24" vol="52" />
          <note key="74" pos="1488" pan="0" len="24" vol="34" />
        </pattern>
        <pattern pos="43008" muted="0" steps="16" name="" type="1">
          <note key="67" pos="0" pan="0" len="24" vol="34" />
          <note key="67" pos="48" pan="0" len="24" vol="52" />
          <note key="67" pos="96" pan="0" len="24" vol="69" />
          <note key="67" pos="144" pan="0" len="24" vol="86" />
          <note key="67" pos="192" pan="0" len="24" vol="100" />
          <note key="67" pos="240" pan="0" len="24" vol="69" />
          <note key="67" pos="288" pan="0" len="24" vol="52" />
          <note key="67" pos="336" pan="0" len="24" vol="34" />
          <note key="67" pos="384" pan="0" len="24" vol="34" />
          <note key="67" pos="432" pan="0" len="24" vol="52" />
          <note key="67" pos="480" pan="0" len="24" vol="69" />
          <note key="67" pos="528" pan="0" len="24" vol="86" />
          <note key="67" pos="576" pan="0" len="24" vol="100" />
          <note key="67" pos="624" pan="0" len="24" vol="69" />
          <note key="67" pos="672" pan="0" len="24" vol="52" />
          <note key="67" pos="720" pan="0" len="24" vol="34" />
          <note key="67" pos="768" pan="0" len="24" vol="34" />
          <note key="67" pos="816" pan="0" len="24" vol="52" />
          <note key="67" pos="864" pan="0" len="24" vol="69" />
          <note key="67" pos="912" pan="0" len="24" vol="86" />
          <note key="67" pos="960" pan="0" len="24" vol="100" />
          <note key="67" pos="1008" pan="0" len="24" vol="69" />
          <note key="67" pos="1056" pan="0" len="24" vol="52" />
          <note key="67" pos="1104" pan="0" len="24" vol="34" />
          <note key="67" pos="1152" pan="0" len="24" vol="34" />
          <note key="67" pos="1200" pan="0" len="24" vol="52" />
          <note key="67" pos="1248" pan="0" len="24" vol="69" />
          <note key="67" pos="1296" pan="0" len="24" vol="86" />
          <note key="67" pos="1344" pan="0" len="24" vol="100" />
          <note key="67" pos="1392" pan="0" len="24" vol="69" />
          <note key="67" pos="1440" pan="0" len="24" vol="52" />
          <note key="67" pos="1488" pan="0" len="24" vol="34" />
        </pattern>
        <pattern pos="57600" muted="0" steps="16" name="" type="1">
          <note key="89" pos="36" pan="0" len="12" vol="100" />
          <note key="88" pos="108" pan="0" len="12" vol="100" />
          <note key="89" pos="168" pan="0" len="12" vol="100" />
          <note key="86" pos="252" pan="0" len="12" vol="100" />
          <note key="89" pos="324" pan="0" len="12" vol="100" />
          <note key="88" pos="396" pan="0" len="12" vol="100" />
          <note key="89" pos="456" pan="0" len="12" vol="100" />
          <note key="83" pos="540" pan="0" len="12" vol="100" />
          <note key="89" pos="612" pan="0" len="12" vol="100" />
          <note key="88" pos="684" pan="0" len="12" vol="100" />
          <note key="89" pos="744" pan="0" len="12" vol="100" />
          <note key="86" pos="828" pan="0" len="12" vol="100" />
          <note key="89" pos="900" pan="0" len="12" vol="100" />
          <note key="88" pos="972" pan="0" len="12" vol="100" />
          <note key="89" pos="1032" pan="0" len="12" vol="100" />
          <note key="83" pos="1116" pan="0" len="12" vol="100" />
        </pattern>
        <pattern pos="58752" muted="0" steps="16" name="" type="1">
          <note key="84" pos="252" pan="0" len="12" vol="100" />
        </pattern>
        <pattern pos="59904" muted="0" steps="16" name="" type="1">
          <note key="89" pos="36" pan="0" len="12" vol="100" />
          <note key="88" pos="108" pan="0" len="12" vol="100" />
          <note key="88" pos="168" pan="0" len="12" vol="100" />
          <note key="86" pos="216" pan="0" len="36" vol="100" />
          <note key="88" pos="252" pan="0" len="12" vol="100" />
          <note key="89" pos="324" pan="0" len="12" vol="100" />
          <note key="88" pos="396" pan="0" len="12" vol="100" />
          <note key="91" pos="456" pan="0" len="12" vol="100" />
          <note key="86" pos="504" pan="0" len="36" vol="100" />
          <note key="88" pos="540" pan="0" len="12" vol="100" />
          <note key="89" pos="612" pan="0" len="12" vol="100" />
          <note key="88" pos="684" pan="0" len="12" vol="100" />
          <note key="91" pos="756" pan="0" len="12" vol="100" />
          <note key="88" pos="792" pan="0" len="36" vol="100" />
          <note key="91" pos="828" pan="0" len="12" vol="100" />
          <note key="86" pos="900" pan="0" len="12" vol="100" />
          <note key="86" pos="972" pan="0" len="12" vol="100" />
          <note key="86" pos="1032" pan="0" len="12" vol="100" />
          <note key="89" pos="1080" pan="0" len="24" vol="100" />
          <note key="88" pos="1104" pan="0" len="24" vol="100" />
          <note key="84" pos="1128" pan="0" len="24" vol="100" />
        </pattern>
        <pattern pos="61056" muted="0" steps="16" name="" type="1">
          <note key="89" pos="36" pan="0" len="12" vol="100" />
          <note key="88" pos="108" pan="0" len="12" vol="100" />
          <note key="89" pos="168" pan="0" len="12" vol="100" />
          <note key="86" pos="252" pan="0" len="12" vol="100" />
          <note key="89" pos="324" pan="0" len="12" vol="100" />
          <note key="88" pos="396" pan="0" len="12" vol="100" />
          <note key="89" pos="456" pan="0" len="12" vol="100" />
          <note key="83" pos="540" pan="0" len="12" vol="100" />
          <note key="89" pos="612" pan="0" len="12" vol="100" />
          <note key="88" pos="684" pan="0" len="12" vol="100" />
          <note key="89" pos="744" pan="0" len="12" vol="100" />
          <note key="86" pos="828" pan="0" len="12" vol="100" />
          <note key="89" pos="900" pan="0" len="12" vol="100" />
          <note key="88" pos="972" pan="0" len="12" vol="100" />
          <note key="89" pos="1032" pan="0" len="12" vol="100" />
          <note key="83" pos="1116" pan="0" len="12" vol="100" />
        </pattern>
        <pattern pos="62208" muted="0" steps="16" name="" type="1">
          <note key="76" pos="252" pan="0" len="12" vol="100" />
          <note key="76" pos="828" pan="0" len="12" vol="100" />
        </pattern>
        <pattern pos="63360" muted="0" steps="16" name="" type="1">
          <note key="89" pos="36" pan="0" len="12" vol="100" />
          <note key="88" pos="108" pan="0" len="12" vol="100" />
          <note key="89" pos="168" pan="0" len="12" vol="100" />
          <note key="86" pos="216" pan="0" len="36" vol="100" />
          <note key="88" pos="252" pan="0" len="12" vol="100" />
          <note key="89" pos="324" pan="0" len="12" vol="100" />
          <note key="88" pos="396" pan="0" len="12" vol="100" />
          <note key="93" pos="456" pan="0" len="12" vol="100" />
          <note key="91" pos="504" pan="0" len="36" vol="100" />
          <note key="89" pos="540" pan="0" len="12" vol="100" />
          <note key="89" pos="612" pan="0" len="12" vol="100" />
          <note key="88" pos="684" pan="0" len="12" vol="100" />
          <note key="93" pos="756" pan="0" len="12" vol="100" />
          <note key="88" pos="792" pan="0" len="36" vol="100" />
          <note key="91" pos="828" pan="0" len="12" vol="100" />
          <note key="89" pos="900" pan="0" len="12" vol="100" />
          <note key="88" pos="972" pan="0" len="12" vol="100" />
          <note key="86" pos="1032" pan="0" len="12" vol="100" />
          <note key="89" pos="1080" pan="0" len="24" vol="100" />
          <note key="88" pos="1104" pan="0" len="24" vol="100" />
          <note key="84" pos="1128" pan="0" len="24" vol="100" />
        </pattern>
        <pattern pos="64512" muted="0" steps="16" name="" type="1">
          <note key="89" pos="36" pan="0" len="12" vol="100" />
          <note key="88" pos="108" pan="0" len="12" vol="100" />
          <note key="89" pos="168" pan="0" len="12" vol="100" />
          <note key="86" pos="252" pan="0" len="12" vol="100" />
          <note key="89" pos="324" pan="0" len="12" vol="100" />
          <note key="88" pos="396" pan="0" len="12" vol="100" />
          <note key="89" pos="456" pan="0" len="12" vol="100" />
          <note key="83" pos="540" pan="0" len="12" vol="100" />
          <note key="89" pos="612" pan="0" len="12" vol="100" />
          <note key="88" pos="684" pan="0" len="12" vol="100" />
          <note key="89" pos="744" pan="0" len="12" vol="100" />
          <note key="86" pos="828" pan="0" len="12" vol="100" />
          <note key="89" pos="900" pan="0" len="12" vol="100" />
          <note key="88" pos="972" pan="0" len="12" vol="100" />
          <note key="89" pos="1032" pan="0" len="12" vol="100" />
          <note key="83" pos="1116" pan="0" len="12" vol="100" />
        </pattern>
        <pattern pos="69120" muted="0" steps="16" name="" type="1">
          <note key="91" pos="432" pan="0" len="72" vol="34" />
          <note key="89" pos="504" pan="0" len="24" vol="100" />
          <note key="83" pos="1044" pan="0" len="36" vol="100" />
          <note key="86" pos="1080" pan="0" len="24" vol="100" />
        </pattern>
        <pattern pos="71424" muted="0" steps="16" name="" type="1">
          <note key="91" pos="432" pan="0" len="72" vol="34" />
          <note key="89" pos="504" pan="0" len="24" vol="100" />
          <note key="83" pos="1044" pan="0" len="36" vol="100" />
          <note key="86" pos="1080" pan="0" len="24" vol="100" />
        </pattern>
        <pattern pos="73728" muted="0" steps="16" name="" type="1">
          <note key="87" pos="288" pan="0" len="180" vol="100" />
          <note key="87" pos="864" pan="0" len="192" vol="100" />
          <note key="87" pos="1440" pan="0" len="180" vol="100" />
        </pattern>
        <pattern pos="76032" muted="0" steps="16" name="" type="1">
          <note key="84" pos="288" pan="0" len="180" vol="100" />
          <note key="84" pos="864" pan="0" len="192" vol="100" />
          <note key="84" pos="1440" pan="0" len="180" vol="100" />
        </pattern>
        <pattern pos="80640" muted="0" steps="16" name="" type="1">
          <note key="91" pos="432" pan="0" len="72" vol="34" />
          <note key="89" pos="504" pan="0" len="24" vol="100" />
          <note key="83" pos="1044" pan="0" len="36" vol="100" />
          <note key="86" pos="1080" pan="0" len="24" vol="100" />
        </pattern>
        <pattern pos="82944" muted="0" steps="16" name="" type="1">
          <note key="91" pos="432" pan="0" len="72" vol="34" />
          <note key="89" pos="504" pan="0" len="24" vol="100" />
          <note key="83" pos="1044" pan="0" len="36" vol="100" />
          <note key="86" pos="1080" pan="0" len="24" vol="100" />
        </pattern>
        <pattern pos="85248" muted="0" steps="16" name="" type="1">
          <note key="87" pos="288" pan="0" len="180" vol="100" />
          <note key="87" pos="864" pan="0" len="192" vol="100" />
          <note key="87" pos="1440" pan="0" len="180" vol="100" />
        </pattern>
        <pattern pos="87552" muted="0" steps="16" name="" type="1">
          <note key="84" pos="288" pan="0" len="180" vol="100" />
          <note key="84" pos="864" pan="0" len="192" vol="100" />
          <note key="84" pos="1440" pan="0" len="180" vol="100" />
        </pattern>
        <pattern pos="107520" muted="0" steps="16" name="" type="1">
          <note key="78" pos="0" pan="0" len="12" vol="100" />
          <note key="78" pos="48" pan="0" len="12" vol="62" />
          <note key="78" pos="96" pan="0" len="12" vol="31" />
          <note key="78" pos="144" pan="0" len="12" vol="16" />
          <note key="75" pos="384" pan="0" len="12" vol="100" />
          <note key="75" pos="432" pan="0" len="12" vol="62" />
          <note key="75" pos="480" pan="0" len="12" vol="31" />
          <note key="75" pos="528" pan="0" len="12" vol="16" />
          <note key="73" pos="768" pan="0" len="12" vol="100" />
          <note key="73" pos="816" pan="0" len="12" vol="62" />
          <note key="73" pos="864" pan="0" len="12" vol="31" />
          <note key="73" pos="912" pan="0" len="12" vol="16" />
          <note key="70" pos="1152" pan="0" len="12" vol="100" />
          <note key="70" pos="1200" pan="0" len="12" vol="62" />
          <note key="70" pos="1248" pan="0" len="12" vol="31" />
          <note key="70" pos="1296" pan="0" len="12" vol="16" />
        </pattern>
        <pattern pos="109056" muted="0" steps="16" name="" type="1">
          <note key="78" pos="0" pan="0" len="12" vol="100" />
          <note key="78" pos="48" pan="0" len="12" vol="62" />
          <note key="78" pos="96" pan="0" len="12" vol="31" />
          <note key="78" pos="144" pan="0" len="12" vol="16" />
          <note key="75" pos="384" pan="0" len="12" vol="100" />
          <note key="75" pos="432" pan="0" len="12" vol="62" />
          <note key="75" pos="480" pan="0" len="12" vol="31" />
          <note key="75" pos="528" pan="0" len="12" vol="16" />
          <note key="73" pos="768" pan="0" len="12" vol="100" />
          <note key="73" pos="816" pan="0" len="12" vol="62" />
          <note key="73" pos="864" pan="0" len="12" vol="31" />
          <note key="73" pos="912" pan="0" len="12" vol="16" />
          <note key="70" pos="1152" pan="0" len="12" vol="100" />
          <note key="70" pos="1200" pan="0" len="12" vol="62" />
          <note key="70" pos="1248" pan="0" len="12" vol="31" />
          <note key="70" pos="1296" pan="0" len="12" vol="16" />
        </pattern>
        <pattern pos="178188" muted="0" steps="16" name="" type="1">
          <note key="87" pos="0" pan="0" len="144" vol="100" />
          <note key="86" pos="144" pan="0" len="48" vol="100" />
          <note key="87" pos="192" pan="0" len="144" vol="100" />
          <note key="93" pos="336" pan="0" len="48" vol="100" />
          <note key="94" pos="384" pan="0" len="144" vol="100" />
          <note key="98" pos="528" pan="0" len="48" vol="100" />
          <note key="96" pos="576" pan="0" len="96" vol="100" />
          <note key="93" pos="672" pan="0" len="96" vol="100" />
        </pattern>
        <pattern pos="224268" muted="0" steps="16" name="" type="1">
          <note key="94" pos="1488" pan="0" len="24" vol="52" />
          <note key="96" pos="1512" pan="0" len="24" vol="86" />
        </pattern>
        <pattern pos="225804" muted="0" steps="16" name="" type="1">
          <note key="97" pos="0" pan="0" len="24" vol="100" />
          <note key="96" pos="24" pan="0" len="24" vol="100" />
          <note key="96" pos="120" pan="0" len="24" vol="100" />
          <note key="97" pos="144" pan="0" len="24" vol="100" />
          <note key="94" pos="168" pan="0" len="24" vol="100" />
          <note key="96" pos="192" pan="0" len="24" vol="100" />
          <note key="92" pos="216" pan="0" len="24" vol="100" />
          <note key="89" pos="240" pan="0" len="24" vol="100" />
          <note key="96" pos="264" pan="0" len="24" vol="100" />
          <note key="94" pos="288" pan="0" len="60" vol="100" />
          <note key="94" pos="384" pan="0" len="24" vol="100" />
          <note key="92" pos="408" pan="0" len="24" vol="100" />
          <note key="92" pos="504" pan="0" len="24" vol="100" />
          <note key="94" pos="528" pan="0" len="24" vol="100" />
          <note key="90" pos="552" pan="0" len="24" vol="100" />
          <note key="92" pos="576" pan="0" len="48" vol="100" />
          <note key="89" pos="624" pan="0" len="24" vol="100" />
          <note key="85" pos="648" pan="0" len="24" vol="100" />
          <note key="87" pos="672" pan="0" len="48" vol="100" />
          <note key="97" pos="768" pan="0" len="24" vol="100" />
          <note key="96" pos="792" pan="0" len="24" vol="100" />
          <note key="96" pos="888" pan="0" len="24" vol="100" />
          <note key="97" pos="912" pan="0" len="24" vol="100" />
          <note key="94" pos="936" pan="0" len="24" vol="100" />
          <note key="96" pos="960" pan="0" len="48" vol="100" />
          <note key="101" pos="1008" pan="0" len="24" vol="100" />
          <note key="96" pos="1032" pan="0" len="24" vol="100" />
          <note key="94" pos="1056" pan="0" len="60" vol="100" />
          <note key="94" pos="1152" pan="0" len="24" vol="100" />
          <note key="92" pos="1176" pan="0" len="24" vol="100" />
          <note key="92" pos="1272" pan="0" len="24" vol="100" />
          <note key="94" pos="1296" pan="0" len="24" vol="100" />
          <note key="90" pos="1320" pan="0" len="24" vol="100" />
          <note key="92" pos="1344" pan="0" len="48" vol="100" />
          <note key="97" pos="1392" pan="0" len="24" vol="100" />
          <note key="99" pos="1416" pan="0" len="24" vol="100" />
          <note key="96" pos="1440" pan="0" len="48" vol="100" />
        </pattern>
        <pattern pos="227340" muted="0" steps="16" name="" type="1">
          <note key="90" pos="0" pan="0" len="72" vol="100" />
          <note key="82" pos="120" pan="0" len="24" vol="100" />
          <note key="87" pos="144" pan="0" len="24" vol="100" />
          <note key="89" pos="168" pan="0" len="24" vol="100" />
          <note key="90" pos="192" pan="0" len="12" vol="100" />
          <note key="94" pos="264" pan="0" len="12" vol="100" />
          <note key="89" pos="288" pan="0" len="48" vol="100" />
          <note key="85" pos="360" pan="0" len="12" vol="100" />
          <note key="89" pos="384" pan="0" len="60" vol="100" />
          <note key="80" pos="504" pan="0" len="24" vol="100" />
          <note key="85" pos="528" pan="0" len="12" vol="100" />
          <note key="87" pos="552" pan="0" len="24" vol="100" />
          <note key="89" pos="576" pan="0" len="12" vol="100" />
          <note key="92" pos="624" pan="0" len="12" vol="100" />
          <note key="87" pos="672" pan="0" len="12" vol="100" />
          <note key="83" pos="696" pan="0" len="36" vol="100" />
          <note key="87" pos="768" pan="0" len="72" vol="100" />
          <note key="78" pos="888" pan="0" len="24" vol="100" />
          <note key="83" pos="912" pan="0" len="12" vol="100" />
          <note key="85" pos="936" pan="0" len="24" vol="100" />
          <note key="87" pos="960" pan="0" len="12" vol="100" />
          <note key="90" pos="1008" pan="0" len="24" vol="100" />
          <note key="85" pos="1032" pan="0" len="12" vol="100" />
          <note key="82" pos="1080" pan="0" len="12" vol="100" />
          <note key="85" pos="1128" pan="0" len="108" vol="100" />
          <note key="83" pos="1320" pan="0" len="12" vol="100" />
          <note key="82" pos="1332" pan="0" len="12" vol="100" />
          <note key="80" pos="1344" pan="0" len="48" vol="100" />
          <note key="85" pos="1464" pan="0" len="12" vol="100" />
          <note key="87" pos="1488" pan="0" len="24" vol="100" />
          <note key="92" pos="1512" pan="0" len="12" vol="100" />
        </pattern>
        <pattern pos="228876" muted="0" steps="16" name="" type="1">
          <note key="87" pos="0" pan="0" len="72" vol="100" />
          <note key="79" pos="120" pan="0" len="24" vol="100" />
          <note key="84" pos="144" pan="0" len="24" vol="100" />
          <note key="86" pos="168" pan="0" len="24" vol="100" />
          <note key="87" pos="192" pan="0" len="12" vol="100" />
          <note key="91" pos="264" pan="0" len="12" vol="100" />
          <note key="86" pos="288" pan="0" len="48" vol="100" />
          <note key="82" pos="360" pan="0" len="12" vol="100" />
          <note key="86" pos="384" pan="0" len="60" vol="100" />
          <note key="77" pos="504" pan="0" len="24" vol="100" />
          <note key="82" pos="528" pan="0" len="12" vol="100" />
          <note key="84" pos="552" pan="0" len="24" vol="100" />
          <note key="86" pos="576" pan="0" len="12" vol="100" />
          <note key="89" pos="624" pan="0" len="12" vol="100" />
          <note key="84" pos="672" pan="0" len="12" vol="100" />
          <note key="80" pos="696" pan="0" len="36" vol="100" />
          <note key="84" pos="768" pan="0" len="72" vol="100" />
          <note key="75" pos="888" pan="0" len="24" vol="100" />
          <note key="80" pos="912" pan="0" len="12" vol="100" />
          <note key="82" pos="936" pan="0" len="24" vol="100" />
          <note key="84" pos="960" pan="0" len="12" vol="100" />
          <note key="87" pos="1008" pan="0" len="24" vol="100" />
          <note key="82" pos="1032" pan="0" len="12" vol="100" />
          <note key="79" pos="1080" pan="0" len="12" vol="100" />
          <note key="82" pos="1128" pan="0" len="108" vol="100" />
          <note key="80" pos="1320" pan="0" len="12" vol="100" />
          <note key="79" pos="1332" pan="0" len="12" vol="100" />
          <note key="77" pos="1344" pan="0" len="12" vol="100" />
        </pattern>
        <pattern pos="230412" muted="0" steps="16" name="" type="1">
          <note key="94" pos="1488" pan="0" len="24" vol="52" />
          <note key="96" pos="1512" pan="0" len="24" vol="86" />
        </pattern>
        <pattern pos="248460" muted="0" steps="16" name="" type="1">
          <note key="58" pos="0" pan="0" len="96" vol="0" />
          <note key="74" pos="96" pan="0" len="12" vol="100" />
        </pattern>
        <pattern pos="248844" muted="0" steps="16" name="" type="1">
          <note key="82" pos="0" pan="0" len="12" vol="50" />
          <note key="81" pos="48" pan="0" len="12" vol="50" />
          <note key="82" pos="72" pan="0" len="12" vol="50" />
          <note key="81" pos="120" pan="0" len="24" vol="50" />
          <note key="82" pos="168" pan="0" len="24" vol="50" />
          <note key="84" pos="216" pan="0" len="12" vol="50" />
          <note key="81" pos="240" pan="0" len="24" vol="50" />
          <note key="82" pos="288" pan="0" len="24" vol="50" />
          <note key="81" pos="336" pan="0" len="12" vol="50" />
          <note key="82" pos="360" pan="0" len="24" vol="50" />
          <note key="81" pos="408" pan="0" len="12" vol="50" />
          <note key="82" pos="432" pan="0" len="12" vol="50" />
          <note key="77" pos="456" pan="0" len="12" vol="50" />
          <note key="81" pos="480" pan="0" len="24" vol="50" />
          <note key="77" pos="504" pan="0" len="12" vol="50" />
          <note key="81" pos="528" pan="0" len="12" vol="50" />
          <note key="82" pos="576" pan="0" len="12" vol="50" />
          <note key="81" pos="624" pan="0" len="12" vol="50" />
          <note key="82" pos="648" pan="0" len="12" vol="50" />
          <note key="81" pos="696" pan="0" len="24" vol="50" />
          <note key="82" pos="744" pan="0" len="24" vol="50" />
          <note key="84" pos="792" pan="0" len="12" vol="50" />
          <note key="81" pos="816" pan="0" len="24" vol="50" />
          <note key="82" pos="864" pan="0" len="24" vol="50" />
          <note key="81" pos="912" pan="0" len="12" vol="50" />
          <note key="82" pos="936" pan="0" len="24" vol="50" />
          <note key="81" pos="984" pan="0" len="12" vol="50" />
          <note key="82" pos="1008" pan="0" len="12" vol="50" />
          <note key="77" pos="1032" pan="0" len="12" vol="50" />
          <note key="81" pos="1056" pan="0" len="24" vol="50" />
          <note key="77" pos="1080" pan="0" len="12" vol="50" />
          <note key="81" pos="1104" pan="0" len="12" vol="50" />
          <note key="82" pos="1152" pan="0" len="12" vol="50" />
          <note key="81" pos="1200" pan="0" len="12" vol="50" />
          <note key="82" pos="1224" pan="0" len="12" vol="50" />
          <note key="81" pos="1272" pan="0" len="24" vol="50" />
          <note key="82" pos="1320" pan="0" len="24" vol="50" />
          <note key="84" pos="1368" pan="0" len="12" vol="50" />
          <note key="81" pos="1392" pan="0" len="24" vol="50" />
          <note key="82" pos="1440" pan="0" len="24" vol="50" />
          <note key="81" pos="1488" pan="0" len="12" vol="50" />
          <note key="82" pos="1512" pan="0" len="24" vol="50" />
          <note key="81" pos="1560" pan="0" len="12" vol="50" />
          <note key="82" pos="1584" pan="0" len="12" vol="50" />
          <note key="77" pos="1608" pan="0" len="12" vol="50" />
          <note key="81" pos="1632" pan="0" len="24" vol="50" />
          <note key="77" pos="1656" pan="0" len="12" vol="50" />
          <note key="81" pos="1680" pan="0" len="12" vol="50" />
          <note key="82" pos="1728" pan="0" len="12" vol="50" />
          <note key="81" pos="1776" pan="0" len="12" vol="50" />
          <note key="82" pos="1800" pan="0" len="12" vol="50" />
          <note key="81" pos="1848" pan="0" len="24" vol="50" />
          <note key="82" pos="1896" pan="0" len="24" vol="50" />
          <note key="84" pos="1944" pan="0" len="12" vol="50" />
          <note key="81" pos="1968" pan="0" len="24" vol="50" />
          <note key="82" pos="2016" pan="0" len="24" vol="50" />
          <note key="81" pos="2064" pan="0" len="12" vol="50" />
          <note key="82" pos="2088" pan="0" len="24" vol="50" />
          <note key="81" pos="2136" pan="0" len="12" vol="50" />
          <note key="82" pos="2160" pan="0" len="12" vol="50" />
          <note key="77" pos="2184" pan="0" len="12" vol="50" />
          <note key="81" pos="2208" pan="0" len="24" vol="50" />
          <note key="77" pos="2232" pan="0" len="12" vol="50" />
          <note key="81" pos="2256" pan="0" len="12" vol="50" />
        </pattern>
        <pattern pos="251148" muted="0" steps="16" name="" type="1">
          <note key="82" pos="0" pan="0" len="12" vol="50" />
          <note key="81" pos="48" pan="0" len="12" vol="50" />
          <note key="82" pos="72" pan="0" len="12" vol="50" />
          <note key="81" pos="120" pan="0" len="24" vol="50" />
          <note key="82" pos="168" pan="0" len="24" vol="50" />
          <note key="84" pos="216" pan="0" len="12" vol="50" />
          <note key="81" pos="240" pan="0" len="24" vol="50" />
          <note key="82" pos="288" pan="0" len="24" vol="50" />
          <note key="81" pos="336" pan="0" len="12" vol="50" />
          <note key="82" pos="360" pan="0" len="24" vol="50" />
          <note key="81" pos="408" pan="0" len="12" vol="50" />
          <note key="82" pos="432" pan="0" len="12" vol="50" />
          <note key="77" pos="456" pan="0" len="12" vol="50" />
          <note key="81" pos="480" pan="0" len="24" vol="50" />
          <note key="77" pos="504" pan="0" len="12" vol="50" />
          <note key="81" pos="528" pan="0" len="12" vol="50" />
          <note key="82" pos="576" pan="0" len="12" vol="50" />
          <note key="81" pos="624" pan="0" len="12" vol="50" />
          <note key="82" pos="648" pan="0" len="12" vol="50" />
          <note key="81" pos="696" pan="0" len="24" vol="50" />
          <note key="82" pos="744" pan="0" len="24" vol="50" />
          <note key="84" pos="792" pan="0" len="12" vol="50" />
          <note key="81" pos="816" pan="0" len="24" vol="50" />
          <note key="82" pos="864" pan="0" len="24" vol="50" />
          <note key="81" pos="912" pan="0" len="12" vol="50" />
          <note key="82" pos="936" pan="0" len="24" vol="50" />
          <note key="81" pos="984" pan="0" len="12" vol="50" />
          <note key="82" pos="1008" pan="0" len="12" vol="50" />
          <note key="77" pos="1032" pan="0" len="12" vol="50" />
          <note key="81" pos="1056" pan="0" len="24" vol="50" />
          <note key="77" pos="1080" pan="0" len="12" vol="50" />
          <note key="81" pos="1104" pan="0" len="12" vol="50" />
          <note key="82" pos="1152" pan="0" len="12" vol="50" />
          <note key="81" pos="1200" pan="0" len="12" vol="50" />
          <note key="82" pos="1224" pan="0" len="12" vol="50" />
          <note key="81" pos="1272" pan="0" len="24" vol="50" />
          <note key="82" pos="1320" pan="0" len="24" vol="50" />
          <note key="84" pos="1368" pan="0" len="12" vol="50" />
          <note key="81" pos="1392" pan="0" len="24" vol="50" />
          <note key="82" pos="1440" pan="0" len="24" vol="50" />
          <note key="81" pos="1488" pan="0" len="12" vol="50" />
          <note key="82" pos="1512" pan="0" len="24" vol="50" />
          <note key="81" pos="1560" pan="0" len="12" vol="50" />
          <note key="82" pos="1584" pan="0" len="12" vol="50" />
          <note key="77" pos="1608" pan="0" len="12" vol="50" />
          <note key="81" pos="1632" pan="0" len="24" vol="50" />
          <note key="77" pos="1656" pan="0" len="12" vol="50" />
          <note key="81" pos="1680" pan="0" len="12" vol="50" />
          <note key="82" pos="1728" pan="0" len="12" vol="50" />
          <note key="81" pos="1776" pan="0" len="12" vol="50" />
          <note key="82" pos="1800" pan="0" len="12" vol="50" />
          <note key="81" pos="1848" pan="0" len="24" vol="50" />
          <note key="82" pos="1896" pan="0" len="24" vol="50" />
          <note key="84" pos="1944" pan="0" len="12" vol="50" />
          <note key="81" pos="1968" pan="0" len="24" vol="50" />
          <note key="82" pos="2016" pan="0" len="24" vol="50" />
          <note key="81" pos="2064" pan="0" len="12" vol="50" />
          <note key="82" pos="2088" pan="0" len="24" vol="50" />
          <note key="81" pos="2136" pan="0" len="12" vol="50" />
          <note key="82" pos="2160" pan="0" len="12" vol="50" />
          <note key="77" pos="2184" pan="0" len="12" vol="50" />
          <note key="81" pos="2208" pan="0" len="24" vol="50" />
          <note key="77" pos="2232" pan="0" len="12" vol="50" />
          <note key="81" pos="2256" pan="0" len="12" vol="50" />
        </pattern>
        <pattern pos="253452" muted="0" steps="16" name="" type="1">
          <note key="82" pos="0" pan="0" len="12" vol="50" />
          <note key="81" pos="48" pan="0" len="12" vol="50" />
          <note key="82" pos="72" pan="0" len="12" vol="50" />
          <note key="81" pos="120" pan="0" len="24" vol="50" />
          <note key="82" pos="168" pan="0" len="24" vol="50" />
          <note key="86" pos="216" pan="0" len="12" vol="50" />
          <note key="79" pos="240" pan="0" len="24" vol="50" />
          <note key="82" pos="288" pan="0" len="24" vol="50" />
          <note key="81" pos="336" pan="0" len="12" vol="50" />
          <note key="82" pos="360" pan="0" len="24" vol="50" />
          <note key="81" pos="408" pan="0" len="12" vol="50" />
          <note key="82" pos="432" pan="0" len="12" vol="50" />
          <note key="77" pos="456" pan="0" len="12" vol="50" />
          <note key="81" pos="480" pan="0" len="24" vol="50" />
          <note key="77" pos="504" pan="0" len="12" vol="50" />
          <note key="81" pos="528" pan="0" len="12" vol="50" />
          <note key="82" pos="576" pan="0" len="12" vol="50" />
          <note key="81" pos="624" pan="0" len="12" vol="50" />
          <note key="82" pos="648" pan="0" len="12" vol="50" />
          <note key="81" pos="696" pan="0" len="24" vol="50" />
          <note key="82" pos="744" pan="0" len="24" vol="50" />
          <note key="84" pos="792" pan="0" len="12" vol="50" />
          <note key="81" pos="816" pan="0" len="24" vol="50" />
          <note key="86" pos="864" pan="0" len="24" vol="50" />
          <note key="81" pos="912" pan="0" len="12" vol="50" />
          <note key="82" pos="936" pan="0" len="24" vol="50" />
          <note key="81" pos="984" pan="0" len="12" vol="50" />
          <note key="82" pos="1008" pan="0" len="12" vol="50" />
          <note key="77" pos="1032" pan="0" len="12" vol="50" />
          <note key="82" pos="1056" pan="0" len="24" vol="50" />
          <note key="81" pos="1080" pan="0" len="12" vol="50" />
          <note key="82" pos="1104" pan="0" len="12" vol="50" />
          <note key="82" pos="1152" pan="0" len="12" vol="50" />
          <note key="81" pos="1200" pan="0" len="12" vol="50" />
          <note key="82" pos="1224" pan="0" len="12" vol="50" />
          <note key="81" pos="1272" pan="0" len="24" vol="50" />
          <note key="82" pos="1320" pan="0" len="24" vol="50" />
          <note key="86" pos="1368" pan="0" len="12" vol="50" />
          <note key="79" pos="1392" pan="0" len="24" vol="50" />
          <note key="82" pos="1440" pan="0" len="24" vol="50" />
          <note key="81" pos="1488" pan="0" len="12" vol="50" />
          <note key="82" pos="1512" pan="0" len="24" vol="50" />
          <note key="81" pos="1560" pan="0" len="12" vol="50" />
          <note key="82" pos="1584" pan="0" len="12" vol="50" />
          <note key="77" pos="1608" pan="0" len="12" vol="50" />
          <note key="81" pos="1632" pan="0" len="24" vol="50" />
          <note key="77" pos="1656" pan="0" len="12" vol="50" />
          <note key="81" pos="1680" pan="0" len="12" vol="50" />
          <note key="82" pos="1728" pan="0" len="12" vol="50" />
          <note key="81" pos="1776" pan="0" len="12" vol="50" />
          <note key="82" pos="1800" pan="0" len="12" vol="50" />
          <note key="81" pos="1848" pan="0" len="24" vol="50" />
          <note key="82" pos="1896" pan="0" len="24" vol="50" />
          <note key="84" pos="1944" pan="0" len="12" vol="50" />
          <note key="81" pos="1968" pan="0" len="24" vol="50" />
          <note key="82" pos="2016" pan="0" len="12" vol="50" />
          <note key="81" pos="2064" pan="0" len="12" vol="50" />
          <note key="82" pos="2088" pan="0" len="12" vol="50" />
          <note key="81" pos="2136" pan="0" len="24" vol="50" />
          <note key="82" pos="2184" pan="0" len="24" vol="50" />
          <note key="84" pos="2232" pan="0" len="12" vol="50" />
          <note key="81" pos="2256" pan="0" len="24" vol="50" />
        </pattern>
        <pattern pos="255756" muted="0" steps="16" name="" type="1">
          <note key="82" pos="0" pan="0" len="12" vol="50" />
          <note key="81" pos="48" pan="0" len="12" vol="50" />
          <note key="82" pos="72" pan="0" len="12" vol="50" />
          <note key="81" pos="120" pan="0" len="24" vol="50" />
          <note key="82" pos="168" pan="0" len="24" vol="50" />
          <note key="86" pos="216" pan="0" len="12" vol="50" />
          <note key="79" pos="240" pan="0" len="24" vol="50" />
          <note key="82" pos="288" pan="0" len="24" vol="50" />
          <note key="81" pos="336" pan="0" len="12" vol="50" />
          <note key="82" pos="360" pan="0" len="24" vol="50" />
          <note key="81" pos="408" pan="0" len="12" vol="50" />
          <note key="82" pos="432" pan="0" len="12" vol="50" />
          <note key="77" pos="456" pan="0" len="12" vol="50" />
          <note key="81" pos="480" pan="0" len="24" vol="50" />
          <note key="77" pos="504" pan="0" len="12" vol="50" />
          <note key="81" pos="528" pan="0" len="12" vol="50" />
          <note key="82" pos="576" pan="0" len="12" vol="50" />
          <note key="81" pos="624" pan="0" len="12" vol="50" />
          <note key="82" pos="648" pan="0" len="12" vol="50" />
          <note key="81" pos="696" pan="0" len="24" vol="50" />
          <note key="82" pos="744" pan="0" len="24" vol="50" />
          <note key="84" pos="792" pan="0" len="12" vol="50" />
          <note key="81" pos="816" pan="0" len="24" vol="50" />
          <note key="86" pos="864" pan="0" len="24" vol="50" />
          <note key="81" pos="912" pan="0" len="12" vol="50" />
          <note key="82" pos="936" pan="0" len="24" vol="50" />
          <note key="81" pos="984" pan="0" len="12" vol="50" />
          <note key="82" pos="1008" pan="0" len="12" vol="50" />
          <note key="77" pos="1032" pan="0" len="12" vol="50" />
          <note key="82" pos="1056" pan="0" len="24" vol="50" />
          <note key="81" pos="1080" pan="0" len="12" vol="50" />
          <note key="82" pos="1104" pan="0" len="12" vol="50" />
          <note key="82" pos="1152" pan="0" len="12" vol="50" />
          <note key="81" pos="1200" pan="0" len="12" vol="50" />
          <note key="82" pos="1224" pan="0" len="12" vol="50" />
          <note key="81" pos="1272" pan="0" len="24" vol="50" />
          <note key="82" pos="1320" pan="0" len="24" vol="50" />
          <note key="86" pos="1368" pan="0" len="12" vol="50" />
          <note key="79" pos="1392" pan="0" len="24" vol="50" />
          <note key="82" pos="1440" pan="0" len="24" vol="50" />
          <note key="81" pos="1488" pan="0" len="12" vol="50" />
          <note key="82" pos="1512" pan="0" len="24" vol="50" />
          <note key="81" pos="1560" pan="0" len="12" vol="50" />
          <note key="82" pos="1584" pan="0" len="12" vol="50" />
          <note key="77" pos="1608" pan="0" len="12" vol="50" />
          <note key="81" pos="1632" pan="0" len="24" vol="50" />
          <note key="77" pos="1656" pan="0" len="12" vol="50" />
          <note key="81" pos="1680" pan="0" len="12" vol="50" />
          <note key="82" pos="1728" pan="0" len="12" vol="50" />
          <note key="81" pos="1776" pan="0" len="12" vol="50" />
          <note key="82" pos="1800" pan="0" len="12" vol="50" />
          <note key="81" pos="1848" pan="0" len="24" vol="50" />
          <note key="82" pos="1896" pan="0" len="24" vol="50" />
          <note key="84" pos="1944" pan="0" len="12" vol="50" />
          <note key="81" pos="1968" pan="0" len="24" vol="50" />
          <note key="82" pos="2016" pan="0" len="12" vol="50" />
          <note key="81" pos="2064" pan="0" len="12" vol="50" />
          <note key="82" pos="2088" pan="0" len="12" vol="50" />
          <note key="81" pos="2136" pan="0" len="24" vol="50" />
          <note key="82" pos="2184" pan="0" len="24" vol="50" />
          <note key="84" pos="2232" pan="0" len="12" vol="50" />
          <note key="81" pos="2256" pan="0" len="24" vol="50" />
        </pattern>
        <pattern pos="267276" muted="0" steps="16" name="" type="1">
          <note key="82" pos="24" pan="0" len="12" vol="100" />
          <note key="79" pos="48" pan="0" len="12" vol="100" />
          <note key="74" pos="72" pan="0" len="12" vol="100" />
          <note key="81" pos="96" pan="0" len="24" vol="100" />
          <note key="77" pos="144" pan="0" len="24" vol="100" />
          <note key="72" pos="192" pan="0" len="12" vol="100" />
          <note key="77" pos="216" pan="0" len="12" vol="100" />
          <note key="74" pos="240" pan="0" len="12" vol="100" />
          <note key="70" pos="264" pan="0" len="12" vol="100" />
          <note key="76" pos="288" pan="0" len="24" vol="100" />
          <note key="72" pos="336" pan="0" len="24" vol="100" />
          <note key="67" pos="384" pan="0" len="12" vol="100" />
          <note key="70" pos="408" pan="0" len="24" vol="100" />
          <note key="69" pos="432" pan="0" len="24" vol="100" />
          <note key="67" pos="456" pan="0" len="24" vol="100" />
        </pattern>
        <pattern pos="271692" muted="0" steps="16" name="" type="1">
          <note key="76" pos="0" pan="0" len="12" vol="100" />
          <note key="71" pos="12" pan="0" len="12" vol="47" />
          <note key="76" pos="24" pan="0" len="12" vol="62" />
          <note key="78" pos="36" pan="0" len="12" vol="100" />
          <note key="80" pos="48" pan="0" len="12" vol="47" />
          <note key="83" pos="60" pan="0" len="12" vol="62" />
          <note key="82" pos="72" pan="0" len="12" vol="100" />
          <note key="78" pos="96" pan="0" len="24" vol="100" />
          <note key="80" pos="120" pan="0" len="24" vol="100" />
          <note key="73" pos="144" pan="0" len="12" vol="100" />
          <note key="70" pos="156" pan="0" len="12" vol="100" />
          <note key="73" pos="168" pan="0" len="12" vol="100" />
          <note key="71" pos="180" pan="0" len="12" vol="100" />
          <note key="76" pos="216" pan="0" len="12" vol="100" />
          <note key="78" pos="228" pan="0" len="12" vol="100" />
          <note key="76" pos="240" pan="0" len="12" vol="100" />
          <note key="71" pos="252" pan="0" len="12" vol="100" />
          <note key="71" pos="288" pan="0" len="12" vol="100" />
          <note key="70" pos="300" pan="0" len="12" vol="47" />
          <note key="66" pos="312" pan="0" len="12" vol="62" />
          <note key="68" pos="324" pan="0" len="12" vol="100" />
          <note key="73" pos="360" pan="0" len="12" vol="100" />
          <note key="75" pos="384" pan="0" len="12" vol="62" />
          <note key="76" pos="408" pan="0" len="12" vol="100" />
          <note key="80" pos="432" pan="0" len="12" vol="100" />
          <note key="76" pos="444" pan="0" len="12" vol="47" />
          <note key="80" pos="456" pan="0" len="12" vol="62" />
          <note key="82" pos="468" pan="0" len="36" vol="100" />
          <note key="76" pos="576" pan="0" len="12" vol="100" />
          <note key="71" pos="588" pan="0" len="12" vol="47" />
          <note key="76" pos="600" pan="0" len="12" vol="62" />
          <note key="78" pos="612" pan="0" len="12" vol="100" />
          <note key="80" pos="624" pan="0" len="12" vol="47" />
          <note key="83" pos="636" pan="0" len="12" vol="62" />
          <note key="82" pos="648" pan="0" len="12" vol="100" />
          <note key="78" pos="672" pan="0" len="24" vol="100" />
          <note key="80" pos="696" pan="0" len="24" vol="100" />
          <note key="73" pos="720" pan="0" len="12" vol="100" />
          <note key="70" pos="732" pan="0" len="12" vol="100" />
          <note key="73" pos="744" pan="0" len="12" vol="100" />
          <note key="71" pos="756" pan="0" len="12" vol="100" />
          <note key="76" pos="792" pan="0" len="12" vol="100" />
          <note key="78" pos="804" pan="0" len="12" vol="100" />
          <note key="76" pos="816" pan="0" len="12" vol="100" />
          <note key="71" pos="828" pan="0" len="12" vol="100" />
          <note key="71" pos="864" pan="0" len="12" vol="100" />
          <note key="70" pos="876" pan="0" len="12" vol="47" />
          <note key="66" pos="888" pan="0" len="12" vol="62" />
          <note key="68" pos="900" pan="0" len="12" vol="100" />
          <note key="73" pos="936" pan="0" len="12" vol="100" />
          <note key="75" pos="960" pan="0" len="12" vol="62" />
          <note key="76" pos="984" pan="0" len="12" vol="100" />
          <note key="80" pos="1008" pan="0" len="12" vol="100" />
          <note key="76" pos="1020" pan="0" len="12" vol="47" />
          <note key="80" pos="1032" pan="0" len="12" vol="62" />
          <note key="82" pos="1044" pan="0" len="36" vol="100" />
        </pattern>
      </track>
      <track solo="0" name="1 (Ch6)" type="0" muted="0">
        <instrumenttrack usemasterpitch="1" pitch="0.0" basenote="57" pan="0" pitchrange="12" vol="30">
          <eldata />
          <instrument name="tripleoscillator" />
        </instrumenttrack>
        <pattern pos="248460" muted="0" steps="16" name="" type="1">
          <note key="70" pos="96" pan="0" len="12" vol="100" />
        </pattern>
        <pattern pos="35328" muted="0" steps="16" name="" type="1">
          <note key="72" pos="0" pan="0" len="24" vol="0" />
          <note key="72" pos="48" pan="0" len="24" vol="5" />
          <note key="72" pos="96" pan="0" len="24" vol="9" />
          <note key="72" pos="144" pan="0" len="24" vol="17" />
          <note key="72" pos="192" pan="0" len="24" vol="27" />
          <note key="72" pos="240" pan="0" len="24" vol="22" />
          <note key="72" pos="288" pan="0" len="24" vol="20" />
          <note key="72" pos="336" pan="0" len="24" vol="16" />
          <note key="72" pos="384" pan="0" len="24" vol="17" />
          <note key="72" pos="432" pan="0" len="24" vol="30" />
          <note key="72" pos="480" pan="0" len="24" vol="44" />
          <note key="72" pos="528" pan="0" len="24" vol="61" />
          <note key="72" pos="576" pan="0" len="24" vol="77" />
          <note key="72" pos="624" pan="0" len="24" vol="56" />
          <note key="72" pos="672" pan="0" len="24" vol="45" />
          <note key="72" pos="720" pan="0" len="24" vol="33" />
          <note key="72" pos="768" pan="0" len="24" vol="34" />
          <note key="72" pos="816" pan="0" len="24" vol="52" />
          <note key="72" pos="864" pan="0" len="24" vol="69" />
          <note key="72" pos="912" pan="0" len="24" vol="86" />
          <note key="72" pos="960" pan="0" len="24" vol="100" />
          <note key="72" pos="1008" pan="0" len="24" vol="69" />
          <note key="72" pos="1056" pan="0" len="24" vol="52" />
          <note key="72" pos="1104" pan="0" len="24" vol="34" />
          <note key="72" pos="1152" pan="0" len="24" vol="34" />
          <note key="72" pos="1200" pan="0" len="24" vol="52" />
          <note key="72" pos="1248" pan="0" len="24" vol="69" />
          <note key="72" pos="1296" pan="0" len="24" vol="86" />
          <note key="72" pos="1344" pan="0" len="24" vol="100" />
          <note key="72" pos="1392" pan="0" len="24" vol="69" />
          <note key="72" pos="1440" pan="0" len="24" vol="52" />
          <note key="72" pos="1488" pan="0" len="24" vol="34" />
        </pattern>
        <pattern pos="36864" muted="0" steps="16" name="" type="1">
          <note key="72" pos="0" pan="0" len="24" vol="34" />
          <note key="72" pos="48" pan="0" len="24" vol="52" />
          <note key="72" pos="96" pan="0" len="24" vol="69" />
          <note key="72" pos="144" pan="0" len="24" vol="86" />
          <note key="72" pos="192" pan="0" len="24" vol="100" />
          <note key="72" pos="240" pan="0" len="24" vol="69" />
          <note key="72" pos="288" pan="0" len="24" vol="52" />
          <note key="72" pos="336" pan="0" len="24" vol="34" />
          <note key="72" pos="384" pan="0" len="24" vol="34" />
          <note key="72" pos="432" pan="0" len="24" vol="52" />
          <note key="72" pos="480" pan="0" len="24" vol="69" />
          <note key="72" pos="528" pan="0" len="24" vol="86" />
          <note key="72" pos="576" pan="0" len="24" vol="100" />
          <note key="72" pos="624" pan="0" len="24" vol="69" />
          <note key="72" pos="672" pan="0" len="24" vol="52" />
          <note key="72" pos="720" pan="0" len="24" vol="34" />
          <note key="72" pos="768" pan="0" len="24" vol="34" />
          <note key="72" pos="816" pan="0" len="24" vol="52" />
          <note key="72" pos="864" pan="0" len="24" vol="69" />
          <note key="72" pos="912" pan="0" len="24" vol="86" />
          <note key="72" pos="960" pan="0" len="24" vol="100" />
          <note key="72" pos="1008" pan="0" len="24" vol="69" />
          <note key="72" pos="1056" pan="0" len="24" vol="52" />
          <note key="72" pos="1104" pan="0" len="24" vol="34" />
          <note key="72" pos="1152" pan="0" len="24" vol="34" />
          <note key="72" pos="1200" pan="0" len="24" vol="52" />
          <note key="72" pos="1248" pan="0" len="24" vol="69" />
          <note key="72" pos="1296" pan="0" len="24" vol="86" />
          <note key="72" pos="1344" pan="0" len="24" vol="100" />
          <note key="72" pos="1392" pan="0" len="24" vol="69" />
          <note key="72" pos="1440" pan="0" len="24" vol="52" />
          <note key="72" pos="1488" pan="0" len="24" vol="34" />
        </pattern>
        <pattern pos="38400" muted="0" steps="16" name="" type="1">
          <note key="72" pos="0" pan="0" len="24" vol="34" />
          <note key="72" pos="48" pan="0" len="24" vol="52" />
          <note key="72" pos="96" pan="0" len="24" vol="69" />
          <note key="72" pos="144" pan="0" len="24" vol="86" />
          <note key="74" pos="192" pan="0" len="24" vol="100" />
          <note key="74" pos="240" pan="0" len="24" vol="69" />
          <note key="74" pos="288" pan="0" len="24" vol="52" />
          <note key="74" pos="336" pan="0" len="24" vol="34" />
          <note key="72" pos="384" pan="0" len="24" vol="34" />
          <note key="72" pos="432" pan="0" len="24" vol="52" />
          <note key="72" pos="480" pan="0" len="24" vol="69" />
          <note key="72" pos="528" pan="0" len="24" vol="86" />
          <note key="74" pos="576" pan="0" len="24" vol="100" />
          <note key="74" pos="624" pan="0" len="24" vol="69" />
          <note key="74" pos="672" pan="0" len="24" vol="52" />
          <note key="74" pos="720" pan="0" len="24" vol="34" />
          <note key="72" pos="768" pan="0" len="24" vol="34" />
          <note key="72" pos="816" pan="0" len="24" vol="52" />
          <note key="72" pos="864" pan="0" len="24" vol="69" />
          <note key="72" pos="912" pan="0" len="24" vol="86" />
          <note key="74" pos="960" pan="0" len="24" vol="100" />
          <note key="74" pos="1008" pan="0" len="24" vol="69" />
          <note key="74" pos="1056" pan="0" len="24" vol="52" />
          <note key="74" pos="1104" pan="0" len="24" vol="34" />
          <note key="75" pos="1152" pan="0" len="24" vol="34" />
          <note key="75" pos="1200" pan="0" len="24" vol="52" />
          <note key="75" pos="1248" pan="0" len="24" vol="69" />
          <note key="75" pos="1296" pan="0" len="24" vol="86" />
          <note key="77" pos="1344" pan="0" len="24" vol="100" />
          <note key="77" pos="1392" pan="0" len="24" vol="69" />
          <note key="77" pos="1440" pan="0" len="24" vol="52" />
          <note key="77" pos="1488" pan="0" len="24" vol="34" />
        </pattern>
        <pattern pos="39936" muted="0" steps="16" name="" type="1">
          <note key="77" pos="0" pan="0" len="24" vol="34" />
          <note key="77" pos="48" pan="0" len="24" vol="52" />
          <note key="77" pos="96" pan="0" len="24" vol="69" />
          <note key="77" pos="144" pan="0" len="24" vol="86" />
          <note key="77" pos="192" pan="0" len="24" vol="100" />
          <note key="77" pos="240" pan="0" len="24" vol="69" />
          <note key="77" pos="288" pan="0" len="24" vol="52" />
          <note key="77" pos="336" pan="0" len="24" vol="34" />
          <note key="77" pos="384" pan="0" len="24" vol="34" />
          <note key="77" pos="432" pan="0" len="24" vol="52" />
          <note key="77" pos="480" pan="0" len="24" vol="69" />
          <note key="77" pos="528" pan="0" len="24" vol="86" />
          <note key="77" pos="576" pan="0" len="24" vol="100" />
          <note key="77" pos="624" pan="0" len="24" vol="69" />
          <note key="77" pos="672" pan="0" len="24" vol="52" />
          <note key="77" pos="720" pan="0" len="24" vol="34" />
          <note key="77" pos="768" pan="0" len="24" vol="34" />
          <note key="77" pos="816" pan="0" len="24" vol="52" />
          <note key="77" pos="864" pan="0" len="24" vol="69" />
          <note key="77" pos="912" pan="0" len="24" vol="86" />
          <note key="77" pos="960" pan="0" len="24" vol="100" />
          <note key="77" pos="1008" pan="0" len="24" vol="69" />
          <note key="77" pos="1056" pan="0" len="24" vol="52" />
          <note key="77" pos="1104" pan="0" len="24" vol="34" />
          <note key="77" pos="1152" pan="0" len="24" vol="34" />
          <note key="77" pos="1200" pan="0" len="24" vol="52" />
          <note key="77" pos="1248" pan="0" len="24" vol="69" />
          <note key="77" pos="1296" pan="0" len="24" vol="86" />
          <note key="77" pos="1344" pan="0" len="24" vol="100" />
          <note key="77" pos="1392" pan="0" len="24" vol="69" />
          <note key="77" pos="1440" pan="0" len="24" vol="52" />
          <note key="77" pos="1488" pan="0" len="24" vol="34" />
        </pattern>
        <pattern pos="41472" muted="0" steps="16" name="" type="1">
          <note key="75" pos="0" pan="0" len="24" vol="34" />
          <note key="75" pos="48" pan="0" len="24" vol="52" />
          <note key="75" pos="96" pan="0" len="24" vol="69" />
          <note key="75" pos="144" pan="0" len="24" vol="86" />
          <note key="78" pos="192" pan="0" len="24" vol="100" />
          <note key="78" pos="240" pan="0" len="24" vol="69" />
          <note key="78" pos="288" pan="0" len="24" vol="52" />
          <note key="78" pos="336" pan="0" len="24" vol="34" />
          <note key="75" pos="384" pan="0" len="24" vol="34" />
          <note key="75" pos="432" pan="0" len="24" vol="52" />
          <note key="75" pos="480" pan="0" len="24" vol="69" />
          <note key="75" pos="528" pan="0" len="24" vol="86" />
          <note key="78" pos="576" pan="0" len="24" vol="100" />
          <note key="78" pos="624" pan="0" len="24" vol="69" />
          <note key="78" pos="672" pan="0" len="24" vol="52" />
          <note key="78" pos="720" pan="0" len="24" vol="34" />
          <note key="75" pos="768" pan="0" len="24" vol="34" />
          <note key="75" pos="816" pan="0" len="24" vol="52" />
          <note key="75" pos="864" pan="0" len="24" vol="69" />
          <note key="75" pos="912" pan="0" len="24" vol="86" />
          <note key="78" pos="960" pan="0" len="24" vol="100" />
          <note key="78" pos="1008" pan="0" len="24" vol="69" />
          <note key="78" pos="1056" pan="0" len="24" vol="52" />
          <note key="78" pos="1104" pan="0" len="24" vol="34" />
          <note key="75" pos="1152" pan="0" len="24" vol="34" />
          <note key="75" pos="1200" pan="0" len="24" vol="52" />
          <note key="75" pos="1248" pan="0" len="24" vol="69" />
          <note key="75" pos="1296" pan="0" len="24" vol="86" />
          <note key="78" pos="1344" pan="0" len="24" vol="100" />
          <note key="78" pos="1392" pan="0" len="24" vol="69" />
          <note key="78" pos="1440" pan="0" len="24" vol="52" />
          <note key="78" pos="1488" pan="0" len="24" vol="34" />
        </pattern>
        <pattern pos="43008" muted="0" steps="16" name="" type="1">
          <note key="72" pos="0" pan="0" len="24" vol="34" />
          <note key="72" pos="48" pan="0" len="24" vol="52" />
          <note key="72" pos="96" pan="0" len="24" vol="69" />
          <note key="72" pos="144" pan="0" len="24" vol="86" />
          <note key="72" pos="192" pan="0" len="24" vol="100" />
          <note key="72" pos="240" pan="0" len="24" vol="69" />
          <note key="72" pos="288" pan="0" len="24" vol="52" />
          <note key="72" pos="336" pan="0" len="24" vol="34" />
          <note key="72" pos="384" pan="0" len="24" vol="34" />
          <note key="72" pos="432" pan="0" len="24" vol="52" />
          <note key="72" pos="480" pan="0" len="24" vol="69" />
          <note key="72" pos="528" pan="0" len="24" vol="86" />
          <note key="72" pos="576" pan="0" len="24" vol="100" />
          <note key="72" pos="624" pan="0" len="24" vol="69" />
          <note key="72" pos="672" pan="0" len="24" vol="52" />
          <note key="72" pos="720" pan="0" len="24" vol="34" />
          <note key="72" pos="768" pan="0" len="24" vol="34" />
          <note key="72" pos="816" pan="0" len="24" vol="52" />
          <note key="72" pos="864" pan="0" len="24" vol="69" />
          <note key="72" pos="912" pan="0" len="24" vol="86" />
          <note key="72" pos="960" pan="0" len="24" vol="100" />
          <note key="72" pos="1008" pan="0" len="24" vol="69" />
          <note key="72" pos="1056" pan="0" len="24" vol="52" />
          <note key="72" pos="1104" pan="0" len="24" vol="34" />
          <note key="72" pos="1152" pan="0" len="24" vol="34" />
          <note key="72" pos="1200" pan="0" len="24" vol="52" />
          <note key="72" pos="1248" pan="0" len="24" vol="69" />
          <note key="72" pos="1296" pan="0" len="24" vol="86" />
          <note key="72" pos="1344" pan="0" len="24" vol="100" />
          <note key="72" pos="1392" pan="0" len="24" vol="69" />
          <note key="72" pos="1440" pan="0" len="24" vol="52" />
          <note key="72" pos="1488" pan="0" len="24" vol="34" />
        </pattern>
        <pattern pos="54528" muted="0" steps="16" name="" type="1">
          <note key="83" pos="312" pan="0" len="12" vol="100" />
        </pattern>
        <pattern pos="58752" muted="0" steps="16" name="" type="1">
          <note key="88" pos="252" pan="0" len="12" vol="100" />
        </pattern>
        <pattern pos="62208" muted="0" steps="16" name="" type="1">
          <note key="79" pos="252" pan="0" len="12" vol="100" />
          <note key="79" pos="828" pan="0" len="12" vol="100" />
        </pattern>
        <pattern pos="69120" muted="0" steps="16" name="" type="1">
          <note key="89" pos="1116" pan="0" len="36" vol="100" />
          <note key="91" pos="1152" pan="0" len="36" vol="100" />
          <note key="88" pos="1188" pan="0" len="36" vol="100" />
          <note key="89" pos="1224" pan="0" len="36" vol="100" />
          <note key="86" pos="1260" pan="0" len="36" vol="100" />
          <note key="88" pos="1296" pan="0" len="24" vol="100" />
          <note key="89" pos="1404" pan="0" len="12" vol="100" />
          <note key="91" pos="1440" pan="0" len="12" vol="100" />
          <note key="88" pos="1476" pan="0" len="12" vol="100" />
          <note key="89" pos="1512" pan="0" len="12" vol="100" />
          <note key="84" pos="1548" pan="0" len="12" vol="100" />
          <note key="83" pos="1584" pan="0" len="12" vol="100" />
          <note key="93" pos="1692" pan="0" len="12" vol="100" />
          <note key="95" pos="1728" pan="0" len="12" vol="100" />
          <note key="91" pos="1764" pan="0" len="12" vol="100" />
          <note key="93" pos="1800" pan="0" len="12" vol="100" />
          <note key="89" pos="1836" pan="0" len="12" vol="100" />
          <note key="88" pos="1872" pan="0" len="12" vol="100" />
          <note key="84" pos="1908" pan="0" len="12" vol="100" />
          <note key="88" pos="1944" pan="0" len="12" vol="100" />
          <note key="84" pos="1980" pan="0" len="12" vol="100" />
          <note key="88" pos="2016" pan="0" len="12" vol="100" />
          <note key="84" pos="2052" pan="0" len="12" vol="100" />
          <note key="88" pos="2088" pan="0" len="12" vol="100" />
          <note key="84" pos="2124" pan="0" len="12" vol="100" />
          <note key="83" pos="2160" pan="0" len="12" vol="100" />
        </pattern>
        <pattern pos="71424" muted="0" steps="16" name="" type="1">
          <note key="89" pos="1116" pan="0" len="36" vol="100" />
          <note key="91" pos="1152" pan="0" len="36" vol="100" />
          <note key="88" pos="1188" pan="0" len="36" vol="100" />
          <note key="89" pos="1224" pan="0" len="36" vol="100" />
          <note key="86" pos="1260" pan="0" len="36" vol="100" />
          <note key="88" pos="1296" pan="0" len="24" vol="100" />
          <note key="89" pos="1404" pan="0" len="12" vol="100" />
          <note key="91" pos="1440" pan="0" len="12" vol="100" />
          <note key="88" pos="1476" pan="0" len="12" vol="100" />
          <note key="89" pos="1512" pan="0" len="12" vol="100" />
          <note key="84" pos="1548" pan="0" len="12" vol="100" />
          <note key="83" pos="1584" pan="0" len="12" vol="100" />
          <note key="93" pos="1692" pan="0" len="12" vol="100" />
          <note key="95" pos="1728" pan="0" len="12" vol="100" />
          <note key="91" pos="1764" pan="0" len="12" vol="100" />
          <note key="93" pos="1800" pan="0" len="12" vol="100" />
          <note key="89" pos="1836" pan="0" len="12" vol="100" />
          <note key="88" pos="1872" pan="0" len="12" vol="100" />
          <note key="84" pos="1908" pan="0" len="12" vol="100" />
          <note key="88" pos="1944" pan="0" len="12" vol="100" />
          <note key="84" pos="1980" pan="0" len="12" vol="100" />
          <note key="88" pos="2016" pan="0" len="12" vol="100" />
          <note key="84" pos="2052" pan="0" len="12" vol="100" />
          <note key="88" pos="2088" pan="0" len="12" vol="100" />
          <note key="84" pos="2124" pan="0" len="12" vol="100" />
          <note key="83" pos="2160" pan="0" len="12" vol="100" />
        </pattern>
        <pattern pos="80640" muted="0" steps="16" name="" type="1">
          <note key="89" pos="1116" pan="0" len="36" vol="100" />
          <note key="91" pos="1152" pan="0" len="36" vol="100" />
          <note key="88" pos="1188" pan="0" len="36" vol="100" />
          <note key="89" pos="1224" pan="0" len="36" vol="100" />
          <note key="86" pos="1260" pan="0" len="36" vol="100" />
          <note key="88" pos="1296" pan="0" len="24" vol="100" />
          <note key="89" pos="1404" pan="0" len="12" vol="100" />
          <note key="91" pos="1440" pan="0" len="12" vol="100" />
          <note key="88" pos="1476" pan="0" len="12" vol="100" />
          <note key="89" pos="1512" pan="0" len="12" vol="100" />
          <note key="84" pos="1548" pan="0" len="12" vol="100" />
          <note key="83" pos="1584" pan="0" len="12" vol="100" />
          <note key="93" pos="1692" pan="0" len="12" vol="100" />
          <note key="95" pos="1728" pan="0" len="12" vol="100" />
          <note key="91" pos="1764" pan="0" len="12" vol="100" />
          <note key="93" pos="1800" pan="0" len="12" vol="100" />
          <note key="89" pos="1836" pan="0" len="12" vol="100" />
          <note key="88" pos="1872" pan="0" len="12" vol="100" />
          <note key="84" pos="1908" pan="0" len="12" vol="100" />
          <note key="88" pos="1944" pan="0" len="12" vol="100" />
          <note key="84" pos="1980" pan="0" len="12" vol="100" />
          <note key="88" pos="2016" pan="0" len="12" vol="100" />
          <note key="84" pos="2052" pan="0" len="12" vol="100" />
          <note key="88" pos="2088" pan="0" len="12" vol="100" />
          <note key="84" pos="2124" pan="0" len="12" vol="100" />
          <note key="83" pos="2160" pan="0" len="12" vol="100" />
        </pattern>
        <pattern pos="82944" muted="0" steps="16" name="" type="1">
          <note key="89" pos="1116" pan="0" len="36" vol="100" />
          <note key="91" pos="1152" pan="0" len="36" vol="100" />
          <note key="88" pos="1188" pan="0" len="36" vol="100" />
          <note key="89" pos="1224" pan="0" len="36" vol="100" />
          <note key="86" pos="1260" pan="0" len="36" vol="100" />
          <note key="88" pos="1296" pan="0" len="24" vol="100" />
          <note key="89" pos="1404" pan="0" len="12" vol="100" />
          <note key="91" pos="1440" pan="0" len="12" vol="100" />
          <note key="88" pos="1476" pan="0" len="12" vol="100" />
          <note key="89" pos="1512" pan="0" len="12" vol="100" />
          <note key="84" pos="1548" pan="0" len="12" vol="100" />
          <note key="83" pos="1584" pan="0" len="12" vol="100" />
          <note key="93" pos="1692" pan="0" len="12" vol="100" />
          <note key="95" pos="1728" pan="0" len="12" vol="100" />
          <note key="91" pos="1764" pan="0" len="12" vol="100" />
          <note key="93" pos="1800" pan="0" len="12" vol="100" />
          <note key="89" pos="1836" pan="0" len="12" vol="100" />
          <note key="88" pos="1872" pan="0" len="12" vol="100" />
          <note key="84" pos="1908" pan="0" len="12" vol="100" />
          <note key="88" pos="1944" pan="0" len="12" vol="100" />
          <note key="84" pos="1980" pan="0" len="12" vol="100" />
          <note key="88" pos="2016" pan="0" len="12" vol="100" />
          <note key="84" pos="2052" pan="0" len="12" vol="100" />
          <note key="88" pos="2088" pan="0" len="12" vol="100" />
          <note key="84" pos="2124" pan="0" len="12" vol="100" />
          <note key="83" pos="2160" pan="0" len="12" vol="100" />
        </pattern>
      </track>
      <track solo="0" name="1 (Ch7)" type="0" muted="0">
        <instrumenttrack usemasterpitch="1" pitch="0.0" basenote="57" pan="0" pitchrange="12" vol="30">
          <eldata />
          <instrument name="tripleoscillator" />
        </instrumenttrack>
        <pattern pos="248460" muted="0" steps="16" name="" type="1">
          <note key="77" pos="96" pan="0" len="12" vol="100" />
        </pattern>
        <pattern pos="10752" muted="0" steps="16" name="" type="1">
          <note key="86" pos="192" pan="0" len="96" vol="100" />
          <note key="89" pos="288" pan="0" len="24" vol="100" />
          <note key="91" pos="384" pan="0" len="48" vol="100" />
          <note key="89" pos="432" pan="0" len="96" vol="100" />
        </pattern>
        <pattern pos="35328" muted="0" steps="16" name="" type="1">
          <note key="76" pos="0" pan="0" len="24" vol="0" />
          <note key="79" pos="24" pan="0" len="12" vol="2" />
          <note key="76" pos="48" pan="0" len="24" vol="5" />
          <note key="79" pos="72" pan="0" len="12" vol="6" />
          <note key="76" pos="96" pan="0" len="24" vol="9" />
          <note key="79" pos="120" pan="0" len="12" vol="12" />
          <note key="76" pos="144" pan="0" len="24" vol="17" />
          <note key="79" pos="168" pan="0" len="12" vol="20" />
          <note key="76" pos="192" pan="0" len="24" vol="27" />
          <note key="79" pos="216" pan="0" len="12" vol="25" />
          <note key="76" pos="240" pan="0" len="24" vol="28" />
          <note key="79" pos="264" pan="0" len="12" vol="25" />
          <note key="76" pos="288" pan="0" len="24" vol="27" />
          <note key="79" pos="312" pan="0" len="12" vol="22" />
          <note key="74" pos="336" pan="0" len="24" vol="16" />
          <note key="79" pos="360" pan="0" len="12" vol="17" />
          <note key="76" pos="384" pan="0" len="24" vol="17" />
          <note key="79" pos="408" pan="0" len="12" vol="19" />
          <note key="76" pos="432" pan="0" len="24" vol="30" />
          <note key="79" pos="456" pan="0" len="12" vol="31" />
          <note key="76" pos="480" pan="0" len="24" vol="44" />
          <note key="79" pos="504" pan="0" len="12" vol="47" />
          <note key="76" pos="528" pan="0" len="24" vol="61" />
          <note key="79" pos="552" pan="0" len="12" vol="62" />
          <note key="76" pos="576" pan="0" len="24" vol="77" />
          <note key="79" pos="600" pan="0" len="12" vol="69" />
          <note key="76" pos="624" pan="0" len="24" vol="72" />
          <note key="79" pos="648" pan="0" len="12" vol="59" />
          <note key="76" pos="672" pan="0" len="24" vol="61" />
          <note key="79" pos="696" pan="0" len="12" vol="47" />
          <note key="74" pos="720" pan="0" len="24" vol="33" />
          <note key="79" pos="744" pan="0" len="12" vol="34" />
          <note key="76" pos="768" pan="0" len="24" vol="34" />
          <note key="79" pos="792" pan="0" len="12" vol="34" />
          <note key="76" pos="816" pan="0" len="24" vol="52" />
          <note key="79" pos="840" pan="0" len="12" vol="52" />
          <note key="76" pos="864" pan="0" len="24" vol="69" />
          <note key="79" pos="888" pan="0" len="12" vol="69" />
          <note key="76" pos="912" pan="0" len="24" vol="86" />
          <note key="79" pos="936" pan="0" len="12" vol="86" />
          <note key="76" pos="960" pan="0" len="24" vol="100" />
          <note key="79" pos="984" pan="0" len="12" vol="86" />
          <note key="76" pos="1008" pan="0" len="24" vol="86" />
          <note key="79" pos="1032" pan="0" len="12" vol="69" />
          <note key="76" pos="1056" pan="0" len="24" vol="69" />
          <note key="79" pos="1080" pan="0" len="12" vol="52" />
          <note key="74" pos="1104" pan="0" len="24" vol="34" />
          <note key="79" pos="1128" pan="0" len="12" vol="34" />
          <note key="76" pos="1152" pan="0" len="24" vol="34" />
          <note key="79" pos="1176" pan="0" len="12" vol="34" />
          <note key="76" pos="1200" pan="0" len="24" vol="52" />
          <note key="79" pos="1224" pan="0" len="12" vol="52" />
          <note key="76" pos="1248" pan="0" len="24" vol="69" />
          <note key="79" pos="1272" pan="0" len="12" vol="69" />
          <note key="76" pos="1296" pan="0" len="24" vol="86" />
          <note key="79" pos="1320" pan="0" len="12" vol="86" />
          <note key="76" pos="1344" pan="0" len="24" vol="100" />
          <note key="79" pos="1368" pan="0" len="12" vol="86" />
          <note key="76" pos="1392" pan="0" len="24" vol="86" />
          <note key="79" pos="1416" pan="0" len="12" vol="69" />
          <note key="76" pos="1440" pan="0" len="24" vol="69" />
          <note key="79" pos="1464" pan="0" len="12" vol="52" />
          <note key="74" pos="1488" pan="0" len="24" vol="34" />
          <note key="79" pos="1512" pan="0" len="12" vol="34" />
        </pattern>
        <pattern pos="36864" muted="0" steps="16" name="" type="1">
          <note key="76" pos="0" pan="0" len="24" vol="34" />
          <note key="79" pos="24" pan="0" len="12" vol="34" />
          <note key="76" pos="48" pan="0" len="24" vol="52" />
          <note key="79" pos="72" pan="0" len="12" vol="52" />
          <note key="76" pos="96" pan="0" len="24" vol="69" />
          <note key="79" pos="120" pan="0" len="12" vol="69" />
          <note key="76" pos="144" pan="0" len="24" vol="86" />
          <note key="79" pos="168" pan="0" len="12" vol="86" />
          <note key="76" pos="192" pan="0" len="24" vol="100" />
          <note key="79" pos="216" pan="0" len="12" vol="86" />
          <note key="76" pos="240" pan="0" len="24" vol="86" />
          <note key="79" pos="264" pan="0" len="12" vol="69" />
          <note key="76" pos="288" pan="0" len="24" vol="69" />
          <note key="79" pos="312" pan="0" len="12" vol="52" />
          <note key="74" pos="336" pan="0" len="24" vol="34" />
          <note key="79" pos="360" pan="0" len="12" vol="34" />
          <note key="76" pos="384" pan="0" len="24" vol="34" />
          <note key="79" pos="408" pan="0" len="12" vol="34" />
          <note key="76" pos="432" pan="0" len="24" vol="52" />
          <note key="79" pos="456" pan="0" len="12" vol="52" />
          <note key="76" pos="480" pan="0" len="24" vol="69" />
          <note key="79" pos="504" pan="0" len="12" vol="69" />
          <note key="76" pos="528" pan="0" len="24" vol="86" />
          <note key="79" pos="552" pan="0" len="12" vol="86" />
          <note key="76" pos="576" pan="0" len="24" vol="100" />
          <note key="79" pos="600" pan="0" len="12" vol="86" />
          <note key="76" pos="624" pan="0" len="24" vol="86" />
          <note key="79" pos="648" pan="0" len="12" vol="69" />
          <note key="76" pos="672" pan="0" len="24" vol="69" />
          <note key="79" pos="696" pan="0" len="12" vol="52" />
          <note key="74" pos="720" pan="0" len="24" vol="34" />
          <note key="79" pos="744" pan="0" len="12" vol="34" />
          <note key="76" pos="768" pan="0" len="24" vol="34" />
          <note key="79" pos="792" pan="0" len="12" vol="34" />
          <note key="76" pos="816" pan="0" len="24" vol="52" />
          <note key="79" pos="840" pan="0" len="12" vol="52" />
          <note key="76" pos="864" pan="0" len="24" vol="69" />
          <note key="79" pos="888" pan="0" len="12" vol="69" />
          <note key="76" pos="912" pan="0" len="24" vol="86" />
          <note key="79" pos="936" pan="0" len="12" vol="86" />
          <note key="76" pos="960" pan="0" len="24" vol="100" />
          <note key="79" pos="984" pan="0" len="12" vol="86" />
          <note key="76" pos="1008" pan="0" len="24" vol="86" />
          <note key="79" pos="1032" pan="0" len="12" vol="69" />
          <note key="76" pos="1056" pan="0" len="24" vol="69" />
          <note key="79" pos="1080" pan="0" len="12" vol="52" />
          <note key="74" pos="1104" pan="0" len="24" vol="34" />
          <note key="79" pos="1128" pan="0" len="12" vol="34" />
          <note key="76" pos="1152" pan="0" len="24" vol="34" />
          <note key="79" pos="1176" pan="0" len="12" vol="34" />
          <note key="76" pos="1200" pan="0" len="24" vol="52" />
          <note key="79" pos="1224" pan="0" len="12" vol="52" />
          <note key="76" pos="1248" pan="0" len="24" vol="69" />
          <note key="79" pos="1272" pan="0" len="12" vol="69" />
          <note key="76" pos="1296" pan="0" len="24" vol="86" />
          <note key="79" pos="1320" pan="0" len="12" vol="86" />
          <note key="76" pos="1344" pan="0" len="24" vol="100" />
          <note key="79" pos="1368" pan="0" len="12" vol="86" />
          <note key="76" pos="1392" pan="0" len="24" vol="86" />
          <note key="79" pos="1416" pan="0" len="12" vol="69" />
          <note key="76" pos="1440" pan="0" len="24" vol="69" />
          <note key="79" pos="1464" pan="0" len="12" vol="52" />
          <note key="74" pos="1488" pan="0" len="24" vol="34" />
          <note key="79" pos="1512" pan="0" len="12" vol="34" />
        </pattern>
        <pattern pos="38400" muted="0" steps="16" name="" type="1">
          <note key="76" pos="0" pan="0" len="24" vol="34" />
          <note key="79" pos="24" pan="0" len="12" vol="34" />
          <note key="76" pos="48" pan="0" len="24" vol="52" />
          <note key="79" pos="72" pan="0" len="12" vol="52" />
          <note key="76" pos="96" pan="0" len="24" vol="69" />
          <note key="79" pos="120" pan="0" len="12" vol="69" />
          <note key="76" pos="144" pan="0" len="24" vol="86" />
          <note key="79" pos="168" pan="0" len="12" vol="86" />
          <note key="78" pos="192" pan="0" len="24" vol="100" />
          <note key="81" pos="216" pan="0" len="12" vol="86" />
          <note key="78" pos="240" pan="0" len="24" vol="86" />
          <note key="81" pos="264" pan="0" len="12" vol="69" />
          <note key="78" pos="288" pan="0" len="24" vol="69" />
          <note key="81" pos="312" pan="0" len="12" vol="52" />
          <note key="76" pos="336" pan="0" len="24" vol="34" />
          <note key="81" pos="360" pan="0" len="12" vol="34" />
          <note key="76" pos="384" pan="0" len="24" vol="34" />
          <note key="79" pos="408" pan="0" len="12" vol="34" />
          <note key="76" pos="432" pan="0" len="24" vol="52" />
          <note key="79" pos="456" pan="0" len="12" vol="52" />
          <note key="76" pos="480" pan="0" len="24" vol="69" />
          <note key="79" pos="504" pan="0" len="12" vol="69" />
          <note key="76" pos="528" pan="0" len="24" vol="86" />
          <note key="79" pos="552" pan="0" len="12" vol="86" />
          <note key="78" pos="576" pan="0" len="24" vol="100" />
          <note key="81" pos="600" pan="0" len="12" vol="86" />
          <note key="78" pos="624" pan="0" len="24" vol="86" />
          <note key="81" pos="648" pan="0" len="12" vol="69" />
          <note key="78" pos="672" pan="0" len="24" vol="69" />
          <note key="81" pos="696" pan="0" len="12" vol="52" />
          <note key="76" pos="720" pan="0" len="24" vol="34" />
          <note key="81" pos="744" pan="0" len="12" vol="34" />
          <note key="76" pos="768" pan="0" len="24" vol="34" />
          <note key="79" pos="792" pan="0" len="12" vol="34" />
          <note key="76" pos="816" pan="0" len="24" vol="52" />
          <note key="79" pos="840" pan="0" len="12" vol="52" />
          <note key="76" pos="864" pan="0" len="24" vol="69" />
          <note key="79" pos="888" pan="0" len="12" vol="69" />
          <note key="76" pos="912" pan="0" len="24" vol="86" />
          <note key="79" pos="936" pan="0" len="12" vol="86" />
          <note key="78" pos="960" pan="0" len="24" vol="100" />
          <note key="81" pos="984" pan="0" len="12" vol="86" />
          <note key="78" pos="1008" pan="0" len="24" vol="86" />
          <note key="81" pos="1032" pan="0" len="12" vol="69" />
          <note key="78" pos="1056" pan="0" len="24" vol="69" />
          <note key="81" pos="1080" pan="0" len="12" vol="52" />
          <note key="76" pos="1104" pan="0" len="24" vol="34" />
          <note key="81" pos="1128" pan="0" len="12" vol="34" />
          <note key="79" pos="1152" pan="0" len="24" vol="34" />
          <note key="82" pos="1176" pan="0" len="12" vol="34" />
          <note key="79" pos="1200" pan="0" len="24" vol="52" />
          <note key="82" pos="1224" pan="0" len="12" vol="52" />
          <note key="79" pos="1248" pan="0" len="24" vol="69" />
          <note key="82" pos="1272" pan="0" len="12" vol="69" />
          <note key="79" pos="1296" pan="0" len="24" vol="86" />
          <note key="82" pos="1320" pan="0" len="12" vol="86" />
          <note key="81" pos="1344" pan="0" len="24" vol="100" />
          <note key="84" pos="1368" pan="0" len="12" vol="86" />
          <note key="81" pos="1392" pan="0" len="24" vol="86" />
          <note key="84" pos="1416" pan="0" len="12" vol="69" />
          <note key="81" pos="1440" pan="0" len="24" vol="69" />
          <note key="84" pos="1464" pan="0" len="12" vol="52" />
          <note key="79" pos="1488" pan="0" len="24" vol="34" />
          <note key="84" pos="1512" pan="0" len="12" vol="34" />
        </pattern>
        <pattern pos="39936" muted="0" steps="16" name="" type="1">
          <note key="81" pos="0" pan="0" len="24" vol="34" />
          <note key="84" pos="24" pan="0" len="12" vol="34" />
          <note key="81" pos="48" pan="0" len="24" vol="52" />
          <note key="84" pos="72" pan="0" len="12" vol="52" />
          <note key="81" pos="96" pan="0" len="24" vol="69" />
          <note key="84" pos="120" pan="0" len="12" vol="69" />
          <note key="81" pos="144" pan="0" len="24" vol="86" />
          <note key="84" pos="168" pan="0" len="12" vol="86" />
          <note key="80" pos="192" pan="0" len="24" vol="100" />
          <note key="85" pos="216" pan="0" len="12" vol="100" />
          <note key="80" pos="240" pan="0" len="24" vol="69" />
          <note key="85" pos="264" pan="0" len="12" vol="69" />
          <note key="80" pos="288" pan="0" len="24" vol="52" />
          <note key="87" pos="312" pan="0" len="12" vol="52" />
          <note key="80" pos="336" pan="0" len="24" vol="34" />
          <note key="85" pos="360" pan="0" len="12" vol="34" />
          <note key="81" pos="384" pan="0" len="24" vol="34" />
          <note key="84" pos="408" pan="0" len="12" vol="34" />
          <note key="81" pos="432" pan="0" len="24" vol="52" />
          <note key="84" pos="456" pan="0" len="12" vol="52" />
          <note key="81" pos="480" pan="0" len="24" vol="69" />
          <note key="84" pos="504" pan="0" len="12" vol="69" />
          <note key="81" pos="528" pan="0" len="24" vol="86" />
          <note key="84" pos="552" pan="0" len="12" vol="86" />
          <note key="80" pos="576" pan="0" len="24" vol="100" />
          <note key="85" pos="600" pan="0" len="12" vol="100" />
          <note key="80" pos="624" pan="0" len="24" vol="69" />
          <note key="85" pos="648" pan="0" len="12" vol="69" />
          <note key="80" pos="672" pan="0" len="24" vol="52" />
          <note key="87" pos="696" pan="0" len="12" vol="52" />
          <note key="80" pos="720" pan="0" len="24" vol="34" />
          <note key="85" pos="744" pan="0" len="12" vol="34" />
          <note key="81" pos="768" pan="0" len="24" vol="34" />
          <note key="84" pos="792" pan="0" len="12" vol="34" />
          <note key="81" pos="816" pan="0" len="24" vol="52" />
          <note key="84" pos="840" pan="0" len="12" vol="52" />
          <note key="81" pos="864" pan="0" len="24" vol="69" />
          <note key="84" pos="888" pan="0" len="12" vol="69" />
          <note key="81" pos="912" pan="0" len="24" vol="86" />
          <note key="84" pos="936" pan="0" len="12" vol="86" />
          <note key="80" pos="960" pan="0" len="24" vol="100" />
          <note key="85" pos="984" pan="0" len="12" vol="100" />
          <note key="80" pos="1008" pan="0" len="24" vol="69" />
          <note key="85" pos="1032" pan="0" len="12" vol="69" />
          <note key="80" pos="1056" pan="0" len="24" vol="52" />
          <note key="87" pos="1080" pan="0" len="12" vol="52" />
          <note key="80" pos="1104" pan="0" len="24" vol="34" />
          <note key="85" pos="1128" pan="0" len="12" vol="34" />
          <note key="81" pos="1152" pan="0" len="24" vol="34" />
          <note key="84" pos="1176" pan="0" len="12" vol="34" />
          <note key="81" pos="1200" pan="0" len="24" vol="52" />
          <note key="84" pos="1224" pan="0" len="12" vol="52" />
          <note key="81" pos="1248" pan="0" len="24" vol="69" />
          <note key="84" pos="1272" pan="0" len="12" vol="69" />
          <note key="81" pos="1296" pan="0" len="24" vol="86" />
          <note key="84" pos="1320" pan="0" len="12" vol="86" />
          <note key="80" pos="1344" pan="0" len="24" vol="100" />
          <note key="85" pos="1368" pan="0" len="12" vol="100" />
          <note key="80" pos="1392" pan="0" len="24" vol="69" />
          <note key="85" pos="1416" pan="0" len="12" vol="69" />
          <note key="80" pos="1440" pan="0" len="24" vol="52" />
          <note key="87" pos="1464" pan="0" len="12" vol="52" />
          <note key="80" pos="1488" pan="0" len="24" vol="34" />
          <note key="85" pos="1512" pan="0" len="12" vol="34" />
        </pattern>
        <pattern pos="41472" muted="0" steps="16" name="" type="1">
          <note key="78" pos="0" pan="0" len="24" vol="34" />
          <note key="83" pos="24" pan="0" len="12" vol="34" />
          <note key="78" pos="48" pan="0" len="24" vol="52" />
          <note key="83" pos="72" pan="0" len="12" vol="52" />
          <note key="78" pos="96" pan="0" len="24" vol="69" />
          <note key="83" pos="120" pan="0" len="12" vol="69" />
          <note key="78" pos="144" pan="0" len="24" vol="86" />
          <note key="83" pos="168" pan="0" len="12" vol="86" />
          <note key="81" pos="192" pan="0" len="24" vol="86" />
          <note key="86" pos="216" pan="0" len="12" vol="86" />
          <note key="81" pos="240" pan="0" len="24" vol="69" />
          <note key="86" pos="264" pan="0" len="12" vol="69" />
          <note key="81" pos="288" pan="0" len="24" vol="52" />
          <note key="86" pos="312" pan="0" len="12" vol="52" />
          <note key="81" pos="336" pan="0" len="24" vol="34" />
          <note key="88" pos="360" pan="0" len="12" vol="34" />
          <note key="78" pos="384" pan="0" len="24" vol="34" />
          <note key="83" pos="408" pan="0" len="12" vol="34" />
          <note key="78" pos="432" pan="0" len="24" vol="52" />
          <note key="83" pos="456" pan="0" len="12" vol="52" />
          <note key="78" pos="480" pan="0" len="24" vol="69" />
          <note key="83" pos="504" pan="0" len="12" vol="69" />
          <note key="78" pos="528" pan="0" len="24" vol="86" />
          <note key="83" pos="552" pan="0" len="12" vol="86" />
          <note key="81" pos="576" pan="0" len="24" vol="86" />
          <note key="86" pos="600" pan="0" len="12" vol="86" />
          <note key="81" pos="624" pan="0" len="24" vol="69" />
          <note key="86" pos="648" pan="0" len="12" vol="69" />
          <note key="81" pos="672" pan="0" len="24" vol="52" />
          <note key="86" pos="696" pan="0" len="12" vol="52" />
          <note key="81" pos="720" pan="0" len="24" vol="34" />
          <note key="88" pos="744" pan="0" len="12" vol="34" />
          <note key="78" pos="768" pan="0" len="24" vol="34" />
          <note key="83" pos="792" pan="0" len="12" vol="34" />
          <note key="78" pos="816" pan="0" len="24" vol="52" />
          <note key="83" pos="840" pan="0" len="12" vol="52" />
          <note key="78" pos="864" pan="0" len="24" vol="69" />
          <note key="83" pos="888" pan="0" len="12" vol="69" />
          <note key="78" pos="912" pan="0" len="24" vol="86" />
          <note key="83" pos="936" pan="0" len="12" vol="86" />
          <note key="81" pos="960" pan="0" len="24" vol="86" />
          <note key="86" pos="984" pan="0" len="12" vol="86" />
          <note key="81" pos="1008" pan="0" len="24" vol="69" />
          <note key="86" pos="1032" pan="0" len="12" vol="69" />
          <note key="81" pos="1056" pan="0" len="24" vol="52" />
          <note key="86" pos="1080" pan="0" len="12" vol="52" />
          <note key="81" pos="1104" pan="0" len="24" vol="34" />
          <note key="88" pos="1128" pan="0" len="12" vol="34" />
          <note key="78" pos="1152" pan="0" len="24" vol="34" />
          <note key="83" pos="1176" pan="0" len="12" vol="34" />
          <note key="78" pos="1200" pan="0" len="24" vol="52" />
          <note key="83" pos="1224" pan="0" len="12" vol="52" />
          <note key="78" pos="1248" pan="0" len="24" vol="69" />
          <note key="83" pos="1272" pan="0" len="12" vol="69" />
          <note key="78" pos="1296" pan="0" len="24" vol="86" />
          <note key="83" pos="1320" pan="0" len="12" vol="86" />
          <note key="81" pos="1344" pan="0" len="24" vol="86" />
          <note key="86" pos="1368" pan="0" len="12" vol="86" />
          <note key="81" pos="1392" pan="0" len="24" vol="69" />
          <note key="86" pos="1416" pan="0" len="12" vol="69" />
          <note key="81" pos="1440" pan="0" len="24" vol="52" />
          <note key="86" pos="1464" pan="0" len="12" vol="52" />
          <note key="81" pos="1488" pan="0" len="24" vol="34" />
          <note key="88" pos="1512" pan="0" len="12" vol="34" />
        </pattern>
        <pattern pos="43008" muted="0" steps="16" name="" type="1">
          <note key="76" pos="0" pan="0" len="24" vol="34" />
          <note key="79" pos="24" pan="0" len="12" vol="34" />
          <note key="76" pos="48" pan="0" len="24" vol="52" />
          <note key="79" pos="72" pan="0" len="12" vol="52" />
          <note key="76" pos="96" pan="0" len="24" vol="69" />
          <note key="79" pos="120" pan="0" len="12" vol="69" />
          <note key="76" pos="144" pan="0" len="24" vol="86" />
          <note key="79" pos="168" pan="0" len="12" vol="86" />
          <note key="76" pos="192" pan="0" len="24" vol="100" />
          <note key="79" pos="216" pan="0" len="12" vol="86" />
          <note key="76" pos="240" pan="0" len="24" vol="86" />
          <note key="79" pos="264" pan="0" len="12" vol="69" />
          <note key="76" pos="288" pan="0" len="24" vol="69" />
          <note key="79" pos="312" pan="0" len="12" vol="52" />
          <note key="74" pos="336" pan="0" len="24" vol="34" />
          <note key="79" pos="360" pan="0" len="12" vol="34" />
          <note key="76" pos="384" pan="0" len="24" vol="34" />
          <note key="79" pos="408" pan="0" len="12" vol="34" />
          <note key="76" pos="432" pan="0" len="24" vol="52" />
          <note key="79" pos="456" pan="0" len="12" vol="52" />
          <note key="76" pos="480" pan="0" len="24" vol="69" />
          <note key="79" pos="504" pan="0" len="12" vol="69" />
          <note key="76" pos="528" pan="0" len="24" vol="86" />
          <note key="79" pos="552" pan="0" len="12" vol="86" />
          <note key="76" pos="576" pan="0" len="24" vol="100" />
          <note key="79" pos="600" pan="0" len="12" vol="86" />
          <note key="76" pos="624" pan="0" len="24" vol="86" />
          <note key="79" pos="648" pan="0" len="12" vol="69" />
          <note key="76" pos="672" pan="0" len="24" vol="69" />
          <note key="79" pos="696" pan="0" len="12" vol="52" />
          <note key="74" pos="720" pan="0" len="24" vol="34" />
          <note key="79" pos="744" pan="0" len="12" vol="34" />
          <note key="76" pos="768" pan="0" len="24" vol="34" />
          <note key="79" pos="792" pan="0" len="12" vol="34" />
          <note key="76" pos="816" pan="0" len="24" vol="52" />
          <note key="79" pos="840" pan="0" len="12" vol="52" />
          <note key="76" pos="864" pan="0" len="24" vol="69" />
          <note key="79" pos="888" pan="0" len="12" vol="69" />
          <note key="76" pos="912" pan="0" len="24" vol="86" />
          <note key="79" pos="936" pan="0" len="12" vol="86" />
          <note key="76" pos="960" pan="0" len="24" vol="100" />
          <note key="79" pos="984" pan="0" len="12" vol="86" />
          <note key="76" pos="1008" pan="0" len="24" vol="86" />
          <note key="79" pos="1032" pan="0" len="12" vol="69" />
          <note key="76" pos="1056" pan="0" len="24" vol="69" />
          <note key="79" pos="1080" pan="0" len="12" vol="52" />
          <note key="74" pos="1104" pan="0" len="24" vol="34" />
          <note key="79" pos="1128" pan="0" len="12" vol="34" />
          <note key="76" pos="1152" pan="0" len="24" vol="34" />
          <note key="79" pos="1176" pan="0" len="12" vol="34" />
          <note key="76" pos="1200" pan="0" len="24" vol="52" />
          <note key="79" pos="1224" pan="0" len="12" vol="52" />
          <note key="76" pos="1248" pan="0" len="24" vol="69" />
          <note key="79" pos="1272" pan="0" len="12" vol="69" />
          <note key="76" pos="1296" pan="0" len="24" vol="86" />
          <note key="79" pos="1320" pan="0" len="12" vol="86" />
          <note key="76" pos="1344" pan="0" len="24" vol="100" />
          <note key="79" pos="1368" pan="0" len="12" vol="86" />
          <note key="76" pos="1392" pan="0" len="24" vol="86" />
          <note key="79" pos="1416" pan="0" len="12" vol="69" />
          <note key="76" pos="1440" pan="0" len="24" vol="69" />
          <note key="79" pos="1464" pan="0" len="12" vol="52" />
          <note key="74" pos="1488" pan="0" len="24" vol="34" />
          <note key="79" pos="1512" pan="0" len="12" vol="34" />
        </pattern>
        <pattern pos="54528" muted="0" steps="16" name="" type="1">
          <note key="86" pos="312" pan="0" len="12" vol="100" />
        </pattern>
        <pattern pos="172812" muted="0" steps="16" name="" type="1">
          <note key="84" pos="864" pan="0" len="24" vol="100" />
          <note key="84" pos="1056" pan="0" len="24" vol="100" />
          <note key="79" pos="1248" pan="0" len="24" vol="100" />
          <note key="82" pos="1440" pan="0" len="24" vol="100" />
        </pattern>
      </track>
      <track solo="0" name="1 (Ch8)" type="0" muted="0">
        <instrumenttrack usemasterpitch="1" pitch="0.0" basenote="57" pan="0" pitchrange="12" vol="30">
          <eldata />
          <instrument name="tripleoscillator" />
        </instrumenttrack>
        <pattern pos="277596" muted="0" steps="16" name="" type="1">
          <note key="63" pos="1152" pan="0" len="36" vol="100" />
          <note key="70" pos="1188" pan="0" len="36" vol="47" />
          <note key="68" pos="1224" pan="0" len="36" vol="62" />
          <note key="73" pos="1260" pan="0" len="36" vol="100" />
          <note key="78" pos="1296" pan="0" len="48" vol="100" />
          <note key="80" pos="1344" pan="0" len="12" vol="100" />
          <note key="82" pos="1356" pan="0" len="12" vol="100" />
          <note key="80" pos="1368" pan="0" len="12" vol="100" />
          <note key="77" pos="1392" pan="0" len="12" vol="100" />
          <note key="73" pos="1416" pan="0" len="12" vol="100" />
          <note key="75" pos="1440" pan="0" len="48" vol="100" />
          <note key="73" pos="1488" pan="0" len="12" vol="100" />
          <note key="72" pos="1500" pan="0" len="12" vol="100" />
          <note key="73" pos="1512" pan="0" len="12" vol="100" />
          <note key="72" pos="1536" pan="0" len="12" vol="100" />
          <note key="68" pos="1560" pan="0" len="12" vol="100" />
          <note key="66" pos="1584" pan="0" len="72" vol="100" />
          <note key="65" pos="1656" pan="0" len="12" vol="100" />
          <note key="61" pos="1692" pan="0" len="36" vol="100" />
          <note key="63" pos="1728" pan="0" len="36" vol="100" />
          <note key="70" pos="1764" pan="0" len="36" vol="47" />
          <note key="68" pos="1800" pan="0" len="36" vol="62" />
          <note key="73" pos="1836" pan="0" len="36" vol="100" />
          <note key="78" pos="1872" pan="0" len="48" vol="100" />
          <note key="80" pos="1920" pan="0" len="12" vol="100" />
          <note key="82" pos="1932" pan="0" len="12" vol="100" />
          <note key="80" pos="1944" pan="0" len="12" vol="100" />
          <note key="77" pos="1968" pan="0" len="12" vol="100" />
          <note key="73" pos="1992" pan="0" len="12" vol="100" />
          <note key="75" pos="2016" pan="0" len="48" vol="100" />
          <note key="73" pos="2064" pan="0" len="12" vol="100" />
          <note key="72" pos="2076" pan="0" len="12" vol="100" />
          <note key="73" pos="2088" pan="0" len="12" vol="100" />
          <note key="72" pos="2112" pan="0" len="12" vol="100" />
          <note key="68" pos="2136" pan="0" len="12" vol="100" />
          <note key="66" pos="2160" pan="0" len="72" vol="100" />
          <note key="65" pos="2232" pan="0" len="12" vol="100" />
          <note key="61" pos="2268" pan="0" len="36" vol="100" />
        </pattern>
        <pattern pos="54528" muted="0" steps="16" name="" type="1">
          <note key="79" pos="312" pan="0" len="12" vol="100" />
        </pattern>
        <pattern pos="115968" muted="0" steps="16" name="" type="1">
          <note key="82" pos="144" pan="0" len="72" vol="69" />
          <note key="79" pos="216" pan="0" len="72" vol="69" />
          <note key="79" pos="288" pan="0" len="72" vol="69" />
          <note key="79" pos="504" pan="0" len="72" vol="50" />
          <note key="79" pos="792" pan="0" len="72" vol="50" />
          <note key="79" pos="864" pan="0" len="84" vol="69" />
          <note key="79" pos="1080" pan="0" len="72" vol="50" />
          <note key="77" pos="1368" pan="0" len="72" vol="52" />
          <note key="77" pos="1440" pan="0" len="144" vol="52" />
          <note key="82" pos="1656" pan="0" len="36" vol="52" />
          <note key="77" pos="1944" pan="0" len="72" vol="50" />
          <note key="77" pos="2016" pan="0" len="84" vol="69" />
          <note key="77" pos="2232" pan="0" len="72" vol="100" />
        </pattern>
        <pattern pos="118272" muted="0" steps="16" name="" type="1">
          <note key="82" pos="72" pan="0" len="12" vol="100" />
        </pattern>
        <pattern pos="120576" muted="0" steps="16" name="" type="1">
          <note key="82" pos="144" pan="0" len="72" vol="69" />
          <note key="79" pos="216" pan="0" len="72" vol="69" />
          <note key="79" pos="288" pan="0" len="72" vol="69" />
          <note key="79" pos="504" pan="0" len="72" vol="50" />
          <note key="79" pos="792" pan="0" len="72" vol="50" />
          <note key="79" pos="864" pan="0" len="84" vol="69" />
          <note key="79" pos="1080" pan="0" len="72" vol="50" />
          <note key="77" pos="1368" pan="0" len="72" vol="52" />
          <note key="77" pos="1440" pan="0" len="144" vol="52" />
          <note key="82" pos="1656" pan="0" len="36" vol="52" />
          <note key="77" pos="1944" pan="0" len="72" vol="50" />
          <note key="77" pos="2016" pan="0" len="84" vol="69" />
          <note key="77" pos="2232" pan="0" len="72" vol="100" />
        </pattern>
        <pattern pos="169740" muted="0" steps="16" name="" type="1">
          <note key="79" pos="1344" pan="0" len="192" vol="100" />
          <note key="76" pos="1536" pan="0" len="96" vol="100" />
          <note key="74" pos="1632" pan="0" len="96" vol="100" />
          <note key="75" pos="1728" pan="0" len="144" vol="100" />
          <note key="74" pos="1920" pan="0" len="144" vol="100" />
        </pattern>
        <pattern pos="172812" muted="0" steps="16" name="" type="1">
          <note key="89" pos="864" pan="0" len="24" vol="100" />
          <note key="88" pos="1056" pan="0" len="24" vol="100" />
          <note key="82" pos="1248" pan="0" len="24" vol="100" />
          <note key="86" pos="1440" pan="0" len="24" vol="100" />
        </pattern>
        <pattern pos="248460" muted="0" steps="16" name="" type="1">
          <note key="82" pos="96" pan="0" len="12" vol="100" />
        </pattern>
        <pattern pos="274140" muted="0" steps="16" name="" type="1">
          <note key="68" pos="0" pan="0" len="12" vol="100" />
          <note key="63" pos="24" pan="0" len="12" vol="100" />
          <note key="68" pos="36" pan="0" len="12" vol="100" />
          <note key="71" pos="48" pan="0" len="12" vol="100" />
          <note key="75" pos="60" pan="0" len="12" vol="100" />
          <note key="73" pos="72" pan="0" len="36" vol="100" />
          <note key="70" pos="108" pan="0" len="12" vol="100" />
          <note key="66" pos="132" pan="0" len="12" vol="100" />
          <note key="71" pos="144" pan="0" len="12" vol="100" />
          <note key="66" pos="168" pan="0" len="12" vol="100" />
          <note key="71" pos="180" pan="0" len="12" vol="100" />
          <note key="75" pos="192" pan="0" len="12" vol="100" />
          <note key="78" pos="204" pan="0" len="12" vol="100" />
          <note key="77" pos="216" pan="0" len="36" vol="100" />
          <note key="73" pos="252" pan="0" len="24" vol="100" />
          <note key="68" pos="276" pan="0" len="12" vol="100" />
          <note key="76" pos="288" pan="0" len="12" vol="100" />
          <note key="71" pos="312" pan="0" len="12" vol="100" />
          <note key="76" pos="324" pan="0" len="12" vol="100" />
          <note key="80" pos="336" pan="0" len="12" vol="100" />
          <note key="83" pos="348" pan="0" len="12" vol="100" />
          <note key="82" pos="360" pan="0" len="36" vol="100" />
          <note key="78" pos="396" pan="0" len="12" vol="100" />
          <note key="82" pos="420" pan="0" len="12" vol="100" />
          <note key="83" pos="432" pan="0" len="12" vol="100" />
          <note key="80" pos="444" pan="0" len="12" vol="100" />
          <note key="75" pos="456" pan="0" len="12" vol="100" />
          <note key="71" pos="468" pan="0" len="12" vol="100" />
          <note key="70" pos="480" pan="0" len="12" vol="100" />
          <note key="68" pos="492" pan="0" len="12" vol="100" />
          <note key="80" pos="504" pan="0" len="12" vol="100" />
          <note key="68" pos="576" pan="0" len="12" vol="100" />
          <note key="63" pos="600" pan="0" len="12" vol="100" />
          <note key="68" pos="612" pan="0" len="12" vol="100" />
          <note key="71" pos="624" pan="0" len="12" vol="100" />
          <note key="75" pos="636" pan="0" len="12" vol="100" />
          <note key="73" pos="648" pan="0" len="36" vol="100" />
          <note key="70" pos="684" pan="0" len="12" vol="100" />
          <note key="66" pos="708" pan="0" len="12" vol="100" />
          <note key="71" pos="720" pan="0" len="12" vol="100" />
          <note key="66" pos="744" pan="0" len="12" vol="100" />
          <note key="71" pos="756" pan="0" len="12" vol="100" />
          <note key="75" pos="768" pan="0" len="12" vol="100" />
          <note key="78" pos="780" pan="0" len="12" vol="100" />
          <note key="77" pos="792" pan="0" len="36" vol="100" />
          <note key="73" pos="828" pan="0" len="24" vol="100" />
          <note key="68" pos="852" pan="0" len="12" vol="100" />
          <note key="76" pos="864" pan="0" len="12" vol="100" />
          <note key="71" pos="888" pan="0" len="12" vol="100" />
          <note key="76" pos="900" pan="0" len="12" vol="100" />
          <note key="80" pos="912" pan="0" len="12" vol="100" />
          <note key="83" pos="924" pan="0" len="12" vol="100" />
          <note key="82" pos="936" pan="0" len="36" vol="100" />
          <note key="78" pos="972" pan="0" len="12" vol="100" />
          <note key="82" pos="996" pan="0" len="12" vol="100" />
          <note key="83" pos="1008" pan="0" len="12" vol="100" />
          <note key="80" pos="1020" pan="0" len="12" vol="100" />
          <note key="75" pos="1032" pan="0" len="12" vol="100" />
          <note key="71" pos="1044" pan="0" len="12" vol="100" />
          <note key="70" pos="1056" pan="0" len="12" vol="100" />
          <note key="68" pos="1068" pan="0" len="12" vol="100" />
          <note key="80" pos="1080" pan="0" len="12" vol="100" />
        </pattern>
      </track>
      <track solo="0" name="1 (Ch9)" type="0" muted="0">
        <instrumenttrack usemasterpitch="1" pitch="0.0" basenote="57" pan="0" pitchrange="12" vol="30">
          <eldata />
          <instrument name="tripleoscillator" />
        </instrumenttrack>
        <pattern pos="172812" muted="0" steps="16" name="" type="1">
          <note key="93" pos="864" pan="0" len="24" vol="100" />
          <note key="91" pos="1056" pan="0" len="24" vol="100" />
          <note key="87" pos="1248" pan="0" len="24" vol="100" />
          <note key="89" pos="1440" pan="0" len="24" vol="100" />
        </pattern>
        <pattern pos="1536" muted="0" steps="16" name="" type="1">
          <note key="98" pos="1344" pan="0" len="192" vol="52" />
        </pattern>
        <pattern pos="115968" muted="0" steps="16" name="" type="1">
          <note key="86" pos="144" pan="0" len="72" vol="69" />
          <note key="84" pos="216" pan="0" len="72" vol="69" />
          <note key="82" pos="288" pan="0" len="72" vol="69" />
          <note key="84" pos="504" pan="0" len="72" vol="50" />
          <note key="84" pos="792" pan="0" len="72" vol="50" />
          <note key="82" pos="864" pan="0" len="84" vol="69" />
          <note key="88" pos="1080" pan="0" len="72" vol="50" />
          <note key="82" pos="1368" pan="0" len="72" vol="52" />
          <note key="80" pos="1440" pan="0" len="144" vol="52" />
          <note key="86" pos="1656" pan="0" len="36" vol="52" />
          <note key="82" pos="1944" pan="0" len="72" vol="50" />
          <note key="80" pos="2016" pan="0" len="84" vol="69" />
          <note key="86" pos="2232" pan="0" len="72" vol="100" />
        </pattern>
        <pattern pos="118272" muted="0" steps="16" name="" type="1">
          <note key="86" pos="72" pan="0" len="12" vol="100" />
        </pattern>
        <pattern pos="120576" muted="0" steps="16" name="" type="1">
          <note key="86" pos="144" pan="0" len="72" vol="69" />
          <note key="84" pos="216" pan="0" len="72" vol="69" />
          <note key="82" pos="288" pan="0" len="72" vol="69" />
          <note key="84" pos="504" pan="0" len="72" vol="50" />
          <note key="84" pos="792" pan="0" len="72" vol="50" />
          <note key="82" pos="864" pan="0" len="84" vol="69" />
          <note key="88" pos="1080" pan="0" len="72" vol="50" />
          <note key="82" pos="1368" pan="0" len="72" vol="52" />
          <note key="80" pos="1440" pan="0" len="144" vol="52" />
          <note key="86" pos="1656" pan="0" len="36" vol="52" />
          <note key="82" pos="1944" pan="0" len="72" vol="50" />
          <note key="80" pos="2016" pan="0" len="84" vol="69" />
          <note key="86" pos="2232" pan="0" len="72" vol="100" />
        </pattern>
        <pattern pos="169740" muted="0" steps="16" name="" type="1">
          <note key="84" pos="1344" pan="0" len="192" vol="100" />
          <note key="79" pos="1536" pan="0" len="96" vol="100" />
          <note key="77" pos="1632" pan="0" len="96" vol="100" />
          <note key="80" pos="1728" pan="0" len="144" vol="100" />
          <note key="77" pos="1920" pan="0" len="144" vol="100" />
        </pattern>
      </track>
      <track solo="0" name="1 (Ch10)" type="0" muted="0">
        <instrumenttrack usemasterpitch="1" pitch="0.0" basenote="57" pan="0" pitchrange="12" vol="30">
          <eldata />
          <instrument name="tripleoscillator" />
        </instrumenttrack>
        <pattern pos="268812" muted="0" steps="16" name="" type="1">
          <note key="75" pos="0" pan="0" len="12" vol="100" />
          <note key="70" pos="24" pan="0" len="12" vol="100" />
          <note key="75" pos="36" pan="0" len="12" vol="100" />
          <note key="78" pos="48" pan="0" len="12" vol="100" />
          <note key="82" pos="60" pan="0" len="12" vol="100" />
          <note key="80" pos="72" pan="0" len="36" vol="100" />
          <note key="77" pos="108" pan="0" len="12" vol="100" />
          <note key="73" pos="132" pan="0" len="12" vol="100" />
          <note key="78" pos="144" pan="0" len="12" vol="100" />
          <note key="73" pos="168" pan="0" len="12" vol="100" />
          <note key="78" pos="180" pan="0" len="12" vol="100" />
          <note key="82" pos="192" pan="0" len="12" vol="100" />
          <note key="85" pos="204" pan="0" len="12" vol="100" />
          <note key="84" pos="216" pan="0" len="36" vol="100" />
          <note key="80" pos="252" pan="0" len="24" vol="100" />
          <note key="75" pos="276" pan="0" len="12" vol="100" />
          <note key="83" pos="288" pan="0" len="12" vol="100" />
          <note key="78" pos="312" pan="0" len="12" vol="100" />
          <note key="83" pos="324" pan="0" len="12" vol="100" />
          <note key="87" pos="336" pan="0" len="12" vol="100" />
          <note key="90" pos="348" pan="0" len="12" vol="100" />
          <note key="89" pos="360" pan="0" len="36" vol="100" />
          <note key="85" pos="396" pan="0" len="12" vol="100" />
          <note key="89" pos="420" pan="0" len="12" vol="100" />
          <note key="90" pos="432" pan="0" len="12" vol="100" />
          <note key="87" pos="444" pan="0" len="12" vol="100" />
          <note key="82" pos="456" pan="0" len="12" vol="100" />
          <note key="78" pos="468" pan="0" len="12" vol="100" />
          <note key="77" pos="480" pan="0" len="12" vol="100" />
          <note key="75" pos="492" pan="0" len="12" vol="100" />
          <note key="87" pos="504" pan="0" len="12" vol="100" />
        </pattern>
        <pattern pos="115968" muted="0" steps="16" name="" type="1">
          <note key="89" pos="144" pan="0" len="72" vol="69" />
          <note key="88" pos="216" pan="0" len="72" vol="69" />
          <note key="86" pos="288" pan="0" len="72" vol="69" />
          <note key="88" pos="504" pan="0" len="72" vol="50" />
          <note key="89" pos="576" pan="0" len="72" vol="100" />
          <note key="88" pos="792" pan="0" len="72" vol="50" />
          <note key="86" pos="864" pan="0" len="84" vol="69" />
          <note key="84" pos="1080" pan="0" len="72" vol="50" />
          <note key="86" pos="1368" pan="0" len="72" vol="52" />
          <note key="84" pos="1440" pan="0" len="144" vol="52" />
          <note key="89" pos="1656" pan="0" len="36" vol="52" />
          <note key="87" pos="1728" pan="0" len="72" vol="100" />
          <note key="86" pos="1944" pan="0" len="72" vol="50" />
          <note key="84" pos="2016" pan="0" len="84" vol="69" />
          <note key="82" pos="2232" pan="0" len="72" vol="100" />
        </pattern>
        <pattern pos="118272" muted="0" steps="16" name="" type="1">
          <note key="91" pos="72" pan="0" len="12" vol="100" />
        </pattern>
        <pattern pos="120576" muted="0" steps="16" name="" type="1">
          <note key="89" pos="144" pan="0" len="72" vol="69" />
          <note key="88" pos="216" pan="0" len="72" vol="69" />
          <note key="86" pos="288" pan="0" len="72" vol="69" />
          <note key="88" pos="504" pan="0" len="72" vol="50" />
          <note key="89" pos="576" pan="0" len="72" vol="100" />
          <note key="88" pos="792" pan="0" len="72" vol="50" />
          <note key="86" pos="864" pan="0" len="84" vol="69" />
          <note key="84" pos="1080" pan="0" len="72" vol="50" />
          <note key="86" pos="1368" pan="0" len="72" vol="52" />
          <note key="84" pos="1440" pan="0" len="144" vol="52" />
          <note key="89" pos="1656" pan="0" len="36" vol="52" />
          <note key="87" pos="1728" pan="0" len="72" vol="100" />
          <note key="86" pos="1944" pan="0" len="72" vol="50" />
          <note key="84" pos="2016" pan="0" len="84" vol="69" />
          <note key="82" pos="2232" pan="0" len="72" vol="100" />
        </pattern>
        <pattern pos="169740" muted="0" steps="16" name="" type="1">
          <note key="80" pos="0" pan="0" len="24" vol="2" />
          <note key="83" pos="24" pan="0" len="12" vol="6" />
          <note key="80" pos="48" pan="0" len="24" vol="11" />
          <note key="83" pos="72" pan="0" len="12" vol="14" />
          <note key="80" pos="96" pan="0" len="24" vol="19" />
          <note key="83" pos="120" pan="0" len="12" vol="23" />
          <note key="80" pos="144" pan="0" len="24" vol="28" />
          <note key="83" pos="168" pan="0" len="12" vol="33" />
          <note key="80" pos="192" pan="0" len="24" vol="38" />
          <note key="83" pos="216" pan="0" len="12" vol="41" />
          <note key="80" pos="240" pan="0" len="24" vol="45" />
          <note key="83" pos="264" pan="0" len="12" vol="50" />
          <note key="80" pos="288" pan="0" len="24" vol="55" />
          <note key="83" pos="312" pan="0" len="12" vol="50" />
          <note key="80" pos="336" pan="0" len="24" vol="45" />
          <note key="83" pos="360" pan="0" len="12" vol="41" />
          <note key="80" pos="384" pan="0" len="24" vol="36" />
          <note key="83" pos="408" pan="0" len="12" vol="31" />
          <note key="80" pos="432" pan="0" len="24" vol="27" />
          <note key="83" pos="456" pan="0" len="12" vol="22" />
          <note key="80" pos="480" pan="0" len="24" vol="17" />
          <note key="83" pos="504" pan="0" len="12" vol="12" />
          <note key="80" pos="528" pan="0" len="24" vol="8" />
          <note key="83" pos="552" pan="0" len="12" vol="3" />
          <note key="89" pos="1344" pan="0" len="96" vol="100" />
          <note key="88" pos="1440" pan="0" len="96" vol="100" />
          <note key="84" pos="1536" pan="0" len="96" vol="100" />
          <note key="82" pos="1632" pan="0" len="96" vol="100" />
          <note key="84" pos="1728" pan="0" len="144" vol="100" />
          <note key="82" pos="1920" pan="0" len="144" vol="100" />
        </pattern>
        <pattern pos="225804" muted="0" steps="16" name="" type="1">
          <note key="70" pos="48" pan="0" len="24" vol="100" />
          <note key="70" pos="144" pan="0" len="24" vol="100" />
          <note key="72" pos="240" pan="0" len="48" vol="100" />
          <note key="73" pos="288" pan="0" len="60" vol="100" />
          <note key="70" pos="432" pan="0" len="24" vol="100" />
          <note key="70" pos="528" pan="0" len="24" vol="100" />
          <note key="73" pos="624" pan="0" len="24" vol="100" />
          <note key="72" pos="720" pan="0" len="24" vol="100" />
          <note key="70" pos="816" pan="0" len="24" vol="100" />
          <note key="70" pos="912" pan="0" len="24" vol="100" />
          <note key="72" pos="1008" pan="0" len="24" vol="100" />
          <note key="70" pos="1104" pan="0" len="36" vol="100" />
          <note key="70" pos="1200" pan="0" len="24" vol="100" />
          <note key="70" pos="1296" pan="0" len="24" vol="100" />
          <note key="73" pos="1392" pan="0" len="24" vol="100" />
          <note key="72" pos="1488" pan="0" len="24" vol="100" />
        </pattern>
        <pattern pos="227340" muted="0" steps="16" name="" type="1">
          <note key="51" pos="0" pan="0" len="48" vol="100" />
          <note key="78" pos="48" pan="0" len="12" vol="100" />
          <note key="46" pos="72" pan="0" len="24" vol="100" />
          <note key="51" pos="96" pan="0" len="24" vol="100" />
          <note key="78" pos="120" pan="0" len="12" vol="100" />
          <note key="46" pos="168" pan="0" len="24" vol="100" />
          <note key="47" pos="192" pan="0" len="48" vol="100" />
          <note key="83" pos="240" pan="0" len="12" vol="100" />
          <note key="40" pos="264" pan="0" len="24" vol="100" />
          <note key="47" pos="288" pan="0" len="24" vol="100" />
          <note key="83" pos="312" pan="0" len="12" vol="100" />
          <note key="44" pos="360" pan="0" len="24" vol="100" />
          <note key="49" pos="384" pan="0" len="48" vol="100" />
          <note key="77" pos="432" pan="0" len="12" vol="100" />
          <note key="44" pos="456" pan="0" len="24" vol="100" />
          <note key="49" pos="480" pan="0" len="24" vol="100" />
          <note key="77" pos="504" pan="0" len="12" vol="100" />
          <note key="41" pos="552" pan="0" len="24" vol="100" />
          <note key="46" pos="576" pan="0" len="48" vol="100" />
          <note key="77" pos="624" pan="0" len="12" vol="100" />
          <note key="41" pos="648" pan="0" len="24" vol="100" />
          <note key="46" pos="672" pan="0" len="24" vol="100" />
          <note key="77" pos="696" pan="0" len="12" vol="100" />
          <note key="42" pos="744" pan="0" len="24" vol="100" />
          <note key="47" pos="768" pan="0" len="48" vol="100" />
          <note key="78" pos="816" pan="0" len="12" vol="100" />
          <note key="42" pos="840" pan="0" len="24" vol="100" />
          <note key="47" pos="864" pan="0" len="24" vol="100" />
          <note key="78" pos="888" pan="0" len="12" vol="100" />
          <note key="39" pos="936" pan="0" len="24" vol="100" />
          <note key="44" pos="960" pan="0" len="48" vol="100" />
          <note key="80" pos="1008" pan="0" len="12" vol="100" />
          <note key="39" pos="1032" pan="0" len="24" vol="100" />
          <note key="44" pos="1056" pan="0" len="24" vol="100" />
          <note key="80" pos="1080" pan="0" len="12" vol="100" />
          <note key="44" pos="1128" pan="0" len="24" vol="100" />
          <note key="49" pos="1152" pan="0" len="48" vol="100" />
          <note key="77" pos="1200" pan="0" len="12" vol="100" />
          <note key="44" pos="1224" pan="0" len="24" vol="100" />
          <note key="49" pos="1248" pan="0" len="24" vol="100" />
          <note key="77" pos="1272" pan="0" len="12" vol="100" />
          <note key="44" pos="1344" pan="0" len="36" vol="100" />
          <note key="75" pos="1392" pan="0" len="12" vol="100" />
          <note key="39" pos="1416" pan="0" len="24" vol="100" />
          <note key="44" pos="1440" pan="0" len="24" vol="100" />
          <note key="78" pos="1464" pan="0" len="12" vol="100" />
        </pattern>
        <pattern pos="228876" muted="0" steps="16" name="" type="1">
          <note key="48" pos="0" pan="0" len="48" vol="100" />
          <note key="75" pos="48" pan="0" len="12" vol="100" />
          <note key="43" pos="72" pan="0" len="24" vol="100" />
          <note key="48" pos="96" pan="0" len="24" vol="100" />
          <note key="75" pos="120" pan="0" len="12" vol="100" />
          <note key="43" pos="168" pan="0" len="24" vol="100" />
          <note key="44" pos="192" pan="0" len="48" vol="100" />
          <note key="80" pos="240" pan="0" len="12" vol="100" />
          <note key="37" pos="264" pan="0" len="24" vol="100" />
          <note key="44" pos="288" pan="0" len="24" vol="100" />
          <note key="80" pos="312" pan="0" len="12" vol="100" />
          <note key="41" pos="360" pan="0" len="24" vol="100" />
          <note key="46" pos="384" pan="0" len="48" vol="100" />
          <note key="74" pos="432" pan="0" len="12" vol="100" />
          <note key="41" pos="456" pan="0" len="24" vol="100" />
          <note key="46" pos="480" pan="0" len="24" vol="100" />
          <note key="74" pos="504" pan="0" len="12" vol="100" />
          <note key="38" pos="552" pan="0" len="24" vol="100" />
          <note key="43" pos="576" pan="0" len="48" vol="100" />
          <note key="74" pos="624" pan="0" len="12" vol="100" />
          <note key="38" pos="648" pan="0" len="24" vol="100" />
          <note key="43" pos="672" pan="0" len="24" vol="100" />
          <note key="74" pos="696" pan="0" len="12" vol="100" />
          <note key="39" pos="744" pan="0" len="24" vol="100" />
          <note key="44" pos="768" pan="0" len="48" vol="100" />
          <note key="75" pos="816" pan="0" len="12" vol="100" />
          <note key="39" pos="840" pan="0" len="24" vol="100" />
          <note key="44" pos="864" pan="0" len="24" vol="100" />
          <note key="75" pos="888" pan="0" len="12" vol="100" />
          <note key="36" pos="936" pan="0" len="24" vol="100" />
          <note key="41" pos="960" pan="0" len="48" vol="100" />
          <note key="77" pos="1008" pan="0" len="12" vol="100" />
          <note key="36" pos="1032" pan="0" len="24" vol="100" />
          <note key="41" pos="1056" pan="0" len="24" vol="100" />
          <note key="77" pos="1080" pan="0" len="12" vol="100" />
          <note key="41" pos="1128" pan="0" len="24" vol="100" />
          <note key="46" pos="1152" pan="0" len="48" vol="100" />
          <note key="74" pos="1200" pan="0" len="12" vol="100" />
          <note key="41" pos="1224" pan="0" len="24" vol="100" />
          <note key="46" pos="1248" pan="0" len="24" vol="100" />
          <note key="74" pos="1272" pan="0" len="12" vol="100" />
          <note key="68" pos="1392" pan="0" len="12" vol="100" />
          <note key="65" pos="1464" pan="0" len="24" vol="100" />
        </pattern>
        <pattern pos="233484" muted="0" steps="16" name="" type="1">
          <note key="51" pos="0" pan="0" len="48" vol="100" />
          <note key="78" pos="48" pan="0" len="12" vol="100" />
          <note key="46" pos="72" pan="0" len="24" vol="100" />
          <note key="51" pos="96" pan="0" len="24" vol="100" />
          <note key="78" pos="120" pan="0" len="12" vol="100" />
          <note key="46" pos="168" pan="0" len="24" vol="100" />
          <note key="47" pos="192" pan="0" len="48" vol="100" />
          <note key="83" pos="240" pan="0" len="12" vol="100" />
          <note key="40" pos="264" pan="0" len="24" vol="100" />
          <note key="47" pos="288" pan="0" len="24" vol="100" />
          <note key="83" pos="312" pan="0" len="12" vol="100" />
          <note key="44" pos="360" pan="0" len="24" vol="100" />
          <note key="49" pos="384" pan="0" len="48" vol="100" />
          <note key="77" pos="432" pan="0" len="12" vol="100" />
          <note key="44" pos="456" pan="0" len="24" vol="100" />
          <note key="49" pos="480" pan="0" len="24" vol="100" />
          <note key="77" pos="504" pan="0" len="12" vol="100" />
          <note key="41" pos="552" pan="0" len="24" vol="100" />
          <note key="46" pos="576" pan="0" len="48" vol="100" />
          <note key="77" pos="624" pan="0" len="12" vol="100" />
          <note key="41" pos="648" pan="0" len="24" vol="100" />
          <note key="46" pos="672" pan="0" len="24" vol="100" />
          <note key="75" pos="696" pan="0" len="12" vol="100" />
          <note key="42" pos="744" pan="0" len="24" vol="100" />
          <note key="47" pos="768" pan="0" len="48" vol="100" />
          <note key="78" pos="816" pan="0" len="12" vol="100" />
          <note key="42" pos="840" pan="0" len="24" vol="100" />
          <note key="47" pos="864" pan="0" len="24" vol="100" />
          <note key="78" pos="888" pan="0" len="12" vol="100" />
          <note key="39" pos="936" pan="0" len="24" vol="100" />
          <note key="44" pos="960" pan="0" len="48" vol="100" />
          <note key="80" pos="1008" pan="0" len="12" vol="100" />
          <note key="39" pos="1032" pan="0" len="24" vol="100" />
          <note key="44" pos="1056" pan="0" len="24" vol="100" />
          <note key="78" pos="1080" pan="0" len="12" vol="100" />
          <note key="44" pos="1128" pan="0" len="24" vol="100" />
          <note key="49" pos="1152" pan="0" len="48" vol="100" />
          <note key="77" pos="1200" pan="0" len="12" vol="100" />
          <note key="44" pos="1224" pan="0" len="24" vol="100" />
          <note key="49" pos="1248" pan="0" len="24" vol="100" />
          <note key="77" pos="1272" pan="0" len="12" vol="100" />
          <note key="44" pos="1344" pan="0" len="48" vol="100" />
          <note key="75" pos="1392" pan="0" len="12" vol="100" />
          <note key="39" pos="1416" pan="0" len="24" vol="100" />
          <note key="44" pos="1440" pan="0" len="24" vol="100" />
          <note key="78" pos="1464" pan="0" len="12" vol="100" />
        </pattern>
        <pattern pos="235020" muted="0" steps="16" name="" type="1">
          <note key="46" pos="0" pan="0" len="48" vol="100" />
          <note key="73" pos="48" pan="0" len="12" vol="100" />
          <note key="41" pos="72" pan="0" len="24" vol="100" />
          <note key="46" pos="96" pan="0" len="24" vol="100" />
          <note key="73" pos="120" pan="0" len="12" vol="100" />
          <note key="41" pos="168" pan="0" len="24" vol="100" />
          <note key="42" pos="192" pan="0" len="48" vol="100" />
          <note key="78" pos="240" pan="0" len="12" vol="100" />
          <note key="35" pos="264" pan="0" len="24" vol="100" />
          <note key="42" pos="288" pan="0" len="24" vol="100" />
          <note key="78" pos="312" pan="0" len="12" vol="100" />
          <note key="39" pos="360" pan="0" len="24" vol="100" />
          <note key="44" pos="384" pan="0" len="48" vol="100" />
          <note key="72" pos="432" pan="0" len="12" vol="100" />
          <note key="39" pos="456" pan="0" len="24" vol="100" />
          <note key="44" pos="480" pan="0" len="24" vol="100" />
          <note key="72" pos="504" pan="0" len="12" vol="100" />
          <note key="36" pos="552" pan="0" len="24" vol="100" />
          <note key="41" pos="576" pan="0" len="48" vol="100" />
          <note key="72" pos="624" pan="0" len="12" vol="100" />
          <note key="36" pos="648" pan="0" len="24" vol="100" />
          <note key="41" pos="672" pan="0" len="24" vol="100" />
          <note key="72" pos="696" pan="0" len="12" vol="100" />
          <note key="37" pos="744" pan="0" len="24" vol="100" />
          <note key="42" pos="768" pan="0" len="48" vol="100" />
          <note key="73" pos="816" pan="0" len="12" vol="100" />
          <note key="37" pos="840" pan="0" len="24" vol="100" />
          <note key="42" pos="864" pan="0" len="24" vol="100" />
          <note key="73" pos="888" pan="0" len="12" vol="100" />
          <note key="34" pos="936" pan="0" len="24" vol="100" />
          <note key="39" pos="960" pan="0" len="48" vol="100" />
          <note key="75" pos="1008" pan="0" len="12" vol="100" />
          <note key="34" pos="1032" pan="0" len="24" vol="100" />
          <note key="39" pos="1056" pan="0" len="24" vol="100" />
          <note key="75" pos="1080" pan="0" len="12" vol="100" />
          <note key="39" pos="1128" pan="0" len="24" vol="100" />
          <note key="44" pos="1152" pan="0" len="48" vol="100" />
          <note key="72" pos="1200" pan="0" len="12" vol="100" />
          <note key="39" pos="1224" pan="0" len="24" vol="100" />
          <note key="44" pos="1248" pan="0" len="24" vol="100" />
          <note key="72" pos="1272" pan="0" len="12" vol="100" />
          <note key="39" pos="1344" pan="0" len="48" vol="100" />
          <note key="70" pos="1392" pan="0" len="12" vol="100" />
          <note key="34" pos="1416" pan="0" len="24" vol="100" />
          <note key="49" pos="1440" pan="0" len="24" vol="100" />
          <note key="68" pos="1464" pan="0" len="12" vol="100" />
        </pattern>
        <pattern pos="246540" muted="0" steps="16" name="" type="1">
          <note key="58" pos="0" pan="0" len="12" vol="100" />
        </pattern>
      </track>
      <track solo="0" name="1 (Ch11)" type="0" muted="0">
        <instrumenttrack usemasterpitch="1" pitch="0.0" basenote="57" pan="0" pitchrange="12" vol="30">
          <eldata />
          <instrument name="tripleoscillator" />
        </instrumenttrack>
        <pattern pos="246540" muted="0" steps="16" name="" type="1">
          <note key="46" pos="0" pan="0" len="12" vol="100" />
        </pattern>
        <pattern pos="4608" muted="0" steps="16" name="" type="1">
          <note key="98" pos="624" pan="0" len="12" vol="100" />
          <note key="101" pos="672" pan="0" len="12" vol="100" />
        </pattern>
        <pattern pos="18432" muted="0" steps="16" name="" type="1">
          <note key="82" pos="1344" pan="0" len="12" vol="100" />
        </pattern>
        <pattern pos="29184" muted="0" steps="16" name="" type="1">
          <note key="72" pos="384" pan="0" len="12" vol="100" />
        </pattern>
        <pattern pos="78336" muted="0" steps="16" name="" type="1">
          <note key="84" pos="432" pan="0" len="72" vol="34" />
          <note key="81" pos="504" pan="0" len="24" vol="100" />
          <note key="74" pos="1044" pan="0" len="36" vol="100" />
          <note key="77" pos="1080" pan="0" len="24" vol="100" />
          <note key="84" pos="1584" pan="0" len="72" vol="34" />
          <note key="81" pos="1656" pan="0" len="24" vol="100" />
          <note key="74" pos="2196" pan="0" len="36" vol="100" />
          <note key="77" pos="2232" pan="0" len="24" vol="100" />
        </pattern>
        <pattern pos="89856" muted="0" steps="16" name="" type="1">
          <note key="84" pos="432" pan="0" len="72" vol="34" />
          <note key="81" pos="504" pan="0" len="24" vol="100" />
          <note key="74" pos="1044" pan="0" len="36" vol="100" />
          <note key="77" pos="1080" pan="0" len="24" vol="100" />
        </pattern>
        <pattern pos="225804" muted="0" steps="16" name="" type="1">
          <note key="73" pos="48" pan="0" len="24" vol="100" />
          <note key="73" pos="144" pan="0" len="24" vol="100" />
          <note key="80" pos="240" pan="0" len="48" vol="100" />
          <note key="78" pos="288" pan="0" len="60" vol="100" />
          <note key="73" pos="432" pan="0" len="24" vol="100" />
          <note key="73" pos="528" pan="0" len="24" vol="100" />
          <note key="77" pos="624" pan="0" len="24" vol="100" />
          <note key="75" pos="720" pan="0" len="24" vol="100" />
          <note key="73" pos="816" pan="0" len="24" vol="100" />
          <note key="73" pos="912" pan="0" len="24" vol="100" />
          <note key="75" pos="1008" pan="0" len="24" vol="100" />
          <note key="73" pos="1104" pan="0" len="36" vol="100" />
          <note key="73" pos="1200" pan="0" len="24" vol="100" />
          <note key="73" pos="1296" pan="0" len="24" vol="100" />
          <note key="77" pos="1392" pan="0" len="24" vol="100" />
          <note key="75" pos="1488" pan="0" len="24" vol="100" />
        </pattern>
        <pattern pos="227340" muted="0" steps="16" name="" type="1">
          <note key="82" pos="48" pan="0" len="12" vol="100" />
          <note key="82" pos="120" pan="0" len="12" vol="100" />
          <note key="75" pos="240" pan="0" len="12" vol="100" />
          <note key="75" pos="312" pan="0" len="12" vol="100" />
          <note key="80" pos="432" pan="0" len="12" vol="100" />
          <note key="80" pos="504" pan="0" len="12" vol="100" />
          <note key="80" pos="624" pan="0" len="12" vol="100" />
          <note key="80" pos="696" pan="0" len="12" vol="100" />
          <note key="83" pos="816" pan="0" len="12" vol="100" />
          <note key="83" pos="888" pan="0" len="12" vol="100" />
          <note key="83" pos="1008" pan="0" len="12" vol="100" />
          <note key="83" pos="1080" pan="0" len="12" vol="100" />
          <note key="80" pos="1200" pan="0" len="12" vol="100" />
          <note key="80" pos="1272" pan="0" len="12" vol="100" />
          <note key="80" pos="1392" pan="0" len="12" vol="100" />
          <note key="82" pos="1464" pan="0" len="12" vol="100" />
        </pattern>
        <pattern pos="228876" muted="0" steps="16" name="" type="1">
          <note key="79" pos="48" pan="0" len="12" vol="100" />
          <note key="79" pos="120" pan="0" len="12" vol="100" />
          <note key="72" pos="240" pan="0" len="12" vol="100" />
          <note key="72" pos="312" pan="0" len="12" vol="100" />
          <note key="77" pos="432" pan="0" len="12" vol="100" />
          <note key="77" pos="504" pan="0" len="12" vol="100" />
          <note key="77" pos="624" pan="0" len="12" vol="100" />
          <note key="77" pos="696" pan="0" len="12" vol="100" />
          <note key="80" pos="816" pan="0" len="12" vol="100" />
          <note key="80" pos="888" pan="0" len="12" vol="100" />
          <note key="80" pos="1008" pan="0" len="12" vol="100" />
          <note key="80" pos="1080" pan="0" len="12" vol="100" />
          <note key="77" pos="1200" pan="0" len="12" vol="100" />
          <note key="77" pos="1272" pan="0" len="12" vol="100" />
          <note key="72" pos="1392" pan="0" len="12" vol="100" />
          <note key="70" pos="1464" pan="0" len="24" vol="100" />
        </pattern>
        <pattern pos="233484" muted="0" steps="16" name="" type="1">
          <note key="82" pos="48" pan="0" len="12" vol="100" />
          <note key="82" pos="120" pan="0" len="12" vol="100" />
          <note key="75" pos="240" pan="0" len="12" vol="100" />
          <note key="75" pos="312" pan="0" len="12" vol="100" />
          <note key="80" pos="432" pan="0" len="12" vol="100" />
          <note key="80" pos="504" pan="0" len="12" vol="100" />
          <note key="80" pos="624" pan="0" len="12" vol="100" />
          <note key="80" pos="696" pan="0" len="12" vol="100" />
          <note key="83" pos="816" pan="0" len="12" vol="100" />
          <note key="83" pos="888" pan="0" len="12" vol="100" />
          <note key="83" pos="1008" pan="0" len="12" vol="100" />
          <note key="82" pos="1080" pan="0" len="12" vol="100" />
          <note key="80" pos="1200" pan="0" len="12" vol="100" />
          <note key="80" pos="1272" pan="0" len="12" vol="100" />
          <note key="80" pos="1392" pan="0" len="12" vol="100" />
          <note key="82" pos="1464" pan="0" len="12" vol="100" />
        </pattern>
        <pattern pos="235020" muted="0" steps="16" name="" type="1">
          <note key="77" pos="48" pan="0" len="12" vol="100" />
          <note key="77" pos="120" pan="0" len="12" vol="100" />
          <note key="70" pos="240" pan="0" len="12" vol="100" />
          <note key="70" pos="312" pan="0" len="12" vol="100" />
          <note key="75" pos="432" pan="0" len="12" vol="100" />
          <note key="75" pos="504" pan="0" len="12" vol="100" />
          <note key="77" pos="624" pan="0" len="12" vol="100" />
          <note key="78" pos="696" pan="0" len="12" vol="100" />
          <note key="78" pos="816" pan="0" len="12" vol="100" />
          <note key="78" pos="888" pan="0" len="12" vol="100" />
          <note key="78" pos="1008" pan="0" len="12" vol="100" />
          <note key="77" pos="1080" pan="0" len="12" vol="100" />
          <note key="75" pos="1200" pan="0" len="12" vol="100" />
          <note key="75" pos="1272" pan="0" len="12" vol="100" />
          <note key="75" pos="1392" pan="0" len="12" vol="100" />
          <note key="73" pos="1464" pan="0" len="12" vol="100" />
        </pattern>
      </track>
      <track solo="0" name="1 (Ch12)" type="0" muted="0">
        <instrumenttrack usemasterpitch="1" pitch="0.0" basenote="57" pan="0" pitchrange="12" vol="30">
          <eldata />
          <instrument name="tripleoscillator" />
        </instrumenttrack>
        <pattern pos="236556" muted="0" steps="16" name="" type="1">
          <note key="65" pos="192" pan="0" len="48" vol="100" />
          <note key="67" pos="264" pan="0" len="48" vol="100" />
          <note key="70" pos="312" pan="0" len="24" vol="100" />
          <note key="77" pos="384" pan="0" len="48" vol="100" />
        </pattern>
        <pattern pos="3072" muted="0" steps="16" name="" type="1">
          <note key="101" pos="672" pan="0" len="24" vol="100" />
        </pattern>
        <pattern pos="18432" muted="0" steps="16" name="" type="1">
          <note key="86" pos="1344" pan="0" len="12" vol="100" />
        </pattern>
        <pattern pos="19968" muted="0" steps="16" name="" type="1">
          <note key="91" pos="0" pan="0" len="12" vol="30" />
          <note key="91" pos="24" pan="0" len="12" vol="30" />
          <note key="94" pos="48" pan="0" len="12" vol="30" />
          <note key="91" pos="72" pan="0" len="12" vol="30" />
          <note key="99" pos="96" pan="0" len="12" vol="30" />
          <note key="98" pos="120" pan="0" len="12" vol="30" />
          <note key="94" pos="144" pan="0" len="12" vol="30" />
          <note key="96" pos="168" pan="0" len="12" vol="30" />
          <note key="101" pos="192" pan="0" len="12" vol="30" />
          <note key="103" pos="216" pan="0" len="12" vol="30" />
          <note key="99" pos="240" pan="0" len="12" vol="30" />
          <note key="101" pos="264" pan="0" len="12" vol="30" />
          <note key="98" pos="288" pan="0" len="12" vol="30" />
          <note key="94" pos="312" pan="0" len="12" vol="30" />
          <note key="91" pos="336" pan="0" len="12" vol="30" />
          <note key="94" pos="360" pan="0" len="12" vol="30" />
          <note key="96" pos="384" pan="0" len="12" vol="30" />
          <note key="96" pos="408" pan="0" len="12" vol="30" />
          <note key="99" pos="432" pan="0" len="12" vol="30" />
          <note key="96" pos="456" pan="0" len="12" vol="30" />
          <note key="98" pos="480" pan="0" len="12" vol="30" />
          <note key="99" pos="504" pan="0" len="12" vol="30" />
          <note key="94" pos="528" pan="0" len="12" vol="30" />
          <note key="91" pos="552" pan="0" len="12" vol="30" />
          <note key="96" pos="576" pan="0" len="12" vol="30" />
          <note key="96" pos="600" pan="0" len="12" vol="30" />
          <note key="94" pos="624" pan="0" len="12" vol="30" />
          <note key="91" pos="648" pan="0" len="12" vol="30" />
          <note key="99" pos="672" pan="0" len="12" vol="30" />
          <note key="98" pos="696" pan="0" len="12" vol="30" />
          <note key="94" pos="720" pan="0" len="12" vol="30" />
          <note key="96" pos="744" pan="0" len="12" vol="30" />
          <note key="91" pos="768" pan="0" len="12" vol="30" />
          <note key="91" pos="792" pan="0" len="12" vol="30" />
          <note key="94" pos="816" pan="0" len="12" vol="30" />
          <note key="91" pos="840" pan="0" len="12" vol="30" />
          <note key="99" pos="864" pan="0" len="12" vol="30" />
          <note key="98" pos="888" pan="0" len="12" vol="30" />
          <note key="94" pos="912" pan="0" len="12" vol="30" />
          <note key="96" pos="936" pan="0" len="12" vol="30" />
          <note key="101" pos="960" pan="0" len="12" vol="30" />
          <note key="103" pos="984" pan="0" len="12" vol="30" />
          <note key="99" pos="1008" pan="0" len="12" vol="30" />
          <note key="101" pos="1032" pan="0" len="12" vol="30" />
          <note key="98" pos="1056" pan="0" len="12" vol="30" />
          <note key="94" pos="1080" pan="0" len="12" vol="30" />
          <note key="91" pos="1104" pan="0" len="12" vol="30" />
          <note key="94" pos="1128" pan="0" len="12" vol="30" />
          <note key="96" pos="1152" pan="0" len="12" vol="30" />
          <note key="96" pos="1176" pan="0" len="12" vol="30" />
          <note key="99" pos="1200" pan="0" len="12" vol="30" />
          <note key="96" pos="1224" pan="0" len="12" vol="30" />
          <note key="98" pos="1248" pan="0" len="12" vol="30" />
          <note key="99" pos="1272" pan="0" len="12" vol="30" />
          <note key="94" pos="1296" pan="0" len="12" vol="30" />
          <note key="91" pos="1320" pan="0" len="12" vol="30" />
        </pattern>
        <pattern pos="29184" muted="0" steps="16" name="" type="1">
          <note key="76" pos="384" pan="0" len="12" vol="100" />
        </pattern>
        <pattern pos="78336" muted="0" steps="16" name="" type="1">
          <note key="88" pos="432" pan="0" len="72" vol="34" />
          <note key="86" pos="504" pan="0" len="24" vol="100" />
          <note key="79" pos="1044" pan="0" len="36" vol="100" />
          <note key="81" pos="1080" pan="0" len="24" vol="100" />
          <note key="88" pos="1584" pan="0" len="72" vol="34" />
          <note key="86" pos="1656" pan="0" len="24" vol="100" />
          <note key="79" pos="2196" pan="0" len="36" vol="100" />
          <note key="81" pos="2232" pan="0" len="24" vol="100" />
        </pattern>
        <pattern pos="89856" muted="0" steps="16" name="" type="1">
          <note key="88" pos="432" pan="0" len="72" vol="34" />
          <note key="86" pos="504" pan="0" len="24" vol="100" />
          <note key="79" pos="1044" pan="0" len="36" vol="100" />
          <note key="81" pos="1080" pan="0" len="24" vol="100" />
        </pattern>
        <pattern pos="225804" muted="0" steps="16" name="" type="1">
          <note key="77" pos="48" pan="0" len="24" vol="100" />
          <note key="77" pos="144" pan="0" len="24" vol="100" />
          <note key="75" pos="240" pan="0" len="48" vol="100" />
          <note key="82" pos="288" pan="0" len="60" vol="100" />
          <note key="78" pos="432" pan="0" len="24" vol="100" />
          <note key="78" pos="528" pan="0" len="24" vol="100" />
          <note key="80" pos="624" pan="0" len="24" vol="100" />
          <note key="80" pos="720" pan="0" len="24" vol="100" />
          <note key="77" pos="816" pan="0" len="24" vol="100" />
          <note key="77" pos="912" pan="0" len="24" vol="100" />
          <note key="80" pos="1008" pan="0" len="24" vol="100" />
          <note key="78" pos="1104" pan="0" len="36" vol="100" />
          <note key="78" pos="1200" pan="0" len="24" vol="100" />
          <note key="78" pos="1296" pan="0" len="24" vol="100" />
          <note key="80" pos="1392" pan="0" len="24" vol="100" />
          <note key="80" pos="1488" pan="0" len="24" vol="100" />
        </pattern>
        <pattern pos="227340" muted="0" steps="16" name="" type="1">
          <note key="87" pos="48" pan="0" len="12" vol="100" />
          <note key="87" pos="120" pan="0" len="12" vol="100" />
          <note key="80" pos="240" pan="0" len="12" vol="100" />
          <note key="80" pos="312" pan="0" len="12" vol="100" />
          <note key="85" pos="432" pan="0" len="12" vol="100" />
          <note key="85" pos="504" pan="0" len="12" vol="100" />
          <note key="85" pos="624" pan="0" len="12" vol="100" />
          <note key="85" pos="696" pan="0" len="12" vol="100" />
          <note key="87" pos="816" pan="0" len="12" vol="100" />
          <note key="87" pos="888" pan="0" len="12" vol="100" />
          <note key="87" pos="1008" pan="0" len="12" vol="100" />
          <note key="87" pos="1080" pan="0" len="12" vol="100" />
          <note key="85" pos="1200" pan="0" len="12" vol="100" />
          <note key="85" pos="1272" pan="0" len="12" vol="100" />
          <note key="83" pos="1392" pan="0" len="12" vol="100" />
          <note key="85" pos="1464" pan="0" len="12" vol="100" />
        </pattern>
        <pattern pos="228876" muted="0" steps="16" name="" type="1">
          <note key="84" pos="48" pan="0" len="12" vol="100" />
          <note key="84" pos="120" pan="0" len="12" vol="100" />
          <note key="77" pos="240" pan="0" len="12" vol="100" />
          <note key="77" pos="312" pan="0" len="12" vol="100" />
          <note key="82" pos="432" pan="0" len="12" vol="100" />
          <note key="82" pos="504" pan="0" len="12" vol="100" />
          <note key="82" pos="624" pan="0" len="12" vol="100" />
          <note key="82" pos="696" pan="0" len="12" vol="100" />
          <note key="84" pos="816" pan="0" len="12" vol="100" />
          <note key="84" pos="888" pan="0" len="12" vol="100" />
          <note key="84" pos="1008" pan="0" len="12" vol="100" />
          <note key="84" pos="1080" pan="0" len="12" vol="100" />
          <note key="82" pos="1200" pan="0" len="12" vol="100" />
          <note key="82" pos="1272" pan="0" len="12" vol="100" />
          <note key="77" pos="1392" pan="0" len="12" vol="100" />
          <note key="75" pos="1464" pan="0" len="24" vol="100" />
        </pattern>
        <pattern pos="233484" muted="0" steps="16" name="" type="1">
          <note key="87" pos="48" pan="0" len="12" vol="100" />
          <note key="87" pos="120" pan="0" len="12" vol="100" />
          <note key="80" pos="240" pan="0" len="12" vol="100" />
          <note key="80" pos="312" pan="0" len="12" vol="100" />
          <note key="85" pos="432" pan="0" len="12" vol="100" />
          <note key="85" pos="504" pan="0" len="12" vol="100" />
          <note key="85" pos="624" pan="0" len="12" vol="100" />
          <note key="83" pos="696" pan="0" len="12" vol="100" />
          <note key="87" pos="816" pan="0" len="12" vol="100" />
          <note key="87" pos="888" pan="0" len="12" vol="100" />
          <note key="87" pos="1008" pan="0" len="12" vol="100" />
          <note key="87" pos="1080" pan="0" len="12" vol="100" />
          <note key="85" pos="1200" pan="0" len="12" vol="100" />
          <note key="85" pos="1272" pan="0" len="12" vol="100" />
          <note key="83" pos="1392" pan="0" len="12" vol="100" />
          <note key="85" pos="1464" pan="0" len="12" vol="100" />
        </pattern>
        <pattern pos="235020" muted="0" steps="16" name="" type="1">
          <note key="82" pos="48" pan="0" len="12" vol="100" />
          <note key="82" pos="120" pan="0" len="12" vol="100" />
          <note key="75" pos="240" pan="0" len="12" vol="100" />
          <note key="75" pos="312" pan="0" len="12" vol="100" />
          <note key="80" pos="432" pan="0" len="12" vol="100" />
          <note key="80" pos="504" pan="0" len="12" vol="100" />
          <note key="80" pos="624" pan="0" len="12" vol="100" />
          <note key="80" pos="696" pan="0" len="12" vol="100" />
          <note key="82" pos="816" pan="0" len="12" vol="100" />
          <note key="82" pos="888" pan="0" len="12" vol="100" />
          <note key="82" pos="1008" pan="0" len="12" vol="100" />
          <note key="82" pos="1080" pan="0" len="12" vol="100" />
          <note key="80" pos="1200" pan="0" len="12" vol="100" />
          <note key="80" pos="1272" pan="0" len="12" vol="100" />
          <note key="78" pos="1392" pan="0" len="12" vol="100" />
          <note key="77" pos="1464" pan="0" len="12" vol="100" />
        </pattern>
      </track>
      <track solo="0" name="1 (Ch13)" type="0" muted="0">
        <instrumenttrack usemasterpitch="1" pitch="0.0" basenote="57" pan="0" pitchrange="12" vol="30">
          <eldata />
          <instrument name="tripleoscillator" />
        </instrumenttrack>
        <pattern pos="236556" muted="0" steps="16" name="" type="1">
          <note key="75" pos="192" pan="0" len="48" vol="100" />
          <note key="75" pos="264" pan="0" len="24" vol="100" />
          <note key="77" pos="312" pan="0" len="24" vol="100" />
          <note key="82" pos="384" pan="0" len="48" vol="100" />
        </pattern>
        <pattern pos="18432" muted="0" steps="16" name="" type="1">
          <note key="89" pos="1344" pan="0" len="12" vol="100" />
        </pattern>
        <pattern pos="23040" muted="0" steps="16" name="" type="1">
          <note key="78" pos="768" pan="0" len="24" vol="100" />
        </pattern>
        <pattern pos="24576" muted="0" steps="16" name="" type="1">
          <note key="41" pos="768" pan="0" len="72" vol="100" />
        </pattern>
        <pattern pos="27648" muted="0" steps="16" name="" type="1">
          <note key="82" pos="384" pan="0" len="36" vol="100" />
          <note key="82" pos="1152" pan="0" len="36" vol="100" />
        </pattern>
        <pattern pos="29184" muted="0" steps="16" name="" type="1">
          <note key="79" pos="384" pan="0" len="12" vol="100" />
        </pattern>
        <pattern pos="78336" muted="0" steps="16" name="" type="1">
          <note key="91" pos="432" pan="0" len="72" vol="34" />
          <note key="89" pos="504" pan="0" len="24" vol="100" />
          <note key="83" pos="1044" pan="0" len="36" vol="100" />
          <note key="86" pos="1080" pan="0" len="24" vol="100" />
          <note key="91" pos="1584" pan="0" len="72" vol="34" />
          <note key="89" pos="1656" pan="0" len="24" vol="100" />
          <note key="83" pos="2196" pan="0" len="36" vol="100" />
          <note key="86" pos="2232" pan="0" len="24" vol="100" />
        </pattern>
        <pattern pos="89856" muted="0" steps="16" name="" type="1">
          <note key="91" pos="432" pan="0" len="72" vol="34" />
          <note key="89" pos="504" pan="0" len="24" vol="100" />
          <note key="83" pos="1044" pan="0" len="36" vol="100" />
          <note key="86" pos="1080" pan="0" len="24" vol="100" />
        </pattern>
        <pattern pos="231948" muted="0" steps="16" name="" type="1">
          <note key="46" pos="0" pan="0" len="12" vol="100" />
          <note key="58" pos="24" pan="0" len="24" vol="100" />
          <note key="46" pos="48" pan="0" len="12" vol="100" />
          <note key="58" pos="72" pan="0" len="24" vol="100" />
          <note key="46" pos="96" pan="0" len="12" vol="100" />
          <note key="58" pos="120" pan="0" len="24" vol="100" />
          <note key="46" pos="144" pan="0" len="12" vol="100" />
          <note key="58" pos="168" pan="0" len="24" vol="100" />
          <note key="44" pos="192" pan="0" len="12" vol="100" />
          <note key="56" pos="216" pan="0" len="24" vol="100" />
          <note key="44" pos="240" pan="0" len="12" vol="100" />
          <note key="56" pos="264" pan="0" len="24" vol="100" />
          <note key="42" pos="288" pan="0" len="12" vol="100" />
          <note key="54" pos="312" pan="0" len="24" vol="100" />
          <note key="42" pos="336" pan="0" len="12" vol="100" />
          <note key="54" pos="360" pan="0" len="24" vol="100" />
          <note key="42" pos="384" pan="0" len="12" vol="100" />
          <note key="54" pos="408" pan="0" len="24" vol="100" />
          <note key="42" pos="432" pan="0" len="12" vol="100" />
          <note key="49" pos="456" pan="0" len="24" vol="100" />
          <note key="42" pos="480" pan="0" len="12" vol="100" />
          <note key="54" pos="504" pan="0" len="24" vol="100" />
          <note key="42" pos="528" pan="0" len="12" vol="100" />
          <note key="54" pos="552" pan="0" len="24" vol="100" />
          <note key="37" pos="576" pan="0" len="12" vol="100" />
          <note key="49" pos="600" pan="0" len="24" vol="100" />
          <note key="37" pos="624" pan="0" len="12" vol="100" />
          <note key="51" pos="648" pan="0" len="24" vol="100" />
          <note key="44" pos="672" pan="0" len="12" vol="100" />
          <note key="56" pos="696" pan="0" len="24" vol="100" />
          <note key="44" pos="720" pan="0" len="12" vol="100" />
          <note key="56" pos="744" pan="0" len="24" vol="100" />
          <note key="46" pos="768" pan="0" len="12" vol="100" />
          <note key="58" pos="792" pan="0" len="24" vol="100" />
          <note key="46" pos="816" pan="0" len="12" vol="100" />
          <note key="58" pos="840" pan="0" len="24" vol="100" />
          <note key="46" pos="864" pan="0" len="12" vol="100" />
          <note key="58" pos="888" pan="0" len="24" vol="100" />
          <note key="46" pos="912" pan="0" len="12" vol="100" />
          <note key="58" pos="936" pan="0" len="24" vol="100" />
          <note key="44" pos="960" pan="0" len="12" vol="100" />
          <note key="56" pos="984" pan="0" len="24" vol="100" />
          <note key="44" pos="1008" pan="0" len="12" vol="100" />
          <note key="56" pos="1032" pan="0" len="24" vol="100" />
          <note key="42" pos="1056" pan="0" len="12" vol="100" />
          <note key="54" pos="1080" pan="0" len="24" vol="100" />
          <note key="42" pos="1104" pan="0" len="12" vol="100" />
          <note key="54" pos="1128" pan="0" len="24" vol="100" />
          <note key="42" pos="1152" pan="0" len="12" vol="100" />
          <note key="54" pos="1176" pan="0" len="24" vol="100" />
          <note key="42" pos="1200" pan="0" len="12" vol="100" />
          <note key="49" pos="1224" pan="0" len="24" vol="100" />
          <note key="42" pos="1248" pan="0" len="12" vol="100" />
          <note key="54" pos="1272" pan="0" len="24" vol="100" />
          <note key="42" pos="1296" pan="0" len="12" vol="100" />
          <note key="54" pos="1320" pan="0" len="24" vol="100" />
          <note key="37" pos="1344" pan="0" len="12" vol="100" />
          <note key="49" pos="1368" pan="0" len="24" vol="100" />
          <note key="37" pos="1392" pan="0" len="12" vol="100" />
          <note key="49" pos="1416" pan="0" len="24" vol="100" />
          <note key="44" pos="1440" pan="0" len="12" vol="100" />
          <note key="56" pos="1464" pan="0" len="24" vol="100" />
          <note key="44" pos="1488" pan="0" len="12" vol="100" />
          <note key="56" pos="1512" pan="0" len="24" vol="100" />
        </pattern>
      </track>
      <track solo="0" name="1 (Ch14)" type="0" muted="0">
        <instrumenttrack usemasterpitch="1" pitch="0.0" basenote="57" pan="0" pitchrange="12" vol="30">
          <eldata />
          <instrument name="tripleoscillator" />
        </instrumenttrack>
        <pattern pos="236556" muted="0" steps="16" name="" type="1">
          <note key="77" pos="192" pan="0" len="48" vol="100" />
          <note key="79" pos="264" pan="0" len="24" vol="100" />
          <note key="82" pos="312" pan="0" len="24" vol="100" />
          <note key="86" pos="384" pan="0" len="48" vol="100" />
        </pattern>
        <pattern pos="23040" muted="0" steps="16" name="" type="1">
          <note key="82" pos="768" pan="0" len="24" vol="100" />
        </pattern>
        <pattern pos="27648" muted="0" steps="16" name="" type="1">
          <note key="87" pos="384" pan="0" len="36" vol="100" />
          <note key="87" pos="1152" pan="0" len="36" vol="100" />
        </pattern>
        <pattern pos="76032" muted="0" steps="16" name="" type="1">
          <note key="89" pos="1116" pan="0" len="12" vol="100" />
          <note key="91" pos="1152" pan="0" len="12" vol="100" />
          <note key="88" pos="1188" pan="0" len="12" vol="100" />
          <note key="89" pos="1224" pan="0" len="12" vol="100" />
          <note key="86" pos="1260" pan="0" len="12" vol="100" />
          <note key="88" pos="1296" pan="0" len="12" vol="100" />
          <note key="89" pos="1404" pan="0" len="12" vol="100" />
          <note key="91" pos="1440" pan="0" len="12" vol="100" />
          <note key="88" pos="1476" pan="0" len="12" vol="100" />
          <note key="89" pos="1512" pan="0" len="12" vol="100" />
          <note key="84" pos="1548" pan="0" len="12" vol="100" />
          <note key="83" pos="1584" pan="0" len="12" vol="100" />
        </pattern>
        <pattern pos="87552" muted="0" steps="16" name="" type="1">
          <note key="89" pos="1116" pan="0" len="12" vol="100" />
          <note key="91" pos="1152" pan="0" len="12" vol="100" />
          <note key="88" pos="1188" pan="0" len="12" vol="100" />
          <note key="89" pos="1224" pan="0" len="12" vol="100" />
          <note key="86" pos="1260" pan="0" len="12" vol="100" />
          <note key="88" pos="1296" pan="0" len="12" vol="100" />
          <note key="89" pos="1404" pan="0" len="12" vol="100" />
          <note key="91" pos="1440" pan="0" len="12" vol="100" />
          <note key="88" pos="1476" pan="0" len="12" vol="100" />
          <note key="89" pos="1512" pan="0" len="12" vol="100" />
          <note key="84" pos="1548" pan="0" len="12" vol="100" />
          <note key="83" pos="1584" pan="0" len="12" vol="100" />
        </pattern>
        <pattern pos="169740" muted="0" steps="16" name="" type="1">
          <note key="89" pos="1248" pan="0" len="60" vol="100" />
        </pattern>
      </track>
      <track solo="0" name="1 (Ch15)" type="0" muted="0">
        <instrumenttrack usemasterpitch="1" pitch="0.0" basenote="57" pan="0" pitchrange="12" vol="30">
          <eldata />
          <instrument name="tripleoscillator" />
        </instrumenttrack>
        <pattern pos="236556" muted="0" steps="16" name="" type="1">
          <note key="46" pos="384" pan="0" len="48" vol="100" />
        </pattern>
        <pattern pos="23040" muted="0" steps="16" name="" type="1">
          <note key="87" pos="768" pan="0" len="24" vol="100" />
        </pattern>
        <pattern pos="27648" muted="0" steps="16" name="" type="1">
          <note key="91" pos="384" pan="0" len="36" vol="100" />
          <note key="91" pos="1152" pan="0" len="36" vol="100" />
        </pattern>
        <pattern pos="92160" muted="0" steps="16" name="" type="1">
          <note key="62" pos="2304" pan="0" len="96" vol="100" />
          <note key="50" pos="2496" pan="0" len="96" vol="100" />
          <note key="53" pos="2688" pan="0" len="96" vol="100" />
          <note key="43" pos="2880" pan="0" len="96" vol="100" />
          <note key="55" pos="2976" pan="0" len="96" vol="100" />
        </pattern>
        <pattern pos="110592" muted="0" steps="16" name="" type="1">
          <note key="62" pos="2304" pan="0" len="96" vol="100" />
          <note key="50" pos="2496" pan="0" len="96" vol="100" />
          <note key="53" pos="2688" pan="0" len="96" vol="100" />
          <note key="43" pos="2880" pan="0" len="96" vol="100" />
          <note key="55" pos="2976" pan="0" len="96" vol="100" />
        </pattern>
      </track>
      <track solo="0" name="1 (Ch16)" type="0" muted="0">
        <instrumenttrack usemasterpitch="1" pitch="0.0" basenote="57" pan="0" pitchrange="12" vol="30">
          <eldata />
          <instrument name="tripleoscillator" />
        </instrumenttrack>
        <pattern pos="27648" muted="0" steps="16" name="" type="1">
          <note key="103" pos="384" pan="0" len="12" vol="69" />
          <note key="103" pos="1152" pan="0" len="12" vol="69" />
        </pattern>
        <pattern pos="24576" muted="0" steps="16" name="" type="1">
          <note key="53" pos="768" pan="0" len="72" vol="100" />
        </pattern>
      </track>
      <track solo="0" name="1 (Ch17)" type="0" muted="0">
        <instrumenttrack usemasterpitch="1" pitch="0.0" basenote="57" pan="0" pitchrange="12" vol="30">
          <eldata />
          <instrument name="tripleoscillator" />
        </instrumenttrack>
        <pattern pos="97536" muted="0" steps="16" name="" type="1">
          <note key="76" pos="0" pan="0" len="48" vol="16" />
          <note key="77" pos="48" pan="0" len="24" vol="22" />
          <note key="76" pos="96" pan="0" len="48" vol="27" />
          <note key="77" pos="144" pan="0" len="24" vol="33" />
          <note key="76" pos="192" pan="0" len="48" vol="38" />
          <note key="77" pos="240" pan="0" len="24" vol="44" />
          <note key="76" pos="288" pan="0" len="48" vol="48" />
          <note key="77" pos="336" pan="0" len="24" vol="55" />
          <note key="76" pos="384" pan="0" len="48" vol="59" />
          <note key="77" pos="432" pan="0" len="24" vol="66" />
          <note key="76" pos="480" pan="0" len="48" vol="70" />
          <note key="77" pos="528" pan="0" len="24" vol="77" />
          <note key="76" pos="576" pan="0" len="48" vol="81" />
          <note key="77" pos="624" pan="0" len="24" vol="88" />
          <note key="76" pos="672" pan="0" len="48" vol="94" />
          <note key="77" pos="720" pan="0" len="24" vol="98" />
        </pattern>
      </track>
      <track solo="0" name="1 (Ch18)" type="0" muted="0">
        <instrumenttrack usemasterpitch="1" pitch="0.0" basenote="57" pan="0" pitchrange="12" vol="30">
          <eldata />
          <instrument name="tripleoscillator" />
        </instrumenttrack>
        <pattern pos="97536" muted="0" steps="16" name="" type="1">
          <note key="88" pos="384" pan="0" len="48" vol="59" />
          <note key="89" pos="432" pan="0" len="24" vol="66" />
          <note key="88" pos="480" pan="0" len="48" vol="70" />
          <note key="89" pos="528" pan="0" len="24" vol="77" />
          <note key="88" pos="576" pan="0" len="48" vol="81" />
          <note key="89" pos="624" pan="0" len="24" vol="88" />
          <note key="88" pos="672" pan="0" len="48" vol="94" />
          <note key="89" pos="720" pan="0" len="24" vol="98" />
        </pattern>
      </track>
      <track solo="0" name="1 (Ch19)" type="0" muted="0">
        <instrumenttrack usemasterpitch="1" pitch="0.0" basenote="57" pan="0" pitchrange="12" vol="30">
          <eldata />
          <instrument name="tripleoscillator" />
        </instrumenttrack>
        <pattern pos="97536" muted="0" steps="16" name="" type="1">
          <note key="100" pos="576" pan="0" len="48" vol="81" />
          <note key="101" pos="624" pan="0" len="24" vol="88" />
          <note key="100" pos="672" pan="0" len="48" vol="94" />
          <note key="101" pos="720" pan="0" len="24" vol="98" />
        </pattern>
      </track>
      <track solo="0" name="2 (Ch1)" type="0" muted="0">
        <instrumenttrack usemasterpitch="1" pitch="0.0" basenote="57" pan="0" pitchrange="12" vol="30">
          <eldata />
          <instrument name="tripleoscillator" />
        </instrumenttrack>
        <pattern pos="228876" muted="0" steps="16" name="" type="1">
          <note key="60" pos="0" pan="0" len="192" vol="100" />
          <note key="58" pos="384" pan="0" len="192" vol="100" />
          <note key="56" pos="768" pan="0" len="192" vol="100" />
          <note key="46" pos="1152" pan="0" len="96" vol="100" />
        </pattern>
        <pattern pos="0" muted="0" steps="16" name="" type="1">
          <note key="48" pos="0" pan="0" len="60" vol="100" />
          <note key="60" pos="96" pan="0" len="72" vol="100" />
          <note key="48" pos="192" pan="0" len="60" vol="100" />
          <note key="60" pos="288" pan="0" len="72" vol="100" />
          <note key="48" pos="384" pan="0" len="60" vol="100" />
          <note key="60" pos="480" pan="0" len="72" vol="100" />
          <note key="48" pos="576" pan="0" len="60" vol="100" />
          <note key="60" pos="672" pan="0" len="72" vol="100" />
          <note key="48" pos="768" pan="0" len="60" vol="100" />
          <note key="60" pos="864" pan="0" len="72" vol="100" />
          <note key="48" pos="960" pan="0" len="60" vol="100" />
          <note key="60" pos="1056" pan="0" len="72" vol="100" />
          <note key="48" pos="1152" pan="0" len="60" vol="100" />
          <note key="60" pos="1248" pan="0" len="72" vol="100" />
          <note key="51" pos="1344" pan="0" len="60" vol="100" />
          <note key="41" pos="1440" pan="0" len="72" vol="100" />
        </pattern>
        <pattern pos="30720" muted="0" steps="16" name="" type="1">
          <note key="48" pos="768" pan="0" len="192" vol="100" />
          <note key="51" pos="960" pan="0" len="96" vol="100" />
          <note key="55" pos="1056" pan="0" len="48" vol="100" />
          <note key="58" pos="1104" pan="0" len="48" vol="100" />
          <note key="48" pos="1152" pan="0" len="192" vol="100" />
          <note key="51" pos="1344" pan="0" len="96" vol="100" />
          <note key="55" pos="1440" pan="0" len="96" vol="100" />
        </pattern>
        <pattern pos="32256" muted="0" steps="16" name="" type="1">
          <note key="48" pos="0" pan="0" len="192" vol="100" />
          <note key="51" pos="192" pan="0" len="96" vol="100" />
          <note key="55" pos="288" pan="0" len="48" vol="100" />
          <note key="58" pos="336" pan="0" len="48" vol="100" />
          <note key="48" pos="384" pan="0" len="192" vol="100" />
          <note key="51" pos="576" pan="0" len="96" vol="100" />
          <note key="55" pos="672" pan="0" len="96" vol="100" />
          <note key="48" pos="768" pan="0" len="192" vol="100" />
          <note key="51" pos="960" pan="0" len="96" vol="100" />
          <note key="55" pos="1056" pan="0" len="48" vol="100" />
          <note key="58" pos="1104" pan="0" len="48" vol="100" />
          <note key="48" pos="1152" pan="0" len="192" vol="100" />
          <note key="51" pos="1344" pan="0" len="96" vol="100" />
          <note key="55" pos="1440" pan="0" len="96" vol="100" />
        </pattern>
        <pattern pos="46080" muted="0" steps="16" name="" type="1">
          <note key="43" pos="24" pan="0" len="96" vol="100" />
          <note key="46" pos="216" pan="0" len="84" vol="100" />
          <note key="44" pos="408" pan="0" len="108" vol="100" />
          <note key="45" pos="600" pan="0" len="120" vol="100" />
          <note key="44" pos="792" pan="0" len="96" vol="100" />
          <note key="47" pos="984" pan="0" len="72" vol="100" />
          <note key="44" pos="1176" pan="0" len="84" vol="100" />
          <note key="45" pos="1368" pan="0" len="84" vol="100" />
        </pattern>
        <pattern pos="49152" muted="0" steps="16" name="" type="1">
          <note key="43" pos="24" pan="0" len="96" vol="100" />
          <note key="46" pos="216" pan="0" len="84" vol="100" />
          <note key="44" pos="408" pan="0" len="108" vol="100" />
          <note key="45" pos="600" pan="0" len="120" vol="100" />
          <note key="44" pos="792" pan="0" len="96" vol="100" />
          <note key="47" pos="984" pan="0" len="72" vol="100" />
          <note key="44" pos="1176" pan="0" len="84" vol="100" />
          <note key="45" pos="1368" pan="0" len="84" vol="100" />
        </pattern>
        <pattern pos="54528" muted="0" steps="16" name="" type="1">
          <note key="43" pos="0" pan="0" len="168" vol="100" />
        </pattern>
        <pattern pos="92160" muted="0" steps="16" name="" type="1">
          <note key="74" pos="0" pan="0" len="384" vol="59" />
          <note key="72" pos="384" pan="0" len="384" vol="59" />
          <note key="76" pos="768" pan="0" len="384" vol="59" />
          <note key="67" pos="1152" pan="0" len="384" vol="59" />
          <note key="74" pos="1536" pan="0" len="384" vol="59" />
          <note key="72" pos="1920" pan="0" len="384" vol="59" />
          <note key="76" pos="2304" pan="0" len="384" vol="59" />
          <note key="67" pos="2688" pan="0" len="384" vol="59" />
        </pattern>
        <pattern pos="95232" muted="0" steps="16" name="" type="1">
          <note key="74" pos="0" pan="0" len="384" vol="59" />
          <note key="72" pos="384" pan="0" len="384" vol="59" />
          <note key="76" pos="768" pan="0" len="384" vol="59" />
          <note key="67" pos="1152" pan="0" len="432" vol="59" />
        </pattern>
        <pattern pos="97536" muted="0" steps="16" name="" type="1">
          <note key="74" pos="0" pan="0" len="384" vol="59" />
          <note key="72" pos="384" pan="0" len="384" vol="59" />
        </pattern>
        <pattern pos="110592" muted="0" steps="16" name="" type="1">
          <note key="74" pos="0" pan="0" len="384" vol="59" />
          <note key="72" pos="384" pan="0" len="384" vol="59" />
          <note key="76" pos="768" pan="0" len="384" vol="59" />
          <note key="67" pos="1152" pan="0" len="384" vol="59" />
          <note key="74" pos="1536" pan="0" len="384" vol="59" />
          <note key="72" pos="1920" pan="0" len="384" vol="59" />
          <note key="76" pos="2304" pan="0" len="384" vol="59" />
          <note key="67" pos="2688" pan="0" len="384" vol="59" />
        </pattern>
        <pattern pos="115968" muted="0" steps="16" name="" type="1">
          <note key="43" pos="0" pan="0" len="144" vol="100" />
          <note key="46" pos="144" pan="0" len="72" vol="100" />
          <note key="48" pos="216" pan="0" len="72" vol="100" />
          <note key="43" pos="288" pan="0" len="72" vol="100" />
          <note key="50" pos="360" pan="0" len="72" vol="100" />
          <note key="46" pos="432" pan="0" len="72" vol="100" />
          <note key="48" pos="504" pan="0" len="72" vol="100" />
          <note key="43" pos="576" pan="0" len="144" vol="100" />
          <note key="46" pos="720" pan="0" len="72" vol="100" />
          <note key="48" pos="792" pan="0" len="72" vol="100" />
          <note key="43" pos="864" pan="0" len="72" vol="100" />
          <note key="50" pos="936" pan="0" len="72" vol="100" />
          <note key="46" pos="1008" pan="0" len="72" vol="100" />
          <note key="48" pos="1080" pan="0" len="72" vol="100" />
          <note key="41" pos="1152" pan="0" len="120" vol="100" />
          <note key="41" pos="1728" pan="0" len="144" vol="100" />
          <note key="44" pos="1872" pan="0" len="72" vol="100" />
          <note key="46" pos="1944" pan="0" len="72" vol="100" />
          <note key="41" pos="2016" pan="0" len="72" vol="100" />
          <note key="48" pos="2088" pan="0" len="72" vol="100" />
          <note key="44" pos="2160" pan="0" len="72" vol="100" />
          <note key="46" pos="2232" pan="0" len="72" vol="100" />
        </pattern>
        <pattern pos="120576" muted="0" steps="16" name="" type="1">
          <note key="43" pos="0" pan="0" len="144" vol="100" />
          <note key="46" pos="144" pan="0" len="72" vol="100" />
          <note key="48" pos="216" pan="0" len="72" vol="100" />
          <note key="43" pos="288" pan="0" len="72" vol="100" />
          <note key="50" pos="360" pan="0" len="72" vol="100" />
          <note key="46" pos="432" pan="0" len="72" vol="100" />
          <note key="48" pos="504" pan="0" len="72" vol="100" />
          <note key="43" pos="576" pan="0" len="144" vol="100" />
          <note key="46" pos="720" pan="0" len="72" vol="100" />
          <note key="48" pos="792" pan="0" len="72" vol="100" />
          <note key="43" pos="864" pan="0" len="72" vol="100" />
          <note key="50" pos="936" pan="0" len="72" vol="100" />
          <note key="46" pos="1008" pan="0" len="72" vol="100" />
          <note key="48" pos="1080" pan="0" len="72" vol="100" />
          <note key="41" pos="1152" pan="0" len="120" vol="100" />
          <note key="41" pos="1728" pan="0" len="144" vol="100" />
          <note key="44" pos="1872" pan="0" len="72" vol="100" />
          <note key="46" pos="1944" pan="0" len="72" vol="100" />
          <note key="41" pos="2016" pan="0" len="72" vol="100" />
          <note key="48" pos="2088" pan="0" len="72" vol="100" />
          <note key="44" pos="2160" pan="0" len="72" vol="100" />
          <note key="46" pos="2232" pan="0" len="72" vol="100" />
        </pattern>
        <pattern pos="122892" muted="0" steps="16" name="" type="1">
          <note key="53" pos="192" pan="0" len="48" vol="100" />
          <note key="56" pos="240" pan="0" len="96" vol="100" />
          <note key="48" pos="384" pan="0" len="132" vol="100" />
          <note key="53" pos="576" pan="0" len="96" vol="100" />
          <note key="56" pos="672" pan="0" len="48" vol="100" />
          <note key="58" pos="720" pan="0" len="48" vol="100" />
        </pattern>
        <pattern pos="144396" muted="0" steps="16" name="" type="1">
          <note key="61" pos="384" pan="0" len="384" vol="0" />
        </pattern>
        <pattern pos="145164" muted="0" steps="16" name="" type="1">
          <note key="61" pos="384" pan="0" len="384" vol="0" />
        </pattern>
        <pattern pos="156684" muted="0" steps="16" name="" type="1">
          <note key="61" pos="384" pan="0" len="384" vol="0" />
        </pattern>
        <pattern pos="227340" muted="0" steps="16" name="" type="1">
          <note key="63" pos="0" pan="0" len="192" vol="100" />
          <note key="61" pos="384" pan="0" len="192" vol="100" />
          <note key="59" pos="768" pan="0" len="192" vol="100" />
          <note key="49" pos="1152" pan="0" len="192" vol="100" />
        </pattern>
      </track>
      <track solo="0" name="2 (Ch2)" type="0" muted="0">
        <instrumenttrack usemasterpitch="1" pitch="0.0" basenote="57" pan="0" pitchrange="12" vol="30">
          <eldata />
          <instrument name="tripleoscillator" />
        </instrumenttrack>
        <pattern pos="272844" muted="0" steps="16" name="" type="1">
          <note key="80" pos="0" pan="0" len="144" vol="100" />
        </pattern>
        <pattern pos="0" muted="0" steps="16" name="" type="1">
          <note key="72" pos="0" pan="0" len="48" vol="100" />
          <note key="74" pos="48" pan="0" len="48" vol="100" />
          <note key="75" pos="96" pan="0" len="48" vol="100" />
          <note key="77" pos="144" pan="0" len="48" vol="100" />
          <note key="82" pos="192" pan="0" len="72" vol="100" />
          <note key="77" pos="288" pan="0" len="72" vol="100" />
          <note key="75" pos="384" pan="0" len="48" vol="100" />
          <note key="77" pos="432" pan="0" len="48" vol="100" />
          <note key="79" pos="480" pan="0" len="48" vol="100" />
          <note key="81" pos="528" pan="0" len="48" vol="100" />
          <note key="79" pos="576" pan="0" len="60" vol="100" />
          <note key="82" pos="672" pan="0" len="60" vol="100" />
          <note key="79" pos="768" pan="0" len="48" vol="100" />
          <note key="81" pos="816" pan="0" len="48" vol="100" />
          <note key="82" pos="864" pan="0" len="48" vol="100" />
          <note key="84" pos="912" pan="0" len="48" vol="100" />
          <note key="79" pos="960" pan="0" len="72" vol="100" />
          <note key="77" pos="1056" pan="0" len="72" vol="100" />
          <note key="81" pos="1152" pan="0" len="48" vol="100" />
          <note key="82" pos="1200" pan="0" len="48" vol="100" />
          <note key="84" pos="1248" pan="0" len="48" vol="100" />
          <note key="86" pos="1296" pan="0" len="48" vol="100" />
          <note key="81" pos="1344" pan="0" len="72" vol="100" />
          <note key="84" pos="1440" pan="0" len="72" vol="100" />
        </pattern>
        <pattern pos="92160" muted="0" steps="16" name="" type="1">
          <note key="77" pos="0" pan="0" len="384" vol="59" />
          <note key="74" pos="384" pan="0" len="384" vol="59" />
          <note key="74" pos="768" pan="0" len="384" vol="59" />
          <note key="72" pos="1152" pan="0" len="384" vol="59" />
          <note key="77" pos="1536" pan="0" len="384" vol="59" />
          <note key="74" pos="1920" pan="0" len="384" vol="59" />
          <note key="74" pos="2304" pan="0" len="384" vol="59" />
          <note key="72" pos="2688" pan="0" len="384" vol="59" />
        </pattern>
        <pattern pos="95232" muted="0" steps="16" name="" type="1">
          <note key="77" pos="0" pan="0" len="384" vol="59" />
          <note key="74" pos="384" pan="0" len="384" vol="59" />
          <note key="74" pos="768" pan="0" len="384" vol="59" />
          <note key="72" pos="1152" pan="0" len="432" vol="59" />
        </pattern>
        <pattern pos="97536" muted="0" steps="16" name="" type="1">
          <note key="77" pos="0" pan="0" len="384" vol="59" />
          <note key="74" pos="384" pan="0" len="384" vol="59" />
        </pattern>
        <pattern pos="98304" muted="0" steps="16" name="" type="1">
          <note key="74" pos="0" pan="0" len="768" vol="100" />
          <note key="74" pos="768" pan="0" len="768" vol="100" />
        </pattern>
        <pattern pos="99840" muted="0" steps="16" name="" type="1">
          <note key="74" pos="0" pan="0" len="768" vol="100" />
          <note key="74" pos="768" pan="0" len="768" vol="100" />
        </pattern>
        <pattern pos="110592" muted="0" steps="16" name="" type="1">
          <note key="77" pos="0" pan="0" len="384" vol="59" />
          <note key="74" pos="384" pan="0" len="384" vol="59" />
          <note key="74" pos="768" pan="0" len="384" vol="59" />
          <note key="72" pos="1152" pan="0" len="384" vol="59" />
          <note key="77" pos="1536" pan="0" len="384" vol="59" />
          <note key="74" pos="1920" pan="0" len="384" vol="59" />
          <note key="74" pos="2304" pan="0" len="384" vol="59" />
          <note key="72" pos="2688" pan="0" len="384" vol="59" />
        </pattern>
        <pattern pos="122892" muted="0" steps="16" name="" type="1">
          <note key="82" pos="0" pan="0" len="72" vol="100" />
          <note key="84" pos="72" pan="0" len="60" vol="100" />
          <note key="80" pos="192" pan="0" len="48" vol="100" />
          <note key="80" pos="240" pan="0" len="48" vol="100" />
          <note key="77" pos="288" pan="0" len="48" vol="100" />
          <note key="82" pos="384" pan="0" len="72" vol="100" />
          <note key="81" pos="456" pan="0" len="60" vol="100" />
          <note key="80" pos="576" pan="0" len="48" vol="100" />
          <note key="77" pos="624" pan="0" len="96" vol="100" />
          <note key="86" pos="720" pan="0" len="48" vol="100" />
        </pattern>
        <pattern pos="144396" muted="0" steps="16" name="" type="1">
          <note key="63" pos="384" pan="0" len="384" vol="0" />
        </pattern>
        <pattern pos="145164" muted="0" steps="16" name="" type="1">
          <note key="65" pos="384" pan="0" len="384" vol="0" />
        </pattern>
        <pattern pos="156684" muted="0" steps="16" name="" type="1">
          <note key="65" pos="384" pan="0" len="384" vol="0" />
        </pattern>
        <pattern pos="165900" muted="0" steps="16" name="" type="1">
          <note key="84" pos="0" pan="0" len="144" vol="100" />
          <note key="84" pos="144" pan="0" len="144" vol="100" />
          <note key="82" pos="288" pan="0" len="480" vol="100" />
        </pattern>
        <pattern pos="183180" muted="0" steps="16" name="" type="1">
          <note key="72" pos="24" pan="0" len="72" vol="100" />
          <note key="74" pos="96" pan="0" len="48" vol="100" />
          <note key="72" pos="312" pan="0" len="72" vol="100" />
          <note key="74" pos="384" pan="0" len="48" vol="100" />
          <note key="74" pos="432" pan="0" len="48" vol="100" />
        </pattern>
        <pattern pos="201996" muted="0" steps="16" name="" type="1">
          <note key="69" pos="240" pan="0" len="48" vol="100" />
          <note key="72" pos="288" pan="0" len="48" vol="100" />
          <note key="67" pos="1008" pan="0" len="48" vol="100" />
          <note key="70" pos="1056" pan="0" len="48" vol="100" />
        </pattern>
      </track>
      <track solo="0" name="2 (Ch3)" type="0" muted="0">
        <instrumenttrack usemasterpitch="1" pitch="0.0" basenote="57" pan="0" pitchrange="12" vol="30">
          <eldata />
          <instrument name="tripleoscillator" />
        </instrumenttrack>
        <pattern pos="272844" muted="0" steps="16" name="" type="1">
          <note key="75" pos="0" pan="0" len="144" vol="100" />
        </pattern>
        <pattern pos="0" muted="0" steps="16" name="" type="1">
          <note key="79" pos="192" pan="0" len="72" vol="100" />
          <note key="81" pos="288" pan="0" len="72" vol="100" />
          <note key="84" pos="576" pan="0" len="60" vol="100" />
          <note key="86" pos="672" pan="0" len="60" vol="100" />
          <note key="84" pos="960" pan="0" len="72" vol="100" />
          <note key="82" pos="1056" pan="0" len="72" vol="100" />
          <note key="84" pos="1344" pan="0" len="72" vol="100" />
          <note key="89" pos="1440" pan="0" len="72" vol="100" />
        </pattern>
        <pattern pos="44544" muted="0" steps="16" name="" type="1">
          <note key="43" pos="24" pan="0" len="96" vol="100" />
          <note key="46" pos="216" pan="0" len="84" vol="100" />
          <note key="43" pos="408" pan="0" len="96" vol="100" />
          <note key="46" pos="600" pan="0" len="84" vol="100" />
          <note key="43" pos="792" pan="0" len="96" vol="100" />
          <note key="46" pos="984" pan="0" len="84" vol="100" />
          <note key="43" pos="1176" pan="0" len="96" vol="100" />
          <note key="46" pos="1368" pan="0" len="84" vol="100" />
        </pattern>
        <pattern pos="47616" muted="0" steps="16" name="" type="1">
          <note key="43" pos="24" pan="0" len="96" vol="100" />
          <note key="46" pos="216" pan="0" len="84" vol="100" />
          <note key="43" pos="408" pan="0" len="96" vol="100" />
          <note key="46" pos="600" pan="0" len="84" vol="100" />
          <note key="43" pos="792" pan="0" len="96" vol="100" />
          <note key="46" pos="984" pan="0" len="84" vol="100" />
          <note key="43" pos="1176" pan="0" len="96" vol="100" />
          <note key="46" pos="1368" pan="0" len="84" vol="100" />
        </pattern>
        <pattern pos="50688" muted="0" steps="16" name="" type="1">
          <note key="43" pos="24" pan="0" len="96" vol="100" />
          <note key="46" pos="216" pan="0" len="84" vol="100" />
          <note key="43" pos="408" pan="0" len="96" vol="100" />
          <note key="46" pos="600" pan="0" len="84" vol="100" />
          <note key="43" pos="792" pan="0" len="96" vol="100" />
          <note key="46" pos="984" pan="0" len="84" vol="100" />
          <note key="43" pos="1176" pan="0" len="96" vol="100" />
          <note key="46" pos="1368" pan="0" len="84" vol="100" />
        </pattern>
        <pattern pos="53760" muted="0" steps="16" name="" type="1">
          <note key="99" pos="0" pan="0" len="192" vol="34" />
          <note key="82" pos="192" pan="0" len="96" vol="100" />
          <note key="81" pos="288" pan="0" len="144" vol="100" />
        </pattern>
        <pattern pos="73728" muted="0" steps="16" name="" type="1">
          <note key="80" pos="0" pan="0" len="288" vol="100" />
          <note key="77" pos="576" pan="0" len="288" vol="100" />
          <note key="80" pos="1152" pan="0" len="288" vol="100" />
          <note key="77" pos="1728" pan="0" len="288" vol="100" />
          <note key="77" pos="2016" pan="0" len="192" vol="100" />
        </pattern>
        <pattern pos="76032" muted="0" steps="16" name="" type="1">
          <note key="77" pos="0" pan="0" len="288" vol="100" />
          <note key="74" pos="576" pan="0" len="288" vol="100" />
          <note key="77" pos="1152" pan="0" len="288" vol="100" />
          <note key="74" pos="1728" pan="0" len="288" vol="100" />
          <note key="74" pos="2016" pan="0" len="192" vol="100" />
        </pattern>
        <pattern pos="85248" muted="0" steps="16" name="" type="1">
          <note key="80" pos="0" pan="0" len="288" vol="100" />
          <note key="77" pos="576" pan="0" len="288" vol="100" />
          <note key="80" pos="1152" pan="0" len="288" vol="100" />
          <note key="77" pos="1728" pan="0" len="288" vol="100" />
          <note key="77" pos="2016" pan="0" len="192" vol="100" />
        </pattern>
        <pattern pos="87552" muted="0" steps="16" name="" type="1">
          <note key="77" pos="0" pan="0" len="288" vol="100" />
          <note key="74" pos="576" pan="0" len="288" vol="100" />
          <note key="77" pos="1152" pan="0" len="288" vol="100" />
          <note key="74" pos="1728" pan="0" len="288" vol="100" />
          <note key="74" pos="2016" pan="0" len="192" vol="100" />
        </pattern>
        <pattern pos="92160" muted="0" steps="16" name="" type="1">
          <note key="81" pos="0" pan="0" len="384" vol="59" />
          <note key="79" pos="384" pan="0" len="384" vol="59" />
          <note key="81" pos="768" pan="0" len="384" vol="59" />
          <note key="76" pos="1152" pan="0" len="384" vol="59" />
          <note key="81" pos="1536" pan="0" len="384" vol="59" />
          <note key="79" pos="1920" pan="0" len="384" vol="59" />
          <note key="81" pos="2304" pan="0" len="384" vol="59" />
          <note key="76" pos="2688" pan="0" len="384" vol="59" />
        </pattern>
        <pattern pos="95232" muted="0" steps="16" name="" type="1">
          <note key="81" pos="0" pan="0" len="384" vol="59" />
          <note key="79" pos="384" pan="0" len="384" vol="59" />
          <note key="81" pos="768" pan="0" len="384" vol="59" />
          <note key="76" pos="1152" pan="0" len="432" vol="59" />
        </pattern>
        <pattern pos="97536" muted="0" steps="16" name="" type="1">
          <note key="81" pos="0" pan="0" len="384" vol="59" />
          <note key="79" pos="384" pan="0" len="384" vol="59" />
        </pattern>
        <pattern pos="98304" muted="0" steps="16" name="" type="1">
          <note key="81" pos="96" pan="0" len="768" vol="100" />
          <note key="81" pos="864" pan="0" len="480" vol="100" />
          <note key="91" pos="1344" pan="0" len="192" vol="100" />
        </pattern>
        <pattern pos="99840" muted="0" steps="16" name="" type="1">
          <note key="81" pos="96" pan="0" len="768" vol="100" />
          <note key="81" pos="864" pan="0" len="480" vol="100" />
          <note key="91" pos="1344" pan="0" len="192" vol="100" />
        </pattern>
        <pattern pos="110592" muted="0" steps="16" name="" type="1">
          <note key="81" pos="0" pan="0" len="384" vol="59" />
          <note key="79" pos="384" pan="0" len="384" vol="59" />
          <note key="81" pos="768" pan="0" len="384" vol="59" />
          <note key="76" pos="1152" pan="0" len="384" vol="59" />
          <note key="81" pos="1536" pan="0" len="384" vol="59" />
          <note key="79" pos="1920" pan="0" len="384" vol="59" />
          <note key="81" pos="2304" pan="0" len="384" vol="59" />
          <note key="76" pos="2688" pan="0" len="384" vol="59" />
        </pattern>
        <pattern pos="122892" muted="0" steps="16" name="" type="1">
          <note key="84" pos="0" pan="0" len="72" vol="100" />
          <note key="89" pos="72" pan="0" len="60" vol="100" />
          <note key="84" pos="192" pan="0" len="48" vol="100" />
          <note key="84" pos="240" pan="0" len="48" vol="100" />
          <note key="82" pos="288" pan="0" len="48" vol="100" />
          <note key="84" pos="384" pan="0" len="72" vol="100" />
          <note key="84" pos="456" pan="0" len="60" vol="100" />
          <note key="84" pos="576" pan="0" len="48" vol="100" />
          <note key="82" pos="624" pan="0" len="48" vol="100" />
          <note key="80" pos="672" pan="0" len="48" vol="100" />
          <note key="77" pos="720" pan="0" len="48" vol="100" />
        </pattern>
        <pattern pos="127500" muted="0" steps="16" name="" type="1">
          <note key="72" pos="24" pan="0" len="36" vol="50" />
          <note key="75" pos="120" pan="0" len="24" vol="69" />
          <note key="67" pos="216" pan="0" len="24" vol="86" />
          <note key="67" pos="312" pan="0" len="24" vol="69" />
          <note key="70" pos="408" pan="0" len="24" vol="50" />
          <note key="72" pos="504" pan="0" len="24" vol="69" />
          <note key="67" pos="600" pan="0" len="24" vol="69" />
          <note key="67" pos="696" pan="0" len="24" vol="69" />
          <note key="72" pos="792" pan="0" len="36" vol="50" />
          <note key="72" pos="864" pan="0" len="48" vol="69" />
          <note key="75" pos="912" pan="0" len="48" vol="94" />
          <note key="70" pos="960" pan="0" len="48" vol="69" />
          <note key="70" pos="1080" pan="0" len="24" vol="69" />
          <note key="70" pos="1176" pan="0" len="24" vol="50" />
          <note key="72" pos="1272" pan="0" len="24" vol="86" />
          <note key="67" pos="1368" pan="0" len="24" vol="69" />
          <note key="67" pos="1464" pan="0" len="24" vol="69" />
        </pattern>
        <pattern pos="144396" muted="0" steps="16" name="" type="1">
          <note key="70" pos="384" pan="0" len="384" vol="0" />
        </pattern>
        <pattern pos="145164" muted="0" steps="16" name="" type="1">
          <note key="68" pos="384" pan="0" len="384" vol="0" />
        </pattern>
        <pattern pos="150540" muted="0" steps="16" name="" type="1">
          <note key="71" pos="384" pan="0" len="96" vol="47" />
          <note key="66" pos="576" pan="0" len="96" vol="47" />
          <note key="53" pos="1152" pan="0" len="96" vol="47" />
          <note key="38" pos="1344" pan="0" len="192" vol="47" />
        </pattern>
        <pattern pos="152076" muted="0" steps="16" name="" type="1">
          <note key="71" pos="384" pan="0" len="96" vol="47" />
          <note key="66" pos="576" pan="0" len="96" vol="47" />
          <note key="53" pos="1152" pan="0" len="96" vol="47" />
          <note key="38" pos="1344" pan="0" len="192" vol="47" />
        </pattern>
        <pattern pos="156684" muted="0" steps="16" name="" type="1">
          <note key="68" pos="384" pan="0" len="384" vol="0" />
        </pattern>
        <pattern pos="157452" muted="0" steps="16" name="" type="1">
          <note key="61" pos="384" pan="0" len="384" vol="0" />
        </pattern>
        <pattern pos="165900" muted="0" steps="16" name="" type="1">
          <note key="88" pos="0" pan="0" len="144" vol="100" />
          <note key="88" pos="144" pan="0" len="144" vol="100" />
          <note key="86" pos="288" pan="0" len="480" vol="100" />
        </pattern>
        <pattern pos="168204" muted="0" steps="16" name="" type="1">
          <note key="81" pos="96" pan="0" len="48" vol="100" />
          <note key="78" pos="144" pan="0" len="48" vol="100" />
          <note key="74" pos="288" pan="0" len="48" vol="100" />
          <note key="78" pos="336" pan="0" len="48" vol="100" />
          <note key="81" pos="480" pan="0" len="48" vol="100" />
          <note key="78" pos="528" pan="0" len="48" vol="100" />
          <note key="72" pos="672" pan="0" len="48" vol="100" />
          <note key="69" pos="720" pan="0" len="48" vol="100" />
        </pattern>
        <pattern pos="183180" muted="0" steps="16" name="" type="1">
          <note key="76" pos="24" pan="0" len="72" vol="100" />
          <note key="78" pos="96" pan="0" len="48" vol="100" />
          <note key="76" pos="312" pan="0" len="72" vol="100" />
          <note key="79" pos="384" pan="0" len="48" vol="100" />
          <note key="77" pos="432" pan="0" len="48" vol="100" />
        </pattern>
      </track>
      <track solo="0" name="2 (Ch4)" type="0" muted="0">
        <instrumenttrack usemasterpitch="1" pitch="0.0" basenote="57" pan="0" pitchrange="12" vol="30">
          <eldata />
          <instrument name="tripleoscillator" />
        </instrumenttrack>
        <pattern pos="272844" muted="0" steps="16" name="" type="1">
          <note key="68" pos="0" pan="0" len="144" vol="100" />
        </pattern>
        <pattern pos="0" muted="0" steps="16" name="" type="1">
          <note key="75" pos="192" pan="0" len="72" vol="100" />
          <note key="84" pos="288" pan="0" len="72" vol="100" />
          <note key="87" pos="576" pan="0" len="60" vol="100" />
          <note key="89" pos="672" pan="0" len="60" vol="100" />
          <note key="87" pos="960" pan="0" len="72" vol="100" />
          <note key="86" pos="1056" pan="0" len="72" vol="100" />
          <note key="87" pos="1344" pan="0" len="72" vol="100" />
          <note key="93" pos="1440" pan="0" len="72" vol="100" />
        </pattern>
        <pattern pos="53760" muted="0" steps="16" name="" type="1">
          <note key="100" pos="0" pan="0" len="96" vol="34" />
          <note key="87" pos="96" pan="0" len="96" vol="100" />
          <note key="94" pos="192" pan="0" len="96" vol="100" />
          <note key="93" pos="288" pan="0" len="144" vol="100" />
        </pattern>
        <pattern pos="73728" muted="0" steps="16" name="" type="1">
          <note key="84" pos="0" pan="0" len="288" vol="100" />
          <note key="82" pos="576" pan="0" len="288" vol="100" />
          <note key="84" pos="1152" pan="0" len="288" vol="100" />
          <note key="82" pos="1728" pan="0" len="288" vol="100" />
          <note key="80" pos="2016" pan="0" len="192" vol="100" />
        </pattern>
        <pattern pos="76032" muted="0" steps="16" name="" type="1">
          <note key="81" pos="0" pan="0" len="288" vol="100" />
          <note key="79" pos="576" pan="0" len="288" vol="100" />
          <note key="81" pos="1152" pan="0" len="288" vol="100" />
          <note key="79" pos="1728" pan="0" len="288" vol="100" />
          <note key="77" pos="2016" pan="0" len="192" vol="100" />
        </pattern>
        <pattern pos="85248" muted="0" steps="16" name="" type="1">
          <note key="84" pos="0" pan="0" len="288" vol="100" />
          <note key="82" pos="576" pan="0" len="288" vol="100" />
          <note key="84" pos="1152" pan="0" len="288" vol="100" />
          <note key="82" pos="1728" pan="0" len="288" vol="100" />
          <note key="80" pos="2016" pan="0" len="192" vol="100" />
        </pattern>
        <pattern pos="87552" muted="0" steps="16" name="" type="1">
          <note key="81" pos="0" pan="0" len="288" vol="100" />
          <note key="79" pos="576" pan="0" len="288" vol="100" />
          <note key="81" pos="1152" pan="0" len="288" vol="100" />
          <note key="79" pos="1728" pan="0" len="288" vol="100" />
          <note key="77" pos="2016" pan="0" len="192" vol="100" />
        </pattern>
        <pattern pos="98304" muted="0" steps="16" name="" type="1">
          <note key="79" pos="192" pan="0" len="432" vol="100" />
          <note key="84" pos="624" pan="0" len="144" vol="100" />
          <note key="79" pos="960" pan="0" len="192" vol="100" />
          <note key="89" pos="1152" pan="0" len="384" vol="100" />
        </pattern>
        <pattern pos="99840" muted="0" steps="16" name="" type="1">
          <note key="79" pos="192" pan="0" len="432" vol="100" />
          <note key="84" pos="624" pan="0" len="144" vol="100" />
          <note key="79" pos="960" pan="0" len="192" vol="100" />
          <note key="89" pos="1152" pan="0" len="384" vol="100" />
        </pattern>
        <pattern pos="122892" muted="0" steps="16" name="" type="1">
          <note key="91" pos="0" pan="0" len="72" vol="100" />
          <note key="93" pos="72" pan="0" len="60" vol="100" />
          <note key="89" pos="192" pan="0" len="48" vol="100" />
          <note key="87" pos="240" pan="0" len="48" vol="100" />
          <note key="86" pos="288" pan="0" len="48" vol="100" />
          <note key="91" pos="384" pan="0" len="72" vol="100" />
          <note key="89" pos="456" pan="0" len="60" vol="100" />
          <note key="87" pos="576" pan="0" len="48" vol="100" />
          <note key="86" pos="624" pan="0" len="48" vol="100" />
          <note key="84" pos="672" pan="0" len="48" vol="100" />
          <note key="82" pos="720" pan="0" len="48" vol="100" />
        </pattern>
        <pattern pos="127500" muted="0" steps="16" name="" type="1">
          <note key="74" pos="24" pan="0" len="36" vol="50" />
          <note key="79" pos="120" pan="0" len="24" vol="69" />
          <note key="70" pos="216" pan="0" len="24" vol="86" />
          <note key="70" pos="312" pan="0" len="24" vol="69" />
          <note key="75" pos="408" pan="0" len="24" vol="50" />
          <note key="77" pos="504" pan="0" len="24" vol="69" />
          <note key="70" pos="600" pan="0" len="24" vol="69" />
          <note key="70" pos="696" pan="0" len="24" vol="69" />
          <note key="74" pos="792" pan="0" len="36" vol="50" />
          <note key="77" pos="864" pan="0" len="48" vol="69" />
          <note key="79" pos="912" pan="0" len="48" vol="94" />
          <note key="75" pos="960" pan="0" len="48" vol="69" />
          <note key="75" pos="1080" pan="0" len="24" vol="69" />
          <note key="75" pos="1176" pan="0" len="24" vol="50" />
          <note key="77" pos="1272" pan="0" len="24" vol="86" />
          <note key="70" pos="1368" pan="0" len="24" vol="69" />
          <note key="70" pos="1464" pan="0" len="24" vol="69" />
        </pattern>
        <pattern pos="132108" muted="0" steps="16" name="" type="1">
          <note key="69" pos="816" pan="0" len="48" vol="100" />
          <note key="74" pos="960" pan="0" len="12" vol="100" />
          <note key="69" pos="1200" pan="0" len="48" vol="100" />
          <note key="75" pos="1344" pan="0" len="12" vol="100" />
        </pattern>
        <pattern pos="133644" muted="0" steps="16" name="" type="1">
          <note key="70" pos="24" pan="0" len="48" vol="33" />
          <note key="72" pos="216" pan="0" len="48" vol="50" />
          <note key="77" pos="408" pan="0" len="36" vol="50" />
          <note key="72" pos="600" pan="0" len="24" vol="50" />
          <note key="70" pos="792" pan="0" len="48" vol="33" />
          <note key="72" pos="984" pan="0" len="48" vol="50" />
          <note key="77" pos="1176" pan="0" len="36" vol="50" />
          <note key="72" pos="1368" pan="0" len="24" vol="50" />
        </pattern>
        <pattern pos="135180" muted="0" steps="16" name="" type="1">
          <note key="70" pos="0" pan="0" len="96" vol="50" />
          <note key="72" pos="96" pan="0" len="96" vol="50" />
          <note key="69" pos="192" pan="0" len="144" vol="50" />
          <note key="70" pos="384" pan="0" len="144" vol="67" />
          <note key="70" pos="576" pan="0" len="144" vol="50" />
          <note key="70" pos="768" pan="0" len="96" vol="50" />
          <note key="72" pos="864" pan="0" len="96" vol="50" />
          <note key="69" pos="960" pan="0" len="144" vol="50" />
          <note key="72" pos="1152" pan="0" len="144" vol="67" />
          <note key="72" pos="1344" pan="0" len="144" vol="50" />
        </pattern>
        <pattern pos="136716" muted="0" steps="16" name="" type="1">
          <note key="70" pos="0" pan="0" len="96" vol="50" />
          <note key="72" pos="96" pan="0" len="96" vol="50" />
          <note key="69" pos="192" pan="0" len="144" vol="50" />
          <note key="70" pos="384" pan="0" len="144" vol="67" />
          <note key="70" pos="576" pan="0" len="144" vol="50" />
          <note key="70" pos="768" pan="0" len="96" vol="50" />
          <note key="72" pos="864" pan="0" len="96" vol="50" />
          <note key="69" pos="960" pan="0" len="144" vol="50" />
          <note key="70" pos="1152" pan="0" len="144" vol="67" />
          <note key="70" pos="1344" pan="0" len="72" vol="50" />
        </pattern>
        <pattern pos="138252" muted="0" steps="16" name="" type="1">
          <note key="70" pos="24" pan="0" len="48" vol="33" />
          <note key="72" pos="216" pan="0" len="48" vol="50" />
          <note key="77" pos="408" pan="0" len="36" vol="50" />
          <note key="72" pos="600" pan="0" len="24" vol="50" />
          <note key="70" pos="792" pan="0" len="48" vol="33" />
          <note key="72" pos="984" pan="0" len="48" vol="50" />
          <note key="77" pos="1176" pan="0" len="36" vol="50" />
          <note key="72" pos="1368" pan="0" len="24" vol="50" />
        </pattern>
        <pattern pos="139788" muted="0" steps="16" name="" type="1">
          <note key="70" pos="24" pan="0" len="48" vol="33" />
          <note key="72" pos="216" pan="0" len="48" vol="50" />
          <note key="77" pos="408" pan="0" len="36" vol="50" />
          <note key="72" pos="600" pan="0" len="24" vol="50" />
          <note key="70" pos="792" pan="0" len="48" vol="33" />
          <note key="72" pos="984" pan="0" len="48" vol="50" />
          <note key="77" pos="1176" pan="0" len="36" vol="50" />
          <note key="72" pos="1368" pan="0" len="24" vol="50" />
        </pattern>
        <pattern pos="141324" muted="0" steps="16" name="" type="1">
          <note key="70" pos="0" pan="0" len="96" vol="50" />
          <note key="72" pos="96" pan="0" len="96" vol="50" />
          <note key="69" pos="192" pan="0" len="144" vol="50" />
          <note key="70" pos="384" pan="0" len="144" vol="67" />
          <note key="70" pos="576" pan="0" len="144" vol="50" />
          <note key="70" pos="768" pan="0" len="96" vol="50" />
          <note key="72" pos="864" pan="0" len="96" vol="50" />
          <note key="69" pos="960" pan="0" len="144" vol="50" />
          <note key="72" pos="1152" pan="0" len="144" vol="67" />
          <note key="72" pos="1344" pan="0" len="144" vol="50" />
        </pattern>
        <pattern pos="142860" muted="0" steps="16" name="" type="1">
          <note key="70" pos="0" pan="0" len="96" vol="50" />
          <note key="72" pos="96" pan="0" len="96" vol="50" />
          <note key="69" pos="192" pan="0" len="144" vol="50" />
          <note key="70" pos="384" pan="0" len="144" vol="67" />
          <note key="70" pos="576" pan="0" len="144" vol="50" />
          <note key="70" pos="768" pan="0" len="96" vol="50" />
          <note key="72" pos="864" pan="0" len="96" vol="50" />
          <note key="69" pos="960" pan="0" len="144" vol="50" />
          <note key="70" pos="1152" pan="0" len="144" vol="67" />
          <note key="70" pos="1344" pan="0" len="72" vol="50" />
        </pattern>
        <pattern pos="145164" muted="0" steps="16" name="" type="1">
          <note key="75" pos="384" pan="0" len="384" vol="0" />
        </pattern>
        <pattern pos="147468" muted="0" steps="16" name="" type="1">
          <note key="68" pos="0" pan="0" len="144" vol="78" />
          <note key="63" pos="192" pan="0" len="144" vol="78" />
          <note key="71" pos="384" pan="0" len="144" vol="100" />
          <note key="81" pos="576" pan="0" len="192" vol="75" />
          <note key="80" pos="768" pan="0" len="384" vol="78" />
          <note key="67" pos="1152" pan="0" len="384" vol="78" />
        </pattern>
        <pattern pos="149004" muted="0" steps="16" name="" type="1">
          <note key="68" pos="0" pan="0" len="144" vol="78" />
          <note key="63" pos="192" pan="0" len="144" vol="78" />
          <note key="71" pos="384" pan="0" len="144" vol="100" />
          <note key="81" pos="576" pan="0" len="192" vol="75" />
          <note key="80" pos="768" pan="0" len="384" vol="78" />
          <note key="67" pos="1152" pan="0" len="384" vol="78" />
        </pattern>
        <pattern pos="150540" muted="0" steps="16" name="" type="1">
          <note key="64" pos="384" pan="0" len="96" vol="47" />
          <note key="68" pos="576" pan="0" len="96" vol="47" />
          <note key="65" pos="1152" pan="0" len="96" vol="47" />
          <note key="50" pos="1344" pan="0" len="192" vol="47" />
        </pattern>
        <pattern pos="152076" muted="0" steps="16" name="" type="1">
          <note key="64" pos="384" pan="0" len="96" vol="47" />
          <note key="68" pos="576" pan="0" len="96" vol="47" />
          <note key="65" pos="1152" pan="0" len="96" vol="47" />
          <note key="50" pos="1344" pan="0" len="192" vol="47" />
        </pattern>
        <pattern pos="156684" muted="0" steps="16" name="" type="1">
          <note key="75" pos="384" pan="0" len="384" vol="0" />
        </pattern>
        <pattern pos="157452" muted="0" steps="16" name="" type="1">
          <note key="65" pos="384" pan="0" len="384" vol="0" />
        </pattern>
        <pattern pos="163596" muted="0" steps="16" name="" type="1">
          <note key="72" pos="0" pan="0" len="192" vol="50" />
          <note key="67" pos="192" pan="0" len="96" vol="50" />
          <note key="72" pos="384" pan="0" len="192" vol="86" />
          <note key="67" pos="576" pan="0" len="96" vol="50" />
          <note key="81" pos="768" pan="0" len="144" vol="50" />
          <note key="79" pos="960" pan="0" len="144" vol="69" />
          <note key="77" pos="1152" pan="0" len="144" vol="100" />
          <note key="77" pos="1344" pan="0" len="144" vol="50" />
        </pattern>
        <pattern pos="165132" muted="0" steps="16" name="" type="1">
          <note key="43" pos="0" pan="0" len="96" vol="100" />
          <note key="38" pos="96" pan="0" len="96" vol="100" />
          <note key="46" pos="192" pan="0" len="96" vol="100" />
          <note key="41" pos="288" pan="0" len="96" vol="100" />
          <note key="49" pos="384" pan="0" len="96" vol="100" />
          <note key="44" pos="480" pan="0" len="96" vol="100" />
          <note key="52" pos="576" pan="0" len="96" vol="100" />
          <note key="47" pos="672" pan="0" len="96" vol="100" />
        </pattern>
        <pattern pos="165900" muted="0" steps="16" name="" type="1">
          <note key="92" pos="0" pan="0" len="144" vol="100" />
          <note key="91" pos="144" pan="0" len="144" vol="100" />
          <note key="90" pos="288" pan="0" len="144" vol="100" />
          <note key="89" pos="432" pan="0" len="336" vol="100" />
        </pattern>
        <pattern pos="168204" muted="0" steps="16" name="" type="1">
          <note key="84" pos="96" pan="0" len="48" vol="100" />
          <note key="81" pos="144" pan="0" len="48" vol="100" />
          <note key="79" pos="288" pan="0" len="48" vol="100" />
          <note key="81" pos="336" pan="0" len="48" vol="100" />
          <note key="84" pos="480" pan="0" len="48" vol="100" />
          <note key="81" pos="528" pan="0" len="48" vol="100" />
          <note key="76" pos="672" pan="0" len="48" vol="100" />
          <note key="74" pos="720" pan="0" len="48" vol="100" />
        </pattern>
        <pattern pos="183180" muted="0" steps="16" name="" type="1">
          <note key="79" pos="24" pan="0" len="72" vol="100" />
          <note key="81" pos="96" pan="0" len="48" vol="100" />
          <note key="79" pos="312" pan="0" len="72" vol="100" />
          <note key="83" pos="384" pan="0" len="48" vol="100" />
          <note key="81" pos="432" pan="0" len="48" vol="100" />
        </pattern>
      </track>
      <track solo="0" name="2 (Ch5)" type="0" muted="0">
        <instrumenttrack usemasterpitch="1" pitch="0.0" basenote="57" pan="0" pitchrange="12" vol="30">
          <eldata />
          <instrument name="tripleoscillator" />
        </instrumenttrack>
        <pattern pos="274140" muted="0" steps="16" name="" type="1">
          <note key="80" pos="1152" pan="0" len="1152" vol="0" />
        </pattern>
        <pattern pos="1536" muted="0" steps="16" name="" type="1">
          <note key="91" pos="768" pan="0" len="192" vol="34" />
          <note key="96" pos="960" pan="0" len="192" vol="50" />
          <note key="99" pos="1152" pan="0" len="192" vol="50" />
          <note key="98" pos="1344" pan="0" len="12" vol="50" />
        </pattern>
        <pattern pos="29184" muted="0" steps="16" name="" type="1">
          <note key="36" pos="48" pan="0" len="336" vol="100" />
        </pattern>
        <pattern pos="73728" muted="0" steps="16" name="" type="1">
          <note key="89" pos="0" pan="0" len="288" vol="100" />
          <note key="86" pos="576" pan="0" len="288" vol="100" />
          <note key="89" pos="1152" pan="0" len="288" vol="100" />
          <note key="86" pos="1728" pan="0" len="288" vol="100" />
          <note key="84" pos="2016" pan="0" len="192" vol="100" />
        </pattern>
        <pattern pos="76032" muted="0" steps="16" name="" type="1">
          <note key="86" pos="0" pan="0" len="288" vol="100" />
          <note key="83" pos="576" pan="0" len="288" vol="100" />
          <note key="86" pos="1152" pan="0" len="288" vol="100" />
          <note key="83" pos="1728" pan="0" len="288" vol="100" />
          <note key="81" pos="2016" pan="0" len="192" vol="100" />
        </pattern>
        <pattern pos="85248" muted="0" steps="16" name="" type="1">
          <note key="89" pos="0" pan="0" len="288" vol="100" />
          <note key="86" pos="576" pan="0" len="288" vol="100" />
          <note key="89" pos="1152" pan="0" len="288" vol="100" />
          <note key="86" pos="1728" pan="0" len="288" vol="100" />
          <note key="84" pos="2016" pan="0" len="192" vol="100" />
        </pattern>
        <pattern pos="87552" muted="0" steps="16" name="" type="1">
          <note key="86" pos="0" pan="0" len="288" vol="100" />
          <note key="83" pos="576" pan="0" len="288" vol="100" />
          <note key="86" pos="1152" pan="0" len="288" vol="100" />
          <note key="83" pos="1728" pan="0" len="288" vol="100" />
          <note key="81" pos="2016" pan="0" len="192" vol="100" />
        </pattern>
        <pattern pos="97536" muted="0" steps="16" name="" type="1">
          <note key="74" pos="0" pan="0" len="384" vol="59" />
          <note key="72" pos="384" pan="0" len="384" vol="59" />
        </pattern>
        <pattern pos="127500" muted="0" steps="16" name="" type="1">
          <note key="79" pos="24" pan="0" len="36" vol="50" />
          <note key="82" pos="120" pan="0" len="24" vol="69" />
          <note key="75" pos="216" pan="0" len="24" vol="86" />
          <note key="75" pos="312" pan="0" len="24" vol="69" />
          <note key="79" pos="408" pan="0" len="24" vol="50" />
          <note key="81" pos="504" pan="0" len="24" vol="69" />
          <note key="75" pos="600" pan="0" len="24" vol="69" />
          <note key="75" pos="696" pan="0" len="24" vol="69" />
          <note key="79" pos="792" pan="0" len="36" vol="50" />
          <note key="81" pos="864" pan="0" len="48" vol="69" />
          <note key="82" pos="912" pan="0" len="48" vol="94" />
          <note key="79" pos="960" pan="0" len="48" vol="69" />
          <note key="79" pos="1080" pan="0" len="24" vol="69" />
          <note key="79" pos="1176" pan="0" len="24" vol="50" />
          <note key="81" pos="1272" pan="0" len="24" vol="86" />
          <note key="75" pos="1368" pan="0" len="24" vol="69" />
          <note key="75" pos="1464" pan="0" len="24" vol="69" />
        </pattern>
        <pattern pos="133644" muted="0" steps="16" name="" type="1">
          <note key="74" pos="24" pan="0" len="48" vol="33" />
          <note key="77" pos="216" pan="0" len="48" vol="50" />
          <note key="81" pos="408" pan="0" len="36" vol="50" />
          <note key="75" pos="600" pan="0" len="24" vol="50" />
          <note key="74" pos="792" pan="0" len="48" vol="33" />
          <note key="77" pos="984" pan="0" len="48" vol="50" />
          <note key="81" pos="1176" pan="0" len="36" vol="50" />
          <note key="75" pos="1368" pan="0" len="24" vol="50" />
        </pattern>
        <pattern pos="135180" muted="0" steps="16" name="" type="1">
          <note key="75" pos="0" pan="0" len="144" vol="50" />
          <note key="72" pos="192" pan="0" len="144" vol="50" />
          <note key="74" pos="384" pan="0" len="144" vol="67" />
          <note key="74" pos="576" pan="0" len="144" vol="50" />
          <note key="75" pos="768" pan="0" len="144" vol="50" />
          <note key="72" pos="960" pan="0" len="144" vol="50" />
          <note key="75" pos="1152" pan="0" len="144" vol="67" />
          <note key="75" pos="1344" pan="0" len="144" vol="50" />
        </pattern>
        <pattern pos="136716" muted="0" steps="16" name="" type="1">
          <note key="75" pos="0" pan="0" len="144" vol="50" />
          <note key="72" pos="192" pan="0" len="144" vol="50" />
          <note key="74" pos="384" pan="0" len="144" vol="67" />
          <note key="74" pos="576" pan="0" len="144" vol="50" />
          <note key="75" pos="768" pan="0" len="144" vol="50" />
          <note key="72" pos="960" pan="0" len="144" vol="50" />
          <note key="74" pos="1152" pan="0" len="144" vol="67" />
          <note key="74" pos="1344" pan="0" len="72" vol="50" />
        </pattern>
        <pattern pos="138252" muted="0" steps="16" name="" type="1">
          <note key="74" pos="24" pan="0" len="48" vol="33" />
          <note key="77" pos="216" pan="0" len="48" vol="50" />
          <note key="81" pos="408" pan="0" len="36" vol="50" />
          <note key="75" pos="600" pan="0" len="24" vol="50" />
          <note key="74" pos="792" pan="0" len="48" vol="33" />
          <note key="77" pos="984" pan="0" len="48" vol="50" />
          <note key="81" pos="1176" pan="0" len="36" vol="50" />
          <note key="75" pos="1368" pan="0" len="24" vol="50" />
        </pattern>
        <pattern pos="139788" muted="0" steps="16" name="" type="1">
          <note key="74" pos="24" pan="0" len="48" vol="33" />
          <note key="77" pos="216" pan="0" len="48" vol="50" />
          <note key="81" pos="408" pan="0" len="36" vol="50" />
          <note key="75" pos="600" pan="0" len="24" vol="50" />
          <note key="74" pos="792" pan="0" len="48" vol="33" />
          <note key="77" pos="984" pan="0" len="48" vol="50" />
          <note key="81" pos="1176" pan="0" len="36" vol="50" />
          <note key="75" pos="1368" pan="0" len="24" vol="50" />
        </pattern>
        <pattern pos="141324" muted="0" steps="16" name="" type="1">
          <note key="75" pos="0" pan="0" len="144" vol="50" />
          <note key="72" pos="192" pan="0" len="144" vol="50" />
          <note key="74" pos="384" pan="0" len="144" vol="67" />
          <note key="74" pos="576" pan="0" len="144" vol="50" />
          <note key="75" pos="768" pan="0" len="144" vol="50" />
          <note key="72" pos="960" pan="0" len="144" vol="50" />
          <note key="75" pos="1152" pan="0" len="144" vol="67" />
          <note key="75" pos="1344" pan="0" len="144" vol="50" />
        </pattern>
        <pattern pos="142860" muted="0" steps="16" name="" type="1">
          <note key="75" pos="0" pan="0" len="144" vol="50" />
          <note key="72" pos="192" pan="0" len="144" vol="50" />
          <note key="74" pos="384" pan="0" len="144" vol="67" />
          <note key="74" pos="576" pan="0" len="144" vol="50" />
          <note key="75" pos="768" pan="0" len="144" vol="50" />
          <note key="72" pos="960" pan="0" len="144" vol="50" />
          <note key="74" pos="1152" pan="0" len="144" vol="67" />
          <note key="74" pos="1344" pan="0" len="72" vol="50" />
        </pattern>
        <pattern pos="145164" muted="0" steps="16" name="" type="1">
          <note key="77" pos="528" pan="0" len="240" vol="0" />
        </pattern>
        <pattern pos="147468" muted="0" steps="16" name="" type="1">
          <note key="75" pos="0" pan="0" len="144" vol="78" />
          <note key="70" pos="192" pan="0" len="144" vol="78" />
          <note key="73" pos="384" pan="0" len="144" vol="100" />
          <note key="80" pos="576" pan="0" len="192" vol="75" />
          <note key="76" pos="768" pan="0" len="384" vol="78" />
          <note key="71" pos="1152" pan="0" len="384" vol="78" />
        </pattern>
        <pattern pos="149004" muted="0" steps="16" name="" type="1">
          <note key="75" pos="0" pan="0" len="144" vol="78" />
          <note key="70" pos="192" pan="0" len="144" vol="78" />
          <note key="73" pos="384" pan="0" len="144" vol="100" />
          <note key="80" pos="576" pan="0" len="192" vol="75" />
          <note key="76" pos="768" pan="0" len="384" vol="78" />
          <note key="71" pos="1152" pan="0" len="384" vol="78" />
        </pattern>
        <pattern pos="150540" muted="0" steps="16" name="" type="1">
          <note key="66" pos="384" pan="0" len="96" vol="47" />
          <note key="73" pos="576" pan="0" len="96" vol="47" />
          <note key="67" pos="1152" pan="0" len="96" vol="47" />
          <note key="69" pos="1344" pan="0" len="192" vol="47" />
        </pattern>
        <pattern pos="152076" muted="0" steps="16" name="" type="1">
          <note key="66" pos="384" pan="0" len="96" vol="47" />
          <note key="73" pos="576" pan="0" len="96" vol="47" />
          <note key="67" pos="1152" pan="0" len="96" vol="47" />
          <note key="69" pos="1344" pan="0" len="192" vol="47" />
        </pattern>
        <pattern pos="156684" muted="0" steps="16" name="" type="1">
          <note key="77" pos="528" pan="0" len="240" vol="0" />
        </pattern>
        <pattern pos="157452" muted="0" steps="16" name="" type="1">
          <note key="68" pos="384" pan="0" len="384" vol="0" />
        </pattern>
        <pattern pos="158988" muted="0" steps="16" name="" type="1">
          <note key="55" pos="0" pan="0" len="384" vol="0" />
          <note key="56" pos="384" pan="0" len="384" vol="0" />
        </pattern>
        <pattern pos="160524" muted="0" steps="16" name="" type="1">
          <note key="63" pos="0" pan="0" len="384" vol="0" />
          <note key="64" pos="384" pan="0" len="384" vol="0" />
        </pattern>
        <pattern pos="162060" muted="0" steps="16" name="" type="1">
          <note key="55" pos="0" pan="0" len="384" vol="0" />
          <note key="56" pos="384" pan="0" len="384" vol="0" />
          <note key="55" pos="768" pan="0" len="384" vol="0" />
          <note key="56" pos="1152" pan="0" len="384" vol="0" />
        </pattern>
        <pattern pos="163596" muted="0" steps="16" name="" type="1">
          <note key="76" pos="0" pan="0" len="192" vol="50" />
          <note key="70" pos="192" pan="0" len="96" vol="50" />
          <note key="76" pos="384" pan="0" len="192" vol="86" />
          <note key="70" pos="576" pan="0" len="96" vol="50" />
          <note key="84" pos="768" pan="0" len="144" vol="50" />
          <note key="84" pos="960" pan="0" len="144" vol="69" />
          <note key="82" pos="1152" pan="0" len="144" vol="100" />
          <note key="80" pos="1344" pan="0" len="144" vol="50" />
        </pattern>
        <pattern pos="165132" muted="0" steps="16" name="" type="1">
          <note key="79" pos="0" pan="0" len="96" vol="100" />
          <note key="77" pos="96" pan="0" len="96" vol="100" />
          <note key="82" pos="192" pan="0" len="96" vol="100" />
          <note key="80" pos="288" pan="0" len="96" vol="100" />
          <note key="85" pos="384" pan="0" len="96" vol="100" />
          <note key="83" pos="480" pan="0" len="96" vol="100" />
          <note key="88" pos="576" pan="0" len="96" vol="100" />
          <note key="86" pos="672" pan="0" len="96" vol="100" />
        </pattern>
        <pattern pos="166668" muted="0" steps="16" name="" type="1">
          <note key="73" pos="0" pan="0" len="384" vol="100" />
          <note key="80" pos="384" pan="0" len="384" vol="100" />
          <note key="81" pos="768" pan="0" len="384" vol="100" />
          <note key="83" pos="1152" pan="0" len="384" vol="100" />
        </pattern>
        <pattern pos="168204" muted="0" steps="16" name="" type="1">
          <note key="88" pos="96" pan="0" len="48" vol="100" />
          <note key="86" pos="144" pan="0" len="48" vol="100" />
          <note key="83" pos="288" pan="0" len="48" vol="100" />
          <note key="84" pos="336" pan="0" len="48" vol="100" />
          <note key="88" pos="480" pan="0" len="48" vol="100" />
          <note key="86" pos="528" pan="0" len="48" vol="100" />
          <note key="79" pos="672" pan="0" len="48" vol="100" />
          <note key="78" pos="720" pan="0" len="48" vol="100" />
        </pattern>
        <pattern pos="203532" muted="0" steps="16" name="" type="1">
          <note key="60" pos="768" pan="0" len="324" vol="100" />
        </pattern>
        <pattern pos="272844" muted="0" steps="16" name="" type="1">
          <note key="73" pos="0" pan="0" len="144" vol="100" />
        </pattern>
      </track>
      <track solo="0" name="2 (Ch6)" type="0" muted="0">
        <instrumenttrack usemasterpitch="1" pitch="0.0" basenote="57" pan="0" pitchrange="12" vol="30">
          <eldata />
          <instrument name="tripleoscillator" />
        </instrumenttrack>
        <pattern pos="260364" muted="0" steps="16" name="" type="1">
          <note key="91" pos="0" pan="0" len="336" vol="17" />
          <note key="94" pos="336" pan="0" len="240" vol="17" />
          <note key="93" pos="576" pan="0" len="288" vol="17" />
          <note key="98" pos="864" pan="0" len="192" vol="17" />
          <note key="101" pos="1056" pan="0" len="96" vol="17" />
          <note key="91" pos="1152" pan="0" len="336" vol="17" />
          <note key="94" pos="1488" pan="0" len="240" vol="17" />
          <note key="93" pos="1728" pan="0" len="288" vol="17" />
          <note key="89" pos="2016" pan="0" len="288" vol="17" />
        </pattern>
        <pattern pos="1536" muted="0" steps="16" name="" type="1">
          <note key="103" pos="0" pan="0" len="288" vol="17" />
          <note key="101" pos="288" pan="0" len="192" vol="34" />
          <note key="96" pos="480" pan="0" len="180" vol="17" />
        </pattern>
        <pattern pos="7680" muted="0" steps="16" name="" type="1">
          <note key="103" pos="0" pan="0" len="480" vol="17" />
          <note key="96" pos="480" pan="0" len="180" vol="17" />
        </pattern>
        <pattern pos="97536" muted="0" steps="16" name="" type="1">
          <note key="77" pos="0" pan="0" len="384" vol="59" />
          <note key="74" pos="384" pan="0" len="384" vol="59" />
        </pattern>
        <pattern pos="98304" muted="0" steps="16" name="" type="1">
          <note key="74" pos="0" pan="0" len="768" vol="100" />
          <note key="74" pos="768" pan="0" len="768" vol="100" />
        </pattern>
        <pattern pos="99840" muted="0" steps="16" name="" type="1">
          <note key="74" pos="0" pan="0" len="768" vol="100" />
          <note key="74" pos="768" pan="0" len="768" vol="100" />
        </pattern>
        <pattern pos="115968" muted="0" steps="16" name="" type="1">
          <note key="70" pos="0" pan="0" len="144" vol="100" />
          <note key="74" pos="144" pan="0" len="72" vol="100" />
          <note key="72" pos="216" pan="0" len="72" vol="100" />
          <note key="70" pos="576" pan="0" len="144" vol="100" />
          <note key="74" pos="720" pan="0" len="72" vol="100" />
          <note key="72" pos="792" pan="0" len="72" vol="100" />
          <note key="68" pos="1728" pan="0" len="144" vol="100" />
          <note key="72" pos="1872" pan="0" len="72" vol="100" />
          <note key="70" pos="1944" pan="0" len="72" vol="100" />
        </pattern>
        <pattern pos="120576" muted="0" steps="16" name="" type="1">
          <note key="70" pos="0" pan="0" len="144" vol="100" />
          <note key="74" pos="144" pan="0" len="72" vol="100" />
          <note key="72" pos="216" pan="0" len="72" vol="100" />
          <note key="70" pos="576" pan="0" len="144" vol="100" />
          <note key="74" pos="720" pan="0" len="72" vol="100" />
          <note key="72" pos="792" pan="0" len="72" vol="100" />
          <note key="68" pos="1728" pan="0" len="144" vol="100" />
          <note key="72" pos="1872" pan="0" len="72" vol="100" />
          <note key="70" pos="1944" pan="0" len="72" vol="100" />
        </pattern>
        <pattern pos="133644" muted="0" steps="16" name="" type="1">
          <note key="79" pos="24" pan="0" len="48" vol="33" />
          <note key="81" pos="216" pan="0" len="48" vol="50" />
          <note key="84" pos="408" pan="0" len="36" vol="50" />
          <note key="79" pos="600" pan="0" len="24" vol="50" />
          <note key="79" pos="792" pan="0" len="48" vol="33" />
          <note key="81" pos="984" pan="0" len="48" vol="50" />
          <note key="84" pos="1176" pan="0" len="36" vol="50" />
          <note key="79" pos="1368" pan="0" len="24" vol="50" />
        </pattern>
        <pattern pos="135180" muted="0" steps="16" name="" type="1">
          <note key="79" pos="0" pan="0" len="144" vol="50" />
          <note key="77" pos="192" pan="0" len="144" vol="50" />
          <note key="79" pos="384" pan="0" len="144" vol="67" />
          <note key="77" pos="576" pan="0" len="96" vol="50" />
          <note key="81" pos="672" pan="0" len="48" vol="50" />
          <note key="79" pos="768" pan="0" len="144" vol="50" />
          <note key="77" pos="960" pan="0" len="144" vol="50" />
          <note key="79" pos="1152" pan="0" len="144" vol="67" />
          <note key="81" pos="1344" pan="0" len="96" vol="50" />
          <note key="81" pos="1440" pan="0" len="48" vol="50" />
        </pattern>
        <pattern pos="136716" muted="0" steps="16" name="" type="1">
          <note key="79" pos="0" pan="0" len="144" vol="50" />
          <note key="77" pos="192" pan="0" len="144" vol="50" />
          <note key="79" pos="384" pan="0" len="144" vol="67" />
          <note key="77" pos="576" pan="0" len="96" vol="50" />
          <note key="81" pos="672" pan="0" len="48" vol="50" />
          <note key="79" pos="768" pan="0" len="144" vol="50" />
          <note key="77" pos="960" pan="0" len="144" vol="50" />
          <note key="79" pos="1152" pan="0" len="144" vol="67" />
          <note key="79" pos="1344" pan="0" len="72" vol="50" />
        </pattern>
        <pattern pos="138252" muted="0" steps="16" name="" type="1">
          <note key="79" pos="24" pan="0" len="48" vol="33" />
          <note key="81" pos="216" pan="0" len="48" vol="50" />
          <note key="84" pos="408" pan="0" len="36" vol="50" />
          <note key="79" pos="600" pan="0" len="24" vol="50" />
          <note key="79" pos="792" pan="0" len="48" vol="33" />
          <note key="81" pos="984" pan="0" len="48" vol="50" />
          <note key="84" pos="1176" pan="0" len="36" vol="50" />
          <note key="79" pos="1368" pan="0" len="24" vol="50" />
        </pattern>
        <pattern pos="139788" muted="0" steps="16" name="" type="1">
          <note key="79" pos="24" pan="0" len="48" vol="33" />
          <note key="81" pos="216" pan="0" len="48" vol="50" />
          <note key="84" pos="408" pan="0" len="36" vol="50" />
          <note key="79" pos="600" pan="0" len="24" vol="50" />
          <note key="79" pos="792" pan="0" len="48" vol="33" />
          <note key="81" pos="984" pan="0" len="48" vol="50" />
          <note key="84" pos="1176" pan="0" len="36" vol="50" />
          <note key="79" pos="1368" pan="0" len="24" vol="50" />
        </pattern>
        <pattern pos="141324" muted="0" steps="16" name="" type="1">
          <note key="79" pos="0" pan="0" len="144" vol="50" />
          <note key="77" pos="192" pan="0" len="144" vol="50" />
          <note key="79" pos="384" pan="0" len="144" vol="67" />
          <note key="77" pos="576" pan="0" len="96" vol="50" />
          <note key="81" pos="672" pan="0" len="48" vol="50" />
          <note key="79" pos="768" pan="0" len="144" vol="50" />
          <note key="77" pos="960" pan="0" len="144" vol="50" />
          <note key="79" pos="1152" pan="0" len="144" vol="67" />
          <note key="81" pos="1344" pan="0" len="96" vol="50" />
          <note key="81" pos="1440" pan="0" len="48" vol="50" />
        </pattern>
        <pattern pos="142860" muted="0" steps="16" name="" type="1">
          <note key="79" pos="0" pan="0" len="144" vol="50" />
          <note key="77" pos="192" pan="0" len="144" vol="50" />
          <note key="79" pos="384" pan="0" len="144" vol="67" />
          <note key="77" pos="576" pan="0" len="96" vol="50" />
          <note key="81" pos="672" pan="0" len="48" vol="50" />
          <note key="79" pos="768" pan="0" len="144" vol="50" />
          <note key="77" pos="960" pan="0" len="144" vol="50" />
          <note key="79" pos="1152" pan="0" len="144" vol="67" />
          <note key="79" pos="1344" pan="0" len="72" vol="50" />
        </pattern>
        <pattern pos="147468" muted="0" steps="16" name="" type="1">
          <note key="78" pos="0" pan="0" len="144" vol="78" />
          <note key="75" pos="192" pan="0" len="144" vol="78" />
          <note key="78" pos="384" pan="0" len="144" vol="100" />
          <note key="74" pos="576" pan="0" len="192" vol="75" />
          <note key="74" pos="768" pan="0" len="384" vol="78" />
          <note key="78" pos="1152" pan="0" len="384" vol="78" />
        </pattern>
        <pattern pos="149004" muted="0" steps="16" name="" type="1">
          <note key="78" pos="0" pan="0" len="144" vol="78" />
          <note key="75" pos="192" pan="0" len="144" vol="78" />
          <note key="78" pos="384" pan="0" len="144" vol="100" />
          <note key="74" pos="576" pan="0" len="192" vol="75" />
          <note key="74" pos="768" pan="0" len="384" vol="78" />
          <note key="78" pos="1152" pan="0" len="384" vol="78" />
        </pattern>
        <pattern pos="150540" muted="0" steps="16" name="" type="1">
          <note key="52" pos="384" pan="0" len="96" vol="47" />
          <note key="78" pos="576" pan="0" len="96" vol="47" />
          <note key="74" pos="1152" pan="0" len="96" vol="47" />
          <note key="76" pos="1344" pan="0" len="192" vol="47" />
        </pattern>
        <pattern pos="152076" muted="0" steps="16" name="" type="1">
          <note key="52" pos="384" pan="0" len="96" vol="47" />
          <note key="78" pos="576" pan="0" len="96" vol="47" />
          <note key="74" pos="1152" pan="0" len="96" vol="47" />
          <note key="76" pos="1344" pan="0" len="192" vol="47" />
        </pattern>
        <pattern pos="157452" muted="0" steps="16" name="" type="1">
          <note key="75" pos="384" pan="0" len="384" vol="0" />
        </pattern>
        <pattern pos="158988" muted="0" steps="16" name="" type="1">
          <note key="60" pos="0" pan="0" len="384" vol="0" />
          <note key="63" pos="384" pan="0" len="384" vol="0" />
        </pattern>
        <pattern pos="160524" muted="0" steps="16" name="" type="1">
          <note key="68" pos="0" pan="0" len="384" vol="0" />
          <note key="71" pos="384" pan="0" len="384" vol="0" />
        </pattern>
        <pattern pos="162060" muted="0" steps="16" name="" type="1">
          <note key="60" pos="0" pan="0" len="384" vol="0" />
          <note key="63" pos="384" pan="0" len="384" vol="0" />
          <note key="60" pos="768" pan="0" len="384" vol="0" />
          <note key="63" pos="1152" pan="0" len="384" vol="0" />
        </pattern>
        <pattern pos="163596" muted="0" steps="16" name="" type="1">
          <note key="79" pos="0" pan="0" len="192" vol="50" />
          <note key="74" pos="192" pan="0" len="96" vol="50" />
          <note key="79" pos="384" pan="0" len="192" vol="86" />
          <note key="74" pos="576" pan="0" len="96" vol="50" />
          <note key="89" pos="768" pan="0" len="144" vol="50" />
          <note key="87" pos="960" pan="0" len="144" vol="69" />
          <note key="86" pos="1152" pan="0" len="144" vol="100" />
          <note key="84" pos="1344" pan="0" len="144" vol="50" />
        </pattern>
        <pattern pos="165132" muted="0" steps="16" name="" type="1">
          <note key="83" pos="0" pan="0" len="96" vol="100" />
          <note key="81" pos="96" pan="0" len="96" vol="100" />
          <note key="86" pos="192" pan="0" len="96" vol="100" />
          <note key="84" pos="288" pan="0" len="96" vol="100" />
          <note key="89" pos="384" pan="0" len="96" vol="100" />
          <note key="87" pos="480" pan="0" len="96" vol="100" />
          <note key="92" pos="576" pan="0" len="96" vol="100" />
          <note key="90" pos="672" pan="0" len="96" vol="100" />
        </pattern>
        <pattern pos="166668" muted="0" steps="16" name="" type="1">
          <note key="76" pos="0" pan="0" len="384" vol="100" />
          <note key="73" pos="384" pan="0" len="384" vol="100" />
          <note key="85" pos="768" pan="0" len="384" vol="100" />
          <note key="87" pos="1152" pan="0" len="384" vol="100" />
        </pattern>
        <pattern pos="221196" muted="0" steps="16" name="" type="1">
          <note key="67" pos="192" pan="0" len="24" vol="34" />
          <note key="67" pos="960" pan="0" len="24" vol="34" />
        </pattern>
        <pattern pos="248844" muted="0" steps="16" name="" type="1">
          <note key="91" pos="0" pan="0" len="336" vol="17" />
          <note key="94" pos="336" pan="0" len="240" vol="17" />
          <note key="93" pos="576" pan="0" len="288" vol="17" />
          <note key="98" pos="864" pan="0" len="192" vol="17" />
          <note key="101" pos="1056" pan="0" len="96" vol="17" />
          <note key="91" pos="1152" pan="0" len="336" vol="17" />
          <note key="94" pos="1488" pan="0" len="240" vol="17" />
          <note key="93" pos="1728" pan="0" len="288" vol="17" />
          <note key="89" pos="2016" pan="0" len="288" vol="17" />
        </pattern>
        <pattern pos="251148" muted="0" steps="16" name="" type="1">
          <note key="91" pos="0" pan="0" len="336" vol="17" />
          <note key="94" pos="336" pan="0" len="240" vol="17" />
          <note key="93" pos="576" pan="0" len="288" vol="17" />
          <note key="98" pos="864" pan="0" len="192" vol="17" />
          <note key="101" pos="1056" pan="0" len="96" vol="17" />
          <note key="91" pos="1152" pan="0" len="336" vol="17" />
          <note key="94" pos="1488" pan="0" len="240" vol="17" />
          <note key="93" pos="1728" pan="0" len="288" vol="17" />
          <note key="89" pos="2016" pan="0" len="288" vol="17" />
        </pattern>
      </track>
      <track solo="0" name="2 (Ch7)" type="0" muted="0">
        <instrumenttrack usemasterpitch="1" pitch="0.0" basenote="57" pan="0" pitchrange="12" vol="30">
          <eldata />
          <instrument name="tripleoscillator" />
        </instrumenttrack>
        <pattern pos="274140" muted="0" steps="16" name="" type="1">
          <note key="92" pos="1152" pan="0" len="1152" vol="0" />
        </pattern>
        <pattern pos="97536" muted="0" steps="16" name="" type="1">
          <note key="81" pos="0" pan="0" len="384" vol="59" />
          <note key="79" pos="384" pan="0" len="384" vol="59" />
        </pattern>
        <pattern pos="98304" muted="0" steps="16" name="" type="1">
          <note key="81" pos="96" pan="0" len="768" vol="100" />
          <note key="81" pos="864" pan="0" len="480" vol="100" />
          <note key="91" pos="1344" pan="0" len="192" vol="100" />
        </pattern>
        <pattern pos="99840" muted="0" steps="16" name="" type="1">
          <note key="81" pos="96" pan="0" len="768" vol="100" />
          <note key="81" pos="864" pan="0" len="480" vol="100" />
          <note key="91" pos="1344" pan="0" len="192" vol="100" />
        </pattern>
        <pattern pos="125196" muted="0" steps="16" name="" type="1">
          <note key="75" pos="432" pan="0" len="48" vol="50" />
          <note key="75" pos="480" pan="0" len="48" vol="34" />
          <note key="70" pos="528" pan="0" len="48" vol="69" />
          <note key="79" pos="576" pan="0" len="48" vol="100" />
          <note key="75" pos="672" pan="0" len="48" vol="50" />
        </pattern>
        <pattern pos="135180" muted="0" steps="16" name="" type="1">
          <note key="51" pos="0" pan="0" len="96" vol="33" />
          <note key="53" pos="192" pan="0" len="96" vol="33" />
          <note key="55" pos="384" pan="0" len="96" vol="33" />
          <note key="58" pos="576" pan="0" len="96" vol="33" />
          <note key="51" pos="768" pan="0" len="96" vol="33" />
          <note key="53" pos="960" pan="0" len="96" vol="33" />
          <note key="48" pos="1152" pan="0" len="96" vol="33" />
          <note key="51" pos="1344" pan="0" len="96" vol="33" />
        </pattern>
        <pattern pos="136716" muted="0" steps="16" name="" type="1">
          <note key="51" pos="0" pan="0" len="96" vol="33" />
          <note key="53" pos="192" pan="0" len="96" vol="33" />
          <note key="55" pos="384" pan="0" len="96" vol="33" />
          <note key="58" pos="576" pan="0" len="96" vol="33" />
          <note key="51" pos="768" pan="0" len="96" vol="33" />
          <note key="53" pos="960" pan="0" len="96" vol="33" />
          <note key="57" pos="1056" pan="0" len="96" vol="33" />
          <note key="55" pos="1152" pan="0" len="96" vol="33" />
          <note key="43" pos="1344" pan="0" len="96" vol="33" />
        </pattern>
        <pattern pos="141324" muted="0" steps="16" name="" type="1">
          <note key="51" pos="0" pan="0" len="96" vol="33" />
          <note key="53" pos="192" pan="0" len="96" vol="33" />
          <note key="55" pos="384" pan="0" len="96" vol="33" />
          <note key="58" pos="576" pan="0" len="96" vol="33" />
          <note key="51" pos="768" pan="0" len="96" vol="33" />
          <note key="53" pos="960" pan="0" len="96" vol="33" />
          <note key="48" pos="1152" pan="0" len="96" vol="33" />
          <note key="51" pos="1344" pan="0" len="96" vol="33" />
        </pattern>
        <pattern pos="142860" muted="0" steps="16" name="" type="1">
          <note key="51" pos="0" pan="0" len="96" vol="33" />
          <note key="53" pos="192" pan="0" len="96" vol="33" />
          <note key="55" pos="384" pan="0" len="96" vol="33" />
          <note key="58" pos="576" pan="0" len="96" vol="33" />
          <note key="51" pos="768" pan="0" len="96" vol="33" />
          <note key="53" pos="960" pan="0" len="96" vol="33" />
          <note key="57" pos="1056" pan="0" len="96" vol="33" />
          <note key="55" pos="1152" pan="0" len="96" vol="33" />
          <note key="43" pos="1344" pan="0" len="96" vol="33" />
        </pattern>
        <pattern pos="150540" muted="0" steps="16" name="" type="1">
          <note key="49" pos="480" pan="0" len="96" vol="47" />
          <note key="48" pos="1248" pan="0" len="96" vol="47" />
        </pattern>
        <pattern pos="152076" muted="0" steps="16" name="" type="1">
          <note key="49" pos="480" pan="0" len="96" vol="47" />
          <note key="48" pos="1248" pan="0" len="96" vol="47" />
        </pattern>
        <pattern pos="157452" muted="0" steps="16" name="" type="1">
          <note key="77" pos="528" pan="0" len="240" vol="0" />
        </pattern>
        <pattern pos="158988" muted="0" steps="16" name="" type="1">
          <note key="70" pos="0" pan="0" len="384" vol="0" />
          <note key="70" pos="384" pan="0" len="384" vol="0" />
        </pattern>
        <pattern pos="160524" muted="0" steps="16" name="" type="1">
          <note key="78" pos="0" pan="0" len="384" vol="0" />
          <note key="78" pos="384" pan="0" len="384" vol="0" />
        </pattern>
        <pattern pos="162060" muted="0" steps="16" name="" type="1">
          <note key="70" pos="0" pan="0" len="384" vol="0" />
          <note key="70" pos="384" pan="0" len="384" vol="0" />
          <note key="70" pos="768" pan="0" len="384" vol="0" />
          <note key="70" pos="1152" pan="0" len="384" vol="0" />
        </pattern>
        <pattern pos="165132" muted="0" steps="16" name="" type="1">
          <note key="86" pos="0" pan="0" len="96" vol="100" />
          <note key="86" pos="96" pan="0" len="96" vol="100" />
          <note key="89" pos="192" pan="0" len="96" vol="100" />
          <note key="89" pos="288" pan="0" len="96" vol="100" />
          <note key="92" pos="384" pan="0" len="96" vol="100" />
          <note key="92" pos="480" pan="0" len="96" vol="100" />
          <note key="95" pos="576" pan="0" len="96" vol="100" />
          <note key="95" pos="672" pan="0" len="96" vol="100" />
        </pattern>
        <pattern pos="166668" muted="0" steps="16" name="" type="1">
          <note key="81" pos="0" pan="0" len="384" vol="100" />
          <note key="78" pos="384" pan="0" len="192" vol="100" />
          <note key="85" pos="576" pan="0" len="192" vol="100" />
          <note key="88" pos="768" pan="0" len="384" vol="100" />
          <note key="90" pos="1152" pan="0" len="384" vol="100" />
        </pattern>
        <pattern pos="221196" muted="0" steps="16" name="" type="1">
          <note key="70" pos="192" pan="0" len="24" vol="34" />
          <note key="70" pos="960" pan="0" len="24" vol="34" />
        </pattern>
      </track>
      <track solo="0" name="2 (Ch8)" type="0" muted="0">
        <instrumenttrack usemasterpitch="1" pitch="0.0" basenote="57" pan="0" pitchrange="12" vol="30">
          <eldata />
          <instrument name="tripleoscillator" />
        </instrumenttrack>
        <pattern pos="221196" muted="0" steps="16" name="" type="1">
          <note key="75" pos="192" pan="0" len="24" vol="34" />
          <note key="75" pos="960" pan="0" len="24" vol="34" />
        </pattern>
        <pattern pos="6144" muted="0" steps="16" name="" type="1">
          <note key="101" pos="768" pan="0" len="768" vol="34" />
        </pattern>
        <pattern pos="10752" muted="0" steps="16" name="" type="1">
          <note key="101" pos="768" pan="0" len="768" vol="34" />
        </pattern>
        <pattern pos="98304" muted="0" steps="16" name="" type="1">
          <note key="79" pos="192" pan="0" len="432" vol="100" />
          <note key="84" pos="624" pan="0" len="144" vol="100" />
          <note key="79" pos="960" pan="0" len="192" vol="100" />
          <note key="89" pos="1152" pan="0" len="384" vol="100" />
        </pattern>
        <pattern pos="99840" muted="0" steps="16" name="" type="1">
          <note key="79" pos="192" pan="0" len="432" vol="100" />
          <note key="84" pos="624" pan="0" len="144" vol="100" />
          <note key="79" pos="960" pan="0" len="192" vol="100" />
          <note key="89" pos="1152" pan="0" len="384" vol="100" />
        </pattern>
        <pattern pos="115968" muted="0" steps="16" name="" type="1">
          <note key="79" pos="432" pan="0" len="72" vol="100" />
          <note key="82" pos="720" pan="0" len="72" vol="50" />
          <note key="81" pos="1008" pan="0" len="72" vol="100" />
          <note key="77" pos="1152" pan="0" len="72" vol="52" />
          <note key="79" pos="1296" pan="0" len="72" vol="100" />
          <note key="79" pos="1584" pan="0" len="72" vol="100" />
          <note key="80" pos="1872" pan="0" len="72" vol="50" />
          <note key="79" pos="2160" pan="0" len="72" vol="100" />
        </pattern>
        <pattern pos="120576" muted="0" steps="16" name="" type="1">
          <note key="79" pos="432" pan="0" len="72" vol="100" />
          <note key="82" pos="720" pan="0" len="72" vol="50" />
          <note key="81" pos="1008" pan="0" len="72" vol="100" />
          <note key="77" pos="1152" pan="0" len="72" vol="52" />
          <note key="79" pos="1296" pan="0" len="72" vol="100" />
          <note key="79" pos="1584" pan="0" len="72" vol="100" />
          <note key="80" pos="1872" pan="0" len="72" vol="50" />
          <note key="79" pos="2160" pan="0" len="72" vol="100" />
        </pattern>
        <pattern pos="125196" muted="0" steps="16" name="" type="1">
          <note key="79" pos="432" pan="0" len="48" vol="50" />
          <note key="79" pos="480" pan="0" len="48" vol="34" />
          <note key="75" pos="528" pan="0" len="48" vol="69" />
          <note key="82" pos="576" pan="0" len="48" vol="100" />
          <note key="79" pos="672" pan="0" len="48" vol="50" />
        </pattern>
        <pattern pos="125964" muted="0" steps="16" name="" type="1">
          <note key="75" pos="144" pan="0" len="48" vol="50" />
          <note key="75" pos="192" pan="0" len="48" vol="100" />
          <note key="77" pos="912" pan="0" len="48" vol="52" />
          <note key="79" pos="960" pan="0" len="48" vol="100" />
          <note key="79" pos="1056" pan="0" len="48" vol="52" />
          <note key="79" pos="1152" pan="0" len="48" vol="50" />
          <note key="82" pos="1200" pan="0" len="48" vol="100" />
          <note key="75" pos="1248" pan="0" len="48" vol="50" />
          <note key="75" pos="1344" pan="0" len="48" vol="100" />
        </pattern>
        <pattern pos="129036" muted="0" steps="16" name="" type="1">
          <note key="77" pos="144" pan="0" len="48" vol="52" />
          <note key="79" pos="192" pan="0" len="48" vol="100" />
          <note key="79" pos="288" pan="0" len="48" vol="52" />
          <note key="79" pos="384" pan="0" len="48" vol="50" />
          <note key="82" pos="432" pan="0" len="48" vol="100" />
          <note key="75" pos="480" pan="0" len="48" vol="50" />
          <note key="75" pos="576" pan="0" len="48" vol="100" />
          <note key="75" pos="672" pan="0" len="36" vol="100" />
          <note key="77" pos="912" pan="0" len="48" vol="52" />
          <note key="79" pos="960" pan="0" len="48" vol="100" />
          <note key="79" pos="1056" pan="0" len="48" vol="52" />
          <note key="79" pos="1152" pan="0" len="48" vol="50" />
          <note key="82" pos="1200" pan="0" len="48" vol="100" />
          <note key="75" pos="1248" pan="0" len="48" vol="50" />
          <note key="75" pos="1344" pan="0" len="48" vol="100" />
        </pattern>
        <pattern pos="150540" muted="0" steps="16" name="" type="1">
          <note key="68" pos="480" pan="0" len="96" vol="47" />
          <note key="55" pos="1248" pan="0" len="96" vol="47" />
        </pattern>
        <pattern pos="152076" muted="0" steps="16" name="" type="1">
          <note key="68" pos="480" pan="0" len="96" vol="47" />
          <note key="55" pos="1248" pan="0" len="96" vol="47" />
        </pattern>
        <pattern pos="158988" muted="0" steps="16" name="" type="1">
          <note key="72" pos="0" pan="0" len="384" vol="0" />
          <note key="75" pos="384" pan="0" len="384" vol="0" />
        </pattern>
        <pattern pos="160524" muted="0" steps="16" name="" type="1">
          <note key="80" pos="0" pan="0" len="384" vol="0" />
          <note key="83" pos="384" pan="0" len="384" vol="0" />
        </pattern>
        <pattern pos="162060" muted="0" steps="16" name="" type="1">
          <note key="72" pos="0" pan="0" len="384" vol="0" />
          <note key="75" pos="384" pan="0" len="384" vol="0" />
          <note key="72" pos="768" pan="0" len="384" vol="0" />
          <note key="75" pos="1152" pan="0" len="384" vol="0" />
        </pattern>
      </track>
      <track solo="0" name="2 (Ch9)" type="0" muted="0">
        <instrumenttrack usemasterpitch="1" pitch="0.0" basenote="57" pan="0" pitchrange="12" vol="30">
          <eldata />
          <instrument name="tripleoscillator" />
        </instrumenttrack>
        <pattern pos="152076" muted="0" steps="16" name="" type="1">
          <note key="64" pos="480" pan="0" len="96" vol="47" />
          <note key="62" pos="1248" pan="0" len="96" vol="47" />
        </pattern>
        <pattern pos="15360" muted="0" steps="16" name="" type="1">
          <note key="96" pos="0" pan="0" len="192" vol="17" />
          <note key="91" pos="192" pan="0" len="192" vol="23" />
          <note key="94" pos="384" pan="0" len="192" vol="23" />
          <note key="98" pos="576" pan="0" len="96" vol="23" />
          <note key="99" pos="672" pan="0" len="96" vol="23" />
          <note key="96" pos="768" pan="0" len="192" vol="17" />
          <note key="91" pos="960" pan="0" len="192" vol="23" />
          <note key="94" pos="1152" pan="0" len="192" vol="23" />
          <note key="98" pos="1344" pan="0" len="192" vol="23" />
        </pattern>
        <pattern pos="24576" muted="0" steps="16" name="" type="1">
          <note key="96" pos="0" pan="0" len="192" vol="50" />
          <note key="92" pos="192" pan="0" len="192" vol="50" />
          <note key="99" pos="384" pan="0" len="192" vol="50" />
          <note key="94" pos="576" pan="0" len="192" vol="50" />
          <note key="96" pos="768" pan="0" len="192" vol="50" />
          <note key="92" pos="960" pan="0" len="192" vol="50" />
          <note key="94" pos="1152" pan="0" len="192" vol="50" />
          <note key="89" pos="1344" pan="0" len="192" vol="50" />
        </pattern>
        <pattern pos="29184" muted="0" steps="16" name="" type="1">
          <note key="96" pos="48" pan="0" len="336" vol="17" />
        </pattern>
        <pattern pos="30720" muted="0" steps="16" name="" type="1">
          <note key="96" pos="768" pan="0" len="192" vol="16" />
          <note key="94" pos="960" pan="0" len="96" vol="23" />
          <note key="98" pos="1056" pan="0" len="48" vol="23" />
          <note key="99" pos="1104" pan="0" len="48" vol="23" />
          <note key="96" pos="1152" pan="0" len="96" vol="17" />
          <note key="91" pos="1248" pan="0" len="96" vol="23" />
          <note key="94" pos="1344" pan="0" len="96" vol="23" />
          <note key="98" pos="1440" pan="0" len="96" vol="23" />
        </pattern>
        <pattern pos="32256" muted="0" steps="16" name="" type="1">
          <note key="96" pos="0" pan="0" len="96" vol="17" />
          <note key="91" pos="96" pan="0" len="96" vol="23" />
          <note key="94" pos="192" pan="0" len="96" vol="23" />
          <note key="98" pos="288" pan="0" len="48" vol="23" />
          <note key="99" pos="336" pan="0" len="48" vol="23" />
          <note key="96" pos="384" pan="0" len="96" vol="17" />
          <note key="91" pos="480" pan="0" len="96" vol="23" />
          <note key="94" pos="576" pan="0" len="96" vol="23" />
          <note key="98" pos="672" pan="0" len="96" vol="23" />
          <note key="96" pos="768" pan="0" len="96" vol="17" />
          <note key="91" pos="864" pan="0" len="96" vol="23" />
          <note key="94" pos="960" pan="0" len="96" vol="23" />
          <note key="98" pos="1056" pan="0" len="48" vol="23" />
          <note key="99" pos="1104" pan="0" len="48" vol="23" />
          <note key="96" pos="1152" pan="0" len="96" vol="17" />
          <note key="91" pos="1248" pan="0" len="96" vol="23" />
          <note key="94" pos="1344" pan="0" len="96" vol="23" />
          <note key="98" pos="1440" pan="0" len="96" vol="23" />
        </pattern>
        <pattern pos="115968" muted="0" steps="16" name="" type="1">
          <note key="86" pos="432" pan="0" len="72" vol="100" />
          <note key="86" pos="720" pan="0" len="72" vol="50" />
          <note key="86" pos="1008" pan="0" len="72" vol="100" />
          <note key="80" pos="1152" pan="0" len="72" vol="52" />
          <note key="84" pos="1296" pan="0" len="72" vol="100" />
          <note key="84" pos="1584" pan="0" len="72" vol="100" />
          <note key="84" pos="1872" pan="0" len="72" vol="50" />
          <note key="84" pos="2160" pan="0" len="72" vol="100" />
        </pattern>
        <pattern pos="120576" muted="0" steps="16" name="" type="1">
          <note key="86" pos="432" pan="0" len="72" vol="100" />
          <note key="86" pos="720" pan="0" len="72" vol="50" />
          <note key="86" pos="1008" pan="0" len="72" vol="100" />
          <note key="80" pos="1152" pan="0" len="72" vol="52" />
          <note key="84" pos="1296" pan="0" len="72" vol="100" />
          <note key="84" pos="1584" pan="0" len="72" vol="100" />
          <note key="84" pos="1872" pan="0" len="72" vol="50" />
          <note key="84" pos="2160" pan="0" len="72" vol="100" />
        </pattern>
        <pattern pos="125196" muted="0" steps="16" name="" type="1">
          <note key="82" pos="432" pan="0" len="48" vol="50" />
          <note key="84" pos="480" pan="0" len="48" vol="34" />
          <note key="79" pos="528" pan="0" len="48" vol="69" />
          <note key="86" pos="576" pan="0" len="48" vol="100" />
          <note key="82" pos="672" pan="0" len="48" vol="50" />
        </pattern>
        <pattern pos="125964" muted="0" steps="16" name="" type="1">
          <note key="79" pos="144" pan="0" len="48" vol="50" />
          <note key="79" pos="192" pan="0" len="48" vol="100" />
          <note key="82" pos="912" pan="0" len="48" vol="52" />
          <note key="84" pos="960" pan="0" len="48" vol="100" />
          <note key="82" pos="1056" pan="0" len="48" vol="52" />
          <note key="84" pos="1152" pan="0" len="48" vol="50" />
          <note key="86" pos="1200" pan="0" len="48" vol="100" />
          <note key="79" pos="1248" pan="0" len="48" vol="50" />
          <note key="79" pos="1344" pan="0" len="48" vol="100" />
        </pattern>
        <pattern pos="129036" muted="0" steps="16" name="" type="1">
          <note key="82" pos="144" pan="0" len="48" vol="52" />
          <note key="84" pos="192" pan="0" len="48" vol="100" />
          <note key="82" pos="288" pan="0" len="48" vol="52" />
          <note key="84" pos="384" pan="0" len="48" vol="50" />
          <note key="86" pos="432" pan="0" len="48" vol="100" />
          <note key="79" pos="480" pan="0" len="48" vol="50" />
          <note key="79" pos="576" pan="0" len="48" vol="100" />
          <note key="79" pos="672" pan="0" len="36" vol="100" />
          <note key="82" pos="912" pan="0" len="48" vol="52" />
          <note key="84" pos="960" pan="0" len="48" vol="100" />
          <note key="82" pos="1056" pan="0" len="48" vol="52" />
          <note key="84" pos="1152" pan="0" len="48" vol="50" />
          <note key="86" pos="1200" pan="0" len="48" vol="100" />
          <note key="79" pos="1248" pan="0" len="48" vol="50" />
          <note key="79" pos="1344" pan="0" len="48" vol="100" />
        </pattern>
        <pattern pos="150540" muted="0" steps="16" name="" type="1">
          <note key="64" pos="480" pan="0" len="96" vol="47" />
          <note key="62" pos="1248" pan="0" len="96" vol="47" />
        </pattern>
      </track>
      <track solo="0" name="2 (Ch10)" type="0" muted="0">
        <instrumenttrack usemasterpitch="1" pitch="0.0" basenote="57" pan="0" pitchrange="12" vol="30">
          <eldata />
          <instrument name="tripleoscillator" />
        </instrumenttrack>
        <pattern pos="240396" muted="0" steps="16" name="" type="1">
          <note key="77" pos="768" pan="0" len="96" vol="47" />
          <note key="75" pos="960" pan="0" len="96" vol="100" />
          <note key="65" pos="1152" pan="0" len="192" vol="70" />
        </pattern>
        <pattern pos="115968" muted="0" steps="16" name="" type="1">
          <note key="89" pos="432" pan="0" len="72" vol="100" />
          <note key="89" pos="720" pan="0" len="72" vol="50" />
          <note key="89" pos="1008" pan="0" len="72" vol="100" />
          <note key="84" pos="1152" pan="0" len="72" vol="52" />
          <note key="87" pos="1296" pan="0" len="72" vol="100" />
          <note key="87" pos="1584" pan="0" len="72" vol="100" />
          <note key="87" pos="1872" pan="0" len="72" vol="50" />
          <note key="87" pos="2160" pan="0" len="72" vol="100" />
        </pattern>
        <pattern pos="120576" muted="0" steps="16" name="" type="1">
          <note key="89" pos="432" pan="0" len="72" vol="100" />
          <note key="89" pos="720" pan="0" len="72" vol="50" />
          <note key="89" pos="1008" pan="0" len="72" vol="100" />
          <note key="84" pos="1152" pan="0" len="72" vol="52" />
          <note key="87" pos="1296" pan="0" len="72" vol="100" />
          <note key="87" pos="1584" pan="0" len="72" vol="100" />
          <note key="87" pos="1872" pan="0" len="72" vol="50" />
          <note key="87" pos="2160" pan="0" len="72" vol="100" />
        </pattern>
        <pattern pos="125964" muted="0" steps="16" name="" type="1">
          <note key="82" pos="144" pan="0" len="48" vol="50" />
          <note key="84" pos="192" pan="0" len="48" vol="100" />
          <note key="86" pos="912" pan="0" len="48" vol="52" />
          <note key="87" pos="960" pan="0" len="48" vol="100" />
          <note key="84" pos="1056" pan="0" len="48" vol="52" />
          <note key="87" pos="1152" pan="0" len="48" vol="50" />
          <note key="89" pos="1200" pan="0" len="48" vol="100" />
          <note key="84" pos="1248" pan="0" len="48" vol="50" />
          <note key="84" pos="1344" pan="0" len="48" vol="100" />
        </pattern>
        <pattern pos="129036" muted="0" steps="16" name="" type="1">
          <note key="86" pos="144" pan="0" len="48" vol="52" />
          <note key="87" pos="192" pan="0" len="48" vol="100" />
          <note key="84" pos="288" pan="0" len="48" vol="52" />
          <note key="87" pos="384" pan="0" len="48" vol="50" />
          <note key="89" pos="432" pan="0" len="48" vol="100" />
          <note key="84" pos="480" pan="0" len="48" vol="50" />
          <note key="84" pos="576" pan="0" len="48" vol="100" />
          <note key="82" pos="672" pan="0" len="36" vol="100" />
          <note key="86" pos="912" pan="0" len="48" vol="52" />
          <note key="87" pos="960" pan="0" len="48" vol="100" />
          <note key="84" pos="1056" pan="0" len="48" vol="52" />
          <note key="87" pos="1152" pan="0" len="48" vol="50" />
          <note key="89" pos="1200" pan="0" len="48" vol="100" />
          <note key="84" pos="1248" pan="0" len="48" vol="50" />
          <note key="84" pos="1344" pan="0" len="48" vol="100" />
        </pattern>
        <pattern pos="147468" muted="0" steps="16" name="" type="1">
          <note key="64" pos="960" pan="0" len="384" vol="78" />
          <note key="69" pos="1344" pan="0" len="192" vol="78" />
        </pattern>
        <pattern pos="149004" muted="0" steps="16" name="" type="1">
          <note key="64" pos="960" pan="0" len="384" vol="78" />
          <note key="69" pos="1344" pan="0" len="192" vol="78" />
        </pattern>
      </track>
      <track solo="0" name="2 (Ch11)" type="0" muted="0">
        <instrumenttrack usemasterpitch="1" pitch="0.0" basenote="57" pan="0" pitchrange="12" vol="30">
          <eldata />
          <instrument name="tripleoscillator" />
        </instrumenttrack>
        <pattern pos="272988" muted="0" steps="16" name="" type="1">
          <note key="80" pos="576" pan="0" len="144" vol="100" />
          <note key="78" pos="720" pan="0" len="144" vol="100" />
          <note key="75" pos="864" pan="0" len="144" vol="100" />
          <note key="66" pos="1008" pan="0" len="144" vol="100" />
        </pattern>
        <pattern pos="41472" muted="0" steps="16" name="" type="1">
          <note key="71" pos="480" pan="0" len="72" vol="100" />
          <note key="70" pos="552" pan="0" len="24" vol="100" />
          <note key="69" pos="576" pan="0" len="48" vol="100" />
          <note key="59" pos="864" pan="0" len="72" vol="100" />
          <note key="61" pos="936" pan="0" len="24" vol="100" />
          <note key="62" pos="960" pan="0" len="48" vol="100" />
        </pattern>
        <pattern pos="53760" muted="0" steps="16" name="" type="1">
          <note key="74" pos="288" pan="0" len="144" vol="34" />
          <note key="76" pos="432" pan="0" len="96" vol="100" />
        </pattern>
        <pattern pos="107520" muted="0" steps="16" name="" type="1">
          <note key="78" pos="0" pan="0" len="96" vol="100" />
          <note key="82" pos="384" pan="0" len="96" vol="100" />
          <note key="75" pos="576" pan="0" len="84" vol="100" />
          <note key="73" pos="768" pan="0" len="96" vol="100" />
          <note key="77" pos="1152" pan="0" len="96" vol="100" />
          <note key="70" pos="1344" pan="0" len="84" vol="100" />
        </pattern>
        <pattern pos="109056" muted="0" steps="16" name="" type="1">
          <note key="78" pos="0" pan="0" len="96" vol="100" />
          <note key="82" pos="384" pan="0" len="96" vol="100" />
          <note key="75" pos="576" pan="0" len="84" vol="100" />
          <note key="73" pos="768" pan="0" len="96" vol="100" />
          <note key="77" pos="1152" pan="0" len="96" vol="100" />
          <note key="70" pos="1344" pan="0" len="84" vol="100" />
        </pattern>
        <pattern pos="147468" muted="0" steps="16" name="" type="1">
          <note key="81" pos="576" pan="0" len="384" vol="75" />
          <note key="71" pos="960" pan="0" len="384" vol="78" />
          <note key="71" pos="1344" pan="0" len="192" vol="78" />
        </pattern>
        <pattern pos="149004" muted="0" steps="16" name="" type="1">
          <note key="81" pos="576" pan="0" len="384" vol="75" />
          <note key="71" pos="960" pan="0" len="384" vol="78" />
          <note key="71" pos="1344" pan="0" len="192" vol="78" />
        </pattern>
        <pattern pos="240396" muted="0" steps="16" name="" type="1">
          <note key="82" pos="864" pan="0" len="96" vol="47" />
          <note key="72" pos="1056" pan="0" len="96" vol="100" />
        </pattern>
      </track>
      <track solo="0" name="2 (Ch12)" type="0" muted="0">
        <instrumenttrack usemasterpitch="1" pitch="0.0" basenote="57" pan="0" pitchrange="12" vol="30">
          <eldata />
          <instrument name="tripleoscillator" />
        </instrumenttrack>
        <pattern pos="272988" muted="0" steps="16" name="" type="1">
          <note key="75" pos="576" pan="0" len="144" vol="100" />
          <note key="73" pos="720" pan="0" len="144" vol="100" />
          <note key="71" pos="864" pan="0" len="144" vol="100" />
          <note key="68" pos="1008" pan="0" len="144" vol="100" />
        </pattern>
        <pattern pos="41472" muted="0" steps="16" name="" type="1">
          <note key="83" pos="480" pan="0" len="72" vol="100" />
          <note key="82" pos="552" pan="0" len="24" vol="100" />
          <note key="81" pos="576" pan="0" len="48" vol="100" />
          <note key="71" pos="864" pan="0" len="72" vol="100" />
          <note key="73" pos="936" pan="0" len="24" vol="100" />
          <note key="74" pos="960" pan="0" len="48" vol="100" />
        </pattern>
        <pattern pos="53760" muted="0" steps="16" name="" type="1">
          <note key="78" pos="288" pan="0" len="144" vol="34" />
          <note key="81" pos="432" pan="0" len="96" vol="100" />
        </pattern>
        <pattern pos="107520" muted="0" steps="16" name="" type="1">
          <note key="85" pos="0" pan="0" len="96" vol="100" />
          <note key="75" pos="384" pan="0" len="96" vol="100" />
          <note key="77" pos="576" pan="0" len="84" vol="100" />
          <note key="80" pos="768" pan="0" len="96" vol="100" />
          <note key="70" pos="1152" pan="0" len="96" vol="100" />
          <note key="72" pos="1344" pan="0" len="84" vol="100" />
        </pattern>
        <pattern pos="109056" muted="0" steps="16" name="" type="1">
          <note key="85" pos="0" pan="0" len="96" vol="100" />
          <note key="75" pos="384" pan="0" len="96" vol="100" />
          <note key="77" pos="576" pan="0" len="84" vol="100" />
          <note key="80" pos="768" pan="0" len="96" vol="100" />
          <note key="70" pos="1152" pan="0" len="96" vol="100" />
          <note key="72" pos="1344" pan="0" len="84" vol="100" />
        </pattern>
        <pattern pos="147468" muted="0" steps="16" name="" type="1">
          <note key="80" pos="576" pan="0" len="384" vol="75" />
          <note key="74" pos="960" pan="0" len="384" vol="78" />
          <note key="76" pos="1344" pan="0" len="192" vol="78" />
        </pattern>
        <pattern pos="149004" muted="0" steps="16" name="" type="1">
          <note key="80" pos="576" pan="0" len="384" vol="75" />
          <note key="74" pos="960" pan="0" len="384" vol="78" />
          <note key="76" pos="1344" pan="0" len="192" vol="78" />
        </pattern>
        <pattern pos="240396" muted="0" steps="16" name="" type="1">
          <note key="89" pos="768" pan="0" len="96" vol="47" />
          <note key="87" pos="960" pan="0" len="96" vol="100" />
          <note key="77" pos="1152" pan="0" len="192" vol="70" />
        </pattern>
      </track>
      <track solo="0" name="2 (Ch13)" type="0" muted="0">
        <instrumenttrack usemasterpitch="1" pitch="0.0" basenote="57" pan="0" pitchrange="12" vol="30">
          <eldata />
          <instrument name="tripleoscillator" />
        </instrumenttrack>
        <pattern pos="272988" muted="0" steps="16" name="" type="1">
          <note key="68" pos="576" pan="0" len="144" vol="100" />
          <note key="70" pos="720" pan="0" len="144" vol="100" />
          <note key="68" pos="864" pan="0" len="144" vol="100" />
          <note key="70" pos="1008" pan="0" len="144" vol="100" />
        </pattern>
        <pattern pos="21504" muted="0" steps="16" name="" type="1">
          <note key="83" pos="480" pan="0" len="96" vol="33" />
        </pattern>
        <pattern pos="23040" muted="0" steps="16" name="" type="1">
          <note key="89" pos="672" pan="0" len="96" vol="100" />
        </pattern>
        <pattern pos="29184" muted="0" steps="16" name="" type="1">
          <note key="79" pos="48" pan="0" len="96" vol="100" />
          <note key="78" pos="144" pan="0" len="96" vol="100" />
          <note key="76" pos="240" pan="0" len="120" vol="100" />
        </pattern>
        <pattern pos="53760" muted="0" steps="16" name="" type="1">
          <note key="81" pos="288" pan="0" len="144" vol="34" />
          <note key="85" pos="432" pan="0" len="96" vol="100" />
        </pattern>
        <pattern pos="107520" muted="0" steps="16" name="" type="1">
          <note key="78" pos="0" pan="0" len="96" vol="100" />
          <note key="84" pos="192" pan="0" len="96" vol="100" />
          <note key="77" pos="384" pan="0" len="96" vol="100" />
          <note key="80" pos="576" pan="0" len="84" vol="100" />
          <note key="73" pos="768" pan="0" len="96" vol="100" />
          <note key="79" pos="960" pan="0" len="96" vol="100" />
          <note key="72" pos="1152" pan="0" len="96" vol="100" />
          <note key="75" pos="1344" pan="0" len="84" vol="100" />
        </pattern>
        <pattern pos="109056" muted="0" steps="16" name="" type="1">
          <note key="78" pos="0" pan="0" len="96" vol="100" />
          <note key="84" pos="192" pan="0" len="96" vol="100" />
          <note key="77" pos="384" pan="0" len="96" vol="100" />
          <note key="80" pos="576" pan="0" len="84" vol="100" />
          <note key="73" pos="768" pan="0" len="96" vol="100" />
          <note key="79" pos="960" pan="0" len="96" vol="100" />
          <note key="72" pos="1152" pan="0" len="96" vol="100" />
          <note key="75" pos="1344" pan="0" len="84" vol="100" />
        </pattern>
        <pattern pos="147468" muted="0" steps="16" name="" type="1">
          <note key="74" pos="576" pan="0" len="960" vol="75" />
        </pattern>
        <pattern pos="149004" muted="0" steps="16" name="" type="1">
          <note key="74" pos="576" pan="0" len="960" vol="75" />
        </pattern>
        <pattern pos="240396" muted="0" steps="16" name="" type="1">
          <note key="94" pos="864" pan="0" len="96" vol="47" />
          <note key="84" pos="1056" pan="0" len="96" vol="100" />
        </pattern>
      </track>
      <track solo="0" name="2 (Ch14)" type="0" muted="0">
        <instrumenttrack usemasterpitch="1" pitch="0.0" basenote="57" pan="0" pitchrange="12" vol="30">
          <eldata />
          <instrument name="tripleoscillator" />
        </instrumenttrack>
        <pattern pos="276444" muted="0" steps="16" name="" type="1">
          <note key="82" pos="504" pan="0" len="72" vol="16" />
        </pattern>
        <pattern pos="21504" muted="0" steps="16" name="" type="1">
          <note key="87" pos="480" pan="0" len="96" vol="33" />
        </pattern>
        <pattern pos="23040" muted="0" steps="16" name="" type="1">
          <note key="80" pos="672" pan="0" len="96" vol="100" />
        </pattern>
        <pattern pos="271692" muted="0" steps="16" name="" type="1">
          <note key="82" pos="504" pan="0" len="72" vol="16" />
        </pattern>
        <pattern pos="272988" muted="0" steps="16" name="" type="1">
          <note key="66" pos="720" pan="0" len="144" vol="100" />
          <note key="63" pos="864" pan="0" len="144" vol="100" />
          <note key="73" pos="1008" pan="0" len="144" vol="100" />
        </pattern>
      </track>
      <track solo="0" name="2 (Ch15)" type="0" muted="0">
        <instrumenttrack usemasterpitch="1" pitch="0.0" basenote="57" pan="0" pitchrange="12" vol="30">
          <eldata />
          <instrument name="tripleoscillator" />
        </instrumenttrack>
        <pattern pos="23040" muted="0" steps="16" name="" type="1">
          <note key="85" pos="672" pan="0" len="96" vol="100" />
        </pattern>
        <pattern pos="21504" muted="0" steps="16" name="" type="1">
          <note key="90" pos="480" pan="0" len="96" vol="33" />
        </pattern>
      </track>
      <track solo="0" name="3 (Ch1)" type="0" muted="0">
        <instrumenttrack usemasterpitch="1" pitch="0.0" basenote="57" pan="0" pitchrange="12" vol="30">
          <eldata />
          <instrument name="tripleoscillator" />
        </instrumenttrack>
        <pattern pos="274140" muted="0" steps="16" name="" type="1">
          <note key="75" pos="0" pan="0" len="36" vol="100" />
        </pattern>
      </track>
      <track solo="0" name="3 (Ch2)" type="0" muted="0">
        <instrumenttrack usemasterpitch="1" pitch="0.0" basenote="57" pan="0" pitchrange="12" vol="30">
          <eldata />
          <instrument name="tripleoscillator" />
        </instrumenttrack>
        <pattern pos="274140" muted="0" steps="16" name="" type="1">
          <note key="70" pos="0" pan="0" len="36" vol="100" />
        </pattern>
        <pattern pos="35328" muted="0" steps="16" name="" type="1">
          <note key="67" pos="0" pan="0" len="24" vol="0" />
          <note key="67" pos="48" pan="0" len="24" vol="5" />
          <note key="67" pos="96" pan="0" len="24" vol="9" />
          <note key="67" pos="144" pan="0" len="24" vol="17" />
          <note key="67" pos="192" pan="0" len="24" vol="27" />
          <note key="67" pos="240" pan="0" len="24" vol="22" />
          <note key="67" pos="288" pan="0" len="24" vol="20" />
          <note key="67" pos="336" pan="0" len="24" vol="16" />
          <note key="67" pos="384" pan="0" len="24" vol="17" />
          <note key="67" pos="432" pan="0" len="24" vol="30" />
          <note key="67" pos="480" pan="0" len="24" vol="44" />
          <note key="67" pos="528" pan="0" len="24" vol="61" />
          <note key="67" pos="576" pan="0" len="24" vol="77" />
          <note key="67" pos="624" pan="0" len="24" vol="56" />
          <note key="67" pos="672" pan="0" len="24" vol="45" />
          <note key="67" pos="720" pan="0" len="24" vol="33" />
          <note key="67" pos="768" pan="0" len="24" vol="34" />
          <note key="67" pos="816" pan="0" len="24" vol="52" />
          <note key="67" pos="864" pan="0" len="24" vol="69" />
          <note key="67" pos="912" pan="0" len="24" vol="86" />
          <note key="67" pos="960" pan="0" len="24" vol="100" />
          <note key="67" pos="1008" pan="0" len="24" vol="69" />
          <note key="67" pos="1056" pan="0" len="24" vol="52" />
          <note key="67" pos="1104" pan="0" len="24" vol="34" />
          <note key="67" pos="1152" pan="0" len="24" vol="34" />
          <note key="67" pos="1200" pan="0" len="24" vol="52" />
          <note key="67" pos="1248" pan="0" len="24" vol="69" />
          <note key="67" pos="1296" pan="0" len="24" vol="86" />
          <note key="67" pos="1344" pan="0" len="24" vol="100" />
          <note key="67" pos="1392" pan="0" len="24" vol="69" />
          <note key="67" pos="1440" pan="0" len="24" vol="52" />
          <note key="67" pos="1488" pan="0" len="24" vol="34" />
        </pattern>
        <pattern pos="36864" muted="0" steps="16" name="" type="1">
          <note key="67" pos="0" pan="0" len="24" vol="34" />
          <note key="67" pos="48" pan="0" len="24" vol="52" />
          <note key="67" pos="96" pan="0" len="24" vol="69" />
          <note key="67" pos="144" pan="0" len="24" vol="86" />
          <note key="67" pos="192" pan="0" len="24" vol="100" />
          <note key="67" pos="240" pan="0" len="24" vol="69" />
          <note key="67" pos="288" pan="0" len="24" vol="52" />
          <note key="67" pos="336" pan="0" len="24" vol="34" />
          <note key="67" pos="384" pan="0" len="24" vol="34" />
          <note key="67" pos="432" pan="0" len="24" vol="52" />
          <note key="67" pos="480" pan="0" len="24" vol="69" />
          <note key="67" pos="528" pan="0" len="24" vol="86" />
          <note key="67" pos="576" pan="0" len="24" vol="100" />
          <note key="67" pos="624" pan="0" len="24" vol="69" />
          <note key="67" pos="672" pan="0" len="24" vol="52" />
          <note key="67" pos="720" pan="0" len="24" vol="34" />
          <note key="67" pos="768" pan="0" len="24" vol="34" />
          <note key="67" pos="816" pan="0" len="24" vol="52" />
          <note key="67" pos="864" pan="0" len="24" vol="69" />
          <note key="67" pos="912" pan="0" len="24" vol="86" />
          <note key="67" pos="960" pan="0" len="24" vol="100" />
          <note key="67" pos="1008" pan="0" len="24" vol="69" />
          <note key="67" pos="1056" pan="0" len="24" vol="52" />
          <note key="67" pos="1104" pan="0" len="24" vol="34" />
          <note key="67" pos="1152" pan="0" len="24" vol="34" />
          <note key="67" pos="1200" pan="0" len="24" vol="52" />
          <note key="67" pos="1248" pan="0" len="24" vol="69" />
          <note key="67" pos="1296" pan="0" len="24" vol="86" />
          <note key="67" pos="1344" pan="0" len="24" vol="100" />
          <note key="67" pos="1392" pan="0" len="24" vol="69" />
          <note key="67" pos="1440" pan="0" len="24" vol="52" />
          <note key="67" pos="1488" pan="0" len="24" vol="34" />
        </pattern>
        <pattern pos="38400" muted="0" steps="16" name="" type="1">
          <note key="67" pos="0" pan="0" len="24" vol="34" />
          <note key="67" pos="48" pan="0" len="24" vol="52" />
          <note key="67" pos="96" pan="0" len="24" vol="69" />
          <note key="67" pos="144" pan="0" len="24" vol="86" />
          <note key="69" pos="192" pan="0" len="24" vol="100" />
          <note key="69" pos="240" pan="0" len="24" vol="69" />
          <note key="69" pos="288" pan="0" len="24" vol="52" />
          <note key="69" pos="336" pan="0" len="24" vol="34" />
          <note key="67" pos="384" pan="0" len="24" vol="34" />
          <note key="67" pos="432" pan="0" len="24" vol="52" />
          <note key="67" pos="480" pan="0" len="24" vol="69" />
          <note key="67" pos="528" pan="0" len="24" vol="86" />
          <note key="69" pos="576" pan="0" len="24" vol="100" />
          <note key="69" pos="624" pan="0" len="24" vol="69" />
          <note key="69" pos="672" pan="0" len="24" vol="52" />
          <note key="69" pos="720" pan="0" len="24" vol="34" />
          <note key="67" pos="768" pan="0" len="24" vol="34" />
          <note key="67" pos="816" pan="0" len="24" vol="52" />
          <note key="67" pos="864" pan="0" len="24" vol="69" />
          <note key="67" pos="912" pan="0" len="24" vol="86" />
          <note key="69" pos="960" pan="0" len="24" vol="100" />
          <note key="69" pos="1008" pan="0" len="24" vol="69" />
          <note key="69" pos="1056" pan="0" len="24" vol="52" />
          <note key="69" pos="1104" pan="0" len="24" vol="34" />
          <note key="70" pos="1152" pan="0" len="24" vol="34" />
          <note key="70" pos="1200" pan="0" len="24" vol="52" />
          <note key="70" pos="1248" pan="0" len="24" vol="69" />
          <note key="70" pos="1296" pan="0" len="24" vol="86" />
          <note key="72" pos="1344" pan="0" len="24" vol="100" />
          <note key="72" pos="1392" pan="0" len="24" vol="69" />
          <note key="72" pos="1440" pan="0" len="24" vol="52" />
          <note key="72" pos="1488" pan="0" len="24" vol="34" />
        </pattern>
        <pattern pos="39936" muted="0" steps="16" name="" type="1">
          <note key="72" pos="0" pan="0" len="24" vol="34" />
          <note key="72" pos="48" pan="0" len="24" vol="52" />
          <note key="72" pos="96" pan="0" len="24" vol="69" />
          <note key="72" pos="144" pan="0" len="24" vol="86" />
          <note key="73" pos="192" pan="0" len="24" vol="100" />
          <note key="73" pos="240" pan="0" len="24" vol="69" />
          <note key="73" pos="288" pan="0" len="24" vol="52" />
          <note key="73" pos="336" pan="0" len="24" vol="34" />
          <note key="72" pos="384" pan="0" len="24" vol="34" />
          <note key="72" pos="432" pan="0" len="24" vol="52" />
          <note key="72" pos="480" pan="0" len="24" vol="69" />
          <note key="72" pos="528" pan="0" len="24" vol="86" />
          <note key="73" pos="576" pan="0" len="24" vol="100" />
          <note key="73" pos="624" pan="0" len="24" vol="69" />
          <note key="73" pos="672" pan="0" len="24" vol="52" />
          <note key="73" pos="720" pan="0" len="24" vol="34" />
          <note key="72" pos="768" pan="0" len="24" vol="34" />
          <note key="72" pos="816" pan="0" len="24" vol="52" />
          <note key="72" pos="864" pan="0" len="24" vol="69" />
          <note key="72" pos="912" pan="0" len="24" vol="86" />
          <note key="73" pos="960" pan="0" len="24" vol="100" />
          <note key="73" pos="1008" pan="0" len="24" vol="69" />
          <note key="73" pos="1056" pan="0" len="24" vol="52" />
          <note key="73" pos="1104" pan="0" len="24" vol="34" />
          <note key="72" pos="1152" pan="0" len="24" vol="34" />
          <note key="72" pos="1200" pan="0" len="24" vol="52" />
          <note key="72" pos="1248" pan="0" len="24" vol="69" />
          <note key="72" pos="1296" pan="0" len="24" vol="86" />
          <note key="73" pos="1344" pan="0" len="24" vol="100" />
          <note key="73" pos="1392" pan="0" len="24" vol="69" />
          <note key="73" pos="1440" pan="0" len="24" vol="52" />
          <note key="73" pos="1488" pan="0" len="24" vol="34" />
        </pattern>
        <pattern pos="41472" muted="0" steps="16" name="" type="1">
          <note key="71" pos="0" pan="0" len="24" vol="34" />
          <note key="71" pos="48" pan="0" len="24" vol="52" />
          <note key="71" pos="96" pan="0" len="24" vol="69" />
          <note key="71" pos="144" pan="0" len="24" vol="86" />
          <note key="74" pos="192" pan="0" len="24" vol="100" />
          <note key="74" pos="240" pan="0" len="24" vol="69" />
          <note key="74" pos="288" pan="0" len="24" vol="52" />
          <note key="74" pos="336" pan="0" len="24" vol="34" />
          <note key="71" pos="384" pan="0" len="24" vol="34" />
          <note key="71" pos="432" pan="0" len="24" vol="52" />
          <note key="71" pos="480" pan="0" len="24" vol="69" />
          <note key="71" pos="528" pan="0" len="24" vol="86" />
          <note key="74" pos="576" pan="0" len="24" vol="100" />
          <note key="74" pos="624" pan="0" len="24" vol="69" />
          <note key="74" pos="672" pan="0" len="24" vol="52" />
          <note key="74" pos="720" pan="0" len="24" vol="34" />
          <note key="71" pos="768" pan="0" len="24" vol="34" />
          <note key="71" pos="816" pan="0" len="24" vol="52" />
          <note key="71" pos="864" pan="0" len="24" vol="69" />
          <note key="71" pos="912" pan="0" len="24" vol="86" />
          <note key="74" pos="960" pan="0" len="24" vol="100" />
          <note key="74" pos="1008" pan="0" len="24" vol="69" />
          <note key="74" pos="1056" pan="0" len="24" vol="52" />
          <note key="74" pos="1104" pan="0" len="24" vol="34" />
          <note key="71" pos="1152" pan="0" len="24" vol="34" />
          <note key="71" pos="1200" pan="0" len="24" vol="52" />
          <note key="71" pos="1248" pan="0" len="24" vol="69" />
          <note key="71" pos="1296" pan="0" len="24" vol="86" />
          <note key="74" pos="1344" pan="0" len="24" vol="100" />
          <note key="74" pos="1392" pan="0" len="24" vol="69" />
          <note key="74" pos="1440" pan="0" len="24" vol="52" />
          <note key="74" pos="1488" pan="0" len="24" vol="34" />
        </pattern>
        <pattern pos="43008" muted="0" steps="16" name="" type="1">
          <note key="67" pos="0" pan="0" len="24" vol="34" />
          <note key="67" pos="48" pan="0" len="24" vol="52" />
          <note key="67" pos="96" pan="0" len="24" vol="69" />
          <note key="67" pos="144" pan="0" len="24" vol="86" />
          <note key="67" pos="192" pan="0" len="24" vol="100" />
          <note key="67" pos="240" pan="0" len="24" vol="69" />
          <note key="67" pos="288" pan="0" len="24" vol="52" />
          <note key="67" pos="336" pan="0" len="24" vol="34" />
          <note key="67" pos="384" pan="0" len="24" vol="34" />
          <note key="67" pos="432" pan="0" len="24" vol="52" />
          <note key="67" pos="480" pan="0" len="24" vol="69" />
          <note key="67" pos="528" pan="0" len="24" vol="86" />
          <note key="67" pos="576" pan="0" len="24" vol="100" />
          <note key="67" pos="624" pan="0" len="24" vol="69" />
          <note key="67" pos="672" pan="0" len="24" vol="52" />
          <note key="67" pos="720" pan="0" len="24" vol="34" />
          <note key="67" pos="768" pan="0" len="24" vol="34" />
          <note key="67" pos="816" pan="0" len="24" vol="52" />
          <note key="67" pos="864" pan="0" len="24" vol="69" />
          <note key="67" pos="912" pan="0" len="24" vol="86" />
          <note key="67" pos="960" pan="0" len="24" vol="100" />
          <note key="67" pos="1008" pan="0" len="24" vol="69" />
          <note key="67" pos="1056" pan="0" len="24" vol="52" />
          <note key="67" pos="1104" pan="0" len="24" vol="34" />
          <note key="67" pos="1152" pan="0" len="24" vol="34" />
          <note key="67" pos="1200" pan="0" len="24" vol="52" />
          <note key="67" pos="1248" pan="0" len="24" vol="69" />
          <note key="67" pos="1296" pan="0" len="24" vol="86" />
          <note key="67" pos="1344" pan="0" len="24" vol="100" />
          <note key="67" pos="1392" pan="0" len="24" vol="69" />
          <note key="67" pos="1440" pan="0" len="24" vol="52" />
          <note key="67" pos="1488" pan="0" len="24" vol="34" />
        </pattern>
        <pattern pos="115968" muted="0" steps="16" name="" type="1">
          <note key="79" pos="216" pan="0" len="72" vol="100" />
          <note key="79" pos="288" pan="0" len="72" vol="34" />
          <note key="79" pos="504" pan="0" len="72" vol="50" />
          <note key="79" pos="792" pan="0" len="72" vol="100" />
          <note key="79" pos="864" pan="0" len="84" vol="34" />
          <note key="79" pos="1080" pan="0" len="72" vol="100" />
          <note key="77" pos="1944" pan="0" len="72" vol="100" />
          <note key="77" pos="2016" pan="0" len="84" vol="34" />
          <note key="77" pos="2232" pan="0" len="72" vol="100" />
        </pattern>
        <pattern pos="120576" muted="0" steps="16" name="" type="1">
          <note key="79" pos="216" pan="0" len="72" vol="100" />
          <note key="79" pos="288" pan="0" len="72" vol="34" />
          <note key="79" pos="504" pan="0" len="72" vol="50" />
          <note key="79" pos="792" pan="0" len="72" vol="100" />
          <note key="79" pos="864" pan="0" len="84" vol="34" />
          <note key="79" pos="1080" pan="0" len="72" vol="100" />
          <note key="77" pos="1944" pan="0" len="72" vol="100" />
          <note key="77" pos="2016" pan="0" len="84" vol="34" />
          <note key="77" pos="2232" pan="0" len="72" vol="100" />
        </pattern>
      </track>
      <track solo="0" name="3 (Ch3)" type="0" muted="0">
        <instrumenttrack usemasterpitch="1" pitch="0.0" basenote="57" pan="0" pitchrange="12" vol="30">
          <eldata />
          <instrument name="tripleoscillator" />
        </instrumenttrack>
        <pattern pos="274140" muted="0" steps="16" name="" type="1">
          <note key="68" pos="0" pan="0" len="36" vol="100" />
        </pattern>
        <pattern pos="0" muted="0" steps="16" name="" type="1">
          <note key="75" pos="384" pan="0" len="48" vol="50" />
          <note key="77" pos="432" pan="0" len="48" vol="50" />
          <note key="79" pos="480" pan="0" len="48" vol="50" />
          <note key="81" pos="528" pan="0" len="48" vol="50" />
        </pattern>
        <pattern pos="35328" muted="0" steps="16" name="" type="1">
          <note key="72" pos="0" pan="0" len="24" vol="0" />
          <note key="72" pos="48" pan="0" len="24" vol="5" />
          <note key="72" pos="96" pan="0" len="24" vol="9" />
          <note key="72" pos="144" pan="0" len="24" vol="17" />
          <note key="72" pos="192" pan="0" len="24" vol="27" />
          <note key="72" pos="240" pan="0" len="24" vol="22" />
          <note key="72" pos="288" pan="0" len="24" vol="20" />
          <note key="72" pos="336" pan="0" len="24" vol="16" />
          <note key="72" pos="384" pan="0" len="24" vol="17" />
          <note key="72" pos="432" pan="0" len="24" vol="30" />
          <note key="72" pos="480" pan="0" len="24" vol="44" />
          <note key="72" pos="528" pan="0" len="24" vol="61" />
          <note key="72" pos="576" pan="0" len="24" vol="77" />
          <note key="72" pos="624" pan="0" len="24" vol="56" />
          <note key="72" pos="672" pan="0" len="24" vol="45" />
          <note key="72" pos="720" pan="0" len="24" vol="33" />
          <note key="72" pos="768" pan="0" len="24" vol="34" />
          <note key="72" pos="816" pan="0" len="24" vol="52" />
          <note key="72" pos="864" pan="0" len="24" vol="69" />
          <note key="72" pos="912" pan="0" len="24" vol="86" />
          <note key="72" pos="960" pan="0" len="24" vol="100" />
          <note key="72" pos="1008" pan="0" len="24" vol="69" />
          <note key="72" pos="1056" pan="0" len="24" vol="52" />
          <note key="72" pos="1104" pan="0" len="24" vol="34" />
          <note key="72" pos="1152" pan="0" len="24" vol="34" />
          <note key="72" pos="1200" pan="0" len="24" vol="52" />
          <note key="72" pos="1248" pan="0" len="24" vol="69" />
          <note key="72" pos="1296" pan="0" len="24" vol="86" />
          <note key="72" pos="1344" pan="0" len="24" vol="100" />
          <note key="72" pos="1392" pan="0" len="24" vol="69" />
          <note key="72" pos="1440" pan="0" len="24" vol="52" />
          <note key="72" pos="1488" pan="0" len="24" vol="34" />
        </pattern>
        <pattern pos="36864" muted="0" steps="16" name="" type="1">
          <note key="72" pos="0" pan="0" len="24" vol="34" />
          <note key="72" pos="48" pan="0" len="24" vol="52" />
          <note key="72" pos="96" pan="0" len="24" vol="69" />
          <note key="72" pos="144" pan="0" len="24" vol="86" />
          <note key="72" pos="192" pan="0" len="24" vol="100" />
          <note key="72" pos="240" pan="0" len="24" vol="69" />
          <note key="72" pos="288" pan="0" len="24" vol="52" />
          <note key="72" pos="336" pan="0" len="24" vol="34" />
          <note key="72" pos="384" pan="0" len="24" vol="34" />
          <note key="72" pos="432" pan="0" len="24" vol="52" />
          <note key="72" pos="480" pan="0" len="24" vol="69" />
          <note key="72" pos="528" pan="0" len="24" vol="86" />
          <note key="72" pos="576" pan="0" len="24" vol="100" />
          <note key="72" pos="624" pan="0" len="24" vol="69" />
          <note key="72" pos="672" pan="0" len="24" vol="52" />
          <note key="72" pos="720" pan="0" len="24" vol="34" />
          <note key="72" pos="768" pan="0" len="24" vol="34" />
          <note key="72" pos="816" pan="0" len="24" vol="52" />
          <note key="72" pos="864" pan="0" len="24" vol="69" />
          <note key="72" pos="912" pan="0" len="24" vol="86" />
          <note key="72" pos="960" pan="0" len="24" vol="100" />
          <note key="72" pos="1008" pan="0" len="24" vol="69" />
          <note key="72" pos="1056" pan="0" len="24" vol="52" />
          <note key="72" pos="1104" pan="0" len="24" vol="34" />
          <note key="72" pos="1152" pan="0" len="24" vol="34" />
          <note key="72" pos="1200" pan="0" len="24" vol="52" />
          <note key="72" pos="1248" pan="0" len="24" vol="69" />
          <note key="72" pos="1296" pan="0" len="24" vol="86" />
          <note key="72" pos="1344" pan="0" len="24" vol="100" />
          <note key="72" pos="1392" pan="0" len="24" vol="69" />
          <note key="72" pos="1440" pan="0" len="24" vol="52" />
          <note key="72" pos="1488" pan="0" len="24" vol="34" />
        </pattern>
        <pattern pos="38400" muted="0" steps="16" name="" type="1">
          <note key="72" pos="0" pan="0" len="24" vol="34" />
          <note key="72" pos="48" pan="0" len="24" vol="52" />
          <note key="72" pos="96" pan="0" len="24" vol="69" />
          <note key="72" pos="144" pan="0" len="24" vol="86" />
          <note key="74" pos="192" pan="0" len="24" vol="100" />
          <note key="74" pos="240" pan="0" len="24" vol="69" />
          <note key="74" pos="288" pan="0" len="24" vol="52" />
          <note key="74" pos="336" pan="0" len="24" vol="34" />
          <note key="72" pos="384" pan="0" len="24" vol="34" />
          <note key="72" pos="432" pan="0" len="24" vol="52" />
          <note key="72" pos="480" pan="0" len="24" vol="69" />
          <note key="72" pos="528" pan="0" len="24" vol="86" />
          <note key="74" pos="576" pan="0" len="24" vol="100" />
          <note key="74" pos="624" pan="0" len="24" vol="69" />
          <note key="74" pos="672" pan="0" len="24" vol="52" />
          <note key="74" pos="720" pan="0" len="24" vol="34" />
          <note key="72" pos="768" pan="0" len="24" vol="34" />
          <note key="72" pos="816" pan="0" len="24" vol="52" />
          <note key="72" pos="864" pan="0" len="24" vol="69" />
          <note key="72" pos="912" pan="0" len="24" vol="86" />
          <note key="74" pos="960" pan="0" len="24" vol="100" />
          <note key="74" pos="1008" pan="0" len="24" vol="69" />
          <note key="74" pos="1056" pan="0" len="24" vol="52" />
          <note key="74" pos="1104" pan="0" len="24" vol="34" />
          <note key="75" pos="1152" pan="0" len="24" vol="34" />
          <note key="75" pos="1200" pan="0" len="24" vol="52" />
          <note key="75" pos="1248" pan="0" len="24" vol="69" />
          <note key="75" pos="1296" pan="0" len="24" vol="86" />
          <note key="77" pos="1344" pan="0" len="24" vol="100" />
          <note key="77" pos="1392" pan="0" len="24" vol="69" />
          <note key="77" pos="1440" pan="0" len="24" vol="52" />
          <note key="77" pos="1488" pan="0" len="24" vol="34" />
        </pattern>
        <pattern pos="39936" muted="0" steps="16" name="" type="1">
          <note key="77" pos="0" pan="0" len="24" vol="34" />
          <note key="77" pos="48" pan="0" len="24" vol="52" />
          <note key="77" pos="96" pan="0" len="24" vol="69" />
          <note key="77" pos="144" pan="0" len="24" vol="86" />
          <note key="77" pos="192" pan="0" len="24" vol="100" />
          <note key="77" pos="240" pan="0" len="24" vol="69" />
          <note key="77" pos="288" pan="0" len="24" vol="52" />
          <note key="77" pos="336" pan="0" len="24" vol="34" />
          <note key="77" pos="384" pan="0" len="24" vol="34" />
          <note key="77" pos="432" pan="0" len="24" vol="52" />
          <note key="77" pos="480" pan="0" len="24" vol="69" />
          <note key="77" pos="528" pan="0" len="24" vol="86" />
          <note key="77" pos="576" pan="0" len="24" vol="100" />
          <note key="77" pos="624" pan="0" len="24" vol="69" />
          <note key="77" pos="672" pan="0" len="24" vol="52" />
          <note key="77" pos="720" pan="0" len="24" vol="34" />
          <note key="77" pos="768" pan="0" len="24" vol="34" />
          <note key="77" pos="816" pan="0" len="24" vol="52" />
          <note key="77" pos="864" pan="0" len="24" vol="69" />
          <note key="77" pos="912" pan="0" len="24" vol="86" />
          <note key="77" pos="960" pan="0" len="24" vol="100" />
          <note key="77" pos="1008" pan="0" len="24" vol="69" />
          <note key="77" pos="1056" pan="0" len="24" vol="52" />
          <note key="77" pos="1104" pan="0" len="24" vol="34" />
          <note key="77" pos="1152" pan="0" len="24" vol="34" />
          <note key="77" pos="1200" pan="0" len="24" vol="52" />
          <note key="77" pos="1248" pan="0" len="24" vol="69" />
          <note key="77" pos="1296" pan="0" len="24" vol="86" />
          <note key="77" pos="1344" pan="0" len="24" vol="100" />
          <note key="77" pos="1392" pan="0" len="24" vol="69" />
          <note key="77" pos="1440" pan="0" len="24" vol="52" />
          <note key="77" pos="1488" pan="0" len="24" vol="34" />
        </pattern>
        <pattern pos="41472" muted="0" steps="16" name="" type="1">
          <note key="75" pos="0" pan="0" len="24" vol="34" />
          <note key="75" pos="48" pan="0" len="24" vol="52" />
          <note key="75" pos="96" pan="0" len="24" vol="69" />
          <note key="75" pos="144" pan="0" len="24" vol="86" />
          <note key="78" pos="192" pan="0" len="24" vol="100" />
          <note key="78" pos="240" pan="0" len="24" vol="69" />
          <note key="78" pos="288" pan="0" len="24" vol="52" />
          <note key="78" pos="336" pan="0" len="24" vol="34" />
          <note key="75" pos="384" pan="0" len="24" vol="34" />
          <note key="75" pos="432" pan="0" len="24" vol="52" />
          <note key="75" pos="480" pan="0" len="24" vol="69" />
          <note key="75" pos="528" pan="0" len="24" vol="86" />
          <note key="78" pos="576" pan="0" len="24" vol="100" />
          <note key="78" pos="624" pan="0" len="24" vol="69" />
          <note key="78" pos="672" pan="0" len="24" vol="52" />
          <note key="78" pos="720" pan="0" len="24" vol="34" />
          <note key="75" pos="768" pan="0" len="24" vol="34" />
          <note key="75" pos="816" pan="0" len="24" vol="52" />
          <note key="75" pos="864" pan="0" len="24" vol="69" />
          <note key="75" pos="912" pan="0" len="24" vol="86" />
          <note key="78" pos="960" pan="0" len="24" vol="100" />
          <note key="78" pos="1008" pan="0" len="24" vol="69" />
          <note key="78" pos="1056" pan="0" len="24" vol="52" />
          <note key="78" pos="1104" pan="0" len="24" vol="34" />
          <note key="75" pos="1152" pan="0" len="24" vol="34" />
          <note key="75" pos="1200" pan="0" len="24" vol="52" />
          <note key="75" pos="1248" pan="0" len="24" vol="69" />
          <note key="75" pos="1296" pan="0" len="24" vol="86" />
          <note key="78" pos="1344" pan="0" len="24" vol="100" />
          <note key="78" pos="1392" pan="0" len="24" vol="69" />
          <note key="78" pos="1440" pan="0" len="24" vol="52" />
          <note key="78" pos="1488" pan="0" len="24" vol="34" />
        </pattern>
        <pattern pos="43008" muted="0" steps="16" name="" type="1">
          <note key="72" pos="0" pan="0" len="24" vol="34" />
          <note key="72" pos="48" pan="0" len="24" vol="52" />
          <note key="72" pos="96" pan="0" len="24" vol="69" />
          <note key="72" pos="144" pan="0" len="24" vol="86" />
          <note key="72" pos="192" pan="0" len="24" vol="100" />
          <note key="72" pos="240" pan="0" len="24" vol="69" />
          <note key="72" pos="288" pan="0" len="24" vol="52" />
          <note key="72" pos="336" pan="0" len="24" vol="34" />
          <note key="72" pos="384" pan="0" len="24" vol="34" />
          <note key="72" pos="432" pan="0" len="24" vol="52" />
          <note key="72" pos="480" pan="0" len="24" vol="69" />
          <note key="72" pos="528" pan="0" len="24" vol="86" />
          <note key="72" pos="576" pan="0" len="24" vol="100" />
          <note key="72" pos="624" pan="0" len="24" vol="69" />
          <note key="72" pos="672" pan="0" len="24" vol="52" />
          <note key="72" pos="720" pan="0" len="24" vol="34" />
          <note key="72" pos="768" pan="0" len="24" vol="34" />
          <note key="72" pos="816" pan="0" len="24" vol="52" />
          <note key="72" pos="864" pan="0" len="24" vol="69" />
          <note key="72" pos="912" pan="0" len="24" vol="86" />
          <note key="72" pos="960" pan="0" len="24" vol="100" />
          <note key="72" pos="1008" pan="0" len="24" vol="69" />
          <note key="72" pos="1056" pan="0" len="24" vol="52" />
          <note key="72" pos="1104" pan="0" len="24" vol="34" />
          <note key="72" pos="1152" pan="0" len="24" vol="34" />
          <note key="72" pos="1200" pan="0" len="24" vol="52" />
          <note key="72" pos="1248" pan="0" len="24" vol="69" />
          <note key="72" pos="1296" pan="0" len="24" vol="86" />
          <note key="72" pos="1344" pan="0" len="24" vol="100" />
          <note key="72" pos="1392" pan="0" len="24" vol="69" />
          <note key="72" pos="1440" pan="0" len="24" vol="52" />
          <note key="72" pos="1488" pan="0" len="24" vol="34" />
        </pattern>
        <pattern pos="115968" muted="0" steps="16" name="" type="1">
          <note key="84" pos="216" pan="0" len="72" vol="100" />
          <note key="82" pos="288" pan="0" len="72" vol="34" />
          <note key="84" pos="504" pan="0" len="72" vol="50" />
          <note key="84" pos="792" pan="0" len="72" vol="100" />
          <note key="82" pos="864" pan="0" len="84" vol="34" />
          <note key="88" pos="1080" pan="0" len="72" vol="100" />
          <note key="82" pos="1944" pan="0" len="72" vol="100" />
          <note key="80" pos="2016" pan="0" len="84" vol="34" />
          <note key="86" pos="2232" pan="0" len="72" vol="100" />
        </pattern>
        <pattern pos="120576" muted="0" steps="16" name="" type="1">
          <note key="84" pos="216" pan="0" len="72" vol="100" />
          <note key="82" pos="288" pan="0" len="72" vol="34" />
          <note key="84" pos="504" pan="0" len="72" vol="50" />
          <note key="84" pos="792" pan="0" len="72" vol="100" />
          <note key="82" pos="864" pan="0" len="84" vol="34" />
          <note key="88" pos="1080" pan="0" len="72" vol="100" />
          <note key="82" pos="1944" pan="0" len="72" vol="100" />
          <note key="80" pos="2016" pan="0" len="84" vol="34" />
          <note key="86" pos="2232" pan="0" len="72" vol="100" />
        </pattern>
      </track>
      <track solo="0" name="3 (Ch4)" type="0" muted="0">
        <instrumenttrack usemasterpitch="1" pitch="0.0" basenote="57" pan="0" pitchrange="12" vol="30">
          <eldata />
          <instrument name="tripleoscillator" />
        </instrumenttrack>
        <pattern pos="274140" muted="0" steps="16" name="" type="1">
          <note key="63" pos="0" pan="0" len="36" vol="100" />
        </pattern>
        <pattern pos="0" muted="0" steps="16" name="" type="1">
          <note key="60" pos="384" pan="0" len="60" vol="100" />
          <note key="48" pos="480" pan="0" len="60" vol="100" />
        </pattern>
        <pattern pos="35328" muted="0" steps="16" name="" type="1">
          <note key="76" pos="0" pan="0" len="24" vol="0" />
          <note key="79" pos="24" pan="0" len="12" vol="2" />
          <note key="76" pos="48" pan="0" len="24" vol="5" />
          <note key="79" pos="72" pan="0" len="12" vol="6" />
          <note key="76" pos="96" pan="0" len="24" vol="9" />
          <note key="79" pos="120" pan="0" len="12" vol="12" />
          <note key="76" pos="144" pan="0" len="24" vol="17" />
          <note key="79" pos="168" pan="0" len="12" vol="20" />
          <note key="76" pos="192" pan="0" len="24" vol="27" />
          <note key="79" pos="216" pan="0" len="12" vol="25" />
          <note key="76" pos="240" pan="0" len="24" vol="28" />
          <note key="79" pos="264" pan="0" len="12" vol="25" />
          <note key="76" pos="288" pan="0" len="24" vol="27" />
          <note key="79" pos="312" pan="0" len="12" vol="22" />
          <note key="74" pos="336" pan="0" len="24" vol="16" />
          <note key="79" pos="360" pan="0" len="12" vol="17" />
          <note key="76" pos="384" pan="0" len="24" vol="17" />
          <note key="79" pos="408" pan="0" len="12" vol="19" />
          <note key="76" pos="432" pan="0" len="24" vol="30" />
          <note key="79" pos="456" pan="0" len="12" vol="31" />
          <note key="76" pos="480" pan="0" len="24" vol="44" />
          <note key="79" pos="504" pan="0" len="12" vol="47" />
          <note key="76" pos="528" pan="0" len="24" vol="61" />
          <note key="79" pos="552" pan="0" len="12" vol="62" />
          <note key="76" pos="576" pan="0" len="24" vol="77" />
          <note key="79" pos="600" pan="0" len="12" vol="69" />
          <note key="76" pos="624" pan="0" len="24" vol="72" />
          <note key="79" pos="648" pan="0" len="12" vol="59" />
          <note key="76" pos="672" pan="0" len="24" vol="61" />
          <note key="79" pos="696" pan="0" len="12" vol="47" />
          <note key="74" pos="720" pan="0" len="24" vol="33" />
          <note key="79" pos="744" pan="0" len="12" vol="34" />
          <note key="76" pos="768" pan="0" len="24" vol="34" />
          <note key="79" pos="792" pan="0" len="12" vol="34" />
          <note key="76" pos="816" pan="0" len="24" vol="52" />
          <note key="79" pos="840" pan="0" len="12" vol="52" />
          <note key="76" pos="864" pan="0" len="24" vol="69" />
          <note key="79" pos="888" pan="0" len="12" vol="69" />
          <note key="76" pos="912" pan="0" len="24" vol="86" />
          <note key="79" pos="936" pan="0" len="12" vol="86" />
          <note key="76" pos="960" pan="0" len="24" vol="100" />
          <note key="79" pos="984" pan="0" len="12" vol="86" />
          <note key="76" pos="1008" pan="0" len="24" vol="86" />
          <note key="79" pos="1032" pan="0" len="12" vol="69" />
          <note key="76" pos="1056" pan="0" len="24" vol="69" />
          <note key="79" pos="1080" pan="0" len="12" vol="52" />
          <note key="74" pos="1104" pan="0" len="24" vol="34" />
          <note key="79" pos="1128" pan="0" len="12" vol="34" />
          <note key="76" pos="1152" pan="0" len="24" vol="34" />
          <note key="79" pos="1176" pan="0" len="12" vol="34" />
          <note key="76" pos="1200" pan="0" len="24" vol="52" />
          <note key="79" pos="1224" pan="0" len="12" vol="52" />
          <note key="76" pos="1248" pan="0" len="24" vol="69" />
          <note key="79" pos="1272" pan="0" len="12" vol="69" />
          <note key="76" pos="1296" pan="0" len="24" vol="86" />
          <note key="79" pos="1320" pan="0" len="12" vol="86" />
          <note key="76" pos="1344" pan="0" len="24" vol="100" />
          <note key="79" pos="1368" pan="0" len="12" vol="86" />
          <note key="76" pos="1392" pan="0" len="24" vol="86" />
          <note key="79" pos="1416" pan="0" len="12" vol="69" />
          <note key="76" pos="1440" pan="0" len="24" vol="69" />
          <note key="79" pos="1464" pan="0" len="12" vol="52" />
          <note key="74" pos="1488" pan="0" len="24" vol="34" />
          <note key="79" pos="1512" pan="0" len="12" vol="34" />
        </pattern>
        <pattern pos="36864" muted="0" steps="16" name="" type="1">
          <note key="76" pos="0" pan="0" len="24" vol="34" />
          <note key="79" pos="24" pan="0" len="12" vol="34" />
          <note key="76" pos="48" pan="0" len="24" vol="52" />
          <note key="79" pos="72" pan="0" len="12" vol="52" />
          <note key="76" pos="96" pan="0" len="24" vol="69" />
          <note key="79" pos="120" pan="0" len="12" vol="69" />
          <note key="76" pos="144" pan="0" len="24" vol="86" />
          <note key="79" pos="168" pan="0" len="12" vol="86" />
          <note key="76" pos="192" pan="0" len="24" vol="100" />
          <note key="79" pos="216" pan="0" len="12" vol="86" />
          <note key="76" pos="240" pan="0" len="24" vol="86" />
          <note key="79" pos="264" pan="0" len="12" vol="69" />
          <note key="76" pos="288" pan="0" len="24" vol="69" />
          <note key="79" pos="312" pan="0" len="12" vol="52" />
          <note key="74" pos="336" pan="0" len="24" vol="34" />
          <note key="79" pos="360" pan="0" len="12" vol="34" />
          <note key="76" pos="384" pan="0" len="24" vol="34" />
          <note key="79" pos="408" pan="0" len="12" vol="34" />
          <note key="76" pos="432" pan="0" len="24" vol="52" />
          <note key="79" pos="456" pan="0" len="12" vol="52" />
          <note key="76" pos="480" pan="0" len="24" vol="69" />
          <note key="79" pos="504" pan="0" len="12" vol="69" />
          <note key="76" pos="528" pan="0" len="24" vol="86" />
          <note key="79" pos="552" pan="0" len="12" vol="86" />
          <note key="76" pos="576" pan="0" len="24" vol="100" />
          <note key="79" pos="600" pan="0" len="12" vol="86" />
          <note key="76" pos="624" pan="0" len="24" vol="86" />
          <note key="79" pos="648" pan="0" len="12" vol="69" />
          <note key="76" pos="672" pan="0" len="24" vol="69" />
          <note key="79" pos="696" pan="0" len="12" vol="52" />
          <note key="74" pos="720" pan="0" len="24" vol="34" />
          <note key="79" pos="744" pan="0" len="12" vol="34" />
          <note key="76" pos="768" pan="0" len="24" vol="34" />
          <note key="79" pos="792" pan="0" len="12" vol="34" />
          <note key="76" pos="816" pan="0" len="24" vol="52" />
          <note key="79" pos="840" pan="0" len="12" vol="52" />
          <note key="76" pos="864" pan="0" len="24" vol="69" />
          <note key="79" pos="888" pan="0" len="12" vol="69" />
          <note key="76" pos="912" pan="0" len="24" vol="86" />
          <note key="79" pos="936" pan="0" len="12" vol="86" />
          <note key="76" pos="960" pan="0" len="24" vol="100" />
          <note key="79" pos="984" pan="0" len="12" vol="86" />
          <note key="76" pos="1008" pan="0" len="24" vol="86" />
          <note key="79" pos="1032" pan="0" len="12" vol="69" />
          <note key="76" pos="1056" pan="0" len="24" vol="69" />
          <note key="79" pos="1080" pan="0" len="12" vol="52" />
          <note key="74" pos="1104" pan="0" len="24" vol="34" />
          <note key="79" pos="1128" pan="0" len="12" vol="34" />
          <note key="76" pos="1152" pan="0" len="24" vol="34" />
          <note key="79" pos="1176" pan="0" len="12" vol="34" />
          <note key="76" pos="1200" pan="0" len="24" vol="52" />
          <note key="79" pos="1224" pan="0" len="12" vol="52" />
          <note key="76" pos="1248" pan="0" len="24" vol="69" />
          <note key="79" pos="1272" pan="0" len="12" vol="69" />
          <note key="76" pos="1296" pan="0" len="24" vol="86" />
          <note key="79" pos="1320" pan="0" len="12" vol="86" />
          <note key="76" pos="1344" pan="0" len="24" vol="100" />
          <note key="79" pos="1368" pan="0" len="12" vol="86" />
          <note key="76" pos="1392" pan="0" len="24" vol="86" />
          <note key="79" pos="1416" pan="0" len="12" vol="69" />
          <note key="76" pos="1440" pan="0" len="24" vol="69" />
          <note key="79" pos="1464" pan="0" len="12" vol="52" />
          <note key="74" pos="1488" pan="0" len="24" vol="34" />
          <note key="79" pos="1512" pan="0" len="12" vol="34" />
        </pattern>
        <pattern pos="38400" muted="0" steps="16" name="" type="1">
          <note key="76" pos="0" pan="0" len="24" vol="34" />
          <note key="79" pos="24" pan="0" len="12" vol="34" />
          <note key="76" pos="48" pan="0" len="24" vol="52" />
          <note key="79" pos="72" pan="0" len="12" vol="52" />
          <note key="76" pos="96" pan="0" len="24" vol="69" />
          <note key="79" pos="120" pan="0" len="12" vol="69" />
          <note key="76" pos="144" pan="0" len="24" vol="86" />
          <note key="79" pos="168" pan="0" len="12" vol="86" />
          <note key="78" pos="192" pan="0" len="24" vol="100" />
          <note key="81" pos="216" pan="0" len="12" vol="86" />
          <note key="78" pos="240" pan="0" len="24" vol="86" />
          <note key="81" pos="264" pan="0" len="12" vol="69" />
          <note key="78" pos="288" pan="0" len="24" vol="69" />
          <note key="81" pos="312" pan="0" len="12" vol="52" />
          <note key="76" pos="336" pan="0" len="24" vol="34" />
          <note key="81" pos="360" pan="0" len="12" vol="34" />
          <note key="76" pos="384" pan="0" len="24" vol="34" />
          <note key="79" pos="408" pan="0" len="12" vol="34" />
          <note key="76" pos="432" pan="0" len="24" vol="52" />
          <note key="79" pos="456" pan="0" len="12" vol="52" />
          <note key="76" pos="480" pan="0" len="24" vol="69" />
          <note key="79" pos="504" pan="0" len="12" vol="69" />
          <note key="76" pos="528" pan="0" len="24" vol="86" />
          <note key="79" pos="552" pan="0" len="12" vol="86" />
          <note key="78" pos="576" pan="0" len="24" vol="100" />
          <note key="81" pos="600" pan="0" len="12" vol="86" />
          <note key="78" pos="624" pan="0" len="24" vol="86" />
          <note key="81" pos="648" pan="0" len="12" vol="69" />
          <note key="78" pos="672" pan="0" len="24" vol="69" />
          <note key="81" pos="696" pan="0" len="12" vol="52" />
          <note key="76" pos="720" pan="0" len="24" vol="34" />
          <note key="81" pos="744" pan="0" len="12" vol="34" />
          <note key="76" pos="768" pan="0" len="24" vol="34" />
          <note key="79" pos="792" pan="0" len="12" vol="34" />
          <note key="76" pos="816" pan="0" len="24" vol="52" />
          <note key="79" pos="840" pan="0" len="12" vol="52" />
          <note key="76" pos="864" pan="0" len="24" vol="69" />
          <note key="79" pos="888" pan="0" len="12" vol="69" />
          <note key="76" pos="912" pan="0" len="24" vol="86" />
          <note key="79" pos="936" pan="0" len="12" vol="86" />
          <note key="78" pos="960" pan="0" len="24" vol="100" />
          <note key="81" pos="984" pan="0" len="12" vol="86" />
          <note key="78" pos="1008" pan="0" len="24" vol="86" />
          <note key="81" pos="1032" pan="0" len="12" vol="69" />
          <note key="78" pos="1056" pan="0" len="24" vol="69" />
          <note key="81" pos="1080" pan="0" len="12" vol="52" />
          <note key="76" pos="1104" pan="0" len="24" vol="34" />
          <note key="81" pos="1128" pan="0" len="12" vol="34" />
          <note key="79" pos="1152" pan="0" len="24" vol="34" />
          <note key="82" pos="1176" pan="0" len="12" vol="34" />
          <note key="79" pos="1200" pan="0" len="24" vol="52" />
          <note key="82" pos="1224" pan="0" len="12" vol="52" />
          <note key="79" pos="1248" pan="0" len="24" vol="69" />
          <note key="82" pos="1272" pan="0" len="12" vol="69" />
          <note key="79" pos="1296" pan="0" len="24" vol="86" />
          <note key="82" pos="1320" pan="0" len="12" vol="86" />
          <note key="81" pos="1344" pan="0" len="24" vol="100" />
          <note key="84" pos="1368" pan="0" len="12" vol="86" />
          <note key="81" pos="1392" pan="0" len="24" vol="86" />
          <note key="84" pos="1416" pan="0" len="12" vol="69" />
          <note key="81" pos="1440" pan="0" len="24" vol="69" />
          <note key="84" pos="1464" pan="0" len="12" vol="52" />
          <note key="79" pos="1488" pan="0" len="24" vol="34" />
          <note key="84" pos="1512" pan="0" len="12" vol="34" />
        </pattern>
        <pattern pos="39936" muted="0" steps="16" name="" type="1">
          <note key="81" pos="0" pan="0" len="24" vol="34" />
          <note key="84" pos="24" pan="0" len="12" vol="34" />
          <note key="81" pos="48" pan="0" len="24" vol="52" />
          <note key="84" pos="72" pan="0" len="12" vol="52" />
          <note key="81" pos="96" pan="0" len="24" vol="69" />
          <note key="84" pos="120" pan="0" len="12" vol="69" />
          <note key="81" pos="144" pan="0" len="24" vol="86" />
          <note key="84" pos="168" pan="0" len="12" vol="86" />
          <note key="80" pos="192" pan="0" len="24" vol="100" />
          <note key="85" pos="216" pan="0" len="12" vol="100" />
          <note key="80" pos="240" pan="0" len="24" vol="69" />
          <note key="85" pos="264" pan="0" len="12" vol="69" />
          <note key="80" pos="288" pan="0" len="24" vol="52" />
          <note key="87" pos="312" pan="0" len="12" vol="52" />
          <note key="80" pos="336" pan="0" len="24" vol="34" />
          <note key="85" pos="360" pan="0" len="12" vol="34" />
          <note key="81" pos="384" pan="0" len="24" vol="34" />
          <note key="84" pos="408" pan="0" len="12" vol="34" />
          <note key="81" pos="432" pan="0" len="24" vol="52" />
          <note key="84" pos="456" pan="0" len="12" vol="52" />
          <note key="81" pos="480" pan="0" len="24" vol="69" />
          <note key="84" pos="504" pan="0" len="12" vol="69" />
          <note key="81" pos="528" pan="0" len="24" vol="86" />
          <note key="84" pos="552" pan="0" len="12" vol="86" />
          <note key="80" pos="576" pan="0" len="24" vol="100" />
          <note key="85" pos="600" pan="0" len="12" vol="100" />
          <note key="80" pos="624" pan="0" len="24" vol="69" />
          <note key="85" pos="648" pan="0" len="12" vol="69" />
          <note key="80" pos="672" pan="0" len="24" vol="52" />
          <note key="87" pos="696" pan="0" len="12" vol="52" />
          <note key="80" pos="720" pan="0" len="24" vol="34" />
          <note key="85" pos="744" pan="0" len="12" vol="34" />
          <note key="81" pos="768" pan="0" len="24" vol="34" />
          <note key="84" pos="792" pan="0" len="12" vol="34" />
          <note key="81" pos="816" pan="0" len="24" vol="52" />
          <note key="84" pos="840" pan="0" len="12" vol="52" />
          <note key="81" pos="864" pan="0" len="24" vol="69" />
          <note key="84" pos="888" pan="0" len="12" vol="69" />
          <note key="81" pos="912" pan="0" len="24" vol="86" />
          <note key="84" pos="936" pan="0" len="12" vol="86" />
          <note key="80" pos="960" pan="0" len="24" vol="100" />
          <note key="85" pos="984" pan="0" len="12" vol="100" />
          <note key="80" pos="1008" pan="0" len="24" vol="69" />
          <note key="85" pos="1032" pan="0" len="12" vol="69" />
          <note key="80" pos="1056" pan="0" len="24" vol="52" />
          <note key="87" pos="1080" pan="0" len="12" vol="52" />
          <note key="80" pos="1104" pan="0" len="24" vol="34" />
          <note key="85" pos="1128" pan="0" len="12" vol="34" />
          <note key="81" pos="1152" pan="0" len="24" vol="34" />
          <note key="84" pos="1176" pan="0" len="12" vol="34" />
          <note key="81" pos="1200" pan="0" len="24" vol="52" />
          <note key="84" pos="1224" pan="0" len="12" vol="52" />
          <note key="81" pos="1248" pan="0" len="24" vol="69" />
          <note key="84" pos="1272" pan="0" len="12" vol="69" />
          <note key="81" pos="1296" pan="0" len="24" vol="86" />
          <note key="84" pos="1320" pan="0" len="12" vol="86" />
          <note key="80" pos="1344" pan="0" len="24" vol="100" />
          <note key="85" pos="1368" pan="0" len="12" vol="100" />
          <note key="80" pos="1392" pan="0" len="24" vol="69" />
          <note key="85" pos="1416" pan="0" len="12" vol="69" />
          <note key="80" pos="1440" pan="0" len="24" vol="52" />
          <note key="87" pos="1464" pan="0" len="12" vol="52" />
          <note key="80" pos="1488" pan="0" len="24" vol="34" />
          <note key="85" pos="1512" pan="0" len="12" vol="34" />
        </pattern>
        <pattern pos="41472" muted="0" steps="16" name="" type="1">
          <note key="78" pos="0" pan="0" len="24" vol="34" />
          <note key="83" pos="24" pan="0" len="12" vol="34" />
          <note key="78" pos="48" pan="0" len="24" vol="52" />
          <note key="83" pos="72" pan="0" len="12" vol="52" />
          <note key="78" pos="96" pan="0" len="24" vol="69" />
          <note key="83" pos="120" pan="0" len="12" vol="69" />
          <note key="78" pos="144" pan="0" len="24" vol="86" />
          <note key="83" pos="168" pan="0" len="12" vol="86" />
          <note key="81" pos="192" pan="0" len="24" vol="86" />
          <note key="86" pos="216" pan="0" len="12" vol="86" />
          <note key="81" pos="240" pan="0" len="24" vol="69" />
          <note key="86" pos="264" pan="0" len="12" vol="69" />
          <note key="81" pos="288" pan="0" len="24" vol="52" />
          <note key="86" pos="312" pan="0" len="12" vol="52" />
          <note key="81" pos="336" pan="0" len="24" vol="34" />
          <note key="88" pos="360" pan="0" len="12" vol="34" />
          <note key="78" pos="384" pan="0" len="24" vol="34" />
          <note key="83" pos="408" pan="0" len="12" vol="34" />
          <note key="78" pos="432" pan="0" len="24" vol="52" />
          <note key="83" pos="456" pan="0" len="12" vol="52" />
          <note key="78" pos="480" pan="0" len="24" vol="69" />
          <note key="83" pos="504" pan="0" len="12" vol="69" />
          <note key="78" pos="528" pan="0" len="24" vol="86" />
          <note key="83" pos="552" pan="0" len="12" vol="86" />
          <note key="81" pos="576" pan="0" len="24" vol="86" />
          <note key="86" pos="600" pan="0" len="12" vol="86" />
          <note key="81" pos="624" pan="0" len="24" vol="69" />
          <note key="86" pos="648" pan="0" len="12" vol="69" />
          <note key="81" pos="672" pan="0" len="24" vol="52" />
          <note key="86" pos="696" pan="0" len="12" vol="52" />
          <note key="81" pos="720" pan="0" len="24" vol="34" />
          <note key="88" pos="744" pan="0" len="12" vol="34" />
          <note key="78" pos="768" pan="0" len="24" vol="34" />
          <note key="83" pos="792" pan="0" len="12" vol="34" />
          <note key="78" pos="816" pan="0" len="24" vol="52" />
          <note key="83" pos="840" pan="0" len="12" vol="52" />
          <note key="78" pos="864" pan="0" len="24" vol="69" />
          <note key="83" pos="888" pan="0" len="12" vol="69" />
          <note key="78" pos="912" pan="0" len="24" vol="86" />
          <note key="83" pos="936" pan="0" len="12" vol="86" />
          <note key="81" pos="960" pan="0" len="24" vol="86" />
          <note key="86" pos="984" pan="0" len="12" vol="86" />
          <note key="81" pos="1008" pan="0" len="24" vol="69" />
          <note key="86" pos="1032" pan="0" len="12" vol="69" />
          <note key="81" pos="1056" pan="0" len="24" vol="52" />
          <note key="86" pos="1080" pan="0" len="12" vol="52" />
          <note key="81" pos="1104" pan="0" len="24" vol="34" />
          <note key="88" pos="1128" pan="0" len="12" vol="34" />
          <note key="78" pos="1152" pan="0" len="24" vol="34" />
          <note key="83" pos="1176" pan="0" len="12" vol="34" />
          <note key="78" pos="1200" pan="0" len="24" vol="52" />
          <note key="83" pos="1224" pan="0" len="12" vol="52" />
          <note key="78" pos="1248" pan="0" len="24" vol="69" />
          <note key="83" pos="1272" pan="0" len="12" vol="69" />
          <note key="78" pos="1296" pan="0" len="24" vol="86" />
          <note key="83" pos="1320" pan="0" len="12" vol="86" />
          <note key="81" pos="1344" pan="0" len="24" vol="86" />
          <note key="86" pos="1368" pan="0" len="12" vol="86" />
          <note key="81" pos="1392" pan="0" len="24" vol="69" />
          <note key="86" pos="1416" pan="0" len="12" vol="69" />
          <note key="81" pos="1440" pan="0" len="24" vol="52" />
          <note key="86" pos="1464" pan="0" len="12" vol="52" />
          <note key="81" pos="1488" pan="0" len="24" vol="34" />
          <note key="88" pos="1512" pan="0" len="12" vol="34" />
        </pattern>
        <pattern pos="43008" muted="0" steps="16" name="" type="1">
          <note key="76" pos="0" pan="0" len="24" vol="34" />
          <note key="79" pos="24" pan="0" len="12" vol="34" />
          <note key="76" pos="48" pan="0" len="24" vol="52" />
          <note key="79" pos="72" pan="0" len="12" vol="52" />
          <note key="76" pos="96" pan="0" len="24" vol="69" />
          <note key="79" pos="120" pan="0" len="12" vol="69" />
          <note key="76" pos="144" pan="0" len="24" vol="86" />
          <note key="79" pos="168" pan="0" len="12" vol="86" />
          <note key="76" pos="192" pan="0" len="24" vol="100" />
          <note key="79" pos="216" pan="0" len="12" vol="86" />
          <note key="76" pos="240" pan="0" len="24" vol="86" />
          <note key="79" pos="264" pan="0" len="12" vol="69" />
          <note key="76" pos="288" pan="0" len="24" vol="69" />
          <note key="79" pos="312" pan="0" len="12" vol="52" />
          <note key="74" pos="336" pan="0" len="24" vol="34" />
          <note key="79" pos="360" pan="0" len="12" vol="34" />
          <note key="76" pos="384" pan="0" len="24" vol="34" />
          <note key="79" pos="408" pan="0" len="12" vol="34" />
          <note key="76" pos="432" pan="0" len="24" vol="52" />
          <note key="79" pos="456" pan="0" len="12" vol="52" />
          <note key="76" pos="480" pan="0" len="24" vol="69" />
          <note key="79" pos="504" pan="0" len="12" vol="69" />
          <note key="76" pos="528" pan="0" len="24" vol="86" />
          <note key="79" pos="552" pan="0" len="12" vol="86" />
          <note key="76" pos="576" pan="0" len="24" vol="100" />
          <note key="79" pos="600" pan="0" len="12" vol="86" />
          <note key="76" pos="624" pan="0" len="24" vol="86" />
          <note key="79" pos="648" pan="0" len="12" vol="69" />
          <note key="76" pos="672" pan="0" len="24" vol="69" />
          <note key="79" pos="696" pan="0" len="12" vol="52" />
          <note key="74" pos="720" pan="0" len="24" vol="34" />
          <note key="79" pos="744" pan="0" len="12" vol="34" />
          <note key="76" pos="768" pan="0" len="24" vol="34" />
          <note key="79" pos="792" pan="0" len="12" vol="34" />
          <note key="76" pos="816" pan="0" len="24" vol="52" />
          <note key="79" pos="840" pan="0" len="12" vol="52" />
          <note key="76" pos="864" pan="0" len="24" vol="69" />
          <note key="79" pos="888" pan="0" len="12" vol="69" />
          <note key="76" pos="912" pan="0" len="24" vol="86" />
          <note key="79" pos="936" pan="0" len="12" vol="86" />
          <note key="76" pos="960" pan="0" len="24" vol="100" />
          <note key="79" pos="984" pan="0" len="12" vol="86" />
          <note key="76" pos="1008" pan="0" len="24" vol="86" />
          <note key="79" pos="1032" pan="0" len="12" vol="69" />
          <note key="76" pos="1056" pan="0" len="24" vol="69" />
          <note key="79" pos="1080" pan="0" len="12" vol="52" />
          <note key="74" pos="1104" pan="0" len="24" vol="34" />
          <note key="79" pos="1128" pan="0" len="12" vol="34" />
          <note key="76" pos="1152" pan="0" len="24" vol="34" />
          <note key="79" pos="1176" pan="0" len="12" vol="34" />
          <note key="76" pos="1200" pan="0" len="24" vol="52" />
          <note key="79" pos="1224" pan="0" len="12" vol="52" />
          <note key="76" pos="1248" pan="0" len="24" vol="69" />
          <note key="79" pos="1272" pan="0" len="12" vol="69" />
          <note key="76" pos="1296" pan="0" len="24" vol="86" />
          <note key="79" pos="1320" pan="0" len="12" vol="86" />
          <note key="76" pos="1344" pan="0" len="24" vol="100" />
          <note key="79" pos="1368" pan="0" len="12" vol="86" />
          <note key="76" pos="1392" pan="0" len="24" vol="86" />
          <note key="79" pos="1416" pan="0" len="12" vol="69" />
          <note key="76" pos="1440" pan="0" len="24" vol="69" />
          <note key="79" pos="1464" pan="0" len="12" vol="52" />
          <note key="74" pos="1488" pan="0" len="24" vol="34" />
          <note key="79" pos="1512" pan="0" len="12" vol="34" />
        </pattern>
        <pattern pos="115968" muted="0" steps="16" name="" type="1">
          <note key="88" pos="216" pan="0" len="72" vol="100" />
          <note key="86" pos="288" pan="0" len="72" vol="34" />
          <note key="88" pos="504" pan="0" len="72" vol="50" />
          <note key="88" pos="792" pan="0" len="72" vol="100" />
          <note key="86" pos="864" pan="0" len="84" vol="34" />
          <note key="84" pos="1080" pan="0" len="72" vol="100" />
          <note key="86" pos="1944" pan="0" len="72" vol="100" />
          <note key="84" pos="2016" pan="0" len="84" vol="34" />
          <note key="82" pos="2232" pan="0" len="72" vol="100" />
        </pattern>
        <pattern pos="120576" muted="0" steps="16" name="" type="1">
          <note key="88" pos="216" pan="0" len="72" vol="100" />
          <note key="86" pos="288" pan="0" len="72" vol="34" />
          <note key="88" pos="504" pan="0" len="72" vol="50" />
          <note key="88" pos="792" pan="0" len="72" vol="100" />
          <note key="86" pos="864" pan="0" len="84" vol="34" />
          <note key="84" pos="1080" pan="0" len="72" vol="100" />
          <note key="86" pos="1944" pan="0" len="72" vol="100" />
          <note key="84" pos="2016" pan="0" len="84" vol="34" />
          <note key="82" pos="2232" pan="0" len="72" vol="100" />
        </pattern>
      </track>
      <track solo="0" name="3 (Ch5)" type="0" muted="0">
        <instrumenttrack usemasterpitch="1" pitch="0.0" basenote="57" pan="0" pitchrange="12" vol="30">
          <eldata />
          <instrument name="tripleoscillator" />
        </instrumenttrack>
        <pattern pos="274140" muted="0" steps="16" name="" type="1">
          <note key="56" pos="0" pan="0" len="36" vol="100" />
        </pattern>
        <pattern pos="53760" muted="0" steps="16" name="" type="1">
          <note key="73" pos="432" pan="0" len="96" vol="100" />
        </pattern>
      </track>
      <track solo="0" name="3 (Ch6)" type="0" muted="0">
        <instrumenttrack usemasterpitch="1" pitch="0.0" basenote="57" pan="0" pitchrange="12" vol="30">
          <eldata />
          <instrument name="tripleoscillator" />
        </instrumenttrack>
        <pattern pos="206604" muted="0" steps="16" name="" type="1">
          <note key="72" pos="1344" pan="0" len="96" vol="100" />
          <note key="72" pos="1440" pan="0" len="48" vol="100" />
          <note key="77" pos="1488" pan="0" len="48" vol="100" />
        </pattern>
        <pattern pos="52224" muted="0" steps="16" name="" type="1">
          <note key="76" pos="24" pan="0" len="36" vol="100" />
          <note key="76" pos="120" pan="0" len="36" vol="100" />
          <note key="76" pos="216" pan="0" len="36" vol="100" />
          <note key="76" pos="312" pan="0" len="36" vol="100" />
          <note key="70" pos="408" pan="0" len="36" vol="100" />
          <note key="70" pos="504" pan="0" len="36" vol="100" />
          <note key="71" pos="600" pan="0" len="36" vol="100" />
          <note key="71" pos="696" pan="0" len="36" vol="100" />
          <note key="70" pos="792" pan="0" len="36" vol="100" />
          <note key="70" pos="888" pan="0" len="36" vol="100" />
          <note key="73" pos="984" pan="0" len="36" vol="100" />
          <note key="73" pos="1080" pan="0" len="36" vol="100" />
          <note key="72" pos="1176" pan="0" len="36" vol="100" />
          <note key="72" pos="1272" pan="0" len="36" vol="100" />
          <note key="73" pos="1368" pan="0" len="36" vol="100" />
          <note key="73" pos="1464" pan="0" len="36" vol="100" />
        </pattern>
        <pattern pos="53760" muted="0" steps="16" name="" type="1">
          <note key="76" pos="432" pan="0" len="96" vol="100" />
        </pattern>
      </track>
      <track solo="0" name="3 (Ch7)" type="0" muted="0">
        <instrumenttrack usemasterpitch="1" pitch="0.0" basenote="57" pan="0" pitchrange="12" vol="30">
          <eldata />
          <instrument name="tripleoscillator" />
        </instrumenttrack>
        <pattern pos="206604" muted="0" steps="16" name="" type="1">
          <note key="75" pos="1344" pan="0" len="96" vol="100" />
          <note key="75" pos="1440" pan="0" len="48" vol="100" />
          <note key="82" pos="1488" pan="0" len="48" vol="100" />
        </pattern>
        <pattern pos="52224" muted="0" steps="16" name="" type="1">
          <note key="73" pos="24" pan="0" len="36" vol="100" />
          <note key="73" pos="120" pan="0" len="36" vol="100" />
          <note key="79" pos="216" pan="0" len="36" vol="100" />
          <note key="79" pos="312" pan="0" len="36" vol="100" />
          <note key="74" pos="408" pan="0" len="36" vol="100" />
          <note key="74" pos="504" pan="0" len="36" vol="100" />
          <note key="74" pos="600" pan="0" len="36" vol="100" />
          <note key="74" pos="696" pan="0" len="36" vol="100" />
          <note key="74" pos="792" pan="0" len="36" vol="100" />
          <note key="74" pos="888" pan="0" len="36" vol="100" />
          <note key="77" pos="984" pan="0" len="36" vol="100" />
          <note key="77" pos="1080" pan="0" len="36" vol="100" />
          <note key="76" pos="1176" pan="0" len="36" vol="100" />
          <note key="76" pos="1272" pan="0" len="36" vol="100" />
          <note key="76" pos="1368" pan="0" len="36" vol="100" />
          <note key="76" pos="1464" pan="0" len="36" vol="100" />
        </pattern>
        <pattern pos="53760" muted="0" steps="16" name="" type="1">
          <note key="81" pos="432" pan="0" len="96" vol="100" />
        </pattern>
      </track>
      <track solo="0" name="3 (Ch8)" type="0" muted="0">
        <instrumenttrack usemasterpitch="1" pitch="0.0" basenote="57" pan="0" pitchrange="12" vol="30">
          <eldata />
          <instrument name="tripleoscillator" />
        </instrumenttrack>
        <pattern pos="280476" muted="0" steps="16" name="" type="1">
          <note key="61" pos="0" pan="0" len="432" vol="16" />
        </pattern>
        <pattern pos="12288" muted="0" steps="16" name="" type="1">
          <note key="82" pos="1728" pan="0" len="192" vol="52" />
          <note key="84" pos="1920" pan="0" len="192" vol="69" />
          <note key="82" pos="2112" pan="0" len="192" vol="52" />
          <note key="80" pos="2304" pan="0" len="192" vol="34" />
          <note key="82" pos="2496" pan="0" len="192" vol="69" />
          <note key="75" pos="2688" pan="0" len="192" vol="100" />
        </pattern>
        <pattern pos="52224" muted="0" steps="16" name="" type="1">
          <note key="81" pos="24" pan="0" len="36" vol="100" />
          <note key="81" pos="120" pan="0" len="36" vol="100" />
          <note key="72" pos="216" pan="0" len="36" vol="100" />
          <note key="72" pos="312" pan="0" len="36" vol="100" />
          <note key="77" pos="408" pan="0" len="36" vol="100" />
          <note key="77" pos="504" pan="0" len="36" vol="100" />
          <note key="79" pos="600" pan="0" len="36" vol="100" />
          <note key="79" pos="696" pan="0" len="36" vol="100" />
          <note key="77" pos="792" pan="0" len="36" vol="100" />
          <note key="77" pos="888" pan="0" len="36" vol="100" />
          <note key="80" pos="984" pan="0" len="36" vol="100" />
          <note key="80" pos="1080" pan="0" len="36" vol="100" />
          <note key="79" pos="1176" pan="0" len="36" vol="100" />
          <note key="79" pos="1272" pan="0" len="36" vol="100" />
          <note key="81" pos="1368" pan="0" len="36" vol="100" />
          <note key="81" pos="1464" pan="0" len="36" vol="100" />
        </pattern>
        <pattern pos="122892" muted="0" steps="16" name="" type="1">
          <note key="48" pos="0" pan="0" len="48" vol="100" />
          <note key="48" pos="384" pan="0" len="48" vol="100" />
        </pattern>
        <pattern pos="165900" muted="0" steps="16" name="" type="1">
          <note key="48" pos="0" pan="0" len="108" vol="100" />
        </pattern>
        <pattern pos="185100" muted="0" steps="16" name="" type="1">
          <note key="72" pos="0" pan="0" len="288" vol="100" />
          <note key="71" pos="288" pan="0" len="24" vol="100" />
          <note key="72" pos="312" pan="0" len="24" vol="100" />
          <note key="74" pos="336" pan="0" len="24" vol="100" />
          <note key="71" pos="360" pan="0" len="24" vol="100" />
          <note key="72" pos="384" pan="0" len="12" vol="100" />
          <note key="69" pos="408" pan="0" len="12" vol="100" />
          <note key="79" pos="768" pan="0" len="288" vol="100" />
          <note key="78" pos="1056" pan="0" len="24" vol="100" />
          <note key="79" pos="1080" pan="0" len="24" vol="100" />
          <note key="81" pos="1104" pan="0" len="24" vol="100" />
          <note key="78" pos="1128" pan="0" len="24" vol="100" />
          <note key="79" pos="1152" pan="0" len="12" vol="100" />
          <note key="76" pos="1176" pan="0" len="12" vol="100" />
        </pattern>
        <pattern pos="206604" muted="0" steps="16" name="" type="1">
          <note key="80" pos="1344" pan="0" len="96" vol="100" />
          <note key="82" pos="1440" pan="0" len="48" vol="100" />
          <note key="86" pos="1488" pan="0" len="48" vol="100" />
        </pattern>
      </track>
      <track solo="0" name="3 (Ch9)" type="0" muted="0">
        <instrumenttrack usemasterpitch="1" pitch="0.0" basenote="57" pan="0" pitchrange="12" vol="30">
          <eldata />
          <instrument name="tripleoscillator" />
        </instrumenttrack>
        <pattern pos="280476" muted="0" steps="16" name="" type="1">
          <note key="65" pos="0" pan="0" len="144" vol="16" />
        </pattern>
        <pattern pos="12288" muted="0" steps="16" name="" type="1">
          <note key="86" pos="1728" pan="0" len="192" vol="52" />
          <note key="87" pos="1920" pan="0" len="192" vol="69" />
          <note key="86" pos="2112" pan="0" len="192" vol="52" />
          <note key="84" pos="2304" pan="0" len="192" vol="34" />
          <note key="86" pos="2496" pan="0" len="192" vol="69" />
          <note key="79" pos="2688" pan="0" len="192" vol="100" />
        </pattern>
        <pattern pos="185100" muted="0" steps="16" name="" type="1">
          <note key="84" pos="0" pan="0" len="288" vol="100" />
          <note key="83" pos="288" pan="0" len="24" vol="100" />
          <note key="84" pos="312" pan="0" len="24" vol="100" />
          <note key="86" pos="336" pan="0" len="24" vol="100" />
          <note key="83" pos="360" pan="0" len="24" vol="100" />
          <note key="84" pos="384" pan="0" len="12" vol="100" />
          <note key="81" pos="408" pan="0" len="12" vol="100" />
          <note key="91" pos="768" pan="0" len="288" vol="100" />
          <note key="90" pos="1056" pan="0" len="24" vol="100" />
          <note key="91" pos="1080" pan="0" len="24" vol="100" />
          <note key="93" pos="1104" pan="0" len="24" vol="100" />
          <note key="90" pos="1128" pan="0" len="24" vol="100" />
          <note key="91" pos="1152" pan="0" len="12" vol="100" />
          <note key="88" pos="1176" pan="0" len="12" vol="100" />
        </pattern>
        <pattern pos="214284" muted="0" steps="16" name="" type="1">
          <note key="72" pos="1344" pan="0" len="96" vol="100" />
          <note key="72" pos="1440" pan="0" len="48" vol="100" />
          <note key="77" pos="1488" pan="0" len="48" vol="100" />
        </pattern>
        <pattern pos="268044" muted="0" steps="16" name="" type="1">
          <note key="70" pos="24" pan="0" len="24" vol="100" />
          <note key="69" pos="96" pan="0" len="36" vol="100" />
          <note key="79" pos="216" pan="0" len="120" vol="100" />
          <note key="82" pos="360" pan="0" len="36" vol="100" />
        </pattern>
      </track>
      <track solo="0" name="3 (Ch10)" type="0" muted="0">
        <instrumenttrack usemasterpitch="1" pitch="0.0" basenote="57" pan="0" pitchrange="12" vol="30">
          <eldata />
          <instrument name="tripleoscillator" />
        </instrumenttrack>
        <pattern pos="280476" muted="0" steps="16" name="" type="1">
          <note key="68" pos="0" pan="0" len="144" vol="16" />
        </pattern>
        <pattern pos="12288" muted="0" steps="16" name="" type="1">
          <note key="89" pos="1728" pan="0" len="192" vol="52" />
          <note key="92" pos="1920" pan="0" len="192" vol="69" />
          <note key="89" pos="2112" pan="0" len="192" vol="52" />
          <note key="89" pos="2304" pan="0" len="192" vol="34" />
          <note key="89" pos="2496" pan="0" len="192" vol="69" />
          <note key="84" pos="2688" pan="0" len="192" vol="100" />
        </pattern>
        <pattern pos="214284" muted="0" steps="16" name="" type="1">
          <note key="75" pos="1344" pan="0" len="96" vol="100" />
          <note key="75" pos="1440" pan="0" len="48" vol="100" />
          <note key="82" pos="1488" pan="0" len="48" vol="100" />
        </pattern>
        <pattern pos="267276" muted="0" steps="16" name="" type="1">
          <note key="82" pos="24" pan="0" len="24" vol="100" />
          <note key="81" pos="96" pan="0" len="24" vol="100" />
          <note key="79" pos="216" pan="0" len="24" vol="100" />
          <note key="77" pos="288" pan="0" len="24" vol="100" />
        </pattern>
        <pattern pos="268044" muted="0" steps="16" name="" type="1">
          <note key="74" pos="24" pan="0" len="24" vol="100" />
          <note key="74" pos="96" pan="0" len="36" vol="100" />
          <note key="82" pos="216" pan="0" len="120" vol="100" />
          <note key="86" pos="360" pan="0" len="36" vol="100" />
        </pattern>
      </track>
      <track solo="0" name="3 (Ch11)" type="0" muted="0">
        <instrumenttrack usemasterpitch="1" pitch="0.0" basenote="57" pan="0" pitchrange="12" vol="30">
          <eldata />
          <instrument name="tripleoscillator" />
        </instrumenttrack>
        <pattern pos="280476" muted="0" steps="16" name="" type="1">
          <note key="73" pos="0" pan="0" len="420" vol="16" />
        </pattern>
        <pattern pos="54528" muted="0" steps="16" name="" type="1">
          <note key="71" pos="0" pan="0" len="24" vol="100" />
        </pattern>
        <pattern pos="69120" muted="0" steps="16" name="" type="1">
          <note key="83" pos="864" pan="0" len="48" vol="100" />
          <note key="81" pos="936" pan="0" len="48" vol="100" />
        </pattern>
        <pattern pos="71424" muted="0" steps="16" name="" type="1">
          <note key="83" pos="864" pan="0" len="48" vol="100" />
          <note key="81" pos="936" pan="0" len="48" vol="100" />
        </pattern>
        <pattern pos="80640" muted="0" steps="16" name="" type="1">
          <note key="83" pos="864" pan="0" len="48" vol="100" />
          <note key="81" pos="936" pan="0" len="48" vol="100" />
        </pattern>
        <pattern pos="82944" muted="0" steps="16" name="" type="1">
          <note key="83" pos="864" pan="0" len="48" vol="100" />
          <note key="81" pos="936" pan="0" len="48" vol="100" />
        </pattern>
        <pattern pos="169740" muted="0" steps="16" name="" type="1">
          <note key="75" pos="1728" pan="0" len="144" vol="100" />
          <note key="77" pos="1920" pan="0" len="144" vol="100" />
        </pattern>
        <pattern pos="214284" muted="0" steps="16" name="" type="1">
          <note key="80" pos="1344" pan="0" len="96" vol="100" />
          <note key="82" pos="1440" pan="0" len="48" vol="100" />
          <note key="86" pos="1488" pan="0" len="48" vol="100" />
        </pattern>
        <pattern pos="267276" muted="0" steps="16" name="" type="1">
          <note key="86" pos="24" pan="0" len="24" vol="100" />
          <note key="84" pos="96" pan="0" len="24" vol="100" />
          <note key="82" pos="216" pan="0" len="24" vol="100" />
          <note key="81" pos="288" pan="0" len="24" vol="100" />
          <note key="86" pos="456" pan="0" len="36" vol="100" />
        </pattern>
        <pattern pos="268044" muted="0" steps="16" name="" type="1">
          <note key="79" pos="24" pan="0" len="24" vol="100" />
          <note key="78" pos="96" pan="0" len="36" vol="100" />
          <note key="87" pos="216" pan="0" len="120" vol="100" />
          <note key="91" pos="360" pan="0" len="36" vol="100" />
        </pattern>
      </track>
      <track solo="0" name="3 (Ch12)" type="0" muted="0">
        <instrumenttrack usemasterpitch="1" pitch="0.0" basenote="57" pan="0" pitchrange="12" vol="30">
          <eldata />
          <instrument name="tripleoscillator" />
        </instrumenttrack>
        <pattern pos="267276" muted="0" steps="16" name="" type="1">
          <note key="91" pos="24" pan="0" len="24" vol="100" />
          <note key="89" pos="96" pan="0" len="24" vol="100" />
          <note key="86" pos="216" pan="0" len="24" vol="100" />
          <note key="84" pos="288" pan="0" len="24" vol="100" />
          <note key="91" pos="456" pan="0" len="36" vol="100" />
        </pattern>
        <pattern pos="54528" muted="0" steps="16" name="" type="1">
          <note key="74" pos="0" pan="0" len="24" vol="100" />
        </pattern>
        <pattern pos="59904" muted="0" steps="16" name="" type="1">
          <note key="81" pos="72" pan="0" len="72" vol="100" />
          <note key="81" pos="144" pan="0" len="72" vol="100" />
          <note key="79" pos="216" pan="0" len="60" vol="100" />
        </pattern>
        <pattern pos="62208" muted="0" steps="16" name="" type="1">
          <note key="81" pos="432" pan="0" len="72" vol="69" />
          <note key="79" pos="504" pan="0" len="72" vol="52" />
          <note key="81" pos="1008" pan="0" len="72" vol="69" />
          <note key="79" pos="1080" pan="0" len="72" vol="52" />
        </pattern>
        <pattern pos="69120" muted="0" steps="16" name="" type="1">
          <note key="86" pos="864" pan="0" len="48" vol="100" />
          <note key="86" pos="936" pan="0" len="48" vol="100" />
        </pattern>
        <pattern pos="71424" muted="0" steps="16" name="" type="1">
          <note key="86" pos="864" pan="0" len="48" vol="100" />
          <note key="86" pos="936" pan="0" len="48" vol="100" />
        </pattern>
        <pattern pos="80640" muted="0" steps="16" name="" type="1">
          <note key="86" pos="864" pan="0" len="48" vol="100" />
          <note key="86" pos="936" pan="0" len="48" vol="100" />
        </pattern>
        <pattern pos="82944" muted="0" steps="16" name="" type="1">
          <note key="86" pos="864" pan="0" len="48" vol="100" />
          <note key="86" pos="936" pan="0" len="48" vol="100" />
        </pattern>
        <pattern pos="169740" muted="0" steps="16" name="" type="1">
          <note key="80" pos="1728" pan="0" len="144" vol="100" />
          <note key="82" pos="1920" pan="0" len="144" vol="100" />
        </pattern>
      </track>
      <track solo="0" name="3 (Ch13)" type="0" muted="0">
        <instrumenttrack usemasterpitch="1" pitch="0.0" basenote="57" pan="0" pitchrange="12" vol="30">
          <eldata />
          <instrument name="tripleoscillator" />
        </instrumenttrack>
        <pattern pos="169740" muted="0" steps="16" name="" type="1">
          <note key="84" pos="1728" pan="0" len="144" vol="100" />
          <note key="86" pos="1920" pan="0" len="144" vol="100" />
        </pattern>
        <pattern pos="54528" muted="0" steps="16" name="" type="1">
          <note key="79" pos="0" pan="0" len="24" vol="100" />
        </pattern>
        <pattern pos="59904" muted="0" steps="16" name="" type="1">
          <note key="86" pos="72" pan="0" len="72" vol="100" />
          <note key="84" pos="144" pan="0" len="72" vol="100" />
          <note key="83" pos="216" pan="0" len="60" vol="100" />
        </pattern>
        <pattern pos="62208" muted="0" steps="16" name="" type="1">
          <note key="84" pos="432" pan="0" len="72" vol="69" />
          <note key="84" pos="504" pan="0" len="72" vol="52" />
          <note key="84" pos="1008" pan="0" len="72" vol="69" />
          <note key="84" pos="1080" pan="0" len="72" vol="52" />
        </pattern>
        <pattern pos="69120" muted="0" steps="16" name="" type="1">
          <note key="91" pos="864" pan="0" len="48" vol="100" />
          <note key="89" pos="936" pan="0" len="48" vol="100" />
        </pattern>
        <pattern pos="71424" muted="0" steps="16" name="" type="1">
          <note key="91" pos="864" pan="0" len="48" vol="100" />
          <note key="89" pos="936" pan="0" len="48" vol="100" />
        </pattern>
        <pattern pos="80640" muted="0" steps="16" name="" type="1">
          <note key="91" pos="864" pan="0" len="48" vol="100" />
          <note key="89" pos="936" pan="0" len="48" vol="100" />
        </pattern>
        <pattern pos="82944" muted="0" steps="16" name="" type="1">
          <note key="91" pos="864" pan="0" len="48" vol="100" />
          <note key="89" pos="936" pan="0" len="48" vol="100" />
        </pattern>
        <pattern pos="101376" muted="0" steps="16" name="" type="1">
          <note key="70" pos="1152" pan="0" len="192" vol="0" />
          <note key="67" pos="1344" pan="0" len="192" vol="100" />
        </pattern>
        <pattern pos="104448" muted="0" steps="16" name="" type="1">
          <note key="70" pos="1152" pan="0" len="192" vol="0" />
          <note key="67" pos="1344" pan="0" len="192" vol="100" />
        </pattern>
      </track>
      <track solo="0" name="3 (Ch14)" type="0" muted="0">
        <instrumenttrack usemasterpitch="1" pitch="0.0" basenote="57" pan="0" pitchrange="12" vol="30">
          <eldata />
          <instrument name="tripleoscillator" />
        </instrumenttrack>
        <pattern pos="270540" muted="0" steps="16" name="" type="1">
          <note key="77" pos="0" pan="0" len="144" vol="16" />
          <note key="73" pos="144" pan="0" len="144" vol="16" />
          <note key="68" pos="288" pan="0" len="144" vol="16" />
          <note key="71" pos="432" pan="0" len="144" vol="16" />
          <note key="77" pos="576" pan="0" len="144" vol="16" />
          <note key="73" pos="720" pan="0" len="144" vol="16" />
          <note key="68" pos="864" pan="0" len="144" vol="16" />
          <note key="56" pos="1008" pan="0" len="144" vol="16" />
        </pattern>
        <pattern pos="59904" muted="0" steps="16" name="" type="1">
          <note key="89" pos="72" pan="0" len="72" vol="100" />
          <note key="89" pos="144" pan="0" len="72" vol="100" />
          <note key="86" pos="216" pan="0" len="60" vol="100" />
        </pattern>
        <pattern pos="62208" muted="0" steps="16" name="" type="1">
          <note key="89" pos="432" pan="0" len="72" vol="69" />
          <note key="88" pos="504" pan="0" len="72" vol="52" />
          <note key="89" pos="1008" pan="0" len="72" vol="69" />
          <note key="88" pos="1080" pan="0" len="72" vol="52" />
        </pattern>
        <pattern pos="101376" muted="0" steps="16" name="" type="1">
          <note key="74" pos="1152" pan="0" len="192" vol="0" />
          <note key="72" pos="1344" pan="0" len="192" vol="100" />
        </pattern>
        <pattern pos="104448" muted="0" steps="16" name="" type="1">
          <note key="74" pos="1152" pan="0" len="192" vol="0" />
          <note key="72" pos="1344" pan="0" len="192" vol="100" />
        </pattern>
      </track>
      <track solo="0" name="3 (Ch15)" type="0" muted="0">
        <instrumenttrack usemasterpitch="1" pitch="0.0" basenote="57" pan="0" pitchrange="12" vol="30">
          <eldata />
          <instrument name="tripleoscillator" />
        </instrumenttrack>
        <pattern pos="270540" muted="0" steps="16" name="" type="1">
          <note key="70" pos="0" pan="0" len="144" vol="16" />
          <note key="68" pos="144" pan="0" len="144" vol="16" />
          <note key="72" pos="288" pan="0" len="144" vol="16" />
          <note key="75" pos="432" pan="0" len="144" vol="16" />
          <note key="70" pos="576" pan="0" len="144" vol="16" />
          <note key="68" pos="720" pan="0" len="144" vol="16" />
          <note key="72" pos="864" pan="0" len="144" vol="16" />
          <note key="63" pos="1008" pan="0" len="144" vol="16" />
        </pattern>
        <pattern pos="101376" muted="0" steps="16" name="" type="1">
          <note key="77" pos="1152" pan="0" len="192" vol="0" />
          <note key="76" pos="1344" pan="0" len="192" vol="100" />
        </pattern>
        <pattern pos="104448" muted="0" steps="16" name="" type="1">
          <note key="77" pos="1152" pan="0" len="192" vol="0" />
          <note key="76" pos="1344" pan="0" len="192" vol="100" />
        </pattern>
      </track>
      <track solo="0" name="3 (Ch16)" type="0" muted="0">
        <instrumenttrack usemasterpitch="1" pitch="0.0" basenote="57" pan="0" pitchrange="12" vol="30">
          <eldata />
          <instrument name="tripleoscillator" />
        </instrumenttrack>
        <pattern pos="270540" muted="0" steps="16" name="" type="1">
          <note key="75" pos="0" pan="0" len="144" vol="16" />
          <note key="65" pos="144" pan="0" len="144" vol="16" />
          <note key="75" pos="288" pan="0" len="144" vol="16" />
          <note key="65" pos="432" pan="0" len="144" vol="16" />
          <note key="75" pos="576" pan="0" len="144" vol="16" />
          <note key="65" pos="720" pan="0" len="144" vol="16" />
          <note key="75" pos="864" pan="0" len="144" vol="16" />
          <note key="68" pos="1008" pan="0" len="144" vol="16" />
        </pattern>
      </track>
      <track solo="0" name="3 (Ch20)" type="0" muted="0">
        <instrumenttrack usemasterpitch="1" pitch="0.0" basenote="57" pan="0" pitchrange="12" vol="30">
          <eldata />
          <instrument name="tripleoscillator" />
        </instrumenttrack>
        <pattern pos="97536" muted="0" steps="16" name="" type="1">
          <note key="62" pos="0" pan="0" len="768" vol="0" />
        </pattern>
      </track>
      <track solo="0" name="4 (Ch1)" type="0" muted="0">
        <instrumenttrack usemasterpitch="1" pitch="0.0" basenote="57" pan="0" pitchrange="12" vol="30">
          <eldata />
          <instrument name="tripleoscillator" />
        </instrumenttrack>
        <pattern pos="30720" muted="0" steps="16" name="" type="1">
          <note key="48" pos="0" pan="0" len="192" vol="100" />
          <note key="51" pos="192" pan="0" len="96" vol="100" />
          <note key="55" pos="288" pan="0" len="48" vol="100" />
          <note key="58" pos="336" pan="0" len="48" vol="100" />
          <note key="48" pos="384" pan="0" len="192" vol="100" />
          <note key="51" pos="576" pan="0" len="96" vol="100" />
          <note key="55" pos="672" pan="0" len="96" vol="100" />
        </pattern>
      </track>
      <track solo="0" name="4 (Ch2)" type="0" muted="0">
        <instrumenttrack usemasterpitch="1" pitch="0.0" basenote="57" pan="0" pitchrange="12" vol="30">
          <eldata />
          <instrument name="tripleoscillator" />
        </instrumenttrack>
        <pattern pos="236556" muted="0" steps="16" name="" type="1">
          <note key="77" pos="0" pan="0" len="180" vol="17" />
        </pattern>
        <pattern pos="15360" muted="0" steps="16" name="" type="1">
          <note key="75" pos="0" pan="0" len="192" vol="59" />
          <note key="72" pos="192" pan="0" len="192" vol="59" />
          <note key="72" pos="384" pan="0" len="192" vol="59" />
          <note key="70" pos="576" pan="0" len="192" vol="59" />
          <note key="75" pos="768" pan="0" len="192" vol="59" />
          <note key="72" pos="960" pan="0" len="192" vol="59" />
          <note key="72" pos="1152" pan="0" len="192" vol="59" />
          <note key="70" pos="1344" pan="0" len="192" vol="59" />
        </pattern>
        <pattern pos="16896" muted="0" steps="16" name="" type="1">
          <note key="75" pos="0" pan="0" len="192" vol="59" />
          <note key="72" pos="192" pan="0" len="192" vol="59" />
          <note key="72" pos="384" pan="0" len="192" vol="59" />
          <note key="70" pos="576" pan="0" len="192" vol="59" />
          <note key="75" pos="768" pan="0" len="192" vol="59" />
          <note key="72" pos="960" pan="0" len="192" vol="59" />
          <note key="72" pos="1152" pan="0" len="192" vol="59" />
          <note key="70" pos="1344" pan="0" len="192" vol="59" />
        </pattern>
        <pattern pos="18432" muted="0" steps="16" name="" type="1">
          <note key="75" pos="0" pan="0" len="192" vol="59" />
          <note key="72" pos="192" pan="0" len="192" vol="59" />
          <note key="72" pos="384" pan="0" len="192" vol="59" />
          <note key="70" pos="576" pan="0" len="192" vol="59" />
          <note key="75" pos="768" pan="0" len="192" vol="59" />
          <note key="72" pos="960" pan="0" len="192" vol="59" />
          <note key="72" pos="1152" pan="0" len="192" vol="59" />
          <note key="70" pos="1344" pan="0" len="192" vol="59" />
        </pattern>
        <pattern pos="33792" muted="0" steps="16" name="" type="1">
          <note key="79" pos="0" pan="0" len="96" vol="89" />
          <note key="70" pos="96" pan="0" len="96" vol="89" />
          <note key="67" pos="192" pan="0" len="192" vol="89" />
          <note key="79" pos="384" pan="0" len="96" vol="89" />
          <note key="70" pos="480" pan="0" len="96" vol="89" />
          <note key="67" pos="576" pan="0" len="192" vol="89" />
          <note key="79" pos="768" pan="0" len="96" vol="89" />
          <note key="70" pos="864" pan="0" len="96" vol="89" />
          <note key="67" pos="960" pan="0" len="192" vol="89" />
          <note key="79" pos="1152" pan="0" len="96" vol="89" />
          <note key="70" pos="1248" pan="0" len="96" vol="89" />
          <note key="67" pos="1344" pan="0" len="120" vol="89" />
        </pattern>
        <pattern pos="115968" muted="0" steps="16" name="" type="1">
          <note key="82" pos="0" pan="0" len="144" vol="34" />
          <note key="82" pos="144" pan="0" len="72" vol="100" />
          <note key="79" pos="432" pan="0" len="72" vol="100" />
          <note key="82" pos="576" pan="0" len="144" vol="100" />
          <note key="82" pos="720" pan="0" len="72" vol="100" />
          <note key="81" pos="1008" pan="0" len="72" vol="100" />
          <note key="77" pos="1152" pan="0" len="84" vol="34" />
          <note key="80" pos="1728" pan="0" len="144" vol="100" />
          <note key="80" pos="1872" pan="0" len="72" vol="100" />
          <note key="79" pos="2160" pan="0" len="72" vol="100" />
        </pattern>
        <pattern pos="120576" muted="0" steps="16" name="" type="1">
          <note key="82" pos="0" pan="0" len="144" vol="34" />
          <note key="82" pos="144" pan="0" len="72" vol="100" />
          <note key="79" pos="432" pan="0" len="72" vol="100" />
          <note key="82" pos="576" pan="0" len="144" vol="100" />
          <note key="82" pos="720" pan="0" len="72" vol="100" />
          <note key="81" pos="1008" pan="0" len="72" vol="100" />
          <note key="77" pos="1152" pan="0" len="84" vol="34" />
          <note key="80" pos="1728" pan="0" len="144" vol="100" />
          <note key="80" pos="1872" pan="0" len="72" vol="100" />
          <note key="79" pos="2160" pan="0" len="72" vol="100" />
        </pattern>
        <pattern pos="221196" muted="0" steps="16" name="" type="1">
          <note key="77" pos="0" pan="0" len="1536" vol="17" />
        </pattern>
        <pattern pos="222732" muted="0" steps="16" name="" type="1">
          <note key="77" pos="0" pan="0" len="192" vol="59" />
          <note key="75" pos="192" pan="0" len="96" vol="59" />
          <note key="78" pos="288" pan="0" len="60" vol="59" />
          <note key="82" pos="384" pan="0" len="192" vol="59" />
          <note key="85" pos="576" pan="0" len="96" vol="59" />
          <note key="75" pos="672" pan="0" len="48" vol="59" />
          <note key="77" pos="768" pan="0" len="192" vol="59" />
          <note key="75" pos="960" pan="0" len="96" vol="59" />
          <note key="78" pos="1056" pan="0" len="60" vol="59" />
          <note key="82" pos="1152" pan="0" len="144" vol="59" />
          <note key="85" pos="1344" pan="0" len="96" vol="59" />
          <note key="75" pos="1440" pan="0" len="48" vol="59" />
        </pattern>
        <pattern pos="224268" muted="0" steps="16" name="" type="1">
          <note key="77" pos="0" pan="0" len="192" vol="17" />
          <note key="79" pos="192" pan="0" len="192" vol="100" />
          <note key="77" pos="384" pan="0" len="384" vol="50" />
          <note key="77" pos="768" pan="0" len="192" vol="17" />
          <note key="79" pos="960" pan="0" len="192" vol="100" />
          <note key="77" pos="1152" pan="0" len="192" vol="50" />
          <note key="79" pos="1344" pan="0" len="120" vol="100" />
        </pattern>
        <pattern pos="225804" muted="0" steps="16" name="" type="1">
          <note key="77" pos="0" pan="0" len="132" vol="100" />
          <note key="75" pos="192" pan="0" len="96" vol="100" />
          <note key="78" pos="288" pan="0" len="60" vol="100" />
          <note key="82" pos="384" pan="0" len="144" vol="100" />
          <note key="85" pos="576" pan="0" len="96" vol="100" />
          <note key="75" pos="672" pan="0" len="48" vol="100" />
          <note key="77" pos="768" pan="0" len="144" vol="100" />
          <note key="77" pos="960" pan="0" len="96" vol="100" />
          <note key="78" pos="1056" pan="0" len="60" vol="100" />
          <note key="82" pos="1152" pan="0" len="144" vol="100" />
          <note key="85" pos="1344" pan="0" len="96" vol="100" />
          <note key="75" pos="1440" pan="0" len="48" vol="100" />
        </pattern>
        <pattern pos="230412" muted="0" steps="16" name="" type="1">
          <note key="77" pos="0" pan="0" len="192" vol="17" />
          <note key="79" pos="192" pan="0" len="192" vol="100" />
          <note key="77" pos="384" pan="0" len="384" vol="50" />
          <note key="77" pos="768" pan="0" len="192" vol="17" />
          <note key="79" pos="960" pan="0" len="192" vol="100" />
          <note key="77" pos="1152" pan="0" len="192" vol="50" />
          <note key="79" pos="1344" pan="0" len="120" vol="100" />
        </pattern>
        <pattern pos="231948" muted="0" steps="16" name="" type="1">
          <note key="77" pos="0" pan="0" len="192" vol="59" />
          <note key="75" pos="192" pan="0" len="96" vol="59" />
          <note key="78" pos="288" pan="0" len="60" vol="59" />
          <note key="82" pos="384" pan="0" len="192" vol="59" />
          <note key="85" pos="576" pan="0" len="96" vol="59" />
          <note key="75" pos="672" pan="0" len="48" vol="59" />
          <note key="77" pos="768" pan="0" len="192" vol="59" />
          <note key="75" pos="960" pan="0" len="96" vol="59" />
          <note key="78" pos="1056" pan="0" len="60" vol="59" />
          <note key="82" pos="1152" pan="0" len="144" vol="59" />
          <note key="85" pos="1344" pan="0" len="96" vol="59" />
          <note key="75" pos="1440" pan="0" len="48" vol="59" />
        </pattern>
        <pattern pos="235020" muted="0" steps="16" name="" type="1">
          <note key="77" pos="0" pan="0" len="192" vol="70" />
          <note key="75" pos="192" pan="0" len="192" vol="70" />
          <note key="75" pos="384" pan="0" len="192" vol="70" />
          <note key="77" pos="576" pan="0" len="192" vol="70" />
          <note key="82" pos="768" pan="0" len="192" vol="70" />
          <note key="70" pos="960" pan="0" len="192" vol="70" />
          <note key="72" pos="1152" pan="0" len="192" vol="70" />
          <note key="75" pos="1344" pan="0" len="96" vol="70" />
          <note key="73" pos="1440" pan="0" len="96" vol="70" />
        </pattern>
      </track>
      <track solo="0" name="4 (Ch3)" type="0" muted="0">
        <instrumenttrack usemasterpitch="1" pitch="0.0" basenote="57" pan="0" pitchrange="12" vol="30">
          <eldata />
          <instrument name="tripleoscillator" />
        </instrumenttrack>
        <pattern pos="236556" muted="0" steps="16" name="" type="1">
          <note key="82" pos="0" pan="0" len="180" vol="17" />
        </pattern>
        <pattern pos="15360" muted="0" steps="16" name="" type="1">
          <note key="79" pos="0" pan="0" len="192" vol="59" />
          <note key="77" pos="192" pan="0" len="192" vol="59" />
          <note key="75" pos="384" pan="0" len="192" vol="59" />
          <note key="74" pos="576" pan="0" len="192" vol="59" />
          <note key="79" pos="768" pan="0" len="192" vol="59" />
          <note key="77" pos="960" pan="0" len="192" vol="59" />
          <note key="75" pos="1152" pan="0" len="192" vol="59" />
          <note key="74" pos="1344" pan="0" len="192" vol="59" />
        </pattern>
        <pattern pos="16896" muted="0" steps="16" name="" type="1">
          <note key="79" pos="0" pan="0" len="192" vol="59" />
          <note key="77" pos="192" pan="0" len="192" vol="59" />
          <note key="75" pos="384" pan="0" len="192" vol="59" />
          <note key="74" pos="576" pan="0" len="192" vol="59" />
          <note key="79" pos="768" pan="0" len="192" vol="59" />
          <note key="77" pos="960" pan="0" len="192" vol="59" />
          <note key="75" pos="1152" pan="0" len="192" vol="59" />
          <note key="74" pos="1344" pan="0" len="192" vol="59" />
        </pattern>
        <pattern pos="18432" muted="0" steps="16" name="" type="1">
          <note key="79" pos="0" pan="0" len="192" vol="59" />
          <note key="77" pos="192" pan="0" len="192" vol="59" />
          <note key="75" pos="384" pan="0" len="192" vol="59" />
          <note key="74" pos="576" pan="0" len="192" vol="59" />
          <note key="79" pos="768" pan="0" len="192" vol="59" />
          <note key="77" pos="960" pan="0" len="192" vol="59" />
          <note key="75" pos="1152" pan="0" len="192" vol="59" />
          <note key="74" pos="1344" pan="0" len="192" vol="59" />
        </pattern>
        <pattern pos="33792" muted="0" steps="16" name="" type="1">
          <note key="75" pos="0" pan="0" len="96" vol="89" />
          <note key="74" pos="96" pan="0" len="96" vol="89" />
          <note key="72" pos="192" pan="0" len="192" vol="89" />
          <note key="75" pos="384" pan="0" len="96" vol="89" />
          <note key="74" pos="480" pan="0" len="96" vol="89" />
          <note key="72" pos="576" pan="0" len="192" vol="89" />
          <note key="75" pos="768" pan="0" len="96" vol="89" />
          <note key="74" pos="864" pan="0" len="96" vol="89" />
          <note key="72" pos="960" pan="0" len="192" vol="89" />
          <note key="75" pos="1152" pan="0" len="96" vol="89" />
          <note key="74" pos="1248" pan="0" len="96" vol="89" />
          <note key="72" pos="1344" pan="0" len="120" vol="89" />
        </pattern>
        <pattern pos="115968" muted="0" steps="16" name="" type="1">
          <note key="91" pos="0" pan="0" len="144" vol="34" />
          <note key="86" pos="144" pan="0" len="72" vol="100" />
          <note key="86" pos="432" pan="0" len="72" vol="100" />
          <note key="91" pos="576" pan="0" len="144" vol="100" />
          <note key="86" pos="720" pan="0" len="72" vol="100" />
          <note key="86" pos="1008" pan="0" len="72" vol="100" />
          <note key="80" pos="1152" pan="0" len="84" vol="34" />
          <note key="89" pos="1728" pan="0" len="144" vol="100" />
          <note key="84" pos="1872" pan="0" len="72" vol="100" />
          <note key="84" pos="2160" pan="0" len="72" vol="100" />
        </pattern>
        <pattern pos="120576" muted="0" steps="16" name="" type="1">
          <note key="91" pos="0" pan="0" len="144" vol="34" />
          <note key="86" pos="144" pan="0" len="72" vol="100" />
          <note key="86" pos="432" pan="0" len="72" vol="100" />
          <note key="91" pos="576" pan="0" len="144" vol="100" />
          <note key="86" pos="720" pan="0" len="72" vol="100" />
          <note key="86" pos="1008" pan="0" len="72" vol="100" />
          <note key="80" pos="1152" pan="0" len="84" vol="34" />
          <note key="89" pos="1728" pan="0" len="144" vol="100" />
          <note key="84" pos="1872" pan="0" len="72" vol="100" />
          <note key="84" pos="2160" pan="0" len="72" vol="100" />
        </pattern>
        <pattern pos="157452" muted="0" steps="16" name="" type="1">
          <note key="73" pos="0" pan="0" len="144" vol="0" />
        </pattern>
        <pattern pos="221196" muted="0" steps="16" name="" type="1">
          <note key="82" pos="0" pan="0" len="1536" vol="17" />
        </pattern>
        <pattern pos="222732" muted="0" steps="16" name="" type="1">
          <note key="82" pos="0" pan="0" len="192" vol="59" />
          <note key="80" pos="192" pan="0" len="96" vol="59" />
          <note key="82" pos="288" pan="0" len="60" vol="59" />
          <note key="85" pos="384" pan="0" len="192" vol="59" />
          <note key="89" pos="576" pan="0" len="96" vol="59" />
          <note key="80" pos="672" pan="0" len="48" vol="59" />
          <note key="82" pos="768" pan="0" len="192" vol="59" />
          <note key="80" pos="960" pan="0" len="96" vol="59" />
          <note key="82" pos="1056" pan="0" len="60" vol="59" />
          <note key="85" pos="1152" pan="0" len="144" vol="59" />
          <note key="89" pos="1344" pan="0" len="96" vol="59" />
          <note key="80" pos="1440" pan="0" len="48" vol="59" />
        </pattern>
        <pattern pos="224268" muted="0" steps="16" name="" type="1">
          <note key="82" pos="0" pan="0" len="192" vol="17" />
          <note key="82" pos="192" pan="0" len="192" vol="100" />
          <note key="82" pos="384" pan="0" len="384" vol="50" />
          <note key="82" pos="768" pan="0" len="192" vol="17" />
          <note key="82" pos="960" pan="0" len="192" vol="100" />
          <note key="82" pos="1152" pan="0" len="192" vol="50" />
          <note key="82" pos="1344" pan="0" len="120" vol="100" />
        </pattern>
        <pattern pos="225804" muted="0" steps="16" name="" type="1">
          <note key="82" pos="0" pan="0" len="132" vol="100" />
          <note key="80" pos="192" pan="0" len="96" vol="100" />
          <note key="82" pos="288" pan="0" len="60" vol="100" />
          <note key="85" pos="384" pan="0" len="144" vol="100" />
          <note key="89" pos="576" pan="0" len="96" vol="100" />
          <note key="80" pos="672" pan="0" len="48" vol="100" />
          <note key="82" pos="768" pan="0" len="144" vol="100" />
          <note key="80" pos="960" pan="0" len="96" vol="100" />
          <note key="82" pos="1056" pan="0" len="60" vol="100" />
          <note key="85" pos="1152" pan="0" len="144" vol="100" />
          <note key="89" pos="1344" pan="0" len="96" vol="100" />
          <note key="80" pos="1440" pan="0" len="48" vol="100" />
        </pattern>
        <pattern pos="230412" muted="0" steps="16" name="" type="1">
          <note key="82" pos="0" pan="0" len="192" vol="17" />
          <note key="82" pos="192" pan="0" len="192" vol="100" />
          <note key="82" pos="384" pan="0" len="384" vol="50" />
          <note key="82" pos="768" pan="0" len="192" vol="17" />
          <note key="82" pos="960" pan="0" len="192" vol="100" />
          <note key="82" pos="1152" pan="0" len="192" vol="50" />
          <note key="82" pos="1344" pan="0" len="120" vol="100" />
        </pattern>
        <pattern pos="231948" muted="0" steps="16" name="" type="1">
          <note key="82" pos="0" pan="0" len="192" vol="59" />
          <note key="80" pos="192" pan="0" len="96" vol="59" />
          <note key="82" pos="288" pan="0" len="60" vol="59" />
          <note key="85" pos="384" pan="0" len="192" vol="59" />
          <note key="89" pos="576" pan="0" len="96" vol="59" />
          <note key="80" pos="672" pan="0" len="48" vol="59" />
          <note key="82" pos="768" pan="0" len="192" vol="59" />
          <note key="80" pos="960" pan="0" len="96" vol="59" />
          <note key="82" pos="1056" pan="0" len="60" vol="59" />
          <note key="85" pos="1152" pan="0" len="144" vol="59" />
          <note key="89" pos="1344" pan="0" len="96" vol="59" />
          <note key="80" pos="1440" pan="0" len="48" vol="59" />
        </pattern>
        <pattern pos="235020" muted="0" steps="16" name="" type="1">
          <note key="82" pos="0" pan="0" len="192" vol="70" />
          <note key="78" pos="192" pan="0" len="192" vol="70" />
          <note key="80" pos="384" pan="0" len="192" vol="70" />
          <note key="80" pos="576" pan="0" len="192" vol="70" />
          <note key="85" pos="768" pan="0" len="192" vol="70" />
          <note key="75" pos="960" pan="0" len="192" vol="70" />
          <note key="75" pos="1152" pan="0" len="192" vol="70" />
          <note key="78" pos="1344" pan="0" len="96" vol="70" />
          <note key="77" pos="1440" pan="0" len="96" vol="70" />
        </pattern>
      </track>
      <track solo="0" name="4 (Ch4)" type="0" muted="0">
        <instrumenttrack usemasterpitch="1" pitch="0.0" basenote="57" pan="0" pitchrange="12" vol="30">
          <eldata />
          <instrument name="tripleoscillator" />
        </instrumenttrack>
        <pattern pos="236556" muted="0" steps="16" name="" type="1">
          <note key="85" pos="0" pan="0" len="180" vol="17" />
        </pattern>
        <pattern pos="15360" muted="0" steps="16" name="" type="1">
          <note key="81" pos="0" pan="0" len="192" vol="59" />
          <note key="81" pos="192" pan="0" len="192" vol="59" />
          <note key="79" pos="384" pan="0" len="192" vol="59" />
          <note key="77" pos="576" pan="0" len="192" vol="59" />
          <note key="81" pos="768" pan="0" len="192" vol="59" />
          <note key="81" pos="960" pan="0" len="192" vol="59" />
          <note key="79" pos="1152" pan="0" len="192" vol="59" />
          <note key="77" pos="1344" pan="0" len="192" vol="59" />
        </pattern>
        <pattern pos="16896" muted="0" steps="16" name="" type="1">
          <note key="81" pos="0" pan="0" len="192" vol="59" />
          <note key="81" pos="192" pan="0" len="192" vol="59" />
          <note key="79" pos="384" pan="0" len="192" vol="59" />
          <note key="77" pos="576" pan="0" len="192" vol="59" />
          <note key="81" pos="768" pan="0" len="192" vol="59" />
          <note key="81" pos="960" pan="0" len="192" vol="59" />
          <note key="79" pos="1152" pan="0" len="192" vol="59" />
          <note key="77" pos="1344" pan="0" len="192" vol="59" />
        </pattern>
        <pattern pos="18432" muted="0" steps="16" name="" type="1">
          <note key="81" pos="0" pan="0" len="192" vol="59" />
          <note key="81" pos="192" pan="0" len="192" vol="59" />
          <note key="79" pos="384" pan="0" len="192" vol="59" />
          <note key="77" pos="576" pan="0" len="192" vol="59" />
          <note key="81" pos="768" pan="0" len="192" vol="59" />
          <note key="81" pos="960" pan="0" len="192" vol="59" />
          <note key="79" pos="1152" pan="0" len="192" vol="59" />
          <note key="77" pos="1344" pan="0" len="192" vol="59" />
        </pattern>
        <pattern pos="33792" muted="0" steps="16" name="" type="1">
          <note key="70" pos="0" pan="0" len="96" vol="89" />
          <note key="77" pos="96" pan="0" len="96" vol="89" />
          <note key="75" pos="192" pan="0" len="192" vol="89" />
          <note key="70" pos="384" pan="0" len="96" vol="89" />
          <note key="77" pos="480" pan="0" len="96" vol="89" />
          <note key="75" pos="576" pan="0" len="192" vol="89" />
          <note key="70" pos="768" pan="0" len="96" vol="89" />
          <note key="77" pos="864" pan="0" len="96" vol="89" />
          <note key="75" pos="960" pan="0" len="192" vol="89" />
          <note key="70" pos="1152" pan="0" len="96" vol="89" />
          <note key="77" pos="1248" pan="0" len="96" vol="89" />
          <note key="75" pos="1344" pan="0" len="120" vol="89" />
        </pattern>
        <pattern pos="115968" muted="0" steps="16" name="" type="1">
          <note key="86" pos="0" pan="0" len="144" vol="34" />
          <note key="89" pos="144" pan="0" len="72" vol="100" />
          <note key="89" pos="432" pan="0" len="72" vol="100" />
          <note key="86" pos="576" pan="0" len="144" vol="100" />
          <note key="89" pos="720" pan="0" len="72" vol="100" />
          <note key="89" pos="1008" pan="0" len="72" vol="100" />
          <note key="84" pos="1152" pan="0" len="84" vol="34" />
          <note key="84" pos="1728" pan="0" len="144" vol="100" />
          <note key="87" pos="1872" pan="0" len="72" vol="100" />
          <note key="87" pos="2160" pan="0" len="72" vol="100" />
        </pattern>
        <pattern pos="120576" muted="0" steps="16" name="" type="1">
          <note key="86" pos="0" pan="0" len="144" vol="34" />
          <note key="89" pos="144" pan="0" len="72" vol="100" />
          <note key="89" pos="432" pan="0" len="72" vol="100" />
          <note key="86" pos="576" pan="0" len="144" vol="100" />
          <note key="89" pos="720" pan="0" len="72" vol="100" />
          <note key="89" pos="1008" pan="0" len="72" vol="100" />
          <note key="84" pos="1152" pan="0" len="84" vol="34" />
          <note key="84" pos="1728" pan="0" len="144" vol="100" />
          <note key="87" pos="1872" pan="0" len="72" vol="100" />
          <note key="87" pos="2160" pan="0" len="72" vol="100" />
        </pattern>
        <pattern pos="157452" muted="0" steps="16" name="" type="1">
          <note key="77" pos="0" pan="0" len="144" vol="0" />
        </pattern>
        <pattern pos="221196" muted="0" steps="16" name="" type="1">
          <note key="85" pos="0" pan="0" len="1536" vol="17" />
        </pattern>
        <pattern pos="222732" muted="0" steps="16" name="" type="1">
          <note key="85" pos="0" pan="0" len="192" vol="59" />
          <note key="84" pos="192" pan="0" len="96" vol="59" />
          <note key="85" pos="288" pan="0" len="60" vol="59" />
          <note key="90" pos="384" pan="0" len="192" vol="59" />
          <note key="80" pos="576" pan="0" len="96" vol="59" />
          <note key="84" pos="672" pan="0" len="48" vol="59" />
          <note key="85" pos="768" pan="0" len="192" vol="59" />
          <note key="84" pos="960" pan="0" len="96" vol="59" />
          <note key="85" pos="1056" pan="0" len="60" vol="59" />
          <note key="90" pos="1152" pan="0" len="144" vol="59" />
          <note key="80" pos="1344" pan="0" len="96" vol="59" />
          <note key="84" pos="1440" pan="0" len="48" vol="59" />
        </pattern>
        <pattern pos="224268" muted="0" steps="16" name="" type="1">
          <note key="85" pos="0" pan="0" len="192" vol="17" />
          <note key="87" pos="192" pan="0" len="192" vol="100" />
          <note key="85" pos="384" pan="0" len="384" vol="50" />
          <note key="85" pos="768" pan="0" len="192" vol="17" />
          <note key="87" pos="960" pan="0" len="192" vol="100" />
          <note key="85" pos="1152" pan="0" len="192" vol="50" />
          <note key="87" pos="1344" pan="0" len="120" vol="100" />
        </pattern>
        <pattern pos="225804" muted="0" steps="16" name="" type="1">
          <note key="85" pos="0" pan="0" len="132" vol="100" />
          <note key="84" pos="192" pan="0" len="96" vol="100" />
          <note key="85" pos="288" pan="0" len="60" vol="100" />
          <note key="90" pos="384" pan="0" len="144" vol="100" />
          <note key="80" pos="576" pan="0" len="96" vol="100" />
          <note key="84" pos="672" pan="0" len="48" vol="100" />
          <note key="85" pos="768" pan="0" len="144" vol="100" />
          <note key="72" pos="960" pan="0" len="96" vol="100" />
          <note key="85" pos="1056" pan="0" len="60" vol="100" />
          <note key="90" pos="1152" pan="0" len="144" vol="100" />
          <note key="80" pos="1344" pan="0" len="96" vol="100" />
          <note key="84" pos="1440" pan="0" len="48" vol="100" />
        </pattern>
        <pattern pos="230412" muted="0" steps="16" name="" type="1">
          <note key="85" pos="0" pan="0" len="192" vol="17" />
          <note key="87" pos="192" pan="0" len="192" vol="100" />
          <note key="85" pos="384" pan="0" len="384" vol="50" />
          <note key="85" pos="768" pan="0" len="192" vol="17" />
          <note key="87" pos="960" pan="0" len="192" vol="100" />
          <note key="85" pos="1152" pan="0" len="192" vol="50" />
          <note key="87" pos="1344" pan="0" len="120" vol="100" />
        </pattern>
        <pattern pos="231948" muted="0" steps="16" name="" type="1">
          <note key="85" pos="0" pan="0" len="192" vol="59" />
          <note key="84" pos="192" pan="0" len="96" vol="59" />
          <note key="85" pos="288" pan="0" len="60" vol="59" />
          <note key="90" pos="384" pan="0" len="192" vol="59" />
          <note key="80" pos="576" pan="0" len="96" vol="59" />
          <note key="84" pos="672" pan="0" len="48" vol="59" />
          <note key="85" pos="768" pan="0" len="192" vol="59" />
          <note key="84" pos="960" pan="0" len="96" vol="59" />
          <note key="85" pos="1056" pan="0" len="60" vol="59" />
          <note key="90" pos="1152" pan="0" len="144" vol="59" />
          <note key="80" pos="1344" pan="0" len="96" vol="59" />
          <note key="84" pos="1440" pan="0" len="48" vol="59" />
        </pattern>
        <pattern pos="235020" muted="0" steps="16" name="" type="1">
          <note key="85" pos="0" pan="0" len="192" vol="70" />
          <note key="85" pos="192" pan="0" len="192" vol="70" />
          <note key="84" pos="384" pan="0" len="192" vol="70" />
          <note key="84" pos="576" pan="0" len="192" vol="70" />
          <note key="90" pos="768" pan="0" len="192" vol="70" />
          <note key="78" pos="960" pan="0" len="192" vol="70" />
          <note key="80" pos="1152" pan="0" len="192" vol="70" />
          <note key="82" pos="1344" pan="0" len="96" vol="70" />
          <note key="80" pos="1440" pan="0" len="96" vol="70" />
        </pattern>
      </track>
      <track solo="0" name="4 (Ch5)" type="0" muted="0">
        <instrumenttrack usemasterpitch="1" pitch="0.0" basenote="57" pan="0" pitchrange="12" vol="30">
          <eldata />
          <instrument name="tripleoscillator" />
        </instrumenttrack>
        <pattern pos="165900" muted="0" steps="16" name="" type="1">
          <note key="84" pos="0" pan="0" len="144" vol="100" />
          <note key="84" pos="144" pan="0" len="144" vol="100" />
          <note key="82" pos="288" pan="0" len="480" vol="100" />
        </pattern>
        <pattern pos="0" muted="0" steps="16" name="" type="1">
          <note key="79" pos="192" pan="0" len="60" vol="100" />
          <note key="69" pos="288" pan="0" len="72" vol="100" />
          <note key="79" pos="576" pan="0" len="60" vol="100" />
          <note key="82" pos="672" pan="0" len="60" vol="100" />
          <note key="79" pos="960" pan="0" len="72" vol="100" />
          <note key="82" pos="1056" pan="0" len="72" vol="100" />
          <note key="81" pos="1344" pan="0" len="72" vol="100" />
          <note key="81" pos="1440" pan="0" len="72" vol="100" />
        </pattern>
        <pattern pos="6144" muted="0" steps="16" name="" type="1">
          <note key="72" pos="768" pan="0" len="528" vol="100" />
          <note key="74" pos="1296" pan="0" len="240" vol="100" />
        </pattern>
        <pattern pos="10752" muted="0" steps="16" name="" type="1">
          <note key="72" pos="768" pan="0" len="528" vol="100" />
          <note key="74" pos="1296" pan="0" len="240" vol="100" />
        </pattern>
        <pattern pos="46080" muted="0" steps="16" name="" type="1">
          <note key="86" pos="0" pan="0" len="192" vol="33" />
          <note key="82" pos="192" pan="0" len="132" vol="69" />
          <note key="86" pos="768" pan="0" len="192" vol="33" />
          <note key="83" pos="960" pan="0" len="132" vol="69" />
          <note key="84" pos="1152" pan="0" len="132" vol="50" />
          <note key="79" pos="1344" pan="0" len="108" vol="69" />
        </pattern>
        <pattern pos="53760" muted="0" steps="16" name="" type="1">
          <note key="74" pos="192" pan="0" len="96" vol="100" />
          <note key="74" pos="288" pan="0" len="72" vol="100" />
        </pattern>
        <pattern pos="122892" muted="0" steps="16" name="" type="1">
          <note key="84" pos="0" pan="0" len="72" vol="100" />
          <note key="81" pos="72" pan="0" len="60" vol="100" />
          <note key="80" pos="192" pan="0" len="48" vol="100" />
          <note key="80" pos="240" pan="0" len="48" vol="100" />
          <note key="77" pos="288" pan="0" len="48" vol="100" />
          <note key="84" pos="384" pan="0" len="72" vol="100" />
          <note key="81" pos="456" pan="0" len="60" vol="100" />
          <note key="80" pos="576" pan="0" len="48" vol="100" />
          <note key="77" pos="624" pan="0" len="96" vol="100" />
          <note key="86" pos="720" pan="0" len="48" vol="100" />
        </pattern>
        <pattern pos="157452" muted="0" steps="16" name="" type="1">
          <note key="80" pos="0" pan="0" len="144" vol="0" />
        </pattern>
        <pattern pos="158988" muted="0" steps="16" name="" type="1">
          <note key="60" pos="768" pan="0" len="384" vol="0" />
          <note key="68" pos="1152" pan="0" len="384" vol="0" />
        </pattern>
        <pattern pos="160524" muted="0" steps="16" name="" type="1">
          <note key="62" pos="768" pan="0" len="384" vol="0" />
          <note key="70" pos="1152" pan="0" len="384" vol="0" />
        </pattern>
      </track>
      <track solo="0" name="4 (Ch6)" type="0" muted="0">
        <instrumenttrack usemasterpitch="1" pitch="0.0" basenote="57" pan="0" pitchrange="12" vol="30">
          <eldata />
          <instrument name="tripleoscillator" />
        </instrumenttrack>
        <pattern pos="206604" muted="0" steps="16" name="" type="1">
          <note key="75" pos="48" pan="0" len="72" vol="100" />
          <note key="75" pos="240" pan="0" len="72" vol="100" />
          <note key="77" pos="432" pan="0" len="72" vol="100" />
          <note key="77" pos="624" pan="0" len="72" vol="100" />
          <note key="72" pos="816" pan="0" len="96" vol="100" />
          <note key="72" pos="1008" pan="0" len="96" vol="100" />
          <note key="75" pos="1200" pan="0" len="72" vol="100" />
        </pattern>
        <pattern pos="0" muted="0" steps="16" name="" type="1">
          <note key="75" pos="192" pan="0" len="72" vol="100" />
          <note key="72" pos="288" pan="0" len="72" vol="100" />
          <note key="84" pos="576" pan="0" len="60" vol="100" />
          <note key="86" pos="672" pan="0" len="60" vol="100" />
          <note key="84" pos="960" pan="0" len="72" vol="100" />
          <note key="86" pos="1056" pan="0" len="72" vol="100" />
          <note key="84" pos="1344" pan="0" len="72" vol="100" />
          <note key="84" pos="1440" pan="0" len="72" vol="100" />
        </pattern>
        <pattern pos="6144" muted="0" steps="16" name="" type="1">
          <note key="77" pos="768" pan="0" len="528" vol="100" />
          <note key="77" pos="1296" pan="0" len="240" vol="100" />
        </pattern>
        <pattern pos="10752" muted="0" steps="16" name="" type="1">
          <note key="77" pos="768" pan="0" len="528" vol="100" />
          <note key="77" pos="1296" pan="0" len="240" vol="100" />
        </pattern>
        <pattern pos="53760" muted="0" steps="16" name="" type="1">
          <note key="77" pos="192" pan="0" len="96" vol="100" />
          <note key="78" pos="288" pan="0" len="72" vol="100" />
        </pattern>
        <pattern pos="122892" muted="0" steps="16" name="" type="1">
          <note key="87" pos="0" pan="0" len="72" vol="100" />
          <note key="84" pos="72" pan="0" len="60" vol="100" />
          <note key="84" pos="192" pan="0" len="48" vol="100" />
          <note key="84" pos="240" pan="0" len="48" vol="100" />
          <note key="82" pos="288" pan="0" len="48" vol="100" />
          <note key="87" pos="384" pan="0" len="72" vol="100" />
          <note key="84" pos="456" pan="0" len="60" vol="100" />
          <note key="84" pos="576" pan="0" len="48" vol="100" />
          <note key="82" pos="624" pan="0" len="48" vol="100" />
          <note key="80" pos="672" pan="0" len="48" vol="100" />
          <note key="77" pos="720" pan="0" len="48" vol="100" />
        </pattern>
        <pattern pos="157452" muted="0" steps="16" name="" type="1">
          <note key="75" pos="0" pan="0" len="144" vol="0" />
        </pattern>
        <pattern pos="158988" muted="0" steps="16" name="" type="1">
          <note key="67" pos="768" pan="0" len="384" vol="0" />
          <note key="75" pos="1152" pan="0" len="384" vol="0" />
        </pattern>
        <pattern pos="160524" muted="0" steps="16" name="" type="1">
          <note key="69" pos="768" pan="0" len="384" vol="0" />
          <note key="77" pos="1152" pan="0" len="384" vol="0" />
        </pattern>
        <pattern pos="165900" muted="0" steps="16" name="" type="1">
          <note key="88" pos="0" pan="0" len="144" vol="100" />
          <note key="88" pos="144" pan="0" len="144" vol="100" />
          <note key="86" pos="288" pan="0" len="480" vol="100" />
        </pattern>
      </track>
      <track solo="0" name="4 (Ch7)" type="0" muted="0">
        <instrumenttrack usemasterpitch="1" pitch="0.0" basenote="57" pan="0" pitchrange="12" vol="30">
          <eldata />
          <instrument name="tripleoscillator" />
        </instrumenttrack>
        <pattern pos="206604" muted="0" steps="16" name="" type="1">
          <note key="79" pos="48" pan="0" len="72" vol="100" />
          <note key="79" pos="240" pan="0" len="72" vol="100" />
          <note key="82" pos="432" pan="0" len="72" vol="100" />
          <note key="82" pos="624" pan="0" len="72" vol="100" />
          <note key="77" pos="816" pan="0" len="96" vol="100" />
          <note key="77" pos="1008" pan="0" len="96" vol="100" />
          <note key="79" pos="1200" pan="0" len="72" vol="100" />
        </pattern>
        <pattern pos="0" muted="0" steps="16" name="" type="1">
          <note key="70" pos="192" pan="0" len="72" vol="100" />
          <note key="77" pos="288" pan="0" len="72" vol="100" />
          <note key="87" pos="576" pan="0" len="60" vol="100" />
          <note key="89" pos="672" pan="0" len="60" vol="100" />
          <note key="87" pos="960" pan="0" len="72" vol="100" />
          <note key="89" pos="1056" pan="0" len="72" vol="100" />
          <note key="87" pos="1344" pan="0" len="72" vol="100" />
          <note key="89" pos="1440" pan="0" len="72" vol="100" />
        </pattern>
        <pattern pos="6144" muted="0" steps="16" name="" type="1">
          <note key="80" pos="768" pan="0" len="528" vol="100" />
          <note key="82" pos="1296" pan="0" len="240" vol="100" />
        </pattern>
        <pattern pos="10752" muted="0" steps="16" name="" type="1">
          <note key="80" pos="768" pan="0" len="528" vol="100" />
          <note key="82" pos="1296" pan="0" len="240" vol="100" />
        </pattern>
        <pattern pos="53760" muted="0" steps="16" name="" type="1">
          <note key="82" pos="192" pan="0" len="96" vol="100" />
          <note key="81" pos="288" pan="0" len="72" vol="100" />
        </pattern>
        <pattern pos="122892" muted="0" steps="16" name="" type="1">
          <note key="91" pos="0" pan="0" len="72" vol="100" />
          <note key="89" pos="72" pan="0" len="60" vol="100" />
          <note key="89" pos="192" pan="0" len="48" vol="100" />
          <note key="87" pos="240" pan="0" len="48" vol="100" />
          <note key="86" pos="288" pan="0" len="48" vol="100" />
          <note key="91" pos="384" pan="0" len="72" vol="100" />
          <note key="89" pos="456" pan="0" len="60" vol="100" />
          <note key="87" pos="576" pan="0" len="48" vol="100" />
          <note key="86" pos="624" pan="0" len="48" vol="100" />
          <note key="84" pos="672" pan="0" len="48" vol="100" />
          <note key="82" pos="720" pan="0" len="48" vol="100" />
        </pattern>
        <pattern pos="147468" muted="0" steps="16" name="" type="1">
          <note key="44" pos="0" pan="0" len="144" vol="78" />
        </pattern>
        <pattern pos="149004" muted="0" steps="16" name="" type="1">
          <note key="44" pos="0" pan="0" len="144" vol="78" />
        </pattern>
        <pattern pos="158988" muted="0" steps="16" name="" type="1">
          <note key="74" pos="768" pan="0" len="384" vol="0" />
          <note key="70" pos="1152" pan="0" len="384" vol="0" />
        </pattern>
        <pattern pos="160524" muted="0" steps="16" name="" type="1">
          <note key="76" pos="768" pan="0" len="384" vol="0" />
          <note key="72" pos="1152" pan="0" len="384" vol="0" />
        </pattern>
        <pattern pos="163596" muted="0" steps="16" name="" type="1">
          <note key="84" pos="384" pan="0" len="192" vol="86" />
          <note key="79" pos="576" pan="0" len="96" vol="50" />
          <note key="81" pos="768" pan="0" len="144" vol="100" />
          <note key="79" pos="960" pan="0" len="144" vol="100" />
          <note key="77" pos="1152" pan="0" len="144" vol="100" />
          <note key="77" pos="1344" pan="0" len="144" vol="100" />
        </pattern>
        <pattern pos="165900" muted="0" steps="16" name="" type="1">
          <note key="92" pos="0" pan="0" len="144" vol="100" />
          <note key="91" pos="144" pan="0" len="144" vol="100" />
          <note key="90" pos="288" pan="0" len="144" vol="100" />
          <note key="89" pos="432" pan="0" len="336" vol="100" />
        </pattern>
        <pattern pos="168204" muted="0" steps="16" name="" type="1">
          <note key="72" pos="672" pan="0" len="48" vol="100" />
          <note key="69" pos="720" pan="0" len="48" vol="100" />
        </pattern>
      </track>
      <track solo="0" name="4 (Ch8)" type="0" muted="0">
        <instrumenttrack usemasterpitch="1" pitch="0.0" basenote="57" pan="0" pitchrange="12" vol="30">
          <eldata />
          <instrument name="tripleoscillator" />
        </instrumenttrack>
        <pattern pos="206604" muted="0" steps="16" name="" type="1">
          <note key="84" pos="48" pan="0" len="72" vol="100" />
          <note key="84" pos="240" pan="0" len="72" vol="100" />
          <note key="86" pos="432" pan="0" len="72" vol="100" />
          <note key="86" pos="624" pan="0" len="72" vol="100" />
          <note key="80" pos="816" pan="0" len="96" vol="100" />
          <note key="80" pos="1008" pan="0" len="96" vol="100" />
          <note key="84" pos="1200" pan="0" len="72" vol="100" />
        </pattern>
        <pattern pos="12288" muted="0" steps="16" name="" type="1">
          <note key="79" pos="1536" pan="0" len="192" vol="34" />
        </pattern>
        <pattern pos="44544" muted="0" steps="16" name="" type="1">
          <note key="71" pos="768" pan="0" len="192" vol="52" />
          <note key="70" pos="960" pan="0" len="144" vol="100" />
          <note key="74" pos="1152" pan="0" len="192" vol="100" />
          <note key="77" pos="1344" pan="0" len="120" vol="100" />
        </pattern>
        <pattern pos="47616" muted="0" steps="16" name="" type="1">
          <note key="71" pos="768" pan="0" len="192" vol="52" />
          <note key="70" pos="960" pan="0" len="144" vol="100" />
          <note key="74" pos="1152" pan="0" len="192" vol="100" />
          <note key="77" pos="1344" pan="0" len="120" vol="100" />
        </pattern>
        <pattern pos="50688" muted="0" steps="16" name="" type="1">
          <note key="71" pos="768" pan="0" len="192" vol="52" />
          <note key="70" pos="960" pan="0" len="144" vol="100" />
          <note key="74" pos="1152" pan="0" len="192" vol="100" />
          <note key="77" pos="1344" pan="0" len="120" vol="100" />
        </pattern>
        <pattern pos="122892" muted="0" steps="16" name="" type="1">
          <note key="53" pos="192" pan="0" len="48" vol="100" />
          <note key="56" pos="240" pan="0" len="48" vol="100" />
          <note key="56" pos="288" pan="0" len="48" vol="100" />
          <note key="53" pos="576" pan="0" len="96" vol="100" />
          <note key="56" pos="672" pan="0" len="48" vol="100" />
          <note key="58" pos="720" pan="0" len="48" vol="100" />
        </pattern>
        <pattern pos="147468" muted="0" steps="16" name="" type="1">
          <note key="51" pos="0" pan="0" len="144" vol="78" />
        </pattern>
        <pattern pos="149004" muted="0" steps="16" name="" type="1">
          <note key="51" pos="0" pan="0" len="144" vol="78" />
        </pattern>
        <pattern pos="158988" muted="0" steps="16" name="" type="1">
          <note key="77" pos="768" pan="0" len="384" vol="0" />
          <note key="80" pos="1152" pan="0" len="384" vol="0" />
        </pattern>
        <pattern pos="160524" muted="0" steps="16" name="" type="1">
          <note key="79" pos="768" pan="0" len="384" vol="0" />
          <note key="82" pos="1152" pan="0" len="384" vol="0" />
        </pattern>
        <pattern pos="163596" muted="0" steps="16" name="" type="1">
          <note key="88" pos="384" pan="0" len="192" vol="86" />
          <note key="82" pos="576" pan="0" len="96" vol="50" />
          <note key="84" pos="768" pan="0" len="144" vol="100" />
          <note key="84" pos="960" pan="0" len="144" vol="100" />
          <note key="82" pos="1152" pan="0" len="144" vol="100" />
          <note key="80" pos="1344" pan="0" len="144" vol="100" />
        </pattern>
        <pattern pos="168204" muted="0" steps="16" name="" type="1">
          <note key="76" pos="672" pan="0" len="48" vol="100" />
          <note key="74" pos="720" pan="0" len="48" vol="100" />
        </pattern>
        <pattern pos="169740" muted="0" steps="16" name="" type="1">
          <note key="74" pos="672" pan="0" len="96" vol="100" />
          <note key="79" pos="864" pan="0" len="96" vol="100" />
          <note key="77" pos="1056" pan="0" len="96" vol="100" />
          <note key="82" pos="1248" pan="0" len="96" vol="100" />
        </pattern>
      </track>
      <track solo="0" name="4 (Ch9)" type="0" muted="0">
        <instrumenttrack usemasterpitch="1" pitch="0.0" basenote="57" pan="0" pitchrange="12" vol="30">
          <eldata />
          <instrument name="tripleoscillator" />
        </instrumenttrack>
        <pattern pos="214284" muted="0" steps="16" name="" type="1">
          <note key="75" pos="48" pan="0" len="72" vol="100" />
          <note key="75" pos="240" pan="0" len="72" vol="100" />
          <note key="77" pos="432" pan="0" len="72" vol="100" />
          <note key="77" pos="624" pan="0" len="72" vol="100" />
          <note key="72" pos="816" pan="0" len="96" vol="100" />
          <note key="72" pos="1008" pan="0" len="96" vol="100" />
          <note key="75" pos="1200" pan="0" len="72" vol="100" />
        </pattern>
        <pattern pos="12288" muted="0" steps="16" name="" type="1">
          <note key="84" pos="1536" pan="0" len="192" vol="34" />
        </pattern>
        <pattern pos="38400" muted="0" steps="16" name="" type="1">
          <note key="91" pos="0" pan="0" len="192" vol="36" />
          <note key="93" pos="192" pan="0" len="96" vol="50" />
          <note key="95" pos="288" pan="0" len="96" vol="50" />
          <note key="96" pos="384" pan="0" len="192" vol="36" />
          <note key="98" pos="576" pan="0" len="96" vol="36" />
          <note key="91" pos="768" pan="0" len="192" vol="36" />
          <note key="93" pos="960" pan="0" len="96" vol="50" />
          <note key="95" pos="1056" pan="0" len="96" vol="50" />
          <note key="100" pos="1344" pan="0" len="96" vol="36" />
        </pattern>
        <pattern pos="44544" muted="0" steps="16" name="" type="1">
          <note key="74" pos="768" pan="0" len="192" vol="52" />
          <note key="74" pos="960" pan="0" len="144" vol="100" />
          <note key="79" pos="1152" pan="0" len="192" vol="100" />
          <note key="82" pos="1344" pan="0" len="120" vol="100" />
        </pattern>
        <pattern pos="47616" muted="0" steps="16" name="" type="1">
          <note key="74" pos="768" pan="0" len="192" vol="52" />
          <note key="74" pos="960" pan="0" len="144" vol="100" />
          <note key="79" pos="1152" pan="0" len="192" vol="100" />
          <note key="82" pos="1344" pan="0" len="120" vol="100" />
        </pattern>
        <pattern pos="50688" muted="0" steps="16" name="" type="1">
          <note key="74" pos="768" pan="0" len="192" vol="52" />
          <note key="74" pos="960" pan="0" len="144" vol="100" />
          <note key="79" pos="1152" pan="0" len="192" vol="100" />
          <note key="82" pos="1344" pan="0" len="120" vol="100" />
        </pattern>
        <pattern pos="147468" muted="0" steps="16" name="" type="1">
          <note key="54" pos="0" pan="0" len="144" vol="78" />
        </pattern>
        <pattern pos="149004" muted="0" steps="16" name="" type="1">
          <note key="54" pos="0" pan="0" len="144" vol="78" />
        </pattern>
        <pattern pos="163596" muted="0" steps="16" name="" type="1">
          <note key="91" pos="384" pan="0" len="192" vol="86" />
          <note key="86" pos="576" pan="0" len="96" vol="50" />
          <note key="89" pos="768" pan="0" len="144" vol="100" />
          <note key="87" pos="960" pan="0" len="144" vol="100" />
          <note key="86" pos="1152" pan="0" len="144" vol="100" />
          <note key="84" pos="1344" pan="0" len="144" vol="100" />
        </pattern>
        <pattern pos="168204" muted="0" steps="16" name="" type="1">
          <note key="79" pos="672" pan="0" len="48" vol="100" />
          <note key="78" pos="720" pan="0" len="48" vol="100" />
        </pattern>
        <pattern pos="169740" muted="0" steps="16" name="" type="1">
          <note key="79" pos="672" pan="0" len="96" vol="100" />
          <note key="83" pos="864" pan="0" len="96" vol="100" />
          <note key="82" pos="1056" pan="0" len="96" vol="100" />
          <note key="86" pos="1248" pan="0" len="96" vol="100" />
        </pattern>
      </track>
      <track solo="0" name="4 (Ch10)" type="0" muted="0">
        <instrumenttrack usemasterpitch="1" pitch="0.0" basenote="57" pan="0" pitchrange="12" vol="30">
          <eldata />
          <instrument name="tripleoscillator" />
        </instrumenttrack>
        <pattern pos="243468" muted="0" steps="16" name="" type="1">
          <note key="65" pos="84" pan="0" len="48" vol="100" />
          <note key="79" pos="132" pan="0" len="60" vol="100" />
          <note key="73" pos="468" pan="0" len="48" vol="100" />
          <note key="82" pos="516" pan="0" len="60" vol="100" />
          <note key="65" pos="1044" pan="0" len="48" vol="100" />
          <note key="79" pos="1092" pan="0" len="60" vol="100" />
          <note key="80" pos="1428" pan="0" len="48" vol="100" />
          <note key="73" pos="1476" pan="0" len="48" vol="100" />
        </pattern>
        <pattern pos="12288" muted="0" steps="16" name="" type="1">
          <note key="87" pos="1536" pan="0" len="192" vol="34" />
        </pattern>
        <pattern pos="21504" muted="0" steps="16" name="" type="1">
          <note key="78" pos="96" pan="0" len="96" vol="100" />
          <note key="83" pos="480" pan="0" len="96" vol="100" />
        </pattern>
        <pattern pos="44544" muted="0" steps="16" name="" type="1">
          <note key="79" pos="768" pan="0" len="192" vol="52" />
          <note key="77" pos="960" pan="0" len="144" vol="100" />
          <note key="83" pos="1152" pan="0" len="192" vol="100" />
          <note key="86" pos="1344" pan="0" len="120" vol="100" />
        </pattern>
        <pattern pos="47616" muted="0" steps="16" name="" type="1">
          <note key="79" pos="768" pan="0" len="192" vol="52" />
          <note key="77" pos="960" pan="0" len="144" vol="100" />
          <note key="83" pos="1152" pan="0" len="192" vol="100" />
          <note key="86" pos="1344" pan="0" len="120" vol="100" />
        </pattern>
        <pattern pos="50688" muted="0" steps="16" name="" type="1">
          <note key="79" pos="768" pan="0" len="192" vol="52" />
          <note key="77" pos="960" pan="0" len="144" vol="100" />
          <note key="83" pos="1152" pan="0" len="192" vol="100" />
          <note key="86" pos="1344" pan="0" len="120" vol="100" />
        </pattern>
        <pattern pos="56448" muted="0" steps="16" name="" type="1">
          <note key="62" pos="0" pan="0" len="576" vol="100" />
        </pattern>
        <pattern pos="57600" muted="0" steps="16" name="" type="1">
          <note key="81" pos="0" pan="0" len="144" vol="100" />
          <note key="79" pos="144" pan="0" len="144" vol="100" />
          <note key="81" pos="288" pan="0" len="144" vol="100" />
          <note key="77" pos="432" pan="0" len="144" vol="100" />
          <note key="81" pos="576" pan="0" len="144" vol="100" />
          <note key="79" pos="720" pan="0" len="144" vol="100" />
          <note key="81" pos="864" pan="0" len="144" vol="100" />
          <note key="79" pos="1008" pan="0" len="144" vol="100" />
        </pattern>
        <pattern pos="61056" muted="0" steps="16" name="" type="1">
          <note key="81" pos="0" pan="0" len="144" vol="100" />
          <note key="79" pos="144" pan="0" len="144" vol="100" />
          <note key="81" pos="288" pan="0" len="144" vol="100" />
          <note key="77" pos="432" pan="0" len="144" vol="100" />
          <note key="81" pos="576" pan="0" len="144" vol="100" />
          <note key="79" pos="720" pan="0" len="144" vol="100" />
          <note key="81" pos="864" pan="0" len="144" vol="100" />
          <note key="79" pos="1008" pan="0" len="144" vol="100" />
        </pattern>
        <pattern pos="64512" muted="0" steps="16" name="" type="1">
          <note key="81" pos="0" pan="0" len="144" vol="100" />
          <note key="79" pos="144" pan="0" len="144" vol="100" />
          <note key="81" pos="288" pan="0" len="144" vol="100" />
          <note key="77" pos="432" pan="0" len="144" vol="100" />
          <note key="81" pos="576" pan="0" len="144" vol="100" />
          <note key="79" pos="720" pan="0" len="144" vol="100" />
          <note key="81" pos="864" pan="0" len="144" vol="100" />
          <note key="79" pos="1008" pan="0" len="144" vol="100" />
        </pattern>
        <pattern pos="65664" muted="0" steps="16" name="" type="1">
          <note key="62" pos="0" pan="0" len="1152" vol="100" />
        </pattern>
        <pattern pos="147468" muted="0" steps="16" name="" type="1">
          <note key="68" pos="0" pan="0" len="144" vol="78" />
        </pattern>
        <pattern pos="149004" muted="0" steps="16" name="" type="1">
          <note key="68" pos="0" pan="0" len="144" vol="78" />
        </pattern>
        <pattern pos="169740" muted="0" steps="16" name="" type="1">
          <note key="83" pos="672" pan="0" len="96" vol="100" />
          <note key="86" pos="864" pan="0" len="96" vol="100" />
          <note key="86" pos="1056" pan="0" len="96" vol="100" />
          <note key="89" pos="1248" pan="0" len="96" vol="100" />
        </pattern>
        <pattern pos="214284" muted="0" steps="16" name="" type="1">
          <note key="79" pos="48" pan="0" len="72" vol="100" />
          <note key="79" pos="240" pan="0" len="72" vol="100" />
          <note key="82" pos="432" pan="0" len="72" vol="100" />
          <note key="82" pos="624" pan="0" len="72" vol="100" />
          <note key="77" pos="816" pan="0" len="96" vol="100" />
          <note key="77" pos="1008" pan="0" len="96" vol="100" />
          <note key="79" pos="1200" pan="0" len="72" vol="100" />
        </pattern>
        <pattern pos="237324" muted="0" steps="16" name="" type="1">
          <note key="65" pos="1044" pan="0" len="48" vol="100" />
          <note key="79" pos="1092" pan="0" len="60" vol="100" />
          <note key="80" pos="1428" pan="0" len="48" vol="100" />
          <note key="73" pos="1476" pan="0" len="48" vol="100" />
        </pattern>
      </track>
      <track solo="0" name="4 (Ch11)" type="0" muted="0">
        <instrumenttrack usemasterpitch="1" pitch="0.0" basenote="57" pan="0" pitchrange="12" vol="30">
          <eldata />
          <instrument name="tripleoscillator" />
        </instrumenttrack>
        <pattern pos="243468" muted="0" steps="16" name="" type="1">
          <note key="70" pos="84" pan="0" len="48" vol="100" />
          <note key="75" pos="132" pan="0" len="60" vol="100" />
          <note key="77" pos="468" pan="0" len="48" vol="100" />
          <note key="77" pos="516" pan="0" len="60" vol="100" />
          <note key="70" pos="1044" pan="0" len="48" vol="100" />
          <note key="75" pos="1092" pan="0" len="60" vol="100" />
          <note key="77" pos="1428" pan="0" len="48" vol="100" />
          <note key="75" pos="1476" pan="0" len="48" vol="100" />
        </pattern>
        <pattern pos="21504" muted="0" steps="16" name="" type="1">
          <note key="82" pos="96" pan="0" len="96" vol="100" />
          <note key="87" pos="480" pan="0" len="96" vol="100" />
        </pattern>
        <pattern pos="56448" muted="0" steps="16" name="" type="1">
          <note key="74" pos="0" pan="0" len="576" vol="100" />
        </pattern>
        <pattern pos="57600" muted="0" steps="16" name="" type="1">
          <note key="86" pos="0" pan="0" len="144" vol="100" />
          <note key="83" pos="144" pan="0" len="144" vol="100" />
          <note key="86" pos="288" pan="0" len="144" vol="100" />
          <note key="81" pos="432" pan="0" len="144" vol="100" />
          <note key="86" pos="576" pan="0" len="144" vol="100" />
          <note key="83" pos="720" pan="0" len="144" vol="100" />
          <note key="86" pos="864" pan="0" len="144" vol="100" />
          <note key="83" pos="1008" pan="0" len="144" vol="100" />
        </pattern>
        <pattern pos="61056" muted="0" steps="16" name="" type="1">
          <note key="86" pos="0" pan="0" len="144" vol="100" />
          <note key="83" pos="144" pan="0" len="144" vol="100" />
          <note key="86" pos="288" pan="0" len="144" vol="100" />
          <note key="81" pos="432" pan="0" len="144" vol="100" />
          <note key="86" pos="576" pan="0" len="144" vol="100" />
          <note key="83" pos="720" pan="0" len="144" vol="100" />
          <note key="86" pos="864" pan="0" len="144" vol="100" />
          <note key="83" pos="1008" pan="0" len="144" vol="100" />
        </pattern>
        <pattern pos="64512" muted="0" steps="16" name="" type="1">
          <note key="86" pos="0" pan="0" len="144" vol="100" />
          <note key="83" pos="144" pan="0" len="144" vol="100" />
          <note key="86" pos="288" pan="0" len="144" vol="100" />
          <note key="81" pos="432" pan="0" len="144" vol="100" />
          <note key="86" pos="576" pan="0" len="144" vol="100" />
          <note key="83" pos="720" pan="0" len="144" vol="100" />
          <note key="86" pos="864" pan="0" len="144" vol="100" />
          <note key="83" pos="1008" pan="0" len="144" vol="100" />
        </pattern>
        <pattern pos="65664" muted="0" steps="16" name="" type="1">
          <note key="74" pos="0" pan="0" len="1152" vol="100" />
        </pattern>
        <pattern pos="73728" muted="0" steps="16" name="" type="1">
          <note key="80" pos="0" pan="0" len="288" vol="100" />
          <note key="80" pos="288" pan="0" len="180" vol="100" />
          <note key="77" pos="576" pan="0" len="288" vol="100" />
          <note key="80" pos="864" pan="0" len="192" vol="100" />
          <note key="80" pos="1152" pan="0" len="288" vol="100" />
          <note key="80" pos="1440" pan="0" len="180" vol="100" />
          <note key="77" pos="1728" pan="0" len="288" vol="100" />
          <note key="77" pos="2016" pan="0" len="192" vol="100" />
        </pattern>
        <pattern pos="76032" muted="0" steps="16" name="" type="1">
          <note key="77" pos="0" pan="0" len="288" vol="100" />
          <note key="77" pos="288" pan="0" len="180" vol="100" />
          <note key="74" pos="576" pan="0" len="288" vol="100" />
          <note key="77" pos="864" pan="0" len="192" vol="100" />
          <note key="77" pos="1152" pan="0" len="288" vol="100" />
          <note key="77" pos="1440" pan="0" len="180" vol="100" />
          <note key="74" pos="1728" pan="0" len="288" vol="100" />
          <note key="74" pos="2016" pan="0" len="192" vol="100" />
        </pattern>
        <pattern pos="85248" muted="0" steps="16" name="" type="1">
          <note key="80" pos="0" pan="0" len="288" vol="100" />
          <note key="80" pos="288" pan="0" len="180" vol="100" />
          <note key="77" pos="576" pan="0" len="288" vol="100" />
          <note key="80" pos="864" pan="0" len="192" vol="100" />
          <note key="80" pos="1152" pan="0" len="288" vol="100" />
          <note key="80" pos="1440" pan="0" len="180" vol="100" />
          <note key="77" pos="1728" pan="0" len="288" vol="100" />
          <note key="77" pos="2016" pan="0" len="192" vol="100" />
        </pattern>
        <pattern pos="87552" muted="0" steps="16" name="" type="1">
          <note key="77" pos="0" pan="0" len="288" vol="100" />
          <note key="77" pos="288" pan="0" len="180" vol="100" />
          <note key="74" pos="576" pan="0" len="288" vol="100" />
          <note key="77" pos="864" pan="0" len="192" vol="100" />
          <note key="77" pos="1152" pan="0" len="288" vol="100" />
          <note key="77" pos="1440" pan="0" len="180" vol="100" />
          <note key="74" pos="1728" pan="0" len="288" vol="100" />
          <note key="74" pos="2016" pan="0" len="192" vol="100" />
        </pattern>
        <pattern pos="147468" muted="0" steps="16" name="" type="1">
          <note key="75" pos="0" pan="0" len="144" vol="78" />
        </pattern>
        <pattern pos="149004" muted="0" steps="16" name="" type="1">
          <note key="75" pos="0" pan="0" len="144" vol="78" />
        </pattern>
        <pattern pos="214284" muted="0" steps="16" name="" type="1">
          <note key="84" pos="48" pan="0" len="72" vol="100" />
          <note key="84" pos="240" pan="0" len="72" vol="100" />
          <note key="86" pos="432" pan="0" len="72" vol="100" />
          <note key="86" pos="624" pan="0" len="72" vol="100" />
          <note key="80" pos="816" pan="0" len="96" vol="100" />
          <note key="80" pos="1008" pan="0" len="96" vol="100" />
          <note key="84" pos="1200" pan="0" len="72" vol="100" />
        </pattern>
        <pattern pos="237324" muted="0" steps="16" name="" type="1">
          <note key="70" pos="1044" pan="0" len="48" vol="100" />
          <note key="75" pos="1092" pan="0" len="60" vol="100" />
          <note key="77" pos="1428" pan="0" len="48" vol="100" />
          <note key="75" pos="1476" pan="0" len="48" vol="100" />
        </pattern>
      </track>
      <track solo="0" name="4 (Ch12)" type="0" muted="0">
        <instrumenttrack usemasterpitch="1" pitch="0.0" basenote="57" pan="0" pitchrange="12" vol="30">
          <eldata />
          <instrument name="tripleoscillator" />
        </instrumenttrack>
        <pattern pos="243468" muted="0" steps="16" name="" type="1">
          <note key="77" pos="84" pan="0" len="48" vol="100" />
          <note key="70" pos="132" pan="0" len="60" vol="100" />
          <note key="80" pos="468" pan="0" len="48" vol="100" />
          <note key="73" pos="516" pan="0" len="60" vol="100" />
          <note key="77" pos="1044" pan="0" len="48" vol="100" />
          <note key="70" pos="1092" pan="0" len="60" vol="100" />
          <note key="73" pos="1428" pan="0" len="48" vol="100" />
          <note key="79" pos="1476" pan="0" len="48" vol="100" />
        </pattern>
        <pattern pos="21504" muted="0" steps="16" name="" type="1">
          <note key="87" pos="96" pan="0" len="96" vol="100" />
          <note key="90" pos="480" pan="0" len="96" vol="100" />
        </pattern>
        <pattern pos="55296" muted="0" steps="16" name="" type="1">
          <note key="69" pos="0" pan="0" len="1152" vol="100" />
        </pattern>
        <pattern pos="57600" muted="0" steps="16" name="" type="1">
          <note key="89" pos="0" pan="0" len="144" vol="100" />
          <note key="91" pos="144" pan="0" len="144" vol="100" />
          <note key="89" pos="288" pan="0" len="144" vol="100" />
          <note key="84" pos="432" pan="0" len="144" vol="100" />
          <note key="89" pos="576" pan="0" len="144" vol="100" />
          <note key="91" pos="720" pan="0" len="144" vol="100" />
          <note key="89" pos="864" pan="0" len="144" vol="100" />
          <note key="91" pos="1008" pan="0" len="144" vol="100" />
        </pattern>
        <pattern pos="61056" muted="0" steps="16" name="" type="1">
          <note key="89" pos="0" pan="0" len="144" vol="100" />
          <note key="91" pos="144" pan="0" len="144" vol="100" />
          <note key="89" pos="288" pan="0" len="144" vol="100" />
          <note key="84" pos="432" pan="0" len="144" vol="100" />
          <note key="89" pos="576" pan="0" len="144" vol="100" />
          <note key="91" pos="720" pan="0" len="144" vol="100" />
          <note key="89" pos="864" pan="0" len="144" vol="100" />
          <note key="91" pos="1008" pan="0" len="144" vol="100" />
        </pattern>
        <pattern pos="62208" muted="0" steps="16" name="" type="1">
          <note key="74" pos="0" pan="0" len="144" vol="34" />
          <note key="77" pos="144" pan="0" len="144" vol="52" />
          <note key="79" pos="288" pan="0" len="144" vol="86" />
          <note key="74" pos="576" pan="0" len="144" vol="34" />
          <note key="77" pos="720" pan="0" len="144" vol="52" />
          <note key="79" pos="864" pan="0" len="144" vol="86" />
        </pattern>
        <pattern pos="63360" muted="0" steps="16" name="" type="1">
          <note key="86" pos="1008" pan="0" len="60" vol="100" />
        </pattern>
        <pattern pos="64512" muted="0" steps="16" name="" type="1">
          <note key="89" pos="0" pan="0" len="144" vol="100" />
          <note key="91" pos="144" pan="0" len="144" vol="100" />
          <note key="89" pos="288" pan="0" len="144" vol="100" />
          <note key="84" pos="432" pan="0" len="144" vol="100" />
          <note key="89" pos="576" pan="0" len="144" vol="100" />
          <note key="91" pos="720" pan="0" len="144" vol="100" />
          <note key="89" pos="864" pan="0" len="144" vol="100" />
          <note key="91" pos="1008" pan="0" len="144" vol="100" />
        </pattern>
        <pattern pos="73728" muted="0" steps="16" name="" type="1">
          <note key="84" pos="0" pan="0" len="288" vol="100" />
          <note key="84" pos="288" pan="0" len="180" vol="100" />
          <note key="82" pos="576" pan="0" len="288" vol="100" />
          <note key="84" pos="864" pan="0" len="192" vol="100" />
          <note key="84" pos="1152" pan="0" len="288" vol="100" />
          <note key="84" pos="1440" pan="0" len="180" vol="100" />
          <note key="82" pos="1728" pan="0" len="288" vol="100" />
          <note key="80" pos="2016" pan="0" len="192" vol="100" />
        </pattern>
        <pattern pos="76032" muted="0" steps="16" name="" type="1">
          <note key="81" pos="0" pan="0" len="288" vol="100" />
          <note key="81" pos="288" pan="0" len="180" vol="100" />
          <note key="79" pos="576" pan="0" len="288" vol="100" />
          <note key="81" pos="864" pan="0" len="192" vol="100" />
          <note key="81" pos="1152" pan="0" len="288" vol="100" />
          <note key="81" pos="1440" pan="0" len="180" vol="100" />
          <note key="79" pos="1728" pan="0" len="288" vol="100" />
          <note key="77" pos="2016" pan="0" len="192" vol="100" />
        </pattern>
        <pattern pos="85248" muted="0" steps="16" name="" type="1">
          <note key="84" pos="0" pan="0" len="288" vol="100" />
          <note key="84" pos="288" pan="0" len="180" vol="100" />
          <note key="82" pos="576" pan="0" len="288" vol="100" />
          <note key="84" pos="864" pan="0" len="192" vol="100" />
          <note key="84" pos="1152" pan="0" len="288" vol="100" />
          <note key="84" pos="1440" pan="0" len="180" vol="100" />
          <note key="82" pos="1728" pan="0" len="288" vol="100" />
          <note key="80" pos="2016" pan="0" len="192" vol="100" />
        </pattern>
        <pattern pos="87552" muted="0" steps="16" name="" type="1">
          <note key="81" pos="0" pan="0" len="288" vol="100" />
          <note key="81" pos="288" pan="0" len="180" vol="100" />
          <note key="79" pos="576" pan="0" len="288" vol="100" />
          <note key="81" pos="864" pan="0" len="192" vol="100" />
          <note key="81" pos="1152" pan="0" len="288" vol="100" />
          <note key="81" pos="1440" pan="0" len="180" vol="100" />
          <note key="79" pos="1728" pan="0" len="288" vol="100" />
          <note key="77" pos="2016" pan="0" len="192" vol="100" />
        </pattern>
        <pattern pos="147468" muted="0" steps="16" name="" type="1">
          <note key="78" pos="0" pan="0" len="144" vol="78" />
        </pattern>
        <pattern pos="149004" muted="0" steps="16" name="" type="1">
          <note key="78" pos="0" pan="0" len="144" vol="78" />
        </pattern>
        <pattern pos="237324" muted="0" steps="16" name="" type="1">
          <note key="77" pos="1044" pan="0" len="48" vol="100" />
          <note key="70" pos="1092" pan="0" len="60" vol="100" />
          <note key="73" pos="1428" pan="0" len="48" vol="100" />
          <note key="79" pos="1476" pan="0" len="48" vol="100" />
        </pattern>
      </track>
      <track solo="0" name="4 (Ch13)" type="0" muted="0">
        <instrumenttrack usemasterpitch="1" pitch="0.0" basenote="57" pan="0" pitchrange="12" vol="30">
          <eldata />
          <instrument name="tripleoscillator" />
        </instrumenttrack>
        <pattern pos="243468" muted="0" steps="16" name="" type="1">
          <note key="73" pos="84" pan="0" len="48" vol="100" />
          <note key="72" pos="132" pan="0" len="60" vol="100" />
          <note key="75" pos="468" pan="0" len="48" vol="100" />
          <note key="75" pos="516" pan="0" len="60" vol="100" />
          <note key="73" pos="1044" pan="0" len="48" vol="100" />
          <note key="72" pos="1092" pan="0" len="60" vol="100" />
          <note key="70" pos="1428" pan="0" len="48" vol="100" />
          <note key="82" pos="1476" pan="0" len="48" vol="100" />
        </pattern>
        <pattern pos="55296" muted="0" steps="16" name="" type="1">
          <note key="74" pos="0" pan="0" len="1152" vol="100" />
        </pattern>
        <pattern pos="62208" muted="0" steps="16" name="" type="1">
          <note key="79" pos="0" pan="0" len="144" vol="34" />
          <note key="82" pos="144" pan="0" len="144" vol="52" />
          <note key="84" pos="288" pan="0" len="144" vol="86" />
          <note key="79" pos="576" pan="0" len="144" vol="34" />
          <note key="82" pos="720" pan="0" len="144" vol="52" />
          <note key="84" pos="864" pan="0" len="144" vol="86" />
        </pattern>
        <pattern pos="63360" muted="0" steps="16" name="" type="1">
          <note key="83" pos="1008" pan="0" len="60" vol="100" />
        </pattern>
        <pattern pos="73728" muted="0" steps="16" name="" type="1">
          <note key="89" pos="0" pan="0" len="288" vol="100" />
          <note key="87" pos="288" pan="0" len="180" vol="100" />
          <note key="86" pos="576" pan="0" len="288" vol="100" />
          <note key="87" pos="864" pan="0" len="192" vol="100" />
          <note key="89" pos="1152" pan="0" len="288" vol="100" />
          <note key="87" pos="1440" pan="0" len="180" vol="100" />
          <note key="86" pos="1728" pan="0" len="288" vol="100" />
          <note key="84" pos="2016" pan="0" len="192" vol="100" />
        </pattern>
        <pattern pos="76032" muted="0" steps="16" name="" type="1">
          <note key="86" pos="0" pan="0" len="288" vol="100" />
          <note key="84" pos="288" pan="0" len="180" vol="100" />
          <note key="83" pos="576" pan="0" len="288" vol="100" />
          <note key="84" pos="864" pan="0" len="192" vol="100" />
          <note key="86" pos="1152" pan="0" len="288" vol="100" />
          <note key="84" pos="1440" pan="0" len="180" vol="100" />
          <note key="83" pos="1728" pan="0" len="288" vol="100" />
          <note key="81" pos="2016" pan="0" len="192" vol="100" />
        </pattern>
        <pattern pos="85248" muted="0" steps="16" name="" type="1">
          <note key="89" pos="0" pan="0" len="288" vol="100" />
          <note key="87" pos="288" pan="0" len="180" vol="100" />
          <note key="86" pos="576" pan="0" len="288" vol="100" />
          <note key="87" pos="864" pan="0" len="192" vol="100" />
          <note key="89" pos="1152" pan="0" len="288" vol="100" />
          <note key="87" pos="1440" pan="0" len="180" vol="100" />
          <note key="86" pos="1728" pan="0" len="288" vol="100" />
          <note key="84" pos="2016" pan="0" len="192" vol="100" />
        </pattern>
        <pattern pos="87552" muted="0" steps="16" name="" type="1">
          <note key="86" pos="0" pan="0" len="288" vol="100" />
          <note key="84" pos="288" pan="0" len="180" vol="100" />
          <note key="83" pos="576" pan="0" len="288" vol="100" />
          <note key="84" pos="864" pan="0" len="192" vol="100" />
          <note key="86" pos="1152" pan="0" len="288" vol="100" />
          <note key="84" pos="1440" pan="0" len="180" vol="100" />
          <note key="83" pos="1728" pan="0" len="288" vol="100" />
          <note key="81" pos="2016" pan="0" len="192" vol="100" />
        </pattern>
        <pattern pos="237324" muted="0" steps="16" name="" type="1">
          <note key="73" pos="1044" pan="0" len="48" vol="100" />
          <note key="72" pos="1092" pan="0" len="60" vol="100" />
          <note key="70" pos="1428" pan="0" len="48" vol="100" />
          <note key="82" pos="1476" pan="0" len="48" vol="100" />
        </pattern>
      </track>
      <track solo="0" name="4 (Ch14)" type="0" muted="0">
        <instrumenttrack usemasterpitch="1" pitch="0.0" basenote="57" pan="0" pitchrange="12" vol="30">
          <eldata />
          <instrument name="tripleoscillator" />
        </instrumenttrack>
        <pattern pos="63360" muted="0" steps="16" name="" type="1">
          <note key="79" pos="1008" pan="0" len="60" vol="100" />
        </pattern>
        <pattern pos="62208" muted="0" steps="16" name="" type="1">
          <note key="82" pos="0" pan="0" len="144" vol="34" />
          <note key="86" pos="144" pan="0" len="144" vol="52" />
          <note key="88" pos="288" pan="0" len="144" vol="86" />
          <note key="82" pos="576" pan="0" len="144" vol="34" />
          <note key="86" pos="720" pan="0" len="144" vol="52" />
          <note key="88" pos="864" pan="0" len="144" vol="86" />
        </pattern>
      </track>
      <track solo="0" name="5 (Ch1)" type="0" muted="0">
        <instrumenttrack usemasterpitch="1" pitch="0.0" basenote="57" pan="0" pitchrange="12" vol="30">
          <eldata />
          <instrument name="tripleoscillator" />
        </instrumenttrack>
        <pattern pos="276444" muted="0" steps="16" name="" type="1">
          <note key="64" pos="588" pan="0" len="36" vol="59" />
          <note key="71" pos="660" pan="0" len="36" vol="59" />
          <note key="78" pos="732" pan="0" len="36" vol="59" />
          <note key="76" pos="804" pan="0" len="36" vol="59" />
          <note key="75" pos="852" pan="0" len="12" vol="28" />
          <note key="71" pos="864" pan="0" len="12" vol="38" />
          <note key="68" pos="876" pan="0" len="36" vol="59" />
          <note key="73" pos="948" pan="0" len="36" vol="59" />
          <note key="75" pos="1020" pan="0" len="72" vol="9" />
          <note key="73" pos="1092" pan="0" len="60" vol="59" />
        </pattern>
        <pattern pos="271692" muted="0" steps="16" name="" type="1">
          <note key="64" pos="588" pan="0" len="36" vol="59" />
          <note key="71" pos="660" pan="0" len="36" vol="59" />
          <note key="78" pos="732" pan="0" len="36" vol="59" />
          <note key="76" pos="804" pan="0" len="36" vol="59" />
          <note key="75" pos="852" pan="0" len="12" vol="28" />
          <note key="71" pos="864" pan="0" len="12" vol="38" />
          <note key="68" pos="876" pan="0" len="36" vol="59" />
          <note key="73" pos="948" pan="0" len="36" vol="59" />
          <note key="80" pos="1020" pan="0" len="72" vol="9" />
          <note key="78" pos="1092" pan="0" len="60" vol="59" />
        </pattern>
        <pattern pos="272844" muted="0" steps="16" name="" type="1">
          <note key="80" pos="0" pan="0" len="144" vol="100" />
        </pattern>
      </track>
      <track solo="0" name="5 (Ch2)" type="0" muted="0">
        <instrumenttrack usemasterpitch="1" pitch="0.0" basenote="57" pan="0" pitchrange="12" vol="30">
          <eldata />
          <instrument name="tripleoscillator" />
        </instrumenttrack>
        <pattern pos="276444" muted="0" steps="16" name="" type="1">
          <note key="64" pos="576" pan="0" len="36" vol="100" />
          <note key="71" pos="648" pan="0" len="36" vol="100" />
          <note key="78" pos="720" pan="0" len="36" vol="100" />
          <note key="76" pos="792" pan="0" len="36" vol="100" />
          <note key="75" pos="840" pan="0" len="12" vol="47" />
          <note key="71" pos="852" pan="0" len="12" vol="62" />
          <note key="68" pos="864" pan="0" len="36" vol="100" />
          <note key="73" pos="936" pan="0" len="36" vol="100" />
          <note key="75" pos="1008" pan="0" len="72" vol="16" />
          <note key="73" pos="1080" pan="0" len="72" vol="100" />
        </pattern>
        <pattern pos="271692" muted="0" steps="16" name="" type="1">
          <note key="64" pos="576" pan="0" len="36" vol="100" />
          <note key="71" pos="648" pan="0" len="36" vol="100" />
          <note key="78" pos="720" pan="0" len="36" vol="100" />
          <note key="76" pos="792" pan="0" len="36" vol="100" />
          <note key="75" pos="840" pan="0" len="12" vol="47" />
          <note key="71" pos="852" pan="0" len="12" vol="62" />
          <note key="68" pos="864" pan="0" len="36" vol="100" />
          <note key="73" pos="936" pan="0" len="36" vol="100" />
          <note key="80" pos="1008" pan="0" len="72" vol="16" />
          <note key="78" pos="1080" pan="0" len="72" vol="100" />
        </pattern>
      </track>
      <track solo="0" name="5 (Ch3)" type="0" muted="0">
        <instrumenttrack usemasterpitch="1" pitch="0.0" basenote="57" pan="0" pitchrange="12" vol="30">
          <eldata />
          <instrument name="tripleoscillator" />
        </instrumenttrack>
        <pattern pos="277596" muted="0" steps="16" name="" type="1">
          <note key="75" pos="0" pan="0" len="36" vol="100" />
        </pattern>
      </track>
      <track solo="0" name="5 (Ch5)" type="0" muted="0">
        <instrumenttrack usemasterpitch="1" pitch="0.0" basenote="57" pan="0" pitchrange="12" vol="30">
          <eldata />
          <instrument name="tripleoscillator" />
        </instrumenttrack>
        <pattern pos="280476" muted="0" steps="16" name="" type="1">
          <note key="65" pos="0" pan="0" len="24" vol="100" />
          <note key="67" pos="36" pan="0" len="24" vol="100" />
          <note key="68" pos="72" pan="0" len="24" vol="100" />
          <note key="70" pos="108" pan="0" len="36" vol="100" />
          <note key="75" pos="144" pan="0" len="12" vol="100" />
        </pattern>
        <pattern pos="248076" muted="0" steps="16" name="" type="1">
          <note key="58" pos="0" pan="0" len="12" vol="100" />
        </pattern>
        <pattern pos="268044" muted="0" steps="16" name="" type="1">
          <note key="49" pos="192" pan="0" len="12" vol="100" />
          <note key="50" pos="204" pan="0" len="12" vol="100" />
          <note key="51" pos="216" pan="0" len="120" vol="100" />
          <note key="50" pos="336" pan="0" len="24" vol="100" />
          <note key="43" pos="360" pan="0" len="24" vol="100" />
        </pattern>
      </track>
      <track solo="0" name="5 (Ch6)" type="0" muted="0">
        <instrumenttrack usemasterpitch="1" pitch="0.0" basenote="57" pan="0" pitchrange="12" vol="30">
          <eldata />
          <instrument name="tripleoscillator" />
        </instrumenttrack>
        <pattern pos="280476" muted="0" steps="16" name="" type="1">
          <note key="61" pos="0" pan="0" len="24" vol="100" />
          <note key="63" pos="36" pan="0" len="24" vol="100" />
          <note key="73" pos="72" pan="0" len="24" vol="100" />
          <note key="77" pos="108" pan="0" len="36" vol="100" />
          <note key="79" pos="144" pan="0" len="12" vol="100" />
        </pattern>
        <pattern pos="78336" muted="0" steps="16" name="" type="1">
          <note key="62" pos="0" pan="0" len="48" vol="100" />
          <note key="62" pos="576" pan="0" len="48" vol="100" />
          <note key="62" pos="1152" pan="0" len="48" vol="100" />
          <note key="62" pos="1728" pan="0" len="48" vol="100" />
        </pattern>
        <pattern pos="89856" muted="0" steps="16" name="" type="1">
          <note key="62" pos="0" pan="0" len="48" vol="100" />
          <note key="62" pos="576" pan="0" len="48" vol="100" />
          <note key="62" pos="1152" pan="0" len="48" vol="100" />
          <note key="62" pos="1728" pan="0" len="48" vol="100" />
        </pattern>
      </track>
      <track solo="0" name="5 (Ch7)" type="0" muted="0">
        <instrumenttrack usemasterpitch="1" pitch="0.0" basenote="57" pan="0" pitchrange="12" vol="30">
          <eldata />
          <instrument name="tripleoscillator" />
        </instrumenttrack>
        <pattern pos="272844" muted="0" steps="16" name="" type="1">
          <note key="44" pos="0" pan="0" len="144" vol="62" />
        </pattern>
        <pattern pos="56448" muted="0" steps="16" name="" type="1">
          <note key="62" pos="0" pan="0" len="12" vol="100" />
          <note key="50" pos="72" pan="0" len="12" vol="100" />
          <note key="62" pos="144" pan="0" len="12" vol="100" />
          <note key="50" pos="216" pan="0" len="24" vol="100" />
          <note key="62" pos="288" pan="0" len="12" vol="100" />
          <note key="50" pos="360" pan="0" len="12" vol="100" />
          <note key="62" pos="432" pan="0" len="12" vol="100" />
          <note key="50" pos="504" pan="0" len="24" vol="100" />
          <note key="62" pos="576" pan="0" len="12" vol="100" />
          <note key="50" pos="648" pan="0" len="12" vol="100" />
          <note key="62" pos="720" pan="0" len="12" vol="100" />
          <note key="50" pos="792" pan="0" len="24" vol="100" />
          <note key="62" pos="864" pan="0" len="12" vol="100" />
          <note key="50" pos="936" pan="0" len="12" vol="100" />
          <note key="62" pos="1008" pan="0" len="12" vol="100" />
          <note key="62" pos="1080" pan="0" len="12" vol="100" />
        </pattern>
        <pattern pos="57600" muted="0" steps="16" name="" type="1">
          <note key="62" pos="0" pan="0" len="12" vol="100" />
          <note key="50" pos="72" pan="0" len="12" vol="100" />
          <note key="62" pos="144" pan="0" len="12" vol="100" />
          <note key="50" pos="216" pan="0" len="24" vol="100" />
          <note key="62" pos="288" pan="0" len="12" vol="100" />
          <note key="50" pos="360" pan="0" len="12" vol="100" />
          <note key="62" pos="432" pan="0" len="12" vol="100" />
          <note key="50" pos="504" pan="0" len="24" vol="100" />
          <note key="62" pos="576" pan="0" len="12" vol="100" />
          <note key="50" pos="648" pan="0" len="12" vol="100" />
          <note key="62" pos="720" pan="0" len="12" vol="100" />
          <note key="50" pos="792" pan="0" len="24" vol="100" />
          <note key="62" pos="864" pan="0" len="12" vol="100" />
          <note key="50" pos="936" pan="0" len="12" vol="100" />
          <note key="62" pos="1008" pan="0" len="12" vol="100" />
          <note key="50" pos="1080" pan="0" len="24" vol="100" />
        </pattern>
        <pattern pos="58752" muted="0" steps="16" name="" type="1">
          <note key="62" pos="0" pan="0" len="12" vol="100" />
          <note key="50" pos="72" pan="0" len="12" vol="100" />
          <note key="62" pos="144" pan="0" len="12" vol="100" />
          <note key="50" pos="216" pan="0" len="24" vol="100" />
          <note key="62" pos="288" pan="0" len="12" vol="100" />
          <note key="50" pos="360" pan="0" len="12" vol="100" />
          <note key="62" pos="432" pan="0" len="12" vol="100" />
          <note key="50" pos="504" pan="0" len="24" vol="100" />
          <note key="62" pos="576" pan="0" len="12" vol="100" />
          <note key="50" pos="648" pan="0" len="12" vol="100" />
          <note key="60" pos="720" pan="0" len="12" vol="100" />
          <note key="48" pos="792" pan="0" len="12" vol="100" />
          <note key="55" pos="864" pan="0" len="12" vol="100" />
          <note key="43" pos="936" pan="0" len="12" vol="100" />
          <note key="55" pos="1008" pan="0" len="12" vol="100" />
          <note key="53" pos="1080" pan="0" len="12" vol="100" />
        </pattern>
        <pattern pos="59904" muted="0" steps="16" name="" type="1">
          <note key="62" pos="0" pan="0" len="12" vol="100" />
          <note key="50" pos="72" pan="0" len="12" vol="100" />
          <note key="53" pos="144" pan="0" len="12" vol="100" />
          <note key="55" pos="216" pan="0" len="24" vol="100" />
          <note key="62" pos="288" pan="0" len="12" vol="100" />
          <note key="50" pos="360" pan="0" len="12" vol="100" />
          <note key="53" pos="432" pan="0" len="12" vol="100" />
          <note key="55" pos="504" pan="0" len="24" vol="100" />
          <note key="62" pos="576" pan="0" len="12" vol="100" />
          <note key="50" pos="648" pan="0" len="12" vol="100" />
          <note key="60" pos="720" pan="0" len="12" vol="100" />
          <note key="48" pos="792" pan="0" len="24" vol="100" />
          <note key="55" pos="864" pan="0" len="12" vol="100" />
          <note key="43" pos="936" pan="0" len="12" vol="100" />
          <note key="55" pos="1008" pan="0" len="12" vol="100" />
          <note key="65" pos="1080" pan="0" len="24" vol="100" />
          <note key="64" pos="1104" pan="0" len="24" vol="100" />
          <note key="60" pos="1128" pan="0" len="24" vol="100" />
        </pattern>
        <pattern pos="61056" muted="0" steps="16" name="" type="1">
          <note key="62" pos="0" pan="0" len="12" vol="100" />
          <note key="50" pos="72" pan="0" len="12" vol="100" />
          <note key="62" pos="144" pan="0" len="12" vol="100" />
          <note key="50" pos="216" pan="0" len="24" vol="100" />
          <note key="62" pos="288" pan="0" len="12" vol="100" />
          <note key="50" pos="360" pan="0" len="12" vol="100" />
          <note key="62" pos="432" pan="0" len="12" vol="100" />
          <note key="50" pos="504" pan="0" len="24" vol="100" />
          <note key="62" pos="576" pan="0" len="12" vol="100" />
          <note key="50" pos="648" pan="0" len="12" vol="100" />
          <note key="62" pos="720" pan="0" len="12" vol="100" />
          <note key="50" pos="792" pan="0" len="24" vol="100" />
          <note key="62" pos="864" pan="0" len="12" vol="100" />
          <note key="50" pos="936" pan="0" len="12" vol="100" />
          <note key="62" pos="1008" pan="0" len="12" vol="100" />
          <note key="50" pos="1080" pan="0" len="24" vol="100" />
        </pattern>
        <pattern pos="62208" muted="0" steps="16" name="" type="1">
          <note key="55" pos="0" pan="0" len="12" vol="100" />
          <note key="43" pos="72" pan="0" len="12" vol="100" />
          <note key="58" pos="144" pan="0" len="12" vol="100" />
          <note key="46" pos="216" pan="0" len="24" vol="100" />
          <note key="60" pos="288" pan="0" len="12" vol="100" />
          <note key="48" pos="360" pan="0" len="12" vol="100" />
          <note key="60" pos="432" pan="0" len="12" vol="100" />
          <note key="60" pos="504" pan="0" len="24" vol="100" />
          <note key="55" pos="576" pan="0" len="12" vol="100" />
          <note key="43" pos="648" pan="0" len="12" vol="100" />
          <note key="58" pos="720" pan="0" len="12" vol="100" />
          <note key="46" pos="792" pan="0" len="24" vol="100" />
          <note key="60" pos="864" pan="0" len="12" vol="100" />
          <note key="48" pos="936" pan="0" len="12" vol="100" />
          <note key="53" pos="1008" pan="0" len="12" vol="100" />
          <note key="60" pos="1080" pan="0" len="24" vol="100" />
        </pattern>
        <pattern pos="63360" muted="0" steps="16" name="" type="1">
          <note key="50" pos="0" pan="0" len="12" vol="100" />
          <note key="62" pos="72" pan="0" len="12" vol="100" />
          <note key="53" pos="144" pan="0" len="12" vol="100" />
          <note key="55" pos="216" pan="0" len="24" vol="100" />
          <note key="50" pos="288" pan="0" len="12" vol="100" />
          <note key="62" pos="360" pan="0" len="12" vol="100" />
          <note key="53" pos="432" pan="0" len="12" vol="100" />
          <note key="48" pos="504" pan="0" len="24" vol="100" />
          <note key="62" pos="576" pan="0" len="12" vol="100" />
          <note key="50" pos="648" pan="0" len="12" vol="100" />
          <note key="53" pos="720" pan="0" len="12" vol="100" />
          <note key="48" pos="792" pan="0" len="24" vol="100" />
          <note key="65" pos="864" pan="0" len="12" vol="100" />
          <note key="60" pos="936" pan="0" len="12" vol="100" />
          <note key="55" pos="1008" pan="0" len="12" vol="100" />
          <note key="65" pos="1080" pan="0" len="24" vol="100" />
          <note key="64" pos="1104" pan="0" len="24" vol="100" />
          <note key="60" pos="1128" pan="0" len="24" vol="100" />
        </pattern>
        <pattern pos="64512" muted="0" steps="16" name="" type="1">
          <note key="62" pos="0" pan="0" len="12" vol="100" />
          <note key="50" pos="72" pan="0" len="12" vol="100" />
          <note key="62" pos="144" pan="0" len="12" vol="100" />
          <note key="50" pos="216" pan="0" len="24" vol="100" />
          <note key="62" pos="288" pan="0" len="12" vol="100" />
          <note key="50" pos="360" pan="0" len="12" vol="100" />
          <note key="62" pos="432" pan="0" len="12" vol="100" />
          <note key="50" pos="504" pan="0" len="24" vol="100" />
          <note key="62" pos="576" pan="0" len="12" vol="100" />
          <note key="50" pos="648" pan="0" len="12" vol="100" />
          <note key="62" pos="720" pan="0" len="12" vol="100" />
          <note key="50" pos="792" pan="0" len="24" vol="100" />
          <note key="62" pos="864" pan="0" len="12" vol="100" />
          <note key="50" pos="936" pan="0" len="12" vol="100" />
          <note key="62" pos="1008" pan="0" len="12" vol="100" />
          <note key="50" pos="1080" pan="0" len="24" vol="100" />
        </pattern>
        <pattern pos="65664" muted="0" steps="16" name="" type="1">
          <note key="62" pos="0" pan="0" len="12" vol="100" />
          <note key="50" pos="72" pan="0" len="12" vol="100" />
          <note key="62" pos="144" pan="0" len="12" vol="100" />
          <note key="50" pos="216" pan="0" len="24" vol="100" />
          <note key="62" pos="288" pan="0" len="12" vol="100" />
          <note key="50" pos="360" pan="0" len="12" vol="100" />
          <note key="62" pos="432" pan="0" len="12" vol="100" />
          <note key="50" pos="504" pan="0" len="24" vol="100" />
          <note key="62" pos="576" pan="0" len="12" vol="100" />
          <note key="50" pos="648" pan="0" len="12" vol="100" />
          <note key="62" pos="720" pan="0" len="12" vol="100" />
          <note key="50" pos="792" pan="0" len="24" vol="100" />
          <note key="62" pos="864" pan="0" len="12" vol="100" />
          <note key="50" pos="936" pan="0" len="12" vol="100" />
          <note key="62" pos="1008" pan="0" len="12" vol="100" />
          <note key="50" pos="1080" pan="0" len="72" vol="100" />
        </pattern>
        <pattern pos="78336" muted="0" steps="16" name="" type="1">
          <note key="50" pos="0" pan="0" len="72" vol="100" />
          <note key="50" pos="576" pan="0" len="96" vol="100" />
          <note key="50" pos="1152" pan="0" len="72" vol="100" />
          <note key="50" pos="1728" pan="0" len="96" vol="100" />
        </pattern>
        <pattern pos="89856" muted="0" steps="16" name="" type="1">
          <note key="50" pos="0" pan="0" len="72" vol="100" />
          <note key="50" pos="576" pan="0" len="96" vol="100" />
          <note key="50" pos="1152" pan="0" len="72" vol="100" />
          <note key="50" pos="1728" pan="0" len="96" vol="100" />
        </pattern>
      </track>
      <track solo="0" name="5 (Ch8)" type="0" muted="0">
        <instrumenttrack usemasterpitch="1" pitch="0.0" basenote="57" pan="0" pitchrange="12" vol="30">
          <eldata />
          <instrument name="tripleoscillator" />
        </instrumenttrack>
        <pattern pos="220428" muted="0" steps="16" name="" type="1">
          <note key="55" pos="384" pan="0" len="96" vol="100" />
        </pattern>
        <pattern pos="0" muted="0" steps="16" name="" type="1">
          <note key="36" pos="384" pan="0" len="192" vol="33" />
          <note key="48" pos="768" pan="0" len="96" vol="33" />
          <note key="36" pos="864" pan="0" len="96" vol="33" />
          <note key="53" pos="1440" pan="0" len="72" vol="100" />
        </pattern>
      </track>
      <track solo="0" name="5 (Ch9)" type="0" muted="0">
        <instrumenttrack usemasterpitch="1" pitch="0.0" basenote="57" pan="0" pitchrange="12" vol="30">
          <eldata />
          <instrument name="tripleoscillator" />
        </instrumenttrack>
        <pattern pos="230412" muted="0" steps="16" name="" type="1">
          <note key="46" pos="384" pan="0" len="60" vol="100" />
          <note key="46" pos="1152" pan="0" len="60" vol="100" />
        </pattern>
        <pattern pos="6144" muted="0" steps="16" name="" type="1">
          <note key="53" pos="864" pan="0" len="96" vol="100" />
          <note key="55" pos="1056" pan="0" len="96" vol="100" />
          <note key="56" pos="1248" pan="0" len="96" vol="100" />
          <note key="58" pos="1440" pan="0" len="72" vol="100" />
        </pattern>
        <pattern pos="10752" muted="0" steps="16" name="" type="1">
          <note key="53" pos="864" pan="0" len="96" vol="100" />
          <note key="55" pos="1056" pan="0" len="96" vol="100" />
          <note key="56" pos="1248" pan="0" len="96" vol="100" />
          <note key="58" pos="1440" pan="0" len="72" vol="100" />
        </pattern>
        <pattern pos="215820" muted="0" steps="16" name="" type="1">
          <note key="53" pos="288" pan="0" len="60" vol="100" />
          <note key="55" pos="384" pan="0" len="144" vol="100" />
          <note key="48" pos="768" pan="0" len="132" vol="100" />
          <note key="58" pos="1056" pan="0" len="60" vol="100" />
          <note key="58" pos="1392" pan="0" len="72" vol="100" />
        </pattern>
        <pattern pos="217356" muted="0" steps="16" name="" type="1">
          <note key="53" pos="288" pan="0" len="60" vol="100" />
          <note key="55" pos="384" pan="0" len="144" vol="100" />
          <note key="48" pos="768" pan="0" len="132" vol="100" />
          <note key="58" pos="1056" pan="0" len="60" vol="100" />
          <note key="58" pos="1392" pan="0" len="72" vol="100" />
        </pattern>
        <pattern pos="224268" muted="0" steps="16" name="" type="1">
          <note key="46" pos="384" pan="0" len="60" vol="100" />
          <note key="46" pos="1152" pan="0" len="60" vol="100" />
        </pattern>
      </track>
      <track solo="0" name="5 (Ch10)" type="0" muted="0">
        <instrumenttrack usemasterpitch="1" pitch="0.0" basenote="57" pan="0" pitchrange="12" vol="30">
          <eldata />
          <instrument name="tripleoscillator" />
        </instrumenttrack>
        <pattern pos="209676" muted="0" steps="16" name="" type="1">
          <note key="53" pos="288" pan="0" len="60" vol="100" />
          <note key="55" pos="384" pan="0" len="144" vol="100" />
          <note key="48" pos="768" pan="0" len="132" vol="100" />
          <note key="58" pos="1056" pan="0" len="60" vol="100" />
          <note key="58" pos="1392" pan="0" len="72" vol="100" />
        </pattern>
        <pattern pos="12288" muted="0" steps="16" name="" type="1">
          <note key="72" pos="0" pan="0" len="216" vol="100" />
        </pattern>
        <pattern pos="18432" muted="0" steps="16" name="" type="1">
          <note key="65" pos="1344" pan="0" len="12" vol="100" />
        </pattern>
        <pattern pos="208140" muted="0" steps="16" name="" type="1">
          <note key="53" pos="288" pan="0" len="60" vol="100" />
          <note key="55" pos="384" pan="0" len="144" vol="100" />
          <note key="48" pos="768" pan="0" len="132" vol="100" />
          <note key="58" pos="1056" pan="0" len="60" vol="100" />
          <note key="58" pos="1392" pan="0" len="72" vol="100" />
        </pattern>
      </track>
      <track solo="0" name="5 (Ch11)" type="0" muted="0">
        <instrumenttrack usemasterpitch="1" pitch="0.0" basenote="57" pan="0" pitchrange="12" vol="30">
          <eldata />
          <instrument name="tripleoscillator" />
        </instrumenttrack>
        <pattern pos="118272" muted="0" steps="16" name="" type="1">
          <note key="62" pos="48" pan="0" len="24" vol="9" />
          <note key="58" pos="72" pan="0" len="24" vol="100" />
        </pattern>
        <pattern pos="10752" muted="0" steps="16" name="" type="1">
          <note key="53" pos="0" pan="0" len="96" vol="100" />
          <note key="55" pos="192" pan="0" len="96" vol="100" />
          <note key="56" pos="384" pan="0" len="96" vol="100" />
          <note key="58" pos="576" pan="0" len="96" vol="100" />
          <note key="65" pos="768" pan="0" len="96" vol="100" />
          <note key="67" pos="960" pan="0" len="96" vol="100" />
          <note key="68" pos="1152" pan="0" len="96" vol="100" />
          <note key="72" pos="1248" pan="0" len="96" vol="100" />
          <note key="70" pos="1344" pan="0" len="96" vol="100" />
        </pattern>
      </track>
      <track solo="0" name="5 (Ch12)" type="0" muted="0">
        <instrumenttrack usemasterpitch="1" pitch="0.0" basenote="57" pan="0" pitchrange="12" vol="30">
          <eldata />
          <instrument name="tripleoscillator" />
        </instrumenttrack>
        <pattern pos="169740" muted="0" steps="16" name="" type="1">
          <note key="77" pos="1248" pan="0" len="72" vol="100" />
        </pattern>
      </track>
      <track solo="0" name="5 (Ch13)" type="0" muted="0">
        <instrumenttrack usemasterpitch="1" pitch="0.0" basenote="57" pan="0" pitchrange="12" vol="30">
          <eldata />
          <instrument name="tripleoscillator" />
        </instrumenttrack>
        <pattern pos="169740" muted="0" steps="16" name="" type="1">
          <note key="57" pos="624" pan="0" len="24" vol="100" />
          <note key="60" pos="672" pan="0" len="60" vol="100" />
          <note key="59" pos="768" pan="0" len="60" vol="100" />
          <note key="62" pos="864" pan="0" len="60" vol="100" />
          <note key="63" pos="960" pan="0" len="72" vol="100" />
          <note key="67" pos="1056" pan="0" len="72" vol="100" />
          <note key="65" pos="1152" pan="0" len="96" vol="100" />
          <note key="58" pos="1248" pan="0" len="72" vol="100" />
        </pattern>
      </track>
      <track solo="0" name="5 (Ch14)" type="0" muted="0">
        <instrumenttrack usemasterpitch="1" pitch="0.0" basenote="57" pan="0" pitchrange="12" vol="30">
          <eldata />
          <instrument name="tripleoscillator" />
        </instrumenttrack>
        <pattern pos="24576" muted="0" steps="16" name="" type="1">
          <note key="63" pos="648" pan="0" len="120" vol="100" />
        </pattern>
      </track>
      <track solo="0" name="5 (Ch15)" type="0" muted="0">
        <instrumenttrack usemasterpitch="1" pitch="0.0" basenote="57" pan="0" pitchrange="12" vol="30">
          <eldata />
          <instrument name="tripleoscillator" />
        </instrumenttrack>
        <pattern pos="29184" muted="0" steps="16" name="" type="1">
          <note key="72" pos="384" pan="0" len="12" vol="100" />
        </pattern>
        <pattern pos="24576" muted="0" steps="16" name="" type="1">
          <note key="41" pos="768" pan="0" len="72" vol="100" />
        </pattern>
      </track>
      <track solo="0" name="5 (Ch16)" type="0" muted="0">
        <instrumenttrack usemasterpitch="1" pitch="0.0" basenote="57" pan="0" pitchrange="12" vol="30">
          <eldata />
          <instrument name="tripleoscillator" />
        </instrumenttrack>
        <pattern pos="29184" muted="0" steps="16" name="" type="1">
          <note key="48" pos="384" pan="0" len="12" vol="100" />
        </pattern>
        <pattern pos="6144" muted="0" steps="16" name="" type="1">
          <note key="80" pos="672" pan="0" len="72" vol="50" />
          <note key="79" pos="744" pan="0" len="24" vol="50" />
          <note key="80" pos="768" pan="0" len="72" vol="50" />
          <note key="84" pos="912" pan="0" len="12" vol="50" />
          <note key="82" pos="936" pan="0" len="12" vol="50" />
          <note key="84" pos="960" pan="0" len="60" vol="50" />
          <note key="75" pos="1104" pan="0" len="12" vol="50" />
          <note key="74" pos="1128" pan="0" len="12" vol="50" />
          <note key="75" pos="1152" pan="0" len="72" vol="50" />
          <note key="79" pos="1248" pan="0" len="72" vol="50" />
          <note key="75" pos="1320" pan="0" len="24" vol="50" />
          <note key="77" pos="1344" pan="0" len="96" vol="50" />
        </pattern>
      </track>
      <track solo="0" name="6 (Ch3)" type="0" muted="0">
        <instrumenttrack usemasterpitch="1" pitch="0.0" basenote="57" pan="0" pitchrange="12" vol="30">
          <eldata />
          <instrument name="tripleoscillator" />
        </instrumenttrack>
        <pattern pos="55296" muted="0" steps="16" name="" type="1">
          <note key="50" pos="0" pan="0" len="96" vol="100" />
          <note key="50" pos="192" pan="0" len="96" vol="100" />
        </pattern>
      </track>
      <track solo="0" name="6 (Ch4)" type="0" muted="0">
        <instrumenttrack usemasterpitch="1" pitch="0.0" basenote="57" pan="0" pitchrange="12" vol="30">
          <eldata />
          <instrument name="tripleoscillator" />
        </instrumenttrack>
        <pattern pos="192780" muted="0" steps="16" name="" type="1">
          <note key="64" pos="660" pan="0" len="204" vol="100" />
        </pattern>
        <pattern pos="169740" muted="0" steps="16" name="" type="1">
          <note key="60" pos="1968" pan="0" len="144" vol="100" />
        </pattern>
        <pattern pos="186636" muted="0" steps="16" name="" type="1">
          <note key="64" pos="660" pan="0" len="204" vol="100" />
        </pattern>
      </track>
      <track solo="0" name="6 (Ch5)" type="0" muted="0">
        <instrumenttrack usemasterpitch="1" pitch="0.0" basenote="57" pan="0" pitchrange="12" vol="30">
          <eldata />
          <instrument name="tripleoscillator" />
        </instrumenttrack>
        <pattern pos="50688" muted="0" steps="16" name="" type="1">
          <note key="43" pos="768" pan="0" len="192" vol="100" />
          <note key="46" pos="960" pan="0" len="144" vol="100" />
        </pattern>
        <pattern pos="44544" muted="0" steps="16" name="" type="1">
          <note key="43" pos="768" pan="0" len="192" vol="100" />
          <note key="46" pos="960" pan="0" len="144" vol="100" />
        </pattern>
        <pattern pos="47616" muted="0" steps="16" name="" type="1">
          <note key="43" pos="768" pan="0" len="192" vol="100" />
          <note key="46" pos="960" pan="0" len="144" vol="100" />
        </pattern>
      </track>
      <track solo="0" name="6 (Ch6)" type="0" muted="0">
        <instrumenttrack usemasterpitch="1" pitch="0.0" basenote="57" pan="0" pitchrange="12" vol="30">
          <eldata />
          <instrument name="tripleoscillator" />
        </instrumenttrack>
        <pattern pos="248460" muted="0" steps="16" name="" type="1">
          <note key="75" pos="0" pan="0" len="84" vol="100" />
        </pattern>
        <pattern pos="1536" muted="0" steps="16" name="" type="1">
          <note key="72" pos="1296" pan="0" len="216" vol="100" />
        </pattern>
        <pattern pos="189708" muted="0" steps="16" name="" type="1">
          <note key="50" pos="576" pan="0" len="96" vol="100" />
          <note key="55" pos="672" pan="0" len="96" vol="100" />
          <note key="50" pos="1344" pan="0" len="96" vol="100" />
          <note key="55" pos="1440" pan="0" len="96" vol="100" />
        </pattern>
        <pattern pos="191244" muted="0" steps="16" name="" type="1">
          <note key="52" pos="192" pan="0" len="144" vol="100" />
          <note key="52" pos="960" pan="0" len="144" vol="100" />
        </pattern>
        <pattern pos="194316" muted="0" steps="16" name="" type="1">
          <note key="50" pos="576" pan="0" len="96" vol="100" />
          <note key="55" pos="672" pan="0" len="96" vol="100" />
          <note key="50" pos="1344" pan="0" len="96" vol="100" />
          <note key="55" pos="1440" pan="0" len="96" vol="100" />
        </pattern>
        <pattern pos="195852" muted="0" steps="16" name="" type="1">
          <note key="52" pos="192" pan="0" len="144" vol="100" />
          <note key="52" pos="960" pan="0" len="144" vol="100" />
        </pattern>
      </track>
      <track solo="0" name="6 (Ch7)" type="0" muted="0">
        <instrumenttrack usemasterpitch="1" pitch="0.0" basenote="57" pan="0" pitchrange="12" vol="30">
          <eldata />
          <instrument name="tripleoscillator" />
        </instrumenttrack>
        <pattern pos="248460" muted="0" steps="16" name="" type="1">
          <note key="68" pos="0" pan="0" len="84" vol="100" />
        </pattern>
        <pattern pos="1536" muted="0" steps="16" name="" type="1">
          <note key="60" pos="1296" pan="0" len="216" vol="100" />
        </pattern>
        <pattern pos="220428" muted="0" steps="16" name="" type="1">
          <note key="60" pos="96" pan="0" len="288" vol="100" />
        </pattern>
      </track>
      <track solo="0" name="6 (Ch9)" type="0" muted="0">
        <instrumenttrack usemasterpitch="1" pitch="0.0" basenote="57" pan="0" pitchrange="12" vol="30">
          <eldata />
          <instrument name="tripleoscillator" />
        </instrumenttrack>
        <pattern pos="217356" muted="0" steps="16" name="" type="1">
          <note key="51" pos="0" pan="0" len="252" vol="100" />
          <note key="56" pos="1152" pan="0" len="192" vol="100" />
        </pattern>
        <pattern pos="38400" muted="0" steps="16" name="" type="1">
          <note key="63" pos="1152" pan="0" len="192" vol="36" />
        </pattern>
        <pattern pos="215820" muted="0" steps="16" name="" type="1">
          <note key="51" pos="0" pan="0" len="252" vol="100" />
          <note key="56" pos="1152" pan="0" len="192" vol="100" />
        </pattern>
      </track>
      <track solo="0" name="6 (Ch10)" type="0" muted="0">
        <instrumenttrack usemasterpitch="1" pitch="0.0" basenote="57" pan="0" pitchrange="12" vol="30">
          <eldata />
          <instrument name="tripleoscillator" />
        </instrumenttrack>
        <pattern pos="230412" muted="0" steps="16" name="" type="1">
          <note key="58" pos="192" pan="0" len="192" vol="100" />
          <note key="39" pos="960" pan="0" len="192" vol="100" />
        </pattern>
        <pattern pos="18432" muted="0" steps="16" name="" type="1">
          <note key="67" pos="1200" pan="0" len="144" vol="100" />
        </pattern>
        <pattern pos="208140" muted="0" steps="16" name="" type="1">
          <note key="51" pos="0" pan="0" len="288" vol="100" />
          <note key="56" pos="1152" pan="0" len="192" vol="100" />
        </pattern>
        <pattern pos="209676" muted="0" steps="16" name="" type="1">
          <note key="51" pos="0" pan="0" len="288" vol="100" />
          <note key="56" pos="1152" pan="0" len="192" vol="100" />
        </pattern>
        <pattern pos="224268" muted="0" steps="16" name="" type="1">
          <note key="58" pos="192" pan="0" len="192" vol="100" />
          <note key="39" pos="960" pan="0" len="192" vol="100" />
        </pattern>
      </track>
      <track solo="0" name="6 (Ch13)" type="0" muted="0">
        <instrumenttrack usemasterpitch="1" pitch="0.0" basenote="57" pan="0" pitchrange="12" vol="30">
          <eldata />
          <instrument name="tripleoscillator" />
        </instrumenttrack>
        <pattern pos="21504" muted="0" steps="16" name="" type="1">
          <note key="63" pos="1344" pan="0" len="192" vol="100" />
        </pattern>
      </track>
      <track solo="0" name="6 (Ch15)" type="0" muted="0">
        <instrumenttrack usemasterpitch="1" pitch="0.0" basenote="57" pan="0" pitchrange="12" vol="30">
          <eldata />
          <instrument name="tripleoscillator" />
        </instrumenttrack>
        <pattern pos="29184" muted="0" steps="16" name="" type="1">
          <note key="72" pos="240" pan="0" len="144" vol="50" />
        </pattern>
        <pattern pos="24576" muted="0" steps="16" name="" type="1">
          <note key="63" pos="600" pan="0" len="168" vol="100" />
        </pattern>
      </track>
      <track solo="0" name="7 (Ch1)" type="0" muted="0">
        <instrumenttrack usemasterpitch="1" pitch="0.0" basenote="57" pan="0" pitchrange="12" vol="30">
          <eldata />
          <instrument name="tripleoscillator" />
        </instrumenttrack>
        <pattern pos="276444" muted="0" steps="16" name="" type="1">
          <note key="82" pos="504" pan="0" len="84" vol="16" />
        </pattern>
        <pattern pos="172812" muted="0" steps="16" name="" type="1">
          <note key="65" pos="864" pan="0" len="24" vol="100" />
          <note key="63" pos="1248" pan="0" len="24" vol="100" />
        </pattern>
        <pattern pos="271692" muted="0" steps="16" name="" type="1">
          <note key="82" pos="504" pan="0" len="84" vol="16" />
        </pattern>
      </track>
      <track solo="0" name="7 (Ch2)" type="0" muted="0">
        <instrumenttrack usemasterpitch="1" pitch="0.0" basenote="57" pan="0" pitchrange="12" vol="30">
          <eldata />
          <instrument name="tripleoscillator" />
        </instrumenttrack>
        <pattern pos="276444" muted="0" steps="16" name="" type="1">
          <note key="76" pos="504" pan="0" len="72" vol="16" />
        </pattern>
        <pattern pos="166668" muted="0" steps="16" name="" type="1">
          <note key="69" pos="0" pan="0" len="12" vol="100" />
          <note key="69" pos="36" pan="0" len="12" vol="100" />
          <note key="69" pos="72" pan="0" len="12" vol="100" />
          <note key="73" pos="108" pan="0" len="12" vol="100" />
          <note key="76" pos="144" pan="0" len="12" vol="100" />
          <note key="76" pos="180" pan="0" len="12" vol="100" />
          <note key="69" pos="216" pan="0" len="12" vol="100" />
          <note key="69" pos="252" pan="0" len="12" vol="100" />
          <note key="69" pos="288" pan="0" len="12" vol="100" />
          <note key="73" pos="324" pan="0" len="12" vol="100" />
          <note key="76" pos="360" pan="0" len="12" vol="100" />
          <note key="76" pos="396" pan="0" len="12" vol="100" />
          <note key="69" pos="432" pan="0" len="12" vol="100" />
          <note key="69" pos="468" pan="0" len="12" vol="100" />
          <note key="69" pos="504" pan="0" len="12" vol="100" />
          <note key="73" pos="540" pan="0" len="12" vol="100" />
          <note key="76" pos="576" pan="0" len="12" vol="100" />
          <note key="76" pos="612" pan="0" len="12" vol="100" />
          <note key="69" pos="648" pan="0" len="12" vol="100" />
          <note key="69" pos="684" pan="0" len="12" vol="100" />
          <note key="69" pos="720" pan="0" len="12" vol="100" />
          <note key="73" pos="756" pan="0" len="12" vol="100" />
          <note key="76" pos="792" pan="0" len="12" vol="100" />
          <note key="76" pos="828" pan="0" len="12" vol="100" />
          <note key="69" pos="864" pan="0" len="12" vol="100" />
          <note key="69" pos="900" pan="0" len="12" vol="100" />
          <note key="69" pos="936" pan="0" len="12" vol="100" />
          <note key="73" pos="972" pan="0" len="12" vol="100" />
          <note key="76" pos="1008" pan="0" len="12" vol="100" />
          <note key="76" pos="1044" pan="0" len="12" vol="100" />
          <note key="69" pos="1080" pan="0" len="12" vol="100" />
          <note key="69" pos="1116" pan="0" len="12" vol="100" />
          <note key="69" pos="1152" pan="0" len="12" vol="100" />
          <note key="73" pos="1188" pan="0" len="12" vol="100" />
          <note key="76" pos="1224" pan="0" len="12" vol="100" />
          <note key="76" pos="1260" pan="0" len="12" vol="100" />
          <note key="69" pos="1296" pan="0" len="12" vol="100" />
          <note key="69" pos="1332" pan="0" len="12" vol="100" />
          <note key="69" pos="1368" pan="0" len="12" vol="100" />
          <note key="73" pos="1404" pan="0" len="12" vol="100" />
          <note key="76" pos="1440" pan="0" len="12" vol="100" />
          <note key="76" pos="1476" pan="0" len="12" vol="100" />
        </pattern>
        <pattern pos="172812" muted="0" steps="16" name="" type="1">
          <note key="69" pos="864" pan="0" len="24" vol="100" />
          <note key="67" pos="1248" pan="0" len="24" vol="100" />
        </pattern>
        <pattern pos="271692" muted="0" steps="16" name="" type="1">
          <note key="76" pos="504" pan="0" len="72" vol="16" />
        </pattern>
      </track>
      <track solo="0" name="7 (Ch3)" type="0" muted="0">
        <instrumenttrack usemasterpitch="1" pitch="0.0" basenote="57" pan="0" pitchrange="12" vol="30">
          <eldata />
          <instrument name="tripleoscillator" />
        </instrumenttrack>
        <pattern pos="276444" muted="0" steps="16" name="" type="1">
          <note key="80" pos="504" pan="0" len="72" vol="16" />
        </pattern>
        <pattern pos="56448" muted="0" steps="16" name="" type="1">
          <note key="69" pos="576" pan="0" len="12" vol="100" />
          <note key="69" pos="720" pan="0" len="12" vol="100" />
          <note key="69" pos="864" pan="0" len="12" vol="100" />
        </pattern>
        <pattern pos="57600" muted="0" steps="16" name="" type="1">
          <note key="69" pos="144" pan="0" len="12" vol="100" />
          <note key="69" pos="432" pan="0" len="12" vol="100" />
          <note key="69" pos="720" pan="0" len="12" vol="100" />
          <note key="69" pos="1008" pan="0" len="12" vol="100" />
        </pattern>
        <pattern pos="58752" muted="0" steps="16" name="" type="1">
          <note key="69" pos="576" pan="0" len="12" vol="100" />
          <note key="60" pos="720" pan="0" len="12" vol="100" />
          <note key="59" pos="864" pan="0" len="12" vol="100" />
        </pattern>
        <pattern pos="59904" muted="0" steps="16" name="" type="1">
          <note key="69" pos="144" pan="0" len="12" vol="100" />
          <note key="69" pos="432" pan="0" len="12" vol="100" />
          <note key="72" pos="720" pan="0" len="12" vol="100" />
          <note key="67" pos="864" pan="0" len="12" vol="100" />
          <note key="69" pos="1008" pan="0" len="12" vol="100" />
        </pattern>
        <pattern pos="61056" muted="0" steps="16" name="" type="1">
          <note key="69" pos="144" pan="0" len="12" vol="100" />
          <note key="69" pos="432" pan="0" len="12" vol="100" />
          <note key="69" pos="720" pan="0" len="12" vol="100" />
          <note key="69" pos="1008" pan="0" len="12" vol="100" />
        </pattern>
        <pattern pos="63360" muted="0" steps="16" name="" type="1">
          <note key="69" pos="144" pan="0" len="12" vol="100" />
          <note key="69" pos="432" pan="0" len="12" vol="100" />
          <note key="65" pos="720" pan="0" len="12" vol="100" />
          <note key="65" pos="864" pan="0" len="12" vol="100" />
          <note key="67" pos="1008" pan="0" len="12" vol="100" />
        </pattern>
        <pattern pos="64512" muted="0" steps="16" name="" type="1">
          <note key="69" pos="144" pan="0" len="12" vol="100" />
          <note key="69" pos="432" pan="0" len="12" vol="100" />
          <note key="69" pos="720" pan="0" len="12" vol="100" />
          <note key="69" pos="1008" pan="0" len="12" vol="100" />
        </pattern>
        <pattern pos="65664" muted="0" steps="16" name="" type="1">
          <note key="69" pos="576" pan="0" len="12" vol="100" />
          <note key="69" pos="720" pan="0" len="12" vol="100" />
          <note key="69" pos="864" pan="0" len="12" vol="100" />
        </pattern>
        <pattern pos="69120" muted="0" steps="16" name="" type="1">
          <note key="67" pos="288" pan="0" len="48" vol="100" />
          <note key="65" pos="360" pan="0" len="36" vol="100" />
          <note key="71" pos="864" pan="0" len="48" vol="100" />
          <note key="69" pos="936" pan="0" len="48" vol="100" />
        </pattern>
        <pattern pos="71424" muted="0" steps="16" name="" type="1">
          <note key="67" pos="288" pan="0" len="48" vol="100" />
          <note key="65" pos="360" pan="0" len="36" vol="100" />
          <note key="71" pos="864" pan="0" len="48" vol="100" />
          <note key="69" pos="936" pan="0" len="48" vol="100" />
        </pattern>
        <pattern pos="78336" muted="0" steps="16" name="" type="1">
          <note key="71" pos="864" pan="0" len="48" vol="100" />
          <note key="69" pos="936" pan="0" len="48" vol="100" />
          <note key="71" pos="2016" pan="0" len="48" vol="100" />
          <note key="69" pos="2088" pan="0" len="48" vol="100" />
        </pattern>
        <pattern pos="80640" muted="0" steps="16" name="" type="1">
          <note key="67" pos="288" pan="0" len="48" vol="100" />
          <note key="65" pos="360" pan="0" len="36" vol="100" />
          <note key="71" pos="864" pan="0" len="48" vol="100" />
          <note key="69" pos="936" pan="0" len="48" vol="100" />
        </pattern>
        <pattern pos="82944" muted="0" steps="16" name="" type="1">
          <note key="67" pos="288" pan="0" len="48" vol="100" />
          <note key="65" pos="360" pan="0" len="36" vol="100" />
          <note key="71" pos="864" pan="0" len="48" vol="100" />
          <note key="69" pos="936" pan="0" len="48" vol="100" />
        </pattern>
        <pattern pos="89856" muted="0" steps="16" name="" type="1">
          <note key="71" pos="864" pan="0" len="48" vol="100" />
          <note key="69" pos="936" pan="0" len="48" vol="100" />
        </pattern>
        <pattern pos="166668" muted="0" steps="16" name="" type="1">
          <note key="73" pos="0" pan="0" len="12" vol="100" />
          <note key="73" pos="36" pan="0" len="12" vol="100" />
          <note key="76" pos="72" pan="0" len="12" vol="100" />
          <note key="76" pos="108" pan="0" len="12" vol="100" />
          <note key="80" pos="144" pan="0" len="12" vol="100" />
          <note key="81" pos="180" pan="0" len="12" vol="100" />
          <note key="73" pos="216" pan="0" len="12" vol="100" />
          <note key="73" pos="252" pan="0" len="12" vol="100" />
          <note key="76" pos="288" pan="0" len="12" vol="100" />
          <note key="76" pos="324" pan="0" len="12" vol="100" />
          <note key="80" pos="360" pan="0" len="12" vol="100" />
          <note key="81" pos="396" pan="0" len="12" vol="100" />
          <note key="73" pos="432" pan="0" len="12" vol="100" />
          <note key="73" pos="468" pan="0" len="12" vol="100" />
          <note key="76" pos="504" pan="0" len="12" vol="100" />
          <note key="76" pos="540" pan="0" len="12" vol="100" />
          <note key="80" pos="576" pan="0" len="12" vol="100" />
          <note key="81" pos="612" pan="0" len="12" vol="100" />
          <note key="73" pos="648" pan="0" len="12" vol="100" />
          <note key="73" pos="684" pan="0" len="12" vol="100" />
          <note key="76" pos="720" pan="0" len="12" vol="100" />
          <note key="76" pos="756" pan="0" len="12" vol="100" />
          <note key="80" pos="792" pan="0" len="12" vol="100" />
          <note key="81" pos="828" pan="0" len="12" vol="100" />
          <note key="73" pos="864" pan="0" len="12" vol="100" />
          <note key="73" pos="900" pan="0" len="12" vol="100" />
          <note key="76" pos="936" pan="0" len="12" vol="100" />
          <note key="76" pos="972" pan="0" len="12" vol="100" />
          <note key="80" pos="1008" pan="0" len="12" vol="100" />
          <note key="81" pos="1044" pan="0" len="12" vol="100" />
          <note key="73" pos="1080" pan="0" len="12" vol="100" />
          <note key="73" pos="1116" pan="0" len="12" vol="100" />
          <note key="76" pos="1152" pan="0" len="12" vol="100" />
          <note key="76" pos="1188" pan="0" len="12" vol="100" />
          <note key="80" pos="1224" pan="0" len="12" vol="100" />
          <note key="81" pos="1260" pan="0" len="12" vol="100" />
          <note key="73" pos="1296" pan="0" len="12" vol="100" />
          <note key="73" pos="1332" pan="0" len="12" vol="100" />
          <note key="76" pos="1368" pan="0" len="12" vol="100" />
          <note key="76" pos="1404" pan="0" len="12" vol="100" />
          <note key="80" pos="1440" pan="0" len="12" vol="100" />
          <note key="81" pos="1476" pan="0" len="12" vol="100" />
        </pattern>
        <pattern pos="271692" muted="0" steps="16" name="" type="1">
          <note key="80" pos="504" pan="0" len="72" vol="16" />
        </pattern>
      </track>
      <track solo="0" name="7 (Ch4)" type="0" muted="0">
        <instrumenttrack usemasterpitch="1" pitch="0.0" basenote="57" pan="0" pitchrange="12" vol="30">
          <eldata />
          <instrument name="tripleoscillator" />
        </instrumenttrack>
        <pattern pos="236556" muted="0" steps="16" name="" type="1">
          <note key="58" pos="384" pan="0" len="72" vol="100" />
        </pattern>
        <pattern pos="56448" muted="0" steps="16" name="" type="1">
          <note key="74" pos="576" pan="0" len="12" vol="100" />
          <note key="74" pos="720" pan="0" len="12" vol="100" />
          <note key="74" pos="864" pan="0" len="12" vol="100" />
        </pattern>
        <pattern pos="57600" muted="0" steps="16" name="" type="1">
          <note key="74" pos="0" pan="0" len="12" vol="100" />
          <note key="69" pos="72" pan="0" len="12" vol="100" />
          <note key="74" pos="144" pan="0" len="12" vol="100" />
          <note key="74" pos="288" pan="0" len="12" vol="100" />
          <note key="69" pos="360" pan="0" len="12" vol="100" />
          <note key="74" pos="432" pan="0" len="12" vol="100" />
          <note key="74" pos="576" pan="0" len="12" vol="100" />
          <note key="69" pos="648" pan="0" len="12" vol="100" />
          <note key="74" pos="720" pan="0" len="12" vol="100" />
          <note key="74" pos="864" pan="0" len="12" vol="100" />
          <note key="69" pos="936" pan="0" len="12" vol="100" />
          <note key="74" pos="1008" pan="0" len="12" vol="100" />
        </pattern>
        <pattern pos="58752" muted="0" steps="16" name="" type="1">
          <note key="74" pos="576" pan="0" len="12" vol="100" />
          <note key="64" pos="720" pan="0" len="12" vol="100" />
          <note key="62" pos="864" pan="0" len="12" vol="100" />
          <note key="62" pos="1008" pan="0" len="12" vol="100" />
        </pattern>
        <pattern pos="59904" muted="0" steps="16" name="" type="1">
          <note key="74" pos="0" pan="0" len="12" vol="100" />
          <note key="69" pos="72" pan="0" len="12" vol="100" />
          <note key="72" pos="144" pan="0" len="12" vol="100" />
          <note key="74" pos="288" pan="0" len="12" vol="100" />
          <note key="69" pos="360" pan="0" len="12" vol="100" />
          <note key="72" pos="432" pan="0" len="12" vol="100" />
          <note key="74" pos="576" pan="0" len="12" vol="100" />
          <note key="69" pos="648" pan="0" len="12" vol="100" />
          <note key="76" pos="720" pan="0" len="12" vol="100" />
          <note key="71" pos="864" pan="0" len="12" vol="100" />
          <note key="67" pos="936" pan="0" len="12" vol="100" />
          <note key="74" pos="1008" pan="0" len="12" vol="100" />
        </pattern>
        <pattern pos="61056" muted="0" steps="16" name="" type="1">
          <note key="74" pos="0" pan="0" len="12" vol="100" />
          <note key="69" pos="72" pan="0" len="12" vol="100" />
          <note key="74" pos="144" pan="0" len="12" vol="100" />
          <note key="74" pos="288" pan="0" len="12" vol="100" />
          <note key="69" pos="360" pan="0" len="12" vol="100" />
          <note key="74" pos="432" pan="0" len="12" vol="100" />
          <note key="74" pos="576" pan="0" len="12" vol="100" />
          <note key="69" pos="648" pan="0" len="12" vol="100" />
          <note key="74" pos="720" pan="0" len="12" vol="100" />
          <note key="74" pos="864" pan="0" len="12" vol="100" />
          <note key="69" pos="936" pan="0" len="12" vol="100" />
          <note key="74" pos="1008" pan="0" len="12" vol="100" />
        </pattern>
        <pattern pos="63360" muted="0" steps="16" name="" type="1">
          <note key="74" pos="0" pan="0" len="12" vol="100" />
          <note key="69" pos="72" pan="0" len="12" vol="100" />
          <note key="72" pos="144" pan="0" len="12" vol="100" />
          <note key="74" pos="288" pan="0" len="12" vol="100" />
          <note key="69" pos="360" pan="0" len="12" vol="100" />
          <note key="72" pos="432" pan="0" len="12" vol="100" />
          <note key="74" pos="576" pan="0" len="12" vol="100" />
          <note key="69" pos="648" pan="0" len="12" vol="100" />
          <note key="69" pos="720" pan="0" len="12" vol="100" />
          <note key="69" pos="864" pan="0" len="12" vol="100" />
          <note key="71" pos="1008" pan="0" len="12" vol="100" />
        </pattern>
        <pattern pos="64512" muted="0" steps="16" name="" type="1">
          <note key="74" pos="0" pan="0" len="12" vol="100" />
          <note key="69" pos="72" pan="0" len="12" vol="100" />
          <note key="74" pos="144" pan="0" len="12" vol="100" />
          <note key="74" pos="288" pan="0" len="12" vol="100" />
          <note key="69" pos="360" pan="0" len="12" vol="100" />
          <note key="74" pos="432" pan="0" len="12" vol="100" />
          <note key="74" pos="576" pan="0" len="12" vol="100" />
          <note key="69" pos="648" pan="0" len="12" vol="100" />
          <note key="74" pos="720" pan="0" len="12" vol="100" />
          <note key="74" pos="864" pan="0" len="12" vol="100" />
          <note key="69" pos="936" pan="0" len="12" vol="100" />
          <note key="74" pos="1008" pan="0" len="12" vol="100" />
        </pattern>
        <pattern pos="65664" muted="0" steps="16" name="" type="1">
          <note key="74" pos="576" pan="0" len="12" vol="100" />
          <note key="74" pos="720" pan="0" len="12" vol="100" />
          <note key="74" pos="864" pan="0" len="12" vol="100" />
        </pattern>
        <pattern pos="69120" muted="0" steps="16" name="" type="1">
          <note key="72" pos="288" pan="0" len="48" vol="100" />
          <note key="69" pos="360" pan="0" len="36" vol="100" />
          <note key="74" pos="864" pan="0" len="48" vol="100" />
          <note key="74" pos="936" pan="0" len="48" vol="100" />
        </pattern>
        <pattern pos="71424" muted="0" steps="16" name="" type="1">
          <note key="72" pos="288" pan="0" len="48" vol="100" />
          <note key="69" pos="360" pan="0" len="36" vol="100" />
          <note key="74" pos="864" pan="0" len="48" vol="100" />
          <note key="74" pos="936" pan="0" len="48" vol="100" />
        </pattern>
        <pattern pos="78336" muted="0" steps="16" name="" type="1">
          <note key="74" pos="864" pan="0" len="48" vol="100" />
          <note key="74" pos="936" pan="0" len="48" vol="100" />
          <note key="74" pos="2016" pan="0" len="48" vol="100" />
          <note key="74" pos="2088" pan="0" len="48" vol="100" />
        </pattern>
        <pattern pos="80640" muted="0" steps="16" name="" type="1">
          <note key="72" pos="288" pan="0" len="48" vol="100" />
          <note key="69" pos="360" pan="0" len="36" vol="100" />
          <note key="74" pos="864" pan="0" len="48" vol="100" />
          <note key="74" pos="936" pan="0" len="48" vol="100" />
        </pattern>
        <pattern pos="82944" muted="0" steps="16" name="" type="1">
          <note key="72" pos="288" pan="0" len="48" vol="100" />
          <note key="69" pos="360" pan="0" len="36" vol="100" />
          <note key="74" pos="864" pan="0" len="48" vol="100" />
          <note key="74" pos="936" pan="0" len="48" vol="100" />
        </pattern>
        <pattern pos="89856" muted="0" steps="16" name="" type="1">
          <note key="74" pos="864" pan="0" len="48" vol="100" />
          <note key="74" pos="936" pan="0" len="48" vol="100" />
        </pattern>
        <pattern pos="166668" muted="0" steps="16" name="" type="1">
          <note key="76" pos="0" pan="0" len="12" vol="100" />
          <note key="78" pos="36" pan="0" len="12" vol="100" />
          <note key="80" pos="72" pan="0" len="12" vol="100" />
          <note key="81" pos="108" pan="0" len="12" vol="100" />
          <note key="83" pos="144" pan="0" len="12" vol="100" />
          <note key="85" pos="180" pan="0" len="12" vol="100" />
          <note key="76" pos="216" pan="0" len="12" vol="100" />
          <note key="78" pos="252" pan="0" len="12" vol="100" />
          <note key="80" pos="288" pan="0" len="12" vol="100" />
          <note key="81" pos="324" pan="0" len="12" vol="100" />
          <note key="83" pos="360" pan="0" len="12" vol="100" />
          <note key="85" pos="396" pan="0" len="12" vol="100" />
          <note key="76" pos="432" pan="0" len="12" vol="100" />
          <note key="78" pos="468" pan="0" len="12" vol="100" />
          <note key="80" pos="504" pan="0" len="12" vol="100" />
          <note key="81" pos="540" pan="0" len="12" vol="100" />
          <note key="83" pos="576" pan="0" len="12" vol="100" />
          <note key="85" pos="612" pan="0" len="12" vol="100" />
          <note key="76" pos="648" pan="0" len="12" vol="100" />
          <note key="78" pos="684" pan="0" len="12" vol="100" />
          <note key="80" pos="720" pan="0" len="12" vol="100" />
          <note key="81" pos="756" pan="0" len="12" vol="100" />
          <note key="83" pos="792" pan="0" len="12" vol="100" />
          <note key="85" pos="828" pan="0" len="12" vol="100" />
          <note key="76" pos="864" pan="0" len="12" vol="100" />
          <note key="78" pos="900" pan="0" len="12" vol="100" />
          <note key="80" pos="936" pan="0" len="12" vol="100" />
          <note key="81" pos="972" pan="0" len="12" vol="100" />
          <note key="83" pos="1008" pan="0" len="12" vol="100" />
          <note key="85" pos="1044" pan="0" len="12" vol="100" />
          <note key="76" pos="1080" pan="0" len="12" vol="100" />
          <note key="78" pos="1116" pan="0" len="12" vol="100" />
          <note key="80" pos="1152" pan="0" len="12" vol="100" />
          <note key="81" pos="1188" pan="0" len="12" vol="100" />
          <note key="83" pos="1224" pan="0" len="12" vol="100" />
          <note key="85" pos="1260" pan="0" len="12" vol="100" />
          <note key="76" pos="1296" pan="0" len="12" vol="100" />
          <note key="78" pos="1332" pan="0" len="12" vol="100" />
          <note key="80" pos="1368" pan="0" len="12" vol="100" />
          <note key="81" pos="1404" pan="0" len="12" vol="100" />
          <note key="83" pos="1440" pan="0" len="12" vol="100" />
          <note key="85" pos="1476" pan="0" len="12" vol="100" />
        </pattern>
      </track>
      <track solo="0" name="7 (Ch5)" type="0" muted="0">
        <instrumenttrack usemasterpitch="1" pitch="0.0" basenote="57" pan="0" pitchrange="12" vol="30">
          <eldata />
          <instrument name="tripleoscillator" />
        </instrumenttrack>
        <pattern pos="89856" muted="0" steps="16" name="" type="1">
          <note key="79" pos="864" pan="0" len="48" vol="100" />
          <note key="77" pos="936" pan="0" len="48" vol="100" />
        </pattern>
        <pattern pos="56448" muted="0" steps="16" name="" type="1">
          <note key="81" pos="576" pan="0" len="12" vol="100" />
          <note key="81" pos="720" pan="0" len="12" vol="100" />
          <note key="81" pos="864" pan="0" len="12" vol="100" />
        </pattern>
        <pattern pos="57600" muted="0" steps="16" name="" type="1">
          <note key="81" pos="0" pan="0" len="12" vol="100" />
          <note key="74" pos="72" pan="0" len="12" vol="100" />
          <note key="81" pos="144" pan="0" len="12" vol="100" />
          <note key="81" pos="288" pan="0" len="12" vol="100" />
          <note key="74" pos="360" pan="0" len="12" vol="100" />
          <note key="81" pos="432" pan="0" len="12" vol="100" />
          <note key="81" pos="576" pan="0" len="12" vol="100" />
          <note key="74" pos="648" pan="0" len="12" vol="100" />
          <note key="81" pos="720" pan="0" len="12" vol="100" />
          <note key="81" pos="864" pan="0" len="12" vol="100" />
          <note key="74" pos="936" pan="0" len="12" vol="100" />
          <note key="81" pos="1008" pan="0" len="12" vol="100" />
        </pattern>
        <pattern pos="58752" muted="0" steps="16" name="" type="1">
          <note key="81" pos="576" pan="0" len="12" vol="100" />
          <note key="67" pos="720" pan="0" len="12" vol="100" />
          <note key="67" pos="864" pan="0" len="12" vol="100" />
          <note key="67" pos="1008" pan="0" len="12" vol="100" />
        </pattern>
        <pattern pos="59904" muted="0" steps="16" name="" type="1">
          <note key="81" pos="0" pan="0" len="12" vol="100" />
          <note key="74" pos="72" pan="0" len="12" vol="100" />
          <note key="77" pos="144" pan="0" len="12" vol="100" />
          <note key="81" pos="288" pan="0" len="12" vol="100" />
          <note key="74" pos="360" pan="0" len="12" vol="100" />
          <note key="77" pos="432" pan="0" len="12" vol="100" />
          <note key="81" pos="576" pan="0" len="12" vol="100" />
          <note key="74" pos="648" pan="0" len="12" vol="100" />
          <note key="79" pos="720" pan="0" len="12" vol="100" />
          <note key="74" pos="864" pan="0" len="12" vol="100" />
          <note key="74" pos="936" pan="0" len="12" vol="100" />
          <note key="81" pos="1008" pan="0" len="12" vol="100" />
        </pattern>
        <pattern pos="61056" muted="0" steps="16" name="" type="1">
          <note key="81" pos="0" pan="0" len="12" vol="100" />
          <note key="74" pos="72" pan="0" len="12" vol="100" />
          <note key="81" pos="144" pan="0" len="12" vol="100" />
          <note key="81" pos="288" pan="0" len="12" vol="100" />
          <note key="74" pos="360" pan="0" len="12" vol="100" />
          <note key="81" pos="432" pan="0" len="12" vol="100" />
          <note key="81" pos="576" pan="0" len="12" vol="100" />
          <note key="74" pos="648" pan="0" len="12" vol="100" />
          <note key="81" pos="720" pan="0" len="12" vol="100" />
          <note key="81" pos="864" pan="0" len="12" vol="100" />
          <note key="74" pos="936" pan="0" len="12" vol="100" />
          <note key="81" pos="1008" pan="0" len="12" vol="100" />
        </pattern>
        <pattern pos="63360" muted="0" steps="16" name="" type="1">
          <note key="81" pos="0" pan="0" len="12" vol="100" />
          <note key="74" pos="72" pan="0" len="12" vol="100" />
          <note key="77" pos="144" pan="0" len="12" vol="100" />
          <note key="81" pos="288" pan="0" len="12" vol="100" />
          <note key="74" pos="360" pan="0" len="12" vol="100" />
          <note key="77" pos="432" pan="0" len="12" vol="100" />
          <note key="81" pos="576" pan="0" len="12" vol="100" />
          <note key="74" pos="648" pan="0" len="12" vol="100" />
          <note key="72" pos="720" pan="0" len="12" vol="100" />
          <note key="72" pos="864" pan="0" len="12" vol="100" />
          <note key="72" pos="936" pan="0" len="12" vol="100" />
          <note key="74" pos="1008" pan="0" len="12" vol="100" />
        </pattern>
        <pattern pos="64512" muted="0" steps="16" name="" type="1">
          <note key="81" pos="0" pan="0" len="12" vol="100" />
          <note key="74" pos="72" pan="0" len="12" vol="100" />
          <note key="81" pos="144" pan="0" len="12" vol="100" />
          <note key="81" pos="288" pan="0" len="12" vol="100" />
          <note key="74" pos="360" pan="0" len="12" vol="100" />
          <note key="81" pos="432" pan="0" len="12" vol="100" />
          <note key="81" pos="576" pan="0" len="12" vol="100" />
          <note key="74" pos="648" pan="0" len="12" vol="100" />
          <note key="81" pos="720" pan="0" len="12" vol="100" />
          <note key="81" pos="864" pan="0" len="12" vol="100" />
          <note key="74" pos="936" pan="0" len="12" vol="100" />
          <note key="81" pos="1008" pan="0" len="12" vol="100" />
        </pattern>
        <pattern pos="65664" muted="0" steps="16" name="" type="1">
          <note key="81" pos="576" pan="0" len="12" vol="100" />
          <note key="81" pos="720" pan="0" len="12" vol="100" />
          <note key="81" pos="864" pan="0" len="12" vol="100" />
        </pattern>
        <pattern pos="69120" muted="0" steps="16" name="" type="1">
          <note key="76" pos="288" pan="0" len="48" vol="100" />
          <note key="74" pos="360" pan="0" len="36" vol="100" />
          <note key="79" pos="864" pan="0" len="48" vol="100" />
          <note key="77" pos="936" pan="0" len="48" vol="100" />
        </pattern>
        <pattern pos="71424" muted="0" steps="16" name="" type="1">
          <note key="76" pos="288" pan="0" len="48" vol="100" />
          <note key="74" pos="360" pan="0" len="36" vol="100" />
          <note key="79" pos="864" pan="0" len="48" vol="100" />
          <note key="77" pos="936" pan="0" len="48" vol="100" />
        </pattern>
        <pattern pos="78336" muted="0" steps="16" name="" type="1">
          <note key="79" pos="864" pan="0" len="48" vol="100" />
          <note key="77" pos="936" pan="0" len="48" vol="100" />
          <note key="79" pos="2016" pan="0" len="48" vol="100" />
          <note key="77" pos="2088" pan="0" len="48" vol="100" />
        </pattern>
        <pattern pos="80640" muted="0" steps="16" name="" type="1">
          <note key="76" pos="288" pan="0" len="48" vol="100" />
          <note key="74" pos="360" pan="0" len="36" vol="100" />
          <note key="79" pos="864" pan="0" len="48" vol="100" />
          <note key="77" pos="936" pan="0" len="48" vol="100" />
        </pattern>
        <pattern pos="82944" muted="0" steps="16" name="" type="1">
          <note key="76" pos="288" pan="0" len="48" vol="100" />
          <note key="74" pos="360" pan="0" len="36" vol="100" />
          <note key="79" pos="864" pan="0" len="48" vol="100" />
          <note key="77" pos="936" pan="0" len="48" vol="100" />
        </pattern>
      </track>
      <track solo="0" name="7 (Ch6)" type="0" muted="0">
        <instrumenttrack usemasterpitch="1" pitch="0.0" basenote="57" pan="0" pitchrange="12" vol="30">
          <eldata />
          <instrument name="tripleoscillator" />
        </instrumenttrack>
        <pattern pos="236556" muted="0" steps="16" name="" type="1">
          <note key="70" pos="0" pan="0" len="24" vol="100" />
          <note key="77" pos="24" pan="0" len="24" vol="100" />
          <note key="73" pos="48" pan="0" len="24" vol="100" />
          <note key="80" pos="72" pan="0" len="24" vol="100" />
          <note key="77" pos="96" pan="0" len="24" vol="100" />
          <note key="82" pos="120" pan="0" len="24" vol="100" />
          <note key="80" pos="144" pan="0" len="24" vol="100" />
          <note key="85" pos="168" pan="0" len="24" vol="100" />
          <note key="89" pos="192" pan="0" len="72" vol="100" />
          <note key="87" pos="264" pan="0" len="48" vol="100" />
          <note key="84" pos="312" pan="0" len="72" vol="100" />
          <note key="82" pos="384" pan="0" len="72" vol="100" />
        </pattern>
        <pattern pos="46080" muted="0" steps="16" name="" type="1">
          <note key="74" pos="24" pan="0" len="48" vol="34" />
          <note key="74" pos="120" pan="0" len="48" vol="34" />
          <note key="70" pos="216" pan="0" len="48" vol="34" />
          <note key="68" pos="312" pan="0" len="48" vol="34" />
          <note key="68" pos="408" pan="0" len="48" vol="34" />
          <note key="68" pos="504" pan="0" len="48" vol="34" />
          <note key="69" pos="600" pan="0" len="48" vol="34" />
          <note key="69" pos="696" pan="0" len="48" vol="34" />
        </pattern>
        <pattern pos="54528" muted="0" steps="16" name="" type="1">
          <note key="74" pos="24" pan="0" len="48" vol="34" />
          <note key="74" pos="120" pan="0" len="48" vol="34" />
          <note key="70" pos="216" pan="0" len="48" vol="34" />
        </pattern>
        <pattern pos="145164" muted="0" steps="16" name="" type="1">
          <note key="49" pos="576" pan="0" len="192" vol="0" />
        </pattern>
        <pattern pos="156684" muted="0" steps="16" name="" type="1">
          <note key="49" pos="576" pan="0" len="192" vol="0" />
        </pattern>
        <pattern pos="169740" muted="0" steps="16" name="" type="1">
          <note key="52" pos="0" pan="0" len="576" vol="100" />
        </pattern>
        <pattern pos="198924" muted="0" steps="16" name="" type="1">
          <note key="76" pos="24" pan="0" len="120" vol="100" />
          <note key="74" pos="192" pan="0" len="72" vol="100" />
          <note key="78" pos="288" pan="0" len="72" vol="100" />
          <note key="69" pos="384" pan="0" len="144" vol="100" />
          <note key="71" pos="552" pan="0" len="12" vol="100" />
          <note key="69" pos="564" pan="0" len="12" vol="100" />
          <note key="67" pos="576" pan="0" len="72" vol="100" />
          <note key="64" pos="648" pan="0" len="48" vol="100" />
        </pattern>
      </track>
      <track solo="0" name="7 (Ch7)" type="0" muted="0">
        <instrumenttrack usemasterpitch="1" pitch="0.0" basenote="57" pan="0" pitchrange="12" vol="30">
          <eldata />
          <instrument name="tripleoscillator" />
        </instrumenttrack>
        <pattern pos="258060" muted="0" steps="16" name="" type="1">
          <note key="77" pos="768" pan="0" len="24" vol="100" />
          <note key="76" pos="792" pan="0" len="72" vol="100" />
          <note key="70" pos="864" pan="0" len="120" vol="100" />
          <note key="76" pos="1056" pan="0" len="48" vol="100" />
          <note key="67" pos="1152" pan="0" len="144" vol="100" />
        </pattern>
        <pattern pos="7680" muted="0" steps="16" name="" type="1">
          <note key="60" pos="1536" pan="0" len="132" vol="100" />
          <note key="58" pos="1728" pan="0" len="132" vol="100" />
          <note key="56" pos="1920" pan="0" len="132" vol="100" />
          <note key="43" pos="2160" pan="0" len="48" vol="100" />
          <note key="46" pos="2208" pan="0" len="60" vol="100" />
        </pattern>
        <pattern pos="46080" muted="0" steps="16" name="" type="1">
          <note key="71" pos="24" pan="0" len="48" vol="34" />
          <note key="71" pos="120" pan="0" len="48" vol="34" />
          <note key="74" pos="216" pan="0" len="48" vol="34" />
          <note key="72" pos="312" pan="0" len="48" vol="34" />
          <note key="72" pos="408" pan="0" len="48" vol="34" />
          <note key="72" pos="504" pan="0" len="48" vol="34" />
          <note key="72" pos="600" pan="0" len="48" vol="34" />
          <note key="72" pos="696" pan="0" len="48" vol="34" />
        </pattern>
        <pattern pos="54528" muted="0" steps="16" name="" type="1">
          <note key="71" pos="24" pan="0" len="48" vol="34" />
          <note key="71" pos="120" pan="0" len="48" vol="34" />
          <note key="74" pos="216" pan="0" len="48" vol="34" />
        </pattern>
        <pattern pos="69120" muted="0" steps="16" name="" type="1">
          <note key="74" pos="0" pan="0" len="48" vol="100" />
          <note key="74" pos="72" pan="0" len="48" vol="100" />
          <note key="76" pos="120" pan="0" len="24" vol="100" />
          <note key="77" pos="144" pan="0" len="48" vol="100" />
        </pattern>
        <pattern pos="71424" muted="0" steps="16" name="" type="1">
          <note key="74" pos="0" pan="0" len="48" vol="100" />
          <note key="74" pos="72" pan="0" len="48" vol="100" />
          <note key="76" pos="120" pan="0" len="24" vol="100" />
          <note key="77" pos="144" pan="0" len="48" vol="100" />
        </pattern>
        <pattern pos="80640" muted="0" steps="16" name="" type="1">
          <note key="74" pos="0" pan="0" len="48" vol="100" />
          <note key="74" pos="72" pan="0" len="48" vol="100" />
          <note key="76" pos="120" pan="0" len="24" vol="100" />
          <note key="77" pos="144" pan="0" len="48" vol="100" />
        </pattern>
        <pattern pos="82944" muted="0" steps="16" name="" type="1">
          <note key="74" pos="0" pan="0" len="48" vol="100" />
          <note key="74" pos="72" pan="0" len="48" vol="100" />
          <note key="76" pos="120" pan="0" len="24" vol="100" />
          <note key="77" pos="144" pan="0" len="48" vol="100" />
        </pattern>
        <pattern pos="218892" muted="0" steps="16" name="" type="1">
          <note key="60" pos="0" pan="0" len="132" vol="100" />
          <note key="48" pos="384" pan="0" len="192" vol="100" />
        </pattern>
        <pattern pos="220428" muted="0" steps="16" name="" type="1">
          <note key="48" pos="0" pan="0" len="96" vol="100" />
        </pattern>
      </track>
      <track solo="0" name="7 (Ch8)" type="0" muted="0">
        <instrumenttrack usemasterpitch="1" pitch="0.0" basenote="57" pan="0" pitchrange="12" vol="30">
          <eldata />
          <instrument name="tripleoscillator" />
        </instrumenttrack>
        <pattern pos="157452" muted="0" steps="16" name="" type="1">
          <note key="49" pos="576" pan="0" len="192" vol="0" />
        </pattern>
        <pattern pos="0" muted="0" steps="16" name="" type="1">
          <note key="60" pos="192" pan="0" len="72" vol="100" />
          <note key="48" pos="288" pan="0" len="72" vol="100" />
          <note key="60" pos="576" pan="0" len="72" vol="100" />
          <note key="48" pos="672" pan="0" len="72" vol="100" />
          <note key="60" pos="960" pan="0" len="72" vol="100" />
          <note key="48" pos="1056" pan="0" len="72" vol="100" />
          <note key="48" pos="1152" pan="0" len="72" vol="100" />
          <note key="36" pos="1248" pan="0" len="72" vol="100" />
          <note key="51" pos="1344" pan="0" len="84" vol="100" />
        </pattern>
        <pattern pos="39936" muted="0" steps="16" name="" type="1">
          <note key="72" pos="384" pan="0" len="12" vol="100" />
          <note key="69" pos="396" pan="0" len="12" vol="100" />
          <note key="65" pos="408" pan="0" len="12" vol="100" />
          <note key="60" pos="420" pan="0" len="12" vol="100" />
          <note key="57" pos="432" pan="0" len="12" vol="100" />
          <note key="60" pos="444" pan="0" len="12" vol="100" />
          <note key="65" pos="456" pan="0" len="12" vol="100" />
          <note key="69" pos="468" pan="0" len="12" vol="100" />
          <note key="72" pos="480" pan="0" len="12" vol="100" />
          <note key="69" pos="492" pan="0" len="12" vol="100" />
          <note key="65" pos="504" pan="0" len="12" vol="100" />
          <note key="60" pos="516" pan="0" len="12" vol="100" />
          <note key="57" pos="528" pan="0" len="12" vol="100" />
          <note key="60" pos="540" pan="0" len="12" vol="100" />
          <note key="65" pos="552" pan="0" len="12" vol="100" />
          <note key="69" pos="564" pan="0" len="12" vol="100" />
          <note key="73" pos="576" pan="0" len="12" vol="100" />
          <note key="68" pos="588" pan="0" len="12" vol="100" />
          <note key="65" pos="600" pan="0" len="12" vol="100" />
          <note key="61" pos="612" pan="0" len="12" vol="100" />
          <note key="56" pos="624" pan="0" len="12" vol="100" />
          <note key="61" pos="636" pan="0" len="12" vol="100" />
          <note key="65" pos="648" pan="0" len="12" vol="100" />
          <note key="68" pos="660" pan="0" len="12" vol="100" />
          <note key="73" pos="672" pan="0" len="12" vol="100" />
          <note key="68" pos="684" pan="0" len="12" vol="100" />
          <note key="65" pos="696" pan="0" len="12" vol="100" />
          <note key="61" pos="708" pan="0" len="12" vol="100" />
          <note key="56" pos="720" pan="0" len="12" vol="100" />
          <note key="61" pos="732" pan="0" len="12" vol="100" />
          <note key="65" pos="744" pan="0" len="12" vol="100" />
          <note key="68" pos="756" pan="0" len="12" vol="100" />
          <note key="72" pos="1152" pan="0" len="12" vol="100" />
          <note key="69" pos="1164" pan="0" len="12" vol="100" />
          <note key="65" pos="1176" pan="0" len="12" vol="100" />
          <note key="60" pos="1188" pan="0" len="12" vol="100" />
          <note key="57" pos="1200" pan="0" len="12" vol="100" />
          <note key="60" pos="1212" pan="0" len="12" vol="100" />
          <note key="65" pos="1224" pan="0" len="12" vol="100" />
          <note key="69" pos="1236" pan="0" len="12" vol="100" />
          <note key="72" pos="1248" pan="0" len="12" vol="100" />
          <note key="69" pos="1260" pan="0" len="12" vol="100" />
          <note key="65" pos="1272" pan="0" len="12" vol="100" />
          <note key="60" pos="1284" pan="0" len="12" vol="100" />
          <note key="57" pos="1296" pan="0" len="12" vol="100" />
          <note key="60" pos="1308" pan="0" len="12" vol="100" />
          <note key="65" pos="1320" pan="0" len="12" vol="100" />
          <note key="69" pos="1332" pan="0" len="12" vol="100" />
          <note key="73" pos="1344" pan="0" len="12" vol="100" />
          <note key="68" pos="1356" pan="0" len="12" vol="100" />
          <note key="65" pos="1368" pan="0" len="12" vol="100" />
          <note key="61" pos="1380" pan="0" len="12" vol="100" />
          <note key="56" pos="1392" pan="0" len="12" vol="100" />
          <note key="61" pos="1404" pan="0" len="12" vol="100" />
          <note key="65" pos="1416" pan="0" len="12" vol="100" />
          <note key="68" pos="1428" pan="0" len="12" vol="100" />
          <note key="73" pos="1440" pan="0" len="12" vol="100" />
          <note key="68" pos="1452" pan="0" len="12" vol="100" />
          <note key="65" pos="1464" pan="0" len="12" vol="100" />
          <note key="61" pos="1476" pan="0" len="12" vol="100" />
          <note key="56" pos="1488" pan="0" len="12" vol="100" />
          <note key="61" pos="1500" pan="0" len="12" vol="100" />
          <note key="65" pos="1512" pan="0" len="12" vol="100" />
          <note key="68" pos="1524" pan="0" len="12" vol="100" />
        </pattern>
        <pattern pos="41472" muted="0" steps="16" name="" type="1">
          <note key="71" pos="0" pan="0" len="12" vol="100" />
          <note key="66" pos="12" pan="0" len="12" vol="100" />
          <note key="63" pos="24" pan="0" len="12" vol="100" />
          <note key="59" pos="36" pan="0" len="12" vol="100" />
          <note key="54" pos="48" pan="0" len="12" vol="100" />
          <note key="59" pos="60" pan="0" len="12" vol="100" />
          <note key="63" pos="72" pan="0" len="12" vol="100" />
          <note key="66" pos="84" pan="0" len="12" vol="100" />
          <note key="71" pos="96" pan="0" len="12" vol="100" />
          <note key="66" pos="108" pan="0" len="12" vol="100" />
          <note key="63" pos="120" pan="0" len="12" vol="100" />
          <note key="59" pos="132" pan="0" len="12" vol="100" />
          <note key="54" pos="144" pan="0" len="12" vol="100" />
          <note key="59" pos="156" pan="0" len="12" vol="100" />
          <note key="63" pos="168" pan="0" len="12" vol="100" />
          <note key="66" pos="180" pan="0" len="12" vol="100" />
          <note key="69" pos="192" pan="0" len="12" vol="100" />
          <note key="66" pos="204" pan="0" len="12" vol="100" />
          <note key="62" pos="216" pan="0" len="12" vol="100" />
          <note key="57" pos="228" pan="0" len="12" vol="100" />
          <note key="54" pos="240" pan="0" len="12" vol="100" />
          <note key="57" pos="252" pan="0" len="12" vol="100" />
          <note key="62" pos="264" pan="0" len="12" vol="100" />
          <note key="66" pos="276" pan="0" len="12" vol="100" />
          <note key="69" pos="288" pan="0" len="12" vol="100" />
          <note key="66" pos="300" pan="0" len="12" vol="100" />
          <note key="62" pos="312" pan="0" len="12" vol="100" />
          <note key="57" pos="324" pan="0" len="12" vol="100" />
          <note key="54" pos="336" pan="0" len="12" vol="100" />
          <note key="57" pos="348" pan="0" len="12" vol="100" />
          <note key="62" pos="360" pan="0" len="12" vol="100" />
          <note key="66" pos="372" pan="0" len="12" vol="100" />
          <note key="71" pos="384" pan="0" len="12" vol="100" />
          <note key="66" pos="396" pan="0" len="12" vol="100" />
          <note key="63" pos="408" pan="0" len="12" vol="100" />
          <note key="59" pos="420" pan="0" len="12" vol="100" />
          <note key="54" pos="432" pan="0" len="12" vol="100" />
          <note key="59" pos="444" pan="0" len="12" vol="100" />
          <note key="63" pos="456" pan="0" len="12" vol="100" />
          <note key="66" pos="468" pan="0" len="12" vol="100" />
          <note key="71" pos="480" pan="0" len="12" vol="100" />
          <note key="66" pos="492" pan="0" len="12" vol="100" />
          <note key="63" pos="504" pan="0" len="12" vol="100" />
          <note key="59" pos="516" pan="0" len="12" vol="100" />
          <note key="54" pos="528" pan="0" len="12" vol="100" />
          <note key="59" pos="540" pan="0" len="12" vol="100" />
          <note key="63" pos="552" pan="0" len="12" vol="100" />
          <note key="66" pos="564" pan="0" len="12" vol="100" />
          <note key="69" pos="576" pan="0" len="12" vol="100" />
          <note key="66" pos="588" pan="0" len="12" vol="100" />
          <note key="62" pos="600" pan="0" len="12" vol="100" />
          <note key="57" pos="612" pan="0" len="12" vol="100" />
          <note key="54" pos="624" pan="0" len="12" vol="100" />
          <note key="57" pos="636" pan="0" len="12" vol="100" />
          <note key="62" pos="648" pan="0" len="12" vol="100" />
          <note key="66" pos="660" pan="0" len="12" vol="100" />
          <note key="69" pos="672" pan="0" len="12" vol="100" />
          <note key="66" pos="684" pan="0" len="12" vol="100" />
          <note key="62" pos="696" pan="0" len="12" vol="100" />
          <note key="57" pos="708" pan="0" len="12" vol="100" />
          <note key="54" pos="720" pan="0" len="12" vol="100" />
          <note key="57" pos="732" pan="0" len="12" vol="100" />
          <note key="62" pos="744" pan="0" len="12" vol="100" />
          <note key="66" pos="756" pan="0" len="12" vol="100" />
          <note key="71" pos="768" pan="0" len="12" vol="100" />
          <note key="66" pos="780" pan="0" len="12" vol="100" />
          <note key="63" pos="792" pan="0" len="12" vol="100" />
          <note key="59" pos="804" pan="0" len="12" vol="100" />
          <note key="54" pos="816" pan="0" len="12" vol="100" />
          <note key="59" pos="828" pan="0" len="12" vol="100" />
          <note key="63" pos="840" pan="0" len="12" vol="100" />
          <note key="66" pos="852" pan="0" len="12" vol="100" />
          <note key="71" pos="864" pan="0" len="12" vol="100" />
          <note key="66" pos="876" pan="0" len="12" vol="100" />
          <note key="63" pos="888" pan="0" len="12" vol="100" />
          <note key="59" pos="900" pan="0" len="12" vol="100" />
          <note key="54" pos="912" pan="0" len="12" vol="100" />
          <note key="59" pos="924" pan="0" len="12" vol="100" />
          <note key="63" pos="936" pan="0" len="12" vol="100" />
          <note key="66" pos="948" pan="0" len="12" vol="100" />
          <note key="69" pos="960" pan="0" len="12" vol="100" />
          <note key="66" pos="972" pan="0" len="12" vol="100" />
          <note key="62" pos="984" pan="0" len="12" vol="100" />
          <note key="57" pos="996" pan="0" len="12" vol="100" />
          <note key="54" pos="1008" pan="0" len="12" vol="100" />
          <note key="57" pos="1020" pan="0" len="12" vol="100" />
          <note key="62" pos="1032" pan="0" len="12" vol="100" />
          <note key="66" pos="1044" pan="0" len="12" vol="100" />
          <note key="69" pos="1056" pan="0" len="12" vol="100" />
          <note key="66" pos="1068" pan="0" len="12" vol="100" />
          <note key="62" pos="1080" pan="0" len="12" vol="100" />
          <note key="57" pos="1092" pan="0" len="12" vol="100" />
          <note key="54" pos="1104" pan="0" len="12" vol="100" />
          <note key="57" pos="1116" pan="0" len="12" vol="100" />
          <note key="62" pos="1128" pan="0" len="12" vol="100" />
          <note key="66" pos="1140" pan="0" len="12" vol="100" />
          <note key="71" pos="1152" pan="0" len="12" vol="100" />
          <note key="66" pos="1164" pan="0" len="12" vol="100" />
          <note key="63" pos="1176" pan="0" len="12" vol="100" />
          <note key="59" pos="1188" pan="0" len="12" vol="100" />
          <note key="54" pos="1200" pan="0" len="12" vol="100" />
          <note key="59" pos="1212" pan="0" len="12" vol="100" />
          <note key="63" pos="1224" pan="0" len="12" vol="100" />
          <note key="66" pos="1236" pan="0" len="12" vol="100" />
          <note key="71" pos="1248" pan="0" len="12" vol="100" />
          <note key="66" pos="1260" pan="0" len="12" vol="100" />
          <note key="63" pos="1272" pan="0" len="12" vol="100" />
          <note key="59" pos="1284" pan="0" len="12" vol="100" />
          <note key="54" pos="1296" pan="0" len="12" vol="100" />
          <note key="59" pos="1308" pan="0" len="12" vol="100" />
          <note key="63" pos="1320" pan="0" len="12" vol="100" />
          <note key="66" pos="1332" pan="0" len="12" vol="100" />
          <note key="69" pos="1344" pan="0" len="12" vol="100" />
          <note key="66" pos="1356" pan="0" len="12" vol="100" />
          <note key="62" pos="1368" pan="0" len="12" vol="100" />
          <note key="57" pos="1380" pan="0" len="12" vol="100" />
          <note key="54" pos="1392" pan="0" len="12" vol="100" />
          <note key="57" pos="1404" pan="0" len="12" vol="100" />
          <note key="62" pos="1416" pan="0" len="12" vol="100" />
          <note key="66" pos="1428" pan="0" len="12" vol="100" />
          <note key="69" pos="1440" pan="0" len="12" vol="100" />
          <note key="66" pos="1452" pan="0" len="12" vol="100" />
          <note key="62" pos="1464" pan="0" len="12" vol="100" />
          <note key="57" pos="1476" pan="0" len="12" vol="100" />
          <note key="54" pos="1488" pan="0" len="12" vol="100" />
          <note key="57" pos="1500" pan="0" len="12" vol="100" />
          <note key="62" pos="1512" pan="0" len="12" vol="100" />
          <note key="66" pos="1524" pan="0" len="12" vol="100" />
        </pattern>
      </track>
      <track solo="0" name="7 (Ch9)" type="0" muted="0">
        <instrumenttrack usemasterpitch="1" pitch="0.0" basenote="57" pan="0" pitchrange="12" vol="30">
          <eldata />
          <instrument name="tripleoscillator" />
        </instrumenttrack>
        <pattern pos="230412" muted="0" steps="16" name="" type="1">
          <note key="70" pos="48" pan="0" len="48" vol="100" />
          <note key="73" pos="96" pan="0" len="48" vol="100" />
          <note key="77" pos="144" pan="0" len="48" vol="100" />
          <note key="79" pos="192" pan="0" len="96" vol="100" />
          <note key="77" pos="816" pan="0" len="48" vol="100" />
          <note key="80" pos="864" pan="0" len="48" vol="100" />
          <note key="82" pos="912" pan="0" len="48" vol="100" />
          <note key="79" pos="960" pan="0" len="96" vol="100" />
        </pattern>
        <pattern pos="6144" muted="0" steps="16" name="" type="1">
          <note key="53" pos="96" pan="0" len="96" vol="100" />
          <note key="55" pos="288" pan="0" len="96" vol="100" />
          <note key="56" pos="480" pan="0" len="96" vol="100" />
          <note key="58" pos="672" pan="0" len="72" vol="100" />
        </pattern>
        <pattern pos="10752" muted="0" steps="16" name="" type="1">
          <note key="53" pos="96" pan="0" len="96" vol="100" />
          <note key="55" pos="288" pan="0" len="96" vol="100" />
          <note key="56" pos="480" pan="0" len="96" vol="100" />
          <note key="58" pos="672" pan="0" len="72" vol="100" />
        </pattern>
        <pattern pos="12288" muted="0" steps="16" name="" type="1">
          <note key="60" pos="0" pan="0" len="216" vol="100" />
        </pattern>
        <pattern pos="39936" muted="0" steps="16" name="" type="1">
          <note key="84" pos="408" pan="0" len="72" vol="100" />
          <note key="89" pos="480" pan="0" len="72" vol="100" />
          <note key="87" pos="552" pan="0" len="24" vol="100" />
          <note key="84" pos="576" pan="0" len="84" vol="100" />
          <note key="84" pos="1176" pan="0" len="72" vol="100" />
          <note key="89" pos="1248" pan="0" len="72" vol="100" />
          <note key="87" pos="1320" pan="0" len="24" vol="100" />
          <note key="84" pos="1344" pan="0" len="84" vol="100" />
        </pattern>
        <pattern pos="127500" muted="0" steps="16" name="" type="1">
          <note key="70" pos="816" pan="0" len="24" vol="100" />
          <note key="74" pos="912" pan="0" len="24" vol="100" />
          <note key="75" pos="960" pan="0" len="12" vol="100" />
          <note key="77" pos="972" pan="0" len="36" vol="100" />
          <note key="70" pos="1104" pan="0" len="24" vol="100" />
          <note key="75" pos="1152" pan="0" len="24" vol="100" />
          <note key="74" pos="1200" pan="0" len="12" vol="100" />
          <note key="72" pos="1212" pan="0" len="12" vol="100" />
          <note key="74" pos="1224" pan="0" len="12" vol="100" />
          <note key="70" pos="1248" pan="0" len="24" vol="100" />
          <note key="70" pos="1332" pan="0" len="12" vol="100" />
          <note key="67" pos="1344" pan="0" len="24" vol="100" />
          <note key="58" pos="1428" pan="0" len="12" vol="100" />
          <note key="63" pos="1440" pan="0" len="24" vol="100" />
        </pattern>
        <pattern pos="224268" muted="0" steps="16" name="" type="1">
          <note key="70" pos="48" pan="0" len="48" vol="100" />
          <note key="73" pos="96" pan="0" len="48" vol="100" />
          <note key="77" pos="144" pan="0" len="48" vol="100" />
          <note key="79" pos="192" pan="0" len="96" vol="100" />
          <note key="77" pos="816" pan="0" len="48" vol="100" />
          <note key="80" pos="864" pan="0" len="48" vol="100" />
          <note key="82" pos="912" pan="0" len="48" vol="100" />
          <note key="79" pos="960" pan="0" len="96" vol="100" />
        </pattern>
      </track>
      <track solo="0" name="7 (Ch10)" type="0" muted="0">
        <instrumenttrack usemasterpitch="1" pitch="0.0" basenote="57" pan="0" pitchrange="12" vol="30">
          <eldata />
          <instrument name="tripleoscillator" />
        </instrumenttrack>
        <pattern pos="54528" muted="0" steps="16" name="" type="1">
          <note key="74" pos="120" pan="0" len="24" vol="100" />
          <note key="79" pos="144" pan="0" len="24" vol="100" />
          <note key="77" pos="168" pan="0" len="72" vol="100" />
          <note key="76" pos="240" pan="0" len="72" vol="100" />
          <note key="74" pos="312" pan="0" len="72" vol="100" />
        </pattern>
        <pattern pos="41472" muted="0" steps="16" name="" type="1">
          <note key="87" pos="0" pan="0" len="60" vol="100" />
          <note key="78" pos="96" pan="0" len="72" vol="100" />
          <note key="80" pos="168" pan="0" len="24" vol="100" />
          <note key="81" pos="192" pan="0" len="96" vol="100" />
          <note key="83" pos="384" pan="0" len="96" vol="100" />
          <note key="78" pos="480" pan="0" len="72" vol="100" />
          <note key="80" pos="552" pan="0" len="24" vol="100" />
          <note key="81" pos="576" pan="0" len="96" vol="100" />
          <note key="80" pos="672" pan="0" len="72" vol="100" />
          <note key="87" pos="768" pan="0" len="96" vol="100" />
          <note key="78" pos="864" pan="0" len="72" vol="100" />
          <note key="80" pos="936" pan="0" len="24" vol="100" />
          <note key="81" pos="960" pan="0" len="192" vol="100" />
          <note key="83" pos="1152" pan="0" len="96" vol="100" />
          <note key="78" pos="1248" pan="0" len="72" vol="100" />
          <note key="80" pos="1320" pan="0" len="24" vol="100" />
          <note key="81" pos="1344" pan="0" len="192" vol="100" />
        </pattern>
        <pattern pos="46080" muted="0" steps="16" name="" type="1">
          <note key="67" pos="96" pan="0" len="48" vol="100" />
          <note key="69" pos="168" pan="0" len="24" vol="100" />
          <note key="70" pos="192" pan="0" len="72" vol="100" />
          <note key="68" pos="480" pan="0" len="48" vol="100" />
          <note key="71" pos="552" pan="0" len="24" vol="100" />
          <note key="72" pos="576" pan="0" len="96" vol="100" />
          <note key="74" pos="864" pan="0" len="48" vol="100" />
          <note key="75" pos="936" pan="0" len="24" vol="100" />
          <note key="71" pos="960" pan="0" len="72" vol="100" />
          <note key="72" pos="1200" pan="0" len="84" vol="100" />
          <note key="68" pos="1296" pan="0" len="48" vol="100" />
          <note key="67" pos="1344" pan="0" len="96" vol="100" />
        </pattern>
      </track>
      <track solo="0" name="7 (Ch11)" type="0" muted="0">
        <instrumenttrack usemasterpitch="1" pitch="0.0" basenote="57" pan="0" pitchrange="12" vol="30">
          <eldata />
          <instrument name="tripleoscillator" />
        </instrumenttrack>
        <pattern pos="201228" muted="0" steps="16" name="" type="1">
          <note key="78" pos="0" pan="0" len="48" vol="100" />
          <note key="86" pos="72" pan="0" len="24" vol="100" />
          <note key="83" pos="96" pan="0" len="24" vol="100" />
          <note key="79" pos="168" pan="0" len="84" vol="100" />
        </pattern>
        <pattern pos="10752" muted="0" steps="16" name="" type="1">
          <note key="65" pos="96" pan="0" len="96" vol="100" />
          <note key="67" pos="288" pan="0" len="96" vol="100" />
          <note key="68" pos="480" pan="0" len="96" vol="100" />
        </pattern>
      </track>
      <track solo="0" name="7 (Ch12)" type="0" muted="0">
        <instrumenttrack usemasterpitch="1" pitch="0.0" basenote="57" pan="0" pitchrange="12" vol="30">
          <eldata />
          <instrument name="tripleoscillator" />
        </instrumenttrack>
        <pattern pos="169740" muted="0" steps="16" name="" type="1">
          <note key="69" pos="624" pan="0" len="24" vol="100" />
          <note key="72" pos="672" pan="0" len="60" vol="100" />
          <note key="71" pos="768" pan="0" len="60" vol="100" />
          <note key="74" pos="864" pan="0" len="60" vol="100" />
          <note key="75" pos="960" pan="0" len="72" vol="100" />
          <note key="79" pos="1056" pan="0" len="72" vol="100" />
          <note key="77" pos="1152" pan="0" len="72" vol="100" />
        </pattern>
        <pattern pos="150540" muted="0" steps="16" name="" type="1">
          <note key="42" pos="0" pan="0" len="192" vol="0" />
        </pattern>
        <pattern pos="152076" muted="0" steps="16" name="" type="1">
          <note key="42" pos="0" pan="0" len="192" vol="0" />
        </pattern>
      </track>
      <track solo="0" name="7 (Ch13)" type="0" muted="0">
        <instrumenttrack usemasterpitch="1" pitch="0.0" basenote="57" pan="0" pitchrange="12" vol="30">
          <eldata />
          <instrument name="tripleoscillator" />
        </instrumenttrack>
        <pattern pos="228876" muted="0" steps="16" name="" type="1">
          <note key="75" pos="0" pan="0" len="96" vol="100" />
          <note key="67" pos="120" pan="0" len="24" vol="100" />
          <note key="72" pos="144" pan="0" len="24" vol="100" />
          <note key="74" pos="168" pan="0" len="24" vol="100" />
          <note key="75" pos="192" pan="0" len="12" vol="100" />
          <note key="79" pos="264" pan="0" len="24" vol="100" />
          <note key="74" pos="288" pan="0" len="48" vol="100" />
          <note key="70" pos="360" pan="0" len="12" vol="100" />
          <note key="74" pos="384" pan="0" len="48" vol="100" />
          <note key="65" pos="504" pan="0" len="24" vol="100" />
          <note key="70" pos="528" pan="0" len="12" vol="100" />
          <note key="72" pos="552" pan="0" len="24" vol="100" />
          <note key="74" pos="576" pan="0" len="12" vol="100" />
          <note key="77" pos="624" pan="0" len="12" vol="100" />
          <note key="72" pos="672" pan="0" len="12" vol="100" />
          <note key="68" pos="696" pan="0" len="36" vol="100" />
          <note key="72" pos="768" pan="0" len="72" vol="100" />
          <note key="63" pos="888" pan="0" len="24" vol="100" />
          <note key="68" pos="912" pan="0" len="12" vol="100" />
          <note key="70" pos="936" pan="0" len="24" vol="100" />
          <note key="72" pos="960" pan="0" len="12" vol="100" />
          <note key="75" pos="1008" pan="0" len="24" vol="100" />
          <note key="70" pos="1032" pan="0" len="12" vol="100" />
          <note key="67" pos="1080" pan="0" len="12" vol="100" />
          <note key="70" pos="1128" pan="0" len="108" vol="100" />
          <note key="68" pos="1320" pan="0" len="12" vol="100" />
          <note key="67" pos="1332" pan="0" len="12" vol="100" />
          <note key="65" pos="1344" pan="0" len="12" vol="100" />
        </pattern>
        <pattern pos="169740" muted="0" steps="16" name="" type="1">
          <note key="68" pos="96" pan="0" len="96" vol="100" />
          <note key="71" pos="192" pan="0" len="96" vol="100" />
          <note key="73" pos="288" pan="0" len="96" vol="100" />
          <note key="70" pos="384" pan="0" len="96" vol="100" />
          <note key="75" pos="480" pan="0" len="96" vol="100" />
        </pattern>
        <pattern pos="225804" muted="0" steps="16" name="" type="1">
          <note key="77" pos="624" pan="0" len="24" vol="100" />
          <note key="73" pos="648" pan="0" len="24" vol="100" />
          <note key="80" pos="672" pan="0" len="48" vol="100" />
          <note key="73" pos="768" pan="0" len="24" vol="100" />
          <note key="72" pos="792" pan="0" len="24" vol="100" />
          <note key="70" pos="816" pan="0" len="36" vol="100" />
          <note key="72" pos="960" pan="0" len="48" vol="100" />
          <note key="68" pos="1008" pan="0" len="48" vol="100" />
          <note key="70" pos="1056" pan="0" len="48" vol="100" />
          <note key="68" pos="1344" pan="0" len="72" vol="100" />
          <note key="75" pos="1416" pan="0" len="24" vol="100" />
          <note key="80" pos="1440" pan="0" len="48" vol="100" />
        </pattern>
        <pattern pos="227340" muted="0" steps="16" name="" type="1">
          <note key="78" pos="0" pan="0" len="96" vol="100" />
          <note key="70" pos="120" pan="0" len="24" vol="100" />
          <note key="75" pos="144" pan="0" len="24" vol="100" />
          <note key="77" pos="168" pan="0" len="24" vol="100" />
          <note key="78" pos="192" pan="0" len="12" vol="100" />
          <note key="82" pos="264" pan="0" len="24" vol="100" />
          <note key="77" pos="288" pan="0" len="48" vol="100" />
          <note key="73" pos="360" pan="0" len="12" vol="100" />
          <note key="77" pos="384" pan="0" len="48" vol="100" />
          <note key="68" pos="504" pan="0" len="24" vol="100" />
          <note key="73" pos="528" pan="0" len="12" vol="100" />
          <note key="75" pos="552" pan="0" len="24" vol="100" />
          <note key="77" pos="576" pan="0" len="12" vol="100" />
          <note key="80" pos="624" pan="0" len="12" vol="100" />
          <note key="75" pos="672" pan="0" len="12" vol="100" />
          <note key="71" pos="696" pan="0" len="36" vol="100" />
          <note key="75" pos="768" pan="0" len="72" vol="100" />
          <note key="66" pos="888" pan="0" len="24" vol="100" />
          <note key="71" pos="912" pan="0" len="12" vol="100" />
          <note key="73" pos="936" pan="0" len="24" vol="100" />
          <note key="75" pos="960" pan="0" len="12" vol="100" />
          <note key="78" pos="1008" pan="0" len="24" vol="100" />
          <note key="73" pos="1032" pan="0" len="12" vol="100" />
          <note key="70" pos="1080" pan="0" len="12" vol="100" />
          <note key="73" pos="1128" pan="0" len="108" vol="100" />
          <note key="71" pos="1320" pan="0" len="12" vol="100" />
          <note key="70" pos="1332" pan="0" len="12" vol="100" />
          <note key="68" pos="1344" pan="0" len="12" vol="100" />
          <note key="61" pos="1464" pan="0" len="24" vol="100" />
          <note key="63" pos="1488" pan="0" len="24" vol="100" />
          <note key="68" pos="1512" pan="0" len="24" vol="100" />
        </pattern>
      </track>
      <track solo="0" name="7 (Ch16)" type="0" muted="0">
        <instrumenttrack usemasterpitch="1" pitch="0.0" basenote="57" pan="0" pitchrange="12" vol="30">
          <eldata />
          <instrument name="tripleoscillator" />
        </instrumenttrack>
        <pattern pos="54528" muted="0" steps="16" name="" type="1">
          <note key="86" pos="120" pan="0" len="24" vol="100" />
          <note key="91" pos="144" pan="0" len="24" vol="100" />
          <note key="89" pos="168" pan="0" len="48" vol="100" />
        </pattern>
      </track>
      <track solo="0" name="7 (Ch19)" type="0" muted="0">
        <instrumenttrack usemasterpitch="1" pitch="0.0" basenote="57" pan="0" pitchrange="12" vol="30">
          <eldata />
          <instrument name="tripleoscillator" />
        </instrumenttrack>
        <pattern pos="99840" muted="0" steps="16" name="" type="1">
          <note key="50" pos="0" pan="0" len="384" vol="100" />
          <note key="60" pos="384" pan="0" len="384" vol="100" />
          <note key="69" pos="768" pan="0" len="384" vol="100" />
          <note key="79" pos="1152" pan="0" len="192" vol="100" />
          <note key="76" pos="1344" pan="0" len="192" vol="100" />
        </pattern>
        <pattern pos="98304" muted="0" steps="16" name="" type="1">
          <note key="50" pos="0" pan="0" len="384" vol="100" />
          <note key="60" pos="384" pan="0" len="384" vol="100" />
          <note key="69" pos="768" pan="0" len="384" vol="100" />
          <note key="79" pos="1152" pan="0" len="192" vol="100" />
          <note key="76" pos="1344" pan="0" len="192" vol="100" />
        </pattern>
      </track>
      <track solo="0" name="8 (Ch2)" type="0" muted="0">
        <instrumenttrack usemasterpitch="1" pitch="0.0" basenote="57" pan="0" pitchrange="12" vol="30">
          <eldata />
          <instrument name="tripleoscillator" />
        </instrumenttrack>
        <pattern pos="178956" muted="0" steps="16" name="" type="1">
          <note key="59" pos="1152" pan="0" len="120" vol="100" />
          <note key="62" pos="1272" pan="0" len="12" vol="100" />
          <note key="61" pos="1284" pan="0" len="12" vol="100" />
          <note key="59" pos="1296" pan="0" len="132" vol="100" />
          <note key="61" pos="1428" pan="0" len="12" vol="100" />
          <note key="62" pos="1440" pan="0" len="132" vol="100" />
        </pattern>
      </track>
      <track solo="0" name="8 (Ch6)" type="0" muted="0">
        <instrumenttrack usemasterpitch="1" pitch="0.0" basenote="57" pan="0" pitchrange="12" vol="30">
          <eldata />
          <instrument name="tripleoscillator" />
        </instrumenttrack>
        <pattern pos="235020" muted="0" steps="16" name="" type="1">
          <note key="49" pos="0" pan="0" len="12" vol="100" />
          <note key="46" pos="24" pan="0" len="12" vol="100" />
          <note key="49" pos="48" pan="0" len="12" vol="100" />
          <note key="46" pos="72" pan="0" len="12" vol="100" />
          <note key="49" pos="96" pan="0" len="12" vol="100" />
          <note key="46" pos="120" pan="0" len="12" vol="100" />
          <note key="49" pos="144" pan="0" len="12" vol="100" />
          <note key="46" pos="168" pan="0" len="12" vol="100" />
          <note key="46" pos="192" pan="0" len="12" vol="100" />
          <note key="42" pos="216" pan="0" len="12" vol="100" />
          <note key="46" pos="240" pan="0" len="12" vol="100" />
          <note key="42" pos="264" pan="0" len="12" vol="100" />
          <note key="46" pos="288" pan="0" len="12" vol="100" />
          <note key="42" pos="312" pan="0" len="12" vol="100" />
          <note key="46" pos="336" pan="0" len="12" vol="100" />
          <note key="42" pos="360" pan="0" len="12" vol="100" />
          <note key="48" pos="384" pan="0" len="12" vol="100" />
          <note key="44" pos="408" pan="0" len="12" vol="100" />
          <note key="48" pos="432" pan="0" len="12" vol="100" />
          <note key="44" pos="456" pan="0" len="12" vol="100" />
          <note key="48" pos="480" pan="0" len="12" vol="100" />
          <note key="44" pos="504" pan="0" len="12" vol="100" />
          <note key="48" pos="528" pan="0" len="12" vol="100" />
          <note key="44" pos="552" pan="0" len="12" vol="100" />
          <note key="56" pos="576" pan="0" len="12" vol="100" />
          <note key="53" pos="600" pan="0" len="12" vol="100" />
          <note key="56" pos="624" pan="0" len="12" vol="100" />
          <note key="53" pos="648" pan="0" len="12" vol="100" />
          <note key="56" pos="672" pan="0" len="12" vol="100" />
          <note key="53" pos="696" pan="0" len="12" vol="100" />
          <note key="56" pos="720" pan="0" len="12" vol="100" />
          <note key="53" pos="744" pan="0" len="12" vol="100" />
          <note key="58" pos="768" pan="0" len="12" vol="100" />
          <note key="54" pos="792" pan="0" len="12" vol="100" />
          <note key="58" pos="816" pan="0" len="12" vol="100" />
          <note key="54" pos="840" pan="0" len="12" vol="100" />
          <note key="58" pos="864" pan="0" len="12" vol="100" />
          <note key="54" pos="888" pan="0" len="12" vol="100" />
          <note key="58" pos="912" pan="0" len="12" vol="100" />
          <note key="54" pos="936" pan="0" len="12" vol="100" />
          <note key="58" pos="960" pan="0" len="12" vol="100" />
          <note key="54" pos="984" pan="0" len="12" vol="100" />
          <note key="58" pos="1008" pan="0" len="12" vol="100" />
          <note key="54" pos="1032" pan="0" len="12" vol="100" />
          <note key="58" pos="1056" pan="0" len="12" vol="100" />
          <note key="54" pos="1080" pan="0" len="12" vol="100" />
          <note key="58" pos="1104" pan="0" len="12" vol="100" />
          <note key="54" pos="1128" pan="0" len="12" vol="100" />
          <note key="56" pos="1152" pan="0" len="12" vol="100" />
          <note key="51" pos="1176" pan="0" len="12" vol="100" />
          <note key="56" pos="1200" pan="0" len="12" vol="100" />
          <note key="51" pos="1224" pan="0" len="12" vol="100" />
          <note key="56" pos="1248" pan="0" len="12" vol="100" />
          <note key="51" pos="1272" pan="0" len="12" vol="100" />
          <note key="56" pos="1296" pan="0" len="12" vol="100" />
          <note key="51" pos="1320" pan="0" len="12" vol="100" />
          <note key="56" pos="1344" pan="0" len="12" vol="100" />
          <note key="51" pos="1368" pan="0" len="12" vol="100" />
          <note key="56" pos="1392" pan="0" len="12" vol="100" />
          <note key="51" pos="1416" pan="0" len="12" vol="100" />
          <note key="54" pos="1440" pan="0" len="12" vol="100" />
          <note key="51" pos="1464" pan="0" len="12" vol="100" />
          <note key="54" pos="1488" pan="0" len="12" vol="100" />
          <note key="58" pos="1512" pan="0" len="24" vol="100" />
        </pattern>
        <pattern pos="221196" muted="0" steps="16" name="" type="1">
          <note key="58" pos="528" pan="0" len="12" vol="100" />
          <note key="53" pos="552" pan="0" len="12" vol="100" />
          <note key="58" pos="576" pan="0" len="12" vol="100" />
          <note key="58" pos="1152" pan="0" len="12" vol="100" />
          <note key="53" pos="1176" pan="0" len="12" vol="100" />
          <note key="65" pos="1200" pan="0" len="12" vol="100" />
        </pattern>
        <pattern pos="222732" muted="0" steps="16" name="" type="1">
          <note key="58" pos="0" pan="0" len="12" vol="100" />
          <note key="53" pos="24" pan="0" len="12" vol="100" />
          <note key="58" pos="48" pan="0" len="12" vol="100" />
          <note key="53" pos="72" pan="0" len="12" vol="100" />
          <note key="58" pos="96" pan="0" len="12" vol="100" />
          <note key="53" pos="120" pan="0" len="12" vol="100" />
          <note key="58" pos="144" pan="0" len="12" vol="100" />
          <note key="53" pos="168" pan="0" len="12" vol="100" />
          <note key="56" pos="192" pan="0" len="12" vol="100" />
          <note key="51" pos="216" pan="0" len="12" vol="100" />
          <note key="56" pos="240" pan="0" len="12" vol="100" />
          <note key="51" pos="264" pan="0" len="12" vol="100" />
          <note key="54" pos="288" pan="0" len="12" vol="100" />
          <note key="49" pos="312" pan="0" len="12" vol="100" />
          <note key="54" pos="336" pan="0" len="12" vol="100" />
          <note key="49" pos="360" pan="0" len="12" vol="100" />
          <note key="54" pos="384" pan="0" len="12" vol="100" />
          <note key="49" pos="408" pan="0" len="12" vol="100" />
          <note key="54" pos="432" pan="0" len="12" vol="100" />
          <note key="49" pos="456" pan="0" len="12" vol="100" />
          <note key="54" pos="480" pan="0" len="12" vol="100" />
          <note key="49" pos="504" pan="0" len="12" vol="100" />
          <note key="54" pos="528" pan="0" len="12" vol="100" />
          <note key="49" pos="552" pan="0" len="12" vol="100" />
          <note key="61" pos="576" pan="0" len="12" vol="100" />
          <note key="56" pos="600" pan="0" len="12" vol="100" />
          <note key="61" pos="624" pan="0" len="12" vol="100" />
          <note key="56" pos="648" pan="0" len="12" vol="100" />
          <note key="60" pos="672" pan="0" len="12" vol="100" />
          <note key="51" pos="696" pan="0" len="12" vol="100" />
          <note key="60" pos="720" pan="0" len="12" vol="100" />
          <note key="51" pos="744" pan="0" len="12" vol="100" />
          <note key="58" pos="768" pan="0" len="12" vol="100" />
          <note key="53" pos="792" pan="0" len="12" vol="100" />
          <note key="58" pos="816" pan="0" len="12" vol="100" />
          <note key="53" pos="840" pan="0" len="12" vol="100" />
          <note key="58" pos="864" pan="0" len="12" vol="100" />
          <note key="53" pos="888" pan="0" len="12" vol="100" />
          <note key="58" pos="912" pan="0" len="12" vol="100" />
          <note key="53" pos="936" pan="0" len="12" vol="100" />
          <note key="56" pos="960" pan="0" len="12" vol="100" />
          <note key="51" pos="984" pan="0" len="12" vol="100" />
          <note key="56" pos="1008" pan="0" len="12" vol="100" />
          <note key="51" pos="1032" pan="0" len="12" vol="100" />
          <note key="54" pos="1056" pan="0" len="12" vol="100" />
          <note key="49" pos="1080" pan="0" len="12" vol="100" />
          <note key="54" pos="1104" pan="0" len="12" vol="100" />
          <note key="49" pos="1128" pan="0" len="12" vol="100" />
          <note key="54" pos="1152" pan="0" len="12" vol="100" />
          <note key="49" pos="1176" pan="0" len="12" vol="100" />
          <note key="54" pos="1200" pan="0" len="12" vol="100" />
          <note key="49" pos="1224" pan="0" len="12" vol="100" />
          <note key="54" pos="1248" pan="0" len="12" vol="100" />
          <note key="49" pos="1272" pan="0" len="12" vol="100" />
          <note key="54" pos="1296" pan="0" len="12" vol="100" />
          <note key="49" pos="1320" pan="0" len="12" vol="100" />
          <note key="61" pos="1344" pan="0" len="12" vol="100" />
          <note key="56" pos="1368" pan="0" len="12" vol="100" />
          <note key="61" pos="1392" pan="0" len="12" vol="100" />
          <note key="56" pos="1416" pan="0" len="12" vol="100" />
          <note key="60" pos="1440" pan="0" len="12" vol="100" />
          <note key="51" pos="1464" pan="0" len="12" vol="100" />
          <note key="60" pos="1488" pan="0" len="12" vol="100" />
          <note key="51" pos="1512" pan="0" len="12" vol="100" />
        </pattern>
        <pattern pos="224268" muted="0" steps="16" name="" type="1">
          <note key="56" pos="1488" pan="0" len="12" vol="100" />
          <note key="53" pos="1512" pan="0" len="12" vol="100" />
        </pattern>
        <pattern pos="225804" muted="0" steps="16" name="" type="1">
          <note key="58" pos="0" pan="0" len="12" vol="100" />
          <note key="53" pos="24" pan="0" len="12" vol="100" />
          <note key="58" pos="48" pan="0" len="12" vol="100" />
          <note key="53" pos="72" pan="0" len="12" vol="100" />
          <note key="58" pos="96" pan="0" len="12" vol="100" />
          <note key="53" pos="120" pan="0" len="12" vol="100" />
          <note key="58" pos="144" pan="0" len="12" vol="100" />
          <note key="53" pos="168" pan="0" len="12" vol="100" />
          <note key="56" pos="192" pan="0" len="12" vol="100" />
          <note key="51" pos="216" pan="0" len="12" vol="100" />
          <note key="56" pos="240" pan="0" len="12" vol="100" />
          <note key="51" pos="264" pan="0" len="12" vol="100" />
          <note key="54" pos="288" pan="0" len="12" vol="100" />
          <note key="49" pos="312" pan="0" len="12" vol="100" />
          <note key="54" pos="336" pan="0" len="12" vol="100" />
          <note key="49" pos="360" pan="0" len="12" vol="100" />
          <note key="54" pos="384" pan="0" len="12" vol="100" />
          <note key="49" pos="408" pan="0" len="12" vol="100" />
          <note key="54" pos="432" pan="0" len="12" vol="100" />
          <note key="49" pos="456" pan="0" len="12" vol="100" />
          <note key="54" pos="480" pan="0" len="12" vol="100" />
          <note key="49" pos="504" pan="0" len="12" vol="100" />
          <note key="54" pos="528" pan="0" len="12" vol="100" />
          <note key="49" pos="552" pan="0" len="12" vol="100" />
          <note key="61" pos="576" pan="0" len="12" vol="100" />
          <note key="56" pos="600" pan="0" len="12" vol="100" />
          <note key="61" pos="624" pan="0" len="12" vol="100" />
          <note key="56" pos="648" pan="0" len="12" vol="100" />
          <note key="60" pos="672" pan="0" len="12" vol="100" />
          <note key="51" pos="696" pan="0" len="12" vol="100" />
          <note key="60" pos="720" pan="0" len="12" vol="100" />
          <note key="51" pos="744" pan="0" len="12" vol="100" />
          <note key="58" pos="768" pan="0" len="12" vol="100" />
          <note key="53" pos="792" pan="0" len="12" vol="100" />
          <note key="58" pos="816" pan="0" len="12" vol="100" />
          <note key="53" pos="840" pan="0" len="12" vol="100" />
          <note key="58" pos="864" pan="0" len="12" vol="100" />
          <note key="53" pos="888" pan="0" len="12" vol="100" />
          <note key="58" pos="912" pan="0" len="12" vol="100" />
          <note key="53" pos="936" pan="0" len="12" vol="100" />
          <note key="56" pos="960" pan="0" len="12" vol="100" />
          <note key="51" pos="984" pan="0" len="12" vol="100" />
          <note key="56" pos="1008" pan="0" len="12" vol="100" />
          <note key="51" pos="1032" pan="0" len="12" vol="100" />
          <note key="54" pos="1056" pan="0" len="12" vol="100" />
          <note key="49" pos="1080" pan="0" len="12" vol="100" />
          <note key="54" pos="1104" pan="0" len="12" vol="100" />
          <note key="49" pos="1128" pan="0" len="12" vol="100" />
          <note key="54" pos="1152" pan="0" len="12" vol="100" />
          <note key="49" pos="1176" pan="0" len="12" vol="100" />
          <note key="54" pos="1200" pan="0" len="12" vol="100" />
          <note key="49" pos="1224" pan="0" len="12" vol="100" />
          <note key="54" pos="1248" pan="0" len="12" vol="100" />
          <note key="49" pos="1272" pan="0" len="12" vol="100" />
          <note key="54" pos="1296" pan="0" len="12" vol="100" />
          <note key="49" pos="1320" pan="0" len="12" vol="100" />
          <note key="61" pos="1344" pan="0" len="12" vol="100" />
          <note key="56" pos="1368" pan="0" len="12" vol="100" />
          <note key="61" pos="1392" pan="0" len="12" vol="100" />
          <note key="56" pos="1416" pan="0" len="12" vol="100" />
          <note key="60" pos="1440" pan="0" len="12" vol="100" />
          <note key="51" pos="1464" pan="0" len="12" vol="100" />
          <note key="60" pos="1488" pan="0" len="12" vol="100" />
          <note key="51" pos="1512" pan="0" len="12" vol="100" />
        </pattern>
        <pattern pos="230412" muted="0" steps="16" name="" type="1">
          <note key="56" pos="1488" pan="0" len="12" vol="100" />
          <note key="53" pos="1512" pan="0" len="12" vol="100" />
        </pattern>
        <pattern pos="231948" muted="0" steps="16" name="" type="1">
          <note key="58" pos="0" pan="0" len="12" vol="100" />
          <note key="53" pos="24" pan="0" len="12" vol="100" />
          <note key="58" pos="48" pan="0" len="12" vol="100" />
          <note key="53" pos="72" pan="0" len="12" vol="100" />
          <note key="58" pos="96" pan="0" len="12" vol="100" />
          <note key="53" pos="120" pan="0" len="12" vol="100" />
          <note key="58" pos="144" pan="0" len="12" vol="100" />
          <note key="53" pos="168" pan="0" len="12" vol="100" />
          <note key="56" pos="192" pan="0" len="12" vol="100" />
          <note key="51" pos="216" pan="0" len="12" vol="100" />
          <note key="56" pos="240" pan="0" len="12" vol="100" />
          <note key="51" pos="264" pan="0" len="12" vol="100" />
          <note key="54" pos="288" pan="0" len="12" vol="100" />
          <note key="49" pos="312" pan="0" len="12" vol="100" />
          <note key="54" pos="336" pan="0" len="12" vol="100" />
          <note key="49" pos="360" pan="0" len="12" vol="100" />
          <note key="54" pos="384" pan="0" len="12" vol="100" />
          <note key="49" pos="408" pan="0" len="12" vol="100" />
          <note key="54" pos="432" pan="0" len="12" vol="100" />
          <note key="49" pos="456" pan="0" len="12" vol="100" />
          <note key="54" pos="480" pan="0" len="12" vol="100" />
          <note key="49" pos="504" pan="0" len="12" vol="100" />
          <note key="54" pos="528" pan="0" len="12" vol="100" />
          <note key="49" pos="552" pan="0" len="12" vol="100" />
          <note key="61" pos="576" pan="0" len="12" vol="100" />
          <note key="56" pos="600" pan="0" len="12" vol="100" />
          <note key="61" pos="624" pan="0" len="12" vol="100" />
          <note key="56" pos="648" pan="0" len="12" vol="100" />
          <note key="60" pos="672" pan="0" len="12" vol="100" />
          <note key="51" pos="696" pan="0" len="12" vol="100" />
          <note key="60" pos="720" pan="0" len="12" vol="100" />
          <note key="51" pos="744" pan="0" len="12" vol="100" />
          <note key="58" pos="768" pan="0" len="12" vol="100" />
          <note key="53" pos="792" pan="0" len="12" vol="100" />
          <note key="58" pos="816" pan="0" len="12" vol="100" />
          <note key="53" pos="840" pan="0" len="12" vol="100" />
          <note key="58" pos="864" pan="0" len="12" vol="100" />
          <note key="53" pos="888" pan="0" len="12" vol="100" />
          <note key="58" pos="912" pan="0" len="12" vol="100" />
          <note key="53" pos="936" pan="0" len="12" vol="100" />
          <note key="56" pos="960" pan="0" len="12" vol="100" />
          <note key="51" pos="984" pan="0" len="12" vol="100" />
          <note key="56" pos="1008" pan="0" len="12" vol="100" />
          <note key="51" pos="1032" pan="0" len="12" vol="100" />
          <note key="54" pos="1056" pan="0" len="12" vol="100" />
          <note key="49" pos="1080" pan="0" len="12" vol="100" />
          <note key="54" pos="1104" pan="0" len="12" vol="100" />
          <note key="49" pos="1128" pan="0" len="12" vol="100" />
          <note key="54" pos="1152" pan="0" len="12" vol="100" />
          <note key="49" pos="1176" pan="0" len="12" vol="100" />
          <note key="54" pos="1200" pan="0" len="12" vol="100" />
          <note key="49" pos="1224" pan="0" len="12" vol="100" />
          <note key="54" pos="1248" pan="0" len="12" vol="100" />
          <note key="49" pos="1272" pan="0" len="12" vol="100" />
          <note key="54" pos="1296" pan="0" len="12" vol="100" />
          <note key="49" pos="1320" pan="0" len="12" vol="100" />
          <note key="61" pos="1344" pan="0" len="12" vol="100" />
          <note key="56" pos="1368" pan="0" len="12" vol="100" />
          <note key="61" pos="1392" pan="0" len="12" vol="100" />
          <note key="56" pos="1416" pan="0" len="12" vol="100" />
          <note key="60" pos="1440" pan="0" len="12" vol="100" />
          <note key="51" pos="1464" pan="0" len="12" vol="100" />
          <note key="60" pos="1488" pan="0" len="12" vol="100" />
          <note key="51" pos="1512" pan="0" len="12" vol="100" />
        </pattern>
        <pattern pos="233484" muted="0" steps="16" name="" type="1">
          <note key="54" pos="0" pan="0" len="12" vol="100" />
          <note key="51" pos="24" pan="0" len="12" vol="100" />
          <note key="54" pos="48" pan="0" len="12" vol="100" />
          <note key="51" pos="72" pan="0" len="12" vol="100" />
          <note key="54" pos="96" pan="0" len="12" vol="100" />
          <note key="51" pos="120" pan="0" len="12" vol="100" />
          <note key="54" pos="144" pan="0" len="12" vol="100" />
          <note key="51" pos="168" pan="0" len="12" vol="100" />
          <note key="51" pos="192" pan="0" len="12" vol="100" />
          <note key="47" pos="216" pan="0" len="12" vol="100" />
          <note key="51" pos="240" pan="0" len="12" vol="100" />
          <note key="47" pos="264" pan="0" len="12" vol="100" />
          <note key="51" pos="288" pan="0" len="12" vol="100" />
          <note key="47" pos="312" pan="0" len="12" vol="100" />
          <note key="51" pos="336" pan="0" len="12" vol="100" />
          <note key="47" pos="360" pan="0" len="12" vol="100" />
          <note key="53" pos="384" pan="0" len="12" vol="100" />
          <note key="49" pos="408" pan="0" len="12" vol="100" />
          <note key="53" pos="432" pan="0" len="12" vol="100" />
          <note key="49" pos="456" pan="0" len="12" vol="100" />
          <note key="53" pos="480" pan="0" len="12" vol="100" />
          <note key="49" pos="504" pan="0" len="12" vol="100" />
          <note key="53" pos="528" pan="0" len="12" vol="100" />
          <note key="49" pos="552" pan="0" len="12" vol="100" />
          <note key="61" pos="576" pan="0" len="12" vol="100" />
          <note key="58" pos="600" pan="0" len="12" vol="100" />
          <note key="61" pos="624" pan="0" len="12" vol="100" />
          <note key="58" pos="648" pan="0" len="12" vol="100" />
          <note key="61" pos="672" pan="0" len="12" vol="100" />
          <note key="58" pos="696" pan="0" len="12" vol="100" />
          <note key="61" pos="720" pan="0" len="12" vol="100" />
          <note key="58" pos="744" pan="0" len="12" vol="100" />
          <note key="63" pos="768" pan="0" len="12" vol="100" />
          <note key="59" pos="792" pan="0" len="12" vol="100" />
          <note key="63" pos="816" pan="0" len="12" vol="100" />
          <note key="59" pos="840" pan="0" len="12" vol="100" />
          <note key="63" pos="864" pan="0" len="12" vol="100" />
          <note key="59" pos="888" pan="0" len="12" vol="100" />
          <note key="63" pos="912" pan="0" len="12" vol="100" />
          <note key="59" pos="936" pan="0" len="12" vol="100" />
          <note key="63" pos="960" pan="0" len="12" vol="100" />
          <note key="59" pos="984" pan="0" len="12" vol="100" />
          <note key="63" pos="1008" pan="0" len="12" vol="100" />
          <note key="59" pos="1032" pan="0" len="12" vol="100" />
          <note key="63" pos="1056" pan="0" len="12" vol="100" />
          <note key="59" pos="1080" pan="0" len="12" vol="100" />
          <note key="63" pos="1104" pan="0" len="12" vol="100" />
          <note key="59" pos="1128" pan="0" len="12" vol="100" />
          <note key="61" pos="1152" pan="0" len="12" vol="100" />
          <note key="56" pos="1176" pan="0" len="12" vol="100" />
          <note key="61" pos="1200" pan="0" len="12" vol="100" />
          <note key="56" pos="1224" pan="0" len="12" vol="100" />
          <note key="61" pos="1248" pan="0" len="12" vol="100" />
          <note key="56" pos="1272" pan="0" len="12" vol="100" />
          <note key="61" pos="1296" pan="0" len="12" vol="100" />
          <note key="56" pos="1320" pan="0" len="12" vol="100" />
          <note key="61" pos="1344" pan="0" len="12" vol="100" />
          <note key="56" pos="1368" pan="0" len="12" vol="100" />
          <note key="61" pos="1392" pan="0" len="12" vol="100" />
          <note key="56" pos="1416" pan="0" len="12" vol="100" />
          <note key="59" pos="1440" pan="0" len="12" vol="100" />
          <note key="56" pos="1464" pan="0" len="12" vol="100" />
          <note key="59" pos="1488" pan="0" len="12" vol="100" />
          <note key="63" pos="1512" pan="0" len="24" vol="100" />
        </pattern>
      </track>
      <track solo="0" name="8 (Ch7)" type="0" muted="0">
        <instrumenttrack usemasterpitch="1" pitch="0.0" basenote="57" pan="0" pitchrange="12" vol="30">
          <eldata />
          <instrument name="tripleoscillator" />
        </instrumenttrack>
        <pattern pos="120576" muted="0" steps="16" name="" type="1">
          <note key="62" pos="0" pan="0" len="72" vol="100" />
          <note key="67" pos="72" pan="0" len="48" vol="100" />
          <note key="62" pos="120" pan="0" len="12" vol="100" />
          <note key="67" pos="132" pan="0" len="12" vol="100" />
          <note key="65" pos="144" pan="0" len="12" vol="100" />
          <note key="64" pos="156" pan="0" len="12" vol="100" />
          <note key="62" pos="168" pan="0" len="36" vol="100" />
          <note key="65" pos="204" pan="0" len="12" vol="100" />
          <note key="64" pos="216" pan="0" len="12" vol="100" />
          <note key="60" pos="228" pan="0" len="12" vol="100" />
          <note key="55" pos="240" pan="0" len="36" vol="100" />
          <note key="64" pos="276" pan="0" len="12" vol="100" />
          <note key="62" pos="288" pan="0" len="48" vol="100" />
          <note key="69" pos="360" pan="0" len="24" vol="100" />
          <note key="65" pos="384" pan="0" len="24" vol="100" />
          <note key="64" pos="420" pan="0" len="12" vol="100" />
          <note key="65" pos="432" pan="0" len="72" vol="100" />
          <note key="67" pos="504" pan="0" len="48" vol="100" />
          <note key="65" pos="576" pan="0" len="72" vol="100" />
          <note key="69" pos="648" pan="0" len="24" vol="100" />
          <note key="65" pos="672" pan="0" len="24" vol="100" />
          <note key="62" pos="696" pan="0" len="12" vol="100" />
          <note key="67" pos="708" pan="0" len="12" vol="100" />
          <note key="65" pos="720" pan="0" len="12" vol="100" />
          <note key="64" pos="732" pan="0" len="12" vol="100" />
          <note key="62" pos="744" pan="0" len="36" vol="100" />
          <note key="65" pos="780" pan="0" len="12" vol="100" />
          <note key="64" pos="792" pan="0" len="12" vol="100" />
          <note key="60" pos="804" pan="0" len="12" vol="100" />
          <note key="55" pos="816" pan="0" len="36" vol="100" />
          <note key="64" pos="852" pan="0" len="12" vol="100" />
          <note key="62" pos="864" pan="0" len="48" vol="100" />
          <note key="69" pos="936" pan="0" len="24" vol="100" />
          <note key="65" pos="960" pan="0" len="24" vol="100" />
          <note key="64" pos="996" pan="0" len="12" vol="100" />
          <note key="65" pos="1008" pan="0" len="72" vol="100" />
          <note key="64" pos="1080" pan="0" len="72" vol="100" />
          <note key="60" pos="1152" pan="0" len="72" vol="100" />
          <note key="67" pos="1224" pan="0" len="24" vol="100" />
          <note key="63" pos="1248" pan="0" len="36" vol="100" />
          <note key="62" pos="1284" pan="0" len="12" vol="100" />
          <note key="63" pos="1296" pan="0" len="48" vol="100" />
          <note key="65" pos="1344" pan="0" len="12" vol="100" />
          <note key="63" pos="1356" pan="0" len="12" vol="100" />
          <note key="62" pos="1368" pan="0" len="36" vol="100" />
          <note key="58" pos="1416" pan="0" len="24" vol="100" />
          <note key="60" pos="1440" pan="0" len="24" vol="100" />
          <note key="67" pos="1464" pan="0" len="48" vol="100" />
          <note key="63" pos="1512" pan="0" len="48" vol="100" />
          <note key="62" pos="1560" pan="0" len="24" vol="100" />
          <note key="63" pos="1584" pan="0" len="48" vol="100" />
          <note key="65" pos="1632" pan="0" len="12" vol="100" />
          <note key="63" pos="1644" pan="0" len="12" vol="100" />
          <note key="65" pos="1656" pan="0" len="48" vol="100" />
          <note key="63" pos="1728" pan="0" len="72" vol="100" />
          <note key="67" pos="1800" pan="0" len="24" vol="100" />
          <note key="63" pos="1824" pan="0" len="24" vol="100" />
          <note key="60" pos="1848" pan="0" len="12" vol="100" />
          <note key="65" pos="1860" pan="0" len="12" vol="100" />
          <note key="63" pos="1872" pan="0" len="12" vol="100" />
          <note key="62" pos="1884" pan="0" len="12" vol="100" />
          <note key="60" pos="1896" pan="0" len="36" vol="100" />
          <note key="63" pos="1932" pan="0" len="12" vol="100" />
          <note key="62" pos="1944" pan="0" len="12" vol="100" />
          <note key="58" pos="1956" pan="0" len="12" vol="100" />
          <note key="53" pos="1968" pan="0" len="36" vol="100" />
          <note key="62" pos="2004" pan="0" len="12" vol="100" />
          <note key="60" pos="2016" pan="0" len="48" vol="100" />
          <note key="67" pos="2088" pan="0" len="24" vol="100" />
          <note key="63" pos="2112" pan="0" len="36" vol="100" />
          <note key="62" pos="2148" pan="0" len="12" vol="100" />
          <note key="63" pos="2160" pan="0" len="72" vol="100" />
          <note key="62" pos="2232" pan="0" len="72" vol="100" />
        </pattern>
        <pattern pos="113664" muted="0" steps="16" name="" type="1">
          <note key="69" pos="1704" pan="0" len="12" vol="100" />
          <note key="72" pos="1716" pan="0" len="12" vol="100" />
          <note key="74" pos="1728" pan="0" len="12" vol="100" />
          <note key="74" pos="1752" pan="0" len="12" vol="100" />
          <note key="72" pos="1776" pan="0" len="12" vol="100" />
          <note key="69" pos="1788" pan="0" len="12" vol="100" />
          <note key="67" pos="1800" pan="0" len="12" vol="100" />
          <note key="67" pos="1824" pan="0" len="12" vol="100" />
          <note key="69" pos="1836" pan="0" len="12" vol="100" />
          <note key="72" pos="1860" pan="0" len="12" vol="100" />
          <note key="67" pos="1872" pan="0" len="12" vol="100" />
          <note key="67" pos="1896" pan="0" len="12" vol="100" />
          <note key="69" pos="1908" pan="0" len="12" vol="100" />
          <note key="65" pos="1920" pan="0" len="12" vol="100" />
          <note key="64" pos="1932" pan="0" len="12" vol="100" />
          <note key="62" pos="1944" pan="0" len="12" vol="100" />
          <note key="62" pos="1968" pan="0" len="12" vol="100" />
          <note key="69" pos="1992" pan="0" len="12" vol="100" />
          <note key="72" pos="2004" pan="0" len="12" vol="100" />
          <note key="74" pos="2016" pan="0" len="12" vol="100" />
          <note key="74" pos="2040" pan="0" len="12" vol="100" />
          <note key="72" pos="2064" pan="0" len="12" vol="100" />
          <note key="69" pos="2076" pan="0" len="12" vol="100" />
          <note key="67" pos="2088" pan="0" len="12" vol="100" />
          <note key="67" pos="2112" pan="0" len="12" vol="100" />
          <note key="69" pos="2124" pan="0" len="24" vol="100" />
          <note key="72" pos="2148" pan="0" len="12" vol="100" />
          <note key="67" pos="2160" pan="0" len="12" vol="100" />
          <note key="67" pos="2184" pan="0" len="12" vol="100" />
          <note key="69" pos="2196" pan="0" len="12" vol="100" />
          <note key="65" pos="2220" pan="0" len="12" vol="100" />
          <note key="67" pos="2232" pan="0" len="12" vol="100" />
          <note key="67" pos="2256" pan="0" len="12" vol="100" />
          <note key="64" pos="2268" pan="0" len="12" vol="100" />
          <note key="60" pos="2292" pan="0" len="12" vol="100" />
        </pattern>
        <pattern pos="115968" muted="0" steps="16" name="" type="1">
          <note key="62" pos="0" pan="0" len="72" vol="100" />
          <note key="67" pos="72" pan="0" len="48" vol="100" />
          <note key="62" pos="120" pan="0" len="12" vol="100" />
          <note key="67" pos="132" pan="0" len="12" vol="100" />
          <note key="65" pos="144" pan="0" len="12" vol="100" />
          <note key="64" pos="156" pan="0" len="12" vol="100" />
          <note key="62" pos="168" pan="0" len="36" vol="100" />
          <note key="65" pos="204" pan="0" len="12" vol="100" />
          <note key="64" pos="216" pan="0" len="12" vol="100" />
          <note key="60" pos="228" pan="0" len="12" vol="100" />
          <note key="55" pos="240" pan="0" len="36" vol="100" />
          <note key="64" pos="276" pan="0" len="12" vol="100" />
          <note key="62" pos="288" pan="0" len="48" vol="100" />
          <note key="69" pos="360" pan="0" len="24" vol="100" />
          <note key="65" pos="384" pan="0" len="24" vol="100" />
          <note key="64" pos="420" pan="0" len="12" vol="100" />
          <note key="65" pos="432" pan="0" len="72" vol="100" />
          <note key="67" pos="504" pan="0" len="48" vol="100" />
          <note key="65" pos="576" pan="0" len="72" vol="100" />
          <note key="69" pos="648" pan="0" len="24" vol="100" />
          <note key="65" pos="672" pan="0" len="24" vol="100" />
          <note key="62" pos="696" pan="0" len="12" vol="100" />
          <note key="67" pos="708" pan="0" len="12" vol="100" />
          <note key="65" pos="720" pan="0" len="12" vol="100" />
          <note key="64" pos="732" pan="0" len="12" vol="100" />
          <note key="62" pos="744" pan="0" len="36" vol="100" />
          <note key="65" pos="780" pan="0" len="12" vol="100" />
          <note key="64" pos="792" pan="0" len="12" vol="100" />
          <note key="60" pos="804" pan="0" len="12" vol="100" />
          <note key="55" pos="816" pan="0" len="36" vol="100" />
          <note key="64" pos="852" pan="0" len="12" vol="100" />
          <note key="62" pos="864" pan="0" len="48" vol="100" />
          <note key="69" pos="936" pan="0" len="24" vol="100" />
          <note key="65" pos="960" pan="0" len="24" vol="100" />
          <note key="64" pos="996" pan="0" len="12" vol="100" />
          <note key="65" pos="1008" pan="0" len="72" vol="100" />
          <note key="64" pos="1080" pan="0" len="72" vol="100" />
          <note key="60" pos="1152" pan="0" len="72" vol="100" />
          <note key="67" pos="1224" pan="0" len="24" vol="100" />
          <note key="63" pos="1248" pan="0" len="36" vol="100" />
          <note key="62" pos="1284" pan="0" len="12" vol="100" />
          <note key="63" pos="1296" pan="0" len="48" vol="100" />
          <note key="65" pos="1344" pan="0" len="12" vol="100" />
          <note key="63" pos="1356" pan="0" len="12" vol="100" />
          <note key="62" pos="1368" pan="0" len="36" vol="100" />
          <note key="58" pos="1416" pan="0" len="24" vol="100" />
          <note key="60" pos="1440" pan="0" len="24" vol="100" />
          <note key="67" pos="1464" pan="0" len="48" vol="100" />
          <note key="63" pos="1512" pan="0" len="48" vol="100" />
          <note key="62" pos="1560" pan="0" len="24" vol="100" />
          <note key="63" pos="1584" pan="0" len="48" vol="100" />
          <note key="65" pos="1632" pan="0" len="12" vol="100" />
          <note key="63" pos="1644" pan="0" len="12" vol="100" />
          <note key="65" pos="1656" pan="0" len="48" vol="100" />
          <note key="63" pos="1728" pan="0" len="72" vol="100" />
          <note key="67" pos="1800" pan="0" len="24" vol="100" />
          <note key="63" pos="1824" pan="0" len="24" vol="100" />
          <note key="60" pos="1848" pan="0" len="12" vol="100" />
          <note key="65" pos="1860" pan="0" len="12" vol="100" />
          <note key="63" pos="1872" pan="0" len="12" vol="100" />
          <note key="62" pos="1884" pan="0" len="12" vol="100" />
          <note key="60" pos="1896" pan="0" len="36" vol="100" />
          <note key="63" pos="1932" pan="0" len="12" vol="100" />
          <note key="62" pos="1944" pan="0" len="12" vol="100" />
          <note key="58" pos="1956" pan="0" len="12" vol="100" />
          <note key="53" pos="1968" pan="0" len="36" vol="100" />
          <note key="62" pos="2004" pan="0" len="12" vol="100" />
          <note key="60" pos="2016" pan="0" len="48" vol="100" />
          <note key="67" pos="2088" pan="0" len="24" vol="100" />
          <note key="63" pos="2112" pan="0" len="36" vol="100" />
          <note key="62" pos="2148" pan="0" len="12" vol="100" />
          <note key="63" pos="2160" pan="0" len="72" vol="100" />
          <note key="62" pos="2232" pan="0" len="72" vol="100" />
        </pattern>
        <pattern pos="118272" muted="0" steps="16" name="" type="1">
          <note key="69" pos="1704" pan="0" len="12" vol="100" />
          <note key="72" pos="1716" pan="0" len="12" vol="100" />
          <note key="74" pos="1728" pan="0" len="12" vol="100" />
          <note key="74" pos="1752" pan="0" len="12" vol="100" />
          <note key="72" pos="1776" pan="0" len="12" vol="100" />
          <note key="69" pos="1788" pan="0" len="12" vol="100" />
          <note key="67" pos="1800" pan="0" len="12" vol="100" />
          <note key="67" pos="1824" pan="0" len="12" vol="100" />
          <note key="69" pos="1836" pan="0" len="12" vol="100" />
          <note key="72" pos="1860" pan="0" len="12" vol="100" />
          <note key="67" pos="1872" pan="0" len="12" vol="100" />
          <note key="67" pos="1896" pan="0" len="12" vol="100" />
          <note key="69" pos="1908" pan="0" len="12" vol="100" />
          <note key="65" pos="1920" pan="0" len="12" vol="100" />
          <note key="64" pos="1932" pan="0" len="12" vol="100" />
          <note key="62" pos="1944" pan="0" len="12" vol="100" />
          <note key="62" pos="1968" pan="0" len="12" vol="100" />
          <note key="69" pos="1992" pan="0" len="12" vol="100" />
          <note key="72" pos="2004" pan="0" len="12" vol="100" />
          <note key="74" pos="2016" pan="0" len="12" vol="100" />
          <note key="74" pos="2040" pan="0" len="12" vol="100" />
          <note key="72" pos="2064" pan="0" len="12" vol="100" />
          <note key="69" pos="2076" pan="0" len="12" vol="100" />
          <note key="67" pos="2088" pan="0" len="12" vol="100" />
          <note key="67" pos="2112" pan="0" len="12" vol="100" />
          <note key="69" pos="2124" pan="0" len="24" vol="100" />
          <note key="72" pos="2148" pan="0" len="12" vol="100" />
          <note key="67" pos="2160" pan="0" len="12" vol="100" />
          <note key="67" pos="2184" pan="0" len="12" vol="100" />
          <note key="69" pos="2196" pan="0" len="12" vol="100" />
          <note key="65" pos="2220" pan="0" len="12" vol="100" />
          <note key="67" pos="2232" pan="0" len="12" vol="100" />
          <note key="67" pos="2256" pan="0" len="12" vol="100" />
          <note key="64" pos="2268" pan="0" len="12" vol="100" />
          <note key="60" pos="2292" pan="0" len="12" vol="100" />
        </pattern>
      </track>
      <track solo="0" name="8 (Ch8)" type="0" muted="0">
        <instrumenttrack usemasterpitch="1" pitch="0.0" basenote="57" pan="0" pitchrange="12" vol="30">
          <eldata />
          <instrument name="tripleoscillator" />
        </instrumenttrack>
        <pattern pos="237324" muted="0" steps="16" name="" type="1">
          <note key="51" pos="768" pan="0" len="12" vol="100" />
          <note key="53" pos="780" pan="0" len="144" vol="100" />
          <note key="60" pos="924" pan="0" len="12" vol="100" />
          <note key="61" pos="936" pan="0" len="12" vol="100" />
          <note key="63" pos="948" pan="0" len="12" vol="100" />
          <note key="56" pos="960" pan="0" len="12" vol="100" />
          <note key="58" pos="972" pan="0" len="180" vol="100" />
          <note key="48" pos="1152" pan="0" len="12" vol="100" />
          <note key="49" pos="1164" pan="0" len="144" vol="100" />
          <note key="48" pos="1308" pan="0" len="12" vol="100" />
          <note key="44" pos="1320" pan="0" len="12" vol="100" />
          <note key="41" pos="1332" pan="0" len="12" vol="100" />
          <note key="46" pos="1344" pan="0" len="192" vol="100" />
        </pattern>
      </track>
      <track solo="0" name="8 (Ch10)" type="0" muted="0">
        <instrumenttrack usemasterpitch="1" pitch="0.0" basenote="57" pan="0" pitchrange="12" vol="30">
          <eldata />
          <instrument name="tripleoscillator" />
        </instrumenttrack>
        <pattern pos="241932" muted="0" steps="16" name="" type="1">
          <note key="70" pos="0" pan="0" len="36" vol="100" />
          <note key="58" pos="36" pan="0" len="120" vol="100" />
          <note key="51" pos="156" pan="0" len="12" vol="100" />
          <note key="56" pos="168" pan="0" len="12" vol="100" />
          <note key="63" pos="180" pan="0" len="204" vol="100" />
          <note key="65" pos="384" pan="0" len="36" vol="100" />
          <note key="60" pos="420" pan="0" len="108" vol="100" />
          <note key="51" pos="528" pan="0" len="12" vol="100" />
          <note key="61" pos="540" pan="0" len="12" vol="100" />
          <note key="60" pos="552" pan="0" len="12" vol="100" />
          <note key="56" pos="564" pan="0" len="204" vol="100" />
        </pattern>
      </track>
      <track solo="0" name="8 (Ch12)" type="0" muted="0">
        <instrumenttrack usemasterpitch="1" pitch="0.0" basenote="57" pan="0" pitchrange="12" vol="30">
          <eldata />
          <instrument name="tripleoscillator" />
        </instrumenttrack>
        <pattern pos="221196" muted="0" steps="16" name="" type="1">
          <note key="61" pos="384" pan="0" len="12" vol="89" />
          <note key="58" pos="420" pan="0" len="12" vol="66" />
          <note key="61" pos="456" pan="0" len="12" vol="66" />
          <note key="58" pos="492" pan="0" len="12" vol="56" />
          <note key="61" pos="528" pan="0" len="12" vol="45" />
          <note key="58" pos="564" pan="0" len="12" vol="34" />
          <note key="61" pos="600" pan="0" len="12" vol="22" />
          <note key="58" pos="636" pan="0" len="12" vol="12" />
          <note key="61" pos="1152" pan="0" len="12" vol="50" />
          <note key="58" pos="1188" pan="0" len="12" vol="50" />
          <note key="61" pos="1224" pan="0" len="12" vol="50" />
          <note key="58" pos="1260" pan="0" len="12" vol="44" />
          <note key="61" pos="1296" pan="0" len="12" vol="34" />
          <note key="58" pos="1332" pan="0" len="12" vol="27" />
          <note key="61" pos="1368" pan="0" len="12" vol="17" />
          <note key="58" pos="1404" pan="0" len="12" vol="9" />
        </pattern>
      </track>
      <track solo="0" name="8 (Ch13)" type="0" muted="0">
        <instrumenttrack usemasterpitch="1" pitch="0.0" basenote="57" pan="0" pitchrange="12" vol="30">
          <eldata />
          <instrument name="tripleoscillator" />
        </instrumenttrack>
        <pattern pos="236556" muted="0" steps="16" name="" type="1">
          <note key="61" pos="0" pan="0" len="12" vol="100" />
          <note key="58" pos="36" pan="0" len="12" vol="100" />
          <note key="61" pos="72" pan="0" len="12" vol="100" />
          <note key="58" pos="108" pan="0" len="12" vol="86" />
          <note key="61" pos="144" pan="0" len="12" vol="69" />
          <note key="58" pos="180" pan="0" len="12" vol="52" />
        </pattern>
        <pattern pos="95232" muted="0" steps="16" name="" type="1">
          <note key="48" pos="0" pan="0" len="48" vol="100" />
          <note key="50" pos="48" pan="0" len="144" vol="100" />
          <note key="57" pos="192" pan="0" len="96" vol="100" />
          <note key="55" pos="288" pan="0" len="12" vol="100" />
          <note key="57" pos="300" pan="0" len="12" vol="100" />
          <note key="55" pos="312" pan="0" len="360" vol="100" />
          <note key="53" pos="672" pan="0" len="48" vol="100" />
          <note key="52" pos="720" pan="0" len="48" vol="100" />
          <note key="52" pos="768" pan="0" len="96" vol="100" />
          <note key="53" pos="864" pan="0" len="96" vol="100" />
          <note key="55" pos="960" pan="0" len="96" vol="100" />
          <note key="46" pos="1056" pan="0" len="24" vol="100" />
          <note key="48" pos="1080" pan="0" len="360" vol="100" />
          <note key="45" pos="1440" pan="0" len="48" vol="100" />
          <note key="55" pos="1488" pan="0" len="48" vol="100" />
          <note key="45" pos="1536" pan="0" len="48" vol="100" />
          <note key="38" pos="1584" pan="0" len="48" vol="100" />
          <note key="41" pos="1632" pan="0" len="672" vol="100" />
        </pattern>
        <pattern pos="221196" muted="0" steps="16" name="" type="1">
          <note key="58" pos="384" pan="0" len="12" vol="89" />
          <note key="49" pos="420" pan="0" len="12" vol="66" />
          <note key="58" pos="456" pan="0" len="12" vol="66" />
          <note key="49" pos="492" pan="0" len="12" vol="56" />
          <note key="58" pos="528" pan="0" len="12" vol="45" />
          <note key="49" pos="564" pan="0" len="12" vol="34" />
          <note key="58" pos="600" pan="0" len="12" vol="22" />
          <note key="49" pos="636" pan="0" len="12" vol="12" />
          <note key="58" pos="1152" pan="0" len="12" vol="50" />
          <note key="49" pos="1188" pan="0" len="12" vol="50" />
          <note key="58" pos="1224" pan="0" len="12" vol="50" />
          <note key="49" pos="1260" pan="0" len="12" vol="44" />
          <note key="58" pos="1296" pan="0" len="12" vol="34" />
          <note key="49" pos="1332" pan="0" len="12" vol="27" />
          <note key="58" pos="1368" pan="0" len="12" vol="17" />
          <note key="49" pos="1404" pan="0" len="12" vol="9" />
        </pattern>
        <pattern pos="224268" muted="0" steps="16" name="" type="1">
          <note key="61" pos="0" pan="0" len="12" vol="100" />
          <note key="58" pos="36" pan="0" len="12" vol="100" />
          <note key="61" pos="72" pan="0" len="12" vol="100" />
          <note key="58" pos="108" pan="0" len="12" vol="86" />
          <note key="61" pos="144" pan="0" len="12" vol="69" />
          <note key="58" pos="180" pan="0" len="12" vol="52" />
          <note key="61" pos="216" pan="0" len="12" vol="34" />
          <note key="58" pos="252" pan="0" len="12" vol="17" />
          <note key="61" pos="768" pan="0" len="12" vol="100" />
          <note key="58" pos="804" pan="0" len="12" vol="100" />
          <note key="61" pos="840" pan="0" len="12" vol="100" />
          <note key="58" pos="876" pan="0" len="12" vol="86" />
          <note key="61" pos="912" pan="0" len="12" vol="69" />
          <note key="58" pos="948" pan="0" len="12" vol="52" />
          <note key="61" pos="984" pan="0" len="12" vol="34" />
          <note key="58" pos="1020" pan="0" len="12" vol="17" />
        </pattern>
        <pattern pos="230412" muted="0" steps="16" name="" type="1">
          <note key="61" pos="0" pan="0" len="12" vol="100" />
          <note key="58" pos="36" pan="0" len="12" vol="100" />
          <note key="61" pos="72" pan="0" len="12" vol="100" />
          <note key="58" pos="108" pan="0" len="12" vol="86" />
          <note key="61" pos="144" pan="0" len="12" vol="69" />
          <note key="58" pos="180" pan="0" len="12" vol="52" />
          <note key="61" pos="216" pan="0" len="12" vol="34" />
          <note key="58" pos="252" pan="0" len="12" vol="17" />
          <note key="61" pos="768" pan="0" len="12" vol="100" />
          <note key="58" pos="804" pan="0" len="12" vol="100" />
          <note key="61" pos="840" pan="0" len="12" vol="100" />
          <note key="58" pos="876" pan="0" len="12" vol="86" />
          <note key="61" pos="912" pan="0" len="12" vol="69" />
          <note key="58" pos="948" pan="0" len="12" vol="52" />
          <note key="61" pos="984" pan="0" len="12" vol="34" />
          <note key="58" pos="1020" pan="0" len="12" vol="17" />
        </pattern>
      </track>
      <track solo="0" name="8 (Ch14)" type="0" muted="0">
        <instrumenttrack usemasterpitch="1" pitch="0.0" basenote="57" pan="0" pitchrange="12" vol="30">
          <eldata />
          <instrument name="tripleoscillator" />
        </instrumenttrack>
        <pattern pos="236556" muted="0" steps="16" name="" type="1">
          <note key="58" pos="0" pan="0" len="12" vol="100" />
          <note key="49" pos="36" pan="0" len="12" vol="100" />
          <note key="58" pos="72" pan="0" len="12" vol="100" />
          <note key="49" pos="108" pan="0" len="12" vol="86" />
          <note key="58" pos="144" pan="0" len="12" vol="69" />
          <note key="49" pos="180" pan="0" len="12" vol="52" />
        </pattern>
        <pattern pos="221196" muted="0" steps="16" name="" type="1">
          <note key="65" pos="384" pan="0" len="12" vol="89" />
          <note key="65" pos="456" pan="0" len="12" vol="66" />
          <note key="65" pos="1152" pan="0" len="12" vol="50" />
          <note key="65" pos="1224" pan="0" len="12" vol="50" />
        </pattern>
        <pattern pos="224268" muted="0" steps="16" name="" type="1">
          <note key="58" pos="0" pan="0" len="12" vol="100" />
          <note key="49" pos="36" pan="0" len="12" vol="100" />
          <note key="58" pos="72" pan="0" len="12" vol="100" />
          <note key="49" pos="108" pan="0" len="12" vol="86" />
          <note key="58" pos="144" pan="0" len="12" vol="69" />
          <note key="49" pos="180" pan="0" len="12" vol="52" />
          <note key="58" pos="216" pan="0" len="12" vol="34" />
          <note key="49" pos="252" pan="0" len="12" vol="17" />
          <note key="58" pos="768" pan="0" len="12" vol="100" />
          <note key="49" pos="804" pan="0" len="12" vol="100" />
          <note key="58" pos="840" pan="0" len="12" vol="100" />
          <note key="49" pos="876" pan="0" len="12" vol="86" />
          <note key="58" pos="912" pan="0" len="12" vol="69" />
          <note key="49" pos="948" pan="0" len="12" vol="52" />
          <note key="58" pos="984" pan="0" len="12" vol="34" />
          <note key="49" pos="1020" pan="0" len="12" vol="17" />
        </pattern>
        <pattern pos="230412" muted="0" steps="16" name="" type="1">
          <note key="58" pos="0" pan="0" len="12" vol="100" />
          <note key="49" pos="36" pan="0" len="12" vol="100" />
          <note key="58" pos="72" pan="0" len="12" vol="100" />
          <note key="49" pos="108" pan="0" len="12" vol="86" />
          <note key="58" pos="144" pan="0" len="12" vol="69" />
          <note key="49" pos="180" pan="0" len="12" vol="52" />
          <note key="58" pos="216" pan="0" len="12" vol="34" />
          <note key="49" pos="252" pan="0" len="12" vol="17" />
          <note key="58" pos="768" pan="0" len="12" vol="100" />
          <note key="49" pos="804" pan="0" len="12" vol="100" />
          <note key="58" pos="840" pan="0" len="12" vol="100" />
          <note key="49" pos="876" pan="0" len="12" vol="86" />
          <note key="58" pos="912" pan="0" len="12" vol="69" />
          <note key="49" pos="948" pan="0" len="12" vol="52" />
          <note key="58" pos="984" pan="0" len="12" vol="34" />
          <note key="49" pos="1020" pan="0" len="12" vol="17" />
        </pattern>
      </track>
      <track solo="0" name="8 (Ch15)" type="0" muted="0">
        <instrumenttrack usemasterpitch="1" pitch="0.0" basenote="57" pan="0" pitchrange="12" vol="30">
          <eldata />
          <instrument name="tripleoscillator" />
        </instrumenttrack>
        <pattern pos="236556" muted="0" steps="16" name="" type="1">
          <note key="65" pos="0" pan="0" len="12" vol="100" />
          <note key="65" pos="72" pan="0" len="12" vol="100" />
        </pattern>
        <pattern pos="224268" muted="0" steps="16" name="" type="1">
          <note key="65" pos="0" pan="0" len="12" vol="100" />
          <note key="65" pos="72" pan="0" len="12" vol="100" />
          <note key="65" pos="768" pan="0" len="12" vol="100" />
          <note key="65" pos="840" pan="0" len="12" vol="100" />
        </pattern>
        <pattern pos="230412" muted="0" steps="16" name="" type="1">
          <note key="65" pos="0" pan="0" len="12" vol="100" />
          <note key="65" pos="72" pan="0" len="12" vol="100" />
          <note key="65" pos="768" pan="0" len="12" vol="100" />
          <note key="65" pos="840" pan="0" len="12" vol="100" />
        </pattern>
      </track>
      <track solo="0" name="8 (Ch16)" type="0" muted="0">
        <instrumenttrack usemasterpitch="1" pitch="0.0" basenote="57" pan="0" pitchrange="12" vol="30">
          <eldata />
          <instrument name="tripleoscillator" />
        </instrumenttrack>
        <pattern pos="155148" muted="0" steps="16" name="" type="1">
          <note key="48" pos="72" pan="0" len="12" vol="100" />
          <note key="49" pos="84" pan="0" len="12" vol="100" />
          <note key="49" pos="96" pan="0" len="12" vol="100" />
          <note key="51" pos="108" pan="0" len="60" vol="100" />
          <note key="49" pos="168" pan="0" len="12" vol="100" />
          <note key="48" pos="180" pan="0" len="12" vol="100" />
          <note key="49" pos="192" pan="0" len="12" vol="100" />
          <note key="48" pos="204" pan="0" len="12" vol="100" />
          <note key="46" pos="216" pan="0" len="72" vol="100" />
          <note key="42" pos="456" pan="0" len="12" vol="100" />
          <note key="44" pos="468" pan="0" len="12" vol="100" />
          <note key="44" pos="480" pan="0" len="12" vol="100" />
          <note key="46" pos="492" pan="0" len="36" vol="100" />
          <note key="49" pos="528" pan="0" len="48" vol="100" />
          <note key="49" pos="576" pan="0" len="24" vol="100" />
          <note key="48" pos="600" pan="0" len="24" vol="100" />
          <note key="44" pos="624" pan="0" len="24" vol="100" />
          <note key="39" pos="648" pan="0" len="72" vol="100" />
          <note key="48" pos="792" pan="0" len="12" vol="100" />
          <note key="49" pos="804" pan="0" len="12" vol="100" />
          <note key="49" pos="816" pan="0" len="12" vol="100" />
          <note key="51" pos="828" pan="0" len="60" vol="100" />
          <note key="56" pos="888" pan="0" len="72" vol="100" />
          <note key="58" pos="960" pan="0" len="144" vol="100" />
          <note key="51" pos="1128" pan="0" len="12" vol="100" />
          <note key="56" pos="1140" pan="0" len="12" vol="100" />
          <note key="61" pos="1152" pan="0" len="24" vol="100" />
          <note key="60" pos="1176" pan="0" len="24" vol="100" />
          <note key="56" pos="1200" pan="0" len="24" vol="100" />
          <note key="56" pos="1224" pan="0" len="12" vol="100" />
          <note key="54" pos="1236" pan="0" len="60" vol="100" />
          <note key="49" pos="1296" pan="0" len="48" vol="100" />
          <note key="54" pos="1344" pan="0" len="12" vol="100" />
          <note key="56" pos="1356" pan="0" len="84" vol="100" />
        </pattern>
      </track>
      <track solo="0" name="8 (Ch17)" type="0" muted="0">
        <instrumenttrack usemasterpitch="1" pitch="0.0" basenote="57" pan="0" pitchrange="12" vol="30">
          <eldata />
          <instrument name="tripleoscillator" />
        </instrumenttrack>
        <pattern pos="155148" muted="0" steps="16" name="" type="1">
          <note key="48" pos="108" pan="0" len="12" vol="50" />
          <note key="49" pos="120" pan="0" len="12" vol="50" />
          <note key="49" pos="132" pan="0" len="12" vol="50" />
          <note key="51" pos="144" pan="0" len="60" vol="50" />
          <note key="49" pos="204" pan="0" len="12" vol="50" />
          <note key="48" pos="216" pan="0" len="12" vol="50" />
          <note key="49" pos="228" pan="0" len="12" vol="50" />
          <note key="48" pos="240" pan="0" len="12" vol="50" />
          <note key="46" pos="252" pan="0" len="72" vol="50" />
          <note key="42" pos="492" pan="0" len="12" vol="50" />
          <note key="44" pos="504" pan="0" len="12" vol="50" />
          <note key="44" pos="516" pan="0" len="12" vol="50" />
          <note key="46" pos="528" pan="0" len="36" vol="50" />
          <note key="49" pos="564" pan="0" len="48" vol="50" />
          <note key="49" pos="612" pan="0" len="24" vol="50" />
          <note key="48" pos="636" pan="0" len="24" vol="50" />
          <note key="44" pos="660" pan="0" len="24" vol="50" />
          <note key="39" pos="684" pan="0" len="72" vol="50" />
          <note key="48" pos="828" pan="0" len="12" vol="50" />
          <note key="49" pos="840" pan="0" len="12" vol="50" />
          <note key="49" pos="852" pan="0" len="12" vol="50" />
          <note key="51" pos="864" pan="0" len="60" vol="50" />
          <note key="56" pos="924" pan="0" len="72" vol="50" />
          <note key="58" pos="996" pan="0" len="144" vol="50" />
          <note key="51" pos="1164" pan="0" len="12" vol="50" />
          <note key="56" pos="1176" pan="0" len="12" vol="50" />
          <note key="61" pos="1188" pan="0" len="24" vol="50" />
          <note key="60" pos="1212" pan="0" len="24" vol="50" />
          <note key="56" pos="1236" pan="0" len="24" vol="50" />
          <note key="56" pos="1260" pan="0" len="12" vol="50" />
          <note key="54" pos="1272" pan="0" len="60" vol="50" />
          <note key="49" pos="1332" pan="0" len="48" vol="50" />
          <note key="54" pos="1380" pan="0" len="12" vol="50" />
          <note key="56" pos="1392" pan="0" len="84" vol="50" />
        </pattern>
      </track>
      <track solo="0" name="9 (Ch1)" type="0" muted="0">
        <instrumenttrack usemasterpitch="1" pitch="0.0" basenote="57" pan="0" pitchrange="12" vol="30">
          <eldata />
          <instrument name="tripleoscillator" />
        </instrumenttrack>
        <pattern pos="248460" muted="0" steps="16" name="" type="1">
          <note key="46" pos="0" pan="0" len="384" vol="80" />
        </pattern>
        <pattern pos="101376" muted="0" steps="16" name="" type="1">
          <note key="65" pos="0" pan="0" len="48" vol="100" />
          <note key="67" pos="48" pan="0" len="24" vol="47" />
          <note key="69" pos="72" pan="0" len="24" vol="62" />
          <note key="67" pos="96" pan="0" len="48" vol="100" />
          <note key="64" pos="144" pan="0" len="48" vol="47" />
          <note key="60" pos="192" pan="0" len="48" vol="100" />
          <note key="55" pos="240" pan="0" len="48" vol="100" />
          <note key="57" pos="288" pan="0" len="48" vol="47" />
          <note key="48" pos="336" pan="0" len="48" vol="100" />
          <note key="50" pos="384" pan="0" len="384" vol="100" />
        </pattern>
        <pattern pos="102912" muted="0" steps="16" name="" type="1">
          <note key="50" pos="0" pan="0" len="48" vol="100" />
          <note key="52" pos="48" pan="0" len="24" vol="47" />
          <note key="53" pos="72" pan="0" len="24" vol="62" />
          <note key="52" pos="96" pan="0" len="48" vol="100" />
          <note key="55" pos="144" pan="0" len="48" vol="47" />
          <note key="60" pos="192" pan="0" len="48" vol="100" />
          <note key="64" pos="240" pan="0" len="48" vol="100" />
          <note key="62" pos="288" pan="0" len="48" vol="47" />
          <note key="57" pos="336" pan="0" len="48" vol="100" />
          <note key="65" pos="384" pan="0" len="192" vol="100" />
          <note key="64" pos="576" pan="0" len="144" vol="100" />
        </pattern>
        <pattern pos="104448" muted="0" steps="16" name="" type="1">
          <note key="65" pos="0" pan="0" len="48" vol="100" />
          <note key="67" pos="48" pan="0" len="24" vol="47" />
          <note key="69" pos="72" pan="0" len="24" vol="62" />
          <note key="67" pos="96" pan="0" len="48" vol="100" />
          <note key="64" pos="144" pan="0" len="48" vol="47" />
          <note key="60" pos="192" pan="0" len="48" vol="100" />
          <note key="55" pos="240" pan="0" len="48" vol="100" />
          <note key="57" pos="288" pan="0" len="48" vol="47" />
          <note key="48" pos="336" pan="0" len="48" vol="100" />
          <note key="50" pos="384" pan="0" len="384" vol="100" />
        </pattern>
        <pattern pos="105984" muted="0" steps="16" name="" type="1">
          <note key="50" pos="0" pan="0" len="48" vol="100" />
          <note key="52" pos="48" pan="0" len="24" vol="47" />
          <note key="53" pos="72" pan="0" len="24" vol="62" />
          <note key="52" pos="96" pan="0" len="48" vol="100" />
          <note key="55" pos="144" pan="0" len="48" vol="47" />
          <note key="60" pos="192" pan="0" len="48" vol="100" />
          <note key="64" pos="240" pan="0" len="48" vol="100" />
          <note key="62" pos="288" pan="0" len="48" vol="47" />
          <note key="57" pos="336" pan="0" len="48" vol="100" />
          <note key="65" pos="384" pan="0" len="192" vol="100" />
          <note key="64" pos="576" pan="0" len="144" vol="100" />
        </pattern>
        <pattern pos="107520" muted="0" steps="16" name="" type="1">
          <note key="61" pos="0" pan="0" len="12" vol="100" />
          <note key="60" pos="24" pan="0" len="12" vol="31" />
          <note key="56" pos="48" pan="0" len="12" vol="47" />
          <note key="54" pos="72" pan="0" len="12" vol="100" />
          <note key="61" pos="192" pan="0" len="24" vol="100" />
          <note key="60" pos="216" pan="0" len="24" vol="62" />
          <note key="56" pos="240" pan="0" len="24" vol="100" />
          <note key="54" pos="264" pan="0" len="24" vol="100" />
          <note key="63" pos="288" pan="0" len="48" vol="100" />
          <note key="60" pos="336" pan="0" len="432" vol="100" />
          <note key="56" pos="768" pan="0" len="12" vol="100" />
          <note key="55" pos="792" pan="0" len="12" vol="31" />
          <note key="51" pos="816" pan="0" len="12" vol="47" />
          <note key="49" pos="840" pan="0" len="12" vol="100" />
          <note key="56" pos="960" pan="0" len="24" vol="100" />
          <note key="55" pos="984" pan="0" len="24" vol="62" />
          <note key="51" pos="1008" pan="0" len="24" vol="100" />
          <note key="49" pos="1032" pan="0" len="24" vol="100" />
          <note key="58" pos="1056" pan="0" len="48" vol="100" />
          <note key="55" pos="1104" pan="0" len="432" vol="100" />
        </pattern>
        <pattern pos="109056" muted="0" steps="16" name="" type="1">
          <note key="61" pos="0" pan="0" len="12" vol="100" />
          <note key="60" pos="24" pan="0" len="12" vol="31" />
          <note key="56" pos="48" pan="0" len="12" vol="47" />
          <note key="54" pos="72" pan="0" len="12" vol="100" />
          <note key="61" pos="192" pan="0" len="24" vol="100" />
          <note key="60" pos="216" pan="0" len="24" vol="62" />
          <note key="56" pos="240" pan="0" len="24" vol="100" />
          <note key="54" pos="264" pan="0" len="24" vol="100" />
          <note key="63" pos="288" pan="0" len="48" vol="100" />
          <note key="60" pos="336" pan="0" len="432" vol="100" />
          <note key="56" pos="768" pan="0" len="12" vol="100" />
          <note key="55" pos="792" pan="0" len="12" vol="31" />
          <note key="51" pos="816" pan="0" len="12" vol="47" />
          <note key="49" pos="840" pan="0" len="12" vol="100" />
          <note key="56" pos="960" pan="0" len="24" vol="100" />
          <note key="55" pos="984" pan="0" len="24" vol="62" />
          <note key="51" pos="1008" pan="0" len="24" vol="100" />
          <note key="49" pos="1032" pan="0" len="24" vol="100" />
          <note key="58" pos="1056" pan="0" len="48" vol="100" />
          <note key="55" pos="1104" pan="0" len="432" vol="100" />
        </pattern>
        <pattern pos="130572" muted="0" steps="16" name="" type="1">
          <note key="19" pos="0" pan="0" len="192" vol="100" />
          <note key="14" pos="192" pan="0" len="192" vol="100" />
          <note key="17" pos="384" pan="0" len="192" vol="100" />
          <note key="12" pos="576" pan="0" len="192" vol="100" />
          <note key="19" pos="768" pan="0" len="192" vol="100" />
          <note key="14" pos="960" pan="0" len="192" vol="100" />
          <note key="17" pos="1152" pan="0" len="192" vol="100" />
          <note key="12" pos="1344" pan="0" len="192" vol="100" />
        </pattern>
        <pattern pos="132108" muted="0" steps="16" name="" type="1">
          <note key="19" pos="0" pan="0" len="192" vol="100" />
          <note key="14" pos="192" pan="0" len="192" vol="100" />
          <note key="17" pos="384" pan="0" len="192" vol="100" />
          <note key="12" pos="576" pan="0" len="192" vol="100" />
          <note key="19" pos="768" pan="0" len="192" vol="100" />
          <note key="14" pos="960" pan="0" len="192" vol="100" />
          <note key="17" pos="1152" pan="0" len="192" vol="100" />
          <note key="12" pos="1344" pan="0" len="192" vol="100" />
        </pattern>
        <pattern pos="133644" muted="0" steps="16" name="" type="1">
          <note key="19" pos="0" pan="0" len="192" vol="100" />
          <note key="14" pos="192" pan="0" len="192" vol="100" />
          <note key="17" pos="384" pan="0" len="192" vol="100" />
          <note key="12" pos="576" pan="0" len="192" vol="100" />
          <note key="19" pos="768" pan="0" len="192" vol="100" />
          <note key="14" pos="960" pan="0" len="192" vol="100" />
          <note key="17" pos="1152" pan="0" len="192" vol="100" />
          <note key="12" pos="1344" pan="0" len="192" vol="100" />
        </pattern>
        <pattern pos="135180" muted="0" steps="16" name="" type="1">
          <note key="15" pos="0" pan="0" len="192" vol="100" />
          <note key="17" pos="192" pan="0" len="192" vol="100" />
          <note key="19" pos="384" pan="0" len="192" vol="100" />
          <note key="22" pos="576" pan="0" len="144" vol="100" />
          <note key="21" pos="720" pan="0" len="48" vol="100" />
          <note key="15" pos="768" pan="0" len="168" vol="100" />
          <note key="19" pos="936" pan="0" len="24" vol="100" />
          <note key="17" pos="960" pan="0" len="192" vol="100" />
          <note key="12" pos="1152" pan="0" len="192" vol="100" />
          <note key="15" pos="1344" pan="0" len="96" vol="100" />
          <note key="17" pos="1440" pan="0" len="96" vol="100" />
        </pattern>
        <pattern pos="136716" muted="0" steps="16" name="" type="1">
          <note key="15" pos="0" pan="0" len="192" vol="100" />
          <note key="17" pos="192" pan="0" len="192" vol="100" />
          <note key="19" pos="384" pan="0" len="192" vol="100" />
          <note key="22" pos="576" pan="0" len="192" vol="100" />
          <note key="15" pos="768" pan="0" len="192" vol="100" />
          <note key="17" pos="960" pan="0" len="192" vol="100" />
          <note key="19" pos="1152" pan="0" len="192" vol="100" />
          <note key="7" pos="1344" pan="0" len="192" vol="100" />
        </pattern>
        <pattern pos="138252" muted="0" steps="16" name="" type="1">
          <note key="19" pos="0" pan="0" len="192" vol="100" />
          <note key="14" pos="192" pan="0" len="192" vol="100" />
          <note key="17" pos="384" pan="0" len="192" vol="100" />
          <note key="12" pos="576" pan="0" len="192" vol="100" />
          <note key="19" pos="768" pan="0" len="192" vol="100" />
          <note key="14" pos="960" pan="0" len="192" vol="100" />
          <note key="17" pos="1152" pan="0" len="192" vol="100" />
          <note key="12" pos="1344" pan="0" len="192" vol="100" />
        </pattern>
        <pattern pos="139788" muted="0" steps="16" name="" type="1">
          <note key="19" pos="0" pan="0" len="192" vol="100" />
          <note key="14" pos="192" pan="0" len="192" vol="100" />
          <note key="17" pos="384" pan="0" len="192" vol="100" />
          <note key="12" pos="576" pan="0" len="192" vol="100" />
          <note key="19" pos="768" pan="0" len="192" vol="100" />
          <note key="14" pos="960" pan="0" len="192" vol="100" />
          <note key="17" pos="1152" pan="0" len="192" vol="100" />
          <note key="12" pos="1344" pan="0" len="192" vol="100" />
        </pattern>
        <pattern pos="158988" muted="0" steps="16" name="" type="1">
          <note key="48" pos="0" pan="0" len="12" vol="16" />
          <note key="55" pos="12" pan="0" len="12" vol="20" />
          <note key="58" pos="24" pan="0" len="12" vol="27" />
          <note key="60" pos="36" pan="0" len="12" vol="31" />
          <note key="62" pos="48" pan="0" len="12" vol="36" />
          <note key="63" pos="60" pan="0" len="12" vol="42" />
          <note key="65" pos="72" pan="0" len="12" vol="47" />
          <note key="67" pos="84" pan="0" len="12" vol="53" />
          <note key="70" pos="96" pan="0" len="12" vol="58" />
          <note key="67" pos="108" pan="0" len="12" vol="62" />
          <note key="65" pos="120" pan="0" len="12" vol="69" />
          <note key="63" pos="132" pan="0" len="12" vol="73" />
          <note key="60" pos="144" pan="0" len="12" vol="78" />
          <note key="55" pos="156" pan="0" len="12" vol="84" />
          <note key="53" pos="168" pan="0" len="12" vol="89" />
          <note key="51" pos="180" pan="0" len="12" vol="95" />
          <note key="48" pos="192" pan="0" len="12" vol="100" />
          <note key="51" pos="204" pan="0" len="12" vol="94" />
          <note key="60" pos="216" pan="0" len="12" vol="89" />
          <note key="58" pos="228" pan="0" len="12" vol="83" />
          <note key="60" pos="240" pan="0" len="12" vol="78" />
          <note key="63" pos="252" pan="0" len="12" vol="72" />
          <note key="62" pos="264" pan="0" len="12" vol="66" />
          <note key="58" pos="276" pan="0" len="12" vol="61" />
          <note key="67" pos="288" pan="0" len="12" vol="55" />
          <note key="65" pos="300" pan="0" len="12" vol="50" />
          <note key="62" pos="312" pan="0" len="12" vol="44" />
          <note key="63" pos="324" pan="0" len="12" vol="38" />
          <note key="60" pos="336" pan="0" len="12" vol="33" />
          <note key="62" pos="348" pan="0" len="12" vol="27" />
          <note key="58" pos="360" pan="0" len="12" vol="22" />
          <note key="55" pos="372" pan="0" len="12" vol="16" />
          <note key="44" pos="384" pan="0" len="12" vol="16" />
          <note key="51" pos="396" pan="0" len="12" vol="20" />
          <note key="56" pos="408" pan="0" len="12" vol="27" />
          <note key="60" pos="420" pan="0" len="12" vol="31" />
          <note key="62" pos="432" pan="0" len="12" vol="36" />
          <note key="63" pos="444" pan="0" len="12" vol="42" />
          <note key="68" pos="456" pan="0" len="12" vol="47" />
          <note key="70" pos="468" pan="0" len="12" vol="53" />
          <note key="72" pos="480" pan="0" len="12" vol="58" />
          <note key="68" pos="492" pan="0" len="12" vol="62" />
          <note key="63" pos="504" pan="0" len="12" vol="69" />
          <note key="60" pos="516" pan="0" len="12" vol="73" />
          <note key="58" pos="528" pan="0" len="12" vol="78" />
          <note key="56" pos="540" pan="0" len="12" vol="84" />
          <note key="51" pos="552" pan="0" len="12" vol="89" />
          <note key="48" pos="564" pan="0" len="12" vol="95" />
          <note key="46" pos="576" pan="0" len="12" vol="100" />
          <note key="44" pos="588" pan="0" len="12" vol="94" />
          <note key="39" pos="600" pan="0" len="12" vol="89" />
          <note key="51" pos="612" pan="0" len="12" vol="83" />
          <note key="50" pos="624" pan="0" len="12" vol="78" />
          <note key="46" pos="636" pan="0" len="12" vol="72" />
          <note key="48" pos="648" pan="0" len="12" vol="66" />
          <note key="51" pos="660" pan="0" len="12" vol="61" />
          <note key="56" pos="672" pan="0" len="12" vol="55" />
          <note key="51" pos="684" pan="0" len="12" vol="50" />
          <note key="58" pos="696" pan="0" len="12" vol="44" />
          <note key="63" pos="708" pan="0" len="12" vol="38" />
          <note key="62" pos="720" pan="0" len="12" vol="33" />
          <note key="58" pos="732" pan="0" len="12" vol="27" />
          <note key="62" pos="744" pan="0" len="12" vol="22" />
          <note key="60" pos="756" pan="0" len="12" vol="16" />
          <note key="48" pos="768" pan="0" len="12" vol="16" />
          <note key="55" pos="780" pan="0" len="12" vol="20" />
          <note key="58" pos="792" pan="0" len="12" vol="27" />
          <note key="60" pos="804" pan="0" len="12" vol="31" />
          <note key="62" pos="816" pan="0" len="12" vol="36" />
          <note key="63" pos="828" pan="0" len="12" vol="42" />
          <note key="65" pos="840" pan="0" len="12" vol="47" />
          <note key="67" pos="852" pan="0" len="12" vol="53" />
          <note key="70" pos="864" pan="0" len="12" vol="58" />
          <note key="67" pos="876" pan="0" len="12" vol="62" />
          <note key="65" pos="888" pan="0" len="12" vol="69" />
          <note key="63" pos="900" pan="0" len="12" vol="73" />
          <note key="60" pos="912" pan="0" len="12" vol="78" />
          <note key="55" pos="924" pan="0" len="12" vol="84" />
          <note key="53" pos="936" pan="0" len="12" vol="89" />
          <note key="51" pos="948" pan="0" len="12" vol="95" />
          <note key="48" pos="960" pan="0" len="12" vol="100" />
          <note key="51" pos="972" pan="0" len="12" vol="94" />
          <note key="60" pos="984" pan="0" len="12" vol="89" />
          <note key="58" pos="996" pan="0" len="12" vol="83" />
          <note key="60" pos="1008" pan="0" len="12" vol="78" />
          <note key="63" pos="1020" pan="0" len="12" vol="72" />
          <note key="62" pos="1032" pan="0" len="12" vol="66" />
          <note key="58" pos="1044" pan="0" len="12" vol="61" />
          <note key="67" pos="1056" pan="0" len="12" vol="55" />
          <note key="65" pos="1068" pan="0" len="12" vol="50" />
          <note key="62" pos="1080" pan="0" len="12" vol="44" />
          <note key="63" pos="1092" pan="0" len="12" vol="38" />
          <note key="60" pos="1104" pan="0" len="12" vol="33" />
          <note key="62" pos="1116" pan="0" len="12" vol="27" />
          <note key="58" pos="1128" pan="0" len="12" vol="22" />
          <note key="55" pos="1140" pan="0" len="12" vol="16" />
          <note key="44" pos="1152" pan="0" len="12" vol="16" />
          <note key="51" pos="1164" pan="0" len="12" vol="20" />
          <note key="56" pos="1176" pan="0" len="12" vol="27" />
          <note key="60" pos="1188" pan="0" len="12" vol="31" />
          <note key="62" pos="1200" pan="0" len="12" vol="36" />
          <note key="63" pos="1212" pan="0" len="12" vol="42" />
          <note key="68" pos="1224" pan="0" len="12" vol="47" />
          <note key="70" pos="1236" pan="0" len="12" vol="53" />
          <note key="72" pos="1248" pan="0" len="12" vol="58" />
          <note key="68" pos="1260" pan="0" len="12" vol="62" />
          <note key="63" pos="1272" pan="0" len="12" vol="69" />
          <note key="60" pos="1284" pan="0" len="12" vol="73" />
          <note key="58" pos="1296" pan="0" len="12" vol="78" />
          <note key="56" pos="1308" pan="0" len="12" vol="84" />
          <note key="51" pos="1320" pan="0" len="12" vol="89" />
          <note key="48" pos="1332" pan="0" len="12" vol="95" />
          <note key="46" pos="1344" pan="0" len="12" vol="100" />
          <note key="44" pos="1356" pan="0" len="12" vol="94" />
          <note key="39" pos="1368" pan="0" len="12" vol="89" />
          <note key="51" pos="1380" pan="0" len="12" vol="83" />
          <note key="50" pos="1392" pan="0" len="12" vol="78" />
          <note key="46" pos="1404" pan="0" len="12" vol="72" />
          <note key="48" pos="1416" pan="0" len="12" vol="66" />
          <note key="51" pos="1428" pan="0" len="12" vol="61" />
          <note key="56" pos="1440" pan="0" len="12" vol="55" />
          <note key="51" pos="1452" pan="0" len="12" vol="50" />
          <note key="58" pos="1464" pan="0" len="12" vol="44" />
          <note key="63" pos="1476" pan="0" len="12" vol="38" />
          <note key="62" pos="1488" pan="0" len="12" vol="33" />
          <note key="58" pos="1500" pan="0" len="12" vol="27" />
          <note key="62" pos="1512" pan="0" len="12" vol="22" />
          <note key="60" pos="1524" pan="0" len="12" vol="16" />
        </pattern>
        <pattern pos="162060" muted="0" steps="16" name="" type="1">
          <note key="48" pos="0" pan="0" len="12" vol="16" />
          <note key="55" pos="12" pan="0" len="12" vol="20" />
          <note key="58" pos="24" pan="0" len="12" vol="27" />
          <note key="60" pos="36" pan="0" len="12" vol="31" />
          <note key="62" pos="48" pan="0" len="12" vol="36" />
          <note key="63" pos="60" pan="0" len="12" vol="42" />
          <note key="65" pos="72" pan="0" len="12" vol="47" />
          <note key="67" pos="84" pan="0" len="12" vol="53" />
          <note key="70" pos="96" pan="0" len="12" vol="58" />
          <note key="67" pos="108" pan="0" len="12" vol="62" />
          <note key="65" pos="120" pan="0" len="12" vol="69" />
          <note key="63" pos="132" pan="0" len="12" vol="73" />
          <note key="60" pos="144" pan="0" len="12" vol="78" />
          <note key="55" pos="156" pan="0" len="12" vol="84" />
          <note key="53" pos="168" pan="0" len="12" vol="89" />
          <note key="51" pos="180" pan="0" len="12" vol="95" />
          <note key="48" pos="192" pan="0" len="12" vol="100" />
          <note key="51" pos="204" pan="0" len="12" vol="94" />
          <note key="60" pos="216" pan="0" len="12" vol="89" />
          <note key="58" pos="228" pan="0" len="12" vol="83" />
          <note key="60" pos="240" pan="0" len="12" vol="78" />
          <note key="63" pos="252" pan="0" len="12" vol="72" />
          <note key="62" pos="264" pan="0" len="12" vol="66" />
          <note key="58" pos="276" pan="0" len="12" vol="61" />
          <note key="67" pos="288" pan="0" len="12" vol="55" />
          <note key="65" pos="300" pan="0" len="12" vol="50" />
          <note key="62" pos="312" pan="0" len="12" vol="44" />
          <note key="63" pos="324" pan="0" len="12" vol="38" />
          <note key="60" pos="336" pan="0" len="12" vol="33" />
          <note key="62" pos="348" pan="0" len="12" vol="27" />
          <note key="58" pos="360" pan="0" len="12" vol="22" />
          <note key="55" pos="372" pan="0" len="12" vol="16" />
          <note key="44" pos="384" pan="0" len="12" vol="16" />
          <note key="51" pos="396" pan="0" len="12" vol="20" />
          <note key="56" pos="408" pan="0" len="12" vol="27" />
          <note key="60" pos="420" pan="0" len="12" vol="31" />
          <note key="62" pos="432" pan="0" len="12" vol="36" />
          <note key="63" pos="444" pan="0" len="12" vol="42" />
          <note key="68" pos="456" pan="0" len="12" vol="47" />
          <note key="70" pos="468" pan="0" len="12" vol="53" />
          <note key="72" pos="480" pan="0" len="12" vol="58" />
          <note key="68" pos="492" pan="0" len="12" vol="62" />
          <note key="63" pos="504" pan="0" len="12" vol="69" />
          <note key="60" pos="516" pan="0" len="12" vol="73" />
          <note key="58" pos="528" pan="0" len="12" vol="78" />
          <note key="56" pos="540" pan="0" len="12" vol="84" />
          <note key="51" pos="552" pan="0" len="12" vol="89" />
          <note key="48" pos="564" pan="0" len="12" vol="95" />
          <note key="46" pos="576" pan="0" len="12" vol="100" />
          <note key="44" pos="588" pan="0" len="12" vol="94" />
          <note key="39" pos="600" pan="0" len="12" vol="89" />
          <note key="51" pos="612" pan="0" len="12" vol="83" />
          <note key="50" pos="624" pan="0" len="12" vol="78" />
          <note key="46" pos="636" pan="0" len="12" vol="72" />
          <note key="48" pos="648" pan="0" len="12" vol="66" />
          <note key="51" pos="660" pan="0" len="12" vol="61" />
          <note key="56" pos="672" pan="0" len="12" vol="55" />
          <note key="51" pos="684" pan="0" len="12" vol="50" />
          <note key="58" pos="696" pan="0" len="12" vol="44" />
          <note key="63" pos="708" pan="0" len="12" vol="38" />
          <note key="62" pos="720" pan="0" len="12" vol="33" />
          <note key="58" pos="732" pan="0" len="12" vol="27" />
          <note key="62" pos="744" pan="0" len="12" vol="22" />
          <note key="60" pos="756" pan="0" len="12" vol="16" />
          <note key="48" pos="768" pan="0" len="12" vol="16" />
          <note key="55" pos="780" pan="0" len="12" vol="20" />
          <note key="58" pos="792" pan="0" len="12" vol="27" />
          <note key="60" pos="804" pan="0" len="12" vol="31" />
          <note key="62" pos="816" pan="0" len="12" vol="36" />
          <note key="63" pos="828" pan="0" len="12" vol="42" />
          <note key="65" pos="840" pan="0" len="12" vol="47" />
          <note key="67" pos="852" pan="0" len="12" vol="53" />
          <note key="70" pos="864" pan="0" len="12" vol="58" />
          <note key="67" pos="876" pan="0" len="12" vol="62" />
          <note key="65" pos="888" pan="0" len="12" vol="69" />
          <note key="63" pos="900" pan="0" len="12" vol="73" />
          <note key="60" pos="912" pan="0" len="12" vol="78" />
          <note key="55" pos="924" pan="0" len="12" vol="84" />
          <note key="53" pos="936" pan="0" len="12" vol="89" />
          <note key="51" pos="948" pan="0" len="12" vol="95" />
          <note key="48" pos="960" pan="0" len="12" vol="100" />
          <note key="51" pos="972" pan="0" len="12" vol="94" />
          <note key="60" pos="984" pan="0" len="12" vol="89" />
          <note key="58" pos="996" pan="0" len="12" vol="83" />
          <note key="60" pos="1008" pan="0" len="12" vol="78" />
          <note key="63" pos="1020" pan="0" len="12" vol="72" />
          <note key="62" pos="1032" pan="0" len="12" vol="66" />
          <note key="58" pos="1044" pan="0" len="12" vol="61" />
          <note key="67" pos="1056" pan="0" len="12" vol="55" />
          <note key="65" pos="1068" pan="0" len="12" vol="50" />
          <note key="62" pos="1080" pan="0" len="12" vol="44" />
          <note key="63" pos="1092" pan="0" len="12" vol="38" />
          <note key="60" pos="1104" pan="0" len="12" vol="33" />
          <note key="62" pos="1116" pan="0" len="12" vol="27" />
          <note key="58" pos="1128" pan="0" len="12" vol="22" />
          <note key="55" pos="1140" pan="0" len="12" vol="16" />
          <note key="44" pos="1152" pan="0" len="12" vol="16" />
          <note key="51" pos="1164" pan="0" len="12" vol="20" />
          <note key="56" pos="1176" pan="0" len="12" vol="27" />
          <note key="60" pos="1188" pan="0" len="12" vol="31" />
          <note key="62" pos="1200" pan="0" len="12" vol="36" />
          <note key="63" pos="1212" pan="0" len="12" vol="42" />
          <note key="68" pos="1224" pan="0" len="12" vol="47" />
          <note key="70" pos="1236" pan="0" len="12" vol="53" />
          <note key="72" pos="1248" pan="0" len="12" vol="58" />
          <note key="68" pos="1260" pan="0" len="12" vol="62" />
          <note key="63" pos="1272" pan="0" len="12" vol="69" />
          <note key="60" pos="1284" pan="0" len="12" vol="73" />
          <note key="58" pos="1296" pan="0" len="12" vol="78" />
          <note key="56" pos="1308" pan="0" len="12" vol="84" />
          <note key="51" pos="1320" pan="0" len="12" vol="89" />
          <note key="48" pos="1332" pan="0" len="12" vol="95" />
          <note key="46" pos="1344" pan="0" len="12" vol="100" />
          <note key="44" pos="1356" pan="0" len="12" vol="94" />
          <note key="39" pos="1368" pan="0" len="12" vol="89" />
          <note key="51" pos="1380" pan="0" len="12" vol="83" />
          <note key="50" pos="1392" pan="0" len="12" vol="78" />
          <note key="46" pos="1404" pan="0" len="12" vol="72" />
          <note key="48" pos="1416" pan="0" len="12" vol="66" />
          <note key="51" pos="1428" pan="0" len="12" vol="61" />
          <note key="56" pos="1440" pan="0" len="12" vol="55" />
          <note key="51" pos="1452" pan="0" len="12" vol="50" />
          <note key="58" pos="1464" pan="0" len="12" vol="44" />
          <note key="63" pos="1476" pan="0" len="12" vol="38" />
          <note key="62" pos="1488" pan="0" len="12" vol="33" />
          <note key="58" pos="1500" pan="0" len="12" vol="27" />
          <note key="62" pos="1512" pan="0" len="12" vol="22" />
          <note key="60" pos="1524" pan="0" len="12" vol="16" />
        </pattern>
        <pattern pos="163596" muted="0" steps="16" name="" type="1">
          <note key="60" pos="0" pan="0" len="48" vol="100" />
          <note key="59" pos="48" pan="0" len="24" vol="100" />
          <note key="60" pos="72" pan="0" len="24" vol="100" />
          <note key="59" pos="96" pan="0" len="48" vol="100" />
          <note key="55" pos="144" pan="0" len="48" vol="100" />
          <note key="58" pos="192" pan="0" len="48" vol="100" />
          <note key="57" pos="240" pan="0" len="48" vol="100" />
          <note key="55" pos="288" pan="0" len="48" vol="100" />
          <note key="60" pos="384" pan="0" len="48" vol="100" />
          <note key="59" pos="432" pan="0" len="24" vol="100" />
          <note key="60" pos="456" pan="0" len="24" vol="100" />
          <note key="59" pos="480" pan="0" len="48" vol="100" />
          <note key="55" pos="528" pan="0" len="48" vol="100" />
          <note key="58" pos="576" pan="0" len="48" vol="100" />
          <note key="57" pos="624" pan="0" len="48" vol="100" />
          <note key="55" pos="672" pan="0" len="48" vol="100" />
        </pattern>
      </track>
      <track solo="0" name="9 (Ch2)" type="0" muted="0">
        <instrumenttrack usemasterpitch="1" pitch="0.0" basenote="57" pan="0" pitchrange="12" vol="30">
          <eldata />
          <instrument name="tripleoscillator" />
        </instrumenttrack>
        <pattern pos="248460" muted="0" steps="16" name="" type="1">
          <note key="41" pos="0" pan="0" len="384" vol="80" />
        </pattern>
        <pattern pos="163596" muted="0" steps="16" name="" type="1">
          <note key="65" pos="768" pan="0" len="144" vol="100" />
          <note key="67" pos="912" pan="0" len="48" vol="100" />
          <note key="63" pos="960" pan="0" len="48" vol="100" />
          <note key="62" pos="1008" pan="0" len="48" vol="100" />
          <note key="60" pos="1056" pan="0" len="48" vol="100" />
          <note key="58" pos="1104" pan="0" len="48" vol="100" />
          <note key="62" pos="1152" pan="0" len="144" vol="100" />
          <note key="63" pos="1296" pan="0" len="24" vol="100" />
          <note key="62" pos="1320" pan="0" len="24" vol="100" />
          <note key="60" pos="1344" pan="0" len="192" vol="100" />
        </pattern>
        <pattern pos="176652" muted="0" steps="16" name="" type="1">
          <note key="36" pos="384" pan="0" len="1152" vol="100" />
        </pattern>
      </track>
      <track solo="0" name="9 (Ch3)" type="0" muted="0">
        <instrumenttrack usemasterpitch="1" pitch="0.0" basenote="57" pan="0" pitchrange="12" vol="30">
          <eldata />
          <instrument name="tripleoscillator" />
        </instrumenttrack>
        <pattern pos="248460" muted="0" steps="16" name="" type="1">
          <note key="44" pos="0" pan="0" len="384" vol="80" />
        </pattern>
        <pattern pos="21504" muted="0" steps="16" name="" type="1">
          <note key="65" pos="0" pan="0" len="24" vol="100" />
          <note key="66" pos="24" pan="0" len="24" vol="100" />
          <note key="75" pos="48" pan="0" len="696" vol="100" />
          <note key="66" pos="744" pan="0" len="24" vol="100" />
          <note key="65" pos="768" pan="0" len="24" vol="100" />
          <note key="66" pos="792" pan="0" len="24" vol="100" />
          <note key="75" pos="816" pan="0" len="312" vol="100" />
          <note key="66" pos="1128" pan="0" len="24" vol="100" />
          <note key="65" pos="1152" pan="0" len="24" vol="100" />
          <note key="66" pos="1176" pan="0" len="24" vol="100" />
          <note key="70" pos="1200" pan="0" len="312" vol="100" />
          <note key="66" pos="1512" pan="0" len="24" vol="100" />
        </pattern>
        <pattern pos="23040" muted="0" steps="16" name="" type="1">
          <note key="53" pos="0" pan="0" len="24" vol="100" />
          <note key="54" pos="24" pan="0" len="24" vol="100" />
          <note key="63" pos="48" pan="0" len="120" vol="100" />
          <note key="54" pos="168" pan="0" len="24" vol="100" />
          <note key="53" pos="192" pan="0" len="24" vol="100" />
          <note key="54" pos="216" pan="0" len="24" vol="100" />
          <note key="65" pos="240" pan="0" len="24" vol="100" />
          <note key="63" pos="264" pan="0" len="96" vol="100" />
          <note key="54" pos="360" pan="0" len="24" vol="100" />
          <note key="53" pos="384" pan="0" len="24" vol="100" />
          <note key="54" pos="408" pan="0" len="24" vol="100" />
          <note key="58" pos="432" pan="0" len="120" vol="100" />
          <note key="54" pos="552" pan="0" len="24" vol="100" />
          <note key="53" pos="576" pan="0" len="24" vol="100" />
          <note key="54" pos="600" pan="0" len="24" vol="100" />
          <note key="58" pos="624" pan="0" len="24" vol="100" />
          <note key="56" pos="648" pan="0" len="96" vol="100" />
          <note key="54" pos="744" pan="0" len="24" vol="100" />
          <note key="53" pos="768" pan="0" len="24" vol="100" />
          <note key="54" pos="792" pan="0" len="24" vol="100" />
          <note key="63" pos="816" pan="0" len="120" vol="100" />
          <note key="54" pos="936" pan="0" len="24" vol="100" />
          <note key="53" pos="960" pan="0" len="24" vol="100" />
          <note key="54" pos="984" pan="0" len="24" vol="100" />
          <note key="65" pos="1008" pan="0" len="24" vol="100" />
          <note key="63" pos="1032" pan="0" len="96" vol="100" />
          <note key="54" pos="1128" pan="0" len="24" vol="100" />
          <note key="53" pos="1152" pan="0" len="24" vol="100" />
          <note key="54" pos="1176" pan="0" len="24" vol="100" />
          <note key="58" pos="1200" pan="0" len="120" vol="100" />
          <note key="66" pos="1320" pan="0" len="24" vol="100" />
          <note key="65" pos="1344" pan="0" len="24" vol="100" />
          <note key="66" pos="1368" pan="0" len="24" vol="100" />
          <note key="70" pos="1392" pan="0" len="24" vol="100" />
          <note key="68" pos="1416" pan="0" len="96" vol="100" />
          <note key="56" pos="1512" pan="0" len="24" vol="100" />
        </pattern>
        <pattern pos="24576" muted="0" steps="16" name="" type="1">
          <note key="55" pos="0" pan="0" len="24" vol="100" />
          <note key="56" pos="24" pan="0" len="24" vol="100" />
          <note key="63" pos="48" pan="0" len="120" vol="100" />
          <note key="56" pos="168" pan="0" len="24" vol="100" />
          <note key="53" pos="192" pan="0" len="24" vol="100" />
          <note key="56" pos="216" pan="0" len="24" vol="100" />
          <note key="65" pos="240" pan="0" len="24" vol="100" />
          <note key="60" pos="264" pan="0" len="96" vol="100" />
          <note key="56" pos="360" pan="0" len="24" vol="100" />
          <note key="55" pos="384" pan="0" len="24" vol="100" />
          <note key="56" pos="408" pan="0" len="24" vol="100" />
          <note key="60" pos="432" pan="0" len="120" vol="100" />
          <note key="56" pos="552" pan="0" len="24" vol="100" />
          <note key="55" pos="576" pan="0" len="24" vol="100" />
          <note key="56" pos="600" pan="0" len="24" vol="100" />
          <note key="60" pos="624" pan="0" len="24" vol="100" />
          <note key="58" pos="648" pan="0" len="96" vol="100" />
          <note key="56" pos="744" pan="0" len="24" vol="100" />
          <note key="55" pos="768" pan="0" len="24" vol="100" />
          <note key="56" pos="792" pan="0" len="24" vol="100" />
          <note key="63" pos="816" pan="0" len="120" vol="100" />
          <note key="56" pos="936" pan="0" len="24" vol="100" />
          <note key="53" pos="960" pan="0" len="24" vol="100" />
          <note key="56" pos="984" pan="0" len="24" vol="100" />
          <note key="65" pos="1008" pan="0" len="24" vol="100" />
          <note key="60" pos="1032" pan="0" len="96" vol="100" />
          <note key="56" pos="1128" pan="0" len="24" vol="100" />
          <note key="55" pos="1152" pan="0" len="24" vol="100" />
          <note key="56" pos="1176" pan="0" len="24" vol="100" />
          <note key="60" pos="1200" pan="0" len="120" vol="100" />
          <note key="56" pos="1320" pan="0" len="24" vol="100" />
          <note key="55" pos="1344" pan="0" len="24" vol="100" />
          <note key="56" pos="1368" pan="0" len="24" vol="100" />
          <note key="60" pos="1392" pan="0" len="24" vol="100" />
          <note key="58" pos="1416" pan="0" len="120" vol="100" />
        </pattern>
        <pattern pos="160524" muted="0" steps="16" name="" type="1">
          <note key="20" pos="0" pan="0" len="12" vol="16" />
          <note key="27" pos="12" pan="0" len="12" vol="20" />
          <note key="34" pos="24" pan="0" len="12" vol="27" />
          <note key="36" pos="36" pan="0" len="12" vol="31" />
          <note key="39" pos="48" pan="0" len="12" vol="36" />
          <note key="42" pos="60" pan="0" len="12" vol="42" />
          <note key="44" pos="72" pan="0" len="12" vol="47" />
          <note key="49" pos="84" pan="0" len="12" vol="52" />
          <note key="51" pos="96" pan="0" len="12" vol="58" />
          <note key="54" pos="108" pan="0" len="84" vol="62" />
          <note key="20" pos="192" pan="0" len="12" vol="100" />
          <note key="27" pos="204" pan="0" len="12" vol="47" />
          <note key="34" pos="216" pan="0" len="12" vol="62" />
          <note key="36" pos="228" pan="0" len="12" vol="100" />
          <note key="39" pos="240" pan="0" len="12" vol="100" />
          <note key="42" pos="252" pan="0" len="12" vol="100" />
          <note key="44" pos="264" pan="0" len="12" vol="47" />
          <note key="49" pos="276" pan="0" len="12" vol="62" />
          <note key="51" pos="288" pan="0" len="12" vol="100" />
          <note key="58" pos="300" pan="0" len="84" vol="100" />
          <note key="16" pos="384" pan="0" len="12" vol="16" />
          <note key="23" pos="396" pan="0" len="12" vol="20" />
          <note key="30" pos="408" pan="0" len="12" vol="27" />
          <note key="32" pos="420" pan="0" len="12" vol="31" />
          <note key="35" pos="432" pan="0" len="12" vol="36" />
          <note key="38" pos="444" pan="0" len="12" vol="42" />
          <note key="40" pos="456" pan="0" len="12" vol="47" />
          <note key="45" pos="468" pan="0" len="12" vol="52" />
          <note key="47" pos="480" pan="0" len="12" vol="58" />
          <note key="50" pos="492" pan="0" len="84" vol="62" />
          <note key="16" pos="576" pan="0" len="12" vol="100" />
          <note key="23" pos="588" pan="0" len="12" vol="47" />
          <note key="30" pos="600" pan="0" len="12" vol="62" />
          <note key="32" pos="612" pan="0" len="12" vol="100" />
          <note key="35" pos="624" pan="0" len="12" vol="100" />
          <note key="38" pos="636" pan="0" len="12" vol="100" />
          <note key="40" pos="648" pan="0" len="12" vol="47" />
          <note key="45" pos="660" pan="0" len="12" vol="62" />
          <note key="47" pos="672" pan="0" len="12" vol="100" />
          <note key="54" pos="684" pan="0" len="852" vol="100" />
        </pattern>
        <pattern pos="176652" muted="0" steps="16" name="" type="1">
          <note key="40" pos="384" pan="0" len="1152" vol="100" />
        </pattern>
        <pattern pos="203532" muted="0" steps="16" name="" type="1">
          <note key="72" pos="0" pan="0" len="192" vol="34" />
          <note key="74" pos="192" pan="0" len="192" vol="34" />
          <note key="75" pos="384" pan="0" len="192" vol="34" />
          <note key="79" pos="576" pan="0" len="180" vol="34" />
          <note key="60" pos="768" pan="0" len="384" vol="34" />
        </pattern>
        <pattern pos="248076" muted="0" steps="16" name="" type="1">
          <note key="46" pos="0" pan="0" len="12" vol="100" />
          <note key="49" pos="12" pan="0" len="12" vol="100" />
          <note key="53" pos="24" pan="0" len="12" vol="100" />
          <note key="55" pos="36" pan="0" len="12" vol="100" />
          <note key="56" pos="48" pan="0" len="12" vol="100" />
          <note key="60" pos="60" pan="0" len="12" vol="100" />
          <note key="61" pos="72" pan="0" len="12" vol="100" />
          <note key="65" pos="84" pan="0" len="12" vol="100" />
          <note key="67" pos="96" pan="0" len="12" vol="100" />
          <note key="68" pos="108" pan="0" len="12" vol="100" />
          <note key="72" pos="120" pan="0" len="12" vol="100" />
          <note key="73" pos="132" pan="0" len="12" vol="100" />
          <note key="70" pos="144" pan="0" len="240" vol="100" />
        </pattern>
      </track>
      <track solo="0" name="9 (Ch4)" type="0" muted="0">
        <instrumenttrack usemasterpitch="1" pitch="0.0" basenote="57" pan="0" pitchrange="12" vol="30">
          <eldata />
          <instrument name="tripleoscillator" />
        </instrumenttrack>
        <pattern pos="176652" muted="0" steps="16" name="" type="1">
          <note key="50" pos="0" pan="0" len="36" vol="100" />
          <note key="46" pos="36" pan="0" len="12" vol="100" />
          <note key="50" pos="48" pan="0" len="120" vol="100" />
          <note key="50" pos="168" pan="0" len="12" vol="100" />
          <note key="46" pos="180" pan="0" len="12" vol="100" />
          <note key="48" pos="192" pan="0" len="36" vol="100" />
          <note key="45" pos="228" pan="0" len="12" vol="100" />
          <note key="48" pos="240" pan="0" len="120" vol="100" />
          <note key="46" pos="360" pan="0" len="12" vol="100" />
          <note key="45" pos="372" pan="0" len="12" vol="100" />
          <note key="43" pos="384" pan="0" len="168" vol="100" />
          <note key="48" pos="552" pan="0" len="24" vol="100" />
          <note key="46" pos="576" pan="0" len="96" vol="100" />
          <note key="45" pos="672" pan="0" len="24" vol="100" />
          <note key="41" pos="696" pan="0" len="840" vol="100" />
        </pattern>
        <pattern pos="0" muted="0" steps="16" name="" type="1">
          <note key="57" pos="1152" pan="0" len="48" vol="33" />
          <note key="58" pos="1200" pan="0" len="48" vol="33" />
          <note key="60" pos="1248" pan="0" len="48" vol="33" />
          <note key="62" pos="1296" pan="0" len="48" vol="33" />
        </pattern>
        <pattern pos="29184" muted="0" steps="16" name="" type="1">
          <note key="67" pos="384" pan="0" len="36" vol="100" />
          <note key="64" pos="420" pan="0" len="36" vol="94" />
          <note key="66" pos="456" pan="0" len="24" vol="88" />
          <note key="64" pos="480" pan="0" len="36" vol="83" />
          <note key="60" pos="516" pan="0" len="36" vol="77" />
          <note key="62" pos="552" pan="0" len="24" vol="70" />
          <note key="60" pos="576" pan="0" len="36" vol="67" />
          <note key="55" pos="612" pan="0" len="36" vol="61" />
          <note key="57" pos="648" pan="0" len="24" vol="55" />
          <note key="55" pos="672" pan="0" len="36" vol="50" />
          <note key="52" pos="708" pan="0" len="36" vol="44" />
          <note key="54" pos="744" pan="0" len="24" vol="38" />
          <note key="52" pos="768" pan="0" len="36" vol="33" />
          <note key="48" pos="804" pan="0" len="36" vol="27" />
          <note key="50" pos="840" pan="0" len="24" vol="20" />
          <note key="48" pos="864" pan="0" len="36" vol="17" />
          <note key="43" pos="900" pan="0" len="36" vol="11" />
          <note key="45" pos="936" pan="0" len="600" vol="5" />
        </pattern>
        <pattern pos="124428" muted="0" steps="16" name="" type="1">
          <note key="50" pos="552" pan="0" len="12" vol="100" />
          <note key="51" pos="564" pan="0" len="12" vol="100" />
          <note key="60" pos="576" pan="0" len="72" vol="100" />
          <note key="58" pos="648" pan="0" len="24" vol="100" />
          <note key="55" pos="672" pan="0" len="96" vol="100" />
        </pattern>
        <pattern pos="175884" muted="0" steps="16" name="" type="1">
          <note key="50" pos="0" pan="0" len="36" vol="100" />
          <note key="48" pos="36" pan="0" len="12" vol="100" />
          <note key="50" pos="48" pan="0" len="120" vol="100" />
          <note key="53" pos="168" pan="0" len="12" vol="100" />
          <note key="50" pos="180" pan="0" len="12" vol="100" />
          <note key="52" pos="192" pan="0" len="36" vol="100" />
          <note key="50" pos="228" pan="0" len="12" vol="100" />
          <note key="52" pos="240" pan="0" len="72" vol="100" />
          <note key="53" pos="312" pan="0" len="72" vol="100" />
          <note key="50" pos="384" pan="0" len="36" vol="100" />
          <note key="48" pos="420" pan="0" len="12" vol="100" />
          <note key="50" pos="432" pan="0" len="120" vol="100" />
          <note key="53" pos="552" pan="0" len="12" vol="100" />
          <note key="50" pos="564" pan="0" len="12" vol="100" />
          <note key="52" pos="576" pan="0" len="36" vol="100" />
          <note key="50" pos="612" pan="0" len="12" vol="100" />
          <note key="52" pos="624" pan="0" len="24" vol="100" />
          <note key="53" pos="648" pan="0" len="48" vol="100" />
          <note key="50" pos="696" pan="0" len="72" vol="100" />
        </pattern>
      </track>
      <track solo="0" name="9 (Ch5)" type="0" muted="0">
        <instrumenttrack usemasterpitch="1" pitch="0.0" basenote="57" pan="0" pitchrange="12" vol="30">
          <eldata />
          <instrument name="tripleoscillator" />
        </instrumenttrack>
        <pattern pos="243468" muted="0" steps="16" name="" type="1">
          <note key="58" pos="0" pan="0" len="96" vol="80" />
          <note key="58" pos="96" pan="0" len="96" vol="47" />
          <note key="58" pos="192" pan="0" len="96" vol="80" />
          <note key="58" pos="288" pan="0" len="96" vol="47" />
          <note key="58" pos="384" pan="0" len="96" vol="80" />
          <note key="58" pos="480" pan="0" len="96" vol="47" />
          <note key="58" pos="576" pan="0" len="96" vol="80" />
          <note key="58" pos="672" pan="0" len="96" vol="47" />
          <note key="58" pos="768" pan="0" len="96" vol="80" />
          <note key="58" pos="864" pan="0" len="96" vol="47" />
          <note key="58" pos="960" pan="0" len="96" vol="80" />
          <note key="58" pos="1056" pan="0" len="96" vol="47" />
          <note key="58" pos="1152" pan="0" len="96" vol="80" />
          <note key="58" pos="1248" pan="0" len="96" vol="47" />
          <note key="58" pos="1344" pan="0" len="96" vol="80" />
          <note key="58" pos="1440" pan="0" len="96" vol="47" />
        </pattern>
        <pattern pos="0" muted="0" steps="16" name="" type="1">
          <note key="62" pos="432" pan="0" len="48" vol="33" />
          <note key="63" pos="480" pan="0" len="48" vol="33" />
          <note key="65" pos="528" pan="0" len="48" vol="33" />
        </pattern>
        <pattern pos="15360" muted="0" steps="16" name="" type="1">
          <note key="58" pos="288" pan="0" len="24" vol="100" />
          <note key="60" pos="312" pan="0" len="96" vol="100" />
          <note key="62" pos="696" pan="0" len="24" vol="100" />
          <note key="63" pos="720" pan="0" len="72" vol="100" />
          <note key="58" pos="1056" pan="0" len="24" vol="100" />
          <note key="60" pos="1080" pan="0" len="96" vol="100" />
          <note key="60" pos="1464" pan="0" len="24" vol="100" />
          <note key="63" pos="1488" pan="0" len="36" vol="100" />
        </pattern>
        <pattern pos="16896" muted="0" steps="16" name="" type="1">
          <note key="55" pos="120" pan="0" len="24" vol="100" />
          <note key="51" pos="144" pan="0" len="48" vol="100" />
          <note key="48" pos="192" pan="0" len="264" vol="100" />
          <note key="58" pos="456" pan="0" len="24" vol="100" />
          <note key="57" pos="480" pan="0" len="72" vol="100" />
          <note key="58" pos="552" pan="0" len="24" vol="100" />
          <note key="55" pos="576" pan="0" len="72" vol="100" />
          <note key="53" pos="648" pan="0" len="144" vol="100" />
          <note key="58" pos="792" pan="0" len="24" vol="100" />
          <note key="60" pos="816" pan="0" len="24" vol="100" />
          <note key="63" pos="840" pan="0" len="336" vol="100" />
          <note key="63" pos="1176" pan="0" len="24" vol="100" />
          <note key="58" pos="1200" pan="0" len="120" vol="100" />
          <note key="63" pos="1320" pan="0" len="24" vol="100" />
          <note key="65" pos="1344" pan="0" len="192" vol="100" />
        </pattern>
        <pattern pos="18432" muted="0" steps="16" name="" type="1">
          <note key="58" pos="288" pan="0" len="24" vol="100" />
          <note key="60" pos="312" pan="0" len="96" vol="100" />
          <note key="58" pos="696" pan="0" len="24" vol="100" />
          <note key="57" pos="720" pan="0" len="36" vol="100" />
          <note key="63" pos="1464" pan="0" len="24" vol="100" />
          <note key="65" pos="1488" pan="0" len="36" vol="100" />
        </pattern>
        <pattern pos="19968" muted="0" steps="16" name="" type="1">
          <note key="63" pos="504" pan="0" len="24" vol="100" />
          <note key="62" pos="528" pan="0" len="24" vol="100" />
          <note key="60" pos="552" pan="0" len="24" vol="100" />
          <note key="55" pos="576" pan="0" len="168" vol="100" />
          <note key="62" pos="1272" pan="0" len="24" vol="100" />
          <note key="58" pos="1296" pan="0" len="24" vol="100" />
          <note key="62" pos="1320" pan="0" len="24" vol="100" />
          <note key="60" pos="1344" pan="0" len="192" vol="100" />
        </pattern>
        <pattern pos="30720" muted="0" steps="16" name="" type="1">
          <note key="39" pos="780" pan="0" len="12" vol="100" />
          <note key="43" pos="792" pan="0" len="24" vol="100" />
          <note key="43" pos="816" pan="0" len="36" vol="100" />
          <note key="39" pos="972" pan="0" len="12" vol="100" />
          <note key="43" pos="984" pan="0" len="24" vol="100" />
          <note key="46" pos="1008" pan="0" len="12" vol="100" />
          <note key="45" pos="1020" pan="0" len="24" vol="100" />
          <note key="43" pos="1044" pan="0" len="48" vol="100" />
          <note key="39" pos="1164" pan="0" len="12" vol="100" />
          <note key="43" pos="1176" pan="0" len="24" vol="100" />
          <note key="43" pos="1200" pan="0" len="12" vol="100" />
          <note key="39" pos="1212" pan="0" len="24" vol="100" />
          <note key="36" pos="1236" pan="0" len="156" vol="100" />
          <note key="46" pos="1392" pan="0" len="12" vol="100" />
          <note key="45" pos="1404" pan="0" len="36" vol="100" />
          <note key="46" pos="1440" pan="0" len="12" vol="100" />
          <note key="43" pos="1452" pan="0" len="48" vol="100" />
          <note key="41" pos="1500" pan="0" len="36" vol="100" />
        </pattern>
        <pattern pos="32256" muted="0" steps="16" name="" type="1">
          <note key="46" pos="1080" pan="0" len="36" vol="100" />
          <note key="45" pos="1116" pan="0" len="36" vol="100" />
          <note key="43" pos="1152" pan="0" len="144" vol="100" />
          <note key="46" pos="1296" pan="0" len="36" vol="100" />
          <note key="48" pos="1332" pan="0" len="12" vol="100" />
          <note key="50" pos="1344" pan="0" len="192" vol="100" />
        </pattern>
        <pattern pos="33792" muted="0" steps="16" name="" type="1">
          <note key="51" pos="0" pan="0" len="84" vol="100" />
          <note key="53" pos="84" pan="0" len="12" vol="100" />
          <note key="55" pos="96" pan="0" len="60" vol="100" />
          <note key="58" pos="156" pan="0" len="24" vol="100" />
          <note key="60" pos="180" pan="0" len="72" vol="100" />
          <note key="46" pos="372" pan="0" len="12" vol="100" />
          <note key="51" pos="384" pan="0" len="84" vol="100" />
          <note key="55" pos="468" pan="0" len="12" vol="100" />
          <note key="53" pos="480" pan="0" len="60" vol="100" />
          <note key="55" pos="540" pan="0" len="12" vol="100" />
          <note key="51" pos="552" pan="0" len="24" vol="100" />
          <note key="48" pos="576" pan="0" len="60" vol="100" />
        </pattern>
        <pattern pos="125196" muted="0" steps="16" name="" type="1">
          <note key="53" pos="36" pan="0" len="12" vol="100" />
          <note key="58" pos="84" pan="0" len="12" vol="100" />
          <note key="51" pos="132" pan="0" len="12" vol="100" />
          <note key="51" pos="180" pan="0" len="12" vol="100" />
          <note key="46" pos="252" pan="0" len="12" vol="100" />
        </pattern>
        <pattern pos="237324" muted="0" steps="16" name="" type="1">
          <note key="46" pos="0" pan="0" len="96" vol="80" />
          <note key="46" pos="96" pan="0" len="96" vol="47" />
          <note key="46" pos="192" pan="0" len="96" vol="80" />
          <note key="46" pos="288" pan="0" len="96" vol="47" />
          <note key="46" pos="384" pan="0" len="96" vol="80" />
          <note key="46" pos="480" pan="0" len="96" vol="47" />
          <note key="46" pos="576" pan="0" len="96" vol="80" />
          <note key="46" pos="672" pan="0" len="96" vol="47" />
          <note key="46" pos="768" pan="0" len="96" vol="80" />
          <note key="46" pos="864" pan="0" len="96" vol="47" />
          <note key="46" pos="960" pan="0" len="96" vol="80" />
          <note key="46" pos="1056" pan="0" len="96" vol="47" />
          <note key="46" pos="1152" pan="0" len="96" vol="80" />
          <note key="46" pos="1248" pan="0" len="96" vol="47" />
          <note key="46" pos="1344" pan="0" len="96" vol="80" />
          <note key="46" pos="1440" pan="0" len="96" vol="47" />
        </pattern>
        <pattern pos="238860" muted="0" steps="16" name="" type="1">
          <note key="48" pos="0" pan="0" len="96" vol="80" />
          <note key="48" pos="96" pan="0" len="96" vol="80" />
          <note key="48" pos="192" pan="0" len="96" vol="80" />
          <note key="48" pos="288" pan="0" len="96" vol="80" />
          <note key="48" pos="384" pan="0" len="96" vol="80" />
          <note key="48" pos="480" pan="0" len="96" vol="80" />
          <note key="46" pos="576" pan="0" len="96" vol="80" />
          <note key="46" pos="672" pan="0" len="96" vol="47" />
          <note key="46" pos="768" pan="0" len="96" vol="47" />
          <note key="46" pos="864" pan="0" len="96" vol="47" />
          <note key="46" pos="960" pan="0" len="96" vol="47" />
          <note key="51" pos="1056" pan="0" len="96" vol="47" />
          <note key="51" pos="1152" pan="0" len="96" vol="80" />
          <note key="51" pos="1248" pan="0" len="96" vol="47" />
          <note key="51" pos="1344" pan="0" len="96" vol="80" />
          <note key="51" pos="1440" pan="0" len="96" vol="47" />
        </pattern>
        <pattern pos="240396" muted="0" steps="16" name="" type="1">
          <note key="46" pos="0" pan="0" len="96" vol="80" />
          <note key="46" pos="96" pan="0" len="96" vol="47" />
          <note key="46" pos="192" pan="0" len="96" vol="80" />
          <note key="46" pos="288" pan="0" len="96" vol="47" />
          <note key="53" pos="384" pan="0" len="96" vol="80" />
          <note key="53" pos="480" pan="0" len="96" vol="80" />
          <note key="53" pos="576" pan="0" len="96" vol="80" />
          <note key="49" pos="672" pan="0" len="96" vol="47" />
          <note key="46" pos="768" pan="0" len="96" vol="80" />
          <note key="46" pos="864" pan="0" len="96" vol="47" />
          <note key="46" pos="960" pan="0" len="96" vol="80" />
          <note key="46" pos="1056" pan="0" len="96" vol="47" />
          <note key="46" pos="1152" pan="0" len="96" vol="80" />
          <note key="46" pos="1248" pan="0" len="96" vol="47" />
          <note key="46" pos="1344" pan="0" len="96" vol="80" />
          <note key="46" pos="1440" pan="0" len="96" vol="47" />
        </pattern>
      </track>
      <track solo="0" name="9 (Ch6)" type="0" muted="0">
        <instrumenttrack usemasterpitch="1" pitch="0.0" basenote="57" pan="0" pitchrange="12" vol="30">
          <eldata />
          <instrument name="tripleoscillator" />
        </instrumenttrack>
        <pattern pos="274140" muted="0" steps="16" name="" type="1">
          <note key="39" pos="1152" pan="0" len="12" vol="100" />
          <note key="44" pos="1164" pan="0" len="12" vol="100" />
          <note key="47" pos="1176" pan="0" len="12" vol="100" />
          <note key="51" pos="1188" pan="0" len="12" vol="100" />
          <note key="53" pos="1200" pan="0" len="12" vol="100" />
          <note key="54" pos="1212" pan="0" len="12" vol="100" />
          <note key="56" pos="1224" pan="0" len="72" vol="100" />
          <note key="54" pos="1296" pan="0" len="24" vol="100" />
          <note key="53" pos="1320" pan="0" len="24" vol="100" />
          <note key="49" pos="1344" pan="0" len="24" vol="100" />
          <note key="44" pos="1368" pan="0" len="72" vol="100" />
          <note key="40" pos="1440" pan="0" len="12" vol="100" />
          <note key="44" pos="1452" pan="0" len="12" vol="100" />
          <note key="47" pos="1464" pan="0" len="12" vol="100" />
          <note key="52" pos="1476" pan="0" len="12" vol="100" />
          <note key="54" pos="1488" pan="0" len="12" vol="100" />
          <note key="56" pos="1500" pan="0" len="12" vol="100" />
          <note key="58" pos="1512" pan="0" len="72" vol="100" />
          <note key="59" pos="1584" pan="0" len="24" vol="100" />
          <note key="54" pos="1608" pan="0" len="24" vol="100" />
          <note key="49" pos="1632" pan="0" len="24" vol="100" />
          <note key="42" pos="1656" pan="0" len="72" vol="100" />
          <note key="39" pos="1728" pan="0" len="12" vol="100" />
          <note key="44" pos="1740" pan="0" len="12" vol="100" />
          <note key="47" pos="1752" pan="0" len="12" vol="100" />
          <note key="51" pos="1764" pan="0" len="12" vol="100" />
          <note key="53" pos="1776" pan="0" len="12" vol="100" />
          <note key="54" pos="1788" pan="0" len="12" vol="100" />
          <note key="56" pos="1800" pan="0" len="72" vol="100" />
          <note key="54" pos="1872" pan="0" len="24" vol="100" />
          <note key="53" pos="1896" pan="0" len="24" vol="100" />
          <note key="49" pos="1920" pan="0" len="24" vol="100" />
          <note key="44" pos="1944" pan="0" len="72" vol="100" />
          <note key="40" pos="2016" pan="0" len="12" vol="100" />
          <note key="44" pos="2028" pan="0" len="12" vol="100" />
          <note key="47" pos="2040" pan="0" len="12" vol="100" />
          <note key="52" pos="2052" pan="0" len="12" vol="100" />
          <note key="54" pos="2064" pan="0" len="12" vol="100" />
          <note key="56" pos="2076" pan="0" len="12" vol="100" />
          <note key="58" pos="2088" pan="0" len="72" vol="100" />
          <note key="59" pos="2160" pan="0" len="24" vol="100" />
          <note key="54" pos="2184" pan="0" len="24" vol="100" />
          <note key="49" pos="2208" pan="0" len="24" vol="100" />
          <note key="42" pos="2232" pan="0" len="72" vol="100" />
        </pattern>
        <pattern pos="3072" muted="0" steps="16" name="" type="1">
          <note key="55" pos="48" pan="0" len="48" vol="34" />
          <note key="65" pos="96" pan="0" len="48" vol="34" />
          <note key="63" pos="144" pan="0" len="288" vol="34" />
          <note key="56" pos="432" pan="0" len="48" vol="50" />
          <note key="65" pos="480" pan="0" len="48" vol="50" />
          <note key="63" pos="528" pan="0" len="288" vol="50" />
          <note key="55" pos="816" pan="0" len="48" vol="34" />
          <note key="63" pos="864" pan="0" len="336" vol="34" />
          <note key="56" pos="1200" pan="0" len="48" vol="50" />
          <note key="65" pos="1248" pan="0" len="288" vol="50" />
        </pattern>
        <pattern pos="4608" muted="0" steps="16" name="" type="1">
          <note key="55" pos="48" pan="0" len="48" vol="34" />
          <note key="65" pos="96" pan="0" len="48" vol="34" />
          <note key="63" pos="144" pan="0" len="288" vol="34" />
          <note key="56" pos="432" pan="0" len="48" vol="50" />
          <note key="65" pos="480" pan="0" len="48" vol="50" />
          <note key="63" pos="528" pan="0" len="96" vol="50" />
          <note key="62" pos="624" pan="0" len="48" vol="100" />
          <note key="65" pos="672" pan="0" len="144" vol="100" />
          <note key="55" pos="816" pan="0" len="48" vol="34" />
          <note key="63" pos="864" pan="0" len="336" vol="34" />
          <note key="56" pos="1200" pan="0" len="48" vol="50" />
          <note key="65" pos="1248" pan="0" len="288" vol="50" />
        </pattern>
        <pattern pos="55296" muted="0" steps="16" name="" type="1">
          <note key="62" pos="1056" pan="0" len="96" vol="100" />
        </pattern>
        <pattern pos="237324" muted="0" steps="16" name="" type="1">
          <note key="41" pos="0" pan="0" len="96" vol="80" />
          <note key="41" pos="96" pan="0" len="96" vol="47" />
          <note key="41" pos="192" pan="0" len="96" vol="80" />
          <note key="41" pos="288" pan="0" len="96" vol="47" />
          <note key="41" pos="384" pan="0" len="96" vol="80" />
          <note key="41" pos="480" pan="0" len="96" vol="47" />
          <note key="41" pos="576" pan="0" len="96" vol="80" />
          <note key="41" pos="672" pan="0" len="96" vol="47" />
          <note key="41" pos="768" pan="0" len="96" vol="80" />
          <note key="41" pos="864" pan="0" len="96" vol="47" />
          <note key="41" pos="960" pan="0" len="96" vol="80" />
          <note key="41" pos="1056" pan="0" len="96" vol="47" />
          <note key="41" pos="1152" pan="0" len="96" vol="80" />
          <note key="41" pos="1248" pan="0" len="96" vol="47" />
          <note key="41" pos="1344" pan="0" len="96" vol="80" />
          <note key="41" pos="1440" pan="0" len="96" vol="47" />
        </pattern>
        <pattern pos="238860" muted="0" steps="16" name="" type="1">
          <note key="49" pos="0" pan="0" len="96" vol="80" />
          <note key="49" pos="96" pan="0" len="96" vol="80" />
          <note key="49" pos="192" pan="0" len="96" vol="80" />
          <note key="49" pos="288" pan="0" len="96" vol="80" />
          <note key="49" pos="384" pan="0" len="96" vol="80" />
          <note key="49" pos="480" pan="0" len="96" vol="80" />
          <note key="41" pos="576" pan="0" len="96" vol="80" />
          <note key="41" pos="672" pan="0" len="96" vol="47" />
          <note key="41" pos="768" pan="0" len="96" vol="47" />
          <note key="41" pos="864" pan="0" len="96" vol="47" />
          <note key="41" pos="960" pan="0" len="96" vol="47" />
          <note key="46" pos="1056" pan="0" len="96" vol="47" />
          <note key="46" pos="1152" pan="0" len="96" vol="80" />
          <note key="46" pos="1248" pan="0" len="96" vol="47" />
          <note key="46" pos="1344" pan="0" len="96" vol="80" />
          <note key="46" pos="1440" pan="0" len="96" vol="47" />
        </pattern>
        <pattern pos="240396" muted="0" steps="16" name="" type="1">
          <note key="41" pos="0" pan="0" len="96" vol="80" />
          <note key="41" pos="96" pan="0" len="96" vol="47" />
          <note key="41" pos="192" pan="0" len="96" vol="80" />
          <note key="41" pos="288" pan="0" len="96" vol="47" />
          <note key="51" pos="384" pan="0" len="96" vol="80" />
          <note key="51" pos="480" pan="0" len="96" vol="80" />
          <note key="51" pos="576" pan="0" len="96" vol="80" />
          <note key="51" pos="672" pan="0" len="96" vol="47" />
          <note key="41" pos="768" pan="0" len="96" vol="80" />
          <note key="41" pos="864" pan="0" len="96" vol="47" />
          <note key="41" pos="960" pan="0" len="96" vol="80" />
          <note key="41" pos="1056" pan="0" len="96" vol="47" />
          <note key="41" pos="1152" pan="0" len="96" vol="80" />
          <note key="41" pos="1248" pan="0" len="96" vol="47" />
          <note key="41" pos="1344" pan="0" len="96" vol="80" />
          <note key="41" pos="1440" pan="0" len="96" vol="47" />
        </pattern>
        <pattern pos="243468" muted="0" steps="16" name="" type="1">
          <note key="53" pos="0" pan="0" len="96" vol="80" />
          <note key="53" pos="96" pan="0" len="96" vol="47" />
          <note key="53" pos="192" pan="0" len="96" vol="80" />
          <note key="53" pos="288" pan="0" len="96" vol="47" />
          <note key="53" pos="384" pan="0" len="96" vol="80" />
          <note key="53" pos="480" pan="0" len="96" vol="47" />
          <note key="53" pos="576" pan="0" len="96" vol="80" />
          <note key="53" pos="672" pan="0" len="96" vol="47" />
          <note key="53" pos="768" pan="0" len="96" vol="80" />
          <note key="53" pos="864" pan="0" len="96" vol="47" />
          <note key="53" pos="960" pan="0" len="96" vol="80" />
          <note key="53" pos="1056" pan="0" len="96" vol="47" />
          <note key="53" pos="1152" pan="0" len="96" vol="80" />
          <note key="53" pos="1248" pan="0" len="96" vol="47" />
          <note key="53" pos="1344" pan="0" len="96" vol="80" />
          <note key="53" pos="1440" pan="0" len="96" vol="47" />
        </pattern>
      </track>
      <track solo="0" name="9 (Ch7)" type="0" muted="0">
        <instrumenttrack usemasterpitch="1" pitch="0.0" basenote="57" pan="0" pitchrange="12" vol="30">
          <eldata />
          <instrument name="tripleoscillator" />
        </instrumenttrack>
        <pattern pos="243468" muted="0" steps="16" name="" type="1">
          <note key="56" pos="0" pan="0" len="96" vol="80" />
          <note key="56" pos="96" pan="0" len="96" vol="47" />
          <note key="56" pos="192" pan="0" len="96" vol="80" />
          <note key="56" pos="288" pan="0" len="96" vol="47" />
          <note key="56" pos="384" pan="0" len="96" vol="80" />
          <note key="56" pos="480" pan="0" len="96" vol="47" />
          <note key="56" pos="576" pan="0" len="96" vol="80" />
          <note key="56" pos="672" pan="0" len="96" vol="47" />
          <note key="56" pos="768" pan="0" len="96" vol="80" />
          <note key="56" pos="864" pan="0" len="96" vol="47" />
          <note key="56" pos="960" pan="0" len="96" vol="80" />
          <note key="56" pos="1056" pan="0" len="96" vol="47" />
          <note key="56" pos="1152" pan="0" len="96" vol="80" />
          <note key="56" pos="1248" pan="0" len="96" vol="47" />
          <note key="56" pos="1344" pan="0" len="96" vol="80" />
          <note key="56" pos="1440" pan="0" len="96" vol="47" />
        </pattern>
        <pattern pos="49152" muted="0" steps="16" name="" type="1">
          <note key="55" pos="24" pan="0" len="24" vol="100" />
          <note key="62" pos="48" pan="0" len="48" vol="100" />
          <note key="61" pos="96" pan="0" len="96" vol="100" />
          <note key="58" pos="192" pan="0" len="624" vol="100" />
          <note key="60" pos="816" pan="0" len="48" vol="100" />
          <note key="63" pos="864" pan="0" len="72" vol="100" />
          <note key="65" pos="936" pan="0" len="24" vol="100" />
          <note key="63" pos="960" pan="0" len="96" vol="100" />
          <note key="62" pos="1056" pan="0" len="144" vol="100" />
          <note key="60" pos="1200" pan="0" len="96" vol="100" />
          <note key="56" pos="1296" pan="0" len="48" vol="100" />
          <note key="55" pos="1344" pan="0" len="192" vol="100" />
        </pattern>
        <pattern pos="55296" muted="0" steps="16" name="" type="1">
          <note key="50" pos="72" pan="0" len="12" vol="100" />
          <note key="55" pos="84" pan="0" len="12" vol="100" />
          <note key="57" pos="96" pan="0" len="96" vol="100" />
          <note key="50" pos="264" pan="0" len="12" vol="100" />
          <note key="55" pos="276" pan="0" len="12" vol="100" />
          <note key="57" pos="288" pan="0" len="168" vol="100" />
          <note key="50" pos="456" pan="0" len="12" vol="100" />
          <note key="55" pos="468" pan="0" len="12" vol="100" />
          <note key="57" pos="480" pan="0" len="168" vol="100" />
          <note key="50" pos="648" pan="0" len="12" vol="100" />
          <note key="55" pos="660" pan="0" len="12" vol="100" />
          <note key="57" pos="672" pan="0" len="96" vol="100" />
          <note key="72" pos="768" pan="0" len="48" vol="100" />
          <note key="74" pos="816" pan="0" len="48" vol="100" />
          <note key="69" pos="864" pan="0" len="24" vol="100" />
          <note key="50" pos="888" pan="0" len="12" vol="100" />
          <note key="57" pos="900" pan="0" len="12" vol="100" />
          <note key="62" pos="912" pan="0" len="48" vol="100" />
          <note key="65" pos="960" pan="0" len="48" vol="100" />
          <note key="67" pos="1008" pan="0" len="48" vol="100" />
          <note key="69" pos="1056" pan="0" len="96" vol="100" />
        </pattern>
        <pattern pos="69120" muted="0" steps="16" name="" type="1">
          <note key="65" pos="1116" pan="0" len="36" vol="100" />
          <note key="67" pos="1152" pan="0" len="36" vol="100" />
          <note key="64" pos="1188" pan="0" len="36" vol="100" />
          <note key="65" pos="1224" pan="0" len="36" vol="100" />
          <note key="62" pos="1260" pan="0" len="36" vol="100" />
          <note key="64" pos="1296" pan="0" len="24" vol="100" />
          <note key="65" pos="1404" pan="0" len="36" vol="100" />
          <note key="67" pos="1440" pan="0" len="36" vol="100" />
          <note key="64" pos="1476" pan="0" len="36" vol="100" />
          <note key="65" pos="1512" pan="0" len="36" vol="100" />
          <note key="60" pos="1548" pan="0" len="36" vol="100" />
          <note key="59" pos="1584" pan="0" len="24" vol="100" />
          <note key="69" pos="1692" pan="0" len="36" vol="100" />
          <note key="71" pos="1728" pan="0" len="36" vol="100" />
          <note key="67" pos="1764" pan="0" len="36" vol="100" />
          <note key="69" pos="1800" pan="0" len="36" vol="100" />
          <note key="65" pos="1836" pan="0" len="36" vol="100" />
          <note key="67" pos="1872" pan="0" len="36" vol="100" />
          <note key="64" pos="1908" pan="0" len="36" vol="100" />
          <note key="65" pos="1944" pan="0" len="36" vol="100" />
          <note key="60" pos="1980" pan="0" len="36" vol="100" />
          <note key="64" pos="2016" pan="0" len="36" vol="100" />
          <note key="60" pos="2052" pan="0" len="36" vol="100" />
          <note key="64" pos="2088" pan="0" len="36" vol="100" />
          <note key="60" pos="2124" pan="0" len="36" vol="100" />
          <note key="59" pos="2160" pan="0" len="144" vol="100" />
        </pattern>
        <pattern pos="71424" muted="0" steps="16" name="" type="1">
          <note key="65" pos="1116" pan="0" len="36" vol="100" />
          <note key="67" pos="1152" pan="0" len="36" vol="100" />
          <note key="64" pos="1188" pan="0" len="36" vol="100" />
          <note key="65" pos="1224" pan="0" len="36" vol="100" />
          <note key="62" pos="1260" pan="0" len="36" vol="100" />
          <note key="64" pos="1296" pan="0" len="24" vol="100" />
          <note key="65" pos="1404" pan="0" len="36" vol="100" />
          <note key="67" pos="1440" pan="0" len="36" vol="100" />
          <note key="64" pos="1476" pan="0" len="36" vol="100" />
          <note key="65" pos="1512" pan="0" len="36" vol="100" />
          <note key="60" pos="1548" pan="0" len="36" vol="100" />
          <note key="59" pos="1584" pan="0" len="24" vol="100" />
          <note key="69" pos="1692" pan="0" len="36" vol="100" />
          <note key="71" pos="1728" pan="0" len="36" vol="100" />
          <note key="67" pos="1764" pan="0" len="36" vol="100" />
          <note key="69" pos="1800" pan="0" len="36" vol="100" />
          <note key="65" pos="1836" pan="0" len="36" vol="100" />
          <note key="67" pos="1872" pan="0" len="36" vol="100" />
          <note key="64" pos="1908" pan="0" len="36" vol="100" />
          <note key="65" pos="1944" pan="0" len="36" vol="100" />
          <note key="60" pos="1980" pan="0" len="36" vol="100" />
          <note key="64" pos="2016" pan="0" len="36" vol="100" />
          <note key="60" pos="2052" pan="0" len="36" vol="100" />
          <note key="64" pos="2088" pan="0" len="36" vol="100" />
          <note key="60" pos="2124" pan="0" len="36" vol="100" />
          <note key="59" pos="2160" pan="0" len="144" vol="100" />
        </pattern>
        <pattern pos="80640" muted="0" steps="16" name="" type="1">
          <note key="65" pos="1116" pan="0" len="36" vol="100" />
          <note key="67" pos="1152" pan="0" len="36" vol="100" />
          <note key="64" pos="1188" pan="0" len="36" vol="100" />
          <note key="65" pos="1224" pan="0" len="36" vol="100" />
          <note key="62" pos="1260" pan="0" len="36" vol="100" />
          <note key="64" pos="1296" pan="0" len="24" vol="100" />
          <note key="65" pos="1404" pan="0" len="36" vol="100" />
          <note key="67" pos="1440" pan="0" len="36" vol="100" />
          <note key="64" pos="1476" pan="0" len="36" vol="100" />
          <note key="65" pos="1512" pan="0" len="36" vol="100" />
          <note key="60" pos="1548" pan="0" len="36" vol="100" />
          <note key="59" pos="1584" pan="0" len="24" vol="100" />
          <note key="69" pos="1692" pan="0" len="36" vol="100" />
          <note key="71" pos="1728" pan="0" len="36" vol="100" />
          <note key="67" pos="1764" pan="0" len="36" vol="100" />
          <note key="69" pos="1800" pan="0" len="36" vol="100" />
          <note key="65" pos="1836" pan="0" len="36" vol="100" />
          <note key="67" pos="1872" pan="0" len="36" vol="100" />
          <note key="64" pos="1908" pan="0" len="36" vol="100" />
          <note key="65" pos="1944" pan="0" len="36" vol="100" />
          <note key="60" pos="1980" pan="0" len="36" vol="100" />
          <note key="64" pos="2016" pan="0" len="36" vol="100" />
          <note key="60" pos="2052" pan="0" len="36" vol="100" />
          <note key="64" pos="2088" pan="0" len="36" vol="100" />
          <note key="60" pos="2124" pan="0" len="36" vol="100" />
          <note key="59" pos="2160" pan="0" len="144" vol="100" />
        </pattern>
        <pattern pos="82944" muted="0" steps="16" name="" type="1">
          <note key="65" pos="1116" pan="0" len="36" vol="100" />
          <note key="67" pos="1152" pan="0" len="36" vol="100" />
          <note key="64" pos="1188" pan="0" len="36" vol="100" />
          <note key="65" pos="1224" pan="0" len="36" vol="100" />
          <note key="62" pos="1260" pan="0" len="36" vol="100" />
          <note key="64" pos="1296" pan="0" len="24" vol="100" />
          <note key="65" pos="1404" pan="0" len="36" vol="100" />
          <note key="67" pos="1440" pan="0" len="36" vol="100" />
          <note key="64" pos="1476" pan="0" len="36" vol="100" />
          <note key="65" pos="1512" pan="0" len="36" vol="100" />
          <note key="60" pos="1548" pan="0" len="36" vol="100" />
          <note key="59" pos="1584" pan="0" len="24" vol="100" />
          <note key="69" pos="1692" pan="0" len="36" vol="100" />
          <note key="71" pos="1728" pan="0" len="36" vol="100" />
          <note key="67" pos="1764" pan="0" len="36" vol="100" />
          <note key="69" pos="1800" pan="0" len="36" vol="100" />
          <note key="65" pos="1836" pan="0" len="36" vol="100" />
          <note key="67" pos="1872" pan="0" len="36" vol="100" />
          <note key="64" pos="1908" pan="0" len="36" vol="100" />
          <note key="65" pos="1944" pan="0" len="36" vol="100" />
          <note key="60" pos="1980" pan="0" len="36" vol="100" />
          <note key="64" pos="2016" pan="0" len="36" vol="100" />
          <note key="60" pos="2052" pan="0" len="36" vol="100" />
          <note key="64" pos="2088" pan="0" len="36" vol="100" />
          <note key="60" pos="2124" pan="0" len="36" vol="100" />
          <note key="59" pos="2160" pan="0" len="144" vol="100" />
        </pattern>
        <pattern pos="92160" muted="0" steps="16" name="" type="1">
          <note key="50" pos="624" pan="0" len="48" vol="100" />
          <note key="55" pos="672" pan="0" len="48" vol="100" />
          <note key="57" pos="720" pan="0" len="1440" vol="100" />
          <note key="60" pos="2160" pan="0" len="48" vol="100" />
          <note key="59" pos="2208" pan="0" len="48" vol="100" />
          <note key="62" pos="2256" pan="0" len="48" vol="100" />
          <note key="53" pos="2304" pan="0" len="768" vol="100" />
        </pattern>
        <pattern pos="110592" muted="0" steps="16" name="" type="1">
          <note key="50" pos="624" pan="0" len="48" vol="100" />
          <note key="55" pos="672" pan="0" len="48" vol="100" />
          <note key="57" pos="720" pan="0" len="1440" vol="100" />
          <note key="60" pos="2160" pan="0" len="48" vol="100" />
          <note key="59" pos="2208" pan="0" len="48" vol="100" />
          <note key="62" pos="2256" pan="0" len="48" vol="100" />
          <note key="53" pos="2304" pan="0" len="768" vol="100" />
        </pattern>
        <pattern pos="113664" muted="0" steps="16" name="" type="1">
          <note key="62" pos="600" pan="0" len="24" vol="100" />
          <note key="65" pos="624" pan="0" len="24" vol="100" />
          <note key="62" pos="648" pan="0" len="96" vol="100" />
          <note key="67" pos="744" pan="0" len="36" vol="100" />
          <note key="65" pos="780" pan="0" len="108" vol="100" />
          <note key="67" pos="888" pan="0" len="24" vol="100" />
          <note key="69" pos="912" pan="0" len="24" vol="100" />
          <note key="65" pos="936" pan="0" len="120" vol="100" />
          <note key="67" pos="1056" pan="0" len="12" vol="100" />
          <note key="65" pos="1068" pan="0" len="12" vol="100" />
          <note key="67" pos="1080" pan="0" len="624" vol="100" />
        </pattern>
        <pattern pos="118272" muted="0" steps="16" name="" type="1">
          <note key="62" pos="600" pan="0" len="24" vol="100" />
          <note key="65" pos="624" pan="0" len="24" vol="100" />
          <note key="62" pos="648" pan="0" len="96" vol="100" />
          <note key="67" pos="744" pan="0" len="36" vol="100" />
          <note key="65" pos="780" pan="0" len="108" vol="100" />
          <note key="67" pos="888" pan="0" len="24" vol="100" />
          <note key="69" pos="912" pan="0" len="24" vol="100" />
          <note key="65" pos="936" pan="0" len="120" vol="100" />
          <note key="67" pos="1056" pan="0" len="12" vol="100" />
          <note key="65" pos="1068" pan="0" len="12" vol="100" />
          <note key="67" pos="1080" pan="0" len="72" vol="100" />
        </pattern>
        <pattern pos="133644" muted="0" steps="16" name="" type="1">
          <note key="50" pos="24" pan="0" len="24" vol="100" />
          <note key="55" pos="48" pan="0" len="24" vol="100" />
          <note key="50" pos="72" pan="0" len="24" vol="100" />
          <note key="57" pos="96" pan="0" len="24" vol="100" />
          <note key="50" pos="120" pan="0" len="24" vol="100" />
          <note key="58" pos="144" pan="0" len="48" vol="100" />
          <note key="62" pos="192" pan="0" len="216" vol="100" />
          <note key="53" pos="408" pan="0" len="24" vol="100" />
          <note key="57" pos="432" pan="0" len="24" vol="100" />
          <note key="53" pos="456" pan="0" len="24" vol="100" />
          <note key="58" pos="480" pan="0" len="24" vol="100" />
          <note key="53" pos="504" pan="0" len="24" vol="100" />
          <note key="60" pos="528" pan="0" len="48" vol="100" />
          <note key="58" pos="576" pan="0" len="96" vol="100" />
          <note key="55" pos="672" pan="0" len="120" vol="100" />
          <note key="55" pos="792" pan="0" len="24" vol="100" />
          <note key="58" pos="816" pan="0" len="24" vol="100" />
          <note key="55" pos="840" pan="0" len="24" vol="100" />
          <note key="60" pos="864" pan="0" len="24" vol="100" />
          <note key="55" pos="888" pan="0" len="24" vol="100" />
          <note key="62" pos="912" pan="0" len="48" vol="100" />
          <note key="57" pos="960" pan="0" len="216" vol="100" />
          <note key="57" pos="1176" pan="0" len="24" vol="100" />
          <note key="60" pos="1200" pan="0" len="24" vol="100" />
          <note key="57" pos="1224" pan="0" len="24" vol="100" />
          <note key="58" pos="1248" pan="0" len="24" vol="100" />
          <note key="57" pos="1272" pan="0" len="24" vol="100" />
          <note key="60" pos="1296" pan="0" len="48" vol="100" />
          <note key="55" pos="1344" pan="0" len="192" vol="100" />
        </pattern>
        <pattern pos="138252" muted="0" steps="16" name="" type="1">
          <note key="55" pos="672" pan="0" len="120" vol="100" />
          <note key="57" pos="792" pan="0" len="24" vol="100" />
          <note key="58" pos="816" pan="0" len="24" vol="100" />
          <note key="60" pos="840" pan="0" len="48" vol="100" />
          <note key="55" pos="960" pan="0" len="216" vol="100" />
          <note key="51" pos="1344" pan="0" len="192" vol="100" />
        </pattern>
        <pattern pos="227340" muted="0" steps="16" name="" type="1">
          <note key="66" pos="0" pan="0" len="120" vol="100" />
          <note key="58" pos="120" pan="0" len="24" vol="100" />
          <note key="63" pos="144" pan="0" len="24" vol="100" />
          <note key="65" pos="168" pan="0" len="24" vol="100" />
          <note key="66" pos="192" pan="0" len="72" vol="100" />
          <note key="70" pos="264" pan="0" len="24" vol="100" />
          <note key="65" pos="288" pan="0" len="72" vol="100" />
          <note key="61" pos="360" pan="0" len="24" vol="100" />
          <note key="65" pos="384" pan="0" len="120" vol="100" />
          <note key="56" pos="504" pan="0" len="24" vol="100" />
          <note key="61" pos="528" pan="0" len="24" vol="100" />
          <note key="63" pos="552" pan="0" len="24" vol="100" />
          <note key="65" pos="576" pan="0" len="48" vol="100" />
          <note key="68" pos="624" pan="0" len="48" vol="100" />
          <note key="63" pos="672" pan="0" len="24" vol="100" />
          <note key="59" pos="696" pan="0" len="72" vol="100" />
          <note key="63" pos="768" pan="0" len="120" vol="100" />
          <note key="54" pos="888" pan="0" len="24" vol="100" />
          <note key="59" pos="912" pan="0" len="24" vol="100" />
          <note key="61" pos="936" pan="0" len="24" vol="100" />
          <note key="63" pos="960" pan="0" len="48" vol="100" />
          <note key="66" pos="1008" pan="0" len="24" vol="100" />
          <note key="61" pos="1032" pan="0" len="48" vol="100" />
          <note key="58" pos="1080" pan="0" len="48" vol="100" />
          <note key="61" pos="1128" pan="0" len="192" vol="100" />
          <note key="59" pos="1320" pan="0" len="12" vol="100" />
          <note key="58" pos="1332" pan="0" len="12" vol="100" />
          <note key="56" pos="1344" pan="0" len="120" vol="100" />
          <note key="61" pos="1464" pan="0" len="24" vol="100" />
          <note key="63" pos="1488" pan="0" len="24" vol="100" />
          <note key="68" pos="1512" pan="0" len="24" vol="100" />
        </pattern>
        <pattern pos="228876" muted="0" steps="16" name="" type="1">
          <note key="63" pos="0" pan="0" len="120" vol="100" />
          <note key="55" pos="120" pan="0" len="24" vol="100" />
          <note key="60" pos="144" pan="0" len="24" vol="100" />
          <note key="62" pos="168" pan="0" len="24" vol="100" />
          <note key="63" pos="192" pan="0" len="72" vol="100" />
          <note key="67" pos="264" pan="0" len="24" vol="100" />
          <note key="62" pos="288" pan="0" len="72" vol="100" />
          <note key="58" pos="360" pan="0" len="24" vol="100" />
          <note key="62" pos="384" pan="0" len="120" vol="100" />
          <note key="53" pos="504" pan="0" len="24" vol="100" />
          <note key="58" pos="528" pan="0" len="24" vol="100" />
          <note key="60" pos="552" pan="0" len="24" vol="100" />
          <note key="62" pos="576" pan="0" len="48" vol="100" />
          <note key="65" pos="624" pan="0" len="48" vol="100" />
          <note key="60" pos="672" pan="0" len="24" vol="100" />
          <note key="56" pos="696" pan="0" len="72" vol="100" />
          <note key="60" pos="768" pan="0" len="120" vol="100" />
          <note key="51" pos="888" pan="0" len="24" vol="100" />
          <note key="56" pos="912" pan="0" len="24" vol="100" />
          <note key="58" pos="936" pan="0" len="24" vol="100" />
          <note key="60" pos="960" pan="0" len="48" vol="100" />
          <note key="63" pos="1008" pan="0" len="24" vol="100" />
          <note key="58" pos="1032" pan="0" len="48" vol="100" />
          <note key="55" pos="1080" pan="0" len="48" vol="100" />
          <note key="58" pos="1128" pan="0" len="192" vol="100" />
          <note key="56" pos="1320" pan="0" len="12" vol="100" />
          <note key="55" pos="1332" pan="0" len="12" vol="100" />
          <note key="53" pos="1344" pan="0" len="192" vol="100" />
        </pattern>
        <pattern pos="233484" muted="0" steps="16" name="" type="1">
          <note key="66" pos="0" pan="0" len="120" vol="100" />
          <note key="58" pos="120" pan="0" len="24" vol="100" />
          <note key="63" pos="144" pan="0" len="24" vol="100" />
          <note key="65" pos="168" pan="0" len="24" vol="100" />
          <note key="66" pos="192" pan="0" len="72" vol="100" />
          <note key="70" pos="264" pan="0" len="24" vol="100" />
          <note key="65" pos="288" pan="0" len="72" vol="100" />
          <note key="61" pos="360" pan="0" len="24" vol="100" />
          <note key="65" pos="384" pan="0" len="120" vol="100" />
          <note key="56" pos="504" pan="0" len="24" vol="100" />
          <note key="61" pos="528" pan="0" len="24" vol="100" />
          <note key="63" pos="552" pan="0" len="24" vol="100" />
          <note key="65" pos="576" pan="0" len="48" vol="100" />
          <note key="68" pos="624" pan="0" len="48" vol="100" />
          <note key="63" pos="672" pan="0" len="24" vol="100" />
          <note key="59" pos="696" pan="0" len="72" vol="100" />
          <note key="63" pos="768" pan="0" len="120" vol="100" />
          <note key="54" pos="888" pan="0" len="24" vol="100" />
          <note key="59" pos="912" pan="0" len="24" vol="100" />
          <note key="61" pos="936" pan="0" len="24" vol="100" />
          <note key="63" pos="960" pan="0" len="48" vol="100" />
          <note key="66" pos="1008" pan="0" len="24" vol="100" />
          <note key="61" pos="1032" pan="0" len="48" vol="100" />
          <note key="58" pos="1080" pan="0" len="48" vol="100" />
          <note key="61" pos="1128" pan="0" len="192" vol="100" />
          <note key="59" pos="1320" pan="0" len="12" vol="100" />
          <note key="58" pos="1332" pan="0" len="12" vol="100" />
          <note key="56" pos="1344" pan="0" len="120" vol="100" />
          <note key="54" pos="1464" pan="0" len="24" vol="100" />
          <note key="61" pos="1488" pan="0" len="24" vol="100" />
          <note key="65" pos="1512" pan="0" len="24" vol="100" />
        </pattern>
        <pattern pos="235020" muted="0" steps="16" name="" type="1">
          <note key="61" pos="0" pan="0" len="120" vol="100" />
          <note key="53" pos="120" pan="0" len="24" vol="100" />
          <note key="58" pos="144" pan="0" len="24" vol="100" />
          <note key="60" pos="168" pan="0" len="24" vol="100" />
          <note key="61" pos="192" pan="0" len="72" vol="100" />
          <note key="65" pos="264" pan="0" len="24" vol="100" />
          <note key="60" pos="288" pan="0" len="72" vol="100" />
          <note key="56" pos="360" pan="0" len="24" vol="100" />
          <note key="60" pos="384" pan="0" len="120" vol="100" />
          <note key="51" pos="504" pan="0" len="24" vol="100" />
          <note key="56" pos="528" pan="0" len="24" vol="100" />
          <note key="58" pos="552" pan="0" len="24" vol="100" />
          <note key="60" pos="576" pan="0" len="48" vol="100" />
          <note key="63" pos="624" pan="0" len="48" vol="100" />
          <note key="58" pos="672" pan="0" len="24" vol="100" />
          <note key="54" pos="696" pan="0" len="72" vol="100" />
          <note key="58" pos="768" pan="0" len="120" vol="100" />
          <note key="49" pos="888" pan="0" len="24" vol="100" />
          <note key="54" pos="912" pan="0" len="24" vol="100" />
          <note key="56" pos="936" pan="0" len="24" vol="100" />
          <note key="58" pos="960" pan="0" len="48" vol="100" />
          <note key="61" pos="1008" pan="0" len="24" vol="100" />
          <note key="56" pos="1032" pan="0" len="48" vol="100" />
          <note key="53" pos="1080" pan="0" len="48" vol="100" />
          <note key="56" pos="1128" pan="0" len="192" vol="100" />
          <note key="54" pos="1320" pan="0" len="12" vol="100" />
          <note key="53" pos="1332" pan="0" len="12" vol="100" />
          <note key="51" pos="1344" pan="0" len="144" vol="100" />
          <note key="61" pos="1488" pan="0" len="24" vol="100" />
          <note key="60" pos="1512" pan="0" len="24" vol="100" />
        </pattern>
        <pattern pos="237324" muted="0" steps="16" name="" type="1">
          <note key="44" pos="0" pan="0" len="96" vol="80" />
          <note key="44" pos="96" pan="0" len="96" vol="47" />
          <note key="44" pos="192" pan="0" len="96" vol="80" />
          <note key="44" pos="288" pan="0" len="96" vol="47" />
          <note key="44" pos="384" pan="0" len="96" vol="80" />
          <note key="44" pos="480" pan="0" len="96" vol="47" />
          <note key="44" pos="576" pan="0" len="96" vol="80" />
          <note key="44" pos="672" pan="0" len="96" vol="47" />
          <note key="44" pos="768" pan="0" len="96" vol="80" />
          <note key="44" pos="864" pan="0" len="96" vol="47" />
          <note key="44" pos="960" pan="0" len="96" vol="80" />
          <note key="44" pos="1056" pan="0" len="96" vol="47" />
          <note key="44" pos="1152" pan="0" len="96" vol="80" />
          <note key="44" pos="1248" pan="0" len="96" vol="47" />
          <note key="44" pos="1344" pan="0" len="96" vol="80" />
          <note key="44" pos="1440" pan="0" len="96" vol="47" />
        </pattern>
        <pattern pos="238860" muted="0" steps="16" name="" type="1">
          <note key="53" pos="0" pan="0" len="96" vol="80" />
          <note key="53" pos="96" pan="0" len="96" vol="80" />
          <note key="53" pos="192" pan="0" len="96" vol="80" />
          <note key="53" pos="288" pan="0" len="96" vol="80" />
          <note key="53" pos="384" pan="0" len="96" vol="80" />
          <note key="53" pos="480" pan="0" len="96" vol="80" />
          <note key="44" pos="576" pan="0" len="96" vol="80" />
          <note key="44" pos="672" pan="0" len="96" vol="47" />
          <note key="44" pos="768" pan="0" len="96" vol="47" />
          <note key="44" pos="864" pan="0" len="96" vol="47" />
          <note key="44" pos="960" pan="0" len="96" vol="47" />
          <note key="49" pos="1056" pan="0" len="96" vol="47" />
          <note key="49" pos="1152" pan="0" len="96" vol="80" />
          <note key="49" pos="1248" pan="0" len="96" vol="47" />
          <note key="49" pos="1344" pan="0" len="96" vol="80" />
          <note key="49" pos="1440" pan="0" len="96" vol="47" />
        </pattern>
        <pattern pos="240396" muted="0" steps="16" name="" type="1">
          <note key="44" pos="0" pan="0" len="96" vol="80" />
          <note key="44" pos="96" pan="0" len="96" vol="47" />
          <note key="44" pos="192" pan="0" len="96" vol="80" />
          <note key="44" pos="288" pan="0" len="96" vol="47" />
          <note key="56" pos="384" pan="0" len="96" vol="80" />
          <note key="56" pos="480" pan="0" len="96" vol="80" />
          <note key="56" pos="576" pan="0" len="96" vol="80" />
          <note key="56" pos="672" pan="0" len="96" vol="47" />
          <note key="44" pos="768" pan="0" len="96" vol="80" />
          <note key="44" pos="864" pan="0" len="96" vol="47" />
          <note key="44" pos="960" pan="0" len="96" vol="80" />
          <note key="44" pos="1056" pan="0" len="96" vol="47" />
          <note key="44" pos="1152" pan="0" len="96" vol="80" />
          <note key="44" pos="1248" pan="0" len="96" vol="47" />
          <note key="44" pos="1344" pan="0" len="96" vol="80" />
          <note key="44" pos="1440" pan="0" len="96" vol="47" />
        </pattern>
      </track>
      <track solo="0" name="9 (Ch8)" type="0" muted="0">
        <instrumenttrack usemasterpitch="1" pitch="0.0" basenote="57" pan="0" pitchrange="12" vol="30">
          <eldata />
          <instrument name="tripleoscillator" />
        </instrumenttrack>
        <pattern pos="182028" muted="0" steps="16" name="" type="1">
          <note key="65" pos="48" pan="0" len="48" vol="100" />
          <note key="67" pos="96" pan="0" len="48" vol="100" />
          <note key="63" pos="144" pan="0" len="192" vol="100" />
          <note key="65" pos="336" pan="0" len="24" vol="100" />
          <note key="67" pos="360" pan="0" len="24" vol="100" />
          <note key="63" pos="384" pan="0" len="48" vol="100" />
          <note key="62" pos="432" pan="0" len="96" vol="100" />
        </pattern>
        <pattern pos="38400" muted="0" steps="16" name="" type="1">
          <note key="60" pos="72" pan="0" len="96" vol="100" />
          <note key="62" pos="216" pan="0" len="72" vol="100" />
          <note key="55" pos="456" pan="0" len="24" vol="100" />
          <note key="57" pos="624" pan="0" len="24" vol="100" />
          <note key="62" pos="648" pan="0" len="24" vol="100" />
          <note key="54" pos="672" pan="0" len="96" vol="100" />
          <note key="60" pos="840" pan="0" len="96" vol="100" />
          <note key="62" pos="984" pan="0" len="72" vol="100" />
          <note key="58" pos="1224" pan="0" len="24" vol="100" />
          <note key="60" pos="1392" pan="0" len="24" vol="100" />
          <note key="65" pos="1416" pan="0" len="24" vol="100" />
          <note key="57" pos="1440" pan="0" len="96" vol="100" />
        </pattern>
        <pattern pos="53760" muted="0" steps="16" name="" type="1">
          <note key="37" pos="432" pan="0" len="12" vol="100" />
          <note key="40" pos="444" pan="0" len="12" vol="100" />
          <note key="45" pos="456" pan="0" len="72" vol="100" />
        </pattern>
        <pattern pos="55296" muted="0" steps="16" name="" type="1">
          <note key="62" pos="660" pan="0" len="12" vol="100" />
          <note key="69" pos="672" pan="0" len="480" vol="100" />
        </pattern>
        <pattern pos="135180" muted="0" steps="16" name="" type="1">
          <note key="51" pos="0" pan="0" len="96" vol="100" />
          <note key="46" pos="96" pan="0" len="24" vol="100" />
          <note key="51" pos="120" pan="0" len="24" vol="100" />
          <note key="53" pos="144" pan="0" len="48" vol="100" />
          <note key="55" pos="192" pan="0" len="96" vol="100" />
          <note key="57" pos="288" pan="0" len="24" vol="100" />
          <note key="58" pos="312" pan="0" len="72" vol="100" />
          <note key="55" pos="384" pan="0" len="120" vol="100" />
          <note key="57" pos="504" pan="0" len="36" vol="100" />
          <note key="58" pos="540" pan="0" len="36" vol="100" />
          <note key="53" pos="576" pan="0" len="144" vol="100" />
          <note key="50" pos="720" pan="0" len="48" vol="100" />
          <note key="51" pos="768" pan="0" len="96" vol="100" />
          <note key="46" pos="864" pan="0" len="24" vol="100" />
          <note key="51" pos="888" pan="0" len="24" vol="100" />
          <note key="53" pos="912" pan="0" len="48" vol="100" />
          <note key="55" pos="960" pan="0" len="96" vol="100" />
          <note key="57" pos="1056" pan="0" len="24" vol="100" />
          <note key="58" pos="1080" pan="0" len="72" vol="100" />
          <note key="55" pos="1152" pan="0" len="24" vol="100" />
          <note key="53" pos="1176" pan="0" len="24" vol="100" />
          <note key="55" pos="1200" pan="0" len="144" vol="100" />
          <note key="58" pos="1344" pan="0" len="24" vol="100" />
          <note key="60" pos="1368" pan="0" len="48" vol="100" />
          <note key="58" pos="1416" pan="0" len="24" vol="100" />
          <note key="55" pos="1440" pan="0" len="72" vol="100" />
          <note key="51" pos="1512" pan="0" len="24" vol="100" />
        </pattern>
        <pattern pos="136716" muted="0" steps="16" name="" type="1">
          <note key="55" pos="0" pan="0" len="96" vol="100" />
          <note key="46" pos="96" pan="0" len="24" vol="100" />
          <note key="51" pos="120" pan="0" len="24" vol="100" />
          <note key="53" pos="144" pan="0" len="48" vol="100" />
          <note key="55" pos="192" pan="0" len="96" vol="100" />
          <note key="57" pos="288" pan="0" len="24" vol="100" />
          <note key="58" pos="312" pan="0" len="72" vol="100" />
          <note key="55" pos="384" pan="0" len="120" vol="100" />
          <note key="57" pos="504" pan="0" len="36" vol="100" />
          <note key="58" pos="540" pan="0" len="36" vol="100" />
          <note key="53" pos="576" pan="0" len="144" vol="100" />
          <note key="50" pos="720" pan="0" len="48" vol="100" />
          <note key="55" pos="768" pan="0" len="96" vol="100" />
          <note key="53" pos="864" pan="0" len="48" vol="100" />
          <note key="48" pos="912" pan="0" len="48" vol="100" />
          <note key="58" pos="960" pan="0" len="96" vol="100" />
          <note key="57" pos="1056" pan="0" len="72" vol="100" />
          <note key="55" pos="1152" pan="0" len="144" vol="100" />
          <note key="58" pos="1296" pan="0" len="24" vol="100" />
          <note key="62" pos="1320" pan="0" len="24" vol="100" />
          <note key="55" pos="1344" pan="0" len="192" vol="100" />
        </pattern>
        <pattern pos="141324" muted="0" steps="16" name="" type="1">
          <note key="51" pos="0" pan="0" len="96" vol="100" />
          <note key="46" pos="96" pan="0" len="24" vol="100" />
          <note key="51" pos="120" pan="0" len="24" vol="100" />
          <note key="53" pos="144" pan="0" len="48" vol="100" />
          <note key="55" pos="192" pan="0" len="96" vol="100" />
          <note key="57" pos="288" pan="0" len="24" vol="100" />
          <note key="58" pos="312" pan="0" len="72" vol="100" />
          <note key="55" pos="384" pan="0" len="120" vol="100" />
          <note key="57" pos="504" pan="0" len="36" vol="100" />
          <note key="58" pos="540" pan="0" len="36" vol="100" />
          <note key="53" pos="576" pan="0" len="144" vol="100" />
          <note key="50" pos="720" pan="0" len="48" vol="100" />
          <note key="51" pos="768" pan="0" len="96" vol="100" />
          <note key="46" pos="864" pan="0" len="24" vol="100" />
          <note key="51" pos="888" pan="0" len="24" vol="100" />
          <note key="53" pos="912" pan="0" len="48" vol="100" />
          <note key="55" pos="960" pan="0" len="96" vol="100" />
          <note key="57" pos="1056" pan="0" len="24" vol="100" />
          <note key="58" pos="1080" pan="0" len="72" vol="100" />
          <note key="55" pos="1152" pan="0" len="24" vol="100" />
          <note key="53" pos="1176" pan="0" len="24" vol="100" />
          <note key="55" pos="1200" pan="0" len="144" vol="100" />
          <note key="58" pos="1344" pan="0" len="24" vol="100" />
          <note key="60" pos="1368" pan="0" len="48" vol="100" />
          <note key="58" pos="1416" pan="0" len="24" vol="100" />
          <note key="55" pos="1440" pan="0" len="72" vol="100" />
          <note key="51" pos="1512" pan="0" len="24" vol="100" />
        </pattern>
        <pattern pos="142860" muted="0" steps="16" name="" type="1">
          <note key="55" pos="0" pan="0" len="96" vol="100" />
          <note key="46" pos="96" pan="0" len="24" vol="100" />
          <note key="51" pos="120" pan="0" len="24" vol="100" />
          <note key="53" pos="144" pan="0" len="48" vol="100" />
          <note key="55" pos="192" pan="0" len="96" vol="100" />
          <note key="57" pos="288" pan="0" len="24" vol="100" />
          <note key="58" pos="312" pan="0" len="72" vol="100" />
          <note key="55" pos="384" pan="0" len="120" vol="100" />
          <note key="57" pos="504" pan="0" len="36" vol="100" />
          <note key="58" pos="540" pan="0" len="36" vol="100" />
          <note key="53" pos="576" pan="0" len="144" vol="100" />
          <note key="50" pos="720" pan="0" len="48" vol="100" />
          <note key="55" pos="768" pan="0" len="96" vol="100" />
          <note key="53" pos="864" pan="0" len="48" vol="100" />
          <note key="48" pos="912" pan="0" len="48" vol="100" />
          <note key="58" pos="960" pan="0" len="96" vol="100" />
          <note key="57" pos="1056" pan="0" len="72" vol="100" />
          <note key="55" pos="1152" pan="0" len="144" vol="100" />
          <note key="58" pos="1296" pan="0" len="24" vol="100" />
          <note key="62" pos="1320" pan="0" len="24" vol="100" />
          <note key="55" pos="1344" pan="0" len="192" vol="100" />
        </pattern>
        <pattern pos="144396" muted="0" steps="16" name="" type="1">
          <note key="62" pos="96" pan="0" len="12" vol="31" />
          <note key="63" pos="108" pan="0" len="12" vol="47" />
          <note key="58" pos="120" pan="0" len="12" vol="100" />
          <note key="60" pos="132" pan="0" len="12" vol="62" />
          <note key="55" pos="144" pan="0" len="144" vol="100" />
        </pattern>
        <pattern pos="169740" muted="0" steps="16" name="" type="1">
          <note key="67" pos="2112" pan="0" len="12" vol="100" />
          <note key="66" pos="2124" pan="0" len="12" vol="100" />
          <note key="60" pos="2136" pan="0" len="12" vol="100" />
          <note key="62" pos="2148" pan="0" len="12" vol="100" />
          <note key="66" pos="2160" pan="0" len="12" vol="100" />
          <note key="62" pos="2172" pan="0" len="12" vol="100" />
          <note key="60" pos="2184" pan="0" len="12" vol="100" />
          <note key="55" pos="2196" pan="0" len="12" vol="100" />
          <note key="60" pos="2208" pan="0" len="84" vol="100" />
        </pattern>
      </track>
      <track solo="0" name="9 (Ch9)" type="0" muted="0">
        <instrumenttrack usemasterpitch="1" pitch="0.0" basenote="57" pan="0" pitchrange="12" vol="30">
          <eldata />
          <instrument name="tripleoscillator" />
        </instrumenttrack>
        <pattern pos="277596" muted="0" steps="16" name="" type="1">
          <note key="39" pos="1152" pan="0" len="36" vol="100" />
          <note key="46" pos="1188" pan="0" len="36" vol="47" />
          <note key="44" pos="1224" pan="0" len="36" vol="62" />
          <note key="49" pos="1260" pan="0" len="36" vol="100" />
          <note key="54" pos="1296" pan="0" len="48" vol="100" />
          <note key="56" pos="1344" pan="0" len="12" vol="100" />
          <note key="58" pos="1356" pan="0" len="12" vol="100" />
          <note key="56" pos="1368" pan="0" len="12" vol="100" />
          <note key="53" pos="1392" pan="0" len="12" vol="100" />
          <note key="49" pos="1416" pan="0" len="12" vol="100" />
          <note key="51" pos="1440" pan="0" len="48" vol="100" />
          <note key="49" pos="1488" pan="0" len="12" vol="100" />
          <note key="48" pos="1500" pan="0" len="12" vol="100" />
          <note key="49" pos="1512" pan="0" len="12" vol="100" />
          <note key="48" pos="1536" pan="0" len="12" vol="100" />
          <note key="44" pos="1560" pan="0" len="12" vol="100" />
          <note key="42" pos="1584" pan="0" len="72" vol="100" />
          <note key="41" pos="1656" pan="0" len="12" vol="100" />
          <note key="37" pos="1692" pan="0" len="36" vol="100" />
          <note key="39" pos="1728" pan="0" len="36" vol="100" />
          <note key="46" pos="1764" pan="0" len="36" vol="47" />
          <note key="44" pos="1800" pan="0" len="36" vol="62" />
          <note key="49" pos="1836" pan="0" len="36" vol="100" />
          <note key="54" pos="1872" pan="0" len="48" vol="100" />
          <note key="56" pos="1920" pan="0" len="12" vol="100" />
          <note key="58" pos="1932" pan="0" len="12" vol="100" />
          <note key="56" pos="1944" pan="0" len="12" vol="100" />
          <note key="53" pos="1968" pan="0" len="12" vol="100" />
          <note key="49" pos="1992" pan="0" len="12" vol="100" />
          <note key="51" pos="2016" pan="0" len="48" vol="100" />
          <note key="49" pos="2064" pan="0" len="12" vol="100" />
          <note key="48" pos="2076" pan="0" len="12" vol="100" />
          <note key="49" pos="2088" pan="0" len="12" vol="100" />
          <note key="48" pos="2112" pan="0" len="12" vol="100" />
          <note key="44" pos="2136" pan="0" len="12" vol="100" />
          <note key="42" pos="2160" pan="0" len="72" vol="100" />
          <note key="41" pos="2232" pan="0" len="12" vol="100" />
          <note key="37" pos="2268" pan="0" len="36" vol="100" />
        </pattern>
        <pattern pos="36864" muted="0" steps="16" name="" type="1">
          <note key="55" pos="72" pan="0" len="24" vol="100" />
          <note key="60" pos="96" pan="0" len="168" vol="100" />
          <note key="57" pos="264" pan="0" len="24" vol="100" />
          <note key="62" pos="288" pan="0" len="96" vol="100" />
          <note key="64" pos="384" pan="0" len="72" vol="100" />
          <note key="52" pos="456" pan="0" len="24" vol="100" />
          <note key="48" pos="480" pan="0" len="360" vol="100" />
          <note key="55" pos="840" pan="0" len="24" vol="100" />
          <note key="60" pos="864" pan="0" len="168" vol="100" />
          <note key="57" pos="1032" pan="0" len="24" vol="100" />
          <note key="62" pos="1056" pan="0" len="96" vol="100" />
          <note key="64" pos="1152" pan="0" len="72" vol="100" />
          <note key="52" pos="1224" pan="0" len="24" vol="100" />
          <note key="48" pos="1248" pan="0" len="288" vol="100" />
        </pattern>
        <pattern pos="43008" muted="0" steps="16" name="" type="1">
          <note key="55" pos="72" pan="0" len="24" vol="100" />
          <note key="60" pos="96" pan="0" len="168" vol="100" />
          <note key="57" pos="264" pan="0" len="24" vol="100" />
          <note key="62" pos="288" pan="0" len="96" vol="100" />
          <note key="64" pos="384" pan="0" len="72" vol="100" />
          <note key="52" pos="456" pan="0" len="24" vol="100" />
          <note key="48" pos="480" pan="0" len="360" vol="100" />
          <note key="55" pos="840" pan="0" len="24" vol="100" />
          <note key="60" pos="864" pan="0" len="168" vol="100" />
          <note key="57" pos="1032" pan="0" len="24" vol="100" />
          <note key="62" pos="1056" pan="0" len="96" vol="100" />
          <note key="64" pos="1152" pan="0" len="72" vol="100" />
          <note key="52" pos="1224" pan="0" len="24" vol="100" />
          <note key="48" pos="1248" pan="0" len="288" vol="100" />
        </pattern>
        <pattern pos="122892" muted="0" steps="16" name="" type="1">
          <note key="70" pos="96" pan="0" len="12" vol="100" />
          <note key="69" pos="108" pan="0" len="12" vol="100" />
          <note key="65" pos="120" pan="0" len="264" vol="100" />
        </pattern>
        <pattern pos="270540" muted="0" steps="16" name="" type="1">
          <note key="27" pos="0" pan="0" len="1152" vol="100" />
        </pattern>
        <pattern pos="272844" muted="0" steps="16" name="" type="1">
          <note key="64" pos="0" pan="0" len="12" vol="100" />
          <note key="63" pos="12" pan="0" len="12" vol="100" />
          <note key="60" pos="24" pan="0" len="12" vol="100" />
          <note key="57" pos="36" pan="0" len="12" vol="100" />
          <note key="56" pos="48" pan="0" len="12" vol="100" />
          <note key="52" pos="60" pan="0" len="12" vol="100" />
          <note key="51" pos="72" pan="0" len="12" vol="100" />
          <note key="48" pos="84" pan="0" len="12" vol="100" />
          <note key="44" pos="96" pan="0" len="12" vol="100" />
          <note key="40" pos="108" pan="0" len="12" vol="100" />
          <note key="39" pos="120" pan="0" len="12" vol="100" />
          <note key="36" pos="132" pan="0" len="12" vol="100" />
        </pattern>
      </track>
      <track solo="0" name="9 (Ch10)" type="0" muted="0">
        <instrumenttrack usemasterpitch="1" pitch="0.0" basenote="57" pan="0" pitchrange="12" vol="30">
          <eldata />
          <instrument name="tripleoscillator" />
        </instrumenttrack>
        <pattern pos="272988" muted="0" steps="16" name="" type="1">
          <note key="32" pos="576" pan="0" len="12" vol="100" />
          <note key="39" pos="588" pan="0" len="12" vol="100" />
          <note key="42" pos="600" pan="0" len="12" vol="100" />
          <note key="44" pos="612" pan="0" len="12" vol="100" />
          <note key="49" pos="624" pan="0" len="12" vol="100" />
          <note key="51" pos="636" pan="0" len="12" vol="100" />
          <note key="56" pos="648" pan="0" len="12" vol="100" />
          <note key="58" pos="660" pan="0" len="12" vol="100" />
          <note key="59" pos="672" pan="0" len="120" vol="100" />
          <note key="54" pos="792" pan="0" len="36" vol="100" />
          <note key="49" pos="828" pan="0" len="36" vol="100" />
          <note key="32" pos="864" pan="0" len="12" vol="100" />
          <note key="39" pos="876" pan="0" len="12" vol="100" />
          <note key="42" pos="888" pan="0" len="12" vol="100" />
          <note key="44" pos="900" pan="0" len="12" vol="100" />
          <note key="49" pos="912" pan="0" len="12" vol="100" />
          <note key="51" pos="924" pan="0" len="12" vol="100" />
          <note key="63" pos="936" pan="0" len="12" vol="100" />
          <note key="66" pos="948" pan="0" len="12" vol="100" />
          <note key="68" pos="960" pan="0" len="120" vol="100" />
          <note key="66" pos="1080" pan="0" len="36" vol="100" />
          <note key="61" pos="1116" pan="0" len="36" vol="100" />
        </pattern>
        <pattern pos="56448" muted="0" steps="16" name="" type="1">
          <note key="62" pos="576" pan="0" len="264" vol="100" />
          <note key="62" pos="840" pan="0" len="12" vol="100" />
          <note key="65" pos="852" pan="0" len="12" vol="100" />
          <note key="69" pos="864" pan="0" len="288" vol="100" />
        </pattern>
        <pattern pos="240396" muted="0" steps="16" name="" type="1">
          <note key="58" pos="0" pan="0" len="12" vol="64" />
          <note key="61" pos="12" pan="0" len="12" vol="64" />
          <note key="60" pos="24" pan="0" len="12" vol="64" />
          <note key="56" pos="36" pan="0" len="96" vol="64" />
          <note key="56" pos="132" pan="0" len="12" vol="64" />
          <note key="58" pos="144" pan="0" len="12" vol="64" />
          <note key="49" pos="156" pan="0" len="12" vol="64" />
          <note key="51" pos="168" pan="0" len="12" vol="64" />
          <note key="53" pos="180" pan="0" len="12" vol="64" />
          <note key="46" pos="192" pan="0" len="192" vol="64" />
          <note key="49" pos="384" pan="0" len="12" vol="100" />
          <note key="51" pos="396" pan="0" len="12" vol="100" />
          <note key="56" pos="408" pan="0" len="12" vol="100" />
          <note key="55" pos="420" pan="0" len="96" vol="100" />
          <note key="49" pos="516" pan="0" len="12" vol="100" />
          <note key="51" pos="528" pan="0" len="12" vol="100" />
          <note key="53" pos="540" pan="0" len="12" vol="100" />
          <note key="58" pos="552" pan="0" len="12" vol="100" />
          <note key="61" pos="564" pan="0" len="12" vol="100" />
          <note key="51" pos="576" pan="0" len="24" vol="100" />
          <note key="49" pos="600" pan="0" len="12" vol="100" />
          <note key="53" pos="612" pan="0" len="156" vol="100" />
        </pattern>
        <pattern pos="245004" muted="0" steps="16" name="" type="1">
          <note key="61" pos="0" pan="0" len="12" vol="64" />
          <note key="64" pos="12" pan="0" len="12" vol="64" />
          <note key="63" pos="24" pan="0" len="12" vol="64" />
          <note key="59" pos="36" pan="0" len="96" vol="64" />
          <note key="59" pos="132" pan="0" len="12" vol="64" />
          <note key="61" pos="144" pan="0" len="12" vol="64" />
          <note key="52" pos="156" pan="0" len="12" vol="64" />
          <note key="54" pos="168" pan="0" len="12" vol="64" />
          <note key="56" pos="180" pan="0" len="12" vol="64" />
          <note key="49" pos="192" pan="0" len="192" vol="64" />
          <note key="52" pos="384" pan="0" len="12" vol="100" />
          <note key="54" pos="396" pan="0" len="12" vol="100" />
          <note key="59" pos="408" pan="0" len="12" vol="100" />
          <note key="58" pos="420" pan="0" len="96" vol="100" />
          <note key="52" pos="516" pan="0" len="12" vol="100" />
          <note key="54" pos="528" pan="0" len="12" vol="100" />
          <note key="56" pos="540" pan="0" len="12" vol="100" />
          <note key="61" pos="552" pan="0" len="12" vol="100" />
          <note key="64" pos="564" pan="0" len="12" vol="100" />
          <note key="54" pos="576" pan="0" len="24" vol="100" />
          <note key="52" pos="600" pan="0" len="12" vol="100" />
          <note key="56" pos="612" pan="0" len="156" vol="100" />
        </pattern>
      </track>
      <track solo="0" name="9 (Ch11)" type="0" muted="0">
        <instrumenttrack usemasterpitch="1" pitch="0.0" basenote="57" pan="0" pitchrange="12" vol="30">
          <eldata />
          <instrument name="tripleoscillator" />
        </instrumenttrack>
        <pattern pos="274140" muted="0" steps="16" name="" type="1">
          <note key="32" pos="0" pan="0" len="576" vol="100" />
          <note key="32" pos="576" pan="0" len="576" vol="100" />
          <note key="32" pos="1152" pan="0" len="576" vol="100" />
          <note key="32" pos="1728" pan="0" len="576" vol="100" />
        </pattern>
        <pattern pos="56448" muted="0" steps="16" name="" type="1">
          <note key="69" pos="576" pan="0" len="576" vol="100" />
        </pattern>
        <pattern pos="58752" muted="0" steps="16" name="" type="1">
          <note key="62" pos="288" pan="0" len="96" vol="100" />
          <note key="64" pos="384" pan="0" len="24" vol="100" />
          <note key="65" pos="408" pan="0" len="24" vol="100" />
          <note key="67" pos="432" pan="0" len="144" vol="100" />
          <note key="57" pos="576" pan="0" len="24" vol="100" />
          <note key="53" pos="600" pan="0" len="12" vol="100" />
          <note key="57" pos="612" pan="0" len="60" vol="100" />
          <note key="53" pos="672" pan="0" len="24" vol="100" />
          <note key="57" pos="696" pan="0" len="24" vol="100" />
          <note key="55" pos="720" pan="0" len="24" vol="100" />
          <note key="52" pos="744" pan="0" len="12" vol="100" />
          <note key="55" pos="756" pan="0" len="60" vol="100" />
          <note key="53" pos="816" pan="0" len="24" vol="100" />
          <note key="52" pos="840" pan="0" len="24" vol="100" />
          <note key="50" pos="864" pan="0" len="216" vol="100" />
          <note key="53" pos="1080" pan="0" len="24" vol="100" />
          <note key="52" pos="1104" pan="0" len="24" vol="100" />
          <note key="48" pos="1128" pan="0" len="24" vol="100" />
        </pattern>
        <pattern pos="59904" muted="0" steps="16" name="" type="1">
          <note key="65" pos="0" pan="0" len="24" vol="100" />
          <note key="64" pos="24" pan="0" len="12" vol="100" />
          <note key="65" pos="36" pan="0" len="60" vol="100" />
          <note key="64" pos="96" pan="0" len="24" vol="100" />
          <note key="65" pos="120" pan="0" len="24" vol="100" />
          <note key="67" pos="144" pan="0" len="24" vol="100" />
          <note key="60" pos="168" pan="0" len="12" vol="100" />
          <note key="59" pos="180" pan="0" len="60" vol="100" />
          <note key="62" pos="240" pan="0" len="24" vol="100" />
          <note key="64" pos="264" pan="0" len="24" vol="100" />
          <note key="65" pos="288" pan="0" len="24" vol="100" />
          <note key="64" pos="312" pan="0" len="12" vol="100" />
          <note key="65" pos="324" pan="0" len="60" vol="100" />
          <note key="64" pos="384" pan="0" len="24" vol="100" />
          <note key="65" pos="408" pan="0" len="24" vol="100" />
          <note key="67" pos="432" pan="0" len="144" vol="100" />
          <note key="69" pos="576" pan="0" len="24" vol="100" />
          <note key="65" pos="600" pan="0" len="12" vol="100" />
          <note key="69" pos="612" pan="0" len="60" vol="100" />
          <note key="65" pos="672" pan="0" len="24" vol="100" />
          <note key="69" pos="696" pan="0" len="24" vol="100" />
          <note key="67" pos="720" pan="0" len="24" vol="100" />
          <note key="64" pos="744" pan="0" len="12" vol="100" />
          <note key="67" pos="756" pan="0" len="60" vol="100" />
          <note key="65" pos="816" pan="0" len="24" vol="100" />
          <note key="64" pos="840" pan="0" len="24" vol="100" />
          <note key="62" pos="864" pan="0" len="216" vol="100" />
          <note key="65" pos="1080" pan="0" len="24" vol="100" />
          <note key="64" pos="1104" pan="0" len="24" vol="100" />
          <note key="60" pos="1128" pan="0" len="24" vol="100" />
        </pattern>
        <pattern pos="63360" muted="0" steps="16" name="" type="1">
          <note key="62" pos="0" pan="0" len="72" vol="100" />
          <note key="65" pos="72" pan="0" len="24" vol="100" />
          <note key="62" pos="96" pan="0" len="12" vol="100" />
          <note key="65" pos="108" pan="0" len="24" vol="100" />
          <note key="67" pos="132" pan="0" len="12" vol="100" />
          <note key="69" pos="144" pan="0" len="24" vol="100" />
          <note key="65" pos="168" pan="0" len="12" vol="100" />
          <note key="69" pos="180" pan="0" len="24" vol="100" />
          <note key="67" pos="204" pan="0" len="36" vol="100" />
          <note key="69" pos="240" pan="0" len="36" vol="100" />
          <note key="67" pos="276" pan="0" len="12" vol="100" />
          <note key="62" pos="288" pan="0" len="72" vol="100" />
          <note key="65" pos="360" pan="0" len="24" vol="100" />
          <note key="62" pos="384" pan="0" len="12" vol="100" />
          <note key="65" pos="396" pan="0" len="24" vol="100" />
          <note key="67" pos="420" pan="0" len="12" vol="100" />
          <note key="69" pos="432" pan="0" len="24" vol="100" />
          <note key="69" pos="456" pan="0" len="24" vol="100" />
          <note key="70" pos="480" pan="0" len="24" vol="100" />
          <note key="67" pos="504" pan="0" len="24" vol="100" />
          <note key="69" pos="528" pan="0" len="36" vol="100" />
          <note key="67" pos="564" pan="0" len="12" vol="100" />
          <note key="62" pos="576" pan="0" len="72" vol="100" />
          <note key="65" pos="648" pan="0" len="48" vol="100" />
          <note key="72" pos="696" pan="0" len="24" vol="100" />
          <note key="72" pos="720" pan="0" len="24" vol="100" />
          <note key="70" pos="744" pan="0" len="24" vol="100" />
          <note key="69" pos="768" pan="0" len="24" vol="100" />
          <note key="67" pos="792" pan="0" len="48" vol="100" />
          <note key="72" pos="840" pan="0" len="24" vol="100" />
          <note key="72" pos="864" pan="0" len="24" vol="100" />
          <note key="70" pos="888" pan="0" len="24" vol="100" />
          <note key="69" pos="912" pan="0" len="24" vol="100" />
          <note key="67" pos="936" pan="0" len="24" vol="100" />
          <note key="65" pos="960" pan="0" len="24" vol="100" />
          <note key="64" pos="984" pan="0" len="24" vol="100" />
          <note key="62" pos="1008" pan="0" len="72" vol="100" />
          <note key="65" pos="1080" pan="0" len="24" vol="100" />
          <note key="64" pos="1104" pan="0" len="24" vol="100" />
          <note key="60" pos="1128" pan="0" len="24" vol="100" />
        </pattern>
        <pattern pos="125964" muted="0" steps="16" name="" type="1">
          <note key="63" pos="456" pan="0" len="12" vol="100" />
          <note key="62" pos="468" pan="0" len="12" vol="100" />
          <note key="55" pos="480" pan="0" len="72" vol="100" />
          <note key="55" pos="552" pan="0" len="12" vol="100" />
          <note key="58" pos="564" pan="0" len="12" vol="100" />
          <note key="60" pos="576" pan="0" len="72" vol="100" />
          <note key="63" pos="648" pan="0" len="12" vol="100" />
          <note key="62" pos="660" pan="0" len="12" vol="100" />
          <note key="55" pos="672" pan="0" len="96" vol="100" />
          <note key="60" pos="768" pan="0" len="12" vol="100" />
          <note key="58" pos="780" pan="0" len="12" vol="100" />
          <note key="55" pos="792" pan="0" len="12" vol="100" />
          <note key="58" pos="804" pan="0" len="12" vol="100" />
          <note key="60" pos="816" pan="0" len="12" vol="100" />
          <note key="55" pos="828" pan="0" len="12" vol="100" />
          <note key="62" pos="840" pan="0" len="24" vol="100" />
          <note key="60" pos="864" pan="0" len="12" vol="100" />
          <note key="58" pos="876" pan="0" len="12" vol="100" />
          <note key="55" pos="888" pan="0" len="24" vol="100" />
          <note key="58" pos="912" pan="0" len="12" vol="100" />
          <note key="55" pos="924" pan="0" len="24" vol="100" />
          <note key="58" pos="948" pan="0" len="12" vol="100" />
          <note key="60" pos="960" pan="0" len="12" vol="100" />
          <note key="58" pos="972" pan="0" len="12" vol="100" />
          <note key="55" pos="984" pan="0" len="12" vol="100" />
          <note key="58" pos="996" pan="0" len="12" vol="100" />
          <note key="63" pos="1008" pan="0" len="12" vol="100" />
          <note key="55" pos="1020" pan="0" len="12" vol="100" />
          <note key="63" pos="1032" pan="0" len="24" vol="100" />
          <note key="62" pos="1056" pan="0" len="12" vol="100" />
          <note key="55" pos="1068" pan="0" len="24" vol="100" />
          <note key="58" pos="1092" pan="0" len="12" vol="100" />
          <note key="60" pos="1104" pan="0" len="12" vol="100" />
          <note key="55" pos="1116" pan="0" len="24" vol="100" />
          <note key="58" pos="1140" pan="0" len="84" vol="100" />
          <note key="63" pos="1224" pan="0" len="12" vol="100" />
          <note key="62" pos="1236" pan="0" len="12" vol="100" />
          <note key="55" pos="1248" pan="0" len="72" vol="100" />
          <note key="55" pos="1320" pan="0" len="12" vol="100" />
          <note key="58" pos="1332" pan="0" len="12" vol="100" />
          <note key="60" pos="1344" pan="0" len="192" vol="100" />
        </pattern>
        <pattern pos="157452" muted="0" steps="16" name="" type="1">
          <note key="44" pos="0" pan="0" len="24" vol="31" />
          <note key="43" pos="24" pan="0" len="24" vol="47" />
          <note key="39" pos="48" pan="0" len="24" vol="100" />
          <note key="37" pos="72" pan="0" len="24" vol="47" />
          <note key="46" pos="96" pan="0" len="24" vol="100" />
          <note key="44" pos="120" pan="0" len="24" vol="47" />
          <note key="43" pos="144" pan="0" len="24" vol="100" />
          <note key="39" pos="168" pan="0" len="24" vol="62" />
          <note key="44" pos="192" pan="0" len="24" vol="31" />
          <note key="43" pos="216" pan="0" len="24" vol="47" />
          <note key="39" pos="240" pan="0" len="24" vol="100" />
          <note key="37" pos="264" pan="0" len="24" vol="47" />
          <note key="46" pos="288" pan="0" len="24" vol="100" />
          <note key="44" pos="312" pan="0" len="24" vol="47" />
          <note key="43" pos="336" pan="0" len="24" vol="100" />
          <note key="39" pos="360" pan="0" len="24" vol="62" />
          <note key="44" pos="384" pan="0" len="24" vol="31" />
          <note key="43" pos="408" pan="0" len="24" vol="47" />
          <note key="39" pos="432" pan="0" len="24" vol="100" />
          <note key="37" pos="456" pan="0" len="24" vol="47" />
          <note key="46" pos="480" pan="0" len="24" vol="100" />
          <note key="44" pos="504" pan="0" len="24" vol="47" />
          <note key="43" pos="528" pan="0" len="24" vol="100" />
          <note key="39" pos="552" pan="0" len="24" vol="62" />
          <note key="44" pos="576" pan="0" len="24" vol="31" />
          <note key="43" pos="600" pan="0" len="24" vol="47" />
          <note key="39" pos="624" pan="0" len="24" vol="100" />
          <note key="37" pos="648" pan="0" len="24" vol="47" />
          <note key="46" pos="672" pan="0" len="24" vol="100" />
          <note key="44" pos="696" pan="0" len="24" vol="47" />
          <note key="43" pos="720" pan="0" len="24" vol="100" />
          <note key="39" pos="744" pan="0" len="24" vol="62" />
          <note key="44" pos="768" pan="0" len="24" vol="31" />
          <note key="43" pos="792" pan="0" len="24" vol="47" />
          <note key="39" pos="816" pan="0" len="24" vol="100" />
          <note key="37" pos="840" pan="0" len="24" vol="47" />
          <note key="46" pos="864" pan="0" len="24" vol="100" />
          <note key="44" pos="888" pan="0" len="24" vol="47" />
          <note key="43" pos="912" pan="0" len="24" vol="100" />
          <note key="39" pos="936" pan="0" len="24" vol="62" />
          <note key="44" pos="960" pan="0" len="24" vol="31" />
          <note key="43" pos="984" pan="0" len="24" vol="47" />
          <note key="39" pos="1008" pan="0" len="24" vol="100" />
          <note key="37" pos="1032" pan="0" len="24" vol="47" />
          <note key="46" pos="1056" pan="0" len="24" vol="100" />
          <note key="44" pos="1080" pan="0" len="24" vol="47" />
          <note key="43" pos="1104" pan="0" len="24" vol="100" />
          <note key="39" pos="1128" pan="0" len="24" vol="62" />
          <note key="44" pos="1152" pan="0" len="24" vol="31" />
          <note key="43" pos="1176" pan="0" len="24" vol="44" />
          <note key="39" pos="1200" pan="0" len="24" vol="88" />
          <note key="37" pos="1224" pan="0" len="24" vol="38" />
          <note key="46" pos="1248" pan="0" len="24" vol="75" />
          <note key="44" pos="1272" pan="0" len="24" vol="33" />
          <note key="43" pos="1296" pan="0" len="24" vol="62" />
          <note key="39" pos="1320" pan="0" len="24" vol="36" />
          <note key="44" pos="1344" pan="0" len="24" vol="16" />
          <note key="43" pos="1368" pan="0" len="24" vol="20" />
          <note key="39" pos="1392" pan="0" len="24" vol="38" />
          <note key="37" pos="1416" pan="0" len="24" vol="14" />
          <note key="46" pos="1440" pan="0" len="24" vol="25" />
          <note key="44" pos="1464" pan="0" len="24" vol="9" />
          <note key="43" pos="1488" pan="0" len="24" vol="12" />
          <note key="39" pos="1512" pan="0" len="24" vol="5" />
        </pattern>
      </track>
      <track solo="0" name="9 (Ch12)" type="0" muted="0">
        <instrumenttrack usemasterpitch="1" pitch="0.0" basenote="57" pan="0" pitchrange="12" vol="30">
          <eldata />
          <instrument name="tripleoscillator" />
        </instrumenttrack>
        <pattern pos="217356" muted="0" steps="16" name="" type="1">
          <note key="58" pos="504" pan="0" len="24" vol="100" />
          <note key="57" pos="528" pan="0" len="24" vol="100" />
          <note key="50" pos="552" pan="0" len="216" vol="100" />
          <note key="55" pos="960" pan="0" len="48" vol="100" />
          <note key="58" pos="1008" pan="0" len="72" vol="100" />
          <note key="63" pos="1080" pan="0" len="72" vol="100" />
          <note key="68" pos="1272" pan="0" len="24" vol="100" />
          <note key="67" pos="1296" pan="0" len="24" vol="100" />
          <note key="60" pos="1320" pan="0" len="216" vol="100" />
        </pattern>
        <pattern pos="129036" muted="0" steps="16" name="" type="1">
          <note key="58" pos="0" pan="0" len="48" vol="100" />
          <note key="60" pos="48" pan="0" len="48" vol="100" />
          <note key="55" pos="96" pan="0" len="48" vol="100" />
          <note key="58" pos="144" pan="0" len="24" vol="100" />
          <note key="60" pos="168" pan="0" len="24" vol="100" />
          <note key="62" pos="192" pan="0" len="48" vol="100" />
          <note key="63" pos="240" pan="0" len="48" vol="100" />
          <note key="67" pos="288" pan="0" len="12" vol="100" />
          <note key="65" pos="300" pan="0" len="12" vol="100" />
          <note key="67" pos="312" pan="0" len="24" vol="100" />
          <note key="63" pos="336" pan="0" len="24" vol="100" />
          <note key="58" pos="360" pan="0" len="24" vol="100" />
          <note key="63" pos="384" pan="0" len="48" vol="100" />
          <note key="62" pos="432" pan="0" len="48" vol="100" />
          <note key="55" pos="480" pan="0" len="48" vol="100" />
          <note key="58" pos="528" pan="0" len="48" vol="100" />
        </pattern>
        <pattern pos="157452" muted="0" steps="16" name="" type="1">
          <note key="44" pos="36" pan="0" len="24" vol="16" />
          <note key="43" pos="60" pan="0" len="24" vol="23" />
          <note key="39" pos="84" pan="0" len="24" vol="50" />
          <note key="37" pos="108" pan="0" len="24" vol="23" />
          <note key="46" pos="132" pan="0" len="24" vol="50" />
          <note key="44" pos="156" pan="0" len="24" vol="23" />
          <note key="43" pos="180" pan="0" len="24" vol="50" />
          <note key="39" pos="204" pan="0" len="24" vol="31" />
          <note key="44" pos="228" pan="0" len="24" vol="16" />
          <note key="43" pos="252" pan="0" len="24" vol="23" />
          <note key="39" pos="276" pan="0" len="24" vol="50" />
          <note key="37" pos="300" pan="0" len="24" vol="23" />
          <note key="46" pos="324" pan="0" len="24" vol="50" />
          <note key="44" pos="348" pan="0" len="24" vol="23" />
          <note key="43" pos="372" pan="0" len="48" vol="50" />
          <note key="44" pos="420" pan="0" len="24" vol="16" />
          <note key="43" pos="444" pan="0" len="24" vol="23" />
          <note key="39" pos="468" pan="0" len="24" vol="50" />
          <note key="37" pos="492" pan="0" len="24" vol="23" />
          <note key="46" pos="516" pan="0" len="24" vol="50" />
          <note key="44" pos="540" pan="0" len="24" vol="23" />
          <note key="43" pos="564" pan="0" len="24" vol="50" />
          <note key="39" pos="588" pan="0" len="24" vol="31" />
          <note key="44" pos="612" pan="0" len="24" vol="16" />
          <note key="43" pos="636" pan="0" len="24" vol="23" />
          <note key="39" pos="660" pan="0" len="24" vol="50" />
          <note key="37" pos="684" pan="0" len="24" vol="23" />
          <note key="46" pos="708" pan="0" len="24" vol="50" />
          <note key="44" pos="732" pan="0" len="24" vol="23" />
          <note key="43" pos="756" pan="0" len="48" vol="50" />
          <note key="44" pos="804" pan="0" len="24" vol="16" />
          <note key="43" pos="828" pan="0" len="24" vol="23" />
          <note key="39" pos="852" pan="0" len="24" vol="50" />
          <note key="37" pos="876" pan="0" len="24" vol="23" />
          <note key="46" pos="900" pan="0" len="24" vol="50" />
          <note key="44" pos="924" pan="0" len="24" vol="23" />
          <note key="43" pos="948" pan="0" len="24" vol="50" />
          <note key="39" pos="972" pan="0" len="24" vol="31" />
          <note key="44" pos="996" pan="0" len="24" vol="16" />
          <note key="43" pos="1020" pan="0" len="24" vol="23" />
          <note key="39" pos="1044" pan="0" len="24" vol="50" />
          <note key="37" pos="1068" pan="0" len="24" vol="23" />
          <note key="46" pos="1092" pan="0" len="24" vol="50" />
          <note key="44" pos="1116" pan="0" len="24" vol="23" />
          <note key="43" pos="1140" pan="0" len="48" vol="50" />
          <note key="44" pos="1188" pan="0" len="24" vol="14" />
          <note key="43" pos="1212" pan="0" len="24" vol="20" />
          <note key="39" pos="1236" pan="0" len="24" vol="39" />
          <note key="37" pos="1260" pan="0" len="24" vol="17" />
          <note key="46" pos="1284" pan="0" len="24" vol="33" />
          <note key="44" pos="1308" pan="0" len="24" vol="14" />
          <note key="43" pos="1332" pan="0" len="24" vol="27" />
          <note key="39" pos="1356" pan="0" len="24" vol="14" />
          <note key="44" pos="1380" pan="0" len="24" vol="6" />
          <note key="43" pos="1404" pan="0" len="24" vol="8" />
          <note key="39" pos="1428" pan="0" len="24" vol="14" />
          <note key="37" pos="1452" pan="0" len="24" vol="5" />
          <note key="46" pos="1476" pan="0" len="24" vol="8" />
          <note key="44" pos="1500" pan="0" len="24" vol="2" />
          <note key="43" pos="1524" pan="0" len="12" vol="2" />
        </pattern>
        <pattern pos="169740" muted="0" steps="16" name="" type="1">
          <note key="60" pos="1536" pan="0" len="192" vol="100" />
        </pattern>
        <pattern pos="208140" muted="0" steps="16" name="" type="1">
          <note key="58" pos="504" pan="0" len="24" vol="100" />
          <note key="57" pos="528" pan="0" len="24" vol="100" />
          <note key="50" pos="552" pan="0" len="216" vol="100" />
          <note key="55" pos="960" pan="0" len="48" vol="100" />
          <note key="58" pos="1008" pan="0" len="72" vol="100" />
          <note key="63" pos="1080" pan="0" len="72" vol="100" />
          <note key="68" pos="1272" pan="0" len="24" vol="100" />
          <note key="67" pos="1296" pan="0" len="24" vol="100" />
          <note key="60" pos="1320" pan="0" len="216" vol="100" />
        </pattern>
        <pattern pos="209676" muted="0" steps="16" name="" type="1">
          <note key="58" pos="504" pan="0" len="24" vol="100" />
          <note key="57" pos="528" pan="0" len="24" vol="100" />
          <note key="50" pos="552" pan="0" len="216" vol="100" />
          <note key="55" pos="960" pan="0" len="48" vol="100" />
          <note key="58" pos="1008" pan="0" len="72" vol="100" />
          <note key="63" pos="1080" pan="0" len="72" vol="100" />
          <note key="68" pos="1272" pan="0" len="24" vol="100" />
          <note key="67" pos="1296" pan="0" len="24" vol="100" />
          <note key="60" pos="1320" pan="0" len="216" vol="100" />
        </pattern>
        <pattern pos="215820" muted="0" steps="16" name="" type="1">
          <note key="58" pos="504" pan="0" len="24" vol="100" />
          <note key="57" pos="528" pan="0" len="24" vol="100" />
          <note key="50" pos="552" pan="0" len="216" vol="100" />
          <note key="55" pos="960" pan="0" len="48" vol="100" />
          <note key="58" pos="1008" pan="0" len="72" vol="100" />
          <note key="63" pos="1080" pan="0" len="72" vol="100" />
          <note key="68" pos="1272" pan="0" len="24" vol="100" />
          <note key="67" pos="1296" pan="0" len="24" vol="100" />
          <note key="60" pos="1320" pan="0" len="216" vol="100" />
        </pattern>
      </track>
      <track solo="0" name="9 (Ch13)" type="0" muted="0">
        <instrumenttrack usemasterpitch="1" pitch="0.0" basenote="57" pan="0" pitchrange="12" vol="30">
          <eldata />
          <instrument name="tripleoscillator" />
        </instrumenttrack>
        <pattern pos="217356" muted="0" steps="16" name="" type="1">
          <note key="70" pos="504" pan="0" len="24" vol="100" />
          <note key="69" pos="528" pan="0" len="24" vol="100" />
          <note key="62" pos="552" pan="0" len="36" vol="100" />
          <note key="67" pos="960" pan="0" len="48" vol="100" />
          <note key="70" pos="1008" pan="0" len="72" vol="100" />
          <note key="51" pos="1080" pan="0" len="72" vol="100" />
        </pattern>
        <pattern pos="6144" muted="0" steps="16" name="" type="1">
          <note key="65" pos="96" pan="0" len="24" vol="100" />
          <note key="63" pos="120" pan="0" len="24" vol="100" />
          <note key="65" pos="144" pan="0" len="144" vol="100" />
          <note key="65" pos="288" pan="0" len="24" vol="100" />
          <note key="60" pos="312" pan="0" len="24" vol="100" />
          <note key="63" pos="336" pan="0" len="144" vol="100" />
          <note key="67" pos="480" pan="0" len="24" vol="100" />
          <note key="65" pos="504" pan="0" len="24" vol="100" />
          <note key="67" pos="528" pan="0" len="144" vol="100" />
          <note key="70" pos="672" pan="0" len="24" vol="100" />
          <note key="68" pos="696" pan="0" len="24" vol="100" />
          <note key="70" pos="720" pan="0" len="48" vol="100" />
          <note key="65" pos="864" pan="0" len="24" vol="100" />
          <note key="63" pos="888" pan="0" len="24" vol="100" />
          <note key="65" pos="912" pan="0" len="144" vol="100" />
          <note key="65" pos="1056" pan="0" len="24" vol="100" />
          <note key="60" pos="1080" pan="0" len="24" vol="100" />
          <note key="63" pos="1104" pan="0" len="144" vol="100" />
          <note key="67" pos="1248" pan="0" len="24" vol="100" />
          <note key="65" pos="1272" pan="0" len="24" vol="100" />
          <note key="67" pos="1296" pan="0" len="144" vol="100" />
          <note key="70" pos="1440" pan="0" len="24" vol="100" />
          <note key="68" pos="1464" pan="0" len="24" vol="100" />
          <note key="70" pos="1488" pan="0" len="48" vol="100" />
        </pattern>
        <pattern pos="157452" muted="0" steps="16" name="" type="1">
          <note key="44" pos="0" pan="0" len="24" vol="70" />
          <note key="43" pos="24" pan="0" len="24" vol="33" />
          <note key="46" pos="48" pan="0" len="24" vol="70" />
          <note key="43" pos="72" pan="0" len="24" vol="44" />
          <note key="49" pos="96" pan="0" len="24" vol="55" />
          <note key="51" pos="120" pan="0" len="24" vol="70" />
          <note key="56" pos="144" pan="0" len="24" vol="70" />
          <note key="55" pos="168" pan="0" len="24" vol="33" />
          <note key="37" pos="192" pan="0" len="24" vol="70" />
          <note key="53" pos="216" pan="0" len="24" vol="33" />
          <note key="55" pos="240" pan="0" len="24" vol="44" />
          <note key="58" pos="264" pan="0" len="24" vol="70" />
          <note key="41" pos="288" pan="0" len="24" vol="70" />
          <note key="44" pos="312" pan="0" len="24" vol="44" />
          <note key="51" pos="336" pan="0" len="24" vol="70" />
          <note key="46" pos="360" pan="0" len="24" vol="70" />
          <note key="44" pos="384" pan="0" len="24" vol="70" />
          <note key="43" pos="408" pan="0" len="24" vol="33" />
          <note key="46" pos="432" pan="0" len="24" vol="70" />
          <note key="43" pos="456" pan="0" len="24" vol="44" />
          <note key="49" pos="480" pan="0" len="24" vol="55" />
          <note key="51" pos="504" pan="0" len="24" vol="70" />
          <note key="56" pos="528" pan="0" len="24" vol="70" />
          <note key="55" pos="552" pan="0" len="24" vol="33" />
          <note key="37" pos="576" pan="0" len="24" vol="70" />
          <note key="53" pos="600" pan="0" len="24" vol="33" />
          <note key="55" pos="624" pan="0" len="24" vol="44" />
          <note key="58" pos="648" pan="0" len="24" vol="70" />
          <note key="41" pos="672" pan="0" len="24" vol="70" />
          <note key="44" pos="696" pan="0" len="24" vol="44" />
          <note key="51" pos="720" pan="0" len="24" vol="70" />
          <note key="46" pos="744" pan="0" len="24" vol="70" />
          <note key="44" pos="768" pan="0" len="24" vol="70" />
          <note key="43" pos="792" pan="0" len="24" vol="33" />
          <note key="46" pos="816" pan="0" len="24" vol="70" />
          <note key="43" pos="840" pan="0" len="24" vol="44" />
          <note key="49" pos="864" pan="0" len="24" vol="55" />
          <note key="51" pos="888" pan="0" len="24" vol="70" />
          <note key="56" pos="912" pan="0" len="24" vol="70" />
          <note key="55" pos="936" pan="0" len="24" vol="33" />
          <note key="37" pos="960" pan="0" len="24" vol="70" />
          <note key="53" pos="984" pan="0" len="24" vol="33" />
          <note key="55" pos="1008" pan="0" len="24" vol="44" />
          <note key="58" pos="1032" pan="0" len="24" vol="70" />
          <note key="41" pos="1056" pan="0" len="24" vol="70" />
          <note key="44" pos="1080" pan="0" len="24" vol="44" />
          <note key="51" pos="1104" pan="0" len="24" vol="70" />
          <note key="46" pos="1128" pan="0" len="24" vol="70" />
          <note key="44" pos="1152" pan="0" len="24" vol="70" />
          <note key="43" pos="1176" pan="0" len="24" vol="31" />
          <note key="46" pos="1200" pan="0" len="24" vol="61" />
          <note key="43" pos="1224" pan="0" len="24" vol="36" />
          <note key="49" pos="1248" pan="0" len="24" vol="41" />
          <note key="51" pos="1272" pan="0" len="24" vol="48" />
          <note key="56" pos="1296" pan="0" len="24" vol="44" />
          <note key="55" pos="1320" pan="0" len="24" vol="19" />
          <note key="37" pos="1344" pan="0" len="24" vol="36" />
          <note key="53" pos="1368" pan="0" len="24" vol="14" />
          <note key="55" pos="1392" pan="0" len="24" vol="17" />
          <note key="58" pos="1416" pan="0" len="24" vol="22" />
          <note key="41" pos="1440" pan="0" len="24" vol="17" />
          <note key="44" pos="1464" pan="0" len="24" vol="8" />
          <note key="51" pos="1488" pan="0" len="24" vol="9" />
          <note key="46" pos="1512" pan="0" len="24" vol="5" />
        </pattern>
        <pattern pos="208140" muted="0" steps="16" name="" type="1">
          <note key="70" pos="504" pan="0" len="24" vol="100" />
          <note key="69" pos="528" pan="0" len="24" vol="100" />
          <note key="62" pos="552" pan="0" len="36" vol="100" />
          <note key="67" pos="960" pan="0" len="48" vol="100" />
          <note key="70" pos="1008" pan="0" len="72" vol="100" />
          <note key="51" pos="1080" pan="0" len="72" vol="100" />
        </pattern>
        <pattern pos="209676" muted="0" steps="16" name="" type="1">
          <note key="70" pos="504" pan="0" len="24" vol="100" />
          <note key="69" pos="528" pan="0" len="24" vol="100" />
          <note key="62" pos="552" pan="0" len="36" vol="100" />
          <note key="67" pos="960" pan="0" len="48" vol="100" />
          <note key="70" pos="1008" pan="0" len="72" vol="100" />
          <note key="51" pos="1080" pan="0" len="72" vol="100" />
        </pattern>
        <pattern pos="215820" muted="0" steps="16" name="" type="1">
          <note key="70" pos="504" pan="0" len="24" vol="100" />
          <note key="69" pos="528" pan="0" len="24" vol="100" />
          <note key="62" pos="552" pan="0" len="36" vol="100" />
          <note key="67" pos="960" pan="0" len="48" vol="100" />
          <note key="70" pos="1008" pan="0" len="72" vol="100" />
          <note key="51" pos="1080" pan="0" len="72" vol="100" />
        </pattern>
      </track>
      <track solo="0" name="9 (Ch14)" type="0" muted="0">
        <instrumenttrack usemasterpitch="1" pitch="0.0" basenote="57" pan="0" pitchrange="12" vol="30">
          <eldata />
          <instrument name="tripleoscillator" />
        </instrumenttrack>
        <pattern pos="157452" muted="0" steps="16" name="" type="1">
          <note key="44" pos="36" pan="0" len="24" vol="70" />
          <note key="43" pos="60" pan="0" len="24" vol="33" />
          <note key="46" pos="84" pan="0" len="24" vol="70" />
          <note key="43" pos="108" pan="0" len="24" vol="44" />
          <note key="49" pos="132" pan="0" len="24" vol="55" />
          <note key="51" pos="156" pan="0" len="24" vol="70" />
          <note key="56" pos="180" pan="0" len="24" vol="70" />
          <note key="55" pos="204" pan="0" len="24" vol="33" />
          <note key="37" pos="228" pan="0" len="24" vol="70" />
          <note key="53" pos="252" pan="0" len="24" vol="33" />
          <note key="55" pos="276" pan="0" len="24" vol="44" />
          <note key="58" pos="300" pan="0" len="24" vol="70" />
          <note key="41" pos="324" pan="0" len="24" vol="70" />
          <note key="44" pos="348" pan="0" len="24" vol="44" />
          <note key="51" pos="372" pan="0" len="48" vol="70" />
          <note key="44" pos="420" pan="0" len="24" vol="70" />
          <note key="43" pos="444" pan="0" len="24" vol="33" />
          <note key="46" pos="468" pan="0" len="24" vol="70" />
          <note key="43" pos="492" pan="0" len="24" vol="44" />
          <note key="49" pos="516" pan="0" len="24" vol="55" />
          <note key="51" pos="540" pan="0" len="24" vol="70" />
          <note key="56" pos="564" pan="0" len="24" vol="70" />
          <note key="55" pos="588" pan="0" len="24" vol="33" />
          <note key="37" pos="612" pan="0" len="24" vol="70" />
          <note key="53" pos="636" pan="0" len="24" vol="33" />
          <note key="55" pos="660" pan="0" len="24" vol="44" />
          <note key="58" pos="684" pan="0" len="24" vol="70" />
          <note key="41" pos="708" pan="0" len="24" vol="70" />
          <note key="44" pos="732" pan="0" len="24" vol="44" />
          <note key="51" pos="756" pan="0" len="48" vol="70" />
          <note key="44" pos="804" pan="0" len="24" vol="70" />
          <note key="43" pos="828" pan="0" len="24" vol="33" />
          <note key="46" pos="852" pan="0" len="24" vol="70" />
          <note key="43" pos="876" pan="0" len="24" vol="44" />
          <note key="49" pos="900" pan="0" len="24" vol="55" />
          <note key="51" pos="924" pan="0" len="24" vol="70" />
          <note key="56" pos="948" pan="0" len="24" vol="70" />
          <note key="55" pos="972" pan="0" len="24" vol="33" />
          <note key="37" pos="996" pan="0" len="24" vol="70" />
          <note key="53" pos="1020" pan="0" len="24" vol="33" />
          <note key="55" pos="1044" pan="0" len="24" vol="44" />
          <note key="58" pos="1068" pan="0" len="24" vol="70" />
          <note key="41" pos="1092" pan="0" len="24" vol="70" />
          <note key="44" pos="1116" pan="0" len="24" vol="44" />
          <note key="51" pos="1140" pan="0" len="48" vol="70" />
          <note key="44" pos="1188" pan="0" len="24" vol="64" />
          <note key="43" pos="1212" pan="0" len="24" vol="28" />
          <note key="46" pos="1236" pan="0" len="24" vol="55" />
          <note key="43" pos="1260" pan="0" len="24" vol="31" />
          <note key="49" pos="1284" pan="0" len="24" vol="36" />
          <note key="51" pos="1308" pan="0" len="24" vol="42" />
          <note key="56" pos="1332" pan="0" len="24" vol="38" />
          <note key="55" pos="1356" pan="0" len="24" vol="16" />
          <note key="37" pos="1380" pan="0" len="24" vol="28" />
          <note key="53" pos="1404" pan="0" len="24" vol="11" />
          <note key="55" pos="1428" pan="0" len="24" vol="12" />
          <note key="58" pos="1452" pan="0" len="24" vol="16" />
          <note key="41" pos="1476" pan="0" len="24" vol="11" />
          <note key="44" pos="1500" pan="0" len="24" vol="5" />
          <note key="51" pos="1524" pan="0" len="12" vol="2" />
        </pattern>
      </track>
      <track solo="0" name="9 (Ch15)" type="0" muted="0">
        <instrumenttrack usemasterpitch="1" pitch="0.0" basenote="57" pan="0" pitchrange="12" vol="30">
          <eldata />
          <instrument name="tripleoscillator" />
        </instrumenttrack>
        <pattern pos="277596" muted="0" steps="16" name="" type="1">
          <note key="39" pos="0" pan="0" len="576" vol="100" />
          <note key="39" pos="576" pan="0" len="1728" vol="100" />
        </pattern>
        <pattern pos="76032" muted="0" steps="16" name="" type="1">
          <note key="65" pos="1116" pan="0" len="36" vol="100" />
          <note key="67" pos="1152" pan="0" len="36" vol="100" />
          <note key="64" pos="1188" pan="0" len="36" vol="100" />
          <note key="65" pos="1224" pan="0" len="36" vol="100" />
          <note key="62" pos="1260" pan="0" len="36" vol="100" />
          <note key="64" pos="1296" pan="0" len="108" vol="100" />
          <note key="65" pos="1404" pan="0" len="36" vol="100" />
          <note key="67" pos="1440" pan="0" len="36" vol="100" />
          <note key="64" pos="1476" pan="0" len="36" vol="100" />
          <note key="65" pos="1512" pan="0" len="36" vol="100" />
          <note key="60" pos="1548" pan="0" len="36" vol="100" />
          <note key="59" pos="1584" pan="0" len="108" vol="100" />
          <note key="69" pos="1692" pan="0" len="36" vol="100" />
          <note key="71" pos="1728" pan="0" len="36" vol="100" />
          <note key="67" pos="1764" pan="0" len="36" vol="100" />
          <note key="69" pos="1800" pan="0" len="36" vol="100" />
          <note key="65" pos="1836" pan="0" len="36" vol="100" />
          <note key="67" pos="1872" pan="0" len="36" vol="100" />
          <note key="64" pos="1908" pan="0" len="36" vol="100" />
          <note key="65" pos="1944" pan="0" len="36" vol="100" />
          <note key="60" pos="1980" pan="0" len="36" vol="100" />
          <note key="62" pos="2016" pan="0" len="288" vol="100" />
        </pattern>
        <pattern pos="87552" muted="0" steps="16" name="" type="1">
          <note key="65" pos="1116" pan="0" len="36" vol="100" />
          <note key="67" pos="1152" pan="0" len="36" vol="100" />
          <note key="64" pos="1188" pan="0" len="36" vol="100" />
          <note key="65" pos="1224" pan="0" len="36" vol="100" />
          <note key="62" pos="1260" pan="0" len="36" vol="100" />
          <note key="64" pos="1296" pan="0" len="108" vol="100" />
          <note key="65" pos="1404" pan="0" len="36" vol="100" />
          <note key="67" pos="1440" pan="0" len="36" vol="100" />
          <note key="64" pos="1476" pan="0" len="36" vol="100" />
          <note key="65" pos="1512" pan="0" len="36" vol="100" />
          <note key="60" pos="1548" pan="0" len="36" vol="100" />
          <note key="59" pos="1584" pan="0" len="108" vol="100" />
          <note key="69" pos="1692" pan="0" len="36" vol="100" />
          <note key="71" pos="1728" pan="0" len="36" vol="100" />
          <note key="67" pos="1764" pan="0" len="36" vol="100" />
          <note key="69" pos="1800" pan="0" len="36" vol="100" />
          <note key="65" pos="1836" pan="0" len="36" vol="100" />
          <note key="67" pos="1872" pan="0" len="36" vol="100" />
          <note key="64" pos="1908" pan="0" len="36" vol="100" />
          <note key="65" pos="1944" pan="0" len="36" vol="100" />
          <note key="60" pos="1980" pan="0" len="36" vol="100" />
          <note key="62" pos="2016" pan="0" len="288" vol="100" />
        </pattern>
        <pattern pos="149004" muted="0" steps="16" name="" type="1">
          <note key="44" pos="0" pan="0" len="12" vol="100" />
          <note key="51" pos="24" pan="0" len="12" vol="100" />
          <note key="49" pos="48" pan="0" len="12" vol="100" />
          <note key="54" pos="72" pan="0" len="12" vol="100" />
          <note key="51" pos="96" pan="0" len="12" vol="100" />
          <note key="58" pos="120" pan="0" len="12" vol="100" />
          <note key="56" pos="144" pan="0" len="12" vol="100" />
          <note key="61" pos="168" pan="0" len="12" vol="100" />
          <note key="44" pos="192" pan="0" len="12" vol="100" />
          <note key="51" pos="216" pan="0" len="12" vol="100" />
          <note key="49" pos="240" pan="0" len="12" vol="100" />
          <note key="54" pos="264" pan="0" len="12" vol="100" />
          <note key="51" pos="288" pan="0" len="12" vol="100" />
          <note key="58" pos="312" pan="0" len="12" vol="100" />
          <note key="56" pos="336" pan="0" len="12" vol="100" />
          <note key="63" pos="360" pan="0" len="12" vol="100" />
          <note key="47" pos="384" pan="0" len="12" vol="100" />
          <note key="54" pos="408" pan="0" len="12" vol="100" />
          <note key="50" pos="432" pan="0" len="12" vol="100" />
          <note key="57" pos="456" pan="0" len="12" vol="100" />
          <note key="54" pos="480" pan="0" len="12" vol="100" />
          <note key="61" pos="504" pan="0" len="12" vol="100" />
          <note key="57" pos="528" pan="0" len="12" vol="100" />
          <note key="64" pos="552" pan="0" len="12" vol="100" />
          <note key="50" pos="576" pan="0" len="12" vol="100" />
          <note key="57" pos="600" pan="0" len="12" vol="100" />
          <note key="54" pos="624" pan="0" len="12" vol="100" />
          <note key="62" pos="648" pan="0" len="12" vol="100" />
          <note key="57" pos="672" pan="0" len="12" vol="100" />
          <note key="64" pos="696" pan="0" len="12" vol="100" />
          <note key="62" pos="720" pan="0" len="12" vol="100" />
          <note key="66" pos="744" pan="0" len="12" vol="100" />
          <note key="64" pos="768" pan="0" len="12" vol="100" />
          <note key="57" pos="792" pan="0" len="12" vol="100" />
          <note key="59" pos="816" pan="0" len="12" vol="100" />
          <note key="54" pos="840" pan="0" len="12" vol="100" />
          <note key="57" pos="864" pan="0" len="12" vol="100" />
          <note key="52" pos="888" pan="0" len="12" vol="100" />
          <note key="54" pos="912" pan="0" len="12" vol="100" />
          <note key="50" pos="936" pan="0" len="12" vol="100" />
          <note key="52" pos="960" pan="0" len="12" vol="100" />
          <note key="47" pos="984" pan="0" len="12" vol="100" />
          <note key="50" pos="1008" pan="0" len="12" vol="100" />
          <note key="45" pos="1032" pan="0" len="12" vol="100" />
          <note key="47" pos="1056" pan="0" len="12" vol="100" />
          <note key="42" pos="1080" pan="0" len="12" vol="100" />
          <note key="45" pos="1104" pan="0" len="12" vol="100" />
          <note key="40" pos="1128" pan="0" len="12" vol="100" />
          <note key="52" pos="1152" pan="0" len="12" vol="100" />
          <note key="47" pos="1176" pan="0" len="12" vol="100" />
          <note key="50" pos="1200" pan="0" len="12" vol="100" />
          <note key="45" pos="1224" pan="0" len="12" vol="100" />
          <note key="47" pos="1248" pan="0" len="12" vol="100" />
          <note key="42" pos="1272" pan="0" len="12" vol="100" />
          <note key="45" pos="1296" pan="0" len="12" vol="100" />
          <note key="40" pos="1320" pan="0" len="12" vol="100" />
          <note key="52" pos="1344" pan="0" len="12" vol="100" />
          <note key="47" pos="1368" pan="0" len="12" vol="100" />
          <note key="50" pos="1392" pan="0" len="12" vol="100" />
          <note key="45" pos="1416" pan="0" len="12" vol="100" />
          <note key="54" pos="1440" pan="0" len="12" vol="100" />
          <note key="42" pos="1464" pan="0" len="12" vol="100" />
          <note key="45" pos="1488" pan="0" len="12" vol="100" />
          <note key="40" pos="1512" pan="0" len="12" vol="100" />
        </pattern>
        <pattern pos="205068" muted="0" steps="16" name="" type="1">
          <note key="72" pos="96" pan="0" len="72" vol="34" />
          <note key="74" pos="168" pan="0" len="72" vol="34" />
          <note key="75" pos="240" pan="0" len="72" vol="34" />
          <note key="79" pos="312" pan="0" len="72" vol="34" />
          <note key="82" pos="384" pan="0" len="24" vol="34" />
          <note key="81" pos="408" pan="0" len="24" vol="34" />
          <note key="74" pos="432" pan="0" len="408" vol="34" />
        </pattern>
        <pattern pos="206604" muted="0" steps="16" name="" type="1">
          <note key="72" pos="48" pan="0" len="72" vol="34" />
          <note key="74" pos="120" pan="0" len="72" vol="34" />
          <note key="75" pos="192" pan="0" len="72" vol="34" />
          <note key="79" pos="264" pan="0" len="84" vol="34" />
          <note key="82" pos="384" pan="0" len="24" vol="34" />
          <note key="81" pos="408" pan="0" len="24" vol="34" />
          <note key="74" pos="432" pan="0" len="408" vol="34" />
        </pattern>
        <pattern pos="212748" muted="0" steps="16" name="" type="1">
          <note key="72" pos="96" pan="0" len="72" vol="34" />
          <note key="74" pos="168" pan="0" len="72" vol="34" />
          <note key="75" pos="240" pan="0" len="72" vol="34" />
          <note key="79" pos="312" pan="0" len="72" vol="34" />
          <note key="82" pos="384" pan="0" len="24" vol="34" />
          <note key="81" pos="408" pan="0" len="24" vol="34" />
          <note key="74" pos="432" pan="0" len="312" vol="34" />
        </pattern>
        <pattern pos="214284" muted="0" steps="16" name="" type="1">
          <note key="72" pos="48" pan="0" len="72" vol="100" />
          <note key="74" pos="120" pan="0" len="72" vol="100" />
          <note key="75" pos="192" pan="0" len="72" vol="100" />
          <note key="79" pos="264" pan="0" len="84" vol="100" />
          <note key="82" pos="384" pan="0" len="24" vol="100" />
          <note key="81" pos="408" pan="0" len="24" vol="100" />
          <note key="74" pos="432" pan="0" len="408" vol="100" />
        </pattern>
      </track>
      <track solo="0" name="9 (Ch17)" type="0" muted="0">
        <instrumenttrack usemasterpitch="1" pitch="0.0" basenote="57" pan="0" pitchrange="12" vol="30">
          <eldata />
          <instrument name="tripleoscillator" />
        </instrumenttrack>
        <pattern pos="220428" muted="0" steps="16" name="" type="1">
          <note key="59" pos="312" pan="0" len="24" vol="100" />
          <note key="55" pos="336" pan="0" len="24" vol="100" />
          <note key="50" pos="360" pan="0" len="24" vol="100" />
          <note key="47" pos="384" pan="0" len="72" vol="100" />
        </pattern>
      </track>
      <track solo="0" name="9 (Ch18)" type="0" muted="0">
        <instrumenttrack usemasterpitch="1" pitch="0.0" basenote="57" pan="0" pitchrange="12" vol="30">
          <eldata />
          <instrument name="tripleoscillator" />
        </instrumenttrack>
        <pattern pos="10752" muted="0" steps="16" name="" type="1">
          <note key="65" pos="96" pan="0" len="24" vol="100" />
          <note key="63" pos="120" pan="0" len="24" vol="100" />
          <note key="65" pos="144" pan="0" len="144" vol="100" />
          <note key="65" pos="288" pan="0" len="24" vol="100" />
          <note key="60" pos="312" pan="0" len="24" vol="100" />
          <note key="63" pos="336" pan="0" len="144" vol="100" />
          <note key="67" pos="480" pan="0" len="24" vol="100" />
          <note key="65" pos="504" pan="0" len="24" vol="100" />
          <note key="67" pos="528" pan="0" len="144" vol="100" />
          <note key="70" pos="672" pan="0" len="24" vol="100" />
          <note key="68" pos="696" pan="0" len="24" vol="100" />
          <note key="70" pos="720" pan="0" len="48" vol="100" />
          <note key="65" pos="864" pan="0" len="24" vol="100" />
          <note key="63" pos="888" pan="0" len="24" vol="100" />
          <note key="65" pos="912" pan="0" len="144" vol="100" />
          <note key="65" pos="1056" pan="0" len="24" vol="100" />
          <note key="60" pos="1080" pan="0" len="24" vol="100" />
          <note key="63" pos="1104" pan="0" len="144" vol="100" />
          <note key="67" pos="1248" pan="0" len="24" vol="100" />
          <note key="65" pos="1272" pan="0" len="24" vol="100" />
          <note key="67" pos="1296" pan="0" len="144" vol="100" />
          <note key="70" pos="1440" pan="0" len="24" vol="100" />
          <note key="68" pos="1464" pan="0" len="24" vol="100" />
          <note key="70" pos="1488" pan="0" len="48" vol="100" />
        </pattern>
      </track>
      <track solo="0" name="10 (Ch1)" type="0" muted="0">
        <instrumenttrack usemasterpitch="1" pitch="0.0" basenote="57" pan="0" pitchrange="12" vol="30">
          <eldata />
          <instrument name="tripleoscillator" />
        </instrumenttrack>
        <pattern pos="169740" muted="0" steps="16" name="" type="1">
          <note key="65" pos="1920" pan="0" len="96" vol="100" />
          <note key="64" pos="2016" pan="0" len="96" vol="100" />
        </pattern>
      </track>
      <track solo="0" name="10 (Ch2)" type="0" muted="0">
        <instrumenttrack usemasterpitch="1" pitch="0.0" basenote="57" pan="0" pitchrange="12" vol="30">
          <eldata />
          <instrument name="tripleoscillator" />
        </instrumenttrack>
        <pattern pos="104448" muted="0" steps="16" name="" type="1">
          <note key="52" pos="816" pan="0" len="48" vol="100" />
          <note key="53" pos="864" pan="0" len="48" vol="100" />
          <note key="55" pos="912" pan="0" len="48" vol="100" />
          <note key="60" pos="960" pan="0" len="96" vol="100" />
          <note key="64" pos="1056" pan="0" len="96" vol="100" />
          <note key="53" pos="1152" pan="0" len="192" vol="100" />
          <note key="62" pos="1344" pan="0" len="192" vol="100" />
        </pattern>
        <pattern pos="101376" muted="0" steps="16" name="" type="1">
          <note key="52" pos="816" pan="0" len="48" vol="100" />
          <note key="53" pos="864" pan="0" len="48" vol="100" />
          <note key="55" pos="912" pan="0" len="48" vol="100" />
          <note key="60" pos="960" pan="0" len="96" vol="100" />
          <note key="64" pos="1056" pan="0" len="96" vol="100" />
          <note key="53" pos="1152" pan="0" len="192" vol="100" />
          <note key="62" pos="1344" pan="0" len="192" vol="100" />
        </pattern>
      </track>
      <track solo="0" name="10 (Ch3)" type="0" muted="0">
        <instrumenttrack usemasterpitch="1" pitch="0.0" basenote="57" pan="0" pitchrange="12" vol="30">
          <eldata />
          <instrument name="tripleoscillator" />
        </instrumenttrack>
        <pattern pos="142860" muted="0" steps="16" name="" type="1">
          <note key="62" pos="720" pan="0" len="48" vol="50" />
          <note key="67" pos="768" pan="0" len="72" vol="100" />
          <note key="65" pos="864" pan="0" len="84" vol="100" />
          <note key="58" pos="960" pan="0" len="96" vol="100" />
          <note key="57" pos="1056" pan="0" len="96" vol="100" />
          <note key="55" pos="1152" pan="0" len="24" vol="100" />
          <note key="53" pos="1176" pan="0" len="24" vol="100" />
          <note key="55" pos="1200" pan="0" len="336" vol="100" />
        </pattern>
        <pattern pos="136716" muted="0" steps="16" name="" type="1">
          <note key="62" pos="720" pan="0" len="48" vol="50" />
          <note key="67" pos="768" pan="0" len="72" vol="100" />
          <note key="65" pos="864" pan="0" len="84" vol="100" />
          <note key="58" pos="960" pan="0" len="96" vol="100" />
          <note key="57" pos="1056" pan="0" len="96" vol="100" />
          <note key="55" pos="1152" pan="0" len="24" vol="100" />
          <note key="53" pos="1176" pan="0" len="24" vol="100" />
          <note key="55" pos="1200" pan="0" len="336" vol="100" />
        </pattern>
        <pattern pos="138252" muted="0" steps="16" name="" type="1">
          <note key="69" pos="72" pan="0" len="96" vol="100" />
          <note key="65" pos="192" pan="0" len="216" vol="100" />
          <note key="70" pos="576" pan="0" len="96" vol="100" />
          <note key="67" pos="960" pan="0" len="96" vol="100" />
          <note key="63" pos="1344" pan="0" len="192" vol="100" />
        </pattern>
      </track>
      <track solo="0" name="10 (Ch4)" type="0" muted="0">
        <instrumenttrack usemasterpitch="1" pitch="0.0" basenote="57" pan="0" pitchrange="12" vol="30">
          <eldata />
          <instrument name="tripleoscillator" />
        </instrumenttrack>
        <pattern pos="55296" muted="0" steps="16" name="" type="1">
          <note key="57" pos="288" pan="0" len="96" vol="100" />
          <note key="60" pos="384" pan="0" len="48" vol="100" />
          <note key="59" pos="432" pan="0" len="24" vol="100" />
          <note key="60" pos="456" pan="0" len="24" vol="100" />
          <note key="57" pos="480" pan="0" len="96" vol="100" />
          <note key="55" pos="576" pan="0" len="48" vol="100" />
          <note key="57" pos="624" pan="0" len="24" vol="100" />
          <note key="59" pos="648" pan="0" len="24" vol="100" />
          <note key="57" pos="672" pan="0" len="96" vol="100" />
          <note key="60" pos="768" pan="0" len="48" vol="100" />
          <note key="62" pos="816" pan="0" len="36" vol="100" />
          <note key="60" pos="852" pan="0" len="12" vol="34" />
          <note key="57" pos="864" pan="0" len="96" vol="100" />
          <note key="57" pos="960" pan="0" len="48" vol="100" />
          <note key="59" pos="1008" pan="0" len="48" vol="100" />
          <note key="62" pos="1056" pan="0" len="96" vol="100" />
        </pattern>
      </track>
      <track solo="0" name="10 (Ch5)" type="0" muted="0">
        <instrumenttrack usemasterpitch="1" pitch="0.0" basenote="57" pan="0" pitchrange="12" vol="30">
          <eldata />
          <instrument name="tripleoscillator" />
        </instrumenttrack>
        <pattern pos="19968" muted="0" steps="16" name="" type="1">
          <note key="51" pos="0" pan="0" len="168" vol="100" />
          <note key="53" pos="168" pan="0" len="24" vol="100" />
          <note key="55" pos="192" pan="0" len="24" vol="100" />
          <note key="58" pos="216" pan="0" len="48" vol="100" />
          <note key="62" pos="264" pan="0" len="48" vol="100" />
          <note key="58" pos="312" pan="0" len="48" vol="100" />
          <note key="60" pos="360" pan="0" len="144" vol="100" />
          <note key="46" pos="744" pan="0" len="24" vol="100" />
          <note key="51" pos="768" pan="0" len="168" vol="100" />
          <note key="55" pos="936" pan="0" len="24" vol="100" />
          <note key="53" pos="960" pan="0" len="24" vol="100" />
          <note key="51" pos="984" pan="0" len="48" vol="100" />
          <note key="53" pos="1032" pan="0" len="48" vol="100" />
          <note key="55" pos="1080" pan="0" len="24" vol="100" />
          <note key="51" pos="1104" pan="0" len="48" vol="100" />
          <note key="48" pos="1152" pan="0" len="120" vol="100" />
        </pattern>
        <pattern pos="4608" muted="0" steps="16" name="" type="1">
          <note key="63" pos="0" pan="0" len="48" vol="100" />
          <note key="67" pos="48" pan="0" len="144" vol="100" />
          <note key="72" pos="192" pan="0" len="192" vol="100" />
          <note key="70" pos="384" pan="0" len="48" vol="100" />
          <note key="62" pos="432" pan="0" len="48" vol="100" />
          <note key="63" pos="480" pan="0" len="144" vol="100" />
          <note key="63" pos="768" pan="0" len="48" vol="100" />
          <note key="67" pos="816" pan="0" len="144" vol="100" />
          <note key="72" pos="960" pan="0" len="168" vol="100" />
          <note key="70" pos="1128" pan="0" len="12" vol="17" />
          <note key="72" pos="1140" pan="0" len="12" vol="52" />
          <note key="70" pos="1152" pan="0" len="48" vol="100" />
          <note key="62" pos="1200" pan="0" len="48" vol="100" />
          <note key="63" pos="1248" pan="0" len="96" vol="100" />
          <note key="74" pos="1344" pan="0" len="48" vol="100" />
          <note key="65" pos="1392" pan="0" len="48" vol="100" />
          <note key="67" pos="1440" pan="0" len="48" vol="100" />
          <note key="70" pos="1488" pan="0" len="48" vol="100" />
        </pattern>
        <pattern pos="7680" muted="0" steps="16" name="" type="1">
          <note key="63" pos="1824" pan="0" len="48" vol="100" />
          <note key="65" pos="1872" pan="0" len="48" vol="100" />
          <note key="62" pos="1920" pan="0" len="144" vol="100" />
          <note key="58" pos="2064" pan="0" len="48" vol="100" />
          <note key="55" pos="2112" pan="0" len="96" vol="100" />
        </pattern>
        <pattern pos="15360" muted="0" steps="16" name="" type="1">
          <note key="63" pos="792" pan="0" len="24" vol="100" />
          <note key="67" pos="816" pan="0" len="48" vol="100" />
          <note key="67" pos="864" pan="0" len="24" vol="100" />
          <note key="63" pos="888" pan="0" len="48" vol="100" />
          <note key="60" pos="936" pan="0" len="120" vol="100" />
          <note key="63" pos="1176" pan="0" len="24" vol="100" />
          <note key="67" pos="1200" pan="0" len="48" vol="100" />
          <note key="67" pos="1248" pan="0" len="24" vol="100" />
          <note key="63" pos="1272" pan="0" len="48" vol="100" />
          <note key="67" pos="1320" pan="0" len="48" vol="100" />
        </pattern>
      </track>
      <track solo="0" name="10 (Ch6)" type="0" muted="0">
        <instrumenttrack usemasterpitch="1" pitch="0.0" basenote="57" pan="0" pitchrange="12" vol="30">
          <eldata />
          <instrument name="tripleoscillator" />
        </instrumenttrack>
        <pattern pos="12288" muted="0" steps="16" name="" type="1">
          <note key="51" pos="1536" pan="0" len="12" vol="100" />
          <note key="50" pos="1548" pan="0" len="12" vol="100" />
          <note key="51" pos="1560" pan="0" len="120" vol="100" />
          <note key="50" pos="1680" pan="0" len="24" vol="100" />
          <note key="51" pos="1704" pan="0" len="24" vol="100" />
          <note key="53" pos="1728" pan="0" len="144" vol="100" />
          <note key="46" pos="1872" pan="0" len="48" vol="100" />
          <note key="55" pos="1920" pan="0" len="144" vol="100" />
          <note key="58" pos="2064" pan="0" len="48" vol="100" />
          <note key="53" pos="2112" pan="0" len="144" vol="100" />
          <note key="51" pos="2256" pan="0" len="24" vol="100" />
          <note key="50" pos="2280" pan="0" len="24" vol="100" />
          <note key="48" pos="2304" pan="0" len="144" vol="100" />
          <note key="50" pos="2448" pan="0" len="48" vol="100" />
          <note key="46" pos="2496" pan="0" len="72" vol="100" />
          <note key="43" pos="2568" pan="0" len="72" vol="100" />
          <note key="46" pos="2640" pan="0" len="48" vol="100" />
          <note key="48" pos="2688" pan="0" len="384" vol="100" />
        </pattern>
      </track>
      <track solo="0" name="10 (Ch7)" type="0" muted="0">
        <instrumenttrack usemasterpitch="1" pitch="0.0" basenote="57" pan="0" pitchrange="12" vol="30">
          <eldata />
          <instrument name="tripleoscillator" />
        </instrumenttrack>
        <pattern pos="95232" muted="0" steps="16" name="" type="1">
          <note key="62" pos="0" pan="0" len="192" vol="100" />
          <note key="69" pos="192" pan="0" len="96" vol="100" />
          <note key="67" pos="288" pan="0" len="12" vol="100" />
          <note key="69" pos="300" pan="0" len="12" vol="100" />
          <note key="67" pos="312" pan="0" len="360" vol="100" />
          <note key="65" pos="672" pan="0" len="48" vol="100" />
          <note key="64" pos="720" pan="0" len="48" vol="100" />
          <note key="64" pos="768" pan="0" len="96" vol="100" />
          <note key="65" pos="864" pan="0" len="96" vol="100" />
          <note key="67" pos="960" pan="0" len="96" vol="100" />
          <note key="60" pos="1056" pan="0" len="384" vol="100" />
          <note key="57" pos="1440" pan="0" len="48" vol="100" />
          <note key="55" pos="1488" pan="0" len="48" vol="100" />
          <note key="57" pos="1536" pan="0" len="48" vol="100" />
          <note key="50" pos="1584" pan="0" len="48" vol="100" />
          <note key="60" pos="1824" pan="0" len="288" vol="100" />
          <note key="48" pos="2112" pan="0" len="48" vol="100" />
          <note key="53" pos="2160" pan="0" len="48" vol="31" />
          <note key="55" pos="2208" pan="0" len="48" vol="47" />
          <note key="60" pos="2256" pan="0" len="48" vol="100" />
        </pattern>
        <pattern pos="7680" muted="0" steps="16" name="" type="1">
          <note key="51" pos="2304" pan="0" len="12" vol="100" />
          <note key="50" pos="2316" pan="0" len="12" vol="100" />
          <note key="51" pos="2328" pan="0" len="120" vol="100" />
          <note key="53" pos="2448" pan="0" len="48" vol="100" />
          <note key="50" pos="2496" pan="0" len="96" vol="100" />
          <note key="46" pos="2592" pan="0" len="48" vol="100" />
          <note key="43" pos="2640" pan="0" len="48" vol="100" />
          <note key="48" pos="2688" pan="0" len="384" vol="100" />
        </pattern>
      </track>
      <track solo="0" name="10 (Ch9)" type="0" muted="0">
        <instrumenttrack usemasterpitch="1" pitch="0.0" basenote="57" pan="0" pitchrange="12" vol="30">
          <eldata />
          <instrument name="tripleoscillator" />
        </instrumenttrack>
        <pattern pos="274140" muted="0" steps="16" name="" type="1">
          <note key="44" pos="0" pan="0" len="12" vol="100" />
          <note key="39" pos="24" pan="0" len="12" vol="100" />
          <note key="44" pos="36" pan="0" len="12" vol="100" />
          <note key="47" pos="48" pan="0" len="12" vol="100" />
          <note key="51" pos="60" pan="0" len="12" vol="100" />
          <note key="49" pos="72" pan="0" len="36" vol="100" />
          <note key="46" pos="108" pan="0" len="12" vol="100" />
          <note key="42" pos="132" pan="0" len="12" vol="100" />
          <note key="47" pos="144" pan="0" len="12" vol="100" />
          <note key="42" pos="168" pan="0" len="12" vol="100" />
          <note key="47" pos="180" pan="0" len="12" vol="100" />
          <note key="51" pos="192" pan="0" len="12" vol="100" />
          <note key="54" pos="204" pan="0" len="12" vol="100" />
          <note key="53" pos="216" pan="0" len="36" vol="100" />
          <note key="49" pos="252" pan="0" len="24" vol="100" />
          <note key="44" pos="276" pan="0" len="12" vol="100" />
          <note key="52" pos="288" pan="0" len="12" vol="100" />
          <note key="47" pos="312" pan="0" len="12" vol="100" />
          <note key="52" pos="324" pan="0" len="12" vol="100" />
          <note key="56" pos="336" pan="0" len="12" vol="100" />
          <note key="59" pos="348" pan="0" len="12" vol="100" />
          <note key="58" pos="360" pan="0" len="36" vol="100" />
          <note key="54" pos="396" pan="0" len="12" vol="100" />
          <note key="58" pos="420" pan="0" len="12" vol="100" />
          <note key="59" pos="432" pan="0" len="12" vol="100" />
          <note key="56" pos="444" pan="0" len="12" vol="100" />
          <note key="51" pos="456" pan="0" len="12" vol="100" />
          <note key="47" pos="468" pan="0" len="12" vol="100" />
          <note key="46" pos="480" pan="0" len="12" vol="100" />
          <note key="44" pos="492" pan="0" len="12" vol="100" />
          <note key="56" pos="504" pan="0" len="12" vol="100" />
        </pattern>
      </track>
      <track solo="0" name="10 (Ch11)" type="0" muted="0">
        <instrumenttrack usemasterpitch="1" pitch="0.0" basenote="57" pan="0" pitchrange="12" vol="30">
          <eldata />
          <instrument name="tripleoscillator" />
        </instrumenttrack>
        <pattern pos="268812" muted="0" steps="16" name="" type="1">
          <note key="51" pos="0" pan="0" len="12" vol="100" />
          <note key="46" pos="24" pan="0" len="12" vol="100" />
          <note key="51" pos="36" pan="0" len="12" vol="100" />
          <note key="54" pos="48" pan="0" len="12" vol="100" />
          <note key="58" pos="60" pan="0" len="12" vol="100" />
          <note key="56" pos="72" pan="0" len="36" vol="100" />
          <note key="53" pos="108" pan="0" len="12" vol="100" />
          <note key="49" pos="132" pan="0" len="12" vol="100" />
          <note key="54" pos="144" pan="0" len="12" vol="100" />
          <note key="49" pos="168" pan="0" len="12" vol="100" />
          <note key="54" pos="180" pan="0" len="12" vol="100" />
          <note key="58" pos="192" pan="0" len="12" vol="100" />
          <note key="61" pos="204" pan="0" len="12" vol="100" />
          <note key="60" pos="216" pan="0" len="36" vol="100" />
          <note key="56" pos="252" pan="0" len="24" vol="100" />
          <note key="51" pos="276" pan="0" len="12" vol="100" />
          <note key="59" pos="288" pan="0" len="12" vol="100" />
          <note key="54" pos="312" pan="0" len="12" vol="100" />
          <note key="59" pos="324" pan="0" len="12" vol="100" />
          <note key="63" pos="336" pan="0" len="12" vol="100" />
          <note key="66" pos="348" pan="0" len="12" vol="100" />
          <note key="65" pos="360" pan="0" len="36" vol="100" />
          <note key="61" pos="396" pan="0" len="12" vol="100" />
          <note key="65" pos="420" pan="0" len="12" vol="100" />
          <note key="66" pos="432" pan="0" len="12" vol="100" />
          <note key="63" pos="444" pan="0" len="12" vol="100" />
          <note key="58" pos="456" pan="0" len="12" vol="100" />
          <note key="54" pos="468" pan="0" len="12" vol="100" />
          <note key="53" pos="480" pan="0" len="12" vol="100" />
          <note key="51" pos="492" pan="0" len="12" vol="100" />
          <note key="63" pos="504" pan="0" len="12" vol="100" />
        </pattern>
        <pattern pos="97536" muted="0" steps="16" name="" type="1">
          <note key="62" pos="0" pan="0" len="576" vol="100" />
        </pattern>
        <pattern pos="241932" muted="0" steps="16" name="" type="1">
          <note key="34" pos="1152" pan="0" len="24" vol="89" />
          <note key="46" pos="1176" pan="0" len="12" vol="47" />
          <note key="44" pos="1188" pan="0" len="24" vol="89" />
          <note key="46" pos="1212" pan="0" len="24" vol="89" />
          <note key="49" pos="1236" pan="0" len="24" vol="23" />
          <note key="51" pos="1260" pan="0" len="24" vol="89" />
          <note key="53" pos="1284" pan="0" len="24" vol="47" />
          <note key="56" pos="1308" pan="0" len="24" vol="89" />
          <note key="51" pos="1332" pan="0" len="204" vol="89" />
        </pattern>
      </track>
      <track solo="0" name="10 (Ch12)" type="0" muted="0">
        <instrumenttrack usemasterpitch="1" pitch="0.0" basenote="57" pan="0" pitchrange="12" vol="30">
          <eldata />
          <instrument name="tripleoscillator" />
        </instrumenttrack>
        <pattern pos="270540" muted="0" steps="16" name="" type="1">
          <note key="51" pos="576" pan="0" len="12" vol="100" />
          <note key="58" pos="588" pan="0" len="12" vol="100" />
          <note key="63" pos="600" pan="0" len="12" vol="100" />
          <note key="65" pos="612" pan="0" len="24" vol="100" />
          <note key="67" pos="636" pan="0" len="228" vol="100" />
          <note key="68" pos="864" pan="0" len="12" vol="100" />
          <note key="67" pos="876" pan="0" len="12" vol="100" />
          <note key="63" pos="888" pan="0" len="12" vol="100" />
          <note key="61" pos="900" pan="0" len="24" vol="100" />
          <note key="60" pos="924" pan="0" len="48" vol="100" />
          <note key="56" pos="972" pan="0" len="36" vol="100" />
          <note key="63" pos="1008" pan="0" len="144" vol="100" />
        </pattern>
        <pattern pos="208140" muted="0" steps="16" name="" type="1">
          <note key="63" pos="48" pan="0" len="24" vol="100" />
          <note key="58" pos="72" pan="0" len="72" vol="100" />
          <note key="63" pos="144" pan="0" len="144" vol="100" />
          <note key="67" pos="288" pan="0" len="96" vol="100" />
          <note key="70" pos="384" pan="0" len="24" vol="100" />
          <note key="69" pos="408" pan="0" len="24" vol="100" />
          <note key="62" pos="432" pan="0" len="72" vol="100" />
          <note key="63" pos="768" pan="0" len="24" vol="100" />
          <note key="60" pos="792" pan="0" len="72" vol="100" />
          <note key="63" pos="864" pan="0" len="96" vol="100" />
          <note key="60" pos="1200" pan="0" len="72" vol="100" />
        </pattern>
        <pattern pos="209676" muted="0" steps="16" name="" type="1">
          <note key="63" pos="48" pan="0" len="24" vol="100" />
          <note key="58" pos="72" pan="0" len="72" vol="100" />
          <note key="63" pos="144" pan="0" len="144" vol="100" />
          <note key="67" pos="288" pan="0" len="96" vol="100" />
          <note key="70" pos="384" pan="0" len="24" vol="100" />
          <note key="69" pos="408" pan="0" len="24" vol="100" />
          <note key="62" pos="432" pan="0" len="72" vol="100" />
          <note key="63" pos="768" pan="0" len="24" vol="100" />
          <note key="60" pos="792" pan="0" len="72" vol="100" />
          <note key="63" pos="864" pan="0" len="96" vol="100" />
          <note key="60" pos="1200" pan="0" len="72" vol="100" />
        </pattern>
        <pattern pos="215820" muted="0" steps="16" name="" type="1">
          <note key="63" pos="48" pan="0" len="24" vol="100" />
          <note key="58" pos="72" pan="0" len="72" vol="100" />
          <note key="63" pos="144" pan="0" len="144" vol="100" />
          <note key="67" pos="288" pan="0" len="96" vol="100" />
          <note key="70" pos="384" pan="0" len="24" vol="100" />
          <note key="69" pos="408" pan="0" len="24" vol="100" />
          <note key="62" pos="432" pan="0" len="72" vol="100" />
          <note key="63" pos="768" pan="0" len="24" vol="100" />
          <note key="60" pos="792" pan="0" len="72" vol="100" />
          <note key="63" pos="864" pan="0" len="96" vol="100" />
          <note key="60" pos="1200" pan="0" len="72" vol="100" />
        </pattern>
        <pattern pos="217356" muted="0" steps="16" name="" type="1">
          <note key="63" pos="48" pan="0" len="24" vol="100" />
          <note key="58" pos="72" pan="0" len="72" vol="100" />
          <note key="63" pos="144" pan="0" len="144" vol="100" />
          <note key="67" pos="288" pan="0" len="96" vol="100" />
          <note key="70" pos="384" pan="0" len="24" vol="100" />
          <note key="69" pos="408" pan="0" len="24" vol="100" />
          <note key="62" pos="432" pan="0" len="72" vol="100" />
          <note key="63" pos="768" pan="0" len="24" vol="100" />
          <note key="60" pos="792" pan="0" len="72" vol="100" />
          <note key="63" pos="864" pan="0" len="96" vol="100" />
          <note key="60" pos="1200" pan="0" len="72" vol="100" />
        </pattern>
      </track>
      <track solo="0" name="10 (Ch14)" type="0" muted="0">
        <instrumenttrack usemasterpitch="1" pitch="0.0" basenote="57" pan="0" pitchrange="12" vol="30">
          <eldata />
          <instrument name="tripleoscillator" />
        </instrumenttrack>
        <pattern pos="6144" muted="0" steps="16" name="" type="1">
          <note key="77" pos="1392" pan="0" len="12" vol="52" />
          <note key="80" pos="1404" pan="0" len="12" vol="52" />
          <note key="84" pos="1416" pan="0" len="120" vol="52" />
        </pattern>
      </track>
      <track solo="0" name="10 (Ch15)" type="0" muted="0">
        <instrumenttrack usemasterpitch="1" pitch="0.0" basenote="57" pan="0" pitchrange="12" vol="30">
          <eldata />
          <instrument name="tripleoscillator" />
        </instrumenttrack>
        <pattern pos="105984" muted="0" steps="16" name="" type="1">
          <note key="50" pos="0" pan="0" len="48" vol="100" />
          <note key="52" pos="48" pan="0" len="24" vol="47" />
          <note key="53" pos="72" pan="0" len="24" vol="62" />
          <note key="52" pos="96" pan="0" len="48" vol="100" />
          <note key="55" pos="144" pan="0" len="48" vol="47" />
          <note key="60" pos="192" pan="0" len="48" vol="100" />
          <note key="64" pos="240" pan="0" len="48" vol="100" />
          <note key="62" pos="288" pan="0" len="48" vol="47" />
          <note key="57" pos="336" pan="0" len="48" vol="100" />
          <note key="65" pos="384" pan="0" len="192" vol="100" />
          <note key="64" pos="576" pan="0" len="576" vol="100" />
        </pattern>
        <pattern pos="102912" muted="0" steps="16" name="" type="1">
          <note key="50" pos="0" pan="0" len="48" vol="100" />
          <note key="52" pos="48" pan="0" len="24" vol="47" />
          <note key="53" pos="72" pan="0" len="24" vol="62" />
          <note key="52" pos="96" pan="0" len="48" vol="100" />
          <note key="55" pos="144" pan="0" len="48" vol="47" />
          <note key="60" pos="192" pan="0" len="48" vol="100" />
          <note key="64" pos="240" pan="0" len="48" vol="100" />
          <note key="62" pos="288" pan="0" len="48" vol="47" />
          <note key="57" pos="336" pan="0" len="48" vol="100" />
          <note key="65" pos="384" pan="0" len="192" vol="100" />
          <note key="64" pos="576" pan="0" len="576" vol="100" />
        </pattern>
      </track>
      <track solo="0" name="10 (Ch16)" type="0" muted="0">
        <instrumenttrack usemasterpitch="1" pitch="0.0" basenote="57" pan="0" pitchrange="12" vol="30">
          <eldata />
          <instrument name="tripleoscillator" />
        </instrumenttrack>
        <pattern pos="149004" muted="0" steps="16" name="" type="1">
          <note key="59" pos="384" pan="0" len="12" vol="100" />
          <note key="52" pos="396" pan="0" len="12" vol="31" />
          <note key="50" pos="408" pan="0" len="12" vol="62" />
          <note key="57" pos="420" pan="0" len="348" vol="100" />
        </pattern>
      </track>
      <track solo="0" name="10 (Ch19)" type="0" muted="0">
        <instrumenttrack usemasterpitch="1" pitch="0.0" basenote="57" pan="0" pitchrange="12" vol="30">
          <eldata />
          <instrument name="tripleoscillator" />
        </instrumenttrack>
        <pattern pos="10752" muted="0" steps="16" name="" type="1">
          <note key="77" pos="1392" pan="0" len="12" vol="52" />
          <note key="80" pos="1404" pan="0" len="12" vol="52" />
          <note key="84" pos="1416" pan="0" len="120" vol="52" />
        </pattern>
      </track>
      <track solo="0" name="11 (Ch1)" type="0" muted="0">
        <instrumenttrack usemasterpitch="1" pitch="0.0" basenote="57" pan="0" pitchrange="12" vol="30">
          <eldata />
          <instrument name="tripleoscillator" />
        </instrumenttrack>
        <pattern pos="55296" muted="0" steps="16" name="" type="1">
          <note key="62" pos="0" pan="0" len="384" vol="34" />
        </pattern>
      </track>
      <track solo="0" name="11 (Ch2)" type="0" muted="0">
        <instrumenttrack usemasterpitch="1" pitch="0.0" basenote="57" pan="0" pitchrange="12" vol="30">
          <eldata />
          <instrument name="tripleoscillator" />
        </instrumenttrack>
        <pattern pos="21504" muted="0" steps="16" name="" type="1">
          <note key="63" pos="0" pan="0" len="768" vol="100" />
          <note key="63" pos="768" pan="0" len="768" vol="100" />
        </pattern>
      </track>
      <track solo="0" name="11 (Ch5)" type="0" muted="0">
        <instrumenttrack usemasterpitch="1" pitch="0.0" basenote="57" pan="0" pitchrange="12" vol="30">
          <eldata />
          <instrument name="tripleoscillator" />
        </instrumenttrack>
        <pattern pos="50688" muted="0" steps="16" name="" type="1">
          <note key="67" pos="0" pan="0" len="204" vol="34" />
        </pattern>
        <pattern pos="44544" muted="0" steps="16" name="" type="1">
          <note key="67" pos="0" pan="0" len="204" vol="34" />
        </pattern>
        <pattern pos="47616" muted="0" steps="16" name="" type="1">
          <note key="67" pos="0" pan="0" len="204" vol="34" />
        </pattern>
      </track>
      <track solo="0" name="11 (Ch6)" type="0" muted="0">
        <instrumenttrack usemasterpitch="1" pitch="0.0" basenote="57" pan="0" pitchrange="12" vol="30">
          <eldata />
          <instrument name="tripleoscillator" />
        </instrumenttrack>
        <pattern pos="274140" muted="0" steps="16" name="" type="1">
          <note key="56" pos="0" pan="0" len="1152" vol="100" />
        </pattern>
        <pattern pos="44544" muted="0" steps="16" name="" type="1">
          <note key="55" pos="0" pan="0" len="204" vol="34" />
        </pattern>
        <pattern pos="47616" muted="0" steps="16" name="" type="1">
          <note key="55" pos="0" pan="0" len="204" vol="34" />
        </pattern>
        <pattern pos="50688" muted="0" steps="16" name="" type="1">
          <note key="55" pos="0" pan="0" len="204" vol="34" />
        </pattern>
        <pattern pos="201228" muted="0" steps="16" name="" type="1">
          <note key="64" pos="168" pan="0" len="84" vol="100" />
        </pattern>
        <pattern pos="272844" muted="0" steps="16" name="" type="1">
          <note key="68" pos="0" pan="0" len="144" vol="100" />
        </pattern>
      </track>
      <track solo="0" name="11 (Ch8)" type="0" muted="0">
        <instrumenttrack usemasterpitch="1" pitch="0.0" basenote="57" pan="0" pitchrange="12" vol="30">
          <eldata />
          <instrument name="tripleoscillator" />
        </instrumenttrack>
        <pattern pos="53760" muted="0" steps="16" name="" type="1">
          <note key="57" pos="0" pan="0" len="432" vol="100" />
        </pattern>
        <pattern pos="35328" muted="0" steps="16" name="" type="1">
          <note key="60" pos="0" pan="0" len="576" vol="100" />
        </pattern>
      </track>
      <track solo="0" name="11 (Ch9)" type="0" muted="0">
        <instrumenttrack usemasterpitch="1" pitch="0.0" basenote="57" pan="0" pitchrange="12" vol="30">
          <eldata />
          <instrument name="tripleoscillator" />
        </instrumenttrack>
        <pattern pos="53760" muted="0" steps="16" name="" type="1">
          <note key="69" pos="0" pan="0" len="432" vol="100" />
        </pattern>
      </track>
      <track solo="0" name="11 (Ch10)" type="0" muted="0">
        <instrumenttrack usemasterpitch="1" pitch="0.0" basenote="57" pan="0" pitchrange="12" vol="30">
          <eldata />
          <instrument name="tripleoscillator" />
        </instrumenttrack>
        <pattern pos="19968" muted="0" steps="16" name="" type="1">
          <note key="63" pos="0" pan="0" len="168" vol="100" />
          <note key="65" pos="168" pan="0" len="24" vol="100" />
          <note key="67" pos="192" pan="0" len="168" vol="100" />
          <note key="65" pos="360" pan="0" len="24" vol="100" />
          <note key="60" pos="384" pan="0" len="168" vol="100" />
          <note key="58" pos="552" pan="0" len="24" vol="100" />
          <note key="60" pos="576" pan="0" len="96" vol="100" />
          <note key="63" pos="672" pan="0" len="48" vol="100" />
          <note key="58" pos="720" pan="0" len="48" vol="100" />
          <note key="63" pos="768" pan="0" len="192" vol="100" />
          <note key="67" pos="960" pan="0" len="192" vol="100" />
          <note key="60" pos="1152" pan="0" len="384" vol="100" />
        </pattern>
        <pattern pos="18432" muted="0" steps="16" name="" type="1">
          <note key="60" pos="768" pan="0" len="384" vol="100" />
        </pattern>
      </track>
      <track solo="0" name="11 (Ch12)" type="0" muted="0">
        <instrumenttrack usemasterpitch="1" pitch="0.0" basenote="57" pan="0" pitchrange="12" vol="30">
          <eldata />
          <instrument name="tripleoscillator" />
        </instrumenttrack>
        <pattern pos="99840" muted="0" steps="16" name="" type="1">
          <note key="62" pos="0" pan="0" len="384" vol="100" />
          <note key="67" pos="384" pan="0" len="192" vol="100" />
          <note key="60" pos="576" pan="0" len="144" vol="47" />
        </pattern>
        <pattern pos="98304" muted="0" steps="16" name="" type="1">
          <note key="62" pos="0" pan="0" len="384" vol="100" />
          <note key="67" pos="384" pan="0" len="192" vol="100" />
          <note key="60" pos="576" pan="0" len="144" vol="47" />
        </pattern>
      </track>
      <track solo="0" name="11 (Ch14)" type="0" muted="0">
        <instrumenttrack usemasterpitch="1" pitch="0.0" basenote="57" pan="0" pitchrange="12" vol="30">
          <eldata />
          <instrument name="tripleoscillator" />
        </instrumenttrack>
        <pattern pos="246540" muted="0" steps="16" name="" type="1">
          <note key="58" pos="0" pan="0" len="792" vol="100" />
        </pattern>
        <pattern pos="147468" muted="0" steps="16" name="" type="1">
          <note key="68" pos="0" pan="0" len="1536" vol="0" />
        </pattern>
        <pattern pos="149004" muted="0" steps="16" name="" type="1">
          <note key="68" pos="0" pan="0" len="1536" vol="0" />
        </pattern>
      </track>
      <track solo="0" name="11 (Ch20)" type="0" muted="0">
        <instrumenttrack usemasterpitch="1" pitch="0.0" basenote="57" pan="0" pitchrange="12" vol="30">
          <eldata />
          <instrument name="tripleoscillator" />
        </instrumenttrack>
        <pattern pos="218892" muted="0" steps="16" name="" type="1">
          <note key="60" pos="0" pan="0" len="120" vol="100" />
          <note key="61" pos="120" pan="0" len="72" vol="100" />
          <note key="60" pos="192" pan="0" len="120" vol="100" />
          <note key="61" pos="312" pan="0" len="72" vol="100" />
          <note key="60" pos="384" pan="0" len="120" vol="100" />
          <note key="61" pos="504" pan="0" len="72" vol="100" />
          <note key="60" pos="576" pan="0" len="120" vol="100" />
          <note key="61" pos="696" pan="0" len="72" vol="100" />
          <note key="60" pos="768" pan="0" len="120" vol="100" />
          <note key="61" pos="888" pan="0" len="72" vol="100" />
          <note key="60" pos="960" pan="0" len="120" vol="100" />
          <note key="61" pos="1080" pan="0" len="72" vol="100" />
          <note key="60" pos="1152" pan="0" len="120" vol="100" />
          <note key="61" pos="1272" pan="0" len="72" vol="100" />
          <note key="60" pos="1344" pan="0" len="120" vol="100" />
          <note key="61" pos="1464" pan="0" len="72" vol="100" />
        </pattern>
        <pattern pos="205068" muted="0" steps="16" name="" type="1">
          <note key="60" pos="0" pan="0" len="120" vol="100" />
          <note key="61" pos="120" pan="0" len="72" vol="100" />
          <note key="60" pos="192" pan="0" len="120" vol="100" />
          <note key="61" pos="312" pan="0" len="72" vol="100" />
          <note key="67" pos="384" pan="0" len="120" vol="100" />
          <note key="68" pos="504" pan="0" len="72" vol="100" />
          <note key="67" pos="576" pan="0" len="120" vol="100" />
          <note key="68" pos="696" pan="0" len="72" vol="100" />
          <note key="65" pos="768" pan="0" len="120" vol="100" />
          <note key="66" pos="888" pan="0" len="72" vol="100" />
          <note key="65" pos="960" pan="0" len="120" vol="100" />
          <note key="66" pos="1080" pan="0" len="72" vol="100" />
          <note key="60" pos="1152" pan="0" len="120" vol="100" />
          <note key="61" pos="1272" pan="0" len="72" vol="100" />
          <note key="56" pos="1344" pan="0" len="120" vol="100" />
          <note key="57" pos="1464" pan="0" len="72" vol="100" />
        </pattern>
        <pattern pos="206604" muted="0" steps="16" name="" type="1">
          <note key="60" pos="0" pan="0" len="120" vol="100" />
          <note key="61" pos="120" pan="0" len="72" vol="100" />
          <note key="60" pos="192" pan="0" len="120" vol="100" />
          <note key="61" pos="312" pan="0" len="72" vol="100" />
          <note key="67" pos="384" pan="0" len="120" vol="100" />
          <note key="68" pos="504" pan="0" len="72" vol="100" />
          <note key="67" pos="576" pan="0" len="120" vol="100" />
          <note key="68" pos="696" pan="0" len="72" vol="100" />
          <note key="65" pos="768" pan="0" len="120" vol="100" />
          <note key="66" pos="888" pan="0" len="72" vol="100" />
          <note key="65" pos="960" pan="0" len="120" vol="100" />
          <note key="66" pos="1080" pan="0" len="72" vol="100" />
          <note key="60" pos="1152" pan="0" len="120" vol="100" />
          <note key="61" pos="1272" pan="0" len="72" vol="100" />
          <note key="56" pos="1344" pan="0" len="120" vol="100" />
          <note key="57" pos="1464" pan="0" len="72" vol="100" />
        </pattern>
        <pattern pos="208140" muted="0" steps="16" name="" type="1">
          <note key="63" pos="0" pan="0" len="120" vol="100" />
          <note key="64" pos="120" pan="0" len="72" vol="100" />
          <note key="63" pos="192" pan="0" len="120" vol="100" />
          <note key="64" pos="312" pan="0" len="72" vol="100" />
          <note key="67" pos="384" pan="0" len="120" vol="100" />
          <note key="68" pos="504" pan="0" len="72" vol="100" />
          <note key="67" pos="576" pan="0" len="120" vol="100" />
          <note key="68" pos="696" pan="0" len="72" vol="100" />
          <note key="60" pos="768" pan="0" len="120" vol="100" />
          <note key="61" pos="888" pan="0" len="72" vol="100" />
          <note key="60" pos="960" pan="0" len="120" vol="100" />
          <note key="61" pos="1080" pan="0" len="72" vol="100" />
          <note key="56" pos="1152" pan="0" len="120" vol="100" />
          <note key="57" pos="1272" pan="0" len="72" vol="100" />
          <note key="56" pos="1344" pan="0" len="120" vol="100" />
          <note key="57" pos="1464" pan="0" len="72" vol="100" />
        </pattern>
        <pattern pos="209676" muted="0" steps="16" name="" type="1">
          <note key="63" pos="0" pan="0" len="120" vol="100" />
          <note key="64" pos="120" pan="0" len="72" vol="100" />
          <note key="63" pos="192" pan="0" len="120" vol="100" />
          <note key="64" pos="312" pan="0" len="72" vol="100" />
          <note key="67" pos="384" pan="0" len="120" vol="100" />
          <note key="68" pos="504" pan="0" len="72" vol="100" />
          <note key="67" pos="576" pan="0" len="120" vol="100" />
          <note key="68" pos="696" pan="0" len="72" vol="100" />
          <note key="60" pos="768" pan="0" len="120" vol="100" />
          <note key="61" pos="888" pan="0" len="72" vol="100" />
          <note key="60" pos="960" pan="0" len="120" vol="100" />
          <note key="61" pos="1080" pan="0" len="72" vol="100" />
          <note key="56" pos="1152" pan="0" len="120" vol="100" />
          <note key="57" pos="1272" pan="0" len="72" vol="100" />
          <note key="56" pos="1344" pan="0" len="120" vol="100" />
          <note key="57" pos="1464" pan="0" len="72" vol="100" />
        </pattern>
        <pattern pos="211212" muted="0" steps="16" name="" type="1">
          <note key="60" pos="0" pan="0" len="120" vol="100" />
          <note key="61" pos="120" pan="0" len="72" vol="100" />
          <note key="60" pos="192" pan="0" len="120" vol="100" />
          <note key="61" pos="312" pan="0" len="72" vol="100" />
          <note key="60" pos="384" pan="0" len="120" vol="100" />
          <note key="61" pos="504" pan="0" len="72" vol="100" />
          <note key="60" pos="576" pan="0" len="120" vol="100" />
          <note key="61" pos="696" pan="0" len="72" vol="100" />
          <note key="60" pos="768" pan="0" len="120" vol="100" />
          <note key="61" pos="888" pan="0" len="72" vol="100" />
          <note key="60" pos="960" pan="0" len="120" vol="100" />
          <note key="61" pos="1080" pan="0" len="72" vol="100" />
          <note key="60" pos="1152" pan="0" len="120" vol="100" />
          <note key="61" pos="1272" pan="0" len="72" vol="100" />
          <note key="60" pos="1344" pan="0" len="120" vol="100" />
          <note key="61" pos="1464" pan="0" len="72" vol="100" />
        </pattern>
        <pattern pos="212748" muted="0" steps="16" name="" type="1">
          <note key="60" pos="0" pan="0" len="120" vol="100" />
          <note key="61" pos="120" pan="0" len="72" vol="100" />
          <note key="60" pos="192" pan="0" len="120" vol="100" />
          <note key="61" pos="312" pan="0" len="72" vol="100" />
          <note key="67" pos="384" pan="0" len="120" vol="100" />
          <note key="68" pos="504" pan="0" len="72" vol="100" />
          <note key="67" pos="576" pan="0" len="120" vol="100" />
          <note key="68" pos="696" pan="0" len="72" vol="100" />
          <note key="65" pos="768" pan="0" len="120" vol="100" />
          <note key="66" pos="888" pan="0" len="72" vol="100" />
          <note key="65" pos="960" pan="0" len="120" vol="100" />
          <note key="66" pos="1080" pan="0" len="72" vol="100" />
          <note key="60" pos="1152" pan="0" len="120" vol="100" />
          <note key="61" pos="1272" pan="0" len="72" vol="100" />
          <note key="56" pos="1344" pan="0" len="120" vol="100" />
          <note key="57" pos="1464" pan="0" len="72" vol="100" />
        </pattern>
        <pattern pos="214284" muted="0" steps="16" name="" type="1">
          <note key="60" pos="0" pan="0" len="120" vol="100" />
          <note key="61" pos="120" pan="0" len="72" vol="100" />
          <note key="60" pos="192" pan="0" len="120" vol="100" />
          <note key="61" pos="312" pan="0" len="72" vol="100" />
          <note key="67" pos="384" pan="0" len="120" vol="100" />
          <note key="68" pos="504" pan="0" len="72" vol="100" />
          <note key="67" pos="576" pan="0" len="120" vol="100" />
          <note key="68" pos="696" pan="0" len="72" vol="100" />
          <note key="65" pos="768" pan="0" len="120" vol="100" />
          <note key="66" pos="888" pan="0" len="72" vol="100" />
          <note key="65" pos="960" pan="0" len="120" vol="100" />
          <note key="66" pos="1080" pan="0" len="72" vol="100" />
          <note key="60" pos="1152" pan="0" len="120" vol="100" />
          <note key="61" pos="1272" pan="0" len="72" vol="100" />
          <note key="56" pos="1344" pan="0" len="120" vol="100" />
          <note key="57" pos="1464" pan="0" len="72" vol="100" />
        </pattern>
        <pattern pos="215820" muted="0" steps="16" name="" type="1">
          <note key="63" pos="0" pan="0" len="120" vol="100" />
          <note key="64" pos="120" pan="0" len="72" vol="100" />
          <note key="63" pos="192" pan="0" len="120" vol="100" />
          <note key="64" pos="312" pan="0" len="72" vol="100" />
          <note key="67" pos="384" pan="0" len="120" vol="100" />
          <note key="68" pos="504" pan="0" len="72" vol="100" />
          <note key="67" pos="576" pan="0" len="120" vol="100" />
          <note key="68" pos="696" pan="0" len="72" vol="100" />
          <note key="60" pos="768" pan="0" len="120" vol="100" />
          <note key="61" pos="888" pan="0" len="72" vol="100" />
          <note key="60" pos="960" pan="0" len="120" vol="100" />
          <note key="61" pos="1080" pan="0" len="72" vol="100" />
          <note key="56" pos="1152" pan="0" len="120" vol="100" />
          <note key="57" pos="1272" pan="0" len="72" vol="100" />
          <note key="56" pos="1344" pan="0" len="120" vol="100" />
          <note key="57" pos="1464" pan="0" len="72" vol="100" />
        </pattern>
        <pattern pos="217356" muted="0" steps="16" name="" type="1">
          <note key="63" pos="0" pan="0" len="120" vol="100" />
          <note key="64" pos="120" pan="0" len="72" vol="100" />
          <note key="63" pos="192" pan="0" len="120" vol="100" />
          <note key="64" pos="312" pan="0" len="72" vol="100" />
          <note key="67" pos="384" pan="0" len="120" vol="100" />
          <note key="68" pos="504" pan="0" len="72" vol="100" />
          <note key="67" pos="576" pan="0" len="120" vol="100" />
          <note key="68" pos="696" pan="0" len="72" vol="100" />
          <note key="60" pos="768" pan="0" len="120" vol="100" />
          <note key="61" pos="888" pan="0" len="72" vol="100" />
          <note key="60" pos="960" pan="0" len="120" vol="100" />
          <note key="61" pos="1080" pan="0" len="72" vol="100" />
          <note key="56" pos="1152" pan="0" len="120" vol="100" />
          <note key="57" pos="1272" pan="0" len="72" vol="100" />
          <note key="56" pos="1344" pan="0" len="120" vol="100" />
          <note key="57" pos="1464" pan="0" len="72" vol="100" />
        </pattern>
      </track>
      <track solo="0" name="12 (Ch1)" type="0" muted="0">
        <instrumenttrack usemasterpitch="1" pitch="0.0" basenote="57" pan="0" pitchrange="12" vol="30">
          <eldata />
          <instrument name="tripleoscillator" />
        </instrumenttrack>
        <pattern pos="169740" muted="0" steps="16" name="" type="1">
          <note key="60" pos="2112" pan="0" len="96" vol="100" />
        </pattern>
        <pattern pos="98304" muted="0" steps="16" name="" type="1">
          <note key="50" pos="0" pan="0" len="48" vol="100" />
          <note key="57" pos="48" pan="0" len="48" vol="31" />
          <note key="65" pos="96" pan="0" len="48" vol="47" />
          <note key="57" pos="144" pan="0" len="96" vol="100" />
          <note key="60" pos="240" pan="0" len="48" vol="31" />
          <note key="55" pos="288" pan="0" len="48" vol="62" />
          <note key="62" pos="336" pan="0" len="48" vol="100" />
          <note key="58" pos="384" pan="0" len="48" vol="100" />
          <note key="53" pos="432" pan="0" len="48" vol="47" />
          <note key="62" pos="480" pan="0" len="48" vol="100" />
          <note key="55" pos="528" pan="0" len="48" vol="62" />
          <note key="52" pos="576" pan="0" len="48" vol="91" />
          <note key="60" pos="624" pan="0" len="48" vol="100" />
          <note key="55" pos="672" pan="0" len="48" vol="31" />
          <note key="48" pos="720" pan="0" len="48" vol="47" />
          <note key="50" pos="768" pan="0" len="48" vol="100" />
          <note key="57" pos="816" pan="0" len="48" vol="31" />
          <note key="65" pos="864" pan="0" len="48" vol="47" />
          <note key="57" pos="912" pan="0" len="48" vol="100" />
          <note key="64" pos="960" pan="0" len="48" vol="100" />
          <note key="60" pos="1008" pan="0" len="48" vol="31" />
          <note key="55" pos="1056" pan="0" len="48" vol="62" />
          <note key="62" pos="1104" pan="0" len="48" vol="100" />
          <note key="58" pos="1152" pan="0" len="48" vol="100" />
          <note key="53" pos="1200" pan="0" len="48" vol="47" />
          <note key="62" pos="1248" pan="0" len="48" vol="100" />
          <note key="55" pos="1296" pan="0" len="48" vol="62" />
          <note key="52" pos="1344" pan="0" len="48" vol="91" />
          <note key="60" pos="1392" pan="0" len="48" vol="100" />
          <note key="55" pos="1440" pan="0" len="48" vol="31" />
          <note key="48" pos="1488" pan="0" len="48" vol="47" />
        </pattern>
        <pattern pos="99840" muted="0" steps="16" name="" type="1">
          <note key="50" pos="0" pan="0" len="48" vol="100" />
          <note key="57" pos="48" pan="0" len="48" vol="31" />
          <note key="65" pos="96" pan="0" len="48" vol="47" />
          <note key="57" pos="144" pan="0" len="96" vol="100" />
          <note key="60" pos="240" pan="0" len="48" vol="31" />
          <note key="55" pos="288" pan="0" len="48" vol="62" />
          <note key="62" pos="336" pan="0" len="48" vol="100" />
          <note key="58" pos="384" pan="0" len="48" vol="100" />
          <note key="53" pos="432" pan="0" len="48" vol="47" />
          <note key="62" pos="480" pan="0" len="48" vol="100" />
          <note key="55" pos="528" pan="0" len="48" vol="62" />
          <note key="52" pos="576" pan="0" len="48" vol="91" />
          <note key="60" pos="624" pan="0" len="48" vol="100" />
          <note key="55" pos="672" pan="0" len="48" vol="31" />
          <note key="48" pos="720" pan="0" len="48" vol="47" />
          <note key="50" pos="768" pan="0" len="48" vol="100" />
          <note key="57" pos="816" pan="0" len="48" vol="31" />
          <note key="65" pos="864" pan="0" len="48" vol="47" />
          <note key="57" pos="912" pan="0" len="48" vol="100" />
          <note key="64" pos="960" pan="0" len="48" vol="100" />
          <note key="60" pos="1008" pan="0" len="48" vol="31" />
          <note key="55" pos="1056" pan="0" len="48" vol="62" />
          <note key="62" pos="1104" pan="0" len="48" vol="100" />
          <note key="58" pos="1152" pan="0" len="48" vol="100" />
          <note key="53" pos="1200" pan="0" len="48" vol="47" />
          <note key="62" pos="1248" pan="0" len="48" vol="100" />
          <note key="55" pos="1296" pan="0" len="48" vol="62" />
          <note key="52" pos="1344" pan="0" len="48" vol="91" />
          <note key="60" pos="1392" pan="0" len="48" vol="100" />
          <note key="55" pos="1440" pan="0" len="48" vol="31" />
          <note key="48" pos="1488" pan="0" len="48" vol="47" />
        </pattern>
        <pattern pos="145164" muted="0" steps="16" name="" type="1">
          <note key="49" pos="0" pan="0" len="144" vol="0" />
        </pattern>
        <pattern pos="156684" muted="0" steps="16" name="" type="1">
          <note key="49" pos="0" pan="0" len="144" vol="0" />
        </pattern>
      </track>
      <track solo="0" name="12 (Ch2)" type="0" muted="0">
        <instrumenttrack usemasterpitch="1" pitch="0.0" basenote="57" pan="0" pitchrange="12" vol="30">
          <eldata />
          <instrument name="tripleoscillator" />
        </instrumenttrack>
        <pattern pos="201228" muted="0" steps="16" name="" type="1">
          <note key="54" pos="0" pan="0" len="72" vol="100" />
          <note key="62" pos="72" pan="0" len="24" vol="100" />
          <note key="59" pos="96" pan="0" len="24" vol="100" />
          <note key="55" pos="168" pan="0" len="84" vol="100" />
        </pattern>
        <pattern pos="145164" muted="0" steps="16" name="" type="1">
          <note key="53" pos="0" pan="0" len="144" vol="0" />
        </pattern>
        <pattern pos="156684" muted="0" steps="16" name="" type="1">
          <note key="53" pos="0" pan="0" len="144" vol="0" />
        </pattern>
        <pattern pos="169740" muted="0" steps="16" name="" type="1">
          <note key="65" pos="1920" pan="0" len="96" vol="100" />
          <note key="64" pos="2016" pan="0" len="96" vol="100" />
          <note key="67" pos="2112" pan="0" len="96" vol="100" />
        </pattern>
      </track>
      <track solo="0" name="12 (Ch3)" type="0" muted="0">
        <instrumenttrack usemasterpitch="1" pitch="0.0" basenote="57" pan="0" pitchrange="12" vol="30">
          <eldata />
          <instrument name="tripleoscillator" />
        </instrumenttrack>
        <pattern pos="156684" muted="0" steps="16" name="" type="1">
          <note key="56" pos="0" pan="0" len="144" vol="0" />
        </pattern>
        <pattern pos="145164" muted="0" steps="16" name="" type="1">
          <note key="56" pos="0" pan="0" len="144" vol="0" />
        </pattern>
      </track>
      <track solo="0" name="12 (Ch4)" type="0" muted="0">
        <instrumenttrack usemasterpitch="1" pitch="0.0" basenote="57" pan="0" pitchrange="12" vol="30">
          <eldata />
          <instrument name="tripleoscillator" />
        </instrumenttrack>
        <pattern pos="156684" muted="0" steps="16" name="" type="1">
          <note key="51" pos="0" pan="0" len="144" vol="0" />
        </pattern>
        <pattern pos="145164" muted="0" steps="16" name="" type="1">
          <note key="51" pos="0" pan="0" len="144" vol="0" />
        </pattern>
      </track>
      <track solo="0" name="12 (Ch5)" type="0" muted="0">
        <instrumenttrack usemasterpitch="1" pitch="0.0" basenote="57" pan="0" pitchrange="12" vol="30">
          <eldata />
          <instrument name="tripleoscillator" />
        </instrumenttrack>
        <pattern pos="156684" muted="0" steps="16" name="" type="1">
          <note key="37" pos="192" pan="0" len="240" vol="0" />
        </pattern>
        <pattern pos="98304" muted="0" steps="16" name="" type="1">
          <note key="50" pos="0" pan="0" len="48" vol="100" />
          <note key="57" pos="48" pan="0" len="48" vol="31" />
          <note key="65" pos="96" pan="0" len="48" vol="47" />
          <note key="57" pos="144" pan="0" len="96" vol="100" />
          <note key="60" pos="240" pan="0" len="48" vol="31" />
          <note key="55" pos="288" pan="0" len="48" vol="62" />
          <note key="62" pos="336" pan="0" len="48" vol="100" />
          <note key="58" pos="384" pan="0" len="48" vol="100" />
          <note key="53" pos="432" pan="0" len="48" vol="47" />
          <note key="62" pos="480" pan="0" len="48" vol="100" />
          <note key="55" pos="528" pan="0" len="48" vol="62" />
          <note key="52" pos="576" pan="0" len="48" vol="91" />
          <note key="60" pos="624" pan="0" len="48" vol="100" />
          <note key="55" pos="672" pan="0" len="48" vol="31" />
          <note key="48" pos="720" pan="0" len="48" vol="47" />
          <note key="50" pos="768" pan="0" len="48" vol="100" />
          <note key="57" pos="816" pan="0" len="48" vol="31" />
          <note key="65" pos="864" pan="0" len="48" vol="47" />
          <note key="57" pos="912" pan="0" len="48" vol="100" />
          <note key="64" pos="960" pan="0" len="48" vol="100" />
          <note key="60" pos="1008" pan="0" len="48" vol="31" />
          <note key="55" pos="1056" pan="0" len="48" vol="62" />
          <note key="62" pos="1104" pan="0" len="48" vol="100" />
          <note key="58" pos="1152" pan="0" len="48" vol="100" />
          <note key="53" pos="1200" pan="0" len="48" vol="47" />
          <note key="62" pos="1248" pan="0" len="48" vol="100" />
          <note key="55" pos="1296" pan="0" len="48" vol="62" />
          <note key="52" pos="1344" pan="0" len="48" vol="91" />
          <note key="60" pos="1392" pan="0" len="48" vol="100" />
          <note key="55" pos="1440" pan="0" len="48" vol="31" />
          <note key="48" pos="1488" pan="0" len="48" vol="47" />
        </pattern>
        <pattern pos="99840" muted="0" steps="16" name="" type="1">
          <note key="50" pos="0" pan="0" len="48" vol="100" />
          <note key="57" pos="48" pan="0" len="48" vol="31" />
          <note key="65" pos="96" pan="0" len="48" vol="47" />
          <note key="57" pos="144" pan="0" len="96" vol="100" />
          <note key="60" pos="240" pan="0" len="48" vol="31" />
          <note key="55" pos="288" pan="0" len="48" vol="62" />
          <note key="62" pos="336" pan="0" len="48" vol="100" />
          <note key="58" pos="384" pan="0" len="48" vol="100" />
          <note key="53" pos="432" pan="0" len="48" vol="47" />
          <note key="62" pos="480" pan="0" len="48" vol="100" />
          <note key="55" pos="528" pan="0" len="48" vol="62" />
          <note key="52" pos="576" pan="0" len="48" vol="91" />
          <note key="60" pos="624" pan="0" len="48" vol="100" />
          <note key="55" pos="672" pan="0" len="48" vol="31" />
          <note key="48" pos="720" pan="0" len="48" vol="47" />
          <note key="50" pos="768" pan="0" len="48" vol="100" />
          <note key="57" pos="816" pan="0" len="48" vol="31" />
          <note key="65" pos="864" pan="0" len="48" vol="47" />
          <note key="57" pos="912" pan="0" len="48" vol="100" />
          <note key="64" pos="960" pan="0" len="48" vol="100" />
          <note key="60" pos="1008" pan="0" len="48" vol="31" />
          <note key="55" pos="1056" pan="0" len="48" vol="62" />
          <note key="62" pos="1104" pan="0" len="48" vol="100" />
          <note key="58" pos="1152" pan="0" len="48" vol="100" />
          <note key="53" pos="1200" pan="0" len="48" vol="47" />
          <note key="62" pos="1248" pan="0" len="48" vol="100" />
          <note key="55" pos="1296" pan="0" len="48" vol="62" />
          <note key="52" pos="1344" pan="0" len="48" vol="91" />
          <note key="60" pos="1392" pan="0" len="48" vol="100" />
          <note key="55" pos="1440" pan="0" len="48" vol="31" />
          <note key="48" pos="1488" pan="0" len="48" vol="47" />
        </pattern>
        <pattern pos="145164" muted="0" steps="16" name="" type="1">
          <note key="37" pos="192" pan="0" len="240" vol="0" />
        </pattern>
      </track>
      <track solo="0" name="12 (Ch6)" type="0" muted="0">
        <instrumenttrack usemasterpitch="1" pitch="0.0" basenote="57" pan="0" pitchrange="12" vol="30">
          <eldata />
          <instrument name="tripleoscillator" />
        </instrumenttrack>
        <pattern pos="156684" muted="0" steps="16" name="" type="1">
          <note key="41" pos="192" pan="0" len="240" vol="0" />
        </pattern>
        <pattern pos="145164" muted="0" steps="16" name="" type="1">
          <note key="41" pos="192" pan="0" len="240" vol="0" />
        </pattern>
      </track>
      <track solo="0" name="12 (Ch7)" type="0" muted="0">
        <instrumenttrack usemasterpitch="1" pitch="0.0" basenote="57" pan="0" pitchrange="12" vol="30">
          <eldata />
          <instrument name="tripleoscillator" />
        </instrumenttrack>
        <pattern pos="157452" muted="0" steps="16" name="" type="1">
          <note key="37" pos="192" pan="0" len="240" vol="0" />
        </pattern>
        <pattern pos="4608" muted="0" steps="16" name="" type="1">
          <note key="58" pos="384" pan="0" len="48" vol="100" />
          <note key="50" pos="432" pan="0" len="48" vol="100" />
          <note key="51" pos="480" pan="0" len="144" vol="100" />
          <note key="51" pos="768" pan="0" len="48" vol="100" />
          <note key="55" pos="816" pan="0" len="144" vol="100" />
          <note key="60" pos="960" pan="0" len="192" vol="100" />
          <note key="58" pos="1152" pan="0" len="48" vol="100" />
          <note key="50" pos="1200" pan="0" len="48" vol="100" />
          <note key="51" pos="1248" pan="0" len="96" vol="100" />
          <note key="62" pos="1344" pan="0" len="48" vol="100" />
          <note key="53" pos="1392" pan="0" len="48" vol="100" />
          <note key="55" pos="1440" pan="0" len="48" vol="100" />
          <note key="58" pos="1488" pan="0" len="48" vol="100" />
        </pattern>
        <pattern pos="144396" muted="0" steps="16" name="" type="1">
          <note key="24" pos="0" pan="0" len="384" vol="0" />
          <note key="25" pos="384" pan="0" len="192" vol="100" />
          <note key="13" pos="576" pan="0" len="192" vol="62" />
        </pattern>
        <pattern pos="145164" muted="0" steps="16" name="" type="1">
          <note key="44" pos="192" pan="0" len="240" vol="0" />
        </pattern>
        <pattern pos="156684" muted="0" steps="16" name="" type="1">
          <note key="44" pos="192" pan="0" len="240" vol="0" />
        </pattern>
      </track>
      <track solo="0" name="12 (Ch8)" type="0" muted="0">
        <instrumenttrack usemasterpitch="1" pitch="0.0" basenote="57" pan="0" pitchrange="12" vol="30">
          <eldata />
          <instrument name="tripleoscillator" />
        </instrumenttrack>
        <pattern pos="220428" muted="0" steps="16" name="" type="1">
          <note key="48" pos="0" pan="0" len="180" vol="100" />
        </pattern>
        <pattern pos="145164" muted="0" steps="16" name="" type="1">
          <note key="39" pos="192" pan="0" len="240" vol="0" />
        </pattern>
        <pattern pos="156684" muted="0" steps="16" name="" type="1">
          <note key="39" pos="192" pan="0" len="240" vol="0" />
        </pattern>
        <pattern pos="157452" muted="0" steps="16" name="" type="1">
          <note key="41" pos="192" pan="0" len="240" vol="0" />
        </pattern>
        <pattern pos="218892" muted="0" steps="16" name="" type="1">
          <note key="48" pos="0" pan="0" len="180" vol="100" />
        </pattern>
      </track>
      <track solo="0" name="12 (Ch9)" type="0" muted="0">
        <instrumenttrack usemasterpitch="1" pitch="0.0" basenote="57" pan="0" pitchrange="12" vol="30">
          <eldata />
          <instrument name="tripleoscillator" />
        </instrumenttrack>
        <pattern pos="157452" muted="0" steps="16" name="" type="1">
          <note key="44" pos="192" pan="0" len="240" vol="0" />
        </pattern>
        <pattern pos="19968" muted="0" steps="16" name="" type="1">
          <note key="51" pos="0" pan="0" len="168" vol="100" />
          <note key="53" pos="168" pan="0" len="24" vol="100" />
          <note key="55" pos="192" pan="0" len="24" vol="100" />
          <note key="58" pos="216" pan="0" len="48" vol="100" />
          <note key="62" pos="264" pan="0" len="48" vol="100" />
          <note key="58" pos="312" pan="0" len="48" vol="100" />
          <note key="60" pos="360" pan="0" len="96" vol="100" />
          <note key="46" pos="744" pan="0" len="24" vol="100" />
          <note key="51" pos="768" pan="0" len="168" vol="100" />
          <note key="55" pos="936" pan="0" len="24" vol="100" />
          <note key="53" pos="960" pan="0" len="24" vol="100" />
          <note key="51" pos="984" pan="0" len="48" vol="100" />
          <note key="53" pos="1032" pan="0" len="48" vol="100" />
          <note key="55" pos="1080" pan="0" len="24" vol="100" />
          <note key="58" pos="1104" pan="0" len="24" vol="100" />
          <note key="60" pos="1152" pan="0" len="120" vol="100" />
        </pattern>
        <pattern pos="41472" muted="0" steps="16" name="" type="1">
          <note key="63" pos="0" pan="0" len="60" vol="100" />
          <note key="54" pos="96" pan="0" len="72" vol="100" />
          <note key="56" pos="168" pan="0" len="24" vol="100" />
          <note key="57" pos="192" pan="0" len="96" vol="100" />
          <note key="59" pos="384" pan="0" len="96" vol="100" />
          <note key="54" pos="480" pan="0" len="72" vol="100" />
          <note key="56" pos="552" pan="0" len="24" vol="100" />
          <note key="57" pos="576" pan="0" len="96" vol="100" />
          <note key="56" pos="672" pan="0" len="72" vol="100" />
          <note key="63" pos="768" pan="0" len="96" vol="100" />
          <note key="54" pos="864" pan="0" len="72" vol="100" />
          <note key="56" pos="936" pan="0" len="24" vol="100" />
          <note key="57" pos="960" pan="0" len="192" vol="100" />
          <note key="59" pos="1152" pan="0" len="96" vol="100" />
          <note key="54" pos="1248" pan="0" len="72" vol="100" />
          <note key="56" pos="1320" pan="0" len="24" vol="100" />
          <note key="57" pos="1344" pan="0" len="192" vol="100" />
        </pattern>
      </track>
      <track solo="0" name="12 (Ch10)" type="0" muted="0">
        <instrumenttrack usemasterpitch="1" pitch="0.0" basenote="57" pan="0" pitchrange="12" vol="30">
          <eldata />
          <instrument name="tripleoscillator" />
        </instrumenttrack>
        <pattern pos="248844" muted="0" steps="16" name="" type="1">
          <note key="65" pos="1632" pan="0" len="24" vol="100" />
          <note key="64" pos="1656" pan="0" len="48" vol="100" />
          <note key="58" pos="1728" pan="0" len="84" vol="100" />
        </pattern>
        <pattern pos="157452" muted="0" steps="16" name="" type="1">
          <note key="39" pos="192" pan="0" len="240" vol="0" />
        </pattern>
        <pattern pos="236556" muted="0" steps="16" name="" type="1">
          <note key="56" pos="192" pan="0" len="72" vol="100" />
          <note key="55" pos="264" pan="0" len="48" vol="100" />
          <note key="53" pos="312" pan="0" len="72" vol="100" />
          <note key="58" pos="384" pan="0" len="72" vol="100" />
        </pattern>
      </track>
      <track solo="0" name="12 (Ch13)" type="0" muted="0">
        <instrumenttrack usemasterpitch="1" pitch="0.0" basenote="57" pan="0" pitchrange="12" vol="30">
          <eldata />
          <instrument name="tripleoscillator" />
        </instrumenttrack>
        <pattern pos="217356" muted="0" steps="16" name="" type="1">
          <note key="51" pos="48" pan="0" len="24" vol="100" />
          <note key="46" pos="72" pan="0" len="36" vol="100" />
          <note key="51" pos="144" pan="0" len="96" vol="100" />
          <note key="55" pos="288" pan="0" len="48" vol="100" />
          <note key="58" pos="384" pan="0" len="24" vol="100" />
          <note key="57" pos="408" pan="0" len="24" vol="100" />
          <note key="50" pos="432" pan="0" len="72" vol="100" />
          <note key="51" pos="768" pan="0" len="24" vol="100" />
          <note key="48" pos="792" pan="0" len="36" vol="100" />
          <note key="51" pos="864" pan="0" len="36" vol="100" />
          <note key="56" pos="1152" pan="0" len="24" vol="100" />
          <note key="55" pos="1176" pan="0" len="24" vol="100" />
          <note key="48" pos="1200" pan="0" len="60" vol="100" />
        </pattern>
        <pattern pos="38400" muted="0" steps="16" name="" type="1">
          <note key="52" pos="768" pan="0" len="24" vol="100" />
          <note key="55" pos="816" pan="0" len="60" vol="100" />
          <note key="54" pos="936" pan="0" len="24" vol="100" />
          <note key="57" pos="960" pan="0" len="48" vol="100" />
          <note key="54" pos="1056" pan="0" len="48" vol="100" />
          <note key="50" pos="1104" pan="0" len="48" vol="100" />
          <note key="46" pos="1152" pan="0" len="48" vol="100" />
          <note key="51" pos="1200" pan="0" len="48" vol="100" />
          <note key="55" pos="1248" pan="0" len="36" vol="100" />
          <note key="58" pos="1320" pan="0" len="24" vol="100" />
          <note key="57" pos="1344" pan="0" len="72" vol="100" />
        </pattern>
        <pattern pos="189708" muted="0" steps="16" name="" type="1">
          <note key="54" pos="48" pan="0" len="12" vol="100" />
          <note key="62" pos="240" pan="0" len="12" vol="100" />
          <note key="62" pos="432" pan="0" len="12" vol="100" />
          <note key="59" pos="576" pan="0" len="12" vol="100" />
          <note key="52" pos="816" pan="0" len="12" vol="100" />
          <note key="62" pos="1008" pan="0" len="12" vol="100" />
          <note key="64" pos="1200" pan="0" len="12" vol="100" />
          <note key="59" pos="1344" pan="0" len="12" vol="100" />
        </pattern>
        <pattern pos="191244" muted="0" steps="16" name="" type="1">
          <note key="64" pos="192" pan="0" len="12" vol="100" />
          <note key="52" pos="576" pan="0" len="12" vol="100" />
          <note key="64" pos="960" pan="0" len="12" vol="100" />
          <note key="52" pos="1344" pan="0" len="12" vol="100" />
        </pattern>
        <pattern pos="194316" muted="0" steps="16" name="" type="1">
          <note key="54" pos="48" pan="0" len="12" vol="100" />
          <note key="62" pos="240" pan="0" len="12" vol="100" />
          <note key="62" pos="432" pan="0" len="12" vol="100" />
          <note key="59" pos="576" pan="0" len="12" vol="100" />
          <note key="52" pos="816" pan="0" len="12" vol="100" />
          <note key="62" pos="1008" pan="0" len="12" vol="100" />
          <note key="64" pos="1200" pan="0" len="12" vol="100" />
          <note key="59" pos="1344" pan="0" len="12" vol="100" />
        </pattern>
        <pattern pos="195852" muted="0" steps="16" name="" type="1">
          <note key="64" pos="192" pan="0" len="12" vol="100" />
          <note key="52" pos="576" pan="0" len="12" vol="100" />
          <note key="64" pos="960" pan="0" len="12" vol="100" />
          <note key="52" pos="1344" pan="0" len="12" vol="100" />
        </pattern>
        <pattern pos="200460" muted="0" steps="16" name="" type="1">
          <note key="64" pos="192" pan="0" len="72" vol="100" />
        </pattern>
        <pattern pos="208140" muted="0" steps="16" name="" type="1">
          <note key="51" pos="48" pan="0" len="24" vol="100" />
          <note key="46" pos="72" pan="0" len="36" vol="100" />
          <note key="51" pos="144" pan="0" len="96" vol="100" />
          <note key="55" pos="288" pan="0" len="48" vol="100" />
          <note key="58" pos="384" pan="0" len="24" vol="100" />
          <note key="57" pos="408" pan="0" len="24" vol="100" />
          <note key="50" pos="432" pan="0" len="72" vol="100" />
          <note key="51" pos="768" pan="0" len="24" vol="100" />
          <note key="48" pos="792" pan="0" len="36" vol="100" />
          <note key="51" pos="864" pan="0" len="36" vol="100" />
          <note key="56" pos="1152" pan="0" len="24" vol="100" />
          <note key="55" pos="1176" pan="0" len="24" vol="100" />
          <note key="48" pos="1200" pan="0" len="60" vol="100" />
        </pattern>
        <pattern pos="209676" muted="0" steps="16" name="" type="1">
          <note key="51" pos="48" pan="0" len="24" vol="100" />
          <note key="46" pos="72" pan="0" len="36" vol="100" />
          <note key="51" pos="144" pan="0" len="96" vol="100" />
          <note key="55" pos="288" pan="0" len="48" vol="100" />
          <note key="58" pos="384" pan="0" len="24" vol="100" />
          <note key="57" pos="408" pan="0" len="24" vol="100" />
          <note key="50" pos="432" pan="0" len="72" vol="100" />
          <note key="51" pos="768" pan="0" len="24" vol="100" />
          <note key="48" pos="792" pan="0" len="36" vol="100" />
          <note key="51" pos="864" pan="0" len="36" vol="100" />
          <note key="56" pos="1152" pan="0" len="24" vol="100" />
          <note key="55" pos="1176" pan="0" len="24" vol="100" />
          <note key="48" pos="1200" pan="0" len="60" vol="100" />
        </pattern>
        <pattern pos="215820" muted="0" steps="16" name="" type="1">
          <note key="51" pos="48" pan="0" len="24" vol="100" />
          <note key="46" pos="72" pan="0" len="36" vol="100" />
          <note key="51" pos="144" pan="0" len="96" vol="100" />
          <note key="55" pos="288" pan="0" len="48" vol="100" />
          <note key="58" pos="384" pan="0" len="24" vol="100" />
          <note key="57" pos="408" pan="0" len="24" vol="100" />
          <note key="50" pos="432" pan="0" len="72" vol="100" />
          <note key="51" pos="768" pan="0" len="24" vol="100" />
          <note key="48" pos="792" pan="0" len="36" vol="100" />
          <note key="51" pos="864" pan="0" len="36" vol="100" />
          <note key="56" pos="1152" pan="0" len="24" vol="100" />
          <note key="55" pos="1176" pan="0" len="24" vol="100" />
          <note key="48" pos="1200" pan="0" len="60" vol="100" />
        </pattern>
      </track>
      <track solo="0" name="12 (Ch14)" type="0" muted="0">
        <instrumenttrack usemasterpitch="1" pitch="0.0" basenote="57" pan="0" pitchrange="12" vol="30">
          <eldata />
          <instrument name="tripleoscillator" />
        </instrumenttrack>
        <pattern pos="217356" muted="0" steps="16" name="" type="1">
          <note key="63" pos="48" pan="0" len="24" vol="100" />
          <note key="58" pos="72" pan="0" len="72" vol="100" />
          <note key="63" pos="144" pan="0" len="96" vol="100" />
          <note key="67" pos="288" pan="0" len="48" vol="100" />
          <note key="70" pos="384" pan="0" len="24" vol="100" />
          <note key="69" pos="408" pan="0" len="24" vol="100" />
          <note key="62" pos="432" pan="0" len="156" vol="100" />
          <note key="63" pos="768" pan="0" len="24" vol="100" />
          <note key="60" pos="792" pan="0" len="36" vol="100" />
          <note key="63" pos="864" pan="0" len="36" vol="100" />
          <note key="68" pos="1152" pan="0" len="24" vol="100" />
          <note key="67" pos="1176" pan="0" len="24" vol="100" />
          <note key="60" pos="1200" pan="0" len="60" vol="100" />
        </pattern>
        <pattern pos="29184" muted="0" steps="16" name="" type="1">
          <note key="55" pos="48" pan="0" len="192" vol="50" />
          <note key="60" pos="240" pan="0" len="144" vol="50" />
          <note key="48" pos="384" pan="0" len="12" vol="100" />
        </pattern>
        <pattern pos="200460" muted="0" steps="16" name="" type="1">
          <note key="59" pos="192" pan="0" len="72" vol="100" />
        </pattern>
        <pattern pos="205068" muted="0" steps="16" name="" type="1">
          <note key="48" pos="96" pan="0" len="72" vol="100" />
          <note key="50" pos="168" pan="0" len="72" vol="100" />
          <note key="51" pos="240" pan="0" len="72" vol="100" />
          <note key="55" pos="312" pan="0" len="72" vol="100" />
          <note key="58" pos="384" pan="0" len="24" vol="100" />
          <note key="57" pos="408" pan="0" len="24" vol="100" />
          <note key="50" pos="432" pan="0" len="48" vol="100" />
          <note key="48" pos="840" pan="0" len="24" vol="100" />
          <note key="53" pos="864" pan="0" len="72" vol="100" />
          <note key="51" pos="936" pan="0" len="72" vol="100" />
          <note key="50" pos="1008" pan="0" len="72" vol="100" />
          <note key="48" pos="1080" pan="0" len="72" vol="100" />
          <note key="51" pos="1152" pan="0" len="24" vol="100" />
          <note key="50" pos="1176" pan="0" len="24" vol="100" />
          <note key="48" pos="1200" pan="0" len="84" vol="100" />
          <note key="51" pos="1332" pan="0" len="12" vol="100" />
          <note key="50" pos="1344" pan="0" len="36" vol="100" />
        </pattern>
        <pattern pos="206604" muted="0" steps="16" name="" type="1">
          <note key="48" pos="48" pan="0" len="72" vol="100" />
          <note key="50" pos="120" pan="0" len="72" vol="100" />
          <note key="51" pos="192" pan="0" len="72" vol="100" />
          <note key="55" pos="264" pan="0" len="84" vol="100" />
          <note key="58" pos="384" pan="0" len="24" vol="100" />
          <note key="57" pos="408" pan="0" len="24" vol="100" />
          <note key="62" pos="432" pan="0" len="108" vol="100" />
          <note key="48" pos="840" pan="0" len="24" vol="100" />
          <note key="53" pos="864" pan="0" len="72" vol="100" />
          <note key="55" pos="936" pan="0" len="72" vol="100" />
          <note key="56" pos="1008" pan="0" len="72" vol="100" />
          <note key="60" pos="1080" pan="0" len="72" vol="100" />
          <note key="63" pos="1152" pan="0" len="24" vol="100" />
          <note key="62" pos="1176" pan="0" len="24" vol="100" />
          <note key="60" pos="1200" pan="0" len="84" vol="100" />
          <note key="63" pos="1332" pan="0" len="12" vol="100" />
          <note key="62" pos="1344" pan="0" len="36" vol="100" />
        </pattern>
        <pattern pos="208140" muted="0" steps="16" name="" type="1">
          <note key="63" pos="48" pan="0" len="24" vol="100" />
          <note key="58" pos="72" pan="0" len="72" vol="100" />
          <note key="63" pos="144" pan="0" len="96" vol="100" />
          <note key="67" pos="288" pan="0" len="48" vol="100" />
          <note key="70" pos="384" pan="0" len="24" vol="100" />
          <note key="69" pos="408" pan="0" len="24" vol="100" />
          <note key="62" pos="432" pan="0" len="156" vol="100" />
          <note key="63" pos="768" pan="0" len="24" vol="100" />
          <note key="60" pos="792" pan="0" len="36" vol="100" />
          <note key="63" pos="864" pan="0" len="36" vol="100" />
          <note key="68" pos="1152" pan="0" len="24" vol="100" />
          <note key="67" pos="1176" pan="0" len="24" vol="100" />
          <note key="60" pos="1200" pan="0" len="60" vol="100" />
        </pattern>
        <pattern pos="209676" muted="0" steps="16" name="" type="1">
          <note key="63" pos="48" pan="0" len="24" vol="100" />
          <note key="58" pos="72" pan="0" len="72" vol="100" />
          <note key="63" pos="144" pan="0" len="96" vol="100" />
          <note key="67" pos="288" pan="0" len="48" vol="100" />
          <note key="70" pos="384" pan="0" len="24" vol="100" />
          <note key="69" pos="408" pan="0" len="24" vol="100" />
          <note key="62" pos="432" pan="0" len="156" vol="100" />
          <note key="63" pos="768" pan="0" len="24" vol="100" />
          <note key="60" pos="792" pan="0" len="36" vol="100" />
          <note key="63" pos="864" pan="0" len="36" vol="100" />
          <note key="68" pos="1152" pan="0" len="24" vol="100" />
          <note key="67" pos="1176" pan="0" len="24" vol="100" />
          <note key="60" pos="1200" pan="0" len="60" vol="100" />
        </pattern>
        <pattern pos="212748" muted="0" steps="16" name="" type="1">
          <note key="48" pos="96" pan="0" len="72" vol="100" />
          <note key="50" pos="168" pan="0" len="72" vol="100" />
          <note key="51" pos="240" pan="0" len="72" vol="100" />
          <note key="55" pos="312" pan="0" len="72" vol="100" />
          <note key="58" pos="384" pan="0" len="24" vol="100" />
          <note key="57" pos="408" pan="0" len="24" vol="100" />
          <note key="50" pos="432" pan="0" len="48" vol="100" />
          <note key="48" pos="744" pan="0" len="24" vol="100" />
          <note key="53" pos="768" pan="0" len="48" vol="100" />
          <note key="55" pos="816" pan="0" len="24" vol="100" />
          <note key="56" pos="840" pan="0" len="48" vol="100" />
          <note key="48" pos="888" pan="0" len="24" vol="100" />
          <note key="53" pos="912" pan="0" len="132" vol="100" />
          <note key="48" pos="1128" pan="0" len="24" vol="100" />
          <note key="51" pos="1152" pan="0" len="24" vol="100" />
          <note key="50" pos="1176" pan="0" len="24" vol="100" />
          <note key="48" pos="1200" pan="0" len="84" vol="100" />
          <note key="51" pos="1332" pan="0" len="12" vol="100" />
          <note key="50" pos="1344" pan="0" len="36" vol="100" />
          <note key="51" pos="1428" pan="0" len="12" vol="100" />
          <note key="46" pos="1440" pan="0" len="36" vol="100" />
        </pattern>
        <pattern pos="214284" muted="0" steps="16" name="" type="1">
          <note key="48" pos="48" pan="0" len="72" vol="100" />
          <note key="50" pos="120" pan="0" len="72" vol="100" />
          <note key="51" pos="192" pan="0" len="72" vol="100" />
          <note key="55" pos="264" pan="0" len="84" vol="100" />
          <note key="58" pos="384" pan="0" len="24" vol="100" />
          <note key="57" pos="408" pan="0" len="24" vol="100" />
          <note key="62" pos="432" pan="0" len="108" vol="100" />
          <note key="48" pos="840" pan="0" len="24" vol="100" />
          <note key="53" pos="864" pan="0" len="72" vol="100" />
          <note key="55" pos="936" pan="0" len="72" vol="100" />
          <note key="56" pos="1008" pan="0" len="72" vol="100" />
          <note key="60" pos="1080" pan="0" len="72" vol="100" />
          <note key="63" pos="1152" pan="0" len="24" vol="100" />
          <note key="62" pos="1176" pan="0" len="24" vol="100" />
          <note key="60" pos="1200" pan="0" len="84" vol="100" />
          <note key="63" pos="1332" pan="0" len="12" vol="100" />
          <note key="62" pos="1344" pan="0" len="36" vol="100" />
        </pattern>
        <pattern pos="215820" muted="0" steps="16" name="" type="1">
          <note key="63" pos="48" pan="0" len="24" vol="100" />
          <note key="58" pos="72" pan="0" len="72" vol="100" />
          <note key="63" pos="144" pan="0" len="96" vol="100" />
          <note key="67" pos="288" pan="0" len="48" vol="100" />
          <note key="70" pos="384" pan="0" len="24" vol="100" />
          <note key="69" pos="408" pan="0" len="24" vol="100" />
          <note key="62" pos="432" pan="0" len="156" vol="100" />
          <note key="63" pos="768" pan="0" len="24" vol="100" />
          <note key="60" pos="792" pan="0" len="36" vol="100" />
          <note key="63" pos="864" pan="0" len="36" vol="100" />
          <note key="68" pos="1152" pan="0" len="24" vol="100" />
          <note key="67" pos="1176" pan="0" len="24" vol="100" />
          <note key="60" pos="1200" pan="0" len="60" vol="100" />
        </pattern>
      </track>
      <track solo="0" name="12 (Ch15)" type="0" muted="0">
        <instrumenttrack usemasterpitch="1" pitch="0.0" basenote="57" pan="0" pitchrange="12" vol="30">
          <eldata />
          <instrument name="tripleoscillator" />
        </instrumenttrack>
        <pattern pos="200460" muted="0" steps="16" name="" type="1">
          <note key="56" pos="192" pan="0" len="72" vol="100" />
        </pattern>
        <pattern pos="6144" muted="0" steps="16" name="" type="1">
          <note key="50" pos="24" pan="0" len="24" vol="100" />
          <note key="51" pos="48" pan="0" len="48" vol="100" />
          <note key="53" pos="96" pan="0" len="24" vol="100" />
          <note key="51" pos="120" pan="0" len="24" vol="100" />
          <note key="50" pos="144" pan="0" len="24" vol="100" />
          <note key="51" pos="168" pan="0" len="120" vol="100" />
          <note key="50" pos="288" pan="0" len="72" vol="100" />
          <note key="51" pos="408" pan="0" len="24" vol="100" />
          <note key="53" pos="432" pan="0" len="48" vol="100" />
          <note key="55" pos="480" pan="0" len="24" vol="100" />
          <note key="53" pos="504" pan="0" len="24" vol="100" />
          <note key="51" pos="528" pan="0" len="24" vol="100" />
          <note key="53" pos="552" pan="0" len="72" vol="100" />
          <note key="56" pos="672" pan="0" len="72" vol="100" />
          <note key="55" pos="744" pan="0" len="24" vol="100" />
          <note key="56" pos="768" pan="0" len="72" vol="100" />
          <note key="60" pos="912" pan="0" len="24" vol="100" />
          <note key="58" pos="936" pan="0" len="24" vol="100" />
          <note key="60" pos="960" pan="0" len="60" vol="100" />
          <note key="63" pos="1104" pan="0" len="24" vol="100" />
          <note key="62" pos="1128" pan="0" len="24" vol="100" />
          <note key="63" pos="1152" pan="0" len="72" vol="100" />
          <note key="67" pos="1248" pan="0" len="72" vol="100" />
          <note key="63" pos="1320" pan="0" len="24" vol="100" />
          <note key="65" pos="1344" pan="0" len="96" vol="100" />
        </pattern>
        <pattern pos="54528" muted="0" steps="16" name="" type="1">
          <note key="62" pos="120" pan="0" len="24" vol="100" />
          <note key="67" pos="144" pan="0" len="24" vol="100" />
          <note key="65" pos="168" pan="0" len="48" vol="100" />
          <note key="64" pos="240" pan="0" len="24" vol="100" />
          <note key="60" pos="264" pan="0" len="24" vol="100" />
          <note key="55" pos="288" pan="0" len="24" vol="100" />
          <note key="62" pos="312" pan="0" len="72" vol="100" />
        </pattern>
      </track>
      <track solo="0" name="12 (Ch16)" type="0" muted="0">
        <instrumenttrack usemasterpitch="1" pitch="0.0" basenote="57" pan="0" pitchrange="12" vol="30">
          <eldata />
          <instrument name="tripleoscillator" />
        </instrumenttrack>
        <pattern pos="54528" muted="0" steps="16" name="" type="1">
          <note key="60" pos="240" pan="0" len="24" vol="100" />
          <note key="55" pos="264" pan="0" len="24" vol="100" />
          <note key="53" pos="288" pan="0" len="24" vol="100" />
          <note key="67" pos="312" pan="0" len="72" vol="100" />
        </pattern>
        <pattern pos="10752" muted="0" steps="16" name="" type="1">
          <note key="63" pos="672" pan="0" len="72" vol="100" />
          <note key="62" pos="744" pan="0" len="24" vol="100" />
          <note key="53" pos="768" pan="0" len="96" vol="100" />
          <note key="63" pos="912" pan="0" len="24" vol="100" />
          <note key="62" pos="936" pan="0" len="24" vol="100" />
          <note key="63" pos="960" pan="0" len="60" vol="100" />
          <note key="65" pos="1104" pan="0" len="24" vol="100" />
          <note key="63" pos="1128" pan="0" len="24" vol="100" />
          <note key="65" pos="1152" pan="0" len="72" vol="100" />
          <note key="68" pos="1248" pan="0" len="48" vol="100" />
          <note key="63" pos="1296" pan="0" len="48" vol="100" />
          <note key="62" pos="1344" pan="0" len="48" vol="100" />
        </pattern>
      </track>
      <track solo="0" name="12 (Ch20)" type="0" muted="0">
        <instrumenttrack usemasterpitch="1" pitch="0.0" basenote="57" pan="0" pitchrange="12" vol="30">
          <eldata />
          <instrument name="tripleoscillator" />
        </instrumenttrack>
        <pattern pos="10752" muted="0" steps="16" name="" type="1">
          <note key="50" pos="24" pan="0" len="24" vol="100" />
          <note key="51" pos="48" pan="0" len="48" vol="100" />
          <note key="53" pos="96" pan="0" len="24" vol="100" />
          <note key="51" pos="120" pan="0" len="24" vol="100" />
          <note key="50" pos="144" pan="0" len="24" vol="100" />
          <note key="51" pos="168" pan="0" len="120" vol="100" />
          <note key="50" pos="288" pan="0" len="72" vol="100" />
          <note key="51" pos="408" pan="0" len="24" vol="100" />
          <note key="53" pos="432" pan="0" len="48" vol="100" />
          <note key="55" pos="480" pan="0" len="24" vol="100" />
          <note key="53" pos="504" pan="0" len="24" vol="100" />
          <note key="51" pos="528" pan="0" len="24" vol="100" />
          <note key="53" pos="552" pan="0" len="72" vol="100" />
          <note key="56" pos="672" pan="0" len="72" vol="100" />
          <note key="55" pos="744" pan="0" len="24" vol="100" />
          <note key="56" pos="768" pan="0" len="72" vol="100" />
          <note key="60" pos="912" pan="0" len="24" vol="100" />
          <note key="58" pos="936" pan="0" len="24" vol="100" />
          <note key="60" pos="960" pan="0" len="60" vol="100" />
          <note key="63" pos="1104" pan="0" len="24" vol="100" />
          <note key="62" pos="1128" pan="0" len="24" vol="100" />
          <note key="63" pos="1152" pan="0" len="72" vol="100" />
          <note key="67" pos="1248" pan="0" len="48" vol="100" />
          <note key="63" pos="1296" pan="0" len="48" vol="100" />
          <note key="65" pos="1344" pan="0" len="96" vol="100" />
        </pattern>
      </track>
      <track solo="0" name="13 (Ch1)" type="0" muted="0">
        <instrumenttrack usemasterpitch="1" pitch="0.0" basenote="57" pan="0" pitchrange="12" vol="30">
          <eldata />
          <instrument name="tripleoscillator" />
        </instrumenttrack>
        <pattern pos="201228" muted="0" steps="16" name="" type="1">
          <note key="61" pos="96" pan="0" len="12" vol="100" />
          <note key="62" pos="108" pan="0" len="12" vol="50" />
          <note key="54" pos="144" pan="0" len="24" vol="100" />
        </pattern>
        <pattern pos="169740" muted="0" steps="16" name="" type="1">
          <note key="64" pos="0" pan="0" len="24" vol="100" />
          <note key="59" pos="24" pan="0" len="48" vol="100" />
          <note key="68" pos="72" pan="0" len="48" vol="100" />
          <note key="64" pos="120" pan="0" len="48" vol="100" />
          <note key="71" pos="168" pan="0" len="24" vol="100" />
          <note key="70" pos="192" pan="0" len="36" vol="100" />
          <note key="71" pos="228" pan="0" len="12" vol="100" />
          <note key="70" pos="240" pan="0" len="24" vol="100" />
          <note key="68" pos="264" pan="0" len="72" vol="100" />
          <note key="59" pos="336" pan="0" len="24" vol="100" />
          <note key="64" pos="360" pan="0" len="24" vol="100" />
          <note key="66" pos="384" pan="0" len="24" vol="100" />
          <note key="68" pos="408" pan="0" len="24" vol="100" />
          <note key="59" pos="432" pan="0" len="144" vol="100" />
        </pattern>
        <pattern pos="186636" muted="0" steps="16" name="" type="1">
          <note key="62" pos="720" pan="0" len="12" vol="100" />
          <note key="66" pos="732" pan="0" len="36" vol="100" />
          <note key="61" pos="792" pan="0" len="12" vol="100" />
          <note key="62" pos="804" pan="0" len="12" vol="50" />
          <note key="54" pos="840" pan="0" len="24" vol="100" />
          <note key="55" pos="912" pan="0" len="24" vol="100" />
          <note key="59" pos="936" pan="0" len="24" vol="100" />
          <note key="54" pos="1032" pan="0" len="24" vol="100" />
          <note key="55" pos="1104" pan="0" len="24" vol="100" />
          <note key="59" pos="1128" pan="0" len="12" vol="100" />
          <note key="61" pos="1140" pan="0" len="12" vol="50" />
          <note key="61" pos="1176" pan="0" len="12" vol="100" />
          <note key="62" pos="1188" pan="0" len="12" vol="50" />
          <note key="54" pos="1224" pan="0" len="24" vol="100" />
          <note key="55" pos="1296" pan="0" len="24" vol="100" />
          <note key="59" pos="1320" pan="0" len="24" vol="100" />
          <note key="54" pos="1416" pan="0" len="24" vol="100" />
        </pattern>
        <pattern pos="188172" muted="0" steps="16" name="" type="1">
          <note key="61" pos="24" pan="0" len="12" vol="100" />
          <note key="62" pos="36" pan="0" len="12" vol="50" />
          <note key="54" pos="72" pan="0" len="24" vol="100" />
          <note key="55" pos="144" pan="0" len="24" vol="100" />
          <note key="59" pos="168" pan="0" len="24" vol="100" />
          <note key="54" pos="264" pan="0" len="24" vol="100" />
          <note key="55" pos="336" pan="0" len="24" vol="100" />
          <note key="59" pos="360" pan="0" len="12" vol="100" />
          <note key="61" pos="372" pan="0" len="12" vol="50" />
          <note key="61" pos="408" pan="0" len="12" vol="100" />
          <note key="62" pos="420" pan="0" len="12" vol="50" />
          <note key="54" pos="456" pan="0" len="24" vol="100" />
          <note key="55" pos="528" pan="0" len="24" vol="100" />
          <note key="59" pos="552" pan="0" len="24" vol="100" />
          <note key="54" pos="648" pan="0" len="24" vol="100" />
          <note key="55" pos="720" pan="0" len="24" vol="100" />
          <note key="59" pos="744" pan="0" len="12" vol="100" />
          <note key="61" pos="756" pan="0" len="12" vol="50" />
          <note key="61" pos="792" pan="0" len="12" vol="100" />
          <note key="62" pos="804" pan="0" len="12" vol="50" />
          <note key="54" pos="840" pan="0" len="24" vol="100" />
          <note key="55" pos="912" pan="0" len="24" vol="100" />
          <note key="59" pos="936" pan="0" len="24" vol="100" />
          <note key="54" pos="1032" pan="0" len="24" vol="100" />
          <note key="55" pos="1104" pan="0" len="24" vol="100" />
          <note key="59" pos="1128" pan="0" len="12" vol="100" />
          <note key="61" pos="1140" pan="0" len="12" vol="50" />
          <note key="61" pos="1176" pan="0" len="12" vol="100" />
          <note key="62" pos="1188" pan="0" len="12" vol="50" />
          <note key="54" pos="1224" pan="0" len="24" vol="100" />
          <note key="55" pos="1296" pan="0" len="24" vol="100" />
          <note key="59" pos="1320" pan="0" len="24" vol="100" />
          <note key="54" pos="1416" pan="0" len="24" vol="100" />
          <note key="55" pos="1488" pan="0" len="24" vol="100" />
          <note key="59" pos="1512" pan="0" len="12" vol="100" />
          <note key="61" pos="1524" pan="0" len="12" vol="50" />
        </pattern>
        <pattern pos="189708" muted="0" steps="16" name="" type="1">
          <note key="61" pos="24" pan="0" len="12" vol="100" />
          <note key="62" pos="36" pan="0" len="12" vol="50" />
          <note key="54" pos="72" pan="0" len="24" vol="100" />
          <note key="55" pos="144" pan="0" len="24" vol="100" />
          <note key="59" pos="168" pan="0" len="24" vol="100" />
          <note key="54" pos="264" pan="0" len="24" vol="100" />
          <note key="55" pos="336" pan="0" len="24" vol="100" />
          <note key="59" pos="360" pan="0" len="12" vol="100" />
          <note key="61" pos="372" pan="0" len="12" vol="50" />
          <note key="61" pos="408" pan="0" len="12" vol="100" />
          <note key="62" pos="420" pan="0" len="12" vol="50" />
          <note key="54" pos="456" pan="0" len="24" vol="100" />
          <note key="55" pos="528" pan="0" len="24" vol="100" />
          <note key="59" pos="552" pan="0" len="24" vol="100" />
          <note key="54" pos="648" pan="0" len="24" vol="100" />
          <note key="55" pos="720" pan="0" len="24" vol="100" />
          <note key="59" pos="744" pan="0" len="12" vol="100" />
          <note key="61" pos="756" pan="0" len="12" vol="50" />
          <note key="61" pos="792" pan="0" len="12" vol="100" />
          <note key="62" pos="804" pan="0" len="12" vol="50" />
          <note key="54" pos="840" pan="0" len="24" vol="100" />
          <note key="55" pos="912" pan="0" len="24" vol="100" />
          <note key="59" pos="936" pan="0" len="24" vol="100" />
          <note key="54" pos="1032" pan="0" len="24" vol="100" />
          <note key="55" pos="1104" pan="0" len="24" vol="100" />
          <note key="59" pos="1128" pan="0" len="12" vol="100" />
          <note key="61" pos="1140" pan="0" len="12" vol="50" />
          <note key="61" pos="1176" pan="0" len="12" vol="100" />
          <note key="62" pos="1188" pan="0" len="12" vol="50" />
          <note key="54" pos="1224" pan="0" len="24" vol="100" />
          <note key="55" pos="1296" pan="0" len="24" vol="100" />
          <note key="59" pos="1320" pan="0" len="24" vol="100" />
          <note key="54" pos="1416" pan="0" len="24" vol="100" />
          <note key="55" pos="1488" pan="0" len="24" vol="100" />
          <note key="59" pos="1512" pan="0" len="12" vol="100" />
          <note key="61" pos="1524" pan="0" len="12" vol="50" />
        </pattern>
        <pattern pos="191244" muted="0" steps="16" name="" type="1">
          <note key="61" pos="24" pan="0" len="12" vol="100" />
          <note key="62" pos="36" pan="0" len="12" vol="50" />
          <note key="62" pos="144" pan="0" len="24" vol="100" />
          <note key="64" pos="168" pan="0" len="24" vol="100" />
          <note key="54" pos="264" pan="0" len="24" vol="100" />
          <note key="62" pos="336" pan="0" len="24" vol="100" />
          <note key="61" pos="360" pan="0" len="12" vol="100" />
          <note key="61" pos="372" pan="0" len="12" vol="50" />
          <note key="61" pos="408" pan="0" len="12" vol="100" />
          <note key="62" pos="420" pan="0" len="12" vol="50" />
          <note key="54" pos="456" pan="0" len="24" vol="100" />
          <note key="55" pos="528" pan="0" len="24" vol="100" />
          <note key="59" pos="552" pan="0" len="24" vol="100" />
          <note key="54" pos="648" pan="0" len="24" vol="100" />
          <note key="55" pos="720" pan="0" len="24" vol="100" />
          <note key="59" pos="744" pan="0" len="12" vol="100" />
          <note key="61" pos="756" pan="0" len="12" vol="50" />
          <note key="61" pos="792" pan="0" len="12" vol="100" />
          <note key="62" pos="804" pan="0" len="12" vol="50" />
          <note key="62" pos="912" pan="0" len="24" vol="100" />
          <note key="64" pos="936" pan="0" len="24" vol="100" />
          <note key="54" pos="1032" pan="0" len="24" vol="100" />
          <note key="62" pos="1104" pan="0" len="24" vol="100" />
          <note key="61" pos="1128" pan="0" len="12" vol="100" />
          <note key="61" pos="1140" pan="0" len="12" vol="50" />
          <note key="61" pos="1176" pan="0" len="12" vol="100" />
          <note key="62" pos="1188" pan="0" len="12" vol="50" />
          <note key="54" pos="1224" pan="0" len="24" vol="100" />
          <note key="55" pos="1296" pan="0" len="24" vol="100" />
          <note key="59" pos="1320" pan="0" len="24" vol="100" />
          <note key="54" pos="1416" pan="0" len="24" vol="100" />
          <note key="55" pos="1488" pan="0" len="24" vol="100" />
          <note key="59" pos="1512" pan="0" len="12" vol="100" />
          <note key="61" pos="1524" pan="0" len="12" vol="50" />
        </pattern>
        <pattern pos="192780" muted="0" steps="16" name="" type="1">
          <note key="62" pos="720" pan="0" len="12" vol="100" />
          <note key="66" pos="732" pan="0" len="36" vol="100" />
          <note key="61" pos="792" pan="0" len="12" vol="100" />
          <note key="62" pos="804" pan="0" len="12" vol="50" />
          <note key="54" pos="840" pan="0" len="24" vol="100" />
          <note key="55" pos="912" pan="0" len="24" vol="100" />
          <note key="59" pos="936" pan="0" len="24" vol="100" />
          <note key="54" pos="1032" pan="0" len="24" vol="100" />
          <note key="55" pos="1104" pan="0" len="24" vol="100" />
          <note key="59" pos="1128" pan="0" len="12" vol="100" />
          <note key="61" pos="1140" pan="0" len="12" vol="50" />
          <note key="61" pos="1176" pan="0" len="12" vol="100" />
          <note key="62" pos="1188" pan="0" len="12" vol="50" />
          <note key="54" pos="1224" pan="0" len="24" vol="100" />
          <note key="55" pos="1296" pan="0" len="24" vol="100" />
          <note key="59" pos="1320" pan="0" len="24" vol="100" />
          <note key="54" pos="1416" pan="0" len="24" vol="100" />
        </pattern>
        <pattern pos="194316" muted="0" steps="16" name="" type="1">
          <note key="59" pos="1512" pan="0" len="12" vol="100" />
          <note key="61" pos="1524" pan="0" len="12" vol="50" />
        </pattern>
        <pattern pos="197388" muted="0" steps="16" name="" type="1">
          <note key="54" pos="1512" pan="0" len="12" vol="100" />
          <note key="56" pos="1524" pan="0" len="12" vol="50" />
        </pattern>
        <pattern pos="200460" muted="0" steps="16" name="" type="1">
          <note key="61" pos="24" pan="0" len="12" vol="100" />
          <note key="62" pos="36" pan="0" len="12" vol="50" />
          <note key="62" pos="144" pan="0" len="24" vol="100" />
          <note key="64" pos="168" pan="0" len="24" vol="100" />
        </pattern>
      </track>
      <track solo="0" name="13 (Ch2)" type="0" muted="0">
        <instrumenttrack usemasterpitch="1" pitch="0.0" basenote="57" pan="0" pitchrange="12" vol="30">
          <eldata />
          <instrument name="tripleoscillator" />
        </instrumenttrack>
        <pattern pos="168204" muted="0" steps="16" name="" type="1">
          <note key="45" pos="48" pan="0" len="48" vol="100" />
          <note key="45" pos="144" pan="0" len="36" vol="100" />
          <note key="45" pos="240" pan="0" len="24" vol="100" />
          <note key="57" pos="264" pan="0" len="24" vol="16" />
          <note key="45" pos="336" pan="0" len="12" vol="100" />
          <note key="57" pos="420" pan="0" len="12" vol="34" />
          <note key="45" pos="432" pan="0" len="48" vol="100" />
          <note key="45" pos="528" pan="0" len="12" vol="100" />
          <note key="57" pos="540" pan="0" len="36" vol="34" />
          <note key="45" pos="624" pan="0" len="12" vol="100" />
          <note key="57" pos="708" pan="0" len="12" vol="34" />
          <note key="45" pos="720" pan="0" len="48" vol="100" />
          <note key="45" pos="816" pan="0" len="48" vol="100" />
          <note key="45" pos="912" pan="0" len="48" vol="100" />
          <note key="45" pos="1008" pan="0" len="48" vol="100" />
          <note key="45" pos="1104" pan="0" len="48" vol="100" />
          <note key="45" pos="1200" pan="0" len="48" vol="100" />
          <note key="45" pos="1296" pan="0" len="48" vol="100" />
          <note key="45" pos="1392" pan="0" len="48" vol="100" />
          <note key="45" pos="1488" pan="0" len="48" vol="100" />
        </pattern>
        <pattern pos="163596" muted="0" steps="16" name="" type="1">
          <note key="72" pos="0" pan="0" len="12" vol="33" />
          <note key="76" pos="12" pan="0" len="12" vol="30" />
          <note key="79" pos="24" pan="0" len="12" vol="25" />
          <note key="83" pos="36" pan="0" len="12" vol="22" />
          <note key="84" pos="48" pan="0" len="336" vol="17" />
          <note key="72" pos="384" pan="0" len="48" vol="100" />
          <note key="71" pos="432" pan="0" len="24" vol="100" />
          <note key="72" pos="456" pan="0" len="24" vol="100" />
          <note key="71" pos="480" pan="0" len="48" vol="100" />
          <note key="67" pos="528" pan="0" len="48" vol="100" />
          <note key="70" pos="576" pan="0" len="48" vol="100" />
          <note key="69" pos="624" pan="0" len="48" vol="100" />
          <note key="67" pos="672" pan="0" len="96" vol="100" />
        </pattern>
      </track>
      <track solo="0" name="13 (Ch5)" type="0" muted="0">
        <instrumenttrack usemasterpitch="1" pitch="0.0" basenote="57" pan="0" pitchrange="12" vol="30">
          <eldata />
          <instrument name="tripleoscillator" />
        </instrumenttrack>
        <pattern pos="201996" muted="0" steps="16" name="" type="1">
          <note key="62" pos="0" pan="0" len="24" vol="100" />
          <note key="69" pos="120" pan="0" len="48" vol="100" />
          <note key="72" pos="168" pan="0" len="24" vol="100" />
          <note key="65" pos="228" pan="0" len="12" vol="100" />
          <note key="71" pos="384" pan="0" len="24" vol="100" />
          <note key="72" pos="408" pan="0" len="24" vol="100" />
          <note key="62" pos="768" pan="0" len="24" vol="100" />
          <note key="58" pos="792" pan="0" len="48" vol="100" />
          <note key="65" pos="888" pan="0" len="24" vol="100" />
          <note key="62" pos="1056" pan="0" len="24" vol="100" />
          <note key="65" pos="1080" pan="0" len="72" vol="100" />
          <note key="69" pos="1176" pan="0" len="24" vol="100" />
          <note key="57" pos="1320" pan="0" len="12" vol="100" />
          <note key="60" pos="1332" pan="0" len="12" vol="100" />
        </pattern>
        <pattern pos="30720" muted="0" steps="16" name="" type="1">
          <note key="70" pos="852" pan="0" len="12" vol="50" />
          <note key="72" pos="864" pan="0" len="108" vol="50" />
          <note key="53" pos="1092" pan="0" len="12" vol="69" />
          <note key="55" pos="1104" pan="0" len="60" vol="69" />
        </pattern>
        <pattern pos="33792" muted="0" steps="16" name="" type="1">
          <note key="63" pos="252" pan="0" len="12" vol="100" />
          <note key="62" pos="264" pan="0" len="12" vol="100" />
          <note key="60" pos="276" pan="0" len="12" vol="100" />
          <note key="55" pos="288" pan="0" len="84" vol="100" />
          <note key="62" pos="636" pan="0" len="12" vol="100" />
          <note key="58" pos="648" pan="0" len="12" vol="100" />
          <note key="62" pos="660" pan="0" len="12" vol="100" />
          <note key="60" pos="672" pan="0" len="96" vol="100" />
          <note key="63" pos="1020" pan="0" len="12" vol="100" />
          <note key="62" pos="1032" pan="0" len="12" vol="100" />
          <note key="60" pos="1044" pan="0" len="12" vol="100" />
          <note key="55" pos="1056" pan="0" len="84" vol="100" />
        </pattern>
        <pattern pos="52224" muted="0" steps="16" name="" type="1">
          <note key="64" pos="0" pan="0" len="48" vol="100" />
          <note key="63" pos="48" pan="0" len="24" vol="100" />
          <note key="64" pos="72" pan="0" len="24" vol="100" />
          <note key="57" pos="96" pan="0" len="72" vol="100" />
          <note key="59" pos="168" pan="0" len="24" vol="100" />
          <note key="60" pos="192" pan="0" len="192" vol="100" />
          <note key="62" pos="384" pan="0" len="48" vol="100" />
          <note key="61" pos="432" pan="0" len="24" vol="100" />
          <note key="62" pos="456" pan="0" len="24" vol="100" />
          <note key="58" pos="480" pan="0" len="72" vol="100" />
          <note key="60" pos="552" pan="0" len="24" vol="100" />
          <note key="62" pos="576" pan="0" len="168" vol="100" />
          <note key="62" pos="744" pan="0" len="12" vol="34" />
          <note key="64" pos="756" pan="0" len="12" vol="69" />
          <note key="65" pos="768" pan="0" len="48" vol="100" />
          <note key="64" pos="816" pan="0" len="24" vol="100" />
          <note key="65" pos="840" pan="0" len="24" vol="100" />
          <note key="58" pos="864" pan="0" len="72" vol="100" />
          <note key="60" pos="936" pan="0" len="24" vol="100" />
          <note key="61" pos="960" pan="0" len="96" vol="100" />
          <note key="65" pos="1056" pan="0" len="96" vol="100" />
          <note key="64" pos="1152" pan="0" len="48" vol="100" />
          <note key="63" pos="1200" pan="0" len="24" vol="100" />
          <note key="64" pos="1224" pan="0" len="24" vol="100" />
          <note key="60" pos="1248" pan="0" len="72" vol="100" />
          <note key="62" pos="1320" pan="0" len="24" vol="100" />
          <note key="64" pos="1344" pan="0" len="192" vol="100" />
        </pattern>
      </track>
      <track solo="0" name="13 (Ch6)" type="0" muted="0">
        <instrumenttrack usemasterpitch="1" pitch="0.0" basenote="57" pan="0" pitchrange="12" vol="30">
          <eldata />
          <instrument name="tripleoscillator" />
        </instrumenttrack>
        <pattern pos="113664" muted="0" steps="16" name="" type="1">
          <note key="62" pos="0" pan="0" len="12" vol="100" />
        </pattern>
      </track>
      <track solo="0" name="13 (Ch7)" type="0" muted="0">
        <instrumenttrack usemasterpitch="1" pitch="0.0" basenote="57" pan="0" pitchrange="12" vol="30">
          <eldata />
          <instrument name="tripleoscillator" />
        </instrumenttrack>
        <pattern pos="264972" muted="0" steps="16" name="" type="1">
          <note key="67" pos="0" pan="0" len="72" vol="100" />
          <note key="65" pos="72" pan="0" len="72" vol="100" />
          <note key="62" pos="144" pan="0" len="144" vol="100" />
          <note key="65" pos="288" pan="0" len="72" vol="100" />
          <note key="58" pos="360" pan="0" len="72" vol="100" />
          <note key="57" pos="432" pan="0" len="96" vol="100" />
          <note key="55" pos="528" pan="0" len="48" vol="100" />
          <note key="62" pos="576" pan="0" len="240" vol="100" />
          <note key="65" pos="816" pan="0" len="48" vol="100" />
          <note key="58" pos="864" pan="0" len="276" vol="100" />
          <note key="65" pos="1140" pan="0" len="12" vol="100" />
          <note key="67" pos="1152" pan="0" len="72" vol="100" />
          <note key="65" pos="1224" pan="0" len="72" vol="100" />
          <note key="62" pos="1296" pan="0" len="144" vol="100" />
          <note key="65" pos="1440" pan="0" len="72" vol="100" />
          <note key="58" pos="1512" pan="0" len="72" vol="100" />
          <note key="57" pos="1584" pan="0" len="96" vol="100" />
          <note key="53" pos="1680" pan="0" len="24" vol="100" />
          <note key="57" pos="1704" pan="0" len="24" vol="100" />
          <note key="55" pos="1728" pan="0" len="240" vol="100" />
          <note key="65" pos="1968" pan="0" len="48" vol="100" />
          <note key="55" pos="2016" pan="0" len="240" vol="100" />
          <note key="62" pos="2256" pan="0" len="48" vol="100" />
        </pattern>
        <pattern pos="262668" muted="0" steps="16" name="" type="1">
          <note key="67" pos="0" pan="0" len="72" vol="100" />
          <note key="65" pos="72" pan="0" len="72" vol="100" />
          <note key="62" pos="144" pan="0" len="144" vol="100" />
          <note key="65" pos="288" pan="0" len="72" vol="100" />
          <note key="58" pos="360" pan="0" len="72" vol="100" />
          <note key="57" pos="432" pan="0" len="96" vol="100" />
          <note key="55" pos="528" pan="0" len="48" vol="100" />
          <note key="62" pos="576" pan="0" len="240" vol="100" />
          <note key="65" pos="816" pan="0" len="48" vol="100" />
          <note key="58" pos="864" pan="0" len="276" vol="100" />
          <note key="65" pos="1140" pan="0" len="12" vol="100" />
          <note key="67" pos="1152" pan="0" len="72" vol="100" />
          <note key="65" pos="1224" pan="0" len="72" vol="100" />
          <note key="62" pos="1296" pan="0" len="144" vol="100" />
          <note key="65" pos="1440" pan="0" len="72" vol="100" />
          <note key="58" pos="1512" pan="0" len="72" vol="100" />
          <note key="57" pos="1584" pan="0" len="96" vol="100" />
          <note key="53" pos="1680" pan="0" len="24" vol="100" />
          <note key="57" pos="1704" pan="0" len="24" vol="100" />
          <note key="55" pos="1728" pan="0" len="240" vol="100" />
          <note key="65" pos="1968" pan="0" len="48" vol="100" />
          <note key="55" pos="2016" pan="0" len="240" vol="100" />
          <note key="62" pos="2256" pan="0" len="48" vol="100" />
        </pattern>
      </track>
      <track solo="0" name="13 (Ch8)" type="0" muted="0">
        <instrumenttrack usemasterpitch="1" pitch="0.0" basenote="57" pan="0" pitchrange="12" vol="30">
          <eldata />
          <instrument name="tripleoscillator" />
        </instrumenttrack>
        <pattern pos="267276" muted="0" steps="16" name="" type="1">
          <note key="67" pos="0" pan="0" len="24" vol="100" />
          <note key="74" pos="24" pan="0" len="72" vol="100" />
          <note key="72" pos="96" pan="0" len="48" vol="100" />
          <note key="65" pos="144" pan="0" len="24" vol="100" />
          <note key="62" pos="168" pan="0" len="48" vol="100" />
          <note key="60" pos="216" pan="0" len="72" vol="100" />
          <note key="58" pos="288" pan="0" len="144" vol="100" />
          <note key="62" pos="432" pan="0" len="24" vol="100" />
          <note key="67" pos="456" pan="0" len="312" vol="100" />
        </pattern>
        <pattern pos="66816" muted="0" steps="16" name="" type="1">
          <note key="71" pos="192" pan="0" len="48" vol="17" />
          <note key="72" pos="240" pan="0" len="48" vol="17" />
          <note key="69" pos="288" pan="0" len="792" vol="17" />
        </pattern>
        <pattern pos="113664" muted="0" steps="16" name="" type="1">
          <note key="74" pos="1152" pan="0" len="576" vol="50" />
          <note key="86" pos="1728" pan="0" len="576" vol="50" />
        </pattern>
        <pattern pos="222732" muted="0" steps="16" name="" type="1">
          <note key="70" pos="72" pan="0" len="24" vol="100" />
          <note key="73" pos="96" pan="0" len="216" vol="100" />
          <note key="66" pos="312" pan="0" len="24" vol="100" />
          <note key="70" pos="336" pan="0" len="120" vol="100" />
          <note key="61" pos="456" pan="0" len="24" vol="100" />
          <note key="66" pos="480" pan="0" len="120" vol="100" />
          <note key="70" pos="600" pan="0" len="96" vol="100" />
          <note key="65" pos="696" pan="0" len="24" vol="100" />
          <note key="63" pos="720" pan="0" len="24" vol="100" />
          <note key="56" pos="744" pan="0" len="24" vol="100" />
        </pattern>
        <pattern pos="225804" muted="0" steps="16" name="" type="1">
          <note key="70" pos="72" pan="0" len="24" vol="100" />
          <note key="73" pos="96" pan="0" len="216" vol="100" />
          <note key="66" pos="312" pan="0" len="24" vol="100" />
          <note key="70" pos="336" pan="0" len="120" vol="100" />
          <note key="61" pos="456" pan="0" len="24" vol="100" />
          <note key="66" pos="480" pan="0" len="120" vol="100" />
          <note key="70" pos="600" pan="0" len="96" vol="100" />
          <note key="65" pos="696" pan="0" len="24" vol="100" />
          <note key="63" pos="720" pan="0" len="24" vol="100" />
          <note key="56" pos="744" pan="0" len="24" vol="100" />
        </pattern>
        <pattern pos="231948" muted="0" steps="16" name="" type="1">
          <note key="70" pos="72" pan="0" len="24" vol="100" />
          <note key="73" pos="96" pan="0" len="216" vol="100" />
          <note key="66" pos="312" pan="0" len="24" vol="100" />
          <note key="70" pos="336" pan="0" len="120" vol="100" />
          <note key="61" pos="456" pan="0" len="24" vol="100" />
          <note key="66" pos="480" pan="0" len="120" vol="100" />
          <note key="70" pos="600" pan="0" len="96" vol="100" />
          <note key="65" pos="696" pan="0" len="24" vol="100" />
          <note key="63" pos="720" pan="0" len="24" vol="100" />
          <note key="56" pos="744" pan="0" len="24" vol="100" />
        </pattern>
        <pattern pos="260364" muted="0" steps="16" name="" type="1">
          <note key="62" pos="1200" pan="0" len="24" vol="100" />
          <note key="65" pos="1224" pan="0" len="24" vol="100" />
          <note key="64" pos="1248" pan="0" len="96" vol="100" />
          <note key="58" pos="1344" pan="0" len="96" vol="100" />
          <note key="60" pos="1440" pan="0" len="192" vol="100" />
          <note key="58" pos="1632" pan="0" len="24" vol="100" />
          <note key="57" pos="1656" pan="0" len="24" vol="100" />
          <note key="53" pos="1680" pan="0" len="48" vol="100" />
          <note key="55" pos="1728" pan="0" len="528" vol="100" />
        </pattern>
      </track>
      <track solo="0" name="13 (Ch9)" type="0" muted="0">
        <instrumenttrack usemasterpitch="1" pitch="0.0" basenote="57" pan="0" pitchrange="12" vol="30">
          <eldata />
          <instrument name="tripleoscillator" />
        </instrumenttrack>
        <pattern pos="279900" muted="0" steps="16" name="" type="1">
          <note key="27" pos="0" pan="0" len="12" vol="100" />
          <note key="34" pos="12" pan="0" len="12" vol="100" />
          <note key="39" pos="24" pan="0" len="12" vol="100" />
          <note key="42" pos="36" pan="0" len="12" vol="100" />
          <note key="44" pos="48" pan="0" len="12" vol="100" />
          <note key="46" pos="60" pan="0" len="12" vol="100" />
          <note key="58" pos="72" pan="0" len="72" vol="100" />
          <note key="63" pos="144" pan="0" len="432" vol="100" />
        </pattern>
        <pattern pos="19968" muted="0" steps="16" name="" type="1">
          <note key="63" pos="504" pan="0" len="24" vol="100" />
          <note key="62" pos="528" pan="0" len="24" vol="100" />
          <note key="60" pos="552" pan="0" len="24" vol="100" />
          <note key="55" pos="576" pan="0" len="168" vol="100" />
          <note key="62" pos="1272" pan="0" len="24" vol="100" />
          <note key="58" pos="1296" pan="0" len="24" vol="100" />
          <note key="62" pos="1320" pan="0" len="24" vol="100" />
          <note key="60" pos="1344" pan="0" len="192" vol="100" />
        </pattern>
        <pattern pos="221196" muted="0" steps="16" name="" type="1">
          <note key="58" pos="48" pan="0" len="48" vol="100" />
          <note key="61" pos="96" pan="0" len="48" vol="100" />
          <note key="65" pos="144" pan="0" len="48" vol="100" />
          <note key="67" pos="192" pan="0" len="180" vol="100" />
          <note key="65" pos="372" pan="0" len="12" vol="55" />
          <note key="70" pos="384" pan="0" len="432" vol="100" />
          <note key="58" pos="816" pan="0" len="48" vol="100" />
          <note key="61" pos="864" pan="0" len="48" vol="100" />
          <note key="68" pos="912" pan="0" len="48" vol="100" />
          <note key="67" pos="960" pan="0" len="576" vol="100" />
        </pattern>
        <pattern pos="224268" muted="0" steps="16" name="" type="1">
          <note key="70" pos="0" pan="0" len="48" vol="100" />
        </pattern>
        <pattern pos="230412" muted="0" steps="16" name="" type="1">
          <note key="70" pos="0" pan="0" len="48" vol="100" />
        </pattern>
        <pattern pos="236556" muted="0" steps="16" name="" type="1">
          <note key="65" pos="0" pan="0" len="24" vol="100" />
          <note key="68" pos="24" pan="0" len="24" vol="100" />
          <note key="70" pos="48" pan="0" len="24" vol="100" />
          <note key="73" pos="72" pan="0" len="120" vol="100" />
        </pattern>
        <pattern pos="269388" muted="0" steps="16" name="" type="1">
          <note key="39" pos="0" pan="0" len="12" vol="77" />
          <note key="46" pos="12" pan="0" len="12" vol="20" />
          <note key="49" pos="24" pan="0" len="12" vol="41" />
          <note key="51" pos="36" pan="0" len="12" vol="77" />
          <note key="53" pos="48" pan="0" len="12" vol="20" />
          <note key="54" pos="60" pan="0" len="12" vol="41" />
          <note key="53" pos="72" pan="0" len="12" vol="77" />
          <note key="49" pos="84" pan="0" len="12" vol="77" />
          <note key="44" pos="96" pan="0" len="12" vol="77" />
          <note key="41" pos="108" pan="0" len="12" vol="77" />
          <note key="39" pos="120" pan="0" len="12" vol="20" />
          <note key="37" pos="132" pan="0" len="12" vol="41" />
          <note key="39" pos="144" pan="0" len="12" vol="77" />
          <note key="46" pos="156" pan="0" len="12" vol="20" />
          <note key="49" pos="168" pan="0" len="12" vol="41" />
          <note key="51" pos="180" pan="0" len="12" vol="77" />
          <note key="53" pos="192" pan="0" len="12" vol="41" />
          <note key="54" pos="204" pan="0" len="12" vol="61" />
          <note key="56" pos="216" pan="0" len="12" vol="77" />
          <note key="53" pos="228" pan="0" len="12" vol="77" />
          <note key="49" pos="240" pan="0" len="12" vol="77" />
          <note key="56" pos="252" pan="0" len="12" vol="77" />
          <note key="44" pos="264" pan="0" len="12" vol="20" />
          <note key="37" pos="276" pan="0" len="12" vol="41" />
          <note key="54" pos="288" pan="0" len="12" vol="77" />
          <note key="46" pos="300" pan="0" len="12" vol="20" />
          <note key="49" pos="312" pan="0" len="12" vol="41" />
          <note key="51" pos="324" pan="0" len="12" vol="77" />
          <note key="53" pos="336" pan="0" len="12" vol="20" />
          <note key="54" pos="348" pan="0" len="12" vol="41" />
          <note key="53" pos="360" pan="0" len="12" vol="77" />
          <note key="49" pos="372" pan="0" len="12" vol="20" />
          <note key="44" pos="384" pan="0" len="12" vol="41" />
          <note key="41" pos="396" pan="0" len="12" vol="77" />
          <note key="39" pos="408" pan="0" len="12" vol="41" />
          <note key="37" pos="420" pan="0" len="12" vol="61" />
          <note key="47" pos="432" pan="0" len="12" vol="77" />
          <note key="42" pos="444" pan="0" len="12" vol="20" />
          <note key="47" pos="456" pan="0" len="12" vol="41" />
          <note key="49" pos="468" pan="0" len="12" vol="77" />
          <note key="51" pos="480" pan="0" len="12" vol="41" />
          <note key="54" pos="492" pan="0" len="12" vol="61" />
          <note key="53" pos="504" pan="0" len="12" vol="77" />
          <note key="49" pos="516" pan="0" len="12" vol="20" />
          <note key="44" pos="528" pan="0" len="12" vol="41" />
          <note key="41" pos="540" pan="0" len="12" vol="77" />
          <note key="39" pos="552" pan="0" len="12" vol="77" />
          <note key="37" pos="564" pan="0" len="12" vol="77" />
          <note key="39" pos="576" pan="0" len="12" vol="77" />
          <note key="46" pos="588" pan="0" len="12" vol="20" />
          <note key="49" pos="600" pan="0" len="12" vol="41" />
          <note key="51" pos="612" pan="0" len="12" vol="77" />
          <note key="53" pos="624" pan="0" len="12" vol="20" />
          <note key="54" pos="636" pan="0" len="12" vol="41" />
          <note key="53" pos="648" pan="0" len="12" vol="77" />
          <note key="49" pos="660" pan="0" len="12" vol="77" />
          <note key="44" pos="672" pan="0" len="12" vol="77" />
          <note key="41" pos="684" pan="0" len="12" vol="77" />
          <note key="39" pos="696" pan="0" len="12" vol="20" />
          <note key="37" pos="708" pan="0" len="12" vol="41" />
          <note key="39" pos="720" pan="0" len="12" vol="77" />
          <note key="46" pos="732" pan="0" len="12" vol="20" />
          <note key="49" pos="744" pan="0" len="12" vol="41" />
          <note key="51" pos="756" pan="0" len="12" vol="77" />
          <note key="53" pos="768" pan="0" len="12" vol="41" />
          <note key="54" pos="780" pan="0" len="12" vol="61" />
          <note key="56" pos="792" pan="0" len="12" vol="77" />
          <note key="53" pos="804" pan="0" len="12" vol="77" />
          <note key="49" pos="816" pan="0" len="12" vol="77" />
          <note key="56" pos="828" pan="0" len="12" vol="77" />
          <note key="44" pos="840" pan="0" len="12" vol="20" />
          <note key="37" pos="852" pan="0" len="12" vol="41" />
          <note key="54" pos="864" pan="0" len="12" vol="77" />
          <note key="46" pos="876" pan="0" len="12" vol="20" />
          <note key="49" pos="888" pan="0" len="12" vol="41" />
          <note key="51" pos="900" pan="0" len="12" vol="77" />
          <note key="53" pos="912" pan="0" len="12" vol="20" />
          <note key="54" pos="924" pan="0" len="12" vol="41" />
          <note key="53" pos="936" pan="0" len="12" vol="77" />
          <note key="49" pos="948" pan="0" len="12" vol="20" />
          <note key="44" pos="960" pan="0" len="12" vol="41" />
          <note key="41" pos="972" pan="0" len="12" vol="77" />
          <note key="39" pos="984" pan="0" len="12" vol="41" />
          <note key="37" pos="996" pan="0" len="12" vol="61" />
          <note key="47" pos="1008" pan="0" len="12" vol="77" />
          <note key="42" pos="1020" pan="0" len="12" vol="20" />
          <note key="47" pos="1032" pan="0" len="12" vol="41" />
          <note key="49" pos="1044" pan="0" len="12" vol="77" />
          <note key="51" pos="1056" pan="0" len="12" vol="41" />
          <note key="54" pos="1068" pan="0" len="12" vol="61" />
          <note key="53" pos="1080" pan="0" len="12" vol="77" />
          <note key="49" pos="1092" pan="0" len="12" vol="20" />
          <note key="44" pos="1104" pan="0" len="12" vol="41" />
          <note key="41" pos="1116" pan="0" len="12" vol="77" />
          <note key="39" pos="1128" pan="0" len="12" vol="77" />
          <note key="37" pos="1140" pan="0" len="12" vol="77" />
        </pattern>
      </track>
      <track solo="0" name="13 (Ch10)" type="0" muted="0">
        <instrumenttrack usemasterpitch="1" pitch="0.0" basenote="57" pan="0" pitchrange="12" vol="30">
          <eldata />
          <instrument name="tripleoscillator" />
        </instrumenttrack>
        <pattern pos="251148" muted="0" steps="16" name="" type="1">
          <note key="62" pos="1200" pan="0" len="48" vol="100" />
          <note key="67" pos="1248" pan="0" len="96" vol="100" />
          <note key="65" pos="1344" pan="0" len="72" vol="100" />
          <note key="69" pos="1416" pan="0" len="72" vol="100" />
          <note key="64" pos="1488" pan="0" len="72" vol="100" />
          <note key="65" pos="1560" pan="0" len="72" vol="100" />
          <note key="60" pos="1632" pan="0" len="72" vol="100" />
          <note key="62" pos="1704" pan="0" len="72" vol="100" />
          <note key="58" pos="1776" pan="0" len="72" vol="100" />
          <note key="55" pos="1848" pan="0" len="72" vol="100" />
          <note key="53" pos="1920" pan="0" len="72" vol="100" />
          <note key="50" pos="1992" pan="0" len="312" vol="100" />
        </pattern>
        <pattern pos="16896" muted="0" steps="16" name="" type="1">
          <note key="55" pos="120" pan="0" len="24" vol="100" />
          <note key="51" pos="144" pan="0" len="48" vol="100" />
          <note key="48" pos="192" pan="0" len="264" vol="100" />
          <note key="58" pos="456" pan="0" len="24" vol="100" />
          <note key="57" pos="480" pan="0" len="72" vol="100" />
          <note key="58" pos="552" pan="0" len="24" vol="100" />
          <note key="55" pos="576" pan="0" len="72" vol="100" />
          <note key="53" pos="648" pan="0" len="144" vol="100" />
          <note key="58" pos="792" pan="0" len="24" vol="100" />
          <note key="60" pos="816" pan="0" len="24" vol="100" />
          <note key="63" pos="840" pan="0" len="336" vol="100" />
          <note key="63" pos="1176" pan="0" len="24" vol="100" />
          <note key="58" pos="1200" pan="0" len="120" vol="100" />
          <note key="63" pos="1320" pan="0" len="24" vol="100" />
          <note key="65" pos="1344" pan="0" len="192" vol="100" />
        </pattern>
        <pattern pos="169740" muted="0" steps="16" name="" type="1">
          <note key="72" pos="2112" pan="0" len="24" vol="100" />
          <note key="69" pos="2136" pan="0" len="24" vol="100" />
          <note key="67" pos="2160" pan="0" len="24" vol="100" />
          <note key="64" pos="2184" pan="0" len="24" vol="100" />
          <note key="60" pos="2208" pan="0" len="84" vol="100" />
        </pattern>
        <pattern pos="224268" muted="0" steps="16" name="" type="1">
          <note key="65" pos="552" pan="0" len="24" vol="100" />
          <note key="70" pos="576" pan="0" len="192" vol="100" />
        </pattern>
        <pattern pos="230412" muted="0" steps="16" name="" type="1">
          <note key="65" pos="552" pan="0" len="24" vol="100" />
          <note key="70" pos="576" pan="0" len="192" vol="100" />
        </pattern>
      </track>
      <track solo="0" name="13 (Ch11)" type="0" muted="0">
        <instrumenttrack usemasterpitch="1" pitch="0.0" basenote="57" pan="0" pitchrange="12" vol="30">
          <eldata />
          <instrument name="tripleoscillator" />
        </instrumenttrack>
        <pattern pos="241932" muted="0" steps="16" name="" type="1">
          <note key="70" pos="0" pan="0" len="36" vol="100" />
          <note key="58" pos="36" pan="0" len="120" vol="100" />
          <note key="51" pos="156" pan="0" len="12" vol="100" />
          <note key="56" pos="168" pan="0" len="12" vol="100" />
          <note key="63" pos="180" pan="0" len="204" vol="100" />
          <note key="65" pos="384" pan="0" len="36" vol="100" />
          <note key="60" pos="420" pan="0" len="108" vol="100" />
          <note key="51" pos="528" pan="0" len="12" vol="100" />
          <note key="61" pos="540" pan="0" len="12" vol="100" />
          <note key="60" pos="552" pan="0" len="12" vol="100" />
          <note key="56" pos="564" pan="0" len="204" vol="100" />
        </pattern>
        <pattern pos="35328" muted="0" steps="16" name="" type="1">
          <note key="67" pos="336" pan="0" len="24" vol="17" />
          <note key="76" pos="360" pan="0" len="24" vol="17" />
          <note key="72" pos="384" pan="0" len="720" vol="17" />
          <note key="67" pos="1104" pan="0" len="24" vol="17" />
          <note key="76" pos="1128" pan="0" len="24" vol="17" />
          <note key="72" pos="1152" pan="0" len="384" vol="17" />
        </pattern>
      </track>
      <track solo="0" name="13 (Ch12)" type="0" muted="0">
        <instrumenttrack usemasterpitch="1" pitch="0.0" basenote="57" pan="0" pitchrange="12" vol="30">
          <eldata />
          <instrument name="tripleoscillator" />
        </instrumenttrack>
        <pattern pos="105984" muted="0" steps="16" name="" type="1">
          <note key="50" pos="768" pan="0" len="24" vol="31" />
          <note key="53" pos="792" pan="0" len="24" vol="41" />
          <note key="52" pos="816" pan="0" len="24" vol="50" />
          <note key="55" pos="840" pan="0" len="24" vol="59" />
          <note key="53" pos="864" pan="0" len="24" vol="67" />
          <note key="57" pos="888" pan="0" len="24" vol="77" />
          <note key="55" pos="912" pan="0" len="24" vol="86" />
          <note key="60" pos="936" pan="0" len="24" vol="95" />
          <note key="65" pos="960" pan="0" len="24" vol="100" />
          <note key="67" pos="984" pan="0" len="24" vol="70" />
          <note key="69" pos="1008" pan="0" len="528" vol="100" />
        </pattern>
        <pattern pos="102912" muted="0" steps="16" name="" type="1">
          <note key="50" pos="768" pan="0" len="24" vol="31" />
          <note key="53" pos="792" pan="0" len="24" vol="41" />
          <note key="52" pos="816" pan="0" len="24" vol="50" />
          <note key="55" pos="840" pan="0" len="24" vol="59" />
          <note key="53" pos="864" pan="0" len="24" vol="67" />
          <note key="57" pos="888" pan="0" len="24" vol="77" />
          <note key="55" pos="912" pan="0" len="24" vol="86" />
          <note key="60" pos="936" pan="0" len="24" vol="95" />
          <note key="65" pos="960" pan="0" len="24" vol="100" />
          <note key="67" pos="984" pan="0" len="24" vol="70" />
          <note key="69" pos="1008" pan="0" len="528" vol="100" />
        </pattern>
      </track>
      <track solo="0" name="13 (Ch13)" type="0" muted="0">
        <instrumenttrack usemasterpitch="1" pitch="0.0" basenote="57" pan="0" pitchrange="12" vol="30">
          <eldata />
          <instrument name="tripleoscillator" />
        </instrumenttrack>
        <pattern pos="110592" muted="0" steps="16" name="" type="1">
          <note key="50" pos="624" pan="0" len="48" vol="100" />
          <note key="55" pos="672" pan="0" len="48" vol="100" />
          <note key="57" pos="720" pan="0" len="816" vol="100" />
        </pattern>
        <pattern pos="92160" muted="0" steps="16" name="" type="1">
          <note key="50" pos="624" pan="0" len="48" vol="100" />
          <note key="55" pos="672" pan="0" len="48" vol="100" />
          <note key="57" pos="720" pan="0" len="816" vol="100" />
        </pattern>
      </track>
      <track solo="0" name="13 (Ch14)" type="0" muted="0">
        <instrumenttrack usemasterpitch="1" pitch="0.0" basenote="57" pan="0" pitchrange="12" vol="30">
          <eldata />
          <instrument name="tripleoscillator" />
        </instrumenttrack>
        <pattern pos="110592" muted="0" steps="16" name="" type="1">
          <note key="60" pos="2160" pan="0" len="48" vol="100" />
          <note key="59" pos="2208" pan="0" len="48" vol="100" />
          <note key="62" pos="2256" pan="0" len="48" vol="100" />
          <note key="53" pos="2304" pan="0" len="768" vol="100" />
        </pattern>
        <pattern pos="92160" muted="0" steps="16" name="" type="1">
          <note key="60" pos="2160" pan="0" len="48" vol="100" />
          <note key="59" pos="2208" pan="0" len="48" vol="100" />
          <note key="62" pos="2256" pan="0" len="48" vol="100" />
          <note key="53" pos="2304" pan="0" len="768" vol="100" />
        </pattern>
      </track>
      <track solo="0" name="14 (Ch1)" type="0" muted="0">
        <instrumenttrack usemasterpitch="1" pitch="0.0" basenote="57" pan="0" pitchrange="12" vol="30">
          <eldata />
          <instrument name="tripleoscillator" />
        </instrumenttrack>
        <pattern pos="185100" muted="0" steps="16" name="" type="1">
          <note key="48" pos="0" pan="0" len="48" vol="100" />
          <note key="48" pos="72" pan="0" len="48" vol="100" />
          <note key="48" pos="192" pan="0" len="48" vol="100" />
          <note key="48" pos="264" pan="0" len="48" vol="100" />
          <note key="48" pos="384" pan="0" len="48" vol="100" />
          <note key="48" pos="456" pan="0" len="48" vol="100" />
          <note key="48" pos="576" pan="0" len="48" vol="100" />
          <note key="48" pos="648" pan="0" len="48" vol="100" />
          <note key="48" pos="768" pan="0" len="48" vol="100" />
          <note key="48" pos="840" pan="0" len="48" vol="100" />
          <note key="48" pos="960" pan="0" len="48" vol="100" />
          <note key="48" pos="1032" pan="0" len="48" vol="100" />
          <note key="48" pos="1152" pan="0" len="48" vol="100" />
          <note key="48" pos="1224" pan="0" len="48" vol="100" />
          <note key="48" pos="1344" pan="0" len="48" vol="100" />
          <note key="48" pos="1416" pan="0" len="48" vol="100" />
        </pattern>
        <pattern pos="53760" muted="0" steps="16" name="" type="1">
          <note key="57" pos="0" pan="0" len="504" vol="100" />
          <note key="50" pos="504" pan="0" len="12" vol="100" />
          <note key="50" pos="516" pan="0" len="12" vol="100" />
          <note key="50" pos="528" pan="0" len="240" vol="100" />
        </pattern>
      </track>
      <track solo="0" name="14 (Ch2)" type="0" muted="0">
        <instrumenttrack usemasterpitch="1" pitch="0.0" basenote="57" pan="0" pitchrange="12" vol="30">
          <eldata />
          <instrument name="tripleoscillator" />
        </instrumenttrack>
        <pattern pos="276444" muted="0" steps="16" name="" type="1">
          <note key="50" pos="0" pan="0" len="504" vol="100" />
        </pattern>
        <pattern pos="184332" muted="0" steps="16" name="" type="1">
          <note key="48" pos="0" pan="0" len="24" vol="100" />
          <note key="48" pos="24" pan="0" len="744" vol="100" />
        </pattern>
        <pattern pos="271692" muted="0" steps="16" name="" type="1">
          <note key="50" pos="0" pan="0" len="504" vol="100" />
        </pattern>
      </track>
      <track solo="0" name="14 (Ch4)" type="0" muted="0">
        <instrumenttrack usemasterpitch="1" pitch="0.0" basenote="57" pan="0" pitchrange="12" vol="30">
          <eldata />
          <instrument name="tripleoscillator" />
        </instrumenttrack>
        <pattern pos="279900" muted="0" steps="16" name="" type="1">
          <note key="48" pos="0" pan="0" len="60" vol="100" />
          <note key="48" pos="60" pan="0" len="12" vol="47" />
          <note key="48" pos="72" pan="0" len="60" vol="100" />
          <note key="48" pos="132" pan="0" len="12" vol="47" />
          <note key="48" pos="144" pan="0" len="432" vol="100" />
        </pattern>
        <pattern pos="27648" muted="0" steps="16" name="" type="1">
          <note key="58" pos="360" pan="0" len="12" vol="100" />
          <note key="58" pos="372" pan="0" len="12" vol="100" />
          <note key="58" pos="384" pan="0" len="48" vol="100" />
          <note key="58" pos="1128" pan="0" len="12" vol="100" />
          <note key="58" pos="1140" pan="0" len="12" vol="100" />
          <note key="58" pos="1152" pan="0" len="48" vol="100" />
        </pattern>
        <pattern pos="201228" muted="0" steps="16" name="" type="1">
          <note key="36" pos="0" pan="0" len="228" vol="100" />
          <note key="57" pos="228" pan="0" len="12" vol="100" />
          <note key="57" pos="240" pan="0" len="12" vol="100" />
          <note key="57" pos="252" pan="0" len="516" vol="100" />
        </pattern>
        <pattern pos="269388" muted="0" steps="16" name="" type="1">
          <note key="50" pos="1116" pan="0" len="12" vol="16" />
          <note key="50" pos="1128" pan="0" len="12" vol="31" />
          <note key="50" pos="1140" pan="0" len="12" vol="77" />
        </pattern>
        <pattern pos="277596" muted="0" steps="16" name="" type="1">
          <note key="48" pos="0" pan="0" len="60" vol="100" />
          <note key="48" pos="60" pan="0" len="12" vol="47" />
          <note key="48" pos="72" pan="0" len="60" vol="100" />
          <note key="48" pos="132" pan="0" len="12" vol="47" />
          <note key="48" pos="144" pan="0" len="60" vol="100" />
          <note key="48" pos="204" pan="0" len="12" vol="47" />
          <note key="48" pos="216" pan="0" len="60" vol="100" />
          <note key="48" pos="276" pan="0" len="12" vol="47" />
          <note key="48" pos="288" pan="0" len="60" vol="100" />
          <note key="48" pos="348" pan="0" len="12" vol="47" />
          <note key="48" pos="360" pan="0" len="60" vol="100" />
          <note key="48" pos="420" pan="0" len="12" vol="47" />
          <note key="48" pos="432" pan="0" len="60" vol="100" />
          <note key="48" pos="492" pan="0" len="12" vol="47" />
          <note key="48" pos="504" pan="0" len="60" vol="100" />
          <note key="48" pos="564" pan="0" len="12" vol="47" />
          <note key="48" pos="576" pan="0" len="60" vol="100" />
          <note key="48" pos="636" pan="0" len="12" vol="47" />
          <note key="48" pos="648" pan="0" len="60" vol="100" />
          <note key="48" pos="708" pan="0" len="12" vol="47" />
          <note key="48" pos="720" pan="0" len="60" vol="100" />
          <note key="48" pos="780" pan="0" len="12" vol="47" />
          <note key="48" pos="792" pan="0" len="60" vol="100" />
          <note key="48" pos="852" pan="0" len="12" vol="47" />
          <note key="48" pos="864" pan="0" len="60" vol="100" />
          <note key="48" pos="924" pan="0" len="12" vol="47" />
          <note key="48" pos="936" pan="0" len="60" vol="100" />
          <note key="48" pos="996" pan="0" len="12" vol="47" />
          <note key="48" pos="1008" pan="0" len="60" vol="100" />
          <note key="48" pos="1068" pan="0" len="12" vol="47" />
          <note key="48" pos="1080" pan="0" len="60" vol="100" />
          <note key="47" pos="1140" pan="0" len="1164" vol="47" />
        </pattern>
      </track>
      <track solo="0" name="14 (Ch5)" type="0" muted="0">
        <instrumenttrack usemasterpitch="1" pitch="0.0" basenote="57" pan="0" pitchrange="12" vol="30">
          <eldata />
          <instrument name="tripleoscillator" />
        </instrumenttrack>
        <pattern pos="192780" muted="0" steps="16" name="" type="1">
          <note key="45" pos="1440" pan="0" len="96" vol="100" />
        </pattern>
        <pattern pos="186636" muted="0" steps="16" name="" type="1">
          <note key="45" pos="1440" pan="0" len="96" vol="100" />
        </pattern>
      </track>
      <track solo="0" name="14 (Ch6)" type="0" muted="0">
        <instrumenttrack usemasterpitch="1" pitch="0.0" basenote="57" pan="0" pitchrange="12" vol="30">
          <eldata />
          <instrument name="tripleoscillator" />
        </instrumenttrack>
        <pattern pos="269388" muted="0" steps="16" name="" type="1">
          <note key="48" pos="0" pan="0" len="12" vol="100" />
          <note key="50" pos="60" pan="0" len="12" vol="47" />
          <note key="50" pos="72" pan="0" len="12" vol="100" />
          <note key="48" pos="132" pan="0" len="12" vol="47" />
          <note key="48" pos="144" pan="0" len="12" vol="100" />
          <note key="47" pos="204" pan="0" len="12" vol="47" />
          <note key="47" pos="216" pan="0" len="12" vol="100" />
          <note key="48" pos="276" pan="0" len="12" vol="47" />
          <note key="48" pos="288" pan="0" len="12" vol="100" />
          <note key="49" pos="348" pan="0" len="12" vol="47" />
          <note key="49" pos="360" pan="0" len="12" vol="100" />
          <note key="48" pos="420" pan="0" len="12" vol="47" />
          <note key="48" pos="432" pan="0" len="12" vol="100" />
          <note key="47" pos="492" pan="0" len="12" vol="47" />
          <note key="47" pos="504" pan="0" len="12" vol="100" />
          <note key="48" pos="564" pan="0" len="12" vol="47" />
          <note key="48" pos="576" pan="0" len="12" vol="100" />
          <note key="48" pos="636" pan="0" len="12" vol="47" />
          <note key="48" pos="648" pan="0" len="12" vol="100" />
          <note key="48" pos="708" pan="0" len="12" vol="47" />
          <note key="48" pos="720" pan="0" len="12" vol="100" />
          <note key="48" pos="780" pan="0" len="12" vol="47" />
          <note key="48" pos="792" pan="0" len="12" vol="100" />
          <note key="48" pos="852" pan="0" len="12" vol="47" />
          <note key="48" pos="864" pan="0" len="12" vol="100" />
          <note key="48" pos="924" pan="0" len="12" vol="47" />
          <note key="48" pos="936" pan="0" len="12" vol="100" />
          <note key="48" pos="996" pan="0" len="12" vol="47" />
          <note key="48" pos="1008" pan="0" len="12" vol="100" />
          <note key="48" pos="1068" pan="0" len="12" vol="47" />
          <note key="48" pos="1080" pan="0" len="12" vol="100" />
          <note key="48" pos="1140" pan="0" len="12" vol="47" />
        </pattern>
        <pattern pos="107520" muted="0" steps="16" name="" type="1">
          <note key="41" pos="0" pan="0" len="384" vol="100" />
          <note key="41" pos="384" pan="0" len="384" vol="100" />
          <note key="36" pos="768" pan="0" len="384" vol="100" />
          <note key="36" pos="1152" pan="0" len="384" vol="100" />
        </pattern>
        <pattern pos="109056" muted="0" steps="16" name="" type="1">
          <note key="41" pos="0" pan="0" len="384" vol="100" />
          <note key="41" pos="384" pan="0" len="384" vol="100" />
          <note key="36" pos="768" pan="0" len="384" vol="100" />
          <note key="36" pos="1152" pan="0" len="384" vol="100" />
        </pattern>
        <pattern pos="205068" muted="0" steps="16" name="" type="1">
          <note key="43" pos="0" pan="0" len="24" vol="100" />
          <note key="43" pos="24" pan="0" len="1512" vol="100" />
        </pattern>
        <pattern pos="268812" muted="0" steps="16" name="" type="1">
          <note key="48" pos="0" pan="0" len="60" vol="100" />
          <note key="48" pos="60" pan="0" len="12" vol="47" />
          <note key="48" pos="72" pan="0" len="60" vol="100" />
          <note key="48" pos="132" pan="0" len="12" vol="47" />
          <note key="48" pos="144" pan="0" len="60" vol="100" />
          <note key="48" pos="204" pan="0" len="12" vol="47" />
          <note key="48" pos="216" pan="0" len="60" vol="100" />
          <note key="48" pos="276" pan="0" len="12" vol="47" />
          <note key="48" pos="288" pan="0" len="60" vol="100" />
          <note key="48" pos="348" pan="0" len="12" vol="47" />
          <note key="48" pos="360" pan="0" len="60" vol="100" />
          <note key="48" pos="420" pan="0" len="12" vol="47" />
          <note key="48" pos="432" pan="0" len="60" vol="100" />
          <note key="48" pos="492" pan="0" len="12" vol="47" />
          <note key="48" pos="504" pan="0" len="60" vol="100" />
          <note key="48" pos="564" pan="0" len="12" vol="47" />
        </pattern>
      </track>
      <track solo="0" name="14 (Ch7)" type="0" muted="0">
        <instrumenttrack usemasterpitch="1" pitch="0.0" basenote="57" pan="0" pitchrange="12" vol="30">
          <eldata />
          <instrument name="tripleoscillator" />
        </instrumenttrack>
        <pattern pos="214284" muted="0" steps="16" name="" type="1">
          <note key="36" pos="0" pan="0" len="24" vol="100" />
          <note key="36" pos="24" pan="0" len="48" vol="100" />
          <note key="36" pos="192" pan="0" len="24" vol="100" />
          <note key="36" pos="216" pan="0" len="60" vol="100" />
          <note key="47" pos="360" pan="0" len="12" vol="100" />
          <note key="47" pos="372" pan="0" len="12" vol="100" />
          <note key="36" pos="384" pan="0" len="24" vol="100" />
          <note key="36" pos="408" pan="0" len="48" vol="100" />
          <note key="36" pos="576" pan="0" len="24" vol="100" />
          <note key="36" pos="600" pan="0" len="60" vol="100" />
          <note key="47" pos="744" pan="0" len="12" vol="100" />
          <note key="47" pos="756" pan="0" len="12" vol="100" />
          <note key="36" pos="768" pan="0" len="24" vol="100" />
          <note key="36" pos="792" pan="0" len="48" vol="100" />
          <note key="36" pos="960" pan="0" len="24" vol="100" />
          <note key="36" pos="984" pan="0" len="60" vol="100" />
          <note key="47" pos="1128" pan="0" len="12" vol="100" />
          <note key="47" pos="1140" pan="0" len="12" vol="100" />
          <note key="36" pos="1152" pan="0" len="24" vol="100" />
          <note key="36" pos="1176" pan="0" len="48" vol="100" />
          <note key="36" pos="1344" pan="0" len="24" vol="100" />
          <note key="36" pos="1368" pan="0" len="60" vol="100" />
          <note key="47" pos="1512" pan="0" len="12" vol="100" />
          <note key="47" pos="1524" pan="0" len="12" vol="100" />
        </pattern>
        <pattern pos="1536" muted="0" steps="16" name="" type="1">
          <note key="55" pos="360" pan="0" len="12" vol="100" />
          <note key="55" pos="372" pan="0" len="12" vol="100" />
          <note key="55" pos="384" pan="0" len="216" vol="100" />
        </pattern>
        <pattern pos="7680" muted="0" steps="16" name="" type="1">
          <note key="55" pos="168" pan="0" len="12" vol="100" />
          <note key="55" pos="180" pan="0" len="12" vol="100" />
          <note key="55" pos="192" pan="0" len="96" vol="100" />
        </pattern>
        <pattern pos="21504" muted="0" steps="16" name="" type="1">
          <note key="52" pos="0" pan="0" len="780" vol="100" />
        </pattern>
        <pattern pos="107520" muted="0" steps="16" name="" type="1">
          <note key="53" pos="0" pan="0" len="384" vol="100" />
          <note key="53" pos="384" pan="0" len="384" vol="100" />
          <note key="48" pos="768" pan="0" len="384" vol="100" />
          <note key="48" pos="1152" pan="0" len="384" vol="100" />
        </pattern>
        <pattern pos="109056" muted="0" steps="16" name="" type="1">
          <note key="53" pos="0" pan="0" len="384" vol="100" />
          <note key="53" pos="384" pan="0" len="384" vol="100" />
          <note key="48" pos="768" pan="0" len="384" vol="100" />
          <note key="48" pos="1152" pan="0" len="384" vol="100" />
        </pattern>
        <pattern pos="211212" muted="0" steps="16" name="" type="1">
          <note key="36" pos="0" pan="0" len="24" vol="100" />
          <note key="36" pos="24" pan="0" len="48" vol="100" />
          <note key="36" pos="192" pan="0" len="24" vol="100" />
          <note key="36" pos="216" pan="0" len="60" vol="100" />
          <note key="47" pos="360" pan="0" len="12" vol="100" />
          <note key="47" pos="372" pan="0" len="12" vol="100" />
          <note key="36" pos="384" pan="0" len="24" vol="100" />
          <note key="36" pos="408" pan="0" len="48" vol="100" />
          <note key="36" pos="576" pan="0" len="24" vol="100" />
          <note key="36" pos="600" pan="0" len="60" vol="100" />
          <note key="47" pos="744" pan="0" len="12" vol="100" />
          <note key="47" pos="756" pan="0" len="12" vol="100" />
          <note key="36" pos="768" pan="0" len="24" vol="100" />
          <note key="36" pos="792" pan="0" len="48" vol="100" />
          <note key="36" pos="960" pan="0" len="24" vol="100" />
          <note key="36" pos="984" pan="0" len="60" vol="100" />
          <note key="47" pos="1128" pan="0" len="12" vol="100" />
          <note key="47" pos="1140" pan="0" len="12" vol="100" />
          <note key="36" pos="1152" pan="0" len="24" vol="100" />
          <note key="36" pos="1176" pan="0" len="48" vol="100" />
          <note key="36" pos="1344" pan="0" len="24" vol="100" />
          <note key="36" pos="1368" pan="0" len="60" vol="100" />
          <note key="47" pos="1512" pan="0" len="12" vol="100" />
          <note key="47" pos="1524" pan="0" len="12" vol="100" />
        </pattern>
        <pattern pos="212748" muted="0" steps="16" name="" type="1">
          <note key="36" pos="0" pan="0" len="24" vol="100" />
          <note key="36" pos="24" pan="0" len="48" vol="100" />
          <note key="36" pos="192" pan="0" len="24" vol="100" />
          <note key="36" pos="216" pan="0" len="60" vol="100" />
          <note key="47" pos="360" pan="0" len="12" vol="100" />
          <note key="47" pos="372" pan="0" len="12" vol="100" />
          <note key="36" pos="384" pan="0" len="24" vol="100" />
          <note key="36" pos="408" pan="0" len="48" vol="100" />
          <note key="36" pos="576" pan="0" len="24" vol="100" />
          <note key="36" pos="600" pan="0" len="60" vol="100" />
          <note key="47" pos="744" pan="0" len="12" vol="100" />
          <note key="47" pos="756" pan="0" len="12" vol="100" />
          <note key="36" pos="768" pan="0" len="24" vol="100" />
          <note key="36" pos="792" pan="0" len="48" vol="100" />
          <note key="36" pos="960" pan="0" len="24" vol="100" />
          <note key="36" pos="984" pan="0" len="60" vol="100" />
          <note key="47" pos="1128" pan="0" len="12" vol="100" />
          <note key="47" pos="1140" pan="0" len="12" vol="100" />
          <note key="36" pos="1152" pan="0" len="24" vol="100" />
          <note key="36" pos="1176" pan="0" len="48" vol="100" />
          <note key="36" pos="1344" pan="0" len="24" vol="100" />
          <note key="36" pos="1368" pan="0" len="60" vol="100" />
          <note key="47" pos="1512" pan="0" len="12" vol="100" />
          <note key="47" pos="1524" pan="0" len="12" vol="100" />
        </pattern>
      </track>
      <track solo="0" name="14 (Ch8)" type="0" muted="0">
        <instrumenttrack usemasterpitch="1" pitch="0.0" basenote="57" pan="0" pitchrange="12" vol="30">
          <eldata />
          <instrument name="tripleoscillator" />
        </instrumenttrack>
        <pattern pos="272988" muted="0" steps="16" name="" type="1">
          <note key="39" pos="0" pan="0" len="132" vol="100" />
          <note key="39" pos="132" pan="0" len="12" vol="100" />
          <note key="39" pos="144" pan="0" len="144" vol="100" />
          <note key="39" pos="288" pan="0" len="132" vol="100" />
          <note key="39" pos="420" pan="0" len="12" vol="100" />
          <note key="39" pos="432" pan="0" len="144" vol="100" />
          <note key="39" pos="576" pan="0" len="132" vol="100" />
          <note key="39" pos="708" pan="0" len="12" vol="100" />
          <note key="39" pos="720" pan="0" len="144" vol="100" />
          <note key="39" pos="864" pan="0" len="132" vol="100" />
          <note key="39" pos="996" pan="0" len="12" vol="100" />
          <note key="39" pos="1008" pan="0" len="144" vol="100" />
        </pattern>
        <pattern pos="24576" muted="0" steps="16" name="" type="1">
          <note key="55" pos="756" pan="0" len="12" vol="100" />
          <note key="55" pos="768" pan="0" len="36" vol="100" />
        </pattern>
        <pattern pos="211212" muted="0" steps="16" name="" type="1">
          <note key="57" pos="96" pan="0" len="48" vol="100" />
          <note key="57" pos="288" pan="0" len="24" vol="100" />
          <note key="50" pos="312" pan="0" len="48" vol="100" />
          <note key="57" pos="480" pan="0" len="48" vol="100" />
          <note key="57" pos="672" pan="0" len="24" vol="100" />
          <note key="50" pos="696" pan="0" len="48" vol="100" />
          <note key="57" pos="864" pan="0" len="48" vol="100" />
          <note key="57" pos="1056" pan="0" len="24" vol="100" />
          <note key="50" pos="1080" pan="0" len="48" vol="100" />
          <note key="57" pos="1248" pan="0" len="48" vol="100" />
          <note key="57" pos="1440" pan="0" len="24" vol="100" />
          <note key="50" pos="1464" pan="0" len="48" vol="100" />
        </pattern>
        <pattern pos="212748" muted="0" steps="16" name="" type="1">
          <note key="57" pos="96" pan="0" len="48" vol="100" />
          <note key="57" pos="288" pan="0" len="24" vol="100" />
          <note key="50" pos="312" pan="0" len="48" vol="100" />
          <note key="57" pos="480" pan="0" len="48" vol="100" />
          <note key="57" pos="672" pan="0" len="24" vol="100" />
          <note key="50" pos="696" pan="0" len="48" vol="100" />
          <note key="57" pos="864" pan="0" len="48" vol="100" />
          <note key="57" pos="1056" pan="0" len="24" vol="100" />
          <note key="50" pos="1080" pan="0" len="48" vol="100" />
          <note key="57" pos="1248" pan="0" len="48" vol="100" />
          <note key="57" pos="1440" pan="0" len="24" vol="100" />
          <note key="50" pos="1464" pan="0" len="48" vol="100" />
        </pattern>
        <pattern pos="214284" muted="0" steps="16" name="" type="1">
          <note key="57" pos="96" pan="0" len="48" vol="100" />
          <note key="57" pos="288" pan="0" len="24" vol="100" />
          <note key="50" pos="312" pan="0" len="48" vol="100" />
          <note key="57" pos="480" pan="0" len="48" vol="100" />
          <note key="57" pos="672" pan="0" len="24" vol="100" />
          <note key="50" pos="696" pan="0" len="48" vol="100" />
          <note key="57" pos="864" pan="0" len="48" vol="100" />
          <note key="57" pos="1056" pan="0" len="24" vol="100" />
          <note key="50" pos="1080" pan="0" len="48" vol="100" />
          <note key="57" pos="1248" pan="0" len="48" vol="100" />
          <note key="57" pos="1440" pan="0" len="24" vol="100" />
          <note key="50" pos="1464" pan="0" len="48" vol="100" />
        </pattern>
      </track>
      <track solo="0" name="14 (Ch9)" type="0" muted="0">
        <instrumenttrack usemasterpitch="1" pitch="0.0" basenote="57" pan="0" pitchrange="12" vol="30">
          <eldata />
          <instrument name="tripleoscillator" />
        </instrumenttrack>
        <pattern pos="231948" muted="0" steps="16" name="" type="1">
          <note key="36" pos="0" pan="0" len="768" vol="100" />
        </pattern>
        <pattern pos="1536" muted="0" steps="16" name="" type="1">
          <note key="43" pos="0" pan="0" len="360" vol="100" />
          <note key="59" pos="360" pan="0" len="12" vol="100" />
          <note key="59" pos="372" pan="0" len="12" vol="100" />
          <note key="59" pos="384" pan="0" len="960" vol="100" />
        </pattern>
        <pattern pos="7680" muted="0" steps="16" name="" type="1">
          <note key="43" pos="0" pan="0" len="168" vol="100" />
          <note key="59" pos="168" pan="0" len="12" vol="100" />
          <note key="59" pos="180" pan="0" len="12" vol="100" />
          <note key="59" pos="192" pan="0" len="96" vol="100" />
        </pattern>
        <pattern pos="56448" muted="0" steps="16" name="" type="1">
          <note key="50" pos="0" pan="0" len="36" vol="34" />
          <note key="50" pos="36" pan="0" len="36" vol="34" />
          <note key="50" pos="72" pan="0" len="60" vol="100" />
          <note key="55" pos="132" pan="0" len="12" vol="100" />
          <note key="50" pos="144" pan="0" len="24" vol="100" />
          <note key="50" pos="168" pan="0" len="24" vol="100" />
          <note key="50" pos="192" pan="0" len="24" vol="100" />
          <note key="50" pos="216" pan="0" len="72" vol="100" />
          <note key="50" pos="288" pan="0" len="36" vol="34" />
          <note key="50" pos="324" pan="0" len="36" vol="34" />
          <note key="50" pos="360" pan="0" len="72" vol="100" />
          <note key="50" pos="432" pan="0" len="24" vol="100" />
          <note key="50" pos="456" pan="0" len="24" vol="100" />
          <note key="50" pos="480" pan="0" len="24" vol="100" />
          <note key="50" pos="504" pan="0" len="72" vol="100" />
          <note key="50" pos="576" pan="0" len="36" vol="100" />
          <note key="50" pos="612" pan="0" len="36" vol="34" />
          <note key="50" pos="648" pan="0" len="60" vol="100" />
          <note key="55" pos="708" pan="0" len="12" vol="100" />
          <note key="50" pos="720" pan="0" len="24" vol="100" />
          <note key="50" pos="744" pan="0" len="24" vol="100" />
          <note key="50" pos="768" pan="0" len="24" vol="100" />
          <note key="50" pos="792" pan="0" len="72" vol="100" />
          <note key="50" pos="864" pan="0" len="36" vol="100" />
          <note key="50" pos="900" pan="0" len="36" vol="34" />
          <note key="50" pos="936" pan="0" len="72" vol="100" />
          <note key="50" pos="1008" pan="0" len="24" vol="100" />
          <note key="50" pos="1032" pan="0" len="24" vol="100" />
          <note key="50" pos="1056" pan="0" len="24" vol="100" />
          <note key="50" pos="1080" pan="0" len="72" vol="100" />
        </pattern>
        <pattern pos="57600" muted="0" steps="16" name="" type="1">
          <note key="50" pos="0" pan="0" len="36" vol="100" />
          <note key="50" pos="36" pan="0" len="12" vol="100" />
          <note key="50" pos="48" pan="0" len="12" vol="100" />
          <note key="50" pos="60" pan="0" len="12" vol="100" />
          <note key="50" pos="72" pan="0" len="36" vol="100" />
          <note key="50" pos="108" pan="0" len="36" vol="100" />
          <note key="50" pos="144" pan="0" len="12" vol="100" />
          <note key="50" pos="156" pan="0" len="12" vol="100" />
          <note key="50" pos="168" pan="0" len="12" vol="100" />
          <note key="50" pos="180" pan="0" len="36" vol="100" />
          <note key="55" pos="216" pan="0" len="24" vol="100" />
          <note key="43" pos="240" pan="0" len="12" vol="100" />
          <note key="55" pos="252" pan="0" len="36" vol="100" />
          <note key="50" pos="288" pan="0" len="36" vol="100" />
          <note key="50" pos="324" pan="0" len="12" vol="100" />
          <note key="50" pos="336" pan="0" len="12" vol="100" />
          <note key="50" pos="348" pan="0" len="12" vol="100" />
          <note key="50" pos="360" pan="0" len="36" vol="100" />
          <note key="50" pos="396" pan="0" len="36" vol="100" />
          <note key="50" pos="432" pan="0" len="12" vol="100" />
          <note key="50" pos="444" pan="0" len="12" vol="100" />
          <note key="50" pos="456" pan="0" len="12" vol="100" />
          <note key="50" pos="468" pan="0" len="36" vol="100" />
          <note key="55" pos="504" pan="0" len="24" vol="100" />
          <note key="43" pos="528" pan="0" len="12" vol="100" />
          <note key="55" pos="540" pan="0" len="36" vol="100" />
          <note key="50" pos="576" pan="0" len="36" vol="100" />
          <note key="50" pos="612" pan="0" len="12" vol="100" />
          <note key="50" pos="624" pan="0" len="12" vol="100" />
          <note key="50" pos="636" pan="0" len="12" vol="100" />
          <note key="50" pos="648" pan="0" len="36" vol="100" />
          <note key="50" pos="684" pan="0" len="36" vol="100" />
          <note key="50" pos="720" pan="0" len="12" vol="100" />
          <note key="50" pos="732" pan="0" len="12" vol="100" />
          <note key="50" pos="744" pan="0" len="12" vol="100" />
          <note key="50" pos="756" pan="0" len="36" vol="100" />
          <note key="55" pos="792" pan="0" len="24" vol="100" />
          <note key="43" pos="816" pan="0" len="12" vol="100" />
          <note key="55" pos="828" pan="0" len="36" vol="100" />
          <note key="50" pos="864" pan="0" len="36" vol="100" />
          <note key="50" pos="900" pan="0" len="12" vol="100" />
          <note key="50" pos="912" pan="0" len="12" vol="100" />
          <note key="50" pos="924" pan="0" len="12" vol="100" />
          <note key="50" pos="936" pan="0" len="36" vol="100" />
          <note key="50" pos="972" pan="0" len="36" vol="100" />
          <note key="50" pos="1008" pan="0" len="12" vol="100" />
          <note key="50" pos="1020" pan="0" len="12" vol="100" />
          <note key="50" pos="1032" pan="0" len="12" vol="100" />
          <note key="50" pos="1044" pan="0" len="36" vol="100" />
          <note key="55" pos="1080" pan="0" len="24" vol="100" />
          <note key="43" pos="1104" pan="0" len="12" vol="100" />
          <note key="55" pos="1116" pan="0" len="36" vol="100" />
        </pattern>
        <pattern pos="58752" muted="0" steps="16" name="" type="1">
          <note key="50" pos="0" pan="0" len="36" vol="34" />
          <note key="50" pos="36" pan="0" len="36" vol="34" />
          <note key="50" pos="72" pan="0" len="60" vol="100" />
          <note key="55" pos="132" pan="0" len="12" vol="100" />
          <note key="50" pos="144" pan="0" len="24" vol="100" />
          <note key="50" pos="168" pan="0" len="24" vol="100" />
          <note key="50" pos="192" pan="0" len="24" vol="100" />
          <note key="50" pos="216" pan="0" len="72" vol="100" />
          <note key="50" pos="288" pan="0" len="36" vol="34" />
          <note key="50" pos="324" pan="0" len="36" vol="34" />
          <note key="50" pos="360" pan="0" len="72" vol="100" />
          <note key="50" pos="432" pan="0" len="24" vol="100" />
          <note key="50" pos="456" pan="0" len="24" vol="100" />
          <note key="50" pos="480" pan="0" len="24" vol="100" />
          <note key="50" pos="504" pan="0" len="72" vol="100" />
          <note key="50" pos="576" pan="0" len="36" vol="100" />
          <note key="50" pos="612" pan="0" len="36" vol="34" />
          <note key="50" pos="648" pan="0" len="60" vol="100" />
          <note key="55" pos="708" pan="0" len="12" vol="100" />
          <note key="50" pos="720" pan="0" len="24" vol="100" />
          <note key="50" pos="744" pan="0" len="24" vol="100" />
          <note key="50" pos="768" pan="0" len="24" vol="100" />
          <note key="50" pos="792" pan="0" len="36" vol="100" />
          <note key="50" pos="864" pan="0" len="36" vol="100" />
          <note key="50" pos="900" pan="0" len="36" vol="34" />
          <note key="50" pos="936" pan="0" len="72" vol="100" />
          <note key="50" pos="1008" pan="0" len="24" vol="100" />
          <note key="50" pos="1032" pan="0" len="24" vol="100" />
          <note key="50" pos="1056" pan="0" len="24" vol="100" />
          <note key="50" pos="1080" pan="0" len="72" vol="100" />
        </pattern>
        <pattern pos="59904" muted="0" steps="16" name="" type="1">
          <note key="50" pos="0" pan="0" len="36" vol="100" />
          <note key="50" pos="36" pan="0" len="12" vol="100" />
          <note key="50" pos="48" pan="0" len="12" vol="100" />
          <note key="50" pos="60" pan="0" len="12" vol="100" />
          <note key="50" pos="72" pan="0" len="36" vol="100" />
          <note key="50" pos="108" pan="0" len="36" vol="100" />
          <note key="50" pos="144" pan="0" len="12" vol="100" />
          <note key="50" pos="156" pan="0" len="12" vol="100" />
          <note key="50" pos="168" pan="0" len="12" vol="100" />
          <note key="50" pos="180" pan="0" len="36" vol="100" />
          <note key="55" pos="216" pan="0" len="24" vol="100" />
          <note key="43" pos="240" pan="0" len="12" vol="100" />
          <note key="55" pos="252" pan="0" len="36" vol="100" />
          <note key="50" pos="288" pan="0" len="36" vol="100" />
          <note key="50" pos="324" pan="0" len="12" vol="100" />
          <note key="50" pos="336" pan="0" len="12" vol="100" />
          <note key="50" pos="348" pan="0" len="12" vol="100" />
          <note key="50" pos="360" pan="0" len="36" vol="100" />
          <note key="50" pos="396" pan="0" len="36" vol="100" />
          <note key="50" pos="432" pan="0" len="12" vol="100" />
          <note key="50" pos="444" pan="0" len="12" vol="100" />
          <note key="50" pos="456" pan="0" len="12" vol="100" />
          <note key="50" pos="468" pan="0" len="36" vol="100" />
          <note key="55" pos="504" pan="0" len="24" vol="100" />
          <note key="43" pos="528" pan="0" len="12" vol="100" />
          <note key="55" pos="540" pan="0" len="36" vol="100" />
          <note key="50" pos="576" pan="0" len="36" vol="100" />
          <note key="50" pos="612" pan="0" len="12" vol="100" />
          <note key="50" pos="624" pan="0" len="12" vol="100" />
          <note key="50" pos="636" pan="0" len="12" vol="100" />
          <note key="50" pos="648" pan="0" len="36" vol="100" />
          <note key="50" pos="684" pan="0" len="36" vol="100" />
          <note key="50" pos="720" pan="0" len="12" vol="100" />
          <note key="50" pos="732" pan="0" len="12" vol="100" />
          <note key="50" pos="744" pan="0" len="12" vol="100" />
          <note key="50" pos="756" pan="0" len="36" vol="100" />
          <note key="55" pos="792" pan="0" len="24" vol="100" />
          <note key="43" pos="816" pan="0" len="12" vol="100" />
          <note key="55" pos="828" pan="0" len="36" vol="100" />
          <note key="50" pos="864" pan="0" len="36" vol="100" />
          <note key="50" pos="900" pan="0" len="12" vol="100" />
          <note key="50" pos="912" pan="0" len="12" vol="100" />
          <note key="50" pos="924" pan="0" len="12" vol="100" />
          <note key="50" pos="936" pan="0" len="36" vol="100" />
          <note key="50" pos="972" pan="0" len="36" vol="100" />
          <note key="50" pos="1008" pan="0" len="12" vol="100" />
          <note key="50" pos="1020" pan="0" len="12" vol="100" />
          <note key="50" pos="1032" pan="0" len="12" vol="100" />
          <note key="50" pos="1044" pan="0" len="36" vol="100" />
          <note key="55" pos="1080" pan="0" len="24" vol="100" />
          <note key="43" pos="1104" pan="0" len="12" vol="100" />
          <note key="55" pos="1116" pan="0" len="36" vol="100" />
        </pattern>
        <pattern pos="61056" muted="0" steps="16" name="" type="1">
          <note key="50" pos="0" pan="0" len="36" vol="100" />
          <note key="50" pos="36" pan="0" len="12" vol="100" />
          <note key="50" pos="48" pan="0" len="12" vol="100" />
          <note key="50" pos="60" pan="0" len="12" vol="100" />
          <note key="50" pos="72" pan="0" len="36" vol="100" />
          <note key="50" pos="108" pan="0" len="36" vol="100" />
          <note key="50" pos="144" pan="0" len="12" vol="100" />
          <note key="50" pos="156" pan="0" len="12" vol="100" />
          <note key="50" pos="168" pan="0" len="12" vol="100" />
          <note key="50" pos="180" pan="0" len="36" vol="100" />
          <note key="55" pos="216" pan="0" len="24" vol="100" />
          <note key="43" pos="240" pan="0" len="12" vol="100" />
          <note key="55" pos="252" pan="0" len="36" vol="100" />
          <note key="50" pos="288" pan="0" len="36" vol="100" />
          <note key="50" pos="324" pan="0" len="12" vol="100" />
          <note key="50" pos="336" pan="0" len="12" vol="100" />
          <note key="50" pos="348" pan="0" len="12" vol="100" />
          <note key="50" pos="360" pan="0" len="36" vol="100" />
          <note key="50" pos="396" pan="0" len="36" vol="100" />
          <note key="50" pos="432" pan="0" len="12" vol="100" />
          <note key="50" pos="444" pan="0" len="12" vol="100" />
          <note key="50" pos="456" pan="0" len="12" vol="100" />
          <note key="50" pos="468" pan="0" len="36" vol="100" />
          <note key="55" pos="504" pan="0" len="24" vol="100" />
          <note key="43" pos="528" pan="0" len="12" vol="100" />
          <note key="55" pos="540" pan="0" len="36" vol="100" />
          <note key="50" pos="576" pan="0" len="36" vol="100" />
          <note key="50" pos="612" pan="0" len="12" vol="100" />
          <note key="50" pos="624" pan="0" len="12" vol="100" />
          <note key="50" pos="636" pan="0" len="12" vol="100" />
          <note key="50" pos="648" pan="0" len="36" vol="100" />
          <note key="50" pos="684" pan="0" len="36" vol="100" />
          <note key="50" pos="720" pan="0" len="12" vol="100" />
          <note key="50" pos="732" pan="0" len="12" vol="100" />
          <note key="50" pos="744" pan="0" len="12" vol="100" />
          <note key="50" pos="756" pan="0" len="36" vol="100" />
          <note key="55" pos="792" pan="0" len="24" vol="100" />
          <note key="43" pos="816" pan="0" len="12" vol="100" />
          <note key="55" pos="828" pan="0" len="36" vol="100" />
          <note key="50" pos="864" pan="0" len="36" vol="100" />
          <note key="50" pos="900" pan="0" len="12" vol="100" />
          <note key="50" pos="912" pan="0" len="12" vol="100" />
          <note key="50" pos="924" pan="0" len="12" vol="100" />
          <note key="50" pos="936" pan="0" len="36" vol="100" />
          <note key="50" pos="972" pan="0" len="36" vol="100" />
          <note key="50" pos="1008" pan="0" len="12" vol="100" />
          <note key="50" pos="1020" pan="0" len="12" vol="100" />
          <note key="50" pos="1032" pan="0" len="12" vol="100" />
          <note key="50" pos="1044" pan="0" len="36" vol="100" />
          <note key="55" pos="1080" pan="0" len="24" vol="100" />
          <note key="43" pos="1104" pan="0" len="12" vol="100" />
          <note key="55" pos="1116" pan="0" len="36" vol="100" />
        </pattern>
        <pattern pos="62208" muted="0" steps="16" name="" type="1">
          <note key="50" pos="0" pan="0" len="36" vol="34" />
          <note key="50" pos="36" pan="0" len="36" vol="34" />
          <note key="50" pos="72" pan="0" len="60" vol="100" />
          <note key="55" pos="132" pan="0" len="12" vol="100" />
          <note key="50" pos="144" pan="0" len="24" vol="100" />
          <note key="50" pos="168" pan="0" len="24" vol="100" />
          <note key="50" pos="192" pan="0" len="24" vol="100" />
          <note key="50" pos="216" pan="0" len="72" vol="100" />
          <note key="50" pos="288" pan="0" len="36" vol="34" />
          <note key="50" pos="324" pan="0" len="36" vol="34" />
          <note key="50" pos="360" pan="0" len="72" vol="100" />
          <note key="50" pos="432" pan="0" len="24" vol="100" />
          <note key="50" pos="456" pan="0" len="24" vol="100" />
          <note key="50" pos="480" pan="0" len="24" vol="100" />
          <note key="50" pos="504" pan="0" len="72" vol="100" />
          <note key="50" pos="576" pan="0" len="36" vol="100" />
          <note key="50" pos="612" pan="0" len="36" vol="34" />
          <note key="50" pos="648" pan="0" len="60" vol="100" />
          <note key="55" pos="708" pan="0" len="12" vol="100" />
          <note key="50" pos="720" pan="0" len="24" vol="100" />
          <note key="50" pos="744" pan="0" len="24" vol="100" />
          <note key="50" pos="768" pan="0" len="24" vol="100" />
          <note key="50" pos="792" pan="0" len="36" vol="100" />
          <note key="50" pos="864" pan="0" len="36" vol="100" />
          <note key="50" pos="900" pan="0" len="36" vol="34" />
          <note key="50" pos="936" pan="0" len="72" vol="100" />
          <note key="50" pos="1008" pan="0" len="24" vol="100" />
          <note key="50" pos="1032" pan="0" len="24" vol="100" />
          <note key="50" pos="1056" pan="0" len="24" vol="100" />
          <note key="50" pos="1080" pan="0" len="72" vol="100" />
        </pattern>
        <pattern pos="63360" muted="0" steps="16" name="" type="1">
          <note key="50" pos="0" pan="0" len="36" vol="100" />
          <note key="50" pos="36" pan="0" len="12" vol="100" />
          <note key="50" pos="48" pan="0" len="12" vol="100" />
          <note key="50" pos="60" pan="0" len="12" vol="100" />
          <note key="50" pos="72" pan="0" len="36" vol="100" />
          <note key="50" pos="108" pan="0" len="36" vol="100" />
          <note key="50" pos="144" pan="0" len="12" vol="100" />
          <note key="50" pos="156" pan="0" len="12" vol="100" />
          <note key="50" pos="168" pan="0" len="12" vol="100" />
          <note key="50" pos="180" pan="0" len="36" vol="100" />
          <note key="55" pos="216" pan="0" len="24" vol="100" />
          <note key="43" pos="240" pan="0" len="12" vol="100" />
          <note key="55" pos="252" pan="0" len="36" vol="100" />
          <note key="50" pos="288" pan="0" len="36" vol="100" />
          <note key="50" pos="324" pan="0" len="12" vol="100" />
          <note key="50" pos="336" pan="0" len="12" vol="100" />
          <note key="50" pos="348" pan="0" len="12" vol="100" />
          <note key="50" pos="360" pan="0" len="36" vol="100" />
          <note key="50" pos="396" pan="0" len="36" vol="100" />
          <note key="50" pos="432" pan="0" len="12" vol="100" />
          <note key="50" pos="444" pan="0" len="12" vol="100" />
          <note key="50" pos="456" pan="0" len="12" vol="100" />
          <note key="50" pos="468" pan="0" len="36" vol="100" />
          <note key="55" pos="504" pan="0" len="24" vol="100" />
          <note key="43" pos="528" pan="0" len="12" vol="100" />
          <note key="55" pos="540" pan="0" len="36" vol="100" />
          <note key="50" pos="576" pan="0" len="36" vol="100" />
          <note key="50" pos="612" pan="0" len="12" vol="100" />
          <note key="50" pos="624" pan="0" len="12" vol="100" />
          <note key="50" pos="636" pan="0" len="12" vol="100" />
          <note key="50" pos="648" pan="0" len="36" vol="100" />
          <note key="50" pos="684" pan="0" len="36" vol="100" />
          <note key="50" pos="720" pan="0" len="12" vol="100" />
          <note key="50" pos="732" pan="0" len="12" vol="100" />
          <note key="50" pos="744" pan="0" len="12" vol="100" />
          <note key="50" pos="756" pan="0" len="36" vol="100" />
          <note key="55" pos="792" pan="0" len="24" vol="100" />
          <note key="43" pos="816" pan="0" len="12" vol="100" />
          <note key="55" pos="828" pan="0" len="36" vol="100" />
          <note key="50" pos="864" pan="0" len="36" vol="100" />
          <note key="50" pos="900" pan="0" len="12" vol="100" />
          <note key="50" pos="912" pan="0" len="12" vol="100" />
          <note key="50" pos="924" pan="0" len="12" vol="100" />
          <note key="50" pos="936" pan="0" len="36" vol="100" />
          <note key="50" pos="972" pan="0" len="36" vol="100" />
          <note key="50" pos="1008" pan="0" len="12" vol="100" />
          <note key="50" pos="1020" pan="0" len="12" vol="100" />
          <note key="50" pos="1032" pan="0" len="12" vol="100" />
          <note key="50" pos="1044" pan="0" len="36" vol="100" />
          <note key="55" pos="1080" pan="0" len="24" vol="100" />
          <note key="43" pos="1104" pan="0" len="12" vol="100" />
          <note key="55" pos="1116" pan="0" len="36" vol="100" />
        </pattern>
        <pattern pos="64512" muted="0" steps="16" name="" type="1">
          <note key="50" pos="0" pan="0" len="36" vol="100" />
          <note key="50" pos="36" pan="0" len="12" vol="100" />
          <note key="50" pos="48" pan="0" len="12" vol="100" />
          <note key="50" pos="60" pan="0" len="12" vol="100" />
          <note key="50" pos="72" pan="0" len="36" vol="100" />
          <note key="50" pos="108" pan="0" len="36" vol="100" />
          <note key="50" pos="144" pan="0" len="12" vol="100" />
          <note key="50" pos="156" pan="0" len="12" vol="100" />
          <note key="50" pos="168" pan="0" len="12" vol="100" />
          <note key="50" pos="180" pan="0" len="36" vol="100" />
          <note key="55" pos="216" pan="0" len="24" vol="100" />
          <note key="43" pos="240" pan="0" len="12" vol="100" />
          <note key="55" pos="252" pan="0" len="36" vol="100" />
          <note key="50" pos="288" pan="0" len="36" vol="100" />
          <note key="50" pos="324" pan="0" len="12" vol="100" />
          <note key="50" pos="336" pan="0" len="12" vol="100" />
          <note key="50" pos="348" pan="0" len="12" vol="100" />
          <note key="50" pos="360" pan="0" len="36" vol="100" />
          <note key="50" pos="396" pan="0" len="36" vol="100" />
          <note key="50" pos="432" pan="0" len="12" vol="100" />
          <note key="50" pos="444" pan="0" len="12" vol="100" />
          <note key="50" pos="456" pan="0" len="12" vol="100" />
          <note key="50" pos="468" pan="0" len="36" vol="100" />
          <note key="55" pos="504" pan="0" len="24" vol="100" />
          <note key="43" pos="528" pan="0" len="12" vol="100" />
          <note key="55" pos="540" pan="0" len="36" vol="100" />
          <note key="50" pos="576" pan="0" len="36" vol="100" />
          <note key="50" pos="612" pan="0" len="12" vol="100" />
          <note key="50" pos="624" pan="0" len="12" vol="100" />
          <note key="50" pos="636" pan="0" len="12" vol="100" />
          <note key="50" pos="648" pan="0" len="36" vol="100" />
          <note key="50" pos="684" pan="0" len="36" vol="100" />
          <note key="50" pos="720" pan="0" len="12" vol="100" />
          <note key="50" pos="732" pan="0" len="12" vol="100" />
          <note key="50" pos="744" pan="0" len="12" vol="100" />
          <note key="50" pos="756" pan="0" len="36" vol="100" />
          <note key="55" pos="792" pan="0" len="24" vol="100" />
          <note key="43" pos="816" pan="0" len="12" vol="100" />
          <note key="55" pos="828" pan="0" len="36" vol="100" />
          <note key="50" pos="864" pan="0" len="36" vol="100" />
          <note key="50" pos="900" pan="0" len="12" vol="100" />
          <note key="50" pos="912" pan="0" len="12" vol="100" />
          <note key="50" pos="924" pan="0" len="12" vol="100" />
          <note key="50" pos="936" pan="0" len="36" vol="100" />
          <note key="50" pos="972" pan="0" len="36" vol="100" />
          <note key="50" pos="1008" pan="0" len="12" vol="100" />
          <note key="50" pos="1020" pan="0" len="12" vol="100" />
          <note key="50" pos="1032" pan="0" len="12" vol="100" />
          <note key="50" pos="1044" pan="0" len="36" vol="100" />
          <note key="55" pos="1080" pan="0" len="24" vol="100" />
          <note key="43" pos="1104" pan="0" len="12" vol="100" />
          <note key="55" pos="1116" pan="0" len="36" vol="100" />
        </pattern>
        <pattern pos="65664" muted="0" steps="16" name="" type="1">
          <note key="50" pos="0" pan="0" len="36" vol="34" />
          <note key="50" pos="36" pan="0" len="36" vol="34" />
          <note key="50" pos="72" pan="0" len="60" vol="100" />
          <note key="55" pos="132" pan="0" len="12" vol="100" />
          <note key="50" pos="144" pan="0" len="24" vol="100" />
          <note key="50" pos="168" pan="0" len="24" vol="100" />
          <note key="50" pos="192" pan="0" len="24" vol="100" />
          <note key="50" pos="216" pan="0" len="72" vol="100" />
          <note key="50" pos="288" pan="0" len="36" vol="34" />
          <note key="50" pos="324" pan="0" len="36" vol="34" />
          <note key="50" pos="360" pan="0" len="72" vol="100" />
          <note key="50" pos="432" pan="0" len="24" vol="100" />
          <note key="50" pos="456" pan="0" len="24" vol="100" />
          <note key="50" pos="480" pan="0" len="24" vol="100" />
          <note key="50" pos="504" pan="0" len="72" vol="100" />
          <note key="50" pos="576" pan="0" len="36" vol="100" />
          <note key="50" pos="612" pan="0" len="36" vol="34" />
          <note key="50" pos="648" pan="0" len="60" vol="100" />
          <note key="55" pos="708" pan="0" len="12" vol="100" />
          <note key="50" pos="720" pan="0" len="24" vol="100" />
          <note key="50" pos="744" pan="0" len="24" vol="100" />
          <note key="50" pos="768" pan="0" len="24" vol="100" />
          <note key="50" pos="792" pan="0" len="72" vol="100" />
          <note key="50" pos="864" pan="0" len="36" vol="100" />
          <note key="50" pos="900" pan="0" len="36" vol="34" />
          <note key="50" pos="936" pan="0" len="72" vol="100" />
          <note key="50" pos="1008" pan="0" len="24" vol="100" />
          <note key="50" pos="1032" pan="0" len="24" vol="100" />
          <note key="50" pos="1056" pan="0" len="24" vol="100" />
          <note key="50" pos="1080" pan="0" len="72" vol="100" />
        </pattern>
        <pattern pos="66816" muted="0" steps="16" name="" type="1">
          <note key="48" pos="1152" pan="0" len="576" vol="100" />
          <note key="48" pos="1728" pan="0" len="336" vol="100" />
          <note key="53" pos="2064" pan="0" len="48" vol="100" />
          <note key="45" pos="2112" pan="0" len="48" vol="100" />
          <note key="53" pos="2160" pan="0" len="144" vol="100" />
        </pattern>
        <pattern pos="69120" muted="0" steps="16" name="" type="1">
          <note key="48" pos="0" pan="0" len="552" vol="100" />
          <note key="48" pos="552" pan="0" len="12" vol="100" />
          <note key="48" pos="564" pan="0" len="12" vol="100" />
          <note key="48" pos="576" pan="0" len="408" vol="100" />
          <note key="57" pos="984" pan="0" len="12" vol="100" />
          <note key="57" pos="996" pan="0" len="12" vol="100" />
          <note key="57" pos="1008" pan="0" len="120" vol="100" />
          <note key="48" pos="1128" pan="0" len="12" vol="100" />
          <note key="52" pos="1140" pan="0" len="12" vol="100" />
          <note key="53" pos="1152" pan="0" len="1152" vol="100" />
        </pattern>
        <pattern pos="71424" muted="0" steps="16" name="" type="1">
          <note key="48" pos="0" pan="0" len="552" vol="100" />
          <note key="48" pos="552" pan="0" len="12" vol="100" />
          <note key="48" pos="564" pan="0" len="12" vol="100" />
          <note key="48" pos="576" pan="0" len="408" vol="100" />
          <note key="57" pos="984" pan="0" len="12" vol="100" />
          <note key="57" pos="996" pan="0" len="12" vol="100" />
          <note key="57" pos="1008" pan="0" len="120" vol="100" />
          <note key="48" pos="1128" pan="0" len="12" vol="100" />
          <note key="52" pos="1140" pan="0" len="12" vol="100" />
          <note key="53" pos="1152" pan="0" len="1152" vol="100" />
        </pattern>
        <pattern pos="73728" muted="0" steps="16" name="" type="1">
          <note key="50" pos="0" pan="0" len="264" vol="100" />
          <note key="50" pos="264" pan="0" len="12" vol="100" />
          <note key="50" pos="276" pan="0" len="12" vol="100" />
          <note key="50" pos="288" pan="0" len="48" vol="100" />
          <note key="50" pos="552" pan="0" len="12" vol="100" />
          <note key="50" pos="564" pan="0" len="12" vol="100" />
          <note key="50" pos="576" pan="0" len="408" vol="100" />
          <note key="59" pos="984" pan="0" len="12" vol="100" />
          <note key="59" pos="996" pan="0" len="12" vol="100" />
          <note key="59" pos="1008" pan="0" len="72" vol="100" />
          <note key="53" pos="1080" pan="0" len="36" vol="100" />
          <note key="52" pos="1116" pan="0" len="12" vol="100" />
          <note key="50" pos="1128" pan="0" len="12" vol="100" />
          <note key="54" pos="1140" pan="0" len="12" vol="100" />
          <note key="53" pos="1152" pan="0" len="552" vol="100" />
          <note key="50" pos="1704" pan="0" len="12" vol="100" />
          <note key="50" pos="1716" pan="0" len="12" vol="100" />
          <note key="50" pos="1728" pan="0" len="408" vol="100" />
          <note key="59" pos="2136" pan="0" len="12" vol="100" />
          <note key="59" pos="2148" pan="0" len="12" vol="100" />
          <note key="59" pos="2160" pan="0" len="120" vol="100" />
          <note key="50" pos="2280" pan="0" len="12" vol="100" />
          <note key="54" pos="2292" pan="0" len="12" vol="100" />
        </pattern>
        <pattern pos="76032" muted="0" steps="16" name="" type="1">
          <note key="50" pos="0" pan="0" len="552" vol="100" />
          <note key="50" pos="552" pan="0" len="12" vol="100" />
          <note key="50" pos="564" pan="0" len="12" vol="100" />
          <note key="50" pos="576" pan="0" len="408" vol="100" />
          <note key="59" pos="984" pan="0" len="12" vol="100" />
          <note key="59" pos="996" pan="0" len="12" vol="100" />
          <note key="59" pos="1008" pan="0" len="72" vol="100" />
          <note key="53" pos="1080" pan="0" len="36" vol="100" />
          <note key="52" pos="1116" pan="0" len="12" vol="100" />
          <note key="50" pos="1128" pan="0" len="12" vol="100" />
          <note key="54" pos="1140" pan="0" len="12" vol="100" />
          <note key="50" pos="1704" pan="0" len="12" vol="100" />
          <note key="50" pos="1716" pan="0" len="12" vol="100" />
          <note key="50" pos="1728" pan="0" len="408" vol="100" />
          <note key="59" pos="2136" pan="0" len="12" vol="100" />
          <note key="59" pos="2148" pan="0" len="12" vol="100" />
          <note key="59" pos="2160" pan="0" len="120" vol="100" />
          <note key="50" pos="2280" pan="0" len="12" vol="100" />
          <note key="54" pos="2292" pan="0" len="12" vol="100" />
        </pattern>
        <pattern pos="78336" muted="0" steps="16" name="" type="1">
          <note key="48" pos="0" pan="0" len="72" vol="100" />
          <note key="52" pos="144" pan="0" len="72" vol="100" />
          <note key="52" pos="288" pan="0" len="72" vol="100" />
          <note key="48" pos="552" pan="0" len="12" vol="100" />
          <note key="48" pos="564" pan="0" len="12" vol="100" />
          <note key="48" pos="576" pan="0" len="72" vol="100" />
          <note key="52" pos="720" pan="0" len="72" vol="100" />
          <note key="52" pos="864" pan="0" len="72" vol="100" />
          <note key="48" pos="1128" pan="0" len="12" vol="100" />
          <note key="52" pos="1140" pan="0" len="12" vol="100" />
          <note key="48" pos="1152" pan="0" len="72" vol="100" />
          <note key="52" pos="1296" pan="0" len="72" vol="100" />
          <note key="52" pos="1440" pan="0" len="72" vol="100" />
          <note key="48" pos="1704" pan="0" len="12" vol="100" />
          <note key="48" pos="1716" pan="0" len="12" vol="100" />
          <note key="48" pos="1728" pan="0" len="72" vol="100" />
          <note key="52" pos="1872" pan="0" len="72" vol="100" />
          <note key="52" pos="2016" pan="0" len="72" vol="100" />
          <note key="48" pos="2280" pan="0" len="12" vol="100" />
          <note key="52" pos="2292" pan="0" len="12" vol="100" />
        </pattern>
        <pattern pos="80640" muted="0" steps="16" name="" type="1">
          <note key="48" pos="0" pan="0" len="72" vol="100" />
          <note key="52" pos="144" pan="0" len="72" vol="100" />
          <note key="52" pos="288" pan="0" len="72" vol="100" />
          <note key="48" pos="552" pan="0" len="12" vol="100" />
          <note key="48" pos="564" pan="0" len="12" vol="100" />
          <note key="48" pos="576" pan="0" len="72" vol="100" />
          <note key="52" pos="720" pan="0" len="72" vol="100" />
          <note key="52" pos="864" pan="0" len="72" vol="100" />
          <note key="48" pos="1128" pan="0" len="12" vol="100" />
          <note key="52" pos="1140" pan="0" len="12" vol="100" />
          <note key="48" pos="1152" pan="0" len="72" vol="100" />
          <note key="52" pos="1296" pan="0" len="72" vol="100" />
          <note key="52" pos="1440" pan="0" len="72" vol="100" />
          <note key="48" pos="1704" pan="0" len="12" vol="100" />
          <note key="48" pos="1716" pan="0" len="12" vol="100" />
          <note key="48" pos="1728" pan="0" len="72" vol="100" />
          <note key="52" pos="1872" pan="0" len="72" vol="100" />
          <note key="52" pos="2016" pan="0" len="72" vol="100" />
          <note key="48" pos="2280" pan="0" len="12" vol="100" />
          <note key="52" pos="2292" pan="0" len="12" vol="100" />
        </pattern>
        <pattern pos="82944" muted="0" steps="16" name="" type="1">
          <note key="48" pos="0" pan="0" len="72" vol="100" />
          <note key="52" pos="144" pan="0" len="72" vol="100" />
          <note key="52" pos="288" pan="0" len="72" vol="100" />
          <note key="48" pos="552" pan="0" len="12" vol="100" />
          <note key="48" pos="564" pan="0" len="12" vol="100" />
          <note key="48" pos="576" pan="0" len="72" vol="100" />
          <note key="52" pos="720" pan="0" len="72" vol="100" />
          <note key="52" pos="864" pan="0" len="72" vol="100" />
          <note key="48" pos="1128" pan="0" len="12" vol="100" />
          <note key="52" pos="1140" pan="0" len="12" vol="100" />
          <note key="48" pos="1152" pan="0" len="72" vol="100" />
          <note key="52" pos="1296" pan="0" len="72" vol="100" />
          <note key="52" pos="1440" pan="0" len="72" vol="100" />
          <note key="48" pos="1704" pan="0" len="12" vol="100" />
          <note key="48" pos="1716" pan="0" len="12" vol="100" />
          <note key="48" pos="1728" pan="0" len="72" vol="100" />
          <note key="52" pos="1872" pan="0" len="72" vol="100" />
          <note key="52" pos="2016" pan="0" len="72" vol="100" />
          <note key="48" pos="2280" pan="0" len="12" vol="100" />
          <note key="52" pos="2292" pan="0" len="12" vol="100" />
        </pattern>
        <pattern pos="85248" muted="0" steps="16" name="" type="1">
          <note key="50" pos="0" pan="0" len="264" vol="100" />
          <note key="50" pos="264" pan="0" len="12" vol="100" />
          <note key="50" pos="276" pan="0" len="12" vol="100" />
          <note key="50" pos="288" pan="0" len="48" vol="100" />
          <note key="50" pos="552" pan="0" len="12" vol="100" />
          <note key="50" pos="564" pan="0" len="12" vol="100" />
          <note key="50" pos="576" pan="0" len="408" vol="100" />
          <note key="59" pos="984" pan="0" len="12" vol="100" />
          <note key="59" pos="996" pan="0" len="12" vol="100" />
          <note key="59" pos="1008" pan="0" len="72" vol="100" />
          <note key="53" pos="1080" pan="0" len="36" vol="100" />
          <note key="52" pos="1116" pan="0" len="12" vol="100" />
          <note key="50" pos="1128" pan="0" len="12" vol="100" />
          <note key="54" pos="1140" pan="0" len="12" vol="100" />
          <note key="53" pos="1152" pan="0" len="552" vol="100" />
          <note key="50" pos="1704" pan="0" len="12" vol="100" />
          <note key="50" pos="1716" pan="0" len="12" vol="100" />
          <note key="50" pos="1728" pan="0" len="408" vol="100" />
          <note key="59" pos="2136" pan="0" len="12" vol="100" />
          <note key="59" pos="2148" pan="0" len="12" vol="100" />
          <note key="59" pos="2160" pan="0" len="120" vol="100" />
          <note key="50" pos="2280" pan="0" len="12" vol="100" />
          <note key="54" pos="2292" pan="0" len="12" vol="100" />
        </pattern>
        <pattern pos="87552" muted="0" steps="16" name="" type="1">
          <note key="48" pos="0" pan="0" len="72" vol="100" />
          <note key="52" pos="144" pan="0" len="72" vol="100" />
          <note key="52" pos="288" pan="0" len="72" vol="100" />
          <note key="48" pos="552" pan="0" len="12" vol="100" />
          <note key="48" pos="564" pan="0" len="12" vol="100" />
          <note key="48" pos="576" pan="0" len="72" vol="100" />
          <note key="52" pos="720" pan="0" len="72" vol="100" />
          <note key="52" pos="864" pan="0" len="72" vol="100" />
          <note key="48" pos="1128" pan="0" len="12" vol="100" />
          <note key="52" pos="1140" pan="0" len="12" vol="100" />
          <note key="48" pos="1152" pan="0" len="72" vol="100" />
          <note key="52" pos="1296" pan="0" len="72" vol="100" />
          <note key="52" pos="1440" pan="0" len="72" vol="100" />
          <note key="48" pos="1704" pan="0" len="12" vol="100" />
          <note key="48" pos="1716" pan="0" len="12" vol="100" />
          <note key="48" pos="1728" pan="0" len="72" vol="100" />
          <note key="52" pos="1872" pan="0" len="72" vol="100" />
          <note key="52" pos="2016" pan="0" len="72" vol="100" />
          <note key="48" pos="2280" pan="0" len="12" vol="100" />
          <note key="52" pos="2292" pan="0" len="12" vol="100" />
        </pattern>
        <pattern pos="89856" muted="0" steps="16" name="" type="1">
          <note key="48" pos="0" pan="0" len="72" vol="100" />
          <note key="52" pos="144" pan="0" len="72" vol="100" />
          <note key="52" pos="288" pan="0" len="72" vol="100" />
          <note key="48" pos="552" pan="0" len="12" vol="100" />
          <note key="48" pos="564" pan="0" len="12" vol="100" />
          <note key="48" pos="576" pan="0" len="72" vol="100" />
          <note key="52" pos="720" pan="0" len="72" vol="100" />
          <note key="52" pos="864" pan="0" len="72" vol="100" />
          <note key="48" pos="1128" pan="0" len="12" vol="100" />
          <note key="52" pos="1140" pan="0" len="12" vol="100" />
          <note key="48" pos="1152" pan="0" len="72" vol="100" />
          <note key="52" pos="1296" pan="0" len="72" vol="100" />
          <note key="52" pos="1440" pan="0" len="72" vol="100" />
          <note key="48" pos="1704" pan="0" len="12" vol="100" />
          <note key="48" pos="1716" pan="0" len="12" vol="100" />
          <note key="48" pos="1728" pan="0" len="72" vol="100" />
          <note key="52" pos="1872" pan="0" len="72" vol="100" />
          <note key="52" pos="2016" pan="0" len="72" vol="100" />
          <note key="48" pos="2280" pan="0" len="12" vol="100" />
          <note key="52" pos="2292" pan="0" len="12" vol="100" />
        </pattern>
        <pattern pos="206604" muted="0" steps="16" name="" type="1">
          <note key="48" pos="0" pan="0" len="1536" vol="100" />
        </pattern>
        <pattern pos="222732" muted="0" steps="16" name="" type="1">
          <note key="36" pos="0" pan="0" len="768" vol="100" />
        </pattern>
      </track>
      <track solo="0" name="14 (Ch10)" type="0" muted="0">
        <instrumenttrack usemasterpitch="1" pitch="0.0" basenote="57" pan="0" pitchrange="12" vol="30">
          <eldata />
          <instrument name="tripleoscillator" />
        </instrumenttrack>
        <pattern pos="217356" muted="0" steps="16" name="" type="1">
          <note key="36" pos="0" pan="0" len="24" vol="100" />
          <note key="36" pos="24" pan="0" len="48" vol="100" />
          <note key="36" pos="192" pan="0" len="24" vol="100" />
          <note key="36" pos="216" pan="0" len="60" vol="100" />
          <note key="47" pos="360" pan="0" len="12" vol="100" />
          <note key="47" pos="372" pan="0" len="12" vol="100" />
          <note key="36" pos="384" pan="0" len="24" vol="100" />
          <note key="36" pos="408" pan="0" len="48" vol="100" />
          <note key="36" pos="576" pan="0" len="24" vol="100" />
          <note key="36" pos="600" pan="0" len="60" vol="100" />
          <note key="47" pos="744" pan="0" len="12" vol="100" />
          <note key="47" pos="756" pan="0" len="12" vol="100" />
          <note key="36" pos="768" pan="0" len="24" vol="100" />
          <note key="36" pos="792" pan="0" len="48" vol="100" />
          <note key="36" pos="960" pan="0" len="24" vol="100" />
          <note key="36" pos="984" pan="0" len="60" vol="100" />
          <note key="47" pos="1128" pan="0" len="12" vol="100" />
          <note key="47" pos="1140" pan="0" len="12" vol="100" />
          <note key="36" pos="1152" pan="0" len="24" vol="100" />
          <note key="36" pos="1176" pan="0" len="48" vol="100" />
          <note key="36" pos="1344" pan="0" len="24" vol="100" />
          <note key="36" pos="1368" pan="0" len="60" vol="100" />
          <note key="47" pos="1512" pan="0" len="12" vol="100" />
          <note key="47" pos="1524" pan="0" len="12" vol="100" />
        </pattern>
        <pattern pos="6144" muted="0" steps="16" name="" type="1">
          <note key="48" pos="744" pan="0" len="12" vol="34" />
          <note key="48" pos="756" pan="0" len="12" vol="69" />
          <note key="48" pos="768" pan="0" len="768" vol="100" />
        </pattern>
        <pattern pos="7680" muted="0" steps="16" name="" type="1">
          <note key="57" pos="1536" pan="0" len="120" vol="100" />
          <note key="52" pos="1656" pan="0" len="72" vol="100" />
          <note key="55" pos="1728" pan="0" len="1152" vol="100" />
        </pattern>
        <pattern pos="10752" muted="0" steps="16" name="" type="1">
          <note key="48" pos="744" pan="0" len="12" vol="34" />
          <note key="48" pos="756" pan="0" len="12" vol="69" />
          <note key="48" pos="768" pan="0" len="768" vol="100" />
        </pattern>
        <pattern pos="122892" muted="0" steps="16" name="" type="1">
          <note key="46" pos="168" pan="0" len="12" vol="100" />
          <note key="47" pos="180" pan="0" len="12" vol="100" />
          <note key="48" pos="192" pan="0" len="96" vol="100" />
          <note key="52" pos="288" pan="0" len="1248" vol="50" />
        </pattern>
        <pattern pos="215820" muted="0" steps="16" name="" type="1">
          <note key="36" pos="0" pan="0" len="24" vol="100" />
          <note key="36" pos="24" pan="0" len="48" vol="100" />
          <note key="36" pos="192" pan="0" len="24" vol="100" />
          <note key="36" pos="216" pan="0" len="60" vol="100" />
          <note key="47" pos="360" pan="0" len="12" vol="100" />
          <note key="47" pos="372" pan="0" len="12" vol="100" />
          <note key="36" pos="384" pan="0" len="24" vol="100" />
          <note key="36" pos="408" pan="0" len="48" vol="100" />
          <note key="36" pos="576" pan="0" len="24" vol="100" />
          <note key="36" pos="600" pan="0" len="60" vol="100" />
          <note key="47" pos="744" pan="0" len="12" vol="100" />
          <note key="47" pos="756" pan="0" len="12" vol="100" />
          <note key="36" pos="768" pan="0" len="24" vol="100" />
          <note key="36" pos="792" pan="0" len="48" vol="100" />
          <note key="36" pos="960" pan="0" len="24" vol="100" />
          <note key="36" pos="984" pan="0" len="60" vol="100" />
          <note key="47" pos="1128" pan="0" len="12" vol="100" />
          <note key="47" pos="1140" pan="0" len="12" vol="100" />
          <note key="36" pos="1152" pan="0" len="24" vol="100" />
          <note key="36" pos="1176" pan="0" len="48" vol="100" />
          <note key="36" pos="1344" pan="0" len="24" vol="100" />
          <note key="36" pos="1368" pan="0" len="60" vol="100" />
          <note key="47" pos="1512" pan="0" len="12" vol="100" />
          <note key="47" pos="1524" pan="0" len="12" vol="100" />
        </pattern>
      </track>
      <track solo="0" name="14 (Ch11)" type="0" muted="0">
        <instrumenttrack usemasterpitch="1" pitch="0.0" basenote="57" pan="0" pitchrange="12" vol="30">
          <eldata />
          <instrument name="tripleoscillator" />
        </instrumenttrack>
        <pattern pos="217356" muted="0" steps="16" name="" type="1">
          <note key="57" pos="96" pan="0" len="48" vol="100" />
          <note key="57" pos="288" pan="0" len="24" vol="100" />
          <note key="50" pos="312" pan="0" len="48" vol="100" />
          <note key="57" pos="480" pan="0" len="48" vol="100" />
          <note key="57" pos="672" pan="0" len="24" vol="100" />
          <note key="50" pos="696" pan="0" len="48" vol="100" />
          <note key="57" pos="864" pan="0" len="48" vol="100" />
          <note key="57" pos="1056" pan="0" len="24" vol="100" />
          <note key="50" pos="1080" pan="0" len="48" vol="100" />
          <note key="57" pos="1248" pan="0" len="48" vol="100" />
          <note key="57" pos="1440" pan="0" len="24" vol="100" />
          <note key="50" pos="1464" pan="0" len="48" vol="100" />
        </pattern>
        <pattern pos="18432" muted="0" steps="16" name="" type="1">
          <note key="50" pos="0" pan="0" len="1296" vol="100" />
        </pattern>
        <pattern pos="19968" muted="0" steps="16" name="" type="1">
          <note key="55" pos="1500" pan="0" len="12" vol="100" />
          <note key="55" pos="1512" pan="0" len="12" vol="100" />
          <note key="55" pos="1524" pan="0" len="12" vol="100" />
        </pattern>
        <pattern pos="21504" muted="0" steps="16" name="" type="1">
          <note key="48" pos="0" pan="0" len="96" vol="100" />
        </pattern>
        <pattern pos="101376" muted="0" steps="16" name="" type="1">
          <note key="48" pos="0" pan="0" len="144" vol="100" />
          <note key="48" pos="144" pan="0" len="48" vol="100" />
          <note key="48" pos="192" pan="0" len="144" vol="100" />
          <note key="48" pos="336" pan="0" len="12" vol="16" />
          <note key="48" pos="348" pan="0" len="12" vol="31" />
          <note key="48" pos="360" pan="0" len="12" vol="62" />
          <note key="48" pos="372" pan="0" len="12" vol="78" />
          <note key="48" pos="384" pan="0" len="144" vol="100" />
          <note key="48" pos="528" pan="0" len="96" vol="100" />
          <note key="48" pos="768" pan="0" len="144" vol="100" />
          <note key="48" pos="912" pan="0" len="48" vol="100" />
          <note key="48" pos="960" pan="0" len="192" vol="100" />
          <note key="48" pos="1152" pan="0" len="144" vol="100" />
          <note key="48" pos="1296" pan="0" len="48" vol="100" />
          <note key="48" pos="1344" pan="0" len="192" vol="100" />
        </pattern>
        <pattern pos="102912" muted="0" steps="16" name="" type="1">
          <note key="48" pos="0" pan="0" len="144" vol="100" />
          <note key="48" pos="144" pan="0" len="48" vol="100" />
          <note key="48" pos="192" pan="0" len="192" vol="100" />
          <note key="48" pos="384" pan="0" len="144" vol="100" />
          <note key="48" pos="528" pan="0" len="48" vol="100" />
          <note key="48" pos="576" pan="0" len="192" vol="100" />
          <note key="48" pos="768" pan="0" len="144" vol="100" />
          <note key="48" pos="912" pan="0" len="48" vol="100" />
          <note key="48" pos="960" pan="0" len="192" vol="100" />
          <note key="48" pos="1152" pan="0" len="144" vol="100" />
          <note key="48" pos="1296" pan="0" len="48" vol="100" />
          <note key="48" pos="1344" pan="0" len="192" vol="100" />
        </pattern>
        <pattern pos="104448" muted="0" steps="16" name="" type="1">
          <note key="48" pos="0" pan="0" len="144" vol="100" />
          <note key="48" pos="144" pan="0" len="48" vol="100" />
          <note key="48" pos="192" pan="0" len="144" vol="100" />
          <note key="48" pos="336" pan="0" len="12" vol="16" />
          <note key="48" pos="348" pan="0" len="12" vol="31" />
          <note key="48" pos="360" pan="0" len="12" vol="62" />
          <note key="48" pos="372" pan="0" len="12" vol="78" />
          <note key="48" pos="384" pan="0" len="144" vol="100" />
          <note key="48" pos="528" pan="0" len="96" vol="100" />
          <note key="48" pos="768" pan="0" len="144" vol="100" />
          <note key="48" pos="912" pan="0" len="48" vol="100" />
          <note key="48" pos="960" pan="0" len="192" vol="100" />
          <note key="48" pos="1152" pan="0" len="144" vol="100" />
          <note key="48" pos="1296" pan="0" len="48" vol="100" />
          <note key="48" pos="1344" pan="0" len="192" vol="100" />
        </pattern>
        <pattern pos="105984" muted="0" steps="16" name="" type="1">
          <note key="48" pos="0" pan="0" len="144" vol="100" />
          <note key="48" pos="144" pan="0" len="48" vol="100" />
          <note key="48" pos="192" pan="0" len="192" vol="100" />
          <note key="48" pos="384" pan="0" len="144" vol="100" />
          <note key="48" pos="528" pan="0" len="48" vol="100" />
          <note key="48" pos="576" pan="0" len="192" vol="100" />
          <note key="48" pos="768" pan="0" len="144" vol="100" />
          <note key="48" pos="912" pan="0" len="48" vol="100" />
          <note key="48" pos="960" pan="0" len="192" vol="100" />
          <note key="48" pos="1152" pan="0" len="144" vol="100" />
          <note key="48" pos="1296" pan="0" len="48" vol="100" />
          <note key="48" pos="1344" pan="0" len="192" vol="100" />
        </pattern>
        <pattern pos="200460" muted="0" steps="16" name="" type="1">
          <note key="53" pos="0" pan="0" len="60" vol="100" />
          <note key="53" pos="60" pan="0" len="12" vol="100" />
          <note key="53" pos="72" pan="0" len="72" vol="100" />
          <note key="60" pos="240" pan="0" len="12" vol="100" />
          <note key="60" pos="252" pan="0" len="12" vol="100" />
          <note key="60" pos="264" pan="0" len="504" vol="100" />
        </pattern>
        <pattern pos="215820" muted="0" steps="16" name="" type="1">
          <note key="57" pos="96" pan="0" len="48" vol="100" />
          <note key="57" pos="288" pan="0" len="24" vol="100" />
          <note key="50" pos="312" pan="0" len="48" vol="100" />
          <note key="57" pos="480" pan="0" len="48" vol="100" />
          <note key="57" pos="672" pan="0" len="24" vol="100" />
          <note key="50" pos="696" pan="0" len="48" vol="100" />
          <note key="57" pos="864" pan="0" len="48" vol="100" />
          <note key="57" pos="1056" pan="0" len="24" vol="100" />
          <note key="50" pos="1080" pan="0" len="48" vol="100" />
          <note key="57" pos="1248" pan="0" len="48" vol="100" />
          <note key="57" pos="1440" pan="0" len="24" vol="100" />
          <note key="50" pos="1464" pan="0" len="48" vol="100" />
        </pattern>
      </track>
      <track solo="0" name="14 (Ch12)" type="0" muted="0">
        <instrumenttrack usemasterpitch="1" pitch="0.0" basenote="57" pan="0" pitchrange="12" vol="30">
          <eldata />
          <instrument name="tripleoscillator" />
        </instrumenttrack>
        <pattern pos="236556" muted="0" steps="16" name="" type="1">
          <note key="48" pos="0" pan="0" len="192" vol="100" />
        </pattern>
        <pattern pos="26112" muted="0" steps="16" name="" type="1">
          <note key="53" pos="0" pan="0" len="1536" vol="100" />
        </pattern>
        <pattern pos="50688" muted="0" steps="16" name="" type="1">
          <note key="48" pos="0" pan="0" len="168" vol="100" />
          <note key="48" pos="168" pan="0" len="12" vol="100" />
          <note key="48" pos="180" pan="0" len="12" vol="100" />
          <note key="48" pos="192" pan="0" len="168" vol="100" />
          <note key="48" pos="360" pan="0" len="24" vol="100" />
          <note key="48" pos="384" pan="0" len="168" vol="100" />
          <note key="48" pos="552" pan="0" len="12" vol="100" />
          <note key="48" pos="564" pan="0" len="12" vol="100" />
          <note key="48" pos="576" pan="0" len="168" vol="100" />
          <note key="48" pos="744" pan="0" len="24" vol="100" />
          <note key="48" pos="768" pan="0" len="168" vol="100" />
          <note key="48" pos="936" pan="0" len="12" vol="100" />
          <note key="48" pos="948" pan="0" len="12" vol="100" />
          <note key="48" pos="960" pan="0" len="168" vol="100" />
          <note key="48" pos="1128" pan="0" len="24" vol="100" />
          <note key="48" pos="1152" pan="0" len="168" vol="100" />
          <note key="48" pos="1320" pan="0" len="12" vol="100" />
          <note key="48" pos="1332" pan="0" len="12" vol="100" />
          <note key="48" pos="1344" pan="0" len="168" vol="100" />
          <note key="48" pos="1512" pan="0" len="24" vol="100" />
        </pattern>
        <pattern pos="52224" muted="0" steps="16" name="" type="1">
          <note key="48" pos="0" pan="0" len="168" vol="100" />
          <note key="48" pos="168" pan="0" len="12" vol="100" />
          <note key="48" pos="180" pan="0" len="12" vol="100" />
          <note key="48" pos="192" pan="0" len="168" vol="100" />
          <note key="48" pos="360" pan="0" len="24" vol="100" />
          <note key="48" pos="384" pan="0" len="168" vol="100" />
          <note key="48" pos="552" pan="0" len="12" vol="100" />
          <note key="48" pos="564" pan="0" len="12" vol="100" />
          <note key="48" pos="576" pan="0" len="168" vol="100" />
          <note key="48" pos="744" pan="0" len="24" vol="100" />
          <note key="48" pos="768" pan="0" len="168" vol="100" />
          <note key="48" pos="936" pan="0" len="12" vol="100" />
          <note key="48" pos="948" pan="0" len="12" vol="100" />
          <note key="48" pos="960" pan="0" len="168" vol="100" />
          <note key="48" pos="1128" pan="0" len="24" vol="100" />
          <note key="48" pos="1152" pan="0" len="168" vol="100" />
          <note key="48" pos="1320" pan="0" len="12" vol="100" />
          <note key="48" pos="1332" pan="0" len="12" vol="100" />
          <note key="48" pos="1344" pan="0" len="168" vol="100" />
          <note key="48" pos="1512" pan="0" len="24" vol="100" />
        </pattern>
        <pattern pos="92160" muted="0" steps="16" name="" type="1">
          <note key="49" pos="0" pan="0" len="720" vol="100" />
          <note key="48" pos="720" pan="0" len="48" vol="100" />
          <note key="48" pos="768" pan="0" len="768" vol="100" />
          <note key="49" pos="1536" pan="0" len="720" vol="100" />
          <note key="48" pos="2256" pan="0" len="24" vol="100" />
          <note key="48" pos="2280" pan="0" len="12" vol="31" />
          <note key="48" pos="2292" pan="0" len="12" vol="62" />
          <note key="48" pos="2304" pan="0" len="768" vol="100" />
        </pattern>
        <pattern pos="95232" muted="0" steps="16" name="" type="1">
          <note key="49" pos="0" pan="0" len="720" vol="100" />
          <note key="48" pos="720" pan="0" len="48" vol="100" />
          <note key="48" pos="768" pan="0" len="1536" vol="100" />
        </pattern>
        <pattern pos="110592" muted="0" steps="16" name="" type="1">
          <note key="49" pos="0" pan="0" len="720" vol="100" />
          <note key="48" pos="720" pan="0" len="48" vol="100" />
          <note key="48" pos="768" pan="0" len="768" vol="100" />
          <note key="49" pos="1536" pan="0" len="720" vol="100" />
          <note key="48" pos="2256" pan="0" len="24" vol="100" />
          <note key="48" pos="2280" pan="0" len="12" vol="31" />
          <note key="48" pos="2292" pan="0" len="12" vol="62" />
          <note key="48" pos="2304" pan="0" len="768" vol="100" />
        </pattern>
        <pattern pos="169740" muted="0" steps="16" name="" type="1">
          <note key="50" pos="528" pan="0" len="12" vol="100" />
          <note key="50" pos="540" pan="0" len="12" vol="100" />
          <note key="50" pos="552" pan="0" len="12" vol="100" />
          <note key="50" pos="564" pan="0" len="12" vol="100" />
          <note key="50" pos="576" pan="0" len="48" vol="100" />
        </pattern>
        <pattern pos="224268" muted="0" steps="16" name="" type="1">
          <note key="48" pos="0" pan="0" len="384" vol="100" />
          <note key="48" pos="384" pan="0" len="384" vol="100" />
          <note key="48" pos="768" pan="0" len="384" vol="100" />
          <note key="48" pos="1152" pan="0" len="384" vol="100" />
        </pattern>
        <pattern pos="230412" muted="0" steps="16" name="" type="1">
          <note key="48" pos="0" pan="0" len="384" vol="100" />
          <note key="48" pos="384" pan="0" len="384" vol="100" />
          <note key="48" pos="768" pan="0" len="384" vol="100" />
          <note key="48" pos="1152" pan="0" len="384" vol="100" />
        </pattern>
      </track>
      <track solo="0" name="14 (Ch13)" type="0" muted="0">
        <instrumenttrack usemasterpitch="1" pitch="0.0" basenote="57" pan="0" pitchrange="12" vol="30">
          <eldata />
          <instrument name="tripleoscillator" />
        </instrumenttrack>
        <pattern pos="274140" muted="0" steps="16" name="" type="1">
          <note key="45" pos="1152" pan="0" len="48" vol="100" />
          <note key="45" pos="1200" pan="0" len="12" vol="31" />
          <note key="45" pos="1212" pan="0" len="12" vol="62" />
          <note key="45" pos="1224" pan="0" len="72" vol="100" />
          <note key="45" pos="1296" pan="0" len="48" vol="100" />
          <note key="45" pos="1344" pan="0" len="12" vol="31" />
          <note key="45" pos="1356" pan="0" len="12" vol="62" />
          <note key="45" pos="1368" pan="0" len="72" vol="100" />
          <note key="45" pos="1440" pan="0" len="48" vol="100" />
          <note key="45" pos="1488" pan="0" len="12" vol="31" />
          <note key="45" pos="1500" pan="0" len="12" vol="62" />
          <note key="45" pos="1512" pan="0" len="72" vol="100" />
          <note key="45" pos="1584" pan="0" len="48" vol="100" />
          <note key="45" pos="1632" pan="0" len="12" vol="31" />
          <note key="45" pos="1644" pan="0" len="12" vol="62" />
          <note key="45" pos="1656" pan="0" len="72" vol="100" />
          <note key="45" pos="1728" pan="0" len="48" vol="100" />
          <note key="45" pos="1776" pan="0" len="12" vol="31" />
          <note key="45" pos="1788" pan="0" len="12" vol="62" />
          <note key="45" pos="1800" pan="0" len="72" vol="100" />
          <note key="45" pos="1872" pan="0" len="48" vol="100" />
          <note key="45" pos="1920" pan="0" len="12" vol="31" />
          <note key="45" pos="1932" pan="0" len="12" vol="62" />
          <note key="45" pos="1944" pan="0" len="72" vol="100" />
          <note key="45" pos="2016" pan="0" len="48" vol="100" />
          <note key="45" pos="2064" pan="0" len="12" vol="31" />
          <note key="45" pos="2076" pan="0" len="12" vol="62" />
          <note key="45" pos="2088" pan="0" len="72" vol="100" />
          <note key="45" pos="2160" pan="0" len="48" vol="100" />
          <note key="45" pos="2208" pan="0" len="12" vol="31" />
          <note key="45" pos="2220" pan="0" len="12" vol="62" />
          <note key="45" pos="2232" pan="0" len="72" vol="100" />
        </pattern>
        <pattern pos="10752" muted="0" steps="16" name="" type="1">
          <note key="48" pos="0" pan="0" len="384" vol="100" />
          <note key="48" pos="384" pan="0" len="384" vol="100" />
          <note key="53" pos="768" pan="0" len="48" vol="100" />
          <note key="41" pos="816" pan="0" len="48" vol="100" />
          <note key="48" pos="864" pan="0" len="72" vol="100" />
          <note key="52" pos="936" pan="0" len="12" vol="100" />
          <note key="52" pos="948" pan="0" len="12" vol="100" />
          <note key="52" pos="960" pan="0" len="72" vol="100" />
          <note key="36" pos="1032" pan="0" len="24" vol="100" />
          <note key="48" pos="1056" pan="0" len="48" vol="100" />
          <note key="48" pos="1104" pan="0" len="48" vol="100" />
          <note key="53" pos="1152" pan="0" len="48" vol="100" />
          <note key="41" pos="1200" pan="0" len="48" vol="100" />
          <note key="48" pos="1248" pan="0" len="48" vol="100" />
          <note key="48" pos="1296" pan="0" len="24" vol="100" />
          <note key="50" pos="1320" pan="0" len="24" vol="100" />
          <note key="53" pos="1344" pan="0" len="72" vol="100" />
          <note key="48" pos="1416" pan="0" len="24" vol="100" />
          <note key="53" pos="1440" pan="0" len="48" vol="100" />
          <note key="36" pos="1488" pan="0" len="12" vol="100" />
          <note key="43" pos="1500" pan="0" len="12" vol="100" />
          <note key="46" pos="1512" pan="0" len="12" vol="100" />
          <note key="48" pos="1524" pan="0" len="12" vol="100" />
        </pattern>
        <pattern pos="118272" muted="0" steps="16" name="" type="1">
          <note key="57" pos="0" pan="0" len="48" vol="100" />
          <note key="57" pos="48" pan="0" len="12" vol="100" />
          <note key="57" pos="60" pan="0" len="12" vol="100" />
          <note key="57" pos="72" pan="0" len="2232" vol="100" />
        </pattern>
        <pattern pos="169740" muted="0" steps="16" name="" type="1">
          <note key="48" pos="1344" pan="0" len="384" vol="100" />
        </pattern>
        <pattern pos="237324" muted="0" steps="16" name="" type="1">
          <note key="48" pos="0" pan="0" len="1044" vol="100" />
        </pattern>
        <pattern pos="243468" muted="0" steps="16" name="" type="1">
          <note key="48" pos="0" pan="0" len="84" vol="100" />
        </pattern>
        <pattern pos="267276" muted="0" steps="16" name="" type="1">
          <note key="48" pos="0" pan="0" len="12" vol="100" />
          <note key="48" pos="12" pan="0" len="12" vol="100" />
          <note key="48" pos="24" pan="0" len="72" vol="100" />
          <note key="48" pos="96" pan="0" len="96" vol="100" />
          <note key="48" pos="192" pan="0" len="24" vol="100" />
          <note key="48" pos="216" pan="0" len="48" vol="100" />
          <note key="48" pos="264" pan="0" len="24" vol="100" />
          <note key="48" pos="288" pan="0" len="84" vol="100" />
          <note key="48" pos="372" pan="0" len="12" vol="100" />
          <note key="48" pos="384" pan="0" len="12" vol="100" />
          <note key="48" pos="396" pan="0" len="12" vol="100" />
          <note key="48" pos="408" pan="0" len="12" vol="100" />
          <note key="48" pos="420" pan="0" len="12" vol="100" />
          <note key="48" pos="432" pan="0" len="12" vol="100" />
          <note key="48" pos="444" pan="0" len="12" vol="100" />
          <note key="48" pos="456" pan="0" len="312" vol="100" />
        </pattern>
        <pattern pos="268044" muted="0" steps="16" name="" type="1">
          <note key="48" pos="0" pan="0" len="12" vol="100" />
          <note key="48" pos="12" pan="0" len="12" vol="100" />
          <note key="48" pos="24" pan="0" len="744" vol="100" />
        </pattern>
      </track>
      <track solo="0" name="14 (Ch14)" type="0" muted="0">
        <instrumenttrack usemasterpitch="1" pitch="0.0" basenote="57" pan="0" pitchrange="12" vol="30">
          <eldata />
          <instrument name="tripleoscillator" />
        </instrumenttrack>
        <pattern pos="276444" muted="0" steps="16" name="" type="1">
          <note key="47" pos="1128" pan="0" len="12" vol="31" />
          <note key="47" pos="1140" pan="0" len="12" vol="62" />
        </pattern>
        <pattern pos="18432" muted="0" steps="16" name="" type="1">
          <note key="60" pos="1320" pan="0" len="12" vol="100" />
          <note key="60" pos="1332" pan="0" len="12" vol="100" />
          <note key="60" pos="1344" pan="0" len="192" vol="100" />
        </pattern>
        <pattern pos="21504" muted="0" steps="16" name="" type="1">
          <note key="55" pos="744" pan="0" len="12" vol="100" />
          <note key="55" pos="756" pan="0" len="12" vol="100" />
          <note key="55" pos="768" pan="0" len="744" vol="100" />
          <note key="55" pos="1512" pan="0" len="12" vol="100" />
          <note key="55" pos="1524" pan="0" len="12" vol="100" />
        </pattern>
        <pattern pos="23040" muted="0" steps="16" name="" type="1">
          <note key="55" pos="0" pan="0" len="672" vol="100" />
        </pattern>
        <pattern pos="54528" muted="0" steps="16" name="" type="1">
          <note key="53" pos="0" pan="0" len="72" vol="100" />
          <note key="53" pos="72" pan="0" len="12" vol="100" />
          <note key="53" pos="84" pan="0" len="12" vol="100" />
          <note key="53" pos="96" pan="0" len="24" vol="100" />
          <note key="53" pos="120" pan="0" len="36" vol="100" />
          <note key="53" pos="156" pan="0" len="12" vol="100" />
          <note key="53" pos="168" pan="0" len="60" vol="100" />
          <note key="53" pos="228" pan="0" len="12" vol="100" />
          <note key="53" pos="240" pan="0" len="60" vol="100" />
          <note key="53" pos="300" pan="0" len="12" vol="100" />
          <note key="53" pos="312" pan="0" len="48" vol="100" />
          <note key="53" pos="360" pan="0" len="12" vol="100" />
          <note key="53" pos="372" pan="0" len="12" vol="100" />
          <note key="53" pos="384" pan="0" len="384" vol="100" />
        </pattern>
        <pattern pos="73728" muted="0" steps="16" name="" type="1">
          <note key="57" pos="336" pan="0" len="48" vol="100" />
          <note key="52" pos="384" pan="0" len="48" vol="100" />
          <note key="57" pos="432" pan="0" len="720" vol="100" />
        </pattern>
        <pattern pos="85248" muted="0" steps="16" name="" type="1">
          <note key="57" pos="336" pan="0" len="48" vol="100" />
          <note key="52" pos="384" pan="0" len="48" vol="100" />
          <note key="57" pos="432" pan="0" len="720" vol="100" />
        </pattern>
        <pattern pos="162060" muted="0" steps="16" name="" type="1">
          <note key="48" pos="0" pan="0" len="84" vol="100" />
          <note key="48" pos="84" pan="0" len="12" vol="47" />
          <note key="48" pos="96" pan="0" len="96" vol="100" />
          <note key="48" pos="192" pan="0" len="84" vol="100" />
          <note key="48" pos="276" pan="0" len="12" vol="47" />
          <note key="48" pos="288" pan="0" len="96" vol="100" />
          <note key="48" pos="384" pan="0" len="84" vol="100" />
          <note key="48" pos="468" pan="0" len="12" vol="47" />
          <note key="48" pos="480" pan="0" len="96" vol="100" />
          <note key="48" pos="576" pan="0" len="84" vol="100" />
          <note key="48" pos="660" pan="0" len="12" vol="47" />
          <note key="48" pos="672" pan="0" len="96" vol="100" />
          <note key="48" pos="768" pan="0" len="84" vol="100" />
          <note key="48" pos="852" pan="0" len="12" vol="47" />
          <note key="48" pos="864" pan="0" len="96" vol="100" />
          <note key="48" pos="960" pan="0" len="84" vol="100" />
          <note key="48" pos="1044" pan="0" len="12" vol="47" />
          <note key="48" pos="1056" pan="0" len="96" vol="100" />
          <note key="48" pos="1152" pan="0" len="84" vol="100" />
          <note key="48" pos="1236" pan="0" len="12" vol="47" />
          <note key="48" pos="1248" pan="0" len="96" vol="100" />
          <note key="48" pos="1344" pan="0" len="84" vol="100" />
          <note key="48" pos="1428" pan="0" len="12" vol="47" />
          <note key="48" pos="1440" pan="0" len="96" vol="100" />
        </pattern>
        <pattern pos="237324" muted="0" steps="16" name="" type="1">
          <note key="36" pos="0" pan="0" len="1536" vol="100" />
        </pattern>
        <pattern pos="243468" muted="0" steps="16" name="" type="1">
          <note key="36" pos="0" pan="0" len="1536" vol="100" />
        </pattern>
        <pattern pos="245004" muted="0" steps="16" name="" type="1">
          <note key="36" pos="0" pan="0" len="1536" vol="100" />
        </pattern>
        <pattern pos="271692" muted="0" steps="16" name="" type="1">
          <note key="47" pos="1128" pan="0" len="12" vol="31" />
          <note key="47" pos="1140" pan="0" len="12" vol="62" />
        </pattern>
        <pattern pos="272844" muted="0" steps="16" name="" type="1">
          <note key="47" pos="0" pan="0" len="144" vol="100" />
        </pattern>
        <pattern pos="274140" muted="0" steps="16" name="" type="1">
          <note key="42" pos="0" pan="0" len="576" vol="100" />
        </pattern>
      </track>
      <track solo="0" name="14 (Ch15)" type="0" muted="0">
        <instrumenttrack usemasterpitch="1" pitch="0.0" basenote="57" pan="0" pitchrange="12" vol="30">
          <eldata />
          <instrument name="tripleoscillator" />
        </instrumenttrack>
        <pattern pos="248460" muted="0" steps="16" name="" type="1">
          <note key="48" pos="0" pan="0" len="96" vol="100" />
          <note key="48" pos="96" pan="0" len="288" vol="100" />
        </pattern>
        <pattern pos="12288" muted="0" steps="16" name="" type="1">
          <note key="48" pos="2592" pan="0" len="96" vol="100" />
          <note key="53" pos="2688" pan="0" len="384" vol="100" />
        </pattern>
        <pattern pos="23040" muted="0" steps="16" name="" type="1">
          <note key="57" pos="1512" pan="0" len="12" vol="100" />
          <note key="57" pos="1524" pan="0" len="12" vol="100" />
        </pattern>
        <pattern pos="24576" muted="0" steps="16" name="" type="1">
          <note key="57" pos="0" pan="0" len="372" vol="100" />
          <note key="55" pos="372" pan="0" len="12" vol="100" />
          <note key="55" pos="384" pan="0" len="216" vol="100" />
        </pattern>
        <pattern pos="38400" muted="0" steps="16" name="" type="1">
          <note key="55" pos="1320" pan="0" len="12" vol="100" />
          <note key="55" pos="1332" pan="0" len="12" vol="100" />
          <note key="55" pos="1344" pan="0" len="192" vol="100" />
        </pattern>
        <pattern pos="39936" muted="0" steps="16" name="" type="1">
          <note key="55" pos="0" pan="0" len="72" vol="100" />
          <note key="55" pos="72" pan="0" len="96" vol="100" />
          <note key="55" pos="168" pan="0" len="12" vol="100" />
          <note key="55" pos="180" pan="0" len="12" vol="100" />
          <note key="55" pos="192" pan="0" len="24" vol="100" />
          <note key="55" pos="216" pan="0" len="120" vol="100" />
          <note key="57" pos="336" pan="0" len="24" vol="100" />
          <note key="55" pos="360" pan="0" len="12" vol="100" />
          <note key="55" pos="372" pan="0" len="12" vol="100" />
          <note key="55" pos="384" pan="0" len="72" vol="100" />
          <note key="55" pos="456" pan="0" len="96" vol="100" />
          <note key="55" pos="552" pan="0" len="12" vol="100" />
          <note key="55" pos="564" pan="0" len="12" vol="100" />
          <note key="55" pos="576" pan="0" len="24" vol="100" />
          <note key="55" pos="600" pan="0" len="120" vol="100" />
          <note key="57" pos="720" pan="0" len="24" vol="100" />
          <note key="55" pos="744" pan="0" len="12" vol="100" />
          <note key="55" pos="756" pan="0" len="12" vol="100" />
          <note key="55" pos="768" pan="0" len="72" vol="100" />
          <note key="55" pos="840" pan="0" len="96" vol="100" />
          <note key="55" pos="936" pan="0" len="12" vol="100" />
          <note key="55" pos="948" pan="0" len="12" vol="100" />
          <note key="55" pos="960" pan="0" len="24" vol="100" />
          <note key="55" pos="984" pan="0" len="120" vol="100" />
          <note key="57" pos="1104" pan="0" len="24" vol="100" />
          <note key="55" pos="1128" pan="0" len="12" vol="100" />
          <note key="55" pos="1140" pan="0" len="12" vol="100" />
          <note key="55" pos="1152" pan="0" len="72" vol="100" />
          <note key="55" pos="1224" pan="0" len="96" vol="100" />
          <note key="55" pos="1320" pan="0" len="12" vol="100" />
          <note key="55" pos="1332" pan="0" len="12" vol="100" />
          <note key="55" pos="1344" pan="0" len="24" vol="100" />
          <note key="55" pos="1368" pan="0" len="120" vol="100" />
          <note key="57" pos="1488" pan="0" len="24" vol="100" />
          <note key="55" pos="1512" pan="0" len="12" vol="100" />
          <note key="55" pos="1524" pan="0" len="12" vol="100" />
        </pattern>
        <pattern pos="41472" muted="0" steps="16" name="" type="1">
          <note key="55" pos="0" pan="0" len="72" vol="100" />
          <note key="55" pos="72" pan="0" len="96" vol="100" />
          <note key="55" pos="168" pan="0" len="12" vol="100" />
          <note key="55" pos="180" pan="0" len="12" vol="100" />
          <note key="55" pos="192" pan="0" len="24" vol="100" />
          <note key="55" pos="216" pan="0" len="120" vol="100" />
          <note key="57" pos="336" pan="0" len="24" vol="100" />
          <note key="55" pos="360" pan="0" len="12" vol="100" />
          <note key="55" pos="372" pan="0" len="12" vol="100" />
          <note key="55" pos="384" pan="0" len="72" vol="100" />
          <note key="55" pos="456" pan="0" len="96" vol="100" />
          <note key="55" pos="552" pan="0" len="12" vol="100" />
          <note key="55" pos="564" pan="0" len="12" vol="100" />
          <note key="55" pos="576" pan="0" len="24" vol="100" />
          <note key="55" pos="600" pan="0" len="120" vol="100" />
          <note key="57" pos="720" pan="0" len="24" vol="100" />
          <note key="55" pos="744" pan="0" len="12" vol="100" />
          <note key="55" pos="756" pan="0" len="12" vol="100" />
          <note key="55" pos="768" pan="0" len="72" vol="100" />
          <note key="55" pos="840" pan="0" len="96" vol="100" />
          <note key="55" pos="936" pan="0" len="12" vol="100" />
          <note key="55" pos="948" pan="0" len="12" vol="100" />
          <note key="55" pos="960" pan="0" len="24" vol="100" />
          <note key="55" pos="984" pan="0" len="120" vol="100" />
          <note key="57" pos="1104" pan="0" len="24" vol="100" />
          <note key="55" pos="1128" pan="0" len="12" vol="100" />
          <note key="55" pos="1140" pan="0" len="12" vol="100" />
          <note key="55" pos="1152" pan="0" len="72" vol="100" />
          <note key="55" pos="1224" pan="0" len="96" vol="100" />
          <note key="55" pos="1320" pan="0" len="12" vol="100" />
          <note key="55" pos="1332" pan="0" len="12" vol="100" />
          <note key="55" pos="1344" pan="0" len="24" vol="100" />
          <note key="55" pos="1368" pan="0" len="120" vol="100" />
          <note key="57" pos="1488" pan="0" len="24" vol="100" />
          <note key="55" pos="1512" pan="0" len="12" vol="100" />
          <note key="55" pos="1524" pan="0" len="12" vol="100" />
        </pattern>
        <pattern pos="169740" muted="0" steps="16" name="" type="1">
          <note key="48" pos="1920" pan="0" len="132" vol="100" />
        </pattern>
        <pattern pos="218892" muted="0" steps="16" name="" type="1">
          <note key="48" pos="0" pan="0" len="24" vol="100" />
          <note key="48" pos="24" pan="0" len="48" vol="100" />
          <note key="36" pos="72" pan="0" len="1464" vol="100" />
        </pattern>
        <pattern pos="220428" muted="0" steps="16" name="" type="1">
          <note key="48" pos="0" pan="0" len="24" vol="100" />
          <note key="48" pos="24" pan="0" len="48" vol="100" />
          <note key="36" pos="72" pan="0" len="312" vol="100" />
        </pattern>
        <pattern pos="225804" muted="0" steps="16" name="" type="1">
          <note key="48" pos="0" pan="0" len="144" vol="100" />
          <note key="48" pos="144" pan="0" len="72" vol="100" />
          <note key="48" pos="216" pan="0" len="72" vol="100" />
          <note key="48" pos="288" pan="0" len="72" vol="100" />
          <note key="48" pos="360" pan="0" len="24" vol="100" />
          <note key="48" pos="384" pan="0" len="144" vol="100" />
          <note key="48" pos="528" pan="0" len="72" vol="100" />
          <note key="48" pos="600" pan="0" len="72" vol="100" />
          <note key="48" pos="672" pan="0" len="72" vol="100" />
          <note key="48" pos="744" pan="0" len="24" vol="100" />
          <note key="48" pos="768" pan="0" len="144" vol="100" />
          <note key="48" pos="912" pan="0" len="72" vol="100" />
          <note key="48" pos="984" pan="0" len="72" vol="100" />
          <note key="48" pos="1056" pan="0" len="72" vol="100" />
          <note key="48" pos="1128" pan="0" len="24" vol="100" />
          <note key="48" pos="1152" pan="0" len="144" vol="100" />
          <note key="48" pos="1296" pan="0" len="72" vol="100" />
          <note key="48" pos="1368" pan="0" len="72" vol="100" />
          <note key="48" pos="1440" pan="0" len="72" vol="100" />
          <note key="48" pos="1512" pan="0" len="24" vol="100" />
        </pattern>
        <pattern pos="227340" muted="0" steps="16" name="" type="1">
          <note key="48" pos="0" pan="0" len="48" vol="100" />
          <note key="48" pos="48" pan="0" len="24" vol="100" />
          <note key="48" pos="72" pan="0" len="48" vol="100" />
          <note key="48" pos="120" pan="0" len="24" vol="100" />
          <note key="48" pos="144" pan="0" len="48" vol="100" />
          <note key="48" pos="192" pan="0" len="48" vol="100" />
          <note key="48" pos="240" pan="0" len="24" vol="100" />
          <note key="48" pos="264" pan="0" len="48" vol="100" />
          <note key="48" pos="312" pan="0" len="48" vol="100" />
          <note key="48" pos="360" pan="0" len="24" vol="100" />
          <note key="48" pos="384" pan="0" len="48" vol="100" />
          <note key="48" pos="432" pan="0" len="24" vol="100" />
          <note key="48" pos="456" pan="0" len="48" vol="100" />
          <note key="48" pos="504" pan="0" len="24" vol="100" />
          <note key="48" pos="528" pan="0" len="48" vol="100" />
          <note key="48" pos="576" pan="0" len="48" vol="100" />
          <note key="48" pos="624" pan="0" len="24" vol="100" />
          <note key="48" pos="648" pan="0" len="48" vol="100" />
          <note key="48" pos="696" pan="0" len="48" vol="100" />
          <note key="48" pos="744" pan="0" len="24" vol="100" />
          <note key="48" pos="768" pan="0" len="48" vol="100" />
          <note key="48" pos="816" pan="0" len="24" vol="100" />
          <note key="48" pos="840" pan="0" len="48" vol="100" />
          <note key="48" pos="888" pan="0" len="24" vol="100" />
          <note key="48" pos="912" pan="0" len="48" vol="100" />
          <note key="48" pos="960" pan="0" len="48" vol="100" />
          <note key="48" pos="1008" pan="0" len="24" vol="100" />
          <note key="48" pos="1032" pan="0" len="48" vol="100" />
          <note key="48" pos="1080" pan="0" len="48" vol="100" />
          <note key="48" pos="1128" pan="0" len="24" vol="100" />
          <note key="48" pos="1152" pan="0" len="48" vol="100" />
          <note key="48" pos="1200" pan="0" len="24" vol="100" />
          <note key="48" pos="1224" pan="0" len="48" vol="100" />
          <note key="48" pos="1272" pan="0" len="24" vol="100" />
          <note key="48" pos="1296" pan="0" len="48" vol="100" />
          <note key="48" pos="1344" pan="0" len="48" vol="100" />
          <note key="48" pos="1392" pan="0" len="24" vol="100" />
          <note key="48" pos="1416" pan="0" len="48" vol="100" />
          <note key="48" pos="1464" pan="0" len="48" vol="100" />
          <note key="48" pos="1512" pan="0" len="24" vol="100" />
        </pattern>
        <pattern pos="228876" muted="0" steps="16" name="" type="1">
          <note key="48" pos="0" pan="0" len="48" vol="100" />
          <note key="48" pos="48" pan="0" len="24" vol="100" />
          <note key="48" pos="72" pan="0" len="48" vol="100" />
          <note key="48" pos="120" pan="0" len="24" vol="100" />
          <note key="48" pos="144" pan="0" len="48" vol="100" />
          <note key="48" pos="192" pan="0" len="48" vol="100" />
          <note key="48" pos="240" pan="0" len="24" vol="100" />
          <note key="48" pos="264" pan="0" len="48" vol="100" />
          <note key="48" pos="312" pan="0" len="48" vol="100" />
          <note key="48" pos="360" pan="0" len="24" vol="100" />
          <note key="48" pos="384" pan="0" len="48" vol="100" />
          <note key="48" pos="432" pan="0" len="24" vol="100" />
          <note key="48" pos="456" pan="0" len="48" vol="100" />
          <note key="48" pos="504" pan="0" len="24" vol="100" />
          <note key="48" pos="528" pan="0" len="48" vol="100" />
          <note key="48" pos="576" pan="0" len="48" vol="100" />
          <note key="48" pos="624" pan="0" len="24" vol="100" />
          <note key="48" pos="648" pan="0" len="48" vol="100" />
          <note key="48" pos="696" pan="0" len="48" vol="100" />
          <note key="48" pos="744" pan="0" len="24" vol="100" />
          <note key="48" pos="768" pan="0" len="48" vol="100" />
          <note key="48" pos="816" pan="0" len="24" vol="100" />
          <note key="48" pos="840" pan="0" len="48" vol="100" />
          <note key="48" pos="888" pan="0" len="24" vol="100" />
          <note key="48" pos="912" pan="0" len="48" vol="100" />
          <note key="48" pos="960" pan="0" len="48" vol="100" />
          <note key="48" pos="1008" pan="0" len="24" vol="100" />
          <note key="48" pos="1032" pan="0" len="48" vol="100" />
          <note key="48" pos="1080" pan="0" len="48" vol="100" />
          <note key="48" pos="1128" pan="0" len="24" vol="100" />
          <note key="48" pos="1152" pan="0" len="48" vol="100" />
          <note key="48" pos="1200" pan="0" len="24" vol="100" />
          <note key="48" pos="1224" pan="0" len="48" vol="100" />
          <note key="48" pos="1272" pan="0" len="24" vol="100" />
          <note key="48" pos="1296" pan="0" len="48" vol="100" />
          <note key="48" pos="1344" pan="0" len="48" vol="100" />
          <note key="48" pos="1392" pan="0" len="24" vol="100" />
          <note key="48" pos="1416" pan="0" len="48" vol="100" />
          <note key="48" pos="1464" pan="0" len="48" vol="100" />
          <note key="48" pos="1512" pan="0" len="24" vol="100" />
        </pattern>
        <pattern pos="235020" muted="0" steps="16" name="" type="1">
          <note key="48" pos="0" pan="0" len="48" vol="100" />
          <note key="48" pos="48" pan="0" len="24" vol="100" />
          <note key="48" pos="72" pan="0" len="48" vol="100" />
          <note key="48" pos="120" pan="0" len="24" vol="100" />
          <note key="48" pos="144" pan="0" len="48" vol="100" />
          <note key="48" pos="192" pan="0" len="48" vol="100" />
          <note key="48" pos="240" pan="0" len="24" vol="100" />
          <note key="48" pos="264" pan="0" len="48" vol="100" />
          <note key="48" pos="312" pan="0" len="48" vol="100" />
          <note key="48" pos="360" pan="0" len="24" vol="100" />
          <note key="48" pos="384" pan="0" len="48" vol="100" />
          <note key="48" pos="432" pan="0" len="24" vol="100" />
          <note key="48" pos="456" pan="0" len="48" vol="100" />
          <note key="48" pos="504" pan="0" len="24" vol="100" />
          <note key="48" pos="528" pan="0" len="48" vol="100" />
          <note key="48" pos="576" pan="0" len="48" vol="100" />
          <note key="48" pos="624" pan="0" len="24" vol="100" />
          <note key="48" pos="648" pan="0" len="48" vol="100" />
          <note key="48" pos="696" pan="0" len="48" vol="100" />
          <note key="48" pos="744" pan="0" len="24" vol="100" />
          <note key="48" pos="768" pan="0" len="48" vol="100" />
          <note key="48" pos="816" pan="0" len="24" vol="100" />
          <note key="48" pos="840" pan="0" len="48" vol="100" />
          <note key="48" pos="888" pan="0" len="24" vol="100" />
          <note key="48" pos="912" pan="0" len="48" vol="100" />
          <note key="48" pos="960" pan="0" len="48" vol="100" />
          <note key="48" pos="1008" pan="0" len="24" vol="100" />
          <note key="48" pos="1032" pan="0" len="48" vol="100" />
          <note key="48" pos="1080" pan="0" len="48" vol="100" />
          <note key="48" pos="1128" pan="0" len="24" vol="100" />
          <note key="48" pos="1152" pan="0" len="48" vol="100" />
          <note key="48" pos="1200" pan="0" len="24" vol="100" />
          <note key="48" pos="1224" pan="0" len="48" vol="100" />
          <note key="48" pos="1272" pan="0" len="24" vol="100" />
          <note key="48" pos="1296" pan="0" len="48" vol="100" />
          <note key="48" pos="1344" pan="0" len="48" vol="100" />
          <note key="48" pos="1392" pan="0" len="24" vol="100" />
          <note key="48" pos="1416" pan="0" len="48" vol="100" />
          <note key="48" pos="1464" pan="0" len="48" vol="100" />
          <note key="48" pos="1512" pan="0" len="24" vol="100" />
        </pattern>
        <pattern pos="246540" muted="0" steps="16" name="" type="1">
          <note key="48" pos="0" pan="0" len="1536" vol="100" />
        </pattern>
      </track>
      <track solo="0" name="14 (Ch16)" type="0" muted="0">
        <instrumenttrack usemasterpitch="1" pitch="0.0" basenote="57" pan="0" pitchrange="12" vol="30">
          <eldata />
          <instrument name="tripleoscillator" />
        </instrumenttrack>
        <pattern pos="120576" muted="0" steps="16" name="" type="1">
          <note key="45" pos="0" pan="0" len="72" vol="100" />
          <note key="45" pos="72" pan="0" len="60" vol="100" />
          <note key="45" pos="132" pan="0" len="12" vol="100" />
          <note key="45" pos="144" pan="0" len="60" vol="100" />
          <note key="45" pos="204" pan="0" len="12" vol="100" />
          <note key="45" pos="216" pan="0" len="24" vol="100" />
          <note key="45" pos="240" pan="0" len="48" vol="100" />
          <note key="45" pos="288" pan="0" len="72" vol="100" />
          <note key="45" pos="360" pan="0" len="60" vol="100" />
          <note key="45" pos="420" pan="0" len="12" vol="100" />
          <note key="45" pos="432" pan="0" len="60" vol="100" />
          <note key="45" pos="492" pan="0" len="12" vol="100" />
          <note key="45" pos="504" pan="0" len="24" vol="100" />
          <note key="45" pos="528" pan="0" len="48" vol="100" />
          <note key="45" pos="576" pan="0" len="72" vol="100" />
          <note key="45" pos="648" pan="0" len="60" vol="100" />
          <note key="45" pos="708" pan="0" len="12" vol="100" />
          <note key="45" pos="720" pan="0" len="60" vol="100" />
          <note key="45" pos="780" pan="0" len="12" vol="100" />
          <note key="45" pos="792" pan="0" len="24" vol="100" />
          <note key="45" pos="816" pan="0" len="48" vol="100" />
          <note key="45" pos="864" pan="0" len="72" vol="100" />
          <note key="45" pos="936" pan="0" len="60" vol="100" />
          <note key="45" pos="996" pan="0" len="12" vol="100" />
          <note key="45" pos="1008" pan="0" len="60" vol="100" />
          <note key="45" pos="1068" pan="0" len="12" vol="100" />
          <note key="45" pos="1080" pan="0" len="24" vol="100" />
          <note key="45" pos="1104" pan="0" len="48" vol="100" />
          <note key="45" pos="1152" pan="0" len="72" vol="100" />
          <note key="45" pos="1224" pan="0" len="60" vol="100" />
          <note key="45" pos="1284" pan="0" len="12" vol="100" />
          <note key="45" pos="1296" pan="0" len="60" vol="100" />
          <note key="45" pos="1356" pan="0" len="12" vol="100" />
          <note key="45" pos="1368" pan="0" len="24" vol="100" />
          <note key="45" pos="1392" pan="0" len="48" vol="100" />
          <note key="45" pos="1440" pan="0" len="72" vol="100" />
          <note key="45" pos="1512" pan="0" len="60" vol="100" />
          <note key="45" pos="1572" pan="0" len="12" vol="100" />
          <note key="45" pos="1584" pan="0" len="60" vol="100" />
          <note key="45" pos="1644" pan="0" len="12" vol="100" />
          <note key="45" pos="1656" pan="0" len="24" vol="100" />
          <note key="45" pos="1680" pan="0" len="48" vol="100" />
          <note key="45" pos="1728" pan="0" len="72" vol="100" />
          <note key="45" pos="1800" pan="0" len="60" vol="100" />
          <note key="45" pos="1860" pan="0" len="12" vol="100" />
          <note key="45" pos="1872" pan="0" len="60" vol="100" />
          <note key="45" pos="1932" pan="0" len="12" vol="100" />
          <note key="45" pos="1944" pan="0" len="24" vol="100" />
          <note key="45" pos="1968" pan="0" len="48" vol="100" />
          <note key="45" pos="2016" pan="0" len="72" vol="100" />
          <note key="45" pos="2088" pan="0" len="60" vol="100" />
          <note key="45" pos="2148" pan="0" len="12" vol="100" />
          <note key="45" pos="2160" pan="0" len="60" vol="100" />
          <note key="45" pos="2220" pan="0" len="12" vol="100" />
          <note key="45" pos="2232" pan="0" len="24" vol="100" />
          <note key="45" pos="2256" pan="0" len="48" vol="100" />
        </pattern>
        <pattern pos="23040" muted="0" steps="16" name="" type="1">
          <note key="52" pos="744" pan="0" len="12" vol="100" />
          <note key="52" pos="756" pan="0" len="12" vol="100" />
          <note key="52" pos="768" pan="0" len="768" vol="100" />
        </pattern>
        <pattern pos="85248" muted="0" steps="16" name="" type="1">
          <note key="48" pos="0" pan="0" len="72" vol="100" />
          <note key="52" pos="144" pan="0" len="72" vol="100" />
          <note key="52" pos="288" pan="0" len="72" vol="100" />
          <note key="48" pos="552" pan="0" len="12" vol="100" />
          <note key="48" pos="564" pan="0" len="12" vol="100" />
          <note key="48" pos="576" pan="0" len="72" vol="100" />
          <note key="52" pos="720" pan="0" len="72" vol="100" />
          <note key="52" pos="864" pan="0" len="72" vol="100" />
          <note key="48" pos="1128" pan="0" len="12" vol="100" />
          <note key="52" pos="1140" pan="0" len="12" vol="100" />
          <note key="48" pos="1152" pan="0" len="72" vol="100" />
          <note key="52" pos="1296" pan="0" len="72" vol="100" />
          <note key="52" pos="1440" pan="0" len="72" vol="100" />
          <note key="48" pos="1704" pan="0" len="12" vol="100" />
          <note key="48" pos="1716" pan="0" len="12" vol="100" />
          <note key="48" pos="1728" pan="0" len="72" vol="100" />
          <note key="52" pos="1872" pan="0" len="72" vol="100" />
          <note key="52" pos="2016" pan="0" len="72" vol="100" />
          <note key="48" pos="2280" pan="0" len="12" vol="100" />
          <note key="52" pos="2292" pan="0" len="12" vol="100" />
        </pattern>
        <pattern pos="97536" muted="0" steps="16" name="" type="1">
          <note key="49" pos="0" pan="0" len="720" vol="100" />
          <note key="48" pos="720" pan="0" len="48" vol="100" />
        </pattern>
        <pattern pos="98304" muted="0" steps="16" name="" type="1">
          <note key="49" pos="0" pan="0" len="720" vol="100" />
          <note key="48" pos="720" pan="0" len="48" vol="100" />
          <note key="48" pos="768" pan="0" len="768" vol="100" />
        </pattern>
        <pattern pos="99840" muted="0" steps="16" name="" type="1">
          <note key="49" pos="0" pan="0" len="720" vol="100" />
          <note key="48" pos="720" pan="0" len="48" vol="100" />
          <note key="48" pos="768" pan="0" len="768" vol="100" />
        </pattern>
        <pattern pos="118272" muted="0" steps="16" name="" type="1">
          <note key="48" pos="0" pan="0" len="36" vol="100" />
          <note key="48" pos="132" pan="0" len="12" vol="100" />
          <note key="48" pos="144" pan="0" len="36" vol="100" />
          <note key="48" pos="276" pan="0" len="12" vol="100" />
          <note key="48" pos="288" pan="0" len="36" vol="100" />
          <note key="48" pos="420" pan="0" len="12" vol="100" />
          <note key="48" pos="432" pan="0" len="36" vol="100" />
          <note key="48" pos="564" pan="0" len="12" vol="100" />
          <note key="48" pos="576" pan="0" len="36" vol="100" />
          <note key="48" pos="708" pan="0" len="12" vol="100" />
          <note key="48" pos="720" pan="0" len="36" vol="100" />
          <note key="48" pos="852" pan="0" len="12" vol="100" />
          <note key="48" pos="864" pan="0" len="36" vol="100" />
          <note key="48" pos="996" pan="0" len="12" vol="100" />
          <note key="48" pos="1008" pan="0" len="36" vol="100" />
          <note key="48" pos="1140" pan="0" len="12" vol="100" />
          <note key="48" pos="1152" pan="0" len="36" vol="100" />
          <note key="48" pos="1284" pan="0" len="12" vol="100" />
          <note key="48" pos="1296" pan="0" len="36" vol="100" />
          <note key="48" pos="1428" pan="0" len="12" vol="100" />
          <note key="48" pos="1440" pan="0" len="36" vol="100" />
          <note key="48" pos="1572" pan="0" len="12" vol="100" />
          <note key="48" pos="1584" pan="0" len="36" vol="100" />
          <note key="48" pos="1716" pan="0" len="12" vol="100" />
          <note key="48" pos="1728" pan="0" len="36" vol="100" />
          <note key="48" pos="1860" pan="0" len="12" vol="100" />
          <note key="48" pos="1872" pan="0" len="36" vol="100" />
          <note key="48" pos="2004" pan="0" len="12" vol="100" />
          <note key="48" pos="2016" pan="0" len="36" vol="100" />
          <note key="48" pos="2148" pan="0" len="12" vol="100" />
          <note key="48" pos="2160" pan="0" len="36" vol="100" />
          <note key="48" pos="2292" pan="0" len="12" vol="100" />
        </pattern>
      </track>
      <track solo="0" name="15 (Ch1)" type="0" muted="0">
        <instrumenttrack usemasterpitch="1" pitch="0.0" basenote="57" pan="0" pitchrange="12" vol="30">
          <eldata />
          <instrument name="tripleoscillator" />
        </instrumenttrack>
        <pattern pos="201996" muted="0" steps="16" name="" type="1">
          <note key="48" pos="144" pan="0" len="192" vol="100" />
          <note key="44" pos="576" pan="0" len="192" vol="100" />
          <note key="53" pos="1008" pan="0" len="144" vol="100" />
        </pattern>
      </track>
      <track solo="0" name="15 (Ch2)" type="0" muted="0">
        <instrumenttrack usemasterpitch="1" pitch="0.0" basenote="57" pan="0" pitchrange="12" vol="30">
          <eldata />
          <instrument name="tripleoscillator" />
        </instrumenttrack>
        <pattern pos="169740" muted="0" steps="16" name="" type="1">
          <note key="50" pos="0" pan="0" len="576" vol="100" />
        </pattern>
        <pattern pos="53760" muted="0" steps="16" name="" type="1">
          <note key="55" pos="528" pan="0" len="240" vol="100" />
        </pattern>
      </track>
      <track solo="0" name="15 (Ch3)" type="0" muted="0">
        <instrumenttrack usemasterpitch="1" pitch="0.0" basenote="57" pan="0" pitchrange="12" vol="30">
          <eldata />
          <instrument name="tripleoscillator" />
        </instrumenttrack>
        <pattern pos="276444" muted="0" steps="16" name="" type="1">
          <note key="50" pos="0" pan="0" len="504" vol="100" />
        </pattern>
        <pattern pos="191244" muted="0" steps="16" name="" type="1">
          <note key="50" pos="264" pan="0" len="120" vol="100" />
          <note key="50" pos="648" pan="0" len="120" vol="100" />
          <note key="50" pos="1032" pan="0" len="120" vol="100" />
          <note key="50" pos="1416" pan="0" len="120" vol="100" />
        </pattern>
        <pattern pos="195852" muted="0" steps="16" name="" type="1">
          <note key="50" pos="264" pan="0" len="120" vol="100" />
          <note key="50" pos="648" pan="0" len="120" vol="100" />
          <note key="50" pos="1032" pan="0" len="120" vol="100" />
          <note key="50" pos="1416" pan="0" len="120" vol="100" />
        </pattern>
        <pattern pos="201228" muted="0" steps="16" name="" type="1">
          <note key="50" pos="252" pan="0" len="516" vol="100" />
        </pattern>
        <pattern pos="271692" muted="0" steps="16" name="" type="1">
          <note key="50" pos="0" pan="0" len="504" vol="100" />
        </pattern>
      </track>
      <track solo="0" name="15 (Ch4)" type="0" muted="0">
        <instrumenttrack usemasterpitch="1" pitch="0.0" basenote="57" pan="0" pitchrange="12" vol="30">
          <eldata />
          <instrument name="tripleoscillator" />
        </instrumenttrack>
        <pattern pos="280476" muted="0" steps="16" name="" type="1">
          <note key="49" pos="0" pan="0" len="60" vol="100" />
          <note key="49" pos="60" pan="0" len="12" vol="100" />
          <note key="48" pos="72" pan="0" len="72" vol="100" />
          <note key="49" pos="144" pan="0" len="624" vol="100" />
        </pattern>
        <pattern pos="97536" muted="0" steps="16" name="" type="1">
          <note key="51" pos="672" pan="0" len="12" vol="16" />
          <note key="51" pos="684" pan="0" len="12" vol="31" />
          <note key="51" pos="696" pan="0" len="12" vol="47" />
          <note key="51" pos="708" pan="0" len="12" vol="62" />
          <note key="51" pos="720" pan="0" len="12" vol="78" />
          <note key="51" pos="732" pan="0" len="12" vol="100" />
          <note key="51" pos="744" pan="0" len="12" vol="100" />
          <note key="51" pos="756" pan="0" len="12" vol="100" />
        </pattern>
      </track>
      <track solo="0" name="15 (Ch5)" type="0" muted="0">
        <instrumenttrack usemasterpitch="1" pitch="0.0" basenote="57" pan="0" pitchrange="12" vol="30">
          <eldata />
          <instrument name="tripleoscillator" />
        </instrumenttrack>
        <pattern pos="279900" muted="0" steps="16" name="" type="1">
          <note key="50" pos="0" pan="0" len="144" vol="100" />
          <note key="51" pos="144" pan="0" len="432" vol="100" />
        </pattern>
        <pattern pos="186636" muted="0" steps="16" name="" type="1">
          <note key="52" pos="0" pan="0" len="384" vol="100" />
          <note key="52" pos="384" pan="0" len="384" vol="100" />
          <note key="52" pos="768" pan="0" len="360" vol="100" />
          <note key="52" pos="1128" pan="0" len="12" vol="100" />
          <note key="52" pos="1140" pan="0" len="12" vol="100" />
          <note key="52" pos="1152" pan="0" len="288" vol="100" />
        </pattern>
        <pattern pos="192780" muted="0" steps="16" name="" type="1">
          <note key="52" pos="0" pan="0" len="384" vol="100" />
          <note key="52" pos="384" pan="0" len="384" vol="100" />
          <note key="52" pos="768" pan="0" len="360" vol="100" />
          <note key="52" pos="1128" pan="0" len="12" vol="100" />
          <note key="52" pos="1140" pan="0" len="12" vol="100" />
          <note key="52" pos="1152" pan="0" len="288" vol="100" />
        </pattern>
        <pattern pos="221196" muted="0" steps="16" name="" type="1">
          <note key="56" pos="0" pan="0" len="528" vol="100" />
        </pattern>
        <pattern pos="269388" muted="0" steps="16" name="" type="1">
          <note key="50" pos="1116" pan="0" len="12" vol="16" />
          <note key="50" pos="1128" pan="0" len="12" vol="31" />
          <note key="50" pos="1140" pan="0" len="12" vol="77" />
        </pattern>
        <pattern pos="277596" muted="0" steps="16" name="" type="1">
          <note key="50" pos="0" pan="0" len="144" vol="100" />
          <note key="51" pos="144" pan="0" len="432" vol="100" />
          <note key="50" pos="576" pan="0" len="144" vol="100" />
          <note key="51" pos="720" pan="0" len="1584" vol="100" />
        </pattern>
      </track>
      <track solo="0" name="15 (Ch6)" type="0" muted="0">
        <instrumenttrack usemasterpitch="1" pitch="0.0" basenote="57" pan="0" pitchrange="12" vol="30">
          <eldata />
          <instrument name="tripleoscillator" />
        </instrumenttrack>
        <pattern pos="172812" muted="0" steps="16" name="" type="1">
          <note key="60" pos="744" pan="0" len="12" vol="100" />
          <note key="60" pos="756" pan="0" len="12" vol="100" />
          <note key="62" pos="768" pan="0" len="96" vol="100" />
          <note key="60" pos="1128" pan="0" len="12" vol="100" />
          <note key="60" pos="1140" pan="0" len="12" vol="100" />
          <note key="60" pos="1152" pan="0" len="96" vol="100" />
        </pattern>
      </track>
      <track solo="0" name="15 (Ch7)" type="0" muted="0">
        <instrumenttrack usemasterpitch="1" pitch="0.0" basenote="57" pan="0" pitchrange="12" vol="30">
          <eldata />
          <instrument name="tripleoscillator" />
        </instrumenttrack>
        <pattern pos="268812" muted="0" steps="16" name="" type="1">
          <note key="50" pos="0" pan="0" len="144" vol="100" />
          <note key="51" pos="144" pan="0" len="432" vol="100" />
        </pattern>
        <pattern pos="188172" muted="0" steps="16" name="" type="1">
          <note key="50" pos="0" pan="0" len="360" vol="100" />
          <note key="44" pos="360" pan="0" len="12" vol="100" />
          <note key="44" pos="372" pan="0" len="12" vol="100" />
          <note key="44" pos="384" pan="0" len="1152" vol="100" />
        </pattern>
      </track>
      <track solo="0" name="15 (Ch8)" type="0" muted="0">
        <instrumenttrack usemasterpitch="1" pitch="0.0" basenote="57" pan="0" pitchrange="12" vol="30">
          <eldata />
          <instrument name="tripleoscillator" />
        </instrumenttrack>
        <pattern pos="109056" muted="0" steps="16" name="" type="1">
          <note key="53" pos="0" pan="0" len="768" vol="100" />
          <note key="48" pos="768" pan="0" len="768" vol="100" />
        </pattern>
        <pattern pos="57600" muted="0" steps="16" name="" type="1">
          <note key="60" pos="0" pan="0" len="24" vol="100" />
          <note key="60" pos="288" pan="0" len="24" vol="100" />
          <note key="60" pos="576" pan="0" len="24" vol="100" />
          <note key="60" pos="864" pan="0" len="24" vol="100" />
        </pattern>
        <pattern pos="59904" muted="0" steps="16" name="" type="1">
          <note key="60" pos="0" pan="0" len="24" vol="100" />
          <note key="60" pos="288" pan="0" len="24" vol="100" />
          <note key="60" pos="576" pan="0" len="24" vol="100" />
          <note key="60" pos="864" pan="0" len="24" vol="100" />
        </pattern>
        <pattern pos="61056" muted="0" steps="16" name="" type="1">
          <note key="60" pos="0" pan="0" len="24" vol="100" />
          <note key="60" pos="288" pan="0" len="24" vol="100" />
          <note key="60" pos="576" pan="0" len="24" vol="100" />
          <note key="60" pos="864" pan="0" len="24" vol="100" />
        </pattern>
        <pattern pos="63360" muted="0" steps="16" name="" type="1">
          <note key="60" pos="0" pan="0" len="24" vol="100" />
          <note key="60" pos="288" pan="0" len="24" vol="100" />
          <note key="60" pos="576" pan="0" len="24" vol="100" />
          <note key="60" pos="864" pan="0" len="24" vol="100" />
        </pattern>
        <pattern pos="64512" muted="0" steps="16" name="" type="1">
          <note key="60" pos="0" pan="0" len="24" vol="100" />
          <note key="60" pos="288" pan="0" len="24" vol="100" />
          <note key="60" pos="576" pan="0" len="24" vol="100" />
          <note key="60" pos="864" pan="0" len="24" vol="100" />
        </pattern>
        <pattern pos="97536" muted="0" steps="16" name="" type="1">
          <note key="49" pos="672" pan="0" len="12" vol="100" />
          <note key="49" pos="684" pan="0" len="12" vol="100" />
          <note key="49" pos="696" pan="0" len="12" vol="100" />
          <note key="49" pos="708" pan="0" len="12" vol="100" />
          <note key="49" pos="720" pan="0" len="12" vol="100" />
          <note key="49" pos="732" pan="0" len="12" vol="100" />
          <note key="49" pos="744" pan="0" len="12" vol="100" />
          <note key="49" pos="756" pan="0" len="12" vol="100" />
        </pattern>
        <pattern pos="107520" muted="0" steps="16" name="" type="1">
          <note key="53" pos="0" pan="0" len="768" vol="100" />
          <note key="48" pos="768" pan="0" len="768" vol="100" />
        </pattern>
      </track>
      <track solo="0" name="15 (Ch9)" type="0" muted="0">
        <instrumenttrack usemasterpitch="1" pitch="0.0" basenote="57" pan="0" pitchrange="12" vol="30">
          <eldata />
          <instrument name="tripleoscillator" />
        </instrumenttrack>
        <pattern pos="85248" muted="0" steps="16" name="" type="1">
          <note key="62" pos="336" pan="0" len="48" vol="100" />
          <note key="59" pos="384" pan="0" len="48" vol="100" />
          <note key="62" pos="432" pan="0" len="120" vol="100" />
        </pattern>
        <pattern pos="3072" muted="0" steps="16" name="" type="1">
          <note key="53" pos="600" pan="0" len="12" vol="100" />
          <note key="53" pos="612" pan="0" len="12" vol="100" />
          <note key="53" pos="624" pan="0" len="48" vol="100" />
          <note key="57" pos="672" pan="0" len="96" vol="100" />
          <note key="58" pos="768" pan="0" len="768" vol="100" />
        </pattern>
        <pattern pos="4608" muted="0" steps="16" name="" type="1">
          <note key="58" pos="0" pan="0" len="360" vol="100" />
          <note key="54" pos="360" pan="0" len="12" vol="100" />
          <note key="54" pos="372" pan="0" len="12" vol="100" />
          <note key="54" pos="384" pan="0" len="1152" vol="100" />
        </pattern>
        <pattern pos="73728" muted="0" steps="16" name="" type="1">
          <note key="62" pos="336" pan="0" len="48" vol="100" />
          <note key="59" pos="384" pan="0" len="48" vol="100" />
          <note key="62" pos="432" pan="0" len="120" vol="100" />
        </pattern>
      </track>
      <track solo="0" name="15 (Ch10)" type="0" muted="0">
        <instrumenttrack usemasterpitch="1" pitch="0.0" basenote="57" pan="0" pitchrange="12" vol="30">
          <eldata />
          <instrument name="tripleoscillator" />
        </instrumenttrack>
        <pattern pos="206604" muted="0" steps="16" name="" type="1">
          <note key="48" pos="0" pan="0" len="1536" vol="100" />
        </pattern>
        <pattern pos="1536" muted="0" steps="16" name="" type="1">
          <note key="48" pos="0" pan="0" len="360" vol="100" />
          <note key="57" pos="360" pan="0" len="12" vol="100" />
          <note key="57" pos="372" pan="0" len="12" vol="100" />
          <note key="57" pos="384" pan="0" len="1152" vol="100" />
        </pattern>
        <pattern pos="4608" muted="0" steps="16" name="" type="1">
          <note key="46" pos="0" pan="0" len="360" vol="100" />
          <note key="42" pos="360" pan="0" len="12" vol="100" />
          <note key="42" pos="372" pan="0" len="12" vol="100" />
          <note key="42" pos="384" pan="0" len="1152" vol="100" />
        </pattern>
        <pattern pos="6144" muted="0" steps="16" name="" type="1">
          <note key="52" pos="0" pan="0" len="360" vol="100" />
          <note key="52" pos="360" pan="0" len="24" vol="100" />
          <note key="52" pos="384" pan="0" len="360" vol="100" />
        </pattern>
        <pattern pos="7680" muted="0" steps="16" name="" type="1">
          <note key="48" pos="0" pan="0" len="168" vol="100" />
          <note key="57" pos="168" pan="0" len="12" vol="100" />
          <note key="57" pos="180" pan="0" len="12" vol="100" />
          <note key="57" pos="192" pan="0" len="1344" vol="100" />
        </pattern>
        <pattern pos="10752" muted="0" steps="16" name="" type="1">
          <note key="52" pos="0" pan="0" len="360" vol="100" />
          <note key="52" pos="360" pan="0" len="24" vol="100" />
          <note key="52" pos="384" pan="0" len="360" vol="100" />
        </pattern>
        <pattern pos="73728" muted="0" steps="16" name="" type="1">
          <note key="64" pos="1152" pan="0" len="1152" vol="100" />
        </pattern>
        <pattern pos="85248" muted="0" steps="16" name="" type="1">
          <note key="64" pos="1152" pan="0" len="1152" vol="100" />
        </pattern>
        <pattern pos="122892" muted="0" steps="16" name="" type="1">
          <note key="53" pos="0" pan="0" len="168" vol="100" />
        </pattern>
        <pattern pos="165900" muted="0" steps="16" name="" type="1">
          <note key="53" pos="0" pan="0" len="768" vol="100" />
        </pattern>
      </track>
      <track solo="0" name="15 (Ch11)" type="0" muted="0">
        <instrumenttrack usemasterpitch="1" pitch="0.0" basenote="57" pan="0" pitchrange="12" vol="30">
          <eldata />
          <instrument name="tripleoscillator" />
        </instrumenttrack>
        <pattern pos="231948" muted="0" steps="16" name="" type="1">
          <note key="56" pos="0" pan="0" len="360" vol="100" />
          <note key="56" pos="384" pan="0" len="360" vol="100" />
          <note key="56" pos="768" pan="0" len="360" vol="100" />
          <note key="56" pos="1152" pan="0" len="360" vol="100" />
        </pattern>
        <pattern pos="38400" muted="0" steps="16" name="" type="1">
          <note key="58" pos="0" pan="0" len="96" vol="100" />
        </pattern>
        <pattern pos="101376" muted="0" steps="16" name="" type="1">
          <note key="50" pos="624" pan="0" len="96" vol="100" />
          <note key="50" pos="720" pan="0" len="48" vol="100" />
        </pattern>
        <pattern pos="104448" muted="0" steps="16" name="" type="1">
          <note key="50" pos="624" pan="0" len="96" vol="100" />
          <note key="50" pos="720" pan="0" len="48" vol="100" />
        </pattern>
        <pattern pos="197388" muted="0" steps="16" name="" type="1">
          <note key="60" pos="0" pan="0" len="1536" vol="100" />
        </pattern>
        <pattern pos="198924" muted="0" steps="16" name="" type="1">
          <note key="56" pos="0" pan="0" len="768" vol="100" />
          <note key="56" pos="768" pan="0" len="768" vol="100" />
        </pattern>
        <pattern pos="222732" muted="0" steps="16" name="" type="1">
          <note key="56" pos="0" pan="0" len="1512" vol="100" />
        </pattern>
      </track>
      <track solo="0" name="15 (Ch12)" type="0" muted="0">
        <instrumenttrack usemasterpitch="1" pitch="0.0" basenote="57" pan="0" pitchrange="12" vol="30">
          <eldata />
          <instrument name="tripleoscillator" />
        </instrumenttrack>
        <pattern pos="222732" muted="0" steps="16" name="" type="1">
          <note key="44" pos="768" pan="0" len="768" vol="100" />
        </pattern>
      </track>
      <track solo="0" name="15 (Ch13)" type="0" muted="0">
        <instrumenttrack usemasterpitch="1" pitch="0.0" basenote="57" pan="0" pitchrange="12" vol="30">
          <eldata />
          <instrument name="tripleoscillator" />
        </instrumenttrack>
        <pattern pos="274140" muted="0" steps="16" name="" type="1">
          <note key="42" pos="0" pan="0" len="576" vol="100" />
        </pattern>
        <pattern pos="147468" muted="0" steps="16" name="" type="1">
          <note key="48" pos="0" pan="0" len="576" vol="100" />
        </pattern>
        <pattern pos="149004" muted="0" steps="16" name="" type="1">
          <note key="48" pos="0" pan="0" len="576" vol="100" />
        </pattern>
      </track>
      <track solo="0" name="15 (Ch14)" type="0" muted="0">
        <instrumenttrack usemasterpitch="1" pitch="0.0" basenote="57" pan="0" pitchrange="12" vol="30">
          <eldata />
          <instrument name="tripleoscillator" />
        </instrumenttrack>
        <pattern pos="169740" muted="0" steps="16" name="" type="1">
          <note key="46" pos="576" pan="0" len="576" vol="100" />
          <note key="58" pos="1320" pan="0" len="12" vol="100" />
          <note key="58" pos="1332" pan="0" len="12" vol="100" />
          <note key="58" pos="1344" pan="0" len="480" vol="100" />
        </pattern>
        <pattern pos="10752" muted="0" steps="16" name="" type="1">
          <note key="52" pos="0" pan="0" len="360" vol="100" />
          <note key="57" pos="360" pan="0" len="12" vol="100" />
          <note key="57" pos="372" pan="0" len="12" vol="100" />
          <note key="57" pos="384" pan="0" len="384" vol="100" />
          <note key="55" pos="1152" pan="0" len="48" vol="100" />
          <note key="50" pos="1200" pan="0" len="48" vol="100" />
          <note key="55" pos="1248" pan="0" len="96" vol="100" />
          <note key="55" pos="1344" pan="0" len="72" vol="100" />
          <note key="48" pos="1416" pan="0" len="24" vol="100" />
          <note key="55" pos="1440" pan="0" len="48" vol="100" />
          <note key="52" pos="1488" pan="0" len="48" vol="100" />
        </pattern>
        <pattern pos="24576" muted="0" steps="16" name="" type="1">
          <note key="52" pos="768" pan="0" len="768" vol="100" />
        </pattern>
        <pattern pos="38400" muted="0" steps="16" name="" type="1">
          <note key="50" pos="1344" pan="0" len="192" vol="100" />
        </pattern>
        <pattern pos="39936" muted="0" steps="16" name="" type="1">
          <note key="59" pos="0" pan="0" len="192" vol="100" />
          <note key="59" pos="192" pan="0" len="72" vol="100" />
          <note key="59" pos="264" pan="0" len="120" vol="100" />
          <note key="59" pos="384" pan="0" len="192" vol="100" />
          <note key="59" pos="576" pan="0" len="72" vol="100" />
          <note key="59" pos="648" pan="0" len="120" vol="100" />
          <note key="59" pos="768" pan="0" len="192" vol="100" />
          <note key="59" pos="960" pan="0" len="72" vol="100" />
          <note key="59" pos="1032" pan="0" len="120" vol="100" />
          <note key="59" pos="1152" pan="0" len="192" vol="100" />
          <note key="59" pos="1344" pan="0" len="72" vol="100" />
          <note key="59" pos="1416" pan="0" len="120" vol="100" />
        </pattern>
        <pattern pos="41472" muted="0" steps="16" name="" type="1">
          <note key="59" pos="0" pan="0" len="192" vol="100" />
          <note key="59" pos="192" pan="0" len="72" vol="100" />
          <note key="59" pos="264" pan="0" len="96" vol="100" />
          <note key="59" pos="384" pan="0" len="192" vol="100" />
          <note key="59" pos="576" pan="0" len="72" vol="100" />
          <note key="59" pos="648" pan="0" len="120" vol="100" />
          <note key="59" pos="768" pan="0" len="192" vol="100" />
          <note key="59" pos="960" pan="0" len="72" vol="100" />
          <note key="59" pos="1032" pan="0" len="120" vol="100" />
          <note key="59" pos="1152" pan="0" len="192" vol="100" />
          <note key="59" pos="1344" pan="0" len="72" vol="100" />
          <note key="59" pos="1416" pan="0" len="120" vol="100" />
        </pattern>
      </track>
      <track solo="0" name="15 (Ch15)" type="0" muted="0">
        <instrumenttrack usemasterpitch="1" pitch="0.0" basenote="57" pan="0" pitchrange="12" vol="30">
          <eldata />
          <instrument name="tripleoscillator" />
        </instrumenttrack>
        <pattern pos="276444" muted="0" steps="16" name="" type="1">
          <note key="47" pos="1128" pan="0" len="12" vol="31" />
          <note key="47" pos="1140" pan="0" len="12" vol="62" />
        </pattern>
        <pattern pos="169740" muted="0" steps="16" name="" type="1">
          <note key="58" pos="2052" pan="0" len="12" vol="100" />
          <note key="58" pos="2064" pan="0" len="12" vol="100" />
          <note key="58" pos="2076" pan="0" len="12" vol="100" />
          <note key="58" pos="2088" pan="0" len="12" vol="100" />
          <note key="58" pos="2100" pan="0" len="12" vol="100" />
          <note key="58" pos="2112" pan="0" len="24" vol="100" />
          <note key="53" pos="2136" pan="0" len="24" vol="100" />
          <note key="58" pos="2160" pan="0" len="24" vol="100" />
          <note key="53" pos="2184" pan="0" len="24" vol="100" />
          <note key="58" pos="2208" pan="0" len="84" vol="100" />
        </pattern>
        <pattern pos="221196" muted="0" steps="16" name="" type="1">
          <note key="56" pos="744" pan="0" len="12" vol="100" />
          <note key="56" pos="756" pan="0" len="12" vol="100" />
          <note key="56" pos="768" pan="0" len="384" vol="100" />
          <note key="56" pos="1500" pan="0" len="12" vol="100" />
          <note key="56" pos="1512" pan="0" len="12" vol="100" />
          <note key="56" pos="1524" pan="0" len="12" vol="100" />
        </pattern>
        <pattern pos="271692" muted="0" steps="16" name="" type="1">
          <note key="47" pos="1128" pan="0" len="12" vol="31" />
          <note key="47" pos="1140" pan="0" len="12" vol="62" />
        </pattern>
        <pattern pos="272844" muted="0" steps="16" name="" type="1">
          <note key="47" pos="0" pan="0" len="144" vol="100" />
        </pattern>
      </track>
      <track solo="0" name="15 (Ch16)" type="0" muted="0">
        <instrumenttrack usemasterpitch="1" pitch="0.0" basenote="57" pan="0" pitchrange="12" vol="30">
          <eldata />
          <instrument name="tripleoscillator" />
        </instrumenttrack>
        <pattern pos="248460" muted="0" steps="16" name="" type="1">
          <note key="48" pos="0" pan="0" len="96" vol="100" />
          <note key="48" pos="96" pan="0" len="288" vol="100" />
        </pattern>
        <pattern pos="12288" muted="0" steps="16" name="" type="1">
          <note key="53" pos="2640" pan="0" len="24" vol="100" />
          <note key="53" pos="2664" pan="0" len="24" vol="100" />
          <note key="46" pos="2688" pan="0" len="384" vol="100" />
        </pattern>
      </track>
      <track solo="0" name="16 (Ch2)" type="0" muted="0">
        <instrumenttrack usemasterpitch="1" pitch="0.0" basenote="57" pan="0" pitchrange="12" vol="30">
          <eldata />
          <instrument name="tripleoscillator" />
        </instrumenttrack>
        <pattern pos="29184" muted="0" steps="16" name="" type="1">
          <note key="67" pos="48" pan="0" len="336" vol="100" />
        </pattern>
      </track>
      <track solo="0" name="16 (Ch3)" type="0" muted="0">
        <instrumenttrack usemasterpitch="1" pitch="0.0" basenote="57" pan="0" pitchrange="12" vol="30">
          <eldata />
          <instrument name="tripleoscillator" />
        </instrumenttrack>
        <pattern pos="105984" muted="0" steps="16" name="" type="1">
          <note key="38" pos="0" pan="0" len="48" vol="100" />
          <note key="45" pos="48" pan="0" len="48" vol="47" />
          <note key="53" pos="96" pan="0" len="48" vol="78" />
          <note key="45" pos="144" pan="0" len="48" vol="100" />
          <note key="36" pos="192" pan="0" len="48" vol="100" />
          <note key="43" pos="240" pan="0" len="48" vol="47" />
          <note key="52" pos="288" pan="0" len="48" vol="62" />
          <note key="43" pos="336" pan="0" len="48" vol="100" />
          <note key="34" pos="384" pan="0" len="48" vol="100" />
          <note key="41" pos="432" pan="0" len="48" vol="47" />
          <note key="50" pos="480" pan="0" len="48" vol="62" />
          <note key="48" pos="528" pan="0" len="48" vol="100" />
          <note key="43" pos="576" pan="0" len="48" vol="100" />
          <note key="48" pos="624" pan="0" len="48" vol="47" />
          <note key="52" pos="672" pan="0" len="48" vol="62" />
          <note key="45" pos="720" pan="0" len="48" vol="100" />
          <note key="38" pos="768" pan="0" len="48" vol="100" />
          <note key="45" pos="816" pan="0" len="48" vol="47" />
          <note key="53" pos="864" pan="0" len="48" vol="78" />
          <note key="45" pos="912" pan="0" len="48" vol="100" />
          <note key="36" pos="960" pan="0" len="48" vol="100" />
          <note key="43" pos="1008" pan="0" len="48" vol="47" />
          <note key="52" pos="1056" pan="0" len="48" vol="62" />
          <note key="43" pos="1104" pan="0" len="48" vol="100" />
          <note key="46" pos="1152" pan="0" len="48" vol="100" />
          <note key="41" pos="1200" pan="0" len="48" vol="47" />
          <note key="50" pos="1248" pan="0" len="48" vol="62" />
          <note key="48" pos="1296" pan="0" len="48" vol="100" />
          <note key="43" pos="1344" pan="0" len="48" vol="100" />
          <note key="48" pos="1392" pan="0" len="48" vol="47" />
          <note key="52" pos="1440" pan="0" len="48" vol="62" />
          <note key="45" pos="1488" pan="0" len="48" vol="100" />
        </pattern>
        <pattern pos="29184" muted="0" steps="16" name="" type="1">
          <note key="72" pos="48" pan="0" len="336" vol="100" />
        </pattern>
        <pattern pos="101376" muted="0" steps="16" name="" type="1">
          <note key="38" pos="0" pan="0" len="48" vol="100" />
          <note key="45" pos="48" pan="0" len="48" vol="47" />
          <note key="53" pos="96" pan="0" len="48" vol="78" />
          <note key="45" pos="144" pan="0" len="48" vol="100" />
          <note key="36" pos="192" pan="0" len="48" vol="100" />
          <note key="43" pos="240" pan="0" len="48" vol="47" />
          <note key="52" pos="288" pan="0" len="48" vol="62" />
          <note key="43" pos="336" pan="0" len="48" vol="100" />
          <note key="34" pos="384" pan="0" len="48" vol="100" />
          <note key="41" pos="432" pan="0" len="48" vol="47" />
          <note key="50" pos="480" pan="0" len="48" vol="62" />
          <note key="48" pos="528" pan="0" len="48" vol="100" />
          <note key="43" pos="576" pan="0" len="48" vol="100" />
          <note key="48" pos="624" pan="0" len="48" vol="47" />
          <note key="52" pos="672" pan="0" len="48" vol="62" />
          <note key="45" pos="720" pan="0" len="48" vol="100" />
          <note key="38" pos="768" pan="0" len="48" vol="100" />
          <note key="45" pos="816" pan="0" len="48" vol="47" />
          <note key="53" pos="864" pan="0" len="48" vol="78" />
          <note key="45" pos="912" pan="0" len="48" vol="100" />
          <note key="36" pos="960" pan="0" len="48" vol="100" />
          <note key="43" pos="1008" pan="0" len="48" vol="47" />
          <note key="52" pos="1056" pan="0" len="48" vol="62" />
          <note key="43" pos="1104" pan="0" len="48" vol="100" />
          <note key="46" pos="1152" pan="0" len="48" vol="100" />
          <note key="41" pos="1200" pan="0" len="48" vol="47" />
          <note key="50" pos="1248" pan="0" len="48" vol="62" />
          <note key="48" pos="1296" pan="0" len="48" vol="100" />
          <note key="43" pos="1344" pan="0" len="48" vol="100" />
          <note key="48" pos="1392" pan="0" len="48" vol="47" />
          <note key="52" pos="1440" pan="0" len="48" vol="62" />
          <note key="45" pos="1488" pan="0" len="48" vol="100" />
        </pattern>
        <pattern pos="102912" muted="0" steps="16" name="" type="1">
          <note key="38" pos="0" pan="0" len="48" vol="100" />
          <note key="45" pos="48" pan="0" len="48" vol="47" />
          <note key="53" pos="96" pan="0" len="48" vol="78" />
          <note key="45" pos="144" pan="0" len="48" vol="100" />
          <note key="36" pos="192" pan="0" len="48" vol="100" />
          <note key="43" pos="240" pan="0" len="48" vol="47" />
          <note key="52" pos="288" pan="0" len="48" vol="62" />
          <note key="43" pos="336" pan="0" len="48" vol="100" />
          <note key="34" pos="384" pan="0" len="48" vol="100" />
          <note key="41" pos="432" pan="0" len="48" vol="47" />
          <note key="50" pos="480" pan="0" len="48" vol="62" />
          <note key="48" pos="528" pan="0" len="48" vol="100" />
          <note key="43" pos="576" pan="0" len="48" vol="100" />
          <note key="48" pos="624" pan="0" len="48" vol="47" />
          <note key="52" pos="672" pan="0" len="48" vol="62" />
          <note key="45" pos="720" pan="0" len="48" vol="100" />
          <note key="38" pos="768" pan="0" len="48" vol="100" />
          <note key="45" pos="816" pan="0" len="48" vol="47" />
          <note key="53" pos="864" pan="0" len="48" vol="78" />
          <note key="45" pos="912" pan="0" len="48" vol="100" />
          <note key="36" pos="960" pan="0" len="48" vol="100" />
          <note key="43" pos="1008" pan="0" len="48" vol="47" />
          <note key="52" pos="1056" pan="0" len="48" vol="62" />
          <note key="43" pos="1104" pan="0" len="48" vol="100" />
          <note key="46" pos="1152" pan="0" len="48" vol="100" />
          <note key="41" pos="1200" pan="0" len="48" vol="47" />
          <note key="50" pos="1248" pan="0" len="48" vol="62" />
          <note key="48" pos="1296" pan="0" len="48" vol="100" />
          <note key="43" pos="1344" pan="0" len="48" vol="100" />
          <note key="48" pos="1392" pan="0" len="48" vol="47" />
          <note key="52" pos="1440" pan="0" len="48" vol="62" />
          <note key="45" pos="1488" pan="0" len="48" vol="100" />
        </pattern>
        <pattern pos="104448" muted="0" steps="16" name="" type="1">
          <note key="38" pos="0" pan="0" len="48" vol="100" />
          <note key="45" pos="48" pan="0" len="48" vol="47" />
          <note key="53" pos="96" pan="0" len="48" vol="78" />
          <note key="45" pos="144" pan="0" len="48" vol="100" />
          <note key="36" pos="192" pan="0" len="48" vol="100" />
          <note key="43" pos="240" pan="0" len="48" vol="47" />
          <note key="52" pos="288" pan="0" len="48" vol="62" />
          <note key="43" pos="336" pan="0" len="48" vol="100" />
          <note key="34" pos="384" pan="0" len="48" vol="100" />
          <note key="41" pos="432" pan="0" len="48" vol="47" />
          <note key="50" pos="480" pan="0" len="48" vol="62" />
          <note key="48" pos="528" pan="0" len="48" vol="100" />
          <note key="43" pos="576" pan="0" len="48" vol="100" />
          <note key="48" pos="624" pan="0" len="48" vol="47" />
          <note key="52" pos="672" pan="0" len="48" vol="62" />
          <note key="45" pos="720" pan="0" len="48" vol="100" />
          <note key="38" pos="768" pan="0" len="48" vol="100" />
          <note key="45" pos="816" pan="0" len="48" vol="47" />
          <note key="53" pos="864" pan="0" len="48" vol="78" />
          <note key="45" pos="912" pan="0" len="48" vol="100" />
          <note key="36" pos="960" pan="0" len="48" vol="100" />
          <note key="43" pos="1008" pan="0" len="48" vol="47" />
          <note key="52" pos="1056" pan="0" len="48" vol="62" />
          <note key="43" pos="1104" pan="0" len="48" vol="100" />
          <note key="46" pos="1152" pan="0" len="48" vol="100" />
          <note key="41" pos="1200" pan="0" len="48" vol="47" />
          <note key="50" pos="1248" pan="0" len="48" vol="62" />
          <note key="48" pos="1296" pan="0" len="48" vol="100" />
          <note key="43" pos="1344" pan="0" len="48" vol="100" />
          <note key="48" pos="1392" pan="0" len="48" vol="47" />
          <note key="52" pos="1440" pan="0" len="48" vol="62" />
          <note key="45" pos="1488" pan="0" len="48" vol="100" />
        </pattern>
      </track>
      <track solo="0" name="16 (Ch4)" type="0" muted="0">
        <instrumenttrack usemasterpitch="1" pitch="0.0" basenote="57" pan="0" pitchrange="12" vol="30">
          <eldata />
          <instrument name="tripleoscillator" />
        </instrumenttrack>
        <pattern pos="203532" muted="0" steps="16" name="" type="1">
          <note key="60" pos="768" pan="0" len="384" vol="69" />
        </pattern>
        <pattern pos="29184" muted="0" steps="16" name="" type="1">
          <note key="76" pos="48" pan="0" len="336" vol="100" />
        </pattern>
      </track>
      <track solo="0" name="16 (Ch5)" type="0" muted="0">
        <instrumenttrack usemasterpitch="1" pitch="0.0" basenote="57" pan="0" pitchrange="12" vol="30">
          <eldata />
          <instrument name="tripleoscillator" />
        </instrumenttrack>
        <pattern pos="221196" muted="0" steps="16" name="" type="1">
          <note key="58" pos="768" pan="0" len="384" vol="50" />
        </pattern>
        <pattern pos="7680" muted="0" steps="16" name="" type="1">
          <note key="65" pos="2448" pan="0" len="48" vol="100" />
          <note key="62" pos="2496" pan="0" len="96" vol="100" />
          <note key="58" pos="2592" pan="0" len="48" vol="100" />
          <note key="55" pos="2640" pan="0" len="48" vol="100" />
          <note key="60" pos="2688" pan="0" len="384" vol="100" />
        </pattern>
        <pattern pos="169740" muted="0" steps="16" name="" type="1">
          <note key="48" pos="624" pan="0" len="48" vol="100" />
          <note key="50" pos="672" pan="0" len="144" vol="100" />
          <note key="50" pos="816" pan="0" len="48" vol="100" />
          <note key="55" pos="864" pan="0" len="144" vol="100" />
          <note key="51" pos="1008" pan="0" len="48" vol="100" />
          <note key="53" pos="1056" pan="0" len="144" vol="100" />
          <note key="53" pos="1200" pan="0" len="48" vol="100" />
          <note key="58" pos="1248" pan="0" len="96" vol="100" />
          <note key="55" pos="1344" pan="0" len="96" vol="100" />
          <note key="55" pos="1440" pan="0" len="96" vol="100" />
          <note key="52" pos="1536" pan="0" len="96" vol="100" />
          <note key="53" pos="1632" pan="0" len="96" vol="100" />
          <note key="56" pos="1728" pan="0" len="192" vol="100" />
          <note key="53" pos="1920" pan="0" len="192" vol="100" />
          <note key="60" pos="2112" pan="0" len="96" vol="100" />
        </pattern>
        <pattern pos="201996" muted="0" steps="16" name="" type="1">
          <note key="64" pos="576" pan="0" len="192" vol="100" />
          <note key="64" pos="1344" pan="0" len="192" vol="100" />
        </pattern>
      </track>
      <track solo="0" name="16 (Ch6)" type="0" muted="0">
        <instrumenttrack usemasterpitch="1" pitch="0.0" basenote="57" pan="0" pitchrange="12" vol="30">
          <eldata />
          <instrument name="tripleoscillator" />
        </instrumenttrack>
        <pattern pos="221196" muted="0" steps="16" name="" type="1">
          <note key="61" pos="768" pan="0" len="192" vol="50" />
        </pattern>
        <pattern pos="7680" muted="0" steps="16" name="" type="1">
          <note key="63" pos="1824" pan="0" len="48" vol="100" />
          <note key="65" pos="1872" pan="0" len="48" vol="100" />
          <note key="62" pos="1920" pan="0" len="144" vol="100" />
          <note key="58" pos="2064" pan="0" len="48" vol="100" />
          <note key="55" pos="2112" pan="0" len="96" vol="100" />
        </pattern>
        <pattern pos="53760" muted="0" steps="16" name="" type="1">
          <note key="58" pos="0" pan="0" len="192" vol="100" />
        </pattern>
        <pattern pos="169740" muted="0" steps="16" name="" type="1">
          <note key="53" pos="624" pan="0" len="48" vol="100" />
          <note key="55" pos="672" pan="0" len="144" vol="100" />
          <note key="55" pos="816" pan="0" len="48" vol="100" />
          <note key="59" pos="864" pan="0" len="144" vol="100" />
          <note key="56" pos="1008" pan="0" len="48" vol="100" />
          <note key="58" pos="1056" pan="0" len="144" vol="100" />
          <note key="58" pos="1200" pan="0" len="48" vol="100" />
          <note key="62" pos="1248" pan="0" len="96" vol="100" />
          <note key="60" pos="1344" pan="0" len="96" vol="100" />
          <note key="60" pos="1440" pan="0" len="96" vol="100" />
          <note key="55" pos="1536" pan="0" len="96" vol="100" />
          <note key="58" pos="1632" pan="0" len="96" vol="100" />
          <note key="60" pos="1728" pan="0" len="192" vol="100" />
          <note key="58" pos="1920" pan="0" len="192" vol="100" />
          <note key="64" pos="2112" pan="0" len="96" vol="100" />
        </pattern>
      </track>
      <track solo="0" name="16 (Ch7)" type="0" muted="0">
        <instrumenttrack usemasterpitch="1" pitch="0.0" basenote="57" pan="0" pitchrange="12" vol="30">
          <eldata />
          <instrument name="tripleoscillator" />
        </instrumenttrack>
        <pattern pos="268044" muted="0" steps="16" name="" type="1">
          <note key="70" pos="24" pan="0" len="72" vol="100" />
          <note key="69" pos="96" pan="0" len="48" vol="100" />
          <note key="66" pos="144" pan="0" len="48" vol="100" />
          <note key="62" pos="192" pan="0" len="24" vol="100" />
          <note key="63" pos="216" pan="0" len="120" vol="100" />
          <note key="62" pos="336" pan="0" len="24" vol="100" />
          <note key="67" pos="360" pan="0" len="408" vol="100" />
        </pattern>
        <pattern pos="12288" muted="0" steps="16" name="" type="1">
          <note key="63" pos="0" pan="0" len="144" vol="100" />
          <note key="62" pos="144" pan="0" len="24" vol="100" />
          <note key="63" pos="168" pan="0" len="24" vol="100" />
          <note key="65" pos="192" pan="0" len="96" vol="100" />
          <note key="58" pos="288" pan="0" len="96" vol="100" />
          <note key="67" pos="384" pan="0" len="144" vol="100" />
          <note key="70" pos="528" pan="0" len="48" vol="100" />
          <note key="65" pos="576" pan="0" len="144" vol="100" />
          <note key="63" pos="720" pan="0" len="24" vol="100" />
          <note key="62" pos="744" pan="0" len="24" vol="100" />
          <note key="60" pos="768" pan="0" len="144" vol="100" />
          <note key="62" pos="912" pan="0" len="48" vol="100" />
          <note key="58" pos="960" pan="0" len="120" vol="100" />
          <note key="55" pos="1080" pan="0" len="72" vol="100" />
          <note key="60" pos="1152" pan="0" len="96" vol="100" />
          <note key="62" pos="1248" pan="0" len="48" vol="100" />
          <note key="63" pos="1296" pan="0" len="48" vol="100" />
          <note key="65" pos="1344" pan="0" len="144" vol="100" />
          <note key="58" pos="1488" pan="0" len="48" vol="100" />
        </pattern>
        <pattern pos="53760" muted="0" steps="16" name="" type="1">
          <note key="65" pos="0" pan="0" len="192" vol="100" />
        </pattern>
        <pattern pos="127500" muted="0" steps="16" name="" type="1">
          <note key="72" pos="756" pan="0" len="12" vol="100" />
          <note key="57" pos="768" pan="0" len="84" vol="100" />
          <note key="70" pos="852" pan="0" len="12" vol="100" />
          <note key="58" pos="864" pan="0" len="84" vol="100" />
          <note key="72" pos="948" pan="0" len="12" vol="100" />
          <note key="57" pos="960" pan="0" len="12" vol="100" />
          <note key="55" pos="972" pan="0" len="12" vol="100" />
          <note key="57" pos="984" pan="0" len="60" vol="100" />
          <note key="75" pos="1044" pan="0" len="12" vol="100" />
          <note key="55" pos="1056" pan="0" len="84" vol="100" />
          <note key="75" pos="1140" pan="0" len="12" vol="100" />
          <note key="65" pos="1152" pan="0" len="84" vol="100" />
          <note key="72" pos="1236" pan="0" len="12" vol="100" />
          <note key="63" pos="1248" pan="0" len="84" vol="100" />
          <note key="70" pos="1332" pan="0" len="12" vol="100" />
          <note key="55" pos="1344" pan="0" len="84" vol="100" />
          <note key="67" pos="1428" pan="0" len="12" vol="100" />
          <note key="51" pos="1440" pan="0" len="96" vol="100" />
        </pattern>
        <pattern pos="169740" muted="0" steps="16" name="" type="1">
          <note key="57" pos="624" pan="0" len="48" vol="100" />
          <note key="59" pos="672" pan="0" len="144" vol="100" />
          <note key="59" pos="816" pan="0" len="48" vol="100" />
          <note key="62" pos="864" pan="0" len="144" vol="100" />
          <note key="60" pos="1008" pan="0" len="48" vol="100" />
          <note key="62" pos="1056" pan="0" len="144" vol="100" />
          <note key="62" pos="1200" pan="0" len="48" vol="100" />
          <note key="65" pos="1248" pan="0" len="96" vol="100" />
          <note key="65" pos="1344" pan="0" len="96" vol="100" />
          <note key="64" pos="1440" pan="0" len="96" vol="100" />
          <note key="60" pos="1536" pan="0" len="96" vol="100" />
          <note key="62" pos="1632" pan="0" len="96" vol="100" />
          <note key="63" pos="1728" pan="0" len="192" vol="100" />
          <note key="62" pos="1920" pan="0" len="192" vol="100" />
          <note key="67" pos="2112" pan="0" len="96" vol="100" />
        </pattern>
        <pattern pos="200460" muted="0" steps="16" name="" type="1">
          <note key="59" pos="144" pan="0" len="48" vol="100" />
          <note key="64" pos="192" pan="0" len="576" vol="100" />
        </pattern>
        <pattern pos="201228" muted="0" steps="16" name="" type="1">
          <note key="47" pos="0" pan="0" len="72" vol="100" />
          <note key="45" pos="96" pan="0" len="72" vol="100" />
          <note key="40" pos="168" pan="0" len="600" vol="100" />
        </pattern>
        <pattern pos="221196" muted="0" steps="16" name="" type="1">
          <note key="65" pos="768" pan="0" len="192" vol="50" />
        </pattern>
        <pattern pos="236556" muted="0" steps="16" name="" type="1">
          <note key="60" pos="192" pan="0" len="72" vol="100" />
          <note key="58" pos="264" pan="0" len="96" vol="100" />
          <note key="53" pos="360" pan="0" len="24" vol="100" />
          <note key="62" pos="384" pan="0" len="288" vol="100" />
        </pattern>
      </track>
      <track solo="0" name="16 (Ch8)" type="0" muted="0">
        <instrumenttrack usemasterpitch="1" pitch="0.0" basenote="57" pan="0" pitchrange="12" vol="30">
          <eldata />
          <instrument name="tripleoscillator" />
        </instrumenttrack>
        <pattern pos="260364" muted="0" steps="16" name="" type="1">
          <note key="62" pos="2256" pan="0" len="48" vol="100" />
        </pattern>
        <pattern pos="113664" muted="0" steps="16" name="" type="1">
          <note key="62" pos="576" pan="0" len="72" vol="100" />
          <note key="65" pos="648" pan="0" len="24" vol="100" />
          <note key="64" pos="672" pan="0" len="24" vol="100" />
          <note key="60" pos="696" pan="0" len="24" vol="100" />
          <note key="62" pos="720" pan="0" len="72" vol="100" />
          <note key="67" pos="792" pan="0" len="48" vol="100" />
          <note key="65" pos="840" pan="0" len="12" vol="100" />
          <note key="64" pos="852" pan="0" len="12" vol="100" />
          <note key="65" pos="864" pan="0" len="72" vol="100" />
          <note key="69" pos="936" pan="0" len="24" vol="100" />
          <note key="65" pos="960" pan="0" len="24" vol="100" />
          <note key="62" pos="984" pan="0" len="24" vol="100" />
          <note key="60" pos="1008" pan="0" len="72" vol="100" />
          <note key="67" pos="1080" pan="0" len="72" vol="100" />
        </pattern>
        <pattern pos="118272" muted="0" steps="16" name="" type="1">
          <note key="62" pos="576" pan="0" len="72" vol="100" />
          <note key="65" pos="648" pan="0" len="24" vol="100" />
          <note key="64" pos="672" pan="0" len="24" vol="100" />
          <note key="60" pos="696" pan="0" len="24" vol="100" />
          <note key="62" pos="720" pan="0" len="72" vol="100" />
          <note key="67" pos="792" pan="0" len="48" vol="100" />
          <note key="65" pos="840" pan="0" len="12" vol="100" />
          <note key="64" pos="852" pan="0" len="12" vol="100" />
          <note key="65" pos="864" pan="0" len="72" vol="100" />
          <note key="69" pos="936" pan="0" len="24" vol="100" />
          <note key="65" pos="960" pan="0" len="24" vol="100" />
          <note key="62" pos="984" pan="0" len="24" vol="100" />
          <note key="60" pos="1008" pan="0" len="72" vol="100" />
          <note key="67" pos="1080" pan="0" len="1224" vol="100" />
        </pattern>
        <pattern pos="182028" muted="0" steps="16" name="" type="1">
          <note key="58" pos="528" pan="0" len="48" vol="100" />
          <note key="60" pos="576" pan="0" len="144" vol="100" />
          <note key="63" pos="720" pan="0" len="144" vol="100" />
          <note key="62" pos="864" pan="0" len="144" vol="100" />
          <note key="58" pos="1008" pan="0" len="144" vol="100" />
        </pattern>
        <pattern pos="197388" muted="0" steps="16" name="" type="1">
          <note key="63" pos="24" pan="0" len="384" vol="100" />
          <note key="63" pos="408" pan="0" len="384" vol="100" />
          <note key="66" pos="792" pan="0" len="288" vol="100" />
          <note key="59" pos="1080" pan="0" len="96" vol="100" />
          <note key="54" pos="1176" pan="0" len="168" vol="100" />
          <note key="59" pos="1344" pan="0" len="192" vol="100" />
        </pattern>
        <pattern pos="198924" muted="0" steps="16" name="" type="1">
          <note key="59" pos="24" pan="0" len="384" vol="100" />
          <note key="59" pos="408" pan="0" len="360" vol="100" />
          <note key="59" pos="792" pan="0" len="384" vol="100" />
          <note key="59" pos="1176" pan="0" len="360" vol="100" />
        </pattern>
        <pattern pos="200460" muted="0" steps="16" name="" type="1">
          <note key="64" pos="144" pan="0" len="48" vol="100" />
          <note key="68" pos="192" pan="0" len="576" vol="100" />
        </pattern>
        <pattern pos="201228" muted="0" steps="16" name="" type="1">
          <note key="50" pos="0" pan="0" len="72" vol="100" />
          <note key="50" pos="96" pan="0" len="72" vol="100" />
          <note key="43" pos="168" pan="0" len="600" vol="100" />
        </pattern>
        <pattern pos="236556" muted="0" steps="16" name="" type="1">
          <note key="63" pos="192" pan="0" len="72" vol="100" />
          <note key="63" pos="264" pan="0" len="96" vol="100" />
          <note key="60" pos="360" pan="0" len="24" vol="100" />
          <note key="65" pos="384" pan="0" len="288" vol="100" />
        </pattern>
        <pattern pos="248844" muted="0" steps="16" name="" type="1">
          <note key="57" pos="1152" pan="0" len="648" vol="100" />
        </pattern>
        <pattern pos="251148" muted="0" steps="16" name="" type="1">
          <note key="62" pos="2208" pan="0" len="96" vol="100" />
        </pattern>
        <pattern pos="253452" muted="0" steps="16" name="" type="1">
          <note key="67" pos="0" pan="0" len="72" vol="100" />
          <note key="65" pos="72" pan="0" len="72" vol="100" />
          <note key="62" pos="144" pan="0" len="144" vol="100" />
          <note key="65" pos="288" pan="0" len="72" vol="100" />
          <note key="58" pos="360" pan="0" len="72" vol="100" />
          <note key="57" pos="432" pan="0" len="96" vol="100" />
          <note key="55" pos="528" pan="0" len="48" vol="100" />
          <note key="62" pos="576" pan="0" len="240" vol="100" />
          <note key="65" pos="816" pan="0" len="48" vol="100" />
          <note key="58" pos="864" pan="0" len="288" vol="100" />
          <note key="67" pos="1152" pan="0" len="72" vol="100" />
          <note key="65" pos="1224" pan="0" len="72" vol="100" />
          <note key="62" pos="1296" pan="0" len="144" vol="100" />
          <note key="65" pos="1440" pan="0" len="72" vol="100" />
          <note key="58" pos="1512" pan="0" len="72" vol="100" />
          <note key="57" pos="1584" pan="0" len="96" vol="100" />
          <note key="53" pos="1680" pan="0" len="24" vol="100" />
          <note key="57" pos="1704" pan="0" len="24" vol="100" />
          <note key="55" pos="1728" pan="0" len="240" vol="100" />
          <note key="65" pos="1968" pan="0" len="48" vol="100" />
          <note key="55" pos="2016" pan="0" len="216" vol="100" />
          <note key="62" pos="2232" pan="0" len="72" vol="100" />
        </pattern>
        <pattern pos="255756" muted="0" steps="16" name="" type="1">
          <note key="67" pos="0" pan="0" len="72" vol="100" />
          <note key="65" pos="72" pan="0" len="72" vol="100" />
          <note key="62" pos="144" pan="0" len="144" vol="100" />
          <note key="65" pos="288" pan="0" len="72" vol="100" />
          <note key="58" pos="360" pan="0" len="72" vol="100" />
          <note key="57" pos="432" pan="0" len="96" vol="100" />
          <note key="55" pos="528" pan="0" len="48" vol="100" />
          <note key="62" pos="576" pan="0" len="240" vol="100" />
          <note key="65" pos="816" pan="0" len="48" vol="100" />
          <note key="58" pos="864" pan="0" len="288" vol="100" />
          <note key="67" pos="1152" pan="0" len="72" vol="100" />
          <note key="65" pos="1224" pan="0" len="72" vol="100" />
          <note key="62" pos="1296" pan="0" len="144" vol="100" />
          <note key="65" pos="1440" pan="0" len="72" vol="100" />
          <note key="58" pos="1512" pan="0" len="72" vol="100" />
          <note key="57" pos="1584" pan="0" len="96" vol="100" />
          <note key="53" pos="1680" pan="0" len="24" vol="100" />
          <note key="57" pos="1704" pan="0" len="24" vol="100" />
          <note key="55" pos="1728" pan="0" len="240" vol="100" />
          <note key="65" pos="1968" pan="0" len="48" vol="100" />
          <note key="55" pos="2016" pan="0" len="216" vol="100" />
          <note key="62" pos="2232" pan="0" len="72" vol="100" />
        </pattern>
      </track>
      <track solo="0" name="16 (Ch9)" type="0" muted="0">
        <instrumenttrack usemasterpitch="1" pitch="0.0" basenote="57" pan="0" pitchrange="12" vol="30">
          <eldata />
          <instrument name="tripleoscillator" />
        </instrumenttrack>
        <pattern pos="267276" muted="0" steps="16" name="" type="1">
          <note key="55" pos="0" pan="0" len="24" vol="100" />
          <note key="62" pos="24" pan="0" len="72" vol="100" />
          <note key="60" pos="96" pan="0" len="48" vol="100" />
          <note key="65" pos="144" pan="0" len="24" vol="100" />
          <note key="62" pos="168" pan="0" len="72" vol="100" />
          <note key="60" pos="240" pan="0" len="48" vol="100" />
          <note key="58" pos="288" pan="0" len="96" vol="100" />
          <note key="60" pos="384" pan="0" len="48" vol="100" />
          <note key="70" pos="432" pan="0" len="24" vol="100" />
          <note key="67" pos="456" pan="0" len="312" vol="100" />
        </pattern>
        <pattern pos="52224" muted="0" steps="16" name="" type="1">
          <note key="57" pos="0" pan="0" len="168" vol="100" />
          <note key="59" pos="168" pan="0" len="24" vol="100" />
          <note key="60" pos="192" pan="0" len="192" vol="100" />
          <note key="62" pos="384" pan="0" len="168" vol="100" />
          <note key="60" pos="552" pan="0" len="24" vol="100" />
          <note key="62" pos="576" pan="0" len="576" vol="100" />
          <note key="64" pos="1152" pan="0" len="168" vol="100" />
          <note key="62" pos="1320" pan="0" len="24" vol="100" />
          <note key="64" pos="1344" pan="0" len="192" vol="100" />
        </pattern>
        <pattern pos="144396" muted="0" steps="16" name="" type="1">
          <note key="56" pos="384" pan="0" len="24" vol="31" />
          <note key="55" pos="408" pan="0" len="24" vol="47" />
          <note key="51" pos="432" pan="0" len="24" vol="100" />
          <note key="49" pos="456" pan="0" len="24" vol="47" />
          <note key="58" pos="480" pan="0" len="24" vol="100" />
          <note key="56" pos="504" pan="0" len="24" vol="47" />
          <note key="55" pos="528" pan="0" len="24" vol="100" />
          <note key="51" pos="552" pan="0" len="24" vol="62" />
          <note key="56" pos="576" pan="0" len="24" vol="31" />
          <note key="55" pos="600" pan="0" len="24" vol="47" />
          <note key="51" pos="624" pan="0" len="24" vol="100" />
          <note key="49" pos="648" pan="0" len="24" vol="47" />
          <note key="58" pos="672" pan="0" len="24" vol="100" />
          <note key="56" pos="696" pan="0" len="24" vol="47" />
          <note key="55" pos="720" pan="0" len="24" vol="100" />
          <note key="51" pos="744" pan="0" len="24" vol="62" />
        </pattern>
        <pattern pos="145164" muted="0" steps="16" name="" type="1">
          <note key="56" pos="0" pan="0" len="24" vol="31" />
          <note key="55" pos="24" pan="0" len="24" vol="47" />
          <note key="51" pos="48" pan="0" len="24" vol="100" />
          <note key="49" pos="72" pan="0" len="24" vol="47" />
          <note key="58" pos="96" pan="0" len="24" vol="100" />
          <note key="56" pos="120" pan="0" len="24" vol="47" />
          <note key="55" pos="144" pan="0" len="24" vol="100" />
          <note key="51" pos="168" pan="0" len="24" vol="62" />
          <note key="56" pos="192" pan="0" len="24" vol="31" />
          <note key="55" pos="216" pan="0" len="24" vol="47" />
          <note key="51" pos="240" pan="0" len="24" vol="100" />
          <note key="49" pos="264" pan="0" len="24" vol="47" />
          <note key="58" pos="288" pan="0" len="24" vol="100" />
          <note key="56" pos="312" pan="0" len="24" vol="47" />
          <note key="55" pos="336" pan="0" len="24" vol="100" />
          <note key="51" pos="360" pan="0" len="24" vol="62" />
          <note key="56" pos="384" pan="0" len="24" vol="31" />
          <note key="55" pos="408" pan="0" len="24" vol="47" />
          <note key="51" pos="432" pan="0" len="24" vol="100" />
          <note key="49" pos="456" pan="0" len="24" vol="47" />
          <note key="58" pos="480" pan="0" len="24" vol="100" />
          <note key="56" pos="504" pan="0" len="24" vol="47" />
          <note key="55" pos="528" pan="0" len="24" vol="100" />
          <note key="51" pos="552" pan="0" len="24" vol="62" />
          <note key="56" pos="576" pan="0" len="24" vol="31" />
          <note key="55" pos="600" pan="0" len="24" vol="47" />
          <note key="51" pos="624" pan="0" len="24" vol="100" />
          <note key="49" pos="648" pan="0" len="24" vol="47" />
          <note key="58" pos="672" pan="0" len="24" vol="100" />
          <note key="56" pos="696" pan="0" len="24" vol="47" />
          <note key="55" pos="720" pan="0" len="24" vol="100" />
          <note key="51" pos="744" pan="0" len="24" vol="62" />
        </pattern>
        <pattern pos="156684" muted="0" steps="16" name="" type="1">
          <note key="56" pos="0" pan="0" len="24" vol="31" />
          <note key="55" pos="24" pan="0" len="24" vol="47" />
          <note key="51" pos="48" pan="0" len="24" vol="100" />
          <note key="49" pos="72" pan="0" len="24" vol="47" />
          <note key="58" pos="96" pan="0" len="24" vol="100" />
          <note key="56" pos="120" pan="0" len="24" vol="47" />
          <note key="55" pos="144" pan="0" len="24" vol="100" />
          <note key="51" pos="168" pan="0" len="24" vol="62" />
          <note key="56" pos="192" pan="0" len="24" vol="31" />
          <note key="55" pos="216" pan="0" len="24" vol="47" />
          <note key="51" pos="240" pan="0" len="24" vol="100" />
          <note key="49" pos="264" pan="0" len="24" vol="47" />
          <note key="58" pos="288" pan="0" len="24" vol="100" />
          <note key="56" pos="312" pan="0" len="24" vol="47" />
          <note key="55" pos="336" pan="0" len="24" vol="100" />
          <note key="51" pos="360" pan="0" len="24" vol="62" />
          <note key="56" pos="384" pan="0" len="24" vol="31" />
          <note key="55" pos="408" pan="0" len="24" vol="47" />
          <note key="51" pos="432" pan="0" len="24" vol="100" />
          <note key="49" pos="456" pan="0" len="24" vol="47" />
          <note key="58" pos="480" pan="0" len="24" vol="100" />
          <note key="56" pos="504" pan="0" len="24" vol="47" />
          <note key="55" pos="528" pan="0" len="24" vol="100" />
          <note key="51" pos="552" pan="0" len="24" vol="62" />
          <note key="56" pos="576" pan="0" len="24" vol="31" />
          <note key="55" pos="600" pan="0" len="24" vol="47" />
          <note key="51" pos="624" pan="0" len="24" vol="100" />
          <note key="49" pos="648" pan="0" len="24" vol="47" />
          <note key="58" pos="672" pan="0" len="24" vol="100" />
          <note key="56" pos="696" pan="0" len="24" vol="47" />
          <note key="55" pos="720" pan="0" len="24" vol="100" />
          <note key="51" pos="744" pan="0" len="24" vol="62" />
        </pattern>
        <pattern pos="188172" muted="0" steps="16" name="" type="1">
          <note key="64" pos="24" pan="0" len="384" vol="100" />
          <note key="64" pos="408" pan="0" len="168" vol="100" />
          <note key="66" pos="576" pan="0" len="96" vol="100" />
          <note key="64" pos="672" pan="0" len="120" vol="100" />
          <note key="67" pos="792" pan="0" len="192" vol="100" />
          <note key="62" pos="984" pan="0" len="192" vol="100" />
          <note key="64" pos="1176" pan="0" len="192" vol="100" />
          <note key="67" pos="1368" pan="0" len="96" vol="100" />
          <note key="59" pos="1464" pan="0" len="24" vol="100" />
          <note key="62" pos="1488" pan="0" len="48" vol="100" />
        </pattern>
        <pattern pos="189708" muted="0" steps="16" name="" type="1">
          <note key="59" pos="48" pan="0" len="384" vol="100" />
          <note key="59" pos="432" pan="0" len="336" vol="100" />
          <note key="59" pos="816" pan="0" len="384" vol="100" />
          <note key="59" pos="1200" pan="0" len="336" vol="100" />
        </pattern>
        <pattern pos="194316" muted="0" steps="16" name="" type="1">
          <note key="59" pos="48" pan="0" len="384" vol="100" />
          <note key="59" pos="432" pan="0" len="336" vol="100" />
          <note key="59" pos="816" pan="0" len="384" vol="100" />
          <note key="59" pos="1200" pan="0" len="336" vol="100" />
        </pattern>
        <pattern pos="197388" muted="0" steps="16" name="" type="1">
          <note key="61" pos="24" pan="0" len="384" vol="100" />
          <note key="61" pos="408" pan="0" len="384" vol="100" />
          <note key="59" pos="792" pan="0" len="288" vol="100" />
          <note key="62" pos="1080" pan="0" len="96" vol="100" />
          <note key="59" pos="1176" pan="0" len="360" vol="100" />
        </pattern>
        <pattern pos="198924" muted="0" steps="16" name="" type="1">
          <note key="57" pos="24" pan="0" len="384" vol="100" />
          <note key="57" pos="408" pan="0" len="360" vol="100" />
          <note key="57" pos="792" pan="0" len="384" vol="100" />
          <note key="57" pos="1176" pan="0" len="360" vol="100" />
        </pattern>
        <pattern pos="200460" muted="0" steps="16" name="" type="1">
          <note key="64" pos="0" pan="0" len="72" vol="100" />
          <note key="62" pos="72" pan="0" len="72" vol="100" />
          <note key="69" pos="144" pan="0" len="48" vol="100" />
          <note key="59" pos="192" pan="0" len="576" vol="100" />
        </pattern>
        <pattern pos="201228" muted="0" steps="16" name="" type="1">
          <note key="54" pos="0" pan="0" len="72" vol="100" />
          <note key="54" pos="96" pan="0" len="72" vol="100" />
          <note key="47" pos="168" pan="0" len="600" vol="100" />
        </pattern>
        <pattern pos="205068" muted="0" steps="16" name="" type="1">
          <note key="60" pos="48" pan="0" len="192" vol="52" />
          <note key="60" pos="240" pan="0" len="192" vol="52" />
          <note key="50" pos="432" pan="0" len="192" vol="52" />
          <note key="50" pos="624" pan="0" len="192" vol="52" />
          <note key="55" pos="816" pan="0" len="192" vol="52" />
          <note key="55" pos="1008" pan="0" len="192" vol="52" />
          <note key="55" pos="1200" pan="0" len="192" vol="52" />
          <note key="53" pos="1392" pan="0" len="144" vol="52" />
        </pattern>
        <pattern pos="211212" muted="0" steps="16" name="" type="1">
          <note key="55" pos="48" pan="0" len="336" vol="34" />
          <note key="55" pos="432" pan="0" len="336" vol="34" />
          <note key="55" pos="816" pan="0" len="336" vol="34" />
          <note key="55" pos="1200" pan="0" len="336" vol="34" />
        </pattern>
        <pattern pos="212748" muted="0" steps="16" name="" type="1">
          <note key="60" pos="48" pan="0" len="192" vol="52" />
          <note key="60" pos="240" pan="0" len="192" vol="52" />
          <note key="50" pos="432" pan="0" len="192" vol="52" />
          <note key="50" pos="624" pan="0" len="192" vol="52" />
          <note key="55" pos="816" pan="0" len="192" vol="52" />
          <note key="55" pos="1008" pan="0" len="192" vol="52" />
          <note key="55" pos="1200" pan="0" len="192" vol="52" />
          <note key="53" pos="1392" pan="0" len="144" vol="52" />
        </pattern>
        <pattern pos="218892" muted="0" steps="16" name="" type="1">
          <note key="55" pos="48" pan="0" len="336" vol="34" />
          <note key="55" pos="432" pan="0" len="336" vol="34" />
          <note key="55" pos="816" pan="0" len="336" vol="34" />
          <note key="55" pos="1200" pan="0" len="336" vol="34" />
        </pattern>
        <pattern pos="220428" muted="0" steps="16" name="" type="1">
          <note key="55" pos="48" pan="0" len="720" vol="34" />
        </pattern>
        <pattern pos="236556" muted="0" steps="16" name="" type="1">
          <note key="68" pos="192" pan="0" len="72" vol="100" />
          <note key="67" pos="264" pan="0" len="96" vol="100" />
          <note key="63" pos="360" pan="0" len="24" vol="100" />
          <note key="70" pos="384" pan="0" len="288" vol="100" />
        </pattern>
        <pattern pos="248460" muted="0" steps="16" name="" type="1">
          <note key="68" pos="0" pan="0" len="96" vol="100" />
          <note key="70" pos="96" pan="0" len="288" vol="100" />
        </pattern>
        <pattern pos="248844" muted="0" steps="16" name="" type="1">
          <note key="58" pos="1152" pan="0" len="648" vol="100" />
        </pattern>
        <pattern pos="251148" muted="0" steps="16" name="" type="1">
          <note key="67" pos="864" pan="0" len="96" vol="100" />
          <note key="65" pos="960" pan="0" len="96" vol="100" />
          <note key="62" pos="1056" pan="0" len="96" vol="100" />
          <note key="55" pos="1152" pan="0" len="1152" vol="100" />
        </pattern>
        <pattern pos="262668" muted="0" steps="16" name="" type="1">
          <note key="67" pos="0" pan="0" len="72" vol="100" />
          <note key="65" pos="72" pan="0" len="72" vol="100" />
          <note key="62" pos="144" pan="0" len="144" vol="100" />
          <note key="65" pos="288" pan="0" len="72" vol="100" />
          <note key="58" pos="360" pan="0" len="72" vol="100" />
          <note key="57" pos="432" pan="0" len="96" vol="100" />
          <note key="55" pos="528" pan="0" len="48" vol="100" />
          <note key="62" pos="576" pan="0" len="240" vol="100" />
          <note key="65" pos="816" pan="0" len="48" vol="100" />
          <note key="58" pos="864" pan="0" len="288" vol="100" />
          <note key="67" pos="1152" pan="0" len="72" vol="100" />
          <note key="65" pos="1224" pan="0" len="72" vol="100" />
          <note key="62" pos="1296" pan="0" len="144" vol="100" />
          <note key="65" pos="1440" pan="0" len="72" vol="100" />
          <note key="58" pos="1512" pan="0" len="72" vol="100" />
          <note key="57" pos="1584" pan="0" len="96" vol="100" />
          <note key="53" pos="1680" pan="0" len="24" vol="100" />
          <note key="57" pos="1704" pan="0" len="24" vol="100" />
          <note key="55" pos="1728" pan="0" len="240" vol="100" />
          <note key="65" pos="1968" pan="0" len="48" vol="100" />
          <note key="55" pos="2016" pan="0" len="288" vol="100" />
        </pattern>
        <pattern pos="264972" muted="0" steps="16" name="" type="1">
          <note key="67" pos="0" pan="0" len="72" vol="100" />
          <note key="65" pos="72" pan="0" len="72" vol="100" />
          <note key="62" pos="144" pan="0" len="144" vol="100" />
          <note key="65" pos="288" pan="0" len="72" vol="100" />
          <note key="58" pos="360" pan="0" len="72" vol="100" />
          <note key="57" pos="432" pan="0" len="96" vol="100" />
          <note key="55" pos="528" pan="0" len="48" vol="100" />
          <note key="62" pos="576" pan="0" len="240" vol="100" />
          <note key="65" pos="816" pan="0" len="48" vol="100" />
          <note key="58" pos="864" pan="0" len="288" vol="100" />
          <note key="67" pos="1152" pan="0" len="72" vol="100" />
          <note key="65" pos="1224" pan="0" len="72" vol="100" />
          <note key="62" pos="1296" pan="0" len="144" vol="100" />
          <note key="65" pos="1440" pan="0" len="72" vol="100" />
          <note key="58" pos="1512" pan="0" len="72" vol="100" />
          <note key="57" pos="1584" pan="0" len="96" vol="100" />
          <note key="53" pos="1680" pan="0" len="24" vol="100" />
          <note key="57" pos="1704" pan="0" len="24" vol="100" />
          <note key="55" pos="1728" pan="0" len="240" vol="100" />
          <note key="65" pos="1968" pan="0" len="48" vol="100" />
          <note key="55" pos="2016" pan="0" len="288" vol="100" />
        </pattern>
      </track>
      <track solo="0" name="16 (Ch10)" type="0" muted="0">
        <instrumenttrack usemasterpitch="1" pitch="0.0" basenote="57" pan="0" pitchrange="12" vol="30">
          <eldata />
          <instrument name="tripleoscillator" />
        </instrumenttrack>
        <pattern pos="248844" muted="0" steps="16" name="" type="1">
          <note key="65" pos="1080" pan="0" len="72" vol="100" />
          <note key="62" pos="1152" pan="0" len="480" vol="100" />
        </pattern>
        <pattern pos="144396" muted="0" steps="16" name="" type="1">
          <note key="56" pos="420" pan="0" len="24" vol="16" />
          <note key="55" pos="444" pan="0" len="24" vol="23" />
          <note key="51" pos="468" pan="0" len="24" vol="50" />
          <note key="49" pos="492" pan="0" len="24" vol="23" />
          <note key="58" pos="516" pan="0" len="24" vol="50" />
          <note key="56" pos="540" pan="0" len="24" vol="23" />
          <note key="55" pos="564" pan="0" len="24" vol="50" />
          <note key="51" pos="588" pan="0" len="24" vol="31" />
          <note key="56" pos="612" pan="0" len="24" vol="16" />
          <note key="55" pos="636" pan="0" len="24" vol="23" />
          <note key="51" pos="660" pan="0" len="24" vol="50" />
          <note key="49" pos="684" pan="0" len="24" vol="23" />
          <note key="58" pos="708" pan="0" len="24" vol="50" />
          <note key="56" pos="732" pan="0" len="24" vol="23" />
          <note key="55" pos="756" pan="0" len="12" vol="50" />
        </pattern>
        <pattern pos="145164" muted="0" steps="16" name="" type="1">
          <note key="56" pos="36" pan="0" len="24" vol="16" />
          <note key="55" pos="60" pan="0" len="24" vol="23" />
          <note key="51" pos="84" pan="0" len="24" vol="50" />
          <note key="49" pos="108" pan="0" len="24" vol="23" />
          <note key="58" pos="132" pan="0" len="24" vol="50" />
          <note key="56" pos="156" pan="0" len="24" vol="23" />
          <note key="55" pos="180" pan="0" len="24" vol="50" />
          <note key="51" pos="204" pan="0" len="24" vol="31" />
          <note key="56" pos="228" pan="0" len="24" vol="16" />
          <note key="55" pos="252" pan="0" len="24" vol="23" />
          <note key="51" pos="276" pan="0" len="24" vol="50" />
          <note key="49" pos="300" pan="0" len="24" vol="23" />
          <note key="58" pos="324" pan="0" len="24" vol="50" />
          <note key="56" pos="348" pan="0" len="24" vol="23" />
          <note key="55" pos="372" pan="0" len="48" vol="50" />
          <note key="56" pos="420" pan="0" len="24" vol="16" />
          <note key="55" pos="444" pan="0" len="24" vol="23" />
          <note key="51" pos="468" pan="0" len="24" vol="50" />
          <note key="49" pos="492" pan="0" len="24" vol="23" />
          <note key="58" pos="516" pan="0" len="24" vol="50" />
          <note key="56" pos="540" pan="0" len="24" vol="23" />
          <note key="55" pos="564" pan="0" len="24" vol="50" />
          <note key="51" pos="588" pan="0" len="24" vol="31" />
          <note key="56" pos="612" pan="0" len="24" vol="16" />
          <note key="55" pos="636" pan="0" len="24" vol="23" />
          <note key="51" pos="660" pan="0" len="24" vol="50" />
          <note key="49" pos="684" pan="0" len="24" vol="23" />
          <note key="58" pos="708" pan="0" len="24" vol="50" />
          <note key="56" pos="732" pan="0" len="24" vol="23" />
          <note key="55" pos="756" pan="0" len="12" vol="50" />
        </pattern>
        <pattern pos="156684" muted="0" steps="16" name="" type="1">
          <note key="56" pos="36" pan="0" len="24" vol="16" />
          <note key="55" pos="60" pan="0" len="24" vol="23" />
          <note key="51" pos="84" pan="0" len="24" vol="50" />
          <note key="49" pos="108" pan="0" len="24" vol="23" />
          <note key="58" pos="132" pan="0" len="24" vol="50" />
          <note key="56" pos="156" pan="0" len="24" vol="23" />
          <note key="55" pos="180" pan="0" len="24" vol="50" />
          <note key="51" pos="204" pan="0" len="24" vol="31" />
          <note key="56" pos="228" pan="0" len="24" vol="16" />
          <note key="55" pos="252" pan="0" len="24" vol="23" />
          <note key="51" pos="276" pan="0" len="24" vol="50" />
          <note key="49" pos="300" pan="0" len="24" vol="23" />
          <note key="58" pos="324" pan="0" len="24" vol="50" />
          <note key="56" pos="348" pan="0" len="24" vol="23" />
          <note key="55" pos="372" pan="0" len="48" vol="50" />
          <note key="56" pos="420" pan="0" len="24" vol="16" />
          <note key="55" pos="444" pan="0" len="24" vol="23" />
          <note key="51" pos="468" pan="0" len="24" vol="50" />
          <note key="49" pos="492" pan="0" len="24" vol="23" />
          <note key="58" pos="516" pan="0" len="24" vol="50" />
          <note key="56" pos="540" pan="0" len="24" vol="23" />
          <note key="55" pos="564" pan="0" len="24" vol="50" />
          <note key="51" pos="588" pan="0" len="24" vol="31" />
          <note key="56" pos="612" pan="0" len="24" vol="16" />
          <note key="55" pos="636" pan="0" len="24" vol="23" />
          <note key="51" pos="660" pan="0" len="24" vol="50" />
          <note key="49" pos="684" pan="0" len="24" vol="23" />
          <note key="58" pos="708" pan="0" len="24" vol="50" />
          <note key="56" pos="732" pan="0" len="24" vol="23" />
          <note key="55" pos="756" pan="0" len="12" vol="50" />
        </pattern>
        <pattern pos="189708" muted="0" steps="16" name="" type="1">
          <note key="62" pos="48" pan="0" len="384" vol="100" />
          <note key="62" pos="432" pan="0" len="336" vol="100" />
          <note key="62" pos="816" pan="0" len="384" vol="100" />
          <note key="62" pos="1200" pan="0" len="336" vol="100" />
        </pattern>
        <pattern pos="191244" muted="0" steps="16" name="" type="1">
          <note key="61" pos="48" pan="0" len="108" vol="100" />
          <note key="62" pos="156" pan="0" len="36" vol="100" />
          <note key="64" pos="192" pan="0" len="72" vol="100" />
          <note key="59" pos="264" pan="0" len="168" vol="100" />
          <note key="61" pos="432" pan="0" len="120" vol="100" />
          <note key="66" pos="552" pan="0" len="72" vol="100" />
          <note key="59" pos="624" pan="0" len="144" vol="100" />
          <note key="61" pos="816" pan="0" len="108" vol="100" />
          <note key="62" pos="924" pan="0" len="36" vol="100" />
          <note key="64" pos="960" pan="0" len="72" vol="100" />
          <note key="59" pos="1032" pan="0" len="168" vol="100" />
          <note key="61" pos="1200" pan="0" len="120" vol="100" />
          <note key="66" pos="1320" pan="0" len="72" vol="100" />
          <note key="59" pos="1392" pan="0" len="144" vol="100" />
        </pattern>
        <pattern pos="194316" muted="0" steps="16" name="" type="1">
          <note key="62" pos="48" pan="0" len="384" vol="100" />
          <note key="62" pos="432" pan="0" len="336" vol="100" />
          <note key="62" pos="816" pan="0" len="384" vol="100" />
          <note key="62" pos="1200" pan="0" len="336" vol="100" />
        </pattern>
        <pattern pos="195852" muted="0" steps="16" name="" type="1">
          <note key="61" pos="48" pan="0" len="108" vol="100" />
          <note key="62" pos="156" pan="0" len="36" vol="100" />
          <note key="64" pos="192" pan="0" len="72" vol="100" />
          <note key="59" pos="264" pan="0" len="168" vol="100" />
          <note key="61" pos="432" pan="0" len="120" vol="100" />
          <note key="66" pos="552" pan="0" len="72" vol="100" />
          <note key="59" pos="624" pan="0" len="144" vol="100" />
          <note key="61" pos="816" pan="0" len="108" vol="100" />
          <note key="62" pos="924" pan="0" len="36" vol="100" />
          <note key="64" pos="960" pan="0" len="72" vol="100" />
          <note key="59" pos="1032" pan="0" len="168" vol="100" />
          <note key="61" pos="1200" pan="0" len="120" vol="100" />
          <note key="66" pos="1320" pan="0" len="72" vol="100" />
          <note key="59" pos="1392" pan="0" len="144" vol="100" />
        </pattern>
        <pattern pos="197388" muted="0" steps="16" name="" type="1">
          <note key="68" pos="24" pan="0" len="384" vol="100" />
          <note key="68" pos="408" pan="0" len="384" vol="100" />
          <note key="62" pos="792" pan="0" len="288" vol="100" />
          <note key="68" pos="1080" pan="0" len="96" vol="100" />
          <note key="62" pos="1176" pan="0" len="360" vol="100" />
        </pattern>
        <pattern pos="198924" muted="0" steps="16" name="" type="1">
          <note key="64" pos="24" pan="0" len="384" vol="100" />
          <note key="64" pos="408" pan="0" len="360" vol="100" />
          <note key="64" pos="792" pan="0" len="384" vol="100" />
          <note key="64" pos="1176" pan="0" len="360" vol="100" />
        </pattern>
        <pattern pos="205068" muted="0" steps="16" name="" type="1">
          <note key="62" pos="48" pan="0" len="192" vol="52" />
          <note key="62" pos="240" pan="0" len="192" vol="52" />
          <note key="57" pos="432" pan="0" len="192" vol="52" />
          <note key="57" pos="624" pan="0" len="192" vol="52" />
          <note key="62" pos="816" pan="0" len="192" vol="52" />
          <note key="62" pos="1008" pan="0" len="192" vol="52" />
          <note key="58" pos="1200" pan="0" len="192" vol="52" />
          <note key="56" pos="1392" pan="0" len="144" vol="52" />
        </pattern>
        <pattern pos="211212" muted="0" steps="16" name="" type="1">
          <note key="60" pos="48" pan="0" len="336" vol="34" />
          <note key="60" pos="432" pan="0" len="336" vol="34" />
          <note key="60" pos="816" pan="0" len="336" vol="34" />
          <note key="60" pos="1200" pan="0" len="336" vol="34" />
        </pattern>
        <pattern pos="212748" muted="0" steps="16" name="" type="1">
          <note key="62" pos="48" pan="0" len="192" vol="52" />
          <note key="62" pos="240" pan="0" len="192" vol="52" />
          <note key="57" pos="432" pan="0" len="192" vol="52" />
          <note key="57" pos="624" pan="0" len="192" vol="52" />
          <note key="62" pos="816" pan="0" len="192" vol="52" />
          <note key="62" pos="1008" pan="0" len="192" vol="52" />
          <note key="58" pos="1200" pan="0" len="192" vol="52" />
          <note key="56" pos="1392" pan="0" len="144" vol="52" />
        </pattern>
        <pattern pos="218892" muted="0" steps="16" name="" type="1">
          <note key="60" pos="48" pan="0" len="336" vol="34" />
          <note key="60" pos="432" pan="0" len="336" vol="34" />
          <note key="60" pos="816" pan="0" len="336" vol="34" />
          <note key="60" pos="1200" pan="0" len="336" vol="34" />
        </pattern>
        <pattern pos="220428" muted="0" steps="16" name="" type="1">
          <note key="60" pos="48" pan="0" len="96" vol="34" />
          <note key="62" pos="384" pan="0" len="384" vol="100" />
        </pattern>
        <pattern pos="248460" muted="0" steps="16" name="" type="1">
          <note key="63" pos="0" pan="0" len="96" vol="100" />
          <note key="65" pos="96" pan="0" len="288" vol="100" />
        </pattern>
      </track>
      <track solo="0" name="16 (Ch11)" type="0" muted="0">
        <instrumenttrack usemasterpitch="1" pitch="0.0" basenote="57" pan="0" pitchrange="12" vol="30">
          <eldata />
          <instrument name="tripleoscillator" />
        </instrumenttrack>
        <pattern pos="248460" muted="0" steps="16" name="" type="1">
          <note key="58" pos="0" pan="0" len="96" vol="100" />
          <note key="60" pos="96" pan="0" len="288" vol="100" />
        </pattern>
        <pattern pos="54528" muted="0" steps="16" name="" type="1">
          <note key="58" pos="168" pan="0" len="72" vol="100" />
          <note key="60" pos="240" pan="0" len="72" vol="100" />
          <note key="55" pos="312" pan="0" len="456" vol="100" />
        </pattern>
        <pattern pos="189708" muted="0" steps="16" name="" type="1">
          <note key="64" pos="48" pan="0" len="384" vol="100" />
          <note key="64" pos="432" pan="0" len="216" vol="100" />
          <note key="67" pos="648" pan="0" len="120" vol="100" />
          <note key="64" pos="816" pan="0" len="384" vol="100" />
          <note key="64" pos="1200" pan="0" len="216" vol="100" />
          <note key="67" pos="1416" pan="0" len="120" vol="100" />
        </pattern>
        <pattern pos="194316" muted="0" steps="16" name="" type="1">
          <note key="64" pos="48" pan="0" len="384" vol="100" />
          <note key="64" pos="432" pan="0" len="216" vol="100" />
          <note key="67" pos="648" pan="0" len="120" vol="100" />
          <note key="64" pos="816" pan="0" len="384" vol="100" />
          <note key="64" pos="1200" pan="0" len="216" vol="100" />
          <note key="67" pos="1416" pan="0" len="120" vol="100" />
        </pattern>
        <pattern pos="205068" muted="0" steps="16" name="" type="1">
          <note key="63" pos="48" pan="0" len="192" vol="52" />
          <note key="63" pos="240" pan="0" len="192" vol="52" />
          <note key="58" pos="432" pan="0" len="192" vol="52" />
          <note key="58" pos="624" pan="0" len="192" vol="52" />
          <note key="63" pos="816" pan="0" len="192" vol="52" />
          <note key="63" pos="1008" pan="0" len="192" vol="52" />
          <note key="60" pos="1200" pan="0" len="192" vol="52" />
          <note key="60" pos="1392" pan="0" len="144" vol="52" />
        </pattern>
        <pattern pos="211212" muted="0" steps="16" name="" type="1">
          <note key="62" pos="48" pan="0" len="336" vol="34" />
          <note key="62" pos="432" pan="0" len="336" vol="34" />
          <note key="62" pos="816" pan="0" len="336" vol="34" />
          <note key="62" pos="1200" pan="0" len="336" vol="34" />
        </pattern>
        <pattern pos="212748" muted="0" steps="16" name="" type="1">
          <note key="63" pos="48" pan="0" len="192" vol="52" />
          <note key="63" pos="240" pan="0" len="192" vol="52" />
          <note key="58" pos="432" pan="0" len="192" vol="52" />
          <note key="58" pos="624" pan="0" len="192" vol="52" />
          <note key="63" pos="816" pan="0" len="192" vol="52" />
          <note key="63" pos="1008" pan="0" len="192" vol="52" />
          <note key="60" pos="1200" pan="0" len="192" vol="52" />
          <note key="60" pos="1392" pan="0" len="144" vol="52" />
        </pattern>
        <pattern pos="218892" muted="0" steps="16" name="" type="1">
          <note key="62" pos="48" pan="0" len="336" vol="34" />
          <note key="62" pos="432" pan="0" len="336" vol="34" />
          <note key="62" pos="816" pan="0" len="336" vol="34" />
          <note key="62" pos="1200" pan="0" len="336" vol="34" />
        </pattern>
        <pattern pos="220428" muted="0" steps="16" name="" type="1">
          <note key="62" pos="48" pan="0" len="96" vol="34" />
          <note key="67" pos="384" pan="0" len="384" vol="100" />
        </pattern>
        <pattern pos="240396" muted="0" steps="16" name="" type="1">
          <note key="58" pos="0" pan="0" len="12" vol="64" />
          <note key="61" pos="12" pan="0" len="12" vol="64" />
          <note key="60" pos="24" pan="0" len="12" vol="64" />
          <note key="56" pos="36" pan="0" len="96" vol="64" />
          <note key="56" pos="132" pan="0" len="12" vol="64" />
          <note key="58" pos="144" pan="0" len="12" vol="64" />
          <note key="49" pos="156" pan="0" len="12" vol="64" />
          <note key="51" pos="168" pan="0" len="12" vol="64" />
          <note key="53" pos="180" pan="0" len="12" vol="64" />
          <note key="46" pos="192" pan="0" len="192" vol="64" />
          <note key="49" pos="384" pan="0" len="12" vol="100" />
          <note key="51" pos="396" pan="0" len="12" vol="100" />
          <note key="56" pos="408" pan="0" len="12" vol="100" />
          <note key="55" pos="420" pan="0" len="96" vol="100" />
          <note key="49" pos="516" pan="0" len="12" vol="100" />
          <note key="51" pos="528" pan="0" len="12" vol="100" />
          <note key="53" pos="540" pan="0" len="12" vol="100" />
          <note key="58" pos="552" pan="0" len="12" vol="100" />
          <note key="61" pos="564" pan="0" len="12" vol="100" />
          <note key="63" pos="576" pan="0" len="24" vol="100" />
          <note key="61" pos="600" pan="0" len="12" vol="100" />
          <note key="65" pos="612" pan="0" len="252" vol="100" />
        </pattern>
        <pattern pos="245004" muted="0" steps="16" name="" type="1">
          <note key="61" pos="0" pan="0" len="12" vol="64" />
          <note key="64" pos="12" pan="0" len="12" vol="64" />
          <note key="63" pos="24" pan="0" len="12" vol="64" />
          <note key="59" pos="36" pan="0" len="96" vol="64" />
          <note key="59" pos="132" pan="0" len="12" vol="64" />
          <note key="61" pos="144" pan="0" len="12" vol="64" />
          <note key="52" pos="156" pan="0" len="12" vol="64" />
          <note key="54" pos="168" pan="0" len="12" vol="64" />
          <note key="56" pos="180" pan="0" len="12" vol="64" />
          <note key="49" pos="192" pan="0" len="192" vol="64" />
          <note key="52" pos="384" pan="0" len="12" vol="100" />
          <note key="54" pos="396" pan="0" len="12" vol="100" />
          <note key="59" pos="408" pan="0" len="12" vol="100" />
          <note key="58" pos="420" pan="0" len="96" vol="100" />
          <note key="52" pos="516" pan="0" len="12" vol="100" />
          <note key="54" pos="528" pan="0" len="12" vol="100" />
          <note key="56" pos="540" pan="0" len="12" vol="100" />
          <note key="61" pos="552" pan="0" len="12" vol="100" />
          <note key="64" pos="564" pan="0" len="12" vol="100" />
          <note key="66" pos="576" pan="0" len="24" vol="100" />
          <note key="64" pos="600" pan="0" len="12" vol="100" />
          <note key="68" pos="612" pan="0" len="156" vol="100" />
        </pattern>
      </track>
      <track solo="0" name="16 (Ch12)" type="0" muted="0">
        <instrumenttrack usemasterpitch="1" pitch="0.0" basenote="57" pan="0" pitchrange="12" vol="30">
          <eldata />
          <instrument name="tripleoscillator" />
        </instrumenttrack>
        <pattern pos="251148" muted="0" steps="16" name="" type="1">
          <note key="57" pos="48" pan="0" len="60" vol="100" />
          <note key="57" pos="1200" pan="0" len="192" vol="100" />
        </pattern>
        <pattern pos="54528" muted="0" steps="16" name="" type="1">
          <note key="62" pos="168" pan="0" len="72" vol="100" />
          <note key="64" pos="240" pan="0" len="72" vol="100" />
          <note key="59" pos="312" pan="0" len="456" vol="100" />
        </pattern>
        <pattern pos="101376" muted="0" steps="16" name="" type="1">
          <note key="52" pos="816" pan="0" len="48" vol="100" />
          <note key="53" pos="864" pan="0" len="48" vol="100" />
          <note key="55" pos="912" pan="0" len="48" vol="100" />
          <note key="60" pos="960" pan="0" len="96" vol="100" />
          <note key="64" pos="1056" pan="0" len="96" vol="100" />
          <note key="53" pos="1152" pan="0" len="192" vol="100" />
          <note key="62" pos="1344" pan="0" len="192" vol="100" />
        </pattern>
        <pattern pos="104448" muted="0" steps="16" name="" type="1">
          <note key="52" pos="816" pan="0" len="48" vol="100" />
          <note key="53" pos="864" pan="0" len="48" vol="100" />
          <note key="55" pos="912" pan="0" len="48" vol="100" />
          <note key="60" pos="960" pan="0" len="96" vol="100" />
          <note key="64" pos="1056" pan="0" len="96" vol="100" />
          <note key="53" pos="1152" pan="0" len="192" vol="100" />
          <note key="62" pos="1344" pan="0" len="192" vol="100" />
        </pattern>
        <pattern pos="205068" muted="0" steps="16" name="" type="1">
          <note key="55" pos="48" pan="0" len="192" vol="52" />
          <note key="55" pos="240" pan="0" len="192" vol="52" />
          <note key="62" pos="432" pan="0" len="192" vol="52" />
          <note key="62" pos="624" pan="0" len="192" vol="52" />
          <note key="53" pos="816" pan="0" len="192" vol="52" />
          <note key="53" pos="1008" pan="0" len="192" vol="52" />
          <note key="63" pos="1200" pan="0" len="192" vol="52" />
          <note key="63" pos="1392" pan="0" len="144" vol="52" />
        </pattern>
        <pattern pos="211212" muted="0" steps="16" name="" type="1">
          <note key="63" pos="48" pan="0" len="336" vol="34" />
          <note key="63" pos="432" pan="0" len="336" vol="34" />
          <note key="63" pos="816" pan="0" len="336" vol="34" />
          <note key="63" pos="1200" pan="0" len="336" vol="34" />
        </pattern>
        <pattern pos="212748" muted="0" steps="16" name="" type="1">
          <note key="55" pos="48" pan="0" len="192" vol="52" />
          <note key="55" pos="240" pan="0" len="192" vol="52" />
          <note key="62" pos="432" pan="0" len="192" vol="52" />
          <note key="62" pos="624" pan="0" len="192" vol="52" />
          <note key="53" pos="816" pan="0" len="192" vol="52" />
          <note key="53" pos="1008" pan="0" len="192" vol="52" />
          <note key="63" pos="1200" pan="0" len="192" vol="52" />
          <note key="63" pos="1392" pan="0" len="144" vol="52" />
        </pattern>
        <pattern pos="218892" muted="0" steps="16" name="" type="1">
          <note key="63" pos="48" pan="0" len="336" vol="34" />
          <note key="63" pos="432" pan="0" len="336" vol="34" />
          <note key="63" pos="816" pan="0" len="336" vol="34" />
          <note key="63" pos="1200" pan="0" len="336" vol="34" />
        </pattern>
        <pattern pos="220428" muted="0" steps="16" name="" type="1">
          <note key="63" pos="48" pan="0" len="96" vol="34" />
          <note key="71" pos="384" pan="0" len="384" vol="100" />
        </pattern>
        <pattern pos="248460" muted="0" steps="16" name="" type="1">
          <note key="60" pos="0" pan="0" len="96" vol="100" />
          <note key="62" pos="96" pan="0" len="288" vol="100" />
        </pattern>
      </track>
      <track solo="0" name="16 (Ch13)" type="0" muted="0">
        <instrumenttrack usemasterpitch="1" pitch="0.0" basenote="57" pan="0" pitchrange="12" vol="30">
          <eldata />
          <instrument name="tripleoscillator" />
        </instrumenttrack>
        <pattern pos="251148" muted="0" steps="16" name="" type="1">
          <note key="58" pos="48" pan="0" len="60" vol="100" />
          <note key="58" pos="1200" pan="0" len="192" vol="100" />
        </pattern>
        <pattern pos="54528" muted="0" steps="16" name="" type="1">
          <note key="65" pos="168" pan="0" len="72" vol="100" />
          <note key="67" pos="240" pan="0" len="72" vol="100" />
          <note key="62" pos="312" pan="0" len="456" vol="100" />
        </pattern>
        <pattern pos="224268" muted="0" steps="16" name="" type="1">
          <note key="53" pos="384" pan="0" len="96" vol="100" />
        </pattern>
        <pattern pos="230412" muted="0" steps="16" name="" type="1">
          <note key="53" pos="384" pan="0" len="96" vol="100" />
        </pattern>
        <pattern pos="248460" muted="0" steps="16" name="" type="1">
          <note key="56" pos="0" pan="0" len="96" vol="100" />
          <note key="58" pos="96" pan="0" len="288" vol="100" />
        </pattern>
      </track>
      <track solo="0" name="16 (Ch14)" type="0" muted="0">
        <instrumenttrack usemasterpitch="1" pitch="0.0" basenote="57" pan="0" pitchrange="12" vol="30">
          <eldata />
          <instrument name="tripleoscillator" />
        </instrumenttrack>
        <pattern pos="251148" muted="0" steps="16" name="" type="1">
          <note key="62" pos="48" pan="0" len="60" vol="100" />
          <note key="62" pos="1200" pan="0" len="192" vol="100" />
        </pattern>
        <pattern pos="76032" muted="0" steps="16" name="" type="1">
          <note key="65" pos="0" pan="0" len="72" vol="100" />
          <note key="67" pos="72" pan="0" len="72" vol="100" />
          <note key="69" pos="144" pan="0" len="72" vol="100" />
          <note key="72" pos="216" pan="0" len="72" vol="100" />
          <note key="67" pos="288" pan="0" len="252" vol="100" />
          <note key="69" pos="540" pan="0" len="36" vol="100" />
          <note key="74" pos="576" pan="0" len="240" vol="100" />
          <note key="69" pos="816" pan="0" len="48" vol="100" />
          <note key="74" pos="864" pan="0" len="252" vol="100" />
        </pattern>
        <pattern pos="87552" muted="0" steps="16" name="" type="1">
          <note key="65" pos="0" pan="0" len="72" vol="100" />
          <note key="67" pos="72" pan="0" len="72" vol="100" />
          <note key="69" pos="144" pan="0" len="72" vol="100" />
          <note key="72" pos="216" pan="0" len="72" vol="100" />
          <note key="67" pos="288" pan="0" len="252" vol="100" />
          <note key="69" pos="540" pan="0" len="36" vol="100" />
          <note key="74" pos="576" pan="0" len="240" vol="100" />
          <note key="69" pos="816" pan="0" len="48" vol="100" />
          <note key="74" pos="864" pan="0" len="252" vol="100" />
        </pattern>
        <pattern pos="224268" muted="0" steps="16" name="" type="1">
          <note key="58" pos="384" pan="0" len="384" vol="100" />
          <note key="53" pos="1152" pan="0" len="384" vol="100" />
        </pattern>
        <pattern pos="230412" muted="0" steps="16" name="" type="1">
          <note key="58" pos="384" pan="0" len="384" vol="100" />
          <note key="53" pos="1152" pan="0" len="384" vol="100" />
        </pattern>
      </track>
      <track solo="0" name="16 (Ch15)" type="0" muted="0">
        <instrumenttrack usemasterpitch="1" pitch="0.0" basenote="57" pan="0" pitchrange="12" vol="30">
          <eldata />
          <instrument name="tripleoscillator" />
        </instrumenttrack>
        <pattern pos="230412" muted="0" steps="16" name="" type="1">
          <note key="61" pos="384" pan="0" len="384" vol="100" />
          <note key="58" pos="1152" pan="0" len="384" vol="100" />
        </pattern>
        <pattern pos="205068" muted="0" steps="16" name="" type="1">
          <note key="60" pos="840" pan="0" len="24" vol="100" />
          <note key="65" pos="864" pan="0" len="72" vol="100" />
          <note key="63" pos="936" pan="0" len="72" vol="100" />
          <note key="62" pos="1008" pan="0" len="72" vol="100" />
          <note key="60" pos="1080" pan="0" len="72" vol="100" />
          <note key="63" pos="1152" pan="0" len="24" vol="100" />
          <note key="62" pos="1176" pan="0" len="24" vol="100" />
          <note key="60" pos="1200" pan="0" len="132" vol="100" />
          <note key="63" pos="1332" pan="0" len="12" vol="100" />
          <note key="62" pos="1344" pan="0" len="96" vol="100" />
          <note key="58" pos="1440" pan="0" len="96" vol="100" />
        </pattern>
        <pattern pos="206604" muted="0" steps="16" name="" type="1">
          <note key="60" pos="840" pan="0" len="24" vol="100" />
          <note key="65" pos="864" pan="0" len="72" vol="100" />
          <note key="67" pos="936" pan="0" len="72" vol="100" />
          <note key="68" pos="1008" pan="0" len="72" vol="100" />
          <note key="72" pos="1080" pan="0" len="72" vol="100" />
          <note key="63" pos="1152" pan="0" len="24" vol="100" />
          <note key="62" pos="1176" pan="0" len="24" vol="100" />
          <note key="60" pos="1200" pan="0" len="132" vol="100" />
          <note key="63" pos="1332" pan="0" len="12" vol="100" />
          <note key="62" pos="1344" pan="0" len="96" vol="100" />
          <note key="58" pos="1440" pan="0" len="96" vol="100" />
        </pattern>
        <pattern pos="212748" muted="0" steps="16" name="" type="1">
          <note key="60" pos="744" pan="0" len="24" vol="100" />
          <note key="65" pos="768" pan="0" len="72" vol="100" />
          <note key="63" pos="840" pan="0" len="72" vol="100" />
          <note key="62" pos="912" pan="0" len="216" vol="100" />
          <note key="60" pos="1128" pan="0" len="24" vol="100" />
          <note key="63" pos="1152" pan="0" len="24" vol="100" />
          <note key="62" pos="1176" pan="0" len="24" vol="100" />
          <note key="60" pos="1200" pan="0" len="132" vol="100" />
          <note key="63" pos="1332" pan="0" len="12" vol="100" />
          <note key="62" pos="1344" pan="0" len="96" vol="100" />
          <note key="58" pos="1440" pan="0" len="96" vol="100" />
        </pattern>
        <pattern pos="214284" muted="0" steps="16" name="" type="1">
          <note key="60" pos="840" pan="0" len="24" vol="100" />
          <note key="65" pos="864" pan="0" len="72" vol="100" />
          <note key="67" pos="936" pan="0" len="72" vol="100" />
          <note key="68" pos="1008" pan="0" len="72" vol="100" />
          <note key="72" pos="1080" pan="0" len="72" vol="100" />
          <note key="63" pos="1152" pan="0" len="24" vol="100" />
          <note key="62" pos="1176" pan="0" len="24" vol="100" />
          <note key="60" pos="1200" pan="0" len="132" vol="100" />
          <note key="63" pos="1332" pan="0" len="12" vol="100" />
          <note key="62" pos="1344" pan="0" len="96" vol="100" />
          <note key="58" pos="1440" pan="0" len="96" vol="100" />
        </pattern>
        <pattern pos="224268" muted="0" steps="16" name="" type="1">
          <note key="61" pos="384" pan="0" len="384" vol="100" />
          <note key="58" pos="1152" pan="0" len="384" vol="100" />
        </pattern>
      </track>
      <track solo="0" name="16 (Ch16)" type="0" muted="0">
        <instrumenttrack usemasterpitch="1" pitch="0.0" basenote="57" pan="0" pitchrange="12" vol="30">
          <eldata />
          <instrument name="tripleoscillator" />
        </instrumenttrack>
        <pattern pos="230412" muted="0" steps="16" name="" type="1">
          <note key="61" pos="1152" pan="0" len="384" vol="100" />
        </pattern>
        <pattern pos="149004" muted="0" steps="16" name="" type="1">
          <note key="56" pos="0" pan="0" len="24" vol="31" />
          <note key="54" pos="24" pan="0" len="12" vol="8" />
          <note key="54" pos="36" pan="0" len="12" vol="16" />
          <note key="56" pos="48" pan="0" len="24" vol="31" />
          <note key="56" pos="72" pan="0" len="312" vol="100" />
          <note key="64" pos="768" pan="0" len="12" vol="100" />
          <note key="57" pos="780" pan="0" len="12" vol="47" />
          <note key="62" pos="792" pan="0" len="12" vol="78" />
          <note key="54" pos="804" pan="0" len="12" vol="100" />
          <note key="59" pos="816" pan="0" len="120" vol="100" />
          <note key="57" pos="936" pan="0" len="12" vol="47" />
          <note key="59" pos="948" pan="0" len="12" vol="62" />
          <note key="57" pos="960" pan="0" len="12" vol="100" />
          <note key="50" pos="972" pan="0" len="12" vol="100" />
          <note key="54" pos="984" pan="0" len="12" vol="100" />
          <note key="52" pos="996" pan="0" len="156" vol="100" />
        </pattern>
        <pattern pos="224268" muted="0" steps="16" name="" type="1">
          <note key="61" pos="1152" pan="0" len="384" vol="100" />
        </pattern>
      </track>
      <track solo="0" name="16 (Ch17)" type="0" muted="0">
        <instrumenttrack usemasterpitch="1" pitch="0.0" basenote="57" pan="0" pitchrange="12" vol="30">
          <eldata />
          <instrument name="tripleoscillator" />
        </instrumenttrack>
        <pattern pos="220428" muted="0" steps="16" name="" type="1">
          <note key="63" pos="0" pan="0" len="72" vol="100" />
          <note key="62" pos="72" pan="0" len="72" vol="100" />
          <note key="69" pos="144" pan="0" len="168" vol="100" />
        </pattern>
      </track>
      <track solo="0" name="17 (Ch1)" type="0" muted="0">
        <instrumenttrack usemasterpitch="1" pitch="0.0" basenote="57" pan="0" pitchrange="12" vol="30">
          <eldata />
          <instrument name="tripleoscillator" />
        </instrumenttrack>
        <pattern pos="41472" muted="0" steps="16" name="" type="1">
          <note key="59" pos="0" pan="0" len="120" vol="100" />
          <note key="61" pos="168" pan="0" len="24" vol="100" />
          <note key="62" pos="192" pan="0" len="144" vol="100" />
          <note key="59" pos="384" pan="0" len="144" vol="100" />
          <note key="61" pos="552" pan="0" len="24" vol="100" />
          <note key="62" pos="576" pan="0" len="144" vol="100" />
          <note key="59" pos="768" pan="0" len="132" vol="100" />
          <note key="61" pos="936" pan="0" len="24" vol="100" />
          <note key="62" pos="960" pan="0" len="144" vol="100" />
          <note key="59" pos="1152" pan="0" len="132" vol="100" />
          <note key="61" pos="1320" pan="0" len="24" vol="100" />
          <note key="62" pos="1344" pan="0" len="132" vol="100" />
        </pattern>
        <pattern pos="39936" muted="0" steps="16" name="" type="1">
          <note key="65" pos="0" pan="0" len="168" vol="34" />
          <note key="63" pos="168" pan="0" len="24" vol="34" />
          <note key="61" pos="192" pan="0" len="168" vol="50" />
          <note key="60" pos="360" pan="0" len="24" vol="34" />
          <note key="65" pos="384" pan="0" len="168" vol="34" />
          <note key="63" pos="552" pan="0" len="24" vol="34" />
          <note key="61" pos="576" pan="0" len="168" vol="50" />
          <note key="60" pos="744" pan="0" len="24" vol="34" />
        </pattern>
      </track>
      <track solo="0" name="17 (Ch3)" type="0" muted="0">
        <instrumenttrack usemasterpitch="1" pitch="0.0" basenote="57" pan="0" pitchrange="12" vol="30">
          <eldata />
          <instrument name="tripleoscillator" />
        </instrumenttrack>
        <pattern pos="169740" muted="0" steps="16" name="" type="1">
          <note key="52" pos="0" pan="0" len="576" vol="34" />
        </pattern>
      </track>
      <track solo="0" name="17 (Ch5)" type="0" muted="0">
        <instrumenttrack usemasterpitch="1" pitch="0.0" basenote="57" pan="0" pitchrange="12" vol="30">
          <eldata />
          <instrument name="tripleoscillator" />
        </instrumenttrack>
        <pattern pos="201228" muted="0" steps="16" name="" type="1">
          <note key="59" pos="0" pan="0" len="72" vol="100" />
        </pattern>
      </track>
      <track solo="0" name="17 (Ch8)" type="0" muted="0">
        <instrumenttrack usemasterpitch="1" pitch="0.0" basenote="57" pan="0" pitchrange="12" vol="30">
          <eldata />
          <instrument name="tripleoscillator" />
        </instrumenttrack>
        <pattern pos="7680" muted="0" steps="16" name="" type="1">
          <note key="60" pos="768" pan="0" len="120" vol="100" />
          <note key="58" pos="960" pan="0" len="96" vol="100" />
          <note key="56" pos="1152" pan="0" len="96" vol="100" />
          <note key="60" pos="2304" pan="0" len="120" vol="100" />
          <note key="58" pos="2496" pan="0" len="96" vol="100" />
          <note key="56" pos="2688" pan="0" len="96" vol="100" />
        </pattern>
        <pattern pos="1536" muted="0" steps="16" name="" type="1">
          <note key="60" pos="768" pan="0" len="120" vol="50" />
          <note key="58" pos="960" pan="0" len="96" vol="50" />
          <note key="56" pos="1152" pan="0" len="96" vol="50" />
        </pattern>
      </track>
      <track solo="0" name="17 (Ch9)" type="0" muted="0">
        <instrumenttrack usemasterpitch="1" pitch="0.0" basenote="57" pan="0" pitchrange="12" vol="30">
          <eldata />
          <instrument name="tripleoscillator" />
        </instrumenttrack>
        <pattern pos="10752" muted="0" steps="16" name="" type="1">
          <note key="53" pos="768" pan="0" len="96" vol="100" />
          <note key="55" pos="960" pan="0" len="96" vol="100" />
          <note key="56" pos="1152" pan="0" len="96" vol="100" />
          <note key="58" pos="1344" pan="0" len="48" vol="100" />
        </pattern>
        <pattern pos="6144" muted="0" steps="16" name="" type="1">
          <note key="53" pos="768" pan="0" len="96" vol="100" />
          <note key="55" pos="960" pan="0" len="96" vol="100" />
          <note key="56" pos="1152" pan="0" len="96" vol="100" />
          <note key="58" pos="1344" pan="0" len="48" vol="100" />
        </pattern>
      </track>
      <track solo="0" name="17 (Ch10)" type="0" muted="0">
        <instrumenttrack usemasterpitch="1" pitch="0.0" basenote="57" pan="0" pitchrange="12" vol="30">
          <eldata />
          <instrument name="tripleoscillator" />
        </instrumenttrack>
        <pattern pos="97536" muted="0" steps="16" name="" type="1">
          <note key="50" pos="0" pan="0" len="768" vol="0" />
        </pattern>
      </track>
      <track solo="0" name="18 (Ch5)" type="0" muted="0">
        <instrumenttrack usemasterpitch="1" pitch="0.0" basenote="57" pan="0" pitchrange="12" vol="30">
          <eldata />
          <instrument name="tripleoscillator" />
        </instrumenttrack>
        <pattern pos="50688" muted="0" steps="16" name="" type="1">
          <note key="55" pos="384" pan="0" len="192" vol="100" />
          <note key="58" pos="576" pan="0" len="180" vol="100" />
        </pattern>
        <pattern pos="44544" muted="0" steps="16" name="" type="1">
          <note key="55" pos="384" pan="0" len="192" vol="100" />
          <note key="58" pos="576" pan="0" len="180" vol="100" />
        </pattern>
        <pattern pos="47616" muted="0" steps="16" name="" type="1">
          <note key="55" pos="384" pan="0" len="192" vol="100" />
          <note key="58" pos="576" pan="0" len="180" vol="100" />
        </pattern>
      </track>
      <track solo="0" name="18 (Ch6)" type="0" muted="0">
        <instrumenttrack usemasterpitch="1" pitch="0.0" basenote="57" pan="0" pitchrange="12" vol="30">
          <eldata />
          <instrument name="tripleoscillator" />
        </instrumenttrack>
        <pattern pos="248076" muted="0" steps="16" name="" type="1">
          <note key="58" pos="0" pan="0" len="96" vol="100" />
        </pattern>
        <pattern pos="73728" muted="0" steps="16" name="" type="1">
          <note key="53" pos="288" pan="0" len="372" vol="100" />
          <note key="53" pos="1440" pan="0" len="444" vol="100" />
        </pattern>
        <pattern pos="76032" muted="0" steps="16" name="" type="1">
          <note key="50" pos="288" pan="0" len="372" vol="100" />
          <note key="50" pos="1440" pan="0" len="444" vol="100" />
        </pattern>
        <pattern pos="85248" muted="0" steps="16" name="" type="1">
          <note key="53" pos="288" pan="0" len="372" vol="100" />
          <note key="53" pos="1440" pan="0" len="444" vol="100" />
        </pattern>
        <pattern pos="87552" muted="0" steps="16" name="" type="1">
          <note key="50" pos="288" pan="0" len="372" vol="100" />
          <note key="50" pos="1440" pan="0" len="444" vol="100" />
        </pattern>
      </track>
      <track solo="0" name="18 (Ch7)" type="0" muted="0">
        <instrumenttrack usemasterpitch="1" pitch="0.0" basenote="57" pan="0" pitchrange="12" vol="30">
          <eldata />
          <instrument name="tripleoscillator" />
        </instrumenttrack>
        <pattern pos="280476" muted="0" steps="16" name="" type="1">
          <note key="61" pos="0" pan="0" len="72" vol="100" />
          <note key="68" pos="72" pan="0" len="72" vol="100" />
        </pattern>
        <pattern pos="73728" muted="0" steps="16" name="" type="1">
          <note key="65" pos="288" pan="0" len="372" vol="100" />
          <note key="65" pos="1440" pan="0" len="444" vol="100" />
        </pattern>
        <pattern pos="76032" muted="0" steps="16" name="" type="1">
          <note key="62" pos="288" pan="0" len="372" vol="100" />
          <note key="62" pos="1440" pan="0" len="444" vol="100" />
        </pattern>
        <pattern pos="85248" muted="0" steps="16" name="" type="1">
          <note key="65" pos="288" pan="0" len="372" vol="100" />
          <note key="65" pos="1440" pan="0" len="444" vol="100" />
        </pattern>
        <pattern pos="87552" muted="0" steps="16" name="" type="1">
          <note key="62" pos="288" pan="0" len="372" vol="100" />
          <note key="62" pos="1440" pan="0" len="444" vol="100" />
        </pattern>
        <pattern pos="145932" muted="0" steps="16" name="" type="1">
          <note key="56" pos="0" pan="0" len="192" vol="47" />
          <note key="54" pos="192" pan="0" len="192" vol="47" />
          <note key="51" pos="384" pan="0" len="72" vol="47" />
          <note key="54" pos="456" pan="0" len="12" vol="47" />
          <note key="56" pos="468" pan="0" len="12" vol="47" />
          <note key="58" pos="480" pan="0" len="48" vol="47" />
          <note key="54" pos="528" pan="0" len="48" vol="62" />
          <note key="56" pos="576" pan="0" len="192" vol="62" />
          <note key="56" pos="768" pan="0" len="192" vol="47" />
          <note key="54" pos="960" pan="0" len="192" vol="47" />
          <note key="61" pos="1152" pan="0" len="72" vol="47" />
          <note key="54" pos="1224" pan="0" len="12" vol="47" />
          <note key="56" pos="1236" pan="0" len="12" vol="47" />
          <note key="58" pos="1248" pan="0" len="48" vol="47" />
          <note key="54" pos="1296" pan="0" len="48" vol="62" />
          <note key="56" pos="1344" pan="0" len="192" vol="62" />
        </pattern>
        <pattern pos="147468" muted="0" steps="16" name="" type="1">
          <note key="59" pos="384" pan="0" len="384" vol="0" />
          <note key="52" pos="768" pan="0" len="192" vol="47" />
        </pattern>
        <pattern pos="149004" muted="0" steps="16" name="" type="1">
          <note key="59" pos="384" pan="0" len="384" vol="0" />
          <note key="52" pos="768" pan="0" len="192" vol="47" />
        </pattern>
        <pattern pos="153612" muted="0" steps="16" name="" type="1">
          <note key="56" pos="0" pan="0" len="192" vol="47" />
          <note key="54" pos="192" pan="0" len="192" vol="47" />
          <note key="51" pos="384" pan="0" len="72" vol="47" />
          <note key="54" pos="456" pan="0" len="12" vol="47" />
          <note key="56" pos="468" pan="0" len="12" vol="47" />
          <note key="58" pos="480" pan="0" len="48" vol="47" />
          <note key="54" pos="528" pan="0" len="48" vol="62" />
          <note key="56" pos="576" pan="0" len="192" vol="62" />
          <note key="56" pos="768" pan="0" len="192" vol="47" />
          <note key="54" pos="960" pan="0" len="192" vol="47" />
          <note key="61" pos="1152" pan="0" len="72" vol="47" />
          <note key="54" pos="1224" pan="0" len="12" vol="47" />
          <note key="56" pos="1236" pan="0" len="12" vol="47" />
          <note key="58" pos="1248" pan="0" len="48" vol="47" />
          <note key="54" pos="1296" pan="0" len="48" vol="62" />
          <note key="56" pos="1344" pan="0" len="192" vol="62" />
        </pattern>
      </track>
      <track solo="0" name="18 (Ch9)" type="0" muted="0">
        <instrumenttrack usemasterpitch="1" pitch="0.0" basenote="57" pan="0" pitchrange="12" vol="30">
          <eldata />
          <instrument name="tripleoscillator" />
        </instrumenttrack>
        <pattern pos="155148" muted="0" steps="16" name="" type="1">
          <note key="56" pos="0" pan="0" len="192" vol="47" />
          <note key="54" pos="192" pan="0" len="192" vol="47" />
          <note key="51" pos="384" pan="0" len="72" vol="47" />
          <note key="54" pos="456" pan="0" len="12" vol="47" />
          <note key="56" pos="468" pan="0" len="12" vol="47" />
          <note key="58" pos="480" pan="0" len="48" vol="47" />
          <note key="54" pos="528" pan="0" len="48" vol="62" />
          <note key="56" pos="576" pan="0" len="192" vol="62" />
          <note key="56" pos="768" pan="0" len="192" vol="47" />
          <note key="54" pos="960" pan="0" len="192" vol="47" />
          <note key="61" pos="1152" pan="0" len="72" vol="47" />
          <note key="54" pos="1224" pan="0" len="12" vol="47" />
          <note key="56" pos="1236" pan="0" len="12" vol="47" />
          <note key="58" pos="1248" pan="0" len="48" vol="47" />
          <note key="54" pos="1296" pan="0" len="48" vol="62" />
          <note key="56" pos="1344" pan="0" len="192" vol="62" />
        </pattern>
      </track>
      <track solo="0" name="18 (Ch10)" type="0" muted="0">
        <instrumenttrack usemasterpitch="1" pitch="0.0" basenote="57" pan="0" pitchrange="12" vol="30">
          <eldata />
          <instrument name="tripleoscillator" />
        </instrumenttrack>
        <pattern pos="277596" muted="0" steps="16" name="" type="1">
          <note key="51" pos="1152" pan="0" len="108" vol="70" />
          <note key="61" pos="1260" pan="0" len="36" vol="70" />
          <note key="63" pos="1296" pan="0" len="108" vol="44" />
          <note key="58" pos="1404" pan="0" len="36" vol="70" />
          <note key="51" pos="1440" pan="0" len="108" vol="70" />
          <note key="61" pos="1548" pan="0" len="36" vol="70" />
          <note key="59" pos="1584" pan="0" len="72" vol="70" />
          <note key="61" pos="1656" pan="0" len="36" vol="70" />
          <note key="58" pos="1692" pan="0" len="12" vol="70" />
          <note key="66" pos="1704" pan="0" len="12" vol="70" />
          <note key="65" pos="1716" pan="0" len="12" vol="70" />
          <note key="63" pos="1728" pan="0" len="108" vol="44" />
          <note key="61" pos="1836" pan="0" len="36" vol="70" />
          <note key="51" pos="1872" pan="0" len="108" vol="44" />
          <note key="58" pos="1980" pan="0" len="36" vol="70" />
          <note key="51" pos="2016" pan="0" len="108" vol="70" />
          <note key="61" pos="2124" pan="0" len="36" vol="70" />
          <note key="59" pos="2160" pan="0" len="72" vol="70" />
          <note key="61" pos="2232" pan="0" len="72" vol="70" />
        </pattern>
        <pattern pos="267276" muted="0" steps="16" name="" type="1">
          <note key="60" pos="312" pan="0" len="96" vol="100" />
          <note key="62" pos="408" pan="0" len="24" vol="100" />
          <note key="64" pos="432" pan="0" len="24" vol="100" />
          <note key="67" pos="456" pan="0" len="48" vol="100" />
        </pattern>
      </track>
      <track solo="0" name="18 (Ch11)" type="0" muted="0">
        <instrumenttrack usemasterpitch="1" pitch="0.0" basenote="57" pan="0" pitchrange="12" vol="30">
          <eldata />
          <instrument name="tripleoscillator" />
        </instrumenttrack>
        <pattern pos="269388" muted="0" steps="16" name="" type="1">
          <note key="51" pos="0" pan="0" len="108" vol="70" />
          <note key="61" pos="108" pan="0" len="36" vol="70" />
          <note key="63" pos="144" pan="0" len="108" vol="44" />
          <note key="58" pos="252" pan="0" len="36" vol="70" />
          <note key="51" pos="288" pan="0" len="108" vol="70" />
          <note key="61" pos="396" pan="0" len="36" vol="70" />
          <note key="59" pos="432" pan="0" len="72" vol="70" />
          <note key="61" pos="504" pan="0" len="36" vol="70" />
          <note key="58" pos="540" pan="0" len="12" vol="70" />
          <note key="66" pos="552" pan="0" len="12" vol="70" />
          <note key="65" pos="564" pan="0" len="12" vol="70" />
          <note key="63" pos="576" pan="0" len="108" vol="44" />
          <note key="61" pos="684" pan="0" len="36" vol="70" />
          <note key="51" pos="720" pan="0" len="108" vol="44" />
          <note key="58" pos="828" pan="0" len="36" vol="70" />
          <note key="51" pos="864" pan="0" len="108" vol="70" />
          <note key="61" pos="972" pan="0" len="36" vol="70" />
          <note key="59" pos="1008" pan="0" len="72" vol="70" />
          <note key="61" pos="1080" pan="0" len="72" vol="70" />
        </pattern>
      </track>
      <track solo="0" name="18 (Ch16)" type="0" muted="0">
        <instrumenttrack usemasterpitch="1" pitch="0.0" basenote="57" pan="0" pitchrange="12" vol="30">
          <eldata />
          <instrument name="tripleoscillator" />
        </instrumenttrack>
        <pattern pos="109056" muted="0" steps="16" name="" type="1">
          <note key="51" pos="0" pan="0" len="144" vol="100" />
        </pattern>
        <pattern pos="102912" muted="0" steps="16" name="" type="1">
          <note key="50" pos="0" pan="0" len="192" vol="100" />
          <note key="48" pos="192" pan="0" len="192" vol="100" />
          <note key="58" pos="384" pan="0" len="192" vol="100" />
          <note key="60" pos="576" pan="0" len="192" vol="100" />
          <note key="50" pos="768" pan="0" len="192" vol="100" />
          <note key="53" pos="960" pan="0" len="192" vol="100" />
          <note key="55" pos="1152" pan="0" len="192" vol="100" />
          <note key="57" pos="1344" pan="0" len="192" vol="100" />
        </pattern>
        <pattern pos="105984" muted="0" steps="16" name="" type="1">
          <note key="50" pos="0" pan="0" len="192" vol="100" />
          <note key="48" pos="192" pan="0" len="192" vol="100" />
          <note key="58" pos="384" pan="0" len="192" vol="100" />
          <note key="60" pos="576" pan="0" len="192" vol="100" />
          <note key="50" pos="768" pan="0" len="192" vol="100" />
          <note key="53" pos="960" pan="0" len="192" vol="100" />
          <note key="55" pos="1152" pan="0" len="192" vol="100" />
          <note key="57" pos="1344" pan="0" len="192" vol="100" />
        </pattern>
        <pattern pos="107520" muted="0" steps="16" name="" type="1">
          <note key="51" pos="0" pan="0" len="144" vol="100" />
        </pattern>
      </track>
      <track solo="0" name="18 (Ch17)" type="0" muted="0">
        <instrumenttrack usemasterpitch="1" pitch="0.0" basenote="57" pan="0" pitchrange="12" vol="30">
          <eldata />
          <instrument name="tripleoscillator" />
        </instrumenttrack>
        <pattern pos="99840" muted="0" steps="16" name="" type="1">
          <note key="48" pos="0" pan="0" len="48" vol="100" />
          <note key="50" pos="48" pan="0" len="336" vol="100" />
          <note key="55" pos="384" pan="0" len="192" vol="100" />
          <note key="60" pos="576" pan="0" len="192" vol="100" />
          <note key="50" pos="768" pan="0" len="384" vol="100" />
          <note key="67" pos="1152" pan="0" len="48" vol="100" />
          <note key="62" pos="1200" pan="0" len="24" vol="100" />
          <note key="60" pos="1224" pan="0" len="24" vol="100" />
          <note key="53" pos="1248" pan="0" len="48" vol="100" />
          <note key="55" pos="1296" pan="0" len="144" vol="100" />
          <note key="57" pos="1440" pan="0" len="96" vol="100" />
        </pattern>
        <pattern pos="98304" muted="0" steps="16" name="" type="1">
          <note key="48" pos="0" pan="0" len="48" vol="100" />
          <note key="50" pos="48" pan="0" len="336" vol="100" />
          <note key="55" pos="384" pan="0" len="192" vol="100" />
          <note key="60" pos="576" pan="0" len="192" vol="100" />
          <note key="50" pos="768" pan="0" len="384" vol="100" />
          <note key="67" pos="1152" pan="0" len="48" vol="100" />
          <note key="62" pos="1200" pan="0" len="24" vol="100" />
          <note key="60" pos="1224" pan="0" len="24" vol="100" />
          <note key="53" pos="1248" pan="0" len="48" vol="100" />
          <note key="55" pos="1296" pan="0" len="144" vol="100" />
          <note key="57" pos="1440" pan="0" len="96" vol="100" />
        </pattern>
      </track>
      <track solo="0" name="19 (Ch1)" type="0" muted="0">
        <instrumenttrack usemasterpitch="1" pitch="0.0" basenote="57" pan="0" pitchrange="12" vol="30">
          <eldata />
          <instrument name="tripleoscillator" />
        </instrumenttrack>
        <pattern pos="231948" muted="0" steps="16" name="" type="1">
          <note key="58" pos="0" pan="0" len="12" vol="100" />
          <note key="58" pos="48" pan="0" len="12" vol="100" />
          <note key="58" pos="96" pan="0" len="12" vol="100" />
          <note key="58" pos="144" pan="0" len="12" vol="100" />
          <note key="56" pos="192" pan="0" len="12" vol="100" />
          <note key="56" pos="240" pan="0" len="12" vol="100" />
          <note key="54" pos="288" pan="0" len="12" vol="100" />
          <note key="54" pos="336" pan="0" len="12" vol="100" />
          <note key="54" pos="384" pan="0" len="12" vol="100" />
          <note key="54" pos="432" pan="0" len="12" vol="100" />
          <note key="49" pos="456" pan="0" len="24" vol="100" />
          <note key="54" pos="480" pan="0" len="12" vol="100" />
          <note key="54" pos="528" pan="0" len="12" vol="100" />
          <note key="49" pos="576" pan="0" len="12" vol="100" />
          <note key="49" pos="624" pan="0" len="12" vol="100" />
          <note key="51" pos="648" pan="0" len="24" vol="100" />
          <note key="56" pos="672" pan="0" len="12" vol="100" />
          <note key="56" pos="720" pan="0" len="12" vol="100" />
        </pattern>
        <pattern pos="39936" muted="0" steps="16" name="" type="1">
          <note key="53" pos="792" pan="0" len="24" vol="100" />
          <note key="60" pos="840" pan="0" len="24" vol="100" />
          <note key="53" pos="888" pan="0" len="24" vol="100" />
          <note key="61" pos="984" pan="0" len="24" vol="100" />
          <note key="56" pos="1032" pan="0" len="24" vol="100" />
          <note key="61" pos="1080" pan="0" len="24" vol="100" />
          <note key="56" pos="1128" pan="0" len="24" vol="100" />
          <note key="53" pos="1176" pan="0" len="24" vol="100" />
          <note key="60" pos="1224" pan="0" len="24" vol="100" />
          <note key="53" pos="1272" pan="0" len="24" vol="100" />
          <note key="61" pos="1368" pan="0" len="24" vol="100" />
          <note key="56" pos="1416" pan="0" len="24" vol="100" />
          <note key="61" pos="1464" pan="0" len="24" vol="100" />
          <note key="61" pos="1512" pan="0" len="24" vol="100" />
        </pattern>
        <pattern pos="66816" muted="0" steps="16" name="" type="1">
          <note key="62" pos="0" pan="0" len="24" vol="100" />
          <note key="50" pos="72" pan="0" len="24" vol="100" />
          <note key="62" pos="144" pan="0" len="24" vol="100" />
          <note key="50" pos="216" pan="0" len="24" vol="100" />
          <note key="62" pos="288" pan="0" len="24" vol="100" />
          <note key="50" pos="360" pan="0" len="24" vol="100" />
          <note key="62" pos="432" pan="0" len="24" vol="100" />
          <note key="50" pos="504" pan="0" len="24" vol="100" />
          <note key="62" pos="576" pan="0" len="24" vol="100" />
          <note key="50" pos="648" pan="0" len="24" vol="100" />
          <note key="62" pos="720" pan="0" len="24" vol="100" />
          <note key="50" pos="792" pan="0" len="24" vol="100" />
          <note key="62" pos="864" pan="0" len="24" vol="100" />
          <note key="50" pos="936" pan="0" len="24" vol="100" />
          <note key="62" pos="1008" pan="0" len="24" vol="100" />
          <note key="50" pos="1080" pan="0" len="24" vol="100" />
          <note key="53" pos="1116" pan="0" len="24" vol="100" />
          <note key="62" pos="1152" pan="0" len="24" vol="100" />
          <note key="50" pos="1224" pan="0" len="24" vol="100" />
          <note key="62" pos="1296" pan="0" len="24" vol="100" />
          <note key="50" pos="1368" pan="0" len="24" vol="100" />
          <note key="62" pos="1440" pan="0" len="24" vol="100" />
          <note key="50" pos="1512" pan="0" len="24" vol="100" />
          <note key="62" pos="1584" pan="0" len="24" vol="100" />
          <note key="50" pos="1656" pan="0" len="24" vol="100" />
          <note key="62" pos="1728" pan="0" len="24" vol="100" />
          <note key="50" pos="1800" pan="0" len="24" vol="100" />
          <note key="62" pos="1872" pan="0" len="24" vol="100" />
          <note key="50" pos="1944" pan="0" len="24" vol="100" />
          <note key="62" pos="2016" pan="0" len="24" vol="100" />
          <note key="50" pos="2088" pan="0" len="24" vol="100" />
          <note key="62" pos="2160" pan="0" len="24" vol="100" />
          <note key="50" pos="2232" pan="0" len="24" vol="100" />
        </pattern>
        <pattern pos="69120" muted="0" steps="16" name="" type="1">
          <note key="62" pos="0" pan="0" len="24" vol="100" />
          <note key="50" pos="72" pan="0" len="24" vol="100" />
          <note key="62" pos="144" pan="0" len="24" vol="100" />
          <note key="50" pos="216" pan="0" len="24" vol="100" />
          <note key="62" pos="288" pan="0" len="24" vol="100" />
          <note key="50" pos="360" pan="0" len="24" vol="100" />
          <note key="62" pos="432" pan="0" len="24" vol="100" />
          <note key="50" pos="504" pan="0" len="24" vol="100" />
          <note key="57" pos="540" pan="0" len="24" vol="100" />
          <note key="62" pos="576" pan="0" len="24" vol="100" />
          <note key="50" pos="648" pan="0" len="24" vol="100" />
          <note key="62" pos="720" pan="0" len="24" vol="100" />
          <note key="50" pos="792" pan="0" len="24" vol="100" />
          <note key="62" pos="864" pan="0" len="24" vol="100" />
          <note key="50" pos="936" pan="0" len="24" vol="100" />
          <note key="62" pos="1008" pan="0" len="24" vol="100" />
          <note key="50" pos="1080" pan="0" len="24" vol="100" />
          <note key="65" pos="1116" pan="0" len="24" vol="100" />
          <note key="62" pos="1152" pan="0" len="24" vol="100" />
          <note key="50" pos="1224" pan="0" len="24" vol="100" />
          <note key="62" pos="1296" pan="0" len="24" vol="100" />
          <note key="50" pos="1368" pan="0" len="24" vol="100" />
          <note key="62" pos="1440" pan="0" len="24" vol="100" />
          <note key="50" pos="1512" pan="0" len="24" vol="100" />
          <note key="64" pos="1584" pan="0" len="24" vol="100" />
          <note key="52" pos="1620" pan="0" len="36" vol="100" />
          <note key="65" pos="1656" pan="0" len="24" vol="100" />
          <note key="53" pos="1692" pan="0" len="36" vol="100" />
          <note key="62" pos="1728" pan="0" len="24" vol="100" />
          <note key="50" pos="1800" pan="0" len="24" vol="100" />
          <note key="62" pos="1872" pan="0" len="24" vol="100" />
          <note key="50" pos="1944" pan="0" len="24" vol="100" />
          <note key="62" pos="2016" pan="0" len="24" vol="100" />
          <note key="50" pos="2088" pan="0" len="24" vol="100" />
          <note key="62" pos="2160" pan="0" len="24" vol="100" />
          <note key="64" pos="2232" pan="0" len="24" vol="100" />
          <note key="65" pos="2268" pan="0" len="24" vol="100" />
        </pattern>
        <pattern pos="71424" muted="0" steps="16" name="" type="1">
          <note key="62" pos="0" pan="0" len="24" vol="100" />
          <note key="50" pos="72" pan="0" len="24" vol="100" />
          <note key="62" pos="144" pan="0" len="24" vol="100" />
          <note key="50" pos="216" pan="0" len="24" vol="100" />
          <note key="62" pos="288" pan="0" len="24" vol="100" />
          <note key="50" pos="360" pan="0" len="24" vol="100" />
          <note key="62" pos="432" pan="0" len="24" vol="100" />
          <note key="50" pos="504" pan="0" len="24" vol="100" />
          <note key="57" pos="540" pan="0" len="24" vol="100" />
          <note key="62" pos="576" pan="0" len="24" vol="100" />
          <note key="50" pos="648" pan="0" len="24" vol="100" />
          <note key="62" pos="720" pan="0" len="24" vol="100" />
          <note key="50" pos="792" pan="0" len="24" vol="100" />
          <note key="62" pos="864" pan="0" len="24" vol="100" />
          <note key="50" pos="936" pan="0" len="24" vol="100" />
          <note key="62" pos="1008" pan="0" len="24" vol="100" />
          <note key="50" pos="1080" pan="0" len="24" vol="100" />
          <note key="65" pos="1116" pan="0" len="24" vol="100" />
          <note key="62" pos="1152" pan="0" len="24" vol="100" />
          <note key="50" pos="1224" pan="0" len="24" vol="100" />
          <note key="62" pos="1296" pan="0" len="24" vol="100" />
          <note key="50" pos="1368" pan="0" len="24" vol="100" />
          <note key="62" pos="1440" pan="0" len="24" vol="100" />
          <note key="50" pos="1512" pan="0" len="24" vol="100" />
          <note key="64" pos="1584" pan="0" len="24" vol="100" />
          <note key="52" pos="1620" pan="0" len="36" vol="100" />
          <note key="65" pos="1656" pan="0" len="24" vol="100" />
          <note key="53" pos="1692" pan="0" len="36" vol="100" />
          <note key="62" pos="1728" pan="0" len="24" vol="100" />
          <note key="50" pos="1800" pan="0" len="24" vol="100" />
          <note key="62" pos="1872" pan="0" len="24" vol="100" />
          <note key="50" pos="1944" pan="0" len="24" vol="100" />
          <note key="62" pos="2016" pan="0" len="24" vol="100" />
          <note key="50" pos="2088" pan="0" len="24" vol="100" />
          <note key="62" pos="2160" pan="0" len="24" vol="100" />
          <note key="64" pos="2232" pan="0" len="24" vol="100" />
          <note key="65" pos="2268" pan="0" len="24" vol="100" />
        </pattern>
        <pattern pos="73728" muted="0" steps="16" name="" type="1">
          <note key="65" pos="0" pan="0" len="24" vol="100" />
          <note key="53" pos="72" pan="0" len="24" vol="100" />
          <note key="65" pos="144" pan="0" len="24" vol="100" />
          <note key="53" pos="216" pan="0" len="24" vol="100" />
          <note key="65" pos="288" pan="0" len="24" vol="100" />
          <note key="53" pos="360" pan="0" len="24" vol="100" />
          <note key="65" pos="432" pan="0" len="24" vol="100" />
          <note key="53" pos="504" pan="0" len="24" vol="100" />
          <note key="60" pos="540" pan="0" len="24" vol="100" />
          <note key="65" pos="576" pan="0" len="24" vol="100" />
          <note key="53" pos="648" pan="0" len="24" vol="100" />
          <note key="65" pos="720" pan="0" len="24" vol="100" />
          <note key="53" pos="792" pan="0" len="24" vol="100" />
          <note key="65" pos="864" pan="0" len="24" vol="100" />
          <note key="53" pos="936" pan="0" len="24" vol="100" />
          <note key="65" pos="1008" pan="0" len="24" vol="100" />
          <note key="55" pos="1080" pan="0" len="24" vol="100" />
          <note key="68" pos="1116" pan="0" len="24" vol="100" />
          <note key="65" pos="1152" pan="0" len="24" vol="100" />
          <note key="53" pos="1224" pan="0" len="24" vol="100" />
          <note key="65" pos="1296" pan="0" len="24" vol="100" />
          <note key="53" pos="1368" pan="0" len="24" vol="100" />
          <note key="65" pos="1440" pan="0" len="24" vol="100" />
          <note key="53" pos="1512" pan="0" len="24" vol="100" />
          <note key="67" pos="1584" pan="0" len="24" vol="100" />
          <note key="55" pos="1620" pan="0" len="36" vol="100" />
          <note key="68" pos="1656" pan="0" len="24" vol="100" />
          <note key="56" pos="1692" pan="0" len="36" vol="100" />
          <note key="65" pos="1728" pan="0" len="24" vol="100" />
          <note key="53" pos="1800" pan="0" len="24" vol="100" />
          <note key="65" pos="1872" pan="0" len="24" vol="100" />
          <note key="53" pos="1944" pan="0" len="24" vol="100" />
          <note key="65" pos="2016" pan="0" len="24" vol="100" />
          <note key="53" pos="2088" pan="0" len="24" vol="100" />
          <note key="65" pos="2160" pan="0" len="24" vol="100" />
          <note key="67" pos="2232" pan="0" len="24" vol="100" />
          <note key="68" pos="2268" pan="0" len="24" vol="100" />
        </pattern>
        <pattern pos="76032" muted="0" steps="16" name="" type="1">
          <note key="62" pos="0" pan="0" len="24" vol="100" />
          <note key="50" pos="72" pan="0" len="24" vol="100" />
          <note key="62" pos="144" pan="0" len="24" vol="100" />
          <note key="50" pos="216" pan="0" len="24" vol="100" />
          <note key="62" pos="288" pan="0" len="24" vol="100" />
          <note key="50" pos="360" pan="0" len="24" vol="100" />
          <note key="62" pos="432" pan="0" len="24" vol="100" />
          <note key="50" pos="504" pan="0" len="24" vol="100" />
          <note key="57" pos="540" pan="0" len="24" vol="100" />
          <note key="62" pos="576" pan="0" len="24" vol="100" />
          <note key="50" pos="648" pan="0" len="24" vol="100" />
          <note key="62" pos="720" pan="0" len="24" vol="100" />
          <note key="50" pos="792" pan="0" len="24" vol="100" />
          <note key="62" pos="864" pan="0" len="24" vol="100" />
          <note key="50" pos="936" pan="0" len="24" vol="100" />
          <note key="62" pos="1008" pan="0" len="24" vol="100" />
          <note key="52" pos="1080" pan="0" len="24" vol="100" />
          <note key="65" pos="1116" pan="0" len="24" vol="100" />
          <note key="62" pos="1152" pan="0" len="24" vol="100" />
          <note key="50" pos="1224" pan="0" len="24" vol="100" />
          <note key="62" pos="1296" pan="0" len="24" vol="100" />
          <note key="50" pos="1368" pan="0" len="24" vol="100" />
          <note key="62" pos="1440" pan="0" len="24" vol="100" />
          <note key="50" pos="1512" pan="0" len="24" vol="100" />
          <note key="64" pos="1584" pan="0" len="24" vol="100" />
          <note key="52" pos="1620" pan="0" len="36" vol="100" />
          <note key="65" pos="1656" pan="0" len="24" vol="100" />
          <note key="53" pos="1692" pan="0" len="36" vol="100" />
          <note key="62" pos="1728" pan="0" len="24" vol="100" />
          <note key="50" pos="1800" pan="0" len="24" vol="100" />
          <note key="62" pos="1872" pan="0" len="24" vol="100" />
          <note key="50" pos="1944" pan="0" len="24" vol="100" />
          <note key="62" pos="2016" pan="0" len="24" vol="100" />
          <note key="50" pos="2088" pan="0" len="24" vol="100" />
          <note key="62" pos="2160" pan="0" len="24" vol="100" />
          <note key="64" pos="2232" pan="0" len="24" vol="100" />
          <note key="65" pos="2268" pan="0" len="24" vol="100" />
        </pattern>
        <pattern pos="78336" muted="0" steps="16" name="" type="1">
          <note key="62" pos="0" pan="0" len="24" vol="100" />
          <note key="50" pos="72" pan="0" len="24" vol="100" />
          <note key="62" pos="144" pan="0" len="24" vol="100" />
          <note key="50" pos="216" pan="0" len="24" vol="100" />
          <note key="62" pos="288" pan="0" len="24" vol="100" />
          <note key="50" pos="360" pan="0" len="24" vol="100" />
          <note key="62" pos="432" pan="0" len="24" vol="100" />
          <note key="50" pos="504" pan="0" len="24" vol="100" />
          <note key="57" pos="540" pan="0" len="24" vol="100" />
          <note key="62" pos="576" pan="0" len="24" vol="100" />
          <note key="50" pos="648" pan="0" len="24" vol="100" />
          <note key="62" pos="720" pan="0" len="24" vol="100" />
          <note key="50" pos="792" pan="0" len="24" vol="100" />
          <note key="62" pos="864" pan="0" len="24" vol="100" />
          <note key="50" pos="936" pan="0" len="24" vol="100" />
          <note key="62" pos="1008" pan="0" len="24" vol="100" />
          <note key="50" pos="1080" pan="0" len="24" vol="100" />
          <note key="65" pos="1116" pan="0" len="24" vol="100" />
          <note key="62" pos="1152" pan="0" len="24" vol="100" />
          <note key="50" pos="1224" pan="0" len="24" vol="100" />
          <note key="62" pos="1296" pan="0" len="24" vol="100" />
          <note key="50" pos="1368" pan="0" len="24" vol="100" />
          <note key="62" pos="1440" pan="0" len="24" vol="100" />
          <note key="50" pos="1512" pan="0" len="24" vol="100" />
          <note key="64" pos="1584" pan="0" len="24" vol="100" />
          <note key="52" pos="1620" pan="0" len="36" vol="100" />
          <note key="65" pos="1656" pan="0" len="24" vol="100" />
          <note key="53" pos="1692" pan="0" len="36" vol="100" />
          <note key="62" pos="1728" pan="0" len="24" vol="100" />
          <note key="50" pos="1800" pan="0" len="24" vol="100" />
          <note key="62" pos="1872" pan="0" len="24" vol="100" />
          <note key="50" pos="1944" pan="0" len="24" vol="100" />
          <note key="62" pos="2016" pan="0" len="24" vol="100" />
          <note key="50" pos="2088" pan="0" len="24" vol="100" />
          <note key="62" pos="2160" pan="0" len="24" vol="100" />
          <note key="64" pos="2232" pan="0" len="24" vol="100" />
          <note key="65" pos="2268" pan="0" len="24" vol="100" />
        </pattern>
        <pattern pos="80640" muted="0" steps="16" name="" type="1">
          <note key="62" pos="0" pan="0" len="24" vol="100" />
          <note key="50" pos="72" pan="0" len="24" vol="100" />
          <note key="62" pos="144" pan="0" len="24" vol="100" />
          <note key="50" pos="216" pan="0" len="24" vol="100" />
          <note key="62" pos="288" pan="0" len="24" vol="100" />
          <note key="50" pos="360" pan="0" len="24" vol="100" />
          <note key="62" pos="432" pan="0" len="24" vol="100" />
          <note key="50" pos="504" pan="0" len="24" vol="100" />
          <note key="57" pos="540" pan="0" len="24" vol="100" />
          <note key="62" pos="576" pan="0" len="24" vol="100" />
          <note key="50" pos="648" pan="0" len="24" vol="100" />
          <note key="62" pos="720" pan="0" len="24" vol="100" />
          <note key="50" pos="792" pan="0" len="24" vol="100" />
          <note key="62" pos="864" pan="0" len="24" vol="100" />
          <note key="50" pos="936" pan="0" len="24" vol="100" />
          <note key="62" pos="1008" pan="0" len="24" vol="100" />
          <note key="50" pos="1080" pan="0" len="24" vol="100" />
          <note key="65" pos="1116" pan="0" len="24" vol="100" />
          <note key="62" pos="1152" pan="0" len="24" vol="100" />
          <note key="50" pos="1224" pan="0" len="24" vol="100" />
          <note key="62" pos="1296" pan="0" len="24" vol="100" />
          <note key="50" pos="1368" pan="0" len="24" vol="100" />
          <note key="62" pos="1440" pan="0" len="24" vol="100" />
          <note key="50" pos="1512" pan="0" len="24" vol="100" />
          <note key="64" pos="1584" pan="0" len="24" vol="100" />
          <note key="52" pos="1620" pan="0" len="36" vol="100" />
          <note key="65" pos="1656" pan="0" len="24" vol="100" />
          <note key="53" pos="1692" pan="0" len="36" vol="100" />
          <note key="62" pos="1728" pan="0" len="24" vol="100" />
          <note key="50" pos="1800" pan="0" len="24" vol="100" />
          <note key="62" pos="1872" pan="0" len="24" vol="100" />
          <note key="50" pos="1944" pan="0" len="24" vol="100" />
          <note key="62" pos="2016" pan="0" len="24" vol="100" />
          <note key="50" pos="2088" pan="0" len="24" vol="100" />
          <note key="62" pos="2160" pan="0" len="24" vol="100" />
          <note key="64" pos="2232" pan="0" len="24" vol="100" />
          <note key="65" pos="2268" pan="0" len="24" vol="100" />
        </pattern>
        <pattern pos="82944" muted="0" steps="16" name="" type="1">
          <note key="62" pos="0" pan="0" len="24" vol="100" />
          <note key="50" pos="72" pan="0" len="24" vol="100" />
          <note key="62" pos="144" pan="0" len="24" vol="100" />
          <note key="50" pos="216" pan="0" len="24" vol="100" />
          <note key="62" pos="288" pan="0" len="24" vol="100" />
          <note key="50" pos="360" pan="0" len="24" vol="100" />
          <note key="62" pos="432" pan="0" len="24" vol="100" />
          <note key="50" pos="504" pan="0" len="24" vol="100" />
          <note key="57" pos="540" pan="0" len="24" vol="100" />
          <note key="62" pos="576" pan="0" len="24" vol="100" />
          <note key="50" pos="648" pan="0" len="24" vol="100" />
          <note key="62" pos="720" pan="0" len="24" vol="100" />
          <note key="50" pos="792" pan="0" len="24" vol="100" />
          <note key="62" pos="864" pan="0" len="24" vol="100" />
          <note key="50" pos="936" pan="0" len="24" vol="100" />
          <note key="62" pos="1008" pan="0" len="24" vol="100" />
          <note key="50" pos="1080" pan="0" len="24" vol="100" />
          <note key="65" pos="1116" pan="0" len="24" vol="100" />
          <note key="62" pos="1152" pan="0" len="24" vol="100" />
          <note key="50" pos="1224" pan="0" len="24" vol="100" />
          <note key="62" pos="1296" pan="0" len="24" vol="100" />
          <note key="50" pos="1368" pan="0" len="24" vol="100" />
          <note key="62" pos="1440" pan="0" len="24" vol="100" />
          <note key="50" pos="1512" pan="0" len="24" vol="100" />
          <note key="64" pos="1584" pan="0" len="24" vol="100" />
          <note key="52" pos="1620" pan="0" len="36" vol="100" />
          <note key="65" pos="1656" pan="0" len="24" vol="100" />
          <note key="53" pos="1692" pan="0" len="36" vol="100" />
          <note key="62" pos="1728" pan="0" len="24" vol="100" />
          <note key="50" pos="1800" pan="0" len="24" vol="100" />
          <note key="62" pos="1872" pan="0" len="24" vol="100" />
          <note key="50" pos="1944" pan="0" len="24" vol="100" />
          <note key="62" pos="2016" pan="0" len="24" vol="100" />
          <note key="50" pos="2088" pan="0" len="24" vol="100" />
          <note key="62" pos="2160" pan="0" len="24" vol="100" />
          <note key="64" pos="2232" pan="0" len="24" vol="100" />
          <note key="65" pos="2268" pan="0" len="24" vol="100" />
        </pattern>
        <pattern pos="85248" muted="0" steps="16" name="" type="1">
          <note key="65" pos="0" pan="0" len="24" vol="100" />
          <note key="53" pos="72" pan="0" len="24" vol="100" />
          <note key="65" pos="144" pan="0" len="24" vol="100" />
          <note key="53" pos="216" pan="0" len="24" vol="100" />
          <note key="65" pos="288" pan="0" len="24" vol="100" />
          <note key="53" pos="360" pan="0" len="24" vol="100" />
          <note key="65" pos="432" pan="0" len="24" vol="100" />
          <note key="53" pos="504" pan="0" len="24" vol="100" />
          <note key="60" pos="540" pan="0" len="24" vol="100" />
          <note key="65" pos="576" pan="0" len="24" vol="100" />
          <note key="53" pos="648" pan="0" len="24" vol="100" />
          <note key="65" pos="720" pan="0" len="24" vol="100" />
          <note key="53" pos="792" pan="0" len="24" vol="100" />
          <note key="65" pos="864" pan="0" len="24" vol="100" />
          <note key="53" pos="936" pan="0" len="24" vol="100" />
          <note key="65" pos="1008" pan="0" len="24" vol="100" />
          <note key="55" pos="1080" pan="0" len="24" vol="100" />
          <note key="68" pos="1116" pan="0" len="24" vol="100" />
          <note key="65" pos="1152" pan="0" len="24" vol="100" />
          <note key="53" pos="1224" pan="0" len="24" vol="100" />
          <note key="65" pos="1296" pan="0" len="24" vol="100" />
          <note key="53" pos="1368" pan="0" len="24" vol="100" />
          <note key="65" pos="1440" pan="0" len="24" vol="100" />
          <note key="53" pos="1512" pan="0" len="24" vol="100" />
          <note key="67" pos="1584" pan="0" len="24" vol="100" />
          <note key="55" pos="1620" pan="0" len="36" vol="100" />
          <note key="68" pos="1656" pan="0" len="24" vol="100" />
          <note key="56" pos="1692" pan="0" len="36" vol="100" />
          <note key="65" pos="1728" pan="0" len="24" vol="100" />
          <note key="53" pos="1800" pan="0" len="24" vol="100" />
          <note key="65" pos="1872" pan="0" len="24" vol="100" />
          <note key="53" pos="1944" pan="0" len="24" vol="100" />
          <note key="65" pos="2016" pan="0" len="24" vol="100" />
          <note key="53" pos="2088" pan="0" len="24" vol="100" />
          <note key="65" pos="2160" pan="0" len="24" vol="100" />
          <note key="67" pos="2232" pan="0" len="24" vol="100" />
          <note key="68" pos="2268" pan="0" len="24" vol="100" />
        </pattern>
        <pattern pos="87552" muted="0" steps="16" name="" type="1">
          <note key="62" pos="0" pan="0" len="24" vol="100" />
          <note key="50" pos="72" pan="0" len="24" vol="100" />
          <note key="62" pos="144" pan="0" len="24" vol="100" />
          <note key="50" pos="216" pan="0" len="24" vol="100" />
          <note key="62" pos="288" pan="0" len="24" vol="100" />
          <note key="50" pos="360" pan="0" len="24" vol="100" />
          <note key="62" pos="432" pan="0" len="24" vol="100" />
          <note key="50" pos="504" pan="0" len="24" vol="100" />
          <note key="57" pos="540" pan="0" len="24" vol="100" />
          <note key="62" pos="576" pan="0" len="24" vol="100" />
          <note key="50" pos="648" pan="0" len="24" vol="100" />
          <note key="62" pos="720" pan="0" len="24" vol="100" />
          <note key="50" pos="792" pan="0" len="24" vol="100" />
          <note key="62" pos="864" pan="0" len="24" vol="100" />
          <note key="50" pos="936" pan="0" len="24" vol="100" />
          <note key="62" pos="1008" pan="0" len="24" vol="100" />
          <note key="52" pos="1080" pan="0" len="24" vol="100" />
          <note key="65" pos="1116" pan="0" len="24" vol="100" />
          <note key="62" pos="1152" pan="0" len="24" vol="100" />
          <note key="50" pos="1224" pan="0" len="24" vol="100" />
          <note key="62" pos="1296" pan="0" len="24" vol="100" />
          <note key="50" pos="1368" pan="0" len="24" vol="100" />
          <note key="62" pos="1440" pan="0" len="24" vol="100" />
          <note key="50" pos="1512" pan="0" len="24" vol="100" />
          <note key="64" pos="1584" pan="0" len="24" vol="100" />
          <note key="52" pos="1620" pan="0" len="36" vol="100" />
          <note key="65" pos="1656" pan="0" len="24" vol="100" />
          <note key="53" pos="1692" pan="0" len="36" vol="100" />
          <note key="62" pos="1728" pan="0" len="24" vol="100" />
          <note key="50" pos="1800" pan="0" len="24" vol="100" />
          <note key="62" pos="1872" pan="0" len="24" vol="100" />
          <note key="50" pos="1944" pan="0" len="24" vol="100" />
          <note key="62" pos="2016" pan="0" len="24" vol="100" />
          <note key="50" pos="2088" pan="0" len="24" vol="100" />
          <note key="62" pos="2160" pan="0" len="24" vol="100" />
          <note key="64" pos="2232" pan="0" len="24" vol="100" />
          <note key="65" pos="2268" pan="0" len="24" vol="100" />
        </pattern>
        <pattern pos="89856" muted="0" steps="16" name="" type="1">
          <note key="62" pos="0" pan="0" len="24" vol="100" />
          <note key="50" pos="72" pan="0" len="24" vol="100" />
          <note key="62" pos="144" pan="0" len="24" vol="100" />
          <note key="50" pos="216" pan="0" len="24" vol="100" />
          <note key="62" pos="288" pan="0" len="24" vol="100" />
          <note key="50" pos="360" pan="0" len="24" vol="100" />
          <note key="62" pos="432" pan="0" len="24" vol="100" />
          <note key="50" pos="504" pan="0" len="24" vol="100" />
          <note key="57" pos="540" pan="0" len="24" vol="100" />
          <note key="62" pos="576" pan="0" len="24" vol="100" />
          <note key="50" pos="648" pan="0" len="24" vol="100" />
          <note key="62" pos="720" pan="0" len="24" vol="100" />
          <note key="50" pos="792" pan="0" len="24" vol="100" />
          <note key="62" pos="864" pan="0" len="24" vol="100" />
          <note key="50" pos="936" pan="0" len="24" vol="100" />
          <note key="62" pos="1008" pan="0" len="24" vol="100" />
          <note key="50" pos="1080" pan="0" len="24" vol="100" />
          <note key="65" pos="1116" pan="0" len="24" vol="100" />
          <note key="62" pos="1152" pan="0" len="24" vol="100" />
          <note key="50" pos="1224" pan="0" len="24" vol="100" />
          <note key="62" pos="1296" pan="0" len="24" vol="100" />
          <note key="50" pos="1368" pan="0" len="24" vol="100" />
          <note key="62" pos="1440" pan="0" len="24" vol="100" />
          <note key="50" pos="1512" pan="0" len="24" vol="100" />
          <note key="64" pos="1584" pan="0" len="24" vol="95" />
          <note key="52" pos="1620" pan="0" len="36" vol="91" />
          <note key="65" pos="1656" pan="0" len="24" vol="86" />
          <note key="53" pos="1692" pan="0" len="36" vol="81" />
          <note key="62" pos="1728" pan="0" len="24" vol="77" />
          <note key="50" pos="1800" pan="0" len="24" vol="67" />
          <note key="62" pos="1872" pan="0" len="24" vol="58" />
          <note key="50" pos="1944" pan="0" len="24" vol="47" />
          <note key="62" pos="2016" pan="0" len="24" vol="38" />
          <note key="50" pos="2088" pan="0" len="24" vol="28" />
          <note key="62" pos="2160" pan="0" len="24" vol="19" />
          <note key="64" pos="2232" pan="0" len="24" vol="9" />
          <note key="65" pos="2268" pan="0" len="24" vol="5" />
        </pattern>
        <pattern pos="113664" muted="0" steps="16" name="" type="1">
          <note key="62" pos="0" pan="0" len="12" vol="100" />
          <note key="58" pos="72" pan="0" len="12" vol="100" />
          <note key="60" pos="144" pan="0" len="12" vol="100" />
          <note key="67" pos="216" pan="0" len="12" vol="100" />
          <note key="62" pos="288" pan="0" len="12" vol="100" />
          <note key="58" pos="360" pan="0" len="12" vol="100" />
          <note key="60" pos="432" pan="0" len="12" vol="100" />
          <note key="67" pos="504" pan="0" len="12" vol="100" />
          <note key="62" pos="576" pan="0" len="12" vol="100" />
          <note key="58" pos="648" pan="0" len="12" vol="100" />
          <note key="60" pos="720" pan="0" len="12" vol="100" />
          <note key="67" pos="792" pan="0" len="12" vol="100" />
          <note key="62" pos="864" pan="0" len="12" vol="100" />
          <note key="58" pos="936" pan="0" len="12" vol="100" />
          <note key="60" pos="1008" pan="0" len="12" vol="100" />
          <note key="67" pos="1080" pan="0" len="12" vol="100" />
          <note key="62" pos="1152" pan="0" len="12" vol="100" />
          <note key="58" pos="1224" pan="0" len="12" vol="100" />
          <note key="60" pos="1296" pan="0" len="12" vol="100" />
          <note key="67" pos="1368" pan="0" len="12" vol="100" />
          <note key="62" pos="1440" pan="0" len="12" vol="100" />
          <note key="58" pos="1512" pan="0" len="12" vol="100" />
          <note key="60" pos="1584" pan="0" len="12" vol="100" />
          <note key="67" pos="1656" pan="0" len="12" vol="100" />
          <note key="62" pos="1728" pan="0" len="12" vol="100" />
          <note key="58" pos="1800" pan="0" len="12" vol="100" />
          <note key="60" pos="1872" pan="0" len="12" vol="100" />
          <note key="67" pos="1944" pan="0" len="12" vol="100" />
          <note key="62" pos="2016" pan="0" len="12" vol="100" />
          <note key="58" pos="2088" pan="0" len="12" vol="100" />
          <note key="60" pos="2160" pan="0" len="12" vol="100" />
          <note key="67" pos="2232" pan="0" len="12" vol="100" />
        </pattern>
        <pattern pos="118272" muted="0" steps="16" name="" type="1">
          <note key="62" pos="0" pan="0" len="12" vol="100" />
          <note key="58" pos="72" pan="0" len="12" vol="100" />
          <note key="60" pos="144" pan="0" len="12" vol="100" />
          <note key="67" pos="216" pan="0" len="12" vol="100" />
          <note key="62" pos="288" pan="0" len="12" vol="100" />
          <note key="58" pos="360" pan="0" len="12" vol="100" />
          <note key="60" pos="432" pan="0" len="12" vol="100" />
          <note key="67" pos="504" pan="0" len="12" vol="100" />
          <note key="62" pos="576" pan="0" len="12" vol="100" />
          <note key="58" pos="648" pan="0" len="12" vol="100" />
          <note key="60" pos="720" pan="0" len="12" vol="100" />
          <note key="67" pos="792" pan="0" len="12" vol="100" />
          <note key="62" pos="864" pan="0" len="12" vol="100" />
          <note key="58" pos="936" pan="0" len="12" vol="100" />
          <note key="60" pos="1008" pan="0" len="12" vol="100" />
          <note key="67" pos="1080" pan="0" len="12" vol="100" />
          <note key="62" pos="1152" pan="0" len="12" vol="100" />
          <note key="58" pos="1224" pan="0" len="12" vol="100" />
          <note key="60" pos="1296" pan="0" len="12" vol="100" />
          <note key="67" pos="1368" pan="0" len="12" vol="100" />
          <note key="62" pos="1440" pan="0" len="12" vol="100" />
          <note key="58" pos="1512" pan="0" len="12" vol="100" />
          <note key="60" pos="1584" pan="0" len="12" vol="100" />
          <note key="67" pos="1656" pan="0" len="12" vol="100" />
          <note key="62" pos="1728" pan="0" len="12" vol="100" />
          <note key="58" pos="1800" pan="0" len="12" vol="100" />
          <note key="60" pos="1872" pan="0" len="12" vol="100" />
          <note key="67" pos="1944" pan="0" len="12" vol="100" />
          <note key="62" pos="2016" pan="0" len="12" vol="100" />
          <note key="58" pos="2088" pan="0" len="12" vol="100" />
          <note key="60" pos="2160" pan="0" len="12" vol="100" />
          <note key="67" pos="2232" pan="0" len="12" vol="100" />
        </pattern>
        <pattern pos="175884" muted="0" steps="16" name="" type="1">
          <note key="67" pos="0" pan="0" len="48" vol="100" />
          <note key="70" pos="96" pan="0" len="24" vol="100" />
          <note key="72" pos="192" pan="0" len="48" vol="100" />
          <note key="74" pos="264" pan="0" len="60" vol="100" />
          <note key="67" pos="384" pan="0" len="48" vol="100" />
          <note key="70" pos="480" pan="0" len="24" vol="100" />
          <note key="72" pos="576" pan="0" len="48" vol="100" />
          <note key="74" pos="648" pan="0" len="60" vol="100" />
        </pattern>
        <pattern pos="176652" muted="0" steps="16" name="" type="1">
          <note key="67" pos="0" pan="0" len="48" vol="100" />
          <note key="70" pos="72" pan="0" len="48" vol="100" />
          <note key="65" pos="192" pan="0" len="48" vol="100" />
          <note key="72" pos="264" pan="0" len="48" vol="100" />
          <note key="60" pos="384" pan="0" len="108" vol="100" />
          <note key="63" pos="576" pan="0" len="72" vol="100" />
          <note key="65" pos="672" pan="0" len="48" vol="100" />
        </pattern>
        <pattern pos="184332" muted="0" steps="16" name="" type="1">
          <note key="62" pos="0" pan="0" len="24" vol="100" />
          <note key="65" pos="192" pan="0" len="24" vol="100" />
          <note key="69" pos="384" pan="0" len="24" vol="100" />
          <note key="67" pos="576" pan="0" len="24" vol="100" />
        </pattern>
        <pattern pos="208140" muted="0" steps="16" name="" type="1">
          <note key="51" pos="0" pan="0" len="24" vol="100" />
          <note key="51" pos="48" pan="0" len="24" vol="100" />
          <note key="51" pos="96" pan="0" len="24" vol="100" />
          <note key="51" pos="144" pan="0" len="24" vol="100" />
          <note key="51" pos="192" pan="0" len="24" vol="100" />
          <note key="51" pos="240" pan="0" len="24" vol="100" />
          <note key="53" pos="288" pan="0" len="24" vol="100" />
          <note key="53" pos="336" pan="0" len="24" vol="100" />
          <note key="55" pos="384" pan="0" len="24" vol="100" />
          <note key="55" pos="432" pan="0" len="24" vol="100" />
          <note key="55" pos="480" pan="0" len="24" vol="100" />
          <note key="55" pos="528" pan="0" len="24" vol="100" />
          <note key="55" pos="576" pan="0" len="24" vol="100" />
          <note key="55" pos="624" pan="0" len="24" vol="100" />
          <note key="55" pos="672" pan="0" len="24" vol="100" />
          <note key="55" pos="720" pan="0" len="24" vol="100" />
          <note key="60" pos="768" pan="0" len="24" vol="100" />
          <note key="60" pos="816" pan="0" len="24" vol="100" />
          <note key="60" pos="864" pan="0" len="24" vol="100" />
          <note key="60" pos="912" pan="0" len="24" vol="100" />
          <note key="60" pos="960" pan="0" len="24" vol="100" />
          <note key="60" pos="1008" pan="0" len="24" vol="100" />
          <note key="58" pos="1056" pan="0" len="24" vol="100" />
          <note key="58" pos="1104" pan="0" len="24" vol="100" />
          <note key="56" pos="1152" pan="0" len="24" vol="100" />
          <note key="56" pos="1200" pan="0" len="24" vol="100" />
          <note key="56" pos="1248" pan="0" len="24" vol="100" />
          <note key="56" pos="1296" pan="0" len="24" vol="100" />
          <note key="56" pos="1344" pan="0" len="24" vol="100" />
          <note key="58" pos="1392" pan="0" len="24" vol="100" />
          <note key="58" pos="1440" pan="0" len="24" vol="100" />
          <note key="58" pos="1488" pan="0" len="24" vol="100" />
        </pattern>
        <pattern pos="209676" muted="0" steps="16" name="" type="1">
          <note key="51" pos="0" pan="0" len="24" vol="100" />
          <note key="51" pos="48" pan="0" len="24" vol="100" />
          <note key="51" pos="96" pan="0" len="24" vol="100" />
          <note key="51" pos="144" pan="0" len="24" vol="100" />
          <note key="51" pos="192" pan="0" len="24" vol="100" />
          <note key="51" pos="240" pan="0" len="24" vol="100" />
          <note key="53" pos="288" pan="0" len="24" vol="100" />
          <note key="53" pos="336" pan="0" len="24" vol="100" />
          <note key="55" pos="384" pan="0" len="24" vol="100" />
          <note key="55" pos="432" pan="0" len="24" vol="100" />
          <note key="55" pos="480" pan="0" len="24" vol="100" />
          <note key="55" pos="528" pan="0" len="24" vol="100" />
          <note key="55" pos="576" pan="0" len="24" vol="100" />
          <note key="55" pos="624" pan="0" len="24" vol="100" />
          <note key="55" pos="672" pan="0" len="24" vol="100" />
          <note key="55" pos="720" pan="0" len="24" vol="100" />
          <note key="60" pos="768" pan="0" len="24" vol="100" />
          <note key="60" pos="816" pan="0" len="24" vol="100" />
          <note key="60" pos="864" pan="0" len="24" vol="100" />
          <note key="60" pos="912" pan="0" len="24" vol="100" />
          <note key="60" pos="960" pan="0" len="24" vol="100" />
          <note key="60" pos="1008" pan="0" len="24" vol="100" />
          <note key="58" pos="1056" pan="0" len="24" vol="100" />
          <note key="58" pos="1104" pan="0" len="24" vol="100" />
          <note key="56" pos="1152" pan="0" len="24" vol="100" />
          <note key="56" pos="1200" pan="0" len="24" vol="100" />
          <note key="56" pos="1248" pan="0" len="24" vol="100" />
          <note key="56" pos="1296" pan="0" len="24" vol="100" />
          <note key="56" pos="1344" pan="0" len="24" vol="100" />
          <note key="58" pos="1392" pan="0" len="24" vol="100" />
          <note key="58" pos="1440" pan="0" len="24" vol="100" />
          <note key="58" pos="1488" pan="0" len="24" vol="100" />
        </pattern>
        <pattern pos="215820" muted="0" steps="16" name="" type="1">
          <note key="51" pos="0" pan="0" len="24" vol="100" />
          <note key="51" pos="48" pan="0" len="24" vol="100" />
          <note key="51" pos="96" pan="0" len="24" vol="100" />
          <note key="51" pos="144" pan="0" len="24" vol="100" />
          <note key="51" pos="192" pan="0" len="24" vol="100" />
          <note key="51" pos="240" pan="0" len="24" vol="100" />
          <note key="53" pos="288" pan="0" len="24" vol="100" />
          <note key="53" pos="336" pan="0" len="24" vol="100" />
          <note key="55" pos="384" pan="0" len="24" vol="100" />
          <note key="55" pos="432" pan="0" len="24" vol="100" />
          <note key="55" pos="480" pan="0" len="24" vol="100" />
          <note key="55" pos="528" pan="0" len="24" vol="100" />
          <note key="55" pos="576" pan="0" len="24" vol="100" />
          <note key="55" pos="624" pan="0" len="24" vol="100" />
          <note key="55" pos="672" pan="0" len="24" vol="100" />
          <note key="55" pos="720" pan="0" len="24" vol="100" />
          <note key="60" pos="768" pan="0" len="24" vol="100" />
          <note key="60" pos="816" pan="0" len="24" vol="100" />
          <note key="60" pos="864" pan="0" len="24" vol="100" />
          <note key="60" pos="912" pan="0" len="24" vol="100" />
          <note key="60" pos="960" pan="0" len="24" vol="100" />
          <note key="60" pos="1008" pan="0" len="24" vol="100" />
          <note key="58" pos="1056" pan="0" len="24" vol="100" />
          <note key="58" pos="1104" pan="0" len="24" vol="100" />
          <note key="56" pos="1152" pan="0" len="24" vol="100" />
          <note key="56" pos="1200" pan="0" len="24" vol="100" />
          <note key="56" pos="1248" pan="0" len="24" vol="100" />
          <note key="56" pos="1296" pan="0" len="24" vol="100" />
          <note key="56" pos="1344" pan="0" len="24" vol="100" />
          <note key="58" pos="1392" pan="0" len="24" vol="100" />
          <note key="58" pos="1440" pan="0" len="24" vol="100" />
          <note key="58" pos="1488" pan="0" len="24" vol="100" />
        </pattern>
        <pattern pos="217356" muted="0" steps="16" name="" type="1">
          <note key="51" pos="0" pan="0" len="24" vol="100" />
          <note key="51" pos="48" pan="0" len="24" vol="100" />
          <note key="51" pos="96" pan="0" len="24" vol="100" />
          <note key="51" pos="144" pan="0" len="24" vol="100" />
          <note key="51" pos="192" pan="0" len="24" vol="100" />
          <note key="51" pos="240" pan="0" len="24" vol="100" />
          <note key="53" pos="288" pan="0" len="24" vol="100" />
          <note key="53" pos="336" pan="0" len="24" vol="100" />
          <note key="55" pos="384" pan="0" len="24" vol="100" />
          <note key="55" pos="432" pan="0" len="24" vol="100" />
          <note key="55" pos="480" pan="0" len="24" vol="100" />
          <note key="55" pos="528" pan="0" len="24" vol="100" />
          <note key="55" pos="576" pan="0" len="24" vol="100" />
          <note key="55" pos="624" pan="0" len="24" vol="100" />
          <note key="55" pos="672" pan="0" len="24" vol="100" />
          <note key="55" pos="720" pan="0" len="24" vol="100" />
          <note key="60" pos="768" pan="0" len="24" vol="100" />
          <note key="60" pos="816" pan="0" len="24" vol="100" />
          <note key="60" pos="864" pan="0" len="24" vol="100" />
          <note key="60" pos="912" pan="0" len="24" vol="100" />
          <note key="60" pos="960" pan="0" len="24" vol="100" />
          <note key="60" pos="1008" pan="0" len="24" vol="100" />
          <note key="58" pos="1056" pan="0" len="24" vol="100" />
          <note key="58" pos="1104" pan="0" len="24" vol="100" />
          <note key="56" pos="1152" pan="0" len="24" vol="100" />
          <note key="56" pos="1200" pan="0" len="24" vol="100" />
          <note key="56" pos="1248" pan="0" len="24" vol="100" />
          <note key="56" pos="1296" pan="0" len="24" vol="100" />
          <note key="56" pos="1344" pan="0" len="24" vol="100" />
          <note key="58" pos="1392" pan="0" len="24" vol="100" />
          <note key="58" pos="1440" pan="0" len="24" vol="100" />
          <note key="58" pos="1488" pan="0" len="24" vol="100" />
        </pattern>
      </track>
      <track solo="0" name="19 (Ch2)" type="0" muted="0">
        <instrumenttrack usemasterpitch="1" pitch="0.0" basenote="57" pan="0" pitchrange="12" vol="30">
          <eldata />
          <instrument name="tripleoscillator" />
        </instrumenttrack>
        <pattern pos="268044" muted="0" steps="16" name="" type="1">
          <note key="55" pos="24" pan="0" len="48" vol="100" />
          <note key="54" pos="96" pan="0" len="48" vol="100" />
          <note key="63" pos="216" pan="0" len="84" vol="100" />
          <note key="62" pos="336" pan="0" len="24" vol="100" />
        </pattern>
        <pattern pos="54528" muted="0" steps="16" name="" type="1">
          <note key="58" pos="168" pan="0" len="48" vol="100" />
          <note key="60" pos="240" pan="0" len="48" vol="100" />
          <note key="55" pos="312" pan="0" len="84" vol="100" />
        </pattern>
        <pattern pos="55296" muted="0" steps="16" name="" type="1">
          <note key="50" pos="384" pan="0" len="48" vol="100" />
          <note key="55" pos="432" pan="0" len="48" vol="100" />
          <note key="50" pos="480" pan="0" len="96" vol="100" />
          <note key="60" pos="576" pan="0" len="48" vol="100" />
          <note key="55" pos="624" pan="0" len="48" vol="100" />
          <note key="62" pos="672" pan="0" len="96" vol="100" />
          <note key="50" pos="768" pan="0" len="48" vol="100" />
          <note key="55" pos="816" pan="0" len="48" vol="100" />
          <note key="50" pos="864" pan="0" len="96" vol="100" />
          <note key="60" pos="960" pan="0" len="48" vol="100" />
          <note key="55" pos="1008" pan="0" len="48" vol="100" />
          <note key="62" pos="1056" pan="0" len="96" vol="100" />
        </pattern>
        <pattern pos="172812" muted="0" steps="16" name="" type="1">
          <note key="65" pos="0" pan="0" len="12" vol="100" />
          <note key="60" pos="288" pan="0" len="12" vol="100" />
          <note key="63" pos="384" pan="0" len="12" vol="100" />
          <note key="60" pos="576" pan="0" len="12" vol="100" />
          <note key="65" pos="672" pan="0" len="12" vol="100" />
          <note key="65" pos="768" pan="0" len="12" vol="100" />
          <note key="60" pos="912" pan="0" len="12" vol="100" />
          <note key="65" pos="960" pan="0" len="12" vol="100" />
          <note key="60" pos="1056" pan="0" len="12" vol="100" />
          <note key="63" pos="1152" pan="0" len="12" vol="100" />
          <note key="65" pos="1296" pan="0" len="12" vol="100" />
          <note key="60" pos="1344" pan="0" len="12" vol="100" />
          <note key="65" pos="1440" pan="0" len="12" vol="100" />
        </pattern>
      </track>
      <track solo="0" name="19 (Ch3)" type="0" muted="0">
        <instrumenttrack usemasterpitch="1" pitch="0.0" basenote="57" pan="0" pitchrange="12" vol="30">
          <eldata />
          <instrument name="tripleoscillator" />
        </instrumenttrack>
        <pattern pos="220428" muted="0" steps="16" name="" type="1">
          <note key="60" pos="0" pan="0" len="12" vol="100" />
          <note key="60" pos="96" pan="0" len="12" vol="100" />
        </pattern>
        <pattern pos="53760" muted="0" steps="16" name="" type="1">
          <note key="57" pos="432" pan="0" len="96" vol="100" />
        </pattern>
        <pattern pos="118272" muted="0" steps="16" name="" type="1">
          <note key="62" pos="0" pan="0" len="24" vol="100" />
          <note key="62" pos="1152" pan="0" len="24" vol="100" />
        </pattern>
        <pattern pos="192780" muted="0" steps="16" name="" type="1">
          <note key="50" pos="1128" pan="0" len="24" vol="100" />
          <note key="52" pos="1152" pan="0" len="288" vol="100" />
          <note key="52" pos="1440" pan="0" len="24" vol="100" />
        </pattern>
        <pattern pos="197388" muted="0" steps="16" name="" type="1">
          <note key="61" pos="0" pan="0" len="12" vol="100" />
          <note key="56" pos="72" pan="0" len="12" vol="100" />
          <note key="59" pos="120" pan="0" len="24" vol="100" />
          <note key="63" pos="144" pan="0" len="24" vol="100" />
          <note key="61" pos="216" pan="0" len="24" vol="100" />
          <note key="66" pos="240" pan="0" len="24" vol="100" />
          <note key="68" pos="312" pan="0" len="24" vol="100" />
          <note key="64" pos="336" pan="0" len="24" vol="100" />
          <note key="56" pos="360" pan="0" len="12" vol="100" />
          <note key="61" pos="384" pan="0" len="12" vol="100" />
          <note key="56" pos="456" pan="0" len="12" vol="100" />
          <note key="59" pos="504" pan="0" len="24" vol="100" />
          <note key="63" pos="528" pan="0" len="24" vol="100" />
          <note key="61" pos="600" pan="0" len="24" vol="100" />
          <note key="66" pos="624" pan="0" len="24" vol="100" />
          <note key="68" pos="696" pan="0" len="24" vol="100" />
          <note key="64" pos="720" pan="0" len="24" vol="100" />
          <note key="56" pos="744" pan="0" len="12" vol="100" />
          <note key="59" pos="768" pan="0" len="12" vol="100" />
          <note key="54" pos="840" pan="0" len="12" vol="100" />
          <note key="57" pos="888" pan="0" len="24" vol="100" />
          <note key="61" pos="912" pan="0" len="24" vol="100" />
          <note key="59" pos="984" pan="0" len="24" vol="100" />
          <note key="64" pos="1008" pan="0" len="24" vol="100" />
          <note key="66" pos="1080" pan="0" len="24" vol="100" />
          <note key="62" pos="1104" pan="0" len="24" vol="100" />
          <note key="54" pos="1128" pan="0" len="12" vol="100" />
          <note key="59" pos="1152" pan="0" len="12" vol="100" />
          <note key="54" pos="1224" pan="0" len="12" vol="100" />
          <note key="57" pos="1272" pan="0" len="24" vol="100" />
          <note key="61" pos="1296" pan="0" len="24" vol="100" />
          <note key="59" pos="1368" pan="0" len="24" vol="100" />
          <note key="64" pos="1392" pan="0" len="24" vol="100" />
          <note key="66" pos="1464" pan="0" len="24" vol="100" />
          <note key="62" pos="1488" pan="0" len="24" vol="100" />
          <note key="54" pos="1512" pan="0" len="12" vol="100" />
        </pattern>
        <pattern pos="198924" muted="0" steps="16" name="" type="1">
          <note key="57" pos="0" pan="0" len="12" vol="100" />
          <note key="52" pos="72" pan="0" len="12" vol="100" />
          <note key="55" pos="120" pan="0" len="24" vol="100" />
          <note key="59" pos="144" pan="0" len="24" vol="100" />
          <note key="57" pos="216" pan="0" len="24" vol="100" />
          <note key="62" pos="240" pan="0" len="24" vol="100" />
          <note key="64" pos="312" pan="0" len="24" vol="100" />
          <note key="60" pos="336" pan="0" len="24" vol="100" />
          <note key="52" pos="360" pan="0" len="12" vol="100" />
          <note key="57" pos="384" pan="0" len="12" vol="100" />
          <note key="52" pos="456" pan="0" len="12" vol="100" />
          <note key="55" pos="504" pan="0" len="24" vol="100" />
          <note key="59" pos="528" pan="0" len="24" vol="100" />
          <note key="57" pos="600" pan="0" len="24" vol="100" />
          <note key="62" pos="624" pan="0" len="24" vol="100" />
          <note key="64" pos="696" pan="0" len="24" vol="100" />
          <note key="60" pos="720" pan="0" len="24" vol="100" />
          <note key="52" pos="744" pan="0" len="12" vol="100" />
          <note key="57" pos="768" pan="0" len="12" vol="100" />
          <note key="52" pos="840" pan="0" len="12" vol="100" />
          <note key="55" pos="888" pan="0" len="24" vol="100" />
          <note key="59" pos="912" pan="0" len="24" vol="100" />
          <note key="57" pos="984" pan="0" len="24" vol="100" />
          <note key="62" pos="1008" pan="0" len="24" vol="100" />
          <note key="64" pos="1080" pan="0" len="24" vol="100" />
          <note key="60" pos="1104" pan="0" len="24" vol="100" />
          <note key="52" pos="1128" pan="0" len="12" vol="100" />
          <note key="57" pos="1152" pan="0" len="12" vol="100" />
          <note key="52" pos="1224" pan="0" len="12" vol="100" />
          <note key="55" pos="1272" pan="0" len="24" vol="100" />
          <note key="59" pos="1296" pan="0" len="24" vol="100" />
          <note key="57" pos="1368" pan="0" len="24" vol="100" />
          <note key="62" pos="1392" pan="0" len="24" vol="100" />
          <note key="64" pos="1464" pan="0" len="24" vol="100" />
          <note key="60" pos="1488" pan="0" len="24" vol="100" />
          <note key="52" pos="1512" pan="0" len="12" vol="100" />
        </pattern>
        <pattern pos="211212" muted="0" steps="16" name="" type="1">
          <note key="60" pos="0" pan="0" len="12" vol="100" />
          <note key="60" pos="96" pan="0" len="12" vol="100" />
          <note key="48" pos="192" pan="0" len="24" vol="100" />
          <note key="48" pos="288" pan="0" len="24" vol="100" />
          <note key="60" pos="384" pan="0" len="12" vol="100" />
          <note key="60" pos="480" pan="0" len="12" vol="100" />
          <note key="48" pos="576" pan="0" len="24" vol="100" />
          <note key="48" pos="672" pan="0" len="24" vol="100" />
        </pattern>
        <pattern pos="218892" muted="0" steps="16" name="" type="1">
          <note key="60" pos="0" pan="0" len="12" vol="100" />
          <note key="60" pos="96" pan="0" len="12" vol="100" />
          <note key="48" pos="192" pan="0" len="24" vol="100" />
          <note key="48" pos="288" pan="0" len="24" vol="100" />
          <note key="60" pos="384" pan="0" len="12" vol="100" />
          <note key="60" pos="480" pan="0" len="12" vol="100" />
          <note key="48" pos="576" pan="0" len="24" vol="100" />
          <note key="48" pos="672" pan="0" len="24" vol="100" />
        </pattern>
      </track>
      <track solo="0" name="19 (Ch4)" type="0" muted="0">
        <instrumenttrack usemasterpitch="1" pitch="0.0" basenote="57" pan="0" pitchrange="12" vol="30">
          <eldata />
          <instrument name="tripleoscillator" />
        </instrumenttrack>
        <pattern pos="169740" muted="0" steps="16" name="" type="1">
          <note key="53" pos="576" pan="0" len="192" vol="100" />
          <note key="55" pos="768" pan="0" len="192" vol="100" />
          <note key="56" pos="960" pan="0" len="192" vol="100" />
          <note key="58" pos="1152" pan="0" len="192" vol="100" />
          <note key="48" pos="1536" pan="0" len="192" vol="100" />
          <note key="56" pos="1728" pan="0" len="240" vol="100" />
          <note key="48" pos="2112" pan="0" len="96" vol="100" />
        </pattern>
      </track>
      <track solo="0" name="19 (Ch5)" type="0" muted="0">
        <instrumenttrack usemasterpitch="1" pitch="0.0" basenote="57" pan="0" pitchrange="12" vol="30">
          <eldata />
          <instrument name="tripleoscillator" />
        </instrumenttrack>
        <pattern pos="201228" muted="0" steps="16" name="" type="1">
          <note key="62" pos="96" pan="0" len="72" vol="100" />
          <note key="52" pos="168" pan="0" len="84" vol="100" />
        </pattern>
        <pattern pos="21504" muted="0" steps="16" name="" type="1">
          <note key="63" pos="24" pan="0" len="24" vol="100" />
          <note key="63" pos="72" pan="0" len="24" vol="100" />
          <note key="63" pos="120" pan="0" len="24" vol="100" />
          <note key="63" pos="168" pan="0" len="24" vol="100" />
          <note key="63" pos="216" pan="0" len="24" vol="100" />
          <note key="63" pos="264" pan="0" len="24" vol="100" />
          <note key="65" pos="312" pan="0" len="24" vol="100" />
          <note key="66" pos="360" pan="0" len="24" vol="100" />
          <note key="59" pos="408" pan="0" len="24" vol="100" />
          <note key="59" pos="456" pan="0" len="24" vol="100" />
          <note key="59" pos="504" pan="0" len="24" vol="100" />
          <note key="59" pos="552" pan="0" len="24" vol="100" />
          <note key="56" pos="600" pan="0" len="24" vol="100" />
          <note key="56" pos="648" pan="0" len="24" vol="100" />
          <note key="58" pos="696" pan="0" len="24" vol="100" />
          <note key="61" pos="744" pan="0" len="24" vol="100" />
          <note key="63" pos="792" pan="0" len="24" vol="100" />
          <note key="63" pos="840" pan="0" len="24" vol="100" />
          <note key="63" pos="888" pan="0" len="24" vol="100" />
          <note key="63" pos="936" pan="0" len="24" vol="100" />
          <note key="63" pos="984" pan="0" len="24" vol="100" />
          <note key="63" pos="1032" pan="0" len="24" vol="100" />
          <note key="65" pos="1080" pan="0" len="24" vol="100" />
          <note key="66" pos="1128" pan="0" len="24" vol="100" />
          <note key="59" pos="1176" pan="0" len="24" vol="100" />
          <note key="59" pos="1224" pan="0" len="24" vol="100" />
          <note key="59" pos="1272" pan="0" len="24" vol="100" />
          <note key="59" pos="1320" pan="0" len="24" vol="100" />
          <note key="56" pos="1368" pan="0" len="24" vol="100" />
          <note key="56" pos="1416" pan="0" len="24" vol="100" />
          <note key="58" pos="1464" pan="0" len="24" vol="100" />
          <note key="61" pos="1512" pan="0" len="24" vol="100" />
        </pattern>
        <pattern pos="23040" muted="0" steps="16" name="" type="1">
          <note key="63" pos="24" pan="0" len="24" vol="100" />
          <note key="63" pos="72" pan="0" len="24" vol="100" />
          <note key="63" pos="120" pan="0" len="24" vol="100" />
          <note key="63" pos="168" pan="0" len="24" vol="100" />
          <note key="65" pos="216" pan="0" len="24" vol="100" />
          <note key="65" pos="264" pan="0" len="24" vol="100" />
          <note key="66" pos="312" pan="0" len="24" vol="100" />
          <note key="58" pos="360" pan="0" len="24" vol="100" />
          <note key="59" pos="408" pan="0" len="24" vol="100" />
          <note key="59" pos="456" pan="0" len="24" vol="100" />
          <note key="59" pos="504" pan="0" len="24" vol="100" />
          <note key="59" pos="552" pan="0" len="24" vol="100" />
          <note key="56" pos="600" pan="0" len="24" vol="100" />
          <note key="56" pos="648" pan="0" len="24" vol="100" />
          <note key="58" pos="696" pan="0" len="24" vol="100" />
          <note key="61" pos="744" pan="0" len="24" vol="100" />
          <note key="63" pos="792" pan="0" len="24" vol="100" />
          <note key="63" pos="840" pan="0" len="24" vol="100" />
          <note key="63" pos="888" pan="0" len="24" vol="100" />
          <note key="63" pos="936" pan="0" len="24" vol="100" />
          <note key="65" pos="984" pan="0" len="24" vol="100" />
          <note key="65" pos="1032" pan="0" len="24" vol="100" />
          <note key="66" pos="1080" pan="0" len="24" vol="100" />
          <note key="58" pos="1128" pan="0" len="24" vol="100" />
          <note key="59" pos="1176" pan="0" len="24" vol="100" />
          <note key="59" pos="1224" pan="0" len="24" vol="100" />
          <note key="59" pos="1272" pan="0" len="24" vol="100" />
          <note key="59" pos="1320" pan="0" len="24" vol="100" />
          <note key="56" pos="1368" pan="0" len="24" vol="100" />
          <note key="56" pos="1416" pan="0" len="24" vol="100" />
          <note key="58" pos="1464" pan="0" len="24" vol="100" />
          <note key="61" pos="1512" pan="0" len="24" vol="100" />
        </pattern>
        <pattern pos="24576" muted="0" steps="16" name="" type="1">
          <note key="53" pos="24" pan="0" len="24" vol="100" />
          <note key="53" pos="72" pan="0" len="24" vol="100" />
          <note key="53" pos="120" pan="0" len="24" vol="100" />
          <note key="53" pos="168" pan="0" len="24" vol="100" />
          <note key="53" pos="216" pan="0" len="24" vol="100" />
          <note key="53" pos="264" pan="0" len="24" vol="100" />
          <note key="56" pos="312" pan="0" len="24" vol="100" />
          <note key="56" pos="360" pan="0" len="24" vol="100" />
          <note key="61" pos="408" pan="0" len="24" vol="100" />
          <note key="61" pos="456" pan="0" len="24" vol="100" />
          <note key="61" pos="504" pan="0" len="24" vol="100" />
          <note key="61" pos="552" pan="0" len="24" vol="100" />
          <note key="61" pos="600" pan="0" len="24" vol="100" />
          <note key="61" pos="648" pan="0" len="24" vol="100" />
          <note key="63" pos="696" pan="0" len="24" vol="100" />
          <note key="63" pos="744" pan="0" len="24" vol="100" />
          <note key="53" pos="792" pan="0" len="24" vol="100" />
          <note key="53" pos="840" pan="0" len="24" vol="100" />
          <note key="53" pos="888" pan="0" len="24" vol="100" />
          <note key="53" pos="936" pan="0" len="24" vol="100" />
          <note key="53" pos="984" pan="0" len="24" vol="100" />
          <note key="53" pos="1032" pan="0" len="24" vol="100" />
          <note key="56" pos="1080" pan="0" len="24" vol="100" />
          <note key="56" pos="1128" pan="0" len="24" vol="100" />
          <note key="61" pos="1176" pan="0" len="24" vol="100" />
          <note key="61" pos="1224" pan="0" len="24" vol="100" />
          <note key="61" pos="1272" pan="0" len="24" vol="100" />
          <note key="61" pos="1320" pan="0" len="24" vol="100" />
          <note key="61" pos="1368" pan="0" len="24" vol="100" />
          <note key="61" pos="1416" pan="0" len="24" vol="100" />
          <note key="60" pos="1464" pan="0" len="24" vol="100" />
          <note key="60" pos="1512" pan="0" len="24" vol="100" />
        </pattern>
        <pattern pos="26112" muted="0" steps="16" name="" type="1">
          <note key="58" pos="24" pan="0" len="24" vol="100" />
          <note key="58" pos="72" pan="0" len="24" vol="100" />
          <note key="58" pos="120" pan="0" len="24" vol="100" />
          <note key="58" pos="168" pan="0" len="24" vol="100" />
          <note key="58" pos="216" pan="0" len="24" vol="100" />
          <note key="58" pos="264" pan="0" len="24" vol="100" />
          <note key="56" pos="312" pan="0" len="24" vol="100" />
          <note key="56" pos="360" pan="0" len="24" vol="100" />
          <note key="61" pos="408" pan="0" len="24" vol="100" />
          <note key="61" pos="456" pan="0" len="24" vol="100" />
          <note key="61" pos="504" pan="0" len="24" vol="100" />
          <note key="61" pos="552" pan="0" len="24" vol="100" />
          <note key="63" pos="600" pan="0" len="24" vol="100" />
          <note key="63" pos="648" pan="0" len="24" vol="100" />
          <note key="56" pos="696" pan="0" len="24" vol="100" />
          <note key="56" pos="744" pan="0" len="24" vol="100" />
          <note key="58" pos="792" pan="0" len="24" vol="100" />
          <note key="58" pos="840" pan="0" len="24" vol="100" />
          <note key="58" pos="888" pan="0" len="24" vol="100" />
          <note key="58" pos="936" pan="0" len="24" vol="100" />
          <note key="58" pos="984" pan="0" len="24" vol="100" />
          <note key="58" pos="1032" pan="0" len="24" vol="100" />
          <note key="56" pos="1080" pan="0" len="24" vol="100" />
          <note key="56" pos="1128" pan="0" len="24" vol="100" />
          <note key="61" pos="1176" pan="0" len="24" vol="100" />
          <note key="61" pos="1224" pan="0" len="24" vol="100" />
          <note key="61" pos="1272" pan="0" len="24" vol="100" />
          <note key="61" pos="1320" pan="0" len="24" vol="100" />
          <note key="63" pos="1368" pan="0" len="24" vol="100" />
          <note key="63" pos="1416" pan="0" len="24" vol="100" />
          <note key="61" pos="1464" pan="0" len="24" vol="100" />
          <note key="61" pos="1512" pan="0" len="24" vol="100" />
        </pattern>
        <pattern pos="27648" muted="0" steps="16" name="" type="1">
          <note key="56" pos="24" pan="0" len="24" vol="100" />
          <note key="56" pos="72" pan="0" len="24" vol="100" />
          <note key="56" pos="120" pan="0" len="24" vol="100" />
          <note key="56" pos="168" pan="0" len="24" vol="100" />
          <note key="56" pos="216" pan="0" len="24" vol="100" />
          <note key="58" pos="264" pan="0" len="24" vol="100" />
          <note key="63" pos="312" pan="0" len="24" vol="100" />
          <note key="63" pos="360" pan="0" len="24" vol="100" />
          <note key="60" pos="408" pan="0" len="24" vol="100" />
          <note key="60" pos="456" pan="0" len="24" vol="100" />
          <note key="60" pos="504" pan="0" len="24" vol="100" />
          <note key="63" pos="552" pan="0" len="24" vol="100" />
          <note key="58" pos="600" pan="0" len="24" vol="100" />
          <note key="58" pos="648" pan="0" len="24" vol="100" />
          <note key="58" pos="696" pan="0" len="24" vol="100" />
          <note key="55" pos="744" pan="0" len="24" vol="100" />
          <note key="56" pos="792" pan="0" len="24" vol="100" />
          <note key="56" pos="840" pan="0" len="24" vol="100" />
          <note key="56" pos="888" pan="0" len="24" vol="100" />
          <note key="56" pos="936" pan="0" len="24" vol="100" />
          <note key="56" pos="984" pan="0" len="24" vol="100" />
          <note key="58" pos="1032" pan="0" len="24" vol="100" />
          <note key="63" pos="1080" pan="0" len="24" vol="100" />
          <note key="63" pos="1128" pan="0" len="24" vol="100" />
          <note key="60" pos="1176" pan="0" len="24" vol="100" />
          <note key="60" pos="1224" pan="0" len="24" vol="100" />
          <note key="60" pos="1272" pan="0" len="24" vol="100" />
          <note key="60" pos="1320" pan="0" len="24" vol="100" />
          <note key="58" pos="1368" pan="0" len="24" vol="100" />
          <note key="58" pos="1416" pan="0" len="24" vol="100" />
          <note key="58" pos="1464" pan="0" len="24" vol="100" />
          <note key="67" pos="1512" pan="0" len="24" vol="100" />
        </pattern>
      </track>
      <track solo="0" name="19 (Ch6)" type="0" muted="0">
        <instrumenttrack usemasterpitch="1" pitch="0.0" basenote="57" pan="0" pitchrange="12" vol="30">
          <eldata />
          <instrument name="tripleoscillator" />
        </instrumenttrack>
        <pattern pos="127500" muted="0" steps="16" name="" type="1">
          <note key="60" pos="0" pan="0" len="12" vol="100" />
          <note key="63" pos="96" pan="0" len="12" vol="100" />
          <note key="60" pos="192" pan="0" len="12" vol="100" />
          <note key="63" pos="288" pan="0" len="12" vol="100" />
          <note key="60" pos="384" pan="0" len="12" vol="100" />
          <note key="63" pos="480" pan="0" len="12" vol="100" />
          <note key="60" pos="576" pan="0" len="12" vol="100" />
          <note key="63" pos="672" pan="0" len="12" vol="100" />
          <note key="60" pos="768" pan="0" len="12" vol="100" />
          <note key="63" pos="864" pan="0" len="12" vol="100" />
          <note key="60" pos="960" pan="0" len="12" vol="100" />
          <note key="63" pos="1056" pan="0" len="12" vol="100" />
          <note key="60" pos="1152" pan="0" len="12" vol="100" />
          <note key="63" pos="1248" pan="0" len="12" vol="100" />
          <note key="60" pos="1344" pan="0" len="12" vol="100" />
          <note key="63" pos="1440" pan="0" len="12" vol="100" />
        </pattern>
        <pattern pos="124428" muted="0" steps="16" name="" type="1">
          <note key="60" pos="0" pan="0" len="12" vol="100" />
          <note key="63" pos="96" pan="0" len="12" vol="100" />
          <note key="60" pos="192" pan="0" len="12" vol="100" />
          <note key="63" pos="288" pan="0" len="12" vol="100" />
          <note key="60" pos="384" pan="0" len="12" vol="100" />
          <note key="63" pos="480" pan="0" len="12" vol="100" />
          <note key="60" pos="576" pan="0" len="12" vol="100" />
          <note key="63" pos="672" pan="0" len="12" vol="100" />
        </pattern>
        <pattern pos="125196" muted="0" steps="16" name="" type="1">
          <note key="60" pos="0" pan="0" len="12" vol="100" />
          <note key="63" pos="96" pan="0" len="12" vol="100" />
          <note key="60" pos="192" pan="0" len="12" vol="100" />
          <note key="63" pos="288" pan="0" len="12" vol="100" />
          <note key="60" pos="384" pan="0" len="12" vol="100" />
          <note key="63" pos="480" pan="0" len="12" vol="100" />
          <note key="60" pos="576" pan="0" len="12" vol="100" />
          <note key="63" pos="672" pan="0" len="12" vol="100" />
        </pattern>
      </track>
      <track solo="0" name="19 (Ch7)" type="0" muted="0">
        <instrumenttrack usemasterpitch="1" pitch="0.0" basenote="57" pan="0" pitchrange="12" vol="30">
          <eldata />
          <instrument name="tripleoscillator" />
        </instrumenttrack>
        <pattern pos="169740" muted="0" steps="16" name="" type="1">
          <note key="52" pos="0" pan="0" len="576" vol="100" />
        </pattern>
        <pattern pos="12288" muted="0" steps="16" name="" type="1">
          <note key="60" pos="1536" pan="0" len="96" vol="100" />
          <note key="70" pos="1728" pan="0" len="96" vol="100" />
          <note key="68" pos="1920" pan="0" len="96" vol="100" />
          <note key="70" pos="2112" pan="0" len="96" vol="100" />
          <note key="65" pos="2304" pan="0" len="108" vol="100" />
          <note key="55" pos="2496" pan="0" len="96" vol="100" />
          <note key="58" pos="2592" pan="0" len="96" vol="100" />
          <note key="72" pos="2688" pan="0" len="96" vol="100" />
          <note key="48" pos="2880" pan="0" len="108" vol="100" />
        </pattern>
        <pattern pos="32256" muted="0" steps="16" name="" type="1">
          <note key="48" pos="0" pan="0" len="36" vol="100" />
          <note key="46" pos="84" pan="0" len="12" vol="100" />
          <note key="48" pos="96" pan="0" len="24" vol="100" />
          <note key="50" pos="180" pan="0" len="12" vol="100" />
          <note key="51" pos="192" pan="0" len="24" vol="100" />
          <note key="51" pos="276" pan="0" len="12" vol="100" />
          <note key="55" pos="288" pan="0" len="24" vol="100" />
          <note key="58" pos="336" pan="0" len="24" vol="100" />
          <note key="48" pos="384" pan="0" len="24" vol="100" />
          <note key="51" pos="468" pan="0" len="12" vol="100" />
          <note key="48" pos="480" pan="0" len="24" vol="100" />
          <note key="48" pos="564" pan="0" len="12" vol="100" />
          <note key="51" pos="576" pan="0" len="24" vol="100" />
          <note key="51" pos="660" pan="0" len="12" vol="100" />
          <note key="55" pos="672" pan="0" len="24" vol="100" />
          <note key="53" pos="720" pan="0" len="24" vol="100" />
          <note key="48" pos="768" pan="0" len="36" vol="100" />
          <note key="46" pos="852" pan="0" len="12" vol="100" />
          <note key="48" pos="864" pan="0" len="24" vol="100" />
          <note key="50" pos="948" pan="0" len="12" vol="100" />
          <note key="51" pos="960" pan="0" len="24" vol="100" />
          <note key="51" pos="1044" pan="0" len="12" vol="100" />
          <note key="55" pos="1056" pan="0" len="24" vol="100" />
          <note key="58" pos="1104" pan="0" len="24" vol="100" />
          <note key="48" pos="1152" pan="0" len="24" vol="100" />
          <note key="51" pos="1236" pan="0" len="12" vol="100" />
          <note key="48" pos="1248" pan="0" len="24" vol="100" />
          <note key="48" pos="1332" pan="0" len="12" vol="100" />
          <note key="51" pos="1344" pan="0" len="24" vol="100" />
          <note key="51" pos="1428" pan="0" len="12" vol="100" />
          <note key="55" pos="1440" pan="0" len="24" vol="100" />
          <note key="53" pos="1488" pan="0" len="24" vol="100" />
        </pattern>
        <pattern pos="33792" muted="0" steps="16" name="" type="1">
          <note key="51" pos="0" pan="0" len="24" vol="100" />
          <note key="53" pos="84" pan="0" len="12" vol="100" />
          <note key="55" pos="96" pan="0" len="24" vol="100" />
          <note key="53" pos="180" pan="0" len="12" vol="100" />
          <note key="48" pos="192" pan="0" len="24" vol="100" />
          <note key="46" pos="276" pan="0" len="12" vol="100" />
          <note key="48" pos="288" pan="0" len="24" vol="100" />
          <note key="51" pos="336" pan="0" len="24" vol="100" />
          <note key="46" pos="360" pan="0" len="24" vol="100" />
          <note key="51" pos="384" pan="0" len="24" vol="100" />
          <note key="53" pos="468" pan="0" len="12" vol="100" />
          <note key="55" pos="480" pan="0" len="24" vol="100" />
          <note key="53" pos="564" pan="0" len="12" vol="100" />
          <note key="48" pos="576" pan="0" len="24" vol="100" />
          <note key="51" pos="768" pan="0" len="24" vol="100" />
          <note key="53" pos="852" pan="0" len="12" vol="100" />
          <note key="55" pos="864" pan="0" len="24" vol="100" />
          <note key="53" pos="948" pan="0" len="12" vol="100" />
          <note key="48" pos="960" pan="0" len="24" vol="100" />
          <note key="46" pos="1044" pan="0" len="12" vol="100" />
          <note key="48" pos="1056" pan="0" len="24" vol="100" />
          <note key="51" pos="1104" pan="0" len="24" vol="100" />
          <note key="46" pos="1128" pan="0" len="24" vol="100" />
          <note key="51" pos="1152" pan="0" len="24" vol="100" />
          <note key="53" pos="1236" pan="0" len="12" vol="100" />
          <note key="55" pos="1248" pan="0" len="24" vol="100" />
          <note key="53" pos="1332" pan="0" len="12" vol="100" />
          <note key="48" pos="1344" pan="0" len="24" vol="100" />
        </pattern>
        <pattern pos="125964" muted="0" steps="16" name="" type="1">
          <note key="56" pos="0" pan="0" len="12" vol="100" />
          <note key="58" pos="96" pan="0" len="12" vol="100" />
          <note key="60" pos="192" pan="0" len="12" vol="100" />
          <note key="63" pos="288" pan="0" len="12" vol="100" />
          <note key="56" pos="384" pan="0" len="12" vol="100" />
          <note key="58" pos="480" pan="0" len="12" vol="100" />
          <note key="60" pos="576" pan="0" len="12" vol="100" />
          <note key="63" pos="672" pan="0" len="12" vol="100" />
          <note key="56" pos="768" pan="0" len="12" vol="100" />
          <note key="58" pos="864" pan="0" len="12" vol="100" />
          <note key="60" pos="960" pan="0" len="12" vol="100" />
          <note key="63" pos="1056" pan="0" len="12" vol="100" />
          <note key="56" pos="1152" pan="0" len="12" vol="100" />
          <note key="58" pos="1248" pan="0" len="12" vol="100" />
          <note key="60" pos="1344" pan="0" len="12" vol="100" />
          <note key="60" pos="1440" pan="0" len="12" vol="100" />
        </pattern>
        <pattern pos="129036" muted="0" steps="16" name="" type="1">
          <note key="56" pos="0" pan="0" len="12" vol="100" />
          <note key="58" pos="96" pan="0" len="12" vol="100" />
          <note key="60" pos="192" pan="0" len="12" vol="100" />
          <note key="63" pos="288" pan="0" len="12" vol="100" />
          <note key="56" pos="384" pan="0" len="12" vol="100" />
          <note key="58" pos="480" pan="0" len="12" vol="100" />
          <note key="60" pos="576" pan="0" len="12" vol="100" />
          <note key="63" pos="672" pan="0" len="12" vol="100" />
          <note key="56" pos="768" pan="0" len="12" vol="100" />
          <note key="58" pos="864" pan="0" len="12" vol="100" />
          <note key="60" pos="960" pan="0" len="12" vol="100" />
          <note key="63" pos="1056" pan="0" len="12" vol="100" />
          <note key="56" pos="1152" pan="0" len="12" vol="100" />
          <note key="58" pos="1248" pan="0" len="12" vol="100" />
          <note key="60" pos="1344" pan="0" len="12" vol="100" />
          <note key="60" pos="1440" pan="0" len="12" vol="100" />
        </pattern>
      </track>
      <track solo="0" name="19 (Ch8)" type="0" muted="0">
        <instrumenttrack usemasterpitch="1" pitch="0.0" basenote="57" pan="0" pitchrange="12" vol="30">
          <eldata />
          <instrument name="tripleoscillator" />
        </instrumenttrack>
        <pattern pos="46080" muted="0" steps="16" name="" type="1">
          <note key="62" pos="1056" pan="0" len="96" vol="100" />
        </pattern>
        <pattern pos="1536" muted="0" steps="16" name="" type="1">
          <note key="60" pos="0" pan="0" len="120" vol="100" />
          <note key="58" pos="192" pan="0" len="96" vol="100" />
          <note key="56" pos="384" pan="0" len="96" vol="100" />
          <note key="55" pos="624" pan="0" len="24" vol="100" />
          <note key="58" pos="672" pan="0" len="48" vol="100" />
          <note key="53" pos="1344" pan="0" len="72" vol="50" />
          <note key="55" pos="1440" pan="0" len="48" vol="50" />
          <note key="58" pos="1488" pan="0" len="48" vol="50" />
        </pattern>
        <pattern pos="3072" muted="0" steps="16" name="" type="1">
          <note key="60" pos="0" pan="0" len="120" vol="100" />
          <note key="58" pos="192" pan="0" len="96" vol="100" />
          <note key="56" pos="384" pan="0" len="96" vol="100" />
          <note key="55" pos="624" pan="0" len="24" vol="100" />
          <note key="58" pos="672" pan="0" len="48" vol="100" />
          <note key="60" pos="768" pan="0" len="120" vol="100" />
          <note key="58" pos="960" pan="0" len="96" vol="100" />
          <note key="56" pos="1152" pan="0" len="96" vol="100" />
          <note key="55" pos="1392" pan="0" len="24" vol="100" />
          <note key="58" pos="1440" pan="0" len="48" vol="100" />
        </pattern>
        <pattern pos="4608" muted="0" steps="16" name="" type="1">
          <note key="60" pos="0" pan="0" len="120" vol="100" />
          <note key="58" pos="192" pan="0" len="96" vol="100" />
          <note key="56" pos="384" pan="0" len="96" vol="100" />
          <note key="55" pos="624" pan="0" len="24" vol="100" />
          <note key="58" pos="672" pan="0" len="48" vol="100" />
          <note key="60" pos="768" pan="0" len="120" vol="100" />
          <note key="58" pos="960" pan="0" len="96" vol="100" />
          <note key="56" pos="1152" pan="0" len="96" vol="100" />
          <note key="55" pos="1392" pan="0" len="24" vol="100" />
          <note key="58" pos="1440" pan="0" len="48" vol="100" />
        </pattern>
        <pattern pos="7680" muted="0" steps="16" name="" type="1">
          <note key="60" pos="0" pan="0" len="120" vol="100" />
          <note key="58" pos="192" pan="0" len="96" vol="100" />
          <note key="56" pos="384" pan="0" len="96" vol="100" />
          <note key="55" pos="624" pan="0" len="24" vol="100" />
          <note key="58" pos="672" pan="0" len="48" vol="100" />
          <note key="53" pos="1344" pan="0" len="72" vol="100" />
          <note key="55" pos="1440" pan="0" len="48" vol="100" />
          <note key="58" pos="1488" pan="0" len="48" vol="100" />
          <note key="60" pos="1536" pan="0" len="120" vol="100" />
          <note key="58" pos="1728" pan="0" len="96" vol="100" />
          <note key="56" pos="1920" pan="0" len="96" vol="100" />
          <note key="55" pos="2160" pan="0" len="24" vol="100" />
          <note key="58" pos="2208" pan="0" len="48" vol="100" />
          <note key="53" pos="2880" pan="0" len="72" vol="100" />
          <note key="55" pos="2976" pan="0" len="48" vol="100" />
          <note key="58" pos="3024" pan="0" len="48" vol="100" />
        </pattern>
        <pattern pos="12288" muted="0" steps="16" name="" type="1">
          <note key="60" pos="0" pan="0" len="84" vol="100" />
          <note key="70" pos="192" pan="0" len="84" vol="100" />
          <note key="68" pos="384" pan="0" len="96" vol="100" />
          <note key="70" pos="576" pan="0" len="96" vol="100" />
          <note key="65" pos="768" pan="0" len="96" vol="100" />
          <note key="67" pos="960" pan="0" len="96" vol="100" />
          <note key="68" pos="1152" pan="0" len="96" vol="100" />
          <note key="70" pos="1344" pan="0" len="96" vol="100" />
        </pattern>
        <pattern pos="18432" muted="0" steps="16" name="" type="1">
          <note key="60" pos="24" pan="0" len="24" vol="100" />
          <note key="60" pos="72" pan="0" len="24" vol="100" />
          <note key="60" pos="120" pan="0" len="24" vol="100" />
          <note key="60" pos="168" pan="0" len="24" vol="100" />
          <note key="60" pos="216" pan="0" len="24" vol="100" />
          <note key="60" pos="264" pan="0" len="24" vol="100" />
          <note key="60" pos="312" pan="0" len="24" vol="100" />
          <note key="55" pos="360" pan="0" len="24" vol="100" />
          <note key="63" pos="408" pan="0" len="24" vol="100" />
          <note key="63" pos="456" pan="0" len="24" vol="100" />
          <note key="63" pos="504" pan="0" len="24" vol="100" />
          <note key="58" pos="552" pan="0" len="24" vol="100" />
          <note key="67" pos="600" pan="0" len="24" vol="100" />
          <note key="67" pos="648" pan="0" len="24" vol="100" />
          <note key="58" pos="696" pan="0" len="24" vol="100" />
          <note key="60" pos="744" pan="0" len="24" vol="100" />
          <note key="60" pos="792" pan="0" len="24" vol="100" />
          <note key="60" pos="840" pan="0" len="24" vol="100" />
          <note key="60" pos="888" pan="0" len="24" vol="100" />
          <note key="60" pos="936" pan="0" len="24" vol="100" />
          <note key="60" pos="984" pan="0" len="24" vol="100" />
          <note key="60" pos="1032" pan="0" len="24" vol="100" />
          <note key="60" pos="1080" pan="0" len="24" vol="100" />
          <note key="55" pos="1128" pan="0" len="24" vol="100" />
          <note key="63" pos="1176" pan="0" len="24" vol="100" />
          <note key="63" pos="1224" pan="0" len="24" vol="100" />
          <note key="63" pos="1272" pan="0" len="24" vol="100" />
          <note key="65" pos="1320" pan="0" len="24" vol="100" />
          <note key="67" pos="1368" pan="0" len="24" vol="100" />
          <note key="67" pos="1416" pan="0" len="24" vol="100" />
          <note key="65" pos="1464" pan="0" len="24" vol="100" />
          <note key="65" pos="1512" pan="0" len="24" vol="100" />
        </pattern>
        <pattern pos="19968" muted="0" steps="16" name="" type="1">
          <note key="63" pos="24" pan="0" len="24" vol="100" />
          <note key="63" pos="72" pan="0" len="24" vol="100" />
          <note key="63" pos="120" pan="0" len="24" vol="100" />
          <note key="65" pos="168" pan="0" len="24" vol="100" />
          <note key="67" pos="216" pan="0" len="24" vol="100" />
          <note key="67" pos="264" pan="0" len="24" vol="100" />
          <note key="67" pos="312" pan="0" len="24" vol="100" />
          <note key="65" pos="360" pan="0" len="24" vol="100" />
          <note key="60" pos="408" pan="0" len="24" vol="100" />
          <note key="60" pos="456" pan="0" len="24" vol="100" />
          <note key="60" pos="504" pan="0" len="24" vol="100" />
          <note key="58" pos="552" pan="0" len="24" vol="100" />
          <note key="60" pos="600" pan="0" len="24" vol="100" />
          <note key="60" pos="648" pan="0" len="24" vol="100" />
          <note key="63" pos="696" pan="0" len="24" vol="100" />
          <note key="58" pos="744" pan="0" len="24" vol="100" />
          <note key="63" pos="792" pan="0" len="24" vol="100" />
          <note key="63" pos="840" pan="0" len="24" vol="100" />
          <note key="63" pos="888" pan="0" len="24" vol="100" />
          <note key="65" pos="936" pan="0" len="24" vol="100" />
          <note key="67" pos="984" pan="0" len="24" vol="100" />
          <note key="67" pos="1032" pan="0" len="24" vol="100" />
          <note key="67" pos="1080" pan="0" len="24" vol="100" />
          <note key="65" pos="1128" pan="0" len="24" vol="100" />
          <note key="60" pos="1176" pan="0" len="24" vol="100" />
          <note key="60" pos="1224" pan="0" len="24" vol="100" />
          <note key="60" pos="1272" pan="0" len="24" vol="100" />
          <note key="58" pos="1320" pan="0" len="24" vol="100" />
          <note key="60" pos="1368" pan="0" len="24" vol="100" />
          <note key="60" pos="1416" pan="0" len="24" vol="100" />
        </pattern>
      </track>
      <track solo="0" name="19 (Ch9)" type="0" muted="0">
        <instrumenttrack usemasterpitch="1" pitch="0.0" basenote="57" pan="0" pitchrange="12" vol="30">
          <eldata />
          <instrument name="tripleoscillator" />
        </instrumenttrack>
        <pattern pos="235020" muted="0" steps="16" name="" type="1">
          <note key="58" pos="0" pan="0" len="48" vol="100" />
          <note key="53" pos="72" pan="0" len="24" vol="100" />
          <note key="58" pos="96" pan="0" len="48" vol="100" />
          <note key="53" pos="168" pan="0" len="24" vol="100" />
          <note key="54" pos="192" pan="0" len="48" vol="100" />
          <note key="47" pos="264" pan="0" len="24" vol="100" />
          <note key="54" pos="288" pan="0" len="48" vol="100" />
          <note key="51" pos="360" pan="0" len="24" vol="100" />
          <note key="56" pos="384" pan="0" len="48" vol="100" />
          <note key="51" pos="456" pan="0" len="24" vol="100" />
          <note key="56" pos="480" pan="0" len="48" vol="100" />
          <note key="48" pos="552" pan="0" len="24" vol="100" />
          <note key="53" pos="576" pan="0" len="48" vol="100" />
          <note key="48" pos="648" pan="0" len="24" vol="100" />
          <note key="53" pos="672" pan="0" len="48" vol="100" />
          <note key="49" pos="744" pan="0" len="24" vol="100" />
          <note key="54" pos="768" pan="0" len="48" vol="100" />
          <note key="49" pos="840" pan="0" len="24" vol="100" />
          <note key="54" pos="864" pan="0" len="48" vol="100" />
          <note key="46" pos="936" pan="0" len="24" vol="100" />
          <note key="51" pos="960" pan="0" len="48" vol="100" />
          <note key="46" pos="1032" pan="0" len="24" vol="100" />
          <note key="51" pos="1056" pan="0" len="48" vol="100" />
          <note key="51" pos="1128" pan="0" len="24" vol="100" />
          <note key="56" pos="1152" pan="0" len="48" vol="100" />
          <note key="51" pos="1224" pan="0" len="24" vol="100" />
          <note key="56" pos="1248" pan="0" len="48" vol="100" />
          <note key="51" pos="1344" pan="0" len="48" vol="100" />
          <note key="46" pos="1416" pan="0" len="24" vol="100" />
          <note key="49" pos="1440" pan="0" len="48" vol="100" />
          <note key="46" pos="1488" pan="0" len="48" vol="100" />
        </pattern>
        <pattern pos="6144" muted="0" steps="16" name="" type="1">
          <note key="53" pos="0" pan="0" len="96" vol="100" />
          <note key="55" pos="192" pan="0" len="96" vol="100" />
          <note key="56" pos="384" pan="0" len="96" vol="100" />
          <note key="58" pos="576" pan="0" len="48" vol="100" />
        </pattern>
        <pattern pos="10752" muted="0" steps="16" name="" type="1">
          <note key="53" pos="0" pan="0" len="96" vol="100" />
          <note key="55" pos="192" pan="0" len="96" vol="100" />
          <note key="56" pos="384" pan="0" len="96" vol="100" />
          <note key="58" pos="576" pan="0" len="48" vol="100" />
        </pattern>
        <pattern pos="141324" muted="0" steps="16" name="" type="1">
          <note key="51" pos="0" pan="0" len="192" vol="100" />
          <note key="53" pos="192" pan="0" len="168" vol="100" />
          <note key="50" pos="360" pan="0" len="24" vol="100" />
          <note key="55" pos="384" pan="0" len="144" vol="100" />
          <note key="53" pos="528" pan="0" len="48" vol="100" />
          <note key="58" pos="576" pan="0" len="144" vol="100" />
          <note key="57" pos="720" pan="0" len="48" vol="100" />
          <note key="51" pos="768" pan="0" len="168" vol="100" />
          <note key="55" pos="936" pan="0" len="24" vol="100" />
          <note key="53" pos="960" pan="0" len="192" vol="100" />
          <note key="48" pos="1152" pan="0" len="192" vol="100" />
          <note key="51" pos="1344" pan="0" len="96" vol="100" />
          <note key="53" pos="1440" pan="0" len="96" vol="100" />
        </pattern>
        <pattern pos="142860" muted="0" steps="16" name="" type="1">
          <note key="51" pos="0" pan="0" len="192" vol="100" />
          <note key="53" pos="192" pan="0" len="168" vol="100" />
          <note key="50" pos="360" pan="0" len="24" vol="100" />
          <note key="55" pos="384" pan="0" len="144" vol="100" />
          <note key="53" pos="528" pan="0" len="48" vol="100" />
          <note key="58" pos="576" pan="0" len="144" vol="100" />
          <note key="57" pos="720" pan="0" len="48" vol="100" />
          <note key="51" pos="768" pan="0" len="168" vol="100" />
          <note key="55" pos="936" pan="0" len="24" vol="100" />
          <note key="53" pos="960" pan="0" len="192" vol="100" />
          <note key="55" pos="1152" pan="0" len="192" vol="100" />
          <note key="43" pos="1344" pan="0" len="192" vol="100" />
        </pattern>
        <pattern pos="225804" muted="0" steps="16" name="" type="1">
          <note key="58" pos="0" pan="0" len="48" vol="100" />
          <note key="53" pos="72" pan="0" len="24" vol="100" />
          <note key="58" pos="96" pan="0" len="48" vol="100" />
          <note key="53" pos="168" pan="0" len="24" vol="100" />
          <note key="56" pos="192" pan="0" len="48" vol="100" />
          <note key="51" pos="264" pan="0" len="24" vol="100" />
          <note key="54" pos="288" pan="0" len="60" vol="100" />
          <note key="54" pos="384" pan="0" len="48" vol="100" />
          <note key="49" pos="456" pan="0" len="24" vol="100" />
          <note key="54" pos="480" pan="0" len="48" vol="100" />
          <note key="56" pos="552" pan="0" len="24" vol="100" />
          <note key="61" pos="576" pan="0" len="48" vol="100" />
          <note key="51" pos="648" pan="0" len="24" vol="100" />
          <note key="56" pos="672" pan="0" len="48" vol="100" />
          <note key="58" pos="768" pan="0" len="48" vol="100" />
          <note key="53" pos="840" pan="0" len="24" vol="100" />
          <note key="58" pos="864" pan="0" len="48" vol="100" />
          <note key="61" pos="936" pan="0" len="24" vol="100" />
          <note key="60" pos="960" pan="0" len="48" vol="100" />
          <note key="51" pos="1032" pan="0" len="24" vol="100" />
          <note key="54" pos="1056" pan="0" len="48" vol="100" />
          <note key="54" pos="1152" pan="0" len="48" vol="100" />
          <note key="49" pos="1224" pan="0" len="24" vol="100" />
          <note key="54" pos="1248" pan="0" len="48" vol="100" />
          <note key="56" pos="1320" pan="0" len="24" vol="100" />
          <note key="49" pos="1344" pan="0" len="48" vol="100" />
          <note key="56" pos="1440" pan="0" len="48" vol="100" />
        </pattern>
        <pattern pos="227340" muted="0" steps="16" name="" type="1">
          <note key="63" pos="0" pan="0" len="48" vol="100" />
          <note key="58" pos="72" pan="0" len="24" vol="100" />
          <note key="63" pos="96" pan="0" len="48" vol="100" />
          <note key="58" pos="168" pan="0" len="24" vol="100" />
          <note key="59" pos="192" pan="0" len="48" vol="100" />
          <note key="52" pos="264" pan="0" len="24" vol="100" />
          <note key="59" pos="288" pan="0" len="48" vol="100" />
          <note key="56" pos="360" pan="0" len="24" vol="100" />
          <note key="61" pos="384" pan="0" len="48" vol="100" />
          <note key="56" pos="456" pan="0" len="24" vol="100" />
          <note key="61" pos="480" pan="0" len="48" vol="100" />
          <note key="53" pos="552" pan="0" len="24" vol="100" />
          <note key="58" pos="576" pan="0" len="48" vol="100" />
          <note key="53" pos="648" pan="0" len="24" vol="100" />
          <note key="58" pos="672" pan="0" len="48" vol="100" />
          <note key="54" pos="744" pan="0" len="24" vol="100" />
          <note key="59" pos="768" pan="0" len="48" vol="100" />
          <note key="54" pos="840" pan="0" len="24" vol="100" />
          <note key="59" pos="864" pan="0" len="48" vol="100" />
          <note key="51" pos="936" pan="0" len="24" vol="100" />
          <note key="56" pos="960" pan="0" len="48" vol="100" />
          <note key="51" pos="1032" pan="0" len="24" vol="100" />
          <note key="56" pos="1056" pan="0" len="48" vol="100" />
          <note key="56" pos="1128" pan="0" len="24" vol="100" />
          <note key="61" pos="1152" pan="0" len="48" vol="100" />
          <note key="56" pos="1224" pan="0" len="24" vol="100" />
          <note key="61" pos="1248" pan="0" len="48" vol="100" />
          <note key="56" pos="1344" pan="0" len="48" vol="100" />
          <note key="58" pos="1488" pan="0" len="48" vol="100" />
        </pattern>
        <pattern pos="228876" muted="0" steps="16" name="" type="1">
          <note key="60" pos="0" pan="0" len="48" vol="100" />
          <note key="55" pos="72" pan="0" len="24" vol="100" />
          <note key="60" pos="96" pan="0" len="48" vol="100" />
          <note key="55" pos="168" pan="0" len="24" vol="100" />
          <note key="56" pos="192" pan="0" len="48" vol="100" />
          <note key="49" pos="264" pan="0" len="24" vol="100" />
          <note key="56" pos="288" pan="0" len="48" vol="100" />
          <note key="53" pos="360" pan="0" len="24" vol="100" />
          <note key="58" pos="384" pan="0" len="48" vol="100" />
          <note key="53" pos="456" pan="0" len="24" vol="100" />
          <note key="58" pos="480" pan="0" len="48" vol="100" />
          <note key="50" pos="552" pan="0" len="24" vol="100" />
          <note key="55" pos="576" pan="0" len="48" vol="100" />
          <note key="50" pos="648" pan="0" len="24" vol="100" />
          <note key="55" pos="672" pan="0" len="48" vol="100" />
          <note key="51" pos="744" pan="0" len="24" vol="100" />
          <note key="56" pos="768" pan="0" len="48" vol="100" />
          <note key="51" pos="840" pan="0" len="24" vol="100" />
          <note key="56" pos="864" pan="0" len="48" vol="100" />
          <note key="48" pos="936" pan="0" len="24" vol="100" />
          <note key="53" pos="960" pan="0" len="48" vol="100" />
          <note key="48" pos="1032" pan="0" len="24" vol="100" />
          <note key="53" pos="1056" pan="0" len="48" vol="100" />
          <note key="53" pos="1128" pan="0" len="24" vol="100" />
          <note key="58" pos="1152" pan="0" len="48" vol="100" />
          <note key="53" pos="1224" pan="0" len="24" vol="100" />
          <note key="58" pos="1248" pan="0" len="48" vol="100" />
          <note key="53" pos="1344" pan="0" len="48" vol="100" />
          <note key="51" pos="1440" pan="0" len="96" vol="100" />
        </pattern>
        <pattern pos="233484" muted="0" steps="16" name="" type="1">
          <note key="63" pos="0" pan="0" len="48" vol="100" />
          <note key="58" pos="72" pan="0" len="24" vol="100" />
          <note key="63" pos="96" pan="0" len="48" vol="100" />
          <note key="58" pos="168" pan="0" len="24" vol="100" />
          <note key="59" pos="192" pan="0" len="48" vol="100" />
          <note key="52" pos="264" pan="0" len="24" vol="100" />
          <note key="59" pos="288" pan="0" len="48" vol="100" />
          <note key="56" pos="360" pan="0" len="24" vol="100" />
          <note key="61" pos="384" pan="0" len="48" vol="100" />
          <note key="56" pos="456" pan="0" len="24" vol="100" />
          <note key="61" pos="480" pan="0" len="48" vol="100" />
          <note key="53" pos="552" pan="0" len="24" vol="100" />
          <note key="58" pos="576" pan="0" len="48" vol="100" />
          <note key="53" pos="648" pan="0" len="24" vol="100" />
          <note key="58" pos="672" pan="0" len="48" vol="100" />
          <note key="54" pos="744" pan="0" len="24" vol="100" />
          <note key="59" pos="768" pan="0" len="48" vol="100" />
          <note key="54" pos="840" pan="0" len="24" vol="100" />
          <note key="59" pos="864" pan="0" len="48" vol="100" />
          <note key="51" pos="936" pan="0" len="24" vol="100" />
          <note key="56" pos="960" pan="0" len="48" vol="100" />
          <note key="51" pos="1032" pan="0" len="24" vol="100" />
          <note key="56" pos="1056" pan="0" len="48" vol="100" />
          <note key="56" pos="1128" pan="0" len="24" vol="100" />
          <note key="61" pos="1152" pan="0" len="48" vol="100" />
          <note key="56" pos="1224" pan="0" len="24" vol="100" />
          <note key="61" pos="1248" pan="0" len="48" vol="100" />
          <note key="56" pos="1344" pan="0" len="48" vol="100" />
          <note key="51" pos="1416" pan="0" len="24" vol="100" />
          <note key="56" pos="1440" pan="0" len="48" vol="100" />
          <note key="51" pos="1488" pan="0" len="48" vol="100" />
        </pattern>
      </track>
      <track solo="0" name="19 (Ch10)" type="0" muted="0">
        <instrumenttrack usemasterpitch="1" pitch="0.0" basenote="57" pan="0" pitchrange="12" vol="30">
          <eldata />
          <instrument name="tripleoscillator" />
        </instrumenttrack>
        <pattern pos="52224" muted="0" steps="16" name="" type="1">
          <note key="57" pos="0" pan="0" len="24" vol="100" />
          <note key="57" pos="48" pan="0" len="24" vol="100" />
          <note key="57" pos="96" pan="0" len="24" vol="100" />
          <note key="57" pos="144" pan="0" len="24" vol="100" />
          <note key="59" pos="168" pan="0" len="24" vol="100" />
          <note key="60" pos="192" pan="0" len="24" vol="100" />
          <note key="60" pos="240" pan="0" len="24" vol="100" />
          <note key="60" pos="288" pan="0" len="24" vol="100" />
          <note key="60" pos="336" pan="0" len="24" vol="100" />
          <note key="64" pos="360" pan="0" len="24" vol="100" />
          <note key="58" pos="384" pan="0" len="24" vol="100" />
          <note key="58" pos="432" pan="0" len="24" vol="100" />
          <note key="58" pos="480" pan="0" len="24" vol="100" />
          <note key="58" pos="528" pan="0" len="24" vol="100" />
          <note key="55" pos="576" pan="0" len="24" vol="100" />
          <note key="55" pos="624" pan="0" len="24" vol="100" />
          <note key="55" pos="672" pan="0" len="24" vol="100" />
          <note key="55" pos="720" pan="0" len="24" vol="100" />
          <note key="57" pos="744" pan="0" len="24" vol="100" />
          <note key="58" pos="768" pan="0" len="24" vol="100" />
          <note key="58" pos="816" pan="0" len="24" vol="100" />
          <note key="58" pos="864" pan="0" len="24" vol="100" />
          <note key="58" pos="912" pan="0" len="24" vol="100" />
          <note key="61" pos="960" pan="0" len="24" vol="100" />
          <note key="61" pos="1008" pan="0" len="24" vol="100" />
          <note key="61" pos="1056" pan="0" len="24" vol="100" />
          <note key="61" pos="1104" pan="0" len="24" vol="100" />
          <note key="60" pos="1152" pan="0" len="24" vol="100" />
          <note key="60" pos="1200" pan="0" len="24" vol="100" />
          <note key="60" pos="1248" pan="0" len="24" vol="100" />
          <note key="60" pos="1296" pan="0" len="24" vol="100" />
          <note key="57" pos="1344" pan="0" len="24" vol="100" />
          <note key="57" pos="1392" pan="0" len="24" vol="100" />
          <note key="57" pos="1440" pan="0" len="24" vol="100" />
          <note key="57" pos="1488" pan="0" len="24" vol="100" />
        </pattern>
      </track>
      <track solo="0" name="19 (Ch16)" type="0" muted="0">
        <instrumenttrack usemasterpitch="1" pitch="0.0" basenote="57" pan="0" pitchrange="12" vol="30">
          <eldata />
          <instrument name="tripleoscillator" />
        </instrumenttrack>
        <pattern pos="104448" muted="0" steps="16" name="" type="1">
          <note key="62" pos="0" pan="0" len="48" vol="100" />
          <note key="60" pos="192" pan="0" len="48" vol="100" />
          <note key="58" pos="384" pan="0" len="48" vol="100" />
          <note key="60" pos="576" pan="0" len="48" vol="100" />
          <note key="62" pos="768" pan="0" len="48" vol="100" />
          <note key="60" pos="960" pan="0" len="48" vol="100" />
          <note key="58" pos="1152" pan="0" len="48" vol="100" />
          <note key="60" pos="1344" pan="0" len="48" vol="100" />
        </pattern>
        <pattern pos="101376" muted="0" steps="16" name="" type="1">
          <note key="62" pos="0" pan="0" len="48" vol="100" />
          <note key="60" pos="192" pan="0" len="48" vol="100" />
          <note key="58" pos="384" pan="0" len="48" vol="100" />
          <note key="60" pos="576" pan="0" len="48" vol="100" />
          <note key="62" pos="768" pan="0" len="48" vol="100" />
          <note key="60" pos="960" pan="0" len="48" vol="100" />
          <note key="58" pos="1152" pan="0" len="48" vol="100" />
          <note key="60" pos="1344" pan="0" len="48" vol="100" />
        </pattern>
      </track>
      <track solo="0" name="20 (Ch11)" type="0" muted="0">
        <instrumenttrack usemasterpitch="1" pitch="0.0" basenote="57" pan="0" pitchrange="12" vol="30">
          <eldata />
          <instrument name="tripleoscillator" />
        </instrumenttrack>
        <pattern pos="200460" muted="0" steps="16" name="" type="1">
          <note key="60" pos="168" pan="0" len="24" vol="100" />
          <note key="60" pos="192" pan="0" len="48" vol="100" />
        </pattern>
      </track>
      <track solo="0" name="20 (Ch14)" type="0" muted="0">
        <instrumenttrack usemasterpitch="1" pitch="0.0" basenote="57" pan="0" pitchrange="12" vol="30">
          <eldata />
          <instrument name="tripleoscillator" />
        </instrumenttrack>
        <pattern pos="240396" muted="0" steps="16" name="" type="1">
          <note key="55" pos="48" pan="0" len="96" vol="31" />
          <note key="55" pos="144" pan="0" len="96" vol="31" />
          <note key="55" pos="240" pan="0" len="96" vol="31" />
          <note key="55" pos="336" pan="0" len="96" vol="31" />
          <note key="55" pos="432" pan="0" len="96" vol="31" />
          <note key="55" pos="528" pan="0" len="96" vol="31" />
          <note key="55" pos="624" pan="0" len="96" vol="31" />
          <note key="55" pos="720" pan="0" len="96" vol="31" />
          <note key="55" pos="816" pan="0" len="96" vol="31" />
          <note key="55" pos="912" pan="0" len="96" vol="31" />
          <note key="55" pos="1008" pan="0" len="96" vol="31" />
          <note key="55" pos="1104" pan="0" len="96" vol="31" />
          <note key="55" pos="1200" pan="0" len="96" vol="31" />
          <note key="55" pos="1296" pan="0" len="96" vol="31" />
          <note key="55" pos="1392" pan="0" len="96" vol="31" />
          <note key="55" pos="1488" pan="0" len="48" vol="31" />
        </pattern>
        <pattern pos="194316" muted="0" steps="16" name="" type="1">
          <note key="60" pos="48" pan="0" len="24" vol="100" />
          <note key="60" pos="144" pan="0" len="24" vol="100" />
          <note key="60" pos="240" pan="0" len="24" vol="100" />
          <note key="60" pos="336" pan="0" len="24" vol="100" />
          <note key="60" pos="432" pan="0" len="24" vol="100" />
          <note key="60" pos="528" pan="0" len="24" vol="100" />
          <note key="60" pos="624" pan="0" len="24" vol="100" />
          <note key="60" pos="660" pan="0" len="24" vol="100" />
          <note key="60" pos="720" pan="0" len="24" vol="100" />
          <note key="60" pos="816" pan="0" len="24" vol="100" />
          <note key="60" pos="912" pan="0" len="24" vol="100" />
          <note key="60" pos="1008" pan="0" len="24" vol="100" />
          <note key="60" pos="1104" pan="0" len="24" vol="100" />
          <note key="60" pos="1200" pan="0" len="24" vol="100" />
          <note key="60" pos="1296" pan="0" len="24" vol="100" />
          <note key="60" pos="1392" pan="0" len="24" vol="100" />
          <note key="60" pos="1428" pan="0" len="24" vol="100" />
          <note key="60" pos="1488" pan="0" len="24" vol="100" />
        </pattern>
        <pattern pos="195852" muted="0" steps="16" name="" type="1">
          <note key="60" pos="48" pan="0" len="24" vol="100" />
          <note key="60" pos="144" pan="0" len="24" vol="100" />
          <note key="60" pos="240" pan="0" len="24" vol="100" />
          <note key="60" pos="336" pan="0" len="24" vol="100" />
          <note key="60" pos="432" pan="0" len="24" vol="100" />
          <note key="60" pos="528" pan="0" len="24" vol="100" />
          <note key="60" pos="624" pan="0" len="24" vol="100" />
          <note key="60" pos="660" pan="0" len="24" vol="100" />
          <note key="60" pos="720" pan="0" len="24" vol="100" />
          <note key="60" pos="816" pan="0" len="24" vol="100" />
          <note key="60" pos="912" pan="0" len="24" vol="100" />
          <note key="60" pos="1008" pan="0" len="24" vol="100" />
          <note key="60" pos="1104" pan="0" len="24" vol="100" />
          <note key="60" pos="1200" pan="0" len="24" vol="100" />
          <note key="60" pos="1296" pan="0" len="24" vol="100" />
          <note key="60" pos="1392" pan="0" len="24" vol="100" />
          <note key="60" pos="1428" pan="0" len="24" vol="100" />
          <note key="60" pos="1488" pan="0" len="24" vol="100" />
        </pattern>
        <pattern pos="197388" muted="0" steps="16" name="" type="1">
          <note key="60" pos="48" pan="0" len="24" vol="100" />
          <note key="60" pos="144" pan="0" len="24" vol="100" />
          <note key="60" pos="240" pan="0" len="24" vol="100" />
          <note key="60" pos="336" pan="0" len="24" vol="100" />
          <note key="60" pos="432" pan="0" len="24" vol="100" />
          <note key="60" pos="528" pan="0" len="24" vol="100" />
          <note key="60" pos="624" pan="0" len="24" vol="100" />
          <note key="60" pos="660" pan="0" len="24" vol="100" />
          <note key="60" pos="720" pan="0" len="24" vol="100" />
          <note key="60" pos="816" pan="0" len="24" vol="100" />
          <note key="60" pos="912" pan="0" len="24" vol="100" />
          <note key="60" pos="1008" pan="0" len="24" vol="100" />
          <note key="60" pos="1104" pan="0" len="24" vol="100" />
          <note key="60" pos="1200" pan="0" len="24" vol="100" />
          <note key="60" pos="1296" pan="0" len="24" vol="100" />
          <note key="60" pos="1392" pan="0" len="24" vol="100" />
          <note key="60" pos="1428" pan="0" len="24" vol="100" />
          <note key="60" pos="1488" pan="0" len="24" vol="100" />
        </pattern>
        <pattern pos="198924" muted="0" steps="16" name="" type="1">
          <note key="60" pos="48" pan="0" len="24" vol="100" />
          <note key="60" pos="144" pan="0" len="24" vol="100" />
          <note key="60" pos="240" pan="0" len="24" vol="100" />
          <note key="60" pos="336" pan="0" len="24" vol="100" />
          <note key="60" pos="432" pan="0" len="24" vol="100" />
          <note key="60" pos="528" pan="0" len="24" vol="100" />
          <note key="60" pos="624" pan="0" len="24" vol="100" />
          <note key="60" pos="660" pan="0" len="24" vol="100" />
          <note key="60" pos="720" pan="0" len="24" vol="100" />
          <note key="60" pos="816" pan="0" len="24" vol="100" />
          <note key="60" pos="912" pan="0" len="24" vol="100" />
          <note key="60" pos="1008" pan="0" len="24" vol="100" />
          <note key="60" pos="1104" pan="0" len="24" vol="100" />
          <note key="60" pos="1200" pan="0" len="24" vol="100" />
          <note key="60" pos="1296" pan="0" len="24" vol="100" />
          <note key="60" pos="1392" pan="0" len="24" vol="100" />
          <note key="60" pos="1428" pan="0" len="24" vol="100" />
          <note key="60" pos="1488" pan="0" len="24" vol="100" />
        </pattern>
      </track>
      <track solo="0" name="21 (Ch6)" type="0" muted="0">
        <instrumenttrack usemasterpitch="1" pitch="0.0" basenote="57" pan="0" pitchrange="12" vol="30">
          <eldata />
          <instrument name="tripleoscillator" />
        </instrumenttrack>
        <pattern pos="201228" muted="0" steps="16" name="" type="1">
          <note key="54" pos="0" pan="0" len="72" vol="100" />
        </pattern>
      </track>
      <track solo="0" name="21 (Ch7)" type="0" muted="0">
        <instrumenttrack usemasterpitch="1" pitch="0.0" basenote="57" pan="0" pitchrange="12" vol="30">
          <eldata />
          <instrument name="tripleoscillator" />
        </instrumenttrack>
        <pattern pos="29184" muted="0" steps="16" name="" type="1">
          <note key="48" pos="48" pan="0" len="336" vol="100" />
        </pattern>
        <pattern pos="16896" muted="0" steps="16" name="" type="1">
          <note key="67" pos="744" pan="0" len="12" vol="34" />
          <note key="60" pos="1500" pan="0" len="12" vol="34" />
        </pattern>
      </track>
      <track solo="0" name="21 (Ch20)" type="0" muted="0">
        <instrumenttrack usemasterpitch="1" pitch="0.0" basenote="57" pan="0" pitchrange="12" vol="30">
          <eldata />
          <instrument name="tripleoscillator" />
        </instrumenttrack>
        <pattern pos="27648" muted="0" steps="16" name="" type="1">
          <note key="51" pos="0" pan="0" len="48" vol="100" />
          <note key="51" pos="48" pan="0" len="48" vol="100" />
          <note key="51" pos="96" pan="0" len="48" vol="100" />
          <note key="51" pos="144" pan="0" len="24" vol="100" />
          <note key="58" pos="168" pan="0" len="24" vol="100" />
          <note key="51" pos="192" pan="0" len="48" vol="100" />
          <note key="53" pos="240" pan="0" len="48" vol="100" />
          <note key="58" pos="288" pan="0" len="48" vol="100" />
          <note key="58" pos="336" pan="0" len="48" vol="100" />
          <note key="55" pos="384" pan="0" len="48" vol="100" />
          <note key="55" pos="432" pan="0" len="48" vol="100" />
          <note key="55" pos="480" pan="0" len="48" vol="100" />
          <note key="55" pos="528" pan="0" len="24" vol="100" />
          <note key="58" pos="552" pan="0" len="24" vol="100" />
          <note key="53" pos="576" pan="0" len="48" vol="100" />
          <note key="53" pos="624" pan="0" len="48" vol="100" />
          <note key="53" pos="672" pan="0" len="48" vol="100" />
          <note key="50" pos="720" pan="0" len="48" vol="100" />
          <note key="51" pos="768" pan="0" len="48" vol="100" />
          <note key="51" pos="816" pan="0" len="48" vol="100" />
          <note key="51" pos="864" pan="0" len="48" vol="100" />
          <note key="51" pos="912" pan="0" len="24" vol="100" />
          <note key="58" pos="936" pan="0" len="24" vol="100" />
          <note key="51" pos="960" pan="0" len="48" vol="100" />
          <note key="53" pos="1008" pan="0" len="48" vol="100" />
          <note key="58" pos="1056" pan="0" len="48" vol="100" />
          <note key="58" pos="1104" pan="0" len="48" vol="100" />
          <note key="55" pos="1152" pan="0" len="48" vol="100" />
          <note key="55" pos="1200" pan="0" len="48" vol="100" />
          <note key="55" pos="1248" pan="0" len="48" vol="100" />
          <note key="55" pos="1296" pan="0" len="24" vol="100" />
          <note key="58" pos="1320" pan="0" len="24" vol="100" />
          <note key="53" pos="1344" pan="0" len="48" vol="100" />
          <note key="53" pos="1392" pan="0" len="48" vol="100" />
          <note key="53" pos="1440" pan="0" len="48" vol="100" />
          <note key="50" pos="1488" pan="0" len="48" vol="100" />
        </pattern>
        <pattern pos="18432" muted="0" steps="16" name="" type="1">
          <note key="55" pos="0" pan="0" len="24" vol="100" />
          <note key="55" pos="48" pan="0" len="24" vol="100" />
          <note key="58" pos="72" pan="0" len="24" vol="100" />
          <note key="55" pos="96" pan="0" len="24" vol="100" />
          <note key="55" pos="144" pan="0" len="24" vol="100" />
          <note key="58" pos="168" pan="0" len="24" vol="100" />
          <note key="55" pos="192" pan="0" len="24" vol="100" />
          <note key="55" pos="240" pan="0" len="24" vol="100" />
          <note key="55" pos="288" pan="0" len="24" vol="100" />
          <note key="55" pos="336" pan="0" len="24" vol="100" />
          <note key="58" pos="360" pan="0" len="24" vol="100" />
          <note key="58" pos="384" pan="0" len="24" vol="100" />
          <note key="58" pos="432" pan="0" len="24" vol="100" />
          <note key="62" pos="456" pan="0" len="24" vol="100" />
          <note key="58" pos="480" pan="0" len="24" vol="100" />
          <note key="58" pos="528" pan="0" len="24" vol="100" />
          <note key="62" pos="552" pan="0" len="24" vol="100" />
          <note key="50" pos="576" pan="0" len="24" vol="100" />
          <note key="50" pos="624" pan="0" len="24" vol="100" />
          <note key="53" pos="648" pan="0" len="24" vol="100" />
          <note key="50" pos="696" pan="0" len="24" vol="100" />
          <note key="53" pos="720" pan="0" len="24" vol="100" />
          <note key="55" pos="768" pan="0" len="24" vol="100" />
          <note key="55" pos="816" pan="0" len="24" vol="100" />
          <note key="58" pos="840" pan="0" len="24" vol="100" />
          <note key="55" pos="864" pan="0" len="24" vol="100" />
          <note key="55" pos="912" pan="0" len="24" vol="100" />
          <note key="58" pos="936" pan="0" len="24" vol="100" />
          <note key="55" pos="960" pan="0" len="24" vol="100" />
          <note key="55" pos="1008" pan="0" len="24" vol="100" />
          <note key="55" pos="1056" pan="0" len="24" vol="100" />
          <note key="55" pos="1104" pan="0" len="24" vol="100" />
          <note key="58" pos="1128" pan="0" len="24" vol="100" />
          <note key="58" pos="1152" pan="0" len="24" vol="100" />
          <note key="58" pos="1200" pan="0" len="24" vol="100" />
          <note key="62" pos="1224" pan="0" len="24" vol="100" />
          <note key="58" pos="1248" pan="0" len="24" vol="100" />
          <note key="58" pos="1296" pan="0" len="24" vol="100" />
          <note key="62" pos="1320" pan="0" len="24" vol="100" />
          <note key="50" pos="1344" pan="0" len="24" vol="100" />
          <note key="50" pos="1392" pan="0" len="24" vol="100" />
          <note key="53" pos="1416" pan="0" len="24" vol="100" />
          <note key="50" pos="1464" pan="0" len="24" vol="100" />
          <note key="53" pos="1488" pan="0" len="24" vol="100" />
        </pattern>
        <pattern pos="19968" muted="0" steps="16" name="" type="1">
          <note key="58" pos="0" pan="0" len="24" vol="100" />
          <note key="58" pos="48" pan="0" len="24" vol="100" />
          <note key="62" pos="72" pan="0" len="24" vol="100" />
          <note key="58" pos="96" pan="0" len="24" vol="100" />
          <note key="58" pos="144" pan="0" len="24" vol="100" />
          <note key="62" pos="168" pan="0" len="24" vol="100" />
          <note key="50" pos="192" pan="0" len="24" vol="100" />
          <note key="50" pos="240" pan="0" len="24" vol="100" />
          <note key="53" pos="264" pan="0" len="24" vol="100" />
          <note key="62" pos="288" pan="0" len="24" vol="100" />
          <note key="62" pos="336" pan="0" len="24" vol="100" />
          <note key="65" pos="360" pan="0" len="24" vol="100" />
          <note key="55" pos="384" pan="0" len="24" vol="100" />
          <note key="55" pos="432" pan="0" len="24" vol="100" />
          <note key="58" pos="456" pan="0" len="24" vol="100" />
          <note key="55" pos="480" pan="0" len="24" vol="100" />
          <note key="55" pos="528" pan="0" len="24" vol="100" />
          <note key="58" pos="552" pan="0" len="24" vol="100" />
          <note key="55" pos="576" pan="0" len="24" vol="100" />
          <note key="55" pos="624" pan="0" len="24" vol="100" />
          <note key="58" pos="648" pan="0" len="24" vol="100" />
          <note key="55" pos="672" pan="0" len="24" vol="100" />
          <note key="55" pos="720" pan="0" len="24" vol="100" />
          <note key="58" pos="744" pan="0" len="24" vol="100" />
          <note key="58" pos="768" pan="0" len="48" vol="100" />
          <note key="58" pos="816" pan="0" len="24" vol="100" />
          <note key="62" pos="840" pan="0" len="24" vol="100" />
          <note key="58" pos="864" pan="0" len="48" vol="100" />
          <note key="58" pos="912" pan="0" len="24" vol="100" />
          <note key="62" pos="936" pan="0" len="24" vol="100" />
          <note key="50" pos="960" pan="0" len="48" vol="100" />
          <note key="50" pos="1008" pan="0" len="24" vol="100" />
          <note key="53" pos="1032" pan="0" len="24" vol="100" />
          <note key="62" pos="1056" pan="0" len="48" vol="100" />
          <note key="62" pos="1104" pan="0" len="24" vol="100" />
          <note key="65" pos="1128" pan="0" len="24" vol="100" />
          <note key="55" pos="1152" pan="0" len="48" vol="100" />
          <note key="55" pos="1200" pan="0" len="24" vol="100" />
          <note key="58" pos="1224" pan="0" len="24" vol="100" />
          <note key="55" pos="1248" pan="0" len="48" vol="100" />
          <note key="55" pos="1296" pan="0" len="24" vol="100" />
          <note key="58" pos="1320" pan="0" len="24" vol="100" />
          <note key="55" pos="1344" pan="0" len="48" vol="100" />
          <note key="55" pos="1392" pan="0" len="24" vol="100" />
          <note key="58" pos="1416" pan="0" len="24" vol="100" />
          <note key="55" pos="1440" pan="0" len="48" vol="100" />
          <note key="55" pos="1488" pan="0" len="24" vol="100" />
          <note key="58" pos="1512" pan="0" len="24" vol="100" />
        </pattern>
        <pattern pos="21504" muted="0" steps="16" name="" type="1">
          <note key="46" pos="0" pan="0" len="48" vol="100" />
          <note key="58" pos="48" pan="0" len="48" vol="100" />
          <note key="46" pos="96" pan="0" len="48" vol="100" />
          <note key="58" pos="144" pan="0" len="48" vol="100" />
          <note key="46" pos="192" pan="0" len="48" vol="100" />
          <note key="58" pos="240" pan="0" len="48" vol="100" />
          <note key="46" pos="288" pan="0" len="48" vol="100" />
          <note key="60" pos="336" pan="0" len="24" vol="100" />
          <note key="61" pos="360" pan="0" len="24" vol="100" />
          <note key="42" pos="384" pan="0" len="48" vol="100" />
          <note key="54" pos="432" pan="0" len="48" vol="100" />
          <note key="42" pos="480" pan="0" len="48" vol="100" />
          <note key="54" pos="528" pan="0" len="48" vol="100" />
          <note key="39" pos="576" pan="0" len="48" vol="100" />
          <note key="51" pos="624" pan="0" len="48" vol="100" />
          <note key="41" pos="672" pan="0" len="48" vol="100" />
          <note key="44" pos="720" pan="0" len="48" vol="100" />
          <note key="46" pos="768" pan="0" len="48" vol="100" />
          <note key="58" pos="816" pan="0" len="48" vol="100" />
          <note key="46" pos="864" pan="0" len="48" vol="100" />
          <note key="58" pos="912" pan="0" len="48" vol="100" />
          <note key="46" pos="960" pan="0" len="48" vol="100" />
          <note key="58" pos="1008" pan="0" len="48" vol="100" />
          <note key="46" pos="1056" pan="0" len="48" vol="100" />
          <note key="60" pos="1104" pan="0" len="24" vol="100" />
          <note key="61" pos="1128" pan="0" len="24" vol="100" />
          <note key="42" pos="1152" pan="0" len="48" vol="100" />
          <note key="54" pos="1200" pan="0" len="48" vol="100" />
          <note key="42" pos="1248" pan="0" len="48" vol="100" />
          <note key="54" pos="1296" pan="0" len="48" vol="100" />
          <note key="39" pos="1344" pan="0" len="48" vol="100" />
          <note key="51" pos="1392" pan="0" len="48" vol="100" />
          <note key="41" pos="1440" pan="0" len="48" vol="100" />
          <note key="44" pos="1488" pan="0" len="48" vol="100" />
        </pattern>
        <pattern pos="23040" muted="0" steps="16" name="" type="1">
          <note key="46" pos="0" pan="0" len="48" vol="100" />
          <note key="58" pos="48" pan="0" len="48" vol="100" />
          <note key="46" pos="96" pan="0" len="48" vol="100" />
          <note key="58" pos="144" pan="0" len="48" vol="100" />
          <note key="46" pos="192" pan="0" len="48" vol="100" />
          <note key="58" pos="240" pan="0" len="48" vol="100" />
          <note key="46" pos="288" pan="0" len="48" vol="100" />
          <note key="60" pos="336" pan="0" len="24" vol="100" />
          <note key="61" pos="360" pan="0" len="24" vol="100" />
          <note key="42" pos="384" pan="0" len="48" vol="100" />
          <note key="54" pos="432" pan="0" len="48" vol="100" />
          <note key="42" pos="480" pan="0" len="48" vol="100" />
          <note key="54" pos="528" pan="0" len="48" vol="100" />
          <note key="39" pos="576" pan="0" len="48" vol="100" />
          <note key="51" pos="624" pan="0" len="48" vol="100" />
          <note key="41" pos="672" pan="0" len="48" vol="100" />
          <note key="44" pos="720" pan="0" len="48" vol="100" />
          <note key="46" pos="768" pan="0" len="48" vol="100" />
          <note key="58" pos="816" pan="0" len="48" vol="100" />
          <note key="46" pos="864" pan="0" len="48" vol="100" />
          <note key="58" pos="912" pan="0" len="48" vol="100" />
          <note key="46" pos="960" pan="0" len="48" vol="100" />
          <note key="58" pos="1008" pan="0" len="48" vol="100" />
          <note key="46" pos="1056" pan="0" len="48" vol="100" />
          <note key="60" pos="1104" pan="0" len="24" vol="100" />
          <note key="61" pos="1128" pan="0" len="24" vol="100" />
          <note key="42" pos="1152" pan="0" len="48" vol="100" />
          <note key="54" pos="1200" pan="0" len="48" vol="100" />
          <note key="42" pos="1248" pan="0" len="48" vol="100" />
          <note key="54" pos="1296" pan="0" len="48" vol="100" />
          <note key="39" pos="1344" pan="0" len="48" vol="100" />
          <note key="51" pos="1392" pan="0" len="48" vol="100" />
          <note key="41" pos="1440" pan="0" len="48" vol="100" />
          <note key="44" pos="1488" pan="0" len="48" vol="100" />
        </pattern>
        <pattern pos="24576" muted="0" steps="16" name="" type="1">
          <note key="48" pos="0" pan="0" len="48" vol="100" />
          <note key="60" pos="48" pan="0" len="48" vol="100" />
          <note key="48" pos="96" pan="0" len="48" vol="100" />
          <note key="60" pos="144" pan="0" len="48" vol="100" />
          <note key="48" pos="192" pan="0" len="24" vol="100" />
          <note key="48" pos="216" pan="0" len="24" vol="100" />
          <note key="60" pos="240" pan="0" len="48" vol="100" />
          <note key="48" pos="288" pan="0" len="48" vol="100" />
          <note key="62" pos="336" pan="0" len="24" vol="100" />
          <note key="63" pos="360" pan="0" len="24" vol="100" />
          <note key="44" pos="384" pan="0" len="48" vol="100" />
          <note key="56" pos="432" pan="0" len="48" vol="100" />
          <note key="44" pos="480" pan="0" len="24" vol="100" />
          <note key="44" pos="504" pan="0" len="24" vol="100" />
          <note key="56" pos="528" pan="0" len="48" vol="100" />
          <note key="44" pos="576" pan="0" len="48" vol="100" />
          <note key="56" pos="624" pan="0" len="48" vol="100" />
          <note key="46" pos="672" pan="0" len="48" vol="100" />
          <note key="58" pos="720" pan="0" len="48" vol="100" />
          <note key="48" pos="768" pan="0" len="48" vol="100" />
          <note key="60" pos="816" pan="0" len="48" vol="100" />
          <note key="48" pos="864" pan="0" len="48" vol="100" />
          <note key="60" pos="912" pan="0" len="48" vol="100" />
          <note key="48" pos="960" pan="0" len="48" vol="100" />
          <note key="60" pos="1008" pan="0" len="48" vol="100" />
          <note key="48" pos="1056" pan="0" len="48" vol="100" />
          <note key="62" pos="1104" pan="0" len="24" vol="100" />
          <note key="63" pos="1128" pan="0" len="24" vol="100" />
          <note key="44" pos="1152" pan="0" len="48" vol="100" />
          <note key="56" pos="1200" pan="0" len="48" vol="100" />
          <note key="44" pos="1248" pan="0" len="48" vol="100" />
          <note key="56" pos="1296" pan="0" len="48" vol="100" />
          <note key="44" pos="1344" pan="0" len="48" vol="100" />
          <note key="56" pos="1392" pan="0" len="48" vol="100" />
          <note key="46" pos="1440" pan="0" len="48" vol="100" />
          <note key="58" pos="1488" pan="0" len="48" vol="100" />
        </pattern>
        <pattern pos="26112" muted="0" steps="16" name="" type="1">
          <note key="53" pos="0" pan="0" len="48" vol="100" />
          <note key="53" pos="48" pan="0" len="48" vol="100" />
          <note key="53" pos="96" pan="0" len="48" vol="100" />
          <note key="53" pos="144" pan="0" len="24" vol="100" />
          <note key="51" pos="168" pan="0" len="24" vol="100" />
          <note key="53" pos="192" pan="0" len="48" vol="100" />
          <note key="53" pos="240" pan="0" len="48" vol="100" />
          <note key="53" pos="288" pan="0" len="48" vol="100" />
          <note key="53" pos="336" pan="0" len="24" vol="100" />
          <note key="51" pos="360" pan="0" len="24" vol="100" />
          <note key="56" pos="384" pan="0" len="48" vol="100" />
          <note key="56" pos="432" pan="0" len="48" vol="100" />
          <note key="56" pos="480" pan="0" len="48" vol="100" />
          <note key="56" pos="528" pan="0" len="24" vol="100" />
          <note key="51" pos="552" pan="0" len="24" vol="100" />
          <note key="58" pos="576" pan="0" len="48" vol="100" />
          <note key="58" pos="624" pan="0" len="48" vol="100" />
          <note key="58" pos="672" pan="0" len="48" vol="100" />
          <note key="51" pos="720" pan="0" len="48" vol="100" />
          <note key="53" pos="768" pan="0" len="48" vol="100" />
          <note key="53" pos="816" pan="0" len="48" vol="100" />
          <note key="53" pos="864" pan="0" len="48" vol="100" />
          <note key="53" pos="912" pan="0" len="24" vol="100" />
          <note key="51" pos="936" pan="0" len="24" vol="100" />
          <note key="53" pos="960" pan="0" len="48" vol="100" />
          <note key="53" pos="1008" pan="0" len="48" vol="100" />
          <note key="53" pos="1056" pan="0" len="48" vol="100" />
          <note key="53" pos="1104" pan="0" len="24" vol="100" />
          <note key="51" pos="1128" pan="0" len="24" vol="100" />
          <note key="56" pos="1152" pan="0" len="48" vol="100" />
          <note key="56" pos="1200" pan="0" len="48" vol="100" />
          <note key="56" pos="1248" pan="0" len="48" vol="100" />
          <note key="56" pos="1296" pan="0" len="24" vol="100" />
          <note key="51" pos="1320" pan="0" len="24" vol="100" />
          <note key="58" pos="1344" pan="0" len="48" vol="100" />
          <note key="58" pos="1392" pan="0" len="48" vol="100" />
          <note key="58" pos="1440" pan="0" len="48" vol="100" />
          <note key="56" pos="1488" pan="0" len="48" vol="100" />
        </pattern>
      </track>
      <track solo="0" name="22 (Ch6)" type="0" muted="0">
        <instrumenttrack usemasterpitch="1" pitch="0.0" basenote="57" pan="0" pitchrange="12" vol="30">
          <eldata />
          <instrument name="tripleoscillator" />
        </instrumenttrack>
        <pattern pos="29184" muted="0" steps="16" name="" type="1">
          <note key="60" pos="372" pan="0" len="12" vol="100" />
        </pattern>
      </track>
      <track solo="0" name="22 (Ch7)" type="0" muted="0">
        <instrumenttrack usemasterpitch="1" pitch="0.0" basenote="57" pan="0" pitchrange="12" vol="30">
          <eldata />
          <instrument name="tripleoscillator" />
        </instrumenttrack>
        <pattern pos="16896" muted="0" steps="16" name="" type="1">
          <note key="60" pos="756" pan="0" len="12" vol="69" />
          <note key="60" pos="1512" pan="0" len="12" vol="69" />
        </pattern>
      </track>
      <track solo="0" name="22 (Ch20)" type="0" muted="0">
        <instrumenttrack usemasterpitch="1" pitch="0.0" basenote="57" pan="0" pitchrange="12" vol="30">
          <eldata />
          <instrument name="tripleoscillator" />
        </instrumenttrack>
        <pattern pos="19968" muted="0" steps="16" name="" type="1">
          <note key="56" pos="24" pan="0" len="24" vol="100" />
          <note key="56" pos="120" pan="0" len="24" vol="100" />
          <note key="60" pos="216" pan="0" len="24" vol="100" />
          <note key="60" pos="312" pan="0" len="24" vol="100" />
          <note key="53" pos="408" pan="0" len="24" vol="100" />
          <note key="53" pos="504" pan="0" len="24" vol="100" />
          <note key="53" pos="600" pan="0" len="24" vol="100" />
          <note key="53" pos="696" pan="0" len="24" vol="100" />
        </pattern>
        <pattern pos="18432" muted="0" steps="16" name="" type="1">
          <note key="56" pos="24" pan="0" len="24" vol="100" />
          <note key="56" pos="120" pan="0" len="24" vol="100" />
          <note key="56" pos="216" pan="0" len="24" vol="100" />
          <note key="56" pos="264" pan="0" len="24" vol="100" />
          <note key="56" pos="312" pan="0" len="24" vol="100" />
          <note key="60" pos="408" pan="0" len="24" vol="100" />
          <note key="60" pos="504" pan="0" len="24" vol="100" />
          <note key="67" pos="600" pan="0" len="24" vol="100" />
          <note key="70" pos="672" pan="0" len="24" vol="100" />
          <note key="70" pos="744" pan="0" len="24" vol="100" />
          <note key="56" pos="792" pan="0" len="24" vol="100" />
          <note key="56" pos="888" pan="0" len="24" vol="100" />
          <note key="56" pos="984" pan="0" len="24" vol="100" />
          <note key="56" pos="1032" pan="0" len="24" vol="100" />
          <note key="56" pos="1080" pan="0" len="24" vol="100" />
          <note key="60" pos="1176" pan="0" len="24" vol="100" />
          <note key="60" pos="1272" pan="0" len="24" vol="100" />
          <note key="67" pos="1368" pan="0" len="24" vol="100" />
          <note key="70" pos="1440" pan="0" len="24" vol="100" />
          <note key="70" pos="1512" pan="0" len="24" vol="100" />
        </pattern>
      </track>
      <track solo="0" name="23 (Ch6)" type="0" muted="0">
        <instrumenttrack usemasterpitch="1" pitch="0.0" basenote="57" pan="0" pitchrange="12" vol="30">
          <eldata />
          <instrument name="tripleoscillator" />
        </instrumenttrack>
        <pattern pos="29184" muted="0" steps="16" name="" type="1">
          <note key="60" pos="384" pan="0" len="1152" vol="100" />
        </pattern>
      </track>
      <track solo="0" name="23 (Ch7)" type="0" muted="0">
        <instrumenttrack usemasterpitch="1" pitch="0.0" basenote="57" pan="0" pitchrange="12" vol="30">
          <eldata />
          <instrument name="tripleoscillator" />
        </instrumenttrack>
        <pattern pos="29184" muted="0" steps="16" name="" type="1">
          <note key="60" pos="0" pan="0" len="48" vol="100" />
        </pattern>
        <pattern pos="16896" muted="0" steps="16" name="" type="1">
          <note key="60" pos="768" pan="0" len="168" vol="100" />
          <note key="60" pos="936" pan="0" len="24" vol="34" />
          <note key="60" pos="960" pan="0" len="168" vol="100" />
          <note key="60" pos="1128" pan="0" len="24" vol="34" />
          <note key="60" pos="1152" pan="0" len="168" vol="100" />
          <note key="60" pos="1320" pan="0" len="24" vol="34" />
          <note key="60" pos="1344" pan="0" len="156" vol="100" />
          <note key="60" pos="1524" pan="0" len="12" vol="100" />
        </pattern>
        <pattern pos="18432" muted="0" steps="16" name="" type="1">
          <note key="60" pos="0" pan="0" len="36" vol="100" />
          <note key="60" pos="96" pan="0" len="48" vol="100" />
          <note key="60" pos="192" pan="0" len="36" vol="100" />
          <note key="60" pos="288" pan="0" len="48" vol="100" />
          <note key="60" pos="384" pan="0" len="36" vol="100" />
          <note key="60" pos="480" pan="0" len="48" vol="100" />
          <note key="60" pos="576" pan="0" len="36" vol="100" />
          <note key="60" pos="672" pan="0" len="24" vol="100" />
          <note key="60" pos="768" pan="0" len="36" vol="100" />
          <note key="60" pos="864" pan="0" len="48" vol="100" />
          <note key="60" pos="960" pan="0" len="36" vol="100" />
          <note key="60" pos="1056" pan="0" len="48" vol="100" />
          <note key="60" pos="1152" pan="0" len="36" vol="100" />
          <note key="60" pos="1248" pan="0" len="48" vol="100" />
          <note key="60" pos="1344" pan="0" len="36" vol="100" />
          <note key="60" pos="1440" pan="0" len="48" vol="100" />
        </pattern>
        <pattern pos="19968" muted="0" steps="16" name="" type="1">
          <note key="60" pos="0" pan="0" len="36" vol="100" />
          <note key="60" pos="96" pan="0" len="48" vol="100" />
          <note key="60" pos="192" pan="0" len="36" vol="100" />
          <note key="60" pos="288" pan="0" len="48" vol="100" />
          <note key="60" pos="384" pan="0" len="36" vol="100" />
          <note key="60" pos="480" pan="0" len="48" vol="100" />
          <note key="60" pos="576" pan="0" len="36" vol="100" />
          <note key="60" pos="672" pan="0" len="48" vol="100" />
          <note key="60" pos="768" pan="0" len="36" vol="100" />
          <note key="60" pos="864" pan="0" len="48" vol="100" />
          <note key="60" pos="960" pan="0" len="36" vol="100" />
          <note key="60" pos="1056" pan="0" len="48" vol="100" />
          <note key="60" pos="1152" pan="0" len="36" vol="100" />
          <note key="60" pos="1248" pan="0" len="48" vol="100" />
          <note key="60" pos="1344" pan="0" len="36" vol="100" />
          <note key="60" pos="1440" pan="0" len="48" vol="100" />
        </pattern>
      </track>
      <track solo="0" name="24 (Ch6)" type="0" muted="0">
        <instrumenttrack usemasterpitch="1" pitch="0.0" basenote="57" pan="0" pitchrange="12" vol="30">
          <eldata />
          <instrument name="tripleoscillator" />
        </instrumenttrack>
        <pattern pos="29184" muted="0" steps="16" name="" type="1">
          <note key="60" pos="36" pan="0" len="12" vol="100" />
          <note key="60" pos="360" pan="0" len="12" vol="34" />
        </pattern>
      </track>
      <track solo="0" name="24 (Ch7)" type="0" muted="0">
        <instrumenttrack usemasterpitch="1" pitch="0.0" basenote="57" pan="0" pitchrange="12" vol="30">
          <eldata />
          <instrument name="tripleoscillator" />
        </instrumenttrack>
        <pattern pos="19968" muted="0" steps="16" name="" type="1">
          <note key="60" pos="48" pan="0" len="48" vol="100" />
          <note key="60" pos="144" pan="0" len="24" vol="100" />
          <note key="60" pos="240" pan="0" len="48" vol="100" />
          <note key="60" pos="336" pan="0" len="24" vol="100" />
          <note key="60" pos="432" pan="0" len="48" vol="100" />
          <note key="60" pos="528" pan="0" len="24" vol="100" />
          <note key="60" pos="624" pan="0" len="48" vol="100" />
          <note key="60" pos="720" pan="0" len="24" vol="100" />
          <note key="60" pos="816" pan="0" len="48" vol="100" />
          <note key="60" pos="912" pan="0" len="24" vol="100" />
          <note key="60" pos="1008" pan="0" len="48" vol="100" />
          <note key="60" pos="1104" pan="0" len="24" vol="100" />
          <note key="60" pos="1200" pan="0" len="48" vol="100" />
          <note key="60" pos="1296" pan="0" len="24" vol="100" />
          <note key="60" pos="1392" pan="0" len="48" vol="100" />
          <note key="60" pos="1488" pan="0" len="12" vol="100" />
          <note key="60" pos="1500" pan="0" len="12" vol="100" />
        </pattern>
        <pattern pos="18432" muted="0" steps="16" name="" type="1">
          <note key="60" pos="48" pan="0" len="48" vol="100" />
          <note key="60" pos="144" pan="0" len="24" vol="100" />
          <note key="60" pos="240" pan="0" len="48" vol="100" />
          <note key="60" pos="336" pan="0" len="24" vol="100" />
          <note key="60" pos="432" pan="0" len="48" vol="100" />
          <note key="60" pos="528" pan="0" len="24" vol="100" />
          <note key="60" pos="624" pan="0" len="48" vol="100" />
          <note key="60" pos="720" pan="0" len="24" vol="100" />
          <note key="60" pos="816" pan="0" len="48" vol="100" />
          <note key="60" pos="912" pan="0" len="24" vol="100" />
          <note key="60" pos="1008" pan="0" len="48" vol="100" />
          <note key="60" pos="1104" pan="0" len="24" vol="100" />
          <note key="60" pos="1200" pan="0" len="48" vol="100" />
          <note key="60" pos="1296" pan="0" len="24" vol="100" />
          <note key="60" pos="1392" pan="0" len="48" vol="100" />
          <note key="60" pos="1488" pan="0" len="24" vol="100" />
        </pattern>
      </track>
      <track solo="0" name="24 (Ch8)" type="0" muted="0">
        <instrumenttrack usemasterpitch="1" pitch="0.0" basenote="57" pan="0" pitchrange="12" vol="30">
          <eldata />
          <instrument name="tripleoscillator" />
        </instrumenttrack>
        <pattern pos="24576" muted="0" steps="16" name="" type="1">
          <note key="60" pos="36" pan="0" len="12" vol="34" />
          <note key="60" pos="120" pan="0" len="24" vol="34" />
          <note key="60" pos="228" pan="0" len="12" vol="34" />
          <note key="60" pos="312" pan="0" len="24" vol="34" />
          <note key="60" pos="420" pan="0" len="12" vol="34" />
          <note key="60" pos="504" pan="0" len="24" vol="34" />
          <note key="60" pos="612" pan="0" len="12" vol="34" />
          <note key="60" pos="696" pan="0" len="24" vol="34" />
          <note key="60" pos="804" pan="0" len="12" vol="34" />
          <note key="60" pos="888" pan="0" len="24" vol="34" />
          <note key="60" pos="996" pan="0" len="12" vol="34" />
          <note key="60" pos="1080" pan="0" len="24" vol="34" />
          <note key="60" pos="1188" pan="0" len="12" vol="34" />
          <note key="60" pos="1272" pan="0" len="24" vol="34" />
          <note key="60" pos="1380" pan="0" len="12" vol="34" />
          <note key="60" pos="1464" pan="0" len="24" vol="34" />
        </pattern>
        <pattern pos="21504" muted="0" steps="16" name="" type="1">
          <note key="60" pos="1452" pan="0" len="24" vol="34" />
        </pattern>
        <pattern pos="23040" muted="0" steps="16" name="" type="1">
          <note key="60" pos="36" pan="0" len="12" vol="34" />
          <note key="60" pos="120" pan="0" len="24" vol="34" />
          <note key="60" pos="228" pan="0" len="12" vol="34" />
          <note key="60" pos="312" pan="0" len="24" vol="34" />
          <note key="60" pos="420" pan="0" len="12" vol="34" />
          <note key="60" pos="504" pan="0" len="24" vol="34" />
          <note key="60" pos="612" pan="0" len="12" vol="34" />
          <note key="60" pos="696" pan="0" len="24" vol="34" />
          <note key="60" pos="804" pan="0" len="12" vol="34" />
          <note key="60" pos="888" pan="0" len="24" vol="34" />
          <note key="60" pos="996" pan="0" len="12" vol="34" />
          <note key="60" pos="1080" pan="0" len="24" vol="34" />
          <note key="60" pos="1188" pan="0" len="12" vol="34" />
          <note key="60" pos="1272" pan="0" len="24" vol="34" />
          <note key="60" pos="1380" pan="0" len="12" vol="34" />
          <note key="60" pos="1464" pan="0" len="24" vol="34" />
        </pattern>
      </track>
      <track solo="0" name="25 (Ch6)" type="0" muted="0">
        <instrumenttrack usemasterpitch="1" pitch="0.0" basenote="57" pan="0" pitchrange="12" vol="30">
          <eldata />
          <instrument name="tripleoscillator" />
        </instrumenttrack>
        <pattern pos="29184" muted="0" steps="16" name="" type="1">
          <note key="60" pos="24" pan="0" len="12" vol="69" />
        </pattern>
      </track>
      <track solo="0" name="25 (Ch7)" type="0" muted="0">
        <instrumenttrack usemasterpitch="1" pitch="0.0" basenote="57" pan="0" pitchrange="12" vol="30">
          <eldata />
          <instrument name="tripleoscillator" />
        </instrumenttrack>
        <pattern pos="19968" muted="0" steps="16" name="" type="1">
          <note key="60" pos="36" pan="0" len="12" vol="34" />
          <note key="60" pos="168" pan="0" len="24" vol="34" />
          <note key="60" pos="228" pan="0" len="12" vol="34" />
          <note key="60" pos="360" pan="0" len="24" vol="34" />
          <note key="60" pos="420" pan="0" len="12" vol="34" />
          <note key="60" pos="552" pan="0" len="24" vol="34" />
          <note key="60" pos="612" pan="0" len="12" vol="34" />
          <note key="60" pos="744" pan="0" len="24" vol="34" />
          <note key="60" pos="804" pan="0" len="12" vol="34" />
          <note key="60" pos="936" pan="0" len="24" vol="34" />
          <note key="60" pos="996" pan="0" len="12" vol="34" />
          <note key="60" pos="1128" pan="0" len="24" vol="34" />
          <note key="60" pos="1188" pan="0" len="12" vol="34" />
          <note key="60" pos="1320" pan="0" len="24" vol="34" />
          <note key="60" pos="1380" pan="0" len="12" vol="34" />
          <note key="60" pos="1512" pan="0" len="24" vol="34" />
        </pattern>
        <pattern pos="18432" muted="0" steps="16" name="" type="1">
          <note key="60" pos="36" pan="0" len="12" vol="34" />
          <note key="60" pos="168" pan="0" len="24" vol="34" />
          <note key="60" pos="228" pan="0" len="12" vol="34" />
          <note key="60" pos="360" pan="0" len="24" vol="34" />
          <note key="60" pos="420" pan="0" len="12" vol="34" />
          <note key="60" pos="552" pan="0" len="24" vol="34" />
          <note key="60" pos="612" pan="0" len="12" vol="34" />
          <note key="60" pos="744" pan="0" len="24" vol="34" />
          <note key="60" pos="804" pan="0" len="12" vol="34" />
          <note key="60" pos="936" pan="0" len="24" vol="34" />
          <note key="60" pos="996" pan="0" len="12" vol="34" />
          <note key="60" pos="1128" pan="0" len="24" vol="34" />
          <note key="60" pos="1188" pan="0" len="12" vol="34" />
          <note key="60" pos="1320" pan="0" len="24" vol="34" />
          <note key="60" pos="1380" pan="0" len="12" vol="34" />
          <note key="60" pos="1512" pan="0" len="24" vol="34" />
        </pattern>
      </track>
      <track solo="0" name="25 (Ch8)" type="0" muted="0">
        <instrumenttrack usemasterpitch="1" pitch="0.0" basenote="57" pan="0" pitchrange="12" vol="30">
          <eldata />
          <instrument name="tripleoscillator" />
        </instrumenttrack>
        <pattern pos="24576" muted="0" steps="16" name="" type="1">
          <note key="60" pos="48" pan="0" len="72" vol="100" />
          <note key="60" pos="240" pan="0" len="72" vol="100" />
          <note key="60" pos="432" pan="0" len="72" vol="100" />
          <note key="60" pos="624" pan="0" len="72" vol="100" />
          <note key="60" pos="816" pan="0" len="72" vol="100" />
          <note key="60" pos="1008" pan="0" len="72" vol="100" />
          <note key="60" pos="1200" pan="0" len="72" vol="100" />
          <note key="60" pos="1392" pan="0" len="72" vol="100" />
        </pattern>
        <pattern pos="23040" muted="0" steps="16" name="" type="1">
          <note key="60" pos="48" pan="0" len="72" vol="100" />
          <note key="60" pos="240" pan="0" len="72" vol="100" />
          <note key="60" pos="432" pan="0" len="72" vol="100" />
          <note key="60" pos="624" pan="0" len="72" vol="100" />
          <note key="60" pos="816" pan="0" len="72" vol="100" />
          <note key="60" pos="1008" pan="0" len="72" vol="100" />
          <note key="60" pos="1200" pan="0" len="72" vol="100" />
          <note key="60" pos="1392" pan="0" len="72" vol="100" />
        </pattern>
      </track>
      <track solo="0" name="26 (Ch6)" type="0" muted="0">
        <instrumenttrack usemasterpitch="1" pitch="0.0" basenote="57" pan="0" pitchrange="12" vol="30">
          <eldata />
          <instrument name="tripleoscillator" />
        </instrumenttrack>
        <pattern pos="29184" muted="0" steps="16" name="" type="1">
          <note key="60" pos="12" pan="0" len="12" vol="34" />
        </pattern>
      </track>
      <track solo="0" name="26 (Ch7)" type="0" muted="0">
        <instrumenttrack usemasterpitch="1" pitch="0.0" basenote="57" pan="0" pitchrange="12" vol="30">
          <eldata />
          <instrument name="tripleoscillator" />
        </instrumenttrack>
        <pattern pos="18432" muted="0" steps="16" name="" type="1">
          <note key="60" pos="696" pan="0" len="24" vol="100" />
        </pattern>
      </track>
      <track solo="0" name="26 (Ch8)" type="0" muted="0">
        <instrumenttrack usemasterpitch="1" pitch="0.0" basenote="57" pan="0" pitchrange="12" vol="30">
          <eldata />
          <instrument name="tripleoscillator" />
        </instrumenttrack>
        <pattern pos="24576" muted="0" steps="16" name="" type="1">
          <note key="60" pos="144" pan="0" len="48" vol="100" />
          <note key="60" pos="336" pan="0" len="48" vol="100" />
          <note key="60" pos="528" pan="0" len="48" vol="100" />
          <note key="60" pos="720" pan="0" len="36" vol="100" />
          <note key="60" pos="912" pan="0" len="48" vol="100" />
          <note key="60" pos="1104" pan="0" len="48" vol="100" />
          <note key="60" pos="1296" pan="0" len="48" vol="100" />
          <note key="60" pos="1488" pan="0" len="48" vol="100" />
        </pattern>
        <pattern pos="21504" muted="0" steps="16" name="" type="1">
          <note key="60" pos="1476" pan="0" len="60" vol="100" />
        </pattern>
        <pattern pos="23040" muted="0" steps="16" name="" type="1">
          <note key="60" pos="144" pan="0" len="48" vol="100" />
          <note key="60" pos="336" pan="0" len="48" vol="100" />
          <note key="60" pos="528" pan="0" len="48" vol="100" />
          <note key="60" pos="720" pan="0" len="48" vol="100" />
          <note key="60" pos="912" pan="0" len="48" vol="100" />
          <note key="60" pos="1104" pan="0" len="48" vol="100" />
          <note key="60" pos="1296" pan="0" len="48" vol="100" />
          <note key="60" pos="1488" pan="0" len="48" vol="100" />
        </pattern>
      </track>
      <track solo="0" name="26 (Ch19)" type="0" muted="0">
        <instrumenttrack usemasterpitch="1" pitch="0.0" basenote="57" pan="0" pitchrange="12" vol="30">
          <eldata />
          <instrument name="tripleoscillator" />
        </instrumenttrack>
        <pattern pos="27648" muted="0" steps="16" name="" type="1">
          <note key="64" pos="0" pan="0" len="12" vol="100" />
          <note key="65" pos="24" pan="0" len="12" vol="100" />
          <note key="65" pos="60" pan="0" len="12" vol="34" />
          <note key="65" pos="84" pan="0" len="12" vol="100" />
          <note key="65" pos="132" pan="0" len="12" vol="100" />
          <note key="62" pos="156" pan="0" len="12" vol="100" />
          <note key="65" pos="180" pan="0" len="12" vol="100" />
          <note key="64" pos="192" pan="0" len="12" vol="100" />
          <note key="65" pos="216" pan="0" len="12" vol="100" />
          <note key="65" pos="252" pan="0" len="12" vol="34" />
          <note key="65" pos="276" pan="0" len="12" vol="100" />
          <note key="65" pos="324" pan="0" len="12" vol="100" />
          <note key="62" pos="348" pan="0" len="12" vol="100" />
          <note key="65" pos="372" pan="0" len="12" vol="100" />
          <note key="64" pos="384" pan="0" len="12" vol="100" />
          <note key="65" pos="408" pan="0" len="12" vol="100" />
          <note key="65" pos="444" pan="0" len="12" vol="34" />
          <note key="65" pos="468" pan="0" len="12" vol="100" />
          <note key="65" pos="516" pan="0" len="12" vol="100" />
          <note key="62" pos="540" pan="0" len="12" vol="100" />
          <note key="65" pos="564" pan="0" len="12" vol="100" />
          <note key="64" pos="576" pan="0" len="12" vol="100" />
          <note key="65" pos="600" pan="0" len="12" vol="100" />
          <note key="65" pos="636" pan="0" len="12" vol="34" />
          <note key="65" pos="660" pan="0" len="12" vol="100" />
          <note key="65" pos="708" pan="0" len="12" vol="100" />
          <note key="62" pos="732" pan="0" len="12" vol="100" />
          <note key="65" pos="756" pan="0" len="12" vol="100" />
          <note key="64" pos="768" pan="0" len="12" vol="100" />
          <note key="65" pos="792" pan="0" len="12" vol="100" />
          <note key="65" pos="828" pan="0" len="12" vol="34" />
          <note key="65" pos="852" pan="0" len="12" vol="100" />
          <note key="65" pos="900" pan="0" len="12" vol="100" />
          <note key="62" pos="924" pan="0" len="12" vol="100" />
          <note key="65" pos="948" pan="0" len="12" vol="100" />
          <note key="64" pos="960" pan="0" len="12" vol="100" />
          <note key="65" pos="984" pan="0" len="12" vol="100" />
          <note key="65" pos="1020" pan="0" len="12" vol="34" />
          <note key="65" pos="1044" pan="0" len="12" vol="100" />
          <note key="65" pos="1092" pan="0" len="12" vol="100" />
          <note key="62" pos="1116" pan="0" len="12" vol="100" />
          <note key="65" pos="1140" pan="0" len="12" vol="100" />
          <note key="64" pos="1152" pan="0" len="12" vol="100" />
          <note key="65" pos="1176" pan="0" len="12" vol="100" />
          <note key="65" pos="1212" pan="0" len="12" vol="34" />
          <note key="65" pos="1236" pan="0" len="12" vol="100" />
          <note key="65" pos="1284" pan="0" len="12" vol="100" />
          <note key="62" pos="1308" pan="0" len="12" vol="100" />
          <note key="65" pos="1332" pan="0" len="12" vol="100" />
          <note key="64" pos="1344" pan="0" len="12" vol="100" />
          <note key="65" pos="1368" pan="0" len="12" vol="100" />
          <note key="65" pos="1404" pan="0" len="12" vol="34" />
          <note key="65" pos="1428" pan="0" len="12" vol="100" />
          <note key="65" pos="1476" pan="0" len="12" vol="100" />
          <note key="62" pos="1500" pan="0" len="12" vol="100" />
          <note key="65" pos="1524" pan="0" len="12" vol="100" />
        </pattern>
      </track>
      <track solo="0" name="27 (Ch11)" type="0" muted="0">
        <instrumenttrack usemasterpitch="1" pitch="0.0" basenote="57" pan="0" pitchrange="12" vol="30">
          <eldata />
          <instrument name="tripleoscillator" />
        </instrumenttrack>
        <pattern pos="110592" muted="0" steps="16" name="" type="1">
          <note key="64" pos="0" pan="0" len="48" vol="100" />
          <note key="64" pos="336" pan="0" len="48" vol="31" />
          <note key="64" pos="384" pan="0" len="48" vol="100" />
          <note key="64" pos="768" pan="0" len="48" vol="100" />
          <note key="64" pos="1104" pan="0" len="48" vol="31" />
          <note key="64" pos="1152" pan="0" len="48" vol="100" />
          <note key="64" pos="1536" pan="0" len="48" vol="100" />
          <note key="64" pos="1872" pan="0" len="48" vol="31" />
          <note key="64" pos="1920" pan="0" len="48" vol="100" />
          <note key="64" pos="2304" pan="0" len="48" vol="100" />
          <note key="64" pos="2640" pan="0" len="48" vol="31" />
          <note key="64" pos="2688" pan="0" len="48" vol="100" />
        </pattern>
        <pattern pos="92160" muted="0" steps="16" name="" type="1">
          <note key="64" pos="0" pan="0" len="48" vol="100" />
          <note key="64" pos="336" pan="0" len="48" vol="31" />
          <note key="64" pos="384" pan="0" len="48" vol="100" />
          <note key="64" pos="768" pan="0" len="48" vol="100" />
          <note key="64" pos="1104" pan="0" len="48" vol="31" />
          <note key="64" pos="1152" pan="0" len="48" vol="100" />
          <note key="64" pos="1536" pan="0" len="48" vol="100" />
          <note key="64" pos="1872" pan="0" len="48" vol="31" />
          <note key="64" pos="1920" pan="0" len="48" vol="100" />
          <note key="64" pos="2304" pan="0" len="48" vol="100" />
          <note key="64" pos="2640" pan="0" len="48" vol="31" />
          <note key="64" pos="2688" pan="0" len="48" vol="100" />
        </pattern>
        <pattern pos="95232" muted="0" steps="16" name="" type="1">
          <note key="64" pos="0" pan="0" len="48" vol="100" />
          <note key="64" pos="336" pan="0" len="48" vol="31" />
          <note key="64" pos="384" pan="0" len="48" vol="100" />
          <note key="64" pos="768" pan="0" len="48" vol="100" />
          <note key="64" pos="1104" pan="0" len="48" vol="31" />
          <note key="64" pos="1152" pan="0" len="48" vol="100" />
          <note key="64" pos="1536" pan="0" len="48" vol="100" />
          <note key="64" pos="1872" pan="0" len="48" vol="31" />
          <note key="64" pos="1920" pan="0" len="48" vol="100" />
        </pattern>
      </track>
      <track solo="0" name="27 (Ch14)" type="0" muted="0">
        <instrumenttrack usemasterpitch="1" pitch="0.0" basenote="57" pan="0" pitchrange="12" vol="30">
          <eldata />
          <instrument name="tripleoscillator" />
        </instrumenttrack>
        <pattern pos="198924" muted="0" steps="16" name="" type="1">
          <note key="62" pos="12" pan="0" len="12" vol="100" />
          <note key="62" pos="204" pan="0" len="12" vol="100" />
          <note key="62" pos="396" pan="0" len="12" vol="100" />
          <note key="62" pos="588" pan="0" len="12" vol="100" />
          <note key="62" pos="780" pan="0" len="12" vol="100" />
          <note key="62" pos="972" pan="0" len="12" vol="100" />
          <note key="62" pos="1164" pan="0" len="12" vol="100" />
          <note key="62" pos="1356" pan="0" len="12" vol="100" />
        </pattern>
        <pattern pos="192780" muted="0" steps="16" name="" type="1">
          <note key="62" pos="12" pan="0" len="12" vol="100" />
          <note key="62" pos="204" pan="0" len="12" vol="100" />
          <note key="62" pos="396" pan="0" len="12" vol="100" />
          <note key="62" pos="588" pan="0" len="12" vol="100" />
          <note key="62" pos="780" pan="0" len="12" vol="100" />
          <note key="62" pos="972" pan="0" len="12" vol="100" />
          <note key="62" pos="1164" pan="0" len="12" vol="100" />
          <note key="62" pos="1356" pan="0" len="12" vol="100" />
        </pattern>
        <pattern pos="194316" muted="0" steps="16" name="" type="1">
          <note key="62" pos="12" pan="0" len="12" vol="100" />
          <note key="62" pos="204" pan="0" len="12" vol="100" />
          <note key="62" pos="396" pan="0" len="12" vol="100" />
          <note key="62" pos="588" pan="0" len="12" vol="100" />
          <note key="62" pos="780" pan="0" len="12" vol="100" />
          <note key="62" pos="972" pan="0" len="12" vol="100" />
          <note key="62" pos="1164" pan="0" len="12" vol="100" />
          <note key="62" pos="1356" pan="0" len="12" vol="100" />
        </pattern>
        <pattern pos="195852" muted="0" steps="16" name="" type="1">
          <note key="62" pos="12" pan="0" len="12" vol="100" />
          <note key="62" pos="204" pan="0" len="12" vol="100" />
          <note key="62" pos="396" pan="0" len="12" vol="100" />
          <note key="62" pos="588" pan="0" len="12" vol="100" />
          <note key="62" pos="780" pan="0" len="12" vol="100" />
          <note key="62" pos="972" pan="0" len="12" vol="100" />
          <note key="62" pos="1164" pan="0" len="12" vol="100" />
          <note key="62" pos="1356" pan="0" len="12" vol="100" />
        </pattern>
        <pattern pos="197388" muted="0" steps="16" name="" type="1">
          <note key="62" pos="12" pan="0" len="12" vol="100" />
          <note key="62" pos="204" pan="0" len="12" vol="100" />
          <note key="62" pos="396" pan="0" len="12" vol="100" />
          <note key="62" pos="588" pan="0" len="12" vol="100" />
          <note key="62" pos="780" pan="0" len="12" vol="100" />
          <note key="62" pos="972" pan="0" len="12" vol="100" />
          <note key="62" pos="1164" pan="0" len="12" vol="100" />
          <note key="62" pos="1356" pan="0" len="12" vol="100" />
        </pattern>
      </track>
      <track solo="0" name="27 (Ch15)" type="0" muted="0">
        <instrumenttrack usemasterpitch="1" pitch="0.0" basenote="57" pan="0" pitchrange="12" vol="30">
          <eldata />
          <instrument name="tripleoscillator" />
        </instrumenttrack>
        <pattern pos="99840" muted="0" steps="16" name="" type="1">
          <note key="64" pos="0" pan="0" len="48" vol="100" />
          <note key="64" pos="336" pan="0" len="48" vol="31" />
          <note key="64" pos="384" pan="0" len="48" vol="100" />
          <note key="64" pos="768" pan="0" len="48" vol="100" />
          <note key="64" pos="1104" pan="0" len="48" vol="31" />
          <note key="64" pos="1152" pan="0" len="48" vol="100" />
        </pattern>
        <pattern pos="97536" muted="0" steps="16" name="" type="1">
          <note key="64" pos="0" pan="0" len="48" vol="100" />
          <note key="64" pos="336" pan="0" len="48" vol="31" />
          <note key="64" pos="384" pan="0" len="48" vol="100" />
        </pattern>
        <pattern pos="98304" muted="0" steps="16" name="" type="1">
          <note key="64" pos="0" pan="0" len="48" vol="100" />
          <note key="64" pos="336" pan="0" len="48" vol="31" />
          <note key="64" pos="384" pan="0" len="48" vol="100" />
          <note key="64" pos="768" pan="0" len="48" vol="100" />
          <note key="64" pos="1104" pan="0" len="48" vol="31" />
          <note key="64" pos="1152" pan="0" len="48" vol="100" />
        </pattern>
      </track>
      <track solo="0" name="27 (Ch18)" type="0" muted="0">
        <instrumenttrack usemasterpitch="1" pitch="0.0" basenote="57" pan="0" pitchrange="12" vol="30">
          <eldata />
          <instrument name="tripleoscillator" />
        </instrumenttrack>
        <pattern pos="99840" muted="0" steps="16" name="" type="1">
          <note key="64" pos="24" pan="0" len="48" vol="50" />
          <note key="64" pos="360" pan="0" len="48" vol="16" />
          <note key="64" pos="408" pan="0" len="48" vol="50" />
          <note key="64" pos="792" pan="0" len="48" vol="50" />
          <note key="64" pos="1128" pan="0" len="48" vol="16" />
          <note key="64" pos="1176" pan="0" len="48" vol="50" />
        </pattern>
        <pattern pos="98304" muted="0" steps="16" name="" type="1">
          <note key="64" pos="24" pan="0" len="48" vol="50" />
          <note key="64" pos="360" pan="0" len="48" vol="16" />
          <note key="64" pos="408" pan="0" len="48" vol="50" />
          <note key="64" pos="792" pan="0" len="48" vol="50" />
          <note key="64" pos="1128" pan="0" len="48" vol="16" />
          <note key="64" pos="1176" pan="0" len="48" vol="50" />
        </pattern>
      </track>
      <track solo="0" name="28 (Ch11)" type="0" muted="0">
        <instrumenttrack usemasterpitch="1" pitch="0.0" basenote="57" pan="0" pitchrange="12" vol="30">
          <eldata />
          <instrument name="tripleoscillator" />
        </instrumenttrack>
        <pattern pos="110592" muted="0" steps="16" name="" type="1">
          <note key="64" pos="48" pan="0" len="24" vol="31" />
          <note key="64" pos="720" pan="0" len="48" vol="47" />
          <note key="64" pos="816" pan="0" len="24" vol="31" />
          <note key="64" pos="1488" pan="0" len="48" vol="47" />
          <note key="64" pos="1584" pan="0" len="24" vol="31" />
          <note key="64" pos="2256" pan="0" len="48" vol="47" />
          <note key="64" pos="2352" pan="0" len="24" vol="31" />
          <note key="64" pos="3024" pan="0" len="48" vol="47" />
        </pattern>
        <pattern pos="92160" muted="0" steps="16" name="" type="1">
          <note key="64" pos="48" pan="0" len="24" vol="31" />
          <note key="64" pos="720" pan="0" len="48" vol="47" />
          <note key="64" pos="816" pan="0" len="24" vol="31" />
          <note key="64" pos="1488" pan="0" len="48" vol="47" />
          <note key="64" pos="1584" pan="0" len="24" vol="31" />
          <note key="64" pos="2256" pan="0" len="48" vol="47" />
          <note key="64" pos="2352" pan="0" len="24" vol="31" />
          <note key="64" pos="3024" pan="0" len="48" vol="47" />
        </pattern>
        <pattern pos="95232" muted="0" steps="16" name="" type="1">
          <note key="64" pos="48" pan="0" len="24" vol="31" />
          <note key="64" pos="720" pan="0" len="48" vol="47" />
          <note key="64" pos="816" pan="0" len="24" vol="31" />
          <note key="64" pos="1488" pan="0" len="48" vol="47" />
          <note key="64" pos="1584" pan="0" len="24" vol="31" />
          <note key="64" pos="2256" pan="0" len="48" vol="47" />
        </pattern>
      </track>
      <track solo="0" name="28 (Ch15)" type="0" muted="0">
        <instrumenttrack usemasterpitch="1" pitch="0.0" basenote="57" pan="0" pitchrange="12" vol="30">
          <eldata />
          <instrument name="tripleoscillator" />
        </instrumenttrack>
        <pattern pos="99840" muted="0" steps="16" name="" type="1">
          <note key="64" pos="48" pan="0" len="24" vol="31" />
          <note key="64" pos="720" pan="0" len="48" vol="47" />
          <note key="64" pos="816" pan="0" len="24" vol="31" />
          <note key="64" pos="1488" pan="0" len="48" vol="47" />
        </pattern>
        <pattern pos="97536" muted="0" steps="16" name="" type="1">
          <note key="64" pos="48" pan="0" len="24" vol="31" />
          <note key="64" pos="720" pan="0" len="48" vol="47" />
        </pattern>
        <pattern pos="98304" muted="0" steps="16" name="" type="1">
          <note key="64" pos="48" pan="0" len="24" vol="31" />
          <note key="64" pos="720" pan="0" len="48" vol="47" />
          <note key="64" pos="816" pan="0" len="24" vol="31" />
          <note key="64" pos="1488" pan="0" len="48" vol="47" />
        </pattern>
      </track>
      <track solo="0" name="28 (Ch18)" type="0" muted="0">
        <instrumenttrack usemasterpitch="1" pitch="0.0" basenote="57" pan="0" pitchrange="12" vol="30">
          <eldata />
          <instrument name="tripleoscillator" />
        </instrumenttrack>
        <pattern pos="99840" muted="0" steps="16" name="" type="1">
          <note key="64" pos="72" pan="0" len="24" vol="16" />
          <note key="64" pos="744" pan="0" len="48" vol="23" />
          <note key="64" pos="840" pan="0" len="24" vol="16" />
          <note key="64" pos="1512" pan="0" len="24" vol="23" />
        </pattern>
        <pattern pos="98304" muted="0" steps="16" name="" type="1">
          <note key="64" pos="72" pan="0" len="24" vol="16" />
          <note key="64" pos="744" pan="0" len="48" vol="23" />
          <note key="64" pos="840" pan="0" len="24" vol="16" />
          <note key="64" pos="1512" pan="0" len="24" vol="23" />
        </pattern>
      </track>
      <track solo="0" name="29 (Ch11)" type="0" muted="0">
        <instrumenttrack usemasterpitch="1" pitch="0.0" basenote="57" pan="0" pitchrange="12" vol="30">
          <eldata />
          <instrument name="tripleoscillator" />
        </instrumenttrack>
        <pattern pos="110592" muted="0" steps="16" name="" type="1">
          <note key="64" pos="72" pan="0" len="24" vol="62" />
          <note key="64" pos="672" pan="0" len="48" vol="100" />
          <note key="64" pos="840" pan="0" len="24" vol="62" />
          <note key="64" pos="1440" pan="0" len="48" vol="100" />
          <note key="64" pos="1608" pan="0" len="24" vol="62" />
          <note key="64" pos="2208" pan="0" len="48" vol="100" />
          <note key="64" pos="2376" pan="0" len="24" vol="62" />
          <note key="64" pos="2976" pan="0" len="48" vol="100" />
        </pattern>
        <pattern pos="92160" muted="0" steps="16" name="" type="1">
          <note key="64" pos="72" pan="0" len="24" vol="62" />
          <note key="64" pos="672" pan="0" len="48" vol="100" />
          <note key="64" pos="840" pan="0" len="24" vol="62" />
          <note key="64" pos="1440" pan="0" len="48" vol="100" />
          <note key="64" pos="1608" pan="0" len="24" vol="62" />
          <note key="64" pos="2208" pan="0" len="48" vol="100" />
          <note key="64" pos="2376" pan="0" len="24" vol="62" />
          <note key="64" pos="2976" pan="0" len="48" vol="100" />
        </pattern>
        <pattern pos="95232" muted="0" steps="16" name="" type="1">
          <note key="64" pos="72" pan="0" len="24" vol="62" />
          <note key="64" pos="672" pan="0" len="48" vol="100" />
          <note key="64" pos="840" pan="0" len="24" vol="62" />
          <note key="64" pos="1440" pan="0" len="48" vol="100" />
          <note key="64" pos="1608" pan="0" len="24" vol="62" />
          <note key="64" pos="2208" pan="0" len="48" vol="100" />
        </pattern>
      </track>
      <track solo="0" name="29 (Ch14)" type="0" muted="0">
        <instrumenttrack usemasterpitch="1" pitch="0.0" basenote="57" pan="0" pitchrange="12" vol="30">
          <eldata />
          <instrument name="tripleoscillator" />
        </instrumenttrack>
        <pattern pos="198924" muted="0" steps="16" name="" type="1">
          <note key="62" pos="24" pan="0" len="12" vol="100" />
          <note key="60" pos="72" pan="0" len="36" vol="100" />
          <note key="62" pos="216" pan="0" len="12" vol="100" />
          <note key="60" pos="264" pan="0" len="36" vol="100" />
          <note key="62" pos="408" pan="0" len="12" vol="100" />
          <note key="60" pos="456" pan="0" len="36" vol="100" />
          <note key="62" pos="600" pan="0" len="12" vol="100" />
          <note key="60" pos="648" pan="0" len="12" vol="100" />
          <note key="62" pos="792" pan="0" len="12" vol="100" />
          <note key="60" pos="840" pan="0" len="36" vol="100" />
          <note key="62" pos="984" pan="0" len="12" vol="100" />
          <note key="60" pos="1032" pan="0" len="36" vol="100" />
          <note key="62" pos="1176" pan="0" len="12" vol="100" />
          <note key="60" pos="1224" pan="0" len="36" vol="100" />
          <note key="62" pos="1368" pan="0" len="12" vol="100" />
          <note key="60" pos="1416" pan="0" len="12" vol="100" />
        </pattern>
        <pattern pos="192780" muted="0" steps="16" name="" type="1">
          <note key="62" pos="24" pan="0" len="12" vol="100" />
          <note key="60" pos="72" pan="0" len="36" vol="100" />
          <note key="62" pos="216" pan="0" len="12" vol="100" />
          <note key="60" pos="264" pan="0" len="36" vol="100" />
          <note key="62" pos="408" pan="0" len="12" vol="100" />
          <note key="60" pos="456" pan="0" len="36" vol="100" />
          <note key="62" pos="600" pan="0" len="12" vol="100" />
          <note key="60" pos="648" pan="0" len="36" vol="100" />
          <note key="62" pos="792" pan="0" len="12" vol="100" />
          <note key="60" pos="840" pan="0" len="36" vol="100" />
          <note key="62" pos="984" pan="0" len="12" vol="100" />
          <note key="60" pos="1032" pan="0" len="36" vol="100" />
          <note key="62" pos="1176" pan="0" len="12" vol="100" />
          <note key="60" pos="1224" pan="0" len="36" vol="100" />
          <note key="62" pos="1368" pan="0" len="12" vol="100" />
          <note key="60" pos="1416" pan="0" len="36" vol="100" />
        </pattern>
        <pattern pos="194316" muted="0" steps="16" name="" type="1">
          <note key="62" pos="24" pan="0" len="12" vol="100" />
          <note key="60" pos="72" pan="0" len="36" vol="100" />
          <note key="62" pos="216" pan="0" len="12" vol="100" />
          <note key="60" pos="264" pan="0" len="36" vol="100" />
          <note key="62" pos="408" pan="0" len="12" vol="100" />
          <note key="60" pos="456" pan="0" len="36" vol="100" />
          <note key="62" pos="600" pan="0" len="12" vol="100" />
          <note key="60" pos="648" pan="0" len="12" vol="100" />
          <note key="62" pos="792" pan="0" len="12" vol="100" />
          <note key="60" pos="840" pan="0" len="36" vol="100" />
          <note key="62" pos="984" pan="0" len="12" vol="100" />
          <note key="60" pos="1032" pan="0" len="36" vol="100" />
          <note key="62" pos="1176" pan="0" len="12" vol="100" />
          <note key="60" pos="1224" pan="0" len="36" vol="100" />
          <note key="62" pos="1368" pan="0" len="12" vol="100" />
          <note key="60" pos="1416" pan="0" len="12" vol="100" />
        </pattern>
        <pattern pos="195852" muted="0" steps="16" name="" type="1">
          <note key="62" pos="24" pan="0" len="12" vol="100" />
          <note key="60" pos="72" pan="0" len="36" vol="100" />
          <note key="62" pos="216" pan="0" len="12" vol="100" />
          <note key="60" pos="264" pan="0" len="36" vol="100" />
          <note key="62" pos="408" pan="0" len="12" vol="100" />
          <note key="60" pos="456" pan="0" len="36" vol="100" />
          <note key="62" pos="600" pan="0" len="12" vol="100" />
          <note key="60" pos="648" pan="0" len="12" vol="100" />
          <note key="62" pos="792" pan="0" len="12" vol="100" />
          <note key="60" pos="840" pan="0" len="36" vol="100" />
          <note key="62" pos="984" pan="0" len="12" vol="100" />
          <note key="60" pos="1032" pan="0" len="36" vol="100" />
          <note key="62" pos="1176" pan="0" len="12" vol="100" />
          <note key="60" pos="1224" pan="0" len="36" vol="100" />
          <note key="62" pos="1368" pan="0" len="12" vol="100" />
          <note key="60" pos="1416" pan="0" len="12" vol="100" />
        </pattern>
        <pattern pos="197388" muted="0" steps="16" name="" type="1">
          <note key="62" pos="24" pan="0" len="12" vol="100" />
          <note key="60" pos="72" pan="0" len="36" vol="100" />
          <note key="62" pos="216" pan="0" len="12" vol="100" />
          <note key="60" pos="264" pan="0" len="36" vol="100" />
          <note key="62" pos="408" pan="0" len="12" vol="100" />
          <note key="60" pos="456" pan="0" len="36" vol="100" />
          <note key="62" pos="600" pan="0" len="12" vol="100" />
          <note key="60" pos="648" pan="0" len="12" vol="100" />
          <note key="62" pos="792" pan="0" len="12" vol="100" />
          <note key="60" pos="840" pan="0" len="36" vol="100" />
          <note key="62" pos="984" pan="0" len="12" vol="100" />
          <note key="60" pos="1032" pan="0" len="36" vol="100" />
          <note key="62" pos="1176" pan="0" len="12" vol="100" />
          <note key="60" pos="1224" pan="0" len="36" vol="100" />
          <note key="62" pos="1368" pan="0" len="12" vol="100" />
          <note key="60" pos="1416" pan="0" len="12" vol="100" />
        </pattern>
      </track>
      <track solo="0" name="29 (Ch15)" type="0" muted="0">
        <instrumenttrack usemasterpitch="1" pitch="0.0" basenote="57" pan="0" pitchrange="12" vol="30">
          <eldata />
          <instrument name="tripleoscillator" />
        </instrumenttrack>
        <pattern pos="99840" muted="0" steps="16" name="" type="1">
          <note key="64" pos="72" pan="0" len="24" vol="62" />
          <note key="64" pos="672" pan="0" len="48" vol="100" />
          <note key="64" pos="840" pan="0" len="24" vol="62" />
          <note key="64" pos="1440" pan="0" len="48" vol="100" />
        </pattern>
        <pattern pos="97536" muted="0" steps="16" name="" type="1">
          <note key="64" pos="72" pan="0" len="24" vol="62" />
          <note key="64" pos="672" pan="0" len="48" vol="100" />
        </pattern>
        <pattern pos="98304" muted="0" steps="16" name="" type="1">
          <note key="64" pos="72" pan="0" len="24" vol="62" />
          <note key="64" pos="672" pan="0" len="48" vol="100" />
          <note key="64" pos="840" pan="0" len="24" vol="62" />
          <note key="64" pos="1440" pan="0" len="48" vol="100" />
        </pattern>
      </track>
      <track solo="0" name="29 (Ch18)" type="0" muted="0">
        <instrumenttrack usemasterpitch="1" pitch="0.0" basenote="57" pan="0" pitchrange="12" vol="30">
          <eldata />
          <instrument name="tripleoscillator" />
        </instrumenttrack>
        <pattern pos="99840" muted="0" steps="16" name="" type="1">
          <note key="64" pos="96" pan="0" len="24" vol="31" />
          <note key="64" pos="696" pan="0" len="48" vol="50" />
          <note key="64" pos="864" pan="0" len="24" vol="31" />
          <note key="64" pos="1464" pan="0" len="48" vol="50" />
        </pattern>
        <pattern pos="98304" muted="0" steps="16" name="" type="1">
          <note key="64" pos="96" pan="0" len="24" vol="31" />
          <note key="64" pos="696" pan="0" len="48" vol="50" />
          <note key="64" pos="864" pan="0" len="24" vol="31" />
          <note key="64" pos="1464" pan="0" len="48" vol="50" />
        </pattern>
      </track>
      <track solo="0" name="29 (Ch19)" type="0" muted="0">
        <instrumenttrack usemasterpitch="1" pitch="0.0" basenote="57" pan="0" pitchrange="12" vol="30">
          <eldata />
          <instrument name="tripleoscillator" />
        </instrumenttrack>
        <pattern pos="27648" muted="0" steps="16" name="" type="1">
          <note key="67" pos="36" pan="0" len="12" vol="100" />
          <note key="67" pos="72" pan="0" len="12" vol="100" />
          <note key="67" pos="96" pan="0" len="12" vol="100" />
          <note key="67" pos="168" pan="0" len="12" vol="34" />
          <note key="67" pos="228" pan="0" len="12" vol="100" />
          <note key="67" pos="264" pan="0" len="12" vol="100" />
          <note key="67" pos="288" pan="0" len="12" vol="100" />
          <note key="67" pos="360" pan="0" len="12" vol="34" />
          <note key="67" pos="420" pan="0" len="12" vol="100" />
          <note key="67" pos="456" pan="0" len="12" vol="100" />
          <note key="67" pos="480" pan="0" len="12" vol="100" />
          <note key="67" pos="552" pan="0" len="12" vol="34" />
          <note key="67" pos="612" pan="0" len="12" vol="100" />
          <note key="67" pos="648" pan="0" len="12" vol="100" />
          <note key="67" pos="672" pan="0" len="12" vol="100" />
          <note key="67" pos="744" pan="0" len="12" vol="34" />
          <note key="67" pos="804" pan="0" len="12" vol="100" />
          <note key="67" pos="840" pan="0" len="12" vol="100" />
          <note key="67" pos="864" pan="0" len="12" vol="100" />
          <note key="67" pos="936" pan="0" len="12" vol="34" />
          <note key="67" pos="996" pan="0" len="12" vol="100" />
          <note key="67" pos="1032" pan="0" len="12" vol="100" />
          <note key="67" pos="1056" pan="0" len="12" vol="100" />
          <note key="67" pos="1128" pan="0" len="12" vol="34" />
          <note key="67" pos="1188" pan="0" len="12" vol="100" />
          <note key="67" pos="1224" pan="0" len="12" vol="100" />
          <note key="67" pos="1248" pan="0" len="12" vol="100" />
          <note key="67" pos="1320" pan="0" len="12" vol="34" />
          <note key="67" pos="1380" pan="0" len="12" vol="100" />
          <note key="67" pos="1416" pan="0" len="12" vol="100" />
          <note key="67" pos="1440" pan="0" len="12" vol="100" />
          <note key="67" pos="1512" pan="0" len="12" vol="34" />
        </pattern>
        <pattern pos="21504" muted="0" steps="16" name="" type="1">
          <note key="67" pos="0" pan="0" len="12" vol="100" />
          <note key="67" pos="36" pan="0" len="12" vol="100" />
          <note key="67" pos="72" pan="0" len="12" vol="100" />
          <note key="67" pos="96" pan="0" len="12" vol="100" />
          <note key="67" pos="132" pan="0" len="12" vol="100" />
          <note key="67" pos="168" pan="0" len="12" vol="34" />
          <note key="67" pos="192" pan="0" len="12" vol="100" />
          <note key="67" pos="228" pan="0" len="12" vol="100" />
          <note key="67" pos="264" pan="0" len="12" vol="100" />
          <note key="67" pos="288" pan="0" len="12" vol="100" />
          <note key="67" pos="324" pan="0" len="12" vol="100" />
          <note key="67" pos="360" pan="0" len="12" vol="34" />
          <note key="67" pos="384" pan="0" len="12" vol="100" />
          <note key="67" pos="420" pan="0" len="12" vol="100" />
          <note key="67" pos="456" pan="0" len="12" vol="100" />
          <note key="67" pos="480" pan="0" len="12" vol="100" />
          <note key="67" pos="516" pan="0" len="12" vol="100" />
          <note key="67" pos="552" pan="0" len="12" vol="34" />
          <note key="67" pos="576" pan="0" len="12" vol="100" />
          <note key="67" pos="612" pan="0" len="12" vol="100" />
          <note key="67" pos="648" pan="0" len="12" vol="100" />
          <note key="67" pos="672" pan="0" len="12" vol="100" />
          <note key="67" pos="708" pan="0" len="12" vol="100" />
          <note key="67" pos="744" pan="0" len="12" vol="34" />
          <note key="67" pos="768" pan="0" len="12" vol="100" />
          <note key="67" pos="804" pan="0" len="12" vol="100" />
          <note key="67" pos="840" pan="0" len="12" vol="100" />
          <note key="67" pos="864" pan="0" len="12" vol="100" />
          <note key="67" pos="900" pan="0" len="12" vol="100" />
          <note key="67" pos="936" pan="0" len="12" vol="34" />
          <note key="67" pos="960" pan="0" len="12" vol="100" />
          <note key="67" pos="996" pan="0" len="12" vol="100" />
          <note key="67" pos="1032" pan="0" len="12" vol="100" />
          <note key="67" pos="1056" pan="0" len="12" vol="100" />
          <note key="67" pos="1092" pan="0" len="12" vol="100" />
          <note key="67" pos="1128" pan="0" len="12" vol="34" />
          <note key="67" pos="1152" pan="0" len="12" vol="100" />
          <note key="67" pos="1188" pan="0" len="12" vol="100" />
          <note key="67" pos="1224" pan="0" len="12" vol="100" />
          <note key="67" pos="1248" pan="0" len="12" vol="100" />
          <note key="67" pos="1284" pan="0" len="12" vol="100" />
          <note key="67" pos="1320" pan="0" len="12" vol="34" />
          <note key="67" pos="1344" pan="0" len="12" vol="100" />
          <note key="67" pos="1380" pan="0" len="12" vol="100" />
          <note key="67" pos="1416" pan="0" len="12" vol="100" />
          <note key="67" pos="1440" pan="0" len="12" vol="100" />
          <note key="67" pos="1476" pan="0" len="12" vol="100" />
          <note key="67" pos="1512" pan="0" len="12" vol="34" />
        </pattern>
        <pattern pos="23040" muted="0" steps="16" name="" type="1">
          <note key="67" pos="0" pan="0" len="12" vol="100" />
          <note key="67" pos="36" pan="0" len="12" vol="100" />
          <note key="67" pos="72" pan="0" len="12" vol="100" />
          <note key="67" pos="96" pan="0" len="12" vol="100" />
          <note key="67" pos="132" pan="0" len="12" vol="100" />
          <note key="67" pos="168" pan="0" len="12" vol="34" />
          <note key="67" pos="192" pan="0" len="12" vol="100" />
          <note key="67" pos="228" pan="0" len="12" vol="100" />
          <note key="67" pos="264" pan="0" len="12" vol="100" />
          <note key="67" pos="288" pan="0" len="12" vol="100" />
          <note key="67" pos="324" pan="0" len="12" vol="100" />
          <note key="67" pos="360" pan="0" len="12" vol="34" />
          <note key="67" pos="384" pan="0" len="12" vol="100" />
          <note key="67" pos="420" pan="0" len="12" vol="100" />
          <note key="67" pos="456" pan="0" len="12" vol="100" />
          <note key="67" pos="480" pan="0" len="12" vol="100" />
          <note key="67" pos="516" pan="0" len="12" vol="100" />
          <note key="67" pos="552" pan="0" len="12" vol="34" />
          <note key="67" pos="576" pan="0" len="12" vol="100" />
          <note key="67" pos="612" pan="0" len="12" vol="100" />
          <note key="67" pos="648" pan="0" len="12" vol="100" />
          <note key="67" pos="672" pan="0" len="12" vol="100" />
          <note key="67" pos="708" pan="0" len="12" vol="100" />
          <note key="67" pos="744" pan="0" len="12" vol="34" />
          <note key="67" pos="768" pan="0" len="12" vol="100" />
          <note key="67" pos="804" pan="0" len="12" vol="100" />
          <note key="67" pos="840" pan="0" len="12" vol="100" />
          <note key="67" pos="864" pan="0" len="12" vol="100" />
          <note key="67" pos="900" pan="0" len="12" vol="100" />
          <note key="67" pos="936" pan="0" len="12" vol="34" />
          <note key="67" pos="960" pan="0" len="12" vol="100" />
          <note key="67" pos="996" pan="0" len="12" vol="100" />
          <note key="67" pos="1032" pan="0" len="12" vol="100" />
          <note key="67" pos="1056" pan="0" len="12" vol="100" />
          <note key="67" pos="1092" pan="0" len="12" vol="100" />
          <note key="67" pos="1128" pan="0" len="12" vol="34" />
          <note key="67" pos="1152" pan="0" len="12" vol="100" />
          <note key="67" pos="1188" pan="0" len="12" vol="100" />
          <note key="67" pos="1224" pan="0" len="12" vol="100" />
          <note key="67" pos="1248" pan="0" len="12" vol="100" />
          <note key="67" pos="1284" pan="0" len="12" vol="100" />
          <note key="67" pos="1320" pan="0" len="12" vol="34" />
          <note key="67" pos="1344" pan="0" len="12" vol="100" />
          <note key="67" pos="1380" pan="0" len="12" vol="100" />
          <note key="67" pos="1416" pan="0" len="12" vol="100" />
          <note key="67" pos="1440" pan="0" len="12" vol="100" />
          <note key="67" pos="1476" pan="0" len="12" vol="100" />
          <note key="67" pos="1512" pan="0" len="12" vol="34" />
        </pattern>
        <pattern pos="24576" muted="0" steps="16" name="" type="1">
          <note key="67" pos="0" pan="0" len="12" vol="100" />
          <note key="67" pos="36" pan="0" len="12" vol="100" />
          <note key="67" pos="72" pan="0" len="12" vol="100" />
          <note key="67" pos="96" pan="0" len="12" vol="100" />
          <note key="67" pos="132" pan="0" len="12" vol="100" />
          <note key="67" pos="168" pan="0" len="12" vol="34" />
          <note key="67" pos="192" pan="0" len="12" vol="100" />
          <note key="67" pos="228" pan="0" len="12" vol="100" />
          <note key="67" pos="264" pan="0" len="12" vol="100" />
          <note key="67" pos="288" pan="0" len="12" vol="100" />
          <note key="67" pos="324" pan="0" len="12" vol="100" />
          <note key="67" pos="360" pan="0" len="12" vol="34" />
          <note key="67" pos="384" pan="0" len="12" vol="100" />
          <note key="67" pos="420" pan="0" len="12" vol="100" />
          <note key="67" pos="456" pan="0" len="12" vol="100" />
          <note key="67" pos="480" pan="0" len="12" vol="100" />
          <note key="67" pos="516" pan="0" len="12" vol="100" />
          <note key="67" pos="552" pan="0" len="12" vol="34" />
          <note key="67" pos="576" pan="0" len="12" vol="100" />
          <note key="67" pos="612" pan="0" len="12" vol="100" />
          <note key="67" pos="648" pan="0" len="12" vol="100" />
          <note key="67" pos="672" pan="0" len="12" vol="100" />
          <note key="67" pos="708" pan="0" len="12" vol="100" />
          <note key="67" pos="744" pan="0" len="12" vol="34" />
          <note key="67" pos="768" pan="0" len="12" vol="100" />
          <note key="67" pos="804" pan="0" len="12" vol="100" />
          <note key="67" pos="840" pan="0" len="12" vol="100" />
          <note key="67" pos="864" pan="0" len="12" vol="100" />
          <note key="67" pos="900" pan="0" len="12" vol="100" />
          <note key="67" pos="936" pan="0" len="12" vol="34" />
          <note key="67" pos="960" pan="0" len="12" vol="100" />
          <note key="67" pos="996" pan="0" len="12" vol="100" />
          <note key="67" pos="1032" pan="0" len="12" vol="100" />
          <note key="67" pos="1056" pan="0" len="12" vol="100" />
          <note key="67" pos="1092" pan="0" len="12" vol="100" />
          <note key="67" pos="1128" pan="0" len="12" vol="34" />
          <note key="67" pos="1152" pan="0" len="12" vol="100" />
          <note key="67" pos="1188" pan="0" len="12" vol="100" />
          <note key="67" pos="1224" pan="0" len="12" vol="100" />
          <note key="67" pos="1248" pan="0" len="12" vol="100" />
          <note key="67" pos="1284" pan="0" len="12" vol="100" />
          <note key="67" pos="1320" pan="0" len="12" vol="34" />
          <note key="67" pos="1344" pan="0" len="12" vol="100" />
          <note key="67" pos="1380" pan="0" len="12" vol="100" />
          <note key="67" pos="1416" pan="0" len="12" vol="100" />
          <note key="67" pos="1440" pan="0" len="12" vol="100" />
          <note key="67" pos="1476" pan="0" len="12" vol="100" />
          <note key="67" pos="1512" pan="0" len="12" vol="34" />
        </pattern>
        <pattern pos="26112" muted="0" steps="16" name="" type="1">
          <note key="67" pos="0" pan="0" len="12" vol="100" />
          <note key="67" pos="36" pan="0" len="12" vol="100" />
          <note key="67" pos="72" pan="0" len="12" vol="100" />
          <note key="67" pos="96" pan="0" len="12" vol="100" />
          <note key="67" pos="132" pan="0" len="12" vol="100" />
          <note key="67" pos="168" pan="0" len="12" vol="34" />
          <note key="67" pos="192" pan="0" len="12" vol="100" />
          <note key="67" pos="228" pan="0" len="12" vol="100" />
          <note key="67" pos="264" pan="0" len="12" vol="100" />
          <note key="67" pos="288" pan="0" len="12" vol="100" />
          <note key="67" pos="324" pan="0" len="12" vol="100" />
          <note key="67" pos="360" pan="0" len="12" vol="34" />
          <note key="67" pos="384" pan="0" len="12" vol="100" />
          <note key="67" pos="420" pan="0" len="12" vol="100" />
          <note key="67" pos="456" pan="0" len="12" vol="100" />
          <note key="67" pos="480" pan="0" len="12" vol="100" />
          <note key="67" pos="516" pan="0" len="12" vol="100" />
          <note key="67" pos="552" pan="0" len="12" vol="34" />
          <note key="67" pos="576" pan="0" len="12" vol="100" />
          <note key="67" pos="612" pan="0" len="12" vol="100" />
          <note key="67" pos="648" pan="0" len="12" vol="100" />
          <note key="67" pos="672" pan="0" len="12" vol="100" />
          <note key="67" pos="708" pan="0" len="12" vol="100" />
          <note key="67" pos="744" pan="0" len="12" vol="34" />
          <note key="67" pos="768" pan="0" len="12" vol="100" />
          <note key="67" pos="804" pan="0" len="12" vol="100" />
          <note key="67" pos="840" pan="0" len="12" vol="100" />
          <note key="67" pos="864" pan="0" len="12" vol="100" />
          <note key="67" pos="900" pan="0" len="12" vol="100" />
          <note key="67" pos="936" pan="0" len="12" vol="34" />
          <note key="67" pos="960" pan="0" len="12" vol="100" />
          <note key="67" pos="996" pan="0" len="12" vol="100" />
          <note key="67" pos="1032" pan="0" len="12" vol="100" />
          <note key="67" pos="1056" pan="0" len="12" vol="100" />
          <note key="67" pos="1092" pan="0" len="12" vol="100" />
          <note key="67" pos="1128" pan="0" len="12" vol="34" />
          <note key="67" pos="1152" pan="0" len="12" vol="100" />
          <note key="67" pos="1188" pan="0" len="12" vol="100" />
          <note key="67" pos="1224" pan="0" len="12" vol="100" />
          <note key="67" pos="1248" pan="0" len="12" vol="100" />
          <note key="67" pos="1284" pan="0" len="12" vol="100" />
          <note key="67" pos="1320" pan="0" len="12" vol="34" />
          <note key="67" pos="1344" pan="0" len="12" vol="100" />
          <note key="67" pos="1380" pan="0" len="12" vol="100" />
          <note key="67" pos="1416" pan="0" len="12" vol="100" />
          <note key="67" pos="1440" pan="0" len="12" vol="100" />
          <note key="67" pos="1476" pan="0" len="12" vol="100" />
          <note key="67" pos="1512" pan="0" len="12" vol="34" />
        </pattern>
      </track>
      <track solo="0" name="30 (Ch11)" type="0" muted="0">
        <instrumenttrack usemasterpitch="1" pitch="0.0" basenote="57" pan="0" pitchrange="12" vol="30">
          <eldata />
          <instrument name="tripleoscillator" />
        </instrumenttrack>
        <pattern pos="110592" muted="0" steps="16" name="" type="1">
          <note key="64" pos="96" pan="0" len="48" vol="100" />
          <note key="64" pos="624" pan="0" len="48" vol="47" />
          <note key="64" pos="864" pan="0" len="48" vol="100" />
          <note key="64" pos="1392" pan="0" len="48" vol="47" />
          <note key="64" pos="1632" pan="0" len="48" vol="100" />
          <note key="64" pos="2160" pan="0" len="48" vol="47" />
          <note key="64" pos="2400" pan="0" len="48" vol="100" />
          <note key="64" pos="2928" pan="0" len="48" vol="47" />
        </pattern>
        <pattern pos="92160" muted="0" steps="16" name="" type="1">
          <note key="64" pos="96" pan="0" len="48" vol="100" />
          <note key="64" pos="624" pan="0" len="48" vol="47" />
          <note key="64" pos="864" pan="0" len="48" vol="100" />
          <note key="64" pos="1392" pan="0" len="48" vol="47" />
          <note key="64" pos="1632" pan="0" len="48" vol="100" />
          <note key="64" pos="2160" pan="0" len="48" vol="47" />
          <note key="64" pos="2400" pan="0" len="48" vol="100" />
          <note key="64" pos="2928" pan="0" len="48" vol="47" />
        </pattern>
        <pattern pos="95232" muted="0" steps="16" name="" type="1">
          <note key="64" pos="96" pan="0" len="48" vol="100" />
          <note key="64" pos="624" pan="0" len="48" vol="47" />
          <note key="64" pos="864" pan="0" len="48" vol="100" />
          <note key="64" pos="1392" pan="0" len="48" vol="47" />
          <note key="64" pos="1632" pan="0" len="48" vol="100" />
          <note key="64" pos="2160" pan="0" len="48" vol="47" />
        </pattern>
      </track>
      <track solo="0" name="30 (Ch14)" type="0" muted="0">
        <instrumenttrack usemasterpitch="1" pitch="0.0" basenote="57" pan="0" pitchrange="12" vol="30">
          <eldata />
          <instrument name="tripleoscillator" />
        </instrumenttrack>
        <pattern pos="198924" muted="0" steps="16" name="" type="1">
          <note key="62" pos="36" pan="0" len="12" vol="100" />
          <note key="60" pos="108" pan="0" len="24" vol="100" />
          <note key="62" pos="228" pan="0" len="12" vol="100" />
          <note key="60" pos="300" pan="0" len="24" vol="100" />
          <note key="62" pos="420" pan="0" len="12" vol="100" />
          <note key="60" pos="492" pan="0" len="24" vol="100" />
          <note key="62" pos="612" pan="0" len="12" vol="100" />
          <note key="60" pos="684" pan="0" len="24" vol="100" />
          <note key="62" pos="804" pan="0" len="12" vol="100" />
          <note key="60" pos="876" pan="0" len="24" vol="100" />
          <note key="62" pos="996" pan="0" len="12" vol="100" />
          <note key="60" pos="1068" pan="0" len="24" vol="100" />
          <note key="62" pos="1188" pan="0" len="12" vol="100" />
          <note key="60" pos="1260" pan="0" len="24" vol="100" />
          <note key="62" pos="1380" pan="0" len="12" vol="100" />
          <note key="60" pos="1452" pan="0" len="24" vol="100" />
        </pattern>
        <pattern pos="192780" muted="0" steps="16" name="" type="1">
          <note key="62" pos="36" pan="0" len="12" vol="100" />
          <note key="60" pos="108" pan="0" len="24" vol="100" />
          <note key="62" pos="228" pan="0" len="12" vol="100" />
          <note key="60" pos="300" pan="0" len="24" vol="100" />
          <note key="62" pos="420" pan="0" len="12" vol="100" />
          <note key="60" pos="492" pan="0" len="24" vol="100" />
          <note key="62" pos="612" pan="0" len="12" vol="100" />
          <note key="60" pos="684" pan="0" len="24" vol="100" />
          <note key="62" pos="804" pan="0" len="12" vol="100" />
          <note key="60" pos="876" pan="0" len="24" vol="100" />
          <note key="62" pos="996" pan="0" len="12" vol="100" />
          <note key="60" pos="1068" pan="0" len="24" vol="100" />
          <note key="62" pos="1188" pan="0" len="12" vol="100" />
          <note key="60" pos="1260" pan="0" len="24" vol="100" />
          <note key="62" pos="1380" pan="0" len="12" vol="100" />
          <note key="60" pos="1452" pan="0" len="24" vol="100" />
        </pattern>
        <pattern pos="194316" muted="0" steps="16" name="" type="1">
          <note key="62" pos="36" pan="0" len="12" vol="100" />
          <note key="60" pos="108" pan="0" len="24" vol="100" />
          <note key="62" pos="228" pan="0" len="12" vol="100" />
          <note key="60" pos="300" pan="0" len="24" vol="100" />
          <note key="62" pos="420" pan="0" len="12" vol="100" />
          <note key="60" pos="492" pan="0" len="24" vol="100" />
          <note key="62" pos="612" pan="0" len="12" vol="100" />
          <note key="60" pos="684" pan="0" len="24" vol="100" />
          <note key="62" pos="804" pan="0" len="12" vol="100" />
          <note key="60" pos="876" pan="0" len="24" vol="100" />
          <note key="62" pos="996" pan="0" len="12" vol="100" />
          <note key="60" pos="1068" pan="0" len="24" vol="100" />
          <note key="62" pos="1188" pan="0" len="12" vol="100" />
          <note key="60" pos="1260" pan="0" len="24" vol="100" />
          <note key="62" pos="1380" pan="0" len="12" vol="100" />
          <note key="60" pos="1452" pan="0" len="24" vol="100" />
        </pattern>
        <pattern pos="195852" muted="0" steps="16" name="" type="1">
          <note key="62" pos="36" pan="0" len="12" vol="100" />
          <note key="60" pos="108" pan="0" len="24" vol="100" />
          <note key="62" pos="228" pan="0" len="12" vol="100" />
          <note key="60" pos="300" pan="0" len="24" vol="100" />
          <note key="62" pos="420" pan="0" len="12" vol="100" />
          <note key="60" pos="492" pan="0" len="24" vol="100" />
          <note key="62" pos="612" pan="0" len="12" vol="100" />
          <note key="60" pos="684" pan="0" len="24" vol="100" />
          <note key="62" pos="804" pan="0" len="12" vol="100" />
          <note key="60" pos="876" pan="0" len="24" vol="100" />
          <note key="62" pos="996" pan="0" len="12" vol="100" />
          <note key="60" pos="1068" pan="0" len="24" vol="100" />
          <note key="62" pos="1188" pan="0" len="12" vol="100" />
          <note key="60" pos="1260" pan="0" len="24" vol="100" />
          <note key="62" pos="1380" pan="0" len="12" vol="100" />
          <note key="60" pos="1452" pan="0" len="24" vol="100" />
        </pattern>
        <pattern pos="197388" muted="0" steps="16" name="" type="1">
          <note key="62" pos="36" pan="0" len="12" vol="100" />
          <note key="60" pos="108" pan="0" len="24" vol="100" />
          <note key="62" pos="228" pan="0" len="12" vol="100" />
          <note key="60" pos="300" pan="0" len="24" vol="100" />
          <note key="62" pos="420" pan="0" len="12" vol="100" />
          <note key="60" pos="492" pan="0" len="24" vol="100" />
          <note key="62" pos="612" pan="0" len="12" vol="100" />
          <note key="60" pos="684" pan="0" len="24" vol="100" />
          <note key="62" pos="804" pan="0" len="12" vol="100" />
          <note key="60" pos="876" pan="0" len="24" vol="100" />
          <note key="62" pos="996" pan="0" len="12" vol="100" />
          <note key="60" pos="1068" pan="0" len="24" vol="100" />
          <note key="62" pos="1188" pan="0" len="12" vol="100" />
          <note key="60" pos="1260" pan="0" len="24" vol="100" />
          <note key="62" pos="1380" pan="0" len="12" vol="100" />
          <note key="60" pos="1452" pan="0" len="24" vol="100" />
        </pattern>
      </track>
      <track solo="0" name="30 (Ch15)" type="0" muted="0">
        <instrumenttrack usemasterpitch="1" pitch="0.0" basenote="57" pan="0" pitchrange="12" vol="30">
          <eldata />
          <instrument name="tripleoscillator" />
        </instrumenttrack>
        <pattern pos="99840" muted="0" steps="16" name="" type="1">
          <note key="64" pos="96" pan="0" len="48" vol="100" />
          <note key="64" pos="624" pan="0" len="48" vol="47" />
          <note key="64" pos="864" pan="0" len="48" vol="100" />
          <note key="64" pos="1392" pan="0" len="48" vol="47" />
        </pattern>
        <pattern pos="97536" muted="0" steps="16" name="" type="1">
          <note key="64" pos="96" pan="0" len="48" vol="100" />
          <note key="64" pos="624" pan="0" len="48" vol="47" />
        </pattern>
        <pattern pos="98304" muted="0" steps="16" name="" type="1">
          <note key="64" pos="96" pan="0" len="48" vol="100" />
          <note key="64" pos="624" pan="0" len="48" vol="47" />
          <note key="64" pos="864" pan="0" len="48" vol="100" />
          <note key="64" pos="1392" pan="0" len="48" vol="47" />
        </pattern>
      </track>
      <track solo="0" name="30 (Ch18)" type="0" muted="0">
        <instrumenttrack usemasterpitch="1" pitch="0.0" basenote="57" pan="0" pitchrange="12" vol="30">
          <eldata />
          <instrument name="tripleoscillator" />
        </instrumenttrack>
        <pattern pos="99840" muted="0" steps="16" name="" type="1">
          <note key="64" pos="120" pan="0" len="48" vol="50" />
          <note key="64" pos="648" pan="0" len="48" vol="23" />
          <note key="64" pos="888" pan="0" len="48" vol="50" />
          <note key="64" pos="1416" pan="0" len="48" vol="23" />
        </pattern>
        <pattern pos="98304" muted="0" steps="16" name="" type="1">
          <note key="64" pos="120" pan="0" len="48" vol="50" />
          <note key="64" pos="648" pan="0" len="48" vol="23" />
          <note key="64" pos="888" pan="0" len="48" vol="50" />
          <note key="64" pos="1416" pan="0" len="48" vol="23" />
        </pattern>
      </track>
      <track solo="0" name="30 (Ch19)" type="0" muted="0">
        <instrumenttrack usemasterpitch="1" pitch="0.0" basenote="57" pan="0" pitchrange="12" vol="30">
          <eldata />
          <instrument name="tripleoscillator" />
        </instrumenttrack>
        <pattern pos="27648" muted="0" steps="16" name="" type="1">
          <note key="67" pos="120" pan="0" len="12" vol="34" />
          <note key="67" pos="312" pan="0" len="12" vol="34" />
          <note key="67" pos="504" pan="0" len="12" vol="34" />
          <note key="67" pos="696" pan="0" len="12" vol="34" />
          <note key="67" pos="888" pan="0" len="12" vol="34" />
          <note key="67" pos="1080" pan="0" len="12" vol="34" />
          <note key="67" pos="1272" pan="0" len="12" vol="34" />
          <note key="67" pos="1464" pan="0" len="12" vol="34" />
        </pattern>
        <pattern pos="21504" muted="0" steps="16" name="" type="1">
          <note key="67" pos="24" pan="0" len="12" vol="100" />
          <note key="67" pos="60" pan="0" len="12" vol="34" />
          <note key="67" pos="84" pan="0" len="12" vol="100" />
          <note key="67" pos="120" pan="0" len="12" vol="34" />
          <note key="67" pos="156" pan="0" len="12" vol="100" />
          <note key="67" pos="180" pan="0" len="12" vol="100" />
          <note key="67" pos="216" pan="0" len="12" vol="100" />
          <note key="67" pos="252" pan="0" len="12" vol="34" />
          <note key="67" pos="276" pan="0" len="12" vol="100" />
          <note key="67" pos="312" pan="0" len="12" vol="34" />
          <note key="67" pos="348" pan="0" len="12" vol="100" />
          <note key="67" pos="372" pan="0" len="12" vol="100" />
          <note key="67" pos="408" pan="0" len="12" vol="100" />
          <note key="67" pos="444" pan="0" len="12" vol="34" />
          <note key="67" pos="468" pan="0" len="12" vol="100" />
          <note key="67" pos="504" pan="0" len="12" vol="34" />
          <note key="67" pos="540" pan="0" len="12" vol="100" />
          <note key="67" pos="564" pan="0" len="12" vol="100" />
          <note key="67" pos="600" pan="0" len="12" vol="100" />
          <note key="67" pos="636" pan="0" len="12" vol="34" />
          <note key="67" pos="660" pan="0" len="12" vol="100" />
          <note key="67" pos="696" pan="0" len="12" vol="34" />
          <note key="67" pos="732" pan="0" len="12" vol="100" />
          <note key="67" pos="756" pan="0" len="12" vol="100" />
          <note key="67" pos="792" pan="0" len="12" vol="100" />
          <note key="67" pos="828" pan="0" len="12" vol="34" />
          <note key="67" pos="852" pan="0" len="12" vol="100" />
          <note key="67" pos="888" pan="0" len="12" vol="34" />
          <note key="67" pos="924" pan="0" len="12" vol="100" />
          <note key="67" pos="948" pan="0" len="12" vol="100" />
          <note key="67" pos="984" pan="0" len="12" vol="100" />
          <note key="67" pos="1020" pan="0" len="12" vol="34" />
          <note key="67" pos="1044" pan="0" len="12" vol="100" />
          <note key="67" pos="1080" pan="0" len="12" vol="34" />
          <note key="67" pos="1116" pan="0" len="12" vol="100" />
          <note key="67" pos="1140" pan="0" len="12" vol="100" />
          <note key="67" pos="1176" pan="0" len="12" vol="100" />
          <note key="67" pos="1212" pan="0" len="12" vol="34" />
          <note key="67" pos="1236" pan="0" len="12" vol="100" />
          <note key="67" pos="1272" pan="0" len="12" vol="34" />
          <note key="67" pos="1308" pan="0" len="12" vol="100" />
          <note key="67" pos="1332" pan="0" len="12" vol="100" />
          <note key="67" pos="1368" pan="0" len="12" vol="100" />
          <note key="67" pos="1404" pan="0" len="12" vol="34" />
          <note key="67" pos="1428" pan="0" len="12" vol="100" />
          <note key="67" pos="1464" pan="0" len="12" vol="34" />
          <note key="67" pos="1500" pan="0" len="12" vol="100" />
          <note key="67" pos="1524" pan="0" len="12" vol="100" />
        </pattern>
        <pattern pos="23040" muted="0" steps="16" name="" type="1">
          <note key="67" pos="24" pan="0" len="12" vol="100" />
          <note key="67" pos="60" pan="0" len="12" vol="34" />
          <note key="67" pos="84" pan="0" len="12" vol="100" />
          <note key="67" pos="120" pan="0" len="12" vol="34" />
          <note key="67" pos="156" pan="0" len="12" vol="100" />
          <note key="67" pos="180" pan="0" len="12" vol="100" />
          <note key="67" pos="216" pan="0" len="12" vol="100" />
          <note key="67" pos="252" pan="0" len="12" vol="34" />
          <note key="67" pos="276" pan="0" len="12" vol="100" />
          <note key="67" pos="312" pan="0" len="12" vol="34" />
          <note key="67" pos="348" pan="0" len="12" vol="100" />
          <note key="67" pos="372" pan="0" len="12" vol="100" />
          <note key="67" pos="408" pan="0" len="12" vol="100" />
          <note key="67" pos="444" pan="0" len="12" vol="34" />
          <note key="67" pos="468" pan="0" len="12" vol="100" />
          <note key="67" pos="504" pan="0" len="12" vol="34" />
          <note key="67" pos="540" pan="0" len="12" vol="100" />
          <note key="67" pos="564" pan="0" len="12" vol="100" />
          <note key="67" pos="600" pan="0" len="12" vol="100" />
          <note key="67" pos="636" pan="0" len="12" vol="34" />
          <note key="67" pos="660" pan="0" len="12" vol="100" />
          <note key="67" pos="696" pan="0" len="12" vol="34" />
          <note key="67" pos="732" pan="0" len="12" vol="100" />
          <note key="67" pos="756" pan="0" len="12" vol="100" />
          <note key="67" pos="792" pan="0" len="12" vol="100" />
          <note key="67" pos="828" pan="0" len="12" vol="34" />
          <note key="67" pos="852" pan="0" len="12" vol="100" />
          <note key="67" pos="888" pan="0" len="12" vol="34" />
          <note key="67" pos="924" pan="0" len="12" vol="100" />
          <note key="67" pos="948" pan="0" len="12" vol="100" />
          <note key="67" pos="984" pan="0" len="12" vol="100" />
          <note key="67" pos="1020" pan="0" len="12" vol="34" />
          <note key="67" pos="1044" pan="0" len="12" vol="100" />
          <note key="67" pos="1080" pan="0" len="12" vol="34" />
          <note key="67" pos="1116" pan="0" len="12" vol="100" />
          <note key="67" pos="1140" pan="0" len="12" vol="100" />
          <note key="67" pos="1176" pan="0" len="12" vol="100" />
          <note key="67" pos="1212" pan="0" len="12" vol="34" />
          <note key="67" pos="1236" pan="0" len="12" vol="100" />
          <note key="67" pos="1272" pan="0" len="12" vol="34" />
          <note key="67" pos="1308" pan="0" len="12" vol="100" />
          <note key="67" pos="1332" pan="0" len="12" vol="100" />
          <note key="67" pos="1368" pan="0" len="12" vol="100" />
          <note key="67" pos="1404" pan="0" len="12" vol="34" />
          <note key="67" pos="1428" pan="0" len="12" vol="100" />
          <note key="67" pos="1464" pan="0" len="12" vol="34" />
          <note key="67" pos="1500" pan="0" len="12" vol="100" />
          <note key="67" pos="1524" pan="0" len="12" vol="100" />
        </pattern>
        <pattern pos="24576" muted="0" steps="16" name="" type="1">
          <note key="67" pos="24" pan="0" len="12" vol="100" />
          <note key="67" pos="60" pan="0" len="12" vol="34" />
          <note key="67" pos="84" pan="0" len="12" vol="100" />
          <note key="67" pos="120" pan="0" len="12" vol="34" />
          <note key="67" pos="156" pan="0" len="12" vol="100" />
          <note key="67" pos="180" pan="0" len="12" vol="100" />
          <note key="67" pos="216" pan="0" len="12" vol="100" />
          <note key="67" pos="252" pan="0" len="12" vol="34" />
          <note key="67" pos="276" pan="0" len="12" vol="100" />
          <note key="67" pos="312" pan="0" len="12" vol="34" />
          <note key="67" pos="348" pan="0" len="12" vol="100" />
          <note key="67" pos="372" pan="0" len="12" vol="100" />
          <note key="67" pos="408" pan="0" len="12" vol="100" />
          <note key="67" pos="444" pan="0" len="12" vol="34" />
          <note key="67" pos="468" pan="0" len="12" vol="100" />
          <note key="67" pos="504" pan="0" len="12" vol="34" />
          <note key="67" pos="540" pan="0" len="12" vol="100" />
          <note key="67" pos="564" pan="0" len="12" vol="100" />
          <note key="67" pos="600" pan="0" len="12" vol="100" />
          <note key="67" pos="636" pan="0" len="12" vol="34" />
          <note key="67" pos="660" pan="0" len="12" vol="100" />
          <note key="67" pos="696" pan="0" len="12" vol="34" />
          <note key="67" pos="732" pan="0" len="12" vol="100" />
          <note key="67" pos="756" pan="0" len="12" vol="100" />
          <note key="67" pos="792" pan="0" len="12" vol="100" />
          <note key="67" pos="828" pan="0" len="12" vol="34" />
          <note key="67" pos="852" pan="0" len="12" vol="100" />
          <note key="67" pos="888" pan="0" len="12" vol="34" />
          <note key="67" pos="924" pan="0" len="12" vol="100" />
          <note key="67" pos="948" pan="0" len="12" vol="100" />
          <note key="67" pos="984" pan="0" len="12" vol="100" />
          <note key="67" pos="1020" pan="0" len="12" vol="34" />
          <note key="67" pos="1044" pan="0" len="12" vol="100" />
          <note key="67" pos="1080" pan="0" len="12" vol="34" />
          <note key="67" pos="1116" pan="0" len="12" vol="100" />
          <note key="67" pos="1140" pan="0" len="12" vol="100" />
          <note key="67" pos="1176" pan="0" len="12" vol="100" />
          <note key="67" pos="1212" pan="0" len="12" vol="34" />
          <note key="67" pos="1236" pan="0" len="12" vol="100" />
          <note key="67" pos="1272" pan="0" len="12" vol="34" />
          <note key="67" pos="1308" pan="0" len="12" vol="100" />
          <note key="67" pos="1332" pan="0" len="12" vol="100" />
          <note key="67" pos="1368" pan="0" len="12" vol="100" />
          <note key="67" pos="1404" pan="0" len="12" vol="34" />
          <note key="67" pos="1428" pan="0" len="12" vol="100" />
          <note key="67" pos="1464" pan="0" len="12" vol="34" />
          <note key="67" pos="1500" pan="0" len="12" vol="100" />
          <note key="67" pos="1524" pan="0" len="12" vol="100" />
        </pattern>
        <pattern pos="26112" muted="0" steps="16" name="" type="1">
          <note key="67" pos="24" pan="0" len="12" vol="100" />
          <note key="67" pos="60" pan="0" len="12" vol="34" />
          <note key="67" pos="84" pan="0" len="12" vol="100" />
          <note key="67" pos="120" pan="0" len="12" vol="34" />
          <note key="67" pos="156" pan="0" len="12" vol="100" />
          <note key="67" pos="180" pan="0" len="12" vol="100" />
          <note key="67" pos="216" pan="0" len="12" vol="100" />
          <note key="67" pos="252" pan="0" len="12" vol="34" />
          <note key="67" pos="276" pan="0" len="12" vol="100" />
          <note key="67" pos="312" pan="0" len="12" vol="34" />
          <note key="67" pos="348" pan="0" len="12" vol="100" />
          <note key="67" pos="372" pan="0" len="12" vol="100" />
          <note key="67" pos="408" pan="0" len="12" vol="100" />
          <note key="67" pos="444" pan="0" len="12" vol="34" />
          <note key="67" pos="468" pan="0" len="12" vol="100" />
          <note key="67" pos="504" pan="0" len="12" vol="34" />
          <note key="67" pos="540" pan="0" len="12" vol="100" />
          <note key="67" pos="564" pan="0" len="12" vol="100" />
          <note key="67" pos="600" pan="0" len="12" vol="100" />
          <note key="67" pos="636" pan="0" len="12" vol="34" />
          <note key="67" pos="660" pan="0" len="12" vol="100" />
          <note key="67" pos="696" pan="0" len="12" vol="34" />
          <note key="67" pos="732" pan="0" len="12" vol="100" />
          <note key="67" pos="756" pan="0" len="12" vol="100" />
          <note key="67" pos="792" pan="0" len="12" vol="100" />
          <note key="67" pos="828" pan="0" len="12" vol="34" />
          <note key="67" pos="852" pan="0" len="12" vol="100" />
          <note key="67" pos="888" pan="0" len="12" vol="34" />
          <note key="67" pos="924" pan="0" len="12" vol="100" />
          <note key="67" pos="948" pan="0" len="12" vol="100" />
          <note key="67" pos="984" pan="0" len="12" vol="100" />
          <note key="67" pos="1020" pan="0" len="12" vol="34" />
          <note key="67" pos="1044" pan="0" len="12" vol="100" />
          <note key="67" pos="1080" pan="0" len="12" vol="34" />
          <note key="67" pos="1116" pan="0" len="12" vol="100" />
          <note key="67" pos="1140" pan="0" len="12" vol="100" />
          <note key="67" pos="1176" pan="0" len="12" vol="100" />
          <note key="67" pos="1212" pan="0" len="12" vol="34" />
          <note key="67" pos="1236" pan="0" len="12" vol="100" />
          <note key="67" pos="1272" pan="0" len="12" vol="34" />
          <note key="67" pos="1308" pan="0" len="12" vol="100" />
          <note key="67" pos="1332" pan="0" len="12" vol="100" />
          <note key="67" pos="1368" pan="0" len="12" vol="100" />
          <note key="67" pos="1404" pan="0" len="12" vol="34" />
          <note key="67" pos="1428" pan="0" len="12" vol="100" />
          <note key="67" pos="1464" pan="0" len="12" vol="34" />
          <note key="67" pos="1500" pan="0" len="12" vol="100" />
          <note key="67" pos="1524" pan="0" len="12" vol="100" />
        </pattern>
      </track>
      <track solo="0" name="31 (Ch11)" type="0" muted="0">
        <instrumenttrack usemasterpitch="1" pitch="0.0" basenote="57" pan="0" pitchrange="12" vol="30">
          <eldata />
          <instrument name="tripleoscillator" />
        </instrumenttrack>
        <pattern pos="110592" muted="0" steps="16" name="" type="1">
          <note key="64" pos="144" pan="0" len="48" vol="47" />
          <note key="64" pos="576" pan="0" len="48" vol="100" />
          <note key="64" pos="912" pan="0" len="48" vol="47" />
          <note key="64" pos="1344" pan="0" len="48" vol="100" />
          <note key="64" pos="1680" pan="0" len="48" vol="47" />
          <note key="64" pos="2112" pan="0" len="48" vol="100" />
          <note key="64" pos="2448" pan="0" len="48" vol="47" />
          <note key="64" pos="2880" pan="0" len="48" vol="100" />
        </pattern>
        <pattern pos="92160" muted="0" steps="16" name="" type="1">
          <note key="64" pos="144" pan="0" len="48" vol="47" />
          <note key="64" pos="576" pan="0" len="48" vol="100" />
          <note key="64" pos="912" pan="0" len="48" vol="47" />
          <note key="64" pos="1344" pan="0" len="48" vol="100" />
          <note key="64" pos="1680" pan="0" len="48" vol="47" />
          <note key="64" pos="2112" pan="0" len="48" vol="100" />
          <note key="64" pos="2448" pan="0" len="48" vol="47" />
          <note key="64" pos="2880" pan="0" len="48" vol="100" />
        </pattern>
        <pattern pos="95232" muted="0" steps="16" name="" type="1">
          <note key="64" pos="144" pan="0" len="48" vol="47" />
          <note key="64" pos="576" pan="0" len="48" vol="100" />
          <note key="64" pos="912" pan="0" len="48" vol="47" />
          <note key="64" pos="1344" pan="0" len="48" vol="100" />
          <note key="64" pos="1680" pan="0" len="48" vol="47" />
          <note key="64" pos="2112" pan="0" len="48" vol="100" />
        </pattern>
      </track>
      <track solo="0" name="31 (Ch12)" type="0" muted="0">
        <instrumenttrack usemasterpitch="1" pitch="0.0" basenote="57" pan="0" pitchrange="12" vol="30">
          <eldata />
          <instrument name="tripleoscillator" />
        </instrumenttrack>
        <pattern pos="12288" muted="0" steps="16" name="" type="1">
          <note key="53" pos="24" pan="0" len="24" vol="9" />
          <note key="53" pos="48" pan="0" len="24" vol="25" />
          <note key="53" pos="72" pan="0" len="24" vol="9" />
          <note key="53" pos="120" pan="0" len="24" vol="9" />
          <note key="53" pos="144" pan="0" len="24" vol="25" />
          <note key="53" pos="168" pan="0" len="24" vol="9" />
          <note key="53" pos="216" pan="0" len="24" vol="9" />
          <note key="53" pos="240" pan="0" len="24" vol="25" />
          <note key="53" pos="264" pan="0" len="24" vol="9" />
          <note key="53" pos="312" pan="0" len="24" vol="9" />
          <note key="53" pos="336" pan="0" len="24" vol="25" />
          <note key="53" pos="360" pan="0" len="24" vol="9" />
          <note key="53" pos="408" pan="0" len="24" vol="9" />
          <note key="53" pos="432" pan="0" len="24" vol="25" />
          <note key="53" pos="456" pan="0" len="24" vol="9" />
          <note key="53" pos="504" pan="0" len="24" vol="9" />
          <note key="53" pos="528" pan="0" len="24" vol="25" />
          <note key="53" pos="552" pan="0" len="24" vol="9" />
          <note key="53" pos="600" pan="0" len="24" vol="9" />
          <note key="53" pos="624" pan="0" len="24" vol="25" />
          <note key="53" pos="648" pan="0" len="24" vol="9" />
          <note key="53" pos="696" pan="0" len="24" vol="9" />
          <note key="53" pos="720" pan="0" len="24" vol="25" />
          <note key="53" pos="744" pan="0" len="24" vol="9" />
          <note key="53" pos="792" pan="0" len="24" vol="9" />
          <note key="53" pos="816" pan="0" len="24" vol="25" />
          <note key="53" pos="840" pan="0" len="24" vol="9" />
          <note key="53" pos="888" pan="0" len="24" vol="9" />
          <note key="53" pos="912" pan="0" len="24" vol="25" />
          <note key="53" pos="936" pan="0" len="24" vol="9" />
          <note key="53" pos="984" pan="0" len="24" vol="9" />
          <note key="53" pos="1008" pan="0" len="24" vol="25" />
          <note key="53" pos="1032" pan="0" len="24" vol="9" />
          <note key="53" pos="1080" pan="0" len="24" vol="9" />
          <note key="53" pos="1104" pan="0" len="24" vol="25" />
          <note key="53" pos="1128" pan="0" len="24" vol="9" />
          <note key="53" pos="1176" pan="0" len="24" vol="9" />
          <note key="53" pos="1200" pan="0" len="24" vol="25" />
          <note key="53" pos="1224" pan="0" len="24" vol="9" />
          <note key="53" pos="1272" pan="0" len="24" vol="9" />
          <note key="53" pos="1296" pan="0" len="24" vol="25" />
          <note key="53" pos="1320" pan="0" len="24" vol="9" />
          <note key="53" pos="1368" pan="0" len="24" vol="9" />
          <note key="53" pos="1392" pan="0" len="24" vol="25" />
          <note key="53" pos="1416" pan="0" len="24" vol="9" />
          <note key="53" pos="1464" pan="0" len="24" vol="9" />
          <note key="53" pos="1488" pan="0" len="24" vol="25" />
          <note key="53" pos="1512" pan="0" len="24" vol="9" />
          <note key="53" pos="1560" pan="0" len="24" vol="9" />
          <note key="53" pos="1584" pan="0" len="24" vol="25" />
          <note key="53" pos="1608" pan="0" len="24" vol="9" />
          <note key="53" pos="1656" pan="0" len="24" vol="9" />
          <note key="53" pos="1680" pan="0" len="24" vol="25" />
          <note key="53" pos="1704" pan="0" len="24" vol="9" />
          <note key="53" pos="1752" pan="0" len="24" vol="9" />
          <note key="53" pos="1776" pan="0" len="24" vol="25" />
          <note key="53" pos="1800" pan="0" len="24" vol="9" />
          <note key="53" pos="1848" pan="0" len="24" vol="9" />
          <note key="53" pos="1872" pan="0" len="24" vol="25" />
          <note key="53" pos="1896" pan="0" len="24" vol="9" />
          <note key="53" pos="1944" pan="0" len="24" vol="9" />
          <note key="53" pos="1968" pan="0" len="24" vol="25" />
          <note key="53" pos="1992" pan="0" len="24" vol="9" />
          <note key="53" pos="2040" pan="0" len="24" vol="9" />
          <note key="53" pos="2064" pan="0" len="24" vol="25" />
          <note key="53" pos="2088" pan="0" len="24" vol="9" />
          <note key="53" pos="2136" pan="0" len="24" vol="9" />
          <note key="53" pos="2160" pan="0" len="24" vol="25" />
          <note key="53" pos="2184" pan="0" len="24" vol="9" />
          <note key="53" pos="2232" pan="0" len="24" vol="9" />
          <note key="53" pos="2256" pan="0" len="24" vol="25" />
          <note key="53" pos="2280" pan="0" len="24" vol="9" />
          <note key="53" pos="2328" pan="0" len="24" vol="9" />
          <note key="53" pos="2352" pan="0" len="24" vol="25" />
          <note key="53" pos="2376" pan="0" len="24" vol="9" />
          <note key="53" pos="2424" pan="0" len="24" vol="9" />
          <note key="53" pos="2448" pan="0" len="24" vol="25" />
          <note key="53" pos="2472" pan="0" len="24" vol="9" />
          <note key="53" pos="2520" pan="0" len="24" vol="9" />
          <note key="53" pos="2544" pan="0" len="24" vol="25" />
          <note key="53" pos="2568" pan="0" len="24" vol="9" />
          <note key="53" pos="2616" pan="0" len="24" vol="9" />
          <note key="53" pos="2640" pan="0" len="24" vol="25" />
          <note key="53" pos="2664" pan="0" len="24" vol="9" />
          <note key="53" pos="2712" pan="0" len="24" vol="9" />
          <note key="53" pos="2736" pan="0" len="24" vol="25" />
          <note key="53" pos="2760" pan="0" len="24" vol="9" />
          <note key="53" pos="2808" pan="0" len="24" vol="9" />
          <note key="53" pos="2832" pan="0" len="24" vol="25" />
          <note key="53" pos="2856" pan="0" len="24" vol="9" />
        </pattern>
        <pattern pos="7680" muted="0" steps="16" name="" type="1">
          <note key="53" pos="24" pan="0" len="24" vol="9" />
          <note key="53" pos="48" pan="0" len="24" vol="25" />
          <note key="53" pos="72" pan="0" len="24" vol="9" />
          <note key="53" pos="120" pan="0" len="24" vol="9" />
          <note key="53" pos="144" pan="0" len="24" vol="25" />
          <note key="53" pos="168" pan="0" len="24" vol="9" />
          <note key="53" pos="216" pan="0" len="24" vol="9" />
          <note key="53" pos="240" pan="0" len="24" vol="25" />
          <note key="53" pos="264" pan="0" len="24" vol="9" />
          <note key="53" pos="312" pan="0" len="24" vol="9" />
          <note key="53" pos="336" pan="0" len="24" vol="25" />
          <note key="53" pos="360" pan="0" len="24" vol="9" />
          <note key="53" pos="408" pan="0" len="24" vol="9" />
          <note key="53" pos="432" pan="0" len="24" vol="25" />
          <note key="53" pos="456" pan="0" len="24" vol="9" />
          <note key="53" pos="504" pan="0" len="24" vol="9" />
          <note key="53" pos="528" pan="0" len="24" vol="25" />
          <note key="53" pos="552" pan="0" len="24" vol="9" />
          <note key="53" pos="600" pan="0" len="24" vol="9" />
          <note key="53" pos="624" pan="0" len="24" vol="25" />
          <note key="53" pos="648" pan="0" len="24" vol="9" />
          <note key="53" pos="696" pan="0" len="24" vol="9" />
          <note key="53" pos="720" pan="0" len="24" vol="25" />
          <note key="53" pos="744" pan="0" len="24" vol="9" />
          <note key="53" pos="792" pan="0" len="24" vol="9" />
          <note key="53" pos="816" pan="0" len="24" vol="25" />
          <note key="53" pos="840" pan="0" len="24" vol="9" />
          <note key="53" pos="888" pan="0" len="24" vol="9" />
          <note key="53" pos="912" pan="0" len="24" vol="25" />
          <note key="53" pos="936" pan="0" len="24" vol="9" />
          <note key="53" pos="984" pan="0" len="24" vol="9" />
          <note key="53" pos="1008" pan="0" len="24" vol="25" />
          <note key="53" pos="1032" pan="0" len="24" vol="9" />
          <note key="53" pos="1080" pan="0" len="24" vol="9" />
          <note key="53" pos="1104" pan="0" len="24" vol="25" />
          <note key="53" pos="1128" pan="0" len="24" vol="9" />
          <note key="53" pos="1176" pan="0" len="24" vol="9" />
          <note key="53" pos="1200" pan="0" len="24" vol="25" />
          <note key="53" pos="1224" pan="0" len="24" vol="9" />
          <note key="53" pos="1272" pan="0" len="24" vol="9" />
          <note key="53" pos="1296" pan="0" len="24" vol="25" />
          <note key="53" pos="1320" pan="0" len="24" vol="9" />
          <note key="53" pos="1368" pan="0" len="24" vol="9" />
          <note key="53" pos="1392" pan="0" len="24" vol="25" />
          <note key="53" pos="1416" pan="0" len="24" vol="9" />
          <note key="53" pos="1464" pan="0" len="24" vol="9" />
          <note key="53" pos="1488" pan="0" len="24" vol="25" />
          <note key="53" pos="1512" pan="0" len="24" vol="9" />
          <note key="53" pos="1560" pan="0" len="24" vol="9" />
          <note key="53" pos="1584" pan="0" len="24" vol="25" />
          <note key="53" pos="1608" pan="0" len="24" vol="9" />
          <note key="53" pos="1656" pan="0" len="24" vol="9" />
          <note key="53" pos="1680" pan="0" len="24" vol="25" />
          <note key="53" pos="1704" pan="0" len="24" vol="9" />
          <note key="53" pos="1752" pan="0" len="24" vol="9" />
          <note key="53" pos="1776" pan="0" len="24" vol="25" />
          <note key="53" pos="1800" pan="0" len="24" vol="9" />
          <note key="53" pos="1848" pan="0" len="24" vol="9" />
          <note key="53" pos="1872" pan="0" len="24" vol="25" />
          <note key="53" pos="1896" pan="0" len="24" vol="9" />
          <note key="53" pos="1944" pan="0" len="24" vol="9" />
          <note key="53" pos="1968" pan="0" len="24" vol="25" />
          <note key="53" pos="1992" pan="0" len="24" vol="9" />
          <note key="53" pos="2040" pan="0" len="24" vol="9" />
          <note key="53" pos="2064" pan="0" len="24" vol="25" />
          <note key="53" pos="2088" pan="0" len="24" vol="9" />
          <note key="53" pos="2136" pan="0" len="24" vol="9" />
          <note key="53" pos="2160" pan="0" len="24" vol="25" />
          <note key="53" pos="2184" pan="0" len="24" vol="9" />
          <note key="53" pos="2232" pan="0" len="24" vol="9" />
          <note key="53" pos="2256" pan="0" len="24" vol="25" />
          <note key="53" pos="2280" pan="0" len="24" vol="9" />
          <note key="53" pos="2328" pan="0" len="24" vol="9" />
          <note key="53" pos="2352" pan="0" len="24" vol="25" />
          <note key="53" pos="2376" pan="0" len="24" vol="9" />
          <note key="53" pos="2424" pan="0" len="24" vol="9" />
          <note key="53" pos="2448" pan="0" len="24" vol="25" />
          <note key="53" pos="2472" pan="0" len="24" vol="9" />
          <note key="53" pos="2520" pan="0" len="24" vol="9" />
          <note key="53" pos="2544" pan="0" len="24" vol="25" />
          <note key="53" pos="2568" pan="0" len="24" vol="9" />
          <note key="53" pos="2616" pan="0" len="24" vol="9" />
          <note key="53" pos="2640" pan="0" len="24" vol="25" />
          <note key="53" pos="2664" pan="0" len="24" vol="9" />
          <note key="53" pos="2712" pan="0" len="24" vol="9" />
          <note key="53" pos="2736" pan="0" len="24" vol="25" />
          <note key="53" pos="2760" pan="0" len="24" vol="9" />
          <note key="53" pos="2808" pan="0" len="24" vol="9" />
          <note key="53" pos="2832" pan="0" len="24" vol="25" />
          <note key="53" pos="2856" pan="0" len="24" vol="9" />
          <note key="53" pos="2904" pan="0" len="24" vol="9" />
          <note key="53" pos="2928" pan="0" len="24" vol="25" />
          <note key="53" pos="2952" pan="0" len="24" vol="9" />
          <note key="53" pos="3000" pan="0" len="24" vol="9" />
          <note key="53" pos="3024" pan="0" len="24" vol="25" />
          <note key="53" pos="3048" pan="0" len="24" vol="9" />
        </pattern>
        <pattern pos="10752" muted="0" steps="16" name="" type="1">
          <note key="53" pos="24" pan="0" len="24" vol="9" />
          <note key="53" pos="48" pan="0" len="24" vol="25" />
          <note key="53" pos="72" pan="0" len="24" vol="9" />
          <note key="53" pos="120" pan="0" len="24" vol="9" />
          <note key="53" pos="144" pan="0" len="24" vol="25" />
          <note key="53" pos="168" pan="0" len="24" vol="9" />
          <note key="53" pos="216" pan="0" len="24" vol="9" />
          <note key="53" pos="240" pan="0" len="24" vol="25" />
          <note key="53" pos="264" pan="0" len="24" vol="9" />
          <note key="53" pos="312" pan="0" len="24" vol="9" />
          <note key="53" pos="336" pan="0" len="24" vol="25" />
          <note key="53" pos="360" pan="0" len="24" vol="9" />
          <note key="53" pos="408" pan="0" len="24" vol="9" />
          <note key="53" pos="432" pan="0" len="24" vol="25" />
          <note key="53" pos="456" pan="0" len="24" vol="9" />
          <note key="53" pos="504" pan="0" len="24" vol="9" />
          <note key="53" pos="528" pan="0" len="24" vol="25" />
          <note key="53" pos="552" pan="0" len="24" vol="9" />
          <note key="53" pos="600" pan="0" len="24" vol="9" />
          <note key="53" pos="624" pan="0" len="24" vol="25" />
          <note key="53" pos="648" pan="0" len="24" vol="9" />
          <note key="53" pos="696" pan="0" len="24" vol="9" />
          <note key="53" pos="720" pan="0" len="24" vol="25" />
          <note key="53" pos="744" pan="0" len="24" vol="9" />
          <note key="53" pos="792" pan="0" len="24" vol="9" />
          <note key="53" pos="816" pan="0" len="24" vol="25" />
          <note key="53" pos="840" pan="0" len="24" vol="9" />
          <note key="53" pos="888" pan="0" len="24" vol="9" />
          <note key="53" pos="912" pan="0" len="24" vol="25" />
          <note key="53" pos="936" pan="0" len="24" vol="9" />
          <note key="53" pos="984" pan="0" len="24" vol="9" />
          <note key="53" pos="1008" pan="0" len="24" vol="25" />
          <note key="53" pos="1032" pan="0" len="24" vol="9" />
          <note key="53" pos="1080" pan="0" len="24" vol="9" />
          <note key="53" pos="1104" pan="0" len="24" vol="25" />
          <note key="53" pos="1128" pan="0" len="24" vol="9" />
          <note key="53" pos="1176" pan="0" len="24" vol="9" />
          <note key="53" pos="1200" pan="0" len="24" vol="25" />
          <note key="53" pos="1224" pan="0" len="24" vol="9" />
          <note key="53" pos="1272" pan="0" len="24" vol="9" />
          <note key="53" pos="1296" pan="0" len="24" vol="25" />
          <note key="53" pos="1320" pan="0" len="24" vol="9" />
          <note key="53" pos="1368" pan="0" len="24" vol="9" />
          <note key="53" pos="1392" pan="0" len="24" vol="25" />
          <note key="53" pos="1416" pan="0" len="24" vol="9" />
          <note key="53" pos="1464" pan="0" len="24" vol="9" />
          <note key="53" pos="1488" pan="0" len="24" vol="25" />
          <note key="53" pos="1512" pan="0" len="24" vol="9" />
        </pattern>
      </track>
      <track solo="0" name="31 (Ch15)" type="0" muted="0">
        <instrumenttrack usemasterpitch="1" pitch="0.0" basenote="57" pan="0" pitchrange="12" vol="30">
          <eldata />
          <instrument name="tripleoscillator" />
        </instrumenttrack>
        <pattern pos="99840" muted="0" steps="16" name="" type="1">
          <note key="64" pos="144" pan="0" len="48" vol="47" />
          <note key="64" pos="576" pan="0" len="48" vol="100" />
          <note key="64" pos="912" pan="0" len="48" vol="47" />
          <note key="64" pos="1344" pan="0" len="48" vol="100" />
        </pattern>
        <pattern pos="97536" muted="0" steps="16" name="" type="1">
          <note key="64" pos="144" pan="0" len="48" vol="47" />
          <note key="64" pos="576" pan="0" len="48" vol="100" />
        </pattern>
        <pattern pos="98304" muted="0" steps="16" name="" type="1">
          <note key="64" pos="144" pan="0" len="48" vol="47" />
          <note key="64" pos="576" pan="0" len="48" vol="100" />
          <note key="64" pos="912" pan="0" len="48" vol="47" />
          <note key="64" pos="1344" pan="0" len="48" vol="100" />
        </pattern>
      </track>
      <track solo="0" name="31 (Ch18)" type="0" muted="0">
        <instrumenttrack usemasterpitch="1" pitch="0.0" basenote="57" pan="0" pitchrange="12" vol="30">
          <eldata />
          <instrument name="tripleoscillator" />
        </instrumenttrack>
        <pattern pos="99840" muted="0" steps="16" name="" type="1">
          <note key="64" pos="168" pan="0" len="48" vol="23" />
          <note key="64" pos="600" pan="0" len="48" vol="50" />
          <note key="64" pos="936" pan="0" len="48" vol="23" />
          <note key="64" pos="1368" pan="0" len="48" vol="50" />
        </pattern>
        <pattern pos="98304" muted="0" steps="16" name="" type="1">
          <note key="64" pos="168" pan="0" len="48" vol="23" />
          <note key="64" pos="600" pan="0" len="48" vol="50" />
          <note key="64" pos="936" pan="0" len="48" vol="23" />
          <note key="64" pos="1368" pan="0" len="48" vol="50" />
        </pattern>
      </track>
      <track solo="0" name="32 (Ch11)" type="0" muted="0">
        <instrumenttrack usemasterpitch="1" pitch="0.0" basenote="57" pan="0" pitchrange="12" vol="30">
          <eldata />
          <instrument name="tripleoscillator" />
        </instrumenttrack>
        <pattern pos="110592" muted="0" steps="16" name="" type="1">
          <note key="64" pos="192" pan="0" len="48" vol="100" />
          <note key="64" pos="552" pan="0" len="24" vol="62" />
          <note key="64" pos="960" pan="0" len="48" vol="100" />
          <note key="64" pos="1320" pan="0" len="24" vol="62" />
          <note key="64" pos="1728" pan="0" len="48" vol="100" />
          <note key="64" pos="2088" pan="0" len="24" vol="62" />
          <note key="64" pos="2496" pan="0" len="48" vol="100" />
          <note key="64" pos="2856" pan="0" len="24" vol="62" />
        </pattern>
        <pattern pos="92160" muted="0" steps="16" name="" type="1">
          <note key="64" pos="192" pan="0" len="48" vol="100" />
          <note key="64" pos="552" pan="0" len="24" vol="62" />
          <note key="64" pos="960" pan="0" len="48" vol="100" />
          <note key="64" pos="1320" pan="0" len="24" vol="62" />
          <note key="64" pos="1728" pan="0" len="48" vol="100" />
          <note key="64" pos="2088" pan="0" len="24" vol="62" />
          <note key="64" pos="2496" pan="0" len="48" vol="100" />
          <note key="64" pos="2856" pan="0" len="24" vol="62" />
        </pattern>
        <pattern pos="95232" muted="0" steps="16" name="" type="1">
          <note key="64" pos="192" pan="0" len="48" vol="100" />
          <note key="64" pos="552" pan="0" len="24" vol="62" />
          <note key="64" pos="960" pan="0" len="48" vol="100" />
          <note key="64" pos="1320" pan="0" len="24" vol="62" />
          <note key="64" pos="1728" pan="0" len="48" vol="100" />
          <note key="64" pos="2088" pan="0" len="24" vol="62" />
        </pattern>
      </track>
      <track solo="0" name="32 (Ch14)" type="0" muted="0">
        <instrumenttrack usemasterpitch="1" pitch="0.0" basenote="57" pan="0" pitchrange="12" vol="30">
          <eldata />
          <instrument name="tripleoscillator" />
        </instrumenttrack>
        <pattern pos="109056" muted="0" steps="16" name="" type="1">
          <note key="65" pos="0" pan="0" len="24" vol="100" />
          <note key="65" pos="24" pan="0" len="12" vol="23" />
          <note key="60" pos="36" pan="0" len="12" vol="47" />
          <note key="65" pos="48" pan="0" len="12" vol="100" />
          <note key="60" pos="60" pan="0" len="12" vol="62" />
          <note key="65" pos="72" pan="0" len="12" vol="23" />
          <note key="60" pos="84" pan="0" len="12" vol="47" />
          <note key="65" pos="96" pan="0" len="24" vol="100" />
          <note key="65" pos="120" pan="0" len="12" vol="23" />
          <note key="60" pos="132" pan="0" len="12" vol="47" />
          <note key="65" pos="144" pan="0" len="12" vol="100" />
          <note key="60" pos="156" pan="0" len="12" vol="62" />
          <note key="65" pos="168" pan="0" len="12" vol="23" />
          <note key="60" pos="180" pan="0" len="12" vol="47" />
          <note key="65" pos="192" pan="0" len="24" vol="100" />
          <note key="65" pos="216" pan="0" len="12" vol="23" />
          <note key="60" pos="228" pan="0" len="12" vol="47" />
          <note key="65" pos="240" pan="0" len="12" vol="100" />
          <note key="60" pos="252" pan="0" len="12" vol="62" />
          <note key="65" pos="264" pan="0" len="12" vol="23" />
          <note key="60" pos="276" pan="0" len="12" vol="47" />
          <note key="65" pos="288" pan="0" len="24" vol="100" />
          <note key="65" pos="312" pan="0" len="12" vol="23" />
          <note key="60" pos="324" pan="0" len="12" vol="47" />
          <note key="65" pos="336" pan="0" len="12" vol="100" />
          <note key="60" pos="348" pan="0" len="12" vol="62" />
          <note key="65" pos="360" pan="0" len="12" vol="23" />
          <note key="60" pos="372" pan="0" len="12" vol="47" />
          <note key="65" pos="384" pan="0" len="24" vol="100" />
          <note key="65" pos="408" pan="0" len="12" vol="23" />
          <note key="60" pos="420" pan="0" len="12" vol="47" />
          <note key="65" pos="432" pan="0" len="12" vol="100" />
          <note key="60" pos="444" pan="0" len="12" vol="62" />
          <note key="65" pos="456" pan="0" len="12" vol="23" />
          <note key="60" pos="468" pan="0" len="12" vol="47" />
          <note key="65" pos="480" pan="0" len="24" vol="100" />
          <note key="65" pos="504" pan="0" len="12" vol="23" />
          <note key="60" pos="516" pan="0" len="12" vol="47" />
          <note key="65" pos="528" pan="0" len="12" vol="100" />
          <note key="60" pos="540" pan="0" len="12" vol="62" />
          <note key="65" pos="552" pan="0" len="12" vol="23" />
          <note key="60" pos="564" pan="0" len="12" vol="47" />
          <note key="65" pos="576" pan="0" len="24" vol="100" />
          <note key="65" pos="600" pan="0" len="12" vol="23" />
          <note key="60" pos="612" pan="0" len="12" vol="47" />
          <note key="65" pos="624" pan="0" len="12" vol="100" />
          <note key="60" pos="636" pan="0" len="12" vol="62" />
          <note key="65" pos="648" pan="0" len="12" vol="23" />
          <note key="60" pos="660" pan="0" len="12" vol="47" />
          <note key="65" pos="672" pan="0" len="24" vol="100" />
          <note key="65" pos="696" pan="0" len="12" vol="23" />
          <note key="60" pos="708" pan="0" len="12" vol="47" />
          <note key="65" pos="720" pan="0" len="12" vol="100" />
          <note key="60" pos="732" pan="0" len="12" vol="62" />
          <note key="65" pos="744" pan="0" len="12" vol="23" />
          <note key="60" pos="756" pan="0" len="12" vol="47" />
          <note key="65" pos="768" pan="0" len="24" vol="100" />
          <note key="65" pos="792" pan="0" len="12" vol="23" />
          <note key="60" pos="804" pan="0" len="12" vol="47" />
          <note key="65" pos="816" pan="0" len="12" vol="100" />
          <note key="60" pos="828" pan="0" len="12" vol="62" />
          <note key="65" pos="840" pan="0" len="12" vol="23" />
          <note key="60" pos="852" pan="0" len="12" vol="47" />
          <note key="65" pos="864" pan="0" len="24" vol="100" />
          <note key="65" pos="888" pan="0" len="12" vol="23" />
          <note key="60" pos="900" pan="0" len="12" vol="47" />
          <note key="65" pos="912" pan="0" len="12" vol="100" />
          <note key="60" pos="924" pan="0" len="12" vol="62" />
          <note key="65" pos="936" pan="0" len="12" vol="23" />
          <note key="60" pos="948" pan="0" len="12" vol="47" />
          <note key="65" pos="960" pan="0" len="24" vol="100" />
          <note key="65" pos="984" pan="0" len="12" vol="23" />
          <note key="60" pos="996" pan="0" len="12" vol="47" />
          <note key="65" pos="1008" pan="0" len="12" vol="100" />
          <note key="60" pos="1020" pan="0" len="12" vol="62" />
          <note key="65" pos="1032" pan="0" len="12" vol="23" />
          <note key="60" pos="1044" pan="0" len="12" vol="47" />
          <note key="65" pos="1056" pan="0" len="24" vol="100" />
          <note key="65" pos="1080" pan="0" len="12" vol="23" />
          <note key="60" pos="1092" pan="0" len="12" vol="47" />
          <note key="65" pos="1104" pan="0" len="12" vol="100" />
          <note key="60" pos="1116" pan="0" len="12" vol="62" />
          <note key="65" pos="1128" pan="0" len="12" vol="23" />
          <note key="60" pos="1140" pan="0" len="12" vol="47" />
          <note key="65" pos="1152" pan="0" len="24" vol="100" />
          <note key="65" pos="1176" pan="0" len="12" vol="23" />
          <note key="60" pos="1188" pan="0" len="12" vol="47" />
          <note key="65" pos="1200" pan="0" len="12" vol="100" />
          <note key="60" pos="1212" pan="0" len="12" vol="62" />
          <note key="65" pos="1224" pan="0" len="12" vol="23" />
          <note key="60" pos="1236" pan="0" len="12" vol="47" />
          <note key="65" pos="1248" pan="0" len="24" vol="100" />
          <note key="65" pos="1272" pan="0" len="12" vol="23" />
          <note key="60" pos="1284" pan="0" len="12" vol="47" />
          <note key="65" pos="1296" pan="0" len="12" vol="100" />
          <note key="60" pos="1308" pan="0" len="12" vol="62" />
          <note key="65" pos="1320" pan="0" len="12" vol="23" />
          <note key="60" pos="1332" pan="0" len="12" vol="47" />
          <note key="65" pos="1344" pan="0" len="24" vol="100" />
          <note key="65" pos="1368" pan="0" len="12" vol="23" />
          <note key="60" pos="1380" pan="0" len="12" vol="47" />
          <note key="65" pos="1392" pan="0" len="12" vol="100" />
          <note key="60" pos="1404" pan="0" len="12" vol="62" />
          <note key="65" pos="1416" pan="0" len="12" vol="23" />
          <note key="60" pos="1428" pan="0" len="12" vol="47" />
          <note key="65" pos="1440" pan="0" len="24" vol="100" />
          <note key="65" pos="1464" pan="0" len="12" vol="23" />
          <note key="60" pos="1476" pan="0" len="12" vol="47" />
          <note key="65" pos="1488" pan="0" len="12" vol="100" />
          <note key="60" pos="1500" pan="0" len="12" vol="62" />
          <note key="65" pos="1512" pan="0" len="12" vol="23" />
          <note key="60" pos="1524" pan="0" len="12" vol="47" />
        </pattern>
        <pattern pos="107520" muted="0" steps="16" name="" type="1">
          <note key="65" pos="0" pan="0" len="24" vol="100" />
          <note key="65" pos="24" pan="0" len="12" vol="23" />
          <note key="60" pos="36" pan="0" len="12" vol="47" />
          <note key="65" pos="48" pan="0" len="12" vol="100" />
          <note key="60" pos="60" pan="0" len="12" vol="62" />
          <note key="65" pos="72" pan="0" len="12" vol="23" />
          <note key="60" pos="84" pan="0" len="12" vol="47" />
          <note key="65" pos="96" pan="0" len="24" vol="100" />
          <note key="65" pos="120" pan="0" len="12" vol="23" />
          <note key="60" pos="132" pan="0" len="12" vol="47" />
          <note key="65" pos="144" pan="0" len="12" vol="100" />
          <note key="60" pos="156" pan="0" len="12" vol="62" />
          <note key="65" pos="168" pan="0" len="12" vol="23" />
          <note key="60" pos="180" pan="0" len="12" vol="47" />
          <note key="65" pos="192" pan="0" len="24" vol="100" />
          <note key="65" pos="216" pan="0" len="12" vol="23" />
          <note key="60" pos="228" pan="0" len="12" vol="47" />
          <note key="65" pos="240" pan="0" len="12" vol="100" />
          <note key="60" pos="252" pan="0" len="12" vol="62" />
          <note key="65" pos="264" pan="0" len="12" vol="23" />
          <note key="60" pos="276" pan="0" len="12" vol="47" />
          <note key="65" pos="288" pan="0" len="24" vol="100" />
          <note key="65" pos="312" pan="0" len="12" vol="23" />
          <note key="60" pos="324" pan="0" len="12" vol="47" />
          <note key="65" pos="336" pan="0" len="12" vol="100" />
          <note key="60" pos="348" pan="0" len="12" vol="62" />
          <note key="65" pos="360" pan="0" len="12" vol="23" />
          <note key="60" pos="372" pan="0" len="12" vol="47" />
          <note key="65" pos="384" pan="0" len="24" vol="100" />
          <note key="65" pos="408" pan="0" len="12" vol="23" />
          <note key="60" pos="420" pan="0" len="12" vol="47" />
          <note key="65" pos="432" pan="0" len="12" vol="100" />
          <note key="60" pos="444" pan="0" len="12" vol="62" />
          <note key="65" pos="456" pan="0" len="12" vol="23" />
          <note key="60" pos="468" pan="0" len="12" vol="47" />
          <note key="65" pos="480" pan="0" len="24" vol="100" />
          <note key="65" pos="504" pan="0" len="12" vol="23" />
          <note key="60" pos="516" pan="0" len="12" vol="47" />
          <note key="65" pos="528" pan="0" len="12" vol="100" />
          <note key="60" pos="540" pan="0" len="12" vol="62" />
          <note key="65" pos="552" pan="0" len="12" vol="23" />
          <note key="60" pos="564" pan="0" len="12" vol="47" />
          <note key="65" pos="576" pan="0" len="24" vol="100" />
          <note key="65" pos="600" pan="0" len="12" vol="23" />
          <note key="60" pos="612" pan="0" len="12" vol="47" />
          <note key="65" pos="624" pan="0" len="12" vol="100" />
          <note key="60" pos="636" pan="0" len="12" vol="62" />
          <note key="65" pos="648" pan="0" len="12" vol="23" />
          <note key="60" pos="660" pan="0" len="12" vol="47" />
          <note key="65" pos="672" pan="0" len="24" vol="100" />
          <note key="65" pos="696" pan="0" len="12" vol="23" />
          <note key="60" pos="708" pan="0" len="12" vol="47" />
          <note key="65" pos="720" pan="0" len="12" vol="100" />
          <note key="60" pos="732" pan="0" len="12" vol="62" />
          <note key="65" pos="744" pan="0" len="12" vol="23" />
          <note key="60" pos="756" pan="0" len="12" vol="47" />
          <note key="65" pos="768" pan="0" len="24" vol="100" />
          <note key="65" pos="792" pan="0" len="12" vol="23" />
          <note key="60" pos="804" pan="0" len="12" vol="47" />
          <note key="65" pos="816" pan="0" len="12" vol="100" />
          <note key="60" pos="828" pan="0" len="12" vol="62" />
          <note key="65" pos="840" pan="0" len="12" vol="23" />
          <note key="60" pos="852" pan="0" len="12" vol="47" />
          <note key="65" pos="864" pan="0" len="24" vol="100" />
          <note key="65" pos="888" pan="0" len="12" vol="23" />
          <note key="60" pos="900" pan="0" len="12" vol="47" />
          <note key="65" pos="912" pan="0" len="12" vol="100" />
          <note key="60" pos="924" pan="0" len="12" vol="62" />
          <note key="65" pos="936" pan="0" len="12" vol="23" />
          <note key="60" pos="948" pan="0" len="12" vol="47" />
          <note key="65" pos="960" pan="0" len="24" vol="100" />
          <note key="65" pos="984" pan="0" len="12" vol="23" />
          <note key="60" pos="996" pan="0" len="12" vol="47" />
          <note key="65" pos="1008" pan="0" len="12" vol="100" />
          <note key="60" pos="1020" pan="0" len="12" vol="62" />
          <note key="65" pos="1032" pan="0" len="12" vol="23" />
          <note key="60" pos="1044" pan="0" len="12" vol="47" />
          <note key="65" pos="1056" pan="0" len="24" vol="100" />
          <note key="65" pos="1080" pan="0" len="12" vol="23" />
          <note key="60" pos="1092" pan="0" len="12" vol="47" />
          <note key="65" pos="1104" pan="0" len="12" vol="100" />
          <note key="60" pos="1116" pan="0" len="12" vol="62" />
          <note key="65" pos="1128" pan="0" len="12" vol="23" />
          <note key="60" pos="1140" pan="0" len="12" vol="47" />
          <note key="65" pos="1152" pan="0" len="24" vol="100" />
          <note key="65" pos="1176" pan="0" len="12" vol="23" />
          <note key="60" pos="1188" pan="0" len="12" vol="47" />
          <note key="65" pos="1200" pan="0" len="12" vol="100" />
          <note key="60" pos="1212" pan="0" len="12" vol="62" />
          <note key="65" pos="1224" pan="0" len="12" vol="23" />
          <note key="60" pos="1236" pan="0" len="12" vol="47" />
          <note key="65" pos="1248" pan="0" len="24" vol="100" />
          <note key="65" pos="1272" pan="0" len="12" vol="23" />
          <note key="60" pos="1284" pan="0" len="12" vol="47" />
          <note key="65" pos="1296" pan="0" len="12" vol="100" />
          <note key="60" pos="1308" pan="0" len="12" vol="62" />
          <note key="65" pos="1320" pan="0" len="12" vol="23" />
          <note key="60" pos="1332" pan="0" len="12" vol="47" />
          <note key="65" pos="1344" pan="0" len="24" vol="100" />
          <note key="65" pos="1368" pan="0" len="12" vol="23" />
          <note key="60" pos="1380" pan="0" len="12" vol="47" />
          <note key="65" pos="1392" pan="0" len="12" vol="100" />
          <note key="60" pos="1404" pan="0" len="12" vol="62" />
          <note key="65" pos="1416" pan="0" len="12" vol="23" />
          <note key="60" pos="1428" pan="0" len="12" vol="47" />
          <note key="65" pos="1440" pan="0" len="24" vol="100" />
          <note key="65" pos="1464" pan="0" len="12" vol="23" />
          <note key="60" pos="1476" pan="0" len="12" vol="47" />
          <note key="65" pos="1488" pan="0" len="12" vol="100" />
          <note key="60" pos="1500" pan="0" len="12" vol="62" />
          <note key="65" pos="1512" pan="0" len="12" vol="23" />
          <note key="60" pos="1524" pan="0" len="12" vol="47" />
        </pattern>
      </track>
      <track solo="0" name="32 (Ch15)" type="0" muted="0">
        <instrumenttrack usemasterpitch="1" pitch="0.0" basenote="57" pan="0" pitchrange="12" vol="30">
          <eldata />
          <instrument name="tripleoscillator" />
        </instrumenttrack>
        <pattern pos="99840" muted="0" steps="16" name="" type="1">
          <note key="64" pos="192" pan="0" len="48" vol="100" />
          <note key="64" pos="552" pan="0" len="24" vol="62" />
          <note key="64" pos="960" pan="0" len="48" vol="100" />
          <note key="64" pos="1320" pan="0" len="24" vol="62" />
        </pattern>
        <pattern pos="97536" muted="0" steps="16" name="" type="1">
          <note key="64" pos="192" pan="0" len="48" vol="100" />
          <note key="64" pos="552" pan="0" len="24" vol="62" />
        </pattern>
        <pattern pos="98304" muted="0" steps="16" name="" type="1">
          <note key="64" pos="192" pan="0" len="48" vol="100" />
          <note key="64" pos="552" pan="0" len="24" vol="62" />
          <note key="64" pos="960" pan="0" len="48" vol="100" />
          <note key="64" pos="1320" pan="0" len="24" vol="62" />
        </pattern>
      </track>
      <track solo="0" name="32 (Ch18)" type="0" muted="0">
        <instrumenttrack usemasterpitch="1" pitch="0.0" basenote="57" pan="0" pitchrange="12" vol="30">
          <eldata />
          <instrument name="tripleoscillator" />
        </instrumenttrack>
        <pattern pos="99840" muted="0" steps="16" name="" type="1">
          <note key="64" pos="216" pan="0" len="48" vol="50" />
          <note key="64" pos="576" pan="0" len="24" vol="31" />
          <note key="64" pos="984" pan="0" len="48" vol="50" />
          <note key="64" pos="1344" pan="0" len="24" vol="31" />
        </pattern>
        <pattern pos="98304" muted="0" steps="16" name="" type="1">
          <note key="64" pos="216" pan="0" len="48" vol="50" />
          <note key="64" pos="576" pan="0" len="24" vol="31" />
          <note key="64" pos="984" pan="0" len="48" vol="50" />
          <note key="64" pos="1344" pan="0" len="24" vol="31" />
        </pattern>
      </track>
      <track solo="0" name="33 (Ch11)" type="0" muted="0">
        <instrumenttrack usemasterpitch="1" pitch="0.0" basenote="57" pan="0" pitchrange="12" vol="30">
          <eldata />
          <instrument name="tripleoscillator" />
        </instrumenttrack>
        <pattern pos="110592" muted="0" steps="16" name="" type="1">
          <note key="64" pos="240" pan="0" len="48" vol="47" />
          <note key="64" pos="528" pan="0" len="24" vol="31" />
          <note key="64" pos="1008" pan="0" len="48" vol="47" />
          <note key="64" pos="1296" pan="0" len="24" vol="31" />
          <note key="64" pos="1776" pan="0" len="48" vol="47" />
          <note key="64" pos="2064" pan="0" len="24" vol="31" />
          <note key="64" pos="2544" pan="0" len="48" vol="47" />
          <note key="64" pos="2832" pan="0" len="24" vol="31" />
        </pattern>
        <pattern pos="92160" muted="0" steps="16" name="" type="1">
          <note key="64" pos="240" pan="0" len="48" vol="47" />
          <note key="64" pos="528" pan="0" len="24" vol="31" />
          <note key="64" pos="1008" pan="0" len="48" vol="47" />
          <note key="64" pos="1296" pan="0" len="24" vol="31" />
          <note key="64" pos="1776" pan="0" len="48" vol="47" />
          <note key="64" pos="2064" pan="0" len="24" vol="31" />
          <note key="64" pos="2544" pan="0" len="48" vol="47" />
          <note key="64" pos="2832" pan="0" len="24" vol="31" />
        </pattern>
        <pattern pos="95232" muted="0" steps="16" name="" type="1">
          <note key="64" pos="240" pan="0" len="48" vol="47" />
          <note key="64" pos="528" pan="0" len="24" vol="31" />
          <note key="64" pos="1008" pan="0" len="48" vol="47" />
          <note key="64" pos="1296" pan="0" len="24" vol="31" />
          <note key="64" pos="1776" pan="0" len="48" vol="47" />
          <note key="64" pos="2064" pan="0" len="24" vol="31" />
        </pattern>
      </track>
      <track solo="0" name="33 (Ch12)" type="0" muted="0">
        <instrumenttrack usemasterpitch="1" pitch="0.0" basenote="57" pan="0" pitchrange="12" vol="30">
          <eldata />
          <instrument name="tripleoscillator" />
        </instrumenttrack>
        <pattern pos="12288" muted="0" steps="16" name="" type="1">
          <note key="53" pos="0" pan="0" len="24" vol="50" />
          <note key="53" pos="96" pan="0" len="24" vol="50" />
          <note key="53" pos="192" pan="0" len="24" vol="50" />
          <note key="53" pos="288" pan="0" len="24" vol="50" />
          <note key="53" pos="384" pan="0" len="24" vol="50" />
          <note key="53" pos="480" pan="0" len="24" vol="50" />
          <note key="53" pos="576" pan="0" len="24" vol="50" />
          <note key="53" pos="672" pan="0" len="24" vol="50" />
          <note key="53" pos="768" pan="0" len="24" vol="50" />
          <note key="53" pos="864" pan="0" len="24" vol="50" />
          <note key="53" pos="960" pan="0" len="24" vol="50" />
          <note key="53" pos="1056" pan="0" len="24" vol="50" />
          <note key="53" pos="1152" pan="0" len="24" vol="50" />
          <note key="53" pos="1248" pan="0" len="24" vol="50" />
          <note key="53" pos="1344" pan="0" len="24" vol="50" />
          <note key="53" pos="1440" pan="0" len="24" vol="50" />
          <note key="53" pos="1536" pan="0" len="24" vol="50" />
          <note key="53" pos="1632" pan="0" len="24" vol="50" />
          <note key="53" pos="1728" pan="0" len="24" vol="50" />
          <note key="53" pos="1824" pan="0" len="24" vol="50" />
          <note key="53" pos="1920" pan="0" len="24" vol="50" />
          <note key="53" pos="2016" pan="0" len="24" vol="50" />
          <note key="53" pos="2112" pan="0" len="24" vol="50" />
          <note key="53" pos="2208" pan="0" len="24" vol="50" />
          <note key="53" pos="2304" pan="0" len="24" vol="50" />
          <note key="53" pos="2400" pan="0" len="24" vol="50" />
          <note key="53" pos="2496" pan="0" len="24" vol="50" />
          <note key="53" pos="2592" pan="0" len="24" vol="50" />
          <note key="53" pos="2688" pan="0" len="24" vol="50" />
          <note key="53" pos="2784" pan="0" len="24" vol="50" />
          <note key="53" pos="2880" pan="0" len="192" vol="50" />
        </pattern>
        <pattern pos="7680" muted="0" steps="16" name="" type="1">
          <note key="53" pos="0" pan="0" len="24" vol="50" />
          <note key="53" pos="96" pan="0" len="24" vol="50" />
          <note key="53" pos="192" pan="0" len="24" vol="50" />
          <note key="53" pos="288" pan="0" len="24" vol="50" />
          <note key="53" pos="384" pan="0" len="24" vol="50" />
          <note key="53" pos="480" pan="0" len="24" vol="50" />
          <note key="53" pos="576" pan="0" len="24" vol="50" />
          <note key="53" pos="672" pan="0" len="24" vol="50" />
          <note key="53" pos="768" pan="0" len="24" vol="50" />
          <note key="53" pos="864" pan="0" len="24" vol="50" />
          <note key="53" pos="960" pan="0" len="24" vol="50" />
          <note key="53" pos="1056" pan="0" len="24" vol="50" />
          <note key="53" pos="1152" pan="0" len="24" vol="50" />
          <note key="53" pos="1248" pan="0" len="24" vol="50" />
          <note key="53" pos="1344" pan="0" len="24" vol="50" />
          <note key="53" pos="1440" pan="0" len="24" vol="50" />
          <note key="53" pos="1536" pan="0" len="24" vol="50" />
          <note key="53" pos="1632" pan="0" len="24" vol="50" />
          <note key="53" pos="1728" pan="0" len="24" vol="50" />
          <note key="53" pos="1824" pan="0" len="24" vol="50" />
          <note key="53" pos="1920" pan="0" len="24" vol="50" />
          <note key="53" pos="2016" pan="0" len="24" vol="50" />
          <note key="53" pos="2112" pan="0" len="24" vol="50" />
          <note key="53" pos="2208" pan="0" len="24" vol="50" />
          <note key="53" pos="2304" pan="0" len="24" vol="50" />
          <note key="53" pos="2400" pan="0" len="24" vol="50" />
          <note key="53" pos="2496" pan="0" len="24" vol="50" />
          <note key="53" pos="2592" pan="0" len="24" vol="50" />
          <note key="53" pos="2688" pan="0" len="24" vol="50" />
          <note key="53" pos="2784" pan="0" len="24" vol="50" />
          <note key="53" pos="2880" pan="0" len="24" vol="50" />
          <note key="53" pos="2976" pan="0" len="24" vol="50" />
        </pattern>
        <pattern pos="10752" muted="0" steps="16" name="" type="1">
          <note key="53" pos="0" pan="0" len="24" vol="50" />
          <note key="53" pos="96" pan="0" len="24" vol="50" />
          <note key="53" pos="192" pan="0" len="24" vol="50" />
          <note key="53" pos="288" pan="0" len="24" vol="50" />
          <note key="53" pos="384" pan="0" len="24" vol="50" />
          <note key="53" pos="480" pan="0" len="24" vol="50" />
          <note key="53" pos="576" pan="0" len="24" vol="50" />
          <note key="53" pos="672" pan="0" len="24" vol="50" />
          <note key="53" pos="768" pan="0" len="24" vol="50" />
          <note key="53" pos="864" pan="0" len="24" vol="50" />
          <note key="53" pos="960" pan="0" len="24" vol="50" />
          <note key="53" pos="1056" pan="0" len="24" vol="50" />
          <note key="53" pos="1152" pan="0" len="24" vol="50" />
          <note key="53" pos="1248" pan="0" len="24" vol="50" />
          <note key="53" pos="1344" pan="0" len="24" vol="50" />
          <note key="53" pos="1440" pan="0" len="24" vol="50" />
        </pattern>
      </track>
      <track solo="0" name="33 (Ch14)" type="0" muted="0">
        <instrumenttrack usemasterpitch="1" pitch="0.0" basenote="57" pan="0" pitchrange="12" vol="30">
          <eldata />
          <instrument name="tripleoscillator" />
        </instrumenttrack>
        <pattern pos="198924" muted="0" steps="16" name="" type="1">
          <note key="60" pos="132" pan="0" len="12" vol="100" />
          <note key="60" pos="324" pan="0" len="12" vol="100" />
          <note key="60" pos="516" pan="0" len="12" vol="100" />
          <note key="60" pos="708" pan="0" len="12" vol="100" />
          <note key="60" pos="900" pan="0" len="12" vol="100" />
          <note key="60" pos="1092" pan="0" len="12" vol="100" />
          <note key="60" pos="1284" pan="0" len="12" vol="100" />
          <note key="60" pos="1476" pan="0" len="12" vol="100" />
        </pattern>
        <pattern pos="192780" muted="0" steps="16" name="" type="1">
          <note key="60" pos="132" pan="0" len="12" vol="100" />
          <note key="60" pos="324" pan="0" len="12" vol="100" />
          <note key="60" pos="516" pan="0" len="12" vol="100" />
          <note key="60" pos="708" pan="0" len="12" vol="100" />
          <note key="60" pos="900" pan="0" len="12" vol="100" />
          <note key="60" pos="1092" pan="0" len="12" vol="100" />
          <note key="60" pos="1284" pan="0" len="12" vol="100" />
          <note key="60" pos="1476" pan="0" len="12" vol="100" />
        </pattern>
        <pattern pos="194316" muted="0" steps="16" name="" type="1">
          <note key="60" pos="132" pan="0" len="12" vol="100" />
          <note key="60" pos="324" pan="0" len="12" vol="100" />
          <note key="60" pos="516" pan="0" len="12" vol="100" />
          <note key="60" pos="708" pan="0" len="12" vol="100" />
          <note key="60" pos="900" pan="0" len="12" vol="100" />
          <note key="60" pos="1092" pan="0" len="12" vol="100" />
          <note key="60" pos="1284" pan="0" len="12" vol="100" />
          <note key="60" pos="1476" pan="0" len="12" vol="100" />
        </pattern>
        <pattern pos="195852" muted="0" steps="16" name="" type="1">
          <note key="60" pos="132" pan="0" len="12" vol="100" />
          <note key="60" pos="324" pan="0" len="12" vol="100" />
          <note key="60" pos="516" pan="0" len="12" vol="100" />
          <note key="60" pos="708" pan="0" len="12" vol="100" />
          <note key="60" pos="900" pan="0" len="12" vol="100" />
          <note key="60" pos="1092" pan="0" len="12" vol="100" />
          <note key="60" pos="1284" pan="0" len="12" vol="100" />
          <note key="60" pos="1476" pan="0" len="12" vol="100" />
        </pattern>
        <pattern pos="197388" muted="0" steps="16" name="" type="1">
          <note key="60" pos="132" pan="0" len="12" vol="100" />
          <note key="60" pos="324" pan="0" len="12" vol="100" />
          <note key="60" pos="516" pan="0" len="12" vol="100" />
          <note key="60" pos="708" pan="0" len="12" vol="100" />
          <note key="60" pos="900" pan="0" len="12" vol="100" />
          <note key="60" pos="1092" pan="0" len="12" vol="100" />
          <note key="60" pos="1284" pan="0" len="12" vol="100" />
          <note key="60" pos="1476" pan="0" len="12" vol="100" />
        </pattern>
      </track>
      <track solo="0" name="33 (Ch15)" type="0" muted="0">
        <instrumenttrack usemasterpitch="1" pitch="0.0" basenote="57" pan="0" pitchrange="12" vol="30">
          <eldata />
          <instrument name="tripleoscillator" />
        </instrumenttrack>
        <pattern pos="99840" muted="0" steps="16" name="" type="1">
          <note key="64" pos="240" pan="0" len="48" vol="47" />
          <note key="64" pos="528" pan="0" len="24" vol="31" />
          <note key="64" pos="1008" pan="0" len="48" vol="47" />
          <note key="64" pos="1296" pan="0" len="24" vol="31" />
        </pattern>
        <pattern pos="97536" muted="0" steps="16" name="" type="1">
          <note key="64" pos="240" pan="0" len="48" vol="47" />
          <note key="64" pos="528" pan="0" len="24" vol="31" />
        </pattern>
        <pattern pos="98304" muted="0" steps="16" name="" type="1">
          <note key="64" pos="240" pan="0" len="48" vol="47" />
          <note key="64" pos="528" pan="0" len="24" vol="31" />
          <note key="64" pos="1008" pan="0" len="48" vol="47" />
          <note key="64" pos="1296" pan="0" len="24" vol="31" />
        </pattern>
      </track>
      <track solo="0" name="33 (Ch18)" type="0" muted="0">
        <instrumenttrack usemasterpitch="1" pitch="0.0" basenote="57" pan="0" pitchrange="12" vol="30">
          <eldata />
          <instrument name="tripleoscillator" />
        </instrumenttrack>
        <pattern pos="99840" muted="0" steps="16" name="" type="1">
          <note key="64" pos="264" pan="0" len="48" vol="23" />
          <note key="64" pos="552" pan="0" len="24" vol="16" />
          <note key="64" pos="1032" pan="0" len="48" vol="23" />
          <note key="64" pos="1320" pan="0" len="24" vol="16" />
        </pattern>
        <pattern pos="98304" muted="0" steps="16" name="" type="1">
          <note key="64" pos="264" pan="0" len="48" vol="23" />
          <note key="64" pos="552" pan="0" len="24" vol="16" />
          <note key="64" pos="1032" pan="0" len="48" vol="23" />
          <note key="64" pos="1320" pan="0" len="24" vol="16" />
        </pattern>
      </track>
      <track solo="0" name="34 (Ch11)" type="0" muted="0">
        <instrumenttrack usemasterpitch="1" pitch="0.0" basenote="57" pan="0" pitchrange="12" vol="30">
          <eldata />
          <instrument name="tripleoscillator" />
        </instrumenttrack>
        <pattern pos="110592" muted="0" steps="16" name="" type="1">
          <note key="64" pos="288" pan="0" len="48" vol="100" />
          <note key="64" pos="480" pan="0" len="48" vol="100" />
          <note key="64" pos="1056" pan="0" len="48" vol="100" />
          <note key="64" pos="1248" pan="0" len="48" vol="100" />
          <note key="64" pos="1824" pan="0" len="48" vol="100" />
          <note key="64" pos="2016" pan="0" len="48" vol="100" />
          <note key="64" pos="2592" pan="0" len="48" vol="100" />
          <note key="64" pos="2784" pan="0" len="48" vol="100" />
        </pattern>
        <pattern pos="92160" muted="0" steps="16" name="" type="1">
          <note key="64" pos="288" pan="0" len="48" vol="100" />
          <note key="64" pos="480" pan="0" len="48" vol="100" />
          <note key="64" pos="1056" pan="0" len="48" vol="100" />
          <note key="64" pos="1248" pan="0" len="48" vol="100" />
          <note key="64" pos="1824" pan="0" len="48" vol="100" />
          <note key="64" pos="2016" pan="0" len="48" vol="100" />
          <note key="64" pos="2592" pan="0" len="48" vol="100" />
          <note key="64" pos="2784" pan="0" len="48" vol="100" />
        </pattern>
        <pattern pos="95232" muted="0" steps="16" name="" type="1">
          <note key="64" pos="288" pan="0" len="48" vol="100" />
          <note key="64" pos="480" pan="0" len="48" vol="100" />
          <note key="64" pos="1056" pan="0" len="48" vol="100" />
          <note key="64" pos="1248" pan="0" len="48" vol="100" />
          <note key="64" pos="1824" pan="0" len="48" vol="100" />
          <note key="64" pos="2016" pan="0" len="48" vol="100" />
        </pattern>
      </track>
      <track solo="0" name="34 (Ch14)" type="0" muted="0">
        <instrumenttrack usemasterpitch="1" pitch="0.0" basenote="57" pan="0" pitchrange="12" vol="30">
          <eldata />
          <instrument name="tripleoscillator" />
        </instrumenttrack>
        <pattern pos="198924" muted="0" steps="16" name="" type="1">
          <note key="60" pos="168" pan="0" len="12" vol="100" />
          <note key="60" pos="360" pan="0" len="12" vol="100" />
          <note key="60" pos="552" pan="0" len="12" vol="100" />
          <note key="60" pos="744" pan="0" len="12" vol="100" />
          <note key="60" pos="936" pan="0" len="12" vol="100" />
          <note key="60" pos="1128" pan="0" len="12" vol="100" />
          <note key="60" pos="1320" pan="0" len="12" vol="100" />
          <note key="60" pos="1512" pan="0" len="12" vol="100" />
        </pattern>
        <pattern pos="192780" muted="0" steps="16" name="" type="1">
          <note key="60" pos="168" pan="0" len="12" vol="100" />
          <note key="60" pos="360" pan="0" len="12" vol="100" />
          <note key="60" pos="552" pan="0" len="12" vol="100" />
          <note key="60" pos="744" pan="0" len="12" vol="100" />
          <note key="60" pos="936" pan="0" len="12" vol="100" />
          <note key="60" pos="1128" pan="0" len="12" vol="100" />
          <note key="60" pos="1320" pan="0" len="12" vol="100" />
          <note key="60" pos="1512" pan="0" len="12" vol="100" />
        </pattern>
        <pattern pos="194316" muted="0" steps="16" name="" type="1">
          <note key="60" pos="168" pan="0" len="12" vol="100" />
          <note key="60" pos="360" pan="0" len="12" vol="100" />
          <note key="60" pos="552" pan="0" len="12" vol="100" />
          <note key="60" pos="744" pan="0" len="12" vol="100" />
          <note key="60" pos="936" pan="0" len="12" vol="100" />
          <note key="60" pos="1128" pan="0" len="12" vol="100" />
          <note key="60" pos="1320" pan="0" len="12" vol="100" />
          <note key="60" pos="1512" pan="0" len="12" vol="100" />
        </pattern>
        <pattern pos="195852" muted="0" steps="16" name="" type="1">
          <note key="60" pos="168" pan="0" len="12" vol="100" />
          <note key="60" pos="360" pan="0" len="12" vol="100" />
          <note key="60" pos="552" pan="0" len="12" vol="100" />
          <note key="60" pos="744" pan="0" len="12" vol="100" />
          <note key="60" pos="936" pan="0" len="12" vol="100" />
          <note key="60" pos="1128" pan="0" len="12" vol="100" />
          <note key="60" pos="1320" pan="0" len="12" vol="100" />
          <note key="60" pos="1512" pan="0" len="12" vol="100" />
        </pattern>
        <pattern pos="197388" muted="0" steps="16" name="" type="1">
          <note key="60" pos="168" pan="0" len="12" vol="100" />
          <note key="60" pos="360" pan="0" len="12" vol="100" />
          <note key="60" pos="552" pan="0" len="12" vol="100" />
          <note key="60" pos="744" pan="0" len="12" vol="100" />
          <note key="60" pos="936" pan="0" len="12" vol="100" />
          <note key="60" pos="1128" pan="0" len="12" vol="100" />
          <note key="60" pos="1320" pan="0" len="12" vol="100" />
          <note key="60" pos="1512" pan="0" len="12" vol="100" />
        </pattern>
      </track>
      <track solo="0" name="34 (Ch15)" type="0" muted="0">
        <instrumenttrack usemasterpitch="1" pitch="0.0" basenote="57" pan="0" pitchrange="12" vol="30">
          <eldata />
          <instrument name="tripleoscillator" />
        </instrumenttrack>
        <pattern pos="99840" muted="0" steps="16" name="" type="1">
          <note key="64" pos="288" pan="0" len="48" vol="100" />
          <note key="64" pos="480" pan="0" len="48" vol="100" />
          <note key="64" pos="1056" pan="0" len="48" vol="100" />
          <note key="64" pos="1248" pan="0" len="48" vol="100" />
        </pattern>
        <pattern pos="97536" muted="0" steps="16" name="" type="1">
          <note key="64" pos="288" pan="0" len="48" vol="100" />
          <note key="64" pos="480" pan="0" len="48" vol="100" />
        </pattern>
        <pattern pos="98304" muted="0" steps="16" name="" type="1">
          <note key="64" pos="288" pan="0" len="48" vol="100" />
          <note key="64" pos="480" pan="0" len="48" vol="100" />
          <note key="64" pos="1056" pan="0" len="48" vol="100" />
          <note key="64" pos="1248" pan="0" len="48" vol="100" />
        </pattern>
      </track>
      <track solo="0" name="34 (Ch18)" type="0" muted="0">
        <instrumenttrack usemasterpitch="1" pitch="0.0" basenote="57" pan="0" pitchrange="12" vol="30">
          <eldata />
          <instrument name="tripleoscillator" />
        </instrumenttrack>
        <pattern pos="99840" muted="0" steps="16" name="" type="1">
          <note key="64" pos="312" pan="0" len="48" vol="50" />
          <note key="64" pos="504" pan="0" len="48" vol="50" />
          <note key="64" pos="1080" pan="0" len="48" vol="50" />
          <note key="64" pos="1272" pan="0" len="48" vol="50" />
        </pattern>
        <pattern pos="98304" muted="0" steps="16" name="" type="1">
          <note key="64" pos="312" pan="0" len="48" vol="50" />
          <note key="64" pos="504" pan="0" len="48" vol="50" />
          <note key="64" pos="1080" pan="0" len="48" vol="50" />
          <note key="64" pos="1272" pan="0" len="48" vol="50" />
        </pattern>
      </track>
      <track solo="0" name="34 (Ch19)" type="0" muted="0">
        <instrumenttrack usemasterpitch="1" pitch="0.0" basenote="57" pan="0" pitchrange="12" vol="30">
          <eldata />
          <instrument name="tripleoscillator" />
        </instrumenttrack>
        <pattern pos="27648" muted="0" steps="16" name="" type="1">
          <note key="67" pos="12" pan="0" len="12" vol="34" />
          <note key="67" pos="48" pan="0" len="12" vol="100" />
          <note key="67" pos="108" pan="0" len="12" vol="100" />
          <note key="67" pos="144" pan="0" len="12" vol="100" />
          <note key="67" pos="204" pan="0" len="12" vol="34" />
          <note key="67" pos="240" pan="0" len="12" vol="100" />
          <note key="67" pos="300" pan="0" len="12" vol="100" />
          <note key="67" pos="336" pan="0" len="12" vol="100" />
          <note key="67" pos="396" pan="0" len="12" vol="34" />
          <note key="67" pos="432" pan="0" len="12" vol="100" />
          <note key="67" pos="492" pan="0" len="12" vol="100" />
          <note key="67" pos="528" pan="0" len="12" vol="100" />
          <note key="67" pos="588" pan="0" len="12" vol="34" />
          <note key="67" pos="624" pan="0" len="12" vol="100" />
          <note key="67" pos="684" pan="0" len="12" vol="100" />
          <note key="67" pos="720" pan="0" len="12" vol="100" />
          <note key="67" pos="780" pan="0" len="12" vol="34" />
          <note key="67" pos="816" pan="0" len="12" vol="100" />
          <note key="67" pos="876" pan="0" len="12" vol="100" />
          <note key="67" pos="912" pan="0" len="12" vol="100" />
          <note key="67" pos="972" pan="0" len="12" vol="34" />
          <note key="67" pos="1008" pan="0" len="12" vol="100" />
          <note key="67" pos="1068" pan="0" len="12" vol="100" />
          <note key="67" pos="1104" pan="0" len="12" vol="100" />
          <note key="67" pos="1164" pan="0" len="12" vol="34" />
          <note key="67" pos="1200" pan="0" len="12" vol="100" />
          <note key="67" pos="1260" pan="0" len="12" vol="100" />
          <note key="67" pos="1296" pan="0" len="12" vol="100" />
          <note key="67" pos="1356" pan="0" len="12" vol="34" />
          <note key="67" pos="1392" pan="0" len="12" vol="100" />
          <note key="67" pos="1452" pan="0" len="12" vol="100" />
          <note key="67" pos="1488" pan="0" len="12" vol="100" />
        </pattern>
        <pattern pos="21504" muted="0" steps="16" name="" type="1">
          <note key="67" pos="12" pan="0" len="12" vol="34" />
          <note key="67" pos="48" pan="0" len="12" vol="100" />
          <note key="67" pos="108" pan="0" len="12" vol="100" />
          <note key="67" pos="144" pan="0" len="12" vol="100" />
          <note key="67" pos="204" pan="0" len="12" vol="34" />
          <note key="67" pos="240" pan="0" len="12" vol="100" />
          <note key="67" pos="300" pan="0" len="12" vol="100" />
          <note key="67" pos="336" pan="0" len="12" vol="100" />
          <note key="67" pos="396" pan="0" len="12" vol="34" />
          <note key="67" pos="432" pan="0" len="12" vol="100" />
          <note key="67" pos="492" pan="0" len="12" vol="100" />
          <note key="67" pos="528" pan="0" len="12" vol="100" />
          <note key="67" pos="588" pan="0" len="12" vol="34" />
          <note key="67" pos="624" pan="0" len="12" vol="100" />
          <note key="67" pos="684" pan="0" len="12" vol="100" />
          <note key="67" pos="720" pan="0" len="12" vol="100" />
          <note key="67" pos="780" pan="0" len="12" vol="34" />
          <note key="67" pos="816" pan="0" len="12" vol="100" />
          <note key="67" pos="876" pan="0" len="12" vol="100" />
          <note key="67" pos="912" pan="0" len="12" vol="100" />
          <note key="67" pos="972" pan="0" len="12" vol="34" />
          <note key="67" pos="1008" pan="0" len="12" vol="100" />
          <note key="67" pos="1068" pan="0" len="12" vol="100" />
          <note key="67" pos="1104" pan="0" len="12" vol="100" />
          <note key="67" pos="1164" pan="0" len="12" vol="34" />
          <note key="67" pos="1200" pan="0" len="12" vol="100" />
          <note key="67" pos="1260" pan="0" len="12" vol="100" />
          <note key="67" pos="1296" pan="0" len="12" vol="100" />
          <note key="67" pos="1356" pan="0" len="12" vol="34" />
          <note key="67" pos="1392" pan="0" len="12" vol="100" />
          <note key="67" pos="1452" pan="0" len="12" vol="100" />
          <note key="67" pos="1488" pan="0" len="12" vol="100" />
        </pattern>
        <pattern pos="23040" muted="0" steps="16" name="" type="1">
          <note key="67" pos="12" pan="0" len="12" vol="34" />
          <note key="67" pos="48" pan="0" len="12" vol="100" />
          <note key="67" pos="108" pan="0" len="12" vol="100" />
          <note key="67" pos="144" pan="0" len="12" vol="100" />
          <note key="67" pos="204" pan="0" len="12" vol="34" />
          <note key="67" pos="240" pan="0" len="12" vol="100" />
          <note key="67" pos="300" pan="0" len="12" vol="100" />
          <note key="67" pos="336" pan="0" len="12" vol="100" />
          <note key="67" pos="396" pan="0" len="12" vol="34" />
          <note key="67" pos="432" pan="0" len="12" vol="100" />
          <note key="67" pos="492" pan="0" len="12" vol="100" />
          <note key="67" pos="528" pan="0" len="12" vol="100" />
          <note key="67" pos="588" pan="0" len="12" vol="34" />
          <note key="67" pos="624" pan="0" len="12" vol="100" />
          <note key="67" pos="684" pan="0" len="12" vol="100" />
          <note key="67" pos="720" pan="0" len="12" vol="100" />
          <note key="67" pos="780" pan="0" len="12" vol="34" />
          <note key="67" pos="816" pan="0" len="12" vol="100" />
          <note key="67" pos="876" pan="0" len="12" vol="100" />
          <note key="67" pos="912" pan="0" len="12" vol="100" />
          <note key="67" pos="972" pan="0" len="12" vol="34" />
          <note key="67" pos="1008" pan="0" len="12" vol="100" />
          <note key="67" pos="1068" pan="0" len="12" vol="100" />
          <note key="67" pos="1104" pan="0" len="12" vol="100" />
          <note key="67" pos="1164" pan="0" len="12" vol="34" />
          <note key="67" pos="1200" pan="0" len="12" vol="100" />
          <note key="67" pos="1260" pan="0" len="12" vol="100" />
          <note key="67" pos="1296" pan="0" len="12" vol="100" />
          <note key="67" pos="1356" pan="0" len="12" vol="34" />
          <note key="67" pos="1392" pan="0" len="12" vol="100" />
          <note key="67" pos="1452" pan="0" len="12" vol="100" />
          <note key="67" pos="1488" pan="0" len="12" vol="100" />
        </pattern>
        <pattern pos="24576" muted="0" steps="16" name="" type="1">
          <note key="67" pos="12" pan="0" len="12" vol="34" />
          <note key="67" pos="48" pan="0" len="12" vol="100" />
          <note key="67" pos="108" pan="0" len="12" vol="100" />
          <note key="67" pos="144" pan="0" len="12" vol="100" />
          <note key="67" pos="204" pan="0" len="12" vol="34" />
          <note key="67" pos="240" pan="0" len="12" vol="100" />
          <note key="67" pos="300" pan="0" len="12" vol="100" />
          <note key="67" pos="336" pan="0" len="12" vol="100" />
          <note key="67" pos="396" pan="0" len="12" vol="34" />
          <note key="67" pos="432" pan="0" len="12" vol="100" />
          <note key="67" pos="492" pan="0" len="12" vol="100" />
          <note key="67" pos="528" pan="0" len="12" vol="100" />
          <note key="67" pos="588" pan="0" len="12" vol="34" />
          <note key="67" pos="624" pan="0" len="12" vol="100" />
          <note key="67" pos="684" pan="0" len="12" vol="100" />
          <note key="67" pos="720" pan="0" len="12" vol="100" />
          <note key="67" pos="780" pan="0" len="12" vol="34" />
          <note key="67" pos="816" pan="0" len="12" vol="100" />
          <note key="67" pos="876" pan="0" len="12" vol="100" />
          <note key="67" pos="912" pan="0" len="12" vol="100" />
          <note key="67" pos="972" pan="0" len="12" vol="34" />
          <note key="67" pos="1008" pan="0" len="12" vol="100" />
          <note key="67" pos="1068" pan="0" len="12" vol="100" />
          <note key="67" pos="1104" pan="0" len="12" vol="100" />
          <note key="67" pos="1164" pan="0" len="12" vol="34" />
          <note key="67" pos="1200" pan="0" len="12" vol="100" />
          <note key="67" pos="1260" pan="0" len="12" vol="100" />
          <note key="67" pos="1296" pan="0" len="12" vol="100" />
          <note key="67" pos="1356" pan="0" len="12" vol="34" />
          <note key="67" pos="1392" pan="0" len="12" vol="100" />
          <note key="67" pos="1452" pan="0" len="12" vol="100" />
          <note key="67" pos="1488" pan="0" len="12" vol="100" />
        </pattern>
        <pattern pos="26112" muted="0" steps="16" name="" type="1">
          <note key="67" pos="12" pan="0" len="12" vol="34" />
          <note key="67" pos="48" pan="0" len="12" vol="100" />
          <note key="67" pos="108" pan="0" len="12" vol="100" />
          <note key="67" pos="144" pan="0" len="12" vol="100" />
          <note key="67" pos="204" pan="0" len="12" vol="34" />
          <note key="67" pos="240" pan="0" len="12" vol="100" />
          <note key="67" pos="300" pan="0" len="12" vol="100" />
          <note key="67" pos="336" pan="0" len="12" vol="100" />
          <note key="67" pos="396" pan="0" len="12" vol="34" />
          <note key="67" pos="432" pan="0" len="12" vol="100" />
          <note key="67" pos="492" pan="0" len="12" vol="100" />
          <note key="67" pos="528" pan="0" len="12" vol="100" />
          <note key="67" pos="588" pan="0" len="12" vol="34" />
          <note key="67" pos="624" pan="0" len="12" vol="100" />
          <note key="67" pos="684" pan="0" len="12" vol="100" />
          <note key="67" pos="720" pan="0" len="12" vol="100" />
          <note key="67" pos="780" pan="0" len="12" vol="34" />
          <note key="67" pos="816" pan="0" len="12" vol="100" />
          <note key="67" pos="876" pan="0" len="12" vol="100" />
          <note key="67" pos="912" pan="0" len="12" vol="100" />
          <note key="67" pos="972" pan="0" len="12" vol="34" />
          <note key="67" pos="1008" pan="0" len="12" vol="100" />
          <note key="67" pos="1068" pan="0" len="12" vol="100" />
          <note key="67" pos="1104" pan="0" len="12" vol="100" />
          <note key="67" pos="1164" pan="0" len="12" vol="34" />
          <note key="67" pos="1200" pan="0" len="12" vol="100" />
          <note key="67" pos="1260" pan="0" len="12" vol="100" />
          <note key="67" pos="1296" pan="0" len="12" vol="100" />
          <note key="67" pos="1356" pan="0" len="12" vol="34" />
          <note key="67" pos="1392" pan="0" len="12" vol="100" />
          <note key="67" pos="1452" pan="0" len="12" vol="100" />
          <note key="67" pos="1488" pan="0" len="12" vol="100" />
        </pattern>
      </track>
      <track solo="0" name="35 (Ch11)" type="0" muted="0">
        <instrumenttrack usemasterpitch="1" pitch="0.0" basenote="57" pan="0" pitchrange="12" vol="30">
          <eldata />
          <instrument name="tripleoscillator" />
        </instrumenttrack>
        <pattern pos="110592" muted="0" steps="16" name="" type="1">
          <note key="64" pos="432" pan="0" len="48" vol="47" />
          <note key="64" pos="1200" pan="0" len="48" vol="47" />
          <note key="64" pos="1968" pan="0" len="48" vol="47" />
          <note key="64" pos="2736" pan="0" len="48" vol="47" />
        </pattern>
        <pattern pos="92160" muted="0" steps="16" name="" type="1">
          <note key="64" pos="432" pan="0" len="48" vol="47" />
          <note key="64" pos="1200" pan="0" len="48" vol="47" />
          <note key="64" pos="1968" pan="0" len="48" vol="47" />
          <note key="64" pos="2736" pan="0" len="48" vol="47" />
        </pattern>
        <pattern pos="95232" muted="0" steps="16" name="" type="1">
          <note key="64" pos="432" pan="0" len="48" vol="47" />
          <note key="64" pos="1200" pan="0" len="48" vol="47" />
          <note key="64" pos="1968" pan="0" len="48" vol="47" />
        </pattern>
      </track>
      <track solo="0" name="35 (Ch14)" type="0" muted="0">
        <instrumenttrack usemasterpitch="1" pitch="0.0" basenote="57" pan="0" pitchrange="12" vol="30">
          <eldata />
          <instrument name="tripleoscillator" />
        </instrumenttrack>
        <pattern pos="198924" muted="0" steps="16" name="" type="1">
          <note key="60" pos="180" pan="0" len="24" vol="100" />
          <note key="60" pos="372" pan="0" len="24" vol="100" />
          <note key="60" pos="564" pan="0" len="24" vol="100" />
          <note key="60" pos="756" pan="0" len="12" vol="100" />
          <note key="60" pos="948" pan="0" len="24" vol="100" />
          <note key="60" pos="1140" pan="0" len="24" vol="100" />
          <note key="60" pos="1332" pan="0" len="24" vol="100" />
          <note key="60" pos="1524" pan="0" len="12" vol="100" />
        </pattern>
        <pattern pos="192780" muted="0" steps="16" name="" type="1">
          <note key="60" pos="180" pan="0" len="12" vol="100" />
          <note key="60" pos="372" pan="0" len="12" vol="100" />
          <note key="60" pos="564" pan="0" len="12" vol="100" />
          <note key="60" pos="756" pan="0" len="12" vol="100" />
          <note key="60" pos="948" pan="0" len="12" vol="100" />
          <note key="60" pos="1140" pan="0" len="12" vol="100" />
          <note key="60" pos="1332" pan="0" len="12" vol="100" />
          <note key="60" pos="1524" pan="0" len="12" vol="100" />
        </pattern>
        <pattern pos="194316" muted="0" steps="16" name="" type="1">
          <note key="60" pos="180" pan="0" len="24" vol="100" />
          <note key="60" pos="372" pan="0" len="24" vol="100" />
          <note key="60" pos="564" pan="0" len="24" vol="100" />
          <note key="60" pos="756" pan="0" len="24" vol="100" />
          <note key="60" pos="948" pan="0" len="24" vol="100" />
          <note key="60" pos="1140" pan="0" len="24" vol="100" />
          <note key="60" pos="1332" pan="0" len="24" vol="100" />
          <note key="60" pos="1524" pan="0" len="12" vol="100" />
        </pattern>
        <pattern pos="195852" muted="0" steps="16" name="" type="1">
          <note key="60" pos="180" pan="0" len="24" vol="100" />
          <note key="60" pos="372" pan="0" len="24" vol="100" />
          <note key="60" pos="564" pan="0" len="24" vol="100" />
          <note key="60" pos="756" pan="0" len="24" vol="100" />
          <note key="60" pos="948" pan="0" len="24" vol="100" />
          <note key="60" pos="1140" pan="0" len="24" vol="100" />
          <note key="60" pos="1332" pan="0" len="24" vol="100" />
          <note key="60" pos="1524" pan="0" len="12" vol="100" />
        </pattern>
        <pattern pos="197388" muted="0" steps="16" name="" type="1">
          <note key="60" pos="180" pan="0" len="24" vol="100" />
          <note key="60" pos="372" pan="0" len="24" vol="100" />
          <note key="60" pos="564" pan="0" len="24" vol="100" />
          <note key="60" pos="756" pan="0" len="24" vol="100" />
          <note key="60" pos="948" pan="0" len="24" vol="100" />
          <note key="60" pos="1140" pan="0" len="24" vol="100" />
          <note key="60" pos="1332" pan="0" len="24" vol="100" />
          <note key="60" pos="1524" pan="0" len="12" vol="100" />
        </pattern>
      </track>
      <track solo="0" name="35 (Ch15)" type="0" muted="0">
        <instrumenttrack usemasterpitch="1" pitch="0.0" basenote="57" pan="0" pitchrange="12" vol="30">
          <eldata />
          <instrument name="tripleoscillator" />
        </instrumenttrack>
        <pattern pos="99840" muted="0" steps="16" name="" type="1">
          <note key="64" pos="432" pan="0" len="48" vol="47" />
          <note key="64" pos="1200" pan="0" len="48" vol="47" />
        </pattern>
        <pattern pos="97536" muted="0" steps="16" name="" type="1">
          <note key="64" pos="432" pan="0" len="48" vol="47" />
        </pattern>
        <pattern pos="98304" muted="0" steps="16" name="" type="1">
          <note key="64" pos="432" pan="0" len="48" vol="47" />
          <note key="64" pos="1200" pan="0" len="48" vol="47" />
        </pattern>
      </track>
      <track solo="0" name="35 (Ch18)" type="0" muted="0">
        <instrumenttrack usemasterpitch="1" pitch="0.0" basenote="57" pan="0" pitchrange="12" vol="30">
          <eldata />
          <instrument name="tripleoscillator" />
        </instrumenttrack>
        <pattern pos="99840" muted="0" steps="16" name="" type="1">
          <note key="64" pos="456" pan="0" len="48" vol="23" />
          <note key="64" pos="1224" pan="0" len="48" vol="23" />
        </pattern>
        <pattern pos="98304" muted="0" steps="16" name="" type="1">
          <note key="64" pos="456" pan="0" len="48" vol="23" />
          <note key="64" pos="1224" pan="0" len="48" vol="23" />
        </pattern>
      </track>
      <track solo="0" name="36 (Ch6)" type="0" muted="0">
        <instrumenttrack usemasterpitch="1" pitch="0.0" basenote="57" pan="0" pitchrange="12" vol="30">
          <eldata />
          <instrument name="tripleoscillator" />
        </instrumenttrack>
        <pattern pos="29184" muted="0" steps="16" name="" type="1">
          <note key="64" pos="0" pan="0" len="12" vol="100" />
        </pattern>
        <pattern pos="16896" muted="0" steps="16" name="" type="1">
          <note key="64" pos="0" pan="0" len="24" vol="34" />
          <note key="65" pos="24" pan="0" len="24" vol="23" />
          <note key="65" pos="48" pan="0" len="24" vol="34" />
          <note key="71" pos="72" pan="0" len="24" vol="23" />
          <note key="64" pos="96" pan="0" len="24" vol="34" />
          <note key="65" pos="120" pan="0" len="24" vol="23" />
          <note key="65" pos="144" pan="0" len="24" vol="34" />
          <note key="71" pos="168" pan="0" len="24" vol="23" />
          <note key="64" pos="192" pan="0" len="24" vol="34" />
          <note key="65" pos="216" pan="0" len="24" vol="23" />
          <note key="65" pos="240" pan="0" len="24" vol="34" />
          <note key="71" pos="264" pan="0" len="24" vol="23" />
          <note key="64" pos="288" pan="0" len="24" vol="34" />
          <note key="65" pos="312" pan="0" len="24" vol="23" />
          <note key="65" pos="336" pan="0" len="24" vol="34" />
          <note key="71" pos="360" pan="0" len="24" vol="23" />
          <note key="64" pos="384" pan="0" len="24" vol="34" />
          <note key="65" pos="408" pan="0" len="24" vol="23" />
          <note key="65" pos="432" pan="0" len="24" vol="34" />
          <note key="71" pos="456" pan="0" len="24" vol="23" />
          <note key="64" pos="480" pan="0" len="24" vol="34" />
          <note key="65" pos="504" pan="0" len="24" vol="23" />
          <note key="65" pos="528" pan="0" len="24" vol="34" />
          <note key="71" pos="552" pan="0" len="24" vol="23" />
          <note key="64" pos="576" pan="0" len="24" vol="34" />
          <note key="65" pos="600" pan="0" len="24" vol="23" />
          <note key="65" pos="624" pan="0" len="24" vol="34" />
          <note key="71" pos="648" pan="0" len="24" vol="23" />
          <note key="64" pos="672" pan="0" len="24" vol="34" />
          <note key="65" pos="696" pan="0" len="24" vol="23" />
          <note key="65" pos="720" pan="0" len="24" vol="34" />
          <note key="71" pos="744" pan="0" len="24" vol="23" />
          <note key="64" pos="768" pan="0" len="12" vol="100" />
          <note key="62" pos="780" pan="0" len="12" vol="34" />
          <note key="65" pos="792" pan="0" len="12" vol="69" />
          <note key="71" pos="804" pan="0" len="12" vol="34" />
          <note key="65" pos="816" pan="0" len="12" vol="100" />
          <note key="62" pos="828" pan="0" len="12" vol="34" />
          <note key="71" pos="840" pan="0" len="12" vol="69" />
          <note key="67" pos="852" pan="0" len="12" vol="34" />
          <note key="64" pos="864" pan="0" len="12" vol="100" />
          <note key="62" pos="876" pan="0" len="12" vol="34" />
          <note key="65" pos="888" pan="0" len="12" vol="69" />
          <note key="71" pos="900" pan="0" len="12" vol="34" />
          <note key="65" pos="912" pan="0" len="12" vol="100" />
          <note key="62" pos="924" pan="0" len="12" vol="34" />
          <note key="71" pos="936" pan="0" len="12" vol="69" />
          <note key="67" pos="948" pan="0" len="12" vol="34" />
          <note key="64" pos="960" pan="0" len="12" vol="100" />
          <note key="62" pos="972" pan="0" len="12" vol="34" />
          <note key="65" pos="984" pan="0" len="12" vol="69" />
          <note key="71" pos="996" pan="0" len="12" vol="34" />
          <note key="65" pos="1008" pan="0" len="12" vol="100" />
          <note key="62" pos="1020" pan="0" len="12" vol="34" />
          <note key="71" pos="1032" pan="0" len="12" vol="69" />
          <note key="67" pos="1044" pan="0" len="12" vol="34" />
          <note key="64" pos="1056" pan="0" len="12" vol="100" />
          <note key="62" pos="1068" pan="0" len="12" vol="34" />
          <note key="65" pos="1080" pan="0" len="12" vol="69" />
          <note key="71" pos="1092" pan="0" len="12" vol="34" />
          <note key="65" pos="1104" pan="0" len="12" vol="100" />
          <note key="62" pos="1116" pan="0" len="12" vol="34" />
          <note key="71" pos="1128" pan="0" len="12" vol="69" />
          <note key="67" pos="1140" pan="0" len="12" vol="34" />
          <note key="64" pos="1152" pan="0" len="12" vol="100" />
          <note key="62" pos="1164" pan="0" len="12" vol="34" />
          <note key="65" pos="1176" pan="0" len="12" vol="69" />
          <note key="71" pos="1188" pan="0" len="12" vol="34" />
          <note key="65" pos="1200" pan="0" len="12" vol="100" />
          <note key="62" pos="1212" pan="0" len="12" vol="34" />
          <note key="71" pos="1224" pan="0" len="12" vol="69" />
          <note key="67" pos="1236" pan="0" len="12" vol="34" />
          <note key="64" pos="1248" pan="0" len="12" vol="100" />
          <note key="62" pos="1260" pan="0" len="12" vol="34" />
          <note key="65" pos="1272" pan="0" len="12" vol="69" />
          <note key="71" pos="1284" pan="0" len="12" vol="34" />
          <note key="65" pos="1296" pan="0" len="12" vol="100" />
          <note key="62" pos="1308" pan="0" len="12" vol="34" />
          <note key="71" pos="1320" pan="0" len="12" vol="69" />
          <note key="67" pos="1332" pan="0" len="12" vol="34" />
          <note key="64" pos="1344" pan="0" len="12" vol="100" />
          <note key="62" pos="1356" pan="0" len="12" vol="34" />
          <note key="65" pos="1368" pan="0" len="12" vol="69" />
          <note key="71" pos="1380" pan="0" len="12" vol="34" />
          <note key="65" pos="1392" pan="0" len="12" vol="100" />
          <note key="62" pos="1404" pan="0" len="12" vol="34" />
          <note key="71" pos="1416" pan="0" len="12" vol="69" />
          <note key="67" pos="1428" pan="0" len="12" vol="34" />
          <note key="64" pos="1440" pan="0" len="12" vol="100" />
          <note key="62" pos="1452" pan="0" len="12" vol="34" />
          <note key="65" pos="1464" pan="0" len="12" vol="69" />
          <note key="71" pos="1476" pan="0" len="12" vol="34" />
          <note key="65" pos="1488" pan="0" len="12" vol="100" />
          <note key="62" pos="1500" pan="0" len="12" vol="34" />
          <note key="71" pos="1512" pan="0" len="12" vol="69" />
          <note key="67" pos="1524" pan="0" len="12" vol="34" />
        </pattern>
        <pattern pos="18432" muted="0" steps="16" name="" type="1">
          <note key="64" pos="0" pan="0" len="12" vol="75" />
          <note key="62" pos="12" pan="0" len="12" vol="27" />
          <note key="65" pos="24" pan="0" len="12" vol="52" />
          <note key="71" pos="36" pan="0" len="12" vol="27" />
          <note key="65" pos="48" pan="0" len="12" vol="75" />
          <note key="62" pos="60" pan="0" len="12" vol="27" />
          <note key="71" pos="72" pan="0" len="12" vol="52" />
          <note key="67" pos="84" pan="0" len="12" vol="27" />
          <note key="64" pos="96" pan="0" len="12" vol="75" />
          <note key="62" pos="108" pan="0" len="12" vol="27" />
          <note key="65" pos="120" pan="0" len="12" vol="52" />
          <note key="71" pos="132" pan="0" len="12" vol="27" />
          <note key="65" pos="144" pan="0" len="12" vol="75" />
          <note key="62" pos="156" pan="0" len="12" vol="27" />
          <note key="71" pos="168" pan="0" len="12" vol="52" />
          <note key="67" pos="180" pan="0" len="12" vol="27" />
          <note key="64" pos="192" pan="0" len="12" vol="75" />
          <note key="62" pos="204" pan="0" len="12" vol="27" />
          <note key="65" pos="216" pan="0" len="12" vol="52" />
          <note key="71" pos="228" pan="0" len="12" vol="27" />
          <note key="65" pos="240" pan="0" len="12" vol="75" />
          <note key="62" pos="252" pan="0" len="12" vol="27" />
          <note key="71" pos="264" pan="0" len="12" vol="52" />
          <note key="67" pos="276" pan="0" len="12" vol="27" />
          <note key="64" pos="288" pan="0" len="12" vol="75" />
          <note key="62" pos="300" pan="0" len="12" vol="27" />
          <note key="65" pos="312" pan="0" len="12" vol="52" />
          <note key="71" pos="324" pan="0" len="12" vol="27" />
          <note key="65" pos="336" pan="0" len="12" vol="75" />
          <note key="62" pos="348" pan="0" len="12" vol="27" />
          <note key="71" pos="360" pan="0" len="12" vol="52" />
          <note key="67" pos="372" pan="0" len="12" vol="27" />
          <note key="64" pos="384" pan="0" len="12" vol="75" />
          <note key="62" pos="396" pan="0" len="12" vol="27" />
          <note key="65" pos="408" pan="0" len="12" vol="52" />
          <note key="71" pos="420" pan="0" len="12" vol="27" />
          <note key="65" pos="432" pan="0" len="12" vol="75" />
          <note key="62" pos="444" pan="0" len="12" vol="27" />
          <note key="71" pos="456" pan="0" len="12" vol="52" />
          <note key="67" pos="468" pan="0" len="12" vol="27" />
          <note key="64" pos="480" pan="0" len="12" vol="75" />
          <note key="62" pos="492" pan="0" len="12" vol="27" />
          <note key="65" pos="504" pan="0" len="12" vol="52" />
          <note key="71" pos="516" pan="0" len="12" vol="27" />
          <note key="65" pos="528" pan="0" len="12" vol="75" />
          <note key="62" pos="540" pan="0" len="12" vol="27" />
          <note key="71" pos="552" pan="0" len="12" vol="52" />
          <note key="67" pos="564" pan="0" len="12" vol="27" />
          <note key="64" pos="576" pan="0" len="12" vol="75" />
          <note key="62" pos="588" pan="0" len="12" vol="27" />
          <note key="65" pos="600" pan="0" len="12" vol="52" />
          <note key="71" pos="612" pan="0" len="12" vol="27" />
          <note key="65" pos="624" pan="0" len="12" vol="75" />
          <note key="62" pos="636" pan="0" len="12" vol="27" />
          <note key="71" pos="648" pan="0" len="12" vol="52" />
          <note key="67" pos="660" pan="0" len="12" vol="27" />
          <note key="64" pos="672" pan="0" len="12" vol="75" />
          <note key="62" pos="684" pan="0" len="12" vol="27" />
          <note key="65" pos="696" pan="0" len="12" vol="52" />
          <note key="71" pos="708" pan="0" len="12" vol="27" />
          <note key="65" pos="720" pan="0" len="12" vol="75" />
          <note key="62" pos="732" pan="0" len="12" vol="27" />
          <note key="71" pos="744" pan="0" len="12" vol="52" />
          <note key="67" pos="756" pan="0" len="12" vol="27" />
          <note key="64" pos="768" pan="0" len="12" vol="75" />
          <note key="62" pos="780" pan="0" len="12" vol="27" />
          <note key="65" pos="792" pan="0" len="12" vol="52" />
          <note key="71" pos="804" pan="0" len="12" vol="27" />
          <note key="65" pos="816" pan="0" len="12" vol="75" />
          <note key="62" pos="828" pan="0" len="12" vol="27" />
          <note key="71" pos="840" pan="0" len="12" vol="52" />
          <note key="67" pos="852" pan="0" len="12" vol="27" />
          <note key="64" pos="864" pan="0" len="12" vol="75" />
          <note key="62" pos="876" pan="0" len="12" vol="27" />
          <note key="65" pos="888" pan="0" len="12" vol="52" />
          <note key="71" pos="900" pan="0" len="12" vol="27" />
          <note key="65" pos="912" pan="0" len="12" vol="75" />
          <note key="62" pos="924" pan="0" len="12" vol="27" />
          <note key="71" pos="936" pan="0" len="12" vol="52" />
          <note key="67" pos="948" pan="0" len="12" vol="27" />
          <note key="64" pos="960" pan="0" len="12" vol="75" />
          <note key="62" pos="972" pan="0" len="12" vol="27" />
          <note key="65" pos="984" pan="0" len="12" vol="52" />
          <note key="71" pos="996" pan="0" len="12" vol="27" />
          <note key="65" pos="1008" pan="0" len="12" vol="75" />
          <note key="62" pos="1020" pan="0" len="12" vol="27" />
          <note key="71" pos="1032" pan="0" len="12" vol="52" />
          <note key="67" pos="1044" pan="0" len="12" vol="27" />
          <note key="64" pos="1056" pan="0" len="12" vol="75" />
          <note key="62" pos="1068" pan="0" len="12" vol="27" />
          <note key="65" pos="1080" pan="0" len="12" vol="52" />
          <note key="71" pos="1092" pan="0" len="12" vol="27" />
          <note key="65" pos="1104" pan="0" len="12" vol="75" />
          <note key="62" pos="1116" pan="0" len="12" vol="27" />
          <note key="71" pos="1128" pan="0" len="12" vol="52" />
          <note key="67" pos="1140" pan="0" len="12" vol="27" />
          <note key="64" pos="1152" pan="0" len="12" vol="75" />
          <note key="62" pos="1164" pan="0" len="12" vol="27" />
          <note key="65" pos="1176" pan="0" len="12" vol="52" />
          <note key="71" pos="1188" pan="0" len="12" vol="27" />
          <note key="65" pos="1200" pan="0" len="12" vol="75" />
          <note key="62" pos="1212" pan="0" len="12" vol="27" />
          <note key="71" pos="1224" pan="0" len="12" vol="52" />
          <note key="67" pos="1236" pan="0" len="12" vol="27" />
          <note key="64" pos="1248" pan="0" len="12" vol="75" />
          <note key="62" pos="1260" pan="0" len="12" vol="27" />
          <note key="65" pos="1272" pan="0" len="12" vol="52" />
          <note key="71" pos="1284" pan="0" len="12" vol="27" />
          <note key="65" pos="1296" pan="0" len="12" vol="75" />
          <note key="62" pos="1308" pan="0" len="12" vol="27" />
          <note key="71" pos="1320" pan="0" len="12" vol="52" />
          <note key="67" pos="1332" pan="0" len="12" vol="27" />
          <note key="64" pos="1344" pan="0" len="12" vol="75" />
          <note key="62" pos="1356" pan="0" len="12" vol="27" />
          <note key="65" pos="1368" pan="0" len="12" vol="52" />
          <note key="71" pos="1380" pan="0" len="12" vol="27" />
          <note key="65" pos="1392" pan="0" len="12" vol="75" />
          <note key="62" pos="1404" pan="0" len="12" vol="27" />
          <note key="71" pos="1416" pan="0" len="12" vol="52" />
          <note key="67" pos="1428" pan="0" len="12" vol="27" />
          <note key="64" pos="1440" pan="0" len="12" vol="75" />
          <note key="62" pos="1452" pan="0" len="12" vol="27" />
          <note key="65" pos="1464" pan="0" len="12" vol="52" />
          <note key="71" pos="1476" pan="0" len="12" vol="27" />
          <note key="65" pos="1488" pan="0" len="12" vol="75" />
          <note key="62" pos="1500" pan="0" len="12" vol="27" />
          <note key="71" pos="1512" pan="0" len="12" vol="52" />
          <note key="67" pos="1524" pan="0" len="12" vol="27" />
        </pattern>
        <pattern pos="19968" muted="0" steps="16" name="" type="1">
          <note key="64" pos="0" pan="0" len="12" vol="75" />
          <note key="62" pos="12" pan="0" len="12" vol="27" />
          <note key="65" pos="24" pan="0" len="12" vol="52" />
          <note key="71" pos="36" pan="0" len="12" vol="27" />
          <note key="65" pos="48" pan="0" len="12" vol="75" />
          <note key="62" pos="60" pan="0" len="12" vol="27" />
          <note key="71" pos="72" pan="0" len="12" vol="52" />
          <note key="67" pos="84" pan="0" len="12" vol="27" />
          <note key="64" pos="96" pan="0" len="12" vol="75" />
          <note key="62" pos="108" pan="0" len="12" vol="27" />
          <note key="65" pos="120" pan="0" len="12" vol="52" />
          <note key="71" pos="132" pan="0" len="12" vol="27" />
          <note key="65" pos="144" pan="0" len="12" vol="75" />
          <note key="62" pos="156" pan="0" len="12" vol="27" />
          <note key="71" pos="168" pan="0" len="12" vol="52" />
          <note key="67" pos="180" pan="0" len="12" vol="27" />
          <note key="64" pos="192" pan="0" len="12" vol="75" />
          <note key="62" pos="204" pan="0" len="12" vol="27" />
          <note key="65" pos="216" pan="0" len="12" vol="52" />
          <note key="71" pos="228" pan="0" len="12" vol="27" />
          <note key="65" pos="240" pan="0" len="12" vol="75" />
          <note key="62" pos="252" pan="0" len="12" vol="27" />
          <note key="71" pos="264" pan="0" len="12" vol="52" />
          <note key="67" pos="276" pan="0" len="12" vol="27" />
          <note key="64" pos="288" pan="0" len="12" vol="75" />
          <note key="62" pos="300" pan="0" len="12" vol="27" />
          <note key="65" pos="312" pan="0" len="12" vol="52" />
          <note key="71" pos="324" pan="0" len="12" vol="27" />
          <note key="65" pos="336" pan="0" len="12" vol="75" />
          <note key="62" pos="348" pan="0" len="12" vol="27" />
          <note key="71" pos="360" pan="0" len="12" vol="52" />
          <note key="67" pos="372" pan="0" len="12" vol="27" />
          <note key="64" pos="384" pan="0" len="12" vol="75" />
          <note key="62" pos="396" pan="0" len="12" vol="27" />
          <note key="65" pos="408" pan="0" len="12" vol="52" />
          <note key="71" pos="420" pan="0" len="12" vol="27" />
          <note key="65" pos="432" pan="0" len="12" vol="75" />
          <note key="62" pos="444" pan="0" len="12" vol="27" />
          <note key="71" pos="456" pan="0" len="12" vol="52" />
          <note key="67" pos="468" pan="0" len="12" vol="27" />
          <note key="64" pos="480" pan="0" len="12" vol="75" />
          <note key="62" pos="492" pan="0" len="12" vol="27" />
          <note key="65" pos="504" pan="0" len="12" vol="52" />
          <note key="71" pos="516" pan="0" len="12" vol="27" />
          <note key="65" pos="528" pan="0" len="12" vol="75" />
          <note key="62" pos="540" pan="0" len="12" vol="27" />
          <note key="71" pos="552" pan="0" len="12" vol="52" />
          <note key="67" pos="564" pan="0" len="12" vol="27" />
          <note key="64" pos="576" pan="0" len="12" vol="75" />
          <note key="62" pos="588" pan="0" len="12" vol="27" />
          <note key="65" pos="600" pan="0" len="12" vol="52" />
          <note key="71" pos="612" pan="0" len="12" vol="27" />
          <note key="65" pos="624" pan="0" len="12" vol="75" />
          <note key="62" pos="636" pan="0" len="12" vol="27" />
          <note key="71" pos="648" pan="0" len="12" vol="52" />
          <note key="67" pos="660" pan="0" len="12" vol="27" />
          <note key="64" pos="672" pan="0" len="12" vol="75" />
          <note key="62" pos="684" pan="0" len="12" vol="27" />
          <note key="65" pos="696" pan="0" len="12" vol="52" />
          <note key="71" pos="708" pan="0" len="12" vol="27" />
          <note key="65" pos="720" pan="0" len="12" vol="75" />
          <note key="62" pos="732" pan="0" len="12" vol="27" />
          <note key="71" pos="744" pan="0" len="12" vol="52" />
          <note key="67" pos="756" pan="0" len="12" vol="27" />
          <note key="64" pos="768" pan="0" len="12" vol="75" />
          <note key="62" pos="780" pan="0" len="12" vol="27" />
          <note key="65" pos="792" pan="0" len="12" vol="52" />
          <note key="71" pos="804" pan="0" len="12" vol="27" />
          <note key="65" pos="816" pan="0" len="12" vol="75" />
          <note key="62" pos="828" pan="0" len="12" vol="27" />
          <note key="71" pos="840" pan="0" len="12" vol="52" />
          <note key="67" pos="852" pan="0" len="12" vol="27" />
          <note key="64" pos="864" pan="0" len="12" vol="75" />
          <note key="62" pos="876" pan="0" len="12" vol="27" />
          <note key="65" pos="888" pan="0" len="12" vol="52" />
          <note key="71" pos="900" pan="0" len="12" vol="27" />
          <note key="65" pos="912" pan="0" len="12" vol="75" />
          <note key="62" pos="924" pan="0" len="12" vol="27" />
          <note key="71" pos="936" pan="0" len="12" vol="52" />
          <note key="67" pos="948" pan="0" len="12" vol="27" />
          <note key="64" pos="960" pan="0" len="12" vol="75" />
          <note key="62" pos="972" pan="0" len="12" vol="27" />
          <note key="65" pos="984" pan="0" len="12" vol="52" />
          <note key="71" pos="996" pan="0" len="12" vol="27" />
          <note key="65" pos="1008" pan="0" len="12" vol="75" />
          <note key="62" pos="1020" pan="0" len="12" vol="27" />
          <note key="71" pos="1032" pan="0" len="12" vol="52" />
          <note key="67" pos="1044" pan="0" len="12" vol="27" />
          <note key="64" pos="1056" pan="0" len="12" vol="75" />
          <note key="62" pos="1068" pan="0" len="12" vol="27" />
          <note key="65" pos="1080" pan="0" len="12" vol="52" />
          <note key="71" pos="1092" pan="0" len="12" vol="27" />
          <note key="65" pos="1104" pan="0" len="12" vol="75" />
          <note key="62" pos="1116" pan="0" len="12" vol="27" />
          <note key="71" pos="1128" pan="0" len="12" vol="52" />
          <note key="67" pos="1140" pan="0" len="12" vol="27" />
          <note key="64" pos="1152" pan="0" len="12" vol="75" />
          <note key="62" pos="1164" pan="0" len="12" vol="27" />
          <note key="65" pos="1176" pan="0" len="12" vol="52" />
          <note key="71" pos="1188" pan="0" len="12" vol="27" />
          <note key="65" pos="1200" pan="0" len="12" vol="75" />
          <note key="62" pos="1212" pan="0" len="12" vol="27" />
          <note key="71" pos="1224" pan="0" len="12" vol="52" />
          <note key="67" pos="1236" pan="0" len="12" vol="27" />
          <note key="64" pos="1248" pan="0" len="12" vol="75" />
          <note key="62" pos="1260" pan="0" len="12" vol="27" />
          <note key="65" pos="1272" pan="0" len="12" vol="52" />
          <note key="71" pos="1284" pan="0" len="12" vol="27" />
          <note key="65" pos="1296" pan="0" len="12" vol="75" />
          <note key="62" pos="1308" pan="0" len="12" vol="27" />
          <note key="71" pos="1320" pan="0" len="12" vol="52" />
          <note key="67" pos="1332" pan="0" len="12" vol="27" />
          <note key="64" pos="1344" pan="0" len="12" vol="75" />
          <note key="62" pos="1356" pan="0" len="12" vol="27" />
          <note key="65" pos="1368" pan="0" len="12" vol="52" />
          <note key="71" pos="1380" pan="0" len="12" vol="27" />
          <note key="65" pos="1392" pan="0" len="12" vol="75" />
          <note key="62" pos="1404" pan="0" len="12" vol="27" />
          <note key="71" pos="1416" pan="0" len="12" vol="52" />
          <note key="67" pos="1428" pan="0" len="12" vol="27" />
          <note key="64" pos="1440" pan="0" len="12" vol="75" />
          <note key="62" pos="1452" pan="0" len="12" vol="27" />
          <note key="65" pos="1464" pan="0" len="12" vol="52" />
          <note key="71" pos="1476" pan="0" len="12" vol="27" />
          <note key="65" pos="1488" pan="0" len="12" vol="75" />
          <note key="62" pos="1500" pan="0" len="12" vol="27" />
          <note key="71" pos="1512" pan="0" len="12" vol="52" />
          <note key="67" pos="1524" pan="0" len="12" vol="27" />
        </pattern>
        <pattern pos="21504" muted="0" steps="16" name="" type="1">
          <note key="67" pos="0" pan="0" len="12" vol="45" />
          <note key="65" pos="12" pan="0" len="12" vol="16" />
          <note key="68" pos="24" pan="0" len="12" vol="31" />
          <note key="74" pos="36" pan="0" len="12" vol="16" />
          <note key="68" pos="48" pan="0" len="12" vol="45" />
          <note key="65" pos="60" pan="0" len="12" vol="16" />
          <note key="74" pos="72" pan="0" len="12" vol="31" />
          <note key="70" pos="84" pan="0" len="12" vol="16" />
          <note key="67" pos="96" pan="0" len="12" vol="45" />
          <note key="65" pos="108" pan="0" len="12" vol="16" />
          <note key="68" pos="120" pan="0" len="12" vol="31" />
          <note key="74" pos="132" pan="0" len="12" vol="16" />
          <note key="68" pos="144" pan="0" len="12" vol="45" />
          <note key="65" pos="156" pan="0" len="12" vol="16" />
          <note key="74" pos="168" pan="0" len="12" vol="31" />
          <note key="70" pos="180" pan="0" len="12" vol="16" />
          <note key="67" pos="192" pan="0" len="12" vol="45" />
          <note key="65" pos="204" pan="0" len="12" vol="16" />
          <note key="68" pos="216" pan="0" len="12" vol="31" />
          <note key="74" pos="228" pan="0" len="12" vol="16" />
          <note key="68" pos="240" pan="0" len="12" vol="45" />
          <note key="65" pos="252" pan="0" len="12" vol="16" />
          <note key="74" pos="264" pan="0" len="12" vol="31" />
          <note key="70" pos="276" pan="0" len="12" vol="16" />
          <note key="67" pos="288" pan="0" len="12" vol="45" />
          <note key="65" pos="300" pan="0" len="12" vol="16" />
          <note key="68" pos="312" pan="0" len="12" vol="31" />
          <note key="74" pos="324" pan="0" len="12" vol="16" />
          <note key="68" pos="336" pan="0" len="12" vol="45" />
          <note key="65" pos="348" pan="0" len="12" vol="16" />
          <note key="74" pos="360" pan="0" len="12" vol="31" />
          <note key="70" pos="372" pan="0" len="12" vol="16" />
          <note key="67" pos="384" pan="0" len="12" vol="45" />
          <note key="65" pos="396" pan="0" len="12" vol="16" />
          <note key="68" pos="408" pan="0" len="12" vol="31" />
          <note key="74" pos="420" pan="0" len="12" vol="16" />
          <note key="68" pos="432" pan="0" len="12" vol="45" />
          <note key="65" pos="444" pan="0" len="12" vol="16" />
          <note key="74" pos="456" pan="0" len="12" vol="31" />
          <note key="70" pos="468" pan="0" len="12" vol="16" />
          <note key="67" pos="480" pan="0" len="12" vol="45" />
          <note key="65" pos="492" pan="0" len="12" vol="16" />
          <note key="68" pos="504" pan="0" len="12" vol="31" />
          <note key="74" pos="516" pan="0" len="12" vol="16" />
          <note key="68" pos="528" pan="0" len="12" vol="45" />
          <note key="65" pos="540" pan="0" len="12" vol="16" />
          <note key="74" pos="552" pan="0" len="12" vol="31" />
          <note key="70" pos="564" pan="0" len="12" vol="16" />
          <note key="67" pos="576" pan="0" len="12" vol="45" />
          <note key="65" pos="588" pan="0" len="12" vol="16" />
          <note key="68" pos="600" pan="0" len="12" vol="31" />
          <note key="74" pos="612" pan="0" len="12" vol="16" />
          <note key="68" pos="624" pan="0" len="12" vol="45" />
          <note key="65" pos="636" pan="0" len="12" vol="16" />
          <note key="74" pos="648" pan="0" len="12" vol="31" />
          <note key="70" pos="660" pan="0" len="12" vol="16" />
          <note key="67" pos="672" pan="0" len="12" vol="45" />
          <note key="65" pos="684" pan="0" len="12" vol="16" />
          <note key="68" pos="696" pan="0" len="12" vol="31" />
          <note key="74" pos="708" pan="0" len="12" vol="16" />
          <note key="68" pos="720" pan="0" len="12" vol="45" />
          <note key="65" pos="732" pan="0" len="12" vol="16" />
          <note key="74" pos="744" pan="0" len="12" vol="31" />
          <note key="70" pos="756" pan="0" len="12" vol="16" />
          <note key="67" pos="768" pan="0" len="12" vol="45" />
          <note key="65" pos="780" pan="0" len="12" vol="16" />
          <note key="68" pos="792" pan="0" len="12" vol="31" />
          <note key="74" pos="804" pan="0" len="12" vol="16" />
          <note key="68" pos="816" pan="0" len="12" vol="45" />
          <note key="65" pos="828" pan="0" len="12" vol="16" />
          <note key="74" pos="840" pan="0" len="12" vol="31" />
          <note key="70" pos="852" pan="0" len="12" vol="16" />
          <note key="67" pos="864" pan="0" len="12" vol="45" />
          <note key="65" pos="876" pan="0" len="12" vol="16" />
          <note key="68" pos="888" pan="0" len="12" vol="31" />
          <note key="74" pos="900" pan="0" len="12" vol="16" />
          <note key="68" pos="912" pan="0" len="12" vol="45" />
          <note key="65" pos="924" pan="0" len="12" vol="16" />
          <note key="74" pos="936" pan="0" len="12" vol="31" />
          <note key="70" pos="948" pan="0" len="12" vol="16" />
          <note key="67" pos="960" pan="0" len="12" vol="45" />
          <note key="65" pos="972" pan="0" len="12" vol="16" />
          <note key="68" pos="984" pan="0" len="12" vol="31" />
          <note key="74" pos="996" pan="0" len="12" vol="16" />
          <note key="68" pos="1008" pan="0" len="12" vol="45" />
          <note key="65" pos="1020" pan="0" len="12" vol="16" />
          <note key="74" pos="1032" pan="0" len="12" vol="31" />
          <note key="70" pos="1044" pan="0" len="12" vol="16" />
          <note key="67" pos="1056" pan="0" len="12" vol="45" />
          <note key="65" pos="1068" pan="0" len="12" vol="16" />
          <note key="68" pos="1080" pan="0" len="12" vol="31" />
          <note key="74" pos="1092" pan="0" len="12" vol="16" />
          <note key="68" pos="1104" pan="0" len="12" vol="45" />
          <note key="65" pos="1116" pan="0" len="12" vol="16" />
          <note key="74" pos="1128" pan="0" len="12" vol="31" />
          <note key="70" pos="1140" pan="0" len="12" vol="16" />
          <note key="67" pos="1152" pan="0" len="12" vol="45" />
          <note key="65" pos="1164" pan="0" len="12" vol="16" />
          <note key="68" pos="1176" pan="0" len="12" vol="31" />
          <note key="74" pos="1188" pan="0" len="12" vol="16" />
          <note key="68" pos="1200" pan="0" len="12" vol="45" />
          <note key="65" pos="1212" pan="0" len="12" vol="16" />
          <note key="74" pos="1224" pan="0" len="12" vol="31" />
          <note key="70" pos="1236" pan="0" len="12" vol="16" />
          <note key="67" pos="1248" pan="0" len="12" vol="45" />
          <note key="65" pos="1260" pan="0" len="12" vol="16" />
          <note key="68" pos="1272" pan="0" len="12" vol="31" />
          <note key="74" pos="1284" pan="0" len="12" vol="16" />
          <note key="68" pos="1296" pan="0" len="12" vol="45" />
          <note key="65" pos="1308" pan="0" len="12" vol="16" />
          <note key="74" pos="1320" pan="0" len="12" vol="31" />
          <note key="70" pos="1332" pan="0" len="12" vol="16" />
          <note key="67" pos="1344" pan="0" len="12" vol="45" />
          <note key="65" pos="1356" pan="0" len="12" vol="16" />
          <note key="68" pos="1368" pan="0" len="12" vol="31" />
          <note key="74" pos="1380" pan="0" len="12" vol="16" />
          <note key="68" pos="1392" pan="0" len="12" vol="45" />
          <note key="65" pos="1404" pan="0" len="12" vol="16" />
          <note key="74" pos="1416" pan="0" len="12" vol="31" />
          <note key="70" pos="1428" pan="0" len="12" vol="16" />
          <note key="67" pos="1440" pan="0" len="12" vol="45" />
          <note key="65" pos="1452" pan="0" len="12" vol="16" />
          <note key="68" pos="1464" pan="0" len="12" vol="31" />
          <note key="74" pos="1476" pan="0" len="12" vol="16" />
          <note key="68" pos="1488" pan="0" len="12" vol="45" />
          <note key="65" pos="1500" pan="0" len="12" vol="16" />
          <note key="74" pos="1512" pan="0" len="12" vol="31" />
          <note key="70" pos="1524" pan="0" len="12" vol="16" />
        </pattern>
        <pattern pos="23040" muted="0" steps="16" name="" type="1">
          <note key="67" pos="0" pan="0" len="12" vol="45" />
          <note key="65" pos="12" pan="0" len="12" vol="16" />
          <note key="68" pos="24" pan="0" len="12" vol="31" />
          <note key="74" pos="36" pan="0" len="12" vol="16" />
          <note key="68" pos="48" pan="0" len="12" vol="45" />
          <note key="65" pos="60" pan="0" len="12" vol="16" />
          <note key="74" pos="72" pan="0" len="12" vol="31" />
          <note key="70" pos="84" pan="0" len="12" vol="16" />
          <note key="67" pos="96" pan="0" len="12" vol="45" />
          <note key="65" pos="108" pan="0" len="12" vol="16" />
          <note key="68" pos="120" pan="0" len="12" vol="31" />
          <note key="74" pos="132" pan="0" len="12" vol="16" />
          <note key="68" pos="144" pan="0" len="12" vol="45" />
          <note key="65" pos="156" pan="0" len="12" vol="16" />
          <note key="74" pos="168" pan="0" len="12" vol="31" />
          <note key="70" pos="180" pan="0" len="12" vol="16" />
          <note key="67" pos="192" pan="0" len="12" vol="45" />
          <note key="65" pos="204" pan="0" len="12" vol="16" />
          <note key="68" pos="216" pan="0" len="12" vol="31" />
          <note key="74" pos="228" pan="0" len="12" vol="16" />
          <note key="68" pos="240" pan="0" len="12" vol="45" />
          <note key="65" pos="252" pan="0" len="12" vol="16" />
          <note key="74" pos="264" pan="0" len="12" vol="31" />
          <note key="70" pos="276" pan="0" len="12" vol="16" />
          <note key="67" pos="288" pan="0" len="12" vol="45" />
          <note key="65" pos="300" pan="0" len="12" vol="16" />
          <note key="68" pos="312" pan="0" len="12" vol="31" />
          <note key="74" pos="324" pan="0" len="12" vol="16" />
          <note key="68" pos="336" pan="0" len="12" vol="45" />
          <note key="65" pos="348" pan="0" len="12" vol="16" />
          <note key="74" pos="360" pan="0" len="12" vol="31" />
          <note key="70" pos="372" pan="0" len="12" vol="16" />
          <note key="67" pos="384" pan="0" len="12" vol="45" />
          <note key="65" pos="396" pan="0" len="12" vol="16" />
          <note key="68" pos="408" pan="0" len="12" vol="31" />
          <note key="74" pos="420" pan="0" len="12" vol="16" />
          <note key="68" pos="432" pan="0" len="12" vol="45" />
          <note key="65" pos="444" pan="0" len="12" vol="16" />
          <note key="74" pos="456" pan="0" len="12" vol="31" />
          <note key="70" pos="468" pan="0" len="12" vol="16" />
          <note key="67" pos="480" pan="0" len="12" vol="45" />
          <note key="65" pos="492" pan="0" len="12" vol="16" />
          <note key="68" pos="504" pan="0" len="12" vol="31" />
          <note key="74" pos="516" pan="0" len="12" vol="16" />
          <note key="68" pos="528" pan="0" len="12" vol="45" />
          <note key="65" pos="540" pan="0" len="12" vol="16" />
          <note key="74" pos="552" pan="0" len="12" vol="31" />
          <note key="70" pos="564" pan="0" len="12" vol="16" />
          <note key="67" pos="576" pan="0" len="12" vol="45" />
          <note key="65" pos="588" pan="0" len="12" vol="16" />
          <note key="68" pos="600" pan="0" len="12" vol="31" />
          <note key="74" pos="612" pan="0" len="12" vol="16" />
          <note key="68" pos="624" pan="0" len="12" vol="45" />
          <note key="65" pos="636" pan="0" len="12" vol="16" />
          <note key="74" pos="648" pan="0" len="12" vol="31" />
          <note key="70" pos="660" pan="0" len="12" vol="16" />
          <note key="67" pos="672" pan="0" len="12" vol="45" />
          <note key="65" pos="684" pan="0" len="12" vol="16" />
          <note key="68" pos="696" pan="0" len="12" vol="31" />
          <note key="74" pos="708" pan="0" len="12" vol="16" />
          <note key="68" pos="720" pan="0" len="12" vol="45" />
          <note key="65" pos="732" pan="0" len="12" vol="16" />
          <note key="74" pos="744" pan="0" len="12" vol="31" />
          <note key="70" pos="756" pan="0" len="12" vol="16" />
          <note key="67" pos="768" pan="0" len="12" vol="45" />
          <note key="65" pos="780" pan="0" len="12" vol="16" />
          <note key="68" pos="792" pan="0" len="12" vol="31" />
          <note key="74" pos="804" pan="0" len="12" vol="16" />
          <note key="68" pos="816" pan="0" len="12" vol="45" />
          <note key="65" pos="828" pan="0" len="12" vol="16" />
          <note key="74" pos="840" pan="0" len="12" vol="31" />
          <note key="70" pos="852" pan="0" len="12" vol="16" />
          <note key="67" pos="864" pan="0" len="12" vol="45" />
          <note key="65" pos="876" pan="0" len="12" vol="16" />
          <note key="68" pos="888" pan="0" len="12" vol="31" />
          <note key="74" pos="900" pan="0" len="12" vol="16" />
          <note key="68" pos="912" pan="0" len="12" vol="45" />
          <note key="65" pos="924" pan="0" len="12" vol="16" />
          <note key="74" pos="936" pan="0" len="12" vol="31" />
          <note key="70" pos="948" pan="0" len="12" vol="16" />
          <note key="67" pos="960" pan="0" len="12" vol="45" />
          <note key="65" pos="972" pan="0" len="12" vol="16" />
          <note key="68" pos="984" pan="0" len="12" vol="31" />
          <note key="74" pos="996" pan="0" len="12" vol="16" />
          <note key="68" pos="1008" pan="0" len="12" vol="45" />
          <note key="65" pos="1020" pan="0" len="12" vol="16" />
          <note key="74" pos="1032" pan="0" len="12" vol="31" />
          <note key="70" pos="1044" pan="0" len="12" vol="16" />
          <note key="67" pos="1056" pan="0" len="12" vol="45" />
          <note key="65" pos="1068" pan="0" len="12" vol="16" />
          <note key="68" pos="1080" pan="0" len="12" vol="31" />
          <note key="74" pos="1092" pan="0" len="12" vol="16" />
          <note key="68" pos="1104" pan="0" len="12" vol="45" />
          <note key="65" pos="1116" pan="0" len="12" vol="16" />
          <note key="74" pos="1128" pan="0" len="12" vol="31" />
          <note key="70" pos="1140" pan="0" len="12" vol="16" />
          <note key="67" pos="1152" pan="0" len="12" vol="45" />
          <note key="65" pos="1164" pan="0" len="12" vol="16" />
          <note key="68" pos="1176" pan="0" len="12" vol="31" />
          <note key="74" pos="1188" pan="0" len="12" vol="16" />
          <note key="68" pos="1200" pan="0" len="12" vol="45" />
          <note key="65" pos="1212" pan="0" len="12" vol="16" />
          <note key="74" pos="1224" pan="0" len="12" vol="31" />
          <note key="70" pos="1236" pan="0" len="12" vol="16" />
          <note key="67" pos="1248" pan="0" len="12" vol="45" />
          <note key="65" pos="1260" pan="0" len="12" vol="16" />
          <note key="68" pos="1272" pan="0" len="12" vol="31" />
          <note key="74" pos="1284" pan="0" len="12" vol="16" />
          <note key="68" pos="1296" pan="0" len="12" vol="45" />
          <note key="65" pos="1308" pan="0" len="12" vol="16" />
          <note key="74" pos="1320" pan="0" len="12" vol="31" />
          <note key="70" pos="1332" pan="0" len="12" vol="16" />
          <note key="67" pos="1344" pan="0" len="12" vol="45" />
          <note key="65" pos="1356" pan="0" len="12" vol="16" />
          <note key="68" pos="1368" pan="0" len="12" vol="31" />
          <note key="74" pos="1380" pan="0" len="12" vol="16" />
          <note key="68" pos="1392" pan="0" len="12" vol="45" />
          <note key="65" pos="1404" pan="0" len="12" vol="16" />
          <note key="74" pos="1416" pan="0" len="12" vol="31" />
          <note key="70" pos="1428" pan="0" len="12" vol="16" />
          <note key="67" pos="1440" pan="0" len="12" vol="45" />
          <note key="65" pos="1452" pan="0" len="12" vol="16" />
          <note key="68" pos="1464" pan="0" len="12" vol="31" />
          <note key="74" pos="1476" pan="0" len="12" vol="16" />
          <note key="68" pos="1488" pan="0" len="12" vol="45" />
          <note key="65" pos="1500" pan="0" len="12" vol="16" />
          <note key="74" pos="1512" pan="0" len="12" vol="31" />
          <note key="70" pos="1524" pan="0" len="12" vol="16" />
        </pattern>
        <pattern pos="24576" muted="0" steps="16" name="" type="1">
          <note key="67" pos="0" pan="0" len="12" vol="45" />
          <note key="65" pos="12" pan="0" len="12" vol="16" />
          <note key="68" pos="24" pan="0" len="12" vol="31" />
          <note key="74" pos="36" pan="0" len="12" vol="16" />
          <note key="68" pos="48" pan="0" len="12" vol="45" />
          <note key="65" pos="60" pan="0" len="12" vol="16" />
          <note key="74" pos="72" pan="0" len="12" vol="31" />
          <note key="70" pos="84" pan="0" len="12" vol="16" />
          <note key="67" pos="96" pan="0" len="12" vol="45" />
          <note key="65" pos="108" pan="0" len="12" vol="16" />
          <note key="68" pos="120" pan="0" len="12" vol="31" />
          <note key="74" pos="132" pan="0" len="12" vol="16" />
          <note key="68" pos="144" pan="0" len="12" vol="45" />
          <note key="65" pos="156" pan="0" len="12" vol="16" />
          <note key="74" pos="168" pan="0" len="12" vol="31" />
          <note key="70" pos="180" pan="0" len="12" vol="16" />
          <note key="67" pos="192" pan="0" len="12" vol="45" />
          <note key="65" pos="204" pan="0" len="12" vol="16" />
          <note key="68" pos="216" pan="0" len="12" vol="31" />
          <note key="74" pos="228" pan="0" len="12" vol="16" />
          <note key="68" pos="240" pan="0" len="12" vol="45" />
          <note key="65" pos="252" pan="0" len="12" vol="16" />
          <note key="74" pos="264" pan="0" len="12" vol="31" />
          <note key="70" pos="276" pan="0" len="12" vol="16" />
          <note key="67" pos="288" pan="0" len="12" vol="45" />
          <note key="65" pos="300" pan="0" len="12" vol="16" />
          <note key="68" pos="312" pan="0" len="12" vol="31" />
          <note key="74" pos="324" pan="0" len="12" vol="16" />
          <note key="68" pos="336" pan="0" len="12" vol="45" />
          <note key="65" pos="348" pan="0" len="12" vol="16" />
          <note key="74" pos="360" pan="0" len="12" vol="31" />
          <note key="70" pos="372" pan="0" len="12" vol="16" />
          <note key="67" pos="384" pan="0" len="12" vol="45" />
          <note key="65" pos="396" pan="0" len="12" vol="16" />
          <note key="68" pos="408" pan="0" len="12" vol="31" />
          <note key="74" pos="420" pan="0" len="12" vol="16" />
          <note key="68" pos="432" pan="0" len="12" vol="45" />
          <note key="65" pos="444" pan="0" len="12" vol="16" />
          <note key="74" pos="456" pan="0" len="12" vol="31" />
          <note key="70" pos="468" pan="0" len="12" vol="16" />
          <note key="67" pos="480" pan="0" len="12" vol="45" />
          <note key="65" pos="492" pan="0" len="12" vol="16" />
          <note key="68" pos="504" pan="0" len="12" vol="31" />
          <note key="74" pos="516" pan="0" len="12" vol="16" />
          <note key="68" pos="528" pan="0" len="12" vol="45" />
          <note key="65" pos="540" pan="0" len="12" vol="16" />
          <note key="74" pos="552" pan="0" len="12" vol="31" />
          <note key="70" pos="564" pan="0" len="12" vol="16" />
          <note key="67" pos="576" pan="0" len="12" vol="45" />
          <note key="65" pos="588" pan="0" len="12" vol="16" />
          <note key="68" pos="600" pan="0" len="12" vol="31" />
          <note key="74" pos="612" pan="0" len="12" vol="16" />
          <note key="68" pos="624" pan="0" len="12" vol="45" />
          <note key="65" pos="636" pan="0" len="12" vol="16" />
          <note key="74" pos="648" pan="0" len="12" vol="31" />
          <note key="70" pos="660" pan="0" len="12" vol="16" />
          <note key="67" pos="672" pan="0" len="12" vol="45" />
          <note key="65" pos="684" pan="0" len="12" vol="16" />
          <note key="68" pos="696" pan="0" len="12" vol="31" />
          <note key="74" pos="708" pan="0" len="12" vol="16" />
          <note key="68" pos="720" pan="0" len="12" vol="45" />
          <note key="65" pos="732" pan="0" len="12" vol="16" />
          <note key="74" pos="744" pan="0" len="12" vol="31" />
          <note key="70" pos="756" pan="0" len="12" vol="16" />
          <note key="67" pos="768" pan="0" len="12" vol="45" />
          <note key="65" pos="780" pan="0" len="12" vol="16" />
          <note key="68" pos="792" pan="0" len="12" vol="31" />
          <note key="74" pos="804" pan="0" len="12" vol="16" />
          <note key="68" pos="816" pan="0" len="12" vol="45" />
          <note key="65" pos="828" pan="0" len="12" vol="16" />
          <note key="74" pos="840" pan="0" len="12" vol="31" />
          <note key="70" pos="852" pan="0" len="12" vol="16" />
          <note key="67" pos="864" pan="0" len="12" vol="45" />
          <note key="65" pos="876" pan="0" len="12" vol="16" />
          <note key="68" pos="888" pan="0" len="12" vol="31" />
          <note key="74" pos="900" pan="0" len="12" vol="16" />
          <note key="68" pos="912" pan="0" len="12" vol="45" />
          <note key="65" pos="924" pan="0" len="12" vol="16" />
          <note key="74" pos="936" pan="0" len="12" vol="31" />
          <note key="70" pos="948" pan="0" len="12" vol="16" />
          <note key="67" pos="960" pan="0" len="12" vol="45" />
          <note key="65" pos="972" pan="0" len="12" vol="16" />
          <note key="68" pos="984" pan="0" len="12" vol="31" />
          <note key="74" pos="996" pan="0" len="12" vol="16" />
          <note key="68" pos="1008" pan="0" len="12" vol="45" />
          <note key="65" pos="1020" pan="0" len="12" vol="16" />
          <note key="74" pos="1032" pan="0" len="12" vol="31" />
          <note key="70" pos="1044" pan="0" len="12" vol="16" />
          <note key="67" pos="1056" pan="0" len="12" vol="45" />
          <note key="65" pos="1068" pan="0" len="12" vol="16" />
          <note key="68" pos="1080" pan="0" len="12" vol="31" />
          <note key="74" pos="1092" pan="0" len="12" vol="16" />
          <note key="68" pos="1104" pan="0" len="12" vol="45" />
          <note key="65" pos="1116" pan="0" len="12" vol="16" />
          <note key="74" pos="1128" pan="0" len="12" vol="31" />
          <note key="70" pos="1140" pan="0" len="12" vol="16" />
          <note key="67" pos="1152" pan="0" len="12" vol="45" />
          <note key="65" pos="1164" pan="0" len="12" vol="16" />
          <note key="68" pos="1176" pan="0" len="12" vol="31" />
          <note key="74" pos="1188" pan="0" len="12" vol="16" />
          <note key="68" pos="1200" pan="0" len="12" vol="45" />
          <note key="65" pos="1212" pan="0" len="12" vol="16" />
          <note key="74" pos="1224" pan="0" len="12" vol="31" />
          <note key="70" pos="1236" pan="0" len="12" vol="16" />
          <note key="67" pos="1248" pan="0" len="12" vol="45" />
          <note key="65" pos="1260" pan="0" len="12" vol="16" />
          <note key="68" pos="1272" pan="0" len="12" vol="31" />
          <note key="74" pos="1284" pan="0" len="12" vol="16" />
          <note key="68" pos="1296" pan="0" len="12" vol="45" />
          <note key="65" pos="1308" pan="0" len="12" vol="16" />
          <note key="74" pos="1320" pan="0" len="12" vol="31" />
          <note key="70" pos="1332" pan="0" len="12" vol="16" />
          <note key="67" pos="1344" pan="0" len="12" vol="45" />
          <note key="65" pos="1356" pan="0" len="12" vol="16" />
          <note key="68" pos="1368" pan="0" len="12" vol="31" />
          <note key="74" pos="1380" pan="0" len="12" vol="16" />
          <note key="68" pos="1392" pan="0" len="12" vol="45" />
          <note key="65" pos="1404" pan="0" len="12" vol="16" />
          <note key="74" pos="1416" pan="0" len="12" vol="31" />
          <note key="70" pos="1428" pan="0" len="12" vol="16" />
          <note key="67" pos="1440" pan="0" len="12" vol="45" />
          <note key="65" pos="1452" pan="0" len="12" vol="16" />
          <note key="68" pos="1464" pan="0" len="12" vol="31" />
          <note key="74" pos="1476" pan="0" len="12" vol="16" />
          <note key="68" pos="1488" pan="0" len="12" vol="45" />
          <note key="65" pos="1500" pan="0" len="12" vol="16" />
          <note key="74" pos="1512" pan="0" len="12" vol="31" />
          <note key="70" pos="1524" pan="0" len="12" vol="16" />
        </pattern>
        <pattern pos="26112" muted="0" steps="16" name="" type="1">
          <note key="65" pos="0" pan="0" len="12" vol="75" />
          <note key="63" pos="12" pan="0" len="12" vol="27" />
          <note key="66" pos="24" pan="0" len="12" vol="52" />
          <note key="72" pos="36" pan="0" len="12" vol="27" />
          <note key="66" pos="48" pan="0" len="12" vol="75" />
          <note key="63" pos="60" pan="0" len="12" vol="27" />
          <note key="72" pos="72" pan="0" len="12" vol="52" />
          <note key="68" pos="84" pan="0" len="12" vol="27" />
          <note key="65" pos="96" pan="0" len="12" vol="75" />
          <note key="63" pos="108" pan="0" len="12" vol="27" />
          <note key="66" pos="120" pan="0" len="12" vol="52" />
          <note key="72" pos="132" pan="0" len="12" vol="27" />
          <note key="66" pos="144" pan="0" len="12" vol="75" />
          <note key="63" pos="156" pan="0" len="12" vol="27" />
          <note key="72" pos="168" pan="0" len="12" vol="52" />
          <note key="68" pos="180" pan="0" len="12" vol="27" />
          <note key="65" pos="192" pan="0" len="12" vol="75" />
          <note key="63" pos="204" pan="0" len="12" vol="27" />
          <note key="66" pos="216" pan="0" len="12" vol="52" />
          <note key="72" pos="228" pan="0" len="12" vol="27" />
          <note key="66" pos="240" pan="0" len="12" vol="75" />
          <note key="63" pos="252" pan="0" len="12" vol="27" />
          <note key="72" pos="264" pan="0" len="12" vol="52" />
          <note key="68" pos="276" pan="0" len="12" vol="27" />
          <note key="65" pos="288" pan="0" len="12" vol="75" />
          <note key="63" pos="300" pan="0" len="12" vol="27" />
          <note key="66" pos="312" pan="0" len="12" vol="52" />
          <note key="72" pos="324" pan="0" len="12" vol="27" />
          <note key="66" pos="336" pan="0" len="12" vol="75" />
          <note key="63" pos="348" pan="0" len="12" vol="27" />
          <note key="72" pos="360" pan="0" len="12" vol="52" />
          <note key="68" pos="372" pan="0" len="12" vol="27" />
          <note key="65" pos="384" pan="0" len="12" vol="75" />
          <note key="63" pos="396" pan="0" len="12" vol="27" />
          <note key="66" pos="408" pan="0" len="12" vol="52" />
          <note key="72" pos="420" pan="0" len="12" vol="27" />
          <note key="66" pos="432" pan="0" len="12" vol="75" />
          <note key="63" pos="444" pan="0" len="12" vol="27" />
          <note key="72" pos="456" pan="0" len="12" vol="52" />
          <note key="68" pos="468" pan="0" len="12" vol="27" />
          <note key="65" pos="480" pan="0" len="12" vol="75" />
          <note key="63" pos="492" pan="0" len="12" vol="27" />
          <note key="66" pos="504" pan="0" len="12" vol="52" />
          <note key="72" pos="516" pan="0" len="12" vol="27" />
          <note key="66" pos="528" pan="0" len="12" vol="75" />
          <note key="63" pos="540" pan="0" len="12" vol="27" />
          <note key="72" pos="552" pan="0" len="12" vol="52" />
          <note key="68" pos="564" pan="0" len="12" vol="27" />
          <note key="65" pos="576" pan="0" len="12" vol="75" />
          <note key="63" pos="588" pan="0" len="12" vol="27" />
          <note key="66" pos="600" pan="0" len="12" vol="52" />
          <note key="72" pos="612" pan="0" len="12" vol="27" />
          <note key="66" pos="624" pan="0" len="12" vol="75" />
          <note key="63" pos="636" pan="0" len="12" vol="27" />
          <note key="72" pos="648" pan="0" len="12" vol="52" />
          <note key="68" pos="660" pan="0" len="12" vol="27" />
          <note key="65" pos="672" pan="0" len="12" vol="75" />
          <note key="63" pos="684" pan="0" len="12" vol="27" />
          <note key="66" pos="696" pan="0" len="12" vol="52" />
          <note key="72" pos="708" pan="0" len="12" vol="27" />
          <note key="65" pos="720" pan="0" len="12" vol="75" />
          <note key="63" pos="732" pan="0" len="12" vol="27" />
          <note key="66" pos="744" pan="0" len="12" vol="52" />
          <note key="72" pos="756" pan="0" len="12" vol="27" />
          <note key="65" pos="768" pan="0" len="12" vol="75" />
          <note key="63" pos="780" pan="0" len="12" vol="27" />
          <note key="66" pos="792" pan="0" len="12" vol="52" />
          <note key="72" pos="804" pan="0" len="12" vol="27" />
          <note key="66" pos="816" pan="0" len="12" vol="75" />
          <note key="63" pos="828" pan="0" len="12" vol="27" />
          <note key="72" pos="840" pan="0" len="12" vol="52" />
          <note key="68" pos="852" pan="0" len="12" vol="27" />
          <note key="65" pos="864" pan="0" len="12" vol="75" />
          <note key="63" pos="876" pan="0" len="12" vol="27" />
          <note key="66" pos="888" pan="0" len="12" vol="52" />
          <note key="72" pos="900" pan="0" len="12" vol="27" />
          <note key="66" pos="912" pan="0" len="12" vol="75" />
          <note key="63" pos="924" pan="0" len="12" vol="27" />
          <note key="72" pos="936" pan="0" len="12" vol="52" />
          <note key="68" pos="948" pan="0" len="12" vol="27" />
          <note key="65" pos="960" pan="0" len="12" vol="75" />
          <note key="63" pos="972" pan="0" len="12" vol="27" />
          <note key="66" pos="984" pan="0" len="12" vol="52" />
          <note key="72" pos="996" pan="0" len="12" vol="27" />
          <note key="66" pos="1008" pan="0" len="12" vol="75" />
          <note key="63" pos="1020" pan="0" len="12" vol="27" />
          <note key="72" pos="1032" pan="0" len="12" vol="52" />
          <note key="68" pos="1044" pan="0" len="12" vol="27" />
          <note key="65" pos="1056" pan="0" len="12" vol="75" />
          <note key="63" pos="1068" pan="0" len="12" vol="27" />
          <note key="66" pos="1080" pan="0" len="12" vol="52" />
          <note key="72" pos="1092" pan="0" len="12" vol="27" />
          <note key="66" pos="1104" pan="0" len="12" vol="75" />
          <note key="63" pos="1116" pan="0" len="12" vol="27" />
          <note key="72" pos="1128" pan="0" len="12" vol="52" />
          <note key="68" pos="1140" pan="0" len="12" vol="27" />
          <note key="65" pos="1152" pan="0" len="12" vol="75" />
          <note key="63" pos="1164" pan="0" len="12" vol="27" />
          <note key="66" pos="1176" pan="0" len="12" vol="52" />
          <note key="72" pos="1188" pan="0" len="12" vol="27" />
          <note key="66" pos="1200" pan="0" len="12" vol="75" />
          <note key="63" pos="1212" pan="0" len="12" vol="27" />
          <note key="72" pos="1224" pan="0" len="12" vol="52" />
          <note key="68" pos="1236" pan="0" len="12" vol="27" />
          <note key="65" pos="1248" pan="0" len="12" vol="75" />
          <note key="63" pos="1260" pan="0" len="12" vol="27" />
          <note key="66" pos="1272" pan="0" len="12" vol="52" />
          <note key="72" pos="1284" pan="0" len="12" vol="27" />
          <note key="66" pos="1296" pan="0" len="12" vol="75" />
          <note key="63" pos="1308" pan="0" len="12" vol="27" />
          <note key="72" pos="1320" pan="0" len="12" vol="52" />
          <note key="68" pos="1332" pan="0" len="12" vol="27" />
          <note key="65" pos="1344" pan="0" len="12" vol="75" />
          <note key="63" pos="1356" pan="0" len="12" vol="27" />
          <note key="66" pos="1368" pan="0" len="12" vol="52" />
          <note key="72" pos="1380" pan="0" len="12" vol="27" />
          <note key="66" pos="1392" pan="0" len="12" vol="75" />
          <note key="63" pos="1404" pan="0" len="12" vol="27" />
          <note key="72" pos="1416" pan="0" len="12" vol="52" />
          <note key="68" pos="1428" pan="0" len="12" vol="27" />
          <note key="65" pos="1440" pan="0" len="12" vol="75" />
          <note key="63" pos="1452" pan="0" len="12" vol="27" />
          <note key="66" pos="1464" pan="0" len="12" vol="52" />
          <note key="72" pos="1476" pan="0" len="12" vol="27" />
          <note key="66" pos="1488" pan="0" len="12" vol="75" />
          <note key="63" pos="1500" pan="0" len="12" vol="27" />
          <note key="72" pos="1512" pan="0" len="12" vol="52" />
          <note key="68" pos="1524" pan="0" len="12" vol="27" />
        </pattern>
        <pattern pos="27648" muted="0" steps="16" name="" type="1">
          <note key="65" pos="0" pan="0" len="12" vol="75" />
          <note key="63" pos="12" pan="0" len="12" vol="27" />
          <note key="66" pos="24" pan="0" len="12" vol="52" />
          <note key="72" pos="36" pan="0" len="12" vol="27" />
          <note key="66" pos="48" pan="0" len="12" vol="75" />
          <note key="63" pos="60" pan="0" len="12" vol="27" />
          <note key="72" pos="72" pan="0" len="12" vol="52" />
          <note key="68" pos="84" pan="0" len="12" vol="27" />
          <note key="65" pos="96" pan="0" len="12" vol="75" />
          <note key="63" pos="108" pan="0" len="12" vol="27" />
          <note key="66" pos="120" pan="0" len="12" vol="52" />
          <note key="72" pos="132" pan="0" len="12" vol="27" />
          <note key="66" pos="144" pan="0" len="12" vol="75" />
          <note key="63" pos="156" pan="0" len="12" vol="27" />
          <note key="72" pos="168" pan="0" len="12" vol="52" />
          <note key="68" pos="180" pan="0" len="12" vol="27" />
          <note key="65" pos="192" pan="0" len="12" vol="75" />
          <note key="63" pos="204" pan="0" len="12" vol="27" />
          <note key="66" pos="216" pan="0" len="12" vol="52" />
          <note key="72" pos="228" pan="0" len="12" vol="27" />
          <note key="66" pos="240" pan="0" len="12" vol="75" />
          <note key="63" pos="252" pan="0" len="12" vol="27" />
          <note key="72" pos="264" pan="0" len="12" vol="52" />
          <note key="68" pos="276" pan="0" len="12" vol="27" />
          <note key="65" pos="288" pan="0" len="12" vol="75" />
          <note key="63" pos="300" pan="0" len="12" vol="27" />
          <note key="66" pos="312" pan="0" len="12" vol="52" />
          <note key="72" pos="324" pan="0" len="12" vol="27" />
          <note key="66" pos="336" pan="0" len="12" vol="75" />
          <note key="63" pos="348" pan="0" len="12" vol="27" />
          <note key="72" pos="360" pan="0" len="12" vol="52" />
          <note key="68" pos="372" pan="0" len="12" vol="27" />
          <note key="65" pos="384" pan="0" len="12" vol="75" />
          <note key="63" pos="396" pan="0" len="12" vol="27" />
          <note key="66" pos="408" pan="0" len="12" vol="52" />
          <note key="72" pos="420" pan="0" len="12" vol="27" />
          <note key="66" pos="432" pan="0" len="12" vol="75" />
          <note key="63" pos="444" pan="0" len="12" vol="27" />
          <note key="72" pos="456" pan="0" len="12" vol="52" />
          <note key="68" pos="468" pan="0" len="12" vol="27" />
          <note key="65" pos="480" pan="0" len="12" vol="75" />
          <note key="63" pos="492" pan="0" len="12" vol="27" />
          <note key="66" pos="504" pan="0" len="12" vol="52" />
          <note key="72" pos="516" pan="0" len="12" vol="27" />
          <note key="66" pos="528" pan="0" len="12" vol="75" />
          <note key="63" pos="540" pan="0" len="12" vol="27" />
          <note key="72" pos="552" pan="0" len="12" vol="52" />
          <note key="68" pos="564" pan="0" len="12" vol="27" />
          <note key="65" pos="576" pan="0" len="12" vol="75" />
          <note key="63" pos="588" pan="0" len="12" vol="27" />
          <note key="66" pos="600" pan="0" len="12" vol="52" />
          <note key="72" pos="612" pan="0" len="12" vol="27" />
          <note key="66" pos="624" pan="0" len="12" vol="75" />
          <note key="63" pos="636" pan="0" len="12" vol="27" />
          <note key="72" pos="648" pan="0" len="12" vol="52" />
          <note key="68" pos="660" pan="0" len="12" vol="27" />
          <note key="65" pos="672" pan="0" len="12" vol="75" />
          <note key="63" pos="684" pan="0" len="12" vol="27" />
          <note key="66" pos="696" pan="0" len="12" vol="52" />
          <note key="72" pos="708" pan="0" len="12" vol="27" />
          <note key="66" pos="720" pan="0" len="12" vol="75" />
          <note key="63" pos="732" pan="0" len="12" vol="27" />
          <note key="72" pos="744" pan="0" len="12" vol="52" />
          <note key="68" pos="756" pan="0" len="12" vol="27" />
          <note key="65" pos="768" pan="0" len="12" vol="75" />
          <note key="63" pos="780" pan="0" len="12" vol="27" />
          <note key="66" pos="792" pan="0" len="12" vol="52" />
          <note key="72" pos="804" pan="0" len="12" vol="27" />
          <note key="66" pos="816" pan="0" len="12" vol="75" />
          <note key="63" pos="828" pan="0" len="12" vol="27" />
          <note key="72" pos="840" pan="0" len="12" vol="52" />
          <note key="68" pos="852" pan="0" len="12" vol="27" />
          <note key="65" pos="864" pan="0" len="12" vol="75" />
          <note key="63" pos="876" pan="0" len="12" vol="27" />
          <note key="66" pos="888" pan="0" len="12" vol="52" />
          <note key="72" pos="900" pan="0" len="12" vol="27" />
          <note key="66" pos="912" pan="0" len="12" vol="75" />
          <note key="63" pos="924" pan="0" len="12" vol="27" />
          <note key="72" pos="936" pan="0" len="12" vol="52" />
          <note key="68" pos="948" pan="0" len="12" vol="27" />
          <note key="65" pos="960" pan="0" len="12" vol="75" />
          <note key="63" pos="972" pan="0" len="12" vol="27" />
          <note key="66" pos="984" pan="0" len="12" vol="52" />
          <note key="72" pos="996" pan="0" len="12" vol="27" />
          <note key="66" pos="1008" pan="0" len="12" vol="75" />
          <note key="63" pos="1020" pan="0" len="12" vol="27" />
          <note key="72" pos="1032" pan="0" len="12" vol="52" />
          <note key="68" pos="1044" pan="0" len="12" vol="27" />
          <note key="65" pos="1056" pan="0" len="12" vol="75" />
          <note key="63" pos="1068" pan="0" len="12" vol="27" />
          <note key="66" pos="1080" pan="0" len="12" vol="52" />
          <note key="72" pos="1092" pan="0" len="12" vol="27" />
          <note key="66" pos="1104" pan="0" len="12" vol="75" />
          <note key="63" pos="1116" pan="0" len="12" vol="27" />
          <note key="72" pos="1128" pan="0" len="12" vol="52" />
          <note key="68" pos="1140" pan="0" len="12" vol="27" />
          <note key="65" pos="1152" pan="0" len="12" vol="75" />
          <note key="63" pos="1164" pan="0" len="12" vol="27" />
          <note key="66" pos="1176" pan="0" len="12" vol="52" />
          <note key="72" pos="1188" pan="0" len="12" vol="27" />
          <note key="66" pos="1200" pan="0" len="12" vol="75" />
          <note key="63" pos="1212" pan="0" len="12" vol="27" />
          <note key="72" pos="1224" pan="0" len="12" vol="52" />
          <note key="68" pos="1236" pan="0" len="12" vol="27" />
          <note key="65" pos="1248" pan="0" len="12" vol="75" />
          <note key="63" pos="1260" pan="0" len="12" vol="27" />
          <note key="66" pos="1272" pan="0" len="12" vol="52" />
          <note key="72" pos="1284" pan="0" len="12" vol="27" />
          <note key="66" pos="1296" pan="0" len="12" vol="75" />
          <note key="63" pos="1308" pan="0" len="12" vol="27" />
          <note key="72" pos="1320" pan="0" len="12" vol="52" />
          <note key="68" pos="1332" pan="0" len="12" vol="27" />
          <note key="65" pos="1344" pan="0" len="12" vol="75" />
          <note key="63" pos="1356" pan="0" len="12" vol="27" />
          <note key="66" pos="1368" pan="0" len="12" vol="52" />
          <note key="72" pos="1380" pan="0" len="12" vol="27" />
          <note key="66" pos="1392" pan="0" len="12" vol="75" />
          <note key="63" pos="1404" pan="0" len="12" vol="27" />
          <note key="72" pos="1416" pan="0" len="12" vol="52" />
          <note key="68" pos="1428" pan="0" len="12" vol="27" />
          <note key="65" pos="1440" pan="0" len="12" vol="75" />
          <note key="63" pos="1452" pan="0" len="12" vol="27" />
          <note key="66" pos="1464" pan="0" len="12" vol="52" />
          <note key="72" pos="1476" pan="0" len="12" vol="27" />
          <note key="66" pos="1488" pan="0" len="12" vol="75" />
          <note key="63" pos="1500" pan="0" len="12" vol="27" />
          <note key="72" pos="1512" pan="0" len="12" vol="52" />
          <note key="68" pos="1524" pan="0" len="12" vol="27" />
        </pattern>
      </track>
      <track solo="0" name="36 (Ch7)" type="0" muted="0">
        <instrumenttrack usemasterpitch="1" pitch="0.0" basenote="57" pan="0" pitchrange="12" vol="30">
          <eldata />
          <instrument name="tripleoscillator" />
        </instrumenttrack>
        <pattern pos="24576" muted="0" steps="16" name="" type="1">
          <note key="62" pos="12" pan="0" len="12" vol="70" />
          <note key="64" pos="24" pan="0" len="24" vol="70" />
          <note key="67" pos="48" pan="0" len="24" vol="70" />
          <note key="69" pos="72" pan="0" len="12" vol="70" />
          <note key="64" pos="84" pan="0" len="24" vol="70" />
          <note key="63" pos="108" pan="0" len="12" vol="70" />
          <note key="65" pos="120" pan="0" len="24" vol="70" />
          <note key="67" pos="144" pan="0" len="12" vol="70" />
          <note key="68" pos="156" pan="0" len="12" vol="70" />
          <note key="69" pos="168" pan="0" len="36" vol="70" />
          <note key="62" pos="204" pan="0" len="12" vol="70" />
          <note key="64" pos="216" pan="0" len="24" vol="70" />
          <note key="67" pos="240" pan="0" len="24" vol="70" />
          <note key="69" pos="264" pan="0" len="12" vol="70" />
          <note key="64" pos="276" pan="0" len="24" vol="70" />
          <note key="63" pos="300" pan="0" len="12" vol="70" />
          <note key="65" pos="312" pan="0" len="24" vol="70" />
          <note key="67" pos="336" pan="0" len="12" vol="70" />
          <note key="68" pos="348" pan="0" len="12" vol="70" />
          <note key="69" pos="360" pan="0" len="36" vol="70" />
          <note key="62" pos="396" pan="0" len="12" vol="70" />
          <note key="64" pos="408" pan="0" len="24" vol="70" />
          <note key="67" pos="432" pan="0" len="24" vol="70" />
          <note key="69" pos="456" pan="0" len="12" vol="70" />
          <note key="64" pos="468" pan="0" len="24" vol="70" />
          <note key="63" pos="492" pan="0" len="12" vol="70" />
          <note key="65" pos="504" pan="0" len="24" vol="70" />
          <note key="67" pos="528" pan="0" len="12" vol="70" />
          <note key="68" pos="540" pan="0" len="12" vol="70" />
          <note key="69" pos="552" pan="0" len="36" vol="70" />
          <note key="62" pos="588" pan="0" len="12" vol="70" />
          <note key="64" pos="600" pan="0" len="24" vol="70" />
          <note key="67" pos="624" pan="0" len="24" vol="70" />
          <note key="69" pos="648" pan="0" len="12" vol="70" />
          <note key="64" pos="660" pan="0" len="24" vol="70" />
          <note key="63" pos="684" pan="0" len="12" vol="70" />
          <note key="65" pos="696" pan="0" len="24" vol="70" />
          <note key="67" pos="720" pan="0" len="12" vol="70" />
          <note key="68" pos="732" pan="0" len="12" vol="70" />
          <note key="69" pos="744" pan="0" len="36" vol="70" />
          <note key="62" pos="780" pan="0" len="12" vol="70" />
          <note key="64" pos="792" pan="0" len="24" vol="70" />
          <note key="67" pos="816" pan="0" len="24" vol="70" />
          <note key="69" pos="840" pan="0" len="12" vol="70" />
          <note key="64" pos="852" pan="0" len="24" vol="70" />
          <note key="63" pos="876" pan="0" len="12" vol="70" />
          <note key="65" pos="888" pan="0" len="24" vol="70" />
          <note key="67" pos="912" pan="0" len="12" vol="70" />
          <note key="68" pos="924" pan="0" len="12" vol="70" />
          <note key="69" pos="936" pan="0" len="36" vol="70" />
          <note key="62" pos="972" pan="0" len="12" vol="70" />
          <note key="64" pos="984" pan="0" len="24" vol="70" />
          <note key="67" pos="1008" pan="0" len="24" vol="70" />
          <note key="69" pos="1032" pan="0" len="12" vol="70" />
          <note key="64" pos="1044" pan="0" len="24" vol="70" />
          <note key="63" pos="1068" pan="0" len="12" vol="70" />
          <note key="65" pos="1080" pan="0" len="24" vol="70" />
          <note key="67" pos="1104" pan="0" len="12" vol="70" />
          <note key="68" pos="1116" pan="0" len="12" vol="70" />
          <note key="69" pos="1128" pan="0" len="36" vol="70" />
          <note key="62" pos="1164" pan="0" len="12" vol="70" />
          <note key="64" pos="1176" pan="0" len="24" vol="70" />
          <note key="67" pos="1200" pan="0" len="24" vol="70" />
          <note key="69" pos="1224" pan="0" len="12" vol="70" />
          <note key="64" pos="1236" pan="0" len="24" vol="70" />
          <note key="63" pos="1260" pan="0" len="12" vol="70" />
          <note key="65" pos="1272" pan="0" len="24" vol="70" />
          <note key="67" pos="1296" pan="0" len="12" vol="70" />
          <note key="68" pos="1308" pan="0" len="12" vol="70" />
          <note key="69" pos="1320" pan="0" len="36" vol="70" />
          <note key="62" pos="1356" pan="0" len="12" vol="70" />
          <note key="64" pos="1368" pan="0" len="24" vol="70" />
          <note key="67" pos="1392" pan="0" len="24" vol="70" />
          <note key="69" pos="1416" pan="0" len="12" vol="70" />
          <note key="64" pos="1428" pan="0" len="24" vol="70" />
          <note key="63" pos="1452" pan="0" len="12" vol="70" />
          <note key="65" pos="1464" pan="0" len="24" vol="70" />
          <note key="67" pos="1488" pan="0" len="12" vol="70" />
          <note key="68" pos="1500" pan="0" len="12" vol="70" />
          <note key="69" pos="1512" pan="0" len="24" vol="70" />
        </pattern>
        <pattern pos="21504" muted="0" steps="16" name="" type="1">
          <note key="62" pos="780" pan="0" len="12" vol="70" />
          <note key="64" pos="792" pan="0" len="24" vol="70" />
          <note key="67" pos="816" pan="0" len="24" vol="70" />
          <note key="69" pos="840" pan="0" len="12" vol="70" />
          <note key="64" pos="852" pan="0" len="24" vol="70" />
          <note key="63" pos="876" pan="0" len="12" vol="70" />
          <note key="65" pos="888" pan="0" len="24" vol="70" />
          <note key="67" pos="912" pan="0" len="12" vol="70" />
          <note key="68" pos="924" pan="0" len="12" vol="70" />
          <note key="69" pos="936" pan="0" len="36" vol="70" />
          <note key="62" pos="972" pan="0" len="12" vol="70" />
          <note key="64" pos="984" pan="0" len="24" vol="70" />
          <note key="67" pos="1008" pan="0" len="24" vol="70" />
          <note key="69" pos="1032" pan="0" len="12" vol="70" />
          <note key="64" pos="1044" pan="0" len="24" vol="70" />
          <note key="63" pos="1068" pan="0" len="12" vol="70" />
          <note key="65" pos="1080" pan="0" len="24" vol="70" />
          <note key="67" pos="1104" pan="0" len="12" vol="70" />
          <note key="68" pos="1116" pan="0" len="12" vol="70" />
          <note key="69" pos="1128" pan="0" len="36" vol="70" />
          <note key="62" pos="1164" pan="0" len="12" vol="70" />
          <note key="64" pos="1176" pan="0" len="24" vol="70" />
          <note key="67" pos="1200" pan="0" len="24" vol="70" />
          <note key="69" pos="1224" pan="0" len="12" vol="70" />
          <note key="64" pos="1236" pan="0" len="24" vol="70" />
          <note key="63" pos="1260" pan="0" len="12" vol="70" />
          <note key="65" pos="1272" pan="0" len="24" vol="70" />
          <note key="67" pos="1296" pan="0" len="12" vol="70" />
          <note key="68" pos="1308" pan="0" len="12" vol="70" />
          <note key="69" pos="1320" pan="0" len="36" vol="70" />
          <note key="62" pos="1356" pan="0" len="12" vol="70" />
          <note key="64" pos="1368" pan="0" len="24" vol="70" />
          <note key="67" pos="1392" pan="0" len="24" vol="70" />
          <note key="69" pos="1416" pan="0" len="12" vol="70" />
          <note key="64" pos="1428" pan="0" len="24" vol="70" />
          <note key="63" pos="1452" pan="0" len="12" vol="70" />
          <note key="65" pos="1464" pan="0" len="24" vol="70" />
          <note key="67" pos="1488" pan="0" len="12" vol="70" />
          <note key="68" pos="1500" pan="0" len="12" vol="70" />
          <note key="69" pos="1512" pan="0" len="24" vol="70" />
        </pattern>
        <pattern pos="23040" muted="0" steps="16" name="" type="1">
          <note key="62" pos="12" pan="0" len="12" vol="70" />
          <note key="64" pos="24" pan="0" len="24" vol="70" />
          <note key="67" pos="48" pan="0" len="24" vol="70" />
          <note key="69" pos="72" pan="0" len="12" vol="70" />
          <note key="64" pos="84" pan="0" len="24" vol="70" />
          <note key="63" pos="108" pan="0" len="12" vol="70" />
          <note key="65" pos="120" pan="0" len="24" vol="70" />
          <note key="67" pos="144" pan="0" len="12" vol="70" />
          <note key="68" pos="156" pan="0" len="12" vol="70" />
          <note key="69" pos="168" pan="0" len="36" vol="70" />
          <note key="62" pos="204" pan="0" len="12" vol="70" />
          <note key="64" pos="216" pan="0" len="24" vol="70" />
          <note key="67" pos="240" pan="0" len="24" vol="70" />
          <note key="69" pos="264" pan="0" len="12" vol="70" />
          <note key="64" pos="276" pan="0" len="24" vol="70" />
          <note key="63" pos="300" pan="0" len="12" vol="70" />
          <note key="65" pos="312" pan="0" len="24" vol="70" />
          <note key="67" pos="336" pan="0" len="12" vol="70" />
          <note key="68" pos="348" pan="0" len="12" vol="70" />
          <note key="69" pos="360" pan="0" len="36" vol="70" />
          <note key="62" pos="396" pan="0" len="12" vol="70" />
          <note key="64" pos="408" pan="0" len="24" vol="70" />
          <note key="67" pos="432" pan="0" len="24" vol="70" />
          <note key="69" pos="456" pan="0" len="12" vol="70" />
          <note key="64" pos="468" pan="0" len="24" vol="70" />
          <note key="63" pos="492" pan="0" len="12" vol="70" />
          <note key="65" pos="504" pan="0" len="24" vol="70" />
          <note key="67" pos="528" pan="0" len="12" vol="70" />
          <note key="68" pos="540" pan="0" len="12" vol="70" />
          <note key="69" pos="552" pan="0" len="36" vol="70" />
          <note key="62" pos="588" pan="0" len="12" vol="70" />
          <note key="64" pos="600" pan="0" len="24" vol="70" />
          <note key="67" pos="624" pan="0" len="24" vol="70" />
          <note key="69" pos="648" pan="0" len="12" vol="70" />
          <note key="64" pos="660" pan="0" len="24" vol="70" />
          <note key="63" pos="684" pan="0" len="12" vol="70" />
          <note key="65" pos="696" pan="0" len="24" vol="70" />
          <note key="67" pos="720" pan="0" len="12" vol="70" />
          <note key="68" pos="732" pan="0" len="12" vol="70" />
          <note key="69" pos="744" pan="0" len="36" vol="70" />
          <note key="62" pos="780" pan="0" len="12" vol="70" />
          <note key="64" pos="792" pan="0" len="24" vol="70" />
          <note key="67" pos="816" pan="0" len="24" vol="70" />
          <note key="69" pos="840" pan="0" len="12" vol="70" />
          <note key="64" pos="852" pan="0" len="24" vol="70" />
          <note key="63" pos="876" pan="0" len="12" vol="70" />
          <note key="65" pos="888" pan="0" len="24" vol="70" />
          <note key="67" pos="912" pan="0" len="12" vol="70" />
          <note key="68" pos="924" pan="0" len="12" vol="70" />
          <note key="69" pos="936" pan="0" len="36" vol="70" />
          <note key="62" pos="972" pan="0" len="12" vol="70" />
          <note key="64" pos="984" pan="0" len="24" vol="70" />
          <note key="67" pos="1008" pan="0" len="24" vol="70" />
          <note key="69" pos="1032" pan="0" len="12" vol="70" />
          <note key="64" pos="1044" pan="0" len="24" vol="70" />
          <note key="63" pos="1068" pan="0" len="12" vol="70" />
          <note key="65" pos="1080" pan="0" len="24" vol="70" />
          <note key="67" pos="1104" pan="0" len="12" vol="70" />
          <note key="68" pos="1116" pan="0" len="12" vol="70" />
          <note key="69" pos="1128" pan="0" len="36" vol="70" />
          <note key="62" pos="1164" pan="0" len="12" vol="70" />
          <note key="64" pos="1176" pan="0" len="24" vol="70" />
          <note key="67" pos="1200" pan="0" len="24" vol="70" />
          <note key="69" pos="1224" pan="0" len="12" vol="70" />
          <note key="64" pos="1236" pan="0" len="24" vol="70" />
          <note key="63" pos="1260" pan="0" len="12" vol="70" />
          <note key="65" pos="1272" pan="0" len="24" vol="70" />
          <note key="67" pos="1296" pan="0" len="12" vol="70" />
          <note key="68" pos="1308" pan="0" len="12" vol="70" />
          <note key="69" pos="1320" pan="0" len="36" vol="70" />
          <note key="62" pos="1356" pan="0" len="12" vol="70" />
          <note key="64" pos="1368" pan="0" len="24" vol="70" />
          <note key="67" pos="1392" pan="0" len="24" vol="70" />
          <note key="69" pos="1416" pan="0" len="12" vol="70" />
          <note key="64" pos="1428" pan="0" len="24" vol="70" />
          <note key="63" pos="1452" pan="0" len="12" vol="70" />
          <note key="65" pos="1464" pan="0" len="24" vol="70" />
          <note key="67" pos="1488" pan="0" len="12" vol="70" />
          <note key="68" pos="1500" pan="0" len="12" vol="70" />
          <note key="69" pos="1512" pan="0" len="24" vol="70" />
        </pattern>
      </track>
      <track solo="0" name="37 (Ch1)" type="0" muted="0">
        <instrumenttrack usemasterpitch="1" pitch="0.0" basenote="57" pan="0" pitchrange="12" vol="30">
          <eldata />
          <instrument name="tripleoscillator" />
        </instrumenttrack>
        <pattern pos="50688" muted="0" steps="16" name="" type="1">
          <note key="55" pos="0" pan="0" len="192" vol="16" />
          <note key="58" pos="192" pan="0" len="192" vol="100" />
          <note key="55" pos="384" pan="0" len="192" vol="16" />
          <note key="58" pos="576" pan="0" len="192" vol="100" />
          <note key="55" pos="768" pan="0" len="192" vol="16" />
          <note key="58" pos="960" pan="0" len="192" vol="100" />
          <note key="55" pos="1152" pan="0" len="192" vol="16" />
          <note key="58" pos="1344" pan="0" len="192" vol="100" />
        </pattern>
        <pattern pos="18432" muted="0" steps="16" name="" type="1">
          <note key="58" pos="0" pan="0" len="24" vol="100" />
          <note key="60" pos="24" pan="0" len="168" vol="100" />
          <note key="58" pos="192" pan="0" len="24" vol="100" />
          <note key="60" pos="216" pan="0" len="120" vol="100" />
          <note key="55" pos="336" pan="0" len="36" vol="100" />
          <note key="60" pos="372" pan="0" len="12" vol="100" />
          <note key="63" pos="384" pan="0" len="168" vol="100" />
          <note key="65" pos="552" pan="0" len="24" vol="100" />
          <note key="67" pos="576" pan="0" len="120" vol="100" />
          <note key="70" pos="696" pan="0" len="48" vol="100" />
          <note key="72" pos="744" pan="0" len="24" vol="100" />
          <note key="60" pos="768" pan="0" len="192" vol="100" />
          <note key="58" pos="960" pan="0" len="24" vol="100" />
          <note key="60" pos="984" pan="0" len="120" vol="100" />
          <note key="55" pos="1104" pan="0" len="48" vol="100" />
          <note key="63" pos="1152" pan="0" len="168" vol="100" />
          <note key="65" pos="1320" pan="0" len="24" vol="100" />
          <note key="67" pos="1344" pan="0" len="120" vol="100" />
          <note key="65" pos="1464" pan="0" len="72" vol="100" />
        </pattern>
        <pattern pos="21504" muted="0" steps="16" name="" type="1">
          <note key="63" pos="0" pan="0" len="288" vol="100" />
          <note key="65" pos="288" pan="0" len="48" vol="100" />
          <note key="66" pos="336" pan="0" len="48" vol="100" />
          <note key="59" pos="384" pan="0" len="192" vol="100" />
          <note key="56" pos="576" pan="0" len="96" vol="100" />
          <note key="58" pos="672" pan="0" len="48" vol="100" />
          <note key="61" pos="720" pan="0" len="48" vol="100" />
          <note key="63" pos="768" pan="0" len="288" vol="100" />
          <note key="65" pos="1056" pan="0" len="48" vol="100" />
          <note key="66" pos="1104" pan="0" len="48" vol="100" />
          <note key="59" pos="1152" pan="0" len="192" vol="100" />
          <note key="56" pos="1344" pan="0" len="96" vol="100" />
          <note key="58" pos="1440" pan="0" len="48" vol="100" />
          <note key="61" pos="1488" pan="0" len="48" vol="100" />
        </pattern>
        <pattern pos="23040" muted="0" steps="16" name="" type="1">
          <note key="63" pos="0" pan="0" len="192" vol="100" />
          <note key="65" pos="192" pan="0" len="96" vol="100" />
          <note key="66" pos="288" pan="0" len="48" vol="100" />
          <note key="58" pos="336" pan="0" len="48" vol="100" />
          <note key="59" pos="384" pan="0" len="192" vol="100" />
          <note key="56" pos="576" pan="0" len="96" vol="100" />
          <note key="58" pos="672" pan="0" len="48" vol="100" />
          <note key="61" pos="720" pan="0" len="48" vol="100" />
          <note key="63" pos="768" pan="0" len="192" vol="100" />
          <note key="65" pos="960" pan="0" len="96" vol="100" />
          <note key="66" pos="1056" pan="0" len="48" vol="100" />
          <note key="58" pos="1104" pan="0" len="48" vol="100" />
          <note key="59" pos="1152" pan="0" len="192" vol="100" />
          <note key="56" pos="1344" pan="0" len="96" vol="100" />
          <note key="58" pos="1440" pan="0" len="48" vol="100" />
          <note key="61" pos="1488" pan="0" len="48" vol="100" />
        </pattern>
        <pattern pos="24576" muted="0" steps="16" name="" type="1">
          <note key="65" pos="0" pan="0" len="312" vol="100" />
          <note key="68" pos="312" pan="0" len="72" vol="100" />
          <note key="61" pos="384" pan="0" len="312" vol="100" />
          <note key="63" pos="696" pan="0" len="72" vol="100" />
          <note key="65" pos="768" pan="0" len="312" vol="100" />
          <note key="68" pos="1080" pan="0" len="72" vol="100" />
          <note key="61" pos="1152" pan="0" len="312" vol="100" />
          <note key="60" pos="1464" pan="0" len="72" vol="100" />
        </pattern>
        <pattern pos="26112" muted="0" steps="16" name="" type="1">
          <note key="58" pos="0" pan="0" len="312" vol="100" />
          <note key="56" pos="312" pan="0" len="72" vol="100" />
          <note key="61" pos="384" pan="0" len="192" vol="100" />
          <note key="63" pos="576" pan="0" len="120" vol="100" />
          <note key="56" pos="696" pan="0" len="72" vol="100" />
          <note key="58" pos="768" pan="0" len="312" vol="100" />
          <note key="56" pos="1080" pan="0" len="72" vol="100" />
          <note key="61" pos="1152" pan="0" len="192" vol="100" />
          <note key="63" pos="1344" pan="0" len="120" vol="100" />
          <note key="61" pos="1464" pan="0" len="72" vol="100" />
        </pattern>
        <pattern pos="27648" muted="0" steps="16" name="" type="1">
          <note key="68" pos="0" pan="0" len="240" vol="100" />
          <note key="70" pos="240" pan="0" len="48" vol="100" />
          <note key="75" pos="288" pan="0" len="96" vol="100" />
          <note key="72" pos="384" pan="0" len="144" vol="100" />
          <note key="63" pos="528" pan="0" len="48" vol="100" />
          <note key="70" pos="576" pan="0" len="144" vol="100" />
          <note key="67" pos="720" pan="0" len="48" vol="100" />
          <note key="68" pos="768" pan="0" len="240" vol="100" />
          <note key="70" pos="1008" pan="0" len="48" vol="100" />
          <note key="75" pos="1056" pan="0" len="96" vol="100" />
          <note key="72" pos="1152" pan="0" len="192" vol="100" />
          <note key="70" pos="1344" pan="0" len="120" vol="100" />
          <note key="67" pos="1464" pan="0" len="72" vol="100" />
        </pattern>
      </track>
      <track solo="0" name="37 (Ch5)" type="0" muted="0">
        <instrumenttrack usemasterpitch="1" pitch="0.0" basenote="57" pan="0" pitchrange="12" vol="30">
          <eldata />
          <instrument name="tripleoscillator" />
        </instrumenttrack>
        <pattern pos="214284" muted="0" steps="16" name="" type="1">
          <note key="60" pos="1152" pan="0" len="192" vol="100" />
          <note key="56" pos="1344" pan="0" len="96" vol="100" />
          <note key="53" pos="1440" pan="0" len="48" vol="100" />
          <note key="55" pos="1488" pan="0" len="48" vol="100" />
        </pattern>
        <pattern pos="205068" muted="0" steps="16" name="" type="1">
          <note key="60" pos="1152" pan="0" len="192" vol="100" />
          <note key="56" pos="1344" pan="0" len="96" vol="100" />
          <note key="53" pos="1440" pan="0" len="48" vol="100" />
          <note key="55" pos="1488" pan="0" len="48" vol="100" />
        </pattern>
        <pattern pos="212748" muted="0" steps="16" name="" type="1">
          <note key="60" pos="1152" pan="0" len="192" vol="100" />
          <note key="56" pos="1344" pan="0" len="96" vol="100" />
          <note key="53" pos="1440" pan="0" len="48" vol="100" />
          <note key="55" pos="1488" pan="0" len="48" vol="100" />
        </pattern>
      </track>
      <track solo="0" name="37 (Ch8)" type="0" muted="0">
        <instrumenttrack usemasterpitch="1" pitch="0.0" basenote="57" pan="0" pitchrange="12" vol="30">
          <eldata />
          <instrument name="tripleoscillator" />
        </instrumenttrack>
        <pattern pos="217356" muted="0" steps="16" name="" type="1">
          <note key="63" pos="0" pan="0" len="288" vol="100" />
          <note key="65" pos="288" pan="0" len="96" vol="100" />
          <note key="67" pos="384" pan="0" len="384" vol="100" />
          <note key="60" pos="768" pan="0" len="288" vol="100" />
          <note key="58" pos="1056" pan="0" len="96" vol="100" />
          <note key="56" pos="1152" pan="0" len="240" vol="100" />
          <note key="58" pos="1392" pan="0" len="144" vol="100" />
        </pattern>
        <pattern pos="174348" muted="0" steps="16" name="" type="1">
          <note key="62" pos="0" pan="0" len="336" vol="100" />
          <note key="64" pos="336" pan="0" len="48" vol="100" />
          <note key="62" pos="384" pan="0" len="288" vol="100" />
          <note key="64" pos="672" pan="0" len="48" vol="100" />
          <note key="65" pos="720" pan="0" len="48" vol="100" />
          <note key="62" pos="768" pan="0" len="768" vol="100" />
        </pattern>
        <pattern pos="215820" muted="0" steps="16" name="" type="1">
          <note key="63" pos="0" pan="0" len="288" vol="100" />
          <note key="65" pos="288" pan="0" len="96" vol="100" />
          <note key="67" pos="384" pan="0" len="384" vol="100" />
          <note key="60" pos="768" pan="0" len="288" vol="100" />
          <note key="58" pos="1056" pan="0" len="96" vol="100" />
          <note key="56" pos="1152" pan="0" len="240" vol="100" />
          <note key="58" pos="1392" pan="0" len="144" vol="100" />
        </pattern>
      </track>
      <track solo="0" name="37 (Ch11)" type="0" muted="0">
        <instrumenttrack usemasterpitch="1" pitch="0.0" basenote="57" pan="0" pitchrange="12" vol="30">
          <eldata />
          <instrument name="tripleoscillator" />
        </instrumenttrack>
        <pattern pos="19968" muted="0" steps="16" name="" type="1">
          <note key="51" pos="0" pan="0" len="168" vol="100" />
          <note key="53" pos="168" pan="0" len="24" vol="100" />
          <note key="55" pos="192" pan="0" len="168" vol="100" />
          <note key="58" pos="360" pan="0" len="24" vol="100" />
          <note key="60" pos="384" pan="0" len="168" vol="100" />
          <note key="58" pos="552" pan="0" len="24" vol="100" />
          <note key="60" pos="576" pan="0" len="192" vol="100" />
          <note key="51" pos="768" pan="0" len="168" vol="100" />
          <note key="53" pos="936" pan="0" len="24" vol="100" />
          <note key="55" pos="960" pan="0" len="168" vol="100" />
          <note key="58" pos="1128" pan="0" len="24" vol="100" />
          <note key="60" pos="1152" pan="0" len="168" vol="100" />
          <note key="58" pos="1320" pan="0" len="24" vol="100" />
          <note key="60" pos="1344" pan="0" len="156" vol="100" />
        </pattern>
      </track>
      <track solo="0" name="37 (Ch16)" type="0" muted="0">
        <instrumenttrack usemasterpitch="1" pitch="0.0" basenote="57" pan="0" pitchrange="12" vol="30">
          <eldata />
          <instrument name="tripleoscillator" />
        </instrumenttrack>
        <pattern pos="110592" muted="0" steps="16" name="" type="1">
          <note key="62" pos="0" pan="0" len="3072" vol="31" />
        </pattern>
        <pattern pos="92160" muted="0" steps="16" name="" type="1">
          <note key="62" pos="0" pan="0" len="3072" vol="31" />
        </pattern>
      </track>
      <track solo="0" name="38 (Ch8)" type="0" muted="0">
        <instrumenttrack usemasterpitch="1" pitch="0.0" basenote="57" pan="0" pitchrange="12" vol="30">
          <eldata />
          <instrument name="tripleoscillator" />
        </instrumenttrack>
        <pattern pos="19968" muted="0" steps="16" name="" type="1">
          <note key="60" pos="0" pan="0" len="24" vol="100" />
          <note key="60" pos="48" pan="0" len="24" vol="100" />
          <note key="60" pos="96" pan="0" len="24" vol="100" />
          <note key="60" pos="144" pan="0" len="24" vol="100" />
          <note key="60" pos="192" pan="0" len="24" vol="100" />
          <note key="60" pos="240" pan="0" len="24" vol="100" />
          <note key="60" pos="288" pan="0" len="24" vol="100" />
          <note key="60" pos="336" pan="0" len="24" vol="100" />
          <note key="60" pos="384" pan="0" len="24" vol="100" />
          <note key="60" pos="432" pan="0" len="24" vol="100" />
          <note key="60" pos="480" pan="0" len="24" vol="100" />
          <note key="60" pos="528" pan="0" len="24" vol="100" />
          <note key="60" pos="576" pan="0" len="24" vol="100" />
          <note key="60" pos="624" pan="0" len="24" vol="100" />
          <note key="60" pos="672" pan="0" len="24" vol="100" />
          <note key="60" pos="720" pan="0" len="24" vol="100" />
          <note key="60" pos="768" pan="0" len="24" vol="100" />
          <note key="60" pos="816" pan="0" len="24" vol="100" />
          <note key="60" pos="864" pan="0" len="24" vol="100" />
          <note key="60" pos="912" pan="0" len="24" vol="100" />
          <note key="60" pos="960" pan="0" len="24" vol="100" />
          <note key="60" pos="1008" pan="0" len="24" vol="100" />
          <note key="60" pos="1056" pan="0" len="24" vol="100" />
          <note key="60" pos="1104" pan="0" len="24" vol="100" />
          <note key="60" pos="1152" pan="0" len="24" vol="100" />
          <note key="60" pos="1200" pan="0" len="24" vol="100" />
          <note key="60" pos="1248" pan="0" len="24" vol="100" />
          <note key="60" pos="1296" pan="0" len="24" vol="100" />
          <note key="60" pos="1344" pan="0" len="24" vol="100" />
          <note key="60" pos="1392" pan="0" len="24" vol="100" />
          <note key="60" pos="1440" pan="0" len="48" vol="100" />
          <note key="60" pos="1488" pan="0" len="24" vol="100" />
          <note key="60" pos="1512" pan="0" len="24" vol="100" />
        </pattern>
        <pattern pos="18432" muted="0" steps="16" name="" type="1">
          <note key="60" pos="0" pan="0" len="24" vol="100" />
          <note key="60" pos="48" pan="0" len="24" vol="100" />
          <note key="60" pos="96" pan="0" len="24" vol="100" />
          <note key="60" pos="144" pan="0" len="24" vol="100" />
          <note key="60" pos="192" pan="0" len="24" vol="100" />
          <note key="60" pos="240" pan="0" len="24" vol="100" />
          <note key="60" pos="288" pan="0" len="24" vol="100" />
          <note key="60" pos="336" pan="0" len="24" vol="100" />
          <note key="60" pos="384" pan="0" len="24" vol="100" />
          <note key="60" pos="432" pan="0" len="24" vol="100" />
          <note key="60" pos="480" pan="0" len="24" vol="100" />
          <note key="60" pos="528" pan="0" len="24" vol="100" />
          <note key="60" pos="576" pan="0" len="24" vol="100" />
          <note key="60" pos="624" pan="0" len="24" vol="100" />
          <note key="60" pos="672" pan="0" len="24" vol="100" />
          <note key="60" pos="720" pan="0" len="24" vol="100" />
          <note key="60" pos="768" pan="0" len="24" vol="100" />
          <note key="60" pos="816" pan="0" len="24" vol="100" />
          <note key="60" pos="864" pan="0" len="24" vol="100" />
          <note key="60" pos="912" pan="0" len="24" vol="100" />
          <note key="60" pos="960" pan="0" len="24" vol="100" />
          <note key="60" pos="1008" pan="0" len="24" vol="100" />
          <note key="60" pos="1056" pan="0" len="24" vol="100" />
          <note key="60" pos="1104" pan="0" len="24" vol="100" />
          <note key="60" pos="1152" pan="0" len="24" vol="100" />
          <note key="60" pos="1200" pan="0" len="24" vol="100" />
          <note key="60" pos="1248" pan="0" len="24" vol="100" />
          <note key="60" pos="1296" pan="0" len="24" vol="100" />
          <note key="60" pos="1344" pan="0" len="24" vol="100" />
          <note key="60" pos="1392" pan="0" len="24" vol="100" />
          <note key="60" pos="1440" pan="0" len="24" vol="100" />
          <note key="60" pos="1488" pan="0" len="24" vol="100" />
        </pattern>
      </track>
      <track solo="0" name="38 (Ch13)" type="0" muted="0">
        <instrumenttrack usemasterpitch="1" pitch="0.0" basenote="57" pan="0" pitchrange="12" vol="30">
          <eldata />
          <instrument name="tripleoscillator" />
        </instrumenttrack>
        <pattern pos="12288" muted="0" steps="16" name="" type="1">
          <note key="60" pos="0" pan="0" len="96" vol="100" />
          <note key="60" pos="192" pan="0" len="96" vol="100" />
          <note key="60" pos="384" pan="0" len="96" vol="100" />
          <note key="60" pos="576" pan="0" len="96" vol="100" />
          <note key="60" pos="768" pan="0" len="96" vol="100" />
          <note key="60" pos="960" pan="0" len="96" vol="100" />
          <note key="60" pos="1152" pan="0" len="96" vol="100" />
          <note key="60" pos="1344" pan="0" len="96" vol="100" />
          <note key="60" pos="1536" pan="0" len="96" vol="100" />
          <note key="60" pos="1728" pan="0" len="96" vol="100" />
          <note key="60" pos="1920" pan="0" len="96" vol="100" />
          <note key="60" pos="2112" pan="0" len="96" vol="100" />
          <note key="60" pos="2304" pan="0" len="96" vol="100" />
          <note key="60" pos="2496" pan="0" len="96" vol="100" />
          <note key="60" pos="2688" pan="0" len="96" vol="100" />
          <note key="60" pos="2880" pan="0" len="192" vol="100" />
        </pattern>
        <pattern pos="7680" muted="0" steps="16" name="" type="1">
          <note key="60" pos="0" pan="0" len="96" vol="100" />
          <note key="60" pos="192" pan="0" len="96" vol="100" />
          <note key="60" pos="384" pan="0" len="96" vol="100" />
          <note key="60" pos="576" pan="0" len="96" vol="100" />
          <note key="60" pos="768" pan="0" len="96" vol="100" />
          <note key="60" pos="960" pan="0" len="96" vol="100" />
          <note key="60" pos="1152" pan="0" len="96" vol="100" />
          <note key="60" pos="1344" pan="0" len="96" vol="100" />
          <note key="60" pos="1536" pan="0" len="96" vol="100" />
          <note key="60" pos="1728" pan="0" len="96" vol="100" />
          <note key="60" pos="1920" pan="0" len="96" vol="100" />
          <note key="60" pos="2112" pan="0" len="96" vol="100" />
          <note key="60" pos="2304" pan="0" len="96" vol="100" />
          <note key="60" pos="2496" pan="0" len="96" vol="100" />
          <note key="60" pos="2688" pan="0" len="96" vol="100" />
          <note key="60" pos="2880" pan="0" len="96" vol="100" />
        </pattern>
      </track>
      <track solo="0" name="39 (Ch1)" type="0" muted="0">
        <instrumenttrack usemasterpitch="1" pitch="0.0" basenote="57" pan="0" pitchrange="12" vol="30">
          <eldata />
          <instrument name="tripleoscillator" />
        </instrumenttrack>
        <pattern pos="169740" muted="0" steps="16" name="" type="1">
          <note key="69" pos="576" pan="0" len="24" vol="100" />
          <note key="65" pos="600" pan="0" len="48" vol="100" />
          <note key="72" pos="648" pan="0" len="48" vol="100" />
          <note key="71" pos="696" pan="0" len="48" vol="100" />
          <note key="72" pos="744" pan="0" len="24" vol="100" />
          <note key="71" pos="768" pan="0" len="36" vol="100" />
          <note key="72" pos="804" pan="0" len="12" vol="100" />
          <note key="71" pos="816" pan="0" len="24" vol="100" />
          <note key="67" pos="840" pan="0" len="120" vol="100" />
          <note key="68" pos="960" pan="0" len="24" vol="100" />
          <note key="63" pos="984" pan="0" len="48" vol="100" />
          <note key="72" pos="1032" pan="0" len="48" vol="100" />
          <note key="75" pos="1080" pan="0" len="48" vol="100" />
          <note key="72" pos="1128" pan="0" len="24" vol="100" />
          <note key="74" pos="1152" pan="0" len="36" vol="100" />
          <note key="75" pos="1188" pan="0" len="12" vol="100" />
          <note key="74" pos="1200" pan="0" len="24" vol="100" />
          <note key="70" pos="1224" pan="0" len="696" vol="100" />
        </pattern>
        <pattern pos="163596" muted="0" steps="16" name="" type="1">
          <note key="65" pos="768" pan="0" len="144" vol="100" />
          <note key="67" pos="912" pan="0" len="48" vol="100" />
          <note key="63" pos="960" pan="0" len="48" vol="100" />
          <note key="62" pos="1008" pan="0" len="48" vol="100" />
          <note key="60" pos="1056" pan="0" len="48" vol="100" />
          <note key="58" pos="1104" pan="0" len="48" vol="100" />
          <note key="62" pos="1152" pan="0" len="144" vol="100" />
          <note key="63" pos="1296" pan="0" len="24" vol="100" />
          <note key="62" pos="1320" pan="0" len="24" vol="100" />
          <note key="60" pos="1344" pan="0" len="192" vol="100" />
        </pattern>
      </track>
      <track solo="0" name="39 (Ch3)" type="0" muted="0">
        <instrumenttrack usemasterpitch="1" pitch="0.0" basenote="57" pan="0" pitchrange="12" vol="30">
          <eldata />
          <instrument name="tripleoscillator" />
        </instrumenttrack>
        <pattern pos="279900" muted="0" steps="16" name="" type="1">
          <note key="51" pos="0" pan="0" len="12" vol="100" />
          <note key="46" pos="24" pan="0" len="12" vol="100" />
          <note key="51" pos="36" pan="0" len="12" vol="100" />
          <note key="54" pos="48" pan="0" len="12" vol="100" />
          <note key="58" pos="60" pan="0" len="12" vol="100" />
          <note key="60" pos="72" pan="0" len="36" vol="100" />
          <note key="56" pos="108" pan="0" len="12" vol="100" />
          <note key="51" pos="132" pan="0" len="12" vol="100" />
          <note key="63" pos="144" pan="0" len="24" vol="100" />
        </pattern>
        <pattern pos="130572" muted="0" steps="16" name="" type="1">
          <note key="67" pos="1524" pan="0" len="12" vol="17" />
        </pattern>
        <pattern pos="132108" muted="0" steps="16" name="" type="1">
          <note key="69" pos="0" pan="0" len="24" vol="100" />
          <note key="70" pos="24" pan="0" len="24" vol="100" />
          <note key="74" pos="48" pan="0" len="24" vol="100" />
          <note key="70" pos="72" pan="0" len="24" vol="100" />
          <note key="69" pos="96" pan="0" len="48" vol="100" />
          <note key="69" pos="144" pan="0" len="36" vol="100" />
          <note key="60" pos="180" pan="0" len="12" vol="17" />
          <note key="65" pos="192" pan="0" len="192" vol="100" />
          <note key="60" pos="384" pan="0" len="24" vol="100" />
          <note key="62" pos="408" pan="0" len="24" vol="100" />
          <note key="65" pos="432" pan="0" len="24" vol="100" />
          <note key="62" pos="456" pan="0" len="24" vol="100" />
          <note key="60" pos="480" pan="0" len="48" vol="100" />
          <note key="60" pos="528" pan="0" len="48" vol="100" />
          <note key="58" pos="576" pan="0" len="84" vol="100" />
          <note key="53" pos="660" pan="0" len="12" vol="50" />
          <note key="55" pos="672" pan="0" len="84" vol="100" />
          <note key="67" pos="756" pan="0" len="12" vol="50" />
          <note key="69" pos="768" pan="0" len="24" vol="100" />
          <note key="70" pos="792" pan="0" len="24" vol="100" />
          <note key="74" pos="816" pan="0" len="24" vol="100" />
          <note key="70" pos="840" pan="0" len="24" vol="100" />
          <note key="69" pos="864" pan="0" len="48" vol="100" />
          <note key="69" pos="912" pan="0" len="36" vol="100" />
          <note key="72" pos="948" pan="0" len="12" vol="17" />
          <note key="74" pos="960" pan="0" len="180" vol="100" />
          <note key="60" pos="1140" pan="0" len="12" vol="17" />
          <note key="62" pos="1152" pan="0" len="24" vol="100" />
          <note key="65" pos="1176" pan="0" len="48" vol="100" />
          <note key="70" pos="1224" pan="0" len="48" vol="100" />
          <note key="69" pos="1272" pan="0" len="72" vol="100" />
          <note key="63" pos="1344" pan="0" len="192" vol="100" />
        </pattern>
        <pattern pos="133644" muted="0" steps="16" name="" type="1">
          <note key="69" pos="0" pan="0" len="24" vol="100" />
          <note key="70" pos="24" pan="0" len="24" vol="100" />
          <note key="74" pos="48" pan="0" len="24" vol="100" />
          <note key="70" pos="72" pan="0" len="24" vol="100" />
          <note key="69" pos="96" pan="0" len="48" vol="100" />
          <note key="69" pos="144" pan="0" len="36" vol="100" />
          <note key="60" pos="180" pan="0" len="12" vol="17" />
          <note key="65" pos="192" pan="0" len="192" vol="100" />
          <note key="60" pos="384" pan="0" len="24" vol="100" />
          <note key="62" pos="408" pan="0" len="24" vol="100" />
          <note key="65" pos="432" pan="0" len="24" vol="100" />
          <note key="62" pos="456" pan="0" len="24" vol="100" />
          <note key="60" pos="480" pan="0" len="48" vol="100" />
          <note key="60" pos="528" pan="0" len="48" vol="100" />
          <note key="58" pos="576" pan="0" len="84" vol="100" />
          <note key="53" pos="660" pan="0" len="12" vol="50" />
          <note key="55" pos="672" pan="0" len="84" vol="100" />
          <note key="67" pos="756" pan="0" len="12" vol="50" />
          <note key="69" pos="768" pan="0" len="24" vol="100" />
          <note key="70" pos="792" pan="0" len="24" vol="100" />
          <note key="74" pos="816" pan="0" len="24" vol="100" />
          <note key="70" pos="840" pan="0" len="24" vol="100" />
          <note key="69" pos="864" pan="0" len="48" vol="100" />
          <note key="69" pos="912" pan="0" len="36" vol="100" />
          <note key="72" pos="948" pan="0" len="12" vol="17" />
          <note key="74" pos="960" pan="0" len="180" vol="100" />
          <note key="60" pos="1140" pan="0" len="12" vol="17" />
          <note key="62" pos="1152" pan="0" len="24" vol="100" />
          <note key="65" pos="1176" pan="0" len="48" vol="100" />
          <note key="70" pos="1224" pan="0" len="48" vol="100" />
          <note key="69" pos="1272" pan="0" len="72" vol="100" />
          <note key="63" pos="1344" pan="0" len="192" vol="100" />
        </pattern>
        <pattern pos="135180" muted="0" steps="16" name="" type="1">
          <note key="51" pos="0" pan="0" len="144" vol="100" />
          <note key="53" pos="144" pan="0" len="48" vol="100" />
          <note key="55" pos="192" pan="0" len="96" vol="100" />
          <note key="58" pos="288" pan="0" len="24" vol="100" />
          <note key="57" pos="312" pan="0" len="72" vol="100" />
          <note key="55" pos="384" pan="0" len="144" vol="100" />
          <note key="57" pos="528" pan="0" len="24" vol="100" />
          <note key="58" pos="552" pan="0" len="24" vol="100" />
          <note key="53" pos="576" pan="0" len="192" vol="100" />
          <note key="55" pos="768" pan="0" len="144" vol="100" />
          <note key="55" pos="912" pan="0" len="24" vol="100" />
          <note key="57" pos="936" pan="0" len="24" vol="100" />
          <note key="58" pos="960" pan="0" len="96" vol="100" />
          <note key="60" pos="1056" pan="0" len="48" vol="100" />
          <note key="58" pos="1104" pan="0" len="48" vol="100" />
          <note key="55" pos="1152" pan="0" len="144" vol="100" />
          <note key="55" pos="1296" pan="0" len="24" vol="100" />
          <note key="57" pos="1320" pan="0" len="24" vol="100" />
          <note key="58" pos="1344" pan="0" len="24" vol="100" />
          <note key="60" pos="1368" pan="0" len="72" vol="100" />
          <note key="55" pos="1440" pan="0" len="72" vol="100" />
          <note key="65" pos="1512" pan="0" len="24" vol="100" />
        </pattern>
        <pattern pos="136716" muted="0" steps="16" name="" type="1">
          <note key="67" pos="0" pan="0" len="144" vol="100" />
          <note key="67" pos="144" pan="0" len="24" vol="100" />
          <note key="69" pos="168" pan="0" len="24" vol="100" />
          <note key="70" pos="192" pan="0" len="72" vol="100" />
          <note key="60" pos="264" pan="0" len="12" vol="34" />
          <note key="58" pos="276" pan="0" len="12" vol="69" />
          <note key="69" pos="288" pan="0" len="96" vol="100" />
          <note key="67" pos="384" pan="0" len="168" vol="100" />
          <note key="70" pos="552" pan="0" len="12" vol="100" />
          <note key="69" pos="564" pan="0" len="12" vol="100" />
          <note key="65" pos="576" pan="0" len="144" vol="100" />
        </pattern>
        <pattern pos="138252" muted="0" steps="16" name="" type="1">
          <note key="69" pos="0" pan="0" len="24" vol="100" />
          <note key="70" pos="24" pan="0" len="24" vol="100" />
          <note key="74" pos="48" pan="0" len="24" vol="100" />
          <note key="69" pos="168" pan="0" len="24" vol="100" />
          <note key="65" pos="408" pan="0" len="24" vol="100" />
          <note key="69" pos="432" pan="0" len="24" vol="100" />
          <note key="72" pos="456" pan="0" len="24" vol="100" />
          <note key="69" pos="480" pan="0" len="48" vol="100" />
          <note key="69" pos="528" pan="0" len="48" vol="100" />
          <note key="67" pos="672" pan="0" len="120" vol="100" />
          <note key="57" pos="792" pan="0" len="24" vol="100" />
          <note key="58" pos="816" pan="0" len="24" vol="100" />
          <note key="62" pos="840" pan="0" len="24" vol="100" />
          <note key="65" pos="864" pan="0" len="48" vol="100" />
          <note key="65" pos="912" pan="0" len="48" vol="100" />
          <note key="60" pos="1056" pan="0" len="120" vol="100" />
          <note key="60" pos="1176" pan="0" len="48" vol="100" />
          <note key="65" pos="1224" pan="0" len="24" vol="100" />
          <note key="60" pos="1248" pan="0" len="48" vol="100" />
          <note key="65" pos="1296" pan="0" len="48" vol="100" />
        </pattern>
        <pattern pos="141324" muted="0" steps="16" name="" type="1">
          <note key="51" pos="0" pan="0" len="144" vol="100" />
          <note key="53" pos="144" pan="0" len="48" vol="100" />
          <note key="55" pos="192" pan="0" len="96" vol="100" />
          <note key="58" pos="288" pan="0" len="24" vol="100" />
          <note key="57" pos="312" pan="0" len="72" vol="100" />
          <note key="55" pos="384" pan="0" len="144" vol="100" />
          <note key="57" pos="528" pan="0" len="24" vol="100" />
          <note key="58" pos="552" pan="0" len="24" vol="100" />
          <note key="53" pos="576" pan="0" len="192" vol="100" />
          <note key="55" pos="768" pan="0" len="144" vol="100" />
          <note key="55" pos="912" pan="0" len="24" vol="100" />
          <note key="57" pos="936" pan="0" len="24" vol="100" />
          <note key="58" pos="960" pan="0" len="96" vol="100" />
          <note key="60" pos="1056" pan="0" len="48" vol="100" />
          <note key="58" pos="1104" pan="0" len="48" vol="100" />
          <note key="55" pos="1152" pan="0" len="144" vol="100" />
          <note key="55" pos="1296" pan="0" len="24" vol="100" />
          <note key="57" pos="1320" pan="0" len="24" vol="100" />
          <note key="58" pos="1344" pan="0" len="24" vol="100" />
          <note key="60" pos="1368" pan="0" len="72" vol="100" />
          <note key="55" pos="1440" pan="0" len="72" vol="100" />
          <note key="65" pos="1512" pan="0" len="24" vol="100" />
        </pattern>
        <pattern pos="142860" muted="0" steps="16" name="" type="1">
          <note key="67" pos="0" pan="0" len="144" vol="100" />
          <note key="67" pos="144" pan="0" len="24" vol="100" />
          <note key="69" pos="168" pan="0" len="24" vol="100" />
          <note key="70" pos="192" pan="0" len="72" vol="100" />
          <note key="60" pos="264" pan="0" len="12" vol="34" />
          <note key="58" pos="276" pan="0" len="12" vol="69" />
          <note key="69" pos="288" pan="0" len="96" vol="100" />
          <note key="67" pos="384" pan="0" len="168" vol="100" />
          <note key="70" pos="552" pan="0" len="12" vol="100" />
          <note key="69" pos="564" pan="0" len="12" vol="100" />
          <note key="65" pos="576" pan="0" len="144" vol="100" />
        </pattern>
      </track>
      <track solo="0" name="39 (Ch4)" type="0" muted="0">
        <instrumenttrack usemasterpitch="1" pitch="0.0" basenote="57" pan="0" pitchrange="12" vol="30">
          <eldata />
          <instrument name="tripleoscillator" />
        </instrumenttrack>
        <pattern pos="246540" muted="0" steps="16" name="" type="1">
          <note key="51" pos="0" pan="0" len="96" vol="80" />
          <note key="50" pos="96" pan="0" len="96" vol="80" />
          <note key="49" pos="192" pan="0" len="96" vol="80" />
          <note key="48" pos="288" pan="0" len="96" vol="80" />
          <note key="51" pos="384" pan="0" len="96" vol="80" />
          <note key="50" pos="480" pan="0" len="96" vol="80" />
          <note key="49" pos="576" pan="0" len="96" vol="80" />
          <note key="48" pos="672" pan="0" len="96" vol="80" />
          <note key="51" pos="768" pan="0" len="96" vol="80" />
          <note key="50" pos="864" pan="0" len="96" vol="80" />
          <note key="49" pos="960" pan="0" len="96" vol="80" />
          <note key="48" pos="1056" pan="0" len="96" vol="80" />
          <note key="51" pos="1152" pan="0" len="96" vol="80" />
          <note key="50" pos="1248" pan="0" len="96" vol="80" />
          <note key="49" pos="1344" pan="0" len="96" vol="80" />
          <note key="48" pos="1440" pan="0" len="96" vol="80" />
        </pattern>
        <pattern pos="21504" muted="0" steps="16" name="" type="1">
          <note key="65" pos="0" pan="0" len="24" vol="100" />
          <note key="66" pos="24" pan="0" len="24" vol="100" />
          <note key="75" pos="48" pan="0" len="696" vol="100" />
          <note key="66" pos="744" pan="0" len="24" vol="100" />
          <note key="65" pos="768" pan="0" len="24" vol="100" />
          <note key="66" pos="792" pan="0" len="24" vol="100" />
          <note key="75" pos="816" pan="0" len="60" vol="100" />
          <note key="66" pos="1128" pan="0" len="24" vol="100" />
          <note key="65" pos="1152" pan="0" len="24" vol="100" />
          <note key="66" pos="1176" pan="0" len="24" vol="100" />
          <note key="70" pos="1200" pan="0" len="60" vol="100" />
          <note key="66" pos="1512" pan="0" len="24" vol="100" />
        </pattern>
        <pattern pos="23040" muted="0" steps="16" name="" type="1">
          <note key="65" pos="0" pan="0" len="24" vol="100" />
          <note key="66" pos="24" pan="0" len="24" vol="100" />
          <note key="75" pos="48" pan="0" len="60" vol="100" />
          <note key="66" pos="168" pan="0" len="24" vol="100" />
          <note key="65" pos="192" pan="0" len="24" vol="100" />
          <note key="66" pos="216" pan="0" len="24" vol="100" />
          <note key="77" pos="240" pan="0" len="24" vol="100" />
          <note key="75" pos="264" pan="0" len="48" vol="100" />
          <note key="66" pos="360" pan="0" len="24" vol="100" />
          <note key="65" pos="384" pan="0" len="24" vol="100" />
          <note key="66" pos="408" pan="0" len="24" vol="100" />
          <note key="70" pos="432" pan="0" len="60" vol="100" />
          <note key="66" pos="552" pan="0" len="24" vol="100" />
          <note key="65" pos="576" pan="0" len="24" vol="100" />
          <note key="66" pos="600" pan="0" len="24" vol="100" />
          <note key="70" pos="624" pan="0" len="24" vol="100" />
          <note key="68" pos="648" pan="0" len="72" vol="100" />
          <note key="66" pos="744" pan="0" len="24" vol="100" />
          <note key="65" pos="768" pan="0" len="24" vol="100" />
          <note key="66" pos="792" pan="0" len="24" vol="100" />
          <note key="75" pos="816" pan="0" len="60" vol="100" />
          <note key="66" pos="936" pan="0" len="24" vol="100" />
          <note key="65" pos="960" pan="0" len="24" vol="100" />
          <note key="66" pos="984" pan="0" len="24" vol="100" />
          <note key="77" pos="1008" pan="0" len="24" vol="100" />
          <note key="75" pos="1032" pan="0" len="48" vol="100" />
          <note key="66" pos="1128" pan="0" len="24" vol="100" />
          <note key="65" pos="1152" pan="0" len="24" vol="100" />
          <note key="66" pos="1176" pan="0" len="24" vol="100" />
          <note key="70" pos="1200" pan="0" len="60" vol="100" />
          <note key="66" pos="1320" pan="0" len="24" vol="100" />
          <note key="65" pos="1344" pan="0" len="24" vol="100" />
          <note key="66" pos="1368" pan="0" len="24" vol="100" />
          <note key="70" pos="1392" pan="0" len="24" vol="100" />
          <note key="68" pos="1416" pan="0" len="72" vol="100" />
          <note key="68" pos="1512" pan="0" len="24" vol="100" />
        </pattern>
        <pattern pos="24576" muted="0" steps="16" name="" type="1">
          <note key="67" pos="0" pan="0" len="24" vol="100" />
          <note key="68" pos="24" pan="0" len="24" vol="100" />
          <note key="75" pos="48" pan="0" len="120" vol="100" />
          <note key="68" pos="168" pan="0" len="24" vol="100" />
          <note key="65" pos="192" pan="0" len="24" vol="100" />
          <note key="68" pos="216" pan="0" len="24" vol="100" />
          <note key="77" pos="240" pan="0" len="24" vol="100" />
          <note key="72" pos="264" pan="0" len="96" vol="100" />
          <note key="68" pos="360" pan="0" len="24" vol="100" />
          <note key="67" pos="384" pan="0" len="24" vol="100" />
          <note key="68" pos="408" pan="0" len="24" vol="100" />
          <note key="72" pos="432" pan="0" len="120" vol="100" />
          <note key="68" pos="552" pan="0" len="24" vol="100" />
          <note key="67" pos="576" pan="0" len="24" vol="100" />
          <note key="68" pos="600" pan="0" len="24" vol="100" />
          <note key="72" pos="624" pan="0" len="24" vol="100" />
          <note key="70" pos="648" pan="0" len="96" vol="100" />
          <note key="68" pos="744" pan="0" len="24" vol="100" />
          <note key="67" pos="768" pan="0" len="24" vol="100" />
          <note key="68" pos="792" pan="0" len="24" vol="100" />
          <note key="75" pos="816" pan="0" len="120" vol="100" />
          <note key="68" pos="936" pan="0" len="24" vol="100" />
          <note key="65" pos="960" pan="0" len="24" vol="100" />
          <note key="68" pos="984" pan="0" len="24" vol="100" />
          <note key="77" pos="1008" pan="0" len="24" vol="100" />
          <note key="72" pos="1032" pan="0" len="96" vol="100" />
          <note key="68" pos="1128" pan="0" len="24" vol="100" />
          <note key="67" pos="1152" pan="0" len="24" vol="100" />
          <note key="68" pos="1176" pan="0" len="24" vol="100" />
          <note key="72" pos="1200" pan="0" len="120" vol="100" />
          <note key="68" pos="1320" pan="0" len="24" vol="100" />
          <note key="67" pos="1344" pan="0" len="24" vol="100" />
          <note key="68" pos="1368" pan="0" len="24" vol="100" />
          <note key="72" pos="1392" pan="0" len="24" vol="100" />
          <note key="70" pos="1416" pan="0" len="120" vol="100" />
        </pattern>
        <pattern pos="241932" muted="0" steps="16" name="" type="1">
          <note key="51" pos="0" pan="0" len="96" vol="80" />
          <note key="50" pos="96" pan="0" len="96" vol="80" />
          <note key="49" pos="192" pan="0" len="96" vol="80" />
          <note key="48" pos="288" pan="0" len="96" vol="80" />
          <note key="51" pos="384" pan="0" len="96" vol="80" />
          <note key="50" pos="480" pan="0" len="96" vol="80" />
          <note key="49" pos="576" pan="0" len="96" vol="80" />
          <note key="48" pos="672" pan="0" len="96" vol="80" />
          <note key="51" pos="768" pan="0" len="96" vol="80" />
          <note key="50" pos="864" pan="0" len="96" vol="80" />
          <note key="49" pos="960" pan="0" len="96" vol="80" />
          <note key="48" pos="1056" pan="0" len="96" vol="80" />
          <note key="51" pos="1152" pan="0" len="96" vol="80" />
          <note key="50" pos="1248" pan="0" len="96" vol="80" />
          <note key="49" pos="1344" pan="0" len="96" vol="80" />
          <note key="48" pos="1440" pan="0" len="96" vol="80" />
        </pattern>
      </track>
      <track solo="0" name="39 (Ch5)" type="0" muted="0">
        <instrumenttrack usemasterpitch="1" pitch="0.0" basenote="57" pan="0" pitchrange="12" vol="30">
          <eldata />
          <instrument name="tripleoscillator" />
        </instrumenttrack>
        <pattern pos="246540" muted="0" steps="16" name="" type="1">
          <note key="53" pos="0" pan="0" len="96" vol="80" />
          <note key="53" pos="96" pan="0" len="96" vol="80" />
          <note key="51" pos="192" pan="0" len="96" vol="80" />
          <note key="51" pos="288" pan="0" len="96" vol="80" />
          <note key="53" pos="384" pan="0" len="96" vol="80" />
          <note key="53" pos="480" pan="0" len="96" vol="80" />
          <note key="51" pos="576" pan="0" len="96" vol="80" />
          <note key="51" pos="672" pan="0" len="96" vol="80" />
          <note key="53" pos="768" pan="0" len="96" vol="80" />
          <note key="53" pos="864" pan="0" len="96" vol="80" />
          <note key="51" pos="960" pan="0" len="96" vol="80" />
          <note key="51" pos="1056" pan="0" len="96" vol="80" />
          <note key="53" pos="1152" pan="0" len="96" vol="80" />
          <note key="53" pos="1248" pan="0" len="96" vol="80" />
          <note key="51" pos="1344" pan="0" len="96" vol="80" />
          <note key="51" pos="1440" pan="0" len="96" vol="80" />
        </pattern>
        <pattern pos="3072" muted="0" steps="16" name="" type="1">
          <note key="63" pos="0" pan="0" len="48" vol="100" />
          <note key="67" pos="48" pan="0" len="144" vol="100" />
          <note key="72" pos="192" pan="0" len="192" vol="100" />
          <note key="70" pos="384" pan="0" len="48" vol="100" />
          <note key="62" pos="432" pan="0" len="48" vol="100" />
          <note key="63" pos="480" pan="0" len="144" vol="100" />
          <note key="74" pos="624" pan="0" len="48" vol="100" />
          <note key="77" pos="672" pan="0" len="96" vol="100" />
          <note key="75" pos="768" pan="0" len="48" vol="100" />
          <note key="79" pos="816" pan="0" len="144" vol="100" />
          <note key="60" pos="960" pan="0" len="168" vol="100" />
          <note key="70" pos="1128" pan="0" len="12" vol="17" />
          <note key="72" pos="1140" pan="0" len="12" vol="52" />
          <note key="70" pos="1152" pan="0" len="48" vol="100" />
          <note key="62" pos="1200" pan="0" len="48" vol="100" />
          <note key="63" pos="1248" pan="0" len="96" vol="100" />
          <note key="74" pos="1344" pan="0" len="48" vol="100" />
          <note key="65" pos="1392" pan="0" len="48" vol="100" />
          <note key="67" pos="1440" pan="0" len="48" vol="100" />
          <note key="70" pos="1488" pan="0" len="48" vol="100" />
        </pattern>
        <pattern pos="4608" muted="0" steps="16" name="" type="1">
          <note key="62" pos="624" pan="0" len="48" vol="100" />
          <note key="65" pos="672" pan="0" len="96" vol="100" />
        </pattern>
        <pattern pos="7680" muted="0" steps="16" name="" type="1">
          <note key="63" pos="288" pan="0" len="96" vol="100" />
          <note key="62" pos="384" pan="0" len="144" vol="100" />
          <note key="55" pos="528" pan="0" len="144" vol="100" />
          <note key="53" pos="672" pan="0" len="48" vol="100" />
          <note key="58" pos="720" pan="0" len="48" vol="100" />
          <note key="55" pos="768" pan="0" len="12" vol="100" />
          <note key="62" pos="780" pan="0" len="12" vol="100" />
          <note key="63" pos="792" pan="0" len="120" vol="100" />
          <note key="67" pos="912" pan="0" len="48" vol="100" />
          <note key="72" pos="960" pan="0" len="144" vol="100" />
          <note key="75" pos="1104" pan="0" len="24" vol="34" />
          <note key="75" pos="1128" pan="0" len="24" vol="69" />
          <note key="75" pos="1152" pan="0" len="72" vol="100" />
          <note key="74" pos="1224" pan="0" len="72" vol="100" />
          <note key="67" pos="1296" pan="0" len="240" vol="100" />
          <note key="53" pos="2208" pan="0" len="48" vol="100" />
          <note key="58" pos="2256" pan="0" len="48" vol="100" />
          <note key="55" pos="2304" pan="0" len="144" vol="100" />
        </pattern>
        <pattern pos="12288" muted="0" steps="16" name="" type="1">
          <note key="63" pos="0" pan="0" len="144" vol="100" />
          <note key="62" pos="144" pan="0" len="24" vol="100" />
          <note key="63" pos="168" pan="0" len="24" vol="100" />
          <note key="65" pos="192" pan="0" len="96" vol="100" />
          <note key="58" pos="288" pan="0" len="96" vol="100" />
          <note key="67" pos="384" pan="0" len="144" vol="100" />
          <note key="70" pos="528" pan="0" len="48" vol="100" />
          <note key="65" pos="576" pan="0" len="144" vol="100" />
          <note key="63" pos="720" pan="0" len="24" vol="100" />
          <note key="62" pos="744" pan="0" len="24" vol="100" />
          <note key="60" pos="768" pan="0" len="144" vol="100" />
          <note key="62" pos="912" pan="0" len="48" vol="100" />
          <note key="58" pos="960" pan="0" len="120" vol="100" />
          <note key="55" pos="1080" pan="0" len="72" vol="100" />
          <note key="60" pos="1152" pan="0" len="96" vol="100" />
          <note key="62" pos="1248" pan="0" len="48" vol="100" />
          <note key="63" pos="1296" pan="0" len="48" vol="100" />
          <note key="65" pos="1344" pan="0" len="144" vol="100" />
          <note key="58" pos="1488" pan="0" len="48" vol="100" />
          <note key="63" pos="1536" pan="0" len="144" vol="100" />
          <note key="62" pos="1680" pan="0" len="24" vol="100" />
          <note key="63" pos="1704" pan="0" len="24" vol="100" />
          <note key="65" pos="1728" pan="0" len="144" vol="100" />
          <note key="58" pos="1872" pan="0" len="48" vol="100" />
          <note key="67" pos="1920" pan="0" len="144" vol="100" />
          <note key="70" pos="2064" pan="0" len="48" vol="100" />
          <note key="65" pos="2112" pan="0" len="144" vol="100" />
          <note key="63" pos="2256" pan="0" len="24" vol="100" />
          <note key="62" pos="2280" pan="0" len="24" vol="100" />
          <note key="60" pos="2304" pan="0" len="144" vol="100" />
          <note key="62" pos="2448" pan="0" len="48" vol="100" />
          <note key="58" pos="2496" pan="0" len="72" vol="100" />
          <note key="55" pos="2568" pan="0" len="72" vol="100" />
          <note key="58" pos="2640" pan="0" len="48" vol="100" />
          <note key="60" pos="2688" pan="0" len="384" vol="100" />
        </pattern>
        <pattern pos="15360" muted="0" steps="16" name="" type="1">
          <note key="63" pos="24" pan="0" len="24" vol="100" />
          <note key="67" pos="48" pan="0" len="48" vol="100" />
          <note key="67" pos="96" pan="0" len="24" vol="100" />
          <note key="63" pos="120" pan="0" len="48" vol="100" />
          <note key="65" pos="168" pan="0" len="120" vol="100" />
          <note key="63" pos="408" pan="0" len="24" vol="100" />
          <note key="67" pos="432" pan="0" len="48" vol="100" />
          <note key="67" pos="480" pan="0" len="24" vol="100" />
          <note key="63" pos="504" pan="0" len="48" vol="100" />
          <note key="65" pos="552" pan="0" len="48" vol="100" />
          <note key="67" pos="600" pan="0" len="24" vol="100" />
          <note key="65" pos="624" pan="0" len="72" vol="100" />
          <note key="67" pos="1368" pan="0" len="24" vol="100" />
          <note key="65" pos="1392" pan="0" len="72" vol="100" />
        </pattern>
        <pattern pos="18432" muted="0" steps="16" name="" type="1">
          <note key="63" pos="24" pan="0" len="24" vol="100" />
          <note key="67" pos="48" pan="0" len="48" vol="100" />
          <note key="67" pos="96" pan="0" len="24" vol="100" />
          <note key="63" pos="120" pan="0" len="48" vol="100" />
          <note key="65" pos="168" pan="0" len="120" vol="100" />
          <note key="63" pos="408" pan="0" len="24" vol="100" />
          <note key="67" pos="432" pan="0" len="48" vol="100" />
          <note key="67" pos="480" pan="0" len="24" vol="100" />
          <note key="63" pos="504" pan="0" len="48" vol="100" />
          <note key="65" pos="552" pan="0" len="48" vol="100" />
          <note key="67" pos="600" pan="0" len="24" vol="100" />
          <note key="65" pos="624" pan="0" len="72" vol="100" />
          <note key="63" pos="792" pan="0" len="24" vol="100" />
          <note key="67" pos="816" pan="0" len="48" vol="100" />
          <note key="67" pos="864" pan="0" len="24" vol="100" />
          <note key="63" pos="888" pan="0" len="48" vol="100" />
          <note key="60" pos="936" pan="0" len="240" vol="100" />
          <note key="63" pos="1176" pan="0" len="24" vol="100" />
          <note key="67" pos="1200" pan="0" len="48" vol="100" />
          <note key="67" pos="1248" pan="0" len="24" vol="100" />
          <note key="63" pos="1272" pan="0" len="48" vol="100" />
          <note key="67" pos="1320" pan="0" len="72" vol="100" />
        </pattern>
        <pattern pos="113664" muted="0" steps="16" name="" type="1">
          <note key="57" pos="1128" pan="0" len="12" vol="100" />
          <note key="60" pos="1140" pan="0" len="12" vol="100" />
          <note key="62" pos="1152" pan="0" len="24" vol="100" />
          <note key="62" pos="1176" pan="0" len="24" vol="100" />
          <note key="60" pos="1200" pan="0" len="12" vol="100" />
          <note key="57" pos="1212" pan="0" len="12" vol="100" />
          <note key="55" pos="1224" pan="0" len="24" vol="100" />
          <note key="55" pos="1248" pan="0" len="12" vol="100" />
          <note key="57" pos="1260" pan="0" len="24" vol="100" />
          <note key="60" pos="1284" pan="0" len="12" vol="100" />
          <note key="55" pos="1296" pan="0" len="24" vol="100" />
          <note key="55" pos="1320" pan="0" len="12" vol="100" />
          <note key="57" pos="1332" pan="0" len="12" vol="33" />
          <note key="53" pos="1344" pan="0" len="12" vol="100" />
          <note key="52" pos="1356" pan="0" len="12" vol="100" />
          <note key="50" pos="1368" pan="0" len="24" vol="100" />
          <note key="50" pos="1392" pan="0" len="24" vol="100" />
          <note key="57" pos="1416" pan="0" len="12" vol="100" />
          <note key="60" pos="1428" pan="0" len="12" vol="100" />
          <note key="62" pos="1440" pan="0" len="24" vol="100" />
          <note key="62" pos="1464" pan="0" len="24" vol="100" />
          <note key="60" pos="1488" pan="0" len="12" vol="100" />
          <note key="57" pos="1500" pan="0" len="12" vol="100" />
          <note key="55" pos="1512" pan="0" len="24" vol="100" />
          <note key="55" pos="1536" pan="0" len="12" vol="100" />
          <note key="57" pos="1548" pan="0" len="24" vol="100" />
          <note key="60" pos="1572" pan="0" len="12" vol="100" />
          <note key="55" pos="1584" pan="0" len="24" vol="100" />
          <note key="55" pos="1608" pan="0" len="12" vol="100" />
          <note key="57" pos="1620" pan="0" len="24" vol="100" />
          <note key="53" pos="1644" pan="0" len="12" vol="100" />
          <note key="55" pos="1656" pan="0" len="24" vol="100" />
          <note key="55" pos="1680" pan="0" len="24" vol="100" />
          <note key="57" pos="1704" pan="0" len="12" vol="100" />
          <note key="60" pos="1716" pan="0" len="12" vol="100" />
          <note key="62" pos="1728" pan="0" len="24" vol="100" />
          <note key="62" pos="1752" pan="0" len="24" vol="100" />
          <note key="60" pos="1776" pan="0" len="12" vol="100" />
          <note key="57" pos="1788" pan="0" len="12" vol="100" />
          <note key="55" pos="1800" pan="0" len="24" vol="100" />
          <note key="55" pos="1824" pan="0" len="12" vol="100" />
          <note key="57" pos="1836" pan="0" len="24" vol="100" />
          <note key="60" pos="1860" pan="0" len="12" vol="100" />
          <note key="55" pos="1872" pan="0" len="24" vol="100" />
          <note key="55" pos="1896" pan="0" len="12" vol="100" />
          <note key="57" pos="1908" pan="0" len="12" vol="33" />
          <note key="53" pos="1920" pan="0" len="12" vol="100" />
          <note key="52" pos="1932" pan="0" len="12" vol="100" />
          <note key="50" pos="1944" pan="0" len="24" vol="100" />
          <note key="50" pos="1968" pan="0" len="24" vol="100" />
          <note key="57" pos="1992" pan="0" len="12" vol="100" />
          <note key="60" pos="2004" pan="0" len="12" vol="100" />
          <note key="62" pos="2016" pan="0" len="24" vol="100" />
          <note key="62" pos="2040" pan="0" len="24" vol="100" />
          <note key="60" pos="2064" pan="0" len="12" vol="100" />
          <note key="57" pos="2076" pan="0" len="12" vol="100" />
          <note key="55" pos="2088" pan="0" len="24" vol="100" />
          <note key="55" pos="2112" pan="0" len="12" vol="100" />
          <note key="57" pos="2124" pan="0" len="24" vol="100" />
          <note key="48" pos="2148" pan="0" len="12" vol="100" />
          <note key="55" pos="2160" pan="0" len="24" vol="100" />
          <note key="55" pos="2184" pan="0" len="12" vol="100" />
          <note key="57" pos="2196" pan="0" len="24" vol="100" />
          <note key="53" pos="2220" pan="0" len="12" vol="100" />
          <note key="55" pos="2232" pan="0" len="24" vol="100" />
          <note key="55" pos="2256" pan="0" len="12" vol="100" />
          <note key="64" pos="2268" pan="0" len="24" vol="100" />
          <note key="60" pos="2292" pan="0" len="12" vol="100" />
        </pattern>
        <pattern pos="115968" muted="0" steps="16" name="" type="1">
          <note key="62" pos="0" pan="0" len="72" vol="100" />
          <note key="67" pos="72" pan="0" len="48" vol="100" />
          <note key="62" pos="120" pan="0" len="12" vol="100" />
          <note key="67" pos="132" pan="0" len="12" vol="100" />
          <note key="65" pos="144" pan="0" len="12" vol="100" />
          <note key="64" pos="156" pan="0" len="12" vol="100" />
          <note key="62" pos="168" pan="0" len="36" vol="100" />
          <note key="65" pos="204" pan="0" len="12" vol="100" />
          <note key="64" pos="216" pan="0" len="12" vol="100" />
          <note key="60" pos="228" pan="0" len="12" vol="100" />
          <note key="55" pos="240" pan="0" len="36" vol="100" />
          <note key="64" pos="276" pan="0" len="12" vol="100" />
          <note key="62" pos="288" pan="0" len="72" vol="100" />
          <note key="69" pos="360" pan="0" len="24" vol="100" />
          <note key="65" pos="384" pan="0" len="36" vol="100" />
          <note key="64" pos="420" pan="0" len="12" vol="100" />
          <note key="65" pos="432" pan="0" len="72" vol="100" />
          <note key="67" pos="504" pan="0" len="72" vol="100" />
          <note key="65" pos="576" pan="0" len="72" vol="100" />
          <note key="69" pos="648" pan="0" len="24" vol="100" />
          <note key="65" pos="672" pan="0" len="24" vol="100" />
          <note key="62" pos="696" pan="0" len="12" vol="100" />
          <note key="67" pos="708" pan="0" len="12" vol="100" />
          <note key="65" pos="720" pan="0" len="12" vol="100" />
          <note key="64" pos="732" pan="0" len="12" vol="100" />
          <note key="62" pos="744" pan="0" len="36" vol="100" />
          <note key="65" pos="780" pan="0" len="12" vol="100" />
          <note key="64" pos="792" pan="0" len="12" vol="100" />
          <note key="60" pos="804" pan="0" len="12" vol="100" />
          <note key="55" pos="816" pan="0" len="36" vol="100" />
          <note key="64" pos="852" pan="0" len="12" vol="100" />
          <note key="62" pos="864" pan="0" len="72" vol="100" />
          <note key="69" pos="936" pan="0" len="24" vol="100" />
          <note key="65" pos="960" pan="0" len="36" vol="100" />
          <note key="64" pos="996" pan="0" len="12" vol="100" />
          <note key="65" pos="1008" pan="0" len="72" vol="100" />
          <note key="64" pos="1080" pan="0" len="72" vol="100" />
          <note key="60" pos="1152" pan="0" len="72" vol="100" />
          <note key="67" pos="1224" pan="0" len="24" vol="100" />
          <note key="63" pos="1248" pan="0" len="36" vol="100" />
          <note key="62" pos="1284" pan="0" len="12" vol="100" />
          <note key="63" pos="1296" pan="0" len="48" vol="100" />
          <note key="65" pos="1344" pan="0" len="12" vol="100" />
          <note key="63" pos="1356" pan="0" len="12" vol="100" />
          <note key="62" pos="1368" pan="0" len="48" vol="100" />
          <note key="58" pos="1416" pan="0" len="24" vol="100" />
          <note key="60" pos="1440" pan="0" len="24" vol="100" />
          <note key="67" pos="1464" pan="0" len="48" vol="100" />
          <note key="63" pos="1512" pan="0" len="48" vol="100" />
          <note key="62" pos="1560" pan="0" len="24" vol="100" />
          <note key="63" pos="1584" pan="0" len="48" vol="100" />
          <note key="65" pos="1632" pan="0" len="12" vol="100" />
          <note key="63" pos="1644" pan="0" len="12" vol="100" />
          <note key="65" pos="1656" pan="0" len="72" vol="100" />
          <note key="63" pos="1728" pan="0" len="72" vol="100" />
          <note key="67" pos="1800" pan="0" len="24" vol="100" />
          <note key="63" pos="1824" pan="0" len="24" vol="100" />
          <note key="60" pos="1848" pan="0" len="12" vol="100" />
          <note key="65" pos="1860" pan="0" len="12" vol="100" />
          <note key="63" pos="1872" pan="0" len="12" vol="100" />
          <note key="62" pos="1884" pan="0" len="12" vol="100" />
          <note key="60" pos="1896" pan="0" len="36" vol="100" />
          <note key="63" pos="1932" pan="0" len="12" vol="100" />
          <note key="62" pos="1944" pan="0" len="12" vol="100" />
          <note key="58" pos="1956" pan="0" len="12" vol="100" />
          <note key="53" pos="1968" pan="0" len="36" vol="100" />
          <note key="62" pos="2004" pan="0" len="12" vol="100" />
          <note key="60" pos="2016" pan="0" len="72" vol="100" />
          <note key="67" pos="2088" pan="0" len="24" vol="100" />
          <note key="63" pos="2112" pan="0" len="36" vol="100" />
          <note key="62" pos="2148" pan="0" len="12" vol="100" />
          <note key="63" pos="2160" pan="0" len="72" vol="100" />
          <note key="62" pos="2232" pan="0" len="48" vol="100" />
        </pattern>
        <pattern pos="120576" muted="0" steps="16" name="" type="1">
          <note key="62" pos="0" pan="0" len="72" vol="100" />
          <note key="67" pos="72" pan="0" len="48" vol="100" />
          <note key="62" pos="120" pan="0" len="12" vol="100" />
          <note key="67" pos="132" pan="0" len="12" vol="100" />
          <note key="65" pos="144" pan="0" len="12" vol="100" />
          <note key="64" pos="156" pan="0" len="12" vol="100" />
          <note key="62" pos="168" pan="0" len="36" vol="100" />
          <note key="65" pos="204" pan="0" len="12" vol="100" />
          <note key="64" pos="216" pan="0" len="12" vol="100" />
          <note key="60" pos="228" pan="0" len="12" vol="100" />
          <note key="55" pos="240" pan="0" len="36" vol="100" />
          <note key="64" pos="276" pan="0" len="12" vol="100" />
          <note key="62" pos="288" pan="0" len="72" vol="100" />
          <note key="69" pos="360" pan="0" len="24" vol="100" />
          <note key="65" pos="384" pan="0" len="36" vol="100" />
          <note key="64" pos="420" pan="0" len="12" vol="100" />
          <note key="65" pos="432" pan="0" len="72" vol="100" />
          <note key="67" pos="504" pan="0" len="72" vol="100" />
          <note key="65" pos="576" pan="0" len="72" vol="100" />
          <note key="69" pos="648" pan="0" len="24" vol="100" />
          <note key="65" pos="672" pan="0" len="24" vol="100" />
          <note key="62" pos="696" pan="0" len="12" vol="100" />
          <note key="67" pos="708" pan="0" len="12" vol="100" />
          <note key="65" pos="720" pan="0" len="12" vol="100" />
          <note key="64" pos="732" pan="0" len="12" vol="100" />
          <note key="62" pos="744" pan="0" len="36" vol="100" />
          <note key="65" pos="780" pan="0" len="12" vol="100" />
          <note key="64" pos="792" pan="0" len="12" vol="100" />
          <note key="60" pos="804" pan="0" len="12" vol="100" />
          <note key="55" pos="816" pan="0" len="36" vol="100" />
          <note key="64" pos="852" pan="0" len="12" vol="100" />
          <note key="62" pos="864" pan="0" len="72" vol="100" />
          <note key="69" pos="936" pan="0" len="24" vol="100" />
          <note key="65" pos="960" pan="0" len="36" vol="100" />
          <note key="64" pos="996" pan="0" len="12" vol="100" />
          <note key="65" pos="1008" pan="0" len="72" vol="100" />
          <note key="64" pos="1080" pan="0" len="72" vol="100" />
          <note key="60" pos="1152" pan="0" len="72" vol="100" />
          <note key="67" pos="1224" pan="0" len="24" vol="100" />
          <note key="63" pos="1248" pan="0" len="36" vol="100" />
          <note key="62" pos="1284" pan="0" len="12" vol="100" />
          <note key="63" pos="1296" pan="0" len="48" vol="100" />
          <note key="65" pos="1344" pan="0" len="12" vol="100" />
          <note key="63" pos="1356" pan="0" len="12" vol="100" />
          <note key="62" pos="1368" pan="0" len="48" vol="100" />
          <note key="58" pos="1416" pan="0" len="24" vol="100" />
          <note key="60" pos="1440" pan="0" len="24" vol="100" />
          <note key="67" pos="1464" pan="0" len="48" vol="100" />
          <note key="63" pos="1512" pan="0" len="48" vol="100" />
          <note key="62" pos="1560" pan="0" len="24" vol="100" />
          <note key="63" pos="1584" pan="0" len="48" vol="100" />
          <note key="65" pos="1632" pan="0" len="12" vol="100" />
          <note key="63" pos="1644" pan="0" len="12" vol="100" />
          <note key="65" pos="1656" pan="0" len="72" vol="100" />
          <note key="63" pos="1728" pan="0" len="72" vol="100" />
          <note key="67" pos="1800" pan="0" len="24" vol="100" />
          <note key="63" pos="1824" pan="0" len="24" vol="100" />
          <note key="60" pos="1848" pan="0" len="12" vol="100" />
          <note key="65" pos="1860" pan="0" len="12" vol="100" />
          <note key="63" pos="1872" pan="0" len="12" vol="100" />
          <note key="62" pos="1884" pan="0" len="12" vol="100" />
          <note key="60" pos="1896" pan="0" len="36" vol="100" />
          <note key="63" pos="1932" pan="0" len="12" vol="100" />
          <note key="62" pos="1944" pan="0" len="12" vol="100" />
          <note key="58" pos="1956" pan="0" len="12" vol="100" />
          <note key="53" pos="1968" pan="0" len="36" vol="100" />
          <note key="62" pos="2004" pan="0" len="12" vol="100" />
          <note key="60" pos="2016" pan="0" len="72" vol="100" />
          <note key="67" pos="2088" pan="0" len="24" vol="100" />
          <note key="63" pos="2112" pan="0" len="36" vol="100" />
          <note key="62" pos="2148" pan="0" len="12" vol="100" />
          <note key="63" pos="2160" pan="0" len="72" vol="100" />
          <note key="62" pos="2232" pan="0" len="48" vol="100" />
        </pattern>
        <pattern pos="125196" muted="0" steps="16" name="" type="1">
          <note key="53" pos="48" pan="0" len="36" vol="100" />
          <note key="58" pos="96" pan="0" len="36" vol="100" />
          <note key="51" pos="144" pan="0" len="36" vol="100" />
          <note key="50" pos="192" pan="0" len="12" vol="100" />
          <note key="50" pos="204" pan="0" len="48" vol="100" />
          <note key="46" pos="264" pan="0" len="24" vol="100" />
          <note key="43" pos="288" pan="0" len="96" vol="100" />
          <note key="58" pos="432" pan="0" len="48" vol="100" />
          <note key="60" pos="480" pan="0" len="48" vol="100" />
          <note key="55" pos="528" pan="0" len="48" vol="100" />
          <note key="53" pos="576" pan="0" len="12" vol="100" />
          <note key="53" pos="588" pan="0" len="60" vol="100" />
          <note key="46" pos="648" pan="0" len="24" vol="100" />
          <note key="51" pos="672" pan="0" len="96" vol="100" />
        </pattern>
        <pattern pos="125964" muted="0" steps="16" name="" type="1">
          <note key="60" pos="0" pan="0" len="48" vol="100" />
          <note key="58" pos="48" pan="0" len="48" vol="100" />
          <note key="51" pos="96" pan="0" len="48" vol="100" />
          <note key="58" pos="144" pan="0" len="48" vol="100" />
          <note key="50" pos="192" pan="0" len="48" vol="100" />
          <note key="51" pos="240" pan="0" len="48" vol="100" />
          <note key="55" pos="288" pan="0" len="48" vol="100" />
          <note key="53" pos="336" pan="0" len="48" vol="100" />
          <note key="60" pos="384" pan="0" len="48" vol="100" />
          <note key="58" pos="432" pan="0" len="48" vol="100" />
          <note key="51" pos="480" pan="0" len="48" vol="100" />
          <note key="58" pos="528" pan="0" len="48" vol="100" />
          <note key="50" pos="576" pan="0" len="48" vol="100" />
          <note key="51" pos="624" pan="0" len="48" vol="100" />
          <note key="55" pos="672" pan="0" len="96" vol="100" />
          <note key="60" pos="768" pan="0" len="48" vol="100" />
          <note key="58" pos="816" pan="0" len="48" vol="100" />
          <note key="51" pos="864" pan="0" len="48" vol="100" />
          <note key="58" pos="912" pan="0" len="48" vol="100" />
          <note key="50" pos="960" pan="0" len="48" vol="100" />
          <note key="51" pos="1008" pan="0" len="48" vol="100" />
          <note key="55" pos="1056" pan="0" len="48" vol="100" />
          <note key="53" pos="1104" pan="0" len="48" vol="100" />
          <note key="60" pos="1152" pan="0" len="48" vol="100" />
          <note key="58" pos="1200" pan="0" len="48" vol="100" />
          <note key="55" pos="1248" pan="0" len="48" vol="100" />
          <note key="58" pos="1296" pan="0" len="48" vol="100" />
          <note key="60" pos="1344" pan="0" len="192" vol="100" />
        </pattern>
        <pattern pos="129036" muted="0" steps="16" name="" type="1">
          <note key="60" pos="0" pan="0" len="48" vol="100" />
          <note key="58" pos="48" pan="0" len="48" vol="100" />
          <note key="51" pos="96" pan="0" len="48" vol="100" />
          <note key="58" pos="144" pan="0" len="48" vol="100" />
          <note key="50" pos="192" pan="0" len="48" vol="100" />
          <note key="51" pos="240" pan="0" len="48" vol="100" />
          <note key="55" pos="288" pan="0" len="48" vol="100" />
          <note key="53" pos="336" pan="0" len="48" vol="100" />
          <note key="60" pos="384" pan="0" len="48" vol="100" />
          <note key="58" pos="432" pan="0" len="48" vol="100" />
          <note key="55" pos="480" pan="0" len="48" vol="100" />
          <note key="58" pos="528" pan="0" len="48" vol="100" />
          <note key="60" pos="576" pan="0" len="96" vol="100" />
          <note key="58" pos="672" pan="0" len="96" vol="100" />
          <note key="60" pos="768" pan="0" len="48" vol="100" />
          <note key="58" pos="816" pan="0" len="48" vol="100" />
          <note key="51" pos="864" pan="0" len="48" vol="100" />
          <note key="58" pos="912" pan="0" len="48" vol="100" />
          <note key="50" pos="960" pan="0" len="48" vol="100" />
          <note key="51" pos="1008" pan="0" len="48" vol="100" />
          <note key="55" pos="1056" pan="0" len="48" vol="100" />
          <note key="53" pos="1104" pan="0" len="48" vol="100" />
          <note key="60" pos="1152" pan="0" len="48" vol="100" />
          <note key="58" pos="1200" pan="0" len="48" vol="100" />
          <note key="55" pos="1248" pan="0" len="48" vol="100" />
          <note key="58" pos="1296" pan="0" len="48" vol="100" />
          <note key="60" pos="1344" pan="0" len="192" vol="100" />
        </pattern>
        <pattern pos="233484" muted="0" steps="16" name="" type="1">
          <note key="63" pos="48" pan="0" len="24" vol="100" />
          <note key="66" pos="72" pan="0" len="48" vol="100" />
          <note key="63" pos="216" pan="0" len="24" vol="100" />
          <note key="70" pos="240" pan="0" len="24" vol="100" />
          <note key="70" pos="312" pan="0" len="48" vol="100" />
          <note key="68" pos="432" pan="0" len="72" vol="100" />
        </pattern>
        <pattern pos="235020" muted="0" steps="16" name="" type="1">
          <note key="58" pos="48" pan="0" len="24" vol="100" />
          <note key="61" pos="72" pan="0" len="48" vol="100" />
          <note key="58" pos="216" pan="0" len="24" vol="100" />
          <note key="65" pos="240" pan="0" len="24" vol="100" />
          <note key="65" pos="312" pan="0" len="48" vol="100" />
          <note key="63" pos="432" pan="0" len="72" vol="100" />
        </pattern>
        <pattern pos="241932" muted="0" steps="16" name="" type="1">
          <note key="53" pos="0" pan="0" len="96" vol="80" />
          <note key="53" pos="96" pan="0" len="96" vol="80" />
          <note key="51" pos="192" pan="0" len="96" vol="80" />
          <note key="51" pos="288" pan="0" len="96" vol="80" />
          <note key="53" pos="384" pan="0" len="96" vol="80" />
          <note key="53" pos="480" pan="0" len="96" vol="80" />
          <note key="51" pos="576" pan="0" len="96" vol="80" />
          <note key="51" pos="672" pan="0" len="96" vol="80" />
          <note key="53" pos="768" pan="0" len="96" vol="80" />
          <note key="53" pos="864" pan="0" len="96" vol="80" />
          <note key="51" pos="960" pan="0" len="96" vol="80" />
          <note key="51" pos="1056" pan="0" len="96" vol="80" />
          <note key="53" pos="1152" pan="0" len="96" vol="80" />
          <note key="53" pos="1248" pan="0" len="96" vol="80" />
          <note key="51" pos="1344" pan="0" len="96" vol="80" />
          <note key="51" pos="1440" pan="0" len="96" vol="80" />
        </pattern>
      </track>
      <track solo="0" name="39 (Ch6)" type="0" muted="0">
        <instrumenttrack usemasterpitch="1" pitch="0.0" basenote="57" pan="0" pitchrange="12" vol="30">
          <eldata />
          <instrument name="tripleoscillator" />
        </instrumenttrack>
        <pattern pos="246540" muted="0" steps="16" name="" type="1">
          <note key="56" pos="0" pan="0" len="96" vol="80" />
          <note key="56" pos="96" pan="0" len="96" vol="80" />
          <note key="54" pos="192" pan="0" len="96" vol="80" />
          <note key="54" pos="288" pan="0" len="96" vol="80" />
          <note key="56" pos="384" pan="0" len="96" vol="80" />
          <note key="56" pos="480" pan="0" len="96" vol="80" />
          <note key="54" pos="576" pan="0" len="96" vol="80" />
          <note key="54" pos="672" pan="0" len="96" vol="80" />
          <note key="56" pos="768" pan="0" len="96" vol="80" />
          <note key="56" pos="864" pan="0" len="96" vol="80" />
          <note key="54" pos="960" pan="0" len="96" vol="80" />
          <note key="54" pos="1056" pan="0" len="96" vol="80" />
          <note key="56" pos="1152" pan="0" len="96" vol="80" />
          <note key="56" pos="1248" pan="0" len="96" vol="80" />
          <note key="54" pos="1344" pan="0" len="96" vol="80" />
          <note key="54" pos="1440" pan="0" len="96" vol="80" />
        </pattern>
        <pattern pos="7680" muted="0" steps="16" name="" type="1">
          <note key="65" pos="2208" pan="0" len="48" vol="100" />
          <note key="70" pos="2256" pan="0" len="48" vol="100" />
          <note key="67" pos="2304" pan="0" len="768" vol="100" />
        </pattern>
        <pattern pos="12288" muted="0" steps="16" name="" type="1">
          <note key="51" pos="0" pan="0" len="144" vol="100" />
          <note key="50" pos="144" pan="0" len="24" vol="100" />
          <note key="51" pos="168" pan="0" len="24" vol="100" />
          <note key="53" pos="192" pan="0" len="96" vol="100" />
          <note key="46" pos="288" pan="0" len="96" vol="100" />
          <note key="55" pos="384" pan="0" len="144" vol="100" />
          <note key="58" pos="528" pan="0" len="48" vol="100" />
          <note key="53" pos="576" pan="0" len="144" vol="100" />
          <note key="51" pos="720" pan="0" len="24" vol="100" />
          <note key="50" pos="744" pan="0" len="24" vol="100" />
          <note key="48" pos="768" pan="0" len="144" vol="100" />
          <note key="50" pos="912" pan="0" len="48" vol="100" />
          <note key="46" pos="960" pan="0" len="120" vol="100" />
          <note key="43" pos="1080" pan="0" len="72" vol="100" />
          <note key="48" pos="1152" pan="0" len="96" vol="100" />
          <note key="50" pos="1248" pan="0" len="48" vol="100" />
          <note key="51" pos="1296" pan="0" len="48" vol="100" />
          <note key="53" pos="1344" pan="0" len="144" vol="100" />
          <note key="46" pos="1488" pan="0" len="48" vol="100" />
        </pattern>
        <pattern pos="113664" muted="0" steps="16" name="" type="1">
          <note key="69" pos="264" pan="0" len="12" vol="100" />
          <note key="72" pos="276" pan="0" len="12" vol="100" />
          <note key="74" pos="288" pan="0" len="12" vol="100" />
        </pattern>
        <pattern pos="125964" muted="0" steps="16" name="" type="1">
          <note key="72" pos="0" pan="0" len="48" vol="100" />
          <note key="70" pos="48" pan="0" len="48" vol="100" />
          <note key="63" pos="96" pan="0" len="48" vol="100" />
          <note key="70" pos="144" pan="0" len="48" vol="100" />
          <note key="62" pos="192" pan="0" len="48" vol="100" />
          <note key="63" pos="240" pan="0" len="48" vol="100" />
          <note key="67" pos="288" pan="0" len="48" vol="100" />
          <note key="65" pos="336" pan="0" len="48" vol="100" />
          <note key="72" pos="384" pan="0" len="384" vol="100" />
          <note key="72" pos="768" pan="0" len="48" vol="100" />
          <note key="70" pos="816" pan="0" len="48" vol="100" />
          <note key="63" pos="864" pan="0" len="48" vol="100" />
          <note key="70" pos="912" pan="0" len="48" vol="100" />
          <note key="62" pos="960" pan="0" len="48" vol="100" />
          <note key="63" pos="1008" pan="0" len="48" vol="100" />
          <note key="67" pos="1056" pan="0" len="48" vol="100" />
          <note key="65" pos="1104" pan="0" len="48" vol="100" />
          <note key="72" pos="1152" pan="0" len="384" vol="100" />
        </pattern>
        <pattern pos="129036" muted="0" steps="16" name="" type="1">
          <note key="72" pos="0" pan="0" len="48" vol="100" />
          <note key="70" pos="48" pan="0" len="48" vol="100" />
          <note key="63" pos="96" pan="0" len="48" vol="100" />
          <note key="70" pos="144" pan="0" len="48" vol="100" />
          <note key="62" pos="192" pan="0" len="48" vol="100" />
          <note key="63" pos="240" pan="0" len="48" vol="100" />
          <note key="67" pos="288" pan="0" len="48" vol="100" />
          <note key="65" pos="336" pan="0" len="48" vol="100" />
          <note key="72" pos="384" pan="0" len="384" vol="100" />
          <note key="72" pos="768" pan="0" len="48" vol="100" />
          <note key="70" pos="816" pan="0" len="48" vol="100" />
          <note key="63" pos="864" pan="0" len="48" vol="100" />
          <note key="70" pos="912" pan="0" len="48" vol="100" />
          <note key="62" pos="960" pan="0" len="48" vol="100" />
          <note key="63" pos="1008" pan="0" len="48" vol="100" />
          <note key="67" pos="1056" pan="0" len="48" vol="100" />
          <note key="65" pos="1104" pan="0" len="48" vol="100" />
          <note key="72" pos="1152" pan="0" len="384" vol="100" />
        </pattern>
        <pattern pos="241932" muted="0" steps="16" name="" type="1">
          <note key="56" pos="0" pan="0" len="96" vol="80" />
          <note key="56" pos="96" pan="0" len="96" vol="80" />
          <note key="54" pos="192" pan="0" len="96" vol="80" />
          <note key="54" pos="288" pan="0" len="96" vol="80" />
          <note key="56" pos="384" pan="0" len="96" vol="80" />
          <note key="56" pos="480" pan="0" len="96" vol="80" />
          <note key="54" pos="576" pan="0" len="96" vol="80" />
          <note key="54" pos="672" pan="0" len="96" vol="80" />
          <note key="56" pos="768" pan="0" len="96" vol="80" />
          <note key="56" pos="864" pan="0" len="96" vol="80" />
          <note key="54" pos="960" pan="0" len="96" vol="80" />
          <note key="54" pos="1056" pan="0" len="96" vol="80" />
          <note key="56" pos="1152" pan="0" len="96" vol="80" />
          <note key="56" pos="1248" pan="0" len="96" vol="80" />
          <note key="54" pos="1344" pan="0" len="96" vol="80" />
          <note key="54" pos="1440" pan="0" len="96" vol="80" />
        </pattern>
      </track>
      <track solo="0" name="39 (Ch7)" type="0" muted="0">
        <instrumenttrack usemasterpitch="1" pitch="0.0" basenote="57" pan="0" pitchrange="12" vol="30">
          <eldata />
          <instrument name="tripleoscillator" />
        </instrumenttrack>
        <pattern pos="267276" muted="0" steps="16" name="" type="1">
          <note key="67" pos="24" pan="0" len="72" vol="100" />
          <note key="65" pos="96" pan="0" len="120" vol="100" />
          <note key="62" pos="216" pan="0" len="72" vol="100" />
          <note key="60" pos="288" pan="0" len="48" vol="100" />
          <note key="58" pos="336" pan="0" len="48" vol="100" />
          <note key="57" pos="384" pan="0" len="48" vol="100" />
          <note key="53" pos="432" pan="0" len="24" vol="100" />
          <note key="55" pos="456" pan="0" len="312" vol="100" />
        </pattern>
        <pattern pos="3072" muted="0" steps="16" name="" type="1">
          <note key="63" pos="768" pan="0" len="48" vol="100" />
          <note key="67" pos="816" pan="0" len="144" vol="100" />
          <note key="72" pos="960" pan="0" len="192" vol="100" />
          <note key="58" pos="1152" pan="0" len="48" vol="100" />
          <note key="50" pos="1200" pan="0" len="48" vol="100" />
          <note key="51" pos="1248" pan="0" len="96" vol="100" />
          <note key="62" pos="1344" pan="0" len="48" vol="100" />
          <note key="53" pos="1392" pan="0" len="48" vol="100" />
          <note key="55" pos="1440" pan="0" len="48" vol="100" />
          <note key="58" pos="1488" pan="0" len="48" vol="100" />
        </pattern>
        <pattern pos="4608" muted="0" steps="16" name="" type="1">
          <note key="51" pos="0" pan="0" len="48" vol="100" />
          <note key="55" pos="48" pan="0" len="144" vol="100" />
          <note key="60" pos="192" pan="0" len="192" vol="100" />
          <note key="74" pos="624" pan="0" len="48" vol="100" />
          <note key="77" pos="672" pan="0" len="96" vol="100" />
        </pattern>
        <pattern pos="7680" muted="0" steps="16" name="" type="1">
          <note key="75" pos="288" pan="0" len="96" vol="100" />
          <note key="74" pos="384" pan="0" len="144" vol="100" />
          <note key="67" pos="528" pan="0" len="72" vol="100" />
          <note key="65" pos="672" pan="0" len="48" vol="100" />
          <note key="70" pos="720" pan="0" len="48" vol="100" />
          <note key="51" pos="768" pan="0" len="12" vol="100" />
          <note key="50" pos="780" pan="0" len="12" vol="100" />
          <note key="51" pos="792" pan="0" len="120" vol="100" />
          <note key="55" pos="912" pan="0" len="48" vol="100" />
          <note key="60" pos="960" pan="0" len="144" vol="100" />
          <note key="63" pos="1104" pan="0" len="24" vol="34" />
          <note key="63" pos="1128" pan="0" len="24" vol="69" />
          <note key="63" pos="1152" pan="0" len="72" vol="100" />
          <note key="65" pos="1224" pan="0" len="72" vol="100" />
          <note key="60" pos="1296" pan="0" len="240" vol="100" />
        </pattern>
        <pattern pos="26112" muted="0" steps="16" name="" type="1">
          <note key="61" pos="0" pan="0" len="24" vol="100" />
          <note key="60" pos="24" pan="0" len="12" vol="100" />
          <note key="61" pos="72" pan="0" len="24" vol="100" />
          <note key="58" pos="120" pan="0" len="24" vol="100" />
          <note key="61" pos="168" pan="0" len="24" vol="100" />
          <note key="60" pos="216" pan="0" len="12" vol="100" />
          <note key="61" pos="240" pan="0" len="12" vol="100" />
          <note key="56" pos="264" pan="0" len="24" vol="100" />
          <note key="61" pos="288" pan="0" len="24" vol="100" />
          <note key="60" pos="312" pan="0" len="24" vol="100" />
          <note key="61" pos="336" pan="0" len="24" vol="100" />
          <note key="63" pos="360" pan="0" len="24" vol="100" />
          <note key="65" pos="384" pan="0" len="24" vol="100" />
          <note key="65" pos="504" pan="0" len="24" vol="100" />
          <note key="68" pos="528" pan="0" len="24" vol="100" />
          <note key="67" pos="576" pan="0" len="24" vol="100" />
          <note key="63" pos="600" pan="0" len="24" vol="100" />
          <note key="67" pos="648" pan="0" len="24" vol="100" />
          <note key="63" pos="696" pan="0" len="24" vol="100" />
          <note key="61" pos="768" pan="0" len="24" vol="100" />
          <note key="60" pos="792" pan="0" len="12" vol="100" />
          <note key="61" pos="840" pan="0" len="24" vol="100" />
          <note key="58" pos="888" pan="0" len="24" vol="100" />
          <note key="61" pos="936" pan="0" len="24" vol="100" />
          <note key="60" pos="984" pan="0" len="12" vol="100" />
          <note key="61" pos="1008" pan="0" len="12" vol="100" />
          <note key="56" pos="1032" pan="0" len="24" vol="100" />
          <note key="61" pos="1056" pan="0" len="24" vol="100" />
          <note key="60" pos="1080" pan="0" len="24" vol="100" />
          <note key="61" pos="1104" pan="0" len="24" vol="100" />
          <note key="63" pos="1128" pan="0" len="24" vol="100" />
          <note key="65" pos="1152" pan="0" len="24" vol="100" />
          <note key="65" pos="1272" pan="0" len="24" vol="100" />
          <note key="68" pos="1296" pan="0" len="24" vol="100" />
          <note key="67" pos="1344" pan="0" len="24" vol="100" />
          <note key="63" pos="1368" pan="0" len="24" vol="100" />
          <note key="67" pos="1416" pan="0" len="24" vol="100" />
          <note key="68" pos="1464" pan="0" len="24" vol="100" />
        </pattern>
        <pattern pos="27648" muted="0" steps="16" name="" type="1">
          <note key="70" pos="0" pan="0" len="24" vol="100" />
          <note key="68" pos="24" pan="0" len="24" vol="100" />
          <note key="63" pos="72" pan="0" len="24" vol="100" />
          <note key="60" pos="120" pan="0" len="24" vol="100" />
          <note key="70" pos="168" pan="0" len="24" vol="100" />
          <note key="68" pos="216" pan="0" len="12" vol="100" />
          <note key="63" pos="240" pan="0" len="12" vol="100" />
          <note key="60" pos="264" pan="0" len="12" vol="100" />
          <note key="70" pos="288" pan="0" len="12" vol="100" />
          <note key="68" pos="312" pan="0" len="12" vol="100" />
          <note key="63" pos="336" pan="0" len="12" vol="100" />
          <note key="65" pos="360" pan="0" len="12" vol="100" />
          <note key="67" pos="384" pan="0" len="12" vol="100" />
          <note key="63" pos="504" pan="0" len="12" vol="100" />
          <note key="67" pos="528" pan="0" len="12" vol="100" />
          <note key="65" pos="576" pan="0" len="24" vol="100" />
          <note key="62" pos="600" pan="0" len="12" vol="100" />
          <note key="65" pos="648" pan="0" len="12" vol="100" />
          <note key="62" pos="696" pan="0" len="12" vol="100" />
          <note key="68" pos="744" pan="0" len="12" vol="100" />
          <note key="70" pos="768" pan="0" len="24" vol="100" />
          <note key="68" pos="792" pan="0" len="24" vol="100" />
          <note key="63" pos="840" pan="0" len="24" vol="100" />
          <note key="60" pos="888" pan="0" len="24" vol="100" />
          <note key="70" pos="936" pan="0" len="24" vol="100" />
          <note key="68" pos="984" pan="0" len="12" vol="100" />
          <note key="63" pos="1008" pan="0" len="12" vol="100" />
          <note key="60" pos="1032" pan="0" len="12" vol="100" />
          <note key="70" pos="1056" pan="0" len="12" vol="100" />
          <note key="68" pos="1080" pan="0" len="12" vol="100" />
          <note key="63" pos="1104" pan="0" len="12" vol="100" />
          <note key="65" pos="1128" pan="0" len="12" vol="100" />
          <note key="67" pos="1152" pan="0" len="12" vol="100" />
          <note key="63" pos="1272" pan="0" len="12" vol="100" />
          <note key="67" pos="1296" pan="0" len="12" vol="100" />
          <note key="65" pos="1344" pan="0" len="72" vol="100" />
          <note key="62" pos="1416" pan="0" len="12" vol="100" />
          <note key="63" pos="1464" pan="0" len="24" vol="100" />
          <note key="67" pos="1488" pan="0" len="48" vol="100" />
        </pattern>
        <pattern pos="95232" muted="0" steps="16" name="" type="1">
          <note key="57" pos="1632" pan="0" len="48" vol="100" />
          <note key="62" pos="1680" pan="0" len="48" vol="100" />
          <note key="65" pos="1728" pan="0" len="48" vol="100" />
          <note key="64" pos="1776" pan="0" len="48" vol="100" />
        </pattern>
        <pattern pos="125196" muted="0" steps="16" name="" type="1">
          <note key="51" pos="192" pan="0" len="240" vol="50" />
        </pattern>
        <pattern pos="200460" muted="0" steps="16" name="" type="1">
          <note key="56" pos="0" pan="0" len="72" vol="100" />
        </pattern>
        <pattern pos="241932" muted="0" steps="16" name="" type="1">
          <note key="58" pos="0" pan="0" len="96" vol="80" />
          <note key="58" pos="96" pan="0" len="96" vol="80" />
          <note key="56" pos="192" pan="0" len="96" vol="80" />
          <note key="56" pos="288" pan="0" len="96" vol="80" />
          <note key="58" pos="384" pan="0" len="96" vol="80" />
          <note key="58" pos="480" pan="0" len="96" vol="80" />
          <note key="56" pos="576" pan="0" len="96" vol="80" />
          <note key="56" pos="672" pan="0" len="96" vol="80" />
          <note key="58" pos="768" pan="0" len="96" vol="80" />
          <note key="58" pos="864" pan="0" len="96" vol="80" />
          <note key="56" pos="960" pan="0" len="96" vol="80" />
          <note key="56" pos="1056" pan="0" len="96" vol="80" />
          <note key="58" pos="1152" pan="0" len="96" vol="80" />
          <note key="58" pos="1248" pan="0" len="96" vol="80" />
          <note key="56" pos="1344" pan="0" len="96" vol="80" />
          <note key="56" pos="1440" pan="0" len="96" vol="80" />
        </pattern>
        <pattern pos="246540" muted="0" steps="16" name="" type="1">
          <note key="58" pos="0" pan="0" len="96" vol="80" />
          <note key="58" pos="96" pan="0" len="96" vol="80" />
          <note key="56" pos="192" pan="0" len="96" vol="80" />
          <note key="56" pos="288" pan="0" len="96" vol="80" />
          <note key="58" pos="384" pan="0" len="96" vol="80" />
          <note key="58" pos="480" pan="0" len="96" vol="80" />
          <note key="56" pos="576" pan="0" len="96" vol="80" />
          <note key="56" pos="672" pan="0" len="96" vol="80" />
          <note key="58" pos="768" pan="0" len="96" vol="80" />
          <note key="58" pos="864" pan="0" len="96" vol="80" />
          <note key="56" pos="960" pan="0" len="96" vol="80" />
          <note key="56" pos="1056" pan="0" len="96" vol="80" />
          <note key="58" pos="1152" pan="0" len="96" vol="80" />
          <note key="58" pos="1248" pan="0" len="96" vol="80" />
          <note key="56" pos="1344" pan="0" len="96" vol="80" />
          <note key="56" pos="1440" pan="0" len="96" vol="80" />
        </pattern>
        <pattern pos="251148" muted="0" steps="16" name="" type="1">
          <note key="62" pos="2208" pan="0" len="96" vol="100" />
        </pattern>
        <pattern pos="253452" muted="0" steps="16" name="" type="1">
          <note key="67" pos="0" pan="0" len="72" vol="100" />
          <note key="65" pos="72" pan="0" len="72" vol="100" />
          <note key="62" pos="144" pan="0" len="144" vol="100" />
          <note key="65" pos="288" pan="0" len="72" vol="100" />
          <note key="58" pos="360" pan="0" len="72" vol="100" />
          <note key="57" pos="432" pan="0" len="12" vol="100" />
          <note key="58" pos="444" pan="0" len="12" vol="100" />
          <note key="57" pos="456" pan="0" len="72" vol="100" />
          <note key="55" pos="528" pan="0" len="48" vol="100" />
          <note key="62" pos="576" pan="0" len="240" vol="100" />
          <note key="65" pos="816" pan="0" len="48" vol="100" />
          <note key="58" pos="864" pan="0" len="288" vol="100" />
          <note key="67" pos="1152" pan="0" len="72" vol="100" />
          <note key="65" pos="1224" pan="0" len="72" vol="100" />
          <note key="62" pos="1296" pan="0" len="144" vol="100" />
          <note key="65" pos="1440" pan="0" len="72" vol="100" />
          <note key="58" pos="1512" pan="0" len="72" vol="100" />
          <note key="57" pos="1584" pan="0" len="12" vol="100" />
          <note key="58" pos="1596" pan="0" len="12" vol="100" />
          <note key="57" pos="1608" pan="0" len="72" vol="100" />
          <note key="53" pos="1680" pan="0" len="24" vol="100" />
          <note key="57" pos="1704" pan="0" len="24" vol="100" />
          <note key="55" pos="1728" pan="0" len="240" vol="100" />
          <note key="65" pos="1968" pan="0" len="48" vol="100" />
          <note key="55" pos="2016" pan="0" len="216" vol="100" />
          <note key="62" pos="2232" pan="0" len="72" vol="100" />
        </pattern>
        <pattern pos="255756" muted="0" steps="16" name="" type="1">
          <note key="67" pos="0" pan="0" len="72" vol="100" />
          <note key="65" pos="72" pan="0" len="72" vol="100" />
          <note key="62" pos="144" pan="0" len="144" vol="100" />
          <note key="65" pos="288" pan="0" len="72" vol="100" />
          <note key="58" pos="360" pan="0" len="72" vol="100" />
          <note key="57" pos="432" pan="0" len="12" vol="100" />
          <note key="58" pos="444" pan="0" len="12" vol="100" />
          <note key="57" pos="456" pan="0" len="72" vol="100" />
          <note key="55" pos="528" pan="0" len="48" vol="100" />
          <note key="62" pos="576" pan="0" len="240" vol="100" />
          <note key="65" pos="816" pan="0" len="48" vol="100" />
          <note key="58" pos="864" pan="0" len="288" vol="100" />
          <note key="67" pos="1152" pan="0" len="72" vol="100" />
          <note key="65" pos="1224" pan="0" len="72" vol="100" />
          <note key="62" pos="1296" pan="0" len="144" vol="100" />
          <note key="65" pos="1440" pan="0" len="72" vol="100" />
          <note key="58" pos="1512" pan="0" len="72" vol="100" />
          <note key="57" pos="1584" pan="0" len="12" vol="100" />
          <note key="58" pos="1596" pan="0" len="12" vol="100" />
          <note key="57" pos="1608" pan="0" len="72" vol="100" />
          <note key="53" pos="1680" pan="0" len="24" vol="100" />
          <note key="57" pos="1704" pan="0" len="24" vol="100" />
          <note key="55" pos="1728" pan="0" len="240" vol="100" />
          <note key="65" pos="1968" pan="0" len="48" vol="100" />
          <note key="55" pos="2016" pan="0" len="216" vol="100" />
          <note key="62" pos="2232" pan="0" len="72" vol="100" />
        </pattern>
        <pattern pos="258060" muted="0" steps="16" name="" type="1">
          <note key="55" pos="0" pan="0" len="768" vol="100" />
        </pattern>
      </track>
      <track solo="0" name="39 (Ch8)" type="0" muted="0">
        <instrumenttrack usemasterpitch="1" pitch="0.0" basenote="57" pan="0" pitchrange="12" vol="30">
          <eldata />
          <instrument name="tripleoscillator" />
        </instrumenttrack>
        <pattern pos="268044" muted="0" steps="16" name="" type="1">
          <note key="70" pos="24" pan="0" len="72" vol="100" />
          <note key="69" pos="96" pan="0" len="48" vol="100" />
          <note key="66" pos="144" pan="0" len="48" vol="100" />
          <note key="62" pos="192" pan="0" len="24" vol="100" />
          <note key="63" pos="216" pan="0" len="120" vol="100" />
          <note key="62" pos="336" pan="0" len="24" vol="100" />
          <note key="67" pos="360" pan="0" len="408" vol="100" />
        </pattern>
        <pattern pos="29184" muted="0" steps="16" name="" type="1">
          <note key="64" pos="48" pan="0" len="24" vol="100" />
          <note key="67" pos="72" pan="0" len="72" vol="100" />
          <note key="66" pos="144" pan="0" len="48" vol="100" />
          <note key="69" pos="192" pan="0" len="48" vol="100" />
          <note key="64" pos="240" pan="0" len="144" vol="100" />
          <note key="60" pos="384" pan="0" len="1152" vol="100" />
        </pattern>
        <pattern pos="36864" muted="0" steps="16" name="" type="1">
          <note key="64" pos="0" pan="0" len="48" vol="100" />
          <note key="67" pos="48" pan="0" len="96" vol="100" />
          <note key="69" pos="144" pan="0" len="48" vol="100" />
          <note key="66" pos="192" pan="0" len="144" vol="100" />
          <note key="62" pos="336" pan="0" len="48" vol="100" />
          <note key="64" pos="384" pan="0" len="72" vol="100" />
          <note key="60" pos="456" pan="0" len="312" vol="100" />
          <note key="64" pos="768" pan="0" len="48" vol="100" />
          <note key="67" pos="816" pan="0" len="96" vol="100" />
          <note key="66" pos="912" pan="0" len="48" vol="100" />
          <note key="69" pos="960" pan="0" len="144" vol="100" />
          <note key="71" pos="1104" pan="0" len="48" vol="100" />
          <note key="67" pos="1152" pan="0" len="72" vol="100" />
          <note key="64" pos="1224" pan="0" len="312" vol="100" />
        </pattern>
        <pattern pos="38400" muted="0" steps="16" name="" type="1">
          <note key="64" pos="0" pan="0" len="48" vol="100" />
          <note key="67" pos="48" pan="0" len="24" vol="100" />
          <note key="66" pos="168" pan="0" len="24" vol="100" />
          <note key="74" pos="192" pan="0" len="24" vol="100" />
          <note key="66" pos="288" pan="0" len="48" vol="100" />
          <note key="62" pos="336" pan="0" len="48" vol="100" />
          <note key="57" pos="384" pan="0" len="48" vol="100" />
          <note key="60" pos="432" pan="0" len="24" vol="100" />
          <note key="64" pos="480" pan="0" len="72" vol="100" />
          <note key="67" pos="552" pan="0" len="24" vol="100" />
          <note key="66" pos="576" pan="0" len="48" vol="100" />
          <note key="64" pos="768" pan="0" len="48" vol="100" />
          <note key="67" pos="816" pan="0" len="24" vol="100" />
          <note key="66" pos="936" pan="0" len="24" vol="100" />
          <note key="74" pos="960" pan="0" len="24" vol="100" />
          <note key="66" pos="1056" pan="0" len="48" vol="100" />
          <note key="62" pos="1104" pan="0" len="48" vol="100" />
          <note key="58" pos="1152" pan="0" len="48" vol="100" />
          <note key="63" pos="1200" pan="0" len="24" vol="100" />
          <note key="67" pos="1248" pan="0" len="72" vol="100" />
          <note key="70" pos="1320" pan="0" len="24" vol="100" />
          <note key="69" pos="1344" pan="0" len="48" vol="100" />
        </pattern>
        <pattern pos="43008" muted="0" steps="16" name="" type="1">
          <note key="64" pos="0" pan="0" len="48" vol="100" />
          <note key="67" pos="48" pan="0" len="96" vol="100" />
          <note key="69" pos="144" pan="0" len="48" vol="100" />
          <note key="66" pos="192" pan="0" len="144" vol="100" />
          <note key="62" pos="336" pan="0" len="48" vol="100" />
          <note key="64" pos="384" pan="0" len="72" vol="100" />
          <note key="60" pos="456" pan="0" len="312" vol="100" />
          <note key="64" pos="768" pan="0" len="48" vol="100" />
          <note key="67" pos="816" pan="0" len="96" vol="100" />
          <note key="66" pos="912" pan="0" len="48" vol="100" />
          <note key="69" pos="960" pan="0" len="144" vol="100" />
          <note key="71" pos="1104" pan="0" len="48" vol="100" />
          <note key="67" pos="1152" pan="0" len="72" vol="100" />
          <note key="64" pos="1224" pan="0" len="312" vol="100" />
        </pattern>
        <pattern pos="127500" muted="0" steps="16" name="" type="1">
          <note key="62" pos="384" pan="0" len="48" vol="100" />
          <note key="63" pos="432" pan="0" len="12" vol="100" />
          <note key="65" pos="444" pan="0" len="36" vol="100" />
          <note key="58" pos="480" pan="0" len="36" vol="100" />
          <note key="60" pos="516" pan="0" len="12" vol="100" />
          <note key="57" pos="528" pan="0" len="48" vol="100" />
          <note key="55" pos="576" pan="0" len="12" vol="100" />
          <note key="53" pos="588" pan="0" len="12" vol="100" />
          <note key="55" pos="600" pan="0" len="72" vol="100" />
          <note key="51" pos="672" pan="0" len="96" vol="100" />
          <note key="57" pos="768" pan="0" len="96" vol="100" />
          <note key="58" pos="864" pan="0" len="96" vol="100" />
          <note key="57" pos="960" pan="0" len="12" vol="100" />
          <note key="58" pos="972" pan="0" len="12" vol="100" />
          <note key="55" pos="984" pan="0" len="72" vol="100" />
          <note key="63" pos="1056" pan="0" len="12" vol="100" />
          <note key="65" pos="1068" pan="0" len="12" vol="100" />
          <note key="67" pos="1080" pan="0" len="72" vol="100" />
          <note key="65" pos="1152" pan="0" len="84" vol="100" />
          <note key="60" pos="1236" pan="0" len="12" vol="100" />
          <note key="63" pos="1248" pan="0" len="96" vol="100" />
          <note key="55" pos="1344" pan="0" len="96" vol="100" />
          <note key="51" pos="1440" pan="0" len="96" vol="100" />
        </pattern>
        <pattern pos="251148" muted="0" steps="16" name="" type="1">
          <note key="67" pos="864" pan="0" len="96" vol="100" />
          <note key="65" pos="960" pan="0" len="96" vol="100" />
          <note key="62" pos="1056" pan="0" len="96" vol="100" />
          <note key="55" pos="1152" pan="0" len="1056" vol="100" />
        </pattern>
        <pattern pos="262668" muted="0" steps="16" name="" type="1">
          <note key="67" pos="0" pan="0" len="72" vol="100" />
          <note key="65" pos="72" pan="0" len="72" vol="100" />
          <note key="62" pos="144" pan="0" len="144" vol="100" />
          <note key="65" pos="288" pan="0" len="72" vol="100" />
          <note key="58" pos="360" pan="0" len="72" vol="100" />
          <note key="57" pos="432" pan="0" len="12" vol="100" />
          <note key="58" pos="444" pan="0" len="12" vol="100" />
          <note key="57" pos="456" pan="0" len="72" vol="100" />
          <note key="55" pos="528" pan="0" len="48" vol="100" />
          <note key="62" pos="576" pan="0" len="240" vol="100" />
          <note key="65" pos="816" pan="0" len="48" vol="100" />
          <note key="58" pos="864" pan="0" len="288" vol="100" />
          <note key="67" pos="1152" pan="0" len="72" vol="100" />
          <note key="65" pos="1224" pan="0" len="72" vol="100" />
          <note key="62" pos="1296" pan="0" len="144" vol="100" />
          <note key="65" pos="1440" pan="0" len="72" vol="100" />
          <note key="58" pos="1512" pan="0" len="72" vol="100" />
          <note key="57" pos="1584" pan="0" len="12" vol="100" />
          <note key="58" pos="1596" pan="0" len="12" vol="100" />
          <note key="57" pos="1608" pan="0" len="72" vol="100" />
          <note key="53" pos="1680" pan="0" len="24" vol="100" />
          <note key="57" pos="1704" pan="0" len="24" vol="100" />
          <note key="55" pos="1728" pan="0" len="240" vol="100" />
          <note key="65" pos="1968" pan="0" len="48" vol="100" />
          <note key="55" pos="2016" pan="0" len="288" vol="100" />
        </pattern>
        <pattern pos="264972" muted="0" steps="16" name="" type="1">
          <note key="67" pos="0" pan="0" len="72" vol="100" />
          <note key="65" pos="72" pan="0" len="72" vol="100" />
          <note key="62" pos="144" pan="0" len="144" vol="100" />
          <note key="65" pos="288" pan="0" len="72" vol="100" />
          <note key="58" pos="360" pan="0" len="72" vol="100" />
          <note key="57" pos="432" pan="0" len="12" vol="100" />
          <note key="58" pos="444" pan="0" len="12" vol="100" />
          <note key="57" pos="456" pan="0" len="72" vol="100" />
          <note key="55" pos="528" pan="0" len="48" vol="100" />
          <note key="62" pos="576" pan="0" len="240" vol="100" />
          <note key="65" pos="816" pan="0" len="48" vol="100" />
          <note key="58" pos="864" pan="0" len="288" vol="100" />
          <note key="67" pos="1152" pan="0" len="72" vol="100" />
          <note key="65" pos="1224" pan="0" len="72" vol="100" />
          <note key="62" pos="1296" pan="0" len="144" vol="100" />
          <note key="65" pos="1440" pan="0" len="72" vol="100" />
          <note key="58" pos="1512" pan="0" len="72" vol="100" />
          <note key="57" pos="1584" pan="0" len="12" vol="100" />
          <note key="58" pos="1596" pan="0" len="12" vol="100" />
          <note key="57" pos="1608" pan="0" len="72" vol="100" />
          <note key="53" pos="1680" pan="0" len="24" vol="100" />
          <note key="57" pos="1704" pan="0" len="24" vol="100" />
          <note key="55" pos="1728" pan="0" len="240" vol="100" />
          <note key="65" pos="1968" pan="0" len="48" vol="100" />
          <note key="55" pos="2016" pan="0" len="288" vol="100" />
        </pattern>
      </track>
      <track solo="0" name="39 (Ch9)" type="0" muted="0">
        <instrumenttrack usemasterpitch="1" pitch="0.0" basenote="57" pan="0" pitchrange="12" vol="30">
          <eldata />
          <instrument name="tripleoscillator" />
        </instrumenttrack>
        <pattern pos="260364" muted="0" steps="16" name="" type="1">
          <note key="55" pos="0" pan="0" len="192" vol="100" />
          <note key="62" pos="192" pan="0" len="24" vol="100" />
          <note key="60" pos="216" pan="0" len="72" vol="100" />
          <note key="62" pos="288" pan="0" len="72" vol="100" />
          <note key="60" pos="360" pan="0" len="24" vol="100" />
          <note key="65" pos="384" pan="0" len="48" vol="100" />
          <note key="67" pos="432" pan="0" len="24" vol="100" />
          <note key="69" pos="456" pan="0" len="24" vol="100" />
          <note key="65" pos="480" pan="0" len="24" vol="100" />
          <note key="69" pos="504" pan="0" len="36" vol="100" />
          <note key="67" pos="576" pan="0" len="216" vol="100" />
          <note key="67" pos="792" pan="0" len="72" vol="100" />
          <note key="62" pos="864" pan="0" len="24" vol="100" />
          <note key="65" pos="888" pan="0" len="72" vol="100" />
          <note key="58" pos="960" pan="0" len="1344" vol="100" />
        </pattern>
        <pattern pos="95232" muted="0" steps="16" name="" type="1">
          <note key="38" pos="72" pan="0" len="48" vol="80" />
          <note key="45" pos="120" pan="0" len="48" vol="25" />
          <note key="53" pos="168" pan="0" len="48" vol="38" />
          <note key="45" pos="216" pan="0" len="48" vol="80" />
          <note key="52" pos="264" pan="0" len="48" vol="80" />
          <note key="48" pos="312" pan="0" len="48" vol="25" />
          <note key="43" pos="360" pan="0" len="48" vol="50" />
          <note key="50" pos="408" pan="0" len="48" vol="80" />
          <note key="46" pos="456" pan="0" len="48" vol="80" />
          <note key="41" pos="504" pan="0" len="48" vol="38" />
          <note key="50" pos="552" pan="0" len="48" vol="80" />
          <note key="43" pos="600" pan="0" len="48" vol="50" />
          <note key="40" pos="648" pan="0" len="48" vol="72" />
          <note key="48" pos="696" pan="0" len="48" vol="80" />
          <note key="43" pos="744" pan="0" len="48" vol="25" />
          <note key="36" pos="792" pan="0" len="48" vol="38" />
          <note key="38" pos="840" pan="0" len="48" vol="80" />
          <note key="45" pos="888" pan="0" len="48" vol="25" />
          <note key="53" pos="936" pan="0" len="48" vol="38" />
          <note key="45" pos="984" pan="0" len="48" vol="80" />
          <note key="52" pos="1032" pan="0" len="48" vol="80" />
          <note key="48" pos="1080" pan="0" len="48" vol="25" />
          <note key="43" pos="1128" pan="0" len="48" vol="50" />
          <note key="50" pos="1176" pan="0" len="48" vol="80" />
          <note key="46" pos="1224" pan="0" len="48" vol="80" />
          <note key="41" pos="1272" pan="0" len="48" vol="38" />
          <note key="50" pos="1320" pan="0" len="48" vol="80" />
          <note key="43" pos="1368" pan="0" len="48" vol="50" />
          <note key="40" pos="1416" pan="0" len="48" vol="72" />
          <note key="48" pos="1464" pan="0" len="48" vol="80" />
          <note key="43" pos="1512" pan="0" len="48" vol="25" />
          <note key="36" pos="1560" pan="0" len="48" vol="38" />
          <note key="62" pos="1608" pan="0" len="48" vol="80" />
          <note key="45" pos="1656" pan="0" len="48" vol="25" />
          <note key="53" pos="1704" pan="0" len="48" vol="38" />
          <note key="45" pos="1752" pan="0" len="48" vol="80" />
          <note key="52" pos="1800" pan="0" len="48" vol="80" />
          <note key="48" pos="1848" pan="0" len="48" vol="25" />
          <note key="43" pos="1896" pan="0" len="48" vol="50" />
          <note key="50" pos="1944" pan="0" len="48" vol="80" />
          <note key="46" pos="1992" pan="0" len="48" vol="80" />
          <note key="41" pos="2040" pan="0" len="48" vol="38" />
          <note key="50" pos="2088" pan="0" len="48" vol="80" />
          <note key="43" pos="2136" pan="0" len="48" vol="50" />
          <note key="40" pos="2184" pan="0" len="48" vol="72" />
          <note key="48" pos="2232" pan="0" len="48" vol="80" />
          <note key="43" pos="2280" pan="0" len="24" vol="25" />
        </pattern>
      </track>
      <track solo="0" name="39 (Ch10)" type="0" muted="0">
        <instrumenttrack usemasterpitch="1" pitch="0.0" basenote="57" pan="0" pitchrange="12" vol="30">
          <eldata />
          <instrument name="tripleoscillator" />
        </instrumenttrack>
        <pattern pos="153612" muted="0" steps="16" name="" type="1">
          <note key="56" pos="0" pan="0" len="24" vol="31" />
          <note key="48" pos="24" pan="0" len="24" vol="47" />
          <note key="51" pos="48" pan="0" len="24" vol="100" />
          <note key="60" pos="72" pan="0" len="24" vol="47" />
          <note key="58" pos="96" pan="0" len="24" vol="100" />
          <note key="51" pos="120" pan="0" len="24" vol="47" />
          <note key="49" pos="144" pan="0" len="24" vol="100" />
          <note key="61" pos="168" pan="0" len="24" vol="62" />
          <note key="56" pos="192" pan="0" len="24" vol="31" />
          <note key="51" pos="216" pan="0" len="24" vol="47" />
          <note key="48" pos="240" pan="0" len="24" vol="100" />
          <note key="60" pos="264" pan="0" len="24" vol="47" />
          <note key="63" pos="288" pan="0" len="24" vol="100" />
          <note key="51" pos="312" pan="0" len="24" vol="47" />
          <note key="58" pos="336" pan="0" len="24" vol="100" />
          <note key="60" pos="360" pan="0" len="24" vol="62" />
          <note key="54" pos="384" pan="0" len="24" vol="31" />
          <note key="49" pos="408" pan="0" len="24" vol="47" />
          <note key="46" pos="432" pan="0" len="24" vol="100" />
          <note key="58" pos="456" pan="0" len="24" vol="47" />
          <note key="54" pos="480" pan="0" len="24" vol="100" />
          <note key="49" pos="504" pan="0" len="24" vol="47" />
          <note key="61" pos="528" pan="0" len="24" vol="100" />
          <note key="56" pos="552" pan="0" len="24" vol="62" />
          <note key="42" pos="576" pan="0" len="24" vol="31" />
          <note key="49" pos="600" pan="0" len="24" vol="47" />
          <note key="48" pos="624" pan="0" len="24" vol="100" />
          <note key="42" pos="648" pan="0" len="24" vol="47" />
          <note key="58" pos="672" pan="0" len="24" vol="100" />
          <note key="56" pos="696" pan="0" len="24" vol="47" />
          <note key="54" pos="720" pan="0" len="24" vol="100" />
          <note key="56" pos="744" pan="0" len="24" vol="31" />
          <note key="56" pos="768" pan="0" len="24" vol="31" />
          <note key="48" pos="792" pan="0" len="24" vol="47" />
          <note key="51" pos="816" pan="0" len="24" vol="100" />
          <note key="60" pos="840" pan="0" len="24" vol="47" />
          <note key="58" pos="864" pan="0" len="24" vol="100" />
          <note key="51" pos="888" pan="0" len="24" vol="47" />
          <note key="49" pos="912" pan="0" len="24" vol="100" />
          <note key="61" pos="936" pan="0" len="24" vol="62" />
          <note key="56" pos="960" pan="0" len="24" vol="31" />
          <note key="51" pos="984" pan="0" len="24" vol="47" />
          <note key="48" pos="1008" pan="0" len="24" vol="100" />
          <note key="60" pos="1032" pan="0" len="24" vol="47" />
          <note key="63" pos="1056" pan="0" len="24" vol="100" />
          <note key="51" pos="1080" pan="0" len="24" vol="47" />
          <note key="58" pos="1104" pan="0" len="24" vol="100" />
          <note key="60" pos="1128" pan="0" len="24" vol="62" />
          <note key="54" pos="1152" pan="0" len="24" vol="31" />
          <note key="49" pos="1176" pan="0" len="24" vol="47" />
          <note key="46" pos="1200" pan="0" len="24" vol="100" />
          <note key="58" pos="1224" pan="0" len="24" vol="47" />
          <note key="54" pos="1248" pan="0" len="24" vol="100" />
          <note key="49" pos="1272" pan="0" len="24" vol="47" />
          <note key="61" pos="1296" pan="0" len="24" vol="100" />
          <note key="56" pos="1320" pan="0" len="24" vol="62" />
          <note key="42" pos="1344" pan="0" len="24" vol="31" />
          <note key="49" pos="1368" pan="0" len="24" vol="47" />
          <note key="48" pos="1392" pan="0" len="24" vol="100" />
          <note key="42" pos="1416" pan="0" len="24" vol="47" />
          <note key="58" pos="1440" pan="0" len="24" vol="100" />
          <note key="56" pos="1464" pan="0" len="24" vol="47" />
          <note key="54" pos="1488" pan="0" len="24" vol="100" />
          <note key="56" pos="1512" pan="0" len="24" vol="31" />
        </pattern>
        <pattern pos="58752" muted="0" steps="16" name="" type="1">
          <note key="65" pos="0" pan="0" len="24" vol="100" />
          <note key="64" pos="24" pan="0" len="12" vol="100" />
          <note key="65" pos="36" pan="0" len="60" vol="100" />
          <note key="64" pos="96" pan="0" len="24" vol="100" />
          <note key="65" pos="120" pan="0" len="24" vol="100" />
          <note key="67" pos="144" pan="0" len="24" vol="100" />
          <note key="60" pos="168" pan="0" len="12" vol="100" />
          <note key="59" pos="180" pan="0" len="60" vol="100" />
          <note key="62" pos="240" pan="0" len="24" vol="100" />
          <note key="64" pos="264" pan="0" len="24" vol="100" />
          <note key="65" pos="288" pan="0" len="24" vol="100" />
          <note key="64" pos="312" pan="0" len="12" vol="100" />
          <note key="65" pos="324" pan="0" len="60" vol="100" />
          <note key="64" pos="384" pan="0" len="24" vol="100" />
          <note key="65" pos="408" pan="0" len="24" vol="100" />
          <note key="67" pos="432" pan="0" len="72" vol="100" />
          <note key="57" pos="504" pan="0" len="72" vol="100" />
          <note key="69" pos="576" pan="0" len="24" vol="100" />
          <note key="65" pos="600" pan="0" len="12" vol="100" />
          <note key="69" pos="612" pan="0" len="60" vol="100" />
          <note key="65" pos="672" pan="0" len="24" vol="100" />
          <note key="69" pos="696" pan="0" len="24" vol="100" />
          <note key="67" pos="720" pan="0" len="24" vol="100" />
          <note key="64" pos="744" pan="0" len="12" vol="100" />
          <note key="67" pos="756" pan="0" len="60" vol="100" />
          <note key="65" pos="816" pan="0" len="24" vol="100" />
          <note key="64" pos="840" pan="0" len="24" vol="100" />
          <note key="62" pos="864" pan="0" len="216" vol="100" />
          <note key="65" pos="1080" pan="0" len="24" vol="100" />
          <note key="64" pos="1104" pan="0" len="24" vol="100" />
          <note key="60" pos="1128" pan="0" len="24" vol="100" />
        </pattern>
        <pattern pos="59904" muted="0" steps="16" name="" type="1">
          <note key="65" pos="0" pan="0" len="24" vol="100" />
          <note key="64" pos="24" pan="0" len="12" vol="100" />
          <note key="65" pos="36" pan="0" len="60" vol="100" />
          <note key="64" pos="96" pan="0" len="24" vol="100" />
          <note key="65" pos="120" pan="0" len="24" vol="100" />
          <note key="67" pos="144" pan="0" len="24" vol="100" />
          <note key="60" pos="168" pan="0" len="12" vol="100" />
          <note key="59" pos="180" pan="0" len="60" vol="100" />
          <note key="62" pos="240" pan="0" len="24" vol="100" />
          <note key="64" pos="264" pan="0" len="24" vol="100" />
          <note key="65" pos="288" pan="0" len="24" vol="100" />
          <note key="64" pos="312" pan="0" len="12" vol="100" />
          <note key="65" pos="324" pan="0" len="60" vol="100" />
          <note key="64" pos="384" pan="0" len="24" vol="100" />
          <note key="65" pos="408" pan="0" len="24" vol="100" />
          <note key="67" pos="432" pan="0" len="144" vol="100" />
          <note key="69" pos="576" pan="0" len="24" vol="100" />
          <note key="65" pos="600" pan="0" len="12" vol="100" />
          <note key="69" pos="612" pan="0" len="60" vol="100" />
          <note key="65" pos="672" pan="0" len="24" vol="100" />
          <note key="69" pos="696" pan="0" len="24" vol="100" />
          <note key="67" pos="720" pan="0" len="24" vol="100" />
          <note key="64" pos="744" pan="0" len="12" vol="100" />
          <note key="67" pos="756" pan="0" len="60" vol="100" />
          <note key="65" pos="816" pan="0" len="24" vol="100" />
          <note key="64" pos="840" pan="0" len="24" vol="100" />
          <note key="62" pos="864" pan="0" len="216" vol="100" />
          <note key="65" pos="1080" pan="0" len="24" vol="100" />
          <note key="64" pos="1104" pan="0" len="24" vol="100" />
          <note key="60" pos="1128" pan="0" len="24" vol="100" />
        </pattern>
        <pattern pos="62208" muted="0" steps="16" name="" type="1">
          <note key="58" pos="0" pan="0" len="24" vol="100" />
          <note key="57" pos="24" pan="0" len="12" vol="100" />
          <note key="58" pos="36" pan="0" len="60" vol="100" />
          <note key="60" pos="96" pan="0" len="48" vol="100" />
          <note key="62" pos="144" pan="0" len="24" vol="100" />
          <note key="60" pos="168" pan="0" len="12" vol="100" />
          <note key="62" pos="180" pan="0" len="60" vol="100" />
          <note key="65" pos="240" pan="0" len="12" vol="100" />
          <note key="62" pos="252" pan="0" len="36" vol="100" />
          <note key="64" pos="288" pan="0" len="24" vol="100" />
          <note key="62" pos="312" pan="0" len="12" vol="100" />
          <note key="64" pos="324" pan="0" len="108" vol="100" />
          <note key="65" pos="432" pan="0" len="72" vol="100" />
          <note key="64" pos="504" pan="0" len="72" vol="100" />
          <note key="65" pos="576" pan="0" len="24" vol="100" />
          <note key="62" pos="600" pan="0" len="12" vol="100" />
          <note key="65" pos="612" pan="0" len="60" vol="100" />
          <note key="67" pos="672" pan="0" len="48" vol="100" />
          <note key="69" pos="720" pan="0" len="24" vol="100" />
          <note key="65" pos="744" pan="0" len="12" vol="100" />
          <note key="69" pos="756" pan="0" len="60" vol="100" />
          <note key="65" pos="816" pan="0" len="48" vol="100" />
          <note key="64" pos="864" pan="0" len="24" vol="100" />
          <note key="60" pos="888" pan="0" len="12" vol="100" />
          <note key="64" pos="900" pan="0" len="60" vol="100" />
          <note key="67" pos="960" pan="0" len="48" vol="100" />
          <note key="72" pos="1008" pan="0" len="24" vol="100" />
          <note key="70" pos="1032" pan="0" len="24" vol="100" />
          <note key="69" pos="1056" pan="0" len="24" vol="100" />
          <note key="67" pos="1080" pan="0" len="24" vol="100" />
          <note key="65" pos="1104" pan="0" len="24" vol="100" />
          <note key="64" pos="1128" pan="0" len="24" vol="100" />
        </pattern>
        <pattern pos="63360" muted="0" steps="16" name="" type="1">
          <note key="62" pos="0" pan="0" len="72" vol="100" />
          <note key="65" pos="72" pan="0" len="24" vol="100" />
          <note key="62" pos="96" pan="0" len="12" vol="100" />
          <note key="65" pos="108" pan="0" len="24" vol="100" />
          <note key="67" pos="132" pan="0" len="12" vol="100" />
          <note key="69" pos="144" pan="0" len="24" vol="100" />
          <note key="65" pos="168" pan="0" len="12" vol="100" />
          <note key="69" pos="180" pan="0" len="24" vol="100" />
          <note key="67" pos="204" pan="0" len="36" vol="100" />
          <note key="69" pos="240" pan="0" len="36" vol="100" />
          <note key="67" pos="276" pan="0" len="12" vol="100" />
          <note key="62" pos="288" pan="0" len="72" vol="100" />
          <note key="65" pos="360" pan="0" len="24" vol="100" />
          <note key="62" pos="384" pan="0" len="12" vol="100" />
          <note key="65" pos="396" pan="0" len="24" vol="100" />
          <note key="67" pos="420" pan="0" len="12" vol="100" />
          <note key="69" pos="432" pan="0" len="24" vol="100" />
          <note key="69" pos="456" pan="0" len="24" vol="100" />
          <note key="70" pos="480" pan="0" len="24" vol="100" />
          <note key="67" pos="504" pan="0" len="24" vol="100" />
          <note key="69" pos="528" pan="0" len="36" vol="100" />
          <note key="67" pos="564" pan="0" len="12" vol="100" />
          <note key="62" pos="576" pan="0" len="72" vol="100" />
          <note key="65" pos="648" pan="0" len="48" vol="100" />
          <note key="72" pos="696" pan="0" len="24" vol="100" />
          <note key="72" pos="720" pan="0" len="24" vol="100" />
          <note key="70" pos="744" pan="0" len="24" vol="100" />
          <note key="69" pos="768" pan="0" len="24" vol="100" />
          <note key="67" pos="792" pan="0" len="48" vol="100" />
          <note key="72" pos="840" pan="0" len="24" vol="100" />
          <note key="72" pos="864" pan="0" len="24" vol="100" />
          <note key="70" pos="888" pan="0" len="24" vol="100" />
          <note key="69" pos="912" pan="0" len="24" vol="100" />
          <note key="67" pos="936" pan="0" len="24" vol="100" />
          <note key="65" pos="960" pan="0" len="24" vol="100" />
          <note key="64" pos="984" pan="0" len="24" vol="100" />
          <note key="62" pos="1008" pan="0" len="72" vol="100" />
          <note key="65" pos="1080" pan="0" len="24" vol="100" />
          <note key="64" pos="1104" pan="0" len="24" vol="100" />
          <note key="60" pos="1128" pan="0" len="24" vol="100" />
        </pattern>
        <pattern pos="145932" muted="0" steps="16" name="" type="1">
          <note key="56" pos="0" pan="0" len="24" vol="31" />
          <note key="48" pos="24" pan="0" len="24" vol="47" />
          <note key="51" pos="48" pan="0" len="24" vol="100" />
          <note key="60" pos="72" pan="0" len="24" vol="47" />
          <note key="58" pos="96" pan="0" len="24" vol="100" />
          <note key="51" pos="120" pan="0" len="24" vol="47" />
          <note key="49" pos="144" pan="0" len="24" vol="100" />
          <note key="61" pos="168" pan="0" len="24" vol="62" />
          <note key="56" pos="192" pan="0" len="24" vol="31" />
          <note key="51" pos="216" pan="0" len="24" vol="47" />
          <note key="48" pos="240" pan="0" len="24" vol="100" />
          <note key="60" pos="264" pan="0" len="24" vol="47" />
          <note key="63" pos="288" pan="0" len="24" vol="100" />
          <note key="51" pos="312" pan="0" len="24" vol="47" />
          <note key="58" pos="336" pan="0" len="24" vol="100" />
          <note key="60" pos="360" pan="0" len="24" vol="62" />
          <note key="54" pos="384" pan="0" len="24" vol="31" />
          <note key="49" pos="408" pan="0" len="24" vol="47" />
          <note key="46" pos="432" pan="0" len="24" vol="100" />
          <note key="58" pos="456" pan="0" len="24" vol="47" />
          <note key="54" pos="480" pan="0" len="24" vol="100" />
          <note key="49" pos="504" pan="0" len="24" vol="47" />
          <note key="61" pos="528" pan="0" len="24" vol="100" />
          <note key="56" pos="552" pan="0" len="24" vol="62" />
          <note key="42" pos="576" pan="0" len="24" vol="31" />
          <note key="49" pos="600" pan="0" len="24" vol="47" />
          <note key="48" pos="624" pan="0" len="24" vol="100" />
          <note key="42" pos="648" pan="0" len="24" vol="47" />
          <note key="58" pos="672" pan="0" len="24" vol="100" />
          <note key="56" pos="696" pan="0" len="24" vol="47" />
          <note key="54" pos="720" pan="0" len="24" vol="100" />
          <note key="56" pos="744" pan="0" len="24" vol="31" />
          <note key="56" pos="768" pan="0" len="24" vol="31" />
          <note key="48" pos="792" pan="0" len="24" vol="47" />
          <note key="51" pos="816" pan="0" len="24" vol="100" />
          <note key="60" pos="840" pan="0" len="24" vol="47" />
          <note key="58" pos="864" pan="0" len="24" vol="100" />
          <note key="51" pos="888" pan="0" len="24" vol="47" />
          <note key="49" pos="912" pan="0" len="24" vol="100" />
          <note key="61" pos="936" pan="0" len="24" vol="62" />
          <note key="56" pos="960" pan="0" len="24" vol="31" />
          <note key="51" pos="984" pan="0" len="24" vol="47" />
          <note key="48" pos="1008" pan="0" len="24" vol="100" />
          <note key="60" pos="1032" pan="0" len="24" vol="47" />
          <note key="63" pos="1056" pan="0" len="24" vol="100" />
          <note key="51" pos="1080" pan="0" len="24" vol="47" />
          <note key="58" pos="1104" pan="0" len="24" vol="100" />
          <note key="60" pos="1128" pan="0" len="24" vol="62" />
          <note key="54" pos="1152" pan="0" len="24" vol="31" />
          <note key="49" pos="1176" pan="0" len="24" vol="47" />
          <note key="46" pos="1200" pan="0" len="24" vol="100" />
          <note key="58" pos="1224" pan="0" len="24" vol="47" />
          <note key="54" pos="1248" pan="0" len="24" vol="100" />
          <note key="49" pos="1272" pan="0" len="24" vol="47" />
          <note key="61" pos="1296" pan="0" len="24" vol="100" />
          <note key="56" pos="1320" pan="0" len="24" vol="62" />
          <note key="42" pos="1344" pan="0" len="24" vol="31" />
          <note key="49" pos="1368" pan="0" len="24" vol="47" />
          <note key="48" pos="1392" pan="0" len="24" vol="100" />
          <note key="42" pos="1416" pan="0" len="24" vol="47" />
          <note key="58" pos="1440" pan="0" len="24" vol="100" />
          <note key="56" pos="1464" pan="0" len="24" vol="47" />
          <note key="54" pos="1488" pan="0" len="24" vol="100" />
          <note key="56" pos="1512" pan="0" len="24" vol="31" />
        </pattern>
      </track>
      <track solo="0" name="39 (Ch11)" type="0" muted="0">
        <instrumenttrack usemasterpitch="1" pitch="0.0" basenote="57" pan="0" pitchrange="12" vol="30">
          <eldata />
          <instrument name="tripleoscillator" />
        </instrumenttrack>
        <pattern pos="236556" muted="0" steps="16" name="" type="1">
          <note key="63" pos="192" pan="0" len="72" vol="100" />
          <note key="62" pos="264" pan="0" len="96" vol="100" />
          <note key="60" pos="360" pan="0" len="24" vol="100" />
          <note key="58" pos="384" pan="0" len="288" vol="100" />
        </pattern>
        <pattern pos="145932" muted="0" steps="16" name="" type="1">
          <note key="56" pos="36" pan="0" len="24" vol="16" />
          <note key="48" pos="60" pan="0" len="24" vol="23" />
          <note key="51" pos="84" pan="0" len="24" vol="50" />
          <note key="60" pos="108" pan="0" len="24" vol="23" />
          <note key="58" pos="132" pan="0" len="24" vol="50" />
          <note key="51" pos="156" pan="0" len="24" vol="23" />
          <note key="49" pos="180" pan="0" len="24" vol="50" />
          <note key="61" pos="204" pan="0" len="24" vol="31" />
          <note key="56" pos="228" pan="0" len="24" vol="16" />
          <note key="51" pos="252" pan="0" len="24" vol="23" />
          <note key="48" pos="276" pan="0" len="24" vol="50" />
          <note key="60" pos="300" pan="0" len="24" vol="23" />
          <note key="63" pos="324" pan="0" len="24" vol="50" />
          <note key="51" pos="348" pan="0" len="24" vol="23" />
          <note key="58" pos="372" pan="0" len="24" vol="50" />
          <note key="60" pos="396" pan="0" len="24" vol="31" />
          <note key="54" pos="420" pan="0" len="24" vol="16" />
          <note key="49" pos="444" pan="0" len="24" vol="23" />
          <note key="46" pos="468" pan="0" len="24" vol="50" />
          <note key="58" pos="492" pan="0" len="24" vol="23" />
          <note key="54" pos="516" pan="0" len="24" vol="50" />
          <note key="49" pos="540" pan="0" len="24" vol="23" />
          <note key="61" pos="564" pan="0" len="24" vol="50" />
          <note key="56" pos="588" pan="0" len="24" vol="31" />
          <note key="42" pos="612" pan="0" len="24" vol="16" />
          <note key="49" pos="636" pan="0" len="24" vol="23" />
          <note key="48" pos="660" pan="0" len="24" vol="50" />
          <note key="42" pos="684" pan="0" len="24" vol="23" />
          <note key="58" pos="708" pan="0" len="24" vol="50" />
          <note key="56" pos="732" pan="0" len="24" vol="23" />
          <note key="54" pos="756" pan="0" len="24" vol="50" />
          <note key="56" pos="780" pan="0" len="24" vol="16" />
          <note key="48" pos="804" pan="0" len="24" vol="23" />
          <note key="51" pos="828" pan="0" len="24" vol="50" />
          <note key="60" pos="852" pan="0" len="24" vol="23" />
          <note key="58" pos="876" pan="0" len="24" vol="50" />
          <note key="51" pos="900" pan="0" len="24" vol="23" />
          <note key="49" pos="924" pan="0" len="24" vol="50" />
          <note key="61" pos="948" pan="0" len="24" vol="31" />
          <note key="56" pos="972" pan="0" len="24" vol="16" />
          <note key="51" pos="996" pan="0" len="24" vol="23" />
          <note key="48" pos="1020" pan="0" len="24" vol="50" />
          <note key="60" pos="1044" pan="0" len="24" vol="23" />
          <note key="63" pos="1068" pan="0" len="24" vol="50" />
          <note key="51" pos="1092" pan="0" len="24" vol="23" />
          <note key="58" pos="1116" pan="0" len="24" vol="50" />
          <note key="60" pos="1140" pan="0" len="24" vol="31" />
          <note key="54" pos="1164" pan="0" len="24" vol="16" />
          <note key="49" pos="1188" pan="0" len="24" vol="23" />
          <note key="46" pos="1212" pan="0" len="24" vol="50" />
          <note key="58" pos="1236" pan="0" len="24" vol="23" />
          <note key="54" pos="1260" pan="0" len="24" vol="50" />
          <note key="49" pos="1284" pan="0" len="24" vol="23" />
          <note key="61" pos="1308" pan="0" len="24" vol="50" />
          <note key="56" pos="1332" pan="0" len="24" vol="31" />
          <note key="42" pos="1356" pan="0" len="24" vol="16" />
          <note key="49" pos="1380" pan="0" len="24" vol="23" />
          <note key="48" pos="1404" pan="0" len="24" vol="50" />
          <note key="42" pos="1428" pan="0" len="24" vol="23" />
          <note key="58" pos="1452" pan="0" len="24" vol="50" />
          <note key="56" pos="1476" pan="0" len="24" vol="23" />
          <note key="54" pos="1500" pan="0" len="24" vol="50" />
          <note key="56" pos="1524" pan="0" len="12" vol="16" />
        </pattern>
        <pattern pos="153612" muted="0" steps="16" name="" type="1">
          <note key="56" pos="36" pan="0" len="24" vol="16" />
          <note key="48" pos="60" pan="0" len="24" vol="23" />
          <note key="51" pos="84" pan="0" len="24" vol="50" />
          <note key="60" pos="108" pan="0" len="24" vol="23" />
          <note key="58" pos="132" pan="0" len="24" vol="50" />
          <note key="51" pos="156" pan="0" len="24" vol="23" />
          <note key="49" pos="180" pan="0" len="24" vol="50" />
          <note key="61" pos="204" pan="0" len="24" vol="31" />
          <note key="56" pos="228" pan="0" len="24" vol="16" />
          <note key="51" pos="252" pan="0" len="24" vol="23" />
          <note key="48" pos="276" pan="0" len="24" vol="50" />
          <note key="60" pos="300" pan="0" len="24" vol="23" />
          <note key="63" pos="324" pan="0" len="24" vol="50" />
          <note key="51" pos="348" pan="0" len="24" vol="23" />
          <note key="58" pos="372" pan="0" len="24" vol="50" />
          <note key="60" pos="396" pan="0" len="24" vol="31" />
          <note key="54" pos="420" pan="0" len="24" vol="16" />
          <note key="49" pos="444" pan="0" len="24" vol="23" />
          <note key="46" pos="468" pan="0" len="24" vol="50" />
          <note key="58" pos="492" pan="0" len="24" vol="23" />
          <note key="54" pos="516" pan="0" len="24" vol="50" />
          <note key="49" pos="540" pan="0" len="24" vol="23" />
          <note key="61" pos="564" pan="0" len="24" vol="50" />
          <note key="56" pos="588" pan="0" len="24" vol="31" />
          <note key="42" pos="612" pan="0" len="24" vol="16" />
          <note key="49" pos="636" pan="0" len="24" vol="23" />
          <note key="48" pos="660" pan="0" len="24" vol="50" />
          <note key="42" pos="684" pan="0" len="24" vol="23" />
          <note key="58" pos="708" pan="0" len="24" vol="50" />
          <note key="56" pos="732" pan="0" len="24" vol="23" />
          <note key="54" pos="756" pan="0" len="24" vol="50" />
          <note key="56" pos="780" pan="0" len="24" vol="16" />
          <note key="48" pos="804" pan="0" len="24" vol="23" />
          <note key="51" pos="828" pan="0" len="24" vol="50" />
          <note key="60" pos="852" pan="0" len="24" vol="23" />
          <note key="58" pos="876" pan="0" len="24" vol="50" />
          <note key="51" pos="900" pan="0" len="24" vol="23" />
          <note key="49" pos="924" pan="0" len="24" vol="50" />
          <note key="61" pos="948" pan="0" len="24" vol="31" />
          <note key="56" pos="972" pan="0" len="24" vol="16" />
          <note key="51" pos="996" pan="0" len="24" vol="23" />
          <note key="48" pos="1020" pan="0" len="24" vol="50" />
          <note key="60" pos="1044" pan="0" len="24" vol="23" />
          <note key="63" pos="1068" pan="0" len="24" vol="50" />
          <note key="51" pos="1092" pan="0" len="24" vol="23" />
          <note key="58" pos="1116" pan="0" len="24" vol="50" />
          <note key="60" pos="1140" pan="0" len="24" vol="31" />
          <note key="54" pos="1164" pan="0" len="24" vol="16" />
          <note key="49" pos="1188" pan="0" len="24" vol="23" />
          <note key="46" pos="1212" pan="0" len="24" vol="50" />
          <note key="58" pos="1236" pan="0" len="24" vol="23" />
          <note key="54" pos="1260" pan="0" len="24" vol="50" />
          <note key="49" pos="1284" pan="0" len="24" vol="23" />
          <note key="61" pos="1308" pan="0" len="24" vol="50" />
          <note key="56" pos="1332" pan="0" len="24" vol="31" />
          <note key="42" pos="1356" pan="0" len="24" vol="16" />
          <note key="49" pos="1380" pan="0" len="24" vol="23" />
          <note key="48" pos="1404" pan="0" len="24" vol="50" />
          <note key="42" pos="1428" pan="0" len="24" vol="23" />
          <note key="58" pos="1452" pan="0" len="24" vol="50" />
          <note key="56" pos="1476" pan="0" len="24" vol="23" />
          <note key="54" pos="1500" pan="0" len="24" vol="50" />
          <note key="56" pos="1524" pan="0" len="12" vol="16" />
        </pattern>
        <pattern pos="169740" muted="0" steps="16" name="" type="1">
          <note key="67" pos="2112" pan="0" len="36" vol="100" />
          <note key="66" pos="2148" pan="0" len="36" vol="100" />
          <note key="69" pos="2184" pan="0" len="24" vol="100" />
          <note key="64" pos="2208" pan="0" len="84" vol="100" />
        </pattern>
      </track>
      <track solo="0" name="39 (Ch12)" type="0" muted="0">
        <instrumenttrack usemasterpitch="1" pitch="0.0" basenote="57" pan="0" pitchrange="12" vol="30">
          <eldata />
          <instrument name="tripleoscillator" />
        </instrumenttrack>
        <pattern pos="231948" muted="0" steps="16" name="" type="1">
          <note key="65" pos="48" pan="0" len="24" vol="100" />
          <note key="65" pos="120" pan="0" len="48" vol="100" />
          <note key="58" pos="312" pan="0" len="24" vol="100" />
          <note key="56" pos="336" pan="0" len="36" vol="100" />
          <note key="61" pos="432" pan="0" len="24" vol="100" />
          <note key="61" pos="504" pan="0" len="48" vol="100" />
          <note key="65" pos="696" pan="0" len="24" vol="100" />
          <note key="63" pos="720" pan="0" len="48" vol="100" />
          <note key="70" pos="816" pan="0" len="24" vol="100" />
          <note key="70" pos="888" pan="0" len="48" vol="100" />
          <note key="70" pos="1080" pan="0" len="24" vol="100" />
          <note key="65" pos="1104" pan="0" len="48" vol="100" />
          <note key="66" pos="1200" pan="0" len="24" vol="100" />
          <note key="66" pos="1272" pan="0" len="48" vol="100" />
          <note key="63" pos="1464" pan="0" len="24" vol="100" />
          <note key="60" pos="1488" pan="0" len="48" vol="100" />
        </pattern>
        <pattern pos="6144" muted="0" steps="16" name="" type="1">
          <note key="62" pos="24" pan="0" len="24" vol="100" />
          <note key="63" pos="48" pan="0" len="48" vol="100" />
          <note key="65" pos="96" pan="0" len="24" vol="100" />
          <note key="63" pos="120" pan="0" len="24" vol="100" />
          <note key="62" pos="144" pan="0" len="24" vol="100" />
          <note key="63" pos="168" pan="0" len="48" vol="100" />
          <note key="62" pos="216" pan="0" len="24" vol="100" />
          <note key="63" pos="240" pan="0" len="48" vol="100" />
          <note key="65" pos="288" pan="0" len="24" vol="100" />
          <note key="63" pos="312" pan="0" len="24" vol="100" />
          <note key="62" pos="336" pan="0" len="24" vol="100" />
          <note key="63" pos="360" pan="0" len="48" vol="100" />
          <note key="63" pos="408" pan="0" len="24" vol="100" />
          <note key="65" pos="432" pan="0" len="48" vol="100" />
          <note key="67" pos="480" pan="0" len="24" vol="100" />
          <note key="65" pos="504" pan="0" len="24" vol="100" />
          <note key="63" pos="528" pan="0" len="24" vol="100" />
          <note key="65" pos="552" pan="0" len="48" vol="100" />
          <note key="65" pos="600" pan="0" len="24" vol="100" />
          <note key="67" pos="624" pan="0" len="48" vol="100" />
          <note key="68" pos="672" pan="0" len="24" vol="100" />
          <note key="67" pos="696" pan="0" len="24" vol="100" />
          <note key="68" pos="720" pan="0" len="24" vol="100" />
          <note key="70" pos="744" pan="0" len="24" vol="100" />
        </pattern>
        <pattern pos="155148" muted="0" steps="16" name="" type="1">
          <note key="56" pos="0" pan="0" len="24" vol="31" />
          <note key="48" pos="24" pan="0" len="24" vol="47" />
          <note key="51" pos="48" pan="0" len="24" vol="100" />
          <note key="60" pos="72" pan="0" len="24" vol="47" />
          <note key="58" pos="96" pan="0" len="24" vol="100" />
          <note key="51" pos="120" pan="0" len="24" vol="47" />
          <note key="49" pos="144" pan="0" len="24" vol="100" />
          <note key="61" pos="168" pan="0" len="24" vol="62" />
          <note key="56" pos="192" pan="0" len="24" vol="31" />
          <note key="51" pos="216" pan="0" len="24" vol="47" />
          <note key="48" pos="240" pan="0" len="24" vol="100" />
          <note key="60" pos="264" pan="0" len="24" vol="47" />
          <note key="63" pos="288" pan="0" len="24" vol="100" />
          <note key="51" pos="312" pan="0" len="24" vol="47" />
          <note key="58" pos="336" pan="0" len="24" vol="100" />
          <note key="60" pos="360" pan="0" len="24" vol="62" />
          <note key="54" pos="384" pan="0" len="24" vol="31" />
          <note key="49" pos="408" pan="0" len="24" vol="47" />
          <note key="46" pos="432" pan="0" len="24" vol="100" />
          <note key="58" pos="456" pan="0" len="24" vol="47" />
          <note key="54" pos="480" pan="0" len="24" vol="100" />
          <note key="49" pos="504" pan="0" len="24" vol="47" />
          <note key="61" pos="528" pan="0" len="24" vol="100" />
          <note key="56" pos="552" pan="0" len="24" vol="62" />
          <note key="42" pos="576" pan="0" len="24" vol="31" />
          <note key="49" pos="600" pan="0" len="24" vol="47" />
          <note key="48" pos="624" pan="0" len="24" vol="100" />
          <note key="42" pos="648" pan="0" len="24" vol="47" />
          <note key="58" pos="672" pan="0" len="24" vol="100" />
          <note key="56" pos="696" pan="0" len="24" vol="47" />
          <note key="54" pos="720" pan="0" len="24" vol="100" />
          <note key="56" pos="744" pan="0" len="24" vol="31" />
          <note key="56" pos="768" pan="0" len="24" vol="31" />
          <note key="48" pos="792" pan="0" len="24" vol="47" />
          <note key="51" pos="816" pan="0" len="24" vol="100" />
          <note key="60" pos="840" pan="0" len="24" vol="47" />
          <note key="58" pos="864" pan="0" len="24" vol="100" />
          <note key="51" pos="888" pan="0" len="24" vol="47" />
          <note key="49" pos="912" pan="0" len="24" vol="100" />
          <note key="61" pos="936" pan="0" len="24" vol="62" />
          <note key="56" pos="960" pan="0" len="24" vol="31" />
          <note key="51" pos="984" pan="0" len="24" vol="47" />
          <note key="48" pos="1008" pan="0" len="24" vol="100" />
          <note key="60" pos="1032" pan="0" len="24" vol="47" />
          <note key="63" pos="1056" pan="0" len="24" vol="100" />
          <note key="51" pos="1080" pan="0" len="24" vol="47" />
          <note key="58" pos="1104" pan="0" len="24" vol="100" />
          <note key="60" pos="1128" pan="0" len="24" vol="62" />
          <note key="54" pos="1152" pan="0" len="24" vol="31" />
          <note key="49" pos="1176" pan="0" len="24" vol="47" />
          <note key="46" pos="1200" pan="0" len="24" vol="100" />
          <note key="58" pos="1224" pan="0" len="24" vol="47" />
          <note key="54" pos="1248" pan="0" len="24" vol="100" />
          <note key="49" pos="1272" pan="0" len="24" vol="47" />
          <note key="61" pos="1296" pan="0" len="24" vol="100" />
          <note key="56" pos="1320" pan="0" len="24" vol="62" />
          <note key="42" pos="1344" pan="0" len="24" vol="31" />
          <note key="49" pos="1368" pan="0" len="24" vol="47" />
          <note key="48" pos="1392" pan="0" len="24" vol="100" />
          <note key="42" pos="1416" pan="0" len="24" vol="47" />
          <note key="58" pos="1440" pan="0" len="24" vol="100" />
          <note key="56" pos="1464" pan="0" len="24" vol="47" />
          <note key="54" pos="1488" pan="0" len="24" vol="100" />
          <note key="56" pos="1512" pan="0" len="24" vol="31" />
        </pattern>
        <pattern pos="169740" muted="0" steps="16" name="" type="1">
          <note key="67" pos="2112" pan="0" len="180" vol="100" />
        </pattern>
        <pattern pos="189708" muted="0" steps="16" name="" type="1">
          <note key="55" pos="12" pan="0" len="12" vol="100" />
          <note key="52" pos="24" pan="0" len="24" vol="100" />
          <note key="54" pos="48" pan="0" len="168" vol="100" />
          <note key="59" pos="216" pan="0" len="24" vol="100" />
          <note key="62" pos="240" pan="0" len="156" vol="100" />
          <note key="64" pos="396" pan="0" len="12" vol="100" />
          <note key="61" pos="408" pan="0" len="24" vol="100" />
          <note key="62" pos="432" pan="0" len="120" vol="100" />
          <note key="52" pos="552" pan="0" len="24" vol="100" />
          <note key="59" pos="576" pan="0" len="192" vol="100" />
          <note key="62" pos="780" pan="0" len="12" vol="100" />
          <note key="64" pos="792" pan="0" len="24" vol="100" />
          <note key="52" pos="816" pan="0" len="168" vol="100" />
          <note key="66" pos="984" pan="0" len="24" vol="100" />
          <note key="62" pos="1008" pan="0" len="156" vol="100" />
          <note key="59" pos="1164" pan="0" len="12" vol="100" />
          <note key="62" pos="1176" pan="0" len="24" vol="100" />
          <note key="64" pos="1200" pan="0" len="120" vol="100" />
          <note key="55" pos="1320" pan="0" len="24" vol="100" />
          <note key="59" pos="1344" pan="0" len="192" vol="100" />
        </pattern>
        <pattern pos="191244" muted="0" steps="16" name="" type="1">
          <note key="66" pos="24" pan="0" len="24" vol="100" />
          <note key="64" pos="48" pan="0" len="48" vol="100" />
          <note key="66" pos="96" pan="0" len="12" vol="100" />
          <note key="62" pos="108" pan="0" len="36" vol="100" />
          <note key="59" pos="144" pan="0" len="24" vol="100" />
          <note key="62" pos="168" pan="0" len="24" vol="100" />
          <note key="64" pos="192" pan="0" len="192" vol="100" />
          <note key="62" pos="384" pan="0" len="24" vol="100" />
          <note key="61" pos="408" pan="0" len="12" vol="100" />
          <note key="59" pos="420" pan="0" len="36" vol="100" />
          <note key="61" pos="456" pan="0" len="36" vol="100" />
          <note key="57" pos="492" pan="0" len="36" vol="100" />
          <note key="61" pos="528" pan="0" len="12" vol="100" />
          <note key="62" pos="540" pan="0" len="36" vol="100" />
          <note key="52" pos="576" pan="0" len="192" vol="100" />
          <note key="66" pos="792" pan="0" len="24" vol="100" />
          <note key="64" pos="816" pan="0" len="48" vol="100" />
          <note key="66" pos="864" pan="0" len="12" vol="100" />
          <note key="62" pos="876" pan="0" len="36" vol="100" />
          <note key="59" pos="912" pan="0" len="24" vol="100" />
          <note key="62" pos="936" pan="0" len="24" vol="100" />
          <note key="64" pos="960" pan="0" len="192" vol="100" />
          <note key="62" pos="1152" pan="0" len="24" vol="100" />
          <note key="61" pos="1176" pan="0" len="12" vol="100" />
          <note key="59" pos="1188" pan="0" len="36" vol="100" />
          <note key="61" pos="1224" pan="0" len="36" vol="100" />
          <note key="57" pos="1260" pan="0" len="36" vol="100" />
          <note key="61" pos="1296" pan="0" len="12" vol="100" />
          <note key="62" pos="1308" pan="0" len="36" vol="100" />
          <note key="52" pos="1344" pan="0" len="192" vol="100" />
        </pattern>
        <pattern pos="200460" muted="0" steps="16" name="" type="1">
          <note key="64" pos="0" pan="0" len="72" vol="100" />
          <note key="62" pos="72" pan="0" len="72" vol="100" />
          <note key="69" pos="144" pan="0" len="48" vol="100" />
          <note key="68" pos="192" pan="0" len="576" vol="100" />
        </pattern>
      </track>
      <track solo="0" name="39 (Ch13)" type="0" muted="0">
        <instrumenttrack usemasterpitch="1" pitch="0.0" basenote="57" pan="0" pitchrange="12" vol="30">
          <eldata />
          <instrument name="tripleoscillator" />
        </instrumenttrack>
        <pattern pos="214284" muted="0" steps="16" name="" type="1">
          <note key="60" pos="48" pan="0" len="72" vol="100" />
          <note key="62" pos="120" pan="0" len="72" vol="100" />
          <note key="63" pos="192" pan="0" len="72" vol="100" />
          <note key="67" pos="264" pan="0" len="84" vol="100" />
          <note key="70" pos="384" pan="0" len="24" vol="100" />
          <note key="69" pos="408" pan="0" len="24" vol="100" />
          <note key="74" pos="432" pan="0" len="408" vol="100" />
          <note key="48" pos="840" pan="0" len="24" vol="100" />
          <note key="53" pos="864" pan="0" len="72" vol="100" />
          <note key="55" pos="936" pan="0" len="72" vol="100" />
          <note key="56" pos="1008" pan="0" len="72" vol="100" />
          <note key="60" pos="1080" pan="0" len="72" vol="100" />
          <note key="63" pos="1152" pan="0" len="24" vol="100" />
          <note key="62" pos="1176" pan="0" len="24" vol="100" />
          <note key="60" pos="1200" pan="0" len="84" vol="100" />
          <note key="63" pos="1332" pan="0" len="12" vol="100" />
          <note key="62" pos="1344" pan="0" len="36" vol="100" />
        </pattern>
        <pattern pos="97536" muted="0" steps="16" name="" type="1">
          <note key="38" pos="72" pan="0" len="48" vol="80" />
          <note key="45" pos="120" pan="0" len="48" vol="25" />
          <note key="53" pos="168" pan="0" len="48" vol="38" />
          <note key="45" pos="216" pan="0" len="48" vol="80" />
          <note key="52" pos="264" pan="0" len="48" vol="80" />
          <note key="48" pos="312" pan="0" len="48" vol="25" />
          <note key="43" pos="360" pan="0" len="48" vol="50" />
          <note key="50" pos="408" pan="0" len="48" vol="80" />
          <note key="46" pos="456" pan="0" len="48" vol="80" />
          <note key="41" pos="504" pan="0" len="48" vol="38" />
          <note key="50" pos="552" pan="0" len="48" vol="80" />
          <note key="43" pos="600" pan="0" len="48" vol="50" />
          <note key="40" pos="648" pan="0" len="48" vol="72" />
          <note key="48" pos="696" pan="0" len="48" vol="80" />
          <note key="43" pos="744" pan="0" len="24" vol="25" />
        </pattern>
        <pattern pos="98304" muted="0" steps="16" name="" type="1">
          <note key="62" pos="72" pan="0" len="48" vol="100" />
          <note key="45" pos="120" pan="0" len="48" vol="31" />
          <note key="53" pos="168" pan="0" len="48" vol="47" />
          <note key="45" pos="216" pan="0" len="48" vol="100" />
          <note key="52" pos="264" pan="0" len="48" vol="100" />
          <note key="48" pos="312" pan="0" len="48" vol="31" />
          <note key="43" pos="360" pan="0" len="48" vol="62" />
          <note key="50" pos="408" pan="0" len="48" vol="100" />
          <note key="46" pos="456" pan="0" len="48" vol="100" />
          <note key="41" pos="504" pan="0" len="48" vol="47" />
          <note key="50" pos="552" pan="0" len="48" vol="100" />
          <note key="43" pos="600" pan="0" len="48" vol="62" />
          <note key="40" pos="648" pan="0" len="48" vol="91" />
          <note key="48" pos="696" pan="0" len="48" vol="100" />
          <note key="43" pos="744" pan="0" len="48" vol="31" />
          <note key="36" pos="792" pan="0" len="48" vol="47" />
          <note key="38" pos="840" pan="0" len="48" vol="100" />
          <note key="45" pos="888" pan="0" len="48" vol="31" />
          <note key="53" pos="936" pan="0" len="48" vol="47" />
          <note key="45" pos="984" pan="0" len="48" vol="100" />
          <note key="52" pos="1032" pan="0" len="48" vol="100" />
          <note key="48" pos="1080" pan="0" len="48" vol="31" />
          <note key="43" pos="1128" pan="0" len="48" vol="62" />
          <note key="50" pos="1176" pan="0" len="48" vol="100" />
          <note key="46" pos="1224" pan="0" len="48" vol="100" />
          <note key="41" pos="1272" pan="0" len="48" vol="47" />
          <note key="50" pos="1320" pan="0" len="48" vol="100" />
          <note key="43" pos="1368" pan="0" len="48" vol="62" />
          <note key="40" pos="1416" pan="0" len="48" vol="91" />
          <note key="48" pos="1464" pan="0" len="48" vol="100" />
          <note key="43" pos="1512" pan="0" len="24" vol="31" />
        </pattern>
        <pattern pos="99840" muted="0" steps="16" name="" type="1">
          <note key="62" pos="72" pan="0" len="48" vol="100" />
          <note key="45" pos="120" pan="0" len="48" vol="31" />
          <note key="53" pos="168" pan="0" len="48" vol="47" />
          <note key="45" pos="216" pan="0" len="48" vol="100" />
          <note key="52" pos="264" pan="0" len="48" vol="100" />
          <note key="48" pos="312" pan="0" len="48" vol="31" />
          <note key="43" pos="360" pan="0" len="48" vol="62" />
          <note key="50" pos="408" pan="0" len="48" vol="100" />
          <note key="46" pos="456" pan="0" len="48" vol="100" />
          <note key="41" pos="504" pan="0" len="48" vol="47" />
          <note key="50" pos="552" pan="0" len="48" vol="100" />
          <note key="43" pos="600" pan="0" len="48" vol="62" />
          <note key="40" pos="648" pan="0" len="48" vol="91" />
          <note key="48" pos="696" pan="0" len="48" vol="100" />
          <note key="43" pos="744" pan="0" len="48" vol="31" />
          <note key="36" pos="792" pan="0" len="48" vol="47" />
          <note key="38" pos="840" pan="0" len="48" vol="100" />
          <note key="45" pos="888" pan="0" len="48" vol="31" />
          <note key="53" pos="936" pan="0" len="48" vol="47" />
          <note key="45" pos="984" pan="0" len="48" vol="100" />
          <note key="52" pos="1032" pan="0" len="48" vol="100" />
          <note key="48" pos="1080" pan="0" len="48" vol="31" />
          <note key="43" pos="1128" pan="0" len="48" vol="62" />
          <note key="50" pos="1176" pan="0" len="48" vol="100" />
          <note key="46" pos="1224" pan="0" len="48" vol="100" />
          <note key="41" pos="1272" pan="0" len="48" vol="47" />
          <note key="50" pos="1320" pan="0" len="48" vol="100" />
          <note key="43" pos="1368" pan="0" len="48" vol="62" />
          <note key="40" pos="1416" pan="0" len="48" vol="91" />
          <note key="48" pos="1464" pan="0" len="48" vol="100" />
          <note key="43" pos="1512" pan="0" len="24" vol="31" />
        </pattern>
        <pattern pos="155148" muted="0" steps="16" name="" type="1">
          <note key="56" pos="36" pan="0" len="24" vol="16" />
          <note key="48" pos="60" pan="0" len="24" vol="23" />
          <note key="51" pos="84" pan="0" len="24" vol="50" />
          <note key="60" pos="108" pan="0" len="24" vol="23" />
          <note key="58" pos="132" pan="0" len="24" vol="50" />
          <note key="51" pos="156" pan="0" len="24" vol="23" />
          <note key="49" pos="180" pan="0" len="24" vol="50" />
          <note key="61" pos="204" pan="0" len="24" vol="31" />
          <note key="56" pos="228" pan="0" len="24" vol="16" />
          <note key="51" pos="252" pan="0" len="24" vol="23" />
          <note key="48" pos="276" pan="0" len="24" vol="50" />
          <note key="60" pos="300" pan="0" len="24" vol="23" />
          <note key="63" pos="324" pan="0" len="24" vol="50" />
          <note key="51" pos="348" pan="0" len="24" vol="23" />
          <note key="58" pos="372" pan="0" len="24" vol="50" />
          <note key="60" pos="396" pan="0" len="24" vol="31" />
          <note key="54" pos="420" pan="0" len="24" vol="16" />
          <note key="49" pos="444" pan="0" len="24" vol="23" />
          <note key="46" pos="468" pan="0" len="24" vol="50" />
          <note key="58" pos="492" pan="0" len="24" vol="23" />
          <note key="54" pos="516" pan="0" len="24" vol="50" />
          <note key="49" pos="540" pan="0" len="24" vol="23" />
          <note key="61" pos="564" pan="0" len="24" vol="50" />
          <note key="56" pos="588" pan="0" len="24" vol="31" />
          <note key="42" pos="612" pan="0" len="24" vol="16" />
          <note key="49" pos="636" pan="0" len="24" vol="23" />
          <note key="48" pos="660" pan="0" len="24" vol="50" />
          <note key="42" pos="684" pan="0" len="24" vol="23" />
          <note key="58" pos="708" pan="0" len="24" vol="50" />
          <note key="56" pos="732" pan="0" len="24" vol="23" />
          <note key="54" pos="756" pan="0" len="24" vol="50" />
          <note key="56" pos="780" pan="0" len="24" vol="16" />
          <note key="48" pos="804" pan="0" len="24" vol="23" />
          <note key="51" pos="828" pan="0" len="24" vol="50" />
          <note key="60" pos="852" pan="0" len="24" vol="23" />
          <note key="58" pos="876" pan="0" len="24" vol="50" />
          <note key="51" pos="900" pan="0" len="24" vol="23" />
          <note key="49" pos="924" pan="0" len="24" vol="50" />
          <note key="61" pos="948" pan="0" len="24" vol="31" />
          <note key="56" pos="972" pan="0" len="24" vol="16" />
          <note key="51" pos="996" pan="0" len="24" vol="23" />
          <note key="48" pos="1020" pan="0" len="24" vol="50" />
          <note key="60" pos="1044" pan="0" len="24" vol="23" />
          <note key="63" pos="1068" pan="0" len="24" vol="50" />
          <note key="51" pos="1092" pan="0" len="24" vol="23" />
          <note key="58" pos="1116" pan="0" len="24" vol="50" />
          <note key="60" pos="1140" pan="0" len="24" vol="31" />
          <note key="54" pos="1164" pan="0" len="24" vol="16" />
          <note key="49" pos="1188" pan="0" len="24" vol="23" />
          <note key="46" pos="1212" pan="0" len="24" vol="50" />
          <note key="58" pos="1236" pan="0" len="24" vol="23" />
          <note key="54" pos="1260" pan="0" len="24" vol="50" />
          <note key="49" pos="1284" pan="0" len="24" vol="23" />
          <note key="61" pos="1308" pan="0" len="24" vol="50" />
          <note key="56" pos="1332" pan="0" len="24" vol="31" />
          <note key="42" pos="1356" pan="0" len="24" vol="16" />
          <note key="49" pos="1380" pan="0" len="24" vol="23" />
          <note key="48" pos="1404" pan="0" len="24" vol="50" />
          <note key="42" pos="1428" pan="0" len="24" vol="23" />
          <note key="58" pos="1452" pan="0" len="24" vol="50" />
          <note key="56" pos="1476" pan="0" len="24" vol="23" />
          <note key="54" pos="1500" pan="0" len="24" vol="50" />
          <note key="56" pos="1524" pan="0" len="12" vol="16" />
        </pattern>
        <pattern pos="169740" muted="0" steps="16" name="" type="1">
          <note key="60" pos="2112" pan="0" len="180" vol="100" />
        </pattern>
        <pattern pos="205068" muted="0" steps="16" name="" type="1">
          <note key="60" pos="96" pan="0" len="72" vol="100" />
          <note key="62" pos="168" pan="0" len="72" vol="100" />
          <note key="63" pos="240" pan="0" len="72" vol="100" />
          <note key="67" pos="312" pan="0" len="72" vol="100" />
          <note key="70" pos="384" pan="0" len="24" vol="100" />
          <note key="69" pos="408" pan="0" len="24" vol="100" />
          <note key="62" pos="432" pan="0" len="408" vol="100" />
          <note key="60" pos="840" pan="0" len="24" vol="100" />
          <note key="65" pos="864" pan="0" len="72" vol="100" />
          <note key="63" pos="936" pan="0" len="72" vol="100" />
          <note key="62" pos="1008" pan="0" len="72" vol="100" />
          <note key="60" pos="1080" pan="0" len="72" vol="100" />
          <note key="63" pos="1152" pan="0" len="24" vol="100" />
          <note key="62" pos="1176" pan="0" len="24" vol="100" />
          <note key="60" pos="1200" pan="0" len="132" vol="100" />
          <note key="63" pos="1332" pan="0" len="12" vol="100" />
          <note key="62" pos="1344" pan="0" len="192" vol="100" />
        </pattern>
        <pattern pos="206604" muted="0" steps="16" name="" type="1">
          <note key="60" pos="48" pan="0" len="72" vol="100" />
          <note key="62" pos="120" pan="0" len="24" vol="100" />
          <note key="63" pos="192" pan="0" len="72" vol="100" />
          <note key="67" pos="264" pan="0" len="84" vol="100" />
          <note key="70" pos="384" pan="0" len="24" vol="100" />
          <note key="69" pos="408" pan="0" len="24" vol="100" />
          <note key="74" pos="432" pan="0" len="1104" vol="100" />
        </pattern>
        <pattern pos="212748" muted="0" steps="16" name="" type="1">
          <note key="60" pos="96" pan="0" len="72" vol="100" />
          <note key="62" pos="168" pan="0" len="72" vol="100" />
          <note key="63" pos="240" pan="0" len="72" vol="100" />
          <note key="67" pos="312" pan="0" len="72" vol="100" />
          <note key="70" pos="384" pan="0" len="24" vol="100" />
          <note key="69" pos="408" pan="0" len="24" vol="100" />
          <note key="62" pos="432" pan="0" len="312" vol="100" />
          <note key="60" pos="744" pan="0" len="24" vol="100" />
          <note key="65" pos="768" pan="0" len="48" vol="100" />
          <note key="67" pos="816" pan="0" len="24" vol="100" />
          <note key="68" pos="840" pan="0" len="48" vol="100" />
          <note key="60" pos="888" pan="0" len="24" vol="100" />
          <note key="65" pos="912" pan="0" len="216" vol="100" />
          <note key="60" pos="1128" pan="0" len="24" vol="100" />
          <note key="63" pos="1152" pan="0" len="24" vol="100" />
          <note key="62" pos="1176" pan="0" len="24" vol="100" />
          <note key="60" pos="1200" pan="0" len="132" vol="100" />
          <note key="63" pos="1332" pan="0" len="12" vol="100" />
          <note key="62" pos="1344" pan="0" len="84" vol="100" />
          <note key="63" pos="1428" pan="0" len="12" vol="100" />
          <note key="58" pos="1440" pan="0" len="96" vol="100" />
        </pattern>
      </track>
      <track solo="0" name="39 (Ch14)" type="0" muted="0">
        <instrumenttrack usemasterpitch="1" pitch="0.0" basenote="57" pan="0" pitchrange="12" vol="30">
          <eldata />
          <instrument name="tripleoscillator" />
        </instrumenttrack>
        <pattern pos="169740" muted="0" steps="16" name="" type="1">
          <note key="56" pos="96" pan="0" len="24" vol="100" />
          <note key="59" pos="120" pan="0" len="72" vol="100" />
          <note key="58" pos="192" pan="0" len="48" vol="100" />
          <note key="54" pos="240" pan="0" len="48" vol="100" />
          <note key="56" pos="288" pan="0" len="24" vol="100" />
          <note key="56" pos="312" pan="0" len="264" vol="100" />
        </pattern>
        <pattern pos="118272" muted="0" steps="16" name="" type="1">
          <note key="69" pos="1176" pan="0" len="48" vol="100" />
          <note key="69" pos="1320" pan="0" len="24" vol="100" />
          <note key="67" pos="1392" pan="0" len="48" vol="100" />
        </pattern>
      </track>
      <track solo="0" name="39 (Ch17)" type="0" muted="0">
        <instrumenttrack usemasterpitch="1" pitch="0.0" basenote="57" pan="0" pitchrange="12" vol="30">
          <eldata />
          <instrument name="tripleoscillator" />
        </instrumenttrack>
        <pattern pos="10752" muted="0" steps="16" name="" type="1">
          <note key="62" pos="24" pan="0" len="24" vol="100" />
          <note key="63" pos="48" pan="0" len="48" vol="100" />
          <note key="65" pos="96" pan="0" len="24" vol="100" />
          <note key="63" pos="120" pan="0" len="24" vol="100" />
          <note key="62" pos="144" pan="0" len="24" vol="100" />
          <note key="63" pos="168" pan="0" len="48" vol="100" />
          <note key="62" pos="216" pan="0" len="24" vol="100" />
          <note key="63" pos="240" pan="0" len="48" vol="100" />
          <note key="65" pos="288" pan="0" len="24" vol="100" />
          <note key="63" pos="312" pan="0" len="24" vol="100" />
          <note key="62" pos="336" pan="0" len="24" vol="100" />
          <note key="63" pos="360" pan="0" len="48" vol="100" />
          <note key="63" pos="408" pan="0" len="24" vol="100" />
          <note key="65" pos="432" pan="0" len="48" vol="100" />
          <note key="67" pos="480" pan="0" len="24" vol="100" />
          <note key="65" pos="504" pan="0" len="24" vol="100" />
          <note key="63" pos="528" pan="0" len="24" vol="100" />
          <note key="65" pos="552" pan="0" len="48" vol="100" />
          <note key="65" pos="600" pan="0" len="24" vol="100" />
          <note key="67" pos="624" pan="0" len="48" vol="100" />
          <note key="68" pos="672" pan="0" len="24" vol="100" />
          <note key="67" pos="696" pan="0" len="24" vol="100" />
          <note key="68" pos="720" pan="0" len="24" vol="100" />
          <note key="70" pos="744" pan="0" len="24" vol="100" />
        </pattern>
      </track>
      <track solo="0" name="39 (Ch18)" type="0" muted="0">
        <instrumenttrack usemasterpitch="1" pitch="0.0" basenote="57" pan="0" pitchrange="12" vol="30">
          <eldata />
          <instrument name="tripleoscillator" />
        </instrumenttrack>
        <pattern pos="220428" muted="0" steps="16" name="" type="1">
          <note key="59" pos="204" pan="0" len="36" vol="100" />
          <note key="60" pos="240" pan="0" len="36" vol="100" />
          <note key="62" pos="276" pan="0" len="36" vol="100" />
          <note key="63" pos="312" pan="0" len="36" vol="100" />
          <note key="67" pos="348" pan="0" len="36" vol="100" />
          <note key="71" pos="384" pan="0" len="384" vol="100" />
        </pattern>
        <pattern pos="155148" muted="0" steps="16" name="" type="1">
          <note key="48" pos="72" pan="0" len="12" vol="100" />
          <note key="49" pos="84" pan="0" len="12" vol="100" />
          <note key="49" pos="96" pan="0" len="12" vol="100" />
          <note key="51" pos="108" pan="0" len="60" vol="100" />
          <note key="49" pos="168" pan="0" len="12" vol="100" />
          <note key="48" pos="180" pan="0" len="12" vol="100" />
          <note key="49" pos="192" pan="0" len="12" vol="100" />
          <note key="48" pos="204" pan="0" len="12" vol="100" />
          <note key="46" pos="216" pan="0" len="72" vol="100" />
          <note key="42" pos="456" pan="0" len="12" vol="100" />
          <note key="44" pos="468" pan="0" len="12" vol="100" />
          <note key="44" pos="480" pan="0" len="12" vol="100" />
          <note key="46" pos="492" pan="0" len="36" vol="100" />
          <note key="49" pos="528" pan="0" len="48" vol="100" />
          <note key="49" pos="576" pan="0" len="24" vol="100" />
          <note key="48" pos="600" pan="0" len="24" vol="100" />
          <note key="44" pos="624" pan="0" len="24" vol="100" />
          <note key="39" pos="648" pan="0" len="72" vol="100" />
          <note key="48" pos="792" pan="0" len="12" vol="100" />
          <note key="49" pos="804" pan="0" len="12" vol="100" />
          <note key="49" pos="816" pan="0" len="12" vol="100" />
          <note key="51" pos="828" pan="0" len="60" vol="100" />
          <note key="56" pos="888" pan="0" len="72" vol="100" />
          <note key="58" pos="960" pan="0" len="144" vol="100" />
          <note key="51" pos="1128" pan="0" len="12" vol="100" />
          <note key="56" pos="1140" pan="0" len="12" vol="100" />
          <note key="61" pos="1152" pan="0" len="24" vol="100" />
          <note key="60" pos="1176" pan="0" len="24" vol="100" />
          <note key="56" pos="1200" pan="0" len="24" vol="100" />
          <note key="56" pos="1224" pan="0" len="12" vol="100" />
          <note key="54" pos="1236" pan="0" len="60" vol="100" />
          <note key="49" pos="1296" pan="0" len="48" vol="100" />
          <note key="54" pos="1344" pan="0" len="12" vol="100" />
          <note key="56" pos="1356" pan="0" len="84" vol="100" />
        </pattern>
      </track>
      <track solo="0" name="40 (Ch1)" type="0" muted="0">
        <instrumenttrack usemasterpitch="1" pitch="0.0" basenote="57" pan="0" pitchrange="12" vol="30">
          <eldata />
          <instrument name="tripleoscillator" />
        </instrumenttrack>
        <pattern pos="248076" muted="0" steps="16" name="" type="1">
          <note key="64" pos="0" pan="0" len="384" vol="100" />
        </pattern>
      </track>
      <track solo="0" name="40 (Ch3)" type="0" muted="0">
        <instrumenttrack usemasterpitch="1" pitch="0.0" basenote="57" pan="0" pitchrange="12" vol="30">
          <eldata />
          <instrument name="tripleoscillator" />
        </instrumenttrack>
        <pattern pos="276444" muted="0" steps="16" name="" type="1">
          <note key="62" pos="576" pan="0" len="576" vol="100" />
        </pattern>
        <pattern pos="27648" muted="0" steps="16" name="" type="1">
          <note key="61" pos="384" pan="0" len="384" vol="12" />
          <note key="61" pos="1152" pan="0" len="384" vol="12" />
        </pattern>
        <pattern pos="271692" muted="0" steps="16" name="" type="1">
          <note key="62" pos="576" pan="0" len="576" vol="100" />
        </pattern>
      </track>
      <track solo="0" name="40 (Ch5)" type="0" muted="0">
        <instrumenttrack usemasterpitch="1" pitch="0.0" basenote="57" pan="0" pitchrange="12" vol="30">
          <eldata />
          <instrument name="tripleoscillator" />
        </instrumenttrack>
        <pattern pos="270540" muted="0" steps="16" name="" type="1">
          <note key="64" pos="0" pan="0" len="576" vol="100" />
        </pattern>
        <pattern pos="54528" muted="0" steps="16" name="" type="1">
          <note key="60" pos="0" pan="0" len="384" vol="50" />
        </pattern>
      </track>
      <track solo="0" name="40 (Ch6)" type="0" muted="0">
        <instrumenttrack usemasterpitch="1" pitch="0.0" basenote="57" pan="0" pitchrange="12" vol="30">
          <eldata />
          <instrument name="tripleoscillator" />
        </instrumenttrack>
        <pattern pos="270540" muted="0" steps="16" name="" type="1">
          <note key="60" pos="0" pan="0" len="576" vol="100" />
        </pattern>
        <pattern pos="29184" muted="0" steps="16" name="" type="1">
          <note key="60" pos="48" pan="0" len="312" vol="33" />
        </pattern>
        <pattern pos="57600" muted="0" steps="16" name="" type="1">
          <note key="60" pos="0" pan="0" len="192" vol="33" />
        </pattern>
        <pattern pos="61056" muted="0" steps="16" name="" type="1">
          <note key="60" pos="0" pan="0" len="192" vol="33" />
        </pattern>
        <pattern pos="64512" muted="0" steps="16" name="" type="1">
          <note key="60" pos="0" pan="0" len="192" vol="33" />
        </pattern>
        <pattern pos="65664" muted="0" steps="16" name="" type="1">
          <note key="60" pos="0" pan="0" len="288" vol="33" />
        </pattern>
      </track>
      <track solo="0" name="40 (Ch8)" type="0" muted="0">
        <instrumenttrack usemasterpitch="1" pitch="0.0" basenote="57" pan="0" pitchrange="12" vol="30">
          <eldata />
          <instrument name="tripleoscillator" />
        </instrumenttrack>
        <pattern pos="248460" muted="0" steps="16" name="" type="1">
          <note key="64" pos="0" pan="0" len="96" vol="100" />
        </pattern>
        <pattern pos="24576" muted="0" steps="16" name="" type="1">
          <note key="62" pos="0" pan="0" len="36" vol="23" />
        </pattern>
        <pattern pos="92160" muted="0" steps="16" name="" type="1">
          <note key="50" pos="0" pan="0" len="720" vol="80" />
        </pattern>
        <pattern pos="95232" muted="0" steps="16" name="" type="1">
          <note key="50" pos="0" pan="0" len="720" vol="80" />
        </pattern>
        <pattern pos="110592" muted="0" steps="16" name="" type="1">
          <note key="50" pos="0" pan="0" len="720" vol="80" />
        </pattern>
      </track>
      <track solo="0" name="40 (Ch9)" type="0" muted="0">
        <instrumenttrack usemasterpitch="1" pitch="0.0" basenote="57" pan="0" pitchrange="12" vol="30">
          <eldata />
          <instrument name="tripleoscillator" />
        </instrumenttrack>
        <pattern pos="280476" muted="0" steps="16" name="" type="1">
          <note key="65" pos="432" pan="0" len="336" vol="100" />
        </pattern>
        <pattern pos="7680" muted="0" steps="16" name="" type="1">
          <note key="60" pos="1536" pan="0" len="1344" vol="14" />
        </pattern>
        <pattern pos="53760" muted="0" steps="16" name="" type="1">
          <note key="60" pos="528" pan="0" len="240" vol="17" />
        </pattern>
        <pattern pos="169740" muted="0" steps="16" name="" type="1">
          <note key="60" pos="576" pan="0" len="96" vol="69" />
        </pattern>
        <pattern pos="192780" muted="0" steps="16" name="" type="1">
          <note key="60" pos="0" pan="0" len="1536" vol="34" />
        </pattern>
      </track>
      <track solo="0" name="40 (Ch10)" type="0" muted="0">
        <instrumenttrack usemasterpitch="1" pitch="0.0" basenote="57" pan="0" pitchrange="12" vol="30">
          <eldata />
          <instrument name="tripleoscillator" />
        </instrumenttrack>
        <pattern pos="201228" muted="0" steps="16" name="" type="1">
          <note key="60" pos="0" pan="0" len="72" vol="17" />
        </pattern>
        <pattern pos="18432" muted="0" steps="16" name="" type="1">
          <note key="60" pos="0" pan="0" len="768" vol="28" />
        </pattern>
        <pattern pos="21504" muted="0" steps="16" name="" type="1">
          <note key="60" pos="0" pan="0" len="96" vol="33" />
        </pattern>
        <pattern pos="66816" muted="0" steps="16" name="" type="1">
          <note key="59" pos="0" pan="0" len="2304" vol="8" />
        </pattern>
        <pattern pos="69120" muted="0" steps="16" name="" type="1">
          <note key="59" pos="1152" pan="0" len="1152" vol="8" />
        </pattern>
        <pattern pos="71424" muted="0" steps="16" name="" type="1">
          <note key="59" pos="1152" pan="0" len="1152" vol="8" />
        </pattern>
        <pattern pos="73728" muted="0" steps="16" name="" type="1">
          <note key="60" pos="0" pan="0" len="1152" vol="34" />
        </pattern>
        <pattern pos="76032" muted="0" steps="16" name="" type="1">
          <note key="57" pos="0" pan="0" len="2304" vol="34" />
        </pattern>
        <pattern pos="78336" muted="0" steps="16" name="" type="1">
          <note key="59" pos="0" pan="0" len="2304" vol="19" />
        </pattern>
        <pattern pos="80640" muted="0" steps="16" name="" type="1">
          <note key="59" pos="1152" pan="0" len="1152" vol="8" />
        </pattern>
        <pattern pos="82944" muted="0" steps="16" name="" type="1">
          <note key="59" pos="1152" pan="0" len="1152" vol="8" />
        </pattern>
        <pattern pos="85248" muted="0" steps="16" name="" type="1">
          <note key="60" pos="0" pan="0" len="1152" vol="34" />
        </pattern>
        <pattern pos="87552" muted="0" steps="16" name="" type="1">
          <note key="57" pos="0" pan="0" len="2304" vol="34" />
        </pattern>
        <pattern pos="89856" muted="0" steps="16" name="" type="1">
          <note key="59" pos="0" pan="0" len="2304" vol="19" />
        </pattern>
      </track>
      <track solo="0" name="40 (Ch11)" type="0" muted="0">
        <instrumenttrack usemasterpitch="1" pitch="0.0" basenote="57" pan="0" pitchrange="12" vol="30">
          <eldata />
          <instrument name="tripleoscillator" />
        </instrumenttrack>
        <pattern pos="6144" muted="0" steps="16" name="" type="1">
          <note key="60" pos="768" pan="0" len="144" vol="100" />
        </pattern>
      </track>
      <track solo="0" name="40 (Ch12)" type="0" muted="0">
        <instrumenttrack usemasterpitch="1" pitch="0.0" basenote="57" pan="0" pitchrange="12" vol="30">
          <eldata />
          <instrument name="tripleoscillator" />
        </instrumenttrack>
        <pattern pos="255756" muted="0" steps="16" name="" type="1">
          <note key="60" pos="0" pan="0" len="2304" vol="8" />
        </pattern>
        <pattern pos="240396" muted="0" steps="16" name="" type="1">
          <note key="63" pos="0" pan="0" len="768" vol="100" />
        </pattern>
        <pattern pos="253452" muted="0" steps="16" name="" type="1">
          <note key="60" pos="0" pan="0" len="2304" vol="8" />
        </pattern>
      </track>
      <track solo="0" name="40 (Ch13)" type="0" muted="0">
        <instrumenttrack usemasterpitch="1" pitch="0.0" basenote="57" pan="0" pitchrange="12" vol="30">
          <eldata />
          <instrument name="tripleoscillator" />
        </instrumenttrack>
        <pattern pos="279900" muted="0" steps="16" name="" type="1">
          <note key="60" pos="0" pan="0" len="72" vol="34" />
        </pattern>
        <pattern pos="23040" muted="0" steps="16" name="" type="1">
          <note key="60" pos="0" pan="0" len="672" vol="33" />
        </pattern>
        <pattern pos="26112" muted="0" steps="16" name="" type="1">
          <note key="61" pos="0" pan="0" len="1536" vol="33" />
        </pattern>
        <pattern pos="101376" muted="0" steps="16" name="" type="1">
          <note key="54" pos="0" pan="0" len="1152" vol="100" />
        </pattern>
        <pattern pos="104448" muted="0" steps="16" name="" type="1">
          <note key="54" pos="0" pan="0" len="1152" vol="100" />
        </pattern>
        <pattern pos="262668" muted="0" steps="16" name="" type="1">
          <note key="60" pos="0" pan="0" len="2304" vol="17" />
        </pattern>
        <pattern pos="264972" muted="0" steps="16" name="" type="1">
          <note key="60" pos="0" pan="0" len="2304" vol="17" />
        </pattern>
        <pattern pos="277596" muted="0" steps="16" name="" type="1">
          <note key="60" pos="0" pan="0" len="72" vol="100" />
        </pattern>
      </track>
      <track solo="0" name="40 (Ch14)" type="0" muted="0">
        <instrumenttrack usemasterpitch="1" pitch="0.0" basenote="57" pan="0" pitchrange="12" vol="30">
          <eldata />
          <instrument name="tripleoscillator" />
        </instrumenttrack>
        <pattern pos="235020" muted="0" steps="16" name="" type="1">
          <note key="55" pos="0" pan="0" len="1536" vol="23" />
        </pattern>
        <pattern pos="7680" muted="0" steps="16" name="" type="1">
          <note key="60" pos="0" pan="0" len="1680" vol="34" />
        </pattern>
        <pattern pos="10752" muted="0" steps="16" name="" type="1">
          <note key="60" pos="768" pan="0" len="384" vol="100" />
        </pattern>
        <pattern pos="12288" muted="0" steps="16" name="" type="1">
          <note key="60" pos="2688" pan="0" len="384" vol="33" />
        </pattern>
        <pattern pos="169740" muted="0" steps="16" name="" type="1">
          <note key="60" pos="1920" pan="0" len="192" vol="69" />
        </pattern>
        <pattern pos="227340" muted="0" steps="16" name="" type="1">
          <note key="60" pos="0" pan="0" len="1536" vol="23" />
        </pattern>
        <pattern pos="233484" muted="0" steps="16" name="" type="1">
          <note key="60" pos="0" pan="0" len="1536" vol="23" />
        </pattern>
      </track>
      <track solo="0" name="40 (Ch15)" type="0" muted="0">
        <instrumenttrack usemasterpitch="1" pitch="0.0" basenote="57" pan="0" pitchrange="12" vol="30">
          <eldata />
          <instrument name="tripleoscillator" />
        </instrumenttrack>
        <pattern pos="274140" muted="0" steps="16" name="" type="1">
          <note key="55" pos="0" pan="0" len="576" vol="100" />
        </pattern>
        <pattern pos="12288" muted="0" steps="16" name="" type="1">
          <note key="57" pos="0" pan="0" len="1536" vol="34" />
        </pattern>
        <pattern pos="268812" muted="0" steps="16" name="" type="1">
          <note key="60" pos="0" pan="0" len="72" vol="34" />
        </pattern>
      </track>
      <track solo="0" name="40 (Ch16)" type="0" muted="0">
        <instrumenttrack usemasterpitch="1" pitch="0.0" basenote="57" pan="0" pitchrange="12" vol="30">
          <eldata />
          <instrument name="tripleoscillator" />
        </instrumenttrack>
        <pattern pos="220428" muted="0" steps="16" name="" type="1">
          <note key="60" pos="0" pan="0" len="288" vol="33" />
          <note key="60" pos="384" pan="0" len="384" vol="33" />
        </pattern>
        <pattern pos="208140" muted="0" steps="16" name="" type="1">
          <note key="60" pos="0" pan="0" len="1512" vol="33" />
        </pattern>
        <pattern pos="209676" muted="0" steps="16" name="" type="1">
          <note key="60" pos="0" pan="0" len="1512" vol="33" />
        </pattern>
        <pattern pos="211212" muted="0" steps="16" name="" type="1">
          <note key="60" pos="0" pan="0" len="1536" vol="33" />
        </pattern>
        <pattern pos="215820" muted="0" steps="16" name="" type="1">
          <note key="60" pos="0" pan="0" len="1536" vol="33" />
        </pattern>
        <pattern pos="217356" muted="0" steps="16" name="" type="1">
          <note key="60" pos="0" pan="0" len="1536" vol="33" />
        </pattern>
        <pattern pos="218892" muted="0" steps="16" name="" type="1">
          <note key="60" pos="0" pan="0" len="1536" vol="33" />
        </pattern>
      </track>
      <track solo="0" name="41 (Ch2)" type="0" muted="0">
        <instrumenttrack usemasterpitch="1" pitch="0.0" basenote="57" pan="0" pitchrange="12" vol="30">
          <eldata />
          <instrument name="tripleoscillator" />
        </instrumenttrack>
        <pattern pos="248076" muted="0" steps="16" name="" type="1">
          <note key="52" pos="0" pan="0" len="384" vol="100" />
        </pattern>
      </track>
      <track solo="0" name="41 (Ch11)" type="0" muted="0">
        <instrumenttrack usemasterpitch="1" pitch="0.0" basenote="57" pan="0" pitchrange="12" vol="30">
          <eldata />
          <instrument name="tripleoscillator" />
        </instrumenttrack>
        <pattern pos="165900" muted="0" steps="16" name="" type="1">
          <note key="60" pos="0" pan="0" len="768" vol="100" />
        </pattern>
        <pattern pos="122892" muted="0" steps="16" name="" type="1">
          <note key="60" pos="0" pan="0" len="480" vol="100" />
          <note key="52" pos="480" pan="0" len="144" vol="100" />
        </pattern>
        <pattern pos="144396" muted="0" steps="16" name="" type="1">
          <note key="48" pos="0" pan="0" len="768" vol="31" />
        </pattern>
        <pattern pos="150540" muted="0" steps="16" name="" type="1">
          <note key="48" pos="0" pan="0" len="1536" vol="100" />
        </pattern>
        <pattern pos="152076" muted="0" steps="16" name="" type="1">
          <note key="48" pos="0" pan="0" len="1536" vol="100" />
        </pattern>
      </track>
      <track solo="0" name="41 (Ch13)" type="0" muted="0">
        <instrumenttrack usemasterpitch="1" pitch="0.0" basenote="57" pan="0" pitchrange="12" vol="30">
          <eldata />
          <instrument name="tripleoscillator" />
        </instrumenttrack>
        <pattern pos="220428" muted="0" steps="16" name="" type="1">
          <note key="65" pos="192" pan="0" len="192" vol="100" />
        </pattern>
      </track>
      <track solo="0" name="41 (Ch14)" type="0" muted="0">
        <instrumenttrack usemasterpitch="1" pitch="0.0" basenote="57" pan="0" pitchrange="12" vol="30">
          <eldata />
          <instrument name="tripleoscillator" />
        </instrumenttrack>
        <pattern pos="220428" muted="0" steps="16" name="" type="1">
          <note key="60" pos="240" pan="0" len="144" vol="100" />
        </pattern>
        <pattern pos="53760" muted="0" steps="16" name="" type="1">
          <note key="60" pos="48" pan="0" len="480" vol="100" />
        </pattern>
        <pattern pos="73728" muted="0" steps="16" name="" type="1">
          <note key="55" pos="1152" pan="0" len="1152" vol="100" />
        </pattern>
        <pattern pos="85248" muted="0" steps="16" name="" type="1">
          <note key="55" pos="1152" pan="0" len="1152" vol="100" />
        </pattern>
      </track>
      <track solo="0" name="41 (Ch15)" type="0" muted="0">
        <instrumenttrack usemasterpitch="1" pitch="0.0" basenote="57" pan="0" pitchrange="12" vol="30">
          <eldata />
          <instrument name="tripleoscillator" />
        </instrumenttrack>
        <pattern pos="258060" muted="0" steps="16" name="" type="1">
          <note key="60" pos="0" pan="0" len="2304" vol="100" />
        </pattern>
        <pattern pos="73728" muted="0" steps="16" name="" type="1">
          <note key="72" pos="1152" pan="0" len="1152" vol="100" />
        </pattern>
        <pattern pos="85248" muted="0" steps="16" name="" type="1">
          <note key="72" pos="1152" pan="0" len="1152" vol="100" />
        </pattern>
      </track>
      <track solo="0" name="42 (Ch1)" type="0" muted="0">
        <instrumenttrack usemasterpitch="1" pitch="0.0" basenote="57" pan="0" pitchrange="12" vol="30">
          <eldata />
          <instrument name="tripleoscillator" />
        </instrumenttrack>
        <pattern pos="276444" muted="0" steps="16" name="" type="1">
          <note key="59" pos="0" pan="0" len="72" vol="100" />
        </pattern>
        <pattern pos="145164" muted="0" steps="16" name="" type="1">
          <note key="49" pos="192" pan="0" len="156" vol="0" />
        </pattern>
        <pattern pos="156684" muted="0" steps="16" name="" type="1">
          <note key="49" pos="192" pan="0" len="156" vol="0" />
        </pattern>
        <pattern pos="271692" muted="0" steps="16" name="" type="1">
          <note key="59" pos="0" pan="0" len="72" vol="100" />
        </pattern>
      </track>
      <track solo="0" name="42 (Ch2)" type="0" muted="0">
        <instrumenttrack usemasterpitch="1" pitch="0.0" basenote="57" pan="0" pitchrange="12" vol="30">
          <eldata />
          <instrument name="tripleoscillator" />
        </instrumenttrack>
        <pattern pos="156684" muted="0" steps="16" name="" type="1">
          <note key="53" pos="192" pan="0" len="156" vol="0" />
        </pattern>
        <pattern pos="145164" muted="0" steps="16" name="" type="1">
          <note key="53" pos="192" pan="0" len="156" vol="0" />
        </pattern>
      </track>
      <track solo="0" name="42 (Ch3)" type="0" muted="0">
        <instrumenttrack usemasterpitch="1" pitch="0.0" basenote="57" pan="0" pitchrange="12" vol="30">
          <eldata />
          <instrument name="tripleoscillator" />
        </instrumenttrack>
        <pattern pos="157452" muted="0" steps="16" name="" type="1">
          <note key="49" pos="192" pan="0" len="156" vol="0" />
        </pattern>
        <pattern pos="145164" muted="0" steps="16" name="" type="1">
          <note key="56" pos="192" pan="0" len="156" vol="0" />
        </pattern>
        <pattern pos="156684" muted="0" steps="16" name="" type="1">
          <note key="56" pos="192" pan="0" len="156" vol="0" />
        </pattern>
      </track>
      <track solo="0" name="42 (Ch4)" type="0" muted="0">
        <instrumenttrack usemasterpitch="1" pitch="0.0" basenote="57" pan="0" pitchrange="12" vol="30">
          <eldata />
          <instrument name="tripleoscillator" />
        </instrumenttrack>
        <pattern pos="157452" muted="0" steps="16" name="" type="1">
          <note key="53" pos="192" pan="0" len="156" vol="0" />
        </pattern>
        <pattern pos="145164" muted="0" steps="16" name="" type="1">
          <note key="51" pos="192" pan="0" len="156" vol="0" />
        </pattern>
        <pattern pos="156684" muted="0" steps="16" name="" type="1">
          <note key="51" pos="192" pan="0" len="156" vol="0" />
        </pattern>
      </track>
      <track solo="0" name="42 (Ch5)" type="0" muted="0">
        <instrumenttrack usemasterpitch="1" pitch="0.0" basenote="57" pan="0" pitchrange="12" vol="30">
          <eldata />
          <instrument name="tripleoscillator" />
        </instrumenttrack>
        <pattern pos="270540" muted="0" steps="16" name="" type="1">
          <note key="53" pos="576" pan="0" len="144" vol="16" />
          <note key="49" pos="720" pan="0" len="144" vol="16" />
          <note key="44" pos="864" pan="0" len="144" vol="16" />
          <note key="63" pos="1008" pan="0" len="144" vol="16" />
        </pattern>
        <pattern pos="157452" muted="0" steps="16" name="" type="1">
          <note key="56" pos="192" pan="0" len="156" vol="0" />
        </pattern>
      </track>
      <track solo="0" name="42 (Ch6)" type="0" muted="0">
        <instrumenttrack usemasterpitch="1" pitch="0.0" basenote="57" pan="0" pitchrange="12" vol="30">
          <eldata />
          <instrument name="tripleoscillator" />
        </instrumenttrack>
        <pattern pos="270540" muted="0" steps="16" name="" type="1">
          <note key="46" pos="576" pan="0" len="144" vol="16" />
          <note key="44" pos="720" pan="0" len="144" vol="16" />
          <note key="48" pos="864" pan="0" len="144" vol="16" />
          <note key="58" pos="1008" pan="0" len="144" vol="16" />
        </pattern>
        <pattern pos="69120" muted="0" steps="16" name="" type="1">
          <note key="62" pos="0" pan="0" len="48" vol="100" />
          <note key="62" pos="72" pan="0" len="48" vol="100" />
          <note key="64" pos="120" pan="0" len="24" vol="100" />
          <note key="65" pos="144" pan="0" len="24" vol="100" />
          <note key="69" pos="216" pan="0" len="24" vol="100" />
          <note key="71" pos="288" pan="0" len="24" vol="100" />
          <note key="72" pos="360" pan="0" len="24" vol="100" />
          <note key="62" pos="576" pan="0" len="24" vol="100" />
          <note key="62" pos="648" pan="0" len="24" vol="100" />
          <note key="64" pos="696" pan="0" len="24" vol="100" />
          <note key="65" pos="720" pan="0" len="24" vol="100" />
          <note key="69" pos="792" pan="0" len="24" vol="100" />
          <note key="71" pos="864" pan="0" len="72" vol="100" />
          <note key="74" pos="936" pan="0" len="24" vol="100" />
        </pattern>
        <pattern pos="71424" muted="0" steps="16" name="" type="1">
          <note key="62" pos="0" pan="0" len="48" vol="100" />
          <note key="62" pos="72" pan="0" len="48" vol="100" />
          <note key="64" pos="120" pan="0" len="24" vol="100" />
          <note key="65" pos="144" pan="0" len="24" vol="100" />
          <note key="69" pos="216" pan="0" len="24" vol="100" />
          <note key="71" pos="288" pan="0" len="24" vol="100" />
          <note key="72" pos="360" pan="0" len="24" vol="100" />
          <note key="62" pos="576" pan="0" len="24" vol="100" />
          <note key="62" pos="648" pan="0" len="24" vol="100" />
          <note key="64" pos="696" pan="0" len="24" vol="100" />
          <note key="65" pos="720" pan="0" len="24" vol="100" />
          <note key="69" pos="792" pan="0" len="24" vol="100" />
          <note key="71" pos="864" pan="0" len="72" vol="100" />
          <note key="74" pos="936" pan="0" len="24" vol="100" />
        </pattern>
        <pattern pos="80640" muted="0" steps="16" name="" type="1">
          <note key="62" pos="0" pan="0" len="48" vol="100" />
          <note key="62" pos="72" pan="0" len="48" vol="100" />
          <note key="64" pos="120" pan="0" len="24" vol="100" />
          <note key="65" pos="144" pan="0" len="24" vol="100" />
          <note key="69" pos="216" pan="0" len="24" vol="100" />
          <note key="71" pos="288" pan="0" len="24" vol="100" />
          <note key="72" pos="360" pan="0" len="24" vol="100" />
          <note key="62" pos="576" pan="0" len="24" vol="100" />
          <note key="62" pos="648" pan="0" len="24" vol="100" />
          <note key="64" pos="696" pan="0" len="24" vol="100" />
          <note key="65" pos="720" pan="0" len="24" vol="100" />
          <note key="69" pos="792" pan="0" len="24" vol="100" />
          <note key="71" pos="864" pan="0" len="72" vol="100" />
          <note key="74" pos="936" pan="0" len="24" vol="100" />
        </pattern>
        <pattern pos="82944" muted="0" steps="16" name="" type="1">
          <note key="62" pos="0" pan="0" len="48" vol="100" />
          <note key="62" pos="72" pan="0" len="48" vol="100" />
          <note key="64" pos="120" pan="0" len="24" vol="100" />
          <note key="65" pos="144" pan="0" len="24" vol="100" />
          <note key="69" pos="216" pan="0" len="24" vol="100" />
          <note key="71" pos="288" pan="0" len="24" vol="100" />
          <note key="72" pos="360" pan="0" len="24" vol="100" />
          <note key="62" pos="576" pan="0" len="24" vol="100" />
          <note key="62" pos="648" pan="0" len="24" vol="100" />
          <note key="64" pos="696" pan="0" len="24" vol="100" />
          <note key="65" pos="720" pan="0" len="24" vol="100" />
          <note key="69" pos="792" pan="0" len="24" vol="100" />
          <note key="71" pos="864" pan="0" len="72" vol="100" />
          <note key="74" pos="936" pan="0" len="24" vol="100" />
        </pattern>
        <pattern pos="157452" muted="0" steps="16" name="" type="1">
          <note key="51" pos="192" pan="0" len="156" vol="0" />
        </pattern>
      </track>
      <track solo="0" name="42 (Ch7)" type="0" muted="0">
        <instrumenttrack usemasterpitch="1" pitch="0.0" basenote="57" pan="0" pitchrange="12" vol="30">
          <eldata />
          <instrument name="tripleoscillator" />
        </instrumenttrack>
        <pattern pos="270540" muted="0" steps="16" name="" type="1">
          <note key="51" pos="576" pan="0" len="144" vol="16" />
          <note key="41" pos="720" pan="0" len="144" vol="16" />
          <note key="51" pos="864" pan="0" len="144" vol="16" />
          <note key="51" pos="1008" pan="0" len="144" vol="16" />
        </pattern>
      </track>
      <track solo="0" name="42 (Ch8)" type="0" muted="0">
        <instrumenttrack usemasterpitch="1" pitch="0.0" basenote="57" pan="0" pitchrange="12" vol="30">
          <eldata />
          <instrument name="tripleoscillator" />
        </instrumenttrack>
        <pattern pos="195852" muted="0" steps="16" name="" type="1">
          <note key="59" pos="384" pan="0" len="72" vol="34" />
          <note key="61" pos="456" pan="0" len="72" vol="34" />
          <note key="64" pos="528" pan="0" len="48" vol="34" />
          <note key="66" pos="576" pan="0" len="72" vol="34" />
          <note key="64" pos="648" pan="0" len="12" vol="34" />
          <note key="59" pos="1152" pan="0" len="72" vol="34" />
          <note key="61" pos="1224" pan="0" len="72" vol="34" />
          <note key="64" pos="1296" pan="0" len="48" vol="34" />
          <note key="66" pos="1344" pan="0" len="72" vol="34" />
          <note key="64" pos="1416" pan="0" len="12" vol="34" />
        </pattern>
        <pattern pos="191244" muted="0" steps="16" name="" type="1">
          <note key="59" pos="384" pan="0" len="72" vol="34" />
          <note key="61" pos="456" pan="0" len="72" vol="34" />
          <note key="64" pos="528" pan="0" len="48" vol="34" />
          <note key="66" pos="576" pan="0" len="72" vol="34" />
          <note key="64" pos="648" pan="0" len="12" vol="34" />
          <note key="59" pos="1152" pan="0" len="72" vol="34" />
          <note key="61" pos="1224" pan="0" len="72" vol="34" />
          <note key="64" pos="1296" pan="0" len="48" vol="34" />
          <note key="66" pos="1344" pan="0" len="72" vol="34" />
          <note key="64" pos="1416" pan="0" len="12" vol="34" />
        </pattern>
      </track>
      <track solo="0" name="42 (Ch16)" type="0" muted="0">
        <instrumenttrack usemasterpitch="1" pitch="0.0" basenote="57" pan="0" pitchrange="12" vol="30">
          <eldata />
          <instrument name="tripleoscillator" />
        </instrumenttrack>
        <pattern pos="276444" muted="0" steps="16" name="" type="1">
          <note key="52" pos="0" pan="0" len="60" vol="100" />
        </pattern>
        <pattern pos="271692" muted="0" steps="16" name="" type="1">
          <note key="52" pos="0" pan="0" len="60" vol="100" />
        </pattern>
        <pattern pos="274140" muted="0" steps="16" name="" type="1">
          <note key="44" pos="0" pan="0" len="24" vol="100" />
        </pattern>
      </track>
      <track solo="0" name="42 (Ch17)" type="0" muted="0">
        <instrumenttrack usemasterpitch="1" pitch="0.0" basenote="57" pan="0" pitchrange="12" vol="30">
          <eldata />
          <instrument name="tripleoscillator" />
        </instrumenttrack>
        <pattern pos="274140" muted="0" steps="16" name="" type="1">
          <note key="51" pos="0" pan="0" len="24" vol="100" />
        </pattern>
      </track>
      <track solo="0" name="42 (Ch18)" type="0" muted="0">
        <instrumenttrack usemasterpitch="1" pitch="0.0" basenote="57" pan="0" pitchrange="12" vol="30">
          <eldata />
          <instrument name="tripleoscillator" />
        </instrumenttrack>
        <pattern pos="274140" muted="0" steps="16" name="" type="1">
          <note key="56" pos="0" pan="0" len="24" vol="100" />
        </pattern>
      </track>
      <track solo="0" name="43 (Ch6)" type="0" muted="0">
        <instrumenttrack usemasterpitch="1" pitch="0.0" basenote="57" pan="0" pitchrange="12" vol="30">
          <eldata />
          <instrument name="tripleoscillator" />
        </instrumenttrack>
        <pattern pos="58752" muted="0" steps="16" name="" type="1">
          <note key="60" pos="1080" pan="0" len="72" vol="17" />
        </pattern>
        <pattern pos="15360" muted="0" steps="16" name="" type="1">
          <note key="41" pos="0" pan="0" len="192" vol="33" />
        </pattern>
      </track>
      <track solo="0" name="43 (Ch7)" type="0" muted="0">
        <instrumenttrack usemasterpitch="1" pitch="0.0" basenote="57" pan="0" pitchrange="12" vol="30">
          <eldata />
          <instrument name="tripleoscillator" />
        </instrumenttrack>
        <pattern pos="56448" muted="0" steps="16" name="" type="1">
          <note key="60" pos="1104" pan="0" len="48" vol="34" />
        </pattern>
        <pattern pos="15360" muted="0" steps="16" name="" type="1">
          <note key="48" pos="0" pan="0" len="192" vol="33" />
        </pattern>
      </track>
      <track solo="0" name="43 (Ch8)" type="0" muted="0">
        <instrumenttrack usemasterpitch="1" pitch="0.0" basenote="57" pan="0" pitchrange="12" vol="30">
          <eldata />
          <instrument name="tripleoscillator" />
        </instrumenttrack>
        <pattern pos="237324" muted="0" steps="16" name="" type="1">
          <note key="65" pos="0" pan="0" len="96" vol="100" />
        </pattern>
      </track>
      <track solo="0" name="43 (Ch9)" type="0" muted="0">
        <instrumenttrack usemasterpitch="1" pitch="0.0" basenote="57" pan="0" pitchrange="12" vol="30">
          <eldata />
          <instrument name="tripleoscillator" />
        </instrumenttrack>
        <pattern pos="169740" muted="0" steps="16" name="" type="1">
          <note key="60" pos="480" pan="0" len="96" vol="100" />
        </pattern>
        <pattern pos="7680" muted="0" steps="16" name="" type="1">
          <note key="48" pos="2880" pan="0" len="192" vol="100" />
        </pattern>
        <pattern pos="107520" muted="0" steps="16" name="" type="1">
          <note key="74" pos="624" pan="0" len="144" vol="100" />
        </pattern>
        <pattern pos="109056" muted="0" steps="16" name="" type="1">
          <note key="74" pos="624" pan="0" len="144" vol="100" />
        </pattern>
      </track>
      <track solo="0" name="43 (Ch10)" type="0" muted="0">
        <instrumenttrack usemasterpitch="1" pitch="0.0" basenote="57" pan="0" pitchrange="12" vol="30">
          <eldata />
          <instrument name="tripleoscillator" />
        </instrumenttrack>
        <pattern pos="7680" muted="0" steps="16" name="" type="1">
          <note key="52" pos="2880" pan="0" len="192" vol="100" />
        </pattern>
      </track>
      <track solo="0" name="43 (Ch11)" type="0" muted="0">
        <instrumenttrack usemasterpitch="1" pitch="0.0" basenote="57" pan="0" pitchrange="12" vol="30">
          <eldata />
          <instrument name="tripleoscillator" />
        </instrumenttrack>
        <pattern pos="97536" muted="0" steps="16" name="" type="1">
          <note key="52" pos="576" pan="0" len="192" vol="100" />
        </pattern>
        <pattern pos="6144" muted="0" steps="16" name="" type="1">
          <note key="60" pos="672" pan="0" len="96" vol="100" />
          <note key="60" pos="1440" pan="0" len="96" vol="62" />
        </pattern>
        <pattern pos="10752" muted="0" steps="16" name="" type="1">
          <note key="60" pos="672" pan="0" len="96" vol="100" />
          <note key="60" pos="1440" pan="0" len="96" vol="62" />
        </pattern>
      </track>
      <track solo="0" name="43 (Ch13)" type="0" muted="0">
        <instrumenttrack usemasterpitch="1" pitch="0.0" basenote="57" pan="0" pitchrange="12" vol="30">
          <eldata />
          <instrument name="tripleoscillator" />
        </instrumenttrack>
        <pattern pos="152076" muted="0" steps="16" name="" type="1">
          <note key="51" pos="0" pan="0" len="120" vol="47" />
        </pattern>
        <pattern pos="150540" muted="0" steps="16" name="" type="1">
          <note key="51" pos="0" pan="0" len="120" vol="47" />
        </pattern>
      </track>
      <track solo="0" name="43 (Ch14)" type="0" muted="0">
        <instrumenttrack usemasterpitch="1" pitch="0.0" basenote="57" pan="0" pitchrange="12" vol="30">
          <eldata />
          <instrument name="tripleoscillator" />
        </instrumenttrack>
        <pattern pos="169740" muted="0" steps="16" name="" type="1">
          <note key="60" pos="1824" pan="0" len="96" vol="100" />
        </pattern>
        <pattern pos="12288" muted="0" steps="16" name="" type="1">
          <note key="60" pos="2592" pan="0" len="96" vol="33" />
        </pattern>
      </track>
      <track solo="0" name="43 (Ch15)" type="0" muted="0">
        <instrumenttrack usemasterpitch="1" pitch="0.0" basenote="57" pan="0" pitchrange="12" vol="30">
          <eldata />
          <instrument name="tripleoscillator" />
        </instrumenttrack>
        <pattern pos="276444" muted="0" steps="16" name="" type="1">
          <note key="64" pos="504" pan="0" len="72" vol="100" />
        </pattern>
        <pattern pos="10752" muted="0" steps="16" name="" type="1">
          <note key="53" pos="1248" pan="0" len="288" vol="38" />
        </pattern>
        <pattern pos="271692" muted="0" steps="16" name="" type="1">
          <note key="64" pos="504" pan="0" len="72" vol="100" />
        </pattern>
      </track>
      <track solo="0" name="43 (Ch16)" type="0" muted="0">
        <instrumenttrack usemasterpitch="1" pitch="0.0" basenote="57" pan="0" pitchrange="12" vol="30">
          <eldata />
          <instrument name="tripleoscillator" />
        </instrumenttrack>
        <pattern pos="220428" muted="0" steps="16" name="" type="1">
          <note key="60" pos="288" pan="0" len="96" vol="17" />
        </pattern>
        <pattern pos="206604" muted="0" steps="16" name="" type="1">
          <note key="60" pos="1440" pan="0" len="96" vol="50" />
        </pattern>
      </track>
      <track solo="0" name="44 (Ch4)" type="0" muted="0">
        <instrumenttrack usemasterpitch="1" pitch="0.0" basenote="57" pan="0" pitchrange="12" vol="30">
          <eldata />
          <instrument name="tripleoscillator" />
        </instrumenttrack>
        <pattern pos="105984" muted="0" steps="16" name="" type="1">
          <note key="64" pos="0" pan="0" len="192" vol="100" />
          <note key="64" pos="192" pan="0" len="192" vol="100" />
          <note key="64" pos="384" pan="0" len="144" vol="100" />
          <note key="64" pos="528" pan="0" len="24" vol="100" />
          <note key="64" pos="552" pan="0" len="24" vol="100" />
          <note key="64" pos="576" pan="0" len="192" vol="100" />
          <note key="64" pos="768" pan="0" len="768" vol="100" />
        </pattern>
        <pattern pos="101376" muted="0" steps="16" name="" type="1">
          <note key="64" pos="0" pan="0" len="192" vol="100" />
          <note key="64" pos="192" pan="0" len="192" vol="100" />
          <note key="64" pos="384" pan="0" len="144" vol="100" />
          <note key="64" pos="528" pan="0" len="24" vol="100" />
          <note key="64" pos="552" pan="0" len="24" vol="100" />
          <note key="64" pos="576" pan="0" len="192" vol="100" />
          <note key="64" pos="768" pan="0" len="192" vol="100" />
          <note key="64" pos="960" pan="0" len="192" vol="100" />
          <note key="64" pos="1152" pan="0" len="144" vol="100" />
          <note key="64" pos="1296" pan="0" len="24" vol="100" />
          <note key="64" pos="1320" pan="0" len="216" vol="100" />
        </pattern>
        <pattern pos="102912" muted="0" steps="16" name="" type="1">
          <note key="64" pos="0" pan="0" len="192" vol="100" />
          <note key="64" pos="192" pan="0" len="192" vol="100" />
          <note key="64" pos="384" pan="0" len="144" vol="100" />
          <note key="64" pos="528" pan="0" len="24" vol="100" />
          <note key="64" pos="552" pan="0" len="24" vol="100" />
          <note key="64" pos="576" pan="0" len="192" vol="100" />
          <note key="64" pos="768" pan="0" len="768" vol="100" />
        </pattern>
        <pattern pos="104448" muted="0" steps="16" name="" type="1">
          <note key="64" pos="0" pan="0" len="192" vol="100" />
          <note key="64" pos="192" pan="0" len="192" vol="100" />
          <note key="64" pos="384" pan="0" len="144" vol="100" />
          <note key="64" pos="528" pan="0" len="24" vol="100" />
          <note key="64" pos="552" pan="0" len="24" vol="100" />
          <note key="64" pos="576" pan="0" len="192" vol="100" />
          <note key="64" pos="768" pan="0" len="192" vol="100" />
          <note key="64" pos="960" pan="0" len="192" vol="100" />
          <note key="64" pos="1152" pan="0" len="144" vol="100" />
          <note key="64" pos="1296" pan="0" len="24" vol="100" />
          <note key="64" pos="1320" pan="0" len="216" vol="100" />
        </pattern>
      </track>
      <track solo="0" name="44 (Ch7)" type="0" muted="0">
        <instrumenttrack usemasterpitch="1" pitch="0.0" basenote="57" pan="0" pitchrange="12" vol="30">
          <eldata />
          <instrument name="tripleoscillator" />
        </instrumenttrack>
        <pattern pos="29184" muted="0" steps="16" name="" type="1">
          <note key="60" pos="384" pan="0" len="1152" vol="100" />
        </pattern>
      </track>
      <track solo="0" name="44 (Ch13)" type="0" muted="0">
        <instrumenttrack usemasterpitch="1" pitch="0.0" basenote="57" pan="0" pitchrange="12" vol="30">
          <eldata />
          <instrument name="tripleoscillator" />
        </instrumenttrack>
        <pattern pos="12288" muted="0" steps="16" name="" type="1">
          <note key="60" pos="96" pan="0" len="96" vol="100" />
          <note key="60" pos="288" pan="0" len="96" vol="100" />
          <note key="60" pos="480" pan="0" len="96" vol="100" />
          <note key="60" pos="672" pan="0" len="96" vol="100" />
          <note key="60" pos="864" pan="0" len="96" vol="100" />
          <note key="60" pos="1056" pan="0" len="96" vol="100" />
          <note key="60" pos="1248" pan="0" len="96" vol="100" />
          <note key="60" pos="1440" pan="0" len="96" vol="100" />
          <note key="60" pos="1632" pan="0" len="96" vol="100" />
          <note key="60" pos="1824" pan="0" len="96" vol="100" />
          <note key="60" pos="2016" pan="0" len="96" vol="100" />
          <note key="60" pos="2208" pan="0" len="96" vol="100" />
          <note key="60" pos="2400" pan="0" len="96" vol="100" />
          <note key="60" pos="2592" pan="0" len="96" vol="100" />
          <note key="60" pos="2784" pan="0" len="96" vol="100" />
        </pattern>
        <pattern pos="7680" muted="0" steps="16" name="" type="1">
          <note key="60" pos="96" pan="0" len="96" vol="100" />
          <note key="60" pos="288" pan="0" len="96" vol="100" />
          <note key="60" pos="480" pan="0" len="96" vol="100" />
          <note key="60" pos="672" pan="0" len="96" vol="100" />
          <note key="60" pos="864" pan="0" len="96" vol="100" />
          <note key="60" pos="1056" pan="0" len="96" vol="100" />
          <note key="60" pos="1248" pan="0" len="96" vol="100" />
          <note key="60" pos="1440" pan="0" len="96" vol="100" />
          <note key="60" pos="1632" pan="0" len="96" vol="100" />
          <note key="60" pos="1824" pan="0" len="96" vol="100" />
          <note key="60" pos="2016" pan="0" len="96" vol="100" />
          <note key="60" pos="2208" pan="0" len="96" vol="100" />
          <note key="60" pos="2400" pan="0" len="96" vol="100" />
          <note key="60" pos="2592" pan="0" len="96" vol="100" />
          <note key="60" pos="2784" pan="0" len="96" vol="100" />
          <note key="60" pos="2976" pan="0" len="96" vol="100" />
        </pattern>
      </track>
      <track solo="0" name="45 (Ch3)" type="0" muted="0">
        <instrumenttrack usemasterpitch="1" pitch="0.0" basenote="57" pan="0" pitchrange="12" vol="30">
          <eldata />
          <instrument name="tripleoscillator" />
        </instrumenttrack>
        <pattern pos="142860" muted="0" steps="16" name="" type="1">
          <note key="69" pos="840" pan="0" len="12" vol="17" />
          <note key="67" pos="852" pan="0" len="12" vol="34" />
          <note key="57" pos="948" pan="0" len="12" vol="100" />
        </pattern>
        <pattern pos="136716" muted="0" steps="16" name="" type="1">
          <note key="69" pos="840" pan="0" len="12" vol="17" />
          <note key="67" pos="852" pan="0" len="12" vol="34" />
          <note key="57" pos="948" pan="0" len="12" vol="100" />
        </pattern>
      </track>
      <track solo="0" name="45 (Ch11)" type="0" muted="0">
        <instrumenttrack usemasterpitch="1" pitch="0.0" basenote="57" pan="0" pitchrange="12" vol="30">
          <eldata />
          <instrument name="tripleoscillator" />
        </instrumenttrack>
        <pattern pos="156684" muted="0" steps="16" name="" type="1">
          <note key="56" pos="0" pan="0" len="24" vol="22" />
          <note key="55" pos="24" pan="0" len="24" vol="33" />
          <note key="51" pos="48" pan="0" len="24" vol="70" />
          <note key="49" pos="72" pan="0" len="24" vol="33" />
          <note key="58" pos="96" pan="0" len="24" vol="70" />
          <note key="56" pos="120" pan="0" len="24" vol="33" />
          <note key="55" pos="144" pan="0" len="24" vol="70" />
          <note key="51" pos="168" pan="0" len="24" vol="44" />
          <note key="56" pos="192" pan="0" len="24" vol="22" />
          <note key="55" pos="216" pan="0" len="24" vol="33" />
          <note key="51" pos="240" pan="0" len="24" vol="70" />
          <note key="49" pos="264" pan="0" len="24" vol="33" />
          <note key="58" pos="288" pan="0" len="24" vol="70" />
          <note key="56" pos="312" pan="0" len="24" vol="33" />
          <note key="55" pos="336" pan="0" len="24" vol="70" />
          <note key="51" pos="360" pan="0" len="24" vol="44" />
          <note key="56" pos="384" pan="0" len="24" vol="70" />
          <note key="55" pos="408" pan="0" len="24" vol="33" />
          <note key="58" pos="432" pan="0" len="24" vol="70" />
          <note key="55" pos="456" pan="0" len="24" vol="44" />
          <note key="61" pos="480" pan="0" len="24" vol="55" />
          <note key="63" pos="504" pan="0" len="24" vol="70" />
          <note key="68" pos="528" pan="0" len="24" vol="70" />
          <note key="67" pos="552" pan="0" len="24" vol="33" />
          <note key="49" pos="576" pan="0" len="24" vol="70" />
          <note key="65" pos="600" pan="0" len="24" vol="33" />
          <note key="67" pos="624" pan="0" len="24" vol="44" />
          <note key="70" pos="648" pan="0" len="24" vol="70" />
          <note key="53" pos="672" pan="0" len="24" vol="70" />
          <note key="56" pos="696" pan="0" len="24" vol="44" />
          <note key="63" pos="720" pan="0" len="24" vol="70" />
          <note key="58" pos="744" pan="0" len="24" vol="70" />
        </pattern>
        <pattern pos="145164" muted="0" steps="16" name="" type="1">
          <note key="56" pos="0" pan="0" len="24" vol="22" />
          <note key="55" pos="24" pan="0" len="24" vol="33" />
          <note key="51" pos="48" pan="0" len="24" vol="70" />
          <note key="49" pos="72" pan="0" len="24" vol="33" />
          <note key="58" pos="96" pan="0" len="24" vol="70" />
          <note key="56" pos="120" pan="0" len="24" vol="33" />
          <note key="55" pos="144" pan="0" len="24" vol="70" />
          <note key="51" pos="168" pan="0" len="24" vol="44" />
          <note key="56" pos="192" pan="0" len="24" vol="22" />
          <note key="55" pos="216" pan="0" len="24" vol="33" />
          <note key="51" pos="240" pan="0" len="24" vol="70" />
          <note key="49" pos="264" pan="0" len="24" vol="33" />
          <note key="58" pos="288" pan="0" len="24" vol="70" />
          <note key="56" pos="312" pan="0" len="24" vol="33" />
          <note key="55" pos="336" pan="0" len="24" vol="70" />
          <note key="51" pos="360" pan="0" len="24" vol="44" />
          <note key="56" pos="384" pan="0" len="24" vol="70" />
          <note key="55" pos="408" pan="0" len="24" vol="33" />
          <note key="58" pos="432" pan="0" len="24" vol="70" />
          <note key="55" pos="456" pan="0" len="24" vol="44" />
          <note key="61" pos="480" pan="0" len="24" vol="55" />
          <note key="63" pos="504" pan="0" len="24" vol="70" />
          <note key="68" pos="528" pan="0" len="24" vol="70" />
          <note key="67" pos="552" pan="0" len="24" vol="33" />
          <note key="49" pos="576" pan="0" len="24" vol="70" />
          <note key="65" pos="600" pan="0" len="24" vol="33" />
          <note key="67" pos="624" pan="0" len="24" vol="44" />
          <note key="70" pos="648" pan="0" len="24" vol="70" />
          <note key="53" pos="672" pan="0" len="24" vol="70" />
          <note key="56" pos="696" pan="0" len="24" vol="44" />
          <note key="63" pos="720" pan="0" len="24" vol="70" />
          <note key="58" pos="744" pan="0" len="24" vol="70" />
        </pattern>
      </track>
      <track solo="0" name="45 (Ch12)" type="0" muted="0">
        <instrumenttrack usemasterpitch="1" pitch="0.0" basenote="57" pan="0" pitchrange="12" vol="30">
          <eldata />
          <instrument name="tripleoscillator" />
        </instrumenttrack>
        <pattern pos="217356" muted="0" steps="16" name="" type="1">
          <note key="68" pos="1152" pan="0" len="24" vol="100" />
          <note key="67" pos="1176" pan="0" len="24" vol="100" />
        </pattern>
        <pattern pos="6144" muted="0" steps="16" name="" type="1">
          <note key="62" pos="792" pan="0" len="24" vol="100" />
          <note key="63" pos="816" pan="0" len="48" vol="100" />
          <note key="65" pos="864" pan="0" len="24" vol="100" />
          <note key="63" pos="888" pan="0" len="24" vol="100" />
          <note key="62" pos="912" pan="0" len="24" vol="100" />
          <note key="63" pos="936" pan="0" len="48" vol="100" />
          <note key="63" pos="984" pan="0" len="24" vol="100" />
          <note key="65" pos="1008" pan="0" len="48" vol="100" />
          <note key="67" pos="1056" pan="0" len="24" vol="100" />
          <note key="65" pos="1080" pan="0" len="24" vol="100" />
          <note key="63" pos="1104" pan="0" len="24" vol="100" />
          <note key="65" pos="1128" pan="0" len="48" vol="100" />
          <note key="63" pos="1176" pan="0" len="24" vol="100" />
          <note key="65" pos="1200" pan="0" len="48" vol="100" />
          <note key="67" pos="1248" pan="0" len="24" vol="100" />
          <note key="65" pos="1272" pan="0" len="24" vol="100" />
          <note key="63" pos="1296" pan="0" len="24" vol="100" />
          <note key="65" pos="1320" pan="0" len="48" vol="100" />
          <note key="68" pos="1368" pan="0" len="24" vol="100" />
          <note key="70" pos="1392" pan="0" len="48" vol="100" />
          <note key="72" pos="1440" pan="0" len="24" vol="100" />
          <note key="70" pos="1464" pan="0" len="24" vol="100" />
          <note key="68" pos="1488" pan="0" len="24" vol="100" />
          <note key="70" pos="1512" pan="0" len="24" vol="100" />
        </pattern>
        <pattern pos="145164" muted="0" steps="16" name="" type="1">
          <note key="56" pos="36" pan="0" len="24" vol="11" />
          <note key="55" pos="60" pan="0" len="24" vol="17" />
          <note key="51" pos="84" pan="0" len="24" vol="34" />
          <note key="49" pos="108" pan="0" len="24" vol="17" />
          <note key="58" pos="132" pan="0" len="24" vol="34" />
          <note key="56" pos="156" pan="0" len="24" vol="17" />
          <note key="55" pos="180" pan="0" len="24" vol="34" />
          <note key="51" pos="204" pan="0" len="24" vol="22" />
          <note key="56" pos="228" pan="0" len="24" vol="11" />
          <note key="55" pos="252" pan="0" len="24" vol="17" />
          <note key="51" pos="276" pan="0" len="24" vol="34" />
          <note key="49" pos="300" pan="0" len="24" vol="17" />
          <note key="58" pos="324" pan="0" len="24" vol="34" />
          <note key="56" pos="348" pan="0" len="24" vol="17" />
          <note key="55" pos="372" pan="0" len="48" vol="34" />
          <note key="56" pos="420" pan="0" len="24" vol="70" />
          <note key="55" pos="444" pan="0" len="24" vol="33" />
          <note key="58" pos="468" pan="0" len="24" vol="70" />
          <note key="55" pos="492" pan="0" len="24" vol="44" />
          <note key="61" pos="516" pan="0" len="24" vol="55" />
          <note key="63" pos="540" pan="0" len="24" vol="70" />
          <note key="68" pos="564" pan="0" len="24" vol="70" />
          <note key="67" pos="588" pan="0" len="24" vol="33" />
          <note key="49" pos="612" pan="0" len="24" vol="70" />
          <note key="65" pos="636" pan="0" len="24" vol="33" />
          <note key="67" pos="660" pan="0" len="24" vol="44" />
          <note key="70" pos="684" pan="0" len="24" vol="70" />
          <note key="53" pos="708" pan="0" len="24" vol="70" />
          <note key="56" pos="732" pan="0" len="24" vol="44" />
          <note key="63" pos="756" pan="0" len="12" vol="70" />
        </pattern>
        <pattern pos="156684" muted="0" steps="16" name="" type="1">
          <note key="56" pos="36" pan="0" len="24" vol="11" />
          <note key="55" pos="60" pan="0" len="24" vol="17" />
          <note key="51" pos="84" pan="0" len="24" vol="34" />
          <note key="49" pos="108" pan="0" len="24" vol="17" />
          <note key="58" pos="132" pan="0" len="24" vol="34" />
          <note key="56" pos="156" pan="0" len="24" vol="17" />
          <note key="55" pos="180" pan="0" len="24" vol="34" />
          <note key="51" pos="204" pan="0" len="24" vol="22" />
          <note key="56" pos="228" pan="0" len="24" vol="11" />
          <note key="55" pos="252" pan="0" len="24" vol="17" />
          <note key="51" pos="276" pan="0" len="24" vol="34" />
          <note key="49" pos="300" pan="0" len="24" vol="17" />
          <note key="58" pos="324" pan="0" len="24" vol="34" />
          <note key="56" pos="348" pan="0" len="24" vol="17" />
          <note key="55" pos="372" pan="0" len="48" vol="34" />
          <note key="56" pos="420" pan="0" len="24" vol="70" />
          <note key="55" pos="444" pan="0" len="24" vol="33" />
          <note key="58" pos="468" pan="0" len="24" vol="70" />
          <note key="55" pos="492" pan="0" len="24" vol="44" />
          <note key="61" pos="516" pan="0" len="24" vol="55" />
          <note key="63" pos="540" pan="0" len="24" vol="70" />
          <note key="68" pos="564" pan="0" len="24" vol="70" />
          <note key="67" pos="588" pan="0" len="24" vol="33" />
          <note key="49" pos="612" pan="0" len="24" vol="70" />
          <note key="65" pos="636" pan="0" len="24" vol="33" />
          <note key="67" pos="660" pan="0" len="24" vol="44" />
          <note key="70" pos="684" pan="0" len="24" vol="70" />
          <note key="53" pos="708" pan="0" len="24" vol="70" />
          <note key="56" pos="732" pan="0" len="24" vol="44" />
          <note key="63" pos="756" pan="0" len="12" vol="70" />
        </pattern>
        <pattern pos="208140" muted="0" steps="16" name="" type="1">
          <note key="68" pos="1152" pan="0" len="24" vol="100" />
          <note key="67" pos="1176" pan="0" len="24" vol="100" />
        </pattern>
        <pattern pos="209676" muted="0" steps="16" name="" type="1">
          <note key="68" pos="1152" pan="0" len="24" vol="100" />
          <note key="67" pos="1176" pan="0" len="24" vol="100" />
        </pattern>
        <pattern pos="215820" muted="0" steps="16" name="" type="1">
          <note key="68" pos="1152" pan="0" len="24" vol="100" />
          <note key="67" pos="1176" pan="0" len="24" vol="100" />
        </pattern>
      </track>
      <track solo="0" name="45 (Ch14)" type="0" muted="0">
        <instrumenttrack usemasterpitch="1" pitch="0.0" basenote="57" pan="0" pitchrange="12" vol="30">
          <eldata />
          <instrument name="tripleoscillator" />
        </instrumenttrack>
        <pattern pos="6144" muted="0" steps="16" name="" type="1">
          <note key="50" pos="24" pan="0" len="24" vol="100" />
          <note key="51" pos="48" pan="0" len="48" vol="100" />
          <note key="53" pos="96" pan="0" len="24" vol="100" />
          <note key="51" pos="120" pan="0" len="24" vol="100" />
          <note key="50" pos="144" pan="0" len="24" vol="100" />
          <note key="51" pos="168" pan="0" len="240" vol="100" />
          <note key="51" pos="408" pan="0" len="24" vol="100" />
          <note key="53" pos="432" pan="0" len="48" vol="100" />
          <note key="55" pos="480" pan="0" len="24" vol="100" />
          <note key="53" pos="504" pan="0" len="24" vol="100" />
          <note key="51" pos="528" pan="0" len="24" vol="100" />
          <note key="53" pos="552" pan="0" len="216" vol="100" />
          <note key="50" pos="792" pan="0" len="24" vol="100" />
          <note key="51" pos="816" pan="0" len="48" vol="100" />
          <note key="53" pos="864" pan="0" len="24" vol="100" />
          <note key="51" pos="888" pan="0" len="24" vol="100" />
          <note key="50" pos="912" pan="0" len="24" vol="100" />
          <note key="51" pos="936" pan="0" len="240" vol="100" />
          <note key="51" pos="1176" pan="0" len="24" vol="100" />
          <note key="53" pos="1200" pan="0" len="48" vol="100" />
          <note key="55" pos="1248" pan="0" len="24" vol="100" />
          <note key="53" pos="1272" pan="0" len="24" vol="100" />
          <note key="51" pos="1296" pan="0" len="24" vol="100" />
          <note key="53" pos="1320" pan="0" len="72" vol="100" />
        </pattern>
      </track>
      <track solo="0" name="45 (Ch15)" type="0" muted="0">
        <instrumenttrack usemasterpitch="1" pitch="0.0" basenote="57" pan="0" pitchrange="12" vol="30">
          <eldata />
          <instrument name="tripleoscillator" />
        </instrumenttrack>
        <pattern pos="87552" muted="0" steps="16" name="" type="1">
          <note key="65" pos="0" pan="0" len="72" vol="100" />
          <note key="67" pos="72" pan="0" len="72" vol="100" />
          <note key="69" pos="144" pan="0" len="72" vol="100" />
          <note key="72" pos="216" pan="0" len="72" vol="100" />
          <note key="67" pos="288" pan="0" len="252" vol="100" />
          <note key="69" pos="540" pan="0" len="36" vol="100" />
          <note key="74" pos="576" pan="0" len="240" vol="100" />
          <note key="69" pos="816" pan="0" len="48" vol="100" />
          <note key="74" pos="864" pan="0" len="252" vol="100" />
        </pattern>
        <pattern pos="76032" muted="0" steps="16" name="" type="1">
          <note key="65" pos="0" pan="0" len="72" vol="100" />
          <note key="67" pos="72" pan="0" len="72" vol="100" />
          <note key="69" pos="144" pan="0" len="72" vol="100" />
          <note key="72" pos="216" pan="0" len="72" vol="100" />
          <note key="67" pos="288" pan="0" len="252" vol="100" />
          <note key="69" pos="540" pan="0" len="36" vol="100" />
          <note key="74" pos="576" pan="0" len="240" vol="100" />
          <note key="69" pos="816" pan="0" len="48" vol="100" />
          <note key="74" pos="864" pan="0" len="252" vol="100" />
        </pattern>
      </track>
      <track solo="0" name="45 (Ch17)" type="0" muted="0">
        <instrumenttrack usemasterpitch="1" pitch="0.0" basenote="57" pan="0" pitchrange="12" vol="30">
          <eldata />
          <instrument name="tripleoscillator" />
        </instrumenttrack>
        <pattern pos="10752" muted="0" steps="16" name="" type="1">
          <note key="62" pos="792" pan="0" len="24" vol="100" />
          <note key="63" pos="816" pan="0" len="48" vol="100" />
          <note key="65" pos="864" pan="0" len="24" vol="100" />
          <note key="63" pos="888" pan="0" len="24" vol="100" />
          <note key="62" pos="912" pan="0" len="24" vol="100" />
          <note key="63" pos="936" pan="0" len="48" vol="100" />
          <note key="63" pos="984" pan="0" len="24" vol="100" />
          <note key="65" pos="1008" pan="0" len="48" vol="100" />
          <note key="67" pos="1056" pan="0" len="24" vol="100" />
          <note key="65" pos="1080" pan="0" len="24" vol="100" />
          <note key="63" pos="1104" pan="0" len="24" vol="100" />
          <note key="65" pos="1128" pan="0" len="48" vol="100" />
          <note key="63" pos="1176" pan="0" len="24" vol="100" />
          <note key="65" pos="1200" pan="0" len="48" vol="100" />
          <note key="67" pos="1248" pan="0" len="24" vol="100" />
          <note key="65" pos="1272" pan="0" len="24" vol="100" />
          <note key="63" pos="1296" pan="0" len="24" vol="100" />
          <note key="65" pos="1320" pan="0" len="48" vol="100" />
          <note key="68" pos="1368" pan="0" len="24" vol="100" />
          <note key="70" pos="1392" pan="0" len="48" vol="100" />
          <note key="72" pos="1440" pan="0" len="24" vol="100" />
          <note key="70" pos="1464" pan="0" len="24" vol="100" />
          <note key="68" pos="1488" pan="0" len="24" vol="100" />
          <note key="70" pos="1512" pan="0" len="24" vol="100" />
        </pattern>
      </track>
      <track solo="0" name="45 (Ch19)" type="0" muted="0">
        <instrumenttrack usemasterpitch="1" pitch="0.0" basenote="57" pan="0" pitchrange="12" vol="30">
          <eldata />
          <instrument name="tripleoscillator" />
        </instrumenttrack>
        <pattern pos="10752" muted="0" steps="16" name="" type="1">
          <note key="50" pos="24" pan="0" len="24" vol="100" />
          <note key="51" pos="48" pan="0" len="48" vol="100" />
          <note key="53" pos="96" pan="0" len="24" vol="100" />
          <note key="51" pos="120" pan="0" len="24" vol="100" />
          <note key="50" pos="144" pan="0" len="24" vol="100" />
          <note key="51" pos="168" pan="0" len="240" vol="100" />
          <note key="51" pos="408" pan="0" len="24" vol="100" />
          <note key="53" pos="432" pan="0" len="48" vol="100" />
          <note key="55" pos="480" pan="0" len="24" vol="100" />
          <note key="53" pos="504" pan="0" len="24" vol="100" />
          <note key="51" pos="528" pan="0" len="24" vol="100" />
          <note key="53" pos="552" pan="0" len="216" vol="100" />
          <note key="50" pos="792" pan="0" len="24" vol="100" />
          <note key="51" pos="816" pan="0" len="48" vol="100" />
          <note key="53" pos="864" pan="0" len="24" vol="100" />
          <note key="51" pos="888" pan="0" len="24" vol="100" />
          <note key="50" pos="912" pan="0" len="24" vol="100" />
          <note key="51" pos="936" pan="0" len="240" vol="100" />
          <note key="51" pos="1176" pan="0" len="24" vol="100" />
          <note key="53" pos="1200" pan="0" len="48" vol="100" />
          <note key="55" pos="1248" pan="0" len="24" vol="100" />
          <note key="53" pos="1272" pan="0" len="24" vol="100" />
          <note key="51" pos="1296" pan="0" len="24" vol="100" />
          <note key="53" pos="1320" pan="0" len="72" vol="100" />
        </pattern>
      </track>
      <track solo="0" name="46 (Ch1)" type="0" muted="0">
        <instrumenttrack usemasterpitch="1" pitch="0.0" basenote="57" pan="0" pitchrange="12" vol="30">
          <eldata />
          <instrument name="tripleoscillator" />
        </instrumenttrack>
        <pattern pos="201228" muted="0" steps="16" name="" type="1">
          <note key="61" pos="0" pan="0" len="24" vol="100" />
          <note key="57" pos="24" pan="0" len="24" vol="100" />
          <note key="52" pos="48" pan="0" len="24" vol="100" />
          <note key="62" pos="72" pan="0" len="24" vol="100" />
          <note key="55" pos="120" pan="0" len="24" vol="100" />
          <note key="52" pos="168" pan="0" len="600" vol="100" />
        </pattern>
        <pattern pos="141324" muted="0" steps="16" name="" type="1">
          <note key="15" pos="0" pan="0" len="192" vol="100" />
          <note key="17" pos="192" pan="0" len="168" vol="100" />
          <note key="14" pos="360" pan="0" len="24" vol="100" />
          <note key="19" pos="384" pan="0" len="144" vol="100" />
          <note key="17" pos="528" pan="0" len="48" vol="100" />
          <note key="22" pos="576" pan="0" len="144" vol="100" />
          <note key="21" pos="720" pan="0" len="48" vol="100" />
          <note key="15" pos="768" pan="0" len="168" vol="100" />
          <note key="19" pos="936" pan="0" len="24" vol="100" />
          <note key="17" pos="960" pan="0" len="192" vol="100" />
          <note key="12" pos="1152" pan="0" len="192" vol="100" />
          <note key="15" pos="1344" pan="0" len="96" vol="100" />
          <note key="17" pos="1440" pan="0" len="96" vol="100" />
        </pattern>
        <pattern pos="142860" muted="0" steps="16" name="" type="1">
          <note key="15" pos="0" pan="0" len="192" vol="100" />
          <note key="17" pos="192" pan="0" len="192" vol="100" />
          <note key="19" pos="384" pan="0" len="192" vol="100" />
          <note key="22" pos="576" pan="0" len="192" vol="100" />
          <note key="15" pos="768" pan="0" len="192" vol="100" />
          <note key="17" pos="960" pan="0" len="192" vol="100" />
          <note key="19" pos="1152" pan="0" len="192" vol="100" />
          <note key="7" pos="1344" pan="0" len="192" vol="100" />
        </pattern>
        <pattern pos="186636" muted="0" steps="16" name="" type="1">
          <note key="62" pos="768" pan="0" len="24" vol="100" />
          <note key="55" pos="816" pan="0" len="24" vol="100" />
          <note key="52" pos="864" pan="0" len="24" vol="100" />
          <note key="54" pos="888" pan="0" len="24" vol="100" />
          <note key="62" pos="960" pan="0" len="24" vol="100" />
          <note key="61" pos="984" pan="0" len="24" vol="100" />
          <note key="55" pos="1008" pan="0" len="24" vol="100" />
          <note key="52" pos="1056" pan="0" len="24" vol="100" />
          <note key="54" pos="1080" pan="0" len="24" vol="100" />
          <note key="62" pos="1152" pan="0" len="24" vol="100" />
          <note key="55" pos="1200" pan="0" len="24" vol="100" />
          <note key="52" pos="1248" pan="0" len="24" vol="100" />
          <note key="54" pos="1272" pan="0" len="24" vol="100" />
          <note key="62" pos="1344" pan="0" len="24" vol="100" />
          <note key="61" pos="1368" pan="0" len="24" vol="100" />
          <note key="55" pos="1392" pan="0" len="24" vol="100" />
          <note key="52" pos="1440" pan="0" len="96" vol="100" />
        </pattern>
        <pattern pos="188172" muted="0" steps="16" name="" type="1">
          <note key="62" pos="0" pan="0" len="24" vol="100" />
          <note key="55" pos="48" pan="0" len="24" vol="100" />
          <note key="52" pos="96" pan="0" len="24" vol="100" />
          <note key="54" pos="120" pan="0" len="24" vol="100" />
          <note key="62" pos="192" pan="0" len="24" vol="100" />
          <note key="61" pos="216" pan="0" len="24" vol="100" />
          <note key="55" pos="240" pan="0" len="24" vol="100" />
          <note key="52" pos="288" pan="0" len="24" vol="100" />
          <note key="54" pos="312" pan="0" len="24" vol="100" />
          <note key="62" pos="384" pan="0" len="24" vol="100" />
          <note key="55" pos="432" pan="0" len="24" vol="100" />
          <note key="52" pos="480" pan="0" len="24" vol="100" />
          <note key="54" pos="504" pan="0" len="24" vol="100" />
          <note key="62" pos="576" pan="0" len="24" vol="100" />
          <note key="61" pos="600" pan="0" len="24" vol="100" />
          <note key="55" pos="624" pan="0" len="24" vol="100" />
          <note key="52" pos="672" pan="0" len="24" vol="100" />
          <note key="54" pos="696" pan="0" len="24" vol="100" />
          <note key="62" pos="768" pan="0" len="24" vol="100" />
          <note key="55" pos="816" pan="0" len="24" vol="100" />
          <note key="52" pos="864" pan="0" len="24" vol="100" />
          <note key="54" pos="888" pan="0" len="24" vol="100" />
          <note key="62" pos="960" pan="0" len="24" vol="100" />
          <note key="61" pos="984" pan="0" len="24" vol="100" />
          <note key="55" pos="1008" pan="0" len="24" vol="100" />
          <note key="52" pos="1056" pan="0" len="24" vol="100" />
          <note key="54" pos="1080" pan="0" len="24" vol="100" />
          <note key="62" pos="1152" pan="0" len="24" vol="100" />
          <note key="55" pos="1200" pan="0" len="24" vol="100" />
          <note key="52" pos="1248" pan="0" len="24" vol="100" />
          <note key="54" pos="1272" pan="0" len="24" vol="100" />
          <note key="62" pos="1344" pan="0" len="24" vol="100" />
          <note key="61" pos="1368" pan="0" len="24" vol="100" />
          <note key="55" pos="1392" pan="0" len="24" vol="100" />
          <note key="52" pos="1440" pan="0" len="24" vol="100" />
          <note key="54" pos="1464" pan="0" len="24" vol="100" />
        </pattern>
        <pattern pos="189708" muted="0" steps="16" name="" type="1">
          <note key="62" pos="0" pan="0" len="24" vol="100" />
          <note key="55" pos="48" pan="0" len="24" vol="100" />
          <note key="52" pos="96" pan="0" len="24" vol="100" />
          <note key="54" pos="120" pan="0" len="24" vol="100" />
          <note key="62" pos="192" pan="0" len="24" vol="100" />
          <note key="61" pos="216" pan="0" len="24" vol="100" />
          <note key="55" pos="240" pan="0" len="24" vol="100" />
          <note key="52" pos="288" pan="0" len="24" vol="100" />
          <note key="54" pos="312" pan="0" len="24" vol="100" />
          <note key="62" pos="384" pan="0" len="24" vol="100" />
          <note key="55" pos="432" pan="0" len="24" vol="100" />
          <note key="52" pos="480" pan="0" len="24" vol="100" />
          <note key="54" pos="504" pan="0" len="24" vol="100" />
          <note key="62" pos="576" pan="0" len="24" vol="100" />
          <note key="61" pos="600" pan="0" len="24" vol="100" />
          <note key="55" pos="624" pan="0" len="24" vol="100" />
          <note key="52" pos="672" pan="0" len="24" vol="100" />
          <note key="54" pos="696" pan="0" len="24" vol="100" />
          <note key="62" pos="768" pan="0" len="24" vol="100" />
          <note key="55" pos="816" pan="0" len="24" vol="100" />
          <note key="52" pos="864" pan="0" len="24" vol="100" />
          <note key="54" pos="888" pan="0" len="24" vol="100" />
          <note key="62" pos="960" pan="0" len="24" vol="100" />
          <note key="61" pos="984" pan="0" len="24" vol="100" />
          <note key="55" pos="1008" pan="0" len="24" vol="100" />
          <note key="52" pos="1056" pan="0" len="24" vol="100" />
          <note key="54" pos="1080" pan="0" len="24" vol="100" />
          <note key="62" pos="1152" pan="0" len="24" vol="100" />
          <note key="55" pos="1200" pan="0" len="24" vol="100" />
          <note key="52" pos="1248" pan="0" len="24" vol="100" />
          <note key="54" pos="1272" pan="0" len="24" vol="100" />
          <note key="62" pos="1344" pan="0" len="24" vol="100" />
          <note key="61" pos="1368" pan="0" len="24" vol="100" />
          <note key="55" pos="1392" pan="0" len="24" vol="100" />
          <note key="52" pos="1440" pan="0" len="24" vol="100" />
          <note key="54" pos="1464" pan="0" len="24" vol="100" />
        </pattern>
        <pattern pos="191244" muted="0" steps="16" name="" type="1">
          <note key="61" pos="0" pan="0" len="24" vol="100" />
          <note key="57" pos="48" pan="0" len="24" vol="100" />
          <note key="61" pos="72" pan="0" len="24" vol="100" />
          <note key="62" pos="96" pan="0" len="24" vol="100" />
          <note key="57" pos="120" pan="0" len="24" vol="100" />
          <note key="64" pos="192" pan="0" len="24" vol="100" />
          <note key="55" pos="216" pan="0" len="24" vol="100" />
          <note key="62" pos="240" pan="0" len="24" vol="100" />
          <note key="52" pos="288" pan="0" len="24" vol="100" />
          <note key="59" pos="312" pan="0" len="24" vol="100" />
          <note key="62" pos="384" pan="0" len="24" vol="100" />
          <note key="55" pos="432" pan="0" len="24" vol="100" />
          <note key="52" pos="480" pan="0" len="24" vol="100" />
          <note key="54" pos="504" pan="0" len="24" vol="100" />
          <note key="62" pos="576" pan="0" len="24" vol="100" />
          <note key="61" pos="600" pan="0" len="24" vol="100" />
          <note key="55" pos="624" pan="0" len="24" vol="100" />
          <note key="52" pos="672" pan="0" len="24" vol="100" />
          <note key="54" pos="696" pan="0" len="24" vol="100" />
          <note key="61" pos="768" pan="0" len="24" vol="100" />
          <note key="57" pos="816" pan="0" len="24" vol="100" />
          <note key="61" pos="840" pan="0" len="24" vol="100" />
          <note key="62" pos="864" pan="0" len="24" vol="100" />
          <note key="57" pos="888" pan="0" len="24" vol="100" />
          <note key="64" pos="960" pan="0" len="24" vol="100" />
          <note key="55" pos="984" pan="0" len="24" vol="100" />
          <note key="62" pos="1008" pan="0" len="24" vol="100" />
          <note key="52" pos="1056" pan="0" len="24" vol="100" />
          <note key="59" pos="1080" pan="0" len="24" vol="100" />
          <note key="62" pos="1152" pan="0" len="24" vol="100" />
          <note key="55" pos="1200" pan="0" len="24" vol="100" />
          <note key="52" pos="1248" pan="0" len="24" vol="100" />
          <note key="54" pos="1272" pan="0" len="24" vol="100" />
          <note key="62" pos="1344" pan="0" len="24" vol="100" />
          <note key="61" pos="1368" pan="0" len="24" vol="100" />
          <note key="55" pos="1392" pan="0" len="24" vol="100" />
          <note key="52" pos="1440" pan="0" len="24" vol="100" />
          <note key="54" pos="1464" pan="0" len="24" vol="100" />
        </pattern>
        <pattern pos="192780" muted="0" steps="16" name="" type="1">
          <note key="62" pos="768" pan="0" len="24" vol="100" />
          <note key="55" pos="816" pan="0" len="24" vol="100" />
          <note key="52" pos="864" pan="0" len="24" vol="100" />
          <note key="54" pos="888" pan="0" len="24" vol="100" />
          <note key="62" pos="960" pan="0" len="24" vol="100" />
          <note key="61" pos="984" pan="0" len="24" vol="100" />
          <note key="55" pos="1008" pan="0" len="24" vol="100" />
          <note key="52" pos="1056" pan="0" len="24" vol="100" />
          <note key="54" pos="1080" pan="0" len="24" vol="100" />
          <note key="62" pos="1152" pan="0" len="24" vol="100" />
          <note key="55" pos="1200" pan="0" len="24" vol="100" />
          <note key="52" pos="1248" pan="0" len="24" vol="100" />
          <note key="54" pos="1272" pan="0" len="24" vol="100" />
          <note key="62" pos="1344" pan="0" len="24" vol="100" />
          <note key="61" pos="1368" pan="0" len="24" vol="100" />
          <note key="55" pos="1392" pan="0" len="24" vol="100" />
          <note key="52" pos="1440" pan="0" len="96" vol="100" />
        </pattern>
        <pattern pos="200460" muted="0" steps="16" name="" type="1">
          <note key="61" pos="0" pan="0" len="24" vol="100" />
          <note key="57" pos="48" pan="0" len="24" vol="100" />
          <note key="61" pos="72" pan="0" len="24" vol="100" />
          <note key="62" pos="96" pan="0" len="24" vol="100" />
          <note key="57" pos="120" pan="0" len="24" vol="100" />
          <note key="64" pos="192" pan="0" len="576" vol="100" />
        </pattern>
      </track>
      <track solo="0" name="46 (Ch2)" type="0" muted="0">
        <instrumenttrack usemasterpitch="1" pitch="0.0" basenote="57" pan="0" pitchrange="12" vol="30">
          <eldata />
          <instrument name="tripleoscillator" />
        </instrumenttrack>
        <pattern pos="169740" muted="0" steps="16" name="" type="1">
          <note key="63" pos="1728" pan="0" len="24" vol="50" />
          <note key="62" pos="1752" pan="0" len="24" vol="50" />
          <note key="58" pos="1776" pan="0" len="24" vol="50" />
          <note key="60" pos="1800" pan="0" len="24" vol="50" />
          <note key="65" pos="1824" pan="0" len="24" vol="50" />
          <note key="63" pos="1848" pan="0" len="24" vol="50" />
          <note key="62" pos="1872" pan="0" len="24" vol="50" />
          <note key="58" pos="1896" pan="0" len="24" vol="50" />
        </pattern>
        <pattern pos="130572" muted="0" steps="16" name="" type="1">
          <note key="38" pos="24" pan="0" len="24" vol="100" />
          <note key="43" pos="48" pan="0" len="24" vol="100" />
          <note key="38" pos="72" pan="0" len="24" vol="100" />
          <note key="46" pos="96" pan="0" len="24" vol="100" />
          <note key="38" pos="120" pan="0" len="24" vol="100" />
          <note key="48" pos="144" pan="0" len="72" vol="100" />
          <note key="38" pos="216" pan="0" len="24" vol="100" />
          <note key="41" pos="240" pan="0" len="24" vol="100" />
          <note key="38" pos="264" pan="0" len="24" vol="100" />
          <note key="45" pos="288" pan="0" len="24" vol="100" />
          <note key="38" pos="312" pan="0" len="24" vol="100" />
          <note key="41" pos="336" pan="0" len="72" vol="100" />
          <note key="38" pos="408" pan="0" len="24" vol="100" />
          <note key="41" pos="432" pan="0" len="24" vol="100" />
          <note key="38" pos="456" pan="0" len="24" vol="100" />
          <note key="43" pos="480" pan="0" len="24" vol="100" />
          <note key="38" pos="504" pan="0" len="24" vol="100" />
          <note key="45" pos="528" pan="0" len="72" vol="100" />
          <note key="36" pos="600" pan="0" len="24" vol="100" />
          <note key="41" pos="624" pan="0" len="24" vol="100" />
          <note key="36" pos="648" pan="0" len="24" vol="100" />
          <note key="43" pos="672" pan="0" len="24" vol="100" />
          <note key="36" pos="696" pan="0" len="24" vol="100" />
          <note key="45" pos="720" pan="0" len="48" vol="100" />
          <note key="38" pos="792" pan="0" len="24" vol="100" />
          <note key="43" pos="816" pan="0" len="24" vol="100" />
          <note key="38" pos="840" pan="0" len="24" vol="100" />
          <note key="46" pos="864" pan="0" len="24" vol="100" />
          <note key="38" pos="888" pan="0" len="24" vol="100" />
          <note key="48" pos="912" pan="0" len="72" vol="100" />
          <note key="38" pos="984" pan="0" len="24" vol="100" />
          <note key="41" pos="1008" pan="0" len="24" vol="100" />
          <note key="38" pos="1032" pan="0" len="24" vol="100" />
          <note key="45" pos="1056" pan="0" len="24" vol="100" />
          <note key="38" pos="1080" pan="0" len="24" vol="100" />
          <note key="41" pos="1104" pan="0" len="72" vol="100" />
          <note key="38" pos="1176" pan="0" len="24" vol="100" />
          <note key="41" pos="1200" pan="0" len="24" vol="100" />
          <note key="38" pos="1224" pan="0" len="24" vol="100" />
          <note key="43" pos="1248" pan="0" len="24" vol="100" />
          <note key="38" pos="1272" pan="0" len="24" vol="100" />
          <note key="45" pos="1296" pan="0" len="72" vol="100" />
          <note key="36" pos="1368" pan="0" len="24" vol="100" />
          <note key="41" pos="1392" pan="0" len="24" vol="100" />
          <note key="36" pos="1416" pan="0" len="24" vol="100" />
          <note key="43" pos="1440" pan="0" len="24" vol="100" />
          <note key="36" pos="1464" pan="0" len="24" vol="100" />
          <note key="45" pos="1488" pan="0" len="48" vol="100" />
        </pattern>
        <pattern pos="132108" muted="0" steps="16" name="" type="1">
          <note key="38" pos="24" pan="0" len="24" vol="100" />
          <note key="43" pos="48" pan="0" len="24" vol="100" />
          <note key="38" pos="72" pan="0" len="24" vol="100" />
          <note key="46" pos="96" pan="0" len="24" vol="100" />
          <note key="38" pos="120" pan="0" len="24" vol="100" />
          <note key="48" pos="144" pan="0" len="72" vol="100" />
          <note key="38" pos="216" pan="0" len="24" vol="100" />
          <note key="41" pos="240" pan="0" len="24" vol="100" />
          <note key="38" pos="264" pan="0" len="24" vol="100" />
          <note key="45" pos="288" pan="0" len="24" vol="100" />
          <note key="38" pos="312" pan="0" len="24" vol="100" />
          <note key="41" pos="336" pan="0" len="72" vol="100" />
          <note key="38" pos="408" pan="0" len="24" vol="100" />
          <note key="41" pos="432" pan="0" len="24" vol="100" />
          <note key="38" pos="456" pan="0" len="24" vol="100" />
          <note key="43" pos="480" pan="0" len="24" vol="100" />
          <note key="38" pos="504" pan="0" len="24" vol="100" />
          <note key="45" pos="528" pan="0" len="72" vol="100" />
          <note key="36" pos="600" pan="0" len="24" vol="100" />
          <note key="41" pos="624" pan="0" len="24" vol="100" />
          <note key="36" pos="648" pan="0" len="24" vol="100" />
          <note key="43" pos="672" pan="0" len="24" vol="100" />
          <note key="36" pos="696" pan="0" len="24" vol="100" />
          <note key="45" pos="720" pan="0" len="48" vol="100" />
          <note key="38" pos="792" pan="0" len="24" vol="100" />
          <note key="43" pos="816" pan="0" len="24" vol="100" />
          <note key="38" pos="840" pan="0" len="24" vol="100" />
          <note key="46" pos="864" pan="0" len="24" vol="100" />
          <note key="38" pos="888" pan="0" len="24" vol="100" />
          <note key="48" pos="912" pan="0" len="72" vol="100" />
          <note key="38" pos="984" pan="0" len="24" vol="100" />
          <note key="41" pos="1008" pan="0" len="24" vol="100" />
          <note key="38" pos="1032" pan="0" len="24" vol="100" />
          <note key="45" pos="1056" pan="0" len="24" vol="100" />
          <note key="38" pos="1080" pan="0" len="24" vol="100" />
          <note key="41" pos="1104" pan="0" len="72" vol="100" />
          <note key="38" pos="1176" pan="0" len="24" vol="100" />
          <note key="41" pos="1200" pan="0" len="24" vol="100" />
          <note key="38" pos="1224" pan="0" len="24" vol="100" />
          <note key="43" pos="1248" pan="0" len="24" vol="100" />
          <note key="38" pos="1272" pan="0" len="24" vol="100" />
          <note key="45" pos="1296" pan="0" len="72" vol="100" />
          <note key="36" pos="1368" pan="0" len="24" vol="100" />
          <note key="41" pos="1392" pan="0" len="24" vol="100" />
          <note key="36" pos="1416" pan="0" len="24" vol="100" />
          <note key="43" pos="1440" pan="0" len="24" vol="100" />
          <note key="36" pos="1464" pan="0" len="24" vol="100" />
          <note key="45" pos="1488" pan="0" len="48" vol="100" />
        </pattern>
        <pattern pos="133644" muted="0" steps="16" name="" type="1">
          <note key="38" pos="24" pan="0" len="24" vol="100" />
          <note key="43" pos="48" pan="0" len="24" vol="100" />
          <note key="38" pos="72" pan="0" len="24" vol="100" />
          <note key="46" pos="96" pan="0" len="24" vol="100" />
          <note key="38" pos="120" pan="0" len="24" vol="100" />
          <note key="48" pos="144" pan="0" len="72" vol="100" />
          <note key="38" pos="216" pan="0" len="24" vol="100" />
          <note key="41" pos="240" pan="0" len="24" vol="100" />
          <note key="38" pos="264" pan="0" len="24" vol="100" />
          <note key="45" pos="288" pan="0" len="24" vol="100" />
          <note key="38" pos="312" pan="0" len="24" vol="100" />
          <note key="41" pos="336" pan="0" len="72" vol="100" />
          <note key="38" pos="408" pan="0" len="24" vol="100" />
          <note key="41" pos="432" pan="0" len="24" vol="100" />
          <note key="38" pos="456" pan="0" len="24" vol="100" />
          <note key="43" pos="480" pan="0" len="24" vol="100" />
          <note key="38" pos="504" pan="0" len="24" vol="100" />
          <note key="45" pos="528" pan="0" len="72" vol="100" />
          <note key="36" pos="600" pan="0" len="24" vol="100" />
          <note key="41" pos="624" pan="0" len="24" vol="100" />
          <note key="36" pos="648" pan="0" len="24" vol="100" />
          <note key="43" pos="672" pan="0" len="24" vol="100" />
          <note key="36" pos="696" pan="0" len="24" vol="100" />
          <note key="45" pos="720" pan="0" len="48" vol="100" />
          <note key="38" pos="792" pan="0" len="24" vol="100" />
          <note key="43" pos="816" pan="0" len="24" vol="100" />
          <note key="38" pos="840" pan="0" len="24" vol="100" />
          <note key="46" pos="864" pan="0" len="24" vol="100" />
          <note key="38" pos="888" pan="0" len="24" vol="100" />
          <note key="48" pos="912" pan="0" len="72" vol="100" />
          <note key="38" pos="984" pan="0" len="24" vol="100" />
          <note key="41" pos="1008" pan="0" len="24" vol="100" />
          <note key="38" pos="1032" pan="0" len="24" vol="100" />
          <note key="45" pos="1056" pan="0" len="24" vol="100" />
          <note key="38" pos="1080" pan="0" len="24" vol="100" />
          <note key="41" pos="1104" pan="0" len="72" vol="100" />
          <note key="38" pos="1176" pan="0" len="24" vol="100" />
          <note key="41" pos="1200" pan="0" len="24" vol="100" />
          <note key="38" pos="1224" pan="0" len="24" vol="100" />
          <note key="43" pos="1248" pan="0" len="24" vol="100" />
          <note key="38" pos="1272" pan="0" len="24" vol="100" />
          <note key="45" pos="1296" pan="0" len="72" vol="100" />
          <note key="36" pos="1368" pan="0" len="24" vol="100" />
          <note key="41" pos="1392" pan="0" len="24" vol="100" />
          <note key="36" pos="1416" pan="0" len="24" vol="100" />
          <note key="43" pos="1440" pan="0" len="24" vol="100" />
          <note key="36" pos="1464" pan="0" len="24" vol="100" />
          <note key="45" pos="1488" pan="0" len="48" vol="100" />
        </pattern>
        <pattern pos="135180" muted="0" steps="16" name="" type="1">
          <note key="39" pos="24" pan="0" len="24" vol="100" />
          <note key="43" pos="48" pan="0" len="24" vol="100" />
          <note key="39" pos="72" pan="0" len="24" vol="100" />
          <note key="45" pos="96" pan="0" len="24" vol="100" />
          <note key="39" pos="120" pan="0" len="24" vol="100" />
          <note key="46" pos="144" pan="0" len="72" vol="100" />
          <note key="41" pos="216" pan="0" len="24" vol="100" />
          <note key="45" pos="240" pan="0" len="24" vol="100" />
          <note key="41" pos="264" pan="0" len="24" vol="100" />
          <note key="46" pos="288" pan="0" len="24" vol="100" />
          <note key="41" pos="312" pan="0" len="24" vol="100" />
          <note key="48" pos="336" pan="0" len="72" vol="100" />
          <note key="43" pos="408" pan="0" len="24" vol="100" />
          <note key="46" pos="432" pan="0" len="24" vol="100" />
          <note key="43" pos="456" pan="0" len="24" vol="100" />
          <note key="48" pos="480" pan="0" len="24" vol="100" />
          <note key="43" pos="504" pan="0" len="24" vol="100" />
          <note key="50" pos="528" pan="0" len="72" vol="100" />
          <note key="41" pos="600" pan="0" len="24" vol="100" />
          <note key="46" pos="624" pan="0" len="24" vol="100" />
          <note key="41" pos="648" pan="0" len="24" vol="100" />
          <note key="48" pos="672" pan="0" len="24" vol="100" />
          <note key="41" pos="696" pan="0" len="24" vol="100" />
          <note key="50" pos="720" pan="0" len="24" vol="100" />
          <note key="46" pos="744" pan="0" len="48" vol="100" />
          <note key="39" pos="792" pan="0" len="24" vol="100" />
          <note key="43" pos="816" pan="0" len="24" vol="100" />
          <note key="39" pos="840" pan="0" len="24" vol="100" />
          <note key="45" pos="864" pan="0" len="24" vol="100" />
          <note key="39" pos="888" pan="0" len="24" vol="100" />
          <note key="46" pos="912" pan="0" len="72" vol="100" />
          <note key="41" pos="984" pan="0" len="24" vol="100" />
          <note key="45" pos="1008" pan="0" len="24" vol="100" />
          <note key="41" pos="1032" pan="0" len="24" vol="100" />
          <note key="46" pos="1056" pan="0" len="24" vol="100" />
          <note key="41" pos="1080" pan="0" len="24" vol="100" />
          <note key="48" pos="1104" pan="0" len="72" vol="100" />
          <note key="43" pos="1176" pan="0" len="24" vol="100" />
          <note key="46" pos="1200" pan="0" len="24" vol="100" />
          <note key="43" pos="1224" pan="0" len="24" vol="100" />
          <note key="48" pos="1248" pan="0" len="24" vol="100" />
          <note key="43" pos="1272" pan="0" len="24" vol="100" />
          <note key="50" pos="1296" pan="0" len="72" vol="100" />
          <note key="46" pos="1368" pan="0" len="24" vol="100" />
          <note key="51" pos="1392" pan="0" len="24" vol="100" />
          <note key="46" pos="1416" pan="0" len="24" vol="100" />
          <note key="53" pos="1440" pan="0" len="24" vol="100" />
          <note key="46" pos="1464" pan="0" len="24" vol="100" />
          <note key="55" pos="1488" pan="0" len="48" vol="100" />
        </pattern>
        <pattern pos="136716" muted="0" steps="16" name="" type="1">
          <note key="39" pos="24" pan="0" len="24" vol="100" />
          <note key="43" pos="48" pan="0" len="24" vol="100" />
          <note key="39" pos="72" pan="0" len="24" vol="100" />
          <note key="45" pos="96" pan="0" len="24" vol="100" />
          <note key="39" pos="120" pan="0" len="24" vol="100" />
          <note key="46" pos="144" pan="0" len="72" vol="100" />
          <note key="41" pos="216" pan="0" len="24" vol="100" />
          <note key="45" pos="240" pan="0" len="24" vol="100" />
          <note key="41" pos="264" pan="0" len="24" vol="100" />
          <note key="46" pos="288" pan="0" len="24" vol="100" />
          <note key="41" pos="312" pan="0" len="24" vol="100" />
          <note key="48" pos="336" pan="0" len="72" vol="100" />
          <note key="43" pos="408" pan="0" len="24" vol="100" />
          <note key="46" pos="432" pan="0" len="24" vol="100" />
          <note key="43" pos="456" pan="0" len="24" vol="100" />
          <note key="48" pos="480" pan="0" len="24" vol="100" />
          <note key="43" pos="504" pan="0" len="24" vol="100" />
          <note key="50" pos="528" pan="0" len="72" vol="100" />
          <note key="41" pos="600" pan="0" len="24" vol="100" />
          <note key="46" pos="624" pan="0" len="24" vol="100" />
          <note key="41" pos="648" pan="0" len="24" vol="100" />
          <note key="48" pos="672" pan="0" len="24" vol="100" />
          <note key="41" pos="696" pan="0" len="24" vol="100" />
          <note key="50" pos="720" pan="0" len="24" vol="100" />
          <note key="46" pos="744" pan="0" len="48" vol="100" />
          <note key="39" pos="792" pan="0" len="24" vol="100" />
          <note key="43" pos="816" pan="0" len="24" vol="100" />
          <note key="39" pos="840" pan="0" len="24" vol="100" />
          <note key="45" pos="864" pan="0" len="24" vol="100" />
          <note key="39" pos="888" pan="0" len="24" vol="100" />
          <note key="46" pos="912" pan="0" len="72" vol="100" />
          <note key="41" pos="984" pan="0" len="24" vol="100" />
          <note key="45" pos="1008" pan="0" len="24" vol="100" />
          <note key="41" pos="1032" pan="0" len="24" vol="100" />
          <note key="46" pos="1056" pan="0" len="24" vol="100" />
          <note key="41" pos="1080" pan="0" len="24" vol="100" />
          <note key="48" pos="1104" pan="0" len="72" vol="100" />
          <note key="43" pos="1176" pan="0" len="24" vol="100" />
          <note key="46" pos="1200" pan="0" len="24" vol="100" />
          <note key="43" pos="1224" pan="0" len="24" vol="100" />
          <note key="48" pos="1248" pan="0" len="24" vol="100" />
          <note key="43" pos="1272" pan="0" len="24" vol="100" />
          <note key="50" pos="1296" pan="0" len="24" vol="100" />
          <note key="46" pos="1320" pan="0" len="24" vol="100" />
          <note key="31" pos="1344" pan="0" len="192" vol="100" />
        </pattern>
        <pattern pos="138252" muted="0" steps="16" name="" type="1">
          <note key="38" pos="24" pan="0" len="24" vol="100" />
          <note key="43" pos="48" pan="0" len="24" vol="100" />
          <note key="38" pos="72" pan="0" len="24" vol="100" />
          <note key="46" pos="96" pan="0" len="24" vol="100" />
          <note key="38" pos="120" pan="0" len="24" vol="100" />
          <note key="48" pos="144" pan="0" len="72" vol="100" />
          <note key="38" pos="216" pan="0" len="24" vol="100" />
          <note key="41" pos="240" pan="0" len="24" vol="100" />
          <note key="38" pos="264" pan="0" len="24" vol="100" />
          <note key="45" pos="288" pan="0" len="24" vol="100" />
          <note key="38" pos="312" pan="0" len="24" vol="100" />
          <note key="41" pos="336" pan="0" len="72" vol="100" />
          <note key="38" pos="408" pan="0" len="24" vol="100" />
          <note key="41" pos="432" pan="0" len="24" vol="100" />
          <note key="38" pos="456" pan="0" len="24" vol="100" />
          <note key="43" pos="480" pan="0" len="24" vol="100" />
          <note key="38" pos="504" pan="0" len="24" vol="100" />
          <note key="45" pos="528" pan="0" len="72" vol="100" />
          <note key="36" pos="600" pan="0" len="24" vol="100" />
          <note key="41" pos="624" pan="0" len="24" vol="100" />
          <note key="36" pos="648" pan="0" len="24" vol="100" />
          <note key="43" pos="672" pan="0" len="24" vol="100" />
          <note key="36" pos="696" pan="0" len="24" vol="100" />
          <note key="45" pos="720" pan="0" len="48" vol="100" />
          <note key="38" pos="792" pan="0" len="24" vol="100" />
          <note key="43" pos="816" pan="0" len="24" vol="100" />
          <note key="38" pos="840" pan="0" len="24" vol="100" />
          <note key="46" pos="864" pan="0" len="24" vol="100" />
          <note key="38" pos="888" pan="0" len="24" vol="100" />
          <note key="48" pos="912" pan="0" len="72" vol="100" />
          <note key="38" pos="984" pan="0" len="24" vol="100" />
          <note key="41" pos="1008" pan="0" len="24" vol="100" />
          <note key="38" pos="1032" pan="0" len="24" vol="100" />
          <note key="45" pos="1056" pan="0" len="24" vol="100" />
          <note key="38" pos="1080" pan="0" len="24" vol="100" />
          <note key="41" pos="1104" pan="0" len="72" vol="100" />
          <note key="38" pos="1176" pan="0" len="24" vol="100" />
          <note key="41" pos="1200" pan="0" len="24" vol="100" />
          <note key="38" pos="1224" pan="0" len="24" vol="100" />
          <note key="43" pos="1248" pan="0" len="24" vol="100" />
          <note key="38" pos="1272" pan="0" len="24" vol="100" />
          <note key="45" pos="1296" pan="0" len="72" vol="100" />
          <note key="36" pos="1368" pan="0" len="24" vol="100" />
          <note key="41" pos="1392" pan="0" len="24" vol="100" />
          <note key="36" pos="1416" pan="0" len="24" vol="100" />
          <note key="43" pos="1440" pan="0" len="24" vol="100" />
          <note key="36" pos="1464" pan="0" len="24" vol="100" />
          <note key="45" pos="1488" pan="0" len="48" vol="100" />
        </pattern>
        <pattern pos="139788" muted="0" steps="16" name="" type="1">
          <note key="38" pos="24" pan="0" len="24" vol="100" />
          <note key="43" pos="48" pan="0" len="24" vol="100" />
          <note key="38" pos="72" pan="0" len="24" vol="100" />
          <note key="46" pos="96" pan="0" len="24" vol="100" />
          <note key="38" pos="120" pan="0" len="24" vol="100" />
          <note key="48" pos="144" pan="0" len="72" vol="100" />
          <note key="38" pos="216" pan="0" len="24" vol="100" />
          <note key="41" pos="240" pan="0" len="24" vol="100" />
          <note key="38" pos="264" pan="0" len="24" vol="100" />
          <note key="45" pos="288" pan="0" len="24" vol="100" />
          <note key="38" pos="312" pan="0" len="24" vol="100" />
          <note key="41" pos="336" pan="0" len="72" vol="100" />
          <note key="38" pos="408" pan="0" len="24" vol="100" />
          <note key="41" pos="432" pan="0" len="24" vol="100" />
          <note key="38" pos="456" pan="0" len="24" vol="100" />
          <note key="43" pos="480" pan="0" len="24" vol="100" />
          <note key="38" pos="504" pan="0" len="24" vol="100" />
          <note key="45" pos="528" pan="0" len="72" vol="100" />
          <note key="36" pos="600" pan="0" len="24" vol="100" />
          <note key="41" pos="624" pan="0" len="24" vol="100" />
          <note key="36" pos="648" pan="0" len="24" vol="100" />
          <note key="43" pos="672" pan="0" len="24" vol="100" />
          <note key="36" pos="696" pan="0" len="24" vol="100" />
          <note key="45" pos="720" pan="0" len="48" vol="100" />
          <note key="38" pos="792" pan="0" len="24" vol="100" />
          <note key="43" pos="816" pan="0" len="24" vol="100" />
          <note key="38" pos="840" pan="0" len="24" vol="100" />
          <note key="46" pos="864" pan="0" len="24" vol="100" />
          <note key="38" pos="888" pan="0" len="24" vol="100" />
          <note key="48" pos="912" pan="0" len="72" vol="100" />
          <note key="38" pos="984" pan="0" len="24" vol="100" />
          <note key="41" pos="1008" pan="0" len="24" vol="100" />
          <note key="38" pos="1032" pan="0" len="24" vol="100" />
          <note key="45" pos="1056" pan="0" len="24" vol="100" />
          <note key="38" pos="1080" pan="0" len="24" vol="100" />
          <note key="41" pos="1104" pan="0" len="72" vol="100" />
          <note key="38" pos="1176" pan="0" len="24" vol="100" />
          <note key="41" pos="1200" pan="0" len="24" vol="100" />
          <note key="38" pos="1224" pan="0" len="24" vol="100" />
          <note key="43" pos="1248" pan="0" len="24" vol="100" />
          <note key="38" pos="1272" pan="0" len="24" vol="100" />
          <note key="45" pos="1296" pan="0" len="72" vol="100" />
          <note key="36" pos="1368" pan="0" len="24" vol="100" />
          <note key="41" pos="1392" pan="0" len="24" vol="100" />
          <note key="36" pos="1416" pan="0" len="24" vol="100" />
          <note key="43" pos="1440" pan="0" len="24" vol="100" />
          <note key="36" pos="1464" pan="0" len="24" vol="100" />
          <note key="45" pos="1488" pan="0" len="48" vol="100" />
        </pattern>
        <pattern pos="141324" muted="0" steps="16" name="" type="1">
          <note key="39" pos="24" pan="0" len="24" vol="100" />
          <note key="43" pos="48" pan="0" len="24" vol="100" />
          <note key="39" pos="72" pan="0" len="24" vol="100" />
          <note key="45" pos="96" pan="0" len="24" vol="100" />
          <note key="39" pos="120" pan="0" len="24" vol="100" />
          <note key="46" pos="144" pan="0" len="72" vol="100" />
          <note key="41" pos="216" pan="0" len="24" vol="100" />
          <note key="45" pos="240" pan="0" len="24" vol="100" />
          <note key="41" pos="264" pan="0" len="24" vol="100" />
          <note key="46" pos="288" pan="0" len="24" vol="100" />
          <note key="41" pos="312" pan="0" len="24" vol="100" />
          <note key="48" pos="336" pan="0" len="72" vol="100" />
          <note key="43" pos="408" pan="0" len="24" vol="100" />
          <note key="46" pos="432" pan="0" len="24" vol="100" />
          <note key="43" pos="456" pan="0" len="24" vol="100" />
          <note key="48" pos="480" pan="0" len="24" vol="100" />
          <note key="43" pos="504" pan="0" len="24" vol="100" />
          <note key="50" pos="528" pan="0" len="72" vol="100" />
          <note key="41" pos="600" pan="0" len="24" vol="100" />
          <note key="46" pos="624" pan="0" len="24" vol="100" />
          <note key="41" pos="648" pan="0" len="24" vol="100" />
          <note key="48" pos="672" pan="0" len="24" vol="100" />
          <note key="41" pos="696" pan="0" len="24" vol="100" />
          <note key="50" pos="720" pan="0" len="24" vol="100" />
          <note key="46" pos="744" pan="0" len="48" vol="100" />
          <note key="39" pos="792" pan="0" len="24" vol="100" />
          <note key="43" pos="816" pan="0" len="24" vol="100" />
          <note key="39" pos="840" pan="0" len="24" vol="100" />
          <note key="45" pos="864" pan="0" len="24" vol="100" />
          <note key="39" pos="888" pan="0" len="24" vol="100" />
          <note key="46" pos="912" pan="0" len="72" vol="100" />
          <note key="41" pos="984" pan="0" len="24" vol="100" />
          <note key="45" pos="1008" pan="0" len="24" vol="100" />
          <note key="41" pos="1032" pan="0" len="24" vol="100" />
          <note key="46" pos="1056" pan="0" len="24" vol="100" />
          <note key="41" pos="1080" pan="0" len="24" vol="100" />
          <note key="48" pos="1104" pan="0" len="72" vol="100" />
          <note key="43" pos="1176" pan="0" len="24" vol="100" />
          <note key="46" pos="1200" pan="0" len="24" vol="100" />
          <note key="43" pos="1224" pan="0" len="24" vol="100" />
          <note key="48" pos="1248" pan="0" len="24" vol="100" />
          <note key="43" pos="1272" pan="0" len="24" vol="100" />
          <note key="50" pos="1296" pan="0" len="72" vol="100" />
          <note key="46" pos="1368" pan="0" len="24" vol="100" />
          <note key="51" pos="1392" pan="0" len="24" vol="100" />
          <note key="46" pos="1416" pan="0" len="24" vol="100" />
          <note key="53" pos="1440" pan="0" len="24" vol="100" />
          <note key="46" pos="1464" pan="0" len="24" vol="100" />
          <note key="55" pos="1488" pan="0" len="48" vol="100" />
        </pattern>
        <pattern pos="142860" muted="0" steps="16" name="" type="1">
          <note key="39" pos="24" pan="0" len="24" vol="100" />
          <note key="43" pos="48" pan="0" len="24" vol="100" />
          <note key="39" pos="72" pan="0" len="24" vol="100" />
          <note key="45" pos="96" pan="0" len="24" vol="100" />
          <note key="39" pos="120" pan="0" len="24" vol="100" />
          <note key="46" pos="144" pan="0" len="72" vol="100" />
          <note key="41" pos="216" pan="0" len="24" vol="100" />
          <note key="45" pos="240" pan="0" len="24" vol="100" />
          <note key="41" pos="264" pan="0" len="24" vol="100" />
          <note key="46" pos="288" pan="0" len="24" vol="100" />
          <note key="41" pos="312" pan="0" len="24" vol="100" />
          <note key="48" pos="336" pan="0" len="72" vol="100" />
          <note key="43" pos="408" pan="0" len="24" vol="100" />
          <note key="46" pos="432" pan="0" len="24" vol="100" />
          <note key="43" pos="456" pan="0" len="24" vol="100" />
          <note key="48" pos="480" pan="0" len="24" vol="100" />
          <note key="43" pos="504" pan="0" len="24" vol="100" />
          <note key="50" pos="528" pan="0" len="72" vol="100" />
          <note key="41" pos="600" pan="0" len="24" vol="100" />
          <note key="46" pos="624" pan="0" len="24" vol="100" />
          <note key="41" pos="648" pan="0" len="24" vol="100" />
          <note key="48" pos="672" pan="0" len="24" vol="100" />
          <note key="41" pos="696" pan="0" len="24" vol="100" />
          <note key="50" pos="720" pan="0" len="24" vol="100" />
          <note key="46" pos="744" pan="0" len="48" vol="100" />
          <note key="39" pos="792" pan="0" len="24" vol="100" />
          <note key="43" pos="816" pan="0" len="24" vol="100" />
          <note key="39" pos="840" pan="0" len="24" vol="100" />
          <note key="45" pos="864" pan="0" len="24" vol="100" />
          <note key="39" pos="888" pan="0" len="24" vol="100" />
          <note key="46" pos="912" pan="0" len="72" vol="100" />
          <note key="41" pos="984" pan="0" len="24" vol="100" />
          <note key="45" pos="1008" pan="0" len="24" vol="100" />
          <note key="41" pos="1032" pan="0" len="24" vol="100" />
          <note key="46" pos="1056" pan="0" len="24" vol="100" />
          <note key="41" pos="1080" pan="0" len="24" vol="100" />
          <note key="48" pos="1104" pan="0" len="72" vol="100" />
          <note key="43" pos="1176" pan="0" len="24" vol="100" />
          <note key="46" pos="1200" pan="0" len="24" vol="100" />
          <note key="43" pos="1224" pan="0" len="24" vol="100" />
          <note key="48" pos="1248" pan="0" len="24" vol="100" />
          <note key="43" pos="1272" pan="0" len="24" vol="100" />
          <note key="50" pos="1296" pan="0" len="24" vol="100" />
          <note key="46" pos="1320" pan="0" len="24" vol="100" />
          <note key="31" pos="1344" pan="0" len="192" vol="100" />
        </pattern>
        <pattern pos="168204" muted="0" steps="16" name="" type="1">
          <note key="45" pos="0" pan="0" len="48" vol="100" />
          <note key="45" pos="96" pan="0" len="24" vol="100" />
          <note key="57" pos="120" pan="0" len="24" vol="31" />
          <note key="57" pos="180" pan="0" len="12" vol="34" />
          <note key="45" pos="192" pan="0" len="48" vol="100" />
          <note key="45" pos="288" pan="0" len="24" vol="100" />
          <note key="57" pos="312" pan="0" len="24" vol="34" />
          <note key="57" pos="348" pan="0" len="36" vol="34" />
          <note key="45" pos="384" pan="0" len="36" vol="100" />
          <note key="45" pos="480" pan="0" len="24" vol="100" />
          <note key="57" pos="504" pan="0" len="24" vol="34" />
          <note key="45" pos="576" pan="0" len="48" vol="100" />
          <note key="57" pos="636" pan="0" len="36" vol="34" />
          <note key="45" pos="672" pan="0" len="36" vol="100" />
          <note key="45" pos="768" pan="0" len="48" vol="100" />
          <note key="45" pos="864" pan="0" len="48" vol="100" />
          <note key="45" pos="960" pan="0" len="48" vol="100" />
          <note key="45" pos="1056" pan="0" len="48" vol="100" />
          <note key="45" pos="1152" pan="0" len="48" vol="100" />
          <note key="45" pos="1248" pan="0" len="48" vol="100" />
          <note key="45" pos="1344" pan="0" len="48" vol="100" />
          <note key="45" pos="1440" pan="0" len="48" vol="100" />
        </pattern>
      </track>
      <track solo="0" name="46 (Ch3)" type="0" muted="0">
        <instrumenttrack usemasterpitch="1" pitch="0.0" basenote="57" pan="0" pitchrange="12" vol="30">
          <eldata />
          <instrument name="tripleoscillator" />
        </instrumenttrack>
        <pattern pos="264972" muted="0" steps="16" name="" type="1">
          <note key="50" pos="24" pan="0" len="12" vol="100" />
          <note key="50" pos="312" pan="0" len="12" vol="100" />
          <note key="50" pos="600" pan="0" len="12" vol="100" />
          <note key="53" pos="888" pan="0" len="12" vol="100" />
          <note key="50" pos="1176" pan="0" len="12" vol="100" />
          <note key="50" pos="1464" pan="0" len="12" vol="100" />
          <note key="50" pos="1752" pan="0" len="12" vol="100" />
          <note key="50" pos="2040" pan="0" len="12" vol="100" />
        </pattern>
        <pattern pos="258060" muted="0" steps="16" name="" type="1">
          <note key="50" pos="24" pan="0" len="12" vol="100" />
          <note key="50" pos="312" pan="0" len="12" vol="100" />
          <note key="65" pos="432" pan="0" len="12" vol="100" />
          <note key="58" pos="456" pan="0" len="12" vol="100" />
          <note key="50" pos="600" pan="0" len="12" vol="100" />
          <note key="50" pos="888" pan="0" len="12" vol="100" />
          <note key="50" pos="1176" pan="0" len="12" vol="100" />
          <note key="50" pos="1464" pan="0" len="12" vol="100" />
          <note key="65" pos="1632" pan="0" len="12" vol="100" />
          <note key="58" pos="1656" pan="0" len="12" vol="100" />
          <note key="50" pos="1752" pan="0" len="12" vol="100" />
          <note key="50" pos="2040" pan="0" len="12" vol="100" />
        </pattern>
        <pattern pos="260364" muted="0" steps="16" name="" type="1">
          <note key="50" pos="24" pan="0" len="12" vol="100" />
          <note key="48" pos="312" pan="0" len="12" vol="100" />
          <note key="65" pos="432" pan="0" len="12" vol="100" />
          <note key="58" pos="456" pan="0" len="12" vol="100" />
          <note key="50" pos="600" pan="0" len="12" vol="100" />
          <note key="50" pos="888" pan="0" len="12" vol="100" />
          <note key="50" pos="1176" pan="0" len="12" vol="100" />
          <note key="50" pos="1464" pan="0" len="12" vol="100" />
          <note key="50" pos="1752" pan="0" len="12" vol="100" />
          <note key="50" pos="2040" pan="0" len="12" vol="100" />
        </pattern>
        <pattern pos="262668" muted="0" steps="16" name="" type="1">
          <note key="50" pos="24" pan="0" len="12" vol="100" />
          <note key="50" pos="312" pan="0" len="12" vol="100" />
          <note key="50" pos="600" pan="0" len="12" vol="100" />
          <note key="53" pos="888" pan="0" len="12" vol="100" />
          <note key="50" pos="1176" pan="0" len="12" vol="100" />
          <note key="50" pos="1464" pan="0" len="12" vol="100" />
          <note key="50" pos="1752" pan="0" len="12" vol="100" />
          <note key="50" pos="2040" pan="0" len="12" vol="100" />
        </pattern>
      </track>
      <track solo="0" name="46 (Ch4)" type="0" muted="0">
        <instrumenttrack usemasterpitch="1" pitch="0.0" basenote="57" pan="0" pitchrange="12" vol="30">
          <eldata />
          <instrument name="tripleoscillator" />
        </instrumenttrack>
        <pattern pos="264972" muted="0" steps="16" name="" type="1">
          <note key="55" pos="24" pan="0" len="12" vol="100" />
          <note key="55" pos="72" pan="0" len="12" vol="100" />
          <note key="53" pos="168" pan="0" len="24" vol="100" />
          <note key="50" pos="240" pan="0" len="24" vol="100" />
          <note key="55" pos="312" pan="0" len="12" vol="100" />
          <note key="55" pos="360" pan="0" len="24" vol="100" />
          <note key="48" pos="432" pan="0" len="24" vol="100" />
          <note key="50" pos="480" pan="0" len="24" vol="100" />
          <note key="53" pos="528" pan="0" len="24" vol="100" />
          <note key="55" pos="600" pan="0" len="12" vol="100" />
          <note key="55" pos="648" pan="0" len="12" vol="100" />
          <note key="53" pos="744" pan="0" len="24" vol="100" />
          <note key="50" pos="816" pan="0" len="24" vol="100" />
          <note key="58" pos="888" pan="0" len="12" vol="100" />
          <note key="53" pos="936" pan="0" len="24" vol="100" />
          <note key="51" pos="1008" pan="0" len="24" vol="100" />
          <note key="51" pos="1056" pan="0" len="24" vol="100" />
          <note key="53" pos="1104" pan="0" len="24" vol="100" />
          <note key="55" pos="1176" pan="0" len="12" vol="100" />
          <note key="55" pos="1224" pan="0" len="12" vol="100" />
          <note key="53" pos="1320" pan="0" len="24" vol="100" />
          <note key="50" pos="1392" pan="0" len="24" vol="100" />
          <note key="55" pos="1464" pan="0" len="12" vol="100" />
          <note key="55" pos="1512" pan="0" len="24" vol="100" />
          <note key="48" pos="1584" pan="0" len="24" vol="100" />
          <note key="50" pos="1632" pan="0" len="24" vol="100" />
          <note key="53" pos="1680" pan="0" len="24" vol="100" />
          <note key="55" pos="1752" pan="0" len="12" vol="100" />
          <note key="55" pos="1800" pan="0" len="12" vol="100" />
          <note key="53" pos="1896" pan="0" len="24" vol="100" />
          <note key="50" pos="1968" pan="0" len="24" vol="100" />
          <note key="55" pos="2040" pan="0" len="12" vol="100" />
          <note key="55" pos="2088" pan="0" len="12" vol="100" />
          <note key="53" pos="2184" pan="0" len="24" vol="100" />
          <note key="50" pos="2256" pan="0" len="24" vol="100" />
        </pattern>
        <pattern pos="258060" muted="0" steps="16" name="" type="1">
          <note key="55" pos="24" pan="0" len="12" vol="100" />
          <note key="55" pos="72" pan="0" len="12" vol="100" />
          <note key="53" pos="168" pan="0" len="24" vol="100" />
          <note key="50" pos="240" pan="0" len="24" vol="100" />
          <note key="55" pos="312" pan="0" len="12" vol="100" />
          <note key="55" pos="360" pan="0" len="24" vol="100" />
          <note key="48" pos="432" pan="0" len="24" vol="100" />
          <note key="50" pos="480" pan="0" len="24" vol="100" />
          <note key="53" pos="528" pan="0" len="24" vol="100" />
          <note key="55" pos="600" pan="0" len="12" vol="100" />
          <note key="55" pos="648" pan="0" len="12" vol="100" />
          <note key="53" pos="744" pan="0" len="24" vol="100" />
          <note key="50" pos="816" pan="0" len="24" vol="100" />
          <note key="55" pos="888" pan="0" len="12" vol="100" />
          <note key="55" pos="936" pan="0" len="24" vol="100" />
          <note key="48" pos="1008" pan="0" len="24" vol="100" />
          <note key="50" pos="1056" pan="0" len="24" vol="100" />
          <note key="53" pos="1104" pan="0" len="24" vol="100" />
          <note key="55" pos="1176" pan="0" len="12" vol="100" />
          <note key="55" pos="1224" pan="0" len="12" vol="100" />
          <note key="53" pos="1320" pan="0" len="24" vol="100" />
          <note key="50" pos="1392" pan="0" len="24" vol="100" />
          <note key="55" pos="1464" pan="0" len="12" vol="100" />
          <note key="55" pos="1512" pan="0" len="24" vol="100" />
          <note key="48" pos="1584" pan="0" len="24" vol="100" />
          <note key="50" pos="1632" pan="0" len="24" vol="100" />
          <note key="53" pos="1680" pan="0" len="24" vol="100" />
          <note key="55" pos="1752" pan="0" len="12" vol="100" />
          <note key="55" pos="1800" pan="0" len="12" vol="100" />
          <note key="53" pos="1896" pan="0" len="24" vol="100" />
          <note key="50" pos="1968" pan="0" len="24" vol="100" />
          <note key="55" pos="2040" pan="0" len="12" vol="100" />
          <note key="55" pos="2088" pan="0" len="24" vol="100" />
          <note key="48" pos="2160" pan="0" len="24" vol="100" />
          <note key="50" pos="2208" pan="0" len="24" vol="100" />
          <note key="53" pos="2256" pan="0" len="24" vol="100" />
        </pattern>
        <pattern pos="260364" muted="0" steps="16" name="" type="1">
          <note key="55" pos="24" pan="0" len="12" vol="100" />
          <note key="55" pos="72" pan="0" len="12" vol="100" />
          <note key="53" pos="168" pan="0" len="24" vol="100" />
          <note key="50" pos="240" pan="0" len="24" vol="100" />
          <note key="55" pos="312" pan="0" len="12" vol="100" />
          <note key="55" pos="360" pan="0" len="24" vol="100" />
          <note key="48" pos="432" pan="0" len="24" vol="100" />
          <note key="50" pos="480" pan="0" len="24" vol="100" />
          <note key="53" pos="528" pan="0" len="24" vol="100" />
          <note key="55" pos="600" pan="0" len="12" vol="100" />
          <note key="55" pos="648" pan="0" len="12" vol="100" />
          <note key="53" pos="744" pan="0" len="24" vol="100" />
          <note key="50" pos="816" pan="0" len="24" vol="100" />
          <note key="55" pos="888" pan="0" len="12" vol="100" />
          <note key="55" pos="936" pan="0" len="24" vol="100" />
          <note key="48" pos="1008" pan="0" len="24" vol="100" />
          <note key="50" pos="1056" pan="0" len="24" vol="100" />
          <note key="53" pos="1104" pan="0" len="24" vol="100" />
          <note key="55" pos="1176" pan="0" len="12" vol="100" />
          <note key="55" pos="1224" pan="0" len="12" vol="100" />
          <note key="53" pos="1320" pan="0" len="24" vol="100" />
          <note key="50" pos="1392" pan="0" len="24" vol="100" />
          <note key="55" pos="1464" pan="0" len="12" vol="100" />
          <note key="55" pos="1512" pan="0" len="24" vol="100" />
          <note key="48" pos="1584" pan="0" len="24" vol="100" />
          <note key="50" pos="1632" pan="0" len="24" vol="100" />
          <note key="53" pos="1680" pan="0" len="24" vol="100" />
          <note key="55" pos="1752" pan="0" len="12" vol="100" />
          <note key="55" pos="1800" pan="0" len="12" vol="100" />
          <note key="53" pos="1896" pan="0" len="24" vol="100" />
          <note key="50" pos="1968" pan="0" len="24" vol="100" />
          <note key="55" pos="2040" pan="0" len="12" vol="100" />
          <note key="55" pos="2088" pan="0" len="24" vol="100" />
          <note key="48" pos="2160" pan="0" len="24" vol="100" />
          <note key="50" pos="2208" pan="0" len="24" vol="100" />
          <note key="53" pos="2256" pan="0" len="24" vol="100" />
        </pattern>
        <pattern pos="262668" muted="0" steps="16" name="" type="1">
          <note key="55" pos="24" pan="0" len="12" vol="100" />
          <note key="55" pos="72" pan="0" len="12" vol="100" />
          <note key="53" pos="168" pan="0" len="24" vol="100" />
          <note key="50" pos="240" pan="0" len="24" vol="100" />
          <note key="55" pos="312" pan="0" len="12" vol="100" />
          <note key="55" pos="360" pan="0" len="24" vol="100" />
          <note key="48" pos="432" pan="0" len="24" vol="100" />
          <note key="50" pos="480" pan="0" len="24" vol="100" />
          <note key="53" pos="528" pan="0" len="24" vol="100" />
          <note key="55" pos="600" pan="0" len="12" vol="100" />
          <note key="55" pos="648" pan="0" len="12" vol="100" />
          <note key="53" pos="744" pan="0" len="24" vol="100" />
          <note key="50" pos="816" pan="0" len="24" vol="100" />
          <note key="58" pos="888" pan="0" len="12" vol="100" />
          <note key="53" pos="936" pan="0" len="24" vol="100" />
          <note key="51" pos="1008" pan="0" len="24" vol="100" />
          <note key="51" pos="1056" pan="0" len="24" vol="100" />
          <note key="53" pos="1104" pan="0" len="24" vol="100" />
          <note key="55" pos="1176" pan="0" len="12" vol="100" />
          <note key="55" pos="1224" pan="0" len="12" vol="100" />
          <note key="53" pos="1320" pan="0" len="24" vol="100" />
          <note key="50" pos="1392" pan="0" len="24" vol="100" />
          <note key="55" pos="1464" pan="0" len="12" vol="100" />
          <note key="55" pos="1512" pan="0" len="24" vol="100" />
          <note key="48" pos="1584" pan="0" len="24" vol="100" />
          <note key="50" pos="1632" pan="0" len="24" vol="100" />
          <note key="53" pos="1680" pan="0" len="24" vol="100" />
          <note key="55" pos="1752" pan="0" len="12" vol="100" />
          <note key="55" pos="1800" pan="0" len="12" vol="100" />
          <note key="53" pos="1896" pan="0" len="24" vol="100" />
          <note key="50" pos="1968" pan="0" len="24" vol="100" />
          <note key="55" pos="2040" pan="0" len="12" vol="100" />
          <note key="55" pos="2088" pan="0" len="12" vol="100" />
          <note key="53" pos="2184" pan="0" len="24" vol="100" />
          <note key="50" pos="2256" pan="0" len="24" vol="100" />
        </pattern>
      </track>
      <track solo="0" name="46 (Ch5)" type="0" muted="0">
        <instrumenttrack usemasterpitch="1" pitch="0.0" basenote="57" pan="0" pitchrange="12" vol="30">
          <eldata />
          <instrument name="tripleoscillator" />
        </instrumenttrack>
        <pattern pos="236556" muted="0" steps="16" name="" type="1">
          <note key="65" pos="0" pan="0" len="24" vol="100" />
          <note key="70" pos="24" pan="0" len="24" vol="100" />
          <note key="68" pos="48" pan="0" len="24" vol="100" />
          <note key="73" pos="72" pan="0" len="24" vol="100" />
          <note key="70" pos="96" pan="0" len="288" vol="100" />
        </pattern>
        <pattern pos="198924" muted="0" steps="16" name="" type="1">
          <note key="60" pos="792" pan="0" len="24" vol="100" />
          <note key="64" pos="816" pan="0" len="24" vol="100" />
          <note key="62" pos="840" pan="0" len="24" vol="100" />
          <note key="64" pos="864" pan="0" len="12" vol="100" />
          <note key="60" pos="876" pan="0" len="36" vol="100" />
          <note key="62" pos="912" pan="0" len="12" vol="100" />
          <note key="59" pos="924" pan="0" len="36" vol="100" />
          <note key="60" pos="960" pan="0" len="24" vol="100" />
          <note key="55" pos="984" pan="0" len="24" vol="100" />
          <note key="54" pos="1008" pan="0" len="168" vol="100" />
          <note key="60" pos="1176" pan="0" len="24" vol="100" />
          <note key="64" pos="1200" pan="0" len="12" vol="100" />
          <note key="62" pos="1212" pan="0" len="24" vol="100" />
          <note key="64" pos="1236" pan="0" len="24" vol="100" />
          <note key="60" pos="1260" pan="0" len="36" vol="100" />
          <note key="66" pos="1296" pan="0" len="12" vol="100" />
          <note key="67" pos="1308" pan="0" len="36" vol="100" />
          <note key="64" pos="1344" pan="0" len="168" vol="100" />
          <note key="60" pos="1512" pan="0" len="24" vol="100" />
        </pattern>
        <pattern pos="201996" muted="0" steps="16" name="" type="1">
          <note key="57" pos="24" pan="0" len="72" vol="100" />
          <note key="64" pos="96" pan="0" len="24" vol="100" />
          <note key="64" pos="192" pan="0" len="36" vol="100" />
          <note key="64" pos="240" pan="0" len="24" vol="100" />
          <note key="57" pos="264" pan="0" len="72" vol="100" />
          <note key="64" pos="336" pan="0" len="24" vol="100" />
          <note key="67" pos="360" pan="0" len="24" vol="100" />
          <note key="64" pos="432" pan="0" len="144" vol="100" />
          <note key="67" pos="840" pan="0" len="48" vol="100" />
          <note key="69" pos="912" pan="0" len="24" vol="100" />
          <note key="62" pos="936" pan="0" len="120" vol="100" />
          <note key="67" pos="1152" pan="0" len="24" vol="100" />
          <note key="62" pos="1200" pan="0" len="120" vol="100" />
        </pattern>
        <pattern pos="222732" muted="0" steps="16" name="" type="1">
          <note key="73" pos="768" pan="0" len="24" vol="100" />
          <note key="72" pos="792" pan="0" len="24" vol="100" />
          <note key="70" pos="816" pan="0" len="72" vol="100" />
          <note key="72" pos="888" pan="0" len="24" vol="100" />
          <note key="73" pos="912" pan="0" len="24" vol="100" />
          <note key="70" pos="936" pan="0" len="24" vol="100" />
          <note key="72" pos="960" pan="0" len="48" vol="100" />
          <note key="77" pos="1008" pan="0" len="24" vol="100" />
          <note key="72" pos="1032" pan="0" len="24" vol="100" />
          <note key="70" pos="1056" pan="0" len="60" vol="100" />
          <note key="70" pos="1152" pan="0" len="24" vol="100" />
          <note key="68" pos="1176" pan="0" len="24" vol="100" />
          <note key="66" pos="1200" pan="0" len="72" vol="100" />
          <note key="68" pos="1272" pan="0" len="24" vol="100" />
          <note key="70" pos="1296" pan="0" len="24" vol="100" />
          <note key="66" pos="1320" pan="0" len="24" vol="100" />
          <note key="68" pos="1344" pan="0" len="48" vol="100" />
          <note key="73" pos="1392" pan="0" len="24" vol="100" />
          <note key="75" pos="1416" pan="0" len="24" vol="100" />
          <note key="72" pos="1440" pan="0" len="48" vol="100" />
        </pattern>
        <pattern pos="224268" muted="0" steps="16" name="" type="1">
          <note key="61" pos="0" pan="0" len="24" vol="100" />
          <note key="60" pos="24" pan="0" len="24" vol="100" />
          <note key="58" pos="48" pan="0" len="192" vol="100" />
        </pattern>
        <pattern pos="230412" muted="0" steps="16" name="" type="1">
          <note key="61" pos="0" pan="0" len="24" vol="100" />
          <note key="60" pos="24" pan="0" len="24" vol="100" />
          <note key="58" pos="48" pan="0" len="192" vol="100" />
        </pattern>
        <pattern pos="231948" muted="0" steps="16" name="" type="1">
          <note key="73" pos="768" pan="0" len="24" vol="100" />
          <note key="72" pos="792" pan="0" len="24" vol="100" />
          <note key="70" pos="816" pan="0" len="72" vol="100" />
          <note key="72" pos="888" pan="0" len="24" vol="100" />
          <note key="73" pos="912" pan="0" len="24" vol="100" />
          <note key="70" pos="936" pan="0" len="24" vol="100" />
          <note key="72" pos="960" pan="0" len="48" vol="100" />
          <note key="77" pos="1008" pan="0" len="24" vol="100" />
          <note key="72" pos="1032" pan="0" len="24" vol="100" />
          <note key="70" pos="1056" pan="0" len="60" vol="100" />
          <note key="70" pos="1152" pan="0" len="24" vol="100" />
          <note key="68" pos="1176" pan="0" len="24" vol="100" />
          <note key="66" pos="1200" pan="0" len="72" vol="100" />
          <note key="68" pos="1272" pan="0" len="24" vol="100" />
          <note key="70" pos="1296" pan="0" len="24" vol="100" />
          <note key="66" pos="1320" pan="0" len="24" vol="100" />
          <note key="68" pos="1344" pan="0" len="48" vol="100" />
          <note key="73" pos="1392" pan="0" len="24" vol="100" />
          <note key="75" pos="1416" pan="0" len="24" vol="100" />
          <note key="72" pos="1440" pan="0" len="48" vol="100" />
        </pattern>
      </track>
      <track solo="0" name="46 (Ch6)" type="0" muted="0">
        <instrumenttrack usemasterpitch="1" pitch="0.0" basenote="57" pan="0" pitchrange="12" vol="30">
          <eldata />
          <instrument name="tripleoscillator" />
        </instrumenttrack>
        <pattern pos="276444" muted="0" steps="16" name="" type="1">
          <note key="52" pos="0" pan="0" len="12" vol="100" />
          <note key="47" pos="12" pan="0" len="12" vol="47" />
          <note key="52" pos="24" pan="0" len="12" vol="62" />
          <note key="54" pos="36" pan="0" len="12" vol="100" />
          <note key="56" pos="48" pan="0" len="12" vol="47" />
          <note key="59" pos="60" pan="0" len="12" vol="62" />
          <note key="58" pos="72" pan="0" len="12" vol="100" />
          <note key="54" pos="96" pan="0" len="24" vol="100" />
          <note key="56" pos="120" pan="0" len="24" vol="100" />
          <note key="49" pos="144" pan="0" len="12" vol="100" />
          <note key="46" pos="156" pan="0" len="12" vol="100" />
          <note key="49" pos="168" pan="0" len="12" vol="100" />
          <note key="47" pos="180" pan="0" len="36" vol="100" />
          <note key="52" pos="216" pan="0" len="12" vol="100" />
          <note key="54" pos="228" pan="0" len="12" vol="100" />
          <note key="52" pos="240" pan="0" len="12" vol="100" />
          <note key="47" pos="252" pan="0" len="36" vol="100" />
          <note key="47" pos="288" pan="0" len="12" vol="100" />
          <note key="46" pos="300" pan="0" len="12" vol="47" />
          <note key="42" pos="312" pan="0" len="12" vol="62" />
          <note key="44" pos="324" pan="0" len="36" vol="100" />
          <note key="49" pos="360" pan="0" len="24" vol="100" />
          <note key="51" pos="384" pan="0" len="24" vol="62" />
          <note key="52" pos="408" pan="0" len="24" vol="100" />
          <note key="56" pos="432" pan="0" len="12" vol="100" />
          <note key="52" pos="444" pan="0" len="12" vol="47" />
          <note key="56" pos="456" pan="0" len="12" vol="62" />
          <note key="58" pos="468" pan="0" len="36" vol="100" />
          <note key="52" pos="576" pan="0" len="12" vol="100" />
          <note key="47" pos="588" pan="0" len="12" vol="47" />
          <note key="52" pos="600" pan="0" len="12" vol="62" />
          <note key="54" pos="612" pan="0" len="12" vol="100" />
          <note key="56" pos="624" pan="0" len="12" vol="47" />
          <note key="59" pos="636" pan="0" len="12" vol="62" />
          <note key="58" pos="648" pan="0" len="12" vol="100" />
          <note key="54" pos="672" pan="0" len="24" vol="100" />
          <note key="56" pos="696" pan="0" len="24" vol="100" />
          <note key="49" pos="720" pan="0" len="12" vol="100" />
          <note key="46" pos="732" pan="0" len="12" vol="100" />
          <note key="49" pos="744" pan="0" len="12" vol="100" />
          <note key="47" pos="756" pan="0" len="36" vol="100" />
          <note key="52" pos="792" pan="0" len="12" vol="100" />
          <note key="54" pos="804" pan="0" len="12" vol="100" />
          <note key="52" pos="816" pan="0" len="12" vol="100" />
          <note key="47" pos="828" pan="0" len="36" vol="100" />
          <note key="47" pos="864" pan="0" len="12" vol="100" />
          <note key="46" pos="876" pan="0" len="12" vol="47" />
          <note key="42" pos="888" pan="0" len="12" vol="62" />
          <note key="44" pos="900" pan="0" len="36" vol="100" />
          <note key="49" pos="936" pan="0" len="24" vol="100" />
          <note key="51" pos="960" pan="0" len="24" vol="62" />
          <note key="52" pos="984" pan="0" len="24" vol="100" />
          <note key="56" pos="1008" pan="0" len="12" vol="100" />
          <note key="52" pos="1020" pan="0" len="12" vol="47" />
          <note key="56" pos="1032" pan="0" len="12" vol="62" />
          <note key="58" pos="1044" pan="0" len="36" vol="100" />
        </pattern>
        <pattern pos="113664" muted="0" steps="16" name="" type="1">
          <note key="57" pos="1128" pan="0" len="12" vol="100" />
          <note key="60" pos="1140" pan="0" len="12" vol="100" />
          <note key="62" pos="1152" pan="0" len="24" vol="100" />
          <note key="62" pos="1176" pan="0" len="24" vol="100" />
          <note key="60" pos="1200" pan="0" len="12" vol="100" />
          <note key="57" pos="1212" pan="0" len="12" vol="100" />
          <note key="55" pos="1224" pan="0" len="24" vol="100" />
          <note key="55" pos="1248" pan="0" len="12" vol="100" />
          <note key="57" pos="1260" pan="0" len="24" vol="100" />
          <note key="60" pos="1284" pan="0" len="12" vol="100" />
          <note key="55" pos="1296" pan="0" len="24" vol="100" />
          <note key="55" pos="1320" pan="0" len="12" vol="100" />
          <note key="57" pos="1332" pan="0" len="12" vol="33" />
          <note key="53" pos="1344" pan="0" len="12" vol="100" />
          <note key="52" pos="1356" pan="0" len="12" vol="100" />
          <note key="50" pos="1368" pan="0" len="24" vol="100" />
          <note key="50" pos="1392" pan="0" len="24" vol="100" />
          <note key="57" pos="1416" pan="0" len="12" vol="100" />
          <note key="60" pos="1428" pan="0" len="12" vol="100" />
          <note key="62" pos="1440" pan="0" len="24" vol="100" />
          <note key="62" pos="1464" pan="0" len="24" vol="100" />
          <note key="60" pos="1488" pan="0" len="12" vol="100" />
          <note key="57" pos="1500" pan="0" len="12" vol="100" />
          <note key="55" pos="1512" pan="0" len="24" vol="100" />
          <note key="55" pos="1536" pan="0" len="12" vol="100" />
          <note key="57" pos="1548" pan="0" len="24" vol="100" />
          <note key="60" pos="1572" pan="0" len="12" vol="100" />
          <note key="55" pos="1584" pan="0" len="24" vol="100" />
          <note key="55" pos="1608" pan="0" len="12" vol="100" />
          <note key="57" pos="1620" pan="0" len="24" vol="100" />
          <note key="53" pos="1644" pan="0" len="12" vol="100" />
          <note key="55" pos="1656" pan="0" len="24" vol="100" />
          <note key="55" pos="1680" pan="0" len="24" vol="100" />
          <note key="57" pos="1704" pan="0" len="12" vol="100" />
          <note key="60" pos="1716" pan="0" len="12" vol="100" />
          <note key="62" pos="1728" pan="0" len="24" vol="100" />
          <note key="62" pos="1752" pan="0" len="24" vol="100" />
          <note key="60" pos="1776" pan="0" len="12" vol="100" />
          <note key="57" pos="1788" pan="0" len="12" vol="100" />
          <note key="55" pos="1800" pan="0" len="24" vol="100" />
          <note key="55" pos="1824" pan="0" len="12" vol="100" />
          <note key="57" pos="1836" pan="0" len="24" vol="100" />
          <note key="60" pos="1860" pan="0" len="12" vol="100" />
          <note key="55" pos="1872" pan="0" len="24" vol="100" />
          <note key="55" pos="1896" pan="0" len="12" vol="100" />
          <note key="57" pos="1908" pan="0" len="12" vol="33" />
          <note key="53" pos="1920" pan="0" len="12" vol="100" />
          <note key="52" pos="1932" pan="0" len="12" vol="100" />
          <note key="50" pos="1944" pan="0" len="24" vol="100" />
          <note key="50" pos="1968" pan="0" len="24" vol="100" />
          <note key="57" pos="1992" pan="0" len="12" vol="100" />
          <note key="60" pos="2004" pan="0" len="12" vol="100" />
          <note key="62" pos="2016" pan="0" len="24" vol="100" />
          <note key="62" pos="2040" pan="0" len="24" vol="100" />
          <note key="60" pos="2064" pan="0" len="12" vol="100" />
          <note key="57" pos="2076" pan="0" len="12" vol="100" />
          <note key="55" pos="2088" pan="0" len="24" vol="100" />
          <note key="55" pos="2112" pan="0" len="12" vol="100" />
          <note key="57" pos="2124" pan="0" len="24" vol="100" />
          <note key="60" pos="2148" pan="0" len="12" vol="100" />
          <note key="55" pos="2160" pan="0" len="24" vol="100" />
          <note key="55" pos="2184" pan="0" len="12" vol="100" />
          <note key="57" pos="2196" pan="0" len="24" vol="100" />
          <note key="53" pos="2220" pan="0" len="12" vol="100" />
          <note key="55" pos="2232" pan="0" len="24" vol="100" />
          <note key="55" pos="2256" pan="0" len="12" vol="100" />
          <note key="64" pos="2268" pan="0" len="24" vol="100" />
          <note key="60" pos="2292" pan="0" len="12" vol="100" />
        </pattern>
        <pattern pos="115968" muted="0" steps="16" name="" type="1">
          <note key="57" pos="2280" pan="0" len="12" vol="100" />
          <note key="60" pos="2292" pan="0" len="12" vol="100" />
        </pattern>
        <pattern pos="118272" muted="0" steps="16" name="" type="1">
          <note key="62" pos="0" pan="0" len="24" vol="100" />
          <note key="62" pos="24" pan="0" len="1128" vol="100" />
          <note key="62" pos="1152" pan="0" len="24" vol="100" />
          <note key="62" pos="1176" pan="0" len="24" vol="100" />
          <note key="60" pos="1200" pan="0" len="12" vol="100" />
          <note key="57" pos="1212" pan="0" len="12" vol="100" />
          <note key="55" pos="1224" pan="0" len="24" vol="100" />
          <note key="55" pos="1248" pan="0" len="12" vol="100" />
          <note key="57" pos="1260" pan="0" len="24" vol="100" />
          <note key="60" pos="1284" pan="0" len="12" vol="100" />
          <note key="55" pos="1296" pan="0" len="24" vol="100" />
          <note key="55" pos="1320" pan="0" len="12" vol="100" />
          <note key="55" pos="1332" pan="0" len="12" vol="33" />
          <note key="53" pos="1344" pan="0" len="12" vol="100" />
          <note key="52" pos="1356" pan="0" len="12" vol="100" />
          <note key="50" pos="1368" pan="0" len="24" vol="100" />
          <note key="50" pos="1392" pan="0" len="24" vol="100" />
          <note key="57" pos="1416" pan="0" len="12" vol="100" />
          <note key="60" pos="1428" pan="0" len="12" vol="100" />
          <note key="62" pos="1440" pan="0" len="24" vol="100" />
          <note key="62" pos="1464" pan="0" len="24" vol="100" />
          <note key="60" pos="1488" pan="0" len="12" vol="100" />
          <note key="57" pos="1500" pan="0" len="12" vol="100" />
          <note key="55" pos="1512" pan="0" len="24" vol="100" />
          <note key="55" pos="1536" pan="0" len="12" vol="100" />
          <note key="57" pos="1548" pan="0" len="24" vol="100" />
          <note key="60" pos="1572" pan="0" len="12" vol="100" />
          <note key="55" pos="1584" pan="0" len="24" vol="100" />
          <note key="55" pos="1608" pan="0" len="12" vol="100" />
          <note key="57" pos="1620" pan="0" len="24" vol="100" />
          <note key="53" pos="1644" pan="0" len="12" vol="100" />
          <note key="55" pos="1656" pan="0" len="24" vol="100" />
          <note key="55" pos="1680" pan="0" len="24" vol="100" />
          <note key="57" pos="1704" pan="0" len="12" vol="100" />
          <note key="60" pos="1716" pan="0" len="12" vol="100" />
          <note key="62" pos="1728" pan="0" len="24" vol="100" />
          <note key="62" pos="1752" pan="0" len="24" vol="100" />
          <note key="60" pos="1776" pan="0" len="12" vol="100" />
          <note key="57" pos="1788" pan="0" len="12" vol="100" />
          <note key="55" pos="1800" pan="0" len="24" vol="100" />
          <note key="55" pos="1824" pan="0" len="12" vol="100" />
          <note key="57" pos="1836" pan="0" len="24" vol="100" />
          <note key="60" pos="1860" pan="0" len="12" vol="100" />
          <note key="55" pos="1872" pan="0" len="24" vol="100" />
          <note key="55" pos="1896" pan="0" len="12" vol="100" />
          <note key="57" pos="1908" pan="0" len="12" vol="33" />
          <note key="53" pos="1920" pan="0" len="12" vol="100" />
          <note key="52" pos="1932" pan="0" len="12" vol="100" />
          <note key="50" pos="1944" pan="0" len="24" vol="100" />
          <note key="50" pos="1968" pan="0" len="24" vol="100" />
          <note key="57" pos="1992" pan="0" len="12" vol="100" />
          <note key="60" pos="2004" pan="0" len="12" vol="100" />
          <note key="62" pos="2016" pan="0" len="24" vol="100" />
          <note key="62" pos="2040" pan="0" len="24" vol="100" />
          <note key="60" pos="2064" pan="0" len="12" vol="100" />
          <note key="57" pos="2076" pan="0" len="12" vol="100" />
          <note key="55" pos="2088" pan="0" len="24" vol="100" />
          <note key="55" pos="2112" pan="0" len="12" vol="100" />
          <note key="57" pos="2124" pan="0" len="24" vol="100" />
          <note key="60" pos="2148" pan="0" len="12" vol="100" />
          <note key="55" pos="2160" pan="0" len="24" vol="100" />
          <note key="55" pos="2184" pan="0" len="12" vol="100" />
          <note key="57" pos="2196" pan="0" len="24" vol="100" />
          <note key="53" pos="2220" pan="0" len="12" vol="100" />
          <note key="55" pos="2232" pan="0" len="24" vol="100" />
          <note key="55" pos="2256" pan="0" len="12" vol="100" />
          <note key="64" pos="2268" pan="0" len="24" vol="100" />
          <note key="60" pos="2292" pan="0" len="12" vol="100" />
        </pattern>
        <pattern pos="120576" muted="0" steps="16" name="" type="1">
          <note key="57" pos="2280" pan="0" len="12" vol="100" />
          <note key="60" pos="2292" pan="0" len="12" vol="100" />
        </pattern>
        <pattern pos="271692" muted="0" steps="16" name="" type="1">
          <note key="52" pos="0" pan="0" len="12" vol="100" />
          <note key="47" pos="12" pan="0" len="12" vol="47" />
          <note key="52" pos="24" pan="0" len="12" vol="62" />
          <note key="54" pos="36" pan="0" len="12" vol="100" />
          <note key="56" pos="48" pan="0" len="12" vol="47" />
          <note key="59" pos="60" pan="0" len="12" vol="62" />
          <note key="58" pos="72" pan="0" len="12" vol="100" />
          <note key="54" pos="96" pan="0" len="24" vol="100" />
          <note key="56" pos="120" pan="0" len="24" vol="100" />
          <note key="49" pos="144" pan="0" len="12" vol="100" />
          <note key="46" pos="156" pan="0" len="12" vol="100" />
          <note key="49" pos="168" pan="0" len="12" vol="100" />
          <note key="47" pos="180" pan="0" len="36" vol="100" />
          <note key="52" pos="216" pan="0" len="12" vol="100" />
          <note key="54" pos="228" pan="0" len="12" vol="100" />
          <note key="52" pos="240" pan="0" len="12" vol="100" />
          <note key="47" pos="252" pan="0" len="36" vol="100" />
          <note key="47" pos="288" pan="0" len="12" vol="100" />
          <note key="46" pos="300" pan="0" len="12" vol="47" />
          <note key="42" pos="312" pan="0" len="12" vol="62" />
          <note key="44" pos="324" pan="0" len="36" vol="100" />
          <note key="49" pos="360" pan="0" len="24" vol="100" />
          <note key="51" pos="384" pan="0" len="24" vol="62" />
          <note key="52" pos="408" pan="0" len="24" vol="100" />
          <note key="56" pos="432" pan="0" len="12" vol="100" />
          <note key="52" pos="444" pan="0" len="12" vol="47" />
          <note key="56" pos="456" pan="0" len="12" vol="62" />
          <note key="58" pos="468" pan="0" len="36" vol="100" />
          <note key="52" pos="576" pan="0" len="12" vol="100" />
          <note key="47" pos="588" pan="0" len="12" vol="47" />
          <note key="52" pos="600" pan="0" len="12" vol="62" />
          <note key="54" pos="612" pan="0" len="12" vol="100" />
          <note key="56" pos="624" pan="0" len="12" vol="47" />
          <note key="59" pos="636" pan="0" len="12" vol="62" />
          <note key="58" pos="648" pan="0" len="12" vol="100" />
          <note key="54" pos="672" pan="0" len="24" vol="100" />
          <note key="56" pos="696" pan="0" len="24" vol="100" />
          <note key="49" pos="720" pan="0" len="12" vol="100" />
          <note key="46" pos="732" pan="0" len="12" vol="100" />
          <note key="49" pos="744" pan="0" len="12" vol="100" />
          <note key="47" pos="756" pan="0" len="36" vol="100" />
          <note key="52" pos="792" pan="0" len="12" vol="100" />
          <note key="54" pos="804" pan="0" len="12" vol="100" />
          <note key="52" pos="816" pan="0" len="12" vol="100" />
          <note key="47" pos="828" pan="0" len="36" vol="100" />
          <note key="47" pos="864" pan="0" len="12" vol="100" />
          <note key="46" pos="876" pan="0" len="12" vol="47" />
          <note key="42" pos="888" pan="0" len="12" vol="62" />
          <note key="44" pos="900" pan="0" len="36" vol="100" />
          <note key="49" pos="936" pan="0" len="24" vol="100" />
          <note key="51" pos="960" pan="0" len="24" vol="62" />
          <note key="52" pos="984" pan="0" len="24" vol="100" />
          <note key="56" pos="1008" pan="0" len="12" vol="100" />
          <note key="52" pos="1020" pan="0" len="12" vol="47" />
          <note key="56" pos="1032" pan="0" len="12" vol="62" />
          <note key="58" pos="1044" pan="0" len="36" vol="100" />
        </pattern>
      </track>
      <track solo="0" name="46 (Ch7)" type="0" muted="0">
        <instrumenttrack usemasterpitch="1" pitch="0.0" basenote="57" pan="0" pitchrange="12" vol="30">
          <eldata />
          <instrument name="tripleoscillator" />
        </instrumenttrack>
        <pattern pos="248844" muted="0" steps="16" name="" type="1">
          <note key="65" pos="432" pan="0" len="24" vol="100" />
          <note key="58" pos="456" pan="0" len="744" vol="100" />
        </pattern>
        <pattern pos="127500" muted="0" steps="16" name="" type="1">
          <note key="58" pos="0" pan="0" len="96" vol="100" />
          <note key="60" pos="96" pan="0" len="48" vol="100" />
          <note key="55" pos="144" pan="0" len="48" vol="100" />
          <note key="53" pos="192" pan="0" len="12" vol="100" />
          <note key="51" pos="204" pan="0" len="12" vol="100" />
          <note key="50" pos="216" pan="0" len="48" vol="100" />
          <note key="55" pos="264" pan="0" len="24" vol="100" />
          <note key="51" pos="288" pan="0" len="96" vol="100" />
          <note key="62" pos="384" pan="0" len="48" vol="100" />
          <note key="63" pos="432" pan="0" len="48" vol="100" />
          <note key="58" pos="480" pan="0" len="48" vol="100" />
          <note key="57" pos="528" pan="0" len="48" vol="100" />
          <note key="55" pos="576" pan="0" len="60" vol="100" />
          <note key="53" pos="636" pan="0" len="12" vol="100" />
          <note key="51" pos="648" pan="0" len="12" vol="100" />
          <note key="53" pos="660" pan="0" len="12" vol="100" />
          <note key="51" pos="672" pan="0" len="84" vol="100" />
        </pattern>
        <pattern pos="138252" muted="0" steps="16" name="" type="1">
          <note key="45" pos="24" pan="0" len="24" vol="100" />
          <note key="46" pos="48" pan="0" len="24" vol="100" />
          <note key="50" pos="72" pan="0" len="48" vol="100" />
          <note key="45" pos="120" pan="0" len="24" vol="100" />
          <note key="46" pos="144" pan="0" len="24" vol="100" />
          <note key="50" pos="168" pan="0" len="24" vol="100" />
          <note key="53" pos="192" pan="0" len="216" vol="100" />
          <note key="41" pos="408" pan="0" len="24" vol="100" />
          <note key="45" pos="432" pan="0" len="24" vol="100" />
          <note key="48" pos="456" pan="0" len="48" vol="100" />
          <note key="43" pos="504" pan="0" len="24" vol="100" />
          <note key="45" pos="528" pan="0" len="24" vol="100" />
          <note key="48" pos="552" pan="0" len="24" vol="100" />
          <note key="51" pos="576" pan="0" len="96" vol="100" />
          <note key="45" pos="888" pan="0" len="24" vol="100" />
          <note key="46" pos="912" pan="0" len="24" vol="100" />
          <note key="50" pos="936" pan="0" len="24" vol="100" />
          <note key="41" pos="1176" pan="0" len="24" vol="100" />
          <note key="45" pos="1200" pan="0" len="24" vol="100" />
          <note key="48" pos="1224" pan="0" len="48" vol="100" />
          <note key="43" pos="1272" pan="0" len="24" vol="100" />
          <note key="45" pos="1296" pan="0" len="24" vol="100" />
          <note key="48" pos="1320" pan="0" len="24" vol="100" />
        </pattern>
        <pattern pos="139788" muted="0" steps="16" name="" type="1">
          <note key="45" pos="24" pan="0" len="24" vol="100" />
          <note key="46" pos="48" pan="0" len="24" vol="100" />
          <note key="50" pos="72" pan="0" len="48" vol="100" />
          <note key="45" pos="120" pan="0" len="24" vol="100" />
          <note key="46" pos="144" pan="0" len="24" vol="100" />
          <note key="50" pos="168" pan="0" len="24" vol="100" />
          <note key="53" pos="192" pan="0" len="216" vol="100" />
          <note key="41" pos="408" pan="0" len="24" vol="100" />
          <note key="45" pos="432" pan="0" len="24" vol="100" />
          <note key="48" pos="456" pan="0" len="48" vol="100" />
          <note key="43" pos="504" pan="0" len="24" vol="100" />
          <note key="45" pos="528" pan="0" len="24" vol="100" />
          <note key="48" pos="552" pan="0" len="24" vol="100" />
          <note key="51" pos="576" pan="0" len="216" vol="100" />
          <note key="45" pos="792" pan="0" len="24" vol="100" />
          <note key="46" pos="816" pan="0" len="24" vol="100" />
          <note key="50" pos="840" pan="0" len="48" vol="100" />
          <note key="45" pos="888" pan="0" len="24" vol="100" />
          <note key="46" pos="912" pan="0" len="24" vol="100" />
          <note key="50" pos="936" pan="0" len="24" vol="100" />
          <note key="53" pos="960" pan="0" len="216" vol="100" />
          <note key="45" pos="1176" pan="0" len="24" vol="100" />
          <note key="48" pos="1200" pan="0" len="24" vol="100" />
          <note key="53" pos="1224" pan="0" len="48" vol="100" />
          <note key="45" pos="1272" pan="0" len="24" vol="100" />
          <note key="48" pos="1296" pan="0" len="24" vol="100" />
          <note key="53" pos="1320" pan="0" len="24" vol="100" />
          <note key="51" pos="1344" pan="0" len="192" vol="100" />
        </pattern>
        <pattern pos="185100" muted="0" steps="16" name="" type="1">
          <note key="60" pos="0" pan="0" len="72" vol="100" />
          <note key="60" pos="72" pan="0" len="120" vol="100" />
          <note key="60" pos="192" pan="0" len="72" vol="100" />
          <note key="60" pos="264" pan="0" len="24" vol="100" />
          <note key="59" pos="288" pan="0" len="24" vol="100" />
          <note key="60" pos="312" pan="0" len="24" vol="100" />
          <note key="62" pos="336" pan="0" len="24" vol="100" />
          <note key="59" pos="360" pan="0" len="24" vol="100" />
          <note key="60" pos="384" pan="0" len="24" vol="100" />
          <note key="57" pos="408" pan="0" len="360" vol="100" />
          <note key="67" pos="768" pan="0" len="72" vol="100" />
          <note key="67" pos="840" pan="0" len="120" vol="100" />
          <note key="67" pos="960" pan="0" len="72" vol="100" />
          <note key="67" pos="1032" pan="0" len="24" vol="100" />
          <note key="66" pos="1056" pan="0" len="24" vol="100" />
          <note key="67" pos="1080" pan="0" len="24" vol="100" />
          <note key="69" pos="1104" pan="0" len="24" vol="100" />
          <note key="66" pos="1128" pan="0" len="24" vol="100" />
          <note key="67" pos="1152" pan="0" len="24" vol="100" />
          <note key="64" pos="1176" pan="0" len="360" vol="100" />
        </pattern>
        <pattern pos="221196" muted="0" steps="16" name="" type="1">
          <note key="61" pos="528" pan="0" len="24" vol="100" />
          <note key="60" pos="552" pan="0" len="24" vol="100" />
          <note key="58" pos="576" pan="0" len="192" vol="100" />
          <note key="61" pos="1152" pan="0" len="24" vol="100" />
          <note key="60" pos="1176" pan="0" len="24" vol="100" />
          <note key="65" pos="1200" pan="0" len="288" vol="100" />
          <note key="58" pos="1488" pan="0" len="24" vol="100" />
          <note key="60" pos="1512" pan="0" len="24" vol="100" />
        </pattern>
        <pattern pos="222732" muted="0" steps="16" name="" type="1">
          <note key="61" pos="0" pan="0" len="24" vol="100" />
          <note key="60" pos="24" pan="0" len="24" vol="100" />
          <note key="58" pos="48" pan="0" len="72" vol="100" />
          <note key="60" pos="120" pan="0" len="24" vol="100" />
          <note key="61" pos="144" pan="0" len="24" vol="100" />
          <note key="58" pos="168" pan="0" len="24" vol="100" />
          <note key="60" pos="192" pan="0" len="24" vol="100" />
          <note key="56" pos="216" pan="0" len="24" vol="100" />
          <note key="53" pos="240" pan="0" len="24" vol="100" />
          <note key="60" pos="264" pan="0" len="24" vol="100" />
          <note key="58" pos="288" pan="0" len="60" vol="100" />
          <note key="58" pos="384" pan="0" len="24" vol="100" />
          <note key="56" pos="408" pan="0" len="24" vol="100" />
          <note key="54" pos="432" pan="0" len="72" vol="100" />
          <note key="56" pos="504" pan="0" len="24" vol="100" />
          <note key="58" pos="528" pan="0" len="24" vol="100" />
          <note key="54" pos="552" pan="0" len="24" vol="100" />
          <note key="56" pos="576" pan="0" len="48" vol="100" />
          <note key="53" pos="624" pan="0" len="24" vol="100" />
          <note key="49" pos="648" pan="0" len="24" vol="100" />
          <note key="51" pos="672" pan="0" len="48" vol="100" />
          <note key="61" pos="768" pan="0" len="24" vol="100" />
          <note key="60" pos="792" pan="0" len="24" vol="100" />
          <note key="58" pos="816" pan="0" len="72" vol="100" />
          <note key="60" pos="888" pan="0" len="24" vol="100" />
          <note key="61" pos="912" pan="0" len="24" vol="100" />
          <note key="58" pos="936" pan="0" len="24" vol="100" />
          <note key="60" pos="960" pan="0" len="48" vol="100" />
          <note key="65" pos="1008" pan="0" len="24" vol="100" />
          <note key="60" pos="1032" pan="0" len="24" vol="100" />
          <note key="58" pos="1056" pan="0" len="60" vol="100" />
          <note key="58" pos="1152" pan="0" len="24" vol="100" />
          <note key="56" pos="1176" pan="0" len="24" vol="100" />
          <note key="54" pos="1200" pan="0" len="72" vol="100" />
          <note key="56" pos="1272" pan="0" len="24" vol="100" />
          <note key="58" pos="1296" pan="0" len="24" vol="100" />
          <note key="54" pos="1320" pan="0" len="24" vol="100" />
          <note key="56" pos="1344" pan="0" len="48" vol="100" />
          <note key="61" pos="1392" pan="0" len="24" vol="100" />
          <note key="63" pos="1416" pan="0" len="24" vol="100" />
          <note key="60" pos="1440" pan="0" len="48" vol="100" />
        </pattern>
        <pattern pos="225804" muted="0" steps="16" name="" type="1">
          <note key="73" pos="0" pan="0" len="24" vol="100" />
          <note key="72" pos="24" pan="0" len="24" vol="100" />
          <note key="70" pos="48" pan="0" len="72" vol="100" />
          <note key="72" pos="120" pan="0" len="24" vol="100" />
          <note key="73" pos="144" pan="0" len="24" vol="100" />
          <note key="70" pos="168" pan="0" len="24" vol="100" />
          <note key="72" pos="192" pan="0" len="48" vol="100" />
          <note key="65" pos="240" pan="0" len="24" vol="100" />
          <note key="72" pos="264" pan="0" len="24" vol="100" />
          <note key="70" pos="288" pan="0" len="60" vol="100" />
          <note key="70" pos="384" pan="0" len="24" vol="100" />
          <note key="68" pos="408" pan="0" len="24" vol="100" />
          <note key="66" pos="432" pan="0" len="72" vol="100" />
          <note key="66" pos="504" pan="0" len="24" vol="100" />
          <note key="70" pos="528" pan="0" len="24" vol="100" />
          <note key="66" pos="552" pan="0" len="24" vol="100" />
          <note key="68" pos="576" pan="0" len="48" vol="100" />
          <note key="65" pos="624" pan="0" len="24" vol="100" />
          <note key="61" pos="648" pan="0" len="24" vol="100" />
          <note key="63" pos="672" pan="0" len="48" vol="100" />
          <note key="73" pos="768" pan="0" len="24" vol="100" />
          <note key="72" pos="792" pan="0" len="24" vol="100" />
          <note key="70" pos="816" pan="0" len="72" vol="100" />
          <note key="72" pos="888" pan="0" len="24" vol="100" />
          <note key="73" pos="912" pan="0" len="24" vol="100" />
          <note key="70" pos="936" pan="0" len="24" vol="100" />
          <note key="72" pos="960" pan="0" len="48" vol="100" />
          <note key="65" pos="1008" pan="0" len="24" vol="100" />
          <note key="72" pos="1032" pan="0" len="24" vol="100" />
          <note key="70" pos="1056" pan="0" len="60" vol="100" />
          <note key="70" pos="1152" pan="0" len="24" vol="100" />
          <note key="68" pos="1176" pan="0" len="24" vol="100" />
          <note key="66" pos="1200" pan="0" len="72" vol="100" />
          <note key="68" pos="1272" pan="0" len="24" vol="100" />
          <note key="70" pos="1296" pan="0" len="24" vol="100" />
          <note key="66" pos="1320" pan="0" len="24" vol="100" />
          <note key="68" pos="1344" pan="0" len="48" vol="100" />
          <note key="73" pos="1392" pan="0" len="24" vol="100" />
          <note key="75" pos="1416" pan="0" len="24" vol="100" />
          <note key="72" pos="1440" pan="0" len="48" vol="100" />
        </pattern>
        <pattern pos="231948" muted="0" steps="16" name="" type="1">
          <note key="61" pos="0" pan="0" len="24" vol="100" />
          <note key="60" pos="24" pan="0" len="24" vol="100" />
          <note key="58" pos="48" pan="0" len="72" vol="100" />
          <note key="60" pos="120" pan="0" len="24" vol="100" />
          <note key="61" pos="144" pan="0" len="24" vol="100" />
          <note key="58" pos="168" pan="0" len="24" vol="100" />
          <note key="60" pos="192" pan="0" len="24" vol="100" />
          <note key="56" pos="216" pan="0" len="24" vol="100" />
          <note key="53" pos="240" pan="0" len="24" vol="100" />
          <note key="60" pos="264" pan="0" len="24" vol="100" />
          <note key="58" pos="288" pan="0" len="60" vol="100" />
          <note key="58" pos="384" pan="0" len="24" vol="100" />
          <note key="56" pos="408" pan="0" len="24" vol="100" />
          <note key="54" pos="432" pan="0" len="72" vol="100" />
          <note key="56" pos="504" pan="0" len="24" vol="100" />
          <note key="58" pos="528" pan="0" len="24" vol="100" />
          <note key="54" pos="552" pan="0" len="24" vol="100" />
          <note key="56" pos="576" pan="0" len="48" vol="100" />
          <note key="53" pos="624" pan="0" len="24" vol="100" />
          <note key="49" pos="648" pan="0" len="24" vol="100" />
          <note key="51" pos="672" pan="0" len="48" vol="100" />
          <note key="61" pos="768" pan="0" len="24" vol="100" />
          <note key="60" pos="792" pan="0" len="24" vol="100" />
          <note key="58" pos="816" pan="0" len="72" vol="100" />
          <note key="60" pos="888" pan="0" len="24" vol="100" />
          <note key="61" pos="912" pan="0" len="24" vol="100" />
          <note key="58" pos="936" pan="0" len="24" vol="100" />
          <note key="60" pos="960" pan="0" len="48" vol="100" />
          <note key="65" pos="1008" pan="0" len="24" vol="100" />
          <note key="60" pos="1032" pan="0" len="24" vol="100" />
          <note key="58" pos="1056" pan="0" len="60" vol="100" />
          <note key="58" pos="1152" pan="0" len="24" vol="100" />
          <note key="56" pos="1176" pan="0" len="24" vol="100" />
          <note key="54" pos="1200" pan="0" len="72" vol="100" />
          <note key="56" pos="1272" pan="0" len="24" vol="100" />
          <note key="58" pos="1296" pan="0" len="24" vol="100" />
          <note key="54" pos="1320" pan="0" len="24" vol="100" />
          <note key="56" pos="1344" pan="0" len="48" vol="100" />
          <note key="61" pos="1392" pan="0" len="24" vol="100" />
          <note key="63" pos="1416" pan="0" len="24" vol="100" />
          <note key="60" pos="1440" pan="0" len="48" vol="100" />
        </pattern>
      </track>
      <track solo="0" name="46 (Ch8)" type="0" muted="0">
        <instrumenttrack usemasterpitch="1" pitch="0.0" basenote="57" pan="0" pitchrange="12" vol="30">
          <eldata />
          <instrument name="tripleoscillator" />
        </instrumenttrack>
        <pattern pos="238860" muted="0" steps="16" name="" type="1">
          <note key="61" pos="1152" pan="0" len="12" vol="47" />
          <note key="63" pos="1164" pan="0" len="24" vol="48" />
          <note key="58" pos="1188" pan="0" len="12" vol="53" />
          <note key="61" pos="1200" pan="0" len="24" vol="55" />
          <note key="56" pos="1224" pan="0" len="12" vol="58" />
          <note key="58" pos="1236" pan="0" len="24" vol="61" />
          <note key="54" pos="1260" pan="0" len="12" vol="64" />
          <note key="56" pos="1272" pan="0" len="24" vol="66" />
          <note key="53" pos="1296" pan="0" len="12" vol="70" />
          <note key="54" pos="1308" pan="0" len="12" vol="72" />
          <note key="53" pos="1320" pan="0" len="12" vol="73" />
          <note key="54" pos="1332" pan="0" len="12" vol="77" />
          <note key="51" pos="1344" pan="0" len="192" vol="78" />
        </pattern>
        <pattern pos="27648" muted="0" steps="16" name="" type="1">
          <note key="63" pos="1464" pan="0" len="24" vol="100" />
          <note key="67" pos="1488" pan="0" len="48" vol="100" />
        </pattern>
        <pattern pos="136716" muted="0" steps="16" name="" type="1">
          <note key="55" pos="1128" pan="0" len="12" vol="17" />
          <note key="53" pos="1140" pan="0" len="12" vol="34" />
        </pattern>
        <pattern pos="142860" muted="0" steps="16" name="" type="1">
          <note key="55" pos="1128" pan="0" len="12" vol="17" />
          <note key="53" pos="1140" pan="0" len="12" vol="34" />
        </pattern>
      </track>
      <track solo="0" name="46 (Ch9)" type="0" muted="0">
        <instrumenttrack usemasterpitch="1" pitch="0.0" basenote="57" pan="0" pitchrange="12" vol="30">
          <eldata />
          <instrument name="tripleoscillator" />
        </instrumenttrack>
        <pattern pos="274140" muted="0" steps="16" name="" type="1">
          <note key="44" pos="1152" pan="0" len="12" vol="59" />
          <note key="51" pos="1164" pan="0" len="12" vol="16" />
          <note key="54" pos="1176" pan="0" len="12" vol="31" />
          <note key="56" pos="1188" pan="0" len="12" vol="59" />
          <note key="58" pos="1200" pan="0" len="12" vol="16" />
          <note key="59" pos="1212" pan="0" len="12" vol="31" />
          <note key="58" pos="1224" pan="0" len="12" vol="59" />
          <note key="54" pos="1236" pan="0" len="12" vol="59" />
          <note key="49" pos="1248" pan="0" len="12" vol="59" />
          <note key="46" pos="1260" pan="0" len="12" vol="59" />
          <note key="44" pos="1272" pan="0" len="12" vol="16" />
          <note key="42" pos="1284" pan="0" len="12" vol="31" />
          <note key="44" pos="1296" pan="0" len="12" vol="59" />
          <note key="51" pos="1308" pan="0" len="12" vol="16" />
          <note key="54" pos="1320" pan="0" len="12" vol="31" />
          <note key="56" pos="1332" pan="0" len="12" vol="59" />
          <note key="58" pos="1344" pan="0" len="12" vol="31" />
          <note key="59" pos="1356" pan="0" len="12" vol="47" />
          <note key="61" pos="1368" pan="0" len="12" vol="59" />
          <note key="58" pos="1380" pan="0" len="12" vol="59" />
          <note key="54" pos="1392" pan="0" len="12" vol="59" />
          <note key="54" pos="1404" pan="0" len="12" vol="59" />
          <note key="49" pos="1416" pan="0" len="12" vol="16" />
          <note key="42" pos="1428" pan="0" len="12" vol="31" />
          <note key="59" pos="1440" pan="0" len="12" vol="59" />
          <note key="51" pos="1452" pan="0" len="12" vol="16" />
          <note key="54" pos="1464" pan="0" len="12" vol="31" />
          <note key="56" pos="1476" pan="0" len="12" vol="59" />
          <note key="58" pos="1488" pan="0" len="12" vol="16" />
          <note key="59" pos="1500" pan="0" len="12" vol="31" />
          <note key="58" pos="1512" pan="0" len="12" vol="59" />
          <note key="54" pos="1524" pan="0" len="12" vol="16" />
          <note key="49" pos="1536" pan="0" len="12" vol="31" />
          <note key="46" pos="1548" pan="0" len="12" vol="59" />
          <note key="44" pos="1560" pan="0" len="12" vol="31" />
          <note key="42" pos="1572" pan="0" len="12" vol="47" />
          <note key="52" pos="1584" pan="0" len="12" vol="59" />
          <note key="47" pos="1596" pan="0" len="12" vol="16" />
          <note key="52" pos="1608" pan="0" len="12" vol="31" />
          <note key="54" pos="1620" pan="0" len="12" vol="59" />
          <note key="56" pos="1632" pan="0" len="12" vol="31" />
          <note key="59" pos="1644" pan="0" len="12" vol="47" />
          <note key="58" pos="1656" pan="0" len="12" vol="59" />
          <note key="54" pos="1668" pan="0" len="12" vol="16" />
          <note key="49" pos="1680" pan="0" len="12" vol="31" />
          <note key="46" pos="1692" pan="0" len="12" vol="59" />
          <note key="44" pos="1704" pan="0" len="12" vol="59" />
          <note key="42" pos="1716" pan="0" len="12" vol="59" />
          <note key="44" pos="1728" pan="0" len="12" vol="59" />
          <note key="51" pos="1740" pan="0" len="12" vol="16" />
          <note key="54" pos="1752" pan="0" len="12" vol="31" />
          <note key="56" pos="1764" pan="0" len="12" vol="59" />
          <note key="58" pos="1776" pan="0" len="12" vol="16" />
          <note key="59" pos="1788" pan="0" len="12" vol="31" />
          <note key="58" pos="1800" pan="0" len="12" vol="59" />
          <note key="54" pos="1812" pan="0" len="12" vol="59" />
          <note key="49" pos="1824" pan="0" len="12" vol="59" />
          <note key="46" pos="1836" pan="0" len="12" vol="59" />
          <note key="44" pos="1848" pan="0" len="12" vol="16" />
          <note key="42" pos="1860" pan="0" len="12" vol="31" />
          <note key="44" pos="1872" pan="0" len="12" vol="59" />
          <note key="51" pos="1884" pan="0" len="12" vol="16" />
          <note key="54" pos="1896" pan="0" len="12" vol="31" />
          <note key="56" pos="1908" pan="0" len="12" vol="59" />
          <note key="58" pos="1920" pan="0" len="12" vol="31" />
          <note key="59" pos="1932" pan="0" len="12" vol="47" />
          <note key="61" pos="1944" pan="0" len="12" vol="59" />
          <note key="58" pos="1956" pan="0" len="12" vol="59" />
          <note key="54" pos="1968" pan="0" len="12" vol="59" />
          <note key="54" pos="1980" pan="0" len="12" vol="59" />
          <note key="49" pos="1992" pan="0" len="12" vol="16" />
          <note key="42" pos="2004" pan="0" len="12" vol="31" />
          <note key="59" pos="2016" pan="0" len="12" vol="59" />
          <note key="51" pos="2028" pan="0" len="12" vol="16" />
          <note key="54" pos="2040" pan="0" len="12" vol="31" />
          <note key="56" pos="2052" pan="0" len="12" vol="59" />
          <note key="58" pos="2064" pan="0" len="12" vol="16" />
          <note key="59" pos="2076" pan="0" len="12" vol="31" />
          <note key="58" pos="2088" pan="0" len="12" vol="59" />
          <note key="54" pos="2100" pan="0" len="12" vol="16" />
          <note key="49" pos="2112" pan="0" len="12" vol="31" />
          <note key="46" pos="2124" pan="0" len="12" vol="59" />
          <note key="44" pos="2136" pan="0" len="12" vol="31" />
          <note key="42" pos="2148" pan="0" len="12" vol="47" />
          <note key="52" pos="2160" pan="0" len="12" vol="59" />
          <note key="47" pos="2172" pan="0" len="12" vol="16" />
          <note key="52" pos="2184" pan="0" len="12" vol="31" />
          <note key="54" pos="2196" pan="0" len="12" vol="59" />
          <note key="56" pos="2208" pan="0" len="12" vol="31" />
          <note key="59" pos="2220" pan="0" len="12" vol="47" />
          <note key="58" pos="2232" pan="0" len="12" vol="59" />
          <note key="54" pos="2244" pan="0" len="12" vol="16" />
          <note key="49" pos="2256" pan="0" len="12" vol="31" />
          <note key="46" pos="2268" pan="0" len="12" vol="59" />
          <note key="44" pos="2280" pan="0" len="12" vol="59" />
          <note key="42" pos="2292" pan="0" len="12" vol="59" />
        </pattern>
        <pattern pos="18432" muted="0" steps="16" name="" type="1">
          <note key="63" pos="24" pan="0" len="24" vol="100" />
          <note key="67" pos="48" pan="0" len="48" vol="100" />
          <note key="67" pos="96" pan="0" len="24" vol="100" />
          <note key="63" pos="120" pan="0" len="48" vol="100" />
          <note key="65" pos="168" pan="0" len="240" vol="100" />
          <note key="63" pos="408" pan="0" len="24" vol="100" />
          <note key="67" pos="432" pan="0" len="48" vol="100" />
          <note key="67" pos="480" pan="0" len="24" vol="100" />
          <note key="63" pos="504" pan="0" len="48" vol="100" />
          <note key="65" pos="552" pan="0" len="48" vol="100" />
          <note key="67" pos="600" pan="0" len="24" vol="100" />
          <note key="65" pos="624" pan="0" len="168" vol="100" />
          <note key="51" pos="792" pan="0" len="24" vol="100" />
          <note key="55" pos="816" pan="0" len="48" vol="100" />
          <note key="55" pos="864" pan="0" len="24" vol="100" />
          <note key="51" pos="888" pan="0" len="48" vol="100" />
          <note key="48" pos="936" pan="0" len="240" vol="100" />
          <note key="51" pos="1176" pan="0" len="24" vol="100" />
          <note key="55" pos="1200" pan="0" len="48" vol="100" />
          <note key="55" pos="1248" pan="0" len="24" vol="100" />
          <note key="51" pos="1272" pan="0" len="48" vol="100" />
          <note key="55" pos="1320" pan="0" len="144" vol="100" />
          <note key="75" pos="1464" pan="0" len="24" vol="34" />
          <note key="77" pos="1488" pan="0" len="48" vol="34" />
        </pattern>
      </track>
      <track solo="0" name="46 (Ch10)" type="0" muted="0">
        <instrumenttrack usemasterpitch="1" pitch="0.0" basenote="57" pan="0" pitchrange="12" vol="30">
          <eldata />
          <instrument name="tripleoscillator" />
        </instrumenttrack>
        <pattern pos="280476" muted="0" steps="16" name="" type="1">
          <note key="68" pos="144" pan="0" len="12" vol="100" />
          <note key="67" pos="156" pan="0" len="12" vol="100" />
          <note key="63" pos="168" pan="0" len="12" vol="100" />
          <note key="61" pos="180" pan="0" len="24" vol="100" />
          <note key="60" pos="204" pan="0" len="48" vol="100" />
          <note key="56" pos="252" pan="0" len="24" vol="100" />
          <note key="63" pos="276" pan="0" len="132" vol="100" />
          <note key="61" pos="408" pan="0" len="24" vol="100" />
          <note key="63" pos="432" pan="0" len="336" vol="100" />
        </pattern>
        <pattern pos="29184" muted="0" steps="16" name="" type="1">
          <note key="48" pos="384" pan="0" len="24" vol="100" />
          <note key="55" pos="408" pan="0" len="24" vol="94" />
          <note key="54" pos="432" pan="0" len="24" vol="88" />
          <note key="62" pos="456" pan="0" len="24" vol="83" />
          <note key="48" pos="480" pan="0" len="24" vol="77" />
          <note key="55" pos="504" pan="0" len="24" vol="70" />
          <note key="54" pos="528" pan="0" len="24" vol="66" />
          <note key="62" pos="552" pan="0" len="24" vol="61" />
          <note key="48" pos="576" pan="0" len="24" vol="55" />
          <note key="55" pos="600" pan="0" len="24" vol="52" />
          <note key="54" pos="624" pan="0" len="24" vol="47" />
          <note key="62" pos="648" pan="0" len="24" vol="42" />
          <note key="48" pos="672" pan="0" len="24" vol="38" />
          <note key="55" pos="696" pan="0" len="24" vol="34" />
          <note key="54" pos="720" pan="0" len="24" vol="30" />
          <note key="62" pos="744" pan="0" len="24" vol="27" />
          <note key="48" pos="768" pan="0" len="24" vol="22" />
          <note key="55" pos="792" pan="0" len="24" vol="19" />
          <note key="54" pos="816" pan="0" len="24" vol="16" />
          <note key="62" pos="840" pan="0" len="24" vol="12" />
          <note key="48" pos="864" pan="0" len="24" vol="9" />
          <note key="55" pos="888" pan="0" len="24" vol="8" />
          <note key="54" pos="912" pan="0" len="24" vol="5" />
          <note key="62" pos="936" pan="0" len="600" vol="2" />
        </pattern>
        <pattern pos="224268" muted="0" steps="16" name="" type="1">
          <note key="73" pos="768" pan="0" len="24" vol="100" />
          <note key="72" pos="792" pan="0" len="24" vol="100" />
          <note key="70" pos="816" pan="0" len="144" vol="100" />
        </pattern>
        <pattern pos="230412" muted="0" steps="16" name="" type="1">
          <note key="73" pos="768" pan="0" len="24" vol="100" />
          <note key="72" pos="792" pan="0" len="24" vol="100" />
          <note key="70" pos="816" pan="0" len="144" vol="100" />
        </pattern>
        <pattern pos="269388" muted="0" steps="16" name="" type="1">
          <note key="39" pos="0" pan="0" len="12" vol="59" />
          <note key="46" pos="12" pan="0" len="12" vol="16" />
          <note key="49" pos="24" pan="0" len="12" vol="31" />
          <note key="51" pos="36" pan="0" len="12" vol="59" />
          <note key="53" pos="48" pan="0" len="12" vol="16" />
          <note key="54" pos="60" pan="0" len="12" vol="31" />
          <note key="53" pos="72" pan="0" len="12" vol="59" />
          <note key="49" pos="84" pan="0" len="12" vol="59" />
          <note key="44" pos="96" pan="0" len="12" vol="59" />
          <note key="41" pos="108" pan="0" len="12" vol="59" />
          <note key="39" pos="120" pan="0" len="12" vol="16" />
          <note key="37" pos="132" pan="0" len="12" vol="31" />
          <note key="39" pos="144" pan="0" len="12" vol="59" />
          <note key="46" pos="156" pan="0" len="12" vol="16" />
          <note key="49" pos="168" pan="0" len="12" vol="31" />
          <note key="51" pos="180" pan="0" len="12" vol="59" />
          <note key="53" pos="192" pan="0" len="12" vol="31" />
          <note key="54" pos="204" pan="0" len="12" vol="47" />
          <note key="56" pos="216" pan="0" len="12" vol="59" />
          <note key="53" pos="228" pan="0" len="12" vol="59" />
          <note key="49" pos="240" pan="0" len="12" vol="59" />
          <note key="49" pos="252" pan="0" len="12" vol="59" />
          <note key="44" pos="264" pan="0" len="12" vol="16" />
          <note key="37" pos="276" pan="0" len="12" vol="31" />
          <note key="54" pos="288" pan="0" len="12" vol="59" />
          <note key="46" pos="300" pan="0" len="12" vol="16" />
          <note key="49" pos="312" pan="0" len="12" vol="31" />
          <note key="51" pos="324" pan="0" len="12" vol="59" />
          <note key="53" pos="336" pan="0" len="12" vol="16" />
          <note key="54" pos="348" pan="0" len="12" vol="31" />
          <note key="53" pos="360" pan="0" len="12" vol="59" />
          <note key="49" pos="372" pan="0" len="12" vol="16" />
          <note key="44" pos="384" pan="0" len="12" vol="31" />
          <note key="41" pos="396" pan="0" len="12" vol="59" />
          <note key="39" pos="408" pan="0" len="12" vol="31" />
          <note key="37" pos="420" pan="0" len="12" vol="47" />
          <note key="47" pos="432" pan="0" len="12" vol="59" />
          <note key="42" pos="444" pan="0" len="12" vol="16" />
          <note key="47" pos="456" pan="0" len="12" vol="31" />
          <note key="49" pos="468" pan="0" len="12" vol="59" />
          <note key="51" pos="480" pan="0" len="12" vol="31" />
          <note key="54" pos="492" pan="0" len="12" vol="47" />
          <note key="53" pos="504" pan="0" len="12" vol="59" />
          <note key="49" pos="516" pan="0" len="12" vol="16" />
          <note key="44" pos="528" pan="0" len="12" vol="31" />
          <note key="41" pos="540" pan="0" len="12" vol="59" />
          <note key="39" pos="552" pan="0" len="12" vol="59" />
          <note key="37" pos="564" pan="0" len="12" vol="59" />
          <note key="39" pos="576" pan="0" len="12" vol="59" />
          <note key="46" pos="588" pan="0" len="12" vol="16" />
          <note key="49" pos="600" pan="0" len="12" vol="31" />
          <note key="51" pos="612" pan="0" len="12" vol="59" />
          <note key="53" pos="624" pan="0" len="12" vol="16" />
          <note key="54" pos="636" pan="0" len="12" vol="31" />
          <note key="53" pos="648" pan="0" len="12" vol="59" />
          <note key="49" pos="660" pan="0" len="12" vol="59" />
          <note key="44" pos="672" pan="0" len="12" vol="59" />
          <note key="41" pos="684" pan="0" len="12" vol="59" />
          <note key="39" pos="696" pan="0" len="12" vol="16" />
          <note key="37" pos="708" pan="0" len="12" vol="31" />
          <note key="39" pos="720" pan="0" len="12" vol="59" />
          <note key="46" pos="732" pan="0" len="12" vol="16" />
          <note key="49" pos="744" pan="0" len="12" vol="31" />
          <note key="51" pos="756" pan="0" len="12" vol="59" />
          <note key="53" pos="768" pan="0" len="12" vol="31" />
          <note key="54" pos="780" pan="0" len="12" vol="47" />
          <note key="56" pos="792" pan="0" len="12" vol="59" />
          <note key="53" pos="804" pan="0" len="12" vol="59" />
          <note key="49" pos="816" pan="0" len="12" vol="59" />
          <note key="49" pos="828" pan="0" len="12" vol="59" />
          <note key="44" pos="840" pan="0" len="12" vol="16" />
          <note key="37" pos="852" pan="0" len="12" vol="31" />
          <note key="54" pos="864" pan="0" len="12" vol="59" />
          <note key="46" pos="876" pan="0" len="12" vol="16" />
          <note key="49" pos="888" pan="0" len="12" vol="31" />
          <note key="51" pos="900" pan="0" len="12" vol="59" />
          <note key="53" pos="912" pan="0" len="12" vol="16" />
          <note key="54" pos="924" pan="0" len="12" vol="31" />
          <note key="53" pos="936" pan="0" len="12" vol="59" />
          <note key="49" pos="948" pan="0" len="12" vol="16" />
          <note key="44" pos="960" pan="0" len="12" vol="31" />
          <note key="41" pos="972" pan="0" len="12" vol="59" />
          <note key="39" pos="984" pan="0" len="12" vol="31" />
          <note key="37" pos="996" pan="0" len="12" vol="47" />
          <note key="47" pos="1008" pan="0" len="12" vol="59" />
          <note key="42" pos="1020" pan="0" len="12" vol="16" />
          <note key="47" pos="1032" pan="0" len="12" vol="31" />
          <note key="49" pos="1044" pan="0" len="12" vol="59" />
          <note key="51" pos="1056" pan="0" len="12" vol="31" />
          <note key="54" pos="1068" pan="0" len="12" vol="47" />
          <note key="53" pos="1080" pan="0" len="12" vol="59" />
          <note key="49" pos="1092" pan="0" len="12" vol="16" />
          <note key="44" pos="1104" pan="0" len="12" vol="31" />
          <note key="41" pos="1116" pan="0" len="12" vol="59" />
          <note key="39" pos="1128" pan="0" len="12" vol="59" />
          <note key="37" pos="1140" pan="0" len="12" vol="59" />
        </pattern>
      </track>
      <track solo="0" name="46 (Ch11)" type="0" muted="0">
        <instrumenttrack usemasterpitch="1" pitch="0.0" basenote="57" pan="0" pitchrange="12" vol="30">
          <eldata />
          <instrument name="tripleoscillator" />
        </instrumenttrack>
        <pattern pos="270540" muted="0" steps="16" name="" type="1">
          <note key="51" pos="0" pan="0" len="12" vol="100" />
          <note key="58" pos="12" pan="0" len="12" vol="100" />
          <note key="63" pos="24" pan="0" len="12" vol="100" />
          <note key="65" pos="36" pan="0" len="24" vol="100" />
          <note key="67" pos="60" pan="0" len="228" vol="100" />
          <note key="68" pos="288" pan="0" len="12" vol="100" />
          <note key="67" pos="300" pan="0" len="12" vol="100" />
          <note key="63" pos="312" pan="0" len="12" vol="100" />
          <note key="61" pos="324" pan="0" len="24" vol="100" />
          <note key="60" pos="348" pan="0" len="48" vol="100" />
          <note key="56" pos="396" pan="0" len="36" vol="100" />
          <note key="63" pos="432" pan="0" len="144" vol="100" />
          <note key="51" pos="576" pan="0" len="12" vol="100" />
          <note key="58" pos="588" pan="0" len="12" vol="100" />
          <note key="63" pos="600" pan="0" len="12" vol="100" />
          <note key="65" pos="612" pan="0" len="24" vol="100" />
          <note key="67" pos="636" pan="0" len="228" vol="100" />
          <note key="68" pos="864" pan="0" len="12" vol="100" />
          <note key="67" pos="876" pan="0" len="12" vol="100" />
          <note key="63" pos="888" pan="0" len="12" vol="100" />
          <note key="61" pos="900" pan="0" len="24" vol="100" />
          <note key="60" pos="924" pan="0" len="48" vol="100" />
          <note key="56" pos="972" pan="0" len="36" vol="100" />
          <note key="63" pos="1008" pan="0" len="144" vol="100" />
        </pattern>
        <pattern pos="7680" muted="0" steps="16" name="" type="1">
          <note key="60" pos="0" pan="0" len="48" vol="59" />
          <note key="58" pos="48" pan="0" len="48" vol="59" />
          <note key="55" pos="96" pan="0" len="48" vol="59" />
          <note key="60" pos="144" pan="0" len="48" vol="59" />
          <note key="58" pos="192" pan="0" len="48" vol="59" />
          <note key="55" pos="240" pan="0" len="48" vol="59" />
          <note key="60" pos="288" pan="0" len="24" vol="59" />
          <note key="55" pos="312" pan="0" len="24" vol="100" />
          <note key="58" pos="336" pan="0" len="48" vol="59" />
          <note key="60" pos="384" pan="0" len="48" vol="59" />
          <note key="58" pos="432" pan="0" len="24" vol="59" />
          <note key="60" pos="456" pan="0" len="24" vol="59" />
          <note key="55" pos="480" pan="0" len="48" vol="59" />
          <note key="60" pos="528" pan="0" len="48" vol="59" />
          <note key="58" pos="576" pan="0" len="48" vol="59" />
          <note key="55" pos="624" pan="0" len="48" vol="59" />
          <note key="60" pos="672" pan="0" len="24" vol="59" />
          <note key="55" pos="696" pan="0" len="24" vol="100" />
          <note key="58" pos="720" pan="0" len="48" vol="59" />
          <note key="60" pos="768" pan="0" len="48" vol="59" />
          <note key="58" pos="816" pan="0" len="48" vol="59" />
          <note key="55" pos="864" pan="0" len="48" vol="59" />
          <note key="60" pos="912" pan="0" len="48" vol="59" />
          <note key="58" pos="960" pan="0" len="48" vol="59" />
          <note key="55" pos="1008" pan="0" len="48" vol="59" />
          <note key="60" pos="1056" pan="0" len="24" vol="59" />
          <note key="55" pos="1080" pan="0" len="24" vol="100" />
          <note key="58" pos="1104" pan="0" len="48" vol="59" />
          <note key="60" pos="1152" pan="0" len="48" vol="59" />
          <note key="58" pos="1200" pan="0" len="24" vol="59" />
          <note key="60" pos="1224" pan="0" len="24" vol="59" />
          <note key="55" pos="1248" pan="0" len="48" vol="59" />
          <note key="60" pos="1296" pan="0" len="48" vol="59" />
          <note key="58" pos="1344" pan="0" len="48" vol="59" />
          <note key="55" pos="1392" pan="0" len="48" vol="59" />
          <note key="60" pos="1440" pan="0" len="24" vol="59" />
          <note key="55" pos="1464" pan="0" len="24" vol="100" />
          <note key="58" pos="1488" pan="0" len="48" vol="59" />
          <note key="60" pos="1536" pan="0" len="48" vol="59" />
          <note key="58" pos="1584" pan="0" len="48" vol="59" />
          <note key="55" pos="1632" pan="0" len="48" vol="59" />
          <note key="60" pos="1680" pan="0" len="48" vol="59" />
          <note key="58" pos="1728" pan="0" len="48" vol="59" />
          <note key="55" pos="1776" pan="0" len="48" vol="59" />
          <note key="60" pos="1824" pan="0" len="24" vol="59" />
          <note key="55" pos="1848" pan="0" len="24" vol="100" />
          <note key="58" pos="1872" pan="0" len="48" vol="59" />
          <note key="60" pos="1920" pan="0" len="48" vol="59" />
          <note key="58" pos="1968" pan="0" len="24" vol="59" />
          <note key="60" pos="1992" pan="0" len="24" vol="59" />
          <note key="55" pos="2016" pan="0" len="48" vol="59" />
          <note key="60" pos="2064" pan="0" len="48" vol="59" />
          <note key="58" pos="2112" pan="0" len="48" vol="59" />
          <note key="55" pos="2160" pan="0" len="48" vol="59" />
          <note key="60" pos="2208" pan="0" len="24" vol="59" />
          <note key="55" pos="2232" pan="0" len="24" vol="100" />
          <note key="58" pos="2256" pan="0" len="48" vol="59" />
          <note key="60" pos="2304" pan="0" len="48" vol="59" />
          <note key="58" pos="2352" pan="0" len="48" vol="59" />
          <note key="55" pos="2400" pan="0" len="48" vol="59" />
          <note key="60" pos="2448" pan="0" len="48" vol="59" />
          <note key="58" pos="2496" pan="0" len="48" vol="59" />
          <note key="55" pos="2544" pan="0" len="48" vol="59" />
          <note key="60" pos="2592" pan="0" len="24" vol="59" />
          <note key="55" pos="2616" pan="0" len="24" vol="100" />
          <note key="58" pos="2640" pan="0" len="48" vol="59" />
          <note key="60" pos="2688" pan="0" len="48" vol="59" />
          <note key="58" pos="2736" pan="0" len="24" vol="59" />
          <note key="60" pos="2760" pan="0" len="24" vol="59" />
          <note key="55" pos="2784" pan="0" len="48" vol="59" />
          <note key="60" pos="2832" pan="0" len="48" vol="59" />
          <note key="58" pos="2880" pan="0" len="48" vol="59" />
          <note key="55" pos="2928" pan="0" len="48" vol="59" />
          <note key="60" pos="2976" pan="0" len="24" vol="59" />
          <note key="55" pos="3000" pan="0" len="24" vol="100" />
          <note key="58" pos="3024" pan="0" len="48" vol="59" />
        </pattern>
        <pattern pos="12288" muted="0" steps="16" name="" type="1">
          <note key="60" pos="0" pan="0" len="48" vol="59" />
          <note key="58" pos="48" pan="0" len="48" vol="59" />
          <note key="55" pos="96" pan="0" len="48" vol="59" />
          <note key="60" pos="144" pan="0" len="48" vol="59" />
          <note key="58" pos="192" pan="0" len="48" vol="59" />
          <note key="53" pos="240" pan="0" len="48" vol="59" />
          <note key="58" pos="288" pan="0" len="24" vol="59" />
          <note key="53" pos="312" pan="0" len="24" vol="100" />
          <note key="55" pos="336" pan="0" len="48" vol="59" />
          <note key="60" pos="384" pan="0" len="48" vol="59" />
          <note key="58" pos="432" pan="0" len="24" vol="59" />
          <note key="60" pos="456" pan="0" len="24" vol="59" />
          <note key="56" pos="480" pan="0" len="48" vol="59" />
          <note key="60" pos="528" pan="0" len="48" vol="59" />
          <note key="58" pos="576" pan="0" len="48" vol="59" />
          <note key="55" pos="624" pan="0" len="48" vol="59" />
          <note key="62" pos="672" pan="0" len="24" vol="59" />
          <note key="55" pos="696" pan="0" len="24" vol="100" />
          <note key="58" pos="720" pan="0" len="48" vol="59" />
          <note key="60" pos="768" pan="0" len="48" vol="59" />
          <note key="58" pos="816" pan="0" len="48" vol="59" />
          <note key="55" pos="864" pan="0" len="48" vol="59" />
          <note key="60" pos="912" pan="0" len="48" vol="59" />
          <note key="58" pos="960" pan="0" len="48" vol="59" />
          <note key="53" pos="1008" pan="0" len="48" vol="59" />
          <note key="60" pos="1056" pan="0" len="24" vol="59" />
          <note key="53" pos="1080" pan="0" len="24" vol="100" />
          <note key="58" pos="1104" pan="0" len="48" vol="59" />
          <note key="60" pos="1152" pan="0" len="48" vol="59" />
          <note key="58" pos="1200" pan="0" len="24" vol="59" />
          <note key="60" pos="1224" pan="0" len="24" vol="59" />
          <note key="56" pos="1248" pan="0" len="48" vol="59" />
          <note key="60" pos="1296" pan="0" len="48" vol="59" />
          <note key="58" pos="1344" pan="0" len="48" vol="59" />
          <note key="55" pos="1392" pan="0" len="48" vol="59" />
          <note key="60" pos="1440" pan="0" len="24" vol="59" />
          <note key="55" pos="1464" pan="0" len="24" vol="100" />
          <note key="58" pos="1488" pan="0" len="48" vol="59" />
          <note key="60" pos="1536" pan="0" len="48" vol="59" />
          <note key="58" pos="1584" pan="0" len="48" vol="59" />
          <note key="55" pos="1632" pan="0" len="48" vol="59" />
          <note key="60" pos="1680" pan="0" len="48" vol="59" />
          <note key="58" pos="1728" pan="0" len="48" vol="59" />
          <note key="53" pos="1776" pan="0" len="48" vol="59" />
          <note key="58" pos="1824" pan="0" len="24" vol="59" />
          <note key="53" pos="1848" pan="0" len="24" vol="100" />
          <note key="55" pos="1872" pan="0" len="48" vol="59" />
          <note key="60" pos="1920" pan="0" len="48" vol="59" />
          <note key="58" pos="1968" pan="0" len="24" vol="59" />
          <note key="60" pos="1992" pan="0" len="24" vol="59" />
          <note key="56" pos="2016" pan="0" len="48" vol="59" />
          <note key="60" pos="2064" pan="0" len="48" vol="59" />
          <note key="58" pos="2112" pan="0" len="48" vol="59" />
          <note key="55" pos="2160" pan="0" len="48" vol="59" />
          <note key="62" pos="2208" pan="0" len="24" vol="59" />
          <note key="55" pos="2232" pan="0" len="24" vol="100" />
          <note key="58" pos="2256" pan="0" len="48" vol="59" />
          <note key="60" pos="2304" pan="0" len="48" vol="59" />
          <note key="58" pos="2352" pan="0" len="48" vol="59" />
          <note key="55" pos="2400" pan="0" len="48" vol="59" />
          <note key="60" pos="2448" pan="0" len="48" vol="59" />
          <note key="58" pos="2496" pan="0" len="48" vol="59" />
          <note key="53" pos="2544" pan="0" len="48" vol="59" />
          <note key="60" pos="2592" pan="0" len="24" vol="59" />
          <note key="53" pos="2616" pan="0" len="24" vol="100" />
          <note key="58" pos="2640" pan="0" len="48" vol="59" />
          <note key="60" pos="2688" pan="0" len="384" vol="59" />
        </pattern>
        <pattern pos="62208" muted="0" steps="16" name="" type="1">
          <note key="58" pos="72" pan="0" len="24" vol="100" />
          <note key="55" pos="96" pan="0" len="24" vol="100" />
          <note key="50" pos="120" pan="0" len="24" vol="100" />
          <note key="53" pos="144" pan="0" len="72" vol="100" />
          <note key="58" pos="216" pan="0" len="24" vol="100" />
          <note key="60" pos="240" pan="0" len="24" vol="100" />
          <note key="57" pos="264" pan="0" len="24" vol="100" />
          <note key="55" pos="288" pan="0" len="72" vol="100" />
          <note key="60" pos="360" pan="0" len="72" vol="100" />
          <note key="65" pos="432" pan="0" len="24" vol="100" />
          <note key="60" pos="456" pan="0" len="24" vol="100" />
          <note key="57" pos="480" pan="0" len="24" vol="100" />
          <note key="64" pos="504" pan="0" len="72" vol="100" />
          <note key="65" pos="576" pan="0" len="24" vol="100" />
          <note key="62" pos="600" pan="0" len="12" vol="100" />
          <note key="65" pos="612" pan="0" len="60" vol="100" />
          <note key="67" pos="672" pan="0" len="48" vol="100" />
          <note key="69" pos="720" pan="0" len="24" vol="100" />
          <note key="65" pos="744" pan="0" len="12" vol="100" />
          <note key="69" pos="756" pan="0" len="60" vol="100" />
          <note key="65" pos="816" pan="0" len="48" vol="100" />
          <note key="64" pos="864" pan="0" len="24" vol="100" />
          <note key="60" pos="888" pan="0" len="12" vol="100" />
          <note key="64" pos="900" pan="0" len="60" vol="100" />
          <note key="67" pos="960" pan="0" len="48" vol="100" />
          <note key="60" pos="1008" pan="0" len="24" vol="100" />
          <note key="58" pos="1032" pan="0" len="24" vol="100" />
          <note key="57" pos="1056" pan="0" len="24" vol="100" />
          <note key="55" pos="1080" pan="0" len="24" vol="100" />
          <note key="53" pos="1104" pan="0" len="24" vol="100" />
          <note key="64" pos="1128" pan="0" len="24" vol="100" />
        </pattern>
        <pattern pos="248844" muted="0" steps="16" name="" type="1">
          <note key="65" pos="1632" pan="0" len="24" vol="100" />
          <note key="64" pos="1656" pan="0" len="72" vol="100" />
          <note key="58" pos="1728" pan="0" len="576" vol="100" />
        </pattern>
        <pattern pos="251148" muted="0" steps="16" name="" type="1">
          <note key="65" pos="432" pan="0" len="24" vol="100" />
          <note key="58" pos="456" pan="0" len="120" vol="100" />
          <note key="64" pos="576" pan="0" len="144" vol="100" />
          <note key="62" pos="720" pan="0" len="24" vol="100" />
          <note key="55" pos="744" pan="0" len="120" vol="100" />
          <note key="55" pos="864" pan="0" len="1440" vol="100" />
        </pattern>
      </track>
      <track solo="0" name="46 (Ch12)" type="0" muted="0">
        <instrumenttrack usemasterpitch="1" pitch="0.0" basenote="57" pan="0" pitchrange="12" vol="30">
          <eldata />
          <instrument name="tripleoscillator" />
        </instrumenttrack>
        <pattern pos="153612" muted="0" steps="16" name="" type="1">
          <note key="32" pos="0" pan="0" len="24" vol="100" />
          <note key="39" pos="24" pan="0" len="24" vol="47" />
          <note key="46" pos="48" pan="0" len="24" vol="62" />
          <note key="42" pos="72" pan="0" len="24" vol="100" />
          <note key="51" pos="96" pan="0" len="24" vol="100" />
          <note key="44" pos="120" pan="0" len="24" vol="47" />
          <note key="51" pos="144" pan="0" len="24" vol="62" />
          <note key="54" pos="168" pan="0" len="24" vol="100" />
          <note key="30" pos="192" pan="0" len="24" vol="100" />
          <note key="53" pos="216" pan="0" len="24" vol="47" />
          <note key="48" pos="240" pan="0" len="24" vol="62" />
          <note key="49" pos="264" pan="0" len="24" vol="100" />
          <note key="73" pos="288" pan="0" len="24" vol="47" />
          <note key="61" pos="312" pan="0" len="24" vol="100" />
          <note key="54" pos="336" pan="0" len="24" vol="100" />
          <note key="49" pos="360" pan="0" len="24" vol="62" />
          <note key="30" pos="384" pan="0" len="24" vol="100" />
          <note key="54" pos="408" pan="0" len="24" vol="47" />
          <note key="53" pos="432" pan="0" len="24" vol="62" />
          <note key="54" pos="456" pan="0" len="24" vol="100" />
          <note key="49" pos="480" pan="0" len="24" vol="100" />
          <note key="58" pos="504" pan="0" len="24" vol="47" />
          <note key="56" pos="528" pan="0" len="24" vol="62" />
          <note key="61" pos="552" pan="0" len="24" vol="100" />
          <note key="49" pos="576" pan="0" len="24" vol="100" />
          <note key="48" pos="600" pan="0" len="24" vol="47" />
          <note key="44" pos="624" pan="0" len="24" vol="62" />
          <note key="51" pos="648" pan="0" len="24" vol="100" />
          <note key="46" pos="672" pan="0" len="24" vol="47" />
          <note key="51" pos="696" pan="0" len="24" vol="100" />
          <note key="49" pos="720" pan="0" len="24" vol="100" />
          <note key="54" pos="744" pan="0" len="24" vol="62" />
          <note key="32" pos="768" pan="0" len="24" vol="100" />
          <note key="39" pos="792" pan="0" len="24" vol="47" />
          <note key="46" pos="816" pan="0" len="24" vol="62" />
          <note key="42" pos="840" pan="0" len="24" vol="100" />
          <note key="51" pos="864" pan="0" len="24" vol="100" />
          <note key="44" pos="888" pan="0" len="24" vol="47" />
          <note key="51" pos="912" pan="0" len="24" vol="62" />
          <note key="54" pos="936" pan="0" len="24" vol="100" />
          <note key="30" pos="960" pan="0" len="24" vol="100" />
          <note key="53" pos="984" pan="0" len="24" vol="47" />
          <note key="48" pos="1008" pan="0" len="24" vol="62" />
          <note key="49" pos="1032" pan="0" len="24" vol="100" />
          <note key="73" pos="1056" pan="0" len="24" vol="47" />
          <note key="61" pos="1080" pan="0" len="24" vol="100" />
          <note key="54" pos="1104" pan="0" len="24" vol="100" />
          <note key="49" pos="1128" pan="0" len="24" vol="62" />
          <note key="30" pos="1152" pan="0" len="24" vol="100" />
          <note key="54" pos="1176" pan="0" len="24" vol="47" />
          <note key="53" pos="1200" pan="0" len="24" vol="62" />
          <note key="54" pos="1224" pan="0" len="24" vol="100" />
          <note key="49" pos="1248" pan="0" len="24" vol="100" />
          <note key="58" pos="1272" pan="0" len="24" vol="47" />
          <note key="56" pos="1296" pan="0" len="24" vol="62" />
          <note key="61" pos="1320" pan="0" len="24" vol="100" />
          <note key="49" pos="1344" pan="0" len="24" vol="100" />
          <note key="48" pos="1368" pan="0" len="24" vol="47" />
          <note key="44" pos="1392" pan="0" len="24" vol="62" />
          <note key="51" pos="1416" pan="0" len="24" vol="100" />
          <note key="46" pos="1440" pan="0" len="24" vol="47" />
          <note key="51" pos="1464" pan="0" len="24" vol="100" />
          <note key="49" pos="1488" pan="0" len="24" vol="100" />
          <note key="54" pos="1512" pan="0" len="24" vol="62" />
        </pattern>
        <pattern pos="129036" muted="0" steps="16" name="" type="1">
          <note key="60" pos="576" pan="0" len="12" vol="100" />
          <note key="58" pos="588" pan="0" len="12" vol="100" />
          <note key="60" pos="600" pan="0" len="72" vol="100" />
          <note key="63" pos="672" pan="0" len="12" vol="100" />
          <note key="62" pos="684" pan="0" len="12" vol="100" />
          <note key="63" pos="696" pan="0" len="48" vol="100" />
          <note key="58" pos="744" pan="0" len="24" vol="100" />
          <note key="60" pos="768" pan="0" len="12" vol="100" />
          <note key="58" pos="780" pan="0" len="12" vol="100" />
          <note key="55" pos="792" pan="0" len="12" vol="100" />
          <note key="58" pos="804" pan="0" len="12" vol="100" />
          <note key="60" pos="816" pan="0" len="12" vol="100" />
          <note key="55" pos="828" pan="0" len="12" vol="100" />
          <note key="62" pos="840" pan="0" len="24" vol="100" />
          <note key="60" pos="864" pan="0" len="12" vol="100" />
          <note key="58" pos="876" pan="0" len="12" vol="100" />
          <note key="55" pos="888" pan="0" len="24" vol="100" />
          <note key="58" pos="912" pan="0" len="12" vol="100" />
          <note key="55" pos="924" pan="0" len="24" vol="100" />
          <note key="58" pos="948" pan="0" len="12" vol="100" />
          <note key="60" pos="960" pan="0" len="12" vol="100" />
          <note key="58" pos="972" pan="0" len="12" vol="100" />
          <note key="55" pos="984" pan="0" len="12" vol="100" />
          <note key="58" pos="996" pan="0" len="12" vol="100" />
          <note key="63" pos="1008" pan="0" len="12" vol="100" />
          <note key="55" pos="1020" pan="0" len="12" vol="100" />
          <note key="63" pos="1032" pan="0" len="24" vol="100" />
          <note key="62" pos="1056" pan="0" len="12" vol="100" />
          <note key="55" pos="1068" pan="0" len="24" vol="100" />
          <note key="58" pos="1092" pan="0" len="12" vol="100" />
          <note key="60" pos="1104" pan="0" len="12" vol="100" />
          <note key="55" pos="1116" pan="0" len="24" vol="100" />
          <note key="62" pos="1140" pan="0" len="12" vol="100" />
          <note key="63" pos="1152" pan="0" len="12" vol="100" />
          <note key="62" pos="1164" pan="0" len="12" vol="100" />
          <note key="60" pos="1176" pan="0" len="24" vol="100" />
          <note key="63" pos="1200" pan="0" len="12" vol="100" />
          <note key="60" pos="1212" pan="0" len="24" vol="100" />
          <note key="63" pos="1236" pan="0" len="12" vol="100" />
          <note key="65" pos="1248" pan="0" len="12" vol="100" />
          <note key="60" pos="1260" pan="0" len="12" vol="100" />
          <note key="58" pos="1272" pan="0" len="24" vol="100" />
          <note key="62" pos="1296" pan="0" len="12" vol="100" />
          <note key="58" pos="1308" pan="0" len="24" vol="100" />
          <note key="62" pos="1332" pan="0" len="12" vol="100" />
          <note key="60" pos="1344" pan="0" len="192" vol="100" />
        </pattern>
        <pattern pos="145932" muted="0" steps="16" name="" type="1">
          <note key="32" pos="0" pan="0" len="24" vol="100" />
          <note key="39" pos="24" pan="0" len="24" vol="47" />
          <note key="46" pos="48" pan="0" len="24" vol="62" />
          <note key="42" pos="72" pan="0" len="24" vol="100" />
          <note key="51" pos="96" pan="0" len="24" vol="100" />
          <note key="44" pos="120" pan="0" len="24" vol="47" />
          <note key="51" pos="144" pan="0" len="24" vol="62" />
          <note key="54" pos="168" pan="0" len="24" vol="100" />
          <note key="30" pos="192" pan="0" len="24" vol="100" />
          <note key="53" pos="216" pan="0" len="24" vol="47" />
          <note key="48" pos="240" pan="0" len="24" vol="62" />
          <note key="49" pos="264" pan="0" len="24" vol="100" />
          <note key="73" pos="288" pan="0" len="24" vol="47" />
          <note key="61" pos="312" pan="0" len="24" vol="100" />
          <note key="54" pos="336" pan="0" len="24" vol="100" />
          <note key="49" pos="360" pan="0" len="24" vol="62" />
          <note key="30" pos="384" pan="0" len="24" vol="100" />
          <note key="54" pos="408" pan="0" len="24" vol="47" />
          <note key="53" pos="432" pan="0" len="24" vol="62" />
          <note key="54" pos="456" pan="0" len="24" vol="100" />
          <note key="49" pos="480" pan="0" len="24" vol="100" />
          <note key="58" pos="504" pan="0" len="24" vol="47" />
          <note key="56" pos="528" pan="0" len="24" vol="62" />
          <note key="61" pos="552" pan="0" len="24" vol="100" />
          <note key="49" pos="576" pan="0" len="24" vol="100" />
          <note key="48" pos="600" pan="0" len="24" vol="47" />
          <note key="44" pos="624" pan="0" len="24" vol="62" />
          <note key="51" pos="648" pan="0" len="24" vol="100" />
          <note key="46" pos="672" pan="0" len="24" vol="47" />
          <note key="51" pos="696" pan="0" len="24" vol="100" />
          <note key="49" pos="720" pan="0" len="24" vol="100" />
          <note key="54" pos="744" pan="0" len="24" vol="62" />
          <note key="32" pos="768" pan="0" len="24" vol="100" />
          <note key="39" pos="792" pan="0" len="24" vol="47" />
          <note key="46" pos="816" pan="0" len="24" vol="62" />
          <note key="42" pos="840" pan="0" len="24" vol="100" />
          <note key="51" pos="864" pan="0" len="24" vol="100" />
          <note key="44" pos="888" pan="0" len="24" vol="47" />
          <note key="51" pos="912" pan="0" len="24" vol="62" />
          <note key="54" pos="936" pan="0" len="24" vol="100" />
          <note key="30" pos="960" pan="0" len="24" vol="100" />
          <note key="53" pos="984" pan="0" len="24" vol="47" />
          <note key="48" pos="1008" pan="0" len="24" vol="62" />
          <note key="49" pos="1032" pan="0" len="24" vol="100" />
          <note key="73" pos="1056" pan="0" len="24" vol="47" />
          <note key="61" pos="1080" pan="0" len="24" vol="100" />
          <note key="54" pos="1104" pan="0" len="24" vol="100" />
          <note key="49" pos="1128" pan="0" len="24" vol="62" />
          <note key="30" pos="1152" pan="0" len="24" vol="100" />
          <note key="54" pos="1176" pan="0" len="24" vol="47" />
          <note key="53" pos="1200" pan="0" len="24" vol="62" />
          <note key="54" pos="1224" pan="0" len="24" vol="100" />
          <note key="49" pos="1248" pan="0" len="24" vol="100" />
          <note key="58" pos="1272" pan="0" len="24" vol="47" />
          <note key="56" pos="1296" pan="0" len="24" vol="62" />
          <note key="61" pos="1320" pan="0" len="24" vol="100" />
          <note key="49" pos="1344" pan="0" len="24" vol="100" />
          <note key="48" pos="1368" pan="0" len="24" vol="47" />
          <note key="44" pos="1392" pan="0" len="24" vol="62" />
          <note key="51" pos="1416" pan="0" len="24" vol="100" />
          <note key="46" pos="1440" pan="0" len="24" vol="47" />
          <note key="51" pos="1464" pan="0" len="24" vol="100" />
          <note key="49" pos="1488" pan="0" len="24" vol="100" />
          <note key="54" pos="1512" pan="0" len="24" vol="62" />
        </pattern>
      </track>
      <track solo="0" name="46 (Ch13)" type="0" muted="0">
        <instrumenttrack usemasterpitch="1" pitch="0.0" basenote="57" pan="0" pitchrange="12" vol="30">
          <eldata />
          <instrument name="tripleoscillator" />
        </instrumenttrack>
        <pattern pos="230412" muted="0" steps="16" name="" type="1">
          <note key="61" pos="480" pan="0" len="24" vol="100" />
          <note key="60" pos="504" pan="0" len="24" vol="100" />
          <note key="65" pos="528" pan="0" len="96" vol="100" />
          <note key="65" pos="1152" pan="0" len="24" vol="100" />
          <note key="68" pos="1176" pan="0" len="24" vol="100" />
          <note key="70" pos="1200" pan="0" len="336" vol="100" />
        </pattern>
        <pattern pos="145932" muted="0" steps="16" name="" type="1">
          <note key="32" pos="36" pan="0" len="24" vol="50" />
          <note key="39" pos="60" pan="0" len="24" vol="23" />
          <note key="46" pos="84" pan="0" len="24" vol="31" />
          <note key="42" pos="108" pan="0" len="24" vol="50" />
          <note key="51" pos="132" pan="0" len="24" vol="50" />
          <note key="44" pos="156" pan="0" len="24" vol="23" />
          <note key="51" pos="180" pan="0" len="24" vol="31" />
          <note key="54" pos="204" pan="0" len="24" vol="50" />
          <note key="30" pos="228" pan="0" len="24" vol="50" />
          <note key="53" pos="252" pan="0" len="24" vol="23" />
          <note key="48" pos="276" pan="0" len="24" vol="31" />
          <note key="49" pos="300" pan="0" len="24" vol="50" />
          <note key="73" pos="324" pan="0" len="24" vol="23" />
          <note key="61" pos="348" pan="0" len="24" vol="50" />
          <note key="54" pos="372" pan="0" len="24" vol="50" />
          <note key="49" pos="396" pan="0" len="24" vol="31" />
          <note key="30" pos="420" pan="0" len="24" vol="50" />
          <note key="54" pos="444" pan="0" len="24" vol="23" />
          <note key="53" pos="468" pan="0" len="24" vol="31" />
          <note key="54" pos="492" pan="0" len="24" vol="50" />
          <note key="49" pos="516" pan="0" len="24" vol="50" />
          <note key="58" pos="540" pan="0" len="24" vol="23" />
          <note key="56" pos="564" pan="0" len="24" vol="31" />
          <note key="61" pos="588" pan="0" len="24" vol="50" />
          <note key="49" pos="612" pan="0" len="24" vol="50" />
          <note key="48" pos="636" pan="0" len="24" vol="23" />
          <note key="44" pos="660" pan="0" len="24" vol="31" />
          <note key="51" pos="684" pan="0" len="24" vol="50" />
          <note key="46" pos="708" pan="0" len="24" vol="23" />
          <note key="51" pos="732" pan="0" len="24" vol="50" />
          <note key="49" pos="756" pan="0" len="24" vol="50" />
          <note key="54" pos="780" pan="0" len="24" vol="31" />
          <note key="32" pos="804" pan="0" len="24" vol="50" />
          <note key="39" pos="828" pan="0" len="24" vol="23" />
          <note key="46" pos="852" pan="0" len="24" vol="31" />
          <note key="42" pos="876" pan="0" len="24" vol="50" />
          <note key="51" pos="900" pan="0" len="24" vol="50" />
          <note key="44" pos="924" pan="0" len="24" vol="23" />
          <note key="51" pos="948" pan="0" len="24" vol="31" />
          <note key="54" pos="972" pan="0" len="24" vol="50" />
          <note key="30" pos="996" pan="0" len="24" vol="50" />
          <note key="53" pos="1020" pan="0" len="24" vol="23" />
          <note key="48" pos="1044" pan="0" len="24" vol="31" />
          <note key="49" pos="1068" pan="0" len="24" vol="50" />
          <note key="73" pos="1092" pan="0" len="24" vol="23" />
          <note key="61" pos="1116" pan="0" len="24" vol="50" />
          <note key="54" pos="1140" pan="0" len="24" vol="50" />
          <note key="49" pos="1164" pan="0" len="24" vol="31" />
          <note key="30" pos="1188" pan="0" len="24" vol="50" />
          <note key="54" pos="1212" pan="0" len="24" vol="23" />
          <note key="53" pos="1236" pan="0" len="24" vol="31" />
          <note key="54" pos="1260" pan="0" len="24" vol="50" />
          <note key="49" pos="1284" pan="0" len="24" vol="50" />
          <note key="58" pos="1308" pan="0" len="24" vol="23" />
          <note key="56" pos="1332" pan="0" len="24" vol="31" />
          <note key="61" pos="1356" pan="0" len="24" vol="50" />
          <note key="49" pos="1380" pan="0" len="24" vol="50" />
          <note key="48" pos="1404" pan="0" len="24" vol="23" />
          <note key="44" pos="1428" pan="0" len="24" vol="31" />
          <note key="51" pos="1452" pan="0" len="24" vol="50" />
          <note key="46" pos="1476" pan="0" len="24" vol="23" />
          <note key="51" pos="1500" pan="0" len="24" vol="50" />
          <note key="49" pos="1524" pan="0" len="12" vol="50" />
        </pattern>
        <pattern pos="153612" muted="0" steps="16" name="" type="1">
          <note key="32" pos="36" pan="0" len="24" vol="50" />
          <note key="39" pos="60" pan="0" len="24" vol="23" />
          <note key="46" pos="84" pan="0" len="24" vol="31" />
          <note key="42" pos="108" pan="0" len="24" vol="50" />
          <note key="51" pos="132" pan="0" len="24" vol="50" />
          <note key="44" pos="156" pan="0" len="24" vol="23" />
          <note key="51" pos="180" pan="0" len="24" vol="31" />
          <note key="54" pos="204" pan="0" len="24" vol="50" />
          <note key="30" pos="228" pan="0" len="24" vol="50" />
          <note key="53" pos="252" pan="0" len="24" vol="23" />
          <note key="48" pos="276" pan="0" len="24" vol="31" />
          <note key="49" pos="300" pan="0" len="24" vol="50" />
          <note key="73" pos="324" pan="0" len="24" vol="23" />
          <note key="61" pos="348" pan="0" len="24" vol="50" />
          <note key="54" pos="372" pan="0" len="24" vol="50" />
          <note key="49" pos="396" pan="0" len="24" vol="31" />
          <note key="30" pos="420" pan="0" len="24" vol="50" />
          <note key="54" pos="444" pan="0" len="24" vol="23" />
          <note key="53" pos="468" pan="0" len="24" vol="31" />
          <note key="54" pos="492" pan="0" len="24" vol="50" />
          <note key="49" pos="516" pan="0" len="24" vol="50" />
          <note key="58" pos="540" pan="0" len="24" vol="23" />
          <note key="56" pos="564" pan="0" len="24" vol="31" />
          <note key="61" pos="588" pan="0" len="24" vol="50" />
          <note key="49" pos="612" pan="0" len="24" vol="50" />
          <note key="48" pos="636" pan="0" len="24" vol="23" />
          <note key="44" pos="660" pan="0" len="24" vol="31" />
          <note key="51" pos="684" pan="0" len="24" vol="50" />
          <note key="46" pos="708" pan="0" len="24" vol="23" />
          <note key="51" pos="732" pan="0" len="24" vol="50" />
          <note key="49" pos="756" pan="0" len="24" vol="50" />
          <note key="54" pos="780" pan="0" len="24" vol="31" />
          <note key="32" pos="804" pan="0" len="24" vol="50" />
          <note key="39" pos="828" pan="0" len="24" vol="23" />
          <note key="46" pos="852" pan="0" len="24" vol="31" />
          <note key="42" pos="876" pan="0" len="24" vol="50" />
          <note key="51" pos="900" pan="0" len="24" vol="50" />
          <note key="44" pos="924" pan="0" len="24" vol="23" />
          <note key="51" pos="948" pan="0" len="24" vol="31" />
          <note key="54" pos="972" pan="0" len="24" vol="50" />
          <note key="30" pos="996" pan="0" len="24" vol="50" />
          <note key="53" pos="1020" pan="0" len="24" vol="23" />
          <note key="48" pos="1044" pan="0" len="24" vol="31" />
          <note key="49" pos="1068" pan="0" len="24" vol="50" />
          <note key="73" pos="1092" pan="0" len="24" vol="23" />
          <note key="61" pos="1116" pan="0" len="24" vol="50" />
          <note key="54" pos="1140" pan="0" len="24" vol="50" />
          <note key="49" pos="1164" pan="0" len="24" vol="31" />
          <note key="30" pos="1188" pan="0" len="24" vol="50" />
          <note key="54" pos="1212" pan="0" len="24" vol="23" />
          <note key="53" pos="1236" pan="0" len="24" vol="31" />
          <note key="54" pos="1260" pan="0" len="24" vol="50" />
          <note key="49" pos="1284" pan="0" len="24" vol="50" />
          <note key="58" pos="1308" pan="0" len="24" vol="23" />
          <note key="56" pos="1332" pan="0" len="24" vol="31" />
          <note key="61" pos="1356" pan="0" len="24" vol="50" />
          <note key="49" pos="1380" pan="0" len="24" vol="50" />
          <note key="48" pos="1404" pan="0" len="24" vol="23" />
          <note key="44" pos="1428" pan="0" len="24" vol="31" />
          <note key="51" pos="1452" pan="0" len="24" vol="50" />
          <note key="46" pos="1476" pan="0" len="24" vol="23" />
          <note key="51" pos="1500" pan="0" len="24" vol="50" />
          <note key="49" pos="1524" pan="0" len="12" vol="50" />
        </pattern>
        <pattern pos="224268" muted="0" steps="16" name="" type="1">
          <note key="61" pos="480" pan="0" len="24" vol="100" />
          <note key="60" pos="504" pan="0" len="24" vol="100" />
          <note key="65" pos="528" pan="0" len="96" vol="100" />
          <note key="65" pos="1152" pan="0" len="24" vol="100" />
          <note key="68" pos="1176" pan="0" len="24" vol="100" />
          <note key="70" pos="1200" pan="0" len="336" vol="100" />
        </pattern>
      </track>
      <track solo="0" name="46 (Ch14)" type="0" muted="0">
        <instrumenttrack usemasterpitch="1" pitch="0.0" basenote="57" pan="0" pitchrange="12" vol="30">
          <eldata />
          <instrument name="tripleoscillator" />
        </instrumenttrack>
        <pattern pos="155148" muted="0" steps="16" name="" type="1">
          <note key="32" pos="0" pan="0" len="24" vol="100" />
          <note key="39" pos="24" pan="0" len="24" vol="47" />
          <note key="46" pos="48" pan="0" len="24" vol="62" />
          <note key="42" pos="72" pan="0" len="24" vol="100" />
          <note key="51" pos="96" pan="0" len="24" vol="100" />
          <note key="44" pos="120" pan="0" len="24" vol="47" />
          <note key="51" pos="144" pan="0" len="24" vol="62" />
          <note key="54" pos="168" pan="0" len="24" vol="100" />
          <note key="30" pos="192" pan="0" len="24" vol="100" />
          <note key="53" pos="216" pan="0" len="24" vol="47" />
          <note key="48" pos="240" pan="0" len="24" vol="62" />
          <note key="49" pos="264" pan="0" len="24" vol="100" />
          <note key="73" pos="288" pan="0" len="24" vol="47" />
          <note key="61" pos="312" pan="0" len="24" vol="100" />
          <note key="54" pos="336" pan="0" len="24" vol="100" />
          <note key="49" pos="360" pan="0" len="24" vol="62" />
          <note key="30" pos="384" pan="0" len="24" vol="100" />
          <note key="54" pos="408" pan="0" len="24" vol="47" />
          <note key="53" pos="432" pan="0" len="24" vol="62" />
          <note key="54" pos="456" pan="0" len="24" vol="100" />
          <note key="49" pos="480" pan="0" len="24" vol="100" />
          <note key="58" pos="504" pan="0" len="24" vol="47" />
          <note key="56" pos="528" pan="0" len="24" vol="62" />
          <note key="61" pos="552" pan="0" len="24" vol="100" />
          <note key="49" pos="576" pan="0" len="24" vol="100" />
          <note key="48" pos="600" pan="0" len="24" vol="47" />
          <note key="44" pos="624" pan="0" len="24" vol="62" />
          <note key="51" pos="648" pan="0" len="24" vol="100" />
          <note key="46" pos="672" pan="0" len="24" vol="47" />
          <note key="51" pos="696" pan="0" len="24" vol="100" />
          <note key="49" pos="720" pan="0" len="24" vol="100" />
          <note key="54" pos="744" pan="0" len="24" vol="62" />
          <note key="32" pos="768" pan="0" len="24" vol="100" />
          <note key="39" pos="792" pan="0" len="24" vol="47" />
          <note key="46" pos="816" pan="0" len="24" vol="62" />
          <note key="42" pos="840" pan="0" len="24" vol="100" />
          <note key="51" pos="864" pan="0" len="24" vol="100" />
          <note key="44" pos="888" pan="0" len="24" vol="47" />
          <note key="51" pos="912" pan="0" len="24" vol="62" />
          <note key="54" pos="936" pan="0" len="24" vol="100" />
          <note key="30" pos="960" pan="0" len="24" vol="100" />
          <note key="53" pos="984" pan="0" len="24" vol="47" />
          <note key="48" pos="1008" pan="0" len="24" vol="62" />
          <note key="49" pos="1032" pan="0" len="24" vol="100" />
          <note key="73" pos="1056" pan="0" len="24" vol="47" />
          <note key="61" pos="1080" pan="0" len="24" vol="100" />
          <note key="54" pos="1104" pan="0" len="24" vol="100" />
          <note key="49" pos="1128" pan="0" len="24" vol="62" />
          <note key="30" pos="1152" pan="0" len="24" vol="100" />
          <note key="54" pos="1176" pan="0" len="24" vol="47" />
          <note key="53" pos="1200" pan="0" len="24" vol="62" />
          <note key="54" pos="1224" pan="0" len="24" vol="100" />
          <note key="49" pos="1248" pan="0" len="24" vol="100" />
          <note key="58" pos="1272" pan="0" len="24" vol="47" />
          <note key="56" pos="1296" pan="0" len="24" vol="62" />
          <note key="61" pos="1320" pan="0" len="24" vol="100" />
          <note key="49" pos="1344" pan="0" len="24" vol="100" />
          <note key="48" pos="1368" pan="0" len="24" vol="47" />
          <note key="44" pos="1392" pan="0" len="24" vol="62" />
          <note key="51" pos="1416" pan="0" len="24" vol="100" />
          <note key="46" pos="1440" pan="0" len="24" vol="47" />
          <note key="51" pos="1464" pan="0" len="24" vol="100" />
          <note key="49" pos="1488" pan="0" len="24" vol="100" />
          <note key="54" pos="1512" pan="0" len="24" vol="62" />
        </pattern>
      </track>
      <track solo="0" name="46 (Ch15)" type="0" muted="0">
        <instrumenttrack usemasterpitch="1" pitch="0.0" basenote="57" pan="0" pitchrange="12" vol="30">
          <eldata />
          <instrument name="tripleoscillator" />
        </instrumenttrack>
        <pattern pos="155148" muted="0" steps="16" name="" type="1">
          <note key="32" pos="36" pan="0" len="24" vol="50" />
          <note key="39" pos="60" pan="0" len="24" vol="23" />
          <note key="46" pos="84" pan="0" len="24" vol="31" />
          <note key="42" pos="108" pan="0" len="24" vol="50" />
          <note key="51" pos="132" pan="0" len="24" vol="50" />
          <note key="44" pos="156" pan="0" len="24" vol="23" />
          <note key="51" pos="180" pan="0" len="24" vol="31" />
          <note key="54" pos="204" pan="0" len="24" vol="50" />
          <note key="30" pos="228" pan="0" len="24" vol="50" />
          <note key="53" pos="252" pan="0" len="24" vol="23" />
          <note key="48" pos="276" pan="0" len="24" vol="31" />
          <note key="49" pos="300" pan="0" len="24" vol="50" />
          <note key="73" pos="324" pan="0" len="24" vol="23" />
          <note key="61" pos="348" pan="0" len="24" vol="50" />
          <note key="54" pos="372" pan="0" len="24" vol="50" />
          <note key="49" pos="396" pan="0" len="24" vol="31" />
          <note key="30" pos="420" pan="0" len="24" vol="50" />
          <note key="54" pos="444" pan="0" len="24" vol="23" />
          <note key="53" pos="468" pan="0" len="24" vol="31" />
          <note key="54" pos="492" pan="0" len="24" vol="50" />
          <note key="49" pos="516" pan="0" len="24" vol="50" />
          <note key="58" pos="540" pan="0" len="24" vol="23" />
          <note key="56" pos="564" pan="0" len="24" vol="31" />
          <note key="61" pos="588" pan="0" len="24" vol="50" />
          <note key="49" pos="612" pan="0" len="24" vol="50" />
          <note key="48" pos="636" pan="0" len="24" vol="23" />
          <note key="44" pos="660" pan="0" len="24" vol="31" />
          <note key="51" pos="684" pan="0" len="24" vol="50" />
          <note key="46" pos="708" pan="0" len="24" vol="23" />
          <note key="51" pos="732" pan="0" len="24" vol="50" />
          <note key="49" pos="756" pan="0" len="24" vol="50" />
          <note key="54" pos="780" pan="0" len="24" vol="31" />
          <note key="32" pos="804" pan="0" len="24" vol="50" />
          <note key="39" pos="828" pan="0" len="24" vol="23" />
          <note key="46" pos="852" pan="0" len="24" vol="31" />
          <note key="42" pos="876" pan="0" len="24" vol="50" />
          <note key="51" pos="900" pan="0" len="24" vol="50" />
          <note key="44" pos="924" pan="0" len="24" vol="23" />
          <note key="51" pos="948" pan="0" len="24" vol="31" />
          <note key="54" pos="972" pan="0" len="24" vol="50" />
          <note key="30" pos="996" pan="0" len="24" vol="50" />
          <note key="53" pos="1020" pan="0" len="24" vol="23" />
          <note key="48" pos="1044" pan="0" len="24" vol="31" />
          <note key="49" pos="1068" pan="0" len="24" vol="50" />
          <note key="73" pos="1092" pan="0" len="24" vol="23" />
          <note key="61" pos="1116" pan="0" len="24" vol="50" />
          <note key="54" pos="1140" pan="0" len="24" vol="50" />
          <note key="49" pos="1164" pan="0" len="24" vol="31" />
          <note key="30" pos="1188" pan="0" len="24" vol="50" />
          <note key="54" pos="1212" pan="0" len="24" vol="23" />
          <note key="53" pos="1236" pan="0" len="24" vol="31" />
          <note key="54" pos="1260" pan="0" len="24" vol="50" />
          <note key="49" pos="1284" pan="0" len="24" vol="50" />
          <note key="58" pos="1308" pan="0" len="24" vol="23" />
          <note key="56" pos="1332" pan="0" len="24" vol="31" />
          <note key="61" pos="1356" pan="0" len="24" vol="50" />
          <note key="49" pos="1380" pan="0" len="24" vol="50" />
          <note key="48" pos="1404" pan="0" len="24" vol="23" />
          <note key="44" pos="1428" pan="0" len="24" vol="31" />
          <note key="51" pos="1452" pan="0" len="24" vol="50" />
          <note key="46" pos="1476" pan="0" len="24" vol="23" />
          <note key="51" pos="1500" pan="0" len="24" vol="50" />
          <note key="49" pos="1524" pan="0" len="12" vol="50" />
        </pattern>
      </track>
      <track solo="0" name="47 (Ch5)" type="0" muted="0">
        <instrumenttrack usemasterpitch="1" pitch="0.0" basenote="57" pan="0" pitchrange="12" vol="30">
          <eldata />
          <instrument name="tripleoscillator" />
        </instrumenttrack>
        <pattern pos="16896" muted="0" steps="16" name="" type="1">
          <note key="60" pos="0" pan="0" len="120" vol="100" />
        </pattern>
      </track>
      <track solo="0" name="47 (Ch7)" type="0" muted="0">
        <instrumenttrack usemasterpitch="1" pitch="0.0" basenote="57" pan="0" pitchrange="12" vol="30">
          <eldata />
          <instrument name="tripleoscillator" />
        </instrumenttrack>
        <pattern pos="168204" muted="0" steps="16" name="" type="1">
          <note key="69" pos="0" pan="0" len="672" vol="34" />
        </pattern>
        <pattern pos="16896" muted="0" steps="16" name="" type="1">
          <note key="67" pos="0" pan="0" len="744" vol="100" />
        </pattern>
        <pattern pos="55296" muted="0" steps="16" name="" type="1">
          <note key="69" pos="192" pan="0" len="72" vol="34" />
        </pattern>
      </track>
      <track solo="0" name="47 (Ch8)" type="0" muted="0">
        <instrumenttrack usemasterpitch="1" pitch="0.0" basenote="57" pan="0" pitchrange="12" vol="30">
          <eldata />
          <instrument name="tripleoscillator" />
        </instrumenttrack>
        <pattern pos="32256" muted="0" steps="16" name="" type="1">
          <note key="72" pos="144" pan="0" len="624" vol="34" />
        </pattern>
      </track>
      <track solo="0" name="47 (Ch9)" type="0" muted="0">
        <instrumenttrack usemasterpitch="1" pitch="0.0" basenote="57" pan="0" pitchrange="12" vol="30">
          <eldata />
          <instrument name="tripleoscillator" />
        </instrumenttrack>
        <pattern pos="7680" muted="0" steps="16" name="" type="1">
          <note key="63" pos="288" pan="0" len="96" vol="100" />
          <note key="62" pos="384" pan="0" len="144" vol="100" />
          <note key="55" pos="528" pan="0" len="1008" vol="100" />
        </pattern>
      </track>
      <track solo="0" name="47 (Ch10)" type="0" muted="0">
        <instrumenttrack usemasterpitch="1" pitch="0.0" basenote="57" pan="0" pitchrange="12" vol="30">
          <eldata />
          <instrument name="tripleoscillator" />
        </instrumenttrack>
        <pattern pos="260364" muted="0" steps="16" name="" type="1">
          <note key="55" pos="0" pan="0" len="288" vol="100" />
          <note key="62" pos="288" pan="0" len="288" vol="100" />
          <note key="67" pos="576" pan="0" len="288" vol="100" />
          <note key="62" pos="864" pan="0" len="192" vol="100" />
          <note key="65" pos="1056" pan="0" len="96" vol="100" />
          <note key="67" pos="1152" pan="0" len="1152" vol="100" />
        </pattern>
      </track>
      <track solo="0" name="47 (Ch11)" type="0" muted="0">
        <instrumenttrack usemasterpitch="1" pitch="0.0" basenote="57" pan="0" pitchrange="12" vol="30">
          <eldata />
          <instrument name="tripleoscillator" />
        </instrumenttrack>
        <pattern pos="29184" muted="0" steps="16" name="" type="1">
          <note key="67" pos="48" pan="0" len="336" vol="100" />
        </pattern>
      </track>
      <track solo="0" name="47 (Ch12)" type="0" muted="0">
        <instrumenttrack usemasterpitch="1" pitch="0.0" basenote="57" pan="0" pitchrange="12" vol="30">
          <eldata />
          <instrument name="tripleoscillator" />
        </instrumenttrack>
        <pattern pos="29184" muted="0" steps="16" name="" type="1">
          <note key="60" pos="48" pan="0" len="336" vol="100" />
        </pattern>
      </track>
      <track solo="0" name="47 (Ch14)" type="0" muted="0">
        <instrumenttrack usemasterpitch="1" pitch="0.0" basenote="57" pan="0" pitchrange="12" vol="30">
          <eldata />
          <instrument name="tripleoscillator" />
        </instrumenttrack>
        <pattern pos="85248" muted="0" steps="16" name="" type="1">
          <note key="77" pos="144" pan="0" len="192" vol="100" />
        </pattern>
        <pattern pos="73728" muted="0" steps="16" name="" type="1">
          <note key="77" pos="144" pan="0" len="192" vol="100" />
        </pattern>
      </track>
      <track solo="0" name="48 (Ch1)" type="0" muted="0">
        <instrumenttrack usemasterpitch="1" pitch="0.0" basenote="57" pan="0" pitchrange="12" vol="30">
          <eldata />
          <instrument name="tripleoscillator" />
        </instrumenttrack>
        <pattern pos="19968" muted="0" steps="16" name="" type="1">
          <note key="63" pos="0" pan="0" len="168" vol="100" />
          <note key="65" pos="168" pan="0" len="24" vol="100" />
          <note key="67" pos="192" pan="0" len="168" vol="100" />
          <note key="65" pos="360" pan="0" len="24" vol="100" />
          <note key="60" pos="384" pan="0" len="168" vol="100" />
          <note key="58" pos="552" pan="0" len="24" vol="100" />
          <note key="60" pos="576" pan="0" len="96" vol="100" />
          <note key="63" pos="672" pan="0" len="48" vol="100" />
          <note key="58" pos="720" pan="0" len="48" vol="100" />
          <note key="63" pos="768" pan="0" len="168" vol="100" />
          <note key="65" pos="936" pan="0" len="24" vol="100" />
          <note key="67" pos="960" pan="0" len="168" vol="100" />
          <note key="65" pos="1128" pan="0" len="24" vol="100" />
          <note key="60" pos="1152" pan="0" len="384" vol="100" />
        </pattern>
      </track>
      <track solo="0" name="48 (Ch6)" type="0" muted="0">
        <instrumenttrack usemasterpitch="1" pitch="0.0" basenote="57" pan="0" pitchrange="12" vol="30">
          <eldata />
          <instrument name="tripleoscillator" />
        </instrumenttrack>
        <pattern pos="32256" muted="0" steps="16" name="" type="1">
          <note key="48" pos="0" pan="0" len="192" vol="100" />
          <note key="51" pos="192" pan="0" len="96" vol="100" />
          <note key="55" pos="288" pan="0" len="48" vol="100" />
          <note key="58" pos="336" pan="0" len="48" vol="100" />
          <note key="48" pos="384" pan="0" len="192" vol="100" />
          <note key="51" pos="576" pan="0" len="96" vol="100" />
          <note key="55" pos="672" pan="0" len="48" vol="100" />
          <note key="53" pos="720" pan="0" len="48" vol="100" />
          <note key="48" pos="768" pan="0" len="192" vol="100" />
          <note key="51" pos="960" pan="0" len="96" vol="100" />
          <note key="55" pos="1056" pan="0" len="48" vol="100" />
          <note key="58" pos="1104" pan="0" len="48" vol="100" />
          <note key="48" pos="1152" pan="0" len="192" vol="100" />
          <note key="51" pos="1344" pan="0" len="96" vol="100" />
          <note key="55" pos="1440" pan="0" len="48" vol="100" />
          <note key="53" pos="1488" pan="0" len="48" vol="100" />
        </pattern>
      </track>
      <track solo="0" name="48 (Ch8)" type="0" muted="0">
        <instrumenttrack usemasterpitch="1" pitch="0.0" basenote="57" pan="0" pitchrange="12" vol="30">
          <eldata />
          <instrument name="tripleoscillator" />
        </instrumenttrack>
        <pattern pos="16896" muted="0" steps="16" name="" type="1">
          <note key="60" pos="0" pan="0" len="384" vol="100" />
          <note key="63" pos="384" pan="0" len="192" vol="100" />
          <note key="67" pos="576" pan="0" len="96" vol="100" />
          <note key="70" pos="672" pan="0" len="96" vol="100" />
          <note key="60" pos="768" pan="0" len="384" vol="100" />
          <note key="63" pos="1152" pan="0" len="192" vol="100" />
          <note key="67" pos="1344" pan="0" len="192" vol="100" />
        </pattern>
      </track>
      <track solo="0" name="49 (Ch2)" type="0" muted="0">
        <instrumenttrack usemasterpitch="1" pitch="0.0" basenote="57" pan="0" pitchrange="12" vol="30">
          <eldata />
          <instrument name="tripleoscillator" />
        </instrumenttrack>
        <pattern pos="27648" muted="0" steps="16" name="" type="1">
          <note key="68" pos="0" pan="0" len="240" vol="100" />
          <note key="70" pos="240" pan="0" len="48" vol="100" />
          <note key="75" pos="288" pan="0" len="96" vol="100" />
          <note key="72" pos="384" pan="0" len="144" vol="100" />
          <note key="75" pos="528" pan="0" len="48" vol="100" />
          <note key="70" pos="576" pan="0" len="144" vol="100" />
          <note key="67" pos="720" pan="0" len="48" vol="100" />
          <note key="68" pos="768" pan="0" len="240" vol="100" />
          <note key="70" pos="1008" pan="0" len="48" vol="100" />
          <note key="75" pos="1056" pan="0" len="96" vol="100" />
          <note key="72" pos="1152" pan="0" len="192" vol="100" />
          <note key="70" pos="1344" pan="0" len="120" vol="100" />
          <note key="67" pos="1464" pan="0" len="72" vol="100" />
        </pattern>
        <pattern pos="24576" muted="0" steps="16" name="" type="1">
          <note key="65" pos="0" pan="0" len="312" vol="100" />
          <note key="68" pos="312" pan="0" len="72" vol="100" />
          <note key="73" pos="384" pan="0" len="312" vol="100" />
          <note key="63" pos="696" pan="0" len="72" vol="100" />
          <note key="65" pos="768" pan="0" len="312" vol="100" />
          <note key="68" pos="1080" pan="0" len="72" vol="100" />
          <note key="73" pos="1152" pan="0" len="312" vol="100" />
          <note key="72" pos="1464" pan="0" len="72" vol="100" />
        </pattern>
      </track>
      <track solo="0" name="50 (Ch1)" type="0" muted="0">
        <instrumenttrack usemasterpitch="1" pitch="0.0" basenote="57" pan="0" pitchrange="12" vol="30">
          <eldata />
          <instrument name="tripleoscillator" />
        </instrumenttrack>
        <pattern pos="29184" muted="0" steps="16" name="" type="1">
          <note key="60" pos="48" pan="0" len="336" vol="100" />
        </pattern>
        <pattern pos="15360" muted="0" steps="16" name="" type="1">
          <note key="60" pos="0" pan="0" len="384" vol="100" />
          <note key="63" pos="384" pan="0" len="192" vol="100" />
          <note key="67" pos="576" pan="0" len="96" vol="100" />
          <note key="70" pos="672" pan="0" len="96" vol="100" />
          <note key="60" pos="768" pan="0" len="384" vol="100" />
          <note key="63" pos="1152" pan="0" len="192" vol="100" />
          <note key="67" pos="1344" pan="0" len="192" vol="100" />
        </pattern>
        <pattern pos="16896" muted="0" steps="16" name="" type="1">
          <note key="60" pos="0" pan="0" len="384" vol="100" />
          <note key="63" pos="384" pan="0" len="168" vol="100" />
          <note key="65" pos="552" pan="0" len="24" vol="100" />
          <note key="67" pos="576" pan="0" len="96" vol="100" />
          <note key="70" pos="672" pan="0" len="96" vol="100" />
          <note key="60" pos="768" pan="0" len="384" vol="100" />
          <note key="63" pos="1152" pan="0" len="168" vol="100" />
          <note key="65" pos="1320" pan="0" len="24" vol="100" />
          <note key="67" pos="1344" pan="0" len="144" vol="100" />
          <note key="70" pos="1488" pan="0" len="48" vol="100" />
        </pattern>
      </track>
      <track solo="0" name="50 (Ch3)" type="0" muted="0">
        <instrumenttrack usemasterpitch="1" pitch="0.0" basenote="57" pan="0" pitchrange="12" vol="30">
          <eldata />
          <instrument name="tripleoscillator" />
        </instrumenttrack>
        <pattern pos="200460" muted="0" steps="16" name="" type="1">
          <note key="59" pos="0" pan="0" len="48" vol="100" />
          <note key="61" pos="72" pan="0" len="48" vol="100" />
          <note key="62" pos="144" pan="0" len="36" vol="100" />
          <note key="64" pos="192" pan="0" len="72" vol="100" />
        </pattern>
        <pattern pos="191244" muted="0" steps="16" name="" type="1">
          <note key="59" pos="0" pan="0" len="48" vol="100" />
          <note key="61" pos="72" pan="0" len="48" vol="100" />
          <note key="62" pos="144" pan="0" len="36" vol="100" />
          <note key="64" pos="192" pan="0" len="24" vol="100" />
          <note key="57" pos="384" pan="0" len="48" vol="100" />
          <note key="59" pos="456" pan="0" len="24" vol="100" />
          <note key="67" pos="528" pan="0" len="36" vol="100" />
          <note key="64" pos="576" pan="0" len="24" vol="100" />
          <note key="59" pos="768" pan="0" len="48" vol="100" />
          <note key="61" pos="840" pan="0" len="48" vol="100" />
          <note key="62" pos="912" pan="0" len="36" vol="100" />
          <note key="64" pos="960" pan="0" len="24" vol="100" />
          <note key="57" pos="1152" pan="0" len="48" vol="100" />
          <note key="59" pos="1224" pan="0" len="24" vol="100" />
          <note key="67" pos="1296" pan="0" len="36" vol="100" />
          <note key="64" pos="1344" pan="0" len="24" vol="100" />
        </pattern>
      </track>
      <track solo="0" name="50 (Ch11)" type="0" muted="0">
        <instrumenttrack usemasterpitch="1" pitch="0.0" basenote="57" pan="0" pitchrange="12" vol="30">
          <eldata />
          <instrument name="tripleoscillator" />
        </instrumenttrack>
        <pattern pos="58752" muted="0" steps="16" name="" type="1">
          <note key="62" pos="0" pan="0" len="252" vol="100" />
        </pattern>
      </track>
      <track solo="0" name="51 (Ch1)" type="0" muted="0">
        <instrumenttrack usemasterpitch="1" pitch="0.0" basenote="57" pan="0" pitchrange="12" vol="30">
          <eldata />
          <instrument name="tripleoscillator" />
        </instrumenttrack>
        <pattern pos="174348" muted="0" steps="16" name="" type="1">
          <note key="33" pos="0" pan="0" len="1536" vol="50" />
        </pattern>
        <pattern pos="144396" muted="0" steps="16" name="" type="1">
          <note key="36" pos="0" pan="0" len="384" vol="100" />
        </pattern>
        <pattern pos="160524" muted="0" steps="16" name="" type="1">
          <note key="37" pos="192" pan="0" len="96" vol="100" />
        </pattern>
      </track>
      <track solo="0" name="51 (Ch2)" type="0" muted="0">
        <instrumenttrack usemasterpitch="1" pitch="0.0" basenote="57" pan="0" pitchrange="12" vol="30">
          <eldata />
          <instrument name="tripleoscillator" />
        </instrumenttrack>
        <pattern pos="174348" muted="0" steps="16" name="" type="1">
          <note key="41" pos="0" pan="0" len="1536" vol="50" />
        </pattern>
        <pattern pos="144396" muted="0" steps="16" name="" type="1">
          <note key="39" pos="0" pan="0" len="384" vol="100" />
        </pattern>
        <pattern pos="160524" muted="0" steps="16" name="" type="1">
          <note key="32" pos="0" pan="0" len="192" vol="16" />
          <note key="39" pos="288" pan="0" len="1248" vol="78" />
        </pattern>
      </track>
      <track solo="0" name="51 (Ch3)" type="0" muted="0">
        <instrumenttrack usemasterpitch="1" pitch="0.0" basenote="57" pan="0" pitchrange="12" vol="30">
          <eldata />
          <instrument name="tripleoscillator" />
        </instrumenttrack>
        <pattern pos="174348" muted="0" steps="16" name="" type="1">
          <note key="43" pos="0" pan="0" len="1536" vol="50" />
        </pattern>
        <pattern pos="144396" muted="0" steps="16" name="" type="1">
          <note key="50" pos="0" pan="0" len="384" vol="100" />
        </pattern>
        <pattern pos="150540" muted="0" steps="16" name="" type="1">
          <note key="44" pos="0" pan="0" len="96" vol="47" />
          <note key="42" pos="192" pan="0" len="96" vol="47" />
          <note key="59" pos="768" pan="0" len="96" vol="47" />
          <note key="57" pos="960" pan="0" len="96" vol="47" />
        </pattern>
        <pattern pos="152076" muted="0" steps="16" name="" type="1">
          <note key="44" pos="0" pan="0" len="96" vol="47" />
          <note key="42" pos="192" pan="0" len="96" vol="47" />
          <note key="59" pos="768" pan="0" len="96" vol="47" />
          <note key="57" pos="960" pan="0" len="96" vol="47" />
        </pattern>
      </track>
      <track solo="0" name="51 (Ch4)" type="0" muted="0">
        <instrumenttrack usemasterpitch="1" pitch="0.0" basenote="57" pan="0" pitchrange="12" vol="30">
          <eldata />
          <instrument name="tripleoscillator" />
        </instrumenttrack>
        <pattern pos="152076" muted="0" steps="16" name="" type="1">
          <note key="51" pos="0" pan="0" len="96" vol="47" />
          <note key="47" pos="192" pan="0" len="96" vol="47" />
          <note key="52" pos="768" pan="0" len="96" vol="47" />
          <note key="53" pos="960" pan="0" len="96" vol="47" />
        </pattern>
        <pattern pos="150540" muted="0" steps="16" name="" type="1">
          <note key="51" pos="0" pan="0" len="96" vol="47" />
          <note key="47" pos="192" pan="0" len="96" vol="47" />
          <note key="52" pos="768" pan="0" len="96" vol="47" />
          <note key="53" pos="960" pan="0" len="96" vol="47" />
        </pattern>
      </track>
      <track solo="0" name="51 (Ch5)" type="0" muted="0">
        <instrumenttrack usemasterpitch="1" pitch="0.0" basenote="57" pan="0" pitchrange="12" vol="30">
          <eldata />
          <instrument name="tripleoscillator" />
        </instrumenttrack>
        <pattern pos="152076" muted="0" steps="16" name="" type="1">
          <note key="54" pos="0" pan="0" len="96" vol="47" />
          <note key="49" pos="192" pan="0" len="96" vol="47" />
          <note key="52" pos="768" pan="0" len="96" vol="47" />
          <note key="55" pos="960" pan="0" len="96" vol="47" />
        </pattern>
        <pattern pos="150540" muted="0" steps="16" name="" type="1">
          <note key="54" pos="0" pan="0" len="96" vol="47" />
          <note key="49" pos="192" pan="0" len="96" vol="47" />
          <note key="52" pos="768" pan="0" len="96" vol="47" />
          <note key="55" pos="960" pan="0" len="96" vol="47" />
        </pattern>
      </track>
      <track solo="0" name="51 (Ch6)" type="0" muted="0">
        <instrumenttrack usemasterpitch="1" pitch="0.0" basenote="57" pan="0" pitchrange="12" vol="30">
          <eldata />
          <instrument name="tripleoscillator" />
        </instrumenttrack>
        <pattern pos="152076" muted="0" steps="16" name="" type="1">
          <note key="49" pos="0" pan="0" len="96" vol="47" />
          <note key="45" pos="192" pan="0" len="96" vol="47" />
          <note key="54" pos="768" pan="0" len="96" vol="47" />
          <note key="60" pos="960" pan="0" len="96" vol="47" />
        </pattern>
        <pattern pos="150540" muted="0" steps="16" name="" type="1">
          <note key="49" pos="0" pan="0" len="96" vol="47" />
          <note key="45" pos="192" pan="0" len="96" vol="47" />
          <note key="54" pos="768" pan="0" len="96" vol="47" />
          <note key="60" pos="960" pan="0" len="96" vol="47" />
        </pattern>
      </track>
      <track solo="0" name="51 (Ch7)" type="0" muted="0">
        <instrumenttrack usemasterpitch="1" pitch="0.0" basenote="57" pan="0" pitchrange="12" vol="30">
          <eldata />
          <instrument name="tripleoscillator" />
        </instrumenttrack>
        <pattern pos="152076" muted="0" steps="16" name="" type="1">
          <note key="47" pos="96" pan="0" len="96" vol="47" />
          <note key="57" pos="864" pan="0" len="96" vol="47" />
        </pattern>
        <pattern pos="150540" muted="0" steps="16" name="" type="1">
          <note key="47" pos="96" pan="0" len="96" vol="47" />
          <note key="57" pos="864" pan="0" len="96" vol="47" />
        </pattern>
      </track>
      <track solo="0" name="51 (Ch8)" type="0" muted="0">
        <instrumenttrack usemasterpitch="1" pitch="0.0" basenote="57" pan="0" pitchrange="12" vol="30">
          <eldata />
          <instrument name="tripleoscillator" />
        </instrumenttrack>
        <pattern pos="152076" muted="0" steps="16" name="" type="1">
          <note key="52" pos="96" pan="0" len="96" vol="47" />
          <note key="62" pos="864" pan="0" len="96" vol="47" />
        </pattern>
        <pattern pos="150540" muted="0" steps="16" name="" type="1">
          <note key="52" pos="96" pan="0" len="96" vol="47" />
          <note key="62" pos="864" pan="0" len="96" vol="47" />
        </pattern>
      </track>
      <track solo="0" name="51 (Ch9)" type="0" muted="0">
        <instrumenttrack usemasterpitch="1" pitch="0.0" basenote="57" pan="0" pitchrange="12" vol="30">
          <eldata />
          <instrument name="tripleoscillator" />
        </instrumenttrack>
        <pattern pos="152076" muted="0" steps="16" name="" type="1">
          <note key="45" pos="96" pan="0" len="96" vol="47" />
          <note key="52" pos="864" pan="0" len="96" vol="47" />
        </pattern>
        <pattern pos="150540" muted="0" steps="16" name="" type="1">
          <note key="45" pos="96" pan="0" len="96" vol="47" />
          <note key="52" pos="864" pan="0" len="96" vol="47" />
        </pattern>
      </track>
      <track solo="0" name="51 (Ch13)" type="0" muted="0">
        <instrumenttrack usemasterpitch="1" pitch="0.0" basenote="57" pan="0" pitchrange="12" vol="30">
          <eldata />
          <instrument name="tripleoscillator" />
        </instrumenttrack>
        <pattern pos="105984" muted="0" steps="16" name="" type="1">
          <note key="57" pos="1152" pan="0" len="192" vol="0" />
          <note key="55" pos="1344" pan="0" len="192" vol="100" />
        </pattern>
        <pattern pos="102912" muted="0" steps="16" name="" type="1">
          <note key="57" pos="1152" pan="0" len="192" vol="0" />
          <note key="55" pos="1344" pan="0" len="192" vol="100" />
        </pattern>
      </track>
      <track solo="0" name="51 (Ch14)" type="0" muted="0">
        <instrumenttrack usemasterpitch="1" pitch="0.0" basenote="57" pan="0" pitchrange="12" vol="30">
          <eldata />
          <instrument name="tripleoscillator" />
        </instrumenttrack>
        <pattern pos="105984" muted="0" steps="16" name="" type="1">
          <note key="53" pos="1152" pan="0" len="192" vol="0" />
          <note key="52" pos="1344" pan="0" len="192" vol="100" />
        </pattern>
        <pattern pos="95232" muted="0" steps="16" name="" type="1">
          <note key="48" pos="36" pan="0" len="48" vol="59" />
          <note key="50" pos="84" pan="0" len="144" vol="59" />
          <note key="57" pos="228" pan="0" len="96" vol="59" />
          <note key="55" pos="324" pan="0" len="12" vol="59" />
          <note key="57" pos="336" pan="0" len="12" vol="59" />
          <note key="55" pos="348" pan="0" len="360" vol="59" />
          <note key="53" pos="708" pan="0" len="48" vol="59" />
          <note key="52" pos="756" pan="0" len="48" vol="59" />
          <note key="52" pos="804" pan="0" len="96" vol="59" />
          <note key="53" pos="900" pan="0" len="96" vol="59" />
          <note key="55" pos="996" pan="0" len="96" vol="59" />
          <note key="46" pos="1092" pan="0" len="24" vol="59" />
          <note key="48" pos="1116" pan="0" len="360" vol="59" />
          <note key="45" pos="1476" pan="0" len="48" vol="59" />
          <note key="55" pos="1524" pan="0" len="48" vol="59" />
          <note key="45" pos="1572" pan="0" len="732" vol="59" />
        </pattern>
        <pattern pos="102912" muted="0" steps="16" name="" type="1">
          <note key="53" pos="1152" pan="0" len="192" vol="0" />
          <note key="52" pos="1344" pan="0" len="192" vol="100" />
        </pattern>
      </track>
      <track solo="0" name="51 (Ch15)" type="0" muted="0">
        <instrumenttrack usemasterpitch="1" pitch="0.0" basenote="57" pan="0" pitchrange="12" vol="30">
          <eldata />
          <instrument name="tripleoscillator" />
        </instrumenttrack>
        <pattern pos="105984" muted="0" steps="16" name="" type="1">
          <note key="50" pos="1152" pan="0" len="192" vol="0" />
          <note key="48" pos="1344" pan="0" len="192" vol="100" />
        </pattern>
        <pattern pos="102912" muted="0" steps="16" name="" type="1">
          <note key="50" pos="1152" pan="0" len="192" vol="0" />
          <note key="48" pos="1344" pan="0" len="192" vol="100" />
        </pattern>
      </track>
      <track solo="0" name="52 (Ch1)" type="0" muted="0">
        <instrumenttrack usemasterpitch="1" pitch="0.0" basenote="57" pan="0" pitchrange="12" vol="30">
          <eldata />
          <instrument name="tripleoscillator" />
        </instrumenttrack>
        <pattern pos="246540" muted="0" steps="16" name="" type="1">
          <note key="58" pos="0" pan="0" len="96" vol="100" />
        </pattern>
        <pattern pos="95232" muted="0" steps="16" name="" type="1">
          <note key="50" pos="1584" pan="0" len="720" vol="100" />
        </pattern>
        <pattern pos="145932" muted="0" steps="16" name="" type="1">
          <note key="44" pos="0" pan="0" len="144" vol="100" />
          <note key="58" pos="180" pan="0" len="144" vol="100" />
          <note key="49" pos="372" pan="0" len="396" vol="100" />
          <note key="44" pos="768" pan="0" len="372" vol="100" />
          <note key="60" pos="1140" pan="0" len="396" vol="100" />
        </pattern>
        <pattern pos="147468" muted="0" steps="16" name="" type="1">
          <note key="44" pos="0" pan="0" len="144" vol="78" />
          <note key="39" pos="192" pan="0" len="144" vol="78" />
          <note key="47" pos="384" pan="0" len="144" vol="100" />
          <note key="57" pos="576" pan="0" len="192" vol="75" />
          <note key="50" pos="768" pan="0" len="384" vol="78" />
          <note key="47" pos="1152" pan="0" len="384" vol="78" />
        </pattern>
        <pattern pos="149004" muted="0" steps="16" name="" type="1">
          <note key="44" pos="0" pan="0" len="144" vol="78" />
          <note key="39" pos="192" pan="0" len="144" vol="78" />
          <note key="47" pos="384" pan="0" len="144" vol="100" />
          <note key="57" pos="576" pan="0" len="192" vol="75" />
          <note key="50" pos="768" pan="0" len="384" vol="78" />
          <note key="47" pos="1152" pan="0" len="384" vol="78" />
        </pattern>
        <pattern pos="153612" muted="0" steps="16" name="" type="1">
          <note key="44" pos="0" pan="0" len="144" vol="100" />
          <note key="58" pos="180" pan="0" len="144" vol="100" />
          <note key="49" pos="372" pan="0" len="396" vol="100" />
          <note key="44" pos="768" pan="0" len="372" vol="100" />
          <note key="60" pos="1140" pan="0" len="396" vol="100" />
        </pattern>
        <pattern pos="221196" muted="0" steps="16" name="" type="1">
          <note key="58" pos="0" pan="0" len="1536" vol="100" />
        </pattern>
        <pattern pos="224268" muted="0" steps="16" name="" type="1">
          <note key="58" pos="0" pan="0" len="192" vol="100" />
          <note key="58" pos="384" pan="0" len="384" vol="39" />
          <note key="58" pos="768" pan="0" len="192" vol="100" />
          <note key="58" pos="1152" pan="0" len="384" vol="39" />
        </pattern>
        <pattern pos="230412" muted="0" steps="16" name="" type="1">
          <note key="58" pos="0" pan="0" len="192" vol="100" />
          <note key="58" pos="384" pan="0" len="384" vol="39" />
          <note key="58" pos="768" pan="0" len="192" vol="100" />
          <note key="58" pos="1152" pan="0" len="384" vol="39" />
        </pattern>
        <pattern pos="236556" muted="0" steps="16" name="" type="1">
          <note key="58" pos="0" pan="0" len="180" vol="100" />
        </pattern>
      </track>
      <track solo="0" name="52 (Ch2)" type="0" muted="0">
        <instrumenttrack usemasterpitch="1" pitch="0.0" basenote="57" pan="0" pitchrange="12" vol="30">
          <eldata />
          <instrument name="tripleoscillator" />
        </instrumenttrack>
        <pattern pos="246540" muted="0" steps="16" name="" type="1">
          <note key="53" pos="0" pan="0" len="96" vol="100" />
        </pattern>
        <pattern pos="19968" muted="0" steps="16" name="" type="1">
          <note key="67" pos="0" pan="0" len="192" vol="89" />
          <note key="58" pos="192" pan="0" len="192" vol="89" />
          <note key="55" pos="384" pan="0" len="384" vol="89" />
          <note key="67" pos="768" pan="0" len="192" vol="89" />
          <note key="58" pos="960" pan="0" len="192" vol="89" />
          <note key="55" pos="1152" pan="0" len="240" vol="89" />
        </pattern>
        <pattern pos="30720" muted="0" steps="16" name="" type="1">
          <note key="51" pos="0" pan="0" len="96" vol="59" />
          <note key="51" pos="96" pan="0" len="96" vol="59" />
          <note key="48" pos="192" pan="0" len="96" vol="59" />
          <note key="50" pos="288" pan="0" len="96" vol="59" />
          <note key="51" pos="384" pan="0" len="96" vol="59" />
          <note key="48" pos="480" pan="0" len="96" vol="59" />
          <note key="51" pos="576" pan="0" len="96" vol="59" />
          <note key="53" pos="672" pan="0" len="96" vol="59" />
          <note key="51" pos="768" pan="0" len="96" vol="59" />
          <note key="51" pos="864" pan="0" len="96" vol="59" />
          <note key="48" pos="960" pan="0" len="96" vol="59" />
          <note key="46" pos="1056" pan="0" len="96" vol="59" />
          <note key="51" pos="1152" pan="0" len="96" vol="59" />
          <note key="48" pos="1248" pan="0" len="96" vol="59" />
          <note key="51" pos="1344" pan="0" len="96" vol="59" />
          <note key="53" pos="1440" pan="0" len="96" vol="59" />
        </pattern>
        <pattern pos="32256" muted="0" steps="16" name="" type="1">
          <note key="51" pos="0" pan="0" len="96" vol="59" />
          <note key="51" pos="96" pan="0" len="96" vol="59" />
          <note key="48" pos="192" pan="0" len="96" vol="59" />
          <note key="46" pos="288" pan="0" len="96" vol="59" />
          <note key="51" pos="384" pan="0" len="96" vol="59" />
          <note key="48" pos="480" pan="0" len="96" vol="59" />
          <note key="51" pos="576" pan="0" len="96" vol="59" />
          <note key="53" pos="672" pan="0" len="96" vol="59" />
          <note key="51" pos="768" pan="0" len="96" vol="59" />
          <note key="51" pos="864" pan="0" len="96" vol="59" />
          <note key="48" pos="960" pan="0" len="96" vol="59" />
          <note key="46" pos="1056" pan="0" len="96" vol="59" />
          <note key="51" pos="1152" pan="0" len="96" vol="59" />
          <note key="48" pos="1248" pan="0" len="96" vol="59" />
          <note key="51" pos="1344" pan="0" len="96" vol="59" />
          <note key="53" pos="1440" pan="0" len="96" vol="59" />
        </pattern>
        <pattern pos="95232" muted="0" steps="16" name="" type="1">
          <note key="38" pos="1584" pan="0" len="720" vol="100" />
        </pattern>
        <pattern pos="124428" muted="0" steps="16" name="" type="1">
          <note key="67" pos="0" pan="0" len="144" vol="50" />
          <note key="65" pos="144" pan="0" len="48" vol="50" />
          <note key="63" pos="192" pan="0" len="144" vol="50" />
          <note key="65" pos="336" pan="0" len="48" vol="50" />
          <note key="60" pos="384" pan="0" len="144" vol="50" />
          <note key="58" pos="528" pan="0" len="48" vol="50" />
          <note key="55" pos="576" pan="0" len="96" vol="50" />
          <note key="58" pos="672" pan="0" len="96" vol="50" />
        </pattern>
        <pattern pos="125196" muted="0" steps="16" name="" type="1">
          <note key="58" pos="0" pan="0" len="192" vol="50" />
          <note key="58" pos="192" pan="0" len="96" vol="50" />
          <note key="55" pos="288" pan="0" len="96" vol="50" />
          <note key="58" pos="384" pan="0" len="192" vol="50" />
          <note key="58" pos="576" pan="0" len="96" vol="50" />
          <note key="55" pos="672" pan="0" len="96" vol="50" />
        </pattern>
        <pattern pos="125964" muted="0" steps="16" name="" type="1">
          <note key="55" pos="0" pan="0" len="96" vol="50" />
          <note key="53" pos="96" pan="0" len="96" vol="50" />
          <note key="51" pos="192" pan="0" len="96" vol="50" />
          <note key="51" pos="288" pan="0" len="96" vol="50" />
          <note key="55" pos="384" pan="0" len="96" vol="50" />
          <note key="55" pos="480" pan="0" len="96" vol="50" />
          <note key="51" pos="576" pan="0" len="96" vol="50" />
          <note key="55" pos="672" pan="0" len="96" vol="50" />
          <note key="55" pos="768" pan="0" len="96" vol="50" />
          <note key="53" pos="864" pan="0" len="96" vol="50" />
          <note key="51" pos="960" pan="0" len="96" vol="50" />
          <note key="51" pos="1056" pan="0" len="96" vol="50" />
          <note key="55" pos="1152" pan="0" len="96" vol="50" />
          <note key="55" pos="1248" pan="0" len="96" vol="50" />
          <note key="51" pos="1344" pan="0" len="120" vol="50" />
        </pattern>
        <pattern pos="127500" muted="0" steps="16" name="" type="1">
          <note key="67" pos="0" pan="0" len="144" vol="50" />
          <note key="65" pos="144" pan="0" len="48" vol="50" />
          <note key="63" pos="192" pan="0" len="144" vol="50" />
          <note key="65" pos="336" pan="0" len="48" vol="50" />
          <note key="60" pos="384" pan="0" len="144" vol="50" />
          <note key="58" pos="528" pan="0" len="48" vol="50" />
          <note key="55" pos="576" pan="0" len="96" vol="50" />
          <note key="58" pos="672" pan="0" len="96" vol="50" />
          <note key="67" pos="768" pan="0" len="144" vol="50" />
          <note key="65" pos="912" pan="0" len="48" vol="50" />
          <note key="63" pos="960" pan="0" len="144" vol="50" />
          <note key="65" pos="1104" pan="0" len="48" vol="50" />
          <note key="60" pos="1152" pan="0" len="144" vol="50" />
          <note key="58" pos="1296" pan="0" len="48" vol="50" />
          <note key="55" pos="1344" pan="0" len="96" vol="50" />
          <note key="58" pos="1440" pan="0" len="96" vol="50" />
        </pattern>
        <pattern pos="129036" muted="0" steps="16" name="" type="1">
          <note key="55" pos="0" pan="0" len="96" vol="50" />
          <note key="53" pos="96" pan="0" len="96" vol="50" />
          <note key="51" pos="192" pan="0" len="96" vol="50" />
          <note key="51" pos="288" pan="0" len="96" vol="50" />
          <note key="55" pos="384" pan="0" len="96" vol="50" />
          <note key="55" pos="480" pan="0" len="96" vol="50" />
          <note key="51" pos="576" pan="0" len="96" vol="50" />
          <note key="51" pos="672" pan="0" len="24" vol="100" />
          <note key="55" pos="768" pan="0" len="96" vol="50" />
          <note key="53" pos="864" pan="0" len="96" vol="50" />
          <note key="51" pos="960" pan="0" len="96" vol="50" />
          <note key="51" pos="1056" pan="0" len="96" vol="50" />
          <note key="55" pos="1152" pan="0" len="96" vol="50" />
          <note key="55" pos="1248" pan="0" len="96" vol="50" />
          <note key="51" pos="1344" pan="0" len="120" vol="50" />
        </pattern>
        <pattern pos="145932" muted="0" steps="16" name="" type="1">
          <note key="49" pos="0" pan="0" len="144" vol="100" />
          <note key="51" pos="180" pan="0" len="144" vol="100" />
          <note key="44" pos="372" pan="0" len="396" vol="100" />
          <note key="49" pos="768" pan="0" len="372" vol="100" />
          <note key="56" pos="1140" pan="0" len="396" vol="100" />
        </pattern>
        <pattern pos="147468" muted="0" steps="16" name="" type="1">
          <note key="51" pos="0" pan="0" len="144" vol="78" />
          <note key="46" pos="192" pan="0" len="144" vol="78" />
          <note key="49" pos="384" pan="0" len="144" vol="100" />
          <note key="56" pos="576" pan="0" len="192" vol="75" />
          <note key="52" pos="768" pan="0" len="384" vol="78" />
          <note key="54" pos="1152" pan="0" len="384" vol="78" />
        </pattern>
        <pattern pos="149004" muted="0" steps="16" name="" type="1">
          <note key="51" pos="0" pan="0" len="144" vol="78" />
          <note key="46" pos="192" pan="0" len="144" vol="78" />
          <note key="49" pos="384" pan="0" len="144" vol="100" />
          <note key="56" pos="576" pan="0" len="192" vol="75" />
          <note key="52" pos="768" pan="0" len="384" vol="78" />
          <note key="54" pos="1152" pan="0" len="384" vol="78" />
        </pattern>
        <pattern pos="153612" muted="0" steps="16" name="" type="1">
          <note key="49" pos="0" pan="0" len="144" vol="100" />
          <note key="51" pos="180" pan="0" len="144" vol="100" />
          <note key="44" pos="372" pan="0" len="396" vol="100" />
          <note key="49" pos="768" pan="0" len="372" vol="100" />
          <note key="56" pos="1140" pan="0" len="396" vol="100" />
        </pattern>
      </track>
      <track solo="0" name="52 (Ch3)" type="0" muted="0">
        <instrumenttrack usemasterpitch="1" pitch="0.0" basenote="57" pan="0" pitchrange="12" vol="30">
          <eldata />
          <instrument name="tripleoscillator" />
        </instrumenttrack>
        <pattern pos="155148" muted="0" steps="16" name="" type="1">
          <note key="44" pos="0" pan="0" len="144" vol="100" />
          <note key="58" pos="180" pan="0" len="144" vol="100" />
          <note key="49" pos="372" pan="0" len="396" vol="100" />
          <note key="44" pos="768" pan="0" len="372" vol="100" />
          <note key="60" pos="1140" pan="0" len="396" vol="100" />
        </pattern>
        <pattern pos="19968" muted="0" steps="16" name="" type="1">
          <note key="63" pos="0" pan="0" len="192" vol="89" />
          <note key="62" pos="192" pan="0" len="192" vol="89" />
          <note key="60" pos="384" pan="0" len="384" vol="89" />
          <note key="63" pos="768" pan="0" len="192" vol="89" />
          <note key="62" pos="960" pan="0" len="192" vol="89" />
          <note key="60" pos="1152" pan="0" len="240" vol="89" />
        </pattern>
        <pattern pos="30720" muted="0" steps="16" name="" type="1">
          <note key="55" pos="0" pan="0" len="96" vol="59" />
          <note key="53" pos="96" pan="0" len="96" vol="59" />
          <note key="51" pos="192" pan="0" len="96" vol="59" />
          <note key="53" pos="288" pan="0" len="96" vol="59" />
          <note key="55" pos="384" pan="0" len="96" vol="59" />
          <note key="53" pos="480" pan="0" len="96" vol="59" />
          <note key="53" pos="576" pan="0" len="96" vol="59" />
          <note key="58" pos="672" pan="0" len="96" vol="59" />
          <note key="55" pos="768" pan="0" len="96" vol="59" />
          <note key="53" pos="864" pan="0" len="96" vol="59" />
          <note key="51" pos="960" pan="0" len="96" vol="59" />
          <note key="50" pos="1056" pan="0" len="96" vol="59" />
          <note key="55" pos="1152" pan="0" len="96" vol="59" />
          <note key="53" pos="1248" pan="0" len="96" vol="59" />
          <note key="53" pos="1344" pan="0" len="96" vol="59" />
          <note key="58" pos="1440" pan="0" len="96" vol="59" />
        </pattern>
        <pattern pos="32256" muted="0" steps="16" name="" type="1">
          <note key="55" pos="0" pan="0" len="96" vol="59" />
          <note key="53" pos="96" pan="0" len="96" vol="59" />
          <note key="51" pos="192" pan="0" len="96" vol="59" />
          <note key="50" pos="288" pan="0" len="96" vol="59" />
          <note key="55" pos="384" pan="0" len="96" vol="59" />
          <note key="53" pos="480" pan="0" len="96" vol="59" />
          <note key="53" pos="576" pan="0" len="96" vol="59" />
          <note key="58" pos="672" pan="0" len="96" vol="59" />
          <note key="55" pos="768" pan="0" len="96" vol="59" />
          <note key="53" pos="864" pan="0" len="96" vol="59" />
          <note key="51" pos="960" pan="0" len="96" vol="59" />
          <note key="50" pos="1056" pan="0" len="96" vol="59" />
          <note key="55" pos="1152" pan="0" len="96" vol="59" />
          <note key="53" pos="1248" pan="0" len="96" vol="59" />
          <note key="53" pos="1344" pan="0" len="96" vol="59" />
          <note key="58" pos="1440" pan="0" len="96" vol="59" />
        </pattern>
        <pattern pos="95232" muted="0" steps="16" name="" type="1">
          <note key="52" pos="1584" pan="0" len="720" vol="100" />
        </pattern>
        <pattern pos="107520" muted="0" steps="16" name="" type="1">
          <note key="42" pos="0" pan="0" len="192" vol="100" />
          <note key="54" pos="192" pan="0" len="192" vol="100" />
          <note key="39" pos="384" pan="0" len="192" vol="100" />
          <note key="51" pos="576" pan="0" len="192" vol="100" />
          <note key="37" pos="768" pan="0" len="192" vol="100" />
          <note key="49" pos="960" pan="0" len="192" vol="100" />
          <note key="34" pos="1152" pan="0" len="192" vol="100" />
          <note key="46" pos="1344" pan="0" len="192" vol="100" />
        </pattern>
        <pattern pos="109056" muted="0" steps="16" name="" type="1">
          <note key="42" pos="0" pan="0" len="192" vol="100" />
          <note key="54" pos="192" pan="0" len="192" vol="100" />
          <note key="39" pos="384" pan="0" len="192" vol="100" />
          <note key="51" pos="576" pan="0" len="192" vol="100" />
          <note key="37" pos="768" pan="0" len="192" vol="100" />
          <note key="49" pos="960" pan="0" len="192" vol="100" />
          <note key="34" pos="1152" pan="0" len="192" vol="100" />
          <note key="46" pos="1344" pan="0" len="192" vol="100" />
        </pattern>
        <pattern pos="125196" muted="0" steps="16" name="" type="1">
          <note key="63" pos="0" pan="0" len="192" vol="50" />
          <note key="63" pos="192" pan="0" len="96" vol="50" />
          <note key="58" pos="288" pan="0" len="96" vol="50" />
          <note key="63" pos="384" pan="0" len="192" vol="50" />
          <note key="63" pos="576" pan="0" len="96" vol="50" />
          <note key="58" pos="672" pan="0" len="96" vol="50" />
        </pattern>
        <pattern pos="125964" muted="0" steps="16" name="" type="1">
          <note key="60" pos="0" pan="0" len="96" vol="50" />
          <note key="60" pos="96" pan="0" len="96" vol="50" />
          <note key="55" pos="192" pan="0" len="96" vol="50" />
          <note key="55" pos="288" pan="0" len="96" vol="50" />
          <note key="60" pos="384" pan="0" len="96" vol="50" />
          <note key="58" pos="480" pan="0" len="96" vol="50" />
          <note key="55" pos="576" pan="0" len="96" vol="50" />
          <note key="60" pos="672" pan="0" len="96" vol="50" />
          <note key="60" pos="768" pan="0" len="96" vol="50" />
          <note key="60" pos="864" pan="0" len="96" vol="50" />
          <note key="55" pos="960" pan="0" len="96" vol="50" />
          <note key="55" pos="1056" pan="0" len="96" vol="50" />
          <note key="60" pos="1152" pan="0" len="96" vol="50" />
          <note key="58" pos="1248" pan="0" len="96" vol="50" />
          <note key="55" pos="1344" pan="0" len="120" vol="50" />
        </pattern>
        <pattern pos="129036" muted="0" steps="16" name="" type="1">
          <note key="60" pos="0" pan="0" len="96" vol="50" />
          <note key="60" pos="96" pan="0" len="96" vol="50" />
          <note key="55" pos="192" pan="0" len="96" vol="50" />
          <note key="55" pos="288" pan="0" len="96" vol="50" />
          <note key="60" pos="384" pan="0" len="96" vol="50" />
          <note key="58" pos="480" pan="0" len="96" vol="50" />
          <note key="55" pos="576" pan="0" len="96" vol="50" />
          <note key="55" pos="672" pan="0" len="24" vol="100" />
          <note key="60" pos="768" pan="0" len="96" vol="50" />
          <note key="60" pos="864" pan="0" len="96" vol="50" />
          <note key="55" pos="960" pan="0" len="96" vol="50" />
          <note key="55" pos="1056" pan="0" len="96" vol="50" />
          <note key="60" pos="1152" pan="0" len="96" vol="50" />
          <note key="58" pos="1248" pan="0" len="96" vol="50" />
          <note key="55" pos="1344" pan="0" len="120" vol="50" />
        </pattern>
        <pattern pos="130572" muted="0" steps="16" name="" type="1">
          <note key="50" pos="0" pan="0" len="432" vol="33" />
          <note key="50" pos="768" pan="0" len="432" vol="33" />
        </pattern>
        <pattern pos="145932" muted="0" steps="16" name="" type="1">
          <note key="51" pos="0" pan="0" len="144" vol="100" />
          <note key="54" pos="180" pan="0" len="144" vol="100" />
          <note key="51" pos="372" pan="0" len="396" vol="100" />
          <note key="51" pos="768" pan="0" len="372" vol="100" />
          <note key="63" pos="1140" pan="0" len="396" vol="100" />
        </pattern>
        <pattern pos="147468" muted="0" steps="16" name="" type="1">
          <note key="54" pos="0" pan="0" len="144" vol="78" />
          <note key="49" pos="192" pan="0" len="144" vol="78" />
          <note key="54" pos="384" pan="0" len="144" vol="100" />
          <note key="50" pos="576" pan="0" len="192" vol="75" />
          <note key="57" pos="768" pan="0" len="384" vol="78" />
          <note key="49" pos="1152" pan="0" len="384" vol="0" />
        </pattern>
        <pattern pos="149004" muted="0" steps="16" name="" type="1">
          <note key="54" pos="0" pan="0" len="144" vol="78" />
          <note key="49" pos="192" pan="0" len="144" vol="78" />
          <note key="54" pos="384" pan="0" len="144" vol="100" />
          <note key="50" pos="576" pan="0" len="192" vol="75" />
          <note key="57" pos="768" pan="0" len="384" vol="78" />
          <note key="49" pos="1152" pan="0" len="384" vol="0" />
        </pattern>
        <pattern pos="153612" muted="0" steps="16" name="" type="1">
          <note key="51" pos="0" pan="0" len="144" vol="100" />
          <note key="54" pos="180" pan="0" len="144" vol="100" />
          <note key="51" pos="372" pan="0" len="396" vol="100" />
          <note key="51" pos="768" pan="0" len="372" vol="100" />
          <note key="63" pos="1140" pan="0" len="396" vol="100" />
        </pattern>
      </track>
      <track solo="0" name="52 (Ch4)" type="0" muted="0">
        <instrumenttrack usemasterpitch="1" pitch="0.0" basenote="57" pan="0" pitchrange="12" vol="30">
          <eldata />
          <instrument name="tripleoscillator" />
        </instrumenttrack>
        <pattern pos="233484" muted="0" steps="16" name="" type="1">
          <note key="63" pos="0" pan="0" len="192" vol="100" />
          <note key="59" pos="192" pan="0" len="192" vol="100" />
          <note key="61" pos="384" pan="0" len="192" vol="100" />
          <note key="58" pos="576" pan="0" len="192" vol="100" />
          <note key="59" pos="768" pan="0" len="192" vol="100" />
          <note key="56" pos="960" pan="0" len="192" vol="100" />
          <note key="61" pos="1152" pan="0" len="192" vol="100" />
          <note key="56" pos="1344" pan="0" len="96" vol="100" />
          <note key="59" pos="1440" pan="0" len="96" vol="100" />
        </pattern>
        <pattern pos="19968" muted="0" steps="16" name="" type="1">
          <note key="58" pos="0" pan="0" len="192" vol="89" />
          <note key="65" pos="192" pan="0" len="192" vol="89" />
          <note key="63" pos="384" pan="0" len="384" vol="89" />
          <note key="58" pos="768" pan="0" len="192" vol="89" />
          <note key="65" pos="960" pan="0" len="192" vol="89" />
          <note key="63" pos="1152" pan="0" len="240" vol="89" />
        </pattern>
        <pattern pos="30720" muted="0" steps="16" name="" type="1">
          <note key="58" pos="0" pan="0" len="96" vol="59" />
          <note key="60" pos="96" pan="0" len="96" vol="59" />
          <note key="55" pos="192" pan="0" len="96" vol="59" />
          <note key="58" pos="288" pan="0" len="96" vol="59" />
          <note key="60" pos="384" pan="0" len="96" vol="59" />
          <note key="57" pos="480" pan="0" len="96" vol="59" />
          <note key="58" pos="576" pan="0" len="96" vol="59" />
          <note key="62" pos="672" pan="0" len="96" vol="59" />
          <note key="58" pos="768" pan="0" len="96" vol="59" />
          <note key="60" pos="864" pan="0" len="96" vol="59" />
          <note key="55" pos="960" pan="0" len="96" vol="59" />
          <note key="53" pos="1056" pan="0" len="96" vol="59" />
          <note key="60" pos="1152" pan="0" len="96" vol="59" />
          <note key="57" pos="1248" pan="0" len="96" vol="59" />
          <note key="58" pos="1344" pan="0" len="96" vol="59" />
          <note key="62" pos="1440" pan="0" len="96" vol="59" />
        </pattern>
        <pattern pos="32256" muted="0" steps="16" name="" type="1">
          <note key="58" pos="0" pan="0" len="96" vol="59" />
          <note key="60" pos="96" pan="0" len="96" vol="59" />
          <note key="55" pos="192" pan="0" len="96" vol="59" />
          <note key="53" pos="288" pan="0" len="96" vol="59" />
          <note key="60" pos="384" pan="0" len="96" vol="59" />
          <note key="57" pos="480" pan="0" len="96" vol="59" />
          <note key="58" pos="576" pan="0" len="96" vol="59" />
          <note key="62" pos="672" pan="0" len="96" vol="59" />
          <note key="58" pos="768" pan="0" len="96" vol="59" />
          <note key="60" pos="864" pan="0" len="96" vol="59" />
          <note key="55" pos="960" pan="0" len="96" vol="59" />
          <note key="53" pos="1056" pan="0" len="96" vol="59" />
          <note key="60" pos="1152" pan="0" len="96" vol="59" />
          <note key="57" pos="1248" pan="0" len="96" vol="59" />
          <note key="58" pos="1344" pan="0" len="96" vol="59" />
          <note key="62" pos="1440" pan="0" len="96" vol="59" />
        </pattern>
        <pattern pos="125196" muted="0" steps="16" name="" type="1">
          <note key="67" pos="0" pan="0" len="192" vol="50" />
          <note key="65" pos="192" pan="0" len="96" vol="50" />
          <note key="63" pos="288" pan="0" len="96" vol="50" />
          <note key="67" pos="384" pan="0" len="192" vol="50" />
          <note key="65" pos="576" pan="0" len="96" vol="50" />
          <note key="63" pos="672" pan="0" len="96" vol="50" />
        </pattern>
        <pattern pos="125964" muted="0" steps="16" name="" type="1">
          <note key="63" pos="0" pan="0" len="96" vol="50" />
          <note key="62" pos="96" pan="0" len="96" vol="50" />
          <note key="60" pos="192" pan="0" len="96" vol="50" />
          <note key="58" pos="288" pan="0" len="96" vol="50" />
          <note key="63" pos="384" pan="0" len="96" vol="50" />
          <note key="65" pos="480" pan="0" len="96" vol="50" />
          <note key="60" pos="576" pan="0" len="96" vol="50" />
          <note key="63" pos="672" pan="0" len="96" vol="50" />
          <note key="63" pos="768" pan="0" len="96" vol="50" />
          <note key="62" pos="864" pan="0" len="96" vol="50" />
          <note key="60" pos="960" pan="0" len="96" vol="50" />
          <note key="58" pos="1056" pan="0" len="96" vol="50" />
          <note key="63" pos="1152" pan="0" len="96" vol="50" />
          <note key="65" pos="1248" pan="0" len="96" vol="50" />
          <note key="60" pos="1344" pan="0" len="120" vol="50" />
        </pattern>
        <pattern pos="129036" muted="0" steps="16" name="" type="1">
          <note key="63" pos="0" pan="0" len="96" vol="50" />
          <note key="62" pos="96" pan="0" len="96" vol="50" />
          <note key="60" pos="192" pan="0" len="96" vol="50" />
          <note key="58" pos="288" pan="0" len="96" vol="50" />
          <note key="63" pos="384" pan="0" len="96" vol="50" />
          <note key="65" pos="480" pan="0" len="96" vol="50" />
          <note key="60" pos="576" pan="0" len="96" vol="50" />
          <note key="58" pos="672" pan="0" len="24" vol="100" />
          <note key="63" pos="768" pan="0" len="96" vol="50" />
          <note key="62" pos="864" pan="0" len="96" vol="50" />
          <note key="60" pos="960" pan="0" len="96" vol="50" />
          <note key="58" pos="1056" pan="0" len="96" vol="50" />
          <note key="63" pos="1152" pan="0" len="96" vol="50" />
          <note key="65" pos="1248" pan="0" len="96" vol="50" />
          <note key="60" pos="1344" pan="0" len="120" vol="50" />
        </pattern>
        <pattern pos="130572" muted="0" steps="16" name="" type="1">
          <note key="55" pos="0" pan="0" len="432" vol="33" />
          <note key="55" pos="768" pan="0" len="432" vol="33" />
        </pattern>
        <pattern pos="144396" muted="0" steps="16" name="" type="1">
          <note key="48" pos="192" pan="0" len="384" vol="100" />
          <note key="56" pos="576" pan="0" len="192" vol="0" />
        </pattern>
        <pattern pos="145932" muted="0" steps="16" name="" type="1">
          <note key="51" pos="576" pan="0" len="372" vol="100" />
          <note key="58" pos="948" pan="0" len="396" vol="100" />
          <note key="51" pos="1344" pan="0" len="192" vol="100" />
        </pattern>
        <pattern pos="153612" muted="0" steps="16" name="" type="1">
          <note key="51" pos="576" pan="0" len="372" vol="100" />
          <note key="58" pos="948" pan="0" len="396" vol="100" />
          <note key="51" pos="1344" pan="0" len="192" vol="100" />
        </pattern>
        <pattern pos="155148" muted="0" steps="16" name="" type="1">
          <note key="49" pos="0" pan="0" len="144" vol="100" />
          <note key="51" pos="180" pan="0" len="144" vol="100" />
          <note key="44" pos="372" pan="0" len="396" vol="100" />
          <note key="49" pos="768" pan="0" len="372" vol="100" />
          <note key="56" pos="1140" pan="0" len="396" vol="100" />
        </pattern>
        <pattern pos="174348" muted="0" steps="16" name="" type="1">
          <note key="45" pos="0" pan="0" len="1536" vol="50" />
        </pattern>
        <pattern pos="227340" muted="0" steps="16" name="" type="1">
          <note key="66" pos="0" pan="0" len="192" vol="100" />
          <note key="63" pos="192" pan="0" len="192" vol="100" />
          <note key="65" pos="384" pan="0" len="192" vol="100" />
          <note key="61" pos="576" pan="0" len="192" vol="100" />
          <note key="63" pos="768" pan="0" len="192" vol="100" />
          <note key="59" pos="960" pan="0" len="192" vol="100" />
          <note key="56" pos="1152" pan="0" len="156" vol="100" />
        </pattern>
        <pattern pos="228876" muted="0" steps="16" name="" type="1">
          <note key="63" pos="0" pan="0" len="192" vol="100" />
          <note key="60" pos="192" pan="0" len="192" vol="100" />
          <note key="62" pos="384" pan="0" len="192" vol="100" />
          <note key="58" pos="576" pan="0" len="192" vol="100" />
          <note key="60" pos="768" pan="0" len="192" vol="100" />
          <note key="56" pos="960" pan="0" len="192" vol="100" />
          <note key="53" pos="1152" pan="0" len="192" vol="100" />
          <note key="62" pos="1344" pan="0" len="192" vol="100" />
        </pattern>
      </track>
      <track solo="0" name="52 (Ch5)" type="0" muted="0">
        <instrumenttrack usemasterpitch="1" pitch="0.0" basenote="57" pan="0" pitchrange="12" vol="30">
          <eldata />
          <instrument name="tripleoscillator" />
        </instrumenttrack>
        <pattern pos="245004" muted="0" steps="16" name="" type="1">
          <note key="49" pos="0" pan="0" len="96" vol="100" />
          <note key="52" pos="192" pan="0" len="96" vol="100" />
          <note key="58" pos="384" pan="0" len="96" vol="100" />
          <note key="49" pos="576" pan="0" len="96" vol="100" />
          <note key="49" pos="768" pan="0" len="96" vol="100" />
          <note key="52" pos="960" pan="0" len="96" vol="100" />
          <note key="58" pos="1152" pan="0" len="96" vol="100" />
          <note key="49" pos="1344" pan="0" len="96" vol="100" />
        </pattern>
        <pattern pos="101376" muted="0" steps="16" name="" type="1">
          <note key="62" pos="0" pan="0" len="192" vol="100" />
          <note key="48" pos="192" pan="0" len="192" vol="100" />
          <note key="58" pos="384" pan="0" len="192" vol="100" />
          <note key="43" pos="576" pan="0" len="192" vol="100" />
          <note key="62" pos="768" pan="0" len="192" vol="100" />
          <note key="48" pos="960" pan="0" len="192" vol="100" />
          <note key="58" pos="1152" pan="0" len="192" vol="100" />
          <note key="43" pos="1344" pan="0" len="192" vol="100" />
        </pattern>
        <pattern pos="102912" muted="0" steps="16" name="" type="1">
          <note key="62" pos="0" pan="0" len="192" vol="100" />
          <note key="48" pos="192" pan="0" len="192" vol="100" />
          <note key="58" pos="384" pan="0" len="192" vol="100" />
          <note key="43" pos="576" pan="0" len="192" vol="100" />
          <note key="62" pos="768" pan="0" len="192" vol="100" />
          <note key="48" pos="960" pan="0" len="192" vol="100" />
          <note key="58" pos="1152" pan="0" len="192" vol="100" />
          <note key="43" pos="1344" pan="0" len="192" vol="100" />
        </pattern>
        <pattern pos="104448" muted="0" steps="16" name="" type="1">
          <note key="62" pos="0" pan="0" len="192" vol="100" />
          <note key="48" pos="192" pan="0" len="192" vol="100" />
          <note key="58" pos="384" pan="0" len="192" vol="100" />
          <note key="43" pos="576" pan="0" len="192" vol="100" />
          <note key="62" pos="768" pan="0" len="192" vol="100" />
          <note key="48" pos="960" pan="0" len="192" vol="100" />
          <note key="58" pos="1152" pan="0" len="192" vol="100" />
          <note key="43" pos="1344" pan="0" len="192" vol="100" />
        </pattern>
        <pattern pos="105984" muted="0" steps="16" name="" type="1">
          <note key="62" pos="0" pan="0" len="192" vol="100" />
          <note key="48" pos="192" pan="0" len="192" vol="100" />
          <note key="58" pos="384" pan="0" len="192" vol="100" />
          <note key="43" pos="576" pan="0" len="192" vol="100" />
          <note key="62" pos="768" pan="0" len="192" vol="100" />
          <note key="48" pos="960" pan="0" len="192" vol="100" />
          <note key="58" pos="1152" pan="0" len="192" vol="100" />
          <note key="43" pos="1344" pan="0" len="192" vol="100" />
        </pattern>
        <pattern pos="130572" muted="0" steps="16" name="" type="1">
          <note key="57" pos="0" pan="0" len="432" vol="33" />
          <note key="57" pos="768" pan="0" len="432" vol="33" />
        </pattern>
        <pattern pos="144396" muted="0" steps="16" name="" type="1">
          <note key="53" pos="192" pan="0" len="384" vol="100" />
          <note key="53" pos="576" pan="0" len="192" vol="0" />
        </pattern>
        <pattern pos="145932" muted="0" steps="16" name="" type="1">
          <note key="48" pos="576" pan="0" len="372" vol="100" />
          <note key="51" pos="948" pan="0" len="396" vol="100" />
          <note key="48" pos="1344" pan="0" len="192" vol="100" />
        </pattern>
        <pattern pos="153612" muted="0" steps="16" name="" type="1">
          <note key="48" pos="576" pan="0" len="372" vol="100" />
          <note key="51" pos="948" pan="0" len="396" vol="100" />
          <note key="48" pos="1344" pan="0" len="192" vol="100" />
        </pattern>
        <pattern pos="155148" muted="0" steps="16" name="" type="1">
          <note key="51" pos="0" pan="0" len="144" vol="100" />
          <note key="54" pos="180" pan="0" len="144" vol="100" />
          <note key="51" pos="372" pan="0" len="396" vol="100" />
          <note key="51" pos="768" pan="0" len="372" vol="100" />
          <note key="63" pos="1140" pan="0" len="396" vol="100" />
        </pattern>
        <pattern pos="174348" muted="0" steps="16" name="" type="1">
          <note key="53" pos="0" pan="0" len="1536" vol="50" />
        </pattern>
        <pattern pos="206604" muted="0" steps="16" name="" type="1">
          <note key="63" pos="0" pan="0" len="384" vol="59" />
          <note key="62" pos="384" pan="0" len="384" vol="59" />
          <note key="60" pos="768" pan="0" len="384" vol="59" />
          <note key="63" pos="1152" pan="0" len="192" vol="59" />
          <note key="62" pos="1344" pan="0" len="192" vol="59" />
        </pattern>
      </track>
      <track solo="0" name="52 (Ch6)" type="0" muted="0">
        <instrumenttrack usemasterpitch="1" pitch="0.0" basenote="57" pan="0" pitchrange="12" vol="30">
          <eldata />
          <instrument name="tripleoscillator" />
        </instrumenttrack>
        <pattern pos="245004" muted="0" steps="16" name="" type="1">
          <note key="56" pos="0" pan="0" len="96" vol="100" />
          <note key="59" pos="192" pan="0" len="96" vol="100" />
          <note key="54" pos="384" pan="0" len="96" vol="100" />
          <note key="56" pos="576" pan="0" len="96" vol="100" />
          <note key="56" pos="768" pan="0" len="96" vol="100" />
          <note key="59" pos="960" pan="0" len="96" vol="100" />
          <note key="54" pos="1152" pan="0" len="96" vol="100" />
          <note key="56" pos="1344" pan="0" len="96" vol="100" />
        </pattern>
        <pattern pos="101376" muted="0" steps="16" name="" type="1">
          <note key="50" pos="0" pan="0" len="192" vol="100" />
          <note key="52" pos="192" pan="0" len="192" vol="100" />
          <note key="53" pos="384" pan="0" len="192" vol="100" />
          <note key="52" pos="576" pan="0" len="192" vol="100" />
          <note key="50" pos="768" pan="0" len="192" vol="100" />
          <note key="52" pos="960" pan="0" len="192" vol="100" />
          <note key="53" pos="1152" pan="0" len="192" vol="100" />
          <note key="52" pos="1344" pan="0" len="192" vol="100" />
        </pattern>
        <pattern pos="102912" muted="0" steps="16" name="" type="1">
          <note key="50" pos="0" pan="0" len="192" vol="100" />
          <note key="52" pos="192" pan="0" len="192" vol="100" />
          <note key="53" pos="384" pan="0" len="192" vol="100" />
          <note key="52" pos="576" pan="0" len="192" vol="100" />
          <note key="50" pos="768" pan="0" len="192" vol="100" />
          <note key="52" pos="960" pan="0" len="192" vol="100" />
          <note key="53" pos="1152" pan="0" len="192" vol="100" />
          <note key="52" pos="1344" pan="0" len="192" vol="100" />
        </pattern>
        <pattern pos="104448" muted="0" steps="16" name="" type="1">
          <note key="50" pos="0" pan="0" len="192" vol="100" />
          <note key="52" pos="192" pan="0" len="192" vol="100" />
          <note key="53" pos="384" pan="0" len="192" vol="100" />
          <note key="52" pos="576" pan="0" len="192" vol="100" />
          <note key="50" pos="768" pan="0" len="192" vol="100" />
          <note key="52" pos="960" pan="0" len="192" vol="100" />
          <note key="53" pos="1152" pan="0" len="192" vol="100" />
          <note key="52" pos="1344" pan="0" len="192" vol="100" />
        </pattern>
        <pattern pos="105984" muted="0" steps="16" name="" type="1">
          <note key="50" pos="0" pan="0" len="192" vol="100" />
          <note key="52" pos="192" pan="0" len="192" vol="100" />
          <note key="53" pos="384" pan="0" len="192" vol="100" />
          <note key="52" pos="576" pan="0" len="192" vol="100" />
          <note key="50" pos="768" pan="0" len="192" vol="100" />
          <note key="52" pos="960" pan="0" len="192" vol="100" />
          <note key="53" pos="1152" pan="0" len="192" vol="100" />
          <note key="52" pos="1344" pan="0" len="192" vol="100" />
        </pattern>
        <pattern pos="130572" muted="0" steps="16" name="" type="1">
          <note key="58" pos="0" pan="0" len="432" vol="33" />
          <note key="58" pos="768" pan="0" len="432" vol="33" />
        </pattern>
        <pattern pos="144396" muted="0" steps="16" name="" type="1">
          <note key="50" pos="192" pan="0" len="384" vol="100" />
          <note key="49" pos="576" pan="0" len="192" vol="0" />
        </pattern>
        <pattern pos="145932" muted="0" steps="16" name="" type="1">
          <note key="44" pos="576" pan="0" len="372" vol="100" />
          <note key="54" pos="948" pan="0" len="396" vol="100" />
          <note key="44" pos="1344" pan="0" len="192" vol="100" />
        </pattern>
        <pattern pos="153612" muted="0" steps="16" name="" type="1">
          <note key="44" pos="576" pan="0" len="372" vol="100" />
          <note key="54" pos="948" pan="0" len="396" vol="100" />
          <note key="44" pos="1344" pan="0" len="192" vol="100" />
        </pattern>
        <pattern pos="155148" muted="0" steps="16" name="" type="1">
          <note key="51" pos="576" pan="0" len="372" vol="100" />
          <note key="58" pos="948" pan="0" len="396" vol="100" />
          <note key="51" pos="1344" pan="0" len="192" vol="100" />
        </pattern>
        <pattern pos="174348" muted="0" steps="16" name="" type="1">
          <note key="55" pos="0" pan="0" len="1536" vol="50" />
        </pattern>
        <pattern pos="201996" muted="0" steps="16" name="" type="1">
          <note key="62" pos="0" pan="0" len="384" vol="34" />
          <note key="60" pos="384" pan="0" len="384" vol="34" />
          <note key="58" pos="768" pan="0" len="384" vol="34" />
          <note key="57" pos="1152" pan="0" len="192" vol="34" />
          <note key="55" pos="1344" pan="0" len="192" vol="34" />
        </pattern>
      </track>
      <track solo="0" name="52 (Ch7)" type="0" muted="0">
        <instrumenttrack usemasterpitch="1" pitch="0.0" basenote="57" pan="0" pitchrange="12" vol="30">
          <eldata />
          <instrument name="tripleoscillator" />
        </instrumenttrack>
        <pattern pos="248076" muted="0" steps="16" name="" type="1">
          <note key="46" pos="0" pan="0" len="144" vol="16" />
        </pattern>
        <pattern pos="101376" muted="0" steps="16" name="" type="1">
          <note key="57" pos="0" pan="0" len="192" vol="100" />
          <note key="55" pos="192" pan="0" len="192" vol="100" />
          <note key="50" pos="384" pan="0" len="192" vol="100" />
          <note key="50" pos="576" pan="0" len="192" vol="100" />
          <note key="57" pos="768" pan="0" len="192" vol="100" />
          <note key="55" pos="960" pan="0" len="192" vol="100" />
          <note key="50" pos="1152" pan="0" len="192" vol="100" />
          <note key="50" pos="1344" pan="0" len="192" vol="100" />
        </pattern>
        <pattern pos="102912" muted="0" steps="16" name="" type="1">
          <note key="57" pos="0" pan="0" len="192" vol="100" />
          <note key="55" pos="192" pan="0" len="192" vol="100" />
          <note key="50" pos="384" pan="0" len="192" vol="100" />
          <note key="50" pos="576" pan="0" len="192" vol="100" />
          <note key="57" pos="768" pan="0" len="192" vol="100" />
          <note key="55" pos="960" pan="0" len="192" vol="100" />
          <note key="50" pos="1152" pan="0" len="192" vol="100" />
          <note key="50" pos="1344" pan="0" len="192" vol="100" />
        </pattern>
        <pattern pos="104448" muted="0" steps="16" name="" type="1">
          <note key="57" pos="0" pan="0" len="192" vol="100" />
          <note key="55" pos="192" pan="0" len="192" vol="100" />
          <note key="50" pos="384" pan="0" len="192" vol="100" />
          <note key="50" pos="576" pan="0" len="192" vol="100" />
          <note key="57" pos="768" pan="0" len="192" vol="100" />
          <note key="55" pos="960" pan="0" len="192" vol="100" />
          <note key="50" pos="1152" pan="0" len="192" vol="100" />
          <note key="50" pos="1344" pan="0" len="192" vol="100" />
        </pattern>
        <pattern pos="105984" muted="0" steps="16" name="" type="1">
          <note key="57" pos="0" pan="0" len="192" vol="100" />
          <note key="55" pos="192" pan="0" len="192" vol="100" />
          <note key="50" pos="384" pan="0" len="192" vol="100" />
          <note key="50" pos="576" pan="0" len="192" vol="100" />
          <note key="57" pos="768" pan="0" len="192" vol="100" />
          <note key="55" pos="960" pan="0" len="192" vol="100" />
          <note key="50" pos="1152" pan="0" len="192" vol="100" />
          <note key="50" pos="1344" pan="0" len="192" vol="100" />
        </pattern>
        <pattern pos="147468" muted="0" steps="16" name="" type="1">
          <note key="52" pos="960" pan="0" len="384" vol="78" />
          <note key="45" pos="1344" pan="0" len="192" vol="78" />
        </pattern>
        <pattern pos="149004" muted="0" steps="16" name="" type="1">
          <note key="52" pos="960" pan="0" len="384" vol="78" />
          <note key="45" pos="1344" pan="0" len="192" vol="78" />
        </pattern>
        <pattern pos="155148" muted="0" steps="16" name="" type="1">
          <note key="48" pos="576" pan="0" len="372" vol="100" />
          <note key="51" pos="948" pan="0" len="396" vol="100" />
          <note key="48" pos="1344" pan="0" len="192" vol="100" />
        </pattern>
        <pattern pos="186636" muted="0" steps="16" name="" type="1">
          <note key="59" pos="0" pan="0" len="192" vol="100" />
          <note key="67" pos="192" pan="0" len="96" vol="100" />
          <note key="62" pos="288" pan="0" len="96" vol="100" />
          <note key="64" pos="384" pan="0" len="192" vol="100" />
          <note key="62" pos="576" pan="0" len="96" vol="100" />
          <note key="57" pos="672" pan="0" len="96" vol="100" />
        </pattern>
        <pattern pos="191244" muted="0" steps="16" name="" type="1">
          <note key="45" pos="0" pan="0" len="72" vol="100" />
          <note key="49" pos="72" pan="0" len="72" vol="100" />
          <note key="49" pos="144" pan="0" len="48" vol="100" />
          <note key="49" pos="192" pan="0" len="72" vol="100" />
          <note key="45" pos="768" pan="0" len="72" vol="100" />
          <note key="49" pos="840" pan="0" len="72" vol="100" />
          <note key="49" pos="912" pan="0" len="48" vol="100" />
          <note key="49" pos="960" pan="0" len="72" vol="100" />
        </pattern>
        <pattern pos="192780" muted="0" steps="16" name="" type="1">
          <note key="59" pos="0" pan="0" len="192" vol="100" />
          <note key="67" pos="192" pan="0" len="96" vol="100" />
          <note key="62" pos="288" pan="0" len="96" vol="100" />
          <note key="64" pos="384" pan="0" len="192" vol="100" />
          <note key="62" pos="576" pan="0" len="96" vol="100" />
          <note key="57" pos="672" pan="0" len="96" vol="100" />
        </pattern>
        <pattern pos="195852" muted="0" steps="16" name="" type="1">
          <note key="45" pos="0" pan="0" len="72" vol="100" />
          <note key="49" pos="72" pan="0" len="72" vol="100" />
          <note key="49" pos="144" pan="0" len="48" vol="100" />
          <note key="49" pos="192" pan="0" len="72" vol="100" />
          <note key="45" pos="768" pan="0" len="72" vol="100" />
          <note key="49" pos="840" pan="0" len="72" vol="100" />
          <note key="49" pos="912" pan="0" len="48" vol="100" />
          <note key="49" pos="960" pan="0" len="72" vol="100" />
        </pattern>
        <pattern pos="200460" muted="0" steps="16" name="" type="1">
          <note key="49" pos="72" pan="0" len="72" vol="100" />
        </pattern>
        <pattern pos="201996" muted="0" steps="16" name="" type="1">
          <note key="65" pos="0" pan="0" len="384" vol="34" />
          <note key="64" pos="384" pan="0" len="384" vol="34" />
          <note key="62" pos="768" pan="0" len="384" vol="34" />
          <note key="62" pos="1152" pan="0" len="192" vol="34" />
          <note key="60" pos="1344" pan="0" len="192" vol="34" />
        </pattern>
        <pattern pos="245004" muted="0" steps="16" name="" type="1">
          <note key="54" pos="0" pan="0" len="96" vol="100" />
          <note key="54" pos="192" pan="0" len="96" vol="100" />
          <note key="49" pos="384" pan="0" len="96" vol="100" />
          <note key="59" pos="576" pan="0" len="96" vol="100" />
          <note key="54" pos="768" pan="0" len="96" vol="100" />
          <note key="54" pos="960" pan="0" len="96" vol="100" />
          <note key="49" pos="1152" pan="0" len="96" vol="100" />
          <note key="59" pos="1344" pan="0" len="96" vol="100" />
        </pattern>
      </track>
      <track solo="0" name="52 (Ch8)" type="0" muted="0">
        <instrumenttrack usemasterpitch="1" pitch="0.0" basenote="57" pan="0" pitchrange="12" vol="30">
          <eldata />
          <instrument name="tripleoscillator" />
        </instrumenttrack>
        <pattern pos="248076" muted="0" steps="16" name="" type="1">
          <note key="53" pos="0" pan="0" len="144" vol="16" />
        </pattern>
        <pattern pos="147468" muted="0" steps="16" name="" type="1">
          <note key="57" pos="576" pan="0" len="384" vol="75" />
          <note key="40" pos="960" pan="0" len="384" vol="78" />
          <note key="49" pos="1344" pan="0" len="192" vol="78" />
        </pattern>
        <pattern pos="149004" muted="0" steps="16" name="" type="1">
          <note key="57" pos="576" pan="0" len="384" vol="75" />
          <note key="40" pos="960" pan="0" len="384" vol="78" />
          <note key="49" pos="1344" pan="0" len="192" vol="78" />
        </pattern>
        <pattern pos="155148" muted="0" steps="16" name="" type="1">
          <note key="44" pos="576" pan="0" len="372" vol="100" />
          <note key="54" pos="948" pan="0" len="396" vol="100" />
          <note key="44" pos="1344" pan="0" len="192" vol="100" />
        </pattern>
        <pattern pos="191244" muted="0" steps="16" name="" type="1">
          <note key="47" pos="0" pan="0" len="72" vol="100" />
          <note key="52" pos="72" pan="0" len="72" vol="100" />
          <note key="52" pos="144" pan="0" len="48" vol="100" />
          <note key="52" pos="192" pan="0" len="72" vol="100" />
          <note key="47" pos="768" pan="0" len="72" vol="100" />
          <note key="52" pos="840" pan="0" len="72" vol="100" />
          <note key="52" pos="912" pan="0" len="48" vol="100" />
          <note key="52" pos="960" pan="0" len="72" vol="100" />
        </pattern>
        <pattern pos="195852" muted="0" steps="16" name="" type="1">
          <note key="47" pos="0" pan="0" len="72" vol="100" />
          <note key="52" pos="72" pan="0" len="72" vol="100" />
          <note key="52" pos="144" pan="0" len="48" vol="100" />
          <note key="52" pos="192" pan="0" len="72" vol="100" />
          <note key="47" pos="768" pan="0" len="72" vol="100" />
          <note key="52" pos="840" pan="0" len="72" vol="100" />
          <note key="52" pos="912" pan="0" len="48" vol="100" />
          <note key="52" pos="960" pan="0" len="72" vol="100" />
        </pattern>
        <pattern pos="200460" muted="0" steps="16" name="" type="1">
          <note key="59" pos="0" pan="0" len="72" vol="100" />
          <note key="64" pos="72" pan="0" len="72" vol="100" />
        </pattern>
        <pattern pos="201996" muted="0" steps="16" name="" type="1">
          <note key="69" pos="0" pan="0" len="384" vol="34" />
          <note key="69" pos="384" pan="0" len="384" vol="34" />
          <note key="67" pos="768" pan="0" len="384" vol="34" />
          <note key="65" pos="1152" pan="0" len="192" vol="34" />
          <note key="64" pos="1344" pan="0" len="192" vol="34" />
        </pattern>
        <pattern pos="222732" muted="0" steps="16" name="" type="1">
          <note key="58" pos="768" pan="0" len="192" vol="100" />
          <note key="65" pos="960" pan="0" len="96" vol="100" />
          <note key="68" pos="1056" pan="0" len="96" vol="100" />
          <note key="70" pos="1152" pan="0" len="192" vol="100" />
          <note key="65" pos="1344" pan="0" len="96" vol="100" />
          <note key="60" pos="1440" pan="0" len="96" vol="100" />
        </pattern>
        <pattern pos="225804" muted="0" steps="16" name="" type="1">
          <note key="58" pos="768" pan="0" len="192" vol="100" />
          <note key="65" pos="960" pan="0" len="96" vol="100" />
          <note key="68" pos="1056" pan="0" len="96" vol="100" />
          <note key="70" pos="1152" pan="0" len="192" vol="100" />
          <note key="65" pos="1344" pan="0" len="96" vol="100" />
          <note key="60" pos="1440" pan="0" len="96" vol="100" />
        </pattern>
        <pattern pos="231948" muted="0" steps="16" name="" type="1">
          <note key="58" pos="768" pan="0" len="192" vol="100" />
          <note key="65" pos="960" pan="0" len="96" vol="100" />
          <note key="68" pos="1056" pan="0" len="96" vol="100" />
          <note key="70" pos="1152" pan="0" len="192" vol="100" />
          <note key="65" pos="1344" pan="0" len="96" vol="100" />
          <note key="60" pos="1440" pan="0" len="96" vol="100" />
        </pattern>
        <pattern pos="245004" muted="0" steps="16" name="" type="1">
          <note key="61" pos="0" pan="0" len="96" vol="100" />
          <note key="61" pos="192" pan="0" len="96" vol="100" />
          <note key="61" pos="384" pan="0" len="96" vol="100" />
          <note key="63" pos="576" pan="0" len="96" vol="100" />
          <note key="61" pos="768" pan="0" len="96" vol="100" />
          <note key="61" pos="960" pan="0" len="96" vol="100" />
          <note key="61" pos="1152" pan="0" len="96" vol="100" />
          <note key="63" pos="1344" pan="0" len="96" vol="100" />
        </pattern>
      </track>
      <track solo="0" name="52 (Ch9)" type="0" muted="0">
        <instrumenttrack usemasterpitch="1" pitch="0.0" basenote="57" pan="0" pitchrange="12" vol="30">
          <eldata />
          <instrument name="tripleoscillator" />
        </instrumenttrack>
        <pattern pos="258060" muted="0" steps="16" name="" type="1">
          <note key="50" pos="1152" pan="0" len="288" vol="69" />
          <note key="52" pos="1440" pan="0" len="192" vol="86" />
          <note key="52" pos="1632" pan="0" len="96" vol="69" />
          <note key="46" pos="1728" pan="0" len="252" vol="34" />
        </pattern>
        <pattern pos="16896" muted="0" steps="16" name="" type="1">
          <note key="72" pos="0" pan="0" len="192" vol="100" />
          <note key="67" pos="192" pan="0" len="192" vol="100" />
          <note key="70" pos="384" pan="0" len="192" vol="100" />
          <note key="65" pos="576" pan="0" len="192" vol="100" />
          <note key="63" pos="768" pan="0" len="192" vol="100" />
          <note key="60" pos="960" pan="0" len="192" vol="100" />
          <note key="67" pos="1152" pan="0" len="192" vol="100" />
          <note key="70" pos="1344" pan="0" len="96" vol="100" />
          <note key="74" pos="1440" pan="0" len="96" vol="100" />
        </pattern>
        <pattern pos="21504" muted="0" steps="16" name="" type="1">
          <note key="75" pos="0" pan="0" len="288" vol="100" />
          <note key="73" pos="288" pan="0" len="96" vol="100" />
          <note key="70" pos="384" pan="0" len="192" vol="100" />
          <note key="68" pos="576" pan="0" len="96" vol="100" />
          <note key="70" pos="672" pan="0" len="96" vol="100" />
          <note key="75" pos="768" pan="0" len="288" vol="100" />
          <note key="73" pos="1056" pan="0" len="96" vol="100" />
          <note key="70" pos="1152" pan="0" len="192" vol="100" />
          <note key="68" pos="1344" pan="0" len="96" vol="100" />
          <note key="70" pos="1440" pan="0" len="96" vol="100" />
        </pattern>
        <pattern pos="23040" muted="0" steps="16" name="" type="1">
          <note key="75" pos="0" pan="0" len="288" vol="100" />
          <note key="73" pos="288" pan="0" len="96" vol="100" />
          <note key="70" pos="384" pan="0" len="192" vol="100" />
          <note key="68" pos="576" pan="0" len="96" vol="100" />
          <note key="70" pos="672" pan="0" len="96" vol="100" />
          <note key="75" pos="768" pan="0" len="288" vol="100" />
          <note key="73" pos="1056" pan="0" len="96" vol="100" />
          <note key="70" pos="1152" pan="0" len="192" vol="100" />
          <note key="68" pos="1344" pan="0" len="96" vol="100" />
          <note key="70" pos="1440" pan="0" len="96" vol="100" />
        </pattern>
        <pattern pos="139788" muted="0" steps="16" name="" type="1">
          <note key="50" pos="0" pan="0" len="432" vol="50" />
          <note key="50" pos="768" pan="0" len="192" vol="50" />
          <note key="48" pos="960" pan="0" len="240" vol="50" />
        </pattern>
        <pattern pos="147468" muted="0" steps="16" name="" type="1">
          <note key="56" pos="576" pan="0" len="384" vol="75" />
          <note key="47" pos="960" pan="0" len="384" vol="0" />
          <note key="52" pos="1344" pan="0" len="192" vol="0" />
        </pattern>
        <pattern pos="149004" muted="0" steps="16" name="" type="1">
          <note key="56" pos="576" pan="0" len="384" vol="75" />
          <note key="47" pos="960" pan="0" len="384" vol="0" />
          <note key="52" pos="1344" pan="0" len="192" vol="0" />
        </pattern>
        <pattern pos="158988" muted="0" steps="16" name="" type="1">
          <note key="55" pos="0" pan="0" len="384" vol="0" />
          <note key="56" pos="384" pan="0" len="384" vol="0" />
          <note key="55" pos="768" pan="0" len="384" vol="0" />
          <note key="56" pos="1152" pan="0" len="384" vol="0" />
        </pattern>
        <pattern pos="160524" muted="0" steps="16" name="" type="1">
          <note key="63" pos="0" pan="0" len="384" vol="0" />
          <note key="64" pos="384" pan="0" len="384" vol="0" />
          <note key="57" pos="768" pan="0" len="384" vol="0" />
          <note key="58" pos="1152" pan="0" len="384" vol="0" />
        </pattern>
        <pattern pos="162060" muted="0" steps="16" name="" type="1">
          <note key="55" pos="0" pan="0" len="384" vol="0" />
          <note key="56" pos="384" pan="0" len="384" vol="0" />
          <note key="55" pos="768" pan="0" len="384" vol="0" />
          <note key="56" pos="1152" pan="0" len="384" vol="0" />
        </pattern>
        <pattern pos="191244" muted="0" steps="16" name="" type="1">
          <note key="50" pos="0" pan="0" len="72" vol="100" />
          <note key="56" pos="72" pan="0" len="72" vol="100" />
          <note key="57" pos="144" pan="0" len="48" vol="100" />
          <note key="59" pos="192" pan="0" len="72" vol="100" />
          <note key="50" pos="768" pan="0" len="72" vol="100" />
          <note key="56" pos="840" pan="0" len="72" vol="100" />
          <note key="57" pos="912" pan="0" len="48" vol="100" />
          <note key="59" pos="960" pan="0" len="72" vol="100" />
        </pattern>
        <pattern pos="195852" muted="0" steps="16" name="" type="1">
          <note key="50" pos="0" pan="0" len="72" vol="100" />
          <note key="56" pos="72" pan="0" len="72" vol="100" />
          <note key="57" pos="144" pan="0" len="48" vol="100" />
          <note key="59" pos="192" pan="0" len="72" vol="100" />
          <note key="50" pos="768" pan="0" len="72" vol="100" />
          <note key="56" pos="840" pan="0" len="72" vol="100" />
          <note key="57" pos="912" pan="0" len="48" vol="100" />
          <note key="59" pos="960" pan="0" len="72" vol="100" />
        </pattern>
        <pattern pos="248076" muted="0" steps="16" name="" type="1">
          <note key="56" pos="0" pan="0" len="144" vol="16" />
        </pattern>
        <pattern pos="253452" muted="0" steps="16" name="" type="1">
          <note key="50" pos="0" pan="0" len="288" vol="36" />
          <note key="48" pos="288" pan="0" len="288" vol="36" />
          <note key="55" pos="576" pan="0" len="288" vol="36" />
          <note key="62" pos="864" pan="0" len="288" vol="36" />
          <note key="50" pos="1152" pan="0" len="288" vol="36" />
          <note key="60" pos="1440" pan="0" len="144" vol="36" />
          <note key="53" pos="1584" pan="0" len="144" vol="36" />
          <note key="55" pos="1728" pan="0" len="432" vol="36" />
        </pattern>
        <pattern pos="255756" muted="0" steps="16" name="" type="1">
          <note key="50" pos="0" pan="0" len="288" vol="36" />
          <note key="48" pos="288" pan="0" len="288" vol="36" />
          <note key="55" pos="576" pan="0" len="288" vol="36" />
          <note key="62" pos="864" pan="0" len="288" vol="36" />
          <note key="50" pos="1152" pan="0" len="288" vol="36" />
          <note key="60" pos="1440" pan="0" len="144" vol="36" />
          <note key="53" pos="1584" pan="0" len="144" vol="36" />
          <note key="55" pos="1728" pan="0" len="432" vol="36" />
        </pattern>
      </track>
      <track solo="0" name="52 (Ch10)" type="0" muted="0">
        <instrumenttrack usemasterpitch="1" pitch="0.0" basenote="57" pan="0" pitchrange="12" vol="30">
          <eldata />
          <instrument name="tripleoscillator" />
        </instrumenttrack>
        <pattern pos="279900" muted="0" steps="16" name="" type="1">
          <note key="51" pos="0" pan="0" len="72" vol="100" />
          <note key="58" pos="72" pan="0" len="72" vol="100" />
          <note key="63" pos="144" pan="0" len="24" vol="100" />
        </pattern>
        <pattern pos="0" muted="0" steps="16" name="" type="1">
          <note key="60" pos="384" pan="0" len="180" vol="34" />
        </pattern>
        <pattern pos="98304" muted="0" steps="16" name="" type="1">
          <note key="50" pos="0" pan="0" len="576" vol="100" />
          <note key="48" pos="576" pan="0" len="192" vol="100" />
          <note key="50" pos="768" pan="0" len="576" vol="100" />
          <note key="48" pos="1344" pan="0" len="192" vol="100" />
        </pattern>
        <pattern pos="99840" muted="0" steps="16" name="" type="1">
          <note key="50" pos="0" pan="0" len="576" vol="100" />
          <note key="48" pos="576" pan="0" len="192" vol="100" />
          <note key="50" pos="768" pan="0" len="576" vol="100" />
          <note key="48" pos="1344" pan="0" len="192" vol="100" />
        </pattern>
        <pattern pos="139788" muted="0" steps="16" name="" type="1">
          <note key="55" pos="0" pan="0" len="432" vol="50" />
          <note key="55" pos="768" pan="0" len="192" vol="50" />
          <note key="50" pos="960" pan="0" len="240" vol="50" />
        </pattern>
        <pattern pos="147468" muted="0" steps="16" name="" type="1">
          <note key="50" pos="576" pan="0" len="384" vol="75" />
        </pattern>
        <pattern pos="149004" muted="0" steps="16" name="" type="1">
          <note key="50" pos="576" pan="0" len="384" vol="75" />
        </pattern>
        <pattern pos="158988" muted="0" steps="16" name="" type="1">
          <note key="60" pos="0" pan="0" len="384" vol="0" />
          <note key="58" pos="384" pan="0" len="384" vol="0" />
          <note key="60" pos="768" pan="0" len="384" vol="0" />
          <note key="58" pos="1152" pan="0" len="384" vol="0" />
        </pattern>
        <pattern pos="160524" muted="0" steps="16" name="" type="1">
          <note key="68" pos="0" pan="0" len="384" vol="0" />
          <note key="66" pos="384" pan="0" len="384" vol="0" />
          <note key="62" pos="768" pan="0" len="384" vol="0" />
          <note key="60" pos="1152" pan="0" len="384" vol="0" />
        </pattern>
        <pattern pos="162060" muted="0" steps="16" name="" type="1">
          <note key="60" pos="0" pan="0" len="384" vol="0" />
          <note key="58" pos="384" pan="0" len="384" vol="0" />
          <note key="60" pos="768" pan="0" len="384" vol="0" />
          <note key="58" pos="1152" pan="0" len="384" vol="0" />
        </pattern>
        <pattern pos="220428" muted="0" steps="16" name="" type="1">
          <note key="59" pos="144" pan="0" len="168" vol="100" />
        </pattern>
        <pattern pos="237324" muted="0" steps="16" name="" type="1">
          <note key="58" pos="0" pan="0" len="1044" vol="0" />
        </pattern>
        <pattern pos="248076" muted="0" steps="16" name="" type="1">
          <note key="58" pos="0" pan="0" len="144" vol="16" />
        </pattern>
        <pattern pos="253452" muted="0" steps="16" name="" type="1">
          <note key="55" pos="0" pan="0" len="288" vol="36" />
          <note key="53" pos="288" pan="0" len="288" vol="36" />
          <note key="58" pos="576" pan="0" len="216" vol="36" />
          <note key="57" pos="792" pan="0" len="72" vol="36" />
          <note key="53" pos="864" pan="0" len="288" vol="36" />
          <note key="55" pos="1152" pan="0" len="288" vol="36" />
          <note key="53" pos="1440" pan="0" len="144" vol="36" />
          <note key="57" pos="1584" pan="0" len="144" vol="36" />
          <note key="58" pos="1728" pan="0" len="432" vol="36" />
        </pattern>
        <pattern pos="255756" muted="0" steps="16" name="" type="1">
          <note key="55" pos="0" pan="0" len="288" vol="36" />
          <note key="53" pos="288" pan="0" len="288" vol="36" />
          <note key="58" pos="576" pan="0" len="216" vol="36" />
          <note key="57" pos="792" pan="0" len="72" vol="36" />
          <note key="53" pos="864" pan="0" len="288" vol="36" />
          <note key="55" pos="1152" pan="0" len="288" vol="36" />
          <note key="53" pos="1440" pan="0" len="144" vol="36" />
          <note key="57" pos="1584" pan="0" len="144" vol="36" />
          <note key="58" pos="1728" pan="0" len="432" vol="36" />
        </pattern>
        <pattern pos="258060" muted="0" steps="16" name="" type="1">
          <note key="53" pos="1152" pan="0" len="288" vol="69" />
          <note key="55" pos="1440" pan="0" len="192" vol="86" />
          <note key="55" pos="1632" pan="0" len="96" vol="69" />
          <note key="50" pos="1728" pan="0" len="252" vol="34" />
        </pattern>
        <pattern pos="262668" muted="0" steps="16" name="" type="1">
          <note key="50" pos="0" pan="0" len="288" vol="36" />
          <note key="48" pos="288" pan="0" len="288" vol="36" />
          <note key="55" pos="576" pan="0" len="288" vol="36" />
          <note key="62" pos="864" pan="0" len="288" vol="36" />
          <note key="50" pos="1152" pan="0" len="288" vol="36" />
          <note key="60" pos="1440" pan="0" len="144" vol="36" />
          <note key="53" pos="1584" pan="0" len="144" vol="36" />
          <note key="55" pos="1728" pan="0" len="432" vol="36" />
        </pattern>
        <pattern pos="264972" muted="0" steps="16" name="" type="1">
          <note key="50" pos="0" pan="0" len="288" vol="36" />
          <note key="48" pos="288" pan="0" len="288" vol="36" />
          <note key="55" pos="576" pan="0" len="288" vol="36" />
          <note key="62" pos="864" pan="0" len="288" vol="36" />
          <note key="50" pos="1152" pan="0" len="288" vol="36" />
          <note key="60" pos="1440" pan="0" len="144" vol="36" />
          <note key="53" pos="1584" pan="0" len="144" vol="36" />
          <note key="55" pos="1728" pan="0" len="432" vol="36" />
        </pattern>
        <pattern pos="271692" muted="0" steps="16" name="" type="1">
          <note key="52" pos="0" pan="0" len="288" vol="16" />
          <note key="56" pos="288" pan="0" len="288" vol="16" />
          <note key="52" pos="576" pan="0" len="288" vol="67" />
          <note key="56" pos="864" pan="0" len="288" vol="67" />
        </pattern>
        <pattern pos="272844" muted="0" steps="16" name="" type="1">
          <note key="56" pos="0" pan="0" len="144" vol="70" />
        </pattern>
        <pattern pos="276444" muted="0" steps="16" name="" type="1">
          <note key="52" pos="0" pan="0" len="288" vol="16" />
          <note key="56" pos="288" pan="0" len="288" vol="16" />
          <note key="52" pos="576" pan="0" len="288" vol="67" />
          <note key="56" pos="864" pan="0" len="288" vol="67" />
        </pattern>
        <pattern pos="277596" muted="0" steps="16" name="" type="1">
          <note key="51" pos="0" pan="0" len="72" vol="100" />
          <note key="53" pos="72" pan="0" len="72" vol="100" />
          <note key="54" pos="144" pan="0" len="72" vol="100" />
          <note key="60" pos="216" pan="0" len="72" vol="100" />
          <note key="59" pos="288" pan="0" len="72" vol="100" />
          <note key="53" pos="360" pan="0" len="72" vol="100" />
          <note key="58" pos="432" pan="0" len="132" vol="100" />
          <note key="51" pos="576" pan="0" len="72" vol="100" />
          <note key="53" pos="648" pan="0" len="72" vol="100" />
          <note key="54" pos="720" pan="0" len="72" vol="100" />
          <note key="60" pos="792" pan="0" len="72" vol="100" />
          <note key="59" pos="864" pan="0" len="72" vol="100" />
          <note key="53" pos="936" pan="0" len="72" vol="100" />
          <note key="58" pos="1008" pan="0" len="132" vol="100" />
        </pattern>
      </track>
      <track solo="0" name="52 (Ch11)" type="0" muted="0">
        <instrumenttrack usemasterpitch="1" pitch="0.0" basenote="57" pan="0" pitchrange="12" vol="30">
          <eldata />
          <instrument name="tripleoscillator" />
        </instrumenttrack>
        <pattern pos="279900" muted="0" steps="16" name="" type="1">
          <note key="58" pos="0" pan="0" len="72" vol="100" />
          <note key="53" pos="72" pan="0" len="72" vol="100" />
          <note key="58" pos="144" pan="0" len="24" vol="100" />
        </pattern>
        <pattern pos="98304" muted="0" steps="16" name="" type="1">
          <note key="57" pos="0" pan="0" len="576" vol="100" />
          <note key="55" pos="576" pan="0" len="192" vol="100" />
          <note key="57" pos="768" pan="0" len="576" vol="100" />
          <note key="55" pos="1344" pan="0" len="192" vol="100" />
        </pattern>
        <pattern pos="99840" muted="0" steps="16" name="" type="1">
          <note key="57" pos="0" pan="0" len="576" vol="100" />
          <note key="55" pos="576" pan="0" len="192" vol="100" />
          <note key="57" pos="768" pan="0" len="576" vol="100" />
          <note key="55" pos="1344" pan="0" len="192" vol="100" />
        </pattern>
        <pattern pos="139788" muted="0" steps="16" name="" type="1">
          <note key="57" pos="0" pan="0" len="432" vol="50" />
          <note key="57" pos="768" pan="0" len="192" vol="50" />
          <note key="53" pos="960" pan="0" len="240" vol="50" />
        </pattern>
        <pattern pos="141324" muted="0" steps="16" name="" type="1">
          <note key="58" pos="0" pan="0" len="192" vol="34" />
          <note key="57" pos="192" pan="0" len="192" vol="52" />
          <note key="58" pos="384" pan="0" len="192" vol="69" />
          <note key="58" pos="576" pan="0" len="192" vol="86" />
          <note key="55" pos="768" pan="0" len="192" vol="69" />
          <note key="57" pos="960" pan="0" len="192" vol="52" />
          <note key="60" pos="1152" pan="0" len="192" vol="34" />
          <note key="60" pos="1344" pan="0" len="192" vol="52" />
        </pattern>
        <pattern pos="142860" muted="0" steps="16" name="" type="1">
          <note key="58" pos="0" pan="0" len="192" vol="34" />
          <note key="57" pos="192" pan="0" len="192" vol="52" />
          <note key="58" pos="384" pan="0" len="192" vol="69" />
          <note key="58" pos="576" pan="0" len="192" vol="86" />
          <note key="55" pos="768" pan="0" len="192" vol="69" />
          <note key="57" pos="960" pan="0" len="192" vol="52" />
          <note key="46" pos="1152" pan="0" len="192" vol="34" />
        </pattern>
        <pattern pos="158988" muted="0" steps="16" name="" type="1">
          <note key="70" pos="0" pan="0" len="384" vol="0" />
          <note key="63" pos="384" pan="0" len="384" vol="0" />
          <note key="70" pos="768" pan="0" len="384" vol="0" />
          <note key="63" pos="1152" pan="0" len="384" vol="0" />
        </pattern>
        <pattern pos="160524" muted="0" steps="16" name="" type="1">
          <note key="78" pos="0" pan="0" len="384" vol="0" />
          <note key="71" pos="384" pan="0" len="384" vol="0" />
          <note key="72" pos="768" pan="0" len="384" vol="0" />
          <note key="65" pos="1152" pan="0" len="384" vol="0" />
        </pattern>
        <pattern pos="162060" muted="0" steps="16" name="" type="1">
          <note key="70" pos="0" pan="0" len="384" vol="0" />
          <note key="63" pos="384" pan="0" len="384" vol="0" />
          <note key="70" pos="768" pan="0" len="384" vol="0" />
          <note key="63" pos="1152" pan="0" len="384" vol="0" />
        </pattern>
        <pattern pos="220428" muted="0" steps="16" name="" type="1">
          <note key="62" pos="144" pan="0" len="168" vol="100" />
        </pattern>
        <pattern pos="237324" muted="0" steps="16" name="" type="1">
          <note key="65" pos="0" pan="0" len="1044" vol="0" />
        </pattern>
        <pattern pos="253452" muted="0" steps="16" name="" type="1">
          <note key="58" pos="0" pan="0" len="288" vol="36" />
          <note key="58" pos="288" pan="0" len="144" vol="36" />
          <note key="57" pos="432" pan="0" len="144" vol="36" />
          <note key="62" pos="576" pan="0" len="288" vol="36" />
          <note key="58" pos="864" pan="0" len="288" vol="36" />
          <note key="58" pos="1152" pan="0" len="288" vol="36" />
          <note key="48" pos="1440" pan="0" len="144" vol="36" />
          <note key="60" pos="1584" pan="0" len="144" vol="36" />
          <note key="62" pos="1728" pan="0" len="432" vol="36" />
        </pattern>
        <pattern pos="255756" muted="0" steps="16" name="" type="1">
          <note key="58" pos="0" pan="0" len="288" vol="36" />
          <note key="58" pos="288" pan="0" len="144" vol="36" />
          <note key="57" pos="432" pan="0" len="144" vol="36" />
          <note key="62" pos="576" pan="0" len="288" vol="36" />
          <note key="58" pos="864" pan="0" len="288" vol="36" />
          <note key="58" pos="1152" pan="0" len="288" vol="36" />
          <note key="48" pos="1440" pan="0" len="144" vol="36" />
          <note key="60" pos="1584" pan="0" len="144" vol="36" />
          <note key="62" pos="1728" pan="0" len="432" vol="36" />
        </pattern>
        <pattern pos="258060" muted="0" steps="16" name="" type="1">
          <note key="58" pos="1152" pan="0" len="288" vol="69" />
          <note key="60" pos="1440" pan="0" len="192" vol="86" />
          <note key="57" pos="1632" pan="0" len="96" vol="69" />
          <note key="55" pos="1728" pan="0" len="252" vol="34" />
        </pattern>
        <pattern pos="262668" muted="0" steps="16" name="" type="1">
          <note key="55" pos="0" pan="0" len="288" vol="36" />
          <note key="53" pos="288" pan="0" len="288" vol="36" />
          <note key="58" pos="576" pan="0" len="216" vol="36" />
          <note key="57" pos="792" pan="0" len="72" vol="36" />
          <note key="53" pos="864" pan="0" len="288" vol="36" />
          <note key="55" pos="1152" pan="0" len="288" vol="36" />
          <note key="53" pos="1440" pan="0" len="144" vol="36" />
          <note key="57" pos="1584" pan="0" len="144" vol="36" />
          <note key="58" pos="1728" pan="0" len="432" vol="36" />
        </pattern>
        <pattern pos="264972" muted="0" steps="16" name="" type="1">
          <note key="55" pos="0" pan="0" len="288" vol="36" />
          <note key="53" pos="288" pan="0" len="288" vol="36" />
          <note key="58" pos="576" pan="0" len="216" vol="36" />
          <note key="57" pos="792" pan="0" len="72" vol="36" />
          <note key="53" pos="864" pan="0" len="288" vol="36" />
          <note key="55" pos="1152" pan="0" len="288" vol="36" />
          <note key="53" pos="1440" pan="0" len="144" vol="36" />
          <note key="57" pos="1584" pan="0" len="144" vol="36" />
          <note key="58" pos="1728" pan="0" len="432" vol="36" />
        </pattern>
        <pattern pos="271692" muted="0" steps="16" name="" type="1">
          <note key="56" pos="0" pan="0" len="288" vol="16" />
          <note key="49" pos="288" pan="0" len="288" vol="16" />
          <note key="56" pos="576" pan="0" len="288" vol="67" />
          <note key="49" pos="864" pan="0" len="288" vol="67" />
        </pattern>
        <pattern pos="272844" muted="0" steps="16" name="" type="1">
          <note key="51" pos="0" pan="0" len="144" vol="70" />
        </pattern>
        <pattern pos="276444" muted="0" steps="16" name="" type="1">
          <note key="56" pos="0" pan="0" len="288" vol="16" />
          <note key="49" pos="288" pan="0" len="288" vol="16" />
          <note key="56" pos="576" pan="0" len="288" vol="67" />
          <note key="49" pos="864" pan="0" len="288" vol="67" />
        </pattern>
        <pattern pos="277596" muted="0" steps="16" name="" type="1">
          <note key="58" pos="0" pan="0" len="72" vol="100" />
          <note key="56" pos="72" pan="0" len="72" vol="100" />
          <note key="58" pos="144" pan="0" len="72" vol="100" />
          <note key="56" pos="216" pan="0" len="72" vol="100" />
          <note key="54" pos="288" pan="0" len="72" vol="100" />
          <note key="56" pos="360" pan="0" len="72" vol="100" />
          <note key="54" pos="432" pan="0" len="132" vol="100" />
          <note key="58" pos="576" pan="0" len="72" vol="100" />
          <note key="56" pos="648" pan="0" len="72" vol="100" />
          <note key="58" pos="720" pan="0" len="72" vol="100" />
          <note key="56" pos="792" pan="0" len="72" vol="100" />
          <note key="54" pos="864" pan="0" len="72" vol="100" />
          <note key="56" pos="936" pan="0" len="72" vol="100" />
          <note key="54" pos="1008" pan="0" len="132" vol="100" />
          <note key="51" pos="1152" pan="0" len="108" vol="70" />
          <note key="49" pos="1260" pan="0" len="36" vol="70" />
          <note key="51" pos="1296" pan="0" len="108" vol="70" />
          <note key="49" pos="1404" pan="0" len="36" vol="70" />
          <note key="46" pos="1440" pan="0" len="108" vol="70" />
          <note key="44" pos="1548" pan="0" len="36" vol="70" />
          <note key="42" pos="1584" pan="0" len="72" vol="70" />
          <note key="44" pos="1656" pan="0" len="72" vol="70" />
          <note key="51" pos="1728" pan="0" len="108" vol="70" />
          <note key="49" pos="1836" pan="0" len="36" vol="70" />
          <note key="51" pos="1872" pan="0" len="108" vol="70" />
          <note key="49" pos="1980" pan="0" len="36" vol="70" />
          <note key="46" pos="2016" pan="0" len="108" vol="70" />
          <note key="44" pos="2124" pan="0" len="36" vol="70" />
          <note key="42" pos="2160" pan="0" len="72" vol="70" />
          <note key="44" pos="2232" pan="0" len="72" vol="70" />
        </pattern>
      </track>
      <track solo="0" name="52 (Ch12)" type="0" muted="0">
        <instrumenttrack usemasterpitch="1" pitch="0.0" basenote="57" pan="0" pitchrange="12" vol="30">
          <eldata />
          <instrument name="tripleoscillator" />
        </instrumenttrack>
        <pattern pos="279900" muted="0" steps="16" name="" type="1">
          <note key="61" pos="0" pan="0" len="72" vol="100" />
          <note key="70" pos="72" pan="0" len="72" vol="100" />
          <note key="51" pos="144" pan="0" len="24" vol="100" />
        </pattern>
        <pattern pos="139788" muted="0" steps="16" name="" type="1">
          <note key="58" pos="0" pan="0" len="432" vol="50" />
          <note key="58" pos="768" pan="0" len="192" vol="50" />
          <note key="57" pos="960" pan="0" len="240" vol="50" />
        </pattern>
        <pattern pos="141324" muted="0" steps="16" name="" type="1">
          <note key="63" pos="0" pan="0" len="192" vol="34" />
          <note key="60" pos="192" pan="0" len="192" vol="52" />
          <note key="62" pos="384" pan="0" len="192" vol="69" />
          <note key="62" pos="576" pan="0" len="192" vol="86" />
          <note key="58" pos="768" pan="0" len="192" vol="69" />
          <note key="60" pos="960" pan="0" len="192" vol="52" />
          <note key="63" pos="1152" pan="0" len="192" vol="34" />
          <note key="65" pos="1344" pan="0" len="192" vol="52" />
        </pattern>
        <pattern pos="142860" muted="0" steps="16" name="" type="1">
          <note key="63" pos="0" pan="0" len="192" vol="34" />
          <note key="60" pos="192" pan="0" len="192" vol="52" />
          <note key="62" pos="384" pan="0" len="192" vol="69" />
          <note key="62" pos="576" pan="0" len="192" vol="86" />
          <note key="58" pos="768" pan="0" len="192" vol="69" />
          <note key="60" pos="960" pan="0" len="192" vol="52" />
          <note key="50" pos="1152" pan="0" len="192" vol="34" />
        </pattern>
        <pattern pos="158988" muted="0" steps="16" name="" type="1">
          <note key="72" pos="0" pan="0" len="384" vol="0" />
          <note key="68" pos="384" pan="0" len="384" vol="0" />
          <note key="72" pos="768" pan="0" len="384" vol="0" />
          <note key="68" pos="1152" pan="0" len="384" vol="0" />
        </pattern>
        <pattern pos="160524" muted="0" steps="16" name="" type="1">
          <note key="80" pos="0" pan="0" len="384" vol="0" />
          <note key="76" pos="384" pan="0" len="384" vol="0" />
          <note key="74" pos="768" pan="0" len="384" vol="0" />
          <note key="70" pos="1152" pan="0" len="384" vol="0" />
        </pattern>
        <pattern pos="162060" muted="0" steps="16" name="" type="1">
          <note key="72" pos="0" pan="0" len="384" vol="0" />
          <note key="68" pos="384" pan="0" len="384" vol="0" />
          <note key="72" pos="768" pan="0" len="384" vol="0" />
          <note key="68" pos="1152" pan="0" len="384" vol="0" />
        </pattern>
        <pattern pos="220428" muted="0" steps="16" name="" type="1">
          <note key="69" pos="144" pan="0" len="168" vol="100" />
        </pattern>
        <pattern pos="237324" muted="0" steps="16" name="" type="1">
          <note key="68" pos="0" pan="0" len="1044" vol="0" />
        </pattern>
        <pattern pos="238860" muted="0" steps="16" name="" type="1">
          <note key="58" pos="0" pan="0" len="384" vol="0" />
          <note key="70" pos="384" pan="0" len="384" vol="0" />
          <note key="63" pos="768" pan="0" len="384" vol="0" />
          <note key="51" pos="1152" pan="0" len="384" vol="0" />
        </pattern>
        <pattern pos="251148" muted="0" steps="16" name="" type="1">
          <note key="60" pos="108" pan="0" len="192" vol="17" />
          <note key="60" pos="612" pan="0" len="192" vol="17" />
          <note key="60" pos="1392" pan="0" len="192" vol="17" />
        </pattern>
        <pattern pos="262668" muted="0" steps="16" name="" type="1">
          <note key="58" pos="0" pan="0" len="288" vol="36" />
          <note key="58" pos="288" pan="0" len="144" vol="36" />
          <note key="57" pos="432" pan="0" len="144" vol="36" />
          <note key="62" pos="576" pan="0" len="288" vol="36" />
          <note key="58" pos="864" pan="0" len="288" vol="36" />
          <note key="58" pos="1152" pan="0" len="288" vol="36" />
          <note key="48" pos="1440" pan="0" len="144" vol="36" />
          <note key="60" pos="1584" pan="0" len="144" vol="36" />
          <note key="62" pos="1728" pan="0" len="432" vol="36" />
        </pattern>
        <pattern pos="264972" muted="0" steps="16" name="" type="1">
          <note key="58" pos="0" pan="0" len="288" vol="36" />
          <note key="58" pos="288" pan="0" len="144" vol="36" />
          <note key="57" pos="432" pan="0" len="144" vol="36" />
          <note key="62" pos="576" pan="0" len="288" vol="36" />
          <note key="58" pos="864" pan="0" len="288" vol="36" />
          <note key="58" pos="1152" pan="0" len="288" vol="36" />
          <note key="48" pos="1440" pan="0" len="144" vol="36" />
          <note key="60" pos="1584" pan="0" len="144" vol="36" />
          <note key="62" pos="1728" pan="0" len="432" vol="36" />
        </pattern>
        <pattern pos="268812" muted="0" steps="16" name="" type="1">
          <note key="51" pos="0" pan="0" len="72" vol="100" />
          <note key="53" pos="72" pan="0" len="72" vol="100" />
          <note key="54" pos="144" pan="0" len="72" vol="100" />
          <note key="60" pos="216" pan="0" len="72" vol="100" />
          <note key="59" pos="288" pan="0" len="72" vol="100" />
          <note key="53" pos="360" pan="0" len="72" vol="100" />
          <note key="58" pos="432" pan="0" len="132" vol="100" />
        </pattern>
        <pattern pos="269388" muted="0" steps="16" name="" type="1">
          <note key="51" pos="0" pan="0" len="108" vol="70" />
          <note key="49" pos="108" pan="0" len="36" vol="70" />
          <note key="51" pos="144" pan="0" len="108" vol="70" />
          <note key="49" pos="252" pan="0" len="36" vol="70" />
          <note key="46" pos="288" pan="0" len="108" vol="70" />
          <note key="44" pos="396" pan="0" len="36" vol="70" />
          <note key="42" pos="432" pan="0" len="72" vol="70" />
          <note key="44" pos="504" pan="0" len="72" vol="70" />
          <note key="51" pos="576" pan="0" len="108" vol="70" />
          <note key="49" pos="684" pan="0" len="36" vol="70" />
          <note key="51" pos="720" pan="0" len="108" vol="70" />
          <note key="49" pos="828" pan="0" len="36" vol="70" />
          <note key="46" pos="864" pan="0" len="108" vol="70" />
          <note key="44" pos="972" pan="0" len="36" vol="70" />
          <note key="42" pos="1008" pan="0" len="72" vol="70" />
          <note key="44" pos="1080" pan="0" len="72" vol="70" />
        </pattern>
        <pattern pos="271692" muted="0" steps="16" name="" type="1">
          <note key="59" pos="0" pan="0" len="288" vol="16" />
          <note key="59" pos="288" pan="0" len="288" vol="16" />
          <note key="59" pos="576" pan="0" len="288" vol="67" />
          <note key="59" pos="864" pan="0" len="288" vol="67" />
        </pattern>
        <pattern pos="272844" muted="0" steps="16" name="" type="1">
          <note key="54" pos="0" pan="0" len="144" vol="70" />
        </pattern>
        <pattern pos="276444" muted="0" steps="16" name="" type="1">
          <note key="59" pos="0" pan="0" len="288" vol="16" />
          <note key="59" pos="288" pan="0" len="288" vol="16" />
          <note key="59" pos="576" pan="0" len="288" vol="67" />
          <note key="59" pos="864" pan="0" len="288" vol="67" />
        </pattern>
        <pattern pos="277596" muted="0" steps="16" name="" type="1">
          <note key="61" pos="0" pan="0" len="72" vol="100" />
          <note key="61" pos="72" pan="0" len="72" vol="100" />
          <note key="61" pos="144" pan="0" len="72" vol="100" />
          <note key="51" pos="216" pan="0" len="72" vol="100" />
          <note key="56" pos="288" pan="0" len="72" vol="100" />
          <note key="61" pos="360" pan="0" len="72" vol="100" />
          <note key="51" pos="432" pan="0" len="132" vol="100" />
          <note key="61" pos="576" pan="0" len="72" vol="100" />
          <note key="61" pos="648" pan="0" len="72" vol="100" />
          <note key="61" pos="720" pan="0" len="72" vol="100" />
          <note key="51" pos="792" pan="0" len="72" vol="100" />
          <note key="56" pos="864" pan="0" len="72" vol="100" />
          <note key="61" pos="936" pan="0" len="72" vol="100" />
          <note key="51" pos="1008" pan="0" len="132" vol="100" />
          <note key="54" pos="1152" pan="0" len="108" vol="70" />
          <note key="53" pos="1260" pan="0" len="36" vol="70" />
          <note key="54" pos="1296" pan="0" len="108" vol="70" />
          <note key="53" pos="1404" pan="0" len="36" vol="70" />
          <note key="51" pos="1440" pan="0" len="108" vol="70" />
          <note key="49" pos="1548" pan="0" len="36" vol="70" />
          <note key="47" pos="1584" pan="0" len="72" vol="70" />
          <note key="49" pos="1656" pan="0" len="72" vol="70" />
          <note key="54" pos="1728" pan="0" len="108" vol="70" />
          <note key="53" pos="1836" pan="0" len="36" vol="70" />
          <note key="54" pos="1872" pan="0" len="108" vol="70" />
          <note key="53" pos="1980" pan="0" len="36" vol="70" />
          <note key="51" pos="2016" pan="0" len="108" vol="70" />
          <note key="49" pos="2124" pan="0" len="36" vol="70" />
          <note key="47" pos="2160" pan="0" len="72" vol="70" />
          <note key="49" pos="2232" pan="0" len="72" vol="70" />
        </pattern>
      </track>
      <track solo="0" name="52 (Ch13)" type="0" muted="0">
        <instrumenttrack usemasterpitch="1" pitch="0.0" basenote="57" pan="0" pitchrange="12" vol="30">
          <eldata />
          <instrument name="tripleoscillator" />
        </instrumenttrack>
        <pattern pos="280476" muted="0" steps="16" name="" type="1">
          <note key="56" pos="144" pan="0" len="144" vol="16" />
          <note key="59" pos="288" pan="0" len="132" vol="16" />
          <note key="63" pos="432" pan="0" len="36" vol="100" />
        </pattern>
        <pattern pos="141324" muted="0" steps="16" name="" type="1">
          <note key="67" pos="0" pan="0" len="192" vol="34" />
          <note key="65" pos="192" pan="0" len="192" vol="52" />
          <note key="67" pos="384" pan="0" len="192" vol="69" />
          <note key="65" pos="576" pan="0" len="192" vol="86" />
          <note key="63" pos="768" pan="0" len="192" vol="69" />
          <note key="65" pos="960" pan="0" len="192" vol="52" />
          <note key="67" pos="1152" pan="0" len="192" vol="34" />
          <note key="69" pos="1344" pan="0" len="192" vol="52" />
        </pattern>
        <pattern pos="142860" muted="0" steps="16" name="" type="1">
          <note key="67" pos="0" pan="0" len="192" vol="34" />
          <note key="65" pos="192" pan="0" len="192" vol="52" />
          <note key="67" pos="384" pan="0" len="192" vol="69" />
          <note key="65" pos="576" pan="0" len="192" vol="86" />
          <note key="63" pos="768" pan="0" len="192" vol="69" />
          <note key="65" pos="960" pan="0" len="192" vol="52" />
          <note key="55" pos="1152" pan="0" len="192" vol="34" />
        </pattern>
        <pattern pos="238860" muted="0" steps="16" name="" type="1">
          <note key="53" pos="0" pan="0" len="384" vol="0" />
          <note key="65" pos="384" pan="0" len="384" vol="0" />
          <note key="58" pos="768" pan="0" len="384" vol="0" />
          <note key="46" pos="1152" pan="0" len="384" vol="0" />
        </pattern>
        <pattern pos="251148" muted="0" steps="16" name="" type="1">
          <note key="62" pos="108" pan="0" len="192" vol="17" />
          <note key="62" pos="612" pan="0" len="192" vol="17" />
          <note key="62" pos="1392" pan="0" len="192" vol="17" />
        </pattern>
        <pattern pos="268812" muted="0" steps="16" name="" type="1">
          <note key="58" pos="0" pan="0" len="72" vol="100" />
          <note key="56" pos="72" pan="0" len="72" vol="100" />
          <note key="58" pos="144" pan="0" len="72" vol="100" />
          <note key="56" pos="216" pan="0" len="72" vol="100" />
          <note key="54" pos="288" pan="0" len="72" vol="100" />
          <note key="56" pos="360" pan="0" len="72" vol="100" />
          <note key="54" pos="432" pan="0" len="132" vol="100" />
        </pattern>
        <pattern pos="269388" muted="0" steps="16" name="" type="1">
          <note key="54" pos="0" pan="0" len="108" vol="70" />
          <note key="53" pos="108" pan="0" len="36" vol="70" />
          <note key="54" pos="144" pan="0" len="108" vol="70" />
          <note key="53" pos="252" pan="0" len="36" vol="70" />
          <note key="51" pos="288" pan="0" len="108" vol="70" />
          <note key="49" pos="396" pan="0" len="36" vol="70" />
          <note key="47" pos="432" pan="0" len="72" vol="70" />
          <note key="49" pos="504" pan="0" len="72" vol="70" />
          <note key="54" pos="576" pan="0" len="108" vol="70" />
          <note key="53" pos="684" pan="0" len="36" vol="70" />
          <note key="54" pos="720" pan="0" len="108" vol="70" />
          <note key="53" pos="828" pan="0" len="36" vol="70" />
          <note key="51" pos="864" pan="0" len="108" vol="70" />
          <note key="49" pos="972" pan="0" len="36" vol="70" />
          <note key="47" pos="1008" pan="0" len="72" vol="70" />
          <note key="49" pos="1080" pan="0" len="72" vol="70" />
        </pattern>
        <pattern pos="271692" muted="0" steps="16" name="" type="1">
          <note key="58" pos="0" pan="0" len="288" vol="16" />
          <note key="58" pos="288" pan="0" len="288" vol="16" />
          <note key="58" pos="576" pan="0" len="288" vol="67" />
          <note key="58" pos="864" pan="0" len="288" vol="67" />
        </pattern>
        <pattern pos="272844" muted="0" steps="16" name="" type="1">
          <note key="44" pos="0" pan="0" len="144" vol="70" />
        </pattern>
        <pattern pos="276444" muted="0" steps="16" name="" type="1">
          <note key="58" pos="0" pan="0" len="288" vol="16" />
          <note key="58" pos="288" pan="0" len="288" vol="16" />
          <note key="58" pos="576" pan="0" len="288" vol="67" />
          <note key="58" pos="864" pan="0" len="288" vol="67" />
        </pattern>
        <pattern pos="277596" muted="0" steps="16" name="" type="1">
          <note key="58" pos="1152" pan="0" len="108" vol="70" />
          <note key="56" pos="1260" pan="0" len="36" vol="70" />
          <note key="58" pos="1296" pan="0" len="108" vol="70" />
          <note key="56" pos="1404" pan="0" len="36" vol="70" />
          <note key="54" pos="1440" pan="0" len="108" vol="70" />
          <note key="53" pos="1548" pan="0" len="36" vol="70" />
          <note key="51" pos="1584" pan="0" len="72" vol="70" />
          <note key="53" pos="1656" pan="0" len="72" vol="70" />
          <note key="58" pos="1728" pan="0" len="108" vol="70" />
          <note key="56" pos="1836" pan="0" len="36" vol="70" />
          <note key="58" pos="1872" pan="0" len="108" vol="70" />
          <note key="56" pos="1980" pan="0" len="36" vol="70" />
          <note key="54" pos="2016" pan="0" len="108" vol="70" />
          <note key="53" pos="2124" pan="0" len="36" vol="70" />
          <note key="51" pos="2160" pan="0" len="72" vol="70" />
          <note key="53" pos="2232" pan="0" len="72" vol="70" />
        </pattern>
      </track>
      <track solo="0" name="52 (Ch14)" type="0" muted="0">
        <instrumenttrack usemasterpitch="1" pitch="0.0" basenote="57" pan="0" pitchrange="12" vol="30">
          <eldata />
          <instrument name="tripleoscillator" />
        </instrumenttrack>
        <pattern pos="280476" muted="0" steps="16" name="" type="1">
          <note key="60" pos="144" pan="0" len="144" vol="16" />
          <note key="63" pos="288" pan="0" len="132" vol="16" />
          <note key="58" pos="432" pan="0" len="36" vol="100" />
        </pattern>
        <pattern pos="238860" muted="0" steps="16" name="" type="1">
          <note key="56" pos="0" pan="0" len="384" vol="0" />
          <note key="68" pos="384" pan="0" len="384" vol="0" />
          <note key="61" pos="768" pan="0" len="384" vol="0" />
          <note key="49" pos="1152" pan="0" len="384" vol="0" />
        </pattern>
        <pattern pos="251148" muted="0" steps="16" name="" type="1">
          <note key="65" pos="108" pan="0" len="192" vol="17" />
          <note key="65" pos="612" pan="0" len="192" vol="17" />
          <note key="65" pos="1392" pan="0" len="192" vol="17" />
        </pattern>
        <pattern pos="268812" muted="0" steps="16" name="" type="1">
          <note key="61" pos="0" pan="0" len="72" vol="100" />
          <note key="61" pos="72" pan="0" len="72" vol="100" />
          <note key="61" pos="144" pan="0" len="72" vol="100" />
          <note key="51" pos="216" pan="0" len="72" vol="100" />
          <note key="56" pos="288" pan="0" len="72" vol="100" />
          <note key="61" pos="360" pan="0" len="72" vol="100" />
          <note key="51" pos="432" pan="0" len="132" vol="100" />
        </pattern>
        <pattern pos="269388" muted="0" steps="16" name="" type="1">
          <note key="58" pos="0" pan="0" len="108" vol="70" />
          <note key="56" pos="108" pan="0" len="36" vol="70" />
          <note key="58" pos="144" pan="0" len="108" vol="70" />
          <note key="56" pos="252" pan="0" len="36" vol="70" />
          <note key="54" pos="288" pan="0" len="108" vol="70" />
          <note key="53" pos="396" pan="0" len="36" vol="70" />
          <note key="51" pos="432" pan="0" len="72" vol="70" />
          <note key="53" pos="504" pan="0" len="72" vol="70" />
          <note key="58" pos="576" pan="0" len="108" vol="70" />
          <note key="56" pos="684" pan="0" len="36" vol="70" />
          <note key="58" pos="720" pan="0" len="108" vol="70" />
          <note key="56" pos="828" pan="0" len="36" vol="70" />
          <note key="54" pos="864" pan="0" len="108" vol="70" />
          <note key="53" pos="972" pan="0" len="36" vol="70" />
          <note key="51" pos="1008" pan="0" len="72" vol="70" />
          <note key="53" pos="1080" pan="0" len="72" vol="70" />
        </pattern>
      </track>
      <track solo="0" name="52 (Ch15)" type="0" muted="0">
        <instrumenttrack usemasterpitch="1" pitch="0.0" basenote="57" pan="0" pitchrange="12" vol="30">
          <eldata />
          <instrument name="tripleoscillator" />
        </instrumenttrack>
        <pattern pos="280476" muted="0" steps="16" name="" type="1">
          <note key="63" pos="144" pan="0" len="144" vol="16" />
          <note key="53" pos="288" pan="0" len="132" vol="16" />
          <note key="51" pos="432" pan="0" len="36" vol="100" />
        </pattern>
      </track>
      <track solo="0" name="52 (Ch16)" type="0" muted="0">
        <instrumenttrack usemasterpitch="1" pitch="0.0" basenote="57" pan="0" pitchrange="12" vol="30">
          <eldata />
          <instrument name="tripleoscillator" />
        </instrumenttrack>
        <pattern pos="246540" muted="0" steps="16" name="" type="1">
          <note key="56" pos="0" pan="0" len="96" vol="100" />
        </pattern>
      </track>
      <track solo="0" name="53 (Ch7)" type="0" muted="0">
        <instrumenttrack usemasterpitch="1" pitch="0.0" basenote="57" pan="0" pitchrange="12" vol="30">
          <eldata />
          <instrument name="tripleoscillator" />
        </instrumenttrack>
        <pattern pos="130572" muted="0" steps="16" name="" type="1">
          <note key="67" pos="768" pan="0" len="192" vol="17" />
          <note key="65" pos="960" pan="0" len="192" vol="17" />
          <note key="60" pos="1152" pan="0" len="192" vol="17" />
          <note key="58" pos="1344" pan="0" len="96" vol="17" />
          <note key="55" pos="1440" pan="0" len="96" vol="17" />
        </pattern>
      </track>
      <track solo="0" name="53 (Ch8)" type="0" muted="0">
        <instrumenttrack usemasterpitch="1" pitch="0.0" basenote="57" pan="0" pitchrange="12" vol="30">
          <eldata />
          <instrument name="tripleoscillator" />
        </instrumenttrack>
        <pattern pos="55296" muted="0" steps="16" name="" type="1">
          <note key="62" pos="0" pan="0" len="660" vol="17" />
        </pattern>
      </track>
      <track solo="0" name="53 (Ch9)" type="0" muted="0">
        <instrumenttrack usemasterpitch="1" pitch="0.0" basenote="57" pan="0" pitchrange="12" vol="30">
          <eldata />
          <instrument name="tripleoscillator" />
        </instrumenttrack>
        <pattern pos="174348" muted="0" steps="16" name="" type="1">
          <note key="62" pos="0" pan="0" len="192" vol="100" />
          <note key="57" pos="192" pan="0" len="192" vol="100" />
          <note key="60" pos="384" pan="0" len="192" vol="100" />
          <note key="59" pos="576" pan="0" len="144" vol="100" />
          <note key="62" pos="720" pan="0" len="48" vol="100" />
          <note key="62" pos="768" pan="0" len="192" vol="100" />
          <note key="57" pos="960" pan="0" len="192" vol="100" />
          <note key="60" pos="1152" pan="0" len="192" vol="100" />
          <note key="59" pos="1344" pan="0" len="144" vol="100" />
          <note key="62" pos="1488" pan="0" len="48" vol="100" />
        </pattern>
        <pattern pos="55296" muted="0" steps="16" name="" type="1">
          <note key="64" pos="0" pan="0" len="1152" vol="17" />
        </pattern>
        <pattern pos="66816" muted="0" steps="16" name="" type="1">
          <note key="69" pos="0" pan="0" len="384" vol="8" />
        </pattern>
      </track>
      <track solo="0" name="53 (Ch10)" type="0" muted="0">
        <instrumenttrack usemasterpitch="1" pitch="0.0" basenote="57" pan="0" pitchrange="12" vol="30">
          <eldata />
          <instrument name="tripleoscillator" />
        </instrumenttrack>
        <pattern pos="174348" muted="0" steps="16" name="" type="1">
          <note key="65" pos="0" pan="0" len="384" vol="100" />
          <note key="64" pos="384" pan="0" len="192" vol="100" />
          <note key="62" pos="576" pan="0" len="144" vol="100" />
          <note key="64" pos="720" pan="0" len="48" vol="100" />
          <note key="65" pos="768" pan="0" len="384" vol="100" />
          <note key="64" pos="1152" pan="0" len="192" vol="100" />
          <note key="62" pos="1344" pan="0" len="144" vol="100" />
          <note key="64" pos="1488" pan="0" len="48" vol="100" />
        </pattern>
      </track>
      <track solo="0" name="53 (Ch11)" type="0" muted="0">
        <instrumenttrack usemasterpitch="1" pitch="0.0" basenote="57" pan="0" pitchrange="12" vol="30">
          <eldata />
          <instrument name="tripleoscillator" />
        </instrumenttrack>
        <pattern pos="55296" muted="0" steps="16" name="" type="1">
          <note key="69" pos="0" pan="0" len="1152" vol="17" />
        </pattern>
      </track>
      <track solo="0" name="54 (Ch3)" type="0" muted="0">
        <instrumenttrack usemasterpitch="1" pitch="0.0" basenote="57" pan="0" pitchrange="12" vol="30">
          <eldata />
          <instrument name="tripleoscillator" />
        </instrumenttrack>
        <pattern pos="192780" muted="0" steps="16" name="" type="1">
          <note key="100" pos="768" pan="0" len="252" vol="2" />
        </pattern>
        <pattern pos="46080" muted="0" steps="16" name="" type="1">
          <note key="98" pos="48" pan="0" len="240" vol="2" />
          <note key="96" pos="432" pan="0" len="240" vol="2" />
          <note key="98" pos="816" pan="0" len="96" vol="2" />
          <note key="99" pos="912" pan="0" len="48" vol="50" />
          <note key="95" pos="960" pan="0" len="96" vol="50" />
          <note key="96" pos="1200" pan="0" len="96" vol="2" />
          <note key="92" pos="1296" pan="0" len="48" vol="50" />
          <note key="91" pos="1344" pan="0" len="96" vol="50" />
        </pattern>
        <pattern pos="54528" muted="0" steps="16" name="" type="1">
          <note key="98" pos="0" pan="0" len="240" vol="100" />
        </pattern>
        <pattern pos="57600" muted="0" steps="16" name="" type="1">
          <note key="77" pos="216" pan="0" len="36" vol="100" />
          <note key="77" pos="504" pan="0" len="36" vol="100" />
          <note key="77" pos="792" pan="0" len="36" vol="100" />
          <note key="77" pos="1080" pan="0" len="36" vol="100" />
        </pattern>
        <pattern pos="61056" muted="0" steps="16" name="" type="1">
          <note key="77" pos="216" pan="0" len="36" vol="100" />
          <note key="77" pos="504" pan="0" len="36" vol="100" />
          <note key="77" pos="792" pan="0" len="36" vol="100" />
          <note key="77" pos="1080" pan="0" len="36" vol="100" />
        </pattern>
        <pattern pos="64512" muted="0" steps="16" name="" type="1">
          <note key="77" pos="216" pan="0" len="36" vol="100" />
          <note key="77" pos="504" pan="0" len="36" vol="100" />
          <note key="77" pos="792" pan="0" len="36" vol="100" />
          <note key="77" pos="1080" pan="0" len="36" vol="100" />
        </pattern>
        <pattern pos="66816" muted="0" steps="16" name="" type="1">
          <note key="74" pos="432" pan="0" len="72" vol="100" />
        </pattern>
        <pattern pos="186636" muted="0" steps="16" name="" type="1">
          <note key="100" pos="768" pan="0" len="252" vol="2" />
        </pattern>
      </track>
      <track solo="0" name="54 (Ch4)" type="0" muted="0">
        <instrumenttrack usemasterpitch="1" pitch="0.0" basenote="57" pan="0" pitchrange="12" vol="30">
          <eldata />
          <instrument name="tripleoscillator" />
        </instrumenttrack>
        <pattern pos="64512" muted="0" steps="16" name="" type="1">
          <note key="81" pos="216" pan="0" len="36" vol="100" />
          <note key="81" pos="504" pan="0" len="36" vol="100" />
          <note key="81" pos="792" pan="0" len="36" vol="100" />
          <note key="81" pos="1080" pan="0" len="36" vol="100" />
        </pattern>
        <pattern pos="46080" muted="0" steps="16" name="" type="1">
          <note key="86" pos="60" pan="0" len="240" vol="2" />
          <note key="84" pos="444" pan="0" len="240" vol="2" />
          <note key="86" pos="828" pan="0" len="96" vol="2" />
          <note key="87" pos="924" pan="0" len="48" vol="50" />
          <note key="83" pos="972" pan="0" len="96" vol="50" />
          <note key="84" pos="1212" pan="0" len="96" vol="2" />
          <note key="80" pos="1308" pan="0" len="48" vol="50" />
          <note key="79" pos="1356" pan="0" len="96" vol="50" />
        </pattern>
        <pattern pos="49152" muted="0" steps="16" name="" type="1">
          <note key="101" pos="48" pan="0" len="240" vol="2" />
          <note key="99" pos="432" pan="0" len="240" vol="2" />
          <note key="98" pos="816" pan="0" len="96" vol="2" />
          <note key="99" pos="912" pan="0" len="48" vol="50" />
          <note key="95" pos="960" pan="0" len="96" vol="50" />
          <note key="96" pos="1200" pan="0" len="96" vol="2" />
          <note key="92" pos="1296" pan="0" len="48" vol="50" />
          <note key="91" pos="1344" pan="0" len="96" vol="50" />
        </pattern>
        <pattern pos="54528" muted="0" steps="16" name="" type="1">
          <note key="86" pos="0" pan="0" len="240" vol="100" />
        </pattern>
        <pattern pos="57600" muted="0" steps="16" name="" type="1">
          <note key="81" pos="216" pan="0" len="36" vol="100" />
          <note key="81" pos="504" pan="0" len="36" vol="100" />
          <note key="81" pos="792" pan="0" len="36" vol="100" />
          <note key="81" pos="1080" pan="0" len="36" vol="100" />
        </pattern>
        <pattern pos="58752" muted="0" steps="16" name="" type="1">
          <note key="77" pos="216" pan="0" len="36" vol="100" />
        </pattern>
        <pattern pos="61056" muted="0" steps="16" name="" type="1">
          <note key="81" pos="216" pan="0" len="36" vol="100" />
          <note key="81" pos="504" pan="0" len="36" vol="100" />
          <note key="81" pos="792" pan="0" len="36" vol="100" />
          <note key="81" pos="1080" pan="0" len="36" vol="100" />
        </pattern>
        <pattern pos="62208" muted="0" steps="16" name="" type="1">
          <note key="70" pos="216" pan="0" len="36" vol="100" />
          <note key="70" pos="792" pan="0" len="36" vol="100" />
        </pattern>
      </track>
      <track solo="0" name="54 (Ch5)" type="0" muted="0">
        <instrumenttrack usemasterpitch="1" pitch="0.0" basenote="57" pan="0" pitchrange="12" vol="30">
          <eldata />
          <instrument name="tripleoscillator" />
        </instrumenttrack>
        <pattern pos="230412" muted="0" steps="16" name="" type="1">
          <note key="94" pos="240" pan="0" len="132" vol="2" />
          <note key="94" pos="1008" pan="0" len="132" vol="2" />
        </pattern>
        <pattern pos="10752" muted="0" steps="16" name="" type="1">
          <note key="82" pos="576" pan="0" len="120" vol="100" />
        </pattern>
        <pattern pos="49152" muted="0" steps="16" name="" type="1">
          <note key="89" pos="60" pan="0" len="240" vol="2" />
          <note key="87" pos="444" pan="0" len="240" vol="2" />
          <note key="86" pos="828" pan="0" len="96" vol="2" />
          <note key="87" pos="924" pan="0" len="48" vol="50" />
          <note key="83" pos="972" pan="0" len="96" vol="50" />
          <note key="84" pos="1212" pan="0" len="96" vol="2" />
          <note key="80" pos="1308" pan="0" len="48" vol="50" />
          <note key="79" pos="1356" pan="0" len="96" vol="50" />
        </pattern>
        <pattern pos="57600" muted="0" steps="16" name="" type="1">
          <note key="84" pos="216" pan="0" len="36" vol="100" />
          <note key="84" pos="504" pan="0" len="36" vol="100" />
          <note key="84" pos="792" pan="0" len="36" vol="100" />
          <note key="84" pos="1080" pan="0" len="36" vol="100" />
        </pattern>
        <pattern pos="58752" muted="0" steps="16" name="" type="1">
          <note key="81" pos="216" pan="0" len="36" vol="100" />
        </pattern>
        <pattern pos="61056" muted="0" steps="16" name="" type="1">
          <note key="84" pos="216" pan="0" len="36" vol="100" />
          <note key="84" pos="504" pan="0" len="36" vol="100" />
          <note key="84" pos="792" pan="0" len="36" vol="100" />
          <note key="84" pos="1080" pan="0" len="36" vol="100" />
        </pattern>
        <pattern pos="62208" muted="0" steps="16" name="" type="1">
          <note key="74" pos="216" pan="0" len="36" vol="100" />
          <note key="74" pos="792" pan="0" len="36" vol="100" />
        </pattern>
        <pattern pos="64512" muted="0" steps="16" name="" type="1">
          <note key="84" pos="216" pan="0" len="36" vol="100" />
          <note key="84" pos="504" pan="0" len="36" vol="100" />
          <note key="84" pos="792" pan="0" len="36" vol="100" />
          <note key="84" pos="1080" pan="0" len="36" vol="100" />
        </pattern>
        <pattern pos="224268" muted="0" steps="16" name="" type="1">
          <note key="94" pos="240" pan="0" len="132" vol="2" />
          <note key="94" pos="1008" pan="0" len="132" vol="2" />
        </pattern>
        <pattern pos="225804" muted="0" steps="16" name="" type="1">
          <note key="94" pos="48" pan="0" len="72" vol="100" />
          <note key="90" pos="432" pan="0" len="72" vol="100" />
          <note key="94" pos="816" pan="0" len="72" vol="100" />
          <note key="90" pos="1200" pan="0" len="72" vol="100" />
        </pattern>
      </track>
      <track solo="0" name="54 (Ch6)" type="0" muted="0">
        <instrumenttrack usemasterpitch="1" pitch="0.0" basenote="57" pan="0" pitchrange="12" vol="30">
          <eldata />
          <instrument name="tripleoscillator" />
        </instrumenttrack>
        <pattern pos="230412" muted="0" steps="16" name="" type="1">
          <note key="87" pos="240" pan="0" len="132" vol="2" />
          <note key="87" pos="1008" pan="0" len="132" vol="2" />
        </pattern>
        <pattern pos="10752" muted="0" steps="16" name="" type="1">
          <note key="87" pos="576" pan="0" len="120" vol="100" />
        </pattern>
        <pattern pos="44544" muted="0" steps="16" name="" type="1">
          <note key="67" pos="384" pan="0" len="168" vol="2" />
          <note key="66" pos="552" pan="0" len="24" vol="100" />
          <note key="65" pos="576" pan="0" len="180" vol="100" />
          <note key="79" pos="768" pan="0" len="168" vol="2" />
          <note key="78" pos="936" pan="0" len="24" vol="100" />
          <note key="77" pos="960" pan="0" len="180" vol="100" />
          <note key="67" pos="1152" pan="0" len="168" vol="2" />
          <note key="69" pos="1320" pan="0" len="24" vol="100" />
          <note key="70" pos="1344" pan="0" len="180" vol="100" />
        </pattern>
        <pattern pos="47616" muted="0" steps="16" name="" type="1">
          <note key="67" pos="384" pan="0" len="168" vol="2" />
          <note key="66" pos="552" pan="0" len="24" vol="100" />
          <note key="65" pos="576" pan="0" len="180" vol="100" />
          <note key="79" pos="768" pan="0" len="168" vol="2" />
          <note key="78" pos="936" pan="0" len="24" vol="100" />
          <note key="77" pos="960" pan="0" len="180" vol="100" />
          <note key="67" pos="1152" pan="0" len="168" vol="2" />
          <note key="69" pos="1320" pan="0" len="24" vol="100" />
          <note key="70" pos="1344" pan="0" len="180" vol="100" />
        </pattern>
        <pattern pos="50688" muted="0" steps="16" name="" type="1">
          <note key="67" pos="384" pan="0" len="168" vol="2" />
          <note key="66" pos="552" pan="0" len="24" vol="100" />
          <note key="65" pos="576" pan="0" len="180" vol="100" />
          <note key="79" pos="768" pan="0" len="168" vol="2" />
          <note key="78" pos="936" pan="0" len="24" vol="100" />
          <note key="77" pos="960" pan="0" len="180" vol="100" />
          <note key="67" pos="1152" pan="0" len="168" vol="2" />
          <note key="69" pos="1320" pan="0" len="24" vol="100" />
          <note key="70" pos="1344" pan="0" len="180" vol="100" />
        </pattern>
        <pattern pos="57600" muted="0" steps="16" name="" type="1">
          <note key="101" pos="192" pan="0" len="60" vol="17" />
          <note key="101" pos="480" pan="0" len="60" vol="17" />
          <note key="101" pos="768" pan="0" len="60" vol="17" />
          <note key="101" pos="1056" pan="0" len="60" vol="17" />
        </pattern>
        <pattern pos="58752" muted="0" steps="16" name="" type="1">
          <note key="86" pos="216" pan="0" len="36" vol="100" />
          <note key="101" pos="288" pan="0" len="144" vol="3" />
          <note key="103" pos="432" pan="0" len="144" vol="69" />
        </pattern>
        <pattern pos="59904" muted="0" steps="16" name="" type="1">
          <note key="101" pos="768" pan="0" len="60" vol="17" />
          <note key="101" pos="1056" pan="0" len="60" vol="17" />
        </pattern>
        <pattern pos="61056" muted="0" steps="16" name="" type="1">
          <note key="101" pos="192" pan="0" len="60" vol="17" />
          <note key="101" pos="480" pan="0" len="60" vol="17" />
          <note key="101" pos="768" pan="0" len="60" vol="17" />
          <note key="101" pos="1056" pan="0" len="60" vol="17" />
        </pattern>
        <pattern pos="62208" muted="0" steps="16" name="" type="1">
          <note key="77" pos="216" pan="0" len="36" vol="100" />
          <note key="96" pos="288" pan="0" len="144" vol="3" />
          <note key="108" pos="432" pan="0" len="144" vol="69" />
          <note key="77" pos="792" pan="0" len="36" vol="100" />
          <note key="101" pos="864" pan="0" len="144" vol="3" />
          <note key="108" pos="1008" pan="0" len="144" vol="69" />
        </pattern>
        <pattern pos="64512" muted="0" steps="16" name="" type="1">
          <note key="101" pos="192" pan="0" len="60" vol="17" />
          <note key="101" pos="480" pan="0" len="60" vol="17" />
          <note key="101" pos="768" pan="0" len="60" vol="17" />
          <note key="101" pos="1056" pan="0" len="60" vol="17" />
        </pattern>
        <pattern pos="203532" muted="0" steps="16" name="" type="1">
          <note key="84" pos="768" pan="0" len="384" vol="2" />
        </pattern>
        <pattern pos="224268" muted="0" steps="16" name="" type="1">
          <note key="87" pos="240" pan="0" len="132" vol="2" />
          <note key="87" pos="1008" pan="0" len="132" vol="2" />
        </pattern>
      </track>
      <track solo="0" name="54 (Ch7)" type="0" muted="0">
        <instrumenttrack usemasterpitch="1" pitch="0.0" basenote="57" pan="0" pitchrange="12" vol="30">
          <eldata />
          <instrument name="tripleoscillator" />
        </instrumenttrack>
        <pattern pos="230412" muted="0" steps="16" name="" type="1">
          <note key="91" pos="240" pan="0" len="132" vol="2" />
          <note key="91" pos="1008" pan="0" len="132" vol="2" />
        </pattern>
        <pattern pos="10752" muted="0" steps="16" name="" type="1">
          <note key="91" pos="576" pan="0" len="96" vol="100" />
          <note key="92" pos="672" pan="0" len="24" vol="100" />
        </pattern>
        <pattern pos="44544" muted="0" steps="16" name="" type="1">
          <note key="79" pos="384" pan="0" len="168" vol="2" />
          <note key="78" pos="552" pan="0" len="24" vol="100" />
          <note key="77" pos="576" pan="0" len="180" vol="100" />
          <note key="91" pos="768" pan="0" len="168" vol="2" />
          <note key="90" pos="936" pan="0" len="24" vol="100" />
          <note key="89" pos="960" pan="0" len="180" vol="100" />
          <note key="79" pos="1152" pan="0" len="168" vol="2" />
          <note key="81" pos="1320" pan="0" len="24" vol="100" />
          <note key="82" pos="1344" pan="0" len="180" vol="100" />
        </pattern>
        <pattern pos="47616" muted="0" steps="16" name="" type="1">
          <note key="79" pos="384" pan="0" len="168" vol="2" />
          <note key="78" pos="552" pan="0" len="24" vol="100" />
          <note key="77" pos="576" pan="0" len="180" vol="100" />
          <note key="91" pos="768" pan="0" len="168" vol="2" />
          <note key="90" pos="936" pan="0" len="24" vol="100" />
          <note key="89" pos="960" pan="0" len="180" vol="100" />
          <note key="79" pos="1152" pan="0" len="168" vol="2" />
          <note key="81" pos="1320" pan="0" len="24" vol="100" />
          <note key="82" pos="1344" pan="0" len="180" vol="100" />
        </pattern>
        <pattern pos="50688" muted="0" steps="16" name="" type="1">
          <note key="79" pos="384" pan="0" len="168" vol="2" />
          <note key="78" pos="552" pan="0" len="24" vol="100" />
          <note key="77" pos="576" pan="0" len="180" vol="100" />
          <note key="91" pos="768" pan="0" len="168" vol="2" />
          <note key="90" pos="936" pan="0" len="24" vol="100" />
          <note key="89" pos="960" pan="0" len="180" vol="100" />
          <note key="79" pos="1152" pan="0" len="168" vol="2" />
          <note key="81" pos="1320" pan="0" len="24" vol="100" />
          <note key="82" pos="1344" pan="0" len="180" vol="100" />
        </pattern>
        <pattern pos="224268" muted="0" steps="16" name="" type="1">
          <note key="91" pos="240" pan="0" len="132" vol="2" />
          <note key="91" pos="1008" pan="0" len="132" vol="2" />
        </pattern>
      </track>
      <track solo="0" name="54 (Ch8)" type="0" muted="0">
        <instrumenttrack usemasterpitch="1" pitch="0.0" basenote="57" pan="0" pitchrange="12" vol="30">
          <eldata />
          <instrument name="tripleoscillator" />
        </instrumenttrack>
        <pattern pos="194316" muted="0" steps="16" name="" type="1">
          <note key="88" pos="0" pan="0" len="192" vol="23" />
          <note key="91" pos="192" pan="0" len="192" vol="23" />
          <note key="93" pos="384" pan="0" len="384" vol="23" />
          <note key="88" pos="768" pan="0" len="192" vol="23" />
          <note key="91" pos="960" pan="0" len="192" vol="23" />
          <note key="93" pos="1152" pan="0" len="384" vol="23" />
        </pattern>
        <pattern pos="115968" muted="0" steps="16" name="" type="1">
          <note key="82" pos="72" pan="0" len="72" vol="34" />
          <note key="82" pos="648" pan="0" len="72" vol="34" />
          <note key="80" pos="1800" pan="0" len="72" vol="34" />
        </pattern>
        <pattern pos="118272" muted="0" steps="16" name="" type="1">
          <note key="86" pos="48" pan="0" len="24" vol="17" />
        </pattern>
        <pattern pos="120576" muted="0" steps="16" name="" type="1">
          <note key="82" pos="72" pan="0" len="72" vol="34" />
          <note key="82" pos="648" pan="0" len="72" vol="34" />
          <note key="80" pos="1800" pan="0" len="72" vol="34" />
        </pattern>
        <pattern pos="165132" muted="0" steps="16" name="" type="1">
          <note key="101" pos="288" pan="0" len="96" vol="33" />
          <note key="107" pos="672" pan="0" len="96" vol="33" />
        </pattern>
        <pattern pos="189708" muted="0" steps="16" name="" type="1">
          <note key="88" pos="0" pan="0" len="192" vol="23" />
          <note key="91" pos="192" pan="0" len="192" vol="23" />
          <note key="93" pos="384" pan="0" len="384" vol="23" />
          <note key="88" pos="768" pan="0" len="192" vol="23" />
          <note key="91" pos="960" pan="0" len="192" vol="23" />
          <note key="93" pos="1152" pan="0" len="384" vol="23" />
        </pattern>
      </track>
      <track solo="0" name="54 (Ch9)" type="0" muted="0">
        <instrumenttrack usemasterpitch="1" pitch="0.0" basenote="57" pan="0" pitchrange="12" vol="30">
          <eldata />
          <instrument name="tripleoscillator" />
        </instrumenttrack>
        <pattern pos="165132" muted="0" steps="16" name="" type="1">
          <note key="96" pos="288" pan="0" len="96" vol="33" />
          <note key="102" pos="672" pan="0" len="96" vol="33" />
        </pattern>
        <pattern pos="0" muted="0" steps="16" name="" type="1">
          <note key="96" pos="384" pan="0" len="192" vol="2" />
          <note key="96" pos="960" pan="0" len="192" vol="2" />
          <note key="96" pos="1344" pan="0" len="168" vol="19" />
        </pattern>
        <pattern pos="35328" muted="0" steps="16" name="" type="1">
          <note key="96" pos="720" pan="0" len="816" vol="2" />
        </pattern>
        <pattern pos="115968" muted="0" steps="16" name="" type="1">
          <note key="86" pos="72" pan="0" len="72" vol="34" />
          <note key="86" pos="648" pan="0" len="72" vol="34" />
          <note key="84" pos="1800" pan="0" len="72" vol="34" />
        </pattern>
        <pattern pos="118272" muted="0" steps="16" name="" type="1">
          <note key="89" pos="48" pan="0" len="24" vol="17" />
        </pattern>
        <pattern pos="120576" muted="0" steps="16" name="" type="1">
          <note key="86" pos="72" pan="0" len="72" vol="34" />
          <note key="86" pos="648" pan="0" len="72" vol="34" />
          <note key="84" pos="1800" pan="0" len="72" vol="34" />
        </pattern>
      </track>
      <track solo="0" name="54 (Ch10)" type="0" muted="0">
        <instrumenttrack usemasterpitch="1" pitch="0.0" basenote="57" pan="0" pitchrange="12" vol="30">
          <eldata />
          <instrument name="tripleoscillator" />
        </instrumenttrack>
        <pattern pos="221196" muted="0" steps="16" name="" type="1">
          <note key="94" pos="0" pan="0" len="768" vol="11" />
        </pattern>
        <pattern pos="38400" muted="0" steps="16" name="" type="1">
          <note key="84" pos="96" pan="0" len="96" vol="2" />
          <note key="86" pos="192" pan="0" len="144" vol="69" />
          <note key="84" pos="480" pan="0" len="96" vol="2" />
          <note key="86" pos="576" pan="0" len="144" vol="69" />
          <note key="84" pos="864" pan="0" len="96" vol="2" />
          <note key="86" pos="960" pan="0" len="144" vol="69" />
          <note key="87" pos="1248" pan="0" len="96" vol="2" />
          <note key="89" pos="1344" pan="0" len="144" vol="69" />
        </pattern>
        <pattern pos="115968" muted="0" steps="16" name="" type="1">
          <note key="91" pos="72" pan="0" len="72" vol="34" />
          <note key="91" pos="648" pan="0" len="72" vol="34" />
          <note key="89" pos="1800" pan="0" len="72" vol="34" />
        </pattern>
        <pattern pos="118272" muted="0" steps="16" name="" type="1">
          <note key="93" pos="48" pan="0" len="24" vol="17" />
        </pattern>
        <pattern pos="120576" muted="0" steps="16" name="" type="1">
          <note key="91" pos="72" pan="0" len="72" vol="34" />
          <note key="91" pos="648" pan="0" len="72" vol="34" />
          <note key="89" pos="1800" pan="0" len="72" vol="34" />
        </pattern>
      </track>
      <track solo="0" name="54 (Ch11)" type="0" muted="0">
        <instrumenttrack usemasterpitch="1" pitch="0.0" basenote="57" pan="0" pitchrange="12" vol="30">
          <eldata />
          <instrument name="tripleoscillator" />
        </instrumenttrack>
        <pattern pos="221196" muted="0" steps="16" name="" type="1">
          <note key="106" pos="0" pan="0" len="1536" vol="5" />
        </pattern>
        <pattern pos="38400" muted="0" steps="16" name="" type="1">
          <note key="88" pos="96" pan="0" len="96" vol="2" />
          <note key="90" pos="192" pan="0" len="144" vol="69" />
          <note key="88" pos="480" pan="0" len="96" vol="2" />
          <note key="90" pos="576" pan="0" len="144" vol="69" />
          <note key="88" pos="864" pan="0" len="96" vol="2" />
          <note key="90" pos="960" pan="0" len="144" vol="69" />
          <note key="91" pos="1248" pan="0" len="96" vol="2" />
          <note key="93" pos="1344" pan="0" len="144" vol="69" />
        </pattern>
        <pattern pos="44544" muted="0" steps="16" name="" type="1">
          <note key="98" pos="0" pan="0" len="1464" vol="8" />
        </pattern>
        <pattern pos="47616" muted="0" steps="16" name="" type="1">
          <note key="98" pos="0" pan="0" len="1464" vol="8" />
        </pattern>
        <pattern pos="50688" muted="0" steps="16" name="" type="1">
          <note key="98" pos="0" pan="0" len="1464" vol="8" />
        </pattern>
        <pattern pos="169740" muted="0" steps="16" name="" type="1">
          <note key="100" pos="0" pan="0" len="576" vol="17" />
        </pattern>
      </track>
      <track solo="0" name="54 (Ch12)" type="0" muted="0">
        <instrumenttrack usemasterpitch="1" pitch="0.0" basenote="57" pan="0" pitchrange="12" vol="30">
          <eldata />
          <instrument name="tripleoscillator" />
        </instrumenttrack>
        <pattern pos="169740" muted="0" steps="16" name="" type="1">
          <note key="112" pos="0" pan="0" len="528" vol="11" />
        </pattern>
        <pattern pos="3072" muted="0" steps="16" name="" type="1">
          <note key="98" pos="564" pan="0" len="108" vol="2" />
        </pattern>
        <pattern pos="38400" muted="0" steps="16" name="" type="1">
          <note key="91" pos="96" pan="0" len="96" vol="2" />
          <note key="93" pos="192" pan="0" len="144" vol="69" />
          <note key="91" pos="480" pan="0" len="96" vol="2" />
          <note key="93" pos="576" pan="0" len="144" vol="69" />
          <note key="91" pos="864" pan="0" len="96" vol="2" />
          <note key="93" pos="960" pan="0" len="144" vol="69" />
          <note key="94" pos="1248" pan="0" len="96" vol="2" />
          <note key="96" pos="1344" pan="0" len="144" vol="69" />
        </pattern>
        <pattern pos="39936" muted="0" steps="16" name="" type="1">
          <note key="101" pos="0" pan="0" len="1536" vol="2" />
        </pattern>
      </track>
      <track solo="0" name="54 (Ch14)" type="0" muted="0">
        <instrumenttrack usemasterpitch="1" pitch="0.0" basenote="57" pan="0" pitchrange="12" vol="30">
          <eldata />
          <instrument name="tripleoscillator" />
        </instrumenttrack>
        <pattern pos="169740" muted="0" steps="16" name="" type="1">
          <note key="86" pos="1152" pan="0" len="24" vol="100" />
          <note key="82" pos="1176" pan="0" len="24" vol="100" />
          <note key="77" pos="1200" pan="0" len="24" vol="100" />
          <note key="84" pos="1224" pan="0" len="24" vol="100" />
        </pattern>
        <pattern pos="92160" muted="0" steps="16" name="" type="1">
          <note key="50" pos="0" pan="0" len="1536" vol="16" />
        </pattern>
        <pattern pos="110592" muted="0" steps="16" name="" type="1">
          <note key="50" pos="0" pan="0" len="1536" vol="16" />
        </pattern>
      </track>
      <track solo="0" name="54 (Ch15)" type="0" muted="0">
        <instrumenttrack usemasterpitch="1" pitch="0.0" basenote="57" pan="0" pitchrange="12" vol="30">
          <eldata />
          <instrument name="tripleoscillator" />
        </instrumenttrack>
        <pattern pos="85248" muted="0" steps="16" name="" type="1">
          <note key="101" pos="0" pan="0" len="1152" vol="2" />
        </pattern>
        <pattern pos="73728" muted="0" steps="16" name="" type="1">
          <note key="101" pos="0" pan="0" len="1152" vol="2" />
        </pattern>
      </track>
      <track solo="0" name="54 (Ch16)" type="0" muted="0">
        <instrumenttrack usemasterpitch="1" pitch="0.0" basenote="57" pan="0" pitchrange="12" vol="30">
          <eldata />
          <instrument name="tripleoscillator" />
        </instrumenttrack>
        <pattern pos="87552" muted="0" steps="16" name="" type="1">
          <note key="98" pos="0" pan="0" len="1152" vol="2" />
        </pattern>
        <pattern pos="76032" muted="0" steps="16" name="" type="1">
          <note key="98" pos="0" pan="0" len="1152" vol="2" />
        </pattern>
      </track>
      <track solo="0" name="54 (Ch18)" type="0" muted="0">
        <instrumenttrack usemasterpitch="1" pitch="0.0" basenote="57" pan="0" pitchrange="12" vol="30">
          <eldata />
          <instrument name="tripleoscillator" />
        </instrumenttrack>
        <pattern pos="218892" muted="0" steps="16" name="" type="1">
          <note key="102" pos="0" pan="0" len="192" vol="2" />
          <note key="102" pos="192" pan="0" len="192" vol="2" />
          <note key="102" pos="384" pan="0" len="192" vol="2" />
          <note key="102" pos="576" pan="0" len="192" vol="2" />
          <note key="102" pos="768" pan="0" len="192" vol="2" />
          <note key="102" pos="960" pan="0" len="192" vol="2" />
          <note key="102" pos="1152" pan="0" len="192" vol="2" />
          <note key="102" pos="1344" pan="0" len="192" vol="2" />
        </pattern>
        <pattern pos="205068" muted="0" steps="16" name="" type="1">
          <note key="102" pos="0" pan="0" len="192" vol="2" />
          <note key="102" pos="192" pan="0" len="192" vol="2" />
          <note key="109" pos="384" pan="0" len="192" vol="2" />
          <note key="109" pos="576" pan="0" len="192" vol="2" />
          <note key="107" pos="768" pan="0" len="192" vol="2" />
          <note key="107" pos="960" pan="0" len="192" vol="2" />
          <note key="102" pos="1152" pan="0" len="192" vol="2" />
          <note key="98" pos="1344" pan="0" len="192" vol="2" />
        </pattern>
        <pattern pos="206604" muted="0" steps="16" name="" type="1">
          <note key="102" pos="0" pan="0" len="192" vol="2" />
          <note key="102" pos="192" pan="0" len="192" vol="2" />
          <note key="109" pos="384" pan="0" len="192" vol="2" />
          <note key="109" pos="576" pan="0" len="192" vol="2" />
          <note key="107" pos="768" pan="0" len="192" vol="2" />
          <note key="107" pos="960" pan="0" len="192" vol="2" />
          <note key="102" pos="1152" pan="0" len="192" vol="2" />
          <note key="98" pos="1344" pan="0" len="192" vol="2" />
        </pattern>
        <pattern pos="208140" muted="0" steps="16" name="" type="1">
          <note key="105" pos="0" pan="0" len="192" vol="2" />
          <note key="105" pos="192" pan="0" len="192" vol="2" />
          <note key="109" pos="384" pan="0" len="192" vol="2" />
          <note key="109" pos="576" pan="0" len="192" vol="2" />
          <note key="102" pos="768" pan="0" len="192" vol="2" />
          <note key="102" pos="960" pan="0" len="192" vol="2" />
          <note key="98" pos="1152" pan="0" len="192" vol="2" />
          <note key="98" pos="1344" pan="0" len="192" vol="2" />
        </pattern>
        <pattern pos="209676" muted="0" steps="16" name="" type="1">
          <note key="105" pos="0" pan="0" len="192" vol="2" />
          <note key="105" pos="192" pan="0" len="192" vol="2" />
          <note key="109" pos="384" pan="0" len="192" vol="2" />
          <note key="109" pos="576" pan="0" len="192" vol="2" />
          <note key="102" pos="768" pan="0" len="192" vol="2" />
          <note key="102" pos="960" pan="0" len="192" vol="2" />
          <note key="98" pos="1152" pan="0" len="192" vol="2" />
          <note key="98" pos="1344" pan="0" len="192" vol="2" />
        </pattern>
        <pattern pos="211212" muted="0" steps="16" name="" type="1">
          <note key="102" pos="0" pan="0" len="192" vol="2" />
          <note key="102" pos="192" pan="0" len="192" vol="2" />
          <note key="102" pos="384" pan="0" len="192" vol="2" />
          <note key="102" pos="576" pan="0" len="192" vol="2" />
          <note key="102" pos="768" pan="0" len="192" vol="2" />
          <note key="102" pos="960" pan="0" len="192" vol="2" />
          <note key="102" pos="1152" pan="0" len="192" vol="2" />
          <note key="102" pos="1344" pan="0" len="192" vol="2" />
        </pattern>
        <pattern pos="212748" muted="0" steps="16" name="" type="1">
          <note key="102" pos="0" pan="0" len="192" vol="2" />
          <note key="102" pos="192" pan="0" len="192" vol="2" />
          <note key="109" pos="384" pan="0" len="192" vol="2" />
          <note key="109" pos="576" pan="0" len="192" vol="2" />
          <note key="107" pos="768" pan="0" len="192" vol="2" />
          <note key="107" pos="960" pan="0" len="192" vol="2" />
          <note key="102" pos="1152" pan="0" len="192" vol="2" />
          <note key="98" pos="1344" pan="0" len="192" vol="2" />
        </pattern>
        <pattern pos="214284" muted="0" steps="16" name="" type="1">
          <note key="102" pos="0" pan="0" len="192" vol="2" />
          <note key="102" pos="192" pan="0" len="192" vol="2" />
          <note key="109" pos="384" pan="0" len="192" vol="2" />
          <note key="109" pos="576" pan="0" len="192" vol="2" />
          <note key="107" pos="768" pan="0" len="192" vol="2" />
          <note key="107" pos="960" pan="0" len="192" vol="2" />
          <note key="102" pos="1152" pan="0" len="192" vol="2" />
          <note key="98" pos="1344" pan="0" len="192" vol="2" />
        </pattern>
        <pattern pos="215820" muted="0" steps="16" name="" type="1">
          <note key="105" pos="0" pan="0" len="192" vol="2" />
          <note key="105" pos="192" pan="0" len="192" vol="2" />
          <note key="109" pos="384" pan="0" len="192" vol="2" />
          <note key="109" pos="576" pan="0" len="192" vol="2" />
          <note key="102" pos="768" pan="0" len="192" vol="2" />
          <note key="102" pos="960" pan="0" len="192" vol="2" />
          <note key="98" pos="1152" pan="0" len="192" vol="2" />
          <note key="98" pos="1344" pan="0" len="192" vol="2" />
        </pattern>
        <pattern pos="217356" muted="0" steps="16" name="" type="1">
          <note key="105" pos="0" pan="0" len="192" vol="2" />
          <note key="105" pos="192" pan="0" len="192" vol="2" />
          <note key="109" pos="384" pan="0" len="192" vol="2" />
          <note key="109" pos="576" pan="0" len="192" vol="2" />
          <note key="102" pos="768" pan="0" len="192" vol="2" />
          <note key="102" pos="960" pan="0" len="192" vol="2" />
          <note key="98" pos="1152" pan="0" len="192" vol="2" />
          <note key="98" pos="1344" pan="0" len="192" vol="2" />
        </pattern>
      </track>
      <track solo="0" name="54 (Ch19)" type="0" muted="0">
        <instrumenttrack usemasterpitch="1" pitch="0.0" basenote="57" pan="0" pitchrange="12" vol="30">
          <eldata />
          <instrument name="tripleoscillator" />
        </instrumenttrack>
        <pattern pos="218892" muted="0" steps="16" name="" type="1">
          <note key="99" pos="0" pan="0" len="192" vol="2" />
          <note key="99" pos="192" pan="0" len="192" vol="2" />
          <note key="99" pos="384" pan="0" len="192" vol="2" />
          <note key="99" pos="576" pan="0" len="192" vol="2" />
          <note key="99" pos="768" pan="0" len="192" vol="2" />
          <note key="99" pos="960" pan="0" len="192" vol="2" />
          <note key="99" pos="1152" pan="0" len="192" vol="2" />
          <note key="99" pos="1344" pan="0" len="192" vol="2" />
        </pattern>
        <pattern pos="205068" muted="0" steps="16" name="" type="1">
          <note key="99" pos="0" pan="0" len="192" vol="2" />
          <note key="99" pos="192" pan="0" len="192" vol="2" />
          <note key="106" pos="384" pan="0" len="192" vol="2" />
          <note key="106" pos="576" pan="0" len="192" vol="2" />
          <note key="104" pos="768" pan="0" len="192" vol="2" />
          <note key="104" pos="960" pan="0" len="192" vol="2" />
          <note key="99" pos="1152" pan="0" len="192" vol="2" />
          <note key="95" pos="1344" pan="0" len="192" vol="2" />
        </pattern>
        <pattern pos="206604" muted="0" steps="16" name="" type="1">
          <note key="99" pos="0" pan="0" len="192" vol="2" />
          <note key="99" pos="192" pan="0" len="192" vol="2" />
          <note key="106" pos="384" pan="0" len="192" vol="2" />
          <note key="106" pos="576" pan="0" len="192" vol="2" />
          <note key="104" pos="768" pan="0" len="192" vol="2" />
          <note key="104" pos="960" pan="0" len="192" vol="2" />
          <note key="99" pos="1152" pan="0" len="192" vol="2" />
          <note key="95" pos="1344" pan="0" len="192" vol="2" />
        </pattern>
        <pattern pos="208140" muted="0" steps="16" name="" type="1">
          <note key="102" pos="0" pan="0" len="192" vol="2" />
          <note key="102" pos="192" pan="0" len="192" vol="2" />
          <note key="106" pos="384" pan="0" len="192" vol="2" />
          <note key="106" pos="576" pan="0" len="192" vol="2" />
          <note key="99" pos="768" pan="0" len="192" vol="2" />
          <note key="99" pos="960" pan="0" len="192" vol="2" />
          <note key="95" pos="1152" pan="0" len="192" vol="2" />
          <note key="95" pos="1344" pan="0" len="192" vol="2" />
        </pattern>
        <pattern pos="209676" muted="0" steps="16" name="" type="1">
          <note key="102" pos="0" pan="0" len="192" vol="2" />
          <note key="102" pos="192" pan="0" len="192" vol="2" />
          <note key="106" pos="384" pan="0" len="192" vol="2" />
          <note key="106" pos="576" pan="0" len="192" vol="2" />
          <note key="99" pos="768" pan="0" len="192" vol="2" />
          <note key="99" pos="960" pan="0" len="192" vol="2" />
          <note key="95" pos="1152" pan="0" len="192" vol="2" />
          <note key="95" pos="1344" pan="0" len="192" vol="2" />
        </pattern>
        <pattern pos="211212" muted="0" steps="16" name="" type="1">
          <note key="99" pos="0" pan="0" len="192" vol="2" />
          <note key="99" pos="192" pan="0" len="192" vol="2" />
          <note key="99" pos="384" pan="0" len="192" vol="2" />
          <note key="99" pos="576" pan="0" len="192" vol="2" />
          <note key="99" pos="768" pan="0" len="192" vol="2" />
          <note key="99" pos="960" pan="0" len="192" vol="2" />
          <note key="99" pos="1152" pan="0" len="192" vol="2" />
          <note key="99" pos="1344" pan="0" len="192" vol="2" />
        </pattern>
        <pattern pos="212748" muted="0" steps="16" name="" type="1">
          <note key="99" pos="0" pan="0" len="192" vol="2" />
          <note key="99" pos="192" pan="0" len="192" vol="2" />
          <note key="106" pos="384" pan="0" len="192" vol="2" />
          <note key="106" pos="576" pan="0" len="192" vol="2" />
          <note key="104" pos="768" pan="0" len="192" vol="2" />
          <note key="104" pos="960" pan="0" len="192" vol="2" />
          <note key="99" pos="1152" pan="0" len="192" vol="2" />
          <note key="95" pos="1344" pan="0" len="192" vol="2" />
        </pattern>
        <pattern pos="214284" muted="0" steps="16" name="" type="1">
          <note key="99" pos="0" pan="0" len="192" vol="2" />
          <note key="99" pos="192" pan="0" len="192" vol="2" />
          <note key="106" pos="384" pan="0" len="192" vol="2" />
          <note key="106" pos="576" pan="0" len="192" vol="2" />
          <note key="104" pos="768" pan="0" len="192" vol="2" />
          <note key="104" pos="960" pan="0" len="192" vol="2" />
          <note key="99" pos="1152" pan="0" len="192" vol="2" />
          <note key="95" pos="1344" pan="0" len="192" vol="2" />
        </pattern>
        <pattern pos="215820" muted="0" steps="16" name="" type="1">
          <note key="102" pos="0" pan="0" len="192" vol="2" />
          <note key="102" pos="192" pan="0" len="192" vol="2" />
          <note key="106" pos="384" pan="0" len="192" vol="2" />
          <note key="106" pos="576" pan="0" len="192" vol="2" />
          <note key="99" pos="768" pan="0" len="192" vol="2" />
          <note key="99" pos="960" pan="0" len="192" vol="2" />
          <note key="95" pos="1152" pan="0" len="192" vol="2" />
          <note key="95" pos="1344" pan="0" len="192" vol="2" />
        </pattern>
        <pattern pos="217356" muted="0" steps="16" name="" type="1">
          <note key="102" pos="0" pan="0" len="192" vol="2" />
          <note key="102" pos="192" pan="0" len="192" vol="2" />
          <note key="106" pos="384" pan="0" len="192" vol="2" />
          <note key="106" pos="576" pan="0" len="192" vol="2" />
          <note key="99" pos="768" pan="0" len="192" vol="2" />
          <note key="99" pos="960" pan="0" len="192" vol="2" />
          <note key="95" pos="1152" pan="0" len="192" vol="2" />
          <note key="95" pos="1344" pan="0" len="192" vol="2" />
        </pattern>
      </track>
      <track solo="0" name="55 (Ch1)" type="0" muted="0">
        <instrumenttrack usemasterpitch="1" pitch="0.0" basenote="57" pan="0" pitchrange="12" vol="30">
          <eldata />
          <instrument name="tripleoscillator" />
        </instrumenttrack>
        <pattern pos="55296" muted="0" steps="16" name="" type="1">
          <note key="62" pos="384" pan="0" len="48" vol="100" />
          <note key="67" pos="432" pan="0" len="48" vol="100" />
          <note key="62" pos="480" pan="0" len="96" vol="100" />
          <note key="60" pos="576" pan="0" len="48" vol="100" />
          <note key="67" pos="624" pan="0" len="48" vol="100" />
          <note key="62" pos="672" pan="0" len="96" vol="100" />
          <note key="62" pos="768" pan="0" len="48" vol="100" />
          <note key="67" pos="816" pan="0" len="48" vol="100" />
          <note key="62" pos="864" pan="0" len="96" vol="100" />
          <note key="60" pos="960" pan="0" len="48" vol="100" />
          <note key="67" pos="1008" pan="0" len="48" vol="100" />
          <note key="62" pos="1056" pan="0" len="96" vol="100" />
        </pattern>
      </track>
      <track solo="0" name="55 (Ch3)" type="0" muted="0">
        <instrumenttrack usemasterpitch="1" pitch="0.0" basenote="57" pan="0" pitchrange="12" vol="30">
          <eldata />
          <instrument name="tripleoscillator" />
        </instrumenttrack>
        <pattern pos="169740" muted="0" steps="16" name="" type="1">
          <note key="60" pos="1536" pan="0" len="192" vol="100" />
        </pattern>
      </track>
      <track solo="0" name="55 (Ch4)" type="0" muted="0">
        <instrumenttrack usemasterpitch="1" pitch="0.0" basenote="57" pan="0" pitchrange="12" vol="30">
          <eldata />
          <instrument name="tripleoscillator" />
        </instrumenttrack>
        <pattern pos="55296" muted="0" steps="16" name="" type="1">
          <note key="62" pos="0" pan="0" len="288" vol="50" />
        </pattern>
      </track>
      <track solo="0" name="55 (Ch9)" type="0" muted="0">
        <instrumenttrack usemasterpitch="1" pitch="0.0" basenote="57" pan="0" pitchrange="12" vol="30">
          <eldata />
          <instrument name="tripleoscillator" />
        </instrumenttrack>
        <pattern pos="109056" muted="0" steps="16" name="" type="1">
          <note key="66" pos="0" pan="0" len="168" vol="100" />
          <note key="61" pos="768" pan="0" len="168" vol="100" />
        </pattern>
        <pattern pos="107520" muted="0" steps="16" name="" type="1">
          <note key="66" pos="0" pan="0" len="168" vol="100" />
          <note key="61" pos="768" pan="0" len="168" vol="100" />
        </pattern>
      </track>
      <track solo="0" name="55 (Ch14)" type="0" muted="0">
        <instrumenttrack usemasterpitch="1" pitch="0.0" basenote="57" pan="0" pitchrange="12" vol="30">
          <eldata />
          <instrument name="tripleoscillator" />
        </instrumenttrack>
        <pattern pos="110592" muted="0" steps="16" name="" type="1">
          <note key="62" pos="1536" pan="0" len="624" vol="100" />
        </pattern>
        <pattern pos="92160" muted="0" steps="16" name="" type="1">
          <note key="62" pos="1536" pan="0" len="624" vol="100" />
        </pattern>
      </track>
      <track solo="0" name="56 (Ch3)" type="0" muted="0">
        <instrumenttrack usemasterpitch="1" pitch="0.0" basenote="57" pan="0" pitchrange="12" vol="30">
          <eldata />
          <instrument name="tripleoscillator" />
        </instrumenttrack>
        <pattern pos="185100" muted="0" steps="16" name="" type="1">
          <note key="57" pos="324" pan="0" len="12" vol="100" />
          <note key="57" pos="1464" pan="0" len="24" vol="100" />
        </pattern>
      </track>
      <track solo="0" name="56 (Ch7)" type="0" muted="0">
        <instrumenttrack usemasterpitch="1" pitch="0.0" basenote="57" pan="0" pitchrange="12" vol="30">
          <eldata />
          <instrument name="tripleoscillator" />
        </instrumenttrack>
        <pattern pos="272988" muted="0" steps="16" name="" type="1">
          <note key="54" pos="180" pan="0" len="36" vol="94" />
          <note key="54" pos="468" pan="0" len="36" vol="94" />
          <note key="54" pos="756" pan="0" len="36" vol="94" />
          <note key="54" pos="1044" pan="0" len="36" vol="94" />
        </pattern>
        <pattern pos="203532" muted="0" steps="16" name="" type="1">
          <note key="60" pos="1488" pan="0" len="48" vol="2" />
        </pattern>
        <pattern pos="211212" muted="0" steps="16" name="" type="1">
          <note key="60" pos="72" pan="0" len="24" vol="100" />
          <note key="60" pos="276" pan="0" len="12" vol="100" />
          <note key="60" pos="456" pan="0" len="24" vol="100" />
          <note key="60" pos="660" pan="0" len="12" vol="100" />
          <note key="60" pos="840" pan="0" len="24" vol="100" />
          <note key="60" pos="1044" pan="0" len="12" vol="100" />
          <note key="60" pos="1224" pan="0" len="24" vol="100" />
          <note key="60" pos="1428" pan="0" len="12" vol="100" />
        </pattern>
        <pattern pos="212748" muted="0" steps="16" name="" type="1">
          <note key="60" pos="72" pan="0" len="24" vol="100" />
          <note key="60" pos="276" pan="0" len="12" vol="100" />
          <note key="60" pos="456" pan="0" len="24" vol="100" />
          <note key="60" pos="660" pan="0" len="12" vol="100" />
          <note key="60" pos="840" pan="0" len="24" vol="100" />
          <note key="60" pos="1044" pan="0" len="12" vol="100" />
          <note key="60" pos="1224" pan="0" len="24" vol="100" />
          <note key="60" pos="1428" pan="0" len="12" vol="100" />
        </pattern>
        <pattern pos="214284" muted="0" steps="16" name="" type="1">
          <note key="60" pos="72" pan="0" len="24" vol="100" />
          <note key="60" pos="276" pan="0" len="12" vol="100" />
          <note key="60" pos="456" pan="0" len="24" vol="100" />
          <note key="60" pos="660" pan="0" len="12" vol="100" />
          <note key="60" pos="840" pan="0" len="24" vol="100" />
          <note key="60" pos="1044" pan="0" len="12" vol="100" />
          <note key="60" pos="1224" pan="0" len="24" vol="100" />
          <note key="60" pos="1428" pan="0" len="12" vol="100" />
        </pattern>
      </track>
      <track solo="0" name="56 (Ch8)" type="0" muted="0">
        <instrumenttrack usemasterpitch="1" pitch="0.0" basenote="57" pan="0" pitchrange="12" vol="30">
          <eldata />
          <instrument name="tripleoscillator" />
        </instrumenttrack>
        <pattern pos="105984" muted="0" steps="16" name="" type="1">
          <note key="51" pos="96" pan="0" len="96" vol="100" />
          <note key="51" pos="336" pan="0" len="48" vol="100" />
          <note key="51" pos="672" pan="0" len="96" vol="100" />
          <note key="51" pos="864" pan="0" len="96" vol="100" />
          <note key="51" pos="1104" pan="0" len="48" vol="100" />
          <note key="51" pos="1296" pan="0" len="48" vol="100" />
          <note key="51" pos="1440" pan="0" len="96" vol="100" />
        </pattern>
        <pattern pos="56448" muted="0" steps="16" name="" type="1">
          <note key="60" pos="528" pan="0" len="12" vol="34" />
          <note key="60" pos="1104" pan="0" len="12" vol="34" />
        </pattern>
        <pattern pos="57600" muted="0" steps="16" name="" type="1">
          <note key="60" pos="36" pan="0" len="36" vol="34" />
          <note key="60" pos="108" pan="0" len="36" vol="34" />
          <note key="60" pos="204" pan="0" len="12" vol="34" />
          <note key="60" pos="324" pan="0" len="36" vol="34" />
          <note key="60" pos="396" pan="0" len="36" vol="34" />
          <note key="60" pos="492" pan="0" len="12" vol="34" />
          <note key="60" pos="612" pan="0" len="36" vol="34" />
          <note key="60" pos="684" pan="0" len="36" vol="34" />
          <note key="60" pos="780" pan="0" len="12" vol="34" />
          <note key="60" pos="900" pan="0" len="36" vol="34" />
          <note key="60" pos="972" pan="0" len="36" vol="34" />
          <note key="60" pos="1068" pan="0" len="12" vol="34" />
        </pattern>
        <pattern pos="58752" muted="0" steps="16" name="" type="1">
          <note key="60" pos="528" pan="0" len="12" vol="34" />
        </pattern>
        <pattern pos="59904" muted="0" steps="16" name="" type="1">
          <note key="60" pos="36" pan="0" len="36" vol="34" />
          <note key="60" pos="108" pan="0" len="36" vol="34" />
          <note key="60" pos="204" pan="0" len="12" vol="34" />
          <note key="60" pos="324" pan="0" len="36" vol="34" />
          <note key="60" pos="396" pan="0" len="36" vol="34" />
          <note key="60" pos="492" pan="0" len="12" vol="34" />
          <note key="60" pos="612" pan="0" len="36" vol="34" />
          <note key="60" pos="684" pan="0" len="36" vol="34" />
          <note key="60" pos="780" pan="0" len="12" vol="34" />
          <note key="60" pos="900" pan="0" len="36" vol="34" />
          <note key="60" pos="972" pan="0" len="36" vol="34" />
          <note key="60" pos="1068" pan="0" len="12" vol="34" />
        </pattern>
        <pattern pos="61056" muted="0" steps="16" name="" type="1">
          <note key="60" pos="36" pan="0" len="36" vol="34" />
          <note key="60" pos="108" pan="0" len="36" vol="34" />
          <note key="60" pos="204" pan="0" len="12" vol="34" />
          <note key="60" pos="324" pan="0" len="36" vol="34" />
          <note key="60" pos="396" pan="0" len="36" vol="34" />
          <note key="60" pos="492" pan="0" len="12" vol="34" />
          <note key="60" pos="612" pan="0" len="36" vol="34" />
          <note key="60" pos="684" pan="0" len="36" vol="34" />
          <note key="60" pos="780" pan="0" len="12" vol="34" />
          <note key="60" pos="900" pan="0" len="36" vol="34" />
          <note key="60" pos="972" pan="0" len="36" vol="34" />
          <note key="60" pos="1068" pan="0" len="12" vol="34" />
        </pattern>
        <pattern pos="62208" muted="0" steps="16" name="" type="1">
          <note key="60" pos="528" pan="0" len="12" vol="34" />
        </pattern>
        <pattern pos="63360" muted="0" steps="16" name="" type="1">
          <note key="60" pos="36" pan="0" len="36" vol="34" />
          <note key="60" pos="108" pan="0" len="36" vol="34" />
          <note key="60" pos="204" pan="0" len="12" vol="34" />
          <note key="60" pos="324" pan="0" len="36" vol="34" />
          <note key="60" pos="396" pan="0" len="36" vol="34" />
          <note key="60" pos="492" pan="0" len="12" vol="34" />
          <note key="60" pos="612" pan="0" len="36" vol="34" />
          <note key="60" pos="684" pan="0" len="36" vol="34" />
          <note key="60" pos="780" pan="0" len="12" vol="34" />
          <note key="60" pos="900" pan="0" len="36" vol="34" />
          <note key="60" pos="972" pan="0" len="36" vol="34" />
          <note key="60" pos="1068" pan="0" len="12" vol="34" />
        </pattern>
        <pattern pos="64512" muted="0" steps="16" name="" type="1">
          <note key="60" pos="36" pan="0" len="36" vol="34" />
          <note key="60" pos="108" pan="0" len="36" vol="34" />
          <note key="60" pos="204" pan="0" len="12" vol="34" />
          <note key="60" pos="324" pan="0" len="36" vol="34" />
          <note key="60" pos="396" pan="0" len="36" vol="34" />
          <note key="60" pos="492" pan="0" len="12" vol="34" />
          <note key="60" pos="612" pan="0" len="36" vol="34" />
          <note key="60" pos="684" pan="0" len="36" vol="34" />
          <note key="60" pos="780" pan="0" len="12" vol="34" />
          <note key="60" pos="900" pan="0" len="36" vol="34" />
          <note key="60" pos="972" pan="0" len="36" vol="34" />
          <note key="60" pos="1068" pan="0" len="12" vol="34" />
        </pattern>
        <pattern pos="65664" muted="0" steps="16" name="" type="1">
          <note key="60" pos="528" pan="0" len="12" vol="34" />
          <note key="60" pos="1104" pan="0" len="48" vol="34" />
        </pattern>
        <pattern pos="66816" muted="0" steps="16" name="" type="1">
          <note key="60" pos="1080" pan="0" len="72" vol="2" />
          <note key="60" pos="2232" pan="0" len="72" vol="2" />
        </pattern>
        <pattern pos="101376" muted="0" steps="16" name="" type="1">
          <note key="51" pos="96" pan="0" len="96" vol="100" />
          <note key="51" pos="336" pan="0" len="48" vol="100" />
          <note key="51" pos="672" pan="0" len="96" vol="100" />
          <note key="51" pos="864" pan="0" len="96" vol="100" />
          <note key="51" pos="1104" pan="0" len="48" vol="100" />
          <note key="51" pos="1296" pan="0" len="48" vol="100" />
          <note key="51" pos="1440" pan="0" len="96" vol="100" />
        </pattern>
        <pattern pos="102912" muted="0" steps="16" name="" type="1">
          <note key="51" pos="96" pan="0" len="96" vol="100" />
          <note key="51" pos="336" pan="0" len="48" vol="100" />
          <note key="51" pos="672" pan="0" len="96" vol="100" />
          <note key="51" pos="864" pan="0" len="96" vol="100" />
          <note key="51" pos="1104" pan="0" len="48" vol="100" />
          <note key="51" pos="1296" pan="0" len="48" vol="100" />
          <note key="51" pos="1440" pan="0" len="96" vol="100" />
        </pattern>
        <pattern pos="104448" muted="0" steps="16" name="" type="1">
          <note key="51" pos="96" pan="0" len="96" vol="100" />
          <note key="51" pos="336" pan="0" len="48" vol="100" />
          <note key="51" pos="672" pan="0" len="96" vol="100" />
          <note key="51" pos="864" pan="0" len="96" vol="100" />
          <note key="51" pos="1104" pan="0" len="48" vol="100" />
          <note key="51" pos="1296" pan="0" len="48" vol="100" />
          <note key="51" pos="1440" pan="0" len="96" vol="100" />
        </pattern>
      </track>
      <track solo="0" name="56 (Ch9)" type="0" muted="0">
        <instrumenttrack usemasterpitch="1" pitch="0.0" basenote="57" pan="0" pitchrange="12" vol="30">
          <eldata />
          <instrument name="tripleoscillator" />
        </instrumenttrack>
        <pattern pos="109056" muted="0" steps="16" name="" type="1">
          <note key="50" pos="168" pan="0" len="24" vol="100" />
          <note key="50" pos="552" pan="0" len="24" vol="100" />
          <note key="52" pos="936" pan="0" len="24" vol="100" />
          <note key="52" pos="1320" pan="0" len="24" vol="100" />
        </pattern>
        <pattern pos="107520" muted="0" steps="16" name="" type="1">
          <note key="50" pos="168" pan="0" len="24" vol="100" />
          <note key="50" pos="552" pan="0" len="24" vol="100" />
          <note key="52" pos="936" pan="0" len="24" vol="100" />
          <note key="52" pos="1320" pan="0" len="24" vol="100" />
        </pattern>
      </track>
      <track solo="0" name="56 (Ch10)" type="0" muted="0">
        <instrumenttrack usemasterpitch="1" pitch="0.0" basenote="57" pan="0" pitchrange="12" vol="30">
          <eldata />
          <instrument name="tripleoscillator" />
        </instrumenttrack>
        <pattern pos="217356" muted="0" steps="16" name="" type="1">
          <note key="60" pos="72" pan="0" len="24" vol="100" />
          <note key="60" pos="276" pan="0" len="12" vol="100" />
          <note key="60" pos="456" pan="0" len="24" vol="100" />
          <note key="60" pos="660" pan="0" len="12" vol="100" />
          <note key="60" pos="840" pan="0" len="24" vol="100" />
          <note key="60" pos="1044" pan="0" len="12" vol="100" />
          <note key="60" pos="1224" pan="0" len="24" vol="100" />
          <note key="60" pos="1428" pan="0" len="12" vol="100" />
        </pattern>
        <pattern pos="215820" muted="0" steps="16" name="" type="1">
          <note key="60" pos="72" pan="0" len="24" vol="100" />
          <note key="60" pos="276" pan="0" len="12" vol="100" />
          <note key="60" pos="456" pan="0" len="24" vol="100" />
          <note key="60" pos="660" pan="0" len="12" vol="100" />
          <note key="60" pos="840" pan="0" len="24" vol="100" />
          <note key="60" pos="1044" pan="0" len="12" vol="100" />
          <note key="60" pos="1224" pan="0" len="24" vol="100" />
          <note key="60" pos="1428" pan="0" len="12" vol="100" />
        </pattern>
      </track>
      <track solo="0" name="56 (Ch11)" type="0" muted="0">
        <instrumenttrack usemasterpitch="1" pitch="0.0" basenote="57" pan="0" pitchrange="12" vol="30">
          <eldata />
          <instrument name="tripleoscillator" />
        </instrumenttrack>
        <pattern pos="231948" muted="0" steps="16" name="" type="1">
          <note key="60" pos="360" pan="0" len="24" vol="17" />
          <note key="60" pos="744" pan="0" len="24" vol="17" />
          <note key="60" pos="1128" pan="0" len="24" vol="17" />
          <note key="60" pos="1512" pan="0" len="24" vol="17" />
        </pattern>
        <pattern pos="6144" muted="0" steps="16" name="" type="1">
          <note key="60" pos="912" pan="0" len="48" vol="100" />
        </pattern>
        <pattern pos="222732" muted="0" steps="16" name="" type="1">
          <note key="60" pos="1512" pan="0" len="24" vol="17" />
        </pattern>
        <pattern pos="224268" muted="0" steps="16" name="" type="1">
          <note key="60" pos="360" pan="0" len="24" vol="17" />
          <note key="60" pos="744" pan="0" len="24" vol="17" />
        </pattern>
        <pattern pos="230412" muted="0" steps="16" name="" type="1">
          <note key="60" pos="360" pan="0" len="24" vol="17" />
          <note key="60" pos="744" pan="0" len="24" vol="17" />
        </pattern>
      </track>
      <track solo="0" name="56 (Ch14)" type="0" muted="0">
        <instrumenttrack usemasterpitch="1" pitch="0.0" basenote="57" pan="0" pitchrange="12" vol="30">
          <eldata />
          <instrument name="tripleoscillator" />
        </instrumenttrack>
        <pattern pos="7680" muted="0" steps="16" name="" type="1">
          <note key="60" pos="1680" pan="0" len="48" vol="100" />
        </pattern>
      </track>
      <track solo="0" name="56 (Ch15)" type="0" muted="0">
        <instrumenttrack usemasterpitch="1" pitch="0.0" basenote="57" pan="0" pitchrange="12" vol="30">
          <eldata />
          <instrument name="tripleoscillator" />
        </instrumenttrack>
        <pattern pos="120576" muted="0" steps="16" name="" type="1">
          <note key="60" pos="72" pan="0" len="72" vol="34" />
          <note key="60" pos="192" pan="0" len="24" vol="34" />
          <note key="60" pos="264" pan="0" len="24" vol="34" />
          <note key="60" pos="360" pan="0" len="72" vol="34" />
          <note key="60" pos="480" pan="0" len="24" vol="34" />
          <note key="60" pos="552" pan="0" len="24" vol="34" />
          <note key="60" pos="648" pan="0" len="72" vol="34" />
          <note key="60" pos="768" pan="0" len="24" vol="34" />
          <note key="60" pos="840" pan="0" len="24" vol="34" />
          <note key="60" pos="936" pan="0" len="72" vol="34" />
          <note key="60" pos="1056" pan="0" len="24" vol="34" />
          <note key="60" pos="1128" pan="0" len="24" vol="34" />
          <note key="60" pos="1224" pan="0" len="72" vol="34" />
          <note key="60" pos="1344" pan="0" len="24" vol="34" />
          <note key="60" pos="1416" pan="0" len="24" vol="34" />
          <note key="60" pos="1512" pan="0" len="72" vol="34" />
          <note key="60" pos="1632" pan="0" len="24" vol="34" />
          <note key="60" pos="1704" pan="0" len="24" vol="34" />
          <note key="60" pos="1800" pan="0" len="72" vol="34" />
          <note key="60" pos="1920" pan="0" len="24" vol="34" />
          <note key="60" pos="1992" pan="0" len="24" vol="34" />
          <note key="60" pos="2088" pan="0" len="72" vol="34" />
          <note key="60" pos="2208" pan="0" len="24" vol="34" />
          <note key="60" pos="2280" pan="0" len="24" vol="34" />
        </pattern>
        <pattern pos="7680" muted="0" steps="16" name="" type="1">
          <note key="60" pos="168" pan="0" len="24" vol="100" />
        </pattern>
        <pattern pos="10752" muted="0" steps="16" name="" type="1">
          <note key="60" pos="720" pan="0" len="48" vol="100" />
          <note key="60" pos="912" pan="0" len="24" vol="100" />
          <note key="60" pos="1104" pan="0" len="48" vol="100" />
        </pattern>
      </track>
      <track solo="0" name="56 (Ch16)" type="0" muted="0">
        <instrumenttrack usemasterpitch="1" pitch="0.0" basenote="57" pan="0" pitchrange="12" vol="30">
          <eldata />
          <instrument name="tripleoscillator" />
        </instrumenttrack>
        <pattern pos="235020" muted="0" steps="16" name="" type="1">
          <note key="60" pos="120" pan="0" len="24" vol="50" />
          <note key="60" pos="264" pan="0" len="24" vol="50" />
          <note key="60" pos="504" pan="0" len="24" vol="50" />
          <note key="60" pos="648" pan="0" len="24" vol="50" />
          <note key="60" pos="888" pan="0" len="24" vol="50" />
          <note key="60" pos="1032" pan="0" len="24" vol="50" />
          <note key="60" pos="1272" pan="0" len="24" vol="50" />
          <note key="60" pos="1416" pan="0" len="24" vol="50" />
        </pattern>
        <pattern pos="118272" muted="0" steps="16" name="" type="1">
          <note key="60" pos="48" pan="0" len="24" vol="34" />
          <note key="60" pos="192" pan="0" len="24" vol="34" />
          <note key="60" pos="336" pan="0" len="24" vol="34" />
          <note key="60" pos="480" pan="0" len="24" vol="34" />
          <note key="60" pos="624" pan="0" len="24" vol="34" />
          <note key="60" pos="768" pan="0" len="24" vol="34" />
          <note key="60" pos="912" pan="0" len="24" vol="34" />
          <note key="60" pos="1056" pan="0" len="24" vol="34" />
          <note key="60" pos="1200" pan="0" len="24" vol="34" />
          <note key="60" pos="1344" pan="0" len="24" vol="34" />
          <note key="60" pos="1488" pan="0" len="24" vol="34" />
          <note key="60" pos="1632" pan="0" len="24" vol="34" />
          <note key="60" pos="1776" pan="0" len="24" vol="34" />
          <note key="60" pos="1920" pan="0" len="24" vol="34" />
          <note key="60" pos="2064" pan="0" len="24" vol="34" />
          <note key="60" pos="2208" pan="0" len="24" vol="34" />
        </pattern>
        <pattern pos="169740" muted="0" steps="16" name="" type="1">
          <note key="60" pos="1872" pan="0" len="48" vol="100" />
          <note key="60" pos="2100" pan="0" len="12" vol="50" />
        </pattern>
        <pattern pos="208140" muted="0" steps="16" name="" type="1">
          <note key="60" pos="1512" pan="0" len="24" vol="100" />
        </pattern>
        <pattern pos="209676" muted="0" steps="16" name="" type="1">
          <note key="60" pos="1512" pan="0" len="24" vol="100" />
        </pattern>
        <pattern pos="225804" muted="0" steps="16" name="" type="1">
          <note key="60" pos="24" pan="0" len="24" vol="50" />
          <note key="60" pos="216" pan="0" len="24" vol="50" />
          <note key="60" pos="324" pan="0" len="12" vol="50" />
          <note key="60" pos="408" pan="0" len="24" vol="50" />
          <note key="60" pos="600" pan="0" len="24" vol="50" />
          <note key="60" pos="708" pan="0" len="12" vol="50" />
          <note key="60" pos="792" pan="0" len="24" vol="50" />
          <note key="60" pos="984" pan="0" len="24" vol="50" />
          <note key="60" pos="1092" pan="0" len="12" vol="50" />
          <note key="60" pos="1176" pan="0" len="24" vol="50" />
          <note key="60" pos="1368" pan="0" len="24" vol="50" />
          <note key="60" pos="1476" pan="0" len="12" vol="50" />
        </pattern>
        <pattern pos="227340" muted="0" steps="16" name="" type="1">
          <note key="60" pos="120" pan="0" len="24" vol="50" />
          <note key="60" pos="264" pan="0" len="24" vol="50" />
          <note key="60" pos="504" pan="0" len="24" vol="50" />
          <note key="60" pos="648" pan="0" len="24" vol="50" />
          <note key="60" pos="888" pan="0" len="24" vol="50" />
          <note key="60" pos="1032" pan="0" len="24" vol="50" />
          <note key="60" pos="1272" pan="0" len="24" vol="50" />
          <note key="60" pos="1416" pan="0" len="24" vol="50" />
        </pattern>
        <pattern pos="228876" muted="0" steps="16" name="" type="1">
          <note key="60" pos="120" pan="0" len="24" vol="50" />
          <note key="60" pos="264" pan="0" len="24" vol="50" />
          <note key="60" pos="504" pan="0" len="24" vol="50" />
          <note key="60" pos="648" pan="0" len="24" vol="50" />
          <note key="60" pos="888" pan="0" len="24" vol="50" />
          <note key="60" pos="1032" pan="0" len="24" vol="50" />
          <note key="60" pos="1272" pan="0" len="24" vol="50" />
          <note key="60" pos="1416" pan="0" len="24" vol="50" />
        </pattern>
      </track>
      <track solo="0" name="56 (Ch17)" type="0" muted="0">
        <instrumenttrack usemasterpitch="1" pitch="0.0" basenote="57" pan="0" pitchrange="12" vol="30">
          <eldata />
          <instrument name="tripleoscillator" />
        </instrumenttrack>
        <pattern pos="12288" muted="0" steps="16" name="" type="1">
          <note key="60" pos="2640" pan="0" len="48" vol="100" />
        </pattern>
      </track>
      <track solo="0" name="57 (Ch3)" type="0" muted="0">
        <instrumenttrack usemasterpitch="1" pitch="0.0" basenote="57" pan="0" pitchrange="12" vol="30">
          <eldata />
          <instrument name="tripleoscillator" />
        </instrumenttrack>
        <pattern pos="185100" muted="0" steps="16" name="" type="1">
          <note key="57" pos="48" pan="0" len="72" vol="100" />
          <note key="57" pos="120" pan="0" len="12" vol="100" />
          <note key="57" pos="132" pan="0" len="12" vol="100" />
          <note key="57" pos="144" pan="0" len="96" vol="100" />
          <note key="57" pos="240" pan="0" len="84" vol="100" />
          <note key="57" pos="336" pan="0" len="96" vol="100" />
          <note key="57" pos="432" pan="0" len="72" vol="100" />
          <note key="57" pos="504" pan="0" len="12" vol="100" />
          <note key="57" pos="516" pan="0" len="12" vol="100" />
          <note key="57" pos="528" pan="0" len="96" vol="100" />
          <note key="57" pos="624" pan="0" len="72" vol="100" />
          <note key="57" pos="696" pan="0" len="12" vol="100" />
          <note key="57" pos="708" pan="0" len="12" vol="100" />
          <note key="57" pos="720" pan="0" len="96" vol="100" />
          <note key="57" pos="816" pan="0" len="72" vol="100" />
          <note key="57" pos="888" pan="0" len="12" vol="100" />
          <note key="57" pos="900" pan="0" len="12" vol="100" />
          <note key="57" pos="912" pan="0" len="96" vol="100" />
          <note key="57" pos="1008" pan="0" len="72" vol="100" />
          <note key="57" pos="1080" pan="0" len="12" vol="100" />
          <note key="57" pos="1092" pan="0" len="12" vol="100" />
          <note key="57" pos="1104" pan="0" len="96" vol="100" />
          <note key="57" pos="1200" pan="0" len="72" vol="100" />
          <note key="57" pos="1272" pan="0" len="12" vol="100" />
          <note key="57" pos="1284" pan="0" len="12" vol="100" />
          <note key="57" pos="1296" pan="0" len="96" vol="100" />
          <note key="57" pos="1392" pan="0" len="72" vol="100" />
          <note key="57" pos="1488" pan="0" len="48" vol="100" />
        </pattern>
      </track>
      <track solo="0" name="57 (Ch4)" type="0" muted="0">
        <instrumenttrack usemasterpitch="1" pitch="0.0" basenote="57" pan="0" pitchrange="12" vol="30">
          <eldata />
          <instrument name="tripleoscillator" />
        </instrumenttrack>
        <pattern pos="109056" muted="0" steps="16" name="" type="1">
          <note key="54" pos="0" pan="0" len="768" vol="100" />
          <note key="49" pos="768" pan="0" len="768" vol="100" />
        </pattern>
        <pattern pos="26112" muted="0" steps="16" name="" type="1">
          <note key="72" pos="48" pan="0" len="48" vol="100" />
          <note key="72" pos="144" pan="0" len="48" vol="100" />
          <note key="72" pos="240" pan="0" len="48" vol="100" />
          <note key="72" pos="336" pan="0" len="48" vol="100" />
          <note key="72" pos="432" pan="0" len="48" vol="100" />
          <note key="72" pos="528" pan="0" len="48" vol="100" />
          <note key="72" pos="600" pan="0" len="24" vol="100" />
          <note key="72" pos="624" pan="0" len="48" vol="100" />
          <note key="72" pos="708" pan="0" len="12" vol="100" />
          <note key="72" pos="720" pan="0" len="48" vol="100" />
          <note key="72" pos="816" pan="0" len="48" vol="100" />
          <note key="72" pos="912" pan="0" len="48" vol="100" />
          <note key="72" pos="1008" pan="0" len="48" vol="100" />
          <note key="72" pos="1104" pan="0" len="48" vol="100" />
          <note key="72" pos="1200" pan="0" len="48" vol="100" />
          <note key="72" pos="1296" pan="0" len="48" vol="100" />
          <note key="72" pos="1368" pan="0" len="24" vol="100" />
          <note key="72" pos="1392" pan="0" len="48" vol="100" />
          <note key="72" pos="1476" pan="0" len="12" vol="100" />
          <note key="72" pos="1488" pan="0" len="48" vol="100" />
        </pattern>
        <pattern pos="27648" muted="0" steps="16" name="" type="1">
          <note key="72" pos="48" pan="0" len="48" vol="100" />
          <note key="72" pos="144" pan="0" len="48" vol="100" />
          <note key="72" pos="240" pan="0" len="48" vol="100" />
          <note key="72" pos="336" pan="0" len="24" vol="100" />
          <note key="72" pos="432" pan="0" len="48" vol="100" />
          <note key="72" pos="528" pan="0" len="48" vol="100" />
          <note key="72" pos="600" pan="0" len="24" vol="100" />
          <note key="72" pos="624" pan="0" len="48" vol="100" />
          <note key="72" pos="708" pan="0" len="12" vol="100" />
          <note key="72" pos="720" pan="0" len="48" vol="100" />
          <note key="72" pos="816" pan="0" len="48" vol="100" />
          <note key="72" pos="912" pan="0" len="48" vol="100" />
          <note key="72" pos="1008" pan="0" len="48" vol="100" />
          <note key="72" pos="1104" pan="0" len="24" vol="100" />
          <note key="72" pos="1200" pan="0" len="48" vol="100" />
          <note key="72" pos="1296" pan="0" len="48" vol="100" />
          <note key="72" pos="1368" pan="0" len="24" vol="100" />
          <note key="72" pos="1392" pan="0" len="48" vol="100" />
          <note key="72" pos="1476" pan="0" len="12" vol="100" />
          <note key="72" pos="1488" pan="0" len="24" vol="100" />
          <note key="72" pos="1512" pan="0" len="24" vol="100" />
        </pattern>
        <pattern pos="107520" muted="0" steps="16" name="" type="1">
          <note key="54" pos="0" pan="0" len="768" vol="100" />
          <note key="49" pos="768" pan="0" len="768" vol="100" />
        </pattern>
      </track>
      <track solo="0" name="57 (Ch7)" type="0" muted="0">
        <instrumenttrack usemasterpitch="1" pitch="0.0" basenote="57" pan="0" pitchrange="12" vol="30">
          <eldata />
          <instrument name="tripleoscillator" />
        </instrumenttrack>
        <pattern pos="272988" muted="0" steps="16" name="" type="1">
          <note key="54" pos="0" pan="0" len="36" vol="100" />
          <note key="54" pos="36" pan="0" len="12" vol="31" />
          <note key="54" pos="48" pan="0" len="12" vol="47" />
          <note key="54" pos="60" pan="0" len="12" vol="62" />
          <note key="54" pos="72" pan="0" len="36" vol="100" />
          <note key="54" pos="108" pan="0" len="12" vol="31" />
          <note key="54" pos="120" pan="0" len="12" vol="47" />
          <note key="54" pos="132" pan="0" len="12" vol="62" />
          <note key="54" pos="144" pan="0" len="36" vol="100" />
          <note key="54" pos="216" pan="0" len="36" vol="100" />
          <note key="54" pos="252" pan="0" len="12" vol="31" />
          <note key="54" pos="264" pan="0" len="12" vol="47" />
          <note key="54" pos="276" pan="0" len="12" vol="62" />
          <note key="54" pos="288" pan="0" len="36" vol="100" />
          <note key="54" pos="324" pan="0" len="12" vol="31" />
          <note key="54" pos="336" pan="0" len="12" vol="47" />
          <note key="54" pos="348" pan="0" len="12" vol="62" />
          <note key="54" pos="360" pan="0" len="36" vol="100" />
          <note key="54" pos="396" pan="0" len="12" vol="31" />
          <note key="54" pos="408" pan="0" len="12" vol="47" />
          <note key="54" pos="420" pan="0" len="12" vol="62" />
          <note key="54" pos="432" pan="0" len="36" vol="100" />
          <note key="54" pos="504" pan="0" len="36" vol="100" />
          <note key="54" pos="540" pan="0" len="12" vol="31" />
          <note key="54" pos="552" pan="0" len="12" vol="47" />
          <note key="54" pos="564" pan="0" len="12" vol="62" />
          <note key="54" pos="576" pan="0" len="36" vol="100" />
          <note key="54" pos="612" pan="0" len="12" vol="31" />
          <note key="54" pos="624" pan="0" len="12" vol="47" />
          <note key="54" pos="636" pan="0" len="12" vol="62" />
          <note key="54" pos="648" pan="0" len="36" vol="100" />
          <note key="54" pos="684" pan="0" len="12" vol="31" />
          <note key="54" pos="696" pan="0" len="12" vol="47" />
          <note key="54" pos="708" pan="0" len="12" vol="62" />
          <note key="54" pos="720" pan="0" len="36" vol="100" />
          <note key="54" pos="792" pan="0" len="36" vol="100" />
          <note key="54" pos="828" pan="0" len="12" vol="31" />
          <note key="54" pos="840" pan="0" len="12" vol="47" />
          <note key="54" pos="852" pan="0" len="12" vol="62" />
          <note key="54" pos="864" pan="0" len="36" vol="100" />
          <note key="54" pos="900" pan="0" len="12" vol="31" />
          <note key="54" pos="912" pan="0" len="12" vol="47" />
          <note key="54" pos="924" pan="0" len="12" vol="62" />
          <note key="54" pos="936" pan="0" len="36" vol="100" />
          <note key="54" pos="972" pan="0" len="12" vol="31" />
          <note key="54" pos="984" pan="0" len="12" vol="47" />
          <note key="54" pos="996" pan="0" len="12" vol="62" />
          <note key="54" pos="1008" pan="0" len="36" vol="100" />
          <note key="54" pos="1080" pan="0" len="36" vol="100" />
          <note key="54" pos="1116" pan="0" len="12" vol="31" />
          <note key="54" pos="1128" pan="0" len="12" vol="47" />
          <note key="54" pos="1140" pan="0" len="12" vol="62" />
        </pattern>
        <pattern pos="205068" muted="0" steps="16" name="" type="1">
          <note key="60" pos="0" pan="0" len="1536" vol="100" />
        </pattern>
        <pattern pos="211212" muted="0" steps="16" name="" type="1">
          <note key="60" pos="96" pan="0" len="96" vol="100" />
          <note key="60" pos="288" pan="0" len="72" vol="100" />
          <note key="60" pos="480" pan="0" len="96" vol="100" />
          <note key="60" pos="672" pan="0" len="72" vol="100" />
          <note key="60" pos="864" pan="0" len="96" vol="100" />
          <note key="60" pos="1056" pan="0" len="72" vol="100" />
          <note key="60" pos="1248" pan="0" len="96" vol="100" />
          <note key="60" pos="1440" pan="0" len="72" vol="100" />
        </pattern>
        <pattern pos="212748" muted="0" steps="16" name="" type="1">
          <note key="60" pos="96" pan="0" len="96" vol="100" />
          <note key="60" pos="288" pan="0" len="72" vol="100" />
          <note key="60" pos="480" pan="0" len="96" vol="100" />
          <note key="60" pos="672" pan="0" len="72" vol="100" />
          <note key="60" pos="864" pan="0" len="96" vol="100" />
          <note key="60" pos="1056" pan="0" len="72" vol="100" />
          <note key="60" pos="1248" pan="0" len="96" vol="100" />
          <note key="60" pos="1440" pan="0" len="72" vol="100" />
        </pattern>
        <pattern pos="214284" muted="0" steps="16" name="" type="1">
          <note key="60" pos="96" pan="0" len="96" vol="100" />
          <note key="60" pos="288" pan="0" len="72" vol="100" />
          <note key="60" pos="480" pan="0" len="96" vol="100" />
          <note key="60" pos="672" pan="0" len="72" vol="100" />
          <note key="60" pos="864" pan="0" len="96" vol="100" />
          <note key="60" pos="1056" pan="0" len="72" vol="100" />
          <note key="60" pos="1248" pan="0" len="96" vol="100" />
          <note key="60" pos="1440" pan="0" len="72" vol="100" />
        </pattern>
      </track>
      <track solo="0" name="57 (Ch8)" type="0" muted="0">
        <instrumenttrack usemasterpitch="1" pitch="0.0" basenote="57" pan="0" pitchrange="12" vol="30">
          <eldata />
          <instrument name="tripleoscillator" />
        </instrumenttrack>
        <pattern pos="269388" muted="0" steps="16" name="" type="1">
          <note key="61" pos="36" pan="0" len="144" vol="100" />
          <note key="61" pos="180" pan="0" len="144" vol="100" />
          <note key="61" pos="324" pan="0" len="144" vol="100" />
          <note key="61" pos="468" pan="0" len="72" vol="100" />
          <note key="61" pos="540" pan="0" len="12" vol="16" />
          <note key="61" pos="552" pan="0" len="12" vol="47" />
          <note key="61" pos="564" pan="0" len="48" vol="78" />
          <note key="61" pos="612" pan="0" len="144" vol="100" />
          <note key="61" pos="756" pan="0" len="144" vol="100" />
          <note key="61" pos="900" pan="0" len="144" vol="100" />
          <note key="61" pos="1044" pan="0" len="72" vol="100" />
          <note key="61" pos="1116" pan="0" len="12" vol="16" />
          <note key="61" pos="1128" pan="0" len="12" vol="31" />
          <note key="61" pos="1140" pan="0" len="12" vol="47" />
        </pattern>
        <pattern pos="56448" muted="0" steps="16" name="" type="1">
          <note key="60" pos="36" pan="0" len="72" vol="100" />
          <note key="60" pos="108" pan="0" len="72" vol="100" />
          <note key="60" pos="180" pan="0" len="72" vol="100" />
          <note key="60" pos="252" pan="0" len="12" vol="100" />
          <note key="60" pos="264" pan="0" len="12" vol="100" />
          <note key="60" pos="276" pan="0" len="48" vol="100" />
          <note key="60" pos="324" pan="0" len="72" vol="100" />
          <note key="60" pos="396" pan="0" len="72" vol="100" />
          <note key="60" pos="468" pan="0" len="60" vol="100" />
          <note key="60" pos="540" pan="0" len="12" vol="100" />
          <note key="60" pos="552" pan="0" len="12" vol="100" />
          <note key="60" pos="564" pan="0" len="12" vol="100" />
          <note key="60" pos="576" pan="0" len="72" vol="100" />
          <note key="60" pos="648" pan="0" len="72" vol="100" />
          <note key="60" pos="720" pan="0" len="24" vol="100" />
          <note key="60" pos="744" pan="0" len="24" vol="100" />
          <note key="60" pos="768" pan="0" len="24" vol="100" />
          <note key="60" pos="792" pan="0" len="36" vol="100" />
          <note key="60" pos="828" pan="0" len="12" vol="100" />
          <note key="60" pos="840" pan="0" len="12" vol="100" />
          <note key="60" pos="852" pan="0" len="48" vol="100" />
          <note key="60" pos="900" pan="0" len="72" vol="100" />
          <note key="60" pos="972" pan="0" len="72" vol="100" />
          <note key="60" pos="1044" pan="0" len="36" vol="100" />
          <note key="60" pos="1080" pan="0" len="24" vol="100" />
          <note key="60" pos="1116" pan="0" len="12" vol="100" />
          <note key="60" pos="1128" pan="0" len="12" vol="100" />
          <note key="60" pos="1140" pan="0" len="12" vol="100" />
        </pattern>
        <pattern pos="57600" muted="0" steps="16" name="" type="1">
          <note key="60" pos="24" pan="0" len="12" vol="100" />
          <note key="60" pos="72" pan="0" len="24" vol="100" />
          <note key="60" pos="96" pan="0" len="12" vol="100" />
          <note key="60" pos="144" pan="0" len="24" vol="100" />
          <note key="60" pos="168" pan="0" len="24" vol="100" />
          <note key="60" pos="192" pan="0" len="12" vol="100" />
          <note key="60" pos="216" pan="0" len="24" vol="100" />
          <note key="60" pos="240" pan="0" len="12" vol="100" />
          <note key="60" pos="252" pan="0" len="24" vol="100" />
          <note key="60" pos="276" pan="0" len="12" vol="100" />
          <note key="60" pos="312" pan="0" len="12" vol="100" />
          <note key="60" pos="360" pan="0" len="24" vol="100" />
          <note key="60" pos="384" pan="0" len="12" vol="100" />
          <note key="60" pos="432" pan="0" len="24" vol="100" />
          <note key="60" pos="456" pan="0" len="24" vol="100" />
          <note key="60" pos="480" pan="0" len="12" vol="100" />
          <note key="60" pos="504" pan="0" len="24" vol="100" />
          <note key="60" pos="528" pan="0" len="12" vol="100" />
          <note key="60" pos="540" pan="0" len="24" vol="100" />
          <note key="60" pos="564" pan="0" len="12" vol="100" />
          <note key="60" pos="600" pan="0" len="12" vol="100" />
          <note key="60" pos="648" pan="0" len="24" vol="100" />
          <note key="60" pos="672" pan="0" len="12" vol="100" />
          <note key="60" pos="720" pan="0" len="24" vol="100" />
          <note key="60" pos="744" pan="0" len="24" vol="100" />
          <note key="60" pos="768" pan="0" len="12" vol="100" />
          <note key="60" pos="792" pan="0" len="24" vol="100" />
          <note key="60" pos="816" pan="0" len="12" vol="100" />
          <note key="60" pos="828" pan="0" len="24" vol="100" />
          <note key="60" pos="852" pan="0" len="12" vol="100" />
          <note key="60" pos="888" pan="0" len="12" vol="100" />
          <note key="60" pos="936" pan="0" len="24" vol="100" />
          <note key="60" pos="960" pan="0" len="12" vol="100" />
          <note key="60" pos="1008" pan="0" len="24" vol="100" />
          <note key="60" pos="1032" pan="0" len="24" vol="100" />
          <note key="60" pos="1056" pan="0" len="12" vol="100" />
          <note key="60" pos="1080" pan="0" len="24" vol="100" />
          <note key="60" pos="1104" pan="0" len="12" vol="100" />
          <note key="60" pos="1116" pan="0" len="24" vol="100" />
          <note key="60" pos="1140" pan="0" len="12" vol="100" />
        </pattern>
        <pattern pos="58752" muted="0" steps="16" name="" type="1">
          <note key="60" pos="36" pan="0" len="72" vol="100" />
          <note key="60" pos="108" pan="0" len="72" vol="100" />
          <note key="60" pos="180" pan="0" len="72" vol="100" />
          <note key="60" pos="252" pan="0" len="12" vol="100" />
          <note key="60" pos="264" pan="0" len="12" vol="100" />
          <note key="60" pos="276" pan="0" len="48" vol="100" />
          <note key="60" pos="324" pan="0" len="72" vol="100" />
          <note key="60" pos="396" pan="0" len="72" vol="100" />
          <note key="60" pos="468" pan="0" len="60" vol="100" />
          <note key="60" pos="540" pan="0" len="12" vol="100" />
          <note key="60" pos="552" pan="0" len="12" vol="100" />
          <note key="60" pos="564" pan="0" len="12" vol="100" />
          <note key="60" pos="576" pan="0" len="36" vol="100" />
          <note key="60" pos="648" pan="0" len="36" vol="100" />
          <note key="60" pos="720" pan="0" len="36" vol="100" />
          <note key="60" pos="828" pan="0" len="12" vol="100" />
          <note key="60" pos="840" pan="0" len="12" vol="100" />
          <note key="60" pos="852" pan="0" len="48" vol="100" />
          <note key="60" pos="900" pan="0" len="72" vol="100" />
          <note key="60" pos="972" pan="0" len="72" vol="100" />
          <note key="60" pos="1044" pan="0" len="36" vol="100" />
          <note key="60" pos="1080" pan="0" len="12" vol="100" />
          <note key="60" pos="1092" pan="0" len="12" vol="100" />
          <note key="60" pos="1104" pan="0" len="12" vol="100" />
          <note key="60" pos="1116" pan="0" len="12" vol="100" />
          <note key="60" pos="1128" pan="0" len="12" vol="100" />
          <note key="60" pos="1140" pan="0" len="12" vol="100" />
        </pattern>
        <pattern pos="59904" muted="0" steps="16" name="" type="1">
          <note key="60" pos="24" pan="0" len="12" vol="100" />
          <note key="60" pos="72" pan="0" len="24" vol="100" />
          <note key="60" pos="96" pan="0" len="12" vol="100" />
          <note key="60" pos="144" pan="0" len="24" vol="100" />
          <note key="60" pos="168" pan="0" len="24" vol="100" />
          <note key="60" pos="192" pan="0" len="12" vol="100" />
          <note key="60" pos="216" pan="0" len="24" vol="100" />
          <note key="60" pos="240" pan="0" len="12" vol="100" />
          <note key="60" pos="252" pan="0" len="24" vol="100" />
          <note key="60" pos="276" pan="0" len="12" vol="100" />
          <note key="60" pos="312" pan="0" len="12" vol="100" />
          <note key="60" pos="360" pan="0" len="24" vol="100" />
          <note key="60" pos="384" pan="0" len="12" vol="100" />
          <note key="60" pos="432" pan="0" len="24" vol="100" />
          <note key="60" pos="456" pan="0" len="24" vol="100" />
          <note key="60" pos="480" pan="0" len="12" vol="100" />
          <note key="60" pos="504" pan="0" len="24" vol="100" />
          <note key="60" pos="528" pan="0" len="12" vol="100" />
          <note key="60" pos="540" pan="0" len="24" vol="100" />
          <note key="60" pos="564" pan="0" len="12" vol="100" />
          <note key="60" pos="600" pan="0" len="12" vol="100" />
          <note key="60" pos="648" pan="0" len="24" vol="100" />
          <note key="60" pos="672" pan="0" len="12" vol="100" />
          <note key="60" pos="720" pan="0" len="24" vol="100" />
          <note key="60" pos="744" pan="0" len="24" vol="100" />
          <note key="60" pos="768" pan="0" len="12" vol="100" />
          <note key="60" pos="792" pan="0" len="24" vol="100" />
          <note key="60" pos="816" pan="0" len="12" vol="100" />
          <note key="60" pos="828" pan="0" len="24" vol="100" />
          <note key="60" pos="852" pan="0" len="12" vol="100" />
          <note key="60" pos="888" pan="0" len="12" vol="100" />
          <note key="60" pos="936" pan="0" len="24" vol="100" />
          <note key="60" pos="960" pan="0" len="12" vol="100" />
          <note key="60" pos="1008" pan="0" len="24" vol="100" />
          <note key="60" pos="1032" pan="0" len="24" vol="100" />
          <note key="60" pos="1056" pan="0" len="12" vol="100" />
          <note key="60" pos="1080" pan="0" len="24" vol="100" />
          <note key="60" pos="1104" pan="0" len="12" vol="100" />
          <note key="60" pos="1116" pan="0" len="24" vol="100" />
          <note key="60" pos="1140" pan="0" len="12" vol="100" />
        </pattern>
        <pattern pos="61056" muted="0" steps="16" name="" type="1">
          <note key="60" pos="24" pan="0" len="12" vol="100" />
          <note key="60" pos="72" pan="0" len="24" vol="100" />
          <note key="60" pos="96" pan="0" len="12" vol="100" />
          <note key="60" pos="144" pan="0" len="24" vol="100" />
          <note key="60" pos="168" pan="0" len="24" vol="100" />
          <note key="60" pos="192" pan="0" len="12" vol="100" />
          <note key="60" pos="216" pan="0" len="24" vol="100" />
          <note key="60" pos="240" pan="0" len="12" vol="100" />
          <note key="60" pos="252" pan="0" len="24" vol="100" />
          <note key="60" pos="276" pan="0" len="12" vol="100" />
          <note key="60" pos="312" pan="0" len="12" vol="100" />
          <note key="60" pos="360" pan="0" len="24" vol="100" />
          <note key="60" pos="384" pan="0" len="12" vol="100" />
          <note key="60" pos="432" pan="0" len="24" vol="100" />
          <note key="60" pos="456" pan="0" len="24" vol="100" />
          <note key="60" pos="480" pan="0" len="12" vol="100" />
          <note key="60" pos="504" pan="0" len="24" vol="100" />
          <note key="60" pos="528" pan="0" len="12" vol="100" />
          <note key="60" pos="540" pan="0" len="24" vol="100" />
          <note key="60" pos="564" pan="0" len="12" vol="100" />
          <note key="60" pos="600" pan="0" len="12" vol="100" />
          <note key="60" pos="648" pan="0" len="24" vol="100" />
          <note key="60" pos="672" pan="0" len="12" vol="100" />
          <note key="60" pos="720" pan="0" len="24" vol="100" />
          <note key="60" pos="744" pan="0" len="24" vol="100" />
          <note key="60" pos="768" pan="0" len="12" vol="100" />
          <note key="60" pos="792" pan="0" len="24" vol="100" />
          <note key="60" pos="816" pan="0" len="12" vol="100" />
          <note key="60" pos="828" pan="0" len="24" vol="100" />
          <note key="60" pos="852" pan="0" len="12" vol="100" />
          <note key="60" pos="888" pan="0" len="12" vol="100" />
          <note key="60" pos="936" pan="0" len="24" vol="100" />
          <note key="60" pos="960" pan="0" len="12" vol="100" />
          <note key="60" pos="1008" pan="0" len="24" vol="100" />
          <note key="60" pos="1032" pan="0" len="24" vol="100" />
          <note key="60" pos="1056" pan="0" len="12" vol="100" />
          <note key="60" pos="1080" pan="0" len="24" vol="100" />
          <note key="60" pos="1104" pan="0" len="12" vol="100" />
          <note key="60" pos="1116" pan="0" len="24" vol="100" />
          <note key="60" pos="1140" pan="0" len="12" vol="100" />
        </pattern>
        <pattern pos="62208" muted="0" steps="16" name="" type="1">
          <note key="60" pos="36" pan="0" len="72" vol="100" />
          <note key="60" pos="108" pan="0" len="72" vol="100" />
          <note key="60" pos="180" pan="0" len="72" vol="100" />
          <note key="60" pos="252" pan="0" len="12" vol="100" />
          <note key="60" pos="264" pan="0" len="12" vol="100" />
          <note key="60" pos="276" pan="0" len="48" vol="100" />
          <note key="60" pos="324" pan="0" len="72" vol="100" />
          <note key="60" pos="396" pan="0" len="72" vol="100" />
          <note key="60" pos="468" pan="0" len="60" vol="100" />
          <note key="60" pos="540" pan="0" len="12" vol="100" />
          <note key="60" pos="552" pan="0" len="12" vol="100" />
          <note key="60" pos="564" pan="0" len="12" vol="100" />
          <note key="60" pos="576" pan="0" len="36" vol="100" />
          <note key="60" pos="648" pan="0" len="36" vol="100" />
          <note key="60" pos="720" pan="0" len="36" vol="100" />
          <note key="60" pos="828" pan="0" len="12" vol="100" />
          <note key="60" pos="840" pan="0" len="12" vol="100" />
          <note key="60" pos="852" pan="0" len="48" vol="100" />
          <note key="60" pos="900" pan="0" len="72" vol="100" />
          <note key="60" pos="972" pan="0" len="72" vol="100" />
          <note key="60" pos="1044" pan="0" len="36" vol="100" />
          <note key="60" pos="1080" pan="0" len="12" vol="100" />
          <note key="60" pos="1092" pan="0" len="12" vol="100" />
          <note key="60" pos="1104" pan="0" len="12" vol="100" />
          <note key="60" pos="1116" pan="0" len="12" vol="100" />
          <note key="60" pos="1128" pan="0" len="12" vol="100" />
          <note key="60" pos="1140" pan="0" len="12" vol="100" />
        </pattern>
        <pattern pos="63360" muted="0" steps="16" name="" type="1">
          <note key="60" pos="24" pan="0" len="12" vol="100" />
          <note key="60" pos="72" pan="0" len="24" vol="100" />
          <note key="60" pos="96" pan="0" len="12" vol="100" />
          <note key="60" pos="144" pan="0" len="24" vol="100" />
          <note key="60" pos="168" pan="0" len="24" vol="100" />
          <note key="60" pos="192" pan="0" len="12" vol="100" />
          <note key="60" pos="216" pan="0" len="24" vol="100" />
          <note key="60" pos="240" pan="0" len="12" vol="100" />
          <note key="60" pos="252" pan="0" len="24" vol="100" />
          <note key="60" pos="276" pan="0" len="12" vol="100" />
          <note key="60" pos="312" pan="0" len="12" vol="100" />
          <note key="60" pos="360" pan="0" len="24" vol="100" />
          <note key="60" pos="384" pan="0" len="12" vol="100" />
          <note key="60" pos="432" pan="0" len="24" vol="100" />
          <note key="60" pos="456" pan="0" len="24" vol="100" />
          <note key="60" pos="480" pan="0" len="12" vol="100" />
          <note key="60" pos="504" pan="0" len="24" vol="100" />
          <note key="60" pos="528" pan="0" len="12" vol="100" />
          <note key="60" pos="540" pan="0" len="24" vol="100" />
          <note key="60" pos="564" pan="0" len="12" vol="100" />
          <note key="60" pos="600" pan="0" len="12" vol="100" />
          <note key="60" pos="648" pan="0" len="24" vol="100" />
          <note key="60" pos="672" pan="0" len="12" vol="100" />
          <note key="60" pos="720" pan="0" len="24" vol="100" />
          <note key="60" pos="744" pan="0" len="24" vol="100" />
          <note key="60" pos="768" pan="0" len="12" vol="100" />
          <note key="60" pos="792" pan="0" len="24" vol="100" />
          <note key="60" pos="816" pan="0" len="12" vol="100" />
          <note key="60" pos="828" pan="0" len="24" vol="100" />
          <note key="60" pos="852" pan="0" len="12" vol="100" />
          <note key="60" pos="888" pan="0" len="12" vol="100" />
          <note key="60" pos="936" pan="0" len="24" vol="100" />
          <note key="60" pos="960" pan="0" len="12" vol="100" />
          <note key="60" pos="1008" pan="0" len="24" vol="100" />
          <note key="60" pos="1032" pan="0" len="24" vol="100" />
          <note key="60" pos="1056" pan="0" len="12" vol="100" />
          <note key="60" pos="1080" pan="0" len="24" vol="100" />
          <note key="60" pos="1104" pan="0" len="12" vol="100" />
          <note key="60" pos="1116" pan="0" len="24" vol="100" />
          <note key="60" pos="1140" pan="0" len="12" vol="100" />
        </pattern>
        <pattern pos="64512" muted="0" steps="16" name="" type="1">
          <note key="60" pos="24" pan="0" len="12" vol="100" />
          <note key="60" pos="72" pan="0" len="24" vol="100" />
          <note key="60" pos="96" pan="0" len="12" vol="100" />
          <note key="60" pos="144" pan="0" len="24" vol="100" />
          <note key="60" pos="168" pan="0" len="24" vol="100" />
          <note key="60" pos="192" pan="0" len="12" vol="100" />
          <note key="60" pos="216" pan="0" len="24" vol="100" />
          <note key="60" pos="240" pan="0" len="12" vol="100" />
          <note key="60" pos="252" pan="0" len="24" vol="100" />
          <note key="60" pos="276" pan="0" len="12" vol="100" />
          <note key="60" pos="312" pan="0" len="12" vol="100" />
          <note key="60" pos="360" pan="0" len="24" vol="100" />
          <note key="60" pos="384" pan="0" len="12" vol="100" />
          <note key="60" pos="432" pan="0" len="24" vol="100" />
          <note key="60" pos="456" pan="0" len="24" vol="100" />
          <note key="60" pos="480" pan="0" len="12" vol="100" />
          <note key="60" pos="504" pan="0" len="24" vol="100" />
          <note key="60" pos="528" pan="0" len="12" vol="100" />
          <note key="60" pos="540" pan="0" len="24" vol="100" />
          <note key="60" pos="564" pan="0" len="12" vol="100" />
          <note key="60" pos="600" pan="0" len="12" vol="100" />
          <note key="60" pos="648" pan="0" len="24" vol="100" />
          <note key="60" pos="672" pan="0" len="12" vol="100" />
          <note key="60" pos="720" pan="0" len="24" vol="100" />
          <note key="60" pos="744" pan="0" len="24" vol="100" />
          <note key="60" pos="768" pan="0" len="12" vol="100" />
          <note key="60" pos="792" pan="0" len="24" vol="100" />
          <note key="60" pos="816" pan="0" len="12" vol="100" />
          <note key="60" pos="828" pan="0" len="24" vol="100" />
          <note key="60" pos="852" pan="0" len="12" vol="100" />
          <note key="60" pos="888" pan="0" len="12" vol="100" />
          <note key="60" pos="936" pan="0" len="24" vol="100" />
          <note key="60" pos="960" pan="0" len="12" vol="100" />
          <note key="60" pos="1008" pan="0" len="24" vol="100" />
          <note key="60" pos="1032" pan="0" len="24" vol="100" />
          <note key="60" pos="1056" pan="0" len="12" vol="100" />
          <note key="60" pos="1080" pan="0" len="24" vol="100" />
          <note key="60" pos="1104" pan="0" len="12" vol="100" />
          <note key="60" pos="1116" pan="0" len="24" vol="100" />
          <note key="60" pos="1140" pan="0" len="12" vol="100" />
        </pattern>
        <pattern pos="65664" muted="0" steps="16" name="" type="1">
          <note key="60" pos="36" pan="0" len="72" vol="100" />
          <note key="60" pos="108" pan="0" len="72" vol="100" />
          <note key="60" pos="180" pan="0" len="72" vol="100" />
          <note key="60" pos="252" pan="0" len="12" vol="100" />
          <note key="60" pos="264" pan="0" len="12" vol="100" />
          <note key="60" pos="276" pan="0" len="48" vol="100" />
          <note key="60" pos="324" pan="0" len="72" vol="100" />
          <note key="60" pos="396" pan="0" len="72" vol="100" />
          <note key="60" pos="468" pan="0" len="60" vol="100" />
          <note key="60" pos="540" pan="0" len="12" vol="100" />
          <note key="60" pos="552" pan="0" len="12" vol="100" />
          <note key="60" pos="564" pan="0" len="12" vol="100" />
          <note key="60" pos="576" pan="0" len="72" vol="100" />
          <note key="60" pos="648" pan="0" len="72" vol="100" />
          <note key="60" pos="720" pan="0" len="24" vol="100" />
          <note key="60" pos="744" pan="0" len="24" vol="100" />
          <note key="60" pos="768" pan="0" len="24" vol="100" />
          <note key="60" pos="792" pan="0" len="36" vol="100" />
          <note key="60" pos="828" pan="0" len="12" vol="100" />
          <note key="60" pos="840" pan="0" len="12" vol="100" />
          <note key="60" pos="852" pan="0" len="48" vol="100" />
          <note key="60" pos="900" pan="0" len="72" vol="100" />
          <note key="60" pos="972" pan="0" len="72" vol="100" />
          <note key="60" pos="1044" pan="0" len="36" vol="100" />
          <note key="60" pos="1080" pan="0" len="24" vol="100" />
        </pattern>
        <pattern pos="66816" muted="0" steps="16" name="" type="1">
          <note key="60" pos="1152" pan="0" len="72" vol="100" />
          <note key="60" pos="1224" pan="0" len="24" vol="100" />
          <note key="60" pos="1248" pan="0" len="24" vol="100" />
          <note key="60" pos="1272" pan="0" len="24" vol="100" />
          <note key="60" pos="1296" pan="0" len="72" vol="100" />
          <note key="60" pos="1368" pan="0" len="24" vol="100" />
          <note key="60" pos="1392" pan="0" len="24" vol="100" />
          <note key="60" pos="1416" pan="0" len="24" vol="100" />
          <note key="60" pos="1440" pan="0" len="24" vol="100" />
          <note key="60" pos="1464" pan="0" len="24" vol="100" />
          <note key="60" pos="1488" pan="0" len="24" vol="100" />
          <note key="60" pos="1512" pan="0" len="24" vol="100" />
          <note key="60" pos="1536" pan="0" len="24" vol="100" />
          <note key="60" pos="1560" pan="0" len="24" vol="100" />
          <note key="60" pos="1584" pan="0" len="72" vol="100" />
          <note key="60" pos="1656" pan="0" len="24" vol="100" />
          <note key="60" pos="1680" pan="0" len="24" vol="100" />
          <note key="60" pos="1704" pan="0" len="24" vol="100" />
          <note key="60" pos="1728" pan="0" len="72" vol="100" />
          <note key="60" pos="1800" pan="0" len="24" vol="100" />
          <note key="60" pos="1824" pan="0" len="24" vol="100" />
          <note key="60" pos="1848" pan="0" len="24" vol="100" />
          <note key="60" pos="1872" pan="0" len="72" vol="100" />
          <note key="60" pos="1944" pan="0" len="24" vol="100" />
          <note key="60" pos="1968" pan="0" len="24" vol="100" />
          <note key="60" pos="1992" pan="0" len="24" vol="100" />
          <note key="60" pos="2016" pan="0" len="24" vol="100" />
          <note key="60" pos="2040" pan="0" len="24" vol="100" />
          <note key="60" pos="2064" pan="0" len="24" vol="100" />
          <note key="60" pos="2088" pan="0" len="24" vol="100" />
          <note key="60" pos="2112" pan="0" len="24" vol="100" />
          <note key="60" pos="2136" pan="0" len="24" vol="100" />
          <note key="60" pos="2160" pan="0" len="72" vol="100" />
        </pattern>
        <pattern pos="69120" muted="0" steps="16" name="" type="1">
          <note key="60" pos="0" pan="0" len="72" vol="100" />
          <note key="60" pos="72" pan="0" len="24" vol="100" />
          <note key="60" pos="96" pan="0" len="24" vol="100" />
          <note key="60" pos="120" pan="0" len="24" vol="100" />
          <note key="60" pos="144" pan="0" len="72" vol="100" />
          <note key="60" pos="216" pan="0" len="24" vol="100" />
          <note key="60" pos="240" pan="0" len="24" vol="100" />
          <note key="60" pos="264" pan="0" len="24" vol="100" />
          <note key="60" pos="288" pan="0" len="24" vol="100" />
          <note key="60" pos="312" pan="0" len="24" vol="100" />
          <note key="60" pos="336" pan="0" len="24" vol="100" />
          <note key="60" pos="360" pan="0" len="24" vol="100" />
          <note key="60" pos="384" pan="0" len="24" vol="100" />
          <note key="60" pos="408" pan="0" len="24" vol="100" />
          <note key="60" pos="432" pan="0" len="72" vol="100" />
          <note key="60" pos="504" pan="0" len="24" vol="100" />
          <note key="60" pos="528" pan="0" len="24" vol="100" />
          <note key="60" pos="552" pan="0" len="24" vol="100" />
          <note key="60" pos="576" pan="0" len="72" vol="100" />
          <note key="60" pos="648" pan="0" len="24" vol="100" />
          <note key="60" pos="672" pan="0" len="24" vol="100" />
          <note key="60" pos="696" pan="0" len="24" vol="100" />
          <note key="60" pos="720" pan="0" len="72" vol="100" />
          <note key="60" pos="792" pan="0" len="24" vol="100" />
          <note key="60" pos="816" pan="0" len="24" vol="100" />
          <note key="60" pos="840" pan="0" len="24" vol="100" />
          <note key="60" pos="864" pan="0" len="24" vol="100" />
          <note key="60" pos="888" pan="0" len="24" vol="100" />
          <note key="60" pos="912" pan="0" len="24" vol="100" />
          <note key="60" pos="936" pan="0" len="24" vol="100" />
          <note key="60" pos="960" pan="0" len="24" vol="100" />
          <note key="60" pos="984" pan="0" len="24" vol="100" />
          <note key="60" pos="1008" pan="0" len="72" vol="100" />
          <note key="60" pos="1080" pan="0" len="24" vol="100" />
          <note key="60" pos="1104" pan="0" len="24" vol="100" />
          <note key="60" pos="1128" pan="0" len="24" vol="100" />
          <note key="60" pos="1152" pan="0" len="72" vol="100" />
          <note key="60" pos="1224" pan="0" len="24" vol="100" />
          <note key="60" pos="1248" pan="0" len="24" vol="100" />
          <note key="60" pos="1272" pan="0" len="24" vol="100" />
          <note key="60" pos="1296" pan="0" len="72" vol="100" />
          <note key="60" pos="1368" pan="0" len="24" vol="100" />
          <note key="60" pos="1392" pan="0" len="24" vol="100" />
          <note key="60" pos="1416" pan="0" len="24" vol="100" />
          <note key="60" pos="1440" pan="0" len="24" vol="100" />
          <note key="60" pos="1464" pan="0" len="24" vol="100" />
          <note key="60" pos="1488" pan="0" len="24" vol="100" />
          <note key="60" pos="1512" pan="0" len="24" vol="100" />
          <note key="60" pos="1536" pan="0" len="24" vol="100" />
          <note key="60" pos="1560" pan="0" len="24" vol="100" />
          <note key="60" pos="1584" pan="0" len="72" vol="100" />
          <note key="60" pos="1656" pan="0" len="24" vol="100" />
          <note key="60" pos="1680" pan="0" len="24" vol="100" />
          <note key="60" pos="1704" pan="0" len="24" vol="100" />
          <note key="60" pos="1728" pan="0" len="72" vol="100" />
          <note key="60" pos="1800" pan="0" len="24" vol="100" />
          <note key="60" pos="1824" pan="0" len="24" vol="100" />
          <note key="60" pos="1848" pan="0" len="24" vol="100" />
          <note key="60" pos="1872" pan="0" len="72" vol="100" />
          <note key="60" pos="1944" pan="0" len="24" vol="100" />
          <note key="60" pos="1968" pan="0" len="24" vol="100" />
          <note key="60" pos="1992" pan="0" len="24" vol="100" />
          <note key="60" pos="2016" pan="0" len="24" vol="100" />
          <note key="60" pos="2040" pan="0" len="24" vol="100" />
          <note key="60" pos="2064" pan="0" len="24" vol="100" />
          <note key="60" pos="2088" pan="0" len="24" vol="100" />
          <note key="60" pos="2112" pan="0" len="24" vol="100" />
          <note key="60" pos="2136" pan="0" len="24" vol="100" />
          <note key="60" pos="2160" pan="0" len="72" vol="100" />
          <note key="60" pos="2232" pan="0" len="24" vol="100" />
          <note key="60" pos="2256" pan="0" len="24" vol="100" />
          <note key="60" pos="2280" pan="0" len="24" vol="100" />
        </pattern>
        <pattern pos="71424" muted="0" steps="16" name="" type="1">
          <note key="60" pos="0" pan="0" len="72" vol="100" />
          <note key="60" pos="72" pan="0" len="24" vol="100" />
          <note key="60" pos="96" pan="0" len="24" vol="100" />
          <note key="60" pos="120" pan="0" len="24" vol="100" />
          <note key="60" pos="144" pan="0" len="72" vol="100" />
          <note key="60" pos="216" pan="0" len="24" vol="100" />
          <note key="60" pos="240" pan="0" len="24" vol="100" />
          <note key="60" pos="264" pan="0" len="24" vol="100" />
          <note key="60" pos="288" pan="0" len="24" vol="100" />
          <note key="60" pos="312" pan="0" len="24" vol="100" />
          <note key="60" pos="336" pan="0" len="24" vol="100" />
          <note key="60" pos="360" pan="0" len="24" vol="100" />
          <note key="60" pos="384" pan="0" len="24" vol="100" />
          <note key="60" pos="408" pan="0" len="24" vol="100" />
          <note key="60" pos="432" pan="0" len="72" vol="100" />
          <note key="60" pos="504" pan="0" len="24" vol="100" />
          <note key="60" pos="528" pan="0" len="24" vol="100" />
          <note key="60" pos="552" pan="0" len="24" vol="100" />
          <note key="60" pos="576" pan="0" len="72" vol="100" />
          <note key="60" pos="648" pan="0" len="24" vol="100" />
          <note key="60" pos="672" pan="0" len="24" vol="100" />
          <note key="60" pos="696" pan="0" len="24" vol="100" />
          <note key="60" pos="720" pan="0" len="72" vol="100" />
          <note key="60" pos="792" pan="0" len="24" vol="100" />
          <note key="60" pos="816" pan="0" len="24" vol="100" />
          <note key="60" pos="840" pan="0" len="24" vol="100" />
          <note key="60" pos="864" pan="0" len="24" vol="100" />
          <note key="60" pos="888" pan="0" len="24" vol="100" />
          <note key="60" pos="912" pan="0" len="24" vol="100" />
          <note key="60" pos="936" pan="0" len="24" vol="100" />
          <note key="60" pos="960" pan="0" len="24" vol="100" />
          <note key="60" pos="984" pan="0" len="24" vol="100" />
          <note key="60" pos="1008" pan="0" len="72" vol="100" />
          <note key="60" pos="1080" pan="0" len="24" vol="100" />
          <note key="60" pos="1104" pan="0" len="24" vol="100" />
          <note key="60" pos="1128" pan="0" len="24" vol="100" />
          <note key="60" pos="1152" pan="0" len="72" vol="100" />
          <note key="60" pos="1224" pan="0" len="24" vol="100" />
          <note key="60" pos="1248" pan="0" len="24" vol="100" />
          <note key="60" pos="1272" pan="0" len="24" vol="100" />
          <note key="60" pos="1296" pan="0" len="72" vol="100" />
          <note key="60" pos="1368" pan="0" len="24" vol="100" />
          <note key="60" pos="1392" pan="0" len="24" vol="100" />
          <note key="60" pos="1416" pan="0" len="24" vol="100" />
          <note key="60" pos="1440" pan="0" len="24" vol="100" />
          <note key="60" pos="1464" pan="0" len="24" vol="100" />
          <note key="60" pos="1488" pan="0" len="24" vol="100" />
          <note key="60" pos="1512" pan="0" len="24" vol="100" />
          <note key="60" pos="1536" pan="0" len="24" vol="100" />
          <note key="60" pos="1560" pan="0" len="24" vol="100" />
          <note key="60" pos="1584" pan="0" len="72" vol="100" />
          <note key="60" pos="1656" pan="0" len="24" vol="100" />
          <note key="60" pos="1680" pan="0" len="24" vol="100" />
          <note key="60" pos="1704" pan="0" len="24" vol="100" />
          <note key="60" pos="1728" pan="0" len="72" vol="100" />
          <note key="60" pos="1800" pan="0" len="24" vol="100" />
          <note key="60" pos="1824" pan="0" len="24" vol="100" />
          <note key="60" pos="1848" pan="0" len="24" vol="100" />
          <note key="60" pos="1872" pan="0" len="72" vol="100" />
          <note key="60" pos="1944" pan="0" len="24" vol="100" />
          <note key="60" pos="1968" pan="0" len="24" vol="100" />
          <note key="60" pos="1992" pan="0" len="24" vol="100" />
          <note key="60" pos="2016" pan="0" len="24" vol="100" />
          <note key="60" pos="2040" pan="0" len="24" vol="100" />
          <note key="60" pos="2064" pan="0" len="24" vol="100" />
          <note key="60" pos="2088" pan="0" len="24" vol="100" />
          <note key="60" pos="2112" pan="0" len="24" vol="100" />
          <note key="60" pos="2136" pan="0" len="24" vol="100" />
          <note key="60" pos="2160" pan="0" len="72" vol="100" />
          <note key="60" pos="2232" pan="0" len="24" vol="100" />
          <note key="60" pos="2256" pan="0" len="24" vol="100" />
          <note key="60" pos="2280" pan="0" len="24" vol="100" />
        </pattern>
        <pattern pos="73728" muted="0" steps="16" name="" type="1">
          <note key="62" pos="0" pan="0" len="72" vol="100" />
          <note key="62" pos="72" pan="0" len="24" vol="100" />
          <note key="62" pos="96" pan="0" len="24" vol="100" />
          <note key="62" pos="120" pan="0" len="24" vol="100" />
          <note key="62" pos="144" pan="0" len="72" vol="100" />
          <note key="62" pos="216" pan="0" len="24" vol="100" />
          <note key="62" pos="240" pan="0" len="24" vol="100" />
          <note key="62" pos="264" pan="0" len="24" vol="100" />
          <note key="62" pos="288" pan="0" len="24" vol="100" />
          <note key="62" pos="312" pan="0" len="24" vol="100" />
          <note key="62" pos="336" pan="0" len="24" vol="100" />
          <note key="62" pos="360" pan="0" len="24" vol="100" />
          <note key="62" pos="384" pan="0" len="24" vol="100" />
          <note key="62" pos="408" pan="0" len="24" vol="100" />
          <note key="62" pos="432" pan="0" len="72" vol="100" />
          <note key="62" pos="504" pan="0" len="24" vol="100" />
          <note key="62" pos="528" pan="0" len="24" vol="100" />
          <note key="62" pos="552" pan="0" len="24" vol="100" />
          <note key="62" pos="576" pan="0" len="72" vol="100" />
          <note key="62" pos="648" pan="0" len="24" vol="100" />
          <note key="62" pos="672" pan="0" len="24" vol="100" />
          <note key="62" pos="696" pan="0" len="24" vol="100" />
          <note key="62" pos="720" pan="0" len="72" vol="100" />
          <note key="62" pos="792" pan="0" len="24" vol="100" />
          <note key="62" pos="816" pan="0" len="24" vol="100" />
          <note key="62" pos="840" pan="0" len="24" vol="100" />
          <note key="62" pos="864" pan="0" len="24" vol="100" />
          <note key="62" pos="888" pan="0" len="24" vol="100" />
          <note key="62" pos="912" pan="0" len="24" vol="100" />
          <note key="62" pos="936" pan="0" len="24" vol="100" />
          <note key="62" pos="960" pan="0" len="24" vol="100" />
          <note key="62" pos="984" pan="0" len="24" vol="100" />
          <note key="62" pos="1008" pan="0" len="36" vol="100" />
          <note key="62" pos="1044" pan="0" len="36" vol="100" />
          <note key="62" pos="1080" pan="0" len="24" vol="100" />
          <note key="62" pos="1104" pan="0" len="24" vol="100" />
          <note key="62" pos="1128" pan="0" len="24" vol="100" />
          <note key="62" pos="1152" pan="0" len="72" vol="100" />
          <note key="62" pos="1224" pan="0" len="24" vol="100" />
          <note key="62" pos="1248" pan="0" len="24" vol="100" />
          <note key="62" pos="1272" pan="0" len="24" vol="100" />
          <note key="62" pos="1296" pan="0" len="72" vol="100" />
          <note key="62" pos="1368" pan="0" len="24" vol="100" />
          <note key="62" pos="1392" pan="0" len="24" vol="100" />
          <note key="62" pos="1416" pan="0" len="24" vol="100" />
          <note key="62" pos="1440" pan="0" len="24" vol="100" />
          <note key="62" pos="1464" pan="0" len="24" vol="100" />
          <note key="62" pos="1488" pan="0" len="24" vol="100" />
          <note key="62" pos="1512" pan="0" len="24" vol="100" />
          <note key="62" pos="1536" pan="0" len="24" vol="100" />
          <note key="62" pos="1560" pan="0" len="24" vol="100" />
          <note key="62" pos="1584" pan="0" len="72" vol="100" />
          <note key="62" pos="1656" pan="0" len="24" vol="100" />
          <note key="62" pos="1680" pan="0" len="24" vol="100" />
          <note key="62" pos="1704" pan="0" len="24" vol="100" />
          <note key="62" pos="1728" pan="0" len="72" vol="100" />
          <note key="62" pos="1800" pan="0" len="24" vol="100" />
          <note key="62" pos="1824" pan="0" len="24" vol="100" />
          <note key="62" pos="1848" pan="0" len="24" vol="100" />
          <note key="62" pos="1872" pan="0" len="72" vol="100" />
          <note key="62" pos="1944" pan="0" len="24" vol="100" />
          <note key="62" pos="1968" pan="0" len="24" vol="100" />
          <note key="62" pos="1992" pan="0" len="24" vol="100" />
          <note key="62" pos="2016" pan="0" len="24" vol="100" />
          <note key="62" pos="2040" pan="0" len="24" vol="100" />
          <note key="62" pos="2064" pan="0" len="24" vol="100" />
          <note key="62" pos="2088" pan="0" len="24" vol="100" />
          <note key="62" pos="2112" pan="0" len="24" vol="100" />
          <note key="62" pos="2136" pan="0" len="24" vol="100" />
          <note key="62" pos="2160" pan="0" len="72" vol="100" />
          <note key="62" pos="2232" pan="0" len="24" vol="100" />
          <note key="62" pos="2256" pan="0" len="24" vol="100" />
          <note key="62" pos="2280" pan="0" len="24" vol="100" />
        </pattern>
        <pattern pos="76032" muted="0" steps="16" name="" type="1">
          <note key="62" pos="0" pan="0" len="72" vol="100" />
          <note key="62" pos="72" pan="0" len="24" vol="100" />
          <note key="62" pos="96" pan="0" len="24" vol="100" />
          <note key="62" pos="120" pan="0" len="24" vol="100" />
          <note key="62" pos="144" pan="0" len="72" vol="100" />
          <note key="62" pos="216" pan="0" len="24" vol="100" />
          <note key="62" pos="240" pan="0" len="24" vol="100" />
          <note key="62" pos="264" pan="0" len="24" vol="100" />
          <note key="62" pos="288" pan="0" len="24" vol="100" />
          <note key="62" pos="312" pan="0" len="24" vol="100" />
          <note key="62" pos="336" pan="0" len="24" vol="100" />
          <note key="62" pos="360" pan="0" len="24" vol="100" />
          <note key="62" pos="384" pan="0" len="24" vol="100" />
          <note key="62" pos="408" pan="0" len="24" vol="100" />
          <note key="62" pos="432" pan="0" len="72" vol="100" />
          <note key="62" pos="504" pan="0" len="24" vol="100" />
          <note key="62" pos="528" pan="0" len="24" vol="100" />
          <note key="62" pos="552" pan="0" len="24" vol="100" />
          <note key="62" pos="576" pan="0" len="72" vol="100" />
          <note key="62" pos="648" pan="0" len="24" vol="100" />
          <note key="62" pos="672" pan="0" len="24" vol="100" />
          <note key="62" pos="696" pan="0" len="24" vol="100" />
          <note key="62" pos="720" pan="0" len="72" vol="100" />
          <note key="62" pos="792" pan="0" len="24" vol="100" />
          <note key="62" pos="816" pan="0" len="24" vol="100" />
          <note key="62" pos="840" pan="0" len="24" vol="100" />
          <note key="62" pos="864" pan="0" len="24" vol="100" />
          <note key="62" pos="888" pan="0" len="24" vol="100" />
          <note key="62" pos="912" pan="0" len="24" vol="100" />
          <note key="62" pos="936" pan="0" len="24" vol="100" />
          <note key="62" pos="960" pan="0" len="24" vol="100" />
          <note key="62" pos="984" pan="0" len="24" vol="100" />
          <note key="62" pos="1008" pan="0" len="36" vol="100" />
          <note key="62" pos="1044" pan="0" len="36" vol="100" />
          <note key="62" pos="1080" pan="0" len="24" vol="100" />
          <note key="62" pos="1104" pan="0" len="24" vol="100" />
          <note key="62" pos="1128" pan="0" len="24" vol="100" />
          <note key="62" pos="1152" pan="0" len="72" vol="100" />
          <note key="62" pos="1224" pan="0" len="24" vol="100" />
          <note key="62" pos="1248" pan="0" len="24" vol="100" />
          <note key="62" pos="1272" pan="0" len="24" vol="100" />
          <note key="62" pos="1296" pan="0" len="72" vol="100" />
          <note key="62" pos="1368" pan="0" len="24" vol="100" />
          <note key="62" pos="1392" pan="0" len="24" vol="100" />
          <note key="62" pos="1416" pan="0" len="24" vol="100" />
          <note key="62" pos="1440" pan="0" len="24" vol="100" />
          <note key="62" pos="1464" pan="0" len="24" vol="100" />
          <note key="62" pos="1488" pan="0" len="24" vol="100" />
          <note key="62" pos="1512" pan="0" len="24" vol="100" />
          <note key="62" pos="1536" pan="0" len="24" vol="100" />
          <note key="62" pos="1560" pan="0" len="24" vol="100" />
          <note key="62" pos="1584" pan="0" len="72" vol="100" />
          <note key="62" pos="1656" pan="0" len="24" vol="100" />
          <note key="62" pos="1680" pan="0" len="24" vol="100" />
          <note key="62" pos="1704" pan="0" len="24" vol="100" />
          <note key="62" pos="1728" pan="0" len="72" vol="100" />
          <note key="62" pos="1800" pan="0" len="24" vol="100" />
          <note key="62" pos="1824" pan="0" len="24" vol="100" />
          <note key="62" pos="1848" pan="0" len="24" vol="100" />
          <note key="62" pos="1872" pan="0" len="72" vol="100" />
          <note key="62" pos="1944" pan="0" len="24" vol="100" />
          <note key="62" pos="1968" pan="0" len="24" vol="100" />
          <note key="62" pos="1992" pan="0" len="24" vol="100" />
          <note key="62" pos="2016" pan="0" len="24" vol="100" />
          <note key="62" pos="2040" pan="0" len="24" vol="100" />
          <note key="62" pos="2064" pan="0" len="24" vol="100" />
          <note key="62" pos="2088" pan="0" len="24" vol="100" />
          <note key="62" pos="2112" pan="0" len="24" vol="100" />
          <note key="62" pos="2136" pan="0" len="24" vol="100" />
          <note key="62" pos="2160" pan="0" len="72" vol="100" />
          <note key="62" pos="2232" pan="0" len="24" vol="100" />
          <note key="62" pos="2256" pan="0" len="24" vol="100" />
          <note key="62" pos="2280" pan="0" len="24" vol="100" />
        </pattern>
        <pattern pos="78336" muted="0" steps="16" name="" type="1">
          <note key="60" pos="0" pan="0" len="72" vol="100" />
          <note key="60" pos="72" pan="0" len="24" vol="100" />
          <note key="60" pos="96" pan="0" len="24" vol="100" />
          <note key="60" pos="120" pan="0" len="24" vol="100" />
          <note key="60" pos="144" pan="0" len="72" vol="100" />
          <note key="60" pos="216" pan="0" len="24" vol="100" />
          <note key="60" pos="240" pan="0" len="24" vol="100" />
          <note key="60" pos="264" pan="0" len="24" vol="100" />
          <note key="60" pos="288" pan="0" len="24" vol="100" />
          <note key="60" pos="312" pan="0" len="24" vol="100" />
          <note key="60" pos="336" pan="0" len="24" vol="100" />
          <note key="60" pos="360" pan="0" len="24" vol="100" />
          <note key="60" pos="384" pan="0" len="24" vol="100" />
          <note key="60" pos="408" pan="0" len="24" vol="100" />
          <note key="60" pos="432" pan="0" len="72" vol="100" />
          <note key="60" pos="504" pan="0" len="24" vol="100" />
          <note key="60" pos="528" pan="0" len="24" vol="100" />
          <note key="60" pos="552" pan="0" len="24" vol="100" />
          <note key="60" pos="576" pan="0" len="72" vol="100" />
          <note key="60" pos="648" pan="0" len="24" vol="100" />
          <note key="60" pos="672" pan="0" len="24" vol="100" />
          <note key="60" pos="696" pan="0" len="24" vol="100" />
          <note key="60" pos="720" pan="0" len="72" vol="100" />
          <note key="60" pos="792" pan="0" len="24" vol="100" />
          <note key="60" pos="816" pan="0" len="24" vol="100" />
          <note key="60" pos="840" pan="0" len="24" vol="100" />
          <note key="60" pos="864" pan="0" len="24" vol="100" />
          <note key="60" pos="888" pan="0" len="24" vol="100" />
          <note key="60" pos="912" pan="0" len="24" vol="100" />
          <note key="60" pos="936" pan="0" len="24" vol="100" />
          <note key="60" pos="960" pan="0" len="24" vol="100" />
          <note key="60" pos="984" pan="0" len="24" vol="100" />
          <note key="60" pos="1008" pan="0" len="72" vol="100" />
          <note key="60" pos="1080" pan="0" len="24" vol="100" />
          <note key="60" pos="1104" pan="0" len="24" vol="100" />
          <note key="60" pos="1128" pan="0" len="24" vol="100" />
          <note key="60" pos="1152" pan="0" len="72" vol="100" />
          <note key="60" pos="1224" pan="0" len="24" vol="100" />
          <note key="60" pos="1248" pan="0" len="24" vol="100" />
          <note key="60" pos="1272" pan="0" len="24" vol="100" />
          <note key="60" pos="1296" pan="0" len="72" vol="100" />
          <note key="60" pos="1368" pan="0" len="24" vol="100" />
          <note key="60" pos="1392" pan="0" len="24" vol="100" />
          <note key="60" pos="1416" pan="0" len="24" vol="100" />
          <note key="60" pos="1440" pan="0" len="24" vol="100" />
          <note key="60" pos="1464" pan="0" len="24" vol="100" />
          <note key="60" pos="1488" pan="0" len="24" vol="100" />
          <note key="60" pos="1512" pan="0" len="24" vol="100" />
          <note key="60" pos="1536" pan="0" len="24" vol="100" />
          <note key="60" pos="1560" pan="0" len="24" vol="100" />
          <note key="60" pos="1584" pan="0" len="72" vol="100" />
          <note key="60" pos="1656" pan="0" len="24" vol="100" />
          <note key="60" pos="1680" pan="0" len="24" vol="100" />
          <note key="60" pos="1704" pan="0" len="24" vol="100" />
          <note key="60" pos="1728" pan="0" len="72" vol="100" />
          <note key="60" pos="1800" pan="0" len="24" vol="100" />
          <note key="60" pos="1824" pan="0" len="24" vol="100" />
          <note key="60" pos="1848" pan="0" len="24" vol="100" />
          <note key="60" pos="1872" pan="0" len="72" vol="100" />
          <note key="60" pos="1944" pan="0" len="24" vol="100" />
          <note key="60" pos="1968" pan="0" len="24" vol="100" />
          <note key="60" pos="1992" pan="0" len="24" vol="100" />
          <note key="60" pos="2016" pan="0" len="24" vol="100" />
          <note key="60" pos="2040" pan="0" len="24" vol="100" />
          <note key="60" pos="2064" pan="0" len="24" vol="100" />
          <note key="60" pos="2088" pan="0" len="24" vol="100" />
          <note key="60" pos="2112" pan="0" len="24" vol="100" />
          <note key="60" pos="2136" pan="0" len="24" vol="100" />
          <note key="60" pos="2160" pan="0" len="72" vol="100" />
          <note key="60" pos="2232" pan="0" len="24" vol="100" />
          <note key="60" pos="2256" pan="0" len="24" vol="100" />
          <note key="60" pos="2280" pan="0" len="24" vol="100" />
        </pattern>
        <pattern pos="80640" muted="0" steps="16" name="" type="1">
          <note key="60" pos="0" pan="0" len="72" vol="100" />
          <note key="60" pos="72" pan="0" len="24" vol="100" />
          <note key="60" pos="96" pan="0" len="24" vol="100" />
          <note key="60" pos="120" pan="0" len="24" vol="100" />
          <note key="60" pos="144" pan="0" len="72" vol="100" />
          <note key="60" pos="216" pan="0" len="24" vol="100" />
          <note key="60" pos="240" pan="0" len="24" vol="100" />
          <note key="60" pos="264" pan="0" len="24" vol="100" />
          <note key="60" pos="288" pan="0" len="24" vol="100" />
          <note key="60" pos="312" pan="0" len="24" vol="100" />
          <note key="60" pos="336" pan="0" len="24" vol="100" />
          <note key="60" pos="360" pan="0" len="24" vol="100" />
          <note key="60" pos="384" pan="0" len="24" vol="100" />
          <note key="60" pos="408" pan="0" len="24" vol="100" />
          <note key="60" pos="432" pan="0" len="72" vol="100" />
          <note key="60" pos="504" pan="0" len="24" vol="100" />
          <note key="60" pos="528" pan="0" len="24" vol="100" />
          <note key="60" pos="552" pan="0" len="24" vol="100" />
          <note key="60" pos="576" pan="0" len="72" vol="100" />
          <note key="60" pos="648" pan="0" len="24" vol="100" />
          <note key="60" pos="672" pan="0" len="24" vol="100" />
          <note key="60" pos="696" pan="0" len="24" vol="100" />
          <note key="60" pos="720" pan="0" len="72" vol="100" />
          <note key="60" pos="792" pan="0" len="24" vol="100" />
          <note key="60" pos="816" pan="0" len="24" vol="100" />
          <note key="60" pos="840" pan="0" len="24" vol="100" />
          <note key="60" pos="864" pan="0" len="24" vol="100" />
          <note key="60" pos="888" pan="0" len="24" vol="100" />
          <note key="60" pos="912" pan="0" len="24" vol="100" />
          <note key="60" pos="936" pan="0" len="24" vol="100" />
          <note key="60" pos="960" pan="0" len="24" vol="100" />
          <note key="60" pos="984" pan="0" len="24" vol="100" />
          <note key="60" pos="1008" pan="0" len="72" vol="100" />
          <note key="60" pos="1080" pan="0" len="24" vol="100" />
          <note key="60" pos="1104" pan="0" len="24" vol="100" />
          <note key="60" pos="1128" pan="0" len="24" vol="100" />
          <note key="60" pos="1152" pan="0" len="72" vol="100" />
          <note key="60" pos="1224" pan="0" len="24" vol="100" />
          <note key="60" pos="1248" pan="0" len="24" vol="100" />
          <note key="60" pos="1272" pan="0" len="24" vol="100" />
          <note key="60" pos="1296" pan="0" len="72" vol="100" />
          <note key="60" pos="1368" pan="0" len="24" vol="100" />
          <note key="60" pos="1392" pan="0" len="24" vol="100" />
          <note key="60" pos="1416" pan="0" len="24" vol="100" />
          <note key="60" pos="1440" pan="0" len="24" vol="100" />
          <note key="60" pos="1464" pan="0" len="24" vol="100" />
          <note key="60" pos="1488" pan="0" len="24" vol="100" />
          <note key="60" pos="1512" pan="0" len="24" vol="100" />
          <note key="60" pos="1536" pan="0" len="24" vol="100" />
          <note key="60" pos="1560" pan="0" len="24" vol="100" />
          <note key="60" pos="1584" pan="0" len="72" vol="100" />
          <note key="60" pos="1656" pan="0" len="24" vol="100" />
          <note key="60" pos="1680" pan="0" len="24" vol="100" />
          <note key="60" pos="1704" pan="0" len="24" vol="100" />
          <note key="60" pos="1728" pan="0" len="72" vol="100" />
          <note key="60" pos="1800" pan="0" len="24" vol="100" />
          <note key="60" pos="1824" pan="0" len="24" vol="100" />
          <note key="60" pos="1848" pan="0" len="24" vol="100" />
          <note key="60" pos="1872" pan="0" len="72" vol="100" />
          <note key="60" pos="1944" pan="0" len="24" vol="100" />
          <note key="60" pos="1968" pan="0" len="24" vol="100" />
          <note key="60" pos="1992" pan="0" len="24" vol="100" />
          <note key="60" pos="2016" pan="0" len="24" vol="100" />
          <note key="60" pos="2040" pan="0" len="24" vol="100" />
          <note key="60" pos="2064" pan="0" len="24" vol="100" />
          <note key="60" pos="2088" pan="0" len="24" vol="100" />
          <note key="60" pos="2112" pan="0" len="24" vol="100" />
          <note key="60" pos="2136" pan="0" len="24" vol="100" />
          <note key="60" pos="2160" pan="0" len="72" vol="100" />
          <note key="60" pos="2232" pan="0" len="24" vol="100" />
          <note key="60" pos="2256" pan="0" len="24" vol="100" />
          <note key="60" pos="2280" pan="0" len="24" vol="100" />
        </pattern>
        <pattern pos="82944" muted="0" steps="16" name="" type="1">
          <note key="60" pos="0" pan="0" len="72" vol="100" />
          <note key="60" pos="72" pan="0" len="24" vol="100" />
          <note key="60" pos="96" pan="0" len="24" vol="100" />
          <note key="60" pos="120" pan="0" len="24" vol="100" />
          <note key="60" pos="144" pan="0" len="72" vol="100" />
          <note key="60" pos="216" pan="0" len="24" vol="100" />
          <note key="60" pos="240" pan="0" len="24" vol="100" />
          <note key="60" pos="264" pan="0" len="24" vol="100" />
          <note key="60" pos="288" pan="0" len="24" vol="100" />
          <note key="60" pos="312" pan="0" len="24" vol="100" />
          <note key="60" pos="336" pan="0" len="24" vol="100" />
          <note key="60" pos="360" pan="0" len="24" vol="100" />
          <note key="60" pos="384" pan="0" len="24" vol="100" />
          <note key="60" pos="408" pan="0" len="24" vol="100" />
          <note key="60" pos="432" pan="0" len="72" vol="100" />
          <note key="60" pos="504" pan="0" len="24" vol="100" />
          <note key="60" pos="528" pan="0" len="24" vol="100" />
          <note key="60" pos="552" pan="0" len="24" vol="100" />
          <note key="60" pos="576" pan="0" len="72" vol="100" />
          <note key="60" pos="648" pan="0" len="24" vol="100" />
          <note key="60" pos="672" pan="0" len="24" vol="100" />
          <note key="60" pos="696" pan="0" len="24" vol="100" />
          <note key="60" pos="720" pan="0" len="72" vol="100" />
          <note key="60" pos="792" pan="0" len="24" vol="100" />
          <note key="60" pos="816" pan="0" len="24" vol="100" />
          <note key="60" pos="840" pan="0" len="24" vol="100" />
          <note key="60" pos="864" pan="0" len="24" vol="100" />
          <note key="60" pos="888" pan="0" len="24" vol="100" />
          <note key="60" pos="912" pan="0" len="24" vol="100" />
          <note key="60" pos="936" pan="0" len="24" vol="100" />
          <note key="60" pos="960" pan="0" len="24" vol="100" />
          <note key="60" pos="984" pan="0" len="24" vol="100" />
          <note key="60" pos="1008" pan="0" len="72" vol="100" />
          <note key="60" pos="1080" pan="0" len="24" vol="100" />
          <note key="60" pos="1104" pan="0" len="24" vol="100" />
          <note key="60" pos="1128" pan="0" len="24" vol="100" />
          <note key="60" pos="1152" pan="0" len="72" vol="100" />
          <note key="60" pos="1224" pan="0" len="24" vol="100" />
          <note key="60" pos="1248" pan="0" len="24" vol="100" />
          <note key="60" pos="1272" pan="0" len="24" vol="100" />
          <note key="60" pos="1296" pan="0" len="72" vol="100" />
          <note key="60" pos="1368" pan="0" len="24" vol="100" />
          <note key="60" pos="1392" pan="0" len="24" vol="100" />
          <note key="60" pos="1416" pan="0" len="24" vol="100" />
          <note key="60" pos="1440" pan="0" len="24" vol="100" />
          <note key="60" pos="1464" pan="0" len="24" vol="100" />
          <note key="60" pos="1488" pan="0" len="24" vol="100" />
          <note key="60" pos="1512" pan="0" len="24" vol="100" />
          <note key="60" pos="1536" pan="0" len="24" vol="100" />
          <note key="60" pos="1560" pan="0" len="24" vol="100" />
          <note key="60" pos="1584" pan="0" len="72" vol="100" />
          <note key="60" pos="1656" pan="0" len="24" vol="100" />
          <note key="60" pos="1680" pan="0" len="24" vol="100" />
          <note key="60" pos="1704" pan="0" len="24" vol="100" />
          <note key="60" pos="1728" pan="0" len="72" vol="100" />
          <note key="60" pos="1800" pan="0" len="24" vol="100" />
          <note key="60" pos="1824" pan="0" len="24" vol="100" />
          <note key="60" pos="1848" pan="0" len="24" vol="100" />
          <note key="60" pos="1872" pan="0" len="72" vol="100" />
          <note key="60" pos="1944" pan="0" len="24" vol="100" />
          <note key="60" pos="1968" pan="0" len="24" vol="100" />
          <note key="60" pos="1992" pan="0" len="24" vol="100" />
          <note key="60" pos="2016" pan="0" len="24" vol="100" />
          <note key="60" pos="2040" pan="0" len="24" vol="100" />
          <note key="60" pos="2064" pan="0" len="24" vol="100" />
          <note key="60" pos="2088" pan="0" len="24" vol="100" />
          <note key="60" pos="2112" pan="0" len="24" vol="100" />
          <note key="60" pos="2136" pan="0" len="24" vol="100" />
          <note key="60" pos="2160" pan="0" len="72" vol="100" />
          <note key="60" pos="2232" pan="0" len="24" vol="100" />
          <note key="60" pos="2256" pan="0" len="24" vol="100" />
          <note key="60" pos="2280" pan="0" len="24" vol="100" />
        </pattern>
        <pattern pos="85248" muted="0" steps="16" name="" type="1">
          <note key="62" pos="0" pan="0" len="72" vol="100" />
          <note key="62" pos="72" pan="0" len="24" vol="100" />
          <note key="62" pos="96" pan="0" len="24" vol="100" />
          <note key="62" pos="120" pan="0" len="24" vol="100" />
          <note key="62" pos="144" pan="0" len="72" vol="100" />
          <note key="62" pos="216" pan="0" len="24" vol="100" />
          <note key="62" pos="240" pan="0" len="24" vol="100" />
          <note key="62" pos="264" pan="0" len="24" vol="100" />
          <note key="62" pos="288" pan="0" len="24" vol="100" />
          <note key="62" pos="312" pan="0" len="24" vol="100" />
          <note key="62" pos="336" pan="0" len="24" vol="100" />
          <note key="62" pos="360" pan="0" len="24" vol="100" />
          <note key="62" pos="384" pan="0" len="24" vol="100" />
          <note key="62" pos="408" pan="0" len="24" vol="100" />
          <note key="62" pos="432" pan="0" len="72" vol="100" />
          <note key="62" pos="504" pan="0" len="24" vol="100" />
          <note key="62" pos="528" pan="0" len="24" vol="100" />
          <note key="62" pos="552" pan="0" len="24" vol="100" />
          <note key="62" pos="576" pan="0" len="72" vol="100" />
          <note key="62" pos="648" pan="0" len="24" vol="100" />
          <note key="62" pos="672" pan="0" len="24" vol="100" />
          <note key="62" pos="696" pan="0" len="24" vol="100" />
          <note key="62" pos="720" pan="0" len="72" vol="100" />
          <note key="62" pos="792" pan="0" len="24" vol="100" />
          <note key="62" pos="816" pan="0" len="24" vol="100" />
          <note key="62" pos="840" pan="0" len="24" vol="100" />
          <note key="62" pos="864" pan="0" len="24" vol="100" />
          <note key="62" pos="888" pan="0" len="24" vol="100" />
          <note key="62" pos="912" pan="0" len="24" vol="100" />
          <note key="62" pos="936" pan="0" len="24" vol="100" />
          <note key="62" pos="960" pan="0" len="24" vol="100" />
          <note key="62" pos="984" pan="0" len="24" vol="100" />
          <note key="62" pos="1008" pan="0" len="36" vol="100" />
          <note key="62" pos="1044" pan="0" len="36" vol="100" />
          <note key="62" pos="1080" pan="0" len="24" vol="100" />
          <note key="62" pos="1104" pan="0" len="24" vol="100" />
          <note key="62" pos="1128" pan="0" len="24" vol="100" />
          <note key="62" pos="1152" pan="0" len="72" vol="100" />
          <note key="62" pos="1224" pan="0" len="24" vol="100" />
          <note key="62" pos="1248" pan="0" len="24" vol="100" />
          <note key="62" pos="1272" pan="0" len="24" vol="100" />
          <note key="62" pos="1296" pan="0" len="72" vol="100" />
          <note key="62" pos="1368" pan="0" len="24" vol="100" />
          <note key="62" pos="1392" pan="0" len="24" vol="100" />
          <note key="62" pos="1416" pan="0" len="24" vol="100" />
          <note key="62" pos="1440" pan="0" len="24" vol="100" />
          <note key="62" pos="1464" pan="0" len="24" vol="100" />
          <note key="62" pos="1488" pan="0" len="24" vol="100" />
          <note key="62" pos="1512" pan="0" len="24" vol="100" />
          <note key="62" pos="1536" pan="0" len="24" vol="100" />
          <note key="62" pos="1560" pan="0" len="24" vol="100" />
          <note key="62" pos="1584" pan="0" len="72" vol="100" />
          <note key="62" pos="1656" pan="0" len="24" vol="100" />
          <note key="62" pos="1680" pan="0" len="24" vol="100" />
          <note key="62" pos="1704" pan="0" len="24" vol="100" />
          <note key="62" pos="1728" pan="0" len="72" vol="100" />
          <note key="62" pos="1800" pan="0" len="24" vol="100" />
          <note key="62" pos="1824" pan="0" len="24" vol="100" />
          <note key="62" pos="1848" pan="0" len="24" vol="100" />
          <note key="62" pos="1872" pan="0" len="72" vol="100" />
          <note key="62" pos="1944" pan="0" len="24" vol="100" />
          <note key="62" pos="1968" pan="0" len="24" vol="100" />
          <note key="62" pos="1992" pan="0" len="24" vol="100" />
          <note key="62" pos="2016" pan="0" len="24" vol="100" />
          <note key="62" pos="2040" pan="0" len="24" vol="100" />
          <note key="62" pos="2064" pan="0" len="24" vol="100" />
          <note key="62" pos="2088" pan="0" len="24" vol="100" />
          <note key="62" pos="2112" pan="0" len="24" vol="100" />
          <note key="62" pos="2136" pan="0" len="24" vol="100" />
          <note key="62" pos="2160" pan="0" len="72" vol="100" />
          <note key="62" pos="2232" pan="0" len="24" vol="100" />
          <note key="62" pos="2256" pan="0" len="24" vol="100" />
          <note key="62" pos="2280" pan="0" len="24" vol="100" />
        </pattern>
        <pattern pos="87552" muted="0" steps="16" name="" type="1">
          <note key="62" pos="0" pan="0" len="72" vol="100" />
          <note key="62" pos="72" pan="0" len="24" vol="100" />
          <note key="62" pos="96" pan="0" len="24" vol="100" />
          <note key="62" pos="120" pan="0" len="24" vol="100" />
          <note key="62" pos="144" pan="0" len="72" vol="100" />
          <note key="62" pos="216" pan="0" len="24" vol="100" />
          <note key="62" pos="240" pan="0" len="24" vol="100" />
          <note key="62" pos="264" pan="0" len="24" vol="100" />
          <note key="62" pos="288" pan="0" len="24" vol="100" />
          <note key="62" pos="312" pan="0" len="24" vol="100" />
          <note key="62" pos="336" pan="0" len="24" vol="100" />
          <note key="62" pos="360" pan="0" len="24" vol="100" />
          <note key="62" pos="384" pan="0" len="24" vol="100" />
          <note key="62" pos="408" pan="0" len="24" vol="100" />
          <note key="62" pos="432" pan="0" len="72" vol="100" />
          <note key="62" pos="504" pan="0" len="24" vol="100" />
          <note key="62" pos="528" pan="0" len="24" vol="100" />
          <note key="62" pos="552" pan="0" len="24" vol="100" />
          <note key="62" pos="576" pan="0" len="72" vol="100" />
          <note key="62" pos="648" pan="0" len="24" vol="100" />
          <note key="62" pos="672" pan="0" len="24" vol="100" />
          <note key="62" pos="696" pan="0" len="24" vol="100" />
          <note key="62" pos="720" pan="0" len="72" vol="100" />
          <note key="62" pos="792" pan="0" len="24" vol="100" />
          <note key="62" pos="816" pan="0" len="24" vol="100" />
          <note key="62" pos="840" pan="0" len="24" vol="100" />
          <note key="62" pos="864" pan="0" len="24" vol="100" />
          <note key="62" pos="888" pan="0" len="24" vol="100" />
          <note key="62" pos="912" pan="0" len="24" vol="100" />
          <note key="62" pos="936" pan="0" len="24" vol="100" />
          <note key="62" pos="960" pan="0" len="24" vol="100" />
          <note key="62" pos="984" pan="0" len="24" vol="100" />
          <note key="62" pos="1008" pan="0" len="36" vol="100" />
          <note key="62" pos="1044" pan="0" len="36" vol="100" />
          <note key="62" pos="1080" pan="0" len="24" vol="100" />
          <note key="62" pos="1104" pan="0" len="24" vol="100" />
          <note key="62" pos="1128" pan="0" len="24" vol="100" />
          <note key="62" pos="1152" pan="0" len="72" vol="100" />
          <note key="62" pos="1224" pan="0" len="24" vol="100" />
          <note key="62" pos="1248" pan="0" len="24" vol="100" />
          <note key="62" pos="1272" pan="0" len="24" vol="100" />
          <note key="62" pos="1296" pan="0" len="72" vol="100" />
          <note key="62" pos="1368" pan="0" len="24" vol="100" />
          <note key="62" pos="1392" pan="0" len="24" vol="100" />
          <note key="62" pos="1416" pan="0" len="24" vol="100" />
          <note key="62" pos="1440" pan="0" len="24" vol="100" />
          <note key="62" pos="1464" pan="0" len="24" vol="100" />
          <note key="62" pos="1488" pan="0" len="24" vol="100" />
          <note key="62" pos="1512" pan="0" len="24" vol="100" />
          <note key="62" pos="1536" pan="0" len="24" vol="100" />
          <note key="62" pos="1560" pan="0" len="24" vol="100" />
          <note key="62" pos="1584" pan="0" len="72" vol="100" />
          <note key="62" pos="1656" pan="0" len="24" vol="100" />
          <note key="62" pos="1680" pan="0" len="24" vol="100" />
          <note key="62" pos="1704" pan="0" len="24" vol="100" />
          <note key="62" pos="1728" pan="0" len="72" vol="100" />
          <note key="62" pos="1800" pan="0" len="24" vol="100" />
          <note key="62" pos="1824" pan="0" len="24" vol="100" />
          <note key="62" pos="1848" pan="0" len="24" vol="100" />
          <note key="62" pos="1872" pan="0" len="72" vol="100" />
          <note key="62" pos="1944" pan="0" len="24" vol="100" />
          <note key="62" pos="1968" pan="0" len="24" vol="100" />
          <note key="62" pos="1992" pan="0" len="24" vol="100" />
          <note key="62" pos="2016" pan="0" len="24" vol="100" />
          <note key="62" pos="2040" pan="0" len="24" vol="100" />
          <note key="62" pos="2064" pan="0" len="24" vol="100" />
          <note key="62" pos="2088" pan="0" len="24" vol="100" />
          <note key="62" pos="2112" pan="0" len="24" vol="100" />
          <note key="62" pos="2136" pan="0" len="24" vol="100" />
          <note key="62" pos="2160" pan="0" len="72" vol="100" />
          <note key="62" pos="2232" pan="0" len="24" vol="100" />
          <note key="62" pos="2256" pan="0" len="24" vol="100" />
          <note key="62" pos="2280" pan="0" len="24" vol="100" />
        </pattern>
        <pattern pos="89856" muted="0" steps="16" name="" type="1">
          <note key="60" pos="0" pan="0" len="72" vol="100" />
          <note key="60" pos="72" pan="0" len="24" vol="100" />
          <note key="60" pos="96" pan="0" len="24" vol="100" />
          <note key="60" pos="120" pan="0" len="24" vol="100" />
          <note key="60" pos="144" pan="0" len="72" vol="100" />
          <note key="60" pos="216" pan="0" len="24" vol="100" />
          <note key="60" pos="240" pan="0" len="24" vol="100" />
          <note key="60" pos="264" pan="0" len="24" vol="100" />
          <note key="60" pos="288" pan="0" len="24" vol="100" />
          <note key="60" pos="312" pan="0" len="24" vol="100" />
          <note key="60" pos="336" pan="0" len="24" vol="100" />
          <note key="60" pos="360" pan="0" len="24" vol="100" />
          <note key="60" pos="384" pan="0" len="24" vol="100" />
          <note key="60" pos="408" pan="0" len="24" vol="100" />
          <note key="60" pos="432" pan="0" len="72" vol="100" />
          <note key="60" pos="504" pan="0" len="24" vol="100" />
          <note key="60" pos="528" pan="0" len="24" vol="100" />
          <note key="60" pos="552" pan="0" len="24" vol="100" />
          <note key="60" pos="576" pan="0" len="72" vol="100" />
          <note key="60" pos="648" pan="0" len="24" vol="100" />
          <note key="60" pos="672" pan="0" len="24" vol="100" />
          <note key="60" pos="696" pan="0" len="24" vol="100" />
          <note key="60" pos="720" pan="0" len="72" vol="100" />
          <note key="60" pos="792" pan="0" len="24" vol="100" />
          <note key="60" pos="816" pan="0" len="24" vol="100" />
          <note key="60" pos="840" pan="0" len="24" vol="100" />
          <note key="60" pos="864" pan="0" len="24" vol="100" />
          <note key="60" pos="888" pan="0" len="24" vol="100" />
          <note key="60" pos="912" pan="0" len="24" vol="100" />
          <note key="60" pos="936" pan="0" len="24" vol="100" />
          <note key="60" pos="960" pan="0" len="24" vol="100" />
          <note key="60" pos="984" pan="0" len="24" vol="100" />
          <note key="60" pos="1008" pan="0" len="72" vol="100" />
          <note key="60" pos="1080" pan="0" len="24" vol="100" />
          <note key="60" pos="1104" pan="0" len="24" vol="100" />
          <note key="60" pos="1128" pan="0" len="24" vol="100" />
          <note key="60" pos="1152" pan="0" len="72" vol="100" />
          <note key="60" pos="1224" pan="0" len="24" vol="100" />
          <note key="60" pos="1248" pan="0" len="24" vol="100" />
          <note key="60" pos="1272" pan="0" len="24" vol="100" />
          <note key="60" pos="1296" pan="0" len="72" vol="100" />
          <note key="60" pos="1368" pan="0" len="24" vol="97" />
          <note key="60" pos="1392" pan="0" len="24" vol="95" />
          <note key="60" pos="1416" pan="0" len="24" vol="92" />
          <note key="60" pos="1440" pan="0" len="24" vol="91" />
          <note key="60" pos="1464" pan="0" len="24" vol="88" />
          <note key="60" pos="1488" pan="0" len="24" vol="84" />
          <note key="60" pos="1512" pan="0" len="24" vol="83" />
          <note key="60" pos="1536" pan="0" len="24" vol="80" />
          <note key="60" pos="1560" pan="0" len="24" vol="78" />
          <note key="60" pos="1584" pan="0" len="72" vol="75" />
          <note key="60" pos="1656" pan="0" len="24" vol="67" />
          <note key="60" pos="1680" pan="0" len="24" vol="66" />
          <note key="60" pos="1704" pan="0" len="24" vol="62" />
          <note key="60" pos="1728" pan="0" len="72" vol="59" />
          <note key="60" pos="1800" pan="0" len="24" vol="53" />
          <note key="60" pos="1824" pan="0" len="24" vol="50" />
          <note key="60" pos="1848" pan="0" len="24" vol="47" />
          <note key="60" pos="1872" pan="0" len="72" vol="45" />
          <note key="60" pos="1944" pan="0" len="24" vol="38" />
          <note key="60" pos="1968" pan="0" len="24" vol="34" />
          <note key="60" pos="1992" pan="0" len="24" vol="33" />
          <note key="60" pos="2016" pan="0" len="24" vol="30" />
          <note key="60" pos="2040" pan="0" len="24" vol="28" />
          <note key="60" pos="2064" pan="0" len="24" vol="25" />
          <note key="60" pos="2088" pan="0" len="24" vol="22" />
          <note key="60" pos="2112" pan="0" len="24" vol="20" />
          <note key="60" pos="2136" pan="0" len="24" vol="17" />
          <note key="60" pos="2160" pan="0" len="72" vol="16" />
          <note key="60" pos="2232" pan="0" len="24" vol="8" />
          <note key="60" pos="2256" pan="0" len="24" vol="5" />
          <note key="60" pos="2280" pan="0" len="24" vol="3" />
        </pattern>
        <pattern pos="101376" muted="0" steps="16" name="" type="1">
          <note key="51" pos="192" pan="0" len="144" vol="100" />
          <note key="51" pos="384" pan="0" len="144" vol="100" />
          <note key="52" pos="528" pan="0" len="48" vol="100" />
          <note key="51" pos="576" pan="0" len="96" vol="100" />
          <note key="51" pos="768" pan="0" len="96" vol="100" />
          <note key="51" pos="960" pan="0" len="48" vol="100" />
          <note key="51" pos="1008" pan="0" len="48" vol="31" />
          <note key="51" pos="1056" pan="0" len="48" vol="62" />
          <note key="51" pos="1152" pan="0" len="144" vol="100" />
          <note key="51" pos="1344" pan="0" len="96" vol="100" />
        </pattern>
        <pattern pos="102912" muted="0" steps="16" name="" type="1">
          <note key="51" pos="192" pan="0" len="144" vol="100" />
          <note key="51" pos="384" pan="0" len="144" vol="100" />
          <note key="52" pos="528" pan="0" len="48" vol="100" />
          <note key="51" pos="576" pan="0" len="96" vol="100" />
          <note key="51" pos="768" pan="0" len="96" vol="100" />
          <note key="51" pos="960" pan="0" len="48" vol="100" />
          <note key="51" pos="1008" pan="0" len="48" vol="31" />
          <note key="51" pos="1056" pan="0" len="48" vol="62" />
          <note key="51" pos="1152" pan="0" len="144" vol="100" />
          <note key="51" pos="1344" pan="0" len="96" vol="100" />
        </pattern>
        <pattern pos="104448" muted="0" steps="16" name="" type="1">
          <note key="51" pos="192" pan="0" len="144" vol="100" />
          <note key="51" pos="384" pan="0" len="144" vol="100" />
          <note key="52" pos="528" pan="0" len="48" vol="100" />
          <note key="51" pos="576" pan="0" len="96" vol="100" />
          <note key="51" pos="768" pan="0" len="96" vol="100" />
          <note key="51" pos="960" pan="0" len="48" vol="100" />
          <note key="51" pos="1008" pan="0" len="48" vol="31" />
          <note key="51" pos="1056" pan="0" len="48" vol="62" />
          <note key="51" pos="1152" pan="0" len="144" vol="100" />
          <note key="51" pos="1344" pan="0" len="96" vol="100" />
        </pattern>
        <pattern pos="105984" muted="0" steps="16" name="" type="1">
          <note key="51" pos="192" pan="0" len="144" vol="100" />
          <note key="51" pos="384" pan="0" len="144" vol="100" />
          <note key="52" pos="528" pan="0" len="48" vol="100" />
          <note key="51" pos="576" pan="0" len="96" vol="100" />
          <note key="51" pos="768" pan="0" len="96" vol="100" />
          <note key="51" pos="960" pan="0" len="48" vol="100" />
          <note key="51" pos="1008" pan="0" len="48" vol="31" />
          <note key="51" pos="1056" pan="0" len="48" vol="62" />
          <note key="51" pos="1152" pan="0" len="144" vol="100" />
          <note key="51" pos="1344" pan="0" len="96" vol="100" />
        </pattern>
      </track>
      <track solo="0" name="57 (Ch9)" type="0" muted="0">
        <instrumenttrack usemasterpitch="1" pitch="0.0" basenote="57" pan="0" pitchrange="12" vol="30">
          <eldata />
          <instrument name="tripleoscillator" />
        </instrumenttrack>
        <pattern pos="109056" muted="0" steps="16" name="" type="1">
          <note key="50" pos="192" pan="0" len="360" vol="100" />
          <note key="50" pos="576" pan="0" len="48" vol="100" />
          <note key="52" pos="960" pan="0" len="360" vol="100" />
          <note key="52" pos="1344" pan="0" len="192" vol="100" />
        </pattern>
        <pattern pos="107520" muted="0" steps="16" name="" type="1">
          <note key="50" pos="192" pan="0" len="360" vol="100" />
          <note key="50" pos="576" pan="0" len="48" vol="100" />
          <note key="52" pos="960" pan="0" len="360" vol="100" />
          <note key="52" pos="1344" pan="0" len="192" vol="100" />
        </pattern>
      </track>
      <track solo="0" name="57 (Ch10)" type="0" muted="0">
        <instrumenttrack usemasterpitch="1" pitch="0.0" basenote="57" pan="0" pitchrange="12" vol="30">
          <eldata />
          <instrument name="tripleoscillator" />
        </instrumenttrack>
        <pattern pos="217356" muted="0" steps="16" name="" type="1">
          <note key="60" pos="96" pan="0" len="96" vol="100" />
          <note key="60" pos="288" pan="0" len="72" vol="100" />
          <note key="60" pos="480" pan="0" len="96" vol="100" />
          <note key="60" pos="672" pan="0" len="72" vol="100" />
          <note key="60" pos="864" pan="0" len="96" vol="100" />
          <note key="60" pos="1056" pan="0" len="72" vol="100" />
          <note key="60" pos="1248" pan="0" len="96" vol="100" />
          <note key="60" pos="1440" pan="0" len="72" vol="100" />
        </pattern>
        <pattern pos="215820" muted="0" steps="16" name="" type="1">
          <note key="60" pos="96" pan="0" len="96" vol="100" />
          <note key="60" pos="288" pan="0" len="72" vol="100" />
          <note key="60" pos="480" pan="0" len="96" vol="100" />
          <note key="60" pos="672" pan="0" len="72" vol="100" />
          <note key="60" pos="864" pan="0" len="96" vol="100" />
          <note key="60" pos="1056" pan="0" len="72" vol="100" />
          <note key="60" pos="1248" pan="0" len="96" vol="100" />
          <note key="60" pos="1440" pan="0" len="72" vol="100" />
        </pattern>
      </track>
      <track solo="0" name="57 (Ch11)" type="0" muted="0">
        <instrumenttrack usemasterpitch="1" pitch="0.0" basenote="57" pan="0" pitchrange="12" vol="30">
          <eldata />
          <instrument name="tripleoscillator" />
        </instrumenttrack>
        <pattern pos="236556" muted="0" steps="16" name="" type="1">
          <note key="60" pos="0" pan="0" len="180" vol="100" />
        </pattern>
        <pattern pos="6144" muted="0" steps="16" name="" type="1">
          <note key="60" pos="960" pan="0" len="480" vol="100" />
        </pattern>
        <pattern pos="224268" muted="0" steps="16" name="" type="1">
          <note key="60" pos="0" pan="0" len="360" vol="100" />
          <note key="60" pos="384" pan="0" len="360" vol="100" />
          <note key="60" pos="768" pan="0" len="384" vol="100" />
          <note key="60" pos="1152" pan="0" len="384" vol="100" />
        </pattern>
        <pattern pos="230412" muted="0" steps="16" name="" type="1">
          <note key="60" pos="0" pan="0" len="360" vol="100" />
          <note key="60" pos="384" pan="0" len="360" vol="100" />
          <note key="60" pos="768" pan="0" len="384" vol="100" />
          <note key="60" pos="1152" pan="0" len="384" vol="100" />
        </pattern>
      </track>
      <track solo="0" name="57 (Ch14)" type="0" muted="0">
        <instrumenttrack usemasterpitch="1" pitch="0.0" basenote="57" pan="0" pitchrange="12" vol="30">
          <eldata />
          <instrument name="tripleoscillator" />
        </instrumenttrack>
        <pattern pos="7680" muted="0" steps="16" name="" type="1">
          <note key="60" pos="1728" pan="0" len="1344" vol="100" />
        </pattern>
      </track>
      <track solo="0" name="57 (Ch15)" type="0" muted="0">
        <instrumenttrack usemasterpitch="1" pitch="0.0" basenote="57" pan="0" pitchrange="12" vol="30">
          <eldata />
          <instrument name="tripleoscillator" />
        </instrumenttrack>
        <pattern pos="120576" muted="0" steps="16" name="" type="1">
          <note key="60" pos="0" pan="0" len="72" vol="34" />
          <note key="60" pos="144" pan="0" len="48" vol="34" />
          <note key="60" pos="216" pan="0" len="48" vol="34" />
          <note key="60" pos="288" pan="0" len="72" vol="34" />
          <note key="60" pos="432" pan="0" len="48" vol="34" />
          <note key="60" pos="504" pan="0" len="48" vol="34" />
          <note key="60" pos="576" pan="0" len="72" vol="34" />
          <note key="60" pos="720" pan="0" len="48" vol="34" />
          <note key="60" pos="792" pan="0" len="48" vol="34" />
          <note key="60" pos="864" pan="0" len="72" vol="34" />
          <note key="60" pos="1008" pan="0" len="48" vol="34" />
          <note key="60" pos="1080" pan="0" len="48" vol="34" />
          <note key="60" pos="1152" pan="0" len="72" vol="34" />
          <note key="60" pos="1296" pan="0" len="48" vol="34" />
          <note key="60" pos="1368" pan="0" len="48" vol="34" />
          <note key="60" pos="1440" pan="0" len="72" vol="34" />
          <note key="60" pos="1584" pan="0" len="48" vol="34" />
          <note key="60" pos="1656" pan="0" len="48" vol="34" />
          <note key="60" pos="1728" pan="0" len="72" vol="34" />
          <note key="60" pos="1872" pan="0" len="48" vol="34" />
          <note key="60" pos="1944" pan="0" len="48" vol="34" />
          <note key="60" pos="2016" pan="0" len="72" vol="34" />
          <note key="60" pos="2160" pan="0" len="48" vol="34" />
          <note key="60" pos="2232" pan="0" len="48" vol="34" />
        </pattern>
        <pattern pos="7680" muted="0" steps="16" name="" type="1">
          <note key="60" pos="192" pan="0" len="1344" vol="100" />
        </pattern>
        <pattern pos="10752" muted="0" steps="16" name="" type="1">
          <note key="60" pos="768" pan="0" len="144" vol="100" />
          <note key="60" pos="936" pan="0" len="24" vol="100" />
          <note key="60" pos="960" pan="0" len="144" vol="100" />
          <note key="60" pos="1152" pan="0" len="96" vol="100" />
        </pattern>
      </track>
      <track solo="0" name="57 (Ch16)" type="0" muted="0">
        <instrumenttrack usemasterpitch="1" pitch="0.0" basenote="57" pan="0" pitchrange="12" vol="30">
          <eldata />
          <instrument name="tripleoscillator" />
        </instrumenttrack>
        <pattern pos="235020" muted="0" steps="16" name="" type="1">
          <note key="60" pos="48" pan="0" len="72" vol="100" />
          <note key="60" pos="144" pan="0" len="72" vol="100" />
          <note key="60" pos="216" pan="0" len="48" vol="100" />
          <note key="60" pos="288" pan="0" len="48" vol="100" />
          <note key="60" pos="336" pan="0" len="24" vol="100" />
          <note key="60" pos="360" pan="0" len="72" vol="100" />
          <note key="60" pos="432" pan="0" len="72" vol="100" />
          <note key="60" pos="528" pan="0" len="72" vol="100" />
          <note key="60" pos="600" pan="0" len="48" vol="100" />
          <note key="60" pos="672" pan="0" len="48" vol="100" />
          <note key="60" pos="720" pan="0" len="24" vol="100" />
          <note key="60" pos="744" pan="0" len="72" vol="100" />
          <note key="60" pos="816" pan="0" len="72" vol="100" />
          <note key="60" pos="912" pan="0" len="72" vol="100" />
          <note key="60" pos="984" pan="0" len="48" vol="100" />
          <note key="60" pos="1056" pan="0" len="48" vol="100" />
          <note key="60" pos="1104" pan="0" len="24" vol="100" />
          <note key="60" pos="1128" pan="0" len="72" vol="100" />
          <note key="60" pos="1200" pan="0" len="72" vol="100" />
          <note key="60" pos="1296" pan="0" len="72" vol="100" />
          <note key="60" pos="1368" pan="0" len="48" vol="100" />
          <note key="60" pos="1440" pan="0" len="48" vol="100" />
          <note key="60" pos="1488" pan="0" len="24" vol="100" />
          <note key="60" pos="1512" pan="0" len="24" vol="100" />
        </pattern>
        <pattern pos="118272" muted="0" steps="16" name="" type="1">
          <note key="60" pos="72" pan="0" len="24" vol="100" />
          <note key="60" pos="96" pan="0" len="12" vol="100" />
          <note key="60" pos="216" pan="0" len="24" vol="100" />
          <note key="60" pos="240" pan="0" len="12" vol="100" />
          <note key="60" pos="360" pan="0" len="24" vol="100" />
          <note key="60" pos="384" pan="0" len="12" vol="100" />
          <note key="60" pos="504" pan="0" len="24" vol="100" />
          <note key="60" pos="528" pan="0" len="12" vol="100" />
          <note key="60" pos="648" pan="0" len="24" vol="100" />
          <note key="60" pos="672" pan="0" len="12" vol="100" />
          <note key="60" pos="792" pan="0" len="24" vol="100" />
          <note key="60" pos="816" pan="0" len="12" vol="100" />
          <note key="60" pos="936" pan="0" len="24" vol="100" />
          <note key="60" pos="960" pan="0" len="12" vol="100" />
          <note key="60" pos="1080" pan="0" len="24" vol="100" />
          <note key="60" pos="1104" pan="0" len="12" vol="100" />
          <note key="60" pos="1224" pan="0" len="24" vol="100" />
          <note key="60" pos="1248" pan="0" len="12" vol="100" />
          <note key="60" pos="1368" pan="0" len="24" vol="100" />
          <note key="60" pos="1392" pan="0" len="12" vol="100" />
          <note key="60" pos="1512" pan="0" len="24" vol="100" />
          <note key="60" pos="1536" pan="0" len="12" vol="100" />
          <note key="60" pos="1656" pan="0" len="24" vol="100" />
          <note key="60" pos="1680" pan="0" len="12" vol="100" />
          <note key="60" pos="1800" pan="0" len="24" vol="100" />
          <note key="60" pos="1824" pan="0" len="12" vol="100" />
          <note key="60" pos="1944" pan="0" len="24" vol="100" />
          <note key="60" pos="1968" pan="0" len="12" vol="100" />
          <note key="60" pos="2088" pan="0" len="24" vol="100" />
          <note key="60" pos="2112" pan="0" len="12" vol="100" />
          <note key="60" pos="2232" pan="0" len="24" vol="100" />
          <note key="60" pos="2256" pan="0" len="12" vol="100" />
        </pattern>
        <pattern pos="169740" muted="0" steps="16" name="" type="1">
          <note key="60" pos="1920" pan="0" len="180" vol="100" />
          <note key="60" pos="2112" pan="0" len="180" vol="100" />
        </pattern>
        <pattern pos="225804" muted="0" steps="16" name="" type="1">
          <note key="60" pos="48" pan="0" len="24" vol="100" />
          <note key="60" pos="72" pan="0" len="48" vol="100" />
          <note key="60" pos="120" pan="0" len="48" vol="100" />
          <note key="60" pos="168" pan="0" len="48" vol="100" />
          <note key="60" pos="240" pan="0" len="24" vol="100" />
          <note key="60" pos="264" pan="0" len="60" vol="100" />
          <note key="60" pos="336" pan="0" len="24" vol="100" />
          <note key="60" pos="360" pan="0" len="24" vol="100" />
          <note key="60" pos="432" pan="0" len="24" vol="100" />
          <note key="60" pos="456" pan="0" len="48" vol="100" />
          <note key="60" pos="504" pan="0" len="48" vol="100" />
          <note key="60" pos="552" pan="0" len="48" vol="100" />
          <note key="60" pos="624" pan="0" len="24" vol="100" />
          <note key="60" pos="648" pan="0" len="60" vol="100" />
          <note key="60" pos="720" pan="0" len="24" vol="100" />
          <note key="60" pos="744" pan="0" len="24" vol="100" />
          <note key="60" pos="816" pan="0" len="24" vol="100" />
          <note key="60" pos="840" pan="0" len="48" vol="100" />
          <note key="60" pos="888" pan="0" len="48" vol="100" />
          <note key="60" pos="936" pan="0" len="48" vol="100" />
          <note key="60" pos="1008" pan="0" len="24" vol="100" />
          <note key="60" pos="1032" pan="0" len="60" vol="100" />
          <note key="60" pos="1104" pan="0" len="24" vol="100" />
          <note key="60" pos="1128" pan="0" len="24" vol="100" />
          <note key="60" pos="1200" pan="0" len="24" vol="100" />
          <note key="60" pos="1224" pan="0" len="48" vol="100" />
          <note key="60" pos="1272" pan="0" len="48" vol="100" />
          <note key="60" pos="1320" pan="0" len="48" vol="100" />
          <note key="60" pos="1392" pan="0" len="24" vol="100" />
          <note key="60" pos="1416" pan="0" len="60" vol="100" />
          <note key="60" pos="1488" pan="0" len="24" vol="100" />
          <note key="60" pos="1512" pan="0" len="24" vol="100" />
        </pattern>
        <pattern pos="227340" muted="0" steps="16" name="" type="1">
          <note key="60" pos="48" pan="0" len="72" vol="100" />
          <note key="60" pos="144" pan="0" len="72" vol="100" />
          <note key="60" pos="216" pan="0" len="48" vol="100" />
          <note key="60" pos="288" pan="0" len="48" vol="100" />
          <note key="60" pos="336" pan="0" len="24" vol="100" />
          <note key="60" pos="360" pan="0" len="72" vol="100" />
          <note key="60" pos="432" pan="0" len="72" vol="100" />
          <note key="60" pos="528" pan="0" len="72" vol="100" />
          <note key="60" pos="600" pan="0" len="48" vol="100" />
          <note key="60" pos="672" pan="0" len="48" vol="100" />
          <note key="60" pos="720" pan="0" len="24" vol="100" />
          <note key="60" pos="744" pan="0" len="72" vol="100" />
          <note key="60" pos="816" pan="0" len="72" vol="100" />
          <note key="60" pos="912" pan="0" len="72" vol="100" />
          <note key="60" pos="984" pan="0" len="48" vol="100" />
          <note key="60" pos="1056" pan="0" len="48" vol="100" />
          <note key="60" pos="1104" pan="0" len="24" vol="100" />
          <note key="60" pos="1128" pan="0" len="72" vol="100" />
          <note key="60" pos="1200" pan="0" len="72" vol="100" />
          <note key="60" pos="1296" pan="0" len="72" vol="100" />
          <note key="60" pos="1368" pan="0" len="48" vol="100" />
          <note key="60" pos="1440" pan="0" len="48" vol="100" />
          <note key="60" pos="1488" pan="0" len="24" vol="100" />
          <note key="60" pos="1512" pan="0" len="24" vol="100" />
        </pattern>
        <pattern pos="228876" muted="0" steps="16" name="" type="1">
          <note key="60" pos="48" pan="0" len="72" vol="100" />
          <note key="60" pos="144" pan="0" len="72" vol="100" />
          <note key="60" pos="216" pan="0" len="48" vol="100" />
          <note key="60" pos="288" pan="0" len="48" vol="100" />
          <note key="60" pos="336" pan="0" len="24" vol="100" />
          <note key="60" pos="360" pan="0" len="72" vol="100" />
          <note key="60" pos="432" pan="0" len="72" vol="100" />
          <note key="60" pos="528" pan="0" len="72" vol="100" />
          <note key="60" pos="600" pan="0" len="48" vol="100" />
          <note key="60" pos="672" pan="0" len="48" vol="100" />
          <note key="60" pos="720" pan="0" len="24" vol="100" />
          <note key="60" pos="744" pan="0" len="72" vol="100" />
          <note key="60" pos="816" pan="0" len="72" vol="100" />
          <note key="60" pos="912" pan="0" len="72" vol="100" />
          <note key="60" pos="984" pan="0" len="48" vol="100" />
          <note key="60" pos="1056" pan="0" len="48" vol="100" />
          <note key="60" pos="1104" pan="0" len="24" vol="100" />
          <note key="60" pos="1128" pan="0" len="72" vol="100" />
          <note key="60" pos="1200" pan="0" len="72" vol="100" />
          <note key="60" pos="1296" pan="0" len="72" vol="100" />
          <note key="60" pos="1368" pan="0" len="48" vol="100" />
          <note key="60" pos="1440" pan="0" len="48" vol="100" />
          <note key="60" pos="1488" pan="0" len="24" vol="100" />
          <note key="60" pos="1512" pan="0" len="24" vol="100" />
        </pattern>
      </track>
      <track solo="0" name="57 (Ch17)" type="0" muted="0">
        <instrumenttrack usemasterpitch="1" pitch="0.0" basenote="57" pan="0" pitchrange="12" vol="30">
          <eldata />
          <instrument name="tripleoscillator" />
        </instrumenttrack>
        <pattern pos="12288" muted="0" steps="16" name="" type="1">
          <note key="60" pos="2688" pan="0" len="384" vol="100" />
        </pattern>
      </track>
      <track solo="0" name="58 (Ch1)" type="0" muted="0">
        <instrumenttrack usemasterpitch="1" pitch="0.0" basenote="57" pan="0" pitchrange="12" vol="30">
          <eldata />
          <instrument name="tripleoscillator" />
        </instrumenttrack>
        <pattern pos="185100" muted="0" steps="16" name="" type="1">
          <note key="60" pos="48" pan="0" len="24" vol="50" />
          <note key="60" pos="120" pan="0" len="48" vol="100" />
          <note key="60" pos="168" pan="0" len="24" vol="17" />
          <note key="60" pos="240" pan="0" len="24" vol="50" />
          <note key="60" pos="312" pan="0" len="48" vol="100" />
          <note key="60" pos="360" pan="0" len="24" vol="17" />
          <note key="60" pos="432" pan="0" len="24" vol="50" />
          <note key="60" pos="504" pan="0" len="48" vol="100" />
          <note key="60" pos="552" pan="0" len="24" vol="17" />
          <note key="60" pos="624" pan="0" len="24" vol="50" />
          <note key="60" pos="696" pan="0" len="48" vol="100" />
          <note key="60" pos="744" pan="0" len="24" vol="17" />
          <note key="60" pos="816" pan="0" len="24" vol="50" />
          <note key="60" pos="888" pan="0" len="48" vol="100" />
          <note key="60" pos="936" pan="0" len="24" vol="17" />
          <note key="60" pos="1008" pan="0" len="24" vol="50" />
          <note key="60" pos="1080" pan="0" len="48" vol="100" />
          <note key="60" pos="1128" pan="0" len="24" vol="17" />
          <note key="60" pos="1200" pan="0" len="24" vol="50" />
          <note key="60" pos="1272" pan="0" len="48" vol="100" />
          <note key="60" pos="1320" pan="0" len="24" vol="17" />
          <note key="60" pos="1392" pan="0" len="24" vol="50" />
          <note key="60" pos="1464" pan="0" len="48" vol="100" />
          <note key="60" pos="1512" pan="0" len="24" vol="17" />
        </pattern>
      </track>
      <track solo="0" name="58 (Ch8)" type="0" muted="0">
        <instrumenttrack usemasterpitch="1" pitch="0.0" basenote="57" pan="0" pitchrange="12" vol="30">
          <eldata />
          <instrument name="tripleoscillator" />
        </instrumenttrack>
        <pattern pos="214284" muted="0" steps="16" name="" type="1">
          <note key="59" pos="24" pan="0" len="48" vol="34" />
          <note key="59" pos="216" pan="0" len="48" vol="34" />
          <note key="59" pos="408" pan="0" len="48" vol="34" />
          <note key="59" pos="600" pan="0" len="48" vol="34" />
          <note key="59" pos="792" pan="0" len="48" vol="34" />
          <note key="59" pos="984" pan="0" len="48" vol="34" />
          <note key="59" pos="1176" pan="0" len="48" vol="34" />
          <note key="59" pos="1368" pan="0" len="48" vol="34" />
        </pattern>
        <pattern pos="211212" muted="0" steps="16" name="" type="1">
          <note key="59" pos="24" pan="0" len="48" vol="34" />
          <note key="59" pos="216" pan="0" len="48" vol="34" />
          <note key="59" pos="408" pan="0" len="48" vol="34" />
          <note key="59" pos="600" pan="0" len="48" vol="34" />
          <note key="59" pos="792" pan="0" len="48" vol="34" />
          <note key="59" pos="984" pan="0" len="48" vol="34" />
          <note key="59" pos="1176" pan="0" len="48" vol="34" />
          <note key="59" pos="1368" pan="0" len="48" vol="34" />
        </pattern>
        <pattern pos="212748" muted="0" steps="16" name="" type="1">
          <note key="59" pos="24" pan="0" len="48" vol="34" />
          <note key="59" pos="216" pan="0" len="48" vol="34" />
          <note key="59" pos="408" pan="0" len="48" vol="34" />
          <note key="59" pos="600" pan="0" len="48" vol="34" />
          <note key="59" pos="792" pan="0" len="48" vol="34" />
          <note key="59" pos="984" pan="0" len="48" vol="34" />
          <note key="59" pos="1176" pan="0" len="48" vol="34" />
          <note key="59" pos="1368" pan="0" len="48" vol="34" />
        </pattern>
      </track>
      <track solo="0" name="58 (Ch11)" type="0" muted="0">
        <instrumenttrack usemasterpitch="1" pitch="0.0" basenote="57" pan="0" pitchrange="12" vol="30">
          <eldata />
          <instrument name="tripleoscillator" />
        </instrumenttrack>
        <pattern pos="217356" muted="0" steps="16" name="" type="1">
          <note key="59" pos="24" pan="0" len="48" vol="34" />
          <note key="59" pos="216" pan="0" len="48" vol="34" />
          <note key="59" pos="408" pan="0" len="48" vol="34" />
          <note key="59" pos="600" pan="0" len="48" vol="34" />
          <note key="59" pos="792" pan="0" len="48" vol="34" />
          <note key="59" pos="984" pan="0" len="48" vol="34" />
          <note key="59" pos="1176" pan="0" len="48" vol="34" />
          <note key="59" pos="1368" pan="0" len="48" vol="34" />
        </pattern>
        <pattern pos="215820" muted="0" steps="16" name="" type="1">
          <note key="59" pos="24" pan="0" len="48" vol="34" />
          <note key="59" pos="216" pan="0" len="48" vol="34" />
          <note key="59" pos="408" pan="0" len="48" vol="34" />
          <note key="59" pos="600" pan="0" len="48" vol="34" />
          <note key="59" pos="792" pan="0" len="48" vol="34" />
          <note key="59" pos="984" pan="0" len="48" vol="34" />
          <note key="59" pos="1176" pan="0" len="48" vol="34" />
          <note key="59" pos="1368" pan="0" len="48" vol="34" />
        </pattern>
      </track>
      <track solo="0" name="59 (Ch2)" type="0" muted="0">
        <instrumenttrack usemasterpitch="1" pitch="0.0" basenote="57" pan="0" pitchrange="12" vol="30">
          <eldata />
          <instrument name="tripleoscillator" />
        </instrumenttrack>
        <pattern pos="280476" muted="0" steps="16" name="" type="1">
          <note key="63" pos="0" pan="0" len="12" vol="16" />
          <note key="65" pos="12" pan="0" len="12" vol="22" />
          <note key="67" pos="24" pan="0" len="12" vol="27" />
          <note key="68" pos="36" pan="0" len="12" vol="33" />
          <note key="73" pos="48" pan="0" len="12" vol="39" />
          <note key="72" pos="60" pan="0" len="12" vol="44" />
          <note key="70" pos="72" pan="0" len="12" vol="50" />
          <note key="68" pos="84" pan="0" len="12" vol="55" />
          <note key="67" pos="96" pan="0" len="12" vol="61" />
          <note key="68" pos="108" pan="0" len="12" vol="67" />
          <note key="63" pos="120" pan="0" len="12" vol="72" />
          <note key="61" pos="132" pan="0" len="12" vol="78" />
          <note key="63" pos="144" pan="0" len="24" vol="100" />
        </pattern>
      </track>
      <track solo="0" name="59 (Ch5)" type="0" muted="0">
        <instrumenttrack usemasterpitch="1" pitch="0.0" basenote="57" pan="0" pitchrange="12" vol="30">
          <eldata />
          <instrument name="tripleoscillator" />
        </instrumenttrack>
        <pattern pos="276444" muted="0" steps="16" name="" type="1">
          <note key="52" pos="504" pan="0" len="12" vol="16" />
          <note key="54" pos="516" pan="0" len="12" vol="31" />
          <note key="56" pos="528" pan="0" len="12" vol="47" />
          <note key="59" pos="540" pan="0" len="12" vol="62" />
          <note key="64" pos="552" pan="0" len="12" vol="78" />
          <note key="71" pos="564" pan="0" len="12" vol="100" />
        </pattern>
        <pattern pos="95232" muted="0" steps="16" name="" type="1">
          <note key="50" pos="0" pan="0" len="48" vol="80" />
          <note key="57" pos="48" pan="0" len="48" vol="25" />
          <note key="65" pos="96" pan="0" len="48" vol="38" />
          <note key="57" pos="144" pan="0" len="48" vol="80" />
          <note key="64" pos="192" pan="0" len="48" vol="80" />
          <note key="60" pos="240" pan="0" len="48" vol="25" />
          <note key="55" pos="288" pan="0" len="48" vol="50" />
          <note key="62" pos="336" pan="0" len="48" vol="80" />
          <note key="58" pos="384" pan="0" len="48" vol="80" />
          <note key="53" pos="432" pan="0" len="48" vol="38" />
          <note key="62" pos="480" pan="0" len="48" vol="80" />
          <note key="55" pos="528" pan="0" len="48" vol="50" />
          <note key="52" pos="576" pan="0" len="48" vol="72" />
          <note key="60" pos="624" pan="0" len="48" vol="80" />
          <note key="55" pos="672" pan="0" len="48" vol="25" />
          <note key="48" pos="720" pan="0" len="48" vol="38" />
          <note key="50" pos="768" pan="0" len="48" vol="80" />
          <note key="57" pos="816" pan="0" len="48" vol="25" />
          <note key="65" pos="864" pan="0" len="48" vol="38" />
          <note key="57" pos="912" pan="0" len="48" vol="80" />
          <note key="64" pos="960" pan="0" len="48" vol="80" />
          <note key="60" pos="1008" pan="0" len="48" vol="25" />
          <note key="55" pos="1056" pan="0" len="48" vol="50" />
          <note key="62" pos="1104" pan="0" len="48" vol="80" />
          <note key="58" pos="1152" pan="0" len="48" vol="80" />
          <note key="53" pos="1200" pan="0" len="48" vol="38" />
          <note key="62" pos="1248" pan="0" len="48" vol="80" />
          <note key="55" pos="1296" pan="0" len="48" vol="50" />
          <note key="52" pos="1344" pan="0" len="48" vol="72" />
          <note key="60" pos="1392" pan="0" len="48" vol="80" />
          <note key="55" pos="1440" pan="0" len="48" vol="25" />
          <note key="48" pos="1488" pan="0" len="48" vol="38" />
          <note key="50" pos="1536" pan="0" len="48" vol="80" />
          <note key="57" pos="1584" pan="0" len="48" vol="25" />
          <note key="65" pos="1632" pan="0" len="48" vol="38" />
          <note key="57" pos="1680" pan="0" len="48" vol="80" />
          <note key="64" pos="1728" pan="0" len="48" vol="80" />
          <note key="60" pos="1776" pan="0" len="48" vol="25" />
          <note key="55" pos="1824" pan="0" len="48" vol="50" />
          <note key="62" pos="1872" pan="0" len="48" vol="80" />
          <note key="58" pos="1920" pan="0" len="48" vol="80" />
          <note key="53" pos="1968" pan="0" len="48" vol="38" />
          <note key="62" pos="2016" pan="0" len="48" vol="80" />
          <note key="55" pos="2064" pan="0" len="48" vol="50" />
          <note key="52" pos="2112" pan="0" len="48" vol="72" />
          <note key="60" pos="2160" pan="0" len="48" vol="80" />
          <note key="55" pos="2208" pan="0" len="48" vol="25" />
          <note key="48" pos="2256" pan="0" len="48" vol="38" />
        </pattern>
        <pattern pos="233484" muted="0" steps="16" name="" type="1">
          <note key="78" pos="0" pan="0" len="48" vol="100" />
          <note key="70" pos="120" pan="0" len="24" vol="100" />
          <note key="75" pos="144" pan="0" len="24" vol="100" />
          <note key="77" pos="168" pan="0" len="24" vol="100" />
          <note key="78" pos="192" pan="0" len="24" vol="100" />
          <note key="82" pos="264" pan="0" len="12" vol="100" />
          <note key="77" pos="288" pan="0" len="24" vol="100" />
          <note key="73" pos="360" pan="0" len="12" vol="100" />
          <note key="77" pos="384" pan="0" len="48" vol="100" />
          <note key="68" pos="504" pan="0" len="24" vol="100" />
          <note key="73" pos="528" pan="0" len="12" vol="100" />
          <note key="75" pos="552" pan="0" len="24" vol="100" />
          <note key="77" pos="576" pan="0" len="48" vol="100" />
          <note key="80" pos="624" pan="0" len="48" vol="100" />
          <note key="75" pos="672" pan="0" len="24" vol="100" />
          <note key="71" pos="696" pan="0" len="72" vol="100" />
          <note key="75" pos="768" pan="0" len="120" vol="100" />
          <note key="66" pos="888" pan="0" len="24" vol="100" />
          <note key="71" pos="912" pan="0" len="24" vol="100" />
          <note key="73" pos="936" pan="0" len="24" vol="100" />
          <note key="75" pos="960" pan="0" len="48" vol="100" />
          <note key="78" pos="1008" pan="0" len="24" vol="100" />
          <note key="73" pos="1032" pan="0" len="12" vol="100" />
          <note key="70" pos="1080" pan="0" len="48" vol="100" />
          <note key="73" pos="1128" pan="0" len="192" vol="100" />
          <note key="71" pos="1320" pan="0" len="12" vol="100" />
          <note key="70" pos="1332" pan="0" len="12" vol="100" />
          <note key="68" pos="1344" pan="0" len="120" vol="100" />
          <note key="66" pos="1464" pan="0" len="24" vol="100" />
          <note key="73" pos="1488" pan="0" len="24" vol="100" />
          <note key="77" pos="1512" pan="0" len="24" vol="100" />
        </pattern>
        <pattern pos="235020" muted="0" steps="16" name="" type="1">
          <note key="73" pos="0" pan="0" len="48" vol="100" />
          <note key="65" pos="120" pan="0" len="24" vol="100" />
          <note key="70" pos="144" pan="0" len="24" vol="100" />
          <note key="72" pos="168" pan="0" len="24" vol="100" />
          <note key="73" pos="192" pan="0" len="24" vol="100" />
          <note key="77" pos="264" pan="0" len="12" vol="100" />
          <note key="72" pos="288" pan="0" len="24" vol="100" />
          <note key="68" pos="360" pan="0" len="12" vol="100" />
          <note key="72" pos="384" pan="0" len="48" vol="100" />
          <note key="63" pos="504" pan="0" len="24" vol="100" />
          <note key="68" pos="528" pan="0" len="12" vol="100" />
          <note key="70" pos="552" pan="0" len="24" vol="100" />
          <note key="72" pos="576" pan="0" len="48" vol="100" />
          <note key="75" pos="624" pan="0" len="48" vol="100" />
          <note key="70" pos="672" pan="0" len="24" vol="100" />
          <note key="66" pos="696" pan="0" len="72" vol="100" />
          <note key="70" pos="768" pan="0" len="120" vol="100" />
          <note key="61" pos="888" pan="0" len="24" vol="100" />
          <note key="66" pos="912" pan="0" len="24" vol="100" />
          <note key="68" pos="936" pan="0" len="24" vol="100" />
          <note key="70" pos="960" pan="0" len="48" vol="100" />
          <note key="73" pos="1008" pan="0" len="24" vol="100" />
          <note key="68" pos="1032" pan="0" len="12" vol="100" />
          <note key="65" pos="1080" pan="0" len="48" vol="100" />
          <note key="68" pos="1128" pan="0" len="192" vol="100" />
          <note key="66" pos="1320" pan="0" len="12" vol="100" />
          <note key="65" pos="1332" pan="0" len="12" vol="100" />
          <note key="63" pos="1344" pan="0" len="144" vol="100" />
        </pattern>
        <pattern pos="271692" muted="0" steps="16" name="" type="1">
          <note key="52" pos="504" pan="0" len="12" vol="16" />
          <note key="54" pos="516" pan="0" len="12" vol="31" />
          <note key="56" pos="528" pan="0" len="12" vol="47" />
          <note key="59" pos="540" pan="0" len="12" vol="62" />
          <note key="64" pos="552" pan="0" len="12" vol="78" />
          <note key="71" pos="564" pan="0" len="12" vol="100" />
        </pattern>
      </track>
      <track solo="0" name="59 (Ch8)" type="0" muted="0">
        <instrumenttrack usemasterpitch="1" pitch="0.0" basenote="57" pan="0" pitchrange="12" vol="30">
          <eldata />
          <instrument name="tripleoscillator" />
        </instrumenttrack>
        <pattern pos="274140" muted="0" steps="16" name="" type="1">
          <note key="56" pos="1152" pan="0" len="12" vol="77" />
          <note key="63" pos="1164" pan="0" len="12" vol="20" />
          <note key="66" pos="1176" pan="0" len="12" vol="41" />
          <note key="68" pos="1188" pan="0" len="12" vol="77" />
          <note key="70" pos="1200" pan="0" len="12" vol="20" />
          <note key="71" pos="1212" pan="0" len="12" vol="41" />
          <note key="70" pos="1224" pan="0" len="12" vol="77" />
          <note key="66" pos="1236" pan="0" len="12" vol="77" />
          <note key="61" pos="1248" pan="0" len="12" vol="77" />
          <note key="58" pos="1260" pan="0" len="12" vol="77" />
          <note key="56" pos="1272" pan="0" len="12" vol="20" />
          <note key="54" pos="1284" pan="0" len="12" vol="41" />
          <note key="56" pos="1296" pan="0" len="12" vol="77" />
          <note key="63" pos="1308" pan="0" len="12" vol="20" />
          <note key="66" pos="1320" pan="0" len="12" vol="41" />
          <note key="68" pos="1332" pan="0" len="12" vol="77" />
          <note key="70" pos="1344" pan="0" len="12" vol="41" />
          <note key="71" pos="1356" pan="0" len="12" vol="61" />
          <note key="73" pos="1368" pan="0" len="12" vol="77" />
          <note key="70" pos="1380" pan="0" len="12" vol="77" />
          <note key="66" pos="1392" pan="0" len="12" vol="77" />
          <note key="73" pos="1404" pan="0" len="12" vol="77" />
          <note key="61" pos="1416" pan="0" len="12" vol="20" />
          <note key="54" pos="1428" pan="0" len="12" vol="41" />
          <note key="71" pos="1440" pan="0" len="12" vol="77" />
          <note key="63" pos="1452" pan="0" len="12" vol="20" />
          <note key="66" pos="1464" pan="0" len="12" vol="41" />
          <note key="68" pos="1476" pan="0" len="12" vol="77" />
          <note key="70" pos="1488" pan="0" len="12" vol="20" />
          <note key="71" pos="1500" pan="0" len="12" vol="41" />
          <note key="70" pos="1512" pan="0" len="12" vol="77" />
          <note key="66" pos="1524" pan="0" len="12" vol="20" />
          <note key="61" pos="1536" pan="0" len="12" vol="41" />
          <note key="58" pos="1548" pan="0" len="12" vol="77" />
          <note key="56" pos="1560" pan="0" len="12" vol="41" />
          <note key="54" pos="1572" pan="0" len="12" vol="61" />
          <note key="64" pos="1584" pan="0" len="12" vol="77" />
          <note key="59" pos="1596" pan="0" len="12" vol="20" />
          <note key="64" pos="1608" pan="0" len="12" vol="41" />
          <note key="66" pos="1620" pan="0" len="12" vol="77" />
          <note key="68" pos="1632" pan="0" len="12" vol="41" />
          <note key="71" pos="1644" pan="0" len="12" vol="61" />
          <note key="70" pos="1656" pan="0" len="12" vol="77" />
          <note key="66" pos="1668" pan="0" len="12" vol="20" />
          <note key="61" pos="1680" pan="0" len="12" vol="41" />
          <note key="58" pos="1692" pan="0" len="12" vol="77" />
          <note key="56" pos="1704" pan="0" len="12" vol="77" />
          <note key="54" pos="1716" pan="0" len="12" vol="77" />
          <note key="56" pos="1728" pan="0" len="12" vol="77" />
          <note key="63" pos="1740" pan="0" len="12" vol="20" />
          <note key="66" pos="1752" pan="0" len="12" vol="41" />
          <note key="68" pos="1764" pan="0" len="12" vol="77" />
          <note key="70" pos="1776" pan="0" len="12" vol="20" />
          <note key="71" pos="1788" pan="0" len="12" vol="41" />
          <note key="70" pos="1800" pan="0" len="12" vol="77" />
          <note key="66" pos="1812" pan="0" len="12" vol="77" />
          <note key="61" pos="1824" pan="0" len="12" vol="77" />
          <note key="58" pos="1836" pan="0" len="12" vol="77" />
          <note key="56" pos="1848" pan="0" len="12" vol="20" />
          <note key="54" pos="1860" pan="0" len="12" vol="41" />
          <note key="56" pos="1872" pan="0" len="12" vol="77" />
          <note key="63" pos="1884" pan="0" len="12" vol="20" />
          <note key="66" pos="1896" pan="0" len="12" vol="41" />
          <note key="68" pos="1908" pan="0" len="12" vol="77" />
          <note key="70" pos="1920" pan="0" len="12" vol="41" />
          <note key="71" pos="1932" pan="0" len="12" vol="61" />
          <note key="73" pos="1944" pan="0" len="12" vol="77" />
          <note key="70" pos="1956" pan="0" len="12" vol="77" />
          <note key="66" pos="1968" pan="0" len="12" vol="77" />
          <note key="73" pos="1980" pan="0" len="12" vol="77" />
          <note key="61" pos="1992" pan="0" len="12" vol="20" />
          <note key="54" pos="2004" pan="0" len="12" vol="41" />
          <note key="71" pos="2016" pan="0" len="12" vol="77" />
          <note key="63" pos="2028" pan="0" len="12" vol="20" />
          <note key="66" pos="2040" pan="0" len="12" vol="41" />
          <note key="68" pos="2052" pan="0" len="12" vol="77" />
          <note key="70" pos="2064" pan="0" len="12" vol="20" />
          <note key="71" pos="2076" pan="0" len="12" vol="41" />
          <note key="70" pos="2088" pan="0" len="12" vol="77" />
          <note key="66" pos="2100" pan="0" len="12" vol="20" />
          <note key="61" pos="2112" pan="0" len="12" vol="41" />
          <note key="58" pos="2124" pan="0" len="12" vol="77" />
          <note key="56" pos="2136" pan="0" len="12" vol="41" />
          <note key="54" pos="2148" pan="0" len="12" vol="61" />
          <note key="64" pos="2160" pan="0" len="12" vol="77" />
          <note key="59" pos="2172" pan="0" len="12" vol="20" />
          <note key="64" pos="2184" pan="0" len="12" vol="41" />
          <note key="66" pos="2196" pan="0" len="12" vol="77" />
          <note key="68" pos="2208" pan="0" len="12" vol="41" />
          <note key="71" pos="2220" pan="0" len="12" vol="61" />
          <note key="70" pos="2232" pan="0" len="12" vol="77" />
          <note key="66" pos="2244" pan="0" len="12" vol="20" />
          <note key="61" pos="2256" pan="0" len="12" vol="41" />
          <note key="58" pos="2268" pan="0" len="12" vol="77" />
          <note key="56" pos="2280" pan="0" len="12" vol="77" />
          <note key="54" pos="2292" pan="0" len="12" vol="77" />
        </pattern>
      </track>
      <track solo="0" name="59 (Ch9)" type="0" muted="0">
        <instrumenttrack usemasterpitch="1" pitch="0.0" basenote="57" pan="0" pitchrange="12" vol="30">
          <eldata />
          <instrument name="tripleoscillator" />
        </instrumenttrack>
        <pattern pos="272988" muted="0" steps="16" name="" type="1">
          <note key="44" pos="576" pan="0" len="12" vol="100" />
          <note key="56" pos="588" pan="0" len="12" vol="31" />
          <note key="58" pos="600" pan="0" len="12" vol="47" />
          <note key="59" pos="612" pan="0" len="12" vol="100" />
          <note key="61" pos="624" pan="0" len="12" vol="62" />
          <note key="63" pos="636" pan="0" len="12" vol="100" />
          <note key="61" pos="648" pan="0" len="24" vol="100" />
          <note key="66" pos="672" pan="0" len="24" vol="47" />
          <note key="61" pos="696" pan="0" len="24" vol="100" />
          <note key="59" pos="720" pan="0" len="24" vol="100" />
          <note key="56" pos="744" pan="0" len="24" vol="100" />
          <note key="52" pos="768" pan="0" len="24" vol="100" />
          <note key="58" pos="792" pan="0" len="72" vol="100" />
          <note key="44" pos="864" pan="0" len="12" vol="100" />
          <note key="56" pos="876" pan="0" len="12" vol="47" />
          <note key="58" pos="888" pan="0" len="12" vol="62" />
          <note key="59" pos="900" pan="0" len="12" vol="100" />
          <note key="61" pos="912" pan="0" len="12" vol="31" />
          <note key="63" pos="924" pan="0" len="12" vol="100" />
          <note key="61" pos="936" pan="0" len="24" vol="47" />
          <note key="66" pos="960" pan="0" len="24" vol="100" />
          <note key="73" pos="984" pan="0" len="24" vol="100" />
          <note key="71" pos="1008" pan="0" len="24" vol="100" />
          <note key="70" pos="1032" pan="0" len="24" vol="47" />
          <note key="68" pos="1056" pan="0" len="24" vol="100" />
          <note key="66" pos="1080" pan="0" len="72" vol="100" />
        </pattern>
        <pattern pos="97536" muted="0" steps="16" name="" type="1">
          <note key="50" pos="0" pan="0" len="48" vol="80" />
          <note key="57" pos="48" pan="0" len="48" vol="25" />
          <note key="65" pos="96" pan="0" len="48" vol="38" />
          <note key="57" pos="144" pan="0" len="48" vol="80" />
          <note key="64" pos="192" pan="0" len="48" vol="80" />
          <note key="60" pos="240" pan="0" len="48" vol="25" />
          <note key="55" pos="288" pan="0" len="48" vol="50" />
          <note key="62" pos="336" pan="0" len="48" vol="80" />
          <note key="58" pos="384" pan="0" len="48" vol="80" />
          <note key="53" pos="432" pan="0" len="48" vol="38" />
          <note key="62" pos="480" pan="0" len="48" vol="80" />
          <note key="55" pos="528" pan="0" len="48" vol="50" />
          <note key="52" pos="576" pan="0" len="48" vol="72" />
          <note key="60" pos="624" pan="0" len="48" vol="80" />
          <note key="55" pos="672" pan="0" len="48" vol="25" />
          <note key="48" pos="720" pan="0" len="48" vol="38" />
        </pattern>
        <pattern pos="98304" muted="0" steps="16" name="" type="1">
          <note key="50" pos="0" pan="0" len="48" vol="100" />
          <note key="57" pos="48" pan="0" len="48" vol="31" />
          <note key="65" pos="96" pan="0" len="48" vol="47" />
          <note key="57" pos="144" pan="0" len="48" vol="100" />
          <note key="64" pos="192" pan="0" len="48" vol="100" />
          <note key="60" pos="240" pan="0" len="48" vol="31" />
          <note key="55" pos="288" pan="0" len="48" vol="62" />
          <note key="62" pos="336" pan="0" len="48" vol="100" />
          <note key="58" pos="384" pan="0" len="48" vol="100" />
          <note key="53" pos="432" pan="0" len="48" vol="47" />
          <note key="62" pos="480" pan="0" len="48" vol="100" />
          <note key="55" pos="528" pan="0" len="48" vol="62" />
          <note key="52" pos="576" pan="0" len="48" vol="91" />
          <note key="60" pos="624" pan="0" len="48" vol="100" />
          <note key="55" pos="672" pan="0" len="48" vol="31" />
          <note key="48" pos="720" pan="0" len="48" vol="47" />
          <note key="50" pos="768" pan="0" len="48" vol="100" />
          <note key="57" pos="816" pan="0" len="48" vol="31" />
          <note key="65" pos="864" pan="0" len="48" vol="47" />
          <note key="57" pos="912" pan="0" len="48" vol="100" />
          <note key="64" pos="960" pan="0" len="48" vol="100" />
          <note key="60" pos="1008" pan="0" len="48" vol="31" />
          <note key="55" pos="1056" pan="0" len="48" vol="62" />
          <note key="62" pos="1104" pan="0" len="48" vol="100" />
          <note key="58" pos="1152" pan="0" len="48" vol="100" />
          <note key="53" pos="1200" pan="0" len="48" vol="47" />
          <note key="62" pos="1248" pan="0" len="48" vol="100" />
          <note key="55" pos="1296" pan="0" len="48" vol="62" />
          <note key="52" pos="1344" pan="0" len="48" vol="91" />
          <note key="60" pos="1392" pan="0" len="48" vol="100" />
          <note key="55" pos="1440" pan="0" len="48" vol="31" />
          <note key="48" pos="1488" pan="0" len="48" vol="47" />
        </pattern>
        <pattern pos="99840" muted="0" steps="16" name="" type="1">
          <note key="50" pos="0" pan="0" len="48" vol="100" />
          <note key="57" pos="48" pan="0" len="48" vol="31" />
          <note key="65" pos="96" pan="0" len="48" vol="47" />
          <note key="57" pos="144" pan="0" len="48" vol="100" />
          <note key="64" pos="192" pan="0" len="48" vol="100" />
          <note key="60" pos="240" pan="0" len="48" vol="31" />
          <note key="55" pos="288" pan="0" len="48" vol="62" />
          <note key="62" pos="336" pan="0" len="48" vol="100" />
          <note key="58" pos="384" pan="0" len="48" vol="100" />
          <note key="53" pos="432" pan="0" len="48" vol="47" />
          <note key="62" pos="480" pan="0" len="48" vol="100" />
          <note key="55" pos="528" pan="0" len="48" vol="62" />
          <note key="52" pos="576" pan="0" len="48" vol="91" />
          <note key="60" pos="624" pan="0" len="48" vol="100" />
          <note key="55" pos="672" pan="0" len="48" vol="31" />
          <note key="48" pos="720" pan="0" len="48" vol="47" />
          <note key="50" pos="768" pan="0" len="48" vol="100" />
          <note key="57" pos="816" pan="0" len="48" vol="31" />
          <note key="65" pos="864" pan="0" len="48" vol="47" />
          <note key="57" pos="912" pan="0" len="48" vol="100" />
          <note key="64" pos="960" pan="0" len="48" vol="100" />
          <note key="60" pos="1008" pan="0" len="48" vol="31" />
          <note key="55" pos="1056" pan="0" len="48" vol="62" />
          <note key="62" pos="1104" pan="0" len="48" vol="100" />
          <note key="58" pos="1152" pan="0" len="48" vol="100" />
          <note key="53" pos="1200" pan="0" len="48" vol="47" />
          <note key="62" pos="1248" pan="0" len="48" vol="100" />
          <note key="55" pos="1296" pan="0" len="48" vol="62" />
          <note key="52" pos="1344" pan="0" len="48" vol="91" />
          <note key="60" pos="1392" pan="0" len="48" vol="100" />
          <note key="55" pos="1440" pan="0" len="48" vol="31" />
          <note key="48" pos="1488" pan="0" len="48" vol="47" />
        </pattern>
      </track>
      <track solo="0" name="59 (Ch10)" type="0" muted="0">
        <instrumenttrack usemasterpitch="1" pitch="0.0" basenote="57" pan="0" pitchrange="12" vol="30">
          <eldata />
          <instrument name="tripleoscillator" />
        </instrumenttrack>
        <pattern pos="245004" muted="0" steps="16" name="" type="1">
          <note key="51" pos="768" pan="0" len="12" vol="16" />
          <note key="52" pos="780" pan="0" len="12" vol="19" />
          <note key="54" pos="792" pan="0" len="12" vol="22" />
          <note key="56" pos="804" pan="0" len="12" vol="25" />
          <note key="59" pos="816" pan="0" len="12" vol="28" />
          <note key="58" pos="828" pan="0" len="12" vol="31" />
          <note key="61" pos="840" pan="0" len="12" vol="34" />
          <note key="63" pos="852" pan="0" len="12" vol="38" />
          <note key="64" pos="864" pan="0" len="12" vol="41" />
          <note key="66" pos="876" pan="0" len="12" vol="44" />
          <note key="71" pos="888" pan="0" len="12" vol="47" />
          <note key="70" pos="900" pan="0" len="12" vol="50" />
          <note key="66" pos="912" pan="0" len="12" vol="53" />
          <note key="68" pos="924" pan="0" len="12" vol="56" />
          <note key="73" pos="936" pan="0" len="12" vol="59" />
          <note key="75" pos="948" pan="0" len="12" vol="62" />
          <note key="76" pos="960" pan="0" len="12" vol="59" />
          <note key="78" pos="972" pan="0" len="12" vol="56" />
          <note key="80" pos="984" pan="0" len="12" vol="53" />
          <note key="82" pos="996" pan="0" len="12" vol="52" />
          <note key="83" pos="1008" pan="0" len="12" vol="48" />
          <note key="82" pos="1020" pan="0" len="12" vol="45" />
          <note key="78" pos="1032" pan="0" len="12" vol="42" />
          <note key="76" pos="1044" pan="0" len="12" vol="39" />
          <note key="75" pos="1056" pan="0" len="12" vol="36" />
          <note key="71" pos="1068" pan="0" len="12" vol="33" />
          <note key="70" pos="1080" pan="0" len="12" vol="30" />
          <note key="66" pos="1092" pan="0" len="12" vol="28" />
          <note key="64" pos="1104" pan="0" len="12" vol="25" />
          <note key="63" pos="1116" pan="0" len="12" vol="22" />
          <note key="59" pos="1128" pan="0" len="12" vol="19" />
          <note key="56" pos="1140" pan="0" len="396" vol="16" />
        </pattern>
        <pattern pos="238860" muted="0" steps="16" name="" type="1">
          <note key="58" pos="0" pan="0" len="36" vol="0" />
          <note key="65" pos="36" pan="0" len="36" vol="6" />
          <note key="63" pos="72" pan="0" len="36" vol="12" />
          <note key="68" pos="108" pan="0" len="36" vol="19" />
          <note key="67" pos="144" pan="0" len="24" vol="23" />
          <note key="63" pos="168" pan="0" len="24" vol="28" />
          <note key="65" pos="192" pan="0" len="36" vol="33" />
          <note key="58" pos="228" pan="0" len="36" vol="39" />
          <note key="56" pos="264" pan="0" len="36" vol="44" />
          <note key="61" pos="300" pan="0" len="36" vol="50" />
          <note key="60" pos="336" pan="0" len="24" vol="56" />
          <note key="56" pos="360" pan="0" len="24" vol="61" />
          <note key="48" pos="384" pan="0" len="12" vol="16" />
          <note key="49" pos="396" pan="0" len="12" vol="19" />
          <note key="51" pos="408" pan="0" len="12" vol="22" />
          <note key="53" pos="420" pan="0" len="12" vol="25" />
          <note key="56" pos="432" pan="0" len="12" vol="28" />
          <note key="55" pos="444" pan="0" len="12" vol="31" />
          <note key="58" pos="456" pan="0" len="12" vol="34" />
          <note key="60" pos="468" pan="0" len="12" vol="38" />
          <note key="61" pos="480" pan="0" len="12" vol="41" />
          <note key="63" pos="492" pan="0" len="12" vol="44" />
          <note key="68" pos="504" pan="0" len="12" vol="47" />
          <note key="67" pos="516" pan="0" len="12" vol="50" />
          <note key="63" pos="528" pan="0" len="12" vol="53" />
          <note key="65" pos="540" pan="0" len="12" vol="56" />
          <note key="70" pos="552" pan="0" len="12" vol="59" />
          <note key="72" pos="564" pan="0" len="12" vol="62" />
          <note key="73" pos="576" pan="0" len="12" vol="59" />
          <note key="75" pos="588" pan="0" len="12" vol="56" />
          <note key="77" pos="600" pan="0" len="12" vol="53" />
          <note key="79" pos="612" pan="0" len="12" vol="52" />
          <note key="80" pos="624" pan="0" len="12" vol="48" />
          <note key="79" pos="636" pan="0" len="12" vol="45" />
          <note key="75" pos="648" pan="0" len="12" vol="42" />
          <note key="73" pos="660" pan="0" len="12" vol="39" />
          <note key="72" pos="672" pan="0" len="12" vol="36" />
          <note key="68" pos="684" pan="0" len="12" vol="33" />
          <note key="67" pos="696" pan="0" len="12" vol="30" />
          <note key="63" pos="708" pan="0" len="12" vol="28" />
          <note key="61" pos="720" pan="0" len="12" vol="25" />
          <note key="60" pos="732" pan="0" len="12" vol="22" />
          <note key="56" pos="744" pan="0" len="12" vol="19" />
          <note key="53" pos="756" pan="0" len="780" vol="16" />
        </pattern>
      </track>
      <track solo="0" name="59 (Ch12)" type="0" muted="0">
        <instrumenttrack usemasterpitch="1" pitch="0.0" basenote="57" pan="0" pitchrange="12" vol="30">
          <eldata />
          <instrument name="tripleoscillator" />
        </instrumenttrack>
        <pattern pos="231948" muted="0" steps="16" name="" type="1">
          <note key="73" pos="0" pan="0" len="48" vol="100" />
          <note key="70" pos="72" pan="0" len="48" vol="100" />
          <note key="73" pos="168" pan="0" len="24" vol="100" />
          <note key="72" pos="192" pan="0" len="24" vol="100" />
          <note key="70" pos="216" pan="0" len="24" vol="100" />
          <note key="68" pos="240" pan="0" len="24" vol="100" />
          <note key="63" pos="264" pan="0" len="48" vol="100" />
          <note key="68" pos="372" pan="0" len="12" vol="69" />
          <note key="70" pos="384" pan="0" len="48" vol="100" />
          <note key="66" pos="456" pan="0" len="48" vol="100" />
          <note key="70" pos="552" pan="0" len="24" vol="100" />
          <note key="68" pos="576" pan="0" len="24" vol="100" />
          <note key="65" pos="600" pan="0" len="24" vol="100" />
          <note key="61" pos="624" pan="0" len="24" vol="100" />
          <note key="68" pos="648" pan="0" len="48" vol="100" />
          <note key="77" pos="768" pan="0" len="48" vol="100" />
          <note key="73" pos="840" pan="0" len="48" vol="100" />
          <note key="77" pos="936" pan="0" len="24" vol="100" />
          <note key="75" pos="960" pan="0" len="24" vol="100" />
          <note key="73" pos="984" pan="0" len="24" vol="100" />
          <note key="72" pos="1008" pan="0" len="24" vol="100" />
          <note key="70" pos="1032" pan="0" len="48" vol="100" />
          <note key="72" pos="1152" pan="0" len="12" vol="100" />
          <note key="73" pos="1164" pan="0" len="36" vol="100" />
          <note key="66" pos="1224" pan="0" len="48" vol="100" />
          <note key="70" pos="1320" pan="0" len="24" vol="100" />
          <note key="68" pos="1344" pan="0" len="24" vol="100" />
          <note key="65" pos="1368" pan="0" len="24" vol="100" />
          <note key="61" pos="1392" pan="0" len="24" vol="100" />
          <note key="68" pos="1416" pan="0" len="48" vol="100" />
        </pattern>
        <pattern pos="194316" muted="0" steps="16" name="" type="1">
          <note key="67" pos="12" pan="0" len="12" vol="100" />
          <note key="64" pos="24" pan="0" len="24" vol="100" />
          <note key="66" pos="48" pan="0" len="168" vol="100" />
          <note key="71" pos="216" pan="0" len="24" vol="100" />
          <note key="74" pos="240" pan="0" len="156" vol="100" />
          <note key="76" pos="396" pan="0" len="12" vol="100" />
          <note key="73" pos="408" pan="0" len="24" vol="100" />
          <note key="74" pos="432" pan="0" len="120" vol="100" />
          <note key="64" pos="552" pan="0" len="24" vol="100" />
          <note key="71" pos="576" pan="0" len="192" vol="100" />
          <note key="74" pos="780" pan="0" len="12" vol="100" />
          <note key="76" pos="792" pan="0" len="24" vol="100" />
          <note key="64" pos="816" pan="0" len="168" vol="100" />
          <note key="78" pos="984" pan="0" len="24" vol="100" />
          <note key="74" pos="1008" pan="0" len="156" vol="100" />
          <note key="71" pos="1164" pan="0" len="12" vol="100" />
          <note key="74" pos="1176" pan="0" len="24" vol="100" />
          <note key="76" pos="1200" pan="0" len="120" vol="100" />
          <note key="67" pos="1320" pan="0" len="24" vol="100" />
          <note key="71" pos="1344" pan="0" len="192" vol="100" />
        </pattern>
        <pattern pos="195852" muted="0" steps="16" name="" type="1">
          <note key="76" pos="24" pan="0" len="24" vol="100" />
          <note key="74" pos="48" pan="0" len="48" vol="100" />
          <note key="78" pos="96" pan="0" len="12" vol="100" />
          <note key="74" pos="108" pan="0" len="36" vol="100" />
          <note key="62" pos="144" pan="0" len="12" vol="100" />
          <note key="69" pos="156" pan="0" len="12" vol="100" />
          <note key="71" pos="168" pan="0" len="12" vol="100" />
          <note key="74" pos="180" pan="0" len="12" vol="100" />
          <note key="76" pos="192" pan="0" len="192" vol="100" />
          <note key="74" pos="384" pan="0" len="24" vol="100" />
          <note key="73" pos="408" pan="0" len="12" vol="100" />
          <note key="71" pos="420" pan="0" len="36" vol="100" />
          <note key="73" pos="456" pan="0" len="36" vol="100" />
          <note key="69" pos="492" pan="0" len="48" vol="100" />
          <note key="66" pos="540" pan="0" len="12" vol="100" />
          <note key="69" pos="552" pan="0" len="12" vol="100" />
          <note key="73" pos="564" pan="0" len="12" vol="100" />
          <note key="76" pos="576" pan="0" len="192" vol="100" />
          <note key="81" pos="792" pan="0" len="24" vol="100" />
          <note key="78" pos="816" pan="0" len="48" vol="100" />
          <note key="81" pos="864" pan="0" len="12" vol="100" />
          <note key="80" pos="876" pan="0" len="36" vol="100" />
          <note key="74" pos="912" pan="0" len="24" vol="100" />
          <note key="73" pos="936" pan="0" len="24" vol="100" />
          <note key="76" pos="960" pan="0" len="192" vol="100" />
          <note key="74" pos="1152" pan="0" len="24" vol="100" />
          <note key="73" pos="1176" pan="0" len="12" vol="100" />
          <note key="71" pos="1188" pan="0" len="36" vol="100" />
          <note key="73" pos="1224" pan="0" len="36" vol="100" />
          <note key="69" pos="1260" pan="0" len="36" vol="100" />
          <note key="73" pos="1296" pan="0" len="12" vol="100" />
          <note key="74" pos="1308" pan="0" len="36" vol="100" />
          <note key="64" pos="1344" pan="0" len="192" vol="100" />
        </pattern>
      </track>
      <track solo="0" name="59 (Ch14)" type="0" muted="0">
        <instrumenttrack usemasterpitch="1" pitch="0.0" basenote="57" pan="0" pitchrange="12" vol="30">
          <eldata />
          <instrument name="tripleoscillator" />
        </instrumenttrack>
        <pattern pos="118272" muted="0" steps="16" name="" type="1">
          <note key="74" pos="1152" pan="0" len="24" vol="100" />
          <note key="77" pos="1224" pan="0" len="24" vol="100" />
          <note key="76" pos="1248" pan="0" len="24" vol="100" />
          <note key="72" pos="1272" pan="0" len="24" vol="100" />
          <note key="74" pos="1296" pan="0" len="24" vol="100" />
          <note key="79" pos="1344" pan="0" len="12" vol="100" />
          <note key="77" pos="1356" pan="0" len="12" vol="100" />
          <note key="79" pos="1368" pan="0" len="24" vol="100" />
          <note key="77" pos="1440" pan="0" len="24" vol="100" />
          <note key="79" pos="1464" pan="0" len="24" vol="100" />
          <note key="81" pos="1488" pan="0" len="24" vol="100" />
          <note key="77" pos="1512" pan="0" len="60" vol="100" />
          <note key="74" pos="1572" pan="0" len="12" vol="100" />
          <note key="72" pos="1584" pan="0" len="48" vol="100" />
          <note key="79" pos="1632" pan="0" len="12" vol="17" />
          <note key="77" pos="1644" pan="0" len="12" vol="34" />
          <note key="79" pos="1656" pan="0" len="72" vol="100" />
          <note key="74" pos="1728" pan="0" len="72" vol="100" />
          <note key="77" pos="1800" pan="0" len="24" vol="100" />
          <note key="76" pos="1824" pan="0" len="24" vol="100" />
          <note key="72" pos="1848" pan="0" len="24" vol="100" />
          <note key="74" pos="1872" pan="0" len="48" vol="100" />
          <note key="79" pos="1920" pan="0" len="12" vol="100" />
          <note key="77" pos="1932" pan="0" len="12" vol="100" />
          <note key="79" pos="1944" pan="0" len="48" vol="100" />
          <note key="76" pos="1992" pan="0" len="12" vol="100" />
          <note key="72" pos="2004" pan="0" len="12" vol="100" />
          <note key="74" pos="2016" pan="0" len="72" vol="100" />
          <note key="77" pos="2088" pan="0" len="24" vol="100" />
          <note key="76" pos="2112" pan="0" len="24" vol="100" />
          <note key="72" pos="2136" pan="0" len="24" vol="100" />
          <note key="67" pos="2160" pan="0" len="48" vol="100" />
          <note key="74" pos="2208" pan="0" len="12" vol="100" />
          <note key="72" pos="2220" pan="0" len="12" vol="100" />
          <note key="74" pos="2232" pan="0" len="72" vol="100" />
        </pattern>
      </track>
      <track solo="0" name="59 (Ch15)" type="0" muted="0">
        <instrumenttrack usemasterpitch="1" pitch="0.0" basenote="57" pan="0" pitchrange="12" vol="30">
          <eldata />
          <instrument name="tripleoscillator" />
        </instrumenttrack>
        <pattern pos="109056" muted="0" steps="16" name="" type="1">
          <note key="54" pos="0" pan="0" len="12" vol="50" />
          <note key="66" pos="12" pan="0" len="12" vol="16" />
          <note key="73" pos="24" pan="0" len="12" vol="50" />
          <note key="75" pos="36" pan="0" len="12" vol="31" />
          <note key="66" pos="48" pan="0" len="12" vol="50" />
          <note key="75" pos="60" pan="0" len="12" vol="23" />
          <note key="68" pos="72" pan="0" len="12" vol="50" />
          <note key="75" pos="84" pan="0" len="12" vol="31" />
          <note key="42" pos="96" pan="0" len="288" vol="50" />
          <note key="51" pos="384" pan="0" len="12" vol="50" />
          <note key="63" pos="396" pan="0" len="12" vol="16" />
          <note key="70" pos="408" pan="0" len="12" vol="50" />
          <note key="72" pos="420" pan="0" len="12" vol="31" />
          <note key="63" pos="432" pan="0" len="12" vol="50" />
          <note key="72" pos="444" pan="0" len="12" vol="23" />
          <note key="65" pos="456" pan="0" len="12" vol="50" />
          <note key="72" pos="468" pan="0" len="12" vol="31" />
          <note key="39" pos="480" pan="0" len="288" vol="50" />
          <note key="49" pos="768" pan="0" len="12" vol="50" />
          <note key="61" pos="780" pan="0" len="12" vol="16" />
          <note key="68" pos="792" pan="0" len="12" vol="50" />
          <note key="70" pos="804" pan="0" len="12" vol="31" />
          <note key="61" pos="816" pan="0" len="12" vol="50" />
          <note key="70" pos="828" pan="0" len="12" vol="23" />
          <note key="63" pos="840" pan="0" len="12" vol="50" />
          <note key="70" pos="852" pan="0" len="12" vol="31" />
          <note key="37" pos="864" pan="0" len="288" vol="50" />
          <note key="46" pos="1152" pan="0" len="12" vol="50" />
          <note key="58" pos="1164" pan="0" len="12" vol="16" />
          <note key="65" pos="1176" pan="0" len="12" vol="50" />
          <note key="67" pos="1188" pan="0" len="12" vol="31" />
          <note key="58" pos="1200" pan="0" len="12" vol="50" />
          <note key="67" pos="1212" pan="0" len="12" vol="23" />
          <note key="60" pos="1224" pan="0" len="12" vol="50" />
          <note key="67" pos="1236" pan="0" len="12" vol="31" />
          <note key="34" pos="1248" pan="0" len="288" vol="50" />
        </pattern>
        <pattern pos="107520" muted="0" steps="16" name="" type="1">
          <note key="54" pos="0" pan="0" len="12" vol="50" />
          <note key="66" pos="12" pan="0" len="12" vol="16" />
          <note key="73" pos="24" pan="0" len="12" vol="50" />
          <note key="75" pos="36" pan="0" len="12" vol="31" />
          <note key="66" pos="48" pan="0" len="12" vol="50" />
          <note key="75" pos="60" pan="0" len="12" vol="23" />
          <note key="68" pos="72" pan="0" len="12" vol="50" />
          <note key="75" pos="84" pan="0" len="12" vol="31" />
          <note key="42" pos="96" pan="0" len="288" vol="50" />
          <note key="51" pos="384" pan="0" len="12" vol="50" />
          <note key="63" pos="396" pan="0" len="12" vol="16" />
          <note key="70" pos="408" pan="0" len="12" vol="50" />
          <note key="72" pos="420" pan="0" len="12" vol="31" />
          <note key="63" pos="432" pan="0" len="12" vol="50" />
          <note key="72" pos="444" pan="0" len="12" vol="23" />
          <note key="65" pos="456" pan="0" len="12" vol="50" />
          <note key="72" pos="468" pan="0" len="12" vol="31" />
          <note key="39" pos="480" pan="0" len="288" vol="50" />
          <note key="49" pos="768" pan="0" len="12" vol="50" />
          <note key="61" pos="780" pan="0" len="12" vol="16" />
          <note key="68" pos="792" pan="0" len="12" vol="50" />
          <note key="70" pos="804" pan="0" len="12" vol="31" />
          <note key="61" pos="816" pan="0" len="12" vol="50" />
          <note key="70" pos="828" pan="0" len="12" vol="23" />
          <note key="63" pos="840" pan="0" len="12" vol="50" />
          <note key="70" pos="852" pan="0" len="12" vol="31" />
          <note key="37" pos="864" pan="0" len="288" vol="50" />
          <note key="46" pos="1152" pan="0" len="12" vol="50" />
          <note key="58" pos="1164" pan="0" len="12" vol="16" />
          <note key="65" pos="1176" pan="0" len="12" vol="50" />
          <note key="67" pos="1188" pan="0" len="12" vol="31" />
          <note key="58" pos="1200" pan="0" len="12" vol="50" />
          <note key="67" pos="1212" pan="0" len="12" vol="23" />
          <note key="60" pos="1224" pan="0" len="12" vol="50" />
          <note key="67" pos="1236" pan="0" len="12" vol="31" />
          <note key="34" pos="1248" pan="0" len="288" vol="50" />
        </pattern>
      </track>
      <track solo="0" name="59 (Ch16)" type="0" muted="0">
        <instrumenttrack usemasterpitch="1" pitch="0.0" basenote="57" pan="0" pitchrange="12" vol="30">
          <eldata />
          <instrument name="tripleoscillator" />
        </instrumenttrack>
        <pattern pos="149004" muted="0" steps="16" name="" type="1">
          <note key="61" pos="1152" pan="0" len="12" vol="47" />
          <note key="62" pos="1164" pan="0" len="12" vol="62" />
          <note key="69" pos="1176" pan="0" len="168" vol="100" />
          <note key="71" pos="1344" pan="0" len="12" vol="100" />
          <note key="69" pos="1356" pan="0" len="12" vol="47" />
          <note key="66" pos="1368" pan="0" len="12" vol="62" />
          <note key="64" pos="1380" pan="0" len="156" vol="100" />
        </pattern>
      </track>
      <track solo="0" name="59 (Ch17)" type="0" muted="0">
        <instrumenttrack usemasterpitch="1" pitch="0.0" basenote="57" pan="0" pitchrange="12" vol="30">
          <eldata />
          <instrument name="tripleoscillator" />
        </instrumenttrack>
        <pattern pos="149004" muted="0" steps="16" name="" type="1">
          <note key="61" pos="1188" pan="0" len="12" vol="23" />
          <note key="62" pos="1200" pan="0" len="12" vol="31" />
          <note key="69" pos="1212" pan="0" len="168" vol="50" />
          <note key="71" pos="1380" pan="0" len="12" vol="50" />
          <note key="69" pos="1392" pan="0" len="12" vol="23" />
          <note key="66" pos="1404" pan="0" len="12" vol="31" />
          <note key="64" pos="1416" pan="0" len="120" vol="50" />
        </pattern>
      </track>
      <track solo="0" name="60 (Ch2)" type="0" muted="0">
        <instrumenttrack usemasterpitch="1" pitch="0.0" basenote="57" pan="0" pitchrange="12" vol="30">
          <eldata />
          <instrument name="tripleoscillator" />
        </instrumenttrack>
        <pattern pos="185100" muted="0" steps="16" name="" type="1">
          <note key="60" pos="0" pan="0" len="24" vol="17" />
          <note key="60" pos="48" pan="0" len="24" vol="8" />
          <note key="60" pos="96" pan="0" len="24" vol="8" />
          <note key="60" pos="120" pan="0" len="24" vol="8" />
          <note key="60" pos="168" pan="0" len="24" vol="8" />
          <note key="60" pos="192" pan="0" len="24" vol="17" />
          <note key="60" pos="240" pan="0" len="24" vol="8" />
          <note key="60" pos="288" pan="0" len="24" vol="8" />
          <note key="60" pos="312" pan="0" len="24" vol="8" />
          <note key="60" pos="360" pan="0" len="24" vol="8" />
          <note key="60" pos="384" pan="0" len="24" vol="17" />
          <note key="60" pos="432" pan="0" len="24" vol="8" />
          <note key="60" pos="480" pan="0" len="24" vol="8" />
          <note key="60" pos="504" pan="0" len="24" vol="8" />
          <note key="60" pos="552" pan="0" len="24" vol="8" />
          <note key="60" pos="576" pan="0" len="24" vol="17" />
          <note key="60" pos="624" pan="0" len="24" vol="8" />
          <note key="60" pos="672" pan="0" len="24" vol="8" />
          <note key="60" pos="696" pan="0" len="24" vol="8" />
          <note key="60" pos="744" pan="0" len="24" vol="8" />
          <note key="60" pos="768" pan="0" len="24" vol="17" />
          <note key="60" pos="816" pan="0" len="24" vol="8" />
          <note key="60" pos="864" pan="0" len="24" vol="8" />
          <note key="60" pos="888" pan="0" len="24" vol="8" />
          <note key="60" pos="936" pan="0" len="24" vol="8" />
          <note key="60" pos="960" pan="0" len="24" vol="17" />
          <note key="60" pos="1008" pan="0" len="24" vol="8" />
          <note key="60" pos="1056" pan="0" len="24" vol="8" />
          <note key="60" pos="1080" pan="0" len="24" vol="8" />
          <note key="60" pos="1128" pan="0" len="24" vol="8" />
          <note key="60" pos="1152" pan="0" len="24" vol="17" />
          <note key="60" pos="1200" pan="0" len="24" vol="8" />
          <note key="60" pos="1248" pan="0" len="24" vol="8" />
          <note key="60" pos="1272" pan="0" len="24" vol="8" />
          <note key="60" pos="1320" pan="0" len="24" vol="8" />
          <note key="60" pos="1344" pan="0" len="24" vol="17" />
          <note key="60" pos="1392" pan="0" len="24" vol="8" />
          <note key="60" pos="1440" pan="0" len="24" vol="8" />
          <note key="60" pos="1464" pan="0" len="24" vol="8" />
          <note key="60" pos="1512" pan="0" len="24" vol="8" />
        </pattern>
      </track>
      <track solo="0" name="60 (Ch5)" type="0" muted="0">
        <instrumenttrack usemasterpitch="1" pitch="0.0" basenote="57" pan="0" pitchrange="12" vol="30">
          <eldata />
          <instrument name="tripleoscillator" />
        </instrumenttrack>
        <pattern pos="269388" muted="0" steps="16" name="" type="1">
          <note key="60" pos="72" pan="0" len="36" vol="100" />
          <note key="60" pos="108" pan="0" len="72" vol="78" />
          <note key="60" pos="216" pan="0" len="36" vol="100" />
          <note key="60" pos="252" pan="0" len="72" vol="78" />
          <note key="60" pos="360" pan="0" len="36" vol="100" />
          <note key="60" pos="396" pan="0" len="72" vol="78" />
          <note key="60" pos="504" pan="0" len="36" vol="100" />
          <note key="60" pos="540" pan="0" len="72" vol="78" />
          <note key="60" pos="648" pan="0" len="36" vol="100" />
          <note key="60" pos="684" pan="0" len="72" vol="78" />
          <note key="60" pos="792" pan="0" len="36" vol="100" />
          <note key="60" pos="828" pan="0" len="72" vol="78" />
          <note key="60" pos="936" pan="0" len="36" vol="100" />
          <note key="60" pos="972" pan="0" len="72" vol="78" />
          <note key="60" pos="1080" pan="0" len="36" vol="100" />
        </pattern>
      </track>
      <track solo="0" name="60 (Ch6)" type="0" muted="0">
        <instrumenttrack usemasterpitch="1" pitch="0.0" basenote="57" pan="0" pitchrange="12" vol="30">
          <eldata />
          <instrument name="tripleoscillator" />
        </instrumenttrack>
        <pattern pos="172812" muted="0" steps="16" name="" type="1">
          <note key="60" pos="864" pan="0" len="264" vol="100" />
        </pattern>
        <pattern pos="56448" muted="0" steps="16" name="" type="1">
          <note key="60" pos="612" pan="0" len="72" vol="100" />
          <note key="60" pos="756" pan="0" len="72" vol="100" />
          <note key="60" pos="900" pan="0" len="72" vol="100" />
          <note key="60" pos="1044" pan="0" len="72" vol="100" />
        </pattern>
      </track>
      <track solo="0" name="60 (Ch8)" type="0" muted="0">
        <instrumenttrack usemasterpitch="1" pitch="0.0" basenote="57" pan="0" pitchrange="12" vol="30">
          <eldata />
          <instrument name="tripleoscillator" />
        </instrumenttrack>
        <pattern pos="214284" muted="0" steps="16" name="" type="1">
          <note key="60" pos="72" pan="0" len="24" vol="100" />
          <note key="60" pos="264" pan="0" len="24" vol="100" />
          <note key="60" pos="456" pan="0" len="24" vol="100" />
          <note key="60" pos="648" pan="0" len="24" vol="100" />
          <note key="60" pos="840" pan="0" len="24" vol="100" />
          <note key="60" pos="1032" pan="0" len="24" vol="100" />
          <note key="60" pos="1224" pan="0" len="24" vol="100" />
          <note key="60" pos="1416" pan="0" len="24" vol="100" />
        </pattern>
        <pattern pos="58752" muted="0" steps="16" name="" type="1">
          <note key="60" pos="612" pan="0" len="36" vol="100" />
          <note key="60" pos="756" pan="0" len="72" vol="100" />
        </pattern>
        <pattern pos="62208" muted="0" steps="16" name="" type="1">
          <note key="60" pos="612" pan="0" len="36" vol="100" />
          <note key="60" pos="756" pan="0" len="72" vol="100" />
        </pattern>
        <pattern pos="211212" muted="0" steps="16" name="" type="1">
          <note key="60" pos="72" pan="0" len="24" vol="100" />
          <note key="60" pos="264" pan="0" len="24" vol="100" />
          <note key="60" pos="456" pan="0" len="24" vol="100" />
          <note key="60" pos="648" pan="0" len="24" vol="100" />
          <note key="60" pos="840" pan="0" len="24" vol="100" />
          <note key="60" pos="1032" pan="0" len="24" vol="100" />
          <note key="60" pos="1224" pan="0" len="24" vol="100" />
          <note key="60" pos="1416" pan="0" len="24" vol="100" />
        </pattern>
        <pattern pos="212748" muted="0" steps="16" name="" type="1">
          <note key="60" pos="72" pan="0" len="24" vol="100" />
          <note key="60" pos="264" pan="0" len="24" vol="100" />
          <note key="60" pos="456" pan="0" len="24" vol="100" />
          <note key="60" pos="648" pan="0" len="24" vol="100" />
          <note key="60" pos="840" pan="0" len="24" vol="100" />
          <note key="60" pos="1032" pan="0" len="24" vol="100" />
          <note key="60" pos="1224" pan="0" len="24" vol="100" />
          <note key="60" pos="1416" pan="0" len="24" vol="100" />
        </pattern>
      </track>
      <track solo="0" name="60 (Ch9)" type="0" muted="0">
        <instrumenttrack usemasterpitch="1" pitch="0.0" basenote="57" pan="0" pitchrange="12" vol="30">
          <eldata />
          <instrument name="tripleoscillator" />
        </instrumenttrack>
        <pattern pos="105984" muted="0" steps="16" name="" type="1">
          <note key="54" pos="288" pan="0" len="144" vol="100" />
          <note key="54" pos="672" pan="0" len="144" vol="100" />
          <note key="54" pos="1248" pan="0" len="144" vol="100" />
          <note key="54" pos="1440" pan="0" len="96" vol="100" />
        </pattern>
        <pattern pos="78336" muted="0" steps="16" name="" type="1">
          <note key="60" pos="72" pan="0" len="72" vol="100" />
          <note key="60" pos="360" pan="0" len="144" vol="100" />
          <note key="60" pos="648" pan="0" len="72" vol="100" />
          <note key="60" pos="936" pan="0" len="144" vol="100" />
          <note key="60" pos="1224" pan="0" len="72" vol="100" />
          <note key="60" pos="1512" pan="0" len="144" vol="100" />
          <note key="60" pos="1800" pan="0" len="72" vol="100" />
          <note key="60" pos="2088" pan="0" len="144" vol="100" />
        </pattern>
        <pattern pos="80640" muted="0" steps="16" name="" type="1">
          <note key="60" pos="72" pan="0" len="72" vol="100" />
          <note key="60" pos="360" pan="0" len="144" vol="100" />
          <note key="60" pos="648" pan="0" len="72" vol="100" />
          <note key="60" pos="936" pan="0" len="144" vol="100" />
          <note key="60" pos="1224" pan="0" len="72" vol="100" />
          <note key="60" pos="1512" pan="0" len="144" vol="100" />
          <note key="60" pos="1800" pan="0" len="72" vol="100" />
          <note key="60" pos="2088" pan="0" len="144" vol="100" />
        </pattern>
        <pattern pos="82944" muted="0" steps="16" name="" type="1">
          <note key="60" pos="72" pan="0" len="72" vol="100" />
          <note key="60" pos="360" pan="0" len="144" vol="100" />
          <note key="60" pos="648" pan="0" len="72" vol="100" />
          <note key="60" pos="936" pan="0" len="144" vol="100" />
          <note key="60" pos="1224" pan="0" len="72" vol="100" />
          <note key="60" pos="1512" pan="0" len="144" vol="100" />
          <note key="60" pos="1800" pan="0" len="72" vol="100" />
          <note key="60" pos="2088" pan="0" len="144" vol="100" />
        </pattern>
        <pattern pos="87552" muted="0" steps="16" name="" type="1">
          <note key="60" pos="72" pan="0" len="72" vol="100" />
          <note key="60" pos="360" pan="0" len="144" vol="100" />
          <note key="60" pos="648" pan="0" len="72" vol="100" />
          <note key="60" pos="936" pan="0" len="144" vol="100" />
          <note key="60" pos="1224" pan="0" len="72" vol="100" />
          <note key="60" pos="1512" pan="0" len="144" vol="100" />
          <note key="60" pos="1800" pan="0" len="72" vol="100" />
          <note key="60" pos="2088" pan="0" len="144" vol="100" />
        </pattern>
        <pattern pos="89856" muted="0" steps="16" name="" type="1">
          <note key="60" pos="72" pan="0" len="72" vol="100" />
          <note key="60" pos="360" pan="0" len="144" vol="100" />
          <note key="60" pos="648" pan="0" len="72" vol="100" />
          <note key="60" pos="936" pan="0" len="144" vol="100" />
          <note key="60" pos="1224" pan="0" len="72" vol="100" />
          <note key="60" pos="1512" pan="0" len="144" vol="100" />
          <note key="60" pos="1800" pan="0" len="72" vol="100" />
          <note key="60" pos="2088" pan="0" len="144" vol="100" />
        </pattern>
        <pattern pos="101376" muted="0" steps="16" name="" type="1">
          <note key="54" pos="288" pan="0" len="144" vol="100" />
          <note key="54" pos="672" pan="0" len="144" vol="100" />
          <note key="54" pos="1248" pan="0" len="144" vol="100" />
          <note key="54" pos="1440" pan="0" len="96" vol="100" />
        </pattern>
        <pattern pos="102912" muted="0" steps="16" name="" type="1">
          <note key="54" pos="288" pan="0" len="144" vol="100" />
          <note key="54" pos="672" pan="0" len="144" vol="100" />
          <note key="54" pos="1248" pan="0" len="144" vol="100" />
          <note key="54" pos="1440" pan="0" len="96" vol="100" />
        </pattern>
        <pattern pos="104448" muted="0" steps="16" name="" type="1">
          <note key="54" pos="288" pan="0" len="144" vol="100" />
          <note key="54" pos="672" pan="0" len="144" vol="100" />
          <note key="54" pos="1248" pan="0" len="144" vol="100" />
          <note key="54" pos="1440" pan="0" len="96" vol="100" />
        </pattern>
      </track>
      <track solo="0" name="60 (Ch11)" type="0" muted="0">
        <instrumenttrack usemasterpitch="1" pitch="0.0" basenote="57" pan="0" pitchrange="12" vol="30">
          <eldata />
          <instrument name="tripleoscillator" />
        </instrumenttrack>
        <pattern pos="217356" muted="0" steps="16" name="" type="1">
          <note key="60" pos="72" pan="0" len="24" vol="100" />
          <note key="60" pos="264" pan="0" len="24" vol="100" />
          <note key="60" pos="456" pan="0" len="24" vol="100" />
          <note key="60" pos="648" pan="0" len="24" vol="100" />
          <note key="60" pos="840" pan="0" len="24" vol="100" />
          <note key="60" pos="1032" pan="0" len="24" vol="100" />
          <note key="60" pos="1224" pan="0" len="24" vol="100" />
          <note key="60" pos="1416" pan="0" len="24" vol="100" />
        </pattern>
        <pattern pos="215820" muted="0" steps="16" name="" type="1">
          <note key="60" pos="72" pan="0" len="24" vol="100" />
          <note key="60" pos="264" pan="0" len="24" vol="100" />
          <note key="60" pos="456" pan="0" len="24" vol="100" />
          <note key="60" pos="648" pan="0" len="24" vol="100" />
          <note key="60" pos="840" pan="0" len="24" vol="100" />
          <note key="60" pos="1032" pan="0" len="24" vol="100" />
          <note key="60" pos="1224" pan="0" len="24" vol="100" />
          <note key="60" pos="1416" pan="0" len="24" vol="100" />
        </pattern>
      </track>
      <track solo="0" name="60 (Ch16)" type="0" muted="0">
        <instrumenttrack usemasterpitch="1" pitch="0.0" basenote="57" pan="0" pitchrange="12" vol="30">
          <eldata />
          <instrument name="tripleoscillator" />
        </instrumenttrack>
        <pattern pos="118272" muted="0" steps="16" name="" type="1">
          <note key="60" pos="108" pan="0" len="24" vol="50" />
          <note key="60" pos="252" pan="0" len="24" vol="50" />
          <note key="60" pos="396" pan="0" len="24" vol="50" />
          <note key="60" pos="540" pan="0" len="24" vol="50" />
          <note key="60" pos="684" pan="0" len="24" vol="50" />
          <note key="60" pos="828" pan="0" len="24" vol="50" />
          <note key="60" pos="972" pan="0" len="24" vol="50" />
          <note key="60" pos="1116" pan="0" len="24" vol="50" />
          <note key="60" pos="1260" pan="0" len="24" vol="50" />
          <note key="60" pos="1404" pan="0" len="24" vol="50" />
          <note key="60" pos="1548" pan="0" len="24" vol="50" />
          <note key="60" pos="1692" pan="0" len="24" vol="50" />
          <note key="60" pos="1836" pan="0" len="24" vol="50" />
          <note key="60" pos="1980" pan="0" len="24" vol="50" />
          <note key="60" pos="2124" pan="0" len="24" vol="50" />
          <note key="60" pos="2268" pan="0" len="24" vol="50" />
        </pattern>
        <pattern pos="85248" muted="0" steps="16" name="" type="1">
          <note key="60" pos="72" pan="0" len="72" vol="100" />
          <note key="60" pos="360" pan="0" len="144" vol="100" />
          <note key="60" pos="648" pan="0" len="72" vol="100" />
          <note key="60" pos="936" pan="0" len="144" vol="100" />
          <note key="60" pos="1224" pan="0" len="72" vol="100" />
          <note key="60" pos="1512" pan="0" len="144" vol="100" />
          <note key="60" pos="1800" pan="0" len="72" vol="100" />
          <note key="60" pos="2088" pan="0" len="144" vol="100" />
        </pattern>
      </track>
      <track solo="0" name="61 (Ch2)" type="0" muted="0">
        <instrumenttrack usemasterpitch="1" pitch="0.0" basenote="57" pan="0" pitchrange="12" vol="30">
          <eldata />
          <instrument name="tripleoscillator" />
        </instrumenttrack>
        <pattern pos="185100" muted="0" steps="16" name="" type="1">
          <note key="60" pos="24" pan="0" len="24" vol="8" />
          <note key="60" pos="72" pan="0" len="24" vol="17" />
          <note key="60" pos="144" pan="0" len="24" vol="23" />
          <note key="60" pos="216" pan="0" len="24" vol="8" />
          <note key="60" pos="264" pan="0" len="24" vol="17" />
          <note key="60" pos="336" pan="0" len="24" vol="23" />
          <note key="60" pos="408" pan="0" len="24" vol="8" />
          <note key="60" pos="456" pan="0" len="24" vol="17" />
          <note key="60" pos="528" pan="0" len="24" vol="23" />
          <note key="60" pos="600" pan="0" len="24" vol="8" />
          <note key="60" pos="648" pan="0" len="24" vol="17" />
          <note key="60" pos="720" pan="0" len="24" vol="23" />
          <note key="60" pos="792" pan="0" len="24" vol="8" />
          <note key="60" pos="840" pan="0" len="24" vol="17" />
          <note key="60" pos="912" pan="0" len="24" vol="23" />
          <note key="60" pos="984" pan="0" len="24" vol="8" />
          <note key="60" pos="1032" pan="0" len="24" vol="17" />
          <note key="60" pos="1104" pan="0" len="24" vol="23" />
          <note key="60" pos="1176" pan="0" len="24" vol="8" />
          <note key="60" pos="1224" pan="0" len="24" vol="17" />
          <note key="60" pos="1296" pan="0" len="24" vol="23" />
          <note key="60" pos="1368" pan="0" len="24" vol="8" />
          <note key="60" pos="1416" pan="0" len="24" vol="17" />
          <note key="60" pos="1488" pan="0" len="24" vol="23" />
        </pattern>
      </track>
      <track solo="0" name="61 (Ch5)" type="0" muted="0">
        <instrumenttrack usemasterpitch="1" pitch="0.0" basenote="57" pan="0" pitchrange="12" vol="30">
          <eldata />
          <instrument name="tripleoscillator" />
        </instrumenttrack>
        <pattern pos="269388" muted="0" steps="16" name="" type="1">
          <note key="60" pos="36" pan="0" len="36" vol="62" />
          <note key="60" pos="180" pan="0" len="36" vol="62" />
          <note key="60" pos="324" pan="0" len="36" vol="62" />
          <note key="60" pos="468" pan="0" len="36" vol="62" />
          <note key="60" pos="612" pan="0" len="36" vol="62" />
          <note key="60" pos="756" pan="0" len="36" vol="62" />
          <note key="60" pos="900" pan="0" len="36" vol="62" />
          <note key="60" pos="1044" pan="0" len="36" vol="62" />
        </pattern>
      </track>
      <track solo="0" name="61 (Ch6)" type="0" muted="0">
        <instrumenttrack usemasterpitch="1" pitch="0.0" basenote="57" pan="0" pitchrange="12" vol="30">
          <eldata />
          <instrument name="tripleoscillator" />
        </instrumenttrack>
        <pattern pos="172812" muted="0" steps="16" name="" type="1">
          <note key="60" pos="1248" pan="0" len="288" vol="100" />
        </pattern>
        <pattern pos="56448" muted="0" steps="16" name="" type="1">
          <note key="60" pos="684" pan="0" len="72" vol="100" />
          <note key="60" pos="828" pan="0" len="72" vol="100" />
          <note key="60" pos="972" pan="0" len="72" vol="100" />
          <note key="60" pos="1116" pan="0" len="36" vol="100" />
        </pattern>
      </track>
      <track solo="0" name="61 (Ch8)" type="0" muted="0">
        <instrumenttrack usemasterpitch="1" pitch="0.0" basenote="57" pan="0" pitchrange="12" vol="30">
          <eldata />
          <instrument name="tripleoscillator" />
        </instrumenttrack>
        <pattern pos="214284" muted="0" steps="16" name="" type="1">
          <note key="60" pos="144" pan="0" len="72" vol="100" />
          <note key="60" pos="360" pan="0" len="48" vol="100" />
          <note key="60" pos="528" pan="0" len="72" vol="100" />
          <note key="60" pos="744" pan="0" len="48" vol="100" />
          <note key="60" pos="912" pan="0" len="72" vol="100" />
          <note key="60" pos="1128" pan="0" len="48" vol="100" />
          <note key="60" pos="1296" pan="0" len="72" vol="100" />
          <note key="60" pos="1512" pan="0" len="24" vol="100" />
        </pattern>
        <pattern pos="58752" muted="0" steps="16" name="" type="1">
          <note key="60" pos="684" pan="0" len="36" vol="100" />
        </pattern>
        <pattern pos="62208" muted="0" steps="16" name="" type="1">
          <note key="60" pos="684" pan="0" len="36" vol="100" />
        </pattern>
        <pattern pos="211212" muted="0" steps="16" name="" type="1">
          <note key="60" pos="144" pan="0" len="72" vol="100" />
          <note key="60" pos="360" pan="0" len="48" vol="100" />
          <note key="60" pos="528" pan="0" len="72" vol="100" />
          <note key="60" pos="744" pan="0" len="48" vol="100" />
          <note key="60" pos="912" pan="0" len="72" vol="100" />
          <note key="60" pos="1128" pan="0" len="48" vol="100" />
          <note key="60" pos="1296" pan="0" len="72" vol="100" />
          <note key="60" pos="1512" pan="0" len="24" vol="100" />
        </pattern>
        <pattern pos="212748" muted="0" steps="16" name="" type="1">
          <note key="60" pos="144" pan="0" len="72" vol="100" />
          <note key="60" pos="360" pan="0" len="48" vol="100" />
          <note key="60" pos="528" pan="0" len="72" vol="100" />
          <note key="60" pos="744" pan="0" len="48" vol="100" />
          <note key="60" pos="912" pan="0" len="72" vol="100" />
          <note key="60" pos="1128" pan="0" len="48" vol="100" />
          <note key="60" pos="1296" pan="0" len="72" vol="100" />
          <note key="60" pos="1512" pan="0" len="24" vol="100" />
        </pattern>
      </track>
      <track solo="0" name="61 (Ch9)" type="0" muted="0">
        <instrumenttrack usemasterpitch="1" pitch="0.0" basenote="57" pan="0" pitchrange="12" vol="30">
          <eldata />
          <instrument name="tripleoscillator" />
        </instrumenttrack>
        <pattern pos="105984" muted="0" steps="16" name="" type="1">
          <note key="54" pos="48" pan="0" len="48" vol="47" />
          <note key="54" pos="240" pan="0" len="48" vol="47" />
          <note key="54" pos="432" pan="0" len="48" vol="47" />
          <note key="54" pos="624" pan="0" len="48" vol="47" />
          <note key="54" pos="816" pan="0" len="48" vol="47" />
          <note key="54" pos="1008" pan="0" len="48" vol="47" />
          <note key="54" pos="1200" pan="0" len="48" vol="47" />
          <note key="54" pos="1392" pan="0" len="48" vol="47" />
        </pattern>
        <pattern pos="58752" muted="0" steps="16" name="" type="1">
          <note key="60" pos="828" pan="0" len="36" vol="100" />
        </pattern>
        <pattern pos="62208" muted="0" steps="16" name="" type="1">
          <note key="60" pos="828" pan="0" len="36" vol="100" />
        </pattern>
        <pattern pos="78336" muted="0" steps="16" name="" type="1">
          <note key="60" pos="216" pan="0" len="72" vol="100" />
          <note key="60" pos="504" pan="0" len="48" vol="100" />
          <note key="60" pos="792" pan="0" len="72" vol="100" />
          <note key="60" pos="1080" pan="0" len="48" vol="100" />
          <note key="60" pos="1368" pan="0" len="72" vol="100" />
          <note key="60" pos="1656" pan="0" len="48" vol="100" />
          <note key="60" pos="1944" pan="0" len="72" vol="100" />
          <note key="60" pos="2232" pan="0" len="48" vol="100" />
        </pattern>
        <pattern pos="80640" muted="0" steps="16" name="" type="1">
          <note key="60" pos="216" pan="0" len="72" vol="100" />
          <note key="60" pos="504" pan="0" len="48" vol="100" />
          <note key="60" pos="792" pan="0" len="72" vol="100" />
          <note key="60" pos="1080" pan="0" len="48" vol="100" />
          <note key="60" pos="1368" pan="0" len="72" vol="100" />
          <note key="60" pos="1656" pan="0" len="48" vol="100" />
          <note key="60" pos="1944" pan="0" len="72" vol="100" />
          <note key="60" pos="2232" pan="0" len="48" vol="100" />
        </pattern>
        <pattern pos="82944" muted="0" steps="16" name="" type="1">
          <note key="60" pos="216" pan="0" len="72" vol="100" />
          <note key="60" pos="504" pan="0" len="48" vol="100" />
          <note key="60" pos="792" pan="0" len="72" vol="100" />
          <note key="60" pos="1080" pan="0" len="48" vol="100" />
          <note key="60" pos="1368" pan="0" len="72" vol="100" />
          <note key="60" pos="1656" pan="0" len="48" vol="100" />
          <note key="60" pos="1944" pan="0" len="72" vol="100" />
          <note key="60" pos="2232" pan="0" len="48" vol="100" />
        </pattern>
        <pattern pos="87552" muted="0" steps="16" name="" type="1">
          <note key="60" pos="216" pan="0" len="72" vol="100" />
          <note key="60" pos="504" pan="0" len="48" vol="100" />
          <note key="60" pos="792" pan="0" len="72" vol="100" />
          <note key="60" pos="1080" pan="0" len="48" vol="100" />
          <note key="60" pos="1368" pan="0" len="72" vol="100" />
          <note key="60" pos="1656" pan="0" len="48" vol="100" />
          <note key="60" pos="1944" pan="0" len="72" vol="100" />
          <note key="60" pos="2232" pan="0" len="48" vol="100" />
        </pattern>
        <pattern pos="89856" muted="0" steps="16" name="" type="1">
          <note key="60" pos="216" pan="0" len="72" vol="100" />
          <note key="60" pos="504" pan="0" len="48" vol="100" />
          <note key="60" pos="792" pan="0" len="72" vol="100" />
          <note key="60" pos="1080" pan="0" len="48" vol="100" />
          <note key="60" pos="1368" pan="0" len="72" vol="100" />
          <note key="60" pos="1656" pan="0" len="48" vol="100" />
          <note key="60" pos="1944" pan="0" len="72" vol="100" />
          <note key="60" pos="2232" pan="0" len="48" vol="100" />
        </pattern>
        <pattern pos="101376" muted="0" steps="16" name="" type="1">
          <note key="54" pos="48" pan="0" len="48" vol="47" />
          <note key="54" pos="240" pan="0" len="48" vol="47" />
          <note key="54" pos="432" pan="0" len="48" vol="47" />
          <note key="54" pos="624" pan="0" len="48" vol="47" />
          <note key="54" pos="816" pan="0" len="48" vol="47" />
          <note key="54" pos="1008" pan="0" len="48" vol="47" />
          <note key="54" pos="1200" pan="0" len="48" vol="47" />
          <note key="54" pos="1392" pan="0" len="48" vol="47" />
        </pattern>
        <pattern pos="102912" muted="0" steps="16" name="" type="1">
          <note key="54" pos="48" pan="0" len="48" vol="47" />
          <note key="54" pos="240" pan="0" len="48" vol="47" />
          <note key="54" pos="432" pan="0" len="48" vol="47" />
          <note key="54" pos="624" pan="0" len="48" vol="47" />
          <note key="54" pos="816" pan="0" len="48" vol="47" />
          <note key="54" pos="1008" pan="0" len="48" vol="47" />
          <note key="54" pos="1200" pan="0" len="48" vol="47" />
          <note key="54" pos="1392" pan="0" len="48" vol="47" />
        </pattern>
        <pattern pos="104448" muted="0" steps="16" name="" type="1">
          <note key="54" pos="48" pan="0" len="48" vol="47" />
          <note key="54" pos="240" pan="0" len="48" vol="47" />
          <note key="54" pos="432" pan="0" len="48" vol="47" />
          <note key="54" pos="624" pan="0" len="48" vol="47" />
          <note key="54" pos="816" pan="0" len="48" vol="47" />
          <note key="54" pos="1008" pan="0" len="48" vol="47" />
          <note key="54" pos="1200" pan="0" len="48" vol="47" />
          <note key="54" pos="1392" pan="0" len="48" vol="47" />
        </pattern>
      </track>
      <track solo="0" name="61 (Ch11)" type="0" muted="0">
        <instrumenttrack usemasterpitch="1" pitch="0.0" basenote="57" pan="0" pitchrange="12" vol="30">
          <eldata />
          <instrument name="tripleoscillator" />
        </instrumenttrack>
        <pattern pos="217356" muted="0" steps="16" name="" type="1">
          <note key="60" pos="144" pan="0" len="72" vol="100" />
          <note key="60" pos="360" pan="0" len="48" vol="100" />
          <note key="60" pos="528" pan="0" len="72" vol="100" />
          <note key="60" pos="744" pan="0" len="48" vol="100" />
          <note key="60" pos="912" pan="0" len="72" vol="100" />
          <note key="60" pos="1128" pan="0" len="48" vol="100" />
          <note key="60" pos="1296" pan="0" len="72" vol="100" />
          <note key="60" pos="1512" pan="0" len="24" vol="100" />
        </pattern>
        <pattern pos="215820" muted="0" steps="16" name="" type="1">
          <note key="60" pos="144" pan="0" len="72" vol="100" />
          <note key="60" pos="360" pan="0" len="48" vol="100" />
          <note key="60" pos="528" pan="0" len="72" vol="100" />
          <note key="60" pos="744" pan="0" len="48" vol="100" />
          <note key="60" pos="912" pan="0" len="72" vol="100" />
          <note key="60" pos="1128" pan="0" len="48" vol="100" />
          <note key="60" pos="1296" pan="0" len="72" vol="100" />
          <note key="60" pos="1512" pan="0" len="24" vol="100" />
        </pattern>
      </track>
      <track solo="0" name="61 (Ch13)" type="0" muted="0">
        <instrumenttrack usemasterpitch="1" pitch="0.0" basenote="57" pan="0" pitchrange="12" vol="30">
          <eldata />
          <instrument name="tripleoscillator" />
        </instrumenttrack>
        <pattern pos="246540" muted="0" steps="16" name="" type="1">
          <note key="61" pos="24" pan="0" len="12" vol="62" />
          <note key="61" pos="36" pan="0" len="36" vol="31" />
          <note key="61" pos="72" pan="0" len="12" vol="62" />
          <note key="61" pos="84" pan="0" len="36" vol="31" />
          <note key="61" pos="120" pan="0" len="12" vol="62" />
          <note key="61" pos="132" pan="0" len="36" vol="31" />
          <note key="61" pos="168" pan="0" len="12" vol="62" />
          <note key="61" pos="180" pan="0" len="36" vol="31" />
          <note key="61" pos="216" pan="0" len="12" vol="62" />
          <note key="61" pos="228" pan="0" len="36" vol="31" />
          <note key="61" pos="264" pan="0" len="12" vol="62" />
          <note key="61" pos="276" pan="0" len="36" vol="31" />
          <note key="61" pos="312" pan="0" len="12" vol="62" />
          <note key="61" pos="324" pan="0" len="36" vol="31" />
          <note key="61" pos="360" pan="0" len="12" vol="62" />
          <note key="61" pos="372" pan="0" len="36" vol="31" />
          <note key="61" pos="408" pan="0" len="12" vol="62" />
          <note key="61" pos="420" pan="0" len="36" vol="31" />
          <note key="61" pos="456" pan="0" len="12" vol="62" />
          <note key="61" pos="468" pan="0" len="36" vol="31" />
          <note key="61" pos="504" pan="0" len="12" vol="62" />
          <note key="61" pos="516" pan="0" len="36" vol="31" />
          <note key="61" pos="552" pan="0" len="12" vol="62" />
          <note key="61" pos="564" pan="0" len="36" vol="31" />
          <note key="61" pos="600" pan="0" len="12" vol="62" />
          <note key="61" pos="612" pan="0" len="36" vol="31" />
          <note key="61" pos="648" pan="0" len="12" vol="62" />
          <note key="61" pos="660" pan="0" len="36" vol="31" />
          <note key="61" pos="696" pan="0" len="12" vol="62" />
          <note key="61" pos="708" pan="0" len="36" vol="31" />
          <note key="61" pos="744" pan="0" len="12" vol="62" />
          <note key="61" pos="756" pan="0" len="780" vol="31" />
        </pattern>
        <pattern pos="241932" muted="0" steps="16" name="" type="1">
          <note key="61" pos="24" pan="0" len="12" vol="62" />
          <note key="61" pos="36" pan="0" len="36" vol="31" />
          <note key="61" pos="72" pan="0" len="12" vol="62" />
          <note key="61" pos="84" pan="0" len="36" vol="31" />
          <note key="61" pos="120" pan="0" len="12" vol="62" />
          <note key="61" pos="132" pan="0" len="36" vol="31" />
          <note key="61" pos="168" pan="0" len="12" vol="62" />
          <note key="61" pos="180" pan="0" len="36" vol="31" />
          <note key="61" pos="216" pan="0" len="12" vol="62" />
          <note key="61" pos="228" pan="0" len="36" vol="31" />
          <note key="61" pos="264" pan="0" len="12" vol="62" />
          <note key="61" pos="276" pan="0" len="36" vol="31" />
          <note key="61" pos="312" pan="0" len="12" vol="62" />
          <note key="61" pos="324" pan="0" len="36" vol="31" />
          <note key="61" pos="360" pan="0" len="12" vol="62" />
          <note key="61" pos="372" pan="0" len="36" vol="31" />
          <note key="61" pos="408" pan="0" len="12" vol="62" />
          <note key="61" pos="420" pan="0" len="36" vol="31" />
          <note key="61" pos="456" pan="0" len="12" vol="62" />
          <note key="61" pos="468" pan="0" len="36" vol="31" />
          <note key="61" pos="504" pan="0" len="12" vol="62" />
          <note key="61" pos="516" pan="0" len="36" vol="31" />
          <note key="61" pos="552" pan="0" len="12" vol="62" />
          <note key="61" pos="564" pan="0" len="36" vol="31" />
          <note key="61" pos="600" pan="0" len="12" vol="62" />
          <note key="61" pos="612" pan="0" len="36" vol="31" />
          <note key="61" pos="648" pan="0" len="12" vol="62" />
          <note key="61" pos="660" pan="0" len="36" vol="31" />
          <note key="61" pos="696" pan="0" len="12" vol="62" />
          <note key="61" pos="708" pan="0" len="36" vol="31" />
          <note key="61" pos="744" pan="0" len="12" vol="62" />
          <note key="61" pos="756" pan="0" len="12" vol="31" />
        </pattern>
      </track>
      <track solo="0" name="61 (Ch14)" type="0" muted="0">
        <instrumenttrack usemasterpitch="1" pitch="0.0" basenote="57" pan="0" pitchrange="12" vol="30">
          <eldata />
          <instrument name="tripleoscillator" />
        </instrumenttrack>
        <pattern pos="246540" muted="0" steps="16" name="" type="1">
          <note key="61" pos="792" pan="0" len="12" vol="62" />
          <note key="61" pos="804" pan="0" len="36" vol="31" />
          <note key="61" pos="840" pan="0" len="12" vol="62" />
          <note key="61" pos="852" pan="0" len="36" vol="31" />
          <note key="61" pos="888" pan="0" len="12" vol="62" />
          <note key="61" pos="900" pan="0" len="36" vol="31" />
          <note key="61" pos="936" pan="0" len="12" vol="62" />
          <note key="61" pos="948" pan="0" len="36" vol="31" />
          <note key="61" pos="984" pan="0" len="12" vol="62" />
          <note key="61" pos="996" pan="0" len="36" vol="31" />
          <note key="61" pos="1032" pan="0" len="12" vol="62" />
          <note key="61" pos="1044" pan="0" len="36" vol="31" />
          <note key="61" pos="1080" pan="0" len="12" vol="62" />
          <note key="61" pos="1092" pan="0" len="36" vol="31" />
          <note key="61" pos="1128" pan="0" len="12" vol="62" />
          <note key="61" pos="1140" pan="0" len="36" vol="31" />
          <note key="61" pos="1176" pan="0" len="12" vol="62" />
          <note key="61" pos="1188" pan="0" len="36" vol="31" />
          <note key="61" pos="1224" pan="0" len="12" vol="62" />
          <note key="61" pos="1236" pan="0" len="36" vol="31" />
          <note key="61" pos="1272" pan="0" len="12" vol="62" />
          <note key="61" pos="1284" pan="0" len="36" vol="31" />
          <note key="61" pos="1320" pan="0" len="12" vol="62" />
          <note key="61" pos="1332" pan="0" len="36" vol="31" />
          <note key="61" pos="1368" pan="0" len="12" vol="62" />
          <note key="61" pos="1380" pan="0" len="36" vol="31" />
          <note key="61" pos="1416" pan="0" len="12" vol="62" />
          <note key="61" pos="1428" pan="0" len="36" vol="31" />
          <note key="61" pos="1464" pan="0" len="12" vol="62" />
          <note key="61" pos="1476" pan="0" len="36" vol="31" />
          <note key="61" pos="1512" pan="0" len="12" vol="62" />
          <note key="61" pos="1524" pan="0" len="12" vol="31" />
        </pattern>
        <pattern pos="241932" muted="0" steps="16" name="" type="1">
          <note key="61" pos="792" pan="0" len="12" vol="62" />
          <note key="61" pos="804" pan="0" len="36" vol="31" />
          <note key="61" pos="840" pan="0" len="12" vol="62" />
          <note key="61" pos="852" pan="0" len="36" vol="31" />
          <note key="61" pos="888" pan="0" len="12" vol="62" />
          <note key="61" pos="900" pan="0" len="36" vol="31" />
          <note key="61" pos="936" pan="0" len="12" vol="62" />
          <note key="61" pos="948" pan="0" len="36" vol="31" />
          <note key="61" pos="984" pan="0" len="12" vol="62" />
          <note key="61" pos="996" pan="0" len="36" vol="31" />
          <note key="61" pos="1032" pan="0" len="12" vol="62" />
          <note key="61" pos="1044" pan="0" len="36" vol="31" />
          <note key="61" pos="1080" pan="0" len="12" vol="62" />
          <note key="61" pos="1092" pan="0" len="36" vol="31" />
          <note key="61" pos="1128" pan="0" len="12" vol="62" />
          <note key="61" pos="1140" pan="0" len="36" vol="31" />
          <note key="61" pos="1176" pan="0" len="12" vol="62" />
          <note key="61" pos="1188" pan="0" len="36" vol="31" />
          <note key="61" pos="1224" pan="0" len="12" vol="62" />
          <note key="61" pos="1236" pan="0" len="36" vol="31" />
          <note key="61" pos="1272" pan="0" len="12" vol="62" />
          <note key="61" pos="1284" pan="0" len="36" vol="31" />
          <note key="61" pos="1320" pan="0" len="12" vol="62" />
          <note key="61" pos="1332" pan="0" len="36" vol="31" />
          <note key="61" pos="1368" pan="0" len="12" vol="62" />
          <note key="61" pos="1380" pan="0" len="36" vol="31" />
          <note key="61" pos="1416" pan="0" len="12" vol="62" />
          <note key="61" pos="1428" pan="0" len="36" vol="31" />
          <note key="61" pos="1464" pan="0" len="12" vol="62" />
          <note key="61" pos="1476" pan="0" len="36" vol="31" />
          <note key="61" pos="1512" pan="0" len="12" vol="62" />
          <note key="61" pos="1524" pan="0" len="12" vol="31" />
        </pattern>
      </track>
      <track solo="0" name="61 (Ch16)" type="0" muted="0">
        <instrumenttrack usemasterpitch="1" pitch="0.0" basenote="57" pan="0" pitchrange="12" vol="30">
          <eldata />
          <instrument name="tripleoscillator" />
        </instrumenttrack>
        <pattern pos="118272" muted="0" steps="16" name="" type="1">
          <note key="60" pos="36" pan="0" len="12" vol="34" />
          <note key="60" pos="180" pan="0" len="12" vol="34" />
          <note key="60" pos="324" pan="0" len="12" vol="34" />
          <note key="60" pos="468" pan="0" len="12" vol="34" />
          <note key="60" pos="612" pan="0" len="12" vol="34" />
          <note key="60" pos="756" pan="0" len="12" vol="34" />
          <note key="60" pos="900" pan="0" len="12" vol="34" />
          <note key="60" pos="1044" pan="0" len="12" vol="34" />
          <note key="60" pos="1188" pan="0" len="12" vol="34" />
          <note key="60" pos="1332" pan="0" len="12" vol="34" />
          <note key="60" pos="1476" pan="0" len="12" vol="34" />
          <note key="60" pos="1620" pan="0" len="12" vol="34" />
          <note key="60" pos="1764" pan="0" len="12" vol="34" />
          <note key="60" pos="1908" pan="0" len="12" vol="34" />
          <note key="60" pos="2052" pan="0" len="12" vol="34" />
          <note key="60" pos="2196" pan="0" len="12" vol="34" />
        </pattern>
        <pattern pos="85248" muted="0" steps="16" name="" type="1">
          <note key="60" pos="216" pan="0" len="72" vol="100" />
          <note key="60" pos="504" pan="0" len="48" vol="100" />
          <note key="60" pos="792" pan="0" len="72" vol="100" />
          <note key="60" pos="1080" pan="0" len="48" vol="100" />
          <note key="60" pos="1368" pan="0" len="72" vol="100" />
          <note key="60" pos="1656" pan="0" len="48" vol="100" />
          <note key="60" pos="1944" pan="0" len="72" vol="100" />
          <note key="60" pos="2232" pan="0" len="48" vol="100" />
        </pattern>
      </track>
      <track solo="0" name="62 (Ch8)" type="0" muted="0">
        <instrumenttrack usemasterpitch="1" pitch="0.0" basenote="57" pan="0" pitchrange="12" vol="30">
          <eldata />
          <instrument name="tripleoscillator" />
        </instrumenttrack>
        <pattern pos="54528" muted="0" steps="16" name="" type="1">
          <note key="55" pos="24" pan="0" len="96" vol="100" />
          <note key="58" pos="216" pan="0" len="84" vol="100" />
        </pattern>
        <pattern pos="46080" muted="0" steps="16" name="" type="1">
          <note key="55" pos="24" pan="0" len="96" vol="100" />
          <note key="58" pos="216" pan="0" len="84" vol="100" />
          <note key="56" pos="408" pan="0" len="108" vol="100" />
          <note key="57" pos="600" pan="0" len="120" vol="100" />
          <note key="56" pos="792" pan="0" len="96" vol="100" />
          <note key="59" pos="984" pan="0" len="72" vol="100" />
          <note key="56" pos="1176" pan="0" len="84" vol="100" />
          <note key="57" pos="1368" pan="0" len="84" vol="100" />
        </pattern>
      </track>
      <track solo="0" name="62 (Ch13)" type="0" muted="0">
        <instrumenttrack usemasterpitch="1" pitch="0.0" basenote="57" pan="0" pitchrange="12" vol="30">
          <eldata />
          <instrument name="tripleoscillator" />
        </instrumenttrack>
        <pattern pos="110592" muted="0" steps="16" name="" type="1">
          <note key="62" pos="1536" pan="0" len="384" vol="100" />
          <note key="62" pos="2160" pan="0" len="384" vol="100" />
        </pattern>
        <pattern pos="92160" muted="0" steps="16" name="" type="1">
          <note key="62" pos="1536" pan="0" len="384" vol="100" />
          <note key="62" pos="2160" pan="0" len="384" vol="100" />
        </pattern>
      </track>
      <track solo="0" name="63 (Ch2)" type="0" muted="0">
        <instrumenttrack usemasterpitch="1" pitch="0.0" basenote="57" pan="0" pitchrange="12" vol="30">
          <eldata />
          <instrument name="tripleoscillator" />
        </instrumenttrack>
        <pattern pos="198924" muted="0" steps="16" name="" type="1">
          <note key="60" pos="12" pan="0" len="12" vol="50" />
          <note key="48" pos="24" pan="0" len="24" vol="100" />
          <note key="60" pos="48" pan="0" len="12" vol="50" />
          <note key="48" pos="60" pan="0" len="24" vol="100" />
          <note key="60" pos="84" pan="0" len="12" vol="50" />
          <note key="48" pos="96" pan="0" len="24" vol="100" />
          <note key="60" pos="120" pan="0" len="12" vol="50" />
          <note key="48" pos="132" pan="0" len="24" vol="100" />
          <note key="58" pos="156" pan="0" len="12" vol="50" />
          <note key="46" pos="168" pan="0" len="24" vol="100" />
          <note key="60" pos="192" pan="0" len="12" vol="50" />
          <note key="48" pos="204" pan="0" len="24" vol="100" />
          <note key="60" pos="228" pan="0" len="12" vol="50" />
          <note key="48" pos="240" pan="0" len="24" vol="100" />
          <note key="60" pos="264" pan="0" len="12" vol="50" />
          <note key="48" pos="276" pan="0" len="24" vol="100" />
          <note key="60" pos="300" pan="0" len="12" vol="50" />
          <note key="48" pos="312" pan="0" len="24" vol="100" />
          <note key="58" pos="336" pan="0" len="12" vol="50" />
          <note key="46" pos="348" pan="0" len="48" vol="100" />
          <note key="53" pos="396" pan="0" len="12" vol="50" />
          <note key="48" pos="408" pan="0" len="24" vol="100" />
          <note key="53" pos="432" pan="0" len="12" vol="50" />
          <note key="48" pos="444" pan="0" len="24" vol="100" />
          <note key="53" pos="468" pan="0" len="12" vol="50" />
          <note key="48" pos="480" pan="0" len="24" vol="100" />
          <note key="53" pos="504" pan="0" len="12" vol="50" />
          <note key="48" pos="516" pan="0" len="24" vol="100" />
          <note key="60" pos="540" pan="0" len="12" vol="50" />
          <note key="41" pos="552" pan="0" len="24" vol="100" />
          <note key="53" pos="576" pan="0" len="12" vol="50" />
          <note key="48" pos="588" pan="0" len="24" vol="100" />
          <note key="53" pos="612" pan="0" len="12" vol="50" />
          <note key="48" pos="624" pan="0" len="24" vol="100" />
          <note key="53" pos="648" pan="0" len="12" vol="50" />
          <note key="48" pos="660" pan="0" len="24" vol="100" />
          <note key="53" pos="684" pan="0" len="12" vol="50" />
          <note key="48" pos="696" pan="0" len="24" vol="100" />
          <note key="60" pos="720" pan="0" len="12" vol="50" />
          <note key="41" pos="732" pan="0" len="48" vol="100" />
          <note key="60" pos="780" pan="0" len="12" vol="50" />
          <note key="48" pos="792" pan="0" len="24" vol="100" />
          <note key="60" pos="816" pan="0" len="12" vol="50" />
          <note key="48" pos="828" pan="0" len="24" vol="100" />
          <note key="60" pos="852" pan="0" len="12" vol="50" />
          <note key="48" pos="864" pan="0" len="24" vol="100" />
          <note key="60" pos="888" pan="0" len="12" vol="50" />
          <note key="48" pos="900" pan="0" len="24" vol="100" />
          <note key="58" pos="924" pan="0" len="12" vol="50" />
          <note key="46" pos="936" pan="0" len="24" vol="100" />
          <note key="60" pos="960" pan="0" len="12" vol="50" />
          <note key="48" pos="972" pan="0" len="24" vol="100" />
          <note key="60" pos="996" pan="0" len="12" vol="50" />
          <note key="48" pos="1008" pan="0" len="24" vol="100" />
          <note key="60" pos="1032" pan="0" len="12" vol="50" />
          <note key="48" pos="1044" pan="0" len="24" vol="100" />
          <note key="60" pos="1068" pan="0" len="12" vol="50" />
          <note key="48" pos="1080" pan="0" len="24" vol="100" />
          <note key="58" pos="1104" pan="0" len="12" vol="50" />
          <note key="46" pos="1116" pan="0" len="48" vol="100" />
          <note key="53" pos="1164" pan="0" len="12" vol="50" />
          <note key="48" pos="1176" pan="0" len="24" vol="100" />
          <note key="53" pos="1200" pan="0" len="12" vol="50" />
          <note key="48" pos="1212" pan="0" len="24" vol="100" />
          <note key="53" pos="1236" pan="0" len="12" vol="50" />
          <note key="48" pos="1248" pan="0" len="24" vol="100" />
          <note key="53" pos="1272" pan="0" len="12" vol="50" />
          <note key="48" pos="1284" pan="0" len="24" vol="100" />
          <note key="60" pos="1308" pan="0" len="12" vol="50" />
          <note key="41" pos="1320" pan="0" len="24" vol="100" />
          <note key="53" pos="1344" pan="0" len="12" vol="50" />
          <note key="48" pos="1356" pan="0" len="24" vol="100" />
          <note key="53" pos="1380" pan="0" len="12" vol="50" />
          <note key="48" pos="1392" pan="0" len="24" vol="100" />
          <note key="53" pos="1416" pan="0" len="12" vol="50" />
          <note key="48" pos="1428" pan="0" len="24" vol="100" />
          <note key="53" pos="1452" pan="0" len="12" vol="50" />
          <note key="48" pos="1464" pan="0" len="24" vol="100" />
          <note key="60" pos="1488" pan="0" len="12" vol="50" />
          <note key="41" pos="1500" pan="0" len="36" vol="100" />
        </pattern>
        <pattern pos="186636" muted="0" steps="16" name="" type="1">
          <note key="67" pos="24" pan="0" len="12" vol="50" />
          <note key="55" pos="36" pan="0" len="24" vol="100" />
          <note key="67" pos="60" pan="0" len="12" vol="50" />
          <note key="55" pos="72" pan="0" len="24" vol="100" />
          <note key="67" pos="96" pan="0" len="12" vol="50" />
          <note key="55" pos="108" pan="0" len="24" vol="100" />
          <note key="67" pos="132" pan="0" len="12" vol="50" />
          <note key="55" pos="144" pan="0" len="24" vol="100" />
          <note key="67" pos="168" pan="0" len="12" vol="50" />
          <note key="53" pos="180" pan="0" len="12" vol="100" />
          <note key="67" pos="216" pan="0" len="12" vol="50" />
          <note key="55" pos="228" pan="0" len="24" vol="100" />
          <note key="67" pos="252" pan="0" len="12" vol="50" />
          <note key="55" pos="264" pan="0" len="24" vol="100" />
          <note key="67" pos="288" pan="0" len="12" vol="50" />
          <note key="55" pos="300" pan="0" len="24" vol="100" />
          <note key="65" pos="324" pan="0" len="12" vol="50" />
          <note key="53" pos="336" pan="0" len="48" vol="100" />
          <note key="67" pos="408" pan="0" len="12" vol="50" />
          <note key="55" pos="420" pan="0" len="24" vol="100" />
          <note key="67" pos="444" pan="0" len="12" vol="50" />
          <note key="55" pos="456" pan="0" len="24" vol="100" />
          <note key="67" pos="480" pan="0" len="12" vol="50" />
          <note key="55" pos="492" pan="0" len="24" vol="100" />
          <note key="67" pos="516" pan="0" len="12" vol="50" />
          <note key="55" pos="528" pan="0" len="24" vol="100" />
          <note key="67" pos="552" pan="0" len="12" vol="50" />
          <note key="53" pos="564" pan="0" len="12" vol="100" />
          <note key="67" pos="600" pan="0" len="12" vol="50" />
          <note key="55" pos="612" pan="0" len="24" vol="100" />
          <note key="67" pos="636" pan="0" len="12" vol="50" />
          <note key="55" pos="648" pan="0" len="24" vol="100" />
          <note key="67" pos="672" pan="0" len="12" vol="50" />
          <note key="55" pos="684" pan="0" len="24" vol="100" />
          <note key="65" pos="708" pan="0" len="12" vol="50" />
          <note key="53" pos="720" pan="0" len="48" vol="100" />
          <note key="67" pos="792" pan="0" len="12" vol="50" />
          <note key="55" pos="804" pan="0" len="24" vol="100" />
          <note key="67" pos="828" pan="0" len="12" vol="50" />
          <note key="55" pos="840" pan="0" len="24" vol="100" />
          <note key="67" pos="864" pan="0" len="12" vol="50" />
          <note key="55" pos="876" pan="0" len="24" vol="100" />
          <note key="67" pos="900" pan="0" len="12" vol="50" />
          <note key="55" pos="912" pan="0" len="24" vol="100" />
          <note key="67" pos="936" pan="0" len="12" vol="50" />
          <note key="53" pos="948" pan="0" len="36" vol="100" />
          <note key="67" pos="984" pan="0" len="12" vol="50" />
          <note key="55" pos="996" pan="0" len="24" vol="100" />
          <note key="67" pos="1020" pan="0" len="12" vol="50" />
          <note key="55" pos="1032" pan="0" len="24" vol="100" />
          <note key="67" pos="1056" pan="0" len="12" vol="50" />
          <note key="55" pos="1068" pan="0" len="24" vol="100" />
          <note key="65" pos="1092" pan="0" len="12" vol="50" />
          <note key="53" pos="1104" pan="0" len="48" vol="100" />
          <note key="67" pos="1176" pan="0" len="12" vol="50" />
          <note key="55" pos="1188" pan="0" len="24" vol="100" />
          <note key="67" pos="1212" pan="0" len="12" vol="50" />
          <note key="55" pos="1224" pan="0" len="24" vol="100" />
          <note key="67" pos="1248" pan="0" len="12" vol="50" />
          <note key="55" pos="1260" pan="0" len="24" vol="100" />
          <note key="67" pos="1284" pan="0" len="12" vol="50" />
          <note key="55" pos="1296" pan="0" len="24" vol="100" />
          <note key="67" pos="1320" pan="0" len="12" vol="50" />
          <note key="53" pos="1332" pan="0" len="36" vol="100" />
          <note key="67" pos="1368" pan="0" len="12" vol="50" />
          <note key="55" pos="1380" pan="0" len="24" vol="100" />
          <note key="67" pos="1404" pan="0" len="12" vol="50" />
          <note key="55" pos="1416" pan="0" len="24" vol="100" />
          <note key="67" pos="1440" pan="0" len="12" vol="50" />
          <note key="55" pos="1452" pan="0" len="24" vol="100" />
          <note key="65" pos="1476" pan="0" len="12" vol="50" />
          <note key="53" pos="1488" pan="0" len="48" vol="100" />
        </pattern>
        <pattern pos="188172" muted="0" steps="16" name="" type="1">
          <note key="67" pos="12" pan="0" len="12" vol="50" />
          <note key="55" pos="24" pan="0" len="24" vol="100" />
          <note key="67" pos="48" pan="0" len="12" vol="50" />
          <note key="55" pos="60" pan="0" len="24" vol="100" />
          <note key="67" pos="84" pan="0" len="12" vol="50" />
          <note key="55" pos="96" pan="0" len="24" vol="100" />
          <note key="67" pos="120" pan="0" len="12" vol="50" />
          <note key="55" pos="132" pan="0" len="24" vol="100" />
          <note key="65" pos="156" pan="0" len="12" vol="50" />
          <note key="53" pos="168" pan="0" len="24" vol="100" />
          <note key="67" pos="192" pan="0" len="12" vol="50" />
          <note key="55" pos="204" pan="0" len="24" vol="100" />
          <note key="67" pos="228" pan="0" len="12" vol="50" />
          <note key="55" pos="240" pan="0" len="24" vol="100" />
          <note key="67" pos="264" pan="0" len="12" vol="50" />
          <note key="55" pos="276" pan="0" len="24" vol="100" />
          <note key="67" pos="300" pan="0" len="12" vol="50" />
          <note key="55" pos="312" pan="0" len="24" vol="100" />
          <note key="65" pos="336" pan="0" len="12" vol="50" />
          <note key="53" pos="348" pan="0" len="48" vol="100" />
          <note key="60" pos="396" pan="0" len="12" vol="50" />
          <note key="55" pos="408" pan="0" len="24" vol="100" />
          <note key="60" pos="432" pan="0" len="12" vol="50" />
          <note key="55" pos="444" pan="0" len="24" vol="100" />
          <note key="60" pos="468" pan="0" len="12" vol="50" />
          <note key="55" pos="480" pan="0" len="24" vol="100" />
          <note key="60" pos="504" pan="0" len="12" vol="50" />
          <note key="55" pos="516" pan="0" len="24" vol="100" />
          <note key="67" pos="540" pan="0" len="12" vol="50" />
          <note key="48" pos="552" pan="0" len="24" vol="100" />
          <note key="60" pos="576" pan="0" len="12" vol="50" />
          <note key="55" pos="588" pan="0" len="24" vol="100" />
          <note key="60" pos="612" pan="0" len="12" vol="50" />
          <note key="55" pos="624" pan="0" len="24" vol="100" />
          <note key="60" pos="648" pan="0" len="12" vol="50" />
          <note key="55" pos="660" pan="0" len="24" vol="100" />
          <note key="60" pos="684" pan="0" len="12" vol="50" />
          <note key="55" pos="696" pan="0" len="24" vol="100" />
          <note key="67" pos="720" pan="0" len="12" vol="50" />
          <note key="48" pos="732" pan="0" len="48" vol="100" />
          <note key="67" pos="780" pan="0" len="12" vol="50" />
          <note key="55" pos="792" pan="0" len="24" vol="100" />
          <note key="67" pos="816" pan="0" len="12" vol="50" />
          <note key="55" pos="828" pan="0" len="24" vol="100" />
          <note key="67" pos="852" pan="0" len="12" vol="50" />
          <note key="55" pos="864" pan="0" len="24" vol="100" />
          <note key="67" pos="888" pan="0" len="12" vol="50" />
          <note key="55" pos="900" pan="0" len="24" vol="100" />
          <note key="65" pos="924" pan="0" len="12" vol="50" />
          <note key="53" pos="936" pan="0" len="24" vol="100" />
          <note key="67" pos="960" pan="0" len="12" vol="50" />
          <note key="55" pos="972" pan="0" len="24" vol="100" />
          <note key="67" pos="996" pan="0" len="12" vol="50" />
          <note key="55" pos="1008" pan="0" len="24" vol="100" />
          <note key="67" pos="1032" pan="0" len="12" vol="50" />
          <note key="55" pos="1044" pan="0" len="24" vol="100" />
          <note key="67" pos="1068" pan="0" len="12" vol="50" />
          <note key="55" pos="1080" pan="0" len="24" vol="100" />
          <note key="65" pos="1104" pan="0" len="12" vol="50" />
          <note key="53" pos="1116" pan="0" len="48" vol="100" />
          <note key="60" pos="1164" pan="0" len="12" vol="50" />
          <note key="55" pos="1176" pan="0" len="24" vol="100" />
          <note key="60" pos="1200" pan="0" len="12" vol="50" />
          <note key="55" pos="1212" pan="0" len="24" vol="100" />
          <note key="60" pos="1236" pan="0" len="12" vol="50" />
          <note key="55" pos="1248" pan="0" len="24" vol="100" />
          <note key="60" pos="1272" pan="0" len="12" vol="50" />
          <note key="55" pos="1284" pan="0" len="24" vol="100" />
          <note key="67" pos="1308" pan="0" len="12" vol="50" />
          <note key="48" pos="1320" pan="0" len="24" vol="100" />
          <note key="60" pos="1344" pan="0" len="12" vol="50" />
          <note key="55" pos="1356" pan="0" len="24" vol="100" />
          <note key="60" pos="1380" pan="0" len="12" vol="50" />
          <note key="55" pos="1392" pan="0" len="24" vol="100" />
          <note key="60" pos="1416" pan="0" len="12" vol="50" />
          <note key="55" pos="1428" pan="0" len="24" vol="100" />
          <note key="60" pos="1452" pan="0" len="12" vol="50" />
          <note key="55" pos="1464" pan="0" len="24" vol="100" />
          <note key="67" pos="1488" pan="0" len="12" vol="50" />
          <note key="48" pos="1500" pan="0" len="36" vol="100" />
        </pattern>
        <pattern pos="189708" muted="0" steps="16" name="" type="1">
          <note key="67" pos="12" pan="0" len="12" vol="50" />
          <note key="55" pos="24" pan="0" len="24" vol="100" />
          <note key="67" pos="48" pan="0" len="12" vol="50" />
          <note key="55" pos="60" pan="0" len="24" vol="100" />
          <note key="67" pos="84" pan="0" len="12" vol="50" />
          <note key="55" pos="96" pan="0" len="24" vol="100" />
          <note key="67" pos="120" pan="0" len="12" vol="50" />
          <note key="55" pos="132" pan="0" len="24" vol="100" />
          <note key="65" pos="156" pan="0" len="12" vol="50" />
          <note key="53" pos="168" pan="0" len="24" vol="100" />
          <note key="67" pos="192" pan="0" len="12" vol="50" />
          <note key="55" pos="204" pan="0" len="24" vol="100" />
          <note key="67" pos="228" pan="0" len="12" vol="50" />
          <note key="55" pos="240" pan="0" len="24" vol="100" />
          <note key="67" pos="264" pan="0" len="12" vol="50" />
          <note key="55" pos="276" pan="0" len="24" vol="100" />
          <note key="67" pos="300" pan="0" len="12" vol="50" />
          <note key="55" pos="312" pan="0" len="24" vol="100" />
          <note key="65" pos="336" pan="0" len="12" vol="50" />
          <note key="53" pos="348" pan="0" len="48" vol="100" />
          <note key="60" pos="396" pan="0" len="12" vol="50" />
          <note key="55" pos="408" pan="0" len="24" vol="100" />
          <note key="60" pos="432" pan="0" len="12" vol="50" />
          <note key="55" pos="444" pan="0" len="24" vol="100" />
          <note key="60" pos="468" pan="0" len="12" vol="50" />
          <note key="55" pos="480" pan="0" len="24" vol="100" />
          <note key="60" pos="504" pan="0" len="12" vol="50" />
          <note key="55" pos="516" pan="0" len="24" vol="100" />
          <note key="67" pos="540" pan="0" len="12" vol="50" />
          <note key="48" pos="552" pan="0" len="24" vol="100" />
          <note key="60" pos="576" pan="0" len="12" vol="50" />
          <note key="55" pos="588" pan="0" len="24" vol="100" />
          <note key="60" pos="612" pan="0" len="12" vol="50" />
          <note key="55" pos="624" pan="0" len="24" vol="100" />
          <note key="60" pos="648" pan="0" len="12" vol="50" />
          <note key="55" pos="660" pan="0" len="24" vol="100" />
          <note key="60" pos="684" pan="0" len="12" vol="50" />
          <note key="55" pos="696" pan="0" len="24" vol="100" />
          <note key="67" pos="720" pan="0" len="12" vol="50" />
          <note key="48" pos="732" pan="0" len="48" vol="100" />
          <note key="67" pos="780" pan="0" len="12" vol="50" />
          <note key="55" pos="792" pan="0" len="24" vol="100" />
          <note key="67" pos="816" pan="0" len="12" vol="50" />
          <note key="55" pos="828" pan="0" len="24" vol="100" />
          <note key="67" pos="852" pan="0" len="12" vol="50" />
          <note key="55" pos="864" pan="0" len="24" vol="100" />
          <note key="67" pos="888" pan="0" len="12" vol="50" />
          <note key="55" pos="900" pan="0" len="24" vol="100" />
          <note key="65" pos="924" pan="0" len="12" vol="50" />
          <note key="53" pos="936" pan="0" len="24" vol="100" />
          <note key="67" pos="960" pan="0" len="12" vol="50" />
          <note key="55" pos="972" pan="0" len="24" vol="100" />
          <note key="67" pos="996" pan="0" len="12" vol="50" />
          <note key="55" pos="1008" pan="0" len="24" vol="100" />
          <note key="67" pos="1032" pan="0" len="12" vol="50" />
          <note key="55" pos="1044" pan="0" len="24" vol="100" />
          <note key="67" pos="1068" pan="0" len="12" vol="50" />
          <note key="55" pos="1080" pan="0" len="24" vol="100" />
          <note key="65" pos="1104" pan="0" len="12" vol="50" />
          <note key="53" pos="1116" pan="0" len="48" vol="100" />
          <note key="60" pos="1164" pan="0" len="12" vol="50" />
          <note key="55" pos="1176" pan="0" len="24" vol="100" />
          <note key="60" pos="1200" pan="0" len="12" vol="50" />
          <note key="55" pos="1212" pan="0" len="24" vol="100" />
          <note key="60" pos="1236" pan="0" len="12" vol="50" />
          <note key="55" pos="1248" pan="0" len="24" vol="100" />
          <note key="60" pos="1272" pan="0" len="12" vol="50" />
          <note key="55" pos="1284" pan="0" len="24" vol="100" />
          <note key="67" pos="1308" pan="0" len="12" vol="50" />
          <note key="48" pos="1320" pan="0" len="24" vol="100" />
          <note key="60" pos="1344" pan="0" len="12" vol="50" />
          <note key="55" pos="1356" pan="0" len="24" vol="100" />
          <note key="60" pos="1380" pan="0" len="12" vol="50" />
          <note key="55" pos="1392" pan="0" len="24" vol="100" />
          <note key="60" pos="1416" pan="0" len="12" vol="50" />
          <note key="55" pos="1428" pan="0" len="24" vol="100" />
          <note key="60" pos="1452" pan="0" len="12" vol="50" />
          <note key="55" pos="1464" pan="0" len="24" vol="100" />
          <note key="67" pos="1488" pan="0" len="12" vol="50" />
          <note key="48" pos="1500" pan="0" len="36" vol="100" />
        </pattern>
        <pattern pos="191244" muted="0" steps="16" name="" type="1">
          <note key="59" pos="12" pan="0" len="12" vol="50" />
          <note key="55" pos="24" pan="0" len="24" vol="100" />
          <note key="67" pos="48" pan="0" len="12" vol="50" />
          <note key="55" pos="60" pan="0" len="24" vol="100" />
          <note key="67" pos="84" pan="0" len="12" vol="50" />
          <note key="55" pos="96" pan="0" len="24" vol="100" />
          <note key="67" pos="120" pan="0" len="12" vol="50" />
          <note key="55" pos="132" pan="0" len="24" vol="100" />
          <note key="65" pos="156" pan="0" len="12" vol="50" />
          <note key="53" pos="168" pan="0" len="24" vol="100" />
          <note key="67" pos="192" pan="0" len="12" vol="50" />
          <note key="55" pos="204" pan="0" len="24" vol="100" />
          <note key="67" pos="228" pan="0" len="12" vol="50" />
          <note key="55" pos="240" pan="0" len="24" vol="100" />
          <note key="67" pos="264" pan="0" len="12" vol="50" />
          <note key="55" pos="276" pan="0" len="24" vol="100" />
          <note key="67" pos="300" pan="0" len="12" vol="50" />
          <note key="55" pos="312" pan="0" len="24" vol="100" />
          <note key="65" pos="336" pan="0" len="12" vol="50" />
          <note key="53" pos="348" pan="0" len="48" vol="100" />
          <note key="60" pos="396" pan="0" len="12" vol="50" />
          <note key="55" pos="408" pan="0" len="24" vol="100" />
          <note key="60" pos="432" pan="0" len="12" vol="50" />
          <note key="55" pos="444" pan="0" len="24" vol="100" />
          <note key="60" pos="468" pan="0" len="12" vol="50" />
          <note key="55" pos="480" pan="0" len="24" vol="100" />
          <note key="60" pos="504" pan="0" len="12" vol="50" />
          <note key="55" pos="516" pan="0" len="24" vol="100" />
          <note key="67" pos="540" pan="0" len="12" vol="50" />
          <note key="48" pos="552" pan="0" len="24" vol="100" />
          <note key="60" pos="576" pan="0" len="12" vol="50" />
          <note key="55" pos="588" pan="0" len="24" vol="100" />
          <note key="60" pos="612" pan="0" len="12" vol="50" />
          <note key="55" pos="624" pan="0" len="24" vol="100" />
          <note key="60" pos="648" pan="0" len="12" vol="50" />
          <note key="55" pos="660" pan="0" len="24" vol="100" />
          <note key="60" pos="684" pan="0" len="12" vol="50" />
          <note key="55" pos="696" pan="0" len="24" vol="100" />
          <note key="67" pos="720" pan="0" len="12" vol="50" />
          <note key="48" pos="732" pan="0" len="48" vol="100" />
          <note key="59" pos="780" pan="0" len="12" vol="50" />
          <note key="55" pos="792" pan="0" len="24" vol="100" />
          <note key="67" pos="816" pan="0" len="12" vol="50" />
          <note key="55" pos="828" pan="0" len="24" vol="100" />
          <note key="67" pos="852" pan="0" len="12" vol="50" />
          <note key="55" pos="864" pan="0" len="24" vol="100" />
          <note key="67" pos="888" pan="0" len="12" vol="50" />
          <note key="55" pos="900" pan="0" len="24" vol="100" />
          <note key="65" pos="924" pan="0" len="12" vol="50" />
          <note key="53" pos="936" pan="0" len="24" vol="100" />
          <note key="67" pos="960" pan="0" len="12" vol="50" />
          <note key="55" pos="972" pan="0" len="24" vol="100" />
          <note key="67" pos="996" pan="0" len="12" vol="50" />
          <note key="55" pos="1008" pan="0" len="24" vol="100" />
          <note key="67" pos="1032" pan="0" len="12" vol="50" />
          <note key="55" pos="1044" pan="0" len="24" vol="100" />
          <note key="67" pos="1068" pan="0" len="12" vol="50" />
          <note key="55" pos="1080" pan="0" len="24" vol="100" />
          <note key="65" pos="1104" pan="0" len="12" vol="50" />
          <note key="53" pos="1116" pan="0" len="48" vol="100" />
          <note key="60" pos="1164" pan="0" len="12" vol="50" />
          <note key="55" pos="1176" pan="0" len="24" vol="100" />
          <note key="60" pos="1200" pan="0" len="12" vol="50" />
          <note key="55" pos="1212" pan="0" len="24" vol="100" />
          <note key="60" pos="1236" pan="0" len="12" vol="50" />
          <note key="55" pos="1248" pan="0" len="24" vol="100" />
          <note key="60" pos="1272" pan="0" len="12" vol="50" />
          <note key="55" pos="1284" pan="0" len="24" vol="100" />
          <note key="67" pos="1308" pan="0" len="12" vol="50" />
          <note key="48" pos="1320" pan="0" len="24" vol="100" />
          <note key="60" pos="1344" pan="0" len="12" vol="50" />
          <note key="55" pos="1356" pan="0" len="24" vol="100" />
          <note key="60" pos="1380" pan="0" len="12" vol="50" />
          <note key="55" pos="1392" pan="0" len="24" vol="100" />
          <note key="60" pos="1416" pan="0" len="12" vol="50" />
          <note key="55" pos="1428" pan="0" len="24" vol="100" />
          <note key="60" pos="1452" pan="0" len="12" vol="50" />
          <note key="55" pos="1464" pan="0" len="24" vol="100" />
          <note key="67" pos="1488" pan="0" len="12" vol="50" />
          <note key="48" pos="1500" pan="0" len="36" vol="100" />
        </pattern>
        <pattern pos="192780" muted="0" steps="16" name="" type="1">
          <note key="67" pos="24" pan="0" len="12" vol="50" />
          <note key="55" pos="36" pan="0" len="24" vol="100" />
          <note key="67" pos="60" pan="0" len="12" vol="50" />
          <note key="55" pos="72" pan="0" len="24" vol="100" />
          <note key="67" pos="96" pan="0" len="12" vol="50" />
          <note key="55" pos="108" pan="0" len="24" vol="100" />
          <note key="67" pos="132" pan="0" len="12" vol="50" />
          <note key="55" pos="144" pan="0" len="24" vol="100" />
          <note key="67" pos="168" pan="0" len="12" vol="50" />
          <note key="53" pos="180" pan="0" len="12" vol="100" />
          <note key="67" pos="216" pan="0" len="12" vol="50" />
          <note key="55" pos="228" pan="0" len="24" vol="100" />
          <note key="67" pos="252" pan="0" len="12" vol="50" />
          <note key="55" pos="264" pan="0" len="24" vol="100" />
          <note key="67" pos="288" pan="0" len="12" vol="50" />
          <note key="55" pos="300" pan="0" len="24" vol="100" />
          <note key="65" pos="324" pan="0" len="12" vol="50" />
          <note key="53" pos="336" pan="0" len="48" vol="100" />
          <note key="67" pos="408" pan="0" len="12" vol="50" />
          <note key="55" pos="420" pan="0" len="24" vol="100" />
          <note key="67" pos="444" pan="0" len="12" vol="50" />
          <note key="55" pos="456" pan="0" len="24" vol="100" />
          <note key="67" pos="480" pan="0" len="12" vol="50" />
          <note key="55" pos="492" pan="0" len="24" vol="100" />
          <note key="67" pos="516" pan="0" len="12" vol="50" />
          <note key="55" pos="528" pan="0" len="24" vol="100" />
          <note key="67" pos="552" pan="0" len="12" vol="50" />
          <note key="53" pos="564" pan="0" len="12" vol="100" />
          <note key="67" pos="600" pan="0" len="12" vol="50" />
          <note key="55" pos="612" pan="0" len="24" vol="100" />
          <note key="67" pos="636" pan="0" len="12" vol="50" />
          <note key="55" pos="648" pan="0" len="24" vol="100" />
          <note key="67" pos="672" pan="0" len="12" vol="50" />
          <note key="55" pos="684" pan="0" len="24" vol="100" />
          <note key="65" pos="708" pan="0" len="12" vol="50" />
          <note key="53" pos="720" pan="0" len="48" vol="100" />
          <note key="67" pos="792" pan="0" len="12" vol="50" />
          <note key="55" pos="804" pan="0" len="24" vol="100" />
          <note key="67" pos="828" pan="0" len="12" vol="50" />
          <note key="55" pos="840" pan="0" len="24" vol="100" />
          <note key="67" pos="864" pan="0" len="12" vol="50" />
          <note key="55" pos="876" pan="0" len="24" vol="100" />
          <note key="67" pos="900" pan="0" len="12" vol="50" />
          <note key="55" pos="912" pan="0" len="24" vol="100" />
          <note key="67" pos="936" pan="0" len="12" vol="50" />
          <note key="53" pos="948" pan="0" len="36" vol="100" />
          <note key="67" pos="984" pan="0" len="12" vol="50" />
          <note key="55" pos="996" pan="0" len="24" vol="100" />
          <note key="67" pos="1020" pan="0" len="12" vol="50" />
          <note key="55" pos="1032" pan="0" len="24" vol="100" />
          <note key="67" pos="1056" pan="0" len="12" vol="50" />
          <note key="55" pos="1068" pan="0" len="24" vol="100" />
          <note key="65" pos="1092" pan="0" len="12" vol="50" />
          <note key="53" pos="1104" pan="0" len="48" vol="100" />
          <note key="67" pos="1176" pan="0" len="12" vol="50" />
          <note key="55" pos="1188" pan="0" len="24" vol="100" />
          <note key="67" pos="1212" pan="0" len="12" vol="50" />
          <note key="55" pos="1224" pan="0" len="24" vol="100" />
          <note key="67" pos="1248" pan="0" len="12" vol="50" />
          <note key="55" pos="1260" pan="0" len="24" vol="100" />
          <note key="67" pos="1284" pan="0" len="12" vol="50" />
          <note key="55" pos="1296" pan="0" len="24" vol="100" />
          <note key="67" pos="1320" pan="0" len="12" vol="50" />
          <note key="53" pos="1332" pan="0" len="36" vol="100" />
          <note key="67" pos="1368" pan="0" len="12" vol="50" />
          <note key="55" pos="1380" pan="0" len="24" vol="100" />
          <note key="67" pos="1404" pan="0" len="12" vol="50" />
          <note key="55" pos="1416" pan="0" len="24" vol="100" />
          <note key="67" pos="1440" pan="0" len="12" vol="50" />
          <note key="55" pos="1452" pan="0" len="24" vol="100" />
          <note key="65" pos="1476" pan="0" len="12" vol="50" />
          <note key="53" pos="1488" pan="0" len="48" vol="100" />
        </pattern>
        <pattern pos="194316" muted="0" steps="16" name="" type="1">
          <note key="67" pos="12" pan="0" len="12" vol="50" />
          <note key="55" pos="24" pan="0" len="24" vol="100" />
          <note key="67" pos="48" pan="0" len="12" vol="50" />
          <note key="55" pos="60" pan="0" len="24" vol="100" />
          <note key="67" pos="84" pan="0" len="12" vol="50" />
          <note key="55" pos="96" pan="0" len="24" vol="100" />
          <note key="67" pos="120" pan="0" len="12" vol="50" />
          <note key="55" pos="132" pan="0" len="24" vol="100" />
          <note key="65" pos="156" pan="0" len="12" vol="50" />
          <note key="53" pos="168" pan="0" len="24" vol="100" />
          <note key="67" pos="192" pan="0" len="12" vol="50" />
          <note key="55" pos="204" pan="0" len="24" vol="100" />
          <note key="67" pos="228" pan="0" len="12" vol="50" />
          <note key="55" pos="240" pan="0" len="24" vol="100" />
          <note key="67" pos="264" pan="0" len="12" vol="50" />
          <note key="55" pos="276" pan="0" len="24" vol="100" />
          <note key="67" pos="300" pan="0" len="12" vol="50" />
          <note key="55" pos="312" pan="0" len="24" vol="100" />
          <note key="65" pos="336" pan="0" len="12" vol="50" />
          <note key="53" pos="348" pan="0" len="48" vol="100" />
          <note key="60" pos="396" pan="0" len="12" vol="50" />
          <note key="55" pos="408" pan="0" len="24" vol="100" />
          <note key="60" pos="432" pan="0" len="12" vol="50" />
          <note key="55" pos="444" pan="0" len="24" vol="100" />
          <note key="60" pos="468" pan="0" len="12" vol="50" />
          <note key="55" pos="480" pan="0" len="24" vol="100" />
          <note key="60" pos="504" pan="0" len="12" vol="50" />
          <note key="55" pos="516" pan="0" len="24" vol="100" />
          <note key="67" pos="540" pan="0" len="12" vol="50" />
          <note key="48" pos="552" pan="0" len="24" vol="100" />
          <note key="60" pos="576" pan="0" len="12" vol="50" />
          <note key="55" pos="588" pan="0" len="24" vol="100" />
          <note key="60" pos="612" pan="0" len="12" vol="50" />
          <note key="55" pos="624" pan="0" len="24" vol="100" />
          <note key="60" pos="648" pan="0" len="12" vol="50" />
          <note key="55" pos="660" pan="0" len="24" vol="100" />
          <note key="60" pos="684" pan="0" len="12" vol="50" />
          <note key="55" pos="696" pan="0" len="24" vol="100" />
          <note key="67" pos="720" pan="0" len="12" vol="50" />
          <note key="48" pos="732" pan="0" len="48" vol="100" />
          <note key="67" pos="780" pan="0" len="12" vol="50" />
          <note key="55" pos="792" pan="0" len="24" vol="100" />
          <note key="67" pos="816" pan="0" len="12" vol="50" />
          <note key="55" pos="828" pan="0" len="24" vol="100" />
          <note key="67" pos="852" pan="0" len="12" vol="50" />
          <note key="55" pos="864" pan="0" len="24" vol="100" />
          <note key="67" pos="888" pan="0" len="12" vol="50" />
          <note key="55" pos="900" pan="0" len="24" vol="100" />
          <note key="65" pos="924" pan="0" len="12" vol="50" />
          <note key="53" pos="936" pan="0" len="24" vol="100" />
          <note key="67" pos="960" pan="0" len="12" vol="50" />
          <note key="55" pos="972" pan="0" len="24" vol="100" />
          <note key="67" pos="996" pan="0" len="12" vol="50" />
          <note key="55" pos="1008" pan="0" len="24" vol="100" />
          <note key="67" pos="1032" pan="0" len="12" vol="50" />
          <note key="55" pos="1044" pan="0" len="24" vol="100" />
          <note key="67" pos="1068" pan="0" len="12" vol="50" />
          <note key="55" pos="1080" pan="0" len="24" vol="100" />
          <note key="65" pos="1104" pan="0" len="12" vol="50" />
          <note key="53" pos="1116" pan="0" len="48" vol="100" />
          <note key="60" pos="1164" pan="0" len="12" vol="50" />
          <note key="55" pos="1176" pan="0" len="24" vol="100" />
          <note key="60" pos="1200" pan="0" len="12" vol="50" />
          <note key="55" pos="1212" pan="0" len="24" vol="100" />
          <note key="60" pos="1236" pan="0" len="12" vol="50" />
          <note key="55" pos="1248" pan="0" len="24" vol="100" />
          <note key="60" pos="1272" pan="0" len="12" vol="50" />
          <note key="55" pos="1284" pan="0" len="24" vol="100" />
          <note key="67" pos="1308" pan="0" len="12" vol="50" />
          <note key="48" pos="1320" pan="0" len="24" vol="100" />
          <note key="60" pos="1344" pan="0" len="12" vol="50" />
          <note key="55" pos="1356" pan="0" len="24" vol="100" />
          <note key="60" pos="1380" pan="0" len="12" vol="50" />
          <note key="55" pos="1392" pan="0" len="24" vol="100" />
          <note key="60" pos="1416" pan="0" len="12" vol="50" />
          <note key="55" pos="1428" pan="0" len="24" vol="100" />
          <note key="60" pos="1452" pan="0" len="12" vol="50" />
          <note key="55" pos="1464" pan="0" len="24" vol="100" />
          <note key="67" pos="1488" pan="0" len="12" vol="50" />
          <note key="48" pos="1500" pan="0" len="36" vol="100" />
        </pattern>
        <pattern pos="195852" muted="0" steps="16" name="" type="1">
          <note key="59" pos="12" pan="0" len="12" vol="50" />
          <note key="55" pos="24" pan="0" len="24" vol="100" />
          <note key="67" pos="48" pan="0" len="12" vol="50" />
          <note key="55" pos="60" pan="0" len="24" vol="100" />
          <note key="67" pos="84" pan="0" len="12" vol="50" />
          <note key="55" pos="96" pan="0" len="24" vol="100" />
          <note key="67" pos="120" pan="0" len="12" vol="50" />
          <note key="55" pos="132" pan="0" len="24" vol="100" />
          <note key="65" pos="156" pan="0" len="12" vol="50" />
          <note key="53" pos="168" pan="0" len="24" vol="100" />
          <note key="67" pos="192" pan="0" len="12" vol="50" />
          <note key="55" pos="204" pan="0" len="24" vol="100" />
          <note key="67" pos="228" pan="0" len="12" vol="50" />
          <note key="55" pos="240" pan="0" len="24" vol="100" />
          <note key="67" pos="264" pan="0" len="12" vol="50" />
          <note key="55" pos="276" pan="0" len="24" vol="100" />
          <note key="67" pos="300" pan="0" len="12" vol="50" />
          <note key="55" pos="312" pan="0" len="24" vol="100" />
          <note key="65" pos="336" pan="0" len="12" vol="50" />
          <note key="53" pos="348" pan="0" len="48" vol="100" />
          <note key="60" pos="396" pan="0" len="12" vol="50" />
          <note key="55" pos="408" pan="0" len="24" vol="100" />
          <note key="60" pos="432" pan="0" len="12" vol="50" />
          <note key="55" pos="444" pan="0" len="24" vol="100" />
          <note key="60" pos="468" pan="0" len="12" vol="50" />
          <note key="55" pos="480" pan="0" len="24" vol="100" />
          <note key="60" pos="504" pan="0" len="12" vol="50" />
          <note key="55" pos="516" pan="0" len="24" vol="100" />
          <note key="67" pos="540" pan="0" len="12" vol="50" />
          <note key="48" pos="552" pan="0" len="24" vol="100" />
          <note key="60" pos="576" pan="0" len="12" vol="50" />
          <note key="55" pos="588" pan="0" len="24" vol="100" />
          <note key="60" pos="612" pan="0" len="12" vol="50" />
          <note key="55" pos="624" pan="0" len="24" vol="100" />
          <note key="60" pos="648" pan="0" len="12" vol="50" />
          <note key="55" pos="660" pan="0" len="24" vol="100" />
          <note key="60" pos="684" pan="0" len="12" vol="50" />
          <note key="55" pos="696" pan="0" len="24" vol="100" />
          <note key="67" pos="720" pan="0" len="12" vol="50" />
          <note key="48" pos="732" pan="0" len="48" vol="100" />
          <note key="59" pos="780" pan="0" len="12" vol="50" />
          <note key="55" pos="792" pan="0" len="24" vol="100" />
          <note key="67" pos="816" pan="0" len="12" vol="50" />
          <note key="55" pos="828" pan="0" len="24" vol="100" />
          <note key="67" pos="852" pan="0" len="12" vol="50" />
          <note key="55" pos="864" pan="0" len="24" vol="100" />
          <note key="67" pos="888" pan="0" len="12" vol="50" />
          <note key="55" pos="900" pan="0" len="24" vol="100" />
          <note key="65" pos="924" pan="0" len="12" vol="50" />
          <note key="53" pos="936" pan="0" len="24" vol="100" />
          <note key="67" pos="960" pan="0" len="12" vol="50" />
          <note key="55" pos="972" pan="0" len="24" vol="100" />
          <note key="67" pos="996" pan="0" len="12" vol="50" />
          <note key="55" pos="1008" pan="0" len="24" vol="100" />
          <note key="67" pos="1032" pan="0" len="12" vol="50" />
          <note key="55" pos="1044" pan="0" len="24" vol="100" />
          <note key="67" pos="1068" pan="0" len="12" vol="50" />
          <note key="55" pos="1080" pan="0" len="24" vol="100" />
          <note key="65" pos="1104" pan="0" len="12" vol="50" />
          <note key="53" pos="1116" pan="0" len="48" vol="100" />
          <note key="60" pos="1164" pan="0" len="12" vol="50" />
          <note key="55" pos="1176" pan="0" len="24" vol="100" />
          <note key="60" pos="1200" pan="0" len="12" vol="50" />
          <note key="55" pos="1212" pan="0" len="24" vol="100" />
          <note key="60" pos="1236" pan="0" len="12" vol="50" />
          <note key="55" pos="1248" pan="0" len="24" vol="100" />
          <note key="60" pos="1272" pan="0" len="12" vol="50" />
          <note key="55" pos="1284" pan="0" len="24" vol="100" />
          <note key="67" pos="1308" pan="0" len="12" vol="50" />
          <note key="48" pos="1320" pan="0" len="24" vol="100" />
          <note key="60" pos="1344" pan="0" len="12" vol="50" />
          <note key="55" pos="1356" pan="0" len="24" vol="100" />
          <note key="60" pos="1380" pan="0" len="12" vol="50" />
          <note key="55" pos="1392" pan="0" len="24" vol="100" />
          <note key="60" pos="1416" pan="0" len="12" vol="50" />
          <note key="55" pos="1428" pan="0" len="24" vol="100" />
          <note key="60" pos="1452" pan="0" len="12" vol="50" />
          <note key="55" pos="1464" pan="0" len="24" vol="100" />
          <note key="67" pos="1488" pan="0" len="12" vol="50" />
          <note key="48" pos="1500" pan="0" len="36" vol="100" />
        </pattern>
        <pattern pos="197388" muted="0" steps="16" name="" type="1">
          <note key="64" pos="12" pan="0" len="12" vol="50" />
          <note key="52" pos="24" pan="0" len="24" vol="100" />
          <note key="64" pos="48" pan="0" len="12" vol="50" />
          <note key="52" pos="60" pan="0" len="24" vol="100" />
          <note key="64" pos="84" pan="0" len="12" vol="50" />
          <note key="52" pos="96" pan="0" len="24" vol="100" />
          <note key="64" pos="120" pan="0" len="12" vol="50" />
          <note key="52" pos="132" pan="0" len="24" vol="100" />
          <note key="62" pos="156" pan="0" len="12" vol="50" />
          <note key="50" pos="168" pan="0" len="24" vol="100" />
          <note key="64" pos="192" pan="0" len="12" vol="50" />
          <note key="52" pos="204" pan="0" len="24" vol="100" />
          <note key="64" pos="228" pan="0" len="12" vol="50" />
          <note key="52" pos="240" pan="0" len="24" vol="100" />
          <note key="64" pos="264" pan="0" len="12" vol="50" />
          <note key="52" pos="276" pan="0" len="24" vol="100" />
          <note key="64" pos="300" pan="0" len="12" vol="50" />
          <note key="52" pos="312" pan="0" len="24" vol="100" />
          <note key="62" pos="336" pan="0" len="12" vol="50" />
          <note key="50" pos="348" pan="0" len="48" vol="100" />
          <note key="57" pos="396" pan="0" len="12" vol="50" />
          <note key="52" pos="408" pan="0" len="24" vol="100" />
          <note key="57" pos="432" pan="0" len="12" vol="50" />
          <note key="52" pos="444" pan="0" len="24" vol="100" />
          <note key="57" pos="468" pan="0" len="12" vol="50" />
          <note key="52" pos="480" pan="0" len="24" vol="100" />
          <note key="57" pos="504" pan="0" len="12" vol="50" />
          <note key="52" pos="516" pan="0" len="24" vol="100" />
          <note key="64" pos="540" pan="0" len="12" vol="50" />
          <note key="45" pos="552" pan="0" len="24" vol="100" />
          <note key="57" pos="576" pan="0" len="12" vol="50" />
          <note key="52" pos="588" pan="0" len="24" vol="100" />
          <note key="57" pos="612" pan="0" len="12" vol="50" />
          <note key="52" pos="624" pan="0" len="24" vol="100" />
          <note key="57" pos="648" pan="0" len="12" vol="50" />
          <note key="52" pos="660" pan="0" len="24" vol="100" />
          <note key="57" pos="684" pan="0" len="12" vol="50" />
          <note key="52" pos="696" pan="0" len="24" vol="100" />
          <note key="64" pos="720" pan="0" len="12" vol="50" />
          <note key="45" pos="732" pan="0" len="48" vol="100" />
          <note key="62" pos="780" pan="0" len="12" vol="50" />
          <note key="50" pos="792" pan="0" len="24" vol="100" />
          <note key="62" pos="816" pan="0" len="12" vol="50" />
          <note key="50" pos="828" pan="0" len="24" vol="100" />
          <note key="62" pos="852" pan="0" len="12" vol="50" />
          <note key="50" pos="864" pan="0" len="24" vol="100" />
          <note key="62" pos="888" pan="0" len="12" vol="50" />
          <note key="50" pos="900" pan="0" len="24" vol="100" />
          <note key="60" pos="924" pan="0" len="12" vol="50" />
          <note key="48" pos="936" pan="0" len="24" vol="100" />
          <note key="62" pos="960" pan="0" len="12" vol="50" />
          <note key="50" pos="972" pan="0" len="24" vol="100" />
          <note key="62" pos="996" pan="0" len="12" vol="50" />
          <note key="50" pos="1008" pan="0" len="24" vol="100" />
          <note key="62" pos="1032" pan="0" len="12" vol="50" />
          <note key="50" pos="1044" pan="0" len="24" vol="100" />
          <note key="62" pos="1068" pan="0" len="12" vol="50" />
          <note key="50" pos="1080" pan="0" len="24" vol="100" />
          <note key="60" pos="1104" pan="0" len="12" vol="50" />
          <note key="48" pos="1116" pan="0" len="48" vol="100" />
          <note key="55" pos="1164" pan="0" len="12" vol="50" />
          <note key="50" pos="1176" pan="0" len="24" vol="100" />
          <note key="55" pos="1200" pan="0" len="12" vol="50" />
          <note key="50" pos="1212" pan="0" len="24" vol="100" />
          <note key="55" pos="1236" pan="0" len="12" vol="50" />
          <note key="50" pos="1248" pan="0" len="24" vol="100" />
          <note key="55" pos="1272" pan="0" len="12" vol="50" />
          <note key="50" pos="1284" pan="0" len="24" vol="100" />
          <note key="62" pos="1308" pan="0" len="12" vol="50" />
          <note key="43" pos="1320" pan="0" len="24" vol="100" />
          <note key="55" pos="1344" pan="0" len="12" vol="50" />
          <note key="50" pos="1356" pan="0" len="24" vol="100" />
          <note key="55" pos="1380" pan="0" len="12" vol="50" />
          <note key="50" pos="1392" pan="0" len="24" vol="100" />
          <note key="55" pos="1416" pan="0" len="12" vol="50" />
          <note key="50" pos="1428" pan="0" len="24" vol="100" />
          <note key="55" pos="1452" pan="0" len="12" vol="50" />
          <note key="50" pos="1464" pan="0" len="24" vol="100" />
          <note key="62" pos="1488" pan="0" len="12" vol="50" />
          <note key="43" pos="1500" pan="0" len="36" vol="100" />
        </pattern>
      </track>
      <track solo="0" name="63 (Ch4)" type="0" muted="0">
        <instrumenttrack usemasterpitch="1" pitch="0.0" basenote="57" pan="0" pitchrange="12" vol="30">
          <eldata />
          <instrument name="tripleoscillator" />
        </instrumenttrack>
        <pattern pos="201996" muted="0" steps="16" name="" type="1">
          <note key="58" pos="24" pan="0" len="48" vol="100" />
          <note key="60" pos="72" pan="0" len="48" vol="100" />
          <note key="63" pos="120" pan="0" len="24" vol="100" />
          <note key="56" pos="144" pan="0" len="72" vol="100" />
          <note key="63" pos="216" pan="0" len="48" vol="100" />
          <note key="60" pos="264" pan="0" len="48" vol="100" />
          <note key="56" pos="312" pan="0" len="24" vol="100" />
          <note key="60" pos="336" pan="0" len="72" vol="100" />
          <note key="63" pos="408" pan="0" len="48" vol="100" />
          <note key="65" pos="456" pan="0" len="48" vol="100" />
          <note key="60" pos="504" pan="0" len="24" vol="100" />
          <note key="65" pos="528" pan="0" len="72" vol="100" />
          <note key="68" pos="600" pan="0" len="48" vol="100" />
          <note key="67" pos="648" pan="0" len="48" vol="100" />
          <note key="63" pos="696" pan="0" len="24" vol="100" />
          <note key="65" pos="720" pan="0" len="72" vol="100" />
          <note key="63" pos="792" pan="0" len="48" vol="100" />
          <note key="66" pos="840" pan="0" len="24" vol="100" />
          <note key="58" pos="864" pan="0" len="48" vol="100" />
          <note key="61" pos="912" pan="0" len="72" vol="100" />
          <note key="58" pos="984" pan="0" len="24" vol="100" />
          <note key="61" pos="1008" pan="0" len="48" vol="100" />
          <note key="65" pos="1056" pan="0" len="48" vol="100" />
          <note key="58" pos="1104" pan="0" len="24" vol="100" />
          <note key="65" pos="1128" pan="0" len="48" vol="100" />
          <note key="58" pos="1176" pan="0" len="48" vol="100" />
          <note key="60" pos="1224" pan="0" len="48" vol="100" />
          <note key="63" pos="1272" pan="0" len="24" vol="100" />
          <note key="56" pos="1296" pan="0" len="72" vol="100" />
          <note key="60" pos="1368" pan="0" len="48" vol="100" />
          <note key="63" pos="1416" pan="0" len="48" vol="100" />
          <note key="60" pos="1464" pan="0" len="24" vol="100" />
          <note key="63" pos="1488" pan="0" len="48" vol="100" />
        </pattern>
      </track>
      <track solo="0" name="63 (Ch5)" type="0" muted="0">
        <instrumenttrack usemasterpitch="1" pitch="0.0" basenote="57" pan="0" pitchrange="12" vol="30">
          <eldata />
          <instrument name="tripleoscillator" />
        </instrumenttrack>
        <pattern pos="169740" muted="0" steps="16" name="" type="1">
          <note key="64" pos="24" pan="0" len="48" vol="100" />
          <note key="60" pos="72" pan="0" len="48" vol="100" />
          <note key="67" pos="120" pan="0" len="24" vol="100" />
          <note key="60" pos="144" pan="0" len="48" vol="100" />
          <note key="64" pos="216" pan="0" len="48" vol="100" />
          <note key="60" pos="264" pan="0" len="48" vol="100" />
          <note key="67" pos="312" pan="0" len="24" vol="100" />
          <note key="60" pos="336" pan="0" len="48" vol="100" />
          <note key="64" pos="408" pan="0" len="48" vol="100" />
          <note key="60" pos="456" pan="0" len="48" vol="100" />
          <note key="67" pos="504" pan="0" len="24" vol="100" />
          <note key="60" pos="528" pan="0" len="48" vol="100" />
        </pattern>
      </track>
      <track solo="0" name="63 (Ch6)" type="0" muted="0">
        <instrumenttrack usemasterpitch="1" pitch="0.0" basenote="57" pan="0" pitchrange="12" vol="30">
          <eldata />
          <instrument name="tripleoscillator" />
        </instrumenttrack>
        <pattern pos="220428" muted="0" steps="16" name="" type="1">
          <note key="63" pos="0" pan="0" len="36" vol="59" />
          <note key="63" pos="36" pan="0" len="24" vol="59" />
          <note key="63" pos="60" pan="0" len="24" vol="59" />
          <note key="63" pos="84" pan="0" len="36" vol="59" />
          <note key="63" pos="120" pan="0" len="264" vol="59" />
        </pattern>
        <pattern pos="211212" muted="0" steps="16" name="" type="1">
          <note key="63" pos="0" pan="0" len="36" vol="59" />
          <note key="63" pos="36" pan="0" len="24" vol="59" />
          <note key="63" pos="60" pan="0" len="24" vol="59" />
          <note key="63" pos="84" pan="0" len="36" vol="59" />
          <note key="63" pos="120" pan="0" len="36" vol="59" />
          <note key="63" pos="156" pan="0" len="36" vol="59" />
          <note key="63" pos="192" pan="0" len="36" vol="59" />
          <note key="63" pos="228" pan="0" len="24" vol="59" />
          <note key="63" pos="252" pan="0" len="24" vol="59" />
          <note key="63" pos="276" pan="0" len="36" vol="59" />
          <note key="63" pos="312" pan="0" len="36" vol="59" />
          <note key="63" pos="348" pan="0" len="36" vol="59" />
          <note key="63" pos="384" pan="0" len="36" vol="59" />
          <note key="63" pos="420" pan="0" len="24" vol="59" />
          <note key="63" pos="444" pan="0" len="24" vol="59" />
          <note key="63" pos="468" pan="0" len="36" vol="59" />
          <note key="63" pos="504" pan="0" len="36" vol="59" />
          <note key="63" pos="540" pan="0" len="36" vol="59" />
          <note key="63" pos="576" pan="0" len="36" vol="59" />
          <note key="63" pos="612" pan="0" len="24" vol="59" />
          <note key="63" pos="636" pan="0" len="24" vol="59" />
          <note key="63" pos="660" pan="0" len="36" vol="59" />
          <note key="63" pos="696" pan="0" len="36" vol="59" />
          <note key="63" pos="732" pan="0" len="36" vol="59" />
          <note key="63" pos="768" pan="0" len="36" vol="59" />
          <note key="63" pos="804" pan="0" len="24" vol="59" />
          <note key="63" pos="828" pan="0" len="24" vol="59" />
          <note key="63" pos="852" pan="0" len="36" vol="59" />
          <note key="63" pos="888" pan="0" len="36" vol="59" />
          <note key="63" pos="924" pan="0" len="36" vol="59" />
          <note key="63" pos="960" pan="0" len="36" vol="59" />
          <note key="63" pos="996" pan="0" len="24" vol="59" />
          <note key="63" pos="1020" pan="0" len="24" vol="59" />
          <note key="63" pos="1044" pan="0" len="36" vol="59" />
          <note key="63" pos="1080" pan="0" len="36" vol="59" />
          <note key="63" pos="1116" pan="0" len="36" vol="59" />
          <note key="63" pos="1152" pan="0" len="36" vol="59" />
          <note key="63" pos="1188" pan="0" len="24" vol="59" />
          <note key="63" pos="1212" pan="0" len="24" vol="59" />
          <note key="63" pos="1236" pan="0" len="36" vol="59" />
          <note key="63" pos="1272" pan="0" len="36" vol="59" />
          <note key="63" pos="1308" pan="0" len="36" vol="59" />
          <note key="63" pos="1344" pan="0" len="36" vol="59" />
          <note key="63" pos="1380" pan="0" len="24" vol="59" />
          <note key="63" pos="1404" pan="0" len="24" vol="59" />
          <note key="63" pos="1428" pan="0" len="36" vol="59" />
          <note key="63" pos="1464" pan="0" len="36" vol="59" />
          <note key="63" pos="1500" pan="0" len="36" vol="59" />
        </pattern>
        <pattern pos="212748" muted="0" steps="16" name="" type="1">
          <note key="63" pos="0" pan="0" len="36" vol="59" />
          <note key="63" pos="36" pan="0" len="24" vol="59" />
          <note key="63" pos="60" pan="0" len="24" vol="59" />
          <note key="63" pos="84" pan="0" len="36" vol="59" />
          <note key="63" pos="120" pan="0" len="36" vol="59" />
          <note key="63" pos="156" pan="0" len="36" vol="59" />
          <note key="63" pos="192" pan="0" len="36" vol="59" />
          <note key="63" pos="228" pan="0" len="24" vol="59" />
          <note key="63" pos="252" pan="0" len="24" vol="59" />
          <note key="63" pos="276" pan="0" len="36" vol="59" />
          <note key="63" pos="312" pan="0" len="36" vol="59" />
          <note key="63" pos="348" pan="0" len="36" vol="59" />
          <note key="58" pos="384" pan="0" len="36" vol="59" />
          <note key="58" pos="420" pan="0" len="24" vol="59" />
          <note key="58" pos="444" pan="0" len="24" vol="59" />
          <note key="58" pos="468" pan="0" len="36" vol="59" />
          <note key="58" pos="504" pan="0" len="36" vol="59" />
          <note key="58" pos="540" pan="0" len="36" vol="59" />
          <note key="58" pos="576" pan="0" len="36" vol="59" />
          <note key="58" pos="612" pan="0" len="24" vol="59" />
          <note key="58" pos="636" pan="0" len="24" vol="59" />
          <note key="58" pos="660" pan="0" len="36" vol="59" />
          <note key="58" pos="696" pan="0" len="36" vol="59" />
          <note key="58" pos="732" pan="0" len="36" vol="59" />
          <note key="61" pos="768" pan="0" len="36" vol="59" />
          <note key="61" pos="804" pan="0" len="24" vol="59" />
          <note key="61" pos="828" pan="0" len="24" vol="59" />
          <note key="61" pos="852" pan="0" len="36" vol="59" />
          <note key="61" pos="888" pan="0" len="36" vol="59" />
          <note key="61" pos="924" pan="0" len="36" vol="59" />
          <note key="61" pos="960" pan="0" len="36" vol="59" />
          <note key="61" pos="996" pan="0" len="24" vol="59" />
          <note key="61" pos="1020" pan="0" len="24" vol="59" />
          <note key="61" pos="1044" pan="0" len="36" vol="59" />
          <note key="61" pos="1080" pan="0" len="36" vol="59" />
          <note key="61" pos="1116" pan="0" len="36" vol="59" />
          <note key="63" pos="1152" pan="0" len="36" vol="59" />
          <note key="63" pos="1188" pan="0" len="24" vol="59" />
          <note key="63" pos="1212" pan="0" len="24" vol="59" />
          <note key="63" pos="1236" pan="0" len="36" vol="59" />
          <note key="63" pos="1272" pan="0" len="36" vol="59" />
          <note key="63" pos="1308" pan="0" len="36" vol="59" />
          <note key="59" pos="1344" pan="0" len="36" vol="59" />
          <note key="59" pos="1380" pan="0" len="24" vol="59" />
          <note key="59" pos="1404" pan="0" len="24" vol="59" />
          <note key="59" pos="1428" pan="0" len="36" vol="59" />
          <note key="58" pos="1464" pan="0" len="36" vol="59" />
          <note key="61" pos="1500" pan="0" len="36" vol="59" />
        </pattern>
        <pattern pos="214284" muted="0" steps="16" name="" type="1">
          <note key="63" pos="0" pan="0" len="36" vol="59" />
          <note key="63" pos="36" pan="0" len="24" vol="59" />
          <note key="63" pos="60" pan="0" len="24" vol="59" />
          <note key="63" pos="84" pan="0" len="36" vol="59" />
          <note key="63" pos="120" pan="0" len="36" vol="59" />
          <note key="63" pos="156" pan="0" len="36" vol="59" />
          <note key="63" pos="192" pan="0" len="36" vol="59" />
          <note key="63" pos="228" pan="0" len="24" vol="59" />
          <note key="63" pos="252" pan="0" len="24" vol="59" />
          <note key="63" pos="276" pan="0" len="36" vol="59" />
          <note key="63" pos="312" pan="0" len="36" vol="59" />
          <note key="63" pos="348" pan="0" len="36" vol="59" />
          <note key="58" pos="384" pan="0" len="36" vol="59" />
          <note key="58" pos="420" pan="0" len="24" vol="59" />
          <note key="58" pos="444" pan="0" len="24" vol="59" />
          <note key="58" pos="468" pan="0" len="36" vol="59" />
          <note key="58" pos="504" pan="0" len="36" vol="59" />
          <note key="58" pos="540" pan="0" len="36" vol="59" />
          <note key="58" pos="576" pan="0" len="36" vol="59" />
          <note key="58" pos="612" pan="0" len="24" vol="59" />
          <note key="58" pos="636" pan="0" len="24" vol="59" />
          <note key="58" pos="660" pan="0" len="36" vol="59" />
          <note key="58" pos="696" pan="0" len="36" vol="59" />
          <note key="58" pos="732" pan="0" len="36" vol="59" />
          <note key="61" pos="768" pan="0" len="36" vol="59" />
          <note key="61" pos="804" pan="0" len="24" vol="59" />
          <note key="61" pos="828" pan="0" len="24" vol="59" />
          <note key="61" pos="852" pan="0" len="36" vol="59" />
          <note key="61" pos="888" pan="0" len="36" vol="59" />
          <note key="61" pos="924" pan="0" len="36" vol="59" />
          <note key="61" pos="960" pan="0" len="36" vol="59" />
          <note key="61" pos="996" pan="0" len="24" vol="59" />
          <note key="61" pos="1020" pan="0" len="24" vol="59" />
          <note key="61" pos="1044" pan="0" len="36" vol="59" />
          <note key="61" pos="1080" pan="0" len="36" vol="59" />
          <note key="61" pos="1116" pan="0" len="36" vol="59" />
          <note key="63" pos="1152" pan="0" len="36" vol="59" />
          <note key="63" pos="1188" pan="0" len="24" vol="59" />
          <note key="63" pos="1212" pan="0" len="24" vol="59" />
          <note key="63" pos="1236" pan="0" len="36" vol="59" />
          <note key="63" pos="1272" pan="0" len="36" vol="59" />
          <note key="63" pos="1308" pan="0" len="36" vol="59" />
          <note key="59" pos="1344" pan="0" len="36" vol="59" />
          <note key="59" pos="1380" pan="0" len="24" vol="59" />
          <note key="59" pos="1404" pan="0" len="24" vol="59" />
          <note key="59" pos="1428" pan="0" len="36" vol="59" />
          <note key="58" pos="1464" pan="0" len="36" vol="59" />
          <note key="61" pos="1500" pan="0" len="36" vol="59" />
        </pattern>
        <pattern pos="218892" muted="0" steps="16" name="" type="1">
          <note key="63" pos="0" pan="0" len="36" vol="59" />
          <note key="63" pos="36" pan="0" len="24" vol="59" />
          <note key="63" pos="60" pan="0" len="24" vol="59" />
          <note key="63" pos="84" pan="0" len="36" vol="59" />
          <note key="63" pos="120" pan="0" len="36" vol="59" />
          <note key="63" pos="156" pan="0" len="36" vol="59" />
          <note key="63" pos="192" pan="0" len="36" vol="59" />
          <note key="63" pos="228" pan="0" len="24" vol="59" />
          <note key="63" pos="252" pan="0" len="24" vol="59" />
          <note key="63" pos="276" pan="0" len="36" vol="59" />
          <note key="63" pos="312" pan="0" len="36" vol="59" />
          <note key="63" pos="348" pan="0" len="36" vol="59" />
          <note key="63" pos="384" pan="0" len="36" vol="59" />
          <note key="63" pos="420" pan="0" len="24" vol="59" />
          <note key="63" pos="444" pan="0" len="24" vol="59" />
          <note key="63" pos="468" pan="0" len="36" vol="59" />
          <note key="63" pos="504" pan="0" len="36" vol="59" />
          <note key="63" pos="540" pan="0" len="36" vol="59" />
          <note key="63" pos="576" pan="0" len="36" vol="59" />
          <note key="63" pos="612" pan="0" len="24" vol="59" />
          <note key="63" pos="636" pan="0" len="24" vol="59" />
          <note key="63" pos="660" pan="0" len="36" vol="59" />
          <note key="63" pos="696" pan="0" len="36" vol="59" />
          <note key="63" pos="732" pan="0" len="36" vol="59" />
          <note key="63" pos="768" pan="0" len="36" vol="59" />
          <note key="63" pos="804" pan="0" len="24" vol="56" />
          <note key="63" pos="828" pan="0" len="24" vol="55" />
          <note key="63" pos="852" pan="0" len="36" vol="53" />
          <note key="63" pos="888" pan="0" len="36" vol="50" />
          <note key="63" pos="924" pan="0" len="36" vol="47" />
          <note key="63" pos="960" pan="0" len="36" vol="45" />
          <note key="63" pos="996" pan="0" len="24" vol="42" />
          <note key="63" pos="1020" pan="0" len="24" vol="41" />
          <note key="63" pos="1044" pan="0" len="36" vol="38" />
          <note key="63" pos="1080" pan="0" len="36" vol="36" />
          <note key="63" pos="1116" pan="0" len="36" vol="33" />
          <note key="63" pos="1152" pan="0" len="36" vol="30" />
          <note key="63" pos="1188" pan="0" len="24" vol="27" />
          <note key="63" pos="1212" pan="0" len="24" vol="25" />
          <note key="63" pos="1236" pan="0" len="36" vol="23" />
          <note key="63" pos="1272" pan="0" len="36" vol="20" />
          <note key="63" pos="1308" pan="0" len="36" vol="17" />
          <note key="63" pos="1344" pan="0" len="36" vol="16" />
          <note key="63" pos="1380" pan="0" len="24" vol="12" />
          <note key="63" pos="1404" pan="0" len="24" vol="11" />
          <note key="63" pos="1428" pan="0" len="36" vol="8" />
          <note key="63" pos="1464" pan="0" len="36" vol="6" />
          <note key="63" pos="1500" pan="0" len="36" vol="3" />
        </pattern>
      </track>
      <track solo="0" name="63 (Ch7)" type="0" muted="0">
        <instrumenttrack usemasterpitch="1" pitch="0.0" basenote="57" pan="0" pitchrange="12" vol="30">
          <eldata />
          <instrument name="tripleoscillator" />
        </instrumenttrack>
        <pattern pos="251148" muted="0" steps="16" name="" type="1">
          <note key="61" pos="72" pan="0" len="48" vol="100" />
          <note key="60" pos="144" pan="0" len="24" vol="100" />
          <note key="58" pos="192" pan="0" len="24" vol="100" />
          <note key="56" pos="240" pan="0" len="24" vol="100" />
          <note key="58" pos="288" pan="0" len="48" vol="100" />
          <note key="56" pos="360" pan="0" len="48" vol="100" />
          <note key="58" pos="432" pan="0" len="24" vol="100" />
          <note key="60" pos="480" pan="0" len="24" vol="100" />
          <note key="60" pos="528" pan="0" len="24" vol="100" />
          <note key="58" pos="648" pan="0" len="48" vol="100" />
          <note key="56" pos="720" pan="0" len="24" vol="100" />
          <note key="60" pos="768" pan="0" len="24" vol="100" />
          <note key="61" pos="816" pan="0" len="24" vol="100" />
          <note key="58" pos="864" pan="0" len="312" vol="100" />
          <note key="61" pos="1224" pan="0" len="48" vol="100" />
          <note key="60" pos="1296" pan="0" len="24" vol="100" />
          <note key="58" pos="1344" pan="0" len="24" vol="100" />
          <note key="56" pos="1392" pan="0" len="24" vol="100" />
          <note key="58" pos="1440" pan="0" len="48" vol="100" />
          <note key="56" pos="1512" pan="0" len="48" vol="100" />
          <note key="58" pos="1584" pan="0" len="24" vol="100" />
          <note key="60" pos="1632" pan="0" len="24" vol="100" />
          <note key="60" pos="1680" pan="0" len="24" vol="100" />
          <note key="58" pos="1800" pan="0" len="48" vol="100" />
          <note key="56" pos="1872" pan="0" len="24" vol="100" />
          <note key="60" pos="1920" pan="0" len="24" vol="100" />
          <note key="61" pos="1968" pan="0" len="24" vol="100" />
          <note key="58" pos="2016" pan="0" len="192" vol="100" />
        </pattern>
      </track>
      <track solo="0" name="63 (Ch8)" type="0" muted="0">
        <instrumenttrack usemasterpitch="1" pitch="0.0" basenote="57" pan="0" pitchrange="12" vol="30">
          <eldata />
          <instrument name="tripleoscillator" />
        </instrumenttrack>
        <pattern pos="139788" muted="0" steps="16" name="" type="1">
          <note key="58" pos="0" pan="0" len="24" vol="50" />
          <note key="63" pos="24" pan="0" len="48" vol="50" />
          <note key="63" pos="72" pan="0" len="24" vol="50" />
          <note key="58" pos="96" pan="0" len="24" vol="50" />
          <note key="63" pos="120" pan="0" len="24" vol="50" />
          <note key="61" pos="144" pan="0" len="48" vol="50" />
          <note key="56" pos="192" pan="0" len="24" vol="50" />
          <note key="61" pos="216" pan="0" len="48" vol="50" />
          <note key="61" pos="264" pan="0" len="24" vol="50" />
          <note key="56" pos="288" pan="0" len="24" vol="50" />
          <note key="61" pos="312" pan="0" len="24" vol="50" />
          <note key="56" pos="336" pan="0" len="48" vol="50" />
          <note key="61" pos="384" pan="0" len="24" vol="50" />
          <note key="65" pos="408" pan="0" len="48" vol="50" />
          <note key="65" pos="456" pan="0" len="24" vol="50" />
          <note key="61" pos="480" pan="0" len="24" vol="50" />
          <note key="65" pos="504" pan="0" len="24" vol="50" />
          <note key="61" pos="528" pan="0" len="48" vol="50" />
          <note key="58" pos="576" pan="0" len="24" vol="50" />
          <note key="63" pos="600" pan="0" len="48" vol="50" />
          <note key="63" pos="648" pan="0" len="24" vol="50" />
          <note key="58" pos="672" pan="0" len="24" vol="50" />
          <note key="63" pos="696" pan="0" len="24" vol="50" />
          <note key="61" pos="720" pan="0" len="48" vol="50" />
          <note key="58" pos="768" pan="0" len="24" vol="50" />
          <note key="63" pos="792" pan="0" len="48" vol="50" />
          <note key="63" pos="840" pan="0" len="24" vol="50" />
          <note key="58" pos="864" pan="0" len="24" vol="50" />
          <note key="63" pos="888" pan="0" len="24" vol="50" />
          <note key="61" pos="912" pan="0" len="48" vol="50" />
          <note key="56" pos="960" pan="0" len="24" vol="50" />
          <note key="61" pos="984" pan="0" len="48" vol="50" />
          <note key="61" pos="1032" pan="0" len="24" vol="50" />
          <note key="56" pos="1056" pan="0" len="24" vol="50" />
          <note key="61" pos="1080" pan="0" len="24" vol="50" />
          <note key="56" pos="1104" pan="0" len="48" vol="50" />
          <note key="61" pos="1152" pan="0" len="24" vol="50" />
          <note key="65" pos="1176" pan="0" len="48" vol="50" />
          <note key="65" pos="1224" pan="0" len="24" vol="50" />
          <note key="61" pos="1248" pan="0" len="24" vol="50" />
          <note key="65" pos="1272" pan="0" len="24" vol="50" />
          <note key="61" pos="1296" pan="0" len="48" vol="50" />
          <note key="58" pos="1344" pan="0" len="24" vol="50" />
          <note key="63" pos="1368" pan="0" len="48" vol="50" />
          <note key="63" pos="1416" pan="0" len="24" vol="50" />
          <note key="58" pos="1440" pan="0" len="24" vol="50" />
          <note key="63" pos="1464" pan="0" len="24" vol="50" />
          <note key="61" pos="1488" pan="0" len="48" vol="50" />
        </pattern>
        <pattern pos="133644" muted="0" steps="16" name="" type="1">
          <note key="58" pos="0" pan="0" len="24" vol="50" />
          <note key="63" pos="24" pan="0" len="48" vol="50" />
          <note key="63" pos="72" pan="0" len="24" vol="50" />
          <note key="58" pos="96" pan="0" len="24" vol="50" />
          <note key="63" pos="120" pan="0" len="24" vol="50" />
          <note key="61" pos="144" pan="0" len="48" vol="50" />
          <note key="56" pos="192" pan="0" len="24" vol="50" />
          <note key="61" pos="216" pan="0" len="48" vol="50" />
          <note key="61" pos="264" pan="0" len="24" vol="50" />
          <note key="56" pos="288" pan="0" len="24" vol="50" />
          <note key="61" pos="312" pan="0" len="24" vol="50" />
          <note key="56" pos="336" pan="0" len="48" vol="50" />
          <note key="61" pos="384" pan="0" len="24" vol="50" />
          <note key="65" pos="408" pan="0" len="48" vol="50" />
          <note key="65" pos="456" pan="0" len="24" vol="50" />
          <note key="61" pos="480" pan="0" len="24" vol="50" />
          <note key="65" pos="504" pan="0" len="24" vol="50" />
          <note key="61" pos="528" pan="0" len="48" vol="50" />
          <note key="58" pos="576" pan="0" len="24" vol="50" />
          <note key="63" pos="600" pan="0" len="48" vol="50" />
          <note key="63" pos="648" pan="0" len="24" vol="50" />
          <note key="58" pos="672" pan="0" len="24" vol="50" />
          <note key="63" pos="696" pan="0" len="24" vol="50" />
          <note key="61" pos="720" pan="0" len="48" vol="50" />
          <note key="58" pos="768" pan="0" len="24" vol="50" />
          <note key="63" pos="792" pan="0" len="48" vol="50" />
          <note key="63" pos="840" pan="0" len="24" vol="50" />
          <note key="58" pos="864" pan="0" len="24" vol="50" />
          <note key="63" pos="888" pan="0" len="24" vol="50" />
          <note key="61" pos="912" pan="0" len="48" vol="50" />
          <note key="56" pos="960" pan="0" len="24" vol="50" />
          <note key="61" pos="984" pan="0" len="48" vol="50" />
          <note key="61" pos="1032" pan="0" len="24" vol="50" />
          <note key="56" pos="1056" pan="0" len="24" vol="50" />
          <note key="61" pos="1080" pan="0" len="24" vol="50" />
          <note key="56" pos="1104" pan="0" len="48" vol="50" />
          <note key="61" pos="1152" pan="0" len="24" vol="50" />
          <note key="65" pos="1176" pan="0" len="48" vol="50" />
          <note key="65" pos="1224" pan="0" len="24" vol="50" />
          <note key="61" pos="1248" pan="0" len="24" vol="50" />
          <note key="65" pos="1272" pan="0" len="24" vol="50" />
          <note key="61" pos="1296" pan="0" len="48" vol="50" />
          <note key="58" pos="1344" pan="0" len="24" vol="50" />
          <note key="63" pos="1368" pan="0" len="48" vol="50" />
          <note key="63" pos="1416" pan="0" len="24" vol="50" />
          <note key="58" pos="1440" pan="0" len="24" vol="50" />
          <note key="63" pos="1464" pan="0" len="24" vol="50" />
          <note key="61" pos="1488" pan="0" len="48" vol="50" />
        </pattern>
        <pattern pos="138252" muted="0" steps="16" name="" type="1">
          <note key="58" pos="0" pan="0" len="24" vol="50" />
          <note key="63" pos="24" pan="0" len="48" vol="50" />
          <note key="63" pos="72" pan="0" len="24" vol="50" />
          <note key="58" pos="96" pan="0" len="24" vol="50" />
          <note key="63" pos="120" pan="0" len="24" vol="50" />
          <note key="61" pos="144" pan="0" len="48" vol="50" />
          <note key="56" pos="192" pan="0" len="24" vol="50" />
          <note key="61" pos="216" pan="0" len="48" vol="50" />
          <note key="61" pos="264" pan="0" len="24" vol="50" />
          <note key="56" pos="288" pan="0" len="24" vol="50" />
          <note key="61" pos="312" pan="0" len="24" vol="50" />
          <note key="56" pos="336" pan="0" len="48" vol="50" />
          <note key="61" pos="384" pan="0" len="24" vol="50" />
          <note key="65" pos="408" pan="0" len="48" vol="50" />
          <note key="65" pos="456" pan="0" len="24" vol="50" />
          <note key="61" pos="480" pan="0" len="24" vol="50" />
          <note key="65" pos="504" pan="0" len="24" vol="50" />
          <note key="61" pos="528" pan="0" len="48" vol="50" />
          <note key="58" pos="576" pan="0" len="24" vol="50" />
          <note key="63" pos="600" pan="0" len="48" vol="50" />
          <note key="63" pos="648" pan="0" len="24" vol="50" />
          <note key="58" pos="672" pan="0" len="24" vol="50" />
          <note key="63" pos="696" pan="0" len="24" vol="50" />
          <note key="61" pos="720" pan="0" len="48" vol="50" />
          <note key="58" pos="768" pan="0" len="24" vol="50" />
          <note key="63" pos="792" pan="0" len="48" vol="50" />
          <note key="63" pos="840" pan="0" len="24" vol="50" />
          <note key="58" pos="864" pan="0" len="24" vol="50" />
          <note key="63" pos="888" pan="0" len="24" vol="50" />
          <note key="61" pos="912" pan="0" len="48" vol="50" />
          <note key="56" pos="960" pan="0" len="24" vol="50" />
          <note key="61" pos="984" pan="0" len="48" vol="50" />
          <note key="61" pos="1032" pan="0" len="24" vol="50" />
          <note key="56" pos="1056" pan="0" len="24" vol="50" />
          <note key="61" pos="1080" pan="0" len="24" vol="50" />
          <note key="56" pos="1104" pan="0" len="48" vol="50" />
          <note key="61" pos="1152" pan="0" len="24" vol="50" />
          <note key="65" pos="1176" pan="0" len="48" vol="50" />
          <note key="65" pos="1224" pan="0" len="24" vol="50" />
          <note key="61" pos="1248" pan="0" len="24" vol="50" />
          <note key="65" pos="1272" pan="0" len="24" vol="50" />
          <note key="61" pos="1296" pan="0" len="48" vol="50" />
          <note key="58" pos="1344" pan="0" len="24" vol="50" />
          <note key="63" pos="1368" pan="0" len="48" vol="50" />
          <note key="63" pos="1416" pan="0" len="24" vol="50" />
          <note key="58" pos="1440" pan="0" len="24" vol="50" />
          <note key="63" pos="1464" pan="0" len="24" vol="50" />
          <note key="61" pos="1488" pan="0" len="48" vol="50" />
        </pattern>
      </track>
      <track solo="0" name="63 (Ch9)" type="0" muted="0">
        <instrumenttrack usemasterpitch="1" pitch="0.0" basenote="57" pan="0" pitchrange="12" vol="30">
          <eldata />
          <instrument name="tripleoscillator" />
        </instrumenttrack>
        <pattern pos="29184" muted="0" steps="16" name="" type="1">
          <note key="63" pos="384" pan="0" len="36" vol="100" />
          <note key="51" pos="420" pan="0" len="36" vol="91" />
          <note key="63" pos="456" pan="0" len="24" vol="83" />
          <note key="63" pos="480" pan="0" len="36" vol="77" />
          <note key="51" pos="516" pan="0" len="36" vol="69" />
          <note key="63" pos="552" pan="0" len="24" vol="61" />
          <note key="63" pos="576" pan="0" len="36" vol="55" />
          <note key="51" pos="612" pan="0" len="36" vol="48" />
          <note key="63" pos="648" pan="0" len="24" vol="42" />
          <note key="63" pos="672" pan="0" len="36" vol="38" />
          <note key="51" pos="708" pan="0" len="36" vol="31" />
          <note key="63" pos="744" pan="0" len="24" vol="27" />
          <note key="63" pos="768" pan="0" len="36" vol="22" />
          <note key="51" pos="804" pan="0" len="36" vol="17" />
          <note key="63" pos="840" pan="0" len="24" vol="12" />
          <note key="63" pos="864" pan="0" len="36" vol="9" />
          <note key="51" pos="900" pan="0" len="36" vol="6" />
          <note key="63" pos="936" pan="0" len="600" vol="2" />
        </pattern>
      </track>
      <track solo="0" name="63 (Ch10)" type="0" muted="0">
        <instrumenttrack usemasterpitch="1" pitch="0.0" basenote="57" pan="0" pitchrange="12" vol="30">
          <eldata />
          <instrument name="tripleoscillator" />
        </instrumenttrack>
        <pattern pos="142860" muted="0" steps="16" name="" type="1">
          <note key="63" pos="0" pan="0" len="48" vol="100" />
          <note key="66" pos="48" pan="0" len="24" vol="100" />
          <note key="63" pos="72" pan="0" len="48" vol="100" />
          <note key="66" pos="120" pan="0" len="24" vol="100" />
          <note key="63" pos="144" pan="0" len="24" vol="100" />
          <note key="66" pos="168" pan="0" len="24" vol="100" />
          <note key="65" pos="192" pan="0" len="48" vol="100" />
          <note key="61" pos="240" pan="0" len="24" vol="100" />
          <note key="65" pos="264" pan="0" len="48" vol="100" />
          <note key="61" pos="312" pan="0" len="24" vol="100" />
          <note key="65" pos="336" pan="0" len="24" vol="100" />
          <note key="61" pos="360" pan="0" len="24" vol="100" />
          <note key="63" pos="384" pan="0" len="48" vol="100" />
          <note key="58" pos="432" pan="0" len="24" vol="100" />
          <note key="63" pos="456" pan="0" len="48" vol="100" />
          <note key="58" pos="504" pan="0" len="24" vol="100" />
          <note key="63" pos="528" pan="0" len="12" vol="100" />
          <note key="58" pos="540" pan="0" len="36" vol="100" />
          <note key="65" pos="576" pan="0" len="48" vol="100" />
          <note key="61" pos="624" pan="0" len="24" vol="100" />
          <note key="65" pos="648" pan="0" len="48" vol="100" />
          <note key="61" pos="696" pan="0" len="24" vol="100" />
          <note key="65" pos="720" pan="0" len="24" vol="100" />
          <note key="61" pos="744" pan="0" len="24" vol="100" />
          <note key="63" pos="768" pan="0" len="48" vol="100" />
          <note key="66" pos="816" pan="0" len="24" vol="100" />
          <note key="63" pos="840" pan="0" len="48" vol="100" />
          <note key="66" pos="888" pan="0" len="24" vol="100" />
          <note key="63" pos="912" pan="0" len="24" vol="100" />
          <note key="66" pos="936" pan="0" len="24" vol="100" />
          <note key="65" pos="960" pan="0" len="48" vol="100" />
          <note key="61" pos="1008" pan="0" len="24" vol="100" />
          <note key="65" pos="1032" pan="0" len="48" vol="100" />
          <note key="61" pos="1080" pan="0" len="24" vol="100" />
          <note key="65" pos="1104" pan="0" len="24" vol="100" />
          <note key="61" pos="1128" pan="0" len="24" vol="100" />
          <note key="63" pos="1152" pan="0" len="48" vol="100" />
          <note key="58" pos="1200" pan="0" len="24" vol="100" />
          <note key="63" pos="1224" pan="0" len="48" vol="100" />
          <note key="58" pos="1272" pan="0" len="24" vol="100" />
          <note key="63" pos="1296" pan="0" len="12" vol="100" />
          <note key="58" pos="1308" pan="0" len="36" vol="100" />
          <note key="51" pos="1344" pan="0" len="192" vol="100" />
        </pattern>
        <pattern pos="141324" muted="0" steps="16" name="" type="1">
          <note key="63" pos="0" pan="0" len="48" vol="100" />
          <note key="66" pos="48" pan="0" len="24" vol="100" />
          <note key="63" pos="72" pan="0" len="48" vol="100" />
          <note key="66" pos="120" pan="0" len="24" vol="100" />
          <note key="63" pos="144" pan="0" len="24" vol="100" />
          <note key="66" pos="168" pan="0" len="24" vol="100" />
          <note key="65" pos="192" pan="0" len="48" vol="100" />
          <note key="61" pos="240" pan="0" len="24" vol="100" />
          <note key="65" pos="264" pan="0" len="48" vol="100" />
          <note key="61" pos="312" pan="0" len="24" vol="100" />
          <note key="65" pos="336" pan="0" len="24" vol="100" />
          <note key="61" pos="360" pan="0" len="24" vol="100" />
          <note key="63" pos="384" pan="0" len="48" vol="100" />
          <note key="58" pos="432" pan="0" len="24" vol="100" />
          <note key="63" pos="456" pan="0" len="48" vol="100" />
          <note key="58" pos="504" pan="0" len="24" vol="100" />
          <note key="63" pos="528" pan="0" len="12" vol="100" />
          <note key="58" pos="540" pan="0" len="36" vol="100" />
          <note key="65" pos="576" pan="0" len="48" vol="100" />
          <note key="61" pos="624" pan="0" len="24" vol="100" />
          <note key="65" pos="648" pan="0" len="48" vol="100" />
          <note key="61" pos="696" pan="0" len="24" vol="100" />
          <note key="65" pos="720" pan="0" len="24" vol="100" />
          <note key="61" pos="744" pan="0" len="24" vol="100" />
          <note key="63" pos="768" pan="0" len="48" vol="100" />
          <note key="66" pos="816" pan="0" len="24" vol="100" />
          <note key="63" pos="840" pan="0" len="48" vol="100" />
          <note key="66" pos="888" pan="0" len="24" vol="100" />
          <note key="63" pos="912" pan="0" len="24" vol="100" />
          <note key="66" pos="936" pan="0" len="24" vol="100" />
          <note key="65" pos="960" pan="0" len="48" vol="100" />
          <note key="61" pos="1008" pan="0" len="24" vol="100" />
          <note key="65" pos="1032" pan="0" len="48" vol="100" />
          <note key="61" pos="1080" pan="0" len="24" vol="100" />
          <note key="65" pos="1104" pan="0" len="24" vol="100" />
          <note key="61" pos="1128" pan="0" len="24" vol="100" />
          <note key="63" pos="1152" pan="0" len="48" vol="100" />
          <note key="58" pos="1200" pan="0" len="24" vol="100" />
          <note key="63" pos="1224" pan="0" len="48" vol="100" />
          <note key="58" pos="1272" pan="0" len="24" vol="100" />
          <note key="63" pos="1296" pan="0" len="12" vol="100" />
          <note key="58" pos="1308" pan="0" len="36" vol="100" />
          <note key="65" pos="1344" pan="0" len="48" vol="100" />
          <note key="61" pos="1392" pan="0" len="24" vol="100" />
          <note key="65" pos="1416" pan="0" len="48" vol="100" />
          <note key="61" pos="1464" pan="0" len="24" vol="100" />
          <note key="65" pos="1488" pan="0" len="24" vol="100" />
          <note key="61" pos="1512" pan="0" len="24" vol="100" />
        </pattern>
      </track>
      <track solo="0" name="63 (Ch11)" type="0" muted="0">
        <instrumenttrack usemasterpitch="1" pitch="0.0" basenote="57" pan="0" pitchrange="12" vol="30">
          <eldata />
          <instrument name="tripleoscillator" />
        </instrumenttrack>
        <pattern pos="129036" muted="0" steps="16" name="" type="1">
          <note key="51" pos="12" pan="0" len="24" vol="100" />
          <note key="56" pos="36" pan="0" len="24" vol="100" />
          <note key="51" pos="60" pan="0" len="12" vol="100" />
          <note key="56" pos="72" pan="0" len="36" vol="100" />
          <note key="54" pos="108" pan="0" len="24" vol="100" />
          <note key="56" pos="132" pan="0" len="24" vol="100" />
          <note key="54" pos="156" pan="0" len="12" vol="100" />
          <note key="56" pos="168" pan="0" len="12" vol="100" />
          <note key="54" pos="180" pan="0" len="24" vol="100" />
          <note key="54" pos="204" pan="0" len="24" vol="100" />
          <note key="56" pos="228" pan="0" len="24" vol="100" />
          <note key="61" pos="252" pan="0" len="12" vol="100" />
          <note key="54" pos="264" pan="0" len="36" vol="100" />
          <note key="58" pos="300" pan="0" len="24" vol="100" />
          <note key="61" pos="324" pan="0" len="24" vol="100" />
          <note key="58" pos="348" pan="0" len="12" vol="100" />
          <note key="61" pos="360" pan="0" len="36" vol="100" />
          <note key="51" pos="396" pan="0" len="24" vol="100" />
          <note key="56" pos="420" pan="0" len="24" vol="100" />
          <note key="51" pos="444" pan="0" len="12" vol="100" />
          <note key="56" pos="456" pan="0" len="36" vol="100" />
          <note key="54" pos="492" pan="0" len="24" vol="100" />
          <note key="56" pos="516" pan="0" len="24" vol="100" />
          <note key="54" pos="540" pan="0" len="12" vol="100" />
          <note key="56" pos="552" pan="0" len="12" vol="100" />
          <note key="54" pos="564" pan="0" len="24" vol="100" />
          <note key="54" pos="588" pan="0" len="24" vol="100" />
          <note key="56" pos="612" pan="0" len="24" vol="100" />
          <note key="59" pos="636" pan="0" len="12" vol="100" />
          <note key="54" pos="648" pan="0" len="36" vol="100" />
          <note key="58" pos="684" pan="0" len="24" vol="100" />
          <note key="54" pos="708" pan="0" len="24" vol="100" />
          <note key="58" pos="732" pan="0" len="12" vol="100" />
          <note key="54" pos="744" pan="0" len="36" vol="100" />
          <note key="51" pos="780" pan="0" len="24" vol="100" />
          <note key="56" pos="804" pan="0" len="24" vol="100" />
          <note key="51" pos="828" pan="0" len="12" vol="100" />
          <note key="56" pos="840" pan="0" len="36" vol="100" />
          <note key="54" pos="876" pan="0" len="24" vol="100" />
          <note key="56" pos="900" pan="0" len="24" vol="100" />
          <note key="54" pos="924" pan="0" len="12" vol="100" />
          <note key="56" pos="936" pan="0" len="12" vol="100" />
          <note key="54" pos="948" pan="0" len="24" vol="100" />
          <note key="54" pos="972" pan="0" len="24" vol="100" />
          <note key="56" pos="996" pan="0" len="24" vol="100" />
          <note key="61" pos="1020" pan="0" len="12" vol="100" />
          <note key="54" pos="1032" pan="0" len="36" vol="100" />
          <note key="58" pos="1068" pan="0" len="24" vol="100" />
          <note key="61" pos="1092" pan="0" len="24" vol="100" />
          <note key="58" pos="1116" pan="0" len="12" vol="100" />
          <note key="61" pos="1128" pan="0" len="36" vol="100" />
          <note key="51" pos="1164" pan="0" len="24" vol="100" />
          <note key="56" pos="1188" pan="0" len="24" vol="100" />
          <note key="51" pos="1212" pan="0" len="12" vol="100" />
          <note key="56" pos="1224" pan="0" len="36" vol="100" />
          <note key="54" pos="1260" pan="0" len="24" vol="100" />
          <note key="56" pos="1284" pan="0" len="24" vol="100" />
          <note key="54" pos="1308" pan="0" len="12" vol="100" />
          <note key="56" pos="1320" pan="0" len="12" vol="100" />
          <note key="54" pos="1332" pan="0" len="24" vol="100" />
          <note key="54" pos="1356" pan="0" len="24" vol="100" />
          <note key="56" pos="1380" pan="0" len="24" vol="100" />
          <note key="59" pos="1404" pan="0" len="12" vol="100" />
          <note key="54" pos="1416" pan="0" len="120" vol="100" />
        </pattern>
        <pattern pos="127500" muted="0" steps="16" name="" type="1">
          <note key="51" pos="12" pan="0" len="24" vol="100" />
          <note key="54" pos="36" pan="0" len="24" vol="100" />
          <note key="51" pos="60" pan="0" len="12" vol="100" />
          <note key="54" pos="72" pan="0" len="36" vol="100" />
          <note key="54" pos="108" pan="0" len="24" vol="100" />
          <note key="56" pos="132" pan="0" len="24" vol="100" />
          <note key="54" pos="156" pan="0" len="12" vol="100" />
          <note key="56" pos="168" pan="0" len="36" vol="100" />
          <note key="51" pos="204" pan="0" len="24" vol="100" />
          <note key="56" pos="228" pan="0" len="24" vol="100" />
          <note key="51" pos="252" pan="0" len="12" vol="100" />
          <note key="56" pos="264" pan="0" len="36" vol="100" />
          <note key="54" pos="300" pan="0" len="24" vol="100" />
          <note key="56" pos="324" pan="0" len="24" vol="100" />
          <note key="61" pos="348" pan="0" len="12" vol="100" />
          <note key="56" pos="360" pan="0" len="12" vol="100" />
          <note key="54" pos="372" pan="0" len="24" vol="100" />
          <note key="51" pos="396" pan="0" len="24" vol="100" />
          <note key="54" pos="420" pan="0" len="24" vol="100" />
          <note key="51" pos="444" pan="0" len="12" vol="100" />
          <note key="54" pos="456" pan="0" len="36" vol="100" />
          <note key="54" pos="492" pan="0" len="24" vol="100" />
          <note key="56" pos="516" pan="0" len="24" vol="100" />
          <note key="54" pos="540" pan="0" len="12" vol="100" />
          <note key="56" pos="552" pan="0" len="36" vol="100" />
          <note key="51" pos="588" pan="0" len="24" vol="100" />
          <note key="56" pos="612" pan="0" len="24" vol="100" />
          <note key="51" pos="636" pan="0" len="12" vol="100" />
          <note key="56" pos="648" pan="0" len="36" vol="100" />
          <note key="54" pos="684" pan="0" len="24" vol="100" />
          <note key="56" pos="708" pan="0" len="24" vol="100" />
          <note key="54" pos="732" pan="0" len="12" vol="100" />
          <note key="56" pos="744" pan="0" len="36" vol="100" />
          <note key="51" pos="780" pan="0" len="24" vol="100" />
          <note key="54" pos="804" pan="0" len="24" vol="100" />
          <note key="51" pos="828" pan="0" len="12" vol="100" />
          <note key="54" pos="840" pan="0" len="36" vol="100" />
          <note key="54" pos="876" pan="0" len="24" vol="100" />
          <note key="56" pos="900" pan="0" len="24" vol="100" />
          <note key="54" pos="924" pan="0" len="12" vol="100" />
          <note key="56" pos="936" pan="0" len="36" vol="100" />
          <note key="51" pos="972" pan="0" len="24" vol="100" />
          <note key="56" pos="996" pan="0" len="24" vol="100" />
          <note key="51" pos="1020" pan="0" len="12" vol="100" />
          <note key="56" pos="1032" pan="0" len="36" vol="100" />
          <note key="54" pos="1068" pan="0" len="24" vol="100" />
          <note key="56" pos="1092" pan="0" len="24" vol="100" />
          <note key="54" pos="1116" pan="0" len="12" vol="100" />
          <note key="56" pos="1128" pan="0" len="36" vol="100" />
          <note key="51" pos="1164" pan="0" len="24" vol="100" />
          <note key="54" pos="1188" pan="0" len="24" vol="100" />
          <note key="51" pos="1212" pan="0" len="12" vol="100" />
          <note key="54" pos="1224" pan="0" len="36" vol="100" />
          <note key="54" pos="1260" pan="0" len="24" vol="100" />
          <note key="56" pos="1284" pan="0" len="24" vol="100" />
          <note key="54" pos="1308" pan="0" len="12" vol="100" />
          <note key="56" pos="1320" pan="0" len="36" vol="100" />
          <note key="51" pos="1356" pan="0" len="24" vol="100" />
          <note key="56" pos="1380" pan="0" len="24" vol="100" />
          <note key="51" pos="1404" pan="0" len="12" vol="100" />
          <note key="56" pos="1416" pan="0" len="36" vol="100" />
          <note key="54" pos="1452" pan="0" len="24" vol="100" />
          <note key="56" pos="1476" pan="0" len="24" vol="100" />
          <note key="54" pos="1500" pan="0" len="12" vol="100" />
          <note key="56" pos="1512" pan="0" len="24" vol="100" />
        </pattern>
      </track>
      <track solo="0" name="63 (Ch13)" type="0" muted="0">
        <instrumenttrack usemasterpitch="1" pitch="0.0" basenote="57" pan="0" pitchrange="12" vol="30">
          <eldata />
          <instrument name="tripleoscillator" />
        </instrumenttrack>
        <pattern pos="274140" muted="0" steps="16" name="" type="1">
          <note key="47" pos="576" pan="0" len="60" vol="100" />
          <note key="45" pos="636" pan="0" len="12" vol="100" />
          <note key="47" pos="648" pan="0" len="60" vol="100" />
          <note key="45" pos="708" pan="0" len="12" vol="100" />
          <note key="50" pos="720" pan="0" len="60" vol="100" />
          <note key="49" pos="780" pan="0" len="12" vol="100" />
          <note key="45" pos="792" pan="0" len="60" vol="100" />
          <note key="45" pos="852" pan="0" len="12" vol="100" />
          <note key="52" pos="864" pan="0" len="60" vol="100" />
          <note key="52" pos="924" pan="0" len="12" vol="100" />
          <note key="50" pos="936" pan="0" len="60" vol="100" />
          <note key="48" pos="996" pan="0" len="12" vol="100" />
          <note key="47" pos="1008" pan="0" len="60" vol="100" />
          <note key="50" pos="1068" pan="0" len="12" vol="100" />
          <note key="35" pos="1080" pan="0" len="72" vol="100" />
        </pattern>
      </track>
      <track solo="0" name="64 (Ch1)" type="0" muted="0">
        <instrumenttrack usemasterpitch="1" pitch="0.0" basenote="57" pan="0" pitchrange="12" vol="30">
          <eldata />
          <instrument name="tripleoscillator" />
        </instrumenttrack>
        <pattern pos="268044" muted="0" steps="16" name="" type="1">
          <note key="31" pos="24" pan="0" len="72" vol="100" />
          <note key="30" pos="96" pan="0" len="120" vol="100" />
          <note key="27" pos="216" pan="0" len="120" vol="100" />
          <note key="38" pos="336" pan="0" len="24" vol="100" />
          <note key="31" pos="360" pan="0" len="408" vol="100" />
        </pattern>
        <pattern pos="168204" muted="0" steps="16" name="" type="1">
          <note key="69" pos="0" pan="0" len="48" vol="100" />
          <note key="69" pos="48" pan="0" len="48" vol="100" />
          <note key="69" pos="96" pan="0" len="48" vol="100" />
          <note key="69" pos="144" pan="0" len="48" vol="100" />
          <note key="69" pos="192" pan="0" len="48" vol="100" />
          <note key="69" pos="240" pan="0" len="48" vol="100" />
          <note key="69" pos="288" pan="0" len="48" vol="100" />
          <note key="69" pos="336" pan="0" len="48" vol="100" />
          <note key="69" pos="384" pan="0" len="48" vol="100" />
          <note key="69" pos="432" pan="0" len="48" vol="100" />
          <note key="69" pos="480" pan="0" len="48" vol="100" />
          <note key="69" pos="528" pan="0" len="48" vol="100" />
          <note key="69" pos="576" pan="0" len="48" vol="100" />
          <note key="69" pos="624" pan="0" len="48" vol="100" />
          <note key="69" pos="672" pan="0" len="48" vol="100" />
          <note key="69" pos="720" pan="0" len="48" vol="100" />
          <note key="69" pos="768" pan="0" len="48" vol="100" />
          <note key="69" pos="816" pan="0" len="48" vol="100" />
          <note key="69" pos="864" pan="0" len="48" vol="100" />
          <note key="69" pos="912" pan="0" len="48" vol="100" />
          <note key="69" pos="960" pan="0" len="48" vol="100" />
          <note key="69" pos="1008" pan="0" len="48" vol="100" />
          <note key="69" pos="1056" pan="0" len="48" vol="100" />
          <note key="69" pos="1104" pan="0" len="48" vol="100" />
          <note key="69" pos="1152" pan="0" len="48" vol="100" />
          <note key="69" pos="1200" pan="0" len="48" vol="100" />
          <note key="69" pos="1248" pan="0" len="48" vol="100" />
          <note key="69" pos="1296" pan="0" len="48" vol="100" />
          <note key="69" pos="1344" pan="0" len="48" vol="100" />
          <note key="69" pos="1392" pan="0" len="48" vol="100" />
          <note key="69" pos="1440" pan="0" len="48" vol="100" />
          <note key="69" pos="1488" pan="0" len="48" vol="100" />
        </pattern>
        <pattern pos="182028" muted="0" steps="16" name="" type="1">
          <note key="41" pos="0" pan="0" len="144" vol="100" />
          <note key="36" pos="144" pan="0" len="144" vol="100" />
          <note key="41" pos="288" pan="0" len="144" vol="100" />
          <note key="36" pos="432" pan="0" len="144" vol="100" />
          <note key="41" pos="576" pan="0" len="144" vol="100" />
          <note key="36" pos="720" pan="0" len="144" vol="100" />
          <note key="41" pos="864" pan="0" len="144" vol="100" />
          <note key="36" pos="1008" pan="0" len="144" vol="100" />
        </pattern>
        <pattern pos="183180" muted="0" steps="16" name="" type="1">
          <note key="33" pos="0" pan="0" len="48" vol="100" />
          <note key="33" pos="48" pan="0" len="24" vol="100" />
          <note key="36" pos="72" pan="0" len="24" vol="100" />
          <note key="33" pos="96" pan="0" len="48" vol="100" />
          <note key="31" pos="144" pan="0" len="48" vol="100" />
          <note key="33" pos="192" pan="0" len="24" vol="100" />
          <note key="36" pos="216" pan="0" len="24" vol="100" />
          <note key="33" pos="240" pan="0" len="48" vol="100" />
          <note key="33" pos="288" pan="0" len="48" vol="100" />
          <note key="33" pos="336" pan="0" len="24" vol="100" />
          <note key="36" pos="360" pan="0" len="24" vol="100" />
          <note key="33" pos="384" pan="0" len="48" vol="100" />
          <note key="38" pos="432" pan="0" len="48" vol="100" />
          <note key="38" pos="480" pan="0" len="24" vol="100" />
          <note key="41" pos="504" pan="0" len="24" vol="100" />
          <note key="38" pos="528" pan="0" len="624" vol="100" />
        </pattern>
        <pattern pos="201996" muted="0" steps="16" name="" type="1">
          <note key="50" pos="0" pan="0" len="72" vol="100" />
          <note key="38" pos="72" pan="0" len="72" vol="100" />
          <note key="43" pos="336" pan="0" len="48" vol="100" />
          <note key="45" pos="384" pan="0" len="24" vol="100" />
          <note key="33" pos="456" pan="0" len="72" vol="100" />
          <note key="31" pos="528" pan="0" len="48" vol="100" />
          <note key="43" pos="768" pan="0" len="96" vol="100" />
          <note key="31" pos="864" pan="0" len="24" vol="100" />
          <note key="34" pos="888" pan="0" len="120" vol="100" />
          <note key="38" pos="1152" pan="0" len="192" vol="100" />
          <note key="33" pos="1344" pan="0" len="96" vol="100" />
          <note key="33" pos="1440" pan="0" len="96" vol="100" />
        </pattern>
        <pattern pos="267276" muted="0" steps="16" name="" type="1">
          <note key="31" pos="24" pan="0" len="72" vol="100" />
          <note key="33" pos="96" pan="0" len="120" vol="100" />
          <note key="34" pos="216" pan="0" len="72" vol="100" />
          <note key="36" pos="288" pan="0" len="120" vol="100" />
          <note key="38" pos="408" pan="0" len="24" vol="100" />
          <note key="53" pos="432" pan="0" len="24" vol="100" />
          <note key="31" pos="456" pan="0" len="312" vol="100" />
        </pattern>
      </track>
      <track solo="0" name="64 (Ch2)" type="0" muted="0">
        <instrumenttrack usemasterpitch="1" pitch="0.0" basenote="57" pan="0" pitchrange="12" vol="30">
          <eldata />
          <instrument name="tripleoscillator" />
        </instrumenttrack>
        <pattern pos="268044" muted="0" steps="16" name="" type="1">
          <note key="67" pos="360" pan="0" len="408" vol="100" />
        </pattern>
        <pattern pos="50688" muted="0" steps="16" name="" type="1">
          <note key="62" pos="48" pan="0" len="48" vol="100" />
          <note key="62" pos="144" pan="0" len="24" vol="100" />
          <note key="62" pos="240" pan="0" len="48" vol="100" />
          <note key="62" pos="312" pan="0" len="24" vol="100" />
          <note key="62" pos="432" pan="0" len="48" vol="100" />
          <note key="62" pos="504" pan="0" len="48" vol="100" />
          <note key="62" pos="624" pan="0" len="48" vol="100" />
          <note key="62" pos="696" pan="0" len="24" vol="100" />
          <note key="67" pos="816" pan="0" len="48" vol="100" />
          <note key="67" pos="912" pan="0" len="24" vol="100" />
          <note key="65" pos="1008" pan="0" len="48" vol="100" />
          <note key="65" pos="1080" pan="0" len="24" vol="100" />
          <note key="67" pos="1200" pan="0" len="48" vol="100" />
          <note key="67" pos="1272" pan="0" len="48" vol="100" />
          <note key="65" pos="1392" pan="0" len="48" vol="100" />
          <note key="65" pos="1464" pan="0" len="24" vol="100" />
        </pattern>
        <pattern pos="66816" muted="0" steps="16" name="" type="1">
          <note key="50" pos="0" pan="0" len="72" vol="100" />
          <note key="38" pos="72" pan="0" len="72" vol="100" />
          <note key="50" pos="144" pan="0" len="72" vol="100" />
          <note key="38" pos="216" pan="0" len="72" vol="100" />
          <note key="50" pos="288" pan="0" len="72" vol="100" />
          <note key="38" pos="360" pan="0" len="72" vol="100" />
          <note key="50" pos="432" pan="0" len="48" vol="100" />
          <note key="38" pos="480" pan="0" len="48" vol="100" />
          <note key="33" pos="528" pan="0" len="48" vol="100" />
          <note key="50" pos="576" pan="0" len="72" vol="100" />
          <note key="38" pos="648" pan="0" len="72" vol="100" />
          <note key="50" pos="720" pan="0" len="72" vol="100" />
          <note key="38" pos="792" pan="0" len="72" vol="100" />
          <note key="50" pos="864" pan="0" len="72" vol="100" />
          <note key="38" pos="936" pan="0" len="72" vol="100" />
          <note key="50" pos="1008" pan="0" len="72" vol="100" />
          <note key="38" pos="1080" pan="0" len="36" vol="100" />
          <note key="41" pos="1116" pan="0" len="36" vol="100" />
          <note key="50" pos="1152" pan="0" len="72" vol="100" />
          <note key="38" pos="1224" pan="0" len="72" vol="100" />
          <note key="50" pos="1296" pan="0" len="72" vol="100" />
          <note key="38" pos="1368" pan="0" len="72" vol="100" />
          <note key="50" pos="1440" pan="0" len="72" vol="100" />
          <note key="38" pos="1512" pan="0" len="72" vol="100" />
          <note key="50" pos="1584" pan="0" len="72" vol="100" />
          <note key="38" pos="1656" pan="0" len="72" vol="100" />
          <note key="50" pos="1728" pan="0" len="72" vol="100" />
          <note key="38" pos="1800" pan="0" len="72" vol="100" />
          <note key="50" pos="1872" pan="0" len="72" vol="100" />
          <note key="38" pos="1944" pan="0" len="72" vol="100" />
          <note key="50" pos="2016" pan="0" len="72" vol="100" />
          <note key="38" pos="2088" pan="0" len="72" vol="100" />
          <note key="50" pos="2160" pan="0" len="72" vol="100" />
          <note key="38" pos="2232" pan="0" len="72" vol="100" />
        </pattern>
        <pattern pos="69120" muted="0" steps="16" name="" type="1">
          <note key="50" pos="0" pan="0" len="72" vol="100" />
          <note key="38" pos="72" pan="0" len="72" vol="100" />
          <note key="50" pos="144" pan="0" len="72" vol="100" />
          <note key="38" pos="216" pan="0" len="72" vol="100" />
          <note key="50" pos="288" pan="0" len="72" vol="100" />
          <note key="38" pos="360" pan="0" len="72" vol="100" />
          <note key="50" pos="432" pan="0" len="72" vol="100" />
          <note key="38" pos="504" pan="0" len="36" vol="100" />
          <note key="45" pos="540" pan="0" len="36" vol="100" />
          <note key="50" pos="576" pan="0" len="72" vol="100" />
          <note key="38" pos="648" pan="0" len="72" vol="100" />
          <note key="50" pos="720" pan="0" len="72" vol="100" />
          <note key="38" pos="792" pan="0" len="72" vol="100" />
          <note key="50" pos="864" pan="0" len="72" vol="100" />
          <note key="38" pos="936" pan="0" len="72" vol="100" />
          <note key="50" pos="1008" pan="0" len="72" vol="100" />
          <note key="38" pos="1080" pan="0" len="36" vol="100" />
          <note key="41" pos="1116" pan="0" len="36" vol="100" />
          <note key="50" pos="1152" pan="0" len="72" vol="100" />
          <note key="38" pos="1224" pan="0" len="72" vol="100" />
          <note key="50" pos="1296" pan="0" len="72" vol="100" />
          <note key="38" pos="1368" pan="0" len="72" vol="100" />
          <note key="50" pos="1440" pan="0" len="72" vol="100" />
          <note key="38" pos="1512" pan="0" len="72" vol="100" />
          <note key="52" pos="1584" pan="0" len="36" vol="100" />
          <note key="40" pos="1620" pan="0" len="36" vol="100" />
          <note key="53" pos="1656" pan="0" len="36" vol="100" />
          <note key="41" pos="1692" pan="0" len="36" vol="100" />
          <note key="50" pos="1728" pan="0" len="72" vol="100" />
          <note key="38" pos="1800" pan="0" len="72" vol="100" />
          <note key="50" pos="1872" pan="0" len="72" vol="100" />
          <note key="38" pos="1944" pan="0" len="72" vol="100" />
          <note key="50" pos="2016" pan="0" len="72" vol="100" />
          <note key="38" pos="2088" pan="0" len="72" vol="100" />
          <note key="50" pos="2160" pan="0" len="72" vol="100" />
          <note key="52" pos="2232" pan="0" len="36" vol="100" />
          <note key="53" pos="2268" pan="0" len="36" vol="100" />
        </pattern>
        <pattern pos="71424" muted="0" steps="16" name="" type="1">
          <note key="50" pos="0" pan="0" len="72" vol="100" />
          <note key="38" pos="72" pan="0" len="72" vol="100" />
          <note key="50" pos="144" pan="0" len="72" vol="100" />
          <note key="38" pos="216" pan="0" len="72" vol="100" />
          <note key="50" pos="288" pan="0" len="72" vol="100" />
          <note key="38" pos="360" pan="0" len="72" vol="100" />
          <note key="50" pos="432" pan="0" len="72" vol="100" />
          <note key="38" pos="504" pan="0" len="36" vol="100" />
          <note key="45" pos="540" pan="0" len="36" vol="100" />
          <note key="50" pos="576" pan="0" len="72" vol="100" />
          <note key="38" pos="648" pan="0" len="72" vol="100" />
          <note key="50" pos="720" pan="0" len="72" vol="100" />
          <note key="38" pos="792" pan="0" len="72" vol="100" />
          <note key="50" pos="864" pan="0" len="72" vol="100" />
          <note key="38" pos="936" pan="0" len="72" vol="100" />
          <note key="50" pos="1008" pan="0" len="72" vol="100" />
          <note key="38" pos="1080" pan="0" len="36" vol="100" />
          <note key="41" pos="1116" pan="0" len="36" vol="100" />
          <note key="50" pos="1152" pan="0" len="72" vol="100" />
          <note key="38" pos="1224" pan="0" len="72" vol="100" />
          <note key="50" pos="1296" pan="0" len="72" vol="100" />
          <note key="38" pos="1368" pan="0" len="72" vol="100" />
          <note key="50" pos="1440" pan="0" len="72" vol="100" />
          <note key="38" pos="1512" pan="0" len="72" vol="100" />
          <note key="52" pos="1584" pan="0" len="36" vol="100" />
          <note key="40" pos="1620" pan="0" len="36" vol="100" />
          <note key="53" pos="1656" pan="0" len="36" vol="100" />
          <note key="41" pos="1692" pan="0" len="36" vol="100" />
          <note key="50" pos="1728" pan="0" len="72" vol="100" />
          <note key="38" pos="1800" pan="0" len="72" vol="100" />
          <note key="50" pos="1872" pan="0" len="72" vol="100" />
          <note key="38" pos="1944" pan="0" len="72" vol="100" />
          <note key="50" pos="2016" pan="0" len="72" vol="100" />
          <note key="38" pos="2088" pan="0" len="72" vol="100" />
          <note key="50" pos="2160" pan="0" len="72" vol="100" />
          <note key="52" pos="2232" pan="0" len="36" vol="100" />
          <note key="53" pos="2268" pan="0" len="36" vol="100" />
        </pattern>
        <pattern pos="73728" muted="0" steps="16" name="" type="1">
          <note key="53" pos="0" pan="0" len="72" vol="100" />
          <note key="41" pos="72" pan="0" len="72" vol="100" />
          <note key="53" pos="144" pan="0" len="72" vol="100" />
          <note key="41" pos="216" pan="0" len="72" vol="100" />
          <note key="53" pos="288" pan="0" len="72" vol="100" />
          <note key="41" pos="360" pan="0" len="72" vol="100" />
          <note key="53" pos="432" pan="0" len="72" vol="100" />
          <note key="41" pos="504" pan="0" len="36" vol="100" />
          <note key="48" pos="540" pan="0" len="36" vol="100" />
          <note key="53" pos="576" pan="0" len="72" vol="100" />
          <note key="41" pos="648" pan="0" len="72" vol="100" />
          <note key="53" pos="720" pan="0" len="72" vol="100" />
          <note key="41" pos="792" pan="0" len="72" vol="100" />
          <note key="53" pos="864" pan="0" len="72" vol="100" />
          <note key="41" pos="936" pan="0" len="72" vol="100" />
          <note key="53" pos="1008" pan="0" len="72" vol="100" />
          <note key="43" pos="1080" pan="0" len="36" vol="100" />
          <note key="44" pos="1116" pan="0" len="36" vol="100" />
          <note key="53" pos="1152" pan="0" len="72" vol="100" />
          <note key="41" pos="1224" pan="0" len="72" vol="100" />
          <note key="53" pos="1296" pan="0" len="72" vol="100" />
          <note key="41" pos="1368" pan="0" len="72" vol="100" />
          <note key="53" pos="1440" pan="0" len="72" vol="100" />
          <note key="41" pos="1512" pan="0" len="72" vol="100" />
          <note key="55" pos="1584" pan="0" len="36" vol="100" />
          <note key="43" pos="1620" pan="0" len="36" vol="100" />
          <note key="56" pos="1656" pan="0" len="36" vol="100" />
          <note key="44" pos="1692" pan="0" len="36" vol="100" />
          <note key="53" pos="1728" pan="0" len="72" vol="100" />
          <note key="41" pos="1800" pan="0" len="72" vol="100" />
          <note key="53" pos="1872" pan="0" len="72" vol="100" />
          <note key="41" pos="1944" pan="0" len="72" vol="100" />
          <note key="53" pos="2016" pan="0" len="72" vol="100" />
          <note key="41" pos="2088" pan="0" len="72" vol="100" />
          <note key="53" pos="2160" pan="0" len="72" vol="100" />
          <note key="55" pos="2232" pan="0" len="36" vol="100" />
          <note key="56" pos="2268" pan="0" len="36" vol="100" />
        </pattern>
        <pattern pos="76032" muted="0" steps="16" name="" type="1">
          <note key="50" pos="0" pan="0" len="72" vol="100" />
          <note key="38" pos="72" pan="0" len="72" vol="100" />
          <note key="50" pos="144" pan="0" len="72" vol="100" />
          <note key="38" pos="216" pan="0" len="72" vol="100" />
          <note key="50" pos="288" pan="0" len="72" vol="100" />
          <note key="38" pos="360" pan="0" len="72" vol="100" />
          <note key="50" pos="432" pan="0" len="72" vol="100" />
          <note key="38" pos="504" pan="0" len="36" vol="100" />
          <note key="45" pos="540" pan="0" len="36" vol="100" />
          <note key="50" pos="576" pan="0" len="72" vol="100" />
          <note key="38" pos="648" pan="0" len="72" vol="100" />
          <note key="50" pos="720" pan="0" len="72" vol="100" />
          <note key="38" pos="792" pan="0" len="72" vol="100" />
          <note key="50" pos="864" pan="0" len="72" vol="100" />
          <note key="38" pos="936" pan="0" len="72" vol="100" />
          <note key="50" pos="1008" pan="0" len="72" vol="100" />
          <note key="40" pos="1080" pan="0" len="36" vol="100" />
          <note key="41" pos="1116" pan="0" len="36" vol="100" />
          <note key="50" pos="1152" pan="0" len="72" vol="100" />
          <note key="38" pos="1224" pan="0" len="72" vol="100" />
          <note key="50" pos="1296" pan="0" len="72" vol="100" />
          <note key="38" pos="1368" pan="0" len="72" vol="100" />
          <note key="50" pos="1440" pan="0" len="72" vol="100" />
          <note key="38" pos="1512" pan="0" len="72" vol="100" />
          <note key="52" pos="1584" pan="0" len="36" vol="100" />
          <note key="40" pos="1620" pan="0" len="36" vol="100" />
          <note key="53" pos="1656" pan="0" len="36" vol="100" />
          <note key="41" pos="1692" pan="0" len="36" vol="100" />
          <note key="50" pos="1728" pan="0" len="72" vol="100" />
          <note key="38" pos="1800" pan="0" len="72" vol="100" />
          <note key="50" pos="1872" pan="0" len="72" vol="100" />
          <note key="38" pos="1944" pan="0" len="72" vol="100" />
          <note key="50" pos="2016" pan="0" len="72" vol="100" />
          <note key="38" pos="2088" pan="0" len="72" vol="100" />
          <note key="50" pos="2160" pan="0" len="72" vol="100" />
          <note key="52" pos="2232" pan="0" len="36" vol="100" />
          <note key="53" pos="2268" pan="0" len="36" vol="100" />
        </pattern>
        <pattern pos="78336" muted="0" steps="16" name="" type="1">
          <note key="50" pos="0" pan="0" len="72" vol="100" />
          <note key="38" pos="72" pan="0" len="72" vol="100" />
          <note key="50" pos="144" pan="0" len="72" vol="100" />
          <note key="38" pos="216" pan="0" len="72" vol="100" />
          <note key="50" pos="288" pan="0" len="72" vol="100" />
          <note key="38" pos="360" pan="0" len="72" vol="100" />
          <note key="50" pos="432" pan="0" len="72" vol="100" />
          <note key="38" pos="504" pan="0" len="36" vol="100" />
          <note key="45" pos="540" pan="0" len="36" vol="100" />
          <note key="50" pos="576" pan="0" len="72" vol="100" />
          <note key="38" pos="648" pan="0" len="72" vol="100" />
          <note key="50" pos="720" pan="0" len="72" vol="100" />
          <note key="38" pos="792" pan="0" len="72" vol="100" />
          <note key="50" pos="864" pan="0" len="72" vol="100" />
          <note key="38" pos="936" pan="0" len="72" vol="100" />
          <note key="50" pos="1008" pan="0" len="72" vol="100" />
          <note key="38" pos="1080" pan="0" len="36" vol="100" />
          <note key="41" pos="1116" pan="0" len="36" vol="100" />
          <note key="50" pos="1152" pan="0" len="72" vol="100" />
          <note key="38" pos="1224" pan="0" len="72" vol="100" />
          <note key="50" pos="1296" pan="0" len="72" vol="100" />
          <note key="38" pos="1368" pan="0" len="72" vol="100" />
          <note key="50" pos="1440" pan="0" len="72" vol="100" />
          <note key="38" pos="1512" pan="0" len="72" vol="100" />
          <note key="52" pos="1584" pan="0" len="36" vol="100" />
          <note key="40" pos="1620" pan="0" len="36" vol="100" />
          <note key="53" pos="1656" pan="0" len="36" vol="100" />
          <note key="41" pos="1692" pan="0" len="36" vol="100" />
          <note key="50" pos="1728" pan="0" len="72" vol="100" />
          <note key="38" pos="1800" pan="0" len="72" vol="100" />
          <note key="50" pos="1872" pan="0" len="72" vol="100" />
          <note key="38" pos="1944" pan="0" len="72" vol="100" />
          <note key="50" pos="2016" pan="0" len="72" vol="100" />
          <note key="38" pos="2088" pan="0" len="72" vol="100" />
          <note key="50" pos="2160" pan="0" len="72" vol="100" />
          <note key="52" pos="2232" pan="0" len="36" vol="100" />
          <note key="53" pos="2268" pan="0" len="36" vol="100" />
        </pattern>
        <pattern pos="80640" muted="0" steps="16" name="" type="1">
          <note key="50" pos="0" pan="0" len="72" vol="100" />
          <note key="38" pos="72" pan="0" len="72" vol="100" />
          <note key="50" pos="144" pan="0" len="72" vol="100" />
          <note key="38" pos="216" pan="0" len="72" vol="100" />
          <note key="50" pos="288" pan="0" len="72" vol="100" />
          <note key="38" pos="360" pan="0" len="72" vol="100" />
          <note key="50" pos="432" pan="0" len="72" vol="100" />
          <note key="38" pos="504" pan="0" len="36" vol="100" />
          <note key="45" pos="540" pan="0" len="36" vol="100" />
          <note key="50" pos="576" pan="0" len="72" vol="100" />
          <note key="38" pos="648" pan="0" len="72" vol="100" />
          <note key="50" pos="720" pan="0" len="72" vol="100" />
          <note key="38" pos="792" pan="0" len="72" vol="100" />
          <note key="50" pos="864" pan="0" len="72" vol="100" />
          <note key="38" pos="936" pan="0" len="72" vol="100" />
          <note key="50" pos="1008" pan="0" len="72" vol="100" />
          <note key="38" pos="1080" pan="0" len="36" vol="100" />
          <note key="41" pos="1116" pan="0" len="36" vol="100" />
          <note key="50" pos="1152" pan="0" len="72" vol="100" />
          <note key="38" pos="1224" pan="0" len="72" vol="100" />
          <note key="50" pos="1296" pan="0" len="72" vol="100" />
          <note key="38" pos="1368" pan="0" len="72" vol="100" />
          <note key="50" pos="1440" pan="0" len="72" vol="100" />
          <note key="38" pos="1512" pan="0" len="72" vol="100" />
          <note key="52" pos="1584" pan="0" len="36" vol="100" />
          <note key="40" pos="1620" pan="0" len="36" vol="100" />
          <note key="53" pos="1656" pan="0" len="36" vol="100" />
          <note key="41" pos="1692" pan="0" len="36" vol="100" />
          <note key="50" pos="1728" pan="0" len="72" vol="100" />
          <note key="38" pos="1800" pan="0" len="72" vol="100" />
          <note key="50" pos="1872" pan="0" len="72" vol="100" />
          <note key="38" pos="1944" pan="0" len="72" vol="100" />
          <note key="50" pos="2016" pan="0" len="72" vol="100" />
          <note key="38" pos="2088" pan="0" len="72" vol="100" />
          <note key="50" pos="2160" pan="0" len="72" vol="100" />
          <note key="52" pos="2232" pan="0" len="36" vol="100" />
          <note key="53" pos="2268" pan="0" len="36" vol="100" />
        </pattern>
        <pattern pos="82944" muted="0" steps="16" name="" type="1">
          <note key="50" pos="0" pan="0" len="72" vol="100" />
          <note key="38" pos="72" pan="0" len="72" vol="100" />
          <note key="50" pos="144" pan="0" len="72" vol="100" />
          <note key="38" pos="216" pan="0" len="72" vol="100" />
          <note key="50" pos="288" pan="0" len="72" vol="100" />
          <note key="38" pos="360" pan="0" len="72" vol="100" />
          <note key="50" pos="432" pan="0" len="72" vol="100" />
          <note key="38" pos="504" pan="0" len="36" vol="100" />
          <note key="45" pos="540" pan="0" len="36" vol="100" />
          <note key="50" pos="576" pan="0" len="72" vol="100" />
          <note key="38" pos="648" pan="0" len="72" vol="100" />
          <note key="50" pos="720" pan="0" len="72" vol="100" />
          <note key="38" pos="792" pan="0" len="72" vol="100" />
          <note key="50" pos="864" pan="0" len="72" vol="100" />
          <note key="38" pos="936" pan="0" len="72" vol="100" />
          <note key="50" pos="1008" pan="0" len="72" vol="100" />
          <note key="38" pos="1080" pan="0" len="36" vol="100" />
          <note key="41" pos="1116" pan="0" len="36" vol="100" />
          <note key="50" pos="1152" pan="0" len="72" vol="100" />
          <note key="38" pos="1224" pan="0" len="72" vol="100" />
          <note key="50" pos="1296" pan="0" len="72" vol="100" />
          <note key="38" pos="1368" pan="0" len="72" vol="100" />
          <note key="50" pos="1440" pan="0" len="72" vol="100" />
          <note key="38" pos="1512" pan="0" len="72" vol="100" />
          <note key="52" pos="1584" pan="0" len="36" vol="100" />
          <note key="40" pos="1620" pan="0" len="36" vol="100" />
          <note key="53" pos="1656" pan="0" len="36" vol="100" />
          <note key="41" pos="1692" pan="0" len="36" vol="100" />
          <note key="50" pos="1728" pan="0" len="72" vol="100" />
          <note key="38" pos="1800" pan="0" len="72" vol="100" />
          <note key="50" pos="1872" pan="0" len="72" vol="100" />
          <note key="38" pos="1944" pan="0" len="72" vol="100" />
          <note key="50" pos="2016" pan="0" len="72" vol="100" />
          <note key="38" pos="2088" pan="0" len="72" vol="100" />
          <note key="50" pos="2160" pan="0" len="72" vol="100" />
          <note key="52" pos="2232" pan="0" len="36" vol="100" />
          <note key="53" pos="2268" pan="0" len="36" vol="100" />
        </pattern>
        <pattern pos="85248" muted="0" steps="16" name="" type="1">
          <note key="53" pos="0" pan="0" len="72" vol="100" />
          <note key="41" pos="72" pan="0" len="72" vol="100" />
          <note key="53" pos="144" pan="0" len="72" vol="100" />
          <note key="41" pos="216" pan="0" len="72" vol="100" />
          <note key="53" pos="288" pan="0" len="72" vol="100" />
          <note key="41" pos="360" pan="0" len="72" vol="100" />
          <note key="53" pos="432" pan="0" len="72" vol="100" />
          <note key="41" pos="504" pan="0" len="36" vol="100" />
          <note key="48" pos="540" pan="0" len="36" vol="100" />
          <note key="53" pos="576" pan="0" len="72" vol="100" />
          <note key="41" pos="648" pan="0" len="72" vol="100" />
          <note key="53" pos="720" pan="0" len="72" vol="100" />
          <note key="41" pos="792" pan="0" len="72" vol="100" />
          <note key="53" pos="864" pan="0" len="72" vol="100" />
          <note key="41" pos="936" pan="0" len="72" vol="100" />
          <note key="53" pos="1008" pan="0" len="72" vol="100" />
          <note key="43" pos="1080" pan="0" len="36" vol="100" />
          <note key="44" pos="1116" pan="0" len="36" vol="100" />
          <note key="53" pos="1152" pan="0" len="72" vol="100" />
          <note key="41" pos="1224" pan="0" len="72" vol="100" />
          <note key="53" pos="1296" pan="0" len="72" vol="100" />
          <note key="41" pos="1368" pan="0" len="72" vol="100" />
          <note key="53" pos="1440" pan="0" len="72" vol="100" />
          <note key="41" pos="1512" pan="0" len="72" vol="100" />
          <note key="55" pos="1584" pan="0" len="36" vol="100" />
          <note key="43" pos="1620" pan="0" len="36" vol="100" />
          <note key="56" pos="1656" pan="0" len="36" vol="100" />
          <note key="44" pos="1692" pan="0" len="36" vol="100" />
          <note key="53" pos="1728" pan="0" len="72" vol="100" />
          <note key="41" pos="1800" pan="0" len="72" vol="100" />
          <note key="53" pos="1872" pan="0" len="72" vol="100" />
          <note key="41" pos="1944" pan="0" len="72" vol="100" />
          <note key="53" pos="2016" pan="0" len="72" vol="100" />
          <note key="41" pos="2088" pan="0" len="72" vol="100" />
          <note key="53" pos="2160" pan="0" len="72" vol="100" />
          <note key="55" pos="2232" pan="0" len="36" vol="100" />
          <note key="56" pos="2268" pan="0" len="36" vol="100" />
        </pattern>
        <pattern pos="87552" muted="0" steps="16" name="" type="1">
          <note key="50" pos="0" pan="0" len="72" vol="100" />
          <note key="38" pos="72" pan="0" len="72" vol="100" />
          <note key="50" pos="144" pan="0" len="72" vol="100" />
          <note key="38" pos="216" pan="0" len="72" vol="100" />
          <note key="50" pos="288" pan="0" len="72" vol="100" />
          <note key="38" pos="360" pan="0" len="72" vol="100" />
          <note key="50" pos="432" pan="0" len="72" vol="100" />
          <note key="38" pos="504" pan="0" len="36" vol="100" />
          <note key="45" pos="540" pan="0" len="36" vol="100" />
          <note key="50" pos="576" pan="0" len="72" vol="100" />
          <note key="38" pos="648" pan="0" len="72" vol="100" />
          <note key="50" pos="720" pan="0" len="72" vol="100" />
          <note key="38" pos="792" pan="0" len="72" vol="100" />
          <note key="50" pos="864" pan="0" len="72" vol="100" />
          <note key="38" pos="936" pan="0" len="72" vol="100" />
          <note key="50" pos="1008" pan="0" len="72" vol="100" />
          <note key="40" pos="1080" pan="0" len="36" vol="100" />
          <note key="41" pos="1116" pan="0" len="36" vol="100" />
          <note key="50" pos="1152" pan="0" len="72" vol="100" />
          <note key="38" pos="1224" pan="0" len="72" vol="100" />
          <note key="50" pos="1296" pan="0" len="72" vol="100" />
          <note key="38" pos="1368" pan="0" len="72" vol="100" />
          <note key="50" pos="1440" pan="0" len="72" vol="100" />
          <note key="38" pos="1512" pan="0" len="72" vol="100" />
          <note key="52" pos="1584" pan="0" len="36" vol="100" />
          <note key="40" pos="1620" pan="0" len="36" vol="100" />
          <note key="53" pos="1656" pan="0" len="36" vol="100" />
          <note key="41" pos="1692" pan="0" len="36" vol="100" />
          <note key="50" pos="1728" pan="0" len="72" vol="100" />
          <note key="38" pos="1800" pan="0" len="72" vol="100" />
          <note key="50" pos="1872" pan="0" len="72" vol="100" />
          <note key="38" pos="1944" pan="0" len="72" vol="100" />
          <note key="50" pos="2016" pan="0" len="72" vol="100" />
          <note key="38" pos="2088" pan="0" len="72" vol="100" />
          <note key="50" pos="2160" pan="0" len="72" vol="100" />
          <note key="52" pos="2232" pan="0" len="36" vol="100" />
          <note key="53" pos="2268" pan="0" len="36" vol="100" />
        </pattern>
        <pattern pos="89856" muted="0" steps="16" name="" type="1">
          <note key="50" pos="0" pan="0" len="72" vol="100" />
          <note key="38" pos="72" pan="0" len="72" vol="100" />
          <note key="50" pos="144" pan="0" len="72" vol="100" />
          <note key="38" pos="216" pan="0" len="72" vol="100" />
          <note key="50" pos="288" pan="0" len="72" vol="100" />
          <note key="38" pos="360" pan="0" len="72" vol="100" />
          <note key="50" pos="432" pan="0" len="72" vol="100" />
          <note key="38" pos="504" pan="0" len="36" vol="100" />
          <note key="45" pos="540" pan="0" len="36" vol="100" />
          <note key="50" pos="576" pan="0" len="72" vol="100" />
          <note key="38" pos="648" pan="0" len="72" vol="100" />
          <note key="50" pos="720" pan="0" len="72" vol="100" />
          <note key="38" pos="792" pan="0" len="72" vol="100" />
          <note key="50" pos="864" pan="0" len="72" vol="100" />
          <note key="38" pos="936" pan="0" len="72" vol="100" />
          <note key="50" pos="1008" pan="0" len="72" vol="100" />
          <note key="38" pos="1080" pan="0" len="36" vol="100" />
          <note key="41" pos="1116" pan="0" len="36" vol="100" />
          <note key="50" pos="1152" pan="0" len="72" vol="100" />
          <note key="38" pos="1224" pan="0" len="72" vol="100" />
          <note key="50" pos="1296" pan="0" len="72" vol="100" />
          <note key="38" pos="1368" pan="0" len="72" vol="100" />
          <note key="50" pos="1440" pan="0" len="72" vol="100" />
          <note key="38" pos="1512" pan="0" len="72" vol="100" />
          <note key="52" pos="1584" pan="0" len="36" vol="100" />
          <note key="40" pos="1620" pan="0" len="36" vol="100" />
          <note key="53" pos="1656" pan="0" len="36" vol="100" />
          <note key="41" pos="1692" pan="0" len="36" vol="100" />
          <note key="50" pos="1728" pan="0" len="72" vol="100" />
          <note key="38" pos="1800" pan="0" len="72" vol="100" />
          <note key="50" pos="1872" pan="0" len="72" vol="100" />
          <note key="38" pos="1944" pan="0" len="72" vol="100" />
          <note key="50" pos="2016" pan="0" len="72" vol="100" />
          <note key="38" pos="2088" pan="0" len="72" vol="100" />
          <note key="50" pos="2160" pan="0" len="72" vol="100" />
          <note key="52" pos="2232" pan="0" len="36" vol="100" />
          <note key="53" pos="2268" pan="0" len="36" vol="100" />
        </pattern>
        <pattern pos="113664" muted="0" steps="16" name="" type="1">
          <note key="38" pos="0" pan="0" len="12" vol="100" />
          <note key="57" pos="12" pan="0" len="12" vol="100" />
          <note key="57" pos="24" pan="0" len="48" vol="100" />
          <note key="34" pos="72" pan="0" len="12" vol="100" />
          <note key="41" pos="84" pan="0" len="12" vol="100" />
          <note key="58" pos="96" pan="0" len="36" vol="100" />
          <note key="60" pos="132" pan="0" len="12" vol="100" />
          <note key="36" pos="144" pan="0" len="12" vol="100" />
          <note key="40" pos="156" pan="0" len="12" vol="100" />
          <note key="55" pos="168" pan="0" len="48" vol="100" />
          <note key="31" pos="216" pan="0" len="12" vol="100" />
          <note key="46" pos="228" pan="0" len="12" vol="100" />
          <note key="55" pos="240" pan="0" len="24" vol="100" />
          <note key="64" pos="264" pan="0" len="24" vol="100" />
          <note key="38" pos="288" pan="0" len="12" vol="100" />
          <note key="57" pos="300" pan="0" len="12" vol="100" />
          <note key="57" pos="312" pan="0" len="48" vol="100" />
          <note key="34" pos="360" pan="0" len="12" vol="100" />
          <note key="41" pos="372" pan="0" len="12" vol="100" />
          <note key="58" pos="384" pan="0" len="36" vol="100" />
          <note key="60" pos="420" pan="0" len="12" vol="100" />
          <note key="36" pos="432" pan="0" len="12" vol="100" />
          <note key="40" pos="444" pan="0" len="12" vol="100" />
          <note key="55" pos="456" pan="0" len="24" vol="100" />
          <note key="65" pos="480" pan="0" len="24" vol="100" />
          <note key="31" pos="504" pan="0" len="12" vol="100" />
          <note key="46" pos="516" pan="0" len="12" vol="100" />
          <note key="55" pos="528" pan="0" len="36" vol="100" />
          <note key="65" pos="564" pan="0" len="12" vol="100" />
          <note key="38" pos="576" pan="0" len="12" vol="100" />
          <note key="57" pos="588" pan="0" len="12" vol="100" />
          <note key="57" pos="600" pan="0" len="48" vol="100" />
          <note key="34" pos="648" pan="0" len="12" vol="100" />
          <note key="41" pos="660" pan="0" len="12" vol="100" />
          <note key="58" pos="672" pan="0" len="36" vol="100" />
          <note key="60" pos="708" pan="0" len="12" vol="100" />
          <note key="36" pos="720" pan="0" len="12" vol="100" />
          <note key="40" pos="732" pan="0" len="12" vol="100" />
          <note key="55" pos="744" pan="0" len="48" vol="100" />
          <note key="31" pos="792" pan="0" len="12" vol="100" />
          <note key="46" pos="804" pan="0" len="12" vol="100" />
          <note key="55" pos="816" pan="0" len="36" vol="100" />
          <note key="65" pos="852" pan="0" len="12" vol="100" />
          <note key="38" pos="864" pan="0" len="12" vol="100" />
          <note key="57" pos="876" pan="0" len="12" vol="100" />
          <note key="57" pos="888" pan="0" len="48" vol="100" />
          <note key="34" pos="936" pan="0" len="12" vol="100" />
          <note key="41" pos="948" pan="0" len="12" vol="100" />
          <note key="58" pos="960" pan="0" len="36" vol="100" />
          <note key="60" pos="996" pan="0" len="12" vol="100" />
          <note key="36" pos="1008" pan="0" len="12" vol="100" />
          <note key="40" pos="1020" pan="0" len="12" vol="100" />
          <note key="55" pos="1032" pan="0" len="24" vol="100" />
          <note key="65" pos="1056" pan="0" len="24" vol="100" />
          <note key="31" pos="1080" pan="0" len="12" vol="100" />
          <note key="46" pos="1092" pan="0" len="12" vol="100" />
          <note key="55" pos="1104" pan="0" len="36" vol="100" />
          <note key="60" pos="1140" pan="0" len="12" vol="100" />
          <note key="38" pos="1152" pan="0" len="12" vol="100" />
          <note key="57" pos="1164" pan="0" len="12" vol="100" />
          <note key="57" pos="1176" pan="0" len="48" vol="100" />
          <note key="34" pos="1224" pan="0" len="12" vol="100" />
          <note key="41" pos="1236" pan="0" len="12" vol="100" />
          <note key="58" pos="1248" pan="0" len="36" vol="100" />
          <note key="60" pos="1284" pan="0" len="12" vol="100" />
          <note key="36" pos="1296" pan="0" len="12" vol="100" />
          <note key="40" pos="1308" pan="0" len="12" vol="100" />
          <note key="55" pos="1320" pan="0" len="48" vol="100" />
          <note key="31" pos="1368" pan="0" len="12" vol="100" />
          <note key="46" pos="1380" pan="0" len="12" vol="100" />
          <note key="55" pos="1392" pan="0" len="36" vol="100" />
          <note key="60" pos="1428" pan="0" len="12" vol="100" />
          <note key="38" pos="1440" pan="0" len="12" vol="100" />
          <note key="57" pos="1452" pan="0" len="12" vol="100" />
          <note key="57" pos="1464" pan="0" len="48" vol="100" />
          <note key="34" pos="1512" pan="0" len="12" vol="100" />
          <note key="41" pos="1524" pan="0" len="12" vol="100" />
          <note key="58" pos="1536" pan="0" len="36" vol="100" />
          <note key="60" pos="1572" pan="0" len="12" vol="100" />
          <note key="36" pos="1584" pan="0" len="12" vol="100" />
          <note key="40" pos="1596" pan="0" len="12" vol="100" />
          <note key="55" pos="1608" pan="0" len="48" vol="100" />
          <note key="31" pos="1656" pan="0" len="12" vol="100" />
          <note key="46" pos="1668" pan="0" len="12" vol="100" />
          <note key="55" pos="1680" pan="0" len="36" vol="100" />
          <note key="60" pos="1716" pan="0" len="12" vol="100" />
          <note key="38" pos="1728" pan="0" len="12" vol="100" />
          <note key="57" pos="1740" pan="0" len="12" vol="100" />
          <note key="57" pos="1752" pan="0" len="48" vol="100" />
          <note key="34" pos="1800" pan="0" len="12" vol="100" />
          <note key="41" pos="1812" pan="0" len="12" vol="100" />
          <note key="58" pos="1824" pan="0" len="36" vol="100" />
          <note key="60" pos="1860" pan="0" len="12" vol="100" />
          <note key="36" pos="1872" pan="0" len="12" vol="100" />
          <note key="40" pos="1884" pan="0" len="12" vol="100" />
          <note key="55" pos="1896" pan="0" len="48" vol="100" />
          <note key="31" pos="1944" pan="0" len="12" vol="100" />
          <note key="46" pos="1956" pan="0" len="12" vol="100" />
          <note key="55" pos="1968" pan="0" len="36" vol="100" />
          <note key="60" pos="2004" pan="0" len="12" vol="100" />
          <note key="38" pos="2016" pan="0" len="12" vol="100" />
          <note key="57" pos="2028" pan="0" len="12" vol="100" />
          <note key="57" pos="2040" pan="0" len="48" vol="100" />
          <note key="34" pos="2088" pan="0" len="12" vol="100" />
          <note key="41" pos="2100" pan="0" len="12" vol="100" />
          <note key="58" pos="2112" pan="0" len="36" vol="100" />
          <note key="60" pos="2148" pan="0" len="12" vol="100" />
          <note key="36" pos="2160" pan="0" len="12" vol="100" />
          <note key="40" pos="2172" pan="0" len="12" vol="100" />
          <note key="55" pos="2184" pan="0" len="48" vol="100" />
          <note key="31" pos="2232" pan="0" len="12" vol="100" />
          <note key="46" pos="2244" pan="0" len="12" vol="100" />
          <note key="55" pos="2256" pan="0" len="36" vol="100" />
          <note key="60" pos="2292" pan="0" len="12" vol="100" />
        </pattern>
        <pattern pos="118272" muted="0" steps="16" name="" type="1">
          <note key="38" pos="0" pan="0" len="12" vol="100" />
          <note key="57" pos="12" pan="0" len="12" vol="100" />
          <note key="57" pos="24" pan="0" len="48" vol="100" />
          <note key="34" pos="72" pan="0" len="12" vol="100" />
          <note key="41" pos="84" pan="0" len="12" vol="100" />
          <note key="58" pos="96" pan="0" len="36" vol="100" />
          <note key="60" pos="132" pan="0" len="12" vol="100" />
          <note key="36" pos="144" pan="0" len="12" vol="100" />
          <note key="40" pos="156" pan="0" len="12" vol="100" />
          <note key="55" pos="168" pan="0" len="48" vol="100" />
          <note key="31" pos="216" pan="0" len="12" vol="100" />
          <note key="46" pos="228" pan="0" len="12" vol="100" />
          <note key="55" pos="240" pan="0" len="36" vol="100" />
          <note key="60" pos="276" pan="0" len="12" vol="100" />
          <note key="38" pos="288" pan="0" len="12" vol="100" />
          <note key="57" pos="300" pan="0" len="12" vol="100" />
          <note key="57" pos="312" pan="0" len="48" vol="100" />
          <note key="34" pos="360" pan="0" len="12" vol="100" />
          <note key="41" pos="372" pan="0" len="12" vol="100" />
          <note key="58" pos="384" pan="0" len="36" vol="100" />
          <note key="60" pos="420" pan="0" len="12" vol="100" />
          <note key="36" pos="432" pan="0" len="12" vol="100" />
          <note key="40" pos="444" pan="0" len="12" vol="100" />
          <note key="55" pos="456" pan="0" len="48" vol="100" />
          <note key="31" pos="504" pan="0" len="12" vol="100" />
          <note key="46" pos="516" pan="0" len="12" vol="100" />
          <note key="55" pos="528" pan="0" len="36" vol="100" />
          <note key="60" pos="564" pan="0" len="12" vol="100" />
          <note key="38" pos="576" pan="0" len="12" vol="100" />
          <note key="57" pos="588" pan="0" len="12" vol="100" />
          <note key="57" pos="600" pan="0" len="48" vol="100" />
          <note key="34" pos="648" pan="0" len="12" vol="100" />
          <note key="41" pos="660" pan="0" len="12" vol="100" />
          <note key="58" pos="672" pan="0" len="36" vol="100" />
          <note key="60" pos="708" pan="0" len="12" vol="100" />
          <note key="36" pos="720" pan="0" len="12" vol="100" />
          <note key="40" pos="732" pan="0" len="12" vol="100" />
          <note key="55" pos="744" pan="0" len="48" vol="100" />
          <note key="31" pos="792" pan="0" len="12" vol="100" />
          <note key="46" pos="804" pan="0" len="12" vol="100" />
          <note key="55" pos="816" pan="0" len="36" vol="100" />
          <note key="60" pos="852" pan="0" len="12" vol="100" />
          <note key="38" pos="864" pan="0" len="12" vol="100" />
          <note key="57" pos="876" pan="0" len="12" vol="100" />
          <note key="57" pos="888" pan="0" len="48" vol="100" />
          <note key="34" pos="936" pan="0" len="12" vol="100" />
          <note key="41" pos="948" pan="0" len="12" vol="100" />
          <note key="58" pos="960" pan="0" len="36" vol="100" />
          <note key="60" pos="996" pan="0" len="12" vol="100" />
          <note key="36" pos="1008" pan="0" len="12" vol="100" />
          <note key="40" pos="1020" pan="0" len="12" vol="100" />
          <note key="55" pos="1032" pan="0" len="48" vol="100" />
          <note key="31" pos="1080" pan="0" len="12" vol="100" />
          <note key="46" pos="1092" pan="0" len="12" vol="100" />
          <note key="55" pos="1104" pan="0" len="36" vol="100" />
          <note key="60" pos="1140" pan="0" len="12" vol="100" />
          <note key="38" pos="1152" pan="0" len="12" vol="100" />
          <note key="57" pos="1164" pan="0" len="12" vol="100" />
          <note key="57" pos="1176" pan="0" len="48" vol="100" />
          <note key="34" pos="1224" pan="0" len="12" vol="100" />
          <note key="41" pos="1236" pan="0" len="12" vol="100" />
          <note key="58" pos="1248" pan="0" len="36" vol="100" />
          <note key="60" pos="1284" pan="0" len="12" vol="100" />
          <note key="36" pos="1296" pan="0" len="12" vol="100" />
          <note key="40" pos="1308" pan="0" len="12" vol="100" />
          <note key="55" pos="1320" pan="0" len="48" vol="100" />
          <note key="31" pos="1368" pan="0" len="12" vol="100" />
          <note key="46" pos="1380" pan="0" len="12" vol="100" />
          <note key="55" pos="1392" pan="0" len="36" vol="100" />
          <note key="60" pos="1428" pan="0" len="12" vol="100" />
          <note key="38" pos="1440" pan="0" len="12" vol="100" />
          <note key="57" pos="1452" pan="0" len="12" vol="100" />
          <note key="57" pos="1464" pan="0" len="48" vol="100" />
          <note key="34" pos="1512" pan="0" len="12" vol="100" />
          <note key="41" pos="1524" pan="0" len="12" vol="100" />
          <note key="58" pos="1536" pan="0" len="36" vol="100" />
          <note key="60" pos="1572" pan="0" len="12" vol="100" />
          <note key="36" pos="1584" pan="0" len="12" vol="100" />
          <note key="40" pos="1596" pan="0" len="12" vol="100" />
          <note key="55" pos="1608" pan="0" len="48" vol="100" />
          <note key="31" pos="1656" pan="0" len="12" vol="100" />
          <note key="46" pos="1668" pan="0" len="12" vol="100" />
          <note key="55" pos="1680" pan="0" len="36" vol="100" />
          <note key="60" pos="1716" pan="0" len="12" vol="100" />
          <note key="38" pos="1728" pan="0" len="12" vol="100" />
          <note key="57" pos="1740" pan="0" len="12" vol="100" />
          <note key="57" pos="1752" pan="0" len="48" vol="100" />
          <note key="34" pos="1800" pan="0" len="12" vol="100" />
          <note key="41" pos="1812" pan="0" len="12" vol="100" />
          <note key="58" pos="1824" pan="0" len="36" vol="100" />
          <note key="60" pos="1860" pan="0" len="12" vol="100" />
          <note key="36" pos="1872" pan="0" len="12" vol="100" />
          <note key="40" pos="1884" pan="0" len="12" vol="100" />
          <note key="55" pos="1896" pan="0" len="48" vol="100" />
          <note key="31" pos="1944" pan="0" len="12" vol="100" />
          <note key="46" pos="1956" pan="0" len="12" vol="100" />
          <note key="55" pos="1968" pan="0" len="36" vol="100" />
          <note key="60" pos="2004" pan="0" len="12" vol="100" />
          <note key="38" pos="2016" pan="0" len="12" vol="100" />
          <note key="57" pos="2028" pan="0" len="12" vol="100" />
          <note key="57" pos="2040" pan="0" len="48" vol="100" />
          <note key="34" pos="2088" pan="0" len="12" vol="100" />
          <note key="41" pos="2100" pan="0" len="12" vol="100" />
          <note key="58" pos="2112" pan="0" len="36" vol="100" />
          <note key="60" pos="2148" pan="0" len="12" vol="100" />
          <note key="36" pos="2160" pan="0" len="12" vol="100" />
          <note key="40" pos="2172" pan="0" len="12" vol="100" />
          <note key="55" pos="2184" pan="0" len="48" vol="100" />
          <note key="31" pos="2232" pan="0" len="12" vol="100" />
          <note key="46" pos="2244" pan="0" len="12" vol="100" />
          <note key="55" pos="2256" pan="0" len="36" vol="100" />
          <note key="60" pos="2292" pan="0" len="12" vol="100" />
        </pattern>
        <pattern pos="248844" muted="0" steps="16" name="" type="1">
          <note key="31" pos="0" pan="0" len="216" vol="100" />
          <note key="38" pos="216" pan="0" len="24" vol="100" />
          <note key="29" pos="240" pan="0" len="48" vol="100" />
          <note key="31" pos="288" pan="0" len="120" vol="100" />
          <note key="38" pos="408" pan="0" len="72" vol="100" />
          <note key="36" pos="480" pan="0" len="96" vol="100" />
          <note key="31" pos="576" pan="0" len="216" vol="100" />
          <note key="38" pos="792" pan="0" len="24" vol="100" />
          <note key="29" pos="816" pan="0" len="48" vol="100" />
          <note key="31" pos="864" pan="0" len="96" vol="100" />
          <note key="38" pos="960" pan="0" len="96" vol="100" />
          <note key="41" pos="1056" pan="0" len="96" vol="100" />
          <note key="31" pos="1152" pan="0" len="216" vol="100" />
          <note key="38" pos="1368" pan="0" len="24" vol="100" />
          <note key="29" pos="1392" pan="0" len="48" vol="100" />
          <note key="31" pos="1440" pan="0" len="120" vol="100" />
          <note key="38" pos="1560" pan="0" len="72" vol="100" />
          <note key="36" pos="1632" pan="0" len="96" vol="100" />
          <note key="31" pos="1728" pan="0" len="216" vol="100" />
          <note key="38" pos="1944" pan="0" len="24" vol="100" />
          <note key="29" pos="1968" pan="0" len="48" vol="100" />
          <note key="31" pos="2016" pan="0" len="120" vol="100" />
          <note key="38" pos="2136" pan="0" len="72" vol="100" />
          <note key="41" pos="2208" pan="0" len="96" vol="100" />
        </pattern>
        <pattern pos="251148" muted="0" steps="16" name="" type="1">
          <note key="31" pos="0" pan="0" len="216" vol="100" />
          <note key="38" pos="216" pan="0" len="24" vol="100" />
          <note key="29" pos="240" pan="0" len="48" vol="100" />
          <note key="31" pos="288" pan="0" len="120" vol="100" />
          <note key="38" pos="408" pan="0" len="72" vol="100" />
          <note key="36" pos="480" pan="0" len="96" vol="100" />
          <note key="31" pos="576" pan="0" len="216" vol="100" />
          <note key="38" pos="792" pan="0" len="24" vol="100" />
          <note key="29" pos="816" pan="0" len="48" vol="100" />
          <note key="31" pos="864" pan="0" len="96" vol="100" />
          <note key="38" pos="960" pan="0" len="96" vol="100" />
          <note key="41" pos="1056" pan="0" len="96" vol="100" />
          <note key="31" pos="1152" pan="0" len="216" vol="100" />
          <note key="38" pos="1368" pan="0" len="24" vol="100" />
          <note key="29" pos="1392" pan="0" len="48" vol="100" />
          <note key="31" pos="1440" pan="0" len="120" vol="100" />
          <note key="38" pos="1560" pan="0" len="72" vol="100" />
          <note key="36" pos="1632" pan="0" len="96" vol="100" />
          <note key="31" pos="1728" pan="0" len="216" vol="100" />
          <note key="38" pos="1944" pan="0" len="24" vol="100" />
          <note key="29" pos="1968" pan="0" len="48" vol="100" />
          <note key="31" pos="2016" pan="0" len="120" vol="100" />
          <note key="38" pos="2136" pan="0" len="72" vol="100" />
          <note key="41" pos="2208" pan="0" len="96" vol="100" />
        </pattern>
        <pattern pos="253452" muted="0" steps="16" name="" type="1">
          <note key="39" pos="0" pan="0" len="216" vol="100" />
          <note key="46" pos="216" pan="0" len="24" vol="100" />
          <note key="39" pos="240" pan="0" len="48" vol="100" />
          <note key="41" pos="288" pan="0" len="144" vol="100" />
          <note key="45" pos="432" pan="0" len="96" vol="100" />
          <note key="41" pos="528" pan="0" len="24" vol="100" />
          <note key="45" pos="552" pan="0" len="24" vol="100" />
          <note key="43" pos="576" pan="0" len="216" vol="100" />
          <note key="41" pos="792" pan="0" len="24" vol="100" />
          <note key="45" pos="816" pan="0" len="48" vol="100" />
          <note key="34" pos="864" pan="0" len="216" vol="100" />
          <note key="33" pos="1080" pan="0" len="36" vol="100" />
          <note key="39" pos="1152" pan="0" len="216" vol="100" />
          <note key="46" pos="1368" pan="0" len="24" vol="100" />
          <note key="39" pos="1392" pan="0" len="48" vol="100" />
          <note key="36" pos="1440" pan="0" len="144" vol="100" />
          <note key="38" pos="1584" pan="0" len="72" vol="100" />
          <note key="41" pos="1656" pan="0" len="24" vol="100" />
          <note key="45" pos="1680" pan="0" len="48" vol="100" />
          <note key="43" pos="1728" pan="0" len="216" vol="100" />
          <note key="41" pos="1944" pan="0" len="72" vol="100" />
          <note key="31" pos="2016" pan="0" len="216" vol="100" />
          <note key="41" pos="2232" pan="0" len="24" vol="100" />
          <note key="45" pos="2256" pan="0" len="48" vol="100" />
        </pattern>
        <pattern pos="255756" muted="0" steps="16" name="" type="1">
          <note key="39" pos="0" pan="0" len="216" vol="100" />
          <note key="46" pos="216" pan="0" len="24" vol="100" />
          <note key="39" pos="240" pan="0" len="48" vol="100" />
          <note key="41" pos="288" pan="0" len="144" vol="100" />
          <note key="45" pos="432" pan="0" len="96" vol="100" />
          <note key="41" pos="528" pan="0" len="24" vol="100" />
          <note key="45" pos="552" pan="0" len="24" vol="100" />
          <note key="43" pos="576" pan="0" len="216" vol="100" />
          <note key="41" pos="792" pan="0" len="24" vol="100" />
          <note key="45" pos="816" pan="0" len="48" vol="100" />
          <note key="34" pos="864" pan="0" len="216" vol="100" />
          <note key="33" pos="1080" pan="0" len="36" vol="100" />
          <note key="39" pos="1152" pan="0" len="216" vol="100" />
          <note key="46" pos="1368" pan="0" len="24" vol="100" />
          <note key="39" pos="1392" pan="0" len="48" vol="100" />
          <note key="36" pos="1440" pan="0" len="144" vol="100" />
          <note key="38" pos="1584" pan="0" len="72" vol="100" />
          <note key="41" pos="1656" pan="0" len="24" vol="100" />
          <note key="45" pos="1680" pan="0" len="48" vol="100" />
          <note key="43" pos="1728" pan="0" len="216" vol="100" />
          <note key="41" pos="1944" pan="0" len="72" vol="100" />
          <note key="31" pos="2016" pan="0" len="216" vol="100" />
          <note key="41" pos="2232" pan="0" len="24" vol="100" />
          <note key="45" pos="2256" pan="0" len="48" vol="100" />
        </pattern>
        <pattern pos="258060" muted="0" steps="16" name="" type="1">
          <note key="31" pos="0" pan="0" len="216" vol="100" />
          <note key="38" pos="216" pan="0" len="24" vol="100" />
          <note key="29" pos="240" pan="0" len="48" vol="100" />
          <note key="31" pos="288" pan="0" len="120" vol="100" />
          <note key="38" pos="408" pan="0" len="72" vol="100" />
          <note key="36" pos="480" pan="0" len="96" vol="100" />
          <note key="31" pos="576" pan="0" len="216" vol="100" />
          <note key="38" pos="792" pan="0" len="24" vol="100" />
          <note key="29" pos="816" pan="0" len="48" vol="100" />
          <note key="31" pos="864" pan="0" len="96" vol="100" />
          <note key="38" pos="960" pan="0" len="96" vol="100" />
          <note key="41" pos="1056" pan="0" len="96" vol="100" />
          <note key="34" pos="1152" pan="0" len="216" vol="100" />
          <note key="38" pos="1368" pan="0" len="24" vol="100" />
          <note key="34" pos="1392" pan="0" len="48" vol="100" />
          <note key="36" pos="1440" pan="0" len="120" vol="100" />
          <note key="38" pos="1560" pan="0" len="72" vol="100" />
          <note key="36" pos="1632" pan="0" len="96" vol="100" />
          <note key="31" pos="1728" pan="0" len="216" vol="100" />
          <note key="38" pos="1944" pan="0" len="24" vol="100" />
          <note key="29" pos="1968" pan="0" len="48" vol="100" />
          <note key="31" pos="2016" pan="0" len="120" vol="100" />
          <note key="38" pos="2136" pan="0" len="72" vol="100" />
          <note key="41" pos="2208" pan="0" len="96" vol="100" />
        </pattern>
        <pattern pos="260364" muted="0" steps="16" name="" type="1">
          <note key="31" pos="0" pan="0" len="192" vol="100" />
          <note key="34" pos="192" pan="0" len="24" vol="100" />
          <note key="33" pos="216" pan="0" len="72" vol="100" />
          <note key="34" pos="288" pan="0" len="120" vol="100" />
          <note key="38" pos="408" pan="0" len="72" vol="100" />
          <note key="41" pos="480" pan="0" len="72" vol="100" />
          <note key="45" pos="552" pan="0" len="24" vol="100" />
          <note key="31" pos="576" pan="0" len="216" vol="100" />
          <note key="34" pos="792" pan="0" len="24" vol="100" />
          <note key="33" pos="816" pan="0" len="48" vol="100" />
          <note key="34" pos="864" pan="0" len="96" vol="100" />
          <note key="36" pos="960" pan="0" len="96" vol="100" />
          <note key="38" pos="1056" pan="0" len="96" vol="100" />
          <note key="31" pos="1152" pan="0" len="192" vol="100" />
          <note key="34" pos="1344" pan="0" len="24" vol="100" />
          <note key="33" pos="1368" pan="0" len="72" vol="100" />
          <note key="34" pos="1440" pan="0" len="120" vol="100" />
          <note key="38" pos="1560" pan="0" len="72" vol="100" />
          <note key="41" pos="1632" pan="0" len="72" vol="100" />
          <note key="45" pos="1704" pan="0" len="24" vol="100" />
          <note key="31" pos="1728" pan="0" len="216" vol="100" />
          <note key="34" pos="1944" pan="0" len="24" vol="100" />
          <note key="33" pos="1968" pan="0" len="48" vol="100" />
          <note key="34" pos="2016" pan="0" len="96" vol="100" />
          <note key="36" pos="2112" pan="0" len="96" vol="100" />
          <note key="38" pos="2208" pan="0" len="96" vol="100" />
        </pattern>
        <pattern pos="262668" muted="0" steps="16" name="" type="1">
          <note key="39" pos="0" pan="0" len="216" vol="100" />
          <note key="46" pos="216" pan="0" len="24" vol="100" />
          <note key="39" pos="240" pan="0" len="48" vol="100" />
          <note key="41" pos="288" pan="0" len="144" vol="100" />
          <note key="45" pos="432" pan="0" len="96" vol="100" />
          <note key="41" pos="528" pan="0" len="24" vol="100" />
          <note key="45" pos="552" pan="0" len="24" vol="100" />
          <note key="43" pos="576" pan="0" len="216" vol="100" />
          <note key="41" pos="792" pan="0" len="24" vol="100" />
          <note key="45" pos="816" pan="0" len="48" vol="100" />
          <note key="34" pos="864" pan="0" len="216" vol="100" />
          <note key="33" pos="1080" pan="0" len="36" vol="100" />
          <note key="39" pos="1152" pan="0" len="216" vol="100" />
          <note key="46" pos="1368" pan="0" len="24" vol="100" />
          <note key="39" pos="1392" pan="0" len="48" vol="100" />
          <note key="36" pos="1440" pan="0" len="144" vol="100" />
          <note key="38" pos="1584" pan="0" len="72" vol="100" />
          <note key="41" pos="1656" pan="0" len="24" vol="100" />
          <note key="45" pos="1680" pan="0" len="48" vol="100" />
          <note key="43" pos="1728" pan="0" len="216" vol="100" />
          <note key="41" pos="1944" pan="0" len="72" vol="100" />
          <note key="31" pos="2016" pan="0" len="216" vol="100" />
          <note key="41" pos="2232" pan="0" len="24" vol="100" />
          <note key="45" pos="2256" pan="0" len="48" vol="100" />
        </pattern>
        <pattern pos="264972" muted="0" steps="16" name="" type="1">
          <note key="39" pos="0" pan="0" len="216" vol="100" />
          <note key="46" pos="216" pan="0" len="24" vol="100" />
          <note key="39" pos="240" pan="0" len="48" vol="100" />
          <note key="41" pos="288" pan="0" len="144" vol="100" />
          <note key="45" pos="432" pan="0" len="96" vol="100" />
          <note key="41" pos="528" pan="0" len="24" vol="100" />
          <note key="45" pos="552" pan="0" len="24" vol="100" />
          <note key="43" pos="576" pan="0" len="216" vol="100" />
          <note key="41" pos="792" pan="0" len="24" vol="100" />
          <note key="45" pos="816" pan="0" len="48" vol="100" />
          <note key="34" pos="864" pan="0" len="216" vol="100" />
          <note key="33" pos="1080" pan="0" len="36" vol="100" />
          <note key="39" pos="1152" pan="0" len="216" vol="100" />
          <note key="46" pos="1368" pan="0" len="24" vol="100" />
          <note key="39" pos="1392" pan="0" len="48" vol="100" />
          <note key="36" pos="1440" pan="0" len="144" vol="100" />
          <note key="38" pos="1584" pan="0" len="72" vol="100" />
          <note key="41" pos="1656" pan="0" len="24" vol="100" />
          <note key="45" pos="1680" pan="0" len="48" vol="100" />
          <note key="43" pos="1728" pan="0" len="216" vol="100" />
          <note key="41" pos="1944" pan="0" len="72" vol="100" />
          <note key="31" pos="2016" pan="0" len="216" vol="100" />
          <note key="41" pos="2232" pan="0" len="24" vol="100" />
          <note key="45" pos="2256" pan="0" len="48" vol="100" />
        </pattern>
      </track>
      <track solo="0" name="64 (Ch3)" type="0" muted="0">
        <instrumenttrack usemasterpitch="1" pitch="0.0" basenote="57" pan="0" pitchrange="12" vol="30">
          <eldata />
          <instrument name="tripleoscillator" />
        </instrumenttrack>
        <pattern pos="272988" muted="0" steps="16" name="" type="1">
          <note key="20" pos="0" pan="0" len="12" vol="100" />
          <note key="20" pos="12" pan="0" len="12" vol="31" />
          <note key="20" pos="24" pan="0" len="12" vol="47" />
          <note key="20" pos="36" pan="0" len="36" vol="62" />
          <note key="20" pos="72" pan="0" len="12" vol="100" />
          <note key="20" pos="84" pan="0" len="12" vol="31" />
          <note key="20" pos="96" pan="0" len="12" vol="47" />
          <note key="20" pos="108" pan="0" len="36" vol="62" />
          <note key="20" pos="144" pan="0" len="12" vol="100" />
          <note key="20" pos="156" pan="0" len="12" vol="31" />
          <note key="20" pos="168" pan="0" len="12" vol="47" />
          <note key="20" pos="180" pan="0" len="36" vol="62" />
          <note key="20" pos="216" pan="0" len="12" vol="100" />
          <note key="20" pos="228" pan="0" len="12" vol="31" />
          <note key="20" pos="240" pan="0" len="12" vol="47" />
          <note key="20" pos="252" pan="0" len="36" vol="62" />
          <note key="20" pos="288" pan="0" len="12" vol="100" />
          <note key="20" pos="300" pan="0" len="12" vol="31" />
          <note key="20" pos="312" pan="0" len="12" vol="47" />
          <note key="20" pos="324" pan="0" len="36" vol="62" />
          <note key="20" pos="360" pan="0" len="12" vol="100" />
          <note key="20" pos="372" pan="0" len="12" vol="31" />
          <note key="20" pos="384" pan="0" len="12" vol="47" />
          <note key="20" pos="396" pan="0" len="36" vol="62" />
          <note key="20" pos="432" pan="0" len="12" vol="100" />
          <note key="20" pos="444" pan="0" len="12" vol="31" />
          <note key="20" pos="456" pan="0" len="12" vol="47" />
          <note key="20" pos="468" pan="0" len="36" vol="62" />
          <note key="20" pos="504" pan="0" len="12" vol="100" />
          <note key="20" pos="516" pan="0" len="12" vol="31" />
          <note key="20" pos="528" pan="0" len="12" vol="47" />
          <note key="20" pos="540" pan="0" len="36" vol="62" />
          <note key="20" pos="576" pan="0" len="12" vol="100" />
          <note key="20" pos="588" pan="0" len="12" vol="31" />
          <note key="20" pos="600" pan="0" len="12" vol="47" />
          <note key="20" pos="612" pan="0" len="36" vol="62" />
          <note key="20" pos="648" pan="0" len="12" vol="100" />
          <note key="20" pos="660" pan="0" len="12" vol="31" />
          <note key="20" pos="672" pan="0" len="12" vol="47" />
          <note key="20" pos="684" pan="0" len="36" vol="62" />
          <note key="20" pos="720" pan="0" len="12" vol="100" />
          <note key="20" pos="732" pan="0" len="12" vol="31" />
          <note key="20" pos="744" pan="0" len="12" vol="47" />
          <note key="20" pos="756" pan="0" len="36" vol="62" />
          <note key="20" pos="792" pan="0" len="12" vol="100" />
          <note key="20" pos="804" pan="0" len="12" vol="31" />
          <note key="20" pos="816" pan="0" len="12" vol="47" />
          <note key="20" pos="828" pan="0" len="36" vol="62" />
          <note key="20" pos="864" pan="0" len="12" vol="100" />
          <note key="20" pos="876" pan="0" len="12" vol="31" />
          <note key="20" pos="888" pan="0" len="12" vol="47" />
          <note key="20" pos="900" pan="0" len="36" vol="62" />
          <note key="20" pos="936" pan="0" len="12" vol="100" />
          <note key="20" pos="948" pan="0" len="12" vol="31" />
          <note key="20" pos="960" pan="0" len="12" vol="47" />
          <note key="20" pos="972" pan="0" len="36" vol="62" />
          <note key="20" pos="1008" pan="0" len="12" vol="100" />
          <note key="20" pos="1020" pan="0" len="12" vol="31" />
          <note key="20" pos="1032" pan="0" len="12" vol="47" />
          <note key="20" pos="1044" pan="0" len="36" vol="62" />
          <note key="20" pos="1080" pan="0" len="12" vol="100" />
          <note key="20" pos="1092" pan="0" len="12" vol="31" />
          <note key="20" pos="1104" pan="0" len="12" vol="47" />
          <note key="20" pos="1116" pan="0" len="36" vol="62" />
        </pattern>
        <pattern pos="0" muted="0" steps="16" name="" type="1">
          <note key="24" pos="1248" pan="0" len="96" vol="100" />
        </pattern>
        <pattern pos="56448" muted="0" steps="16" name="" type="1">
          <note key="50" pos="0" pan="0" len="36" vol="100" />
          <note key="38" pos="36" pan="0" len="36" vol="100" />
          <note key="38" pos="72" pan="0" len="36" vol="100" />
          <note key="50" pos="108" pan="0" len="36" vol="100" />
          <note key="38" pos="144" pan="0" len="36" vol="100" />
          <note key="50" pos="180" pan="0" len="36" vol="100" />
          <note key="38" pos="216" pan="0" len="36" vol="100" />
          <note key="57" pos="252" pan="0" len="12" vol="100" />
          <note key="62" pos="264" pan="0" len="12" vol="100" />
          <note key="69" pos="276" pan="0" len="12" vol="100" />
          <note key="50" pos="288" pan="0" len="36" vol="100" />
          <note key="38" pos="324" pan="0" len="36" vol="100" />
          <note key="38" pos="360" pan="0" len="36" vol="100" />
          <note key="50" pos="396" pan="0" len="36" vol="100" />
          <note key="38" pos="432" pan="0" len="36" vol="100" />
          <note key="50" pos="468" pan="0" len="36" vol="100" />
          <note key="38" pos="504" pan="0" len="36" vol="100" />
          <note key="60" pos="540" pan="0" len="12" vol="100" />
          <note key="59" pos="552" pan="0" len="12" vol="100" />
          <note key="55" pos="564" pan="0" len="12" vol="100" />
          <note key="50" pos="612" pan="0" len="72" vol="100" />
          <note key="50" pos="684" pan="0" len="36" vol="100" />
          <note key="50" pos="756" pan="0" len="72" vol="100" />
          <note key="60" pos="828" pan="0" len="12" vol="100" />
          <note key="62" pos="840" pan="0" len="12" vol="100" />
          <note key="59" pos="852" pan="0" len="12" vol="100" />
          <note key="50" pos="900" pan="0" len="72" vol="100" />
          <note key="50" pos="972" pan="0" len="72" vol="100" />
          <note key="50" pos="1044" pan="0" len="60" vol="100" />
          <note key="38" pos="1104" pan="0" len="12" vol="100" />
          <note key="57" pos="1116" pan="0" len="12" vol="100" />
          <note key="62" pos="1128" pan="0" len="12" vol="100" />
          <note key="69" pos="1140" pan="0" len="12" vol="100" />
        </pattern>
        <pattern pos="58752" muted="0" steps="16" name="" type="1">
          <note key="50" pos="0" pan="0" len="36" vol="100" />
          <note key="38" pos="36" pan="0" len="36" vol="100" />
          <note key="38" pos="72" pan="0" len="36" vol="100" />
          <note key="50" pos="108" pan="0" len="36" vol="100" />
          <note key="38" pos="144" pan="0" len="36" vol="100" />
          <note key="50" pos="180" pan="0" len="36" vol="100" />
          <note key="38" pos="216" pan="0" len="36" vol="100" />
          <note key="57" pos="252" pan="0" len="12" vol="100" />
          <note key="62" pos="264" pan="0" len="12" vol="100" />
          <note key="69" pos="276" pan="0" len="12" vol="100" />
          <note key="50" pos="288" pan="0" len="36" vol="100" />
          <note key="38" pos="324" pan="0" len="36" vol="100" />
          <note key="38" pos="360" pan="0" len="36" vol="100" />
          <note key="50" pos="396" pan="0" len="36" vol="100" />
          <note key="38" pos="432" pan="0" len="36" vol="100" />
          <note key="50" pos="468" pan="0" len="36" vol="100" />
          <note key="38" pos="504" pan="0" len="36" vol="100" />
          <note key="60" pos="540" pan="0" len="12" vol="100" />
          <note key="59" pos="552" pan="0" len="12" vol="100" />
          <note key="55" pos="564" pan="0" len="12" vol="100" />
          <note key="50" pos="612" pan="0" len="72" vol="100" />
          <note key="50" pos="684" pan="0" len="36" vol="100" />
          <note key="50" pos="756" pan="0" len="72" vol="100" />
          <note key="60" pos="828" pan="0" len="12" vol="100" />
          <note key="62" pos="840" pan="0" len="12" vol="100" />
          <note key="59" pos="852" pan="0" len="12" vol="100" />
          <note key="55" pos="900" pan="0" len="72" vol="100" />
          <note key="43" pos="972" pan="0" len="72" vol="100" />
          <note key="55" pos="1044" pan="0" len="60" vol="100" />
          <note key="65" pos="1104" pan="0" len="12" vol="100" />
          <note key="64" pos="1116" pan="0" len="12" vol="100" />
          <note key="60" pos="1128" pan="0" len="12" vol="100" />
          <note key="55" pos="1140" pan="0" len="12" vol="100" />
        </pattern>
        <pattern pos="62208" muted="0" steps="16" name="" type="1">
          <note key="55" pos="0" pan="0" len="36" vol="100" />
          <note key="43" pos="36" pan="0" len="36" vol="100" />
          <note key="55" pos="72" pan="0" len="36" vol="100" />
          <note key="43" pos="108" pan="0" len="36" vol="100" />
          <note key="58" pos="144" pan="0" len="36" vol="100" />
          <note key="46" pos="180" pan="0" len="36" vol="100" />
          <note key="58" pos="216" pan="0" len="36" vol="100" />
          <note key="55" pos="252" pan="0" len="12" vol="100" />
          <note key="58" pos="264" pan="0" len="12" vol="100" />
          <note key="62" pos="276" pan="0" len="12" vol="100" />
          <note key="48" pos="288" pan="0" len="36" vol="100" />
          <note key="36" pos="324" pan="0" len="36" vol="100" />
          <note key="48" pos="360" pan="0" len="36" vol="100" />
          <note key="36" pos="396" pan="0" len="36" vol="100" />
          <note key="69" pos="432" pan="0" len="36" vol="100" />
          <note key="38" pos="468" pan="0" len="36" vol="100" />
          <note key="67" pos="504" pan="0" len="36" vol="100" />
          <note key="50" pos="540" pan="0" len="12" vol="100" />
          <note key="53" pos="552" pan="0" len="12" vol="100" />
          <note key="57" pos="564" pan="0" len="12" vol="100" />
          <note key="55" pos="576" pan="0" len="36" vol="100" />
          <note key="43" pos="612" pan="0" len="36" vol="100" />
          <note key="55" pos="648" pan="0" len="36" vol="100" />
          <note key="43" pos="684" pan="0" len="36" vol="100" />
          <note key="58" pos="720" pan="0" len="36" vol="100" />
          <note key="46" pos="756" pan="0" len="36" vol="100" />
          <note key="58" pos="792" pan="0" len="36" vol="100" />
          <note key="55" pos="828" pan="0" len="12" vol="100" />
          <note key="58" pos="840" pan="0" len="12" vol="100" />
          <note key="62" pos="852" pan="0" len="12" vol="100" />
          <note key="48" pos="864" pan="0" len="36" vol="100" />
          <note key="36" pos="900" pan="0" len="36" vol="100" />
          <note key="48" pos="936" pan="0" len="36" vol="100" />
          <note key="36" pos="972" pan="0" len="36" vol="100" />
          <note key="50" pos="1008" pan="0" len="36" vol="100" />
          <note key="38" pos="1044" pan="0" len="36" vol="100" />
          <note key="67" pos="1080" pan="0" len="36" vol="100" />
          <note key="50" pos="1116" pan="0" len="12" vol="100" />
          <note key="53" pos="1128" pan="0" len="12" vol="100" />
          <note key="57" pos="1140" pan="0" len="12" vol="100" />
        </pattern>
        <pattern pos="65664" muted="0" steps="16" name="" type="1">
          <note key="50" pos="0" pan="0" len="36" vol="100" />
          <note key="38" pos="36" pan="0" len="36" vol="100" />
          <note key="38" pos="72" pan="0" len="36" vol="100" />
          <note key="50" pos="108" pan="0" len="36" vol="100" />
          <note key="38" pos="144" pan="0" len="36" vol="100" />
          <note key="50" pos="180" pan="0" len="36" vol="100" />
          <note key="38" pos="216" pan="0" len="36" vol="100" />
          <note key="57" pos="252" pan="0" len="12" vol="100" />
          <note key="62" pos="264" pan="0" len="12" vol="100" />
          <note key="69" pos="276" pan="0" len="12" vol="100" />
          <note key="50" pos="288" pan="0" len="36" vol="100" />
          <note key="38" pos="324" pan="0" len="36" vol="100" />
          <note key="38" pos="360" pan="0" len="36" vol="100" />
          <note key="50" pos="396" pan="0" len="36" vol="100" />
          <note key="38" pos="432" pan="0" len="36" vol="100" />
          <note key="50" pos="468" pan="0" len="36" vol="100" />
          <note key="38" pos="504" pan="0" len="36" vol="100" />
          <note key="60" pos="540" pan="0" len="12" vol="100" />
          <note key="59" pos="552" pan="0" len="12" vol="100" />
          <note key="55" pos="564" pan="0" len="12" vol="100" />
          <note key="50" pos="612" pan="0" len="72" vol="100" />
          <note key="50" pos="684" pan="0" len="36" vol="100" />
          <note key="50" pos="756" pan="0" len="72" vol="100" />
          <note key="60" pos="828" pan="0" len="12" vol="100" />
          <note key="62" pos="840" pan="0" len="12" vol="100" />
          <note key="59" pos="852" pan="0" len="12" vol="100" />
          <note key="50" pos="900" pan="0" len="72" vol="100" />
          <note key="50" pos="972" pan="0" len="72" vol="100" />
          <note key="50" pos="1044" pan="0" len="108" vol="100" />
        </pattern>
        <pattern pos="113664" muted="0" steps="16" name="" type="1">
          <note key="62" pos="24" pan="0" len="72" vol="100" />
          <note key="62" pos="96" pan="0" len="72" vol="100" />
          <note key="60" pos="168" pan="0" len="72" vol="100" />
          <note key="58" pos="240" pan="0" len="72" vol="100" />
          <note key="62" pos="312" pan="0" len="72" vol="100" />
          <note key="62" pos="384" pan="0" len="72" vol="100" />
          <note key="60" pos="456" pan="0" len="72" vol="100" />
          <note key="58" pos="528" pan="0" len="72" vol="100" />
          <note key="62" pos="600" pan="0" len="72" vol="100" />
          <note key="62" pos="672" pan="0" len="72" vol="100" />
          <note key="60" pos="744" pan="0" len="72" vol="100" />
          <note key="58" pos="816" pan="0" len="72" vol="100" />
          <note key="62" pos="888" pan="0" len="72" vol="100" />
          <note key="62" pos="960" pan="0" len="72" vol="100" />
          <note key="60" pos="1032" pan="0" len="72" vol="100" />
          <note key="58" pos="1104" pan="0" len="72" vol="100" />
          <note key="62" pos="1176" pan="0" len="72" vol="100" />
          <note key="62" pos="1248" pan="0" len="72" vol="100" />
          <note key="60" pos="1320" pan="0" len="72" vol="100" />
          <note key="58" pos="1392" pan="0" len="72" vol="100" />
          <note key="62" pos="1464" pan="0" len="72" vol="100" />
          <note key="62" pos="1536" pan="0" len="72" vol="100" />
          <note key="60" pos="1608" pan="0" len="72" vol="100" />
          <note key="58" pos="1680" pan="0" len="72" vol="100" />
          <note key="62" pos="1752" pan="0" len="72" vol="100" />
          <note key="62" pos="1824" pan="0" len="72" vol="100" />
          <note key="60" pos="1896" pan="0" len="72" vol="100" />
          <note key="58" pos="1968" pan="0" len="72" vol="100" />
          <note key="62" pos="2040" pan="0" len="72" vol="100" />
          <note key="62" pos="2112" pan="0" len="72" vol="100" />
          <note key="60" pos="2184" pan="0" len="72" vol="100" />
          <note key="58" pos="2256" pan="0" len="48" vol="100" />
        </pattern>
        <pattern pos="118272" muted="0" steps="16" name="" type="1">
          <note key="62" pos="24" pan="0" len="72" vol="100" />
          <note key="62" pos="96" pan="0" len="72" vol="100" />
          <note key="60" pos="168" pan="0" len="72" vol="100" />
          <note key="58" pos="240" pan="0" len="72" vol="100" />
          <note key="62" pos="312" pan="0" len="72" vol="100" />
          <note key="62" pos="384" pan="0" len="72" vol="100" />
          <note key="60" pos="456" pan="0" len="72" vol="100" />
          <note key="58" pos="528" pan="0" len="72" vol="100" />
          <note key="62" pos="600" pan="0" len="72" vol="100" />
          <note key="62" pos="672" pan="0" len="72" vol="100" />
          <note key="60" pos="744" pan="0" len="72" vol="100" />
          <note key="58" pos="816" pan="0" len="72" vol="100" />
          <note key="62" pos="888" pan="0" len="72" vol="100" />
          <note key="62" pos="960" pan="0" len="72" vol="100" />
          <note key="60" pos="1032" pan="0" len="72" vol="100" />
          <note key="58" pos="1104" pan="0" len="48" vol="100" />
          <note key="62" pos="1176" pan="0" len="72" vol="100" />
          <note key="62" pos="1248" pan="0" len="72" vol="100" />
          <note key="60" pos="1320" pan="0" len="72" vol="100" />
          <note key="58" pos="1392" pan="0" len="72" vol="100" />
          <note key="62" pos="1464" pan="0" len="72" vol="100" />
          <note key="62" pos="1536" pan="0" len="72" vol="100" />
          <note key="60" pos="1608" pan="0" len="72" vol="100" />
          <note key="58" pos="1680" pan="0" len="72" vol="100" />
          <note key="62" pos="1752" pan="0" len="72" vol="100" />
          <note key="62" pos="1824" pan="0" len="72" vol="100" />
          <note key="60" pos="1896" pan="0" len="72" vol="100" />
          <note key="58" pos="1968" pan="0" len="72" vol="100" />
          <note key="62" pos="2040" pan="0" len="72" vol="100" />
          <note key="62" pos="2112" pan="0" len="72" vol="100" />
          <note key="60" pos="2184" pan="0" len="72" vol="100" />
          <note key="58" pos="2256" pan="0" len="48" vol="100" />
        </pattern>
        <pattern pos="169740" muted="0" steps="16" name="" type="1">
          <note key="24" pos="2208" pan="0" len="84" vol="100" />
        </pattern>
        <pattern pos="268044" muted="0" steps="16" name="" type="1">
          <note key="70" pos="360" pan="0" len="408" vol="100" />
        </pattern>
      </track>
      <track solo="0" name="64 (Ch4)" type="0" muted="0">
        <instrumenttrack usemasterpitch="1" pitch="0.0" basenote="57" pan="0" pitchrange="12" vol="30">
          <eldata />
          <instrument name="tripleoscillator" />
        </instrumenttrack>
        <pattern pos="272988" muted="0" steps="16" name="" type="1">
          <note key="32" pos="0" pan="0" len="12" vol="100" />
          <note key="32" pos="12" pan="0" len="12" vol="31" />
          <note key="32" pos="24" pan="0" len="12" vol="47" />
          <note key="32" pos="36" pan="0" len="36" vol="62" />
          <note key="32" pos="72" pan="0" len="12" vol="100" />
          <note key="32" pos="84" pan="0" len="12" vol="31" />
          <note key="32" pos="96" pan="0" len="12" vol="47" />
          <note key="32" pos="108" pan="0" len="36" vol="62" />
          <note key="32" pos="144" pan="0" len="12" vol="100" />
          <note key="32" pos="156" pan="0" len="12" vol="31" />
          <note key="32" pos="168" pan="0" len="12" vol="47" />
          <note key="32" pos="180" pan="0" len="36" vol="62" />
          <note key="32" pos="216" pan="0" len="12" vol="100" />
          <note key="32" pos="228" pan="0" len="12" vol="31" />
          <note key="32" pos="240" pan="0" len="12" vol="47" />
          <note key="32" pos="252" pan="0" len="36" vol="62" />
          <note key="32" pos="288" pan="0" len="12" vol="100" />
          <note key="32" pos="300" pan="0" len="12" vol="31" />
          <note key="32" pos="312" pan="0" len="12" vol="47" />
          <note key="32" pos="324" pan="0" len="36" vol="62" />
          <note key="32" pos="360" pan="0" len="12" vol="100" />
          <note key="32" pos="372" pan="0" len="12" vol="31" />
          <note key="32" pos="384" pan="0" len="12" vol="47" />
          <note key="32" pos="396" pan="0" len="36" vol="62" />
          <note key="32" pos="432" pan="0" len="12" vol="100" />
          <note key="32" pos="444" pan="0" len="12" vol="31" />
          <note key="32" pos="456" pan="0" len="12" vol="47" />
          <note key="32" pos="468" pan="0" len="36" vol="62" />
          <note key="32" pos="504" pan="0" len="12" vol="100" />
          <note key="32" pos="516" pan="0" len="12" vol="31" />
          <note key="32" pos="528" pan="0" len="12" vol="47" />
          <note key="32" pos="540" pan="0" len="36" vol="62" />
          <note key="32" pos="576" pan="0" len="12" vol="100" />
          <note key="32" pos="588" pan="0" len="12" vol="31" />
          <note key="32" pos="600" pan="0" len="12" vol="47" />
          <note key="32" pos="612" pan="0" len="36" vol="62" />
          <note key="32" pos="648" pan="0" len="12" vol="100" />
          <note key="32" pos="660" pan="0" len="12" vol="31" />
          <note key="32" pos="672" pan="0" len="12" vol="47" />
          <note key="32" pos="684" pan="0" len="36" vol="62" />
          <note key="32" pos="720" pan="0" len="12" vol="100" />
          <note key="32" pos="732" pan="0" len="12" vol="31" />
          <note key="32" pos="744" pan="0" len="12" vol="47" />
          <note key="32" pos="756" pan="0" len="36" vol="62" />
          <note key="32" pos="792" pan="0" len="12" vol="100" />
          <note key="32" pos="804" pan="0" len="12" vol="31" />
          <note key="32" pos="816" pan="0" len="12" vol="47" />
          <note key="32" pos="828" pan="0" len="36" vol="62" />
          <note key="32" pos="864" pan="0" len="12" vol="100" />
          <note key="32" pos="876" pan="0" len="12" vol="31" />
          <note key="32" pos="888" pan="0" len="12" vol="47" />
          <note key="32" pos="900" pan="0" len="36" vol="62" />
          <note key="32" pos="936" pan="0" len="12" vol="100" />
          <note key="32" pos="948" pan="0" len="12" vol="31" />
          <note key="32" pos="960" pan="0" len="12" vol="47" />
          <note key="32" pos="972" pan="0" len="36" vol="62" />
          <note key="32" pos="1008" pan="0" len="12" vol="100" />
          <note key="32" pos="1020" pan="0" len="12" vol="31" />
          <note key="32" pos="1032" pan="0" len="12" vol="47" />
          <note key="32" pos="1044" pan="0" len="36" vol="62" />
          <note key="32" pos="1080" pan="0" len="12" vol="100" />
          <note key="32" pos="1092" pan="0" len="12" vol="31" />
          <note key="32" pos="1104" pan="0" len="12" vol="47" />
          <note key="32" pos="1116" pan="0" len="36" vol="62" />
        </pattern>
        <pattern pos="56448" muted="0" steps="16" name="" type="1">
          <note key="57" pos="0" pan="0" len="288" vol="100" />
          <note key="57" pos="288" pan="0" len="144" vol="100" />
          <note key="57" pos="432" pan="0" len="144" vol="100" />
        </pattern>
        <pattern pos="58752" muted="0" steps="16" name="" type="1">
          <note key="57" pos="0" pan="0" len="216" vol="100" />
          <note key="57" pos="288" pan="0" len="144" vol="100" />
          <note key="57" pos="432" pan="0" len="144" vol="100" />
        </pattern>
        <pattern pos="62208" muted="0" steps="16" name="" type="1">
          <note key="58" pos="0" pan="0" len="216" vol="100" />
          <note key="60" pos="288" pan="0" len="144" vol="100" />
          <note key="72" pos="432" pan="0" len="144" vol="100" />
          <note key="58" pos="576" pan="0" len="216" vol="100" />
          <note key="58" pos="864" pan="0" len="144" vol="100" />
          <note key="62" pos="1008" pan="0" len="144" vol="100" />
        </pattern>
        <pattern pos="65664" muted="0" steps="16" name="" type="1">
          <note key="57" pos="0" pan="0" len="288" vol="100" />
          <note key="57" pos="288" pan="0" len="144" vol="100" />
          <note key="57" pos="432" pan="0" len="144" vol="100" />
        </pattern>
        <pattern pos="92160" muted="0" steps="16" name="" type="1">
          <note key="38" pos="0" pan="0" len="1536" vol="100" />
          <note key="38" pos="1536" pan="0" len="1536" vol="100" />
        </pattern>
        <pattern pos="95232" muted="0" steps="16" name="" type="1">
          <note key="38" pos="0" pan="0" len="1536" vol="100" />
          <note key="38" pos="1536" pan="0" len="768" vol="100" />
        </pattern>
        <pattern pos="97536" muted="0" steps="16" name="" type="1">
          <note key="38" pos="0" pan="0" len="672" vol="100" />
        </pattern>
        <pattern pos="98304" muted="0" steps="16" name="" type="1">
          <note key="38" pos="0" pan="0" len="192" vol="100" />
          <note key="38" pos="768" pan="0" len="192" vol="100" />
        </pattern>
        <pattern pos="99840" muted="0" steps="16" name="" type="1">
          <note key="38" pos="0" pan="0" len="192" vol="100" />
          <note key="38" pos="768" pan="0" len="192" vol="100" />
        </pattern>
        <pattern pos="110592" muted="0" steps="16" name="" type="1">
          <note key="38" pos="0" pan="0" len="1536" vol="100" />
          <note key="38" pos="1536" pan="0" len="1536" vol="100" />
        </pattern>
        <pattern pos="113664" muted="0" steps="16" name="" type="1">
          <note key="65" pos="24" pan="0" len="72" vol="100" />
          <note key="67" pos="96" pan="0" len="72" vol="100" />
          <note key="64" pos="168" pan="0" len="72" vol="100" />
          <note key="62" pos="240" pan="0" len="72" vol="100" />
          <note key="65" pos="312" pan="0" len="72" vol="100" />
          <note key="67" pos="384" pan="0" len="72" vol="100" />
          <note key="64" pos="456" pan="0" len="72" vol="100" />
          <note key="62" pos="528" pan="0" len="72" vol="100" />
          <note key="65" pos="600" pan="0" len="72" vol="100" />
          <note key="67" pos="672" pan="0" len="72" vol="100" />
          <note key="64" pos="744" pan="0" len="72" vol="100" />
          <note key="62" pos="816" pan="0" len="72" vol="100" />
          <note key="65" pos="888" pan="0" len="72" vol="100" />
          <note key="67" pos="960" pan="0" len="72" vol="100" />
          <note key="64" pos="1032" pan="0" len="72" vol="100" />
          <note key="62" pos="1104" pan="0" len="72" vol="100" />
          <note key="65" pos="1176" pan="0" len="72" vol="100" />
          <note key="67" pos="1248" pan="0" len="72" vol="100" />
          <note key="64" pos="1320" pan="0" len="72" vol="100" />
          <note key="62" pos="1392" pan="0" len="72" vol="100" />
          <note key="65" pos="1464" pan="0" len="72" vol="100" />
          <note key="67" pos="1536" pan="0" len="72" vol="100" />
          <note key="64" pos="1608" pan="0" len="72" vol="100" />
          <note key="62" pos="1680" pan="0" len="72" vol="100" />
          <note key="65" pos="1752" pan="0" len="72" vol="100" />
          <note key="67" pos="1824" pan="0" len="72" vol="100" />
          <note key="64" pos="1896" pan="0" len="72" vol="100" />
          <note key="62" pos="1968" pan="0" len="72" vol="100" />
          <note key="65" pos="2040" pan="0" len="72" vol="100" />
          <note key="67" pos="2112" pan="0" len="72" vol="100" />
          <note key="64" pos="2184" pan="0" len="72" vol="100" />
          <note key="62" pos="2256" pan="0" len="48" vol="100" />
        </pattern>
        <pattern pos="118272" muted="0" steps="16" name="" type="1">
          <note key="65" pos="24" pan="0" len="72" vol="100" />
          <note key="67" pos="96" pan="0" len="72" vol="100" />
          <note key="64" pos="168" pan="0" len="72" vol="100" />
          <note key="62" pos="240" pan="0" len="72" vol="100" />
          <note key="65" pos="312" pan="0" len="72" vol="100" />
          <note key="67" pos="384" pan="0" len="72" vol="100" />
          <note key="64" pos="456" pan="0" len="72" vol="100" />
          <note key="62" pos="528" pan="0" len="72" vol="100" />
          <note key="65" pos="600" pan="0" len="72" vol="100" />
          <note key="67" pos="672" pan="0" len="72" vol="100" />
          <note key="64" pos="744" pan="0" len="72" vol="100" />
          <note key="62" pos="816" pan="0" len="72" vol="100" />
          <note key="65" pos="888" pan="0" len="72" vol="100" />
          <note key="67" pos="960" pan="0" len="72" vol="100" />
          <note key="64" pos="1032" pan="0" len="72" vol="100" />
          <note key="62" pos="1104" pan="0" len="72" vol="100" />
          <note key="65" pos="1176" pan="0" len="72" vol="100" />
          <note key="67" pos="1248" pan="0" len="72" vol="100" />
          <note key="64" pos="1320" pan="0" len="72" vol="100" />
          <note key="62" pos="1392" pan="0" len="72" vol="100" />
          <note key="65" pos="1464" pan="0" len="72" vol="100" />
          <note key="67" pos="1536" pan="0" len="72" vol="100" />
          <note key="64" pos="1608" pan="0" len="72" vol="100" />
          <note key="62" pos="1680" pan="0" len="72" vol="100" />
          <note key="65" pos="1752" pan="0" len="72" vol="100" />
          <note key="67" pos="1824" pan="0" len="72" vol="100" />
          <note key="64" pos="1896" pan="0" len="72" vol="100" />
          <note key="62" pos="1968" pan="0" len="72" vol="100" />
          <note key="65" pos="2040" pan="0" len="72" vol="100" />
          <note key="67" pos="2112" pan="0" len="72" vol="100" />
          <note key="64" pos="2184" pan="0" len="72" vol="100" />
          <note key="62" pos="2256" pan="0" len="48" vol="100" />
        </pattern>
        <pattern pos="169740" muted="0" steps="16" name="" type="1">
          <note key="60" pos="2208" pan="0" len="84" vol="100" />
        </pattern>
        <pattern pos="191244" muted="0" steps="16" name="" type="1">
          <note key="28" pos="264" pan="0" len="120" vol="100" />
          <note key="28" pos="648" pan="0" len="120" vol="100" />
          <note key="28" pos="1032" pan="0" len="120" vol="100" />
          <note key="28" pos="1416" pan="0" len="120" vol="100" />
        </pattern>
        <pattern pos="195852" muted="0" steps="16" name="" type="1">
          <note key="28" pos="264" pan="0" len="120" vol="100" />
          <note key="28" pos="648" pan="0" len="120" vol="100" />
          <note key="28" pos="1032" pan="0" len="120" vol="100" />
          <note key="28" pos="1416" pan="0" len="120" vol="100" />
        </pattern>
        <pattern pos="268044" muted="0" steps="16" name="" type="1">
          <note key="74" pos="360" pan="0" len="408" vol="100" />
        </pattern>
      </track>
      <track solo="0" name="64 (Ch5)" type="0" muted="0">
        <instrumenttrack usemasterpitch="1" pitch="0.0" basenote="57" pan="0" pitchrange="12" vol="30">
          <eldata />
          <instrument name="tripleoscillator" />
        </instrumenttrack>
        <pattern pos="200460" muted="0" steps="16" name="" type="1">
          <note key="35" pos="0" pan="0" len="72" vol="100" />
          <note key="37" pos="72" pan="0" len="72" vol="100" />
          <note key="38" pos="144" pan="0" len="48" vol="100" />
          <note key="40" pos="192" pan="0" len="72" vol="100" />
        </pattern>
        <pattern pos="56448" muted="0" steps="16" name="" type="1">
          <note key="62" pos="0" pan="0" len="288" vol="100" />
          <note key="62" pos="288" pan="0" len="144" vol="100" />
          <note key="62" pos="432" pan="0" len="144" vol="100" />
        </pattern>
        <pattern pos="58752" muted="0" steps="16" name="" type="1">
          <note key="62" pos="0" pan="0" len="216" vol="100" />
          <note key="62" pos="288" pan="0" len="144" vol="100" />
          <note key="62" pos="432" pan="0" len="144" vol="100" />
        </pattern>
        <pattern pos="62208" muted="0" steps="16" name="" type="1">
          <note key="62" pos="0" pan="0" len="216" vol="100" />
          <note key="64" pos="288" pan="0" len="144" vol="100" />
          <note key="65" pos="432" pan="0" len="144" vol="100" />
          <note key="62" pos="576" pan="0" len="216" vol="100" />
          <note key="64" pos="864" pan="0" len="144" vol="100" />
          <note key="65" pos="1008" pan="0" len="144" vol="100" />
        </pattern>
        <pattern pos="65664" muted="0" steps="16" name="" type="1">
          <note key="62" pos="0" pan="0" len="288" vol="100" />
          <note key="62" pos="288" pan="0" len="144" vol="100" />
          <note key="62" pos="432" pan="0" len="144" vol="100" />
        </pattern>
        <pattern pos="169740" muted="0" steps="16" name="" type="1">
          <note key="64" pos="2208" pan="0" len="84" vol="100" />
        </pattern>
        <pattern pos="172812" muted="0" steps="16" name="" type="1">
          <note key="81" pos="768" pan="0" len="48" vol="100" />
          <note key="81" pos="816" pan="0" len="24" vol="100" />
          <note key="79" pos="840" pan="0" len="24" vol="100" />
          <note key="81" pos="864" pan="0" len="12" vol="100" />
          <note key="81" pos="912" pan="0" len="24" vol="100" />
          <note key="79" pos="936" pan="0" len="24" vol="100" />
          <note key="81" pos="960" pan="0" len="24" vol="100" />
          <note key="84" pos="984" pan="0" len="48" vol="100" />
          <note key="84" pos="1032" pan="0" len="24" vol="100" />
          <note key="79" pos="1056" pan="0" len="72" vol="100" />
          <note key="79" pos="1128" pan="0" len="12" vol="100" />
          <note key="77" pos="1140" pan="0" len="12" vol="100" />
          <note key="79" pos="1152" pan="0" len="48" vol="100" />
          <note key="79" pos="1200" pan="0" len="24" vol="100" />
          <note key="77" pos="1224" pan="0" len="24" vol="100" />
          <note key="79" pos="1248" pan="0" len="48" vol="100" />
          <note key="79" pos="1296" pan="0" len="24" vol="100" />
          <note key="77" pos="1320" pan="0" len="24" vol="100" />
          <note key="79" pos="1344" pan="0" len="24" vol="100" />
          <note key="82" pos="1368" pan="0" len="48" vol="100" />
          <note key="82" pos="1416" pan="0" len="24" vol="100" />
          <note key="77" pos="1440" pan="0" len="72" vol="100" />
          <note key="81" pos="1512" pan="0" len="12" vol="100" />
          <note key="79" pos="1524" pan="0" len="12" vol="100" />
        </pattern>
        <pattern pos="188172" muted="0" steps="16" name="" type="1">
          <note key="40" pos="0" pan="0" len="192" vol="100" />
          <note key="31" pos="192" pan="0" len="192" vol="100" />
          <note key="33" pos="384" pan="0" len="192" vol="100" />
          <note key="38" pos="576" pan="0" len="96" vol="100" />
          <note key="43" pos="672" pan="0" len="96" vol="100" />
          <note key="40" pos="768" pan="0" len="192" vol="100" />
          <note key="31" pos="960" pan="0" len="192" vol="100" />
          <note key="33" pos="1152" pan="0" len="192" vol="100" />
          <note key="38" pos="1344" pan="0" len="96" vol="100" />
          <note key="43" pos="1440" pan="0" len="96" vol="100" />
        </pattern>
        <pattern pos="189708" muted="0" steps="16" name="" type="1">
          <note key="40" pos="0" pan="0" len="192" vol="100" />
          <note key="31" pos="192" pan="0" len="192" vol="100" />
          <note key="33" pos="384" pan="0" len="192" vol="100" />
          <note key="38" pos="576" pan="0" len="96" vol="100" />
          <note key="43" pos="672" pan="0" len="96" vol="100" />
          <note key="40" pos="768" pan="0" len="192" vol="100" />
          <note key="31" pos="960" pan="0" len="192" vol="100" />
          <note key="33" pos="1152" pan="0" len="192" vol="100" />
          <note key="38" pos="1344" pan="0" len="96" vol="100" />
          <note key="43" pos="1440" pan="0" len="96" vol="100" />
        </pattern>
        <pattern pos="191244" muted="0" steps="16" name="" type="1">
          <note key="35" pos="0" pan="0" len="72" vol="100" />
          <note key="37" pos="72" pan="0" len="72" vol="100" />
          <note key="38" pos="144" pan="0" len="48" vol="100" />
          <note key="40" pos="192" pan="0" len="72" vol="100" />
          <note key="40" pos="264" pan="0" len="120" vol="100" />
          <note key="33" pos="384" pan="0" len="72" vol="100" />
          <note key="35" pos="456" pan="0" len="72" vol="100" />
          <note key="31" pos="528" pan="0" len="48" vol="100" />
          <note key="40" pos="576" pan="0" len="72" vol="100" />
          <note key="40" pos="648" pan="0" len="120" vol="100" />
          <note key="35" pos="768" pan="0" len="72" vol="100" />
          <note key="37" pos="840" pan="0" len="72" vol="100" />
          <note key="38" pos="912" pan="0" len="48" vol="100" />
          <note key="40" pos="960" pan="0" len="72" vol="100" />
          <note key="40" pos="1032" pan="0" len="120" vol="100" />
          <note key="33" pos="1152" pan="0" len="72" vol="100" />
          <note key="35" pos="1224" pan="0" len="72" vol="100" />
          <note key="31" pos="1296" pan="0" len="48" vol="100" />
          <note key="40" pos="1344" pan="0" len="72" vol="100" />
          <note key="40" pos="1416" pan="0" len="120" vol="100" />
        </pattern>
        <pattern pos="194316" muted="0" steps="16" name="" type="1">
          <note key="40" pos="0" pan="0" len="192" vol="100" />
          <note key="31" pos="192" pan="0" len="192" vol="100" />
          <note key="33" pos="384" pan="0" len="192" vol="100" />
          <note key="38" pos="576" pan="0" len="96" vol="100" />
          <note key="43" pos="672" pan="0" len="96" vol="100" />
          <note key="40" pos="768" pan="0" len="192" vol="100" />
          <note key="31" pos="960" pan="0" len="192" vol="100" />
          <note key="33" pos="1152" pan="0" len="192" vol="100" />
          <note key="38" pos="1344" pan="0" len="96" vol="100" />
          <note key="43" pos="1440" pan="0" len="96" vol="100" />
        </pattern>
        <pattern pos="195852" muted="0" steps="16" name="" type="1">
          <note key="35" pos="0" pan="0" len="72" vol="100" />
          <note key="37" pos="72" pan="0" len="72" vol="100" />
          <note key="38" pos="144" pan="0" len="48" vol="100" />
          <note key="40" pos="192" pan="0" len="72" vol="100" />
          <note key="40" pos="264" pan="0" len="120" vol="100" />
          <note key="33" pos="384" pan="0" len="72" vol="100" />
          <note key="35" pos="456" pan="0" len="72" vol="100" />
          <note key="31" pos="528" pan="0" len="48" vol="100" />
          <note key="40" pos="576" pan="0" len="72" vol="100" />
          <note key="40" pos="648" pan="0" len="120" vol="100" />
          <note key="35" pos="768" pan="0" len="72" vol="100" />
          <note key="37" pos="840" pan="0" len="72" vol="100" />
          <note key="38" pos="912" pan="0" len="48" vol="100" />
          <note key="40" pos="960" pan="0" len="72" vol="100" />
          <note key="40" pos="1032" pan="0" len="120" vol="100" />
          <note key="33" pos="1152" pan="0" len="72" vol="100" />
          <note key="35" pos="1224" pan="0" len="72" vol="100" />
          <note key="31" pos="1296" pan="0" len="48" vol="100" />
          <note key="40" pos="1344" pan="0" len="72" vol="100" />
          <note key="40" pos="1416" pan="0" len="120" vol="100" />
        </pattern>
      </track>
      <track solo="0" name="64 (Ch6)" type="0" muted="0">
        <instrumenttrack usemasterpitch="1" pitch="0.0" basenote="57" pan="0" pitchrange="12" vol="30">
          <eldata />
          <instrument name="tripleoscillator" />
        </instrumenttrack>
        <pattern pos="169740" muted="0" steps="16" name="" type="1">
          <note key="67" pos="2208" pan="0" len="84" vol="100" />
        </pattern>
        <pattern pos="49152" muted="0" steps="16" name="" type="1">
          <note key="31" pos="0" pan="0" len="72" vol="100" />
          <note key="31" pos="72" pan="0" len="72" vol="100" />
          <note key="31" pos="144" pan="0" len="48" vol="100" />
          <note key="34" pos="192" pan="0" len="72" vol="100" />
          <note key="34" pos="264" pan="0" len="72" vol="100" />
          <note key="34" pos="336" pan="0" len="48" vol="100" />
          <note key="32" pos="384" pan="0" len="72" vol="100" />
          <note key="32" pos="456" pan="0" len="72" vol="100" />
          <note key="32" pos="528" pan="0" len="48" vol="100" />
          <note key="33" pos="576" pan="0" len="72" vol="100" />
          <note key="33" pos="648" pan="0" len="72" vol="100" />
          <note key="33" pos="720" pan="0" len="48" vol="100" />
          <note key="32" pos="768" pan="0" len="72" vol="100" />
          <note key="32" pos="840" pan="0" len="72" vol="100" />
          <note key="32" pos="912" pan="0" len="48" vol="100" />
          <note key="35" pos="960" pan="0" len="72" vol="100" />
          <note key="35" pos="1032" pan="0" len="72" vol="100" />
          <note key="35" pos="1104" pan="0" len="48" vol="100" />
          <note key="32" pos="1152" pan="0" len="72" vol="100" />
          <note key="32" pos="1224" pan="0" len="72" vol="100" />
          <note key="32" pos="1296" pan="0" len="48" vol="100" />
          <note key="33" pos="1344" pan="0" len="72" vol="100" />
          <note key="33" pos="1416" pan="0" len="72" vol="100" />
          <note key="33" pos="1488" pan="0" len="48" vol="100" />
        </pattern>
        <pattern pos="168204" muted="0" steps="16" name="" type="1">
          <note key="33" pos="0" pan="0" len="96" vol="100" />
          <note key="33" pos="96" pan="0" len="96" vol="100" />
          <note key="33" pos="192" pan="0" len="96" vol="100" />
          <note key="33" pos="288" pan="0" len="96" vol="100" />
          <note key="33" pos="384" pan="0" len="96" vol="100" />
          <note key="33" pos="480" pan="0" len="96" vol="100" />
          <note key="33" pos="576" pan="0" len="96" vol="100" />
          <note key="33" pos="672" pan="0" len="96" vol="100" />
          <note key="33" pos="768" pan="0" len="96" vol="100" />
          <note key="33" pos="864" pan="0" len="96" vol="100" />
          <note key="33" pos="960" pan="0" len="96" vol="100" />
          <note key="33" pos="1056" pan="0" len="96" vol="100" />
          <note key="33" pos="1152" pan="0" len="96" vol="100" />
          <note key="33" pos="1248" pan="0" len="96" vol="100" />
          <note key="33" pos="1344" pan="0" len="96" vol="100" />
          <note key="33" pos="1440" pan="0" len="96" vol="100" />
        </pattern>
      </track>
      <track solo="0" name="64 (Ch7)" type="0" muted="0">
        <instrumenttrack usemasterpitch="1" pitch="0.0" basenote="57" pan="0" pitchrange="12" vol="30">
          <eldata />
          <instrument name="tripleoscillator" />
        </instrumenttrack>
        <pattern pos="280476" muted="0" steps="16" name="" type="1">
          <note key="51" pos="432" pan="0" len="336" vol="100" />
        </pattern>
        <pattern pos="169740" muted="0" steps="16" name="" type="1">
          <note key="72" pos="2208" pan="0" len="84" vol="100" />
        </pattern>
        <pattern pos="269388" muted="0" steps="16" name="" type="1">
          <note key="39" pos="0" pan="0" len="24" vol="100" />
          <note key="39" pos="24" pan="0" len="12" vol="31" />
          <note key="39" pos="36" pan="0" len="24" vol="62" />
          <note key="51" pos="60" pan="0" len="12" vol="31" />
          <note key="51" pos="72" pan="0" len="24" vol="47" />
          <note key="39" pos="96" pan="0" len="12" vol="16" />
          <note key="39" pos="108" pan="0" len="36" vol="31" />
          <note key="39" pos="144" pan="0" len="24" vol="100" />
          <note key="39" pos="168" pan="0" len="12" vol="31" />
          <note key="39" pos="180" pan="0" len="24" vol="62" />
          <note key="51" pos="204" pan="0" len="12" vol="31" />
          <note key="51" pos="216" pan="0" len="24" vol="47" />
          <note key="39" pos="240" pan="0" len="12" vol="16" />
          <note key="39" pos="252" pan="0" len="36" vol="31" />
          <note key="39" pos="288" pan="0" len="24" vol="100" />
          <note key="39" pos="312" pan="0" len="12" vol="31" />
          <note key="39" pos="324" pan="0" len="24" vol="62" />
          <note key="51" pos="348" pan="0" len="12" vol="31" />
          <note key="51" pos="360" pan="0" len="24" vol="47" />
          <note key="39" pos="384" pan="0" len="12" vol="16" />
          <note key="39" pos="396" pan="0" len="36" vol="31" />
          <note key="42" pos="432" pan="0" len="24" vol="100" />
          <note key="42" pos="456" pan="0" len="12" vol="31" />
          <note key="54" pos="468" pan="0" len="24" vol="62" />
          <note key="54" pos="492" pan="0" len="12" vol="100" />
          <note key="44" pos="504" pan="0" len="24" vol="100" />
          <note key="51" pos="528" pan="0" len="12" vol="62" />
          <note key="56" pos="540" pan="0" len="24" vol="78" />
          <note key="56" pos="564" pan="0" len="12" vol="100" />
          <note key="39" pos="576" pan="0" len="24" vol="100" />
          <note key="39" pos="600" pan="0" len="12" vol="31" />
          <note key="39" pos="612" pan="0" len="24" vol="62" />
          <note key="51" pos="636" pan="0" len="12" vol="31" />
          <note key="51" pos="648" pan="0" len="24" vol="47" />
          <note key="39" pos="672" pan="0" len="12" vol="16" />
          <note key="39" pos="684" pan="0" len="36" vol="31" />
          <note key="39" pos="720" pan="0" len="24" vol="100" />
          <note key="39" pos="744" pan="0" len="12" vol="31" />
          <note key="39" pos="756" pan="0" len="24" vol="62" />
          <note key="51" pos="780" pan="0" len="12" vol="31" />
          <note key="51" pos="792" pan="0" len="24" vol="47" />
          <note key="39" pos="816" pan="0" len="12" vol="16" />
          <note key="39" pos="828" pan="0" len="36" vol="31" />
          <note key="39" pos="864" pan="0" len="24" vol="100" />
          <note key="39" pos="888" pan="0" len="12" vol="31" />
          <note key="39" pos="900" pan="0" len="24" vol="62" />
          <note key="51" pos="924" pan="0" len="12" vol="31" />
          <note key="51" pos="936" pan="0" len="24" vol="47" />
          <note key="39" pos="960" pan="0" len="12" vol="16" />
          <note key="39" pos="972" pan="0" len="36" vol="31" />
          <note key="42" pos="1008" pan="0" len="24" vol="100" />
          <note key="42" pos="1032" pan="0" len="12" vol="31" />
          <note key="54" pos="1044" pan="0" len="24" vol="62" />
          <note key="54" pos="1068" pan="0" len="12" vol="100" />
          <note key="44" pos="1080" pan="0" len="24" vol="100" />
          <note key="51" pos="1104" pan="0" len="12" vol="62" />
          <note key="56" pos="1116" pan="0" len="24" vol="78" />
          <note key="56" pos="1140" pan="0" len="12" vol="100" />
        </pattern>
        <pattern pos="271692" muted="0" steps="16" name="" type="1">
          <note key="40" pos="576" pan="0" len="36" vol="100" />
          <note key="47" pos="612" pan="0" len="36" vol="100" />
          <note key="52" pos="648" pan="0" len="36" vol="100" />
          <note key="54" pos="684" pan="0" len="36" vol="100" />
          <note key="59" pos="720" pan="0" len="36" vol="100" />
          <note key="58" pos="756" pan="0" len="36" vol="100" />
          <note key="54" pos="792" pan="0" len="36" vol="100" />
          <note key="52" pos="828" pan="0" len="36" vol="100" />
          <note key="37" pos="864" pan="0" len="36" vol="100" />
          <note key="44" pos="900" pan="0" len="36" vol="100" />
          <note key="49" pos="936" pan="0" len="36" vol="100" />
          <note key="52" pos="972" pan="0" len="36" vol="100" />
          <note key="37" pos="1008" pan="0" len="36" vol="100" />
          <note key="44" pos="1044" pan="0" len="36" vol="100" />
          <note key="49" pos="1080" pan="0" len="36" vol="100" />
          <note key="52" pos="1116" pan="0" len="36" vol="100" />
        </pattern>
        <pattern pos="276444" muted="0" steps="16" name="" type="1">
          <note key="40" pos="576" pan="0" len="36" vol="100" />
          <note key="47" pos="612" pan="0" len="36" vol="100" />
          <note key="52" pos="648" pan="0" len="36" vol="100" />
          <note key="54" pos="684" pan="0" len="36" vol="100" />
          <note key="59" pos="720" pan="0" len="36" vol="100" />
          <note key="58" pos="756" pan="0" len="36" vol="100" />
          <note key="54" pos="792" pan="0" len="36" vol="100" />
          <note key="52" pos="828" pan="0" len="36" vol="100" />
          <note key="37" pos="864" pan="0" len="36" vol="100" />
          <note key="44" pos="900" pan="0" len="36" vol="100" />
          <note key="49" pos="936" pan="0" len="36" vol="100" />
          <note key="52" pos="972" pan="0" len="36" vol="100" />
          <note key="37" pos="1008" pan="0" len="36" vol="100" />
          <note key="44" pos="1044" pan="0" len="36" vol="100" />
          <note key="49" pos="1080" pan="0" len="36" vol="100" />
          <note key="52" pos="1116" pan="0" len="36" vol="100" />
        </pattern>
      </track>
      <track solo="0" name="64 (Ch8)" type="0" muted="0">
        <instrumenttrack usemasterpitch="1" pitch="0.0" basenote="57" pan="0" pitchrange="12" vol="30">
          <eldata />
          <instrument name="tripleoscillator" />
        </instrumenttrack>
        <pattern pos="280476" muted="0" steps="16" name="" type="1">
          <note key="39" pos="432" pan="0" len="336" vol="100" />
        </pattern>
        <pattern pos="92160" muted="0" steps="16" name="" type="1">
          <note key="36" pos="720" pan="0" len="1536" vol="80" />
          <note key="36" pos="2256" pan="0" len="816" vol="80" />
        </pattern>
        <pattern pos="95232" muted="0" steps="16" name="" type="1">
          <note key="36" pos="720" pan="0" len="1536" vol="80" />
          <note key="36" pos="2256" pan="0" len="48" vol="80" />
        </pattern>
        <pattern pos="97536" muted="0" steps="16" name="" type="1">
          <note key="38" pos="0" pan="0" len="672" vol="100" />
        </pattern>
        <pattern pos="98304" muted="0" steps="16" name="" type="1">
          <note key="38" pos="0" pan="0" len="192" vol="100" />
          <note key="38" pos="768" pan="0" len="192" vol="100" />
        </pattern>
        <pattern pos="99840" muted="0" steps="16" name="" type="1">
          <note key="38" pos="0" pan="0" len="192" vol="100" />
          <note key="38" pos="768" pan="0" len="192" vol="100" />
        </pattern>
        <pattern pos="110592" muted="0" steps="16" name="" type="1">
          <note key="36" pos="720" pan="0" len="1536" vol="80" />
          <note key="36" pos="2256" pan="0" len="816" vol="80" />
        </pattern>
        <pattern pos="241932" muted="0" steps="16" name="" type="1">
          <note key="58" pos="0" pan="0" len="24" vol="100" />
          <note key="58" pos="24" pan="0" len="12" vol="31" />
          <note key="58" pos="36" pan="0" len="12" vol="62" />
          <note key="58" pos="48" pan="0" len="24" vol="100" />
          <note key="58" pos="72" pan="0" len="12" vol="3" />
          <note key="58" pos="84" pan="0" len="24" vol="62" />
          <note key="58" pos="108" pan="0" len="24" vol="31" />
          <note key="58" pos="132" pan="0" len="24" vol="16" />
          <note key="58" pos="156" pan="0" len="228" vol="8" />
          <note key="58" pos="384" pan="0" len="24" vol="100" />
          <note key="58" pos="408" pan="0" len="12" vol="31" />
          <note key="58" pos="420" pan="0" len="12" vol="62" />
          <note key="58" pos="432" pan="0" len="24" vol="100" />
          <note key="58" pos="456" pan="0" len="12" vol="3" />
          <note key="58" pos="468" pan="0" len="24" vol="62" />
          <note key="58" pos="492" pan="0" len="24" vol="31" />
          <note key="58" pos="516" pan="0" len="24" vol="16" />
          <note key="58" pos="540" pan="0" len="228" vol="8" />
          <note key="58" pos="768" pan="0" len="24" vol="100" />
          <note key="58" pos="792" pan="0" len="12" vol="31" />
          <note key="58" pos="804" pan="0" len="12" vol="62" />
          <note key="58" pos="816" pan="0" len="24" vol="100" />
          <note key="58" pos="840" pan="0" len="12" vol="3" />
          <note key="58" pos="852" pan="0" len="24" vol="62" />
          <note key="58" pos="876" pan="0" len="24" vol="31" />
          <note key="58" pos="900" pan="0" len="24" vol="16" />
          <note key="58" pos="924" pan="0" len="228" vol="8" />
          <note key="58" pos="1152" pan="0" len="24" vol="100" />
          <note key="58" pos="1176" pan="0" len="12" vol="31" />
          <note key="58" pos="1188" pan="0" len="12" vol="62" />
          <note key="58" pos="1200" pan="0" len="24" vol="100" />
          <note key="58" pos="1224" pan="0" len="12" vol="3" />
          <note key="58" pos="1236" pan="0" len="24" vol="62" />
          <note key="58" pos="1260" pan="0" len="24" vol="31" />
          <note key="58" pos="1284" pan="0" len="24" vol="16" />
          <note key="58" pos="1308" pan="0" len="228" vol="8" />
        </pattern>
        <pattern pos="246540" muted="0" steps="16" name="" type="1">
          <note key="58" pos="0" pan="0" len="24" vol="100" />
          <note key="58" pos="24" pan="0" len="12" vol="31" />
          <note key="58" pos="36" pan="0" len="12" vol="62" />
          <note key="58" pos="48" pan="0" len="24" vol="100" />
          <note key="58" pos="72" pan="0" len="12" vol="3" />
          <note key="58" pos="84" pan="0" len="24" vol="62" />
          <note key="58" pos="108" pan="0" len="24" vol="31" />
          <note key="58" pos="132" pan="0" len="24" vol="16" />
          <note key="58" pos="156" pan="0" len="228" vol="8" />
          <note key="58" pos="384" pan="0" len="24" vol="100" />
          <note key="58" pos="408" pan="0" len="12" vol="31" />
          <note key="58" pos="420" pan="0" len="12" vol="62" />
          <note key="58" pos="432" pan="0" len="24" vol="100" />
          <note key="58" pos="456" pan="0" len="12" vol="3" />
          <note key="58" pos="468" pan="0" len="24" vol="62" />
          <note key="58" pos="492" pan="0" len="24" vol="31" />
          <note key="58" pos="516" pan="0" len="24" vol="16" />
          <note key="58" pos="540" pan="0" len="228" vol="8" />
          <note key="58" pos="768" pan="0" len="24" vol="100" />
          <note key="58" pos="792" pan="0" len="12" vol="31" />
          <note key="58" pos="804" pan="0" len="12" vol="62" />
          <note key="58" pos="816" pan="0" len="24" vol="100" />
          <note key="58" pos="840" pan="0" len="12" vol="3" />
          <note key="58" pos="852" pan="0" len="24" vol="62" />
          <note key="58" pos="876" pan="0" len="24" vol="31" />
          <note key="58" pos="900" pan="0" len="24" vol="16" />
          <note key="58" pos="924" pan="0" len="228" vol="8" />
          <note key="58" pos="1152" pan="0" len="24" vol="100" />
          <note key="58" pos="1176" pan="0" len="12" vol="31" />
          <note key="58" pos="1188" pan="0" len="12" vol="62" />
          <note key="58" pos="1200" pan="0" len="24" vol="100" />
          <note key="58" pos="1224" pan="0" len="12" vol="3" />
          <note key="58" pos="1236" pan="0" len="24" vol="62" />
          <note key="58" pos="1260" pan="0" len="24" vol="31" />
          <note key="58" pos="1284" pan="0" len="24" vol="16" />
          <note key="58" pos="1308" pan="0" len="228" vol="8" />
        </pattern>
        <pattern pos="271692" muted="0" steps="16" name="" type="1">
          <note key="40" pos="24" pan="0" len="36" vol="50" />
          <note key="47" pos="60" pan="0" len="36" vol="50" />
          <note key="52" pos="96" pan="0" len="36" vol="50" />
          <note key="54" pos="132" pan="0" len="36" vol="50" />
          <note key="59" pos="168" pan="0" len="36" vol="50" />
          <note key="58" pos="204" pan="0" len="36" vol="50" />
          <note key="54" pos="240" pan="0" len="36" vol="50" />
          <note key="52" pos="276" pan="0" len="36" vol="50" />
          <note key="37" pos="312" pan="0" len="36" vol="50" />
          <note key="44" pos="348" pan="0" len="36" vol="50" />
          <note key="49" pos="384" pan="0" len="36" vol="50" />
          <note key="52" pos="420" pan="0" len="36" vol="50" />
          <note key="37" pos="456" pan="0" len="36" vol="50" />
          <note key="44" pos="492" pan="0" len="36" vol="50" />
          <note key="49" pos="528" pan="0" len="72" vol="50" />
          <note key="40" pos="600" pan="0" len="36" vol="50" />
          <note key="47" pos="636" pan="0" len="36" vol="50" />
          <note key="52" pos="672" pan="0" len="36" vol="50" />
          <note key="54" pos="708" pan="0" len="36" vol="50" />
          <note key="59" pos="744" pan="0" len="36" vol="50" />
          <note key="58" pos="780" pan="0" len="36" vol="50" />
          <note key="54" pos="816" pan="0" len="36" vol="50" />
          <note key="52" pos="852" pan="0" len="36" vol="50" />
          <note key="37" pos="888" pan="0" len="36" vol="50" />
          <note key="44" pos="924" pan="0" len="36" vol="50" />
          <note key="49" pos="960" pan="0" len="36" vol="50" />
          <note key="52" pos="996" pan="0" len="36" vol="50" />
          <note key="37" pos="1032" pan="0" len="36" vol="50" />
          <note key="44" pos="1068" pan="0" len="36" vol="50" />
          <note key="49" pos="1104" pan="0" len="48" vol="50" />
        </pattern>
        <pattern pos="276444" muted="0" steps="16" name="" type="1">
          <note key="40" pos="24" pan="0" len="36" vol="50" />
          <note key="47" pos="60" pan="0" len="36" vol="50" />
          <note key="52" pos="96" pan="0" len="36" vol="50" />
          <note key="54" pos="132" pan="0" len="36" vol="50" />
          <note key="59" pos="168" pan="0" len="36" vol="50" />
          <note key="58" pos="204" pan="0" len="36" vol="50" />
          <note key="54" pos="240" pan="0" len="36" vol="50" />
          <note key="52" pos="276" pan="0" len="36" vol="50" />
          <note key="37" pos="312" pan="0" len="36" vol="50" />
          <note key="44" pos="348" pan="0" len="36" vol="50" />
          <note key="49" pos="384" pan="0" len="36" vol="50" />
          <note key="52" pos="420" pan="0" len="36" vol="50" />
          <note key="37" pos="456" pan="0" len="36" vol="50" />
          <note key="44" pos="492" pan="0" len="36" vol="50" />
          <note key="49" pos="528" pan="0" len="72" vol="50" />
          <note key="40" pos="600" pan="0" len="36" vol="50" />
          <note key="47" pos="636" pan="0" len="36" vol="50" />
          <note key="52" pos="672" pan="0" len="36" vol="50" />
          <note key="54" pos="708" pan="0" len="36" vol="50" />
          <note key="59" pos="744" pan="0" len="36" vol="50" />
          <note key="58" pos="780" pan="0" len="36" vol="50" />
          <note key="54" pos="816" pan="0" len="36" vol="50" />
          <note key="52" pos="852" pan="0" len="36" vol="50" />
          <note key="37" pos="888" pan="0" len="36" vol="50" />
          <note key="44" pos="924" pan="0" len="36" vol="50" />
          <note key="49" pos="960" pan="0" len="36" vol="50" />
          <note key="52" pos="996" pan="0" len="36" vol="50" />
          <note key="37" pos="1032" pan="0" len="36" vol="50" />
          <note key="44" pos="1068" pan="0" len="36" vol="50" />
          <note key="49" pos="1104" pan="0" len="48" vol="50" />
        </pattern>
        <pattern pos="277596" muted="0" steps="16" name="" type="1">
          <note key="39" pos="0" pan="0" len="60" vol="100" />
          <note key="39" pos="60" pan="0" len="12" vol="100" />
          <note key="41" pos="72" pan="0" len="72" vol="100" />
          <note key="42" pos="144" pan="0" len="60" vol="100" />
          <note key="42" pos="204" pan="0" len="12" vol="100" />
          <note key="44" pos="216" pan="0" len="72" vol="100" />
          <note key="35" pos="288" pan="0" len="60" vol="100" />
          <note key="35" pos="348" pan="0" len="12" vol="100" />
          <note key="37" pos="360" pan="0" len="72" vol="100" />
          <note key="51" pos="432" pan="0" len="60" vol="100" />
          <note key="37" pos="492" pan="0" len="12" vol="100" />
          <note key="39" pos="504" pan="0" len="72" vol="100" />
          <note key="39" pos="576" pan="0" len="60" vol="100" />
          <note key="39" pos="636" pan="0" len="12" vol="100" />
          <note key="41" pos="648" pan="0" len="72" vol="100" />
          <note key="42" pos="720" pan="0" len="60" vol="100" />
          <note key="42" pos="780" pan="0" len="12" vol="100" />
          <note key="44" pos="792" pan="0" len="72" vol="100" />
          <note key="35" pos="864" pan="0" len="60" vol="100" />
          <note key="35" pos="924" pan="0" len="12" vol="100" />
          <note key="37" pos="936" pan="0" len="72" vol="100" />
          <note key="51" pos="1008" pan="0" len="60" vol="100" />
          <note key="37" pos="1068" pan="0" len="12" vol="100" />
          <note key="39" pos="1080" pan="0" len="72" vol="100" />
        </pattern>
        <pattern pos="279900" muted="0" steps="16" name="" type="1">
          <note key="39" pos="0" pan="0" len="60" vol="100" />
          <note key="39" pos="60" pan="0" len="12" vol="100" />
          <note key="33" pos="72" pan="0" len="72" vol="100" />
          <note key="39" pos="144" pan="0" len="432" vol="100" />
        </pattern>
      </track>
      <track solo="0" name="64 (Ch9)" type="0" muted="0">
        <instrumenttrack usemasterpitch="1" pitch="0.0" basenote="57" pan="0" pitchrange="12" vol="30">
          <eldata />
          <instrument name="tripleoscillator" />
        </instrumenttrack>
        <pattern pos="280476" muted="0" steps="16" name="" type="1">
          <note key="27" pos="144" pan="0" len="24" vol="100" />
          <note key="27" pos="168" pan="0" len="12" vol="62" />
          <note key="39" pos="180" pan="0" len="24" vol="78" />
          <note key="39" pos="204" pan="0" len="12" vol="47" />
          <note key="27" pos="216" pan="0" len="24" vol="62" />
          <note key="27" pos="240" pan="0" len="12" vol="47" />
          <note key="39" pos="252" pan="0" len="24" vol="100" />
          <note key="39" pos="276" pan="0" len="12" vol="47" />
          <note key="27" pos="288" pan="0" len="24" vol="100" />
          <note key="27" pos="312" pan="0" len="12" vol="62" />
          <note key="39" pos="324" pan="0" len="24" vol="78" />
          <note key="39" pos="348" pan="0" len="12" vol="47" />
          <note key="27" pos="360" pan="0" len="24" vol="62" />
          <note key="27" pos="384" pan="0" len="12" vol="47" />
          <note key="39" pos="396" pan="0" len="24" vol="100" />
          <note key="39" pos="420" pan="0" len="12" vol="47" />
        </pattern>
        <pattern pos="271692" muted="0" steps="16" name="" type="1">
          <note key="52" pos="12" pan="0" len="36" vol="59" />
          <note key="59" pos="48" pan="0" len="36" vol="59" />
          <note key="64" pos="84" pan="0" len="36" vol="59" />
          <note key="66" pos="120" pan="0" len="36" vol="59" />
          <note key="71" pos="156" pan="0" len="36" vol="59" />
          <note key="70" pos="192" pan="0" len="36" vol="59" />
          <note key="66" pos="228" pan="0" len="36" vol="59" />
          <note key="64" pos="264" pan="0" len="36" vol="59" />
          <note key="49" pos="300" pan="0" len="36" vol="59" />
          <note key="56" pos="336" pan="0" len="36" vol="59" />
          <note key="61" pos="372" pan="0" len="36" vol="59" />
          <note key="64" pos="408" pan="0" len="36" vol="59" />
          <note key="49" pos="444" pan="0" len="36" vol="59" />
          <note key="56" pos="480" pan="0" len="36" vol="59" />
          <note key="61" pos="516" pan="0" len="36" vol="59" />
          <note key="64" pos="552" pan="0" len="24" vol="59" />
          <note key="52" pos="588" pan="0" len="36" vol="70" />
          <note key="59" pos="624" pan="0" len="36" vol="70" />
          <note key="64" pos="660" pan="0" len="36" vol="70" />
          <note key="66" pos="696" pan="0" len="36" vol="70" />
          <note key="71" pos="732" pan="0" len="36" vol="70" />
          <note key="70" pos="768" pan="0" len="36" vol="70" />
          <note key="66" pos="804" pan="0" len="36" vol="70" />
          <note key="64" pos="840" pan="0" len="36" vol="70" />
          <note key="49" pos="876" pan="0" len="36" vol="70" />
          <note key="56" pos="912" pan="0" len="36" vol="70" />
          <note key="61" pos="948" pan="0" len="36" vol="70" />
          <note key="64" pos="984" pan="0" len="36" vol="70" />
          <note key="49" pos="1020" pan="0" len="36" vol="70" />
          <note key="56" pos="1056" pan="0" len="36" vol="70" />
          <note key="61" pos="1092" pan="0" len="36" vol="70" />
          <note key="64" pos="1128" pan="0" len="24" vol="70" />
        </pattern>
        <pattern pos="276444" muted="0" steps="16" name="" type="1">
          <note key="52" pos="12" pan="0" len="36" vol="59" />
          <note key="59" pos="48" pan="0" len="36" vol="59" />
          <note key="64" pos="84" pan="0" len="36" vol="59" />
          <note key="66" pos="120" pan="0" len="36" vol="59" />
          <note key="71" pos="156" pan="0" len="36" vol="59" />
          <note key="70" pos="192" pan="0" len="36" vol="59" />
          <note key="66" pos="228" pan="0" len="36" vol="59" />
          <note key="64" pos="264" pan="0" len="36" vol="59" />
          <note key="49" pos="300" pan="0" len="36" vol="59" />
          <note key="56" pos="336" pan="0" len="36" vol="59" />
          <note key="61" pos="372" pan="0" len="36" vol="59" />
          <note key="64" pos="408" pan="0" len="36" vol="59" />
          <note key="49" pos="444" pan="0" len="36" vol="59" />
          <note key="56" pos="480" pan="0" len="36" vol="59" />
          <note key="61" pos="516" pan="0" len="36" vol="59" />
          <note key="64" pos="552" pan="0" len="24" vol="59" />
          <note key="52" pos="588" pan="0" len="36" vol="70" />
          <note key="59" pos="624" pan="0" len="36" vol="70" />
          <note key="64" pos="660" pan="0" len="36" vol="70" />
          <note key="66" pos="696" pan="0" len="36" vol="70" />
          <note key="71" pos="732" pan="0" len="36" vol="70" />
          <note key="70" pos="768" pan="0" len="36" vol="70" />
          <note key="66" pos="804" pan="0" len="36" vol="70" />
          <note key="64" pos="840" pan="0" len="36" vol="70" />
          <note key="49" pos="876" pan="0" len="36" vol="70" />
          <note key="56" pos="912" pan="0" len="36" vol="70" />
          <note key="61" pos="948" pan="0" len="36" vol="70" />
          <note key="64" pos="984" pan="0" len="36" vol="70" />
          <note key="49" pos="1020" pan="0" len="36" vol="70" />
          <note key="56" pos="1056" pan="0" len="36" vol="70" />
          <note key="61" pos="1092" pan="0" len="36" vol="70" />
          <note key="64" pos="1128" pan="0" len="24" vol="70" />
        </pattern>
      </track>
      <track solo="0" name="64 (Ch10)" type="0" muted="0">
        <instrumenttrack usemasterpitch="1" pitch="0.0" basenote="57" pan="0" pitchrange="12" vol="30">
          <eldata />
          <instrument name="tripleoscillator" />
        </instrumenttrack>
        <pattern pos="270540" muted="0" steps="16" name="" type="1">
          <note key="27" pos="0" pan="0" len="24" vol="100" />
          <note key="27" pos="24" pan="0" len="12" vol="62" />
          <note key="39" pos="36" pan="0" len="24" vol="78" />
          <note key="39" pos="60" pan="0" len="12" vol="47" />
          <note key="27" pos="72" pan="0" len="24" vol="62" />
          <note key="27" pos="96" pan="0" len="12" vol="47" />
          <note key="39" pos="108" pan="0" len="24" vol="100" />
          <note key="39" pos="132" pan="0" len="12" vol="47" />
          <note key="27" pos="144" pan="0" len="24" vol="100" />
          <note key="27" pos="168" pan="0" len="12" vol="62" />
          <note key="39" pos="180" pan="0" len="24" vol="78" />
          <note key="39" pos="204" pan="0" len="12" vol="47" />
          <note key="27" pos="216" pan="0" len="24" vol="62" />
          <note key="27" pos="240" pan="0" len="12" vol="47" />
          <note key="39" pos="252" pan="0" len="24" vol="100" />
          <note key="39" pos="276" pan="0" len="12" vol="47" />
          <note key="27" pos="288" pan="0" len="24" vol="100" />
          <note key="27" pos="312" pan="0" len="12" vol="62" />
          <note key="39" pos="324" pan="0" len="24" vol="78" />
          <note key="39" pos="348" pan="0" len="12" vol="47" />
          <note key="27" pos="360" pan="0" len="24" vol="62" />
          <note key="27" pos="384" pan="0" len="12" vol="47" />
          <note key="39" pos="396" pan="0" len="24" vol="100" />
          <note key="39" pos="420" pan="0" len="12" vol="47" />
          <note key="27" pos="432" pan="0" len="24" vol="100" />
          <note key="27" pos="456" pan="0" len="12" vol="62" />
          <note key="39" pos="468" pan="0" len="24" vol="78" />
          <note key="39" pos="492" pan="0" len="12" vol="47" />
          <note key="27" pos="504" pan="0" len="24" vol="62" />
          <note key="27" pos="528" pan="0" len="12" vol="47" />
          <note key="39" pos="540" pan="0" len="24" vol="100" />
          <note key="39" pos="564" pan="0" len="12" vol="47" />
          <note key="27" pos="576" pan="0" len="24" vol="100" />
          <note key="27" pos="600" pan="0" len="12" vol="62" />
          <note key="39" pos="612" pan="0" len="24" vol="78" />
          <note key="39" pos="636" pan="0" len="12" vol="47" />
          <note key="27" pos="648" pan="0" len="24" vol="62" />
          <note key="27" pos="672" pan="0" len="12" vol="47" />
          <note key="39" pos="684" pan="0" len="24" vol="100" />
          <note key="39" pos="708" pan="0" len="12" vol="47" />
          <note key="27" pos="720" pan="0" len="24" vol="100" />
          <note key="27" pos="744" pan="0" len="12" vol="62" />
          <note key="39" pos="756" pan="0" len="24" vol="78" />
          <note key="39" pos="780" pan="0" len="12" vol="47" />
          <note key="27" pos="792" pan="0" len="24" vol="62" />
          <note key="27" pos="816" pan="0" len="12" vol="47" />
          <note key="39" pos="828" pan="0" len="24" vol="100" />
          <note key="39" pos="852" pan="0" len="12" vol="47" />
          <note key="27" pos="864" pan="0" len="24" vol="100" />
          <note key="27" pos="888" pan="0" len="12" vol="62" />
          <note key="39" pos="900" pan="0" len="24" vol="78" />
          <note key="39" pos="924" pan="0" len="12" vol="47" />
          <note key="27" pos="936" pan="0" len="24" vol="62" />
          <note key="27" pos="960" pan="0" len="12" vol="47" />
          <note key="39" pos="972" pan="0" len="24" vol="100" />
          <note key="39" pos="996" pan="0" len="12" vol="47" />
          <note key="27" pos="1008" pan="0" len="24" vol="100" />
          <note key="27" pos="1032" pan="0" len="12" vol="62" />
          <note key="39" pos="1044" pan="0" len="24" vol="78" />
          <note key="39" pos="1068" pan="0" len="12" vol="47" />
          <note key="27" pos="1080" pan="0" len="24" vol="62" />
          <note key="27" pos="1104" pan="0" len="12" vol="47" />
          <note key="39" pos="1116" pan="0" len="24" vol="100" />
          <note key="39" pos="1140" pan="0" len="12" vol="47" />
        </pattern>
        <pattern pos="92160" muted="0" steps="16" name="" type="1">
          <note key="50" pos="0" pan="0" len="96" vol="100" />
          <note key="38" pos="96" pan="0" len="96" vol="62" />
          <note key="38" pos="192" pan="0" len="96" vol="31" />
          <note key="38" pos="288" pan="0" len="456" vol="16" />
          <note key="38" pos="744" pan="0" len="12" vol="47" />
          <note key="45" pos="756" pan="0" len="12" vol="78" />
          <note key="50" pos="768" pan="0" len="96" vol="100" />
          <note key="38" pos="864" pan="0" len="96" vol="62" />
          <note key="38" pos="960" pan="0" len="96" vol="31" />
          <note key="38" pos="1056" pan="0" len="480" vol="16" />
          <note key="50" pos="1536" pan="0" len="96" vol="100" />
          <note key="38" pos="1632" pan="0" len="96" vol="62" />
          <note key="38" pos="1728" pan="0" len="96" vol="31" />
          <note key="38" pos="1824" pan="0" len="456" vol="16" />
          <note key="38" pos="2280" pan="0" len="12" vol="47" />
          <note key="45" pos="2292" pan="0" len="12" vol="78" />
          <note key="50" pos="2304" pan="0" len="96" vol="100" />
          <note key="38" pos="2400" pan="0" len="96" vol="62" />
          <note key="38" pos="2496" pan="0" len="96" vol="31" />
          <note key="38" pos="2592" pan="0" len="480" vol="16" />
        </pattern>
        <pattern pos="95232" muted="0" steps="16" name="" type="1">
          <note key="38" pos="96" pan="0" len="96" vol="62" />
          <note key="38" pos="192" pan="0" len="96" vol="31" />
          <note key="38" pos="288" pan="0" len="576" vol="16" />
          <note key="38" pos="864" pan="0" len="96" vol="62" />
          <note key="38" pos="960" pan="0" len="96" vol="31" />
          <note key="38" pos="1056" pan="0" len="576" vol="16" />
          <note key="38" pos="1632" pan="0" len="96" vol="62" />
          <note key="38" pos="1728" pan="0" len="96" vol="31" />
          <note key="38" pos="1824" pan="0" len="480" vol="16" />
        </pattern>
        <pattern pos="101376" muted="0" steps="16" name="" type="1">
          <note key="38" pos="0" pan="0" len="48" vol="100" />
          <note key="57" pos="48" pan="0" len="48" vol="47" />
          <note key="65" pos="96" pan="0" len="48" vol="78" />
          <note key="57" pos="144" pan="0" len="48" vol="100" />
          <note key="36" pos="192" pan="0" len="48" vol="100" />
          <note key="55" pos="240" pan="0" len="48" vol="47" />
          <note key="64" pos="288" pan="0" len="48" vol="62" />
          <note key="55" pos="336" pan="0" len="48" vol="100" />
          <note key="46" pos="384" pan="0" len="48" vol="100" />
          <note key="53" pos="432" pan="0" len="48" vol="47" />
          <note key="62" pos="480" pan="0" len="48" vol="62" />
          <note key="60" pos="528" pan="0" len="48" vol="100" />
          <note key="36" pos="576" pan="0" len="48" vol="100" />
          <note key="60" pos="624" pan="0" len="48" vol="47" />
          <note key="64" pos="672" pan="0" len="48" vol="62" />
          <note key="57" pos="720" pan="0" len="48" vol="100" />
          <note key="38" pos="768" pan="0" len="48" vol="100" />
          <note key="57" pos="816" pan="0" len="48" vol="47" />
          <note key="65" pos="864" pan="0" len="48" vol="78" />
          <note key="57" pos="912" pan="0" len="48" vol="100" />
          <note key="36" pos="960" pan="0" len="48" vol="100" />
          <note key="55" pos="1008" pan="0" len="48" vol="47" />
          <note key="64" pos="1056" pan="0" len="48" vol="62" />
          <note key="55" pos="1104" pan="0" len="48" vol="100" />
          <note key="46" pos="1152" pan="0" len="48" vol="100" />
          <note key="53" pos="1200" pan="0" len="48" vol="47" />
          <note key="62" pos="1248" pan="0" len="48" vol="62" />
          <note key="60" pos="1296" pan="0" len="48" vol="100" />
          <note key="36" pos="1344" pan="0" len="48" vol="100" />
          <note key="60" pos="1392" pan="0" len="48" vol="47" />
          <note key="64" pos="1440" pan="0" len="48" vol="62" />
          <note key="57" pos="1488" pan="0" len="48" vol="100" />
        </pattern>
        <pattern pos="102912" muted="0" steps="16" name="" type="1">
          <note key="38" pos="0" pan="0" len="48" vol="100" />
          <note key="57" pos="48" pan="0" len="48" vol="47" />
          <note key="65" pos="96" pan="0" len="48" vol="78" />
          <note key="57" pos="144" pan="0" len="48" vol="100" />
          <note key="36" pos="192" pan="0" len="48" vol="100" />
          <note key="55" pos="240" pan="0" len="48" vol="47" />
          <note key="64" pos="288" pan="0" len="48" vol="62" />
          <note key="55" pos="336" pan="0" len="48" vol="100" />
          <note key="46" pos="384" pan="0" len="48" vol="100" />
          <note key="53" pos="432" pan="0" len="48" vol="47" />
          <note key="62" pos="480" pan="0" len="48" vol="62" />
          <note key="60" pos="528" pan="0" len="48" vol="100" />
          <note key="36" pos="576" pan="0" len="48" vol="100" />
          <note key="60" pos="624" pan="0" len="48" vol="47" />
          <note key="64" pos="672" pan="0" len="48" vol="62" />
          <note key="57" pos="720" pan="0" len="48" vol="100" />
          <note key="38" pos="768" pan="0" len="48" vol="100" />
          <note key="57" pos="816" pan="0" len="48" vol="47" />
          <note key="65" pos="864" pan="0" len="48" vol="78" />
          <note key="57" pos="912" pan="0" len="48" vol="100" />
          <note key="36" pos="960" pan="0" len="48" vol="100" />
          <note key="55" pos="1008" pan="0" len="48" vol="47" />
          <note key="64" pos="1056" pan="0" len="48" vol="62" />
          <note key="55" pos="1104" pan="0" len="48" vol="100" />
          <note key="46" pos="1152" pan="0" len="48" vol="100" />
          <note key="53" pos="1200" pan="0" len="48" vol="47" />
          <note key="62" pos="1248" pan="0" len="48" vol="62" />
          <note key="60" pos="1296" pan="0" len="48" vol="100" />
          <note key="36" pos="1344" pan="0" len="48" vol="100" />
          <note key="60" pos="1392" pan="0" len="48" vol="47" />
          <note key="64" pos="1440" pan="0" len="48" vol="62" />
          <note key="57" pos="1488" pan="0" len="48" vol="100" />
        </pattern>
        <pattern pos="104448" muted="0" steps="16" name="" type="1">
          <note key="38" pos="0" pan="0" len="48" vol="100" />
          <note key="57" pos="48" pan="0" len="48" vol="47" />
          <note key="65" pos="96" pan="0" len="48" vol="78" />
          <note key="57" pos="144" pan="0" len="48" vol="100" />
          <note key="36" pos="192" pan="0" len="48" vol="100" />
          <note key="55" pos="240" pan="0" len="48" vol="47" />
          <note key="64" pos="288" pan="0" len="48" vol="62" />
          <note key="55" pos="336" pan="0" len="48" vol="100" />
          <note key="46" pos="384" pan="0" len="48" vol="100" />
          <note key="53" pos="432" pan="0" len="48" vol="47" />
          <note key="62" pos="480" pan="0" len="48" vol="62" />
          <note key="60" pos="528" pan="0" len="48" vol="100" />
          <note key="36" pos="576" pan="0" len="48" vol="100" />
          <note key="60" pos="624" pan="0" len="48" vol="47" />
          <note key="64" pos="672" pan="0" len="48" vol="62" />
          <note key="57" pos="720" pan="0" len="48" vol="100" />
          <note key="38" pos="768" pan="0" len="48" vol="100" />
          <note key="57" pos="816" pan="0" len="48" vol="47" />
          <note key="65" pos="864" pan="0" len="48" vol="78" />
          <note key="57" pos="912" pan="0" len="48" vol="100" />
          <note key="36" pos="960" pan="0" len="48" vol="100" />
          <note key="55" pos="1008" pan="0" len="48" vol="47" />
          <note key="64" pos="1056" pan="0" len="48" vol="62" />
          <note key="55" pos="1104" pan="0" len="48" vol="100" />
          <note key="46" pos="1152" pan="0" len="48" vol="100" />
          <note key="53" pos="1200" pan="0" len="48" vol="47" />
          <note key="62" pos="1248" pan="0" len="48" vol="62" />
          <note key="60" pos="1296" pan="0" len="48" vol="100" />
          <note key="36" pos="1344" pan="0" len="48" vol="100" />
          <note key="60" pos="1392" pan="0" len="48" vol="47" />
          <note key="64" pos="1440" pan="0" len="48" vol="62" />
          <note key="57" pos="1488" pan="0" len="48" vol="100" />
        </pattern>
        <pattern pos="105984" muted="0" steps="16" name="" type="1">
          <note key="38" pos="0" pan="0" len="48" vol="100" />
          <note key="57" pos="48" pan="0" len="48" vol="47" />
          <note key="65" pos="96" pan="0" len="48" vol="78" />
          <note key="57" pos="144" pan="0" len="48" vol="100" />
          <note key="36" pos="192" pan="0" len="48" vol="100" />
          <note key="55" pos="240" pan="0" len="48" vol="47" />
          <note key="64" pos="288" pan="0" len="48" vol="62" />
          <note key="55" pos="336" pan="0" len="48" vol="100" />
          <note key="46" pos="384" pan="0" len="48" vol="100" />
          <note key="53" pos="432" pan="0" len="48" vol="47" />
          <note key="62" pos="480" pan="0" len="48" vol="62" />
          <note key="60" pos="528" pan="0" len="48" vol="100" />
          <note key="36" pos="576" pan="0" len="48" vol="100" />
          <note key="60" pos="624" pan="0" len="48" vol="47" />
          <note key="64" pos="672" pan="0" len="48" vol="62" />
          <note key="57" pos="720" pan="0" len="48" vol="100" />
          <note key="38" pos="768" pan="0" len="48" vol="100" />
          <note key="57" pos="816" pan="0" len="48" vol="47" />
          <note key="65" pos="864" pan="0" len="48" vol="78" />
          <note key="57" pos="912" pan="0" len="48" vol="100" />
          <note key="36" pos="960" pan="0" len="48" vol="100" />
          <note key="55" pos="1008" pan="0" len="48" vol="47" />
          <note key="64" pos="1056" pan="0" len="48" vol="62" />
          <note key="55" pos="1104" pan="0" len="48" vol="100" />
          <note key="46" pos="1152" pan="0" len="48" vol="100" />
          <note key="53" pos="1200" pan="0" len="48" vol="47" />
          <note key="62" pos="1248" pan="0" len="48" vol="62" />
          <note key="60" pos="1296" pan="0" len="48" vol="100" />
          <note key="36" pos="1344" pan="0" len="48" vol="100" />
          <note key="60" pos="1392" pan="0" len="48" vol="47" />
          <note key="64" pos="1440" pan="0" len="48" vol="62" />
          <note key="57" pos="1488" pan="0" len="48" vol="100" />
        </pattern>
        <pattern pos="107520" muted="0" steps="16" name="" type="1">
          <note key="66" pos="192" pan="0" len="48" vol="100" />
          <note key="66" pos="240" pan="0" len="48" vol="62" />
          <note key="66" pos="288" pan="0" len="48" vol="47" />
          <note key="66" pos="336" pan="0" len="432" vol="31" />
          <note key="61" pos="960" pan="0" len="48" vol="100" />
          <note key="61" pos="1008" pan="0" len="48" vol="62" />
          <note key="61" pos="1056" pan="0" len="48" vol="47" />
          <note key="61" pos="1104" pan="0" len="432" vol="31" />
        </pattern>
        <pattern pos="109056" muted="0" steps="16" name="" type="1">
          <note key="66" pos="192" pan="0" len="48" vol="100" />
          <note key="66" pos="240" pan="0" len="48" vol="62" />
          <note key="66" pos="288" pan="0" len="48" vol="47" />
          <note key="66" pos="336" pan="0" len="432" vol="31" />
          <note key="61" pos="960" pan="0" len="48" vol="100" />
          <note key="61" pos="1008" pan="0" len="48" vol="62" />
          <note key="61" pos="1056" pan="0" len="48" vol="47" />
          <note key="61" pos="1104" pan="0" len="432" vol="31" />
        </pattern>
        <pattern pos="110592" muted="0" steps="16" name="" type="1">
          <note key="50" pos="0" pan="0" len="96" vol="100" />
          <note key="38" pos="96" pan="0" len="96" vol="62" />
          <note key="38" pos="192" pan="0" len="96" vol="31" />
          <note key="38" pos="288" pan="0" len="456" vol="16" />
          <note key="38" pos="744" pan="0" len="12" vol="47" />
          <note key="45" pos="756" pan="0" len="12" vol="78" />
          <note key="50" pos="768" pan="0" len="96" vol="100" />
          <note key="38" pos="864" pan="0" len="96" vol="62" />
          <note key="38" pos="960" pan="0" len="96" vol="31" />
          <note key="38" pos="1056" pan="0" len="480" vol="16" />
          <note key="50" pos="1536" pan="0" len="96" vol="100" />
          <note key="38" pos="1632" pan="0" len="96" vol="62" />
          <note key="38" pos="1728" pan="0" len="96" vol="31" />
          <note key="38" pos="1824" pan="0" len="456" vol="16" />
          <note key="38" pos="2280" pan="0" len="12" vol="47" />
          <note key="45" pos="2292" pan="0" len="12" vol="78" />
          <note key="50" pos="2304" pan="0" len="96" vol="100" />
          <note key="38" pos="2400" pan="0" len="96" vol="62" />
          <note key="38" pos="2496" pan="0" len="96" vol="31" />
          <note key="38" pos="2592" pan="0" len="480" vol="16" />
        </pattern>
      </track>
      <track solo="0" name="64 (Ch11)" type="0" muted="0">
        <instrumenttrack usemasterpitch="1" pitch="0.0" basenote="57" pan="0" pitchrange="12" vol="30">
          <eldata />
          <instrument name="tripleoscillator" />
        </instrumenttrack>
        <pattern pos="120576" muted="0" steps="16" name="" type="1">
          <note key="31" pos="0" pan="0" len="144" vol="100" />
          <note key="34" pos="144" pan="0" len="72" vol="100" />
          <note key="36" pos="216" pan="0" len="72" vol="100" />
          <note key="31" pos="288" pan="0" len="72" vol="100" />
          <note key="38" pos="360" pan="0" len="72" vol="100" />
          <note key="34" pos="432" pan="0" len="72" vol="100" />
          <note key="36" pos="504" pan="0" len="72" vol="100" />
          <note key="31" pos="576" pan="0" len="144" vol="100" />
          <note key="34" pos="720" pan="0" len="72" vol="100" />
          <note key="36" pos="792" pan="0" len="72" vol="100" />
          <note key="31" pos="864" pan="0" len="72" vol="100" />
          <note key="38" pos="936" pan="0" len="72" vol="100" />
          <note key="34" pos="1008" pan="0" len="72" vol="100" />
          <note key="36" pos="1080" pan="0" len="72" vol="100" />
          <note key="29" pos="1152" pan="0" len="144" vol="100" />
          <note key="36" pos="1296" pan="0" len="72" vol="100" />
          <note key="34" pos="1368" pan="0" len="72" vol="100" />
          <note key="29" pos="1440" pan="0" len="144" vol="100" />
          <note key="32" pos="1584" pan="0" len="72" vol="100" />
          <note key="34" pos="1656" pan="0" len="72" vol="100" />
          <note key="29" pos="1728" pan="0" len="144" vol="100" />
          <note key="32" pos="1872" pan="0" len="72" vol="100" />
          <note key="34" pos="1944" pan="0" len="72" vol="100" />
          <note key="29" pos="2016" pan="0" len="72" vol="100" />
          <note key="36" pos="2088" pan="0" len="72" vol="100" />
          <note key="32" pos="2160" pan="0" len="72" vol="100" />
          <note key="34" pos="2232" pan="0" len="72" vol="100" />
        </pattern>
        <pattern pos="115968" muted="0" steps="16" name="" type="1">
          <note key="31" pos="0" pan="0" len="144" vol="100" />
          <note key="34" pos="144" pan="0" len="72" vol="100" />
          <note key="36" pos="216" pan="0" len="72" vol="100" />
          <note key="31" pos="288" pan="0" len="72" vol="100" />
          <note key="38" pos="360" pan="0" len="72" vol="100" />
          <note key="34" pos="432" pan="0" len="72" vol="100" />
          <note key="36" pos="504" pan="0" len="72" vol="100" />
          <note key="31" pos="576" pan="0" len="144" vol="100" />
          <note key="34" pos="720" pan="0" len="72" vol="100" />
          <note key="36" pos="792" pan="0" len="72" vol="100" />
          <note key="31" pos="864" pan="0" len="72" vol="100" />
          <note key="38" pos="936" pan="0" len="72" vol="100" />
          <note key="34" pos="1008" pan="0" len="72" vol="100" />
          <note key="36" pos="1080" pan="0" len="72" vol="100" />
          <note key="29" pos="1152" pan="0" len="144" vol="100" />
          <note key="36" pos="1296" pan="0" len="72" vol="100" />
          <note key="34" pos="1368" pan="0" len="72" vol="100" />
          <note key="29" pos="1440" pan="0" len="144" vol="100" />
          <note key="32" pos="1584" pan="0" len="72" vol="100" />
          <note key="34" pos="1656" pan="0" len="72" vol="100" />
          <note key="29" pos="1728" pan="0" len="144" vol="100" />
          <note key="32" pos="1872" pan="0" len="72" vol="100" />
          <note key="34" pos="1944" pan="0" len="72" vol="100" />
          <note key="29" pos="2016" pan="0" len="72" vol="100" />
          <note key="36" pos="2088" pan="0" len="72" vol="100" />
          <note key="32" pos="2160" pan="0" len="72" vol="100" />
          <note key="34" pos="2232" pan="0" len="72" vol="100" />
        </pattern>
      </track>
      <track solo="0" name="64 (Ch12)" type="0" muted="0">
        <instrumenttrack usemasterpitch="1" pitch="0.0" basenote="57" pan="0" pitchrange="12" vol="30">
          <eldata />
          <instrument name="tripleoscillator" />
        </instrumenttrack>
        <pattern pos="274140" muted="0" steps="16" name="" type="1">
          <note key="32" pos="0" pan="0" len="12" vol="100" />
          <note key="44" pos="12" pan="0" len="12" vol="100" />
          <note key="32" pos="24" pan="0" len="12" vol="62" />
          <note key="42" pos="36" pan="0" len="24" vol="78" />
          <note key="44" pos="60" pan="0" len="24" vol="47" />
          <note key="32" pos="84" pan="0" len="12" vol="47" />
          <note key="32" pos="96" pan="0" len="12" vol="100" />
          <note key="42" pos="108" pan="0" len="24" vol="100" />
          <note key="44" pos="132" pan="0" len="12" vol="47" />
          <note key="32" pos="144" pan="0" len="12" vol="100" />
          <note key="44" pos="156" pan="0" len="12" vol="100" />
          <note key="32" pos="168" pan="0" len="12" vol="62" />
          <note key="42" pos="180" pan="0" len="24" vol="78" />
          <note key="44" pos="204" pan="0" len="24" vol="47" />
          <note key="32" pos="228" pan="0" len="12" vol="47" />
          <note key="32" pos="240" pan="0" len="12" vol="100" />
          <note key="42" pos="252" pan="0" len="24" vol="100" />
          <note key="44" pos="276" pan="0" len="12" vol="47" />
          <note key="32" pos="288" pan="0" len="12" vol="100" />
          <note key="44" pos="300" pan="0" len="12" vol="100" />
          <note key="32" pos="312" pan="0" len="12" vol="62" />
          <note key="42" pos="324" pan="0" len="24" vol="78" />
          <note key="44" pos="348" pan="0" len="24" vol="47" />
          <note key="32" pos="372" pan="0" len="12" vol="47" />
          <note key="32" pos="384" pan="0" len="12" vol="100" />
          <note key="42" pos="396" pan="0" len="24" vol="100" />
          <note key="44" pos="420" pan="0" len="12" vol="47" />
          <note key="32" pos="432" pan="0" len="12" vol="100" />
          <note key="44" pos="444" pan="0" len="12" vol="100" />
          <note key="32" pos="456" pan="0" len="12" vol="62" />
          <note key="42" pos="468" pan="0" len="24" vol="78" />
          <note key="44" pos="492" pan="0" len="24" vol="47" />
          <note key="32" pos="516" pan="0" len="12" vol="47" />
          <note key="32" pos="528" pan="0" len="12" vol="100" />
          <note key="42" pos="540" pan="0" len="24" vol="100" />
          <note key="44" pos="564" pan="0" len="12" vol="47" />
          <note key="32" pos="576" pan="0" len="12" vol="100" />
          <note key="44" pos="588" pan="0" len="12" vol="100" />
          <note key="32" pos="600" pan="0" len="12" vol="62" />
          <note key="42" pos="612" pan="0" len="24" vol="78" />
          <note key="44" pos="636" pan="0" len="24" vol="47" />
          <note key="32" pos="660" pan="0" len="12" vol="47" />
          <note key="32" pos="672" pan="0" len="12" vol="100" />
          <note key="42" pos="684" pan="0" len="24" vol="100" />
          <note key="44" pos="708" pan="0" len="12" vol="47" />
          <note key="32" pos="720" pan="0" len="12" vol="100" />
          <note key="44" pos="732" pan="0" len="12" vol="100" />
          <note key="32" pos="744" pan="0" len="12" vol="62" />
          <note key="42" pos="756" pan="0" len="24" vol="78" />
          <note key="44" pos="780" pan="0" len="24" vol="47" />
          <note key="32" pos="804" pan="0" len="12" vol="47" />
          <note key="32" pos="816" pan="0" len="12" vol="100" />
          <note key="42" pos="828" pan="0" len="24" vol="100" />
          <note key="44" pos="852" pan="0" len="12" vol="47" />
          <note key="32" pos="864" pan="0" len="12" vol="100" />
          <note key="44" pos="876" pan="0" len="12" vol="100" />
          <note key="32" pos="888" pan="0" len="12" vol="62" />
          <note key="42" pos="900" pan="0" len="24" vol="78" />
          <note key="44" pos="924" pan="0" len="24" vol="47" />
          <note key="32" pos="948" pan="0" len="12" vol="47" />
          <note key="32" pos="960" pan="0" len="12" vol="100" />
          <note key="42" pos="972" pan="0" len="24" vol="100" />
          <note key="44" pos="996" pan="0" len="12" vol="47" />
          <note key="32" pos="1008" pan="0" len="12" vol="100" />
          <note key="44" pos="1020" pan="0" len="12" vol="100" />
          <note key="32" pos="1032" pan="0" len="12" vol="62" />
          <note key="42" pos="1044" pan="0" len="24" vol="78" />
          <note key="44" pos="1068" pan="0" len="24" vol="47" />
          <note key="32" pos="1092" pan="0" len="12" vol="47" />
          <note key="32" pos="1104" pan="0" len="12" vol="100" />
          <note key="42" pos="1116" pan="0" len="24" vol="100" />
          <note key="44" pos="1140" pan="0" len="12" vol="47" />
          <note key="44" pos="1152" pan="0" len="12" vol="100" />
          <note key="56" pos="1164" pan="0" len="12" vol="100" />
          <note key="44" pos="1176" pan="0" len="12" vol="62" />
          <note key="54" pos="1188" pan="0" len="24" vol="78" />
          <note key="56" pos="1212" pan="0" len="24" vol="47" />
          <note key="44" pos="1236" pan="0" len="12" vol="47" />
          <note key="44" pos="1248" pan="0" len="12" vol="100" />
          <note key="54" pos="1260" pan="0" len="24" vol="100" />
          <note key="56" pos="1284" pan="0" len="12" vol="47" />
          <note key="44" pos="1296" pan="0" len="12" vol="100" />
          <note key="56" pos="1308" pan="0" len="12" vol="100" />
          <note key="44" pos="1320" pan="0" len="12" vol="62" />
          <note key="54" pos="1332" pan="0" len="24" vol="78" />
          <note key="56" pos="1356" pan="0" len="24" vol="47" />
          <note key="44" pos="1380" pan="0" len="12" vol="47" />
          <note key="44" pos="1392" pan="0" len="12" vol="100" />
          <note key="54" pos="1404" pan="0" len="24" vol="100" />
          <note key="56" pos="1428" pan="0" len="12" vol="47" />
          <note key="44" pos="1440" pan="0" len="12" vol="100" />
          <note key="56" pos="1452" pan="0" len="12" vol="100" />
          <note key="44" pos="1464" pan="0" len="12" vol="62" />
          <note key="54" pos="1476" pan="0" len="24" vol="78" />
          <note key="56" pos="1500" pan="0" len="24" vol="47" />
          <note key="56" pos="1524" pan="0" len="12" vol="47" />
          <note key="56" pos="1536" pan="0" len="12" vol="100" />
          <note key="54" pos="1548" pan="0" len="24" vol="100" />
          <note key="56" pos="1572" pan="0" len="12" vol="47" />
          <note key="44" pos="1584" pan="0" len="12" vol="100" />
          <note key="56" pos="1596" pan="0" len="12" vol="100" />
          <note key="44" pos="1608" pan="0" len="12" vol="62" />
          <note key="54" pos="1620" pan="0" len="24" vol="78" />
          <note key="56" pos="1644" pan="0" len="24" vol="47" />
          <note key="44" pos="1668" pan="0" len="12" vol="47" />
          <note key="44" pos="1680" pan="0" len="12" vol="100" />
          <note key="54" pos="1692" pan="0" len="24" vol="100" />
          <note key="56" pos="1716" pan="0" len="12" vol="47" />
          <note key="44" pos="1728" pan="0" len="12" vol="100" />
          <note key="56" pos="1740" pan="0" len="12" vol="100" />
          <note key="44" pos="1752" pan="0" len="12" vol="62" />
          <note key="54" pos="1764" pan="0" len="24" vol="78" />
          <note key="56" pos="1788" pan="0" len="24" vol="47" />
          <note key="44" pos="1812" pan="0" len="12" vol="47" />
          <note key="44" pos="1824" pan="0" len="12" vol="100" />
          <note key="54" pos="1836" pan="0" len="24" vol="100" />
          <note key="56" pos="1860" pan="0" len="12" vol="47" />
          <note key="44" pos="1872" pan="0" len="12" vol="100" />
          <note key="56" pos="1884" pan="0" len="12" vol="100" />
          <note key="44" pos="1896" pan="0" len="12" vol="62" />
          <note key="54" pos="1908" pan="0" len="24" vol="78" />
          <note key="56" pos="1932" pan="0" len="24" vol="47" />
          <note key="44" pos="1956" pan="0" len="12" vol="47" />
          <note key="44" pos="1968" pan="0" len="12" vol="100" />
          <note key="54" pos="1980" pan="0" len="24" vol="100" />
          <note key="56" pos="2004" pan="0" len="12" vol="47" />
          <note key="44" pos="2016" pan="0" len="12" vol="100" />
          <note key="56" pos="2028" pan="0" len="12" vol="100" />
          <note key="44" pos="2040" pan="0" len="12" vol="62" />
          <note key="54" pos="2052" pan="0" len="24" vol="78" />
          <note key="56" pos="2076" pan="0" len="24" vol="47" />
          <note key="44" pos="2100" pan="0" len="12" vol="47" />
          <note key="44" pos="2112" pan="0" len="12" vol="100" />
          <note key="54" pos="2124" pan="0" len="24" vol="100" />
          <note key="56" pos="2148" pan="0" len="12" vol="47" />
          <note key="44" pos="2160" pan="0" len="12" vol="100" />
          <note key="56" pos="2172" pan="0" len="12" vol="100" />
          <note key="44" pos="2184" pan="0" len="12" vol="62" />
          <note key="54" pos="2196" pan="0" len="24" vol="78" />
          <note key="56" pos="2220" pan="0" len="24" vol="47" />
          <note key="44" pos="2244" pan="0" len="12" vol="47" />
          <note key="44" pos="2256" pan="0" len="12" vol="100" />
          <note key="54" pos="2268" pan="0" len="24" vol="100" />
          <note key="56" pos="2292" pan="0" len="12" vol="47" />
        </pattern>
        <pattern pos="97536" muted="0" steps="16" name="" type="1">
          <note key="36" pos="720" pan="0" len="48" vol="80" />
        </pattern>
        <pattern pos="98304" muted="0" steps="16" name="" type="1">
          <note key="36" pos="720" pan="0" len="816" vol="100" />
        </pattern>
        <pattern pos="99840" muted="0" steps="16" name="" type="1">
          <note key="36" pos="720" pan="0" len="816" vol="100" />
        </pattern>
        <pattern pos="115968" muted="0" steps="16" name="" type="1">
          <note key="74" pos="24" pan="0" len="24" vol="50" />
          <note key="79" pos="48" pan="0" len="24" vol="50" />
          <note key="70" pos="72" pan="0" len="24" vol="50" />
          <note key="74" pos="96" pan="0" len="24" vol="50" />
          <note key="79" pos="120" pan="0" len="48" vol="50" />
          <note key="70" pos="168" pan="0" len="24" vol="50" />
          <note key="74" pos="192" pan="0" len="48" vol="50" />
          <note key="72" pos="240" pan="0" len="24" vol="50" />
          <note key="76" pos="264" pan="0" len="48" vol="50" />
          <note key="74" pos="312" pan="0" len="24" vol="50" />
          <note key="79" pos="336" pan="0" len="48" vol="50" />
          <note key="77" pos="384" pan="0" len="24" vol="50" />
          <note key="81" pos="408" pan="0" len="48" vol="50" />
          <note key="70" pos="456" pan="0" len="24" vol="50" />
          <note key="74" pos="480" pan="0" len="48" vol="50" />
          <note key="72" pos="528" pan="0" len="24" vol="50" />
          <note key="76" pos="552" pan="0" len="48" vol="50" />
          <note key="74" pos="600" pan="0" len="24" vol="50" />
          <note key="79" pos="624" pan="0" len="24" vol="50" />
          <note key="70" pos="648" pan="0" len="24" vol="50" />
          <note key="74" pos="672" pan="0" len="24" vol="50" />
          <note key="79" pos="696" pan="0" len="48" vol="50" />
          <note key="74" pos="744" pan="0" len="24" vol="50" />
          <note key="77" pos="768" pan="0" len="48" vol="50" />
          <note key="76" pos="816" pan="0" len="24" vol="50" />
          <note key="79" pos="840" pan="0" len="48" vol="50" />
          <note key="74" pos="888" pan="0" len="24" vol="50" />
          <note key="79" pos="912" pan="0" len="48" vol="50" />
          <note key="77" pos="960" pan="0" len="24" vol="50" />
          <note key="81" pos="984" pan="0" len="48" vol="50" />
          <note key="74" pos="1032" pan="0" len="24" vol="50" />
          <note key="77" pos="1056" pan="0" len="48" vol="50" />
          <note key="72" pos="1104" pan="0" len="24" vol="50" />
          <note key="76" pos="1128" pan="0" len="48" vol="50" />
          <note key="72" pos="1176" pan="0" len="24" vol="50" />
          <note key="77" pos="1200" pan="0" len="24" vol="50" />
          <note key="68" pos="1224" pan="0" len="24" vol="50" />
          <note key="72" pos="1248" pan="0" len="24" vol="50" />
          <note key="77" pos="1272" pan="0" len="48" vol="50" />
          <note key="75" pos="1320" pan="0" len="24" vol="50" />
          <note key="79" pos="1344" pan="0" len="48" vol="50" />
          <note key="74" pos="1392" pan="0" len="24" vol="50" />
          <note key="77" pos="1416" pan="0" len="48" vol="50" />
          <note key="72" pos="1464" pan="0" len="24" vol="50" />
          <note key="77" pos="1488" pan="0" len="24" vol="50" />
          <note key="68" pos="1512" pan="0" len="24" vol="50" />
          <note key="72" pos="1536" pan="0" len="24" vol="50" />
          <note key="77" pos="1560" pan="0" len="48" vol="50" />
          <note key="68" pos="1608" pan="0" len="24" vol="50" />
          <note key="72" pos="1632" pan="0" len="48" vol="50" />
          <note key="74" pos="1680" pan="0" len="24" vol="50" />
          <note key="77" pos="1704" pan="0" len="48" vol="50" />
          <note key="72" pos="1752" pan="0" len="24" vol="50" />
          <note key="77" pos="1776" pan="0" len="24" vol="50" />
          <note key="68" pos="1800" pan="0" len="24" vol="50" />
          <note key="72" pos="1824" pan="0" len="24" vol="50" />
          <note key="77" pos="1848" pan="0" len="48" vol="50" />
          <note key="72" pos="1896" pan="0" len="24" vol="50" />
          <note key="75" pos="1920" pan="0" len="48" vol="50" />
          <note key="74" pos="1968" pan="0" len="24" vol="50" />
          <note key="77" pos="1992" pan="0" len="48" vol="50" />
          <note key="72" pos="2040" pan="0" len="24" vol="50" />
          <note key="77" pos="2064" pan="0" len="48" vol="50" />
          <note key="75" pos="2112" pan="0" len="24" vol="50" />
          <note key="79" pos="2136" pan="0" len="48" vol="50" />
          <note key="72" pos="2184" pan="0" len="24" vol="50" />
          <note key="75" pos="2208" pan="0" len="48" vol="50" />
          <note key="70" pos="2256" pan="0" len="24" vol="50" />
          <note key="74" pos="2280" pan="0" len="24" vol="50" />
        </pattern>
        <pattern pos="120576" muted="0" steps="16" name="" type="1">
          <note key="74" pos="24" pan="0" len="24" vol="50" />
          <note key="79" pos="48" pan="0" len="24" vol="50" />
          <note key="70" pos="72" pan="0" len="24" vol="50" />
          <note key="74" pos="96" pan="0" len="24" vol="50" />
          <note key="79" pos="120" pan="0" len="48" vol="50" />
          <note key="70" pos="168" pan="0" len="24" vol="50" />
          <note key="74" pos="192" pan="0" len="48" vol="50" />
          <note key="72" pos="240" pan="0" len="24" vol="50" />
          <note key="76" pos="264" pan="0" len="48" vol="50" />
          <note key="74" pos="312" pan="0" len="24" vol="50" />
          <note key="79" pos="336" pan="0" len="48" vol="50" />
          <note key="77" pos="384" pan="0" len="24" vol="50" />
          <note key="81" pos="408" pan="0" len="48" vol="50" />
          <note key="70" pos="456" pan="0" len="24" vol="50" />
          <note key="74" pos="480" pan="0" len="48" vol="50" />
          <note key="72" pos="528" pan="0" len="24" vol="50" />
          <note key="76" pos="552" pan="0" len="48" vol="50" />
          <note key="74" pos="600" pan="0" len="24" vol="50" />
          <note key="79" pos="624" pan="0" len="24" vol="50" />
          <note key="70" pos="648" pan="0" len="24" vol="50" />
          <note key="74" pos="672" pan="0" len="24" vol="50" />
          <note key="79" pos="696" pan="0" len="48" vol="50" />
          <note key="74" pos="744" pan="0" len="24" vol="50" />
          <note key="77" pos="768" pan="0" len="48" vol="50" />
          <note key="76" pos="816" pan="0" len="24" vol="50" />
          <note key="79" pos="840" pan="0" len="48" vol="50" />
          <note key="74" pos="888" pan="0" len="24" vol="50" />
          <note key="79" pos="912" pan="0" len="48" vol="50" />
          <note key="77" pos="960" pan="0" len="24" vol="50" />
          <note key="81" pos="984" pan="0" len="48" vol="50" />
          <note key="74" pos="1032" pan="0" len="24" vol="50" />
          <note key="77" pos="1056" pan="0" len="48" vol="50" />
          <note key="72" pos="1104" pan="0" len="24" vol="50" />
          <note key="76" pos="1128" pan="0" len="48" vol="50" />
          <note key="72" pos="1176" pan="0" len="24" vol="50" />
          <note key="77" pos="1200" pan="0" len="24" vol="50" />
          <note key="68" pos="1224" pan="0" len="24" vol="50" />
          <note key="72" pos="1248" pan="0" len="24" vol="50" />
          <note key="77" pos="1272" pan="0" len="48" vol="50" />
          <note key="75" pos="1320" pan="0" len="24" vol="50" />
          <note key="79" pos="1344" pan="0" len="48" vol="50" />
          <note key="74" pos="1392" pan="0" len="24" vol="50" />
          <note key="77" pos="1416" pan="0" len="48" vol="50" />
          <note key="72" pos="1464" pan="0" len="24" vol="50" />
          <note key="77" pos="1488" pan="0" len="24" vol="50" />
          <note key="68" pos="1512" pan="0" len="24" vol="50" />
          <note key="72" pos="1536" pan="0" len="24" vol="50" />
          <note key="77" pos="1560" pan="0" len="48" vol="50" />
          <note key="68" pos="1608" pan="0" len="24" vol="50" />
          <note key="72" pos="1632" pan="0" len="48" vol="50" />
          <note key="74" pos="1680" pan="0" len="24" vol="50" />
          <note key="77" pos="1704" pan="0" len="48" vol="50" />
          <note key="72" pos="1752" pan="0" len="24" vol="50" />
          <note key="77" pos="1776" pan="0" len="24" vol="50" />
          <note key="68" pos="1800" pan="0" len="24" vol="50" />
          <note key="72" pos="1824" pan="0" len="24" vol="50" />
          <note key="77" pos="1848" pan="0" len="48" vol="50" />
          <note key="72" pos="1896" pan="0" len="24" vol="50" />
          <note key="75" pos="1920" pan="0" len="48" vol="50" />
          <note key="74" pos="1968" pan="0" len="24" vol="50" />
          <note key="77" pos="1992" pan="0" len="48" vol="50" />
          <note key="72" pos="2040" pan="0" len="24" vol="50" />
          <note key="77" pos="2064" pan="0" len="48" vol="50" />
          <note key="75" pos="2112" pan="0" len="24" vol="50" />
          <note key="79" pos="2136" pan="0" len="48" vol="50" />
          <note key="72" pos="2184" pan="0" len="24" vol="50" />
          <note key="75" pos="2208" pan="0" len="48" vol="50" />
          <note key="70" pos="2256" pan="0" len="24" vol="50" />
          <note key="74" pos="2280" pan="0" len="24" vol="50" />
        </pattern>
        <pattern pos="241932" muted="0" steps="16" name="" type="1">
          <note key="70" pos="24" pan="0" len="24" vol="50" />
          <note key="70" pos="48" pan="0" len="12" vol="16" />
          <note key="70" pos="60" pan="0" len="12" vol="31" />
          <note key="70" pos="72" pan="0" len="24" vol="50" />
          <note key="70" pos="96" pan="0" len="12" vol="2" />
          <note key="70" pos="108" pan="0" len="24" vol="31" />
          <note key="70" pos="132" pan="0" len="24" vol="16" />
          <note key="70" pos="156" pan="0" len="24" vol="8" />
          <note key="70" pos="180" pan="0" len="228" vol="5" />
          <note key="70" pos="408" pan="0" len="24" vol="50" />
          <note key="70" pos="432" pan="0" len="12" vol="16" />
          <note key="70" pos="444" pan="0" len="12" vol="31" />
          <note key="70" pos="456" pan="0" len="24" vol="50" />
          <note key="70" pos="480" pan="0" len="12" vol="2" />
          <note key="70" pos="492" pan="0" len="24" vol="31" />
          <note key="70" pos="516" pan="0" len="24" vol="16" />
          <note key="70" pos="540" pan="0" len="24" vol="8" />
          <note key="70" pos="564" pan="0" len="204" vol="5" />
          <note key="70" pos="792" pan="0" len="24" vol="50" />
          <note key="70" pos="816" pan="0" len="12" vol="16" />
          <note key="70" pos="828" pan="0" len="12" vol="31" />
          <note key="70" pos="840" pan="0" len="24" vol="50" />
          <note key="70" pos="864" pan="0" len="12" vol="2" />
          <note key="70" pos="876" pan="0" len="24" vol="31" />
          <note key="70" pos="900" pan="0" len="24" vol="16" />
          <note key="70" pos="924" pan="0" len="24" vol="8" />
          <note key="70" pos="948" pan="0" len="12" vol="5" />
          <note key="70" pos="1176" pan="0" len="24" vol="50" />
          <note key="70" pos="1200" pan="0" len="12" vol="16" />
          <note key="70" pos="1212" pan="0" len="12" vol="31" />
          <note key="70" pos="1224" pan="0" len="24" vol="50" />
          <note key="70" pos="1248" pan="0" len="12" vol="2" />
          <note key="70" pos="1260" pan="0" len="24" vol="31" />
          <note key="70" pos="1284" pan="0" len="24" vol="16" />
          <note key="70" pos="1308" pan="0" len="24" vol="8" />
          <note key="70" pos="1332" pan="0" len="204" vol="5" />
        </pattern>
        <pattern pos="246540" muted="0" steps="16" name="" type="1">
          <note key="70" pos="24" pan="0" len="24" vol="50" />
          <note key="70" pos="48" pan="0" len="12" vol="16" />
          <note key="70" pos="60" pan="0" len="12" vol="31" />
          <note key="70" pos="72" pan="0" len="24" vol="50" />
          <note key="70" pos="96" pan="0" len="12" vol="2" />
          <note key="70" pos="108" pan="0" len="24" vol="31" />
          <note key="70" pos="132" pan="0" len="24" vol="16" />
          <note key="70" pos="156" pan="0" len="24" vol="8" />
          <note key="70" pos="180" pan="0" len="228" vol="5" />
          <note key="70" pos="408" pan="0" len="24" vol="50" />
          <note key="70" pos="432" pan="0" len="12" vol="16" />
          <note key="70" pos="444" pan="0" len="12" vol="31" />
          <note key="70" pos="456" pan="0" len="24" vol="50" />
          <note key="70" pos="480" pan="0" len="12" vol="2" />
          <note key="70" pos="492" pan="0" len="24" vol="31" />
          <note key="70" pos="516" pan="0" len="24" vol="16" />
          <note key="70" pos="540" pan="0" len="24" vol="8" />
          <note key="70" pos="564" pan="0" len="228" vol="5" />
          <note key="70" pos="792" pan="0" len="24" vol="50" />
          <note key="70" pos="816" pan="0" len="12" vol="16" />
          <note key="70" pos="828" pan="0" len="12" vol="31" />
          <note key="70" pos="840" pan="0" len="24" vol="50" />
          <note key="70" pos="864" pan="0" len="12" vol="2" />
          <note key="70" pos="876" pan="0" len="24" vol="31" />
          <note key="70" pos="900" pan="0" len="24" vol="16" />
          <note key="70" pos="924" pan="0" len="24" vol="8" />
          <note key="70" pos="948" pan="0" len="228" vol="5" />
          <note key="70" pos="1176" pan="0" len="24" vol="50" />
          <note key="70" pos="1200" pan="0" len="12" vol="16" />
          <note key="70" pos="1212" pan="0" len="12" vol="31" />
          <note key="70" pos="1224" pan="0" len="24" vol="50" />
          <note key="70" pos="1248" pan="0" len="12" vol="2" />
          <note key="70" pos="1260" pan="0" len="24" vol="31" />
          <note key="70" pos="1284" pan="0" len="24" vol="16" />
          <note key="70" pos="1308" pan="0" len="24" vol="8" />
          <note key="70" pos="1332" pan="0" len="204" vol="5" />
        </pattern>
      </track>
      <track solo="0" name="64 (Ch14)" type="0" muted="0">
        <instrumenttrack usemasterpitch="1" pitch="0.0" basenote="57" pan="0" pitchrange="12" vol="30">
          <eldata />
          <instrument name="tripleoscillator" />
        </instrumenttrack>
        <pattern pos="99840" muted="0" steps="16" name="" type="1">
          <note key="38" pos="96" pan="0" len="96" vol="62" />
          <note key="38" pos="192" pan="0" len="96" vol="31" />
          <note key="38" pos="288" pan="0" len="576" vol="16" />
          <note key="38" pos="864" pan="0" len="96" vol="62" />
          <note key="38" pos="960" pan="0" len="96" vol="31" />
          <note key="38" pos="1056" pan="0" len="480" vol="16" />
        </pattern>
        <pattern pos="97536" muted="0" steps="16" name="" type="1">
          <note key="38" pos="96" pan="0" len="96" vol="62" />
          <note key="38" pos="192" pan="0" len="96" vol="31" />
          <note key="38" pos="288" pan="0" len="480" vol="16" />
        </pattern>
        <pattern pos="98304" muted="0" steps="16" name="" type="1">
          <note key="38" pos="96" pan="0" len="96" vol="62" />
          <note key="38" pos="192" pan="0" len="96" vol="31" />
          <note key="38" pos="288" pan="0" len="576" vol="16" />
          <note key="38" pos="864" pan="0" len="96" vol="62" />
          <note key="38" pos="960" pan="0" len="96" vol="31" />
          <note key="38" pos="1056" pan="0" len="480" vol="16" />
        </pattern>
      </track>
      <track solo="0" name="64 (Ch16)" type="0" muted="0">
        <instrumenttrack usemasterpitch="1" pitch="0.0" basenote="57" pan="0" pitchrange="12" vol="30">
          <eldata />
          <instrument name="tripleoscillator" />
        </instrumenttrack>
        <pattern pos="277596" muted="0" steps="16" name="" type="1">
          <note key="39" pos="0" pan="0" len="12" vol="100" />
          <note key="51" pos="12" pan="0" len="12" vol="100" />
          <note key="39" pos="24" pan="0" len="12" vol="62" />
          <note key="49" pos="36" pan="0" len="24" vol="78" />
          <note key="51" pos="60" pan="0" len="24" vol="47" />
          <note key="41" pos="84" pan="0" len="12" vol="47" />
          <note key="41" pos="96" pan="0" len="12" vol="100" />
          <note key="51" pos="108" pan="0" len="24" vol="100" />
          <note key="53" pos="132" pan="0" len="12" vol="47" />
          <note key="42" pos="144" pan="0" len="12" vol="100" />
          <note key="54" pos="156" pan="0" len="12" vol="100" />
          <note key="53" pos="168" pan="0" len="12" vol="62" />
          <note key="53" pos="180" pan="0" len="24" vol="78" />
          <note key="54" pos="204" pan="0" len="24" vol="47" />
          <note key="44" pos="228" pan="0" len="12" vol="47" />
          <note key="44" pos="240" pan="0" len="12" vol="100" />
          <note key="54" pos="252" pan="0" len="24" vol="100" />
          <note key="56" pos="276" pan="0" len="12" vol="47" />
          <note key="35" pos="288" pan="0" len="12" vol="100" />
          <note key="47" pos="300" pan="0" len="12" vol="100" />
          <note key="35" pos="312" pan="0" len="12" vol="62" />
          <note key="45" pos="324" pan="0" len="24" vol="78" />
          <note key="47" pos="348" pan="0" len="24" vol="47" />
          <note key="37" pos="372" pan="0" len="12" vol="47" />
          <note key="37" pos="384" pan="0" len="12" vol="100" />
          <note key="51" pos="396" pan="0" len="24" vol="100" />
          <note key="53" pos="420" pan="0" len="12" vol="47" />
          <note key="39" pos="432" pan="0" len="12" vol="100" />
          <note key="51" pos="444" pan="0" len="12" vol="100" />
          <note key="39" pos="456" pan="0" len="12" vol="62" />
          <note key="49" pos="468" pan="0" len="24" vol="78" />
          <note key="51" pos="492" pan="0" len="24" vol="47" />
          <note key="39" pos="516" pan="0" len="12" vol="47" />
          <note key="39" pos="528" pan="0" len="12" vol="100" />
          <note key="49" pos="540" pan="0" len="24" vol="100" />
          <note key="51" pos="564" pan="0" len="12" vol="47" />
          <note key="39" pos="576" pan="0" len="12" vol="100" />
          <note key="51" pos="588" pan="0" len="12" vol="100" />
          <note key="39" pos="600" pan="0" len="12" vol="62" />
          <note key="49" pos="612" pan="0" len="24" vol="78" />
          <note key="51" pos="636" pan="0" len="24" vol="47" />
          <note key="41" pos="660" pan="0" len="12" vol="47" />
          <note key="41" pos="672" pan="0" len="12" vol="100" />
          <note key="51" pos="684" pan="0" len="24" vol="100" />
          <note key="53" pos="708" pan="0" len="12" vol="47" />
          <note key="42" pos="720" pan="0" len="12" vol="100" />
          <note key="54" pos="732" pan="0" len="12" vol="100" />
          <note key="42" pos="744" pan="0" len="12" vol="62" />
          <note key="53" pos="756" pan="0" len="24" vol="78" />
          <note key="54" pos="780" pan="0" len="24" vol="47" />
          <note key="44" pos="804" pan="0" len="12" vol="47" />
          <note key="44" pos="816" pan="0" len="12" vol="100" />
          <note key="54" pos="828" pan="0" len="24" vol="100" />
          <note key="56" pos="852" pan="0" len="12" vol="47" />
          <note key="35" pos="864" pan="0" len="12" vol="100" />
          <note key="47" pos="876" pan="0" len="12" vol="100" />
          <note key="35" pos="888" pan="0" len="12" vol="62" />
          <note key="45" pos="900" pan="0" len="24" vol="78" />
          <note key="47" pos="924" pan="0" len="24" vol="47" />
          <note key="37" pos="948" pan="0" len="12" vol="47" />
          <note key="37" pos="960" pan="0" len="12" vol="100" />
          <note key="51" pos="972" pan="0" len="24" vol="100" />
          <note key="53" pos="996" pan="0" len="12" vol="47" />
          <note key="39" pos="1008" pan="0" len="12" vol="100" />
          <note key="51" pos="1020" pan="0" len="12" vol="100" />
          <note key="39" pos="1032" pan="0" len="12" vol="62" />
          <note key="49" pos="1044" pan="0" len="24" vol="78" />
          <note key="51" pos="1068" pan="0" len="24" vol="47" />
          <note key="39" pos="1092" pan="0" len="12" vol="47" />
          <note key="39" pos="1104" pan="0" len="12" vol="100" />
          <note key="49" pos="1116" pan="0" len="24" vol="100" />
          <note key="51" pos="1140" pan="0" len="1164" vol="47" />
        </pattern>
      </track>
      <track solo="0" name="65 (Ch5)" type="0" muted="0">
        <instrumenttrack usemasterpitch="1" pitch="0.0" basenote="57" pan="0" pitchrange="12" vol="30">
          <eldata />
          <instrument name="tripleoscillator" />
        </instrumenttrack>
        <pattern pos="33792" muted="0" steps="16" name="" type="1">
          <note key="51" pos="768" pan="0" len="48" vol="100" />
          <note key="53" pos="852" pan="0" len="12" vol="100" />
          <note key="55" pos="864" pan="0" len="12" vol="100" />
          <note key="58" pos="876" pan="0" len="24" vol="100" />
          <note key="62" pos="900" pan="0" len="24" vol="100" />
          <note key="58" pos="924" pan="0" len="24" vol="100" />
          <note key="60" pos="948" pan="0" len="60" vol="100" />
          <note key="46" pos="1140" pan="0" len="12" vol="100" />
          <note key="51" pos="1152" pan="0" len="48" vol="100" />
          <note key="55" pos="1236" pan="0" len="12" vol="100" />
          <note key="53" pos="1248" pan="0" len="12" vol="100" />
          <note key="51" pos="1260" pan="0" len="12" vol="100" />
          <note key="53" pos="1284" pan="0" len="12" vol="100" />
          <note key="55" pos="1308" pan="0" len="12" vol="100" />
          <note key="51" pos="1332" pan="0" len="12" vol="100" />
          <note key="48" pos="1344" pan="0" len="36" vol="100" />
          <note key="43" pos="1428" pan="0" len="12" vol="100" />
          <note key="36" pos="1440" pan="0" len="36" vol="100" />
        </pattern>
        <pattern pos="32256" muted="0" steps="16" name="" type="1">
          <note key="58" pos="0" pan="0" len="12" vol="100" />
          <note key="60" pos="12" pan="0" len="24" vol="100" />
          <note key="55" pos="36" pan="0" len="24" vol="100" />
          <note key="53" pos="60" pan="0" len="12" vol="100" />
          <note key="55" pos="72" pan="0" len="24" vol="100" />
          <note key="53" pos="192" pan="0" len="12" vol="100" />
          <note key="58" pos="204" pan="0" len="12" vol="100" />
          <note key="60" pos="216" pan="0" len="12" vol="100" />
          <note key="62" pos="228" pan="0" len="24" vol="100" />
          <note key="58" pos="276" pan="0" len="12" vol="100" />
          <note key="60" pos="288" pan="0" len="24" vol="100" />
          <note key="58" pos="396" pan="0" len="12" vol="100" />
          <note key="60" pos="408" pan="0" len="12" vol="100" />
          <note key="62" pos="420" pan="0" len="24" vol="100" />
          <note key="65" pos="456" pan="0" len="12" vol="100" />
          <note key="62" pos="468" pan="0" len="36" vol="100" />
        </pattern>
      </track>
      <track solo="0" name="65 (Ch8)" type="0" muted="0">
        <instrumenttrack usemasterpitch="1" pitch="0.0" basenote="57" pan="0" pitchrange="12" vol="30">
          <eldata />
          <instrument name="tripleoscillator" />
        </instrumenttrack>
        <pattern pos="238860" muted="0" steps="16" name="" type="1">
          <note key="56" pos="768" pan="0" len="12" vol="100" />
          <note key="55" pos="780" pan="0" len="12" vol="100" />
          <note key="51" pos="792" pan="0" len="12" vol="100" />
          <note key="49" pos="804" pan="0" len="60" vol="100" />
          <note key="51" pos="864" pan="0" len="96" vol="100" />
          <note key="46" pos="960" pan="0" len="36" vol="100" />
          <note key="46" pos="996" pan="0" len="156" vol="100" />
        </pattern>
        <pattern pos="26112" muted="0" steps="16" name="" type="1">
          <note key="49" pos="0" pan="0" len="24" vol="100" />
          <note key="48" pos="24" pan="0" len="12" vol="100" />
          <note key="49" pos="72" pan="0" len="24" vol="100" />
          <note key="46" pos="120" pan="0" len="24" vol="100" />
          <note key="49" pos="168" pan="0" len="24" vol="100" />
          <note key="48" pos="216" pan="0" len="12" vol="100" />
          <note key="49" pos="240" pan="0" len="12" vol="100" />
          <note key="44" pos="264" pan="0" len="24" vol="100" />
          <note key="49" pos="288" pan="0" len="24" vol="100" />
          <note key="48" pos="312" pan="0" len="24" vol="100" />
          <note key="49" pos="336" pan="0" len="24" vol="100" />
          <note key="51" pos="360" pan="0" len="24" vol="100" />
          <note key="53" pos="384" pan="0" len="24" vol="100" />
          <note key="53" pos="504" pan="0" len="24" vol="100" />
          <note key="56" pos="528" pan="0" len="24" vol="100" />
          <note key="55" pos="576" pan="0" len="24" vol="100" />
          <note key="51" pos="600" pan="0" len="24" vol="100" />
          <note key="55" pos="648" pan="0" len="24" vol="100" />
          <note key="51" pos="696" pan="0" len="24" vol="100" />
          <note key="49" pos="768" pan="0" len="24" vol="100" />
          <note key="48" pos="792" pan="0" len="12" vol="100" />
          <note key="49" pos="840" pan="0" len="24" vol="100" />
          <note key="46" pos="888" pan="0" len="24" vol="100" />
          <note key="49" pos="936" pan="0" len="24" vol="100" />
          <note key="48" pos="984" pan="0" len="12" vol="100" />
          <note key="49" pos="1008" pan="0" len="12" vol="100" />
          <note key="44" pos="1032" pan="0" len="24" vol="100" />
          <note key="49" pos="1056" pan="0" len="24" vol="100" />
          <note key="48" pos="1080" pan="0" len="24" vol="100" />
          <note key="49" pos="1104" pan="0" len="24" vol="100" />
          <note key="51" pos="1128" pan="0" len="24" vol="100" />
          <note key="53" pos="1152" pan="0" len="24" vol="100" />
          <note key="53" pos="1272" pan="0" len="24" vol="100" />
          <note key="56" pos="1296" pan="0" len="24" vol="100" />
          <note key="55" pos="1344" pan="0" len="24" vol="100" />
          <note key="51" pos="1368" pan="0" len="24" vol="100" />
          <note key="55" pos="1416" pan="0" len="24" vol="100" />
          <note key="56" pos="1464" pan="0" len="24" vol="100" />
        </pattern>
        <pattern pos="27648" muted="0" steps="16" name="" type="1">
          <note key="70" pos="0" pan="0" len="24" vol="100" />
          <note key="68" pos="24" pan="0" len="24" vol="100" />
          <note key="63" pos="72" pan="0" len="24" vol="100" />
          <note key="60" pos="120" pan="0" len="24" vol="100" />
          <note key="70" pos="168" pan="0" len="24" vol="100" />
          <note key="68" pos="216" pan="0" len="12" vol="100" />
          <note key="63" pos="240" pan="0" len="12" vol="100" />
          <note key="60" pos="264" pan="0" len="12" vol="100" />
          <note key="70" pos="288" pan="0" len="12" vol="100" />
          <note key="68" pos="312" pan="0" len="12" vol="100" />
          <note key="63" pos="336" pan="0" len="12" vol="100" />
          <note key="65" pos="360" pan="0" len="12" vol="100" />
          <note key="67" pos="384" pan="0" len="12" vol="100" />
          <note key="63" pos="504" pan="0" len="12" vol="100" />
          <note key="67" pos="528" pan="0" len="12" vol="100" />
          <note key="65" pos="576" pan="0" len="24" vol="100" />
          <note key="62" pos="600" pan="0" len="12" vol="100" />
          <note key="65" pos="648" pan="0" len="12" vol="100" />
          <note key="62" pos="696" pan="0" len="12" vol="100" />
          <note key="68" pos="744" pan="0" len="12" vol="100" />
          <note key="70" pos="768" pan="0" len="24" vol="100" />
          <note key="68" pos="792" pan="0" len="24" vol="100" />
          <note key="63" pos="840" pan="0" len="24" vol="100" />
          <note key="60" pos="888" pan="0" len="24" vol="100" />
          <note key="70" pos="936" pan="0" len="24" vol="100" />
          <note key="68" pos="984" pan="0" len="12" vol="100" />
          <note key="63" pos="1008" pan="0" len="12" vol="100" />
          <note key="60" pos="1032" pan="0" len="12" vol="100" />
          <note key="70" pos="1056" pan="0" len="12" vol="100" />
          <note key="68" pos="1080" pan="0" len="12" vol="100" />
          <note key="63" pos="1104" pan="0" len="12" vol="100" />
          <note key="65" pos="1128" pan="0" len="12" vol="100" />
          <note key="67" pos="1152" pan="0" len="12" vol="100" />
          <note key="63" pos="1272" pan="0" len="12" vol="100" />
          <note key="67" pos="1296" pan="0" len="12" vol="100" />
          <note key="65" pos="1344" pan="0" len="72" vol="100" />
          <note key="62" pos="1416" pan="0" len="12" vol="100" />
        </pattern>
      </track>
      <track solo="0" name="65 (Ch13)" type="0" muted="0">
        <instrumenttrack usemasterpitch="1" pitch="0.0" basenote="57" pan="0" pitchrange="12" vol="30">
          <eldata />
          <instrument name="tripleoscillator" />
        </instrumenttrack>
        <pattern pos="24576" muted="0" steps="16" name="" type="1">
          <note key="65" pos="72" pan="0" len="24" vol="100" />
          <note key="63" pos="96" pan="0" len="24" vol="100" />
          <note key="65" pos="120" pan="0" len="24" vol="100" />
          <note key="60" pos="144" pan="0" len="48" vol="100" />
          <note key="58" pos="216" pan="0" len="24" vol="100" />
          <note key="60" pos="240" pan="0" len="36" vol="100" />
          <note key="53" pos="288" pan="0" len="48" vol="100" />
          <note key="65" pos="408" pan="0" len="24" vol="100" />
          <note key="63" pos="432" pan="0" len="24" vol="100" />
          <note key="65" pos="456" pan="0" len="24" vol="100" />
          <note key="60" pos="480" pan="0" len="48" vol="100" />
          <note key="65" pos="552" pan="0" len="24" vol="100" />
          <note key="63" pos="576" pan="0" len="24" vol="100" />
          <note key="65" pos="600" pan="0" len="24" vol="100" />
          <note key="68" pos="624" pan="0" len="24" vol="100" />
          <note key="67" pos="648" pan="0" len="48" vol="100" />
        </pattern>
      </track>
      <track solo="0" name="65 (Ch14)" type="0" muted="0">
        <instrumenttrack usemasterpitch="1" pitch="0.0" basenote="57" pan="0" pitchrange="12" vol="30">
          <eldata />
          <instrument name="tripleoscillator" />
        </instrumenttrack>
        <pattern pos="274140" muted="0" steps="16" name="" type="1">
          <note key="32" pos="576" pan="0" len="72" vol="0" />
          <note key="34" pos="648" pan="0" len="72" vol="100" />
          <note key="35" pos="720" pan="0" len="72" vol="100" />
          <note key="37" pos="792" pan="0" len="72" vol="100" />
          <note key="44" pos="864" pan="0" len="72" vol="100" />
          <note key="42" pos="936" pan="0" len="72" vol="100" />
          <note key="39" pos="1008" pan="0" len="144" vol="100" />
        </pattern>
      </track>
      <track solo="0" name="65 (Ch15)" type="0" muted="0">
        <instrumenttrack usemasterpitch="1" pitch="0.0" basenote="57" pan="0" pitchrange="12" vol="30">
          <eldata />
          <instrument name="tripleoscillator" />
        </instrumenttrack>
        <pattern pos="274140" muted="0" steps="16" name="" type="1">
          <note key="39" pos="576" pan="0" len="72" vol="0" />
          <note key="41" pos="648" pan="0" len="72" vol="100" />
          <note key="42" pos="720" pan="0" len="72" vol="100" />
          <note key="44" pos="792" pan="0" len="72" vol="100" />
          <note key="40" pos="864" pan="0" len="72" vol="100" />
          <note key="37" pos="936" pan="0" len="72" vol="100" />
          <note key="32" pos="1008" pan="0" len="144" vol="100" />
        </pattern>
      </track>
      <track solo="0" name="66 (Ch4)" type="0" muted="0">
        <instrumenttrack usemasterpitch="1" pitch="0.0" basenote="57" pan="0" pitchrange="12" vol="30">
          <eldata />
          <instrument name="tripleoscillator" />
        </instrumenttrack>
        <pattern pos="203532" muted="0" steps="16" name="" type="1">
          <note key="96" pos="0" pan="0" len="192" vol="12" />
          <note key="98" pos="192" pan="0" len="192" vol="12" />
          <note key="99" pos="384" pan="0" len="192" vol="12" />
          <note key="103" pos="576" pan="0" len="192" vol="12" />
        </pattern>
      </track>
      <track solo="0" name="66 (Ch6)" type="0" muted="0">
        <instrumenttrack usemasterpitch="1" pitch="0.0" basenote="57" pan="0" pitchrange="12" vol="30">
          <eldata />
          <instrument name="tripleoscillator" />
        </instrumenttrack>
        <pattern pos="172812" muted="0" steps="16" name="" type="1">
          <note key="101" pos="0" pan="0" len="588" vol="2" />
        </pattern>
      </track>
      <track solo="0" name="66 (Ch11)" type="0" muted="0">
        <instrumenttrack usemasterpitch="1" pitch="0.0" basenote="57" pan="0" pitchrange="12" vol="30">
          <eldata />
          <instrument name="tripleoscillator" />
        </instrumenttrack>
        <pattern pos="18432" muted="0" steps="16" name="" type="1">
          <note key="84" pos="1296" pan="0" len="48" vol="2" />
        </pattern>
      </track>
      <track solo="0" name="66 (Ch12)" type="0" muted="0">
        <instrumenttrack usemasterpitch="1" pitch="0.0" basenote="57" pan="0" pitchrange="12" vol="30">
          <eldata />
          <instrument name="tripleoscillator" />
        </instrumenttrack>
        <pattern pos="18432" muted="0" steps="16" name="" type="1">
          <note key="87" pos="1296" pan="0" len="48" vol="2" />
        </pattern>
      </track>
      <track solo="0" name="66 (Ch13)" type="0" muted="0">
        <instrumenttrack usemasterpitch="1" pitch="0.0" basenote="57" pan="0" pitchrange="12" vol="30">
          <eldata />
          <instrument name="tripleoscillator" />
        </instrumenttrack>
        <pattern pos="27648" muted="0" steps="16" name="" type="1">
          <note key="80" pos="312" pan="0" len="72" vol="2" />
          <note key="80" pos="1080" pan="0" len="72" vol="2" />
        </pattern>
        <pattern pos="18432" muted="0" steps="16" name="" type="1">
          <note key="91" pos="1296" pan="0" len="48" vol="2" />
        </pattern>
      </track>
      <track solo="0" name="66 (Ch14)" type="0" muted="0">
        <instrumenttrack usemasterpitch="1" pitch="0.0" basenote="57" pan="0" pitchrange="12" vol="30">
          <eldata />
          <instrument name="tripleoscillator" />
        </instrumenttrack>
        <pattern pos="27648" muted="0" steps="16" name="" type="1">
          <note key="84" pos="312" pan="0" len="72" vol="2" />
          <note key="84" pos="1080" pan="0" len="72" vol="2" />
        </pattern>
      </track>
      <track solo="0" name="66 (Ch15)" type="0" muted="0">
        <instrumenttrack usemasterpitch="1" pitch="0.0" basenote="57" pan="0" pitchrange="12" vol="30">
          <eldata />
          <instrument name="tripleoscillator" />
        </instrumenttrack>
        <pattern pos="27648" muted="0" steps="16" name="" type="1">
          <note key="89" pos="312" pan="0" len="72" vol="2" />
          <note key="89" pos="1080" pan="0" len="72" vol="2" />
        </pattern>
      </track>
      <track solo="0" name="66 (Ch16)" type="0" muted="0">
        <instrumenttrack usemasterpitch="1" pitch="0.0" basenote="57" pan="0" pitchrange="12" vol="30">
          <eldata />
          <instrument name="tripleoscillator" />
        </instrumenttrack>
        <pattern pos="27648" muted="0" steps="16" name="" type="1">
          <note key="99" pos="192" pan="0" len="192" vol="2" />
          <note key="99" pos="960" pan="0" len="192" vol="2" />
        </pattern>
      </track>
      <track solo="0" name="66 (Ch20)" type="0" muted="0">
        <instrumenttrack usemasterpitch="1" pitch="0.0" basenote="57" pan="0" pitchrange="12" vol="30">
          <eldata />
          <instrument name="tripleoscillator" />
        </instrumenttrack>
        <pattern pos="99840" muted="0" steps="16" name="" type="1">
          <note key="50" pos="0" pan="0" len="1536" vol="100" />
        </pattern>
        <pattern pos="98304" muted="0" steps="16" name="" type="1">
          <note key="50" pos="0" pan="0" len="1536" vol="100" />
        </pattern>
      </track>
      <track solo="0" name="67 (Ch1)" type="0" muted="0">
        <instrumenttrack usemasterpitch="1" pitch="0.0" basenote="57" pan="0" pitchrange="12" vol="30">
          <eldata />
          <instrument name="tripleoscillator" />
        </instrumenttrack>
        <pattern pos="220428" muted="0" steps="16" name="" type="1">
          <note key="67" pos="0" pan="0" len="12" vol="100" />
          <note key="72" pos="12" pan="0" len="12" vol="100" />
          <note key="74" pos="24" pan="0" len="12" vol="100" />
          <note key="75" pos="36" pan="0" len="12" vol="100" />
          <note key="67" pos="48" pan="0" len="12" vol="100" />
          <note key="72" pos="60" pan="0" len="12" vol="100" />
          <note key="74" pos="72" pan="0" len="12" vol="100" />
          <note key="75" pos="84" pan="0" len="12" vol="100" />
          <note key="67" pos="96" pan="0" len="12" vol="100" />
          <note key="72" pos="108" pan="0" len="12" vol="100" />
          <note key="74" pos="120" pan="0" len="12" vol="100" />
          <note key="75" pos="132" pan="0" len="12" vol="100" />
        </pattern>
        <pattern pos="194316" muted="0" steps="16" name="" type="1">
          <note key="61" pos="24" pan="0" len="12" vol="100" />
          <note key="62" pos="36" pan="0" len="12" vol="50" />
          <note key="54" pos="72" pan="0" len="24" vol="100" />
          <note key="55" pos="144" pan="0" len="24" vol="100" />
          <note key="59" pos="168" pan="0" len="24" vol="100" />
          <note key="54" pos="264" pan="0" len="24" vol="100" />
          <note key="55" pos="336" pan="0" len="24" vol="100" />
          <note key="59" pos="360" pan="0" len="12" vol="100" />
          <note key="61" pos="372" pan="0" len="12" vol="50" />
          <note key="61" pos="408" pan="0" len="12" vol="100" />
          <note key="62" pos="420" pan="0" len="12" vol="50" />
          <note key="54" pos="456" pan="0" len="24" vol="100" />
          <note key="55" pos="528" pan="0" len="24" vol="100" />
          <note key="59" pos="552" pan="0" len="24" vol="100" />
          <note key="54" pos="648" pan="0" len="24" vol="100" />
          <note key="55" pos="720" pan="0" len="24" vol="100" />
          <note key="59" pos="744" pan="0" len="12" vol="100" />
          <note key="61" pos="756" pan="0" len="12" vol="50" />
          <note key="61" pos="792" pan="0" len="12" vol="100" />
          <note key="62" pos="804" pan="0" len="12" vol="50" />
          <note key="54" pos="840" pan="0" len="24" vol="100" />
          <note key="55" pos="912" pan="0" len="24" vol="100" />
          <note key="59" pos="936" pan="0" len="24" vol="100" />
          <note key="54" pos="1032" pan="0" len="24" vol="100" />
          <note key="55" pos="1104" pan="0" len="24" vol="100" />
          <note key="59" pos="1128" pan="0" len="12" vol="100" />
          <note key="61" pos="1140" pan="0" len="12" vol="50" />
          <note key="61" pos="1176" pan="0" len="12" vol="100" />
          <note key="62" pos="1188" pan="0" len="12" vol="50" />
          <note key="54" pos="1224" pan="0" len="24" vol="100" />
          <note key="55" pos="1296" pan="0" len="24" vol="100" />
          <note key="59" pos="1320" pan="0" len="24" vol="100" />
          <note key="54" pos="1416" pan="0" len="24" vol="100" />
          <note key="55" pos="1488" pan="0" len="24" vol="100" />
        </pattern>
        <pattern pos="195852" muted="0" steps="16" name="" type="1">
          <note key="61" pos="24" pan="0" len="12" vol="100" />
          <note key="62" pos="36" pan="0" len="12" vol="50" />
          <note key="62" pos="144" pan="0" len="24" vol="100" />
          <note key="64" pos="168" pan="0" len="24" vol="100" />
          <note key="54" pos="264" pan="0" len="24" vol="100" />
          <note key="62" pos="336" pan="0" len="24" vol="100" />
          <note key="61" pos="360" pan="0" len="12" vol="100" />
          <note key="61" pos="372" pan="0" len="12" vol="50" />
          <note key="61" pos="408" pan="0" len="12" vol="100" />
          <note key="62" pos="420" pan="0" len="12" vol="50" />
          <note key="54" pos="456" pan="0" len="24" vol="100" />
          <note key="55" pos="528" pan="0" len="24" vol="100" />
          <note key="59" pos="552" pan="0" len="24" vol="100" />
          <note key="54" pos="648" pan="0" len="24" vol="100" />
          <note key="55" pos="720" pan="0" len="24" vol="100" />
          <note key="59" pos="744" pan="0" len="12" vol="100" />
          <note key="61" pos="756" pan="0" len="12" vol="50" />
          <note key="61" pos="792" pan="0" len="12" vol="100" />
          <note key="62" pos="804" pan="0" len="12" vol="50" />
          <note key="62" pos="912" pan="0" len="24" vol="100" />
          <note key="64" pos="936" pan="0" len="24" vol="100" />
          <note key="54" pos="1032" pan="0" len="24" vol="100" />
          <note key="62" pos="1104" pan="0" len="24" vol="100" />
          <note key="61" pos="1128" pan="0" len="12" vol="100" />
          <note key="61" pos="1140" pan="0" len="12" vol="50" />
          <note key="61" pos="1176" pan="0" len="12" vol="100" />
          <note key="62" pos="1188" pan="0" len="12" vol="50" />
          <note key="54" pos="1224" pan="0" len="24" vol="100" />
          <note key="55" pos="1296" pan="0" len="24" vol="100" />
          <note key="59" pos="1320" pan="0" len="24" vol="100" />
          <note key="54" pos="1416" pan="0" len="24" vol="100" />
          <note key="55" pos="1488" pan="0" len="24" vol="100" />
          <note key="59" pos="1512" pan="0" len="12" vol="100" />
          <note key="61" pos="1524" pan="0" len="12" vol="50" />
        </pattern>
        <pattern pos="197388" muted="0" steps="16" name="" type="1">
          <note key="58" pos="24" pan="0" len="12" vol="100" />
          <note key="59" pos="36" pan="0" len="12" vol="50" />
          <note key="51" pos="72" pan="0" len="24" vol="100" />
          <note key="52" pos="144" pan="0" len="24" vol="100" />
          <note key="56" pos="168" pan="0" len="24" vol="100" />
          <note key="51" pos="264" pan="0" len="24" vol="100" />
          <note key="52" pos="336" pan="0" len="24" vol="100" />
          <note key="56" pos="360" pan="0" len="12" vol="100" />
          <note key="58" pos="372" pan="0" len="12" vol="50" />
          <note key="58" pos="408" pan="0" len="12" vol="100" />
          <note key="59" pos="420" pan="0" len="12" vol="50" />
          <note key="51" pos="456" pan="0" len="24" vol="100" />
          <note key="52" pos="528" pan="0" len="24" vol="100" />
          <note key="56" pos="552" pan="0" len="24" vol="100" />
          <note key="51" pos="648" pan="0" len="24" vol="100" />
          <note key="52" pos="720" pan="0" len="24" vol="100" />
          <note key="56" pos="744" pan="0" len="12" vol="100" />
          <note key="58" pos="756" pan="0" len="12" vol="50" />
          <note key="56" pos="792" pan="0" len="12" vol="100" />
          <note key="57" pos="804" pan="0" len="12" vol="50" />
          <note key="49" pos="840" pan="0" len="24" vol="100" />
          <note key="50" pos="912" pan="0" len="24" vol="100" />
          <note key="54" pos="936" pan="0" len="24" vol="100" />
          <note key="49" pos="1032" pan="0" len="24" vol="100" />
          <note key="50" pos="1104" pan="0" len="24" vol="100" />
          <note key="54" pos="1128" pan="0" len="12" vol="100" />
          <note key="56" pos="1140" pan="0" len="12" vol="50" />
          <note key="56" pos="1176" pan="0" len="12" vol="100" />
          <note key="57" pos="1188" pan="0" len="12" vol="50" />
          <note key="49" pos="1224" pan="0" len="24" vol="100" />
          <note key="50" pos="1296" pan="0" len="24" vol="100" />
          <note key="54" pos="1320" pan="0" len="24" vol="100" />
          <note key="49" pos="1416" pan="0" len="24" vol="100" />
          <note key="50" pos="1488" pan="0" len="24" vol="100" />
        </pattern>
        <pattern pos="198924" muted="0" steps="16" name="" type="1">
          <note key="54" pos="24" pan="0" len="12" vol="100" />
          <note key="55" pos="36" pan="0" len="12" vol="50" />
          <note key="47" pos="72" pan="0" len="24" vol="100" />
          <note key="48" pos="144" pan="0" len="24" vol="100" />
          <note key="52" pos="168" pan="0" len="24" vol="100" />
          <note key="47" pos="264" pan="0" len="24" vol="100" />
          <note key="48" pos="336" pan="0" len="24" vol="100" />
          <note key="52" pos="360" pan="0" len="12" vol="100" />
          <note key="54" pos="372" pan="0" len="12" vol="50" />
          <note key="54" pos="408" pan="0" len="12" vol="100" />
          <note key="55" pos="420" pan="0" len="12" vol="50" />
          <note key="47" pos="456" pan="0" len="24" vol="100" />
          <note key="48" pos="528" pan="0" len="24" vol="100" />
          <note key="52" pos="552" pan="0" len="24" vol="100" />
          <note key="47" pos="648" pan="0" len="24" vol="100" />
          <note key="48" pos="720" pan="0" len="24" vol="100" />
          <note key="52" pos="744" pan="0" len="12" vol="100" />
          <note key="54" pos="756" pan="0" len="12" vol="50" />
          <note key="54" pos="792" pan="0" len="12" vol="100" />
          <note key="55" pos="804" pan="0" len="12" vol="50" />
          <note key="47" pos="840" pan="0" len="24" vol="100" />
          <note key="48" pos="912" pan="0" len="24" vol="100" />
          <note key="52" pos="936" pan="0" len="24" vol="100" />
          <note key="47" pos="1032" pan="0" len="24" vol="100" />
          <note key="48" pos="1104" pan="0" len="24" vol="100" />
          <note key="52" pos="1128" pan="0" len="12" vol="100" />
          <note key="54" pos="1140" pan="0" len="12" vol="50" />
          <note key="54" pos="1176" pan="0" len="12" vol="100" />
          <note key="55" pos="1188" pan="0" len="12" vol="50" />
          <note key="47" pos="1224" pan="0" len="24" vol="100" />
          <note key="48" pos="1296" pan="0" len="24" vol="100" />
          <note key="52" pos="1320" pan="0" len="24" vol="100" />
          <note key="47" pos="1416" pan="0" len="24" vol="100" />
          <note key="48" pos="1488" pan="0" len="24" vol="100" />
          <note key="52" pos="1512" pan="0" len="12" vol="100" />
          <note key="54" pos="1524" pan="0" len="12" vol="50" />
        </pattern>
        <pattern pos="203532" muted="0" steps="16" name="" type="1">
          <note key="55" pos="0" pan="0" len="12" vol="2" />
          <note key="60" pos="12" pan="0" len="12" vol="3" />
          <note key="62" pos="24" pan="0" len="12" vol="5" />
          <note key="63" pos="36" pan="0" len="12" vol="6" />
          <note key="55" pos="48" pan="0" len="12" vol="8" />
          <note key="60" pos="60" pan="0" len="12" vol="9" />
          <note key="62" pos="72" pan="0" len="12" vol="11" />
          <note key="63" pos="84" pan="0" len="12" vol="12" />
          <note key="55" pos="96" pan="0" len="12" vol="14" />
          <note key="60" pos="108" pan="0" len="12" vol="16" />
          <note key="62" pos="120" pan="0" len="12" vol="17" />
          <note key="63" pos="132" pan="0" len="12" vol="19" />
          <note key="55" pos="144" pan="0" len="12" vol="20" />
          <note key="60" pos="156" pan="0" len="12" vol="22" />
          <note key="62" pos="168" pan="0" len="12" vol="23" />
          <note key="65" pos="180" pan="0" len="12" vol="25" />
          <note key="55" pos="192" pan="0" len="12" vol="27" />
          <note key="60" pos="204" pan="0" len="12" vol="28" />
          <note key="62" pos="216" pan="0" len="12" vol="30" />
          <note key="63" pos="228" pan="0" len="12" vol="31" />
          <note key="55" pos="240" pan="0" len="12" vol="33" />
          <note key="60" pos="252" pan="0" len="12" vol="34" />
          <note key="62" pos="264" pan="0" len="12" vol="36" />
          <note key="63" pos="276" pan="0" len="12" vol="38" />
          <note key="55" pos="288" pan="0" len="12" vol="39" />
          <note key="60" pos="300" pan="0" len="12" vol="41" />
          <note key="62" pos="312" pan="0" len="12" vol="42" />
          <note key="63" pos="324" pan="0" len="12" vol="44" />
          <note key="55" pos="336" pan="0" len="12" vol="45" />
          <note key="60" pos="348" pan="0" len="12" vol="47" />
          <note key="62" pos="360" pan="0" len="12" vol="48" />
          <note key="65" pos="372" pan="0" len="12" vol="50" />
          <note key="55" pos="384" pan="0" len="12" vol="52" />
          <note key="60" pos="396" pan="0" len="12" vol="53" />
          <note key="62" pos="408" pan="0" len="12" vol="55" />
          <note key="63" pos="420" pan="0" len="12" vol="56" />
          <note key="55" pos="432" pan="0" len="12" vol="58" />
          <note key="60" pos="444" pan="0" len="12" vol="59" />
          <note key="62" pos="456" pan="0" len="12" vol="61" />
          <note key="63" pos="468" pan="0" len="12" vol="62" />
          <note key="55" pos="480" pan="0" len="12" vol="64" />
          <note key="60" pos="492" pan="0" len="12" vol="66" />
          <note key="62" pos="504" pan="0" len="12" vol="67" />
          <note key="63" pos="516" pan="0" len="12" vol="69" />
          <note key="55" pos="528" pan="0" len="12" vol="70" />
          <note key="60" pos="540" pan="0" len="12" vol="72" />
          <note key="62" pos="552" pan="0" len="12" vol="73" />
          <note key="65" pos="564" pan="0" len="12" vol="75" />
          <note key="55" pos="576" pan="0" len="12" vol="77" />
          <note key="60" pos="588" pan="0" len="12" vol="78" />
          <note key="62" pos="600" pan="0" len="12" vol="80" />
          <note key="63" pos="612" pan="0" len="12" vol="81" />
          <note key="55" pos="624" pan="0" len="12" vol="83" />
          <note key="60" pos="636" pan="0" len="12" vol="84" />
          <note key="62" pos="648" pan="0" len="12" vol="86" />
          <note key="63" pos="660" pan="0" len="12" vol="88" />
          <note key="55" pos="672" pan="0" len="12" vol="89" />
          <note key="60" pos="684" pan="0" len="12" vol="91" />
          <note key="62" pos="696" pan="0" len="12" vol="92" />
          <note key="63" pos="708" pan="0" len="12" vol="94" />
          <note key="55" pos="720" pan="0" len="12" vol="95" />
          <note key="60" pos="732" pan="0" len="12" vol="97" />
          <note key="62" pos="744" pan="0" len="12" vol="98" />
          <note key="65" pos="756" pan="0" len="12" vol="100" />
          <note key="55" pos="768" pan="0" len="12" vol="100" />
          <note key="60" pos="780" pan="0" len="12" vol="100" />
          <note key="62" pos="792" pan="0" len="12" vol="100" />
          <note key="63" pos="804" pan="0" len="12" vol="100" />
          <note key="55" pos="816" pan="0" len="12" vol="100" />
          <note key="60" pos="828" pan="0" len="12" vol="100" />
          <note key="62" pos="840" pan="0" len="12" vol="100" />
          <note key="63" pos="852" pan="0" len="12" vol="100" />
          <note key="55" pos="864" pan="0" len="12" vol="100" />
          <note key="60" pos="876" pan="0" len="12" vol="100" />
          <note key="62" pos="888" pan="0" len="12" vol="100" />
          <note key="63" pos="900" pan="0" len="12" vol="100" />
          <note key="55" pos="912" pan="0" len="12" vol="100" />
          <note key="60" pos="924" pan="0" len="12" vol="100" />
          <note key="62" pos="936" pan="0" len="12" vol="100" />
          <note key="65" pos="948" pan="0" len="12" vol="100" />
          <note key="55" pos="960" pan="0" len="12" vol="100" />
          <note key="60" pos="972" pan="0" len="12" vol="100" />
          <note key="62" pos="984" pan="0" len="12" vol="100" />
          <note key="63" pos="996" pan="0" len="12" vol="100" />
          <note key="55" pos="1008" pan="0" len="12" vol="100" />
          <note key="60" pos="1020" pan="0" len="12" vol="100" />
          <note key="62" pos="1032" pan="0" len="12" vol="100" />
          <note key="63" pos="1044" pan="0" len="12" vol="100" />
          <note key="55" pos="1056" pan="0" len="12" vol="100" />
          <note key="60" pos="1068" pan="0" len="12" vol="100" />
          <note key="62" pos="1080" pan="0" len="12" vol="100" />
          <note key="63" pos="1092" pan="0" len="12" vol="100" />
          <note key="55" pos="1104" pan="0" len="12" vol="100" />
          <note key="60" pos="1116" pan="0" len="12" vol="100" />
          <note key="62" pos="1128" pan="0" len="12" vol="100" />
          <note key="65" pos="1140" pan="0" len="12" vol="100" />
          <note key="55" pos="1152" pan="0" len="12" vol="100" />
          <note key="60" pos="1164" pan="0" len="12" vol="100" />
          <note key="62" pos="1176" pan="0" len="12" vol="100" />
          <note key="63" pos="1188" pan="0" len="12" vol="100" />
          <note key="55" pos="1200" pan="0" len="12" vol="100" />
          <note key="60" pos="1212" pan="0" len="12" vol="100" />
          <note key="62" pos="1224" pan="0" len="12" vol="100" />
          <note key="63" pos="1236" pan="0" len="12" vol="100" />
          <note key="55" pos="1248" pan="0" len="12" vol="100" />
          <note key="60" pos="1260" pan="0" len="12" vol="100" />
          <note key="62" pos="1272" pan="0" len="12" vol="100" />
          <note key="63" pos="1284" pan="0" len="12" vol="100" />
          <note key="55" pos="1296" pan="0" len="12" vol="100" />
          <note key="60" pos="1308" pan="0" len="12" vol="100" />
          <note key="62" pos="1320" pan="0" len="12" vol="100" />
          <note key="65" pos="1332" pan="0" len="12" vol="100" />
          <note key="55" pos="1344" pan="0" len="12" vol="100" />
          <note key="60" pos="1356" pan="0" len="24" vol="100" />
          <note key="63" pos="1380" pan="0" len="12" vol="100" />
          <note key="55" pos="1392" pan="0" len="12" vol="100" />
          <note key="60" pos="1404" pan="0" len="12" vol="100" />
          <note key="62" pos="1416" pan="0" len="12" vol="100" />
          <note key="63" pos="1428" pan="0" len="12" vol="100" />
          <note key="55" pos="1440" pan="0" len="12" vol="100" />
          <note key="60" pos="1452" pan="0" len="24" vol="100" />
          <note key="63" pos="1476" pan="0" len="12" vol="100" />
          <note key="55" pos="1488" pan="0" len="12" vol="100" />
          <note key="60" pos="1500" pan="0" len="12" vol="100" />
          <note key="62" pos="1512" pan="0" len="12" vol="100" />
          <note key="65" pos="1524" pan="0" len="12" vol="100" />
        </pattern>
        <pattern pos="205068" muted="0" steps="16" name="" type="1">
          <note key="67" pos="0" pan="0" len="12" vol="100" />
          <note key="72" pos="12" pan="0" len="12" vol="100" />
          <note key="74" pos="24" pan="0" len="12" vol="100" />
          <note key="75" pos="36" pan="0" len="12" vol="100" />
          <note key="67" pos="48" pan="0" len="12" vol="100" />
          <note key="72" pos="60" pan="0" len="12" vol="100" />
          <note key="74" pos="72" pan="0" len="12" vol="100" />
          <note key="75" pos="84" pan="0" len="12" vol="100" />
          <note key="67" pos="96" pan="0" len="12" vol="100" />
          <note key="72" pos="108" pan="0" len="12" vol="100" />
          <note key="74" pos="120" pan="0" len="12" vol="100" />
          <note key="75" pos="132" pan="0" len="12" vol="100" />
          <note key="55" pos="192" pan="0" len="12" vol="100" />
          <note key="60" pos="204" pan="0" len="12" vol="100" />
          <note key="62" pos="216" pan="0" len="12" vol="100" />
          <note key="63" pos="228" pan="0" len="12" vol="100" />
          <note key="55" pos="240" pan="0" len="12" vol="100" />
          <note key="60" pos="252" pan="0" len="12" vol="100" />
          <note key="62" pos="264" pan="0" len="12" vol="100" />
          <note key="63" pos="276" pan="0" len="12" vol="100" />
          <note key="55" pos="288" pan="0" len="12" vol="100" />
          <note key="60" pos="300" pan="0" len="12" vol="100" />
          <note key="62" pos="312" pan="0" len="12" vol="100" />
          <note key="63" pos="324" pan="0" len="12" vol="100" />
          <note key="62" pos="384" pan="0" len="12" vol="100" />
          <note key="67" pos="396" pan="0" len="12" vol="100" />
          <note key="69" pos="408" pan="0" len="12" vol="100" />
          <note key="70" pos="420" pan="0" len="12" vol="100" />
          <note key="62" pos="432" pan="0" len="12" vol="100" />
          <note key="67" pos="444" pan="0" len="12" vol="100" />
          <note key="69" pos="456" pan="0" len="12" vol="100" />
          <note key="70" pos="468" pan="0" len="12" vol="100" />
          <note key="62" pos="480" pan="0" len="12" vol="100" />
          <note key="67" pos="492" pan="0" len="12" vol="100" />
          <note key="69" pos="504" pan="0" len="12" vol="100" />
          <note key="70" pos="516" pan="0" len="60" vol="100" />
          <note key="62" pos="576" pan="0" len="12" vol="100" />
          <note key="67" pos="588" pan="0" len="12" vol="100" />
          <note key="69" pos="600" pan="0" len="12" vol="100" />
          <note key="70" pos="612" pan="0" len="12" vol="100" />
          <note key="62" pos="624" pan="0" len="12" vol="100" />
          <note key="67" pos="636" pan="0" len="12" vol="100" />
          <note key="69" pos="648" pan="0" len="12" vol="100" />
          <note key="70" pos="660" pan="0" len="12" vol="100" />
          <note key="62" pos="672" pan="0" len="12" vol="100" />
          <note key="67" pos="684" pan="0" len="12" vol="100" />
          <note key="69" pos="696" pan="0" len="12" vol="100" />
          <note key="70" pos="708" pan="0" len="60" vol="100" />
          <note key="60" pos="768" pan="0" len="12" vol="100" />
          <note key="65" pos="780" pan="0" len="12" vol="100" />
          <note key="67" pos="792" pan="0" len="12" vol="100" />
          <note key="68" pos="804" pan="0" len="12" vol="100" />
          <note key="60" pos="816" pan="0" len="12" vol="100" />
          <note key="65" pos="828" pan="0" len="12" vol="100" />
          <note key="67" pos="840" pan="0" len="12" vol="100" />
          <note key="68" pos="852" pan="0" len="12" vol="100" />
          <note key="60" pos="864" pan="0" len="12" vol="100" />
          <note key="65" pos="876" pan="0" len="12" vol="100" />
          <note key="67" pos="888" pan="0" len="12" vol="100" />
          <note key="68" pos="900" pan="0" len="60" vol="100" />
          <note key="60" pos="960" pan="0" len="12" vol="100" />
          <note key="65" pos="972" pan="0" len="12" vol="100" />
          <note key="67" pos="984" pan="0" len="12" vol="100" />
          <note key="68" pos="996" pan="0" len="12" vol="100" />
          <note key="60" pos="1008" pan="0" len="12" vol="100" />
          <note key="65" pos="1020" pan="0" len="12" vol="100" />
          <note key="67" pos="1032" pan="0" len="12" vol="100" />
          <note key="68" pos="1044" pan="0" len="12" vol="100" />
          <note key="60" pos="1056" pan="0" len="12" vol="100" />
          <note key="65" pos="1068" pan="0" len="12" vol="100" />
          <note key="67" pos="1080" pan="0" len="12" vol="100" />
          <note key="68" pos="1092" pan="0" len="60" vol="100" />
          <note key="67" pos="1152" pan="0" len="12" vol="100" />
          <note key="72" pos="1164" pan="0" len="12" vol="100" />
          <note key="74" pos="1176" pan="0" len="12" vol="100" />
          <note key="75" pos="1188" pan="0" len="12" vol="100" />
          <note key="67" pos="1200" pan="0" len="12" vol="100" />
          <note key="72" pos="1212" pan="0" len="12" vol="100" />
          <note key="74" pos="1224" pan="0" len="12" vol="100" />
          <note key="75" pos="1236" pan="0" len="12" vol="100" />
          <note key="67" pos="1248" pan="0" len="12" vol="100" />
          <note key="72" pos="1260" pan="0" len="12" vol="100" />
          <note key="74" pos="1272" pan="0" len="12" vol="100" />
          <note key="75" pos="1284" pan="0" len="60" vol="100" />
          <note key="68" pos="1344" pan="0" len="12" vol="100" />
          <note key="72" pos="1356" pan="0" len="12" vol="100" />
          <note key="74" pos="1368" pan="0" len="12" vol="100" />
          <note key="77" pos="1380" pan="0" len="12" vol="100" />
          <note key="68" pos="1392" pan="0" len="12" vol="100" />
          <note key="72" pos="1404" pan="0" len="12" vol="100" />
          <note key="74" pos="1416" pan="0" len="12" vol="100" />
          <note key="77" pos="1428" pan="0" len="12" vol="100" />
          <note key="65" pos="1440" pan="0" len="12" vol="100" />
          <note key="68" pos="1452" pan="0" len="12" vol="100" />
          <note key="70" pos="1464" pan="0" len="12" vol="100" />
          <note key="72" pos="1476" pan="0" len="60" vol="100" />
        </pattern>
        <pattern pos="206604" muted="0" steps="16" name="" type="1">
          <note key="55" pos="0" pan="0" len="12" vol="100" />
          <note key="60" pos="12" pan="0" len="12" vol="100" />
          <note key="62" pos="24" pan="0" len="12" vol="100" />
          <note key="63" pos="36" pan="0" len="12" vol="100" />
          <note key="67" pos="48" pan="0" len="12" vol="100" />
          <note key="72" pos="60" pan="0" len="12" vol="100" />
          <note key="74" pos="72" pan="0" len="12" vol="100" />
          <note key="75" pos="84" pan="0" len="12" vol="100" />
          <note key="55" pos="96" pan="0" len="12" vol="100" />
          <note key="60" pos="108" pan="0" len="12" vol="100" />
          <note key="62" pos="120" pan="0" len="12" vol="100" />
          <note key="63" pos="132" pan="0" len="60" vol="100" />
          <note key="55" pos="192" pan="0" len="12" vol="100" />
          <note key="60" pos="204" pan="0" len="12" vol="100" />
          <note key="62" pos="216" pan="0" len="12" vol="100" />
          <note key="63" pos="228" pan="0" len="12" vol="100" />
          <note key="67" pos="240" pan="0" len="12" vol="100" />
          <note key="72" pos="252" pan="0" len="12" vol="100" />
          <note key="74" pos="264" pan="0" len="12" vol="100" />
          <note key="75" pos="276" pan="0" len="12" vol="100" />
          <note key="55" pos="288" pan="0" len="12" vol="100" />
          <note key="60" pos="300" pan="0" len="12" vol="100" />
          <note key="62" pos="312" pan="0" len="12" vol="100" />
          <note key="63" pos="324" pan="0" len="60" vol="100" />
          <note key="50" pos="384" pan="0" len="12" vol="100" />
          <note key="55" pos="396" pan="0" len="12" vol="100" />
          <note key="57" pos="408" pan="0" len="12" vol="100" />
          <note key="58" pos="420" pan="0" len="12" vol="100" />
          <note key="62" pos="432" pan="0" len="12" vol="100" />
          <note key="67" pos="444" pan="0" len="12" vol="100" />
          <note key="69" pos="456" pan="0" len="12" vol="100" />
          <note key="70" pos="468" pan="0" len="12" vol="100" />
          <note key="50" pos="480" pan="0" len="12" vol="100" />
          <note key="55" pos="492" pan="0" len="12" vol="100" />
          <note key="57" pos="504" pan="0" len="12" vol="100" />
          <note key="58" pos="516" pan="0" len="60" vol="100" />
          <note key="50" pos="576" pan="0" len="12" vol="100" />
          <note key="55" pos="588" pan="0" len="12" vol="100" />
          <note key="57" pos="600" pan="0" len="12" vol="100" />
          <note key="58" pos="612" pan="0" len="12" vol="100" />
          <note key="62" pos="624" pan="0" len="12" vol="100" />
          <note key="67" pos="636" pan="0" len="12" vol="100" />
          <note key="69" pos="648" pan="0" len="12" vol="100" />
          <note key="70" pos="660" pan="0" len="12" vol="100" />
          <note key="50" pos="672" pan="0" len="12" vol="100" />
          <note key="55" pos="684" pan="0" len="12" vol="100" />
          <note key="57" pos="696" pan="0" len="12" vol="100" />
          <note key="58" pos="708" pan="0" len="60" vol="100" />
          <note key="48" pos="768" pan="0" len="12" vol="100" />
          <note key="53" pos="780" pan="0" len="12" vol="100" />
          <note key="55" pos="792" pan="0" len="12" vol="100" />
          <note key="56" pos="804" pan="0" len="12" vol="100" />
          <note key="60" pos="816" pan="0" len="12" vol="100" />
          <note key="65" pos="828" pan="0" len="12" vol="100" />
          <note key="67" pos="840" pan="0" len="12" vol="100" />
          <note key="68" pos="852" pan="0" len="12" vol="100" />
          <note key="48" pos="864" pan="0" len="12" vol="100" />
          <note key="53" pos="876" pan="0" len="12" vol="100" />
          <note key="55" pos="888" pan="0" len="12" vol="100" />
          <note key="56" pos="900" pan="0" len="60" vol="100" />
          <note key="48" pos="960" pan="0" len="12" vol="100" />
          <note key="53" pos="972" pan="0" len="12" vol="100" />
          <note key="55" pos="984" pan="0" len="12" vol="100" />
          <note key="56" pos="996" pan="0" len="12" vol="100" />
          <note key="48" pos="1008" pan="0" len="12" vol="100" />
          <note key="53" pos="1020" pan="0" len="12" vol="100" />
          <note key="55" pos="1032" pan="0" len="12" vol="100" />
          <note key="56" pos="1044" pan="0" len="12" vol="100" />
          <note key="48" pos="1056" pan="0" len="12" vol="100" />
          <note key="53" pos="1068" pan="0" len="12" vol="100" />
          <note key="55" pos="1080" pan="0" len="12" vol="100" />
          <note key="56" pos="1092" pan="0" len="60" vol="100" />
          <note key="55" pos="1152" pan="0" len="12" vol="100" />
          <note key="60" pos="1164" pan="0" len="12" vol="100" />
          <note key="62" pos="1176" pan="0" len="12" vol="100" />
          <note key="65" pos="1188" pan="0" len="12" vol="100" />
          <note key="55" pos="1200" pan="0" len="12" vol="100" />
          <note key="60" pos="1212" pan="0" len="12" vol="100" />
          <note key="62" pos="1224" pan="0" len="12" vol="100" />
          <note key="65" pos="1236" pan="0" len="12" vol="100" />
          <note key="55" pos="1248" pan="0" len="12" vol="100" />
          <note key="60" pos="1260" pan="0" len="12" vol="100" />
          <note key="62" pos="1272" pan="0" len="12" vol="100" />
          <note key="65" pos="1284" pan="0" len="60" vol="100" />
          <note key="55" pos="1344" pan="0" len="12" vol="100" />
          <note key="60" pos="1356" pan="0" len="12" vol="100" />
          <note key="62" pos="1368" pan="0" len="12" vol="100" />
          <note key="65" pos="1380" pan="0" len="12" vol="100" />
          <note key="55" pos="1392" pan="0" len="12" vol="100" />
          <note key="60" pos="1404" pan="0" len="12" vol="100" />
          <note key="62" pos="1416" pan="0" len="12" vol="100" />
          <note key="65" pos="1428" pan="0" len="108" vol="100" />
        </pattern>
        <pattern pos="211212" muted="0" steps="16" name="" type="1">
          <note key="67" pos="0" pan="0" len="12" vol="100" />
          <note key="72" pos="12" pan="0" len="12" vol="100" />
          <note key="74" pos="24" pan="0" len="12" vol="100" />
          <note key="75" pos="36" pan="0" len="12" vol="100" />
          <note key="67" pos="48" pan="0" len="12" vol="100" />
          <note key="72" pos="60" pan="0" len="12" vol="100" />
          <note key="74" pos="72" pan="0" len="12" vol="100" />
          <note key="75" pos="84" pan="0" len="12" vol="100" />
          <note key="67" pos="96" pan="0" len="12" vol="100" />
          <note key="72" pos="108" pan="0" len="12" vol="100" />
          <note key="74" pos="120" pan="0" len="12" vol="100" />
          <note key="75" pos="132" pan="0" len="12" vol="100" />
          <note key="55" pos="192" pan="0" len="12" vol="100" />
          <note key="60" pos="204" pan="0" len="12" vol="100" />
          <note key="62" pos="216" pan="0" len="12" vol="100" />
          <note key="63" pos="228" pan="0" len="12" vol="100" />
          <note key="55" pos="240" pan="0" len="12" vol="100" />
          <note key="60" pos="252" pan="0" len="12" vol="100" />
          <note key="62" pos="264" pan="0" len="12" vol="100" />
          <note key="63" pos="276" pan="0" len="12" vol="100" />
          <note key="55" pos="288" pan="0" len="12" vol="100" />
          <note key="60" pos="300" pan="0" len="12" vol="100" />
          <note key="62" pos="312" pan="0" len="12" vol="100" />
          <note key="63" pos="324" pan="0" len="12" vol="100" />
          <note key="67" pos="384" pan="0" len="12" vol="100" />
          <note key="72" pos="396" pan="0" len="12" vol="100" />
          <note key="74" pos="408" pan="0" len="12" vol="100" />
          <note key="75" pos="420" pan="0" len="12" vol="100" />
          <note key="67" pos="432" pan="0" len="12" vol="100" />
          <note key="72" pos="444" pan="0" len="12" vol="100" />
          <note key="74" pos="456" pan="0" len="12" vol="100" />
          <note key="75" pos="468" pan="0" len="12" vol="100" />
          <note key="67" pos="480" pan="0" len="12" vol="100" />
          <note key="72" pos="492" pan="0" len="12" vol="100" />
          <note key="74" pos="504" pan="0" len="12" vol="100" />
          <note key="75" pos="516" pan="0" len="12" vol="100" />
          <note key="55" pos="576" pan="0" len="12" vol="100" />
          <note key="60" pos="588" pan="0" len="12" vol="100" />
          <note key="62" pos="600" pan="0" len="12" vol="100" />
          <note key="63" pos="612" pan="0" len="12" vol="100" />
          <note key="55" pos="624" pan="0" len="12" vol="100" />
          <note key="60" pos="636" pan="0" len="12" vol="100" />
          <note key="62" pos="648" pan="0" len="12" vol="100" />
          <note key="63" pos="660" pan="0" len="12" vol="100" />
          <note key="55" pos="672" pan="0" len="12" vol="100" />
          <note key="60" pos="684" pan="0" len="12" vol="100" />
          <note key="62" pos="696" pan="0" len="12" vol="100" />
          <note key="63" pos="708" pan="0" len="12" vol="100" />
          <note key="67" pos="768" pan="0" len="12" vol="100" />
          <note key="72" pos="780" pan="0" len="12" vol="100" />
          <note key="74" pos="792" pan="0" len="12" vol="100" />
          <note key="75" pos="804" pan="0" len="12" vol="100" />
          <note key="67" pos="816" pan="0" len="12" vol="100" />
          <note key="72" pos="828" pan="0" len="12" vol="100" />
          <note key="74" pos="840" pan="0" len="12" vol="100" />
          <note key="75" pos="852" pan="0" len="12" vol="100" />
          <note key="67" pos="864" pan="0" len="12" vol="100" />
          <note key="72" pos="876" pan="0" len="12" vol="100" />
          <note key="74" pos="888" pan="0" len="12" vol="100" />
          <note key="75" pos="900" pan="0" len="12" vol="100" />
          <note key="55" pos="960" pan="0" len="12" vol="100" />
          <note key="60" pos="972" pan="0" len="12" vol="100" />
          <note key="62" pos="984" pan="0" len="12" vol="100" />
          <note key="63" pos="996" pan="0" len="12" vol="100" />
          <note key="55" pos="1008" pan="0" len="12" vol="100" />
          <note key="60" pos="1020" pan="0" len="12" vol="100" />
          <note key="62" pos="1032" pan="0" len="12" vol="100" />
          <note key="63" pos="1044" pan="0" len="12" vol="100" />
          <note key="55" pos="1056" pan="0" len="12" vol="100" />
          <note key="60" pos="1068" pan="0" len="12" vol="100" />
          <note key="62" pos="1080" pan="0" len="12" vol="100" />
          <note key="63" pos="1092" pan="0" len="12" vol="100" />
          <note key="67" pos="1152" pan="0" len="12" vol="100" />
          <note key="72" pos="1164" pan="0" len="12" vol="100" />
          <note key="74" pos="1176" pan="0" len="12" vol="100" />
          <note key="75" pos="1188" pan="0" len="12" vol="100" />
          <note key="67" pos="1200" pan="0" len="12" vol="100" />
          <note key="72" pos="1212" pan="0" len="12" vol="100" />
          <note key="74" pos="1224" pan="0" len="12" vol="100" />
          <note key="75" pos="1236" pan="0" len="12" vol="100" />
          <note key="67" pos="1248" pan="0" len="12" vol="100" />
          <note key="72" pos="1260" pan="0" len="12" vol="100" />
          <note key="74" pos="1272" pan="0" len="12" vol="100" />
          <note key="75" pos="1284" pan="0" len="12" vol="100" />
          <note key="55" pos="1344" pan="0" len="12" vol="100" />
          <note key="60" pos="1356" pan="0" len="12" vol="100" />
          <note key="62" pos="1368" pan="0" len="12" vol="100" />
          <note key="63" pos="1380" pan="0" len="12" vol="100" />
          <note key="55" pos="1392" pan="0" len="12" vol="100" />
          <note key="60" pos="1404" pan="0" len="12" vol="100" />
          <note key="62" pos="1416" pan="0" len="12" vol="100" />
          <note key="63" pos="1428" pan="0" len="12" vol="100" />
          <note key="55" pos="1440" pan="0" len="12" vol="100" />
          <note key="60" pos="1452" pan="0" len="12" vol="100" />
          <note key="62" pos="1464" pan="0" len="12" vol="100" />
          <note key="63" pos="1476" pan="0" len="12" vol="100" />
        </pattern>
        <pattern pos="212748" muted="0" steps="16" name="" type="1">
          <note key="67" pos="0" pan="0" len="12" vol="100" />
          <note key="72" pos="12" pan="0" len="12" vol="100" />
          <note key="74" pos="24" pan="0" len="12" vol="100" />
          <note key="75" pos="36" pan="0" len="12" vol="100" />
          <note key="67" pos="48" pan="0" len="12" vol="100" />
          <note key="72" pos="60" pan="0" len="12" vol="100" />
          <note key="74" pos="72" pan="0" len="12" vol="100" />
          <note key="75" pos="84" pan="0" len="12" vol="100" />
          <note key="67" pos="96" pan="0" len="12" vol="100" />
          <note key="72" pos="108" pan="0" len="12" vol="100" />
          <note key="74" pos="120" pan="0" len="12" vol="100" />
          <note key="75" pos="132" pan="0" len="12" vol="100" />
          <note key="55" pos="192" pan="0" len="12" vol="100" />
          <note key="60" pos="204" pan="0" len="12" vol="100" />
          <note key="62" pos="216" pan="0" len="12" vol="100" />
          <note key="63" pos="228" pan="0" len="12" vol="100" />
          <note key="55" pos="240" pan="0" len="12" vol="100" />
          <note key="60" pos="252" pan="0" len="12" vol="100" />
          <note key="62" pos="264" pan="0" len="12" vol="100" />
          <note key="63" pos="276" pan="0" len="12" vol="100" />
          <note key="55" pos="288" pan="0" len="12" vol="100" />
          <note key="60" pos="300" pan="0" len="12" vol="100" />
          <note key="62" pos="312" pan="0" len="12" vol="100" />
          <note key="63" pos="324" pan="0" len="12" vol="100" />
          <note key="62" pos="384" pan="0" len="12" vol="100" />
          <note key="67" pos="396" pan="0" len="12" vol="100" />
          <note key="69" pos="408" pan="0" len="12" vol="100" />
          <note key="70" pos="420" pan="0" len="12" vol="100" />
          <note key="62" pos="432" pan="0" len="12" vol="100" />
          <note key="67" pos="444" pan="0" len="12" vol="100" />
          <note key="69" pos="456" pan="0" len="12" vol="100" />
          <note key="70" pos="468" pan="0" len="12" vol="100" />
          <note key="62" pos="480" pan="0" len="12" vol="100" />
          <note key="67" pos="492" pan="0" len="12" vol="100" />
          <note key="69" pos="504" pan="0" len="12" vol="100" />
          <note key="70" pos="516" pan="0" len="60" vol="100" />
          <note key="62" pos="576" pan="0" len="12" vol="100" />
          <note key="67" pos="588" pan="0" len="12" vol="100" />
          <note key="69" pos="600" pan="0" len="12" vol="100" />
          <note key="70" pos="612" pan="0" len="12" vol="100" />
          <note key="62" pos="624" pan="0" len="12" vol="100" />
          <note key="67" pos="636" pan="0" len="12" vol="100" />
          <note key="69" pos="648" pan="0" len="12" vol="100" />
          <note key="70" pos="660" pan="0" len="12" vol="100" />
          <note key="62" pos="672" pan="0" len="12" vol="100" />
          <note key="67" pos="684" pan="0" len="12" vol="100" />
          <note key="69" pos="696" pan="0" len="12" vol="100" />
          <note key="70" pos="708" pan="0" len="60" vol="100" />
          <note key="48" pos="768" pan="0" len="12" vol="100" />
          <note key="53" pos="780" pan="0" len="12" vol="100" />
          <note key="55" pos="792" pan="0" len="12" vol="100" />
          <note key="56" pos="804" pan="0" len="12" vol="100" />
          <note key="60" pos="816" pan="0" len="12" vol="100" />
          <note key="65" pos="828" pan="0" len="12" vol="100" />
          <note key="67" pos="840" pan="0" len="12" vol="100" />
          <note key="68" pos="852" pan="0" len="12" vol="100" />
          <note key="48" pos="864" pan="0" len="12" vol="100" />
          <note key="53" pos="876" pan="0" len="12" vol="100" />
          <note key="55" pos="888" pan="0" len="12" vol="100" />
          <note key="56" pos="900" pan="0" len="60" vol="100" />
          <note key="48" pos="960" pan="0" len="12" vol="100" />
          <note key="53" pos="972" pan="0" len="12" vol="100" />
          <note key="55" pos="984" pan="0" len="12" vol="100" />
          <note key="56" pos="996" pan="0" len="12" vol="100" />
          <note key="48" pos="1008" pan="0" len="12" vol="100" />
          <note key="53" pos="1020" pan="0" len="12" vol="100" />
          <note key="55" pos="1032" pan="0" len="12" vol="100" />
          <note key="56" pos="1044" pan="0" len="12" vol="100" />
          <note key="48" pos="1056" pan="0" len="12" vol="100" />
          <note key="53" pos="1068" pan="0" len="12" vol="100" />
          <note key="55" pos="1080" pan="0" len="12" vol="100" />
          <note key="56" pos="1092" pan="0" len="60" vol="100" />
          <note key="55" pos="1152" pan="0" len="12" vol="100" />
          <note key="60" pos="1164" pan="0" len="12" vol="100" />
          <note key="62" pos="1176" pan="0" len="12" vol="100" />
          <note key="65" pos="1188" pan="0" len="12" vol="100" />
          <note key="55" pos="1200" pan="0" len="12" vol="100" />
          <note key="60" pos="1212" pan="0" len="12" vol="100" />
          <note key="62" pos="1224" pan="0" len="12" vol="100" />
          <note key="65" pos="1236" pan="0" len="12" vol="100" />
          <note key="55" pos="1248" pan="0" len="12" vol="100" />
          <note key="60" pos="1260" pan="0" len="12" vol="100" />
          <note key="62" pos="1272" pan="0" len="12" vol="100" />
          <note key="65" pos="1284" pan="0" len="60" vol="100" />
          <note key="55" pos="1344" pan="0" len="12" vol="100" />
          <note key="60" pos="1356" pan="0" len="12" vol="100" />
          <note key="62" pos="1368" pan="0" len="12" vol="100" />
          <note key="65" pos="1380" pan="0" len="12" vol="100" />
          <note key="55" pos="1392" pan="0" len="12" vol="100" />
          <note key="60" pos="1404" pan="0" len="12" vol="100" />
          <note key="62" pos="1416" pan="0" len="12" vol="100" />
          <note key="65" pos="1428" pan="0" len="108" vol="100" />
        </pattern>
        <pattern pos="214284" muted="0" steps="16" name="" type="1">
          <note key="67" pos="0" pan="0" len="12" vol="100" />
          <note key="72" pos="12" pan="0" len="12" vol="100" />
          <note key="74" pos="24" pan="0" len="12" vol="100" />
          <note key="75" pos="36" pan="0" len="12" vol="100" />
          <note key="67" pos="48" pan="0" len="12" vol="100" />
          <note key="72" pos="60" pan="0" len="12" vol="100" />
          <note key="74" pos="72" pan="0" len="12" vol="100" />
          <note key="75" pos="84" pan="0" len="12" vol="100" />
          <note key="67" pos="96" pan="0" len="12" vol="100" />
          <note key="72" pos="108" pan="0" len="12" vol="100" />
          <note key="74" pos="120" pan="0" len="12" vol="100" />
          <note key="75" pos="132" pan="0" len="12" vol="100" />
          <note key="55" pos="192" pan="0" len="12" vol="100" />
          <note key="60" pos="204" pan="0" len="12" vol="100" />
          <note key="62" pos="216" pan="0" len="12" vol="100" />
          <note key="63" pos="228" pan="0" len="12" vol="100" />
          <note key="55" pos="240" pan="0" len="12" vol="100" />
          <note key="60" pos="252" pan="0" len="12" vol="100" />
          <note key="62" pos="264" pan="0" len="12" vol="100" />
          <note key="63" pos="276" pan="0" len="12" vol="100" />
          <note key="55" pos="288" pan="0" len="12" vol="100" />
          <note key="60" pos="300" pan="0" len="12" vol="100" />
          <note key="62" pos="312" pan="0" len="12" vol="100" />
          <note key="63" pos="324" pan="0" len="12" vol="100" />
          <note key="62" pos="384" pan="0" len="12" vol="100" />
          <note key="67" pos="396" pan="0" len="12" vol="100" />
          <note key="69" pos="408" pan="0" len="12" vol="100" />
          <note key="70" pos="420" pan="0" len="12" vol="100" />
          <note key="62" pos="432" pan="0" len="12" vol="100" />
          <note key="67" pos="444" pan="0" len="12" vol="100" />
          <note key="69" pos="456" pan="0" len="12" vol="100" />
          <note key="70" pos="468" pan="0" len="12" vol="100" />
          <note key="62" pos="480" pan="0" len="12" vol="100" />
          <note key="67" pos="492" pan="0" len="12" vol="100" />
          <note key="69" pos="504" pan="0" len="12" vol="100" />
          <note key="70" pos="516" pan="0" len="60" vol="100" />
          <note key="62" pos="576" pan="0" len="12" vol="100" />
          <note key="67" pos="588" pan="0" len="12" vol="100" />
          <note key="69" pos="600" pan="0" len="12" vol="100" />
          <note key="70" pos="612" pan="0" len="12" vol="100" />
          <note key="62" pos="624" pan="0" len="12" vol="100" />
          <note key="67" pos="636" pan="0" len="12" vol="100" />
          <note key="69" pos="648" pan="0" len="12" vol="100" />
          <note key="70" pos="660" pan="0" len="12" vol="100" />
          <note key="62" pos="672" pan="0" len="12" vol="100" />
          <note key="67" pos="684" pan="0" len="12" vol="100" />
          <note key="69" pos="696" pan="0" len="12" vol="100" />
          <note key="70" pos="708" pan="0" len="60" vol="100" />
          <note key="48" pos="768" pan="0" len="12" vol="100" />
          <note key="53" pos="780" pan="0" len="12" vol="100" />
          <note key="55" pos="792" pan="0" len="12" vol="100" />
          <note key="56" pos="804" pan="0" len="12" vol="100" />
          <note key="60" pos="816" pan="0" len="12" vol="100" />
          <note key="65" pos="828" pan="0" len="12" vol="100" />
          <note key="67" pos="840" pan="0" len="12" vol="100" />
          <note key="68" pos="852" pan="0" len="12" vol="100" />
          <note key="48" pos="864" pan="0" len="12" vol="100" />
          <note key="53" pos="876" pan="0" len="12" vol="100" />
          <note key="55" pos="888" pan="0" len="12" vol="100" />
          <note key="56" pos="900" pan="0" len="60" vol="100" />
          <note key="48" pos="960" pan="0" len="12" vol="100" />
          <note key="53" pos="972" pan="0" len="12" vol="100" />
          <note key="55" pos="984" pan="0" len="12" vol="100" />
          <note key="56" pos="996" pan="0" len="12" vol="100" />
          <note key="48" pos="1008" pan="0" len="12" vol="100" />
          <note key="53" pos="1020" pan="0" len="12" vol="100" />
          <note key="55" pos="1032" pan="0" len="12" vol="100" />
          <note key="56" pos="1044" pan="0" len="12" vol="100" />
          <note key="48" pos="1056" pan="0" len="12" vol="100" />
          <note key="53" pos="1068" pan="0" len="12" vol="100" />
          <note key="55" pos="1080" pan="0" len="12" vol="100" />
          <note key="56" pos="1092" pan="0" len="60" vol="100" />
          <note key="55" pos="1152" pan="0" len="12" vol="100" />
          <note key="60" pos="1164" pan="0" len="12" vol="100" />
          <note key="62" pos="1176" pan="0" len="12" vol="100" />
          <note key="65" pos="1188" pan="0" len="12" vol="100" />
          <note key="55" pos="1200" pan="0" len="12" vol="100" />
          <note key="60" pos="1212" pan="0" len="12" vol="100" />
          <note key="62" pos="1224" pan="0" len="12" vol="100" />
          <note key="65" pos="1236" pan="0" len="12" vol="100" />
          <note key="55" pos="1248" pan="0" len="12" vol="100" />
          <note key="60" pos="1260" pan="0" len="12" vol="100" />
          <note key="62" pos="1272" pan="0" len="12" vol="100" />
          <note key="65" pos="1284" pan="0" len="60" vol="100" />
          <note key="55" pos="1344" pan="0" len="12" vol="100" />
          <note key="60" pos="1356" pan="0" len="12" vol="100" />
          <note key="62" pos="1368" pan="0" len="12" vol="100" />
          <note key="65" pos="1380" pan="0" len="12" vol="100" />
          <note key="55" pos="1392" pan="0" len="12" vol="100" />
          <note key="60" pos="1404" pan="0" len="12" vol="100" />
          <note key="62" pos="1416" pan="0" len="12" vol="100" />
          <note key="65" pos="1428" pan="0" len="108" vol="100" />
        </pattern>
        <pattern pos="218892" muted="0" steps="16" name="" type="1">
          <note key="67" pos="0" pan="0" len="12" vol="100" />
          <note key="72" pos="12" pan="0" len="12" vol="100" />
          <note key="74" pos="24" pan="0" len="12" vol="100" />
          <note key="75" pos="36" pan="0" len="12" vol="100" />
          <note key="67" pos="48" pan="0" len="12" vol="100" />
          <note key="72" pos="60" pan="0" len="12" vol="100" />
          <note key="74" pos="72" pan="0" len="12" vol="100" />
          <note key="75" pos="84" pan="0" len="12" vol="100" />
          <note key="67" pos="96" pan="0" len="12" vol="100" />
          <note key="72" pos="108" pan="0" len="12" vol="100" />
          <note key="74" pos="120" pan="0" len="12" vol="100" />
          <note key="75" pos="132" pan="0" len="12" vol="100" />
          <note key="55" pos="192" pan="0" len="12" vol="100" />
          <note key="60" pos="204" pan="0" len="12" vol="100" />
          <note key="62" pos="216" pan="0" len="12" vol="100" />
          <note key="63" pos="228" pan="0" len="12" vol="100" />
          <note key="55" pos="240" pan="0" len="12" vol="100" />
          <note key="60" pos="252" pan="0" len="12" vol="100" />
          <note key="62" pos="264" pan="0" len="12" vol="100" />
          <note key="63" pos="276" pan="0" len="12" vol="100" />
          <note key="55" pos="288" pan="0" len="12" vol="100" />
          <note key="60" pos="300" pan="0" len="12" vol="100" />
          <note key="62" pos="312" pan="0" len="12" vol="100" />
          <note key="63" pos="324" pan="0" len="12" vol="100" />
          <note key="67" pos="384" pan="0" len="12" vol="100" />
          <note key="72" pos="396" pan="0" len="12" vol="100" />
          <note key="74" pos="408" pan="0" len="12" vol="100" />
          <note key="75" pos="420" pan="0" len="12" vol="100" />
          <note key="67" pos="432" pan="0" len="12" vol="100" />
          <note key="72" pos="444" pan="0" len="12" vol="100" />
          <note key="74" pos="456" pan="0" len="12" vol="100" />
          <note key="75" pos="468" pan="0" len="12" vol="100" />
          <note key="67" pos="480" pan="0" len="12" vol="100" />
          <note key="72" pos="492" pan="0" len="12" vol="100" />
          <note key="74" pos="504" pan="0" len="12" vol="100" />
          <note key="75" pos="516" pan="0" len="12" vol="100" />
          <note key="55" pos="576" pan="0" len="12" vol="100" />
          <note key="60" pos="588" pan="0" len="12" vol="100" />
          <note key="62" pos="600" pan="0" len="12" vol="100" />
          <note key="63" pos="612" pan="0" len="12" vol="100" />
          <note key="55" pos="624" pan="0" len="12" vol="100" />
          <note key="60" pos="636" pan="0" len="12" vol="100" />
          <note key="62" pos="648" pan="0" len="12" vol="100" />
          <note key="63" pos="660" pan="0" len="12" vol="100" />
          <note key="55" pos="672" pan="0" len="12" vol="100" />
          <note key="60" pos="684" pan="0" len="12" vol="100" />
          <note key="62" pos="696" pan="0" len="12" vol="100" />
          <note key="63" pos="708" pan="0" len="12" vol="100" />
          <note key="67" pos="768" pan="0" len="12" vol="100" />
          <note key="72" pos="780" pan="0" len="12" vol="100" />
          <note key="74" pos="792" pan="0" len="12" vol="100" />
          <note key="75" pos="804" pan="0" len="12" vol="100" />
          <note key="67" pos="816" pan="0" len="12" vol="100" />
          <note key="72" pos="828" pan="0" len="12" vol="100" />
          <note key="74" pos="840" pan="0" len="12" vol="100" />
          <note key="75" pos="852" pan="0" len="12" vol="100" />
          <note key="67" pos="864" pan="0" len="12" vol="100" />
          <note key="72" pos="876" pan="0" len="12" vol="100" />
          <note key="74" pos="888" pan="0" len="12" vol="100" />
          <note key="75" pos="900" pan="0" len="12" vol="100" />
          <note key="55" pos="960" pan="0" len="12" vol="100" />
          <note key="60" pos="972" pan="0" len="12" vol="100" />
          <note key="62" pos="984" pan="0" len="12" vol="100" />
          <note key="63" pos="996" pan="0" len="12" vol="100" />
          <note key="55" pos="1008" pan="0" len="12" vol="100" />
          <note key="60" pos="1020" pan="0" len="12" vol="100" />
          <note key="62" pos="1032" pan="0" len="12" vol="100" />
          <note key="63" pos="1044" pan="0" len="12" vol="100" />
          <note key="55" pos="1056" pan="0" len="12" vol="100" />
          <note key="60" pos="1068" pan="0" len="12" vol="100" />
          <note key="62" pos="1080" pan="0" len="12" vol="100" />
          <note key="63" pos="1092" pan="0" len="12" vol="100" />
          <note key="67" pos="1152" pan="0" len="12" vol="100" />
          <note key="72" pos="1164" pan="0" len="12" vol="100" />
          <note key="74" pos="1176" pan="0" len="12" vol="100" />
          <note key="75" pos="1188" pan="0" len="12" vol="100" />
          <note key="67" pos="1200" pan="0" len="12" vol="100" />
          <note key="72" pos="1212" pan="0" len="12" vol="100" />
          <note key="74" pos="1224" pan="0" len="12" vol="100" />
          <note key="75" pos="1236" pan="0" len="12" vol="100" />
          <note key="67" pos="1248" pan="0" len="12" vol="100" />
          <note key="72" pos="1260" pan="0" len="12" vol="100" />
          <note key="74" pos="1272" pan="0" len="12" vol="100" />
          <note key="75" pos="1284" pan="0" len="12" vol="100" />
          <note key="55" pos="1344" pan="0" len="12" vol="100" />
          <note key="60" pos="1356" pan="0" len="12" vol="100" />
          <note key="62" pos="1368" pan="0" len="12" vol="100" />
          <note key="63" pos="1380" pan="0" len="12" vol="100" />
          <note key="55" pos="1392" pan="0" len="12" vol="100" />
          <note key="60" pos="1404" pan="0" len="12" vol="100" />
          <note key="62" pos="1416" pan="0" len="12" vol="100" />
          <note key="63" pos="1428" pan="0" len="12" vol="100" />
          <note key="55" pos="1440" pan="0" len="12" vol="100" />
          <note key="60" pos="1452" pan="0" len="12" vol="100" />
          <note key="62" pos="1464" pan="0" len="12" vol="100" />
          <note key="63" pos="1476" pan="0" len="12" vol="100" />
        </pattern>
      </track>
      <track solo="0" name="67 (Ch10)" type="0" muted="0">
        <instrumenttrack usemasterpitch="1" pitch="0.0" basenote="57" pan="0" pitchrange="12" vol="30">
          <eldata />
          <instrument name="tripleoscillator" />
        </instrumenttrack>
        <pattern pos="200460" muted="0" steps="16" name="" type="1">
          <note key="64" pos="120" pan="0" len="12" vol="100" />
          <note key="66" pos="132" pan="0" len="12" vol="100" />
          <note key="68" pos="144" pan="0" len="12" vol="100" />
          <note key="71" pos="156" pan="0" len="12" vol="100" />
          <note key="73" pos="168" pan="0" len="12" vol="100" />
          <note key="76" pos="180" pan="0" len="12" vol="100" />
          <note key="80" pos="192" pan="0" len="576" vol="100" />
        </pattern>
      </track>
      <track solo="0" name="68 (Ch2)" type="0" muted="0">
        <instrumenttrack usemasterpitch="1" pitch="0.0" basenote="57" pan="0" pitchrange="12" vol="30">
          <eldata />
          <instrument name="tripleoscillator" />
        </instrumenttrack>
        <pattern pos="200460" muted="0" steps="16" name="" type="1">
          <note key="56" pos="96" pan="0" len="12" vol="100" />
          <note key="57" pos="108" pan="0" len="12" vol="100" />
          <note key="59" pos="120" pan="0" len="12" vol="100" />
          <note key="64" pos="132" pan="0" len="12" vol="100" />
          <note key="68" pos="144" pan="0" len="12" vol="100" />
          <note key="69" pos="156" pan="0" len="12" vol="100" />
          <note key="71" pos="168" pan="0" len="12" vol="100" />
          <note key="76" pos="180" pan="0" len="12" vol="100" />
          <note key="80" pos="192" pan="0" len="576" vol="100" />
        </pattern>
        <pattern pos="186636" muted="0" steps="16" name="" type="1">
          <note key="59" pos="0" pan="0" len="24" vol="100" />
          <note key="59" pos="192" pan="0" len="24" vol="100" />
          <note key="59" pos="384" pan="0" len="24" vol="100" />
          <note key="59" pos="576" pan="0" len="24" vol="100" />
          <note key="59" pos="1152" pan="0" len="24" vol="100" />
        </pattern>
        <pattern pos="192780" muted="0" steps="16" name="" type="1">
          <note key="59" pos="0" pan="0" len="24" vol="100" />
          <note key="59" pos="192" pan="0" len="24" vol="100" />
          <note key="59" pos="384" pan="0" len="24" vol="100" />
          <note key="59" pos="576" pan="0" len="24" vol="100" />
          <note key="59" pos="1152" pan="0" len="24" vol="100" />
        </pattern>
      </track>
      <track solo="0" name="68 (Ch3)" type="0" muted="0">
        <instrumenttrack usemasterpitch="1" pitch="0.0" basenote="57" pan="0" pitchrange="12" vol="30">
          <eldata />
          <instrument name="tripleoscillator" />
        </instrumenttrack>
        <pattern pos="201996" muted="0" steps="16" name="" type="1">
          <note key="53" pos="0" pan="0" len="24" vol="100" />
          <note key="57" pos="24" pan="0" len="24" vol="100" />
          <note key="52" pos="48" pan="0" len="24" vol="100" />
          <note key="57" pos="72" pan="0" len="24" vol="100" />
          <note key="50" pos="96" pan="0" len="24" vol="100" />
          <note key="57" pos="120" pan="0" len="24" vol="100" />
          <note key="55" pos="144" pan="0" len="24" vol="100" />
          <note key="57" pos="168" pan="0" len="24" vol="100" />
          <note key="53" pos="192" pan="0" len="24" vol="100" />
          <note key="57" pos="216" pan="0" len="24" vol="100" />
          <note key="52" pos="240" pan="0" len="24" vol="100" />
          <note key="57" pos="264" pan="0" len="24" vol="100" />
          <note key="50" pos="288" pan="0" len="24" vol="100" />
          <note key="57" pos="312" pan="0" len="24" vol="100" />
          <note key="55" pos="336" pan="0" len="24" vol="100" />
          <note key="57" pos="360" pan="0" len="24" vol="100" />
          <note key="60" pos="384" pan="0" len="24" vol="100" />
          <note key="64" pos="408" pan="0" len="24" vol="100" />
          <note key="59" pos="432" pan="0" len="24" vol="100" />
          <note key="64" pos="456" pan="0" len="24" vol="100" />
          <note key="57" pos="480" pan="0" len="24" vol="100" />
          <note key="64" pos="504" pan="0" len="24" vol="100" />
          <note key="59" pos="528" pan="0" len="24" vol="100" />
          <note key="64" pos="552" pan="0" len="24" vol="100" />
          <note key="60" pos="576" pan="0" len="24" vol="100" />
          <note key="64" pos="600" pan="0" len="24" vol="100" />
          <note key="59" pos="624" pan="0" len="24" vol="100" />
          <note key="64" pos="648" pan="0" len="24" vol="100" />
          <note key="57" pos="672" pan="0" len="24" vol="100" />
          <note key="64" pos="696" pan="0" len="24" vol="100" />
          <note key="60" pos="720" pan="0" len="24" vol="100" />
          <note key="64" pos="744" pan="0" len="24" vol="100" />
          <note key="58" pos="768" pan="0" len="24" vol="100" />
          <note key="62" pos="792" pan="0" len="24" vol="100" />
          <note key="57" pos="816" pan="0" len="24" vol="100" />
          <note key="62" pos="840" pan="0" len="24" vol="100" />
          <note key="55" pos="864" pan="0" len="24" vol="100" />
          <note key="62" pos="888" pan="0" len="24" vol="100" />
          <note key="57" pos="912" pan="0" len="24" vol="100" />
          <note key="62" pos="936" pan="0" len="24" vol="100" />
          <note key="58" pos="960" pan="0" len="24" vol="100" />
          <note key="62" pos="984" pan="0" len="24" vol="100" />
          <note key="57" pos="1008" pan="0" len="24" vol="100" />
          <note key="62" pos="1032" pan="0" len="24" vol="100" />
          <note key="55" pos="1056" pan="0" len="24" vol="100" />
          <note key="62" pos="1080" pan="0" len="24" vol="100" />
          <note key="57" pos="1104" pan="0" len="24" vol="100" />
          <note key="62" pos="1128" pan="0" len="24" vol="100" />
          <note key="53" pos="1152" pan="0" len="24" vol="100" />
          <note key="57" pos="1176" pan="0" len="24" vol="100" />
          <note key="52" pos="1200" pan="0" len="24" vol="100" />
          <note key="57" pos="1224" pan="0" len="24" vol="100" />
          <note key="50" pos="1248" pan="0" len="24" vol="100" />
          <note key="57" pos="1272" pan="0" len="24" vol="100" />
          <note key="55" pos="1296" pan="0" len="24" vol="100" />
          <note key="57" pos="1320" pan="0" len="24" vol="100" />
          <note key="57" pos="1344" pan="0" len="24" vol="100" />
          <note key="60" pos="1368" pan="0" len="24" vol="100" />
          <note key="55" pos="1392" pan="0" len="24" vol="100" />
          <note key="60" pos="1416" pan="0" len="24" vol="100" />
          <note key="60" pos="1440" pan="0" len="24" vol="100" />
          <note key="64" pos="1464" pan="0" len="24" vol="100" />
          <note key="55" pos="1488" pan="0" len="24" vol="100" />
          <note key="64" pos="1512" pan="0" len="24" vol="100" />
        </pattern>
      </track>
      <track solo="0" name="68 (Ch4)" type="0" muted="0">
        <instrumenttrack usemasterpitch="1" pitch="0.0" basenote="57" pan="0" pitchrange="12" vol="30">
          <eldata />
          <instrument name="tripleoscillator" />
        </instrumenttrack>
        <pattern pos="169740" muted="0" steps="16" name="" type="1">
          <note key="56" pos="0" pan="0" len="24" vol="100" />
          <note key="52" pos="24" pan="0" len="24" vol="100" />
          <note key="59" pos="48" pan="0" len="24" vol="100" />
          <note key="52" pos="72" pan="0" len="24" vol="100" />
          <note key="58" pos="96" pan="0" len="24" vol="100" />
          <note key="52" pos="120" pan="0" len="24" vol="100" />
          <note key="56" pos="144" pan="0" len="24" vol="100" />
          <note key="59" pos="168" pan="0" len="24" vol="100" />
          <note key="56" pos="192" pan="0" len="24" vol="100" />
          <note key="52" pos="216" pan="0" len="24" vol="100" />
          <note key="59" pos="240" pan="0" len="24" vol="100" />
          <note key="52" pos="264" pan="0" len="24" vol="100" />
          <note key="58" pos="288" pan="0" len="24" vol="100" />
          <note key="52" pos="312" pan="0" len="24" vol="100" />
          <note key="56" pos="336" pan="0" len="24" vol="100" />
          <note key="59" pos="360" pan="0" len="24" vol="100" />
          <note key="56" pos="384" pan="0" len="24" vol="100" />
          <note key="52" pos="408" pan="0" len="24" vol="100" />
          <note key="59" pos="432" pan="0" len="24" vol="100" />
          <note key="52" pos="456" pan="0" len="24" vol="100" />
          <note key="58" pos="480" pan="0" len="24" vol="100" />
          <note key="52" pos="504" pan="0" len="24" vol="100" />
          <note key="56" pos="528" pan="0" len="24" vol="100" />
          <note key="59" pos="552" pan="0" len="24" vol="100" />
        </pattern>
        <pattern pos="52224" muted="0" steps="16" name="" type="1">
          <note key="64" pos="0" pan="0" len="24" vol="100" />
          <note key="57" pos="24" pan="0" len="12" vol="100" />
          <note key="63" pos="36" pan="0" len="24" vol="100" />
          <note key="57" pos="60" pan="0" len="12" vol="100" />
          <note key="64" pos="72" pan="0" len="12" vol="100" />
          <note key="57" pos="84" pan="0" len="12" vol="100" />
          <note key="64" pos="96" pan="0" len="96" vol="100" />
          <note key="67" pos="192" pan="0" len="24" vol="100" />
          <note key="60" pos="216" pan="0" len="12" vol="100" />
          <note key="66" pos="228" pan="0" len="24" vol="100" />
          <note key="60" pos="252" pan="0" len="12" vol="100" />
          <note key="67" pos="264" pan="0" len="12" vol="100" />
          <note key="60" pos="276" pan="0" len="12" vol="100" />
          <note key="67" pos="288" pan="0" len="96" vol="100" />
          <note key="69" pos="384" pan="0" len="24" vol="100" />
          <note key="62" pos="408" pan="0" len="12" vol="100" />
          <note key="70" pos="420" pan="0" len="24" vol="100" />
          <note key="62" pos="444" pan="0" len="12" vol="100" />
          <note key="69" pos="456" pan="0" len="12" vol="100" />
          <note key="62" pos="468" pan="0" len="12" vol="100" />
          <note key="70" pos="480" pan="0" len="96" vol="100" />
          <note key="67" pos="576" pan="0" len="24" vol="100" />
          <note key="59" pos="600" pan="0" len="12" vol="100" />
          <note key="65" pos="612" pan="0" len="24" vol="100" />
          <note key="59" pos="636" pan="0" len="12" vol="100" />
          <note key="67" pos="648" pan="0" len="12" vol="100" />
          <note key="59" pos="660" pan="0" len="12" vol="100" />
          <note key="67" pos="672" pan="0" len="96" vol="100" />
          <note key="65" pos="768" pan="0" len="24" vol="100" />
          <note key="58" pos="792" pan="0" len="12" vol="100" />
          <note key="64" pos="804" pan="0" len="24" vol="100" />
          <note key="58" pos="828" pan="0" len="12" vol="100" />
          <note key="65" pos="840" pan="0" len="12" vol="100" />
          <note key="58" pos="852" pan="0" len="12" vol="100" />
          <note key="65" pos="864" pan="0" len="96" vol="100" />
          <note key="68" pos="960" pan="0" len="24" vol="100" />
          <note key="61" pos="984" pan="0" len="12" vol="100" />
          <note key="67" pos="996" pan="0" len="24" vol="100" />
          <note key="61" pos="1020" pan="0" len="12" vol="100" />
          <note key="68" pos="1032" pan="0" len="12" vol="100" />
          <note key="61" pos="1044" pan="0" len="12" vol="100" />
          <note key="68" pos="1056" pan="0" len="96" vol="100" />
          <note key="67" pos="1152" pan="0" len="24" vol="100" />
          <note key="60" pos="1176" pan="0" len="12" vol="100" />
          <note key="66" pos="1188" pan="0" len="24" vol="100" />
          <note key="60" pos="1212" pan="0" len="12" vol="100" />
          <note key="67" pos="1224" pan="0" len="12" vol="100" />
          <note key="60" pos="1236" pan="0" len="12" vol="100" />
          <note key="67" pos="1248" pan="0" len="96" vol="100" />
          <note key="69" pos="1344" pan="0" len="24" vol="100" />
          <note key="64" pos="1368" pan="0" len="12" vol="100" />
          <note key="67" pos="1380" pan="0" len="24" vol="100" />
          <note key="64" pos="1404" pan="0" len="12" vol="100" />
          <note key="69" pos="1416" pan="0" len="12" vol="100" />
          <note key="64" pos="1428" pan="0" len="12" vol="100" />
          <note key="69" pos="1440" pan="0" len="96" vol="100" />
        </pattern>
      </track>
      <track solo="0" name="68 (Ch5)" type="0" muted="0">
        <instrumenttrack usemasterpitch="1" pitch="0.0" basenote="57" pan="0" pitchrange="12" vol="30">
          <eldata />
          <instrument name="tripleoscillator" />
        </instrumenttrack>
        <pattern pos="264972" muted="0" steps="16" name="" type="1">
          <note key="58" pos="0" pan="0" len="12" vol="100" />
          <note key="57" pos="48" pan="0" len="12" vol="100" />
          <note key="58" pos="72" pan="0" len="12" vol="100" />
          <note key="57" pos="120" pan="0" len="24" vol="100" />
          <note key="58" pos="168" pan="0" len="24" vol="100" />
          <note key="62" pos="216" pan="0" len="12" vol="100" />
          <note key="55" pos="240" pan="0" len="24" vol="100" />
          <note key="58" pos="288" pan="0" len="24" vol="100" />
          <note key="57" pos="336" pan="0" len="12" vol="100" />
          <note key="58" pos="360" pan="0" len="24" vol="100" />
          <note key="57" pos="408" pan="0" len="12" vol="100" />
          <note key="58" pos="432" pan="0" len="12" vol="100" />
          <note key="53" pos="456" pan="0" len="12" vol="100" />
          <note key="57" pos="480" pan="0" len="24" vol="100" />
          <note key="53" pos="504" pan="0" len="12" vol="100" />
          <note key="57" pos="528" pan="0" len="12" vol="100" />
          <note key="58" pos="576" pan="0" len="12" vol="100" />
          <note key="57" pos="624" pan="0" len="12" vol="100" />
          <note key="58" pos="648" pan="0" len="12" vol="100" />
          <note key="57" pos="696" pan="0" len="24" vol="100" />
          <note key="58" pos="744" pan="0" len="24" vol="100" />
          <note key="60" pos="792" pan="0" len="12" vol="100" />
          <note key="57" pos="816" pan="0" len="24" vol="100" />
          <note key="62" pos="864" pan="0" len="24" vol="100" />
          <note key="57" pos="912" pan="0" len="12" vol="100" />
          <note key="58" pos="936" pan="0" len="24" vol="100" />
          <note key="57" pos="984" pan="0" len="12" vol="100" />
          <note key="58" pos="1008" pan="0" len="12" vol="100" />
          <note key="53" pos="1032" pan="0" len="12" vol="100" />
          <note key="58" pos="1056" pan="0" len="24" vol="100" />
          <note key="57" pos="1080" pan="0" len="12" vol="100" />
          <note key="58" pos="1104" pan="0" len="12" vol="100" />
          <note key="58" pos="1152" pan="0" len="12" vol="100" />
          <note key="57" pos="1200" pan="0" len="12" vol="100" />
          <note key="58" pos="1224" pan="0" len="12" vol="100" />
          <note key="57" pos="1272" pan="0" len="24" vol="100" />
          <note key="58" pos="1320" pan="0" len="24" vol="100" />
          <note key="62" pos="1368" pan="0" len="12" vol="100" />
          <note key="55" pos="1392" pan="0" len="24" vol="100" />
          <note key="58" pos="1440" pan="0" len="24" vol="100" />
          <note key="57" pos="1488" pan="0" len="12" vol="100" />
          <note key="58" pos="1512" pan="0" len="24" vol="100" />
          <note key="57" pos="1560" pan="0" len="12" vol="100" />
          <note key="58" pos="1584" pan="0" len="12" vol="100" />
          <note key="53" pos="1608" pan="0" len="12" vol="100" />
          <note key="57" pos="1632" pan="0" len="24" vol="100" />
          <note key="53" pos="1656" pan="0" len="12" vol="100" />
          <note key="57" pos="1680" pan="0" len="12" vol="100" />
          <note key="58" pos="1728" pan="0" len="12" vol="100" />
          <note key="57" pos="1776" pan="0" len="12" vol="100" />
          <note key="58" pos="1800" pan="0" len="12" vol="100" />
          <note key="57" pos="1848" pan="0" len="24" vol="100" />
          <note key="58" pos="1896" pan="0" len="24" vol="100" />
          <note key="60" pos="1944" pan="0" len="12" vol="100" />
          <note key="57" pos="1968" pan="0" len="24" vol="100" />
          <note key="58" pos="2016" pan="0" len="12" vol="100" />
          <note key="57" pos="2064" pan="0" len="12" vol="100" />
          <note key="58" pos="2088" pan="0" len="12" vol="100" />
          <note key="57" pos="2136" pan="0" len="24" vol="100" />
          <note key="58" pos="2184" pan="0" len="24" vol="100" />
          <note key="60" pos="2232" pan="0" len="12" vol="100" />
          <note key="57" pos="2256" pan="0" len="24" vol="100" />
        </pattern>
        <pattern pos="115968" muted="0" steps="16" name="" type="1">
          <note key="57" pos="2280" pan="0" len="12" vol="100" />
          <note key="60" pos="2292" pan="0" len="12" vol="100" />
        </pattern>
        <pattern pos="118272" muted="0" steps="16" name="" type="1">
          <note key="62" pos="0" pan="0" len="24" vol="100" />
          <note key="62" pos="24" pan="0" len="1128" vol="100" />
          <note key="62" pos="1152" pan="0" len="24" vol="100" />
          <note key="62" pos="1176" pan="0" len="24" vol="100" />
          <note key="60" pos="1200" pan="0" len="12" vol="100" />
          <note key="57" pos="1212" pan="0" len="12" vol="100" />
          <note key="55" pos="1224" pan="0" len="24" vol="100" />
          <note key="55" pos="1248" pan="0" len="12" vol="100" />
          <note key="57" pos="1260" pan="0" len="24" vol="100" />
          <note key="60" pos="1284" pan="0" len="12" vol="100" />
          <note key="55" pos="1296" pan="0" len="24" vol="100" />
          <note key="55" pos="1320" pan="0" len="12" vol="100" />
          <note key="55" pos="1332" pan="0" len="12" vol="33" />
          <note key="53" pos="1344" pan="0" len="12" vol="100" />
          <note key="52" pos="1356" pan="0" len="12" vol="100" />
          <note key="50" pos="1368" pan="0" len="24" vol="100" />
          <note key="50" pos="1392" pan="0" len="24" vol="100" />
          <note key="57" pos="1416" pan="0" len="12" vol="100" />
          <note key="60" pos="1428" pan="0" len="12" vol="100" />
          <note key="62" pos="1440" pan="0" len="24" vol="100" />
          <note key="62" pos="1464" pan="0" len="24" vol="100" />
          <note key="60" pos="1488" pan="0" len="12" vol="100" />
          <note key="57" pos="1500" pan="0" len="12" vol="100" />
          <note key="55" pos="1512" pan="0" len="24" vol="100" />
          <note key="55" pos="1536" pan="0" len="12" vol="100" />
          <note key="57" pos="1548" pan="0" len="24" vol="100" />
          <note key="60" pos="1572" pan="0" len="12" vol="100" />
          <note key="55" pos="1584" pan="0" len="24" vol="100" />
          <note key="55" pos="1608" pan="0" len="12" vol="100" />
          <note key="57" pos="1620" pan="0" len="24" vol="100" />
          <note key="53" pos="1644" pan="0" len="12" vol="100" />
          <note key="55" pos="1656" pan="0" len="24" vol="100" />
          <note key="55" pos="1680" pan="0" len="24" vol="100" />
          <note key="57" pos="1704" pan="0" len="12" vol="100" />
          <note key="60" pos="1716" pan="0" len="12" vol="100" />
          <note key="62" pos="1728" pan="0" len="24" vol="100" />
          <note key="62" pos="1752" pan="0" len="24" vol="100" />
          <note key="60" pos="1776" pan="0" len="12" vol="100" />
          <note key="57" pos="1788" pan="0" len="12" vol="100" />
          <note key="55" pos="1800" pan="0" len="24" vol="100" />
          <note key="55" pos="1824" pan="0" len="12" vol="100" />
          <note key="57" pos="1836" pan="0" len="24" vol="100" />
          <note key="60" pos="1860" pan="0" len="12" vol="100" />
          <note key="55" pos="1872" pan="0" len="24" vol="100" />
          <note key="55" pos="1896" pan="0" len="12" vol="100" />
          <note key="57" pos="1908" pan="0" len="12" vol="33" />
          <note key="53" pos="1920" pan="0" len="12" vol="100" />
          <note key="52" pos="1932" pan="0" len="12" vol="100" />
          <note key="50" pos="1944" pan="0" len="24" vol="100" />
          <note key="50" pos="1968" pan="0" len="24" vol="100" />
          <note key="57" pos="1992" pan="0" len="12" vol="100" />
          <note key="60" pos="2004" pan="0" len="12" vol="100" />
          <note key="62" pos="2016" pan="0" len="24" vol="100" />
          <note key="62" pos="2040" pan="0" len="24" vol="100" />
          <note key="60" pos="2064" pan="0" len="12" vol="100" />
          <note key="57" pos="2076" pan="0" len="12" vol="100" />
          <note key="55" pos="2088" pan="0" len="24" vol="100" />
          <note key="55" pos="2112" pan="0" len="12" vol="100" />
          <note key="57" pos="2124" pan="0" len="24" vol="100" />
          <note key="48" pos="2148" pan="0" len="12" vol="100" />
          <note key="55" pos="2160" pan="0" len="24" vol="100" />
          <note key="55" pos="2184" pan="0" len="12" vol="100" />
          <note key="57" pos="2196" pan="0" len="24" vol="100" />
          <note key="53" pos="2220" pan="0" len="12" vol="100" />
          <note key="55" pos="2232" pan="0" len="24" vol="100" />
          <note key="55" pos="2256" pan="0" len="12" vol="100" />
          <note key="64" pos="2268" pan="0" len="24" vol="100" />
          <note key="60" pos="2292" pan="0" len="12" vol="100" />
        </pattern>
        <pattern pos="120576" muted="0" steps="16" name="" type="1">
          <note key="57" pos="2280" pan="0" len="12" vol="100" />
          <note key="60" pos="2292" pan="0" len="12" vol="100" />
        </pattern>
        <pattern pos="182028" muted="0" steps="16" name="" type="1">
          <note key="55" pos="0" pan="0" len="24" vol="100" />
          <note key="57" pos="24" pan="0" len="24" vol="100" />
          <note key="60" pos="48" pan="0" len="72" vol="100" />
          <note key="57" pos="120" pan="0" len="24" vol="100" />
          <note key="55" pos="144" pan="0" len="24" vol="100" />
          <note key="57" pos="168" pan="0" len="24" vol="100" />
          <note key="58" pos="192" pan="0" len="48" vol="100" />
          <note key="62" pos="240" pan="0" len="48" vol="100" />
          <note key="63" pos="288" pan="0" len="48" vol="100" />
          <note key="60" pos="336" pan="0" len="72" vol="100" />
          <note key="58" pos="408" pan="0" len="24" vol="100" />
          <note key="60" pos="432" pan="0" len="144" vol="100" />
          <note key="55" pos="576" pan="0" len="24" vol="100" />
          <note key="57" pos="600" pan="0" len="24" vol="100" />
          <note key="65" pos="624" pan="0" len="72" vol="100" />
          <note key="60" pos="696" pan="0" len="24" vol="100" />
          <note key="55" pos="720" pan="0" len="24" vol="100" />
          <note key="57" pos="744" pan="0" len="24" vol="100" />
          <note key="63" pos="768" pan="0" len="96" vol="100" />
          <note key="55" pos="864" pan="0" len="24" vol="100" />
          <note key="57" pos="888" pan="0" len="24" vol="100" />
          <note key="62" pos="912" pan="0" len="72" vol="100" />
          <note key="60" pos="984" pan="0" len="24" vol="100" />
          <note key="55" pos="1008" pan="0" len="24" vol="100" />
          <note key="57" pos="1032" pan="0" len="24" vol="100" />
          <note key="60" pos="1056" pan="0" len="96" vol="100" />
        </pattern>
        <pattern pos="221196" muted="0" steps="16" name="" type="1">
          <note key="73" pos="528" pan="0" len="24" vol="100" />
          <note key="72" pos="552" pan="0" len="24" vol="100" />
          <note key="73" pos="576" pan="0" len="192" vol="100" />
          <note key="73" pos="1152" pan="0" len="24" vol="100" />
          <note key="72" pos="1176" pan="0" len="24" vol="100" />
          <note key="77" pos="1200" pan="0" len="288" vol="100" />
          <note key="70" pos="1488" pan="0" len="24" vol="100" />
          <note key="72" pos="1512" pan="0" len="24" vol="100" />
        </pattern>
        <pattern pos="222732" muted="0" steps="16" name="" type="1">
          <note key="73" pos="0" pan="0" len="24" vol="100" />
          <note key="72" pos="24" pan="0" len="24" vol="100" />
          <note key="70" pos="48" pan="0" len="72" vol="100" />
          <note key="72" pos="120" pan="0" len="24" vol="100" />
          <note key="73" pos="144" pan="0" len="24" vol="100" />
          <note key="70" pos="168" pan="0" len="24" vol="100" />
          <note key="72" pos="192" pan="0" len="24" vol="100" />
          <note key="68" pos="216" pan="0" len="24" vol="100" />
          <note key="65" pos="240" pan="0" len="24" vol="100" />
          <note key="72" pos="264" pan="0" len="24" vol="100" />
          <note key="70" pos="288" pan="0" len="60" vol="100" />
          <note key="70" pos="384" pan="0" len="24" vol="100" />
          <note key="68" pos="408" pan="0" len="24" vol="100" />
          <note key="66" pos="432" pan="0" len="72" vol="100" />
          <note key="68" pos="504" pan="0" len="24" vol="100" />
          <note key="70" pos="528" pan="0" len="24" vol="100" />
          <note key="66" pos="552" pan="0" len="24" vol="100" />
          <note key="68" pos="576" pan="0" len="48" vol="100" />
          <note key="65" pos="624" pan="0" len="24" vol="100" />
          <note key="61" pos="648" pan="0" len="24" vol="100" />
          <note key="63" pos="672" pan="0" len="48" vol="100" />
        </pattern>
        <pattern pos="231948" muted="0" steps="16" name="" type="1">
          <note key="73" pos="0" pan="0" len="24" vol="100" />
          <note key="72" pos="24" pan="0" len="24" vol="100" />
          <note key="70" pos="48" pan="0" len="72" vol="100" />
          <note key="72" pos="120" pan="0" len="24" vol="100" />
          <note key="73" pos="144" pan="0" len="24" vol="100" />
          <note key="70" pos="168" pan="0" len="24" vol="100" />
          <note key="72" pos="192" pan="0" len="24" vol="100" />
          <note key="68" pos="216" pan="0" len="24" vol="100" />
          <note key="65" pos="240" pan="0" len="24" vol="100" />
          <note key="72" pos="264" pan="0" len="24" vol="100" />
          <note key="70" pos="288" pan="0" len="60" vol="100" />
          <note key="70" pos="384" pan="0" len="24" vol="100" />
          <note key="68" pos="408" pan="0" len="24" vol="100" />
          <note key="66" pos="432" pan="0" len="72" vol="100" />
          <note key="68" pos="504" pan="0" len="24" vol="100" />
          <note key="70" pos="528" pan="0" len="24" vol="100" />
          <note key="66" pos="552" pan="0" len="24" vol="100" />
          <note key="68" pos="576" pan="0" len="48" vol="100" />
          <note key="65" pos="624" pan="0" len="24" vol="100" />
          <note key="61" pos="648" pan="0" len="24" vol="100" />
          <note key="63" pos="672" pan="0" len="48" vol="100" />
        </pattern>
        <pattern pos="235020" muted="0" steps="16" name="" type="1">
          <note key="73" pos="1488" pan="0" len="24" vol="100" />
          <note key="72" pos="1512" pan="0" len="24" vol="100" />
        </pattern>
        <pattern pos="258060" muted="0" steps="16" name="" type="1">
          <note key="58" pos="0" pan="0" len="12" vol="100" />
          <note key="57" pos="48" pan="0" len="12" vol="100" />
          <note key="58" pos="72" pan="0" len="12" vol="100" />
          <note key="57" pos="120" pan="0" len="24" vol="100" />
          <note key="58" pos="168" pan="0" len="24" vol="100" />
          <note key="60" pos="216" pan="0" len="12" vol="100" />
          <note key="57" pos="240" pan="0" len="24" vol="100" />
          <note key="58" pos="288" pan="0" len="24" vol="100" />
          <note key="57" pos="336" pan="0" len="12" vol="100" />
          <note key="58" pos="360" pan="0" len="24" vol="100" />
          <note key="57" pos="408" pan="0" len="12" vol="100" />
          <note key="58" pos="432" pan="0" len="12" vol="100" />
          <note key="53" pos="456" pan="0" len="12" vol="100" />
          <note key="57" pos="480" pan="0" len="24" vol="100" />
          <note key="53" pos="504" pan="0" len="12" vol="100" />
          <note key="57" pos="528" pan="0" len="12" vol="100" />
          <note key="58" pos="576" pan="0" len="12" vol="100" />
          <note key="57" pos="624" pan="0" len="12" vol="100" />
          <note key="58" pos="648" pan="0" len="12" vol="100" />
          <note key="57" pos="696" pan="0" len="24" vol="100" />
          <note key="58" pos="744" pan="0" len="24" vol="100" />
          <note key="60" pos="792" pan="0" len="12" vol="100" />
          <note key="57" pos="816" pan="0" len="24" vol="100" />
          <note key="58" pos="864" pan="0" len="24" vol="100" />
          <note key="57" pos="912" pan="0" len="12" vol="100" />
          <note key="58" pos="936" pan="0" len="24" vol="100" />
          <note key="57" pos="984" pan="0" len="12" vol="100" />
          <note key="58" pos="1008" pan="0" len="12" vol="100" />
          <note key="53" pos="1032" pan="0" len="12" vol="100" />
          <note key="57" pos="1056" pan="0" len="24" vol="100" />
          <note key="53" pos="1080" pan="0" len="12" vol="100" />
          <note key="57" pos="1104" pan="0" len="12" vol="100" />
          <note key="58" pos="1152" pan="0" len="12" vol="100" />
          <note key="57" pos="1200" pan="0" len="12" vol="100" />
          <note key="58" pos="1224" pan="0" len="12" vol="100" />
          <note key="57" pos="1272" pan="0" len="24" vol="100" />
          <note key="58" pos="1320" pan="0" len="24" vol="100" />
          <note key="60" pos="1368" pan="0" len="12" vol="100" />
          <note key="57" pos="1392" pan="0" len="24" vol="100" />
          <note key="58" pos="1440" pan="0" len="24" vol="100" />
          <note key="57" pos="1488" pan="0" len="12" vol="100" />
          <note key="58" pos="1512" pan="0" len="24" vol="100" />
          <note key="57" pos="1560" pan="0" len="12" vol="100" />
          <note key="58" pos="1584" pan="0" len="12" vol="100" />
          <note key="53" pos="1608" pan="0" len="12" vol="100" />
          <note key="57" pos="1632" pan="0" len="24" vol="100" />
          <note key="53" pos="1656" pan="0" len="12" vol="100" />
          <note key="57" pos="1680" pan="0" len="12" vol="100" />
          <note key="58" pos="1728" pan="0" len="12" vol="100" />
          <note key="57" pos="1776" pan="0" len="12" vol="100" />
          <note key="58" pos="1800" pan="0" len="12" vol="100" />
          <note key="57" pos="1848" pan="0" len="24" vol="100" />
          <note key="58" pos="1896" pan="0" len="24" vol="100" />
          <note key="60" pos="1944" pan="0" len="12" vol="100" />
          <note key="57" pos="1968" pan="0" len="24" vol="100" />
          <note key="58" pos="2016" pan="0" len="24" vol="100" />
          <note key="57" pos="2064" pan="0" len="12" vol="100" />
          <note key="58" pos="2088" pan="0" len="24" vol="100" />
          <note key="57" pos="2136" pan="0" len="12" vol="100" />
          <note key="58" pos="2160" pan="0" len="12" vol="100" />
          <note key="53" pos="2184" pan="0" len="12" vol="100" />
          <note key="57" pos="2208" pan="0" len="24" vol="100" />
          <note key="53" pos="2232" pan="0" len="12" vol="100" />
          <note key="57" pos="2256" pan="0" len="12" vol="100" />
        </pattern>
        <pattern pos="260364" muted="0" steps="16" name="" type="1">
          <note key="58" pos="0" pan="0" len="12" vol="100" />
          <note key="57" pos="48" pan="0" len="12" vol="100" />
          <note key="58" pos="72" pan="0" len="12" vol="100" />
          <note key="57" pos="120" pan="0" len="24" vol="100" />
          <note key="58" pos="168" pan="0" len="24" vol="100" />
          <note key="60" pos="216" pan="0" len="12" vol="100" />
          <note key="57" pos="240" pan="0" len="24" vol="100" />
          <note key="58" pos="288" pan="0" len="24" vol="100" />
          <note key="57" pos="336" pan="0" len="12" vol="100" />
          <note key="58" pos="360" pan="0" len="24" vol="100" />
          <note key="57" pos="408" pan="0" len="12" vol="100" />
          <note key="58" pos="432" pan="0" len="12" vol="100" />
          <note key="53" pos="456" pan="0" len="12" vol="100" />
          <note key="57" pos="480" pan="0" len="24" vol="100" />
          <note key="53" pos="504" pan="0" len="12" vol="100" />
          <note key="57" pos="528" pan="0" len="12" vol="100" />
          <note key="58" pos="576" pan="0" len="12" vol="100" />
          <note key="57" pos="624" pan="0" len="12" vol="100" />
          <note key="58" pos="648" pan="0" len="12" vol="100" />
          <note key="57" pos="696" pan="0" len="24" vol="100" />
          <note key="58" pos="744" pan="0" len="24" vol="100" />
          <note key="60" pos="792" pan="0" len="12" vol="100" />
          <note key="57" pos="816" pan="0" len="24" vol="100" />
          <note key="58" pos="864" pan="0" len="24" vol="100" />
          <note key="57" pos="912" pan="0" len="12" vol="100" />
          <note key="58" pos="936" pan="0" len="24" vol="100" />
          <note key="57" pos="984" pan="0" len="12" vol="100" />
          <note key="58" pos="1008" pan="0" len="12" vol="100" />
          <note key="53" pos="1032" pan="0" len="12" vol="100" />
          <note key="57" pos="1056" pan="0" len="24" vol="100" />
          <note key="53" pos="1080" pan="0" len="12" vol="100" />
          <note key="57" pos="1104" pan="0" len="12" vol="100" />
          <note key="58" pos="1152" pan="0" len="12" vol="100" />
          <note key="57" pos="1200" pan="0" len="12" vol="100" />
          <note key="58" pos="1224" pan="0" len="12" vol="100" />
          <note key="57" pos="1272" pan="0" len="24" vol="100" />
          <note key="58" pos="1320" pan="0" len="24" vol="100" />
          <note key="60" pos="1368" pan="0" len="12" vol="100" />
          <note key="57" pos="1392" pan="0" len="24" vol="100" />
          <note key="58" pos="1440" pan="0" len="24" vol="100" />
          <note key="57" pos="1488" pan="0" len="12" vol="100" />
          <note key="58" pos="1512" pan="0" len="24" vol="100" />
          <note key="57" pos="1560" pan="0" len="12" vol="100" />
          <note key="58" pos="1584" pan="0" len="12" vol="100" />
          <note key="53" pos="1608" pan="0" len="12" vol="100" />
          <note key="57" pos="1632" pan="0" len="24" vol="100" />
          <note key="53" pos="1656" pan="0" len="12" vol="100" />
          <note key="57" pos="1680" pan="0" len="12" vol="100" />
          <note key="58" pos="1728" pan="0" len="12" vol="100" />
          <note key="57" pos="1776" pan="0" len="12" vol="100" />
          <note key="58" pos="1800" pan="0" len="12" vol="100" />
          <note key="57" pos="1848" pan="0" len="24" vol="100" />
          <note key="58" pos="1896" pan="0" len="24" vol="100" />
          <note key="60" pos="1944" pan="0" len="12" vol="100" />
          <note key="57" pos="1968" pan="0" len="24" vol="100" />
          <note key="58" pos="2016" pan="0" len="24" vol="100" />
          <note key="57" pos="2064" pan="0" len="12" vol="100" />
          <note key="58" pos="2088" pan="0" len="24" vol="100" />
          <note key="57" pos="2136" pan="0" len="12" vol="100" />
          <note key="58" pos="2160" pan="0" len="12" vol="100" />
          <note key="53" pos="2184" pan="0" len="12" vol="100" />
          <note key="57" pos="2208" pan="0" len="24" vol="100" />
          <note key="53" pos="2232" pan="0" len="12" vol="100" />
          <note key="57" pos="2256" pan="0" len="12" vol="100" />
        </pattern>
        <pattern pos="262668" muted="0" steps="16" name="" type="1">
          <note key="58" pos="0" pan="0" len="12" vol="100" />
          <note key="57" pos="48" pan="0" len="12" vol="100" />
          <note key="58" pos="72" pan="0" len="12" vol="100" />
          <note key="57" pos="120" pan="0" len="24" vol="100" />
          <note key="58" pos="168" pan="0" len="24" vol="100" />
          <note key="62" pos="216" pan="0" len="12" vol="100" />
          <note key="55" pos="240" pan="0" len="24" vol="100" />
          <note key="58" pos="288" pan="0" len="24" vol="100" />
          <note key="57" pos="336" pan="0" len="12" vol="100" />
          <note key="58" pos="360" pan="0" len="24" vol="100" />
          <note key="57" pos="408" pan="0" len="12" vol="100" />
          <note key="58" pos="432" pan="0" len="12" vol="100" />
          <note key="53" pos="456" pan="0" len="12" vol="100" />
          <note key="57" pos="480" pan="0" len="24" vol="100" />
          <note key="53" pos="504" pan="0" len="12" vol="100" />
          <note key="57" pos="528" pan="0" len="12" vol="100" />
          <note key="58" pos="576" pan="0" len="12" vol="100" />
          <note key="57" pos="624" pan="0" len="12" vol="100" />
          <note key="58" pos="648" pan="0" len="12" vol="100" />
          <note key="57" pos="696" pan="0" len="24" vol="100" />
          <note key="58" pos="744" pan="0" len="24" vol="100" />
          <note key="60" pos="792" pan="0" len="12" vol="100" />
          <note key="57" pos="816" pan="0" len="24" vol="100" />
          <note key="62" pos="864" pan="0" len="24" vol="100" />
          <note key="57" pos="912" pan="0" len="12" vol="100" />
          <note key="58" pos="936" pan="0" len="24" vol="100" />
          <note key="57" pos="984" pan="0" len="12" vol="100" />
          <note key="58" pos="1008" pan="0" len="12" vol="100" />
          <note key="53" pos="1032" pan="0" len="12" vol="100" />
          <note key="58" pos="1056" pan="0" len="24" vol="100" />
          <note key="57" pos="1080" pan="0" len="12" vol="100" />
          <note key="58" pos="1104" pan="0" len="12" vol="100" />
          <note key="58" pos="1152" pan="0" len="12" vol="100" />
          <note key="57" pos="1200" pan="0" len="12" vol="100" />
          <note key="58" pos="1224" pan="0" len="12" vol="100" />
          <note key="57" pos="1272" pan="0" len="24" vol="100" />
          <note key="58" pos="1320" pan="0" len="24" vol="100" />
          <note key="62" pos="1368" pan="0" len="12" vol="100" />
          <note key="55" pos="1392" pan="0" len="24" vol="100" />
          <note key="58" pos="1440" pan="0" len="24" vol="100" />
          <note key="57" pos="1488" pan="0" len="12" vol="100" />
          <note key="58" pos="1512" pan="0" len="24" vol="100" />
          <note key="57" pos="1560" pan="0" len="12" vol="100" />
          <note key="58" pos="1584" pan="0" len="12" vol="100" />
          <note key="53" pos="1608" pan="0" len="12" vol="100" />
          <note key="57" pos="1632" pan="0" len="24" vol="100" />
          <note key="53" pos="1656" pan="0" len="12" vol="100" />
          <note key="57" pos="1680" pan="0" len="12" vol="100" />
          <note key="58" pos="1728" pan="0" len="12" vol="100" />
          <note key="57" pos="1776" pan="0" len="12" vol="100" />
          <note key="58" pos="1800" pan="0" len="12" vol="100" />
          <note key="57" pos="1848" pan="0" len="24" vol="100" />
          <note key="58" pos="1896" pan="0" len="24" vol="100" />
          <note key="60" pos="1944" pan="0" len="12" vol="100" />
          <note key="57" pos="1968" pan="0" len="24" vol="100" />
          <note key="58" pos="2016" pan="0" len="12" vol="100" />
          <note key="57" pos="2064" pan="0" len="12" vol="100" />
          <note key="58" pos="2088" pan="0" len="12" vol="100" />
          <note key="57" pos="2136" pan="0" len="24" vol="100" />
          <note key="58" pos="2184" pan="0" len="24" vol="100" />
          <note key="60" pos="2232" pan="0" len="12" vol="100" />
          <note key="57" pos="2256" pan="0" len="24" vol="100" />
        </pattern>
      </track>
      <track solo="0" name="68 (Ch6)" type="0" muted="0">
        <instrumenttrack usemasterpitch="1" pitch="0.0" basenote="57" pan="0" pitchrange="12" vol="30">
          <eldata />
          <instrument name="tripleoscillator" />
        </instrumenttrack>
        <pattern pos="200460" muted="0" steps="16" name="" type="1">
          <note key="68" pos="96" pan="0" len="12" vol="100" />
          <note key="69" pos="108" pan="0" len="12" vol="100" />
          <note key="71" pos="120" pan="0" len="12" vol="100" />
          <note key="76" pos="132" pan="0" len="12" vol="100" />
          <note key="80" pos="144" pan="0" len="12" vol="100" />
          <note key="81" pos="156" pan="0" len="12" vol="100" />
          <note key="83" pos="168" pan="0" len="12" vol="100" />
          <note key="88" pos="180" pan="0" len="12" vol="100" />
          <note key="92" pos="192" pan="0" len="576" vol="100" />
        </pattern>
      </track>
      <track solo="0" name="68 (Ch7)" type="0" muted="0">
        <instrumenttrack usemasterpitch="1" pitch="0.0" basenote="57" pan="0" pitchrange="12" vol="30">
          <eldata />
          <instrument name="tripleoscillator" />
        </instrumenttrack>
        <pattern pos="251148" muted="0" steps="16" name="" type="1">
          <note key="55" pos="24" pan="0" len="24" vol="100" />
          <note key="58" pos="48" pan="0" len="24" vol="100" />
          <note key="55" pos="120" pan="0" len="24" vol="100" />
          <note key="55" pos="168" pan="0" len="24" vol="100" />
          <note key="55" pos="216" pan="0" len="24" vol="100" />
          <note key="55" pos="264" pan="0" len="24" vol="100" />
          <note key="55" pos="336" pan="0" len="24" vol="100" />
          <note key="58" pos="408" pan="0" len="24" vol="100" />
          <note key="60" pos="456" pan="0" len="24" vol="100" />
          <note key="60" pos="504" pan="0" len="24" vol="100" />
          <note key="65" pos="552" pan="0" len="48" vol="100" />
          <note key="55" pos="600" pan="0" len="24" vol="100" />
          <note key="58" pos="624" pan="0" len="24" vol="100" />
          <note key="55" pos="696" pan="0" len="24" vol="100" />
          <note key="55" pos="744" pan="0" len="24" vol="100" />
          <note key="55" pos="792" pan="0" len="24" vol="100" />
          <note key="53" pos="840" pan="0" len="24" vol="100" />
          <note key="55" pos="1176" pan="0" len="24" vol="100" />
          <note key="58" pos="1200" pan="0" len="24" vol="100" />
          <note key="55" pos="1272" pan="0" len="24" vol="100" />
          <note key="55" pos="1320" pan="0" len="24" vol="100" />
          <note key="55" pos="1368" pan="0" len="24" vol="100" />
          <note key="55" pos="1416" pan="0" len="24" vol="100" />
          <note key="55" pos="1488" pan="0" len="24" vol="100" />
          <note key="58" pos="1560" pan="0" len="24" vol="100" />
          <note key="60" pos="1608" pan="0" len="24" vol="100" />
          <note key="60" pos="1656" pan="0" len="24" vol="100" />
          <note key="65" pos="1704" pan="0" len="48" vol="100" />
          <note key="55" pos="1752" pan="0" len="24" vol="100" />
          <note key="58" pos="1776" pan="0" len="24" vol="100" />
          <note key="55" pos="1848" pan="0" len="24" vol="100" />
          <note key="55" pos="1896" pan="0" len="24" vol="100" />
          <note key="55" pos="1944" pan="0" len="24" vol="100" />
          <note key="53" pos="1992" pan="0" len="24" vol="100" />
        </pattern>
        <pattern pos="248844" muted="0" steps="16" name="" type="1">
          <note key="60" pos="1752" pan="0" len="24" vol="100" />
          <note key="67" pos="1776" pan="0" len="24" vol="100" />
          <note key="65" pos="1800" pan="0" len="48" vol="100" />
          <note key="60" pos="1848" pan="0" len="24" vol="100" />
          <note key="64" pos="1872" pan="0" len="24" vol="100" />
          <note key="60" pos="1896" pan="0" len="24" vol="100" />
          <note key="62" pos="1920" pan="0" len="24" vol="100" />
          <note key="60" pos="1944" pan="0" len="24" vol="100" />
          <note key="62" pos="1968" pan="0" len="24" vol="100" />
          <note key="60" pos="1992" pan="0" len="24" vol="100" />
          <note key="62" pos="2016" pan="0" len="48" vol="100" />
          <note key="55" pos="2064" pan="0" len="24" vol="100" />
          <note key="62" pos="2088" pan="0" len="48" vol="100" />
          <note key="55" pos="2136" pan="0" len="24" vol="100" />
          <note key="60" pos="2160" pan="0" len="144" vol="100" />
        </pattern>
      </track>
      <track solo="0" name="68 (Ch8)" type="0" muted="0">
        <instrumenttrack usemasterpitch="1" pitch="0.0" basenote="57" pan="0" pitchrange="12" vol="30">
          <eldata />
          <instrument name="tripleoscillator" />
        </instrumenttrack>
        <pattern pos="248844" muted="0" steps="16" name="" type="1">
          <note key="69" pos="1800" pan="0" len="72" vol="100" />
          <note key="67" pos="1872" pan="0" len="48" vol="100" />
          <note key="65" pos="1920" pan="0" len="48" vol="100" />
          <note key="65" pos="1968" pan="0" len="48" vol="100" />
          <note key="67" pos="2016" pan="0" len="288" vol="100" />
        </pattern>
        <pattern pos="144396" muted="0" steps="16" name="" type="1">
          <note key="51" pos="288" pan="0" len="12" vol="100" />
          <note key="50" pos="300" pan="0" len="12" vol="31" />
          <note key="53" pos="312" pan="0" len="12" vol="47" />
          <note key="51" pos="324" pan="0" len="12" vol="100" />
          <note key="58" pos="336" pan="0" len="432" vol="100" />
        </pattern>
        <pattern pos="233484" muted="0" steps="16" name="" type="1">
          <note key="66" pos="0" pan="0" len="24" vol="100" />
          <note key="65" pos="24" pan="0" len="24" vol="100" />
          <note key="63" pos="48" pan="0" len="24" vol="100" />
          <note key="58" pos="72" pan="0" len="48" vol="100" />
          <note key="65" pos="120" pan="0" len="24" vol="100" />
          <note key="66" pos="144" pan="0" len="24" vol="100" />
          <note key="63" pos="168" pan="0" len="24" vol="100" />
          <note key="65" pos="192" pan="0" len="24" vol="100" />
          <note key="61" pos="216" pan="0" len="24" vol="100" />
          <note key="56" pos="240" pan="0" len="24" vol="100" />
          <note key="66" pos="264" pan="0" len="24" vol="100" />
          <note key="65" pos="288" pan="0" len="96" vol="100" />
          <note key="65" pos="384" pan="0" len="24" vol="100" />
          <note key="63" pos="408" pan="0" len="24" vol="100" />
          <note key="61" pos="432" pan="0" len="24" vol="100" />
          <note key="56" pos="456" pan="0" len="48" vol="100" />
          <note key="63" pos="504" pan="0" len="24" vol="100" />
          <note key="65" pos="528" pan="0" len="24" vol="100" />
          <note key="61" pos="552" pan="0" len="24" vol="100" />
          <note key="65" pos="576" pan="0" len="24" vol="100" />
          <note key="61" pos="600" pan="0" len="24" vol="100" />
          <note key="56" pos="624" pan="0" len="24" vol="100" />
          <note key="65" pos="648" pan="0" len="96" vol="100" />
          <note key="61" pos="744" pan="0" len="24" vol="100" />
          <note key="63" pos="768" pan="0" len="24" vol="100" />
          <note key="61" pos="792" pan="0" len="24" vol="100" />
          <note key="59" pos="816" pan="0" len="24" vol="100" />
          <note key="54" pos="840" pan="0" len="120" vol="100" />
          <note key="63" pos="960" pan="0" len="24" vol="100" />
          <note key="61" pos="984" pan="0" len="24" vol="100" />
          <note key="59" pos="1008" pan="0" len="24" vol="100" />
          <note key="54" pos="1032" pan="0" len="120" vol="100" />
          <note key="65" pos="1152" pan="0" len="24" vol="100" />
          <note key="63" pos="1176" pan="0" len="24" vol="100" />
          <note key="61" pos="1200" pan="0" len="24" vol="100" />
          <note key="56" pos="1224" pan="0" len="312" vol="100" />
        </pattern>
        <pattern pos="235020" muted="0" steps="16" name="" type="1">
          <note key="73" pos="0" pan="0" len="24" vol="100" />
          <note key="72" pos="24" pan="0" len="24" vol="100" />
          <note key="70" pos="48" pan="0" len="24" vol="100" />
          <note key="65" pos="72" pan="0" len="312" vol="100" />
          <note key="72" pos="384" pan="0" len="24" vol="100" />
          <note key="70" pos="408" pan="0" len="24" vol="100" />
          <note key="68" pos="432" pan="0" len="24" vol="100" />
          <note key="63" pos="456" pan="0" len="312" vol="100" />
          <note key="70" pos="768" pan="0" len="24" vol="100" />
          <note key="68" pos="792" pan="0" len="24" vol="100" />
          <note key="66" pos="816" pan="0" len="24" vol="100" />
          <note key="61" pos="840" pan="0" len="312" vol="100" />
          <note key="68" pos="1152" pan="0" len="24" vol="100" />
          <note key="63" pos="1176" pan="0" len="24" vol="100" />
          <note key="60" pos="1200" pan="0" len="24" vol="100" />
          <note key="56" pos="1224" pan="0" len="312" vol="100" />
        </pattern>
      </track>
      <track solo="0" name="68 (Ch9)" type="0" muted="0">
        <instrumenttrack usemasterpitch="1" pitch="0.0" basenote="57" pan="0" pitchrange="12" vol="30">
          <eldata />
          <instrument name="tripleoscillator" />
        </instrumenttrack>
        <pattern pos="248844" muted="0" steps="16" name="" type="1">
          <note key="74" pos="1800" pan="0" len="72" vol="100" />
          <note key="72" pos="1872" pan="0" len="48" vol="100" />
          <note key="69" pos="1920" pan="0" len="48" vol="100" />
          <note key="69" pos="1968" pan="0" len="48" vol="100" />
          <note key="70" pos="2016" pan="0" len="288" vol="100" />
        </pattern>
      </track>
      <track solo="0" name="68 (Ch10)" type="0" muted="0">
        <instrumenttrack usemasterpitch="1" pitch="0.0" basenote="57" pan="0" pitchrange="12" vol="30">
          <eldata />
          <instrument name="tripleoscillator" />
        </instrumenttrack>
        <pattern pos="236556" muted="0" steps="16" name="" type="1">
          <note key="61" pos="0" pan="0" len="12" vol="100" />
          <note key="68" pos="12" pan="0" len="12" vol="100" />
          <note key="65" pos="24" pan="0" len="12" vol="100" />
          <note key="70" pos="36" pan="0" len="12" vol="100" />
          <note key="68" pos="48" pan="0" len="12" vol="100" />
          <note key="73" pos="60" pan="0" len="12" vol="100" />
          <note key="70" pos="72" pan="0" len="12" vol="100" />
          <note key="77" pos="84" pan="0" len="12" vol="100" />
          <note key="73" pos="96" pan="0" len="12" vol="100" />
          <note key="80" pos="108" pan="0" len="12" vol="100" />
          <note key="77" pos="120" pan="0" len="12" vol="100" />
          <note key="82" pos="132" pan="0" len="60" vol="100" />
        </pattern>
        <pattern pos="150540" muted="0" steps="16" name="" type="1">
          <note key="30" pos="0" pan="0" len="48" vol="100" />
          <note key="37" pos="48" pan="0" len="48" vol="100" />
          <note key="40" pos="96" pan="0" len="48" vol="100" />
          <note key="47" pos="144" pan="0" len="48" vol="100" />
          <note key="42" pos="192" pan="0" len="48" vol="100" />
          <note key="49" pos="240" pan="0" len="48" vol="100" />
          <note key="52" pos="288" pan="0" len="48" vol="100" />
          <note key="59" pos="336" pan="0" len="48" vol="100" />
          <note key="30" pos="384" pan="0" len="48" vol="100" />
          <note key="37" pos="432" pan="0" len="48" vol="100" />
          <note key="40" pos="480" pan="0" len="48" vol="100" />
          <note key="47" pos="528" pan="0" len="48" vol="100" />
          <note key="42" pos="576" pan="0" len="48" vol="100" />
          <note key="49" pos="624" pan="0" len="48" vol="100" />
          <note key="52" pos="672" pan="0" len="48" vol="100" />
          <note key="59" pos="720" pan="0" len="48" vol="100" />
          <note key="40" pos="768" pan="0" len="48" vol="100" />
          <note key="47" pos="816" pan="0" len="48" vol="100" />
          <note key="50" pos="864" pan="0" len="48" vol="100" />
          <note key="53" pos="912" pan="0" len="48" vol="100" />
          <note key="41" pos="960" pan="0" len="48" vol="100" />
          <note key="48" pos="1008" pan="0" len="48" vol="100" />
          <note key="53" pos="1056" pan="0" len="48" vol="100" />
          <note key="60" pos="1104" pan="0" len="48" vol="100" />
          <note key="26" pos="1152" pan="0" len="48" vol="100" />
          <note key="33" pos="1200" pan="0" len="48" vol="100" />
          <note key="38" pos="1248" pan="0" len="48" vol="100" />
          <note key="48" pos="1296" pan="0" len="48" vol="100" />
          <note key="38" pos="1344" pan="0" len="48" vol="100" />
          <note key="45" pos="1392" pan="0" len="48" vol="100" />
          <note key="50" pos="1440" pan="0" len="48" vol="100" />
          <note key="60" pos="1488" pan="0" len="48" vol="100" />
        </pattern>
        <pattern pos="152076" muted="0" steps="16" name="" type="1">
          <note key="30" pos="0" pan="0" len="48" vol="100" />
          <note key="37" pos="48" pan="0" len="48" vol="100" />
          <note key="40" pos="96" pan="0" len="48" vol="100" />
          <note key="47" pos="144" pan="0" len="48" vol="100" />
          <note key="42" pos="192" pan="0" len="48" vol="100" />
          <note key="49" pos="240" pan="0" len="48" vol="100" />
          <note key="52" pos="288" pan="0" len="48" vol="100" />
          <note key="59" pos="336" pan="0" len="48" vol="100" />
          <note key="30" pos="384" pan="0" len="48" vol="100" />
          <note key="37" pos="432" pan="0" len="48" vol="100" />
          <note key="40" pos="480" pan="0" len="48" vol="100" />
          <note key="47" pos="528" pan="0" len="48" vol="100" />
          <note key="42" pos="576" pan="0" len="48" vol="100" />
          <note key="49" pos="624" pan="0" len="48" vol="100" />
          <note key="52" pos="672" pan="0" len="48" vol="100" />
          <note key="59" pos="720" pan="0" len="48" vol="100" />
          <note key="40" pos="768" pan="0" len="48" vol="100" />
          <note key="47" pos="816" pan="0" len="48" vol="100" />
          <note key="50" pos="864" pan="0" len="48" vol="100" />
          <note key="53" pos="912" pan="0" len="48" vol="100" />
          <note key="41" pos="960" pan="0" len="48" vol="100" />
          <note key="48" pos="1008" pan="0" len="48" vol="100" />
          <note key="53" pos="1056" pan="0" len="48" vol="100" />
          <note key="60" pos="1104" pan="0" len="48" vol="100" />
          <note key="26" pos="1152" pan="0" len="48" vol="100" />
          <note key="33" pos="1200" pan="0" len="48" vol="100" />
          <note key="38" pos="1248" pan="0" len="48" vol="100" />
          <note key="48" pos="1296" pan="0" len="48" vol="100" />
          <note key="38" pos="1344" pan="0" len="48" vol="100" />
          <note key="45" pos="1392" pan="0" len="48" vol="100" />
          <note key="50" pos="1440" pan="0" len="48" vol="100" />
          <note key="60" pos="1488" pan="0" len="48" vol="100" />
        </pattern>
      </track>
      <track solo="0" name="68 (Ch12)" type="0" muted="0">
        <instrumenttrack usemasterpitch="1" pitch="0.0" basenote="57" pan="0" pitchrange="12" vol="30">
          <eldata />
          <instrument name="tripleoscillator" />
        </instrumenttrack>
        <pattern pos="258060" muted="0" steps="16" name="" type="1">
          <note key="60" pos="1752" pan="0" len="24" vol="100" />
          <note key="67" pos="1776" pan="0" len="24" vol="100" />
          <note key="65" pos="1800" pan="0" len="48" vol="100" />
          <note key="60" pos="1848" pan="0" len="24" vol="100" />
          <note key="64" pos="1872" pan="0" len="24" vol="100" />
          <note key="60" pos="1896" pan="0" len="24" vol="100" />
          <note key="62" pos="1920" pan="0" len="24" vol="100" />
          <note key="60" pos="1944" pan="0" len="24" vol="100" />
          <note key="62" pos="1968" pan="0" len="24" vol="100" />
          <note key="60" pos="1992" pan="0" len="24" vol="100" />
          <note key="62" pos="2016" pan="0" len="48" vol="100" />
          <note key="55" pos="2064" pan="0" len="24" vol="100" />
          <note key="62" pos="2088" pan="0" len="48" vol="100" />
          <note key="55" pos="2136" pan="0" len="168" vol="100" />
        </pattern>
      </track>
      <track solo="0" name="68 (Ch13)" type="0" muted="0">
        <instrumenttrack usemasterpitch="1" pitch="0.0" basenote="57" pan="0" pitchrange="12" vol="30">
          <eldata />
          <instrument name="tripleoscillator" />
        </instrumenttrack>
        <pattern pos="258060" muted="0" steps="16" name="" type="1">
          <note key="69" pos="1800" pan="0" len="72" vol="100" />
          <note key="67" pos="1872" pan="0" len="48" vol="100" />
          <note key="65" pos="1920" pan="0" len="48" vol="100" />
          <note key="65" pos="1968" pan="0" len="48" vol="100" />
          <note key="67" pos="2016" pan="0" len="288" vol="100" />
        </pattern>
        <pattern pos="224268" muted="0" steps="16" name="" type="1">
          <note key="73" pos="624" pan="0" len="24" vol="100" />
          <note key="72" pos="648" pan="0" len="24" vol="100" />
          <note key="70" pos="672" pan="0" len="96" vol="100" />
        </pattern>
        <pattern pos="230412" muted="0" steps="16" name="" type="1">
          <note key="73" pos="624" pan="0" len="24" vol="100" />
          <note key="72" pos="648" pan="0" len="24" vol="100" />
          <note key="70" pos="672" pan="0" len="96" vol="100" />
        </pattern>
      </track>
      <track solo="0" name="68 (Ch14)" type="0" muted="0">
        <instrumenttrack usemasterpitch="1" pitch="0.0" basenote="57" pan="0" pitchrange="12" vol="30">
          <eldata />
          <instrument name="tripleoscillator" />
        </instrumenttrack>
        <pattern pos="258060" muted="0" steps="16" name="" type="1">
          <note key="74" pos="1800" pan="0" len="72" vol="100" />
          <note key="72" pos="1872" pan="0" len="48" vol="100" />
          <note key="69" pos="1920" pan="0" len="48" vol="100" />
          <note key="69" pos="1968" pan="0" len="48" vol="100" />
          <note key="70" pos="2016" pan="0" len="288" vol="100" />
        </pattern>
      </track>
      <track solo="0" name="68 (Ch19)" type="0" muted="0">
        <instrumenttrack usemasterpitch="1" pitch="0.0" basenote="57" pan="0" pitchrange="12" vol="30">
          <eldata />
          <instrument name="tripleoscillator" />
        </instrumenttrack>
        <pattern pos="19968" muted="0" steps="16" name="" type="1">
          <note key="70" pos="0" pan="0" len="24" vol="100" />
          <note key="67" pos="24" pan="0" len="12" vol="100" />
          <note key="70" pos="36" pan="0" len="24" vol="100" />
          <note key="67" pos="60" pan="0" len="12" vol="100" />
          <note key="70" pos="72" pan="0" len="12" vol="100" />
          <note key="72" pos="84" pan="0" len="12" vol="100" />
          <note key="75" pos="96" pan="0" len="24" vol="100" />
          <note key="72" pos="120" pan="0" len="12" vol="100" />
          <note key="75" pos="132" pan="0" len="24" vol="100" />
          <note key="72" pos="156" pan="0" len="12" vol="100" />
          <note key="75" pos="168" pan="0" len="12" vol="100" />
          <note key="77" pos="180" pan="0" len="12" vol="100" />
          <note key="79" pos="192" pan="0" len="24" vol="100" />
          <note key="74" pos="216" pan="0" len="12" vol="100" />
          <note key="79" pos="228" pan="0" len="24" vol="100" />
          <note key="74" pos="252" pan="0" len="12" vol="100" />
          <note key="79" pos="264" pan="0" len="12" vol="100" />
          <note key="82" pos="276" pan="0" len="12" vol="100" />
          <note key="79" pos="288" pan="0" len="24" vol="100" />
          <note key="74" pos="312" pan="0" len="12" vol="100" />
          <note key="79" pos="324" pan="0" len="24" vol="100" />
          <note key="74" pos="348" pan="0" len="12" vol="100" />
          <note key="79" pos="360" pan="0" len="12" vol="100" />
          <note key="82" pos="372" pan="0" len="12" vol="100" />
          <note key="82" pos="384" pan="0" len="24" vol="100" />
          <note key="79" pos="408" pan="0" len="12" vol="100" />
          <note key="82" pos="420" pan="0" len="24" vol="100" />
          <note key="79" pos="444" pan="0" len="12" vol="100" />
          <note key="82" pos="456" pan="0" len="12" vol="100" />
          <note key="84" pos="468" pan="0" len="12" vol="100" />
          <note key="82" pos="480" pan="0" len="24" vol="100" />
          <note key="79" pos="504" pan="0" len="12" vol="100" />
          <note key="82" pos="516" pan="0" len="24" vol="100" />
          <note key="79" pos="540" pan="0" len="12" vol="100" />
          <note key="82" pos="552" pan="0" len="12" vol="100" />
          <note key="84" pos="564" pan="0" len="12" vol="100" />
          <note key="82" pos="576" pan="0" len="24" vol="100" />
          <note key="79" pos="600" pan="0" len="12" vol="100" />
          <note key="82" pos="612" pan="0" len="24" vol="100" />
          <note key="79" pos="636" pan="0" len="12" vol="100" />
          <note key="82" pos="648" pan="0" len="12" vol="100" />
          <note key="84" pos="660" pan="0" len="12" vol="100" />
          <note key="82" pos="672" pan="0" len="24" vol="100" />
          <note key="79" pos="696" pan="0" len="12" vol="100" />
          <note key="82" pos="708" pan="0" len="24" vol="100" />
          <note key="79" pos="732" pan="0" len="12" vol="100" />
          <note key="82" pos="744" pan="0" len="12" vol="100" />
          <note key="84" pos="756" pan="0" len="12" vol="100" />
          <note key="70" pos="768" pan="0" len="24" vol="100" />
          <note key="67" pos="792" pan="0" len="12" vol="100" />
          <note key="70" pos="804" pan="0" len="24" vol="100" />
          <note key="67" pos="828" pan="0" len="12" vol="100" />
          <note key="70" pos="840" pan="0" len="12" vol="100" />
          <note key="72" pos="852" pan="0" len="12" vol="100" />
          <note key="75" pos="864" pan="0" len="24" vol="100" />
          <note key="72" pos="888" pan="0" len="12" vol="100" />
          <note key="75" pos="900" pan="0" len="24" vol="100" />
          <note key="72" pos="924" pan="0" len="12" vol="100" />
          <note key="75" pos="936" pan="0" len="12" vol="100" />
          <note key="77" pos="948" pan="0" len="12" vol="100" />
          <note key="79" pos="960" pan="0" len="24" vol="100" />
          <note key="74" pos="984" pan="0" len="12" vol="100" />
          <note key="79" pos="996" pan="0" len="24" vol="100" />
          <note key="74" pos="1020" pan="0" len="12" vol="100" />
          <note key="79" pos="1032" pan="0" len="12" vol="100" />
          <note key="82" pos="1044" pan="0" len="12" vol="100" />
          <note key="79" pos="1056" pan="0" len="24" vol="100" />
          <note key="74" pos="1080" pan="0" len="12" vol="100" />
          <note key="79" pos="1092" pan="0" len="24" vol="100" />
          <note key="74" pos="1116" pan="0" len="12" vol="100" />
          <note key="79" pos="1128" pan="0" len="12" vol="100" />
          <note key="82" pos="1140" pan="0" len="12" vol="100" />
          <note key="82" pos="1152" pan="0" len="24" vol="100" />
          <note key="79" pos="1176" pan="0" len="12" vol="100" />
          <note key="82" pos="1188" pan="0" len="24" vol="100" />
          <note key="79" pos="1212" pan="0" len="12" vol="100" />
          <note key="82" pos="1224" pan="0" len="12" vol="100" />
          <note key="84" pos="1236" pan="0" len="12" vol="100" />
          <note key="82" pos="1248" pan="0" len="24" vol="100" />
          <note key="79" pos="1272" pan="0" len="12" vol="100" />
          <note key="82" pos="1284" pan="0" len="24" vol="100" />
          <note key="79" pos="1308" pan="0" len="12" vol="100" />
          <note key="82" pos="1320" pan="0" len="12" vol="100" />
          <note key="84" pos="1332" pan="0" len="12" vol="100" />
          <note key="82" pos="1344" pan="0" len="24" vol="100" />
          <note key="79" pos="1368" pan="0" len="12" vol="100" />
          <note key="82" pos="1380" pan="0" len="24" vol="100" />
          <note key="79" pos="1404" pan="0" len="12" vol="100" />
          <note key="82" pos="1416" pan="0" len="12" vol="100" />
          <note key="84" pos="1428" pan="0" len="12" vol="100" />
          <note key="82" pos="1440" pan="0" len="24" vol="100" />
          <note key="79" pos="1464" pan="0" len="12" vol="100" />
          <note key="82" pos="1476" pan="0" len="24" vol="100" />
          <note key="79" pos="1500" pan="0" len="12" vol="100" />
          <note key="82" pos="1512" pan="0" len="12" vol="100" />
          <note key="84" pos="1524" pan="0" len="12" vol="100" />
        </pattern>
        <pattern pos="18432" muted="0" steps="16" name="" type="1">
          <note key="72" pos="0" pan="0" len="12" vol="100" />
          <note key="79" pos="12" pan="0" len="24" vol="100" />
          <note key="72" pos="36" pan="0" len="24" vol="100" />
          <note key="79" pos="60" pan="0" len="12" vol="100" />
          <note key="70" pos="72" pan="0" len="12" vol="100" />
          <note key="79" pos="84" pan="0" len="12" vol="100" />
          <note key="72" pos="96" pan="0" len="12" vol="100" />
          <note key="79" pos="108" pan="0" len="24" vol="100" />
          <note key="72" pos="132" pan="0" len="24" vol="100" />
          <note key="79" pos="156" pan="0" len="12" vol="100" />
          <note key="75" pos="168" pan="0" len="12" vol="100" />
          <note key="79" pos="180" pan="0" len="12" vol="100" />
          <note key="72" pos="192" pan="0" len="12" vol="100" />
          <note key="79" pos="204" pan="0" len="24" vol="100" />
          <note key="72" pos="228" pan="0" len="24" vol="100" />
          <note key="79" pos="252" pan="0" len="12" vol="100" />
          <note key="70" pos="264" pan="0" len="12" vol="100" />
          <note key="79" pos="276" pan="0" len="12" vol="100" />
          <note key="72" pos="288" pan="0" len="12" vol="100" />
          <note key="79" pos="300" pan="0" len="24" vol="100" />
          <note key="72" pos="324" pan="0" len="24" vol="100" />
          <note key="79" pos="348" pan="0" len="12" vol="100" />
          <note key="75" pos="360" pan="0" len="12" vol="100" />
          <note key="79" pos="372" pan="0" len="12" vol="100" />
          <note key="75" pos="384" pan="0" len="12" vol="100" />
          <note key="82" pos="396" pan="0" len="24" vol="100" />
          <note key="75" pos="420" pan="0" len="24" vol="100" />
          <note key="82" pos="444" pan="0" len="12" vol="100" />
          <note key="72" pos="456" pan="0" len="12" vol="100" />
          <note key="82" pos="468" pan="0" len="12" vol="100" />
          <note key="75" pos="480" pan="0" len="12" vol="100" />
          <note key="82" pos="492" pan="0" len="24" vol="100" />
          <note key="75" pos="516" pan="0" len="24" vol="100" />
          <note key="82" pos="540" pan="0" len="12" vol="100" />
          <note key="72" pos="552" pan="0" len="12" vol="100" />
          <note key="82" pos="564" pan="0" len="12" vol="100" />
          <note key="79" pos="576" pan="0" len="12" vol="100" />
          <note key="82" pos="588" pan="0" len="24" vol="100" />
          <note key="79" pos="612" pan="0" len="24" vol="100" />
          <note key="82" pos="636" pan="0" len="12" vol="100" />
          <note key="74" pos="648" pan="0" len="12" vol="100" />
          <note key="82" pos="660" pan="0" len="12" vol="100" />
          <note key="79" pos="672" pan="0" len="12" vol="100" />
          <note key="82" pos="684" pan="0" len="24" vol="100" />
          <note key="79" pos="708" pan="0" len="24" vol="100" />
          <note key="82" pos="732" pan="0" len="12" vol="100" />
          <note key="74" pos="744" pan="0" len="12" vol="100" />
          <note key="82" pos="756" pan="0" len="12" vol="100" />
          <note key="72" pos="768" pan="0" len="12" vol="100" />
          <note key="79" pos="780" pan="0" len="24" vol="100" />
          <note key="72" pos="804" pan="0" len="24" vol="100" />
          <note key="79" pos="828" pan="0" len="12" vol="100" />
          <note key="70" pos="840" pan="0" len="12" vol="100" />
          <note key="79" pos="852" pan="0" len="12" vol="100" />
          <note key="72" pos="864" pan="0" len="12" vol="100" />
          <note key="79" pos="876" pan="0" len="24" vol="100" />
          <note key="72" pos="900" pan="0" len="24" vol="100" />
          <note key="79" pos="924" pan="0" len="12" vol="100" />
          <note key="75" pos="936" pan="0" len="12" vol="100" />
          <note key="79" pos="948" pan="0" len="12" vol="100" />
          <note key="72" pos="960" pan="0" len="12" vol="100" />
          <note key="79" pos="972" pan="0" len="24" vol="100" />
          <note key="72" pos="996" pan="0" len="24" vol="100" />
          <note key="79" pos="1020" pan="0" len="12" vol="100" />
          <note key="70" pos="1032" pan="0" len="12" vol="100" />
          <note key="79" pos="1044" pan="0" len="12" vol="100" />
          <note key="72" pos="1056" pan="0" len="12" vol="100" />
          <note key="79" pos="1068" pan="0" len="24" vol="100" />
          <note key="72" pos="1092" pan="0" len="24" vol="100" />
          <note key="79" pos="1116" pan="0" len="12" vol="100" />
          <note key="75" pos="1128" pan="0" len="12" vol="100" />
          <note key="79" pos="1140" pan="0" len="12" vol="100" />
          <note key="75" pos="1152" pan="0" len="12" vol="100" />
          <note key="82" pos="1164" pan="0" len="24" vol="100" />
          <note key="75" pos="1188" pan="0" len="24" vol="100" />
          <note key="82" pos="1212" pan="0" len="12" vol="100" />
          <note key="72" pos="1224" pan="0" len="12" vol="100" />
          <note key="82" pos="1236" pan="0" len="12" vol="100" />
          <note key="75" pos="1248" pan="0" len="12" vol="100" />
          <note key="82" pos="1260" pan="0" len="24" vol="100" />
          <note key="75" pos="1284" pan="0" len="24" vol="100" />
          <note key="82" pos="1308" pan="0" len="12" vol="100" />
          <note key="72" pos="1320" pan="0" len="12" vol="100" />
          <note key="82" pos="1332" pan="0" len="12" vol="100" />
          <note key="79" pos="1344" pan="0" len="12" vol="100" />
          <note key="82" pos="1356" pan="0" len="24" vol="100" />
          <note key="79" pos="1380" pan="0" len="24" vol="100" />
          <note key="82" pos="1404" pan="0" len="12" vol="100" />
          <note key="74" pos="1416" pan="0" len="12" vol="100" />
          <note key="82" pos="1428" pan="0" len="12" vol="100" />
          <note key="79" pos="1440" pan="0" len="12" vol="100" />
          <note key="82" pos="1452" pan="0" len="24" vol="100" />
          <note key="79" pos="1476" pan="0" len="24" vol="100" />
          <note key="82" pos="1500" pan="0" len="12" vol="100" />
          <note key="74" pos="1512" pan="0" len="12" vol="100" />
          <note key="82" pos="1524" pan="0" len="12" vol="100" />
        </pattern>
      </track>
      <track solo="0" name="69 (Ch5)" type="0" muted="0">
        <instrumenttrack usemasterpitch="1" pitch="0.0" basenote="57" pan="0" pitchrange="12" vol="30">
          <eldata />
          <instrument name="tripleoscillator" />
        </instrumenttrack>
        <pattern pos="27648" muted="0" steps="16" name="" type="1">
          <note key="49" pos="0" pan="0" len="24" vol="100" />
          <note key="49" pos="48" pan="0" len="24" vol="100" />
          <note key="49" pos="96" pan="0" len="24" vol="100" />
          <note key="49" pos="144" pan="0" len="24" vol="100" />
          <note key="49" pos="192" pan="0" len="24" vol="100" />
          <note key="49" pos="240" pan="0" len="24" vol="100" />
          <note key="49" pos="288" pan="0" len="24" vol="100" />
          <note key="49" pos="336" pan="0" len="24" vol="100" />
          <note key="49" pos="384" pan="0" len="24" vol="100" />
          <note key="49" pos="432" pan="0" len="24" vol="100" />
          <note key="49" pos="480" pan="0" len="24" vol="100" />
          <note key="49" pos="528" pan="0" len="24" vol="100" />
          <note key="49" pos="576" pan="0" len="24" vol="100" />
          <note key="49" pos="624" pan="0" len="24" vol="100" />
          <note key="49" pos="672" pan="0" len="24" vol="100" />
          <note key="49" pos="720" pan="0" len="24" vol="100" />
          <note key="49" pos="768" pan="0" len="24" vol="100" />
          <note key="49" pos="816" pan="0" len="24" vol="100" />
          <note key="49" pos="864" pan="0" len="24" vol="100" />
          <note key="49" pos="912" pan="0" len="24" vol="100" />
          <note key="49" pos="960" pan="0" len="24" vol="100" />
          <note key="49" pos="1008" pan="0" len="24" vol="100" />
          <note key="49" pos="1056" pan="0" len="24" vol="100" />
          <note key="49" pos="1104" pan="0" len="24" vol="100" />
          <note key="49" pos="1152" pan="0" len="24" vol="100" />
          <note key="49" pos="1200" pan="0" len="24" vol="100" />
          <note key="49" pos="1248" pan="0" len="24" vol="100" />
          <note key="49" pos="1296" pan="0" len="24" vol="100" />
          <note key="49" pos="1344" pan="0" len="24" vol="100" />
          <note key="49" pos="1392" pan="0" len="24" vol="100" />
          <note key="49" pos="1440" pan="0" len="24" vol="100" />
          <note key="49" pos="1488" pan="0" len="24" vol="100" />
        </pattern>
        <pattern pos="21504" muted="0" steps="16" name="" type="1">
          <note key="48" pos="0" pan="0" len="24" vol="100" />
          <note key="48" pos="48" pan="0" len="24" vol="100" />
          <note key="48" pos="96" pan="0" len="24" vol="100" />
          <note key="48" pos="144" pan="0" len="24" vol="100" />
          <note key="48" pos="192" pan="0" len="24" vol="100" />
          <note key="48" pos="240" pan="0" len="24" vol="100" />
          <note key="48" pos="288" pan="0" len="24" vol="100" />
          <note key="48" pos="336" pan="0" len="24" vol="100" />
          <note key="48" pos="384" pan="0" len="24" vol="100" />
          <note key="48" pos="432" pan="0" len="24" vol="100" />
          <note key="48" pos="480" pan="0" len="24" vol="100" />
          <note key="48" pos="528" pan="0" len="24" vol="100" />
          <note key="48" pos="576" pan="0" len="24" vol="100" />
          <note key="48" pos="624" pan="0" len="24" vol="100" />
          <note key="48" pos="672" pan="0" len="24" vol="100" />
          <note key="48" pos="720" pan="0" len="24" vol="100" />
          <note key="48" pos="768" pan="0" len="24" vol="100" />
          <note key="48" pos="816" pan="0" len="24" vol="100" />
          <note key="48" pos="864" pan="0" len="24" vol="100" />
          <note key="48" pos="912" pan="0" len="24" vol="100" />
          <note key="48" pos="960" pan="0" len="24" vol="100" />
          <note key="48" pos="1008" pan="0" len="24" vol="100" />
          <note key="48" pos="1056" pan="0" len="24" vol="100" />
          <note key="48" pos="1104" pan="0" len="24" vol="100" />
          <note key="48" pos="1152" pan="0" len="24" vol="100" />
          <note key="48" pos="1200" pan="0" len="24" vol="100" />
          <note key="48" pos="1248" pan="0" len="24" vol="100" />
          <note key="48" pos="1296" pan="0" len="24" vol="100" />
          <note key="48" pos="1344" pan="0" len="24" vol="100" />
          <note key="48" pos="1392" pan="0" len="24" vol="100" />
          <note key="48" pos="1440" pan="0" len="24" vol="100" />
          <note key="48" pos="1488" pan="0" len="24" vol="100" />
        </pattern>
        <pattern pos="23040" muted="0" steps="16" name="" type="1">
          <note key="48" pos="0" pan="0" len="24" vol="100" />
          <note key="48" pos="48" pan="0" len="24" vol="100" />
          <note key="48" pos="96" pan="0" len="24" vol="100" />
          <note key="48" pos="144" pan="0" len="24" vol="100" />
          <note key="48" pos="192" pan="0" len="24" vol="100" />
          <note key="48" pos="240" pan="0" len="24" vol="100" />
          <note key="48" pos="288" pan="0" len="24" vol="100" />
          <note key="48" pos="336" pan="0" len="24" vol="100" />
          <note key="48" pos="384" pan="0" len="24" vol="100" />
          <note key="48" pos="432" pan="0" len="24" vol="100" />
          <note key="48" pos="480" pan="0" len="24" vol="100" />
          <note key="48" pos="528" pan="0" len="24" vol="100" />
          <note key="48" pos="576" pan="0" len="24" vol="100" />
          <note key="48" pos="624" pan="0" len="24" vol="100" />
          <note key="48" pos="672" pan="0" len="24" vol="100" />
          <note key="48" pos="720" pan="0" len="24" vol="100" />
          <note key="48" pos="768" pan="0" len="24" vol="100" />
          <note key="48" pos="816" pan="0" len="24" vol="100" />
          <note key="48" pos="864" pan="0" len="24" vol="100" />
          <note key="48" pos="912" pan="0" len="24" vol="100" />
          <note key="48" pos="960" pan="0" len="24" vol="100" />
          <note key="48" pos="1008" pan="0" len="24" vol="100" />
          <note key="48" pos="1056" pan="0" len="24" vol="100" />
          <note key="48" pos="1104" pan="0" len="24" vol="100" />
          <note key="48" pos="1152" pan="0" len="24" vol="100" />
          <note key="48" pos="1200" pan="0" len="24" vol="100" />
          <note key="48" pos="1248" pan="0" len="24" vol="100" />
          <note key="48" pos="1296" pan="0" len="24" vol="100" />
          <note key="48" pos="1344" pan="0" len="24" vol="100" />
          <note key="48" pos="1392" pan="0" len="24" vol="100" />
          <note key="48" pos="1440" pan="0" len="24" vol="100" />
          <note key="48" pos="1488" pan="0" len="24" vol="100" />
        </pattern>
        <pattern pos="24576" muted="0" steps="16" name="" type="1">
          <note key="48" pos="0" pan="0" len="24" vol="100" />
          <note key="48" pos="48" pan="0" len="24" vol="100" />
          <note key="48" pos="96" pan="0" len="24" vol="100" />
          <note key="48" pos="144" pan="0" len="24" vol="100" />
          <note key="48" pos="192" pan="0" len="24" vol="100" />
          <note key="48" pos="240" pan="0" len="24" vol="100" />
          <note key="48" pos="288" pan="0" len="24" vol="100" />
          <note key="48" pos="336" pan="0" len="24" vol="100" />
          <note key="48" pos="384" pan="0" len="24" vol="100" />
          <note key="48" pos="432" pan="0" len="24" vol="100" />
          <note key="48" pos="480" pan="0" len="24" vol="100" />
          <note key="48" pos="528" pan="0" len="24" vol="100" />
          <note key="48" pos="576" pan="0" len="24" vol="100" />
          <note key="48" pos="624" pan="0" len="24" vol="100" />
          <note key="48" pos="672" pan="0" len="24" vol="100" />
          <note key="48" pos="720" pan="0" len="24" vol="100" />
          <note key="48" pos="768" pan="0" len="24" vol="100" />
          <note key="48" pos="816" pan="0" len="24" vol="100" />
          <note key="48" pos="864" pan="0" len="24" vol="100" />
          <note key="48" pos="912" pan="0" len="24" vol="100" />
          <note key="48" pos="960" pan="0" len="24" vol="100" />
          <note key="48" pos="1008" pan="0" len="24" vol="100" />
          <note key="48" pos="1056" pan="0" len="24" vol="100" />
          <note key="48" pos="1104" pan="0" len="24" vol="100" />
          <note key="48" pos="1152" pan="0" len="24" vol="100" />
          <note key="48" pos="1200" pan="0" len="24" vol="100" />
          <note key="48" pos="1248" pan="0" len="24" vol="100" />
          <note key="48" pos="1296" pan="0" len="24" vol="100" />
          <note key="48" pos="1344" pan="0" len="24" vol="100" />
          <note key="48" pos="1392" pan="0" len="24" vol="100" />
          <note key="48" pos="1440" pan="0" len="24" vol="100" />
          <note key="48" pos="1488" pan="0" len="24" vol="100" />
        </pattern>
        <pattern pos="26112" muted="0" steps="16" name="" type="1">
          <note key="49" pos="0" pan="0" len="24" vol="100" />
          <note key="49" pos="48" pan="0" len="24" vol="100" />
          <note key="49" pos="96" pan="0" len="24" vol="100" />
          <note key="49" pos="144" pan="0" len="24" vol="100" />
          <note key="49" pos="192" pan="0" len="24" vol="100" />
          <note key="49" pos="240" pan="0" len="24" vol="100" />
          <note key="49" pos="288" pan="0" len="24" vol="100" />
          <note key="49" pos="336" pan="0" len="24" vol="100" />
          <note key="49" pos="384" pan="0" len="24" vol="100" />
          <note key="49" pos="432" pan="0" len="24" vol="100" />
          <note key="49" pos="480" pan="0" len="24" vol="100" />
          <note key="49" pos="528" pan="0" len="24" vol="100" />
          <note key="49" pos="576" pan="0" len="24" vol="100" />
          <note key="49" pos="624" pan="0" len="24" vol="100" />
          <note key="49" pos="672" pan="0" len="24" vol="100" />
          <note key="49" pos="720" pan="0" len="24" vol="100" />
          <note key="49" pos="768" pan="0" len="24" vol="100" />
          <note key="49" pos="816" pan="0" len="24" vol="100" />
          <note key="49" pos="864" pan="0" len="24" vol="100" />
          <note key="49" pos="912" pan="0" len="24" vol="100" />
          <note key="49" pos="960" pan="0" len="24" vol="100" />
          <note key="49" pos="1008" pan="0" len="24" vol="100" />
          <note key="49" pos="1056" pan="0" len="24" vol="100" />
          <note key="49" pos="1104" pan="0" len="24" vol="100" />
          <note key="49" pos="1152" pan="0" len="24" vol="100" />
          <note key="49" pos="1200" pan="0" len="24" vol="100" />
          <note key="49" pos="1248" pan="0" len="24" vol="100" />
          <note key="49" pos="1296" pan="0" len="24" vol="100" />
          <note key="49" pos="1344" pan="0" len="24" vol="100" />
          <note key="49" pos="1392" pan="0" len="24" vol="100" />
          <note key="49" pos="1440" pan="0" len="24" vol="100" />
          <note key="49" pos="1488" pan="0" len="24" vol="100" />
        </pattern>
      </track>
      <track solo="0" name="69 (Ch11)" type="0" muted="0">
        <instrumenttrack usemasterpitch="1" pitch="0.0" basenote="57" pan="0" pitchrange="12" vol="30">
          <eldata />
          <instrument name="tripleoscillator" />
        </instrumenttrack>
        <pattern pos="200460" muted="0" steps="16" name="" type="1">
          <note key="60" pos="144" pan="0" len="24" vol="100" />
        </pattern>
      </track>
      <track solo="0" name="69 (Ch14)" type="0" muted="0">
        <instrumenttrack usemasterpitch="1" pitch="0.0" basenote="57" pan="0" pitchrange="12" vol="30">
          <eldata />
          <instrument name="tripleoscillator" />
        </instrumenttrack>
        <pattern pos="248460" muted="0" steps="16" name="" type="1">
          <note key="51" pos="0" pan="0" len="96" vol="100" />
          <note key="51" pos="96" pan="0" len="288" vol="100" />
        </pattern>
      </track>
      <track solo="0" name="69 (Ch15)" type="0" muted="0">
        <instrumenttrack usemasterpitch="1" pitch="0.0" basenote="57" pan="0" pitchrange="12" vol="30">
          <eldata />
          <instrument name="tripleoscillator" />
        </instrumenttrack>
        <pattern pos="198924" muted="0" steps="16" name="" type="1">
          <note key="48" pos="0" pan="0" len="48" vol="100" />
          <note key="36" pos="48" pan="0" len="36" vol="100" />
          <note key="48" pos="84" pan="0" len="36" vol="100" />
          <note key="48" pos="120" pan="0" len="24" vol="100" />
          <note key="36" pos="144" pan="0" len="48" vol="100" />
          <note key="48" pos="192" pan="0" len="48" vol="100" />
          <note key="36" pos="240" pan="0" len="36" vol="100" />
          <note key="48" pos="276" pan="0" len="36" vol="100" />
          <note key="48" pos="312" pan="0" len="24" vol="100" />
          <note key="36" pos="336" pan="0" len="48" vol="100" />
          <note key="48" pos="384" pan="0" len="48" vol="100" />
          <note key="36" pos="432" pan="0" len="36" vol="100" />
          <note key="48" pos="468" pan="0" len="36" vol="100" />
          <note key="48" pos="504" pan="0" len="24" vol="100" />
          <note key="36" pos="528" pan="0" len="48" vol="100" />
          <note key="48" pos="576" pan="0" len="48" vol="100" />
          <note key="36" pos="624" pan="0" len="36" vol="100" />
          <note key="48" pos="660" pan="0" len="36" vol="100" />
          <note key="48" pos="696" pan="0" len="36" vol="100" />
          <note key="36" pos="732" pan="0" len="36" vol="100" />
          <note key="48" pos="768" pan="0" len="48" vol="100" />
          <note key="36" pos="816" pan="0" len="36" vol="100" />
          <note key="48" pos="852" pan="0" len="36" vol="100" />
          <note key="48" pos="888" pan="0" len="24" vol="100" />
          <note key="36" pos="912" pan="0" len="48" vol="100" />
          <note key="48" pos="960" pan="0" len="48" vol="100" />
          <note key="36" pos="1008" pan="0" len="36" vol="100" />
          <note key="48" pos="1044" pan="0" len="36" vol="100" />
          <note key="48" pos="1080" pan="0" len="24" vol="100" />
          <note key="36" pos="1104" pan="0" len="48" vol="100" />
          <note key="48" pos="1152" pan="0" len="48" vol="100" />
          <note key="36" pos="1200" pan="0" len="36" vol="100" />
          <note key="48" pos="1236" pan="0" len="36" vol="100" />
          <note key="48" pos="1272" pan="0" len="24" vol="100" />
          <note key="36" pos="1296" pan="0" len="48" vol="100" />
          <note key="48" pos="1344" pan="0" len="48" vol="100" />
          <note key="36" pos="1392" pan="0" len="36" vol="100" />
          <note key="48" pos="1428" pan="0" len="36" vol="100" />
          <note key="48" pos="1464" pan="0" len="36" vol="100" />
          <note key="36" pos="1500" pan="0" len="36" vol="100" />
        </pattern>
        <pattern pos="192780" muted="0" steps="16" name="" type="1">
          <note key="48" pos="0" pan="0" len="48" vol="100" />
          <note key="36" pos="48" pan="0" len="36" vol="100" />
          <note key="48" pos="84" pan="0" len="36" vol="100" />
          <note key="48" pos="120" pan="0" len="24" vol="100" />
          <note key="36" pos="144" pan="0" len="48" vol="100" />
          <note key="48" pos="192" pan="0" len="48" vol="100" />
          <note key="36" pos="240" pan="0" len="36" vol="100" />
          <note key="48" pos="276" pan="0" len="36" vol="100" />
          <note key="48" pos="312" pan="0" len="24" vol="100" />
          <note key="36" pos="336" pan="0" len="48" vol="100" />
          <note key="48" pos="384" pan="0" len="48" vol="100" />
          <note key="36" pos="432" pan="0" len="36" vol="100" />
          <note key="48" pos="468" pan="0" len="36" vol="100" />
          <note key="48" pos="504" pan="0" len="24" vol="100" />
          <note key="36" pos="528" pan="0" len="48" vol="100" />
          <note key="48" pos="576" pan="0" len="48" vol="100" />
          <note key="36" pos="624" pan="0" len="36" vol="100" />
          <note key="48" pos="660" pan="0" len="36" vol="100" />
          <note key="48" pos="696" pan="0" len="24" vol="100" />
          <note key="36" pos="720" pan="0" len="48" vol="100" />
          <note key="48" pos="768" pan="0" len="48" vol="100" />
          <note key="36" pos="816" pan="0" len="36" vol="100" />
          <note key="48" pos="852" pan="0" len="36" vol="100" />
          <note key="48" pos="888" pan="0" len="24" vol="100" />
          <note key="36" pos="912" pan="0" len="48" vol="100" />
          <note key="48" pos="960" pan="0" len="48" vol="100" />
          <note key="36" pos="1008" pan="0" len="36" vol="100" />
          <note key="48" pos="1044" pan="0" len="36" vol="100" />
          <note key="48" pos="1080" pan="0" len="24" vol="100" />
          <note key="36" pos="1104" pan="0" len="48" vol="100" />
          <note key="48" pos="1152" pan="0" len="48" vol="100" />
          <note key="36" pos="1200" pan="0" len="36" vol="100" />
          <note key="48" pos="1236" pan="0" len="36" vol="100" />
          <note key="48" pos="1272" pan="0" len="24" vol="100" />
          <note key="36" pos="1296" pan="0" len="48" vol="100" />
          <note key="48" pos="1344" pan="0" len="48" vol="100" />
          <note key="36" pos="1392" pan="0" len="36" vol="100" />
          <note key="48" pos="1428" pan="0" len="36" vol="100" />
          <note key="48" pos="1464" pan="0" len="24" vol="100" />
          <note key="36" pos="1488" pan="0" len="48" vol="100" />
        </pattern>
        <pattern pos="194316" muted="0" steps="16" name="" type="1">
          <note key="48" pos="0" pan="0" len="48" vol="100" />
          <note key="36" pos="48" pan="0" len="36" vol="100" />
          <note key="48" pos="84" pan="0" len="36" vol="100" />
          <note key="48" pos="120" pan="0" len="24" vol="100" />
          <note key="36" pos="144" pan="0" len="48" vol="100" />
          <note key="48" pos="192" pan="0" len="48" vol="100" />
          <note key="36" pos="240" pan="0" len="36" vol="100" />
          <note key="48" pos="276" pan="0" len="36" vol="100" />
          <note key="48" pos="312" pan="0" len="24" vol="100" />
          <note key="36" pos="336" pan="0" len="48" vol="100" />
          <note key="48" pos="384" pan="0" len="48" vol="100" />
          <note key="36" pos="432" pan="0" len="36" vol="100" />
          <note key="48" pos="468" pan="0" len="36" vol="100" />
          <note key="48" pos="504" pan="0" len="24" vol="100" />
          <note key="36" pos="528" pan="0" len="48" vol="100" />
          <note key="48" pos="576" pan="0" len="48" vol="100" />
          <note key="36" pos="624" pan="0" len="36" vol="100" />
          <note key="48" pos="660" pan="0" len="36" vol="100" />
          <note key="48" pos="696" pan="0" len="36" vol="100" />
          <note key="36" pos="732" pan="0" len="36" vol="100" />
          <note key="48" pos="768" pan="0" len="48" vol="100" />
          <note key="36" pos="816" pan="0" len="36" vol="100" />
          <note key="48" pos="852" pan="0" len="36" vol="100" />
          <note key="48" pos="888" pan="0" len="24" vol="100" />
          <note key="36" pos="912" pan="0" len="48" vol="100" />
          <note key="48" pos="960" pan="0" len="48" vol="100" />
          <note key="36" pos="1008" pan="0" len="36" vol="100" />
          <note key="48" pos="1044" pan="0" len="36" vol="100" />
          <note key="48" pos="1080" pan="0" len="24" vol="100" />
          <note key="36" pos="1104" pan="0" len="48" vol="100" />
          <note key="48" pos="1152" pan="0" len="48" vol="100" />
          <note key="36" pos="1200" pan="0" len="36" vol="100" />
          <note key="48" pos="1236" pan="0" len="36" vol="100" />
          <note key="48" pos="1272" pan="0" len="24" vol="100" />
          <note key="36" pos="1296" pan="0" len="48" vol="100" />
          <note key="48" pos="1344" pan="0" len="48" vol="100" />
          <note key="36" pos="1392" pan="0" len="36" vol="100" />
          <note key="48" pos="1428" pan="0" len="36" vol="100" />
          <note key="48" pos="1464" pan="0" len="36" vol="100" />
          <note key="36" pos="1500" pan="0" len="36" vol="100" />
        </pattern>
        <pattern pos="195852" muted="0" steps="16" name="" type="1">
          <note key="48" pos="0" pan="0" len="48" vol="100" />
          <note key="36" pos="48" pan="0" len="36" vol="100" />
          <note key="48" pos="84" pan="0" len="36" vol="100" />
          <note key="48" pos="120" pan="0" len="24" vol="100" />
          <note key="36" pos="144" pan="0" len="48" vol="100" />
          <note key="48" pos="192" pan="0" len="48" vol="100" />
          <note key="36" pos="240" pan="0" len="36" vol="100" />
          <note key="48" pos="276" pan="0" len="36" vol="100" />
          <note key="48" pos="312" pan="0" len="24" vol="100" />
          <note key="36" pos="336" pan="0" len="48" vol="100" />
          <note key="48" pos="384" pan="0" len="48" vol="100" />
          <note key="36" pos="432" pan="0" len="36" vol="100" />
          <note key="48" pos="468" pan="0" len="36" vol="100" />
          <note key="48" pos="504" pan="0" len="24" vol="100" />
          <note key="36" pos="528" pan="0" len="48" vol="100" />
          <note key="48" pos="576" pan="0" len="48" vol="100" />
          <note key="36" pos="624" pan="0" len="36" vol="100" />
          <note key="48" pos="660" pan="0" len="36" vol="100" />
          <note key="48" pos="696" pan="0" len="36" vol="100" />
          <note key="36" pos="732" pan="0" len="36" vol="100" />
          <note key="48" pos="768" pan="0" len="48" vol="100" />
          <note key="36" pos="816" pan="0" len="36" vol="100" />
          <note key="48" pos="852" pan="0" len="36" vol="100" />
          <note key="48" pos="888" pan="0" len="24" vol="100" />
          <note key="36" pos="912" pan="0" len="48" vol="100" />
          <note key="48" pos="960" pan="0" len="48" vol="100" />
          <note key="36" pos="1008" pan="0" len="36" vol="100" />
          <note key="48" pos="1044" pan="0" len="36" vol="100" />
          <note key="48" pos="1080" pan="0" len="24" vol="100" />
          <note key="36" pos="1104" pan="0" len="48" vol="100" />
          <note key="48" pos="1152" pan="0" len="48" vol="100" />
          <note key="36" pos="1200" pan="0" len="36" vol="100" />
          <note key="48" pos="1236" pan="0" len="36" vol="100" />
          <note key="48" pos="1272" pan="0" len="24" vol="100" />
          <note key="36" pos="1296" pan="0" len="48" vol="100" />
          <note key="48" pos="1344" pan="0" len="48" vol="100" />
          <note key="36" pos="1392" pan="0" len="36" vol="100" />
          <note key="48" pos="1428" pan="0" len="36" vol="100" />
          <note key="48" pos="1464" pan="0" len="36" vol="100" />
          <note key="36" pos="1500" pan="0" len="36" vol="100" />
        </pattern>
        <pattern pos="197388" muted="0" steps="16" name="" type="1">
          <note key="48" pos="0" pan="0" len="48" vol="100" />
          <note key="36" pos="48" pan="0" len="36" vol="100" />
          <note key="48" pos="84" pan="0" len="36" vol="100" />
          <note key="48" pos="120" pan="0" len="24" vol="100" />
          <note key="36" pos="144" pan="0" len="48" vol="100" />
          <note key="48" pos="192" pan="0" len="48" vol="100" />
          <note key="36" pos="240" pan="0" len="36" vol="100" />
          <note key="48" pos="276" pan="0" len="36" vol="100" />
          <note key="48" pos="312" pan="0" len="24" vol="100" />
          <note key="36" pos="336" pan="0" len="48" vol="100" />
          <note key="48" pos="384" pan="0" len="48" vol="100" />
          <note key="36" pos="432" pan="0" len="36" vol="100" />
          <note key="48" pos="468" pan="0" len="36" vol="100" />
          <note key="48" pos="504" pan="0" len="24" vol="100" />
          <note key="36" pos="528" pan="0" len="48" vol="100" />
          <note key="48" pos="576" pan="0" len="48" vol="100" />
          <note key="36" pos="624" pan="0" len="36" vol="100" />
          <note key="48" pos="660" pan="0" len="36" vol="100" />
          <note key="48" pos="696" pan="0" len="36" vol="100" />
          <note key="36" pos="732" pan="0" len="36" vol="100" />
          <note key="48" pos="768" pan="0" len="48" vol="100" />
          <note key="36" pos="816" pan="0" len="36" vol="100" />
          <note key="48" pos="852" pan="0" len="36" vol="100" />
          <note key="48" pos="888" pan="0" len="24" vol="100" />
          <note key="36" pos="912" pan="0" len="48" vol="100" />
          <note key="48" pos="960" pan="0" len="48" vol="100" />
          <note key="36" pos="1008" pan="0" len="36" vol="100" />
          <note key="48" pos="1044" pan="0" len="36" vol="100" />
          <note key="48" pos="1080" pan="0" len="24" vol="100" />
          <note key="36" pos="1104" pan="0" len="48" vol="100" />
          <note key="48" pos="1152" pan="0" len="48" vol="100" />
          <note key="36" pos="1200" pan="0" len="36" vol="100" />
          <note key="48" pos="1236" pan="0" len="36" vol="100" />
          <note key="48" pos="1272" pan="0" len="24" vol="100" />
          <note key="36" pos="1296" pan="0" len="48" vol="100" />
          <note key="48" pos="1344" pan="0" len="48" vol="100" />
          <note key="36" pos="1392" pan="0" len="36" vol="100" />
          <note key="48" pos="1428" pan="0" len="36" vol="100" />
          <note key="48" pos="1464" pan="0" len="36" vol="100" />
          <note key="36" pos="1500" pan="0" len="36" vol="100" />
        </pattern>
      </track>
      <track solo="0" name="70 (Ch5)" type="0" muted="0">
        <instrumenttrack usemasterpitch="1" pitch="0.0" basenote="57" pan="0" pitchrange="12" vol="30">
          <eldata />
          <instrument name="tripleoscillator" />
        </instrumenttrack>
        <pattern pos="230412" muted="0" steps="16" name="" type="1">
          <note key="94" pos="384" pan="0" len="384" vol="50" />
          <note key="94" pos="1152" pan="0" len="336" vol="50" />
        </pattern>
        <pattern pos="215820" muted="0" steps="16" name="" type="1">
          <note key="91" pos="0" pan="0" len="384" vol="100" />
          <note key="86" pos="384" pan="0" len="384" vol="100" />
          <note key="75" pos="768" pan="0" len="288" vol="100" />
          <note key="82" pos="1056" pan="0" len="96" vol="100" />
          <note key="72" pos="1152" pan="0" len="384" vol="100" />
        </pattern>
        <pattern pos="217356" muted="0" steps="16" name="" type="1">
          <note key="91" pos="0" pan="0" len="384" vol="100" />
          <note key="86" pos="384" pan="0" len="384" vol="100" />
          <note key="75" pos="768" pan="0" len="288" vol="100" />
          <note key="82" pos="1056" pan="0" len="96" vol="100" />
          <note key="72" pos="1152" pan="0" len="384" vol="100" />
        </pattern>
        <pattern pos="224268" muted="0" steps="16" name="" type="1">
          <note key="94" pos="384" pan="0" len="384" vol="50" />
          <note key="94" pos="1152" pan="0" len="336" vol="50" />
        </pattern>
      </track>
      <track solo="0" name="70 (Ch6)" type="0" muted="0">
        <instrumenttrack usemasterpitch="1" pitch="0.0" basenote="57" pan="0" pitchrange="12" vol="30">
          <eldata />
          <instrument name="tripleoscillator" />
        </instrumenttrack>
        <pattern pos="230412" muted="0" steps="16" name="" type="1">
          <note key="85" pos="384" pan="0" len="384" vol="50" />
          <note key="85" pos="1152" pan="0" len="336" vol="50" />
        </pattern>
        <pattern pos="208140" muted="0" steps="16" name="" type="1">
          <note key="91" pos="0" pan="0" len="384" vol="100" />
          <note key="86" pos="384" pan="0" len="384" vol="100" />
          <note key="75" pos="768" pan="0" len="288" vol="100" />
          <note key="82" pos="1056" pan="0" len="96" vol="100" />
          <note key="72" pos="1152" pan="0" len="384" vol="100" />
        </pattern>
        <pattern pos="209676" muted="0" steps="16" name="" type="1">
          <note key="91" pos="0" pan="0" len="384" vol="100" />
          <note key="86" pos="384" pan="0" len="384" vol="100" />
          <note key="75" pos="768" pan="0" len="288" vol="100" />
          <note key="82" pos="1056" pan="0" len="96" vol="100" />
          <note key="72" pos="1152" pan="0" len="384" vol="100" />
        </pattern>
        <pattern pos="215820" muted="0" steps="16" name="" type="1">
          <note key="70" pos="0" pan="0" len="384" vol="100" />
          <note key="79" pos="384" pan="0" len="384" vol="100" />
          <note key="79" pos="768" pan="0" len="288" vol="100" />
          <note key="86" pos="1056" pan="0" len="96" vol="100" />
          <note key="75" pos="1152" pan="0" len="384" vol="100" />
        </pattern>
        <pattern pos="217356" muted="0" steps="16" name="" type="1">
          <note key="70" pos="0" pan="0" len="384" vol="100" />
          <note key="79" pos="384" pan="0" len="384" vol="100" />
          <note key="79" pos="768" pan="0" len="288" vol="100" />
          <note key="86" pos="1056" pan="0" len="96" vol="100" />
          <note key="75" pos="1152" pan="0" len="384" vol="100" />
        </pattern>
        <pattern pos="224268" muted="0" steps="16" name="" type="1">
          <note key="85" pos="384" pan="0" len="384" vol="50" />
          <note key="85" pos="1152" pan="0" len="336" vol="50" />
        </pattern>
      </track>
      <track solo="0" name="70 (Ch7)" type="0" muted="0">
        <instrumenttrack usemasterpitch="1" pitch="0.0" basenote="57" pan="0" pitchrange="12" vol="30">
          <eldata />
          <instrument name="tripleoscillator" />
        </instrumenttrack>
        <pattern pos="217356" muted="0" steps="16" name="" type="1">
          <note key="75" pos="0" pan="0" len="384" vol="100" />
          <note key="82" pos="384" pan="0" len="384" vol="100" />
          <note key="84" pos="768" pan="0" len="288" vol="100" />
          <note key="91" pos="1056" pan="0" len="96" vol="100" />
          <note key="80" pos="1152" pan="0" len="384" vol="100" />
        </pattern>
        <pattern pos="208140" muted="0" steps="16" name="" type="1">
          <note key="70" pos="0" pan="0" len="384" vol="100" />
          <note key="79" pos="384" pan="0" len="384" vol="100" />
          <note key="79" pos="768" pan="0" len="288" vol="100" />
          <note key="86" pos="1056" pan="0" len="96" vol="100" />
          <note key="75" pos="1152" pan="0" len="384" vol="100" />
        </pattern>
        <pattern pos="209676" muted="0" steps="16" name="" type="1">
          <note key="70" pos="0" pan="0" len="384" vol="100" />
          <note key="79" pos="384" pan="0" len="384" vol="100" />
          <note key="79" pos="768" pan="0" len="288" vol="100" />
          <note key="86" pos="1056" pan="0" len="96" vol="100" />
          <note key="75" pos="1152" pan="0" len="384" vol="100" />
        </pattern>
        <pattern pos="215820" muted="0" steps="16" name="" type="1">
          <note key="75" pos="0" pan="0" len="384" vol="100" />
          <note key="82" pos="384" pan="0" len="384" vol="100" />
          <note key="84" pos="768" pan="0" len="288" vol="100" />
          <note key="91" pos="1056" pan="0" len="96" vol="100" />
          <note key="80" pos="1152" pan="0" len="384" vol="100" />
        </pattern>
      </track>
      <track solo="0" name="70 (Ch8)" type="0" muted="0">
        <instrumenttrack usemasterpitch="1" pitch="0.0" basenote="57" pan="0" pitchrange="12" vol="30">
          <eldata />
          <instrument name="tripleoscillator" />
        </instrumenttrack>
        <pattern pos="258060" muted="0" steps="16" name="" type="1">
          <note key="86" pos="0" pan="0" len="576" vol="100" />
          <note key="84" pos="576" pan="0" len="288" vol="100" />
          <note key="88" pos="864" pan="0" len="288" vol="100" />
          <note key="82" pos="1152" pan="0" len="216" vol="100" />
        </pattern>
        <pattern pos="169740" muted="0" steps="16" name="" type="1">
          <note key="76" pos="0" pan="0" len="576" vol="100" />
        </pattern>
        <pattern pos="208140" muted="0" steps="16" name="" type="1">
          <note key="75" pos="0" pan="0" len="384" vol="100" />
          <note key="82" pos="384" pan="0" len="384" vol="100" />
          <note key="84" pos="768" pan="0" len="288" vol="100" />
          <note key="91" pos="1056" pan="0" len="96" vol="100" />
          <note key="80" pos="1152" pan="0" len="384" vol="100" />
        </pattern>
        <pattern pos="209676" muted="0" steps="16" name="" type="1">
          <note key="75" pos="0" pan="0" len="384" vol="100" />
          <note key="82" pos="384" pan="0" len="384" vol="100" />
          <note key="84" pos="768" pan="0" len="288" vol="100" />
          <note key="91" pos="1056" pan="0" len="96" vol="100" />
          <note key="80" pos="1152" pan="0" len="384" vol="100" />
        </pattern>
      </track>
      <track solo="0" name="70 (Ch9)" type="0" muted="0">
        <instrumenttrack usemasterpitch="1" pitch="0.0" basenote="57" pan="0" pitchrange="12" vol="30">
          <eldata />
          <instrument name="tripleoscillator" />
        </instrumenttrack>
        <pattern pos="169740" muted="0" steps="16" name="" type="1">
          <note key="80" pos="0" pan="0" len="480" vol="100" />
        </pattern>
        <pattern pos="26112" muted="0" steps="16" name="" type="1">
          <note key="82" pos="0" pan="0" len="384" vol="100" />
          <note key="80" pos="384" pan="0" len="192" vol="100" />
          <note key="82" pos="576" pan="0" len="120" vol="100" />
          <note key="80" pos="696" pan="0" len="72" vol="100" />
          <note key="82" pos="768" pan="0" len="384" vol="100" />
          <note key="80" pos="1152" pan="0" len="192" vol="100" />
          <note key="82" pos="1344" pan="0" len="120" vol="100" />
          <note key="82" pos="1464" pan="0" len="72" vol="100" />
        </pattern>
        <pattern pos="27648" muted="0" steps="16" name="" type="1">
          <note key="72" pos="0" pan="0" len="384" vol="100" />
          <note key="84" pos="384" pan="0" len="192" vol="100" />
          <note key="82" pos="576" pan="0" len="192" vol="100" />
          <note key="72" pos="768" pan="0" len="384" vol="100" />
          <note key="84" pos="1152" pan="0" len="192" vol="100" />
          <note key="82" pos="1344" pan="0" len="192" vol="100" />
        </pattern>
      </track>
      <track solo="0" name="70 (Ch10)" type="0" muted="0">
        <instrumenttrack usemasterpitch="1" pitch="0.0" basenote="57" pan="0" pitchrange="12" vol="30">
          <eldata />
          <instrument name="tripleoscillator" />
        </instrumenttrack>
        <pattern pos="27648" muted="0" steps="16" name="" type="1">
          <note key="75" pos="0" pan="0" len="384" vol="100" />
          <note key="87" pos="384" pan="0" len="192" vol="100" />
          <note key="86" pos="576" pan="0" len="192" vol="100" />
          <note key="75" pos="768" pan="0" len="384" vol="100" />
          <note key="87" pos="1152" pan="0" len="192" vol="100" />
          <note key="86" pos="1344" pan="0" len="192" vol="100" />
        </pattern>
        <pattern pos="21504" muted="0" steps="16" name="" type="1">
          <note key="87" pos="768" pan="0" len="192" vol="100" />
          <note key="89" pos="960" pan="0" len="96" vol="100" />
          <note key="87" pos="1056" pan="0" len="96" vol="100" />
          <note key="87" pos="1152" pan="0" len="192" vol="100" />
          <note key="87" pos="1344" pan="0" len="96" vol="100" />
          <note key="89" pos="1440" pan="0" len="96" vol="100" />
        </pattern>
        <pattern pos="23040" muted="0" steps="16" name="" type="1">
          <note key="87" pos="0" pan="0" len="192" vol="100" />
          <note key="89" pos="192" pan="0" len="96" vol="100" />
          <note key="87" pos="288" pan="0" len="96" vol="100" />
          <note key="87" pos="384" pan="0" len="192" vol="100" />
          <note key="87" pos="576" pan="0" len="96" vol="100" />
          <note key="89" pos="672" pan="0" len="96" vol="100" />
          <note key="87" pos="768" pan="0" len="192" vol="100" />
          <note key="89" pos="960" pan="0" len="96" vol="100" />
          <note key="87" pos="1056" pan="0" len="96" vol="100" />
          <note key="87" pos="1152" pan="0" len="192" vol="100" />
          <note key="87" pos="1344" pan="0" len="96" vol="100" />
          <note key="89" pos="1440" pan="0" len="96" vol="100" />
        </pattern>
        <pattern pos="26112" muted="0" steps="16" name="" type="1">
          <note key="85" pos="0" pan="0" len="384" vol="100" />
          <note key="85" pos="384" pan="0" len="192" vol="100" />
          <note key="87" pos="576" pan="0" len="120" vol="100" />
          <note key="87" pos="696" pan="0" len="72" vol="100" />
          <note key="85" pos="768" pan="0" len="384" vol="100" />
          <note key="85" pos="1152" pan="0" len="192" vol="100" />
          <note key="87" pos="1344" pan="0" len="120" vol="100" />
          <note key="87" pos="1464" pan="0" len="72" vol="100" />
        </pattern>
      </track>
      <track solo="0" name="70 (Ch11)" type="0" muted="0">
        <instrumenttrack usemasterpitch="1" pitch="0.0" basenote="57" pan="0" pitchrange="12" vol="30">
          <eldata />
          <instrument name="tripleoscillator" />
        </instrumenttrack>
        <pattern pos="27648" muted="0" steps="16" name="" type="1">
          <note key="80" pos="0" pan="0" len="384" vol="100" />
          <note key="91" pos="384" pan="0" len="192" vol="100" />
          <note key="89" pos="576" pan="0" len="192" vol="100" />
          <note key="80" pos="768" pan="0" len="384" vol="100" />
          <note key="91" pos="1152" pan="0" len="192" vol="100" />
          <note key="89" pos="1344" pan="0" len="192" vol="100" />
        </pattern>
        <pattern pos="21504" muted="0" steps="16" name="" type="1">
          <note key="78" pos="768" pan="0" len="192" vol="100" />
          <note key="80" pos="960" pan="0" len="96" vol="100" />
          <note key="78" pos="1056" pan="0" len="96" vol="100" />
          <note key="78" pos="1152" pan="0" len="192" vol="100" />
          <note key="80" pos="1344" pan="0" len="96" vol="100" />
          <note key="80" pos="1440" pan="0" len="96" vol="100" />
        </pattern>
        <pattern pos="23040" muted="0" steps="16" name="" type="1">
          <note key="78" pos="0" pan="0" len="192" vol="100" />
          <note key="80" pos="192" pan="0" len="96" vol="100" />
          <note key="78" pos="288" pan="0" len="96" vol="100" />
          <note key="78" pos="384" pan="0" len="192" vol="100" />
          <note key="80" pos="576" pan="0" len="96" vol="100" />
          <note key="80" pos="672" pan="0" len="96" vol="100" />
          <note key="78" pos="768" pan="0" len="192" vol="100" />
          <note key="80" pos="960" pan="0" len="96" vol="100" />
          <note key="78" pos="1056" pan="0" len="96" vol="100" />
          <note key="78" pos="1152" pan="0" len="192" vol="100" />
          <note key="80" pos="1344" pan="0" len="96" vol="100" />
          <note key="80" pos="1440" pan="0" len="96" vol="100" />
        </pattern>
        <pattern pos="26112" muted="0" steps="16" name="" type="1">
          <note key="89" pos="0" pan="0" len="384" vol="100" />
          <note key="89" pos="384" pan="0" len="192" vol="100" />
          <note key="91" pos="576" pan="0" len="120" vol="100" />
          <note key="89" pos="696" pan="0" len="72" vol="100" />
          <note key="89" pos="768" pan="0" len="384" vol="100" />
          <note key="89" pos="1152" pan="0" len="192" vol="100" />
          <note key="91" pos="1344" pan="0" len="120" vol="100" />
          <note key="89" pos="1464" pan="0" len="72" vol="100" />
        </pattern>
      </track>
      <track solo="0" name="70 (Ch12)" type="0" muted="0">
        <instrumenttrack usemasterpitch="1" pitch="0.0" basenote="57" pan="0" pitchrange="12" vol="30">
          <eldata />
          <instrument name="tripleoscillator" />
        </instrumenttrack>
        <pattern pos="27648" muted="0" steps="16" name="" type="1">
          <note key="99" pos="0" pan="0" len="288" vol="100" />
          <note key="101" pos="288" pan="0" len="96" vol="100" />
          <note key="103" pos="384" pan="0" len="192" vol="100" />
          <note key="101" pos="576" pan="0" len="192" vol="100" />
          <note key="99" pos="768" pan="0" len="288" vol="100" />
          <note key="101" pos="1056" pan="0" len="96" vol="100" />
          <note key="103" pos="1152" pan="0" len="192" vol="100" />
          <note key="101" pos="1344" pan="0" len="192" vol="100" />
        </pattern>
        <pattern pos="21504" muted="0" steps="16" name="" type="1">
          <note key="82" pos="768" pan="0" len="192" vol="100" />
          <note key="85" pos="960" pan="0" len="96" vol="100" />
          <note key="82" pos="1056" pan="0" len="96" vol="100" />
          <note key="83" pos="1152" pan="0" len="192" vol="100" />
          <note key="83" pos="1344" pan="0" len="96" vol="100" />
          <note key="85" pos="1440" pan="0" len="96" vol="100" />
        </pattern>
        <pattern pos="23040" muted="0" steps="16" name="" type="1">
          <note key="82" pos="0" pan="0" len="192" vol="100" />
          <note key="85" pos="192" pan="0" len="96" vol="100" />
          <note key="82" pos="288" pan="0" len="96" vol="100" />
          <note key="83" pos="384" pan="0" len="192" vol="100" />
          <note key="83" pos="576" pan="0" len="96" vol="100" />
          <note key="85" pos="672" pan="0" len="96" vol="100" />
          <note key="82" pos="768" pan="0" len="192" vol="100" />
          <note key="85" pos="960" pan="0" len="96" vol="100" />
          <note key="82" pos="1056" pan="0" len="96" vol="100" />
          <note key="83" pos="1152" pan="0" len="192" vol="100" />
          <note key="83" pos="1344" pan="0" len="96" vol="100" />
          <note key="85" pos="1440" pan="0" len="96" vol="100" />
        </pattern>
      </track>
      <track solo="0" name="71 (Ch1)" type="0" muted="0">
        <instrumenttrack usemasterpitch="1" pitch="0.0" basenote="57" pan="0" pitchrange="12" vol="30">
          <eldata />
          <instrument name="tripleoscillator" />
        </instrumenttrack>
        <pattern pos="105984" muted="0" steps="16" name="" type="1">
          <note key="50" pos="720" pan="0" len="816" vol="100" />
        </pattern>
        <pattern pos="101376" muted="0" steps="16" name="" type="1">
          <note key="50" pos="768" pan="0" len="768" vol="100" />
        </pattern>
        <pattern pos="102912" muted="0" steps="16" name="" type="1">
          <note key="50" pos="720" pan="0" len="816" vol="100" />
        </pattern>
        <pattern pos="104448" muted="0" steps="16" name="" type="1">
          <note key="50" pos="768" pan="0" len="768" vol="100" />
        </pattern>
      </track>
      <track solo="0" name="71 (Ch4)" type="0" muted="0">
        <instrumenttrack usemasterpitch="1" pitch="0.0" basenote="57" pan="0" pitchrange="12" vol="30">
          <eldata />
          <instrument name="tripleoscillator" />
        </instrumenttrack>
        <pattern pos="198924" muted="0" steps="16" name="" type="1">
          <note key="64" pos="0" pan="0" len="288" vol="100" />
          <note key="66" pos="288" pan="0" len="48" vol="100" />
          <note key="67" pos="336" pan="0" len="48" vol="100" />
          <note key="64" pos="384" pan="0" len="192" vol="100" />
          <note key="60" pos="576" pan="0" len="192" vol="100" />
          <note key="64" pos="768" pan="0" len="288" vol="100" />
          <note key="66" pos="1056" pan="0" len="48" vol="100" />
          <note key="67" pos="1104" pan="0" len="48" vol="100" />
          <note key="64" pos="1152" pan="0" len="192" vol="100" />
          <note key="60" pos="1344" pan="0" len="192" vol="100" />
        </pattern>
        <pattern pos="197388" muted="0" steps="16" name="" type="1">
          <note key="68" pos="0" pan="0" len="288" vol="100" />
          <note key="70" pos="288" pan="0" len="48" vol="100" />
          <note key="71" pos="336" pan="0" len="48" vol="100" />
          <note key="68" pos="384" pan="0" len="192" vol="100" />
          <note key="64" pos="576" pan="0" len="192" vol="100" />
          <note key="66" pos="768" pan="0" len="192" vol="100" />
          <note key="64" pos="960" pan="0" len="96" vol="100" />
          <note key="68" pos="1056" pan="0" len="96" vol="100" />
          <note key="59" pos="1152" pan="0" len="192" vol="100" />
          <note key="66" pos="1344" pan="0" len="192" vol="100" />
        </pattern>
      </track>
      <track solo="0" name="71 (Ch6)" type="0" muted="0">
        <instrumenttrack usemasterpitch="1" pitch="0.0" basenote="57" pan="0" pitchrange="12" vol="30">
          <eldata />
          <instrument name="tripleoscillator" />
        </instrumenttrack>
        <pattern pos="258060" muted="0" steps="16" name="" type="1">
          <note key="55" pos="0" pan="0" len="408" vol="100" />
          <note key="58" pos="408" pan="0" len="168" vol="100" />
          <note key="62" pos="576" pan="0" len="288" vol="100" />
          <note key="65" pos="864" pan="0" len="288" vol="100" />
          <note key="55" pos="1152" pan="0" len="288" vol="100" />
          <note key="53" pos="1440" pan="0" len="288" vol="100" />
          <note key="60" pos="1728" pan="0" len="576" vol="100" />
        </pattern>
        <pattern pos="188172" muted="0" steps="16" name="" type="1">
          <note key="64" pos="0" pan="0" len="192" vol="100" />
          <note key="62" pos="192" pan="0" len="192" vol="100" />
          <note key="61" pos="384" pan="0" len="192" vol="100" />
          <note key="66" pos="576" pan="0" len="96" vol="100" />
          <note key="64" pos="672" pan="0" len="96" vol="100" />
          <note key="67" pos="768" pan="0" len="192" vol="100" />
          <note key="69" pos="960" pan="0" len="192" vol="100" />
          <note key="62" pos="1152" pan="0" len="192" vol="100" />
          <note key="66" pos="1344" pan="0" len="96" vol="100" />
          <note key="64" pos="1440" pan="0" len="96" vol="100" />
        </pattern>
      </track>
      <track solo="0" name="71 (Ch10)" type="0" muted="0">
        <instrumenttrack usemasterpitch="1" pitch="0.0" basenote="57" pan="0" pitchrange="12" vol="30">
          <eldata />
          <instrument name="tripleoscillator" />
        </instrumenttrack>
        <pattern pos="24576" muted="0" steps="16" name="" type="1">
          <note key="53" pos="0" pan="0" len="192" vol="100" />
          <note key="53" pos="192" pan="0" len="120" vol="100" />
          <note key="53" pos="312" pan="0" len="72" vol="100" />
          <note key="49" pos="384" pan="0" len="288" vol="100" />
          <note key="51" pos="672" pan="0" len="96" vol="100" />
          <note key="53" pos="768" pan="0" len="192" vol="100" />
          <note key="53" pos="960" pan="0" len="120" vol="100" />
          <note key="53" pos="1080" pan="0" len="72" vol="100" />
          <note key="49" pos="1152" pan="0" len="192" vol="100" />
          <note key="51" pos="1344" pan="0" len="96" vol="100" />
          <note key="51" pos="1440" pan="0" len="96" vol="100" />
        </pattern>
      </track>
      <track solo="0" name="71 (Ch11)" type="0" muted="0">
        <instrumenttrack usemasterpitch="1" pitch="0.0" basenote="57" pan="0" pitchrange="12" vol="30">
          <eldata />
          <instrument name="tripleoscillator" />
        </instrumenttrack>
        <pattern pos="24576" muted="0" steps="16" name="" type="1">
          <note key="56" pos="0" pan="0" len="192" vol="100" />
          <note key="58" pos="192" pan="0" len="120" vol="100" />
          <note key="56" pos="312" pan="0" len="72" vol="100" />
          <note key="53" pos="384" pan="0" len="288" vol="100" />
          <note key="55" pos="672" pan="0" len="96" vol="100" />
          <note key="56" pos="768" pan="0" len="192" vol="100" />
          <note key="58" pos="960" pan="0" len="120" vol="100" />
          <note key="56" pos="1080" pan="0" len="72" vol="100" />
          <note key="53" pos="1152" pan="0" len="192" vol="100" />
          <note key="56" pos="1344" pan="0" len="96" vol="100" />
          <note key="55" pos="1440" pan="0" len="96" vol="100" />
        </pattern>
      </track>
      <track solo="0" name="71 (Ch12)" type="0" muted="0">
        <instrumenttrack usemasterpitch="1" pitch="0.0" basenote="57" pan="0" pitchrange="12" vol="30">
          <eldata />
          <instrument name="tripleoscillator" />
        </instrumenttrack>
        <pattern pos="105984" muted="0" steps="16" name="" type="1">
          <note key="50" pos="0" pan="0" len="768" vol="100" />
        </pattern>
        <pattern pos="24576" muted="0" steps="16" name="" type="1">
          <note key="60" pos="0" pan="0" len="192" vol="100" />
          <note key="62" pos="192" pan="0" len="120" vol="100" />
          <note key="63" pos="312" pan="0" len="72" vol="100" />
          <note key="56" pos="384" pan="0" len="288" vol="100" />
          <note key="58" pos="672" pan="0" len="96" vol="100" />
          <note key="60" pos="768" pan="0" len="192" vol="100" />
          <note key="62" pos="960" pan="0" len="120" vol="100" />
          <note key="63" pos="1080" pan="0" len="72" vol="100" />
          <note key="56" pos="1152" pan="0" len="192" vol="100" />
          <note key="60" pos="1344" pan="0" len="96" vol="100" />
          <note key="58" pos="1440" pan="0" len="96" vol="100" />
        </pattern>
        <pattern pos="101376" muted="0" steps="16" name="" type="1">
          <note key="50" pos="0" pan="0" len="816" vol="100" />
        </pattern>
        <pattern pos="102912" muted="0" steps="16" name="" type="1">
          <note key="50" pos="0" pan="0" len="768" vol="100" />
        </pattern>
        <pattern pos="104448" muted="0" steps="16" name="" type="1">
          <note key="50" pos="0" pan="0" len="816" vol="100" />
        </pattern>
      </track>
      <track solo="0" name="72 (Ch5)" type="0" muted="0">
        <instrumenttrack usemasterpitch="1" pitch="0.0" basenote="57" pan="0" pitchrange="12" vol="30">
          <eldata />
          <instrument name="tripleoscillator" />
        </instrumenttrack>
        <pattern pos="110592" muted="0" steps="16" name="" type="1">
          <note key="26" pos="0" pan="0" len="1536" vol="100" />
          <note key="26" pos="1536" pan="0" len="1536" vol="100" />
        </pattern>
        <pattern pos="92160" muted="0" steps="16" name="" type="1">
          <note key="26" pos="0" pan="0" len="1536" vol="100" />
          <note key="26" pos="1536" pan="0" len="1536" vol="100" />
        </pattern>
      </track>
      <track solo="0" name="72 (Ch15)" type="0" muted="0">
        <instrumenttrack usemasterpitch="1" pitch="0.0" basenote="57" pan="0" pitchrange="12" vol="30">
          <eldata />
          <instrument name="tripleoscillator" />
        </instrumenttrack>
        <pattern pos="95232" muted="0" steps="16" name="" type="1">
          <note key="26" pos="0" pan="0" len="2304" vol="100" />
        </pattern>
      </track>
      <track solo="0" name="72 (Ch17)" type="0" muted="0">
        <instrumenttrack usemasterpitch="1" pitch="0.0" basenote="57" pan="0" pitchrange="12" vol="30">
          <eldata />
          <instrument name="tripleoscillator" />
        </instrumenttrack>
        <pattern pos="27648" muted="0" steps="16" name="" type="1">
          <note key="68" pos="0" pan="0" len="96" vol="100" />
          <note key="70" pos="96" pan="0" len="96" vol="100" />
          <note key="72" pos="192" pan="0" len="96" vol="100" />
          <note key="67" pos="288" pan="0" len="96" vol="100" />
          <note key="72" pos="384" pan="0" len="96" vol="100" />
          <note key="63" pos="480" pan="0" len="96" vol="100" />
          <note key="67" pos="576" pan="0" len="96" vol="100" />
          <note key="65" pos="672" pan="0" len="96" vol="100" />
          <note key="68" pos="768" pan="0" len="96" vol="100" />
          <note key="70" pos="864" pan="0" len="96" vol="100" />
          <note key="72" pos="960" pan="0" len="96" vol="100" />
          <note key="67" pos="1056" pan="0" len="96" vol="100" />
          <note key="72" pos="1152" pan="0" len="96" vol="100" />
          <note key="63" pos="1248" pan="0" len="96" vol="100" />
          <note key="67" pos="1344" pan="0" len="96" vol="100" />
          <note key="65" pos="1440" pan="0" len="96" vol="100" />
        </pattern>
        <pattern pos="18432" muted="0" steps="16" name="" type="1">
          <note key="75" pos="0" pan="0" len="192" vol="100" />
          <note key="77" pos="192" pan="0" len="192" vol="100" />
          <note key="70" pos="384" pan="0" len="192" vol="100" />
          <note key="74" pos="576" pan="0" len="192" vol="100" />
          <note key="75" pos="768" pan="0" len="192" vol="100" />
          <note key="77" pos="960" pan="0" len="192" vol="100" />
          <note key="70" pos="1152" pan="0" len="192" vol="100" />
          <note key="74" pos="1344" pan="0" len="192" vol="100" />
        </pattern>
        <pattern pos="19968" muted="0" steps="16" name="" type="1">
          <note key="75" pos="0" pan="0" len="192" vol="100" />
          <note key="79" pos="192" pan="0" len="192" vol="100" />
          <note key="79" pos="384" pan="0" len="96" vol="100" />
          <note key="82" pos="480" pan="0" len="96" vol="100" />
          <note key="84" pos="576" pan="0" len="192" vol="100" />
          <note key="75" pos="768" pan="0" len="192" vol="100" />
          <note key="79" pos="960" pan="0" len="192" vol="100" />
          <note key="79" pos="1152" pan="0" len="96" vol="100" />
          <note key="82" pos="1248" pan="0" len="96" vol="100" />
          <note key="84" pos="1344" pan="0" len="192" vol="100" />
        </pattern>
        <pattern pos="21504" muted="0" steps="16" name="" type="1">
          <note key="82" pos="0" pan="0" len="192" vol="100" />
          <note key="78" pos="192" pan="0" len="192" vol="100" />
          <note key="78" pos="384" pan="0" len="192" vol="100" />
          <note key="87" pos="576" pan="0" len="96" vol="100" />
          <note key="82" pos="672" pan="0" len="96" vol="100" />
          <note key="82" pos="768" pan="0" len="192" vol="100" />
          <note key="78" pos="960" pan="0" len="192" vol="100" />
          <note key="78" pos="1152" pan="0" len="192" vol="100" />
          <note key="87" pos="1344" pan="0" len="96" vol="100" />
          <note key="82" pos="1440" pan="0" len="96" vol="100" />
        </pattern>
        <pattern pos="23040" muted="0" steps="16" name="" type="1">
          <note key="82" pos="0" pan="0" len="192" vol="100" />
          <note key="78" pos="192" pan="0" len="192" vol="100" />
          <note key="78" pos="384" pan="0" len="192" vol="100" />
          <note key="87" pos="576" pan="0" len="96" vol="100" />
          <note key="82" pos="672" pan="0" len="96" vol="100" />
          <note key="82" pos="768" pan="0" len="192" vol="100" />
          <note key="78" pos="960" pan="0" len="192" vol="100" />
          <note key="78" pos="1152" pan="0" len="192" vol="100" />
          <note key="87" pos="1344" pan="0" len="96" vol="100" />
          <note key="82" pos="1440" pan="0" len="96" vol="100" />
        </pattern>
        <pattern pos="24576" muted="0" steps="16" name="" type="1">
          <note key="84" pos="0" pan="0" len="192" vol="100" />
          <note key="80" pos="192" pan="0" len="192" vol="100" />
          <note key="80" pos="384" pan="0" len="192" vol="100" />
          <note key="89" pos="576" pan="0" len="96" vol="100" />
          <note key="84" pos="672" pan="0" len="96" vol="100" />
          <note key="84" pos="768" pan="0" len="192" vol="100" />
          <note key="80" pos="960" pan="0" len="192" vol="100" />
          <note key="80" pos="1152" pan="0" len="192" vol="100" />
          <note key="89" pos="1344" pan="0" len="96" vol="100" />
          <note key="84" pos="1440" pan="0" len="96" vol="100" />
        </pattern>
        <pattern pos="26112" muted="0" steps="16" name="" type="1">
          <note key="82" pos="0" pan="0" len="96" vol="100" />
          <note key="82" pos="96" pan="0" len="96" vol="100" />
          <note key="82" pos="192" pan="0" len="96" vol="100" />
          <note key="82" pos="288" pan="0" len="96" vol="100" />
          <note key="80" pos="384" pan="0" len="192" vol="100" />
          <note key="80" pos="576" pan="0" len="120" vol="100" />
          <note key="80" pos="696" pan="0" len="72" vol="100" />
          <note key="82" pos="768" pan="0" len="96" vol="100" />
          <note key="82" pos="864" pan="0" len="96" vol="100" />
          <note key="82" pos="960" pan="0" len="96" vol="100" />
          <note key="82" pos="1056" pan="0" len="96" vol="100" />
          <note key="80" pos="1152" pan="0" len="192" vol="100" />
          <note key="80" pos="1344" pan="0" len="120" vol="100" />
          <note key="80" pos="1464" pan="0" len="72" vol="100" />
        </pattern>
      </track>
      <track solo="0" name="72 (Ch18)" type="0" muted="0">
        <instrumenttrack usemasterpitch="1" pitch="0.0" basenote="57" pan="0" pitchrange="12" vol="30">
          <eldata />
          <instrument name="tripleoscillator" />
        </instrumenttrack>
        <pattern pos="27648" muted="0" steps="16" name="" type="1">
          <note key="79" pos="0" pan="0" len="96" vol="100" />
          <note key="74" pos="96" pan="0" len="96" vol="100" />
          <note key="79" pos="192" pan="0" len="96" vol="100" />
          <note key="72" pos="288" pan="0" len="96" vol="100" />
          <note key="79" pos="384" pan="0" len="96" vol="100" />
          <note key="77" pos="480" pan="0" len="96" vol="100" />
          <note key="82" pos="576" pan="0" len="96" vol="100" />
          <note key="74" pos="672" pan="0" len="96" vol="100" />
          <note key="75" pos="768" pan="0" len="96" vol="100" />
          <note key="74" pos="864" pan="0" len="96" vol="100" />
          <note key="79" pos="960" pan="0" len="96" vol="100" />
          <note key="72" pos="1056" pan="0" len="96" vol="100" />
          <note key="79" pos="1152" pan="0" len="96" vol="100" />
          <note key="77" pos="1248" pan="0" len="96" vol="100" />
          <note key="82" pos="1344" pan="0" len="96" vol="100" />
          <note key="74" pos="1440" pan="0" len="96" vol="100" />
        </pattern>
        <pattern pos="18432" muted="0" steps="16" name="" type="1">
          <note key="79" pos="0" pan="0" len="96" vol="100" />
          <note key="81" pos="96" pan="0" len="96" vol="100" />
          <note key="82" pos="192" pan="0" len="96" vol="100" />
          <note key="81" pos="288" pan="0" len="96" vol="100" />
          <note key="79" pos="384" pan="0" len="96" vol="100" />
          <note key="81" pos="480" pan="0" len="96" vol="100" />
          <note key="82" pos="576" pan="0" len="96" vol="100" />
          <note key="81" pos="672" pan="0" len="96" vol="100" />
          <note key="79" pos="768" pan="0" len="96" vol="100" />
          <note key="81" pos="864" pan="0" len="96" vol="100" />
          <note key="82" pos="960" pan="0" len="96" vol="100" />
          <note key="81" pos="1056" pan="0" len="96" vol="100" />
          <note key="79" pos="1152" pan="0" len="96" vol="100" />
          <note key="81" pos="1248" pan="0" len="96" vol="100" />
          <note key="82" pos="1344" pan="0" len="96" vol="100" />
          <note key="81" pos="1440" pan="0" len="96" vol="100" />
        </pattern>
        <pattern pos="19968" muted="0" steps="16" name="" type="1">
          <note key="81" pos="0" pan="0" len="96" vol="100" />
          <note key="82" pos="96" pan="0" len="96" vol="100" />
          <note key="82" pos="192" pan="0" len="96" vol="100" />
          <note key="75" pos="288" pan="0" len="96" vol="100" />
          <note key="84" pos="384" pan="0" len="192" vol="100" />
          <note key="79" pos="576" pan="0" len="96" vol="100" />
          <note key="82" pos="672" pan="0" len="96" vol="100" />
          <note key="81" pos="768" pan="0" len="96" vol="100" />
          <note key="82" pos="864" pan="0" len="96" vol="100" />
          <note key="82" pos="960" pan="0" len="96" vol="100" />
          <note key="75" pos="1056" pan="0" len="96" vol="100" />
          <note key="84" pos="1152" pan="0" len="192" vol="100" />
          <note key="79" pos="1344" pan="0" len="96" vol="100" />
          <note key="82" pos="1440" pan="0" len="96" vol="100" />
        </pattern>
        <pattern pos="21504" muted="0" steps="16" name="" type="1">
          <note key="87" pos="0" pan="0" len="96" vol="100" />
          <note key="85" pos="96" pan="0" len="96" vol="100" />
          <note key="82" pos="192" pan="0" len="96" vol="100" />
          <note key="85" pos="288" pan="0" len="96" vol="100" />
          <note key="83" pos="384" pan="0" len="192" vol="100" />
          <note key="80" pos="576" pan="0" len="96" vol="100" />
          <note key="85" pos="672" pan="0" len="96" vol="100" />
          <note key="87" pos="768" pan="0" len="96" vol="100" />
          <note key="85" pos="864" pan="0" len="96" vol="100" />
          <note key="82" pos="960" pan="0" len="96" vol="100" />
          <note key="85" pos="1056" pan="0" len="96" vol="100" />
          <note key="83" pos="1152" pan="0" len="192" vol="100" />
          <note key="80" pos="1344" pan="0" len="96" vol="100" />
          <note key="85" pos="1440" pan="0" len="96" vol="100" />
        </pattern>
        <pattern pos="23040" muted="0" steps="16" name="" type="1">
          <note key="87" pos="0" pan="0" len="96" vol="100" />
          <note key="85" pos="96" pan="0" len="96" vol="100" />
          <note key="82" pos="192" pan="0" len="96" vol="100" />
          <note key="85" pos="288" pan="0" len="96" vol="100" />
          <note key="83" pos="384" pan="0" len="192" vol="100" />
          <note key="80" pos="576" pan="0" len="96" vol="100" />
          <note key="85" pos="672" pan="0" len="96" vol="100" />
          <note key="87" pos="768" pan="0" len="96" vol="100" />
          <note key="85" pos="864" pan="0" len="96" vol="100" />
          <note key="82" pos="960" pan="0" len="96" vol="100" />
          <note key="85" pos="1056" pan="0" len="96" vol="100" />
          <note key="83" pos="1152" pan="0" len="192" vol="100" />
          <note key="80" pos="1344" pan="0" len="96" vol="100" />
          <note key="85" pos="1440" pan="0" len="96" vol="100" />
        </pattern>
        <pattern pos="24576" muted="0" steps="16" name="" type="1">
          <note key="89" pos="0" pan="0" len="96" vol="100" />
          <note key="87" pos="96" pan="0" len="96" vol="100" />
          <note key="84" pos="192" pan="0" len="96" vol="100" />
          <note key="87" pos="288" pan="0" len="96" vol="100" />
          <note key="85" pos="384" pan="0" len="192" vol="100" />
          <note key="82" pos="576" pan="0" len="96" vol="100" />
          <note key="87" pos="672" pan="0" len="96" vol="100" />
          <note key="89" pos="768" pan="0" len="96" vol="100" />
          <note key="87" pos="864" pan="0" len="96" vol="100" />
          <note key="84" pos="960" pan="0" len="96" vol="100" />
          <note key="87" pos="1056" pan="0" len="96" vol="100" />
          <note key="85" pos="1152" pan="0" len="192" vol="100" />
          <note key="82" pos="1344" pan="0" len="96" vol="100" />
          <note key="87" pos="1440" pan="0" len="96" vol="100" />
        </pattern>
        <pattern pos="26112" muted="0" steps="16" name="" type="1">
          <note key="85" pos="0" pan="0" len="96" vol="100" />
          <note key="85" pos="96" pan="0" len="96" vol="100" />
          <note key="85" pos="192" pan="0" len="96" vol="100" />
          <note key="85" pos="288" pan="0" len="96" vol="100" />
          <note key="85" pos="384" pan="0" len="192" vol="100" />
          <note key="87" pos="576" pan="0" len="120" vol="100" />
          <note key="85" pos="696" pan="0" len="72" vol="100" />
          <note key="85" pos="768" pan="0" len="96" vol="100" />
          <note key="85" pos="864" pan="0" len="96" vol="100" />
          <note key="85" pos="960" pan="0" len="96" vol="100" />
          <note key="85" pos="1056" pan="0" len="96" vol="100" />
          <note key="85" pos="1152" pan="0" len="192" vol="100" />
          <note key="87" pos="1344" pan="0" len="120" vol="100" />
          <note key="85" pos="1464" pan="0" len="72" vol="100" />
        </pattern>
      </track>
      <track solo="0" name="73 (Ch8)" type="0" muted="0">
        <instrumenttrack usemasterpitch="1" pitch="0.0" basenote="57" pan="0" pitchrange="12" vol="30">
          <eldata />
          <instrument name="tripleoscillator" />
        </instrumenttrack>
        <pattern pos="236556" muted="0" steps="16" name="" type="1">
          <note key="72" pos="0" pan="0" len="84" vol="100" />
        </pattern>
        <pattern pos="145932" muted="0" steps="16" name="" type="1">
          <note key="49" pos="0" pan="0" len="1536" vol="47" />
        </pattern>
        <pattern pos="153612" muted="0" steps="16" name="" type="1">
          <note key="49" pos="0" pan="0" len="1536" vol="47" />
        </pattern>
      </track>
      <track solo="0" name="73 (Ch10)" type="0" muted="0">
        <instrumenttrack usemasterpitch="1" pitch="0.0" basenote="57" pan="0" pitchrange="12" vol="30">
          <eldata />
          <instrument name="tripleoscillator" />
        </instrumenttrack>
        <pattern pos="203532" muted="0" steps="16" name="" type="1">
          <note key="50" pos="0" pan="0" len="1104" vol="69" />
        </pattern>
        <pattern pos="155148" muted="0" steps="16" name="" type="1">
          <note key="49" pos="0" pan="0" len="1536" vol="47" />
        </pattern>
      </track>
      <track solo="0" name="73 (Ch11)" type="0" muted="0">
        <instrumenttrack usemasterpitch="1" pitch="0.0" basenote="57" pan="0" pitchrange="12" vol="30">
          <eldata />
          <instrument name="tripleoscillator" />
        </instrumenttrack>
        <pattern pos="203532" muted="0" steps="16" name="" type="1">
          <note key="55" pos="48" pan="0" len="1260" vol="50" />
        </pattern>
      </track>
      <track solo="0" name="73 (Ch13)" type="0" muted="0">
        <instrumenttrack usemasterpitch="1" pitch="0.0" basenote="57" pan="0" pitchrange="12" vol="30">
          <eldata />
          <instrument name="tripleoscillator" />
        </instrumenttrack>
        <pattern pos="220428" muted="0" steps="16" name="" type="1">
          <note key="50" pos="0" pan="0" len="192" vol="69" />
        </pattern>
        <pattern pos="160524" muted="0" steps="16" name="" type="1">
          <note key="24" pos="0" pan="0" len="1536" vol="31" />
        </pattern>
        <pattern pos="211212" muted="0" steps="16" name="" type="1">
          <note key="50" pos="0" pan="0" len="984" vol="69" />
        </pattern>
        <pattern pos="218892" muted="0" steps="16" name="" type="1">
          <note key="50" pos="0" pan="0" len="984" vol="69" />
        </pattern>
      </track>
      <track solo="0" name="73 (Ch14)" type="0" muted="0">
        <instrumenttrack usemasterpitch="1" pitch="0.0" basenote="57" pan="0" pitchrange="12" vol="30">
          <eldata />
          <instrument name="tripleoscillator" />
        </instrumenttrack>
        <pattern pos="220428" muted="0" steps="16" name="" type="1">
          <note key="55" pos="48" pan="0" len="192" vol="50" />
        </pattern>
        <pattern pos="211212" muted="0" steps="16" name="" type="1">
          <note key="55" pos="48" pan="0" len="1128" vol="50" />
        </pattern>
        <pattern pos="218892" muted="0" steps="16" name="" type="1">
          <note key="55" pos="48" pan="0" len="1128" vol="50" />
        </pattern>
      </track>
      <track solo="0" name="74 (Ch3)" type="0" muted="0">
        <instrumenttrack usemasterpitch="1" pitch="0.0" basenote="57" pan="0" pitchrange="12" vol="30">
          <eldata />
          <instrument name="tripleoscillator" />
        </instrumenttrack>
        <pattern pos="169740" muted="0" steps="16" name="" type="1">
          <note key="53" pos="576" pan="0" len="192" vol="100" />
          <note key="55" pos="768" pan="0" len="192" vol="100" />
          <note key="56" pos="960" pan="0" len="192" vol="100" />
          <note key="58" pos="1152" pan="0" len="192" vol="100" />
          <note key="60" pos="1344" pan="0" len="192" vol="100" />
          <note key="56" pos="1728" pan="0" len="192" vol="100" />
          <note key="58" pos="1920" pan="0" len="192" vol="100" />
          <note key="60" pos="2112" pan="0" len="96" vol="100" />
        </pattern>
      </track>
      <track solo="0" name="74 (Ch4)" type="0" muted="0">
        <instrumenttrack usemasterpitch="1" pitch="0.0" basenote="57" pan="0" pitchrange="12" vol="30">
          <eldata />
          <instrument name="tripleoscillator" />
        </instrumenttrack>
        <pattern pos="276444" muted="0" steps="16" name="" type="1">
          <note key="52" pos="0" pan="0" len="288" vol="100" />
          <note key="61" pos="288" pan="0" len="288" vol="100" />
          <note key="52" pos="576" pan="0" len="288" vol="100" />
          <note key="61" pos="864" pan="0" len="288" vol="100" />
        </pattern>
        <pattern pos="211212" muted="0" steps="16" name="" type="1">
          <note key="60" pos="0" pan="0" len="768" vol="100" />
        </pattern>
        <pattern pos="218892" muted="0" steps="16" name="" type="1">
          <note key="60" pos="0" pan="0" len="768" vol="100" />
        </pattern>
        <pattern pos="220428" muted="0" steps="16" name="" type="1">
          <note key="60" pos="0" pan="0" len="384" vol="100" />
        </pattern>
        <pattern pos="271692" muted="0" steps="16" name="" type="1">
          <note key="52" pos="0" pan="0" len="288" vol="100" />
          <note key="61" pos="288" pan="0" len="288" vol="100" />
          <note key="52" pos="576" pan="0" len="288" vol="100" />
          <note key="61" pos="864" pan="0" len="288" vol="100" />
        </pattern>
      </track>
      <track solo="0" name="74 (Ch5)" type="0" muted="0">
        <instrumenttrack usemasterpitch="1" pitch="0.0" basenote="57" pan="0" pitchrange="12" vol="30">
          <eldata />
          <instrument name="tripleoscillator" />
        </instrumenttrack>
        <pattern pos="236556" muted="0" steps="16" name="" type="1">
          <note key="58" pos="384" pan="0" len="288" vol="100" />
        </pattern>
        <pattern pos="203532" muted="0" steps="16" name="" type="1">
          <note key="60" pos="1200" pan="0" len="336" vol="100" />
        </pattern>
        <pattern pos="205068" muted="0" steps="16" name="" type="1">
          <note key="60" pos="48" pan="0" len="384" vol="100" />
          <note key="55" pos="432" pan="0" len="384" vol="100" />
          <note key="53" pos="816" pan="0" len="336" vol="100" />
        </pattern>
        <pattern pos="211212" muted="0" steps="16" name="" type="1">
          <note key="60" pos="48" pan="0" len="336" vol="100" />
          <note key="60" pos="432" pan="0" len="336" vol="100" />
          <note key="60" pos="816" pan="0" len="336" vol="100" />
          <note key="60" pos="1200" pan="0" len="336" vol="100" />
        </pattern>
        <pattern pos="212748" muted="0" steps="16" name="" type="1">
          <note key="60" pos="48" pan="0" len="384" vol="100" />
          <note key="55" pos="432" pan="0" len="384" vol="100" />
          <note key="53" pos="816" pan="0" len="336" vol="100" />
        </pattern>
        <pattern pos="214284" muted="0" steps="16" name="" type="1">
          <note key="60" pos="48" pan="0" len="384" vol="100" />
          <note key="55" pos="432" pan="0" len="384" vol="100" />
          <note key="53" pos="816" pan="0" len="336" vol="100" />
        </pattern>
        <pattern pos="218892" muted="0" steps="16" name="" type="1">
          <note key="60" pos="48" pan="0" len="336" vol="100" />
          <note key="60" pos="432" pan="0" len="336" vol="100" />
          <note key="60" pos="816" pan="0" len="336" vol="100" />
          <note key="60" pos="1200" pan="0" len="336" vol="100" />
        </pattern>
        <pattern pos="220428" muted="0" steps="16" name="" type="1">
          <note key="60" pos="48" pan="0" len="336" vol="100" />
        </pattern>
      </track>
      <track solo="0" name="74 (Ch7)" type="0" muted="0">
        <instrumenttrack usemasterpitch="1" pitch="0.0" basenote="57" pan="0" pitchrange="12" vol="30">
          <eldata />
          <instrument name="tripleoscillator" />
        </instrumenttrack>
        <pattern pos="236556" muted="0" steps="16" name="" type="1">
          <note key="58" pos="0" pan="0" len="192" vol="100" />
        </pattern>
        <pattern pos="220428" muted="0" steps="16" name="" type="1">
          <note key="55" pos="384" pan="0" len="384" vol="100" />
        </pattern>
        <pattern pos="224268" muted="0" steps="16" name="" type="1">
          <note key="58" pos="0" pan="0" len="240" vol="100" />
          <note key="58" pos="384" pan="0" len="384" vol="100" />
          <note key="58" pos="768" pan="0" len="240" vol="100" />
          <note key="58" pos="1152" pan="0" len="384" vol="100" />
        </pattern>
        <pattern pos="230412" muted="0" steps="16" name="" type="1">
          <note key="58" pos="0" pan="0" len="240" vol="100" />
          <note key="58" pos="384" pan="0" len="384" vol="100" />
          <note key="58" pos="768" pan="0" len="240" vol="100" />
          <note key="58" pos="1152" pan="0" len="384" vol="100" />
        </pattern>
      </track>
      <track solo="0" name="74 (Ch8)" type="0" muted="0">
        <instrumenttrack usemasterpitch="1" pitch="0.0" basenote="57" pan="0" pitchrange="12" vol="30">
          <eldata />
          <instrument name="tripleoscillator" />
        </instrumenttrack>
        <pattern pos="251148" muted="0" steps="16" name="" type="1">
          <note key="55" pos="0" pan="0" len="864" vol="100" />
        </pattern>
      </track>
      <track solo="0" name="74 (Ch9)" type="0" muted="0">
        <instrumenttrack usemasterpitch="1" pitch="0.0" basenote="57" pan="0" pitchrange="12" vol="30">
          <eldata />
          <instrument name="tripleoscillator" />
        </instrumenttrack>
        <pattern pos="209676" muted="0" steps="16" name="" type="1">
          <note key="63" pos="0" pan="0" len="288" vol="100" />
          <note key="65" pos="288" pan="0" len="96" vol="100" />
          <note key="67" pos="384" pan="0" len="384" vol="100" />
          <note key="60" pos="768" pan="0" len="384" vol="100" />
          <note key="56" pos="1152" pan="0" len="240" vol="100" />
          <note key="58" pos="1392" pan="0" len="144" vol="100" />
        </pattern>
        <pattern pos="46080" muted="0" steps="16" name="" type="1">
          <note key="55" pos="0" pan="0" len="1536" vol="100" />
        </pattern>
        <pattern pos="54528" muted="0" steps="16" name="" type="1">
          <note key="55" pos="0" pan="0" len="768" vol="100" />
        </pattern>
        <pattern pos="208140" muted="0" steps="16" name="" type="1">
          <note key="63" pos="0" pan="0" len="288" vol="100" />
          <note key="65" pos="288" pan="0" len="96" vol="100" />
          <note key="67" pos="384" pan="0" len="384" vol="100" />
          <note key="60" pos="768" pan="0" len="384" vol="100" />
          <note key="56" pos="1152" pan="0" len="240" vol="100" />
          <note key="58" pos="1392" pan="0" len="144" vol="100" />
        </pattern>
      </track>
      <track solo="0" name="74 (Ch10)" type="0" muted="0">
        <instrumenttrack usemasterpitch="1" pitch="0.0" basenote="57" pan="0" pitchrange="12" vol="30">
          <eldata />
          <instrument name="tripleoscillator" />
        </instrumenttrack>
        <pattern pos="53760" muted="0" steps="16" name="" type="1">
          <note key="57" pos="0" pan="0" len="528" vol="100" />
        </pattern>
      </track>
      <track solo="0" name="75 (Ch3)" type="0" muted="0">
        <instrumenttrack usemasterpitch="1" pitch="0.0" basenote="57" pan="0" pitchrange="12" vol="30">
          <eldata />
          <instrument name="tripleoscillator" />
        </instrumenttrack>
        <pattern pos="241932" muted="0" steps="16" name="" type="1">
          <note key="22" pos="12" pan="0" len="12" vol="100" />
          <note key="29" pos="24" pan="0" len="12" vol="100" />
          <note key="32" pos="36" pan="0" len="12" vol="100" />
          <note key="34" pos="48" pan="0" len="24" vol="100" />
          <note key="32" pos="72" pan="0" len="12" vol="100" />
          <note key="34" pos="84" pan="0" len="24" vol="100" />
          <note key="29" pos="108" pan="0" len="24" vol="100" />
          <note key="27" pos="132" pan="0" len="24" vol="100" />
          <note key="32" pos="156" pan="0" len="48" vol="100" />
          <note key="20" pos="204" pan="0" len="12" vol="100" />
          <note key="27" pos="216" pan="0" len="12" vol="100" />
          <note key="30" pos="228" pan="0" len="12" vol="100" />
          <note key="32" pos="240" pan="0" len="24" vol="100" />
          <note key="30" pos="264" pan="0" len="12" vol="100" />
          <note key="32" pos="276" pan="0" len="24" vol="100" />
          <note key="34" pos="300" pan="0" len="24" vol="100" />
          <note key="30" pos="324" pan="0" len="24" vol="100" />
          <note key="27" pos="348" pan="0" len="48" vol="100" />
          <note key="22" pos="396" pan="0" len="12" vol="100" />
          <note key="29" pos="408" pan="0" len="12" vol="100" />
          <note key="32" pos="420" pan="0" len="12" vol="100" />
          <note key="34" pos="432" pan="0" len="24" vol="100" />
          <note key="32" pos="456" pan="0" len="12" vol="100" />
          <note key="34" pos="468" pan="0" len="24" vol="100" />
          <note key="29" pos="492" pan="0" len="24" vol="100" />
          <note key="27" pos="516" pan="0" len="24" vol="100" />
          <note key="32" pos="540" pan="0" len="48" vol="100" />
          <note key="20" pos="588" pan="0" len="12" vol="100" />
          <note key="27" pos="600" pan="0" len="12" vol="100" />
          <note key="30" pos="612" pan="0" len="12" vol="100" />
          <note key="32" pos="624" pan="0" len="24" vol="100" />
          <note key="30" pos="648" pan="0" len="12" vol="100" />
          <note key="32" pos="660" pan="0" len="24" vol="100" />
          <note key="34" pos="684" pan="0" len="24" vol="100" />
          <note key="30" pos="708" pan="0" len="24" vol="100" />
          <note key="27" pos="732" pan="0" len="48" vol="100" />
          <note key="22" pos="780" pan="0" len="12" vol="100" />
          <note key="29" pos="792" pan="0" len="12" vol="100" />
          <note key="32" pos="804" pan="0" len="12" vol="100" />
          <note key="34" pos="816" pan="0" len="24" vol="100" />
          <note key="32" pos="840" pan="0" len="12" vol="100" />
          <note key="34" pos="852" pan="0" len="24" vol="100" />
          <note key="29" pos="876" pan="0" len="24" vol="100" />
          <note key="27" pos="900" pan="0" len="24" vol="100" />
          <note key="32" pos="924" pan="0" len="48" vol="100" />
          <note key="20" pos="972" pan="0" len="12" vol="100" />
          <note key="27" pos="984" pan="0" len="12" vol="100" />
          <note key="30" pos="996" pan="0" len="12" vol="100" />
          <note key="32" pos="1008" pan="0" len="24" vol="100" />
          <note key="30" pos="1032" pan="0" len="12" vol="100" />
          <note key="32" pos="1044" pan="0" len="24" vol="100" />
          <note key="34" pos="1068" pan="0" len="24" vol="100" />
          <note key="30" pos="1092" pan="0" len="24" vol="100" />
          <note key="27" pos="1116" pan="0" len="48" vol="100" />
          <note key="22" pos="1164" pan="0" len="12" vol="100" />
          <note key="29" pos="1176" pan="0" len="12" vol="100" />
          <note key="32" pos="1188" pan="0" len="12" vol="100" />
          <note key="34" pos="1200" pan="0" len="24" vol="100" />
          <note key="32" pos="1224" pan="0" len="12" vol="100" />
          <note key="34" pos="1236" pan="0" len="24" vol="100" />
          <note key="29" pos="1260" pan="0" len="24" vol="100" />
          <note key="27" pos="1284" pan="0" len="24" vol="100" />
          <note key="32" pos="1308" pan="0" len="48" vol="100" />
          <note key="20" pos="1356" pan="0" len="12" vol="100" />
          <note key="27" pos="1368" pan="0" len="12" vol="100" />
          <note key="30" pos="1380" pan="0" len="12" vol="100" />
          <note key="32" pos="1392" pan="0" len="24" vol="100" />
          <note key="30" pos="1416" pan="0" len="12" vol="100" />
          <note key="32" pos="1428" pan="0" len="24" vol="100" />
          <note key="34" pos="1452" pan="0" len="24" vol="100" />
          <note key="30" pos="1476" pan="0" len="24" vol="100" />
          <note key="27" pos="1500" pan="0" len="36" vol="100" />
        </pattern>
        <pattern pos="189708" muted="0" steps="16" name="" type="1">
          <note key="28" pos="0" pan="0" len="192" vol="100" />
          <note key="31" pos="192" pan="0" len="192" vol="100" />
          <note key="21" pos="384" pan="0" len="192" vol="100" />
          <note key="26" pos="576" pan="0" len="96" vol="100" />
          <note key="31" pos="672" pan="0" len="96" vol="100" />
          <note key="28" pos="768" pan="0" len="192" vol="100" />
          <note key="31" pos="960" pan="0" len="192" vol="100" />
          <note key="21" pos="1152" pan="0" len="192" vol="100" />
          <note key="26" pos="1344" pan="0" len="96" vol="100" />
          <note key="31" pos="1440" pan="0" len="96" vol="100" />
        </pattern>
        <pattern pos="194316" muted="0" steps="16" name="" type="1">
          <note key="28" pos="0" pan="0" len="192" vol="100" />
          <note key="31" pos="192" pan="0" len="192" vol="100" />
          <note key="21" pos="384" pan="0" len="192" vol="100" />
          <note key="26" pos="576" pan="0" len="96" vol="100" />
          <note key="31" pos="672" pan="0" len="96" vol="2" />
          <note key="28" pos="768" pan="0" len="192" vol="100" />
          <note key="31" pos="960" pan="0" len="192" vol="100" />
          <note key="21" pos="1152" pan="0" len="192" vol="100" />
          <note key="26" pos="1344" pan="0" len="96" vol="100" />
          <note key="31" pos="1440" pan="0" len="96" vol="2" />
        </pattern>
        <pattern pos="195852" muted="0" steps="16" name="" type="1">
          <note key="23" pos="0" pan="0" len="48" vol="100" />
          <note key="25" pos="72" pan="0" len="48" vol="100" />
          <note key="26" pos="144" pan="0" len="36" vol="100" />
          <note key="28" pos="192" pan="0" len="24" vol="100" />
          <note key="21" pos="384" pan="0" len="48" vol="100" />
          <note key="23" pos="456" pan="0" len="24" vol="100" />
          <note key="31" pos="528" pan="0" len="36" vol="100" />
          <note key="28" pos="576" pan="0" len="24" vol="100" />
          <note key="23" pos="768" pan="0" len="48" vol="100" />
          <note key="25" pos="840" pan="0" len="48" vol="100" />
          <note key="26" pos="912" pan="0" len="36" vol="100" />
          <note key="28" pos="960" pan="0" len="24" vol="100" />
          <note key="21" pos="1152" pan="0" len="48" vol="100" />
          <note key="23" pos="1224" pan="0" len="24" vol="100" />
          <note key="31" pos="1296" pan="0" len="36" vol="100" />
          <note key="28" pos="1344" pan="0" len="24" vol="100" />
        </pattern>
      </track>
      <track solo="0" name="75 (Ch4)" type="0" muted="0">
        <instrumenttrack usemasterpitch="1" pitch="0.0" basenote="57" pan="0" pitchrange="12" vol="30">
          <eldata />
          <instrument name="tripleoscillator" />
        </instrumenttrack>
        <pattern pos="248460" muted="0" steps="16" name="" type="1">
          <note key="22" pos="0" pan="0" len="36" vol="100" />
          <note key="29" pos="36" pan="0" len="12" vol="100" />
          <note key="34" pos="48" pan="0" len="24" vol="100" />
          <note key="34" pos="72" pan="0" len="24" vol="100" />
          <note key="46" pos="96" pan="0" len="24" vol="100" />
          <note key="46" pos="120" pan="0" len="24" vol="62" />
          <note key="46" pos="144" pan="0" len="24" vol="47" />
          <note key="46" pos="168" pan="0" len="24" vol="31" />
          <note key="46" pos="192" pan="0" len="192" vol="16" />
        </pattern>
        <pattern pos="162060" muted="0" steps="16" name="" type="1">
          <note key="24" pos="0" pan="0" len="12" vol="100" />
          <note key="24" pos="12" pan="0" len="24" vol="100" />
          <note key="36" pos="36" pan="0" len="24" vol="100" />
          <note key="24" pos="60" pan="0" len="132" vol="100" />
          <note key="24" pos="192" pan="0" len="12" vol="100" />
          <note key="24" pos="204" pan="0" len="24" vol="100" />
          <note key="36" pos="228" pan="0" len="24" vol="100" />
          <note key="24" pos="252" pan="0" len="132" vol="100" />
          <note key="20" pos="384" pan="0" len="12" vol="100" />
          <note key="20" pos="396" pan="0" len="24" vol="100" />
          <note key="32" pos="420" pan="0" len="24" vol="100" />
          <note key="20" pos="444" pan="0" len="132" vol="100" />
          <note key="20" pos="576" pan="0" len="12" vol="100" />
          <note key="20" pos="588" pan="0" len="24" vol="100" />
          <note key="32" pos="612" pan="0" len="24" vol="100" />
          <note key="20" pos="636" pan="0" len="132" vol="100" />
          <note key="24" pos="768" pan="0" len="12" vol="100" />
          <note key="24" pos="780" pan="0" len="24" vol="100" />
          <note key="36" pos="804" pan="0" len="24" vol="100" />
          <note key="24" pos="828" pan="0" len="132" vol="100" />
          <note key="24" pos="960" pan="0" len="12" vol="100" />
          <note key="24" pos="972" pan="0" len="24" vol="100" />
          <note key="36" pos="996" pan="0" len="24" vol="100" />
          <note key="24" pos="1020" pan="0" len="132" vol="100" />
          <note key="20" pos="1152" pan="0" len="12" vol="100" />
          <note key="20" pos="1164" pan="0" len="24" vol="100" />
          <note key="32" pos="1188" pan="0" len="24" vol="100" />
          <note key="20" pos="1212" pan="0" len="132" vol="100" />
          <note key="20" pos="1344" pan="0" len="12" vol="100" />
          <note key="20" pos="1356" pan="0" len="24" vol="100" />
          <note key="32" pos="1380" pan="0" len="24" vol="100" />
          <note key="20" pos="1404" pan="0" len="132" vol="100" />
        </pattern>
        <pattern pos="169740" muted="0" steps="16" name="" type="1">
          <note key="24" pos="1344" pan="0" len="192" vol="100" />
        </pattern>
        <pattern pos="237324" muted="0" steps="16" name="" type="1">
          <note key="22" pos="0" pan="0" len="36" vol="100" />
          <note key="29" pos="36" pan="0" len="12" vol="100" />
          <note key="34" pos="48" pan="0" len="24" vol="100" />
          <note key="34" pos="72" pan="0" len="12" vol="100" />
          <note key="34" pos="84" pan="0" len="48" vol="100" />
          <note key="25" pos="132" pan="0" len="12" vol="100" />
          <note key="27" pos="144" pan="0" len="24" vol="100" />
          <note key="29" pos="168" pan="0" len="12" vol="100" />
          <note key="25" pos="180" pan="0" len="12" vol="100" />
          <note key="22" pos="192" pan="0" len="36" vol="100" />
          <note key="29" pos="228" pan="0" len="12" vol="100" />
          <note key="34" pos="240" pan="0" len="24" vol="100" />
          <note key="34" pos="264" pan="0" len="12" vol="100" />
          <note key="34" pos="276" pan="0" len="48" vol="100" />
          <note key="25" pos="324" pan="0" len="12" vol="100" />
          <note key="27" pos="336" pan="0" len="24" vol="100" />
          <note key="29" pos="360" pan="0" len="12" vol="100" />
          <note key="25" pos="372" pan="0" len="12" vol="100" />
          <note key="22" pos="384" pan="0" len="36" vol="100" />
          <note key="29" pos="420" pan="0" len="12" vol="100" />
          <note key="34" pos="432" pan="0" len="24" vol="100" />
          <note key="34" pos="456" pan="0" len="12" vol="100" />
          <note key="34" pos="468" pan="0" len="48" vol="100" />
          <note key="25" pos="516" pan="0" len="12" vol="100" />
          <note key="27" pos="528" pan="0" len="24" vol="100" />
          <note key="29" pos="552" pan="0" len="12" vol="100" />
          <note key="25" pos="564" pan="0" len="12" vol="100" />
          <note key="22" pos="576" pan="0" len="36" vol="100" />
          <note key="29" pos="612" pan="0" len="12" vol="100" />
          <note key="34" pos="624" pan="0" len="24" vol="100" />
          <note key="34" pos="648" pan="0" len="12" vol="100" />
          <note key="34" pos="660" pan="0" len="48" vol="100" />
          <note key="25" pos="708" pan="0" len="12" vol="100" />
          <note key="27" pos="720" pan="0" len="24" vol="100" />
          <note key="29" pos="744" pan="0" len="12" vol="100" />
          <note key="25" pos="756" pan="0" len="12" vol="100" />
          <note key="22" pos="768" pan="0" len="36" vol="100" />
          <note key="29" pos="804" pan="0" len="12" vol="100" />
          <note key="34" pos="816" pan="0" len="24" vol="100" />
          <note key="34" pos="840" pan="0" len="12" vol="100" />
          <note key="34" pos="852" pan="0" len="48" vol="100" />
          <note key="25" pos="900" pan="0" len="12" vol="100" />
          <note key="27" pos="912" pan="0" len="24" vol="100" />
          <note key="29" pos="936" pan="0" len="12" vol="100" />
          <note key="25" pos="948" pan="0" len="12" vol="100" />
          <note key="22" pos="960" pan="0" len="36" vol="100" />
          <note key="29" pos="996" pan="0" len="12" vol="100" />
          <note key="34" pos="1008" pan="0" len="24" vol="100" />
          <note key="34" pos="1032" pan="0" len="12" vol="100" />
          <note key="34" pos="1044" pan="0" len="48" vol="100" />
          <note key="25" pos="1092" pan="0" len="12" vol="100" />
          <note key="27" pos="1104" pan="0" len="24" vol="100" />
          <note key="29" pos="1128" pan="0" len="12" vol="100" />
          <note key="25" pos="1140" pan="0" len="12" vol="100" />
          <note key="22" pos="1152" pan="0" len="36" vol="100" />
          <note key="29" pos="1188" pan="0" len="12" vol="100" />
          <note key="34" pos="1200" pan="0" len="24" vol="100" />
          <note key="34" pos="1224" pan="0" len="12" vol="100" />
          <note key="34" pos="1236" pan="0" len="48" vol="100" />
          <note key="25" pos="1284" pan="0" len="12" vol="100" />
          <note key="27" pos="1296" pan="0" len="24" vol="100" />
          <note key="29" pos="1320" pan="0" len="12" vol="100" />
          <note key="25" pos="1332" pan="0" len="12" vol="100" />
          <note key="22" pos="1344" pan="0" len="36" vol="100" />
          <note key="29" pos="1380" pan="0" len="12" vol="100" />
          <note key="34" pos="1392" pan="0" len="24" vol="100" />
          <note key="34" pos="1416" pan="0" len="12" vol="100" />
          <note key="34" pos="1428" pan="0" len="48" vol="100" />
          <note key="25" pos="1476" pan="0" len="12" vol="100" />
          <note key="27" pos="1488" pan="0" len="24" vol="100" />
          <note key="29" pos="1512" pan="0" len="12" vol="100" />
          <note key="25" pos="1524" pan="0" len="12" vol="100" />
        </pattern>
        <pattern pos="238860" muted="0" steps="16" name="" type="1">
          <note key="22" pos="0" pan="0" len="36" vol="100" />
          <note key="29" pos="36" pan="0" len="12" vol="100" />
          <note key="34" pos="48" pan="0" len="24" vol="100" />
          <note key="34" pos="72" pan="0" len="12" vol="100" />
          <note key="34" pos="84" pan="0" len="48" vol="100" />
          <note key="25" pos="132" pan="0" len="12" vol="100" />
          <note key="27" pos="144" pan="0" len="24" vol="100" />
          <note key="29" pos="168" pan="0" len="12" vol="100" />
          <note key="25" pos="180" pan="0" len="12" vol="100" />
          <note key="22" pos="192" pan="0" len="36" vol="100" />
          <note key="29" pos="228" pan="0" len="12" vol="100" />
          <note key="34" pos="240" pan="0" len="24" vol="100" />
          <note key="34" pos="264" pan="0" len="12" vol="100" />
          <note key="34" pos="276" pan="0" len="48" vol="100" />
          <note key="25" pos="324" pan="0" len="12" vol="100" />
          <note key="27" pos="336" pan="0" len="24" vol="100" />
          <note key="29" pos="360" pan="0" len="12" vol="100" />
          <note key="25" pos="372" pan="0" len="12" vol="100" />
          <note key="22" pos="384" pan="0" len="36" vol="100" />
          <note key="29" pos="420" pan="0" len="12" vol="100" />
          <note key="34" pos="432" pan="0" len="24" vol="100" />
          <note key="34" pos="456" pan="0" len="12" vol="100" />
          <note key="34" pos="468" pan="0" len="48" vol="100" />
          <note key="25" pos="516" pan="0" len="12" vol="100" />
          <note key="27" pos="528" pan="0" len="24" vol="100" />
          <note key="29" pos="552" pan="0" len="12" vol="100" />
          <note key="25" pos="564" pan="0" len="12" vol="100" />
          <note key="22" pos="576" pan="0" len="36" vol="100" />
          <note key="29" pos="612" pan="0" len="12" vol="100" />
          <note key="34" pos="624" pan="0" len="24" vol="100" />
          <note key="34" pos="648" pan="0" len="12" vol="100" />
          <note key="34" pos="660" pan="0" len="48" vol="100" />
          <note key="25" pos="708" pan="0" len="12" vol="100" />
          <note key="27" pos="720" pan="0" len="24" vol="100" />
          <note key="29" pos="744" pan="0" len="12" vol="100" />
          <note key="25" pos="756" pan="0" len="12" vol="100" />
          <note key="27" pos="768" pan="0" len="36" vol="100" />
          <note key="34" pos="804" pan="0" len="12" vol="100" />
          <note key="39" pos="816" pan="0" len="24" vol="100" />
          <note key="39" pos="840" pan="0" len="12" vol="100" />
          <note key="39" pos="852" pan="0" len="48" vol="100" />
          <note key="30" pos="900" pan="0" len="12" vol="100" />
          <note key="32" pos="912" pan="0" len="24" vol="100" />
          <note key="34" pos="936" pan="0" len="12" vol="100" />
          <note key="30" pos="948" pan="0" len="12" vol="100" />
          <note key="27" pos="960" pan="0" len="36" vol="100" />
          <note key="34" pos="996" pan="0" len="12" vol="100" />
          <note key="39" pos="1008" pan="0" len="24" vol="100" />
          <note key="39" pos="1032" pan="0" len="12" vol="100" />
          <note key="39" pos="1044" pan="0" len="48" vol="100" />
          <note key="30" pos="1092" pan="0" len="12" vol="100" />
          <note key="32" pos="1104" pan="0" len="24" vol="100" />
          <note key="34" pos="1128" pan="0" len="12" vol="100" />
          <note key="30" pos="1140" pan="0" len="12" vol="100" />
          <note key="27" pos="1152" pan="0" len="36" vol="100" />
          <note key="34" pos="1188" pan="0" len="12" vol="100" />
          <note key="39" pos="1200" pan="0" len="24" vol="100" />
          <note key="39" pos="1224" pan="0" len="12" vol="100" />
          <note key="39" pos="1236" pan="0" len="48" vol="100" />
          <note key="30" pos="1284" pan="0" len="12" vol="100" />
          <note key="32" pos="1296" pan="0" len="24" vol="100" />
          <note key="34" pos="1320" pan="0" len="12" vol="100" />
          <note key="30" pos="1332" pan="0" len="12" vol="100" />
          <note key="27" pos="1344" pan="0" len="36" vol="100" />
          <note key="34" pos="1380" pan="0" len="12" vol="100" />
          <note key="39" pos="1392" pan="0" len="24" vol="100" />
          <note key="39" pos="1416" pan="0" len="12" vol="100" />
          <note key="39" pos="1428" pan="0" len="48" vol="100" />
          <note key="30" pos="1476" pan="0" len="12" vol="100" />
          <note key="32" pos="1488" pan="0" len="24" vol="100" />
          <note key="34" pos="1512" pan="0" len="12" vol="100" />
          <note key="30" pos="1524" pan="0" len="12" vol="100" />
        </pattern>
        <pattern pos="240396" muted="0" steps="16" name="" type="1">
          <note key="22" pos="0" pan="0" len="36" vol="100" />
          <note key="29" pos="36" pan="0" len="12" vol="100" />
          <note key="34" pos="48" pan="0" len="24" vol="100" />
          <note key="34" pos="72" pan="0" len="12" vol="100" />
          <note key="34" pos="84" pan="0" len="48" vol="100" />
          <note key="25" pos="132" pan="0" len="12" vol="100" />
          <note key="27" pos="144" pan="0" len="24" vol="100" />
          <note key="29" pos="168" pan="0" len="12" vol="100" />
          <note key="25" pos="180" pan="0" len="12" vol="100" />
          <note key="22" pos="192" pan="0" len="36" vol="100" />
          <note key="29" pos="228" pan="0" len="12" vol="100" />
          <note key="34" pos="240" pan="0" len="24" vol="100" />
          <note key="34" pos="264" pan="0" len="12" vol="100" />
          <note key="34" pos="276" pan="0" len="48" vol="100" />
          <note key="25" pos="324" pan="0" len="12" vol="100" />
          <note key="27" pos="336" pan="0" len="24" vol="100" />
          <note key="29" pos="360" pan="0" len="12" vol="100" />
          <note key="25" pos="372" pan="0" len="12" vol="100" />
          <note key="22" pos="384" pan="0" len="36" vol="100" />
          <note key="29" pos="420" pan="0" len="12" vol="100" />
          <note key="34" pos="432" pan="0" len="24" vol="100" />
          <note key="34" pos="456" pan="0" len="12" vol="100" />
          <note key="34" pos="468" pan="0" len="48" vol="100" />
          <note key="25" pos="516" pan="0" len="12" vol="100" />
          <note key="27" pos="528" pan="0" len="24" vol="100" />
          <note key="29" pos="552" pan="0" len="12" vol="100" />
          <note key="25" pos="564" pan="0" len="12" vol="100" />
          <note key="22" pos="576" pan="0" len="36" vol="100" />
          <note key="29" pos="612" pan="0" len="12" vol="100" />
          <note key="34" pos="624" pan="0" len="24" vol="100" />
          <note key="34" pos="648" pan="0" len="12" vol="100" />
          <note key="34" pos="660" pan="0" len="48" vol="100" />
          <note key="25" pos="708" pan="0" len="12" vol="100" />
          <note key="27" pos="720" pan="0" len="24" vol="100" />
          <note key="29" pos="744" pan="0" len="12" vol="100" />
          <note key="25" pos="756" pan="0" len="12" vol="100" />
          <note key="22" pos="768" pan="0" len="36" vol="100" />
          <note key="29" pos="804" pan="0" len="12" vol="100" />
          <note key="34" pos="816" pan="0" len="24" vol="100" />
          <note key="34" pos="840" pan="0" len="12" vol="100" />
          <note key="34" pos="852" pan="0" len="48" vol="100" />
          <note key="25" pos="900" pan="0" len="12" vol="100" />
          <note key="27" pos="912" pan="0" len="24" vol="100" />
          <note key="29" pos="936" pan="0" len="12" vol="100" />
          <note key="25" pos="948" pan="0" len="12" vol="100" />
          <note key="22" pos="960" pan="0" len="36" vol="100" />
          <note key="29" pos="996" pan="0" len="12" vol="100" />
          <note key="34" pos="1008" pan="0" len="24" vol="100" />
          <note key="34" pos="1032" pan="0" len="12" vol="100" />
          <note key="34" pos="1044" pan="0" len="48" vol="100" />
          <note key="25" pos="1092" pan="0" len="12" vol="100" />
          <note key="27" pos="1104" pan="0" len="24" vol="100" />
          <note key="29" pos="1128" pan="0" len="12" vol="100" />
          <note key="25" pos="1140" pan="0" len="12" vol="100" />
          <note key="22" pos="1152" pan="0" len="36" vol="100" />
          <note key="29" pos="1188" pan="0" len="12" vol="100" />
          <note key="34" pos="1200" pan="0" len="24" vol="100" />
          <note key="34" pos="1224" pan="0" len="12" vol="100" />
          <note key="34" pos="1236" pan="0" len="48" vol="100" />
          <note key="25" pos="1284" pan="0" len="12" vol="100" />
          <note key="27" pos="1296" pan="0" len="24" vol="100" />
          <note key="29" pos="1320" pan="0" len="12" vol="100" />
          <note key="25" pos="1332" pan="0" len="12" vol="100" />
          <note key="22" pos="1344" pan="0" len="36" vol="100" />
          <note key="29" pos="1380" pan="0" len="12" vol="100" />
          <note key="34" pos="1392" pan="0" len="24" vol="100" />
          <note key="34" pos="1416" pan="0" len="12" vol="100" />
          <note key="34" pos="1428" pan="0" len="48" vol="100" />
          <note key="25" pos="1476" pan="0" len="12" vol="100" />
          <note key="27" pos="1488" pan="0" len="24" vol="100" />
          <note key="29" pos="1512" pan="0" len="12" vol="100" />
          <note key="25" pos="1524" pan="0" len="12" vol="100" />
        </pattern>
        <pattern pos="243468" muted="0" steps="16" name="" type="1">
          <note key="22" pos="0" pan="0" len="36" vol="100" />
          <note key="29" pos="36" pan="0" len="12" vol="100" />
          <note key="34" pos="48" pan="0" len="24" vol="100" />
          <note key="34" pos="72" pan="0" len="12" vol="100" />
          <note key="34" pos="84" pan="0" len="48" vol="100" />
          <note key="25" pos="132" pan="0" len="12" vol="100" />
          <note key="27" pos="144" pan="0" len="24" vol="100" />
          <note key="29" pos="168" pan="0" len="12" vol="100" />
          <note key="25" pos="180" pan="0" len="12" vol="100" />
          <note key="22" pos="192" pan="0" len="36" vol="100" />
          <note key="29" pos="228" pan="0" len="12" vol="100" />
          <note key="34" pos="240" pan="0" len="24" vol="100" />
          <note key="34" pos="264" pan="0" len="12" vol="100" />
          <note key="34" pos="276" pan="0" len="48" vol="100" />
          <note key="25" pos="324" pan="0" len="12" vol="100" />
          <note key="27" pos="336" pan="0" len="24" vol="100" />
          <note key="29" pos="360" pan="0" len="12" vol="100" />
          <note key="25" pos="372" pan="0" len="12" vol="100" />
          <note key="22" pos="384" pan="0" len="36" vol="100" />
          <note key="29" pos="420" pan="0" len="12" vol="100" />
          <note key="34" pos="432" pan="0" len="24" vol="100" />
          <note key="34" pos="456" pan="0" len="12" vol="100" />
          <note key="34" pos="468" pan="0" len="48" vol="100" />
          <note key="25" pos="516" pan="0" len="12" vol="100" />
          <note key="27" pos="528" pan="0" len="24" vol="100" />
          <note key="29" pos="552" pan="0" len="12" vol="100" />
          <note key="25" pos="564" pan="0" len="12" vol="100" />
          <note key="22" pos="576" pan="0" len="36" vol="100" />
          <note key="29" pos="612" pan="0" len="12" vol="100" />
          <note key="34" pos="624" pan="0" len="24" vol="100" />
          <note key="34" pos="648" pan="0" len="12" vol="100" />
          <note key="34" pos="660" pan="0" len="48" vol="100" />
          <note key="25" pos="708" pan="0" len="12" vol="100" />
          <note key="27" pos="720" pan="0" len="24" vol="100" />
          <note key="29" pos="744" pan="0" len="12" vol="100" />
          <note key="25" pos="756" pan="0" len="12" vol="100" />
          <note key="22" pos="768" pan="0" len="36" vol="100" />
          <note key="29" pos="804" pan="0" len="12" vol="100" />
          <note key="34" pos="816" pan="0" len="24" vol="100" />
          <note key="34" pos="840" pan="0" len="12" vol="100" />
          <note key="34" pos="852" pan="0" len="48" vol="100" />
          <note key="25" pos="900" pan="0" len="12" vol="100" />
          <note key="27" pos="912" pan="0" len="24" vol="100" />
          <note key="29" pos="936" pan="0" len="12" vol="100" />
          <note key="25" pos="948" pan="0" len="12" vol="100" />
          <note key="22" pos="960" pan="0" len="36" vol="100" />
          <note key="29" pos="996" pan="0" len="12" vol="100" />
          <note key="34" pos="1008" pan="0" len="24" vol="100" />
          <note key="34" pos="1032" pan="0" len="12" vol="100" />
          <note key="34" pos="1044" pan="0" len="48" vol="100" />
          <note key="25" pos="1092" pan="0" len="12" vol="100" />
          <note key="27" pos="1104" pan="0" len="24" vol="100" />
          <note key="29" pos="1128" pan="0" len="12" vol="100" />
          <note key="25" pos="1140" pan="0" len="12" vol="100" />
          <note key="22" pos="1152" pan="0" len="36" vol="100" />
          <note key="29" pos="1188" pan="0" len="12" vol="100" />
          <note key="34" pos="1200" pan="0" len="24" vol="100" />
          <note key="34" pos="1224" pan="0" len="12" vol="100" />
          <note key="34" pos="1236" pan="0" len="48" vol="100" />
          <note key="25" pos="1284" pan="0" len="12" vol="100" />
          <note key="27" pos="1296" pan="0" len="24" vol="100" />
          <note key="29" pos="1320" pan="0" len="12" vol="100" />
          <note key="25" pos="1332" pan="0" len="12" vol="100" />
          <note key="22" pos="1344" pan="0" len="36" vol="100" />
          <note key="29" pos="1380" pan="0" len="12" vol="100" />
          <note key="34" pos="1392" pan="0" len="24" vol="100" />
          <note key="34" pos="1416" pan="0" len="12" vol="100" />
          <note key="34" pos="1428" pan="0" len="48" vol="100" />
          <note key="25" pos="1476" pan="0" len="12" vol="100" />
          <note key="27" pos="1488" pan="0" len="24" vol="100" />
          <note key="29" pos="1512" pan="0" len="12" vol="100" />
          <note key="25" pos="1524" pan="0" len="12" vol="100" />
        </pattern>
        <pattern pos="245004" muted="0" steps="16" name="" type="1">
          <note key="25" pos="0" pan="0" len="36" vol="100" />
          <note key="32" pos="36" pan="0" len="12" vol="100" />
          <note key="37" pos="48" pan="0" len="24" vol="100" />
          <note key="37" pos="72" pan="0" len="12" vol="100" />
          <note key="37" pos="84" pan="0" len="48" vol="100" />
          <note key="28" pos="132" pan="0" len="12" vol="100" />
          <note key="30" pos="144" pan="0" len="24" vol="100" />
          <note key="32" pos="168" pan="0" len="12" vol="100" />
          <note key="28" pos="180" pan="0" len="12" vol="100" />
          <note key="25" pos="192" pan="0" len="36" vol="100" />
          <note key="32" pos="228" pan="0" len="12" vol="100" />
          <note key="37" pos="240" pan="0" len="24" vol="100" />
          <note key="37" pos="264" pan="0" len="12" vol="100" />
          <note key="37" pos="276" pan="0" len="48" vol="100" />
          <note key="28" pos="324" pan="0" len="12" vol="100" />
          <note key="30" pos="336" pan="0" len="24" vol="100" />
          <note key="32" pos="360" pan="0" len="12" vol="100" />
          <note key="28" pos="372" pan="0" len="12" vol="100" />
          <note key="25" pos="384" pan="0" len="36" vol="100" />
          <note key="32" pos="420" pan="0" len="12" vol="100" />
          <note key="37" pos="432" pan="0" len="24" vol="100" />
          <note key="37" pos="456" pan="0" len="12" vol="100" />
          <note key="37" pos="468" pan="0" len="48" vol="100" />
          <note key="28" pos="516" pan="0" len="12" vol="100" />
          <note key="30" pos="528" pan="0" len="24" vol="100" />
          <note key="32" pos="552" pan="0" len="12" vol="100" />
          <note key="28" pos="564" pan="0" len="12" vol="100" />
          <note key="25" pos="576" pan="0" len="36" vol="100" />
          <note key="32" pos="612" pan="0" len="12" vol="100" />
          <note key="37" pos="624" pan="0" len="24" vol="100" />
          <note key="37" pos="648" pan="0" len="12" vol="100" />
          <note key="37" pos="660" pan="0" len="48" vol="100" />
          <note key="28" pos="708" pan="0" len="12" vol="100" />
          <note key="30" pos="720" pan="0" len="24" vol="100" />
          <note key="32" pos="744" pan="0" len="12" vol="100" />
          <note key="28" pos="756" pan="0" len="12" vol="100" />
          <note key="25" pos="768" pan="0" len="36" vol="100" />
          <note key="32" pos="804" pan="0" len="12" vol="100" />
          <note key="37" pos="816" pan="0" len="24" vol="100" />
          <note key="37" pos="840" pan="0" len="12" vol="100" />
          <note key="37" pos="852" pan="0" len="48" vol="100" />
          <note key="28" pos="900" pan="0" len="12" vol="100" />
          <note key="30" pos="912" pan="0" len="24" vol="100" />
          <note key="32" pos="936" pan="0" len="12" vol="100" />
          <note key="28" pos="948" pan="0" len="12" vol="100" />
          <note key="25" pos="960" pan="0" len="36" vol="100" />
          <note key="32" pos="996" pan="0" len="12" vol="100" />
          <note key="37" pos="1008" pan="0" len="24" vol="100" />
          <note key="37" pos="1032" pan="0" len="12" vol="100" />
          <note key="37" pos="1044" pan="0" len="48" vol="100" />
          <note key="28" pos="1092" pan="0" len="12" vol="100" />
          <note key="30" pos="1104" pan="0" len="24" vol="100" />
          <note key="32" pos="1128" pan="0" len="12" vol="100" />
          <note key="28" pos="1140" pan="0" len="12" vol="100" />
          <note key="25" pos="1152" pan="0" len="36" vol="100" />
          <note key="32" pos="1188" pan="0" len="12" vol="100" />
          <note key="37" pos="1200" pan="0" len="24" vol="100" />
          <note key="37" pos="1224" pan="0" len="12" vol="100" />
          <note key="37" pos="1236" pan="0" len="48" vol="100" />
          <note key="28" pos="1284" pan="0" len="12" vol="100" />
          <note key="30" pos="1296" pan="0" len="24" vol="100" />
          <note key="32" pos="1320" pan="0" len="12" vol="100" />
          <note key="28" pos="1332" pan="0" len="12" vol="100" />
          <note key="25" pos="1344" pan="0" len="36" vol="100" />
          <note key="32" pos="1380" pan="0" len="12" vol="100" />
          <note key="37" pos="1392" pan="0" len="24" vol="100" />
          <note key="37" pos="1416" pan="0" len="12" vol="100" />
          <note key="37" pos="1428" pan="0" len="48" vol="100" />
          <note key="28" pos="1476" pan="0" len="12" vol="100" />
          <note key="30" pos="1488" pan="0" len="24" vol="100" />
          <note key="32" pos="1512" pan="0" len="12" vol="100" />
          <note key="28" pos="1524" pan="0" len="12" vol="100" />
        </pattern>
      </track>
      <track solo="0" name="75 (Ch6)" type="0" muted="0">
        <instrumenttrack usemasterpitch="1" pitch="0.0" basenote="57" pan="0" pitchrange="12" vol="30">
          <eldata />
          <instrument name="tripleoscillator" />
        </instrumenttrack>
        <pattern pos="264972" muted="0" steps="16" name="" type="1">
          <note key="27" pos="0" pan="0" len="276" vol="100" />
          <note key="29" pos="288" pan="0" len="276" vol="100" />
          <note key="31" pos="576" pan="0" len="276" vol="100" />
          <note key="22" pos="864" pan="0" len="276" vol="100" />
          <note key="27" pos="1152" pan="0" len="276" vol="100" />
          <note key="24" pos="1440" pan="0" len="144" vol="100" />
          <note key="26" pos="1584" pan="0" len="144" vol="100" />
          <note key="31" pos="1728" pan="0" len="276" vol="100" />
          <note key="19" pos="2016" pan="0" len="276" vol="100" />
        </pattern>
        <pattern pos="253452" muted="0" steps="16" name="" type="1">
          <note key="27" pos="0" pan="0" len="276" vol="100" />
          <note key="29" pos="288" pan="0" len="276" vol="100" />
          <note key="31" pos="576" pan="0" len="276" vol="100" />
          <note key="22" pos="864" pan="0" len="276" vol="100" />
          <note key="27" pos="1152" pan="0" len="276" vol="100" />
          <note key="24" pos="1440" pan="0" len="144" vol="100" />
          <note key="26" pos="1584" pan="0" len="144" vol="100" />
          <note key="31" pos="1728" pan="0" len="276" vol="100" />
          <note key="19" pos="2016" pan="0" len="276" vol="100" />
        </pattern>
        <pattern pos="255756" muted="0" steps="16" name="" type="1">
          <note key="27" pos="0" pan="0" len="276" vol="100" />
          <note key="29" pos="288" pan="0" len="276" vol="100" />
          <note key="31" pos="576" pan="0" len="276" vol="100" />
          <note key="22" pos="864" pan="0" len="276" vol="100" />
          <note key="27" pos="1152" pan="0" len="276" vol="100" />
          <note key="24" pos="1440" pan="0" len="144" vol="100" />
          <note key="26" pos="1584" pan="0" len="144" vol="100" />
          <note key="31" pos="1728" pan="0" len="276" vol="100" />
          <note key="19" pos="2016" pan="0" len="276" vol="100" />
        </pattern>
        <pattern pos="262668" muted="0" steps="16" name="" type="1">
          <note key="27" pos="0" pan="0" len="276" vol="100" />
          <note key="29" pos="288" pan="0" len="276" vol="100" />
          <note key="31" pos="576" pan="0" len="276" vol="100" />
          <note key="22" pos="864" pan="0" len="276" vol="100" />
          <note key="27" pos="1152" pan="0" len="276" vol="100" />
          <note key="24" pos="1440" pan="0" len="144" vol="100" />
          <note key="26" pos="1584" pan="0" len="144" vol="100" />
          <note key="31" pos="1728" pan="0" len="276" vol="100" />
          <note key="19" pos="2016" pan="0" len="276" vol="100" />
        </pattern>
      </track>
      <track solo="0" name="75 (Ch8)" type="0" muted="0">
        <instrumenttrack usemasterpitch="1" pitch="0.0" basenote="57" pan="0" pitchrange="12" vol="30">
          <eldata />
          <instrument name="tripleoscillator" />
        </instrumenttrack>
        <pattern pos="230412" muted="0" steps="16" name="" type="1">
          <note key="22" pos="0" pan="0" len="384" vol="100" />
          <note key="22" pos="384" pan="0" len="384" vol="100" />
          <note key="22" pos="768" pan="0" len="384" vol="100" />
          <note key="22" pos="1152" pan="0" len="384" vol="100" />
        </pattern>
        <pattern pos="224268" muted="0" steps="16" name="" type="1">
          <note key="22" pos="0" pan="0" len="384" vol="100" />
          <note key="22" pos="384" pan="0" len="384" vol="100" />
          <note key="22" pos="768" pan="0" len="384" vol="100" />
          <note key="22" pos="1152" pan="0" len="384" vol="100" />
        </pattern>
      </track>
      <track solo="0" name="75 (Ch9)" type="0" muted="0">
        <instrumenttrack usemasterpitch="1" pitch="0.0" basenote="57" pan="0" pitchrange="12" vol="30">
          <eldata />
          <instrument name="tripleoscillator" />
        </instrumenttrack>
        <pattern pos="231948" muted="0" steps="16" name="" type="1">
          <note key="22" pos="768" pan="0" len="192" vol="2" />
          <note key="20" pos="960" pan="0" len="96" vol="100" />
          <note key="18" pos="1056" pan="0" len="60" vol="100" />
          <note key="18" pos="1152" pan="0" len="48" vol="100" />
          <note key="25" pos="1224" pan="0" len="24" vol="100" />
          <note key="18" pos="1248" pan="0" len="72" vol="100" />
          <note key="25" pos="1344" pan="0" len="60" vol="100" />
          <note key="20" pos="1440" pan="0" len="48" vol="100" />
        </pattern>
        <pattern pos="222732" muted="0" steps="16" name="" type="1">
          <note key="22" pos="768" pan="0" len="192" vol="2" />
          <note key="20" pos="960" pan="0" len="96" vol="100" />
          <note key="18" pos="1056" pan="0" len="60" vol="100" />
          <note key="18" pos="1152" pan="0" len="48" vol="100" />
          <note key="25" pos="1224" pan="0" len="24" vol="100" />
          <note key="18" pos="1248" pan="0" len="72" vol="100" />
          <note key="25" pos="1344" pan="0" len="96" vol="100" />
          <note key="20" pos="1440" pan="0" len="48" vol="100" />
        </pattern>
      </track>
      <track solo="0" name="75 (Ch14)" type="0" muted="0">
        <instrumenttrack usemasterpitch="1" pitch="0.0" basenote="57" pan="0" pitchrange="12" vol="30">
          <eldata />
          <instrument name="tripleoscillator" />
        </instrumenttrack>
        <pattern pos="169740" muted="0" steps="16" name="" type="1">
          <note key="24" pos="2112" pan="0" len="84" vol="100" />
        </pattern>
      </track>
      <track solo="0" name="76 (Ch3)" type="0" muted="0">
        <instrumenttrack usemasterpitch="1" pitch="0.0" basenote="57" pan="0" pitchrange="12" vol="30">
          <eldata />
          <instrument name="tripleoscillator" />
        </instrumenttrack>
        <pattern pos="240396" muted="0" steps="16" name="" type="1">
          <note key="53" pos="0" pan="0" len="36" vol="100" />
          <note key="58" pos="36" pan="0" len="24" vol="100" />
          <note key="53" pos="60" pan="0" len="12" vol="100" />
          <note key="56" pos="72" pan="0" len="120" vol="100" />
          <note key="51" pos="192" pan="0" len="36" vol="100" />
          <note key="53" pos="228" pan="0" len="36" vol="100" />
          <note key="49" pos="264" pan="0" len="12" vol="100" />
          <note key="48" pos="276" pan="0" len="120" vol="100" />
          <note key="48" pos="396" pan="0" len="12" vol="100" />
          <note key="49" pos="408" pan="0" len="12" vol="100" />
          <note key="51" pos="420" pan="0" len="12" vol="100" />
          <note key="53" pos="432" pan="0" len="12" vol="100" />
          <note key="56" pos="444" pan="0" len="12" vol="100" />
          <note key="55" pos="456" pan="0" len="12" vol="100" />
          <note key="58" pos="468" pan="0" len="12" vol="100" />
          <note key="60" pos="480" pan="0" len="12" vol="100" />
          <note key="61" pos="492" pan="0" len="12" vol="100" />
          <note key="63" pos="504" pan="0" len="12" vol="100" />
          <note key="68" pos="516" pan="0" len="12" vol="100" />
          <note key="67" pos="528" pan="0" len="12" vol="100" />
          <note key="63" pos="540" pan="0" len="12" vol="100" />
          <note key="65" pos="552" pan="0" len="12" vol="100" />
          <note key="70" pos="564" pan="0" len="12" vol="100" />
          <note key="72" pos="576" pan="0" len="12" vol="100" />
          <note key="73" pos="588" pan="0" len="12" vol="100" />
          <note key="75" pos="600" pan="0" len="12" vol="100" />
          <note key="77" pos="612" pan="0" len="12" vol="100" />
          <note key="79" pos="624" pan="0" len="12" vol="100" />
          <note key="80" pos="636" pan="0" len="12" vol="100" />
          <note key="79" pos="648" pan="0" len="12" vol="100" />
          <note key="75" pos="660" pan="0" len="12" vol="100" />
          <note key="73" pos="672" pan="0" len="12" vol="100" />
          <note key="72" pos="684" pan="0" len="12" vol="100" />
          <note key="68" pos="696" pan="0" len="12" vol="100" />
          <note key="67" pos="708" pan="0" len="12" vol="100" />
          <note key="63" pos="720" pan="0" len="12" vol="100" />
          <note key="61" pos="732" pan="0" len="12" vol="100" />
          <note key="60" pos="744" pan="0" len="12" vol="100" />
          <note key="56" pos="756" pan="0" len="12" vol="100" />
          <note key="53" pos="768" pan="0" len="768" vol="100" />
        </pattern>
        <pattern pos="158988" muted="0" steps="16" name="" type="1">
          <note key="67" pos="0" pan="0" len="12" vol="16" />
          <note key="63" pos="12" pan="0" len="12" vol="20" />
          <note key="65" pos="24" pan="0" len="12" vol="27" />
          <note key="62" pos="36" pan="0" len="12" vol="31" />
          <note key="63" pos="48" pan="0" len="12" vol="36" />
          <note key="60" pos="60" pan="0" len="12" vol="42" />
          <note key="62" pos="72" pan="0" len="12" vol="47" />
          <note key="58" pos="84" pan="0" len="12" vol="53" />
          <note key="60" pos="96" pan="0" len="12" vol="58" />
          <note key="55" pos="108" pan="0" len="12" vol="62" />
          <note key="58" pos="120" pan="0" len="12" vol="69" />
          <note key="63" pos="132" pan="0" len="12" vol="73" />
          <note key="62" pos="144" pan="0" len="12" vol="78" />
          <note key="58" pos="156" pan="0" len="12" vol="84" />
          <note key="60" pos="168" pan="0" len="12" vol="89" />
          <note key="67" pos="180" pan="0" len="12" vol="100" />
          <note key="36" pos="192" pan="0" len="12" vol="95" />
          <note key="43" pos="204" pan="0" len="12" vol="89" />
          <note key="46" pos="216" pan="0" len="12" vol="84" />
          <note key="48" pos="228" pan="0" len="12" vol="80" />
          <note key="50" pos="240" pan="0" len="12" vol="73" />
          <note key="51" pos="252" pan="0" len="12" vol="69" />
          <note key="53" pos="264" pan="0" len="12" vol="62" />
          <note key="55" pos="276" pan="0" len="12" vol="58" />
          <note key="58" pos="288" pan="0" len="12" vol="53" />
          <note key="60" pos="300" pan="0" len="12" vol="47" />
          <note key="63" pos="312" pan="0" len="12" vol="42" />
          <note key="65" pos="324" pan="0" len="12" vol="38" />
          <note key="67" pos="336" pan="0" len="12" vol="31" />
          <note key="70" pos="348" pan="0" len="12" vol="27" />
          <note key="72" pos="360" pan="0" len="12" vol="20" />
          <note key="79" pos="372" pan="0" len="12" vol="16" />
          <note key="67" pos="384" pan="0" len="12" vol="16" />
          <note key="63" pos="396" pan="0" len="12" vol="20" />
          <note key="65" pos="408" pan="0" len="12" vol="27" />
          <note key="62" pos="420" pan="0" len="12" vol="31" />
          <note key="63" pos="432" pan="0" len="12" vol="36" />
          <note key="60" pos="444" pan="0" len="12" vol="42" />
          <note key="62" pos="456" pan="0" len="12" vol="47" />
          <note key="58" pos="468" pan="0" len="12" vol="53" />
          <note key="60" pos="480" pan="0" len="12" vol="58" />
          <note key="55" pos="492" pan="0" len="12" vol="62" />
          <note key="58" pos="504" pan="0" len="12" vol="69" />
          <note key="63" pos="516" pan="0" len="12" vol="73" />
          <note key="62" pos="528" pan="0" len="12" vol="78" />
          <note key="58" pos="540" pan="0" len="12" vol="84" />
          <note key="60" pos="552" pan="0" len="12" vol="89" />
          <note key="67" pos="564" pan="0" len="12" vol="100" />
          <note key="44" pos="576" pan="0" len="12" vol="95" />
          <note key="56" pos="588" pan="0" len="12" vol="89" />
          <note key="46" pos="600" pan="0" len="12" vol="84" />
          <note key="48" pos="612" pan="0" len="12" vol="80" />
          <note key="50" pos="624" pan="0" len="12" vol="73" />
          <note key="51" pos="636" pan="0" len="12" vol="69" />
          <note key="53" pos="648" pan="0" len="12" vol="62" />
          <note key="55" pos="660" pan="0" len="12" vol="58" />
          <note key="58" pos="672" pan="0" len="12" vol="53" />
          <note key="60" pos="684" pan="0" len="12" vol="47" />
          <note key="63" pos="696" pan="0" len="12" vol="42" />
          <note key="65" pos="708" pan="0" len="12" vol="38" />
          <note key="67" pos="720" pan="0" len="12" vol="31" />
          <note key="70" pos="732" pan="0" len="12" vol="27" />
          <note key="72" pos="744" pan="0" len="12" vol="20" />
          <note key="79" pos="756" pan="0" len="12" vol="16" />
          <note key="67" pos="768" pan="0" len="12" vol="16" />
          <note key="63" pos="780" pan="0" len="12" vol="20" />
          <note key="65" pos="792" pan="0" len="12" vol="27" />
          <note key="62" pos="804" pan="0" len="12" vol="31" />
          <note key="63" pos="816" pan="0" len="12" vol="36" />
          <note key="60" pos="828" pan="0" len="12" vol="42" />
          <note key="62" pos="840" pan="0" len="12" vol="47" />
          <note key="58" pos="852" pan="0" len="12" vol="53" />
          <note key="60" pos="864" pan="0" len="12" vol="58" />
          <note key="55" pos="876" pan="0" len="12" vol="62" />
          <note key="58" pos="888" pan="0" len="12" vol="69" />
          <note key="63" pos="900" pan="0" len="12" vol="73" />
          <note key="62" pos="912" pan="0" len="12" vol="78" />
          <note key="58" pos="924" pan="0" len="12" vol="84" />
          <note key="60" pos="936" pan="0" len="12" vol="89" />
          <note key="67" pos="948" pan="0" len="12" vol="100" />
          <note key="36" pos="960" pan="0" len="12" vol="95" />
          <note key="43" pos="972" pan="0" len="12" vol="89" />
          <note key="46" pos="984" pan="0" len="12" vol="84" />
          <note key="48" pos="996" pan="0" len="12" vol="80" />
          <note key="50" pos="1008" pan="0" len="12" vol="73" />
          <note key="51" pos="1020" pan="0" len="12" vol="69" />
          <note key="53" pos="1032" pan="0" len="12" vol="62" />
          <note key="55" pos="1044" pan="0" len="12" vol="58" />
          <note key="58" pos="1056" pan="0" len="12" vol="53" />
          <note key="60" pos="1068" pan="0" len="12" vol="47" />
          <note key="63" pos="1080" pan="0" len="12" vol="42" />
          <note key="65" pos="1092" pan="0" len="12" vol="38" />
          <note key="67" pos="1104" pan="0" len="12" vol="31" />
          <note key="70" pos="1116" pan="0" len="12" vol="27" />
          <note key="72" pos="1128" pan="0" len="12" vol="20" />
          <note key="79" pos="1140" pan="0" len="12" vol="16" />
          <note key="67" pos="1152" pan="0" len="12" vol="16" />
          <note key="63" pos="1164" pan="0" len="12" vol="20" />
          <note key="65" pos="1176" pan="0" len="12" vol="27" />
          <note key="62" pos="1188" pan="0" len="12" vol="31" />
          <note key="63" pos="1200" pan="0" len="12" vol="36" />
          <note key="60" pos="1212" pan="0" len="12" vol="42" />
          <note key="62" pos="1224" pan="0" len="12" vol="47" />
          <note key="58" pos="1236" pan="0" len="12" vol="53" />
          <note key="60" pos="1248" pan="0" len="12" vol="58" />
          <note key="55" pos="1260" pan="0" len="12" vol="62" />
          <note key="58" pos="1272" pan="0" len="12" vol="69" />
          <note key="63" pos="1284" pan="0" len="12" vol="73" />
          <note key="62" pos="1296" pan="0" len="12" vol="78" />
          <note key="58" pos="1308" pan="0" len="12" vol="84" />
          <note key="60" pos="1320" pan="0" len="12" vol="89" />
          <note key="67" pos="1332" pan="0" len="12" vol="100" />
          <note key="44" pos="1344" pan="0" len="12" vol="95" />
          <note key="56" pos="1356" pan="0" len="12" vol="89" />
          <note key="46" pos="1368" pan="0" len="12" vol="84" />
          <note key="48" pos="1380" pan="0" len="12" vol="80" />
          <note key="50" pos="1392" pan="0" len="12" vol="73" />
          <note key="51" pos="1404" pan="0" len="12" vol="69" />
          <note key="53" pos="1416" pan="0" len="12" vol="62" />
          <note key="55" pos="1428" pan="0" len="12" vol="58" />
          <note key="58" pos="1440" pan="0" len="12" vol="53" />
          <note key="60" pos="1452" pan="0" len="12" vol="47" />
          <note key="63" pos="1464" pan="0" len="12" vol="42" />
          <note key="65" pos="1476" pan="0" len="12" vol="38" />
          <note key="67" pos="1488" pan="0" len="12" vol="31" />
          <note key="70" pos="1500" pan="0" len="12" vol="27" />
          <note key="72" pos="1512" pan="0" len="12" vol="20" />
          <note key="79" pos="1524" pan="0" len="12" vol="16" />
        </pattern>
        <pattern pos="162060" muted="0" steps="16" name="" type="1">
          <note key="67" pos="0" pan="0" len="12" vol="16" />
          <note key="63" pos="12" pan="0" len="12" vol="20" />
          <note key="65" pos="24" pan="0" len="12" vol="27" />
          <note key="62" pos="36" pan="0" len="12" vol="31" />
          <note key="63" pos="48" pan="0" len="12" vol="36" />
          <note key="60" pos="60" pan="0" len="12" vol="42" />
          <note key="62" pos="72" pan="0" len="12" vol="47" />
          <note key="58" pos="84" pan="0" len="12" vol="53" />
          <note key="60" pos="96" pan="0" len="12" vol="58" />
          <note key="55" pos="108" pan="0" len="12" vol="62" />
          <note key="58" pos="120" pan="0" len="12" vol="69" />
          <note key="63" pos="132" pan="0" len="12" vol="73" />
          <note key="62" pos="144" pan="0" len="12" vol="78" />
          <note key="58" pos="156" pan="0" len="12" vol="84" />
          <note key="60" pos="168" pan="0" len="12" vol="89" />
          <note key="67" pos="180" pan="0" len="12" vol="100" />
          <note key="36" pos="192" pan="0" len="12" vol="95" />
          <note key="43" pos="204" pan="0" len="12" vol="89" />
          <note key="46" pos="216" pan="0" len="12" vol="84" />
          <note key="48" pos="228" pan="0" len="12" vol="80" />
          <note key="50" pos="240" pan="0" len="12" vol="73" />
          <note key="51" pos="252" pan="0" len="12" vol="69" />
          <note key="53" pos="264" pan="0" len="12" vol="62" />
          <note key="55" pos="276" pan="0" len="12" vol="58" />
          <note key="58" pos="288" pan="0" len="12" vol="53" />
          <note key="60" pos="300" pan="0" len="12" vol="47" />
          <note key="63" pos="312" pan="0" len="12" vol="42" />
          <note key="65" pos="324" pan="0" len="12" vol="38" />
          <note key="67" pos="336" pan="0" len="12" vol="31" />
          <note key="70" pos="348" pan="0" len="12" vol="27" />
          <note key="72" pos="360" pan="0" len="12" vol="20" />
          <note key="79" pos="372" pan="0" len="12" vol="16" />
          <note key="67" pos="384" pan="0" len="12" vol="16" />
          <note key="63" pos="396" pan="0" len="12" vol="20" />
          <note key="65" pos="408" pan="0" len="12" vol="27" />
          <note key="62" pos="420" pan="0" len="12" vol="31" />
          <note key="63" pos="432" pan="0" len="12" vol="36" />
          <note key="60" pos="444" pan="0" len="12" vol="42" />
          <note key="62" pos="456" pan="0" len="12" vol="47" />
          <note key="58" pos="468" pan="0" len="12" vol="53" />
          <note key="60" pos="480" pan="0" len="12" vol="58" />
          <note key="55" pos="492" pan="0" len="12" vol="62" />
          <note key="58" pos="504" pan="0" len="12" vol="69" />
          <note key="63" pos="516" pan="0" len="12" vol="73" />
          <note key="62" pos="528" pan="0" len="12" vol="78" />
          <note key="58" pos="540" pan="0" len="12" vol="84" />
          <note key="60" pos="552" pan="0" len="12" vol="89" />
          <note key="67" pos="564" pan="0" len="12" vol="100" />
          <note key="44" pos="576" pan="0" len="12" vol="95" />
          <note key="56" pos="588" pan="0" len="12" vol="89" />
          <note key="46" pos="600" pan="0" len="12" vol="84" />
          <note key="48" pos="612" pan="0" len="12" vol="80" />
          <note key="50" pos="624" pan="0" len="12" vol="73" />
          <note key="51" pos="636" pan="0" len="12" vol="69" />
          <note key="53" pos="648" pan="0" len="12" vol="62" />
          <note key="55" pos="660" pan="0" len="12" vol="58" />
          <note key="58" pos="672" pan="0" len="12" vol="53" />
          <note key="60" pos="684" pan="0" len="12" vol="47" />
          <note key="63" pos="696" pan="0" len="12" vol="42" />
          <note key="65" pos="708" pan="0" len="12" vol="38" />
          <note key="67" pos="720" pan="0" len="12" vol="31" />
          <note key="70" pos="732" pan="0" len="12" vol="27" />
          <note key="72" pos="744" pan="0" len="12" vol="20" />
          <note key="79" pos="756" pan="0" len="12" vol="16" />
          <note key="67" pos="768" pan="0" len="12" vol="16" />
          <note key="63" pos="780" pan="0" len="12" vol="20" />
          <note key="65" pos="792" pan="0" len="12" vol="27" />
          <note key="62" pos="804" pan="0" len="12" vol="31" />
          <note key="63" pos="816" pan="0" len="12" vol="36" />
          <note key="60" pos="828" pan="0" len="12" vol="42" />
          <note key="62" pos="840" pan="0" len="12" vol="47" />
          <note key="58" pos="852" pan="0" len="12" vol="53" />
          <note key="60" pos="864" pan="0" len="12" vol="58" />
          <note key="55" pos="876" pan="0" len="12" vol="62" />
          <note key="58" pos="888" pan="0" len="12" vol="69" />
          <note key="63" pos="900" pan="0" len="12" vol="73" />
          <note key="62" pos="912" pan="0" len="12" vol="78" />
          <note key="58" pos="924" pan="0" len="12" vol="84" />
          <note key="60" pos="936" pan="0" len="12" vol="89" />
          <note key="67" pos="948" pan="0" len="12" vol="100" />
          <note key="36" pos="960" pan="0" len="12" vol="95" />
          <note key="43" pos="972" pan="0" len="12" vol="89" />
          <note key="46" pos="984" pan="0" len="12" vol="84" />
          <note key="48" pos="996" pan="0" len="12" vol="80" />
          <note key="50" pos="1008" pan="0" len="12" vol="73" />
          <note key="51" pos="1020" pan="0" len="12" vol="69" />
          <note key="53" pos="1032" pan="0" len="12" vol="62" />
          <note key="55" pos="1044" pan="0" len="12" vol="58" />
          <note key="58" pos="1056" pan="0" len="12" vol="53" />
          <note key="60" pos="1068" pan="0" len="12" vol="47" />
          <note key="63" pos="1080" pan="0" len="12" vol="42" />
          <note key="65" pos="1092" pan="0" len="12" vol="38" />
          <note key="67" pos="1104" pan="0" len="12" vol="31" />
          <note key="70" pos="1116" pan="0" len="12" vol="27" />
          <note key="72" pos="1128" pan="0" len="12" vol="20" />
          <note key="79" pos="1140" pan="0" len="12" vol="16" />
          <note key="67" pos="1152" pan="0" len="12" vol="16" />
          <note key="63" pos="1164" pan="0" len="12" vol="20" />
          <note key="65" pos="1176" pan="0" len="12" vol="27" />
          <note key="62" pos="1188" pan="0" len="12" vol="31" />
          <note key="63" pos="1200" pan="0" len="12" vol="36" />
          <note key="60" pos="1212" pan="0" len="12" vol="42" />
          <note key="62" pos="1224" pan="0" len="12" vol="47" />
          <note key="58" pos="1236" pan="0" len="12" vol="53" />
          <note key="60" pos="1248" pan="0" len="12" vol="58" />
          <note key="55" pos="1260" pan="0" len="12" vol="62" />
          <note key="58" pos="1272" pan="0" len="12" vol="69" />
          <note key="63" pos="1284" pan="0" len="12" vol="73" />
          <note key="62" pos="1296" pan="0" len="12" vol="78" />
          <note key="58" pos="1308" pan="0" len="12" vol="84" />
          <note key="60" pos="1320" pan="0" len="12" vol="89" />
          <note key="67" pos="1332" pan="0" len="12" vol="100" />
          <note key="44" pos="1344" pan="0" len="12" vol="95" />
          <note key="56" pos="1356" pan="0" len="12" vol="89" />
          <note key="46" pos="1368" pan="0" len="12" vol="84" />
          <note key="48" pos="1380" pan="0" len="12" vol="80" />
          <note key="50" pos="1392" pan="0" len="12" vol="73" />
          <note key="51" pos="1404" pan="0" len="12" vol="69" />
          <note key="53" pos="1416" pan="0" len="12" vol="62" />
          <note key="55" pos="1428" pan="0" len="12" vol="58" />
          <note key="58" pos="1440" pan="0" len="12" vol="53" />
          <note key="60" pos="1452" pan="0" len="12" vol="47" />
          <note key="63" pos="1464" pan="0" len="12" vol="42" />
          <note key="65" pos="1476" pan="0" len="12" vol="38" />
          <note key="67" pos="1488" pan="0" len="12" vol="31" />
          <note key="70" pos="1500" pan="0" len="12" vol="27" />
          <note key="72" pos="1512" pan="0" len="12" vol="20" />
          <note key="79" pos="1524" pan="0" len="12" vol="16" />
        </pattern>
        <pattern pos="237324" muted="0" steps="16" name="" type="1">
          <note key="53" pos="0" pan="0" len="36" vol="100" />
          <note key="58" pos="36" pan="0" len="24" vol="100" />
          <note key="53" pos="60" pan="0" len="12" vol="100" />
          <note key="56" pos="72" pan="0" len="120" vol="100" />
          <note key="51" pos="192" pan="0" len="36" vol="100" />
          <note key="53" pos="228" pan="0" len="36" vol="100" />
          <note key="49" pos="264" pan="0" len="12" vol="100" />
          <note key="48" pos="276" pan="0" len="120" vol="100" />
          <note key="48" pos="396" pan="0" len="12" vol="100" />
          <note key="49" pos="408" pan="0" len="12" vol="100" />
          <note key="51" pos="420" pan="0" len="12" vol="100" />
          <note key="53" pos="432" pan="0" len="12" vol="100" />
          <note key="56" pos="444" pan="0" len="12" vol="100" />
          <note key="55" pos="456" pan="0" len="12" vol="100" />
          <note key="58" pos="468" pan="0" len="12" vol="100" />
          <note key="60" pos="480" pan="0" len="12" vol="100" />
          <note key="61" pos="492" pan="0" len="12" vol="100" />
          <note key="63" pos="504" pan="0" len="12" vol="100" />
          <note key="68" pos="516" pan="0" len="12" vol="100" />
          <note key="67" pos="528" pan="0" len="12" vol="100" />
          <note key="63" pos="540" pan="0" len="12" vol="100" />
          <note key="65" pos="552" pan="0" len="12" vol="100" />
          <note key="70" pos="564" pan="0" len="12" vol="100" />
          <note key="72" pos="576" pan="0" len="12" vol="100" />
          <note key="73" pos="588" pan="0" len="12" vol="100" />
          <note key="75" pos="600" pan="0" len="12" vol="100" />
          <note key="77" pos="612" pan="0" len="12" vol="100" />
          <note key="79" pos="624" pan="0" len="12" vol="100" />
          <note key="80" pos="636" pan="0" len="12" vol="100" />
          <note key="79" pos="648" pan="0" len="12" vol="100" />
          <note key="75" pos="660" pan="0" len="12" vol="100" />
          <note key="73" pos="672" pan="0" len="12" vol="100" />
          <note key="72" pos="684" pan="0" len="12" vol="100" />
          <note key="68" pos="696" pan="0" len="12" vol="100" />
          <note key="67" pos="708" pan="0" len="12" vol="100" />
          <note key="63" pos="720" pan="0" len="12" vol="100" />
          <note key="61" pos="732" pan="0" len="12" vol="100" />
          <note key="60" pos="744" pan="0" len="12" vol="100" />
          <note key="56" pos="756" pan="0" len="12" vol="100" />
          <note key="53" pos="768" pan="0" len="768" vol="100" />
        </pattern>
      </track>
      <track solo="0" name="76 (Ch11)" type="0" muted="0">
        <instrumenttrack usemasterpitch="1" pitch="0.0" basenote="57" pan="0" pitchrange="12" vol="30">
          <eldata />
          <instrument name="tripleoscillator" />
        </instrumenttrack>
        <pattern pos="245004" muted="0" steps="16" name="" type="1">
          <note key="51" pos="768" pan="0" len="12" vol="100" />
          <note key="52" pos="780" pan="0" len="12" vol="100" />
          <note key="54" pos="792" pan="0" len="12" vol="100" />
          <note key="56" pos="804" pan="0" len="12" vol="100" />
          <note key="59" pos="816" pan="0" len="12" vol="100" />
          <note key="58" pos="828" pan="0" len="12" vol="100" />
          <note key="61" pos="840" pan="0" len="12" vol="100" />
          <note key="63" pos="852" pan="0" len="12" vol="100" />
          <note key="64" pos="864" pan="0" len="12" vol="100" />
          <note key="66" pos="876" pan="0" len="12" vol="100" />
          <note key="71" pos="888" pan="0" len="12" vol="100" />
          <note key="70" pos="900" pan="0" len="12" vol="100" />
          <note key="66" pos="912" pan="0" len="12" vol="100" />
          <note key="68" pos="924" pan="0" len="12" vol="100" />
          <note key="73" pos="936" pan="0" len="12" vol="100" />
          <note key="75" pos="948" pan="0" len="12" vol="100" />
          <note key="76" pos="960" pan="0" len="12" vol="100" />
          <note key="78" pos="972" pan="0" len="12" vol="100" />
          <note key="80" pos="984" pan="0" len="12" vol="100" />
          <note key="82" pos="996" pan="0" len="12" vol="100" />
          <note key="83" pos="1008" pan="0" len="12" vol="100" />
          <note key="82" pos="1020" pan="0" len="12" vol="100" />
          <note key="78" pos="1032" pan="0" len="12" vol="100" />
          <note key="76" pos="1044" pan="0" len="12" vol="100" />
          <note key="75" pos="1056" pan="0" len="12" vol="100" />
          <note key="71" pos="1068" pan="0" len="12" vol="100" />
          <note key="70" pos="1080" pan="0" len="12" vol="100" />
          <note key="66" pos="1092" pan="0" len="12" vol="100" />
          <note key="64" pos="1104" pan="0" len="12" vol="100" />
          <note key="63" pos="1116" pan="0" len="12" vol="100" />
          <note key="59" pos="1128" pan="0" len="12" vol="100" />
          <note key="56" pos="1140" pan="0" len="396" vol="100" />
        </pattern>
        <pattern pos="238860" muted="0" steps="16" name="" type="1">
          <note key="48" pos="384" pan="0" len="12" vol="100" />
          <note key="49" pos="396" pan="0" len="12" vol="100" />
          <note key="51" pos="408" pan="0" len="12" vol="100" />
          <note key="53" pos="420" pan="0" len="12" vol="100" />
          <note key="56" pos="432" pan="0" len="12" vol="100" />
          <note key="55" pos="444" pan="0" len="12" vol="100" />
          <note key="58" pos="456" pan="0" len="12" vol="100" />
          <note key="60" pos="468" pan="0" len="12" vol="100" />
          <note key="61" pos="480" pan="0" len="12" vol="100" />
          <note key="63" pos="492" pan="0" len="12" vol="100" />
          <note key="68" pos="504" pan="0" len="12" vol="100" />
          <note key="67" pos="516" pan="0" len="12" vol="100" />
          <note key="63" pos="528" pan="0" len="12" vol="100" />
          <note key="65" pos="540" pan="0" len="12" vol="100" />
          <note key="70" pos="552" pan="0" len="12" vol="100" />
          <note key="72" pos="564" pan="0" len="12" vol="100" />
          <note key="73" pos="576" pan="0" len="12" vol="100" />
          <note key="75" pos="588" pan="0" len="12" vol="100" />
          <note key="77" pos="600" pan="0" len="12" vol="100" />
          <note key="79" pos="612" pan="0" len="12" vol="100" />
          <note key="80" pos="624" pan="0" len="12" vol="100" />
          <note key="79" pos="636" pan="0" len="12" vol="100" />
          <note key="75" pos="648" pan="0" len="12" vol="100" />
          <note key="73" pos="660" pan="0" len="12" vol="100" />
          <note key="72" pos="672" pan="0" len="12" vol="100" />
          <note key="68" pos="684" pan="0" len="12" vol="100" />
          <note key="67" pos="696" pan="0" len="12" vol="100" />
          <note key="63" pos="708" pan="0" len="12" vol="100" />
          <note key="61" pos="720" pan="0" len="12" vol="100" />
          <note key="60" pos="732" pan="0" len="12" vol="100" />
          <note key="56" pos="744" pan="0" len="12" vol="100" />
          <note key="53" pos="756" pan="0" len="780" vol="100" />
        </pattern>
      </track>
      <track solo="0" name="77 (Ch2)" type="0" muted="0">
        <instrumenttrack usemasterpitch="1" pitch="0.0" basenote="57" pan="0" pitchrange="12" vol="30">
          <eldata />
          <instrument name="tripleoscillator" />
        </instrumenttrack>
        <pattern pos="169740" muted="0" steps="16" name="" type="1">
          <note key="29" pos="576" pan="0" len="768" vol="100" />
        </pattern>
      </track>
      <track solo="0" name="77 (Ch3)" type="0" muted="0">
        <instrumenttrack usemasterpitch="1" pitch="0.0" basenote="57" pan="0" pitchrange="12" vol="30">
          <eldata />
          <instrument name="tripleoscillator" />
        </instrumenttrack>
        <pattern pos="201228" muted="0" steps="16" name="" type="1">
          <note key="24" pos="0" pan="0" len="252" vol="100" />
        </pattern>
      </track>
      <track solo="0" name="77 (Ch10)" type="0" muted="0">
        <instrumenttrack usemasterpitch="1" pitch="0.0" basenote="57" pan="0" pitchrange="12" vol="30">
          <eldata />
          <instrument name="tripleoscillator" />
        </instrumenttrack>
        <pattern pos="221196" muted="0" steps="16" name="" type="1">
          <note key="29" pos="1152" pan="0" len="384" vol="100" />
        </pattern>
      </track>
      <track solo="0" name="78 (Ch2)" type="0" muted="0">
        <instrumenttrack usemasterpitch="1" pitch="0.0" basenote="57" pan="0" pitchrange="12" vol="30">
          <eldata />
          <instrument name="tripleoscillator" />
        </instrumenttrack>
        <pattern pos="169740" muted="0" steps="16" name="" type="1">
          <note key="24" pos="1344" pan="0" len="384" vol="100" />
        </pattern>
      </track>
      <track solo="0" name="78 (Ch10)" type="0" muted="0">
        <instrumenttrack usemasterpitch="1" pitch="0.0" basenote="57" pan="0" pitchrange="12" vol="30">
          <eldata />
          <instrument name="tripleoscillator" />
        </instrumenttrack>
        <pattern pos="231948" muted="0" steps="16" name="" type="1">
          <note key="19" pos="0" pan="0" len="1536" vol="100" />
        </pattern>
        <pattern pos="221196" muted="0" steps="16" name="" type="1">
          <note key="24" pos="768" pan="0" len="384" vol="100" />
        </pattern>
        <pattern pos="222732" muted="0" steps="16" name="" type="1">
          <note key="19" pos="0" pan="0" len="1536" vol="100" />
        </pattern>
      </track>
      <track solo="0" name="78 (Ch11)" type="0" muted="0">
        <instrumenttrack usemasterpitch="1" pitch="0.0" basenote="57" pan="0" pitchrange="12" vol="30">
          <eldata />
          <instrument name="tripleoscillator" />
        </instrumenttrack>
        <pattern pos="248076" muted="0" steps="16" name="" type="1">
          <note key="36" pos="0" pan="0" len="84" vol="100" />
        </pattern>
      </track>
      <track solo="0" name="79 (Ch1)" type="0" muted="0">
        <instrumenttrack usemasterpitch="1" pitch="0.0" basenote="57" pan="0" pitchrange="12" vol="30">
          <eldata />
          <instrument name="tripleoscillator" />
        </instrumenttrack>
        <pattern pos="245004" muted="0" steps="16" name="" type="1">
          <note key="55" pos="0" pan="0" len="384" vol="100" />
          <note key="55" pos="384" pan="0" len="384" vol="100" />
          <note key="55" pos="768" pan="0" len="384" vol="100" />
          <note key="55" pos="1152" pan="0" len="384" vol="100" />
        </pattern>
        <pattern pos="237324" muted="0" steps="16" name="" type="1">
          <note key="55" pos="0" pan="0" len="384" vol="100" />
          <note key="55" pos="384" pan="0" len="384" vol="100" />
          <note key="55" pos="768" pan="0" len="384" vol="100" />
          <note key="55" pos="1152" pan="0" len="384" vol="100" />
        </pattern>
        <pattern pos="238860" muted="0" steps="16" name="" type="1">
          <note key="55" pos="0" pan="0" len="384" vol="100" />
          <note key="55" pos="384" pan="0" len="384" vol="100" />
          <note key="55" pos="768" pan="0" len="384" vol="100" />
          <note key="55" pos="1152" pan="0" len="384" vol="100" />
        </pattern>
        <pattern pos="240396" muted="0" steps="16" name="" type="1">
          <note key="55" pos="0" pan="0" len="384" vol="100" />
          <note key="55" pos="384" pan="0" len="384" vol="100" />
          <note key="55" pos="768" pan="0" len="384" vol="100" />
          <note key="55" pos="1152" pan="0" len="384" vol="100" />
        </pattern>
        <pattern pos="243468" muted="0" steps="16" name="" type="1">
          <note key="55" pos="0" pan="0" len="384" vol="100" />
          <note key="55" pos="384" pan="0" len="384" vol="100" />
          <note key="55" pos="768" pan="0" len="384" vol="100" />
          <note key="55" pos="1152" pan="0" len="384" vol="100" />
        </pattern>
      </track>
      <track solo="0" name="80 (Ch8)" type="0" muted="0">
        <instrumenttrack usemasterpitch="1" pitch="0.0" basenote="57" pan="0" pitchrange="12" vol="30">
          <eldata />
          <instrument name="tripleoscillator" />
        </instrumenttrack>
        <pattern pos="238860" muted="0" steps="16" name="" type="1">
          <note key="62" pos="0" pan="0" len="36" vol="0" />
          <note key="69" pos="36" pan="0" len="36" vol="6" />
          <note key="67" pos="72" pan="0" len="36" vol="12" />
          <note key="72" pos="108" pan="0" len="36" vol="19" />
          <note key="71" pos="144" pan="0" len="24" vol="23" />
          <note key="67" pos="168" pan="0" len="24" vol="28" />
          <note key="69" pos="192" pan="0" len="36" vol="33" />
          <note key="62" pos="228" pan="0" len="36" vol="39" />
          <note key="60" pos="264" pan="0" len="36" vol="44" />
          <note key="65" pos="300" pan="0" len="36" vol="50" />
          <note key="64" pos="336" pan="0" len="24" vol="56" />
          <note key="60" pos="360" pan="0" len="24" vol="61" />
          <note key="57" pos="384" pan="0" len="384" vol="62" />
        </pattern>
      </track>
      <track solo="0" name="80 (Ch10)" type="0" muted="0">
        <instrumenttrack usemasterpitch="1" pitch="0.0" basenote="57" pan="0" pitchrange="12" vol="30">
          <eldata />
          <instrument name="tripleoscillator" />
        </instrumenttrack>
        <pattern pos="241932" muted="0" steps="16" name="" type="1">
          <note key="50" pos="768" pan="0" len="192" vol="42" />
          <note key="48" pos="960" pan="0" len="192" vol="42" />
          <note key="50" pos="1152" pan="0" len="24" vol="59" />
          <note key="62" pos="1176" pan="0" len="12" vol="31" />
          <note key="60" pos="1188" pan="0" len="24" vol="59" />
          <note key="62" pos="1212" pan="0" len="24" vol="59" />
          <note key="65" pos="1236" pan="0" len="24" vol="16" />
          <note key="67" pos="1260" pan="0" len="24" vol="59" />
          <note key="69" pos="1284" pan="0" len="24" vol="31" />
          <note key="72" pos="1308" pan="0" len="24" vol="59" />
          <note key="67" pos="1332" pan="0" len="204" vol="59" />
        </pattern>
      </track>
      <track solo="0" name="80 (Ch11)" type="0" muted="0">
        <instrumenttrack usemasterpitch="1" pitch="0.0" basenote="57" pan="0" pitchrange="12" vol="30">
          <eldata />
          <instrument name="tripleoscillator" />
        </instrumenttrack>
        <pattern pos="241932" muted="0" steps="16" name="" type="1">
          <note key="55" pos="768" pan="0" len="192" vol="42" />
          <note key="53" pos="960" pan="0" len="192" vol="42" />
        </pattern>
      </track>
      <track solo="0" name="80 (Ch12)" type="0" muted="0">
        <instrumenttrack usemasterpitch="1" pitch="0.0" basenote="57" pan="0" pitchrange="12" vol="30">
          <eldata />
          <instrument name="tripleoscillator" />
        </instrumenttrack>
        <pattern pos="248076" muted="0" steps="16" name="" type="1">
          <note key="48" pos="0" pan="0" len="12" vol="100" />
          <note key="50" pos="12" pan="0" len="372" vol="100" />
        </pattern>
        <pattern pos="241932" muted="0" steps="16" name="" type="1">
          <note key="60" pos="768" pan="0" len="24" vol="42" />
          <note key="55" pos="960" pan="0" len="216" vol="42" />
        </pattern>
      </track>
      <track solo="0" name="80 (Ch13)" type="0" muted="0">
        <instrumenttrack usemasterpitch="1" pitch="0.0" basenote="57" pan="0" pitchrange="12" vol="30">
          <eldata />
          <instrument name="tripleoscillator" />
        </instrumenttrack>
        <pattern pos="241932" muted="0" steps="16" name="" type="1">
          <note key="62" pos="768" pan="0" len="192" vol="42" />
          <note key="60" pos="960" pan="0" len="576" vol="42" />
        </pattern>
      </track>
      <track solo="0" name="81 (Ch1)" type="0" muted="0">
        <instrumenttrack usemasterpitch="1" pitch="0.0" basenote="57" pan="0" pitchrange="12" vol="30">
          <eldata />
          <instrument name="tripleoscillator" />
        </instrumenttrack>
        <pattern pos="198924" muted="0" steps="16" name="" type="1">
          <note key="55" pos="0" pan="0" len="24" vol="100" />
          <note key="48" pos="48" pan="0" len="24" vol="100" />
          <note key="45" pos="96" pan="0" len="24" vol="100" />
          <note key="47" pos="120" pan="0" len="24" vol="100" />
          <note key="55" pos="192" pan="0" len="24" vol="100" />
          <note key="54" pos="216" pan="0" len="24" vol="100" />
          <note key="48" pos="240" pan="0" len="24" vol="100" />
          <note key="45" pos="288" pan="0" len="24" vol="100" />
          <note key="47" pos="312" pan="0" len="24" vol="100" />
          <note key="55" pos="384" pan="0" len="24" vol="100" />
          <note key="48" pos="432" pan="0" len="24" vol="100" />
          <note key="45" pos="480" pan="0" len="24" vol="100" />
          <note key="47" pos="504" pan="0" len="24" vol="100" />
          <note key="55" pos="576" pan="0" len="24" vol="100" />
          <note key="54" pos="600" pan="0" len="24" vol="100" />
          <note key="48" pos="624" pan="0" len="24" vol="100" />
          <note key="45" pos="672" pan="0" len="24" vol="100" />
          <note key="47" pos="696" pan="0" len="24" vol="100" />
          <note key="55" pos="768" pan="0" len="24" vol="100" />
          <note key="48" pos="816" pan="0" len="24" vol="100" />
          <note key="45" pos="864" pan="0" len="24" vol="100" />
          <note key="47" pos="888" pan="0" len="24" vol="100" />
          <note key="55" pos="960" pan="0" len="24" vol="100" />
          <note key="54" pos="984" pan="0" len="24" vol="100" />
          <note key="48" pos="1008" pan="0" len="24" vol="100" />
          <note key="45" pos="1056" pan="0" len="24" vol="100" />
          <note key="47" pos="1080" pan="0" len="24" vol="100" />
          <note key="55" pos="1152" pan="0" len="24" vol="100" />
          <note key="48" pos="1200" pan="0" len="24" vol="100" />
          <note key="45" pos="1248" pan="0" len="24" vol="100" />
          <note key="47" pos="1272" pan="0" len="24" vol="100" />
          <note key="55" pos="1344" pan="0" len="24" vol="100" />
          <note key="54" pos="1368" pan="0" len="24" vol="100" />
          <note key="48" pos="1392" pan="0" len="24" vol="100" />
          <note key="45" pos="1440" pan="0" len="24" vol="100" />
          <note key="47" pos="1464" pan="0" len="24" vol="100" />
        </pattern>
        <pattern pos="194316" muted="0" steps="16" name="" type="1">
          <note key="62" pos="0" pan="0" len="24" vol="100" />
          <note key="55" pos="48" pan="0" len="24" vol="100" />
          <note key="52" pos="96" pan="0" len="24" vol="100" />
          <note key="54" pos="120" pan="0" len="24" vol="100" />
          <note key="62" pos="192" pan="0" len="24" vol="100" />
          <note key="61" pos="216" pan="0" len="24" vol="100" />
          <note key="55" pos="240" pan="0" len="24" vol="100" />
          <note key="52" pos="288" pan="0" len="24" vol="100" />
          <note key="54" pos="312" pan="0" len="24" vol="100" />
          <note key="62" pos="384" pan="0" len="24" vol="100" />
          <note key="55" pos="432" pan="0" len="24" vol="100" />
          <note key="52" pos="480" pan="0" len="24" vol="100" />
          <note key="54" pos="504" pan="0" len="24" vol="100" />
          <note key="62" pos="576" pan="0" len="24" vol="100" />
          <note key="61" pos="600" pan="0" len="24" vol="100" />
          <note key="55" pos="624" pan="0" len="24" vol="100" />
          <note key="52" pos="672" pan="0" len="24" vol="100" />
          <note key="54" pos="696" pan="0" len="24" vol="100" />
          <note key="62" pos="768" pan="0" len="24" vol="100" />
          <note key="55" pos="816" pan="0" len="24" vol="100" />
          <note key="52" pos="864" pan="0" len="24" vol="100" />
          <note key="54" pos="888" pan="0" len="24" vol="100" />
          <note key="62" pos="960" pan="0" len="24" vol="100" />
          <note key="61" pos="984" pan="0" len="24" vol="100" />
          <note key="55" pos="1008" pan="0" len="24" vol="100" />
          <note key="52" pos="1056" pan="0" len="24" vol="100" />
          <note key="54" pos="1080" pan="0" len="24" vol="100" />
          <note key="62" pos="1152" pan="0" len="24" vol="100" />
          <note key="55" pos="1200" pan="0" len="24" vol="100" />
          <note key="52" pos="1248" pan="0" len="24" vol="100" />
          <note key="54" pos="1272" pan="0" len="24" vol="100" />
          <note key="62" pos="1344" pan="0" len="24" vol="100" />
          <note key="61" pos="1368" pan="0" len="24" vol="100" />
          <note key="55" pos="1392" pan="0" len="24" vol="100" />
          <note key="52" pos="1440" pan="0" len="24" vol="100" />
          <note key="54" pos="1464" pan="0" len="24" vol="100" />
        </pattern>
        <pattern pos="195852" muted="0" steps="16" name="" type="1">
          <note key="61" pos="0" pan="0" len="24" vol="100" />
          <note key="57" pos="48" pan="0" len="24" vol="100" />
          <note key="61" pos="72" pan="0" len="24" vol="100" />
          <note key="62" pos="96" pan="0" len="24" vol="100" />
          <note key="57" pos="120" pan="0" len="24" vol="100" />
          <note key="64" pos="192" pan="0" len="24" vol="100" />
          <note key="55" pos="216" pan="0" len="24" vol="100" />
          <note key="62" pos="240" pan="0" len="24" vol="100" />
          <note key="52" pos="288" pan="0" len="24" vol="100" />
          <note key="59" pos="312" pan="0" len="24" vol="100" />
          <note key="62" pos="384" pan="0" len="24" vol="100" />
          <note key="55" pos="432" pan="0" len="24" vol="100" />
          <note key="52" pos="480" pan="0" len="24" vol="100" />
          <note key="54" pos="504" pan="0" len="24" vol="100" />
          <note key="62" pos="576" pan="0" len="24" vol="100" />
          <note key="61" pos="600" pan="0" len="24" vol="100" />
          <note key="55" pos="624" pan="0" len="24" vol="100" />
          <note key="52" pos="672" pan="0" len="24" vol="100" />
          <note key="54" pos="696" pan="0" len="24" vol="100" />
          <note key="61" pos="768" pan="0" len="24" vol="100" />
          <note key="57" pos="816" pan="0" len="24" vol="100" />
          <note key="61" pos="840" pan="0" len="24" vol="100" />
          <note key="62" pos="864" pan="0" len="24" vol="100" />
          <note key="57" pos="888" pan="0" len="24" vol="100" />
          <note key="64" pos="960" pan="0" len="24" vol="100" />
          <note key="55" pos="984" pan="0" len="24" vol="100" />
          <note key="62" pos="1008" pan="0" len="24" vol="100" />
          <note key="52" pos="1056" pan="0" len="24" vol="100" />
          <note key="59" pos="1080" pan="0" len="24" vol="100" />
          <note key="62" pos="1152" pan="0" len="24" vol="100" />
          <note key="55" pos="1200" pan="0" len="24" vol="100" />
          <note key="52" pos="1248" pan="0" len="24" vol="100" />
          <note key="54" pos="1272" pan="0" len="24" vol="100" />
          <note key="62" pos="1344" pan="0" len="24" vol="100" />
          <note key="61" pos="1368" pan="0" len="24" vol="100" />
          <note key="55" pos="1392" pan="0" len="24" vol="100" />
          <note key="52" pos="1440" pan="0" len="24" vol="100" />
          <note key="54" pos="1464" pan="0" len="24" vol="100" />
        </pattern>
        <pattern pos="197388" muted="0" steps="16" name="" type="1">
          <note key="59" pos="0" pan="0" len="24" vol="100" />
          <note key="52" pos="48" pan="0" len="24" vol="100" />
          <note key="49" pos="96" pan="0" len="24" vol="100" />
          <note key="51" pos="120" pan="0" len="24" vol="100" />
          <note key="59" pos="192" pan="0" len="24" vol="100" />
          <note key="58" pos="216" pan="0" len="24" vol="100" />
          <note key="52" pos="240" pan="0" len="24" vol="100" />
          <note key="49" pos="288" pan="0" len="24" vol="100" />
          <note key="51" pos="312" pan="0" len="24" vol="100" />
          <note key="59" pos="384" pan="0" len="24" vol="100" />
          <note key="52" pos="432" pan="0" len="24" vol="100" />
          <note key="49" pos="480" pan="0" len="24" vol="100" />
          <note key="51" pos="504" pan="0" len="24" vol="100" />
          <note key="59" pos="576" pan="0" len="24" vol="100" />
          <note key="58" pos="600" pan="0" len="24" vol="100" />
          <note key="52" pos="624" pan="0" len="24" vol="100" />
          <note key="49" pos="672" pan="0" len="24" vol="100" />
          <note key="51" pos="696" pan="0" len="24" vol="100" />
          <note key="57" pos="768" pan="0" len="24" vol="100" />
          <note key="50" pos="816" pan="0" len="24" vol="100" />
          <note key="47" pos="864" pan="0" len="24" vol="100" />
          <note key="49" pos="888" pan="0" len="24" vol="100" />
          <note key="57" pos="960" pan="0" len="24" vol="100" />
          <note key="56" pos="984" pan="0" len="24" vol="100" />
          <note key="50" pos="1008" pan="0" len="24" vol="100" />
          <note key="47" pos="1056" pan="0" len="24" vol="100" />
          <note key="49" pos="1080" pan="0" len="24" vol="100" />
          <note key="57" pos="1152" pan="0" len="24" vol="100" />
          <note key="50" pos="1200" pan="0" len="24" vol="100" />
          <note key="47" pos="1248" pan="0" len="24" vol="100" />
          <note key="49" pos="1272" pan="0" len="24" vol="100" />
          <note key="57" pos="1344" pan="0" len="24" vol="100" />
          <note key="56" pos="1368" pan="0" len="24" vol="100" />
          <note key="50" pos="1392" pan="0" len="24" vol="100" />
          <note key="47" pos="1440" pan="0" len="24" vol="100" />
          <note key="49" pos="1464" pan="0" len="24" vol="100" />
        </pattern>
      </track>
      <track solo="0" name="81 (Ch17)" type="0" muted="0">
        <instrumenttrack usemasterpitch="1" pitch="0.0" basenote="57" pan="0" pitchrange="12" vol="30">
          <eldata />
          <instrument name="tripleoscillator" />
        </instrumenttrack>
        <pattern pos="218892" muted="0" steps="16" name="" type="1">
          <note key="74" pos="0" pan="0" len="12" vol="86" />
          <note key="75" pos="12" pan="0" len="12" vol="78" />
          <note key="74" pos="24" pan="0" len="12" vol="69" />
          <note key="78" pos="36" pan="0" len="12" vol="61" />
          <note key="74" pos="48" pan="0" len="12" vol="52" />
          <note key="75" pos="60" pan="0" len="12" vol="44" />
          <note key="74" pos="72" pan="0" len="12" vol="34" />
          <note key="78" pos="84" pan="0" len="12" vol="27" />
          <note key="74" pos="96" pan="0" len="12" vol="17" />
          <note key="75" pos="108" pan="0" len="12" vol="27" />
          <note key="74" pos="120" pan="0" len="12" vol="38" />
          <note key="78" pos="132" pan="0" len="12" vol="47" />
          <note key="74" pos="144" pan="0" len="12" vol="56" />
          <note key="75" pos="156" pan="0" len="12" vol="66" />
          <note key="74" pos="168" pan="0" len="12" vol="77" />
          <note key="78" pos="180" pan="0" len="12" vol="86" />
          <note key="74" pos="192" pan="0" len="12" vol="86" />
          <note key="75" pos="204" pan="0" len="12" vol="78" />
          <note key="74" pos="216" pan="0" len="12" vol="69" />
          <note key="78" pos="228" pan="0" len="12" vol="61" />
          <note key="74" pos="240" pan="0" len="12" vol="52" />
          <note key="75" pos="252" pan="0" len="12" vol="44" />
          <note key="74" pos="264" pan="0" len="12" vol="34" />
          <note key="78" pos="276" pan="0" len="12" vol="27" />
          <note key="74" pos="288" pan="0" len="12" vol="17" />
          <note key="75" pos="300" pan="0" len="12" vol="27" />
          <note key="74" pos="312" pan="0" len="12" vol="38" />
          <note key="78" pos="324" pan="0" len="12" vol="47" />
          <note key="74" pos="336" pan="0" len="12" vol="56" />
          <note key="75" pos="348" pan="0" len="12" vol="66" />
          <note key="74" pos="360" pan="0" len="12" vol="77" />
          <note key="78" pos="372" pan="0" len="12" vol="86" />
          <note key="74" pos="384" pan="0" len="12" vol="86" />
          <note key="75" pos="396" pan="0" len="12" vol="78" />
          <note key="74" pos="408" pan="0" len="12" vol="69" />
          <note key="78" pos="420" pan="0" len="12" vol="61" />
          <note key="74" pos="432" pan="0" len="12" vol="52" />
          <note key="75" pos="444" pan="0" len="12" vol="44" />
          <note key="74" pos="456" pan="0" len="12" vol="34" />
          <note key="78" pos="468" pan="0" len="12" vol="27" />
          <note key="74" pos="480" pan="0" len="12" vol="17" />
          <note key="75" pos="492" pan="0" len="12" vol="27" />
          <note key="74" pos="504" pan="0" len="12" vol="38" />
          <note key="78" pos="516" pan="0" len="12" vol="47" />
          <note key="74" pos="528" pan="0" len="12" vol="56" />
          <note key="75" pos="540" pan="0" len="12" vol="66" />
          <note key="74" pos="552" pan="0" len="12" vol="77" />
          <note key="78" pos="564" pan="0" len="12" vol="86" />
          <note key="74" pos="576" pan="0" len="12" vol="86" />
          <note key="75" pos="588" pan="0" len="12" vol="78" />
          <note key="74" pos="600" pan="0" len="12" vol="69" />
          <note key="78" pos="612" pan="0" len="12" vol="61" />
          <note key="74" pos="624" pan="0" len="12" vol="52" />
          <note key="75" pos="636" pan="0" len="12" vol="44" />
          <note key="74" pos="648" pan="0" len="12" vol="34" />
          <note key="78" pos="660" pan="0" len="12" vol="27" />
          <note key="74" pos="672" pan="0" len="12" vol="17" />
          <note key="75" pos="684" pan="0" len="12" vol="27" />
          <note key="74" pos="696" pan="0" len="12" vol="38" />
          <note key="78" pos="708" pan="0" len="12" vol="47" />
          <note key="74" pos="720" pan="0" len="12" vol="56" />
          <note key="75" pos="732" pan="0" len="12" vol="66" />
          <note key="74" pos="744" pan="0" len="12" vol="77" />
          <note key="78" pos="756" pan="0" len="12" vol="86" />
          <note key="74" pos="768" pan="0" len="12" vol="86" />
          <note key="75" pos="780" pan="0" len="12" vol="78" />
          <note key="74" pos="792" pan="0" len="12" vol="69" />
          <note key="78" pos="804" pan="0" len="12" vol="61" />
          <note key="74" pos="816" pan="0" len="12" vol="52" />
          <note key="75" pos="828" pan="0" len="12" vol="44" />
          <note key="74" pos="840" pan="0" len="12" vol="34" />
          <note key="78" pos="852" pan="0" len="12" vol="27" />
          <note key="74" pos="864" pan="0" len="12" vol="17" />
          <note key="75" pos="876" pan="0" len="12" vol="27" />
          <note key="74" pos="888" pan="0" len="12" vol="38" />
          <note key="78" pos="900" pan="0" len="12" vol="47" />
          <note key="74" pos="912" pan="0" len="12" vol="56" />
          <note key="75" pos="924" pan="0" len="12" vol="66" />
          <note key="74" pos="936" pan="0" len="12" vol="77" />
          <note key="78" pos="948" pan="0" len="12" vol="86" />
          <note key="74" pos="960" pan="0" len="12" vol="86" />
          <note key="75" pos="972" pan="0" len="12" vol="78" />
          <note key="74" pos="984" pan="0" len="12" vol="69" />
          <note key="78" pos="996" pan="0" len="12" vol="61" />
          <note key="74" pos="1008" pan="0" len="12" vol="52" />
          <note key="75" pos="1020" pan="0" len="12" vol="44" />
          <note key="74" pos="1032" pan="0" len="12" vol="34" />
          <note key="78" pos="1044" pan="0" len="12" vol="27" />
          <note key="74" pos="1056" pan="0" len="12" vol="17" />
          <note key="75" pos="1068" pan="0" len="12" vol="27" />
          <note key="74" pos="1080" pan="0" len="12" vol="38" />
          <note key="78" pos="1092" pan="0" len="12" vol="47" />
          <note key="74" pos="1104" pan="0" len="12" vol="56" />
          <note key="75" pos="1116" pan="0" len="12" vol="66" />
          <note key="74" pos="1128" pan="0" len="12" vol="77" />
          <note key="78" pos="1140" pan="0" len="12" vol="86" />
          <note key="74" pos="1152" pan="0" len="12" vol="86" />
          <note key="75" pos="1164" pan="0" len="12" vol="78" />
          <note key="74" pos="1176" pan="0" len="12" vol="69" />
          <note key="78" pos="1188" pan="0" len="12" vol="61" />
          <note key="74" pos="1200" pan="0" len="12" vol="52" />
          <note key="75" pos="1212" pan="0" len="12" vol="44" />
          <note key="74" pos="1224" pan="0" len="12" vol="34" />
          <note key="78" pos="1236" pan="0" len="12" vol="27" />
          <note key="74" pos="1248" pan="0" len="12" vol="17" />
          <note key="75" pos="1260" pan="0" len="12" vol="27" />
          <note key="74" pos="1272" pan="0" len="12" vol="38" />
          <note key="78" pos="1284" pan="0" len="12" vol="47" />
          <note key="74" pos="1296" pan="0" len="12" vol="56" />
          <note key="75" pos="1308" pan="0" len="12" vol="66" />
          <note key="74" pos="1320" pan="0" len="12" vol="77" />
          <note key="78" pos="1332" pan="0" len="12" vol="86" />
          <note key="74" pos="1344" pan="0" len="12" vol="86" />
          <note key="75" pos="1356" pan="0" len="12" vol="78" />
          <note key="74" pos="1368" pan="0" len="12" vol="69" />
          <note key="78" pos="1380" pan="0" len="12" vol="61" />
          <note key="74" pos="1392" pan="0" len="12" vol="52" />
          <note key="75" pos="1404" pan="0" len="12" vol="44" />
          <note key="74" pos="1416" pan="0" len="12" vol="34" />
          <note key="78" pos="1428" pan="0" len="12" vol="27" />
          <note key="74" pos="1440" pan="0" len="12" vol="17" />
          <note key="75" pos="1452" pan="0" len="12" vol="27" />
          <note key="74" pos="1464" pan="0" len="12" vol="38" />
          <note key="78" pos="1476" pan="0" len="12" vol="47" />
          <note key="74" pos="1488" pan="0" len="12" vol="56" />
          <note key="75" pos="1500" pan="0" len="12" vol="66" />
          <note key="74" pos="1512" pan="0" len="12" vol="77" />
          <note key="78" pos="1524" pan="0" len="12" vol="86" />
        </pattern>
        <pattern pos="205068" muted="0" steps="16" name="" type="1">
          <note key="74" pos="0" pan="0" len="12" vol="86" />
          <note key="75" pos="12" pan="0" len="12" vol="78" />
          <note key="74" pos="24" pan="0" len="12" vol="69" />
          <note key="78" pos="36" pan="0" len="12" vol="61" />
          <note key="74" pos="48" pan="0" len="12" vol="52" />
          <note key="75" pos="60" pan="0" len="12" vol="44" />
          <note key="74" pos="72" pan="0" len="12" vol="34" />
          <note key="78" pos="84" pan="0" len="12" vol="27" />
          <note key="74" pos="96" pan="0" len="12" vol="17" />
          <note key="75" pos="108" pan="0" len="12" vol="27" />
          <note key="74" pos="120" pan="0" len="12" vol="38" />
          <note key="78" pos="132" pan="0" len="12" vol="47" />
          <note key="74" pos="144" pan="0" len="12" vol="56" />
          <note key="75" pos="156" pan="0" len="12" vol="66" />
          <note key="74" pos="168" pan="0" len="12" vol="77" />
          <note key="78" pos="180" pan="0" len="12" vol="86" />
          <note key="74" pos="192" pan="0" len="12" vol="86" />
          <note key="75" pos="204" pan="0" len="12" vol="78" />
          <note key="74" pos="216" pan="0" len="12" vol="69" />
          <note key="78" pos="228" pan="0" len="12" vol="61" />
          <note key="74" pos="240" pan="0" len="12" vol="52" />
          <note key="75" pos="252" pan="0" len="12" vol="44" />
          <note key="74" pos="264" pan="0" len="12" vol="34" />
          <note key="78" pos="276" pan="0" len="12" vol="27" />
          <note key="74" pos="288" pan="0" len="12" vol="17" />
          <note key="75" pos="300" pan="0" len="12" vol="27" />
          <note key="74" pos="312" pan="0" len="12" vol="38" />
          <note key="78" pos="324" pan="0" len="12" vol="47" />
          <note key="74" pos="336" pan="0" len="12" vol="56" />
          <note key="75" pos="348" pan="0" len="12" vol="66" />
          <note key="74" pos="360" pan="0" len="12" vol="77" />
          <note key="78" pos="372" pan="0" len="12" vol="86" />
          <note key="81" pos="384" pan="0" len="12" vol="86" />
          <note key="82" pos="396" pan="0" len="12" vol="78" />
          <note key="81" pos="408" pan="0" len="12" vol="69" />
          <note key="85" pos="420" pan="0" len="12" vol="61" />
          <note key="81" pos="432" pan="0" len="12" vol="52" />
          <note key="82" pos="444" pan="0" len="12" vol="44" />
          <note key="81" pos="456" pan="0" len="12" vol="34" />
          <note key="85" pos="468" pan="0" len="12" vol="27" />
          <note key="81" pos="480" pan="0" len="12" vol="17" />
          <note key="82" pos="492" pan="0" len="12" vol="27" />
          <note key="81" pos="504" pan="0" len="12" vol="38" />
          <note key="85" pos="516" pan="0" len="12" vol="47" />
          <note key="81" pos="528" pan="0" len="12" vol="56" />
          <note key="82" pos="540" pan="0" len="12" vol="66" />
          <note key="81" pos="552" pan="0" len="12" vol="77" />
          <note key="85" pos="564" pan="0" len="12" vol="86" />
          <note key="81" pos="576" pan="0" len="12" vol="86" />
          <note key="82" pos="588" pan="0" len="12" vol="78" />
          <note key="81" pos="600" pan="0" len="12" vol="69" />
          <note key="85" pos="612" pan="0" len="12" vol="61" />
          <note key="81" pos="624" pan="0" len="12" vol="52" />
          <note key="82" pos="636" pan="0" len="12" vol="44" />
          <note key="81" pos="648" pan="0" len="12" vol="34" />
          <note key="85" pos="660" pan="0" len="12" vol="27" />
          <note key="81" pos="672" pan="0" len="12" vol="17" />
          <note key="82" pos="684" pan="0" len="12" vol="27" />
          <note key="81" pos="696" pan="0" len="12" vol="38" />
          <note key="85" pos="708" pan="0" len="12" vol="47" />
          <note key="81" pos="720" pan="0" len="12" vol="56" />
          <note key="82" pos="732" pan="0" len="12" vol="66" />
          <note key="81" pos="744" pan="0" len="12" vol="77" />
          <note key="85" pos="756" pan="0" len="12" vol="86" />
          <note key="79" pos="768" pan="0" len="12" vol="86" />
          <note key="80" pos="780" pan="0" len="12" vol="78" />
          <note key="79" pos="792" pan="0" len="12" vol="69" />
          <note key="83" pos="804" pan="0" len="12" vol="61" />
          <note key="79" pos="816" pan="0" len="12" vol="52" />
          <note key="80" pos="828" pan="0" len="12" vol="44" />
          <note key="79" pos="840" pan="0" len="12" vol="34" />
          <note key="83" pos="852" pan="0" len="12" vol="27" />
          <note key="79" pos="864" pan="0" len="12" vol="17" />
          <note key="80" pos="876" pan="0" len="12" vol="27" />
          <note key="79" pos="888" pan="0" len="12" vol="38" />
          <note key="83" pos="900" pan="0" len="12" vol="47" />
          <note key="79" pos="912" pan="0" len="12" vol="56" />
          <note key="80" pos="924" pan="0" len="12" vol="66" />
          <note key="79" pos="936" pan="0" len="12" vol="77" />
          <note key="83" pos="948" pan="0" len="12" vol="86" />
          <note key="79" pos="960" pan="0" len="12" vol="86" />
          <note key="80" pos="972" pan="0" len="12" vol="78" />
          <note key="79" pos="984" pan="0" len="12" vol="69" />
          <note key="83" pos="996" pan="0" len="12" vol="61" />
          <note key="79" pos="1008" pan="0" len="12" vol="52" />
          <note key="80" pos="1020" pan="0" len="12" vol="44" />
          <note key="79" pos="1032" pan="0" len="12" vol="34" />
          <note key="83" pos="1044" pan="0" len="12" vol="27" />
          <note key="79" pos="1056" pan="0" len="12" vol="17" />
          <note key="80" pos="1068" pan="0" len="12" vol="27" />
          <note key="79" pos="1080" pan="0" len="12" vol="38" />
          <note key="83" pos="1092" pan="0" len="12" vol="47" />
          <note key="79" pos="1104" pan="0" len="12" vol="56" />
          <note key="80" pos="1116" pan="0" len="12" vol="66" />
          <note key="79" pos="1128" pan="0" len="12" vol="77" />
          <note key="83" pos="1140" pan="0" len="12" vol="86" />
          <note key="74" pos="1152" pan="0" len="12" vol="86" />
          <note key="75" pos="1164" pan="0" len="12" vol="78" />
          <note key="74" pos="1176" pan="0" len="12" vol="69" />
          <note key="78" pos="1188" pan="0" len="12" vol="61" />
          <note key="74" pos="1200" pan="0" len="12" vol="52" />
          <note key="75" pos="1212" pan="0" len="12" vol="44" />
          <note key="74" pos="1224" pan="0" len="12" vol="34" />
          <note key="78" pos="1236" pan="0" len="12" vol="27" />
          <note key="74" pos="1248" pan="0" len="12" vol="17" />
          <note key="75" pos="1260" pan="0" len="12" vol="27" />
          <note key="74" pos="1272" pan="0" len="12" vol="38" />
          <note key="78" pos="1284" pan="0" len="12" vol="47" />
          <note key="74" pos="1296" pan="0" len="12" vol="56" />
          <note key="75" pos="1308" pan="0" len="12" vol="66" />
          <note key="74" pos="1320" pan="0" len="12" vol="77" />
          <note key="78" pos="1332" pan="0" len="12" vol="86" />
          <note key="70" pos="1344" pan="0" len="12" vol="86" />
          <note key="71" pos="1356" pan="0" len="12" vol="78" />
          <note key="70" pos="1368" pan="0" len="12" vol="69" />
          <note key="74" pos="1380" pan="0" len="12" vol="61" />
          <note key="70" pos="1392" pan="0" len="12" vol="52" />
          <note key="71" pos="1404" pan="0" len="12" vol="44" />
          <note key="70" pos="1416" pan="0" len="12" vol="34" />
          <note key="74" pos="1428" pan="0" len="12" vol="27" />
          <note key="70" pos="1440" pan="0" len="12" vol="17" />
          <note key="71" pos="1452" pan="0" len="12" vol="27" />
          <note key="70" pos="1464" pan="0" len="12" vol="38" />
          <note key="74" pos="1476" pan="0" len="12" vol="47" />
          <note key="70" pos="1488" pan="0" len="12" vol="56" />
          <note key="71" pos="1500" pan="0" len="12" vol="66" />
          <note key="70" pos="1512" pan="0" len="12" vol="77" />
          <note key="74" pos="1524" pan="0" len="12" vol="86" />
        </pattern>
        <pattern pos="206604" muted="0" steps="16" name="" type="1">
          <note key="74" pos="0" pan="0" len="12" vol="86" />
          <note key="75" pos="12" pan="0" len="12" vol="78" />
          <note key="74" pos="24" pan="0" len="12" vol="69" />
          <note key="78" pos="36" pan="0" len="12" vol="61" />
          <note key="74" pos="48" pan="0" len="12" vol="52" />
          <note key="75" pos="60" pan="0" len="12" vol="44" />
          <note key="74" pos="72" pan="0" len="12" vol="34" />
          <note key="78" pos="84" pan="0" len="12" vol="27" />
          <note key="74" pos="96" pan="0" len="12" vol="17" />
          <note key="75" pos="108" pan="0" len="12" vol="27" />
          <note key="74" pos="120" pan="0" len="12" vol="38" />
          <note key="78" pos="132" pan="0" len="12" vol="47" />
          <note key="74" pos="144" pan="0" len="12" vol="56" />
          <note key="75" pos="156" pan="0" len="12" vol="66" />
          <note key="74" pos="168" pan="0" len="12" vol="77" />
          <note key="78" pos="180" pan="0" len="12" vol="86" />
          <note key="74" pos="192" pan="0" len="12" vol="86" />
          <note key="75" pos="204" pan="0" len="12" vol="78" />
          <note key="74" pos="216" pan="0" len="12" vol="69" />
          <note key="78" pos="228" pan="0" len="12" vol="61" />
          <note key="74" pos="240" pan="0" len="12" vol="52" />
          <note key="75" pos="252" pan="0" len="12" vol="44" />
          <note key="74" pos="264" pan="0" len="12" vol="34" />
          <note key="78" pos="276" pan="0" len="12" vol="27" />
          <note key="74" pos="288" pan="0" len="12" vol="17" />
          <note key="75" pos="300" pan="0" len="12" vol="27" />
          <note key="74" pos="312" pan="0" len="12" vol="38" />
          <note key="78" pos="324" pan="0" len="12" vol="47" />
          <note key="74" pos="336" pan="0" len="12" vol="56" />
          <note key="75" pos="348" pan="0" len="12" vol="66" />
          <note key="74" pos="360" pan="0" len="12" vol="77" />
          <note key="78" pos="372" pan="0" len="12" vol="86" />
          <note key="81" pos="384" pan="0" len="12" vol="86" />
          <note key="82" pos="396" pan="0" len="12" vol="78" />
          <note key="81" pos="408" pan="0" len="12" vol="69" />
          <note key="85" pos="420" pan="0" len="12" vol="61" />
          <note key="81" pos="432" pan="0" len="12" vol="52" />
          <note key="82" pos="444" pan="0" len="12" vol="44" />
          <note key="81" pos="456" pan="0" len="12" vol="34" />
          <note key="85" pos="468" pan="0" len="12" vol="27" />
          <note key="81" pos="480" pan="0" len="12" vol="17" />
          <note key="82" pos="492" pan="0" len="12" vol="27" />
          <note key="81" pos="504" pan="0" len="12" vol="38" />
          <note key="85" pos="516" pan="0" len="12" vol="47" />
          <note key="81" pos="528" pan="0" len="12" vol="56" />
          <note key="82" pos="540" pan="0" len="12" vol="66" />
          <note key="81" pos="552" pan="0" len="12" vol="77" />
          <note key="85" pos="564" pan="0" len="12" vol="86" />
          <note key="81" pos="576" pan="0" len="12" vol="86" />
          <note key="82" pos="588" pan="0" len="12" vol="78" />
          <note key="81" pos="600" pan="0" len="12" vol="69" />
          <note key="85" pos="612" pan="0" len="12" vol="61" />
          <note key="81" pos="624" pan="0" len="12" vol="52" />
          <note key="82" pos="636" pan="0" len="12" vol="44" />
          <note key="81" pos="648" pan="0" len="12" vol="34" />
          <note key="85" pos="660" pan="0" len="12" vol="27" />
          <note key="81" pos="672" pan="0" len="12" vol="17" />
          <note key="82" pos="684" pan="0" len="12" vol="27" />
          <note key="81" pos="696" pan="0" len="12" vol="38" />
          <note key="85" pos="708" pan="0" len="12" vol="47" />
          <note key="81" pos="720" pan="0" len="12" vol="56" />
          <note key="82" pos="732" pan="0" len="12" vol="66" />
          <note key="81" pos="744" pan="0" len="12" vol="77" />
          <note key="85" pos="756" pan="0" len="12" vol="86" />
          <note key="79" pos="768" pan="0" len="12" vol="86" />
          <note key="80" pos="780" pan="0" len="12" vol="78" />
          <note key="79" pos="792" pan="0" len="12" vol="69" />
          <note key="83" pos="804" pan="0" len="12" vol="61" />
          <note key="79" pos="816" pan="0" len="12" vol="52" />
          <note key="80" pos="828" pan="0" len="12" vol="44" />
          <note key="79" pos="840" pan="0" len="12" vol="34" />
          <note key="83" pos="852" pan="0" len="12" vol="27" />
          <note key="79" pos="864" pan="0" len="12" vol="17" />
          <note key="80" pos="876" pan="0" len="12" vol="27" />
          <note key="79" pos="888" pan="0" len="12" vol="38" />
          <note key="83" pos="900" pan="0" len="12" vol="47" />
          <note key="79" pos="912" pan="0" len="12" vol="56" />
          <note key="80" pos="924" pan="0" len="12" vol="66" />
          <note key="79" pos="936" pan="0" len="12" vol="77" />
          <note key="83" pos="948" pan="0" len="12" vol="86" />
          <note key="79" pos="960" pan="0" len="12" vol="86" />
          <note key="80" pos="972" pan="0" len="12" vol="78" />
          <note key="79" pos="984" pan="0" len="12" vol="69" />
          <note key="83" pos="996" pan="0" len="12" vol="61" />
          <note key="79" pos="1008" pan="0" len="12" vol="52" />
          <note key="80" pos="1020" pan="0" len="12" vol="44" />
          <note key="79" pos="1032" pan="0" len="12" vol="34" />
          <note key="83" pos="1044" pan="0" len="12" vol="27" />
          <note key="79" pos="1056" pan="0" len="12" vol="17" />
          <note key="80" pos="1068" pan="0" len="12" vol="27" />
          <note key="79" pos="1080" pan="0" len="12" vol="38" />
          <note key="83" pos="1092" pan="0" len="12" vol="47" />
          <note key="79" pos="1104" pan="0" len="12" vol="56" />
          <note key="80" pos="1116" pan="0" len="12" vol="66" />
          <note key="79" pos="1128" pan="0" len="12" vol="77" />
          <note key="83" pos="1140" pan="0" len="12" vol="86" />
          <note key="74" pos="1152" pan="0" len="12" vol="86" />
          <note key="75" pos="1164" pan="0" len="12" vol="78" />
          <note key="74" pos="1176" pan="0" len="12" vol="69" />
          <note key="78" pos="1188" pan="0" len="12" vol="61" />
          <note key="74" pos="1200" pan="0" len="12" vol="52" />
          <note key="75" pos="1212" pan="0" len="12" vol="44" />
          <note key="74" pos="1224" pan="0" len="12" vol="34" />
          <note key="78" pos="1236" pan="0" len="12" vol="27" />
          <note key="74" pos="1248" pan="0" len="12" vol="17" />
          <note key="75" pos="1260" pan="0" len="12" vol="27" />
          <note key="74" pos="1272" pan="0" len="12" vol="38" />
          <note key="78" pos="1284" pan="0" len="12" vol="47" />
          <note key="74" pos="1296" pan="0" len="12" vol="56" />
          <note key="75" pos="1308" pan="0" len="12" vol="66" />
          <note key="74" pos="1320" pan="0" len="12" vol="77" />
          <note key="78" pos="1332" pan="0" len="12" vol="86" />
          <note key="70" pos="1344" pan="0" len="12" vol="86" />
          <note key="71" pos="1356" pan="0" len="12" vol="78" />
          <note key="70" pos="1368" pan="0" len="12" vol="69" />
          <note key="74" pos="1380" pan="0" len="12" vol="61" />
          <note key="70" pos="1392" pan="0" len="12" vol="52" />
          <note key="71" pos="1404" pan="0" len="12" vol="44" />
          <note key="70" pos="1416" pan="0" len="12" vol="34" />
          <note key="74" pos="1428" pan="0" len="12" vol="27" />
          <note key="70" pos="1440" pan="0" len="12" vol="17" />
          <note key="71" pos="1452" pan="0" len="12" vol="27" />
          <note key="70" pos="1464" pan="0" len="12" vol="38" />
          <note key="74" pos="1476" pan="0" len="12" vol="47" />
          <note key="70" pos="1488" pan="0" len="12" vol="56" />
          <note key="71" pos="1500" pan="0" len="12" vol="66" />
          <note key="70" pos="1512" pan="0" len="12" vol="77" />
          <note key="74" pos="1524" pan="0" len="12" vol="86" />
        </pattern>
        <pattern pos="208140" muted="0" steps="16" name="" type="1">
          <note key="77" pos="0" pan="0" len="12" vol="86" />
          <note key="78" pos="12" pan="0" len="12" vol="78" />
          <note key="77" pos="24" pan="0" len="12" vol="69" />
          <note key="81" pos="36" pan="0" len="12" vol="61" />
          <note key="77" pos="48" pan="0" len="12" vol="52" />
          <note key="78" pos="60" pan="0" len="12" vol="44" />
          <note key="77" pos="72" pan="0" len="12" vol="34" />
          <note key="81" pos="84" pan="0" len="12" vol="27" />
          <note key="77" pos="96" pan="0" len="12" vol="17" />
          <note key="78" pos="108" pan="0" len="12" vol="27" />
          <note key="77" pos="120" pan="0" len="12" vol="38" />
          <note key="81" pos="132" pan="0" len="12" vol="47" />
          <note key="77" pos="144" pan="0" len="12" vol="56" />
          <note key="78" pos="156" pan="0" len="12" vol="66" />
          <note key="77" pos="168" pan="0" len="12" vol="77" />
          <note key="81" pos="180" pan="0" len="12" vol="86" />
          <note key="77" pos="192" pan="0" len="12" vol="86" />
          <note key="78" pos="204" pan="0" len="12" vol="78" />
          <note key="77" pos="216" pan="0" len="12" vol="69" />
          <note key="81" pos="228" pan="0" len="12" vol="61" />
          <note key="77" pos="240" pan="0" len="12" vol="52" />
          <note key="78" pos="252" pan="0" len="12" vol="44" />
          <note key="77" pos="264" pan="0" len="12" vol="34" />
          <note key="81" pos="276" pan="0" len="12" vol="27" />
          <note key="77" pos="288" pan="0" len="12" vol="17" />
          <note key="78" pos="300" pan="0" len="12" vol="27" />
          <note key="77" pos="312" pan="0" len="12" vol="38" />
          <note key="81" pos="324" pan="0" len="12" vol="47" />
          <note key="77" pos="336" pan="0" len="12" vol="56" />
          <note key="78" pos="348" pan="0" len="12" vol="66" />
          <note key="77" pos="360" pan="0" len="12" vol="77" />
          <note key="81" pos="372" pan="0" len="12" vol="86" />
          <note key="81" pos="384" pan="0" len="12" vol="86" />
          <note key="82" pos="396" pan="0" len="12" vol="78" />
          <note key="81" pos="408" pan="0" len="12" vol="69" />
          <note key="85" pos="420" pan="0" len="12" vol="61" />
          <note key="81" pos="432" pan="0" len="12" vol="52" />
          <note key="82" pos="444" pan="0" len="12" vol="44" />
          <note key="81" pos="456" pan="0" len="12" vol="34" />
          <note key="85" pos="468" pan="0" len="12" vol="27" />
          <note key="81" pos="480" pan="0" len="12" vol="17" />
          <note key="82" pos="492" pan="0" len="12" vol="27" />
          <note key="81" pos="504" pan="0" len="12" vol="38" />
          <note key="85" pos="516" pan="0" len="12" vol="47" />
          <note key="81" pos="528" pan="0" len="12" vol="56" />
          <note key="82" pos="540" pan="0" len="12" vol="66" />
          <note key="81" pos="552" pan="0" len="12" vol="77" />
          <note key="85" pos="564" pan="0" len="12" vol="86" />
          <note key="81" pos="576" pan="0" len="12" vol="86" />
          <note key="82" pos="588" pan="0" len="12" vol="78" />
          <note key="81" pos="600" pan="0" len="12" vol="69" />
          <note key="85" pos="612" pan="0" len="12" vol="61" />
          <note key="81" pos="624" pan="0" len="12" vol="52" />
          <note key="82" pos="636" pan="0" len="12" vol="44" />
          <note key="81" pos="648" pan="0" len="12" vol="34" />
          <note key="85" pos="660" pan="0" len="12" vol="27" />
          <note key="81" pos="672" pan="0" len="12" vol="17" />
          <note key="82" pos="684" pan="0" len="12" vol="27" />
          <note key="81" pos="696" pan="0" len="12" vol="38" />
          <note key="85" pos="708" pan="0" len="12" vol="47" />
          <note key="81" pos="720" pan="0" len="12" vol="56" />
          <note key="82" pos="732" pan="0" len="12" vol="66" />
          <note key="81" pos="744" pan="0" len="12" vol="77" />
          <note key="85" pos="756" pan="0" len="12" vol="86" />
          <note key="74" pos="768" pan="0" len="12" vol="86" />
          <note key="75" pos="780" pan="0" len="12" vol="78" />
          <note key="74" pos="792" pan="0" len="12" vol="69" />
          <note key="78" pos="804" pan="0" len="12" vol="61" />
          <note key="74" pos="816" pan="0" len="12" vol="52" />
          <note key="75" pos="828" pan="0" len="12" vol="44" />
          <note key="74" pos="840" pan="0" len="12" vol="34" />
          <note key="78" pos="852" pan="0" len="12" vol="27" />
          <note key="74" pos="864" pan="0" len="12" vol="17" />
          <note key="75" pos="876" pan="0" len="12" vol="27" />
          <note key="74" pos="888" pan="0" len="12" vol="38" />
          <note key="78" pos="900" pan="0" len="12" vol="47" />
          <note key="74" pos="912" pan="0" len="12" vol="56" />
          <note key="75" pos="924" pan="0" len="12" vol="66" />
          <note key="74" pos="936" pan="0" len="12" vol="77" />
          <note key="78" pos="948" pan="0" len="12" vol="86" />
          <note key="74" pos="960" pan="0" len="12" vol="86" />
          <note key="75" pos="972" pan="0" len="12" vol="78" />
          <note key="74" pos="984" pan="0" len="12" vol="69" />
          <note key="78" pos="996" pan="0" len="12" vol="61" />
          <note key="74" pos="1008" pan="0" len="12" vol="52" />
          <note key="75" pos="1020" pan="0" len="12" vol="44" />
          <note key="74" pos="1032" pan="0" len="12" vol="34" />
          <note key="78" pos="1044" pan="0" len="12" vol="27" />
          <note key="74" pos="1056" pan="0" len="12" vol="17" />
          <note key="75" pos="1068" pan="0" len="12" vol="27" />
          <note key="74" pos="1080" pan="0" len="12" vol="38" />
          <note key="78" pos="1092" pan="0" len="12" vol="47" />
          <note key="74" pos="1104" pan="0" len="12" vol="56" />
          <note key="75" pos="1116" pan="0" len="12" vol="66" />
          <note key="74" pos="1128" pan="0" len="12" vol="77" />
          <note key="78" pos="1140" pan="0" len="12" vol="86" />
          <note key="70" pos="1152" pan="0" len="12" vol="86" />
          <note key="71" pos="1164" pan="0" len="12" vol="78" />
          <note key="70" pos="1176" pan="0" len="12" vol="69" />
          <note key="74" pos="1188" pan="0" len="12" vol="61" />
          <note key="70" pos="1200" pan="0" len="12" vol="52" />
          <note key="71" pos="1212" pan="0" len="12" vol="44" />
          <note key="70" pos="1224" pan="0" len="12" vol="34" />
          <note key="74" pos="1236" pan="0" len="12" vol="27" />
          <note key="70" pos="1248" pan="0" len="12" vol="17" />
          <note key="71" pos="1260" pan="0" len="12" vol="27" />
          <note key="70" pos="1272" pan="0" len="12" vol="38" />
          <note key="74" pos="1284" pan="0" len="12" vol="47" />
          <note key="70" pos="1296" pan="0" len="12" vol="56" />
          <note key="71" pos="1308" pan="0" len="12" vol="66" />
          <note key="70" pos="1320" pan="0" len="12" vol="77" />
          <note key="74" pos="1332" pan="0" len="12" vol="86" />
          <note key="70" pos="1344" pan="0" len="12" vol="86" />
          <note key="71" pos="1356" pan="0" len="12" vol="78" />
          <note key="70" pos="1368" pan="0" len="12" vol="69" />
          <note key="74" pos="1380" pan="0" len="12" vol="61" />
          <note key="70" pos="1392" pan="0" len="12" vol="52" />
          <note key="71" pos="1404" pan="0" len="12" vol="44" />
          <note key="70" pos="1416" pan="0" len="12" vol="34" />
          <note key="74" pos="1428" pan="0" len="12" vol="27" />
          <note key="70" pos="1440" pan="0" len="12" vol="17" />
          <note key="71" pos="1452" pan="0" len="12" vol="27" />
          <note key="70" pos="1464" pan="0" len="12" vol="38" />
          <note key="74" pos="1476" pan="0" len="12" vol="47" />
          <note key="70" pos="1488" pan="0" len="12" vol="56" />
          <note key="71" pos="1500" pan="0" len="12" vol="66" />
          <note key="70" pos="1512" pan="0" len="12" vol="77" />
          <note key="74" pos="1524" pan="0" len="12" vol="86" />
        </pattern>
        <pattern pos="209676" muted="0" steps="16" name="" type="1">
          <note key="77" pos="0" pan="0" len="12" vol="86" />
          <note key="78" pos="12" pan="0" len="12" vol="78" />
          <note key="77" pos="24" pan="0" len="12" vol="69" />
          <note key="81" pos="36" pan="0" len="12" vol="61" />
          <note key="77" pos="48" pan="0" len="12" vol="52" />
          <note key="78" pos="60" pan="0" len="12" vol="44" />
          <note key="77" pos="72" pan="0" len="12" vol="34" />
          <note key="81" pos="84" pan="0" len="12" vol="27" />
          <note key="77" pos="96" pan="0" len="12" vol="17" />
          <note key="78" pos="108" pan="0" len="12" vol="27" />
          <note key="77" pos="120" pan="0" len="12" vol="38" />
          <note key="81" pos="132" pan="0" len="12" vol="47" />
          <note key="77" pos="144" pan="0" len="12" vol="56" />
          <note key="78" pos="156" pan="0" len="12" vol="66" />
          <note key="77" pos="168" pan="0" len="12" vol="77" />
          <note key="81" pos="180" pan="0" len="12" vol="86" />
          <note key="77" pos="192" pan="0" len="12" vol="86" />
          <note key="78" pos="204" pan="0" len="12" vol="78" />
          <note key="77" pos="216" pan="0" len="12" vol="69" />
          <note key="81" pos="228" pan="0" len="12" vol="61" />
          <note key="77" pos="240" pan="0" len="12" vol="52" />
          <note key="78" pos="252" pan="0" len="12" vol="44" />
          <note key="77" pos="264" pan="0" len="12" vol="34" />
          <note key="81" pos="276" pan="0" len="12" vol="27" />
          <note key="77" pos="288" pan="0" len="12" vol="17" />
          <note key="78" pos="300" pan="0" len="12" vol="27" />
          <note key="77" pos="312" pan="0" len="12" vol="38" />
          <note key="81" pos="324" pan="0" len="12" vol="47" />
          <note key="77" pos="336" pan="0" len="12" vol="56" />
          <note key="78" pos="348" pan="0" len="12" vol="66" />
          <note key="77" pos="360" pan="0" len="12" vol="77" />
          <note key="81" pos="372" pan="0" len="12" vol="86" />
          <note key="81" pos="384" pan="0" len="12" vol="86" />
          <note key="82" pos="396" pan="0" len="12" vol="78" />
          <note key="81" pos="408" pan="0" len="12" vol="69" />
          <note key="85" pos="420" pan="0" len="12" vol="61" />
          <note key="81" pos="432" pan="0" len="12" vol="52" />
          <note key="82" pos="444" pan="0" len="12" vol="44" />
          <note key="81" pos="456" pan="0" len="12" vol="34" />
          <note key="85" pos="468" pan="0" len="12" vol="27" />
          <note key="81" pos="480" pan="0" len="12" vol="17" />
          <note key="82" pos="492" pan="0" len="12" vol="27" />
          <note key="81" pos="504" pan="0" len="12" vol="38" />
          <note key="85" pos="516" pan="0" len="12" vol="47" />
          <note key="81" pos="528" pan="0" len="12" vol="56" />
          <note key="82" pos="540" pan="0" len="12" vol="66" />
          <note key="81" pos="552" pan="0" len="12" vol="77" />
          <note key="85" pos="564" pan="0" len="12" vol="86" />
          <note key="81" pos="576" pan="0" len="12" vol="86" />
          <note key="82" pos="588" pan="0" len="12" vol="78" />
          <note key="81" pos="600" pan="0" len="12" vol="69" />
          <note key="85" pos="612" pan="0" len="12" vol="61" />
          <note key="81" pos="624" pan="0" len="12" vol="52" />
          <note key="82" pos="636" pan="0" len="12" vol="44" />
          <note key="81" pos="648" pan="0" len="12" vol="34" />
          <note key="85" pos="660" pan="0" len="12" vol="27" />
          <note key="81" pos="672" pan="0" len="12" vol="17" />
          <note key="82" pos="684" pan="0" len="12" vol="27" />
          <note key="81" pos="696" pan="0" len="12" vol="38" />
          <note key="85" pos="708" pan="0" len="12" vol="47" />
          <note key="81" pos="720" pan="0" len="12" vol="56" />
          <note key="82" pos="732" pan="0" len="12" vol="66" />
          <note key="81" pos="744" pan="0" len="12" vol="77" />
          <note key="85" pos="756" pan="0" len="12" vol="86" />
          <note key="74" pos="768" pan="0" len="12" vol="86" />
          <note key="75" pos="780" pan="0" len="12" vol="78" />
          <note key="74" pos="792" pan="0" len="12" vol="69" />
          <note key="78" pos="804" pan="0" len="12" vol="61" />
          <note key="74" pos="816" pan="0" len="12" vol="52" />
          <note key="75" pos="828" pan="0" len="12" vol="44" />
          <note key="74" pos="840" pan="0" len="12" vol="34" />
          <note key="78" pos="852" pan="0" len="12" vol="27" />
          <note key="74" pos="864" pan="0" len="12" vol="17" />
          <note key="75" pos="876" pan="0" len="12" vol="27" />
          <note key="74" pos="888" pan="0" len="12" vol="38" />
          <note key="78" pos="900" pan="0" len="12" vol="47" />
          <note key="74" pos="912" pan="0" len="12" vol="56" />
          <note key="75" pos="924" pan="0" len="12" vol="66" />
          <note key="74" pos="936" pan="0" len="12" vol="77" />
          <note key="78" pos="948" pan="0" len="12" vol="86" />
          <note key="74" pos="960" pan="0" len="12" vol="86" />
          <note key="75" pos="972" pan="0" len="12" vol="78" />
          <note key="74" pos="984" pan="0" len="12" vol="69" />
          <note key="78" pos="996" pan="0" len="12" vol="61" />
          <note key="74" pos="1008" pan="0" len="12" vol="52" />
          <note key="75" pos="1020" pan="0" len="12" vol="44" />
          <note key="74" pos="1032" pan="0" len="12" vol="34" />
          <note key="78" pos="1044" pan="0" len="12" vol="27" />
          <note key="74" pos="1056" pan="0" len="12" vol="17" />
          <note key="75" pos="1068" pan="0" len="12" vol="27" />
          <note key="74" pos="1080" pan="0" len="12" vol="38" />
          <note key="78" pos="1092" pan="0" len="12" vol="47" />
          <note key="74" pos="1104" pan="0" len="12" vol="56" />
          <note key="75" pos="1116" pan="0" len="12" vol="66" />
          <note key="74" pos="1128" pan="0" len="12" vol="77" />
          <note key="78" pos="1140" pan="0" len="12" vol="86" />
          <note key="70" pos="1152" pan="0" len="12" vol="86" />
          <note key="71" pos="1164" pan="0" len="12" vol="78" />
          <note key="70" pos="1176" pan="0" len="12" vol="69" />
          <note key="74" pos="1188" pan="0" len="12" vol="61" />
          <note key="70" pos="1200" pan="0" len="12" vol="52" />
          <note key="71" pos="1212" pan="0" len="12" vol="44" />
          <note key="70" pos="1224" pan="0" len="12" vol="34" />
          <note key="74" pos="1236" pan="0" len="12" vol="27" />
          <note key="70" pos="1248" pan="0" len="12" vol="17" />
          <note key="71" pos="1260" pan="0" len="12" vol="27" />
          <note key="70" pos="1272" pan="0" len="12" vol="38" />
          <note key="74" pos="1284" pan="0" len="12" vol="47" />
          <note key="70" pos="1296" pan="0" len="12" vol="56" />
          <note key="71" pos="1308" pan="0" len="12" vol="66" />
          <note key="70" pos="1320" pan="0" len="12" vol="77" />
          <note key="74" pos="1332" pan="0" len="12" vol="86" />
          <note key="70" pos="1344" pan="0" len="12" vol="86" />
          <note key="71" pos="1356" pan="0" len="12" vol="78" />
          <note key="70" pos="1368" pan="0" len="12" vol="69" />
          <note key="74" pos="1380" pan="0" len="12" vol="61" />
          <note key="70" pos="1392" pan="0" len="12" vol="52" />
          <note key="71" pos="1404" pan="0" len="12" vol="44" />
          <note key="70" pos="1416" pan="0" len="12" vol="34" />
          <note key="74" pos="1428" pan="0" len="12" vol="27" />
          <note key="70" pos="1440" pan="0" len="12" vol="17" />
          <note key="71" pos="1452" pan="0" len="12" vol="27" />
          <note key="70" pos="1464" pan="0" len="12" vol="38" />
          <note key="74" pos="1476" pan="0" len="12" vol="47" />
          <note key="70" pos="1488" pan="0" len="12" vol="56" />
          <note key="71" pos="1500" pan="0" len="12" vol="66" />
          <note key="70" pos="1512" pan="0" len="12" vol="77" />
          <note key="74" pos="1524" pan="0" len="12" vol="86" />
        </pattern>
        <pattern pos="211212" muted="0" steps="16" name="" type="1">
          <note key="74" pos="0" pan="0" len="12" vol="86" />
          <note key="75" pos="12" pan="0" len="12" vol="78" />
          <note key="74" pos="24" pan="0" len="12" vol="69" />
          <note key="78" pos="36" pan="0" len="12" vol="61" />
          <note key="74" pos="48" pan="0" len="12" vol="52" />
          <note key="75" pos="60" pan="0" len="12" vol="44" />
          <note key="74" pos="72" pan="0" len="12" vol="34" />
          <note key="78" pos="84" pan="0" len="12" vol="27" />
          <note key="74" pos="96" pan="0" len="12" vol="17" />
          <note key="75" pos="108" pan="0" len="12" vol="27" />
          <note key="74" pos="120" pan="0" len="12" vol="38" />
          <note key="78" pos="132" pan="0" len="12" vol="47" />
          <note key="74" pos="144" pan="0" len="12" vol="56" />
          <note key="75" pos="156" pan="0" len="12" vol="66" />
          <note key="74" pos="168" pan="0" len="12" vol="77" />
          <note key="78" pos="180" pan="0" len="12" vol="86" />
          <note key="74" pos="192" pan="0" len="12" vol="86" />
          <note key="75" pos="204" pan="0" len="12" vol="78" />
          <note key="74" pos="216" pan="0" len="12" vol="69" />
          <note key="78" pos="228" pan="0" len="12" vol="61" />
          <note key="74" pos="240" pan="0" len="12" vol="52" />
          <note key="75" pos="252" pan="0" len="12" vol="44" />
          <note key="74" pos="264" pan="0" len="12" vol="34" />
          <note key="78" pos="276" pan="0" len="12" vol="27" />
          <note key="74" pos="288" pan="0" len="12" vol="17" />
          <note key="75" pos="300" pan="0" len="12" vol="27" />
          <note key="74" pos="312" pan="0" len="12" vol="38" />
          <note key="78" pos="324" pan="0" len="12" vol="47" />
          <note key="74" pos="336" pan="0" len="12" vol="56" />
          <note key="75" pos="348" pan="0" len="12" vol="66" />
          <note key="74" pos="360" pan="0" len="12" vol="77" />
          <note key="78" pos="372" pan="0" len="12" vol="86" />
          <note key="74" pos="384" pan="0" len="12" vol="86" />
          <note key="75" pos="396" pan="0" len="12" vol="78" />
          <note key="74" pos="408" pan="0" len="12" vol="69" />
          <note key="78" pos="420" pan="0" len="12" vol="61" />
          <note key="74" pos="432" pan="0" len="12" vol="52" />
          <note key="75" pos="444" pan="0" len="12" vol="44" />
          <note key="74" pos="456" pan="0" len="12" vol="34" />
          <note key="78" pos="468" pan="0" len="12" vol="27" />
          <note key="74" pos="480" pan="0" len="12" vol="17" />
          <note key="75" pos="492" pan="0" len="12" vol="27" />
          <note key="74" pos="504" pan="0" len="12" vol="38" />
          <note key="78" pos="516" pan="0" len="12" vol="47" />
          <note key="74" pos="528" pan="0" len="12" vol="56" />
          <note key="75" pos="540" pan="0" len="12" vol="66" />
          <note key="74" pos="552" pan="0" len="12" vol="77" />
          <note key="78" pos="564" pan="0" len="12" vol="86" />
          <note key="74" pos="576" pan="0" len="12" vol="86" />
          <note key="75" pos="588" pan="0" len="12" vol="78" />
          <note key="74" pos="600" pan="0" len="12" vol="69" />
          <note key="78" pos="612" pan="0" len="12" vol="61" />
          <note key="74" pos="624" pan="0" len="12" vol="52" />
          <note key="75" pos="636" pan="0" len="12" vol="44" />
          <note key="74" pos="648" pan="0" len="12" vol="34" />
          <note key="78" pos="660" pan="0" len="12" vol="27" />
          <note key="74" pos="672" pan="0" len="12" vol="17" />
          <note key="75" pos="684" pan="0" len="12" vol="27" />
          <note key="74" pos="696" pan="0" len="12" vol="38" />
          <note key="78" pos="708" pan="0" len="12" vol="47" />
          <note key="74" pos="720" pan="0" len="12" vol="56" />
          <note key="75" pos="732" pan="0" len="12" vol="66" />
          <note key="74" pos="744" pan="0" len="12" vol="77" />
          <note key="78" pos="756" pan="0" len="12" vol="86" />
          <note key="74" pos="768" pan="0" len="12" vol="86" />
          <note key="75" pos="780" pan="0" len="12" vol="78" />
          <note key="74" pos="792" pan="0" len="12" vol="69" />
          <note key="78" pos="804" pan="0" len="12" vol="61" />
          <note key="74" pos="816" pan="0" len="12" vol="52" />
          <note key="75" pos="828" pan="0" len="12" vol="44" />
          <note key="74" pos="840" pan="0" len="12" vol="34" />
          <note key="78" pos="852" pan="0" len="12" vol="27" />
          <note key="74" pos="864" pan="0" len="12" vol="17" />
          <note key="75" pos="876" pan="0" len="12" vol="27" />
          <note key="74" pos="888" pan="0" len="12" vol="38" />
          <note key="78" pos="900" pan="0" len="12" vol="47" />
          <note key="74" pos="912" pan="0" len="12" vol="56" />
          <note key="75" pos="924" pan="0" len="12" vol="66" />
          <note key="74" pos="936" pan="0" len="12" vol="77" />
          <note key="78" pos="948" pan="0" len="12" vol="86" />
          <note key="74" pos="960" pan="0" len="12" vol="86" />
          <note key="75" pos="972" pan="0" len="12" vol="78" />
          <note key="74" pos="984" pan="0" len="12" vol="69" />
          <note key="78" pos="996" pan="0" len="12" vol="61" />
          <note key="74" pos="1008" pan="0" len="12" vol="52" />
          <note key="75" pos="1020" pan="0" len="12" vol="44" />
          <note key="74" pos="1032" pan="0" len="12" vol="34" />
          <note key="78" pos="1044" pan="0" len="12" vol="27" />
          <note key="74" pos="1056" pan="0" len="12" vol="17" />
          <note key="75" pos="1068" pan="0" len="12" vol="27" />
          <note key="74" pos="1080" pan="0" len="12" vol="38" />
          <note key="78" pos="1092" pan="0" len="12" vol="47" />
          <note key="74" pos="1104" pan="0" len="12" vol="56" />
          <note key="75" pos="1116" pan="0" len="12" vol="66" />
          <note key="74" pos="1128" pan="0" len="12" vol="77" />
          <note key="78" pos="1140" pan="0" len="12" vol="86" />
          <note key="74" pos="1152" pan="0" len="12" vol="86" />
          <note key="75" pos="1164" pan="0" len="12" vol="78" />
          <note key="74" pos="1176" pan="0" len="12" vol="69" />
          <note key="78" pos="1188" pan="0" len="12" vol="61" />
          <note key="74" pos="1200" pan="0" len="12" vol="52" />
          <note key="75" pos="1212" pan="0" len="12" vol="44" />
          <note key="74" pos="1224" pan="0" len="12" vol="34" />
          <note key="78" pos="1236" pan="0" len="12" vol="27" />
          <note key="74" pos="1248" pan="0" len="12" vol="17" />
          <note key="75" pos="1260" pan="0" len="12" vol="27" />
          <note key="74" pos="1272" pan="0" len="12" vol="38" />
          <note key="78" pos="1284" pan="0" len="12" vol="47" />
          <note key="74" pos="1296" pan="0" len="12" vol="56" />
          <note key="75" pos="1308" pan="0" len="12" vol="66" />
          <note key="74" pos="1320" pan="0" len="12" vol="77" />
          <note key="78" pos="1332" pan="0" len="12" vol="86" />
          <note key="74" pos="1344" pan="0" len="12" vol="86" />
          <note key="75" pos="1356" pan="0" len="12" vol="78" />
          <note key="74" pos="1368" pan="0" len="12" vol="69" />
          <note key="78" pos="1380" pan="0" len="12" vol="61" />
          <note key="74" pos="1392" pan="0" len="12" vol="52" />
          <note key="75" pos="1404" pan="0" len="12" vol="44" />
          <note key="74" pos="1416" pan="0" len="12" vol="34" />
          <note key="78" pos="1428" pan="0" len="12" vol="27" />
          <note key="74" pos="1440" pan="0" len="12" vol="17" />
          <note key="75" pos="1452" pan="0" len="12" vol="27" />
          <note key="74" pos="1464" pan="0" len="12" vol="38" />
          <note key="78" pos="1476" pan="0" len="12" vol="47" />
          <note key="74" pos="1488" pan="0" len="12" vol="56" />
          <note key="75" pos="1500" pan="0" len="12" vol="66" />
          <note key="74" pos="1512" pan="0" len="12" vol="77" />
          <note key="78" pos="1524" pan="0" len="12" vol="86" />
        </pattern>
        <pattern pos="212748" muted="0" steps="16" name="" type="1">
          <note key="74" pos="0" pan="0" len="12" vol="86" />
          <note key="75" pos="12" pan="0" len="12" vol="78" />
          <note key="74" pos="24" pan="0" len="12" vol="69" />
          <note key="78" pos="36" pan="0" len="12" vol="61" />
          <note key="74" pos="48" pan="0" len="12" vol="52" />
          <note key="75" pos="60" pan="0" len="12" vol="44" />
          <note key="74" pos="72" pan="0" len="12" vol="34" />
          <note key="78" pos="84" pan="0" len="12" vol="27" />
          <note key="74" pos="96" pan="0" len="12" vol="17" />
          <note key="75" pos="108" pan="0" len="12" vol="27" />
          <note key="74" pos="120" pan="0" len="12" vol="38" />
          <note key="78" pos="132" pan="0" len="12" vol="47" />
          <note key="74" pos="144" pan="0" len="12" vol="56" />
          <note key="75" pos="156" pan="0" len="12" vol="66" />
          <note key="74" pos="168" pan="0" len="12" vol="77" />
          <note key="78" pos="180" pan="0" len="12" vol="86" />
          <note key="74" pos="192" pan="0" len="12" vol="86" />
          <note key="75" pos="204" pan="0" len="12" vol="78" />
          <note key="74" pos="216" pan="0" len="12" vol="69" />
          <note key="78" pos="228" pan="0" len="12" vol="61" />
          <note key="74" pos="240" pan="0" len="12" vol="52" />
          <note key="75" pos="252" pan="0" len="12" vol="44" />
          <note key="74" pos="264" pan="0" len="12" vol="34" />
          <note key="78" pos="276" pan="0" len="12" vol="27" />
          <note key="74" pos="288" pan="0" len="12" vol="17" />
          <note key="75" pos="300" pan="0" len="12" vol="27" />
          <note key="74" pos="312" pan="0" len="12" vol="38" />
          <note key="78" pos="324" pan="0" len="12" vol="47" />
          <note key="74" pos="336" pan="0" len="12" vol="56" />
          <note key="75" pos="348" pan="0" len="12" vol="66" />
          <note key="74" pos="360" pan="0" len="12" vol="77" />
          <note key="78" pos="372" pan="0" len="12" vol="86" />
          <note key="81" pos="384" pan="0" len="12" vol="86" />
          <note key="82" pos="396" pan="0" len="12" vol="78" />
          <note key="81" pos="408" pan="0" len="12" vol="69" />
          <note key="85" pos="420" pan="0" len="12" vol="61" />
          <note key="81" pos="432" pan="0" len="12" vol="52" />
          <note key="82" pos="444" pan="0" len="12" vol="44" />
          <note key="81" pos="456" pan="0" len="12" vol="34" />
          <note key="85" pos="468" pan="0" len="12" vol="27" />
          <note key="81" pos="480" pan="0" len="12" vol="17" />
          <note key="82" pos="492" pan="0" len="12" vol="27" />
          <note key="81" pos="504" pan="0" len="12" vol="38" />
          <note key="85" pos="516" pan="0" len="12" vol="47" />
          <note key="81" pos="528" pan="0" len="12" vol="56" />
          <note key="82" pos="540" pan="0" len="12" vol="66" />
          <note key="81" pos="552" pan="0" len="12" vol="77" />
          <note key="85" pos="564" pan="0" len="12" vol="86" />
          <note key="81" pos="576" pan="0" len="12" vol="86" />
          <note key="82" pos="588" pan="0" len="12" vol="78" />
          <note key="81" pos="600" pan="0" len="12" vol="69" />
          <note key="85" pos="612" pan="0" len="12" vol="61" />
          <note key="81" pos="624" pan="0" len="12" vol="52" />
          <note key="82" pos="636" pan="0" len="12" vol="44" />
          <note key="81" pos="648" pan="0" len="12" vol="34" />
          <note key="85" pos="660" pan="0" len="12" vol="27" />
          <note key="81" pos="672" pan="0" len="12" vol="17" />
          <note key="82" pos="684" pan="0" len="12" vol="27" />
          <note key="81" pos="696" pan="0" len="12" vol="38" />
          <note key="85" pos="708" pan="0" len="12" vol="47" />
          <note key="81" pos="720" pan="0" len="12" vol="56" />
          <note key="82" pos="732" pan="0" len="12" vol="66" />
          <note key="81" pos="744" pan="0" len="12" vol="77" />
          <note key="85" pos="756" pan="0" len="12" vol="86" />
          <note key="79" pos="768" pan="0" len="12" vol="86" />
          <note key="80" pos="780" pan="0" len="12" vol="78" />
          <note key="79" pos="792" pan="0" len="12" vol="69" />
          <note key="83" pos="804" pan="0" len="12" vol="61" />
          <note key="79" pos="816" pan="0" len="12" vol="52" />
          <note key="80" pos="828" pan="0" len="12" vol="44" />
          <note key="79" pos="840" pan="0" len="12" vol="34" />
          <note key="83" pos="852" pan="0" len="12" vol="27" />
          <note key="79" pos="864" pan="0" len="12" vol="17" />
          <note key="80" pos="876" pan="0" len="12" vol="27" />
          <note key="79" pos="888" pan="0" len="12" vol="38" />
          <note key="83" pos="900" pan="0" len="12" vol="47" />
          <note key="79" pos="912" pan="0" len="12" vol="56" />
          <note key="80" pos="924" pan="0" len="12" vol="66" />
          <note key="79" pos="936" pan="0" len="12" vol="77" />
          <note key="83" pos="948" pan="0" len="12" vol="86" />
          <note key="79" pos="960" pan="0" len="12" vol="86" />
          <note key="80" pos="972" pan="0" len="12" vol="78" />
          <note key="79" pos="984" pan="0" len="12" vol="69" />
          <note key="83" pos="996" pan="0" len="12" vol="61" />
          <note key="79" pos="1008" pan="0" len="12" vol="52" />
          <note key="80" pos="1020" pan="0" len="12" vol="44" />
          <note key="79" pos="1032" pan="0" len="12" vol="34" />
          <note key="83" pos="1044" pan="0" len="12" vol="27" />
          <note key="79" pos="1056" pan="0" len="12" vol="17" />
          <note key="80" pos="1068" pan="0" len="12" vol="27" />
          <note key="79" pos="1080" pan="0" len="12" vol="38" />
          <note key="83" pos="1092" pan="0" len="12" vol="47" />
          <note key="79" pos="1104" pan="0" len="12" vol="56" />
          <note key="80" pos="1116" pan="0" len="12" vol="66" />
          <note key="79" pos="1128" pan="0" len="12" vol="77" />
          <note key="83" pos="1140" pan="0" len="12" vol="86" />
          <note key="74" pos="1152" pan="0" len="12" vol="86" />
          <note key="75" pos="1164" pan="0" len="12" vol="78" />
          <note key="74" pos="1176" pan="0" len="12" vol="69" />
          <note key="78" pos="1188" pan="0" len="12" vol="61" />
          <note key="74" pos="1200" pan="0" len="12" vol="52" />
          <note key="75" pos="1212" pan="0" len="12" vol="44" />
          <note key="74" pos="1224" pan="0" len="12" vol="34" />
          <note key="78" pos="1236" pan="0" len="12" vol="27" />
          <note key="74" pos="1248" pan="0" len="12" vol="17" />
          <note key="75" pos="1260" pan="0" len="12" vol="27" />
          <note key="74" pos="1272" pan="0" len="12" vol="38" />
          <note key="78" pos="1284" pan="0" len="12" vol="47" />
          <note key="74" pos="1296" pan="0" len="12" vol="56" />
          <note key="75" pos="1308" pan="0" len="12" vol="66" />
          <note key="74" pos="1320" pan="0" len="12" vol="77" />
          <note key="78" pos="1332" pan="0" len="12" vol="86" />
          <note key="70" pos="1344" pan="0" len="12" vol="86" />
          <note key="71" pos="1356" pan="0" len="12" vol="78" />
          <note key="70" pos="1368" pan="0" len="12" vol="69" />
          <note key="74" pos="1380" pan="0" len="12" vol="61" />
          <note key="70" pos="1392" pan="0" len="12" vol="52" />
          <note key="71" pos="1404" pan="0" len="12" vol="44" />
          <note key="70" pos="1416" pan="0" len="12" vol="34" />
          <note key="74" pos="1428" pan="0" len="12" vol="27" />
          <note key="70" pos="1440" pan="0" len="12" vol="17" />
          <note key="71" pos="1452" pan="0" len="12" vol="27" />
          <note key="70" pos="1464" pan="0" len="12" vol="38" />
          <note key="74" pos="1476" pan="0" len="12" vol="47" />
          <note key="70" pos="1488" pan="0" len="12" vol="56" />
          <note key="71" pos="1500" pan="0" len="12" vol="66" />
          <note key="70" pos="1512" pan="0" len="12" vol="77" />
          <note key="74" pos="1524" pan="0" len="12" vol="86" />
        </pattern>
        <pattern pos="214284" muted="0" steps="16" name="" type="1">
          <note key="74" pos="0" pan="0" len="12" vol="86" />
          <note key="75" pos="12" pan="0" len="12" vol="78" />
          <note key="74" pos="24" pan="0" len="12" vol="69" />
          <note key="78" pos="36" pan="0" len="12" vol="61" />
          <note key="74" pos="48" pan="0" len="12" vol="52" />
          <note key="75" pos="60" pan="0" len="12" vol="44" />
          <note key="74" pos="72" pan="0" len="12" vol="34" />
          <note key="78" pos="84" pan="0" len="12" vol="27" />
          <note key="74" pos="96" pan="0" len="12" vol="17" />
          <note key="75" pos="108" pan="0" len="12" vol="27" />
          <note key="74" pos="120" pan="0" len="12" vol="38" />
          <note key="78" pos="132" pan="0" len="12" vol="47" />
          <note key="74" pos="144" pan="0" len="12" vol="56" />
          <note key="75" pos="156" pan="0" len="12" vol="66" />
          <note key="74" pos="168" pan="0" len="12" vol="77" />
          <note key="78" pos="180" pan="0" len="12" vol="86" />
          <note key="74" pos="192" pan="0" len="12" vol="86" />
          <note key="75" pos="204" pan="0" len="12" vol="78" />
          <note key="74" pos="216" pan="0" len="12" vol="69" />
          <note key="78" pos="228" pan="0" len="12" vol="61" />
          <note key="74" pos="240" pan="0" len="12" vol="52" />
          <note key="75" pos="252" pan="0" len="12" vol="44" />
          <note key="74" pos="264" pan="0" len="12" vol="34" />
          <note key="78" pos="276" pan="0" len="12" vol="27" />
          <note key="74" pos="288" pan="0" len="12" vol="17" />
          <note key="75" pos="300" pan="0" len="12" vol="27" />
          <note key="74" pos="312" pan="0" len="12" vol="38" />
          <note key="78" pos="324" pan="0" len="12" vol="47" />
          <note key="74" pos="336" pan="0" len="12" vol="56" />
          <note key="75" pos="348" pan="0" len="12" vol="66" />
          <note key="74" pos="360" pan="0" len="12" vol="77" />
          <note key="78" pos="372" pan="0" len="12" vol="86" />
          <note key="81" pos="384" pan="0" len="12" vol="86" />
          <note key="82" pos="396" pan="0" len="12" vol="78" />
          <note key="81" pos="408" pan="0" len="12" vol="69" />
          <note key="85" pos="420" pan="0" len="12" vol="61" />
          <note key="81" pos="432" pan="0" len="12" vol="52" />
          <note key="82" pos="444" pan="0" len="12" vol="44" />
          <note key="81" pos="456" pan="0" len="12" vol="34" />
          <note key="85" pos="468" pan="0" len="12" vol="27" />
          <note key="81" pos="480" pan="0" len="12" vol="17" />
          <note key="82" pos="492" pan="0" len="12" vol="27" />
          <note key="81" pos="504" pan="0" len="12" vol="38" />
          <note key="85" pos="516" pan="0" len="12" vol="47" />
          <note key="81" pos="528" pan="0" len="12" vol="56" />
          <note key="82" pos="540" pan="0" len="12" vol="66" />
          <note key="81" pos="552" pan="0" len="12" vol="77" />
          <note key="85" pos="564" pan="0" len="12" vol="86" />
          <note key="81" pos="576" pan="0" len="12" vol="86" />
          <note key="82" pos="588" pan="0" len="12" vol="78" />
          <note key="81" pos="600" pan="0" len="12" vol="69" />
          <note key="85" pos="612" pan="0" len="12" vol="61" />
          <note key="81" pos="624" pan="0" len="12" vol="52" />
          <note key="82" pos="636" pan="0" len="12" vol="44" />
          <note key="81" pos="648" pan="0" len="12" vol="34" />
          <note key="85" pos="660" pan="0" len="12" vol="27" />
          <note key="81" pos="672" pan="0" len="12" vol="17" />
          <note key="82" pos="684" pan="0" len="12" vol="27" />
          <note key="81" pos="696" pan="0" len="12" vol="38" />
          <note key="85" pos="708" pan="0" len="12" vol="47" />
          <note key="81" pos="720" pan="0" len="12" vol="56" />
          <note key="82" pos="732" pan="0" len="12" vol="66" />
          <note key="81" pos="744" pan="0" len="12" vol="77" />
          <note key="85" pos="756" pan="0" len="12" vol="86" />
          <note key="79" pos="768" pan="0" len="12" vol="86" />
          <note key="80" pos="780" pan="0" len="12" vol="78" />
          <note key="79" pos="792" pan="0" len="12" vol="69" />
          <note key="83" pos="804" pan="0" len="12" vol="61" />
          <note key="79" pos="816" pan="0" len="12" vol="52" />
          <note key="80" pos="828" pan="0" len="12" vol="44" />
          <note key="79" pos="840" pan="0" len="12" vol="34" />
          <note key="83" pos="852" pan="0" len="12" vol="27" />
          <note key="79" pos="864" pan="0" len="12" vol="17" />
          <note key="80" pos="876" pan="0" len="12" vol="27" />
          <note key="79" pos="888" pan="0" len="12" vol="38" />
          <note key="83" pos="900" pan="0" len="12" vol="47" />
          <note key="79" pos="912" pan="0" len="12" vol="56" />
          <note key="80" pos="924" pan="0" len="12" vol="66" />
          <note key="79" pos="936" pan="0" len="12" vol="77" />
          <note key="83" pos="948" pan="0" len="12" vol="86" />
          <note key="79" pos="960" pan="0" len="12" vol="86" />
          <note key="80" pos="972" pan="0" len="12" vol="78" />
          <note key="79" pos="984" pan="0" len="12" vol="69" />
          <note key="83" pos="996" pan="0" len="12" vol="61" />
          <note key="79" pos="1008" pan="0" len="12" vol="52" />
          <note key="80" pos="1020" pan="0" len="12" vol="44" />
          <note key="79" pos="1032" pan="0" len="12" vol="34" />
          <note key="83" pos="1044" pan="0" len="12" vol="27" />
          <note key="79" pos="1056" pan="0" len="12" vol="17" />
          <note key="80" pos="1068" pan="0" len="12" vol="27" />
          <note key="79" pos="1080" pan="0" len="12" vol="38" />
          <note key="83" pos="1092" pan="0" len="12" vol="47" />
          <note key="79" pos="1104" pan="0" len="12" vol="56" />
          <note key="80" pos="1116" pan="0" len="12" vol="66" />
          <note key="79" pos="1128" pan="0" len="12" vol="77" />
          <note key="83" pos="1140" pan="0" len="12" vol="86" />
          <note key="74" pos="1152" pan="0" len="12" vol="86" />
          <note key="75" pos="1164" pan="0" len="12" vol="78" />
          <note key="74" pos="1176" pan="0" len="12" vol="69" />
          <note key="78" pos="1188" pan="0" len="12" vol="61" />
          <note key="74" pos="1200" pan="0" len="12" vol="52" />
          <note key="75" pos="1212" pan="0" len="12" vol="44" />
          <note key="74" pos="1224" pan="0" len="12" vol="34" />
          <note key="78" pos="1236" pan="0" len="12" vol="27" />
          <note key="74" pos="1248" pan="0" len="12" vol="17" />
          <note key="75" pos="1260" pan="0" len="12" vol="27" />
          <note key="74" pos="1272" pan="0" len="12" vol="38" />
          <note key="78" pos="1284" pan="0" len="12" vol="47" />
          <note key="74" pos="1296" pan="0" len="12" vol="56" />
          <note key="75" pos="1308" pan="0" len="12" vol="66" />
          <note key="74" pos="1320" pan="0" len="12" vol="77" />
          <note key="78" pos="1332" pan="0" len="12" vol="86" />
          <note key="70" pos="1344" pan="0" len="12" vol="86" />
          <note key="71" pos="1356" pan="0" len="12" vol="78" />
          <note key="70" pos="1368" pan="0" len="12" vol="69" />
          <note key="74" pos="1380" pan="0" len="12" vol="61" />
          <note key="70" pos="1392" pan="0" len="12" vol="52" />
          <note key="71" pos="1404" pan="0" len="12" vol="44" />
          <note key="70" pos="1416" pan="0" len="12" vol="34" />
          <note key="74" pos="1428" pan="0" len="12" vol="27" />
          <note key="70" pos="1440" pan="0" len="12" vol="17" />
          <note key="71" pos="1452" pan="0" len="12" vol="27" />
          <note key="70" pos="1464" pan="0" len="12" vol="38" />
          <note key="74" pos="1476" pan="0" len="12" vol="47" />
          <note key="70" pos="1488" pan="0" len="12" vol="56" />
          <note key="71" pos="1500" pan="0" len="12" vol="66" />
          <note key="70" pos="1512" pan="0" len="12" vol="77" />
          <note key="74" pos="1524" pan="0" len="12" vol="86" />
        </pattern>
        <pattern pos="215820" muted="0" steps="16" name="" type="1">
          <note key="77" pos="0" pan="0" len="12" vol="86" />
          <note key="78" pos="12" pan="0" len="12" vol="78" />
          <note key="77" pos="24" pan="0" len="12" vol="69" />
          <note key="81" pos="36" pan="0" len="12" vol="61" />
          <note key="77" pos="48" pan="0" len="12" vol="52" />
          <note key="78" pos="60" pan="0" len="12" vol="44" />
          <note key="77" pos="72" pan="0" len="12" vol="34" />
          <note key="81" pos="84" pan="0" len="12" vol="27" />
          <note key="77" pos="96" pan="0" len="12" vol="17" />
          <note key="78" pos="108" pan="0" len="12" vol="27" />
          <note key="77" pos="120" pan="0" len="12" vol="38" />
          <note key="81" pos="132" pan="0" len="12" vol="47" />
          <note key="77" pos="144" pan="0" len="12" vol="56" />
          <note key="78" pos="156" pan="0" len="12" vol="66" />
          <note key="77" pos="168" pan="0" len="12" vol="77" />
          <note key="81" pos="180" pan="0" len="12" vol="86" />
          <note key="77" pos="192" pan="0" len="12" vol="86" />
          <note key="78" pos="204" pan="0" len="12" vol="78" />
          <note key="77" pos="216" pan="0" len="12" vol="69" />
          <note key="81" pos="228" pan="0" len="12" vol="61" />
          <note key="77" pos="240" pan="0" len="12" vol="52" />
          <note key="78" pos="252" pan="0" len="12" vol="44" />
          <note key="77" pos="264" pan="0" len="12" vol="34" />
          <note key="81" pos="276" pan="0" len="12" vol="27" />
          <note key="77" pos="288" pan="0" len="12" vol="17" />
          <note key="78" pos="300" pan="0" len="12" vol="27" />
          <note key="77" pos="312" pan="0" len="12" vol="38" />
          <note key="81" pos="324" pan="0" len="12" vol="47" />
          <note key="77" pos="336" pan="0" len="12" vol="56" />
          <note key="78" pos="348" pan="0" len="12" vol="66" />
          <note key="77" pos="360" pan="0" len="12" vol="77" />
          <note key="81" pos="372" pan="0" len="12" vol="86" />
          <note key="81" pos="384" pan="0" len="12" vol="86" />
          <note key="82" pos="396" pan="0" len="12" vol="78" />
          <note key="81" pos="408" pan="0" len="12" vol="69" />
          <note key="85" pos="420" pan="0" len="12" vol="61" />
          <note key="81" pos="432" pan="0" len="12" vol="52" />
          <note key="82" pos="444" pan="0" len="12" vol="44" />
          <note key="81" pos="456" pan="0" len="12" vol="34" />
          <note key="85" pos="468" pan="0" len="12" vol="27" />
          <note key="81" pos="480" pan="0" len="12" vol="17" />
          <note key="82" pos="492" pan="0" len="12" vol="27" />
          <note key="81" pos="504" pan="0" len="12" vol="38" />
          <note key="85" pos="516" pan="0" len="12" vol="47" />
          <note key="81" pos="528" pan="0" len="12" vol="56" />
          <note key="82" pos="540" pan="0" len="12" vol="66" />
          <note key="81" pos="552" pan="0" len="12" vol="77" />
          <note key="85" pos="564" pan="0" len="12" vol="86" />
          <note key="81" pos="576" pan="0" len="12" vol="86" />
          <note key="82" pos="588" pan="0" len="12" vol="78" />
          <note key="81" pos="600" pan="0" len="12" vol="69" />
          <note key="85" pos="612" pan="0" len="12" vol="61" />
          <note key="81" pos="624" pan="0" len="12" vol="52" />
          <note key="82" pos="636" pan="0" len="12" vol="44" />
          <note key="81" pos="648" pan="0" len="12" vol="34" />
          <note key="85" pos="660" pan="0" len="12" vol="27" />
          <note key="81" pos="672" pan="0" len="12" vol="17" />
          <note key="82" pos="684" pan="0" len="12" vol="27" />
          <note key="81" pos="696" pan="0" len="12" vol="38" />
          <note key="85" pos="708" pan="0" len="12" vol="47" />
          <note key="81" pos="720" pan="0" len="12" vol="56" />
          <note key="82" pos="732" pan="0" len="12" vol="66" />
          <note key="81" pos="744" pan="0" len="12" vol="77" />
          <note key="85" pos="756" pan="0" len="12" vol="86" />
          <note key="74" pos="768" pan="0" len="12" vol="86" />
          <note key="75" pos="780" pan="0" len="12" vol="78" />
          <note key="74" pos="792" pan="0" len="12" vol="69" />
          <note key="78" pos="804" pan="0" len="12" vol="61" />
          <note key="74" pos="816" pan="0" len="12" vol="52" />
          <note key="75" pos="828" pan="0" len="12" vol="44" />
          <note key="74" pos="840" pan="0" len="12" vol="34" />
          <note key="78" pos="852" pan="0" len="12" vol="27" />
          <note key="74" pos="864" pan="0" len="12" vol="17" />
          <note key="75" pos="876" pan="0" len="12" vol="27" />
          <note key="74" pos="888" pan="0" len="12" vol="38" />
          <note key="78" pos="900" pan="0" len="12" vol="47" />
          <note key="74" pos="912" pan="0" len="12" vol="56" />
          <note key="75" pos="924" pan="0" len="12" vol="66" />
          <note key="74" pos="936" pan="0" len="12" vol="77" />
          <note key="78" pos="948" pan="0" len="12" vol="86" />
          <note key="74" pos="960" pan="0" len="12" vol="86" />
          <note key="75" pos="972" pan="0" len="12" vol="78" />
          <note key="74" pos="984" pan="0" len="12" vol="69" />
          <note key="78" pos="996" pan="0" len="12" vol="61" />
          <note key="74" pos="1008" pan="0" len="12" vol="52" />
          <note key="75" pos="1020" pan="0" len="12" vol="44" />
          <note key="74" pos="1032" pan="0" len="12" vol="34" />
          <note key="78" pos="1044" pan="0" len="12" vol="27" />
          <note key="74" pos="1056" pan="0" len="12" vol="17" />
          <note key="75" pos="1068" pan="0" len="12" vol="27" />
          <note key="74" pos="1080" pan="0" len="12" vol="38" />
          <note key="78" pos="1092" pan="0" len="12" vol="47" />
          <note key="74" pos="1104" pan="0" len="12" vol="56" />
          <note key="75" pos="1116" pan="0" len="12" vol="66" />
          <note key="74" pos="1128" pan="0" len="12" vol="77" />
          <note key="78" pos="1140" pan="0" len="12" vol="86" />
          <note key="70" pos="1152" pan="0" len="12" vol="86" />
          <note key="71" pos="1164" pan="0" len="12" vol="78" />
          <note key="70" pos="1176" pan="0" len="12" vol="69" />
          <note key="74" pos="1188" pan="0" len="12" vol="61" />
          <note key="70" pos="1200" pan="0" len="12" vol="52" />
          <note key="71" pos="1212" pan="0" len="12" vol="44" />
          <note key="70" pos="1224" pan="0" len="12" vol="34" />
          <note key="74" pos="1236" pan="0" len="12" vol="27" />
          <note key="70" pos="1248" pan="0" len="12" vol="17" />
          <note key="71" pos="1260" pan="0" len="12" vol="27" />
          <note key="70" pos="1272" pan="0" len="12" vol="38" />
          <note key="74" pos="1284" pan="0" len="12" vol="47" />
          <note key="70" pos="1296" pan="0" len="12" vol="56" />
          <note key="71" pos="1308" pan="0" len="12" vol="66" />
          <note key="70" pos="1320" pan="0" len="12" vol="77" />
          <note key="74" pos="1332" pan="0" len="12" vol="86" />
          <note key="70" pos="1344" pan="0" len="12" vol="86" />
          <note key="71" pos="1356" pan="0" len="12" vol="78" />
          <note key="70" pos="1368" pan="0" len="12" vol="69" />
          <note key="74" pos="1380" pan="0" len="12" vol="61" />
          <note key="70" pos="1392" pan="0" len="12" vol="52" />
          <note key="71" pos="1404" pan="0" len="12" vol="44" />
          <note key="70" pos="1416" pan="0" len="12" vol="34" />
          <note key="74" pos="1428" pan="0" len="12" vol="27" />
          <note key="70" pos="1440" pan="0" len="12" vol="17" />
          <note key="71" pos="1452" pan="0" len="12" vol="27" />
          <note key="70" pos="1464" pan="0" len="12" vol="38" />
          <note key="74" pos="1476" pan="0" len="12" vol="47" />
          <note key="70" pos="1488" pan="0" len="12" vol="56" />
          <note key="71" pos="1500" pan="0" len="12" vol="66" />
          <note key="70" pos="1512" pan="0" len="12" vol="77" />
          <note key="74" pos="1524" pan="0" len="12" vol="86" />
        </pattern>
        <pattern pos="217356" muted="0" steps="16" name="" type="1">
          <note key="77" pos="0" pan="0" len="12" vol="86" />
          <note key="78" pos="12" pan="0" len="12" vol="78" />
          <note key="77" pos="24" pan="0" len="12" vol="69" />
          <note key="81" pos="36" pan="0" len="12" vol="61" />
          <note key="77" pos="48" pan="0" len="12" vol="52" />
          <note key="78" pos="60" pan="0" len="12" vol="44" />
          <note key="77" pos="72" pan="0" len="12" vol="34" />
          <note key="81" pos="84" pan="0" len="12" vol="27" />
          <note key="77" pos="96" pan="0" len="12" vol="17" />
          <note key="78" pos="108" pan="0" len="12" vol="27" />
          <note key="77" pos="120" pan="0" len="12" vol="38" />
          <note key="81" pos="132" pan="0" len="12" vol="47" />
          <note key="77" pos="144" pan="0" len="12" vol="56" />
          <note key="78" pos="156" pan="0" len="12" vol="66" />
          <note key="77" pos="168" pan="0" len="12" vol="77" />
          <note key="81" pos="180" pan="0" len="12" vol="86" />
          <note key="77" pos="192" pan="0" len="12" vol="86" />
          <note key="78" pos="204" pan="0" len="12" vol="78" />
          <note key="77" pos="216" pan="0" len="12" vol="69" />
          <note key="81" pos="228" pan="0" len="12" vol="61" />
          <note key="77" pos="240" pan="0" len="12" vol="52" />
          <note key="78" pos="252" pan="0" len="12" vol="44" />
          <note key="77" pos="264" pan="0" len="12" vol="34" />
          <note key="81" pos="276" pan="0" len="12" vol="27" />
          <note key="77" pos="288" pan="0" len="12" vol="17" />
          <note key="78" pos="300" pan="0" len="12" vol="27" />
          <note key="77" pos="312" pan="0" len="12" vol="38" />
          <note key="81" pos="324" pan="0" len="12" vol="47" />
          <note key="77" pos="336" pan="0" len="12" vol="56" />
          <note key="78" pos="348" pan="0" len="12" vol="66" />
          <note key="77" pos="360" pan="0" len="12" vol="77" />
          <note key="81" pos="372" pan="0" len="12" vol="86" />
          <note key="81" pos="384" pan="0" len="12" vol="86" />
          <note key="82" pos="396" pan="0" len="12" vol="78" />
          <note key="81" pos="408" pan="0" len="12" vol="69" />
          <note key="85" pos="420" pan="0" len="12" vol="61" />
          <note key="81" pos="432" pan="0" len="12" vol="52" />
          <note key="82" pos="444" pan="0" len="12" vol="44" />
          <note key="81" pos="456" pan="0" len="12" vol="34" />
          <note key="85" pos="468" pan="0" len="12" vol="27" />
          <note key="81" pos="480" pan="0" len="12" vol="17" />
          <note key="82" pos="492" pan="0" len="12" vol="27" />
          <note key="81" pos="504" pan="0" len="12" vol="38" />
          <note key="85" pos="516" pan="0" len="12" vol="47" />
          <note key="81" pos="528" pan="0" len="12" vol="56" />
          <note key="82" pos="540" pan="0" len="12" vol="66" />
          <note key="81" pos="552" pan="0" len="12" vol="77" />
          <note key="85" pos="564" pan="0" len="12" vol="86" />
          <note key="81" pos="576" pan="0" len="12" vol="86" />
          <note key="82" pos="588" pan="0" len="12" vol="78" />
          <note key="81" pos="600" pan="0" len="12" vol="69" />
          <note key="85" pos="612" pan="0" len="12" vol="61" />
          <note key="81" pos="624" pan="0" len="12" vol="52" />
          <note key="82" pos="636" pan="0" len="12" vol="44" />
          <note key="81" pos="648" pan="0" len="12" vol="34" />
          <note key="85" pos="660" pan="0" len="12" vol="27" />
          <note key="81" pos="672" pan="0" len="12" vol="17" />
          <note key="82" pos="684" pan="0" len="12" vol="27" />
          <note key="81" pos="696" pan="0" len="12" vol="38" />
          <note key="85" pos="708" pan="0" len="12" vol="47" />
          <note key="81" pos="720" pan="0" len="12" vol="56" />
          <note key="82" pos="732" pan="0" len="12" vol="66" />
          <note key="81" pos="744" pan="0" len="12" vol="77" />
          <note key="85" pos="756" pan="0" len="12" vol="86" />
          <note key="74" pos="768" pan="0" len="12" vol="86" />
          <note key="75" pos="780" pan="0" len="12" vol="78" />
          <note key="74" pos="792" pan="0" len="12" vol="69" />
          <note key="78" pos="804" pan="0" len="12" vol="61" />
          <note key="74" pos="816" pan="0" len="12" vol="52" />
          <note key="75" pos="828" pan="0" len="12" vol="44" />
          <note key="74" pos="840" pan="0" len="12" vol="34" />
          <note key="78" pos="852" pan="0" len="12" vol="27" />
          <note key="74" pos="864" pan="0" len="12" vol="17" />
          <note key="75" pos="876" pan="0" len="12" vol="27" />
          <note key="74" pos="888" pan="0" len="12" vol="38" />
          <note key="78" pos="900" pan="0" len="12" vol="47" />
          <note key="74" pos="912" pan="0" len="12" vol="56" />
          <note key="75" pos="924" pan="0" len="12" vol="66" />
          <note key="74" pos="936" pan="0" len="12" vol="77" />
          <note key="78" pos="948" pan="0" len="12" vol="86" />
          <note key="74" pos="960" pan="0" len="12" vol="86" />
          <note key="75" pos="972" pan="0" len="12" vol="78" />
          <note key="74" pos="984" pan="0" len="12" vol="69" />
          <note key="78" pos="996" pan="0" len="12" vol="61" />
          <note key="74" pos="1008" pan="0" len="12" vol="52" />
          <note key="75" pos="1020" pan="0" len="12" vol="44" />
          <note key="74" pos="1032" pan="0" len="12" vol="34" />
          <note key="78" pos="1044" pan="0" len="12" vol="27" />
          <note key="74" pos="1056" pan="0" len="12" vol="17" />
          <note key="75" pos="1068" pan="0" len="12" vol="27" />
          <note key="74" pos="1080" pan="0" len="12" vol="38" />
          <note key="78" pos="1092" pan="0" len="12" vol="47" />
          <note key="74" pos="1104" pan="0" len="12" vol="56" />
          <note key="75" pos="1116" pan="0" len="12" vol="66" />
          <note key="74" pos="1128" pan="0" len="12" vol="77" />
          <note key="78" pos="1140" pan="0" len="12" vol="86" />
          <note key="70" pos="1152" pan="0" len="12" vol="86" />
          <note key="71" pos="1164" pan="0" len="12" vol="78" />
          <note key="70" pos="1176" pan="0" len="12" vol="69" />
          <note key="74" pos="1188" pan="0" len="12" vol="61" />
          <note key="70" pos="1200" pan="0" len="12" vol="52" />
          <note key="71" pos="1212" pan="0" len="12" vol="44" />
          <note key="70" pos="1224" pan="0" len="12" vol="34" />
          <note key="74" pos="1236" pan="0" len="12" vol="27" />
          <note key="70" pos="1248" pan="0" len="12" vol="17" />
          <note key="71" pos="1260" pan="0" len="12" vol="27" />
          <note key="70" pos="1272" pan="0" len="12" vol="38" />
          <note key="74" pos="1284" pan="0" len="12" vol="47" />
          <note key="70" pos="1296" pan="0" len="12" vol="56" />
          <note key="71" pos="1308" pan="0" len="12" vol="66" />
          <note key="70" pos="1320" pan="0" len="12" vol="77" />
          <note key="74" pos="1332" pan="0" len="12" vol="86" />
          <note key="70" pos="1344" pan="0" len="12" vol="86" />
          <note key="71" pos="1356" pan="0" len="12" vol="78" />
          <note key="70" pos="1368" pan="0" len="12" vol="69" />
          <note key="74" pos="1380" pan="0" len="12" vol="61" />
          <note key="70" pos="1392" pan="0" len="12" vol="52" />
          <note key="71" pos="1404" pan="0" len="12" vol="44" />
          <note key="70" pos="1416" pan="0" len="12" vol="34" />
          <note key="74" pos="1428" pan="0" len="12" vol="27" />
          <note key="70" pos="1440" pan="0" len="12" vol="17" />
          <note key="71" pos="1452" pan="0" len="12" vol="27" />
          <note key="70" pos="1464" pan="0" len="12" vol="38" />
          <note key="74" pos="1476" pan="0" len="12" vol="47" />
          <note key="70" pos="1488" pan="0" len="12" vol="56" />
          <note key="71" pos="1500" pan="0" len="12" vol="66" />
          <note key="70" pos="1512" pan="0" len="12" vol="77" />
          <note key="74" pos="1524" pan="0" len="12" vol="86" />
        </pattern>
      </track>
      <track solo="0" name="82 (Ch6)" type="0" muted="0">
        <instrumenttrack usemasterpitch="1" pitch="0.0" basenote="57" pan="0" pitchrange="12" vol="30">
          <eldata />
          <instrument name="tripleoscillator" />
        </instrumenttrack>
        <pattern pos="269388" muted="0" steps="16" name="" type="1">
          <note key="64" pos="12" pan="0" len="12" vol="44" />
          <note key="64" pos="24" pan="0" len="12" vol="22" />
          <note key="64" pos="36" pan="0" len="24" vol="33" />
          <note key="64" pos="84" pan="0" len="12" vol="44" />
          <note key="64" pos="96" pan="0" len="12" vol="22" />
          <note key="64" pos="108" pan="0" len="24" vol="33" />
          <note key="64" pos="156" pan="0" len="12" vol="44" />
          <note key="64" pos="168" pan="0" len="12" vol="22" />
          <note key="64" pos="180" pan="0" len="24" vol="33" />
          <note key="64" pos="228" pan="0" len="12" vol="44" />
          <note key="64" pos="240" pan="0" len="12" vol="22" />
          <note key="64" pos="252" pan="0" len="24" vol="33" />
          <note key="64" pos="300" pan="0" len="12" vol="44" />
          <note key="64" pos="312" pan="0" len="12" vol="22" />
          <note key="64" pos="324" pan="0" len="24" vol="33" />
          <note key="64" pos="372" pan="0" len="12" vol="44" />
          <note key="64" pos="384" pan="0" len="12" vol="22" />
          <note key="64" pos="396" pan="0" len="24" vol="33" />
          <note key="64" pos="444" pan="0" len="12" vol="44" />
          <note key="64" pos="456" pan="0" len="12" vol="22" />
          <note key="64" pos="468" pan="0" len="24" vol="33" />
          <note key="64" pos="516" pan="0" len="12" vol="44" />
          <note key="64" pos="528" pan="0" len="12" vol="22" />
          <note key="64" pos="540" pan="0" len="24" vol="33" />
          <note key="64" pos="588" pan="0" len="12" vol="44" />
          <note key="64" pos="600" pan="0" len="12" vol="22" />
          <note key="64" pos="612" pan="0" len="24" vol="33" />
          <note key="64" pos="660" pan="0" len="12" vol="44" />
          <note key="64" pos="672" pan="0" len="12" vol="22" />
          <note key="64" pos="684" pan="0" len="24" vol="33" />
          <note key="64" pos="732" pan="0" len="12" vol="44" />
          <note key="64" pos="744" pan="0" len="12" vol="22" />
          <note key="64" pos="756" pan="0" len="24" vol="33" />
          <note key="64" pos="804" pan="0" len="12" vol="44" />
          <note key="64" pos="816" pan="0" len="12" vol="22" />
          <note key="64" pos="828" pan="0" len="24" vol="33" />
          <note key="64" pos="876" pan="0" len="12" vol="44" />
          <note key="64" pos="888" pan="0" len="12" vol="22" />
          <note key="64" pos="900" pan="0" len="24" vol="33" />
          <note key="64" pos="948" pan="0" len="12" vol="44" />
          <note key="64" pos="960" pan="0" len="12" vol="22" />
          <note key="64" pos="972" pan="0" len="24" vol="33" />
          <note key="64" pos="1020" pan="0" len="12" vol="44" />
          <note key="64" pos="1032" pan="0" len="12" vol="22" />
          <note key="64" pos="1044" pan="0" len="24" vol="33" />
          <note key="64" pos="1092" pan="0" len="12" vol="44" />
          <note key="64" pos="1104" pan="0" len="12" vol="22" />
          <note key="64" pos="1116" pan="0" len="24" vol="33" />
        </pattern>
      </track>
      <track solo="0" name="82 (Ch9)" type="0" muted="0">
        <instrumenttrack usemasterpitch="1" pitch="0.0" basenote="57" pan="0" pitchrange="12" vol="30">
          <eldata />
          <instrument name="tripleoscillator" />
        </instrumenttrack>
        <pattern pos="246540" muted="0" steps="16" name="" type="1">
          <note key="65" pos="0" pan="0" len="12" vol="100" />
          <note key="65" pos="12" pan="0" len="12" vol="47" />
          <note key="65" pos="24" pan="0" len="12" vol="78" />
          <note key="65" pos="36" pan="0" len="12" vol="47" />
          <note key="65" pos="48" pan="0" len="12" vol="100" />
          <note key="65" pos="60" pan="0" len="12" vol="47" />
          <note key="65" pos="72" pan="0" len="12" vol="78" />
          <note key="65" pos="84" pan="0" len="12" vol="47" />
          <note key="65" pos="96" pan="0" len="12" vol="100" />
          <note key="65" pos="108" pan="0" len="12" vol="47" />
          <note key="65" pos="120" pan="0" len="12" vol="78" />
          <note key="65" pos="132" pan="0" len="12" vol="47" />
          <note key="65" pos="144" pan="0" len="12" vol="100" />
          <note key="65" pos="156" pan="0" len="12" vol="47" />
          <note key="65" pos="168" pan="0" len="12" vol="78" />
          <note key="65" pos="180" pan="0" len="12" vol="47" />
          <note key="65" pos="192" pan="0" len="12" vol="100" />
          <note key="65" pos="204" pan="0" len="12" vol="47" />
          <note key="65" pos="216" pan="0" len="12" vol="78" />
          <note key="65" pos="228" pan="0" len="12" vol="47" />
          <note key="65" pos="240" pan="0" len="12" vol="100" />
          <note key="65" pos="252" pan="0" len="12" vol="47" />
          <note key="65" pos="264" pan="0" len="12" vol="78" />
          <note key="65" pos="276" pan="0" len="12" vol="47" />
          <note key="65" pos="288" pan="0" len="12" vol="100" />
          <note key="65" pos="300" pan="0" len="12" vol="47" />
          <note key="65" pos="312" pan="0" len="12" vol="78" />
          <note key="65" pos="324" pan="0" len="12" vol="47" />
          <note key="65" pos="336" pan="0" len="12" vol="100" />
          <note key="65" pos="348" pan="0" len="12" vol="47" />
          <note key="65" pos="360" pan="0" len="12" vol="78" />
          <note key="65" pos="372" pan="0" len="12" vol="47" />
          <note key="65" pos="384" pan="0" len="12" vol="100" />
          <note key="65" pos="396" pan="0" len="12" vol="47" />
          <note key="65" pos="408" pan="0" len="12" vol="78" />
          <note key="65" pos="420" pan="0" len="12" vol="47" />
          <note key="65" pos="432" pan="0" len="12" vol="100" />
          <note key="65" pos="444" pan="0" len="12" vol="47" />
          <note key="65" pos="456" pan="0" len="12" vol="78" />
          <note key="65" pos="468" pan="0" len="12" vol="47" />
          <note key="65" pos="480" pan="0" len="12" vol="100" />
          <note key="65" pos="492" pan="0" len="12" vol="47" />
          <note key="65" pos="504" pan="0" len="12" vol="78" />
          <note key="65" pos="516" pan="0" len="12" vol="47" />
          <note key="65" pos="528" pan="0" len="12" vol="100" />
          <note key="65" pos="540" pan="0" len="12" vol="47" />
          <note key="65" pos="552" pan="0" len="12" vol="78" />
          <note key="65" pos="564" pan="0" len="12" vol="47" />
          <note key="65" pos="576" pan="0" len="12" vol="100" />
          <note key="65" pos="588" pan="0" len="12" vol="47" />
          <note key="65" pos="600" pan="0" len="12" vol="78" />
          <note key="65" pos="612" pan="0" len="12" vol="47" />
          <note key="65" pos="624" pan="0" len="12" vol="100" />
          <note key="65" pos="636" pan="0" len="12" vol="47" />
          <note key="65" pos="648" pan="0" len="12" vol="78" />
          <note key="65" pos="660" pan="0" len="12" vol="47" />
          <note key="65" pos="672" pan="0" len="12" vol="100" />
          <note key="65" pos="684" pan="0" len="12" vol="47" />
          <note key="65" pos="696" pan="0" len="12" vol="78" />
          <note key="65" pos="708" pan="0" len="12" vol="47" />
          <note key="65" pos="720" pan="0" len="12" vol="100" />
          <note key="65" pos="732" pan="0" len="12" vol="47" />
          <note key="65" pos="744" pan="0" len="12" vol="78" />
          <note key="65" pos="756" pan="0" len="12" vol="47" />
          <note key="65" pos="768" pan="0" len="12" vol="100" />
          <note key="65" pos="780" pan="0" len="12" vol="47" />
          <note key="65" pos="792" pan="0" len="12" vol="78" />
          <note key="65" pos="804" pan="0" len="12" vol="47" />
          <note key="65" pos="816" pan="0" len="12" vol="100" />
          <note key="65" pos="828" pan="0" len="12" vol="47" />
          <note key="65" pos="840" pan="0" len="12" vol="78" />
          <note key="65" pos="852" pan="0" len="12" vol="47" />
          <note key="65" pos="864" pan="0" len="12" vol="100" />
          <note key="65" pos="876" pan="0" len="12" vol="47" />
          <note key="65" pos="888" pan="0" len="12" vol="78" />
          <note key="65" pos="900" pan="0" len="12" vol="47" />
          <note key="65" pos="912" pan="0" len="12" vol="100" />
          <note key="65" pos="924" pan="0" len="12" vol="47" />
          <note key="65" pos="936" pan="0" len="12" vol="78" />
          <note key="65" pos="948" pan="0" len="12" vol="47" />
          <note key="65" pos="960" pan="0" len="12" vol="100" />
          <note key="65" pos="972" pan="0" len="12" vol="47" />
          <note key="65" pos="984" pan="0" len="12" vol="78" />
          <note key="65" pos="996" pan="0" len="12" vol="47" />
          <note key="65" pos="1008" pan="0" len="12" vol="100" />
          <note key="65" pos="1020" pan="0" len="12" vol="47" />
          <note key="65" pos="1032" pan="0" len="12" vol="78" />
          <note key="65" pos="1044" pan="0" len="12" vol="47" />
          <note key="65" pos="1056" pan="0" len="12" vol="100" />
          <note key="65" pos="1068" pan="0" len="12" vol="47" />
          <note key="65" pos="1080" pan="0" len="12" vol="78" />
          <note key="65" pos="1092" pan="0" len="12" vol="47" />
          <note key="65" pos="1104" pan="0" len="12" vol="100" />
          <note key="65" pos="1116" pan="0" len="12" vol="47" />
          <note key="65" pos="1128" pan="0" len="12" vol="78" />
          <note key="65" pos="1140" pan="0" len="12" vol="47" />
          <note key="65" pos="1152" pan="0" len="12" vol="100" />
          <note key="65" pos="1164" pan="0" len="12" vol="47" />
          <note key="65" pos="1176" pan="0" len="12" vol="78" />
          <note key="65" pos="1188" pan="0" len="12" vol="47" />
          <note key="65" pos="1200" pan="0" len="12" vol="100" />
          <note key="65" pos="1212" pan="0" len="12" vol="47" />
          <note key="65" pos="1224" pan="0" len="12" vol="78" />
          <note key="65" pos="1236" pan="0" len="12" vol="47" />
          <note key="65" pos="1248" pan="0" len="12" vol="100" />
          <note key="65" pos="1260" pan="0" len="12" vol="47" />
          <note key="65" pos="1272" pan="0" len="12" vol="78" />
          <note key="65" pos="1284" pan="0" len="12" vol="47" />
          <note key="65" pos="1296" pan="0" len="12" vol="100" />
          <note key="65" pos="1308" pan="0" len="12" vol="47" />
          <note key="65" pos="1320" pan="0" len="12" vol="78" />
          <note key="65" pos="1332" pan="0" len="12" vol="47" />
          <note key="65" pos="1344" pan="0" len="12" vol="100" />
          <note key="65" pos="1356" pan="0" len="12" vol="47" />
          <note key="65" pos="1368" pan="0" len="12" vol="78" />
          <note key="65" pos="1380" pan="0" len="12" vol="47" />
          <note key="65" pos="1392" pan="0" len="12" vol="100" />
          <note key="65" pos="1404" pan="0" len="12" vol="47" />
          <note key="65" pos="1416" pan="0" len="12" vol="78" />
          <note key="65" pos="1428" pan="0" len="12" vol="47" />
          <note key="65" pos="1440" pan="0" len="12" vol="100" />
          <note key="65" pos="1452" pan="0" len="12" vol="47" />
          <note key="65" pos="1464" pan="0" len="12" vol="78" />
          <note key="65" pos="1476" pan="0" len="12" vol="47" />
          <note key="65" pos="1488" pan="0" len="12" vol="100" />
          <note key="65" pos="1500" pan="0" len="12" vol="47" />
          <note key="65" pos="1512" pan="0" len="12" vol="78" />
          <note key="65" pos="1524" pan="0" len="12" vol="47" />
        </pattern>
        <pattern pos="101376" muted="0" steps="16" name="" type="1">
          <note key="64" pos="96" pan="0" len="144" vol="100" />
          <note key="64" pos="480" pan="0" len="144" vol="100" />
          <note key="66" pos="864" pan="0" len="144" vol="100" />
          <note key="65" pos="1056" pan="0" len="144" vol="100" />
        </pattern>
        <pattern pos="102912" muted="0" steps="16" name="" type="1">
          <note key="64" pos="96" pan="0" len="144" vol="100" />
          <note key="64" pos="480" pan="0" len="144" vol="100" />
          <note key="66" pos="864" pan="0" len="144" vol="100" />
          <note key="65" pos="1056" pan="0" len="144" vol="100" />
        </pattern>
        <pattern pos="104448" muted="0" steps="16" name="" type="1">
          <note key="64" pos="96" pan="0" len="144" vol="100" />
          <note key="64" pos="480" pan="0" len="144" vol="100" />
          <note key="66" pos="864" pan="0" len="144" vol="100" />
          <note key="65" pos="1056" pan="0" len="144" vol="100" />
        </pattern>
        <pattern pos="105984" muted="0" steps="16" name="" type="1">
          <note key="64" pos="96" pan="0" len="144" vol="100" />
          <note key="64" pos="480" pan="0" len="144" vol="100" />
          <note key="66" pos="864" pan="0" len="144" vol="100" />
          <note key="65" pos="1056" pan="0" len="144" vol="100" />
        </pattern>
        <pattern pos="237324" muted="0" steps="16" name="" type="1">
          <note key="65" pos="0" pan="0" len="12" vol="100" />
          <note key="65" pos="12" pan="0" len="12" vol="47" />
          <note key="65" pos="24" pan="0" len="12" vol="78" />
          <note key="65" pos="36" pan="0" len="12" vol="47" />
          <note key="65" pos="48" pan="0" len="12" vol="100" />
          <note key="65" pos="60" pan="0" len="12" vol="47" />
          <note key="65" pos="72" pan="0" len="12" vol="78" />
          <note key="65" pos="84" pan="0" len="12" vol="47" />
          <note key="65" pos="96" pan="0" len="12" vol="100" />
          <note key="65" pos="108" pan="0" len="12" vol="47" />
          <note key="65" pos="120" pan="0" len="12" vol="78" />
          <note key="65" pos="132" pan="0" len="12" vol="47" />
          <note key="65" pos="144" pan="0" len="12" vol="100" />
          <note key="65" pos="156" pan="0" len="12" vol="47" />
          <note key="65" pos="168" pan="0" len="12" vol="78" />
          <note key="65" pos="180" pan="0" len="12" vol="47" />
          <note key="65" pos="192" pan="0" len="12" vol="100" />
          <note key="65" pos="204" pan="0" len="12" vol="47" />
          <note key="65" pos="216" pan="0" len="12" vol="78" />
          <note key="65" pos="228" pan="0" len="12" vol="47" />
          <note key="65" pos="240" pan="0" len="12" vol="100" />
          <note key="65" pos="252" pan="0" len="12" vol="47" />
          <note key="65" pos="264" pan="0" len="12" vol="78" />
          <note key="65" pos="276" pan="0" len="12" vol="47" />
          <note key="65" pos="288" pan="0" len="12" vol="100" />
          <note key="65" pos="300" pan="0" len="12" vol="47" />
          <note key="65" pos="312" pan="0" len="12" vol="78" />
          <note key="65" pos="324" pan="0" len="12" vol="47" />
          <note key="65" pos="336" pan="0" len="12" vol="100" />
          <note key="65" pos="348" pan="0" len="12" vol="47" />
          <note key="65" pos="360" pan="0" len="12" vol="78" />
          <note key="65" pos="372" pan="0" len="12" vol="47" />
          <note key="65" pos="384" pan="0" len="12" vol="100" />
          <note key="65" pos="396" pan="0" len="12" vol="47" />
          <note key="65" pos="408" pan="0" len="12" vol="78" />
          <note key="65" pos="420" pan="0" len="12" vol="47" />
          <note key="65" pos="432" pan="0" len="12" vol="100" />
          <note key="65" pos="444" pan="0" len="12" vol="47" />
          <note key="65" pos="456" pan="0" len="12" vol="78" />
          <note key="65" pos="468" pan="0" len="12" vol="47" />
          <note key="65" pos="480" pan="0" len="12" vol="100" />
          <note key="65" pos="492" pan="0" len="12" vol="47" />
          <note key="65" pos="504" pan="0" len="12" vol="78" />
          <note key="65" pos="516" pan="0" len="12" vol="47" />
          <note key="65" pos="528" pan="0" len="12" vol="100" />
          <note key="65" pos="540" pan="0" len="12" vol="47" />
          <note key="65" pos="552" pan="0" len="12" vol="78" />
          <note key="65" pos="564" pan="0" len="12" vol="47" />
          <note key="65" pos="576" pan="0" len="12" vol="100" />
          <note key="65" pos="588" pan="0" len="12" vol="47" />
          <note key="65" pos="600" pan="0" len="12" vol="78" />
          <note key="65" pos="612" pan="0" len="12" vol="47" />
          <note key="65" pos="624" pan="0" len="12" vol="100" />
          <note key="65" pos="636" pan="0" len="12" vol="47" />
          <note key="65" pos="648" pan="0" len="12" vol="78" />
          <note key="65" pos="660" pan="0" len="12" vol="47" />
          <note key="65" pos="672" pan="0" len="12" vol="100" />
          <note key="65" pos="684" pan="0" len="12" vol="47" />
          <note key="65" pos="696" pan="0" len="12" vol="78" />
          <note key="65" pos="708" pan="0" len="12" vol="47" />
          <note key="65" pos="720" pan="0" len="12" vol="100" />
          <note key="65" pos="732" pan="0" len="12" vol="47" />
          <note key="65" pos="744" pan="0" len="12" vol="78" />
          <note key="65" pos="756" pan="0" len="12" vol="47" />
          <note key="65" pos="768" pan="0" len="12" vol="100" />
          <note key="65" pos="780" pan="0" len="12" vol="47" />
          <note key="65" pos="792" pan="0" len="12" vol="78" />
          <note key="65" pos="804" pan="0" len="12" vol="47" />
          <note key="65" pos="816" pan="0" len="12" vol="100" />
          <note key="65" pos="828" pan="0" len="12" vol="47" />
          <note key="65" pos="840" pan="0" len="12" vol="78" />
          <note key="65" pos="852" pan="0" len="12" vol="47" />
          <note key="65" pos="864" pan="0" len="12" vol="100" />
          <note key="65" pos="876" pan="0" len="12" vol="47" />
          <note key="65" pos="888" pan="0" len="12" vol="78" />
          <note key="65" pos="900" pan="0" len="12" vol="47" />
          <note key="65" pos="912" pan="0" len="12" vol="100" />
          <note key="65" pos="924" pan="0" len="12" vol="47" />
          <note key="65" pos="936" pan="0" len="12" vol="78" />
          <note key="65" pos="948" pan="0" len="12" vol="47" />
          <note key="65" pos="960" pan="0" len="12" vol="100" />
          <note key="65" pos="972" pan="0" len="12" vol="47" />
          <note key="65" pos="984" pan="0" len="12" vol="78" />
          <note key="65" pos="996" pan="0" len="12" vol="47" />
          <note key="65" pos="1008" pan="0" len="12" vol="100" />
          <note key="65" pos="1020" pan="0" len="12" vol="47" />
          <note key="65" pos="1032" pan="0" len="12" vol="78" />
          <note key="65" pos="1044" pan="0" len="12" vol="47" />
          <note key="65" pos="1056" pan="0" len="12" vol="100" />
          <note key="65" pos="1068" pan="0" len="12" vol="47" />
          <note key="65" pos="1080" pan="0" len="12" vol="78" />
          <note key="65" pos="1092" pan="0" len="12" vol="47" />
          <note key="65" pos="1104" pan="0" len="12" vol="100" />
          <note key="65" pos="1116" pan="0" len="12" vol="47" />
          <note key="65" pos="1128" pan="0" len="12" vol="78" />
          <note key="65" pos="1140" pan="0" len="12" vol="47" />
          <note key="65" pos="1152" pan="0" len="12" vol="100" />
          <note key="65" pos="1164" pan="0" len="12" vol="47" />
          <note key="65" pos="1176" pan="0" len="12" vol="78" />
          <note key="65" pos="1188" pan="0" len="12" vol="47" />
          <note key="65" pos="1200" pan="0" len="12" vol="100" />
          <note key="65" pos="1212" pan="0" len="12" vol="47" />
          <note key="65" pos="1224" pan="0" len="12" vol="78" />
          <note key="65" pos="1236" pan="0" len="12" vol="47" />
          <note key="65" pos="1248" pan="0" len="12" vol="100" />
          <note key="65" pos="1260" pan="0" len="12" vol="47" />
          <note key="65" pos="1272" pan="0" len="12" vol="78" />
          <note key="65" pos="1284" pan="0" len="12" vol="47" />
          <note key="65" pos="1296" pan="0" len="12" vol="100" />
          <note key="65" pos="1308" pan="0" len="12" vol="47" />
          <note key="65" pos="1320" pan="0" len="12" vol="78" />
          <note key="65" pos="1332" pan="0" len="12" vol="47" />
          <note key="65" pos="1344" pan="0" len="12" vol="100" />
          <note key="65" pos="1356" pan="0" len="12" vol="47" />
          <note key="65" pos="1368" pan="0" len="12" vol="78" />
          <note key="65" pos="1380" pan="0" len="12" vol="47" />
          <note key="65" pos="1392" pan="0" len="12" vol="100" />
          <note key="65" pos="1404" pan="0" len="12" vol="47" />
          <note key="65" pos="1416" pan="0" len="12" vol="78" />
          <note key="65" pos="1428" pan="0" len="12" vol="47" />
          <note key="65" pos="1440" pan="0" len="12" vol="100" />
          <note key="65" pos="1452" pan="0" len="12" vol="47" />
          <note key="65" pos="1464" pan="0" len="12" vol="78" />
          <note key="65" pos="1476" pan="0" len="12" vol="47" />
          <note key="65" pos="1488" pan="0" len="12" vol="100" />
          <note key="65" pos="1500" pan="0" len="12" vol="47" />
          <note key="65" pos="1512" pan="0" len="12" vol="78" />
          <note key="65" pos="1524" pan="0" len="12" vol="47" />
        </pattern>
        <pattern pos="238860" muted="0" steps="16" name="" type="1">
          <note key="65" pos="0" pan="0" len="12" vol="100" />
          <note key="65" pos="12" pan="0" len="12" vol="62" />
          <note key="65" pos="24" pan="0" len="12" vol="100" />
          <note key="65" pos="36" pan="0" len="12" vol="62" />
          <note key="65" pos="48" pan="0" len="12" vol="100" />
          <note key="65" pos="60" pan="0" len="12" vol="62" />
          <note key="65" pos="72" pan="0" len="12" vol="100" />
          <note key="65" pos="84" pan="0" len="12" vol="62" />
          <note key="65" pos="96" pan="0" len="12" vol="100" />
          <note key="65" pos="108" pan="0" len="12" vol="62" />
          <note key="65" pos="120" pan="0" len="12" vol="100" />
          <note key="65" pos="132" pan="0" len="12" vol="62" />
          <note key="65" pos="144" pan="0" len="12" vol="100" />
          <note key="65" pos="156" pan="0" len="12" vol="62" />
          <note key="65" pos="168" pan="0" len="12" vol="100" />
          <note key="65" pos="180" pan="0" len="12" vol="62" />
          <note key="65" pos="192" pan="0" len="12" vol="100" />
          <note key="65" pos="204" pan="0" len="12" vol="62" />
          <note key="65" pos="216" pan="0" len="12" vol="100" />
          <note key="65" pos="228" pan="0" len="12" vol="62" />
          <note key="65" pos="240" pan="0" len="12" vol="100" />
          <note key="65" pos="252" pan="0" len="12" vol="62" />
          <note key="65" pos="264" pan="0" len="12" vol="100" />
          <note key="65" pos="276" pan="0" len="12" vol="62" />
          <note key="65" pos="288" pan="0" len="12" vol="100" />
          <note key="65" pos="300" pan="0" len="12" vol="62" />
          <note key="65" pos="312" pan="0" len="12" vol="100" />
          <note key="65" pos="324" pan="0" len="12" vol="62" />
          <note key="65" pos="336" pan="0" len="12" vol="100" />
          <note key="65" pos="348" pan="0" len="12" vol="62" />
          <note key="65" pos="360" pan="0" len="12" vol="100" />
          <note key="65" pos="372" pan="0" len="12" vol="62" />
          <note key="65" pos="384" pan="0" len="12" vol="100" />
          <note key="65" pos="396" pan="0" len="12" vol="62" />
          <note key="65" pos="408" pan="0" len="12" vol="100" />
          <note key="65" pos="420" pan="0" len="12" vol="62" />
          <note key="65" pos="432" pan="0" len="12" vol="100" />
          <note key="65" pos="444" pan="0" len="12" vol="62" />
          <note key="65" pos="456" pan="0" len="12" vol="100" />
          <note key="65" pos="468" pan="0" len="12" vol="62" />
          <note key="65" pos="480" pan="0" len="12" vol="100" />
          <note key="65" pos="492" pan="0" len="12" vol="62" />
          <note key="65" pos="504" pan="0" len="12" vol="100" />
          <note key="65" pos="516" pan="0" len="12" vol="62" />
          <note key="65" pos="528" pan="0" len="12" vol="100" />
          <note key="65" pos="540" pan="0" len="12" vol="62" />
          <note key="65" pos="552" pan="0" len="12" vol="100" />
          <note key="65" pos="564" pan="0" len="12" vol="62" />
          <note key="65" pos="576" pan="0" len="12" vol="100" />
          <note key="65" pos="588" pan="0" len="12" vol="62" />
          <note key="65" pos="600" pan="0" len="12" vol="100" />
          <note key="65" pos="612" pan="0" len="12" vol="62" />
          <note key="65" pos="624" pan="0" len="12" vol="100" />
          <note key="65" pos="636" pan="0" len="12" vol="62" />
          <note key="65" pos="648" pan="0" len="12" vol="100" />
          <note key="65" pos="660" pan="0" len="12" vol="62" />
          <note key="65" pos="672" pan="0" len="12" vol="100" />
          <note key="65" pos="684" pan="0" len="12" vol="62" />
          <note key="65" pos="696" pan="0" len="12" vol="100" />
          <note key="65" pos="708" pan="0" len="12" vol="62" />
          <note key="65" pos="720" pan="0" len="12" vol="100" />
          <note key="65" pos="732" pan="0" len="12" vol="62" />
          <note key="65" pos="744" pan="0" len="12" vol="100" />
          <note key="65" pos="756" pan="0" len="12" vol="62" />
          <note key="65" pos="768" pan="0" len="12" vol="100" />
          <note key="65" pos="780" pan="0" len="12" vol="62" />
          <note key="65" pos="792" pan="0" len="12" vol="100" />
          <note key="65" pos="804" pan="0" len="12" vol="62" />
          <note key="65" pos="816" pan="0" len="12" vol="100" />
          <note key="65" pos="828" pan="0" len="12" vol="62" />
          <note key="65" pos="840" pan="0" len="12" vol="100" />
          <note key="65" pos="852" pan="0" len="12" vol="62" />
          <note key="65" pos="864" pan="0" len="12" vol="100" />
          <note key="65" pos="876" pan="0" len="12" vol="62" />
          <note key="65" pos="888" pan="0" len="12" vol="100" />
          <note key="65" pos="900" pan="0" len="12" vol="62" />
          <note key="65" pos="912" pan="0" len="12" vol="100" />
          <note key="65" pos="924" pan="0" len="12" vol="62" />
          <note key="65" pos="936" pan="0" len="12" vol="100" />
          <note key="65" pos="948" pan="0" len="12" vol="62" />
          <note key="65" pos="960" pan="0" len="12" vol="100" />
          <note key="65" pos="972" pan="0" len="12" vol="62" />
          <note key="65" pos="984" pan="0" len="12" vol="100" />
          <note key="65" pos="996" pan="0" len="12" vol="62" />
          <note key="65" pos="1008" pan="0" len="12" vol="100" />
          <note key="65" pos="1020" pan="0" len="12" vol="62" />
          <note key="65" pos="1032" pan="0" len="12" vol="100" />
          <note key="65" pos="1044" pan="0" len="12" vol="62" />
          <note key="65" pos="1056" pan="0" len="12" vol="100" />
          <note key="65" pos="1068" pan="0" len="12" vol="62" />
          <note key="65" pos="1080" pan="0" len="12" vol="100" />
          <note key="65" pos="1092" pan="0" len="12" vol="62" />
          <note key="65" pos="1104" pan="0" len="12" vol="100" />
          <note key="65" pos="1116" pan="0" len="12" vol="62" />
          <note key="65" pos="1128" pan="0" len="12" vol="100" />
          <note key="65" pos="1140" pan="0" len="12" vol="62" />
          <note key="65" pos="1152" pan="0" len="12" vol="100" />
          <note key="65" pos="1164" pan="0" len="12" vol="62" />
          <note key="65" pos="1176" pan="0" len="12" vol="100" />
          <note key="65" pos="1188" pan="0" len="12" vol="62" />
          <note key="65" pos="1200" pan="0" len="12" vol="100" />
          <note key="65" pos="1212" pan="0" len="12" vol="62" />
          <note key="65" pos="1224" pan="0" len="12" vol="100" />
          <note key="65" pos="1236" pan="0" len="12" vol="62" />
          <note key="65" pos="1248" pan="0" len="12" vol="100" />
          <note key="65" pos="1260" pan="0" len="12" vol="62" />
          <note key="65" pos="1272" pan="0" len="12" vol="100" />
          <note key="65" pos="1284" pan="0" len="12" vol="62" />
          <note key="65" pos="1296" pan="0" len="12" vol="100" />
          <note key="65" pos="1308" pan="0" len="12" vol="62" />
          <note key="65" pos="1320" pan="0" len="12" vol="100" />
          <note key="65" pos="1332" pan="0" len="12" vol="62" />
          <note key="65" pos="1344" pan="0" len="12" vol="100" />
          <note key="65" pos="1356" pan="0" len="12" vol="62" />
          <note key="65" pos="1368" pan="0" len="12" vol="100" />
          <note key="65" pos="1380" pan="0" len="12" vol="62" />
          <note key="65" pos="1392" pan="0" len="12" vol="100" />
          <note key="65" pos="1404" pan="0" len="12" vol="62" />
          <note key="65" pos="1416" pan="0" len="12" vol="100" />
          <note key="65" pos="1428" pan="0" len="12" vol="62" />
          <note key="65" pos="1440" pan="0" len="12" vol="100" />
          <note key="65" pos="1452" pan="0" len="12" vol="62" />
          <note key="65" pos="1464" pan="0" len="12" vol="100" />
          <note key="65" pos="1476" pan="0" len="12" vol="62" />
          <note key="65" pos="1488" pan="0" len="12" vol="100" />
          <note key="65" pos="1500" pan="0" len="12" vol="62" />
          <note key="65" pos="1512" pan="0" len="12" vol="100" />
          <note key="65" pos="1524" pan="0" len="12" vol="62" />
        </pattern>
        <pattern pos="240396" muted="0" steps="16" name="" type="1">
          <note key="65" pos="0" pan="0" len="12" vol="100" />
          <note key="65" pos="12" pan="0" len="12" vol="47" />
          <note key="65" pos="24" pan="0" len="12" vol="78" />
          <note key="65" pos="36" pan="0" len="12" vol="47" />
          <note key="65" pos="48" pan="0" len="12" vol="100" />
          <note key="65" pos="60" pan="0" len="12" vol="47" />
          <note key="65" pos="72" pan="0" len="12" vol="78" />
          <note key="65" pos="84" pan="0" len="12" vol="47" />
          <note key="65" pos="96" pan="0" len="12" vol="100" />
          <note key="65" pos="108" pan="0" len="12" vol="47" />
          <note key="65" pos="120" pan="0" len="12" vol="78" />
          <note key="65" pos="132" pan="0" len="12" vol="47" />
          <note key="65" pos="144" pan="0" len="12" vol="100" />
          <note key="65" pos="156" pan="0" len="12" vol="47" />
          <note key="65" pos="168" pan="0" len="12" vol="78" />
          <note key="65" pos="180" pan="0" len="12" vol="47" />
          <note key="65" pos="192" pan="0" len="12" vol="100" />
          <note key="65" pos="204" pan="0" len="12" vol="47" />
          <note key="65" pos="216" pan="0" len="12" vol="78" />
          <note key="65" pos="228" pan="0" len="12" vol="47" />
          <note key="65" pos="240" pan="0" len="12" vol="100" />
          <note key="65" pos="252" pan="0" len="12" vol="47" />
          <note key="65" pos="264" pan="0" len="12" vol="78" />
          <note key="65" pos="276" pan="0" len="12" vol="47" />
          <note key="65" pos="288" pan="0" len="12" vol="100" />
          <note key="65" pos="300" pan="0" len="12" vol="47" />
          <note key="65" pos="312" pan="0" len="12" vol="78" />
          <note key="65" pos="324" pan="0" len="12" vol="47" />
          <note key="65" pos="336" pan="0" len="12" vol="100" />
          <note key="65" pos="348" pan="0" len="12" vol="47" />
          <note key="65" pos="360" pan="0" len="12" vol="78" />
          <note key="65" pos="372" pan="0" len="12" vol="47" />
          <note key="65" pos="384" pan="0" len="12" vol="100" />
          <note key="65" pos="396" pan="0" len="12" vol="47" />
          <note key="65" pos="408" pan="0" len="12" vol="78" />
          <note key="65" pos="420" pan="0" len="12" vol="47" />
          <note key="65" pos="432" pan="0" len="12" vol="100" />
          <note key="65" pos="444" pan="0" len="12" vol="47" />
          <note key="65" pos="456" pan="0" len="12" vol="78" />
          <note key="65" pos="468" pan="0" len="12" vol="47" />
          <note key="65" pos="480" pan="0" len="12" vol="100" />
          <note key="65" pos="492" pan="0" len="12" vol="47" />
          <note key="65" pos="504" pan="0" len="12" vol="78" />
          <note key="65" pos="516" pan="0" len="12" vol="47" />
          <note key="65" pos="528" pan="0" len="12" vol="100" />
          <note key="65" pos="540" pan="0" len="12" vol="47" />
          <note key="65" pos="552" pan="0" len="12" vol="78" />
          <note key="65" pos="564" pan="0" len="12" vol="47" />
          <note key="65" pos="576" pan="0" len="12" vol="100" />
          <note key="65" pos="588" pan="0" len="12" vol="47" />
          <note key="65" pos="600" pan="0" len="12" vol="78" />
          <note key="65" pos="612" pan="0" len="12" vol="47" />
          <note key="65" pos="624" pan="0" len="12" vol="100" />
          <note key="65" pos="636" pan="0" len="12" vol="47" />
          <note key="65" pos="648" pan="0" len="12" vol="78" />
          <note key="65" pos="660" pan="0" len="12" vol="47" />
          <note key="65" pos="672" pan="0" len="12" vol="100" />
          <note key="65" pos="684" pan="0" len="12" vol="47" />
          <note key="65" pos="696" pan="0" len="12" vol="78" />
          <note key="65" pos="708" pan="0" len="12" vol="47" />
          <note key="65" pos="720" pan="0" len="12" vol="100" />
          <note key="65" pos="732" pan="0" len="12" vol="47" />
          <note key="65" pos="744" pan="0" len="12" vol="78" />
          <note key="65" pos="756" pan="0" len="12" vol="47" />
          <note key="65" pos="768" pan="0" len="12" vol="100" />
          <note key="65" pos="780" pan="0" len="12" vol="47" />
          <note key="65" pos="792" pan="0" len="12" vol="78" />
          <note key="65" pos="804" pan="0" len="12" vol="47" />
          <note key="65" pos="816" pan="0" len="12" vol="100" />
          <note key="65" pos="828" pan="0" len="12" vol="47" />
          <note key="65" pos="840" pan="0" len="12" vol="78" />
          <note key="65" pos="852" pan="0" len="12" vol="47" />
          <note key="65" pos="864" pan="0" len="12" vol="100" />
          <note key="65" pos="876" pan="0" len="12" vol="47" />
          <note key="65" pos="888" pan="0" len="12" vol="78" />
          <note key="65" pos="900" pan="0" len="12" vol="47" />
          <note key="65" pos="912" pan="0" len="12" vol="100" />
          <note key="65" pos="924" pan="0" len="12" vol="47" />
          <note key="65" pos="936" pan="0" len="12" vol="78" />
          <note key="65" pos="948" pan="0" len="12" vol="47" />
          <note key="65" pos="960" pan="0" len="12" vol="100" />
          <note key="65" pos="972" pan="0" len="12" vol="47" />
          <note key="65" pos="984" pan="0" len="12" vol="78" />
          <note key="65" pos="996" pan="0" len="12" vol="47" />
          <note key="65" pos="1008" pan="0" len="12" vol="100" />
          <note key="65" pos="1020" pan="0" len="12" vol="47" />
          <note key="65" pos="1032" pan="0" len="12" vol="78" />
          <note key="65" pos="1044" pan="0" len="12" vol="47" />
          <note key="65" pos="1056" pan="0" len="12" vol="100" />
          <note key="65" pos="1068" pan="0" len="12" vol="47" />
          <note key="65" pos="1080" pan="0" len="12" vol="78" />
          <note key="65" pos="1092" pan="0" len="12" vol="47" />
          <note key="65" pos="1104" pan="0" len="12" vol="100" />
          <note key="65" pos="1116" pan="0" len="12" vol="47" />
          <note key="65" pos="1128" pan="0" len="12" vol="78" />
          <note key="65" pos="1140" pan="0" len="12" vol="47" />
          <note key="65" pos="1152" pan="0" len="12" vol="100" />
          <note key="65" pos="1164" pan="0" len="12" vol="47" />
          <note key="65" pos="1176" pan="0" len="12" vol="78" />
          <note key="65" pos="1188" pan="0" len="12" vol="47" />
          <note key="65" pos="1200" pan="0" len="12" vol="100" />
          <note key="65" pos="1212" pan="0" len="12" vol="47" />
          <note key="65" pos="1224" pan="0" len="12" vol="78" />
          <note key="65" pos="1236" pan="0" len="12" vol="47" />
          <note key="65" pos="1248" pan="0" len="12" vol="100" />
          <note key="65" pos="1260" pan="0" len="12" vol="47" />
          <note key="65" pos="1272" pan="0" len="12" vol="78" />
          <note key="65" pos="1284" pan="0" len="12" vol="47" />
          <note key="65" pos="1296" pan="0" len="12" vol="100" />
          <note key="65" pos="1308" pan="0" len="12" vol="47" />
          <note key="65" pos="1320" pan="0" len="12" vol="78" />
          <note key="65" pos="1332" pan="0" len="12" vol="47" />
          <note key="65" pos="1344" pan="0" len="12" vol="100" />
          <note key="65" pos="1356" pan="0" len="12" vol="47" />
          <note key="65" pos="1368" pan="0" len="12" vol="78" />
          <note key="65" pos="1380" pan="0" len="12" vol="47" />
          <note key="65" pos="1392" pan="0" len="12" vol="100" />
          <note key="65" pos="1404" pan="0" len="12" vol="47" />
          <note key="65" pos="1416" pan="0" len="12" vol="78" />
          <note key="65" pos="1428" pan="0" len="12" vol="47" />
          <note key="65" pos="1440" pan="0" len="12" vol="100" />
          <note key="65" pos="1452" pan="0" len="12" vol="47" />
          <note key="65" pos="1464" pan="0" len="12" vol="78" />
          <note key="65" pos="1476" pan="0" len="12" vol="47" />
          <note key="65" pos="1488" pan="0" len="12" vol="100" />
          <note key="65" pos="1500" pan="0" len="12" vol="47" />
          <note key="65" pos="1512" pan="0" len="12" vol="78" />
          <note key="65" pos="1524" pan="0" len="12" vol="47" />
        </pattern>
        <pattern pos="241932" muted="0" steps="16" name="" type="1">
          <note key="65" pos="0" pan="0" len="12" vol="100" />
          <note key="65" pos="12" pan="0" len="12" vol="47" />
          <note key="65" pos="24" pan="0" len="12" vol="78" />
          <note key="65" pos="36" pan="0" len="12" vol="47" />
          <note key="65" pos="48" pan="0" len="12" vol="100" />
          <note key="65" pos="60" pan="0" len="12" vol="47" />
          <note key="65" pos="72" pan="0" len="12" vol="78" />
          <note key="65" pos="84" pan="0" len="12" vol="47" />
          <note key="65" pos="96" pan="0" len="12" vol="100" />
          <note key="65" pos="108" pan="0" len="12" vol="47" />
          <note key="65" pos="120" pan="0" len="12" vol="78" />
          <note key="65" pos="132" pan="0" len="12" vol="47" />
          <note key="65" pos="144" pan="0" len="12" vol="100" />
          <note key="65" pos="156" pan="0" len="12" vol="47" />
          <note key="65" pos="168" pan="0" len="12" vol="78" />
          <note key="65" pos="180" pan="0" len="12" vol="47" />
          <note key="65" pos="192" pan="0" len="12" vol="100" />
          <note key="65" pos="204" pan="0" len="12" vol="47" />
          <note key="65" pos="216" pan="0" len="12" vol="78" />
          <note key="65" pos="228" pan="0" len="12" vol="47" />
          <note key="65" pos="240" pan="0" len="12" vol="100" />
          <note key="65" pos="252" pan="0" len="12" vol="47" />
          <note key="65" pos="264" pan="0" len="12" vol="78" />
          <note key="65" pos="276" pan="0" len="12" vol="47" />
          <note key="65" pos="288" pan="0" len="12" vol="100" />
          <note key="65" pos="300" pan="0" len="12" vol="47" />
          <note key="65" pos="312" pan="0" len="12" vol="78" />
          <note key="65" pos="324" pan="0" len="12" vol="47" />
          <note key="65" pos="336" pan="0" len="12" vol="100" />
          <note key="65" pos="348" pan="0" len="12" vol="47" />
          <note key="65" pos="360" pan="0" len="12" vol="78" />
          <note key="65" pos="372" pan="0" len="12" vol="47" />
          <note key="65" pos="384" pan="0" len="12" vol="100" />
          <note key="65" pos="396" pan="0" len="12" vol="47" />
          <note key="65" pos="408" pan="0" len="12" vol="78" />
          <note key="65" pos="420" pan="0" len="12" vol="47" />
          <note key="65" pos="432" pan="0" len="12" vol="100" />
          <note key="65" pos="444" pan="0" len="12" vol="47" />
          <note key="65" pos="456" pan="0" len="12" vol="78" />
          <note key="65" pos="468" pan="0" len="12" vol="47" />
          <note key="65" pos="480" pan="0" len="12" vol="100" />
          <note key="65" pos="492" pan="0" len="12" vol="47" />
          <note key="65" pos="504" pan="0" len="12" vol="78" />
          <note key="65" pos="516" pan="0" len="12" vol="47" />
          <note key="65" pos="528" pan="0" len="12" vol="100" />
          <note key="65" pos="540" pan="0" len="12" vol="47" />
          <note key="65" pos="552" pan="0" len="12" vol="78" />
          <note key="65" pos="564" pan="0" len="12" vol="47" />
          <note key="65" pos="576" pan="0" len="12" vol="100" />
          <note key="65" pos="588" pan="0" len="12" vol="47" />
          <note key="65" pos="600" pan="0" len="12" vol="78" />
          <note key="65" pos="612" pan="0" len="12" vol="47" />
          <note key="65" pos="624" pan="0" len="12" vol="100" />
          <note key="65" pos="636" pan="0" len="12" vol="47" />
          <note key="65" pos="648" pan="0" len="12" vol="78" />
          <note key="65" pos="660" pan="0" len="12" vol="47" />
          <note key="65" pos="672" pan="0" len="12" vol="100" />
          <note key="65" pos="684" pan="0" len="12" vol="47" />
          <note key="65" pos="696" pan="0" len="12" vol="78" />
          <note key="65" pos="708" pan="0" len="12" vol="47" />
          <note key="65" pos="720" pan="0" len="12" vol="100" />
          <note key="65" pos="732" pan="0" len="12" vol="47" />
          <note key="65" pos="744" pan="0" len="12" vol="78" />
          <note key="65" pos="756" pan="0" len="12" vol="47" />
          <note key="65" pos="768" pan="0" len="12" vol="100" />
          <note key="65" pos="780" pan="0" len="12" vol="47" />
          <note key="65" pos="792" pan="0" len="12" vol="78" />
          <note key="65" pos="804" pan="0" len="12" vol="47" />
          <note key="65" pos="816" pan="0" len="12" vol="100" />
          <note key="65" pos="828" pan="0" len="12" vol="47" />
          <note key="65" pos="840" pan="0" len="12" vol="78" />
          <note key="65" pos="852" pan="0" len="12" vol="47" />
          <note key="65" pos="864" pan="0" len="12" vol="100" />
          <note key="65" pos="876" pan="0" len="12" vol="47" />
          <note key="65" pos="888" pan="0" len="12" vol="78" />
          <note key="65" pos="900" pan="0" len="12" vol="47" />
          <note key="65" pos="912" pan="0" len="12" vol="100" />
          <note key="65" pos="924" pan="0" len="12" vol="47" />
          <note key="65" pos="936" pan="0" len="12" vol="78" />
          <note key="65" pos="948" pan="0" len="12" vol="47" />
          <note key="65" pos="960" pan="0" len="12" vol="100" />
          <note key="65" pos="972" pan="0" len="12" vol="47" />
          <note key="65" pos="984" pan="0" len="12" vol="78" />
          <note key="65" pos="996" pan="0" len="12" vol="47" />
          <note key="65" pos="1008" pan="0" len="12" vol="100" />
          <note key="65" pos="1020" pan="0" len="12" vol="47" />
          <note key="65" pos="1032" pan="0" len="12" vol="78" />
          <note key="65" pos="1044" pan="0" len="12" vol="47" />
          <note key="65" pos="1056" pan="0" len="12" vol="100" />
          <note key="65" pos="1068" pan="0" len="12" vol="47" />
          <note key="65" pos="1080" pan="0" len="12" vol="78" />
          <note key="65" pos="1092" pan="0" len="12" vol="47" />
          <note key="65" pos="1104" pan="0" len="12" vol="100" />
          <note key="65" pos="1116" pan="0" len="12" vol="47" />
          <note key="65" pos="1128" pan="0" len="12" vol="78" />
          <note key="65" pos="1140" pan="0" len="12" vol="47" />
          <note key="65" pos="1152" pan="0" len="12" vol="100" />
          <note key="65" pos="1164" pan="0" len="12" vol="47" />
          <note key="65" pos="1176" pan="0" len="12" vol="78" />
          <note key="65" pos="1188" pan="0" len="12" vol="47" />
          <note key="65" pos="1200" pan="0" len="12" vol="100" />
          <note key="65" pos="1212" pan="0" len="12" vol="47" />
          <note key="65" pos="1224" pan="0" len="12" vol="78" />
          <note key="65" pos="1236" pan="0" len="12" vol="47" />
          <note key="65" pos="1248" pan="0" len="12" vol="100" />
          <note key="65" pos="1260" pan="0" len="12" vol="47" />
          <note key="65" pos="1272" pan="0" len="12" vol="78" />
          <note key="65" pos="1284" pan="0" len="12" vol="47" />
          <note key="65" pos="1296" pan="0" len="12" vol="100" />
          <note key="65" pos="1308" pan="0" len="12" vol="47" />
          <note key="65" pos="1320" pan="0" len="12" vol="78" />
          <note key="65" pos="1332" pan="0" len="12" vol="47" />
          <note key="65" pos="1344" pan="0" len="12" vol="100" />
          <note key="65" pos="1356" pan="0" len="12" vol="47" />
          <note key="65" pos="1368" pan="0" len="12" vol="78" />
          <note key="65" pos="1380" pan="0" len="12" vol="47" />
          <note key="65" pos="1392" pan="0" len="12" vol="100" />
          <note key="65" pos="1404" pan="0" len="12" vol="47" />
          <note key="65" pos="1416" pan="0" len="12" vol="78" />
          <note key="65" pos="1428" pan="0" len="12" vol="47" />
          <note key="65" pos="1440" pan="0" len="12" vol="100" />
          <note key="65" pos="1452" pan="0" len="12" vol="47" />
          <note key="65" pos="1464" pan="0" len="12" vol="78" />
          <note key="65" pos="1476" pan="0" len="12" vol="47" />
          <note key="65" pos="1488" pan="0" len="12" vol="100" />
          <note key="65" pos="1500" pan="0" len="12" vol="47" />
          <note key="65" pos="1512" pan="0" len="12" vol="78" />
          <note key="65" pos="1524" pan="0" len="12" vol="47" />
        </pattern>
        <pattern pos="243468" muted="0" steps="16" name="" type="1">
          <note key="65" pos="0" pan="0" len="12" vol="100" />
          <note key="65" pos="12" pan="0" len="12" vol="47" />
          <note key="65" pos="24" pan="0" len="12" vol="78" />
          <note key="65" pos="36" pan="0" len="12" vol="47" />
          <note key="65" pos="48" pan="0" len="12" vol="100" />
          <note key="65" pos="60" pan="0" len="12" vol="47" />
          <note key="65" pos="72" pan="0" len="12" vol="78" />
          <note key="65" pos="84" pan="0" len="12" vol="47" />
          <note key="65" pos="96" pan="0" len="12" vol="100" />
          <note key="65" pos="108" pan="0" len="12" vol="47" />
          <note key="65" pos="120" pan="0" len="12" vol="78" />
          <note key="65" pos="132" pan="0" len="12" vol="47" />
          <note key="65" pos="144" pan="0" len="12" vol="100" />
          <note key="65" pos="156" pan="0" len="12" vol="47" />
          <note key="65" pos="168" pan="0" len="12" vol="78" />
          <note key="65" pos="180" pan="0" len="12" vol="47" />
          <note key="65" pos="192" pan="0" len="12" vol="100" />
          <note key="65" pos="204" pan="0" len="12" vol="47" />
          <note key="65" pos="216" pan="0" len="12" vol="78" />
          <note key="65" pos="228" pan="0" len="12" vol="47" />
          <note key="65" pos="240" pan="0" len="12" vol="100" />
          <note key="65" pos="252" pan="0" len="12" vol="47" />
          <note key="65" pos="264" pan="0" len="12" vol="78" />
          <note key="65" pos="276" pan="0" len="12" vol="47" />
          <note key="65" pos="288" pan="0" len="12" vol="100" />
          <note key="65" pos="300" pan="0" len="12" vol="47" />
          <note key="65" pos="312" pan="0" len="12" vol="78" />
          <note key="65" pos="324" pan="0" len="12" vol="47" />
          <note key="65" pos="336" pan="0" len="12" vol="100" />
          <note key="65" pos="348" pan="0" len="12" vol="47" />
          <note key="65" pos="360" pan="0" len="12" vol="78" />
          <note key="65" pos="372" pan="0" len="12" vol="47" />
          <note key="65" pos="384" pan="0" len="12" vol="100" />
          <note key="65" pos="396" pan="0" len="12" vol="47" />
          <note key="65" pos="408" pan="0" len="12" vol="78" />
          <note key="65" pos="420" pan="0" len="12" vol="47" />
          <note key="65" pos="432" pan="0" len="12" vol="100" />
          <note key="65" pos="444" pan="0" len="12" vol="47" />
          <note key="65" pos="456" pan="0" len="12" vol="78" />
          <note key="65" pos="468" pan="0" len="12" vol="47" />
          <note key="65" pos="480" pan="0" len="12" vol="100" />
          <note key="65" pos="492" pan="0" len="12" vol="47" />
          <note key="65" pos="504" pan="0" len="12" vol="78" />
          <note key="65" pos="516" pan="0" len="12" vol="47" />
          <note key="65" pos="528" pan="0" len="12" vol="100" />
          <note key="65" pos="540" pan="0" len="12" vol="47" />
          <note key="65" pos="552" pan="0" len="12" vol="78" />
          <note key="65" pos="564" pan="0" len="12" vol="47" />
          <note key="65" pos="576" pan="0" len="12" vol="100" />
          <note key="65" pos="588" pan="0" len="12" vol="47" />
          <note key="65" pos="600" pan="0" len="12" vol="78" />
          <note key="65" pos="612" pan="0" len="12" vol="47" />
          <note key="65" pos="624" pan="0" len="12" vol="100" />
          <note key="65" pos="636" pan="0" len="12" vol="47" />
          <note key="65" pos="648" pan="0" len="12" vol="78" />
          <note key="65" pos="660" pan="0" len="12" vol="47" />
          <note key="65" pos="672" pan="0" len="12" vol="100" />
          <note key="65" pos="684" pan="0" len="12" vol="47" />
          <note key="65" pos="696" pan="0" len="12" vol="78" />
          <note key="65" pos="708" pan="0" len="12" vol="47" />
          <note key="65" pos="720" pan="0" len="12" vol="100" />
          <note key="65" pos="732" pan="0" len="12" vol="47" />
          <note key="65" pos="744" pan="0" len="12" vol="78" />
          <note key="65" pos="756" pan="0" len="12" vol="47" />
          <note key="65" pos="768" pan="0" len="12" vol="100" />
          <note key="65" pos="780" pan="0" len="12" vol="47" />
          <note key="65" pos="792" pan="0" len="12" vol="78" />
          <note key="65" pos="804" pan="0" len="12" vol="47" />
          <note key="65" pos="816" pan="0" len="12" vol="100" />
          <note key="65" pos="828" pan="0" len="12" vol="47" />
          <note key="65" pos="840" pan="0" len="12" vol="78" />
          <note key="65" pos="852" pan="0" len="12" vol="47" />
          <note key="65" pos="864" pan="0" len="12" vol="100" />
          <note key="65" pos="876" pan="0" len="12" vol="47" />
          <note key="65" pos="888" pan="0" len="12" vol="78" />
          <note key="65" pos="900" pan="0" len="12" vol="47" />
          <note key="65" pos="912" pan="0" len="12" vol="100" />
          <note key="65" pos="924" pan="0" len="12" vol="47" />
          <note key="65" pos="936" pan="0" len="12" vol="78" />
          <note key="65" pos="948" pan="0" len="12" vol="47" />
          <note key="65" pos="960" pan="0" len="12" vol="100" />
          <note key="65" pos="972" pan="0" len="12" vol="47" />
          <note key="65" pos="984" pan="0" len="12" vol="78" />
          <note key="65" pos="996" pan="0" len="12" vol="47" />
          <note key="65" pos="1008" pan="0" len="12" vol="100" />
          <note key="65" pos="1020" pan="0" len="12" vol="47" />
          <note key="65" pos="1032" pan="0" len="12" vol="78" />
          <note key="65" pos="1044" pan="0" len="12" vol="47" />
          <note key="65" pos="1056" pan="0" len="12" vol="100" />
          <note key="65" pos="1068" pan="0" len="12" vol="47" />
          <note key="65" pos="1080" pan="0" len="12" vol="78" />
          <note key="65" pos="1092" pan="0" len="12" vol="47" />
          <note key="65" pos="1104" pan="0" len="12" vol="100" />
          <note key="65" pos="1116" pan="0" len="12" vol="47" />
          <note key="65" pos="1128" pan="0" len="12" vol="78" />
          <note key="65" pos="1140" pan="0" len="12" vol="47" />
          <note key="65" pos="1152" pan="0" len="12" vol="100" />
          <note key="65" pos="1164" pan="0" len="12" vol="47" />
          <note key="65" pos="1176" pan="0" len="12" vol="78" />
          <note key="65" pos="1188" pan="0" len="12" vol="47" />
          <note key="65" pos="1200" pan="0" len="12" vol="100" />
          <note key="65" pos="1212" pan="0" len="12" vol="47" />
          <note key="65" pos="1224" pan="0" len="12" vol="78" />
          <note key="65" pos="1236" pan="0" len="12" vol="47" />
          <note key="65" pos="1248" pan="0" len="12" vol="100" />
          <note key="65" pos="1260" pan="0" len="12" vol="47" />
          <note key="65" pos="1272" pan="0" len="12" vol="78" />
          <note key="65" pos="1284" pan="0" len="12" vol="47" />
          <note key="65" pos="1296" pan="0" len="12" vol="100" />
          <note key="65" pos="1308" pan="0" len="12" vol="47" />
          <note key="65" pos="1320" pan="0" len="12" vol="78" />
          <note key="65" pos="1332" pan="0" len="12" vol="47" />
          <note key="65" pos="1344" pan="0" len="12" vol="100" />
          <note key="65" pos="1356" pan="0" len="12" vol="47" />
          <note key="65" pos="1368" pan="0" len="12" vol="78" />
          <note key="65" pos="1380" pan="0" len="12" vol="47" />
          <note key="65" pos="1392" pan="0" len="12" vol="100" />
          <note key="65" pos="1404" pan="0" len="12" vol="47" />
          <note key="65" pos="1416" pan="0" len="12" vol="78" />
          <note key="65" pos="1428" pan="0" len="12" vol="47" />
          <note key="65" pos="1440" pan="0" len="12" vol="100" />
          <note key="65" pos="1452" pan="0" len="12" vol="47" />
          <note key="65" pos="1464" pan="0" len="12" vol="78" />
          <note key="65" pos="1476" pan="0" len="12" vol="47" />
          <note key="65" pos="1488" pan="0" len="12" vol="100" />
          <note key="65" pos="1500" pan="0" len="12" vol="47" />
          <note key="65" pos="1512" pan="0" len="12" vol="78" />
          <note key="65" pos="1524" pan="0" len="12" vol="47" />
        </pattern>
        <pattern pos="245004" muted="0" steps="16" name="" type="1">
          <note key="65" pos="0" pan="0" len="12" vol="100" />
          <note key="65" pos="12" pan="0" len="12" vol="47" />
          <note key="65" pos="24" pan="0" len="12" vol="78" />
          <note key="65" pos="36" pan="0" len="12" vol="47" />
          <note key="65" pos="48" pan="0" len="12" vol="100" />
          <note key="65" pos="60" pan="0" len="12" vol="47" />
          <note key="65" pos="72" pan="0" len="12" vol="78" />
          <note key="65" pos="84" pan="0" len="12" vol="47" />
          <note key="65" pos="96" pan="0" len="12" vol="100" />
          <note key="65" pos="108" pan="0" len="12" vol="47" />
          <note key="65" pos="120" pan="0" len="12" vol="78" />
          <note key="65" pos="132" pan="0" len="12" vol="47" />
          <note key="65" pos="144" pan="0" len="12" vol="100" />
          <note key="65" pos="156" pan="0" len="12" vol="47" />
          <note key="65" pos="168" pan="0" len="12" vol="78" />
          <note key="65" pos="180" pan="0" len="12" vol="47" />
          <note key="65" pos="192" pan="0" len="12" vol="100" />
          <note key="65" pos="204" pan="0" len="12" vol="47" />
          <note key="65" pos="216" pan="0" len="12" vol="78" />
          <note key="65" pos="228" pan="0" len="12" vol="47" />
          <note key="65" pos="240" pan="0" len="12" vol="100" />
          <note key="65" pos="252" pan="0" len="12" vol="47" />
          <note key="65" pos="264" pan="0" len="12" vol="78" />
          <note key="65" pos="276" pan="0" len="12" vol="47" />
          <note key="65" pos="288" pan="0" len="12" vol="100" />
          <note key="65" pos="300" pan="0" len="12" vol="47" />
          <note key="65" pos="312" pan="0" len="12" vol="78" />
          <note key="65" pos="324" pan="0" len="12" vol="47" />
          <note key="65" pos="336" pan="0" len="12" vol="100" />
          <note key="65" pos="348" pan="0" len="12" vol="47" />
          <note key="65" pos="360" pan="0" len="12" vol="78" />
          <note key="65" pos="372" pan="0" len="12" vol="47" />
          <note key="65" pos="384" pan="0" len="12" vol="100" />
          <note key="65" pos="396" pan="0" len="12" vol="47" />
          <note key="65" pos="408" pan="0" len="12" vol="78" />
          <note key="65" pos="420" pan="0" len="12" vol="47" />
          <note key="65" pos="432" pan="0" len="12" vol="100" />
          <note key="65" pos="444" pan="0" len="12" vol="47" />
          <note key="65" pos="456" pan="0" len="12" vol="78" />
          <note key="65" pos="468" pan="0" len="12" vol="47" />
          <note key="65" pos="480" pan="0" len="12" vol="100" />
          <note key="65" pos="492" pan="0" len="12" vol="47" />
          <note key="65" pos="504" pan="0" len="12" vol="78" />
          <note key="65" pos="516" pan="0" len="12" vol="47" />
          <note key="65" pos="528" pan="0" len="12" vol="100" />
          <note key="65" pos="540" pan="0" len="12" vol="47" />
          <note key="65" pos="552" pan="0" len="12" vol="78" />
          <note key="65" pos="564" pan="0" len="12" vol="47" />
          <note key="65" pos="576" pan="0" len="12" vol="100" />
          <note key="65" pos="588" pan="0" len="12" vol="47" />
          <note key="65" pos="600" pan="0" len="12" vol="78" />
          <note key="65" pos="612" pan="0" len="12" vol="47" />
          <note key="65" pos="624" pan="0" len="12" vol="100" />
          <note key="65" pos="636" pan="0" len="12" vol="47" />
          <note key="65" pos="648" pan="0" len="12" vol="78" />
          <note key="65" pos="660" pan="0" len="12" vol="47" />
          <note key="65" pos="672" pan="0" len="12" vol="100" />
          <note key="65" pos="684" pan="0" len="12" vol="47" />
          <note key="65" pos="696" pan="0" len="12" vol="78" />
          <note key="65" pos="708" pan="0" len="12" vol="47" />
          <note key="65" pos="720" pan="0" len="12" vol="100" />
          <note key="65" pos="732" pan="0" len="12" vol="47" />
          <note key="65" pos="744" pan="0" len="12" vol="78" />
          <note key="65" pos="756" pan="0" len="12" vol="47" />
          <note key="65" pos="768" pan="0" len="12" vol="100" />
          <note key="65" pos="780" pan="0" len="12" vol="47" />
          <note key="65" pos="792" pan="0" len="12" vol="78" />
          <note key="65" pos="804" pan="0" len="12" vol="47" />
          <note key="65" pos="816" pan="0" len="12" vol="100" />
          <note key="65" pos="828" pan="0" len="12" vol="47" />
          <note key="65" pos="840" pan="0" len="12" vol="78" />
          <note key="65" pos="852" pan="0" len="12" vol="47" />
          <note key="65" pos="864" pan="0" len="12" vol="100" />
          <note key="65" pos="876" pan="0" len="12" vol="47" />
          <note key="65" pos="888" pan="0" len="12" vol="78" />
          <note key="65" pos="900" pan="0" len="12" vol="47" />
          <note key="65" pos="912" pan="0" len="12" vol="100" />
          <note key="65" pos="924" pan="0" len="12" vol="47" />
          <note key="65" pos="936" pan="0" len="12" vol="78" />
          <note key="65" pos="948" pan="0" len="12" vol="47" />
          <note key="65" pos="960" pan="0" len="12" vol="100" />
          <note key="65" pos="972" pan="0" len="12" vol="47" />
          <note key="65" pos="984" pan="0" len="12" vol="78" />
          <note key="65" pos="996" pan="0" len="12" vol="47" />
          <note key="65" pos="1008" pan="0" len="12" vol="100" />
          <note key="65" pos="1020" pan="0" len="12" vol="47" />
          <note key="65" pos="1032" pan="0" len="12" vol="78" />
          <note key="65" pos="1044" pan="0" len="12" vol="47" />
          <note key="65" pos="1056" pan="0" len="12" vol="100" />
          <note key="65" pos="1068" pan="0" len="12" vol="47" />
          <note key="65" pos="1080" pan="0" len="12" vol="78" />
          <note key="65" pos="1092" pan="0" len="12" vol="47" />
          <note key="65" pos="1104" pan="0" len="12" vol="100" />
          <note key="65" pos="1116" pan="0" len="12" vol="47" />
          <note key="65" pos="1128" pan="0" len="12" vol="78" />
          <note key="65" pos="1140" pan="0" len="12" vol="47" />
          <note key="65" pos="1152" pan="0" len="12" vol="100" />
          <note key="65" pos="1164" pan="0" len="12" vol="47" />
          <note key="65" pos="1176" pan="0" len="12" vol="78" />
          <note key="65" pos="1188" pan="0" len="12" vol="47" />
          <note key="65" pos="1200" pan="0" len="12" vol="100" />
          <note key="65" pos="1212" pan="0" len="12" vol="47" />
          <note key="65" pos="1224" pan="0" len="12" vol="78" />
          <note key="65" pos="1236" pan="0" len="12" vol="47" />
          <note key="65" pos="1248" pan="0" len="12" vol="100" />
          <note key="65" pos="1260" pan="0" len="12" vol="47" />
          <note key="65" pos="1272" pan="0" len="12" vol="78" />
          <note key="65" pos="1284" pan="0" len="12" vol="47" />
          <note key="65" pos="1296" pan="0" len="12" vol="100" />
          <note key="65" pos="1308" pan="0" len="12" vol="47" />
          <note key="65" pos="1320" pan="0" len="12" vol="78" />
          <note key="65" pos="1332" pan="0" len="12" vol="47" />
          <note key="65" pos="1344" pan="0" len="12" vol="100" />
          <note key="65" pos="1356" pan="0" len="12" vol="47" />
          <note key="65" pos="1368" pan="0" len="12" vol="78" />
          <note key="65" pos="1380" pan="0" len="12" vol="47" />
          <note key="65" pos="1392" pan="0" len="12" vol="100" />
          <note key="65" pos="1404" pan="0" len="12" vol="47" />
          <note key="65" pos="1416" pan="0" len="12" vol="78" />
          <note key="65" pos="1428" pan="0" len="12" vol="47" />
          <note key="65" pos="1440" pan="0" len="12" vol="100" />
          <note key="65" pos="1452" pan="0" len="12" vol="47" />
          <note key="65" pos="1464" pan="0" len="12" vol="78" />
          <note key="65" pos="1476" pan="0" len="12" vol="47" />
          <note key="65" pos="1488" pan="0" len="12" vol="100" />
          <note key="65" pos="1500" pan="0" len="12" vol="47" />
          <note key="65" pos="1512" pan="0" len="12" vol="78" />
          <note key="65" pos="1524" pan="0" len="12" vol="47" />
        </pattern>
      </track>
      <track solo="0" name="82 (Ch14)" type="0" muted="0">
        <instrumenttrack usemasterpitch="1" pitch="0.0" basenote="57" pan="0" pitchrange="12" vol="30">
          <eldata />
          <instrument name="tripleoscillator" />
        </instrumenttrack>
        <pattern pos="192780" muted="0" steps="16" name="" type="1">
          <note key="60" pos="48" pan="0" len="24" vol="47" />
          <note key="60" pos="144" pan="0" len="24" vol="47" />
          <note key="60" pos="240" pan="0" len="24" vol="47" />
          <note key="60" pos="336" pan="0" len="24" vol="47" />
          <note key="60" pos="432" pan="0" len="24" vol="47" />
          <note key="60" pos="528" pan="0" len="24" vol="47" />
          <note key="60" pos="624" pan="0" len="24" vol="47" />
          <note key="60" pos="720" pan="0" len="24" vol="47" />
          <note key="60" pos="816" pan="0" len="24" vol="47" />
          <note key="60" pos="912" pan="0" len="24" vol="47" />
          <note key="60" pos="1008" pan="0" len="24" vol="47" />
          <note key="60" pos="1104" pan="0" len="24" vol="47" />
          <note key="60" pos="1200" pan="0" len="24" vol="47" />
          <note key="60" pos="1296" pan="0" len="24" vol="47" />
          <note key="60" pos="1392" pan="0" len="24" vol="47" />
          <note key="60" pos="1488" pan="0" len="24" vol="47" />
        </pattern>
      </track>
      <track solo="0" name="82 (Ch15)" type="0" muted="0">
        <instrumenttrack usemasterpitch="1" pitch="0.0" basenote="57" pan="0" pitchrange="12" vol="30">
          <eldata />
          <instrument name="tripleoscillator" />
        </instrumenttrack>
        <pattern pos="162060" muted="0" steps="16" name="" type="1">
          <note key="60" pos="0" pan="0" len="12" vol="62" />
          <note key="60" pos="12" pan="0" len="12" vol="31" />
          <note key="60" pos="24" pan="0" len="12" vol="47" />
          <note key="60" pos="36" pan="0" len="12" vol="31" />
          <note key="60" pos="48" pan="0" len="12" vol="62" />
          <note key="60" pos="60" pan="0" len="12" vol="31" />
          <note key="60" pos="72" pan="0" len="12" vol="47" />
          <note key="60" pos="84" pan="0" len="12" vol="31" />
          <note key="60" pos="96" pan="0" len="12" vol="62" />
          <note key="60" pos="108" pan="0" len="12" vol="31" />
          <note key="60" pos="120" pan="0" len="12" vol="47" />
          <note key="60" pos="132" pan="0" len="12" vol="31" />
          <note key="60" pos="144" pan="0" len="12" vol="62" />
          <note key="60" pos="156" pan="0" len="12" vol="31" />
          <note key="60" pos="168" pan="0" len="12" vol="47" />
          <note key="60" pos="180" pan="0" len="12" vol="31" />
          <note key="60" pos="192" pan="0" len="12" vol="62" />
          <note key="60" pos="204" pan="0" len="12" vol="31" />
          <note key="60" pos="216" pan="0" len="12" vol="47" />
          <note key="60" pos="228" pan="0" len="12" vol="31" />
          <note key="60" pos="240" pan="0" len="12" vol="62" />
          <note key="60" pos="252" pan="0" len="12" vol="31" />
          <note key="60" pos="264" pan="0" len="12" vol="47" />
          <note key="60" pos="276" pan="0" len="12" vol="31" />
          <note key="60" pos="288" pan="0" len="12" vol="62" />
          <note key="60" pos="300" pan="0" len="12" vol="31" />
          <note key="60" pos="312" pan="0" len="12" vol="47" />
          <note key="60" pos="324" pan="0" len="12" vol="31" />
          <note key="60" pos="336" pan="0" len="12" vol="62" />
          <note key="60" pos="348" pan="0" len="12" vol="31" />
          <note key="60" pos="360" pan="0" len="12" vol="47" />
          <note key="60" pos="372" pan="0" len="12" vol="31" />
          <note key="60" pos="384" pan="0" len="12" vol="62" />
          <note key="60" pos="396" pan="0" len="12" vol="31" />
          <note key="60" pos="408" pan="0" len="12" vol="47" />
          <note key="60" pos="420" pan="0" len="12" vol="31" />
          <note key="60" pos="432" pan="0" len="12" vol="62" />
          <note key="60" pos="444" pan="0" len="12" vol="31" />
          <note key="60" pos="456" pan="0" len="12" vol="47" />
          <note key="60" pos="468" pan="0" len="12" vol="31" />
          <note key="60" pos="480" pan="0" len="12" vol="62" />
          <note key="60" pos="492" pan="0" len="12" vol="31" />
          <note key="60" pos="504" pan="0" len="12" vol="47" />
          <note key="60" pos="516" pan="0" len="12" vol="31" />
          <note key="60" pos="528" pan="0" len="12" vol="62" />
          <note key="60" pos="540" pan="0" len="12" vol="31" />
          <note key="60" pos="552" pan="0" len="12" vol="47" />
          <note key="60" pos="564" pan="0" len="12" vol="31" />
          <note key="60" pos="576" pan="0" len="12" vol="62" />
          <note key="60" pos="588" pan="0" len="12" vol="31" />
          <note key="60" pos="600" pan="0" len="12" vol="47" />
          <note key="60" pos="612" pan="0" len="12" vol="31" />
          <note key="60" pos="624" pan="0" len="12" vol="62" />
          <note key="60" pos="636" pan="0" len="12" vol="31" />
          <note key="60" pos="648" pan="0" len="12" vol="47" />
          <note key="60" pos="660" pan="0" len="12" vol="31" />
          <note key="60" pos="672" pan="0" len="12" vol="62" />
          <note key="60" pos="684" pan="0" len="12" vol="31" />
          <note key="60" pos="696" pan="0" len="12" vol="47" />
          <note key="60" pos="708" pan="0" len="12" vol="31" />
          <note key="60" pos="720" pan="0" len="12" vol="62" />
          <note key="60" pos="732" pan="0" len="12" vol="31" />
          <note key="60" pos="744" pan="0" len="12" vol="47" />
          <note key="60" pos="756" pan="0" len="12" vol="31" />
          <note key="60" pos="768" pan="0" len="12" vol="62" />
          <note key="60" pos="780" pan="0" len="12" vol="31" />
          <note key="60" pos="792" pan="0" len="12" vol="47" />
          <note key="60" pos="804" pan="0" len="12" vol="31" />
          <note key="60" pos="816" pan="0" len="12" vol="62" />
          <note key="60" pos="828" pan="0" len="12" vol="31" />
          <note key="60" pos="840" pan="0" len="12" vol="47" />
          <note key="60" pos="852" pan="0" len="12" vol="31" />
          <note key="60" pos="864" pan="0" len="12" vol="62" />
          <note key="60" pos="876" pan="0" len="12" vol="31" />
          <note key="60" pos="888" pan="0" len="12" vol="47" />
          <note key="60" pos="900" pan="0" len="12" vol="31" />
          <note key="60" pos="912" pan="0" len="12" vol="62" />
          <note key="60" pos="924" pan="0" len="12" vol="31" />
          <note key="60" pos="936" pan="0" len="12" vol="47" />
          <note key="60" pos="948" pan="0" len="12" vol="31" />
          <note key="60" pos="960" pan="0" len="12" vol="62" />
          <note key="60" pos="972" pan="0" len="12" vol="31" />
          <note key="60" pos="984" pan="0" len="12" vol="47" />
          <note key="60" pos="996" pan="0" len="12" vol="31" />
          <note key="60" pos="1008" pan="0" len="12" vol="62" />
          <note key="60" pos="1020" pan="0" len="12" vol="31" />
          <note key="60" pos="1032" pan="0" len="12" vol="47" />
          <note key="60" pos="1044" pan="0" len="12" vol="31" />
          <note key="60" pos="1056" pan="0" len="12" vol="62" />
          <note key="60" pos="1068" pan="0" len="12" vol="31" />
          <note key="60" pos="1080" pan="0" len="12" vol="47" />
          <note key="60" pos="1092" pan="0" len="12" vol="31" />
          <note key="60" pos="1104" pan="0" len="12" vol="62" />
          <note key="60" pos="1116" pan="0" len="12" vol="31" />
          <note key="60" pos="1128" pan="0" len="12" vol="47" />
          <note key="60" pos="1140" pan="0" len="12" vol="31" />
          <note key="60" pos="1152" pan="0" len="12" vol="62" />
          <note key="60" pos="1164" pan="0" len="12" vol="31" />
          <note key="60" pos="1176" pan="0" len="12" vol="47" />
          <note key="60" pos="1188" pan="0" len="12" vol="31" />
          <note key="60" pos="1200" pan="0" len="12" vol="62" />
          <note key="60" pos="1212" pan="0" len="12" vol="31" />
          <note key="60" pos="1224" pan="0" len="12" vol="47" />
          <note key="60" pos="1236" pan="0" len="12" vol="31" />
          <note key="60" pos="1248" pan="0" len="12" vol="62" />
          <note key="60" pos="1260" pan="0" len="12" vol="31" />
          <note key="60" pos="1272" pan="0" len="12" vol="47" />
          <note key="60" pos="1284" pan="0" len="12" vol="31" />
          <note key="60" pos="1296" pan="0" len="12" vol="62" />
          <note key="60" pos="1308" pan="0" len="12" vol="31" />
          <note key="60" pos="1320" pan="0" len="12" vol="47" />
          <note key="60" pos="1332" pan="0" len="12" vol="31" />
          <note key="60" pos="1344" pan="0" len="12" vol="62" />
          <note key="60" pos="1356" pan="0" len="12" vol="31" />
          <note key="60" pos="1368" pan="0" len="12" vol="47" />
          <note key="60" pos="1380" pan="0" len="12" vol="31" />
          <note key="60" pos="1392" pan="0" len="12" vol="62" />
          <note key="60" pos="1404" pan="0" len="12" vol="31" />
          <note key="60" pos="1416" pan="0" len="12" vol="47" />
          <note key="60" pos="1428" pan="0" len="12" vol="31" />
          <note key="60" pos="1440" pan="0" len="12" vol="62" />
          <note key="60" pos="1452" pan="0" len="12" vol="31" />
          <note key="60" pos="1464" pan="0" len="12" vol="47" />
          <note key="60" pos="1476" pan="0" len="12" vol="31" />
          <note key="60" pos="1488" pan="0" len="12" vol="62" />
          <note key="60" pos="1500" pan="0" len="12" vol="31" />
          <note key="60" pos="1512" pan="0" len="12" vol="47" />
          <note key="60" pos="1524" pan="0" len="12" vol="31" />
        </pattern>
      </track>
      <track solo="0" name="83 (Ch9)" type="0" muted="0">
        <instrumenttrack usemasterpitch="1" pitch="0.0" basenote="57" pan="0" pitchrange="12" vol="30">
          <eldata />
          <instrument name="tripleoscillator" />
        </instrumenttrack>
        <pattern pos="169740" muted="0" steps="16" name="" type="1">
          <note key="65" pos="2112" pan="0" len="96" vol="34" />
        </pattern>
      </track>
      <track solo="0" name="83 (Ch10)" type="0" muted="0">
        <instrumenttrack usemasterpitch="1" pitch="0.0" basenote="57" pan="0" pitchrange="12" vol="30">
          <eldata />
          <instrument name="tripleoscillator" />
        </instrumenttrack>
        <pattern pos="201228" muted="0" steps="16" name="" type="1">
          <note key="64" pos="168" pan="0" len="600" vol="52" />
        </pattern>
      </track>
      <track solo="0" name="83 (Ch11)" type="0" muted="0">
        <instrumenttrack usemasterpitch="1" pitch="0.0" basenote="57" pan="0" pitchrange="12" vol="30">
          <eldata />
          <instrument name="tripleoscillator" />
        </instrumenttrack>
        <pattern pos="169740" muted="0" steps="16" name="" type="1">
          <note key="72" pos="1344" pan="0" len="24" vol="39" />
          <note key="67" pos="1368" pan="0" len="24" vol="39" />
          <note key="69" pos="1392" pan="0" len="24" vol="39" />
          <note key="65" pos="1416" pan="0" len="24" vol="39" />
          <note key="72" pos="1440" pan="0" len="24" vol="39" />
          <note key="67" pos="1464" pan="0" len="24" vol="39" />
          <note key="69" pos="1488" pan="0" len="24" vol="39" />
          <note key="67" pos="1512" pan="0" len="24" vol="39" />
          <note key="65" pos="1536" pan="0" len="192" vol="69" />
        </pattern>
      </track>
      <track solo="0" name="83 (Ch14)" type="0" muted="0">
        <instrumenttrack usemasterpitch="1" pitch="0.0" basenote="57" pan="0" pitchrange="12" vol="30">
          <eldata />
          <instrument name="tripleoscillator" />
        </instrumenttrack>
        <pattern pos="277596" muted="0" steps="16" name="" type="1">
          <note key="68" pos="1152" pan="0" len="1152" vol="70" />
        </pattern>
        <pattern pos="101376" muted="0" steps="16" name="" type="1">
          <note key="67" pos="768" pan="0" len="384" vol="100" />
        </pattern>
        <pattern pos="104448" muted="0" steps="16" name="" type="1">
          <note key="67" pos="768" pan="0" len="384" vol="100" />
        </pattern>
        <pattern pos="271692" muted="0" steps="16" name="" type="1">
          <note key="57" pos="0" pan="0" len="504" vol="70" />
          <note key="57" pos="576" pan="0" len="552" vol="70" />
        </pattern>
        <pattern pos="276444" muted="0" steps="16" name="" type="1">
          <note key="57" pos="0" pan="0" len="504" vol="70" />
          <note key="57" pos="576" pan="0" len="552" vol="70" />
        </pattern>
      </track>
      <track solo="0" name="83 (Ch15)" type="0" muted="0">
        <instrumenttrack usemasterpitch="1" pitch="0.0" basenote="57" pan="0" pitchrange="12" vol="30">
          <eldata />
          <instrument name="tripleoscillator" />
        </instrumenttrack>
        <pattern pos="269388" muted="0" steps="16" name="" type="1">
          <note key="68" pos="0" pan="0" len="1152" vol="70" />
        </pattern>
      </track>
      <track solo="0" name="84 (Ch2)" type="0" muted="0">
        <instrumenttrack usemasterpitch="1" pitch="0.0" basenote="57" pan="0" pitchrange="12" vol="30">
          <eldata />
          <instrument name="tripleoscillator" />
        </instrumenttrack>
        <pattern pos="53760" muted="0" steps="16" name="" type="1">
          <note key="57" pos="0" pan="0" len="528" vol="52" />
        </pattern>
      </track>
      <track solo="0" name="84 (Ch3)" type="0" muted="0">
        <instrumenttrack usemasterpitch="1" pitch="0.0" basenote="57" pan="0" pitchrange="12" vol="30">
          <eldata />
          <instrument name="tripleoscillator" />
        </instrumenttrack>
        <pattern pos="280476" muted="0" steps="16" name="" type="1">
          <note key="63" pos="144" pan="0" len="624" vol="100" />
        </pattern>
      </track>
      <track solo="0" name="84 (Ch5)" type="0" muted="0">
        <instrumenttrack usemasterpitch="1" pitch="0.0" basenote="57" pan="0" pitchrange="12" vol="30">
          <eldata />
          <instrument name="tripleoscillator" />
        </instrumenttrack>
        <pattern pos="54528" muted="0" steps="16" name="" type="1">
          <note key="60" pos="384" pan="0" len="384" vol="52" />
        </pattern>
      </track>
      <track solo="0" name="84 (Ch6)" type="0" muted="0">
        <instrumenttrack usemasterpitch="1" pitch="0.0" basenote="57" pan="0" pitchrange="12" vol="30">
          <eldata />
          <instrument name="tripleoscillator" />
        </instrumenttrack>
        <pattern pos="272988" muted="0" steps="16" name="" type="1">
          <note key="60" pos="0" pan="0" len="576" vol="100" />
          <note key="60" pos="576" pan="0" len="576" vol="100" />
        </pattern>
      </track>
      <track solo="0" name="84 (Ch13)" type="0" muted="0">
        <instrumenttrack usemasterpitch="1" pitch="0.0" basenote="57" pan="0" pitchrange="12" vol="30">
          <eldata />
          <instrument name="tripleoscillator" />
        </instrumenttrack>
        <pattern pos="105984" muted="0" steps="16" name="" type="1">
          <note key="52" pos="0" pan="0" len="1152" vol="100" />
        </pattern>
        <pattern pos="39936" muted="0" steps="16" name="" type="1">
          <note key="48" pos="0" pan="0" len="1536" vol="34" />
        </pattern>
        <pattern pos="43008" muted="0" steps="16" name="" type="1">
          <note key="60" pos="0" pan="0" len="1536" vol="34" />
        </pattern>
        <pattern pos="102912" muted="0" steps="16" name="" type="1">
          <note key="52" pos="0" pan="0" len="1152" vol="100" />
        </pattern>
      </track>
      <track solo="0" name="84 (Ch15)" type="0" muted="0">
        <instrumenttrack usemasterpitch="1" pitch="0.0" basenote="57" pan="0" pitchrange="12" vol="30">
          <eldata />
          <instrument name="tripleoscillator" />
        </instrumenttrack>
        <pattern pos="276444" muted="0" steps="16" name="" type="1">
          <note key="63" pos="0" pan="0" len="504" vol="100" />
          <note key="63" pos="576" pan="0" len="552" vol="100" />
        </pattern>
        <pattern pos="271692" muted="0" steps="16" name="" type="1">
          <note key="63" pos="0" pan="0" len="504" vol="100" />
          <note key="63" pos="576" pan="0" len="552" vol="100" />
        </pattern>
      </track>
      <track solo="0" name="85 (Ch2)" type="0" muted="0">
        <instrumenttrack usemasterpitch="1" pitch="0.0" basenote="57" pan="0" pitchrange="12" vol="30">
          <eldata />
          <instrument name="tripleoscillator" />
        </instrumenttrack>
        <pattern pos="50688" muted="0" steps="16" name="" type="1">
          <note key="67" pos="0" pan="0" len="48" vol="100" />
          <note key="67" pos="96" pan="0" len="48" vol="100" />
          <note key="66" pos="168" pan="0" len="24" vol="100" />
          <note key="65" pos="192" pan="0" len="48" vol="100" />
          <note key="65" pos="288" pan="0" len="24" vol="100" />
          <note key="66" pos="336" pan="0" len="48" vol="100" />
          <note key="67" pos="384" pan="0" len="48" vol="100" />
          <note key="67" pos="480" pan="0" len="24" vol="100" />
          <note key="66" pos="552" pan="0" len="24" vol="100" />
          <note key="65" pos="576" pan="0" len="48" vol="100" />
          <note key="65" pos="672" pan="0" len="24" vol="100" />
          <note key="66" pos="720" pan="0" len="48" vol="100" />
          <note key="74" pos="768" pan="0" len="48" vol="100" />
          <note key="74" pos="864" pan="0" len="48" vol="100" />
          <note key="71" pos="936" pan="0" len="24" vol="100" />
          <note key="70" pos="960" pan="0" len="48" vol="100" />
          <note key="70" pos="1056" pan="0" len="24" vol="100" />
          <note key="72" pos="1104" pan="0" len="48" vol="100" />
          <note key="74" pos="1152" pan="0" len="48" vol="100" />
          <note key="74" pos="1248" pan="0" len="24" vol="100" />
          <note key="71" pos="1320" pan="0" len="24" vol="100" />
          <note key="70" pos="1344" pan="0" len="48" vol="100" />
          <note key="70" pos="1440" pan="0" len="24" vol="100" />
          <note key="72" pos="1488" pan="0" len="48" vol="100" />
        </pattern>
      </track>
      <track solo="0" name="85 (Ch5)" type="0" muted="0">
        <instrumenttrack usemasterpitch="1" pitch="0.0" basenote="57" pan="0" pitchrange="12" vol="30">
          <eldata />
          <instrument name="tripleoscillator" />
        </instrumenttrack>
        <pattern pos="272988" muted="0" steps="16" name="" type="1">
          <note key="44" pos="0" pan="0" len="12" vol="100" />
          <note key="56" pos="12" pan="0" len="12" vol="31" />
          <note key="58" pos="24" pan="0" len="12" vol="47" />
          <note key="59" pos="36" pan="0" len="12" vol="100" />
          <note key="61" pos="48" pan="0" len="12" vol="62" />
          <note key="63" pos="60" pan="0" len="12" vol="100" />
          <note key="61" pos="72" pan="0" len="24" vol="100" />
          <note key="66" pos="96" pan="0" len="24" vol="47" />
          <note key="61" pos="120" pan="0" len="24" vol="100" />
          <note key="59" pos="144" pan="0" len="24" vol="100" />
          <note key="56" pos="168" pan="0" len="24" vol="100" />
          <note key="52" pos="192" pan="0" len="24" vol="100" />
          <note key="58" pos="216" pan="0" len="72" vol="100" />
          <note key="44" pos="288" pan="0" len="12" vol="100" />
          <note key="56" pos="300" pan="0" len="12" vol="47" />
          <note key="58" pos="312" pan="0" len="12" vol="62" />
          <note key="59" pos="324" pan="0" len="12" vol="100" />
          <note key="61" pos="336" pan="0" len="12" vol="31" />
          <note key="63" pos="348" pan="0" len="12" vol="100" />
          <note key="61" pos="360" pan="0" len="24" vol="47" />
          <note key="66" pos="384" pan="0" len="24" vol="100" />
          <note key="73" pos="408" pan="0" len="24" vol="100" />
          <note key="71" pos="432" pan="0" len="24" vol="100" />
          <note key="70" pos="456" pan="0" len="24" vol="47" />
          <note key="68" pos="480" pan="0" len="24" vol="100" />
          <note key="66" pos="504" pan="0" len="72" vol="100" />
          <note key="44" pos="576" pan="0" len="12" vol="100" />
          <note key="56" pos="588" pan="0" len="12" vol="31" />
          <note key="58" pos="600" pan="0" len="12" vol="47" />
          <note key="59" pos="612" pan="0" len="12" vol="100" />
          <note key="61" pos="624" pan="0" len="12" vol="62" />
          <note key="63" pos="636" pan="0" len="12" vol="100" />
          <note key="61" pos="648" pan="0" len="24" vol="100" />
          <note key="66" pos="672" pan="0" len="24" vol="47" />
          <note key="61" pos="696" pan="0" len="24" vol="100" />
          <note key="59" pos="720" pan="0" len="24" vol="100" />
          <note key="56" pos="744" pan="0" len="24" vol="100" />
          <note key="52" pos="768" pan="0" len="24" vol="100" />
          <note key="58" pos="792" pan="0" len="72" vol="100" />
          <note key="44" pos="864" pan="0" len="12" vol="100" />
          <note key="56" pos="876" pan="0" len="12" vol="47" />
          <note key="58" pos="888" pan="0" len="12" vol="62" />
          <note key="59" pos="900" pan="0" len="12" vol="100" />
          <note key="61" pos="912" pan="0" len="12" vol="31" />
          <note key="63" pos="924" pan="0" len="12" vol="100" />
          <note key="61" pos="936" pan="0" len="24" vol="47" />
          <note key="66" pos="960" pan="0" len="24" vol="100" />
          <note key="73" pos="984" pan="0" len="24" vol="100" />
          <note key="71" pos="1008" pan="0" len="24" vol="100" />
          <note key="70" pos="1032" pan="0" len="24" vol="47" />
          <note key="68" pos="1056" pan="0" len="24" vol="100" />
          <note key="66" pos="1080" pan="0" len="72" vol="100" />
        </pattern>
      </track>
      <track solo="0" name="85 (Ch6)" type="0" muted="0">
        <instrumenttrack usemasterpitch="1" pitch="0.0" basenote="57" pan="0" pitchrange="12" vol="30">
          <eldata />
          <instrument name="tripleoscillator" />
        </instrumenttrack>
        <pattern pos="268044" muted="0" steps="16" name="" type="1">
          <note key="74" pos="336" pan="0" len="24" vol="100" />
          <note key="79" pos="360" pan="0" len="408" vol="100" />
        </pattern>
        <pattern pos="267276" muted="0" steps="16" name="" type="1">
          <note key="74" pos="432" pan="0" len="24" vol="100" />
          <note key="79" pos="456" pan="0" len="312" vol="100" />
        </pattern>
      </track>
      <track solo="0" name="85 (Ch7)" type="0" muted="0">
        <instrumenttrack usemasterpitch="1" pitch="0.0" basenote="57" pan="0" pitchrange="12" vol="30">
          <eldata />
          <instrument name="tripleoscillator" />
        </instrumenttrack>
        <pattern pos="280476" muted="0" steps="16" name="" type="1">
          <note key="39" pos="144" pan="0" len="24" vol="100" />
          <note key="39" pos="168" pan="0" len="12" vol="62" />
          <note key="51" pos="180" pan="0" len="24" vol="78" />
          <note key="51" pos="204" pan="0" len="12" vol="47" />
          <note key="39" pos="216" pan="0" len="24" vol="62" />
          <note key="39" pos="240" pan="0" len="12" vol="47" />
          <note key="51" pos="252" pan="0" len="24" vol="100" />
          <note key="51" pos="276" pan="0" len="12" vol="47" />
          <note key="39" pos="288" pan="0" len="24" vol="100" />
          <note key="39" pos="312" pan="0" len="12" vol="62" />
          <note key="51" pos="324" pan="0" len="24" vol="78" />
          <note key="51" pos="348" pan="0" len="12" vol="47" />
          <note key="39" pos="360" pan="0" len="24" vol="62" />
          <note key="39" pos="384" pan="0" len="12" vol="47" />
          <note key="51" pos="396" pan="0" len="24" vol="100" />
          <note key="51" pos="420" pan="0" len="12" vol="47" />
        </pattern>
        <pattern pos="271692" muted="0" steps="16" name="" type="1">
          <note key="40" pos="0" pan="0" len="36" vol="100" />
          <note key="47" pos="36" pan="0" len="36" vol="100" />
          <note key="52" pos="72" pan="0" len="36" vol="100" />
          <note key="54" pos="108" pan="0" len="36" vol="100" />
          <note key="59" pos="144" pan="0" len="36" vol="100" />
          <note key="58" pos="180" pan="0" len="36" vol="100" />
          <note key="54" pos="216" pan="0" len="36" vol="100" />
          <note key="52" pos="252" pan="0" len="36" vol="100" />
          <note key="37" pos="288" pan="0" len="36" vol="100" />
          <note key="44" pos="324" pan="0" len="36" vol="100" />
          <note key="49" pos="360" pan="0" len="36" vol="100" />
          <note key="52" pos="396" pan="0" len="36" vol="100" />
          <note key="37" pos="432" pan="0" len="36" vol="100" />
          <note key="44" pos="468" pan="0" len="36" vol="100" />
          <note key="49" pos="504" pan="0" len="36" vol="100" />
          <note key="52" pos="540" pan="0" len="36" vol="100" />
        </pattern>
        <pattern pos="276444" muted="0" steps="16" name="" type="1">
          <note key="40" pos="0" pan="0" len="36" vol="100" />
          <note key="47" pos="36" pan="0" len="36" vol="100" />
          <note key="52" pos="72" pan="0" len="36" vol="100" />
          <note key="54" pos="108" pan="0" len="36" vol="100" />
          <note key="59" pos="144" pan="0" len="36" vol="100" />
          <note key="58" pos="180" pan="0" len="36" vol="100" />
          <note key="54" pos="216" pan="0" len="36" vol="100" />
          <note key="52" pos="252" pan="0" len="36" vol="100" />
          <note key="37" pos="288" pan="0" len="36" vol="100" />
          <note key="44" pos="324" pan="0" len="36" vol="100" />
          <note key="49" pos="360" pan="0" len="36" vol="100" />
          <note key="52" pos="396" pan="0" len="36" vol="100" />
          <note key="37" pos="432" pan="0" len="36" vol="100" />
          <note key="44" pos="468" pan="0" len="36" vol="100" />
          <note key="49" pos="504" pan="0" len="36" vol="100" />
          <note key="52" pos="540" pan="0" len="36" vol="100" />
        </pattern>
        <pattern pos="277596" muted="0" steps="16" name="" type="1">
          <note key="51" pos="0" pan="0" len="60" vol="100" />
          <note key="51" pos="60" pan="0" len="12" vol="100" />
          <note key="53" pos="72" pan="0" len="72" vol="100" />
          <note key="54" pos="144" pan="0" len="60" vol="100" />
          <note key="54" pos="204" pan="0" len="12" vol="100" />
          <note key="56" pos="216" pan="0" len="72" vol="100" />
          <note key="47" pos="288" pan="0" len="60" vol="100" />
          <note key="47" pos="348" pan="0" len="12" vol="100" />
          <note key="49" pos="360" pan="0" len="72" vol="100" />
          <note key="63" pos="432" pan="0" len="60" vol="100" />
          <note key="49" pos="492" pan="0" len="12" vol="100" />
          <note key="51" pos="504" pan="0" len="72" vol="100" />
          <note key="51" pos="576" pan="0" len="60" vol="100" />
          <note key="51" pos="636" pan="0" len="12" vol="100" />
          <note key="53" pos="648" pan="0" len="72" vol="100" />
          <note key="54" pos="720" pan="0" len="60" vol="100" />
          <note key="54" pos="780" pan="0" len="12" vol="100" />
          <note key="56" pos="792" pan="0" len="72" vol="100" />
          <note key="47" pos="864" pan="0" len="60" vol="100" />
          <note key="47" pos="924" pan="0" len="12" vol="100" />
          <note key="49" pos="936" pan="0" len="72" vol="100" />
          <note key="63" pos="1008" pan="0" len="60" vol="100" />
          <note key="49" pos="1068" pan="0" len="12" vol="100" />
          <note key="51" pos="1080" pan="0" len="1224" vol="100" />
        </pattern>
        <pattern pos="279900" muted="0" steps="16" name="" type="1">
          <note key="51" pos="0" pan="0" len="60" vol="100" />
          <note key="51" pos="60" pan="0" len="12" vol="100" />
          <note key="45" pos="72" pan="0" len="72" vol="100" />
          <note key="39" pos="144" pan="0" len="432" vol="100" />
        </pattern>
      </track>
      <track solo="0" name="85 (Ch8)" type="0" muted="0">
        <instrumenttrack usemasterpitch="1" pitch="0.0" basenote="57" pan="0" pitchrange="12" vol="30">
          <eldata />
          <instrument name="tripleoscillator" />
        </instrumenttrack>
        <pattern pos="272844" muted="0" steps="16" name="" type="1">
          <note key="44" pos="0" pan="0" len="24" vol="100" />
          <note key="44" pos="24" pan="0" len="12" vol="62" />
          <note key="56" pos="36" pan="0" len="24" vol="78" />
          <note key="56" pos="60" pan="0" len="12" vol="47" />
          <note key="44" pos="72" pan="0" len="24" vol="62" />
          <note key="44" pos="96" pan="0" len="12" vol="47" />
          <note key="56" pos="108" pan="0" len="24" vol="100" />
          <note key="56" pos="132" pan="0" len="12" vol="47" />
        </pattern>
        <pattern pos="270540" muted="0" steps="16" name="" type="1">
          <note key="39" pos="0" pan="0" len="24" vol="100" />
          <note key="39" pos="24" pan="0" len="12" vol="62" />
          <note key="51" pos="36" pan="0" len="24" vol="78" />
          <note key="51" pos="60" pan="0" len="12" vol="47" />
          <note key="39" pos="72" pan="0" len="24" vol="62" />
          <note key="39" pos="96" pan="0" len="12" vol="47" />
          <note key="51" pos="108" pan="0" len="24" vol="100" />
          <note key="51" pos="132" pan="0" len="12" vol="47" />
          <note key="39" pos="144" pan="0" len="24" vol="100" />
          <note key="39" pos="168" pan="0" len="12" vol="62" />
          <note key="51" pos="180" pan="0" len="24" vol="78" />
          <note key="51" pos="204" pan="0" len="12" vol="47" />
          <note key="39" pos="216" pan="0" len="24" vol="62" />
          <note key="39" pos="240" pan="0" len="12" vol="47" />
          <note key="51" pos="252" pan="0" len="24" vol="100" />
          <note key="51" pos="276" pan="0" len="12" vol="47" />
          <note key="39" pos="288" pan="0" len="24" vol="100" />
          <note key="39" pos="312" pan="0" len="12" vol="62" />
          <note key="51" pos="324" pan="0" len="24" vol="78" />
          <note key="51" pos="348" pan="0" len="12" vol="47" />
          <note key="39" pos="360" pan="0" len="24" vol="62" />
          <note key="39" pos="384" pan="0" len="12" vol="47" />
          <note key="51" pos="396" pan="0" len="24" vol="100" />
          <note key="51" pos="420" pan="0" len="12" vol="47" />
          <note key="39" pos="432" pan="0" len="24" vol="100" />
          <note key="39" pos="456" pan="0" len="12" vol="62" />
          <note key="51" pos="468" pan="0" len="24" vol="78" />
          <note key="51" pos="492" pan="0" len="12" vol="47" />
          <note key="39" pos="504" pan="0" len="24" vol="62" />
          <note key="39" pos="528" pan="0" len="12" vol="47" />
          <note key="51" pos="540" pan="0" len="24" vol="100" />
          <note key="51" pos="564" pan="0" len="12" vol="47" />
          <note key="39" pos="576" pan="0" len="24" vol="100" />
          <note key="39" pos="600" pan="0" len="12" vol="62" />
          <note key="51" pos="612" pan="0" len="24" vol="78" />
          <note key="51" pos="636" pan="0" len="12" vol="47" />
          <note key="39" pos="648" pan="0" len="24" vol="62" />
          <note key="39" pos="672" pan="0" len="12" vol="47" />
          <note key="51" pos="684" pan="0" len="24" vol="100" />
          <note key="51" pos="708" pan="0" len="12" vol="47" />
          <note key="39" pos="720" pan="0" len="24" vol="100" />
          <note key="39" pos="744" pan="0" len="12" vol="62" />
          <note key="51" pos="756" pan="0" len="24" vol="78" />
          <note key="51" pos="780" pan="0" len="12" vol="47" />
          <note key="39" pos="792" pan="0" len="24" vol="62" />
          <note key="39" pos="816" pan="0" len="12" vol="47" />
          <note key="51" pos="828" pan="0" len="24" vol="100" />
          <note key="51" pos="852" pan="0" len="12" vol="47" />
          <note key="39" pos="864" pan="0" len="24" vol="100" />
          <note key="39" pos="888" pan="0" len="12" vol="62" />
          <note key="51" pos="900" pan="0" len="24" vol="78" />
          <note key="51" pos="924" pan="0" len="12" vol="47" />
          <note key="39" pos="936" pan="0" len="24" vol="62" />
          <note key="39" pos="960" pan="0" len="12" vol="47" />
          <note key="51" pos="972" pan="0" len="24" vol="100" />
          <note key="51" pos="996" pan="0" len="12" vol="47" />
          <note key="39" pos="1008" pan="0" len="24" vol="100" />
          <note key="39" pos="1032" pan="0" len="12" vol="62" />
          <note key="51" pos="1044" pan="0" len="24" vol="78" />
          <note key="51" pos="1068" pan="0" len="12" vol="47" />
          <note key="39" pos="1080" pan="0" len="24" vol="62" />
          <note key="39" pos="1104" pan="0" len="12" vol="47" />
          <note key="51" pos="1116" pan="0" len="24" vol="100" />
          <note key="51" pos="1140" pan="0" len="12" vol="47" />
        </pattern>
      </track>
      <track solo="0" name="85 (Ch9)" type="0" muted="0">
        <instrumenttrack usemasterpitch="1" pitch="0.0" basenote="57" pan="0" pitchrange="12" vol="30">
          <eldata />
          <instrument name="tripleoscillator" />
        </instrumenttrack>
        <pattern pos="274140" muted="0" steps="16" name="" type="1">
          <note key="56" pos="576" pan="0" len="12" vol="100" />
          <note key="51" pos="600" pan="0" len="12" vol="100" />
          <note key="56" pos="612" pan="0" len="12" vol="100" />
          <note key="59" pos="624" pan="0" len="12" vol="100" />
          <note key="63" pos="636" pan="0" len="12" vol="100" />
          <note key="61" pos="648" pan="0" len="36" vol="100" />
          <note key="58" pos="684" pan="0" len="12" vol="100" />
          <note key="54" pos="708" pan="0" len="12" vol="100" />
          <note key="59" pos="720" pan="0" len="12" vol="100" />
          <note key="54" pos="744" pan="0" len="12" vol="100" />
          <note key="59" pos="756" pan="0" len="12" vol="100" />
          <note key="63" pos="768" pan="0" len="12" vol="100" />
          <note key="66" pos="780" pan="0" len="12" vol="100" />
          <note key="65" pos="792" pan="0" len="36" vol="100" />
          <note key="61" pos="828" pan="0" len="24" vol="100" />
          <note key="56" pos="852" pan="0" len="12" vol="100" />
          <note key="64" pos="864" pan="0" len="12" vol="100" />
          <note key="59" pos="888" pan="0" len="12" vol="100" />
          <note key="64" pos="900" pan="0" len="12" vol="100" />
          <note key="68" pos="912" pan="0" len="12" vol="100" />
          <note key="71" pos="924" pan="0" len="12" vol="100" />
          <note key="70" pos="936" pan="0" len="36" vol="100" />
          <note key="66" pos="972" pan="0" len="12" vol="100" />
          <note key="70" pos="996" pan="0" len="12" vol="100" />
          <note key="71" pos="1008" pan="0" len="12" vol="100" />
          <note key="68" pos="1020" pan="0" len="12" vol="100" />
          <note key="63" pos="1032" pan="0" len="12" vol="100" />
          <note key="59" pos="1044" pan="0" len="12" vol="100" />
          <note key="58" pos="1056" pan="0" len="12" vol="100" />
          <note key="56" pos="1068" pan="0" len="12" vol="100" />
          <note key="68" pos="1080" pan="0" len="12" vol="100" />
        </pattern>
        <pattern pos="169740" muted="0" steps="16" name="" type="1">
          <note key="76" pos="2208" pan="0" len="84" vol="100" />
        </pattern>
        <pattern pos="268812" muted="0" steps="16" name="" type="1">
          <note key="51" pos="0" pan="0" len="60" vol="100" />
          <note key="51" pos="60" pan="0" len="12" vol="100" />
          <note key="53" pos="72" pan="0" len="72" vol="100" />
          <note key="54" pos="144" pan="0" len="60" vol="100" />
          <note key="54" pos="204" pan="0" len="12" vol="100" />
          <note key="56" pos="216" pan="0" len="72" vol="100" />
          <note key="47" pos="288" pan="0" len="60" vol="100" />
          <note key="47" pos="348" pan="0" len="12" vol="100" />
          <note key="49" pos="360" pan="0" len="72" vol="100" />
          <note key="63" pos="432" pan="0" len="60" vol="100" />
          <note key="49" pos="492" pan="0" len="12" vol="100" />
          <note key="51" pos="504" pan="0" len="72" vol="100" />
        </pattern>
      </track>
      <track solo="0" name="85 (Ch10)" type="0" muted="0">
        <instrumenttrack usemasterpitch="1" pitch="0.0" basenote="57" pan="0" pitchrange="12" vol="30">
          <eldata />
          <instrument name="tripleoscillator" />
        </instrumenttrack>
        <pattern pos="274140" muted="0" steps="16" name="" type="1">
          <note key="44" pos="0" pan="0" len="24" vol="100" />
          <note key="44" pos="24" pan="0" len="12" vol="62" />
          <note key="56" pos="36" pan="0" len="24" vol="78" />
          <note key="56" pos="60" pan="0" len="12" vol="47" />
          <note key="44" pos="72" pan="0" len="24" vol="62" />
          <note key="44" pos="96" pan="0" len="12" vol="47" />
          <note key="56" pos="108" pan="0" len="24" vol="100" />
          <note key="56" pos="132" pan="0" len="12" vol="47" />
          <note key="44" pos="144" pan="0" len="24" vol="100" />
          <note key="44" pos="168" pan="0" len="12" vol="62" />
          <note key="56" pos="180" pan="0" len="24" vol="78" />
          <note key="56" pos="204" pan="0" len="12" vol="47" />
          <note key="44" pos="216" pan="0" len="24" vol="62" />
          <note key="44" pos="240" pan="0" len="12" vol="47" />
          <note key="56" pos="252" pan="0" len="24" vol="100" />
          <note key="56" pos="276" pan="0" len="12" vol="47" />
          <note key="44" pos="288" pan="0" len="24" vol="100" />
          <note key="44" pos="312" pan="0" len="12" vol="62" />
          <note key="56" pos="324" pan="0" len="24" vol="78" />
          <note key="56" pos="348" pan="0" len="12" vol="47" />
          <note key="44" pos="360" pan="0" len="24" vol="62" />
          <note key="44" pos="384" pan="0" len="12" vol="47" />
          <note key="56" pos="396" pan="0" len="24" vol="100" />
          <note key="56" pos="420" pan="0" len="12" vol="47" />
          <note key="44" pos="432" pan="0" len="24" vol="100" />
          <note key="44" pos="456" pan="0" len="12" vol="62" />
          <note key="56" pos="468" pan="0" len="24" vol="78" />
          <note key="56" pos="492" pan="0" len="12" vol="47" />
          <note key="44" pos="504" pan="0" len="24" vol="62" />
          <note key="44" pos="528" pan="0" len="12" vol="47" />
          <note key="56" pos="540" pan="0" len="24" vol="100" />
          <note key="56" pos="564" pan="0" len="12" vol="47" />
          <note key="44" pos="576" pan="0" len="24" vol="100" />
          <note key="44" pos="600" pan="0" len="12" vol="62" />
          <note key="56" pos="612" pan="0" len="24" vol="78" />
          <note key="56" pos="636" pan="0" len="12" vol="47" />
          <note key="44" pos="648" pan="0" len="24" vol="62" />
          <note key="44" pos="672" pan="0" len="12" vol="47" />
          <note key="56" pos="684" pan="0" len="24" vol="100" />
          <note key="56" pos="708" pan="0" len="12" vol="47" />
          <note key="44" pos="720" pan="0" len="24" vol="100" />
          <note key="44" pos="744" pan="0" len="12" vol="62" />
          <note key="56" pos="756" pan="0" len="24" vol="78" />
          <note key="56" pos="780" pan="0" len="12" vol="47" />
          <note key="44" pos="792" pan="0" len="24" vol="62" />
          <note key="44" pos="816" pan="0" len="12" vol="47" />
          <note key="56" pos="828" pan="0" len="24" vol="100" />
          <note key="56" pos="852" pan="0" len="12" vol="47" />
          <note key="44" pos="864" pan="0" len="24" vol="100" />
          <note key="44" pos="888" pan="0" len="12" vol="62" />
          <note key="56" pos="900" pan="0" len="24" vol="78" />
          <note key="56" pos="924" pan="0" len="12" vol="47" />
          <note key="44" pos="936" pan="0" len="24" vol="62" />
          <note key="44" pos="960" pan="0" len="12" vol="47" />
          <note key="56" pos="972" pan="0" len="24" vol="100" />
          <note key="56" pos="996" pan="0" len="12" vol="47" />
          <note key="44" pos="1008" pan="0" len="24" vol="100" />
          <note key="44" pos="1032" pan="0" len="12" vol="62" />
          <note key="56" pos="1044" pan="0" len="24" vol="78" />
          <note key="56" pos="1068" pan="0" len="12" vol="47" />
          <note key="44" pos="1080" pan="0" len="24" vol="62" />
          <note key="44" pos="1104" pan="0" len="12" vol="47" />
          <note key="56" pos="1116" pan="0" len="24" vol="100" />
          <note key="56" pos="1140" pan="0" len="12" vol="47" />
          <note key="44" pos="1152" pan="0" len="24" vol="100" />
          <note key="44" pos="1176" pan="0" len="12" vol="62" />
          <note key="56" pos="1188" pan="0" len="24" vol="78" />
          <note key="56" pos="1212" pan="0" len="12" vol="47" />
          <note key="44" pos="1224" pan="0" len="24" vol="62" />
          <note key="44" pos="1248" pan="0" len="12" vol="47" />
          <note key="56" pos="1260" pan="0" len="24" vol="100" />
          <note key="56" pos="1284" pan="0" len="12" vol="47" />
          <note key="44" pos="1296" pan="0" len="24" vol="100" />
          <note key="44" pos="1320" pan="0" len="12" vol="62" />
          <note key="56" pos="1332" pan="0" len="24" vol="78" />
          <note key="56" pos="1356" pan="0" len="12" vol="47" />
          <note key="44" pos="1368" pan="0" len="24" vol="62" />
          <note key="44" pos="1392" pan="0" len="12" vol="47" />
          <note key="56" pos="1404" pan="0" len="24" vol="100" />
          <note key="56" pos="1428" pan="0" len="12" vol="47" />
          <note key="44" pos="1440" pan="0" len="24" vol="100" />
          <note key="44" pos="1464" pan="0" len="12" vol="62" />
          <note key="56" pos="1476" pan="0" len="24" vol="78" />
          <note key="56" pos="1500" pan="0" len="12" vol="47" />
          <note key="44" pos="1512" pan="0" len="24" vol="62" />
          <note key="44" pos="1536" pan="0" len="12" vol="47" />
          <note key="56" pos="1548" pan="0" len="24" vol="100" />
          <note key="56" pos="1572" pan="0" len="12" vol="47" />
          <note key="44" pos="1584" pan="0" len="24" vol="100" />
          <note key="44" pos="1608" pan="0" len="12" vol="62" />
          <note key="56" pos="1620" pan="0" len="24" vol="78" />
          <note key="56" pos="1644" pan="0" len="12" vol="47" />
          <note key="44" pos="1656" pan="0" len="24" vol="62" />
          <note key="44" pos="1680" pan="0" len="12" vol="47" />
          <note key="56" pos="1692" pan="0" len="24" vol="100" />
          <note key="56" pos="1716" pan="0" len="12" vol="47" />
          <note key="44" pos="1728" pan="0" len="24" vol="100" />
          <note key="44" pos="1752" pan="0" len="12" vol="62" />
          <note key="56" pos="1764" pan="0" len="24" vol="78" />
          <note key="56" pos="1788" pan="0" len="12" vol="47" />
          <note key="44" pos="1800" pan="0" len="24" vol="62" />
          <note key="44" pos="1824" pan="0" len="12" vol="47" />
          <note key="56" pos="1836" pan="0" len="24" vol="100" />
          <note key="56" pos="1860" pan="0" len="12" vol="47" />
          <note key="44" pos="1872" pan="0" len="24" vol="100" />
          <note key="44" pos="1896" pan="0" len="12" vol="62" />
          <note key="56" pos="1908" pan="0" len="24" vol="78" />
          <note key="56" pos="1932" pan="0" len="12" vol="47" />
          <note key="44" pos="1944" pan="0" len="24" vol="62" />
          <note key="44" pos="1968" pan="0" len="12" vol="47" />
          <note key="56" pos="1980" pan="0" len="24" vol="100" />
          <note key="56" pos="2004" pan="0" len="12" vol="47" />
          <note key="44" pos="2016" pan="0" len="24" vol="100" />
          <note key="44" pos="2040" pan="0" len="12" vol="62" />
          <note key="56" pos="2052" pan="0" len="24" vol="78" />
          <note key="56" pos="2076" pan="0" len="12" vol="47" />
          <note key="44" pos="2088" pan="0" len="24" vol="62" />
          <note key="44" pos="2112" pan="0" len="12" vol="47" />
          <note key="56" pos="2124" pan="0" len="24" vol="100" />
          <note key="56" pos="2148" pan="0" len="12" vol="47" />
          <note key="44" pos="2160" pan="0" len="24" vol="100" />
          <note key="44" pos="2184" pan="0" len="12" vol="62" />
          <note key="56" pos="2196" pan="0" len="24" vol="78" />
          <note key="56" pos="2220" pan="0" len="12" vol="47" />
          <note key="44" pos="2232" pan="0" len="24" vol="62" />
          <note key="44" pos="2256" pan="0" len="12" vol="47" />
          <note key="56" pos="2268" pan="0" len="24" vol="100" />
          <note key="56" pos="2292" pan="0" len="12" vol="47" />
        </pattern>
      </track>
      <track solo="0" name="85 (Ch13)" type="0" muted="0">
        <instrumenttrack usemasterpitch="1" pitch="0.0" basenote="57" pan="0" pitchrange="12" vol="30">
          <eldata />
          <instrument name="tripleoscillator" />
        </instrumenttrack>
        <pattern pos="162060" muted="0" steps="16" name="" type="1">
          <note key="48" pos="0" pan="0" len="12" vol="100" />
          <note key="48" pos="12" pan="0" len="24" vol="100" />
          <note key="60" pos="36" pan="0" len="24" vol="100" />
          <note key="48" pos="60" pan="0" len="132" vol="100" />
          <note key="48" pos="192" pan="0" len="12" vol="100" />
          <note key="48" pos="204" pan="0" len="24" vol="100" />
          <note key="60" pos="228" pan="0" len="24" vol="100" />
          <note key="48" pos="252" pan="0" len="132" vol="100" />
          <note key="44" pos="384" pan="0" len="12" vol="100" />
          <note key="44" pos="396" pan="0" len="24" vol="100" />
          <note key="56" pos="420" pan="0" len="24" vol="100" />
          <note key="44" pos="444" pan="0" len="132" vol="100" />
          <note key="44" pos="576" pan="0" len="12" vol="100" />
          <note key="44" pos="588" pan="0" len="24" vol="100" />
          <note key="56" pos="612" pan="0" len="24" vol="100" />
          <note key="44" pos="636" pan="0" len="132" vol="100" />
          <note key="48" pos="768" pan="0" len="12" vol="100" />
          <note key="48" pos="780" pan="0" len="24" vol="100" />
          <note key="60" pos="804" pan="0" len="24" vol="100" />
          <note key="48" pos="828" pan="0" len="132" vol="100" />
          <note key="48" pos="960" pan="0" len="12" vol="100" />
          <note key="48" pos="972" pan="0" len="24" vol="100" />
          <note key="60" pos="996" pan="0" len="24" vol="100" />
          <note key="48" pos="1020" pan="0" len="132" vol="100" />
          <note key="44" pos="1152" pan="0" len="12" vol="100" />
          <note key="44" pos="1164" pan="0" len="24" vol="100" />
          <note key="56" pos="1188" pan="0" len="24" vol="100" />
          <note key="44" pos="1212" pan="0" len="132" vol="100" />
          <note key="44" pos="1344" pan="0" len="12" vol="100" />
          <note key="44" pos="1356" pan="0" len="24" vol="100" />
          <note key="56" pos="1380" pan="0" len="24" vol="100" />
          <note key="44" pos="1404" pan="0" len="132" vol="100" />
        </pattern>
      </track>
      <track solo="0" name="85 (Ch14)" type="0" muted="0">
        <instrumenttrack usemasterpitch="1" pitch="0.0" basenote="57" pan="0" pitchrange="12" vol="30">
          <eldata />
          <instrument name="tripleoscillator" />
        </instrumenttrack>
        <pattern pos="277596" muted="0" steps="16" name="" type="1">
          <note key="51" pos="0" pan="0" len="24" vol="100" />
          <note key="51" pos="24" pan="0" len="12" vol="62" />
          <note key="63" pos="36" pan="0" len="24" vol="78" />
          <note key="63" pos="60" pan="0" len="12" vol="47" />
          <note key="53" pos="72" pan="0" len="24" vol="62" />
          <note key="53" pos="96" pan="0" len="12" vol="47" />
          <note key="65" pos="108" pan="0" len="24" vol="100" />
          <note key="65" pos="132" pan="0" len="12" vol="47" />
          <note key="54" pos="144" pan="0" len="24" vol="100" />
          <note key="54" pos="168" pan="0" len="12" vol="62" />
          <note key="66" pos="180" pan="0" len="24" vol="78" />
          <note key="66" pos="204" pan="0" len="12" vol="47" />
          <note key="56" pos="216" pan="0" len="24" vol="62" />
          <note key="56" pos="240" pan="0" len="12" vol="47" />
          <note key="68" pos="252" pan="0" len="24" vol="100" />
          <note key="68" pos="276" pan="0" len="12" vol="47" />
          <note key="47" pos="288" pan="0" len="24" vol="100" />
          <note key="47" pos="312" pan="0" len="12" vol="62" />
          <note key="59" pos="324" pan="0" len="24" vol="78" />
          <note key="59" pos="348" pan="0" len="12" vol="47" />
          <note key="49" pos="360" pan="0" len="24" vol="62" />
          <note key="49" pos="384" pan="0" len="12" vol="47" />
          <note key="65" pos="396" pan="0" len="24" vol="100" />
          <note key="65" pos="420" pan="0" len="12" vol="47" />
          <note key="51" pos="432" pan="0" len="24" vol="100" />
          <note key="51" pos="456" pan="0" len="12" vol="62" />
          <note key="63" pos="468" pan="0" len="24" vol="78" />
          <note key="63" pos="492" pan="0" len="12" vol="47" />
          <note key="51" pos="504" pan="0" len="24" vol="62" />
          <note key="51" pos="528" pan="0" len="12" vol="47" />
          <note key="63" pos="540" pan="0" len="24" vol="100" />
          <note key="63" pos="564" pan="0" len="12" vol="47" />
          <note key="51" pos="576" pan="0" len="24" vol="100" />
          <note key="51" pos="600" pan="0" len="12" vol="62" />
          <note key="63" pos="612" pan="0" len="24" vol="78" />
          <note key="63" pos="636" pan="0" len="12" vol="47" />
          <note key="53" pos="648" pan="0" len="24" vol="62" />
          <note key="53" pos="672" pan="0" len="12" vol="47" />
          <note key="65" pos="684" pan="0" len="24" vol="100" />
          <note key="65" pos="708" pan="0" len="12" vol="47" />
          <note key="54" pos="720" pan="0" len="24" vol="100" />
          <note key="54" pos="744" pan="0" len="12" vol="62" />
          <note key="66" pos="756" pan="0" len="24" vol="78" />
          <note key="66" pos="780" pan="0" len="12" vol="47" />
          <note key="56" pos="792" pan="0" len="24" vol="62" />
          <note key="56" pos="816" pan="0" len="12" vol="47" />
          <note key="68" pos="828" pan="0" len="24" vol="100" />
          <note key="68" pos="852" pan="0" len="12" vol="47" />
          <note key="47" pos="864" pan="0" len="24" vol="100" />
          <note key="47" pos="888" pan="0" len="12" vol="62" />
          <note key="59" pos="900" pan="0" len="24" vol="78" />
          <note key="59" pos="924" pan="0" len="12" vol="47" />
          <note key="49" pos="936" pan="0" len="24" vol="62" />
          <note key="49" pos="960" pan="0" len="12" vol="47" />
          <note key="65" pos="972" pan="0" len="24" vol="100" />
          <note key="65" pos="996" pan="0" len="12" vol="47" />
          <note key="51" pos="1008" pan="0" len="24" vol="100" />
          <note key="51" pos="1032" pan="0" len="12" vol="62" />
          <note key="63" pos="1044" pan="0" len="24" vol="78" />
          <note key="63" pos="1068" pan="0" len="12" vol="47" />
          <note key="51" pos="1080" pan="0" len="24" vol="62" />
          <note key="51" pos="1104" pan="0" len="12" vol="47" />
          <note key="63" pos="1116" pan="0" len="24" vol="100" />
          <note key="63" pos="1140" pan="0" len="12" vol="47" />
        </pattern>
      </track>
      <track solo="0" name="85 (Ch16)" type="0" muted="0">
        <instrumenttrack usemasterpitch="1" pitch="0.0" basenote="57" pan="0" pitchrange="12" vol="30">
          <eldata />
          <instrument name="tripleoscillator" />
        </instrumenttrack>
        <pattern pos="269388" muted="0" steps="16" name="" type="1">
          <note key="51" pos="24" pan="0" len="12" vol="62" />
          <note key="51" pos="36" pan="0" len="60" vol="100" />
          <note key="51" pos="96" pan="0" len="12" vol="62" />
          <note key="51" pos="108" pan="0" len="60" vol="100" />
          <note key="51" pos="168" pan="0" len="12" vol="62" />
          <note key="51" pos="180" pan="0" len="60" vol="100" />
          <note key="51" pos="240" pan="0" len="12" vol="62" />
          <note key="51" pos="252" pan="0" len="60" vol="100" />
          <note key="51" pos="312" pan="0" len="12" vol="62" />
          <note key="51" pos="324" pan="0" len="60" vol="100" />
          <note key="51" pos="384" pan="0" len="12" vol="62" />
          <note key="51" pos="396" pan="0" len="60" vol="100" />
          <note key="54" pos="456" pan="0" len="12" vol="62" />
          <note key="54" pos="468" pan="0" len="60" vol="100" />
          <note key="56" pos="528" pan="0" len="12" vol="62" />
          <note key="56" pos="540" pan="0" len="60" vol="100" />
          <note key="51" pos="600" pan="0" len="12" vol="62" />
          <note key="51" pos="612" pan="0" len="60" vol="100" />
          <note key="51" pos="672" pan="0" len="12" vol="62" />
          <note key="51" pos="684" pan="0" len="60" vol="100" />
          <note key="51" pos="744" pan="0" len="12" vol="62" />
          <note key="51" pos="756" pan="0" len="60" vol="100" />
          <note key="51" pos="816" pan="0" len="12" vol="62" />
          <note key="51" pos="828" pan="0" len="60" vol="100" />
          <note key="51" pos="888" pan="0" len="12" vol="62" />
          <note key="51" pos="900" pan="0" len="60" vol="100" />
          <note key="51" pos="960" pan="0" len="12" vol="62" />
          <note key="51" pos="972" pan="0" len="60" vol="100" />
          <note key="54" pos="1032" pan="0" len="12" vol="62" />
          <note key="54" pos="1044" pan="0" len="60" vol="100" />
          <note key="56" pos="1104" pan="0" len="12" vol="62" />
          <note key="56" pos="1116" pan="0" len="36" vol="100" />
        </pattern>
      </track>
    </trackcontainer>
  </song>
</lmms-project>