<lmms-project type="song">
  <head masterpitch="0" mastervol="100" timesig_numerator="4.0" timesig_denominator="4.0" bpm="140.0" />
  <song>
    <trackcontainer>
      <track solo="0" name="1 (Ch13)" type="0" muted="0">
        <instrumenttrack usemasterpitch="1" pitch="0.0" basenote="57" pan="0" pitchrange="12" vol="30">
          <eldata />
          <instrument name="tripleoscillator" />
        </instrumenttrack>
        <pattern pos="130560" muted="0" steps="16" name="" type="1">
          <note key="67" pos="0" pan="0" len="576" vol="34" />
          <note key="70" pos="576" pan="0" len="576" vol="34" />
          <note key="69" pos="1152" pan="0" len="384" vol="34" />
        </pattern>
        <pattern pos="129024" muted="0" steps="16" name="" type="1">
          <note key="67" pos="0" pan="0" len="576" vol="34" />
          <note key="70" pos="576" pan="0" len="576" vol="34" />
          <note key="69" pos="1152" pan="0" len="384" vol="34" />
        </pattern>
      </track>
      <track solo="0" name="2 (Ch1)" type="0" muted="0">
        <instrumenttrack usemasterpitch="1" pitch="0.0" basenote="57" pan="0" pitchrange="12" vol="30">
          <eldata />
          <instrument name="tripleoscillator" />
        </instrumenttrack>
        <pattern pos="39936" muted="0" steps="16" name="" type="1">
          <note key="79" pos="0" pan="0" len="12" vol="2" />
          <note key="77" pos="12" pan="0" len="12" vol="6" />
          <note key="79" pos="24" pan="0" len="12" vol="9" />
          <note key="72" pos="36" pan="0" len="12" vol="14" />
          <note key="70" pos="48" pan="0" len="12" vol="17" />
          <note key="72" pos="60" pan="0" len="12" vol="22" />
          <note key="79" pos="72" pan="0" len="12" vol="27" />
          <note key="77" pos="84" pan="0" len="12" vol="30" />
          <note key="79" pos="96" pan="0" len="12" vol="34" />
          <note key="72" pos="108" pan="0" len="12" vol="39" />
          <note key="70" pos="120" pan="0" len="12" vol="42" />
          <note key="72" pos="132" pan="0" len="12" vol="47" />
          <note key="79" pos="144" pan="0" len="12" vol="50" />
          <note key="77" pos="156" pan="0" len="12" vol="55" />
          <note key="79" pos="168" pan="0" len="12" vol="59" />
          <note key="72" pos="180" pan="0" len="12" vol="62" />
          <note key="70" pos="192" pan="0" len="12" vol="67" />
          <note key="72" pos="204" pan="0" len="12" vol="72" />
          <note key="79" pos="216" pan="0" len="12" vol="75" />
          <note key="77" pos="228" pan="0" len="12" vol="80" />
          <note key="79" pos="240" pan="0" len="12" vol="83" />
          <note key="72" pos="252" pan="0" len="12" vol="88" />
          <note key="70" pos="264" pan="0" len="12" vol="92" />
          <note key="72" pos="276" pan="0" len="12" vol="95" />
          <note key="79" pos="288" pan="0" len="12" vol="100" />
          <note key="77" pos="300" pan="0" len="12" vol="95" />
          <note key="79" pos="312" pan="0" len="12" vol="92" />
          <note key="72" pos="324" pan="0" len="12" vol="88" />
          <note key="70" pos="336" pan="0" len="12" vol="83" />
          <note key="72" pos="348" pan="0" len="12" vol="78" />
          <note key="79" pos="360" pan="0" len="12" vol="75" />
          <note key="77" pos="372" pan="0" len="12" vol="70" />
          <note key="79" pos="384" pan="0" len="12" vol="66" />
          <note key="72" pos="396" pan="0" len="12" vol="61" />
          <note key="70" pos="408" pan="0" len="12" vol="58" />
          <note key="72" pos="420" pan="0" len="12" vol="53" />
          <note key="79" pos="432" pan="0" len="12" vol="48" />
          <note key="77" pos="444" pan="0" len="12" vol="44" />
          <note key="79" pos="456" pan="0" len="12" vol="41" />
          <note key="72" pos="468" pan="0" len="12" vol="36" />
          <note key="70" pos="480" pan="0" len="12" vol="31" />
          <note key="72" pos="492" pan="0" len="12" vol="27" />
          <note key="79" pos="504" pan="0" len="12" vol="23" />
          <note key="77" pos="516" pan="0" len="12" vol="19" />
          <note key="79" pos="528" pan="0" len="12" vol="14" />
          <note key="72" pos="540" pan="0" len="12" vol="9" />
          <note key="70" pos="552" pan="0" len="12" vol="6" />
          <note key="72" pos="564" pan="0" len="12" vol="2" />
          <note key="79" pos="576" pan="0" len="12" vol="2" />
          <note key="77" pos="588" pan="0" len="12" vol="6" />
          <note key="79" pos="600" pan="0" len="12" vol="9" />
          <note key="72" pos="612" pan="0" len="12" vol="14" />
          <note key="70" pos="624" pan="0" len="12" vol="17" />
          <note key="72" pos="636" pan="0" len="12" vol="22" />
          <note key="79" pos="648" pan="0" len="12" vol="27" />
          <note key="77" pos="660" pan="0" len="12" vol="30" />
          <note key="79" pos="672" pan="0" len="12" vol="34" />
          <note key="72" pos="684" pan="0" len="12" vol="39" />
          <note key="70" pos="696" pan="0" len="12" vol="42" />
          <note key="72" pos="708" pan="0" len="12" vol="47" />
          <note key="79" pos="720" pan="0" len="12" vol="50" />
          <note key="77" pos="732" pan="0" len="12" vol="55" />
          <note key="79" pos="744" pan="0" len="12" vol="59" />
          <note key="72" pos="756" pan="0" len="12" vol="62" />
          <note key="70" pos="768" pan="0" len="12" vol="67" />
          <note key="72" pos="780" pan="0" len="12" vol="72" />
          <note key="79" pos="792" pan="0" len="12" vol="75" />
          <note key="77" pos="804" pan="0" len="12" vol="80" />
          <note key="79" pos="816" pan="0" len="12" vol="83" />
          <note key="72" pos="828" pan="0" len="12" vol="88" />
          <note key="70" pos="840" pan="0" len="12" vol="92" />
          <note key="72" pos="852" pan="0" len="12" vol="95" />
          <note key="79" pos="864" pan="0" len="12" vol="100" />
          <note key="77" pos="876" pan="0" len="12" vol="95" />
          <note key="79" pos="888" pan="0" len="12" vol="92" />
          <note key="72" pos="900" pan="0" len="12" vol="88" />
          <note key="70" pos="912" pan="0" len="12" vol="83" />
          <note key="72" pos="924" pan="0" len="12" vol="78" />
          <note key="79" pos="936" pan="0" len="12" vol="75" />
          <note key="77" pos="948" pan="0" len="12" vol="70" />
          <note key="79" pos="960" pan="0" len="12" vol="66" />
          <note key="72" pos="972" pan="0" len="12" vol="61" />
          <note key="70" pos="984" pan="0" len="12" vol="58" />
          <note key="72" pos="996" pan="0" len="12" vol="53" />
          <note key="79" pos="1008" pan="0" len="12" vol="48" />
          <note key="77" pos="1020" pan="0" len="12" vol="44" />
          <note key="79" pos="1032" pan="0" len="12" vol="41" />
          <note key="72" pos="1044" pan="0" len="12" vol="36" />
          <note key="70" pos="1056" pan="0" len="12" vol="31" />
          <note key="72" pos="1068" pan="0" len="12" vol="27" />
          <note key="79" pos="1080" pan="0" len="12" vol="23" />
          <note key="77" pos="1092" pan="0" len="12" vol="19" />
          <note key="79" pos="1104" pan="0" len="12" vol="14" />
          <note key="72" pos="1116" pan="0" len="12" vol="9" />
          <note key="70" pos="1128" pan="0" len="12" vol="6" />
          <note key="72" pos="1140" pan="0" len="12" vol="2" />
        </pattern>
        <pattern pos="5376" muted="0" steps="16" name="" type="1">
          <note key="74" pos="72" pan="0" len="12" vol="33" />
          <note key="79" pos="96" pan="0" len="12" vol="33" />
          <note key="81" pos="120" pan="0" len="12" vol="33" />
          <note key="71" pos="264" pan="0" len="12" vol="33" />
          <note key="79" pos="288" pan="0" len="12" vol="33" />
          <note key="81" pos="312" pan="0" len="12" vol="33" />
        </pattern>
        <pattern pos="6144" muted="0" steps="16" name="" type="1">
          <note key="74" pos="72" pan="0" len="12" vol="33" />
          <note key="79" pos="96" pan="0" len="12" vol="33" />
          <note key="81" pos="120" pan="0" len="12" vol="33" />
          <note key="71" pos="264" pan="0" len="12" vol="33" />
          <note key="79" pos="288" pan="0" len="12" vol="33" />
          <note key="81" pos="312" pan="0" len="12" vol="33" />
        </pattern>
        <pattern pos="28416" muted="0" steps="16" name="" type="1">
          <note key="79" pos="0" pan="0" len="12" vol="2" />
          <note key="77" pos="12" pan="0" len="12" vol="6" />
          <note key="79" pos="24" pan="0" len="12" vol="9" />
          <note key="72" pos="36" pan="0" len="12" vol="14" />
          <note key="70" pos="48" pan="0" len="12" vol="17" />
          <note key="72" pos="60" pan="0" len="12" vol="22" />
          <note key="79" pos="72" pan="0" len="12" vol="27" />
          <note key="77" pos="84" pan="0" len="12" vol="30" />
          <note key="79" pos="96" pan="0" len="12" vol="34" />
          <note key="72" pos="108" pan="0" len="12" vol="39" />
          <note key="70" pos="120" pan="0" len="12" vol="42" />
          <note key="72" pos="132" pan="0" len="12" vol="47" />
          <note key="79" pos="144" pan="0" len="12" vol="50" />
          <note key="77" pos="156" pan="0" len="12" vol="55" />
          <note key="79" pos="168" pan="0" len="12" vol="59" />
          <note key="72" pos="180" pan="0" len="12" vol="62" />
          <note key="70" pos="192" pan="0" len="12" vol="67" />
          <note key="72" pos="204" pan="0" len="12" vol="72" />
          <note key="79" pos="216" pan="0" len="12" vol="75" />
          <note key="77" pos="228" pan="0" len="12" vol="80" />
          <note key="79" pos="240" pan="0" len="12" vol="83" />
          <note key="72" pos="252" pan="0" len="12" vol="88" />
          <note key="70" pos="264" pan="0" len="12" vol="92" />
          <note key="72" pos="276" pan="0" len="12" vol="95" />
          <note key="79" pos="288" pan="0" len="12" vol="100" />
          <note key="77" pos="300" pan="0" len="12" vol="95" />
          <note key="79" pos="312" pan="0" len="12" vol="92" />
          <note key="72" pos="324" pan="0" len="12" vol="88" />
          <note key="70" pos="336" pan="0" len="12" vol="83" />
          <note key="72" pos="348" pan="0" len="12" vol="78" />
          <note key="79" pos="360" pan="0" len="12" vol="75" />
          <note key="77" pos="372" pan="0" len="12" vol="70" />
          <note key="79" pos="384" pan="0" len="12" vol="66" />
          <note key="72" pos="396" pan="0" len="12" vol="61" />
          <note key="70" pos="408" pan="0" len="12" vol="58" />
          <note key="72" pos="420" pan="0" len="12" vol="53" />
          <note key="79" pos="432" pan="0" len="12" vol="48" />
          <note key="77" pos="444" pan="0" len="12" vol="44" />
          <note key="79" pos="456" pan="0" len="12" vol="41" />
          <note key="72" pos="468" pan="0" len="12" vol="36" />
          <note key="70" pos="480" pan="0" len="12" vol="31" />
          <note key="72" pos="492" pan="0" len="12" vol="27" />
          <note key="79" pos="504" pan="0" len="12" vol="23" />
          <note key="77" pos="516" pan="0" len="12" vol="19" />
          <note key="79" pos="528" pan="0" len="12" vol="14" />
          <note key="72" pos="540" pan="0" len="12" vol="9" />
          <note key="70" pos="552" pan="0" len="12" vol="6" />
          <note key="72" pos="564" pan="0" len="12" vol="2" />
          <note key="79" pos="576" pan="0" len="12" vol="2" />
          <note key="77" pos="588" pan="0" len="12" vol="6" />
          <note key="79" pos="600" pan="0" len="12" vol="9" />
          <note key="72" pos="612" pan="0" len="12" vol="14" />
          <note key="70" pos="624" pan="0" len="12" vol="17" />
          <note key="72" pos="636" pan="0" len="12" vol="22" />
          <note key="79" pos="648" pan="0" len="12" vol="27" />
          <note key="77" pos="660" pan="0" len="12" vol="30" />
          <note key="79" pos="672" pan="0" len="12" vol="34" />
          <note key="72" pos="684" pan="0" len="12" vol="39" />
          <note key="70" pos="696" pan="0" len="12" vol="42" />
          <note key="72" pos="708" pan="0" len="12" vol="47" />
          <note key="79" pos="720" pan="0" len="12" vol="50" />
          <note key="77" pos="732" pan="0" len="12" vol="55" />
          <note key="79" pos="744" pan="0" len="12" vol="59" />
          <note key="72" pos="756" pan="0" len="12" vol="62" />
          <note key="70" pos="768" pan="0" len="12" vol="67" />
          <note key="72" pos="780" pan="0" len="12" vol="72" />
          <note key="79" pos="792" pan="0" len="12" vol="75" />
          <note key="77" pos="804" pan="0" len="12" vol="80" />
          <note key="79" pos="816" pan="0" len="12" vol="83" />
          <note key="72" pos="828" pan="0" len="12" vol="88" />
          <note key="70" pos="840" pan="0" len="12" vol="92" />
          <note key="72" pos="852" pan="0" len="12" vol="95" />
          <note key="79" pos="864" pan="0" len="12" vol="100" />
          <note key="77" pos="876" pan="0" len="12" vol="95" />
          <note key="79" pos="888" pan="0" len="12" vol="92" />
          <note key="72" pos="900" pan="0" len="12" vol="88" />
          <note key="70" pos="912" pan="0" len="12" vol="83" />
          <note key="72" pos="924" pan="0" len="12" vol="78" />
          <note key="79" pos="936" pan="0" len="12" vol="75" />
          <note key="77" pos="948" pan="0" len="12" vol="70" />
          <note key="79" pos="960" pan="0" len="12" vol="66" />
          <note key="72" pos="972" pan="0" len="12" vol="61" />
          <note key="70" pos="984" pan="0" len="12" vol="58" />
          <note key="72" pos="996" pan="0" len="12" vol="53" />
          <note key="79" pos="1008" pan="0" len="12" vol="48" />
          <note key="77" pos="1020" pan="0" len="12" vol="44" />
          <note key="79" pos="1032" pan="0" len="12" vol="41" />
          <note key="72" pos="1044" pan="0" len="12" vol="36" />
          <note key="70" pos="1056" pan="0" len="12" vol="31" />
          <note key="72" pos="1068" pan="0" len="12" vol="27" />
          <note key="79" pos="1080" pan="0" len="12" vol="23" />
          <note key="77" pos="1092" pan="0" len="12" vol="19" />
          <note key="79" pos="1104" pan="0" len="12" vol="14" />
          <note key="72" pos="1116" pan="0" len="12" vol="9" />
          <note key="70" pos="1128" pan="0" len="12" vol="6" />
          <note key="72" pos="1140" pan="0" len="12" vol="2" />
        </pattern>
        <pattern pos="29568" muted="0" steps="16" name="" type="1">
          <note key="79" pos="0" pan="0" len="12" vol="2" />
          <note key="77" pos="12" pan="0" len="12" vol="6" />
          <note key="79" pos="24" pan="0" len="12" vol="9" />
          <note key="72" pos="36" pan="0" len="12" vol="14" />
          <note key="70" pos="48" pan="0" len="12" vol="17" />
          <note key="72" pos="60" pan="0" len="12" vol="22" />
          <note key="79" pos="72" pan="0" len="12" vol="27" />
          <note key="77" pos="84" pan="0" len="12" vol="30" />
          <note key="79" pos="96" pan="0" len="12" vol="34" />
          <note key="72" pos="108" pan="0" len="12" vol="39" />
          <note key="70" pos="120" pan="0" len="12" vol="42" />
          <note key="72" pos="132" pan="0" len="12" vol="47" />
          <note key="79" pos="144" pan="0" len="12" vol="50" />
          <note key="77" pos="156" pan="0" len="12" vol="55" />
          <note key="79" pos="168" pan="0" len="12" vol="59" />
          <note key="72" pos="180" pan="0" len="12" vol="62" />
          <note key="70" pos="192" pan="0" len="12" vol="67" />
          <note key="72" pos="204" pan="0" len="12" vol="72" />
          <note key="79" pos="216" pan="0" len="12" vol="75" />
          <note key="77" pos="228" pan="0" len="12" vol="80" />
          <note key="79" pos="240" pan="0" len="12" vol="83" />
          <note key="72" pos="252" pan="0" len="12" vol="88" />
          <note key="70" pos="264" pan="0" len="12" vol="92" />
          <note key="72" pos="276" pan="0" len="12" vol="95" />
          <note key="79" pos="288" pan="0" len="12" vol="100" />
          <note key="77" pos="300" pan="0" len="12" vol="95" />
          <note key="79" pos="312" pan="0" len="12" vol="92" />
          <note key="72" pos="324" pan="0" len="12" vol="88" />
          <note key="70" pos="336" pan="0" len="12" vol="83" />
          <note key="72" pos="348" pan="0" len="12" vol="78" />
          <note key="79" pos="360" pan="0" len="12" vol="75" />
          <note key="77" pos="372" pan="0" len="12" vol="70" />
          <note key="79" pos="384" pan="0" len="12" vol="66" />
          <note key="72" pos="396" pan="0" len="12" vol="61" />
          <note key="70" pos="408" pan="0" len="12" vol="58" />
          <note key="72" pos="420" pan="0" len="12" vol="53" />
          <note key="79" pos="432" pan="0" len="12" vol="48" />
          <note key="77" pos="444" pan="0" len="12" vol="44" />
          <note key="79" pos="456" pan="0" len="12" vol="41" />
          <note key="72" pos="468" pan="0" len="12" vol="36" />
          <note key="70" pos="480" pan="0" len="12" vol="31" />
          <note key="72" pos="492" pan="0" len="12" vol="27" />
          <note key="79" pos="504" pan="0" len="12" vol="23" />
          <note key="77" pos="516" pan="0" len="12" vol="19" />
          <note key="79" pos="528" pan="0" len="12" vol="14" />
          <note key="72" pos="540" pan="0" len="12" vol="9" />
          <note key="70" pos="552" pan="0" len="12" vol="6" />
          <note key="72" pos="564" pan="0" len="12" vol="2" />
          <note key="79" pos="576" pan="0" len="12" vol="2" />
          <note key="77" pos="588" pan="0" len="12" vol="6" />
          <note key="79" pos="600" pan="0" len="12" vol="9" />
          <note key="72" pos="612" pan="0" len="12" vol="14" />
          <note key="70" pos="624" pan="0" len="12" vol="17" />
          <note key="72" pos="636" pan="0" len="12" vol="22" />
          <note key="79" pos="648" pan="0" len="12" vol="27" />
          <note key="77" pos="660" pan="0" len="12" vol="30" />
          <note key="79" pos="672" pan="0" len="12" vol="34" />
          <note key="72" pos="684" pan="0" len="12" vol="39" />
          <note key="70" pos="696" pan="0" len="12" vol="42" />
          <note key="72" pos="708" pan="0" len="12" vol="47" />
          <note key="79" pos="720" pan="0" len="12" vol="50" />
          <note key="77" pos="732" pan="0" len="12" vol="55" />
          <note key="79" pos="744" pan="0" len="12" vol="59" />
          <note key="72" pos="756" pan="0" len="12" vol="62" />
          <note key="70" pos="768" pan="0" len="12" vol="67" />
          <note key="72" pos="780" pan="0" len="12" vol="72" />
          <note key="79" pos="792" pan="0" len="12" vol="75" />
          <note key="77" pos="804" pan="0" len="12" vol="80" />
          <note key="79" pos="816" pan="0" len="12" vol="83" />
          <note key="72" pos="828" pan="0" len="12" vol="88" />
          <note key="70" pos="840" pan="0" len="12" vol="92" />
          <note key="72" pos="852" pan="0" len="12" vol="95" />
          <note key="79" pos="864" pan="0" len="12" vol="100" />
          <note key="77" pos="876" pan="0" len="12" vol="95" />
          <note key="79" pos="888" pan="0" len="12" vol="92" />
          <note key="72" pos="900" pan="0" len="12" vol="88" />
          <note key="70" pos="912" pan="0" len="12" vol="83" />
          <note key="72" pos="924" pan="0" len="12" vol="78" />
          <note key="79" pos="936" pan="0" len="12" vol="75" />
          <note key="77" pos="948" pan="0" len="12" vol="70" />
          <note key="79" pos="960" pan="0" len="12" vol="66" />
          <note key="72" pos="972" pan="0" len="12" vol="61" />
          <note key="70" pos="984" pan="0" len="12" vol="58" />
          <note key="72" pos="996" pan="0" len="12" vol="53" />
          <note key="79" pos="1008" pan="0" len="12" vol="48" />
          <note key="77" pos="1020" pan="0" len="12" vol="44" />
          <note key="79" pos="1032" pan="0" len="12" vol="41" />
          <note key="72" pos="1044" pan="0" len="12" vol="36" />
          <note key="70" pos="1056" pan="0" len="12" vol="31" />
          <note key="72" pos="1068" pan="0" len="12" vol="27" />
          <note key="79" pos="1080" pan="0" len="12" vol="23" />
          <note key="77" pos="1092" pan="0" len="12" vol="19" />
          <note key="79" pos="1104" pan="0" len="12" vol="14" />
          <note key="72" pos="1116" pan="0" len="12" vol="9" />
          <note key="70" pos="1128" pan="0" len="12" vol="6" />
          <note key="72" pos="1140" pan="0" len="12" vol="2" />
        </pattern>
        <pattern pos="30720" muted="0" steps="16" name="" type="1">
          <note key="79" pos="0" pan="0" len="12" vol="2" />
          <note key="77" pos="12" pan="0" len="12" vol="6" />
          <note key="79" pos="24" pan="0" len="12" vol="9" />
          <note key="72" pos="36" pan="0" len="12" vol="14" />
          <note key="70" pos="48" pan="0" len="12" vol="17" />
          <note key="72" pos="60" pan="0" len="12" vol="22" />
          <note key="79" pos="72" pan="0" len="12" vol="27" />
          <note key="77" pos="84" pan="0" len="12" vol="30" />
          <note key="79" pos="96" pan="0" len="12" vol="34" />
          <note key="72" pos="108" pan="0" len="12" vol="39" />
          <note key="70" pos="120" pan="0" len="12" vol="42" />
          <note key="72" pos="132" pan="0" len="12" vol="47" />
          <note key="79" pos="144" pan="0" len="12" vol="50" />
          <note key="77" pos="156" pan="0" len="12" vol="55" />
          <note key="79" pos="168" pan="0" len="12" vol="59" />
          <note key="72" pos="180" pan="0" len="12" vol="62" />
          <note key="70" pos="192" pan="0" len="12" vol="67" />
          <note key="72" pos="204" pan="0" len="12" vol="72" />
          <note key="79" pos="216" pan="0" len="12" vol="75" />
          <note key="77" pos="228" pan="0" len="12" vol="80" />
          <note key="79" pos="240" pan="0" len="12" vol="83" />
          <note key="72" pos="252" pan="0" len="12" vol="88" />
          <note key="70" pos="264" pan="0" len="12" vol="92" />
          <note key="72" pos="276" pan="0" len="12" vol="95" />
          <note key="79" pos="288" pan="0" len="12" vol="100" />
          <note key="77" pos="300" pan="0" len="12" vol="95" />
          <note key="79" pos="312" pan="0" len="12" vol="92" />
          <note key="72" pos="324" pan="0" len="12" vol="88" />
          <note key="70" pos="336" pan="0" len="12" vol="83" />
          <note key="72" pos="348" pan="0" len="12" vol="78" />
          <note key="79" pos="360" pan="0" len="12" vol="75" />
          <note key="77" pos="372" pan="0" len="12" vol="70" />
          <note key="79" pos="384" pan="0" len="12" vol="66" />
          <note key="72" pos="396" pan="0" len="12" vol="61" />
          <note key="70" pos="408" pan="0" len="12" vol="58" />
          <note key="72" pos="420" pan="0" len="12" vol="53" />
          <note key="79" pos="432" pan="0" len="12" vol="48" />
          <note key="77" pos="444" pan="0" len="12" vol="44" />
          <note key="79" pos="456" pan="0" len="12" vol="41" />
          <note key="72" pos="468" pan="0" len="12" vol="36" />
          <note key="70" pos="480" pan="0" len="12" vol="31" />
          <note key="72" pos="492" pan="0" len="12" vol="27" />
          <note key="79" pos="504" pan="0" len="12" vol="23" />
          <note key="77" pos="516" pan="0" len="12" vol="19" />
          <note key="79" pos="528" pan="0" len="12" vol="14" />
          <note key="72" pos="540" pan="0" len="12" vol="9" />
          <note key="70" pos="552" pan="0" len="12" vol="6" />
          <note key="72" pos="564" pan="0" len="12" vol="2" />
          <note key="79" pos="576" pan="0" len="12" vol="2" />
          <note key="77" pos="588" pan="0" len="12" vol="6" />
          <note key="79" pos="600" pan="0" len="12" vol="9" />
          <note key="72" pos="612" pan="0" len="12" vol="14" />
          <note key="70" pos="624" pan="0" len="12" vol="17" />
          <note key="72" pos="636" pan="0" len="12" vol="22" />
          <note key="79" pos="648" pan="0" len="12" vol="27" />
          <note key="77" pos="660" pan="0" len="12" vol="30" />
          <note key="79" pos="672" pan="0" len="12" vol="34" />
          <note key="72" pos="684" pan="0" len="12" vol="39" />
          <note key="70" pos="696" pan="0" len="12" vol="42" />
          <note key="72" pos="708" pan="0" len="12" vol="47" />
          <note key="79" pos="720" pan="0" len="12" vol="50" />
          <note key="77" pos="732" pan="0" len="12" vol="55" />
          <note key="79" pos="744" pan="0" len="12" vol="59" />
          <note key="72" pos="756" pan="0" len="12" vol="62" />
          <note key="70" pos="768" pan="0" len="12" vol="67" />
          <note key="72" pos="780" pan="0" len="12" vol="72" />
          <note key="79" pos="792" pan="0" len="12" vol="75" />
          <note key="77" pos="804" pan="0" len="12" vol="80" />
          <note key="79" pos="816" pan="0" len="12" vol="83" />
          <note key="72" pos="828" pan="0" len="12" vol="88" />
          <note key="70" pos="840" pan="0" len="12" vol="92" />
          <note key="72" pos="852" pan="0" len="12" vol="95" />
          <note key="79" pos="864" pan="0" len="12" vol="100" />
          <note key="77" pos="876" pan="0" len="12" vol="95" />
          <note key="79" pos="888" pan="0" len="12" vol="92" />
          <note key="72" pos="900" pan="0" len="12" vol="88" />
          <note key="70" pos="912" pan="0" len="12" vol="83" />
          <note key="72" pos="924" pan="0" len="12" vol="78" />
          <note key="79" pos="936" pan="0" len="12" vol="75" />
          <note key="77" pos="948" pan="0" len="12" vol="70" />
          <note key="79" pos="960" pan="0" len="12" vol="66" />
          <note key="72" pos="972" pan="0" len="12" vol="61" />
          <note key="70" pos="984" pan="0" len="12" vol="58" />
          <note key="72" pos="996" pan="0" len="12" vol="53" />
          <note key="79" pos="1008" pan="0" len="12" vol="48" />
          <note key="77" pos="1020" pan="0" len="12" vol="44" />
          <note key="79" pos="1032" pan="0" len="12" vol="41" />
          <note key="72" pos="1044" pan="0" len="12" vol="36" />
          <note key="70" pos="1056" pan="0" len="12" vol="31" />
          <note key="72" pos="1068" pan="0" len="12" vol="27" />
          <note key="79" pos="1080" pan="0" len="12" vol="23" />
          <note key="77" pos="1092" pan="0" len="12" vol="19" />
          <note key="79" pos="1104" pan="0" len="12" vol="14" />
          <note key="72" pos="1116" pan="0" len="12" vol="9" />
          <note key="70" pos="1128" pan="0" len="12" vol="6" />
          <note key="72" pos="1140" pan="0" len="12" vol="2" />
        </pattern>
        <pattern pos="31872" muted="0" steps="16" name="" type="1">
          <note key="79" pos="0" pan="0" len="12" vol="2" />
          <note key="77" pos="12" pan="0" len="12" vol="6" />
          <note key="79" pos="24" pan="0" len="12" vol="9" />
          <note key="72" pos="36" pan="0" len="12" vol="14" />
          <note key="70" pos="48" pan="0" len="12" vol="17" />
          <note key="72" pos="60" pan="0" len="12" vol="22" />
          <note key="79" pos="72" pan="0" len="12" vol="27" />
          <note key="77" pos="84" pan="0" len="12" vol="30" />
          <note key="79" pos="96" pan="0" len="12" vol="34" />
          <note key="72" pos="108" pan="0" len="12" vol="39" />
          <note key="70" pos="120" pan="0" len="12" vol="42" />
          <note key="72" pos="132" pan="0" len="12" vol="47" />
          <note key="79" pos="144" pan="0" len="12" vol="50" />
          <note key="77" pos="156" pan="0" len="12" vol="55" />
          <note key="79" pos="168" pan="0" len="12" vol="59" />
          <note key="72" pos="180" pan="0" len="12" vol="62" />
          <note key="70" pos="192" pan="0" len="12" vol="67" />
          <note key="72" pos="204" pan="0" len="12" vol="72" />
          <note key="79" pos="216" pan="0" len="12" vol="75" />
          <note key="77" pos="228" pan="0" len="12" vol="80" />
          <note key="79" pos="240" pan="0" len="12" vol="83" />
          <note key="72" pos="252" pan="0" len="12" vol="88" />
          <note key="70" pos="264" pan="0" len="12" vol="92" />
          <note key="72" pos="276" pan="0" len="12" vol="95" />
          <note key="79" pos="288" pan="0" len="12" vol="100" />
          <note key="77" pos="300" pan="0" len="12" vol="95" />
          <note key="79" pos="312" pan="0" len="12" vol="92" />
          <note key="72" pos="324" pan="0" len="12" vol="88" />
          <note key="70" pos="336" pan="0" len="12" vol="83" />
          <note key="72" pos="348" pan="0" len="12" vol="78" />
          <note key="79" pos="360" pan="0" len="12" vol="75" />
          <note key="77" pos="372" pan="0" len="12" vol="70" />
          <note key="79" pos="384" pan="0" len="12" vol="66" />
          <note key="72" pos="396" pan="0" len="12" vol="61" />
          <note key="70" pos="408" pan="0" len="12" vol="58" />
          <note key="72" pos="420" pan="0" len="12" vol="53" />
          <note key="79" pos="432" pan="0" len="12" vol="48" />
          <note key="77" pos="444" pan="0" len="12" vol="44" />
          <note key="79" pos="456" pan="0" len="12" vol="41" />
          <note key="72" pos="468" pan="0" len="12" vol="36" />
          <note key="70" pos="480" pan="0" len="12" vol="31" />
          <note key="72" pos="492" pan="0" len="12" vol="27" />
          <note key="79" pos="504" pan="0" len="12" vol="23" />
          <note key="77" pos="516" pan="0" len="12" vol="19" />
          <note key="79" pos="528" pan="0" len="12" vol="14" />
          <note key="72" pos="540" pan="0" len="12" vol="9" />
          <note key="70" pos="552" pan="0" len="12" vol="6" />
          <note key="72" pos="564" pan="0" len="12" vol="2" />
          <note key="79" pos="576" pan="0" len="12" vol="2" />
          <note key="77" pos="588" pan="0" len="12" vol="6" />
          <note key="79" pos="600" pan="0" len="12" vol="9" />
          <note key="72" pos="612" pan="0" len="12" vol="14" />
          <note key="70" pos="624" pan="0" len="12" vol="17" />
          <note key="72" pos="636" pan="0" len="12" vol="22" />
          <note key="79" pos="648" pan="0" len="12" vol="27" />
          <note key="77" pos="660" pan="0" len="12" vol="30" />
          <note key="79" pos="672" pan="0" len="12" vol="34" />
          <note key="72" pos="684" pan="0" len="12" vol="39" />
          <note key="70" pos="696" pan="0" len="12" vol="42" />
          <note key="72" pos="708" pan="0" len="12" vol="47" />
          <note key="79" pos="720" pan="0" len="12" vol="50" />
          <note key="77" pos="732" pan="0" len="12" vol="55" />
          <note key="79" pos="744" pan="0" len="12" vol="59" />
          <note key="72" pos="756" pan="0" len="12" vol="62" />
          <note key="70" pos="768" pan="0" len="12" vol="67" />
          <note key="72" pos="780" pan="0" len="12" vol="72" />
          <note key="79" pos="792" pan="0" len="12" vol="75" />
          <note key="77" pos="804" pan="0" len="12" vol="80" />
          <note key="79" pos="816" pan="0" len="12" vol="83" />
          <note key="72" pos="828" pan="0" len="12" vol="88" />
          <note key="70" pos="840" pan="0" len="12" vol="92" />
          <note key="72" pos="852" pan="0" len="12" vol="95" />
          <note key="79" pos="864" pan="0" len="12" vol="100" />
          <note key="77" pos="876" pan="0" len="12" vol="95" />
          <note key="79" pos="888" pan="0" len="12" vol="92" />
          <note key="72" pos="900" pan="0" len="12" vol="88" />
          <note key="70" pos="912" pan="0" len="12" vol="83" />
          <note key="72" pos="924" pan="0" len="12" vol="78" />
          <note key="79" pos="936" pan="0" len="12" vol="75" />
          <note key="77" pos="948" pan="0" len="12" vol="70" />
          <note key="79" pos="960" pan="0" len="12" vol="66" />
          <note key="72" pos="972" pan="0" len="12" vol="61" />
          <note key="70" pos="984" pan="0" len="12" vol="58" />
          <note key="72" pos="996" pan="0" len="12" vol="53" />
          <note key="79" pos="1008" pan="0" len="12" vol="48" />
          <note key="77" pos="1020" pan="0" len="12" vol="44" />
          <note key="79" pos="1032" pan="0" len="12" vol="41" />
          <note key="72" pos="1044" pan="0" len="12" vol="36" />
          <note key="70" pos="1056" pan="0" len="12" vol="31" />
          <note key="72" pos="1068" pan="0" len="12" vol="27" />
          <note key="79" pos="1080" pan="0" len="12" vol="23" />
          <note key="77" pos="1092" pan="0" len="12" vol="19" />
          <note key="79" pos="1104" pan="0" len="12" vol="14" />
          <note key="72" pos="1116" pan="0" len="12" vol="9" />
          <note key="70" pos="1128" pan="0" len="12" vol="6" />
          <note key="72" pos="1140" pan="0" len="12" vol="2" />
        </pattern>
        <pattern pos="33024" muted="0" steps="16" name="" type="1">
          <note key="79" pos="0" pan="0" len="12" vol="2" />
          <note key="77" pos="12" pan="0" len="12" vol="6" />
          <note key="79" pos="24" pan="0" len="12" vol="9" />
          <note key="72" pos="36" pan="0" len="12" vol="14" />
          <note key="70" pos="48" pan="0" len="12" vol="17" />
          <note key="72" pos="60" pan="0" len="12" vol="22" />
          <note key="79" pos="72" pan="0" len="12" vol="27" />
          <note key="77" pos="84" pan="0" len="12" vol="30" />
          <note key="79" pos="96" pan="0" len="12" vol="34" />
          <note key="72" pos="108" pan="0" len="12" vol="39" />
          <note key="70" pos="120" pan="0" len="12" vol="42" />
          <note key="72" pos="132" pan="0" len="12" vol="47" />
          <note key="79" pos="144" pan="0" len="12" vol="50" />
          <note key="77" pos="156" pan="0" len="12" vol="55" />
          <note key="79" pos="168" pan="0" len="12" vol="59" />
          <note key="72" pos="180" pan="0" len="12" vol="62" />
          <note key="70" pos="192" pan="0" len="12" vol="67" />
          <note key="72" pos="204" pan="0" len="12" vol="72" />
          <note key="79" pos="216" pan="0" len="12" vol="75" />
          <note key="77" pos="228" pan="0" len="12" vol="80" />
          <note key="79" pos="240" pan="0" len="12" vol="83" />
          <note key="72" pos="252" pan="0" len="12" vol="88" />
          <note key="70" pos="264" pan="0" len="12" vol="92" />
          <note key="72" pos="276" pan="0" len="12" vol="95" />
          <note key="79" pos="288" pan="0" len="12" vol="100" />
          <note key="77" pos="300" pan="0" len="12" vol="95" />
          <note key="79" pos="312" pan="0" len="12" vol="92" />
          <note key="72" pos="324" pan="0" len="12" vol="88" />
          <note key="70" pos="336" pan="0" len="12" vol="83" />
          <note key="72" pos="348" pan="0" len="12" vol="78" />
          <note key="79" pos="360" pan="0" len="12" vol="75" />
          <note key="77" pos="372" pan="0" len="12" vol="70" />
          <note key="79" pos="384" pan="0" len="12" vol="66" />
          <note key="72" pos="396" pan="0" len="12" vol="61" />
          <note key="70" pos="408" pan="0" len="12" vol="58" />
          <note key="72" pos="420" pan="0" len="12" vol="53" />
          <note key="79" pos="432" pan="0" len="12" vol="48" />
          <note key="77" pos="444" pan="0" len="12" vol="44" />
          <note key="79" pos="456" pan="0" len="12" vol="41" />
          <note key="72" pos="468" pan="0" len="12" vol="36" />
          <note key="70" pos="480" pan="0" len="12" vol="31" />
          <note key="72" pos="492" pan="0" len="12" vol="27" />
          <note key="79" pos="504" pan="0" len="12" vol="23" />
          <note key="77" pos="516" pan="0" len="12" vol="19" />
          <note key="79" pos="528" pan="0" len="12" vol="14" />
          <note key="72" pos="540" pan="0" len="12" vol="9" />
          <note key="70" pos="552" pan="0" len="12" vol="6" />
          <note key="72" pos="564" pan="0" len="12" vol="2" />
          <note key="79" pos="576" pan="0" len="12" vol="2" />
          <note key="77" pos="588" pan="0" len="12" vol="6" />
          <note key="79" pos="600" pan="0" len="12" vol="9" />
          <note key="72" pos="612" pan="0" len="12" vol="14" />
          <note key="70" pos="624" pan="0" len="12" vol="17" />
          <note key="72" pos="636" pan="0" len="12" vol="22" />
          <note key="79" pos="648" pan="0" len="12" vol="27" />
          <note key="77" pos="660" pan="0" len="12" vol="30" />
          <note key="79" pos="672" pan="0" len="12" vol="34" />
          <note key="72" pos="684" pan="0" len="12" vol="39" />
          <note key="70" pos="696" pan="0" len="12" vol="42" />
          <note key="72" pos="708" pan="0" len="12" vol="47" />
          <note key="79" pos="720" pan="0" len="12" vol="50" />
          <note key="77" pos="732" pan="0" len="12" vol="55" />
          <note key="79" pos="744" pan="0" len="12" vol="59" />
          <note key="72" pos="756" pan="0" len="12" vol="62" />
          <note key="70" pos="768" pan="0" len="12" vol="67" />
          <note key="72" pos="780" pan="0" len="12" vol="72" />
          <note key="79" pos="792" pan="0" len="12" vol="75" />
          <note key="77" pos="804" pan="0" len="12" vol="80" />
          <note key="79" pos="816" pan="0" len="12" vol="83" />
          <note key="72" pos="828" pan="0" len="12" vol="88" />
          <note key="70" pos="840" pan="0" len="12" vol="92" />
          <note key="72" pos="852" pan="0" len="12" vol="95" />
          <note key="79" pos="864" pan="0" len="12" vol="100" />
          <note key="77" pos="876" pan="0" len="12" vol="95" />
          <note key="79" pos="888" pan="0" len="12" vol="92" />
          <note key="72" pos="900" pan="0" len="12" vol="88" />
          <note key="70" pos="912" pan="0" len="12" vol="83" />
          <note key="72" pos="924" pan="0" len="12" vol="78" />
          <note key="79" pos="936" pan="0" len="12" vol="75" />
          <note key="77" pos="948" pan="0" len="12" vol="70" />
          <note key="79" pos="960" pan="0" len="12" vol="66" />
          <note key="72" pos="972" pan="0" len="12" vol="61" />
          <note key="70" pos="984" pan="0" len="12" vol="58" />
          <note key="72" pos="996" pan="0" len="12" vol="53" />
          <note key="79" pos="1008" pan="0" len="12" vol="48" />
          <note key="77" pos="1020" pan="0" len="12" vol="44" />
          <note key="79" pos="1032" pan="0" len="12" vol="41" />
          <note key="72" pos="1044" pan="0" len="12" vol="36" />
          <note key="70" pos="1056" pan="0" len="12" vol="31" />
          <note key="72" pos="1068" pan="0" len="12" vol="27" />
          <note key="79" pos="1080" pan="0" len="12" vol="23" />
          <note key="77" pos="1092" pan="0" len="12" vol="19" />
          <note key="79" pos="1104" pan="0" len="12" vol="14" />
          <note key="72" pos="1116" pan="0" len="12" vol="9" />
          <note key="70" pos="1128" pan="0" len="12" vol="6" />
          <note key="72" pos="1140" pan="0" len="12" vol="2" />
        </pattern>
        <pattern pos="34176" muted="0" steps="16" name="" type="1">
          <note key="87" pos="0" pan="0" len="12" vol="2" />
          <note key="85" pos="12" pan="0" len="12" vol="6" />
          <note key="87" pos="24" pan="0" len="12" vol="9" />
          <note key="82" pos="36" pan="0" len="12" vol="14" />
          <note key="80" pos="48" pan="0" len="12" vol="17" />
          <note key="82" pos="60" pan="0" len="12" vol="22" />
          <note key="87" pos="72" pan="0" len="12" vol="27" />
          <note key="85" pos="84" pan="0" len="12" vol="30" />
          <note key="87" pos="96" pan="0" len="12" vol="34" />
          <note key="82" pos="108" pan="0" len="12" vol="39" />
          <note key="80" pos="120" pan="0" len="12" vol="42" />
          <note key="82" pos="132" pan="0" len="12" vol="47" />
          <note key="87" pos="144" pan="0" len="12" vol="50" />
          <note key="85" pos="156" pan="0" len="12" vol="55" />
          <note key="87" pos="168" pan="0" len="12" vol="59" />
          <note key="82" pos="180" pan="0" len="12" vol="62" />
          <note key="80" pos="192" pan="0" len="12" vol="67" />
          <note key="82" pos="204" pan="0" len="12" vol="72" />
          <note key="87" pos="216" pan="0" len="12" vol="75" />
          <note key="85" pos="228" pan="0" len="12" vol="80" />
          <note key="87" pos="240" pan="0" len="12" vol="83" />
          <note key="82" pos="252" pan="0" len="12" vol="88" />
          <note key="80" pos="264" pan="0" len="12" vol="92" />
          <note key="82" pos="276" pan="0" len="12" vol="95" />
          <note key="85" pos="288" pan="0" len="12" vol="100" />
          <note key="84" pos="300" pan="0" len="12" vol="95" />
          <note key="85" pos="312" pan="0" len="12" vol="92" />
          <note key="78" pos="324" pan="0" len="12" vol="88" />
          <note key="82" pos="336" pan="0" len="12" vol="83" />
          <note key="85" pos="348" pan="0" len="12" vol="78" />
          <note key="84" pos="360" pan="0" len="12" vol="75" />
          <note key="85" pos="372" pan="0" len="12" vol="70" />
          <note key="82" pos="384" pan="0" len="12" vol="66" />
          <note key="78" pos="396" pan="0" len="12" vol="61" />
          <note key="82" pos="408" pan="0" len="12" vol="58" />
          <note key="85" pos="420" pan="0" len="12" vol="53" />
          <note key="84" pos="432" pan="0" len="12" vol="48" />
          <note key="85" pos="444" pan="0" len="12" vol="44" />
          <note key="78" pos="456" pan="0" len="12" vol="41" />
          <note key="82" pos="468" pan="0" len="12" vol="36" />
          <note key="85" pos="480" pan="0" len="12" vol="31" />
          <note key="84" pos="492" pan="0" len="12" vol="27" />
          <note key="85" pos="504" pan="0" len="12" vol="23" />
          <note key="82" pos="516" pan="0" len="12" vol="19" />
          <note key="78" pos="528" pan="0" len="12" vol="14" />
          <note key="82" pos="540" pan="0" len="12" vol="9" />
          <note key="73" pos="552" pan="0" len="12" vol="6" />
          <note key="84" pos="564" pan="0" len="12" vol="2" />
          <note key="84" pos="576" pan="0" len="12" vol="2" />
          <note key="80" pos="588" pan="0" len="12" vol="6" />
          <note key="84" pos="600" pan="0" len="12" vol="9" />
          <note key="80" pos="612" pan="0" len="12" vol="14" />
          <note key="75" pos="624" pan="0" len="12" vol="17" />
          <note key="80" pos="636" pan="0" len="12" vol="22" />
          <note key="84" pos="648" pan="0" len="12" vol="27" />
          <note key="80" pos="660" pan="0" len="12" vol="30" />
          <note key="84" pos="672" pan="0" len="12" vol="34" />
          <note key="80" pos="684" pan="0" len="12" vol="39" />
          <note key="75" pos="696" pan="0" len="12" vol="42" />
          <note key="80" pos="708" pan="0" len="12" vol="47" />
          <note key="84" pos="720" pan="0" len="12" vol="50" />
          <note key="80" pos="732" pan="0" len="12" vol="55" />
          <note key="84" pos="744" pan="0" len="12" vol="59" />
          <note key="80" pos="756" pan="0" len="12" vol="62" />
          <note key="75" pos="768" pan="0" len="12" vol="67" />
          <note key="80" pos="780" pan="0" len="12" vol="72" />
          <note key="84" pos="792" pan="0" len="12" vol="75" />
          <note key="80" pos="804" pan="0" len="12" vol="80" />
          <note key="84" pos="816" pan="0" len="12" vol="83" />
          <note key="80" pos="828" pan="0" len="12" vol="88" />
          <note key="75" pos="840" pan="0" len="12" vol="92" />
          <note key="80" pos="852" pan="0" len="12" vol="95" />
          <note key="85" pos="864" pan="0" len="12" vol="100" />
          <note key="82" pos="876" pan="0" len="12" vol="95" />
          <note key="85" pos="888" pan="0" len="12" vol="92" />
          <note key="82" pos="900" pan="0" len="12" vol="88" />
          <note key="78" pos="912" pan="0" len="12" vol="83" />
          <note key="82" pos="924" pan="0" len="12" vol="78" />
          <note key="85" pos="936" pan="0" len="12" vol="75" />
          <note key="82" pos="948" pan="0" len="12" vol="70" />
          <note key="85" pos="960" pan="0" len="12" vol="66" />
          <note key="82" pos="972" pan="0" len="12" vol="61" />
          <note key="78" pos="984" pan="0" len="12" vol="58" />
          <note key="82" pos="996" pan="0" len="12" vol="53" />
          <note key="85" pos="1008" pan="0" len="12" vol="48" />
          <note key="82" pos="1020" pan="0" len="12" vol="44" />
          <note key="85" pos="1032" pan="0" len="12" vol="41" />
          <note key="82" pos="1044" pan="0" len="12" vol="36" />
          <note key="78" pos="1056" pan="0" len="12" vol="31" />
          <note key="82" pos="1068" pan="0" len="12" vol="27" />
          <note key="85" pos="1080" pan="0" len="12" vol="23" />
          <note key="82" pos="1092" pan="0" len="12" vol="19" />
          <note key="85" pos="1104" pan="0" len="12" vol="14" />
          <note key="82" pos="1116" pan="0" len="12" vol="9" />
          <note key="78" pos="1128" pan="0" len="12" vol="6" />
          <note key="82" pos="1140" pan="0" len="12" vol="2" />
        </pattern>
        <pattern pos="35328" muted="0" steps="16" name="" type="1">
          <note key="87" pos="0" pan="0" len="12" vol="2" />
          <note key="85" pos="12" pan="0" len="12" vol="6" />
          <note key="87" pos="24" pan="0" len="12" vol="9" />
          <note key="82" pos="36" pan="0" len="12" vol="14" />
          <note key="80" pos="48" pan="0" len="12" vol="17" />
          <note key="82" pos="60" pan="0" len="12" vol="22" />
          <note key="87" pos="72" pan="0" len="12" vol="27" />
          <note key="85" pos="84" pan="0" len="12" vol="30" />
          <note key="87" pos="96" pan="0" len="12" vol="34" />
          <note key="82" pos="108" pan="0" len="12" vol="39" />
          <note key="80" pos="120" pan="0" len="12" vol="42" />
          <note key="82" pos="132" pan="0" len="12" vol="47" />
          <note key="87" pos="144" pan="0" len="12" vol="50" />
          <note key="85" pos="156" pan="0" len="12" vol="55" />
          <note key="87" pos="168" pan="0" len="12" vol="59" />
          <note key="82" pos="180" pan="0" len="12" vol="62" />
          <note key="80" pos="192" pan="0" len="12" vol="67" />
          <note key="82" pos="204" pan="0" len="12" vol="72" />
          <note key="87" pos="216" pan="0" len="12" vol="75" />
          <note key="85" pos="228" pan="0" len="12" vol="80" />
          <note key="87" pos="240" pan="0" len="12" vol="83" />
          <note key="82" pos="252" pan="0" len="12" vol="88" />
          <note key="80" pos="264" pan="0" len="12" vol="92" />
          <note key="82" pos="276" pan="0" len="12" vol="95" />
          <note key="85" pos="288" pan="0" len="12" vol="100" />
          <note key="84" pos="300" pan="0" len="12" vol="95" />
          <note key="85" pos="312" pan="0" len="12" vol="92" />
          <note key="78" pos="324" pan="0" len="12" vol="88" />
          <note key="82" pos="336" pan="0" len="12" vol="83" />
          <note key="85" pos="348" pan="0" len="12" vol="78" />
          <note key="84" pos="360" pan="0" len="12" vol="75" />
          <note key="85" pos="372" pan="0" len="12" vol="70" />
          <note key="82" pos="384" pan="0" len="12" vol="66" />
          <note key="78" pos="396" pan="0" len="12" vol="61" />
          <note key="82" pos="408" pan="0" len="12" vol="58" />
          <note key="85" pos="420" pan="0" len="12" vol="53" />
          <note key="84" pos="432" pan="0" len="12" vol="48" />
          <note key="85" pos="444" pan="0" len="12" vol="44" />
          <note key="78" pos="456" pan="0" len="12" vol="41" />
          <note key="82" pos="468" pan="0" len="12" vol="36" />
          <note key="85" pos="480" pan="0" len="12" vol="31" />
          <note key="84" pos="492" pan="0" len="12" vol="27" />
          <note key="85" pos="504" pan="0" len="12" vol="23" />
          <note key="82" pos="516" pan="0" len="12" vol="19" />
          <note key="78" pos="528" pan="0" len="12" vol="14" />
          <note key="82" pos="540" pan="0" len="12" vol="9" />
          <note key="73" pos="552" pan="0" len="12" vol="6" />
          <note key="84" pos="564" pan="0" len="12" vol="2" />
          <note key="84" pos="576" pan="0" len="12" vol="2" />
          <note key="80" pos="588" pan="0" len="12" vol="6" />
          <note key="84" pos="600" pan="0" len="12" vol="9" />
          <note key="80" pos="612" pan="0" len="12" vol="14" />
          <note key="75" pos="624" pan="0" len="12" vol="17" />
          <note key="80" pos="636" pan="0" len="12" vol="22" />
          <note key="84" pos="648" pan="0" len="12" vol="27" />
          <note key="80" pos="660" pan="0" len="12" vol="30" />
          <note key="84" pos="672" pan="0" len="12" vol="34" />
          <note key="80" pos="684" pan="0" len="12" vol="39" />
          <note key="75" pos="696" pan="0" len="12" vol="42" />
          <note key="80" pos="708" pan="0" len="12" vol="47" />
          <note key="84" pos="720" pan="0" len="12" vol="50" />
          <note key="80" pos="732" pan="0" len="12" vol="55" />
          <note key="84" pos="744" pan="0" len="12" vol="59" />
          <note key="80" pos="756" pan="0" len="12" vol="62" />
          <note key="75" pos="768" pan="0" len="12" vol="67" />
          <note key="80" pos="780" pan="0" len="12" vol="72" />
          <note key="84" pos="792" pan="0" len="12" vol="75" />
          <note key="80" pos="804" pan="0" len="12" vol="80" />
          <note key="84" pos="816" pan="0" len="12" vol="83" />
          <note key="80" pos="828" pan="0" len="12" vol="88" />
          <note key="75" pos="840" pan="0" len="12" vol="92" />
          <note key="80" pos="852" pan="0" len="12" vol="95" />
          <note key="84" pos="864" pan="0" len="12" vol="2" />
          <note key="80" pos="876" pan="0" len="12" vol="6" />
          <note key="84" pos="888" pan="0" len="12" vol="9" />
          <note key="80" pos="900" pan="0" len="12" vol="14" />
          <note key="75" pos="912" pan="0" len="12" vol="17" />
          <note key="80" pos="924" pan="0" len="12" vol="22" />
          <note key="84" pos="936" pan="0" len="12" vol="27" />
          <note key="80" pos="948" pan="0" len="12" vol="30" />
          <note key="84" pos="960" pan="0" len="12" vol="34" />
          <note key="80" pos="972" pan="0" len="12" vol="39" />
          <note key="75" pos="984" pan="0" len="12" vol="42" />
          <note key="80" pos="996" pan="0" len="12" vol="47" />
          <note key="84" pos="1008" pan="0" len="12" vol="50" />
          <note key="80" pos="1020" pan="0" len="12" vol="55" />
          <note key="84" pos="1032" pan="0" len="12" vol="59" />
          <note key="80" pos="1044" pan="0" len="12" vol="62" />
          <note key="75" pos="1056" pan="0" len="12" vol="67" />
          <note key="80" pos="1068" pan="0" len="12" vol="72" />
          <note key="84" pos="1080" pan="0" len="12" vol="75" />
          <note key="80" pos="1092" pan="0" len="12" vol="80" />
          <note key="84" pos="1104" pan="0" len="12" vol="83" />
          <note key="80" pos="1116" pan="0" len="12" vol="88" />
          <note key="75" pos="1128" pan="0" len="12" vol="92" />
          <note key="80" pos="1140" pan="0" len="12" vol="95" />
        </pattern>
        <pattern pos="36480" muted="0" steps="16" name="" type="1">
          <note key="84" pos="0" pan="0" len="12" vol="2" />
          <note key="82" pos="12" pan="0" len="12" vol="6" />
          <note key="84" pos="24" pan="0" len="12" vol="9" />
          <note key="79" pos="36" pan="0" len="12" vol="14" />
          <note key="77" pos="48" pan="0" len="12" vol="17" />
          <note key="79" pos="60" pan="0" len="12" vol="22" />
          <note key="84" pos="72" pan="0" len="12" vol="27" />
          <note key="82" pos="84" pan="0" len="12" vol="30" />
          <note key="84" pos="96" pan="0" len="12" vol="34" />
          <note key="79" pos="108" pan="0" len="12" vol="39" />
          <note key="77" pos="120" pan="0" len="12" vol="42" />
          <note key="79" pos="132" pan="0" len="12" vol="47" />
          <note key="84" pos="144" pan="0" len="12" vol="50" />
          <note key="82" pos="156" pan="0" len="12" vol="55" />
          <note key="84" pos="168" pan="0" len="12" vol="59" />
          <note key="79" pos="180" pan="0" len="12" vol="62" />
          <note key="77" pos="192" pan="0" len="12" vol="67" />
          <note key="79" pos="204" pan="0" len="12" vol="72" />
          <note key="84" pos="216" pan="0" len="12" vol="75" />
          <note key="82" pos="228" pan="0" len="12" vol="80" />
          <note key="84" pos="240" pan="0" len="12" vol="83" />
          <note key="79" pos="252" pan="0" len="12" vol="88" />
          <note key="77" pos="264" pan="0" len="12" vol="92" />
          <note key="79" pos="276" pan="0" len="12" vol="95" />
          <note key="82" pos="288" pan="0" len="12" vol="100" />
          <note key="81" pos="300" pan="0" len="12" vol="95" />
          <note key="82" pos="312" pan="0" len="12" vol="92" />
          <note key="75" pos="324" pan="0" len="12" vol="88" />
          <note key="79" pos="336" pan="0" len="12" vol="83" />
          <note key="82" pos="348" pan="0" len="12" vol="78" />
          <note key="81" pos="360" pan="0" len="12" vol="75" />
          <note key="82" pos="372" pan="0" len="12" vol="70" />
          <note key="79" pos="384" pan="0" len="12" vol="66" />
          <note key="75" pos="396" pan="0" len="12" vol="61" />
          <note key="79" pos="408" pan="0" len="12" vol="58" />
          <note key="82" pos="420" pan="0" len="12" vol="53" />
          <note key="81" pos="432" pan="0" len="12" vol="48" />
          <note key="82" pos="444" pan="0" len="12" vol="44" />
          <note key="75" pos="456" pan="0" len="12" vol="41" />
          <note key="79" pos="468" pan="0" len="12" vol="36" />
          <note key="82" pos="480" pan="0" len="12" vol="31" />
          <note key="81" pos="492" pan="0" len="12" vol="27" />
          <note key="82" pos="504" pan="0" len="12" vol="23" />
          <note key="79" pos="516" pan="0" len="12" vol="19" />
          <note key="75" pos="528" pan="0" len="12" vol="14" />
          <note key="79" pos="540" pan="0" len="12" vol="9" />
          <note key="70" pos="552" pan="0" len="12" vol="6" />
          <note key="81" pos="564" pan="0" len="12" vol="2" />
          <note key="81" pos="576" pan="0" len="12" vol="2" />
          <note key="77" pos="588" pan="0" len="12" vol="6" />
          <note key="81" pos="600" pan="0" len="12" vol="9" />
          <note key="77" pos="612" pan="0" len="12" vol="14" />
          <note key="72" pos="624" pan="0" len="12" vol="17" />
          <note key="77" pos="636" pan="0" len="12" vol="22" />
          <note key="81" pos="648" pan="0" len="12" vol="27" />
          <note key="77" pos="660" pan="0" len="12" vol="30" />
          <note key="81" pos="672" pan="0" len="12" vol="34" />
          <note key="77" pos="684" pan="0" len="12" vol="39" />
          <note key="72" pos="696" pan="0" len="12" vol="42" />
          <note key="77" pos="708" pan="0" len="12" vol="47" />
          <note key="81" pos="720" pan="0" len="12" vol="50" />
          <note key="77" pos="732" pan="0" len="12" vol="55" />
          <note key="81" pos="744" pan="0" len="12" vol="59" />
          <note key="77" pos="756" pan="0" len="12" vol="62" />
          <note key="72" pos="768" pan="0" len="12" vol="67" />
          <note key="77" pos="780" pan="0" len="12" vol="72" />
          <note key="81" pos="792" pan="0" len="12" vol="75" />
          <note key="77" pos="804" pan="0" len="12" vol="80" />
          <note key="81" pos="816" pan="0" len="12" vol="83" />
          <note key="77" pos="828" pan="0" len="12" vol="88" />
          <note key="72" pos="840" pan="0" len="12" vol="92" />
          <note key="77" pos="852" pan="0" len="12" vol="95" />
          <note key="82" pos="864" pan="0" len="12" vol="100" />
          <note key="79" pos="876" pan="0" len="12" vol="95" />
          <note key="82" pos="888" pan="0" len="12" vol="92" />
          <note key="79" pos="900" pan="0" len="12" vol="88" />
          <note key="75" pos="912" pan="0" len="12" vol="83" />
          <note key="79" pos="924" pan="0" len="12" vol="78" />
          <note key="82" pos="936" pan="0" len="12" vol="75" />
          <note key="79" pos="948" pan="0" len="12" vol="70" />
          <note key="82" pos="960" pan="0" len="12" vol="66" />
          <note key="79" pos="972" pan="0" len="12" vol="61" />
          <note key="75" pos="984" pan="0" len="12" vol="58" />
          <note key="79" pos="996" pan="0" len="12" vol="53" />
          <note key="82" pos="1008" pan="0" len="12" vol="48" />
          <note key="79" pos="1020" pan="0" len="12" vol="44" />
          <note key="82" pos="1032" pan="0" len="12" vol="41" />
          <note key="79" pos="1044" pan="0" len="12" vol="36" />
          <note key="75" pos="1056" pan="0" len="12" vol="31" />
          <note key="79" pos="1068" pan="0" len="12" vol="27" />
          <note key="82" pos="1080" pan="0" len="12" vol="23" />
          <note key="79" pos="1092" pan="0" len="12" vol="19" />
          <note key="82" pos="1104" pan="0" len="12" vol="14" />
          <note key="79" pos="1116" pan="0" len="12" vol="9" />
          <note key="75" pos="1128" pan="0" len="12" vol="6" />
          <note key="79" pos="1140" pan="0" len="12" vol="2" />
        </pattern>
        <pattern pos="37632" muted="0" steps="16" name="" type="1">
          <note key="84" pos="0" pan="0" len="12" vol="2" />
          <note key="82" pos="12" pan="0" len="12" vol="6" />
          <note key="84" pos="24" pan="0" len="12" vol="9" />
          <note key="79" pos="36" pan="0" len="12" vol="14" />
          <note key="77" pos="48" pan="0" len="12" vol="17" />
          <note key="79" pos="60" pan="0" len="12" vol="22" />
          <note key="84" pos="72" pan="0" len="12" vol="27" />
          <note key="82" pos="84" pan="0" len="12" vol="30" />
          <note key="84" pos="96" pan="0" len="12" vol="34" />
          <note key="79" pos="108" pan="0" len="12" vol="39" />
          <note key="77" pos="120" pan="0" len="12" vol="42" />
          <note key="79" pos="132" pan="0" len="12" vol="47" />
          <note key="84" pos="144" pan="0" len="12" vol="50" />
          <note key="82" pos="156" pan="0" len="12" vol="55" />
          <note key="84" pos="168" pan="0" len="12" vol="59" />
          <note key="79" pos="180" pan="0" len="12" vol="62" />
          <note key="77" pos="192" pan="0" len="12" vol="67" />
          <note key="79" pos="204" pan="0" len="12" vol="72" />
          <note key="84" pos="216" pan="0" len="12" vol="75" />
          <note key="82" pos="228" pan="0" len="12" vol="80" />
          <note key="84" pos="240" pan="0" len="12" vol="83" />
          <note key="79" pos="252" pan="0" len="12" vol="88" />
          <note key="77" pos="264" pan="0" len="12" vol="92" />
          <note key="79" pos="276" pan="0" len="12" vol="95" />
          <note key="82" pos="288" pan="0" len="12" vol="100" />
          <note key="81" pos="300" pan="0" len="12" vol="95" />
          <note key="82" pos="312" pan="0" len="12" vol="92" />
          <note key="75" pos="324" pan="0" len="12" vol="88" />
          <note key="79" pos="336" pan="0" len="12" vol="83" />
          <note key="82" pos="348" pan="0" len="12" vol="78" />
          <note key="81" pos="360" pan="0" len="12" vol="75" />
          <note key="82" pos="372" pan="0" len="12" vol="70" />
          <note key="79" pos="384" pan="0" len="12" vol="66" />
          <note key="75" pos="396" pan="0" len="12" vol="61" />
          <note key="79" pos="408" pan="0" len="12" vol="58" />
          <note key="82" pos="420" pan="0" len="12" vol="53" />
          <note key="81" pos="432" pan="0" len="12" vol="48" />
          <note key="82" pos="444" pan="0" len="12" vol="44" />
          <note key="75" pos="456" pan="0" len="12" vol="41" />
          <note key="79" pos="468" pan="0" len="12" vol="36" />
          <note key="82" pos="480" pan="0" len="12" vol="31" />
          <note key="81" pos="492" pan="0" len="12" vol="27" />
          <note key="82" pos="504" pan="0" len="12" vol="23" />
          <note key="79" pos="516" pan="0" len="12" vol="19" />
          <note key="75" pos="528" pan="0" len="12" vol="14" />
          <note key="79" pos="540" pan="0" len="12" vol="9" />
          <note key="70" pos="552" pan="0" len="12" vol="6" />
          <note key="81" pos="564" pan="0" len="12" vol="2" />
          <note key="81" pos="576" pan="0" len="12" vol="2" />
          <note key="77" pos="588" pan="0" len="12" vol="6" />
          <note key="81" pos="600" pan="0" len="12" vol="9" />
          <note key="77" pos="612" pan="0" len="12" vol="14" />
          <note key="72" pos="624" pan="0" len="12" vol="17" />
          <note key="77" pos="636" pan="0" len="12" vol="22" />
          <note key="81" pos="648" pan="0" len="12" vol="27" />
          <note key="77" pos="660" pan="0" len="12" vol="30" />
          <note key="81" pos="672" pan="0" len="12" vol="34" />
          <note key="77" pos="684" pan="0" len="12" vol="39" />
          <note key="72" pos="696" pan="0" len="12" vol="42" />
          <note key="77" pos="708" pan="0" len="12" vol="47" />
          <note key="81" pos="720" pan="0" len="12" vol="50" />
          <note key="77" pos="732" pan="0" len="12" vol="55" />
          <note key="81" pos="744" pan="0" len="12" vol="59" />
          <note key="77" pos="756" pan="0" len="12" vol="62" />
          <note key="72" pos="768" pan="0" len="12" vol="67" />
          <note key="77" pos="780" pan="0" len="12" vol="72" />
          <note key="81" pos="792" pan="0" len="12" vol="75" />
          <note key="77" pos="804" pan="0" len="12" vol="80" />
          <note key="81" pos="816" pan="0" len="12" vol="83" />
          <note key="77" pos="828" pan="0" len="12" vol="88" />
          <note key="72" pos="840" pan="0" len="12" vol="92" />
          <note key="77" pos="852" pan="0" len="12" vol="95" />
          <note key="81" pos="864" pan="0" len="12" vol="100" />
          <note key="77" pos="876" pan="0" len="12" vol="95" />
          <note key="81" pos="888" pan="0" len="12" vol="92" />
          <note key="77" pos="900" pan="0" len="12" vol="88" />
          <note key="72" pos="912" pan="0" len="12" vol="83" />
          <note key="77" pos="924" pan="0" len="12" vol="78" />
          <note key="81" pos="936" pan="0" len="12" vol="75" />
          <note key="77" pos="948" pan="0" len="12" vol="70" />
          <note key="81" pos="960" pan="0" len="12" vol="66" />
          <note key="77" pos="972" pan="0" len="12" vol="61" />
          <note key="72" pos="984" pan="0" len="12" vol="58" />
          <note key="77" pos="996" pan="0" len="12" vol="53" />
          <note key="81" pos="1008" pan="0" len="12" vol="48" />
          <note key="77" pos="1020" pan="0" len="12" vol="44" />
          <note key="81" pos="1032" pan="0" len="12" vol="41" />
          <note key="77" pos="1044" pan="0" len="12" vol="36" />
          <note key="72" pos="1056" pan="0" len="12" vol="31" />
          <note key="77" pos="1068" pan="0" len="12" vol="27" />
          <note key="81" pos="1080" pan="0" len="12" vol="23" />
          <note key="77" pos="1092" pan="0" len="12" vol="19" />
          <note key="81" pos="1104" pan="0" len="12" vol="14" />
          <note key="77" pos="1116" pan="0" len="12" vol="9" />
          <note key="72" pos="1128" pan="0" len="12" vol="6" />
          <note key="77" pos="1140" pan="0" len="12" vol="2" />
        </pattern>
        <pattern pos="38784" muted="0" steps="16" name="" type="1">
          <note key="79" pos="0" pan="0" len="12" vol="2" />
          <note key="77" pos="12" pan="0" len="12" vol="6" />
          <note key="79" pos="24" pan="0" len="12" vol="9" />
          <note key="72" pos="36" pan="0" len="12" vol="14" />
          <note key="70" pos="48" pan="0" len="12" vol="17" />
          <note key="72" pos="60" pan="0" len="12" vol="22" />
          <note key="79" pos="72" pan="0" len="12" vol="27" />
          <note key="77" pos="84" pan="0" len="12" vol="30" />
          <note key="79" pos="96" pan="0" len="12" vol="34" />
          <note key="72" pos="108" pan="0" len="12" vol="39" />
          <note key="70" pos="120" pan="0" len="12" vol="42" />
          <note key="72" pos="132" pan="0" len="12" vol="47" />
          <note key="79" pos="144" pan="0" len="12" vol="50" />
          <note key="77" pos="156" pan="0" len="12" vol="55" />
          <note key="79" pos="168" pan="0" len="12" vol="59" />
          <note key="72" pos="180" pan="0" len="12" vol="62" />
          <note key="70" pos="192" pan="0" len="12" vol="67" />
          <note key="72" pos="204" pan="0" len="12" vol="72" />
          <note key="79" pos="216" pan="0" len="12" vol="75" />
          <note key="77" pos="228" pan="0" len="12" vol="80" />
          <note key="79" pos="240" pan="0" len="12" vol="83" />
          <note key="72" pos="252" pan="0" len="12" vol="88" />
          <note key="70" pos="264" pan="0" len="12" vol="92" />
          <note key="72" pos="276" pan="0" len="12" vol="95" />
          <note key="79" pos="288" pan="0" len="12" vol="100" />
          <note key="77" pos="300" pan="0" len="12" vol="95" />
          <note key="79" pos="312" pan="0" len="12" vol="92" />
          <note key="72" pos="324" pan="0" len="12" vol="88" />
          <note key="70" pos="336" pan="0" len="12" vol="83" />
          <note key="72" pos="348" pan="0" len="12" vol="78" />
          <note key="79" pos="360" pan="0" len="12" vol="75" />
          <note key="77" pos="372" pan="0" len="12" vol="70" />
          <note key="79" pos="384" pan="0" len="12" vol="66" />
          <note key="72" pos="396" pan="0" len="12" vol="61" />
          <note key="70" pos="408" pan="0" len="12" vol="58" />
          <note key="72" pos="420" pan="0" len="12" vol="53" />
          <note key="79" pos="432" pan="0" len="12" vol="48" />
          <note key="77" pos="444" pan="0" len="12" vol="44" />
          <note key="79" pos="456" pan="0" len="12" vol="41" />
          <note key="72" pos="468" pan="0" len="12" vol="36" />
          <note key="70" pos="480" pan="0" len="12" vol="31" />
          <note key="72" pos="492" pan="0" len="12" vol="27" />
          <note key="79" pos="504" pan="0" len="12" vol="23" />
          <note key="77" pos="516" pan="0" len="12" vol="19" />
          <note key="79" pos="528" pan="0" len="12" vol="14" />
          <note key="72" pos="540" pan="0" len="12" vol="9" />
          <note key="70" pos="552" pan="0" len="12" vol="6" />
          <note key="72" pos="564" pan="0" len="12" vol="2" />
          <note key="79" pos="576" pan="0" len="12" vol="2" />
          <note key="77" pos="588" pan="0" len="12" vol="6" />
          <note key="79" pos="600" pan="0" len="12" vol="9" />
          <note key="72" pos="612" pan="0" len="12" vol="14" />
          <note key="70" pos="624" pan="0" len="12" vol="17" />
          <note key="72" pos="636" pan="0" len="12" vol="22" />
          <note key="79" pos="648" pan="0" len="12" vol="27" />
          <note key="77" pos="660" pan="0" len="12" vol="30" />
          <note key="79" pos="672" pan="0" len="12" vol="34" />
          <note key="72" pos="684" pan="0" len="12" vol="39" />
          <note key="70" pos="696" pan="0" len="12" vol="42" />
          <note key="72" pos="708" pan="0" len="12" vol="47" />
          <note key="79" pos="720" pan="0" len="12" vol="50" />
          <note key="77" pos="732" pan="0" len="12" vol="55" />
          <note key="79" pos="744" pan="0" len="12" vol="59" />
          <note key="72" pos="756" pan="0" len="12" vol="62" />
          <note key="70" pos="768" pan="0" len="12" vol="67" />
          <note key="72" pos="780" pan="0" len="12" vol="72" />
          <note key="79" pos="792" pan="0" len="12" vol="75" />
          <note key="77" pos="804" pan="0" len="12" vol="80" />
          <note key="79" pos="816" pan="0" len="12" vol="83" />
          <note key="72" pos="828" pan="0" len="12" vol="88" />
          <note key="70" pos="840" pan="0" len="12" vol="92" />
          <note key="72" pos="852" pan="0" len="12" vol="95" />
          <note key="79" pos="864" pan="0" len="12" vol="100" />
          <note key="77" pos="876" pan="0" len="12" vol="95" />
          <note key="79" pos="888" pan="0" len="12" vol="92" />
          <note key="72" pos="900" pan="0" len="12" vol="88" />
          <note key="70" pos="912" pan="0" len="12" vol="83" />
          <note key="72" pos="924" pan="0" len="12" vol="78" />
          <note key="79" pos="936" pan="0" len="12" vol="75" />
          <note key="77" pos="948" pan="0" len="12" vol="70" />
          <note key="79" pos="960" pan="0" len="12" vol="66" />
          <note key="72" pos="972" pan="0" len="12" vol="61" />
          <note key="70" pos="984" pan="0" len="12" vol="58" />
          <note key="72" pos="996" pan="0" len="12" vol="53" />
          <note key="79" pos="1008" pan="0" len="12" vol="48" />
          <note key="77" pos="1020" pan="0" len="12" vol="44" />
          <note key="79" pos="1032" pan="0" len="12" vol="41" />
          <note key="72" pos="1044" pan="0" len="12" vol="36" />
          <note key="70" pos="1056" pan="0" len="12" vol="31" />
          <note key="72" pos="1068" pan="0" len="12" vol="27" />
          <note key="79" pos="1080" pan="0" len="12" vol="23" />
          <note key="77" pos="1092" pan="0" len="12" vol="19" />
          <note key="79" pos="1104" pan="0" len="12" vol="14" />
          <note key="72" pos="1116" pan="0" len="12" vol="9" />
          <note key="70" pos="1128" pan="0" len="12" vol="6" />
          <note key="72" pos="1140" pan="0" len="12" vol="2" />
        </pattern>
      </track>
      <track solo="0" name="2 (Ch6)" type="0" muted="0">
        <instrumenttrack usemasterpitch="1" pitch="0.0" basenote="57" pan="0" pitchrange="12" vol="30">
          <eldata />
          <instrument name="tripleoscillator" />
        </instrumenttrack>
        <pattern pos="26880" muted="0" steps="16" name="" type="1">
          <note key="60" pos="0" pan="0" len="12" vol="34" />
          <note key="65" pos="12" pan="0" len="12" vol="36" />
          <note key="67" pos="24" pan="0" len="12" vol="39" />
          <note key="60" pos="36" pan="0" len="12" vol="41" />
          <note key="65" pos="48" pan="0" len="12" vol="42" />
          <note key="67" pos="60" pan="0" len="12" vol="45" />
          <note key="60" pos="72" pan="0" len="12" vol="47" />
          <note key="65" pos="84" pan="0" len="12" vol="48" />
          <note key="67" pos="96" pan="0" len="12" vol="50" />
          <note key="60" pos="108" pan="0" len="12" vol="53" />
          <note key="65" pos="120" pan="0" len="12" vol="55" />
          <note key="67" pos="132" pan="0" len="12" vol="56" />
          <note key="60" pos="144" pan="0" len="12" vol="59" />
          <note key="65" pos="156" pan="0" len="12" vol="61" />
          <note key="67" pos="168" pan="0" len="12" vol="62" />
          <note key="60" pos="180" pan="0" len="12" vol="66" />
          <note key="65" pos="192" pan="0" len="12" vol="67" />
          <note key="67" pos="204" pan="0" len="12" vol="69" />
          <note key="60" pos="216" pan="0" len="12" vol="72" />
          <note key="65" pos="228" pan="0" len="12" vol="73" />
          <note key="67" pos="240" pan="0" len="12" vol="75" />
          <note key="60" pos="252" pan="0" len="12" vol="78" />
          <note key="65" pos="264" pan="0" len="12" vol="80" />
          <note key="67" pos="276" pan="0" len="12" vol="81" />
          <note key="60" pos="288" pan="0" len="12" vol="83" />
          <note key="65" pos="300" pan="0" len="12" vol="86" />
          <note key="67" pos="312" pan="0" len="12" vol="88" />
          <note key="60" pos="324" pan="0" len="12" vol="89" />
          <note key="65" pos="336" pan="0" len="12" vol="92" />
          <note key="67" pos="348" pan="0" len="12" vol="94" />
          <note key="60" pos="360" pan="0" len="12" vol="95" />
          <note key="65" pos="372" pan="0" len="12" vol="98" />
          <note key="67" pos="384" pan="0" len="12" vol="100" />
          <note key="60" pos="396" pan="0" len="12" vol="98" />
          <note key="65" pos="408" pan="0" len="12" vol="95" />
          <note key="67" pos="420" pan="0" len="12" vol="94" />
          <note key="60" pos="432" pan="0" len="12" vol="92" />
          <note key="65" pos="444" pan="0" len="12" vol="89" />
          <note key="67" pos="456" pan="0" len="12" vol="88" />
          <note key="60" pos="468" pan="0" len="12" vol="86" />
          <note key="65" pos="480" pan="0" len="12" vol="84" />
          <note key="67" pos="492" pan="0" len="12" vol="81" />
          <note key="60" pos="504" pan="0" len="12" vol="80" />
          <note key="65" pos="516" pan="0" len="12" vol="78" />
          <note key="67" pos="528" pan="0" len="12" vol="75" />
          <note key="60" pos="540" pan="0" len="12" vol="73" />
          <note key="65" pos="552" pan="0" len="12" vol="72" />
          <note key="67" pos="564" pan="0" len="12" vol="69" />
          <note key="60" pos="576" pan="0" len="12" vol="67" />
          <note key="65" pos="588" pan="0" len="12" vol="66" />
          <note key="67" pos="600" pan="0" len="12" vol="62" />
          <note key="60" pos="612" pan="0" len="12" vol="61" />
          <note key="65" pos="624" pan="0" len="12" vol="59" />
          <note key="67" pos="636" pan="0" len="12" vol="56" />
          <note key="60" pos="648" pan="0" len="12" vol="55" />
          <note key="65" pos="660" pan="0" len="12" vol="53" />
          <note key="67" pos="672" pan="0" len="12" vol="52" />
          <note key="60" pos="684" pan="0" len="12" vol="48" />
          <note key="65" pos="696" pan="0" len="12" vol="47" />
          <note key="67" pos="708" pan="0" len="12" vol="45" />
          <note key="60" pos="720" pan="0" len="12" vol="42" />
          <note key="65" pos="732" pan="0" len="12" vol="41" />
          <note key="67" pos="744" pan="0" len="12" vol="39" />
          <note key="60" pos="756" pan="0" len="12" vol="36" />
          <note key="60" pos="768" pan="0" len="12" vol="34" />
          <note key="65" pos="780" pan="0" len="12" vol="36" />
          <note key="67" pos="792" pan="0" len="12" vol="39" />
          <note key="60" pos="804" pan="0" len="12" vol="41" />
          <note key="65" pos="816" pan="0" len="12" vol="42" />
          <note key="67" pos="828" pan="0" len="12" vol="45" />
          <note key="60" pos="840" pan="0" len="12" vol="47" />
          <note key="65" pos="852" pan="0" len="12" vol="48" />
          <note key="67" pos="864" pan="0" len="12" vol="50" />
          <note key="60" pos="876" pan="0" len="12" vol="53" />
          <note key="65" pos="888" pan="0" len="12" vol="55" />
          <note key="67" pos="900" pan="0" len="12" vol="56" />
          <note key="60" pos="912" pan="0" len="12" vol="59" />
          <note key="65" pos="924" pan="0" len="12" vol="61" />
          <note key="67" pos="936" pan="0" len="12" vol="62" />
          <note key="60" pos="948" pan="0" len="12" vol="66" />
          <note key="65" pos="960" pan="0" len="12" vol="67" />
          <note key="67" pos="972" pan="0" len="12" vol="69" />
          <note key="60" pos="984" pan="0" len="12" vol="72" />
          <note key="65" pos="996" pan="0" len="12" vol="73" />
          <note key="67" pos="1008" pan="0" len="12" vol="75" />
          <note key="60" pos="1020" pan="0" len="12" vol="78" />
          <note key="65" pos="1032" pan="0" len="12" vol="80" />
          <note key="67" pos="1044" pan="0" len="12" vol="81" />
          <note key="60" pos="1056" pan="0" len="12" vol="83" />
          <note key="65" pos="1068" pan="0" len="12" vol="86" />
          <note key="67" pos="1080" pan="0" len="12" vol="88" />
          <note key="60" pos="1092" pan="0" len="12" vol="89" />
          <note key="65" pos="1104" pan="0" len="12" vol="92" />
          <note key="67" pos="1116" pan="0" len="12" vol="94" />
          <note key="60" pos="1128" pan="0" len="12" vol="95" />
          <note key="65" pos="1140" pan="0" len="12" vol="98" />
          <note key="67" pos="1152" pan="0" len="12" vol="100" />
          <note key="60" pos="1164" pan="0" len="12" vol="97" />
          <note key="65" pos="1176" pan="0" len="12" vol="94" />
          <note key="67" pos="1188" pan="0" len="12" vol="91" />
          <note key="60" pos="1200" pan="0" len="12" vol="88" />
          <note key="65" pos="1212" pan="0" len="12" vol="84" />
          <note key="67" pos="1224" pan="0" len="12" vol="81" />
          <note key="60" pos="1236" pan="0" len="12" vol="78" />
          <note key="65" pos="1248" pan="0" len="12" vol="75" />
          <note key="67" pos="1260" pan="0" len="12" vol="72" />
          <note key="60" pos="1272" pan="0" len="12" vol="69" />
          <note key="65" pos="1284" pan="0" len="12" vol="66" />
          <note key="67" pos="1296" pan="0" len="12" vol="62" />
          <note key="60" pos="1308" pan="0" len="12" vol="59" />
          <note key="65" pos="1320" pan="0" len="12" vol="56" />
          <note key="67" pos="1332" pan="0" len="12" vol="53" />
          <note key="60" pos="1344" pan="0" len="12" vol="48" />
          <note key="65" pos="1356" pan="0" len="12" vol="45" />
          <note key="67" pos="1368" pan="0" len="12" vol="42" />
          <note key="60" pos="1380" pan="0" len="12" vol="39" />
          <note key="65" pos="1392" pan="0" len="12" vol="36" />
          <note key="67" pos="1404" pan="0" len="12" vol="33" />
          <note key="60" pos="1416" pan="0" len="12" vol="30" />
          <note key="65" pos="1428" pan="0" len="12" vol="27" />
          <note key="67" pos="1440" pan="0" len="12" vol="23" />
          <note key="60" pos="1452" pan="0" len="12" vol="20" />
          <note key="65" pos="1464" pan="0" len="12" vol="17" />
          <note key="67" pos="1476" pan="0" len="12" vol="14" />
          <note key="60" pos="1488" pan="0" len="12" vol="11" />
          <note key="65" pos="1500" pan="0" len="12" vol="8" />
          <note key="67" pos="1512" pan="0" len="12" vol="5" />
          <note key="60" pos="1524" pan="0" len="12" vol="2" />
        </pattern>
        <pattern pos="20736" muted="0" steps="16" name="" type="1">
          <note key="48" pos="0" pan="0" len="12" vol="0" />
          <note key="53" pos="12" pan="0" len="12" vol="0" />
          <note key="55" pos="24" pan="0" len="12" vol="0" />
          <note key="48" pos="36" pan="0" len="12" vol="2" />
          <note key="53" pos="48" pan="0" len="12" vol="2" />
          <note key="55" pos="60" pan="0" len="12" vol="2" />
          <note key="48" pos="72" pan="0" len="12" vol="2" />
          <note key="53" pos="84" pan="0" len="12" vol="3" />
          <note key="48" pos="108" pan="0" len="12" vol="3" />
          <note key="53" pos="120" pan="0" len="12" vol="3" />
          <note key="55" pos="132" pan="0" len="12" vol="5" />
          <note key="48" pos="144" pan="0" len="12" vol="5" />
          <note key="53" pos="156" pan="0" len="12" vol="5" />
          <note key="55" pos="168" pan="0" len="12" vol="5" />
          <note key="48" pos="180" pan="0" len="12" vol="6" />
          <note key="53" pos="192" pan="0" len="12" vol="6" />
          <note key="55" pos="204" pan="0" len="12" vol="6" />
          <note key="48" pos="216" pan="0" len="12" vol="6" />
          <note key="53" pos="228" pan="0" len="12" vol="8" />
          <note key="55" pos="240" pan="0" len="12" vol="8" />
          <note key="48" pos="252" pan="0" len="12" vol="8" />
          <note key="53" pos="264" pan="0" len="12" vol="8" />
          <note key="55" pos="276" pan="0" len="12" vol="9" />
          <note key="48" pos="288" pan="0" len="12" vol="9" />
          <note key="53" pos="300" pan="0" len="12" vol="9" />
          <note key="55" pos="312" pan="0" len="12" vol="9" />
          <note key="48" pos="324" pan="0" len="12" vol="11" />
          <note key="53" pos="336" pan="0" len="12" vol="11" />
          <note key="55" pos="348" pan="0" len="12" vol="11" />
          <note key="48" pos="360" pan="0" len="12" vol="11" />
          <note key="53" pos="372" pan="0" len="12" vol="12" />
          <note key="48" pos="384" pan="0" len="12" vol="12" />
          <note key="55" pos="396" pan="0" len="12" vol="12" />
          <note key="58" pos="408" pan="0" len="12" vol="12" />
          <note key="48" pos="420" pan="0" len="12" vol="14" />
          <note key="55" pos="432" pan="0" len="12" vol="14" />
          <note key="58" pos="444" pan="0" len="12" vol="14" />
          <note key="48" pos="456" pan="0" len="12" vol="14" />
          <note key="55" pos="468" pan="0" len="12" vol="16" />
          <note key="58" pos="480" pan="0" len="12" vol="16" />
          <note key="48" pos="492" pan="0" len="12" vol="16" />
          <note key="55" pos="504" pan="0" len="12" vol="16" />
          <note key="58" pos="516" pan="0" len="12" vol="17" />
          <note key="48" pos="528" pan="0" len="12" vol="17" />
          <note key="55" pos="540" pan="0" len="12" vol="17" />
          <note key="58" pos="552" pan="0" len="12" vol="17" />
          <note key="48" pos="564" pan="0" len="12" vol="19" />
          <note key="55" pos="576" pan="0" len="12" vol="19" />
          <note key="57" pos="588" pan="0" len="12" vol="19" />
          <note key="48" pos="600" pan="0" len="12" vol="19" />
          <note key="55" pos="612" pan="0" len="12" vol="20" />
          <note key="57" pos="624" pan="0" len="12" vol="20" />
          <note key="48" pos="636" pan="0" len="12" vol="20" />
          <note key="55" pos="648" pan="0" len="12" vol="20" />
          <note key="57" pos="660" pan="0" len="12" vol="22" />
          <note key="48" pos="672" pan="0" len="12" vol="22" />
          <note key="55" pos="684" pan="0" len="12" vol="22" />
          <note key="57" pos="696" pan="0" len="12" vol="22" />
          <note key="48" pos="708" pan="0" len="12" vol="23" />
          <note key="55" pos="720" pan="0" len="12" vol="23" />
          <note key="57" pos="732" pan="0" len="12" vol="23" />
          <note key="48" pos="744" pan="0" len="12" vol="23" />
          <note key="55" pos="756" pan="0" len="12" vol="25" />
          <note key="48" pos="768" pan="0" len="12" vol="25" />
          <note key="55" pos="780" pan="0" len="12" vol="27" />
          <note key="57" pos="792" pan="0" len="12" vol="28" />
          <note key="48" pos="804" pan="0" len="12" vol="28" />
          <note key="55" pos="816" pan="0" len="12" vol="30" />
          <note key="57" pos="828" pan="0" len="12" vol="31" />
          <note key="48" pos="840" pan="0" len="12" vol="33" />
          <note key="55" pos="852" pan="0" len="12" vol="33" />
          <note key="57" pos="864" pan="0" len="12" vol="34" />
          <note key="48" pos="876" pan="0" len="12" vol="36" />
          <note key="55" pos="888" pan="0" len="12" vol="38" />
          <note key="57" pos="900" pan="0" len="12" vol="38" />
          <note key="48" pos="912" pan="0" len="12" vol="39" />
          <note key="55" pos="924" pan="0" len="12" vol="41" />
          <note key="57" pos="936" pan="0" len="12" vol="42" />
          <note key="48" pos="948" pan="0" len="12" vol="42" />
          <note key="48" pos="960" pan="0" len="12" vol="44" />
          <note key="51" pos="972" pan="0" len="12" vol="45" />
          <note key="53" pos="984" pan="0" len="12" vol="47" />
          <note key="48" pos="996" pan="0" len="12" vol="47" />
          <note key="51" pos="1008" pan="0" len="12" vol="48" />
          <note key="53" pos="1020" pan="0" len="12" vol="50" />
          <note key="48" pos="1032" pan="0" len="12" vol="52" />
          <note key="51" pos="1044" pan="0" len="12" vol="53" />
          <note key="53" pos="1056" pan="0" len="12" vol="53" />
          <note key="48" pos="1068" pan="0" len="12" vol="55" />
          <note key="51" pos="1080" pan="0" len="12" vol="56" />
          <note key="53" pos="1092" pan="0" len="12" vol="58" />
          <note key="48" pos="1104" pan="0" len="12" vol="58" />
          <note key="51" pos="1116" pan="0" len="12" vol="59" />
          <note key="53" pos="1128" pan="0" len="12" vol="61" />
          <note key="48" pos="1140" pan="0" len="12" vol="62" />
          <note key="51" pos="1152" pan="0" len="12" vol="62" />
          <note key="53" pos="1164" pan="0" len="12" vol="64" />
          <note key="48" pos="1176" pan="0" len="12" vol="66" />
          <note key="51" pos="1188" pan="0" len="12" vol="67" />
          <note key="48" pos="1200" pan="0" len="12" vol="67" />
          <note key="55" pos="1212" pan="0" len="12" vol="69" />
          <note key="57" pos="1224" pan="0" len="12" vol="70" />
          <note key="48" pos="1236" pan="0" len="12" vol="72" />
          <note key="55" pos="1248" pan="0" len="12" vol="72" />
          <note key="57" pos="1260" pan="0" len="12" vol="73" />
          <note key="48" pos="1272" pan="0" len="12" vol="75" />
          <note key="55" pos="1284" pan="0" len="12" vol="77" />
          <note key="57" pos="1296" pan="0" len="12" vol="78" />
          <note key="48" pos="1308" pan="0" len="12" vol="78" />
          <note key="55" pos="1320" pan="0" len="12" vol="80" />
          <note key="57" pos="1332" pan="0" len="12" vol="81" />
          <note key="48" pos="1344" pan="0" len="12" vol="83" />
          <note key="55" pos="1356" pan="0" len="12" vol="83" />
          <note key="57" pos="1368" pan="0" len="12" vol="84" />
          <note key="48" pos="1380" pan="0" len="12" vol="86" />
          <note key="55" pos="1392" pan="0" len="12" vol="88" />
          <note key="57" pos="1404" pan="0" len="12" vol="88" />
          <note key="48" pos="1416" pan="0" len="12" vol="89" />
          <note key="55" pos="1428" pan="0" len="12" vol="91" />
          <note key="57" pos="1440" pan="0" len="12" vol="92" />
          <note key="48" pos="1452" pan="0" len="12" vol="92" />
          <note key="55" pos="1464" pan="0" len="12" vol="94" />
          <note key="57" pos="1476" pan="0" len="12" vol="95" />
          <note key="48" pos="1488" pan="0" len="12" vol="97" />
          <note key="55" pos="1500" pan="0" len="12" vol="97" />
          <note key="57" pos="1512" pan="0" len="12" vol="98" />
          <note key="48" pos="1524" pan="0" len="12" vol="100" />
        </pattern>
        <pattern pos="22272" muted="0" steps="16" name="" type="1">
          <note key="48" pos="0" pan="0" len="12" vol="100" />
          <note key="53" pos="12" pan="0" len="12" vol="100" />
          <note key="55" pos="24" pan="0" len="12" vol="100" />
          <note key="48" pos="36" pan="0" len="12" vol="100" />
          <note key="53" pos="48" pan="0" len="12" vol="100" />
          <note key="55" pos="60" pan="0" len="12" vol="100" />
          <note key="48" pos="72" pan="0" len="12" vol="100" />
          <note key="53" pos="84" pan="0" len="12" vol="100" />
          <note key="48" pos="108" pan="0" len="12" vol="100" />
          <note key="53" pos="120" pan="0" len="12" vol="100" />
          <note key="55" pos="132" pan="0" len="12" vol="100" />
          <note key="48" pos="144" pan="0" len="12" vol="100" />
          <note key="53" pos="156" pan="0" len="12" vol="100" />
          <note key="55" pos="168" pan="0" len="12" vol="100" />
          <note key="48" pos="180" pan="0" len="12" vol="100" />
          <note key="53" pos="192" pan="0" len="12" vol="100" />
          <note key="55" pos="204" pan="0" len="12" vol="100" />
          <note key="48" pos="216" pan="0" len="12" vol="100" />
          <note key="53" pos="228" pan="0" len="12" vol="100" />
          <note key="55" pos="240" pan="0" len="12" vol="100" />
          <note key="48" pos="252" pan="0" len="12" vol="100" />
          <note key="53" pos="264" pan="0" len="12" vol="100" />
          <note key="55" pos="276" pan="0" len="12" vol="100" />
          <note key="48" pos="288" pan="0" len="12" vol="100" />
          <note key="53" pos="300" pan="0" len="12" vol="100" />
          <note key="55" pos="312" pan="0" len="12" vol="100" />
          <note key="48" pos="324" pan="0" len="12" vol="100" />
          <note key="53" pos="336" pan="0" len="12" vol="100" />
          <note key="55" pos="348" pan="0" len="12" vol="100" />
          <note key="48" pos="360" pan="0" len="12" vol="100" />
          <note key="53" pos="372" pan="0" len="12" vol="100" />
          <note key="48" pos="384" pan="0" len="12" vol="100" />
          <note key="55" pos="396" pan="0" len="12" vol="100" />
          <note key="58" pos="408" pan="0" len="12" vol="100" />
          <note key="48" pos="420" pan="0" len="12" vol="100" />
          <note key="55" pos="432" pan="0" len="12" vol="100" />
          <note key="58" pos="444" pan="0" len="12" vol="100" />
          <note key="48" pos="456" pan="0" len="12" vol="100" />
          <note key="55" pos="468" pan="0" len="12" vol="100" />
          <note key="58" pos="480" pan="0" len="12" vol="100" />
          <note key="48" pos="492" pan="0" len="12" vol="100" />
          <note key="55" pos="504" pan="0" len="12" vol="100" />
          <note key="58" pos="516" pan="0" len="12" vol="100" />
          <note key="48" pos="528" pan="0" len="12" vol="100" />
          <note key="55" pos="540" pan="0" len="12" vol="100" />
          <note key="58" pos="552" pan="0" len="12" vol="100" />
          <note key="48" pos="564" pan="0" len="12" vol="100" />
          <note key="55" pos="576" pan="0" len="12" vol="100" />
          <note key="57" pos="588" pan="0" len="12" vol="100" />
          <note key="48" pos="600" pan="0" len="12" vol="100" />
          <note key="55" pos="612" pan="0" len="12" vol="100" />
          <note key="57" pos="624" pan="0" len="12" vol="100" />
          <note key="48" pos="636" pan="0" len="12" vol="100" />
          <note key="55" pos="648" pan="0" len="12" vol="100" />
          <note key="57" pos="660" pan="0" len="12" vol="100" />
          <note key="48" pos="672" pan="0" len="12" vol="100" />
          <note key="55" pos="684" pan="0" len="12" vol="100" />
          <note key="57" pos="696" pan="0" len="12" vol="100" />
          <note key="48" pos="708" pan="0" len="12" vol="100" />
          <note key="55" pos="720" pan="0" len="12" vol="100" />
          <note key="57" pos="732" pan="0" len="12" vol="100" />
          <note key="48" pos="744" pan="0" len="12" vol="100" />
          <note key="55" pos="756" pan="0" len="12" vol="100" />
          <note key="48" pos="768" pan="0" len="12" vol="100" />
          <note key="55" pos="780" pan="0" len="12" vol="100" />
          <note key="57" pos="792" pan="0" len="12" vol="100" />
          <note key="48" pos="804" pan="0" len="12" vol="100" />
          <note key="55" pos="816" pan="0" len="12" vol="100" />
          <note key="57" pos="828" pan="0" len="12" vol="100" />
          <note key="48" pos="840" pan="0" len="12" vol="100" />
          <note key="55" pos="852" pan="0" len="12" vol="100" />
          <note key="57" pos="864" pan="0" len="12" vol="100" />
          <note key="48" pos="876" pan="0" len="12" vol="100" />
          <note key="55" pos="888" pan="0" len="12" vol="100" />
          <note key="57" pos="900" pan="0" len="12" vol="100" />
          <note key="48" pos="912" pan="0" len="12" vol="100" />
          <note key="55" pos="924" pan="0" len="12" vol="100" />
          <note key="57" pos="936" pan="0" len="12" vol="100" />
          <note key="48" pos="948" pan="0" len="12" vol="100" />
          <note key="48" pos="960" pan="0" len="12" vol="100" />
          <note key="51" pos="972" pan="0" len="12" vol="100" />
          <note key="53" pos="984" pan="0" len="12" vol="100" />
          <note key="48" pos="996" pan="0" len="12" vol="100" />
          <note key="51" pos="1008" pan="0" len="12" vol="100" />
          <note key="53" pos="1020" pan="0" len="12" vol="100" />
          <note key="48" pos="1032" pan="0" len="12" vol="100" />
          <note key="51" pos="1044" pan="0" len="12" vol="100" />
          <note key="53" pos="1056" pan="0" len="12" vol="100" />
          <note key="48" pos="1068" pan="0" len="12" vol="100" />
          <note key="51" pos="1080" pan="0" len="12" vol="100" />
          <note key="53" pos="1092" pan="0" len="12" vol="100" />
          <note key="48" pos="1104" pan="0" len="12" vol="100" />
          <note key="51" pos="1116" pan="0" len="12" vol="100" />
          <note key="53" pos="1128" pan="0" len="12" vol="100" />
          <note key="48" pos="1140" pan="0" len="12" vol="100" />
          <note key="51" pos="1152" pan="0" len="12" vol="100" />
          <note key="53" pos="1164" pan="0" len="12" vol="100" />
          <note key="48" pos="1176" pan="0" len="12" vol="100" />
          <note key="51" pos="1188" pan="0" len="12" vol="100" />
          <note key="48" pos="1200" pan="0" len="12" vol="100" />
          <note key="55" pos="1212" pan="0" len="12" vol="100" />
          <note key="57" pos="1224" pan="0" len="12" vol="100" />
          <note key="48" pos="1236" pan="0" len="12" vol="100" />
          <note key="55" pos="1248" pan="0" len="12" vol="100" />
          <note key="57" pos="1260" pan="0" len="12" vol="100" />
          <note key="48" pos="1272" pan="0" len="12" vol="100" />
          <note key="55" pos="1284" pan="0" len="12" vol="100" />
          <note key="57" pos="1296" pan="0" len="12" vol="100" />
          <note key="48" pos="1308" pan="0" len="12" vol="100" />
          <note key="55" pos="1320" pan="0" len="12" vol="100" />
          <note key="57" pos="1332" pan="0" len="12" vol="100" />
          <note key="48" pos="1344" pan="0" len="12" vol="100" />
          <note key="55" pos="1356" pan="0" len="12" vol="100" />
          <note key="57" pos="1368" pan="0" len="12" vol="100" />
          <note key="48" pos="1380" pan="0" len="12" vol="100" />
          <note key="55" pos="1392" pan="0" len="12" vol="100" />
          <note key="57" pos="1404" pan="0" len="12" vol="100" />
          <note key="48" pos="1416" pan="0" len="12" vol="100" />
          <note key="55" pos="1428" pan="0" len="12" vol="100" />
          <note key="57" pos="1440" pan="0" len="12" vol="100" />
          <note key="48" pos="1452" pan="0" len="12" vol="100" />
          <note key="55" pos="1464" pan="0" len="12" vol="100" />
          <note key="57" pos="1476" pan="0" len="12" vol="100" />
          <note key="48" pos="1488" pan="0" len="12" vol="100" />
          <note key="55" pos="1500" pan="0" len="12" vol="100" />
          <note key="57" pos="1512" pan="0" len="12" vol="100" />
          <note key="48" pos="1524" pan="0" len="12" vol="100" />
        </pattern>
        <pattern pos="23808" muted="0" steps="16" name="" type="1">
          <note key="48" pos="0" pan="0" len="12" vol="100" />
          <note key="53" pos="12" pan="0" len="12" vol="100" />
          <note key="55" pos="24" pan="0" len="12" vol="100" />
          <note key="48" pos="36" pan="0" len="12" vol="100" />
          <note key="53" pos="48" pan="0" len="12" vol="100" />
          <note key="55" pos="60" pan="0" len="12" vol="100" />
          <note key="48" pos="72" pan="0" len="12" vol="100" />
          <note key="53" pos="84" pan="0" len="12" vol="100" />
          <note key="48" pos="108" pan="0" len="12" vol="100" />
          <note key="53" pos="120" pan="0" len="12" vol="100" />
          <note key="55" pos="132" pan="0" len="12" vol="100" />
          <note key="48" pos="144" pan="0" len="12" vol="100" />
          <note key="53" pos="156" pan="0" len="12" vol="100" />
          <note key="55" pos="168" pan="0" len="12" vol="100" />
          <note key="48" pos="180" pan="0" len="12" vol="100" />
          <note key="53" pos="192" pan="0" len="12" vol="100" />
          <note key="55" pos="204" pan="0" len="12" vol="100" />
          <note key="48" pos="216" pan="0" len="12" vol="100" />
          <note key="53" pos="228" pan="0" len="12" vol="100" />
          <note key="55" pos="240" pan="0" len="12" vol="100" />
          <note key="48" pos="252" pan="0" len="12" vol="100" />
          <note key="53" pos="264" pan="0" len="12" vol="100" />
          <note key="55" pos="276" pan="0" len="12" vol="100" />
          <note key="48" pos="288" pan="0" len="12" vol="100" />
          <note key="53" pos="300" pan="0" len="12" vol="100" />
          <note key="55" pos="312" pan="0" len="12" vol="100" />
          <note key="48" pos="324" pan="0" len="12" vol="100" />
          <note key="53" pos="336" pan="0" len="12" vol="100" />
          <note key="55" pos="348" pan="0" len="12" vol="100" />
          <note key="48" pos="360" pan="0" len="12" vol="100" />
          <note key="53" pos="372" pan="0" len="12" vol="100" />
          <note key="48" pos="384" pan="0" len="12" vol="100" />
          <note key="55" pos="396" pan="0" len="12" vol="100" />
          <note key="58" pos="408" pan="0" len="12" vol="100" />
          <note key="48" pos="420" pan="0" len="12" vol="100" />
          <note key="55" pos="432" pan="0" len="12" vol="100" />
          <note key="58" pos="444" pan="0" len="12" vol="100" />
          <note key="48" pos="456" pan="0" len="12" vol="100" />
          <note key="55" pos="468" pan="0" len="12" vol="100" />
          <note key="58" pos="480" pan="0" len="12" vol="100" />
          <note key="48" pos="492" pan="0" len="12" vol="100" />
          <note key="55" pos="504" pan="0" len="12" vol="100" />
          <note key="58" pos="516" pan="0" len="12" vol="100" />
          <note key="48" pos="528" pan="0" len="12" vol="100" />
          <note key="55" pos="540" pan="0" len="12" vol="100" />
          <note key="58" pos="552" pan="0" len="12" vol="100" />
          <note key="48" pos="564" pan="0" len="12" vol="100" />
          <note key="55" pos="576" pan="0" len="12" vol="100" />
          <note key="57" pos="588" pan="0" len="12" vol="100" />
          <note key="48" pos="600" pan="0" len="12" vol="100" />
          <note key="55" pos="612" pan="0" len="12" vol="100" />
          <note key="57" pos="624" pan="0" len="12" vol="100" />
          <note key="48" pos="636" pan="0" len="12" vol="100" />
          <note key="55" pos="648" pan="0" len="12" vol="100" />
          <note key="57" pos="660" pan="0" len="12" vol="100" />
          <note key="48" pos="672" pan="0" len="12" vol="100" />
          <note key="55" pos="684" pan="0" len="12" vol="100" />
          <note key="57" pos="696" pan="0" len="12" vol="100" />
          <note key="48" pos="708" pan="0" len="12" vol="100" />
          <note key="55" pos="720" pan="0" len="12" vol="100" />
          <note key="57" pos="732" pan="0" len="12" vol="100" />
          <note key="48" pos="744" pan="0" len="12" vol="100" />
          <note key="55" pos="756" pan="0" len="12" vol="100" />
          <note key="48" pos="768" pan="0" len="12" vol="100" />
          <note key="55" pos="780" pan="0" len="12" vol="100" />
          <note key="57" pos="792" pan="0" len="12" vol="100" />
          <note key="48" pos="804" pan="0" len="12" vol="100" />
          <note key="55" pos="816" pan="0" len="12" vol="100" />
          <note key="57" pos="828" pan="0" len="12" vol="100" />
          <note key="48" pos="840" pan="0" len="12" vol="100" />
          <note key="55" pos="852" pan="0" len="12" vol="100" />
          <note key="57" pos="864" pan="0" len="12" vol="100" />
          <note key="48" pos="876" pan="0" len="12" vol="100" />
          <note key="55" pos="888" pan="0" len="12" vol="100" />
          <note key="57" pos="900" pan="0" len="12" vol="100" />
          <note key="48" pos="912" pan="0" len="12" vol="100" />
          <note key="55" pos="924" pan="0" len="12" vol="100" />
          <note key="57" pos="936" pan="0" len="12" vol="100" />
          <note key="48" pos="948" pan="0" len="12" vol="100" />
          <note key="48" pos="960" pan="0" len="12" vol="100" />
          <note key="51" pos="972" pan="0" len="12" vol="100" />
          <note key="53" pos="984" pan="0" len="12" vol="100" />
          <note key="48" pos="996" pan="0" len="12" vol="100" />
          <note key="51" pos="1008" pan="0" len="12" vol="100" />
          <note key="53" pos="1020" pan="0" len="12" vol="100" />
          <note key="48" pos="1032" pan="0" len="12" vol="100" />
          <note key="51" pos="1044" pan="0" len="12" vol="100" />
          <note key="53" pos="1056" pan="0" len="12" vol="100" />
          <note key="48" pos="1068" pan="0" len="12" vol="100" />
          <note key="51" pos="1080" pan="0" len="12" vol="100" />
          <note key="53" pos="1092" pan="0" len="12" vol="100" />
          <note key="48" pos="1104" pan="0" len="12" vol="100" />
          <note key="51" pos="1116" pan="0" len="12" vol="100" />
          <note key="53" pos="1128" pan="0" len="12" vol="100" />
          <note key="48" pos="1140" pan="0" len="12" vol="100" />
          <note key="51" pos="1152" pan="0" len="12" vol="100" />
          <note key="53" pos="1164" pan="0" len="12" vol="100" />
          <note key="48" pos="1176" pan="0" len="12" vol="100" />
          <note key="51" pos="1188" pan="0" len="12" vol="100" />
          <note key="48" pos="1200" pan="0" len="12" vol="100" />
          <note key="55" pos="1212" pan="0" len="12" vol="100" />
          <note key="57" pos="1224" pan="0" len="12" vol="100" />
          <note key="48" pos="1236" pan="0" len="12" vol="100" />
          <note key="55" pos="1248" pan="0" len="12" vol="100" />
          <note key="57" pos="1260" pan="0" len="12" vol="100" />
          <note key="48" pos="1272" pan="0" len="12" vol="100" />
          <note key="55" pos="1284" pan="0" len="12" vol="100" />
          <note key="57" pos="1296" pan="0" len="12" vol="100" />
          <note key="48" pos="1308" pan="0" len="12" vol="100" />
          <note key="55" pos="1320" pan="0" len="12" vol="100" />
          <note key="57" pos="1332" pan="0" len="12" vol="100" />
          <note key="48" pos="1344" pan="0" len="12" vol="100" />
          <note key="55" pos="1356" pan="0" len="12" vol="100" />
          <note key="57" pos="1368" pan="0" len="12" vol="100" />
          <note key="48" pos="1380" pan="0" len="12" vol="100" />
          <note key="55" pos="1392" pan="0" len="12" vol="100" />
          <note key="57" pos="1404" pan="0" len="12" vol="100" />
          <note key="48" pos="1416" pan="0" len="12" vol="100" />
          <note key="55" pos="1428" pan="0" len="12" vol="100" />
          <note key="57" pos="1440" pan="0" len="12" vol="100" />
          <note key="48" pos="1452" pan="0" len="12" vol="100" />
          <note key="55" pos="1464" pan="0" len="12" vol="100" />
          <note key="57" pos="1476" pan="0" len="12" vol="100" />
          <note key="48" pos="1488" pan="0" len="12" vol="100" />
          <note key="55" pos="1500" pan="0" len="12" vol="100" />
          <note key="57" pos="1512" pan="0" len="12" vol="100" />
          <note key="48" pos="1524" pan="0" len="12" vol="100" />
        </pattern>
        <pattern pos="25344" muted="0" steps="16" name="" type="1">
          <note key="60" pos="0" pan="0" len="12" vol="34" />
          <note key="65" pos="12" pan="0" len="12" vol="36" />
          <note key="67" pos="24" pan="0" len="12" vol="39" />
          <note key="60" pos="36" pan="0" len="12" vol="41" />
          <note key="65" pos="48" pan="0" len="12" vol="42" />
          <note key="67" pos="60" pan="0" len="12" vol="45" />
          <note key="60" pos="72" pan="0" len="12" vol="47" />
          <note key="65" pos="84" pan="0" len="12" vol="48" />
          <note key="67" pos="96" pan="0" len="12" vol="50" />
          <note key="60" pos="108" pan="0" len="12" vol="53" />
          <note key="65" pos="120" pan="0" len="12" vol="55" />
          <note key="67" pos="132" pan="0" len="12" vol="56" />
          <note key="60" pos="144" pan="0" len="12" vol="59" />
          <note key="65" pos="156" pan="0" len="12" vol="61" />
          <note key="67" pos="168" pan="0" len="12" vol="62" />
          <note key="60" pos="180" pan="0" len="12" vol="66" />
          <note key="65" pos="192" pan="0" len="12" vol="67" />
          <note key="67" pos="204" pan="0" len="12" vol="69" />
          <note key="60" pos="216" pan="0" len="12" vol="72" />
          <note key="65" pos="228" pan="0" len="12" vol="73" />
          <note key="67" pos="240" pan="0" len="12" vol="75" />
          <note key="60" pos="252" pan="0" len="12" vol="78" />
          <note key="65" pos="264" pan="0" len="12" vol="80" />
          <note key="67" pos="276" pan="0" len="12" vol="81" />
          <note key="60" pos="288" pan="0" len="12" vol="83" />
          <note key="65" pos="300" pan="0" len="12" vol="86" />
          <note key="67" pos="312" pan="0" len="12" vol="88" />
          <note key="60" pos="324" pan="0" len="12" vol="89" />
          <note key="65" pos="336" pan="0" len="12" vol="92" />
          <note key="67" pos="348" pan="0" len="12" vol="94" />
          <note key="60" pos="360" pan="0" len="12" vol="95" />
          <note key="65" pos="372" pan="0" len="12" vol="98" />
          <note key="67" pos="384" pan="0" len="12" vol="100" />
          <note key="60" pos="396" pan="0" len="12" vol="98" />
          <note key="65" pos="408" pan="0" len="12" vol="95" />
          <note key="67" pos="420" pan="0" len="12" vol="94" />
          <note key="60" pos="432" pan="0" len="12" vol="92" />
          <note key="65" pos="444" pan="0" len="12" vol="89" />
          <note key="67" pos="456" pan="0" len="12" vol="88" />
          <note key="60" pos="468" pan="0" len="12" vol="86" />
          <note key="65" pos="480" pan="0" len="12" vol="84" />
          <note key="67" pos="492" pan="0" len="12" vol="81" />
          <note key="60" pos="504" pan="0" len="12" vol="80" />
          <note key="65" pos="516" pan="0" len="12" vol="78" />
          <note key="67" pos="528" pan="0" len="12" vol="75" />
          <note key="60" pos="540" pan="0" len="12" vol="73" />
          <note key="65" pos="552" pan="0" len="12" vol="72" />
          <note key="67" pos="564" pan="0" len="12" vol="69" />
          <note key="60" pos="576" pan="0" len="12" vol="67" />
          <note key="65" pos="588" pan="0" len="12" vol="66" />
          <note key="67" pos="600" pan="0" len="12" vol="62" />
          <note key="60" pos="612" pan="0" len="12" vol="61" />
          <note key="65" pos="624" pan="0" len="12" vol="59" />
          <note key="67" pos="636" pan="0" len="12" vol="56" />
          <note key="60" pos="648" pan="0" len="12" vol="55" />
          <note key="65" pos="660" pan="0" len="12" vol="53" />
          <note key="67" pos="672" pan="0" len="12" vol="52" />
          <note key="60" pos="684" pan="0" len="12" vol="48" />
          <note key="65" pos="696" pan="0" len="12" vol="47" />
          <note key="67" pos="708" pan="0" len="12" vol="45" />
          <note key="60" pos="720" pan="0" len="12" vol="42" />
          <note key="65" pos="732" pan="0" len="12" vol="41" />
          <note key="67" pos="744" pan="0" len="12" vol="39" />
          <note key="60" pos="756" pan="0" len="12" vol="36" />
          <note key="60" pos="768" pan="0" len="12" vol="34" />
          <note key="65" pos="780" pan="0" len="12" vol="36" />
          <note key="67" pos="792" pan="0" len="12" vol="39" />
          <note key="60" pos="804" pan="0" len="12" vol="41" />
          <note key="65" pos="816" pan="0" len="12" vol="42" />
          <note key="67" pos="828" pan="0" len="12" vol="45" />
          <note key="60" pos="840" pan="0" len="12" vol="47" />
          <note key="65" pos="852" pan="0" len="12" vol="48" />
          <note key="67" pos="864" pan="0" len="12" vol="50" />
          <note key="60" pos="876" pan="0" len="12" vol="53" />
          <note key="65" pos="888" pan="0" len="12" vol="55" />
          <note key="67" pos="900" pan="0" len="12" vol="56" />
          <note key="60" pos="912" pan="0" len="12" vol="59" />
          <note key="65" pos="924" pan="0" len="12" vol="61" />
          <note key="67" pos="936" pan="0" len="12" vol="62" />
          <note key="60" pos="948" pan="0" len="12" vol="66" />
          <note key="65" pos="960" pan="0" len="12" vol="67" />
          <note key="67" pos="972" pan="0" len="12" vol="69" />
          <note key="60" pos="984" pan="0" len="12" vol="72" />
          <note key="65" pos="996" pan="0" len="12" vol="73" />
          <note key="67" pos="1008" pan="0" len="12" vol="75" />
          <note key="60" pos="1020" pan="0" len="12" vol="78" />
          <note key="65" pos="1032" pan="0" len="12" vol="80" />
          <note key="67" pos="1044" pan="0" len="12" vol="81" />
          <note key="60" pos="1056" pan="0" len="12" vol="83" />
          <note key="65" pos="1068" pan="0" len="12" vol="86" />
          <note key="67" pos="1080" pan="0" len="12" vol="88" />
          <note key="60" pos="1092" pan="0" len="12" vol="89" />
          <note key="65" pos="1104" pan="0" len="12" vol="92" />
          <note key="67" pos="1116" pan="0" len="12" vol="94" />
          <note key="60" pos="1128" pan="0" len="12" vol="95" />
          <note key="65" pos="1140" pan="0" len="12" vol="98" />
          <note key="67" pos="1152" pan="0" len="12" vol="100" />
          <note key="60" pos="1164" pan="0" len="12" vol="98" />
          <note key="65" pos="1176" pan="0" len="12" vol="95" />
          <note key="67" pos="1188" pan="0" len="12" vol="94" />
          <note key="60" pos="1200" pan="0" len="12" vol="92" />
          <note key="65" pos="1212" pan="0" len="12" vol="89" />
          <note key="67" pos="1224" pan="0" len="12" vol="88" />
          <note key="60" pos="1236" pan="0" len="12" vol="86" />
          <note key="65" pos="1248" pan="0" len="12" vol="83" />
          <note key="67" pos="1260" pan="0" len="12" vol="81" />
          <note key="60" pos="1272" pan="0" len="12" vol="78" />
          <note key="65" pos="1284" pan="0" len="12" vol="77" />
          <note key="67" pos="1296" pan="0" len="12" vol="75" />
          <note key="60" pos="1308" pan="0" len="12" vol="72" />
          <note key="65" pos="1320" pan="0" len="12" vol="70" />
          <note key="67" pos="1332" pan="0" len="12" vol="69" />
          <note key="60" pos="1344" pan="0" len="12" vol="66" />
          <note key="65" pos="1356" pan="0" len="12" vol="64" />
          <note key="67" pos="1368" pan="0" len="12" vol="62" />
          <note key="60" pos="1380" pan="0" len="12" vol="59" />
          <note key="65" pos="1392" pan="0" len="12" vol="58" />
          <note key="67" pos="1404" pan="0" len="12" vol="56" />
          <note key="60" pos="1416" pan="0" len="12" vol="53" />
          <note key="65" pos="1428" pan="0" len="12" vol="52" />
          <note key="67" pos="1440" pan="0" len="12" vol="48" />
          <note key="60" pos="1452" pan="0" len="12" vol="47" />
          <note key="65" pos="1464" pan="0" len="12" vol="45" />
          <note key="67" pos="1476" pan="0" len="12" vol="42" />
          <note key="60" pos="1488" pan="0" len="12" vol="41" />
          <note key="65" pos="1500" pan="0" len="12" vol="39" />
          <note key="67" pos="1512" pan="0" len="12" vol="36" />
          <note key="60" pos="1524" pan="0" len="12" vol="34" />
        </pattern>
      </track>
      <track solo="0" name="3 (Ch1)" type="0" muted="0">
        <instrumenttrack usemasterpitch="1" pitch="0.0" basenote="57" pan="0" pitchrange="12" vol="30">
          <eldata />
          <instrument name="tripleoscillator" />
        </instrumenttrack>
        <pattern pos="141312" muted="0" steps="16" name="" type="1">
          <note key="36" pos="0" pan="0" len="1140" vol="50" />
        </pattern>
      </track>
      <track solo="0" name="3 (Ch2)" type="0" muted="0">
        <instrumenttrack usemasterpitch="1" pitch="0.0" basenote="57" pan="0" pitchrange="12" vol="30">
          <eldata />
          <instrument name="tripleoscillator" />
        </instrumenttrack>
        <pattern pos="139776" muted="0" steps="16" name="" type="1">
          <note key="36" pos="48" pan="0" len="192" vol="100" />
          <note key="41" pos="240" pan="0" len="192" vol="100" />
          <note key="39" pos="432" pan="0" len="192" vol="100" />
          <note key="41" pos="624" pan="0" len="144" vol="100" />
          <note key="43" pos="768" pan="0" len="768" vol="100" />
        </pattern>
        <pattern pos="3072" muted="0" steps="16" name="" type="1">
          <note key="41" pos="576" pan="0" len="192" vol="100" />
        </pattern>
        <pattern pos="6912" muted="0" steps="16" name="" type="1">
          <note key="48" pos="192" pan="0" len="384" vol="52" />
        </pattern>
      </track>
      <track solo="0" name="3 (Ch4)" type="0" muted="0">
        <instrumenttrack usemasterpitch="1" pitch="0.0" basenote="57" pan="0" pitchrange="12" vol="30">
          <eldata />
          <instrument name="tripleoscillator" />
        </instrumenttrack>
        <pattern pos="52608" muted="0" steps="16" name="" type="1">
          <note key="39" pos="0" pan="0" len="288" vol="100" />
          <note key="41" pos="288" pan="0" len="288" vol="100" />
          <note key="48" pos="576" pan="0" len="288" vol="100" />
          <note key="48" pos="864" pan="0" len="288" vol="100" />
        </pattern>
        <pattern pos="768" muted="0" steps="16" name="" type="1">
          <note key="48" pos="0" pan="0" len="768" vol="100" />
        </pattern>
        <pattern pos="1536" muted="0" steps="16" name="" type="1">
          <note key="48" pos="0" pan="0" len="768" vol="100" />
        </pattern>
        <pattern pos="2304" muted="0" steps="16" name="" type="1">
          <note key="48" pos="0" pan="0" len="768" vol="100" />
        </pattern>
        <pattern pos="3072" muted="0" steps="16" name="" type="1">
          <note key="48" pos="0" pan="0" len="576" vol="100" />
          <note key="53" pos="576" pan="0" len="192" vol="100" />
        </pattern>
        <pattern pos="3840" muted="0" steps="16" name="" type="1">
          <note key="48" pos="0" pan="0" len="384" vol="100" />
          <note key="41" pos="384" pan="0" len="192" vol="100" />
          <note key="46" pos="576" pan="0" len="192" vol="100" />
          <note key="48" pos="768" pan="0" len="384" vol="100" />
          <note key="41" pos="1152" pan="0" len="192" vol="100" />
          <note key="46" pos="1344" pan="0" len="192" vol="100" />
        </pattern>
        <pattern pos="5376" muted="0" steps="16" name="" type="1">
          <note key="50" pos="0" pan="0" len="192" vol="50" />
          <note key="47" pos="192" pan="0" len="192" vol="50" />
          <note key="48" pos="384" pan="0" len="192" vol="50" />
          <note key="43" pos="576" pan="0" len="192" vol="50" />
        </pattern>
        <pattern pos="6144" muted="0" steps="16" name="" type="1">
          <note key="50" pos="0" pan="0" len="192" vol="50" />
          <note key="47" pos="192" pan="0" len="192" vol="50" />
          <note key="48" pos="384" pan="0" len="192" vol="50" />
          <note key="43" pos="576" pan="0" len="192" vol="50" />
        </pattern>
        <pattern pos="8448" muted="0" steps="16" name="" type="1">
          <note key="46" pos="0" pan="0" len="24" vol="100" />
          <note key="48" pos="24" pan="0" len="288" vol="100" />
          <note key="46" pos="312" pan="0" len="72" vol="100" />
          <note key="43" pos="384" pan="0" len="288" vol="100" />
          <note key="46" pos="672" pan="0" len="96" vol="100" />
        </pattern>
        <pattern pos="9216" muted="0" steps="16" name="" type="1">
          <note key="46" pos="0" pan="0" len="24" vol="100" />
          <note key="48" pos="24" pan="0" len="288" vol="100" />
          <note key="46" pos="312" pan="0" len="72" vol="100" />
          <note key="43" pos="384" pan="0" len="288" vol="100" />
          <note key="46" pos="672" pan="0" len="96" vol="100" />
        </pattern>
        <pattern pos="9984" muted="0" steps="16" name="" type="1">
          <note key="46" pos="0" pan="0" len="312" vol="100" />
          <note key="43" pos="312" pan="0" len="72" vol="100" />
          <note key="48" pos="384" pan="0" len="312" vol="100" />
          <note key="45" pos="696" pan="0" len="72" vol="100" />
        </pattern>
        <pattern pos="10752" muted="0" steps="16" name="" type="1">
          <note key="46" pos="0" pan="0" len="312" vol="100" />
          <note key="55" pos="312" pan="0" len="72" vol="100" />
          <note key="48" pos="384" pan="0" len="192" vol="100" />
        </pattern>
        <pattern pos="11520" muted="0" steps="16" name="" type="1">
          <note key="48" pos="0" pan="0" len="384" vol="100" />
          <note key="43" pos="384" pan="0" len="384" vol="100" />
          <note key="48" pos="768" pan="0" len="384" vol="100" />
          <note key="43" pos="1152" pan="0" len="384" vol="100" />
        </pattern>
        <pattern pos="13056" muted="0" steps="16" name="" type="1">
          <note key="46" pos="0" pan="0" len="312" vol="100" />
          <note key="43" pos="312" pan="0" len="72" vol="100" />
          <note key="48" pos="384" pan="0" len="312" vol="100" />
          <note key="43" pos="696" pan="0" len="72" vol="100" />
          <note key="46" pos="768" pan="0" len="312" vol="100" />
          <note key="55" pos="1080" pan="0" len="72" vol="100" />
          <note key="48" pos="1152" pan="0" len="384" vol="100" />
        </pattern>
        <pattern pos="14592" muted="0" steps="16" name="" type="1">
          <note key="46" pos="0" pan="0" len="24" vol="100" />
          <note key="48" pos="24" pan="0" len="360" vol="100" />
          <note key="43" pos="384" pan="0" len="384" vol="100" />
          <note key="48" pos="768" pan="0" len="384" vol="100" />
          <note key="43" pos="1152" pan="0" len="384" vol="100" />
        </pattern>
        <pattern pos="16128" muted="0" steps="16" name="" type="1">
          <note key="46" pos="0" pan="0" len="312" vol="100" />
          <note key="43" pos="312" pan="0" len="72" vol="100" />
          <note key="48" pos="384" pan="0" len="312" vol="100" />
          <note key="45" pos="696" pan="0" len="72" vol="100" />
          <note key="46" pos="768" pan="0" len="312" vol="100" />
          <note key="55" pos="1080" pan="0" len="72" vol="100" />
          <note key="48" pos="1152" pan="0" len="192" vol="100" />
        </pattern>
        <pattern pos="33024" muted="0" steps="16" name="" type="1">
          <note key="36" pos="864" pan="0" len="288" vol="100" />
        </pattern>
        <pattern pos="35328" muted="0" steps="16" name="" type="1">
          <note key="41" pos="288" pan="0" len="288" vol="100" />
          <note key="32" pos="864" pan="0" len="192" vol="100" />
        </pattern>
        <pattern pos="44544" muted="0" steps="16" name="" type="1">
          <note key="46" pos="0" pan="0" len="288" vol="100" />
          <note key="48" pos="288" pan="0" len="288" vol="100" />
          <note key="46" pos="576" pan="0" len="288" vol="100" />
          <note key="48" pos="864" pan="0" len="288" vol="100" />
        </pattern>
        <pattern pos="45696" muted="0" steps="16" name="" type="1">
          <note key="39" pos="0" pan="0" len="288" vol="100" />
          <note key="41" pos="288" pan="0" len="288" vol="100" />
          <note key="48" pos="576" pan="0" len="288" vol="100" />
          <note key="48" pos="864" pan="0" len="288" vol="100" />
        </pattern>
        <pattern pos="46848" muted="0" steps="16" name="" type="1">
          <note key="39" pos="0" pan="0" len="288" vol="100" />
          <note key="41" pos="288" pan="0" len="288" vol="100" />
          <note key="48" pos="576" pan="0" len="288" vol="100" />
          <note key="48" pos="864" pan="0" len="288" vol="100" />
        </pattern>
        <pattern pos="50304" muted="0" steps="16" name="" type="1">
          <note key="46" pos="0" pan="0" len="288" vol="100" />
          <note key="48" pos="288" pan="0" len="288" vol="100" />
          <note key="46" pos="576" pan="0" len="288" vol="100" />
          <note key="48" pos="864" pan="0" len="288" vol="100" />
        </pattern>
        <pattern pos="51456" muted="0" steps="16" name="" type="1">
          <note key="39" pos="0" pan="0" len="288" vol="100" />
          <note key="41" pos="288" pan="0" len="288" vol="100" />
          <note key="48" pos="576" pan="0" len="288" vol="100" />
          <note key="48" pos="864" pan="0" len="288" vol="100" />
        </pattern>
      </track>
      <track solo="0" name="3 (Ch5)" type="0" muted="0">
        <instrumenttrack usemasterpitch="1" pitch="0.0" basenote="57" pan="0" pitchrange="12" vol="30">
          <eldata />
          <instrument name="tripleoscillator" />
        </instrumenttrack>
        <pattern pos="39936" muted="0" steps="16" name="" type="1">
          <note key="48" pos="0" pan="0" len="768" vol="100" />
        </pattern>
        <pattern pos="30720" muted="0" steps="16" name="" type="1">
          <note key="48" pos="0" pan="0" len="576" vol="100" />
          <note key="51" pos="576" pan="0" len="288" vol="100" />
          <note key="53" pos="864" pan="0" len="288" vol="100" />
        </pattern>
        <pattern pos="31872" muted="0" steps="16" name="" type="1">
          <note key="48" pos="0" pan="0" len="1152" vol="100" />
        </pattern>
        <pattern pos="33024" muted="0" steps="16" name="" type="1">
          <note key="48" pos="0" pan="0" len="864" vol="100" />
          <note key="48" pos="864" pan="0" len="240" vol="100" />
        </pattern>
        <pattern pos="34176" muted="0" steps="16" name="" type="1">
          <note key="51" pos="0" pan="0" len="288" vol="100" />
          <note key="39" pos="288" pan="0" len="288" vol="100" />
          <note key="51" pos="576" pan="0" len="288" vol="100" />
          <note key="39" pos="864" pan="0" len="288" vol="100" />
        </pattern>
        <pattern pos="35328" muted="0" steps="16" name="" type="1">
          <note key="51" pos="0" pan="0" len="288" vol="100" />
          <note key="53" pos="288" pan="0" len="288" vol="100" />
          <note key="54" pos="576" pan="0" len="288" vol="100" />
          <note key="44" pos="864" pan="0" len="288" vol="100" />
        </pattern>
        <pattern pos="36480" muted="0" steps="16" name="" type="1">
          <note key="48" pos="0" pan="0" len="288" vol="100" />
          <note key="36" pos="288" pan="0" len="288" vol="100" />
          <note key="48" pos="576" pan="0" len="288" vol="100" />
          <note key="36" pos="864" pan="0" len="288" vol="100" />
        </pattern>
        <pattern pos="37632" muted="0" steps="16" name="" type="1">
          <note key="48" pos="0" pan="0" len="288" vol="100" />
          <note key="36" pos="288" pan="0" len="288" vol="100" />
          <note key="41" pos="576" pan="0" len="480" vol="100" />
          <note key="43" pos="1056" pan="0" len="96" vol="100" />
        </pattern>
        <pattern pos="38784" muted="0" steps="16" name="" type="1">
          <note key="48" pos="0" pan="0" len="576" vol="100" />
          <note key="51" pos="576" pan="0" len="288" vol="100" />
          <note key="53" pos="864" pan="0" len="288" vol="100" />
        </pattern>
      </track>
      <track solo="0" name="3 (Ch7)" type="0" muted="0">
        <instrumenttrack usemasterpitch="1" pitch="0.0" basenote="57" pan="0" pitchrange="12" vol="30">
          <eldata />
          <instrument name="tripleoscillator" />
        </instrumenttrack>
        <pattern pos="83712" muted="0" steps="16" name="" type="1">
          <note key="84" pos="48" pan="0" len="24" vol="52" />
          <note key="84" pos="432" pan="0" len="24" vol="52" />
        </pattern>
        <pattern pos="82944" muted="0" steps="16" name="" type="1">
          <note key="72" pos="48" pan="0" len="24" vol="52" />
        </pattern>
      </track>
      <track solo="0" name="3 (Ch8)" type="0" muted="0">
        <instrumenttrack usemasterpitch="1" pitch="0.0" basenote="57" pan="0" pitchrange="12" vol="30">
          <eldata />
          <instrument name="tripleoscillator" />
        </instrumenttrack>
        <pattern pos="83712" muted="0" steps="16" name="" type="1">
          <note key="75" pos="48" pan="0" len="24" vol="52" />
          <note key="75" pos="432" pan="0" len="24" vol="52" />
        </pattern>
        <pattern pos="7680" muted="0" steps="16" name="" type="1">
          <note key="48" pos="192" pan="0" len="384" vol="52" />
        </pattern>
        <pattern pos="53760" muted="0" steps="16" name="" type="1">
          <note key="36" pos="0" pan="0" len="1536" vol="52" />
        </pattern>
        <pattern pos="55296" muted="0" steps="16" name="" type="1">
          <note key="36" pos="0" pan="0" len="1536" vol="34" />
        </pattern>
        <pattern pos="82944" muted="0" steps="16" name="" type="1">
          <note key="75" pos="48" pan="0" len="24" vol="52" />
        </pattern>
      </track>
      <track solo="0" name="3 (Ch9)" type="0" muted="0">
        <instrumenttrack usemasterpitch="1" pitch="0.0" basenote="57" pan="0" pitchrange="12" vol="30">
          <eldata />
          <instrument name="tripleoscillator" />
        </instrumenttrack>
        <pattern pos="83712" muted="0" steps="16" name="" type="1">
          <note key="79" pos="48" pan="0" len="24" vol="52" />
          <note key="79" pos="432" pan="0" len="24" vol="52" />
        </pattern>
        <pattern pos="82944" muted="0" steps="16" name="" type="1">
          <note key="79" pos="48" pan="0" len="24" vol="52" />
        </pattern>
      </track>
      <track solo="0" name="3 (Ch13)" type="0" muted="0">
        <instrumenttrack usemasterpitch="1" pitch="0.0" basenote="57" pan="0" pitchrange="12" vol="30">
          <eldata />
          <instrument name="tripleoscillator" />
        </instrumenttrack>
        <pattern pos="58368" muted="0" steps="16" name="" type="1">
          <note key="77" pos="1104" pan="0" len="12" vol="2" />
          <note key="79" pos="1116" pan="0" len="12" vol="11" />
          <note key="77" pos="1128" pan="0" len="12" vol="20" />
          <note key="79" pos="1140" pan="0" len="12" vol="30" />
          <note key="77" pos="1152" pan="0" len="12" vol="41" />
          <note key="79" pos="1164" pan="0" len="12" vol="50" />
          <note key="77" pos="1176" pan="0" len="12" vol="59" />
          <note key="79" pos="1188" pan="0" len="12" vol="69" />
          <note key="77" pos="1200" pan="0" len="12" vol="66" />
          <note key="79" pos="1212" pan="0" len="12" vol="64" />
          <note key="77" pos="1224" pan="0" len="12" vol="61" />
          <note key="79" pos="1236" pan="0" len="12" vol="59" />
          <note key="77" pos="1248" pan="0" len="12" vol="56" />
          <note key="79" pos="1260" pan="0" len="12" vol="55" />
          <note key="77" pos="1272" pan="0" len="12" vol="52" />
          <note key="79" pos="1284" pan="0" len="12" vol="50" />
          <note key="77" pos="1296" pan="0" len="12" vol="47" />
          <note key="79" pos="1308" pan="0" len="12" vol="45" />
          <note key="77" pos="1320" pan="0" len="12" vol="42" />
          <note key="79" pos="1332" pan="0" len="12" vol="41" />
          <note key="77" pos="1344" pan="0" len="12" vol="38" />
          <note key="79" pos="1356" pan="0" len="12" vol="36" />
          <note key="77" pos="1368" pan="0" len="12" vol="33" />
          <note key="79" pos="1380" pan="0" len="12" vol="30" />
          <note key="77" pos="1392" pan="0" len="12" vol="28" />
          <note key="79" pos="1404" pan="0" len="12" vol="25" />
          <note key="77" pos="1416" pan="0" len="12" vol="23" />
          <note key="79" pos="1428" pan="0" len="12" vol="20" />
          <note key="77" pos="1440" pan="0" len="12" vol="19" />
          <note key="79" pos="1452" pan="0" len="12" vol="16" />
          <note key="77" pos="1464" pan="0" len="12" vol="14" />
          <note key="79" pos="1476" pan="0" len="12" vol="11" />
          <note key="77" pos="1488" pan="0" len="12" vol="9" />
          <note key="79" pos="1500" pan="0" len="12" vol="6" />
          <note key="77" pos="1512" pan="0" len="12" vol="5" />
          <note key="79" pos="1524" pan="0" len="12" vol="2" />
        </pattern>
      </track>
      <track solo="0" name="4 (Ch1)" type="0" muted="0">
        <instrumenttrack usemasterpitch="1" pitch="0.0" basenote="57" pan="0" pitchrange="12" vol="30">
          <eldata />
          <instrument name="tripleoscillator" />
        </instrumenttrack>
        <pattern pos="235200" muted="0" steps="16" name="" type="1">
          <note key="79" pos="0" pan="0" len="24" vol="100" />
          <note key="77" pos="192" pan="0" len="24" vol="100" />
          <note key="75" pos="384" pan="0" len="24" vol="100" />
          <note key="72" pos="624" pan="0" len="24" vol="100" />
          <note key="77" pos="672" pan="0" len="24" vol="100" />
          <note key="79" pos="768" pan="0" len="24" vol="100" />
          <note key="77" pos="960" pan="0" len="24" vol="100" />
          <note key="75" pos="1152" pan="0" len="24" vol="100" />
          <note key="72" pos="1344" pan="0" len="24" vol="100" />
          <note key="74" pos="1440" pan="0" len="24" vol="100" />
          <note key="77" pos="1488" pan="0" len="24" vol="100" />
        </pattern>
        <pattern pos="216768" muted="0" steps="16" name="" type="1">
          <note key="79" pos="0" pan="0" len="24" vol="100" />
          <note key="77" pos="192" pan="0" len="24" vol="100" />
          <note key="75" pos="384" pan="0" len="24" vol="100" />
          <note key="72" pos="624" pan="0" len="24" vol="100" />
          <note key="77" pos="672" pan="0" len="24" vol="100" />
          <note key="79" pos="768" pan="0" len="24" vol="100" />
          <note key="77" pos="960" pan="0" len="24" vol="100" />
          <note key="75" pos="1152" pan="0" len="24" vol="100" />
          <note key="72" pos="1344" pan="0" len="24" vol="100" />
          <note key="74" pos="1440" pan="0" len="24" vol="100" />
        </pattern>
        <pattern pos="218304" muted="0" steps="16" name="" type="1">
          <note key="79" pos="0" pan="0" len="24" vol="100" />
          <note key="77" pos="192" pan="0" len="24" vol="100" />
          <note key="75" pos="384" pan="0" len="24" vol="100" />
          <note key="72" pos="624" pan="0" len="24" vol="100" />
          <note key="77" pos="672" pan="0" len="24" vol="100" />
          <note key="79" pos="768" pan="0" len="24" vol="100" />
          <note key="77" pos="960" pan="0" len="24" vol="100" />
          <note key="75" pos="1152" pan="0" len="24" vol="100" />
          <note key="72" pos="1344" pan="0" len="24" vol="100" />
          <note key="74" pos="1440" pan="0" len="24" vol="100" />
          <note key="77" pos="1488" pan="0" len="24" vol="100" />
        </pattern>
        <pattern pos="219840" muted="0" steps="16" name="" type="1">
          <note key="79" pos="0" pan="0" len="24" vol="100" />
          <note key="77" pos="192" pan="0" len="24" vol="100" />
          <note key="75" pos="384" pan="0" len="24" vol="100" />
          <note key="72" pos="624" pan="0" len="24" vol="100" />
          <note key="77" pos="672" pan="0" len="24" vol="100" />
          <note key="79" pos="768" pan="0" len="24" vol="100" />
          <note key="77" pos="960" pan="0" len="24" vol="100" />
          <note key="75" pos="1152" pan="0" len="24" vol="100" />
          <note key="72" pos="1344" pan="0" len="24" vol="100" />
          <note key="77" pos="1440" pan="0" len="24" vol="100" />
        </pattern>
        <pattern pos="221376" muted="0" steps="16" name="" type="1">
          <note key="72" pos="0" pan="0" len="24" vol="100" />
          <note key="74" pos="192" pan="0" len="24" vol="100" />
          <note key="75" pos="384" pan="0" len="24" vol="100" />
          <note key="77" pos="576" pan="0" len="24" vol="100" />
          <note key="65" pos="624" pan="0" len="24" vol="100" />
          <note key="77" pos="672" pan="0" len="24" vol="100" />
          <note key="72" pos="768" pan="0" len="24" vol="100" />
          <note key="74" pos="960" pan="0" len="24" vol="100" />
          <note key="75" pos="1152" pan="0" len="24" vol="100" />
          <note key="77" pos="1344" pan="0" len="96" vol="100" />
          <note key="65" pos="1440" pan="0" len="96" vol="100" />
        </pattern>
        <pattern pos="222912" muted="0" steps="16" name="" type="1">
          <note key="72" pos="0" pan="0" len="24" vol="100" />
          <note key="74" pos="192" pan="0" len="24" vol="100" />
          <note key="75" pos="384" pan="0" len="24" vol="100" />
          <note key="77" pos="576" pan="0" len="24" vol="100" />
          <note key="65" pos="624" pan="0" len="24" vol="100" />
          <note key="77" pos="672" pan="0" len="24" vol="100" />
          <note key="72" pos="768" pan="0" len="24" vol="100" />
          <note key="74" pos="960" pan="0" len="24" vol="100" />
          <note key="75" pos="1152" pan="0" len="24" vol="100" />
          <note key="77" pos="1344" pan="0" len="96" vol="100" />
          <note key="65" pos="1440" pan="0" len="96" vol="100" />
        </pattern>
        <pattern pos="224448" muted="0" steps="16" name="" type="1">
          <note key="79" pos="0" pan="0" len="24" vol="100" />
          <note key="77" pos="192" pan="0" len="24" vol="100" />
          <note key="75" pos="384" pan="0" len="24" vol="100" />
          <note key="72" pos="624" pan="0" len="24" vol="100" />
          <note key="77" pos="672" pan="0" len="24" vol="100" />
          <note key="79" pos="768" pan="0" len="24" vol="100" />
          <note key="77" pos="960" pan="0" len="24" vol="100" />
          <note key="75" pos="1152" pan="0" len="24" vol="100" />
          <note key="72" pos="1344" pan="0" len="24" vol="100" />
          <note key="74" pos="1440" pan="0" len="24" vol="100" />
          <note key="77" pos="1488" pan="0" len="24" vol="100" />
        </pattern>
        <pattern pos="225984" muted="0" steps="16" name="" type="1">
          <note key="79" pos="0" pan="0" len="24" vol="100" />
          <note key="77" pos="192" pan="0" len="24" vol="100" />
          <note key="75" pos="384" pan="0" len="24" vol="100" />
          <note key="72" pos="624" pan="0" len="24" vol="100" />
          <note key="77" pos="672" pan="0" len="24" vol="100" />
          <note key="79" pos="768" pan="0" len="24" vol="100" />
          <note key="77" pos="960" pan="0" len="24" vol="100" />
          <note key="75" pos="1152" pan="0" len="24" vol="100" />
          <note key="72" pos="1344" pan="0" len="24" vol="100" />
          <note key="74" pos="1440" pan="0" len="24" vol="100" />
          <note key="77" pos="1488" pan="0" len="24" vol="100" />
        </pattern>
        <pattern pos="227520" muted="0" steps="16" name="" type="1">
          <note key="72" pos="0" pan="0" len="24" vol="100" />
          <note key="74" pos="192" pan="0" len="24" vol="100" />
          <note key="75" pos="384" pan="0" len="24" vol="100" />
          <note key="77" pos="576" pan="0" len="24" vol="100" />
          <note key="65" pos="624" pan="0" len="24" vol="100" />
          <note key="77" pos="672" pan="0" len="24" vol="100" />
          <note key="72" pos="768" pan="0" len="24" vol="100" />
          <note key="74" pos="960" pan="0" len="24" vol="100" />
          <note key="75" pos="1152" pan="0" len="24" vol="100" />
          <note key="77" pos="1344" pan="0" len="96" vol="100" />
          <note key="65" pos="1440" pan="0" len="96" vol="100" />
        </pattern>
        <pattern pos="229056" muted="0" steps="16" name="" type="1">
          <note key="72" pos="0" pan="0" len="24" vol="100" />
          <note key="74" pos="192" pan="0" len="24" vol="100" />
          <note key="75" pos="384" pan="0" len="24" vol="100" />
          <note key="77" pos="576" pan="0" len="24" vol="100" />
          <note key="65" pos="624" pan="0" len="24" vol="100" />
          <note key="77" pos="672" pan="0" len="24" vol="100" />
          <note key="72" pos="768" pan="0" len="24" vol="100" />
          <note key="74" pos="960" pan="0" len="24" vol="100" />
          <note key="75" pos="1152" pan="0" len="24" vol="100" />
          <note key="74" pos="1344" pan="0" len="96" vol="100" />
          <note key="65" pos="1440" pan="0" len="96" vol="100" />
        </pattern>
        <pattern pos="230592" muted="0" steps="16" name="" type="1">
          <note key="79" pos="0" pan="0" len="24" vol="100" />
          <note key="77" pos="192" pan="0" len="24" vol="100" />
          <note key="75" pos="384" pan="0" len="24" vol="100" />
          <note key="77" pos="576" pan="0" len="36" vol="100" />
          <note key="72" pos="768" pan="0" len="24" vol="100" />
          <note key="74" pos="960" pan="0" len="24" vol="100" />
          <note key="75" pos="1152" pan="0" len="24" vol="100" />
          <note key="77" pos="1344" pan="0" len="24" vol="100" />
        </pattern>
        <pattern pos="232128" muted="0" steps="16" name="" type="1">
          <note key="79" pos="0" pan="0" len="24" vol="100" />
          <note key="77" pos="192" pan="0" len="24" vol="100" />
          <note key="75" pos="384" pan="0" len="24" vol="100" />
          <note key="77" pos="576" pan="0" len="36" vol="100" />
          <note key="72" pos="768" pan="0" len="24" vol="100" />
          <note key="74" pos="960" pan="0" len="24" vol="100" />
          <note key="67" pos="1152" pan="0" len="24" vol="100" />
          <note key="67" pos="1344" pan="0" len="24" vol="100" />
        </pattern>
        <pattern pos="233664" muted="0" steps="16" name="" type="1">
          <note key="79" pos="0" pan="0" len="24" vol="100" />
          <note key="77" pos="192" pan="0" len="24" vol="100" />
          <note key="75" pos="384" pan="0" len="24" vol="100" />
          <note key="72" pos="624" pan="0" len="24" vol="100" />
          <note key="77" pos="672" pan="0" len="24" vol="100" />
          <note key="79" pos="768" pan="0" len="24" vol="100" />
          <note key="77" pos="960" pan="0" len="24" vol="100" />
          <note key="75" pos="1152" pan="0" len="24" vol="100" />
          <note key="72" pos="1344" pan="0" len="24" vol="100" />
          <note key="74" pos="1440" pan="0" len="24" vol="100" />
          <note key="77" pos="1488" pan="0" len="24" vol="100" />
        </pattern>
      </track>
      <track solo="0" name="4 (Ch4)" type="0" muted="0">
        <instrumenttrack usemasterpitch="1" pitch="0.0" basenote="57" pan="0" pitchrange="12" vol="30">
          <eldata />
          <instrument name="tripleoscillator" />
        </instrumenttrack>
        <pattern pos="133632" muted="0" steps="16" name="" type="1">
          <note key="72" pos="48" pan="0" len="12" vol="100" />
          <note key="72" pos="120" pan="0" len="12" vol="100" />
          <note key="70" pos="168" pan="0" len="12" vol="100" />
          <note key="72" pos="192" pan="0" len="12" vol="100" />
          <note key="70" pos="240" pan="0" len="12" vol="100" />
          <note key="70" pos="312" pan="0" len="12" vol="100" />
          <note key="72" pos="336" pan="0" len="12" vol="100" />
          <note key="72" pos="432" pan="0" len="12" vol="100" />
          <note key="72" pos="504" pan="0" len="12" vol="100" />
          <note key="70" pos="552" pan="0" len="12" vol="100" />
          <note key="72" pos="576" pan="0" len="12" vol="100" />
          <note key="70" pos="624" pan="0" len="12" vol="100" />
          <note key="70" pos="696" pan="0" len="12" vol="100" />
          <note key="72" pos="720" pan="0" len="12" vol="100" />
          <note key="63" pos="816" pan="0" len="12" vol="100" />
          <note key="75" pos="888" pan="0" len="12" vol="100" />
          <note key="70" pos="936" pan="0" len="12" vol="100" />
          <note key="75" pos="960" pan="0" len="12" vol="100" />
          <note key="70" pos="1008" pan="0" len="12" vol="100" />
          <note key="73" pos="1080" pan="0" len="12" vol="100" />
          <note key="75" pos="1104" pan="0" len="12" vol="100" />
          <note key="70" pos="1200" pan="0" len="12" vol="100" />
          <note key="70" pos="1272" pan="0" len="12" vol="100" />
          <note key="65" pos="1320" pan="0" len="12" vol="100" />
          <note key="70" pos="1344" pan="0" len="12" vol="100" />
          <note key="65" pos="1392" pan="0" len="12" vol="100" />
          <note key="68" pos="1464" pan="0" len="12" vol="100" />
          <note key="70" pos="1488" pan="0" len="12" vol="100" />
        </pattern>
        <pattern pos="78336" muted="0" steps="16" name="" type="1">
          <note key="72" pos="24" pan="0" len="24" vol="100" />
          <note key="72" pos="96" pan="0" len="24" vol="100" />
          <note key="74" pos="240" pan="0" len="24" vol="100" />
          <note key="75" pos="312" pan="0" len="12" vol="100" />
          <note key="77" pos="360" pan="0" len="12" vol="100" />
          <note key="72" pos="408" pan="0" len="12" vol="100" />
        </pattern>
        <pattern pos="79104" muted="0" steps="16" name="" type="1">
          <note key="72" pos="24" pan="0" len="24" vol="100" />
          <note key="72" pos="96" pan="0" len="24" vol="100" />
          <note key="74" pos="240" pan="0" len="24" vol="100" />
          <note key="75" pos="312" pan="0" len="12" vol="100" />
          <note key="77" pos="360" pan="0" len="12" vol="100" />
          <note key="72" pos="408" pan="0" len="12" vol="100" />
        </pattern>
        <pattern pos="92160" muted="0" steps="16" name="" type="1">
          <note key="72" pos="0" pan="0" len="12" vol="100" />
          <note key="72" pos="72" pan="0" len="12" vol="100" />
          <note key="70" pos="144" pan="0" len="12" vol="100" />
          <note key="72" pos="192" pan="0" len="12" vol="100" />
          <note key="70" pos="672" pan="0" len="12" vol="100" />
          <note key="72" pos="768" pan="0" len="12" vol="100" />
          <note key="72" pos="840" pan="0" len="12" vol="100" />
          <note key="70" pos="912" pan="0" len="12" vol="100" />
          <note key="72" pos="960" pan="0" len="12" vol="100" />
          <note key="72" pos="1152" pan="0" len="12" vol="100" />
          <note key="72" pos="1224" pan="0" len="12" vol="100" />
          <note key="70" pos="1296" pan="0" len="12" vol="100" />
          <note key="72" pos="1344" pan="0" len="12" vol="100" />
        </pattern>
        <pattern pos="93696" muted="0" steps="16" name="" type="1">
          <note key="72" pos="48" pan="0" len="12" vol="100" />
          <note key="72" pos="120" pan="0" len="12" vol="100" />
          <note key="70" pos="168" pan="0" len="12" vol="100" />
          <note key="72" pos="192" pan="0" len="12" vol="100" />
          <note key="67" pos="240" pan="0" len="12" vol="100" />
          <note key="67" pos="312" pan="0" len="12" vol="100" />
          <note key="70" pos="336" pan="0" len="12" vol="100" />
          <note key="72" pos="432" pan="0" len="12" vol="100" />
          <note key="72" pos="504" pan="0" len="12" vol="100" />
          <note key="70" pos="552" pan="0" len="12" vol="100" />
          <note key="72" pos="576" pan="0" len="12" vol="100" />
          <note key="67" pos="624" pan="0" len="12" vol="100" />
          <note key="67" pos="696" pan="0" len="12" vol="100" />
          <note key="70" pos="720" pan="0" len="12" vol="100" />
          <note key="72" pos="816" pan="0" len="12" vol="100" />
          <note key="72" pos="888" pan="0" len="12" vol="100" />
          <note key="70" pos="936" pan="0" len="12" vol="100" />
          <note key="72" pos="960" pan="0" len="12" vol="100" />
          <note key="67" pos="1008" pan="0" len="12" vol="100" />
          <note key="67" pos="1080" pan="0" len="12" vol="100" />
          <note key="70" pos="1104" pan="0" len="12" vol="100" />
          <note key="72" pos="1200" pan="0" len="12" vol="100" />
          <note key="72" pos="1272" pan="0" len="12" vol="100" />
          <note key="70" pos="1320" pan="0" len="12" vol="100" />
          <note key="72" pos="1344" pan="0" len="12" vol="100" />
          <note key="67" pos="1392" pan="0" len="12" vol="100" />
          <note key="67" pos="1464" pan="0" len="12" vol="100" />
          <note key="70" pos="1488" pan="0" len="12" vol="100" />
        </pattern>
        <pattern pos="95232" muted="0" steps="16" name="" type="1">
          <note key="72" pos="48" pan="0" len="12" vol="100" />
          <note key="72" pos="120" pan="0" len="12" vol="100" />
          <note key="70" pos="168" pan="0" len="12" vol="100" />
          <note key="72" pos="192" pan="0" len="12" vol="100" />
          <note key="67" pos="240" pan="0" len="12" vol="100" />
          <note key="67" pos="312" pan="0" len="12" vol="100" />
          <note key="70" pos="336" pan="0" len="12" vol="100" />
          <note key="72" pos="432" pan="0" len="12" vol="100" />
          <note key="72" pos="504" pan="0" len="12" vol="100" />
          <note key="70" pos="552" pan="0" len="12" vol="100" />
          <note key="72" pos="576" pan="0" len="12" vol="100" />
          <note key="67" pos="624" pan="0" len="12" vol="100" />
          <note key="67" pos="696" pan="0" len="12" vol="100" />
          <note key="70" pos="720" pan="0" len="12" vol="100" />
          <note key="72" pos="816" pan="0" len="12" vol="100" />
          <note key="72" pos="888" pan="0" len="12" vol="100" />
          <note key="70" pos="936" pan="0" len="12" vol="100" />
          <note key="72" pos="960" pan="0" len="12" vol="100" />
          <note key="67" pos="1008" pan="0" len="12" vol="100" />
          <note key="67" pos="1080" pan="0" len="12" vol="100" />
          <note key="70" pos="1104" pan="0" len="12" vol="100" />
          <note key="72" pos="1200" pan="0" len="12" vol="100" />
          <note key="72" pos="1272" pan="0" len="12" vol="100" />
          <note key="70" pos="1320" pan="0" len="12" vol="100" />
          <note key="72" pos="1344" pan="0" len="12" vol="100" />
          <note key="67" pos="1392" pan="0" len="12" vol="100" />
          <note key="67" pos="1464" pan="0" len="12" vol="100" />
          <note key="70" pos="1488" pan="0" len="12" vol="100" />
        </pattern>
        <pattern pos="96768" muted="0" steps="16" name="" type="1">
          <note key="72" pos="48" pan="0" len="12" vol="100" />
          <note key="72" pos="120" pan="0" len="12" vol="100" />
          <note key="70" pos="168" pan="0" len="12" vol="100" />
          <note key="72" pos="192" pan="0" len="12" vol="100" />
          <note key="67" pos="240" pan="0" len="12" vol="100" />
          <note key="67" pos="312" pan="0" len="12" vol="100" />
          <note key="70" pos="336" pan="0" len="12" vol="100" />
          <note key="72" pos="432" pan="0" len="12" vol="100" />
          <note key="72" pos="504" pan="0" len="12" vol="100" />
          <note key="70" pos="552" pan="0" len="12" vol="100" />
          <note key="72" pos="576" pan="0" len="12" vol="100" />
          <note key="67" pos="624" pan="0" len="12" vol="100" />
          <note key="67" pos="696" pan="0" len="12" vol="100" />
          <note key="70" pos="720" pan="0" len="12" vol="100" />
          <note key="72" pos="816" pan="0" len="12" vol="100" />
          <note key="72" pos="888" pan="0" len="12" vol="100" />
          <note key="70" pos="936" pan="0" len="12" vol="100" />
          <note key="72" pos="960" pan="0" len="12" vol="100" />
          <note key="67" pos="1008" pan="0" len="12" vol="100" />
          <note key="67" pos="1080" pan="0" len="12" vol="100" />
          <note key="70" pos="1104" pan="0" len="12" vol="100" />
          <note key="72" pos="1200" pan="0" len="12" vol="100" />
          <note key="72" pos="1272" pan="0" len="12" vol="100" />
          <note key="70" pos="1320" pan="0" len="12" vol="100" />
          <note key="72" pos="1344" pan="0" len="12" vol="100" />
          <note key="67" pos="1392" pan="0" len="12" vol="100" />
          <note key="67" pos="1464" pan="0" len="12" vol="100" />
          <note key="70" pos="1488" pan="0" len="12" vol="100" />
        </pattern>
        <pattern pos="98304" muted="0" steps="16" name="" type="1">
          <note key="72" pos="48" pan="0" len="12" vol="100" />
          <note key="72" pos="120" pan="0" len="12" vol="100" />
          <note key="70" pos="168" pan="0" len="12" vol="100" />
          <note key="72" pos="192" pan="0" len="12" vol="100" />
          <note key="67" pos="240" pan="0" len="12" vol="100" />
          <note key="67" pos="312" pan="0" len="12" vol="100" />
          <note key="70" pos="336" pan="0" len="12" vol="100" />
          <note key="72" pos="432" pan="0" len="12" vol="100" />
          <note key="72" pos="504" pan="0" len="12" vol="100" />
          <note key="70" pos="552" pan="0" len="12" vol="100" />
          <note key="72" pos="576" pan="0" len="12" vol="100" />
          <note key="67" pos="624" pan="0" len="12" vol="100" />
          <note key="67" pos="696" pan="0" len="12" vol="100" />
          <note key="70" pos="720" pan="0" len="12" vol="100" />
          <note key="72" pos="816" pan="0" len="12" vol="100" />
          <note key="72" pos="888" pan="0" len="12" vol="100" />
          <note key="70" pos="936" pan="0" len="12" vol="100" />
          <note key="72" pos="960" pan="0" len="12" vol="100" />
          <note key="67" pos="1008" pan="0" len="12" vol="100" />
          <note key="67" pos="1080" pan="0" len="12" vol="100" />
          <note key="70" pos="1104" pan="0" len="12" vol="100" />
          <note key="72" pos="1200" pan="0" len="12" vol="100" />
          <note key="72" pos="1272" pan="0" len="12" vol="100" />
          <note key="70" pos="1320" pan="0" len="12" vol="100" />
          <note key="72" pos="1344" pan="0" len="12" vol="100" />
          <note key="67" pos="1392" pan="0" len="12" vol="100" />
          <note key="67" pos="1464" pan="0" len="12" vol="100" />
          <note key="70" pos="1488" pan="0" len="12" vol="100" />
        </pattern>
        <pattern pos="99840" muted="0" steps="16" name="" type="1">
          <note key="72" pos="48" pan="0" len="12" vol="100" />
          <note key="72" pos="120" pan="0" len="12" vol="100" />
          <note key="70" pos="168" pan="0" len="12" vol="100" />
          <note key="72" pos="192" pan="0" len="12" vol="100" />
          <note key="67" pos="240" pan="0" len="12" vol="100" />
          <note key="67" pos="312" pan="0" len="12" vol="100" />
          <note key="70" pos="336" pan="0" len="12" vol="100" />
          <note key="72" pos="432" pan="0" len="12" vol="100" />
          <note key="72" pos="504" pan="0" len="12" vol="100" />
          <note key="70" pos="552" pan="0" len="12" vol="100" />
          <note key="72" pos="576" pan="0" len="12" vol="100" />
          <note key="67" pos="624" pan="0" len="12" vol="100" />
          <note key="67" pos="696" pan="0" len="12" vol="100" />
          <note key="70" pos="720" pan="0" len="12" vol="100" />
          <note key="72" pos="816" pan="0" len="12" vol="100" />
          <note key="72" pos="888" pan="0" len="12" vol="100" />
          <note key="70" pos="936" pan="0" len="12" vol="100" />
          <note key="72" pos="960" pan="0" len="12" vol="100" />
          <note key="67" pos="1008" pan="0" len="12" vol="100" />
          <note key="67" pos="1080" pan="0" len="12" vol="100" />
          <note key="70" pos="1104" pan="0" len="12" vol="100" />
          <note key="72" pos="1200" pan="0" len="12" vol="100" />
          <note key="72" pos="1272" pan="0" len="12" vol="100" />
          <note key="70" pos="1320" pan="0" len="12" vol="100" />
          <note key="72" pos="1344" pan="0" len="12" vol="100" />
          <note key="67" pos="1392" pan="0" len="12" vol="100" />
          <note key="67" pos="1464" pan="0" len="12" vol="100" />
          <note key="70" pos="1488" pan="0" len="12" vol="100" />
        </pattern>
        <pattern pos="101376" muted="0" steps="16" name="" type="1">
          <note key="74" pos="48" pan="0" len="12" vol="100" />
          <note key="74" pos="120" pan="0" len="12" vol="100" />
          <note key="72" pos="168" pan="0" len="12" vol="100" />
          <note key="74" pos="192" pan="0" len="12" vol="100" />
          <note key="69" pos="240" pan="0" len="12" vol="100" />
          <note key="69" pos="312" pan="0" len="12" vol="100" />
          <note key="72" pos="336" pan="0" len="12" vol="100" />
          <note key="74" pos="432" pan="0" len="12" vol="100" />
          <note key="74" pos="504" pan="0" len="12" vol="100" />
          <note key="72" pos="552" pan="0" len="12" vol="100" />
          <note key="74" pos="576" pan="0" len="12" vol="100" />
          <note key="69" pos="624" pan="0" len="12" vol="100" />
          <note key="69" pos="696" pan="0" len="12" vol="100" />
          <note key="72" pos="720" pan="0" len="12" vol="100" />
          <note key="79" pos="816" pan="0" len="12" vol="100" />
          <note key="67" pos="888" pan="0" len="12" vol="100" />
          <note key="77" pos="936" pan="0" len="12" vol="100" />
          <note key="79" pos="960" pan="0" len="12" vol="100" />
          <note key="74" pos="1008" pan="0" len="12" vol="100" />
          <note key="74" pos="1080" pan="0" len="12" vol="100" />
          <note key="65" pos="1104" pan="0" len="12" vol="100" />
          <note key="79" pos="1200" pan="0" len="12" vol="100" />
          <note key="67" pos="1272" pan="0" len="12" vol="100" />
          <note key="77" pos="1320" pan="0" len="12" vol="100" />
          <note key="79" pos="1344" pan="0" len="12" vol="100" />
          <note key="74" pos="1392" pan="0" len="12" vol="100" />
          <note key="74" pos="1464" pan="0" len="12" vol="100" />
          <note key="65" pos="1488" pan="0" len="12" vol="100" />
        </pattern>
        <pattern pos="102912" muted="0" steps="16" name="" type="1">
          <note key="74" pos="48" pan="0" len="12" vol="100" />
          <note key="74" pos="120" pan="0" len="12" vol="100" />
          <note key="72" pos="168" pan="0" len="12" vol="100" />
          <note key="74" pos="192" pan="0" len="12" vol="100" />
          <note key="69" pos="240" pan="0" len="12" vol="100" />
          <note key="69" pos="312" pan="0" len="12" vol="100" />
          <note key="72" pos="336" pan="0" len="12" vol="100" />
          <note key="74" pos="432" pan="0" len="12" vol="100" />
          <note key="74" pos="504" pan="0" len="12" vol="100" />
          <note key="72" pos="552" pan="0" len="12" vol="100" />
          <note key="74" pos="576" pan="0" len="12" vol="100" />
          <note key="69" pos="624" pan="0" len="12" vol="100" />
          <note key="69" pos="696" pan="0" len="12" vol="100" />
          <note key="72" pos="720" pan="0" len="12" vol="100" />
          <note key="79" pos="816" pan="0" len="12" vol="100" />
          <note key="67" pos="888" pan="0" len="12" vol="100" />
          <note key="77" pos="936" pan="0" len="12" vol="100" />
          <note key="79" pos="960" pan="0" len="12" vol="100" />
          <note key="74" pos="1008" pan="0" len="12" vol="100" />
          <note key="74" pos="1080" pan="0" len="12" vol="100" />
          <note key="65" pos="1104" pan="0" len="12" vol="100" />
          <note key="79" pos="1200" pan="0" len="12" vol="100" />
          <note key="67" pos="1272" pan="0" len="12" vol="100" />
          <note key="77" pos="1320" pan="0" len="12" vol="100" />
          <note key="79" pos="1344" pan="0" len="12" vol="100" />
          <note key="74" pos="1392" pan="0" len="12" vol="100" />
          <note key="74" pos="1464" pan="0" len="12" vol="100" />
          <note key="65" pos="1488" pan="0" len="12" vol="100" />
        </pattern>
        <pattern pos="104448" muted="0" steps="16" name="" type="1">
          <note key="72" pos="840" pan="0" len="12" vol="11" />
          <note key="77" pos="864" pan="0" len="12" vol="14" />
          <note key="81" pos="912" pan="0" len="12" vol="20" />
          <note key="77" pos="936" pan="0" len="12" vol="23" />
          <note key="72" pos="1032" pan="0" len="12" vol="36" />
          <note key="77" pos="1056" pan="0" len="12" vol="39" />
          <note key="79" pos="1080" pan="0" len="12" vol="42" />
          <note key="81" pos="1104" pan="0" len="12" vol="45" />
          <note key="77" pos="1128" pan="0" len="12" vol="48" />
          <note key="72" pos="1224" pan="0" len="12" vol="61" />
          <note key="77" pos="1248" pan="0" len="12" vol="64" />
          <note key="79" pos="1272" pan="0" len="12" vol="67" />
          <note key="81" pos="1296" pan="0" len="12" vol="70" />
          <note key="77" pos="1320" pan="0" len="12" vol="73" />
          <note key="72" pos="1416" pan="0" len="12" vol="86" />
          <note key="77" pos="1440" pan="0" len="12" vol="89" />
          <note key="79" pos="1464" pan="0" len="12" vol="92" />
          <note key="81" pos="1488" pan="0" len="12" vol="95" />
          <note key="77" pos="1512" pan="0" len="12" vol="98" />
        </pattern>
        <pattern pos="105984" muted="0" steps="16" name="" type="1">
          <note key="72" pos="72" pan="0" len="12" vol="100" />
          <note key="77" pos="96" pan="0" len="12" vol="100" />
          <note key="79" pos="120" pan="0" len="12" vol="100" />
          <note key="81" pos="144" pan="0" len="12" vol="100" />
          <note key="74" pos="168" pan="0" len="12" vol="100" />
          <note key="72" pos="264" pan="0" len="12" vol="100" />
          <note key="77" pos="288" pan="0" len="12" vol="100" />
          <note key="79" pos="312" pan="0" len="12" vol="100" />
          <note key="81" pos="336" pan="0" len="12" vol="100" />
          <note key="74" pos="360" pan="0" len="12" vol="100" />
          <note key="72" pos="456" pan="0" len="12" vol="100" />
          <note key="77" pos="480" pan="0" len="12" vol="100" />
          <note key="79" pos="504" pan="0" len="12" vol="100" />
          <note key="81" pos="528" pan="0" len="12" vol="100" />
          <note key="74" pos="552" pan="0" len="12" vol="100" />
          <note key="72" pos="648" pan="0" len="12" vol="100" />
          <note key="77" pos="672" pan="0" len="12" vol="100" />
          <note key="79" pos="696" pan="0" len="12" vol="100" />
          <note key="81" pos="720" pan="0" len="12" vol="100" />
          <note key="74" pos="744" pan="0" len="12" vol="100" />
          <note key="72" pos="840" pan="0" len="12" vol="100" />
          <note key="77" pos="864" pan="0" len="12" vol="100" />
          <note key="79" pos="888" pan="0" len="12" vol="100" />
          <note key="81" pos="912" pan="0" len="12" vol="100" />
          <note key="74" pos="936" pan="0" len="12" vol="100" />
          <note key="72" pos="1032" pan="0" len="12" vol="100" />
          <note key="77" pos="1056" pan="0" len="12" vol="100" />
          <note key="79" pos="1080" pan="0" len="12" vol="100" />
          <note key="81" pos="1104" pan="0" len="12" vol="100" />
          <note key="74" pos="1128" pan="0" len="12" vol="100" />
          <note key="72" pos="1224" pan="0" len="12" vol="100" />
          <note key="77" pos="1248" pan="0" len="12" vol="100" />
          <note key="79" pos="1272" pan="0" len="12" vol="100" />
          <note key="81" pos="1296" pan="0" len="12" vol="100" />
          <note key="74" pos="1320" pan="0" len="12" vol="100" />
          <note key="72" pos="1416" pan="0" len="12" vol="100" />
          <note key="77" pos="1440" pan="0" len="12" vol="100" />
          <note key="79" pos="1464" pan="0" len="12" vol="100" />
          <note key="81" pos="1488" pan="0" len="12" vol="100" />
          <note key="74" pos="1512" pan="0" len="12" vol="100" />
        </pattern>
        <pattern pos="107520" muted="0" steps="16" name="" type="1">
          <note key="86" pos="48" pan="0" len="12" vol="100" />
          <note key="74" pos="72" pan="0" len="12" vol="100" />
          <note key="77" pos="120" pan="0" len="12" vol="100" />
          <note key="77" pos="168" pan="0" len="12" vol="100" />
          <note key="79" pos="192" pan="0" len="12" vol="100" />
          <note key="67" pos="240" pan="0" len="12" vol="100" />
          <note key="81" pos="312" pan="0" len="12" vol="100" />
          <note key="77" pos="336" pan="0" len="12" vol="100" />
          <note key="86" pos="432" pan="0" len="12" vol="100" />
          <note key="74" pos="456" pan="0" len="12" vol="100" />
          <note key="77" pos="504" pan="0" len="12" vol="100" />
          <note key="77" pos="552" pan="0" len="12" vol="100" />
          <note key="79" pos="576" pan="0" len="12" vol="100" />
          <note key="67" pos="624" pan="0" len="12" vol="100" />
          <note key="81" pos="696" pan="0" len="12" vol="100" />
          <note key="77" pos="720" pan="0" len="12" vol="100" />
          <note key="86" pos="816" pan="0" len="12" vol="100" />
          <note key="74" pos="840" pan="0" len="12" vol="100" />
          <note key="77" pos="888" pan="0" len="12" vol="100" />
          <note key="77" pos="936" pan="0" len="12" vol="100" />
          <note key="79" pos="960" pan="0" len="12" vol="100" />
          <note key="67" pos="1008" pan="0" len="12" vol="100" />
          <note key="81" pos="1080" pan="0" len="12" vol="100" />
          <note key="77" pos="1104" pan="0" len="12" vol="100" />
          <note key="86" pos="1200" pan="0" len="12" vol="100" />
          <note key="74" pos="1224" pan="0" len="12" vol="100" />
          <note key="77" pos="1272" pan="0" len="12" vol="100" />
          <note key="77" pos="1320" pan="0" len="12" vol="100" />
          <note key="79" pos="1344" pan="0" len="12" vol="100" />
          <note key="67" pos="1392" pan="0" len="12" vol="100" />
          <note key="81" pos="1464" pan="0" len="12" vol="100" />
          <note key="77" pos="1488" pan="0" len="12" vol="100" />
        </pattern>
        <pattern pos="109056" muted="0" steps="16" name="" type="1">
          <note key="86" pos="48" pan="0" len="12" vol="100" />
          <note key="74" pos="72" pan="0" len="12" vol="100" />
          <note key="77" pos="120" pan="0" len="12" vol="100" />
          <note key="77" pos="168" pan="0" len="12" vol="100" />
          <note key="79" pos="192" pan="0" len="12" vol="100" />
          <note key="67" pos="240" pan="0" len="12" vol="100" />
          <note key="81" pos="312" pan="0" len="12" vol="100" />
          <note key="77" pos="336" pan="0" len="12" vol="100" />
          <note key="86" pos="432" pan="0" len="12" vol="100" />
          <note key="74" pos="456" pan="0" len="12" vol="100" />
          <note key="77" pos="504" pan="0" len="12" vol="100" />
          <note key="77" pos="552" pan="0" len="12" vol="100" />
          <note key="79" pos="576" pan="0" len="12" vol="100" />
          <note key="67" pos="624" pan="0" len="12" vol="100" />
          <note key="81" pos="696" pan="0" len="12" vol="100" />
          <note key="77" pos="720" pan="0" len="12" vol="100" />
          <note key="86" pos="816" pan="0" len="12" vol="100" />
          <note key="74" pos="840" pan="0" len="12" vol="100" />
          <note key="77" pos="888" pan="0" len="12" vol="100" />
          <note key="77" pos="936" pan="0" len="12" vol="100" />
          <note key="79" pos="960" pan="0" len="12" vol="100" />
          <note key="67" pos="1008" pan="0" len="12" vol="100" />
          <note key="81" pos="1080" pan="0" len="12" vol="100" />
          <note key="77" pos="1104" pan="0" len="12" vol="100" />
          <note key="86" pos="1200" pan="0" len="12" vol="100" />
          <note key="74" pos="1224" pan="0" len="12" vol="100" />
          <note key="77" pos="1272" pan="0" len="12" vol="100" />
          <note key="77" pos="1320" pan="0" len="12" vol="100" />
          <note key="79" pos="1344" pan="0" len="12" vol="100" />
          <note key="67" pos="1392" pan="0" len="12" vol="100" />
          <note key="81" pos="1464" pan="0" len="12" vol="100" />
          <note key="77" pos="1488" pan="0" len="12" vol="100" />
        </pattern>
        <pattern pos="110592" muted="0" steps="16" name="" type="1">
          <note key="89" pos="48" pan="0" len="12" vol="100" />
          <note key="77" pos="72" pan="0" len="12" vol="100" />
          <note key="75" pos="120" pan="0" len="12" vol="100" />
          <note key="75" pos="168" pan="0" len="12" vol="100" />
          <note key="82" pos="192" pan="0" len="12" vol="100" />
          <note key="70" pos="240" pan="0" len="12" vol="100" />
          <note key="68" pos="312" pan="0" len="12" vol="100" />
          <note key="80" pos="336" pan="0" len="12" vol="100" />
          <note key="89" pos="432" pan="0" len="12" vol="100" />
          <note key="77" pos="456" pan="0" len="12" vol="100" />
          <note key="75" pos="504" pan="0" len="12" vol="100" />
          <note key="75" pos="552" pan="0" len="12" vol="100" />
          <note key="82" pos="576" pan="0" len="12" vol="100" />
          <note key="70" pos="624" pan="0" len="12" vol="100" />
          <note key="68" pos="696" pan="0" len="12" vol="100" />
          <note key="80" pos="720" pan="0" len="12" vol="100" />
          <note key="89" pos="816" pan="0" len="12" vol="100" />
          <note key="77" pos="840" pan="0" len="12" vol="100" />
          <note key="75" pos="888" pan="0" len="12" vol="100" />
          <note key="75" pos="936" pan="0" len="12" vol="100" />
          <note key="82" pos="960" pan="0" len="12" vol="100" />
          <note key="70" pos="1008" pan="0" len="12" vol="100" />
          <note key="68" pos="1080" pan="0" len="12" vol="100" />
          <note key="80" pos="1104" pan="0" len="12" vol="100" />
          <note key="89" pos="1200" pan="0" len="12" vol="100" />
          <note key="77" pos="1224" pan="0" len="12" vol="100" />
          <note key="75" pos="1272" pan="0" len="12" vol="100" />
          <note key="75" pos="1320" pan="0" len="12" vol="100" />
          <note key="82" pos="1344" pan="0" len="12" vol="100" />
          <note key="70" pos="1392" pan="0" len="12" vol="100" />
          <note key="68" pos="1464" pan="0" len="12" vol="100" />
          <note key="80" pos="1488" pan="0" len="12" vol="100" />
        </pattern>
        <pattern pos="112128" muted="0" steps="16" name="" type="1">
          <note key="89" pos="48" pan="0" len="12" vol="100" />
          <note key="77" pos="72" pan="0" len="12" vol="100" />
          <note key="75" pos="120" pan="0" len="12" vol="100" />
          <note key="75" pos="168" pan="0" len="12" vol="100" />
          <note key="82" pos="192" pan="0" len="12" vol="100" />
          <note key="70" pos="240" pan="0" len="12" vol="100" />
          <note key="68" pos="312" pan="0" len="12" vol="100" />
          <note key="80" pos="336" pan="0" len="12" vol="100" />
          <note key="89" pos="432" pan="0" len="12" vol="100" />
          <note key="77" pos="456" pan="0" len="12" vol="100" />
          <note key="75" pos="504" pan="0" len="12" vol="100" />
          <note key="75" pos="552" pan="0" len="12" vol="100" />
          <note key="82" pos="576" pan="0" len="12" vol="100" />
          <note key="70" pos="624" pan="0" len="12" vol="100" />
          <note key="68" pos="696" pan="0" len="12" vol="100" />
          <note key="80" pos="720" pan="0" len="12" vol="100" />
          <note key="89" pos="816" pan="0" len="12" vol="100" />
          <note key="77" pos="840" pan="0" len="12" vol="100" />
          <note key="75" pos="888" pan="0" len="12" vol="100" />
          <note key="75" pos="936" pan="0" len="12" vol="100" />
          <note key="82" pos="960" pan="0" len="12" vol="100" />
          <note key="70" pos="1008" pan="0" len="12" vol="100" />
          <note key="68" pos="1080" pan="0" len="12" vol="100" />
          <note key="80" pos="1104" pan="0" len="12" vol="100" />
          <note key="89" pos="1200" pan="0" len="12" vol="100" />
          <note key="77" pos="1224" pan="0" len="12" vol="100" />
          <note key="75" pos="1272" pan="0" len="12" vol="100" />
          <note key="75" pos="1320" pan="0" len="12" vol="100" />
          <note key="82" pos="1344" pan="0" len="12" vol="100" />
          <note key="70" pos="1392" pan="0" len="12" vol="100" />
          <note key="68" pos="1464" pan="0" len="12" vol="100" />
          <note key="80" pos="1488" pan="0" len="12" vol="100" />
        </pattern>
        <pattern pos="113664" muted="0" steps="16" name="" type="1">
          <note key="77" pos="24" pan="0" len="12" vol="100" />
          <note key="89" pos="96" pan="0" len="12" vol="100" />
          <note key="77" pos="144" pan="0" len="12" vol="100" />
        </pattern>
        <pattern pos="122880" muted="0" steps="16" name="" type="1">
          <note key="72" pos="48" pan="0" len="12" vol="100" />
          <note key="72" pos="120" pan="0" len="12" vol="100" />
          <note key="70" pos="168" pan="0" len="12" vol="100" />
          <note key="72" pos="192" pan="0" len="12" vol="100" />
          <note key="67" pos="240" pan="0" len="12" vol="100" />
          <note key="67" pos="312" pan="0" len="12" vol="100" />
          <note key="70" pos="336" pan="0" len="12" vol="100" />
          <note key="72" pos="432" pan="0" len="12" vol="100" />
          <note key="72" pos="504" pan="0" len="12" vol="100" />
          <note key="70" pos="552" pan="0" len="12" vol="100" />
          <note key="72" pos="576" pan="0" len="12" vol="100" />
          <note key="67" pos="624" pan="0" len="12" vol="100" />
          <note key="67" pos="696" pan="0" len="12" vol="100" />
          <note key="70" pos="720" pan="0" len="12" vol="100" />
          <note key="72" pos="816" pan="0" len="12" vol="100" />
          <note key="72" pos="888" pan="0" len="12" vol="100" />
          <note key="70" pos="936" pan="0" len="12" vol="100" />
          <note key="72" pos="960" pan="0" len="12" vol="100" />
          <note key="67" pos="1008" pan="0" len="12" vol="100" />
          <note key="67" pos="1080" pan="0" len="12" vol="100" />
          <note key="70" pos="1104" pan="0" len="12" vol="100" />
          <note key="72" pos="1200" pan="0" len="12" vol="100" />
          <note key="72" pos="1272" pan="0" len="12" vol="100" />
          <note key="70" pos="1320" pan="0" len="12" vol="100" />
          <note key="72" pos="1344" pan="0" len="12" vol="100" />
          <note key="67" pos="1392" pan="0" len="12" vol="100" />
          <note key="67" pos="1464" pan="0" len="12" vol="100" />
          <note key="70" pos="1488" pan="0" len="12" vol="100" />
        </pattern>
        <pattern pos="124416" muted="0" steps="16" name="" type="1">
          <note key="72" pos="48" pan="0" len="12" vol="100" />
          <note key="72" pos="120" pan="0" len="12" vol="100" />
          <note key="70" pos="168" pan="0" len="12" vol="100" />
          <note key="72" pos="192" pan="0" len="12" vol="100" />
          <note key="67" pos="240" pan="0" len="12" vol="100" />
          <note key="67" pos="312" pan="0" len="12" vol="100" />
          <note key="70" pos="336" pan="0" len="12" vol="100" />
          <note key="72" pos="432" pan="0" len="12" vol="100" />
          <note key="72" pos="504" pan="0" len="12" vol="100" />
          <note key="70" pos="552" pan="0" len="12" vol="100" />
          <note key="72" pos="576" pan="0" len="12" vol="100" />
          <note key="67" pos="624" pan="0" len="12" vol="100" />
          <note key="67" pos="696" pan="0" len="12" vol="100" />
          <note key="70" pos="720" pan="0" len="12" vol="100" />
          <note key="72" pos="816" pan="0" len="12" vol="100" />
          <note key="72" pos="888" pan="0" len="12" vol="100" />
          <note key="70" pos="936" pan="0" len="12" vol="100" />
          <note key="72" pos="960" pan="0" len="12" vol="100" />
          <note key="67" pos="1008" pan="0" len="12" vol="100" />
          <note key="67" pos="1080" pan="0" len="12" vol="100" />
          <note key="70" pos="1104" pan="0" len="12" vol="100" />
          <note key="72" pos="1200" pan="0" len="12" vol="100" />
          <note key="72" pos="1272" pan="0" len="12" vol="100" />
          <note key="70" pos="1320" pan="0" len="12" vol="100" />
          <note key="72" pos="1344" pan="0" len="12" vol="100" />
          <note key="67" pos="1392" pan="0" len="12" vol="100" />
          <note key="67" pos="1464" pan="0" len="12" vol="100" />
          <note key="70" pos="1488" pan="0" len="12" vol="100" />
        </pattern>
        <pattern pos="125952" muted="0" steps="16" name="" type="1">
          <note key="72" pos="48" pan="0" len="12" vol="100" />
          <note key="72" pos="120" pan="0" len="12" vol="100" />
          <note key="70" pos="168" pan="0" len="12" vol="100" />
          <note key="72" pos="192" pan="0" len="12" vol="100" />
          <note key="70" pos="240" pan="0" len="12" vol="100" />
          <note key="70" pos="312" pan="0" len="12" vol="100" />
          <note key="72" pos="336" pan="0" len="12" vol="100" />
          <note key="72" pos="432" pan="0" len="12" vol="100" />
          <note key="72" pos="504" pan="0" len="12" vol="100" />
          <note key="70" pos="552" pan="0" len="12" vol="100" />
          <note key="72" pos="576" pan="0" len="12" vol="100" />
          <note key="70" pos="624" pan="0" len="12" vol="100" />
          <note key="70" pos="696" pan="0" len="12" vol="100" />
          <note key="72" pos="720" pan="0" len="12" vol="100" />
          <note key="72" pos="816" pan="0" len="12" vol="100" />
          <note key="72" pos="888" pan="0" len="12" vol="100" />
          <note key="70" pos="936" pan="0" len="12" vol="100" />
          <note key="72" pos="960" pan="0" len="12" vol="100" />
          <note key="70" pos="1008" pan="0" len="12" vol="100" />
          <note key="70" pos="1080" pan="0" len="12" vol="100" />
          <note key="72" pos="1104" pan="0" len="12" vol="100" />
          <note key="72" pos="1200" pan="0" len="12" vol="100" />
          <note key="72" pos="1272" pan="0" len="12" vol="100" />
          <note key="70" pos="1320" pan="0" len="12" vol="100" />
          <note key="72" pos="1344" pan="0" len="12" vol="100" />
          <note key="70" pos="1392" pan="0" len="12" vol="100" />
          <note key="70" pos="1464" pan="0" len="12" vol="100" />
          <note key="72" pos="1488" pan="0" len="12" vol="100" />
        </pattern>
        <pattern pos="127488" muted="0" steps="16" name="" type="1">
          <note key="72" pos="48" pan="0" len="12" vol="100" />
          <note key="72" pos="120" pan="0" len="12" vol="100" />
          <note key="70" pos="168" pan="0" len="12" vol="100" />
          <note key="72" pos="192" pan="0" len="12" vol="100" />
          <note key="70" pos="240" pan="0" len="12" vol="100" />
          <note key="70" pos="312" pan="0" len="12" vol="100" />
          <note key="72" pos="336" pan="0" len="12" vol="100" />
          <note key="72" pos="432" pan="0" len="12" vol="100" />
          <note key="72" pos="504" pan="0" len="12" vol="100" />
          <note key="70" pos="552" pan="0" len="12" vol="100" />
          <note key="72" pos="576" pan="0" len="12" vol="100" />
          <note key="70" pos="624" pan="0" len="12" vol="100" />
          <note key="70" pos="696" pan="0" len="12" vol="100" />
          <note key="72" pos="720" pan="0" len="12" vol="100" />
          <note key="72" pos="816" pan="0" len="12" vol="100" />
          <note key="72" pos="888" pan="0" len="12" vol="100" />
          <note key="70" pos="936" pan="0" len="12" vol="100" />
          <note key="72" pos="960" pan="0" len="12" vol="100" />
          <note key="70" pos="1008" pan="0" len="12" vol="100" />
          <note key="70" pos="1080" pan="0" len="12" vol="100" />
          <note key="72" pos="1104" pan="0" len="12" vol="100" />
          <note key="72" pos="1200" pan="0" len="12" vol="100" />
          <note key="72" pos="1272" pan="0" len="12" vol="100" />
          <note key="70" pos="1320" pan="0" len="12" vol="100" />
          <note key="72" pos="1344" pan="0" len="12" vol="100" />
          <note key="70" pos="1392" pan="0" len="12" vol="100" />
          <note key="70" pos="1464" pan="0" len="12" vol="100" />
          <note key="72" pos="1488" pan="0" len="12" vol="100" />
        </pattern>
        <pattern pos="129024" muted="0" steps="16" name="" type="1">
          <note key="72" pos="48" pan="0" len="12" vol="100" />
          <note key="72" pos="120" pan="0" len="12" vol="100" />
          <note key="70" pos="168" pan="0" len="12" vol="100" />
          <note key="72" pos="192" pan="0" len="12" vol="100" />
          <note key="70" pos="240" pan="0" len="12" vol="100" />
          <note key="70" pos="312" pan="0" len="12" vol="100" />
          <note key="72" pos="336" pan="0" len="12" vol="100" />
          <note key="72" pos="432" pan="0" len="12" vol="100" />
          <note key="72" pos="504" pan="0" len="12" vol="100" />
          <note key="70" pos="552" pan="0" len="12" vol="100" />
          <note key="72" pos="576" pan="0" len="12" vol="100" />
          <note key="70" pos="624" pan="0" len="12" vol="100" />
          <note key="70" pos="696" pan="0" len="12" vol="100" />
          <note key="72" pos="720" pan="0" len="12" vol="100" />
          <note key="63" pos="816" pan="0" len="12" vol="100" />
          <note key="75" pos="888" pan="0" len="12" vol="100" />
          <note key="70" pos="936" pan="0" len="12" vol="100" />
          <note key="75" pos="960" pan="0" len="12" vol="100" />
          <note key="70" pos="1008" pan="0" len="12" vol="100" />
          <note key="73" pos="1080" pan="0" len="12" vol="100" />
          <note key="75" pos="1104" pan="0" len="12" vol="100" />
          <note key="70" pos="1200" pan="0" len="12" vol="100" />
          <note key="70" pos="1272" pan="0" len="12" vol="100" />
          <note key="65" pos="1320" pan="0" len="12" vol="100" />
          <note key="70" pos="1344" pan="0" len="12" vol="100" />
          <note key="65" pos="1392" pan="0" len="12" vol="100" />
          <note key="68" pos="1464" pan="0" len="12" vol="100" />
          <note key="70" pos="1488" pan="0" len="12" vol="100" />
        </pattern>
        <pattern pos="130560" muted="0" steps="16" name="" type="1">
          <note key="72" pos="48" pan="0" len="12" vol="100" />
          <note key="72" pos="120" pan="0" len="12" vol="100" />
          <note key="70" pos="168" pan="0" len="12" vol="100" />
          <note key="72" pos="192" pan="0" len="12" vol="100" />
          <note key="70" pos="240" pan="0" len="12" vol="100" />
          <note key="70" pos="312" pan="0" len="12" vol="100" />
          <note key="72" pos="336" pan="0" len="12" vol="100" />
          <note key="72" pos="432" pan="0" len="12" vol="100" />
          <note key="72" pos="504" pan="0" len="12" vol="100" />
          <note key="70" pos="552" pan="0" len="12" vol="100" />
          <note key="72" pos="576" pan="0" len="12" vol="100" />
          <note key="70" pos="624" pan="0" len="12" vol="100" />
          <note key="70" pos="696" pan="0" len="12" vol="100" />
          <note key="72" pos="720" pan="0" len="12" vol="100" />
          <note key="63" pos="816" pan="0" len="12" vol="100" />
          <note key="75" pos="888" pan="0" len="12" vol="100" />
          <note key="70" pos="936" pan="0" len="12" vol="100" />
          <note key="75" pos="960" pan="0" len="12" vol="100" />
          <note key="70" pos="1008" pan="0" len="12" vol="100" />
          <note key="73" pos="1080" pan="0" len="12" vol="100" />
          <note key="75" pos="1104" pan="0" len="12" vol="100" />
          <note key="70" pos="1200" pan="0" len="12" vol="100" />
          <note key="70" pos="1272" pan="0" len="12" vol="100" />
          <note key="65" pos="1320" pan="0" len="12" vol="100" />
          <note key="70" pos="1344" pan="0" len="12" vol="100" />
          <note key="65" pos="1392" pan="0" len="12" vol="100" />
          <note key="68" pos="1464" pan="0" len="12" vol="100" />
          <note key="70" pos="1488" pan="0" len="12" vol="100" />
        </pattern>
        <pattern pos="132096" muted="0" steps="16" name="" type="1">
          <note key="72" pos="48" pan="0" len="12" vol="100" />
          <note key="72" pos="120" pan="0" len="12" vol="100" />
          <note key="70" pos="168" pan="0" len="12" vol="100" />
          <note key="72" pos="192" pan="0" len="12" vol="100" />
          <note key="70" pos="240" pan="0" len="12" vol="100" />
          <note key="70" pos="312" pan="0" len="12" vol="100" />
          <note key="72" pos="336" pan="0" len="12" vol="100" />
          <note key="72" pos="432" pan="0" len="12" vol="100" />
          <note key="72" pos="504" pan="0" len="12" vol="100" />
          <note key="70" pos="552" pan="0" len="12" vol="100" />
          <note key="72" pos="576" pan="0" len="12" vol="100" />
          <note key="70" pos="624" pan="0" len="12" vol="100" />
          <note key="70" pos="696" pan="0" len="12" vol="100" />
          <note key="72" pos="720" pan="0" len="12" vol="100" />
          <note key="63" pos="816" pan="0" len="12" vol="100" />
          <note key="75" pos="888" pan="0" len="12" vol="100" />
          <note key="70" pos="936" pan="0" len="12" vol="100" />
          <note key="75" pos="960" pan="0" len="12" vol="100" />
          <note key="70" pos="1008" pan="0" len="12" vol="100" />
          <note key="73" pos="1080" pan="0" len="12" vol="100" />
          <note key="75" pos="1104" pan="0" len="12" vol="100" />
          <note key="70" pos="1200" pan="0" len="12" vol="100" />
          <note key="70" pos="1272" pan="0" len="12" vol="100" />
          <note key="65" pos="1320" pan="0" len="12" vol="100" />
          <note key="70" pos="1344" pan="0" len="12" vol="100" />
          <note key="65" pos="1392" pan="0" len="12" vol="100" />
          <note key="68" pos="1464" pan="0" len="12" vol="100" />
          <note key="70" pos="1488" pan="0" len="12" vol="100" />
        </pattern>
      </track>
      <track solo="0" name="4 (Ch5)" type="0" muted="0">
        <instrumenttrack usemasterpitch="1" pitch="0.0" basenote="57" pan="0" pitchrange="12" vol="30">
          <eldata />
          <instrument name="tripleoscillator" />
        </instrumenttrack>
        <pattern pos="267648" muted="0" steps="16" name="" type="1">
          <note key="68" pos="0" pan="0" len="12" vol="100" />
          <note key="68" pos="48" pan="0" len="12" vol="100" />
          <note key="78" pos="84" pan="0" len="12" vol="100" />
          <note key="73" pos="120" pan="0" len="12" vol="100" />
          <note key="75" pos="144" pan="0" len="12" vol="100" />
          <note key="78" pos="168" pan="0" len="12" vol="100" />
          <note key="68" pos="192" pan="0" len="12" vol="100" />
          <note key="68" pos="240" pan="0" len="12" vol="100" />
          <note key="78" pos="276" pan="0" len="12" vol="100" />
          <note key="73" pos="312" pan="0" len="12" vol="100" />
          <note key="75" pos="336" pan="0" len="12" vol="100" />
          <note key="78" pos="360" pan="0" len="12" vol="100" />
          <note key="70" pos="384" pan="0" len="12" vol="100" />
          <note key="70" pos="432" pan="0" len="12" vol="100" />
          <note key="68" pos="468" pan="0" len="12" vol="100" />
          <note key="75" pos="504" pan="0" len="12" vol="100" />
          <note key="65" pos="528" pan="0" len="12" vol="100" />
          <note key="68" pos="552" pan="0" len="12" vol="100" />
          <note key="70" pos="576" pan="0" len="12" vol="100" />
          <note key="70" pos="624" pan="0" len="12" vol="100" />
          <note key="68" pos="660" pan="0" len="12" vol="100" />
          <note key="75" pos="696" pan="0" len="12" vol="100" />
          <note key="65" pos="720" pan="0" len="12" vol="100" />
          <note key="68" pos="744" pan="0" len="12" vol="100" />
          <note key="68" pos="768" pan="0" len="12" vol="100" />
          <note key="68" pos="816" pan="0" len="12" vol="100" />
          <note key="78" pos="852" pan="0" len="12" vol="100" />
          <note key="73" pos="888" pan="0" len="12" vol="100" />
          <note key="75" pos="912" pan="0" len="12" vol="100" />
          <note key="78" pos="936" pan="0" len="12" vol="100" />
          <note key="68" pos="960" pan="0" len="12" vol="100" />
          <note key="68" pos="1008" pan="0" len="12" vol="100" />
          <note key="78" pos="1044" pan="0" len="12" vol="100" />
          <note key="73" pos="1080" pan="0" len="12" vol="100" />
          <note key="75" pos="1104" pan="0" len="12" vol="100" />
          <note key="78" pos="1128" pan="0" len="12" vol="100" />
          <note key="70" pos="1152" pan="0" len="12" vol="100" />
          <note key="70" pos="1200" pan="0" len="12" vol="100" />
          <note key="68" pos="1236" pan="0" len="12" vol="100" />
          <note key="75" pos="1272" pan="0" len="12" vol="100" />
          <note key="65" pos="1296" pan="0" len="12" vol="100" />
          <note key="68" pos="1320" pan="0" len="12" vol="100" />
          <note key="70" pos="1344" pan="0" len="12" vol="100" />
        </pattern>
        <pattern pos="59904" muted="0" steps="16" name="" type="1">
          <note key="79" pos="24" pan="0" len="12" vol="100" />
          <note key="72" pos="48" pan="0" len="12" vol="100" />
          <note key="67" pos="120" pan="0" len="12" vol="100" />
          <note key="70" pos="144" pan="0" len="12" vol="100" />
          <note key="72" pos="168" pan="0" len="12" vol="100" />
          <note key="72" pos="240" pan="0" len="12" vol="100" />
          <note key="67" pos="312" pan="0" len="12" vol="100" />
          <note key="70" pos="336" pan="0" len="12" vol="100" />
          <note key="72" pos="360" pan="0" len="12" vol="100" />
          <note key="79" pos="408" pan="0" len="12" vol="100" />
          <note key="72" pos="432" pan="0" len="12" vol="100" />
          <note key="67" pos="504" pan="0" len="12" vol="100" />
          <note key="70" pos="528" pan="0" len="12" vol="100" />
          <note key="72" pos="552" pan="0" len="12" vol="100" />
          <note key="72" pos="624" pan="0" len="12" vol="100" />
          <note key="67" pos="696" pan="0" len="12" vol="100" />
          <note key="70" pos="720" pan="0" len="12" vol="100" />
          <note key="72" pos="744" pan="0" len="12" vol="100" />
          <note key="70" pos="792" pan="0" len="12" vol="100" />
          <note key="63" pos="816" pan="0" len="12" vol="100" />
          <note key="67" pos="888" pan="0" len="12" vol="100" />
          <note key="70" pos="912" pan="0" len="12" vol="100" />
          <note key="75" pos="936" pan="0" len="12" vol="100" />
          <note key="75" pos="1008" pan="0" len="12" vol="100" />
          <note key="67" pos="1080" pan="0" len="12" vol="100" />
          <note key="70" pos="1104" pan="0" len="12" vol="100" />
          <note key="75" pos="1128" pan="0" len="12" vol="100" />
          <note key="69" pos="1176" pan="0" len="12" vol="100" />
          <note key="65" pos="1200" pan="0" len="12" vol="100" />
          <note key="72" pos="1272" pan="0" len="12" vol="100" />
          <note key="65" pos="1296" pan="0" len="12" vol="100" />
          <note key="72" pos="1320" pan="0" len="12" vol="100" />
          <note key="65" pos="1392" pan="0" len="12" vol="100" />
          <note key="63" pos="1440" pan="0" len="24" vol="100" />
          <note key="74" pos="1488" pan="0" len="24" vol="100" />
          <note key="70" pos="1512" pan="0" len="24" vol="100" />
        </pattern>
        <pattern pos="61440" muted="0" steps="16" name="" type="1">
          <note key="79" pos="24" pan="0" len="12" vol="100" />
          <note key="72" pos="48" pan="0" len="12" vol="100" />
          <note key="67" pos="120" pan="0" len="12" vol="100" />
          <note key="70" pos="144" pan="0" len="12" vol="100" />
          <note key="72" pos="168" pan="0" len="12" vol="100" />
          <note key="72" pos="240" pan="0" len="12" vol="100" />
          <note key="67" pos="312" pan="0" len="12" vol="100" />
          <note key="70" pos="336" pan="0" len="12" vol="100" />
          <note key="72" pos="360" pan="0" len="12" vol="100" />
          <note key="79" pos="408" pan="0" len="12" vol="100" />
          <note key="72" pos="432" pan="0" len="12" vol="100" />
          <note key="67" pos="504" pan="0" len="12" vol="100" />
          <note key="70" pos="528" pan="0" len="12" vol="100" />
          <note key="72" pos="552" pan="0" len="12" vol="100" />
          <note key="72" pos="624" pan="0" len="12" vol="100" />
          <note key="67" pos="696" pan="0" len="12" vol="100" />
          <note key="70" pos="720" pan="0" len="12" vol="100" />
          <note key="72" pos="744" pan="0" len="12" vol="100" />
          <note key="70" pos="792" pan="0" len="12" vol="100" />
          <note key="63" pos="816" pan="0" len="12" vol="100" />
          <note key="67" pos="888" pan="0" len="12" vol="100" />
          <note key="70" pos="912" pan="0" len="12" vol="100" />
          <note key="75" pos="936" pan="0" len="12" vol="100" />
          <note key="75" pos="1008" pan="0" len="12" vol="100" />
          <note key="67" pos="1080" pan="0" len="12" vol="100" />
          <note key="70" pos="1104" pan="0" len="12" vol="100" />
          <note key="75" pos="1128" pan="0" len="12" vol="100" />
          <note key="69" pos="1176" pan="0" len="12" vol="100" />
          <note key="65" pos="1200" pan="0" len="12" vol="100" />
          <note key="72" pos="1272" pan="0" len="12" vol="100" />
          <note key="65" pos="1296" pan="0" len="12" vol="100" />
          <note key="72" pos="1320" pan="0" len="12" vol="100" />
          <note key="65" pos="1392" pan="0" len="12" vol="100" />
          <note key="63" pos="1440" pan="0" len="24" vol="100" />
          <note key="74" pos="1488" pan="0" len="24" vol="100" />
          <note key="70" pos="1512" pan="0" len="24" vol="100" />
        </pattern>
        <pattern pos="62976" muted="0" steps="16" name="" type="1">
          <note key="79" pos="24" pan="0" len="12" vol="100" />
          <note key="72" pos="48" pan="0" len="12" vol="100" />
          <note key="67" pos="120" pan="0" len="12" vol="100" />
          <note key="70" pos="144" pan="0" len="12" vol="100" />
          <note key="72" pos="168" pan="0" len="12" vol="100" />
          <note key="72" pos="240" pan="0" len="12" vol="100" />
          <note key="67" pos="312" pan="0" len="12" vol="100" />
          <note key="70" pos="336" pan="0" len="12" vol="100" />
          <note key="72" pos="360" pan="0" len="12" vol="100" />
          <note key="79" pos="408" pan="0" len="12" vol="100" />
          <note key="72" pos="432" pan="0" len="12" vol="100" />
          <note key="67" pos="504" pan="0" len="12" vol="100" />
          <note key="70" pos="528" pan="0" len="12" vol="100" />
          <note key="72" pos="552" pan="0" len="12" vol="100" />
          <note key="72" pos="624" pan="0" len="12" vol="100" />
          <note key="67" pos="696" pan="0" len="12" vol="100" />
          <note key="70" pos="720" pan="0" len="12" vol="100" />
          <note key="72" pos="744" pan="0" len="12" vol="100" />
          <note key="70" pos="792" pan="0" len="12" vol="100" />
          <note key="63" pos="816" pan="0" len="12" vol="100" />
          <note key="67" pos="888" pan="0" len="12" vol="100" />
          <note key="70" pos="912" pan="0" len="12" vol="100" />
          <note key="75" pos="936" pan="0" len="12" vol="100" />
          <note key="75" pos="1008" pan="0" len="12" vol="100" />
          <note key="67" pos="1080" pan="0" len="12" vol="100" />
          <note key="70" pos="1104" pan="0" len="12" vol="100" />
          <note key="75" pos="1128" pan="0" len="12" vol="100" />
          <note key="69" pos="1176" pan="0" len="12" vol="100" />
          <note key="65" pos="1200" pan="0" len="12" vol="100" />
          <note key="72" pos="1272" pan="0" len="12" vol="100" />
          <note key="65" pos="1296" pan="0" len="12" vol="100" />
          <note key="72" pos="1320" pan="0" len="12" vol="100" />
          <note key="65" pos="1392" pan="0" len="12" vol="100" />
          <note key="63" pos="1440" pan="0" len="24" vol="100" />
          <note key="74" pos="1488" pan="0" len="24" vol="100" />
          <note key="70" pos="1512" pan="0" len="24" vol="100" />
        </pattern>
        <pattern pos="64512" muted="0" steps="16" name="" type="1">
          <note key="72" pos="24" pan="0" len="12" vol="100" />
          <note key="60" pos="48" pan="0" len="12" vol="100" />
          <note key="75" pos="120" pan="0" len="12" vol="100" />
          <note key="63" pos="144" pan="0" len="12" vol="100" />
          <note key="75" pos="168" pan="0" len="12" vol="100" />
          <note key="65" pos="240" pan="0" len="12" vol="100" />
          <note key="75" pos="312" pan="0" len="12" vol="100" />
          <note key="74" pos="336" pan="0" len="12" vol="100" />
          <note key="70" pos="360" pan="0" len="12" vol="100" />
          <note key="72" pos="408" pan="0" len="12" vol="100" />
          <note key="60" pos="432" pan="0" len="12" vol="100" />
          <note key="75" pos="504" pan="0" len="12" vol="100" />
          <note key="63" pos="528" pan="0" len="12" vol="100" />
          <note key="75" pos="552" pan="0" len="12" vol="100" />
          <note key="69" pos="624" pan="0" len="12" vol="100" />
          <note key="79" pos="696" pan="0" len="12" vol="100" />
          <note key="75" pos="720" pan="0" len="12" vol="100" />
          <note key="74" pos="744" pan="0" len="12" vol="100" />
          <note key="72" pos="792" pan="0" len="12" vol="100" />
          <note key="60" pos="816" pan="0" len="12" vol="100" />
          <note key="75" pos="888" pan="0" len="12" vol="100" />
          <note key="63" pos="912" pan="0" len="12" vol="100" />
          <note key="75" pos="936" pan="0" len="12" vol="100" />
          <note key="65" pos="1008" pan="0" len="12" vol="100" />
          <note key="65" pos="1080" pan="0" len="12" vol="100" />
          <note key="75" pos="1104" pan="0" len="12" vol="100" />
          <note key="74" pos="1128" pan="0" len="12" vol="100" />
          <note key="72" pos="1176" pan="0" len="12" vol="100" />
          <note key="60" pos="1200" pan="0" len="12" vol="100" />
          <note key="75" pos="1272" pan="0" len="12" vol="100" />
          <note key="63" pos="1296" pan="0" len="12" vol="100" />
          <note key="75" pos="1320" pan="0" len="12" vol="100" />
          <note key="65" pos="1392" pan="0" len="12" vol="100" />
          <note key="65" pos="1464" pan="0" len="12" vol="100" />
          <note key="75" pos="1488" pan="0" len="12" vol="100" />
          <note key="74" pos="1512" pan="0" len="12" vol="100" />
        </pattern>
        <pattern pos="66048" muted="0" steps="16" name="" type="1">
          <note key="72" pos="24" pan="0" len="12" vol="100" />
          <note key="60" pos="48" pan="0" len="12" vol="100" />
          <note key="75" pos="120" pan="0" len="12" vol="100" />
          <note key="63" pos="144" pan="0" len="12" vol="100" />
          <note key="75" pos="168" pan="0" len="12" vol="100" />
          <note key="65" pos="240" pan="0" len="12" vol="100" />
          <note key="75" pos="312" pan="0" len="12" vol="100" />
          <note key="74" pos="336" pan="0" len="12" vol="100" />
          <note key="70" pos="360" pan="0" len="12" vol="100" />
          <note key="72" pos="408" pan="0" len="12" vol="100" />
          <note key="60" pos="432" pan="0" len="12" vol="100" />
          <note key="75" pos="504" pan="0" len="12" vol="100" />
          <note key="63" pos="528" pan="0" len="12" vol="100" />
          <note key="75" pos="552" pan="0" len="12" vol="100" />
          <note key="69" pos="624" pan="0" len="12" vol="100" />
          <note key="79" pos="696" pan="0" len="12" vol="100" />
          <note key="75" pos="720" pan="0" len="12" vol="100" />
          <note key="74" pos="744" pan="0" len="12" vol="100" />
          <note key="72" pos="792" pan="0" len="12" vol="100" />
          <note key="60" pos="816" pan="0" len="12" vol="100" />
          <note key="75" pos="888" pan="0" len="12" vol="100" />
          <note key="63" pos="912" pan="0" len="12" vol="100" />
          <note key="75" pos="936" pan="0" len="12" vol="100" />
          <note key="65" pos="1008" pan="0" len="12" vol="100" />
          <note key="65" pos="1080" pan="0" len="12" vol="100" />
          <note key="75" pos="1104" pan="0" len="12" vol="100" />
          <note key="74" pos="1128" pan="0" len="12" vol="100" />
          <note key="72" pos="1176" pan="0" len="12" vol="100" />
          <note key="60" pos="1200" pan="0" len="12" vol="100" />
          <note key="75" pos="1272" pan="0" len="12" vol="100" />
          <note key="63" pos="1296" pan="0" len="12" vol="100" />
          <note key="75" pos="1320" pan="0" len="12" vol="100" />
          <note key="65" pos="1392" pan="0" len="12" vol="100" />
          <note key="65" pos="1464" pan="0" len="12" vol="100" />
          <note key="75" pos="1488" pan="0" len="12" vol="100" />
          <note key="74" pos="1512" pan="0" len="12" vol="100" />
        </pattern>
        <pattern pos="67584" muted="0" steps="16" name="" type="1">
          <note key="79" pos="24" pan="0" len="12" vol="100" />
          <note key="72" pos="48" pan="0" len="12" vol="100" />
          <note key="67" pos="120" pan="0" len="12" vol="100" />
          <note key="70" pos="144" pan="0" len="12" vol="100" />
          <note key="72" pos="168" pan="0" len="12" vol="100" />
          <note key="72" pos="240" pan="0" len="12" vol="100" />
          <note key="67" pos="312" pan="0" len="12" vol="100" />
          <note key="70" pos="336" pan="0" len="12" vol="100" />
          <note key="72" pos="360" pan="0" len="12" vol="100" />
          <note key="79" pos="408" pan="0" len="12" vol="100" />
          <note key="72" pos="432" pan="0" len="12" vol="100" />
          <note key="67" pos="504" pan="0" len="12" vol="100" />
          <note key="70" pos="528" pan="0" len="12" vol="100" />
          <note key="72" pos="552" pan="0" len="12" vol="100" />
          <note key="72" pos="624" pan="0" len="12" vol="100" />
          <note key="67" pos="696" pan="0" len="12" vol="100" />
          <note key="70" pos="720" pan="0" len="12" vol="100" />
          <note key="72" pos="744" pan="0" len="12" vol="100" />
          <note key="70" pos="792" pan="0" len="12" vol="100" />
          <note key="63" pos="816" pan="0" len="12" vol="100" />
          <note key="67" pos="888" pan="0" len="12" vol="100" />
          <note key="70" pos="912" pan="0" len="12" vol="100" />
          <note key="75" pos="936" pan="0" len="12" vol="100" />
          <note key="75" pos="1008" pan="0" len="12" vol="100" />
          <note key="67" pos="1080" pan="0" len="12" vol="100" />
          <note key="70" pos="1104" pan="0" len="12" vol="100" />
          <note key="75" pos="1128" pan="0" len="12" vol="100" />
          <note key="69" pos="1176" pan="0" len="12" vol="100" />
          <note key="65" pos="1200" pan="0" len="12" vol="100" />
          <note key="72" pos="1272" pan="0" len="12" vol="100" />
          <note key="65" pos="1296" pan="0" len="12" vol="100" />
          <note key="72" pos="1320" pan="0" len="12" vol="100" />
          <note key="65" pos="1392" pan="0" len="12" vol="100" />
          <note key="63" pos="1440" pan="0" len="24" vol="100" />
          <note key="74" pos="1488" pan="0" len="24" vol="100" />
          <note key="70" pos="1512" pan="0" len="24" vol="100" />
        </pattern>
        <pattern pos="69120" muted="0" steps="16" name="" type="1">
          <note key="79" pos="24" pan="0" len="12" vol="100" />
          <note key="72" pos="48" pan="0" len="12" vol="100" />
          <note key="67" pos="120" pan="0" len="12" vol="100" />
          <note key="70" pos="144" pan="0" len="12" vol="100" />
          <note key="72" pos="168" pan="0" len="12" vol="100" />
          <note key="72" pos="240" pan="0" len="12" vol="100" />
          <note key="67" pos="312" pan="0" len="12" vol="100" />
          <note key="70" pos="336" pan="0" len="12" vol="100" />
          <note key="72" pos="360" pan="0" len="12" vol="100" />
          <note key="79" pos="408" pan="0" len="12" vol="100" />
          <note key="72" pos="432" pan="0" len="12" vol="100" />
          <note key="67" pos="504" pan="0" len="12" vol="100" />
          <note key="70" pos="528" pan="0" len="12" vol="100" />
          <note key="72" pos="552" pan="0" len="12" vol="100" />
          <note key="72" pos="624" pan="0" len="12" vol="100" />
          <note key="67" pos="696" pan="0" len="12" vol="100" />
          <note key="70" pos="720" pan="0" len="12" vol="100" />
          <note key="72" pos="744" pan="0" len="12" vol="100" />
          <note key="70" pos="792" pan="0" len="12" vol="100" />
          <note key="63" pos="816" pan="0" len="12" vol="100" />
          <note key="67" pos="888" pan="0" len="12" vol="100" />
          <note key="70" pos="912" pan="0" len="12" vol="100" />
          <note key="75" pos="936" pan="0" len="12" vol="100" />
          <note key="75" pos="1008" pan="0" len="12" vol="100" />
          <note key="67" pos="1080" pan="0" len="12" vol="100" />
          <note key="70" pos="1104" pan="0" len="12" vol="100" />
          <note key="75" pos="1128" pan="0" len="12" vol="100" />
          <note key="69" pos="1176" pan="0" len="12" vol="100" />
          <note key="65" pos="1200" pan="0" len="12" vol="100" />
          <note key="72" pos="1272" pan="0" len="12" vol="100" />
          <note key="65" pos="1296" pan="0" len="12" vol="100" />
          <note key="72" pos="1320" pan="0" len="12" vol="100" />
          <note key="65" pos="1392" pan="0" len="12" vol="100" />
          <note key="63" pos="1440" pan="0" len="24" vol="100" />
          <note key="74" pos="1488" pan="0" len="24" vol="100" />
          <note key="70" pos="1512" pan="0" len="24" vol="100" />
        </pattern>
        <pattern pos="70656" muted="0" steps="16" name="" type="1">
          <note key="79" pos="24" pan="0" len="12" vol="100" />
          <note key="72" pos="48" pan="0" len="12" vol="100" />
          <note key="67" pos="120" pan="0" len="12" vol="100" />
          <note key="70" pos="144" pan="0" len="12" vol="100" />
          <note key="72" pos="168" pan="0" len="12" vol="100" />
          <note key="72" pos="240" pan="0" len="12" vol="100" />
          <note key="67" pos="312" pan="0" len="12" vol="100" />
          <note key="70" pos="336" pan="0" len="12" vol="100" />
          <note key="72" pos="360" pan="0" len="12" vol="100" />
          <note key="79" pos="408" pan="0" len="12" vol="100" />
          <note key="72" pos="432" pan="0" len="12" vol="100" />
          <note key="67" pos="504" pan="0" len="12" vol="100" />
          <note key="70" pos="528" pan="0" len="12" vol="100" />
          <note key="72" pos="552" pan="0" len="12" vol="100" />
          <note key="72" pos="624" pan="0" len="12" vol="100" />
          <note key="67" pos="696" pan="0" len="12" vol="100" />
          <note key="70" pos="720" pan="0" len="12" vol="100" />
          <note key="72" pos="744" pan="0" len="12" vol="100" />
          <note key="70" pos="792" pan="0" len="12" vol="100" />
          <note key="63" pos="816" pan="0" len="12" vol="100" />
          <note key="67" pos="888" pan="0" len="12" vol="100" />
          <note key="70" pos="912" pan="0" len="12" vol="100" />
          <note key="75" pos="936" pan="0" len="12" vol="100" />
          <note key="75" pos="1008" pan="0" len="12" vol="100" />
          <note key="67" pos="1080" pan="0" len="12" vol="100" />
          <note key="70" pos="1104" pan="0" len="12" vol="100" />
          <note key="75" pos="1128" pan="0" len="12" vol="100" />
          <note key="69" pos="1176" pan="0" len="12" vol="100" />
          <note key="65" pos="1200" pan="0" len="12" vol="100" />
          <note key="72" pos="1272" pan="0" len="12" vol="100" />
          <note key="65" pos="1296" pan="0" len="12" vol="100" />
          <note key="72" pos="1320" pan="0" len="12" vol="100" />
          <note key="65" pos="1392" pan="0" len="12" vol="100" />
          <note key="63" pos="1440" pan="0" len="24" vol="100" />
          <note key="74" pos="1488" pan="0" len="24" vol="100" />
          <note key="70" pos="1512" pan="0" len="24" vol="100" />
        </pattern>
        <pattern pos="72192" muted="0" steps="16" name="" type="1">
          <note key="79" pos="24" pan="0" len="12" vol="100" />
          <note key="72" pos="48" pan="0" len="12" vol="100" />
          <note key="67" pos="120" pan="0" len="12" vol="100" />
          <note key="70" pos="144" pan="0" len="12" vol="100" />
          <note key="72" pos="168" pan="0" len="12" vol="100" />
          <note key="72" pos="240" pan="0" len="12" vol="100" />
          <note key="67" pos="312" pan="0" len="12" vol="100" />
          <note key="70" pos="336" pan="0" len="12" vol="100" />
          <note key="72" pos="360" pan="0" len="12" vol="100" />
          <note key="79" pos="408" pan="0" len="12" vol="100" />
          <note key="72" pos="432" pan="0" len="12" vol="100" />
          <note key="67" pos="504" pan="0" len="12" vol="100" />
          <note key="70" pos="528" pan="0" len="12" vol="100" />
          <note key="72" pos="552" pan="0" len="12" vol="100" />
          <note key="72" pos="624" pan="0" len="12" vol="100" />
          <note key="67" pos="696" pan="0" len="12" vol="100" />
          <note key="70" pos="720" pan="0" len="12" vol="100" />
          <note key="72" pos="744" pan="0" len="12" vol="100" />
          <note key="70" pos="792" pan="0" len="12" vol="100" />
          <note key="63" pos="816" pan="0" len="12" vol="100" />
          <note key="67" pos="888" pan="0" len="12" vol="100" />
          <note key="70" pos="912" pan="0" len="12" vol="100" />
          <note key="75" pos="936" pan="0" len="12" vol="100" />
          <note key="75" pos="1008" pan="0" len="12" vol="100" />
          <note key="67" pos="1080" pan="0" len="12" vol="100" />
          <note key="70" pos="1104" pan="0" len="12" vol="100" />
          <note key="75" pos="1128" pan="0" len="12" vol="100" />
          <note key="69" pos="1176" pan="0" len="12" vol="100" />
          <note key="65" pos="1200" pan="0" len="12" vol="100" />
          <note key="72" pos="1272" pan="0" len="12" vol="100" />
          <note key="65" pos="1296" pan="0" len="12" vol="100" />
          <note key="72" pos="1320" pan="0" len="12" vol="100" />
          <note key="65" pos="1392" pan="0" len="12" vol="100" />
          <note key="63" pos="1440" pan="0" len="24" vol="100" />
          <note key="74" pos="1488" pan="0" len="24" vol="100" />
          <note key="70" pos="1512" pan="0" len="24" vol="100" />
        </pattern>
        <pattern pos="73728" muted="0" steps="16" name="" type="1">
          <note key="72" pos="24" pan="0" len="12" vol="100" />
          <note key="60" pos="48" pan="0" len="12" vol="100" />
          <note key="75" pos="120" pan="0" len="12" vol="100" />
          <note key="63" pos="144" pan="0" len="12" vol="100" />
          <note key="75" pos="168" pan="0" len="12" vol="100" />
          <note key="65" pos="240" pan="0" len="12" vol="100" />
          <note key="75" pos="312" pan="0" len="12" vol="100" />
          <note key="74" pos="336" pan="0" len="12" vol="100" />
          <note key="70" pos="360" pan="0" len="12" vol="100" />
          <note key="72" pos="408" pan="0" len="12" vol="100" />
          <note key="60" pos="432" pan="0" len="12" vol="100" />
          <note key="75" pos="504" pan="0" len="12" vol="100" />
          <note key="63" pos="528" pan="0" len="12" vol="100" />
          <note key="75" pos="552" pan="0" len="12" vol="100" />
          <note key="69" pos="624" pan="0" len="12" vol="100" />
          <note key="79" pos="696" pan="0" len="12" vol="100" />
          <note key="75" pos="720" pan="0" len="12" vol="100" />
          <note key="74" pos="744" pan="0" len="12" vol="100" />
          <note key="72" pos="792" pan="0" len="12" vol="100" />
          <note key="60" pos="816" pan="0" len="12" vol="100" />
          <note key="75" pos="888" pan="0" len="12" vol="100" />
          <note key="63" pos="912" pan="0" len="12" vol="100" />
          <note key="75" pos="936" pan="0" len="12" vol="100" />
          <note key="65" pos="1008" pan="0" len="12" vol="100" />
          <note key="65" pos="1080" pan="0" len="12" vol="100" />
          <note key="75" pos="1104" pan="0" len="12" vol="100" />
          <note key="74" pos="1128" pan="0" len="12" vol="100" />
          <note key="72" pos="1176" pan="0" len="12" vol="100" />
          <note key="60" pos="1200" pan="0" len="12" vol="100" />
          <note key="75" pos="1272" pan="0" len="12" vol="100" />
          <note key="63" pos="1296" pan="0" len="12" vol="100" />
          <note key="75" pos="1320" pan="0" len="12" vol="100" />
          <note key="65" pos="1392" pan="0" len="12" vol="100" />
          <note key="65" pos="1464" pan="0" len="12" vol="100" />
          <note key="75" pos="1488" pan="0" len="12" vol="100" />
          <note key="74" pos="1512" pan="0" len="12" vol="100" />
        </pattern>
        <pattern pos="75264" muted="0" steps="16" name="" type="1">
          <note key="72" pos="24" pan="0" len="12" vol="100" />
          <note key="60" pos="48" pan="0" len="12" vol="100" />
          <note key="75" pos="120" pan="0" len="12" vol="100" />
          <note key="63" pos="144" pan="0" len="12" vol="100" />
          <note key="75" pos="168" pan="0" len="12" vol="100" />
          <note key="65" pos="240" pan="0" len="12" vol="100" />
          <note key="75" pos="312" pan="0" len="12" vol="100" />
          <note key="74" pos="336" pan="0" len="12" vol="100" />
          <note key="70" pos="360" pan="0" len="12" vol="100" />
          <note key="72" pos="408" pan="0" len="12" vol="100" />
          <note key="60" pos="432" pan="0" len="12" vol="100" />
          <note key="75" pos="504" pan="0" len="12" vol="100" />
          <note key="63" pos="528" pan="0" len="12" vol="100" />
          <note key="75" pos="552" pan="0" len="12" vol="100" />
          <note key="69" pos="624" pan="0" len="12" vol="100" />
          <note key="79" pos="696" pan="0" len="12" vol="100" />
          <note key="75" pos="720" pan="0" len="12" vol="100" />
          <note key="74" pos="744" pan="0" len="12" vol="100" />
          <note key="72" pos="792" pan="0" len="12" vol="100" />
          <note key="60" pos="816" pan="0" len="12" vol="100" />
          <note key="75" pos="888" pan="0" len="12" vol="100" />
          <note key="63" pos="912" pan="0" len="12" vol="100" />
          <note key="75" pos="936" pan="0" len="12" vol="100" />
          <note key="65" pos="1008" pan="0" len="12" vol="100" />
          <note key="65" pos="1080" pan="0" len="12" vol="100" />
          <note key="75" pos="1104" pan="0" len="12" vol="100" />
          <note key="74" pos="1128" pan="0" len="12" vol="100" />
          <note key="72" pos="1176" pan="0" len="12" vol="100" />
          <note key="60" pos="1200" pan="0" len="12" vol="100" />
          <note key="75" pos="1272" pan="0" len="12" vol="100" />
          <note key="63" pos="1296" pan="0" len="12" vol="100" />
          <note key="75" pos="1320" pan="0" len="12" vol="100" />
          <note key="65" pos="1392" pan="0" len="12" vol="100" />
          <note key="65" pos="1464" pan="0" len="12" vol="100" />
          <note key="75" pos="1488" pan="0" len="12" vol="100" />
          <note key="74" pos="1512" pan="0" len="12" vol="100" />
        </pattern>
        <pattern pos="260736" muted="0" steps="16" name="" type="1">
          <note key="65" pos="0" pan="0" len="12" vol="100" />
          <note key="77" pos="48" pan="0" len="12" vol="100" />
          <note key="75" pos="84" pan="0" len="12" vol="100" />
          <note key="70" pos="120" pan="0" len="12" vol="100" />
          <note key="72" pos="144" pan="0" len="12" vol="100" />
          <note key="75" pos="168" pan="0" len="12" vol="100" />
          <note key="65" pos="192" pan="0" len="12" vol="100" />
          <note key="77" pos="240" pan="0" len="12" vol="100" />
          <note key="75" pos="276" pan="0" len="12" vol="100" />
          <note key="70" pos="312" pan="0" len="12" vol="100" />
          <note key="72" pos="336" pan="0" len="12" vol="100" />
          <note key="75" pos="360" pan="0" len="12" vol="100" />
          <note key="63" pos="384" pan="0" len="12" vol="100" />
          <note key="77" pos="432" pan="0" len="12" vol="100" />
          <note key="75" pos="468" pan="0" len="12" vol="100" />
          <note key="70" pos="504" pan="0" len="12" vol="100" />
          <note key="72" pos="528" pan="0" len="12" vol="100" />
          <note key="75" pos="552" pan="0" len="12" vol="100" />
          <note key="63" pos="576" pan="0" len="12" vol="100" />
          <note key="77" pos="624" pan="0" len="12" vol="100" />
          <note key="75" pos="660" pan="0" len="12" vol="100" />
          <note key="70" pos="696" pan="0" len="12" vol="100" />
          <note key="72" pos="720" pan="0" len="12" vol="100" />
          <note key="75" pos="744" pan="0" len="12" vol="100" />
        </pattern>
        <pattern pos="261504" muted="0" steps="16" name="" type="1">
          <note key="68" pos="0" pan="0" len="12" vol="100" />
          <note key="80" pos="48" pan="0" len="12" vol="100" />
          <note key="78" pos="84" pan="0" len="12" vol="100" />
          <note key="73" pos="120" pan="0" len="12" vol="100" />
          <note key="75" pos="144" pan="0" len="12" vol="100" />
          <note key="78" pos="168" pan="0" len="12" vol="100" />
          <note key="68" pos="192" pan="0" len="12" vol="100" />
          <note key="80" pos="240" pan="0" len="12" vol="100" />
          <note key="78" pos="276" pan="0" len="12" vol="100" />
          <note key="73" pos="312" pan="0" len="12" vol="100" />
          <note key="75" pos="336" pan="0" len="12" vol="100" />
          <note key="78" pos="360" pan="0" len="12" vol="100" />
          <note key="66" pos="384" pan="0" len="12" vol="100" />
          <note key="80" pos="432" pan="0" len="12" vol="100" />
          <note key="78" pos="468" pan="0" len="12" vol="100" />
          <note key="73" pos="504" pan="0" len="12" vol="100" />
          <note key="75" pos="528" pan="0" len="12" vol="100" />
          <note key="78" pos="552" pan="0" len="12" vol="100" />
          <note key="66" pos="576" pan="0" len="12" vol="100" />
          <note key="80" pos="624" pan="0" len="12" vol="100" />
          <note key="78" pos="660" pan="0" len="12" vol="100" />
          <note key="73" pos="696" pan="0" len="12" vol="100" />
          <note key="75" pos="720" pan="0" len="12" vol="100" />
          <note key="78" pos="744" pan="0" len="12" vol="100" />
        </pattern>
        <pattern pos="262272" muted="0" steps="16" name="" type="1">
          <note key="68" pos="0" pan="0" len="12" vol="100" />
          <note key="80" pos="48" pan="0" len="12" vol="100" />
          <note key="78" pos="84" pan="0" len="12" vol="100" />
          <note key="73" pos="120" pan="0" len="12" vol="100" />
          <note key="75" pos="144" pan="0" len="12" vol="100" />
          <note key="78" pos="168" pan="0" len="12" vol="100" />
          <note key="68" pos="192" pan="0" len="12" vol="100" />
          <note key="80" pos="240" pan="0" len="12" vol="100" />
          <note key="78" pos="276" pan="0" len="12" vol="100" />
          <note key="73" pos="312" pan="0" len="12" vol="100" />
          <note key="75" pos="336" pan="0" len="12" vol="100" />
          <note key="78" pos="360" pan="0" len="12" vol="100" />
          <note key="73" pos="384" pan="0" len="12" vol="100" />
          <note key="73" pos="432" pan="0" len="12" vol="100" />
          <note key="71" pos="468" pan="0" len="12" vol="100" />
          <note key="66" pos="504" pan="0" len="12" vol="100" />
          <note key="68" pos="528" pan="0" len="12" vol="100" />
          <note key="71" pos="552" pan="0" len="12" vol="100" />
          <note key="73" pos="576" pan="0" len="12" vol="100" />
          <note key="73" pos="624" pan="0" len="12" vol="100" />
          <note key="71" pos="660" pan="0" len="12" vol="100" />
          <note key="66" pos="696" pan="0" len="12" vol="100" />
          <note key="68" pos="720" pan="0" len="12" vol="100" />
          <note key="71" pos="744" pan="0" len="12" vol="100" />
        </pattern>
        <pattern pos="263040" muted="0" steps="16" name="" type="1">
          <note key="65" pos="0" pan="0" len="12" vol="100" />
          <note key="77" pos="48" pan="0" len="12" vol="100" />
          <note key="75" pos="84" pan="0" len="12" vol="100" />
          <note key="70" pos="120" pan="0" len="12" vol="100" />
          <note key="72" pos="144" pan="0" len="12" vol="100" />
          <note key="75" pos="168" pan="0" len="12" vol="100" />
          <note key="65" pos="192" pan="0" len="12" vol="100" />
          <note key="77" pos="240" pan="0" len="12" vol="100" />
          <note key="75" pos="276" pan="0" len="12" vol="100" />
          <note key="70" pos="312" pan="0" len="12" vol="100" />
          <note key="72" pos="336" pan="0" len="12" vol="100" />
          <note key="75" pos="360" pan="0" len="12" vol="100" />
          <note key="63" pos="384" pan="0" len="12" vol="100" />
          <note key="77" pos="432" pan="0" len="12" vol="100" />
          <note key="75" pos="468" pan="0" len="12" vol="100" />
          <note key="70" pos="504" pan="0" len="12" vol="100" />
          <note key="72" pos="528" pan="0" len="12" vol="100" />
          <note key="75" pos="552" pan="0" len="12" vol="100" />
          <note key="63" pos="576" pan="0" len="12" vol="100" />
          <note key="77" pos="624" pan="0" len="12" vol="100" />
          <note key="75" pos="660" pan="0" len="12" vol="100" />
          <note key="70" pos="696" pan="0" len="12" vol="100" />
          <note key="72" pos="720" pan="0" len="12" vol="100" />
          <note key="75" pos="744" pan="0" len="12" vol="100" />
        </pattern>
        <pattern pos="263808" muted="0" steps="16" name="" type="1">
          <note key="65" pos="0" pan="0" len="12" vol="100" />
          <note key="77" pos="48" pan="0" len="12" vol="100" />
          <note key="75" pos="84" pan="0" len="12" vol="100" />
          <note key="70" pos="120" pan="0" len="12" vol="100" />
          <note key="72" pos="144" pan="0" len="12" vol="100" />
          <note key="75" pos="168" pan="0" len="12" vol="100" />
          <note key="65" pos="192" pan="0" len="12" vol="100" />
          <note key="77" pos="240" pan="0" len="12" vol="100" />
          <note key="75" pos="276" pan="0" len="12" vol="100" />
          <note key="70" pos="312" pan="0" len="12" vol="100" />
          <note key="72" pos="336" pan="0" len="12" vol="100" />
          <note key="75" pos="360" pan="0" len="12" vol="100" />
          <note key="70" pos="384" pan="0" len="12" vol="100" />
          <note key="70" pos="432" pan="0" len="12" vol="100" />
          <note key="68" pos="468" pan="0" len="12" vol="100" />
          <note key="63" pos="504" pan="0" len="12" vol="100" />
          <note key="65" pos="528" pan="0" len="12" vol="100" />
          <note key="68" pos="552" pan="0" len="12" vol="100" />
          <note key="70" pos="576" pan="0" len="12" vol="100" />
          <note key="70" pos="624" pan="0" len="12" vol="100" />
          <note key="80" pos="660" pan="0" len="12" vol="100" />
          <note key="75" pos="696" pan="0" len="12" vol="100" />
          <note key="77" pos="720" pan="0" len="12" vol="100" />
          <note key="80" pos="744" pan="0" len="12" vol="100" />
        </pattern>
        <pattern pos="265344" muted="0" steps="16" name="" type="1">
          <note key="65" pos="0" pan="0" len="12" vol="100" />
          <note key="77" pos="48" pan="0" len="12" vol="100" />
          <note key="75" pos="84" pan="0" len="12" vol="100" />
          <note key="70" pos="120" pan="0" len="12" vol="100" />
          <note key="72" pos="144" pan="0" len="12" vol="100" />
          <note key="75" pos="168" pan="0" len="12" vol="100" />
          <note key="65" pos="192" pan="0" len="12" vol="100" />
          <note key="77" pos="240" pan="0" len="12" vol="100" />
          <note key="75" pos="276" pan="0" len="12" vol="100" />
          <note key="70" pos="312" pan="0" len="12" vol="100" />
          <note key="72" pos="336" pan="0" len="12" vol="100" />
          <note key="75" pos="360" pan="0" len="12" vol="100" />
          <note key="63" pos="384" pan="0" len="12" vol="100" />
          <note key="77" pos="432" pan="0" len="12" vol="100" />
          <note key="75" pos="468" pan="0" len="12" vol="100" />
          <note key="70" pos="504" pan="0" len="12" vol="100" />
          <note key="72" pos="528" pan="0" len="12" vol="100" />
          <note key="75" pos="552" pan="0" len="12" vol="100" />
          <note key="63" pos="576" pan="0" len="12" vol="100" />
          <note key="77" pos="624" pan="0" len="12" vol="100" />
          <note key="75" pos="660" pan="0" len="12" vol="100" />
          <note key="70" pos="696" pan="0" len="12" vol="100" />
          <note key="72" pos="720" pan="0" len="12" vol="100" />
          <note key="75" pos="744" pan="0" len="12" vol="100" />
        </pattern>
        <pattern pos="266112" muted="0" steps="16" name="" type="1">
          <note key="65" pos="0" pan="0" len="12" vol="100" />
          <note key="77" pos="48" pan="0" len="12" vol="100" />
          <note key="75" pos="84" pan="0" len="12" vol="100" />
          <note key="70" pos="120" pan="0" len="12" vol="100" />
          <note key="72" pos="144" pan="0" len="12" vol="100" />
          <note key="75" pos="168" pan="0" len="12" vol="100" />
          <note key="65" pos="192" pan="0" len="12" vol="100" />
          <note key="77" pos="240" pan="0" len="12" vol="100" />
          <note key="75" pos="276" pan="0" len="12" vol="100" />
          <note key="70" pos="312" pan="0" len="12" vol="100" />
          <note key="72" pos="336" pan="0" len="12" vol="100" />
          <note key="75" pos="360" pan="0" len="12" vol="100" />
          <note key="72" pos="384" pan="0" len="24" vol="100" />
          <note key="72" pos="432" pan="0" len="24" vol="100" />
          <note key="70" pos="468" pan="0" len="24" vol="100" />
          <note key="65" pos="504" pan="0" len="12" vol="100" />
          <note key="67" pos="528" pan="0" len="12" vol="100" />
          <note key="70" pos="552" pan="0" len="24" vol="100" />
          <note key="72" pos="576" pan="0" len="24" vol="100" />
          <note key="72" pos="624" pan="0" len="24" vol="100" />
          <note key="70" pos="660" pan="0" len="24" vol="100" />
          <note key="65" pos="696" pan="0" len="12" vol="100" />
          <note key="67" pos="720" pan="0" len="12" vol="100" />
          <note key="70" pos="744" pan="0" len="24" vol="100" />
          <note key="65" pos="768" pan="0" len="12" vol="100" />
          <note key="77" pos="816" pan="0" len="12" vol="100" />
          <note key="75" pos="852" pan="0" len="12" vol="100" />
          <note key="70" pos="888" pan="0" len="12" vol="100" />
          <note key="72" pos="912" pan="0" len="12" vol="100" />
          <note key="75" pos="936" pan="0" len="12" vol="100" />
          <note key="65" pos="960" pan="0" len="12" vol="100" />
          <note key="77" pos="1008" pan="0" len="12" vol="100" />
          <note key="75" pos="1044" pan="0" len="12" vol="100" />
          <note key="70" pos="1080" pan="0" len="12" vol="100" />
          <note key="72" pos="1104" pan="0" len="12" vol="100" />
          <note key="75" pos="1128" pan="0" len="12" vol="100" />
          <note key="72" pos="1152" pan="0" len="24" vol="100" />
          <note key="72" pos="1200" pan="0" len="24" vol="100" />
          <note key="70" pos="1236" pan="0" len="24" vol="100" />
          <note key="65" pos="1272" pan="0" len="12" vol="100" />
          <note key="67" pos="1296" pan="0" len="12" vol="100" />
          <note key="70" pos="1320" pan="0" len="24" vol="100" />
          <note key="72" pos="1344" pan="0" len="24" vol="100" />
          <note key="72" pos="1392" pan="0" len="24" vol="100" />
          <note key="70" pos="1428" pan="0" len="24" vol="100" />
          <note key="65" pos="1464" pan="0" len="12" vol="100" />
          <note key="67" pos="1488" pan="0" len="12" vol="100" />
          <note key="70" pos="1512" pan="0" len="24" vol="100" />
        </pattern>
      </track>
      <track solo="0" name="4 (Ch7)" type="0" muted="0">
        <instrumenttrack usemasterpitch="1" pitch="0.0" basenote="57" pan="0" pitchrange="12" vol="30">
          <eldata />
          <instrument name="tripleoscillator" />
        </instrumenttrack>
        <pattern pos="91392" muted="0" steps="16" name="" type="1">
          <note key="72" pos="0" pan="0" len="12" vol="100" />
          <note key="72" pos="36" pan="0" len="12" vol="100" />
          <note key="70" pos="72" pan="0" len="12" vol="100" />
          <note key="72" pos="96" pan="0" len="12" vol="100" />
          <note key="60" pos="120" pan="0" len="36" vol="100" />
          <note key="70" pos="336" pan="0" len="12" vol="100" />
          <note key="72" pos="384" pan="0" len="12" vol="100" />
          <note key="72" pos="420" pan="0" len="12" vol="100" />
          <note key="70" pos="456" pan="0" len="12" vol="100" />
          <note key="72" pos="480" pan="0" len="12" vol="100" />
          <note key="60" pos="504" pan="0" len="36" vol="100" />
          <note key="70" pos="720" pan="0" len="12" vol="100" />
        </pattern>
        <pattern pos="768" muted="0" steps="16" name="" type="1">
          <note key="60" pos="0" pan="0" len="48" vol="100" />
          <note key="60" pos="192" pan="0" len="48" vol="100" />
          <note key="60" pos="384" pan="0" len="48" vol="100" />
          <note key="60" pos="576" pan="0" len="48" vol="100" />
        </pattern>
        <pattern pos="1536" muted="0" steps="16" name="" type="1">
          <note key="60" pos="0" pan="0" len="48" vol="100" />
          <note key="60" pos="192" pan="0" len="48" vol="100" />
          <note key="60" pos="384" pan="0" len="48" vol="100" />
          <note key="60" pos="576" pan="0" len="48" vol="100" />
        </pattern>
        <pattern pos="2304" muted="0" steps="16" name="" type="1">
          <note key="60" pos="0" pan="0" len="48" vol="100" />
          <note key="60" pos="192" pan="0" len="48" vol="100" />
          <note key="60" pos="384" pan="0" len="48" vol="100" />
          <note key="60" pos="576" pan="0" len="48" vol="100" />
        </pattern>
        <pattern pos="3072" muted="0" steps="16" name="" type="1">
          <note key="60" pos="0" pan="0" len="48" vol="100" />
          <note key="60" pos="192" pan="0" len="48" vol="100" />
          <note key="60" pos="384" pan="0" len="48" vol="100" />
          <note key="65" pos="576" pan="0" len="168" vol="100" />
        </pattern>
        <pattern pos="3840" muted="0" steps="16" name="" type="1">
          <note key="60" pos="0" pan="0" len="48" vol="100" />
          <note key="72" pos="48" pan="0" len="48" vol="100" />
          <note key="60" pos="192" pan="0" len="48" vol="100" />
          <note key="72" pos="240" pan="0" len="48" vol="100" />
          <note key="65" pos="384" pan="0" len="48" vol="100" />
          <note key="77" pos="432" pan="0" len="48" vol="100" />
          <note key="58" pos="576" pan="0" len="48" vol="100" />
          <note key="70" pos="624" pan="0" len="48" vol="100" />
          <note key="60" pos="768" pan="0" len="48" vol="100" />
          <note key="72" pos="816" pan="0" len="48" vol="100" />
          <note key="60" pos="960" pan="0" len="48" vol="100" />
          <note key="72" pos="1008" pan="0" len="48" vol="100" />
          <note key="65" pos="1152" pan="0" len="48" vol="100" />
          <note key="77" pos="1200" pan="0" len="48" vol="100" />
          <note key="58" pos="1344" pan="0" len="48" vol="100" />
          <note key="70" pos="1392" pan="0" len="48" vol="100" />
        </pattern>
        <pattern pos="5376" muted="0" steps="16" name="" type="1">
          <note key="74" pos="0" pan="0" len="48" vol="100" />
          <note key="62" pos="48" pan="0" len="72" vol="100" />
          <note key="71" pos="192" pan="0" len="48" vol="100" />
          <note key="59" pos="240" pan="0" len="72" vol="100" />
          <note key="72" pos="384" pan="0" len="48" vol="100" />
          <note key="60" pos="432" pan="0" len="72" vol="100" />
          <note key="67" pos="576" pan="0" len="48" vol="100" />
          <note key="55" pos="624" pan="0" len="72" vol="100" />
        </pattern>
        <pattern pos="6144" muted="0" steps="16" name="" type="1">
          <note key="74" pos="0" pan="0" len="48" vol="100" />
          <note key="62" pos="48" pan="0" len="72" vol="100" />
          <note key="71" pos="192" pan="0" len="48" vol="100" />
          <note key="59" pos="240" pan="0" len="72" vol="100" />
          <note key="72" pos="384" pan="0" len="48" vol="100" />
          <note key="60" pos="432" pan="0" len="72" vol="100" />
          <note key="67" pos="576" pan="0" len="48" vol="100" />
          <note key="55" pos="624" pan="0" len="72" vol="100" />
        </pattern>
      </track>
      <track solo="0" name="5 (Ch3)" type="0" muted="0">
        <instrumenttrack usemasterpitch="1" pitch="0.0" basenote="57" pan="0" pitchrange="12" vol="30">
          <eldata />
          <instrument name="tripleoscillator" />
        </instrumenttrack>
        <pattern pos="52608" muted="0" steps="16" name="" type="1">
          <note key="60" pos="0" pan="0" len="48" vol="100" />
          <note key="62" pos="48" pan="0" len="24" vol="100" />
          <note key="63" pos="72" pan="0" len="48" vol="100" />
          <note key="67" pos="120" pan="0" len="24" vol="100" />
          <note key="70" pos="144" pan="0" len="72" vol="100" />
          <note key="74" pos="216" pan="0" len="72" vol="100" />
          <note key="70" pos="288" pan="0" len="144" vol="100" />
          <note key="69" pos="432" pan="0" len="144" vol="100" />
          <note key="65" pos="576" pan="0" len="144" vol="100" />
          <note key="60" pos="720" pan="0" len="240" vol="100" />
        </pattern>
        <pattern pos="3840" muted="0" steps="16" name="" type="1">
          <note key="67" pos="0" pan="0" len="144" vol="61" />
          <note key="65" pos="144" pan="0" len="192" vol="61" />
          <note key="67" pos="336" pan="0" len="240" vol="70" />
          <note key="70" pos="576" pan="0" len="168" vol="70" />
          <note key="67" pos="744" pan="0" len="12" vol="70" />
          <note key="65" pos="756" pan="0" len="12" vol="70" />
          <note key="67" pos="768" pan="0" len="144" vol="61" />
          <note key="70" pos="912" pan="0" len="216" vol="61" />
          <note key="69" pos="1128" pan="0" len="216" vol="70" />
          <note key="65" pos="1344" pan="0" len="168" vol="70" />
          <note key="67" pos="1512" pan="0" len="12" vol="70" />
          <note key="65" pos="1524" pan="0" len="12" vol="70" />
        </pattern>
        <pattern pos="45696" muted="0" steps="16" name="" type="1">
          <note key="60" pos="0" pan="0" len="48" vol="100" />
          <note key="62" pos="48" pan="0" len="24" vol="100" />
          <note key="63" pos="72" pan="0" len="48" vol="100" />
          <note key="65" pos="120" pan="0" len="24" vol="100" />
          <note key="67" pos="144" pan="0" len="72" vol="100" />
          <note key="72" pos="216" pan="0" len="72" vol="100" />
          <note key="70" pos="288" pan="0" len="144" vol="100" />
          <note key="69" pos="432" pan="0" len="144" vol="100" />
          <note key="65" pos="576" pan="0" len="144" vol="100" />
          <note key="67" pos="720" pan="0" len="240" vol="100" />
        </pattern>
        <pattern pos="46848" muted="0" steps="16" name="" type="1">
          <note key="60" pos="0" pan="0" len="48" vol="100" />
          <note key="62" pos="48" pan="0" len="24" vol="100" />
          <note key="63" pos="72" pan="0" len="48" vol="100" />
          <note key="67" pos="120" pan="0" len="24" vol="100" />
          <note key="70" pos="144" pan="0" len="72" vol="100" />
          <note key="74" pos="216" pan="0" len="72" vol="100" />
          <note key="70" pos="288" pan="0" len="144" vol="100" />
          <note key="69" pos="432" pan="0" len="144" vol="100" />
          <note key="65" pos="576" pan="0" len="144" vol="100" />
          <note key="60" pos="720" pan="0" len="240" vol="100" />
        </pattern>
        <pattern pos="51456" muted="0" steps="16" name="" type="1">
          <note key="60" pos="0" pan="0" len="48" vol="100" />
          <note key="62" pos="48" pan="0" len="24" vol="100" />
          <note key="63" pos="72" pan="0" len="48" vol="100" />
          <note key="65" pos="120" pan="0" len="24" vol="100" />
          <note key="67" pos="144" pan="0" len="72" vol="100" />
          <note key="72" pos="216" pan="0" len="72" vol="100" />
          <note key="70" pos="288" pan="0" len="144" vol="100" />
          <note key="69" pos="432" pan="0" len="144" vol="100" />
          <note key="65" pos="576" pan="0" len="144" vol="100" />
          <note key="67" pos="720" pan="0" len="240" vol="100" />
        </pattern>
      </track>
      <track solo="0" name="5 (Ch4)" type="0" muted="0">
        <instrumenttrack usemasterpitch="1" pitch="0.0" basenote="57" pan="0" pitchrange="12" vol="30">
          <eldata />
          <instrument name="tripleoscillator" />
        </instrumenttrack>
        <pattern pos="36480" muted="0" steps="16" name="" type="1">
          <note key="72" pos="576" pan="0" len="12" vol="2" />
          <note key="60" pos="588" pan="0" len="228" vol="100" />
        </pattern>
      </track>
      <track solo="0" name="5 (Ch5)" type="0" muted="0">
        <instrumenttrack usemasterpitch="1" pitch="0.0" basenote="57" pan="0" pitchrange="12" vol="30">
          <eldata />
          <instrument name="tripleoscillator" />
        </instrumenttrack>
        <pattern pos="13056" muted="0" steps="16" name="" type="1">
          <note key="58" pos="0" pan="0" len="384" vol="41" />
          <note key="55" pos="384" pan="0" len="312" vol="41" />
          <note key="55" pos="696" pan="0" len="72" vol="41" />
          <note key="58" pos="768" pan="0" len="384" vol="41" />
          <note key="55" pos="1152" pan="0" len="384" vol="41" />
        </pattern>
        <pattern pos="8448" muted="0" steps="16" name="" type="1">
          <note key="58" pos="0" pan="0" len="24" vol="41" />
          <note key="60" pos="24" pan="0" len="360" vol="41" />
          <note key="65" pos="384" pan="0" len="288" vol="41" />
          <note key="60" pos="672" pan="0" len="96" vol="41" />
        </pattern>
        <pattern pos="9216" muted="0" steps="16" name="" type="1">
          <note key="58" pos="0" pan="0" len="24" vol="41" />
          <note key="60" pos="24" pan="0" len="360" vol="41" />
          <note key="65" pos="384" pan="0" len="288" vol="41" />
          <note key="60" pos="672" pan="0" len="96" vol="41" />
        </pattern>
        <pattern pos="9984" muted="0" steps="16" name="" type="1">
          <note key="56" pos="0" pan="0" len="24" vol="41" />
          <note key="58" pos="24" pan="0" len="360" vol="41" />
          <note key="55" pos="384" pan="0" len="384" vol="41" />
        </pattern>
        <pattern pos="10752" muted="0" steps="16" name="" type="1">
          <note key="56" pos="0" pan="0" len="24" vol="41" />
          <note key="58" pos="24" pan="0" len="360" vol="41" />
          <note key="60" pos="384" pan="0" len="192" vol="41" />
        </pattern>
        <pattern pos="11520" muted="0" steps="16" name="" type="1">
          <note key="60" pos="0" pan="0" len="384" vol="41" />
          <note key="58" pos="384" pan="0" len="336" vol="41" />
          <note key="55" pos="720" pan="0" len="48" vol="41" />
          <note key="60" pos="768" pan="0" len="384" vol="41" />
          <note key="58" pos="1152" pan="0" len="336" vol="41" />
          <note key="55" pos="1488" pan="0" len="48" vol="41" />
        </pattern>
      </track>
      <track solo="0" name="5 (Ch6)" type="0" muted="0">
        <instrumenttrack usemasterpitch="1" pitch="0.0" basenote="57" pan="0" pitchrange="12" vol="30">
          <eldata />
          <instrument name="tripleoscillator" />
        </instrumenttrack>
        <pattern pos="87552" muted="0" steps="16" name="" type="1">
          <note key="60" pos="0" pan="0" len="192" vol="17" />
          <note key="63" pos="192" pan="0" len="192" vol="17" />
          <note key="60" pos="384" pan="0" len="192" vol="17" />
          <note key="60" pos="576" pan="0" len="192" vol="17" />
        </pattern>
        <pattern pos="2304" muted="0" steps="16" name="" type="1">
          <note key="53" pos="0" pan="0" len="576" vol="2" />
          <note key="55" pos="576" pan="0" len="192" vol="100" />
        </pattern>
        <pattern pos="3072" muted="0" steps="16" name="" type="1">
          <note key="60" pos="0" pan="0" len="192" vol="100" />
          <note key="53" pos="576" pan="0" len="192" vol="100" />
        </pattern>
        <pattern pos="8448" muted="0" steps="16" name="" type="1">
          <note key="62" pos="0" pan="0" len="384" vol="41" />
          <note key="67" pos="384" pan="0" len="288" vol="41" />
          <note key="65" pos="672" pan="0" len="96" vol="41" />
        </pattern>
        <pattern pos="9216" muted="0" steps="16" name="" type="1">
          <note key="62" pos="0" pan="0" len="384" vol="41" />
          <note key="67" pos="384" pan="0" len="288" vol="41" />
          <note key="65" pos="672" pan="0" len="96" vol="41" />
        </pattern>
        <pattern pos="9984" muted="0" steps="16" name="" type="1">
          <note key="62" pos="0" pan="0" len="384" vol="41" />
          <note key="60" pos="384" pan="0" len="384" vol="41" />
        </pattern>
        <pattern pos="10752" muted="0" steps="16" name="" type="1">
          <note key="62" pos="0" pan="0" len="384" vol="41" />
          <note key="64" pos="384" pan="0" len="192" vol="41" />
        </pattern>
        <pattern pos="11520" muted="0" steps="16" name="" type="1">
          <note key="62" pos="0" pan="0" len="384" vol="41" />
          <note key="62" pos="384" pan="0" len="336" vol="41" />
          <note key="60" pos="720" pan="0" len="48" vol="41" />
          <note key="62" pos="768" pan="0" len="384" vol="41" />
          <note key="62" pos="1152" pan="0" len="336" vol="41" />
          <note key="60" pos="1488" pan="0" len="48" vol="41" />
        </pattern>
        <pattern pos="13056" muted="0" steps="16" name="" type="1">
          <note key="62" pos="0" pan="0" len="384" vol="41" />
          <note key="60" pos="384" pan="0" len="312" vol="41" />
          <note key="58" pos="696" pan="0" len="72" vol="41" />
          <note key="62" pos="768" pan="0" len="384" vol="41" />
          <note key="60" pos="1152" pan="0" len="384" vol="41" />
        </pattern>
        <pattern pos="86016" muted="0" steps="16" name="" type="1">
          <note key="60" pos="0" pan="0" len="192" vol="17" />
          <note key="63" pos="192" pan="0" len="192" vol="17" />
          <note key="60" pos="384" pan="0" len="192" vol="17" />
          <note key="60" pos="576" pan="0" len="192" vol="17" />
        </pattern>
      </track>
      <track solo="0" name="5 (Ch7)" type="0" muted="0">
        <instrumenttrack usemasterpitch="1" pitch="0.0" basenote="57" pan="0" pitchrange="12" vol="30">
          <eldata />
          <instrument name="tripleoscillator" />
        </instrumenttrack>
        <pattern pos="87552" muted="0" steps="16" name="" type="1">
          <note key="63" pos="0" pan="0" len="192" vol="17" />
          <note key="67" pos="192" pan="0" len="192" vol="17" />
          <note key="65" pos="384" pan="0" len="192" vol="17" />
          <note key="65" pos="576" pan="0" len="192" vol="17" />
        </pattern>
        <pattern pos="8448" muted="0" steps="16" name="" type="1">
          <note key="67" pos="0" pan="0" len="384" vol="41" />
          <note key="70" pos="384" pan="0" len="288" vol="41" />
          <note key="69" pos="672" pan="0" len="96" vol="41" />
        </pattern>
        <pattern pos="9216" muted="0" steps="16" name="" type="1">
          <note key="67" pos="0" pan="0" len="384" vol="41" />
          <note key="70" pos="384" pan="0" len="288" vol="41" />
          <note key="69" pos="672" pan="0" len="96" vol="41" />
        </pattern>
        <pattern pos="9984" muted="0" steps="16" name="" type="1">
          <note key="65" pos="0" pan="0" len="384" vol="41" />
          <note key="64" pos="384" pan="0" len="384" vol="41" />
        </pattern>
        <pattern pos="10752" muted="0" steps="16" name="" type="1">
          <note key="65" pos="0" pan="0" len="384" vol="41" />
          <note key="67" pos="384" pan="0" len="192" vol="41" />
        </pattern>
        <pattern pos="11520" muted="0" steps="16" name="" type="1">
          <note key="67" pos="0" pan="0" len="384" vol="41" />
          <note key="65" pos="384" pan="0" len="336" vol="41" />
          <note key="64" pos="720" pan="0" len="48" vol="41" />
          <note key="67" pos="768" pan="0" len="384" vol="41" />
          <note key="65" pos="1152" pan="0" len="336" vol="41" />
          <note key="64" pos="1488" pan="0" len="48" vol="41" />
        </pattern>
        <pattern pos="13056" muted="0" steps="16" name="" type="1">
          <note key="65" pos="0" pan="0" len="384" vol="41" />
          <note key="64" pos="384" pan="0" len="312" vol="41" />
          <note key="62" pos="696" pan="0" len="72" vol="41" />
          <note key="65" pos="768" pan="0" len="384" vol="41" />
          <note key="64" pos="1152" pan="0" len="384" vol="41" />
        </pattern>
        <pattern pos="81408" muted="0" steps="16" name="" type="1">
          <note key="58" pos="192" pan="0" len="96" vol="2" />
          <note key="63" pos="576" pan="0" len="96" vol="2" />
        </pattern>
        <pattern pos="82176" muted="0" steps="16" name="" type="1">
          <note key="58" pos="192" pan="0" len="96" vol="2" />
          <note key="63" pos="576" pan="0" len="96" vol="2" />
        </pattern>
        <pattern pos="82944" muted="0" steps="16" name="" type="1">
          <note key="58" pos="192" pan="0" len="96" vol="2" />
          <note key="63" pos="576" pan="0" len="96" vol="2" />
        </pattern>
        <pattern pos="83712" muted="0" steps="16" name="" type="1">
          <note key="58" pos="192" pan="0" len="96" vol="2" />
          <note key="63" pos="576" pan="0" len="96" vol="2" />
        </pattern>
        <pattern pos="84480" muted="0" steps="16" name="" type="1">
          <note key="48" pos="0" pan="0" len="576" vol="50" />
          <note key="51" pos="576" pan="0" len="96" vol="50" />
          <note key="53" pos="672" pan="0" len="48" vol="50" />
          <note key="55" pos="720" pan="0" len="48" vol="50" />
        </pattern>
        <pattern pos="85248" muted="0" steps="16" name="" type="1">
          <note key="48" pos="0" pan="0" len="576" vol="50" />
          <note key="51" pos="576" pan="0" len="96" vol="50" />
          <note key="53" pos="672" pan="0" len="48" vol="50" />
          <note key="55" pos="720" pan="0" len="48" vol="50" />
        </pattern>
        <pattern pos="86016" muted="0" steps="16" name="" type="1">
          <note key="63" pos="0" pan="0" len="192" vol="17" />
          <note key="67" pos="192" pan="0" len="192" vol="17" />
          <note key="65" pos="384" pan="0" len="192" vol="17" />
          <note key="65" pos="576" pan="0" len="192" vol="17" />
        </pattern>
      </track>
      <track solo="0" name="5 (Ch8)" type="0" muted="0">
        <instrumenttrack usemasterpitch="1" pitch="0.0" basenote="57" pan="0" pitchrange="12" vol="30">
          <eldata />
          <instrument name="tripleoscillator" />
        </instrumenttrack>
        <pattern pos="87552" muted="0" steps="16" name="" type="1">
          <note key="67" pos="0" pan="0" len="192" vol="17" />
          <note key="70" pos="192" pan="0" len="192" vol="17" />
          <note key="69" pos="384" pan="0" len="192" vol="17" />
          <note key="69" pos="576" pan="0" len="192" vol="17" />
        </pattern>
        <pattern pos="768" muted="0" steps="16" name="" type="1">
          <note key="60" pos="192" pan="0" len="576" vol="8" />
        </pattern>
        <pattern pos="1536" muted="0" steps="16" name="" type="1">
          <note key="60" pos="192" pan="0" len="576" vol="8" />
        </pattern>
        <pattern pos="2304" muted="0" steps="16" name="" type="1">
          <note key="60" pos="192" pan="0" len="576" vol="8" />
        </pattern>
        <pattern pos="3072" muted="0" steps="16" name="" type="1">
          <note key="60" pos="192" pan="0" len="576" vol="8" />
        </pattern>
        <pattern pos="78336" muted="0" steps="16" name="" type="1">
          <note key="60" pos="0" pan="0" len="168" vol="17" />
          <note key="60" pos="168" pan="0" len="24" vol="17" />
          <note key="63" pos="192" pan="0" len="192" vol="17" />
          <note key="60" pos="384" pan="0" len="192" vol="17" />
          <note key="55" pos="576" pan="0" len="96" vol="17" />
          <note key="55" pos="672" pan="0" len="96" vol="17" />
        </pattern>
        <pattern pos="79104" muted="0" steps="16" name="" type="1">
          <note key="60" pos="0" pan="0" len="168" vol="17" />
          <note key="60" pos="168" pan="0" len="24" vol="23" />
          <note key="63" pos="192" pan="0" len="192" vol="34" />
          <note key="60" pos="384" pan="0" len="192" vol="28" />
          <note key="55" pos="576" pan="0" len="96" vol="17" />
          <note key="55" pos="672" pan="0" len="96" vol="17" />
        </pattern>
        <pattern pos="81408" muted="0" steps="16" name="" type="1">
          <note key="63" pos="192" pan="0" len="96" vol="2" />
          <note key="65" pos="576" pan="0" len="96" vol="2" />
        </pattern>
        <pattern pos="82176" muted="0" steps="16" name="" type="1">
          <note key="63" pos="192" pan="0" len="96" vol="2" />
          <note key="65" pos="576" pan="0" len="96" vol="2" />
        </pattern>
        <pattern pos="82944" muted="0" steps="16" name="" type="1">
          <note key="63" pos="192" pan="0" len="96" vol="2" />
          <note key="65" pos="576" pan="0" len="96" vol="2" />
        </pattern>
        <pattern pos="83712" muted="0" steps="16" name="" type="1">
          <note key="63" pos="192" pan="0" len="96" vol="2" />
          <note key="65" pos="576" pan="0" len="96" vol="2" />
        </pattern>
        <pattern pos="86016" muted="0" steps="16" name="" type="1">
          <note key="67" pos="0" pan="0" len="192" vol="17" />
          <note key="70" pos="192" pan="0" len="192" vol="17" />
          <note key="70" pos="384" pan="0" len="192" vol="17" />
          <note key="69" pos="576" pan="0" len="192" vol="17" />
        </pattern>
      </track>
      <track solo="0" name="5 (Ch9)" type="0" muted="0">
        <instrumenttrack usemasterpitch="1" pitch="0.0" basenote="57" pan="0" pitchrange="12" vol="30">
          <eldata />
          <instrument name="tripleoscillator" />
        </instrumenttrack>
        <pattern pos="83712" muted="0" steps="16" name="" type="1">
          <note key="65" pos="192" pan="0" len="96" vol="2" />
          <note key="70" pos="576" pan="0" len="96" vol="2" />
        </pattern>
        <pattern pos="768" muted="0" steps="16" name="" type="1">
          <note key="65" pos="192" pan="0" len="576" vol="8" />
        </pattern>
        <pattern pos="1536" muted="0" steps="16" name="" type="1">
          <note key="65" pos="192" pan="0" len="576" vol="8" />
        </pattern>
        <pattern pos="2304" muted="0" steps="16" name="" type="1">
          <note key="65" pos="192" pan="0" len="576" vol="8" />
        </pattern>
        <pattern pos="3072" muted="0" steps="16" name="" type="1">
          <note key="65" pos="192" pan="0" len="576" vol="8" />
        </pattern>
        <pattern pos="29568" muted="0" steps="16" name="" type="1">
          <note key="34" pos="0" pan="0" len="24" vol="100" />
          <note key="36" pos="24" pan="0" len="264" vol="100" />
          <note key="48" pos="540" pan="0" len="36" vol="100" />
          <note key="39" pos="576" pan="0" len="48" vol="100" />
          <note key="41" pos="624" pan="0" len="240" vol="100" />
        </pattern>
        <pattern pos="78336" muted="0" steps="16" name="" type="1">
          <note key="65" pos="0" pan="0" len="168" vol="17" />
          <note key="65" pos="168" pan="0" len="24" vol="17" />
          <note key="67" pos="192" pan="0" len="192" vol="17" />
          <note key="65" pos="384" pan="0" len="192" vol="17" />
          <note key="60" pos="576" pan="0" len="96" vol="17" />
          <note key="60" pos="672" pan="0" len="96" vol="17" />
        </pattern>
        <pattern pos="79104" muted="0" steps="16" name="" type="1">
          <note key="65" pos="0" pan="0" len="168" vol="17" />
          <note key="65" pos="168" pan="0" len="24" vol="23" />
          <note key="67" pos="192" pan="0" len="192" vol="34" />
          <note key="65" pos="384" pan="0" len="192" vol="28" />
          <note key="60" pos="576" pan="0" len="96" vol="17" />
          <note key="60" pos="672" pan="0" len="96" vol="17" />
        </pattern>
        <pattern pos="81408" muted="0" steps="16" name="" type="1">
          <note key="65" pos="192" pan="0" len="96" vol="2" />
          <note key="70" pos="576" pan="0" len="96" vol="2" />
        </pattern>
        <pattern pos="82176" muted="0" steps="16" name="" type="1">
          <note key="65" pos="192" pan="0" len="96" vol="2" />
          <note key="70" pos="576" pan="0" len="96" vol="2" />
        </pattern>
        <pattern pos="82944" muted="0" steps="16" name="" type="1">
          <note key="65" pos="192" pan="0" len="96" vol="2" />
          <note key="70" pos="576" pan="0" len="96" vol="2" />
        </pattern>
      </track>
      <track solo="0" name="5 (Ch10)" type="0" muted="0">
        <instrumenttrack usemasterpitch="1" pitch="0.0" basenote="57" pan="0" pitchrange="12" vol="30">
          <eldata />
          <instrument name="tripleoscillator" />
        </instrumenttrack>
        <pattern pos="79104" muted="0" steps="16" name="" type="1">
          <note key="67" pos="0" pan="0" len="168" vol="17" />
          <note key="69" pos="168" pan="0" len="24" vol="23" />
          <note key="70" pos="192" pan="0" len="192" vol="34" />
          <note key="69" pos="384" pan="0" len="192" vol="28" />
          <note key="65" pos="576" pan="0" len="96" vol="17" />
          <note key="63" pos="672" pan="0" len="96" vol="17" />
        </pattern>
        <pattern pos="768" muted="0" steps="16" name="" type="1">
          <note key="70" pos="192" pan="0" len="576" vol="8" />
        </pattern>
        <pattern pos="1536" muted="0" steps="16" name="" type="1">
          <note key="70" pos="192" pan="0" len="576" vol="8" />
        </pattern>
        <pattern pos="2304" muted="0" steps="16" name="" type="1">
          <note key="70" pos="192" pan="0" len="576" vol="8" />
        </pattern>
        <pattern pos="3072" muted="0" steps="16" name="" type="1">
          <note key="70" pos="192" pan="0" len="576" vol="8" />
        </pattern>
        <pattern pos="22272" muted="0" steps="16" name="" type="1">
          <note key="70" pos="48" pan="0" len="12" vol="8" />
          <note key="67" pos="60" pan="0" len="12" vol="16" />
          <note key="70" pos="72" pan="0" len="12" vol="25" />
          <note key="67" pos="84" pan="0" len="12" vol="33" />
          <note key="70" pos="96" pan="0" len="12" vol="41" />
          <note key="67" pos="108" pan="0" len="12" vol="50" />
          <note key="70" pos="120" pan="0" len="12" vol="58" />
          <note key="67" pos="132" pan="0" len="12" vol="67" />
          <note key="70" pos="144" pan="0" len="12" vol="75" />
          <note key="67" pos="156" pan="0" len="12" vol="83" />
          <note key="70" pos="168" pan="0" len="12" vol="92" />
          <note key="67" pos="180" pan="0" len="12" vol="100" />
          <note key="70" pos="192" pan="0" len="12" vol="92" />
          <note key="67" pos="204" pan="0" len="12" vol="84" />
          <note key="70" pos="216" pan="0" len="12" vol="77" />
          <note key="67" pos="228" pan="0" len="12" vol="69" />
          <note key="70" pos="240" pan="0" len="12" vol="61" />
          <note key="67" pos="252" pan="0" len="12" vol="55" />
          <note key="70" pos="264" pan="0" len="12" vol="47" />
          <note key="67" pos="276" pan="0" len="12" vol="39" />
          <note key="70" pos="288" pan="0" len="12" vol="31" />
          <note key="67" pos="300" pan="0" len="12" vol="23" />
          <note key="70" pos="312" pan="0" len="12" vol="16" />
          <note key="67" pos="324" pan="0" len="12" vol="8" />
        </pattern>
        <pattern pos="23808" muted="0" steps="16" name="" type="1">
          <note key="70" pos="48" pan="0" len="12" vol="8" />
          <note key="67" pos="60" pan="0" len="12" vol="16" />
          <note key="70" pos="72" pan="0" len="12" vol="25" />
          <note key="67" pos="84" pan="0" len="12" vol="33" />
          <note key="70" pos="96" pan="0" len="12" vol="41" />
          <note key="67" pos="108" pan="0" len="12" vol="50" />
          <note key="70" pos="120" pan="0" len="12" vol="58" />
          <note key="67" pos="132" pan="0" len="12" vol="67" />
          <note key="70" pos="144" pan="0" len="12" vol="75" />
          <note key="67" pos="156" pan="0" len="12" vol="83" />
          <note key="70" pos="168" pan="0" len="12" vol="92" />
          <note key="67" pos="180" pan="0" len="12" vol="100" />
          <note key="70" pos="192" pan="0" len="12" vol="92" />
          <note key="67" pos="204" pan="0" len="12" vol="84" />
          <note key="70" pos="216" pan="0" len="12" vol="77" />
          <note key="67" pos="228" pan="0" len="12" vol="69" />
          <note key="70" pos="240" pan="0" len="12" vol="61" />
          <note key="67" pos="252" pan="0" len="12" vol="55" />
          <note key="70" pos="264" pan="0" len="12" vol="47" />
          <note key="67" pos="276" pan="0" len="12" vol="39" />
          <note key="70" pos="288" pan="0" len="12" vol="31" />
          <note key="67" pos="300" pan="0" len="12" vol="23" />
          <note key="70" pos="312" pan="0" len="12" vol="16" />
          <note key="67" pos="324" pan="0" len="12" vol="8" />
        </pattern>
        <pattern pos="78336" muted="0" steps="16" name="" type="1">
          <note key="67" pos="0" pan="0" len="168" vol="17" />
          <note key="69" pos="168" pan="0" len="24" vol="17" />
          <note key="70" pos="192" pan="0" len="192" vol="17" />
          <note key="69" pos="384" pan="0" len="192" vol="17" />
          <note key="65" pos="576" pan="0" len="96" vol="17" />
          <note key="63" pos="672" pan="0" len="96" vol="17" />
        </pattern>
      </track>
      <track solo="0" name="5 (Ch12)" type="0" muted="0">
        <instrumenttrack usemasterpitch="1" pitch="0.0" basenote="57" pan="0" pitchrange="12" vol="30">
          <eldata />
          <instrument name="tripleoscillator" />
        </instrumenttrack>
        <pattern pos="259200" muted="0" steps="16" name="" type="1">
          <note key="68" pos="0" pan="0" len="24" vol="59" />
          <note key="67" pos="24" pan="0" len="12" vol="59" />
          <note key="68" pos="48" pan="0" len="36" vol="59" />
          <note key="70" pos="96" pan="0" len="36" vol="59" />
          <note key="72" pos="144" pan="0" len="36" vol="59" />
          <note key="67" pos="192" pan="0" len="48" vol="59" />
          <note key="70" pos="240" pan="0" len="24" vol="59" />
          <note key="68" pos="288" pan="0" len="72" vol="59" />
          <note key="72" pos="384" pan="0" len="72" vol="59" />
          <note key="70" pos="480" pan="0" len="36" vol="59" />
          <note key="72" pos="528" pan="0" len="36" vol="59" />
          <note key="70" pos="576" pan="0" len="48" vol="59" />
          <note key="70" pos="624" pan="0" len="36" vol="59" />
          <note key="68" pos="672" pan="0" len="48" vol="59" />
          <note key="63" pos="720" pan="0" len="36" vol="59" />
        </pattern>
        <pattern pos="258432" muted="0" steps="16" name="" type="1">
          <note key="68" pos="0" pan="0" len="768" vol="2" />
        </pattern>
      </track>
      <track solo="0" name="5 (Ch13)" type="0" muted="0">
        <instrumenttrack usemasterpitch="1" pitch="0.0" basenote="57" pan="0" pitchrange="12" vol="30">
          <eldata />
          <instrument name="tripleoscillator" />
        </instrumenttrack>
        <pattern pos="259200" muted="0" steps="16" name="" type="1">
          <note key="72" pos="0" pan="0" len="24" vol="59" />
          <note key="70" pos="24" pan="0" len="12" vol="59" />
          <note key="72" pos="48" pan="0" len="36" vol="59" />
          <note key="75" pos="96" pan="0" len="36" vol="59" />
          <note key="77" pos="144" pan="0" len="36" vol="59" />
          <note key="70" pos="192" pan="0" len="48" vol="59" />
          <note key="75" pos="240" pan="0" len="24" vol="59" />
          <note key="72" pos="288" pan="0" len="72" vol="59" />
          <note key="75" pos="384" pan="0" len="72" vol="59" />
          <note key="75" pos="480" pan="0" len="36" vol="59" />
          <note key="75" pos="528" pan="0" len="36" vol="59" />
          <note key="75" pos="576" pan="0" len="48" vol="59" />
          <note key="75" pos="624" pan="0" len="36" vol="59" />
          <note key="72" pos="672" pan="0" len="48" vol="59" />
          <note key="67" pos="720" pan="0" len="36" vol="59" />
        </pattern>
        <pattern pos="59904" muted="0" steps="16" name="" type="1">
          <note key="72" pos="48" pan="0" len="12" vol="100" />
          <note key="74" pos="144" pan="0" len="12" vol="100" />
          <note key="75" pos="168" pan="0" len="12" vol="100" />
          <note key="70" pos="240" pan="0" len="12" vol="100" />
          <note key="69" pos="312" pan="0" len="12" vol="100" />
          <note key="60" pos="384" pan="0" len="12" vol="100" />
          <note key="63" pos="816" pan="0" len="12" vol="100" />
          <note key="67" pos="888" pan="0" len="12" vol="100" />
          <note key="65" pos="936" pan="0" len="12" vol="100" />
          <note key="60" pos="960" pan="0" len="12" vol="100" />
          <note key="70" pos="1080" pan="0" len="12" vol="100" />
          <note key="72" pos="1128" pan="0" len="12" vol="100" />
          <note key="69" pos="1152" pan="0" len="12" vol="100" />
          <note key="70" pos="1272" pan="0" len="12" vol="100" />
          <note key="69" pos="1296" pan="0" len="12" vol="100" />
          <note key="60" pos="1320" pan="0" len="12" vol="100" />
        </pattern>
        <pattern pos="62976" muted="0" steps="16" name="" type="1">
          <note key="60" pos="48" pan="0" len="12" vol="100" />
          <note key="62" pos="144" pan="0" len="12" vol="100" />
          <note key="63" pos="168" pan="0" len="12" vol="100" />
          <note key="58" pos="240" pan="0" len="12" vol="100" />
          <note key="57" pos="312" pan="0" len="12" vol="100" />
          <note key="60" pos="384" pan="0" len="12" vol="100" />
          <note key="60" pos="816" pan="0" len="12" vol="100" />
          <note key="62" pos="912" pan="0" len="12" vol="100" />
          <note key="63" pos="936" pan="0" len="12" vol="100" />
          <note key="67" pos="1008" pan="0" len="12" vol="100" />
          <note key="69" pos="1080" pan="0" len="12" vol="100" />
          <note key="65" pos="1152" pan="0" len="12" vol="100" />
          <note key="60" pos="1224" pan="0" len="12" vol="100" />
          <note key="60" pos="1320" pan="0" len="12" vol="100" />
          <note key="63" pos="1344" pan="0" len="12" vol="100" />
          <note key="62" pos="1368" pan="0" len="24" vol="100" />
          <note key="60" pos="1392" pan="0" len="12" vol="100" />
          <note key="58" pos="1416" pan="0" len="12" vol="100" />
          <note key="55" pos="1464" pan="0" len="12" vol="100" />
          <note key="58" pos="1512" pan="0" len="12" vol="100" />
        </pattern>
        <pattern pos="64512" muted="0" steps="16" name="" type="1">
          <note key="24" pos="0" pan="0" len="12" vol="100" />
          <note key="72" pos="48" pan="0" len="12" vol="100" />
          <note key="70" pos="72" pan="0" len="12" vol="100" />
          <note key="67" pos="96" pan="0" len="12" vol="100" />
          <note key="63" pos="120" pan="0" len="12" vol="100" />
          <note key="65" pos="192" pan="0" len="48" vol="100" />
          <note key="60" pos="264" pan="0" len="72" vol="100" />
          <note key="72" pos="432" pan="0" len="12" vol="100" />
          <note key="70" pos="456" pan="0" len="12" vol="100" />
          <note key="67" pos="480" pan="0" len="12" vol="100" />
          <note key="63" pos="504" pan="0" len="12" vol="100" />
          <note key="70" pos="576" pan="0" len="48" vol="100" />
          <note key="69" pos="672" pan="0" len="48" vol="100" />
          <note key="72" pos="816" pan="0" len="12" vol="100" />
          <note key="70" pos="840" pan="0" len="12" vol="100" />
          <note key="67" pos="864" pan="0" len="12" vol="100" />
          <note key="63" pos="888" pan="0" len="12" vol="100" />
          <note key="65" pos="960" pan="0" len="48" vol="100" />
          <note key="60" pos="1032" pan="0" len="72" vol="100" />
          <note key="58" pos="1128" pan="0" len="12" vol="100" />
          <note key="60" pos="1152" pan="0" len="12" vol="100" />
          <note key="63" pos="1224" pan="0" len="12" vol="100" />
          <note key="67" pos="1272" pan="0" len="36" vol="100" />
          <note key="70" pos="1320" pan="0" len="12" vol="100" />
          <note key="69" pos="1344" pan="0" len="96" vol="100" />
          <note key="60" pos="1440" pan="0" len="12" vol="100" />
        </pattern>
        <pattern pos="66048" muted="0" steps="16" name="" type="1">
          <note key="24" pos="0" pan="0" len="12" vol="100" />
          <note key="72" pos="48" pan="0" len="12" vol="100" />
          <note key="70" pos="72" pan="0" len="12" vol="100" />
          <note key="67" pos="96" pan="0" len="12" vol="100" />
          <note key="63" pos="120" pan="0" len="12" vol="100" />
          <note key="65" pos="192" pan="0" len="48" vol="100" />
          <note key="60" pos="264" pan="0" len="72" vol="100" />
          <note key="72" pos="432" pan="0" len="12" vol="100" />
          <note key="70" pos="456" pan="0" len="12" vol="100" />
          <note key="67" pos="480" pan="0" len="12" vol="100" />
          <note key="63" pos="504" pan="0" len="12" vol="100" />
          <note key="70" pos="576" pan="0" len="48" vol="100" />
          <note key="69" pos="672" pan="0" len="48" vol="100" />
          <note key="72" pos="816" pan="0" len="12" vol="100" />
          <note key="70" pos="840" pan="0" len="12" vol="100" />
          <note key="67" pos="864" pan="0" len="12" vol="100" />
          <note key="63" pos="888" pan="0" len="12" vol="100" />
          <note key="65" pos="960" pan="0" len="48" vol="100" />
          <note key="60" pos="1032" pan="0" len="72" vol="100" />
          <note key="58" pos="1128" pan="0" len="12" vol="100" />
          <note key="60" pos="1152" pan="0" len="12" vol="100" />
          <note key="63" pos="1224" pan="0" len="12" vol="100" />
          <note key="67" pos="1272" pan="0" len="36" vol="100" />
          <note key="70" pos="1320" pan="0" len="12" vol="100" />
          <note key="69" pos="1344" pan="0" len="96" vol="100" />
          <note key="60" pos="1440" pan="0" len="12" vol="100" />
        </pattern>
        <pattern pos="72192" muted="0" steps="16" name="" type="1">
          <note key="60" pos="48" pan="0" len="12" vol="100" />
          <note key="62" pos="144" pan="0" len="12" vol="100" />
          <note key="63" pos="168" pan="0" len="12" vol="100" />
          <note key="58" pos="240" pan="0" len="12" vol="100" />
          <note key="57" pos="312" pan="0" len="12" vol="100" />
          <note key="60" pos="384" pan="0" len="12" vol="100" />
          <note key="60" pos="816" pan="0" len="12" vol="100" />
          <note key="62" pos="912" pan="0" len="12" vol="100" />
          <note key="63" pos="936" pan="0" len="12" vol="100" />
          <note key="67" pos="1008" pan="0" len="12" vol="100" />
          <note key="69" pos="1080" pan="0" len="12" vol="100" />
          <note key="65" pos="1152" pan="0" len="12" vol="100" />
          <note key="60" pos="1224" pan="0" len="12" vol="100" />
          <note key="60" pos="1320" pan="0" len="12" vol="100" />
          <note key="63" pos="1344" pan="0" len="12" vol="100" />
          <note key="62" pos="1368" pan="0" len="24" vol="100" />
          <note key="60" pos="1392" pan="0" len="12" vol="100" />
          <note key="58" pos="1416" pan="0" len="12" vol="100" />
          <note key="55" pos="1464" pan="0" len="12" vol="100" />
          <note key="58" pos="1512" pan="0" len="12" vol="100" />
        </pattern>
        <pattern pos="73728" muted="0" steps="16" name="" type="1">
          <note key="60" pos="0" pan="0" len="12" vol="100" />
          <note key="65" pos="24" pan="0" len="12" vol="100" />
          <note key="67" pos="48" pan="0" len="12" vol="100" />
          <note key="70" pos="72" pan="0" len="12" vol="100" />
          <note key="60" pos="96" pan="0" len="12" vol="100" />
          <note key="65" pos="120" pan="0" len="12" vol="100" />
          <note key="67" pos="144" pan="0" len="12" vol="100" />
          <note key="70" pos="168" pan="0" len="12" vol="100" />
          <note key="60" pos="192" pan="0" len="12" vol="100" />
          <note key="65" pos="216" pan="0" len="12" vol="100" />
          <note key="67" pos="240" pan="0" len="12" vol="100" />
          <note key="72" pos="264" pan="0" len="12" vol="100" />
          <note key="60" pos="288" pan="0" len="12" vol="100" />
          <note key="65" pos="312" pan="0" len="12" vol="100" />
          <note key="67" pos="336" pan="0" len="12" vol="100" />
          <note key="72" pos="360" pan="0" len="12" vol="100" />
          <note key="60" pos="384" pan="0" len="12" vol="100" />
          <note key="65" pos="408" pan="0" len="12" vol="100" />
          <note key="67" pos="432" pan="0" len="12" vol="100" />
          <note key="70" pos="456" pan="0" len="12" vol="100" />
          <note key="60" pos="480" pan="0" len="12" vol="100" />
          <note key="65" pos="504" pan="0" len="12" vol="100" />
          <note key="67" pos="528" pan="0" len="12" vol="100" />
          <note key="70" pos="552" pan="0" len="12" vol="100" />
          <note key="60" pos="576" pan="0" len="12" vol="100" />
          <note key="65" pos="600" pan="0" len="12" vol="100" />
          <note key="67" pos="624" pan="0" len="12" vol="100" />
          <note key="72" pos="648" pan="0" len="12" vol="100" />
          <note key="60" pos="672" pan="0" len="12" vol="100" />
          <note key="65" pos="696" pan="0" len="12" vol="100" />
          <note key="67" pos="720" pan="0" len="12" vol="100" />
          <note key="72" pos="744" pan="0" len="12" vol="100" />
          <note key="60" pos="768" pan="0" len="12" vol="100" />
          <note key="65" pos="792" pan="0" len="12" vol="100" />
          <note key="67" pos="816" pan="0" len="12" vol="100" />
          <note key="70" pos="840" pan="0" len="12" vol="100" />
          <note key="60" pos="864" pan="0" len="12" vol="100" />
          <note key="65" pos="888" pan="0" len="12" vol="100" />
          <note key="67" pos="912" pan="0" len="12" vol="100" />
          <note key="70" pos="936" pan="0" len="12" vol="100" />
          <note key="60" pos="960" pan="0" len="12" vol="100" />
          <note key="65" pos="984" pan="0" len="12" vol="100" />
          <note key="67" pos="1008" pan="0" len="12" vol="100" />
          <note key="72" pos="1032" pan="0" len="12" vol="100" />
          <note key="60" pos="1056" pan="0" len="12" vol="100" />
          <note key="65" pos="1080" pan="0" len="12" vol="100" />
          <note key="67" pos="1104" pan="0" len="12" vol="100" />
          <note key="72" pos="1128" pan="0" len="12" vol="100" />
          <note key="60" pos="1152" pan="0" len="12" vol="100" />
          <note key="65" pos="1176" pan="0" len="12" vol="100" />
          <note key="67" pos="1200" pan="0" len="12" vol="100" />
          <note key="70" pos="1224" pan="0" len="12" vol="100" />
          <note key="60" pos="1248" pan="0" len="12" vol="100" />
          <note key="65" pos="1272" pan="0" len="12" vol="100" />
          <note key="67" pos="1296" pan="0" len="12" vol="100" />
          <note key="70" pos="1320" pan="0" len="12" vol="100" />
          <note key="60" pos="1344" pan="0" len="12" vol="100" />
          <note key="65" pos="1368" pan="0" len="12" vol="100" />
          <note key="67" pos="1392" pan="0" len="12" vol="100" />
          <note key="72" pos="1416" pan="0" len="12" vol="100" />
          <note key="60" pos="1440" pan="0" len="12" vol="100" />
          <note key="65" pos="1464" pan="0" len="12" vol="100" />
          <note key="67" pos="1488" pan="0" len="12" vol="100" />
          <note key="72" pos="1512" pan="0" len="12" vol="100" />
        </pattern>
        <pattern pos="75264" muted="0" steps="16" name="" type="1">
          <note key="60" pos="0" pan="0" len="12" vol="100" />
          <note key="65" pos="24" pan="0" len="12" vol="98" />
          <note key="67" pos="48" pan="0" len="12" vol="97" />
          <note key="70" pos="72" pan="0" len="12" vol="95" />
          <note key="60" pos="96" pan="0" len="12" vol="94" />
          <note key="65" pos="120" pan="0" len="12" vol="92" />
          <note key="67" pos="144" pan="0" len="12" vol="91" />
          <note key="70" pos="168" pan="0" len="12" vol="89" />
          <note key="60" pos="192" pan="0" len="12" vol="88" />
          <note key="65" pos="216" pan="0" len="12" vol="86" />
          <note key="67" pos="240" pan="0" len="12" vol="84" />
          <note key="72" pos="264" pan="0" len="12" vol="83" />
          <note key="60" pos="288" pan="0" len="12" vol="81" />
          <note key="65" pos="312" pan="0" len="12" vol="80" />
          <note key="67" pos="336" pan="0" len="12" vol="78" />
          <note key="72" pos="360" pan="0" len="12" vol="77" />
          <note key="60" pos="384" pan="0" len="12" vol="75" />
          <note key="65" pos="408" pan="0" len="12" vol="73" />
          <note key="67" pos="432" pan="0" len="12" vol="72" />
          <note key="70" pos="456" pan="0" len="12" vol="70" />
          <note key="60" pos="480" pan="0" len="12" vol="69" />
          <note key="65" pos="504" pan="0" len="12" vol="67" />
          <note key="67" pos="528" pan="0" len="12" vol="66" />
          <note key="70" pos="552" pan="0" len="12" vol="64" />
          <note key="60" pos="576" pan="0" len="12" vol="62" />
          <note key="65" pos="600" pan="0" len="12" vol="61" />
          <note key="67" pos="624" pan="0" len="12" vol="59" />
          <note key="72" pos="648" pan="0" len="12" vol="58" />
          <note key="60" pos="672" pan="0" len="12" vol="56" />
          <note key="65" pos="696" pan="0" len="12" vol="55" />
          <note key="67" pos="720" pan="0" len="12" vol="53" />
          <note key="72" pos="744" pan="0" len="12" vol="52" />
          <note key="60" pos="768" pan="0" len="12" vol="50" />
          <note key="65" pos="792" pan="0" len="12" vol="48" />
          <note key="67" pos="816" pan="0" len="12" vol="47" />
          <note key="70" pos="840" pan="0" len="12" vol="45" />
          <note key="60" pos="864" pan="0" len="12" vol="44" />
          <note key="65" pos="888" pan="0" len="12" vol="42" />
          <note key="67" pos="912" pan="0" len="12" vol="41" />
          <note key="70" pos="936" pan="0" len="12" vol="39" />
          <note key="60" pos="960" pan="0" len="12" vol="38" />
          <note key="65" pos="984" pan="0" len="12" vol="36" />
          <note key="67" pos="1008" pan="0" len="12" vol="34" />
          <note key="72" pos="1032" pan="0" len="12" vol="33" />
          <note key="60" pos="1056" pan="0" len="12" vol="31" />
          <note key="65" pos="1080" pan="0" len="12" vol="30" />
          <note key="67" pos="1104" pan="0" len="12" vol="28" />
          <note key="72" pos="1128" pan="0" len="12" vol="27" />
          <note key="60" pos="1152" pan="0" len="12" vol="25" />
          <note key="65" pos="1176" pan="0" len="12" vol="23" />
          <note key="67" pos="1200" pan="0" len="12" vol="22" />
          <note key="70" pos="1224" pan="0" len="12" vol="20" />
          <note key="60" pos="1248" pan="0" len="12" vol="19" />
          <note key="65" pos="1272" pan="0" len="12" vol="17" />
          <note key="67" pos="1296" pan="0" len="12" vol="16" />
          <note key="70" pos="1320" pan="0" len="12" vol="14" />
          <note key="60" pos="1344" pan="0" len="12" vol="12" />
          <note key="65" pos="1368" pan="0" len="12" vol="11" />
          <note key="67" pos="1392" pan="0" len="12" vol="9" />
          <note key="72" pos="1416" pan="0" len="12" vol="8" />
          <note key="60" pos="1440" pan="0" len="12" vol="6" />
          <note key="65" pos="1464" pan="0" len="12" vol="5" />
          <note key="67" pos="1488" pan="0" len="12" vol="3" />
          <note key="72" pos="1512" pan="0" len="12" vol="3" />
        </pattern>
        <pattern pos="258432" muted="0" steps="16" name="" type="1">
          <note key="72" pos="0" pan="0" len="768" vol="2" />
        </pattern>
      </track>
      <track solo="0" name="5 (Ch14)" type="0" muted="0">
        <instrumenttrack usemasterpitch="1" pitch="0.0" basenote="57" pan="0" pitchrange="12" vol="30">
          <eldata />
          <instrument name="tripleoscillator" />
        </instrumenttrack>
        <pattern pos="259200" muted="0" steps="16" name="" type="1">
          <note key="77" pos="0" pan="0" len="24" vol="59" />
          <note key="75" pos="24" pan="0" len="12" vol="59" />
          <note key="77" pos="48" pan="0" len="36" vol="59" />
          <note key="79" pos="96" pan="0" len="36" vol="59" />
          <note key="80" pos="144" pan="0" len="36" vol="59" />
          <note key="75" pos="192" pan="0" len="48" vol="59" />
          <note key="79" pos="240" pan="0" len="24" vol="59" />
          <note key="77" pos="288" pan="0" len="72" vol="59" />
          <note key="68" pos="384" pan="0" len="72" vol="59" />
          <note key="79" pos="480" pan="0" len="36" vol="59" />
          <note key="68" pos="528" pan="0" len="36" vol="59" />
          <note key="77" pos="576" pan="0" len="48" vol="59" />
          <note key="79" pos="624" pan="0" len="36" vol="59" />
          <note key="77" pos="672" pan="0" len="48" vol="59" />
          <note key="70" pos="720" pan="0" len="36" vol="59" />
        </pattern>
        <pattern pos="36480" muted="0" steps="16" name="" type="1">
          <note key="60" pos="0" pan="0" len="12" vol="2" />
          <note key="72" pos="12" pan="0" len="228" vol="100" />
          <note key="70" pos="288" pan="0" len="204" vol="100" />
        </pattern>
        <pattern pos="59904" muted="0" steps="16" name="" type="1">
          <note key="48" pos="384" pan="0" len="12" vol="100" />
        </pattern>
        <pattern pos="62976" muted="0" steps="16" name="" type="1">
          <note key="48" pos="384" pan="0" len="12" vol="100" />
        </pattern>
        <pattern pos="64512" muted="0" steps="16" name="" type="1">
          <note key="36" pos="0" pan="0" len="12" vol="100" />
          <note key="36" pos="384" pan="0" len="12" vol="100" />
          <note key="48" pos="1152" pan="0" len="12" vol="100" />
        </pattern>
        <pattern pos="66048" muted="0" steps="16" name="" type="1">
          <note key="36" pos="0" pan="0" len="12" vol="100" />
          <note key="36" pos="384" pan="0" len="12" vol="100" />
          <note key="48" pos="1152" pan="0" len="12" vol="100" />
        </pattern>
        <pattern pos="67584" muted="0" steps="16" name="" type="1">
          <note key="48" pos="384" pan="0" len="12" vol="100" />
        </pattern>
        <pattern pos="69120" muted="0" steps="16" name="" type="1">
          <note key="48" pos="384" pan="0" len="12" vol="100" />
        </pattern>
        <pattern pos="72192" muted="0" steps="16" name="" type="1">
          <note key="48" pos="384" pan="0" len="12" vol="100" />
        </pattern>
        <pattern pos="258432" muted="0" steps="16" name="" type="1">
          <note key="75" pos="0" pan="0" len="768" vol="2" />
        </pattern>
      </track>
      <track solo="0" name="6 (Ch1)" type="0" muted="0">
        <instrumenttrack usemasterpitch="1" pitch="0.0" basenote="57" pan="0" pitchrange="12" vol="30">
          <eldata />
          <instrument name="tripleoscillator" />
        </instrumenttrack>
        <pattern pos="139776" muted="0" steps="16" name="" type="1">
          <note key="60" pos="48" pan="0" len="192" vol="100" />
          <note key="65" pos="240" pan="0" len="192" vol="100" />
          <note key="63" pos="432" pan="0" len="192" vol="100" />
          <note key="65" pos="624" pan="0" len="144" vol="100" />
          <note key="67" pos="768" pan="0" len="768" vol="100" />
        </pattern>
        <pattern pos="116736" muted="0" steps="16" name="" type="1">
          <note key="65" pos="0" pan="0" len="192" vol="100" />
          <note key="67" pos="192" pan="0" len="192" vol="100" />
          <note key="68" pos="384" pan="0" len="192" vol="100" />
          <note key="70" pos="576" pan="0" len="96" vol="100" />
          <note key="63" pos="672" pan="0" len="96" vol="100" />
          <note key="65" pos="768" pan="0" len="192" vol="100" />
          <note key="67" pos="960" pan="0" len="192" vol="100" />
          <note key="68" pos="1152" pan="0" len="192" vol="100" />
          <note key="70" pos="1344" pan="0" len="120" vol="100" />
          <note key="63" pos="1464" pan="0" len="72" vol="100" />
        </pattern>
        <pattern pos="118272" muted="0" steps="16" name="" type="1">
          <note key="60" pos="0" pan="0" len="192" vol="100" />
          <note key="62" pos="192" pan="0" len="192" vol="100" />
          <note key="63" pos="384" pan="0" len="192" vol="100" />
          <note key="65" pos="576" pan="0" len="96" vol="100" />
          <note key="58" pos="672" pan="0" len="96" vol="100" />
          <note key="60" pos="768" pan="0" len="192" vol="100" />
          <note key="62" pos="960" pan="0" len="192" vol="100" />
          <note key="63" pos="1152" pan="0" len="192" vol="100" />
          <note key="65" pos="1344" pan="0" len="96" vol="100" />
          <note key="63" pos="1440" pan="0" len="96" vol="100" />
        </pattern>
      </track>
      <track solo="0" name="6 (Ch2)" type="0" muted="0">
        <instrumenttrack usemasterpitch="1" pitch="0.0" basenote="57" pan="0" pitchrange="12" vol="30">
          <eldata />
          <instrument name="tripleoscillator" />
        </instrumenttrack>
        <pattern pos="259200" muted="0" steps="16" name="" type="1">
          <note key="70" pos="288" pan="0" len="96" vol="69" />
          <note key="68" pos="672" pan="0" len="48" vol="69" />
          <note key="72" pos="720" pan="0" len="24" vol="69" />
          <note key="63" pos="744" pan="0" len="24" vol="69" />
        </pattern>
        <pattern pos="139008" muted="0" steps="16" name="" type="1">
          <note key="65" pos="336" pan="0" len="96" vol="69" />
          <note key="65" pos="720" pan="0" len="48" vol="69" />
        </pattern>
        <pattern pos="236928" muted="0" steps="16" name="" type="1">
          <note key="67" pos="0" pan="0" len="144" vol="100" />
          <note key="72" pos="144" pan="0" len="96" vol="100" />
          <note key="74" pos="240" pan="0" len="48" vol="100" />
          <note key="67" pos="288" pan="0" len="144" vol="100" />
          <note key="58" pos="432" pan="0" len="96" vol="100" />
        </pattern>
      </track>
      <track solo="0" name="6 (Ch3)" type="0" muted="0">
        <instrumenttrack usemasterpitch="1" pitch="0.0" basenote="57" pan="0" pitchrange="12" vol="30">
          <eldata />
          <instrument name="tripleoscillator" />
        </instrumenttrack>
        <pattern pos="211968" muted="0" steps="16" name="" type="1">
          <note key="69" pos="0" pan="0" len="240" vol="100" />
          <note key="72" pos="384" pan="0" len="288" vol="100" />
          <note key="64" pos="768" pan="0" len="360" vol="100" />
        </pattern>
        <pattern pos="202752" muted="0" steps="16" name="" type="1">
          <note key="62" pos="1296" pan="0" len="48" vol="100" />
          <note key="60" pos="1344" pan="0" len="96" vol="100" />
          <note key="59" pos="1440" pan="0" len="96" vol="100" />
        </pattern>
        <pattern pos="204288" muted="0" steps="16" name="" type="1">
          <note key="57" pos="0" pan="0" len="324" vol="100" />
          <note key="60" pos="384" pan="0" len="288" vol="100" />
          <note key="64" pos="768" pan="0" len="312" vol="100" />
        </pattern>
        <pattern pos="205824" muted="0" steps="16" name="" type="1">
          <note key="69" pos="0" pan="0" len="240" vol="100" />
          <note key="72" pos="384" pan="0" len="288" vol="100" />
          <note key="64" pos="768" pan="0" len="360" vol="100" />
        </pattern>
        <pattern pos="208896" muted="0" steps="16" name="" type="1">
          <note key="62" pos="1296" pan="0" len="48" vol="100" />
          <note key="60" pos="1344" pan="0" len="96" vol="100" />
          <note key="59" pos="1440" pan="0" len="96" vol="100" />
        </pattern>
        <pattern pos="210432" muted="0" steps="16" name="" type="1">
          <note key="57" pos="0" pan="0" len="324" vol="100" />
          <note key="60" pos="384" pan="0" len="288" vol="100" />
          <note key="64" pos="768" pan="0" len="312" vol="100" />
        </pattern>
      </track>
      <track solo="0" name="6 (Ch4)" type="0" muted="0">
        <instrumenttrack usemasterpitch="1" pitch="0.0" basenote="57" pan="0" pitchrange="12" vol="30">
          <eldata />
          <instrument name="tripleoscillator" />
        </instrumenttrack>
        <pattern pos="184704" muted="0" steps="16" name="" type="1">
          <note key="60" pos="48" pan="0" len="96" vol="100" />
          <note key="60" pos="192" pan="0" len="96" vol="100" />
          <note key="60" pos="336" pan="0" len="96" vol="100" />
          <note key="60" pos="480" pan="0" len="96" vol="100" />
          <note key="60" pos="624" pan="0" len="96" vol="100" />
          <note key="60" pos="768" pan="0" len="96" vol="100" />
          <note key="60" pos="912" pan="0" len="48" vol="100" />
          <note key="62" pos="960" pan="0" len="48" vol="100" />
          <note key="64" pos="1056" pan="0" len="72" vol="100" />
        </pattern>
        <pattern pos="10752" muted="0" steps="16" name="" type="1">
          <note key="60" pos="576" pan="0" len="120" vol="100" />
        </pattern>
        <pattern pos="34176" muted="0" steps="16" name="" type="1">
          <note key="63" pos="288" pan="0" len="288" vol="100" />
          <note key="63" pos="864" pan="0" len="192" vol="100" />
        </pattern>
        <pattern pos="36480" muted="0" steps="16" name="" type="1">
          <note key="60" pos="288" pan="0" len="288" vol="100" />
          <note key="60" pos="864" pan="0" len="192" vol="100" />
        </pattern>
        <pattern pos="37632" muted="0" steps="16" name="" type="1">
          <note key="60" pos="288" pan="0" len="192" vol="100" />
          <note key="65" pos="576" pan="0" len="384" vol="100" />
          <note key="67" pos="1056" pan="0" len="96" vol="100" />
        </pattern>
        <pattern pos="92160" muted="0" steps="16" name="" type="1">
          <note key="60" pos="240" pan="0" len="96" vol="100" />
          <note key="60" pos="1008" pan="0" len="120" vol="100" />
        </pattern>
        <pattern pos="176640" muted="0" steps="16" name="" type="1">
          <note key="60" pos="48" pan="0" len="96" vol="100" />
          <note key="60" pos="192" pan="0" len="96" vol="100" />
          <note key="60" pos="336" pan="0" len="96" vol="100" />
          <note key="60" pos="480" pan="0" len="96" vol="100" />
          <note key="60" pos="624" pan="0" len="96" vol="100" />
          <note key="60" pos="768" pan="0" len="96" vol="100" />
          <note key="60" pos="912" pan="0" len="96" vol="100" />
          <note key="60" pos="1056" pan="0" len="96" vol="100" />
        </pattern>
        <pattern pos="177792" muted="0" steps="16" name="" type="1">
          <note key="60" pos="48" pan="0" len="96" vol="100" />
          <note key="60" pos="192" pan="0" len="96" vol="100" />
          <note key="60" pos="336" pan="0" len="96" vol="100" />
          <note key="60" pos="480" pan="0" len="96" vol="100" />
          <note key="60" pos="624" pan="0" len="96" vol="100" />
          <note key="60" pos="768" pan="0" len="96" vol="100" />
          <note key="60" pos="912" pan="0" len="48" vol="100" />
          <note key="62" pos="960" pan="0" len="48" vol="100" />
          <note key="64" pos="1056" pan="0" len="72" vol="100" />
        </pattern>
        <pattern pos="178944" muted="0" steps="16" name="" type="1">
          <note key="60" pos="48" pan="0" len="96" vol="100" />
          <note key="60" pos="192" pan="0" len="96" vol="100" />
          <note key="60" pos="336" pan="0" len="96" vol="100" />
          <note key="60" pos="480" pan="0" len="96" vol="100" />
          <note key="60" pos="624" pan="0" len="96" vol="100" />
          <note key="60" pos="768" pan="0" len="96" vol="100" />
          <note key="60" pos="912" pan="0" len="96" vol="100" />
          <note key="60" pos="1056" pan="0" len="96" vol="100" />
        </pattern>
        <pattern pos="180096" muted="0" steps="16" name="" type="1">
          <note key="60" pos="48" pan="0" len="96" vol="100" />
          <note key="60" pos="192" pan="0" len="96" vol="100" />
          <note key="60" pos="336" pan="0" len="96" vol="100" />
          <note key="60" pos="480" pan="0" len="96" vol="100" />
          <note key="60" pos="624" pan="0" len="96" vol="100" />
          <note key="60" pos="768" pan="0" len="96" vol="100" />
          <note key="60" pos="912" pan="0" len="48" vol="100" />
          <note key="62" pos="960" pan="0" len="48" vol="100" />
          <note key="64" pos="1056" pan="0" len="72" vol="100" />
        </pattern>
        <pattern pos="181248" muted="0" steps="16" name="" type="1">
          <note key="64" pos="48" pan="0" len="96" vol="100" />
          <note key="67" pos="192" pan="0" len="96" vol="100" />
          <note key="60" pos="336" pan="0" len="96" vol="100" />
          <note key="57" pos="480" pan="0" len="96" vol="100" />
          <note key="64" pos="624" pan="0" len="96" vol="100" />
          <note key="67" pos="768" pan="0" len="96" vol="100" />
          <note key="60" pos="912" pan="0" len="96" vol="100" />
          <note key="55" pos="1056" pan="0" len="96" vol="100" />
        </pattern>
        <pattern pos="182400" muted="0" steps="16" name="" type="1">
          <note key="64" pos="48" pan="0" len="96" vol="100" />
          <note key="67" pos="192" pan="0" len="96" vol="100" />
          <note key="60" pos="336" pan="0" len="96" vol="100" />
          <note key="57" pos="480" pan="0" len="96" vol="100" />
          <note key="64" pos="624" pan="0" len="96" vol="100" />
          <note key="67" pos="768" pan="0" len="96" vol="100" />
          <note key="60" pos="912" pan="0" len="96" vol="100" />
          <note key="62" pos="1056" pan="0" len="96" vol="100" />
        </pattern>
        <pattern pos="183552" muted="0" steps="16" name="" type="1">
          <note key="64" pos="48" pan="0" len="96" vol="100" />
          <note key="60" pos="192" pan="0" len="96" vol="100" />
          <note key="64" pos="336" pan="0" len="96" vol="100" />
          <note key="60" pos="480" pan="0" len="96" vol="100" />
          <note key="64" pos="624" pan="0" len="96" vol="100" />
          <note key="60" pos="768" pan="0" len="96" vol="100" />
          <note key="62" pos="912" pan="0" len="96" vol="100" />
          <note key="60" pos="1056" pan="0" len="96" vol="100" />
        </pattern>
      </track>
      <track solo="0" name="6 (Ch7)" type="0" muted="0">
        <instrumenttrack usemasterpitch="1" pitch="0.0" basenote="57" pan="0" pitchrange="12" vol="30">
          <eldata />
          <instrument name="tripleoscillator" />
        </instrumenttrack>
        <pattern pos="193536" muted="0" steps="16" name="" type="1">
          <note key="40" pos="96" pan="0" len="336" vol="100" />
        </pattern>
        <pattern pos="188928" muted="0" steps="16" name="" type="1">
          <note key="40" pos="96" pan="0" len="336" vol="100" />
        </pattern>
      </track>
      <track solo="0" name="6 (Ch8)" type="0" muted="0">
        <instrumenttrack usemasterpitch="1" pitch="0.0" basenote="57" pan="0" pitchrange="12" vol="30">
          <eldata />
          <instrument name="tripleoscillator" />
        </instrumenttrack>
        <pattern pos="193536" muted="0" steps="16" name="" type="1">
          <note key="43" pos="96" pan="0" len="336" vol="100" />
        </pattern>
        <pattern pos="16128" muted="0" steps="16" name="" type="1">
          <note key="60" pos="1344" pan="0" len="144" vol="100" />
        </pattern>
        <pattern pos="25344" muted="0" steps="16" name="" type="1">
          <note key="60" pos="0" pan="0" len="768" vol="100" />
          <note key="60" pos="768" pan="0" len="768" vol="100" />
        </pattern>
        <pattern pos="26880" muted="0" steps="16" name="" type="1">
          <note key="63" pos="0" pan="0" len="768" vol="100" />
          <note key="65" pos="768" pan="0" len="768" vol="100" />
        </pattern>
        <pattern pos="28416" muted="0" steps="16" name="" type="1">
          <note key="60" pos="0" pan="0" len="576" vol="100" />
          <note key="60" pos="576" pan="0" len="576" vol="100" />
        </pattern>
        <pattern pos="188928" muted="0" steps="16" name="" type="1">
          <note key="43" pos="96" pan="0" len="336" vol="100" />
        </pattern>
      </track>
      <track solo="0" name="6 (Ch11)" type="0" muted="0">
        <instrumenttrack usemasterpitch="1" pitch="0.0" basenote="57" pan="0" pitchrange="12" vol="30">
          <eldata />
          <instrument name="tripleoscillator" />
        </instrumenttrack>
        <pattern pos="267648" muted="0" steps="16" name="" type="1">
          <note key="80" pos="1080" pan="0" len="72" vol="100" />
          <note key="70" pos="1152" pan="0" len="192" vol="100" />
        </pattern>
      </track>
      <track solo="0" name="9 (Ch1)" type="0" muted="0">
        <instrumenttrack usemasterpitch="1" pitch="0.0" basenote="57" pan="0" pitchrange="12" vol="30">
          <eldata />
          <instrument name="tripleoscillator" />
        </instrumenttrack>
        <pattern pos="235200" muted="0" steps="16" name="" type="1">
          <note key="43" pos="96" pan="0" len="24" vol="100" />
          <note key="41" pos="288" pan="0" len="24" vol="100" />
          <note key="39" pos="480" pan="0" len="24" vol="100" />
          <note key="41" pos="720" pan="0" len="24" vol="100" />
          <note key="43" pos="864" pan="0" len="24" vol="100" />
          <note key="41" pos="1056" pan="0" len="24" vol="100" />
          <note key="39" pos="1248" pan="0" len="24" vol="100" />
        </pattern>
        <pattern pos="216768" muted="0" steps="16" name="" type="1">
          <note key="43" pos="96" pan="0" len="24" vol="100" />
          <note key="41" pos="288" pan="0" len="24" vol="100" />
          <note key="39" pos="480" pan="0" len="24" vol="100" />
          <note key="41" pos="720" pan="0" len="24" vol="100" />
          <note key="43" pos="864" pan="0" len="24" vol="100" />
          <note key="41" pos="1056" pan="0" len="24" vol="100" />
          <note key="39" pos="1248" pan="0" len="24" vol="100" />
          <note key="41" pos="1488" pan="0" len="24" vol="100" />
        </pattern>
        <pattern pos="218304" muted="0" steps="16" name="" type="1">
          <note key="43" pos="96" pan="0" len="24" vol="100" />
          <note key="41" pos="288" pan="0" len="24" vol="100" />
          <note key="39" pos="480" pan="0" len="24" vol="100" />
          <note key="41" pos="720" pan="0" len="24" vol="100" />
          <note key="43" pos="864" pan="0" len="24" vol="100" />
          <note key="41" pos="1056" pan="0" len="24" vol="100" />
          <note key="39" pos="1248" pan="0" len="24" vol="100" />
        </pattern>
        <pattern pos="219840" muted="0" steps="16" name="" type="1">
          <note key="43" pos="96" pan="0" len="24" vol="100" />
          <note key="41" pos="288" pan="0" len="24" vol="100" />
          <note key="39" pos="480" pan="0" len="24" vol="100" />
          <note key="41" pos="720" pan="0" len="24" vol="100" />
          <note key="43" pos="864" pan="0" len="24" vol="100" />
          <note key="41" pos="1056" pan="0" len="24" vol="100" />
          <note key="39" pos="1248" pan="0" len="24" vol="100" />
        </pattern>
        <pattern pos="224448" muted="0" steps="16" name="" type="1">
          <note key="43" pos="96" pan="0" len="24" vol="100" />
          <note key="41" pos="288" pan="0" len="24" vol="100" />
          <note key="39" pos="480" pan="0" len="24" vol="100" />
          <note key="41" pos="720" pan="0" len="24" vol="100" />
          <note key="43" pos="864" pan="0" len="24" vol="100" />
          <note key="41" pos="1056" pan="0" len="24" vol="100" />
          <note key="39" pos="1248" pan="0" len="24" vol="100" />
        </pattern>
        <pattern pos="225984" muted="0" steps="16" name="" type="1">
          <note key="43" pos="96" pan="0" len="24" vol="100" />
          <note key="41" pos="288" pan="0" len="24" vol="100" />
          <note key="39" pos="480" pan="0" len="24" vol="100" />
          <note key="41" pos="720" pan="0" len="24" vol="100" />
          <note key="43" pos="864" pan="0" len="24" vol="100" />
          <note key="41" pos="1056" pan="0" len="24" vol="100" />
          <note key="39" pos="1248" pan="0" len="24" vol="100" />
        </pattern>
        <pattern pos="230592" muted="0" steps="16" name="" type="1">
          <note key="43" pos="96" pan="0" len="12" vol="100" />
          <note key="41" pos="288" pan="0" len="12" vol="100" />
          <note key="39" pos="480" pan="0" len="12" vol="100" />
          <note key="41" pos="672" pan="0" len="12" vol="100" />
          <note key="36" pos="864" pan="0" len="12" vol="100" />
          <note key="38" pos="1056" pan="0" len="12" vol="100" />
          <note key="39" pos="1248" pan="0" len="12" vol="100" />
          <note key="41" pos="1440" pan="0" len="12" vol="100" />
        </pattern>
        <pattern pos="232128" muted="0" steps="16" name="" type="1">
          <note key="43" pos="96" pan="0" len="12" vol="100" />
          <note key="41" pos="288" pan="0" len="12" vol="100" />
          <note key="39" pos="480" pan="0" len="12" vol="100" />
          <note key="41" pos="672" pan="0" len="12" vol="100" />
          <note key="36" pos="864" pan="0" len="12" vol="100" />
          <note key="41" pos="1056" pan="0" len="12" vol="100" />
          <note key="31" pos="1248" pan="0" len="12" vol="100" />
          <note key="31" pos="1440" pan="0" len="12" vol="100" />
        </pattern>
        <pattern pos="233664" muted="0" steps="16" name="" type="1">
          <note key="43" pos="96" pan="0" len="24" vol="100" />
          <note key="41" pos="288" pan="0" len="24" vol="100" />
          <note key="39" pos="480" pan="0" len="24" vol="100" />
          <note key="41" pos="720" pan="0" len="24" vol="100" />
          <note key="43" pos="864" pan="0" len="24" vol="100" />
          <note key="41" pos="1056" pan="0" len="24" vol="100" />
          <note key="39" pos="1248" pan="0" len="24" vol="100" />
        </pattern>
      </track>
      <track solo="0" name="9 (Ch2)" type="0" muted="0">
        <instrumenttrack usemasterpitch="1" pitch="0.0" basenote="57" pan="0" pitchrange="12" vol="30">
          <eldata />
          <instrument name="tripleoscillator" />
        </instrumenttrack>
        <pattern pos="52608" muted="0" steps="16" name="" type="1">
          <note key="60" pos="0" pan="0" len="48" vol="100" />
          <note key="62" pos="48" pan="0" len="24" vol="100" />
          <note key="63" pos="72" pan="0" len="48" vol="100" />
          <note key="67" pos="120" pan="0" len="24" vol="100" />
          <note key="70" pos="144" pan="0" len="72" vol="100" />
          <note key="72" pos="216" pan="0" len="12" vol="100" />
          <note key="74" pos="228" pan="0" len="60" vol="100" />
          <note key="70" pos="288" pan="0" len="120" vol="100" />
          <note key="72" pos="408" pan="0" len="12" vol="100" />
          <note key="70" pos="420" pan="0" len="12" vol="100" />
          <note key="69" pos="432" pan="0" len="144" vol="100" />
          <note key="65" pos="576" pan="0" len="96" vol="100" />
          <note key="60" pos="672" pan="0" len="48" vol="100" />
          <note key="60" pos="720" pan="0" len="240" vol="100" />
        </pattern>
        <pattern pos="3840" muted="0" steps="16" name="" type="1">
          <note key="67" pos="0" pan="0" len="144" vol="61" />
          <note key="65" pos="144" pan="0" len="192" vol="61" />
          <note key="67" pos="336" pan="0" len="240" vol="70" />
          <note key="70" pos="576" pan="0" len="192" vol="70" />
          <note key="67" pos="768" pan="0" len="144" vol="61" />
          <note key="70" pos="912" pan="0" len="216" vol="61" />
          <note key="69" pos="1128" pan="0" len="216" vol="70" />
          <note key="65" pos="1344" pan="0" len="192" vol="70" />
        </pattern>
        <pattern pos="5376" muted="0" steps="16" name="" type="1">
          <note key="69" pos="0" pan="0" len="144" vol="36" />
          <note key="67" pos="144" pan="0" len="192" vol="36" />
          <note key="69" pos="336" pan="0" len="240" vol="42" />
          <note key="67" pos="576" pan="0" len="192" vol="42" />
        </pattern>
        <pattern pos="6144" muted="0" steps="16" name="" type="1">
          <note key="69" pos="0" pan="0" len="144" vol="36" />
          <note key="67" pos="144" pan="0" len="192" vol="36" />
          <note key="69" pos="336" pan="0" len="240" vol="42" />
          <note key="67" pos="576" pan="0" len="192" vol="42" />
        </pattern>
        <pattern pos="45696" muted="0" steps="16" name="" type="1">
          <note key="60" pos="0" pan="0" len="48" vol="100" />
          <note key="62" pos="48" pan="0" len="24" vol="100" />
          <note key="63" pos="72" pan="0" len="48" vol="100" />
          <note key="65" pos="120" pan="0" len="24" vol="100" />
          <note key="67" pos="144" pan="0" len="72" vol="100" />
          <note key="70" pos="216" pan="0" len="12" vol="100" />
          <note key="72" pos="228" pan="0" len="60" vol="100" />
          <note key="70" pos="288" pan="0" len="120" vol="100" />
          <note key="72" pos="408" pan="0" len="12" vol="100" />
          <note key="70" pos="420" pan="0" len="12" vol="100" />
          <note key="69" pos="432" pan="0" len="144" vol="100" />
          <note key="65" pos="576" pan="0" len="144" vol="100" />
          <note key="67" pos="720" pan="0" len="240" vol="100" />
        </pattern>
        <pattern pos="46848" muted="0" steps="16" name="" type="1">
          <note key="60" pos="0" pan="0" len="48" vol="100" />
          <note key="62" pos="48" pan="0" len="24" vol="100" />
          <note key="63" pos="72" pan="0" len="48" vol="100" />
          <note key="67" pos="120" pan="0" len="24" vol="100" />
          <note key="70" pos="144" pan="0" len="72" vol="100" />
          <note key="72" pos="216" pan="0" len="12" vol="100" />
          <note key="74" pos="228" pan="0" len="60" vol="100" />
          <note key="70" pos="288" pan="0" len="120" vol="100" />
          <note key="72" pos="408" pan="0" len="12" vol="100" />
          <note key="70" pos="420" pan="0" len="12" vol="100" />
          <note key="69" pos="432" pan="0" len="144" vol="100" />
          <note key="65" pos="576" pan="0" len="96" vol="100" />
          <note key="60" pos="672" pan="0" len="48" vol="100" />
          <note key="60" pos="720" pan="0" len="240" vol="100" />
        </pattern>
        <pattern pos="51456" muted="0" steps="16" name="" type="1">
          <note key="60" pos="0" pan="0" len="48" vol="100" />
          <note key="62" pos="48" pan="0" len="24" vol="100" />
          <note key="63" pos="72" pan="0" len="48" vol="100" />
          <note key="65" pos="120" pan="0" len="24" vol="100" />
          <note key="67" pos="144" pan="0" len="72" vol="100" />
          <note key="70" pos="216" pan="0" len="12" vol="100" />
          <note key="72" pos="228" pan="0" len="60" vol="100" />
          <note key="70" pos="288" pan="0" len="120" vol="100" />
          <note key="72" pos="408" pan="0" len="12" vol="100" />
          <note key="70" pos="420" pan="0" len="12" vol="100" />
          <note key="69" pos="432" pan="0" len="144" vol="100" />
          <note key="65" pos="576" pan="0" len="144" vol="100" />
          <note key="67" pos="720" pan="0" len="240" vol="100" />
        </pattern>
      </track>
      <track solo="0" name="9 (Ch3)" type="0" muted="0">
        <instrumenttrack usemasterpitch="1" pitch="0.0" basenote="57" pan="0" pitchrange="12" vol="30">
          <eldata />
          <instrument name="tripleoscillator" />
        </instrumenttrack>
        <pattern pos="50304" muted="0" steps="16" name="" type="1">
          <note key="72" pos="0" pan="0" len="144" vol="34" />
          <note key="70" pos="144" pan="0" len="108" vol="34" />
          <note key="75" pos="252" pan="0" len="36" vol="34" />
          <note key="74" pos="288" pan="0" len="144" vol="34" />
          <note key="67" pos="432" pan="0" len="132" vol="34" />
          <note key="72" pos="576" pan="0" len="144" vol="34" />
          <note key="70" pos="720" pan="0" len="96" vol="34" />
          <note key="67" pos="816" pan="0" len="24" vol="34" />
          <note key="70" pos="840" pan="0" len="24" vol="34" />
          <note key="67" pos="864" pan="0" len="288" vol="34" />
        </pattern>
        <pattern pos="43392" muted="0" steps="16" name="" type="1">
          <note key="65" pos="1104" pan="0" len="24" vol="17" />
          <note key="67" pos="1128" pan="0" len="24" vol="34" />
        </pattern>
        <pattern pos="44544" muted="0" steps="16" name="" type="1">
          <note key="72" pos="0" pan="0" len="144" vol="34" />
          <note key="70" pos="144" pan="0" len="108" vol="34" />
          <note key="75" pos="252" pan="0" len="36" vol="34" />
          <note key="74" pos="288" pan="0" len="144" vol="34" />
          <note key="67" pos="432" pan="0" len="132" vol="34" />
          <note key="72" pos="576" pan="0" len="144" vol="34" />
          <note key="70" pos="720" pan="0" len="96" vol="34" />
          <note key="67" pos="816" pan="0" len="24" vol="34" />
          <note key="70" pos="840" pan="0" len="24" vol="34" />
          <note key="67" pos="864" pan="0" len="288" vol="34" />
        </pattern>
        <pattern pos="49152" muted="0" steps="16" name="" type="1">
          <note key="65" pos="1104" pan="0" len="24" vol="17" />
          <note key="67" pos="1128" pan="0" len="24" vol="34" />
        </pattern>
      </track>
      <track solo="0" name="9 (Ch5)" type="0" muted="0">
        <instrumenttrack usemasterpitch="1" pitch="0.0" basenote="57" pan="0" pitchrange="12" vol="30">
          <eldata />
          <instrument name="tripleoscillator" />
        </instrumenttrack>
        <pattern pos="250752" muted="0" steps="16" name="" type="1">
          <note key="53" pos="0" pan="0" len="12" vol="100" />
          <note key="55" pos="12" pan="0" len="84" vol="100" />
          <note key="57" pos="96" pan="0" len="48" vol="100" />
          <note key="58" pos="144" pan="0" len="96" vol="100" />
          <note key="62" pos="240" pan="0" len="96" vol="100" />
          <note key="67" pos="336" pan="0" len="96" vol="100" />
          <note key="62" pos="432" pan="0" len="48" vol="100" />
          <note key="58" pos="480" pan="0" len="96" vol="100" />
          <note key="53" pos="576" pan="0" len="12" vol="100" />
          <note key="55" pos="588" pan="0" len="84" vol="100" />
          <note key="58" pos="672" pan="0" len="96" vol="100" />
          <note key="56" pos="768" pan="0" len="96" vol="100" />
          <note key="58" pos="864" pan="0" len="48" vol="100" />
          <note key="60" pos="912" pan="0" len="96" vol="100" />
          <note key="63" pos="1008" pan="0" len="96" vol="100" />
          <note key="68" pos="1104" pan="0" len="240" vol="100" />
        </pattern>
        <pattern pos="249216" muted="0" steps="16" name="" type="1">
          <note key="58" pos="0" pan="0" len="12" vol="100" />
          <note key="60" pos="12" pan="0" len="60" vol="100" />
          <note key="62" pos="96" pan="0" len="24" vol="100" />
          <note key="63" pos="144" pan="0" len="72" vol="100" />
          <note key="67" pos="240" pan="0" len="72" vol="100" />
          <note key="70" pos="336" pan="0" len="72" vol="100" />
          <note key="65" pos="432" pan="0" len="24" vol="100" />
          <note key="62" pos="480" pan="0" len="72" vol="100" />
          <note key="58" pos="576" pan="0" len="72" vol="100" />
          <note key="62" pos="672" pan="0" len="72" vol="100" />
          <note key="58" pos="768" pan="0" len="96" vol="100" />
          <note key="60" pos="864" pan="0" len="48" vol="100" />
          <note key="62" pos="912" pan="0" len="96" vol="100" />
          <note key="65" pos="1008" pan="0" len="96" vol="100" />
          <note key="70" pos="1104" pan="0" len="240" vol="100" />
        </pattern>
      </track>
      <track solo="0" name="9 (Ch6)" type="0" muted="0">
        <instrumenttrack usemasterpitch="1" pitch="0.0" basenote="57" pan="0" pitchrange="12" vol="30">
          <eldata />
          <instrument name="tripleoscillator" />
        </instrumenttrack>
        <pattern pos="267648" muted="0" steps="16" name="" type="1">
          <note key="56" pos="0" pan="0" len="12" vol="34" />
          <note key="54" pos="12" pan="0" len="12" vol="36" />
          <note key="49" pos="24" pan="0" len="12" vol="39" />
          <note key="51" pos="36" pan="0" len="12" vol="41" />
          <note key="56" pos="48" pan="0" len="12" vol="42" />
          <note key="54" pos="60" pan="0" len="12" vol="45" />
          <note key="49" pos="72" pan="0" len="12" vol="47" />
          <note key="51" pos="84" pan="0" len="12" vol="48" />
          <note key="56" pos="96" pan="0" len="12" vol="50" />
          <note key="54" pos="108" pan="0" len="12" vol="53" />
          <note key="49" pos="120" pan="0" len="12" vol="55" />
          <note key="51" pos="132" pan="0" len="12" vol="56" />
          <note key="56" pos="144" pan="0" len="12" vol="59" />
          <note key="54" pos="156" pan="0" len="12" vol="61" />
          <note key="49" pos="168" pan="0" len="12" vol="62" />
          <note key="51" pos="180" pan="0" len="12" vol="66" />
          <note key="56" pos="192" pan="0" len="12" vol="67" />
          <note key="54" pos="204" pan="0" len="12" vol="69" />
          <note key="49" pos="216" pan="0" len="12" vol="72" />
          <note key="51" pos="228" pan="0" len="12" vol="73" />
          <note key="56" pos="240" pan="0" len="12" vol="75" />
          <note key="54" pos="252" pan="0" len="12" vol="78" />
          <note key="49" pos="264" pan="0" len="12" vol="80" />
          <note key="51" pos="276" pan="0" len="12" vol="81" />
          <note key="56" pos="288" pan="0" len="12" vol="83" />
          <note key="54" pos="300" pan="0" len="12" vol="86" />
          <note key="49" pos="312" pan="0" len="12" vol="88" />
          <note key="51" pos="324" pan="0" len="12" vol="89" />
          <note key="56" pos="336" pan="0" len="12" vol="92" />
          <note key="54" pos="348" pan="0" len="12" vol="94" />
          <note key="49" pos="360" pan="0" len="12" vol="95" />
          <note key="51" pos="372" pan="0" len="12" vol="98" />
          <note key="58" pos="384" pan="0" len="12" vol="100" />
          <note key="56" pos="396" pan="0" len="12" vol="98" />
          <note key="51" pos="408" pan="0" len="12" vol="95" />
          <note key="53" pos="420" pan="0" len="12" vol="94" />
          <note key="58" pos="432" pan="0" len="12" vol="92" />
          <note key="56" pos="444" pan="0" len="12" vol="89" />
          <note key="51" pos="456" pan="0" len="12" vol="88" />
          <note key="53" pos="468" pan="0" len="12" vol="86" />
          <note key="58" pos="480" pan="0" len="12" vol="83" />
          <note key="56" pos="492" pan="0" len="12" vol="81" />
          <note key="51" pos="504" pan="0" len="12" vol="78" />
          <note key="53" pos="516" pan="0" len="12" vol="77" />
          <note key="58" pos="528" pan="0" len="12" vol="75" />
          <note key="56" pos="540" pan="0" len="12" vol="72" />
          <note key="51" pos="552" pan="0" len="12" vol="70" />
          <note key="53" pos="564" pan="0" len="12" vol="69" />
          <note key="58" pos="576" pan="0" len="12" vol="66" />
          <note key="56" pos="588" pan="0" len="12" vol="64" />
          <note key="51" pos="600" pan="0" len="12" vol="62" />
          <note key="53" pos="612" pan="0" len="12" vol="59" />
          <note key="58" pos="624" pan="0" len="12" vol="58" />
          <note key="56" pos="636" pan="0" len="12" vol="56" />
          <note key="51" pos="648" pan="0" len="12" vol="53" />
          <note key="53" pos="660" pan="0" len="12" vol="52" />
          <note key="58" pos="672" pan="0" len="12" vol="48" />
          <note key="56" pos="684" pan="0" len="12" vol="47" />
          <note key="51" pos="696" pan="0" len="12" vol="45" />
          <note key="53" pos="708" pan="0" len="12" vol="42" />
          <note key="58" pos="720" pan="0" len="12" vol="41" />
          <note key="56" pos="732" pan="0" len="12" vol="39" />
          <note key="51" pos="744" pan="0" len="12" vol="36" />
          <note key="53" pos="756" pan="0" len="12" vol="34" />
          <note key="56" pos="768" pan="0" len="12" vol="34" />
          <note key="54" pos="780" pan="0" len="12" vol="36" />
          <note key="49" pos="792" pan="0" len="12" vol="39" />
          <note key="51" pos="804" pan="0" len="12" vol="41" />
          <note key="56" pos="816" pan="0" len="12" vol="42" />
          <note key="54" pos="828" pan="0" len="12" vol="45" />
          <note key="49" pos="840" pan="0" len="12" vol="47" />
          <note key="51" pos="852" pan="0" len="12" vol="48" />
          <note key="56" pos="864" pan="0" len="12" vol="50" />
          <note key="54" pos="876" pan="0" len="12" vol="53" />
          <note key="49" pos="888" pan="0" len="12" vol="55" />
          <note key="51" pos="900" pan="0" len="12" vol="56" />
          <note key="56" pos="912" pan="0" len="12" vol="59" />
          <note key="54" pos="924" pan="0" len="12" vol="61" />
          <note key="49" pos="936" pan="0" len="12" vol="62" />
          <note key="51" pos="948" pan="0" len="12" vol="66" />
          <note key="56" pos="960" pan="0" len="12" vol="67" />
          <note key="54" pos="972" pan="0" len="12" vol="69" />
          <note key="49" pos="984" pan="0" len="12" vol="72" />
          <note key="51" pos="996" pan="0" len="12" vol="73" />
          <note key="56" pos="1008" pan="0" len="12" vol="75" />
          <note key="54" pos="1020" pan="0" len="12" vol="78" />
          <note key="49" pos="1032" pan="0" len="12" vol="80" />
          <note key="51" pos="1044" pan="0" len="12" vol="81" />
          <note key="56" pos="1056" pan="0" len="12" vol="83" />
          <note key="54" pos="1068" pan="0" len="12" vol="86" />
          <note key="49" pos="1080" pan="0" len="12" vol="88" />
          <note key="51" pos="1092" pan="0" len="12" vol="89" />
          <note key="56" pos="1104" pan="0" len="12" vol="92" />
          <note key="54" pos="1116" pan="0" len="12" vol="94" />
          <note key="49" pos="1128" pan="0" len="12" vol="95" />
          <note key="51" pos="1140" pan="0" len="12" vol="98" />
          <note key="58" pos="1152" pan="0" len="12" vol="100" />
          <note key="56" pos="1164" pan="0" len="12" vol="98" />
          <note key="51" pos="1176" pan="0" len="12" vol="95" />
          <note key="53" pos="1188" pan="0" len="12" vol="94" />
          <note key="58" pos="1200" pan="0" len="12" vol="92" />
          <note key="56" pos="1212" pan="0" len="12" vol="89" />
          <note key="51" pos="1224" pan="0" len="12" vol="88" />
          <note key="53" pos="1236" pan="0" len="12" vol="86" />
          <note key="58" pos="1248" pan="0" len="12" vol="83" />
          <note key="56" pos="1260" pan="0" len="12" vol="81" />
          <note key="51" pos="1272" pan="0" len="12" vol="78" />
          <note key="53" pos="1284" pan="0" len="12" vol="77" />
          <note key="58" pos="1296" pan="0" len="12" vol="75" />
          <note key="56" pos="1308" pan="0" len="12" vol="72" />
          <note key="51" pos="1320" pan="0" len="12" vol="70" />
          <note key="53" pos="1332" pan="0" len="12" vol="69" />
          <note key="58" pos="1344" pan="0" len="12" vol="66" />
          <note key="56" pos="1356" pan="0" len="12" vol="64" />
          <note key="51" pos="1368" pan="0" len="12" vol="62" />
          <note key="53" pos="1380" pan="0" len="12" vol="59" />
          <note key="58" pos="1392" pan="0" len="12" vol="58" />
          <note key="56" pos="1404" pan="0" len="12" vol="56" />
          <note key="51" pos="1416" pan="0" len="12" vol="53" />
          <note key="53" pos="1428" pan="0" len="12" vol="52" />
          <note key="58" pos="1440" pan="0" len="12" vol="48" />
          <note key="56" pos="1452" pan="0" len="12" vol="47" />
          <note key="51" pos="1464" pan="0" len="12" vol="45" />
          <note key="53" pos="1476" pan="0" len="12" vol="42" />
          <note key="58" pos="1488" pan="0" len="12" vol="41" />
          <note key="56" pos="1500" pan="0" len="12" vol="39" />
          <note key="51" pos="1512" pan="0" len="12" vol="36" />
          <note key="53" pos="1524" pan="0" len="12" vol="34" />
        </pattern>
        <pattern pos="28416" muted="0" steps="16" name="" type="1">
          <note key="67" pos="0" pan="0" len="12" vol="2" />
          <note key="70" pos="12" pan="0" len="12" vol="6" />
          <note key="67" pos="24" pan="0" len="12" vol="9" />
          <note key="69" pos="36" pan="0" len="12" vol="14" />
          <note key="67" pos="48" pan="0" len="12" vol="17" />
          <note key="63" pos="60" pan="0" len="12" vol="22" />
          <note key="67" pos="72" pan="0" len="12" vol="27" />
          <note key="70" pos="84" pan="0" len="12" vol="30" />
          <note key="67" pos="96" pan="0" len="12" vol="34" />
          <note key="69" pos="108" pan="0" len="12" vol="39" />
          <note key="67" pos="120" pan="0" len="12" vol="42" />
          <note key="63" pos="132" pan="0" len="12" vol="47" />
          <note key="67" pos="144" pan="0" len="12" vol="50" />
          <note key="70" pos="156" pan="0" len="12" vol="55" />
          <note key="67" pos="168" pan="0" len="12" vol="59" />
          <note key="69" pos="180" pan="0" len="12" vol="62" />
          <note key="67" pos="192" pan="0" len="12" vol="67" />
          <note key="63" pos="204" pan="0" len="12" vol="72" />
          <note key="67" pos="216" pan="0" len="12" vol="75" />
          <note key="70" pos="228" pan="0" len="12" vol="80" />
          <note key="67" pos="240" pan="0" len="12" vol="83" />
          <note key="69" pos="252" pan="0" len="12" vol="88" />
          <note key="67" pos="264" pan="0" len="12" vol="92" />
          <note key="63" pos="276" pan="0" len="12" vol="95" />
          <note key="67" pos="288" pan="0" len="12" vol="100" />
          <note key="70" pos="300" pan="0" len="12" vol="95" />
          <note key="67" pos="312" pan="0" len="12" vol="92" />
          <note key="69" pos="324" pan="0" len="12" vol="88" />
          <note key="67" pos="336" pan="0" len="12" vol="83" />
          <note key="63" pos="348" pan="0" len="12" vol="78" />
          <note key="67" pos="360" pan="0" len="12" vol="75" />
          <note key="70" pos="372" pan="0" len="12" vol="70" />
          <note key="67" pos="384" pan="0" len="12" vol="66" />
          <note key="69" pos="396" pan="0" len="12" vol="61" />
          <note key="67" pos="408" pan="0" len="12" vol="58" />
          <note key="63" pos="420" pan="0" len="12" vol="53" />
          <note key="67" pos="432" pan="0" len="12" vol="48" />
          <note key="70" pos="444" pan="0" len="12" vol="44" />
          <note key="67" pos="456" pan="0" len="12" vol="41" />
          <note key="69" pos="468" pan="0" len="12" vol="36" />
          <note key="67" pos="480" pan="0" len="12" vol="31" />
          <note key="63" pos="492" pan="0" len="12" vol="27" />
          <note key="67" pos="504" pan="0" len="12" vol="23" />
          <note key="70" pos="516" pan="0" len="12" vol="19" />
          <note key="67" pos="528" pan="0" len="12" vol="14" />
          <note key="69" pos="540" pan="0" len="12" vol="9" />
          <note key="67" pos="552" pan="0" len="12" vol="6" />
          <note key="63" pos="564" pan="0" len="12" vol="2" />
          <note key="67" pos="576" pan="0" len="12" vol="2" />
          <note key="70" pos="588" pan="0" len="12" vol="6" />
          <note key="67" pos="600" pan="0" len="12" vol="9" />
          <note key="69" pos="612" pan="0" len="12" vol="14" />
          <note key="67" pos="624" pan="0" len="12" vol="17" />
          <note key="63" pos="636" pan="0" len="12" vol="22" />
          <note key="67" pos="648" pan="0" len="12" vol="27" />
          <note key="70" pos="660" pan="0" len="12" vol="30" />
          <note key="67" pos="672" pan="0" len="12" vol="34" />
          <note key="69" pos="684" pan="0" len="12" vol="39" />
          <note key="67" pos="696" pan="0" len="12" vol="42" />
          <note key="63" pos="708" pan="0" len="12" vol="47" />
          <note key="67" pos="720" pan="0" len="12" vol="50" />
          <note key="70" pos="732" pan="0" len="12" vol="55" />
          <note key="67" pos="744" pan="0" len="12" vol="59" />
          <note key="69" pos="756" pan="0" len="12" vol="62" />
          <note key="67" pos="768" pan="0" len="12" vol="67" />
          <note key="63" pos="780" pan="0" len="12" vol="72" />
          <note key="67" pos="792" pan="0" len="12" vol="75" />
          <note key="70" pos="804" pan="0" len="12" vol="80" />
          <note key="67" pos="816" pan="0" len="12" vol="83" />
          <note key="69" pos="828" pan="0" len="12" vol="88" />
          <note key="67" pos="840" pan="0" len="12" vol="92" />
          <note key="63" pos="852" pan="0" len="12" vol="95" />
          <note key="67" pos="864" pan="0" len="12" vol="100" />
          <note key="70" pos="876" pan="0" len="12" vol="95" />
          <note key="67" pos="888" pan="0" len="12" vol="92" />
          <note key="69" pos="900" pan="0" len="12" vol="88" />
          <note key="67" pos="912" pan="0" len="12" vol="83" />
          <note key="63" pos="924" pan="0" len="12" vol="78" />
          <note key="67" pos="936" pan="0" len="12" vol="75" />
          <note key="70" pos="948" pan="0" len="12" vol="70" />
          <note key="67" pos="960" pan="0" len="12" vol="66" />
          <note key="69" pos="972" pan="0" len="12" vol="61" />
          <note key="67" pos="984" pan="0" len="12" vol="58" />
          <note key="63" pos="996" pan="0" len="12" vol="53" />
          <note key="67" pos="1008" pan="0" len="12" vol="48" />
          <note key="70" pos="1020" pan="0" len="12" vol="44" />
          <note key="67" pos="1032" pan="0" len="12" vol="41" />
          <note key="69" pos="1044" pan="0" len="12" vol="36" />
          <note key="67" pos="1056" pan="0" len="12" vol="31" />
          <note key="63" pos="1068" pan="0" len="12" vol="27" />
          <note key="67" pos="1080" pan="0" len="12" vol="23" />
          <note key="70" pos="1092" pan="0" len="12" vol="19" />
          <note key="67" pos="1104" pan="0" len="12" vol="14" />
          <note key="69" pos="1116" pan="0" len="12" vol="9" />
          <note key="67" pos="1128" pan="0" len="12" vol="6" />
          <note key="63" pos="1140" pan="0" len="12" vol="2" />
        </pattern>
        <pattern pos="249216" muted="0" steps="16" name="" type="1">
          <note key="70" pos="0" pan="0" len="12" vol="100" />
          <note key="72" pos="12" pan="0" len="60" vol="100" />
          <note key="74" pos="96" pan="0" len="24" vol="100" />
          <note key="75" pos="144" pan="0" len="72" vol="100" />
          <note key="79" pos="240" pan="0" len="72" vol="100" />
          <note key="82" pos="336" pan="0" len="72" vol="100" />
          <note key="77" pos="432" pan="0" len="24" vol="100" />
          <note key="74" pos="480" pan="0" len="72" vol="100" />
          <note key="70" pos="576" pan="0" len="72" vol="100" />
          <note key="74" pos="672" pan="0" len="72" vol="100" />
          <note key="70" pos="768" pan="0" len="96" vol="100" />
          <note key="72" pos="864" pan="0" len="48" vol="100" />
          <note key="74" pos="912" pan="0" len="96" vol="100" />
          <note key="77" pos="1008" pan="0" len="96" vol="100" />
          <note key="82" pos="1104" pan="0" len="240" vol="100" />
        </pattern>
        <pattern pos="250752" muted="0" steps="16" name="" type="1">
          <note key="65" pos="0" pan="0" len="12" vol="100" />
          <note key="67" pos="12" pan="0" len="84" vol="100" />
          <note key="69" pos="96" pan="0" len="48" vol="100" />
          <note key="70" pos="144" pan="0" len="96" vol="100" />
          <note key="74" pos="240" pan="0" len="96" vol="100" />
          <note key="79" pos="336" pan="0" len="96" vol="100" />
          <note key="74" pos="432" pan="0" len="48" vol="100" />
          <note key="70" pos="480" pan="0" len="96" vol="100" />
          <note key="65" pos="576" pan="0" len="12" vol="100" />
          <note key="67" pos="588" pan="0" len="84" vol="100" />
          <note key="70" pos="672" pan="0" len="96" vol="100" />
          <note key="68" pos="768" pan="0" len="96" vol="100" />
          <note key="70" pos="864" pan="0" len="48" vol="100" />
          <note key="72" pos="912" pan="0" len="96" vol="100" />
          <note key="75" pos="1008" pan="0" len="96" vol="100" />
          <note key="80" pos="1104" pan="0" len="240" vol="100" />
        </pattern>
        <pattern pos="259968" muted="0" steps="16" name="" type="1">
          <note key="53" pos="0" pan="0" len="12" vol="34" />
          <note key="51" pos="12" pan="0" len="12" vol="36" />
          <note key="46" pos="24" pan="0" len="12" vol="39" />
          <note key="48" pos="36" pan="0" len="12" vol="41" />
          <note key="53" pos="48" pan="0" len="12" vol="42" />
          <note key="51" pos="60" pan="0" len="12" vol="45" />
          <note key="46" pos="72" pan="0" len="12" vol="47" />
          <note key="48" pos="84" pan="0" len="12" vol="48" />
          <note key="53" pos="96" pan="0" len="12" vol="50" />
          <note key="51" pos="108" pan="0" len="12" vol="53" />
          <note key="46" pos="120" pan="0" len="12" vol="55" />
          <note key="48" pos="132" pan="0" len="12" vol="56" />
          <note key="53" pos="144" pan="0" len="12" vol="59" />
          <note key="51" pos="156" pan="0" len="12" vol="61" />
          <note key="46" pos="168" pan="0" len="12" vol="62" />
          <note key="48" pos="180" pan="0" len="12" vol="66" />
          <note key="53" pos="192" pan="0" len="12" vol="67" />
          <note key="51" pos="204" pan="0" len="12" vol="69" />
          <note key="46" pos="216" pan="0" len="12" vol="72" />
          <note key="48" pos="228" pan="0" len="12" vol="73" />
          <note key="53" pos="240" pan="0" len="12" vol="75" />
          <note key="51" pos="252" pan="0" len="12" vol="78" />
          <note key="46" pos="264" pan="0" len="12" vol="80" />
          <note key="48" pos="276" pan="0" len="12" vol="81" />
          <note key="53" pos="288" pan="0" len="12" vol="83" />
          <note key="51" pos="300" pan="0" len="12" vol="86" />
          <note key="46" pos="312" pan="0" len="12" vol="88" />
          <note key="48" pos="324" pan="0" len="12" vol="89" />
          <note key="53" pos="336" pan="0" len="12" vol="92" />
          <note key="51" pos="348" pan="0" len="12" vol="94" />
          <note key="46" pos="360" pan="0" len="12" vol="95" />
          <note key="48" pos="372" pan="0" len="12" vol="98" />
          <note key="53" pos="384" pan="0" len="12" vol="100" />
          <note key="51" pos="396" pan="0" len="12" vol="98" />
          <note key="46" pos="408" pan="0" len="12" vol="95" />
          <note key="48" pos="420" pan="0" len="12" vol="94" />
          <note key="53" pos="432" pan="0" len="12" vol="92" />
          <note key="51" pos="444" pan="0" len="12" vol="89" />
          <note key="46" pos="456" pan="0" len="12" vol="88" />
          <note key="48" pos="468" pan="0" len="12" vol="86" />
          <note key="53" pos="480" pan="0" len="12" vol="83" />
          <note key="51" pos="492" pan="0" len="12" vol="81" />
          <note key="46" pos="504" pan="0" len="12" vol="78" />
          <note key="48" pos="516" pan="0" len="12" vol="77" />
          <note key="53" pos="528" pan="0" len="12" vol="75" />
          <note key="51" pos="540" pan="0" len="12" vol="72" />
          <note key="46" pos="552" pan="0" len="12" vol="70" />
          <note key="48" pos="564" pan="0" len="12" vol="69" />
          <note key="53" pos="576" pan="0" len="12" vol="66" />
          <note key="51" pos="588" pan="0" len="12" vol="64" />
          <note key="46" pos="600" pan="0" len="12" vol="62" />
          <note key="48" pos="612" pan="0" len="12" vol="59" />
          <note key="53" pos="624" pan="0" len="12" vol="58" />
          <note key="51" pos="636" pan="0" len="12" vol="56" />
          <note key="46" pos="648" pan="0" len="12" vol="53" />
          <note key="48" pos="660" pan="0" len="12" vol="52" />
          <note key="53" pos="672" pan="0" len="12" vol="48" />
          <note key="51" pos="684" pan="0" len="12" vol="47" />
          <note key="46" pos="696" pan="0" len="12" vol="45" />
          <note key="48" pos="708" pan="0" len="12" vol="42" />
          <note key="53" pos="720" pan="0" len="12" vol="41" />
          <note key="51" pos="732" pan="0" len="12" vol="39" />
          <note key="46" pos="744" pan="0" len="12" vol="36" />
          <note key="48" pos="756" pan="0" len="12" vol="34" />
        </pattern>
        <pattern pos="260736" muted="0" steps="16" name="" type="1">
          <note key="53" pos="0" pan="0" len="12" vol="34" />
          <note key="51" pos="12" pan="0" len="12" vol="36" />
          <note key="46" pos="24" pan="0" len="12" vol="39" />
          <note key="48" pos="36" pan="0" len="12" vol="41" />
          <note key="53" pos="48" pan="0" len="12" vol="42" />
          <note key="51" pos="60" pan="0" len="12" vol="45" />
          <note key="46" pos="72" pan="0" len="12" vol="47" />
          <note key="48" pos="84" pan="0" len="12" vol="48" />
          <note key="53" pos="96" pan="0" len="12" vol="50" />
          <note key="51" pos="108" pan="0" len="12" vol="53" />
          <note key="46" pos="120" pan="0" len="12" vol="55" />
          <note key="48" pos="132" pan="0" len="12" vol="56" />
          <note key="53" pos="144" pan="0" len="12" vol="59" />
          <note key="51" pos="156" pan="0" len="12" vol="61" />
          <note key="46" pos="168" pan="0" len="12" vol="62" />
          <note key="48" pos="180" pan="0" len="12" vol="66" />
          <note key="53" pos="192" pan="0" len="12" vol="67" />
          <note key="51" pos="204" pan="0" len="12" vol="69" />
          <note key="46" pos="216" pan="0" len="12" vol="72" />
          <note key="48" pos="228" pan="0" len="12" vol="73" />
          <note key="53" pos="240" pan="0" len="12" vol="75" />
          <note key="51" pos="252" pan="0" len="12" vol="78" />
          <note key="46" pos="264" pan="0" len="12" vol="80" />
          <note key="48" pos="276" pan="0" len="12" vol="81" />
          <note key="53" pos="288" pan="0" len="12" vol="83" />
          <note key="51" pos="300" pan="0" len="12" vol="86" />
          <note key="46" pos="312" pan="0" len="12" vol="88" />
          <note key="48" pos="324" pan="0" len="12" vol="89" />
          <note key="53" pos="336" pan="0" len="12" vol="92" />
          <note key="51" pos="348" pan="0" len="12" vol="94" />
          <note key="46" pos="360" pan="0" len="12" vol="95" />
          <note key="48" pos="372" pan="0" len="12" vol="98" />
          <note key="53" pos="384" pan="0" len="12" vol="100" />
          <note key="51" pos="396" pan="0" len="12" vol="98" />
          <note key="46" pos="408" pan="0" len="12" vol="95" />
          <note key="48" pos="420" pan="0" len="12" vol="94" />
          <note key="53" pos="432" pan="0" len="12" vol="92" />
          <note key="51" pos="444" pan="0" len="12" vol="89" />
          <note key="46" pos="456" pan="0" len="12" vol="88" />
          <note key="48" pos="468" pan="0" len="12" vol="86" />
          <note key="53" pos="480" pan="0" len="12" vol="83" />
          <note key="51" pos="492" pan="0" len="12" vol="81" />
          <note key="46" pos="504" pan="0" len="12" vol="78" />
          <note key="48" pos="516" pan="0" len="12" vol="77" />
          <note key="53" pos="528" pan="0" len="12" vol="75" />
          <note key="51" pos="540" pan="0" len="12" vol="72" />
          <note key="46" pos="552" pan="0" len="12" vol="70" />
          <note key="48" pos="564" pan="0" len="12" vol="69" />
          <note key="53" pos="576" pan="0" len="12" vol="66" />
          <note key="51" pos="588" pan="0" len="12" vol="64" />
          <note key="46" pos="600" pan="0" len="12" vol="62" />
          <note key="48" pos="612" pan="0" len="12" vol="59" />
          <note key="53" pos="624" pan="0" len="12" vol="58" />
          <note key="51" pos="636" pan="0" len="12" vol="56" />
          <note key="46" pos="648" pan="0" len="12" vol="53" />
          <note key="48" pos="660" pan="0" len="12" vol="52" />
          <note key="53" pos="672" pan="0" len="12" vol="48" />
          <note key="51" pos="684" pan="0" len="12" vol="47" />
          <note key="46" pos="696" pan="0" len="12" vol="45" />
          <note key="48" pos="708" pan="0" len="12" vol="42" />
          <note key="53" pos="720" pan="0" len="12" vol="41" />
          <note key="51" pos="732" pan="0" len="12" vol="39" />
          <note key="46" pos="744" pan="0" len="12" vol="36" />
          <note key="48" pos="756" pan="0" len="12" vol="34" />
        </pattern>
        <pattern pos="261504" muted="0" steps="16" name="" type="1">
          <note key="56" pos="0" pan="0" len="12" vol="34" />
          <note key="54" pos="12" pan="0" len="12" vol="36" />
          <note key="49" pos="24" pan="0" len="12" vol="39" />
          <note key="51" pos="36" pan="0" len="12" vol="41" />
          <note key="56" pos="48" pan="0" len="12" vol="42" />
          <note key="54" pos="60" pan="0" len="12" vol="45" />
          <note key="49" pos="72" pan="0" len="12" vol="47" />
          <note key="51" pos="84" pan="0" len="12" vol="48" />
          <note key="56" pos="96" pan="0" len="12" vol="50" />
          <note key="54" pos="108" pan="0" len="12" vol="53" />
          <note key="49" pos="120" pan="0" len="12" vol="55" />
          <note key="51" pos="132" pan="0" len="12" vol="56" />
          <note key="56" pos="144" pan="0" len="12" vol="59" />
          <note key="54" pos="156" pan="0" len="12" vol="61" />
          <note key="49" pos="168" pan="0" len="12" vol="62" />
          <note key="51" pos="180" pan="0" len="12" vol="66" />
          <note key="56" pos="192" pan="0" len="12" vol="67" />
          <note key="54" pos="204" pan="0" len="12" vol="69" />
          <note key="49" pos="216" pan="0" len="12" vol="72" />
          <note key="51" pos="228" pan="0" len="12" vol="73" />
          <note key="56" pos="240" pan="0" len="12" vol="75" />
          <note key="54" pos="252" pan="0" len="12" vol="78" />
          <note key="49" pos="264" pan="0" len="12" vol="80" />
          <note key="51" pos="276" pan="0" len="12" vol="81" />
          <note key="56" pos="288" pan="0" len="12" vol="83" />
          <note key="54" pos="300" pan="0" len="12" vol="86" />
          <note key="49" pos="312" pan="0" len="12" vol="88" />
          <note key="51" pos="324" pan="0" len="12" vol="89" />
          <note key="56" pos="336" pan="0" len="12" vol="92" />
          <note key="54" pos="348" pan="0" len="12" vol="94" />
          <note key="49" pos="360" pan="0" len="12" vol="95" />
          <note key="51" pos="372" pan="0" len="12" vol="98" />
          <note key="56" pos="384" pan="0" len="12" vol="100" />
          <note key="54" pos="396" pan="0" len="12" vol="98" />
          <note key="49" pos="408" pan="0" len="12" vol="95" />
          <note key="51" pos="420" pan="0" len="12" vol="94" />
          <note key="56" pos="432" pan="0" len="12" vol="92" />
          <note key="54" pos="444" pan="0" len="12" vol="89" />
          <note key="49" pos="456" pan="0" len="12" vol="88" />
          <note key="51" pos="468" pan="0" len="12" vol="86" />
          <note key="56" pos="480" pan="0" len="12" vol="83" />
          <note key="54" pos="492" pan="0" len="12" vol="81" />
          <note key="49" pos="504" pan="0" len="12" vol="78" />
          <note key="51" pos="516" pan="0" len="12" vol="77" />
          <note key="56" pos="528" pan="0" len="12" vol="75" />
          <note key="54" pos="540" pan="0" len="12" vol="72" />
          <note key="49" pos="552" pan="0" len="12" vol="70" />
          <note key="51" pos="564" pan="0" len="12" vol="69" />
          <note key="56" pos="576" pan="0" len="12" vol="66" />
          <note key="54" pos="588" pan="0" len="12" vol="64" />
          <note key="49" pos="600" pan="0" len="12" vol="62" />
          <note key="51" pos="612" pan="0" len="12" vol="59" />
          <note key="56" pos="624" pan="0" len="12" vol="58" />
          <note key="54" pos="636" pan="0" len="12" vol="56" />
          <note key="49" pos="648" pan="0" len="12" vol="53" />
          <note key="51" pos="660" pan="0" len="12" vol="52" />
          <note key="56" pos="672" pan="0" len="12" vol="48" />
          <note key="54" pos="684" pan="0" len="12" vol="47" />
          <note key="49" pos="696" pan="0" len="12" vol="45" />
          <note key="51" pos="708" pan="0" len="12" vol="42" />
          <note key="56" pos="720" pan="0" len="12" vol="41" />
          <note key="54" pos="732" pan="0" len="12" vol="39" />
          <note key="49" pos="744" pan="0" len="12" vol="36" />
          <note key="51" pos="756" pan="0" len="12" vol="34" />
        </pattern>
        <pattern pos="262272" muted="0" steps="16" name="" type="1">
          <note key="56" pos="0" pan="0" len="12" vol="34" />
          <note key="54" pos="12" pan="0" len="12" vol="36" />
          <note key="49" pos="24" pan="0" len="12" vol="39" />
          <note key="51" pos="36" pan="0" len="12" vol="41" />
          <note key="56" pos="48" pan="0" len="12" vol="42" />
          <note key="54" pos="60" pan="0" len="12" vol="45" />
          <note key="49" pos="72" pan="0" len="12" vol="47" />
          <note key="51" pos="84" pan="0" len="12" vol="48" />
          <note key="56" pos="96" pan="0" len="12" vol="50" />
          <note key="54" pos="108" pan="0" len="12" vol="53" />
          <note key="49" pos="120" pan="0" len="12" vol="55" />
          <note key="51" pos="132" pan="0" len="12" vol="56" />
          <note key="56" pos="144" pan="0" len="12" vol="59" />
          <note key="54" pos="156" pan="0" len="12" vol="61" />
          <note key="49" pos="168" pan="0" len="12" vol="62" />
          <note key="51" pos="180" pan="0" len="12" vol="66" />
          <note key="56" pos="192" pan="0" len="12" vol="67" />
          <note key="54" pos="204" pan="0" len="12" vol="69" />
          <note key="49" pos="216" pan="0" len="12" vol="72" />
          <note key="51" pos="228" pan="0" len="12" vol="73" />
          <note key="56" pos="240" pan="0" len="12" vol="75" />
          <note key="54" pos="252" pan="0" len="12" vol="78" />
          <note key="49" pos="264" pan="0" len="12" vol="80" />
          <note key="51" pos="276" pan="0" len="12" vol="81" />
          <note key="56" pos="288" pan="0" len="12" vol="83" />
          <note key="54" pos="300" pan="0" len="12" vol="86" />
          <note key="49" pos="312" pan="0" len="12" vol="88" />
          <note key="51" pos="324" pan="0" len="12" vol="89" />
          <note key="56" pos="336" pan="0" len="12" vol="92" />
          <note key="54" pos="348" pan="0" len="12" vol="94" />
          <note key="49" pos="360" pan="0" len="12" vol="95" />
          <note key="51" pos="372" pan="0" len="12" vol="98" />
          <note key="56" pos="384" pan="0" len="12" vol="100" />
          <note key="54" pos="396" pan="0" len="12" vol="98" />
          <note key="49" pos="408" pan="0" len="12" vol="95" />
          <note key="51" pos="420" pan="0" len="12" vol="94" />
          <note key="56" pos="432" pan="0" len="12" vol="92" />
          <note key="54" pos="444" pan="0" len="12" vol="89" />
          <note key="49" pos="456" pan="0" len="12" vol="88" />
          <note key="51" pos="468" pan="0" len="12" vol="86" />
          <note key="56" pos="480" pan="0" len="12" vol="83" />
          <note key="54" pos="492" pan="0" len="12" vol="81" />
          <note key="49" pos="504" pan="0" len="12" vol="78" />
          <note key="51" pos="516" pan="0" len="12" vol="77" />
          <note key="56" pos="528" pan="0" len="12" vol="75" />
          <note key="54" pos="540" pan="0" len="12" vol="72" />
          <note key="49" pos="552" pan="0" len="12" vol="70" />
          <note key="51" pos="564" pan="0" len="12" vol="69" />
          <note key="56" pos="576" pan="0" len="12" vol="66" />
          <note key="54" pos="588" pan="0" len="12" vol="64" />
          <note key="49" pos="600" pan="0" len="12" vol="62" />
          <note key="51" pos="612" pan="0" len="12" vol="59" />
          <note key="56" pos="624" pan="0" len="12" vol="58" />
          <note key="54" pos="636" pan="0" len="12" vol="56" />
          <note key="49" pos="648" pan="0" len="12" vol="53" />
          <note key="51" pos="660" pan="0" len="12" vol="52" />
          <note key="56" pos="672" pan="0" len="12" vol="48" />
          <note key="54" pos="684" pan="0" len="12" vol="47" />
          <note key="49" pos="696" pan="0" len="12" vol="45" />
          <note key="51" pos="708" pan="0" len="12" vol="42" />
          <note key="56" pos="720" pan="0" len="12" vol="41" />
          <note key="54" pos="732" pan="0" len="12" vol="39" />
          <note key="49" pos="744" pan="0" len="12" vol="36" />
          <note key="51" pos="756" pan="0" len="12" vol="34" />
        </pattern>
        <pattern pos="263040" muted="0" steps="16" name="" type="1">
          <note key="53" pos="0" pan="0" len="12" vol="34" />
          <note key="51" pos="12" pan="0" len="12" vol="36" />
          <note key="46" pos="24" pan="0" len="12" vol="39" />
          <note key="48" pos="36" pan="0" len="12" vol="41" />
          <note key="53" pos="48" pan="0" len="12" vol="42" />
          <note key="51" pos="60" pan="0" len="12" vol="45" />
          <note key="46" pos="72" pan="0" len="12" vol="47" />
          <note key="48" pos="84" pan="0" len="12" vol="48" />
          <note key="53" pos="96" pan="0" len="12" vol="50" />
          <note key="51" pos="108" pan="0" len="12" vol="53" />
          <note key="46" pos="120" pan="0" len="12" vol="55" />
          <note key="48" pos="132" pan="0" len="12" vol="56" />
          <note key="53" pos="144" pan="0" len="12" vol="59" />
          <note key="51" pos="156" pan="0" len="12" vol="61" />
          <note key="46" pos="168" pan="0" len="12" vol="62" />
          <note key="48" pos="180" pan="0" len="12" vol="66" />
          <note key="53" pos="192" pan="0" len="12" vol="67" />
          <note key="51" pos="204" pan="0" len="12" vol="69" />
          <note key="46" pos="216" pan="0" len="12" vol="72" />
          <note key="48" pos="228" pan="0" len="12" vol="73" />
          <note key="53" pos="240" pan="0" len="12" vol="75" />
          <note key="51" pos="252" pan="0" len="12" vol="78" />
          <note key="46" pos="264" pan="0" len="12" vol="80" />
          <note key="48" pos="276" pan="0" len="12" vol="81" />
          <note key="53" pos="288" pan="0" len="12" vol="83" />
          <note key="51" pos="300" pan="0" len="12" vol="86" />
          <note key="46" pos="312" pan="0" len="12" vol="88" />
          <note key="48" pos="324" pan="0" len="12" vol="89" />
          <note key="53" pos="336" pan="0" len="12" vol="92" />
          <note key="51" pos="348" pan="0" len="12" vol="94" />
          <note key="46" pos="360" pan="0" len="12" vol="95" />
          <note key="48" pos="372" pan="0" len="12" vol="98" />
          <note key="53" pos="384" pan="0" len="12" vol="100" />
          <note key="51" pos="396" pan="0" len="12" vol="98" />
          <note key="46" pos="408" pan="0" len="12" vol="95" />
          <note key="48" pos="420" pan="0" len="12" vol="94" />
          <note key="53" pos="432" pan="0" len="12" vol="92" />
          <note key="51" pos="444" pan="0" len="12" vol="89" />
          <note key="46" pos="456" pan="0" len="12" vol="88" />
          <note key="48" pos="468" pan="0" len="12" vol="86" />
          <note key="53" pos="480" pan="0" len="12" vol="83" />
          <note key="51" pos="492" pan="0" len="12" vol="81" />
          <note key="46" pos="504" pan="0" len="12" vol="78" />
          <note key="48" pos="516" pan="0" len="12" vol="77" />
          <note key="53" pos="528" pan="0" len="12" vol="75" />
          <note key="51" pos="540" pan="0" len="12" vol="72" />
          <note key="46" pos="552" pan="0" len="12" vol="70" />
          <note key="48" pos="564" pan="0" len="12" vol="69" />
          <note key="53" pos="576" pan="0" len="12" vol="66" />
          <note key="51" pos="588" pan="0" len="12" vol="64" />
          <note key="46" pos="600" pan="0" len="12" vol="62" />
          <note key="48" pos="612" pan="0" len="12" vol="59" />
          <note key="53" pos="624" pan="0" len="12" vol="58" />
          <note key="51" pos="636" pan="0" len="12" vol="56" />
          <note key="46" pos="648" pan="0" len="12" vol="53" />
          <note key="48" pos="660" pan="0" len="12" vol="52" />
          <note key="53" pos="672" pan="0" len="12" vol="48" />
          <note key="51" pos="684" pan="0" len="12" vol="47" />
          <note key="46" pos="696" pan="0" len="12" vol="45" />
          <note key="48" pos="708" pan="0" len="12" vol="42" />
          <note key="53" pos="720" pan="0" len="12" vol="41" />
          <note key="51" pos="732" pan="0" len="12" vol="39" />
          <note key="46" pos="744" pan="0" len="12" vol="36" />
          <note key="48" pos="756" pan="0" len="12" vol="34" />
        </pattern>
        <pattern pos="263808" muted="0" steps="16" name="" type="1">
          <note key="53" pos="0" pan="0" len="12" vol="34" />
          <note key="51" pos="12" pan="0" len="12" vol="36" />
          <note key="46" pos="24" pan="0" len="12" vol="39" />
          <note key="48" pos="36" pan="0" len="12" vol="41" />
          <note key="53" pos="48" pan="0" len="12" vol="42" />
          <note key="51" pos="60" pan="0" len="12" vol="45" />
          <note key="46" pos="72" pan="0" len="12" vol="47" />
          <note key="48" pos="84" pan="0" len="12" vol="48" />
          <note key="53" pos="96" pan="0" len="12" vol="50" />
          <note key="51" pos="108" pan="0" len="12" vol="53" />
          <note key="46" pos="120" pan="0" len="12" vol="55" />
          <note key="48" pos="132" pan="0" len="12" vol="56" />
          <note key="53" pos="144" pan="0" len="12" vol="59" />
          <note key="51" pos="156" pan="0" len="12" vol="61" />
          <note key="46" pos="168" pan="0" len="12" vol="62" />
          <note key="48" pos="180" pan="0" len="12" vol="66" />
          <note key="53" pos="192" pan="0" len="12" vol="67" />
          <note key="51" pos="204" pan="0" len="12" vol="69" />
          <note key="46" pos="216" pan="0" len="12" vol="72" />
          <note key="48" pos="228" pan="0" len="12" vol="73" />
          <note key="53" pos="240" pan="0" len="12" vol="75" />
          <note key="51" pos="252" pan="0" len="12" vol="78" />
          <note key="46" pos="264" pan="0" len="12" vol="80" />
          <note key="48" pos="276" pan="0" len="12" vol="81" />
          <note key="53" pos="288" pan="0" len="12" vol="83" />
          <note key="51" pos="300" pan="0" len="12" vol="86" />
          <note key="46" pos="312" pan="0" len="12" vol="88" />
          <note key="48" pos="324" pan="0" len="12" vol="89" />
          <note key="53" pos="336" pan="0" len="12" vol="92" />
          <note key="51" pos="348" pan="0" len="12" vol="94" />
          <note key="46" pos="360" pan="0" len="12" vol="95" />
          <note key="48" pos="372" pan="0" len="12" vol="98" />
          <note key="53" pos="384" pan="0" len="12" vol="100" />
          <note key="51" pos="396" pan="0" len="12" vol="98" />
          <note key="46" pos="408" pan="0" len="12" vol="95" />
          <note key="48" pos="420" pan="0" len="12" vol="94" />
          <note key="53" pos="432" pan="0" len="12" vol="92" />
          <note key="51" pos="444" pan="0" len="12" vol="89" />
          <note key="46" pos="456" pan="0" len="12" vol="88" />
          <note key="48" pos="468" pan="0" len="12" vol="86" />
          <note key="53" pos="480" pan="0" len="12" vol="83" />
          <note key="51" pos="492" pan="0" len="12" vol="81" />
          <note key="46" pos="504" pan="0" len="12" vol="78" />
          <note key="48" pos="516" pan="0" len="12" vol="77" />
          <note key="53" pos="528" pan="0" len="12" vol="75" />
          <note key="51" pos="540" pan="0" len="12" vol="72" />
          <note key="46" pos="552" pan="0" len="12" vol="70" />
          <note key="48" pos="564" pan="0" len="12" vol="69" />
          <note key="53" pos="576" pan="0" len="12" vol="66" />
          <note key="51" pos="588" pan="0" len="12" vol="64" />
          <note key="46" pos="600" pan="0" len="12" vol="62" />
          <note key="48" pos="612" pan="0" len="12" vol="59" />
          <note key="53" pos="624" pan="0" len="12" vol="58" />
          <note key="51" pos="636" pan="0" len="12" vol="56" />
          <note key="46" pos="648" pan="0" len="12" vol="53" />
          <note key="48" pos="660" pan="0" len="12" vol="52" />
          <note key="53" pos="672" pan="0" len="12" vol="48" />
          <note key="51" pos="684" pan="0" len="12" vol="47" />
          <note key="46" pos="696" pan="0" len="12" vol="45" />
          <note key="48" pos="708" pan="0" len="12" vol="42" />
          <note key="53" pos="720" pan="0" len="12" vol="41" />
          <note key="51" pos="732" pan="0" len="12" vol="39" />
          <note key="46" pos="744" pan="0" len="12" vol="36" />
          <note key="48" pos="756" pan="0" len="12" vol="34" />
        </pattern>
        <pattern pos="264576" muted="0" steps="16" name="" type="1">
          <note key="53" pos="0" pan="0" len="12" vol="34" />
          <note key="51" pos="12" pan="0" len="12" vol="36" />
          <note key="46" pos="24" pan="0" len="12" vol="39" />
          <note key="48" pos="36" pan="0" len="12" vol="41" />
          <note key="53" pos="48" pan="0" len="12" vol="42" />
          <note key="51" pos="60" pan="0" len="12" vol="45" />
          <note key="46" pos="72" pan="0" len="12" vol="47" />
          <note key="48" pos="84" pan="0" len="12" vol="48" />
          <note key="53" pos="96" pan="0" len="12" vol="50" />
          <note key="51" pos="108" pan="0" len="12" vol="53" />
          <note key="46" pos="120" pan="0" len="12" vol="55" />
          <note key="48" pos="132" pan="0" len="12" vol="56" />
          <note key="53" pos="144" pan="0" len="12" vol="59" />
          <note key="51" pos="156" pan="0" len="12" vol="61" />
          <note key="46" pos="168" pan="0" len="12" vol="62" />
          <note key="48" pos="180" pan="0" len="12" vol="66" />
          <note key="53" pos="192" pan="0" len="12" vol="67" />
          <note key="51" pos="204" pan="0" len="12" vol="69" />
          <note key="46" pos="216" pan="0" len="12" vol="72" />
          <note key="48" pos="228" pan="0" len="12" vol="73" />
          <note key="53" pos="240" pan="0" len="12" vol="75" />
          <note key="51" pos="252" pan="0" len="12" vol="78" />
          <note key="46" pos="264" pan="0" len="12" vol="80" />
          <note key="48" pos="276" pan="0" len="12" vol="81" />
          <note key="53" pos="288" pan="0" len="12" vol="83" />
          <note key="51" pos="300" pan="0" len="12" vol="86" />
          <note key="46" pos="312" pan="0" len="12" vol="88" />
          <note key="48" pos="324" pan="0" len="12" vol="89" />
          <note key="53" pos="336" pan="0" len="12" vol="92" />
          <note key="51" pos="348" pan="0" len="12" vol="94" />
          <note key="46" pos="360" pan="0" len="12" vol="95" />
          <note key="48" pos="372" pan="0" len="12" vol="98" />
          <note key="53" pos="384" pan="0" len="12" vol="100" />
          <note key="51" pos="396" pan="0" len="12" vol="98" />
          <note key="46" pos="408" pan="0" len="12" vol="95" />
          <note key="48" pos="420" pan="0" len="12" vol="94" />
          <note key="53" pos="432" pan="0" len="12" vol="92" />
          <note key="51" pos="444" pan="0" len="12" vol="89" />
          <note key="46" pos="456" pan="0" len="12" vol="88" />
          <note key="48" pos="468" pan="0" len="12" vol="86" />
          <note key="53" pos="480" pan="0" len="12" vol="83" />
          <note key="51" pos="492" pan="0" len="12" vol="81" />
          <note key="46" pos="504" pan="0" len="12" vol="78" />
          <note key="48" pos="516" pan="0" len="12" vol="77" />
          <note key="53" pos="528" pan="0" len="12" vol="75" />
          <note key="51" pos="540" pan="0" len="12" vol="72" />
          <note key="46" pos="552" pan="0" len="12" vol="70" />
          <note key="48" pos="564" pan="0" len="12" vol="69" />
          <note key="53" pos="576" pan="0" len="12" vol="66" />
          <note key="51" pos="588" pan="0" len="12" vol="64" />
          <note key="46" pos="600" pan="0" len="12" vol="62" />
          <note key="48" pos="612" pan="0" len="12" vol="59" />
          <note key="53" pos="624" pan="0" len="12" vol="58" />
          <note key="51" pos="636" pan="0" len="12" vol="56" />
          <note key="46" pos="648" pan="0" len="12" vol="53" />
          <note key="48" pos="660" pan="0" len="12" vol="52" />
          <note key="53" pos="672" pan="0" len="12" vol="48" />
          <note key="51" pos="684" pan="0" len="12" vol="47" />
          <note key="46" pos="696" pan="0" len="12" vol="45" />
          <note key="48" pos="708" pan="0" len="12" vol="42" />
          <note key="53" pos="720" pan="0" len="12" vol="41" />
          <note key="51" pos="732" pan="0" len="12" vol="39" />
          <note key="46" pos="744" pan="0" len="12" vol="36" />
          <note key="48" pos="756" pan="0" len="12" vol="34" />
        </pattern>
        <pattern pos="265344" muted="0" steps="16" name="" type="1">
          <note key="53" pos="0" pan="0" len="12" vol="34" />
          <note key="51" pos="12" pan="0" len="12" vol="36" />
          <note key="46" pos="24" pan="0" len="12" vol="39" />
          <note key="48" pos="36" pan="0" len="12" vol="41" />
          <note key="53" pos="48" pan="0" len="12" vol="42" />
          <note key="51" pos="60" pan="0" len="12" vol="45" />
          <note key="46" pos="72" pan="0" len="12" vol="47" />
          <note key="48" pos="84" pan="0" len="12" vol="48" />
          <note key="53" pos="96" pan="0" len="12" vol="50" />
          <note key="51" pos="108" pan="0" len="12" vol="53" />
          <note key="46" pos="120" pan="0" len="12" vol="55" />
          <note key="48" pos="132" pan="0" len="12" vol="56" />
          <note key="53" pos="144" pan="0" len="12" vol="59" />
          <note key="51" pos="156" pan="0" len="12" vol="61" />
          <note key="46" pos="168" pan="0" len="12" vol="62" />
          <note key="48" pos="180" pan="0" len="12" vol="66" />
          <note key="53" pos="192" pan="0" len="12" vol="67" />
          <note key="51" pos="204" pan="0" len="12" vol="69" />
          <note key="46" pos="216" pan="0" len="12" vol="72" />
          <note key="48" pos="228" pan="0" len="12" vol="73" />
          <note key="53" pos="240" pan="0" len="12" vol="75" />
          <note key="51" pos="252" pan="0" len="12" vol="78" />
          <note key="46" pos="264" pan="0" len="12" vol="80" />
          <note key="48" pos="276" pan="0" len="12" vol="81" />
          <note key="53" pos="288" pan="0" len="12" vol="83" />
          <note key="51" pos="300" pan="0" len="12" vol="86" />
          <note key="46" pos="312" pan="0" len="12" vol="88" />
          <note key="48" pos="324" pan="0" len="12" vol="89" />
          <note key="53" pos="336" pan="0" len="12" vol="92" />
          <note key="51" pos="348" pan="0" len="12" vol="94" />
          <note key="46" pos="360" pan="0" len="12" vol="95" />
          <note key="48" pos="372" pan="0" len="12" vol="98" />
          <note key="53" pos="384" pan="0" len="12" vol="100" />
          <note key="51" pos="396" pan="0" len="12" vol="98" />
          <note key="46" pos="408" pan="0" len="12" vol="95" />
          <note key="48" pos="420" pan="0" len="12" vol="94" />
          <note key="53" pos="432" pan="0" len="12" vol="92" />
          <note key="51" pos="444" pan="0" len="12" vol="89" />
          <note key="46" pos="456" pan="0" len="12" vol="88" />
          <note key="48" pos="468" pan="0" len="12" vol="86" />
          <note key="53" pos="480" pan="0" len="12" vol="83" />
          <note key="51" pos="492" pan="0" len="12" vol="81" />
          <note key="46" pos="504" pan="0" len="12" vol="78" />
          <note key="48" pos="516" pan="0" len="12" vol="77" />
          <note key="53" pos="528" pan="0" len="12" vol="75" />
          <note key="51" pos="540" pan="0" len="12" vol="72" />
          <note key="46" pos="552" pan="0" len="12" vol="70" />
          <note key="48" pos="564" pan="0" len="12" vol="69" />
          <note key="53" pos="576" pan="0" len="12" vol="66" />
          <note key="51" pos="588" pan="0" len="12" vol="64" />
          <note key="46" pos="600" pan="0" len="12" vol="62" />
          <note key="48" pos="612" pan="0" len="12" vol="59" />
          <note key="53" pos="624" pan="0" len="12" vol="58" />
          <note key="51" pos="636" pan="0" len="12" vol="56" />
          <note key="46" pos="648" pan="0" len="12" vol="53" />
          <note key="48" pos="660" pan="0" len="12" vol="52" />
          <note key="53" pos="672" pan="0" len="12" vol="48" />
          <note key="51" pos="684" pan="0" len="12" vol="47" />
          <note key="46" pos="696" pan="0" len="12" vol="45" />
          <note key="48" pos="708" pan="0" len="12" vol="42" />
          <note key="53" pos="720" pan="0" len="12" vol="41" />
          <note key="51" pos="732" pan="0" len="12" vol="39" />
          <note key="46" pos="744" pan="0" len="12" vol="36" />
          <note key="48" pos="756" pan="0" len="12" vol="34" />
        </pattern>
        <pattern pos="266112" muted="0" steps="16" name="" type="1">
          <note key="53" pos="0" pan="0" len="12" vol="34" />
          <note key="51" pos="12" pan="0" len="12" vol="36" />
          <note key="46" pos="24" pan="0" len="12" vol="39" />
          <note key="48" pos="36" pan="0" len="12" vol="41" />
          <note key="53" pos="48" pan="0" len="12" vol="42" />
          <note key="51" pos="60" pan="0" len="12" vol="45" />
          <note key="46" pos="72" pan="0" len="12" vol="47" />
          <note key="48" pos="84" pan="0" len="12" vol="48" />
          <note key="53" pos="96" pan="0" len="12" vol="50" />
          <note key="51" pos="108" pan="0" len="12" vol="53" />
          <note key="46" pos="120" pan="0" len="12" vol="55" />
          <note key="48" pos="132" pan="0" len="12" vol="56" />
          <note key="53" pos="144" pan="0" len="12" vol="59" />
          <note key="51" pos="156" pan="0" len="12" vol="61" />
          <note key="46" pos="168" pan="0" len="12" vol="62" />
          <note key="48" pos="180" pan="0" len="12" vol="66" />
          <note key="53" pos="192" pan="0" len="12" vol="67" />
          <note key="51" pos="204" pan="0" len="12" vol="69" />
          <note key="46" pos="216" pan="0" len="12" vol="72" />
          <note key="48" pos="228" pan="0" len="12" vol="73" />
          <note key="53" pos="240" pan="0" len="12" vol="75" />
          <note key="51" pos="252" pan="0" len="12" vol="78" />
          <note key="46" pos="264" pan="0" len="12" vol="80" />
          <note key="48" pos="276" pan="0" len="12" vol="81" />
          <note key="53" pos="288" pan="0" len="12" vol="83" />
          <note key="51" pos="300" pan="0" len="12" vol="86" />
          <note key="46" pos="312" pan="0" len="12" vol="88" />
          <note key="48" pos="324" pan="0" len="12" vol="89" />
          <note key="53" pos="336" pan="0" len="12" vol="92" />
          <note key="51" pos="348" pan="0" len="12" vol="94" />
          <note key="46" pos="360" pan="0" len="12" vol="95" />
          <note key="48" pos="372" pan="0" len="12" vol="98" />
          <note key="60" pos="384" pan="0" len="12" vol="100" />
          <note key="58" pos="396" pan="0" len="12" vol="98" />
          <note key="51" pos="408" pan="0" len="12" vol="95" />
          <note key="53" pos="420" pan="0" len="12" vol="94" />
          <note key="60" pos="432" pan="0" len="12" vol="92" />
          <note key="58" pos="444" pan="0" len="12" vol="89" />
          <note key="51" pos="456" pan="0" len="12" vol="88" />
          <note key="53" pos="468" pan="0" len="12" vol="86" />
          <note key="60" pos="480" pan="0" len="12" vol="83" />
          <note key="58" pos="492" pan="0" len="12" vol="81" />
          <note key="51" pos="504" pan="0" len="12" vol="78" />
          <note key="53" pos="516" pan="0" len="12" vol="77" />
          <note key="60" pos="528" pan="0" len="12" vol="75" />
          <note key="58" pos="540" pan="0" len="12" vol="72" />
          <note key="51" pos="552" pan="0" len="12" vol="70" />
          <note key="53" pos="564" pan="0" len="12" vol="69" />
          <note key="60" pos="576" pan="0" len="12" vol="66" />
          <note key="58" pos="588" pan="0" len="12" vol="64" />
          <note key="51" pos="600" pan="0" len="12" vol="62" />
          <note key="53" pos="612" pan="0" len="12" vol="59" />
          <note key="60" pos="624" pan="0" len="12" vol="58" />
          <note key="58" pos="636" pan="0" len="12" vol="56" />
          <note key="51" pos="648" pan="0" len="12" vol="53" />
          <note key="53" pos="660" pan="0" len="12" vol="52" />
          <note key="60" pos="672" pan="0" len="12" vol="48" />
          <note key="58" pos="684" pan="0" len="12" vol="47" />
          <note key="51" pos="696" pan="0" len="12" vol="45" />
          <note key="53" pos="708" pan="0" len="12" vol="42" />
          <note key="60" pos="720" pan="0" len="12" vol="41" />
          <note key="58" pos="732" pan="0" len="12" vol="39" />
          <note key="51" pos="744" pan="0" len="12" vol="36" />
          <note key="53" pos="756" pan="0" len="12" vol="34" />
          <note key="53" pos="768" pan="0" len="12" vol="34" />
          <note key="51" pos="780" pan="0" len="12" vol="36" />
          <note key="46" pos="792" pan="0" len="12" vol="39" />
          <note key="48" pos="804" pan="0" len="12" vol="41" />
          <note key="53" pos="816" pan="0" len="12" vol="42" />
          <note key="51" pos="828" pan="0" len="12" vol="45" />
          <note key="46" pos="840" pan="0" len="12" vol="47" />
          <note key="48" pos="852" pan="0" len="12" vol="48" />
          <note key="53" pos="864" pan="0" len="12" vol="50" />
          <note key="51" pos="876" pan="0" len="12" vol="53" />
          <note key="46" pos="888" pan="0" len="12" vol="55" />
          <note key="48" pos="900" pan="0" len="12" vol="56" />
          <note key="53" pos="912" pan="0" len="12" vol="59" />
          <note key="51" pos="924" pan="0" len="12" vol="61" />
          <note key="46" pos="936" pan="0" len="12" vol="62" />
          <note key="48" pos="948" pan="0" len="12" vol="66" />
          <note key="53" pos="960" pan="0" len="12" vol="67" />
          <note key="51" pos="972" pan="0" len="12" vol="69" />
          <note key="46" pos="984" pan="0" len="12" vol="72" />
          <note key="48" pos="996" pan="0" len="12" vol="73" />
          <note key="53" pos="1008" pan="0" len="12" vol="75" />
          <note key="51" pos="1020" pan="0" len="12" vol="78" />
          <note key="46" pos="1032" pan="0" len="12" vol="80" />
          <note key="48" pos="1044" pan="0" len="12" vol="81" />
          <note key="53" pos="1056" pan="0" len="12" vol="83" />
          <note key="51" pos="1068" pan="0" len="12" vol="86" />
          <note key="46" pos="1080" pan="0" len="12" vol="88" />
          <note key="48" pos="1092" pan="0" len="12" vol="89" />
          <note key="53" pos="1104" pan="0" len="12" vol="92" />
          <note key="51" pos="1116" pan="0" len="12" vol="94" />
          <note key="46" pos="1128" pan="0" len="12" vol="95" />
          <note key="48" pos="1140" pan="0" len="12" vol="98" />
          <note key="60" pos="1152" pan="0" len="12" vol="100" />
          <note key="58" pos="1164" pan="0" len="12" vol="98" />
          <note key="51" pos="1176" pan="0" len="12" vol="95" />
          <note key="53" pos="1188" pan="0" len="12" vol="94" />
          <note key="60" pos="1200" pan="0" len="12" vol="92" />
          <note key="58" pos="1212" pan="0" len="12" vol="89" />
          <note key="51" pos="1224" pan="0" len="12" vol="88" />
          <note key="53" pos="1236" pan="0" len="12" vol="86" />
          <note key="60" pos="1248" pan="0" len="12" vol="83" />
          <note key="58" pos="1260" pan="0" len="12" vol="81" />
          <note key="51" pos="1272" pan="0" len="12" vol="78" />
          <note key="53" pos="1284" pan="0" len="12" vol="77" />
          <note key="60" pos="1296" pan="0" len="12" vol="75" />
          <note key="58" pos="1308" pan="0" len="12" vol="72" />
          <note key="51" pos="1320" pan="0" len="12" vol="70" />
          <note key="53" pos="1332" pan="0" len="12" vol="69" />
          <note key="60" pos="1344" pan="0" len="12" vol="66" />
          <note key="58" pos="1356" pan="0" len="12" vol="64" />
          <note key="51" pos="1368" pan="0" len="12" vol="62" />
          <note key="53" pos="1380" pan="0" len="12" vol="59" />
          <note key="60" pos="1392" pan="0" len="12" vol="58" />
          <note key="58" pos="1404" pan="0" len="12" vol="56" />
          <note key="51" pos="1416" pan="0" len="12" vol="53" />
          <note key="53" pos="1428" pan="0" len="12" vol="52" />
          <note key="60" pos="1440" pan="0" len="12" vol="48" />
          <note key="58" pos="1452" pan="0" len="12" vol="47" />
          <note key="51" pos="1464" pan="0" len="12" vol="45" />
          <note key="53" pos="1476" pan="0" len="12" vol="42" />
          <note key="60" pos="1488" pan="0" len="12" vol="41" />
          <note key="58" pos="1500" pan="0" len="12" vol="39" />
          <note key="51" pos="1512" pan="0" len="12" vol="36" />
          <note key="53" pos="1524" pan="0" len="12" vol="34" />
        </pattern>
      </track>
      <track solo="0" name="9 (Ch7)" type="0" muted="0">
        <instrumenttrack usemasterpitch="1" pitch="0.0" basenote="57" pan="0" pitchrange="12" vol="30">
          <eldata />
          <instrument name="tripleoscillator" />
        </instrumenttrack>
        <pattern pos="28416" muted="0" steps="16" name="" type="1">
          <note key="48" pos="0" pan="0" len="576" vol="100" />
          <note key="48" pos="576" pan="0" len="576" vol="100" />
        </pattern>
        <pattern pos="25344" muted="0" steps="16" name="" type="1">
          <note key="48" pos="0" pan="0" len="768" vol="100" />
          <note key="48" pos="768" pan="0" len="12" vol="3" />
          <note key="53" pos="780" pan="0" len="12" vol="6" />
          <note key="55" pos="792" pan="0" len="12" vol="9" />
          <note key="48" pos="804" pan="0" len="12" vol="12" />
          <note key="53" pos="816" pan="0" len="12" vol="16" />
          <note key="55" pos="828" pan="0" len="12" vol="19" />
          <note key="48" pos="840" pan="0" len="12" vol="22" />
          <note key="53" pos="852" pan="0" len="12" vol="25" />
          <note key="55" pos="864" pan="0" len="12" vol="28" />
          <note key="48" pos="876" pan="0" len="12" vol="31" />
          <note key="53" pos="888" pan="0" len="12" vol="34" />
          <note key="55" pos="900" pan="0" len="12" vol="38" />
          <note key="48" pos="912" pan="0" len="12" vol="41" />
          <note key="53" pos="924" pan="0" len="12" vol="44" />
          <note key="55" pos="936" pan="0" len="12" vol="47" />
          <note key="48" pos="948" pan="0" len="12" vol="50" />
          <note key="53" pos="960" pan="0" len="12" vol="53" />
          <note key="55" pos="972" pan="0" len="12" vol="56" />
          <note key="48" pos="984" pan="0" len="12" vol="59" />
          <note key="53" pos="996" pan="0" len="12" vol="62" />
          <note key="55" pos="1008" pan="0" len="12" vol="66" />
          <note key="48" pos="1020" pan="0" len="12" vol="69" />
          <note key="53" pos="1032" pan="0" len="12" vol="72" />
          <note key="55" pos="1044" pan="0" len="12" vol="75" />
          <note key="48" pos="1056" pan="0" len="12" vol="78" />
          <note key="53" pos="1068" pan="0" len="12" vol="81" />
          <note key="55" pos="1080" pan="0" len="12" vol="84" />
          <note key="48" pos="1092" pan="0" len="12" vol="88" />
          <note key="53" pos="1104" pan="0" len="12" vol="91" />
          <note key="55" pos="1116" pan="0" len="12" vol="94" />
          <note key="48" pos="1128" pan="0" len="12" vol="97" />
          <note key="53" pos="1140" pan="0" len="12" vol="100" />
          <note key="55" pos="1152" pan="0" len="12" vol="100" />
          <note key="48" pos="1164" pan="0" len="12" vol="100" />
          <note key="53" pos="1176" pan="0" len="12" vol="100" />
          <note key="55" pos="1188" pan="0" len="12" vol="100" />
          <note key="48" pos="1200" pan="0" len="12" vol="100" />
          <note key="53" pos="1212" pan="0" len="12" vol="100" />
          <note key="55" pos="1224" pan="0" len="12" vol="100" />
          <note key="48" pos="1236" pan="0" len="12" vol="100" />
          <note key="53" pos="1248" pan="0" len="12" vol="100" />
          <note key="55" pos="1260" pan="0" len="12" vol="100" />
          <note key="48" pos="1272" pan="0" len="12" vol="100" />
          <note key="53" pos="1284" pan="0" len="12" vol="100" />
          <note key="55" pos="1296" pan="0" len="12" vol="100" />
          <note key="48" pos="1308" pan="0" len="12" vol="100" />
          <note key="53" pos="1320" pan="0" len="12" vol="100" />
          <note key="55" pos="1332" pan="0" len="12" vol="100" />
          <note key="48" pos="1344" pan="0" len="12" vol="100" />
          <note key="53" pos="1356" pan="0" len="12" vol="100" />
          <note key="55" pos="1368" pan="0" len="12" vol="100" />
          <note key="48" pos="1380" pan="0" len="12" vol="100" />
          <note key="53" pos="1392" pan="0" len="12" vol="100" />
          <note key="55" pos="1404" pan="0" len="12" vol="100" />
          <note key="48" pos="1416" pan="0" len="12" vol="100" />
          <note key="53" pos="1428" pan="0" len="12" vol="100" />
          <note key="55" pos="1440" pan="0" len="12" vol="100" />
          <note key="48" pos="1452" pan="0" len="12" vol="100" />
          <note key="53" pos="1464" pan="0" len="12" vol="100" />
          <note key="55" pos="1476" pan="0" len="12" vol="100" />
          <note key="48" pos="1488" pan="0" len="12" vol="100" />
          <note key="53" pos="1500" pan="0" len="12" vol="100" />
          <note key="55" pos="1512" pan="0" len="12" vol="100" />
          <note key="48" pos="1524" pan="0" len="12" vol="100" />
        </pattern>
        <pattern pos="26880" muted="0" steps="16" name="" type="1">
          <note key="48" pos="0" pan="0" len="12" vol="100" />
          <note key="55" pos="12" pan="0" len="12" vol="98" />
          <note key="58" pos="24" pan="0" len="12" vol="97" />
          <note key="48" pos="36" pan="0" len="12" vol="95" />
          <note key="55" pos="48" pan="0" len="12" vol="94" />
          <note key="58" pos="60" pan="0" len="12" vol="92" />
          <note key="48" pos="72" pan="0" len="12" vol="91" />
          <note key="55" pos="84" pan="0" len="12" vol="89" />
          <note key="58" pos="96" pan="0" len="12" vol="88" />
          <note key="48" pos="108" pan="0" len="12" vol="86" />
          <note key="55" pos="120" pan="0" len="12" vol="84" />
          <note key="58" pos="132" pan="0" len="12" vol="83" />
          <note key="48" pos="144" pan="0" len="12" vol="81" />
          <note key="55" pos="156" pan="0" len="12" vol="80" />
          <note key="58" pos="168" pan="0" len="12" vol="78" />
          <note key="48" pos="180" pan="0" len="12" vol="77" />
          <note key="55" pos="192" pan="0" len="12" vol="75" />
          <note key="58" pos="204" pan="0" len="12" vol="73" />
          <note key="48" pos="216" pan="0" len="12" vol="72" />
          <note key="55" pos="228" pan="0" len="12" vol="70" />
          <note key="58" pos="240" pan="0" len="12" vol="69" />
          <note key="48" pos="252" pan="0" len="12" vol="67" />
          <note key="55" pos="264" pan="0" len="12" vol="66" />
          <note key="58" pos="276" pan="0" len="12" vol="64" />
          <note key="48" pos="288" pan="0" len="12" vol="62" />
          <note key="55" pos="300" pan="0" len="12" vol="61" />
          <note key="58" pos="312" pan="0" len="12" vol="59" />
          <note key="48" pos="324" pan="0" len="12" vol="58" />
          <note key="55" pos="336" pan="0" len="12" vol="56" />
          <note key="58" pos="348" pan="0" len="12" vol="55" />
          <note key="48" pos="360" pan="0" len="12" vol="53" />
          <note key="55" pos="372" pan="0" len="12" vol="52" />
          <note key="58" pos="384" pan="0" len="12" vol="48" />
          <note key="48" pos="396" pan="0" len="12" vol="47" />
          <note key="55" pos="408" pan="0" len="12" vol="45" />
          <note key="58" pos="420" pan="0" len="12" vol="44" />
          <note key="48" pos="432" pan="0" len="12" vol="42" />
          <note key="55" pos="444" pan="0" len="12" vol="41" />
          <note key="58" pos="456" pan="0" len="12" vol="39" />
          <note key="48" pos="468" pan="0" len="12" vol="38" />
          <note key="55" pos="480" pan="0" len="12" vol="36" />
          <note key="58" pos="492" pan="0" len="12" vol="34" />
          <note key="48" pos="504" pan="0" len="12" vol="33" />
          <note key="55" pos="516" pan="0" len="12" vol="31" />
          <note key="58" pos="528" pan="0" len="12" vol="30" />
          <note key="48" pos="540" pan="0" len="12" vol="28" />
          <note key="55" pos="552" pan="0" len="12" vol="27" />
          <note key="58" pos="564" pan="0" len="12" vol="25" />
          <note key="48" pos="576" pan="0" len="12" vol="23" />
          <note key="55" pos="588" pan="0" len="12" vol="22" />
          <note key="58" pos="600" pan="0" len="12" vol="20" />
          <note key="48" pos="612" pan="0" len="12" vol="19" />
          <note key="55" pos="624" pan="0" len="12" vol="17" />
          <note key="58" pos="636" pan="0" len="12" vol="16" />
          <note key="48" pos="648" pan="0" len="12" vol="14" />
          <note key="55" pos="660" pan="0" len="12" vol="12" />
          <note key="58" pos="672" pan="0" len="12" vol="11" />
          <note key="48" pos="684" pan="0" len="12" vol="9" />
          <note key="55" pos="696" pan="0" len="12" vol="8" />
          <note key="58" pos="708" pan="0" len="12" vol="6" />
          <note key="48" pos="720" pan="0" len="12" vol="5" />
          <note key="55" pos="732" pan="0" len="12" vol="3" />
          <note key="58" pos="744" pan="0" len="24" vol="2" />
          <note key="41" pos="768" pan="0" len="768" vol="100" />
        </pattern>
      </track>
      <track solo="0" name="9 (Ch8)" type="0" muted="0">
        <instrumenttrack usemasterpitch="1" pitch="0.0" basenote="57" pan="0" pitchrange="12" vol="30">
          <eldata />
          <instrument name="tripleoscillator" />
        </instrumenttrack>
        <pattern pos="58368" muted="0" steps="16" name="" type="1">
          <note key="48" pos="0" pan="0" len="24" vol="17" />
          <note key="55" pos="24" pan="0" len="24" vol="22" />
          <note key="48" pos="48" pan="0" len="24" vol="27" />
          <note key="53" pos="72" pan="0" len="24" vol="31" />
          <note key="55" pos="96" pan="0" len="24" vol="36" />
          <note key="48" pos="120" pan="0" len="24" vol="42" />
          <note key="53" pos="144" pan="0" len="24" vol="47" />
          <note key="55" pos="168" pan="0" len="24" vol="52" />
          <note key="48" pos="192" pan="0" len="24" vol="56" />
          <note key="53" pos="216" pan="0" len="24" vol="61" />
          <note key="55" pos="240" pan="0" len="24" vol="66" />
          <note key="58" pos="264" pan="0" len="24" vol="70" />
          <note key="57" pos="288" pan="0" len="24" vol="75" />
          <note key="55" pos="312" pan="0" len="24" vol="81" />
          <note key="53" pos="336" pan="0" len="24" vol="86" />
          <note key="46" pos="360" pan="0" len="24" vol="91" />
          <note key="48" pos="384" pan="0" len="24" vol="95" />
          <note key="55" pos="408" pan="0" len="24" vol="91" />
          <note key="48" pos="432" pan="0" len="24" vol="86" />
          <note key="53" pos="456" pan="0" len="24" vol="81" />
          <note key="55" pos="480" pan="0" len="24" vol="77" />
          <note key="48" pos="504" pan="0" len="24" vol="70" />
          <note key="53" pos="528" pan="0" len="24" vol="66" />
          <note key="55" pos="552" pan="0" len="24" vol="61" />
          <note key="48" pos="576" pan="0" len="24" vol="56" />
          <note key="53" pos="600" pan="0" len="24" vol="52" />
          <note key="55" pos="624" pan="0" len="24" vol="47" />
          <note key="58" pos="648" pan="0" len="24" vol="42" />
          <note key="57" pos="672" pan="0" len="24" vol="38" />
          <note key="55" pos="696" pan="0" len="24" vol="31" />
          <note key="53" pos="720" pan="0" len="24" vol="27" />
          <note key="46" pos="744" pan="0" len="24" vol="22" />
          <note key="51" pos="768" pan="0" len="24" vol="17" />
          <note key="55" pos="792" pan="0" len="24" vol="22" />
          <note key="51" pos="816" pan="0" len="24" vol="27" />
          <note key="53" pos="840" pan="0" len="24" vol="31" />
          <note key="55" pos="864" pan="0" len="24" vol="36" />
          <note key="51" pos="888" pan="0" len="24" vol="42" />
          <note key="53" pos="912" pan="0" len="24" vol="47" />
          <note key="55" pos="936" pan="0" len="24" vol="52" />
          <note key="51" pos="960" pan="0" len="24" vol="56" />
          <note key="53" pos="984" pan="0" len="24" vol="61" />
          <note key="55" pos="1008" pan="0" len="24" vol="66" />
          <note key="58" pos="1032" pan="0" len="24" vol="70" />
          <note key="57" pos="1056" pan="0" len="24" vol="75" />
          <note key="55" pos="1080" pan="0" len="24" vol="81" />
          <note key="53" pos="1104" pan="0" len="24" vol="86" />
          <note key="51" pos="1128" pan="0" len="24" vol="91" />
          <note key="53" pos="1152" pan="0" len="24" vol="95" />
          <note key="55" pos="1176" pan="0" len="24" vol="91" />
          <note key="48" pos="1200" pan="0" len="24" vol="86" />
          <note key="53" pos="1224" pan="0" len="24" vol="81" />
          <note key="55" pos="1248" pan="0" len="24" vol="77" />
          <note key="53" pos="1272" pan="0" len="24" vol="70" />
          <note key="53" pos="1296" pan="0" len="24" vol="66" />
          <note key="55" pos="1320" pan="0" len="24" vol="61" />
          <note key="48" pos="1344" pan="0" len="24" vol="56" />
          <note key="53" pos="1368" pan="0" len="24" vol="52" />
          <note key="55" pos="1392" pan="0" len="24" vol="47" />
          <note key="58" pos="1416" pan="0" len="24" vol="42" />
          <note key="57" pos="1440" pan="0" len="24" vol="38" />
          <note key="55" pos="1464" pan="0" len="24" vol="31" />
          <note key="53" pos="1488" pan="0" len="24" vol="27" />
          <note key="46" pos="1512" pan="0" len="24" vol="22" />
        </pattern>
        <pattern pos="8448" muted="0" steps="16" name="" type="1">
          <note key="60" pos="24" pan="0" len="12" vol="9" />
          <note key="67" pos="36" pan="0" len="12" vol="27" />
          <note key="60" pos="48" pan="0" len="12" vol="44" />
          <note key="67" pos="60" pan="0" len="12" vol="59" />
          <note key="60" pos="72" pan="0" len="12" vol="77" />
          <note key="67" pos="84" pan="0" len="12" vol="94" />
          <note key="60" pos="96" pan="0" len="12" vol="100" />
          <note key="67" pos="108" pan="0" len="12" vol="100" />
          <note key="60" pos="120" pan="0" len="12" vol="100" />
          <note key="67" pos="132" pan="0" len="12" vol="94" />
          <note key="60" pos="144" pan="0" len="12" vol="77" />
          <note key="67" pos="156" pan="0" len="12" vol="59" />
          <note key="60" pos="168" pan="0" len="12" vol="44" />
          <note key="67" pos="180" pan="0" len="12" vol="27" />
          <note key="60" pos="192" pan="0" len="24" vol="9" />
          <note key="67" pos="216" pan="0" len="12" vol="9" />
          <note key="70" pos="228" pan="0" len="12" vol="27" />
          <note key="67" pos="240" pan="0" len="12" vol="44" />
          <note key="70" pos="252" pan="0" len="12" vol="59" />
          <note key="67" pos="264" pan="0" len="12" vol="77" />
          <note key="70" pos="276" pan="0" len="12" vol="94" />
          <note key="67" pos="288" pan="0" len="12" vol="100" />
          <note key="70" pos="300" pan="0" len="12" vol="100" />
          <note key="67" pos="312" pan="0" len="12" vol="100" />
          <note key="70" pos="324" pan="0" len="12" vol="94" />
          <note key="67" pos="336" pan="0" len="12" vol="77" />
          <note key="70" pos="348" pan="0" len="12" vol="59" />
          <note key="67" pos="360" pan="0" len="12" vol="44" />
          <note key="70" pos="372" pan="0" len="12" vol="27" />
          <note key="67" pos="384" pan="0" len="12" vol="9" />
        </pattern>
        <pattern pos="9216" muted="0" steps="16" name="" type="1">
          <note key="60" pos="24" pan="0" len="12" vol="9" />
          <note key="67" pos="36" pan="0" len="12" vol="27" />
          <note key="60" pos="48" pan="0" len="12" vol="44" />
          <note key="67" pos="60" pan="0" len="12" vol="59" />
          <note key="60" pos="72" pan="0" len="12" vol="77" />
          <note key="67" pos="84" pan="0" len="12" vol="94" />
          <note key="60" pos="96" pan="0" len="12" vol="100" />
          <note key="67" pos="108" pan="0" len="12" vol="100" />
          <note key="60" pos="120" pan="0" len="12" vol="100" />
          <note key="67" pos="132" pan="0" len="12" vol="94" />
          <note key="60" pos="144" pan="0" len="12" vol="77" />
          <note key="67" pos="156" pan="0" len="12" vol="59" />
          <note key="60" pos="168" pan="0" len="12" vol="44" />
          <note key="67" pos="180" pan="0" len="12" vol="27" />
          <note key="60" pos="192" pan="0" len="24" vol="9" />
          <note key="67" pos="216" pan="0" len="12" vol="9" />
          <note key="70" pos="228" pan="0" len="12" vol="27" />
          <note key="67" pos="240" pan="0" len="12" vol="44" />
          <note key="70" pos="252" pan="0" len="12" vol="59" />
          <note key="67" pos="264" pan="0" len="12" vol="77" />
          <note key="70" pos="276" pan="0" len="12" vol="94" />
          <note key="67" pos="288" pan="0" len="12" vol="100" />
          <note key="70" pos="300" pan="0" len="12" vol="100" />
          <note key="67" pos="312" pan="0" len="12" vol="100" />
          <note key="70" pos="324" pan="0" len="12" vol="94" />
          <note key="67" pos="336" pan="0" len="12" vol="77" />
          <note key="70" pos="348" pan="0" len="12" vol="59" />
          <note key="67" pos="360" pan="0" len="12" vol="44" />
          <note key="70" pos="372" pan="0" len="12" vol="27" />
          <note key="67" pos="384" pan="0" len="12" vol="9" />
        </pattern>
        <pattern pos="29568" muted="0" steps="16" name="" type="1">
          <note key="67" pos="0" pan="0" len="12" vol="2" />
          <note key="70" pos="12" pan="0" len="12" vol="6" />
          <note key="67" pos="24" pan="0" len="12" vol="9" />
          <note key="69" pos="36" pan="0" len="12" vol="14" />
          <note key="67" pos="48" pan="0" len="12" vol="17" />
          <note key="63" pos="60" pan="0" len="12" vol="22" />
          <note key="67" pos="72" pan="0" len="12" vol="27" />
          <note key="70" pos="84" pan="0" len="12" vol="30" />
          <note key="67" pos="96" pan="0" len="12" vol="34" />
          <note key="69" pos="108" pan="0" len="12" vol="39" />
          <note key="67" pos="120" pan="0" len="12" vol="42" />
          <note key="63" pos="132" pan="0" len="12" vol="47" />
          <note key="67" pos="144" pan="0" len="12" vol="50" />
          <note key="70" pos="156" pan="0" len="12" vol="55" />
          <note key="67" pos="168" pan="0" len="12" vol="59" />
          <note key="69" pos="180" pan="0" len="12" vol="62" />
          <note key="67" pos="192" pan="0" len="12" vol="67" />
          <note key="63" pos="204" pan="0" len="12" vol="72" />
          <note key="67" pos="216" pan="0" len="12" vol="75" />
          <note key="70" pos="228" pan="0" len="12" vol="80" />
          <note key="67" pos="240" pan="0" len="12" vol="83" />
          <note key="69" pos="252" pan="0" len="12" vol="88" />
          <note key="67" pos="264" pan="0" len="12" vol="92" />
          <note key="63" pos="276" pan="0" len="12" vol="95" />
          <note key="67" pos="288" pan="0" len="12" vol="100" />
          <note key="70" pos="300" pan="0" len="12" vol="95" />
          <note key="67" pos="312" pan="0" len="12" vol="92" />
          <note key="69" pos="324" pan="0" len="12" vol="88" />
          <note key="67" pos="336" pan="0" len="12" vol="83" />
          <note key="63" pos="348" pan="0" len="12" vol="78" />
          <note key="67" pos="360" pan="0" len="12" vol="75" />
          <note key="70" pos="372" pan="0" len="12" vol="70" />
          <note key="67" pos="384" pan="0" len="12" vol="66" />
          <note key="69" pos="396" pan="0" len="12" vol="61" />
          <note key="67" pos="408" pan="0" len="12" vol="58" />
          <note key="63" pos="420" pan="0" len="12" vol="53" />
          <note key="67" pos="432" pan="0" len="12" vol="48" />
          <note key="70" pos="444" pan="0" len="12" vol="44" />
          <note key="67" pos="456" pan="0" len="12" vol="41" />
          <note key="69" pos="468" pan="0" len="12" vol="36" />
          <note key="67" pos="480" pan="0" len="12" vol="31" />
          <note key="63" pos="492" pan="0" len="12" vol="27" />
          <note key="67" pos="504" pan="0" len="12" vol="23" />
          <note key="70" pos="516" pan="0" len="12" vol="19" />
          <note key="67" pos="528" pan="0" len="12" vol="14" />
          <note key="69" pos="540" pan="0" len="12" vol="9" />
          <note key="67" pos="552" pan="0" len="12" vol="6" />
          <note key="63" pos="564" pan="0" len="12" vol="2" />
          <note key="67" pos="576" pan="0" len="12" vol="2" />
          <note key="70" pos="588" pan="0" len="12" vol="6" />
          <note key="67" pos="600" pan="0" len="12" vol="9" />
          <note key="69" pos="612" pan="0" len="12" vol="14" />
          <note key="67" pos="624" pan="0" len="12" vol="17" />
          <note key="63" pos="636" pan="0" len="12" vol="22" />
          <note key="67" pos="648" pan="0" len="12" vol="27" />
          <note key="70" pos="660" pan="0" len="12" vol="30" />
          <note key="67" pos="672" pan="0" len="12" vol="34" />
          <note key="69" pos="684" pan="0" len="12" vol="39" />
          <note key="67" pos="696" pan="0" len="12" vol="42" />
          <note key="63" pos="708" pan="0" len="12" vol="47" />
          <note key="67" pos="720" pan="0" len="12" vol="50" />
          <note key="70" pos="732" pan="0" len="12" vol="55" />
          <note key="67" pos="744" pan="0" len="12" vol="59" />
          <note key="69" pos="756" pan="0" len="12" vol="62" />
          <note key="67" pos="768" pan="0" len="12" vol="67" />
          <note key="63" pos="780" pan="0" len="12" vol="72" />
          <note key="67" pos="792" pan="0" len="12" vol="75" />
          <note key="70" pos="804" pan="0" len="12" vol="80" />
          <note key="67" pos="816" pan="0" len="12" vol="83" />
          <note key="69" pos="828" pan="0" len="12" vol="88" />
          <note key="67" pos="840" pan="0" len="12" vol="92" />
          <note key="63" pos="852" pan="0" len="12" vol="95" />
          <note key="67" pos="864" pan="0" len="12" vol="100" />
          <note key="70" pos="876" pan="0" len="12" vol="95" />
          <note key="67" pos="888" pan="0" len="12" vol="92" />
          <note key="69" pos="900" pan="0" len="12" vol="88" />
          <note key="67" pos="912" pan="0" len="12" vol="83" />
          <note key="63" pos="924" pan="0" len="12" vol="78" />
          <note key="67" pos="936" pan="0" len="12" vol="75" />
          <note key="70" pos="948" pan="0" len="12" vol="70" />
          <note key="67" pos="960" pan="0" len="12" vol="66" />
          <note key="69" pos="972" pan="0" len="12" vol="61" />
          <note key="67" pos="984" pan="0" len="12" vol="58" />
          <note key="63" pos="996" pan="0" len="12" vol="53" />
          <note key="67" pos="1008" pan="0" len="12" vol="48" />
          <note key="70" pos="1020" pan="0" len="12" vol="44" />
          <note key="67" pos="1032" pan="0" len="12" vol="41" />
          <note key="69" pos="1044" pan="0" len="12" vol="36" />
          <note key="67" pos="1056" pan="0" len="12" vol="31" />
          <note key="63" pos="1068" pan="0" len="12" vol="27" />
          <note key="67" pos="1080" pan="0" len="12" vol="23" />
          <note key="70" pos="1092" pan="0" len="12" vol="19" />
          <note key="67" pos="1104" pan="0" len="12" vol="14" />
          <note key="69" pos="1116" pan="0" len="12" vol="9" />
          <note key="67" pos="1128" pan="0" len="12" vol="6" />
          <note key="63" pos="1140" pan="0" len="12" vol="2" />
        </pattern>
        <pattern pos="30720" muted="0" steps="16" name="" type="1">
          <note key="67" pos="0" pan="0" len="12" vol="2" />
          <note key="70" pos="12" pan="0" len="12" vol="6" />
          <note key="67" pos="24" pan="0" len="12" vol="9" />
          <note key="69" pos="36" pan="0" len="12" vol="14" />
          <note key="67" pos="48" pan="0" len="12" vol="17" />
          <note key="63" pos="60" pan="0" len="12" vol="22" />
          <note key="67" pos="72" pan="0" len="12" vol="27" />
          <note key="70" pos="84" pan="0" len="12" vol="30" />
          <note key="67" pos="96" pan="0" len="12" vol="34" />
          <note key="69" pos="108" pan="0" len="12" vol="39" />
          <note key="67" pos="120" pan="0" len="12" vol="42" />
          <note key="63" pos="132" pan="0" len="12" vol="47" />
          <note key="67" pos="144" pan="0" len="12" vol="50" />
          <note key="70" pos="156" pan="0" len="12" vol="55" />
          <note key="67" pos="168" pan="0" len="12" vol="59" />
          <note key="69" pos="180" pan="0" len="12" vol="62" />
          <note key="67" pos="192" pan="0" len="12" vol="67" />
          <note key="63" pos="204" pan="0" len="12" vol="72" />
          <note key="67" pos="216" pan="0" len="12" vol="75" />
          <note key="70" pos="228" pan="0" len="12" vol="80" />
          <note key="67" pos="240" pan="0" len="12" vol="83" />
          <note key="69" pos="252" pan="0" len="12" vol="88" />
          <note key="67" pos="264" pan="0" len="12" vol="92" />
          <note key="63" pos="276" pan="0" len="12" vol="95" />
          <note key="67" pos="288" pan="0" len="12" vol="100" />
          <note key="70" pos="300" pan="0" len="12" vol="95" />
          <note key="67" pos="312" pan="0" len="12" vol="92" />
          <note key="69" pos="324" pan="0" len="12" vol="88" />
          <note key="67" pos="336" pan="0" len="12" vol="83" />
          <note key="63" pos="348" pan="0" len="12" vol="78" />
          <note key="67" pos="360" pan="0" len="12" vol="75" />
          <note key="70" pos="372" pan="0" len="12" vol="70" />
          <note key="67" pos="384" pan="0" len="12" vol="66" />
          <note key="69" pos="396" pan="0" len="12" vol="61" />
          <note key="67" pos="408" pan="0" len="12" vol="58" />
          <note key="63" pos="420" pan="0" len="12" vol="53" />
          <note key="67" pos="432" pan="0" len="12" vol="48" />
          <note key="70" pos="444" pan="0" len="12" vol="44" />
          <note key="67" pos="456" pan="0" len="12" vol="41" />
          <note key="69" pos="468" pan="0" len="12" vol="36" />
          <note key="67" pos="480" pan="0" len="12" vol="31" />
          <note key="63" pos="492" pan="0" len="12" vol="27" />
          <note key="67" pos="504" pan="0" len="12" vol="23" />
          <note key="70" pos="516" pan="0" len="12" vol="19" />
          <note key="67" pos="528" pan="0" len="12" vol="14" />
          <note key="69" pos="540" pan="0" len="12" vol="9" />
          <note key="67" pos="552" pan="0" len="12" vol="6" />
          <note key="63" pos="564" pan="0" len="12" vol="2" />
          <note key="67" pos="576" pan="0" len="12" vol="2" />
          <note key="70" pos="588" pan="0" len="12" vol="6" />
          <note key="67" pos="600" pan="0" len="12" vol="9" />
          <note key="69" pos="612" pan="0" len="12" vol="14" />
          <note key="67" pos="624" pan="0" len="12" vol="17" />
          <note key="63" pos="636" pan="0" len="12" vol="22" />
          <note key="67" pos="648" pan="0" len="12" vol="27" />
          <note key="70" pos="660" pan="0" len="12" vol="30" />
          <note key="67" pos="672" pan="0" len="12" vol="34" />
          <note key="69" pos="684" pan="0" len="12" vol="39" />
          <note key="67" pos="696" pan="0" len="12" vol="42" />
          <note key="63" pos="708" pan="0" len="12" vol="47" />
          <note key="67" pos="720" pan="0" len="12" vol="50" />
          <note key="70" pos="732" pan="0" len="12" vol="55" />
          <note key="67" pos="744" pan="0" len="12" vol="59" />
          <note key="69" pos="756" pan="0" len="12" vol="62" />
          <note key="67" pos="768" pan="0" len="12" vol="67" />
          <note key="63" pos="780" pan="0" len="12" vol="72" />
          <note key="67" pos="792" pan="0" len="12" vol="75" />
          <note key="70" pos="804" pan="0" len="12" vol="80" />
          <note key="67" pos="816" pan="0" len="12" vol="83" />
          <note key="69" pos="828" pan="0" len="12" vol="88" />
          <note key="67" pos="840" pan="0" len="12" vol="92" />
          <note key="63" pos="852" pan="0" len="12" vol="95" />
          <note key="67" pos="864" pan="0" len="12" vol="100" />
          <note key="70" pos="876" pan="0" len="12" vol="95" />
          <note key="67" pos="888" pan="0" len="12" vol="92" />
          <note key="69" pos="900" pan="0" len="12" vol="88" />
          <note key="67" pos="912" pan="0" len="12" vol="83" />
          <note key="63" pos="924" pan="0" len="12" vol="78" />
          <note key="67" pos="936" pan="0" len="12" vol="75" />
          <note key="70" pos="948" pan="0" len="12" vol="70" />
          <note key="67" pos="960" pan="0" len="12" vol="66" />
          <note key="69" pos="972" pan="0" len="12" vol="61" />
          <note key="67" pos="984" pan="0" len="12" vol="58" />
          <note key="63" pos="996" pan="0" len="12" vol="53" />
          <note key="67" pos="1008" pan="0" len="12" vol="48" />
          <note key="70" pos="1020" pan="0" len="12" vol="44" />
          <note key="67" pos="1032" pan="0" len="12" vol="41" />
          <note key="69" pos="1044" pan="0" len="12" vol="36" />
          <note key="67" pos="1056" pan="0" len="12" vol="31" />
          <note key="63" pos="1068" pan="0" len="12" vol="27" />
          <note key="67" pos="1080" pan="0" len="12" vol="23" />
          <note key="70" pos="1092" pan="0" len="12" vol="19" />
          <note key="67" pos="1104" pan="0" len="12" vol="14" />
          <note key="69" pos="1116" pan="0" len="12" vol="9" />
          <note key="67" pos="1128" pan="0" len="12" vol="6" />
          <note key="63" pos="1140" pan="0" len="12" vol="2" />
        </pattern>
        <pattern pos="31872" muted="0" steps="16" name="" type="1">
          <note key="67" pos="0" pan="0" len="12" vol="2" />
          <note key="70" pos="12" pan="0" len="12" vol="6" />
          <note key="67" pos="24" pan="0" len="12" vol="9" />
          <note key="69" pos="36" pan="0" len="12" vol="14" />
          <note key="67" pos="48" pan="0" len="12" vol="17" />
          <note key="63" pos="60" pan="0" len="12" vol="22" />
          <note key="67" pos="72" pan="0" len="12" vol="27" />
          <note key="70" pos="84" pan="0" len="12" vol="30" />
          <note key="67" pos="96" pan="0" len="12" vol="34" />
          <note key="69" pos="108" pan="0" len="12" vol="39" />
          <note key="67" pos="120" pan="0" len="12" vol="42" />
          <note key="63" pos="132" pan="0" len="12" vol="47" />
          <note key="67" pos="144" pan="0" len="12" vol="50" />
          <note key="70" pos="156" pan="0" len="12" vol="55" />
          <note key="67" pos="168" pan="0" len="12" vol="59" />
          <note key="69" pos="180" pan="0" len="12" vol="62" />
          <note key="67" pos="192" pan="0" len="12" vol="67" />
          <note key="63" pos="204" pan="0" len="12" vol="72" />
          <note key="67" pos="216" pan="0" len="12" vol="75" />
          <note key="70" pos="228" pan="0" len="12" vol="80" />
          <note key="67" pos="240" pan="0" len="12" vol="83" />
          <note key="69" pos="252" pan="0" len="12" vol="88" />
          <note key="67" pos="264" pan="0" len="12" vol="92" />
          <note key="63" pos="276" pan="0" len="12" vol="95" />
          <note key="67" pos="288" pan="0" len="12" vol="100" />
          <note key="70" pos="300" pan="0" len="12" vol="95" />
          <note key="67" pos="312" pan="0" len="12" vol="92" />
          <note key="69" pos="324" pan="0" len="12" vol="88" />
          <note key="67" pos="336" pan="0" len="12" vol="83" />
          <note key="63" pos="348" pan="0" len="12" vol="78" />
          <note key="67" pos="360" pan="0" len="12" vol="75" />
          <note key="70" pos="372" pan="0" len="12" vol="70" />
          <note key="67" pos="384" pan="0" len="12" vol="66" />
          <note key="69" pos="396" pan="0" len="12" vol="61" />
          <note key="67" pos="408" pan="0" len="12" vol="58" />
          <note key="63" pos="420" pan="0" len="12" vol="53" />
          <note key="67" pos="432" pan="0" len="12" vol="48" />
          <note key="70" pos="444" pan="0" len="12" vol="44" />
          <note key="67" pos="456" pan="0" len="12" vol="41" />
          <note key="69" pos="468" pan="0" len="12" vol="36" />
          <note key="67" pos="480" pan="0" len="12" vol="31" />
          <note key="63" pos="492" pan="0" len="12" vol="27" />
          <note key="67" pos="504" pan="0" len="12" vol="23" />
          <note key="70" pos="516" pan="0" len="12" vol="19" />
          <note key="67" pos="528" pan="0" len="12" vol="14" />
          <note key="69" pos="540" pan="0" len="12" vol="9" />
          <note key="67" pos="552" pan="0" len="12" vol="6" />
          <note key="63" pos="564" pan="0" len="12" vol="2" />
          <note key="67" pos="576" pan="0" len="12" vol="2" />
          <note key="70" pos="588" pan="0" len="12" vol="6" />
          <note key="67" pos="600" pan="0" len="12" vol="9" />
          <note key="69" pos="612" pan="0" len="12" vol="14" />
          <note key="67" pos="624" pan="0" len="12" vol="17" />
          <note key="63" pos="636" pan="0" len="12" vol="22" />
          <note key="67" pos="648" pan="0" len="12" vol="27" />
          <note key="70" pos="660" pan="0" len="12" vol="30" />
          <note key="67" pos="672" pan="0" len="12" vol="34" />
          <note key="69" pos="684" pan="0" len="12" vol="39" />
          <note key="67" pos="696" pan="0" len="12" vol="42" />
          <note key="63" pos="708" pan="0" len="12" vol="47" />
          <note key="67" pos="720" pan="0" len="12" vol="50" />
          <note key="70" pos="732" pan="0" len="12" vol="55" />
          <note key="67" pos="744" pan="0" len="12" vol="59" />
          <note key="69" pos="756" pan="0" len="12" vol="62" />
          <note key="67" pos="768" pan="0" len="12" vol="67" />
          <note key="63" pos="780" pan="0" len="12" vol="72" />
          <note key="67" pos="792" pan="0" len="12" vol="75" />
          <note key="70" pos="804" pan="0" len="12" vol="80" />
          <note key="67" pos="816" pan="0" len="12" vol="83" />
          <note key="69" pos="828" pan="0" len="12" vol="88" />
          <note key="67" pos="840" pan="0" len="12" vol="92" />
          <note key="63" pos="852" pan="0" len="12" vol="95" />
          <note key="67" pos="864" pan="0" len="12" vol="100" />
          <note key="70" pos="876" pan="0" len="12" vol="95" />
          <note key="67" pos="888" pan="0" len="12" vol="92" />
          <note key="69" pos="900" pan="0" len="12" vol="88" />
          <note key="67" pos="912" pan="0" len="12" vol="83" />
          <note key="63" pos="924" pan="0" len="12" vol="78" />
          <note key="67" pos="936" pan="0" len="12" vol="75" />
          <note key="70" pos="948" pan="0" len="12" vol="70" />
          <note key="67" pos="960" pan="0" len="12" vol="66" />
          <note key="69" pos="972" pan="0" len="12" vol="61" />
          <note key="67" pos="984" pan="0" len="12" vol="58" />
          <note key="63" pos="996" pan="0" len="12" vol="53" />
          <note key="67" pos="1008" pan="0" len="12" vol="48" />
          <note key="70" pos="1020" pan="0" len="12" vol="44" />
          <note key="67" pos="1032" pan="0" len="12" vol="41" />
          <note key="69" pos="1044" pan="0" len="12" vol="36" />
          <note key="67" pos="1056" pan="0" len="12" vol="31" />
          <note key="63" pos="1068" pan="0" len="12" vol="27" />
          <note key="67" pos="1080" pan="0" len="12" vol="23" />
          <note key="70" pos="1092" pan="0" len="12" vol="19" />
          <note key="67" pos="1104" pan="0" len="12" vol="14" />
          <note key="69" pos="1116" pan="0" len="12" vol="9" />
          <note key="67" pos="1128" pan="0" len="12" vol="6" />
          <note key="63" pos="1140" pan="0" len="12" vol="2" />
        </pattern>
        <pattern pos="33024" muted="0" steps="16" name="" type="1">
          <note key="67" pos="0" pan="0" len="12" vol="2" />
          <note key="70" pos="12" pan="0" len="12" vol="6" />
          <note key="67" pos="24" pan="0" len="12" vol="9" />
          <note key="69" pos="36" pan="0" len="12" vol="14" />
          <note key="67" pos="48" pan="0" len="12" vol="17" />
          <note key="63" pos="60" pan="0" len="12" vol="22" />
          <note key="67" pos="72" pan="0" len="12" vol="27" />
          <note key="70" pos="84" pan="0" len="12" vol="30" />
          <note key="67" pos="96" pan="0" len="12" vol="34" />
          <note key="69" pos="108" pan="0" len="12" vol="39" />
          <note key="67" pos="120" pan="0" len="12" vol="42" />
          <note key="63" pos="132" pan="0" len="12" vol="47" />
          <note key="67" pos="144" pan="0" len="12" vol="50" />
          <note key="70" pos="156" pan="0" len="12" vol="55" />
          <note key="67" pos="168" pan="0" len="12" vol="59" />
          <note key="69" pos="180" pan="0" len="12" vol="62" />
          <note key="67" pos="192" pan="0" len="12" vol="67" />
          <note key="63" pos="204" pan="0" len="12" vol="72" />
          <note key="67" pos="216" pan="0" len="12" vol="75" />
          <note key="70" pos="228" pan="0" len="12" vol="80" />
          <note key="67" pos="240" pan="0" len="12" vol="83" />
          <note key="69" pos="252" pan="0" len="12" vol="88" />
          <note key="67" pos="264" pan="0" len="12" vol="92" />
          <note key="63" pos="276" pan="0" len="12" vol="95" />
          <note key="67" pos="288" pan="0" len="12" vol="100" />
          <note key="70" pos="300" pan="0" len="12" vol="95" />
          <note key="67" pos="312" pan="0" len="12" vol="92" />
          <note key="69" pos="324" pan="0" len="12" vol="88" />
          <note key="67" pos="336" pan="0" len="12" vol="83" />
          <note key="63" pos="348" pan="0" len="12" vol="78" />
          <note key="67" pos="360" pan="0" len="12" vol="75" />
          <note key="70" pos="372" pan="0" len="12" vol="70" />
          <note key="67" pos="384" pan="0" len="12" vol="66" />
          <note key="69" pos="396" pan="0" len="12" vol="61" />
          <note key="67" pos="408" pan="0" len="12" vol="58" />
          <note key="63" pos="420" pan="0" len="12" vol="53" />
          <note key="67" pos="432" pan="0" len="12" vol="48" />
          <note key="70" pos="444" pan="0" len="12" vol="44" />
          <note key="67" pos="456" pan="0" len="12" vol="41" />
          <note key="69" pos="468" pan="0" len="12" vol="36" />
          <note key="67" pos="480" pan="0" len="12" vol="31" />
          <note key="63" pos="492" pan="0" len="12" vol="27" />
          <note key="67" pos="504" pan="0" len="12" vol="23" />
          <note key="70" pos="516" pan="0" len="12" vol="19" />
          <note key="67" pos="528" pan="0" len="12" vol="14" />
          <note key="69" pos="540" pan="0" len="12" vol="9" />
          <note key="67" pos="552" pan="0" len="12" vol="6" />
          <note key="63" pos="564" pan="0" len="12" vol="2" />
          <note key="67" pos="576" pan="0" len="12" vol="2" />
          <note key="70" pos="588" pan="0" len="12" vol="6" />
          <note key="67" pos="600" pan="0" len="12" vol="9" />
          <note key="69" pos="612" pan="0" len="12" vol="14" />
          <note key="67" pos="624" pan="0" len="12" vol="17" />
          <note key="63" pos="636" pan="0" len="12" vol="22" />
          <note key="67" pos="648" pan="0" len="12" vol="27" />
          <note key="70" pos="660" pan="0" len="12" vol="30" />
          <note key="67" pos="672" pan="0" len="12" vol="34" />
          <note key="69" pos="684" pan="0" len="12" vol="39" />
          <note key="67" pos="696" pan="0" len="12" vol="42" />
          <note key="63" pos="708" pan="0" len="12" vol="47" />
          <note key="67" pos="720" pan="0" len="12" vol="50" />
          <note key="70" pos="732" pan="0" len="12" vol="55" />
          <note key="67" pos="744" pan="0" len="12" vol="59" />
          <note key="69" pos="756" pan="0" len="12" vol="62" />
          <note key="67" pos="768" pan="0" len="12" vol="67" />
          <note key="63" pos="780" pan="0" len="12" vol="72" />
          <note key="67" pos="792" pan="0" len="12" vol="75" />
          <note key="70" pos="804" pan="0" len="12" vol="80" />
          <note key="67" pos="816" pan="0" len="12" vol="83" />
          <note key="69" pos="828" pan="0" len="12" vol="88" />
          <note key="67" pos="840" pan="0" len="12" vol="92" />
          <note key="63" pos="852" pan="0" len="12" vol="95" />
          <note key="67" pos="864" pan="0" len="12" vol="100" />
          <note key="70" pos="876" pan="0" len="12" vol="95" />
          <note key="67" pos="888" pan="0" len="12" vol="92" />
          <note key="69" pos="900" pan="0" len="12" vol="88" />
          <note key="67" pos="912" pan="0" len="12" vol="83" />
          <note key="63" pos="924" pan="0" len="12" vol="78" />
          <note key="67" pos="936" pan="0" len="12" vol="75" />
          <note key="70" pos="948" pan="0" len="12" vol="70" />
          <note key="67" pos="960" pan="0" len="12" vol="66" />
          <note key="69" pos="972" pan="0" len="12" vol="61" />
          <note key="67" pos="984" pan="0" len="12" vol="58" />
          <note key="63" pos="996" pan="0" len="12" vol="53" />
          <note key="67" pos="1008" pan="0" len="12" vol="48" />
          <note key="70" pos="1020" pan="0" len="12" vol="44" />
          <note key="67" pos="1032" pan="0" len="12" vol="41" />
          <note key="69" pos="1044" pan="0" len="12" vol="36" />
          <note key="67" pos="1056" pan="0" len="12" vol="31" />
          <note key="63" pos="1068" pan="0" len="12" vol="27" />
          <note key="67" pos="1080" pan="0" len="12" vol="23" />
          <note key="70" pos="1092" pan="0" len="12" vol="19" />
          <note key="67" pos="1104" pan="0" len="12" vol="14" />
          <note key="69" pos="1116" pan="0" len="12" vol="9" />
          <note key="67" pos="1128" pan="0" len="12" vol="6" />
          <note key="63" pos="1140" pan="0" len="12" vol="2" />
        </pattern>
        <pattern pos="34176" muted="0" steps="16" name="" type="1">
          <note key="70" pos="0" pan="0" len="12" vol="2" />
          <note key="73" pos="12" pan="0" len="12" vol="6" />
          <note key="70" pos="24" pan="0" len="12" vol="9" />
          <note key="72" pos="36" pan="0" len="12" vol="14" />
          <note key="70" pos="48" pan="0" len="12" vol="17" />
          <note key="66" pos="60" pan="0" len="12" vol="22" />
          <note key="70" pos="72" pan="0" len="12" vol="27" />
          <note key="73" pos="84" pan="0" len="12" vol="30" />
          <note key="70" pos="96" pan="0" len="12" vol="34" />
          <note key="72" pos="108" pan="0" len="12" vol="39" />
          <note key="70" pos="120" pan="0" len="12" vol="42" />
          <note key="66" pos="132" pan="0" len="12" vol="47" />
          <note key="70" pos="144" pan="0" len="12" vol="50" />
          <note key="73" pos="156" pan="0" len="12" vol="55" />
          <note key="70" pos="168" pan="0" len="12" vol="59" />
          <note key="72" pos="180" pan="0" len="12" vol="62" />
          <note key="70" pos="192" pan="0" len="12" vol="67" />
          <note key="66" pos="204" pan="0" len="12" vol="72" />
          <note key="70" pos="216" pan="0" len="12" vol="75" />
          <note key="73" pos="228" pan="0" len="12" vol="80" />
          <note key="70" pos="240" pan="0" len="12" vol="83" />
          <note key="72" pos="252" pan="0" len="12" vol="88" />
          <note key="70" pos="264" pan="0" len="12" vol="92" />
          <note key="66" pos="276" pan="0" len="12" vol="95" />
          <note key="70" pos="288" pan="0" len="12" vol="100" />
          <note key="73" pos="300" pan="0" len="12" vol="95" />
          <note key="70" pos="312" pan="0" len="12" vol="92" />
          <note key="72" pos="324" pan="0" len="12" vol="88" />
          <note key="70" pos="336" pan="0" len="12" vol="83" />
          <note key="66" pos="348" pan="0" len="12" vol="78" />
          <note key="70" pos="360" pan="0" len="12" vol="75" />
          <note key="73" pos="372" pan="0" len="12" vol="70" />
          <note key="70" pos="384" pan="0" len="12" vol="66" />
          <note key="72" pos="396" pan="0" len="12" vol="61" />
          <note key="70" pos="408" pan="0" len="12" vol="58" />
          <note key="66" pos="420" pan="0" len="12" vol="53" />
          <note key="70" pos="432" pan="0" len="12" vol="48" />
          <note key="73" pos="444" pan="0" len="12" vol="44" />
          <note key="70" pos="456" pan="0" len="12" vol="41" />
          <note key="72" pos="468" pan="0" len="12" vol="36" />
          <note key="70" pos="480" pan="0" len="12" vol="31" />
          <note key="66" pos="492" pan="0" len="12" vol="27" />
          <note key="70" pos="504" pan="0" len="12" vol="23" />
          <note key="73" pos="516" pan="0" len="12" vol="19" />
          <note key="70" pos="528" pan="0" len="12" vol="14" />
          <note key="72" pos="540" pan="0" len="12" vol="9" />
          <note key="70" pos="552" pan="0" len="12" vol="6" />
          <note key="66" pos="564" pan="0" len="12" vol="2" />
          <note key="70" pos="576" pan="0" len="12" vol="2" />
          <note key="73" pos="588" pan="0" len="12" vol="6" />
          <note key="70" pos="600" pan="0" len="12" vol="9" />
          <note key="72" pos="612" pan="0" len="12" vol="14" />
          <note key="70" pos="624" pan="0" len="12" vol="17" />
          <note key="66" pos="636" pan="0" len="12" vol="22" />
          <note key="70" pos="648" pan="0" len="12" vol="27" />
          <note key="73" pos="660" pan="0" len="12" vol="30" />
          <note key="70" pos="672" pan="0" len="12" vol="34" />
          <note key="72" pos="684" pan="0" len="12" vol="39" />
          <note key="70" pos="696" pan="0" len="12" vol="42" />
          <note key="66" pos="708" pan="0" len="12" vol="47" />
          <note key="70" pos="720" pan="0" len="12" vol="50" />
          <note key="73" pos="732" pan="0" len="12" vol="55" />
          <note key="70" pos="744" pan="0" len="12" vol="59" />
          <note key="72" pos="756" pan="0" len="12" vol="62" />
          <note key="70" pos="768" pan="0" len="12" vol="67" />
          <note key="66" pos="780" pan="0" len="12" vol="72" />
          <note key="70" pos="792" pan="0" len="12" vol="75" />
          <note key="73" pos="804" pan="0" len="12" vol="80" />
          <note key="70" pos="816" pan="0" len="12" vol="83" />
          <note key="72" pos="828" pan="0" len="12" vol="88" />
          <note key="70" pos="840" pan="0" len="12" vol="92" />
          <note key="66" pos="852" pan="0" len="12" vol="95" />
          <note key="70" pos="864" pan="0" len="12" vol="100" />
          <note key="73" pos="876" pan="0" len="12" vol="95" />
          <note key="70" pos="888" pan="0" len="12" vol="92" />
          <note key="72" pos="900" pan="0" len="12" vol="88" />
          <note key="70" pos="912" pan="0" len="12" vol="83" />
          <note key="66" pos="924" pan="0" len="12" vol="78" />
          <note key="70" pos="936" pan="0" len="12" vol="75" />
          <note key="73" pos="948" pan="0" len="12" vol="70" />
          <note key="70" pos="960" pan="0" len="12" vol="66" />
          <note key="72" pos="972" pan="0" len="12" vol="61" />
          <note key="70" pos="984" pan="0" len="12" vol="58" />
          <note key="66" pos="996" pan="0" len="12" vol="53" />
          <note key="70" pos="1008" pan="0" len="12" vol="48" />
          <note key="73" pos="1020" pan="0" len="12" vol="44" />
          <note key="70" pos="1032" pan="0" len="12" vol="41" />
          <note key="72" pos="1044" pan="0" len="12" vol="36" />
          <note key="70" pos="1056" pan="0" len="12" vol="31" />
          <note key="66" pos="1068" pan="0" len="12" vol="27" />
          <note key="70" pos="1080" pan="0" len="12" vol="23" />
          <note key="73" pos="1092" pan="0" len="12" vol="19" />
          <note key="70" pos="1104" pan="0" len="12" vol="14" />
          <note key="72" pos="1116" pan="0" len="12" vol="9" />
          <note key="70" pos="1128" pan="0" len="12" vol="6" />
          <note key="66" pos="1140" pan="0" len="12" vol="2" />
        </pattern>
        <pattern pos="35328" muted="0" steps="16" name="" type="1">
          <note key="70" pos="0" pan="0" len="12" vol="2" />
          <note key="73" pos="12" pan="0" len="12" vol="6" />
          <note key="70" pos="24" pan="0" len="12" vol="9" />
          <note key="72" pos="36" pan="0" len="12" vol="14" />
          <note key="70" pos="48" pan="0" len="12" vol="17" />
          <note key="66" pos="60" pan="0" len="12" vol="22" />
          <note key="70" pos="72" pan="0" len="12" vol="27" />
          <note key="73" pos="84" pan="0" len="12" vol="30" />
          <note key="70" pos="96" pan="0" len="12" vol="34" />
          <note key="72" pos="108" pan="0" len="12" vol="39" />
          <note key="70" pos="120" pan="0" len="12" vol="42" />
          <note key="66" pos="132" pan="0" len="12" vol="47" />
          <note key="70" pos="144" pan="0" len="12" vol="50" />
          <note key="73" pos="156" pan="0" len="12" vol="55" />
          <note key="70" pos="168" pan="0" len="12" vol="59" />
          <note key="72" pos="180" pan="0" len="12" vol="62" />
          <note key="70" pos="192" pan="0" len="12" vol="67" />
          <note key="66" pos="204" pan="0" len="12" vol="72" />
          <note key="70" pos="216" pan="0" len="12" vol="75" />
          <note key="73" pos="228" pan="0" len="12" vol="80" />
          <note key="70" pos="240" pan="0" len="12" vol="83" />
          <note key="72" pos="252" pan="0" len="12" vol="88" />
          <note key="70" pos="264" pan="0" len="12" vol="92" />
          <note key="66" pos="276" pan="0" len="12" vol="95" />
          <note key="70" pos="288" pan="0" len="12" vol="100" />
          <note key="73" pos="300" pan="0" len="12" vol="95" />
          <note key="70" pos="312" pan="0" len="12" vol="92" />
          <note key="72" pos="324" pan="0" len="12" vol="88" />
          <note key="70" pos="336" pan="0" len="12" vol="83" />
          <note key="66" pos="348" pan="0" len="12" vol="78" />
          <note key="70" pos="360" pan="0" len="12" vol="75" />
          <note key="73" pos="372" pan="0" len="12" vol="70" />
          <note key="70" pos="384" pan="0" len="12" vol="66" />
          <note key="72" pos="396" pan="0" len="12" vol="61" />
          <note key="70" pos="408" pan="0" len="12" vol="58" />
          <note key="66" pos="420" pan="0" len="12" vol="53" />
          <note key="70" pos="432" pan="0" len="12" vol="48" />
          <note key="73" pos="444" pan="0" len="12" vol="44" />
          <note key="70" pos="456" pan="0" len="12" vol="41" />
          <note key="72" pos="468" pan="0" len="12" vol="36" />
          <note key="70" pos="480" pan="0" len="12" vol="31" />
          <note key="66" pos="492" pan="0" len="12" vol="27" />
          <note key="70" pos="504" pan="0" len="12" vol="23" />
          <note key="73" pos="516" pan="0" len="12" vol="19" />
          <note key="70" pos="528" pan="0" len="12" vol="14" />
          <note key="72" pos="540" pan="0" len="12" vol="9" />
          <note key="70" pos="552" pan="0" len="12" vol="6" />
          <note key="66" pos="564" pan="0" len="12" vol="2" />
          <note key="70" pos="576" pan="0" len="12" vol="2" />
          <note key="73" pos="588" pan="0" len="12" vol="6" />
          <note key="70" pos="600" pan="0" len="12" vol="9" />
          <note key="72" pos="612" pan="0" len="12" vol="14" />
          <note key="70" pos="624" pan="0" len="12" vol="17" />
          <note key="66" pos="636" pan="0" len="12" vol="22" />
          <note key="70" pos="648" pan="0" len="12" vol="27" />
          <note key="73" pos="660" pan="0" len="12" vol="30" />
          <note key="70" pos="672" pan="0" len="12" vol="34" />
          <note key="72" pos="684" pan="0" len="12" vol="39" />
          <note key="70" pos="696" pan="0" len="12" vol="42" />
          <note key="66" pos="708" pan="0" len="12" vol="47" />
          <note key="70" pos="720" pan="0" len="12" vol="50" />
          <note key="73" pos="732" pan="0" len="12" vol="55" />
          <note key="70" pos="744" pan="0" len="12" vol="59" />
          <note key="72" pos="756" pan="0" len="12" vol="62" />
          <note key="70" pos="768" pan="0" len="12" vol="67" />
          <note key="66" pos="780" pan="0" len="12" vol="72" />
          <note key="70" pos="792" pan="0" len="12" vol="75" />
          <note key="73" pos="804" pan="0" len="12" vol="80" />
          <note key="70" pos="816" pan="0" len="12" vol="83" />
          <note key="72" pos="828" pan="0" len="12" vol="88" />
          <note key="70" pos="840" pan="0" len="12" vol="92" />
          <note key="66" pos="852" pan="0" len="12" vol="95" />
          <note key="70" pos="864" pan="0" len="12" vol="100" />
          <note key="73" pos="876" pan="0" len="12" vol="95" />
          <note key="70" pos="888" pan="0" len="12" vol="92" />
          <note key="72" pos="900" pan="0" len="12" vol="88" />
          <note key="70" pos="912" pan="0" len="12" vol="83" />
          <note key="66" pos="924" pan="0" len="12" vol="78" />
          <note key="70" pos="936" pan="0" len="12" vol="75" />
          <note key="73" pos="948" pan="0" len="12" vol="70" />
          <note key="70" pos="960" pan="0" len="12" vol="66" />
          <note key="72" pos="972" pan="0" len="12" vol="61" />
          <note key="70" pos="984" pan="0" len="12" vol="58" />
          <note key="66" pos="996" pan="0" len="12" vol="53" />
          <note key="70" pos="1008" pan="0" len="12" vol="48" />
          <note key="73" pos="1020" pan="0" len="12" vol="44" />
          <note key="70" pos="1032" pan="0" len="12" vol="41" />
          <note key="72" pos="1044" pan="0" len="12" vol="36" />
          <note key="70" pos="1056" pan="0" len="12" vol="31" />
          <note key="66" pos="1068" pan="0" len="12" vol="27" />
          <note key="70" pos="1080" pan="0" len="12" vol="23" />
          <note key="73" pos="1092" pan="0" len="12" vol="19" />
          <note key="70" pos="1104" pan="0" len="12" vol="14" />
          <note key="72" pos="1116" pan="0" len="12" vol="9" />
          <note key="70" pos="1128" pan="0" len="12" vol="6" />
          <note key="66" pos="1140" pan="0" len="12" vol="2" />
        </pattern>
        <pattern pos="36480" muted="0" steps="16" name="" type="1">
          <note key="67" pos="0" pan="0" len="12" vol="2" />
          <note key="70" pos="12" pan="0" len="12" vol="6" />
          <note key="67" pos="24" pan="0" len="12" vol="9" />
          <note key="69" pos="36" pan="0" len="12" vol="14" />
          <note key="67" pos="48" pan="0" len="12" vol="17" />
          <note key="63" pos="60" pan="0" len="12" vol="22" />
          <note key="67" pos="72" pan="0" len="12" vol="27" />
          <note key="70" pos="84" pan="0" len="12" vol="30" />
          <note key="67" pos="96" pan="0" len="12" vol="34" />
          <note key="69" pos="108" pan="0" len="12" vol="39" />
          <note key="67" pos="120" pan="0" len="12" vol="42" />
          <note key="63" pos="132" pan="0" len="12" vol="47" />
          <note key="67" pos="144" pan="0" len="12" vol="50" />
          <note key="70" pos="156" pan="0" len="12" vol="55" />
          <note key="67" pos="168" pan="0" len="12" vol="59" />
          <note key="69" pos="180" pan="0" len="12" vol="62" />
          <note key="67" pos="192" pan="0" len="12" vol="67" />
          <note key="63" pos="204" pan="0" len="12" vol="72" />
          <note key="67" pos="216" pan="0" len="12" vol="75" />
          <note key="70" pos="228" pan="0" len="12" vol="80" />
          <note key="67" pos="240" pan="0" len="12" vol="83" />
          <note key="69" pos="252" pan="0" len="12" vol="88" />
          <note key="67" pos="264" pan="0" len="12" vol="92" />
          <note key="63" pos="276" pan="0" len="12" vol="95" />
          <note key="67" pos="288" pan="0" len="12" vol="100" />
          <note key="70" pos="300" pan="0" len="12" vol="95" />
          <note key="67" pos="312" pan="0" len="12" vol="92" />
          <note key="69" pos="324" pan="0" len="12" vol="88" />
          <note key="67" pos="336" pan="0" len="12" vol="83" />
          <note key="63" pos="348" pan="0" len="12" vol="78" />
          <note key="67" pos="360" pan="0" len="12" vol="75" />
          <note key="70" pos="372" pan="0" len="12" vol="70" />
          <note key="67" pos="384" pan="0" len="12" vol="66" />
          <note key="69" pos="396" pan="0" len="12" vol="61" />
          <note key="67" pos="408" pan="0" len="12" vol="58" />
          <note key="63" pos="420" pan="0" len="12" vol="53" />
          <note key="67" pos="432" pan="0" len="12" vol="48" />
          <note key="70" pos="444" pan="0" len="12" vol="44" />
          <note key="67" pos="456" pan="0" len="12" vol="41" />
          <note key="69" pos="468" pan="0" len="12" vol="36" />
          <note key="67" pos="480" pan="0" len="12" vol="31" />
          <note key="63" pos="492" pan="0" len="12" vol="27" />
          <note key="67" pos="504" pan="0" len="12" vol="23" />
          <note key="70" pos="516" pan="0" len="12" vol="19" />
          <note key="67" pos="528" pan="0" len="12" vol="14" />
          <note key="69" pos="540" pan="0" len="12" vol="9" />
          <note key="67" pos="552" pan="0" len="12" vol="6" />
          <note key="63" pos="564" pan="0" len="12" vol="2" />
          <note key="67" pos="576" pan="0" len="12" vol="2" />
          <note key="70" pos="588" pan="0" len="12" vol="6" />
          <note key="67" pos="600" pan="0" len="12" vol="9" />
          <note key="69" pos="612" pan="0" len="12" vol="14" />
          <note key="67" pos="624" pan="0" len="12" vol="17" />
          <note key="63" pos="636" pan="0" len="12" vol="22" />
          <note key="67" pos="648" pan="0" len="12" vol="27" />
          <note key="70" pos="660" pan="0" len="12" vol="30" />
          <note key="67" pos="672" pan="0" len="12" vol="34" />
          <note key="69" pos="684" pan="0" len="12" vol="39" />
          <note key="67" pos="696" pan="0" len="12" vol="42" />
          <note key="63" pos="708" pan="0" len="12" vol="47" />
          <note key="67" pos="720" pan="0" len="12" vol="50" />
          <note key="70" pos="732" pan="0" len="12" vol="55" />
          <note key="67" pos="744" pan="0" len="12" vol="59" />
          <note key="69" pos="756" pan="0" len="12" vol="62" />
          <note key="67" pos="768" pan="0" len="12" vol="67" />
          <note key="63" pos="780" pan="0" len="12" vol="72" />
          <note key="67" pos="792" pan="0" len="12" vol="75" />
          <note key="70" pos="804" pan="0" len="12" vol="80" />
          <note key="67" pos="816" pan="0" len="12" vol="83" />
          <note key="69" pos="828" pan="0" len="12" vol="88" />
          <note key="67" pos="840" pan="0" len="12" vol="92" />
          <note key="63" pos="852" pan="0" len="12" vol="95" />
          <note key="67" pos="864" pan="0" len="12" vol="100" />
          <note key="70" pos="876" pan="0" len="12" vol="95" />
          <note key="67" pos="888" pan="0" len="12" vol="92" />
          <note key="69" pos="900" pan="0" len="12" vol="88" />
          <note key="67" pos="912" pan="0" len="12" vol="83" />
          <note key="63" pos="924" pan="0" len="12" vol="78" />
          <note key="67" pos="936" pan="0" len="12" vol="75" />
          <note key="70" pos="948" pan="0" len="12" vol="70" />
          <note key="67" pos="960" pan="0" len="12" vol="66" />
          <note key="69" pos="972" pan="0" len="12" vol="61" />
          <note key="67" pos="984" pan="0" len="12" vol="58" />
          <note key="63" pos="996" pan="0" len="12" vol="53" />
          <note key="67" pos="1008" pan="0" len="12" vol="48" />
          <note key="70" pos="1020" pan="0" len="12" vol="44" />
          <note key="67" pos="1032" pan="0" len="12" vol="41" />
          <note key="69" pos="1044" pan="0" len="12" vol="36" />
          <note key="67" pos="1056" pan="0" len="12" vol="31" />
          <note key="63" pos="1068" pan="0" len="12" vol="27" />
          <note key="67" pos="1080" pan="0" len="12" vol="23" />
          <note key="70" pos="1092" pan="0" len="12" vol="19" />
          <note key="67" pos="1104" pan="0" len="12" vol="14" />
          <note key="69" pos="1116" pan="0" len="12" vol="9" />
          <note key="67" pos="1128" pan="0" len="12" vol="6" />
          <note key="63" pos="1140" pan="0" len="12" vol="2" />
        </pattern>
        <pattern pos="37632" muted="0" steps="16" name="" type="1">
          <note key="67" pos="0" pan="0" len="12" vol="2" />
          <note key="70" pos="12" pan="0" len="12" vol="6" />
          <note key="67" pos="24" pan="0" len="12" vol="9" />
          <note key="69" pos="36" pan="0" len="12" vol="14" />
          <note key="67" pos="48" pan="0" len="12" vol="17" />
          <note key="63" pos="60" pan="0" len="12" vol="22" />
          <note key="67" pos="72" pan="0" len="12" vol="27" />
          <note key="70" pos="84" pan="0" len="12" vol="30" />
          <note key="67" pos="96" pan="0" len="12" vol="34" />
          <note key="69" pos="108" pan="0" len="12" vol="39" />
          <note key="67" pos="120" pan="0" len="12" vol="42" />
          <note key="63" pos="132" pan="0" len="12" vol="47" />
          <note key="67" pos="144" pan="0" len="12" vol="50" />
          <note key="70" pos="156" pan="0" len="12" vol="55" />
          <note key="67" pos="168" pan="0" len="12" vol="59" />
          <note key="69" pos="180" pan="0" len="12" vol="62" />
          <note key="67" pos="192" pan="0" len="12" vol="67" />
          <note key="63" pos="204" pan="0" len="12" vol="72" />
          <note key="67" pos="216" pan="0" len="12" vol="75" />
          <note key="70" pos="228" pan="0" len="12" vol="80" />
          <note key="67" pos="240" pan="0" len="12" vol="83" />
          <note key="69" pos="252" pan="0" len="12" vol="88" />
          <note key="67" pos="264" pan="0" len="12" vol="92" />
          <note key="63" pos="276" pan="0" len="12" vol="95" />
          <note key="67" pos="288" pan="0" len="12" vol="100" />
          <note key="70" pos="300" pan="0" len="12" vol="95" />
          <note key="67" pos="312" pan="0" len="12" vol="92" />
          <note key="69" pos="324" pan="0" len="12" vol="88" />
          <note key="67" pos="336" pan="0" len="12" vol="83" />
          <note key="63" pos="348" pan="0" len="12" vol="78" />
          <note key="67" pos="360" pan="0" len="12" vol="75" />
          <note key="70" pos="372" pan="0" len="12" vol="70" />
          <note key="67" pos="384" pan="0" len="12" vol="66" />
          <note key="69" pos="396" pan="0" len="12" vol="61" />
          <note key="67" pos="408" pan="0" len="12" vol="58" />
          <note key="63" pos="420" pan="0" len="12" vol="53" />
          <note key="67" pos="432" pan="0" len="12" vol="48" />
          <note key="70" pos="444" pan="0" len="12" vol="44" />
          <note key="67" pos="456" pan="0" len="12" vol="41" />
          <note key="69" pos="468" pan="0" len="12" vol="36" />
          <note key="67" pos="480" pan="0" len="12" vol="31" />
          <note key="63" pos="492" pan="0" len="12" vol="27" />
          <note key="67" pos="504" pan="0" len="12" vol="23" />
          <note key="70" pos="516" pan="0" len="12" vol="19" />
          <note key="67" pos="528" pan="0" len="12" vol="14" />
          <note key="69" pos="540" pan="0" len="12" vol="9" />
          <note key="67" pos="552" pan="0" len="12" vol="6" />
          <note key="63" pos="564" pan="0" len="12" vol="2" />
          <note key="65" pos="576" pan="0" len="12" vol="2" />
          <note key="69" pos="588" pan="0" len="12" vol="6" />
          <note key="65" pos="600" pan="0" len="12" vol="9" />
          <note key="60" pos="612" pan="0" len="12" vol="14" />
          <note key="57" pos="624" pan="0" len="12" vol="17" />
          <note key="60" pos="636" pan="0" len="12" vol="22" />
          <note key="65" pos="648" pan="0" len="12" vol="27" />
          <note key="69" pos="660" pan="0" len="12" vol="30" />
          <note key="65" pos="672" pan="0" len="12" vol="34" />
          <note key="60" pos="684" pan="0" len="12" vol="39" />
          <note key="57" pos="696" pan="0" len="12" vol="42" />
          <note key="60" pos="708" pan="0" len="12" vol="47" />
          <note key="65" pos="720" pan="0" len="12" vol="50" />
          <note key="69" pos="732" pan="0" len="12" vol="55" />
          <note key="65" pos="744" pan="0" len="12" vol="59" />
          <note key="60" pos="756" pan="0" len="12" vol="62" />
          <note key="57" pos="768" pan="0" len="12" vol="67" />
          <note key="60" pos="780" pan="0" len="12" vol="72" />
          <note key="65" pos="792" pan="0" len="12" vol="75" />
          <note key="69" pos="804" pan="0" len="12" vol="80" />
          <note key="65" pos="816" pan="0" len="12" vol="83" />
          <note key="60" pos="828" pan="0" len="12" vol="88" />
          <note key="57" pos="840" pan="0" len="12" vol="92" />
          <note key="60" pos="852" pan="0" len="12" vol="95" />
          <note key="65" pos="864" pan="0" len="12" vol="100" />
          <note key="69" pos="876" pan="0" len="12" vol="95" />
          <note key="65" pos="888" pan="0" len="12" vol="92" />
          <note key="60" pos="900" pan="0" len="12" vol="88" />
          <note key="57" pos="912" pan="0" len="12" vol="83" />
          <note key="60" pos="924" pan="0" len="12" vol="78" />
          <note key="65" pos="936" pan="0" len="12" vol="75" />
          <note key="69" pos="948" pan="0" len="12" vol="70" />
          <note key="65" pos="960" pan="0" len="12" vol="66" />
          <note key="60" pos="972" pan="0" len="12" vol="61" />
          <note key="57" pos="984" pan="0" len="12" vol="58" />
          <note key="60" pos="996" pan="0" len="12" vol="53" />
          <note key="65" pos="1008" pan="0" len="12" vol="48" />
          <note key="69" pos="1020" pan="0" len="12" vol="44" />
          <note key="65" pos="1032" pan="0" len="12" vol="41" />
          <note key="60" pos="1044" pan="0" len="12" vol="36" />
          <note key="57" pos="1056" pan="0" len="12" vol="31" />
          <note key="60" pos="1068" pan="0" len="12" vol="27" />
          <note key="65" pos="1080" pan="0" len="12" vol="23" />
          <note key="69" pos="1092" pan="0" len="12" vol="19" />
          <note key="65" pos="1104" pan="0" len="12" vol="14" />
          <note key="60" pos="1116" pan="0" len="12" vol="9" />
          <note key="57" pos="1128" pan="0" len="12" vol="6" />
          <note key="60" pos="1140" pan="0" len="12" vol="2" />
        </pattern>
        <pattern pos="38784" muted="0" steps="16" name="" type="1">
          <note key="67" pos="0" pan="0" len="12" vol="2" />
          <note key="70" pos="12" pan="0" len="12" vol="6" />
          <note key="67" pos="24" pan="0" len="12" vol="9" />
          <note key="69" pos="36" pan="0" len="12" vol="14" />
          <note key="67" pos="48" pan="0" len="12" vol="17" />
          <note key="63" pos="60" pan="0" len="12" vol="22" />
          <note key="67" pos="72" pan="0" len="12" vol="27" />
          <note key="70" pos="84" pan="0" len="12" vol="30" />
          <note key="67" pos="96" pan="0" len="12" vol="34" />
          <note key="69" pos="108" pan="0" len="12" vol="39" />
          <note key="67" pos="120" pan="0" len="12" vol="42" />
          <note key="63" pos="132" pan="0" len="12" vol="47" />
          <note key="67" pos="144" pan="0" len="12" vol="50" />
          <note key="70" pos="156" pan="0" len="12" vol="55" />
          <note key="67" pos="168" pan="0" len="12" vol="59" />
          <note key="69" pos="180" pan="0" len="12" vol="62" />
          <note key="67" pos="192" pan="0" len="12" vol="67" />
          <note key="63" pos="204" pan="0" len="12" vol="72" />
          <note key="67" pos="216" pan="0" len="12" vol="75" />
          <note key="70" pos="228" pan="0" len="12" vol="80" />
          <note key="67" pos="240" pan="0" len="12" vol="83" />
          <note key="69" pos="252" pan="0" len="12" vol="88" />
          <note key="67" pos="264" pan="0" len="12" vol="92" />
          <note key="63" pos="276" pan="0" len="12" vol="95" />
          <note key="67" pos="288" pan="0" len="12" vol="100" />
          <note key="70" pos="300" pan="0" len="12" vol="95" />
          <note key="67" pos="312" pan="0" len="12" vol="92" />
          <note key="69" pos="324" pan="0" len="12" vol="88" />
          <note key="67" pos="336" pan="0" len="12" vol="83" />
          <note key="63" pos="348" pan="0" len="12" vol="78" />
          <note key="67" pos="360" pan="0" len="12" vol="75" />
          <note key="70" pos="372" pan="0" len="12" vol="70" />
          <note key="67" pos="384" pan="0" len="12" vol="66" />
          <note key="69" pos="396" pan="0" len="12" vol="61" />
          <note key="67" pos="408" pan="0" len="12" vol="58" />
          <note key="63" pos="420" pan="0" len="12" vol="53" />
          <note key="67" pos="432" pan="0" len="12" vol="48" />
          <note key="70" pos="444" pan="0" len="12" vol="44" />
          <note key="67" pos="456" pan="0" len="12" vol="41" />
          <note key="69" pos="468" pan="0" len="12" vol="36" />
          <note key="67" pos="480" pan="0" len="12" vol="31" />
          <note key="63" pos="492" pan="0" len="12" vol="27" />
          <note key="67" pos="504" pan="0" len="12" vol="23" />
          <note key="70" pos="516" pan="0" len="12" vol="19" />
          <note key="67" pos="528" pan="0" len="12" vol="14" />
          <note key="69" pos="540" pan="0" len="12" vol="9" />
          <note key="67" pos="552" pan="0" len="12" vol="6" />
          <note key="63" pos="564" pan="0" len="12" vol="2" />
          <note key="67" pos="576" pan="0" len="12" vol="2" />
          <note key="70" pos="588" pan="0" len="12" vol="6" />
          <note key="67" pos="600" pan="0" len="12" vol="9" />
          <note key="69" pos="612" pan="0" len="12" vol="14" />
          <note key="67" pos="624" pan="0" len="12" vol="17" />
          <note key="63" pos="636" pan="0" len="12" vol="22" />
          <note key="67" pos="648" pan="0" len="12" vol="27" />
          <note key="70" pos="660" pan="0" len="12" vol="30" />
          <note key="67" pos="672" pan="0" len="12" vol="34" />
          <note key="69" pos="684" pan="0" len="12" vol="39" />
          <note key="67" pos="696" pan="0" len="12" vol="42" />
          <note key="63" pos="708" pan="0" len="12" vol="47" />
          <note key="67" pos="720" pan="0" len="12" vol="50" />
          <note key="70" pos="732" pan="0" len="12" vol="55" />
          <note key="67" pos="744" pan="0" len="12" vol="59" />
          <note key="69" pos="756" pan="0" len="12" vol="62" />
          <note key="67" pos="768" pan="0" len="12" vol="67" />
          <note key="63" pos="780" pan="0" len="12" vol="72" />
          <note key="67" pos="792" pan="0" len="12" vol="75" />
          <note key="70" pos="804" pan="0" len="12" vol="80" />
          <note key="67" pos="816" pan="0" len="12" vol="83" />
          <note key="69" pos="828" pan="0" len="12" vol="88" />
          <note key="67" pos="840" pan="0" len="12" vol="92" />
          <note key="63" pos="852" pan="0" len="12" vol="95" />
          <note key="67" pos="864" pan="0" len="12" vol="100" />
          <note key="70" pos="876" pan="0" len="12" vol="95" />
          <note key="67" pos="888" pan="0" len="12" vol="92" />
          <note key="69" pos="900" pan="0" len="12" vol="88" />
          <note key="67" pos="912" pan="0" len="12" vol="83" />
          <note key="63" pos="924" pan="0" len="12" vol="78" />
          <note key="67" pos="936" pan="0" len="12" vol="75" />
          <note key="70" pos="948" pan="0" len="12" vol="70" />
          <note key="67" pos="960" pan="0" len="12" vol="66" />
          <note key="69" pos="972" pan="0" len="12" vol="61" />
          <note key="67" pos="984" pan="0" len="12" vol="58" />
          <note key="63" pos="996" pan="0" len="12" vol="53" />
          <note key="67" pos="1008" pan="0" len="12" vol="48" />
          <note key="70" pos="1020" pan="0" len="12" vol="44" />
          <note key="67" pos="1032" pan="0" len="12" vol="41" />
          <note key="69" pos="1044" pan="0" len="12" vol="36" />
          <note key="67" pos="1056" pan="0" len="12" vol="31" />
          <note key="63" pos="1068" pan="0" len="12" vol="27" />
          <note key="67" pos="1080" pan="0" len="12" vol="23" />
          <note key="70" pos="1092" pan="0" len="12" vol="19" />
          <note key="67" pos="1104" pan="0" len="12" vol="14" />
          <note key="69" pos="1116" pan="0" len="12" vol="9" />
          <note key="67" pos="1128" pan="0" len="12" vol="6" />
          <note key="63" pos="1140" pan="0" len="12" vol="2" />
        </pattern>
        <pattern pos="39936" muted="0" steps="16" name="" type="1">
          <note key="67" pos="0" pan="0" len="12" vol="2" />
          <note key="70" pos="12" pan="0" len="12" vol="6" />
          <note key="67" pos="24" pan="0" len="12" vol="9" />
          <note key="69" pos="36" pan="0" len="12" vol="14" />
          <note key="67" pos="48" pan="0" len="12" vol="17" />
          <note key="63" pos="60" pan="0" len="12" vol="22" />
          <note key="67" pos="72" pan="0" len="12" vol="27" />
          <note key="70" pos="84" pan="0" len="12" vol="30" />
          <note key="67" pos="96" pan="0" len="12" vol="34" />
          <note key="69" pos="108" pan="0" len="12" vol="39" />
          <note key="67" pos="120" pan="0" len="12" vol="42" />
          <note key="63" pos="132" pan="0" len="12" vol="47" />
          <note key="67" pos="144" pan="0" len="12" vol="50" />
          <note key="70" pos="156" pan="0" len="12" vol="55" />
          <note key="67" pos="168" pan="0" len="12" vol="59" />
          <note key="69" pos="180" pan="0" len="12" vol="62" />
          <note key="67" pos="192" pan="0" len="12" vol="67" />
          <note key="63" pos="204" pan="0" len="12" vol="72" />
          <note key="67" pos="216" pan="0" len="12" vol="75" />
          <note key="70" pos="228" pan="0" len="12" vol="80" />
          <note key="67" pos="240" pan="0" len="12" vol="83" />
          <note key="69" pos="252" pan="0" len="12" vol="88" />
          <note key="67" pos="264" pan="0" len="12" vol="92" />
          <note key="63" pos="276" pan="0" len="12" vol="95" />
          <note key="67" pos="288" pan="0" len="12" vol="100" />
          <note key="70" pos="300" pan="0" len="12" vol="95" />
          <note key="67" pos="312" pan="0" len="12" vol="92" />
          <note key="69" pos="324" pan="0" len="12" vol="88" />
          <note key="67" pos="336" pan="0" len="12" vol="83" />
          <note key="63" pos="348" pan="0" len="12" vol="78" />
          <note key="67" pos="360" pan="0" len="12" vol="75" />
          <note key="70" pos="372" pan="0" len="12" vol="70" />
          <note key="67" pos="384" pan="0" len="12" vol="66" />
          <note key="69" pos="396" pan="0" len="12" vol="61" />
          <note key="67" pos="408" pan="0" len="12" vol="58" />
          <note key="63" pos="420" pan="0" len="12" vol="53" />
          <note key="67" pos="432" pan="0" len="12" vol="48" />
          <note key="70" pos="444" pan="0" len="12" vol="44" />
          <note key="67" pos="456" pan="0" len="12" vol="41" />
          <note key="69" pos="468" pan="0" len="12" vol="36" />
          <note key="67" pos="480" pan="0" len="12" vol="31" />
          <note key="63" pos="492" pan="0" len="12" vol="27" />
          <note key="67" pos="504" pan="0" len="12" vol="23" />
          <note key="70" pos="516" pan="0" len="12" vol="19" />
          <note key="67" pos="528" pan="0" len="12" vol="14" />
          <note key="69" pos="540" pan="0" len="12" vol="9" />
          <note key="67" pos="552" pan="0" len="12" vol="6" />
          <note key="63" pos="564" pan="0" len="12" vol="2" />
          <note key="67" pos="576" pan="0" len="12" vol="2" />
          <note key="70" pos="588" pan="0" len="12" vol="6" />
          <note key="67" pos="600" pan="0" len="12" vol="9" />
          <note key="69" pos="612" pan="0" len="12" vol="14" />
          <note key="67" pos="624" pan="0" len="12" vol="17" />
          <note key="63" pos="636" pan="0" len="12" vol="22" />
          <note key="67" pos="648" pan="0" len="12" vol="27" />
          <note key="70" pos="660" pan="0" len="12" vol="30" />
          <note key="67" pos="672" pan="0" len="12" vol="34" />
          <note key="69" pos="684" pan="0" len="12" vol="39" />
          <note key="67" pos="696" pan="0" len="12" vol="42" />
          <note key="63" pos="708" pan="0" len="12" vol="47" />
          <note key="67" pos="720" pan="0" len="12" vol="50" />
          <note key="70" pos="732" pan="0" len="12" vol="55" />
          <note key="67" pos="744" pan="0" len="12" vol="59" />
          <note key="69" pos="756" pan="0" len="12" vol="62" />
          <note key="67" pos="768" pan="0" len="12" vol="67" />
          <note key="63" pos="780" pan="0" len="12" vol="72" />
          <note key="67" pos="792" pan="0" len="12" vol="75" />
          <note key="70" pos="804" pan="0" len="12" vol="80" />
          <note key="67" pos="816" pan="0" len="12" vol="83" />
          <note key="69" pos="828" pan="0" len="12" vol="88" />
          <note key="67" pos="840" pan="0" len="12" vol="92" />
          <note key="63" pos="852" pan="0" len="12" vol="95" />
          <note key="67" pos="864" pan="0" len="12" vol="100" />
          <note key="70" pos="876" pan="0" len="12" vol="95" />
          <note key="67" pos="888" pan="0" len="12" vol="92" />
          <note key="69" pos="900" pan="0" len="12" vol="88" />
          <note key="67" pos="912" pan="0" len="12" vol="83" />
          <note key="63" pos="924" pan="0" len="12" vol="78" />
          <note key="67" pos="936" pan="0" len="12" vol="75" />
          <note key="70" pos="948" pan="0" len="12" vol="70" />
          <note key="67" pos="960" pan="0" len="12" vol="66" />
          <note key="69" pos="972" pan="0" len="12" vol="61" />
          <note key="67" pos="984" pan="0" len="12" vol="58" />
          <note key="63" pos="996" pan="0" len="12" vol="53" />
          <note key="67" pos="1008" pan="0" len="12" vol="48" />
          <note key="70" pos="1020" pan="0" len="12" vol="44" />
          <note key="67" pos="1032" pan="0" len="12" vol="41" />
          <note key="69" pos="1044" pan="0" len="12" vol="36" />
          <note key="67" pos="1056" pan="0" len="12" vol="31" />
          <note key="63" pos="1068" pan="0" len="12" vol="27" />
          <note key="67" pos="1080" pan="0" len="12" vol="23" />
          <note key="70" pos="1092" pan="0" len="12" vol="19" />
          <note key="67" pos="1104" pan="0" len="12" vol="14" />
          <note key="69" pos="1116" pan="0" len="12" vol="9" />
          <note key="67" pos="1128" pan="0" len="12" vol="6" />
          <note key="63" pos="1140" pan="0" len="12" vol="2" />
        </pattern>
      </track>
      <track solo="0" name="9 (Ch9)" type="0" muted="0">
        <instrumenttrack usemasterpitch="1" pitch="0.0" basenote="57" pan="0" pitchrange="12" vol="30">
          <eldata />
          <instrument name="tripleoscillator" />
        </instrumenttrack>
        <pattern pos="90624" muted="0" steps="16" name="" type="1">
          <note key="36" pos="0" pan="0" len="768" vol="100" />
        </pattern>
        <pattern pos="10752" muted="0" steps="16" name="" type="1">
          <note key="60" pos="24" pan="0" len="12" vol="9" />
          <note key="58" pos="36" pan="0" len="12" vol="27" />
          <note key="60" pos="48" pan="0" len="12" vol="44" />
          <note key="58" pos="60" pan="0" len="12" vol="59" />
          <note key="60" pos="72" pan="0" len="12" vol="77" />
          <note key="58" pos="84" pan="0" len="12" vol="94" />
          <note key="60" pos="96" pan="0" len="12" vol="100" />
          <note key="58" pos="108" pan="0" len="12" vol="100" />
          <note key="60" pos="120" pan="0" len="12" vol="100" />
          <note key="58" pos="132" pan="0" len="12" vol="94" />
          <note key="60" pos="144" pan="0" len="12" vol="77" />
          <note key="58" pos="156" pan="0" len="12" vol="59" />
          <note key="60" pos="168" pan="0" len="12" vol="44" />
          <note key="58" pos="180" pan="0" len="12" vol="27" />
          <note key="60" pos="192" pan="0" len="24" vol="9" />
          <note key="65" pos="216" pan="0" len="12" vol="9" />
          <note key="64" pos="228" pan="0" len="12" vol="27" />
          <note key="65" pos="240" pan="0" len="12" vol="44" />
          <note key="64" pos="252" pan="0" len="12" vol="59" />
          <note key="65" pos="264" pan="0" len="12" vol="77" />
          <note key="64" pos="276" pan="0" len="12" vol="94" />
          <note key="65" pos="288" pan="0" len="12" vol="100" />
          <note key="64" pos="300" pan="0" len="12" vol="100" />
          <note key="65" pos="312" pan="0" len="12" vol="100" />
          <note key="64" pos="324" pan="0" len="12" vol="94" />
          <note key="65" pos="336" pan="0" len="12" vol="77" />
          <note key="64" pos="348" pan="0" len="12" vol="59" />
          <note key="65" pos="360" pan="0" len="12" vol="44" />
          <note key="64" pos="372" pan="0" len="12" vol="27" />
          <note key="65" pos="384" pan="0" len="12" vol="9" />
        </pattern>
        <pattern pos="44544" muted="0" steps="16" name="" type="1">
          <note key="60" pos="0" pan="0" len="12" vol="100" />
          <note key="58" pos="12" pan="0" len="12" vol="100" />
          <note key="60" pos="24" pan="0" len="12" vol="100" />
          <note key="55" pos="36" pan="0" len="12" vol="100" />
          <note key="53" pos="48" pan="0" len="12" vol="100" />
          <note key="55" pos="60" pan="0" len="12" vol="100" />
          <note key="60" pos="72" pan="0" len="12" vol="100" />
          <note key="58" pos="84" pan="0" len="12" vol="100" />
          <note key="60" pos="96" pan="0" len="12" vol="100" />
          <note key="55" pos="108" pan="0" len="12" vol="100" />
          <note key="53" pos="120" pan="0" len="12" vol="100" />
          <note key="55" pos="132" pan="0" len="12" vol="100" />
          <note key="60" pos="144" pan="0" len="12" vol="100" />
          <note key="58" pos="156" pan="0" len="12" vol="100" />
          <note key="60" pos="168" pan="0" len="12" vol="100" />
          <note key="55" pos="180" pan="0" len="12" vol="100" />
          <note key="53" pos="192" pan="0" len="12" vol="100" />
          <note key="55" pos="204" pan="0" len="12" vol="100" />
          <note key="60" pos="216" pan="0" len="12" vol="100" />
          <note key="58" pos="228" pan="0" len="12" vol="100" />
          <note key="60" pos="240" pan="0" len="12" vol="100" />
          <note key="55" pos="252" pan="0" len="12" vol="100" />
          <note key="53" pos="264" pan="0" len="12" vol="100" />
          <note key="55" pos="276" pan="0" len="12" vol="100" />
          <note key="65" pos="288" pan="0" len="12" vol="100" />
          <note key="63" pos="300" pan="0" len="12" vol="100" />
          <note key="65" pos="312" pan="0" len="12" vol="100" />
          <note key="60" pos="324" pan="0" len="12" vol="100" />
          <note key="58" pos="336" pan="0" len="12" vol="100" />
          <note key="60" pos="348" pan="0" len="12" vol="100" />
          <note key="65" pos="360" pan="0" len="12" vol="100" />
          <note key="63" pos="372" pan="0" len="12" vol="100" />
          <note key="65" pos="384" pan="0" len="12" vol="100" />
          <note key="60" pos="396" pan="0" len="12" vol="100" />
          <note key="58" pos="408" pan="0" len="12" vol="100" />
          <note key="60" pos="420" pan="0" len="12" vol="100" />
          <note key="65" pos="432" pan="0" len="12" vol="100" />
          <note key="63" pos="444" pan="0" len="12" vol="100" />
          <note key="65" pos="456" pan="0" len="12" vol="100" />
          <note key="60" pos="468" pan="0" len="12" vol="100" />
          <note key="58" pos="480" pan="0" len="12" vol="100" />
          <note key="60" pos="492" pan="0" len="12" vol="100" />
          <note key="65" pos="504" pan="0" len="12" vol="100" />
          <note key="63" pos="516" pan="0" len="12" vol="100" />
          <note key="65" pos="528" pan="0" len="12" vol="100" />
          <note key="60" pos="540" pan="0" len="12" vol="100" />
          <note key="58" pos="552" pan="0" len="12" vol="100" />
          <note key="60" pos="564" pan="0" len="12" vol="100" />
          <note key="60" pos="576" pan="0" len="12" vol="100" />
          <note key="58" pos="588" pan="0" len="12" vol="100" />
          <note key="60" pos="600" pan="0" len="12" vol="100" />
          <note key="55" pos="612" pan="0" len="12" vol="100" />
          <note key="53" pos="624" pan="0" len="12" vol="100" />
          <note key="55" pos="636" pan="0" len="12" vol="100" />
          <note key="60" pos="648" pan="0" len="12" vol="100" />
          <note key="58" pos="660" pan="0" len="12" vol="100" />
          <note key="60" pos="672" pan="0" len="12" vol="100" />
          <note key="55" pos="684" pan="0" len="12" vol="100" />
          <note key="53" pos="696" pan="0" len="12" vol="100" />
          <note key="55" pos="708" pan="0" len="12" vol="100" />
          <note key="60" pos="720" pan="0" len="12" vol="100" />
          <note key="58" pos="732" pan="0" len="12" vol="100" />
          <note key="60" pos="744" pan="0" len="12" vol="100" />
          <note key="55" pos="756" pan="0" len="12" vol="100" />
          <note key="53" pos="768" pan="0" len="12" vol="100" />
          <note key="55" pos="780" pan="0" len="12" vol="100" />
          <note key="60" pos="792" pan="0" len="12" vol="100" />
          <note key="58" pos="804" pan="0" len="12" vol="100" />
          <note key="60" pos="816" pan="0" len="12" vol="100" />
          <note key="55" pos="828" pan="0" len="12" vol="100" />
          <note key="53" pos="840" pan="0" len="12" vol="100" />
          <note key="55" pos="852" pan="0" len="12" vol="100" />
          <note key="65" pos="864" pan="0" len="12" vol="100" />
          <note key="63" pos="876" pan="0" len="12" vol="100" />
          <note key="65" pos="888" pan="0" len="12" vol="100" />
          <note key="60" pos="900" pan="0" len="12" vol="100" />
          <note key="58" pos="912" pan="0" len="12" vol="100" />
          <note key="60" pos="924" pan="0" len="12" vol="100" />
          <note key="65" pos="936" pan="0" len="12" vol="100" />
          <note key="63" pos="948" pan="0" len="12" vol="100" />
          <note key="65" pos="960" pan="0" len="12" vol="100" />
          <note key="60" pos="972" pan="0" len="12" vol="100" />
          <note key="58" pos="984" pan="0" len="12" vol="100" />
          <note key="60" pos="996" pan="0" len="12" vol="100" />
          <note key="65" pos="1008" pan="0" len="12" vol="100" />
          <note key="63" pos="1020" pan="0" len="12" vol="100" />
          <note key="65" pos="1032" pan="0" len="12" vol="100" />
          <note key="60" pos="1044" pan="0" len="12" vol="100" />
          <note key="58" pos="1056" pan="0" len="12" vol="100" />
          <note key="60" pos="1068" pan="0" len="12" vol="100" />
          <note key="65" pos="1080" pan="0" len="12" vol="100" />
          <note key="63" pos="1092" pan="0" len="12" vol="100" />
          <note key="65" pos="1104" pan="0" len="12" vol="100" />
          <note key="60" pos="1116" pan="0" len="12" vol="100" />
          <note key="58" pos="1128" pan="0" len="12" vol="100" />
          <note key="60" pos="1140" pan="0" len="12" vol="100" />
        </pattern>
        <pattern pos="45696" muted="0" steps="16" name="" type="1">
          <note key="60" pos="0" pan="0" len="12" vol="100" />
          <note key="58" pos="12" pan="0" len="12" vol="100" />
          <note key="60" pos="24" pan="0" len="12" vol="100" />
          <note key="55" pos="36" pan="0" len="12" vol="100" />
          <note key="53" pos="48" pan="0" len="12" vol="100" />
          <note key="55" pos="60" pan="0" len="12" vol="100" />
          <note key="60" pos="72" pan="0" len="12" vol="100" />
          <note key="58" pos="84" pan="0" len="12" vol="100" />
          <note key="60" pos="96" pan="0" len="12" vol="100" />
          <note key="55" pos="108" pan="0" len="12" vol="100" />
          <note key="53" pos="120" pan="0" len="12" vol="100" />
          <note key="55" pos="132" pan="0" len="12" vol="100" />
          <note key="60" pos="144" pan="0" len="12" vol="100" />
          <note key="58" pos="156" pan="0" len="12" vol="100" />
          <note key="60" pos="168" pan="0" len="12" vol="100" />
          <note key="55" pos="180" pan="0" len="12" vol="100" />
          <note key="53" pos="192" pan="0" len="12" vol="100" />
          <note key="55" pos="204" pan="0" len="12" vol="100" />
          <note key="60" pos="216" pan="0" len="12" vol="100" />
          <note key="58" pos="228" pan="0" len="12" vol="100" />
          <note key="60" pos="240" pan="0" len="12" vol="100" />
          <note key="55" pos="252" pan="0" len="12" vol="100" />
          <note key="53" pos="264" pan="0" len="12" vol="100" />
          <note key="55" pos="276" pan="0" len="12" vol="100" />
          <note key="65" pos="288" pan="0" len="12" vol="100" />
          <note key="63" pos="300" pan="0" len="12" vol="100" />
          <note key="65" pos="312" pan="0" len="12" vol="100" />
          <note key="60" pos="324" pan="0" len="12" vol="100" />
          <note key="58" pos="336" pan="0" len="12" vol="100" />
          <note key="60" pos="348" pan="0" len="12" vol="100" />
          <note key="65" pos="360" pan="0" len="12" vol="100" />
          <note key="63" pos="372" pan="0" len="12" vol="100" />
          <note key="65" pos="384" pan="0" len="12" vol="100" />
          <note key="60" pos="396" pan="0" len="12" vol="100" />
          <note key="58" pos="408" pan="0" len="12" vol="100" />
          <note key="60" pos="420" pan="0" len="12" vol="100" />
          <note key="65" pos="432" pan="0" len="12" vol="100" />
          <note key="63" pos="444" pan="0" len="12" vol="100" />
          <note key="65" pos="456" pan="0" len="12" vol="100" />
          <note key="60" pos="468" pan="0" len="12" vol="100" />
          <note key="58" pos="480" pan="0" len="12" vol="100" />
          <note key="60" pos="492" pan="0" len="12" vol="100" />
          <note key="65" pos="504" pan="0" len="12" vol="100" />
          <note key="63" pos="516" pan="0" len="12" vol="100" />
          <note key="65" pos="528" pan="0" len="12" vol="100" />
          <note key="60" pos="540" pan="0" len="12" vol="100" />
          <note key="58" pos="552" pan="0" len="12" vol="100" />
          <note key="60" pos="564" pan="0" len="12" vol="100" />
          <note key="60" pos="576" pan="0" len="12" vol="100" />
          <note key="58" pos="588" pan="0" len="12" vol="100" />
          <note key="60" pos="600" pan="0" len="12" vol="100" />
          <note key="55" pos="612" pan="0" len="12" vol="100" />
          <note key="53" pos="624" pan="0" len="12" vol="100" />
          <note key="55" pos="636" pan="0" len="12" vol="100" />
          <note key="60" pos="648" pan="0" len="12" vol="100" />
          <note key="58" pos="660" pan="0" len="12" vol="100" />
          <note key="60" pos="672" pan="0" len="12" vol="100" />
          <note key="55" pos="684" pan="0" len="12" vol="100" />
          <note key="53" pos="696" pan="0" len="12" vol="100" />
          <note key="55" pos="708" pan="0" len="12" vol="100" />
          <note key="60" pos="720" pan="0" len="12" vol="100" />
          <note key="58" pos="732" pan="0" len="12" vol="100" />
          <note key="60" pos="744" pan="0" len="12" vol="100" />
          <note key="55" pos="756" pan="0" len="12" vol="100" />
          <note key="53" pos="768" pan="0" len="12" vol="100" />
          <note key="55" pos="780" pan="0" len="12" vol="100" />
          <note key="60" pos="792" pan="0" len="12" vol="100" />
          <note key="58" pos="804" pan="0" len="12" vol="100" />
          <note key="60" pos="816" pan="0" len="12" vol="100" />
          <note key="55" pos="828" pan="0" len="12" vol="100" />
          <note key="53" pos="840" pan="0" len="12" vol="100" />
          <note key="55" pos="852" pan="0" len="12" vol="100" />
          <note key="60" pos="864" pan="0" len="12" vol="100" />
          <note key="58" pos="876" pan="0" len="12" vol="100" />
          <note key="60" pos="888" pan="0" len="12" vol="100" />
          <note key="55" pos="900" pan="0" len="12" vol="100" />
          <note key="53" pos="912" pan="0" len="12" vol="100" />
          <note key="55" pos="924" pan="0" len="12" vol="100" />
          <note key="60" pos="936" pan="0" len="12" vol="100" />
          <note key="58" pos="948" pan="0" len="12" vol="100" />
          <note key="60" pos="960" pan="0" len="12" vol="100" />
          <note key="55" pos="972" pan="0" len="12" vol="100" />
          <note key="53" pos="984" pan="0" len="12" vol="100" />
          <note key="55" pos="996" pan="0" len="12" vol="100" />
          <note key="60" pos="1008" pan="0" len="12" vol="100" />
          <note key="58" pos="1020" pan="0" len="12" vol="100" />
          <note key="60" pos="1032" pan="0" len="12" vol="100" />
          <note key="55" pos="1044" pan="0" len="12" vol="100" />
          <note key="53" pos="1056" pan="0" len="12" vol="100" />
          <note key="55" pos="1068" pan="0" len="12" vol="100" />
          <note key="60" pos="1080" pan="0" len="12" vol="100" />
          <note key="58" pos="1092" pan="0" len="12" vol="100" />
          <note key="60" pos="1104" pan="0" len="12" vol="100" />
          <note key="55" pos="1116" pan="0" len="12" vol="100" />
          <note key="53" pos="1128" pan="0" len="12" vol="100" />
          <note key="55" pos="1140" pan="0" len="12" vol="100" />
        </pattern>
        <pattern pos="46848" muted="0" steps="16" name="" type="1">
          <note key="60" pos="0" pan="0" len="12" vol="100" />
          <note key="58" pos="12" pan="0" len="12" vol="100" />
          <note key="60" pos="24" pan="0" len="12" vol="100" />
          <note key="55" pos="36" pan="0" len="12" vol="100" />
          <note key="53" pos="48" pan="0" len="12" vol="100" />
          <note key="55" pos="60" pan="0" len="12" vol="100" />
          <note key="60" pos="72" pan="0" len="12" vol="100" />
          <note key="58" pos="84" pan="0" len="12" vol="100" />
          <note key="60" pos="96" pan="0" len="12" vol="100" />
          <note key="55" pos="108" pan="0" len="12" vol="100" />
          <note key="53" pos="120" pan="0" len="12" vol="100" />
          <note key="55" pos="132" pan="0" len="12" vol="100" />
          <note key="60" pos="144" pan="0" len="12" vol="100" />
          <note key="58" pos="156" pan="0" len="12" vol="100" />
          <note key="60" pos="168" pan="0" len="12" vol="100" />
          <note key="55" pos="180" pan="0" len="12" vol="100" />
          <note key="53" pos="192" pan="0" len="12" vol="100" />
          <note key="55" pos="204" pan="0" len="12" vol="100" />
          <note key="60" pos="216" pan="0" len="12" vol="100" />
          <note key="58" pos="228" pan="0" len="12" vol="100" />
          <note key="60" pos="240" pan="0" len="12" vol="100" />
          <note key="55" pos="252" pan="0" len="12" vol="100" />
          <note key="53" pos="264" pan="0" len="12" vol="100" />
          <note key="55" pos="276" pan="0" len="12" vol="100" />
          <note key="65" pos="288" pan="0" len="12" vol="100" />
          <note key="63" pos="300" pan="0" len="12" vol="100" />
          <note key="65" pos="312" pan="0" len="12" vol="100" />
          <note key="60" pos="324" pan="0" len="12" vol="100" />
          <note key="58" pos="336" pan="0" len="12" vol="100" />
          <note key="60" pos="348" pan="0" len="12" vol="100" />
          <note key="65" pos="360" pan="0" len="12" vol="100" />
          <note key="63" pos="372" pan="0" len="12" vol="100" />
          <note key="65" pos="384" pan="0" len="12" vol="100" />
          <note key="60" pos="396" pan="0" len="12" vol="100" />
          <note key="58" pos="408" pan="0" len="12" vol="100" />
          <note key="60" pos="420" pan="0" len="12" vol="100" />
          <note key="65" pos="432" pan="0" len="12" vol="100" />
          <note key="63" pos="444" pan="0" len="12" vol="100" />
          <note key="65" pos="456" pan="0" len="12" vol="100" />
          <note key="60" pos="468" pan="0" len="12" vol="100" />
          <note key="58" pos="480" pan="0" len="12" vol="100" />
          <note key="60" pos="492" pan="0" len="12" vol="100" />
          <note key="65" pos="504" pan="0" len="12" vol="100" />
          <note key="63" pos="516" pan="0" len="12" vol="100" />
          <note key="65" pos="528" pan="0" len="12" vol="100" />
          <note key="60" pos="540" pan="0" len="12" vol="100" />
          <note key="58" pos="552" pan="0" len="12" vol="100" />
          <note key="60" pos="564" pan="0" len="12" vol="100" />
          <note key="60" pos="576" pan="0" len="12" vol="100" />
          <note key="58" pos="588" pan="0" len="12" vol="100" />
          <note key="60" pos="600" pan="0" len="12" vol="100" />
          <note key="55" pos="612" pan="0" len="12" vol="100" />
          <note key="53" pos="624" pan="0" len="12" vol="100" />
          <note key="55" pos="636" pan="0" len="12" vol="100" />
          <note key="60" pos="648" pan="0" len="12" vol="100" />
          <note key="58" pos="660" pan="0" len="12" vol="100" />
          <note key="60" pos="672" pan="0" len="12" vol="100" />
          <note key="55" pos="684" pan="0" len="12" vol="100" />
          <note key="53" pos="696" pan="0" len="12" vol="100" />
          <note key="55" pos="708" pan="0" len="12" vol="100" />
          <note key="60" pos="720" pan="0" len="12" vol="100" />
          <note key="58" pos="732" pan="0" len="12" vol="100" />
          <note key="60" pos="744" pan="0" len="12" vol="100" />
          <note key="55" pos="756" pan="0" len="12" vol="100" />
          <note key="53" pos="768" pan="0" len="12" vol="100" />
          <note key="55" pos="780" pan="0" len="12" vol="100" />
          <note key="60" pos="792" pan="0" len="12" vol="100" />
          <note key="58" pos="804" pan="0" len="12" vol="100" />
          <note key="60" pos="816" pan="0" len="12" vol="100" />
          <note key="55" pos="828" pan="0" len="12" vol="100" />
          <note key="53" pos="840" pan="0" len="12" vol="100" />
          <note key="55" pos="852" pan="0" len="12" vol="100" />
          <note key="60" pos="864" pan="0" len="12" vol="100" />
          <note key="58" pos="876" pan="0" len="12" vol="100" />
          <note key="60" pos="888" pan="0" len="12" vol="100" />
          <note key="55" pos="900" pan="0" len="12" vol="100" />
          <note key="53" pos="912" pan="0" len="12" vol="100" />
          <note key="55" pos="924" pan="0" len="12" vol="100" />
          <note key="60" pos="936" pan="0" len="12" vol="100" />
          <note key="58" pos="948" pan="0" len="12" vol="100" />
          <note key="60" pos="960" pan="0" len="12" vol="100" />
          <note key="55" pos="972" pan="0" len="12" vol="100" />
          <note key="53" pos="984" pan="0" len="12" vol="100" />
          <note key="55" pos="996" pan="0" len="12" vol="100" />
          <note key="60" pos="1008" pan="0" len="12" vol="100" />
          <note key="58" pos="1020" pan="0" len="12" vol="100" />
          <note key="60" pos="1032" pan="0" len="12" vol="100" />
          <note key="55" pos="1044" pan="0" len="12" vol="100" />
          <note key="53" pos="1056" pan="0" len="12" vol="100" />
          <note key="55" pos="1068" pan="0" len="12" vol="100" />
          <note key="60" pos="1080" pan="0" len="12" vol="100" />
          <note key="58" pos="1092" pan="0" len="12" vol="100" />
          <note key="60" pos="1104" pan="0" len="12" vol="100" />
          <note key="55" pos="1116" pan="0" len="12" vol="100" />
          <note key="53" pos="1128" pan="0" len="12" vol="100" />
          <note key="55" pos="1140" pan="0" len="12" vol="100" />
        </pattern>
        <pattern pos="50304" muted="0" steps="16" name="" type="1">
          <note key="60" pos="0" pan="0" len="12" vol="100" />
          <note key="58" pos="12" pan="0" len="12" vol="100" />
          <note key="60" pos="24" pan="0" len="12" vol="100" />
          <note key="55" pos="36" pan="0" len="12" vol="100" />
          <note key="53" pos="48" pan="0" len="12" vol="100" />
          <note key="55" pos="60" pan="0" len="12" vol="100" />
          <note key="60" pos="72" pan="0" len="12" vol="100" />
          <note key="58" pos="84" pan="0" len="12" vol="100" />
          <note key="60" pos="96" pan="0" len="12" vol="100" />
          <note key="55" pos="108" pan="0" len="12" vol="100" />
          <note key="53" pos="120" pan="0" len="12" vol="100" />
          <note key="55" pos="132" pan="0" len="12" vol="100" />
          <note key="60" pos="144" pan="0" len="12" vol="100" />
          <note key="58" pos="156" pan="0" len="12" vol="100" />
          <note key="60" pos="168" pan="0" len="12" vol="100" />
          <note key="55" pos="180" pan="0" len="12" vol="100" />
          <note key="53" pos="192" pan="0" len="12" vol="100" />
          <note key="55" pos="204" pan="0" len="12" vol="100" />
          <note key="60" pos="216" pan="0" len="12" vol="100" />
          <note key="58" pos="228" pan="0" len="12" vol="100" />
          <note key="60" pos="240" pan="0" len="12" vol="100" />
          <note key="55" pos="252" pan="0" len="12" vol="100" />
          <note key="53" pos="264" pan="0" len="12" vol="100" />
          <note key="55" pos="276" pan="0" len="12" vol="100" />
          <note key="65" pos="288" pan="0" len="12" vol="100" />
          <note key="63" pos="300" pan="0" len="12" vol="100" />
          <note key="65" pos="312" pan="0" len="12" vol="100" />
          <note key="60" pos="324" pan="0" len="12" vol="100" />
          <note key="58" pos="336" pan="0" len="12" vol="100" />
          <note key="60" pos="348" pan="0" len="12" vol="100" />
          <note key="65" pos="360" pan="0" len="12" vol="100" />
          <note key="63" pos="372" pan="0" len="12" vol="100" />
          <note key="65" pos="384" pan="0" len="12" vol="100" />
          <note key="60" pos="396" pan="0" len="12" vol="100" />
          <note key="58" pos="408" pan="0" len="12" vol="100" />
          <note key="60" pos="420" pan="0" len="12" vol="100" />
          <note key="65" pos="432" pan="0" len="12" vol="100" />
          <note key="63" pos="444" pan="0" len="12" vol="100" />
          <note key="65" pos="456" pan="0" len="12" vol="100" />
          <note key="60" pos="468" pan="0" len="12" vol="100" />
          <note key="58" pos="480" pan="0" len="12" vol="100" />
          <note key="60" pos="492" pan="0" len="12" vol="100" />
          <note key="65" pos="504" pan="0" len="12" vol="100" />
          <note key="63" pos="516" pan="0" len="12" vol="100" />
          <note key="65" pos="528" pan="0" len="12" vol="100" />
          <note key="60" pos="540" pan="0" len="12" vol="100" />
          <note key="58" pos="552" pan="0" len="12" vol="100" />
          <note key="60" pos="564" pan="0" len="12" vol="100" />
          <note key="60" pos="576" pan="0" len="12" vol="100" />
          <note key="58" pos="588" pan="0" len="12" vol="100" />
          <note key="60" pos="600" pan="0" len="12" vol="100" />
          <note key="55" pos="612" pan="0" len="12" vol="100" />
          <note key="53" pos="624" pan="0" len="12" vol="100" />
          <note key="55" pos="636" pan="0" len="12" vol="100" />
          <note key="60" pos="648" pan="0" len="12" vol="100" />
          <note key="58" pos="660" pan="0" len="12" vol="100" />
          <note key="60" pos="672" pan="0" len="12" vol="100" />
          <note key="55" pos="684" pan="0" len="12" vol="100" />
          <note key="53" pos="696" pan="0" len="12" vol="100" />
          <note key="55" pos="708" pan="0" len="12" vol="100" />
          <note key="60" pos="720" pan="0" len="12" vol="100" />
          <note key="58" pos="732" pan="0" len="12" vol="100" />
          <note key="60" pos="744" pan="0" len="12" vol="100" />
          <note key="55" pos="756" pan="0" len="12" vol="100" />
          <note key="53" pos="768" pan="0" len="12" vol="100" />
          <note key="55" pos="780" pan="0" len="12" vol="100" />
          <note key="60" pos="792" pan="0" len="12" vol="100" />
          <note key="58" pos="804" pan="0" len="12" vol="100" />
          <note key="60" pos="816" pan="0" len="12" vol="100" />
          <note key="55" pos="828" pan="0" len="12" vol="100" />
          <note key="53" pos="840" pan="0" len="12" vol="100" />
          <note key="55" pos="852" pan="0" len="12" vol="100" />
          <note key="65" pos="864" pan="0" len="12" vol="100" />
          <note key="63" pos="876" pan="0" len="12" vol="100" />
          <note key="65" pos="888" pan="0" len="12" vol="100" />
          <note key="60" pos="900" pan="0" len="12" vol="100" />
          <note key="58" pos="912" pan="0" len="12" vol="100" />
          <note key="60" pos="924" pan="0" len="12" vol="100" />
          <note key="65" pos="936" pan="0" len="12" vol="100" />
          <note key="63" pos="948" pan="0" len="12" vol="100" />
          <note key="65" pos="960" pan="0" len="12" vol="100" />
          <note key="60" pos="972" pan="0" len="12" vol="100" />
          <note key="58" pos="984" pan="0" len="12" vol="100" />
          <note key="60" pos="996" pan="0" len="12" vol="100" />
          <note key="65" pos="1008" pan="0" len="12" vol="100" />
          <note key="63" pos="1020" pan="0" len="12" vol="100" />
          <note key="65" pos="1032" pan="0" len="12" vol="100" />
          <note key="60" pos="1044" pan="0" len="12" vol="100" />
          <note key="58" pos="1056" pan="0" len="12" vol="100" />
          <note key="60" pos="1068" pan="0" len="12" vol="100" />
          <note key="65" pos="1080" pan="0" len="12" vol="100" />
          <note key="63" pos="1092" pan="0" len="12" vol="100" />
          <note key="65" pos="1104" pan="0" len="12" vol="100" />
          <note key="60" pos="1116" pan="0" len="12" vol="100" />
          <note key="58" pos="1128" pan="0" len="12" vol="100" />
          <note key="60" pos="1140" pan="0" len="12" vol="100" />
        </pattern>
        <pattern pos="51456" muted="0" steps="16" name="" type="1">
          <note key="60" pos="0" pan="0" len="12" vol="100" />
          <note key="58" pos="12" pan="0" len="12" vol="100" />
          <note key="60" pos="24" pan="0" len="12" vol="100" />
          <note key="55" pos="36" pan="0" len="12" vol="100" />
          <note key="53" pos="48" pan="0" len="12" vol="100" />
          <note key="55" pos="60" pan="0" len="12" vol="100" />
          <note key="60" pos="72" pan="0" len="12" vol="100" />
          <note key="58" pos="84" pan="0" len="12" vol="100" />
          <note key="60" pos="96" pan="0" len="12" vol="100" />
          <note key="55" pos="108" pan="0" len="12" vol="100" />
          <note key="53" pos="120" pan="0" len="12" vol="100" />
          <note key="55" pos="132" pan="0" len="12" vol="100" />
          <note key="60" pos="144" pan="0" len="12" vol="100" />
          <note key="58" pos="156" pan="0" len="12" vol="100" />
          <note key="60" pos="168" pan="0" len="12" vol="100" />
          <note key="55" pos="180" pan="0" len="12" vol="100" />
          <note key="53" pos="192" pan="0" len="12" vol="100" />
          <note key="55" pos="204" pan="0" len="12" vol="100" />
          <note key="60" pos="216" pan="0" len="12" vol="100" />
          <note key="58" pos="228" pan="0" len="12" vol="100" />
          <note key="60" pos="240" pan="0" len="12" vol="100" />
          <note key="55" pos="252" pan="0" len="12" vol="100" />
          <note key="53" pos="264" pan="0" len="12" vol="100" />
          <note key="55" pos="276" pan="0" len="12" vol="100" />
          <note key="65" pos="288" pan="0" len="12" vol="100" />
          <note key="63" pos="300" pan="0" len="12" vol="100" />
          <note key="65" pos="312" pan="0" len="12" vol="100" />
          <note key="60" pos="324" pan="0" len="12" vol="100" />
          <note key="58" pos="336" pan="0" len="12" vol="100" />
          <note key="60" pos="348" pan="0" len="12" vol="100" />
          <note key="65" pos="360" pan="0" len="12" vol="100" />
          <note key="63" pos="372" pan="0" len="12" vol="100" />
          <note key="65" pos="384" pan="0" len="12" vol="100" />
          <note key="60" pos="396" pan="0" len="12" vol="100" />
          <note key="58" pos="408" pan="0" len="12" vol="100" />
          <note key="60" pos="420" pan="0" len="12" vol="100" />
          <note key="65" pos="432" pan="0" len="12" vol="100" />
          <note key="63" pos="444" pan="0" len="12" vol="100" />
          <note key="65" pos="456" pan="0" len="12" vol="100" />
          <note key="60" pos="468" pan="0" len="12" vol="100" />
          <note key="58" pos="480" pan="0" len="12" vol="100" />
          <note key="60" pos="492" pan="0" len="12" vol="100" />
          <note key="65" pos="504" pan="0" len="12" vol="100" />
          <note key="63" pos="516" pan="0" len="12" vol="100" />
          <note key="65" pos="528" pan="0" len="12" vol="100" />
          <note key="60" pos="540" pan="0" len="12" vol="100" />
          <note key="58" pos="552" pan="0" len="12" vol="100" />
          <note key="60" pos="564" pan="0" len="12" vol="100" />
          <note key="60" pos="576" pan="0" len="12" vol="100" />
          <note key="58" pos="588" pan="0" len="12" vol="100" />
          <note key="60" pos="600" pan="0" len="12" vol="100" />
          <note key="55" pos="612" pan="0" len="12" vol="100" />
          <note key="53" pos="624" pan="0" len="12" vol="100" />
          <note key="55" pos="636" pan="0" len="12" vol="100" />
          <note key="60" pos="648" pan="0" len="12" vol="100" />
          <note key="58" pos="660" pan="0" len="12" vol="100" />
          <note key="60" pos="672" pan="0" len="12" vol="100" />
          <note key="55" pos="684" pan="0" len="12" vol="100" />
          <note key="53" pos="696" pan="0" len="12" vol="100" />
          <note key="55" pos="708" pan="0" len="12" vol="100" />
          <note key="60" pos="720" pan="0" len="12" vol="100" />
          <note key="58" pos="732" pan="0" len="12" vol="100" />
          <note key="60" pos="744" pan="0" len="12" vol="100" />
          <note key="55" pos="756" pan="0" len="12" vol="100" />
          <note key="53" pos="768" pan="0" len="12" vol="100" />
          <note key="55" pos="780" pan="0" len="12" vol="100" />
          <note key="60" pos="792" pan="0" len="12" vol="100" />
          <note key="58" pos="804" pan="0" len="12" vol="100" />
          <note key="60" pos="816" pan="0" len="12" vol="100" />
          <note key="55" pos="828" pan="0" len="12" vol="100" />
          <note key="53" pos="840" pan="0" len="12" vol="100" />
          <note key="55" pos="852" pan="0" len="12" vol="100" />
          <note key="60" pos="864" pan="0" len="12" vol="100" />
          <note key="58" pos="876" pan="0" len="12" vol="100" />
          <note key="60" pos="888" pan="0" len="12" vol="100" />
          <note key="55" pos="900" pan="0" len="12" vol="100" />
          <note key="53" pos="912" pan="0" len="12" vol="100" />
          <note key="55" pos="924" pan="0" len="12" vol="100" />
          <note key="60" pos="936" pan="0" len="12" vol="100" />
          <note key="58" pos="948" pan="0" len="12" vol="100" />
          <note key="60" pos="960" pan="0" len="12" vol="100" />
          <note key="55" pos="972" pan="0" len="12" vol="100" />
          <note key="53" pos="984" pan="0" len="12" vol="100" />
          <note key="55" pos="996" pan="0" len="12" vol="100" />
          <note key="60" pos="1008" pan="0" len="12" vol="100" />
          <note key="58" pos="1020" pan="0" len="12" vol="100" />
          <note key="60" pos="1032" pan="0" len="12" vol="100" />
          <note key="55" pos="1044" pan="0" len="12" vol="100" />
          <note key="53" pos="1056" pan="0" len="12" vol="100" />
          <note key="55" pos="1068" pan="0" len="12" vol="100" />
          <note key="60" pos="1080" pan="0" len="12" vol="100" />
          <note key="58" pos="1092" pan="0" len="12" vol="100" />
          <note key="60" pos="1104" pan="0" len="12" vol="100" />
          <note key="55" pos="1116" pan="0" len="12" vol="100" />
          <note key="53" pos="1128" pan="0" len="12" vol="100" />
          <note key="55" pos="1140" pan="0" len="12" vol="100" />
        </pattern>
        <pattern pos="52608" muted="0" steps="16" name="" type="1">
          <note key="60" pos="0" pan="0" len="12" vol="100" />
          <note key="58" pos="12" pan="0" len="12" vol="100" />
          <note key="60" pos="24" pan="0" len="12" vol="100" />
          <note key="55" pos="36" pan="0" len="12" vol="100" />
          <note key="53" pos="48" pan="0" len="12" vol="100" />
          <note key="55" pos="60" pan="0" len="12" vol="100" />
          <note key="60" pos="72" pan="0" len="12" vol="100" />
          <note key="58" pos="84" pan="0" len="12" vol="100" />
          <note key="60" pos="96" pan="0" len="12" vol="100" />
          <note key="55" pos="108" pan="0" len="12" vol="100" />
          <note key="53" pos="120" pan="0" len="12" vol="100" />
          <note key="55" pos="132" pan="0" len="12" vol="100" />
          <note key="60" pos="144" pan="0" len="12" vol="100" />
          <note key="58" pos="156" pan="0" len="12" vol="100" />
          <note key="60" pos="168" pan="0" len="12" vol="100" />
          <note key="55" pos="180" pan="0" len="12" vol="100" />
          <note key="53" pos="192" pan="0" len="12" vol="100" />
          <note key="55" pos="204" pan="0" len="12" vol="100" />
          <note key="60" pos="216" pan="0" len="12" vol="100" />
          <note key="58" pos="228" pan="0" len="12" vol="100" />
          <note key="60" pos="240" pan="0" len="12" vol="100" />
          <note key="55" pos="252" pan="0" len="12" vol="100" />
          <note key="53" pos="264" pan="0" len="12" vol="100" />
          <note key="55" pos="276" pan="0" len="12" vol="100" />
          <note key="65" pos="288" pan="0" len="12" vol="100" />
          <note key="63" pos="300" pan="0" len="12" vol="100" />
          <note key="65" pos="312" pan="0" len="12" vol="100" />
          <note key="60" pos="324" pan="0" len="12" vol="100" />
          <note key="58" pos="336" pan="0" len="12" vol="100" />
          <note key="60" pos="348" pan="0" len="12" vol="100" />
          <note key="65" pos="360" pan="0" len="12" vol="100" />
          <note key="63" pos="372" pan="0" len="12" vol="100" />
          <note key="65" pos="384" pan="0" len="12" vol="100" />
          <note key="60" pos="396" pan="0" len="12" vol="100" />
          <note key="58" pos="408" pan="0" len="12" vol="100" />
          <note key="60" pos="420" pan="0" len="12" vol="100" />
          <note key="65" pos="432" pan="0" len="12" vol="100" />
          <note key="63" pos="444" pan="0" len="12" vol="100" />
          <note key="65" pos="456" pan="0" len="12" vol="100" />
          <note key="60" pos="468" pan="0" len="12" vol="100" />
          <note key="58" pos="480" pan="0" len="12" vol="100" />
          <note key="60" pos="492" pan="0" len="12" vol="100" />
          <note key="65" pos="504" pan="0" len="12" vol="100" />
          <note key="63" pos="516" pan="0" len="12" vol="100" />
          <note key="65" pos="528" pan="0" len="12" vol="100" />
          <note key="60" pos="540" pan="0" len="12" vol="100" />
          <note key="58" pos="552" pan="0" len="12" vol="100" />
          <note key="60" pos="564" pan="0" len="12" vol="100" />
          <note key="60" pos="576" pan="0" len="12" vol="100" />
          <note key="58" pos="588" pan="0" len="12" vol="100" />
          <note key="60" pos="600" pan="0" len="12" vol="100" />
          <note key="55" pos="612" pan="0" len="12" vol="100" />
          <note key="53" pos="624" pan="0" len="12" vol="100" />
          <note key="55" pos="636" pan="0" len="12" vol="100" />
          <note key="60" pos="648" pan="0" len="12" vol="100" />
          <note key="58" pos="660" pan="0" len="12" vol="100" />
          <note key="60" pos="672" pan="0" len="12" vol="100" />
          <note key="55" pos="684" pan="0" len="12" vol="100" />
          <note key="53" pos="696" pan="0" len="12" vol="100" />
          <note key="55" pos="708" pan="0" len="12" vol="100" />
          <note key="60" pos="720" pan="0" len="12" vol="100" />
          <note key="58" pos="732" pan="0" len="12" vol="100" />
          <note key="60" pos="744" pan="0" len="12" vol="100" />
          <note key="55" pos="756" pan="0" len="12" vol="100" />
          <note key="53" pos="768" pan="0" len="12" vol="100" />
          <note key="55" pos="780" pan="0" len="12" vol="100" />
          <note key="60" pos="792" pan="0" len="12" vol="100" />
          <note key="58" pos="804" pan="0" len="12" vol="100" />
          <note key="60" pos="816" pan="0" len="12" vol="100" />
          <note key="55" pos="828" pan="0" len="12" vol="100" />
          <note key="53" pos="840" pan="0" len="12" vol="100" />
          <note key="55" pos="852" pan="0" len="12" vol="100" />
          <note key="60" pos="864" pan="0" len="12" vol="100" />
          <note key="58" pos="876" pan="0" len="12" vol="100" />
          <note key="60" pos="888" pan="0" len="12" vol="100" />
          <note key="55" pos="900" pan="0" len="12" vol="100" />
          <note key="53" pos="912" pan="0" len="12" vol="100" />
          <note key="55" pos="924" pan="0" len="12" vol="100" />
          <note key="60" pos="936" pan="0" len="12" vol="100" />
          <note key="58" pos="948" pan="0" len="12" vol="100" />
          <note key="60" pos="960" pan="0" len="12" vol="100" />
          <note key="55" pos="972" pan="0" len="12" vol="100" />
          <note key="53" pos="984" pan="0" len="12" vol="100" />
          <note key="55" pos="996" pan="0" len="12" vol="100" />
          <note key="60" pos="1008" pan="0" len="12" vol="100" />
          <note key="58" pos="1020" pan="0" len="12" vol="100" />
          <note key="60" pos="1032" pan="0" len="12" vol="100" />
          <note key="55" pos="1044" pan="0" len="12" vol="100" />
          <note key="53" pos="1056" pan="0" len="12" vol="100" />
          <note key="55" pos="1068" pan="0" len="12" vol="100" />
          <note key="60" pos="1080" pan="0" len="12" vol="100" />
          <note key="58" pos="1092" pan="0" len="12" vol="100" />
          <note key="60" pos="1104" pan="0" len="12" vol="100" />
          <note key="55" pos="1116" pan="0" len="12" vol="100" />
          <note key="53" pos="1128" pan="0" len="12" vol="100" />
          <note key="55" pos="1140" pan="0" len="12" vol="100" />
        </pattern>
        <pattern pos="53760" muted="0" steps="16" name="" type="1">
          <note key="36" pos="0" pan="0" len="1536" vol="69" />
        </pattern>
        <pattern pos="55296" muted="0" steps="16" name="" type="1">
          <note key="36" pos="0" pan="0" len="1536" vol="52" />
        </pattern>
        <pattern pos="56832" muted="0" steps="16" name="" type="1">
          <note key="46" pos="1152" pan="0" len="12" vol="100" />
          <note key="48" pos="1164" pan="0" len="96" vol="100" />
          <note key="39" pos="1332" pan="0" len="12" vol="100" />
          <note key="41" pos="1344" pan="0" len="60" vol="100" />
        </pattern>
        <pattern pos="58368" muted="0" steps="16" name="" type="1">
          <note key="48" pos="36" pan="0" len="24" vol="9" />
          <note key="55" pos="60" pan="0" len="24" vol="11" />
          <note key="48" pos="84" pan="0" len="24" vol="14" />
          <note key="53" pos="108" pan="0" len="24" vol="16" />
          <note key="55" pos="132" pan="0" len="24" vol="19" />
          <note key="48" pos="156" pan="0" len="24" vol="22" />
          <note key="53" pos="180" pan="0" len="24" vol="23" />
          <note key="55" pos="204" pan="0" len="24" vol="27" />
          <note key="48" pos="228" pan="0" len="24" vol="28" />
          <note key="53" pos="252" pan="0" len="24" vol="31" />
          <note key="55" pos="276" pan="0" len="24" vol="33" />
          <note key="58" pos="300" pan="0" len="24" vol="36" />
          <note key="57" pos="324" pan="0" len="24" vol="38" />
          <note key="55" pos="348" pan="0" len="24" vol="41" />
          <note key="53" pos="372" pan="0" len="24" vol="44" />
          <note key="46" pos="396" pan="0" len="24" vol="45" />
          <note key="48" pos="420" pan="0" len="24" vol="48" />
          <note key="55" pos="444" pan="0" len="24" vol="45" />
          <note key="48" pos="468" pan="0" len="24" vol="44" />
          <note key="53" pos="492" pan="0" len="24" vol="41" />
          <note key="55" pos="516" pan="0" len="24" vol="39" />
          <note key="48" pos="540" pan="0" len="24" vol="36" />
          <note key="53" pos="564" pan="0" len="24" vol="33" />
          <note key="55" pos="588" pan="0" len="24" vol="31" />
          <note key="48" pos="612" pan="0" len="24" vol="28" />
          <note key="53" pos="636" pan="0" len="24" vol="27" />
          <note key="55" pos="660" pan="0" len="24" vol="23" />
          <note key="58" pos="684" pan="0" len="24" vol="22" />
          <note key="57" pos="708" pan="0" len="24" vol="19" />
          <note key="55" pos="732" pan="0" len="24" vol="16" />
          <note key="53" pos="756" pan="0" len="24" vol="14" />
          <note key="46" pos="780" pan="0" len="24" vol="11" />
          <note key="51" pos="804" pan="0" len="24" vol="9" />
          <note key="55" pos="828" pan="0" len="24" vol="11" />
          <note key="51" pos="852" pan="0" len="24" vol="14" />
          <note key="53" pos="876" pan="0" len="24" vol="16" />
          <note key="55" pos="900" pan="0" len="24" vol="19" />
          <note key="51" pos="924" pan="0" len="24" vol="22" />
          <note key="53" pos="948" pan="0" len="24" vol="23" />
          <note key="55" pos="972" pan="0" len="24" vol="27" />
          <note key="51" pos="996" pan="0" len="24" vol="28" />
          <note key="53" pos="1020" pan="0" len="24" vol="31" />
          <note key="55" pos="1044" pan="0" len="24" vol="33" />
          <note key="58" pos="1068" pan="0" len="24" vol="36" />
          <note key="57" pos="1092" pan="0" len="24" vol="38" />
          <note key="55" pos="1116" pan="0" len="24" vol="41" />
          <note key="53" pos="1140" pan="0" len="24" vol="44" />
          <note key="51" pos="1164" pan="0" len="24" vol="45" />
          <note key="48" pos="1188" pan="0" len="24" vol="48" />
          <note key="55" pos="1212" pan="0" len="24" vol="45" />
          <note key="48" pos="1236" pan="0" len="24" vol="44" />
          <note key="53" pos="1260" pan="0" len="24" vol="41" />
          <note key="55" pos="1284" pan="0" len="24" vol="39" />
          <note key="48" pos="1308" pan="0" len="24" vol="36" />
          <note key="53" pos="1332" pan="0" len="24" vol="33" />
          <note key="55" pos="1356" pan="0" len="24" vol="31" />
          <note key="48" pos="1380" pan="0" len="24" vol="28" />
          <note key="53" pos="1404" pan="0" len="24" vol="27" />
          <note key="55" pos="1428" pan="0" len="24" vol="23" />
          <note key="58" pos="1452" pan="0" len="24" vol="22" />
          <note key="57" pos="1476" pan="0" len="24" vol="19" />
          <note key="55" pos="1500" pan="0" len="24" vol="16" />
          <note key="53" pos="1524" pan="0" len="12" vol="14" />
        </pattern>
        <pattern pos="89088" muted="0" steps="16" name="" type="1">
          <note key="65" pos="12" pan="0" len="12" vol="100" />
          <note key="67" pos="24" pan="0" len="12" vol="100" />
          <note key="60" pos="48" pan="0" len="12" vol="100" />
          <note key="65" pos="84" pan="0" len="12" vol="100" />
          <note key="67" pos="96" pan="0" len="12" vol="100" />
          <note key="60" pos="132" pan="0" len="12" vol="100" />
          <note key="65" pos="396" pan="0" len="12" vol="100" />
          <note key="67" pos="408" pan="0" len="12" vol="100" />
          <note key="60" pos="432" pan="0" len="12" vol="100" />
          <note key="65" pos="468" pan="0" len="12" vol="100" />
          <note key="67" pos="480" pan="0" len="12" vol="100" />
          <note key="60" pos="516" pan="0" len="12" vol="100" />
        </pattern>
        <pattern pos="89856" muted="0" steps="16" name="" type="1">
          <note key="65" pos="12" pan="0" len="12" vol="100" />
          <note key="67" pos="24" pan="0" len="12" vol="100" />
          <note key="60" pos="48" pan="0" len="12" vol="100" />
          <note key="65" pos="84" pan="0" len="12" vol="100" />
          <note key="67" pos="96" pan="0" len="12" vol="100" />
          <note key="60" pos="132" pan="0" len="12" vol="100" />
          <note key="65" pos="396" pan="0" len="12" vol="100" />
          <note key="67" pos="408" pan="0" len="12" vol="100" />
          <note key="60" pos="432" pan="0" len="12" vol="100" />
          <note key="65" pos="468" pan="0" len="12" vol="100" />
          <note key="67" pos="480" pan="0" len="12" vol="100" />
          <note key="60" pos="516" pan="0" len="12" vol="100" />
        </pattern>
      </track>
      <track solo="0" name="9 (Ch12)" type="0" muted="0">
        <instrumenttrack usemasterpitch="1" pitch="0.0" basenote="57" pan="0" pitchrange="12" vol="30">
          <eldata />
          <instrument name="tripleoscillator" />
        </instrumenttrack>
        <pattern pos="70656" muted="0" steps="16" name="" type="1">
          <note key="48" pos="0" pan="0" len="24" vol="22" />
          <note key="55" pos="24" pan="0" len="24" vol="28" />
          <note key="48" pos="48" pan="0" len="24" vol="34" />
          <note key="53" pos="72" pan="0" len="24" vol="41" />
          <note key="55" pos="96" pan="0" len="24" vol="47" />
          <note key="48" pos="120" pan="0" len="24" vol="55" />
          <note key="53" pos="144" pan="0" len="24" vol="61" />
          <note key="55" pos="168" pan="0" len="24" vol="67" />
          <note key="48" pos="192" pan="0" len="24" vol="73" />
          <note key="53" pos="216" pan="0" len="24" vol="80" />
          <note key="55" pos="240" pan="0" len="24" vol="86" />
          <note key="58" pos="264" pan="0" len="24" vol="92" />
          <note key="57" pos="288" pan="0" len="24" vol="97" />
          <note key="55" pos="312" pan="0" len="24" vol="100" />
          <note key="53" pos="336" pan="0" len="24" vol="100" />
          <note key="46" pos="360" pan="0" len="24" vol="100" />
          <note key="48" pos="384" pan="0" len="24" vol="100" />
          <note key="55" pos="408" pan="0" len="24" vol="100" />
          <note key="48" pos="432" pan="0" len="24" vol="100" />
          <note key="53" pos="456" pan="0" len="24" vol="100" />
          <note key="55" pos="480" pan="0" len="24" vol="100" />
          <note key="48" pos="504" pan="0" len="24" vol="92" />
          <note key="53" pos="528" pan="0" len="24" vol="86" />
          <note key="55" pos="552" pan="0" len="24" vol="80" />
          <note key="48" pos="576" pan="0" len="24" vol="73" />
          <note key="53" pos="600" pan="0" len="24" vol="67" />
          <note key="55" pos="624" pan="0" len="24" vol="61" />
          <note key="58" pos="648" pan="0" len="24" vol="55" />
          <note key="57" pos="672" pan="0" len="24" vol="48" />
          <note key="55" pos="696" pan="0" len="24" vol="41" />
          <note key="53" pos="720" pan="0" len="24" vol="34" />
          <note key="46" pos="744" pan="0" len="24" vol="28" />
          <note key="51" pos="768" pan="0" len="24" vol="22" />
          <note key="55" pos="792" pan="0" len="24" vol="28" />
          <note key="51" pos="816" pan="0" len="24" vol="34" />
          <note key="53" pos="840" pan="0" len="24" vol="41" />
          <note key="55" pos="864" pan="0" len="24" vol="47" />
          <note key="51" pos="888" pan="0" len="24" vol="55" />
          <note key="53" pos="912" pan="0" len="24" vol="61" />
          <note key="55" pos="936" pan="0" len="24" vol="67" />
          <note key="51" pos="960" pan="0" len="24" vol="73" />
          <note key="53" pos="984" pan="0" len="24" vol="80" />
          <note key="55" pos="1008" pan="0" len="24" vol="86" />
          <note key="58" pos="1032" pan="0" len="24" vol="92" />
          <note key="57" pos="1056" pan="0" len="24" vol="97" />
          <note key="55" pos="1080" pan="0" len="24" vol="100" />
          <note key="53" pos="1104" pan="0" len="24" vol="100" />
          <note key="51" pos="1128" pan="0" len="24" vol="100" />
          <note key="53" pos="1152" pan="0" len="24" vol="100" />
          <note key="55" pos="1176" pan="0" len="24" vol="100" />
          <note key="48" pos="1200" pan="0" len="24" vol="100" />
          <note key="53" pos="1224" pan="0" len="24" vol="100" />
          <note key="55" pos="1248" pan="0" len="24" vol="100" />
          <note key="53" pos="1272" pan="0" len="24" vol="92" />
          <note key="53" pos="1296" pan="0" len="24" vol="86" />
          <note key="55" pos="1320" pan="0" len="24" vol="80" />
          <note key="48" pos="1344" pan="0" len="24" vol="73" />
          <note key="53" pos="1368" pan="0" len="24" vol="67" />
          <note key="55" pos="1392" pan="0" len="24" vol="61" />
          <note key="58" pos="1416" pan="0" len="24" vol="55" />
          <note key="57" pos="1440" pan="0" len="24" vol="48" />
          <note key="55" pos="1464" pan="0" len="24" vol="41" />
          <note key="53" pos="1488" pan="0" len="24" vol="34" />
          <note key="46" pos="1512" pan="0" len="24" vol="28" />
        </pattern>
        <pattern pos="61440" muted="0" steps="16" name="" type="1">
          <note key="48" pos="0" pan="0" len="24" vol="22" />
          <note key="55" pos="24" pan="0" len="24" vol="28" />
          <note key="48" pos="48" pan="0" len="24" vol="34" />
          <note key="53" pos="72" pan="0" len="24" vol="41" />
          <note key="55" pos="96" pan="0" len="24" vol="47" />
          <note key="48" pos="120" pan="0" len="24" vol="55" />
          <note key="53" pos="144" pan="0" len="24" vol="61" />
          <note key="55" pos="168" pan="0" len="24" vol="67" />
          <note key="48" pos="192" pan="0" len="24" vol="73" />
          <note key="53" pos="216" pan="0" len="24" vol="80" />
          <note key="55" pos="240" pan="0" len="24" vol="86" />
          <note key="58" pos="264" pan="0" len="24" vol="92" />
          <note key="57" pos="288" pan="0" len="24" vol="97" />
          <note key="55" pos="312" pan="0" len="24" vol="100" />
          <note key="53" pos="336" pan="0" len="24" vol="100" />
          <note key="46" pos="360" pan="0" len="24" vol="100" />
          <note key="48" pos="384" pan="0" len="24" vol="100" />
          <note key="55" pos="408" pan="0" len="24" vol="100" />
          <note key="48" pos="432" pan="0" len="24" vol="100" />
          <note key="53" pos="456" pan="0" len="24" vol="100" />
          <note key="55" pos="480" pan="0" len="24" vol="100" />
          <note key="48" pos="504" pan="0" len="24" vol="92" />
          <note key="53" pos="528" pan="0" len="24" vol="86" />
          <note key="55" pos="552" pan="0" len="24" vol="80" />
          <note key="48" pos="576" pan="0" len="24" vol="73" />
          <note key="53" pos="600" pan="0" len="24" vol="67" />
          <note key="55" pos="624" pan="0" len="24" vol="61" />
          <note key="58" pos="648" pan="0" len="24" vol="55" />
          <note key="57" pos="672" pan="0" len="24" vol="48" />
          <note key="55" pos="696" pan="0" len="24" vol="41" />
          <note key="53" pos="720" pan="0" len="24" vol="34" />
          <note key="46" pos="744" pan="0" len="24" vol="28" />
          <note key="51" pos="768" pan="0" len="24" vol="22" />
          <note key="55" pos="792" pan="0" len="24" vol="28" />
          <note key="51" pos="816" pan="0" len="24" vol="34" />
          <note key="53" pos="840" pan="0" len="24" vol="41" />
          <note key="55" pos="864" pan="0" len="24" vol="47" />
          <note key="51" pos="888" pan="0" len="24" vol="55" />
          <note key="53" pos="912" pan="0" len="24" vol="61" />
          <note key="55" pos="936" pan="0" len="24" vol="67" />
          <note key="51" pos="960" pan="0" len="24" vol="73" />
          <note key="53" pos="984" pan="0" len="24" vol="80" />
          <note key="55" pos="1008" pan="0" len="24" vol="86" />
          <note key="58" pos="1032" pan="0" len="24" vol="92" />
          <note key="57" pos="1056" pan="0" len="24" vol="97" />
          <note key="55" pos="1080" pan="0" len="24" vol="100" />
          <note key="53" pos="1104" pan="0" len="24" vol="100" />
          <note key="51" pos="1128" pan="0" len="24" vol="100" />
          <note key="53" pos="1152" pan="0" len="24" vol="100" />
          <note key="55" pos="1176" pan="0" len="24" vol="100" />
          <note key="48" pos="1200" pan="0" len="24" vol="100" />
          <note key="53" pos="1224" pan="0" len="24" vol="100" />
          <note key="55" pos="1248" pan="0" len="24" vol="100" />
          <note key="53" pos="1272" pan="0" len="24" vol="92" />
          <note key="53" pos="1296" pan="0" len="24" vol="86" />
          <note key="55" pos="1320" pan="0" len="24" vol="80" />
          <note key="48" pos="1344" pan="0" len="24" vol="73" />
          <note key="53" pos="1368" pan="0" len="24" vol="67" />
          <note key="55" pos="1392" pan="0" len="24" vol="61" />
          <note key="58" pos="1416" pan="0" len="24" vol="55" />
          <note key="57" pos="1440" pan="0" len="24" vol="48" />
          <note key="55" pos="1464" pan="0" len="24" vol="41" />
          <note key="53" pos="1488" pan="0" len="24" vol="34" />
          <note key="46" pos="1512" pan="0" len="24" vol="28" />
        </pattern>
      </track>
      <track solo="0" name="9 (Ch13)" type="0" muted="0">
        <instrumenttrack usemasterpitch="1" pitch="0.0" basenote="57" pan="0" pitchrange="12" vol="30">
          <eldata />
          <instrument name="tripleoscillator" />
        </instrumenttrack>
        <pattern pos="70656" muted="0" steps="16" name="" type="1">
          <note key="48" pos="36" pan="0" len="24" vol="9" />
          <note key="55" pos="60" pan="0" len="24" vol="11" />
          <note key="48" pos="84" pan="0" len="24" vol="14" />
          <note key="53" pos="108" pan="0" len="24" vol="16" />
          <note key="55" pos="132" pan="0" len="24" vol="19" />
          <note key="48" pos="156" pan="0" len="24" vol="22" />
          <note key="53" pos="180" pan="0" len="24" vol="23" />
          <note key="55" pos="204" pan="0" len="24" vol="27" />
          <note key="48" pos="228" pan="0" len="24" vol="28" />
          <note key="53" pos="252" pan="0" len="24" vol="31" />
          <note key="55" pos="276" pan="0" len="24" vol="33" />
          <note key="58" pos="300" pan="0" len="24" vol="36" />
          <note key="57" pos="324" pan="0" len="24" vol="38" />
          <note key="55" pos="348" pan="0" len="24" vol="41" />
          <note key="53" pos="372" pan="0" len="24" vol="44" />
          <note key="46" pos="396" pan="0" len="24" vol="45" />
          <note key="48" pos="420" pan="0" len="24" vol="48" />
          <note key="55" pos="444" pan="0" len="24" vol="45" />
          <note key="48" pos="468" pan="0" len="24" vol="44" />
          <note key="53" pos="492" pan="0" len="24" vol="41" />
          <note key="55" pos="516" pan="0" len="24" vol="39" />
          <note key="48" pos="540" pan="0" len="24" vol="36" />
          <note key="53" pos="564" pan="0" len="24" vol="33" />
          <note key="55" pos="588" pan="0" len="24" vol="31" />
          <note key="48" pos="612" pan="0" len="24" vol="28" />
          <note key="53" pos="636" pan="0" len="24" vol="27" />
          <note key="55" pos="660" pan="0" len="24" vol="23" />
          <note key="58" pos="684" pan="0" len="24" vol="22" />
          <note key="57" pos="708" pan="0" len="24" vol="19" />
          <note key="55" pos="732" pan="0" len="24" vol="16" />
          <note key="53" pos="756" pan="0" len="24" vol="14" />
          <note key="46" pos="780" pan="0" len="24" vol="11" />
          <note key="51" pos="804" pan="0" len="24" vol="9" />
          <note key="55" pos="828" pan="0" len="24" vol="11" />
          <note key="51" pos="852" pan="0" len="24" vol="14" />
          <note key="53" pos="876" pan="0" len="24" vol="16" />
          <note key="55" pos="900" pan="0" len="24" vol="19" />
          <note key="51" pos="924" pan="0" len="24" vol="22" />
          <note key="53" pos="948" pan="0" len="24" vol="23" />
          <note key="55" pos="972" pan="0" len="24" vol="27" />
          <note key="51" pos="996" pan="0" len="24" vol="28" />
          <note key="53" pos="1020" pan="0" len="24" vol="31" />
          <note key="55" pos="1044" pan="0" len="24" vol="33" />
          <note key="58" pos="1068" pan="0" len="24" vol="36" />
          <note key="57" pos="1092" pan="0" len="24" vol="38" />
          <note key="55" pos="1116" pan="0" len="24" vol="41" />
          <note key="53" pos="1140" pan="0" len="24" vol="44" />
          <note key="51" pos="1164" pan="0" len="24" vol="45" />
          <note key="48" pos="1188" pan="0" len="24" vol="48" />
          <note key="55" pos="1212" pan="0" len="24" vol="45" />
          <note key="48" pos="1236" pan="0" len="24" vol="44" />
          <note key="53" pos="1260" pan="0" len="24" vol="41" />
          <note key="55" pos="1284" pan="0" len="24" vol="39" />
          <note key="48" pos="1308" pan="0" len="24" vol="36" />
          <note key="53" pos="1332" pan="0" len="24" vol="33" />
          <note key="55" pos="1356" pan="0" len="24" vol="31" />
          <note key="48" pos="1380" pan="0" len="24" vol="28" />
          <note key="53" pos="1404" pan="0" len="24" vol="27" />
          <note key="55" pos="1428" pan="0" len="24" vol="23" />
          <note key="58" pos="1452" pan="0" len="24" vol="22" />
          <note key="57" pos="1476" pan="0" len="24" vol="19" />
          <note key="55" pos="1500" pan="0" len="24" vol="16" />
          <note key="53" pos="1524" pan="0" len="12" vol="14" />
        </pattern>
        <pattern pos="31872" muted="0" steps="16" name="" type="1">
          <note key="60" pos="768" pan="0" len="24" vol="100" />
          <note key="67" pos="792" pan="0" len="264" vol="100" />
        </pattern>
        <pattern pos="61440" muted="0" steps="16" name="" type="1">
          <note key="48" pos="36" pan="0" len="24" vol="9" />
          <note key="55" pos="60" pan="0" len="24" vol="11" />
          <note key="48" pos="84" pan="0" len="24" vol="14" />
          <note key="53" pos="108" pan="0" len="24" vol="16" />
          <note key="55" pos="132" pan="0" len="24" vol="19" />
          <note key="48" pos="156" pan="0" len="24" vol="22" />
          <note key="53" pos="180" pan="0" len="24" vol="23" />
          <note key="55" pos="204" pan="0" len="24" vol="27" />
          <note key="48" pos="228" pan="0" len="24" vol="28" />
          <note key="53" pos="252" pan="0" len="24" vol="31" />
          <note key="55" pos="276" pan="0" len="24" vol="33" />
          <note key="58" pos="300" pan="0" len="24" vol="36" />
          <note key="57" pos="324" pan="0" len="24" vol="38" />
          <note key="55" pos="348" pan="0" len="24" vol="41" />
          <note key="53" pos="372" pan="0" len="24" vol="44" />
          <note key="46" pos="396" pan="0" len="24" vol="45" />
          <note key="48" pos="420" pan="0" len="24" vol="48" />
          <note key="55" pos="444" pan="0" len="24" vol="45" />
          <note key="48" pos="468" pan="0" len="24" vol="44" />
          <note key="53" pos="492" pan="0" len="24" vol="41" />
          <note key="55" pos="516" pan="0" len="24" vol="39" />
          <note key="48" pos="540" pan="0" len="24" vol="36" />
          <note key="53" pos="564" pan="0" len="24" vol="33" />
          <note key="55" pos="588" pan="0" len="24" vol="31" />
          <note key="48" pos="612" pan="0" len="24" vol="28" />
          <note key="53" pos="636" pan="0" len="24" vol="27" />
          <note key="55" pos="660" pan="0" len="24" vol="23" />
          <note key="58" pos="684" pan="0" len="24" vol="22" />
          <note key="57" pos="708" pan="0" len="24" vol="19" />
          <note key="55" pos="732" pan="0" len="24" vol="16" />
          <note key="53" pos="756" pan="0" len="24" vol="14" />
          <note key="46" pos="780" pan="0" len="24" vol="11" />
          <note key="51" pos="804" pan="0" len="24" vol="9" />
          <note key="55" pos="828" pan="0" len="24" vol="11" />
          <note key="51" pos="852" pan="0" len="24" vol="14" />
          <note key="53" pos="876" pan="0" len="24" vol="16" />
          <note key="55" pos="900" pan="0" len="24" vol="19" />
          <note key="51" pos="924" pan="0" len="24" vol="22" />
          <note key="53" pos="948" pan="0" len="24" vol="23" />
          <note key="55" pos="972" pan="0" len="24" vol="27" />
          <note key="51" pos="996" pan="0" len="24" vol="28" />
          <note key="53" pos="1020" pan="0" len="24" vol="31" />
          <note key="55" pos="1044" pan="0" len="24" vol="33" />
          <note key="58" pos="1068" pan="0" len="24" vol="36" />
          <note key="57" pos="1092" pan="0" len="24" vol="38" />
          <note key="55" pos="1116" pan="0" len="24" vol="41" />
          <note key="53" pos="1140" pan="0" len="24" vol="44" />
          <note key="51" pos="1164" pan="0" len="24" vol="45" />
          <note key="48" pos="1188" pan="0" len="24" vol="48" />
          <note key="55" pos="1212" pan="0" len="24" vol="45" />
          <note key="48" pos="1236" pan="0" len="24" vol="44" />
          <note key="53" pos="1260" pan="0" len="24" vol="41" />
          <note key="55" pos="1284" pan="0" len="24" vol="39" />
          <note key="48" pos="1308" pan="0" len="24" vol="36" />
          <note key="53" pos="1332" pan="0" len="24" vol="33" />
          <note key="55" pos="1356" pan="0" len="24" vol="31" />
          <note key="48" pos="1380" pan="0" len="24" vol="28" />
          <note key="53" pos="1404" pan="0" len="24" vol="27" />
          <note key="55" pos="1428" pan="0" len="24" vol="23" />
          <note key="58" pos="1452" pan="0" len="24" vol="22" />
          <note key="57" pos="1476" pan="0" len="24" vol="19" />
          <note key="55" pos="1500" pan="0" len="24" vol="16" />
          <note key="53" pos="1524" pan="0" len="12" vol="14" />
        </pattern>
        <pattern pos="67584" muted="0" steps="16" name="" type="1">
          <note key="46" pos="1152" pan="0" len="12" vol="100" />
          <note key="48" pos="1164" pan="0" len="96" vol="100" />
          <note key="39" pos="1332" pan="0" len="12" vol="100" />
          <note key="41" pos="1344" pan="0" len="60" vol="100" />
        </pattern>
      </track>
      <track solo="0" name="10 (Ch2)" type="0" muted="0">
        <instrumenttrack usemasterpitch="1" pitch="0.0" basenote="57" pan="0" pitchrange="12" vol="30">
          <eldata />
          <instrument name="tripleoscillator" />
        </instrumenttrack>
        <pattern pos="6912" muted="0" steps="16" name="" type="1">
          <note key="60" pos="48" pan="0" len="144" vol="100" />
          <note key="60" pos="624" pan="0" len="144" vol="100" />
        </pattern>
        <pattern pos="0" muted="0" steps="16" name="" type="1">
          <note key="60" pos="0" pan="0" len="768" vol="50" />
        </pattern>
      </track>
      <track solo="0" name="10 (Ch3)" type="0" muted="0">
        <instrumenttrack usemasterpitch="1" pitch="0.0" basenote="57" pan="0" pitchrange="12" vol="30">
          <eldata />
          <instrument name="tripleoscillator" />
        </instrumenttrack>
        <pattern pos="138240" muted="0" steps="16" name="" type="1">
          <note key="60" pos="0" pan="0" len="768" vol="50" />
        </pattern>
        <pattern pos="59904" muted="0" steps="16" name="" type="1">
          <note key="48" pos="192" pan="0" len="192" vol="100" />
          <note key="48" pos="576" pan="0" len="192" vol="100" />
          <note key="51" pos="960" pan="0" len="192" vol="100" />
          <note key="53" pos="1344" pan="0" len="96" vol="100" />
        </pattern>
        <pattern pos="61440" muted="0" steps="16" name="" type="1">
          <note key="48" pos="192" pan="0" len="192" vol="100" />
          <note key="48" pos="576" pan="0" len="192" vol="100" />
          <note key="51" pos="960" pan="0" len="192" vol="100" />
          <note key="53" pos="1344" pan="0" len="96" vol="100" />
        </pattern>
        <pattern pos="62976" muted="0" steps="16" name="" type="1">
          <note key="48" pos="192" pan="0" len="192" vol="100" />
          <note key="48" pos="576" pan="0" len="192" vol="100" />
          <note key="51" pos="960" pan="0" len="192" vol="100" />
          <note key="53" pos="1344" pan="0" len="96" vol="100" />
        </pattern>
        <pattern pos="64512" muted="0" steps="16" name="" type="1">
          <note key="53" pos="192" pan="0" len="192" vol="100" />
          <note key="53" pos="576" pan="0" len="192" vol="100" />
          <note key="53" pos="960" pan="0" len="192" vol="100" />
          <note key="53" pos="1344" pan="0" len="192" vol="100" />
        </pattern>
        <pattern pos="66048" muted="0" steps="16" name="" type="1">
          <note key="53" pos="192" pan="0" len="192" vol="100" />
          <note key="53" pos="576" pan="0" len="192" vol="100" />
          <note key="53" pos="960" pan="0" len="192" vol="100" />
          <note key="53" pos="1344" pan="0" len="192" vol="100" />
        </pattern>
        <pattern pos="67584" muted="0" steps="16" name="" type="1">
          <note key="48" pos="192" pan="0" len="192" vol="100" />
          <note key="48" pos="576" pan="0" len="192" vol="100" />
          <note key="51" pos="960" pan="0" len="192" vol="100" />
          <note key="53" pos="1344" pan="0" len="96" vol="100" />
        </pattern>
        <pattern pos="69120" muted="0" steps="16" name="" type="1">
          <note key="48" pos="192" pan="0" len="192" vol="100" />
          <note key="48" pos="576" pan="0" len="192" vol="100" />
          <note key="51" pos="960" pan="0" len="192" vol="100" />
          <note key="53" pos="1344" pan="0" len="96" vol="100" />
        </pattern>
        <pattern pos="70656" muted="0" steps="16" name="" type="1">
          <note key="48" pos="192" pan="0" len="192" vol="100" />
          <note key="48" pos="576" pan="0" len="192" vol="100" />
          <note key="51" pos="960" pan="0" len="192" vol="100" />
          <note key="53" pos="1344" pan="0" len="96" vol="100" />
        </pattern>
        <pattern pos="72192" muted="0" steps="16" name="" type="1">
          <note key="48" pos="192" pan="0" len="192" vol="100" />
          <note key="48" pos="576" pan="0" len="192" vol="100" />
          <note key="51" pos="960" pan="0" len="192" vol="100" />
          <note key="53" pos="1344" pan="0" len="96" vol="100" />
        </pattern>
        <pattern pos="73728" muted="0" steps="16" name="" type="1">
          <note key="53" pos="192" pan="0" len="192" vol="100" />
          <note key="53" pos="576" pan="0" len="192" vol="100" />
          <note key="53" pos="960" pan="0" len="192" vol="100" />
          <note key="53" pos="1344" pan="0" len="192" vol="100" />
        </pattern>
        <pattern pos="75264" muted="0" steps="16" name="" type="1">
          <note key="53" pos="192" pan="0" len="192" vol="100" />
          <note key="53" pos="576" pan="0" len="192" vol="100" />
          <note key="53" pos="960" pan="0" len="192" vol="100" />
        </pattern>
        <pattern pos="136704" muted="0" steps="16" name="" type="1">
          <note key="60" pos="768" pan="0" len="768" vol="0" />
        </pattern>
      </track>
      <track solo="0" name="10 (Ch4)" type="0" muted="0">
        <instrumenttrack usemasterpitch="1" pitch="0.0" basenote="57" pan="0" pitchrange="12" vol="30">
          <eldata />
          <instrument name="tripleoscillator" />
        </instrumenttrack>
        <pattern pos="58368" muted="0" steps="16" name="" type="1">
          <note key="48" pos="192" pan="0" len="384" vol="100" />
          <note key="48" pos="576" pan="0" len="192" vol="100" />
          <note key="51" pos="960" pan="0" len="192" vol="100" />
          <note key="53" pos="1344" pan="0" len="192" vol="100" />
        </pattern>
        <pattern pos="20736" muted="0" steps="16" name="" type="1">
          <note key="60" pos="96" pan="0" len="384" vol="100" />
          <note key="60" pos="480" pan="0" len="384" vol="100" />
          <note key="60" pos="864" pan="0" len="384" vol="100" />
          <note key="60" pos="1248" pan="0" len="288" vol="100" />
        </pattern>
        <pattern pos="23808" muted="0" steps="16" name="" type="1">
          <note key="60" pos="96" pan="0" len="384" vol="100" />
          <note key="60" pos="480" pan="0" len="384" vol="100" />
          <note key="60" pos="864" pan="0" len="384" vol="100" />
          <note key="60" pos="1248" pan="0" len="288" vol="100" />
        </pattern>
        <pattern pos="53760" muted="0" steps="16" name="" type="1">
          <note key="48" pos="192" pan="0" len="384" vol="100" />
          <note key="48" pos="576" pan="0" len="192" vol="100" />
          <note key="48" pos="960" pan="0" len="384" vol="100" />
          <note key="48" pos="1344" pan="0" len="192" vol="100" />
        </pattern>
        <pattern pos="55296" muted="0" steps="16" name="" type="1">
          <note key="48" pos="192" pan="0" len="384" vol="100" />
          <note key="48" pos="576" pan="0" len="192" vol="100" />
          <note key="48" pos="960" pan="0" len="384" vol="100" />
          <note key="48" pos="1344" pan="0" len="192" vol="100" />
        </pattern>
        <pattern pos="56832" muted="0" steps="16" name="" type="1">
          <note key="48" pos="192" pan="0" len="384" vol="100" />
          <note key="48" pos="576" pan="0" len="192" vol="100" />
          <note key="51" pos="960" pan="0" len="384" vol="100" />
          <note key="53" pos="1344" pan="0" len="192" vol="100" />
        </pattern>
      </track>
      <track solo="0" name="10 (Ch6)" type="0" muted="0">
        <instrumenttrack usemasterpitch="1" pitch="0.0" basenote="57" pan="0" pitchrange="12" vol="30">
          <eldata />
          <instrument name="tripleoscillator" />
        </instrumenttrack>
        <pattern pos="91392" muted="0" steps="16" name="" type="1">
          <note key="60" pos="0" pan="0" len="12" vol="100" />
          <note key="60" pos="24" pan="0" len="12" vol="100" />
          <note key="60" pos="384" pan="0" len="12" vol="100" />
          <note key="60" pos="408" pan="0" len="12" vol="100" />
        </pattern>
        <pattern pos="0" muted="0" steps="16" name="" type="1">
          <note key="53" pos="0" pan="0" len="768" vol="50" />
        </pattern>
        <pattern pos="76800" muted="0" steps="16" name="" type="1">
          <note key="60" pos="0" pan="0" len="12" vol="100" />
          <note key="60" pos="24" pan="0" len="12" vol="100" />
          <note key="60" pos="384" pan="0" len="12" vol="100" />
          <note key="60" pos="408" pan="0" len="12" vol="100" />
        </pattern>
        <pattern pos="77568" muted="0" steps="16" name="" type="1">
          <note key="60" pos="0" pan="0" len="12" vol="100" />
          <note key="60" pos="24" pan="0" len="12" vol="100" />
        </pattern>
        <pattern pos="78336" muted="0" steps="16" name="" type="1">
          <note key="60" pos="0" pan="0" len="12" vol="100" />
          <note key="60" pos="24" pan="0" len="12" vol="100" />
        </pattern>
        <pattern pos="79104" muted="0" steps="16" name="" type="1">
          <note key="60" pos="0" pan="0" len="12" vol="100" />
          <note key="60" pos="24" pan="0" len="12" vol="100" />
        </pattern>
        <pattern pos="79872" muted="0" steps="16" name="" type="1">
          <note key="60" pos="0" pan="0" len="12" vol="100" />
          <note key="60" pos="24" pan="0" len="12" vol="100" />
          <note key="60" pos="384" pan="0" len="12" vol="100" />
          <note key="60" pos="408" pan="0" len="12" vol="100" />
        </pattern>
        <pattern pos="80640" muted="0" steps="16" name="" type="1">
          <note key="60" pos="0" pan="0" len="12" vol="100" />
          <note key="60" pos="24" pan="0" len="12" vol="100" />
        </pattern>
        <pattern pos="90624" muted="0" steps="16" name="" type="1">
          <note key="60" pos="0" pan="0" len="12" vol="100" />
          <note key="60" pos="24" pan="0" len="12" vol="100" />
          <note key="60" pos="384" pan="0" len="12" vol="100" />
          <note key="60" pos="408" pan="0" len="12" vol="100" />
        </pattern>
      </track>
      <track solo="0" name="10 (Ch7)" type="0" muted="0">
        <instrumenttrack usemasterpitch="1" pitch="0.0" basenote="57" pan="0" pitchrange="12" vol="30">
          <eldata />
          <instrument name="tripleoscillator" />
        </instrumenttrack>
        <pattern pos="138240" muted="0" steps="16" name="" type="1">
          <note key="53" pos="0" pan="0" len="768" vol="50" />
        </pattern>
        <pattern pos="768" muted="0" steps="16" name="" type="1">
          <note key="60" pos="48" pan="0" len="48" vol="100" />
          <note key="60" pos="240" pan="0" len="48" vol="100" />
          <note key="60" pos="432" pan="0" len="48" vol="100" />
          <note key="60" pos="624" pan="0" len="48" vol="100" />
        </pattern>
        <pattern pos="1536" muted="0" steps="16" name="" type="1">
          <note key="60" pos="48" pan="0" len="48" vol="100" />
          <note key="60" pos="240" pan="0" len="48" vol="100" />
          <note key="60" pos="432" pan="0" len="48" vol="100" />
          <note key="60" pos="624" pan="0" len="48" vol="100" />
        </pattern>
        <pattern pos="2304" muted="0" steps="16" name="" type="1">
          <note key="60" pos="48" pan="0" len="48" vol="100" />
          <note key="60" pos="240" pan="0" len="48" vol="100" />
          <note key="60" pos="432" pan="0" len="48" vol="100" />
          <note key="60" pos="624" pan="0" len="48" vol="100" />
        </pattern>
        <pattern pos="3072" muted="0" steps="16" name="" type="1">
          <note key="60" pos="48" pan="0" len="48" vol="100" />
          <note key="60" pos="240" pan="0" len="48" vol="100" />
          <note key="60" pos="432" pan="0" len="48" vol="100" />
        </pattern>
        <pattern pos="20736" muted="0" steps="16" name="" type="1">
          <note key="72" pos="96" pan="0" len="384" vol="100" />
          <note key="72" pos="480" pan="0" len="384" vol="100" />
          <note key="72" pos="864" pan="0" len="384" vol="100" />
          <note key="72" pos="1248" pan="0" len="288" vol="100" />
        </pattern>
        <pattern pos="81408" muted="0" steps="16" name="" type="1">
          <note key="60" pos="0" pan="0" len="48" vol="100" />
          <note key="60" pos="384" pan="0" len="48" vol="100" />
        </pattern>
        <pattern pos="82176" muted="0" steps="16" name="" type="1">
          <note key="60" pos="0" pan="0" len="48" vol="100" />
          <note key="60" pos="384" pan="0" len="48" vol="100" />
        </pattern>
        <pattern pos="136704" muted="0" steps="16" name="" type="1">
          <note key="53" pos="768" pan="0" len="768" vol="0" />
        </pattern>
      </track>
      <track solo="0" name="10 (Ch8)" type="0" muted="0">
        <instrumenttrack usemasterpitch="1" pitch="0.0" basenote="57" pan="0" pitchrange="12" vol="30">
          <eldata />
          <instrument name="tripleoscillator" />
        </instrumenttrack>
        <pattern pos="215040" muted="0" steps="16" name="" type="1">
          <note key="53" pos="1152" pan="0" len="384" vol="2" />
        </pattern>
        <pattern pos="7680" muted="0" steps="16" name="" type="1">
          <note key="60" pos="48" pan="0" len="144" vol="100" />
          <note key="53" pos="576" pan="0" len="192" vol="100" />
        </pattern>
      </track>
      <track solo="0" name="10 (Ch9)" type="0" muted="0">
        <instrumenttrack usemasterpitch="1" pitch="0.0" basenote="57" pan="0" pitchrange="12" vol="30">
          <eldata />
          <instrument name="tripleoscillator" />
        </instrumenttrack>
        <pattern pos="29568" muted="0" steps="16" name="" type="1">
          <note key="60" pos="288" pan="0" len="144" vol="100" />
          <note key="65" pos="864" pan="0" len="144" vol="100" />
        </pattern>
        <pattern pos="25344" muted="0" steps="16" name="" type="1">
          <note key="60" pos="0" pan="0" len="768" vol="100" />
          <note key="60" pos="768" pan="0" len="768" vol="100" />
        </pattern>
        <pattern pos="26880" muted="0" steps="16" name="" type="1">
          <note key="63" pos="0" pan="0" len="768" vol="100" />
          <note key="65" pos="768" pan="0" len="768" vol="100" />
        </pattern>
        <pattern pos="28416" muted="0" steps="16" name="" type="1">
          <note key="60" pos="0" pan="0" len="576" vol="100" />
          <note key="60" pos="576" pan="0" len="576" vol="100" />
        </pattern>
      </track>
      <track solo="0" name="10 (Ch10)" type="0" muted="0">
        <instrumenttrack usemasterpitch="1" pitch="0.0" basenote="57" pan="0" pitchrange="12" vol="30">
          <eldata />
          <instrument name="tripleoscillator" />
        </instrumenttrack>
        <pattern pos="215040" muted="0" steps="16" name="" type="1">
          <note key="60" pos="1152" pan="0" len="384" vol="2" />
        </pattern>
      </track>
      <track solo="0" name="10 (Ch11)" type="0" muted="0">
        <instrumenttrack usemasterpitch="1" pitch="0.0" basenote="57" pan="0" pitchrange="12" vol="30">
          <eldata />
          <instrument name="tripleoscillator" />
        </instrumenttrack>
        <pattern pos="23808" muted="0" steps="16" name="" type="1">
          <note key="60" pos="672" pan="0" len="48" vol="100" />
        </pattern>
        <pattern pos="22272" muted="0" steps="16" name="" type="1">
          <note key="60" pos="672" pan="0" len="48" vol="100" />
        </pattern>
      </track>
      <track solo="0" name="11 (Ch2)" type="0" muted="0">
        <instrumenttrack usemasterpitch="1" pitch="0.0" basenote="57" pan="0" pitchrange="12" vol="30">
          <eldata />
          <instrument name="tripleoscillator" />
        </instrumenttrack>
        <pattern pos="269232" muted="0" steps="16" name="" type="1">
          <note key="57" pos="0" pan="0" len="192" vol="100" />
          <note key="59" pos="192" pan="0" len="576" vol="100" />
        </pattern>
      </track>
      <track solo="0" name="11 (Ch3)" type="0" muted="0">
        <instrumenttrack usemasterpitch="1" pitch="0.0" basenote="57" pan="0" pitchrange="12" vol="30">
          <eldata />
          <instrument name="tripleoscillator" />
        </instrumenttrack>
        <pattern pos="269232" muted="0" steps="16" name="" type="1">
          <note key="60" pos="0" pan="0" len="192" vol="100" />
          <note key="64" pos="192" pan="0" len="576" vol="100" />
        </pattern>
        <pattern pos="139008" muted="0" steps="16" name="" type="1">
          <note key="60" pos="48" pan="0" len="192" vol="34" />
          <note key="58" pos="240" pan="0" len="96" vol="34" />
          <note key="57" pos="336" pan="0" len="96" vol="34" />
          <note key="58" pos="432" pan="0" len="192" vol="34" />
          <note key="58" pos="624" pan="0" len="96" vol="34" />
          <note key="57" pos="720" pan="0" len="48" vol="34" />
        </pattern>
        <pattern pos="139776" muted="0" steps="16" name="" type="1">
          <note key="60" pos="48" pan="0" len="192" vol="59" />
          <note key="58" pos="240" pan="0" len="96" vol="59" />
          <note key="57" pos="336" pan="0" len="96" vol="59" />
          <note key="58" pos="432" pan="0" len="192" vol="59" />
          <note key="58" pos="624" pan="0" len="144" vol="59" />
          <note key="57" pos="768" pan="0" len="768" vol="59" />
        </pattern>
        <pattern pos="162816" muted="0" steps="16" name="" type="1">
          <note key="55" pos="0" pan="0" len="192" vol="66" />
          <note key="53" pos="192" pan="0" len="192" vol="66" />
          <note key="53" pos="384" pan="0" len="264" vol="66" />
          <note key="53" pos="648" pan="0" len="120" vol="66" />
          <note key="55" pos="768" pan="0" len="192" vol="66" />
          <note key="53" pos="960" pan="0" len="192" vol="66" />
          <note key="53" pos="1152" pan="0" len="264" vol="66" />
          <note key="53" pos="1416" pan="0" len="120" vol="66" />
        </pattern>
        <pattern pos="164352" muted="0" steps="16" name="" type="1">
          <note key="55" pos="0" pan="0" len="192" vol="69" />
          <note key="53" pos="192" pan="0" len="192" vol="69" />
          <note key="53" pos="384" pan="0" len="264" vol="69" />
          <note key="53" pos="648" pan="0" len="120" vol="69" />
          <note key="55" pos="768" pan="0" len="192" vol="66" />
          <note key="53" pos="960" pan="0" len="192" vol="66" />
          <note key="53" pos="1152" pan="0" len="264" vol="66" />
          <note key="53" pos="1416" pan="0" len="120" vol="66" />
        </pattern>
        <pattern pos="165888" muted="0" steps="16" name="" type="1">
          <note key="60" pos="0" pan="0" len="192" vol="70" />
          <note key="53" pos="192" pan="0" len="192" vol="70" />
          <note key="51" pos="384" pan="0" len="192" vol="70" />
          <note key="51" pos="576" pan="0" len="192" vol="70" />
          <note key="55" pos="768" pan="0" len="192" vol="70" />
          <note key="53" pos="960" pan="0" len="192" vol="70" />
          <note key="51" pos="1152" pan="0" len="192" vol="70" />
          <note key="51" pos="1344" pan="0" len="192" vol="70" />
        </pattern>
        <pattern pos="167424" muted="0" steps="16" name="" type="1">
          <note key="60" pos="0" pan="0" len="192" vol="70" />
          <note key="53" pos="192" pan="0" len="192" vol="70" />
          <note key="51" pos="384" pan="0" len="192" vol="70" />
          <note key="51" pos="576" pan="0" len="192" vol="70" />
          <note key="55" pos="768" pan="0" len="192" vol="70" />
          <note key="53" pos="960" pan="0" len="192" vol="70" />
          <note key="51" pos="1152" pan="0" len="192" vol="70" />
          <note key="65" pos="1344" pan="0" len="192" vol="70" />
        </pattern>
        <pattern pos="168960" muted="0" steps="16" name="" type="1">
          <note key="55" pos="0" pan="0" len="192" vol="66" />
          <note key="53" pos="192" pan="0" len="192" vol="66" />
          <note key="53" pos="384" pan="0" len="264" vol="66" />
          <note key="53" pos="648" pan="0" len="120" vol="66" />
          <note key="55" pos="768" pan="0" len="192" vol="66" />
          <note key="53" pos="960" pan="0" len="192" vol="66" />
          <note key="53" pos="1152" pan="0" len="264" vol="66" />
          <note key="53" pos="1416" pan="0" len="120" vol="66" />
        </pattern>
        <pattern pos="170496" muted="0" steps="16" name="" type="1">
          <note key="55" pos="0" pan="0" len="192" vol="69" />
          <note key="53" pos="192" pan="0" len="192" vol="69" />
          <note key="53" pos="384" pan="0" len="264" vol="69" />
          <note key="53" pos="648" pan="0" len="120" vol="69" />
          <note key="55" pos="768" pan="0" len="192" vol="66" />
          <note key="53" pos="960" pan="0" len="192" vol="66" />
          <note key="53" pos="1152" pan="0" len="264" vol="66" />
          <note key="53" pos="1416" pan="0" len="120" vol="66" />
        </pattern>
        <pattern pos="172032" muted="0" steps="16" name="" type="1">
          <note key="60" pos="0" pan="0" len="192" vol="70" />
          <note key="53" pos="192" pan="0" len="192" vol="70" />
          <note key="51" pos="384" pan="0" len="192" vol="70" />
          <note key="51" pos="576" pan="0" len="192" vol="70" />
          <note key="55" pos="768" pan="0" len="192" vol="70" />
          <note key="53" pos="960" pan="0" len="192" vol="70" />
          <note key="51" pos="1152" pan="0" len="192" vol="70" />
          <note key="51" pos="1344" pan="0" len="192" vol="70" />
        </pattern>
        <pattern pos="173568" muted="0" steps="16" name="" type="1">
          <note key="60" pos="0" pan="0" len="192" vol="70" />
          <note key="53" pos="192" pan="0" len="192" vol="70" />
          <note key="51" pos="384" pan="0" len="192" vol="70" />
          <note key="51" pos="576" pan="0" len="192" vol="70" />
          <note key="55" pos="768" pan="0" len="192" vol="70" />
          <note key="53" pos="960" pan="0" len="192" vol="70" />
          <note key="51" pos="1152" pan="0" len="192" vol="70" />
          <note key="65" pos="1344" pan="0" len="192" vol="70" />
        </pattern>
        <pattern pos="175104" muted="0" steps="16" name="" type="1">
          <note key="55" pos="0" pan="0" len="1536" vol="69" />
        </pattern>
        <pattern pos="259200" muted="0" steps="16" name="" type="1">
          <note key="65" pos="0" pan="0" len="192" vol="34" />
          <note key="63" pos="192" pan="0" len="96" vol="34" />
          <note key="62" pos="288" pan="0" len="96" vol="34" />
          <note key="63" pos="384" pan="0" len="192" vol="34" />
          <note key="63" pos="576" pan="0" len="192" vol="34" />
        </pattern>
      </track>
      <track solo="0" name="11 (Ch4)" type="0" muted="0">
        <instrumenttrack usemasterpitch="1" pitch="0.0" basenote="57" pan="0" pitchrange="12" vol="30">
          <eldata />
          <instrument name="tripleoscillator" />
        </instrumenttrack>
        <pattern pos="269232" muted="0" steps="16" name="" type="1">
          <note key="67" pos="0" pan="0" len="96" vol="100" />
          <note key="69" pos="96" pan="0" len="96" vol="100" />
          <note key="67" pos="192" pan="0" len="96" vol="100" />
          <note key="69" pos="288" pan="0" len="480" vol="100" />
        </pattern>
        <pattern pos="139008" muted="0" steps="16" name="" type="1">
          <note key="63" pos="48" pan="0" len="192" vol="34" />
          <note key="63" pos="240" pan="0" len="192" vol="34" />
          <note key="63" pos="432" pan="0" len="192" vol="34" />
          <note key="60" pos="624" pan="0" len="144" vol="34" />
        </pattern>
        <pattern pos="139776" muted="0" steps="16" name="" type="1">
          <note key="63" pos="48" pan="0" len="192" vol="59" />
          <note key="63" pos="240" pan="0" len="192" vol="59" />
          <note key="63" pos="432" pan="0" len="192" vol="59" />
          <note key="60" pos="624" pan="0" len="912" vol="59" />
        </pattern>
        <pattern pos="162816" muted="0" steps="16" name="" type="1">
          <note key="60" pos="0" pan="0" len="192" vol="66" />
          <note key="58" pos="192" pan="0" len="192" vol="66" />
          <note key="56" pos="384" pan="0" len="264" vol="66" />
          <note key="58" pos="648" pan="0" len="120" vol="66" />
          <note key="60" pos="768" pan="0" len="192" vol="66" />
          <note key="58" pos="960" pan="0" len="192" vol="66" />
          <note key="56" pos="1152" pan="0" len="264" vol="66" />
          <note key="58" pos="1416" pan="0" len="120" vol="66" />
        </pattern>
        <pattern pos="164352" muted="0" steps="16" name="" type="1">
          <note key="60" pos="0" pan="0" len="192" vol="69" />
          <note key="58" pos="192" pan="0" len="192" vol="69" />
          <note key="56" pos="384" pan="0" len="264" vol="69" />
          <note key="58" pos="648" pan="0" len="120" vol="69" />
          <note key="60" pos="768" pan="0" len="192" vol="66" />
          <note key="58" pos="960" pan="0" len="192" vol="66" />
          <note key="56" pos="1152" pan="0" len="264" vol="66" />
          <note key="58" pos="1416" pan="0" len="120" vol="66" />
        </pattern>
        <pattern pos="165888" muted="0" steps="16" name="" type="1">
          <note key="63" pos="0" pan="0" len="192" vol="70" />
          <note key="58" pos="192" pan="0" len="192" vol="70" />
          <note key="56" pos="384" pan="0" len="192" vol="70" />
          <note key="55" pos="576" pan="0" len="192" vol="70" />
          <note key="60" pos="768" pan="0" len="192" vol="70" />
          <note key="58" pos="960" pan="0" len="192" vol="70" />
          <note key="56" pos="1152" pan="0" len="192" vol="70" />
          <note key="55" pos="1344" pan="0" len="192" vol="70" />
        </pattern>
        <pattern pos="167424" muted="0" steps="16" name="" type="1">
          <note key="63" pos="0" pan="0" len="192" vol="70" />
          <note key="58" pos="192" pan="0" len="192" vol="70" />
          <note key="56" pos="384" pan="0" len="192" vol="70" />
          <note key="55" pos="576" pan="0" len="192" vol="70" />
          <note key="60" pos="768" pan="0" len="192" vol="70" />
          <note key="58" pos="960" pan="0" len="192" vol="70" />
          <note key="56" pos="1152" pan="0" len="192" vol="70" />
          <note key="62" pos="1344" pan="0" len="192" vol="70" />
        </pattern>
        <pattern pos="168960" muted="0" steps="16" name="" type="1">
          <note key="60" pos="0" pan="0" len="192" vol="66" />
          <note key="58" pos="192" pan="0" len="192" vol="66" />
          <note key="56" pos="384" pan="0" len="264" vol="66" />
          <note key="58" pos="648" pan="0" len="120" vol="66" />
          <note key="60" pos="768" pan="0" len="192" vol="66" />
          <note key="58" pos="960" pan="0" len="192" vol="66" />
          <note key="56" pos="1152" pan="0" len="264" vol="66" />
          <note key="58" pos="1416" pan="0" len="120" vol="66" />
        </pattern>
        <pattern pos="170496" muted="0" steps="16" name="" type="1">
          <note key="60" pos="0" pan="0" len="192" vol="69" />
          <note key="58" pos="192" pan="0" len="192" vol="69" />
          <note key="56" pos="384" pan="0" len="264" vol="69" />
          <note key="58" pos="648" pan="0" len="120" vol="69" />
          <note key="60" pos="768" pan="0" len="192" vol="66" />
          <note key="58" pos="960" pan="0" len="192" vol="66" />
          <note key="56" pos="1152" pan="0" len="264" vol="66" />
          <note key="58" pos="1416" pan="0" len="120" vol="66" />
        </pattern>
        <pattern pos="172032" muted="0" steps="16" name="" type="1">
          <note key="63" pos="0" pan="0" len="192" vol="70" />
          <note key="58" pos="192" pan="0" len="192" vol="70" />
          <note key="56" pos="384" pan="0" len="192" vol="70" />
          <note key="55" pos="576" pan="0" len="192" vol="70" />
          <note key="60" pos="768" pan="0" len="192" vol="70" />
          <note key="58" pos="960" pan="0" len="192" vol="70" />
          <note key="56" pos="1152" pan="0" len="192" vol="70" />
          <note key="55" pos="1344" pan="0" len="192" vol="70" />
        </pattern>
        <pattern pos="173568" muted="0" steps="16" name="" type="1">
          <note key="63" pos="0" pan="0" len="192" vol="70" />
          <note key="58" pos="192" pan="0" len="192" vol="70" />
          <note key="56" pos="384" pan="0" len="192" vol="70" />
          <note key="55" pos="576" pan="0" len="192" vol="70" />
          <note key="60" pos="768" pan="0" len="192" vol="70" />
          <note key="58" pos="960" pan="0" len="192" vol="70" />
          <note key="56" pos="1152" pan="0" len="192" vol="70" />
          <note key="62" pos="1344" pan="0" len="192" vol="70" />
        </pattern>
        <pattern pos="175104" muted="0" steps="16" name="" type="1">
          <note key="60" pos="0" pan="0" len="1536" vol="69" />
        </pattern>
        <pattern pos="185856" muted="0" steps="16" name="" type="1">
          <note key="64" pos="0" pan="0" len="384" vol="28" />
          <note key="64" pos="384" pan="0" len="384" vol="28" />
          <note key="64" pos="768" pan="0" len="384" vol="28" />
          <note key="64" pos="1152" pan="0" len="384" vol="28" />
        </pattern>
        <pattern pos="187392" muted="0" steps="16" name="" type="1">
          <note key="64" pos="0" pan="0" len="384" vol="28" />
          <note key="64" pos="384" pan="0" len="384" vol="28" />
          <note key="64" pos="768" pan="0" len="384" vol="28" />
          <note key="64" pos="1152" pan="0" len="192" vol="28" />
          <note key="61" pos="1344" pan="0" len="96" vol="28" />
        </pattern>
        <pattern pos="190464" muted="0" steps="16" name="" type="1">
          <note key="64" pos="0" pan="0" len="384" vol="28" />
          <note key="64" pos="384" pan="0" len="384" vol="28" />
          <note key="64" pos="768" pan="0" len="384" vol="28" />
          <note key="64" pos="1152" pan="0" len="384" vol="28" />
        </pattern>
        <pattern pos="192000" muted="0" steps="16" name="" type="1">
          <note key="64" pos="0" pan="0" len="384" vol="28" />
          <note key="64" pos="384" pan="0" len="384" vol="28" />
          <note key="64" pos="768" pan="0" len="384" vol="28" />
          <note key="64" pos="1152" pan="0" len="192" vol="28" />
          <note key="61" pos="1344" pan="0" len="96" vol="28" />
        </pattern>
        <pattern pos="195072" muted="0" steps="16" name="" type="1">
          <note key="64" pos="0" pan="0" len="384" vol="28" />
          <note key="64" pos="384" pan="0" len="384" vol="28" />
          <note key="64" pos="768" pan="0" len="384" vol="28" />
          <note key="64" pos="1152" pan="0" len="384" vol="28" />
        </pattern>
        <pattern pos="196608" muted="0" steps="16" name="" type="1">
          <note key="64" pos="0" pan="0" len="384" vol="28" />
          <note key="64" pos="384" pan="0" len="384" vol="28" />
          <note key="64" pos="768" pan="0" len="768" vol="28" />
        </pattern>
        <pattern pos="259200" muted="0" steps="16" name="" type="1">
          <note key="68" pos="0" pan="0" len="192" vol="34" />
          <note key="68" pos="192" pan="0" len="192" vol="34" />
          <note key="68" pos="384" pan="0" len="192" vol="34" />
          <note key="65" pos="576" pan="0" len="192" vol="34" />
        </pattern>
      </track>
      <track solo="0" name="11 (Ch5)" type="0" muted="0">
        <instrumenttrack usemasterpitch="1" pitch="0.0" basenote="57" pan="0" pitchrange="12" vol="30">
          <eldata />
          <instrument name="tripleoscillator" />
        </instrumenttrack>
        <pattern pos="269232" muted="0" steps="16" name="" type="1">
          <note key="59" pos="0" pan="0" len="96" vol="100" />
          <note key="64" pos="96" pan="0" len="96" vol="100" />
          <note key="57" pos="192" pan="0" len="96" vol="100" />
          <note key="60" pos="288" pan="0" len="480" vol="100" />
        </pattern>
        <pattern pos="3840" muted="0" steps="16" name="" type="1">
          <note key="60" pos="0" pan="0" len="384" vol="100" />
          <note key="60" pos="384" pan="0" len="192" vol="100" />
          <note key="60" pos="576" pan="0" len="192" vol="100" />
          <note key="60" pos="768" pan="0" len="384" vol="100" />
          <note key="60" pos="1152" pan="0" len="192" vol="100" />
          <note key="60" pos="1344" pan="0" len="192" vol="100" />
        </pattern>
        <pattern pos="5376" muted="0" steps="16" name="" type="1">
          <note key="66" pos="0" pan="0" len="192" vol="36" />
          <note key="59" pos="192" pan="0" len="192" vol="36" />
          <note key="64" pos="384" pan="0" len="192" vol="36" />
          <note key="62" pos="576" pan="0" len="192" vol="36" />
        </pattern>
        <pattern pos="6144" muted="0" steps="16" name="" type="1">
          <note key="66" pos="0" pan="0" len="192" vol="36" />
          <note key="59" pos="192" pan="0" len="192" vol="36" />
          <note key="64" pos="384" pan="0" len="192" vol="36" />
          <note key="62" pos="576" pan="0" len="192" vol="36" />
        </pattern>
        <pattern pos="6912" muted="0" steps="16" name="" type="1">
          <note key="65" pos="192" pan="0" len="156" vol="2" />
          <note key="60" pos="576" pan="0" len="96" vol="50" />
        </pattern>
        <pattern pos="7680" muted="0" steps="16" name="" type="1">
          <note key="65" pos="192" pan="0" len="156" vol="2" />
          <note key="60" pos="576" pan="0" len="96" vol="50" />
        </pattern>
        <pattern pos="53760" muted="0" steps="16" name="" type="1">
          <note key="70" pos="768" pan="0" len="96" vol="34" />
          <note key="69" pos="960" pan="0" len="96" vol="23" />
          <note key="65" pos="1344" pan="0" len="96" vol="23" />
        </pattern>
        <pattern pos="55296" muted="0" steps="16" name="" type="1">
          <note key="65" pos="96" pan="0" len="192" vol="34" />
          <note key="67" pos="864" pan="0" len="96" vol="34" />
        </pattern>
        <pattern pos="139008" muted="0" steps="16" name="" type="1">
          <note key="67" pos="48" pan="0" len="192" vol="34" />
          <note key="65" pos="240" pan="0" len="192" vol="34" />
          <note key="67" pos="432" pan="0" len="192" vol="34" />
          <note key="65" pos="624" pan="0" len="144" vol="34" />
        </pattern>
        <pattern pos="139776" muted="0" steps="16" name="" type="1">
          <note key="67" pos="48" pan="0" len="192" vol="59" />
          <note key="65" pos="240" pan="0" len="192" vol="59" />
          <note key="67" pos="432" pan="0" len="192" vol="59" />
          <note key="65" pos="624" pan="0" len="912" vol="59" />
        </pattern>
        <pattern pos="162816" muted="0" steps="16" name="" type="1">
          <note key="63" pos="0" pan="0" len="192" vol="66" />
          <note key="62" pos="192" pan="0" len="192" vol="66" />
          <note key="60" pos="384" pan="0" len="264" vol="66" />
          <note key="62" pos="648" pan="0" len="120" vol="66" />
          <note key="63" pos="768" pan="0" len="192" vol="66" />
          <note key="62" pos="960" pan="0" len="192" vol="66" />
          <note key="60" pos="1152" pan="0" len="264" vol="66" />
          <note key="62" pos="1416" pan="0" len="120" vol="66" />
        </pattern>
        <pattern pos="164352" muted="0" steps="16" name="" type="1">
          <note key="63" pos="0" pan="0" len="192" vol="69" />
          <note key="62" pos="192" pan="0" len="192" vol="69" />
          <note key="60" pos="384" pan="0" len="264" vol="69" />
          <note key="62" pos="648" pan="0" len="120" vol="69" />
          <note key="63" pos="768" pan="0" len="192" vol="66" />
          <note key="62" pos="960" pan="0" len="192" vol="66" />
          <note key="60" pos="1152" pan="0" len="264" vol="66" />
          <note key="62" pos="1416" pan="0" len="120" vol="66" />
        </pattern>
        <pattern pos="165888" muted="0" steps="16" name="" type="1">
          <note key="67" pos="0" pan="0" len="192" vol="70" />
          <note key="62" pos="192" pan="0" len="192" vol="70" />
          <note key="60" pos="384" pan="0" len="192" vol="70" />
          <note key="58" pos="576" pan="0" len="192" vol="70" />
          <note key="63" pos="768" pan="0" len="192" vol="70" />
          <note key="62" pos="960" pan="0" len="192" vol="70" />
          <note key="60" pos="1152" pan="0" len="192" vol="70" />
          <note key="58" pos="1344" pan="0" len="192" vol="70" />
        </pattern>
        <pattern pos="167424" muted="0" steps="16" name="" type="1">
          <note key="67" pos="0" pan="0" len="192" vol="70" />
          <note key="62" pos="192" pan="0" len="192" vol="70" />
          <note key="60" pos="384" pan="0" len="192" vol="70" />
          <note key="58" pos="576" pan="0" len="192" vol="70" />
          <note key="63" pos="768" pan="0" len="192" vol="70" />
          <note key="62" pos="960" pan="0" len="192" vol="70" />
          <note key="60" pos="1152" pan="0" len="192" vol="70" />
          <note key="58" pos="1344" pan="0" len="192" vol="70" />
        </pattern>
        <pattern pos="168960" muted="0" steps="16" name="" type="1">
          <note key="63" pos="0" pan="0" len="192" vol="66" />
          <note key="62" pos="192" pan="0" len="192" vol="66" />
          <note key="60" pos="384" pan="0" len="264" vol="66" />
          <note key="62" pos="648" pan="0" len="120" vol="66" />
          <note key="63" pos="768" pan="0" len="192" vol="66" />
          <note key="62" pos="960" pan="0" len="192" vol="66" />
          <note key="60" pos="1152" pan="0" len="264" vol="66" />
          <note key="62" pos="1416" pan="0" len="120" vol="66" />
        </pattern>
        <pattern pos="170496" muted="0" steps="16" name="" type="1">
          <note key="63" pos="0" pan="0" len="192" vol="69" />
          <note key="62" pos="192" pan="0" len="192" vol="69" />
          <note key="60" pos="384" pan="0" len="264" vol="69" />
          <note key="62" pos="648" pan="0" len="120" vol="69" />
          <note key="63" pos="768" pan="0" len="192" vol="66" />
          <note key="62" pos="960" pan="0" len="192" vol="66" />
          <note key="60" pos="1152" pan="0" len="264" vol="66" />
          <note key="62" pos="1416" pan="0" len="120" vol="66" />
        </pattern>
        <pattern pos="172032" muted="0" steps="16" name="" type="1">
          <note key="67" pos="0" pan="0" len="192" vol="70" />
          <note key="62" pos="192" pan="0" len="192" vol="70" />
          <note key="60" pos="384" pan="0" len="192" vol="70" />
          <note key="58" pos="576" pan="0" len="192" vol="70" />
          <note key="63" pos="768" pan="0" len="192" vol="70" />
          <note key="62" pos="960" pan="0" len="192" vol="70" />
          <note key="60" pos="1152" pan="0" len="192" vol="70" />
          <note key="58" pos="1344" pan="0" len="192" vol="70" />
        </pattern>
        <pattern pos="173568" muted="0" steps="16" name="" type="1">
          <note key="67" pos="0" pan="0" len="192" vol="70" />
          <note key="62" pos="192" pan="0" len="192" vol="70" />
          <note key="60" pos="384" pan="0" len="192" vol="70" />
          <note key="58" pos="576" pan="0" len="192" vol="70" />
          <note key="63" pos="768" pan="0" len="192" vol="70" />
          <note key="62" pos="960" pan="0" len="192" vol="70" />
          <note key="60" pos="1152" pan="0" len="192" vol="70" />
          <note key="58" pos="1344" pan="0" len="192" vol="70" />
        </pattern>
        <pattern pos="175104" muted="0" steps="16" name="" type="1">
          <note key="63" pos="0" pan="0" len="1536" vol="69" />
        </pattern>
        <pattern pos="176640" muted="0" steps="16" name="" type="1">
          <note key="64" pos="0" pan="0" len="144" vol="28" />
          <note key="60" pos="144" pan="0" len="144" vol="28" />
          <note key="64" pos="288" pan="0" len="144" vol="28" />
          <note key="60" pos="432" pan="0" len="144" vol="28" />
          <note key="64" pos="576" pan="0" len="144" vol="28" />
          <note key="60" pos="720" pan="0" len="144" vol="28" />
          <note key="64" pos="864" pan="0" len="144" vol="28" />
          <note key="60" pos="1008" pan="0" len="144" vol="28" />
        </pattern>
        <pattern pos="177792" muted="0" steps="16" name="" type="1">
          <note key="64" pos="0" pan="0" len="144" vol="28" />
          <note key="60" pos="144" pan="0" len="144" vol="28" />
          <note key="64" pos="288" pan="0" len="144" vol="28" />
          <note key="60" pos="432" pan="0" len="144" vol="28" />
          <note key="64" pos="576" pan="0" len="144" vol="28" />
          <note key="60" pos="720" pan="0" len="144" vol="28" />
          <note key="64" pos="864" pan="0" len="288" vol="28" />
        </pattern>
        <pattern pos="178944" muted="0" steps="16" name="" type="1">
          <note key="64" pos="0" pan="0" len="144" vol="28" />
          <note key="60" pos="144" pan="0" len="144" vol="28" />
          <note key="64" pos="288" pan="0" len="144" vol="28" />
          <note key="60" pos="432" pan="0" len="144" vol="28" />
          <note key="64" pos="576" pan="0" len="144" vol="28" />
          <note key="60" pos="720" pan="0" len="144" vol="28" />
          <note key="64" pos="864" pan="0" len="144" vol="28" />
          <note key="60" pos="1008" pan="0" len="144" vol="28" />
        </pattern>
        <pattern pos="180096" muted="0" steps="16" name="" type="1">
          <note key="64" pos="0" pan="0" len="144" vol="28" />
          <note key="60" pos="144" pan="0" len="144" vol="28" />
          <note key="64" pos="288" pan="0" len="144" vol="28" />
          <note key="60" pos="432" pan="0" len="144" vol="28" />
          <note key="64" pos="576" pan="0" len="144" vol="28" />
          <note key="60" pos="720" pan="0" len="144" vol="28" />
          <note key="64" pos="864" pan="0" len="288" vol="28" />
        </pattern>
        <pattern pos="181248" muted="0" steps="16" name="" type="1">
          <note key="64" pos="0" pan="0" len="144" vol="28" />
          <note key="59" pos="144" pan="0" len="144" vol="28" />
          <note key="59" pos="288" pan="0" len="144" vol="28" />
          <note key="57" pos="432" pan="0" len="144" vol="28" />
          <note key="56" pos="576" pan="0" len="144" vol="28" />
          <note key="59" pos="720" pan="0" len="144" vol="28" />
          <note key="60" pos="864" pan="0" len="144" vol="28" />
          <note key="55" pos="1008" pan="0" len="108" vol="28" />
        </pattern>
        <pattern pos="182400" muted="0" steps="16" name="" type="1">
          <note key="64" pos="0" pan="0" len="144" vol="41" />
          <note key="59" pos="144" pan="0" len="144" vol="41" />
          <note key="59" pos="288" pan="0" len="144" vol="41" />
          <note key="57" pos="432" pan="0" len="144" vol="41" />
          <note key="56" pos="576" pan="0" len="144" vol="41" />
          <note key="59" pos="720" pan="0" len="144" vol="41" />
          <note key="60" pos="864" pan="0" len="144" vol="41" />
          <note key="59" pos="1008" pan="0" len="144" vol="41" />
        </pattern>
        <pattern pos="183552" muted="0" steps="16" name="" type="1">
          <note key="64" pos="0" pan="0" len="144" vol="28" />
          <note key="60" pos="144" pan="0" len="144" vol="28" />
          <note key="64" pos="288" pan="0" len="144" vol="28" />
          <note key="60" pos="432" pan="0" len="144" vol="28" />
          <note key="64" pos="576" pan="0" len="144" vol="28" />
          <note key="60" pos="720" pan="0" len="144" vol="28" />
          <note key="64" pos="864" pan="0" len="144" vol="28" />
          <note key="60" pos="1008" pan="0" len="144" vol="28" />
        </pattern>
        <pattern pos="184704" muted="0" steps="16" name="" type="1">
          <note key="64" pos="0" pan="0" len="144" vol="28" />
          <note key="60" pos="144" pan="0" len="144" vol="28" />
          <note key="64" pos="288" pan="0" len="144" vol="28" />
          <note key="60" pos="432" pan="0" len="144" vol="28" />
          <note key="64" pos="576" pan="0" len="144" vol="28" />
          <note key="60" pos="720" pan="0" len="144" vol="28" />
          <note key="64" pos="864" pan="0" len="252" vol="41" />
        </pattern>
        <pattern pos="185856" muted="0" steps="16" name="" type="1">
          <note key="68" pos="0" pan="0" len="384" vol="28" />
          <note key="68" pos="384" pan="0" len="384" vol="28" />
          <note key="68" pos="768" pan="0" len="384" vol="28" />
          <note key="68" pos="1152" pan="0" len="384" vol="28" />
        </pattern>
        <pattern pos="187392" muted="0" steps="16" name="" type="1">
          <note key="68" pos="0" pan="0" len="384" vol="28" />
          <note key="68" pos="384" pan="0" len="384" vol="28" />
          <note key="68" pos="768" pan="0" len="384" vol="28" />
          <note key="68" pos="1152" pan="0" len="192" vol="28" />
          <note key="68" pos="1344" pan="0" len="96" vol="28" />
        </pattern>
        <pattern pos="190464" muted="0" steps="16" name="" type="1">
          <note key="68" pos="0" pan="0" len="384" vol="28" />
          <note key="68" pos="384" pan="0" len="384" vol="28" />
          <note key="68" pos="768" pan="0" len="384" vol="28" />
          <note key="68" pos="1152" pan="0" len="384" vol="28" />
        </pattern>
        <pattern pos="192000" muted="0" steps="16" name="" type="1">
          <note key="68" pos="0" pan="0" len="384" vol="28" />
          <note key="68" pos="384" pan="0" len="384" vol="28" />
          <note key="68" pos="768" pan="0" len="384" vol="28" />
          <note key="68" pos="1152" pan="0" len="192" vol="28" />
          <note key="68" pos="1344" pan="0" len="96" vol="28" />
        </pattern>
        <pattern pos="195072" muted="0" steps="16" name="" type="1">
          <note key="68" pos="0" pan="0" len="384" vol="28" />
          <note key="68" pos="384" pan="0" len="384" vol="28" />
          <note key="68" pos="768" pan="0" len="384" vol="28" />
          <note key="68" pos="1152" pan="0" len="384" vol="28" />
        </pattern>
        <pattern pos="196608" muted="0" steps="16" name="" type="1">
          <note key="68" pos="0" pan="0" len="384" vol="28" />
          <note key="68" pos="384" pan="0" len="384" vol="28" />
          <note key="68" pos="768" pan="0" len="768" vol="28" />
        </pattern>
        <pattern pos="236928" muted="0" steps="16" name="" type="1">
          <note key="74" pos="0" pan="0" len="96" vol="100" />
          <note key="81" pos="96" pan="0" len="48" vol="100" />
          <note key="77" pos="144" pan="0" len="96" vol="100" />
          <note key="79" pos="240" pan="0" len="48" vol="100" />
          <note key="74" pos="288" pan="0" len="144" vol="100" />
          <note key="77" pos="432" pan="0" len="48" vol="100" />
        </pattern>
        <pattern pos="259200" muted="0" steps="16" name="" type="1">
          <note key="72" pos="0" pan="0" len="192" vol="34" />
          <note key="70" pos="192" pan="0" len="192" vol="34" />
          <note key="72" pos="384" pan="0" len="192" vol="34" />
          <note key="70" pos="576" pan="0" len="192" vol="34" />
        </pattern>
      </track>
      <track solo="0" name="11 (Ch6)" type="0" muted="0">
        <instrumenttrack usemasterpitch="1" pitch="0.0" basenote="57" pan="0" pitchrange="12" vol="30">
          <eldata />
          <instrument name="tripleoscillator" />
        </instrumenttrack>
        <pattern pos="236928" muted="0" steps="16" name="" type="1">
          <note key="67" pos="0" pan="0" len="96" vol="100" />
          <note key="76" pos="96" pan="0" len="48" vol="100" />
          <note key="72" pos="144" pan="0" len="96" vol="100" />
          <note key="74" pos="240" pan="0" len="48" vol="100" />
          <note key="67" pos="288" pan="0" len="144" vol="100" />
          <note key="72" pos="432" pan="0" len="48" vol="100" />
        </pattern>
        <pattern pos="3840" muted="0" steps="16" name="" type="1">
          <note key="64" pos="0" pan="0" len="384" vol="100" />
          <note key="65" pos="384" pan="0" len="192" vol="100" />
          <note key="70" pos="576" pan="0" len="192" vol="100" />
          <note key="64" pos="768" pan="0" len="384" vol="100" />
          <note key="65" pos="1152" pan="0" len="192" vol="100" />
          <note key="70" pos="1344" pan="0" len="192" vol="100" />
        </pattern>
        <pattern pos="5376" muted="0" steps="16" name="" type="1">
          <note key="69" pos="0" pan="0" len="192" vol="36" />
          <note key="62" pos="192" pan="0" len="192" vol="36" />
          <note key="69" pos="384" pan="0" len="192" vol="36" />
          <note key="67" pos="576" pan="0" len="192" vol="36" />
        </pattern>
        <pattern pos="6144" muted="0" steps="16" name="" type="1">
          <note key="69" pos="0" pan="0" len="192" vol="36" />
          <note key="62" pos="192" pan="0" len="192" vol="36" />
          <note key="69" pos="384" pan="0" len="192" vol="36" />
          <note key="67" pos="576" pan="0" len="192" vol="36" />
        </pattern>
        <pattern pos="6912" muted="0" steps="16" name="" type="1">
          <note key="67" pos="192" pan="0" len="156" vol="2" />
          <note key="65" pos="576" pan="0" len="96" vol="50" />
        </pattern>
        <pattern pos="7680" muted="0" steps="16" name="" type="1">
          <note key="67" pos="192" pan="0" len="156" vol="2" />
          <note key="65" pos="576" pan="0" len="96" vol="50" />
        </pattern>
        <pattern pos="41088" muted="0" steps="16" name="" type="1">
          <note key="63" pos="96" pan="0" len="192" vol="50" />
          <note key="60" pos="384" pan="0" len="192" vol="50" />
          <note key="63" pos="672" pan="0" len="192" vol="50" />
          <note key="60" pos="960" pan="0" len="192" vol="50" />
        </pattern>
        <pattern pos="42240" muted="0" steps="16" name="" type="1">
          <note key="63" pos="96" pan="0" len="192" vol="50" />
          <note key="60" pos="384" pan="0" len="192" vol="50" />
          <note key="63" pos="672" pan="0" len="192" vol="50" />
          <note key="60" pos="960" pan="0" len="192" vol="50" />
        </pattern>
        <pattern pos="43392" muted="0" steps="16" name="" type="1">
          <note key="63" pos="96" pan="0" len="192" vol="50" />
          <note key="60" pos="384" pan="0" len="192" vol="50" />
          <note key="63" pos="672" pan="0" len="192" vol="50" />
          <note key="60" pos="960" pan="0" len="192" vol="50" />
        </pattern>
        <pattern pos="44544" muted="0" steps="16" name="" type="1">
          <note key="63" pos="96" pan="0" len="192" vol="69" />
          <note key="63" pos="384" pan="0" len="192" vol="69" />
          <note key="63" pos="672" pan="0" len="192" vol="69" />
          <note key="63" pos="960" pan="0" len="192" vol="69" />
        </pattern>
        <pattern pos="45696" muted="0" steps="16" name="" type="1">
          <note key="63" pos="96" pan="0" len="192" vol="100" />
          <note key="60" pos="384" pan="0" len="192" vol="100" />
          <note key="60" pos="672" pan="0" len="192" vol="100" />
          <note key="60" pos="960" pan="0" len="192" vol="100" />
        </pattern>
        <pattern pos="46848" muted="0" steps="16" name="" type="1">
          <note key="63" pos="96" pan="0" len="192" vol="100" />
          <note key="60" pos="384" pan="0" len="192" vol="100" />
          <note key="60" pos="672" pan="0" len="192" vol="100" />
        </pattern>
        <pattern pos="48000" muted="0" steps="16" name="" type="1">
          <note key="63" pos="96" pan="0" len="192" vol="50" />
          <note key="60" pos="384" pan="0" len="192" vol="50" />
          <note key="63" pos="672" pan="0" len="192" vol="50" />
          <note key="60" pos="960" pan="0" len="192" vol="50" />
        </pattern>
        <pattern pos="49152" muted="0" steps="16" name="" type="1">
          <note key="63" pos="96" pan="0" len="192" vol="50" />
          <note key="60" pos="384" pan="0" len="192" vol="50" />
          <note key="63" pos="672" pan="0" len="192" vol="50" />
          <note key="60" pos="960" pan="0" len="192" vol="50" />
        </pattern>
        <pattern pos="50304" muted="0" steps="16" name="" type="1">
          <note key="63" pos="96" pan="0" len="192" vol="69" />
          <note key="63" pos="384" pan="0" len="192" vol="69" />
          <note key="63" pos="672" pan="0" len="192" vol="69" />
          <note key="63" pos="960" pan="0" len="192" vol="69" />
        </pattern>
        <pattern pos="51456" muted="0" steps="16" name="" type="1">
          <note key="63" pos="96" pan="0" len="192" vol="100" />
          <note key="60" pos="384" pan="0" len="192" vol="100" />
          <note key="60" pos="672" pan="0" len="192" vol="100" />
          <note key="60" pos="960" pan="0" len="192" vol="100" />
        </pattern>
        <pattern pos="52608" muted="0" steps="16" name="" type="1">
          <note key="63" pos="96" pan="0" len="192" vol="100" />
          <note key="60" pos="384" pan="0" len="192" vol="100" />
          <note key="60" pos="672" pan="0" len="192" vol="100" />
        </pattern>
        <pattern pos="86784" muted="0" steps="16" name="" type="1">
          <note key="60" pos="0" pan="0" len="192" vol="23" />
          <note key="63" pos="192" pan="0" len="192" vol="23" />
          <note key="60" pos="384" pan="0" len="192" vol="23" />
          <note key="60" pos="576" pan="0" len="192" vol="23" />
        </pattern>
        <pattern pos="88320" muted="0" steps="16" name="" type="1">
          <note key="60" pos="0" pan="0" len="192" vol="23" />
          <note key="63" pos="192" pan="0" len="192" vol="23" />
          <note key="60" pos="384" pan="0" len="192" vol="23" />
          <note key="60" pos="576" pan="0" len="192" vol="23" />
        </pattern>
        <pattern pos="176640" muted="0" steps="16" name="" type="1">
          <note key="67" pos="0" pan="0" len="144" vol="28" />
          <note key="64" pos="144" pan="0" len="144" vol="28" />
          <note key="67" pos="288" pan="0" len="144" vol="28" />
          <note key="64" pos="432" pan="0" len="144" vol="28" />
          <note key="67" pos="576" pan="0" len="144" vol="28" />
          <note key="64" pos="720" pan="0" len="144" vol="28" />
          <note key="67" pos="864" pan="0" len="144" vol="28" />
          <note key="64" pos="1008" pan="0" len="144" vol="28" />
        </pattern>
        <pattern pos="177792" muted="0" steps="16" name="" type="1">
          <note key="67" pos="0" pan="0" len="144" vol="28" />
          <note key="64" pos="144" pan="0" len="144" vol="28" />
          <note key="67" pos="288" pan="0" len="144" vol="28" />
          <note key="64" pos="432" pan="0" len="144" vol="28" />
          <note key="67" pos="576" pan="0" len="144" vol="28" />
          <note key="64" pos="720" pan="0" len="144" vol="28" />
          <note key="67" pos="864" pan="0" len="288" vol="28" />
        </pattern>
        <pattern pos="178944" muted="0" steps="16" name="" type="1">
          <note key="67" pos="0" pan="0" len="144" vol="28" />
          <note key="64" pos="144" pan="0" len="144" vol="28" />
          <note key="67" pos="288" pan="0" len="144" vol="28" />
          <note key="64" pos="432" pan="0" len="144" vol="28" />
          <note key="67" pos="576" pan="0" len="144" vol="28" />
          <note key="64" pos="720" pan="0" len="144" vol="28" />
          <note key="67" pos="864" pan="0" len="144" vol="28" />
          <note key="64" pos="1008" pan="0" len="144" vol="28" />
        </pattern>
        <pattern pos="180096" muted="0" steps="16" name="" type="1">
          <note key="67" pos="0" pan="0" len="144" vol="28" />
          <note key="64" pos="144" pan="0" len="144" vol="28" />
          <note key="67" pos="288" pan="0" len="144" vol="28" />
          <note key="64" pos="432" pan="0" len="144" vol="28" />
          <note key="67" pos="576" pan="0" len="144" vol="28" />
          <note key="64" pos="720" pan="0" len="144" vol="28" />
          <note key="67" pos="864" pan="0" len="288" vol="28" />
        </pattern>
        <pattern pos="181248" muted="0" steps="16" name="" type="1">
          <note key="67" pos="0" pan="0" len="144" vol="28" />
          <note key="64" pos="144" pan="0" len="144" vol="28" />
          <note key="64" pos="288" pan="0" len="144" vol="28" />
          <note key="62" pos="432" pan="0" len="144" vol="28" />
          <note key="59" pos="576" pan="0" len="144" vol="28" />
          <note key="62" pos="720" pan="0" len="144" vol="28" />
          <note key="64" pos="864" pan="0" len="144" vol="28" />
          <note key="59" pos="1008" pan="0" len="108" vol="28" />
        </pattern>
        <pattern pos="182400" muted="0" steps="16" name="" type="1">
          <note key="67" pos="0" pan="0" len="144" vol="41" />
          <note key="64" pos="144" pan="0" len="144" vol="41" />
          <note key="64" pos="288" pan="0" len="144" vol="41" />
          <note key="62" pos="432" pan="0" len="144" vol="41" />
          <note key="59" pos="576" pan="0" len="144" vol="41" />
          <note key="62" pos="720" pan="0" len="144" vol="41" />
          <note key="64" pos="864" pan="0" len="144" vol="41" />
          <note key="62" pos="1008" pan="0" len="144" vol="41" />
        </pattern>
        <pattern pos="183552" muted="0" steps="16" name="" type="1">
          <note key="67" pos="0" pan="0" len="144" vol="28" />
          <note key="64" pos="144" pan="0" len="144" vol="28" />
          <note key="67" pos="288" pan="0" len="144" vol="28" />
          <note key="64" pos="432" pan="0" len="144" vol="28" />
          <note key="67" pos="576" pan="0" len="144" vol="28" />
          <note key="64" pos="720" pan="0" len="144" vol="28" />
          <note key="67" pos="864" pan="0" len="144" vol="28" />
          <note key="64" pos="1008" pan="0" len="144" vol="28" />
        </pattern>
        <pattern pos="184704" muted="0" steps="16" name="" type="1">
          <note key="67" pos="0" pan="0" len="144" vol="28" />
          <note key="64" pos="144" pan="0" len="144" vol="28" />
          <note key="67" pos="288" pan="0" len="144" vol="28" />
          <note key="64" pos="432" pan="0" len="144" vol="28" />
          <note key="67" pos="576" pan="0" len="144" vol="28" />
          <note key="64" pos="720" pan="0" len="144" vol="28" />
          <note key="67" pos="864" pan="0" len="252" vol="41" />
        </pattern>
        <pattern pos="185856" muted="0" steps="16" name="" type="1">
          <note key="71" pos="0" pan="0" len="384" vol="28" />
          <note key="73" pos="384" pan="0" len="288" vol="28" />
          <note key="75" pos="672" pan="0" len="96" vol="28" />
          <note key="71" pos="768" pan="0" len="384" vol="28" />
          <note key="61" pos="1152" pan="0" len="384" vol="28" />
        </pattern>
        <pattern pos="187392" muted="0" steps="16" name="" type="1">
          <note key="71" pos="0" pan="0" len="384" vol="28" />
          <note key="73" pos="384" pan="0" len="288" vol="28" />
          <note key="75" pos="672" pan="0" len="96" vol="28" />
          <note key="71" pos="768" pan="0" len="384" vol="28" />
          <note key="61" pos="1152" pan="0" len="192" vol="28" />
          <note key="71" pos="1344" pan="0" len="96" vol="28" />
        </pattern>
        <pattern pos="190464" muted="0" steps="16" name="" type="1">
          <note key="71" pos="0" pan="0" len="384" vol="28" />
          <note key="73" pos="384" pan="0" len="288" vol="28" />
          <note key="75" pos="672" pan="0" len="96" vol="28" />
          <note key="71" pos="768" pan="0" len="384" vol="28" />
          <note key="61" pos="1152" pan="0" len="384" vol="28" />
        </pattern>
        <pattern pos="192000" muted="0" steps="16" name="" type="1">
          <note key="71" pos="0" pan="0" len="384" vol="28" />
          <note key="73" pos="384" pan="0" len="288" vol="28" />
          <note key="75" pos="672" pan="0" len="96" vol="28" />
          <note key="71" pos="768" pan="0" len="384" vol="28" />
          <note key="61" pos="1152" pan="0" len="192" vol="28" />
          <note key="71" pos="1344" pan="0" len="96" vol="28" />
        </pattern>
        <pattern pos="195072" muted="0" steps="16" name="" type="1">
          <note key="71" pos="0" pan="0" len="384" vol="28" />
          <note key="73" pos="384" pan="0" len="288" vol="28" />
          <note key="75" pos="672" pan="0" len="96" vol="28" />
          <note key="71" pos="768" pan="0" len="384" vol="28" />
          <note key="61" pos="1152" pan="0" len="384" vol="28" />
        </pattern>
        <pattern pos="196608" muted="0" steps="16" name="" type="1">
          <note key="71" pos="0" pan="0" len="384" vol="28" />
          <note key="73" pos="384" pan="0" len="288" vol="28" />
          <note key="75" pos="672" pan="0" len="96" vol="28" />
          <note key="71" pos="768" pan="0" len="768" vol="28" />
        </pattern>
      </track>
      <track solo="0" name="11 (Ch7)" type="0" muted="0">
        <instrumenttrack usemasterpitch="1" pitch="0.0" basenote="57" pan="0" pitchrange="12" vol="30">
          <eldata />
          <instrument name="tripleoscillator" />
        </instrumenttrack>
        <pattern pos="184704" muted="0" steps="16" name="" type="1">
          <note key="71" pos="0" pan="0" len="144" vol="28" />
          <note key="67" pos="144" pan="0" len="144" vol="28" />
          <note key="71" pos="288" pan="0" len="144" vol="28" />
          <note key="67" pos="432" pan="0" len="144" vol="28" />
          <note key="71" pos="576" pan="0" len="144" vol="28" />
          <note key="67" pos="720" pan="0" len="144" vol="28" />
          <note key="71" pos="864" pan="0" len="252" vol="41" />
        </pattern>
        <pattern pos="6912" muted="0" steps="16" name="" type="1">
          <note key="70" pos="192" pan="0" len="156" vol="2" />
          <note key="69" pos="576" pan="0" len="96" vol="50" />
        </pattern>
        <pattern pos="7680" muted="0" steps="16" name="" type="1">
          <note key="70" pos="192" pan="0" len="156" vol="2" />
          <note key="69" pos="576" pan="0" len="96" vol="50" />
        </pattern>
        <pattern pos="34176" muted="0" steps="16" name="" type="1">
          <note key="63" pos="0" pan="0" len="288" vol="100" />
          <note key="61" pos="288" pan="0" len="288" vol="100" />
          <note key="60" pos="576" pan="0" len="288" vol="100" />
          <note key="61" pos="864" pan="0" len="288" vol="100" />
        </pattern>
        <pattern pos="35328" muted="0" steps="16" name="" type="1">
          <note key="63" pos="0" pan="0" len="288" vol="100" />
          <note key="61" pos="288" pan="0" len="288" vol="100" />
          <note key="60" pos="576" pan="0" len="432" vol="100" />
        </pattern>
        <pattern pos="36480" muted="0" steps="16" name="" type="1">
          <note key="60" pos="0" pan="0" len="288" vol="100" />
          <note key="58" pos="288" pan="0" len="288" vol="100" />
          <note key="57" pos="576" pan="0" len="288" vol="100" />
          <note key="58" pos="864" pan="0" len="288" vol="100" />
        </pattern>
        <pattern pos="37632" muted="0" steps="16" name="" type="1">
          <note key="60" pos="0" pan="0" len="288" vol="100" />
          <note key="58" pos="288" pan="0" len="288" vol="100" />
          <note key="57" pos="576" pan="0" len="288" vol="100" />
        </pattern>
        <pattern pos="41088" muted="0" steps="16" name="" type="1">
          <note key="67" pos="96" pan="0" len="192" vol="50" />
          <note key="65" pos="384" pan="0" len="192" vol="50" />
          <note key="67" pos="672" pan="0" len="192" vol="50" />
          <note key="65" pos="960" pan="0" len="192" vol="50" />
        </pattern>
        <pattern pos="42240" muted="0" steps="16" name="" type="1">
          <note key="67" pos="96" pan="0" len="192" vol="50" />
          <note key="65" pos="384" pan="0" len="192" vol="50" />
          <note key="67" pos="672" pan="0" len="192" vol="50" />
          <note key="65" pos="960" pan="0" len="192" vol="50" />
        </pattern>
        <pattern pos="43392" muted="0" steps="16" name="" type="1">
          <note key="67" pos="96" pan="0" len="192" vol="50" />
          <note key="65" pos="384" pan="0" len="192" vol="50" />
          <note key="67" pos="672" pan="0" len="192" vol="50" />
          <note key="65" pos="960" pan="0" len="192" vol="50" />
        </pattern>
        <pattern pos="44544" muted="0" steps="16" name="" type="1">
          <note key="67" pos="96" pan="0" len="192" vol="69" />
          <note key="67" pos="384" pan="0" len="192" vol="69" />
          <note key="67" pos="672" pan="0" len="192" vol="69" />
          <note key="67" pos="960" pan="0" len="192" vol="69" />
        </pattern>
        <pattern pos="45696" muted="0" steps="16" name="" type="1">
          <note key="67" pos="96" pan="0" len="192" vol="100" />
          <note key="65" pos="384" pan="0" len="192" vol="100" />
          <note key="63" pos="672" pan="0" len="192" vol="100" />
          <note key="63" pos="960" pan="0" len="192" vol="100" />
        </pattern>
        <pattern pos="46848" muted="0" steps="16" name="" type="1">
          <note key="67" pos="96" pan="0" len="192" vol="100" />
          <note key="65" pos="384" pan="0" len="192" vol="100" />
          <note key="63" pos="672" pan="0" len="192" vol="100" />
        </pattern>
        <pattern pos="48000" muted="0" steps="16" name="" type="1">
          <note key="67" pos="96" pan="0" len="192" vol="50" />
          <note key="65" pos="384" pan="0" len="192" vol="50" />
          <note key="67" pos="672" pan="0" len="192" vol="50" />
          <note key="65" pos="960" pan="0" len="192" vol="50" />
        </pattern>
        <pattern pos="49152" muted="0" steps="16" name="" type="1">
          <note key="67" pos="96" pan="0" len="192" vol="50" />
          <note key="65" pos="384" pan="0" len="192" vol="50" />
          <note key="67" pos="672" pan="0" len="192" vol="50" />
          <note key="65" pos="960" pan="0" len="192" vol="50" />
        </pattern>
        <pattern pos="50304" muted="0" steps="16" name="" type="1">
          <note key="67" pos="96" pan="0" len="192" vol="69" />
          <note key="67" pos="384" pan="0" len="192" vol="69" />
          <note key="67" pos="672" pan="0" len="192" vol="69" />
          <note key="67" pos="960" pan="0" len="192" vol="69" />
        </pattern>
        <pattern pos="51456" muted="0" steps="16" name="" type="1">
          <note key="67" pos="96" pan="0" len="192" vol="100" />
          <note key="65" pos="384" pan="0" len="192" vol="100" />
          <note key="63" pos="672" pan="0" len="192" vol="100" />
          <note key="63" pos="960" pan="0" len="192" vol="100" />
        </pattern>
        <pattern pos="52608" muted="0" steps="16" name="" type="1">
          <note key="67" pos="96" pan="0" len="192" vol="100" />
          <note key="65" pos="384" pan="0" len="192" vol="100" />
          <note key="63" pos="672" pan="0" len="192" vol="100" />
        </pattern>
        <pattern pos="59904" muted="0" steps="16" name="" type="1">
          <note key="65" pos="168" pan="0" len="12" vol="34" />
          <note key="65" pos="552" pan="0" len="12" vol="50" />
          <note key="65" pos="936" pan="0" len="12" vol="50" />
          <note key="65" pos="1320" pan="0" len="12" vol="69" />
          <note key="62" pos="1416" pan="0" len="12" vol="69" />
        </pattern>
        <pattern pos="61440" muted="0" steps="16" name="" type="1">
          <note key="63" pos="0" pan="0" len="12" vol="69" />
          <note key="65" pos="168" pan="0" len="12" vol="69" />
          <note key="63" pos="360" pan="0" len="12" vol="50" />
          <note key="65" pos="552" pan="0" len="12" vol="69" />
          <note key="63" pos="768" pan="0" len="12" vol="69" />
          <note key="65" pos="936" pan="0" len="12" vol="50" />
          <note key="69" pos="1128" pan="0" len="120" vol="69" />
          <note key="65" pos="1320" pan="0" len="12" vol="69" />
        </pattern>
        <pattern pos="62976" muted="0" steps="16" name="" type="1">
          <note key="65" pos="168" pan="0" len="12" vol="34" />
          <note key="65" pos="552" pan="0" len="12" vol="50" />
          <note key="65" pos="936" pan="0" len="12" vol="50" />
          <note key="65" pos="1320" pan="0" len="12" vol="69" />
          <note key="62" pos="1416" pan="0" len="12" vol="69" />
        </pattern>
        <pattern pos="64512" muted="0" steps="16" name="" type="1">
          <note key="60" pos="48" pan="0" len="12" vol="100" />
          <note key="57" pos="168" pan="0" len="12" vol="100" />
          <note key="60" pos="432" pan="0" len="12" vol="100" />
          <note key="63" pos="552" pan="0" len="12" vol="100" />
          <note key="60" pos="624" pan="0" len="12" vol="100" />
          <note key="60" pos="816" pan="0" len="12" vol="100" />
          <note key="57" pos="936" pan="0" len="12" vol="100" />
          <note key="60" pos="1200" pan="0" len="12" vol="100" />
          <note key="63" pos="1344" pan="0" len="12" vol="100" />
          <note key="60" pos="1416" pan="0" len="12" vol="100" />
        </pattern>
        <pattern pos="66048" muted="0" steps="16" name="" type="1">
          <note key="60" pos="48" pan="0" len="12" vol="100" />
          <note key="57" pos="168" pan="0" len="12" vol="100" />
          <note key="60" pos="432" pan="0" len="12" vol="100" />
          <note key="63" pos="552" pan="0" len="12" vol="100" />
          <note key="60" pos="624" pan="0" len="12" vol="100" />
          <note key="60" pos="816" pan="0" len="12" vol="100" />
          <note key="57" pos="936" pan="0" len="12" vol="100" />
          <note key="60" pos="1200" pan="0" len="12" vol="100" />
          <note key="63" pos="1344" pan="0" len="12" vol="100" />
          <note key="60" pos="1416" pan="0" len="12" vol="100" />
        </pattern>
        <pattern pos="67584" muted="0" steps="16" name="" type="1">
          <note key="65" pos="168" pan="0" len="12" vol="34" />
          <note key="65" pos="552" pan="0" len="12" vol="50" />
          <note key="65" pos="936" pan="0" len="12" vol="50" />
        </pattern>
        <pattern pos="69120" muted="0" steps="16" name="" type="1">
          <note key="65" pos="168" pan="0" len="12" vol="34" />
          <note key="65" pos="552" pan="0" len="12" vol="50" />
          <note key="65" pos="936" pan="0" len="12" vol="50" />
          <note key="65" pos="1320" pan="0" len="12" vol="69" />
          <note key="62" pos="1416" pan="0" len="12" vol="69" />
        </pattern>
        <pattern pos="70656" muted="0" steps="16" name="" type="1">
          <note key="63" pos="0" pan="0" len="12" vol="69" />
          <note key="65" pos="168" pan="0" len="12" vol="69" />
          <note key="63" pos="360" pan="0" len="12" vol="50" />
          <note key="65" pos="552" pan="0" len="12" vol="69" />
          <note key="63" pos="768" pan="0" len="12" vol="69" />
          <note key="65" pos="936" pan="0" len="12" vol="50" />
          <note key="69" pos="1128" pan="0" len="120" vol="69" />
          <note key="65" pos="1320" pan="0" len="12" vol="69" />
        </pattern>
        <pattern pos="72192" muted="0" steps="16" name="" type="1">
          <note key="65" pos="168" pan="0" len="12" vol="34" />
          <note key="65" pos="552" pan="0" len="12" vol="50" />
          <note key="65" pos="936" pan="0" len="12" vol="50" />
          <note key="65" pos="1320" pan="0" len="12" vol="69" />
          <note key="62" pos="1416" pan="0" len="12" vol="69" />
        </pattern>
        <pattern pos="73728" muted="0" steps="16" name="" type="1">
          <note key="60" pos="48" pan="0" len="12" vol="100" />
          <note key="57" pos="168" pan="0" len="12" vol="100" />
          <note key="60" pos="432" pan="0" len="12" vol="100" />
          <note key="63" pos="552" pan="0" len="12" vol="100" />
          <note key="60" pos="624" pan="0" len="12" vol="100" />
          <note key="60" pos="816" pan="0" len="12" vol="100" />
          <note key="57" pos="936" pan="0" len="12" vol="100" />
          <note key="60" pos="1200" pan="0" len="12" vol="100" />
          <note key="63" pos="1344" pan="0" len="12" vol="100" />
          <note key="60" pos="1416" pan="0" len="12" vol="100" />
        </pattern>
        <pattern pos="75264" muted="0" steps="16" name="" type="1">
          <note key="60" pos="48" pan="0" len="12" vol="100" />
          <note key="57" pos="168" pan="0" len="12" vol="100" />
          <note key="60" pos="432" pan="0" len="12" vol="100" />
          <note key="63" pos="552" pan="0" len="12" vol="100" />
          <note key="60" pos="624" pan="0" len="12" vol="100" />
          <note key="60" pos="816" pan="0" len="12" vol="100" />
          <note key="57" pos="936" pan="0" len="12" vol="100" />
          <note key="60" pos="1200" pan="0" len="12" vol="100" />
        </pattern>
        <pattern pos="82944" muted="0" steps="16" name="" type="1">
          <note key="55" pos="384" pan="0" len="96" vol="52" />
        </pattern>
        <pattern pos="83712" muted="0" steps="16" name="" type="1">
          <note key="55" pos="384" pan="0" len="48" vol="52" />
        </pattern>
        <pattern pos="86784" muted="0" steps="16" name="" type="1">
          <note key="63" pos="0" pan="0" len="192" vol="23" />
          <note key="67" pos="192" pan="0" len="192" vol="23" />
          <note key="65" pos="384" pan="0" len="192" vol="23" />
          <note key="65" pos="576" pan="0" len="192" vol="23" />
        </pattern>
        <pattern pos="88320" muted="0" steps="16" name="" type="1">
          <note key="63" pos="0" pan="0" len="192" vol="23" />
          <note key="67" pos="192" pan="0" len="192" vol="23" />
          <note key="65" pos="384" pan="0" len="192" vol="23" />
          <note key="65" pos="576" pan="0" len="192" vol="23" />
        </pattern>
        <pattern pos="92160" muted="0" steps="16" name="" type="1">
          <note key="60" pos="0" pan="0" len="768" vol="34" />
          <note key="63" pos="768" pan="0" len="384" vol="34" />
          <note key="65" pos="1152" pan="0" len="384" vol="34" />
        </pattern>
        <pattern pos="93696" muted="0" steps="16" name="" type="1">
          <note key="60" pos="0" pan="0" len="768" vol="34" />
          <note key="63" pos="768" pan="0" len="384" vol="34" />
          <note key="65" pos="1152" pan="0" len="384" vol="34" />
        </pattern>
        <pattern pos="176640" muted="0" steps="16" name="" type="1">
          <note key="71" pos="0" pan="0" len="144" vol="28" />
          <note key="67" pos="144" pan="0" len="144" vol="28" />
          <note key="71" pos="288" pan="0" len="144" vol="28" />
          <note key="67" pos="432" pan="0" len="144" vol="28" />
          <note key="71" pos="576" pan="0" len="144" vol="28" />
          <note key="67" pos="720" pan="0" len="144" vol="28" />
          <note key="71" pos="864" pan="0" len="144" vol="28" />
          <note key="67" pos="1008" pan="0" len="144" vol="28" />
        </pattern>
        <pattern pos="177792" muted="0" steps="16" name="" type="1">
          <note key="71" pos="0" pan="0" len="144" vol="28" />
          <note key="67" pos="144" pan="0" len="144" vol="28" />
          <note key="71" pos="288" pan="0" len="144" vol="28" />
          <note key="67" pos="432" pan="0" len="144" vol="28" />
          <note key="71" pos="576" pan="0" len="144" vol="28" />
          <note key="67" pos="720" pan="0" len="144" vol="28" />
          <note key="71" pos="864" pan="0" len="288" vol="28" />
        </pattern>
        <pattern pos="178944" muted="0" steps="16" name="" type="1">
          <note key="71" pos="0" pan="0" len="144" vol="28" />
          <note key="67" pos="144" pan="0" len="144" vol="28" />
          <note key="71" pos="288" pan="0" len="144" vol="28" />
          <note key="67" pos="432" pan="0" len="144" vol="28" />
          <note key="71" pos="576" pan="0" len="144" vol="28" />
          <note key="67" pos="720" pan="0" len="144" vol="28" />
          <note key="71" pos="864" pan="0" len="144" vol="28" />
          <note key="67" pos="1008" pan="0" len="144" vol="28" />
        </pattern>
        <pattern pos="180096" muted="0" steps="16" name="" type="1">
          <note key="71" pos="0" pan="0" len="144" vol="28" />
          <note key="67" pos="144" pan="0" len="144" vol="28" />
          <note key="71" pos="288" pan="0" len="144" vol="28" />
          <note key="67" pos="432" pan="0" len="144" vol="28" />
          <note key="71" pos="576" pan="0" len="144" vol="28" />
          <note key="67" pos="720" pan="0" len="144" vol="28" />
          <note key="71" pos="864" pan="0" len="288" vol="28" />
        </pattern>
        <pattern pos="181248" muted="0" steps="16" name="" type="1">
          <note key="71" pos="0" pan="0" len="144" vol="28" />
          <note key="69" pos="144" pan="0" len="144" vol="28" />
          <note key="67" pos="288" pan="0" len="144" vol="28" />
          <note key="66" pos="432" pan="0" len="144" vol="28" />
          <note key="64" pos="576" pan="0" len="144" vol="28" />
          <note key="67" pos="720" pan="0" len="144" vol="28" />
          <note key="59" pos="864" pan="0" len="144" vol="28" />
          <note key="62" pos="1008" pan="0" len="108" vol="28" />
        </pattern>
        <pattern pos="182400" muted="0" steps="16" name="" type="1">
          <note key="71" pos="0" pan="0" len="144" vol="41" />
          <note key="69" pos="144" pan="0" len="144" vol="41" />
          <note key="67" pos="288" pan="0" len="144" vol="41" />
          <note key="66" pos="432" pan="0" len="144" vol="41" />
          <note key="64" pos="576" pan="0" len="144" vol="41" />
          <note key="67" pos="720" pan="0" len="144" vol="41" />
          <note key="59" pos="864" pan="0" len="144" vol="41" />
          <note key="66" pos="1008" pan="0" len="144" vol="41" />
        </pattern>
        <pattern pos="183552" muted="0" steps="16" name="" type="1">
          <note key="71" pos="0" pan="0" len="144" vol="28" />
          <note key="67" pos="144" pan="0" len="144" vol="28" />
          <note key="71" pos="288" pan="0" len="144" vol="28" />
          <note key="67" pos="432" pan="0" len="144" vol="28" />
          <note key="71" pos="576" pan="0" len="144" vol="28" />
          <note key="67" pos="720" pan="0" len="144" vol="28" />
          <note key="71" pos="864" pan="0" len="144" vol="28" />
          <note key="67" pos="1008" pan="0" len="144" vol="28" />
        </pattern>
      </track>
      <track solo="0" name="11 (Ch8)" type="0" muted="0">
        <instrumenttrack usemasterpitch="1" pitch="0.0" basenote="57" pan="0" pitchrange="12" vol="30">
          <eldata />
          <instrument name="tripleoscillator" />
        </instrumenttrack>
        <pattern pos="267648" muted="0" steps="16" name="" type="1">
          <note key="56" pos="0" pan="0" len="384" vol="52" />
          <note key="53" pos="384" pan="0" len="288" vol="50" />
          <note key="53" pos="672" pan="0" len="96" vol="50" />
          <note key="56" pos="768" pan="0" len="384" vol="50" />
          <note key="58" pos="1152" pan="0" len="192" vol="50" />
        </pattern>
        <pattern pos="41088" muted="0" steps="16" name="" type="1">
          <note key="70" pos="96" pan="0" len="192" vol="50" />
          <note key="69" pos="384" pan="0" len="192" vol="50" />
          <note key="70" pos="672" pan="0" len="192" vol="50" />
          <note key="69" pos="960" pan="0" len="192" vol="50" />
        </pattern>
        <pattern pos="42240" muted="0" steps="16" name="" type="1">
          <note key="70" pos="96" pan="0" len="192" vol="50" />
          <note key="69" pos="384" pan="0" len="192" vol="50" />
          <note key="70" pos="672" pan="0" len="192" vol="50" />
          <note key="69" pos="960" pan="0" len="192" vol="50" />
        </pattern>
        <pattern pos="43392" muted="0" steps="16" name="" type="1">
          <note key="70" pos="96" pan="0" len="192" vol="50" />
          <note key="69" pos="384" pan="0" len="192" vol="50" />
          <note key="70" pos="672" pan="0" len="192" vol="50" />
          <note key="69" pos="960" pan="0" len="192" vol="50" />
        </pattern>
        <pattern pos="44544" muted="0" steps="16" name="" type="1">
          <note key="70" pos="96" pan="0" len="192" vol="69" />
          <note key="72" pos="384" pan="0" len="192" vol="69" />
          <note key="70" pos="672" pan="0" len="192" vol="69" />
          <note key="72" pos="960" pan="0" len="192" vol="69" />
        </pattern>
        <pattern pos="45696" muted="0" steps="16" name="" type="1">
          <note key="70" pos="96" pan="0" len="192" vol="100" />
          <note key="69" pos="384" pan="0" len="192" vol="100" />
          <note key="67" pos="672" pan="0" len="192" vol="100" />
          <note key="67" pos="960" pan="0" len="192" vol="100" />
        </pattern>
        <pattern pos="46848" muted="0" steps="16" name="" type="1">
          <note key="70" pos="96" pan="0" len="192" vol="100" />
          <note key="69" pos="384" pan="0" len="192" vol="100" />
          <note key="67" pos="672" pan="0" len="192" vol="100" />
        </pattern>
        <pattern pos="48000" muted="0" steps="16" name="" type="1">
          <note key="70" pos="96" pan="0" len="192" vol="50" />
          <note key="69" pos="384" pan="0" len="192" vol="50" />
          <note key="70" pos="672" pan="0" len="192" vol="50" />
          <note key="69" pos="960" pan="0" len="192" vol="50" />
        </pattern>
        <pattern pos="49152" muted="0" steps="16" name="" type="1">
          <note key="70" pos="96" pan="0" len="192" vol="50" />
          <note key="69" pos="384" pan="0" len="192" vol="50" />
          <note key="70" pos="672" pan="0" len="192" vol="50" />
          <note key="69" pos="960" pan="0" len="192" vol="50" />
        </pattern>
        <pattern pos="50304" muted="0" steps="16" name="" type="1">
          <note key="70" pos="96" pan="0" len="192" vol="69" />
          <note key="72" pos="384" pan="0" len="192" vol="69" />
          <note key="70" pos="672" pan="0" len="192" vol="69" />
          <note key="72" pos="960" pan="0" len="192" vol="69" />
        </pattern>
        <pattern pos="51456" muted="0" steps="16" name="" type="1">
          <note key="70" pos="96" pan="0" len="192" vol="100" />
          <note key="69" pos="384" pan="0" len="192" vol="100" />
          <note key="67" pos="672" pan="0" len="192" vol="100" />
          <note key="67" pos="960" pan="0" len="192" vol="100" />
        </pattern>
        <pattern pos="52608" muted="0" steps="16" name="" type="1">
          <note key="70" pos="96" pan="0" len="192" vol="100" />
          <note key="69" pos="384" pan="0" len="192" vol="100" />
          <note key="67" pos="672" pan="0" len="192" vol="100" />
        </pattern>
        <pattern pos="59904" muted="0" steps="16" name="" type="1">
          <note key="69" pos="168" pan="0" len="12" vol="34" />
          <note key="67" pos="552" pan="0" len="12" vol="50" />
          <note key="70" pos="936" pan="0" len="12" vol="50" />
          <note key="70" pos="1320" pan="0" len="12" vol="69" />
          <note key="65" pos="1416" pan="0" len="12" vol="69" />
        </pattern>
        <pattern pos="61440" muted="0" steps="16" name="" type="1">
          <note key="67" pos="0" pan="0" len="12" vol="69" />
          <note key="69" pos="168" pan="0" len="12" vol="69" />
          <note key="67" pos="360" pan="0" len="12" vol="50" />
          <note key="69" pos="552" pan="0" len="12" vol="69" />
          <note key="70" pos="768" pan="0" len="12" vol="69" />
          <note key="70" pos="936" pan="0" len="12" vol="50" />
          <note key="72" pos="1128" pan="0" len="120" vol="69" />
          <note key="69" pos="1320" pan="0" len="12" vol="69" />
        </pattern>
        <pattern pos="62976" muted="0" steps="16" name="" type="1">
          <note key="69" pos="168" pan="0" len="12" vol="34" />
          <note key="67" pos="552" pan="0" len="12" vol="50" />
          <note key="70" pos="936" pan="0" len="12" vol="50" />
          <note key="70" pos="1320" pan="0" len="12" vol="69" />
          <note key="65" pos="1416" pan="0" len="12" vol="69" />
        </pattern>
        <pattern pos="64512" muted="0" steps="16" name="" type="1">
          <note key="63" pos="48" pan="0" len="12" vol="100" />
          <note key="60" pos="168" pan="0" len="12" vol="100" />
          <note key="63" pos="432" pan="0" len="12" vol="100" />
          <note key="65" pos="552" pan="0" len="12" vol="100" />
          <note key="65" pos="624" pan="0" len="12" vol="100" />
          <note key="63" pos="816" pan="0" len="12" vol="100" />
          <note key="60" pos="936" pan="0" len="12" vol="100" />
          <note key="63" pos="1200" pan="0" len="12" vol="100" />
          <note key="65" pos="1344" pan="0" len="12" vol="100" />
          <note key="65" pos="1416" pan="0" len="12" vol="100" />
        </pattern>
        <pattern pos="66048" muted="0" steps="16" name="" type="1">
          <note key="63" pos="48" pan="0" len="12" vol="100" />
          <note key="60" pos="168" pan="0" len="12" vol="100" />
          <note key="63" pos="432" pan="0" len="12" vol="100" />
          <note key="65" pos="552" pan="0" len="12" vol="100" />
          <note key="65" pos="624" pan="0" len="12" vol="100" />
          <note key="63" pos="816" pan="0" len="12" vol="100" />
          <note key="60" pos="936" pan="0" len="12" vol="100" />
          <note key="63" pos="1200" pan="0" len="12" vol="100" />
          <note key="65" pos="1344" pan="0" len="12" vol="100" />
          <note key="65" pos="1416" pan="0" len="12" vol="100" />
        </pattern>
        <pattern pos="67584" muted="0" steps="16" name="" type="1">
          <note key="69" pos="168" pan="0" len="12" vol="34" />
          <note key="67" pos="552" pan="0" len="12" vol="50" />
          <note key="70" pos="936" pan="0" len="12" vol="50" />
        </pattern>
        <pattern pos="69120" muted="0" steps="16" name="" type="1">
          <note key="69" pos="168" pan="0" len="12" vol="34" />
          <note key="67" pos="552" pan="0" len="12" vol="50" />
          <note key="70" pos="936" pan="0" len="12" vol="50" />
          <note key="70" pos="1320" pan="0" len="12" vol="69" />
          <note key="65" pos="1416" pan="0" len="12" vol="69" />
        </pattern>
        <pattern pos="70656" muted="0" steps="16" name="" type="1">
          <note key="67" pos="0" pan="0" len="12" vol="69" />
          <note key="69" pos="168" pan="0" len="12" vol="69" />
          <note key="67" pos="360" pan="0" len="12" vol="50" />
          <note key="69" pos="552" pan="0" len="12" vol="69" />
          <note key="70" pos="768" pan="0" len="12" vol="69" />
          <note key="70" pos="936" pan="0" len="12" vol="50" />
          <note key="72" pos="1128" pan="0" len="120" vol="69" />
          <note key="69" pos="1320" pan="0" len="12" vol="69" />
        </pattern>
        <pattern pos="72192" muted="0" steps="16" name="" type="1">
          <note key="69" pos="168" pan="0" len="12" vol="34" />
          <note key="67" pos="552" pan="0" len="12" vol="50" />
          <note key="70" pos="936" pan="0" len="12" vol="50" />
          <note key="70" pos="1320" pan="0" len="12" vol="69" />
          <note key="65" pos="1416" pan="0" len="12" vol="69" />
        </pattern>
        <pattern pos="73728" muted="0" steps="16" name="" type="1">
          <note key="63" pos="48" pan="0" len="12" vol="100" />
          <note key="60" pos="168" pan="0" len="12" vol="100" />
          <note key="63" pos="432" pan="0" len="12" vol="100" />
          <note key="65" pos="552" pan="0" len="12" vol="100" />
          <note key="65" pos="624" pan="0" len="12" vol="100" />
          <note key="63" pos="816" pan="0" len="12" vol="100" />
          <note key="60" pos="936" pan="0" len="12" vol="100" />
          <note key="63" pos="1200" pan="0" len="12" vol="100" />
          <note key="65" pos="1344" pan="0" len="12" vol="100" />
          <note key="65" pos="1416" pan="0" len="12" vol="100" />
        </pattern>
        <pattern pos="75264" muted="0" steps="16" name="" type="1">
          <note key="63" pos="48" pan="0" len="12" vol="100" />
          <note key="60" pos="168" pan="0" len="12" vol="100" />
          <note key="63" pos="432" pan="0" len="12" vol="100" />
          <note key="65" pos="552" pan="0" len="12" vol="100" />
          <note key="65" pos="624" pan="0" len="12" vol="100" />
          <note key="63" pos="816" pan="0" len="12" vol="100" />
          <note key="60" pos="936" pan="0" len="12" vol="100" />
          <note key="63" pos="1200" pan="0" len="12" vol="100" />
        </pattern>
        <pattern pos="82944" muted="0" steps="16" name="" type="1">
          <note key="60" pos="384" pan="0" len="96" vol="52" />
        </pattern>
        <pattern pos="83712" muted="0" steps="16" name="" type="1">
          <note key="60" pos="384" pan="0" len="48" vol="52" />
        </pattern>
        <pattern pos="84480" muted="0" steps="16" name="" type="1">
          <note key="67" pos="0" pan="0" len="768" vol="50" />
        </pattern>
        <pattern pos="85248" muted="0" steps="16" name="" type="1">
          <note key="60" pos="0" pan="0" len="384" vol="50" />
          <note key="63" pos="384" pan="0" len="288" vol="50" />
          <note key="60" pos="672" pan="0" len="96" vol="34" />
        </pattern>
        <pattern pos="86784" muted="0" steps="16" name="" type="1">
          <note key="67" pos="0" pan="0" len="192" vol="23" />
          <note key="70" pos="192" pan="0" len="192" vol="23" />
          <note key="70" pos="384" pan="0" len="192" vol="23" />
          <note key="69" pos="576" pan="0" len="192" vol="23" />
        </pattern>
        <pattern pos="88320" muted="0" steps="16" name="" type="1">
          <note key="67" pos="0" pan="0" len="192" vol="23" />
          <note key="70" pos="192" pan="0" len="192" vol="23" />
          <note key="70" pos="384" pan="0" len="192" vol="23" />
          <note key="69" pos="576" pan="0" len="192" vol="23" />
        </pattern>
        <pattern pos="91392" muted="0" steps="16" name="" type="1">
          <note key="60" pos="276" pan="0" len="492" vol="2" />
        </pattern>
        <pattern pos="92160" muted="0" steps="16" name="" type="1">
          <note key="65" pos="0" pan="0" len="768" vol="34" />
          <note key="68" pos="768" pan="0" len="384" vol="34" />
          <note key="70" pos="1152" pan="0" len="384" vol="34" />
        </pattern>
        <pattern pos="93696" muted="0" steps="16" name="" type="1">
          <note key="65" pos="0" pan="0" len="768" vol="34" />
          <note key="68" pos="768" pan="0" len="384" vol="34" />
          <note key="70" pos="1152" pan="0" len="384" vol="34" />
        </pattern>
        <pattern pos="261504" muted="0" steps="16" name="" type="1">
          <note key="71" pos="0" pan="0" len="192" vol="70" />
          <note key="71" pos="192" pan="0" len="192" vol="70" />
          <note key="68" pos="384" pan="0" len="192" vol="70" />
          <note key="71" pos="576" pan="0" len="192" vol="70" />
        </pattern>
        <pattern pos="262272" muted="0" steps="16" name="" type="1">
          <note key="71" pos="0" pan="0" len="192" vol="70" />
          <note key="71" pos="192" pan="0" len="192" vol="70" />
          <note key="68" pos="384" pan="0" len="192" vol="70" />
          <note key="68" pos="576" pan="0" len="192" vol="70" />
        </pattern>
        <pattern pos="263040" muted="0" steps="16" name="" type="1">
          <note key="68" pos="0" pan="0" len="192" vol="70" />
          <note key="68" pos="192" pan="0" len="192" vol="70" />
          <note key="65" pos="384" pan="0" len="192" vol="70" />
          <note key="68" pos="576" pan="0" len="192" vol="70" />
        </pattern>
        <pattern pos="263808" muted="0" steps="16" name="" type="1">
          <note key="68" pos="0" pan="0" len="192" vol="70" />
          <note key="68" pos="192" pan="0" len="192" vol="70" />
          <note key="65" pos="384" pan="0" len="192" vol="70" />
          <note key="65" pos="576" pan="0" len="120" vol="70" />
        </pattern>
        <pattern pos="266112" muted="0" steps="16" name="" type="1">
          <note key="57" pos="0" pan="0" len="384" vol="69" />
          <note key="55" pos="384" pan="0" len="288" vol="69" />
          <note key="53" pos="672" pan="0" len="96" vol="69" />
          <note key="57" pos="768" pan="0" len="384" vol="69" />
          <note key="55" pos="1152" pan="0" len="288" vol="69" />
          <note key="53" pos="1440" pan="0" len="96" vol="69" />
        </pattern>
      </track>
      <track solo="0" name="11 (Ch9)" type="0" muted="0">
        <instrumenttrack usemasterpitch="1" pitch="0.0" basenote="57" pan="0" pitchrange="12" vol="30">
          <eldata />
          <instrument name="tripleoscillator" />
        </instrumenttrack>
        <pattern pos="267648" muted="0" steps="16" name="" type="1">
          <note key="60" pos="0" pan="0" len="384" vol="52" />
          <note key="58" pos="384" pan="0" len="288" vol="50" />
          <note key="56" pos="672" pan="0" len="96" vol="50" />
          <note key="60" pos="768" pan="0" len="384" vol="50" />
          <note key="62" pos="1152" pan="0" len="192" vol="50" />
        </pattern>
        <pattern pos="11520" muted="0" steps="16" name="" type="1">
          <note key="64" pos="0" pan="0" len="384" vol="69" />
          <note key="62" pos="384" pan="0" len="384" vol="69" />
          <note key="64" pos="768" pan="0" len="384" vol="69" />
          <note key="62" pos="1152" pan="0" len="384" vol="69" />
        </pattern>
        <pattern pos="13056" muted="0" steps="16" name="" type="1">
          <note key="58" pos="0" pan="0" len="384" vol="52" />
          <note key="55" pos="384" pan="0" len="312" vol="50" />
          <note key="55" pos="696" pan="0" len="72" vol="50" />
          <note key="58" pos="768" pan="0" len="384" vol="50" />
          <note key="60" pos="1152" pan="0" len="384" vol="50" />
        </pattern>
        <pattern pos="14592" muted="0" steps="16" name="" type="1">
          <note key="64" pos="0" pan="0" len="384" vol="69" />
          <note key="62" pos="384" pan="0" len="384" vol="69" />
          <note key="64" pos="768" pan="0" len="384" vol="69" />
          <note key="62" pos="1152" pan="0" len="384" vol="69" />
        </pattern>
        <pattern pos="16128" muted="0" steps="16" name="" type="1">
          <note key="58" pos="0" pan="0" len="384" vol="52" />
          <note key="55" pos="384" pan="0" len="288" vol="50" />
          <note key="55" pos="672" pan="0" len="96" vol="50" />
          <note key="58" pos="768" pan="0" len="384" vol="50" />
          <note key="60" pos="1152" pan="0" len="192" vol="50" />
        </pattern>
        <pattern pos="20736" muted="0" steps="16" name="" type="1">
          <note key="60" pos="0" pan="0" len="384" vol="34" />
          <note key="63" pos="384" pan="0" len="384" vol="34" />
          <note key="60" pos="768" pan="0" len="384" vol="34" />
          <note key="57" pos="1152" pan="0" len="384" vol="34" />
        </pattern>
        <pattern pos="30720" muted="0" steps="16" name="" type="1">
          <note key="65" pos="576" pan="0" len="288" vol="52" />
          <note key="60" pos="864" pan="0" len="192" vol="52" />
        </pattern>
        <pattern pos="31872" muted="0" steps="16" name="" type="1">
          <note key="60" pos="0" pan="0" len="288" vol="50" />
          <note key="63" pos="288" pan="0" len="288" vol="50" />
          <note key="60" pos="576" pan="0" len="288" vol="50" />
          <note key="60" pos="864" pan="0" len="288" vol="50" />
        </pattern>
        <pattern pos="33024" muted="0" steps="16" name="" type="1">
          <note key="60" pos="0" pan="0" len="288" vol="50" />
          <note key="63" pos="288" pan="0" len="288" vol="50" />
          <note key="60" pos="576" pan="0" len="408" vol="50" />
        </pattern>
        <pattern pos="34176" muted="0" steps="16" name="" type="1">
          <note key="66" pos="0" pan="0" len="288" vol="100" />
          <note key="66" pos="288" pan="0" len="288" vol="100" />
          <note key="63" pos="576" pan="0" len="288" vol="100" />
          <note key="66" pos="864" pan="0" len="288" vol="100" />
        </pattern>
        <pattern pos="35328" muted="0" steps="16" name="" type="1">
          <note key="66" pos="0" pan="0" len="288" vol="100" />
          <note key="66" pos="288" pan="0" len="288" vol="100" />
          <note key="63" pos="576" pan="0" len="432" vol="100" />
        </pattern>
        <pattern pos="36480" muted="0" steps="16" name="" type="1">
          <note key="63" pos="0" pan="0" len="288" vol="100" />
          <note key="63" pos="288" pan="0" len="288" vol="100" />
          <note key="60" pos="576" pan="0" len="288" vol="100" />
          <note key="63" pos="864" pan="0" len="288" vol="100" />
        </pattern>
        <pattern pos="37632" muted="0" steps="16" name="" type="1">
          <note key="63" pos="0" pan="0" len="288" vol="100" />
          <note key="63" pos="288" pan="0" len="288" vol="100" />
          <note key="60" pos="576" pan="0" len="288" vol="100" />
          <note key="57" pos="864" pan="0" len="192" vol="100" />
        </pattern>
        <pattern pos="38784" muted="0" steps="16" name="" type="1">
          <note key="65" pos="576" pan="0" len="288" vol="52" />
          <note key="60" pos="864" pan="0" len="192" vol="52" />
        </pattern>
        <pattern pos="59904" muted="0" steps="16" name="" type="1">
          <note key="70" pos="168" pan="0" len="12" vol="34" />
          <note key="72" pos="552" pan="0" len="12" vol="50" />
          <note key="75" pos="936" pan="0" len="12" vol="50" />
          <note key="74" pos="1320" pan="0" len="12" vol="69" />
          <note key="70" pos="1416" pan="0" len="12" vol="69" />
        </pattern>
        <pattern pos="61440" muted="0" steps="16" name="" type="1">
          <note key="72" pos="0" pan="0" len="12" vol="69" />
          <note key="70" pos="168" pan="0" len="12" vol="69" />
          <note key="72" pos="360" pan="0" len="12" vol="50" />
          <note key="70" pos="552" pan="0" len="12" vol="69" />
          <note key="72" pos="768" pan="0" len="12" vol="69" />
          <note key="75" pos="936" pan="0" len="12" vol="50" />
          <note key="65" pos="1128" pan="0" len="120" vol="69" />
          <note key="70" pos="1320" pan="0" len="12" vol="69" />
        </pattern>
        <pattern pos="62976" muted="0" steps="16" name="" type="1">
          <note key="70" pos="168" pan="0" len="12" vol="34" />
          <note key="72" pos="552" pan="0" len="12" vol="50" />
          <note key="75" pos="936" pan="0" len="12" vol="50" />
          <note key="74" pos="1320" pan="0" len="12" vol="69" />
          <note key="70" pos="1416" pan="0" len="12" vol="69" />
        </pattern>
        <pattern pos="64512" muted="0" steps="16" name="" type="1">
          <note key="67" pos="48" pan="0" len="12" vol="100" />
          <note key="65" pos="168" pan="0" len="12" vol="100" />
          <note key="67" pos="432" pan="0" len="12" vol="100" />
          <note key="70" pos="552" pan="0" len="12" vol="100" />
          <note key="69" pos="624" pan="0" len="12" vol="100" />
          <note key="67" pos="816" pan="0" len="12" vol="100" />
          <note key="65" pos="936" pan="0" len="12" vol="100" />
          <note key="67" pos="1200" pan="0" len="12" vol="100" />
          <note key="70" pos="1344" pan="0" len="12" vol="100" />
          <note key="69" pos="1416" pan="0" len="12" vol="100" />
        </pattern>
        <pattern pos="66048" muted="0" steps="16" name="" type="1">
          <note key="67" pos="48" pan="0" len="12" vol="100" />
          <note key="65" pos="168" pan="0" len="12" vol="100" />
          <note key="67" pos="432" pan="0" len="12" vol="100" />
          <note key="70" pos="552" pan="0" len="12" vol="100" />
          <note key="69" pos="624" pan="0" len="12" vol="100" />
          <note key="67" pos="816" pan="0" len="12" vol="100" />
          <note key="65" pos="936" pan="0" len="12" vol="100" />
          <note key="67" pos="1200" pan="0" len="12" vol="100" />
          <note key="70" pos="1344" pan="0" len="12" vol="100" />
          <note key="69" pos="1416" pan="0" len="12" vol="100" />
        </pattern>
        <pattern pos="67584" muted="0" steps="16" name="" type="1">
          <note key="70" pos="168" pan="0" len="12" vol="34" />
          <note key="72" pos="552" pan="0" len="12" vol="50" />
          <note key="75" pos="936" pan="0" len="12" vol="50" />
        </pattern>
        <pattern pos="69120" muted="0" steps="16" name="" type="1">
          <note key="70" pos="168" pan="0" len="12" vol="34" />
          <note key="72" pos="552" pan="0" len="12" vol="50" />
          <note key="75" pos="936" pan="0" len="12" vol="50" />
          <note key="74" pos="1320" pan="0" len="12" vol="69" />
          <note key="70" pos="1416" pan="0" len="12" vol="69" />
        </pattern>
        <pattern pos="70656" muted="0" steps="16" name="" type="1">
          <note key="72" pos="0" pan="0" len="12" vol="69" />
          <note key="70" pos="168" pan="0" len="12" vol="69" />
          <note key="72" pos="360" pan="0" len="12" vol="50" />
          <note key="70" pos="552" pan="0" len="12" vol="69" />
          <note key="72" pos="768" pan="0" len="12" vol="69" />
          <note key="75" pos="936" pan="0" len="12" vol="50" />
          <note key="65" pos="1128" pan="0" len="120" vol="69" />
          <note key="70" pos="1320" pan="0" len="12" vol="69" />
        </pattern>
        <pattern pos="72192" muted="0" steps="16" name="" type="1">
          <note key="70" pos="168" pan="0" len="12" vol="34" />
          <note key="72" pos="552" pan="0" len="12" vol="50" />
          <note key="75" pos="936" pan="0" len="12" vol="50" />
          <note key="74" pos="1320" pan="0" len="12" vol="69" />
          <note key="70" pos="1416" pan="0" len="12" vol="69" />
        </pattern>
        <pattern pos="73728" muted="0" steps="16" name="" type="1">
          <note key="67" pos="48" pan="0" len="12" vol="100" />
          <note key="65" pos="168" pan="0" len="12" vol="100" />
          <note key="67" pos="432" pan="0" len="12" vol="100" />
          <note key="70" pos="552" pan="0" len="12" vol="100" />
          <note key="69" pos="624" pan="0" len="12" vol="100" />
          <note key="67" pos="816" pan="0" len="12" vol="100" />
          <note key="65" pos="936" pan="0" len="12" vol="100" />
          <note key="67" pos="1200" pan="0" len="12" vol="100" />
          <note key="70" pos="1344" pan="0" len="12" vol="100" />
          <note key="69" pos="1416" pan="0" len="12" vol="100" />
        </pattern>
        <pattern pos="75264" muted="0" steps="16" name="" type="1">
          <note key="67" pos="48" pan="0" len="12" vol="100" />
          <note key="65" pos="168" pan="0" len="12" vol="100" />
          <note key="67" pos="432" pan="0" len="12" vol="100" />
          <note key="70" pos="552" pan="0" len="12" vol="100" />
          <note key="69" pos="624" pan="0" len="12" vol="100" />
          <note key="67" pos="816" pan="0" len="12" vol="100" />
          <note key="65" pos="936" pan="0" len="12" vol="100" />
          <note key="67" pos="1200" pan="0" len="12" vol="100" />
        </pattern>
        <pattern pos="84480" muted="0" steps="16" name="" type="1">
          <note key="67" pos="72" pan="0" len="312" vol="17" />
          <note key="65" pos="384" pan="0" len="384" vol="50" />
        </pattern>
        <pattern pos="85248" muted="0" steps="16" name="" type="1">
          <note key="65" pos="0" pan="0" len="384" vol="50" />
          <note key="67" pos="384" pan="0" len="288" vol="50" />
          <note key="65" pos="672" pan="0" len="96" vol="34" />
        </pattern>
        <pattern pos="91392" muted="0" steps="16" name="" type="1">
          <note key="65" pos="276" pan="0" len="492" vol="2" />
        </pattern>
        <pattern pos="92160" muted="0" steps="16" name="" type="1">
          <note key="67" pos="0" pan="0" len="768" vol="34" />
          <note key="70" pos="768" pan="0" len="384" vol="34" />
          <note key="72" pos="1152" pan="0" len="384" vol="34" />
        </pattern>
        <pattern pos="93696" muted="0" steps="16" name="" type="1">
          <note key="67" pos="0" pan="0" len="768" vol="34" />
          <note key="70" pos="768" pan="0" len="384" vol="34" />
          <note key="72" pos="1152" pan="0" len="384" vol="34" />
        </pattern>
        <pattern pos="113664" muted="0" steps="16" name="" type="1">
          <note key="65" pos="0" pan="0" len="1536" vol="34" />
        </pattern>
        <pattern pos="115200" muted="0" steps="16" name="" type="1">
          <note key="72" pos="0" pan="0" len="576" vol="34" />
          <note key="67" pos="768" pan="0" len="384" vol="34" />
          <note key="65" pos="1152" pan="0" len="384" vol="34" />
        </pattern>
        <pattern pos="116736" muted="0" steps="16" name="" type="1">
          <note key="65" pos="0" pan="0" len="1536" vol="34" />
        </pattern>
        <pattern pos="118272" muted="0" steps="16" name="" type="1">
          <note key="72" pos="0" pan="0" len="576" vol="34" />
          <note key="67" pos="768" pan="0" len="384" vol="34" />
          <note key="65" pos="1152" pan="0" len="384" vol="34" />
        </pattern>
        <pattern pos="119808" muted="0" steps="16" name="" type="1">
          <note key="65" pos="0" pan="0" len="1536" vol="34" />
        </pattern>
        <pattern pos="121344" muted="0" steps="16" name="" type="1">
          <note key="72" pos="0" pan="0" len="576" vol="34" />
          <note key="67" pos="768" pan="0" len="384" vol="34" />
          <note key="65" pos="1152" pan="0" len="384" vol="34" />
        </pattern>
        <pattern pos="221376" muted="0" steps="16" name="" type="1">
          <note key="60" pos="0" pan="0" len="576" vol="52" />
          <note key="57" pos="576" pan="0" len="192" vol="86" />
          <note key="62" pos="768" pan="0" len="480" vol="52" />
          <note key="67" pos="1248" pan="0" len="96" vol="86" />
          <note key="65" pos="1344" pan="0" len="192" vol="69" />
        </pattern>
        <pattern pos="222912" muted="0" steps="16" name="" type="1">
          <note key="60" pos="0" pan="0" len="576" vol="52" />
          <note key="57" pos="576" pan="0" len="192" vol="86" />
          <note key="62" pos="768" pan="0" len="480" vol="52" />
          <note key="67" pos="1248" pan="0" len="96" vol="86" />
          <note key="65" pos="1344" pan="0" len="192" vol="69" />
        </pattern>
        <pattern pos="227520" muted="0" steps="16" name="" type="1">
          <note key="60" pos="0" pan="0" len="576" vol="52" />
          <note key="57" pos="576" pan="0" len="192" vol="86" />
          <note key="62" pos="768" pan="0" len="480" vol="52" />
          <note key="67" pos="1248" pan="0" len="96" vol="86" />
          <note key="65" pos="1344" pan="0" len="192" vol="69" />
        </pattern>
        <pattern pos="229056" muted="0" steps="16" name="" type="1">
          <note key="60" pos="0" pan="0" len="480" vol="52" />
          <note key="62" pos="480" pan="0" len="96" vol="86" />
          <note key="57" pos="576" pan="0" len="192" vol="86" />
          <note key="62" pos="768" pan="0" len="480" vol="52" />
          <note key="67" pos="1248" pan="0" len="96" vol="86" />
          <note key="65" pos="1344" pan="0" len="96" vol="69" />
          <note key="70" pos="1440" pan="0" len="96" vol="69" />
        </pattern>
        <pattern pos="261504" muted="0" steps="16" name="" type="1">
          <note key="75" pos="0" pan="0" len="192" vol="70" />
          <note key="75" pos="192" pan="0" len="192" vol="70" />
          <note key="73" pos="384" pan="0" len="192" vol="70" />
          <note key="75" pos="576" pan="0" len="192" vol="70" />
        </pattern>
        <pattern pos="262272" muted="0" steps="16" name="" type="1">
          <note key="75" pos="0" pan="0" len="192" vol="70" />
          <note key="75" pos="192" pan="0" len="192" vol="70" />
          <note key="73" pos="384" pan="0" len="192" vol="70" />
          <note key="73" pos="576" pan="0" len="192" vol="70" />
        </pattern>
        <pattern pos="263040" muted="0" steps="16" name="" type="1">
          <note key="72" pos="0" pan="0" len="192" vol="70" />
          <note key="72" pos="192" pan="0" len="192" vol="70" />
          <note key="70" pos="384" pan="0" len="192" vol="70" />
          <note key="72" pos="576" pan="0" len="192" vol="70" />
        </pattern>
        <pattern pos="263808" muted="0" steps="16" name="" type="1">
          <note key="72" pos="0" pan="0" len="192" vol="70" />
          <note key="72" pos="192" pan="0" len="192" vol="70" />
          <note key="70" pos="384" pan="0" len="192" vol="70" />
          <note key="70" pos="576" pan="0" len="120" vol="70" />
        </pattern>
        <pattern pos="266112" muted="0" steps="16" name="" type="1">
          <note key="60" pos="0" pan="0" len="384" vol="69" />
          <note key="60" pos="384" pan="0" len="288" vol="69" />
          <note key="58" pos="672" pan="0" len="96" vol="69" />
          <note key="60" pos="768" pan="0" len="384" vol="69" />
          <note key="60" pos="1152" pan="0" len="288" vol="69" />
          <note key="58" pos="1440" pan="0" len="96" vol="69" />
        </pattern>
      </track>
      <track solo="0" name="11 (Ch10)" type="0" muted="0">
        <instrumenttrack usemasterpitch="1" pitch="0.0" basenote="57" pan="0" pitchrange="12" vol="30">
          <eldata />
          <instrument name="tripleoscillator" />
        </instrumenttrack>
        <pattern pos="267648" muted="0" steps="16" name="" type="1">
          <note key="63" pos="0" pan="0" len="384" vol="52" />
          <note key="62" pos="384" pan="0" len="288" vol="50" />
          <note key="60" pos="672" pan="0" len="96" vol="50" />
          <note key="63" pos="768" pan="0" len="384" vol="50" />
          <note key="65" pos="1152" pan="0" len="192" vol="50" />
        </pattern>
        <pattern pos="3840" muted="0" steps="16" name="" type="1">
          <note key="69" pos="576" pan="0" len="192" vol="100" />
          <note key="69" pos="1344" pan="0" len="192" vol="100" />
        </pattern>
        <pattern pos="11520" muted="0" steps="16" name="" type="1">
          <note key="67" pos="0" pan="0" len="384" vol="69" />
          <note key="67" pos="384" pan="0" len="384" vol="69" />
          <note key="67" pos="768" pan="0" len="384" vol="69" />
          <note key="67" pos="1152" pan="0" len="384" vol="69" />
        </pattern>
        <pattern pos="13056" muted="0" steps="16" name="" type="1">
          <note key="62" pos="0" pan="0" len="384" vol="52" />
          <note key="60" pos="384" pan="0" len="312" vol="50" />
          <note key="58" pos="696" pan="0" len="72" vol="50" />
          <note key="62" pos="768" pan="0" len="384" vol="50" />
          <note key="64" pos="1152" pan="0" len="384" vol="50" />
        </pattern>
        <pattern pos="14592" muted="0" steps="16" name="" type="1">
          <note key="67" pos="0" pan="0" len="384" vol="69" />
          <note key="67" pos="384" pan="0" len="384" vol="69" />
          <note key="67" pos="768" pan="0" len="384" vol="69" />
          <note key="67" pos="1152" pan="0" len="384" vol="69" />
        </pattern>
        <pattern pos="16128" muted="0" steps="16" name="" type="1">
          <note key="62" pos="0" pan="0" len="384" vol="52" />
          <note key="60" pos="384" pan="0" len="288" vol="50" />
          <note key="58" pos="672" pan="0" len="96" vol="50" />
          <note key="62" pos="768" pan="0" len="384" vol="50" />
          <note key="64" pos="1152" pan="0" len="192" vol="50" />
        </pattern>
        <pattern pos="19200" muted="0" steps="16" name="" type="1">
          <note key="65" pos="768" pan="0" len="384" vol="34" />
          <note key="60" pos="1152" pan="0" len="192" vol="34" />
          <note key="60" pos="1344" pan="0" len="192" vol="34" />
        </pattern>
        <pattern pos="20736" muted="0" steps="16" name="" type="1">
          <note key="63" pos="0" pan="0" len="384" vol="34" />
          <note key="67" pos="384" pan="0" len="384" vol="34" />
          <note key="65" pos="768" pan="0" len="384" vol="34" />
          <note key="60" pos="1152" pan="0" len="384" vol="34" />
        </pattern>
        <pattern pos="29568" muted="0" steps="16" name="" type="1">
          <note key="65" pos="144" pan="0" len="528" vol="8" />
          <note key="65" pos="672" pan="0" len="480" vol="8" />
        </pattern>
        <pattern pos="30720" muted="0" steps="16" name="" type="1">
          <note key="67" pos="576" pan="0" len="288" vol="52" />
          <note key="65" pos="864" pan="0" len="192" vol="52" />
        </pattern>
        <pattern pos="31872" muted="0" steps="16" name="" type="1">
          <note key="63" pos="0" pan="0" len="288" vol="50" />
          <note key="67" pos="288" pan="0" len="288" vol="50" />
          <note key="65" pos="576" pan="0" len="288" vol="50" />
          <note key="63" pos="864" pan="0" len="288" vol="50" />
        </pattern>
        <pattern pos="33024" muted="0" steps="16" name="" type="1">
          <note key="63" pos="0" pan="0" len="288" vol="50" />
          <note key="67" pos="288" pan="0" len="288" vol="50" />
          <note key="65" pos="576" pan="0" len="408" vol="50" />
        </pattern>
        <pattern pos="34176" muted="0" steps="16" name="" type="1">
          <note key="70" pos="0" pan="0" len="288" vol="100" />
          <note key="70" pos="288" pan="0" len="288" vol="100" />
          <note key="68" pos="576" pan="0" len="288" vol="100" />
          <note key="70" pos="864" pan="0" len="288" vol="100" />
        </pattern>
        <pattern pos="35328" muted="0" steps="16" name="" type="1">
          <note key="70" pos="0" pan="0" len="288" vol="100" />
          <note key="70" pos="288" pan="0" len="288" vol="100" />
          <note key="78" pos="576" pan="0" len="288" vol="100" />
          <note key="80" pos="864" pan="0" len="144" vol="100" />
        </pattern>
        <pattern pos="36480" muted="0" steps="16" name="" type="1">
          <note key="67" pos="0" pan="0" len="288" vol="100" />
          <note key="67" pos="288" pan="0" len="288" vol="100" />
          <note key="65" pos="576" pan="0" len="288" vol="100" />
          <note key="67" pos="864" pan="0" len="288" vol="100" />
        </pattern>
        <pattern pos="37632" muted="0" steps="16" name="" type="1">
          <note key="67" pos="0" pan="0" len="288" vol="100" />
          <note key="67" pos="288" pan="0" len="288" vol="100" />
          <note key="65" pos="576" pan="0" len="288" vol="100" />
          <note key="60" pos="864" pan="0" len="192" vol="100" />
        </pattern>
        <pattern pos="38784" muted="0" steps="16" name="" type="1">
          <note key="67" pos="576" pan="0" len="288" vol="52" />
          <note key="65" pos="864" pan="0" len="192" vol="52" />
        </pattern>
        <pattern pos="84480" muted="0" steps="16" name="" type="1">
          <note key="70" pos="384" pan="0" len="384" vol="50" />
        </pattern>
        <pattern pos="85248" muted="0" steps="16" name="" type="1">
          <note key="69" pos="0" pan="0" len="384" vol="50" />
          <note key="70" pos="384" pan="0" len="288" vol="50" />
          <note key="69" pos="672" pan="0" len="96" vol="34" />
        </pattern>
        <pattern pos="87552" muted="0" steps="16" name="" type="1">
          <note key="60" pos="0" pan="0" len="48" vol="34" />
          <note key="60" pos="192" pan="0" len="60" vol="34" />
          <note key="60" pos="384" pan="0" len="60" vol="34" />
          <note key="60" pos="576" pan="0" len="48" vol="34" />
          <note key="60" pos="672" pan="0" len="48" vol="34" />
        </pattern>
        <pattern pos="91392" muted="0" steps="16" name="" type="1">
          <note key="67" pos="276" pan="0" len="492" vol="2" />
        </pattern>
        <pattern pos="95232" muted="0" steps="16" name="" type="1">
          <note key="60" pos="0" pan="0" len="768" vol="34" />
          <note key="63" pos="768" pan="0" len="384" vol="52" />
          <note key="65" pos="1152" pan="0" len="384" vol="34" />
        </pattern>
        <pattern pos="96768" muted="0" steps="16" name="" type="1">
          <note key="60" pos="0" pan="0" len="768" vol="34" />
          <note key="63" pos="768" pan="0" len="384" vol="52" />
          <note key="65" pos="1152" pan="0" len="384" vol="34" />
        </pattern>
        <pattern pos="98304" muted="0" steps="16" name="" type="1">
          <note key="60" pos="0" pan="0" len="768" vol="34" />
          <note key="63" pos="768" pan="0" len="384" vol="52" />
          <note key="65" pos="1152" pan="0" len="384" vol="34" />
        </pattern>
        <pattern pos="99840" muted="0" steps="16" name="" type="1">
          <note key="60" pos="0" pan="0" len="768" vol="34" />
          <note key="63" pos="768" pan="0" len="384" vol="52" />
          <note key="65" pos="1152" pan="0" len="384" vol="34" />
        </pattern>
        <pattern pos="101376" muted="0" steps="16" name="" type="1">
          <note key="62" pos="0" pan="0" len="768" vol="34" />
          <note key="69" pos="768" pan="0" len="768" vol="52" />
        </pattern>
        <pattern pos="102912" muted="0" steps="16" name="" type="1">
          <note key="62" pos="0" pan="0" len="768" vol="34" />
          <note key="69" pos="768" pan="0" len="768" vol="52" />
        </pattern>
        <pattern pos="104448" muted="0" steps="16" name="" type="1">
          <note key="62" pos="0" pan="0" len="768" vol="34" />
          <note key="57" pos="768" pan="0" len="768" vol="34" />
        </pattern>
        <pattern pos="105984" muted="0" steps="16" name="" type="1">
          <note key="62" pos="0" pan="0" len="768" vol="34" />
          <note key="57" pos="768" pan="0" len="384" vol="34" />
          <note key="57" pos="1152" pan="0" len="384" vol="69" />
        </pattern>
        <pattern pos="107520" muted="0" steps="16" name="" type="1">
          <note key="62" pos="0" pan="0" len="192" vol="50" />
          <note key="65" pos="192" pan="0" len="192" vol="50" />
          <note key="69" pos="384" pan="0" len="192" vol="50" />
          <note key="67" pos="576" pan="0" len="192" vol="50" />
          <note key="62" pos="768" pan="0" len="192" vol="50" />
          <note key="65" pos="960" pan="0" len="192" vol="50" />
          <note key="69" pos="1152" pan="0" len="192" vol="50" />
          <note key="67" pos="1344" pan="0" len="192" vol="50" />
        </pattern>
        <pattern pos="109056" muted="0" steps="16" name="" type="1">
          <note key="62" pos="0" pan="0" len="192" vol="50" />
          <note key="65" pos="192" pan="0" len="192" vol="50" />
          <note key="69" pos="384" pan="0" len="192" vol="50" />
          <note key="67" pos="576" pan="0" len="192" vol="50" />
          <note key="62" pos="768" pan="0" len="192" vol="50" />
          <note key="65" pos="960" pan="0" len="192" vol="50" />
          <note key="69" pos="1152" pan="0" len="192" vol="50" />
          <note key="67" pos="1344" pan="0" len="192" vol="50" />
        </pattern>
        <pattern pos="110592" muted="0" steps="16" name="" type="1">
          <note key="65" pos="0" pan="0" len="384" vol="50" />
          <note key="68" pos="384" pan="0" len="384" vol="50" />
          <note key="72" pos="768" pan="0" len="384" vol="50" />
          <note key="70" pos="1152" pan="0" len="384" vol="50" />
        </pattern>
        <pattern pos="112128" muted="0" steps="16" name="" type="1">
          <note key="65" pos="0" pan="0" len="384" vol="50" />
          <note key="68" pos="384" pan="0" len="384" vol="50" />
          <note key="72" pos="768" pan="0" len="384" vol="50" />
          <note key="70" pos="1152" pan="0" len="384" vol="50" />
        </pattern>
        <pattern pos="113664" muted="0" steps="16" name="" type="1">
          <note key="70" pos="0" pan="0" len="1536" vol="2" />
        </pattern>
        <pattern pos="115200" muted="0" steps="16" name="" type="1">
          <note key="77" pos="0" pan="0" len="672" vol="2" />
          <note key="70" pos="768" pan="0" len="384" vol="69" />
          <note key="67" pos="1152" pan="0" len="384" vol="34" />
        </pattern>
        <pattern pos="116736" muted="0" steps="16" name="" type="1">
          <note key="70" pos="0" pan="0" len="1536" vol="23" />
        </pattern>
        <pattern pos="118272" muted="0" steps="16" name="" type="1">
          <note key="77" pos="0" pan="0" len="672" vol="2" />
          <note key="70" pos="768" pan="0" len="384" vol="69" />
          <note key="67" pos="1152" pan="0" len="384" vol="34" />
        </pattern>
        <pattern pos="119808" muted="0" steps="16" name="" type="1">
          <note key="70" pos="0" pan="0" len="1536" vol="23" />
        </pattern>
        <pattern pos="121344" muted="0" steps="16" name="" type="1">
          <note key="77" pos="0" pan="0" len="672" vol="2" />
          <note key="70" pos="768" pan="0" len="384" vol="69" />
          <note key="65" pos="1152" pan="0" len="384" vol="34" />
        </pattern>
        <pattern pos="122880" muted="0" steps="16" name="" type="1">
          <note key="60" pos="0" pan="0" len="768" vol="34" />
          <note key="63" pos="768" pan="0" len="384" vol="52" />
          <note key="65" pos="1152" pan="0" len="384" vol="34" />
        </pattern>
        <pattern pos="124416" muted="0" steps="16" name="" type="1">
          <note key="60" pos="0" pan="0" len="768" vol="34" />
          <note key="63" pos="768" pan="0" len="384" vol="52" />
          <note key="65" pos="1152" pan="0" len="384" vol="34" />
        </pattern>
        <pattern pos="129024" muted="0" steps="16" name="" type="1">
          <note key="60" pos="0" pan="0" len="576" vol="34" />
          <note key="60" pos="576" pan="0" len="192" vol="34" />
          <note key="63" pos="768" pan="0" len="384" vol="34" />
          <note key="60" pos="1152" pan="0" len="384" vol="34" />
        </pattern>
        <pattern pos="130560" muted="0" steps="16" name="" type="1">
          <note key="60" pos="0" pan="0" len="576" vol="34" />
          <note key="60" pos="576" pan="0" len="192" vol="34" />
          <note key="63" pos="768" pan="0" len="384" vol="34" />
          <note key="60" pos="1152" pan="0" len="384" vol="34" />
        </pattern>
        <pattern pos="132096" muted="0" steps="16" name="" type="1">
          <note key="60" pos="0" pan="0" len="576" vol="34" />
          <note key="60" pos="576" pan="0" len="192" vol="34" />
          <note key="63" pos="768" pan="0" len="384" vol="34" />
          <note key="72" pos="1152" pan="0" len="384" vol="34" />
        </pattern>
        <pattern pos="133632" muted="0" steps="16" name="" type="1">
          <note key="60" pos="0" pan="0" len="576" vol="34" />
          <note key="60" pos="576" pan="0" len="192" vol="34" />
          <note key="63" pos="768" pan="0" len="384" vol="34" />
          <note key="60" pos="1152" pan="0" len="192" vol="100" />
          <note key="57" pos="1344" pan="0" len="192" vol="34" />
        </pattern>
        <pattern pos="135168" muted="0" steps="16" name="" type="1">
          <note key="58" pos="0" pan="0" len="384" vol="34" />
          <note key="57" pos="384" pan="0" len="384" vol="34" />
          <note key="58" pos="768" pan="0" len="384" vol="34" />
          <note key="57" pos="1152" pan="0" len="384" vol="34" />
        </pattern>
        <pattern pos="221376" muted="0" steps="16" name="" type="1">
          <note key="63" pos="0" pan="0" len="576" vol="52" />
          <note key="60" pos="576" pan="0" len="192" vol="86" />
          <note key="67" pos="768" pan="0" len="480" vol="52" />
          <note key="70" pos="1248" pan="0" len="96" vol="86" />
          <note key="70" pos="1344" pan="0" len="192" vol="69" />
        </pattern>
        <pattern pos="222912" muted="0" steps="16" name="" type="1">
          <note key="63" pos="0" pan="0" len="576" vol="52" />
          <note key="60" pos="576" pan="0" len="192" vol="86" />
          <note key="67" pos="768" pan="0" len="480" vol="52" />
          <note key="70" pos="1248" pan="0" len="96" vol="86" />
          <note key="70" pos="1344" pan="0" len="192" vol="69" />
        </pattern>
        <pattern pos="227520" muted="0" steps="16" name="" type="1">
          <note key="63" pos="0" pan="0" len="576" vol="52" />
          <note key="60" pos="576" pan="0" len="192" vol="86" />
          <note key="67" pos="768" pan="0" len="480" vol="52" />
          <note key="70" pos="1248" pan="0" len="96" vol="86" />
          <note key="70" pos="1344" pan="0" len="192" vol="69" />
        </pattern>
        <pattern pos="229056" muted="0" steps="16" name="" type="1">
          <note key="63" pos="0" pan="0" len="480" vol="52" />
          <note key="67" pos="480" pan="0" len="96" vol="86" />
          <note key="60" pos="576" pan="0" len="192" vol="86" />
          <note key="67" pos="768" pan="0" len="480" vol="52" />
          <note key="70" pos="1248" pan="0" len="96" vol="86" />
          <note key="70" pos="1344" pan="0" len="96" vol="69" />
          <note key="74" pos="1440" pan="0" len="96" vol="69" />
        </pattern>
        <pattern pos="232128" muted="0" steps="16" name="" type="1">
          <note key="57" pos="960" pan="0" len="192" vol="2" />
          <note key="58" pos="1152" pan="0" len="384" vol="100" />
        </pattern>
        <pattern pos="261504" muted="0" steps="16" name="" type="1">
          <note key="80" pos="0" pan="0" len="192" vol="70" />
          <note key="78" pos="192" pan="0" len="192" vol="70" />
          <note key="77" pos="384" pan="0" len="192" vol="70" />
          <note key="78" pos="576" pan="0" len="192" vol="70" />
        </pattern>
        <pattern pos="262272" muted="0" steps="16" name="" type="1">
          <note key="80" pos="0" pan="0" len="192" vol="70" />
          <note key="78" pos="192" pan="0" len="192" vol="70" />
          <note key="77" pos="384" pan="0" len="192" vol="70" />
          <note key="65" pos="576" pan="0" len="192" vol="70" />
        </pattern>
        <pattern pos="263040" muted="0" steps="16" name="" type="1">
          <note key="77" pos="0" pan="0" len="192" vol="70" />
          <note key="75" pos="192" pan="0" len="192" vol="70" />
          <note key="74" pos="384" pan="0" len="192" vol="70" />
          <note key="75" pos="576" pan="0" len="192" vol="70" />
        </pattern>
        <pattern pos="263808" muted="0" steps="16" name="" type="1">
          <note key="77" pos="0" pan="0" len="192" vol="70" />
          <note key="75" pos="192" pan="0" len="192" vol="70" />
          <note key="74" pos="384" pan="0" len="192" vol="70" />
          <note key="62" pos="576" pan="0" len="120" vol="70" />
        </pattern>
        <pattern pos="266112" muted="0" steps="16" name="" type="1">
          <note key="65" pos="0" pan="0" len="384" vol="69" />
          <note key="63" pos="384" pan="0" len="288" vol="69" />
          <note key="62" pos="672" pan="0" len="96" vol="69" />
          <note key="65" pos="768" pan="0" len="384" vol="69" />
          <note key="63" pos="1152" pan="0" len="288" vol="69" />
          <note key="62" pos="1440" pan="0" len="96" vol="69" />
        </pattern>
      </track>
      <track solo="0" name="11 (Ch11)" type="0" muted="0">
        <instrumenttrack usemasterpitch="1" pitch="0.0" basenote="57" pan="0" pitchrange="12" vol="30">
          <eldata />
          <instrument name="tripleoscillator" />
        </instrumenttrack>
        <pattern pos="232128" muted="0" steps="16" name="" type="1">
          <note key="62" pos="960" pan="0" len="192" vol="2" />
          <note key="62" pos="1152" pan="0" len="384" vol="100" />
        </pattern>
        <pattern pos="2304" muted="0" steps="16" name="" type="1">
          <note key="60" pos="0" pan="0" len="576" vol="34" />
          <note key="69" pos="576" pan="0" len="192" vol="50" />
        </pattern>
        <pattern pos="3072" muted="0" steps="16" name="" type="1">
          <note key="60" pos="0" pan="0" len="576" vol="34" />
          <note key="69" pos="576" pan="0" len="192" vol="50" />
        </pattern>
        <pattern pos="11520" muted="0" steps="16" name="" type="1">
          <note key="72" pos="0" pan="0" len="384" vol="69" />
          <note key="70" pos="384" pan="0" len="384" vol="69" />
          <note key="72" pos="768" pan="0" len="384" vol="69" />
          <note key="70" pos="1152" pan="0" len="384" vol="69" />
        </pattern>
        <pattern pos="13056" muted="0" steps="16" name="" type="1">
          <note key="65" pos="0" pan="0" len="384" vol="52" />
          <note key="64" pos="384" pan="0" len="312" vol="50" />
          <note key="62" pos="696" pan="0" len="72" vol="50" />
          <note key="65" pos="768" pan="0" len="384" vol="50" />
          <note key="67" pos="1152" pan="0" len="384" vol="50" />
        </pattern>
        <pattern pos="14592" muted="0" steps="16" name="" type="1">
          <note key="72" pos="0" pan="0" len="384" vol="69" />
          <note key="70" pos="384" pan="0" len="384" vol="69" />
          <note key="72" pos="768" pan="0" len="384" vol="69" />
          <note key="70" pos="1152" pan="0" len="384" vol="69" />
        </pattern>
        <pattern pos="16128" muted="0" steps="16" name="" type="1">
          <note key="65" pos="0" pan="0" len="384" vol="52" />
          <note key="64" pos="384" pan="0" len="288" vol="50" />
          <note key="62" pos="672" pan="0" len="96" vol="50" />
          <note key="65" pos="768" pan="0" len="384" vol="50" />
          <note key="67" pos="1152" pan="0" len="192" vol="50" />
        </pattern>
        <pattern pos="19200" muted="0" steps="16" name="" type="1">
          <note key="69" pos="768" pan="0" len="384" vol="34" />
          <note key="63" pos="1152" pan="0" len="192" vol="34" />
          <note key="65" pos="1344" pan="0" len="192" vol="34" />
        </pattern>
        <pattern pos="20736" muted="0" steps="16" name="" type="1">
          <note key="70" pos="0" pan="0" len="384" vol="34" />
          <note key="72" pos="384" pan="0" len="384" vol="34" />
          <note key="69" pos="768" pan="0" len="384" vol="34" />
          <note key="65" pos="1152" pan="0" len="384" vol="34" />
        </pattern>
        <pattern pos="29568" muted="0" steps="16" name="" type="1">
          <note key="67" pos="144" pan="0" len="528" vol="8" />
          <note key="69" pos="672" pan="0" len="480" vol="8" />
        </pattern>
        <pattern pos="30720" muted="0" steps="16" name="" type="1">
          <note key="70" pos="576" pan="0" len="288" vol="52" />
          <note key="69" pos="864" pan="0" len="192" vol="52" />
        </pattern>
        <pattern pos="31872" muted="0" steps="16" name="" type="1">
          <note key="67" pos="0" pan="0" len="288" vol="50" />
          <note key="70" pos="288" pan="0" len="288" vol="50" />
          <note key="69" pos="576" pan="0" len="288" vol="50" />
          <note key="67" pos="864" pan="0" len="288" vol="50" />
        </pattern>
        <pattern pos="33024" muted="0" steps="16" name="" type="1">
          <note key="67" pos="0" pan="0" len="288" vol="50" />
          <note key="70" pos="288" pan="0" len="288" vol="50" />
          <note key="69" pos="576" pan="0" len="384" vol="50" />
          <note key="70" pos="960" pan="0" len="120" vol="50" />
        </pattern>
        <pattern pos="34176" muted="0" steps="16" name="" type="1">
          <note key="75" pos="0" pan="0" len="288" vol="100" />
          <note key="73" pos="288" pan="0" len="288" vol="100" />
          <note key="72" pos="576" pan="0" len="288" vol="100" />
          <note key="73" pos="864" pan="0" len="288" vol="100" />
        </pattern>
        <pattern pos="35328" muted="0" steps="16" name="" type="1">
          <note key="75" pos="0" pan="0" len="288" vol="100" />
          <note key="73" pos="288" pan="0" len="288" vol="100" />
          <note key="75" pos="576" pan="0" len="288" vol="100" />
          <note key="75" pos="864" pan="0" len="144" vol="100" />
        </pattern>
        <pattern pos="36480" muted="0" steps="16" name="" type="1">
          <note key="72" pos="0" pan="0" len="288" vol="100" />
          <note key="70" pos="288" pan="0" len="288" vol="100" />
          <note key="69" pos="576" pan="0" len="288" vol="100" />
          <note key="70" pos="864" pan="0" len="288" vol="100" />
        </pattern>
        <pattern pos="37632" muted="0" steps="16" name="" type="1">
          <note key="72" pos="0" pan="0" len="288" vol="100" />
          <note key="70" pos="288" pan="0" len="288" vol="100" />
          <note key="69" pos="576" pan="0" len="288" vol="100" />
          <note key="65" pos="864" pan="0" len="192" vol="100" />
        </pattern>
        <pattern pos="38784" muted="0" steps="16" name="" type="1">
          <note key="70" pos="576" pan="0" len="288" vol="52" />
          <note key="69" pos="864" pan="0" len="192" vol="52" />
        </pattern>
        <pattern pos="86016" muted="0" steps="16" name="" type="1">
          <note key="60" pos="0" pan="0" len="48" vol="34" />
          <note key="60" pos="192" pan="0" len="48" vol="34" />
          <note key="60" pos="384" pan="0" len="60" vol="34" />
          <note key="60" pos="576" pan="0" len="60" vol="34" />
        </pattern>
        <pattern pos="87552" muted="0" steps="16" name="" type="1">
          <note key="63" pos="0" pan="0" len="48" vol="34" />
          <note key="67" pos="192" pan="0" len="60" vol="34" />
          <note key="65" pos="384" pan="0" len="60" vol="34" />
          <note key="67" pos="576" pan="0" len="48" vol="34" />
          <note key="65" pos="672" pan="0" len="48" vol="34" />
        </pattern>
        <pattern pos="95232" muted="0" steps="16" name="" type="1">
          <note key="63" pos="0" pan="0" len="768" vol="34" />
          <note key="67" pos="768" pan="0" len="384" vol="52" />
          <note key="69" pos="1152" pan="0" len="384" vol="34" />
        </pattern>
        <pattern pos="96768" muted="0" steps="16" name="" type="1">
          <note key="63" pos="0" pan="0" len="768" vol="34" />
          <note key="67" pos="768" pan="0" len="384" vol="52" />
          <note key="69" pos="1152" pan="0" len="384" vol="34" />
        </pattern>
        <pattern pos="98304" muted="0" steps="16" name="" type="1">
          <note key="63" pos="0" pan="0" len="768" vol="34" />
          <note key="67" pos="768" pan="0" len="384" vol="52" />
          <note key="69" pos="1152" pan="0" len="384" vol="34" />
        </pattern>
        <pattern pos="99840" muted="0" steps="16" name="" type="1">
          <note key="63" pos="0" pan="0" len="768" vol="34" />
          <note key="67" pos="768" pan="0" len="384" vol="52" />
          <note key="69" pos="1152" pan="0" len="384" vol="34" />
        </pattern>
        <pattern pos="101376" muted="0" steps="16" name="" type="1">
          <note key="65" pos="0" pan="0" len="768" vol="34" />
          <note key="62" pos="768" pan="0" len="768" vol="52" />
        </pattern>
        <pattern pos="102912" muted="0" steps="16" name="" type="1">
          <note key="65" pos="0" pan="0" len="768" vol="34" />
          <note key="62" pos="768" pan="0" len="768" vol="52" />
        </pattern>
        <pattern pos="104448" muted="0" steps="16" name="" type="1">
          <note key="67" pos="0" pan="0" len="768" vol="34" />
          <note key="62" pos="768" pan="0" len="768" vol="34" />
        </pattern>
        <pattern pos="105984" muted="0" steps="16" name="" type="1">
          <note key="67" pos="0" pan="0" len="768" vol="34" />
          <note key="62" pos="768" pan="0" len="384" vol="34" />
          <note key="62" pos="1152" pan="0" len="384" vol="69" />
        </pattern>
        <pattern pos="107520" muted="0" steps="16" name="" type="1">
          <note key="65" pos="0" pan="0" len="192" vol="50" />
          <note key="69" pos="192" pan="0" len="192" vol="50" />
          <note key="72" pos="384" pan="0" len="192" vol="50" />
          <note key="72" pos="576" pan="0" len="192" vol="50" />
          <note key="65" pos="768" pan="0" len="192" vol="50" />
          <note key="69" pos="960" pan="0" len="192" vol="50" />
          <note key="72" pos="1152" pan="0" len="192" vol="50" />
          <note key="72" pos="1344" pan="0" len="192" vol="50" />
        </pattern>
        <pattern pos="109056" muted="0" steps="16" name="" type="1">
          <note key="65" pos="0" pan="0" len="192" vol="50" />
          <note key="69" pos="192" pan="0" len="192" vol="50" />
          <note key="72" pos="384" pan="0" len="192" vol="50" />
          <note key="72" pos="576" pan="0" len="192" vol="50" />
          <note key="65" pos="768" pan="0" len="192" vol="50" />
          <note key="69" pos="960" pan="0" len="192" vol="50" />
          <note key="72" pos="1152" pan="0" len="192" vol="50" />
          <note key="72" pos="1344" pan="0" len="192" vol="50" />
        </pattern>
        <pattern pos="110592" muted="0" steps="16" name="" type="1">
          <note key="68" pos="0" pan="0" len="384" vol="50" />
          <note key="72" pos="384" pan="0" len="384" vol="50" />
          <note key="75" pos="768" pan="0" len="384" vol="50" />
          <note key="75" pos="1152" pan="0" len="384" vol="50" />
        </pattern>
        <pattern pos="112128" muted="0" steps="16" name="" type="1">
          <note key="68" pos="0" pan="0" len="384" vol="50" />
          <note key="72" pos="384" pan="0" len="384" vol="50" />
          <note key="75" pos="768" pan="0" len="384" vol="50" />
          <note key="75" pos="1152" pan="0" len="384" vol="50" />
        </pattern>
        <pattern pos="113664" muted="0" steps="16" name="" type="1">
          <note key="72" pos="0" pan="0" len="1536" vol="2" />
        </pattern>
        <pattern pos="115200" muted="0" steps="16" name="" type="1">
          <note key="67" pos="0" pan="0" len="672" vol="2" />
          <note key="72" pos="768" pan="0" len="384" vol="69" />
          <note key="70" pos="1152" pan="0" len="384" vol="34" />
        </pattern>
        <pattern pos="116736" muted="0" steps="16" name="" type="1">
          <note key="72" pos="0" pan="0" len="1536" vol="23" />
        </pattern>
        <pattern pos="118272" muted="0" steps="16" name="" type="1">
          <note key="67" pos="0" pan="0" len="672" vol="2" />
          <note key="72" pos="768" pan="0" len="384" vol="69" />
          <note key="70" pos="1152" pan="0" len="384" vol="34" />
        </pattern>
        <pattern pos="119808" muted="0" steps="16" name="" type="1">
          <note key="72" pos="0" pan="0" len="1536" vol="23" />
        </pattern>
        <pattern pos="121344" muted="0" steps="16" name="" type="1">
          <note key="67" pos="0" pan="0" len="672" vol="2" />
          <note key="72" pos="768" pan="0" len="384" vol="69" />
          <note key="70" pos="1152" pan="0" len="384" vol="34" />
        </pattern>
        <pattern pos="122880" muted="0" steps="16" name="" type="1">
          <note key="63" pos="0" pan="0" len="768" vol="34" />
          <note key="67" pos="768" pan="0" len="384" vol="52" />
          <note key="69" pos="1152" pan="0" len="384" vol="34" />
        </pattern>
        <pattern pos="124416" muted="0" steps="16" name="" type="1">
          <note key="63" pos="0" pan="0" len="768" vol="34" />
          <note key="67" pos="768" pan="0" len="384" vol="52" />
          <note key="69" pos="1152" pan="0" len="384" vol="34" />
        </pattern>
        <pattern pos="129024" muted="0" steps="16" name="" type="1">
          <note key="63" pos="0" pan="0" len="576" vol="34" />
          <note key="65" pos="576" pan="0" len="192" vol="34" />
          <note key="67" pos="768" pan="0" len="384" vol="34" />
          <note key="65" pos="1152" pan="0" len="384" vol="34" />
        </pattern>
        <pattern pos="130560" muted="0" steps="16" name="" type="1">
          <note key="63" pos="0" pan="0" len="576" vol="34" />
          <note key="65" pos="576" pan="0" len="192" vol="34" />
          <note key="67" pos="768" pan="0" len="384" vol="34" />
          <note key="65" pos="1152" pan="0" len="384" vol="34" />
        </pattern>
        <pattern pos="132096" muted="0" steps="16" name="" type="1">
          <note key="63" pos="0" pan="0" len="576" vol="34" />
          <note key="65" pos="576" pan="0" len="192" vol="34" />
          <note key="67" pos="768" pan="0" len="384" vol="34" />
          <note key="65" pos="1152" pan="0" len="384" vol="34" />
        </pattern>
        <pattern pos="133632" muted="0" steps="16" name="" type="1">
          <note key="63" pos="0" pan="0" len="576" vol="34" />
          <note key="65" pos="576" pan="0" len="192" vol="34" />
          <note key="67" pos="768" pan="0" len="384" vol="34" />
          <note key="65" pos="1152" pan="0" len="192" vol="100" />
          <note key="60" pos="1344" pan="0" len="192" vol="34" />
        </pattern>
        <pattern pos="135168" muted="0" steps="16" name="" type="1">
          <note key="60" pos="0" pan="0" len="384" vol="34" />
          <note key="60" pos="384" pan="0" len="384" vol="34" />
          <note key="60" pos="768" pan="0" len="384" vol="34" />
          <note key="60" pos="1152" pan="0" len="384" vol="34" />
        </pattern>
        <pattern pos="145920" muted="0" steps="16" name="" type="1">
          <note key="68" pos="0" pan="0" len="384" vol="34" />
          <note key="67" pos="384" pan="0" len="192" vol="34" />
          <note key="67" pos="768" pan="0" len="384" vol="34" />
          <note key="67" pos="1152" pan="0" len="192" vol="34" />
        </pattern>
        <pattern pos="147456" muted="0" steps="16" name="" type="1">
          <note key="68" pos="0" pan="0" len="384" vol="34" />
          <note key="67" pos="384" pan="0" len="192" vol="34" />
          <note key="67" pos="768" pan="0" len="384" vol="34" />
          <note key="65" pos="1152" pan="0" len="192" vol="34" />
        </pattern>
        <pattern pos="158208" muted="0" steps="16" name="" type="1">
          <note key="68" pos="0" pan="0" len="384" vol="34" />
          <note key="67" pos="384" pan="0" len="192" vol="34" />
          <note key="67" pos="768" pan="0" len="384" vol="34" />
          <note key="67" pos="1152" pan="0" len="192" vol="34" />
        </pattern>
        <pattern pos="159744" muted="0" steps="16" name="" type="1">
          <note key="68" pos="0" pan="0" len="384" vol="34" />
          <note key="67" pos="384" pan="0" len="192" vol="34" />
          <note key="67" pos="768" pan="0" len="384" vol="34" />
          <note key="65" pos="1152" pan="0" len="192" vol="34" />
        </pattern>
        <pattern pos="202752" muted="0" steps="16" name="" type="1">
          <note key="59" pos="0" pan="0" len="384" vol="33" />
          <note key="60" pos="384" pan="0" len="192" vol="33" />
          <note key="57" pos="576" pan="0" len="192" vol="33" />
          <note key="59" pos="768" pan="0" len="384" vol="33" />
          <note key="60" pos="1152" pan="0" len="192" vol="33" />
          <note key="60" pos="1344" pan="0" len="96" vol="33" />
          <note key="59" pos="1440" pan="0" len="96" vol="33" />
        </pattern>
        <pattern pos="208896" muted="0" steps="16" name="" type="1">
          <note key="59" pos="0" pan="0" len="384" vol="33" />
          <note key="60" pos="384" pan="0" len="192" vol="33" />
          <note key="57" pos="576" pan="0" len="192" vol="33" />
          <note key="59" pos="768" pan="0" len="384" vol="33" />
          <note key="60" pos="1152" pan="0" len="192" vol="33" />
          <note key="60" pos="1344" pan="0" len="96" vol="33" />
          <note key="59" pos="1440" pan="0" len="96" vol="33" />
        </pattern>
        <pattern pos="221376" muted="0" steps="16" name="" type="1">
          <note key="67" pos="0" pan="0" len="576" vol="52" />
          <note key="65" pos="576" pan="0" len="192" vol="86" />
          <note key="70" pos="768" pan="0" len="480" vol="52" />
          <note key="74" pos="1248" pan="0" len="96" vol="86" />
          <note key="74" pos="1344" pan="0" len="192" vol="69" />
        </pattern>
        <pattern pos="222912" muted="0" steps="16" name="" type="1">
          <note key="67" pos="0" pan="0" len="576" vol="52" />
          <note key="65" pos="576" pan="0" len="192" vol="86" />
          <note key="70" pos="768" pan="0" len="480" vol="52" />
          <note key="74" pos="1248" pan="0" len="96" vol="86" />
          <note key="74" pos="1344" pan="0" len="192" vol="69" />
        </pattern>
        <pattern pos="227520" muted="0" steps="16" name="" type="1">
          <note key="67" pos="0" pan="0" len="576" vol="52" />
          <note key="65" pos="576" pan="0" len="192" vol="86" />
          <note key="70" pos="768" pan="0" len="480" vol="52" />
          <note key="74" pos="1248" pan="0" len="96" vol="86" />
          <note key="74" pos="1344" pan="0" len="192" vol="69" />
        </pattern>
        <pattern pos="229056" muted="0" steps="16" name="" type="1">
          <note key="67" pos="0" pan="0" len="480" vol="52" />
          <note key="70" pos="480" pan="0" len="96" vol="86" />
          <note key="65" pos="576" pan="0" len="192" vol="86" />
          <note key="70" pos="768" pan="0" len="480" vol="52" />
          <note key="74" pos="1248" pan="0" len="96" vol="86" />
          <note key="74" pos="1344" pan="0" len="96" vol="69" />
          <note key="77" pos="1440" pan="0" len="96" vol="69" />
        </pattern>
      </track>
      <track solo="0" name="11 (Ch12)" type="0" muted="0">
        <instrumenttrack usemasterpitch="1" pitch="0.0" basenote="57" pan="0" pitchrange="12" vol="30">
          <eldata />
          <instrument name="tripleoscillator" />
        </instrumenttrack>
        <pattern pos="256896" muted="0" steps="16" name="" type="1">
          <note key="72" pos="96" pan="0" len="336" vol="100" />
          <note key="63" pos="576" pan="0" len="192" vol="100" />
          <note key="63" pos="768" pan="0" len="588" vol="100" />
        </pattern>
        <pattern pos="2304" muted="0" steps="16" name="" type="1">
          <note key="67" pos="0" pan="0" len="576" vol="34" />
          <note key="65" pos="576" pan="0" len="192" vol="50" />
        </pattern>
        <pattern pos="3072" muted="0" steps="16" name="" type="1">
          <note key="67" pos="0" pan="0" len="576" vol="34" />
          <note key="65" pos="576" pan="0" len="192" vol="50" />
        </pattern>
        <pattern pos="19200" muted="0" steps="16" name="" type="1">
          <note key="72" pos="768" pan="0" len="384" vol="34" />
          <note key="70" pos="1152" pan="0" len="192" vol="34" />
          <note key="69" pos="1344" pan="0" len="192" vol="34" />
        </pattern>
        <pattern pos="22272" muted="0" steps="16" name="" type="1">
          <note key="63" pos="0" pan="0" len="384" vol="52" />
          <note key="65" pos="384" pan="0" len="384" vol="52" />
          <note key="69" pos="768" pan="0" len="384" vol="52" />
          <note key="60" pos="1152" pan="0" len="384" vol="50" />
        </pattern>
        <pattern pos="23808" muted="0" steps="16" name="" type="1">
          <note key="63" pos="0" pan="0" len="384" vol="52" />
          <note key="65" pos="384" pan="0" len="384" vol="52" />
          <note key="69" pos="768" pan="0" len="384" vol="52" />
          <note key="65" pos="1152" pan="0" len="192" vol="50" />
          <note key="60" pos="1344" pan="0" len="192" vol="50" />
        </pattern>
        <pattern pos="25344" muted="0" steps="16" name="" type="1">
          <note key="60" pos="0" pan="0" len="768" vol="52" />
          <note key="60" pos="768" pan="0" len="768" vol="52" />
        </pattern>
        <pattern pos="26880" muted="0" steps="16" name="" type="1">
          <note key="63" pos="0" pan="0" len="768" vol="52" />
          <note key="65" pos="768" pan="0" len="768" vol="52" />
        </pattern>
        <pattern pos="28416" muted="0" steps="16" name="" type="1">
          <note key="60" pos="0" pan="0" len="576" vol="52" />
          <note key="60" pos="576" pan="0" len="576" vol="52" />
        </pattern>
        <pattern pos="29568" muted="0" steps="16" name="" type="1">
          <note key="72" pos="144" pan="0" len="528" vol="8" />
          <note key="72" pos="672" pan="0" len="480" vol="8" />
        </pattern>
        <pattern pos="35328" muted="0" steps="16" name="" type="1">
          <note key="70" pos="576" pan="0" len="288" vol="100" />
          <note key="70" pos="864" pan="0" len="144" vol="100" />
        </pattern>
        <pattern pos="39936" muted="0" steps="16" name="" type="1">
          <note key="63" pos="0" pan="0" len="192" vol="34" />
        </pattern>
        <pattern pos="86016" muted="0" steps="16" name="" type="1">
          <note key="63" pos="0" pan="0" len="48" vol="34" />
          <note key="67" pos="192" pan="0" len="48" vol="34" />
          <note key="65" pos="384" pan="0" len="60" vol="34" />
          <note key="69" pos="576" pan="0" len="60" vol="34" />
        </pattern>
        <pattern pos="87552" muted="0" steps="16" name="" type="1">
          <note key="67" pos="0" pan="0" len="48" vol="34" />
          <note key="69" pos="192" pan="0" len="60" vol="34" />
          <note key="69" pos="384" pan="0" len="60" vol="34" />
          <note key="70" pos="576" pan="0" len="48" vol="34" />
          <note key="69" pos="672" pan="0" len="48" vol="34" />
        </pattern>
        <pattern pos="95232" muted="0" steps="16" name="" type="1">
          <note key="67" pos="0" pan="0" len="768" vol="34" />
          <note key="70" pos="768" pan="0" len="384" vol="52" />
          <note key="60" pos="1152" pan="0" len="384" vol="34" />
        </pattern>
        <pattern pos="96768" muted="0" steps="16" name="" type="1">
          <note key="67" pos="0" pan="0" len="768" vol="34" />
          <note key="70" pos="768" pan="0" len="384" vol="52" />
          <note key="60" pos="1152" pan="0" len="384" vol="34" />
        </pattern>
        <pattern pos="98304" muted="0" steps="16" name="" type="1">
          <note key="67" pos="0" pan="0" len="768" vol="34" />
          <note key="70" pos="768" pan="0" len="384" vol="52" />
          <note key="60" pos="1152" pan="0" len="384" vol="34" />
        </pattern>
        <pattern pos="99840" muted="0" steps="16" name="" type="1">
          <note key="67" pos="0" pan="0" len="768" vol="34" />
          <note key="70" pos="768" pan="0" len="384" vol="52" />
          <note key="60" pos="1152" pan="0" len="384" vol="34" />
        </pattern>
        <pattern pos="101376" muted="0" steps="16" name="" type="1">
          <note key="69" pos="0" pan="0" len="768" vol="34" />
          <note key="65" pos="768" pan="0" len="768" vol="52" />
        </pattern>
        <pattern pos="102912" muted="0" steps="16" name="" type="1">
          <note key="69" pos="0" pan="0" len="768" vol="34" />
          <note key="65" pos="768" pan="0" len="768" vol="52" />
        </pattern>
        <pattern pos="104448" muted="0" steps="16" name="" type="1">
          <note key="69" pos="0" pan="0" len="768" vol="34" />
          <note key="65" pos="768" pan="0" len="768" vol="34" />
        </pattern>
        <pattern pos="105984" muted="0" steps="16" name="" type="1">
          <note key="69" pos="0" pan="0" len="768" vol="34" />
          <note key="65" pos="768" pan="0" len="384" vol="34" />
          <note key="64" pos="1152" pan="0" len="384" vol="69" />
        </pattern>
        <pattern pos="107520" muted="0" steps="16" name="" type="1">
          <note key="69" pos="0" pan="0" len="192" vol="50" />
          <note key="72" pos="192" pan="0" len="192" vol="50" />
          <note key="76" pos="384" pan="0" len="192" vol="50" />
          <note key="74" pos="576" pan="0" len="192" vol="50" />
          <note key="69" pos="768" pan="0" len="192" vol="50" />
          <note key="72" pos="960" pan="0" len="192" vol="50" />
          <note key="76" pos="1152" pan="0" len="192" vol="50" />
          <note key="74" pos="1344" pan="0" len="192" vol="50" />
        </pattern>
        <pattern pos="109056" muted="0" steps="16" name="" type="1">
          <note key="69" pos="0" pan="0" len="192" vol="50" />
          <note key="72" pos="192" pan="0" len="192" vol="50" />
          <note key="76" pos="384" pan="0" len="192" vol="50" />
          <note key="74" pos="576" pan="0" len="192" vol="50" />
          <note key="69" pos="768" pan="0" len="192" vol="50" />
          <note key="72" pos="960" pan="0" len="192" vol="50" />
          <note key="76" pos="1152" pan="0" len="192" vol="50" />
          <note key="74" pos="1344" pan="0" len="192" vol="50" />
        </pattern>
        <pattern pos="110592" muted="0" steps="16" name="" type="1">
          <note key="72" pos="0" pan="0" len="384" vol="50" />
          <note key="75" pos="384" pan="0" len="384" vol="50" />
          <note key="79" pos="768" pan="0" len="384" vol="50" />
          <note key="77" pos="1152" pan="0" len="384" vol="50" />
        </pattern>
        <pattern pos="112128" muted="0" steps="16" name="" type="1">
          <note key="72" pos="0" pan="0" len="384" vol="50" />
          <note key="75" pos="384" pan="0" len="384" vol="50" />
          <note key="79" pos="768" pan="0" len="384" vol="50" />
          <note key="77" pos="1152" pan="0" len="384" vol="50" />
        </pattern>
        <pattern pos="113664" muted="0" steps="16" name="" type="1">
          <note key="75" pos="0" pan="0" len="1536" vol="2" />
        </pattern>
        <pattern pos="115200" muted="0" steps="16" name="" type="1">
          <note key="70" pos="0" pan="0" len="672" vol="2" />
          <note key="75" pos="768" pan="0" len="384" vol="69" />
          <note key="74" pos="1152" pan="0" len="384" vol="34" />
        </pattern>
        <pattern pos="116736" muted="0" steps="16" name="" type="1">
          <note key="75" pos="0" pan="0" len="1536" vol="23" />
        </pattern>
        <pattern pos="118272" muted="0" steps="16" name="" type="1">
          <note key="70" pos="0" pan="0" len="672" vol="2" />
          <note key="75" pos="768" pan="0" len="384" vol="69" />
          <note key="74" pos="1152" pan="0" len="384" vol="34" />
        </pattern>
        <pattern pos="119808" muted="0" steps="16" name="" type="1">
          <note key="75" pos="0" pan="0" len="1536" vol="23" />
        </pattern>
        <pattern pos="121344" muted="0" steps="16" name="" type="1">
          <note key="70" pos="0" pan="0" len="672" vol="2" />
          <note key="75" pos="768" pan="0" len="384" vol="69" />
          <note key="74" pos="1152" pan="0" len="384" vol="34" />
        </pattern>
        <pattern pos="122880" muted="0" steps="16" name="" type="1">
          <note key="67" pos="0" pan="0" len="768" vol="34" />
          <note key="70" pos="768" pan="0" len="384" vol="52" />
          <note key="60" pos="1152" pan="0" len="384" vol="34" />
        </pattern>
        <pattern pos="124416" muted="0" steps="16" name="" type="1">
          <note key="67" pos="0" pan="0" len="768" vol="34" />
          <note key="70" pos="768" pan="0" len="384" vol="52" />
          <note key="60" pos="1152" pan="0" len="384" vol="34" />
        </pattern>
        <pattern pos="129024" muted="0" steps="16" name="" type="1">
          <note key="67" pos="0" pan="0" len="576" vol="34" />
          <note key="70" pos="576" pan="0" len="192" vol="34" />
          <note key="70" pos="768" pan="0" len="384" vol="34" />
          <note key="69" pos="1152" pan="0" len="384" vol="34" />
        </pattern>
        <pattern pos="130560" muted="0" steps="16" name="" type="1">
          <note key="67" pos="0" pan="0" len="576" vol="34" />
          <note key="70" pos="576" pan="0" len="192" vol="34" />
          <note key="70" pos="768" pan="0" len="384" vol="34" />
          <note key="69" pos="1152" pan="0" len="384" vol="34" />
        </pattern>
        <pattern pos="132096" muted="0" steps="16" name="" type="1">
          <note key="67" pos="0" pan="0" len="576" vol="34" />
          <note key="70" pos="576" pan="0" len="192" vol="34" />
          <note key="70" pos="768" pan="0" len="384" vol="34" />
          <note key="69" pos="1152" pan="0" len="384" vol="34" />
        </pattern>
        <pattern pos="133632" muted="0" steps="16" name="" type="1">
          <note key="67" pos="0" pan="0" len="576" vol="34" />
          <note key="70" pos="576" pan="0" len="192" vol="34" />
          <note key="70" pos="768" pan="0" len="384" vol="34" />
          <note key="69" pos="1152" pan="0" len="192" vol="100" />
          <note key="65" pos="1344" pan="0" len="192" vol="34" />
        </pattern>
        <pattern pos="135168" muted="0" steps="16" name="" type="1">
          <note key="67" pos="0" pan="0" len="384" vol="34" />
          <note key="65" pos="384" pan="0" len="384" vol="34" />
          <note key="67" pos="768" pan="0" len="384" vol="34" />
          <note key="65" pos="1152" pan="0" len="384" vol="34" />
        </pattern>
        <pattern pos="136704" muted="0" steps="16" name="" type="1">
          <note key="65" pos="0" pan="0" len="192" vol="34" />
          <note key="58" pos="192" pan="0" len="192" vol="34" />
          <note key="57" pos="384" pan="0" len="384" vol="50" />
          <note key="58" pos="768" pan="0" len="384" vol="34" />
          <note key="57" pos="1152" pan="0" len="384" vol="17" />
        </pattern>
        <pattern pos="142848" muted="0" steps="16" name="" type="1">
          <note key="67" pos="0" pan="0" len="384" vol="34" />
          <note key="63" pos="384" pan="0" len="192" vol="34" />
          <note key="60" pos="576" pan="0" len="192" vol="34" />
          <note key="67" pos="768" pan="0" len="384" vol="100" />
          <note key="63" pos="1152" pan="0" len="192" vol="34" />
          <note key="60" pos="1344" pan="0" len="192" vol="34" />
        </pattern>
        <pattern pos="144384" muted="0" steps="16" name="" type="1">
          <note key="67" pos="0" pan="0" len="384" vol="34" />
          <note key="63" pos="384" pan="0" len="192" vol="34" />
          <note key="60" pos="576" pan="0" len="192" vol="34" />
          <note key="67" pos="768" pan="0" len="384" vol="100" />
          <note key="63" pos="1152" pan="0" len="192" vol="34" />
          <note key="60" pos="1344" pan="0" len="192" vol="34" />
        </pattern>
        <pattern pos="145920" muted="0" steps="16" name="" type="1">
          <note key="75" pos="0" pan="0" len="384" vol="34" />
          <note key="70" pos="384" pan="0" len="192" vol="34" />
          <note key="72" pos="768" pan="0" len="384" vol="34" />
          <note key="70" pos="1152" pan="0" len="192" vol="34" />
        </pattern>
        <pattern pos="147456" muted="0" steps="16" name="" type="1">
          <note key="75" pos="0" pan="0" len="384" vol="34" />
          <note key="70" pos="384" pan="0" len="192" vol="34" />
          <note key="72" pos="768" pan="0" len="384" vol="34" />
          <note key="70" pos="1152" pan="0" len="192" vol="34" />
        </pattern>
        <pattern pos="148992" muted="0" steps="16" name="" type="1">
          <note key="67" pos="0" pan="0" len="384" vol="34" />
          <note key="63" pos="384" pan="0" len="192" vol="34" />
          <note key="60" pos="576" pan="0" len="192" vol="34" />
          <note key="67" pos="768" pan="0" len="384" vol="100" />
          <note key="63" pos="1152" pan="0" len="192" vol="34" />
          <note key="60" pos="1344" pan="0" len="192" vol="34" />
        </pattern>
        <pattern pos="150528" muted="0" steps="16" name="" type="1">
          <note key="67" pos="0" pan="0" len="384" vol="34" />
          <note key="63" pos="384" pan="0" len="192" vol="34" />
          <note key="60" pos="576" pan="0" len="192" vol="34" />
          <note key="67" pos="768" pan="0" len="384" vol="100" />
          <note key="63" pos="1152" pan="0" len="192" vol="34" />
          <note key="60" pos="1344" pan="0" len="192" vol="34" />
        </pattern>
        <pattern pos="155136" muted="0" steps="16" name="" type="1">
          <note key="67" pos="0" pan="0" len="384" vol="34" />
          <note key="63" pos="384" pan="0" len="192" vol="34" />
          <note key="60" pos="576" pan="0" len="192" vol="34" />
          <note key="67" pos="768" pan="0" len="288" vol="100" />
          <note key="63" pos="1152" pan="0" len="192" vol="34" />
          <note key="60" pos="1344" pan="0" len="192" vol="34" />
        </pattern>
        <pattern pos="156672" muted="0" steps="16" name="" type="1">
          <note key="67" pos="0" pan="0" len="384" vol="34" />
          <note key="63" pos="384" pan="0" len="192" vol="34" />
          <note key="60" pos="576" pan="0" len="192" vol="34" />
          <note key="67" pos="768" pan="0" len="288" vol="100" />
          <note key="63" pos="1152" pan="0" len="192" vol="34" />
          <note key="60" pos="1344" pan="0" len="192" vol="34" />
        </pattern>
        <pattern pos="158208" muted="0" steps="16" name="" type="1">
          <note key="75" pos="0" pan="0" len="384" vol="34" />
          <note key="70" pos="384" pan="0" len="192" vol="34" />
          <note key="72" pos="768" pan="0" len="384" vol="34" />
          <note key="70" pos="1152" pan="0" len="192" vol="34" />
        </pattern>
        <pattern pos="159744" muted="0" steps="16" name="" type="1">
          <note key="75" pos="0" pan="0" len="384" vol="34" />
          <note key="70" pos="384" pan="0" len="192" vol="34" />
          <note key="72" pos="768" pan="0" len="384" vol="34" />
          <note key="70" pos="1152" pan="0" len="192" vol="34" />
        </pattern>
        <pattern pos="161280" muted="0" steps="16" name="" type="1">
          <note key="55" pos="1344" pan="0" len="192" vol="2" />
        </pattern>
        <pattern pos="198144" muted="0" steps="16" name="" type="1">
          <note key="71" pos="0" pan="0" len="192" vol="2" />
          <note key="72" pos="192" pan="0" len="96" vol="17" />
          <note key="76" pos="288" pan="0" len="96" vol="17" />
          <note key="71" pos="384" pan="0" len="192" vol="17" />
          <note key="72" pos="576" pan="0" len="96" vol="17" />
          <note key="69" pos="672" pan="0" len="96" vol="17" />
          <note key="71" pos="768" pan="0" len="192" vol="17" />
          <note key="72" pos="960" pan="0" len="96" vol="17" />
          <note key="76" pos="1056" pan="0" len="96" vol="17" />
          <note key="71" pos="1152" pan="0" len="192" vol="17" />
          <note key="72" pos="1344" pan="0" len="96" vol="17" />
          <note key="69" pos="1440" pan="0" len="48" vol="17" />
          <note key="66" pos="1488" pan="0" len="48" vol="34" />
        </pattern>
        <pattern pos="199680" muted="0" steps="16" name="" type="1">
          <note key="52" pos="0" pan="0" len="192" vol="34" />
          <note key="52" pos="192" pan="0" len="96" vol="34" />
          <note key="54" pos="288" pan="0" len="96" vol="34" />
          <note key="52" pos="384" pan="0" len="192" vol="34" />
          <note key="52" pos="576" pan="0" len="96" vol="34" />
          <note key="54" pos="672" pan="0" len="96" vol="34" />
          <note key="52" pos="768" pan="0" len="192" vol="34" />
          <note key="52" pos="960" pan="0" len="96" vol="34" />
          <note key="54" pos="1056" pan="0" len="96" vol="34" />
          <note key="52" pos="1152" pan="0" len="192" vol="34" />
          <note key="52" pos="1344" pan="0" len="96" vol="34" />
          <note key="54" pos="1440" pan="0" len="96" vol="34" />
        </pattern>
        <pattern pos="201216" muted="0" steps="16" name="" type="1">
          <note key="64" pos="0" pan="0" len="384" vol="17" />
          <note key="64" pos="384" pan="0" len="192" vol="17" />
          <note key="62" pos="576" pan="0" len="192" vol="17" />
          <note key="64" pos="768" pan="0" len="384" vol="17" />
          <note key="64" pos="1152" pan="0" len="192" vol="17" />
          <note key="57" pos="1344" pan="0" len="192" vol="17" />
        </pattern>
        <pattern pos="202752" muted="0" steps="16" name="" type="1">
          <note key="64" pos="0" pan="0" len="384" vol="17" />
          <note key="64" pos="384" pan="0" len="192" vol="17" />
          <note key="62" pos="576" pan="0" len="192" vol="17" />
          <note key="64" pos="768" pan="0" len="384" vol="17" />
          <note key="64" pos="1152" pan="0" len="192" vol="17" />
          <note key="57" pos="1344" pan="0" len="192" vol="17" />
        </pattern>
        <pattern pos="204288" muted="0" steps="16" name="" type="1">
          <note key="60" pos="0" pan="0" len="192" vol="33" />
          <note key="60" pos="192" pan="0" len="192" vol="33" />
          <note key="64" pos="384" pan="0" len="192" vol="33" />
          <note key="64" pos="576" pan="0" len="192" vol="52" />
          <note key="59" pos="768" pan="0" len="384" vol="69" />
          <note key="56" pos="1152" pan="0" len="384" vol="33" />
        </pattern>
        <pattern pos="205824" muted="0" steps="16" name="" type="1">
          <note key="60" pos="0" pan="0" len="192" vol="33" />
          <note key="60" pos="192" pan="0" len="192" vol="33" />
          <note key="64" pos="384" pan="0" len="192" vol="33" />
          <note key="64" pos="576" pan="0" len="192" vol="52" />
          <note key="59" pos="768" pan="0" len="384" vol="69" />
          <note key="56" pos="1152" pan="0" len="384" vol="33" />
        </pattern>
        <pattern pos="207360" muted="0" steps="16" name="" type="1">
          <note key="64" pos="0" pan="0" len="384" vol="17" />
          <note key="64" pos="384" pan="0" len="192" vol="17" />
          <note key="62" pos="576" pan="0" len="192" vol="17" />
          <note key="64" pos="768" pan="0" len="384" vol="17" />
          <note key="64" pos="1152" pan="0" len="192" vol="17" />
          <note key="57" pos="1344" pan="0" len="192" vol="17" />
        </pattern>
        <pattern pos="208896" muted="0" steps="16" name="" type="1">
          <note key="64" pos="0" pan="0" len="384" vol="17" />
          <note key="64" pos="384" pan="0" len="192" vol="17" />
          <note key="62" pos="576" pan="0" len="192" vol="17" />
          <note key="64" pos="768" pan="0" len="384" vol="17" />
          <note key="64" pos="1152" pan="0" len="192" vol="17" />
          <note key="57" pos="1344" pan="0" len="192" vol="17" />
        </pattern>
        <pattern pos="210432" muted="0" steps="16" name="" type="1">
          <note key="60" pos="0" pan="0" len="192" vol="33" />
          <note key="60" pos="192" pan="0" len="192" vol="33" />
          <note key="64" pos="384" pan="0" len="192" vol="33" />
          <note key="64" pos="576" pan="0" len="192" vol="52" />
          <note key="59" pos="768" pan="0" len="384" vol="69" />
          <note key="56" pos="1152" pan="0" len="384" vol="33" />
        </pattern>
        <pattern pos="211968" muted="0" steps="16" name="" type="1">
          <note key="60" pos="0" pan="0" len="192" vol="33" />
          <note key="60" pos="192" pan="0" len="192" vol="33" />
          <note key="64" pos="384" pan="0" len="192" vol="33" />
          <note key="64" pos="576" pan="0" len="192" vol="52" />
          <note key="59" pos="768" pan="0" len="384" vol="69" />
          <note key="56" pos="1152" pan="0" len="384" vol="33" />
        </pattern>
        <pattern pos="213504" muted="0" steps="16" name="" type="1">
          <note key="54" pos="0" pan="0" len="192" vol="34" />
          <note key="54" pos="192" pan="0" len="96" vol="34" />
          <note key="56" pos="288" pan="0" len="96" vol="34" />
          <note key="54" pos="384" pan="0" len="192" vol="34" />
          <note key="54" pos="576" pan="0" len="96" vol="34" />
          <note key="56" pos="672" pan="0" len="96" vol="34" />
          <note key="54" pos="768" pan="0" len="192" vol="34" />
          <note key="54" pos="960" pan="0" len="96" vol="34" />
          <note key="56" pos="1056" pan="0" len="96" vol="34" />
          <note key="54" pos="1152" pan="0" len="192" vol="34" />
          <note key="54" pos="1344" pan="0" len="96" vol="34" />
          <note key="56" pos="1440" pan="0" len="96" vol="34" />
        </pattern>
        <pattern pos="215040" muted="0" steps="16" name="" type="1">
          <note key="66" pos="0" pan="0" len="384" vol="34" />
          <note key="66" pos="384" pan="0" len="384" vol="34" />
          <note key="70" pos="768" pan="0" len="768" vol="34" />
        </pattern>
        <pattern pos="232128" muted="0" steps="16" name="" type="1">
          <note key="65" pos="960" pan="0" len="192" vol="2" />
          <note key="67" pos="1152" pan="0" len="384" vol="100" />
        </pattern>
        <pattern pos="255360" muted="0" steps="16" name="" type="1">
          <note key="67" pos="96" pan="0" len="336" vol="100" />
          <note key="69" pos="864" pan="0" len="288" vol="100" />
        </pattern>
      </track>
      <track solo="0" name="11 (Ch13)" type="0" muted="0">
        <instrumenttrack usemasterpitch="1" pitch="0.0" basenote="57" pan="0" pitchrange="12" vol="30">
          <eldata />
          <instrument name="tripleoscillator" />
        </instrumenttrack>
        <pattern pos="256896" muted="0" steps="16" name="" type="1">
          <note key="63" pos="96" pan="0" len="336" vol="100" />
          <note key="67" pos="576" pan="0" len="192" vol="100" />
          <note key="67" pos="768" pan="0" len="588" vol="100" />
        </pattern>
        <pattern pos="2304" muted="0" steps="16" name="" type="1">
          <note key="65" pos="0" pan="0" len="576" vol="34" />
          <note key="60" pos="576" pan="0" len="192" vol="50" />
        </pattern>
        <pattern pos="3072" muted="0" steps="16" name="" type="1">
          <note key="65" pos="0" pan="0" len="576" vol="34" />
          <note key="60" pos="576" pan="0" len="192" vol="50" />
        </pattern>
        <pattern pos="22272" muted="0" steps="16" name="" type="1">
          <note key="67" pos="0" pan="0" len="384" vol="52" />
          <note key="70" pos="384" pan="0" len="384" vol="52" />
          <note key="72" pos="768" pan="0" len="384" vol="52" />
          <note key="65" pos="1152" pan="0" len="384" vol="50" />
        </pattern>
        <pattern pos="23808" muted="0" steps="16" name="" type="1">
          <note key="67" pos="0" pan="0" len="384" vol="52" />
          <note key="70" pos="384" pan="0" len="384" vol="52" />
          <note key="72" pos="768" pan="0" len="384" vol="52" />
          <note key="70" pos="1152" pan="0" len="192" vol="50" />
          <note key="65" pos="1344" pan="0" len="192" vol="50" />
        </pattern>
        <pattern pos="25344" muted="0" steps="16" name="" type="1">
          <note key="65" pos="0" pan="0" len="768" vol="52" />
          <note key="65" pos="768" pan="0" len="768" vol="52" />
        </pattern>
        <pattern pos="26880" muted="0" steps="16" name="" type="1">
          <note key="68" pos="0" pan="0" len="768" vol="52" />
          <note key="70" pos="768" pan="0" len="768" vol="52" />
        </pattern>
        <pattern pos="28416" muted="0" steps="16" name="" type="1">
          <note key="65" pos="0" pan="0" len="576" vol="52" />
          <note key="65" pos="576" pan="0" len="576" vol="52" />
        </pattern>
        <pattern pos="39936" muted="0" steps="16" name="" type="1">
          <note key="67" pos="0" pan="0" len="192" vol="34" />
        </pattern>
        <pattern pos="86016" muted="0" steps="16" name="" type="1">
          <note key="67" pos="0" pan="0" len="48" vol="34" />
          <note key="69" pos="192" pan="0" len="48" vol="34" />
          <note key="69" pos="384" pan="0" len="60" vol="34" />
          <note key="70" pos="576" pan="0" len="60" vol="34" />
        </pattern>
        <pattern pos="136704" muted="0" steps="16" name="" type="1">
          <note key="60" pos="0" pan="0" len="384" vol="34" />
          <note key="60" pos="384" pan="0" len="384" vol="50" />
          <note key="60" pos="768" pan="0" len="384" vol="34" />
          <note key="60" pos="1152" pan="0" len="384" vol="17" />
        </pattern>
        <pattern pos="142848" muted="0" steps="16" name="" type="1">
          <note key="67" pos="384" pan="0" len="192" vol="34" />
          <note key="65" pos="576" pan="0" len="192" vol="34" />
          <note key="67" pos="1152" pan="0" len="192" vol="34" />
          <note key="65" pos="1344" pan="0" len="192" vol="34" />
        </pattern>
        <pattern pos="144384" muted="0" steps="16" name="" type="1">
          <note key="67" pos="384" pan="0" len="192" vol="34" />
          <note key="65" pos="576" pan="0" len="192" vol="34" />
          <note key="67" pos="1152" pan="0" len="192" vol="34" />
          <note key="65" pos="1344" pan="0" len="192" vol="34" />
        </pattern>
        <pattern pos="145920" muted="0" steps="16" name="" type="1">
          <note key="79" pos="0" pan="0" len="384" vol="34" />
          <note key="77" pos="384" pan="0" len="192" vol="34" />
          <note key="75" pos="768" pan="0" len="384" vol="34" />
          <note key="77" pos="1152" pan="0" len="192" vol="34" />
        </pattern>
        <pattern pos="147456" muted="0" steps="16" name="" type="1">
          <note key="79" pos="0" pan="0" len="384" vol="34" />
          <note key="77" pos="384" pan="0" len="192" vol="34" />
          <note key="75" pos="768" pan="0" len="384" vol="34" />
          <note key="74" pos="1152" pan="0" len="192" vol="34" />
        </pattern>
        <pattern pos="148992" muted="0" steps="16" name="" type="1">
          <note key="67" pos="384" pan="0" len="192" vol="34" />
          <note key="65" pos="576" pan="0" len="192" vol="34" />
          <note key="67" pos="1152" pan="0" len="192" vol="34" />
          <note key="65" pos="1344" pan="0" len="192" vol="34" />
        </pattern>
        <pattern pos="150528" muted="0" steps="16" name="" type="1">
          <note key="67" pos="384" pan="0" len="192" vol="34" />
          <note key="65" pos="576" pan="0" len="192" vol="34" />
          <note key="67" pos="1152" pan="0" len="192" vol="34" />
          <note key="65" pos="1344" pan="0" len="192" vol="34" />
        </pattern>
        <pattern pos="155136" muted="0" steps="16" name="" type="1">
          <note key="67" pos="384" pan="0" len="192" vol="34" />
          <note key="65" pos="576" pan="0" len="192" vol="34" />
          <note key="67" pos="1152" pan="0" len="192" vol="34" />
          <note key="65" pos="1344" pan="0" len="192" vol="34" />
        </pattern>
        <pattern pos="156672" muted="0" steps="16" name="" type="1">
          <note key="67" pos="384" pan="0" len="192" vol="34" />
          <note key="65" pos="576" pan="0" len="192" vol="34" />
          <note key="67" pos="1152" pan="0" len="192" vol="34" />
          <note key="65" pos="1344" pan="0" len="192" vol="34" />
        </pattern>
        <pattern pos="158208" muted="0" steps="16" name="" type="1">
          <note key="79" pos="0" pan="0" len="384" vol="34" />
          <note key="77" pos="384" pan="0" len="192" vol="34" />
          <note key="75" pos="768" pan="0" len="384" vol="34" />
          <note key="77" pos="1152" pan="0" len="192" vol="34" />
        </pattern>
        <pattern pos="159744" muted="0" steps="16" name="" type="1">
          <note key="79" pos="0" pan="0" len="384" vol="34" />
          <note key="77" pos="384" pan="0" len="192" vol="34" />
          <note key="75" pos="768" pan="0" len="384" vol="34" />
          <note key="74" pos="1152" pan="0" len="192" vol="34" />
        </pattern>
        <pattern pos="161280" muted="0" steps="16" name="" type="1">
          <note key="60" pos="1344" pan="0" len="192" vol="2" />
        </pattern>
        <pattern pos="198144" muted="0" steps="16" name="" type="1">
          <note key="57" pos="1488" pan="0" len="48" vol="34" />
        </pattern>
        <pattern pos="199680" muted="0" steps="16" name="" type="1">
          <note key="56" pos="0" pan="0" len="192" vol="34" />
          <note key="57" pos="192" pan="0" len="96" vol="34" />
          <note key="57" pos="288" pan="0" len="96" vol="34" />
          <note key="56" pos="384" pan="0" len="192" vol="34" />
          <note key="57" pos="576" pan="0" len="96" vol="34" />
          <note key="57" pos="672" pan="0" len="96" vol="34" />
          <note key="56" pos="768" pan="0" len="192" vol="34" />
          <note key="57" pos="960" pan="0" len="96" vol="34" />
          <note key="57" pos="1056" pan="0" len="96" vol="34" />
          <note key="56" pos="1152" pan="0" len="192" vol="34" />
          <note key="57" pos="1344" pan="0" len="96" vol="34" />
          <note key="57" pos="1440" pan="0" len="96" vol="34" />
        </pattern>
        <pattern pos="201216" muted="0" steps="16" name="" type="1">
          <note key="59" pos="0" pan="0" len="384" vol="17" />
          <note key="60" pos="384" pan="0" len="192" vol="17" />
          <note key="64" pos="576" pan="0" len="192" vol="17" />
          <note key="59" pos="768" pan="0" len="384" vol="17" />
          <note key="60" pos="1152" pan="0" len="192" vol="17" />
          <note key="60" pos="1344" pan="0" len="192" vol="17" />
        </pattern>
        <pattern pos="202752" muted="0" steps="16" name="" type="1">
          <note key="59" pos="0" pan="0" len="384" vol="17" />
          <note key="60" pos="384" pan="0" len="192" vol="17" />
          <note key="64" pos="576" pan="0" len="192" vol="17" />
          <note key="59" pos="768" pan="0" len="384" vol="17" />
          <note key="60" pos="1152" pan="0" len="192" vol="17" />
          <note key="60" pos="1344" pan="0" len="192" vol="17" />
        </pattern>
        <pattern pos="204288" muted="0" steps="16" name="" type="1">
          <note key="64" pos="0" pan="0" len="192" vol="33" />
          <note key="64" pos="192" pan="0" len="192" vol="33" />
          <note key="69" pos="384" pan="0" len="192" vol="33" />
          <note key="69" pos="576" pan="0" len="192" vol="52" />
          <note key="64" pos="768" pan="0" len="384" vol="69" />
          <note key="59" pos="1152" pan="0" len="384" vol="33" />
        </pattern>
        <pattern pos="205824" muted="0" steps="16" name="" type="1">
          <note key="64" pos="0" pan="0" len="192" vol="33" />
          <note key="64" pos="192" pan="0" len="192" vol="33" />
          <note key="69" pos="384" pan="0" len="192" vol="33" />
          <note key="69" pos="576" pan="0" len="192" vol="52" />
          <note key="64" pos="768" pan="0" len="384" vol="69" />
          <note key="59" pos="1152" pan="0" len="384" vol="33" />
        </pattern>
        <pattern pos="207360" muted="0" steps="16" name="" type="1">
          <note key="59" pos="0" pan="0" len="384" vol="17" />
          <note key="60" pos="384" pan="0" len="192" vol="17" />
          <note key="64" pos="576" pan="0" len="192" vol="17" />
          <note key="59" pos="768" pan="0" len="384" vol="17" />
          <note key="60" pos="1152" pan="0" len="192" vol="17" />
          <note key="60" pos="1344" pan="0" len="192" vol="17" />
        </pattern>
        <pattern pos="208896" muted="0" steps="16" name="" type="1">
          <note key="59" pos="0" pan="0" len="384" vol="17" />
          <note key="60" pos="384" pan="0" len="192" vol="17" />
          <note key="64" pos="576" pan="0" len="192" vol="17" />
          <note key="59" pos="768" pan="0" len="384" vol="17" />
          <note key="60" pos="1152" pan="0" len="192" vol="17" />
          <note key="60" pos="1344" pan="0" len="192" vol="17" />
        </pattern>
        <pattern pos="210432" muted="0" steps="16" name="" type="1">
          <note key="64" pos="0" pan="0" len="192" vol="33" />
          <note key="64" pos="192" pan="0" len="192" vol="33" />
          <note key="69" pos="384" pan="0" len="192" vol="33" />
          <note key="69" pos="576" pan="0" len="192" vol="52" />
          <note key="64" pos="768" pan="0" len="384" vol="69" />
          <note key="59" pos="1152" pan="0" len="384" vol="33" />
        </pattern>
        <pattern pos="211968" muted="0" steps="16" name="" type="1">
          <note key="64" pos="0" pan="0" len="192" vol="33" />
          <note key="64" pos="192" pan="0" len="192" vol="33" />
          <note key="69" pos="384" pan="0" len="192" vol="33" />
          <note key="69" pos="576" pan="0" len="192" vol="52" />
          <note key="64" pos="768" pan="0" len="384" vol="69" />
          <note key="59" pos="1152" pan="0" len="384" vol="33" />
        </pattern>
        <pattern pos="213504" muted="0" steps="16" name="" type="1">
          <note key="58" pos="0" pan="0" len="192" vol="34" />
          <note key="59" pos="192" pan="0" len="96" vol="34" />
          <note key="59" pos="288" pan="0" len="96" vol="34" />
          <note key="58" pos="384" pan="0" len="192" vol="34" />
          <note key="59" pos="576" pan="0" len="96" vol="34" />
          <note key="59" pos="672" pan="0" len="96" vol="34" />
          <note key="58" pos="768" pan="0" len="192" vol="34" />
          <note key="59" pos="960" pan="0" len="96" vol="34" />
          <note key="59" pos="1056" pan="0" len="96" vol="34" />
          <note key="58" pos="1152" pan="0" len="192" vol="34" />
          <note key="59" pos="1344" pan="0" len="96" vol="34" />
          <note key="59" pos="1440" pan="0" len="96" vol="34" />
        </pattern>
        <pattern pos="215040" muted="0" steps="16" name="" type="1">
          <note key="70" pos="0" pan="0" len="384" vol="34" />
          <note key="71" pos="384" pan="0" len="384" vol="34" />
          <note key="73" pos="768" pan="0" len="768" vol="34" />
        </pattern>
        <pattern pos="255360" muted="0" steps="16" name="" type="1">
          <note key="72" pos="96" pan="0" len="336" vol="100" />
          <note key="72" pos="864" pan="0" len="288" vol="100" />
        </pattern>
      </track>
      <track solo="0" name="11 (Ch14)" type="0" muted="0">
        <instrumenttrack usemasterpitch="1" pitch="0.0" basenote="57" pan="0" pitchrange="12" vol="30">
          <eldata />
          <instrument name="tripleoscillator" />
        </instrumenttrack>
        <pattern pos="256896" muted="0" steps="16" name="" type="1">
          <note key="68" pos="96" pan="0" len="336" vol="100" />
          <note key="70" pos="576" pan="0" len="192" vol="100" />
          <note key="72" pos="768" pan="0" len="588" vol="100" />
        </pattern>
        <pattern pos="22272" muted="0" steps="16" name="" type="1">
          <note key="72" pos="0" pan="0" len="384" vol="52" />
          <note key="75" pos="384" pan="0" len="384" vol="52" />
          <note key="77" pos="768" pan="0" len="384" vol="52" />
          <note key="69" pos="1152" pan="0" len="384" vol="50" />
        </pattern>
        <pattern pos="23808" muted="0" steps="16" name="" type="1">
          <note key="72" pos="0" pan="0" len="384" vol="52" />
          <note key="75" pos="384" pan="0" len="384" vol="52" />
          <note key="77" pos="768" pan="0" len="384" vol="52" />
          <note key="74" pos="1152" pan="0" len="192" vol="50" />
          <note key="69" pos="1344" pan="0" len="192" vol="50" />
        </pattern>
        <pattern pos="25344" muted="0" steps="16" name="" type="1">
          <note key="67" pos="0" pan="0" len="768" vol="52" />
          <note key="67" pos="768" pan="0" len="768" vol="52" />
        </pattern>
        <pattern pos="26880" muted="0" steps="16" name="" type="1">
          <note key="70" pos="0" pan="0" len="768" vol="52" />
          <note key="72" pos="768" pan="0" len="768" vol="52" />
        </pattern>
        <pattern pos="28416" muted="0" steps="16" name="" type="1">
          <note key="67" pos="0" pan="0" len="576" vol="52" />
          <note key="67" pos="576" pan="0" len="576" vol="52" />
        </pattern>
        <pattern pos="39936" muted="0" steps="16" name="" type="1">
          <note key="72" pos="0" pan="0" len="192" vol="34" />
        </pattern>
        <pattern pos="136704" muted="0" steps="16" name="" type="1">
          <note key="67" pos="0" pan="0" len="384" vol="34" />
          <note key="65" pos="384" pan="0" len="384" vol="50" />
          <note key="67" pos="768" pan="0" len="384" vol="34" />
          <note key="65" pos="1152" pan="0" len="384" vol="17" />
        </pattern>
        <pattern pos="142848" muted="0" steps="16" name="" type="1">
          <note key="70" pos="384" pan="0" len="192" vol="34" />
          <note key="69" pos="576" pan="0" len="192" vol="34" />
          <note key="70" pos="1152" pan="0" len="192" vol="34" />
          <note key="69" pos="1344" pan="0" len="192" vol="34" />
        </pattern>
        <pattern pos="144384" muted="0" steps="16" name="" type="1">
          <note key="70" pos="384" pan="0" len="192" vol="34" />
          <note key="69" pos="576" pan="0" len="192" vol="34" />
          <note key="70" pos="1152" pan="0" len="192" vol="34" />
          <note key="69" pos="1344" pan="0" len="192" vol="34" />
        </pattern>
        <pattern pos="148992" muted="0" steps="16" name="" type="1">
          <note key="70" pos="384" pan="0" len="192" vol="34" />
          <note key="69" pos="576" pan="0" len="192" vol="34" />
          <note key="70" pos="1152" pan="0" len="192" vol="34" />
          <note key="69" pos="1344" pan="0" len="192" vol="34" />
        </pattern>
        <pattern pos="150528" muted="0" steps="16" name="" type="1">
          <note key="70" pos="384" pan="0" len="192" vol="34" />
          <note key="69" pos="576" pan="0" len="192" vol="34" />
          <note key="70" pos="1152" pan="0" len="192" vol="34" />
          <note key="69" pos="1344" pan="0" len="192" vol="34" />
        </pattern>
        <pattern pos="155136" muted="0" steps="16" name="" type="1">
          <note key="70" pos="384" pan="0" len="192" vol="34" />
          <note key="69" pos="576" pan="0" len="192" vol="34" />
          <note key="70" pos="1152" pan="0" len="192" vol="34" />
          <note key="69" pos="1344" pan="0" len="192" vol="34" />
        </pattern>
        <pattern pos="156672" muted="0" steps="16" name="" type="1">
          <note key="70" pos="384" pan="0" len="192" vol="34" />
          <note key="69" pos="576" pan="0" len="192" vol="34" />
          <note key="70" pos="1152" pan="0" len="192" vol="34" />
          <note key="69" pos="1344" pan="0" len="192" vol="34" />
        </pattern>
        <pattern pos="161280" muted="0" steps="16" name="" type="1">
          <note key="63" pos="1344" pan="0" len="192" vol="2" />
        </pattern>
        <pattern pos="198144" muted="0" steps="16" name="" type="1">
          <note key="62" pos="1488" pan="0" len="48" vol="34" />
        </pattern>
        <pattern pos="199680" muted="0" steps="16" name="" type="1">
          <note key="59" pos="0" pan="0" len="192" vol="34" />
          <note key="60" pos="192" pan="0" len="96" vol="34" />
          <note key="62" pos="288" pan="0" len="96" vol="34" />
          <note key="59" pos="384" pan="0" len="192" vol="34" />
          <note key="60" pos="576" pan="0" len="96" vol="34" />
          <note key="62" pos="672" pan="0" len="96" vol="34" />
          <note key="59" pos="768" pan="0" len="192" vol="34" />
          <note key="60" pos="960" pan="0" len="96" vol="34" />
          <note key="62" pos="1056" pan="0" len="96" vol="34" />
          <note key="59" pos="1152" pan="0" len="192" vol="34" />
          <note key="60" pos="1344" pan="0" len="96" vol="34" />
          <note key="62" pos="1440" pan="0" len="96" vol="34" />
        </pattern>
        <pattern pos="204288" muted="0" steps="16" name="" type="1">
          <note key="45" pos="0" pan="0" len="192" vol="33" />
          <note key="69" pos="192" pan="0" len="192" vol="33" />
          <note key="72" pos="384" pan="0" len="192" vol="33" />
          <note key="74" pos="576" pan="0" len="192" vol="52" />
          <note key="68" pos="768" pan="0" len="384" vol="69" />
          <note key="64" pos="1152" pan="0" len="384" vol="33" />
        </pattern>
        <pattern pos="205824" muted="0" steps="16" name="" type="1">
          <note key="45" pos="0" pan="0" len="192" vol="33" />
          <note key="69" pos="192" pan="0" len="192" vol="33" />
          <note key="72" pos="384" pan="0" len="192" vol="33" />
          <note key="74" pos="576" pan="0" len="192" vol="52" />
          <note key="68" pos="768" pan="0" len="384" vol="69" />
          <note key="64" pos="1152" pan="0" len="384" vol="33" />
        </pattern>
        <pattern pos="210432" muted="0" steps="16" name="" type="1">
          <note key="45" pos="0" pan="0" len="192" vol="33" />
          <note key="69" pos="192" pan="0" len="192" vol="33" />
          <note key="72" pos="384" pan="0" len="192" vol="33" />
          <note key="74" pos="576" pan="0" len="192" vol="52" />
          <note key="68" pos="768" pan="0" len="384" vol="69" />
          <note key="64" pos="1152" pan="0" len="384" vol="33" />
        </pattern>
        <pattern pos="211968" muted="0" steps="16" name="" type="1">
          <note key="45" pos="0" pan="0" len="192" vol="33" />
          <note key="69" pos="192" pan="0" len="192" vol="33" />
          <note key="72" pos="384" pan="0" len="192" vol="33" />
          <note key="74" pos="576" pan="0" len="192" vol="52" />
          <note key="68" pos="768" pan="0" len="384" vol="69" />
          <note key="64" pos="1152" pan="0" len="384" vol="33" />
        </pattern>
        <pattern pos="213504" muted="0" steps="16" name="" type="1">
          <note key="61" pos="0" pan="0" len="192" vol="34" />
          <note key="62" pos="192" pan="0" len="96" vol="34" />
          <note key="64" pos="288" pan="0" len="96" vol="34" />
          <note key="61" pos="384" pan="0" len="192" vol="34" />
          <note key="62" pos="576" pan="0" len="96" vol="34" />
          <note key="64" pos="672" pan="0" len="96" vol="34" />
          <note key="61" pos="768" pan="0" len="192" vol="34" />
          <note key="62" pos="960" pan="0" len="96" vol="34" />
          <note key="64" pos="1056" pan="0" len="96" vol="34" />
          <note key="61" pos="1152" pan="0" len="192" vol="34" />
          <note key="62" pos="1344" pan="0" len="96" vol="34" />
          <note key="64" pos="1440" pan="0" len="96" vol="34" />
        </pattern>
        <pattern pos="215040" muted="0" steps="16" name="" type="1">
          <note key="73" pos="0" pan="0" len="384" vol="34" />
          <note key="74" pos="384" pan="0" len="384" vol="34" />
          <note key="78" pos="768" pan="0" len="768" vol="34" />
        </pattern>
        <pattern pos="255360" muted="0" steps="16" name="" type="1">
          <note key="75" pos="96" pan="0" len="336" vol="100" />
          <note key="77" pos="864" pan="0" len="288" vol="100" />
        </pattern>
      </track>
      <track solo="0" name="14 (Ch1)" type="0" muted="0">
        <instrumenttrack usemasterpitch="1" pitch="0.0" basenote="57" pan="0" pitchrange="12" vol="30">
          <eldata />
          <instrument name="tripleoscillator" />
        </instrumenttrack>
        <pattern pos="52608" muted="0" steps="16" name="" type="1">
          <note key="60" pos="0" pan="0" len="12" vol="100" />
          <note key="63" pos="24" pan="0" len="12" vol="100" />
          <note key="62" pos="48" pan="0" len="12" vol="100" />
          <note key="79" pos="72" pan="0" len="12" vol="100" />
          <note key="75" pos="96" pan="0" len="12" vol="100" />
          <note key="72" pos="120" pan="0" len="12" vol="100" />
          <note key="67" pos="144" pan="0" len="12" vol="100" />
          <note key="72" pos="168" pan="0" len="12" vol="100" />
          <note key="75" pos="192" pan="0" len="12" vol="100" />
          <note key="91" pos="216" pan="0" len="12" vol="100" />
          <note key="87" pos="240" pan="0" len="12" vol="100" />
          <note key="84" pos="264" pan="0" len="12" vol="100" />
          <note key="60" pos="288" pan="0" len="12" vol="100" />
          <note key="63" pos="312" pan="0" len="12" vol="100" />
          <note key="62" pos="336" pan="0" len="12" vol="100" />
          <note key="79" pos="360" pan="0" len="12" vol="100" />
          <note key="75" pos="384" pan="0" len="12" vol="100" />
          <note key="72" pos="408" pan="0" len="12" vol="100" />
          <note key="67" pos="432" pan="0" len="12" vol="100" />
          <note key="72" pos="456" pan="0" len="12" vol="100" />
          <note key="75" pos="480" pan="0" len="12" vol="100" />
          <note key="91" pos="504" pan="0" len="12" vol="100" />
          <note key="87" pos="528" pan="0" len="12" vol="100" />
          <note key="84" pos="552" pan="0" len="12" vol="100" />
          <note key="60" pos="576" pan="0" len="12" vol="100" />
          <note key="63" pos="600" pan="0" len="12" vol="100" />
          <note key="62" pos="624" pan="0" len="12" vol="100" />
          <note key="79" pos="648" pan="0" len="12" vol="100" />
          <note key="75" pos="672" pan="0" len="12" vol="100" />
          <note key="72" pos="696" pan="0" len="12" vol="100" />
          <note key="67" pos="720" pan="0" len="12" vol="100" />
          <note key="72" pos="744" pan="0" len="12" vol="100" />
          <note key="75" pos="768" pan="0" len="12" vol="100" />
          <note key="91" pos="792" pan="0" len="12" vol="100" />
          <note key="87" pos="816" pan="0" len="12" vol="100" />
          <note key="84" pos="840" pan="0" len="12" vol="100" />
          <note key="60" pos="864" pan="0" len="12" vol="100" />
          <note key="63" pos="888" pan="0" len="12" vol="100" />
          <note key="62" pos="912" pan="0" len="12" vol="100" />
          <note key="79" pos="936" pan="0" len="12" vol="100" />
          <note key="75" pos="960" pan="0" len="12" vol="100" />
          <note key="72" pos="984" pan="0" len="12" vol="100" />
          <note key="67" pos="1008" pan="0" len="12" vol="100" />
          <note key="72" pos="1032" pan="0" len="12" vol="100" />
          <note key="75" pos="1056" pan="0" len="12" vol="100" />
          <note key="91" pos="1080" pan="0" len="12" vol="100" />
          <note key="87" pos="1104" pan="0" len="12" vol="100" />
          <note key="84" pos="1128" pan="0" len="12" vol="100" />
        </pattern>
        <pattern pos="0" muted="0" steps="16" name="" type="1">
          <note key="36" pos="0" pan="0" len="768" vol="52" />
        </pattern>
        <pattern pos="768" muted="0" steps="16" name="" type="1">
          <note key="72" pos="0" pan="0" len="12" vol="100" />
          <note key="77" pos="24" pan="0" len="12" vol="100" />
          <note key="79" pos="48" pan="0" len="24" vol="100" />
          <note key="69" pos="576" pan="0" len="12" vol="100" />
          <note key="77" pos="600" pan="0" len="12" vol="100" />
          <note key="79" pos="624" pan="0" len="12" vol="100" />
        </pattern>
        <pattern pos="1536" muted="0" steps="16" name="" type="1">
          <note key="72" pos="0" pan="0" len="12" vol="100" />
          <note key="77" pos="24" pan="0" len="12" vol="100" />
          <note key="79" pos="48" pan="0" len="24" vol="100" />
          <note key="69" pos="576" pan="0" len="12" vol="100" />
          <note key="77" pos="600" pan="0" len="12" vol="100" />
          <note key="79" pos="624" pan="0" len="12" vol="100" />
        </pattern>
        <pattern pos="2304" muted="0" steps="16" name="" type="1">
          <note key="72" pos="0" pan="0" len="12" vol="100" />
          <note key="77" pos="24" pan="0" len="12" vol="100" />
          <note key="79" pos="48" pan="0" len="24" vol="100" />
          <note key="72" pos="96" pan="0" len="12" vol="34" />
          <note key="77" pos="120" pan="0" len="12" vol="34" />
          <note key="79" pos="144" pan="0" len="24" vol="34" />
          <note key="69" pos="576" pan="0" len="12" vol="100" />
          <note key="77" pos="600" pan="0" len="12" vol="100" />
          <note key="79" pos="624" pan="0" len="12" vol="100" />
          <note key="69" pos="672" pan="0" len="12" vol="34" />
          <note key="77" pos="696" pan="0" len="12" vol="34" />
          <note key="79" pos="720" pan="0" len="24" vol="34" />
        </pattern>
        <pattern pos="3072" muted="0" steps="16" name="" type="1">
          <note key="72" pos="0" pan="0" len="12" vol="100" />
          <note key="77" pos="24" pan="0" len="12" vol="100" />
          <note key="79" pos="48" pan="0" len="24" vol="100" />
          <note key="72" pos="96" pan="0" len="12" vol="34" />
          <note key="77" pos="120" pan="0" len="12" vol="34" />
          <note key="79" pos="144" pan="0" len="24" vol="34" />
          <note key="69" pos="576" pan="0" len="12" vol="100" />
          <note key="77" pos="600" pan="0" len="12" vol="100" />
          <note key="79" pos="624" pan="0" len="12" vol="100" />
          <note key="69" pos="672" pan="0" len="12" vol="34" />
          <note key="77" pos="696" pan="0" len="12" vol="34" />
          <note key="79" pos="720" pan="0" len="24" vol="34" />
        </pattern>
        <pattern pos="3840" muted="0" steps="16" name="" type="1">
          <note key="72" pos="0" pan="0" len="12" vol="100" />
          <note key="77" pos="24" pan="0" len="12" vol="100" />
          <note key="79" pos="48" pan="0" len="24" vol="100" />
          <note key="70" pos="192" pan="0" len="12" vol="100" />
          <note key="77" pos="216" pan="0" len="12" vol="100" />
          <note key="79" pos="240" pan="0" len="24" vol="100" />
          <note key="69" pos="384" pan="0" len="12" vol="100" />
          <note key="77" pos="408" pan="0" len="12" vol="100" />
          <note key="79" pos="432" pan="0" len="24" vol="100" />
          <note key="70" pos="576" pan="0" len="12" vol="100" />
          <note key="77" pos="600" pan="0" len="12" vol="100" />
          <note key="79" pos="624" pan="0" len="24" vol="100" />
          <note key="72" pos="768" pan="0" len="12" vol="100" />
          <note key="77" pos="792" pan="0" len="12" vol="100" />
          <note key="79" pos="816" pan="0" len="24" vol="100" />
          <note key="70" pos="960" pan="0" len="12" vol="100" />
          <note key="77" pos="984" pan="0" len="12" vol="100" />
          <note key="79" pos="1008" pan="0" len="24" vol="100" />
          <note key="69" pos="1152" pan="0" len="12" vol="100" />
          <note key="77" pos="1176" pan="0" len="12" vol="100" />
          <note key="79" pos="1200" pan="0" len="24" vol="100" />
          <note key="70" pos="1344" pan="0" len="12" vol="100" />
          <note key="77" pos="1368" pan="0" len="12" vol="100" />
          <note key="79" pos="1392" pan="0" len="24" vol="100" />
        </pattern>
        <pattern pos="45696" muted="0" steps="16" name="" type="1">
          <note key="60" pos="0" pan="0" len="12" vol="100" />
          <note key="63" pos="24" pan="0" len="12" vol="100" />
          <note key="62" pos="48" pan="0" len="12" vol="100" />
          <note key="79" pos="72" pan="0" len="12" vol="100" />
          <note key="75" pos="96" pan="0" len="12" vol="100" />
          <note key="72" pos="120" pan="0" len="12" vol="100" />
          <note key="67" pos="144" pan="0" len="12" vol="100" />
          <note key="72" pos="168" pan="0" len="12" vol="100" />
          <note key="75" pos="192" pan="0" len="12" vol="100" />
          <note key="91" pos="216" pan="0" len="12" vol="100" />
          <note key="87" pos="240" pan="0" len="12" vol="100" />
          <note key="84" pos="264" pan="0" len="12" vol="100" />
          <note key="60" pos="288" pan="0" len="12" vol="100" />
          <note key="63" pos="312" pan="0" len="12" vol="100" />
          <note key="62" pos="336" pan="0" len="12" vol="100" />
          <note key="79" pos="360" pan="0" len="12" vol="100" />
          <note key="75" pos="384" pan="0" len="12" vol="100" />
          <note key="72" pos="408" pan="0" len="12" vol="100" />
          <note key="67" pos="432" pan="0" len="12" vol="100" />
          <note key="72" pos="456" pan="0" len="12" vol="100" />
          <note key="75" pos="480" pan="0" len="12" vol="100" />
          <note key="91" pos="504" pan="0" len="12" vol="100" />
          <note key="87" pos="528" pan="0" len="12" vol="100" />
          <note key="84" pos="552" pan="0" len="12" vol="100" />
          <note key="60" pos="576" pan="0" len="12" vol="100" />
          <note key="63" pos="600" pan="0" len="12" vol="100" />
          <note key="62" pos="624" pan="0" len="12" vol="100" />
          <note key="79" pos="648" pan="0" len="12" vol="100" />
          <note key="75" pos="672" pan="0" len="12" vol="100" />
          <note key="72" pos="696" pan="0" len="12" vol="100" />
          <note key="67" pos="720" pan="0" len="12" vol="100" />
          <note key="72" pos="744" pan="0" len="12" vol="100" />
          <note key="75" pos="768" pan="0" len="12" vol="100" />
          <note key="91" pos="792" pan="0" len="12" vol="100" />
          <note key="87" pos="816" pan="0" len="12" vol="100" />
          <note key="84" pos="840" pan="0" len="12" vol="100" />
          <note key="60" pos="864" pan="0" len="12" vol="100" />
          <note key="63" pos="888" pan="0" len="12" vol="100" />
          <note key="62" pos="912" pan="0" len="12" vol="100" />
          <note key="79" pos="936" pan="0" len="12" vol="100" />
          <note key="75" pos="960" pan="0" len="12" vol="100" />
          <note key="72" pos="984" pan="0" len="12" vol="100" />
          <note key="67" pos="1008" pan="0" len="12" vol="100" />
          <note key="72" pos="1032" pan="0" len="12" vol="100" />
          <note key="75" pos="1056" pan="0" len="12" vol="100" />
          <note key="91" pos="1080" pan="0" len="12" vol="100" />
          <note key="87" pos="1104" pan="0" len="12" vol="100" />
          <note key="84" pos="1128" pan="0" len="12" vol="100" />
        </pattern>
        <pattern pos="46848" muted="0" steps="16" name="" type="1">
          <note key="60" pos="0" pan="0" len="12" vol="100" />
          <note key="63" pos="24" pan="0" len="12" vol="100" />
          <note key="62" pos="48" pan="0" len="12" vol="100" />
          <note key="79" pos="72" pan="0" len="12" vol="100" />
          <note key="75" pos="96" pan="0" len="12" vol="100" />
          <note key="72" pos="120" pan="0" len="12" vol="100" />
          <note key="67" pos="144" pan="0" len="12" vol="100" />
          <note key="72" pos="168" pan="0" len="12" vol="100" />
          <note key="75" pos="192" pan="0" len="12" vol="100" />
          <note key="91" pos="216" pan="0" len="12" vol="100" />
          <note key="87" pos="240" pan="0" len="12" vol="100" />
          <note key="84" pos="264" pan="0" len="12" vol="100" />
          <note key="60" pos="288" pan="0" len="12" vol="100" />
          <note key="63" pos="312" pan="0" len="12" vol="100" />
          <note key="62" pos="336" pan="0" len="12" vol="100" />
          <note key="79" pos="360" pan="0" len="12" vol="100" />
          <note key="75" pos="384" pan="0" len="12" vol="100" />
          <note key="72" pos="408" pan="0" len="12" vol="100" />
          <note key="67" pos="432" pan="0" len="12" vol="100" />
          <note key="72" pos="456" pan="0" len="12" vol="100" />
          <note key="75" pos="480" pan="0" len="12" vol="100" />
          <note key="91" pos="504" pan="0" len="12" vol="100" />
          <note key="87" pos="528" pan="0" len="12" vol="100" />
          <note key="84" pos="552" pan="0" len="12" vol="100" />
          <note key="60" pos="576" pan="0" len="12" vol="100" />
          <note key="63" pos="600" pan="0" len="12" vol="100" />
          <note key="62" pos="624" pan="0" len="12" vol="100" />
          <note key="79" pos="648" pan="0" len="12" vol="100" />
          <note key="75" pos="672" pan="0" len="12" vol="100" />
          <note key="72" pos="696" pan="0" len="12" vol="100" />
          <note key="67" pos="720" pan="0" len="12" vol="100" />
          <note key="72" pos="744" pan="0" len="12" vol="100" />
          <note key="75" pos="768" pan="0" len="12" vol="100" />
          <note key="91" pos="792" pan="0" len="12" vol="100" />
          <note key="87" pos="816" pan="0" len="12" vol="100" />
          <note key="84" pos="840" pan="0" len="12" vol="100" />
          <note key="60" pos="864" pan="0" len="12" vol="100" />
          <note key="63" pos="888" pan="0" len="12" vol="100" />
          <note key="62" pos="912" pan="0" len="12" vol="100" />
          <note key="79" pos="936" pan="0" len="12" vol="100" />
          <note key="75" pos="960" pan="0" len="12" vol="100" />
          <note key="72" pos="984" pan="0" len="12" vol="100" />
          <note key="67" pos="1008" pan="0" len="12" vol="100" />
          <note key="72" pos="1032" pan="0" len="12" vol="100" />
          <note key="75" pos="1056" pan="0" len="12" vol="100" />
          <note key="91" pos="1080" pan="0" len="12" vol="100" />
          <note key="87" pos="1104" pan="0" len="12" vol="100" />
          <note key="84" pos="1128" pan="0" len="12" vol="100" />
        </pattern>
        <pattern pos="51456" muted="0" steps="16" name="" type="1">
          <note key="60" pos="0" pan="0" len="12" vol="100" />
          <note key="63" pos="24" pan="0" len="12" vol="100" />
          <note key="62" pos="48" pan="0" len="12" vol="100" />
          <note key="79" pos="72" pan="0" len="12" vol="100" />
          <note key="75" pos="96" pan="0" len="12" vol="100" />
          <note key="72" pos="120" pan="0" len="12" vol="100" />
          <note key="67" pos="144" pan="0" len="12" vol="100" />
          <note key="72" pos="168" pan="0" len="12" vol="100" />
          <note key="75" pos="192" pan="0" len="12" vol="100" />
          <note key="91" pos="216" pan="0" len="12" vol="100" />
          <note key="87" pos="240" pan="0" len="12" vol="100" />
          <note key="84" pos="264" pan="0" len="12" vol="100" />
          <note key="60" pos="288" pan="0" len="12" vol="100" />
          <note key="63" pos="312" pan="0" len="12" vol="100" />
          <note key="62" pos="336" pan="0" len="12" vol="100" />
          <note key="79" pos="360" pan="0" len="12" vol="100" />
          <note key="75" pos="384" pan="0" len="12" vol="100" />
          <note key="72" pos="408" pan="0" len="12" vol="100" />
          <note key="67" pos="432" pan="0" len="12" vol="100" />
          <note key="72" pos="456" pan="0" len="12" vol="100" />
          <note key="75" pos="480" pan="0" len="12" vol="100" />
          <note key="91" pos="504" pan="0" len="12" vol="100" />
          <note key="87" pos="528" pan="0" len="12" vol="100" />
          <note key="84" pos="552" pan="0" len="12" vol="100" />
          <note key="60" pos="576" pan="0" len="12" vol="100" />
          <note key="63" pos="600" pan="0" len="12" vol="100" />
          <note key="62" pos="624" pan="0" len="12" vol="100" />
          <note key="79" pos="648" pan="0" len="12" vol="100" />
          <note key="75" pos="672" pan="0" len="12" vol="100" />
          <note key="72" pos="696" pan="0" len="12" vol="100" />
          <note key="67" pos="720" pan="0" len="12" vol="100" />
          <note key="72" pos="744" pan="0" len="12" vol="100" />
          <note key="75" pos="768" pan="0" len="12" vol="100" />
          <note key="91" pos="792" pan="0" len="12" vol="100" />
          <note key="87" pos="816" pan="0" len="12" vol="100" />
          <note key="84" pos="840" pan="0" len="12" vol="100" />
          <note key="60" pos="864" pan="0" len="12" vol="100" />
          <note key="63" pos="888" pan="0" len="12" vol="100" />
          <note key="62" pos="912" pan="0" len="12" vol="100" />
          <note key="79" pos="936" pan="0" len="12" vol="100" />
          <note key="75" pos="960" pan="0" len="12" vol="100" />
          <note key="72" pos="984" pan="0" len="12" vol="100" />
          <note key="67" pos="1008" pan="0" len="12" vol="100" />
          <note key="72" pos="1032" pan="0" len="12" vol="100" />
          <note key="75" pos="1056" pan="0" len="12" vol="100" />
          <note key="91" pos="1080" pan="0" len="12" vol="100" />
          <note key="87" pos="1104" pan="0" len="12" vol="100" />
          <note key="84" pos="1128" pan="0" len="12" vol="100" />
        </pattern>
      </track>
      <track solo="0" name="14 (Ch4)" type="0" muted="0">
        <instrumenttrack usemasterpitch="1" pitch="0.0" basenote="57" pan="0" pitchrange="12" vol="30">
          <eldata />
          <instrument name="tripleoscillator" />
        </instrumenttrack>
        <pattern pos="7680" muted="0" steps="16" name="" type="1">
          <note key="72" pos="0" pan="0" len="12" vol="100" />
          <note key="77" pos="24" pan="0" len="12" vol="100" />
          <note key="79" pos="48" pan="0" len="24" vol="100" />
          <note key="72" pos="96" pan="0" len="12" vol="34" />
          <note key="77" pos="120" pan="0" len="12" vol="34" />
          <note key="79" pos="144" pan="0" len="24" vol="34" />
          <note key="69" pos="576" pan="0" len="12" vol="100" />
          <note key="76" pos="600" pan="0" len="12" vol="100" />
          <note key="77" pos="624" pan="0" len="24" vol="100" />
          <note key="69" pos="672" pan="0" len="12" vol="34" />
          <note key="76" pos="696" pan="0" len="12" vol="34" />
          <note key="77" pos="720" pan="0" len="24" vol="34" />
        </pattern>
        <pattern pos="6912" muted="0" steps="16" name="" type="1">
          <note key="72" pos="0" pan="0" len="12" vol="100" />
          <note key="77" pos="24" pan="0" len="12" vol="100" />
          <note key="79" pos="48" pan="0" len="24" vol="100" />
          <note key="72" pos="96" pan="0" len="12" vol="34" />
          <note key="77" pos="120" pan="0" len="12" vol="34" />
          <note key="79" pos="144" pan="0" len="24" vol="34" />
          <note key="70" pos="576" pan="0" len="12" vol="100" />
          <note key="77" pos="600" pan="0" len="12" vol="100" />
          <note key="79" pos="624" pan="0" len="24" vol="100" />
        </pattern>
      </track>
      <track solo="0" name="14 (Ch5)" type="0" muted="0">
        <instrumenttrack usemasterpitch="1" pitch="0.0" basenote="57" pan="0" pitchrange="12" vol="30">
          <eldata />
          <instrument name="tripleoscillator" />
        </instrumenttrack>
        <pattern pos="225984" muted="0" steps="16" name="" type="1">
          <note key="70" pos="768" pan="0" len="12" vol="100" />
          <note key="69" pos="780" pan="0" len="12" vol="100" />
          <note key="70" pos="792" pan="0" len="12" vol="100" />
          <note key="72" pos="912" pan="0" len="12" vol="100" />
          <note key="69" pos="960" pan="0" len="12" vol="100" />
          <note key="65" pos="1056" pan="0" len="12" vol="100" />
          <note key="62" pos="1104" pan="0" len="12" vol="100" />
          <note key="67" pos="1152" pan="0" len="12" vol="100" />
        </pattern>
        <pattern pos="224448" muted="0" steps="16" name="" type="1">
          <note key="70" pos="768" pan="0" len="12" vol="100" />
          <note key="69" pos="780" pan="0" len="12" vol="100" />
          <note key="70" pos="792" pan="0" len="12" vol="100" />
          <note key="74" pos="912" pan="0" len="12" vol="100" />
          <note key="79" pos="960" pan="0" len="12" vol="100" />
          <note key="82" pos="1056" pan="0" len="12" vol="17" />
          <note key="82" pos="1080" pan="0" len="12" vol="34" />
          <note key="82" pos="1104" pan="0" len="12" vol="100" />
          <note key="84" pos="1200" pan="0" len="12" vol="100" />
          <note key="79" pos="1248" pan="0" len="12" vol="100" />
        </pattern>
      </track>
      <track solo="0" name="14 (Ch6)" type="0" muted="0">
        <instrumenttrack usemasterpitch="1" pitch="0.0" basenote="57" pan="0" pitchrange="12" vol="30">
          <eldata />
          <instrument name="tripleoscillator" />
        </instrumenttrack>
        <pattern pos="224448" muted="0" steps="16" name="" type="1">
          <note key="81" pos="1056" pan="0" len="12" vol="17" />
          <note key="81" pos="1080" pan="0" len="12" vol="34" />
        </pattern>
      </track>
      <track solo="0" name="14 (Ch7)" type="0" muted="0">
        <instrumenttrack usemasterpitch="1" pitch="0.0" basenote="57" pan="0" pitchrange="12" vol="30">
          <eldata />
          <instrument name="tripleoscillator" />
        </instrumenttrack>
        <pattern pos="139776" muted="0" steps="16" name="" type="1">
          <note key="70" pos="768" pan="0" len="768" vol="2" />
        </pattern>
      </track>
      <track solo="0" name="14 (Ch9)" type="0" muted="0">
        <instrumenttrack usemasterpitch="1" pitch="0.0" basenote="57" pan="0" pitchrange="12" vol="30">
          <eldata />
          <instrument name="tripleoscillator" />
        </instrumenttrack>
        <pattern pos="215040" muted="0" steps="16" name="" type="1">
          <note key="36" pos="1152" pan="0" len="384" vol="2" />
        </pattern>
      </track>
      <track solo="0" name="14 (Ch11)" type="0" muted="0">
        <instrumenttrack usemasterpitch="1" pitch="0.0" basenote="57" pan="0" pitchrange="12" vol="30">
          <eldata />
          <instrument name="tripleoscillator" />
        </instrumenttrack>
        <pattern pos="256896" muted="0" steps="16" name="" type="1">
          <note key="84" pos="0" pan="0" len="24" vol="100" />
          <note key="80" pos="24" pan="0" len="24" vol="100" />
          <note key="75" pos="48" pan="0" len="24" vol="100" />
          <note key="74" pos="72" pan="0" len="24" vol="100" />
          <note key="72" pos="96" pan="0" len="24" vol="100" />
          <note key="74" pos="120" pan="0" len="24" vol="100" />
          <note key="75" pos="144" pan="0" len="24" vol="100" />
          <note key="80" pos="168" pan="0" len="24" vol="100" />
          <note key="84" pos="192" pan="0" len="24" vol="100" />
          <note key="80" pos="216" pan="0" len="24" vol="100" />
          <note key="75" pos="240" pan="0" len="24" vol="100" />
          <note key="74" pos="264" pan="0" len="24" vol="100" />
          <note key="72" pos="288" pan="0" len="24" vol="100" />
          <note key="74" pos="312" pan="0" len="24" vol="100" />
          <note key="75" pos="336" pan="0" len="24" vol="100" />
          <note key="80" pos="360" pan="0" len="24" vol="100" />
          <note key="84" pos="384" pan="0" len="24" vol="100" />
          <note key="80" pos="408" pan="0" len="24" vol="100" />
          <note key="75" pos="432" pan="0" len="24" vol="100" />
          <note key="74" pos="456" pan="0" len="24" vol="100" />
          <note key="72" pos="480" pan="0" len="24" vol="100" />
          <note key="74" pos="504" pan="0" len="24" vol="100" />
          <note key="75" pos="528" pan="0" len="24" vol="100" />
          <note key="80" pos="552" pan="0" len="24" vol="100" />
          <note key="84" pos="576" pan="0" len="24" vol="100" />
          <note key="80" pos="600" pan="0" len="24" vol="100" />
          <note key="75" pos="624" pan="0" len="24" vol="100" />
          <note key="74" pos="648" pan="0" len="24" vol="100" />
          <note key="72" pos="672" pan="0" len="24" vol="100" />
          <note key="74" pos="696" pan="0" len="24" vol="100" />
          <note key="75" pos="720" pan="0" len="24" vol="100" />
          <note key="80" pos="744" pan="0" len="24" vol="100" />
          <note key="84" pos="768" pan="0" len="24" vol="100" />
          <note key="79" pos="792" pan="0" len="24" vol="100" />
          <note key="75" pos="816" pan="0" len="24" vol="100" />
          <note key="74" pos="840" pan="0" len="24" vol="100" />
          <note key="72" pos="864" pan="0" len="24" vol="100" />
          <note key="74" pos="888" pan="0" len="24" vol="100" />
          <note key="75" pos="912" pan="0" len="24" vol="100" />
          <note key="79" pos="936" pan="0" len="24" vol="100" />
          <note key="84" pos="960" pan="0" len="24" vol="100" />
          <note key="79" pos="984" pan="0" len="24" vol="100" />
          <note key="75" pos="1008" pan="0" len="24" vol="100" />
          <note key="74" pos="1032" pan="0" len="24" vol="100" />
          <note key="72" pos="1056" pan="0" len="24" vol="100" />
          <note key="74" pos="1080" pan="0" len="24" vol="100" />
          <note key="75" pos="1104" pan="0" len="24" vol="100" />
          <note key="79" pos="1128" pan="0" len="24" vol="100" />
          <note key="84" pos="1152" pan="0" len="24" vol="100" />
          <note key="79" pos="1176" pan="0" len="24" vol="100" />
          <note key="75" pos="1200" pan="0" len="24" vol="100" />
          <note key="74" pos="1224" pan="0" len="24" vol="100" />
          <note key="72" pos="1248" pan="0" len="24" vol="100" />
          <note key="74" pos="1272" pan="0" len="24" vol="100" />
          <note key="75" pos="1296" pan="0" len="24" vol="100" />
          <note key="79" pos="1320" pan="0" len="24" vol="100" />
          <note key="84" pos="1344" pan="0" len="48" vol="100" />
        </pattern>
        <pattern pos="255360" muted="0" steps="16" name="" type="1">
          <note key="84" pos="0" pan="0" len="24" vol="100" />
          <note key="79" pos="24" pan="0" len="24" vol="100" />
          <note key="75" pos="48" pan="0" len="24" vol="100" />
          <note key="74" pos="72" pan="0" len="24" vol="100" />
          <note key="72" pos="96" pan="0" len="24" vol="100" />
          <note key="74" pos="120" pan="0" len="24" vol="100" />
          <note key="75" pos="144" pan="0" len="24" vol="100" />
          <note key="79" pos="168" pan="0" len="24" vol="100" />
          <note key="84" pos="192" pan="0" len="24" vol="100" />
          <note key="79" pos="216" pan="0" len="24" vol="100" />
          <note key="75" pos="240" pan="0" len="24" vol="100" />
          <note key="74" pos="264" pan="0" len="24" vol="100" />
          <note key="72" pos="288" pan="0" len="24" vol="100" />
          <note key="74" pos="312" pan="0" len="24" vol="100" />
          <note key="75" pos="336" pan="0" len="24" vol="100" />
          <note key="79" pos="360" pan="0" len="24" vol="100" />
          <note key="84" pos="384" pan="0" len="24" vol="100" />
          <note key="79" pos="408" pan="0" len="24" vol="100" />
          <note key="75" pos="432" pan="0" len="24" vol="100" />
          <note key="74" pos="456" pan="0" len="24" vol="100" />
          <note key="72" pos="480" pan="0" len="24" vol="100" />
          <note key="74" pos="504" pan="0" len="24" vol="100" />
          <note key="75" pos="528" pan="0" len="24" vol="100" />
          <note key="79" pos="552" pan="0" len="24" vol="100" />
          <note key="84" pos="576" pan="0" len="24" vol="100" />
          <note key="79" pos="600" pan="0" len="24" vol="100" />
          <note key="75" pos="624" pan="0" len="24" vol="100" />
          <note key="74" pos="648" pan="0" len="24" vol="100" />
          <note key="72" pos="672" pan="0" len="24" vol="100" />
          <note key="74" pos="696" pan="0" len="24" vol="100" />
          <note key="75" pos="720" pan="0" len="24" vol="100" />
          <note key="79" pos="744" pan="0" len="24" vol="100" />
          <note key="84" pos="768" pan="0" len="24" vol="100" />
          <note key="81" pos="792" pan="0" len="24" vol="100" />
          <note key="77" pos="816" pan="0" len="24" vol="100" />
          <note key="72" pos="840" pan="0" len="24" vol="100" />
          <note key="69" pos="864" pan="0" len="24" vol="100" />
          <note key="72" pos="888" pan="0" len="24" vol="100" />
          <note key="77" pos="912" pan="0" len="24" vol="100" />
          <note key="81" pos="936" pan="0" len="24" vol="100" />
          <note key="84" pos="960" pan="0" len="24" vol="100" />
          <note key="81" pos="984" pan="0" len="24" vol="100" />
          <note key="77" pos="1008" pan="0" len="24" vol="100" />
          <note key="72" pos="1032" pan="0" len="24" vol="100" />
          <note key="69" pos="1056" pan="0" len="24" vol="100" />
          <note key="72" pos="1080" pan="0" len="24" vol="100" />
          <note key="77" pos="1104" pan="0" len="24" vol="100" />
          <note key="81" pos="1128" pan="0" len="24" vol="100" />
          <note key="84" pos="1152" pan="0" len="24" vol="100" />
          <note key="81" pos="1176" pan="0" len="24" vol="100" />
          <note key="77" pos="1200" pan="0" len="24" vol="100" />
          <note key="72" pos="1224" pan="0" len="24" vol="100" />
          <note key="69" pos="1248" pan="0" len="24" vol="100" />
          <note key="72" pos="1272" pan="0" len="24" vol="100" />
          <note key="77" pos="1296" pan="0" len="24" vol="100" />
          <note key="81" pos="1320" pan="0" len="24" vol="100" />
          <note key="84" pos="1344" pan="0" len="24" vol="100" />
          <note key="81" pos="1368" pan="0" len="24" vol="100" />
          <note key="77" pos="1392" pan="0" len="24" vol="100" />
          <note key="72" pos="1416" pan="0" len="24" vol="100" />
          <note key="69" pos="1440" pan="0" len="24" vol="100" />
          <note key="72" pos="1464" pan="0" len="24" vol="100" />
          <note key="77" pos="1488" pan="0" len="24" vol="100" />
          <note key="81" pos="1512" pan="0" len="24" vol="100" />
        </pattern>
      </track>
      <track solo="0" name="14 (Ch12)" type="0" muted="0">
        <instrumenttrack usemasterpitch="1" pitch="0.0" basenote="57" pan="0" pitchrange="12" vol="30">
          <eldata />
          <instrument name="tripleoscillator" />
        </instrumenttrack>
        <pattern pos="16128" muted="0" steps="16" name="" type="1">
          <note key="65" pos="0" pan="0" len="12" vol="100" />
          <note key="58" pos="240" pan="0" len="12" vol="100" />
          <note key="60" pos="288" pan="0" len="12" vol="100" />
          <note key="65" pos="336" pan="0" len="12" vol="100" />
          <note key="67" pos="384" pan="0" len="12" vol="100" />
          <note key="64" pos="456" pan="0" len="12" vol="100" />
          <note key="60" pos="480" pan="0" len="12" vol="100" />
          <note key="60" pos="720" pan="0" len="12" vol="100" />
          <note key="62" pos="744" pan="0" len="12" vol="100" />
          <note key="65" pos="768" pan="0" len="12" vol="100" />
          <note key="67" pos="1080" pan="0" len="12" vol="100" />
          <note key="64" pos="1152" pan="0" len="12" vol="100" />
        </pattern>
        <pattern pos="11520" muted="0" steps="16" name="" type="1">
          <note key="72" pos="0" pan="0" len="12" vol="100" />
          <note key="65" pos="240" pan="0" len="12" vol="100" />
          <note key="67" pos="288" pan="0" len="12" vol="100" />
          <note key="72" pos="336" pan="0" len="12" vol="100" />
          <note key="70" pos="384" pan="0" len="12" vol="100" />
          <note key="69" pos="456" pan="0" len="12" vol="100" />
          <note key="65" pos="480" pan="0" len="12" vol="100" />
          <note key="65" pos="720" pan="0" len="12" vol="100" />
          <note key="67" pos="744" pan="0" len="12" vol="100" />
          <note key="72" pos="768" pan="0" len="12" vol="100" />
          <note key="65" pos="1008" pan="0" len="12" vol="100" />
          <note key="67" pos="1056" pan="0" len="12" vol="100" />
          <note key="72" pos="1104" pan="0" len="12" vol="100" />
          <note key="74" pos="1152" pan="0" len="12" vol="100" />
          <note key="70" pos="1224" pan="0" len="12" vol="100" />
          <note key="67" pos="1248" pan="0" len="12" vol="100" />
          <note key="69" pos="1464" pan="0" len="12" vol="100" />
        </pattern>
        <pattern pos="13056" muted="0" steps="16" name="" type="1">
          <note key="65" pos="0" pan="0" len="12" vol="100" />
          <note key="58" pos="240" pan="0" len="12" vol="100" />
          <note key="60" pos="288" pan="0" len="12" vol="100" />
          <note key="65" pos="336" pan="0" len="12" vol="100" />
          <note key="67" pos="384" pan="0" len="12" vol="100" />
          <note key="64" pos="456" pan="0" len="12" vol="100" />
          <note key="60" pos="480" pan="0" len="12" vol="100" />
          <note key="60" pos="720" pan="0" len="12" vol="100" />
          <note key="62" pos="744" pan="0" len="12" vol="100" />
          <note key="65" pos="768" pan="0" len="12" vol="100" />
          <note key="67" pos="1080" pan="0" len="12" vol="100" />
          <note key="64" pos="1152" pan="0" len="12" vol="100" />
        </pattern>
        <pattern pos="14592" muted="0" steps="16" name="" type="1">
          <note key="72" pos="0" pan="0" len="12" vol="100" />
          <note key="65" pos="240" pan="0" len="12" vol="100" />
          <note key="67" pos="288" pan="0" len="12" vol="100" />
          <note key="72" pos="336" pan="0" len="12" vol="100" />
          <note key="70" pos="384" pan="0" len="12" vol="100" />
          <note key="69" pos="456" pan="0" len="12" vol="100" />
          <note key="65" pos="480" pan="0" len="12" vol="100" />
          <note key="65" pos="720" pan="0" len="12" vol="100" />
          <note key="67" pos="744" pan="0" len="12" vol="100" />
          <note key="72" pos="768" pan="0" len="12" vol="100" />
          <note key="65" pos="1008" pan="0" len="12" vol="100" />
          <note key="67" pos="1056" pan="0" len="12" vol="100" />
          <note key="72" pos="1104" pan="0" len="12" vol="100" />
          <note key="74" pos="1152" pan="0" len="12" vol="100" />
          <note key="70" pos="1224" pan="0" len="12" vol="100" />
          <note key="67" pos="1248" pan="0" len="12" vol="100" />
          <note key="69" pos="1464" pan="0" len="12" vol="100" />
        </pattern>
      </track>
      <track solo="0" name="16 (Ch2)" type="0" muted="0">
        <instrumenttrack usemasterpitch="1" pitch="0.0" basenote="57" pan="0" pitchrange="12" vol="30">
          <eldata />
          <instrument name="tripleoscillator" />
        </instrumenttrack>
        <pattern pos="133632" muted="0" steps="16" name="" type="1">
          <note key="60" pos="1464" pan="0" len="24" vol="34" />
          <note key="60" pos="1488" pan="0" len="24" vol="69" />
          <note key="60" pos="1512" pan="0" len="24" vol="100" />
        </pattern>
        <pattern pos="116736" muted="0" steps="16" name="" type="1">
          <note key="60" pos="96" pan="0" len="144" vol="100" />
          <note key="60" pos="288" pan="0" len="48" vol="100" />
          <note key="60" pos="480" pan="0" len="144" vol="100" />
          <note key="60" pos="672" pan="0" len="96" vol="100" />
          <note key="60" pos="864" pan="0" len="144" vol="100" />
          <note key="60" pos="1056" pan="0" len="96" vol="100" />
          <note key="60" pos="1248" pan="0" len="96" vol="100" />
          <note key="60" pos="1344" pan="0" len="48" vol="100" />
          <note key="60" pos="1440" pan="0" len="96" vol="100" />
        </pattern>
        <pattern pos="118272" muted="0" steps="16" name="" type="1">
          <note key="60" pos="96" pan="0" len="144" vol="100" />
          <note key="60" pos="288" pan="0" len="48" vol="100" />
          <note key="60" pos="480" pan="0" len="144" vol="100" />
          <note key="60" pos="672" pan="0" len="96" vol="100" />
          <note key="60" pos="864" pan="0" len="144" vol="100" />
          <note key="60" pos="1056" pan="0" len="96" vol="100" />
          <note key="60" pos="1248" pan="0" len="96" vol="100" />
          <note key="60" pos="1344" pan="0" len="48" vol="100" />
          <note key="60" pos="1440" pan="0" len="96" vol="100" />
        </pattern>
        <pattern pos="121344" muted="0" steps="16" name="" type="1">
          <note key="60" pos="1344" pan="0" len="48" vol="100" />
          <note key="60" pos="1440" pan="0" len="96" vol="100" />
        </pattern>
      </track>
      <track solo="0" name="16 (Ch3)" type="0" muted="0">
        <instrumenttrack usemasterpitch="1" pitch="0.0" basenote="57" pan="0" pitchrange="12" vol="30">
          <eldata />
          <instrument name="tripleoscillator" />
        </instrumenttrack>
        <pattern pos="91392" muted="0" steps="16" name="" type="1">
          <note key="48" pos="0" pan="0" len="768" vol="100" />
        </pattern>
        <pattern pos="76800" muted="0" steps="16" name="" type="1">
          <note key="48" pos="0" pan="0" len="768" vol="100" />
        </pattern>
        <pattern pos="77568" muted="0" steps="16" name="" type="1">
          <note key="48" pos="0" pan="0" len="768" vol="100" />
        </pattern>
        <pattern pos="79872" muted="0" steps="16" name="" type="1">
          <note key="48" pos="0" pan="0" len="768" vol="100" />
        </pattern>
        <pattern pos="80640" muted="0" steps="16" name="" type="1">
          <note key="48" pos="0" pan="0" len="768" vol="100" />
        </pattern>
        <pattern pos="81408" muted="0" steps="16" name="" type="1">
          <note key="48" pos="0" pan="0" len="768" vol="100" />
        </pattern>
        <pattern pos="82176" muted="0" steps="16" name="" type="1">
          <note key="48" pos="0" pan="0" len="768" vol="100" />
        </pattern>
        <pattern pos="82944" muted="0" steps="16" name="" type="1">
          <note key="48" pos="0" pan="0" len="768" vol="100" />
        </pattern>
        <pattern pos="83712" muted="0" steps="16" name="" type="1">
          <note key="48" pos="0" pan="0" len="768" vol="100" />
        </pattern>
        <pattern pos="86016" muted="0" steps="16" name="" type="1">
          <note key="48" pos="0" pan="0" len="768" vol="100" />
        </pattern>
        <pattern pos="86784" muted="0" steps="16" name="" type="1">
          <note key="48" pos="0" pan="0" len="768" vol="100" />
        </pattern>
        <pattern pos="87552" muted="0" steps="16" name="" type="1">
          <note key="48" pos="0" pan="0" len="768" vol="100" />
        </pattern>
        <pattern pos="88320" muted="0" steps="16" name="" type="1">
          <note key="48" pos="0" pan="0" len="768" vol="100" />
        </pattern>
        <pattern pos="89088" muted="0" steps="16" name="" type="1">
          <note key="48" pos="0" pan="0" len="768" vol="100" />
        </pattern>
        <pattern pos="89856" muted="0" steps="16" name="" type="1">
          <note key="48" pos="0" pan="0" len="768" vol="100" />
        </pattern>
        <pattern pos="90624" muted="0" steps="16" name="" type="1">
          <note key="48" pos="0" pan="0" len="768" vol="100" />
        </pattern>
      </track>
      <track solo="0" name="16 (Ch4)" type="0" muted="0">
        <instrumenttrack usemasterpitch="1" pitch="0.0" basenote="57" pan="0" pitchrange="12" vol="30">
          <eldata />
          <instrument name="tripleoscillator" />
        </instrumenttrack>
        <pattern pos="267648" muted="0" steps="16" name="" type="1">
          <note key="51" pos="48" pan="0" len="72" vol="100" />
          <note key="63" pos="120" pan="0" len="24" vol="100" />
          <note key="51" pos="240" pan="0" len="72" vol="100" />
          <note key="63" pos="312" pan="0" len="24" vol="100" />
          <note key="58" pos="432" pan="0" len="72" vol="100" />
          <note key="70" pos="504" pan="0" len="24" vol="100" />
          <note key="58" pos="624" pan="0" len="72" vol="100" />
          <note key="70" pos="696" pan="0" len="24" vol="100" />
          <note key="51" pos="816" pan="0" len="72" vol="100" />
          <note key="63" pos="888" pan="0" len="24" vol="100" />
          <note key="51" pos="1008" pan="0" len="72" vol="100" />
          <note key="63" pos="1080" pan="0" len="24" vol="100" />
          <note key="58" pos="1200" pan="0" len="72" vol="100" />
          <note key="70" pos="1272" pan="0" len="24" vol="100" />
        </pattern>
        <pattern pos="259968" muted="0" steps="16" name="" type="1">
          <note key="48" pos="48" pan="0" len="72" vol="100" />
          <note key="60" pos="120" pan="0" len="24" vol="100" />
          <note key="48" pos="240" pan="0" len="72" vol="100" />
          <note key="60" pos="312" pan="0" len="24" vol="100" />
          <note key="48" pos="432" pan="0" len="72" vol="100" />
          <note key="60" pos="504" pan="0" len="24" vol="100" />
          <note key="48" pos="624" pan="0" len="72" vol="100" />
          <note key="60" pos="696" pan="0" len="24" vol="100" />
        </pattern>
        <pattern pos="260736" muted="0" steps="16" name="" type="1">
          <note key="48" pos="48" pan="0" len="72" vol="100" />
          <note key="60" pos="120" pan="0" len="24" vol="100" />
          <note key="48" pos="240" pan="0" len="72" vol="100" />
          <note key="60" pos="312" pan="0" len="24" vol="100" />
          <note key="48" pos="432" pan="0" len="72" vol="100" />
          <note key="60" pos="504" pan="0" len="24" vol="100" />
          <note key="48" pos="624" pan="0" len="72" vol="100" />
          <note key="60" pos="696" pan="0" len="24" vol="100" />
        </pattern>
        <pattern pos="261504" muted="0" steps="16" name="" type="1">
          <note key="48" pos="48" pan="0" len="72" vol="100" />
          <note key="48" pos="120" pan="0" len="24" vol="100" />
          <note key="48" pos="240" pan="0" len="72" vol="100" />
          <note key="48" pos="312" pan="0" len="24" vol="100" />
          <note key="48" pos="432" pan="0" len="72" vol="100" />
          <note key="48" pos="504" pan="0" len="24" vol="100" />
          <note key="48" pos="624" pan="0" len="72" vol="100" />
          <note key="48" pos="696" pan="0" len="24" vol="100" />
        </pattern>
        <pattern pos="262272" muted="0" steps="16" name="" type="1">
          <note key="48" pos="48" pan="0" len="72" vol="100" />
          <note key="48" pos="120" pan="0" len="24" vol="100" />
          <note key="48" pos="240" pan="0" len="72" vol="100" />
          <note key="48" pos="312" pan="0" len="24" vol="100" />
          <note key="48" pos="504" pan="0" len="24" vol="100" />
          <note key="48" pos="696" pan="0" len="24" vol="100" />
        </pattern>
        <pattern pos="263040" muted="0" steps="16" name="" type="1">
          <note key="48" pos="48" pan="0" len="72" vol="100" />
          <note key="60" pos="120" pan="0" len="24" vol="100" />
          <note key="48" pos="240" pan="0" len="72" vol="100" />
          <note key="60" pos="312" pan="0" len="24" vol="100" />
          <note key="48" pos="432" pan="0" len="72" vol="100" />
          <note key="60" pos="504" pan="0" len="24" vol="100" />
          <note key="48" pos="624" pan="0" len="72" vol="100" />
          <note key="60" pos="696" pan="0" len="24" vol="100" />
        </pattern>
        <pattern pos="263808" muted="0" steps="16" name="" type="1">
          <note key="48" pos="48" pan="0" len="72" vol="100" />
          <note key="60" pos="120" pan="0" len="24" vol="100" />
          <note key="48" pos="240" pan="0" len="72" vol="100" />
          <note key="60" pos="312" pan="0" len="24" vol="100" />
          <note key="48" pos="432" pan="0" len="72" vol="100" />
          <note key="60" pos="504" pan="0" len="24" vol="100" />
          <note key="48" pos="624" pan="0" len="72" vol="100" />
          <note key="60" pos="696" pan="0" len="24" vol="100" />
        </pattern>
        <pattern pos="264576" muted="0" steps="16" name="" type="1">
          <note key="48" pos="48" pan="0" len="72" vol="100" />
          <note key="60" pos="120" pan="0" len="24" vol="100" />
          <note key="48" pos="240" pan="0" len="72" vol="100" />
          <note key="60" pos="312" pan="0" len="24" vol="100" />
          <note key="48" pos="432" pan="0" len="72" vol="100" />
          <note key="60" pos="504" pan="0" len="24" vol="100" />
          <note key="48" pos="624" pan="0" len="72" vol="100" />
          <note key="60" pos="696" pan="0" len="24" vol="100" />
        </pattern>
        <pattern pos="265344" muted="0" steps="16" name="" type="1">
          <note key="48" pos="48" pan="0" len="72" vol="100" />
          <note key="60" pos="120" pan="0" len="24" vol="100" />
          <note key="48" pos="240" pan="0" len="72" vol="100" />
          <note key="60" pos="312" pan="0" len="24" vol="100" />
          <note key="48" pos="432" pan="0" len="72" vol="100" />
          <note key="60" pos="504" pan="0" len="24" vol="100" />
          <note key="48" pos="624" pan="0" len="72" vol="100" />
          <note key="60" pos="696" pan="0" len="24" vol="100" />
        </pattern>
        <pattern pos="266112" muted="0" steps="16" name="" type="1">
          <note key="48" pos="48" pan="0" len="72" vol="100" />
          <note key="60" pos="120" pan="0" len="24" vol="100" />
          <note key="48" pos="240" pan="0" len="72" vol="100" />
          <note key="60" pos="312" pan="0" len="24" vol="100" />
          <note key="48" pos="432" pan="0" len="72" vol="100" />
          <note key="60" pos="504" pan="0" len="24" vol="100" />
          <note key="48" pos="624" pan="0" len="72" vol="100" />
          <note key="60" pos="696" pan="0" len="24" vol="100" />
          <note key="48" pos="816" pan="0" len="72" vol="100" />
          <note key="60" pos="888" pan="0" len="24" vol="100" />
          <note key="48" pos="1008" pan="0" len="72" vol="100" />
          <note key="60" pos="1080" pan="0" len="24" vol="100" />
          <note key="48" pos="1200" pan="0" len="72" vol="100" />
          <note key="60" pos="1272" pan="0" len="24" vol="100" />
          <note key="48" pos="1392" pan="0" len="72" vol="100" />
          <note key="60" pos="1464" pan="0" len="24" vol="100" />
        </pattern>
      </track>
      <track solo="0" name="16 (Ch6)" type="0" muted="0">
        <instrumenttrack usemasterpitch="1" pitch="0.0" basenote="57" pan="0" pitchrange="12" vol="30">
          <eldata />
          <instrument name="tripleoscillator" />
        </instrumenttrack>
        <pattern pos="112128" muted="0" steps="16" name="" type="1">
          <note key="48" pos="96" pan="0" len="192" vol="100" />
          <note key="48" pos="288" pan="0" len="192" vol="100" />
          <note key="48" pos="480" pan="0" len="192" vol="100" />
          <note key="48" pos="672" pan="0" len="96" vol="100" />
          <note key="48" pos="864" pan="0" len="192" vol="100" />
          <note key="48" pos="1056" pan="0" len="192" vol="100" />
          <note key="48" pos="1248" pan="0" len="192" vol="100" />
          <note key="48" pos="1440" pan="0" len="96" vol="100" />
        </pattern>
        <pattern pos="105984" muted="0" steps="16" name="" type="1">
          <note key="47" pos="1440" pan="0" len="96" vol="100" />
        </pattern>
        <pattern pos="107520" muted="0" steps="16" name="" type="1">
          <note key="47" pos="96" pan="0" len="192" vol="100" />
          <note key="47" pos="288" pan="0" len="192" vol="100" />
          <note key="47" pos="480" pan="0" len="192" vol="100" />
          <note key="47" pos="672" pan="0" len="96" vol="100" />
          <note key="47" pos="864" pan="0" len="192" vol="100" />
          <note key="47" pos="1056" pan="0" len="192" vol="100" />
          <note key="47" pos="1248" pan="0" len="192" vol="100" />
          <note key="47" pos="1440" pan="0" len="96" vol="100" />
        </pattern>
        <pattern pos="109056" muted="0" steps="16" name="" type="1">
          <note key="47" pos="96" pan="0" len="192" vol="100" />
          <note key="47" pos="288" pan="0" len="192" vol="100" />
          <note key="47" pos="480" pan="0" len="192" vol="100" />
          <note key="47" pos="672" pan="0" len="96" vol="100" />
          <note key="47" pos="864" pan="0" len="192" vol="100" />
          <note key="47" pos="1056" pan="0" len="192" vol="100" />
          <note key="47" pos="1248" pan="0" len="192" vol="100" />
          <note key="47" pos="1440" pan="0" len="96" vol="100" />
        </pattern>
        <pattern pos="110592" muted="0" steps="16" name="" type="1">
          <note key="48" pos="96" pan="0" len="192" vol="100" />
          <note key="48" pos="288" pan="0" len="192" vol="100" />
          <note key="48" pos="480" pan="0" len="192" vol="100" />
          <note key="48" pos="672" pan="0" len="96" vol="100" />
          <note key="48" pos="864" pan="0" len="192" vol="100" />
          <note key="48" pos="1056" pan="0" len="192" vol="100" />
          <note key="48" pos="1248" pan="0" len="192" vol="100" />
          <note key="48" pos="1440" pan="0" len="96" vol="100" />
        </pattern>
      </track>
      <track solo="0" name="16 (Ch7)" type="0" muted="0">
        <instrumenttrack usemasterpitch="1" pitch="0.0" basenote="57" pan="0" pitchrange="12" vol="30">
          <eldata />
          <instrument name="tripleoscillator" />
        </instrumenttrack>
        <pattern pos="256896" muted="0" steps="16" name="" type="1">
          <note key="72" pos="72" pan="0" len="24" vol="17" />
          <note key="72" pos="144" pan="0" len="24" vol="100" />
          <note key="72" pos="168" pan="0" len="24" vol="17" />
          <note key="72" pos="216" pan="0" len="24" vol="17" />
          <note key="72" pos="240" pan="0" len="24" vol="100" />
          <note key="72" pos="264" pan="0" len="24" vol="17" />
          <note key="72" pos="336" pan="0" len="24" vol="100" />
          <note key="72" pos="360" pan="0" len="24" vol="17" />
          <note key="72" pos="456" pan="0" len="24" vol="17" />
          <note key="72" pos="528" pan="0" len="24" vol="100" />
          <note key="72" pos="552" pan="0" len="24" vol="17" />
          <note key="72" pos="600" pan="0" len="24" vol="17" />
          <note key="72" pos="624" pan="0" len="24" vol="100" />
          <note key="72" pos="648" pan="0" len="24" vol="17" />
          <note key="72" pos="720" pan="0" len="24" vol="100" />
          <note key="72" pos="744" pan="0" len="24" vol="17" />
          <note key="72" pos="840" pan="0" len="24" vol="17" />
          <note key="72" pos="912" pan="0" len="24" vol="100" />
          <note key="72" pos="936" pan="0" len="24" vol="17" />
          <note key="72" pos="984" pan="0" len="24" vol="17" />
          <note key="72" pos="1008" pan="0" len="24" vol="100" />
          <note key="72" pos="1032" pan="0" len="24" vol="17" />
          <note key="72" pos="1104" pan="0" len="24" vol="100" />
          <note key="72" pos="1128" pan="0" len="24" vol="17" />
          <note key="72" pos="1224" pan="0" len="48" vol="17" />
          <note key="72" pos="1296" pan="0" len="24" vol="100" />
          <note key="72" pos="1344" pan="0" len="24" vol="17" />
          <note key="72" pos="1368" pan="0" len="24" vol="100" />
        </pattern>
        <pattern pos="241536" muted="0" steps="16" name="" type="1">
          <note key="72" pos="48" pan="0" len="24" vol="100" />
          <note key="72" pos="72" pan="0" len="24" vol="17" />
          <note key="72" pos="144" pan="0" len="24" vol="100" />
          <note key="72" pos="168" pan="0" len="24" vol="17" />
          <note key="72" pos="216" pan="0" len="24" vol="17" />
          <note key="72" pos="240" pan="0" len="24" vol="100" />
          <note key="72" pos="264" pan="0" len="24" vol="17" />
          <note key="72" pos="336" pan="0" len="24" vol="100" />
          <note key="72" pos="360" pan="0" len="24" vol="17" />
          <note key="72" pos="432" pan="0" len="24" vol="100" />
          <note key="72" pos="456" pan="0" len="24" vol="17" />
          <note key="72" pos="528" pan="0" len="24" vol="100" />
          <note key="72" pos="552" pan="0" len="24" vol="17" />
          <note key="72" pos="600" pan="0" len="24" vol="17" />
          <note key="72" pos="624" pan="0" len="24" vol="100" />
          <note key="72" pos="648" pan="0" len="24" vol="17" />
          <note key="72" pos="720" pan="0" len="24" vol="100" />
          <note key="72" pos="744" pan="0" len="24" vol="17" />
          <note key="72" pos="816" pan="0" len="24" vol="100" />
          <note key="72" pos="840" pan="0" len="24" vol="17" />
          <note key="72" pos="912" pan="0" len="24" vol="100" />
          <note key="72" pos="936" pan="0" len="24" vol="17" />
          <note key="72" pos="984" pan="0" len="24" vol="17" />
          <note key="72" pos="1008" pan="0" len="24" vol="100" />
          <note key="72" pos="1032" pan="0" len="24" vol="17" />
          <note key="72" pos="1104" pan="0" len="24" vol="100" />
          <note key="72" pos="1128" pan="0" len="24" vol="17" />
          <note key="72" pos="1200" pan="0" len="24" vol="100" />
          <note key="72" pos="1224" pan="0" len="24" vol="17" />
          <note key="72" pos="1296" pan="0" len="24" vol="100" />
          <note key="72" pos="1320" pan="0" len="24" vol="17" />
          <note key="72" pos="1368" pan="0" len="24" vol="17" />
          <note key="72" pos="1392" pan="0" len="24" vol="100" />
          <note key="72" pos="1416" pan="0" len="24" vol="17" />
          <note key="72" pos="1488" pan="0" len="24" vol="100" />
          <note key="72" pos="1512" pan="0" len="24" vol="17" />
        </pattern>
        <pattern pos="243072" muted="0" steps="16" name="" type="1">
          <note key="72" pos="48" pan="0" len="24" vol="100" />
          <note key="72" pos="72" pan="0" len="24" vol="17" />
          <note key="72" pos="144" pan="0" len="24" vol="100" />
          <note key="72" pos="168" pan="0" len="24" vol="17" />
          <note key="72" pos="216" pan="0" len="24" vol="17" />
          <note key="72" pos="240" pan="0" len="24" vol="100" />
          <note key="72" pos="264" pan="0" len="24" vol="17" />
          <note key="72" pos="336" pan="0" len="24" vol="100" />
          <note key="72" pos="360" pan="0" len="24" vol="17" />
          <note key="72" pos="432" pan="0" len="24" vol="100" />
          <note key="72" pos="456" pan="0" len="24" vol="17" />
          <note key="72" pos="528" pan="0" len="24" vol="100" />
          <note key="72" pos="552" pan="0" len="24" vol="17" />
          <note key="72" pos="600" pan="0" len="24" vol="17" />
          <note key="72" pos="624" pan="0" len="24" vol="100" />
          <note key="72" pos="648" pan="0" len="24" vol="17" />
          <note key="72" pos="720" pan="0" len="24" vol="100" />
          <note key="72" pos="744" pan="0" len="24" vol="17" />
          <note key="72" pos="816" pan="0" len="24" vol="100" />
          <note key="72" pos="840" pan="0" len="24" vol="17" />
          <note key="72" pos="912" pan="0" len="24" vol="100" />
          <note key="72" pos="936" pan="0" len="24" vol="17" />
          <note key="72" pos="984" pan="0" len="24" vol="17" />
          <note key="72" pos="1008" pan="0" len="24" vol="100" />
          <note key="72" pos="1032" pan="0" len="24" vol="17" />
          <note key="72" pos="1104" pan="0" len="24" vol="100" />
          <note key="72" pos="1128" pan="0" len="24" vol="17" />
          <note key="72" pos="1224" pan="0" len="48" vol="17" />
          <note key="72" pos="1296" pan="0" len="24" vol="100" />
          <note key="72" pos="1344" pan="0" len="24" vol="17" />
          <note key="72" pos="1368" pan="0" len="24" vol="100" />
        </pattern>
        <pattern pos="244608" muted="0" steps="16" name="" type="1">
          <note key="72" pos="72" pan="0" len="24" vol="17" />
          <note key="72" pos="144" pan="0" len="24" vol="100" />
          <note key="72" pos="168" pan="0" len="24" vol="17" />
          <note key="72" pos="216" pan="0" len="24" vol="17" />
          <note key="72" pos="240" pan="0" len="24" vol="100" />
          <note key="72" pos="264" pan="0" len="24" vol="17" />
          <note key="72" pos="336" pan="0" len="24" vol="100" />
          <note key="72" pos="360" pan="0" len="24" vol="17" />
          <note key="72" pos="456" pan="0" len="24" vol="17" />
          <note key="72" pos="528" pan="0" len="24" vol="100" />
          <note key="72" pos="552" pan="0" len="24" vol="17" />
          <note key="72" pos="600" pan="0" len="24" vol="17" />
          <note key="72" pos="624" pan="0" len="24" vol="100" />
          <note key="72" pos="648" pan="0" len="24" vol="17" />
          <note key="72" pos="720" pan="0" len="24" vol="100" />
          <note key="72" pos="744" pan="0" len="24" vol="17" />
          <note key="72" pos="840" pan="0" len="24" vol="17" />
          <note key="72" pos="912" pan="0" len="24" vol="100" />
          <note key="72" pos="936" pan="0" len="24" vol="17" />
          <note key="72" pos="984" pan="0" len="24" vol="17" />
          <note key="72" pos="1008" pan="0" len="24" vol="100" />
          <note key="72" pos="1032" pan="0" len="24" vol="17" />
          <note key="72" pos="1104" pan="0" len="24" vol="100" />
          <note key="72" pos="1128" pan="0" len="24" vol="17" />
          <note key="72" pos="1224" pan="0" len="24" vol="17" />
          <note key="72" pos="1296" pan="0" len="24" vol="100" />
          <note key="72" pos="1320" pan="0" len="24" vol="17" />
          <note key="72" pos="1368" pan="0" len="24" vol="17" />
          <note key="72" pos="1392" pan="0" len="24" vol="100" />
          <note key="72" pos="1416" pan="0" len="24" vol="17" />
          <note key="72" pos="1488" pan="0" len="24" vol="100" />
          <note key="72" pos="1512" pan="0" len="24" vol="17" />
        </pattern>
        <pattern pos="246144" muted="0" steps="16" name="" type="1">
          <note key="72" pos="72" pan="0" len="24" vol="17" />
          <note key="72" pos="144" pan="0" len="24" vol="100" />
          <note key="72" pos="168" pan="0" len="24" vol="17" />
          <note key="72" pos="216" pan="0" len="24" vol="17" />
          <note key="72" pos="240" pan="0" len="24" vol="100" />
          <note key="72" pos="264" pan="0" len="24" vol="17" />
          <note key="72" pos="336" pan="0" len="24" vol="100" />
          <note key="72" pos="360" pan="0" len="24" vol="17" />
          <note key="72" pos="456" pan="0" len="24" vol="17" />
          <note key="72" pos="528" pan="0" len="24" vol="100" />
          <note key="72" pos="552" pan="0" len="24" vol="17" />
          <note key="72" pos="600" pan="0" len="24" vol="17" />
          <note key="72" pos="624" pan="0" len="24" vol="100" />
          <note key="72" pos="648" pan="0" len="24" vol="17" />
          <note key="72" pos="720" pan="0" len="24" vol="100" />
          <note key="72" pos="744" pan="0" len="24" vol="17" />
          <note key="72" pos="840" pan="0" len="24" vol="17" />
          <note key="72" pos="912" pan="0" len="24" vol="100" />
          <note key="72" pos="936" pan="0" len="24" vol="17" />
          <note key="72" pos="984" pan="0" len="24" vol="17" />
          <note key="72" pos="1008" pan="0" len="24" vol="100" />
          <note key="72" pos="1032" pan="0" len="24" vol="17" />
          <note key="72" pos="1104" pan="0" len="24" vol="100" />
          <note key="72" pos="1128" pan="0" len="24" vol="17" />
          <note key="72" pos="1224" pan="0" len="24" vol="17" />
          <note key="72" pos="1296" pan="0" len="24" vol="100" />
          <note key="72" pos="1320" pan="0" len="24" vol="17" />
          <note key="72" pos="1368" pan="0" len="24" vol="17" />
          <note key="72" pos="1392" pan="0" len="24" vol="100" />
          <note key="72" pos="1416" pan="0" len="24" vol="17" />
          <note key="72" pos="1488" pan="0" len="24" vol="100" />
          <note key="72" pos="1512" pan="0" len="24" vol="17" />
        </pattern>
        <pattern pos="249216" muted="0" steps="16" name="" type="1">
          <note key="72" pos="72" pan="0" len="24" vol="17" />
          <note key="72" pos="144" pan="0" len="24" vol="100" />
          <note key="72" pos="168" pan="0" len="24" vol="17" />
          <note key="72" pos="216" pan="0" len="24" vol="17" />
          <note key="72" pos="240" pan="0" len="24" vol="100" />
          <note key="72" pos="264" pan="0" len="24" vol="17" />
          <note key="72" pos="336" pan="0" len="24" vol="100" />
          <note key="72" pos="360" pan="0" len="24" vol="17" />
          <note key="72" pos="456" pan="0" len="24" vol="17" />
          <note key="72" pos="528" pan="0" len="24" vol="100" />
          <note key="72" pos="552" pan="0" len="24" vol="17" />
          <note key="72" pos="600" pan="0" len="24" vol="17" />
          <note key="72" pos="624" pan="0" len="24" vol="100" />
          <note key="72" pos="648" pan="0" len="24" vol="17" />
          <note key="72" pos="720" pan="0" len="24" vol="100" />
          <note key="72" pos="744" pan="0" len="24" vol="17" />
          <note key="72" pos="840" pan="0" len="24" vol="17" />
          <note key="72" pos="912" pan="0" len="24" vol="100" />
          <note key="72" pos="936" pan="0" len="24" vol="17" />
          <note key="72" pos="984" pan="0" len="24" vol="17" />
          <note key="72" pos="1008" pan="0" len="24" vol="100" />
          <note key="72" pos="1032" pan="0" len="24" vol="17" />
          <note key="72" pos="1104" pan="0" len="24" vol="100" />
          <note key="72" pos="1128" pan="0" len="24" vol="17" />
          <note key="72" pos="1224" pan="0" len="24" vol="17" />
          <note key="72" pos="1296" pan="0" len="24" vol="100" />
          <note key="72" pos="1320" pan="0" len="24" vol="17" />
          <note key="72" pos="1368" pan="0" len="24" vol="17" />
          <note key="72" pos="1392" pan="0" len="24" vol="100" />
          <note key="72" pos="1416" pan="0" len="24" vol="17" />
          <note key="72" pos="1488" pan="0" len="24" vol="100" />
          <note key="72" pos="1512" pan="0" len="24" vol="17" />
        </pattern>
        <pattern pos="250752" muted="0" steps="16" name="" type="1">
          <note key="72" pos="72" pan="0" len="24" vol="17" />
          <note key="72" pos="144" pan="0" len="24" vol="100" />
          <note key="72" pos="168" pan="0" len="24" vol="17" />
          <note key="72" pos="216" pan="0" len="24" vol="17" />
          <note key="72" pos="240" pan="0" len="24" vol="100" />
          <note key="72" pos="264" pan="0" len="24" vol="17" />
          <note key="72" pos="336" pan="0" len="24" vol="100" />
          <note key="72" pos="360" pan="0" len="24" vol="17" />
          <note key="72" pos="456" pan="0" len="24" vol="17" />
          <note key="72" pos="528" pan="0" len="24" vol="100" />
          <note key="72" pos="552" pan="0" len="24" vol="17" />
          <note key="72" pos="600" pan="0" len="24" vol="17" />
          <note key="72" pos="624" pan="0" len="24" vol="100" />
          <note key="72" pos="648" pan="0" len="24" vol="17" />
          <note key="72" pos="720" pan="0" len="24" vol="100" />
          <note key="72" pos="744" pan="0" len="24" vol="17" />
          <note key="72" pos="840" pan="0" len="24" vol="17" />
          <note key="72" pos="912" pan="0" len="24" vol="100" />
          <note key="72" pos="936" pan="0" len="24" vol="17" />
          <note key="72" pos="984" pan="0" len="24" vol="17" />
          <note key="72" pos="1008" pan="0" len="24" vol="100" />
          <note key="72" pos="1032" pan="0" len="24" vol="17" />
          <note key="72" pos="1104" pan="0" len="24" vol="100" />
          <note key="72" pos="1128" pan="0" len="24" vol="17" />
          <note key="72" pos="1224" pan="0" len="24" vol="17" />
          <note key="72" pos="1296" pan="0" len="24" vol="100" />
          <note key="72" pos="1320" pan="0" len="24" vol="17" />
          <note key="72" pos="1368" pan="0" len="24" vol="17" />
          <note key="72" pos="1392" pan="0" len="24" vol="100" />
          <note key="72" pos="1416" pan="0" len="24" vol="17" />
          <note key="72" pos="1488" pan="0" len="24" vol="100" />
          <note key="72" pos="1512" pan="0" len="24" vol="17" />
        </pattern>
        <pattern pos="252288" muted="0" steps="16" name="" type="1">
          <note key="72" pos="72" pan="0" len="24" vol="17" />
          <note key="72" pos="144" pan="0" len="24" vol="100" />
          <note key="72" pos="168" pan="0" len="24" vol="17" />
          <note key="72" pos="216" pan="0" len="24" vol="17" />
          <note key="72" pos="240" pan="0" len="24" vol="100" />
          <note key="72" pos="264" pan="0" len="24" vol="17" />
          <note key="72" pos="336" pan="0" len="24" vol="100" />
          <note key="72" pos="360" pan="0" len="24" vol="17" />
          <note key="72" pos="456" pan="0" len="24" vol="17" />
          <note key="72" pos="528" pan="0" len="24" vol="100" />
          <note key="72" pos="552" pan="0" len="24" vol="17" />
          <note key="72" pos="600" pan="0" len="24" vol="17" />
          <note key="72" pos="624" pan="0" len="24" vol="100" />
          <note key="72" pos="648" pan="0" len="24" vol="17" />
          <note key="72" pos="720" pan="0" len="24" vol="100" />
          <note key="72" pos="744" pan="0" len="24" vol="17" />
          <note key="72" pos="840" pan="0" len="24" vol="17" />
          <note key="72" pos="912" pan="0" len="24" vol="100" />
          <note key="72" pos="936" pan="0" len="24" vol="17" />
          <note key="72" pos="984" pan="0" len="24" vol="17" />
          <note key="72" pos="1008" pan="0" len="24" vol="100" />
          <note key="72" pos="1032" pan="0" len="24" vol="17" />
          <note key="72" pos="1104" pan="0" len="24" vol="100" />
          <note key="72" pos="1128" pan="0" len="24" vol="17" />
          <note key="72" pos="1224" pan="0" len="24" vol="17" />
          <note key="72" pos="1296" pan="0" len="24" vol="100" />
          <note key="72" pos="1320" pan="0" len="24" vol="17" />
          <note key="72" pos="1368" pan="0" len="24" vol="17" />
          <note key="72" pos="1392" pan="0" len="24" vol="100" />
          <note key="72" pos="1416" pan="0" len="24" vol="17" />
          <note key="72" pos="1488" pan="0" len="24" vol="100" />
          <note key="72" pos="1512" pan="0" len="24" vol="17" />
        </pattern>
        <pattern pos="253824" muted="0" steps="16" name="" type="1">
          <note key="72" pos="72" pan="0" len="24" vol="17" />
          <note key="72" pos="144" pan="0" len="24" vol="100" />
          <note key="72" pos="168" pan="0" len="24" vol="17" />
          <note key="72" pos="216" pan="0" len="24" vol="17" />
          <note key="72" pos="240" pan="0" len="24" vol="100" />
          <note key="72" pos="264" pan="0" len="24" vol="17" />
          <note key="72" pos="336" pan="0" len="24" vol="100" />
          <note key="72" pos="360" pan="0" len="24" vol="17" />
          <note key="72" pos="456" pan="0" len="24" vol="17" />
          <note key="72" pos="528" pan="0" len="24" vol="100" />
          <note key="72" pos="552" pan="0" len="24" vol="17" />
          <note key="72" pos="600" pan="0" len="24" vol="17" />
          <note key="72" pos="624" pan="0" len="24" vol="100" />
          <note key="72" pos="648" pan="0" len="24" vol="17" />
          <note key="72" pos="720" pan="0" len="24" vol="100" />
          <note key="72" pos="744" pan="0" len="24" vol="17" />
          <note key="72" pos="840" pan="0" len="24" vol="17" />
          <note key="72" pos="912" pan="0" len="24" vol="100" />
          <note key="72" pos="936" pan="0" len="24" vol="17" />
          <note key="72" pos="984" pan="0" len="24" vol="17" />
          <note key="72" pos="1008" pan="0" len="24" vol="100" />
          <note key="72" pos="1032" pan="0" len="24" vol="17" />
          <note key="72" pos="1104" pan="0" len="24" vol="100" />
          <note key="72" pos="1128" pan="0" len="24" vol="17" />
          <note key="72" pos="1224" pan="0" len="24" vol="17" />
          <note key="72" pos="1296" pan="0" len="24" vol="100" />
          <note key="72" pos="1320" pan="0" len="24" vol="17" />
          <note key="72" pos="1368" pan="0" len="24" vol="17" />
          <note key="72" pos="1392" pan="0" len="24" vol="100" />
          <note key="72" pos="1416" pan="0" len="24" vol="17" />
          <note key="72" pos="1488" pan="0" len="24" vol="100" />
          <note key="72" pos="1512" pan="0" len="24" vol="17" />
        </pattern>
        <pattern pos="255360" muted="0" steps="16" name="" type="1">
          <note key="72" pos="72" pan="0" len="24" vol="17" />
          <note key="72" pos="144" pan="0" len="24" vol="100" />
          <note key="72" pos="168" pan="0" len="24" vol="17" />
          <note key="72" pos="216" pan="0" len="24" vol="17" />
          <note key="72" pos="240" pan="0" len="24" vol="100" />
          <note key="72" pos="264" pan="0" len="24" vol="17" />
          <note key="72" pos="336" pan="0" len="24" vol="100" />
          <note key="72" pos="360" pan="0" len="24" vol="17" />
          <note key="72" pos="456" pan="0" len="24" vol="17" />
          <note key="72" pos="528" pan="0" len="24" vol="100" />
          <note key="72" pos="552" pan="0" len="24" vol="17" />
          <note key="72" pos="600" pan="0" len="24" vol="17" />
          <note key="72" pos="624" pan="0" len="24" vol="100" />
          <note key="72" pos="648" pan="0" len="24" vol="17" />
          <note key="72" pos="720" pan="0" len="24" vol="100" />
          <note key="72" pos="744" pan="0" len="24" vol="17" />
          <note key="72" pos="840" pan="0" len="24" vol="17" />
          <note key="72" pos="912" pan="0" len="24" vol="100" />
          <note key="72" pos="936" pan="0" len="24" vol="17" />
          <note key="72" pos="984" pan="0" len="24" vol="17" />
          <note key="72" pos="1008" pan="0" len="24" vol="100" />
          <note key="72" pos="1032" pan="0" len="24" vol="17" />
          <note key="72" pos="1104" pan="0" len="24" vol="100" />
          <note key="72" pos="1128" pan="0" len="24" vol="17" />
          <note key="72" pos="1224" pan="0" len="24" vol="17" />
          <note key="72" pos="1296" pan="0" len="24" vol="100" />
          <note key="72" pos="1320" pan="0" len="24" vol="17" />
          <note key="72" pos="1368" pan="0" len="24" vol="17" />
          <note key="72" pos="1392" pan="0" len="24" vol="100" />
          <note key="72" pos="1416" pan="0" len="24" vol="17" />
          <note key="72" pos="1488" pan="0" len="24" vol="100" />
          <note key="72" pos="1512" pan="0" len="24" vol="17" />
        </pattern>
      </track>
      <track solo="0" name="16 (Ch8)" type="0" muted="0">
        <instrumenttrack usemasterpitch="1" pitch="0.0" basenote="57" pan="0" pitchrange="12" vol="30">
          <eldata />
          <instrument name="tripleoscillator" />
        </instrumenttrack>
        <pattern pos="247680" muted="0" steps="16" name="" type="1">
          <note key="72" pos="48" pan="0" len="24" vol="100" />
          <note key="72" pos="72" pan="0" len="72" vol="17" />
          <note key="72" pos="144" pan="0" len="24" vol="100" />
          <note key="72" pos="168" pan="0" len="48" vol="17" />
          <note key="72" pos="216" pan="0" len="24" vol="17" />
          <note key="72" pos="240" pan="0" len="24" vol="100" />
          <note key="72" pos="264" pan="0" len="72" vol="17" />
          <note key="72" pos="336" pan="0" len="24" vol="100" />
          <note key="72" pos="360" pan="0" len="24" vol="17" />
          <note key="72" pos="432" pan="0" len="24" vol="100" />
          <note key="72" pos="456" pan="0" len="72" vol="17" />
          <note key="72" pos="528" pan="0" len="24" vol="100" />
          <note key="72" pos="552" pan="0" len="48" vol="17" />
          <note key="72" pos="600" pan="0" len="24" vol="17" />
          <note key="72" pos="624" pan="0" len="24" vol="100" />
          <note key="72" pos="648" pan="0" len="72" vol="17" />
          <note key="72" pos="720" pan="0" len="24" vol="100" />
          <note key="72" pos="744" pan="0" len="24" vol="17" />
          <note key="72" pos="816" pan="0" len="24" vol="100" />
          <note key="72" pos="840" pan="0" len="72" vol="17" />
          <note key="72" pos="912" pan="0" len="24" vol="100" />
          <note key="72" pos="936" pan="0" len="48" vol="17" />
          <note key="72" pos="984" pan="0" len="24" vol="17" />
          <note key="72" pos="1008" pan="0" len="24" vol="100" />
          <note key="72" pos="1032" pan="0" len="72" vol="17" />
          <note key="72" pos="1104" pan="0" len="24" vol="100" />
          <note key="72" pos="1128" pan="0" len="24" vol="17" />
          <note key="72" pos="1200" pan="0" len="24" vol="100" />
          <note key="72" pos="1224" pan="0" len="72" vol="17" />
          <note key="72" pos="1296" pan="0" len="24" vol="100" />
          <note key="72" pos="1320" pan="0" len="48" vol="17" />
          <note key="72" pos="1368" pan="0" len="24" vol="17" />
          <note key="72" pos="1392" pan="0" len="24" vol="100" />
          <note key="72" pos="1416" pan="0" len="72" vol="17" />
          <note key="72" pos="1488" pan="0" len="24" vol="100" />
          <note key="72" pos="1512" pan="0" len="24" vol="17" />
        </pattern>
        <pattern pos="240000" muted="0" steps="16" name="" type="1">
          <note key="72" pos="48" pan="0" len="24" vol="100" />
          <note key="72" pos="72" pan="0" len="72" vol="17" />
          <note key="72" pos="144" pan="0" len="24" vol="100" />
          <note key="72" pos="168" pan="0" len="48" vol="17" />
          <note key="72" pos="216" pan="0" len="24" vol="17" />
          <note key="72" pos="240" pan="0" len="24" vol="100" />
          <note key="72" pos="264" pan="0" len="72" vol="17" />
          <note key="72" pos="336" pan="0" len="24" vol="100" />
          <note key="72" pos="360" pan="0" len="24" vol="17" />
          <note key="72" pos="432" pan="0" len="24" vol="100" />
          <note key="72" pos="456" pan="0" len="72" vol="17" />
          <note key="72" pos="528" pan="0" len="24" vol="100" />
          <note key="72" pos="552" pan="0" len="48" vol="17" />
          <note key="72" pos="600" pan="0" len="24" vol="17" />
          <note key="72" pos="624" pan="0" len="24" vol="100" />
          <note key="72" pos="648" pan="0" len="72" vol="17" />
          <note key="72" pos="720" pan="0" len="24" vol="100" />
          <note key="72" pos="744" pan="0" len="24" vol="17" />
          <note key="72" pos="816" pan="0" len="24" vol="100" />
          <note key="72" pos="840" pan="0" len="72" vol="17" />
          <note key="72" pos="912" pan="0" len="24" vol="100" />
          <note key="72" pos="936" pan="0" len="48" vol="17" />
          <note key="72" pos="984" pan="0" len="24" vol="17" />
          <note key="72" pos="1008" pan="0" len="24" vol="100" />
          <note key="72" pos="1032" pan="0" len="72" vol="17" />
          <note key="72" pos="1104" pan="0" len="24" vol="100" />
          <note key="72" pos="1128" pan="0" len="24" vol="17" />
          <note key="72" pos="1200" pan="0" len="24" vol="100" />
          <note key="72" pos="1224" pan="0" len="72" vol="17" />
          <note key="72" pos="1296" pan="0" len="24" vol="100" />
          <note key="72" pos="1320" pan="0" len="48" vol="17" />
          <note key="72" pos="1368" pan="0" len="24" vol="17" />
          <note key="72" pos="1392" pan="0" len="24" vol="100" />
          <note key="72" pos="1416" pan="0" len="72" vol="17" />
          <note key="72" pos="1488" pan="0" len="24" vol="100" />
          <note key="72" pos="1512" pan="0" len="24" vol="17" />
        </pattern>
      </track>
      <track solo="0" name="16 (Ch12)" type="0" muted="0">
        <instrumenttrack usemasterpitch="1" pitch="0.0" basenote="57" pan="0" pitchrange="12" vol="30">
          <eldata />
          <instrument name="tripleoscillator" />
        </instrumenttrack>
        <pattern pos="196608" muted="0" steps="16" name="" type="1">
          <note key="72" pos="0" pan="0" len="12" vol="8" />
          <note key="72" pos="12" pan="0" len="12" vol="23" />
          <note key="72" pos="24" pan="0" len="12" vol="67" />
          <note key="72" pos="36" pan="0" len="12" vol="17" />
          <note key="72" pos="48" pan="0" len="12" vol="8" />
          <note key="72" pos="60" pan="0" len="12" vol="23" />
          <note key="72" pos="72" pan="0" len="12" vol="67" />
          <note key="72" pos="84" pan="0" len="12" vol="17" />
          <note key="72" pos="96" pan="0" len="12" vol="8" />
          <note key="72" pos="108" pan="0" len="12" vol="23" />
          <note key="72" pos="120" pan="0" len="12" vol="67" />
          <note key="72" pos="132" pan="0" len="12" vol="17" />
          <note key="72" pos="144" pan="0" len="12" vol="8" />
          <note key="72" pos="156" pan="0" len="12" vol="23" />
          <note key="72" pos="168" pan="0" len="12" vol="67" />
          <note key="72" pos="180" pan="0" len="12" vol="17" />
          <note key="72" pos="192" pan="0" len="12" vol="8" />
          <note key="72" pos="204" pan="0" len="12" vol="23" />
          <note key="72" pos="216" pan="0" len="12" vol="67" />
          <note key="72" pos="228" pan="0" len="12" vol="17" />
          <note key="72" pos="240" pan="0" len="12" vol="8" />
          <note key="72" pos="252" pan="0" len="12" vol="23" />
          <note key="72" pos="264" pan="0" len="12" vol="67" />
          <note key="72" pos="276" pan="0" len="12" vol="17" />
          <note key="72" pos="288" pan="0" len="12" vol="8" />
          <note key="72" pos="300" pan="0" len="12" vol="23" />
          <note key="72" pos="312" pan="0" len="12" vol="67" />
          <note key="72" pos="324" pan="0" len="12" vol="17" />
          <note key="72" pos="336" pan="0" len="12" vol="8" />
          <note key="72" pos="348" pan="0" len="12" vol="23" />
          <note key="72" pos="360" pan="0" len="12" vol="67" />
          <note key="72" pos="372" pan="0" len="12" vol="17" />
          <note key="72" pos="384" pan="0" len="12" vol="8" />
          <note key="72" pos="396" pan="0" len="12" vol="23" />
          <note key="72" pos="408" pan="0" len="12" vol="67" />
          <note key="72" pos="420" pan="0" len="12" vol="17" />
          <note key="72" pos="432" pan="0" len="12" vol="8" />
          <note key="72" pos="444" pan="0" len="12" vol="23" />
          <note key="72" pos="456" pan="0" len="12" vol="67" />
          <note key="72" pos="468" pan="0" len="12" vol="17" />
          <note key="72" pos="480" pan="0" len="12" vol="8" />
          <note key="72" pos="492" pan="0" len="12" vol="23" />
          <note key="72" pos="504" pan="0" len="12" vol="67" />
          <note key="72" pos="516" pan="0" len="12" vol="17" />
          <note key="72" pos="528" pan="0" len="12" vol="8" />
          <note key="72" pos="540" pan="0" len="12" vol="23" />
          <note key="72" pos="552" pan="0" len="12" vol="67" />
          <note key="72" pos="564" pan="0" len="12" vol="17" />
          <note key="72" pos="576" pan="0" len="12" vol="8" />
          <note key="72" pos="588" pan="0" len="12" vol="23" />
          <note key="72" pos="600" pan="0" len="12" vol="66" />
          <note key="72" pos="612" pan="0" len="12" vol="17" />
          <note key="72" pos="624" pan="0" len="12" vol="8" />
          <note key="72" pos="636" pan="0" len="12" vol="22" />
          <note key="72" pos="648" pan="0" len="12" vol="62" />
          <note key="72" pos="660" pan="0" len="12" vol="16" />
          <note key="72" pos="672" pan="0" len="12" vol="8" />
          <note key="72" pos="684" pan="0" len="12" vol="20" />
          <note key="72" pos="696" pan="0" len="12" vol="59" />
          <note key="72" pos="708" pan="0" len="12" vol="14" />
          <note key="72" pos="720" pan="0" len="12" vol="6" />
          <note key="72" pos="732" pan="0" len="12" vol="20" />
          <note key="72" pos="744" pan="0" len="12" vol="55" />
          <note key="72" pos="756" pan="0" len="12" vol="14" />
          <note key="72" pos="768" pan="0" len="12" vol="6" />
          <note key="72" pos="780" pan="0" len="12" vol="19" />
          <note key="72" pos="792" pan="0" len="12" vol="52" />
          <note key="72" pos="804" pan="0" len="12" vol="12" />
          <note key="72" pos="816" pan="0" len="12" vol="6" />
          <note key="72" pos="828" pan="0" len="12" vol="17" />
          <note key="72" pos="840" pan="0" len="12" vol="48" />
          <note key="72" pos="852" pan="0" len="12" vol="12" />
          <note key="72" pos="864" pan="0" len="12" vol="6" />
          <note key="72" pos="876" pan="0" len="12" vol="16" />
          <note key="72" pos="888" pan="0" len="12" vol="45" />
          <note key="72" pos="900" pan="0" len="12" vol="11" />
          <note key="72" pos="912" pan="0" len="12" vol="5" />
          <note key="72" pos="924" pan="0" len="12" vol="16" />
          <note key="72" pos="936" pan="0" len="12" vol="42" />
          <note key="72" pos="948" pan="0" len="12" vol="11" />
          <note key="72" pos="960" pan="0" len="12" vol="5" />
          <note key="72" pos="972" pan="0" len="12" vol="14" />
          <note key="72" pos="984" pan="0" len="12" vol="39" />
          <note key="72" pos="996" pan="0" len="12" vol="9" />
          <note key="72" pos="1008" pan="0" len="12" vol="5" />
          <note key="72" pos="1020" pan="0" len="12" vol="12" />
          <note key="72" pos="1032" pan="0" len="12" vol="36" />
          <note key="72" pos="1044" pan="0" len="12" vol="9" />
          <note key="72" pos="1056" pan="0" len="12" vol="5" />
          <note key="72" pos="1068" pan="0" len="12" vol="11" />
          <note key="72" pos="1080" pan="0" len="12" vol="31" />
          <note key="72" pos="1092" pan="0" len="12" vol="8" />
          <note key="72" pos="1104" pan="0" len="12" vol="3" />
          <note key="72" pos="1116" pan="0" len="12" vol="11" />
          <note key="72" pos="1128" pan="0" len="12" vol="28" />
          <note key="72" pos="1140" pan="0" len="12" vol="8" />
          <note key="72" pos="1152" pan="0" len="12" vol="3" />
          <note key="72" pos="1164" pan="0" len="12" vol="9" />
          <note key="72" pos="1176" pan="0" len="12" vol="25" />
          <note key="72" pos="1188" pan="0" len="12" vol="6" />
          <note key="72" pos="1200" pan="0" len="12" vol="3" />
          <note key="72" pos="1212" pan="0" len="12" vol="8" />
          <note key="72" pos="1224" pan="0" len="12" vol="22" />
          <note key="72" pos="1236" pan="0" len="12" vol="5" />
          <note key="72" pos="1248" pan="0" len="12" vol="3" />
          <note key="72" pos="1260" pan="0" len="12" vol="6" />
          <note key="72" pos="1272" pan="0" len="12" vol="19" />
          <note key="72" pos="1284" pan="0" len="12" vol="5" />
          <note key="72" pos="1296" pan="0" len="12" vol="2" />
          <note key="72" pos="1308" pan="0" len="12" vol="6" />
          <note key="72" pos="1320" pan="0" len="12" vol="16" />
          <note key="72" pos="1332" pan="0" len="12" vol="3" />
          <note key="72" pos="1344" pan="0" len="12" vol="2" />
          <note key="72" pos="1356" pan="0" len="12" vol="5" />
          <note key="72" pos="1368" pan="0" len="12" vol="12" />
          <note key="72" pos="1380" pan="0" len="12" vol="3" />
          <note key="72" pos="1392" pan="0" len="12" vol="2" />
          <note key="72" pos="1404" pan="0" len="12" vol="3" />
          <note key="72" pos="1416" pan="0" len="12" vol="8" />
          <note key="72" pos="1428" pan="0" len="12" vol="2" />
          <note key="72" pos="1440" pan="0" len="12" vol="2" />
          <note key="72" pos="1452" pan="0" len="12" vol="2" />
          <note key="72" pos="1464" pan="0" len="12" vol="5" />
          <note key="72" pos="1476" pan="0" len="12" vol="2" />
          <note key="72" pos="1488" pan="0" len="12" vol="0" />
          <note key="72" pos="1500" pan="0" len="12" vol="2" />
          <note key="72" pos="1512" pan="0" len="12" vol="2" />
          <note key="72" pos="1524" pan="0" len="12" vol="0" />
        </pattern>
        <pattern pos="188928" muted="0" steps="16" name="" type="1">
          <note key="72" pos="1500" pan="0" len="12" vol="23" />
          <note key="72" pos="1512" pan="0" len="12" vol="67" />
          <note key="72" pos="1524" pan="0" len="12" vol="17" />
        </pattern>
        <pattern pos="190464" muted="0" steps="16" name="" type="1">
          <note key="72" pos="0" pan="0" len="12" vol="8" />
          <note key="72" pos="12" pan="0" len="12" vol="23" />
          <note key="72" pos="24" pan="0" len="12" vol="67" />
          <note key="72" pos="36" pan="0" len="12" vol="17" />
          <note key="72" pos="48" pan="0" len="12" vol="8" />
          <note key="72" pos="60" pan="0" len="12" vol="23" />
          <note key="72" pos="72" pan="0" len="12" vol="67" />
          <note key="72" pos="84" pan="0" len="12" vol="17" />
          <note key="72" pos="96" pan="0" len="12" vol="8" />
          <note key="72" pos="108" pan="0" len="12" vol="23" />
          <note key="72" pos="120" pan="0" len="12" vol="67" />
          <note key="72" pos="132" pan="0" len="12" vol="17" />
          <note key="72" pos="144" pan="0" len="12" vol="8" />
          <note key="72" pos="156" pan="0" len="12" vol="23" />
          <note key="72" pos="168" pan="0" len="12" vol="67" />
          <note key="72" pos="180" pan="0" len="12" vol="17" />
          <note key="72" pos="192" pan="0" len="12" vol="8" />
          <note key="72" pos="204" pan="0" len="12" vol="23" />
          <note key="72" pos="216" pan="0" len="12" vol="67" />
          <note key="72" pos="228" pan="0" len="12" vol="17" />
          <note key="72" pos="240" pan="0" len="12" vol="8" />
          <note key="72" pos="252" pan="0" len="12" vol="23" />
          <note key="72" pos="264" pan="0" len="12" vol="67" />
          <note key="72" pos="276" pan="0" len="12" vol="17" />
          <note key="72" pos="288" pan="0" len="12" vol="8" />
          <note key="72" pos="300" pan="0" len="12" vol="23" />
          <note key="72" pos="312" pan="0" len="12" vol="67" />
          <note key="72" pos="324" pan="0" len="12" vol="17" />
          <note key="72" pos="336" pan="0" len="12" vol="8" />
          <note key="72" pos="348" pan="0" len="12" vol="23" />
          <note key="72" pos="360" pan="0" len="12" vol="67" />
          <note key="72" pos="372" pan="0" len="12" vol="17" />
          <note key="72" pos="384" pan="0" len="12" vol="8" />
          <note key="72" pos="396" pan="0" len="12" vol="23" />
          <note key="72" pos="408" pan="0" len="12" vol="67" />
          <note key="72" pos="420" pan="0" len="12" vol="17" />
          <note key="72" pos="432" pan="0" len="12" vol="8" />
          <note key="72" pos="444" pan="0" len="12" vol="23" />
          <note key="72" pos="456" pan="0" len="12" vol="67" />
          <note key="72" pos="468" pan="0" len="12" vol="17" />
          <note key="72" pos="480" pan="0" len="12" vol="8" />
          <note key="72" pos="492" pan="0" len="12" vol="23" />
          <note key="72" pos="504" pan="0" len="12" vol="67" />
          <note key="72" pos="516" pan="0" len="12" vol="17" />
          <note key="72" pos="528" pan="0" len="12" vol="8" />
          <note key="72" pos="540" pan="0" len="12" vol="23" />
          <note key="72" pos="552" pan="0" len="12" vol="67" />
          <note key="72" pos="564" pan="0" len="12" vol="17" />
          <note key="72" pos="576" pan="0" len="12" vol="8" />
          <note key="72" pos="588" pan="0" len="12" vol="23" />
          <note key="72" pos="600" pan="0" len="12" vol="67" />
          <note key="72" pos="612" pan="0" len="12" vol="17" />
          <note key="72" pos="624" pan="0" len="12" vol="8" />
          <note key="72" pos="636" pan="0" len="12" vol="23" />
          <note key="72" pos="648" pan="0" len="12" vol="67" />
          <note key="72" pos="660" pan="0" len="12" vol="17" />
          <note key="72" pos="672" pan="0" len="12" vol="8" />
          <note key="72" pos="684" pan="0" len="12" vol="23" />
          <note key="72" pos="696" pan="0" len="12" vol="67" />
          <note key="72" pos="708" pan="0" len="12" vol="17" />
          <note key="72" pos="720" pan="0" len="12" vol="8" />
          <note key="72" pos="732" pan="0" len="12" vol="23" />
          <note key="72" pos="744" pan="0" len="12" vol="67" />
          <note key="72" pos="756" pan="0" len="12" vol="17" />
          <note key="72" pos="768" pan="0" len="12" vol="8" />
          <note key="72" pos="780" pan="0" len="12" vol="23" />
          <note key="72" pos="792" pan="0" len="12" vol="67" />
          <note key="72" pos="804" pan="0" len="12" vol="17" />
          <note key="72" pos="816" pan="0" len="12" vol="8" />
          <note key="72" pos="828" pan="0" len="12" vol="23" />
          <note key="72" pos="840" pan="0" len="12" vol="67" />
          <note key="72" pos="852" pan="0" len="12" vol="17" />
          <note key="72" pos="864" pan="0" len="12" vol="8" />
          <note key="72" pos="876" pan="0" len="12" vol="23" />
          <note key="72" pos="888" pan="0" len="12" vol="67" />
          <note key="72" pos="900" pan="0" len="12" vol="17" />
          <note key="72" pos="912" pan="0" len="12" vol="8" />
          <note key="72" pos="924" pan="0" len="12" vol="23" />
          <note key="72" pos="936" pan="0" len="12" vol="67" />
          <note key="72" pos="948" pan="0" len="12" vol="17" />
          <note key="72" pos="960" pan="0" len="12" vol="8" />
          <note key="72" pos="972" pan="0" len="12" vol="23" />
          <note key="72" pos="984" pan="0" len="12" vol="67" />
          <note key="72" pos="996" pan="0" len="12" vol="17" />
          <note key="72" pos="1008" pan="0" len="12" vol="8" />
          <note key="72" pos="1020" pan="0" len="12" vol="23" />
          <note key="72" pos="1032" pan="0" len="12" vol="67" />
          <note key="72" pos="1044" pan="0" len="12" vol="17" />
          <note key="72" pos="1056" pan="0" len="12" vol="8" />
          <note key="72" pos="1068" pan="0" len="12" vol="23" />
          <note key="72" pos="1080" pan="0" len="12" vol="67" />
          <note key="72" pos="1092" pan="0" len="12" vol="17" />
          <note key="72" pos="1104" pan="0" len="12" vol="8" />
          <note key="72" pos="1116" pan="0" len="12" vol="23" />
          <note key="72" pos="1128" pan="0" len="12" vol="67" />
          <note key="72" pos="1140" pan="0" len="12" vol="17" />
          <note key="72" pos="1152" pan="0" len="12" vol="8" />
          <note key="72" pos="1164" pan="0" len="12" vol="23" />
          <note key="72" pos="1176" pan="0" len="12" vol="67" />
          <note key="72" pos="1188" pan="0" len="12" vol="17" />
          <note key="72" pos="1200" pan="0" len="12" vol="8" />
          <note key="72" pos="1212" pan="0" len="12" vol="23" />
          <note key="72" pos="1224" pan="0" len="12" vol="67" />
          <note key="72" pos="1236" pan="0" len="12" vol="17" />
          <note key="72" pos="1248" pan="0" len="12" vol="8" />
          <note key="72" pos="1260" pan="0" len="12" vol="23" />
          <note key="72" pos="1272" pan="0" len="12" vol="67" />
          <note key="72" pos="1284" pan="0" len="12" vol="17" />
          <note key="72" pos="1296" pan="0" len="12" vol="8" />
          <note key="72" pos="1308" pan="0" len="12" vol="23" />
          <note key="72" pos="1320" pan="0" len="12" vol="67" />
          <note key="72" pos="1332" pan="0" len="12" vol="17" />
          <note key="72" pos="1344" pan="0" len="12" vol="8" />
          <note key="72" pos="1356" pan="0" len="12" vol="23" />
          <note key="72" pos="1368" pan="0" len="12" vol="67" />
          <note key="72" pos="1380" pan="0" len="12" vol="17" />
          <note key="72" pos="1392" pan="0" len="12" vol="8" />
          <note key="72" pos="1404" pan="0" len="12" vol="23" />
          <note key="72" pos="1416" pan="0" len="12" vol="67" />
          <note key="72" pos="1428" pan="0" len="12" vol="17" />
          <note key="72" pos="1440" pan="0" len="12" vol="8" />
          <note key="72" pos="1452" pan="0" len="12" vol="23" />
          <note key="72" pos="1464" pan="0" len="12" vol="67" />
          <note key="72" pos="1476" pan="0" len="12" vol="17" />
          <note key="72" pos="1488" pan="0" len="12" vol="8" />
          <note key="72" pos="1500" pan="0" len="12" vol="23" />
          <note key="72" pos="1512" pan="0" len="12" vol="67" />
          <note key="72" pos="1524" pan="0" len="12" vol="17" />
        </pattern>
        <pattern pos="192000" muted="0" steps="16" name="" type="1">
          <note key="72" pos="0" pan="0" len="12" vol="8" />
          <note key="72" pos="12" pan="0" len="12" vol="23" />
          <note key="72" pos="24" pan="0" len="12" vol="67" />
          <note key="72" pos="36" pan="0" len="12" vol="17" />
          <note key="72" pos="48" pan="0" len="12" vol="8" />
          <note key="72" pos="60" pan="0" len="12" vol="23" />
          <note key="72" pos="72" pan="0" len="12" vol="67" />
          <note key="72" pos="84" pan="0" len="12" vol="17" />
          <note key="72" pos="96" pan="0" len="12" vol="8" />
          <note key="72" pos="108" pan="0" len="12" vol="23" />
          <note key="72" pos="120" pan="0" len="12" vol="67" />
          <note key="72" pos="132" pan="0" len="12" vol="17" />
          <note key="72" pos="144" pan="0" len="12" vol="8" />
          <note key="72" pos="156" pan="0" len="12" vol="23" />
          <note key="72" pos="168" pan="0" len="12" vol="67" />
          <note key="72" pos="180" pan="0" len="12" vol="17" />
          <note key="72" pos="192" pan="0" len="12" vol="8" />
          <note key="72" pos="204" pan="0" len="12" vol="23" />
          <note key="72" pos="216" pan="0" len="12" vol="67" />
          <note key="72" pos="228" pan="0" len="12" vol="17" />
          <note key="72" pos="240" pan="0" len="12" vol="8" />
          <note key="72" pos="252" pan="0" len="12" vol="23" />
          <note key="72" pos="264" pan="0" len="12" vol="67" />
          <note key="72" pos="276" pan="0" len="12" vol="17" />
          <note key="72" pos="288" pan="0" len="12" vol="8" />
          <note key="72" pos="300" pan="0" len="12" vol="23" />
          <note key="72" pos="312" pan="0" len="12" vol="67" />
          <note key="72" pos="324" pan="0" len="12" vol="17" />
          <note key="72" pos="336" pan="0" len="12" vol="8" />
          <note key="72" pos="348" pan="0" len="12" vol="23" />
          <note key="72" pos="360" pan="0" len="12" vol="67" />
          <note key="72" pos="372" pan="0" len="12" vol="17" />
          <note key="72" pos="384" pan="0" len="12" vol="8" />
          <note key="72" pos="396" pan="0" len="12" vol="23" />
          <note key="72" pos="408" pan="0" len="12" vol="67" />
          <note key="72" pos="420" pan="0" len="12" vol="17" />
          <note key="72" pos="432" pan="0" len="12" vol="8" />
          <note key="72" pos="444" pan="0" len="12" vol="23" />
          <note key="72" pos="456" pan="0" len="12" vol="67" />
          <note key="72" pos="468" pan="0" len="12" vol="17" />
          <note key="72" pos="480" pan="0" len="12" vol="8" />
          <note key="72" pos="492" pan="0" len="12" vol="23" />
          <note key="72" pos="504" pan="0" len="12" vol="67" />
          <note key="72" pos="516" pan="0" len="12" vol="17" />
          <note key="72" pos="528" pan="0" len="12" vol="8" />
          <note key="72" pos="540" pan="0" len="12" vol="23" />
          <note key="72" pos="552" pan="0" len="12" vol="67" />
          <note key="72" pos="564" pan="0" len="12" vol="17" />
          <note key="72" pos="576" pan="0" len="12" vol="8" />
          <note key="72" pos="588" pan="0" len="12" vol="23" />
          <note key="72" pos="600" pan="0" len="12" vol="67" />
          <note key="72" pos="612" pan="0" len="12" vol="17" />
          <note key="72" pos="624" pan="0" len="12" vol="8" />
          <note key="72" pos="636" pan="0" len="12" vol="23" />
          <note key="72" pos="648" pan="0" len="12" vol="67" />
          <note key="72" pos="660" pan="0" len="12" vol="17" />
          <note key="72" pos="672" pan="0" len="12" vol="8" />
          <note key="72" pos="684" pan="0" len="12" vol="23" />
          <note key="72" pos="696" pan="0" len="12" vol="67" />
          <note key="72" pos="708" pan="0" len="12" vol="17" />
          <note key="72" pos="720" pan="0" len="12" vol="8" />
          <note key="72" pos="732" pan="0" len="12" vol="23" />
          <note key="72" pos="744" pan="0" len="12" vol="67" />
          <note key="72" pos="756" pan="0" len="12" vol="17" />
          <note key="72" pos="768" pan="0" len="12" vol="8" />
          <note key="72" pos="780" pan="0" len="12" vol="23" />
          <note key="72" pos="792" pan="0" len="12" vol="67" />
          <note key="72" pos="804" pan="0" len="12" vol="17" />
          <note key="72" pos="816" pan="0" len="12" vol="8" />
          <note key="72" pos="828" pan="0" len="12" vol="23" />
          <note key="72" pos="840" pan="0" len="12" vol="67" />
          <note key="72" pos="852" pan="0" len="12" vol="17" />
          <note key="72" pos="864" pan="0" len="12" vol="8" />
          <note key="72" pos="876" pan="0" len="12" vol="23" />
          <note key="72" pos="888" pan="0" len="12" vol="67" />
          <note key="72" pos="900" pan="0" len="12" vol="17" />
          <note key="72" pos="912" pan="0" len="12" vol="8" />
          <note key="72" pos="924" pan="0" len="12" vol="23" />
          <note key="72" pos="936" pan="0" len="12" vol="67" />
          <note key="72" pos="948" pan="0" len="12" vol="17" />
          <note key="72" pos="960" pan="0" len="12" vol="8" />
          <note key="72" pos="972" pan="0" len="12" vol="23" />
          <note key="72" pos="984" pan="0" len="12" vol="67" />
          <note key="72" pos="996" pan="0" len="12" vol="17" />
          <note key="72" pos="1008" pan="0" len="12" vol="8" />
          <note key="72" pos="1020" pan="0" len="12" vol="23" />
          <note key="72" pos="1032" pan="0" len="12" vol="67" />
          <note key="72" pos="1044" pan="0" len="12" vol="17" />
          <note key="72" pos="1056" pan="0" len="12" vol="8" />
          <note key="72" pos="1068" pan="0" len="12" vol="23" />
          <note key="72" pos="1080" pan="0" len="12" vol="67" />
          <note key="72" pos="1092" pan="0" len="12" vol="17" />
          <note key="72" pos="1104" pan="0" len="12" vol="8" />
          <note key="72" pos="1116" pan="0" len="12" vol="23" />
          <note key="72" pos="1128" pan="0" len="12" vol="67" />
          <note key="72" pos="1140" pan="0" len="12" vol="17" />
          <note key="72" pos="1152" pan="0" len="12" vol="8" />
          <note key="72" pos="1164" pan="0" len="12" vol="23" />
          <note key="72" pos="1176" pan="0" len="12" vol="67" />
          <note key="72" pos="1188" pan="0" len="12" vol="17" />
          <note key="72" pos="1200" pan="0" len="12" vol="8" />
          <note key="72" pos="1212" pan="0" len="12" vol="23" />
          <note key="72" pos="1224" pan="0" len="12" vol="67" />
          <note key="72" pos="1236" pan="0" len="12" vol="17" />
          <note key="72" pos="1248" pan="0" len="12" vol="8" />
          <note key="72" pos="1260" pan="0" len="12" vol="23" />
          <note key="72" pos="1272" pan="0" len="12" vol="67" />
          <note key="72" pos="1284" pan="0" len="12" vol="17" />
          <note key="72" pos="1296" pan="0" len="12" vol="8" />
          <note key="72" pos="1308" pan="0" len="12" vol="23" />
          <note key="72" pos="1320" pan="0" len="12" vol="67" />
          <note key="72" pos="1332" pan="0" len="12" vol="17" />
          <note key="72" pos="1344" pan="0" len="12" vol="8" />
          <note key="72" pos="1356" pan="0" len="12" vol="23" />
          <note key="72" pos="1368" pan="0" len="12" vol="67" />
          <note key="72" pos="1380" pan="0" len="12" vol="17" />
          <note key="72" pos="1392" pan="0" len="12" vol="8" />
          <note key="72" pos="1404" pan="0" len="12" vol="23" />
          <note key="72" pos="1416" pan="0" len="12" vol="67" />
          <note key="72" pos="1428" pan="0" len="12" vol="17" />
          <note key="72" pos="1440" pan="0" len="12" vol="8" />
          <note key="72" pos="1452" pan="0" len="12" vol="23" />
          <note key="72" pos="1464" pan="0" len="12" vol="67" />
          <note key="72" pos="1476" pan="0" len="12" vol="17" />
          <note key="72" pos="1488" pan="0" len="12" vol="8" />
          <note key="72" pos="1500" pan="0" len="12" vol="23" />
          <note key="72" pos="1512" pan="0" len="12" vol="67" />
          <note key="72" pos="1524" pan="0" len="12" vol="17" />
        </pattern>
        <pattern pos="193536" muted="0" steps="16" name="" type="1">
          <note key="72" pos="0" pan="0" len="12" vol="8" />
          <note key="72" pos="12" pan="0" len="12" vol="23" />
          <note key="72" pos="24" pan="0" len="12" vol="67" />
          <note key="72" pos="36" pan="0" len="12" vol="17" />
          <note key="72" pos="48" pan="0" len="12" vol="8" />
          <note key="72" pos="60" pan="0" len="12" vol="23" />
          <note key="72" pos="72" pan="0" len="12" vol="67" />
          <note key="72" pos="84" pan="0" len="12" vol="17" />
          <note key="72" pos="96" pan="0" len="12" vol="8" />
          <note key="72" pos="108" pan="0" len="12" vol="23" />
          <note key="72" pos="120" pan="0" len="12" vol="67" />
          <note key="72" pos="132" pan="0" len="12" vol="17" />
          <note key="72" pos="144" pan="0" len="12" vol="8" />
          <note key="72" pos="156" pan="0" len="12" vol="23" />
          <note key="72" pos="168" pan="0" len="12" vol="67" />
          <note key="72" pos="180" pan="0" len="12" vol="17" />
          <note key="72" pos="192" pan="0" len="12" vol="8" />
          <note key="72" pos="204" pan="0" len="12" vol="23" />
          <note key="72" pos="216" pan="0" len="12" vol="67" />
          <note key="72" pos="228" pan="0" len="12" vol="17" />
          <note key="72" pos="240" pan="0" len="12" vol="8" />
          <note key="72" pos="252" pan="0" len="12" vol="23" />
          <note key="72" pos="264" pan="0" len="12" vol="67" />
          <note key="72" pos="276" pan="0" len="12" vol="17" />
          <note key="72" pos="288" pan="0" len="12" vol="8" />
          <note key="72" pos="300" pan="0" len="12" vol="23" />
          <note key="72" pos="312" pan="0" len="12" vol="67" />
          <note key="72" pos="324" pan="0" len="12" vol="17" />
          <note key="72" pos="336" pan="0" len="12" vol="8" />
          <note key="72" pos="348" pan="0" len="12" vol="23" />
          <note key="72" pos="360" pan="0" len="12" vol="67" />
          <note key="72" pos="372" pan="0" len="12" vol="17" />
          <note key="72" pos="384" pan="0" len="12" vol="8" />
          <note key="72" pos="396" pan="0" len="12" vol="23" />
          <note key="72" pos="408" pan="0" len="12" vol="67" />
          <note key="72" pos="420" pan="0" len="12" vol="17" />
          <note key="72" pos="432" pan="0" len="12" vol="8" />
          <note key="72" pos="444" pan="0" len="12" vol="23" />
          <note key="72" pos="456" pan="0" len="12" vol="67" />
          <note key="72" pos="468" pan="0" len="12" vol="17" />
          <note key="72" pos="480" pan="0" len="12" vol="8" />
          <note key="72" pos="492" pan="0" len="12" vol="23" />
          <note key="72" pos="504" pan="0" len="12" vol="67" />
          <note key="72" pos="516" pan="0" len="12" vol="17" />
          <note key="72" pos="528" pan="0" len="12" vol="8" />
          <note key="72" pos="540" pan="0" len="12" vol="23" />
          <note key="72" pos="552" pan="0" len="12" vol="67" />
          <note key="72" pos="564" pan="0" len="12" vol="17" />
          <note key="72" pos="576" pan="0" len="12" vol="8" />
          <note key="72" pos="588" pan="0" len="12" vol="23" />
          <note key="72" pos="600" pan="0" len="12" vol="67" />
          <note key="72" pos="612" pan="0" len="12" vol="17" />
          <note key="72" pos="624" pan="0" len="12" vol="8" />
          <note key="72" pos="636" pan="0" len="12" vol="23" />
          <note key="72" pos="648" pan="0" len="12" vol="67" />
          <note key="72" pos="660" pan="0" len="12" vol="17" />
          <note key="72" pos="672" pan="0" len="12" vol="8" />
          <note key="72" pos="684" pan="0" len="12" vol="23" />
          <note key="72" pos="696" pan="0" len="12" vol="67" />
          <note key="72" pos="708" pan="0" len="12" vol="17" />
          <note key="72" pos="720" pan="0" len="12" vol="8" />
          <note key="72" pos="732" pan="0" len="12" vol="23" />
          <note key="72" pos="744" pan="0" len="12" vol="67" />
          <note key="72" pos="756" pan="0" len="12" vol="17" />
          <note key="72" pos="768" pan="0" len="12" vol="8" />
          <note key="72" pos="780" pan="0" len="12" vol="23" />
          <note key="72" pos="792" pan="0" len="12" vol="67" />
          <note key="72" pos="804" pan="0" len="12" vol="17" />
          <note key="72" pos="816" pan="0" len="12" vol="8" />
          <note key="72" pos="828" pan="0" len="12" vol="23" />
          <note key="72" pos="840" pan="0" len="12" vol="67" />
          <note key="72" pos="852" pan="0" len="12" vol="17" />
          <note key="72" pos="864" pan="0" len="12" vol="8" />
          <note key="72" pos="876" pan="0" len="12" vol="23" />
          <note key="72" pos="888" pan="0" len="12" vol="67" />
          <note key="72" pos="900" pan="0" len="12" vol="17" />
          <note key="72" pos="912" pan="0" len="12" vol="8" />
          <note key="72" pos="924" pan="0" len="12" vol="23" />
          <note key="72" pos="936" pan="0" len="12" vol="67" />
          <note key="72" pos="948" pan="0" len="12" vol="17" />
          <note key="72" pos="960" pan="0" len="12" vol="8" />
          <note key="72" pos="972" pan="0" len="12" vol="23" />
          <note key="72" pos="984" pan="0" len="12" vol="67" />
          <note key="72" pos="996" pan="0" len="12" vol="17" />
          <note key="72" pos="1008" pan="0" len="12" vol="8" />
          <note key="72" pos="1020" pan="0" len="12" vol="23" />
          <note key="72" pos="1032" pan="0" len="12" vol="67" />
          <note key="72" pos="1044" pan="0" len="12" vol="17" />
          <note key="72" pos="1056" pan="0" len="12" vol="8" />
          <note key="72" pos="1068" pan="0" len="12" vol="23" />
          <note key="72" pos="1080" pan="0" len="12" vol="67" />
          <note key="72" pos="1092" pan="0" len="12" vol="17" />
          <note key="72" pos="1104" pan="0" len="12" vol="8" />
          <note key="72" pos="1116" pan="0" len="12" vol="23" />
          <note key="72" pos="1128" pan="0" len="12" vol="67" />
          <note key="72" pos="1140" pan="0" len="12" vol="17" />
          <note key="72" pos="1152" pan="0" len="12" vol="8" />
          <note key="72" pos="1164" pan="0" len="12" vol="23" />
          <note key="72" pos="1176" pan="0" len="12" vol="67" />
          <note key="72" pos="1188" pan="0" len="12" vol="17" />
          <note key="72" pos="1200" pan="0" len="12" vol="8" />
          <note key="72" pos="1212" pan="0" len="12" vol="23" />
          <note key="72" pos="1224" pan="0" len="12" vol="67" />
          <note key="72" pos="1236" pan="0" len="12" vol="17" />
          <note key="72" pos="1248" pan="0" len="12" vol="8" />
          <note key="72" pos="1260" pan="0" len="12" vol="23" />
          <note key="72" pos="1272" pan="0" len="12" vol="67" />
          <note key="72" pos="1284" pan="0" len="12" vol="17" />
          <note key="72" pos="1296" pan="0" len="12" vol="8" />
          <note key="72" pos="1308" pan="0" len="12" vol="23" />
          <note key="72" pos="1320" pan="0" len="12" vol="67" />
          <note key="72" pos="1332" pan="0" len="12" vol="17" />
          <note key="72" pos="1344" pan="0" len="12" vol="8" />
          <note key="72" pos="1356" pan="0" len="12" vol="23" />
          <note key="72" pos="1368" pan="0" len="12" vol="67" />
          <note key="72" pos="1380" pan="0" len="12" vol="17" />
          <note key="72" pos="1392" pan="0" len="12" vol="8" />
          <note key="72" pos="1404" pan="0" len="12" vol="23" />
          <note key="72" pos="1416" pan="0" len="12" vol="67" />
          <note key="72" pos="1428" pan="0" len="12" vol="17" />
          <note key="72" pos="1440" pan="0" len="12" vol="8" />
          <note key="72" pos="1452" pan="0" len="12" vol="23" />
          <note key="72" pos="1464" pan="0" len="12" vol="67" />
          <note key="72" pos="1476" pan="0" len="12" vol="17" />
          <note key="72" pos="1488" pan="0" len="12" vol="8" />
          <note key="72" pos="1500" pan="0" len="12" vol="23" />
          <note key="72" pos="1512" pan="0" len="12" vol="67" />
          <note key="72" pos="1524" pan="0" len="12" vol="17" />
        </pattern>
        <pattern pos="195072" muted="0" steps="16" name="" type="1">
          <note key="72" pos="0" pan="0" len="12" vol="8" />
          <note key="72" pos="12" pan="0" len="12" vol="23" />
          <note key="72" pos="24" pan="0" len="12" vol="67" />
          <note key="72" pos="36" pan="0" len="12" vol="17" />
          <note key="72" pos="48" pan="0" len="12" vol="8" />
          <note key="72" pos="60" pan="0" len="12" vol="23" />
          <note key="72" pos="72" pan="0" len="12" vol="67" />
          <note key="72" pos="84" pan="0" len="12" vol="17" />
          <note key="72" pos="96" pan="0" len="12" vol="8" />
          <note key="72" pos="108" pan="0" len="12" vol="23" />
          <note key="72" pos="120" pan="0" len="12" vol="67" />
          <note key="72" pos="132" pan="0" len="12" vol="17" />
          <note key="72" pos="144" pan="0" len="12" vol="8" />
          <note key="72" pos="156" pan="0" len="12" vol="23" />
          <note key="72" pos="168" pan="0" len="12" vol="67" />
          <note key="72" pos="180" pan="0" len="12" vol="17" />
          <note key="72" pos="192" pan="0" len="12" vol="8" />
          <note key="72" pos="204" pan="0" len="12" vol="23" />
          <note key="72" pos="216" pan="0" len="12" vol="67" />
          <note key="72" pos="228" pan="0" len="12" vol="17" />
          <note key="72" pos="240" pan="0" len="12" vol="8" />
          <note key="72" pos="252" pan="0" len="12" vol="23" />
          <note key="72" pos="264" pan="0" len="12" vol="67" />
          <note key="72" pos="276" pan="0" len="12" vol="17" />
          <note key="72" pos="288" pan="0" len="12" vol="8" />
          <note key="72" pos="300" pan="0" len="12" vol="23" />
          <note key="72" pos="312" pan="0" len="12" vol="67" />
          <note key="72" pos="324" pan="0" len="12" vol="17" />
          <note key="72" pos="336" pan="0" len="12" vol="8" />
          <note key="72" pos="348" pan="0" len="12" vol="23" />
          <note key="72" pos="360" pan="0" len="12" vol="67" />
          <note key="72" pos="372" pan="0" len="12" vol="17" />
          <note key="72" pos="384" pan="0" len="12" vol="8" />
          <note key="72" pos="396" pan="0" len="12" vol="23" />
          <note key="72" pos="408" pan="0" len="12" vol="67" />
          <note key="72" pos="420" pan="0" len="12" vol="17" />
          <note key="72" pos="432" pan="0" len="12" vol="8" />
          <note key="72" pos="444" pan="0" len="12" vol="23" />
          <note key="72" pos="456" pan="0" len="12" vol="67" />
          <note key="72" pos="468" pan="0" len="12" vol="17" />
          <note key="72" pos="480" pan="0" len="12" vol="8" />
          <note key="72" pos="492" pan="0" len="12" vol="23" />
          <note key="72" pos="504" pan="0" len="12" vol="67" />
          <note key="72" pos="516" pan="0" len="12" vol="17" />
          <note key="72" pos="528" pan="0" len="12" vol="8" />
          <note key="72" pos="540" pan="0" len="12" vol="23" />
          <note key="72" pos="552" pan="0" len="12" vol="67" />
          <note key="72" pos="564" pan="0" len="12" vol="17" />
          <note key="72" pos="576" pan="0" len="12" vol="8" />
          <note key="72" pos="588" pan="0" len="12" vol="23" />
          <note key="72" pos="600" pan="0" len="12" vol="67" />
          <note key="72" pos="612" pan="0" len="12" vol="17" />
          <note key="72" pos="624" pan="0" len="12" vol="8" />
          <note key="72" pos="636" pan="0" len="12" vol="23" />
          <note key="72" pos="648" pan="0" len="12" vol="67" />
          <note key="72" pos="660" pan="0" len="12" vol="17" />
          <note key="72" pos="672" pan="0" len="12" vol="8" />
          <note key="72" pos="684" pan="0" len="12" vol="23" />
          <note key="72" pos="696" pan="0" len="12" vol="67" />
          <note key="72" pos="708" pan="0" len="12" vol="17" />
          <note key="72" pos="720" pan="0" len="12" vol="8" />
          <note key="72" pos="732" pan="0" len="12" vol="23" />
          <note key="72" pos="744" pan="0" len="12" vol="67" />
          <note key="72" pos="756" pan="0" len="12" vol="17" />
          <note key="72" pos="768" pan="0" len="12" vol="8" />
          <note key="72" pos="780" pan="0" len="12" vol="23" />
          <note key="72" pos="792" pan="0" len="12" vol="67" />
          <note key="72" pos="804" pan="0" len="12" vol="17" />
          <note key="72" pos="816" pan="0" len="12" vol="8" />
          <note key="72" pos="828" pan="0" len="12" vol="23" />
          <note key="72" pos="840" pan="0" len="12" vol="67" />
          <note key="72" pos="852" pan="0" len="12" vol="17" />
          <note key="72" pos="864" pan="0" len="12" vol="8" />
          <note key="72" pos="876" pan="0" len="12" vol="23" />
          <note key="72" pos="888" pan="0" len="12" vol="67" />
          <note key="72" pos="900" pan="0" len="12" vol="17" />
          <note key="72" pos="912" pan="0" len="12" vol="8" />
          <note key="72" pos="924" pan="0" len="12" vol="23" />
          <note key="72" pos="936" pan="0" len="12" vol="67" />
          <note key="72" pos="948" pan="0" len="12" vol="17" />
          <note key="72" pos="960" pan="0" len="12" vol="8" />
          <note key="72" pos="972" pan="0" len="12" vol="23" />
          <note key="72" pos="984" pan="0" len="12" vol="67" />
          <note key="72" pos="996" pan="0" len="12" vol="17" />
          <note key="72" pos="1008" pan="0" len="12" vol="8" />
          <note key="72" pos="1020" pan="0" len="12" vol="23" />
          <note key="72" pos="1032" pan="0" len="12" vol="67" />
          <note key="72" pos="1044" pan="0" len="12" vol="17" />
          <note key="72" pos="1056" pan="0" len="12" vol="8" />
          <note key="72" pos="1068" pan="0" len="12" vol="23" />
          <note key="72" pos="1080" pan="0" len="12" vol="67" />
          <note key="72" pos="1092" pan="0" len="12" vol="17" />
          <note key="72" pos="1104" pan="0" len="12" vol="8" />
          <note key="72" pos="1116" pan="0" len="12" vol="23" />
          <note key="72" pos="1128" pan="0" len="12" vol="67" />
          <note key="72" pos="1140" pan="0" len="12" vol="17" />
          <note key="72" pos="1152" pan="0" len="12" vol="8" />
          <note key="72" pos="1164" pan="0" len="12" vol="23" />
          <note key="72" pos="1176" pan="0" len="12" vol="67" />
          <note key="72" pos="1188" pan="0" len="12" vol="17" />
          <note key="72" pos="1200" pan="0" len="12" vol="8" />
          <note key="72" pos="1212" pan="0" len="12" vol="23" />
          <note key="72" pos="1224" pan="0" len="12" vol="67" />
          <note key="72" pos="1236" pan="0" len="12" vol="17" />
          <note key="72" pos="1248" pan="0" len="12" vol="8" />
          <note key="72" pos="1260" pan="0" len="12" vol="23" />
          <note key="72" pos="1272" pan="0" len="12" vol="67" />
          <note key="72" pos="1284" pan="0" len="12" vol="17" />
          <note key="72" pos="1296" pan="0" len="12" vol="8" />
          <note key="72" pos="1308" pan="0" len="12" vol="23" />
          <note key="72" pos="1320" pan="0" len="12" vol="67" />
          <note key="72" pos="1332" pan="0" len="12" vol="17" />
          <note key="72" pos="1344" pan="0" len="12" vol="8" />
          <note key="72" pos="1356" pan="0" len="12" vol="23" />
          <note key="72" pos="1368" pan="0" len="12" vol="67" />
          <note key="72" pos="1380" pan="0" len="12" vol="17" />
          <note key="72" pos="1392" pan="0" len="12" vol="8" />
          <note key="72" pos="1404" pan="0" len="12" vol="23" />
          <note key="72" pos="1416" pan="0" len="12" vol="67" />
          <note key="72" pos="1428" pan="0" len="12" vol="17" />
          <note key="72" pos="1440" pan="0" len="12" vol="8" />
          <note key="72" pos="1452" pan="0" len="12" vol="23" />
          <note key="72" pos="1464" pan="0" len="12" vol="67" />
          <note key="72" pos="1476" pan="0" len="12" vol="17" />
          <note key="72" pos="1488" pan="0" len="12" vol="8" />
          <note key="72" pos="1500" pan="0" len="12" vol="23" />
          <note key="72" pos="1512" pan="0" len="12" vol="67" />
          <note key="72" pos="1524" pan="0" len="12" vol="17" />
        </pattern>
      </track>
      <track solo="0" name="17 (Ch6)" type="0" muted="0">
        <instrumenttrack usemasterpitch="1" pitch="0.0" basenote="57" pan="0" pitchrange="12" vol="30">
          <eldata />
          <instrument name="tripleoscillator" />
        </instrumenttrack>
        <pattern pos="83712" muted="0" steps="16" name="" type="1">
          <note key="60" pos="48" pan="0" len="720" vol="100" />
        </pattern>
        <pattern pos="82944" muted="0" steps="16" name="" type="1">
          <note key="60" pos="48" pan="0" len="720" vol="100" />
        </pattern>
      </track>
      <track solo="0" name="17 (Ch13)" type="0" muted="0">
        <instrumenttrack usemasterpitch="1" pitch="0.0" basenote="57" pan="0" pitchrange="12" vol="30">
          <eldata />
          <instrument name="tripleoscillator" />
        </instrumenttrack>
        <pattern pos="83712" muted="0" steps="16" name="" type="1">
          <note key="60" pos="84" pan="0" len="684" vol="41" />
        </pattern>
        <pattern pos="82944" muted="0" steps="16" name="" type="1">
          <note key="60" pos="84" pan="0" len="684" vol="41" />
        </pattern>
      </track>
      <track solo="0" name="18 (Ch1)" type="0" muted="0">
        <instrumenttrack usemasterpitch="1" pitch="0.0" basenote="57" pan="0" pitchrange="12" vol="30">
          <eldata />
          <instrument name="tripleoscillator" />
        </instrumenttrack>
        <pattern pos="267648" muted="0" steps="16" name="" type="1">
          <note key="75" pos="0" pan="0" len="12" vol="100" />
          <note key="68" pos="240" pan="0" len="12" vol="100" />
          <note key="70" pos="288" pan="0" len="12" vol="100" />
          <note key="75" pos="336" pan="0" len="12" vol="100" />
          <note key="77" pos="384" pan="0" len="12" vol="100" />
          <note key="74" pos="456" pan="0" len="12" vol="100" />
          <note key="70" pos="480" pan="0" len="96" vol="100" />
          <note key="70" pos="720" pan="0" len="12" vol="100" />
          <note key="72" pos="744" pan="0" len="12" vol="100" />
          <note key="75" pos="768" pan="0" len="12" vol="100" />
          <note key="77" pos="1080" pan="0" len="12" vol="100" />
          <note key="82" pos="1152" pan="0" len="96" vol="100" />
        </pattern>
        <pattern pos="56832" muted="0" steps="16" name="" type="1">
          <note key="84" pos="384" pan="0" len="12" vol="50" />
          <note key="86" pos="396" pan="0" len="12" vol="50" />
          <note key="87" pos="408" pan="0" len="12" vol="50" />
          <note key="89" pos="420" pan="0" len="12" vol="50" />
          <note key="91" pos="432" pan="0" len="12" vol="50" />
          <note key="94" pos="444" pan="0" len="12" vol="50" />
          <note key="96" pos="456" pan="0" len="696" vol="50" />
          <note key="84" pos="1248" pan="0" len="12" vol="50" />
          <note key="86" pos="1260" pan="0" len="12" vol="50" />
          <note key="87" pos="1272" pan="0" len="12" vol="50" />
          <note key="89" pos="1284" pan="0" len="12" vol="50" />
          <note key="91" pos="1296" pan="0" len="216" vol="50" />
        </pattern>
        <pattern pos="67584" muted="0" steps="16" name="" type="1">
          <note key="84" pos="384" pan="0" len="12" vol="50" />
          <note key="86" pos="396" pan="0" len="12" vol="50" />
          <note key="87" pos="408" pan="0" len="12" vol="50" />
          <note key="89" pos="420" pan="0" len="12" vol="50" />
          <note key="91" pos="432" pan="0" len="12" vol="50" />
          <note key="94" pos="444" pan="0" len="12" vol="50" />
          <note key="96" pos="456" pan="0" len="696" vol="50" />
          <note key="84" pos="1248" pan="0" len="12" vol="50" />
          <note key="86" pos="1260" pan="0" len="12" vol="50" />
          <note key="87" pos="1272" pan="0" len="12" vol="50" />
          <note key="89" pos="1284" pan="0" len="12" vol="50" />
          <note key="91" pos="1296" pan="0" len="216" vol="50" />
        </pattern>
        <pattern pos="259200" muted="0" steps="16" name="" type="1">
          <note key="84" pos="0" pan="0" len="12" vol="69" />
          <note key="87" pos="12" pan="0" len="12" vol="69" />
          <note key="89" pos="24" pan="0" len="12" vol="69" />
          <note key="92" pos="36" pan="0" len="12" vol="69" />
          <note key="94" pos="48" pan="0" len="12" vol="69" />
          <note key="96" pos="60" pan="0" len="12" vol="69" />
          <note key="99" pos="72" pan="0" len="12" vol="69" />
          <note key="101" pos="84" pan="0" len="636" vol="69" />
        </pattern>
        <pattern pos="266112" muted="0" steps="16" name="" type="1">
          <note key="77" pos="0" pan="0" len="240" vol="100" />
          <note key="70" pos="240" pan="0" len="48" vol="100" />
          <note key="72" pos="288" pan="0" len="48" vol="100" />
          <note key="77" pos="336" pan="0" len="48" vol="100" />
          <note key="75" pos="384" pan="0" len="72" vol="100" />
          <note key="74" pos="456" pan="0" len="24" vol="100" />
          <note key="70" pos="480" pan="0" len="192" vol="100" />
          <note key="72" pos="672" pan="0" len="96" vol="100" />
          <note key="77" pos="768" pan="0" len="240" vol="100" />
          <note key="70" pos="1008" pan="0" len="48" vol="100" />
          <note key="72" pos="1056" pan="0" len="48" vol="100" />
          <note key="77" pos="1104" pan="0" len="48" vol="100" />
          <note key="79" pos="1152" pan="0" len="72" vol="100" />
          <note key="75" pos="1224" pan="0" len="24" vol="100" />
          <note key="72" pos="1248" pan="0" len="192" vol="100" />
          <note key="70" pos="1440" pan="0" len="96" vol="100" />
        </pattern>
      </track>
      <track solo="0" name="18 (Ch2)" type="0" muted="0">
        <instrumenttrack usemasterpitch="1" pitch="0.0" basenote="57" pan="0" pitchrange="12" vol="30">
          <eldata />
          <instrument name="tripleoscillator" />
        </instrumenttrack>
        <pattern pos="175104" muted="0" steps="16" name="" type="1">
          <note key="72" pos="0" pan="0" len="1536" vol="100" />
        </pattern>
        <pattern pos="53760" muted="0" steps="16" name="" type="1">
          <note key="91" pos="576" pan="0" len="12" vol="6" />
          <note key="94" pos="588" pan="0" len="12" vol="6" />
          <note key="96" pos="600" pan="0" len="936" vol="6" />
        </pattern>
        <pattern pos="55296" muted="0" steps="16" name="" type="1">
          <note key="101" pos="864" pan="0" len="12" vol="2" />
          <note key="103" pos="876" pan="0" len="12" vol="3" />
          <note key="101" pos="888" pan="0" len="12" vol="5" />
          <note key="103" pos="900" pan="0" len="12" vol="6" />
          <note key="101" pos="912" pan="0" len="12" vol="8" />
          <note key="103" pos="924" pan="0" len="12" vol="9" />
          <note key="101" pos="936" pan="0" len="12" vol="11" />
          <note key="103" pos="948" pan="0" len="12" vol="12" />
        </pattern>
        <pattern pos="162816" muted="0" steps="16" name="" type="1">
          <note key="67" pos="0" pan="0" len="48" vol="100" />
          <note key="70" pos="48" pan="0" len="48" vol="100" />
          <note key="72" pos="96" pan="0" len="72" vol="100" />
          <note key="70" pos="168" pan="0" len="48" vol="100" />
          <note key="72" pos="216" pan="0" len="48" vol="100" />
          <note key="70" pos="264" pan="0" len="24" vol="100" />
          <note key="72" pos="288" pan="0" len="48" vol="100" />
          <note key="70" pos="336" pan="0" len="48" vol="100" />
          <note key="65" pos="384" pan="0" len="144" vol="100" />
          <note key="65" pos="528" pan="0" len="24" vol="100" />
          <note key="67" pos="552" pan="0" len="24" vol="100" />
          <note key="68" pos="576" pan="0" len="192" vol="100" />
          <note key="67" pos="768" pan="0" len="48" vol="100" />
          <note key="70" pos="816" pan="0" len="48" vol="100" />
          <note key="72" pos="864" pan="0" len="72" vol="100" />
          <note key="70" pos="936" pan="0" len="48" vol="100" />
          <note key="72" pos="984" pan="0" len="48" vol="100" />
          <note key="70" pos="1032" pan="0" len="24" vol="100" />
          <note key="72" pos="1056" pan="0" len="48" vol="100" />
          <note key="70" pos="1104" pan="0" len="48" vol="100" />
          <note key="77" pos="1152" pan="0" len="144" vol="100" />
          <note key="79" pos="1296" pan="0" len="24" vol="100" />
          <note key="72" pos="1320" pan="0" len="216" vol="100" />
        </pattern>
        <pattern pos="164352" muted="0" steps="16" name="" type="1">
          <note key="67" pos="0" pan="0" len="48" vol="100" />
          <note key="70" pos="48" pan="0" len="48" vol="100" />
          <note key="72" pos="96" pan="0" len="72" vol="100" />
          <note key="70" pos="168" pan="0" len="48" vol="100" />
          <note key="72" pos="216" pan="0" len="48" vol="100" />
          <note key="70" pos="264" pan="0" len="24" vol="100" />
          <note key="72" pos="288" pan="0" len="48" vol="100" />
          <note key="70" pos="336" pan="0" len="48" vol="100" />
          <note key="65" pos="384" pan="0" len="144" vol="100" />
          <note key="65" pos="528" pan="0" len="24" vol="100" />
          <note key="67" pos="552" pan="0" len="24" vol="100" />
          <note key="68" pos="576" pan="0" len="192" vol="100" />
          <note key="67" pos="768" pan="0" len="48" vol="100" />
          <note key="70" pos="816" pan="0" len="48" vol="100" />
          <note key="72" pos="864" pan="0" len="72" vol="100" />
          <note key="70" pos="936" pan="0" len="48" vol="100" />
          <note key="72" pos="984" pan="0" len="48" vol="100" />
          <note key="70" pos="1032" pan="0" len="24" vol="100" />
          <note key="72" pos="1056" pan="0" len="48" vol="100" />
          <note key="70" pos="1104" pan="0" len="48" vol="100" />
          <note key="77" pos="1152" pan="0" len="144" vol="100" />
          <note key="79" pos="1296" pan="0" len="24" vol="100" />
          <note key="72" pos="1320" pan="0" len="168" vol="100" />
          <note key="72" pos="1488" pan="0" len="24" vol="100" />
          <note key="74" pos="1512" pan="0" len="24" vol="100" />
        </pattern>
        <pattern pos="165888" muted="0" steps="16" name="" type="1">
          <note key="75" pos="0" pan="0" len="144" vol="100" />
          <note key="74" pos="144" pan="0" len="24" vol="100" />
          <note key="72" pos="168" pan="0" len="24" vol="100" />
          <note key="74" pos="192" pan="0" len="72" vol="100" />
          <note key="67" pos="264" pan="0" len="72" vol="100" />
          <note key="72" pos="336" pan="0" len="192" vol="100" />
          <note key="70" pos="528" pan="0" len="24" vol="100" />
          <note key="68" pos="552" pan="0" len="24" vol="100" />
          <note key="70" pos="576" pan="0" len="96" vol="100" />
          <note key="75" pos="672" pan="0" len="48" vol="100" />
          <note key="74" pos="720" pan="0" len="48" vol="100" />
          <note key="75" pos="768" pan="0" len="144" vol="100" />
          <note key="74" pos="912" pan="0" len="24" vol="100" />
          <note key="72" pos="936" pan="0" len="24" vol="100" />
          <note key="74" pos="960" pan="0" len="96" vol="100" />
          <note key="67" pos="1056" pan="0" len="96" vol="100" />
          <note key="72" pos="1152" pan="0" len="96" vol="100" />
          <note key="75" pos="1248" pan="0" len="48" vol="100" />
          <note key="74" pos="1296" pan="0" len="48" vol="100" />
          <note key="70" pos="1344" pan="0" len="144" vol="100" />
          <note key="67" pos="1488" pan="0" len="24" vol="100" />
          <note key="70" pos="1512" pan="0" len="24" vol="100" />
        </pattern>
        <pattern pos="167424" muted="0" steps="16" name="" type="1">
          <note key="75" pos="0" pan="0" len="120" vol="100" />
          <note key="77" pos="120" pan="0" len="48" vol="100" />
          <note key="79" pos="168" pan="0" len="24" vol="100" />
          <note key="74" pos="192" pan="0" len="72" vol="100" />
          <note key="70" pos="264" pan="0" len="72" vol="100" />
          <note key="72" pos="336" pan="0" len="192" vol="100" />
          <note key="75" pos="528" pan="0" len="24" vol="100" />
          <note key="74" pos="552" pan="0" len="24" vol="100" />
          <note key="70" pos="576" pan="0" len="120" vol="100" />
          <note key="67" pos="696" pan="0" len="48" vol="100" />
          <note key="70" pos="744" pan="0" len="24" vol="100" />
          <note key="72" pos="768" pan="0" len="144" vol="100" />
          <note key="74" pos="912" pan="0" len="24" vol="100" />
          <note key="72" pos="936" pan="0" len="24" vol="100" />
          <note key="74" pos="960" pan="0" len="96" vol="100" />
          <note key="67" pos="1056" pan="0" len="96" vol="100" />
          <note key="65" pos="1152" pan="0" len="96" vol="100" />
          <note key="70" pos="1248" pan="0" len="96" vol="100" />
          <note key="72" pos="1344" pan="0" len="96" vol="100" />
          <note key="75" pos="1440" pan="0" len="48" vol="100" />
          <note key="74" pos="1488" pan="0" len="48" vol="100" />
        </pattern>
        <pattern pos="168960" muted="0" steps="16" name="" type="1">
          <note key="67" pos="0" pan="0" len="48" vol="100" />
          <note key="70" pos="48" pan="0" len="48" vol="100" />
          <note key="72" pos="96" pan="0" len="72" vol="100" />
          <note key="70" pos="168" pan="0" len="48" vol="100" />
          <note key="72" pos="216" pan="0" len="48" vol="100" />
          <note key="70" pos="264" pan="0" len="24" vol="100" />
          <note key="72" pos="288" pan="0" len="48" vol="100" />
          <note key="70" pos="336" pan="0" len="48" vol="100" />
          <note key="65" pos="384" pan="0" len="144" vol="100" />
          <note key="65" pos="528" pan="0" len="24" vol="100" />
          <note key="67" pos="552" pan="0" len="24" vol="100" />
          <note key="68" pos="576" pan="0" len="192" vol="100" />
          <note key="67" pos="768" pan="0" len="48" vol="100" />
          <note key="70" pos="816" pan="0" len="48" vol="100" />
          <note key="72" pos="864" pan="0" len="72" vol="100" />
          <note key="70" pos="936" pan="0" len="48" vol="100" />
          <note key="72" pos="984" pan="0" len="48" vol="100" />
          <note key="70" pos="1032" pan="0" len="24" vol="100" />
          <note key="72" pos="1056" pan="0" len="48" vol="100" />
          <note key="70" pos="1104" pan="0" len="48" vol="100" />
          <note key="77" pos="1152" pan="0" len="144" vol="100" />
          <note key="79" pos="1296" pan="0" len="24" vol="100" />
          <note key="72" pos="1320" pan="0" len="192" vol="100" />
          <note key="72" pos="1512" pan="0" len="24" vol="100" />
        </pattern>
        <pattern pos="170496" muted="0" steps="16" name="" type="1">
          <note key="67" pos="0" pan="0" len="48" vol="100" />
          <note key="70" pos="48" pan="0" len="48" vol="100" />
          <note key="72" pos="96" pan="0" len="72" vol="100" />
          <note key="70" pos="168" pan="0" len="48" vol="100" />
          <note key="72" pos="216" pan="0" len="48" vol="100" />
          <note key="70" pos="264" pan="0" len="24" vol="100" />
          <note key="72" pos="288" pan="0" len="48" vol="100" />
          <note key="70" pos="336" pan="0" len="48" vol="100" />
          <note key="65" pos="384" pan="0" len="144" vol="100" />
          <note key="65" pos="528" pan="0" len="24" vol="100" />
          <note key="67" pos="552" pan="0" len="24" vol="100" />
          <note key="68" pos="576" pan="0" len="192" vol="100" />
          <note key="67" pos="768" pan="0" len="48" vol="100" />
          <note key="70" pos="816" pan="0" len="48" vol="100" />
          <note key="72" pos="864" pan="0" len="72" vol="100" />
          <note key="70" pos="936" pan="0" len="48" vol="100" />
          <note key="72" pos="984" pan="0" len="48" vol="100" />
          <note key="70" pos="1032" pan="0" len="24" vol="100" />
          <note key="72" pos="1056" pan="0" len="48" vol="100" />
          <note key="70" pos="1104" pan="0" len="48" vol="100" />
          <note key="77" pos="1152" pan="0" len="144" vol="100" />
          <note key="79" pos="1296" pan="0" len="24" vol="100" />
          <note key="72" pos="1320" pan="0" len="168" vol="100" />
          <note key="72" pos="1488" pan="0" len="24" vol="100" />
          <note key="74" pos="1512" pan="0" len="24" vol="100" />
        </pattern>
        <pattern pos="172032" muted="0" steps="16" name="" type="1">
          <note key="75" pos="0" pan="0" len="144" vol="100" />
          <note key="74" pos="144" pan="0" len="24" vol="100" />
          <note key="72" pos="168" pan="0" len="24" vol="100" />
          <note key="74" pos="192" pan="0" len="72" vol="100" />
          <note key="67" pos="264" pan="0" len="72" vol="100" />
          <note key="72" pos="336" pan="0" len="192" vol="100" />
          <note key="70" pos="528" pan="0" len="24" vol="100" />
          <note key="68" pos="552" pan="0" len="24" vol="100" />
          <note key="70" pos="576" pan="0" len="96" vol="100" />
          <note key="75" pos="672" pan="0" len="48" vol="100" />
          <note key="74" pos="720" pan="0" len="48" vol="100" />
          <note key="75" pos="768" pan="0" len="144" vol="100" />
          <note key="74" pos="912" pan="0" len="24" vol="100" />
          <note key="72" pos="936" pan="0" len="24" vol="100" />
          <note key="74" pos="960" pan="0" len="96" vol="100" />
          <note key="67" pos="1056" pan="0" len="96" vol="100" />
          <note key="72" pos="1152" pan="0" len="96" vol="100" />
          <note key="75" pos="1248" pan="0" len="48" vol="100" />
          <note key="74" pos="1296" pan="0" len="48" vol="100" />
          <note key="70" pos="1344" pan="0" len="144" vol="100" />
          <note key="67" pos="1488" pan="0" len="24" vol="100" />
          <note key="70" pos="1512" pan="0" len="24" vol="100" />
        </pattern>
        <pattern pos="173568" muted="0" steps="16" name="" type="1">
          <note key="75" pos="0" pan="0" len="120" vol="100" />
          <note key="77" pos="120" pan="0" len="48" vol="100" />
          <note key="79" pos="168" pan="0" len="24" vol="100" />
          <note key="74" pos="192" pan="0" len="72" vol="100" />
          <note key="70" pos="264" pan="0" len="72" vol="100" />
          <note key="72" pos="336" pan="0" len="192" vol="100" />
          <note key="75" pos="528" pan="0" len="24" vol="100" />
          <note key="74" pos="552" pan="0" len="24" vol="100" />
          <note key="70" pos="576" pan="0" len="120" vol="100" />
          <note key="67" pos="696" pan="0" len="48" vol="100" />
          <note key="70" pos="744" pan="0" len="24" vol="100" />
          <note key="72" pos="768" pan="0" len="144" vol="100" />
          <note key="74" pos="912" pan="0" len="24" vol="100" />
          <note key="72" pos="936" pan="0" len="24" vol="100" />
          <note key="74" pos="960" pan="0" len="96" vol="100" />
          <note key="67" pos="1056" pan="0" len="96" vol="100" />
          <note key="65" pos="1152" pan="0" len="96" vol="100" />
          <note key="70" pos="1248" pan="0" len="96" vol="100" />
          <note key="72" pos="1344" pan="0" len="96" vol="100" />
          <note key="75" pos="1440" pan="0" len="48" vol="100" />
          <note key="74" pos="1488" pan="0" len="48" vol="100" />
        </pattern>
      </track>
      <track solo="0" name="18 (Ch3)" type="0" muted="0">
        <instrumenttrack usemasterpitch="1" pitch="0.0" basenote="57" pan="0" pitchrange="12" vol="30">
          <eldata />
          <instrument name="tripleoscillator" />
        </instrumenttrack>
        <pattern pos="196608" muted="0" steps="16" name="" type="1">
          <note key="71" pos="0" pan="0" len="72" vol="34" />
          <note key="75" pos="72" pan="0" len="72" vol="34" />
          <note key="76" pos="144" pan="0" len="48" vol="34" />
          <note key="71" pos="192" pan="0" len="72" vol="34" />
          <note key="75" pos="264" pan="0" len="72" vol="34" />
          <note key="76" pos="336" pan="0" len="48" vol="34" />
          <note key="73" pos="384" pan="0" len="72" vol="34" />
          <note key="75" pos="456" pan="0" len="72" vol="34" />
          <note key="76" pos="528" pan="0" len="48" vol="34" />
          <note key="73" pos="576" pan="0" len="72" vol="34" />
          <note key="75" pos="648" pan="0" len="72" vol="34" />
          <note key="76" pos="720" pan="0" len="48" vol="34" />
          <note key="83" pos="768" pan="0" len="72" vol="34" />
          <note key="75" pos="840" pan="0" len="72" vol="31" />
          <note key="76" pos="912" pan="0" len="48" vol="28" />
          <note key="71" pos="960" pan="0" len="72" vol="27" />
          <note key="75" pos="1032" pan="0" len="72" vol="22" />
          <note key="76" pos="1104" pan="0" len="48" vol="19" />
          <note key="73" pos="1152" pan="0" len="72" vol="17" />
          <note key="75" pos="1224" pan="0" len="72" vol="14" />
          <note key="76" pos="1296" pan="0" len="48" vol="11" />
          <note key="83" pos="1344" pan="0" len="72" vol="9" />
          <note key="73" pos="1416" pan="0" len="72" vol="5" />
          <note key="75" pos="1488" pan="0" len="48" vol="2" />
        </pattern>
        <pattern pos="185856" muted="0" steps="16" name="" type="1">
          <note key="83" pos="768" pan="0" len="72" vol="41" />
          <note key="75" pos="840" pan="0" len="72" vol="41" />
          <note key="76" pos="912" pan="0" len="48" vol="41" />
          <note key="71" pos="960" pan="0" len="72" vol="41" />
          <note key="75" pos="1032" pan="0" len="72" vol="41" />
          <note key="76" pos="1104" pan="0" len="48" vol="41" />
          <note key="73" pos="1152" pan="0" len="72" vol="41" />
          <note key="75" pos="1224" pan="0" len="72" vol="41" />
          <note key="76" pos="1296" pan="0" len="48" vol="41" />
          <note key="83" pos="1344" pan="0" len="72" vol="41" />
          <note key="73" pos="1416" pan="0" len="72" vol="41" />
          <note key="75" pos="1488" pan="0" len="48" vol="41" />
        </pattern>
        <pattern pos="187392" muted="0" steps="16" name="" type="1">
          <note key="71" pos="0" pan="0" len="72" vol="41" />
          <note key="75" pos="72" pan="0" len="72" vol="41" />
          <note key="76" pos="144" pan="0" len="48" vol="41" />
          <note key="71" pos="192" pan="0" len="72" vol="41" />
          <note key="75" pos="264" pan="0" len="72" vol="41" />
          <note key="76" pos="336" pan="0" len="48" vol="41" />
          <note key="73" pos="384" pan="0" len="72" vol="41" />
          <note key="75" pos="456" pan="0" len="72" vol="41" />
          <note key="76" pos="528" pan="0" len="48" vol="41" />
          <note key="73" pos="576" pan="0" len="72" vol="41" />
          <note key="75" pos="648" pan="0" len="72" vol="41" />
          <note key="76" pos="720" pan="0" len="48" vol="41" />
          <note key="83" pos="768" pan="0" len="72" vol="41" />
          <note key="75" pos="840" pan="0" len="72" vol="41" />
          <note key="76" pos="912" pan="0" len="48" vol="41" />
          <note key="71" pos="960" pan="0" len="72" vol="41" />
          <note key="75" pos="1032" pan="0" len="72" vol="41" />
          <note key="76" pos="1104" pan="0" len="48" vol="41" />
          <note key="73" pos="1152" pan="0" len="72" vol="41" />
          <note key="75" pos="1224" pan="0" len="72" vol="41" />
          <note key="76" pos="1296" pan="0" len="48" vol="41" />
          <note key="83" pos="1344" pan="0" len="72" vol="41" />
          <note key="73" pos="1416" pan="0" len="72" vol="41" />
          <note key="75" pos="1488" pan="0" len="48" vol="41" />
        </pattern>
        <pattern pos="190464" muted="0" steps="16" name="" type="1">
          <note key="71" pos="0" pan="0" len="72" vol="34" />
          <note key="75" pos="72" pan="0" len="72" vol="34" />
          <note key="76" pos="144" pan="0" len="48" vol="34" />
          <note key="71" pos="192" pan="0" len="72" vol="34" />
          <note key="75" pos="264" pan="0" len="72" vol="34" />
          <note key="76" pos="336" pan="0" len="48" vol="34" />
          <note key="73" pos="384" pan="0" len="72" vol="34" />
          <note key="75" pos="456" pan="0" len="72" vol="34" />
          <note key="76" pos="528" pan="0" len="48" vol="34" />
          <note key="73" pos="576" pan="0" len="72" vol="34" />
          <note key="75" pos="648" pan="0" len="72" vol="34" />
          <note key="76" pos="720" pan="0" len="48" vol="34" />
          <note key="83" pos="768" pan="0" len="72" vol="34" />
          <note key="75" pos="840" pan="0" len="72" vol="34" />
          <note key="76" pos="912" pan="0" len="48" vol="34" />
          <note key="71" pos="960" pan="0" len="72" vol="34" />
          <note key="75" pos="1032" pan="0" len="72" vol="34" />
          <note key="76" pos="1104" pan="0" len="48" vol="34" />
          <note key="73" pos="1152" pan="0" len="72" vol="34" />
          <note key="75" pos="1224" pan="0" len="72" vol="34" />
          <note key="76" pos="1296" pan="0" len="48" vol="34" />
          <note key="83" pos="1344" pan="0" len="72" vol="34" />
          <note key="73" pos="1416" pan="0" len="72" vol="34" />
          <note key="75" pos="1488" pan="0" len="48" vol="34" />
        </pattern>
        <pattern pos="192000" muted="0" steps="16" name="" type="1">
          <note key="71" pos="0" pan="0" len="72" vol="34" />
          <note key="75" pos="72" pan="0" len="72" vol="34" />
          <note key="76" pos="144" pan="0" len="48" vol="34" />
          <note key="71" pos="192" pan="0" len="72" vol="34" />
          <note key="75" pos="264" pan="0" len="72" vol="34" />
          <note key="76" pos="336" pan="0" len="48" vol="34" />
          <note key="73" pos="384" pan="0" len="72" vol="34" />
          <note key="75" pos="456" pan="0" len="72" vol="34" />
          <note key="76" pos="528" pan="0" len="48" vol="34" />
          <note key="73" pos="576" pan="0" len="72" vol="34" />
          <note key="75" pos="648" pan="0" len="72" vol="34" />
          <note key="76" pos="720" pan="0" len="48" vol="34" />
          <note key="83" pos="768" pan="0" len="72" vol="34" />
          <note key="75" pos="840" pan="0" len="72" vol="34" />
          <note key="76" pos="912" pan="0" len="48" vol="34" />
          <note key="71" pos="960" pan="0" len="72" vol="34" />
          <note key="75" pos="1032" pan="0" len="72" vol="34" />
          <note key="76" pos="1104" pan="0" len="48" vol="34" />
          <note key="73" pos="1152" pan="0" len="72" vol="34" />
          <note key="75" pos="1224" pan="0" len="72" vol="34" />
          <note key="76" pos="1296" pan="0" len="48" vol="34" />
          <note key="83" pos="1344" pan="0" len="72" vol="34" />
          <note key="73" pos="1416" pan="0" len="72" vol="34" />
          <note key="75" pos="1488" pan="0" len="48" vol="34" />
        </pattern>
        <pattern pos="195072" muted="0" steps="16" name="" type="1">
          <note key="71" pos="0" pan="0" len="72" vol="34" />
          <note key="75" pos="72" pan="0" len="72" vol="34" />
          <note key="76" pos="144" pan="0" len="48" vol="34" />
          <note key="71" pos="192" pan="0" len="72" vol="34" />
          <note key="75" pos="264" pan="0" len="72" vol="34" />
          <note key="76" pos="336" pan="0" len="48" vol="34" />
          <note key="73" pos="384" pan="0" len="72" vol="34" />
          <note key="75" pos="456" pan="0" len="72" vol="34" />
          <note key="76" pos="528" pan="0" len="48" vol="34" />
          <note key="73" pos="576" pan="0" len="72" vol="34" />
          <note key="75" pos="648" pan="0" len="72" vol="34" />
          <note key="76" pos="720" pan="0" len="48" vol="34" />
          <note key="83" pos="768" pan="0" len="72" vol="34" />
          <note key="75" pos="840" pan="0" len="72" vol="34" />
          <note key="76" pos="912" pan="0" len="48" vol="34" />
          <note key="71" pos="960" pan="0" len="72" vol="34" />
          <note key="75" pos="1032" pan="0" len="72" vol="34" />
          <note key="76" pos="1104" pan="0" len="48" vol="34" />
          <note key="73" pos="1152" pan="0" len="72" vol="34" />
          <note key="75" pos="1224" pan="0" len="72" vol="34" />
          <note key="76" pos="1296" pan="0" len="48" vol="34" />
          <note key="83" pos="1344" pan="0" len="72" vol="34" />
          <note key="73" pos="1416" pan="0" len="72" vol="34" />
          <note key="75" pos="1488" pan="0" len="48" vol="34" />
        </pattern>
      </track>
      <track solo="0" name="18 (Ch4)" type="0" muted="0">
        <instrumenttrack usemasterpitch="1" pitch="0.0" basenote="57" pan="0" pitchrange="12" vol="30">
          <eldata />
          <instrument name="tripleoscillator" />
        </instrumenttrack>
        <pattern pos="75264" muted="0" steps="16" name="" type="1">
          <note key="79" pos="348" pan="0" len="12" vol="100" />
          <note key="82" pos="360" pan="0" len="12" vol="100" />
          <note key="84" pos="372" pan="0" len="12" vol="100" />
          <note key="96" pos="384" pan="0" len="384" vol="100" />
        </pattern>
        <pattern pos="26880" muted="0" steps="16" name="" type="1">
          <note key="84" pos="912" pan="0" len="12" vol="34" />
          <note key="89" pos="924" pan="0" len="12" vol="34" />
          <note key="91" pos="936" pan="0" len="504" vol="34" />
        </pattern>
        <pattern pos="34176" muted="0" steps="16" name="" type="1">
          <note key="82" pos="48" pan="0" len="12" vol="86" />
          <note key="85" pos="60" pan="0" len="12" vol="100" />
          <note key="87" pos="72" pan="0" len="12" vol="100" />
          <note key="90" pos="84" pan="0" len="12" vol="100" />
          <note key="92" pos="96" pan="0" len="12" vol="100" />
          <note key="94" pos="108" pan="0" len="12" vol="100" />
          <note key="97" pos="120" pan="0" len="12" vol="100" />
          <note key="99" pos="132" pan="0" len="156" vol="100" />
        </pattern>
        <pattern pos="64512" muted="0" steps="16" name="" type="1">
          <note key="79" pos="348" pan="0" len="12" vol="100" />
          <note key="82" pos="360" pan="0" len="12" vol="100" />
          <note key="84" pos="372" pan="0" len="12" vol="100" />
          <note key="96" pos="384" pan="0" len="384" vol="100" />
        </pattern>
        <pattern pos="66048" muted="0" steps="16" name="" type="1">
          <note key="79" pos="348" pan="0" len="12" vol="100" />
          <note key="82" pos="360" pan="0" len="12" vol="100" />
          <note key="84" pos="372" pan="0" len="12" vol="100" />
          <note key="96" pos="384" pan="0" len="384" vol="100" />
        </pattern>
        <pattern pos="73728" muted="0" steps="16" name="" type="1">
          <note key="79" pos="348" pan="0" len="12" vol="100" />
          <note key="82" pos="360" pan="0" len="12" vol="100" />
          <note key="84" pos="372" pan="0" len="12" vol="100" />
          <note key="96" pos="384" pan="0" len="384" vol="100" />
        </pattern>
      </track>
      <track solo="0" name="18 (Ch5)" type="0" muted="0">
        <instrumenttrack usemasterpitch="1" pitch="0.0" basenote="57" pan="0" pitchrange="12" vol="30">
          <eldata />
          <instrument name="tripleoscillator" />
        </instrumenttrack>
        <pattern pos="26880" muted="0" steps="16" name="" type="1">
          <note key="87" pos="96" pan="0" len="12" vol="33" />
          <note key="92" pos="108" pan="0" len="12" vol="33" />
          <note key="94" pos="120" pan="0" len="72" vol="100" />
          <note key="87" pos="192" pan="0" len="672" vol="100" />
        </pattern>
        <pattern pos="23808" muted="0" steps="16" name="" type="1">
          <note key="84" pos="96" pan="0" len="24" vol="34" />
          <note key="86" pos="120" pan="0" len="24" vol="34" />
          <note key="87" pos="144" pan="0" len="24" vol="52" />
          <note key="94" pos="168" pan="0" len="24" vol="52" />
          <note key="96" pos="192" pan="0" len="768" vol="69" />
        </pattern>
        <pattern pos="25344" muted="0" steps="16" name="" type="1">
          <note key="91" pos="96" pan="0" len="96" vol="50" />
          <note key="84" pos="192" pan="0" len="672" vol="50" />
          <note key="91" pos="864" pan="0" len="96" vol="50" />
          <note key="84" pos="960" pan="0" len="576" vol="50" />
        </pattern>
      </track>
      <track solo="0" name="18 (Ch6)" type="0" muted="0">
        <instrumenttrack usemasterpitch="1" pitch="0.0" basenote="57" pan="0" pitchrange="12" vol="30">
          <eldata />
          <instrument name="tripleoscillator" />
        </instrumenttrack>
        <pattern pos="235200" muted="0" steps="16" name="" type="1">
          <note key="70" pos="0" pan="0" len="48" vol="100" />
          <note key="74" pos="48" pan="0" len="144" vol="100" />
          <note key="79" pos="192" pan="0" len="192" vol="100" />
          <note key="77" pos="384" pan="0" len="48" vol="100" />
          <note key="69" pos="432" pan="0" len="48" vol="100" />
          <note key="70" pos="480" pan="0" len="168" vol="100" />
          <note key="91" pos="648" pan="0" len="12" vol="34" />
          <note key="94" pos="660" pan="0" len="12" vol="34" />
          <note key="98" pos="672" pan="0" len="96" vol="34" />
          <note key="70" pos="768" pan="0" len="48" vol="100" />
          <note key="74" pos="816" pan="0" len="144" vol="100" />
          <note key="79" pos="960" pan="0" len="168" vol="100" />
          <note key="77" pos="1128" pan="0" len="12" vol="34" />
          <note key="79" pos="1140" pan="0" len="12" vol="69" />
          <note key="77" pos="1152" pan="0" len="48" vol="100" />
          <note key="69" pos="1200" pan="0" len="48" vol="100" />
          <note key="70" pos="1248" pan="0" len="96" vol="100" />
          <note key="81" pos="1344" pan="0" len="48" vol="100" />
          <note key="72" pos="1392" pan="0" len="48" vol="100" />
          <note key="74" pos="1440" pan="0" len="48" vol="100" />
          <note key="77" pos="1488" pan="0" len="48" vol="100" />
        </pattern>
        <pattern pos="219840" muted="0" steps="16" name="" type="1">
          <note key="70" pos="0" pan="0" len="48" vol="100" />
          <note key="74" pos="48" pan="0" len="144" vol="100" />
          <note key="79" pos="192" pan="0" len="192" vol="100" />
          <note key="77" pos="384" pan="0" len="48" vol="100" />
          <note key="69" pos="432" pan="0" len="48" vol="100" />
          <note key="70" pos="480" pan="0" len="168" vol="100" />
          <note key="91" pos="648" pan="0" len="12" vol="34" />
          <note key="94" pos="660" pan="0" len="12" vol="34" />
          <note key="98" pos="672" pan="0" len="96" vol="34" />
          <note key="70" pos="768" pan="0" len="48" vol="100" />
          <note key="74" pos="816" pan="0" len="144" vol="100" />
          <note key="79" pos="960" pan="0" len="168" vol="100" />
          <note key="77" pos="1128" pan="0" len="12" vol="34" />
          <note key="79" pos="1140" pan="0" len="12" vol="69" />
          <note key="77" pos="1152" pan="0" len="48" vol="100" />
          <note key="69" pos="1200" pan="0" len="48" vol="100" />
          <note key="70" pos="1248" pan="0" len="96" vol="100" />
          <note key="81" pos="1344" pan="0" len="48" vol="100" />
          <note key="72" pos="1392" pan="0" len="48" vol="100" />
          <note key="74" pos="1440" pan="0" len="48" vol="100" />
          <note key="77" pos="1488" pan="0" len="48" vol="100" />
        </pattern>
        <pattern pos="230592" muted="0" steps="16" name="" type="1">
          <note key="70" pos="0" pan="0" len="144" vol="100" />
          <note key="69" pos="144" pan="0" len="24" vol="100" />
          <note key="70" pos="168" pan="0" len="24" vol="100" />
          <note key="72" pos="192" pan="0" len="96" vol="100" />
          <note key="65" pos="288" pan="0" len="96" vol="100" />
          <note key="74" pos="384" pan="0" len="144" vol="100" />
          <note key="77" pos="528" pan="0" len="48" vol="100" />
          <note key="72" pos="576" pan="0" len="96" vol="100" />
          <note key="70" pos="672" pan="0" len="48" vol="100" />
          <note key="69" pos="720" pan="0" len="48" vol="100" />
          <note key="67" pos="768" pan="0" len="144" vol="100" />
          <note key="69" pos="912" pan="0" len="48" vol="100" />
          <note key="65" pos="960" pan="0" len="144" vol="100" />
          <note key="62" pos="1104" pan="0" len="48" vol="100" />
          <note key="67" pos="1152" pan="0" len="96" vol="100" />
          <note key="69" pos="1248" pan="0" len="48" vol="100" />
          <note key="70" pos="1296" pan="0" len="48" vol="100" />
          <note key="72" pos="1344" pan="0" len="144" vol="100" />
          <note key="65" pos="1488" pan="0" len="48" vol="100" />
        </pattern>
        <pattern pos="232128" muted="0" steps="16" name="" type="1">
          <note key="70" pos="0" pan="0" len="144" vol="100" />
          <note key="69" pos="144" pan="0" len="24" vol="100" />
          <note key="70" pos="168" pan="0" len="24" vol="100" />
          <note key="72" pos="192" pan="0" len="96" vol="100" />
          <note key="65" pos="288" pan="0" len="96" vol="100" />
          <note key="74" pos="384" pan="0" len="144" vol="100" />
          <note key="77" pos="528" pan="0" len="48" vol="100" />
          <note key="72" pos="576" pan="0" len="96" vol="100" />
          <note key="70" pos="672" pan="0" len="48" vol="100" />
          <note key="69" pos="720" pan="0" len="48" vol="100" />
          <note key="67" pos="768" pan="0" len="144" vol="100" />
          <note key="69" pos="912" pan="0" len="48" vol="100" />
          <note key="65" pos="960" pan="0" len="96" vol="100" />
          <note key="62" pos="1056" pan="0" len="48" vol="100" />
          <note key="65" pos="1104" pan="0" len="48" vol="100" />
          <note key="67" pos="1152" pan="0" len="384" vol="100" />
        </pattern>
        <pattern pos="233664" muted="0" steps="16" name="" type="1">
          <note key="70" pos="0" pan="0" len="48" vol="100" />
          <note key="74" pos="48" pan="0" len="144" vol="100" />
          <note key="79" pos="192" pan="0" len="192" vol="100" />
          <note key="77" pos="384" pan="0" len="48" vol="100" />
          <note key="69" pos="432" pan="0" len="48" vol="100" />
          <note key="70" pos="480" pan="0" len="168" vol="100" />
          <note key="91" pos="648" pan="0" len="12" vol="34" />
          <note key="94" pos="660" pan="0" len="12" vol="34" />
          <note key="98" pos="672" pan="0" len="96" vol="34" />
          <note key="70" pos="768" pan="0" len="48" vol="100" />
          <note key="74" pos="816" pan="0" len="144" vol="100" />
          <note key="79" pos="960" pan="0" len="168" vol="100" />
          <note key="77" pos="1128" pan="0" len="12" vol="34" />
          <note key="79" pos="1140" pan="0" len="12" vol="69" />
          <note key="77" pos="1152" pan="0" len="48" vol="100" />
          <note key="69" pos="1200" pan="0" len="48" vol="100" />
          <note key="70" pos="1248" pan="0" len="96" vol="100" />
          <note key="81" pos="1344" pan="0" len="48" vol="100" />
          <note key="72" pos="1392" pan="0" len="48" vol="100" />
          <note key="74" pos="1440" pan="0" len="48" vol="100" />
          <note key="77" pos="1488" pan="0" len="48" vol="100" />
        </pattern>
      </track>
      <track solo="0" name="18 (Ch7)" type="0" muted="0">
        <instrumenttrack usemasterpitch="1" pitch="0.0" basenote="57" pan="0" pitchrange="12" vol="30">
          <eldata />
          <instrument name="tripleoscillator" />
        </instrumenttrack>
        <pattern pos="161280" muted="0" steps="16" name="" type="1">
          <note key="60" pos="0" pan="0" len="768" vol="100" />
          <note key="60" pos="768" pan="0" len="768" vol="50" />
        </pattern>
        <pattern pos="56832" muted="0" steps="16" name="" type="1">
          <note key="79" pos="1512" pan="0" len="12" vol="50" />
          <note key="82" pos="1524" pan="0" len="12" vol="50" />
        </pattern>
        <pattern pos="58368" muted="0" steps="16" name="" type="1">
          <note key="84" pos="0" pan="0" len="12" vol="50" />
          <note key="86" pos="12" pan="0" len="12" vol="50" />
          <note key="87" pos="24" pan="0" len="12" vol="50" />
          <note key="89" pos="36" pan="0" len="12" vol="50" />
          <note key="91" pos="48" pan="0" len="720" vol="50" />
        </pattern>
        <pattern pos="59904" muted="0" steps="16" name="" type="1">
          <note key="84" pos="0" pan="0" len="12" vol="50" />
          <note key="86" pos="12" pan="0" len="12" vol="50" />
          <note key="87" pos="24" pan="0" len="12" vol="50" />
          <note key="89" pos="36" pan="0" len="12" vol="50" />
          <note key="91" pos="48" pan="0" len="12" vol="50" />
          <note key="94" pos="60" pan="0" len="12" vol="44" />
          <note key="96" pos="72" pan="0" len="96" vol="31" />
        </pattern>
        <pattern pos="62976" muted="0" steps="16" name="" type="1">
          <note key="84" pos="0" pan="0" len="12" vol="50" />
          <note key="86" pos="12" pan="0" len="12" vol="50" />
          <note key="87" pos="24" pan="0" len="12" vol="50" />
          <note key="89" pos="36" pan="0" len="12" vol="50" />
          <note key="91" pos="48" pan="0" len="12" vol="50" />
          <note key="94" pos="60" pan="0" len="12" vol="44" />
          <note key="96" pos="72" pan="0" len="96" vol="31" />
        </pattern>
        <pattern pos="67584" muted="0" steps="16" name="" type="1">
          <note key="84" pos="0" pan="0" len="12" vol="50" />
          <note key="86" pos="12" pan="0" len="12" vol="50" />
          <note key="87" pos="24" pan="0" len="12" vol="50" />
          <note key="89" pos="36" pan="0" len="12" vol="50" />
          <note key="91" pos="48" pan="0" len="12" vol="50" />
          <note key="94" pos="60" pan="0" len="12" vol="44" />
          <note key="96" pos="72" pan="0" len="96" vol="31" />
        </pattern>
        <pattern pos="69120" muted="0" steps="16" name="" type="1">
          <note key="84" pos="0" pan="0" len="12" vol="50" />
          <note key="86" pos="12" pan="0" len="12" vol="50" />
          <note key="87" pos="24" pan="0" len="12" vol="50" />
          <note key="89" pos="36" pan="0" len="12" vol="50" />
          <note key="91" pos="48" pan="0" len="12" vol="50" />
          <note key="94" pos="60" pan="0" len="12" vol="44" />
          <note key="96" pos="72" pan="0" len="96" vol="31" />
        </pattern>
        <pattern pos="72192" muted="0" steps="16" name="" type="1">
          <note key="84" pos="0" pan="0" len="12" vol="50" />
          <note key="86" pos="12" pan="0" len="12" vol="50" />
          <note key="87" pos="24" pan="0" len="12" vol="50" />
          <note key="89" pos="36" pan="0" len="12" vol="50" />
          <note key="91" pos="48" pan="0" len="12" vol="50" />
          <note key="94" pos="60" pan="0" len="12" vol="44" />
          <note key="96" pos="72" pan="0" len="96" vol="31" />
        </pattern>
        <pattern pos="135168" muted="0" steps="16" name="" type="1">
          <note key="77" pos="0" pan="0" len="768" vol="69" />
          <note key="77" pos="768" pan="0" len="768" vol="52" />
        </pattern>
        <pattern pos="141312" muted="0" steps="16" name="" type="1">
          <note key="60" pos="0" pan="0" len="768" vol="100" />
          <note key="60" pos="768" pan="0" len="768" vol="100" />
        </pattern>
        <pattern pos="142848" muted="0" steps="16" name="" type="1">
          <note key="60" pos="0" pan="0" len="384" vol="100" />
          <note key="58" pos="384" pan="0" len="192" vol="100" />
          <note key="57" pos="576" pan="0" len="192" vol="100" />
          <note key="60" pos="768" pan="0" len="384" vol="100" />
          <note key="58" pos="1152" pan="0" len="192" vol="100" />
          <note key="69" pos="1344" pan="0" len="192" vol="100" />
        </pattern>
        <pattern pos="144384" muted="0" steps="16" name="" type="1">
          <note key="60" pos="0" pan="0" len="384" vol="100" />
          <note key="58" pos="384" pan="0" len="192" vol="100" />
          <note key="57" pos="576" pan="0" len="192" vol="100" />
          <note key="60" pos="768" pan="0" len="384" vol="100" />
          <note key="58" pos="1152" pan="0" len="192" vol="100" />
          <note key="69" pos="1344" pan="0" len="192" vol="100" />
        </pattern>
        <pattern pos="145920" muted="0" steps="16" name="" type="1">
          <note key="56" pos="0" pan="0" len="384" vol="100" />
          <note key="55" pos="384" pan="0" len="384" vol="100" />
          <note key="56" pos="768" pan="0" len="384" vol="100" />
          <note key="55" pos="1152" pan="0" len="384" vol="100" />
        </pattern>
        <pattern pos="147456" muted="0" steps="16" name="" type="1">
          <note key="56" pos="0" pan="0" len="384" vol="100" />
          <note key="55" pos="384" pan="0" len="384" vol="100" />
          <note key="56" pos="768" pan="0" len="384" vol="100" />
          <note key="53" pos="1152" pan="0" len="288" vol="100" />
          <note key="58" pos="1440" pan="0" len="96" vol="100" />
        </pattern>
        <pattern pos="148992" muted="0" steps="16" name="" type="1">
          <note key="60" pos="0" pan="0" len="384" vol="100" />
          <note key="58" pos="384" pan="0" len="192" vol="100" />
          <note key="57" pos="576" pan="0" len="192" vol="100" />
          <note key="60" pos="768" pan="0" len="384" vol="100" />
          <note key="58" pos="1152" pan="0" len="192" vol="100" />
          <note key="69" pos="1344" pan="0" len="192" vol="100" />
        </pattern>
        <pattern pos="150528" muted="0" steps="16" name="" type="1">
          <note key="60" pos="0" pan="0" len="384" vol="100" />
          <note key="58" pos="384" pan="0" len="192" vol="100" />
          <note key="57" pos="576" pan="0" len="192" vol="100" />
          <note key="60" pos="768" pan="0" len="384" vol="100" />
          <note key="58" pos="1152" pan="0" len="192" vol="100" />
          <note key="69" pos="1344" pan="0" len="192" vol="100" />
        </pattern>
        <pattern pos="152064" muted="0" steps="16" name="" type="1">
          <note key="62" pos="0" pan="0" len="192" vol="100" />
          <note key="63" pos="192" pan="0" len="192" vol="100" />
          <note key="60" pos="384" pan="0" len="192" vol="100" />
          <note key="60" pos="576" pan="0" len="192" vol="100" />
          <note key="63" pos="768" pan="0" len="192" vol="100" />
          <note key="63" pos="960" pan="0" len="192" vol="100" />
          <note key="65" pos="1152" pan="0" len="192" vol="100" />
          <note key="60" pos="1344" pan="0" len="192" vol="100" />
        </pattern>
        <pattern pos="153600" muted="0" steps="16" name="" type="1">
          <note key="63" pos="0" pan="0" len="192" vol="100" />
          <note key="63" pos="192" pan="0" len="192" vol="100" />
          <note key="60" pos="384" pan="0" len="192" vol="100" />
          <note key="60" pos="576" pan="0" len="192" vol="100" />
          <note key="63" pos="768" pan="0" len="192" vol="100" />
          <note key="63" pos="960" pan="0" len="192" vol="100" />
          <note key="60" pos="1152" pan="0" len="384" vol="100" />
        </pattern>
        <pattern pos="155136" muted="0" steps="16" name="" type="1">
          <note key="60" pos="0" pan="0" len="384" vol="100" />
          <note key="58" pos="384" pan="0" len="192" vol="100" />
          <note key="57" pos="576" pan="0" len="192" vol="100" />
          <note key="60" pos="768" pan="0" len="384" vol="100" />
          <note key="58" pos="1152" pan="0" len="192" vol="100" />
          <note key="69" pos="1344" pan="0" len="192" vol="100" />
        </pattern>
        <pattern pos="156672" muted="0" steps="16" name="" type="1">
          <note key="60" pos="0" pan="0" len="384" vol="100" />
          <note key="58" pos="384" pan="0" len="192" vol="100" />
          <note key="57" pos="576" pan="0" len="192" vol="100" />
          <note key="60" pos="768" pan="0" len="384" vol="100" />
          <note key="58" pos="1152" pan="0" len="192" vol="100" />
          <note key="69" pos="1344" pan="0" len="192" vol="100" />
        </pattern>
        <pattern pos="158208" muted="0" steps="16" name="" type="1">
          <note key="56" pos="0" pan="0" len="384" vol="100" />
          <note key="55" pos="384" pan="0" len="384" vol="100" />
          <note key="56" pos="768" pan="0" len="384" vol="100" />
          <note key="55" pos="1152" pan="0" len="384" vol="100" />
        </pattern>
        <pattern pos="159744" muted="0" steps="16" name="" type="1">
          <note key="56" pos="0" pan="0" len="384" vol="100" />
          <note key="55" pos="384" pan="0" len="384" vol="100" />
          <note key="56" pos="768" pan="0" len="384" vol="100" />
          <note key="53" pos="1152" pan="0" len="288" vol="100" />
          <note key="58" pos="1440" pan="0" len="96" vol="100" />
        </pattern>
      </track>
      <track solo="0" name="18 (Ch8)" type="0" muted="0">
        <instrumenttrack usemasterpitch="1" pitch="0.0" basenote="57" pan="0" pitchrange="12" vol="30">
          <eldata />
          <instrument name="tripleoscillator" />
        </instrumenttrack>
        <pattern pos="198144" muted="0" steps="16" name="" type="1">
          <note key="68" pos="1524" pan="0" len="12" vol="100" />
        </pattern>
        <pattern pos="3840" muted="0" steps="16" name="" type="1">
          <note key="72" pos="0" pan="0" len="456" vol="100" />
          <note key="67" pos="456" pan="0" len="24" vol="100" />
          <note key="71" pos="480" pan="0" len="24" vol="100" />
          <note key="72" pos="504" pan="0" len="72" vol="100" />
          <note key="70" pos="576" pan="0" len="168" vol="100" />
          <note key="72" pos="744" pan="0" len="12" vol="100" />
          <note key="71" pos="756" pan="0" len="12" vol="100" />
          <note key="72" pos="768" pan="0" len="456" vol="100" />
          <note key="67" pos="1224" pan="0" len="24" vol="100" />
          <note key="71" pos="1248" pan="0" len="24" vol="100" />
          <note key="72" pos="1272" pan="0" len="72" vol="100" />
          <note key="70" pos="1344" pan="0" len="168" vol="100" />
          <note key="72" pos="1512" pan="0" len="12" vol="100" />
          <note key="71" pos="1524" pan="0" len="12" vol="100" />
        </pattern>
        <pattern pos="22272" muted="0" steps="16" name="" type="1">
          <note key="63" pos="96" pan="0" len="96" vol="100" />
          <note key="60" pos="192" pan="0" len="192" vol="100" />
          <note key="67" pos="384" pan="0" len="192" vol="100" />
          <note key="63" pos="576" pan="0" len="96" vol="100" />
          <note key="60" pos="672" pan="0" len="96" vol="100" />
          <note key="65" pos="768" pan="0" len="192" vol="100" />
          <note key="69" pos="960" pan="0" len="192" vol="100" />
          <note key="70" pos="1152" pan="0" len="192" vol="100" />
          <note key="69" pos="1344" pan="0" len="96" vol="100" />
          <note key="65" pos="1440" pan="0" len="96" vol="100" />
        </pattern>
        <pattern pos="23808" muted="0" steps="16" name="" type="1">
          <note key="63" pos="96" pan="0" len="96" vol="100" />
          <note key="60" pos="192" pan="0" len="192" vol="100" />
          <note key="67" pos="384" pan="0" len="192" vol="100" />
          <note key="70" pos="576" pan="0" len="96" vol="100" />
          <note key="72" pos="672" pan="0" len="96" vol="100" />
          <note key="69" pos="768" pan="0" len="192" vol="100" />
          <note key="65" pos="960" pan="0" len="192" vol="100" />
          <note key="70" pos="1152" pan="0" len="192" vol="100" />
          <note key="69" pos="1344" pan="0" len="96" vol="100" />
          <note key="70" pos="1440" pan="0" len="96" vol="100" />
        </pattern>
        <pattern pos="135168" muted="0" steps="16" name="" type="1">
          <note key="91" pos="0" pan="0" len="768" vol="34" />
          <note key="79" pos="768" pan="0" len="768" vol="52" />
        </pattern>
        <pattern pos="141312" muted="0" steps="16" name="" type="1">
          <note key="63" pos="0" pan="0" len="624" vol="100" />
          <note key="70" pos="624" pan="0" len="144" vol="100" />
          <note key="63" pos="768" pan="0" len="576" vol="100" />
          <note key="70" pos="1344" pan="0" len="48" vol="100" />
          <note key="72" pos="1392" pan="0" len="96" vol="100" />
          <note key="67" pos="1488" pan="0" len="48" vol="100" />
        </pattern>
        <pattern pos="142848" muted="0" steps="16" name="" type="1">
          <note key="63" pos="0" pan="0" len="384" vol="100" />
          <note key="63" pos="384" pan="0" len="192" vol="100" />
          <note key="60" pos="576" pan="0" len="192" vol="100" />
          <note key="63" pos="768" pan="0" len="384" vol="100" />
          <note key="63" pos="1152" pan="0" len="192" vol="100" />
          <note key="60" pos="1344" pan="0" len="192" vol="100" />
        </pattern>
        <pattern pos="144384" muted="0" steps="16" name="" type="1">
          <note key="63" pos="0" pan="0" len="384" vol="100" />
          <note key="63" pos="384" pan="0" len="192" vol="100" />
          <note key="60" pos="576" pan="0" len="192" vol="100" />
          <note key="63" pos="768" pan="0" len="384" vol="100" />
          <note key="63" pos="1152" pan="0" len="192" vol="100" />
          <note key="60" pos="1344" pan="0" len="192" vol="100" />
        </pattern>
        <pattern pos="145920" muted="0" steps="16" name="" type="1">
          <note key="63" pos="0" pan="0" len="384" vol="100" />
          <note key="58" pos="384" pan="0" len="384" vol="100" />
          <note key="63" pos="768" pan="0" len="384" vol="100" />
          <note key="58" pos="1152" pan="0" len="384" vol="100" />
        </pattern>
        <pattern pos="147456" muted="0" steps="16" name="" type="1">
          <note key="63" pos="0" pan="0" len="384" vol="100" />
          <note key="58" pos="384" pan="0" len="384" vol="100" />
          <note key="63" pos="768" pan="0" len="384" vol="100" />
          <note key="58" pos="1152" pan="0" len="192" vol="100" />
          <note key="82" pos="1344" pan="0" len="96" vol="100" />
          <note key="67" pos="1440" pan="0" len="96" vol="100" />
        </pattern>
        <pattern pos="148992" muted="0" steps="16" name="" type="1">
          <note key="63" pos="0" pan="0" len="384" vol="100" />
          <note key="63" pos="384" pan="0" len="192" vol="100" />
          <note key="60" pos="576" pan="0" len="192" vol="100" />
          <note key="63" pos="768" pan="0" len="384" vol="100" />
          <note key="63" pos="1152" pan="0" len="192" vol="100" />
          <note key="60" pos="1344" pan="0" len="192" vol="100" />
        </pattern>
        <pattern pos="150528" muted="0" steps="16" name="" type="1">
          <note key="63" pos="0" pan="0" len="384" vol="100" />
          <note key="63" pos="384" pan="0" len="192" vol="100" />
          <note key="60" pos="576" pan="0" len="192" vol="100" />
          <note key="63" pos="768" pan="0" len="384" vol="100" />
          <note key="63" pos="1152" pan="0" len="192" vol="100" />
          <note key="60" pos="1344" pan="0" len="192" vol="100" />
        </pattern>
        <pattern pos="152064" muted="0" steps="16" name="" type="1">
          <note key="65" pos="0" pan="0" len="192" vol="100" />
          <note key="67" pos="192" pan="0" len="192" vol="100" />
          <note key="65" pos="384" pan="0" len="192" vol="100" />
          <note key="65" pos="576" pan="0" len="96" vol="100" />
          <note key="65" pos="672" pan="0" len="48" vol="100" />
          <note key="67" pos="720" pan="0" len="48" vol="100" />
          <note key="67" pos="768" pan="0" len="192" vol="100" />
          <note key="65" pos="960" pan="0" len="192" vol="100" />
          <note key="69" pos="1152" pan="0" len="192" vol="100" />
          <note key="65" pos="1344" pan="0" len="192" vol="100" />
        </pattern>
        <pattern pos="153600" muted="0" steps="16" name="" type="1">
          <note key="67" pos="0" pan="0" len="192" vol="100" />
          <note key="65" pos="192" pan="0" len="192" vol="100" />
          <note key="65" pos="384" pan="0" len="192" vol="100" />
          <note key="65" pos="576" pan="0" len="48" vol="100" />
          <note key="65" pos="624" pan="0" len="96" vol="100" />
          <note key="67" pos="720" pan="0" len="48" vol="100" />
          <note key="67" pos="768" pan="0" len="192" vol="100" />
          <note key="65" pos="960" pan="0" len="192" vol="100" />
          <note key="65" pos="1152" pan="0" len="384" vol="100" />
        </pattern>
        <pattern pos="155136" muted="0" steps="16" name="" type="1">
          <note key="63" pos="0" pan="0" len="384" vol="100" />
          <note key="63" pos="384" pan="0" len="192" vol="100" />
          <note key="60" pos="576" pan="0" len="192" vol="100" />
          <note key="63" pos="768" pan="0" len="384" vol="100" />
          <note key="63" pos="1152" pan="0" len="192" vol="100" />
          <note key="60" pos="1344" pan="0" len="192" vol="100" />
        </pattern>
        <pattern pos="156672" muted="0" steps="16" name="" type="1">
          <note key="63" pos="0" pan="0" len="384" vol="100" />
          <note key="63" pos="384" pan="0" len="192" vol="100" />
          <note key="60" pos="576" pan="0" len="192" vol="100" />
          <note key="63" pos="768" pan="0" len="384" vol="100" />
          <note key="63" pos="1152" pan="0" len="192" vol="100" />
          <note key="60" pos="1344" pan="0" len="192" vol="100" />
        </pattern>
        <pattern pos="158208" muted="0" steps="16" name="" type="1">
          <note key="63" pos="0" pan="0" len="384" vol="100" />
          <note key="58" pos="384" pan="0" len="384" vol="100" />
          <note key="63" pos="768" pan="0" len="384" vol="100" />
          <note key="58" pos="1152" pan="0" len="384" vol="100" />
        </pattern>
        <pattern pos="159744" muted="0" steps="16" name="" type="1">
          <note key="63" pos="0" pan="0" len="384" vol="100" />
          <note key="58" pos="384" pan="0" len="384" vol="100" />
          <note key="63" pos="768" pan="0" len="384" vol="100" />
          <note key="58" pos="1152" pan="0" len="192" vol="100" />
          <note key="82" pos="1344" pan="0" len="96" vol="100" />
          <note key="67" pos="1440" pan="0" len="96" vol="100" />
        </pattern>
        <pattern pos="161280" muted="0" steps="16" name="" type="1">
          <note key="63" pos="0" pan="0" len="768" vol="100" />
          <note key="63" pos="768" pan="0" len="768" vol="50" />
        </pattern>
        <pattern pos="165888" muted="0" steps="16" name="" type="1">
          <note key="87" pos="672" pan="0" len="12" vol="100" />
          <note key="99" pos="684" pan="0" len="36" vol="100" />
          <note key="86" pos="720" pan="0" len="12" vol="100" />
          <note key="98" pos="732" pan="0" len="36" vol="100" />
        </pattern>
        <pattern pos="167424" muted="0" steps="16" name="" type="1">
          <note key="87" pos="672" pan="0" len="12" vol="100" />
          <note key="99" pos="684" pan="0" len="36" vol="100" />
          <note key="86" pos="720" pan="0" len="12" vol="100" />
          <note key="98" pos="732" pan="0" len="36" vol="100" />
        </pattern>
        <pattern pos="172032" muted="0" steps="16" name="" type="1">
          <note key="87" pos="672" pan="0" len="12" vol="100" />
          <note key="99" pos="684" pan="0" len="36" vol="100" />
          <note key="86" pos="720" pan="0" len="12" vol="100" />
          <note key="98" pos="732" pan="0" len="36" vol="100" />
        </pattern>
        <pattern pos="173568" muted="0" steps="16" name="" type="1">
          <note key="87" pos="672" pan="0" len="12" vol="100" />
          <note key="99" pos="684" pan="0" len="36" vol="100" />
          <note key="86" pos="720" pan="0" len="12" vol="100" />
          <note key="98" pos="732" pan="0" len="36" vol="100" />
        </pattern>
        <pattern pos="188928" muted="0" steps="16" name="" type="1">
          <note key="103" pos="960" pan="0" len="12" vol="17" />
          <note key="102" pos="972" pan="0" len="12" vol="16" />
          <note key="101" pos="984" pan="0" len="12" vol="16" />
          <note key="100" pos="996" pan="0" len="12" vol="14" />
          <note key="99" pos="1008" pan="0" len="12" vol="12" />
          <note key="98" pos="1020" pan="0" len="12" vol="11" />
          <note key="97" pos="1032" pan="0" len="12" vol="11" />
          <note key="96" pos="1044" pan="0" len="12" vol="9" />
          <note key="95" pos="1056" pan="0" len="12" vol="8" />
        </pattern>
        <pattern pos="193536" muted="0" steps="16" name="" type="1">
          <note key="103" pos="960" pan="0" len="12" vol="17" />
          <note key="102" pos="972" pan="0" len="12" vol="16" />
          <note key="101" pos="984" pan="0" len="12" vol="16" />
          <note key="100" pos="996" pan="0" len="12" vol="14" />
          <note key="99" pos="1008" pan="0" len="12" vol="12" />
          <note key="98" pos="1020" pan="0" len="12" vol="11" />
          <note key="97" pos="1032" pan="0" len="12" vol="11" />
          <note key="96" pos="1044" pan="0" len="12" vol="9" />
          <note key="95" pos="1056" pan="0" len="12" vol="8" />
        </pattern>
      </track>
      <track solo="0" name="18 (Ch9)" type="0" muted="0">
        <instrumenttrack usemasterpitch="1" pitch="0.0" basenote="57" pan="0" pitchrange="12" vol="30">
          <eldata />
          <instrument name="tripleoscillator" />
        </instrumenttrack>
        <pattern pos="258432" muted="0" steps="16" name="" type="1">
          <note key="84" pos="0" pan="0" len="12" vol="34" />
          <note key="87" pos="12" pan="0" len="12" vol="34" />
          <note key="89" pos="24" pan="0" len="24" vol="34" />
        </pattern>
        <pattern pos="3840" muted="0" steps="16" name="" type="1">
          <note key="84" pos="0" pan="0" len="456" vol="100" />
          <note key="79" pos="456" pan="0" len="24" vol="100" />
          <note key="83" pos="480" pan="0" len="24" vol="100" />
          <note key="84" pos="504" pan="0" len="72" vol="100" />
          <note key="82" pos="576" pan="0" len="168" vol="100" />
          <note key="84" pos="744" pan="0" len="12" vol="100" />
          <note key="83" pos="756" pan="0" len="12" vol="100" />
          <note key="84" pos="768" pan="0" len="456" vol="100" />
          <note key="79" pos="1224" pan="0" len="24" vol="100" />
          <note key="83" pos="1248" pan="0" len="24" vol="100" />
          <note key="84" pos="1272" pan="0" len="72" vol="100" />
          <note key="82" pos="1344" pan="0" len="168" vol="100" />
          <note key="84" pos="1512" pan="0" len="12" vol="100" />
          <note key="83" pos="1524" pan="0" len="12" vol="100" />
        </pattern>
        <pattern pos="86016" muted="0" steps="16" name="" type="1">
          <note key="72" pos="0" pan="0" len="156" vol="100" />
          <note key="75" pos="156" pan="0" len="36" vol="100" />
          <note key="70" pos="192" pan="0" len="96" vol="100" />
          <note key="75" pos="288" pan="0" len="96" vol="100" />
          <note key="69" pos="384" pan="0" len="144" vol="100" />
          <note key="75" pos="528" pan="0" len="48" vol="100" />
          <note key="70" pos="576" pan="0" len="72" vol="100" />
          <note key="69" pos="648" pan="0" len="72" vol="100" />
          <note key="70" pos="720" pan="0" len="48" vol="100" />
        </pattern>
        <pattern pos="86784" muted="0" steps="16" name="" type="1">
          <note key="72" pos="0" pan="0" len="156" vol="100" />
          <note key="75" pos="156" pan="0" len="36" vol="100" />
          <note key="70" pos="192" pan="0" len="96" vol="100" />
          <note key="75" pos="288" pan="0" len="96" vol="100" />
          <note key="69" pos="384" pan="0" len="384" vol="100" />
        </pattern>
        <pattern pos="87552" muted="0" steps="16" name="" type="1">
          <note key="72" pos="0" pan="0" len="156" vol="100" />
          <note key="74" pos="156" pan="0" len="36" vol="100" />
          <note key="75" pos="192" pan="0" len="96" vol="100" />
          <note key="79" pos="288" pan="0" len="96" vol="100" />
          <note key="77" pos="384" pan="0" len="144" vol="100" />
          <note key="74" pos="528" pan="0" len="48" vol="100" />
          <note key="77" pos="576" pan="0" len="192" vol="100" />
        </pattern>
        <pattern pos="88320" muted="0" steps="16" name="" type="1">
          <note key="72" pos="0" pan="0" len="156" vol="100" />
          <note key="75" pos="156" pan="0" len="36" vol="100" />
          <note key="70" pos="192" pan="0" len="96" vol="100" />
          <note key="75" pos="288" pan="0" len="96" vol="100" />
          <note key="69" pos="384" pan="0" len="384" vol="100" />
        </pattern>
        <pattern pos="141312" muted="0" steps="16" name="" type="1">
          <note key="67" pos="0" pan="0" len="768" vol="100" />
          <note key="67" pos="768" pan="0" len="720" vol="100" />
          <note key="82" pos="1488" pan="0" len="48" vol="100" />
        </pattern>
        <pattern pos="142848" muted="0" steps="16" name="" type="1">
          <note key="67" pos="0" pan="0" len="384" vol="100" />
          <note key="67" pos="384" pan="0" len="192" vol="100" />
          <note key="65" pos="576" pan="0" len="192" vol="100" />
          <note key="67" pos="768" pan="0" len="384" vol="100" />
          <note key="67" pos="1152" pan="0" len="192" vol="100" />
          <note key="65" pos="1344" pan="0" len="192" vol="100" />
        </pattern>
        <pattern pos="144384" muted="0" steps="16" name="" type="1">
          <note key="67" pos="0" pan="0" len="384" vol="100" />
          <note key="67" pos="384" pan="0" len="192" vol="100" />
          <note key="65" pos="576" pan="0" len="192" vol="100" />
          <note key="67" pos="768" pan="0" len="384" vol="100" />
          <note key="67" pos="1152" pan="0" len="192" vol="100" />
          <note key="65" pos="1344" pan="0" len="192" vol="100" />
        </pattern>
        <pattern pos="145920" muted="0" steps="16" name="" type="1">
          <note key="67" pos="0" pan="0" len="288" vol="100" />
          <note key="70" pos="288" pan="0" len="96" vol="100" />
          <note key="65" pos="384" pan="0" len="288" vol="100" />
          <note key="63" pos="672" pan="0" len="48" vol="100" />
          <note key="65" pos="720" pan="0" len="48" vol="100" />
          <note key="67" pos="768" pan="0" len="384" vol="100" />
          <note key="65" pos="1152" pan="0" len="384" vol="100" />
        </pattern>
        <pattern pos="147456" muted="0" steps="16" name="" type="1">
          <note key="67" pos="0" pan="0" len="288" vol="100" />
          <note key="70" pos="288" pan="0" len="96" vol="100" />
          <note key="65" pos="384" pan="0" len="288" vol="100" />
          <note key="63" pos="672" pan="0" len="48" vol="100" />
          <note key="65" pos="720" pan="0" len="48" vol="100" />
          <note key="67" pos="768" pan="0" len="288" vol="100" />
          <note key="63" pos="1056" pan="0" len="48" vol="100" />
          <note key="60" pos="1104" pan="0" len="48" vol="100" />
          <note key="62" pos="1152" pan="0" len="192" vol="100" />
          <note key="58" pos="1344" pan="0" len="96" vol="100" />
          <note key="62" pos="1440" pan="0" len="96" vol="100" />
        </pattern>
        <pattern pos="148992" muted="0" steps="16" name="" type="1">
          <note key="67" pos="0" pan="0" len="384" vol="100" />
          <note key="67" pos="384" pan="0" len="192" vol="100" />
          <note key="65" pos="576" pan="0" len="192" vol="100" />
          <note key="67" pos="768" pan="0" len="384" vol="100" />
          <note key="67" pos="1152" pan="0" len="192" vol="100" />
          <note key="65" pos="1344" pan="0" len="192" vol="100" />
        </pattern>
        <pattern pos="150528" muted="0" steps="16" name="" type="1">
          <note key="67" pos="0" pan="0" len="384" vol="100" />
          <note key="67" pos="384" pan="0" len="192" vol="100" />
          <note key="65" pos="576" pan="0" len="192" vol="100" />
          <note key="67" pos="768" pan="0" len="384" vol="100" />
          <note key="67" pos="1152" pan="0" len="192" vol="100" />
          <note key="65" pos="1344" pan="0" len="192" vol="100" />
        </pattern>
        <pattern pos="152064" muted="0" steps="16" name="" type="1">
          <note key="69" pos="0" pan="0" len="192" vol="100" />
          <note key="70" pos="192" pan="0" len="192" vol="100" />
          <note key="69" pos="384" pan="0" len="192" vol="100" />
          <note key="67" pos="576" pan="0" len="192" vol="100" />
          <note key="70" pos="768" pan="0" len="192" vol="100" />
          <note key="72" pos="960" pan="0" len="192" vol="100" />
          <note key="72" pos="1152" pan="0" len="192" vol="100" />
          <note key="69" pos="1344" pan="0" len="48" vol="100" />
          <note key="65" pos="1392" pan="0" len="96" vol="100" />
          <note key="67" pos="1488" pan="0" len="48" vol="100" />
        </pattern>
        <pattern pos="153600" muted="0" steps="16" name="" type="1">
          <note key="70" pos="0" pan="0" len="192" vol="100" />
          <note key="70" pos="192" pan="0" len="192" vol="100" />
          <note key="69" pos="384" pan="0" len="192" vol="100" />
          <note key="67" pos="576" pan="0" len="192" vol="100" />
          <note key="70" pos="768" pan="0" len="192" vol="100" />
          <note key="72" pos="960" pan="0" len="192" vol="100" />
          <note key="69" pos="1152" pan="0" len="384" vol="100" />
        </pattern>
        <pattern pos="155136" muted="0" steps="16" name="" type="1">
          <note key="67" pos="0" pan="0" len="384" vol="100" />
          <note key="67" pos="384" pan="0" len="192" vol="100" />
          <note key="65" pos="576" pan="0" len="192" vol="100" />
          <note key="67" pos="768" pan="0" len="384" vol="100" />
          <note key="67" pos="1152" pan="0" len="192" vol="100" />
          <note key="65" pos="1344" pan="0" len="192" vol="100" />
        </pattern>
        <pattern pos="156672" muted="0" steps="16" name="" type="1">
          <note key="67" pos="0" pan="0" len="384" vol="100" />
          <note key="67" pos="384" pan="0" len="192" vol="100" />
          <note key="65" pos="576" pan="0" len="192" vol="100" />
          <note key="67" pos="768" pan="0" len="384" vol="100" />
          <note key="67" pos="1152" pan="0" len="192" vol="100" />
          <note key="65" pos="1344" pan="0" len="192" vol="100" />
        </pattern>
        <pattern pos="158208" muted="0" steps="16" name="" type="1">
          <note key="67" pos="0" pan="0" len="288" vol="100" />
          <note key="70" pos="288" pan="0" len="96" vol="100" />
          <note key="65" pos="384" pan="0" len="288" vol="100" />
          <note key="63" pos="672" pan="0" len="48" vol="100" />
          <note key="65" pos="720" pan="0" len="48" vol="100" />
          <note key="67" pos="768" pan="0" len="384" vol="100" />
          <note key="65" pos="1152" pan="0" len="384" vol="100" />
        </pattern>
        <pattern pos="159744" muted="0" steps="16" name="" type="1">
          <note key="67" pos="0" pan="0" len="288" vol="100" />
          <note key="70" pos="288" pan="0" len="96" vol="100" />
          <note key="65" pos="384" pan="0" len="288" vol="100" />
          <note key="63" pos="672" pan="0" len="48" vol="100" />
          <note key="65" pos="720" pan="0" len="48" vol="100" />
          <note key="67" pos="768" pan="0" len="288" vol="100" />
          <note key="63" pos="1056" pan="0" len="48" vol="100" />
          <note key="60" pos="1104" pan="0" len="48" vol="100" />
          <note key="62" pos="1152" pan="0" len="192" vol="100" />
          <note key="58" pos="1344" pan="0" len="96" vol="100" />
          <note key="62" pos="1440" pan="0" len="96" vol="100" />
        </pattern>
        <pattern pos="161280" muted="0" steps="16" name="" type="1">
          <note key="67" pos="0" pan="0" len="768" vol="100" />
          <note key="67" pos="768" pan="0" len="768" vol="50" />
        </pattern>
        <pattern pos="198144" muted="0" steps="16" name="" type="1">
          <note key="71" pos="1524" pan="0" len="12" vol="100" />
        </pattern>
        <pattern pos="199680" muted="0" steps="16" name="" type="1">
          <note key="76" pos="0" pan="0" len="120" vol="100" />
          <note key="71" pos="120" pan="0" len="24" vol="100" />
          <note key="76" pos="144" pan="0" len="24" vol="100" />
          <note key="74" pos="168" pan="0" len="48" vol="100" />
          <note key="72" pos="216" pan="0" len="48" vol="100" />
          <note key="71" pos="264" pan="0" len="48" vol="100" />
          <note key="69" pos="312" pan="0" len="72" vol="100" />
          <note key="68" pos="384" pan="0" len="24" vol="100" />
          <note key="69" pos="408" pan="0" len="24" vol="100" />
          <note key="71" pos="432" pan="0" len="96" vol="100" />
          <note key="64" pos="528" pan="0" len="48" vol="100" />
          <note key="65" pos="576" pan="0" len="72" vol="100" />
          <note key="69" pos="648" pan="0" len="72" vol="100" />
          <note key="72" pos="720" pan="0" len="48" vol="100" />
          <note key="76" pos="768" pan="0" len="120" vol="100" />
          <note key="71" pos="888" pan="0" len="24" vol="100" />
          <note key="76" pos="912" pan="0" len="24" vol="100" />
          <note key="77" pos="936" pan="0" len="48" vol="100" />
          <note key="74" pos="984" pan="0" len="48" vol="100" />
          <note key="72" pos="1032" pan="0" len="48" vol="100" />
          <note key="71" pos="1080" pan="0" len="48" vol="100" />
          <note key="76" pos="1128" pan="0" len="168" vol="100" />
          <note key="64" pos="1296" pan="0" len="48" vol="100" />
          <note key="65" pos="1344" pan="0" len="72" vol="100" />
          <note key="62" pos="1416" pan="0" len="72" vol="100" />
          <note key="69" pos="1488" pan="0" len="48" vol="100" />
        </pattern>
        <pattern pos="201216" muted="0" steps="16" name="" type="1">
          <note key="76" pos="0" pan="0" len="480" vol="34" />
          <note key="72" pos="480" pan="0" len="384" vol="34" />
          <note key="76" pos="864" pan="0" len="480" vol="34" />
          <note key="78" pos="1344" pan="0" len="48" vol="34" />
          <note key="76" pos="1392" pan="0" len="144" vol="34" />
        </pattern>
        <pattern pos="202752" muted="0" steps="16" name="" type="1">
          <note key="76" pos="96" pan="0" len="384" vol="34" />
          <note key="72" pos="480" pan="0" len="384" vol="34" />
          <note key="76" pos="864" pan="0" len="480" vol="34" />
          <note key="78" pos="1344" pan="0" len="48" vol="34" />
          <note key="76" pos="1392" pan="0" len="96" vol="34" />
          <note key="76" pos="1488" pan="0" len="48" vol="100" />
        </pattern>
        <pattern pos="204288" muted="0" steps="16" name="" type="1">
          <note key="78" pos="0" pan="0" len="48" vol="100" />
          <note key="76" pos="48" pan="0" len="96" vol="100" />
          <note key="71" pos="144" pan="0" len="96" vol="100" />
          <note key="69" pos="240" pan="0" len="144" vol="100" />
          <note key="83" pos="384" pan="0" len="96" vol="100" />
          <note key="81" pos="480" pan="0" len="48" vol="100" />
          <note key="76" pos="528" pan="0" len="96" vol="100" />
          <note key="81" pos="624" pan="0" len="144" vol="100" />
          <note key="80" pos="768" pan="0" len="360" vol="100" />
          <note key="80" pos="1128" pan="0" len="12" vol="100" />
          <note key="83" pos="1140" pan="0" len="12" vol="100" />
          <note key="88" pos="1152" pan="0" len="144" vol="100" />
          <note key="76" pos="1296" pan="0" len="12" vol="100" />
          <note key="64" pos="1308" pan="0" len="180" vol="100" />
          <note key="76" pos="1488" pan="0" len="48" vol="100" />
        </pattern>
        <pattern pos="205824" muted="0" steps="16" name="" type="1">
          <note key="78" pos="0" pan="0" len="48" vol="100" />
          <note key="76" pos="48" pan="0" len="96" vol="100" />
          <note key="71" pos="144" pan="0" len="96" vol="100" />
          <note key="69" pos="240" pan="0" len="144" vol="100" />
          <note key="83" pos="384" pan="0" len="96" vol="100" />
          <note key="81" pos="480" pan="0" len="48" vol="100" />
          <note key="76" pos="528" pan="0" len="96" vol="100" />
          <note key="81" pos="624" pan="0" len="144" vol="100" />
          <note key="80" pos="768" pan="0" len="372" vol="100" />
          <note key="76" pos="1140" pan="0" len="12" vol="100" />
          <note key="64" pos="1152" pan="0" len="336" vol="100" />
          <note key="76" pos="1488" pan="0" len="48" vol="34" />
        </pattern>
        <pattern pos="207360" muted="0" steps="16" name="" type="1">
          <note key="76" pos="0" pan="0" len="480" vol="34" />
          <note key="72" pos="480" pan="0" len="384" vol="34" />
          <note key="76" pos="864" pan="0" len="480" vol="34" />
          <note key="78" pos="1344" pan="0" len="48" vol="34" />
          <note key="76" pos="1392" pan="0" len="144" vol="34" />
        </pattern>
        <pattern pos="208896" muted="0" steps="16" name="" type="1">
          <note key="76" pos="96" pan="0" len="384" vol="34" />
          <note key="72" pos="480" pan="0" len="384" vol="34" />
          <note key="76" pos="864" pan="0" len="480" vol="34" />
          <note key="78" pos="1344" pan="0" len="48" vol="34" />
          <note key="76" pos="1392" pan="0" len="96" vol="34" />
          <note key="76" pos="1488" pan="0" len="48" vol="100" />
        </pattern>
        <pattern pos="210432" muted="0" steps="16" name="" type="1">
          <note key="78" pos="0" pan="0" len="48" vol="100" />
          <note key="76" pos="48" pan="0" len="96" vol="100" />
          <note key="71" pos="144" pan="0" len="96" vol="100" />
          <note key="69" pos="240" pan="0" len="144" vol="100" />
          <note key="83" pos="384" pan="0" len="96" vol="100" />
          <note key="81" pos="480" pan="0" len="48" vol="100" />
          <note key="76" pos="528" pan="0" len="96" vol="100" />
          <note key="81" pos="624" pan="0" len="144" vol="100" />
          <note key="80" pos="768" pan="0" len="360" vol="100" />
          <note key="80" pos="1128" pan="0" len="12" vol="100" />
          <note key="83" pos="1140" pan="0" len="12" vol="100" />
          <note key="88" pos="1152" pan="0" len="144" vol="100" />
          <note key="76" pos="1296" pan="0" len="12" vol="100" />
          <note key="64" pos="1308" pan="0" len="180" vol="100" />
          <note key="76" pos="1488" pan="0" len="48" vol="100" />
        </pattern>
        <pattern pos="211968" muted="0" steps="16" name="" type="1">
          <note key="78" pos="0" pan="0" len="48" vol="100" />
          <note key="76" pos="48" pan="0" len="96" vol="100" />
          <note key="71" pos="144" pan="0" len="96" vol="100" />
          <note key="69" pos="240" pan="0" len="144" vol="100" />
          <note key="83" pos="384" pan="0" len="96" vol="100" />
          <note key="81" pos="480" pan="0" len="48" vol="100" />
          <note key="76" pos="528" pan="0" len="96" vol="100" />
          <note key="81" pos="624" pan="0" len="144" vol="100" />
          <note key="80" pos="768" pan="0" len="372" vol="100" />
          <note key="76" pos="1140" pan="0" len="12" vol="100" />
          <note key="64" pos="1152" pan="0" len="336" vol="100" />
          <note key="76" pos="1488" pan="0" len="48" vol="34" />
        </pattern>
        <pattern pos="213504" muted="0" steps="16" name="" type="1">
          <note key="73" pos="0" pan="0" len="72" vol="100" />
          <note key="78" pos="72" pan="0" len="48" vol="100" />
          <note key="73" pos="120" pan="0" len="48" vol="100" />
          <note key="74" pos="168" pan="0" len="96" vol="100" />
          <note key="78" pos="264" pan="0" len="48" vol="100" />
          <note key="74" pos="312" pan="0" len="72" vol="100" />
          <note key="73" pos="384" pan="0" len="72" vol="100" />
          <note key="78" pos="456" pan="0" len="48" vol="100" />
          <note key="73" pos="504" pan="0" len="72" vol="100" />
          <note key="74" pos="576" pan="0" len="72" vol="100" />
          <note key="71" pos="648" pan="0" len="120" vol="100" />
          <note key="73" pos="768" pan="0" len="72" vol="100" />
          <note key="78" pos="840" pan="0" len="48" vol="100" />
          <note key="73" pos="888" pan="0" len="48" vol="100" />
          <note key="74" pos="936" pan="0" len="48" vol="100" />
          <note key="81" pos="984" pan="0" len="24" vol="100" />
          <note key="80" pos="1008" pan="0" len="48" vol="100" />
          <note key="78" pos="1056" pan="0" len="48" vol="100" />
          <note key="74" pos="1104" pan="0" len="48" vol="100" />
          <note key="73" pos="1152" pan="0" len="72" vol="100" />
          <note key="70" pos="1224" pan="0" len="48" vol="100" />
          <note key="66" pos="1272" pan="0" len="72" vol="100" />
          <note key="71" pos="1344" pan="0" len="72" vol="100" />
          <note key="66" pos="1416" pan="0" len="72" vol="100" />
          <note key="61" pos="1488" pan="0" len="48" vol="100" />
        </pattern>
        <pattern pos="215040" muted="0" steps="16" name="" type="1">
          <note key="66" pos="0" pan="0" len="192" vol="100" />
        </pattern>
        <pattern pos="236928" muted="0" steps="16" name="" type="1">
          <note key="86" pos="0" pan="0" len="96" vol="52" />
          <note key="93" pos="96" pan="0" len="48" vol="52" />
          <note key="89" pos="144" pan="0" len="96" vol="52" />
          <note key="91" pos="240" pan="0" len="48" vol="52" />
          <note key="86" pos="288" pan="0" len="96" vol="52" />
          <note key="84" pos="384" pan="0" len="24" vol="52" />
          <note key="86" pos="408" pan="0" len="24" vol="52" />
          <note key="89" pos="432" pan="0" len="96" vol="52" />
        </pattern>
        <pattern pos="237696" muted="0" steps="16" name="" type="1">
          <note key="87" pos="0" pan="0" len="12" vol="34" />
          <note key="90" pos="12" pan="0" len="12" vol="34" />
          <note key="92" pos="24" pan="0" len="24" vol="34" />
        </pattern>
      </track>
      <track solo="0" name="18 (Ch10)" type="0" muted="0">
        <instrumenttrack usemasterpitch="1" pitch="0.0" basenote="57" pan="0" pitchrange="12" vol="30">
          <eldata />
          <instrument name="tripleoscillator" />
        </instrumenttrack>
        <pattern pos="237696" muted="0" steps="16" name="" type="1">
          <note key="87" pos="48" pan="0" len="12" vol="69" />
          <note key="90" pos="60" pan="0" len="12" vol="69" />
          <note key="92" pos="72" pan="0" len="12" vol="69" />
          <note key="95" pos="84" pan="0" len="12" vol="69" />
          <note key="97" pos="96" pan="0" len="12" vol="69" />
          <note key="99" pos="108" pan="0" len="12" vol="69" />
          <note key="102" pos="120" pan="0" len="12" vol="69" />
          <note key="104" pos="132" pan="0" len="636" vol="69" />
        </pattern>
        <pattern pos="139776" muted="0" steps="16" name="" type="1">
          <note key="72" pos="0" pan="0" len="24" vol="100" />
          <note key="77" pos="24" pan="0" len="24" vol="100" />
          <note key="79" pos="48" pan="0" len="24" vol="100" />
          <note key="72" pos="192" pan="0" len="24" vol="100" />
          <note key="79" pos="216" pan="0" len="24" vol="100" />
          <note key="77" pos="240" pan="0" len="24" vol="100" />
          <note key="75" pos="384" pan="0" len="24" vol="100" />
          <note key="77" pos="408" pan="0" len="24" vol="100" />
          <note key="79" pos="432" pan="0" len="24" vol="100" />
          <note key="82" pos="576" pan="0" len="24" vol="100" />
          <note key="84" pos="600" pan="0" len="24" vol="100" />
          <note key="81" pos="624" pan="0" len="36" vol="100" />
          <note key="77" pos="720" pan="0" len="12" vol="100" />
          <note key="77" pos="768" pan="0" len="768" vol="2" />
        </pattern>
        <pattern pos="145920" muted="0" steps="16" name="" type="1">
          <note key="79" pos="0" pan="0" len="384" vol="100" />
          <note key="77" pos="384" pan="0" len="384" vol="100" />
          <note key="91" pos="768" pan="0" len="288" vol="100" />
          <note key="82" pos="1056" pan="0" len="48" vol="100" />
          <note key="84" pos="1104" pan="0" len="48" vol="100" />
          <note key="77" pos="1152" pan="0" len="336" vol="100" />
          <note key="77" pos="1488" pan="0" len="48" vol="100" />
        </pattern>
        <pattern pos="147456" muted="0" steps="16" name="" type="1">
          <note key="79" pos="0" pan="0" len="288" vol="100" />
          <note key="82" pos="288" pan="0" len="96" vol="100" />
          <note key="77" pos="384" pan="0" len="288" vol="100" />
          <note key="75" pos="672" pan="0" len="48" vol="100" />
          <note key="77" pos="720" pan="0" len="48" vol="100" />
          <note key="91" pos="768" pan="0" len="288" vol="100" />
          <note key="87" pos="1056" pan="0" len="48" vol="100" />
          <note key="84" pos="1104" pan="0" len="48" vol="100" />
          <note key="74" pos="1152" pan="0" len="192" vol="100" />
          <note key="82" pos="1344" pan="0" len="96" vol="100" />
          <note key="79" pos="1440" pan="0" len="96" vol="100" />
        </pattern>
        <pattern pos="152064" muted="0" steps="16" name="" type="1">
          <note key="81" pos="0" pan="0" len="192" vol="100" />
          <note key="82" pos="192" pan="0" len="192" vol="100" />
          <note key="81" pos="384" pan="0" len="192" vol="100" />
          <note key="79" pos="576" pan="0" len="96" vol="100" />
          <note key="77" pos="672" pan="0" len="48" vol="100" />
          <note key="79" pos="720" pan="0" len="48" vol="100" />
          <note key="82" pos="768" pan="0" len="192" vol="100" />
          <note key="84" pos="960" pan="0" len="192" vol="100" />
          <note key="84" pos="1152" pan="0" len="192" vol="100" />
          <note key="81" pos="1344" pan="0" len="48" vol="100" />
          <note key="77" pos="1392" pan="0" len="96" vol="100" />
          <note key="79" pos="1488" pan="0" len="48" vol="100" />
        </pattern>
        <pattern pos="153600" muted="0" steps="16" name="" type="1">
          <note key="82" pos="0" pan="0" len="192" vol="100" />
          <note key="87" pos="192" pan="0" len="192" vol="100" />
          <note key="81" pos="384" pan="0" len="192" vol="100" />
          <note key="79" pos="576" pan="0" len="48" vol="100" />
          <note key="77" pos="624" pan="0" len="96" vol="100" />
          <note key="79" pos="720" pan="0" len="48" vol="100" />
          <note key="82" pos="768" pan="0" len="192" vol="100" />
          <note key="84" pos="960" pan="0" len="192" vol="100" />
          <note key="81" pos="1152" pan="0" len="384" vol="100" />
        </pattern>
        <pattern pos="158208" muted="0" steps="16" name="" type="1">
          <note key="79" pos="0" pan="0" len="384" vol="100" />
          <note key="77" pos="384" pan="0" len="384" vol="100" />
          <note key="91" pos="768" pan="0" len="288" vol="100" />
          <note key="82" pos="1056" pan="0" len="48" vol="100" />
          <note key="84" pos="1104" pan="0" len="48" vol="100" />
          <note key="77" pos="1152" pan="0" len="336" vol="100" />
          <note key="77" pos="1488" pan="0" len="48" vol="100" />
        </pattern>
        <pattern pos="159744" muted="0" steps="16" name="" type="1">
          <note key="79" pos="0" pan="0" len="288" vol="100" />
          <note key="82" pos="288" pan="0" len="96" vol="100" />
          <note key="77" pos="384" pan="0" len="288" vol="100" />
          <note key="75" pos="672" pan="0" len="48" vol="100" />
          <note key="77" pos="720" pan="0" len="48" vol="100" />
          <note key="91" pos="768" pan="0" len="288" vol="100" />
          <note key="87" pos="1056" pan="0" len="48" vol="100" />
          <note key="84" pos="1104" pan="0" len="48" vol="100" />
          <note key="74" pos="1152" pan="0" len="192" vol="100" />
          <note key="82" pos="1344" pan="0" len="96" vol="100" />
          <note key="79" pos="1440" pan="0" len="96" vol="100" />
        </pattern>
      </track>
      <track solo="0" name="18 (Ch11)" type="0" muted="0">
        <instrumenttrack usemasterpitch="1" pitch="0.0" basenote="57" pan="0" pitchrange="12" vol="30">
          <eldata />
          <instrument name="tripleoscillator" />
        </instrumenttrack>
        <pattern pos="259200" muted="0" steps="16" name="" type="1">
          <note key="65" pos="48" pan="0" len="24" vol="100" />
          <note key="67" pos="72" pan="0" len="24" vol="100" />
          <note key="68" pos="96" pan="0" len="24" vol="100" />
          <note key="70" pos="120" pan="0" len="24" vol="100" />
          <note key="72" pos="144" pan="0" len="24" vol="100" />
          <note key="75" pos="168" pan="0" len="24" vol="100" />
          <note key="70" pos="192" pan="0" len="72" vol="100" />
          <note key="75" pos="264" pan="0" len="24" vol="100" />
          <note key="74" pos="288" pan="0" len="48" vol="100" />
          <note key="68" pos="336" pan="0" len="24" vol="100" />
          <note key="70" pos="360" pan="0" len="24" vol="100" />
          <note key="72" pos="384" pan="0" len="96" vol="100" />
          <note key="75" pos="480" pan="0" len="48" vol="100" />
          <note key="77" pos="528" pan="0" len="48" vol="100" />
          <note key="75" pos="576" pan="0" len="72" vol="100" />
          <note key="77" pos="648" pan="0" len="12" vol="100" />
          <note key="75" pos="660" pan="0" len="12" vol="100" />
          <note key="74" pos="672" pan="0" len="96" vol="100" />
        </pattern>
        <pattern pos="77568" muted="0" steps="16" name="" type="1">
          <note key="63" pos="528" pan="0" len="24" vol="50" />
          <note key="58" pos="552" pan="0" len="12" vol="50" />
          <note key="57" pos="672" pan="0" len="12" vol="50" />
        </pattern>
        <pattern pos="78336" muted="0" steps="16" name="" type="1">
          <note key="67" pos="48" pan="0" len="72" vol="100" />
          <note key="69" pos="120" pan="0" len="72" vol="100" />
          <note key="70" pos="192" pan="0" len="156" vol="100" />
          <note key="72" pos="348" pan="0" len="36" vol="100" />
          <note key="69" pos="384" pan="0" len="120" vol="100" />
          <note key="67" pos="504" pan="0" len="48" vol="100" />
          <note key="65" pos="552" pan="0" len="48" vol="100" />
          <note key="58" pos="600" pan="0" len="48" vol="100" />
          <note key="57" pos="648" pan="0" len="120" vol="100" />
        </pattern>
        <pattern pos="79104" muted="0" steps="16" name="" type="1">
          <note key="67" pos="48" pan="0" len="72" vol="100" />
          <note key="69" pos="120" pan="0" len="72" vol="100" />
          <note key="70" pos="192" pan="0" len="156" vol="100" />
          <note key="72" pos="348" pan="0" len="36" vol="100" />
          <note key="69" pos="384" pan="0" len="144" vol="100" />
        </pattern>
        <pattern pos="80640" muted="0" steps="16" name="" type="1">
          <note key="63" pos="528" pan="0" len="24" vol="50" />
          <note key="58" pos="552" pan="0" len="12" vol="50" />
          <note key="57" pos="672" pan="0" len="12" vol="50" />
        </pattern>
        <pattern pos="141312" muted="0" steps="16" name="" type="1">
          <note key="84" pos="0" pan="0" len="768" vol="34" />
          <note key="84" pos="768" pan="0" len="768" vol="34" />
        </pattern>
        <pattern pos="142848" muted="0" steps="16" name="" type="1">
          <note key="84" pos="0" pan="0" len="384" vol="100" />
          <note key="82" pos="384" pan="0" len="192" vol="100" />
          <note key="81" pos="576" pan="0" len="192" vol="100" />
          <note key="84" pos="768" pan="0" len="384" vol="100" />
          <note key="82" pos="1152" pan="0" len="192" vol="100" />
          <note key="81" pos="1344" pan="0" len="192" vol="100" />
        </pattern>
        <pattern pos="144384" muted="0" steps="16" name="" type="1">
          <note key="84" pos="0" pan="0" len="384" vol="100" />
          <note key="82" pos="384" pan="0" len="192" vol="100" />
          <note key="81" pos="576" pan="0" len="192" vol="100" />
          <note key="84" pos="768" pan="0" len="384" vol="100" />
          <note key="82" pos="1152" pan="0" len="192" vol="100" />
          <note key="81" pos="1344" pan="0" len="192" vol="100" />
        </pattern>
        <pattern pos="148992" muted="0" steps="16" name="" type="1">
          <note key="84" pos="0" pan="0" len="384" vol="100" />
          <note key="82" pos="384" pan="0" len="192" vol="100" />
          <note key="81" pos="576" pan="0" len="192" vol="100" />
          <note key="84" pos="768" pan="0" len="384" vol="100" />
          <note key="82" pos="1152" pan="0" len="192" vol="100" />
          <note key="81" pos="1344" pan="0" len="192" vol="100" />
        </pattern>
        <pattern pos="150528" muted="0" steps="16" name="" type="1">
          <note key="84" pos="0" pan="0" len="384" vol="100" />
          <note key="82" pos="384" pan="0" len="192" vol="100" />
          <note key="81" pos="576" pan="0" len="192" vol="100" />
          <note key="84" pos="768" pan="0" len="384" vol="100" />
          <note key="82" pos="1152" pan="0" len="192" vol="100" />
          <note key="81" pos="1344" pan="0" len="192" vol="100" />
        </pattern>
        <pattern pos="155136" muted="0" steps="16" name="" type="1">
          <note key="84" pos="0" pan="0" len="384" vol="100" />
          <note key="82" pos="384" pan="0" len="192" vol="100" />
          <note key="81" pos="576" pan="0" len="192" vol="100" />
          <note key="84" pos="768" pan="0" len="384" vol="100" />
          <note key="82" pos="1152" pan="0" len="192" vol="100" />
          <note key="81" pos="1344" pan="0" len="192" vol="100" />
        </pattern>
        <pattern pos="156672" muted="0" steps="16" name="" type="1">
          <note key="84" pos="0" pan="0" len="384" vol="100" />
          <note key="82" pos="384" pan="0" len="192" vol="100" />
          <note key="81" pos="576" pan="0" len="192" vol="100" />
          <note key="84" pos="768" pan="0" len="384" vol="100" />
          <note key="82" pos="1152" pan="0" len="192" vol="100" />
          <note key="81" pos="1344" pan="0" len="192" vol="100" />
        </pattern>
        <pattern pos="161280" muted="0" steps="16" name="" type="1">
          <note key="84" pos="0" pan="0" len="768" vol="34" />
          <note key="84" pos="768" pan="0" len="768" vol="17" />
        </pattern>
        <pattern pos="183552" muted="0" steps="16" name="" type="1">
          <note key="76" pos="48" pan="0" len="24" vol="34" />
          <note key="78" pos="72" pan="0" len="24" vol="34" />
          <note key="79" pos="96" pan="0" len="24" vol="34" />
          <note key="81" pos="120" pan="0" len="24" vol="34" />
          <note key="83" pos="144" pan="0" len="192" vol="34" />
          <note key="83" pos="336" pan="0" len="24" vol="34" />
          <note key="81" pos="360" pan="0" len="24" vol="34" />
          <note key="79" pos="384" pan="0" len="24" vol="34" />
          <note key="78" pos="408" pan="0" len="24" vol="34" />
          <note key="76" pos="432" pan="0" len="720" vol="34" />
        </pattern>
      </track>
      <track solo="0" name="18 (Ch12)" type="0" muted="0">
        <instrumenttrack usemasterpitch="1" pitch="0.0" basenote="57" pan="0" pitchrange="12" vol="30">
          <eldata />
          <instrument name="tripleoscillator" />
        </instrumenttrack>
        <pattern pos="141312" muted="0" steps="16" name="" type="1">
          <note key="82" pos="0" pan="0" len="768" vol="100" />
          <note key="82" pos="768" pan="0" len="768" vol="100" />
        </pattern>
        <pattern pos="79104" muted="0" steps="16" name="" type="1">
          <note key="79" pos="48" pan="0" len="72" vol="100" />
          <note key="81" pos="120" pan="0" len="72" vol="100" />
          <note key="82" pos="192" pan="0" len="156" vol="100" />
          <note key="84" pos="348" pan="0" len="36" vol="100" />
          <note key="81" pos="384" pan="0" len="144" vol="100" />
        </pattern>
        <pattern pos="139776" muted="0" steps="16" name="" type="1">
          <note key="70" pos="576" pan="0" len="24" vol="100" />
          <note key="72" pos="600" pan="0" len="24" vol="100" />
          <note key="77" pos="624" pan="0" len="36" vol="100" />
          <note key="69" pos="720" pan="0" len="12" vol="100" />
          <note key="82" pos="768" pan="0" len="768" vol="2" />
        </pattern>
      </track>
      <track solo="0" name="18 (Ch13)" type="0" muted="0">
        <instrumenttrack usemasterpitch="1" pitch="0.0" basenote="57" pan="0" pitchrange="12" vol="30">
          <eldata />
          <instrument name="tripleoscillator" />
        </instrumenttrack>
        <pattern pos="121344" muted="0" steps="16" name="" type="1">
          <note key="72" pos="48" pan="0" len="24" vol="17" />
          <note key="74" pos="72" pan="0" len="24" vol="34" />
          <note key="75" pos="96" pan="0" len="24" vol="52" />
          <note key="77" pos="120" pan="0" len="24" vol="69" />
          <note key="79" pos="144" pan="0" len="24" vol="86" />
          <note key="82" pos="168" pan="0" len="24" vol="100" />
          <note key="84" pos="192" pan="0" len="1344" vol="100" />
        </pattern>
        <pattern pos="14592" muted="0" steps="16" name="" type="1">
          <note key="72" pos="0" pan="0" len="48" vol="100" />
          <note key="65" pos="240" pan="0" len="12" vol="100" />
          <note key="67" pos="288" pan="0" len="12" vol="100" />
          <note key="72" pos="336" pan="0" len="12" vol="100" />
          <note key="70" pos="384" pan="0" len="12" vol="100" />
          <note key="69" pos="456" pan="0" len="12" vol="100" />
          <note key="65" pos="480" pan="0" len="12" vol="100" />
          <note key="65" pos="720" pan="0" len="12" vol="100" />
          <note key="67" pos="744" pan="0" len="12" vol="100" />
          <note key="72" pos="768" pan="0" len="12" vol="100" />
          <note key="65" pos="1008" pan="0" len="12" vol="100" />
          <note key="67" pos="1056" pan="0" len="12" vol="100" />
          <note key="72" pos="1104" pan="0" len="12" vol="100" />
          <note key="74" pos="1152" pan="0" len="12" vol="100" />
          <note key="70" pos="1224" pan="0" len="12" vol="100" />
          <note key="67" pos="1248" pan="0" len="12" vol="100" />
        </pattern>
        <pattern pos="16128" muted="0" steps="16" name="" type="1">
          <note key="77" pos="0" pan="0" len="12" vol="100" />
          <note key="70" pos="240" pan="0" len="12" vol="100" />
          <note key="72" pos="288" pan="0" len="12" vol="100" />
          <note key="77" pos="336" pan="0" len="12" vol="100" />
          <note key="79" pos="384" pan="0" len="12" vol="100" />
          <note key="76" pos="456" pan="0" len="12" vol="100" />
          <note key="72" pos="480" pan="0" len="96" vol="100" />
          <note key="72" pos="720" pan="0" len="12" vol="100" />
          <note key="74" pos="744" pan="0" len="12" vol="100" />
          <note key="77" pos="768" pan="0" len="12" vol="100" />
          <note key="79" pos="1080" pan="0" len="12" vol="100" />
          <note key="84" pos="1152" pan="0" len="96" vol="100" />
        </pattern>
        <pattern pos="79104" muted="0" steps="16" name="" type="1">
          <note key="89" pos="528" pan="0" len="12" vol="34" />
          <note key="93" pos="540" pan="0" len="12" vol="34" />
          <note key="96" pos="552" pan="0" len="216" vol="34" />
        </pattern>
        <pattern pos="86784" muted="0" steps="16" name="" type="1">
          <note key="89" pos="540" pan="0" len="12" vol="52" />
          <note key="93" pos="552" pan="0" len="12" vol="52" />
          <note key="96" pos="564" pan="0" len="12" vol="52" />
          <note key="101" pos="576" pan="0" len="192" vol="52" />
        </pattern>
        <pattern pos="88320" muted="0" steps="16" name="" type="1">
          <note key="89" pos="540" pan="0" len="12" vol="52" />
          <note key="93" pos="552" pan="0" len="12" vol="52" />
          <note key="96" pos="564" pan="0" len="12" vol="52" />
          <note key="101" pos="576" pan="0" len="192" vol="52" />
        </pattern>
        <pattern pos="116736" muted="0" steps="16" name="" type="1">
          <note key="77" pos="48" pan="0" len="24" vol="17" />
          <note key="79" pos="72" pan="0" len="24" vol="34" />
          <note key="80" pos="96" pan="0" len="24" vol="52" />
          <note key="82" pos="120" pan="0" len="24" vol="69" />
          <note key="84" pos="144" pan="0" len="24" vol="86" />
          <note key="87" pos="168" pan="0" len="24" vol="100" />
          <note key="89" pos="192" pan="0" len="1344" vol="100" />
        </pattern>
        <pattern pos="118272" muted="0" steps="16" name="" type="1">
          <note key="72" pos="48" pan="0" len="24" vol="17" />
          <note key="74" pos="72" pan="0" len="24" vol="34" />
          <note key="75" pos="96" pan="0" len="24" vol="52" />
          <note key="77" pos="120" pan="0" len="24" vol="69" />
          <note key="79" pos="144" pan="0" len="24" vol="86" />
          <note key="82" pos="168" pan="0" len="24" vol="100" />
          <note key="84" pos="192" pan="0" len="1344" vol="100" />
        </pattern>
      </track>
      <track solo="0" name="18 (Ch14)" type="0" muted="0">
        <instrumenttrack usemasterpitch="1" pitch="0.0" basenote="57" pan="0" pitchrange="12" vol="30">
          <eldata />
          <instrument name="tripleoscillator" />
        </instrumenttrack>
        <pattern pos="263808" muted="0" steps="16" name="" type="1">
          <note key="72" pos="0" pan="0" len="12" vol="100" />
          <note key="74" pos="12" pan="0" len="12" vol="100" />
          <note key="75" pos="24" pan="0" len="12" vol="100" />
          <note key="77" pos="36" pan="0" len="12" vol="100" />
          <note key="79" pos="48" pan="0" len="12" vol="100" />
          <note key="82" pos="60" pan="0" len="12" vol="100" />
          <note key="84" pos="72" pan="0" len="696" vol="100" />
        </pattern>
        <pattern pos="64512" muted="0" steps="16" name="" type="1">
          <note key="72" pos="48" pan="0" len="24" vol="100" />
          <note key="70" pos="72" pan="0" len="24" vol="100" />
          <note key="67" pos="96" pan="0" len="24" vol="100" />
          <note key="63" pos="120" pan="0" len="72" vol="100" />
          <note key="65" pos="192" pan="0" len="72" vol="100" />
          <note key="60" pos="264" pan="0" len="120" vol="100" />
          <note key="72" pos="432" pan="0" len="24" vol="100" />
          <note key="70" pos="456" pan="0" len="24" vol="100" />
          <note key="67" pos="480" pan="0" len="24" vol="100" />
          <note key="63" pos="504" pan="0" len="72" vol="100" />
          <note key="70" pos="576" pan="0" len="72" vol="100" />
          <note key="72" pos="648" pan="0" len="12" vol="52" />
          <note key="70" pos="660" pan="0" len="12" vol="69" />
          <note key="69" pos="672" pan="0" len="60" vol="100" />
          <note key="77" pos="732" pan="0" len="12" vol="100" />
          <note key="79" pos="744" pan="0" len="12" vol="100" />
          <note key="82" pos="756" pan="0" len="12" vol="100" />
          <note key="84" pos="768" pan="0" len="48" vol="100" />
          <note key="72" pos="816" pan="0" len="24" vol="100" />
          <note key="70" pos="840" pan="0" len="24" vol="100" />
          <note key="67" pos="864" pan="0" len="24" vol="100" />
          <note key="63" pos="888" pan="0" len="72" vol="100" />
          <note key="65" pos="960" pan="0" len="48" vol="100" />
          <note key="67" pos="1008" pan="0" len="12" vol="52" />
          <note key="65" pos="1020" pan="0" len="12" vol="69" />
          <note key="60" pos="1032" pan="0" len="120" vol="100" />
          <note key="63" pos="1224" pan="0" len="24" vol="100" />
          <note key="63" pos="1248" pan="0" len="12" vol="34" />
          <note key="65" pos="1260" pan="0" len="12" vol="52" />
          <note key="67" pos="1272" pan="0" len="48" vol="100" />
          <note key="70" pos="1320" pan="0" len="24" vol="100" />
          <note key="69" pos="1344" pan="0" len="96" vol="100" />
          <note key="69" pos="1440" pan="0" len="96" vol="100" />
        </pattern>
        <pattern pos="66048" muted="0" steps="16" name="" type="1">
          <note key="72" pos="48" pan="0" len="24" vol="100" />
          <note key="70" pos="72" pan="0" len="24" vol="100" />
          <note key="67" pos="96" pan="0" len="24" vol="100" />
          <note key="63" pos="120" pan="0" len="72" vol="100" />
          <note key="65" pos="192" pan="0" len="72" vol="100" />
          <note key="60" pos="264" pan="0" len="120" vol="100" />
          <note key="72" pos="432" pan="0" len="24" vol="100" />
          <note key="70" pos="456" pan="0" len="24" vol="100" />
          <note key="67" pos="480" pan="0" len="24" vol="100" />
          <note key="63" pos="504" pan="0" len="72" vol="100" />
          <note key="70" pos="576" pan="0" len="72" vol="100" />
          <note key="72" pos="648" pan="0" len="12" vol="52" />
          <note key="70" pos="660" pan="0" len="12" vol="69" />
          <note key="69" pos="672" pan="0" len="60" vol="100" />
          <note key="77" pos="732" pan="0" len="12" vol="100" />
          <note key="79" pos="744" pan="0" len="12" vol="100" />
          <note key="82" pos="756" pan="0" len="12" vol="100" />
          <note key="84" pos="768" pan="0" len="48" vol="100" />
          <note key="72" pos="816" pan="0" len="24" vol="100" />
          <note key="70" pos="840" pan="0" len="24" vol="100" />
          <note key="67" pos="864" pan="0" len="24" vol="100" />
          <note key="63" pos="888" pan="0" len="72" vol="100" />
          <note key="65" pos="960" pan="0" len="48" vol="100" />
          <note key="67" pos="1008" pan="0" len="12" vol="52" />
          <note key="65" pos="1020" pan="0" len="12" vol="69" />
          <note key="60" pos="1032" pan="0" len="120" vol="100" />
          <note key="63" pos="1224" pan="0" len="24" vol="100" />
          <note key="63" pos="1248" pan="0" len="12" vol="34" />
          <note key="65" pos="1260" pan="0" len="12" vol="52" />
          <note key="67" pos="1272" pan="0" len="48" vol="100" />
          <note key="70" pos="1320" pan="0" len="24" vol="100" />
          <note key="69" pos="1344" pan="0" len="96" vol="100" />
          <note key="69" pos="1440" pan="0" len="96" vol="100" />
        </pattern>
        <pattern pos="261504" muted="0" steps="16" name="" type="1">
          <note key="75" pos="0" pan="0" len="12" vol="100" />
          <note key="77" pos="12" pan="0" len="12" vol="100" />
          <note key="78" pos="24" pan="0" len="12" vol="100" />
          <note key="80" pos="36" pan="0" len="12" vol="100" />
          <note key="82" pos="48" pan="0" len="12" vol="100" />
          <note key="85" pos="60" pan="0" len="12" vol="100" />
          <note key="87" pos="72" pan="0" len="696" vol="100" />
        </pattern>
        <pattern pos="263040" muted="0" steps="16" name="" type="1">
          <note key="72" pos="0" pan="0" len="12" vol="100" />
          <note key="74" pos="12" pan="0" len="12" vol="100" />
          <note key="75" pos="24" pan="0" len="12" vol="100" />
          <note key="77" pos="36" pan="0" len="12" vol="100" />
          <note key="79" pos="48" pan="0" len="12" vol="100" />
          <note key="82" pos="60" pan="0" len="12" vol="100" />
          <note key="84" pos="72" pan="0" len="696" vol="100" />
        </pattern>
      </track>
      <track solo="0" name="19 (Ch5)" type="0" muted="0">
        <instrumenttrack usemasterpitch="1" pitch="0.0" basenote="57" pan="0" pitchrange="12" vol="30">
          <eldata />
          <instrument name="tripleoscillator" />
        </instrumenttrack>
        <pattern pos="29568" muted="0" steps="16" name="" type="1">
          <note key="72" pos="288" pan="0" len="144" vol="100" />
          <note key="65" pos="864" pan="0" len="144" vol="100" />
        </pattern>
      </track>
      <track solo="0" name="19 (Ch6)" type="0" muted="0">
        <instrumenttrack usemasterpitch="1" pitch="0.0" basenote="57" pan="0" pitchrange="12" vol="30">
          <eldata />
          <instrument name="tripleoscillator" />
        </instrumenttrack>
        <pattern pos="29568" muted="0" steps="16" name="" type="1">
          <note key="72" pos="288" pan="0" len="144" vol="100" />
          <note key="65" pos="864" pan="0" len="144" vol="100" />
        </pattern>
      </track>
      <track solo="0" name="19 (Ch8)" type="0" muted="0">
        <instrumenttrack usemasterpitch="1" pitch="0.0" basenote="57" pan="0" pitchrange="12" vol="30">
          <eldata />
          <instrument name="tripleoscillator" />
        </instrumenttrack>
        <pattern pos="82176" muted="0" steps="16" name="" type="1">
          <note key="72" pos="48" pan="0" len="96" vol="100" />
          <note key="72" pos="432" pan="0" len="96" vol="100" />
        </pattern>
        <pattern pos="81408" muted="0" steps="16" name="" type="1">
          <note key="72" pos="48" pan="0" len="96" vol="100" />
          <note key="72" pos="432" pan="0" len="96" vol="100" />
        </pattern>
      </track>
      <track solo="0" name="19 (Ch10)" type="0" muted="0">
        <instrumenttrack usemasterpitch="1" pitch="0.0" basenote="57" pan="0" pitchrange="12" vol="30">
          <eldata />
          <instrument name="tripleoscillator" />
        </instrumenttrack>
        <pattern pos="28416" muted="0" steps="16" name="" type="1">
          <note key="60" pos="0" pan="0" len="576" vol="100" />
          <note key="60" pos="576" pan="0" len="576" vol="100" />
        </pattern>
        <pattern pos="25344" muted="0" steps="16" name="" type="1">
          <note key="60" pos="0" pan="0" len="768" vol="100" />
          <note key="60" pos="768" pan="0" len="768" vol="100" />
        </pattern>
        <pattern pos="26880" muted="0" steps="16" name="" type="1">
          <note key="63" pos="0" pan="0" len="768" vol="100" />
          <note key="65" pos="768" pan="0" len="768" vol="100" />
        </pattern>
      </track>
      <track solo="0" name="20 (Ch2)" type="0" muted="0">
        <instrumenttrack usemasterpitch="1" pitch="0.0" basenote="57" pan="0" pitchrange="12" vol="30">
          <eldata />
          <instrument name="tripleoscillator" />
        </instrumenttrack>
        <pattern pos="6912" muted="0" steps="16" name="" type="1">
          <note key="60" pos="0" pan="0" len="48" vol="100" />
          <note key="60" pos="576" pan="0" len="48" vol="100" />
        </pattern>
      </track>
      <track solo="0" name="20 (Ch3)" type="0" muted="0">
        <instrumenttrack usemasterpitch="1" pitch="0.0" basenote="57" pan="0" pitchrange="12" vol="30">
          <eldata />
          <instrument name="tripleoscillator" />
        </instrumenttrack>
        <pattern pos="72192" muted="0" steps="16" name="" type="1">
          <note key="63" pos="1440" pan="0" len="48" vol="100" />
          <note key="62" pos="1488" pan="0" len="24" vol="100" />
          <note key="58" pos="1512" pan="0" len="24" vol="100" />
        </pattern>
        <pattern pos="59904" muted="0" steps="16" name="" type="1">
          <note key="63" pos="1440" pan="0" len="48" vol="100" />
          <note key="62" pos="1488" pan="0" len="24" vol="100" />
          <note key="58" pos="1512" pan="0" len="24" vol="100" />
        </pattern>
        <pattern pos="61440" muted="0" steps="16" name="" type="1">
          <note key="63" pos="1440" pan="0" len="48" vol="100" />
          <note key="62" pos="1488" pan="0" len="24" vol="100" />
          <note key="58" pos="1512" pan="0" len="24" vol="100" />
        </pattern>
        <pattern pos="62976" muted="0" steps="16" name="" type="1">
          <note key="63" pos="1440" pan="0" len="48" vol="100" />
          <note key="62" pos="1488" pan="0" len="24" vol="100" />
          <note key="58" pos="1512" pan="0" len="24" vol="100" />
        </pattern>
        <pattern pos="67584" muted="0" steps="16" name="" type="1">
          <note key="63" pos="1440" pan="0" len="48" vol="100" />
          <note key="62" pos="1488" pan="0" len="24" vol="100" />
          <note key="58" pos="1512" pan="0" len="24" vol="100" />
        </pattern>
        <pattern pos="69120" muted="0" steps="16" name="" type="1">
          <note key="63" pos="1440" pan="0" len="48" vol="100" />
          <note key="62" pos="1488" pan="0" len="24" vol="100" />
          <note key="58" pos="1512" pan="0" len="24" vol="100" />
        </pattern>
        <pattern pos="70656" muted="0" steps="16" name="" type="1">
          <note key="63" pos="1440" pan="0" len="48" vol="100" />
          <note key="62" pos="1488" pan="0" len="24" vol="100" />
          <note key="58" pos="1512" pan="0" len="24" vol="100" />
        </pattern>
      </track>
      <track solo="0" name="20 (Ch4)" type="0" muted="0">
        <instrumenttrack usemasterpitch="1" pitch="0.0" basenote="57" pan="0" pitchrange="12" vol="30">
          <eldata />
          <instrument name="tripleoscillator" />
        </instrumenttrack>
        <pattern pos="104448" muted="0" steps="16" name="" type="1">
          <note key="62" pos="0" pan="0" len="768" vol="100" />
        </pattern>
        <pattern pos="28416" muted="0" steps="16" name="" type="1">
          <note key="60" pos="0" pan="0" len="1152" vol="100" />
        </pattern>
        <pattern pos="29568" muted="0" steps="16" name="" type="1">
          <note key="58" pos="0" pan="0" len="24" vol="100" />
          <note key="60" pos="24" pan="0" len="264" vol="100" />
          <note key="60" pos="288" pan="0" len="252" vol="100" />
          <note key="72" pos="540" pan="0" len="36" vol="100" />
          <note key="63" pos="576" pan="0" len="48" vol="100" />
          <note key="65" pos="624" pan="0" len="528" vol="100" />
        </pattern>
        <pattern pos="30720" muted="0" steps="16" name="" type="1">
          <note key="72" pos="0" pan="0" len="576" vol="100" />
          <note key="63" pos="576" pan="0" len="288" vol="100" />
          <note key="65" pos="864" pan="0" len="288" vol="100" />
        </pattern>
        <pattern pos="38784" muted="0" steps="16" name="" type="1">
          <note key="72" pos="0" pan="0" len="576" vol="100" />
          <note key="63" pos="576" pan="0" len="288" vol="100" />
          <note key="65" pos="864" pan="0" len="288" vol="100" />
        </pattern>
        <pattern pos="39936" muted="0" steps="16" name="" type="1">
          <note key="72" pos="0" pan="0" len="576" vol="100" />
        </pattern>
        <pattern pos="81408" muted="0" steps="16" name="" type="1">
          <note key="62" pos="240" pan="0" len="36" vol="100" />
          <note key="63" pos="312" pan="0" len="36" vol="100" />
          <note key="65" pos="360" pan="0" len="24" vol="100" />
          <note key="72" pos="384" pan="0" len="24" vol="100" />
          <note key="63" pos="600" pan="0" len="36" vol="100" />
          <note key="65" pos="696" pan="0" len="36" vol="100" />
          <note key="67" pos="744" pan="0" len="12" vol="100" />
        </pattern>
        <pattern pos="82176" muted="0" steps="16" name="" type="1">
          <note key="62" pos="240" pan="0" len="36" vol="100" />
          <note key="63" pos="312" pan="0" len="36" vol="100" />
          <note key="65" pos="360" pan="0" len="24" vol="100" />
          <note key="72" pos="384" pan="0" len="24" vol="100" />
          <note key="63" pos="600" pan="0" len="36" vol="100" />
          <note key="65" pos="696" pan="0" len="36" vol="100" />
          <note key="67" pos="744" pan="0" len="12" vol="100" />
        </pattern>
        <pattern pos="82944" muted="0" steps="16" name="" type="1">
          <note key="62" pos="240" pan="0" len="36" vol="100" />
          <note key="63" pos="312" pan="0" len="36" vol="100" />
          <note key="65" pos="360" pan="0" len="24" vol="100" />
          <note key="72" pos="384" pan="0" len="24" vol="100" />
        </pattern>
        <pattern pos="83712" muted="0" steps="16" name="" type="1">
          <note key="62" pos="240" pan="0" len="36" vol="100" />
          <note key="63" pos="312" pan="0" len="36" vol="100" />
          <note key="65" pos="360" pan="0" len="24" vol="100" />
          <note key="72" pos="384" pan="0" len="24" vol="100" />
        </pattern>
        <pattern pos="86016" muted="0" steps="16" name="" type="1">
          <note key="62" pos="240" pan="0" len="36" vol="100" />
          <note key="63" pos="312" pan="0" len="36" vol="100" />
          <note key="65" pos="360" pan="0" len="24" vol="100" />
          <note key="67" pos="384" pan="0" len="12" vol="100" />
          <note key="70" pos="396" pan="0" len="12" vol="100" />
          <note key="72" pos="408" pan="0" len="12" vol="100" />
          <note key="60" pos="420" pan="0" len="12" vol="100" />
          <note key="63" pos="600" pan="0" len="36" vol="100" />
          <note key="65" pos="696" pan="0" len="36" vol="100" />
          <note key="67" pos="744" pan="0" len="12" vol="100" />
        </pattern>
        <pattern pos="86784" muted="0" steps="16" name="" type="1">
          <note key="62" pos="240" pan="0" len="36" vol="100" />
          <note key="63" pos="312" pan="0" len="36" vol="100" />
          <note key="65" pos="360" pan="0" len="24" vol="100" />
          <note key="67" pos="384" pan="0" len="12" vol="100" />
          <note key="70" pos="396" pan="0" len="12" vol="100" />
          <note key="72" pos="408" pan="0" len="12" vol="100" />
          <note key="60" pos="420" pan="0" len="12" vol="100" />
          <note key="63" pos="600" pan="0" len="36" vol="100" />
          <note key="65" pos="696" pan="0" len="36" vol="100" />
          <note key="67" pos="744" pan="0" len="12" vol="100" />
        </pattern>
        <pattern pos="87552" muted="0" steps="16" name="" type="1">
          <note key="62" pos="240" pan="0" len="36" vol="100" />
          <note key="63" pos="312" pan="0" len="36" vol="100" />
          <note key="65" pos="360" pan="0" len="24" vol="100" />
          <note key="67" pos="384" pan="0" len="12" vol="100" />
          <note key="70" pos="396" pan="0" len="12" vol="100" />
          <note key="72" pos="408" pan="0" len="12" vol="100" />
          <note key="60" pos="420" pan="0" len="12" vol="100" />
          <note key="63" pos="600" pan="0" len="36" vol="100" />
          <note key="65" pos="696" pan="0" len="36" vol="100" />
          <note key="67" pos="744" pan="0" len="12" vol="100" />
        </pattern>
        <pattern pos="88320" muted="0" steps="16" name="" type="1">
          <note key="62" pos="240" pan="0" len="36" vol="100" />
          <note key="63" pos="312" pan="0" len="36" vol="100" />
          <note key="65" pos="360" pan="0" len="24" vol="100" />
          <note key="67" pos="384" pan="0" len="12" vol="100" />
          <note key="70" pos="396" pan="0" len="12" vol="100" />
          <note key="72" pos="408" pan="0" len="12" vol="100" />
          <note key="60" pos="420" pan="0" len="12" vol="100" />
          <note key="63" pos="600" pan="0" len="36" vol="100" />
          <note key="65" pos="696" pan="0" len="36" vol="100" />
          <note key="67" pos="744" pan="0" len="12" vol="100" />
        </pattern>
        <pattern pos="89088" muted="0" steps="16" name="" type="1">
          <note key="60" pos="24" pan="0" len="24" vol="100" />
          <note key="62" pos="240" pan="0" len="36" vol="100" />
          <note key="63" pos="312" pan="0" len="36" vol="100" />
          <note key="65" pos="360" pan="0" len="24" vol="100" />
          <note key="60" pos="384" pan="0" len="12" vol="100" />
          <note key="63" pos="600" pan="0" len="36" vol="100" />
          <note key="65" pos="696" pan="0" len="36" vol="100" />
          <note key="67" pos="744" pan="0" len="12" vol="100" />
        </pattern>
        <pattern pos="89856" muted="0" steps="16" name="" type="1">
          <note key="60" pos="24" pan="0" len="24" vol="100" />
          <note key="62" pos="240" pan="0" len="36" vol="100" />
          <note key="63" pos="312" pan="0" len="36" vol="100" />
          <note key="65" pos="360" pan="0" len="24" vol="100" />
          <note key="60" pos="384" pan="0" len="12" vol="100" />
          <note key="63" pos="600" pan="0" len="36" vol="100" />
          <note key="65" pos="696" pan="0" len="36" vol="100" />
          <note key="67" pos="744" pan="0" len="12" vol="100" />
        </pattern>
      </track>
      <track solo="0" name="20 (Ch5)" type="0" muted="0">
        <instrumenttrack usemasterpitch="1" pitch="0.0" basenote="57" pan="0" pitchrange="12" vol="30">
          <eldata />
          <instrument name="tripleoscillator" />
        </instrumenttrack>
        <pattern pos="52608" muted="0" steps="16" name="" type="1">
          <note key="63" pos="0" pan="0" len="288" vol="100" />
          <note key="65" pos="288" pan="0" len="288" vol="100" />
          <note key="60" pos="576" pan="0" len="288" vol="100" />
          <note key="60" pos="864" pan="0" len="288" vol="100" />
        </pattern>
        <pattern pos="768" muted="0" steps="16" name="" type="1">
          <note key="60" pos="0" pan="0" len="768" vol="50" />
        </pattern>
        <pattern pos="1536" muted="0" steps="16" name="" type="1">
          <note key="60" pos="0" pan="0" len="768" vol="50" />
        </pattern>
        <pattern pos="2304" muted="0" steps="16" name="" type="1">
          <note key="60" pos="0" pan="0" len="768" vol="50" />
        </pattern>
        <pattern pos="3072" muted="0" steps="16" name="" type="1">
          <note key="60" pos="0" pan="0" len="576" vol="100" />
          <note key="65" pos="576" pan="0" len="192" vol="100" />
        </pattern>
        <pattern pos="44544" muted="0" steps="16" name="" type="1">
          <note key="58" pos="0" pan="0" len="288" vol="100" />
          <note key="60" pos="288" pan="0" len="288" vol="100" />
          <note key="58" pos="576" pan="0" len="288" vol="100" />
          <note key="60" pos="864" pan="0" len="288" vol="100" />
        </pattern>
        <pattern pos="45696" muted="0" steps="16" name="" type="1">
          <note key="63" pos="0" pan="0" len="288" vol="100" />
          <note key="65" pos="288" pan="0" len="288" vol="100" />
          <note key="60" pos="576" pan="0" len="288" vol="100" />
          <note key="60" pos="864" pan="0" len="288" vol="100" />
        </pattern>
        <pattern pos="46848" muted="0" steps="16" name="" type="1">
          <note key="63" pos="0" pan="0" len="288" vol="100" />
          <note key="65" pos="288" pan="0" len="288" vol="100" />
          <note key="60" pos="576" pan="0" len="288" vol="100" />
          <note key="60" pos="864" pan="0" len="288" vol="100" />
        </pattern>
        <pattern pos="50304" muted="0" steps="16" name="" type="1">
          <note key="58" pos="0" pan="0" len="288" vol="100" />
          <note key="60" pos="288" pan="0" len="288" vol="100" />
          <note key="58" pos="576" pan="0" len="288" vol="100" />
          <note key="60" pos="864" pan="0" len="288" vol="100" />
        </pattern>
        <pattern pos="51456" muted="0" steps="16" name="" type="1">
          <note key="63" pos="0" pan="0" len="288" vol="100" />
          <note key="65" pos="288" pan="0" len="288" vol="100" />
          <note key="60" pos="576" pan="0" len="288" vol="100" />
          <note key="60" pos="864" pan="0" len="288" vol="100" />
        </pattern>
      </track>
      <track solo="0" name="20 (Ch7)" type="0" muted="0">
        <instrumenttrack usemasterpitch="1" pitch="0.0" basenote="57" pan="0" pitchrange="12" vol="30">
          <eldata />
          <instrument name="tripleoscillator" />
        </instrumenttrack>
        <pattern pos="79104" muted="0" steps="16" name="" type="1">
          <note key="60" pos="0" pan="0" len="24" vol="100" />
          <note key="60" pos="96" pan="0" len="36" vol="100" />
          <note key="62" pos="288" pan="0" len="36" vol="100" />
          <note key="63" pos="324" pan="0" len="24" vol="100" />
          <note key="60" pos="480" pan="0" len="36" vol="100" />
          <note key="62" pos="672" pan="0" len="24" vol="100" />
          <note key="63" pos="720" pan="0" len="24" vol="100" />
          <note key="65" pos="744" pan="0" len="24" vol="100" />
        </pattern>
        <pattern pos="78336" muted="0" steps="16" name="" type="1">
          <note key="60" pos="0" pan="0" len="24" vol="100" />
          <note key="60" pos="96" pan="0" len="36" vol="100" />
          <note key="62" pos="288" pan="0" len="36" vol="100" />
          <note key="63" pos="324" pan="0" len="24" vol="100" />
          <note key="60" pos="480" pan="0" len="36" vol="100" />
          <note key="62" pos="672" pan="0" len="24" vol="100" />
          <note key="63" pos="720" pan="0" len="24" vol="100" />
          <note key="65" pos="744" pan="0" len="24" vol="100" />
        </pattern>
      </track>
      <track solo="0" name="20 (Ch8)" type="0" muted="0">
        <instrumenttrack usemasterpitch="1" pitch="0.0" basenote="57" pan="0" pitchrange="12" vol="30">
          <eldata />
          <instrument name="tripleoscillator" />
        </instrumenttrack>
        <pattern pos="82176" muted="0" steps="16" name="" type="1">
          <note key="60" pos="0" pan="0" len="48" vol="100" />
          <note key="60" pos="384" pan="0" len="48" vol="100" />
        </pattern>
        <pattern pos="7680" muted="0" steps="16" name="" type="1">
          <note key="60" pos="0" pan="0" len="48" vol="100" />
        </pattern>
        <pattern pos="14592" muted="0" steps="16" name="" type="1">
          <note key="58" pos="0" pan="0" len="24" vol="100" />
          <note key="60" pos="24" pan="0" len="360" vol="100" />
          <note key="67" pos="384" pan="0" len="384" vol="100" />
          <note key="60" pos="768" pan="0" len="384" vol="100" />
          <note key="67" pos="1152" pan="0" len="384" vol="100" />
        </pattern>
        <pattern pos="16128" muted="0" steps="16" name="" type="1">
          <note key="58" pos="0" pan="0" len="312" vol="100" />
          <note key="43" pos="312" pan="0" len="72" vol="100" />
          <note key="60" pos="384" pan="0" len="384" vol="100" />
          <note key="58" pos="768" pan="0" len="312" vol="100" />
          <note key="67" pos="1080" pan="0" len="72" vol="100" />
          <note key="60" pos="1152" pan="0" len="192" vol="100" />
        </pattern>
        <pattern pos="81408" muted="0" steps="16" name="" type="1">
          <note key="60" pos="0" pan="0" len="48" vol="100" />
          <note key="60" pos="384" pan="0" len="48" vol="100" />
        </pattern>
      </track>
      <track solo="0" name="21 (Ch4)" type="0" muted="0">
        <instrumenttrack usemasterpitch="1" pitch="0.0" basenote="57" pan="0" pitchrange="12" vol="30">
          <eldata />
          <instrument name="tripleoscillator" />
        </instrumenttrack>
        <pattern pos="34176" muted="0" steps="16" name="" type="1">
          <note key="75" pos="0" pan="0" len="12" vol="16" />
          <note key="77" pos="12" pan="0" len="12" vol="31" />
          <note key="78" pos="24" pan="0" len="12" vol="52" />
          <note key="80" pos="36" pan="0" len="12" vol="69" />
        </pattern>
      </track>
      <track solo="0" name="21 (Ch6)" type="0" muted="0">
        <instrumenttrack usemasterpitch="1" pitch="0.0" basenote="57" pan="0" pitchrange="12" vol="30">
          <eldata />
          <instrument name="tripleoscillator" />
        </instrumenttrack>
        <pattern pos="229056" muted="0" steps="16" name="" type="1">
          <note key="69" pos="24" pan="0" len="24" vol="100" />
          <note key="70" pos="48" pan="0" len="48" vol="100" />
          <note key="72" pos="96" pan="0" len="24" vol="100" />
          <note key="70" pos="120" pan="0" len="24" vol="100" />
          <note key="69" pos="144" pan="0" len="24" vol="100" />
          <note key="70" pos="168" pan="0" len="48" vol="100" />
          <note key="69" pos="216" pan="0" len="24" vol="100" />
          <note key="70" pos="240" pan="0" len="36" vol="100" />
          <note key="70" pos="276" pan="0" len="12" vol="100" />
          <note key="72" pos="288" pan="0" len="24" vol="100" />
          <note key="70" pos="312" pan="0" len="24" vol="100" />
          <note key="69" pos="336" pan="0" len="24" vol="100" />
          <note key="70" pos="360" pan="0" len="48" vol="100" />
          <note key="69" pos="408" pan="0" len="24" vol="100" />
          <note key="70" pos="432" pan="0" len="48" vol="100" />
          <note key="72" pos="480" pan="0" len="24" vol="100" />
          <note key="70" pos="504" pan="0" len="24" vol="100" />
          <note key="69" pos="528" pan="0" len="24" vol="100" />
          <note key="70" pos="552" pan="0" len="48" vol="100" />
          <note key="70" pos="600" pan="0" len="24" vol="100" />
          <note key="72" pos="624" pan="0" len="36" vol="100" />
          <note key="72" pos="660" pan="0" len="12" vol="100" />
          <note key="74" pos="672" pan="0" len="24" vol="100" />
          <note key="72" pos="696" pan="0" len="24" vol="100" />
          <note key="70" pos="720" pan="0" len="24" vol="100" />
          <note key="72" pos="744" pan="0" len="48" vol="100" />
          <note key="69" pos="792" pan="0" len="24" vol="100" />
          <note key="70" pos="816" pan="0" len="48" vol="100" />
          <note key="72" pos="864" pan="0" len="24" vol="100" />
          <note key="70" pos="888" pan="0" len="24" vol="100" />
          <note key="69" pos="912" pan="0" len="24" vol="100" />
          <note key="70" pos="936" pan="0" len="48" vol="100" />
          <note key="69" pos="984" pan="0" len="24" vol="100" />
          <note key="70" pos="1008" pan="0" len="48" vol="100" />
          <note key="72" pos="1056" pan="0" len="24" vol="100" />
          <note key="70" pos="1080" pan="0" len="24" vol="100" />
          <note key="69" pos="1104" pan="0" len="24" vol="100" />
          <note key="70" pos="1128" pan="0" len="48" vol="100" />
          <note key="70" pos="1176" pan="0" len="24" vol="100" />
          <note key="72" pos="1200" pan="0" len="48" vol="100" />
          <note key="74" pos="1248" pan="0" len="24" vol="100" />
          <note key="72" pos="1272" pan="0" len="24" vol="100" />
          <note key="70" pos="1296" pan="0" len="24" vol="100" />
          <note key="72" pos="1320" pan="0" len="48" vol="100" />
          <note key="72" pos="1368" pan="0" len="24" vol="100" />
          <note key="74" pos="1392" pan="0" len="36" vol="100" />
          <note key="74" pos="1428" pan="0" len="12" vol="100" />
          <note key="77" pos="1440" pan="0" len="24" vol="100" />
          <note key="74" pos="1464" pan="0" len="24" vol="100" />
          <note key="72" pos="1488" pan="0" len="24" vol="100" />
          <note key="74" pos="1512" pan="0" len="24" vol="100" />
        </pattern>
        <pattern pos="221376" muted="0" steps="16" name="" type="1">
          <note key="69" pos="24" pan="0" len="24" vol="100" />
          <note key="70" pos="48" pan="0" len="48" vol="100" />
          <note key="72" pos="96" pan="0" len="24" vol="100" />
          <note key="70" pos="120" pan="0" len="24" vol="100" />
          <note key="69" pos="144" pan="0" len="24" vol="100" />
          <note key="70" pos="168" pan="0" len="48" vol="100" />
          <note key="69" pos="216" pan="0" len="24" vol="100" />
          <note key="70" pos="240" pan="0" len="36" vol="100" />
          <note key="70" pos="276" pan="0" len="12" vol="100" />
          <note key="72" pos="288" pan="0" len="24" vol="100" />
          <note key="70" pos="312" pan="0" len="24" vol="100" />
          <note key="69" pos="336" pan="0" len="24" vol="100" />
          <note key="70" pos="360" pan="0" len="48" vol="100" />
          <note key="69" pos="408" pan="0" len="24" vol="100" />
          <note key="70" pos="432" pan="0" len="48" vol="100" />
          <note key="72" pos="480" pan="0" len="24" vol="100" />
          <note key="70" pos="504" pan="0" len="24" vol="100" />
          <note key="69" pos="528" pan="0" len="24" vol="100" />
          <note key="70" pos="552" pan="0" len="48" vol="100" />
          <note key="70" pos="600" pan="0" len="24" vol="100" />
          <note key="72" pos="624" pan="0" len="36" vol="100" />
          <note key="72" pos="660" pan="0" len="12" vol="100" />
          <note key="74" pos="672" pan="0" len="24" vol="100" />
          <note key="72" pos="696" pan="0" len="24" vol="100" />
          <note key="70" pos="720" pan="0" len="24" vol="100" />
          <note key="72" pos="744" pan="0" len="48" vol="100" />
          <note key="69" pos="792" pan="0" len="24" vol="100" />
          <note key="70" pos="816" pan="0" len="48" vol="100" />
          <note key="72" pos="864" pan="0" len="24" vol="100" />
          <note key="70" pos="888" pan="0" len="24" vol="100" />
          <note key="69" pos="912" pan="0" len="24" vol="100" />
          <note key="70" pos="936" pan="0" len="48" vol="100" />
          <note key="69" pos="984" pan="0" len="24" vol="100" />
          <note key="70" pos="1008" pan="0" len="48" vol="100" />
          <note key="72" pos="1056" pan="0" len="24" vol="100" />
          <note key="70" pos="1080" pan="0" len="24" vol="100" />
          <note key="69" pos="1104" pan="0" len="24" vol="100" />
          <note key="70" pos="1128" pan="0" len="48" vol="100" />
          <note key="70" pos="1176" pan="0" len="24" vol="100" />
          <note key="72" pos="1200" pan="0" len="48" vol="100" />
          <note key="74" pos="1248" pan="0" len="24" vol="100" />
          <note key="72" pos="1272" pan="0" len="24" vol="100" />
          <note key="70" pos="1296" pan="0" len="24" vol="100" />
          <note key="72" pos="1320" pan="0" len="48" vol="100" />
          <note key="72" pos="1368" pan="0" len="24" vol="100" />
          <note key="74" pos="1392" pan="0" len="36" vol="100" />
          <note key="74" pos="1428" pan="0" len="12" vol="100" />
          <note key="77" pos="1440" pan="0" len="24" vol="100" />
          <note key="74" pos="1464" pan="0" len="24" vol="100" />
          <note key="72" pos="1488" pan="0" len="24" vol="100" />
          <note key="74" pos="1512" pan="0" len="24" vol="100" />
        </pattern>
        <pattern pos="222912" muted="0" steps="16" name="" type="1">
          <note key="69" pos="24" pan="0" len="24" vol="100" />
          <note key="70" pos="48" pan="0" len="48" vol="100" />
          <note key="72" pos="96" pan="0" len="24" vol="100" />
          <note key="70" pos="120" pan="0" len="24" vol="100" />
          <note key="69" pos="144" pan="0" len="24" vol="100" />
          <note key="70" pos="168" pan="0" len="48" vol="100" />
          <note key="69" pos="216" pan="0" len="24" vol="100" />
          <note key="70" pos="240" pan="0" len="36" vol="100" />
          <note key="70" pos="276" pan="0" len="12" vol="100" />
          <note key="72" pos="288" pan="0" len="24" vol="100" />
          <note key="70" pos="312" pan="0" len="24" vol="100" />
          <note key="69" pos="336" pan="0" len="24" vol="100" />
          <note key="70" pos="360" pan="0" len="48" vol="100" />
          <note key="69" pos="408" pan="0" len="24" vol="100" />
          <note key="70" pos="432" pan="0" len="48" vol="100" />
          <note key="72" pos="480" pan="0" len="24" vol="100" />
          <note key="70" pos="504" pan="0" len="24" vol="100" />
          <note key="69" pos="528" pan="0" len="24" vol="100" />
          <note key="70" pos="552" pan="0" len="48" vol="100" />
          <note key="70" pos="600" pan="0" len="24" vol="100" />
          <note key="72" pos="624" pan="0" len="36" vol="100" />
          <note key="72" pos="660" pan="0" len="12" vol="100" />
          <note key="74" pos="672" pan="0" len="24" vol="100" />
          <note key="72" pos="696" pan="0" len="24" vol="100" />
          <note key="70" pos="720" pan="0" len="24" vol="100" />
          <note key="72" pos="744" pan="0" len="48" vol="100" />
          <note key="69" pos="792" pan="0" len="24" vol="100" />
          <note key="70" pos="816" pan="0" len="48" vol="100" />
          <note key="72" pos="864" pan="0" len="24" vol="100" />
          <note key="70" pos="888" pan="0" len="24" vol="100" />
          <note key="69" pos="912" pan="0" len="24" vol="100" />
          <note key="70" pos="936" pan="0" len="48" vol="100" />
          <note key="69" pos="984" pan="0" len="24" vol="100" />
          <note key="70" pos="1008" pan="0" len="48" vol="100" />
          <note key="72" pos="1056" pan="0" len="24" vol="100" />
          <note key="70" pos="1080" pan="0" len="24" vol="100" />
          <note key="69" pos="1104" pan="0" len="24" vol="100" />
          <note key="70" pos="1128" pan="0" len="48" vol="100" />
          <note key="70" pos="1176" pan="0" len="24" vol="100" />
          <note key="72" pos="1200" pan="0" len="48" vol="100" />
          <note key="74" pos="1248" pan="0" len="24" vol="100" />
          <note key="72" pos="1272" pan="0" len="24" vol="100" />
          <note key="70" pos="1296" pan="0" len="24" vol="100" />
          <note key="72" pos="1320" pan="0" len="48" vol="100" />
          <note key="72" pos="1368" pan="0" len="24" vol="100" />
          <note key="74" pos="1392" pan="0" len="36" vol="100" />
          <note key="74" pos="1428" pan="0" len="12" vol="100" />
          <note key="77" pos="1440" pan="0" len="24" vol="100" />
          <note key="74" pos="1464" pan="0" len="24" vol="100" />
          <note key="72" pos="1488" pan="0" len="24" vol="100" />
          <note key="74" pos="1512" pan="0" len="24" vol="100" />
        </pattern>
        <pattern pos="227520" muted="0" steps="16" name="" type="1">
          <note key="69" pos="24" pan="0" len="24" vol="100" />
          <note key="70" pos="48" pan="0" len="48" vol="100" />
          <note key="72" pos="96" pan="0" len="24" vol="100" />
          <note key="70" pos="120" pan="0" len="24" vol="100" />
          <note key="69" pos="144" pan="0" len="24" vol="100" />
          <note key="70" pos="168" pan="0" len="48" vol="100" />
          <note key="69" pos="216" pan="0" len="24" vol="100" />
          <note key="70" pos="240" pan="0" len="36" vol="100" />
          <note key="70" pos="276" pan="0" len="12" vol="100" />
          <note key="72" pos="288" pan="0" len="24" vol="100" />
          <note key="70" pos="312" pan="0" len="24" vol="100" />
          <note key="69" pos="336" pan="0" len="24" vol="100" />
          <note key="70" pos="360" pan="0" len="48" vol="100" />
          <note key="69" pos="408" pan="0" len="24" vol="100" />
          <note key="70" pos="432" pan="0" len="48" vol="100" />
          <note key="72" pos="480" pan="0" len="24" vol="100" />
          <note key="70" pos="504" pan="0" len="24" vol="100" />
          <note key="69" pos="528" pan="0" len="24" vol="100" />
          <note key="70" pos="552" pan="0" len="48" vol="100" />
          <note key="70" pos="600" pan="0" len="24" vol="100" />
          <note key="72" pos="624" pan="0" len="36" vol="100" />
          <note key="72" pos="660" pan="0" len="12" vol="100" />
          <note key="74" pos="672" pan="0" len="24" vol="100" />
          <note key="72" pos="696" pan="0" len="24" vol="100" />
          <note key="70" pos="720" pan="0" len="24" vol="100" />
          <note key="72" pos="744" pan="0" len="48" vol="100" />
          <note key="69" pos="792" pan="0" len="24" vol="100" />
          <note key="70" pos="816" pan="0" len="48" vol="100" />
          <note key="72" pos="864" pan="0" len="24" vol="100" />
          <note key="70" pos="888" pan="0" len="24" vol="100" />
          <note key="69" pos="912" pan="0" len="24" vol="100" />
          <note key="70" pos="936" pan="0" len="48" vol="100" />
          <note key="69" pos="984" pan="0" len="24" vol="100" />
          <note key="70" pos="1008" pan="0" len="48" vol="100" />
          <note key="72" pos="1056" pan="0" len="24" vol="100" />
          <note key="70" pos="1080" pan="0" len="24" vol="100" />
          <note key="69" pos="1104" pan="0" len="24" vol="100" />
          <note key="70" pos="1128" pan="0" len="48" vol="100" />
          <note key="70" pos="1176" pan="0" len="24" vol="100" />
          <note key="72" pos="1200" pan="0" len="48" vol="100" />
          <note key="74" pos="1248" pan="0" len="24" vol="100" />
          <note key="72" pos="1272" pan="0" len="24" vol="100" />
          <note key="70" pos="1296" pan="0" len="24" vol="100" />
          <note key="72" pos="1320" pan="0" len="48" vol="100" />
          <note key="72" pos="1368" pan="0" len="24" vol="100" />
          <note key="74" pos="1392" pan="0" len="36" vol="100" />
          <note key="74" pos="1428" pan="0" len="12" vol="100" />
          <note key="77" pos="1440" pan="0" len="24" vol="100" />
          <note key="74" pos="1464" pan="0" len="24" vol="100" />
          <note key="72" pos="1488" pan="0" len="24" vol="100" />
          <note key="74" pos="1512" pan="0" len="24" vol="100" />
        </pattern>
      </track>
      <track solo="0" name="21 (Ch7)" type="0" muted="0">
        <instrumenttrack usemasterpitch="1" pitch="0.0" basenote="57" pan="0" pitchrange="12" vol="30">
          <eldata />
          <instrument name="tripleoscillator" />
        </instrumenttrack>
        <pattern pos="258432" muted="0" steps="16" name="" type="1">
          <note key="67" pos="0" pan="0" len="12" vol="100" />
          <note key="70" pos="12" pan="0" len="12" vol="100" />
          <note key="72" pos="24" pan="0" len="24" vol="100" />
        </pattern>
        <pattern pos="236928" muted="0" steps="16" name="" type="1">
          <note key="74" pos="0" pan="0" len="96" vol="100" />
          <note key="81" pos="96" pan="0" len="48" vol="100" />
          <note key="77" pos="144" pan="0" len="96" vol="100" />
          <note key="79" pos="240" pan="0" len="48" vol="100" />
          <note key="74" pos="288" pan="0" len="96" vol="100" />
          <note key="72" pos="384" pan="0" len="24" vol="100" />
          <note key="74" pos="408" pan="0" len="24" vol="100" />
          <note key="77" pos="432" pan="0" len="96" vol="100" />
        </pattern>
        <pattern pos="237696" muted="0" steps="16" name="" type="1">
          <note key="70" pos="0" pan="0" len="12" vol="100" />
          <note key="73" pos="12" pan="0" len="12" vol="100" />
          <note key="75" pos="24" pan="0" len="24" vol="100" />
        </pattern>
      </track>
      <track solo="0" name="21 (Ch8)" type="0" muted="0">
        <instrumenttrack usemasterpitch="1" pitch="0.0" basenote="57" pan="0" pitchrange="12" vol="30">
          <eldata />
          <instrument name="tripleoscillator" />
        </instrumenttrack>
        <pattern pos="258432" muted="0" steps="16" name="" type="1">
          <note key="72" pos="0" pan="0" len="12" vol="100" />
          <note key="75" pos="12" pan="0" len="12" vol="100" />
          <note key="77" pos="24" pan="0" len="24" vol="100" />
        </pattern>
        <pattern pos="110592" muted="0" steps="16" name="" type="1">
          <note key="77" pos="0" pan="0" len="48" vol="50" />
          <note key="77" pos="48" pan="0" len="48" vol="50" />
          <note key="72" pos="96" pan="0" len="48" vol="50" />
          <note key="75" pos="144" pan="0" len="24" vol="50" />
          <note key="77" pos="168" pan="0" len="72" vol="50" />
          <note key="77" pos="240" pan="0" len="48" vol="50" />
          <note key="72" pos="288" pan="0" len="24" vol="50" />
          <note key="75" pos="312" pan="0" len="48" vol="50" />
          <note key="72" pos="360" pan="0" len="24" vol="50" />
          <note key="77" pos="384" pan="0" len="48" vol="50" />
          <note key="77" pos="432" pan="0" len="48" vol="50" />
          <note key="72" pos="480" pan="0" len="48" vol="50" />
          <note key="75" pos="528" pan="0" len="24" vol="50" />
          <note key="77" pos="552" pan="0" len="72" vol="50" />
          <note key="77" pos="624" pan="0" len="48" vol="50" />
          <note key="72" pos="672" pan="0" len="24" vol="50" />
          <note key="75" pos="696" pan="0" len="48" vol="50" />
          <note key="72" pos="744" pan="0" len="24" vol="50" />
          <note key="77" pos="768" pan="0" len="48" vol="50" />
          <note key="77" pos="816" pan="0" len="48" vol="50" />
          <note key="72" pos="864" pan="0" len="48" vol="50" />
          <note key="75" pos="912" pan="0" len="24" vol="50" />
          <note key="77" pos="936" pan="0" len="72" vol="50" />
          <note key="77" pos="1008" pan="0" len="48" vol="50" />
          <note key="72" pos="1056" pan="0" len="24" vol="50" />
          <note key="75" pos="1080" pan="0" len="48" vol="50" />
          <note key="72" pos="1128" pan="0" len="24" vol="50" />
          <note key="77" pos="1152" pan="0" len="48" vol="50" />
          <note key="77" pos="1200" pan="0" len="48" vol="50" />
          <note key="72" pos="1248" pan="0" len="48" vol="50" />
          <note key="75" pos="1296" pan="0" len="24" vol="50" />
          <note key="77" pos="1320" pan="0" len="72" vol="50" />
          <note key="77" pos="1392" pan="0" len="48" vol="50" />
          <note key="72" pos="1440" pan="0" len="24" vol="50" />
          <note key="75" pos="1464" pan="0" len="48" vol="50" />
          <note key="72" pos="1512" pan="0" len="24" vol="50" />
        </pattern>
        <pattern pos="112128" muted="0" steps="16" name="" type="1">
          <note key="77" pos="0" pan="0" len="48" vol="50" />
          <note key="77" pos="48" pan="0" len="48" vol="50" />
          <note key="72" pos="96" pan="0" len="48" vol="50" />
          <note key="75" pos="144" pan="0" len="24" vol="50" />
          <note key="77" pos="168" pan="0" len="72" vol="50" />
          <note key="77" pos="240" pan="0" len="48" vol="50" />
          <note key="72" pos="288" pan="0" len="24" vol="50" />
          <note key="75" pos="312" pan="0" len="48" vol="50" />
          <note key="72" pos="360" pan="0" len="24" vol="50" />
          <note key="77" pos="384" pan="0" len="48" vol="50" />
          <note key="77" pos="432" pan="0" len="48" vol="50" />
          <note key="72" pos="480" pan="0" len="48" vol="50" />
          <note key="75" pos="528" pan="0" len="24" vol="50" />
          <note key="77" pos="552" pan="0" len="72" vol="50" />
          <note key="77" pos="624" pan="0" len="48" vol="50" />
          <note key="72" pos="672" pan="0" len="24" vol="50" />
          <note key="75" pos="696" pan="0" len="48" vol="50" />
          <note key="72" pos="744" pan="0" len="24" vol="50" />
          <note key="77" pos="768" pan="0" len="48" vol="50" />
          <note key="77" pos="816" pan="0" len="48" vol="50" />
          <note key="72" pos="864" pan="0" len="48" vol="50" />
          <note key="75" pos="912" pan="0" len="24" vol="50" />
          <note key="77" pos="936" pan="0" len="72" vol="50" />
          <note key="77" pos="1008" pan="0" len="48" vol="50" />
          <note key="72" pos="1056" pan="0" len="24" vol="50" />
          <note key="75" pos="1080" pan="0" len="48" vol="50" />
          <note key="72" pos="1128" pan="0" len="24" vol="50" />
          <note key="77" pos="1152" pan="0" len="48" vol="50" />
          <note key="77" pos="1200" pan="0" len="48" vol="50" />
          <note key="72" pos="1248" pan="0" len="48" vol="50" />
          <note key="75" pos="1296" pan="0" len="24" vol="50" />
          <note key="77" pos="1320" pan="0" len="72" vol="50" />
          <note key="77" pos="1392" pan="0" len="48" vol="50" />
          <note key="72" pos="1440" pan="0" len="24" vol="50" />
          <note key="75" pos="1464" pan="0" len="48" vol="50" />
          <note key="72" pos="1512" pan="0" len="24" vol="50" />
        </pattern>
        <pattern pos="236928" muted="0" steps="16" name="" type="1">
          <note key="67" pos="0" pan="0" len="96" vol="100" />
          <note key="76" pos="96" pan="0" len="48" vol="100" />
          <note key="72" pos="144" pan="0" len="96" vol="100" />
          <note key="74" pos="240" pan="0" len="48" vol="100" />
          <note key="67" pos="288" pan="0" len="96" vol="100" />
          <note key="65" pos="384" pan="0" len="24" vol="100" />
          <note key="67" pos="408" pan="0" len="24" vol="100" />
          <note key="72" pos="432" pan="0" len="96" vol="100" />
        </pattern>
        <pattern pos="237696" muted="0" steps="16" name="" type="1">
          <note key="75" pos="0" pan="0" len="12" vol="100" />
          <note key="78" pos="12" pan="0" len="12" vol="100" />
          <note key="80" pos="24" pan="0" len="24" vol="100" />
        </pattern>
      </track>
      <track solo="0" name="21 (Ch10)" type="0" muted="0">
        <instrumenttrack usemasterpitch="1" pitch="0.0" basenote="57" pan="0" pitchrange="12" vol="30">
          <eldata />
          <instrument name="tripleoscillator" />
        </instrumenttrack>
        <pattern pos="75264" muted="0" steps="16" name="" type="1">
          <note key="60" pos="0" pan="0" len="48" vol="100" />
          <note key="60" pos="48" pan="0" len="48" vol="38" />
          <note key="67" pos="96" pan="0" len="48" vol="88" />
          <note key="67" pos="144" pan="0" len="24" vol="33" />
          <note key="65" pos="168" pan="0" len="48" vol="78" />
          <note key="65" pos="216" pan="0" len="24" vol="30" />
          <note key="70" pos="240" pan="0" len="48" vol="69" />
          <note key="70" pos="288" pan="0" len="24" vol="25" />
          <note key="72" pos="312" pan="0" len="48" vol="59" />
          <note key="72" pos="360" pan="0" len="24" vol="22" />
          <note key="60" pos="384" pan="0" len="48" vol="50" />
          <note key="60" pos="432" pan="0" len="48" vol="17" />
          <note key="67" pos="480" pan="0" len="48" vol="38" />
          <note key="67" pos="528" pan="0" len="24" vol="12" />
          <note key="65" pos="552" pan="0" len="48" vol="28" />
          <note key="65" pos="600" pan="0" len="24" vol="9" />
          <note key="70" pos="624" pan="0" len="48" vol="19" />
          <note key="70" pos="672" pan="0" len="24" vol="5" />
          <note key="72" pos="696" pan="0" len="48" vol="9" />
          <note key="72" pos="744" pan="0" len="792" vol="2" />
        </pattern>
        <pattern pos="55296" muted="0" steps="16" name="" type="1">
          <note key="60" pos="0" pan="0" len="48" vol="2" />
          <note key="60" pos="48" pan="0" len="48" vol="2" />
          <note key="67" pos="96" pan="0" len="48" vol="8" />
          <note key="67" pos="144" pan="0" len="24" vol="5" />
          <note key="65" pos="168" pan="0" len="48" vol="12" />
          <note key="65" pos="216" pan="0" len="24" vol="8" />
          <note key="70" pos="240" pan="0" len="48" vol="17" />
          <note key="70" pos="288" pan="0" len="24" vol="9" />
          <note key="72" pos="312" pan="0" len="48" vol="22" />
          <note key="72" pos="360" pan="0" len="24" vol="12" />
          <note key="60" pos="384" pan="0" len="48" vol="28" />
          <note key="60" pos="432" pan="0" len="48" vol="8" />
          <note key="67" pos="480" pan="0" len="48" vol="34" />
          <note key="67" pos="528" pan="0" len="24" vol="19" />
          <note key="65" pos="552" pan="0" len="48" vol="39" />
          <note key="65" pos="600" pan="0" len="24" vol="22" />
          <note key="70" pos="624" pan="0" len="48" vol="44" />
          <note key="70" pos="672" pan="0" len="24" vol="23" />
          <note key="72" pos="696" pan="0" len="48" vol="48" />
          <note key="72" pos="744" pan="0" len="24" vol="23" />
          <note key="60" pos="768" pan="0" len="48" vol="53" />
          <note key="60" pos="816" pan="0" len="48" vol="23" />
          <note key="67" pos="864" pan="0" len="48" vol="59" />
          <note key="67" pos="912" pan="0" len="24" vol="31" />
          <note key="65" pos="936" pan="0" len="48" vol="64" />
          <note key="65" pos="984" pan="0" len="24" vol="34" />
          <note key="70" pos="1008" pan="0" len="48" vol="69" />
          <note key="70" pos="1056" pan="0" len="24" vol="34" />
          <note key="72" pos="1080" pan="0" len="48" vol="73" />
          <note key="72" pos="1128" pan="0" len="24" vol="34" />
          <note key="60" pos="1152" pan="0" len="48" vol="80" />
          <note key="60" pos="1200" pan="0" len="48" vol="38" />
          <note key="67" pos="1248" pan="0" len="48" vol="86" />
          <note key="67" pos="1296" pan="0" len="24" vol="34" />
          <note key="65" pos="1320" pan="0" len="48" vol="91" />
          <note key="65" pos="1368" pan="0" len="24" vol="34" />
          <note key="70" pos="1392" pan="0" len="48" vol="95" />
          <note key="70" pos="1440" pan="0" len="24" vol="34" />
          <note key="72" pos="1464" pan="0" len="48" vol="100" />
          <note key="72" pos="1512" pan="0" len="24" vol="41" />
        </pattern>
        <pattern pos="56832" muted="0" steps="16" name="" type="1">
          <note key="60" pos="0" pan="0" len="48" vol="100" />
          <note key="60" pos="48" pan="0" len="48" vol="41" />
          <note key="67" pos="96" pan="0" len="48" vol="100" />
          <note key="67" pos="144" pan="0" len="24" vol="41" />
          <note key="65" pos="168" pan="0" len="48" vol="100" />
          <note key="65" pos="216" pan="0" len="24" vol="41" />
          <note key="70" pos="240" pan="0" len="48" vol="100" />
          <note key="70" pos="288" pan="0" len="24" vol="41" />
          <note key="72" pos="312" pan="0" len="48" vol="100" />
          <note key="72" pos="360" pan="0" len="24" vol="41" />
          <note key="60" pos="384" pan="0" len="48" vol="100" />
          <note key="60" pos="432" pan="0" len="48" vol="41" />
          <note key="67" pos="480" pan="0" len="48" vol="100" />
          <note key="67" pos="528" pan="0" len="24" vol="41" />
          <note key="65" pos="552" pan="0" len="48" vol="100" />
          <note key="65" pos="600" pan="0" len="24" vol="41" />
          <note key="70" pos="624" pan="0" len="48" vol="100" />
          <note key="70" pos="672" pan="0" len="24" vol="41" />
          <note key="72" pos="696" pan="0" len="48" vol="100" />
          <note key="72" pos="744" pan="0" len="24" vol="41" />
          <note key="60" pos="768" pan="0" len="48" vol="100" />
          <note key="60" pos="816" pan="0" len="48" vol="41" />
          <note key="67" pos="864" pan="0" len="48" vol="100" />
          <note key="67" pos="912" pan="0" len="24" vol="41" />
          <note key="65" pos="936" pan="0" len="48" vol="100" />
          <note key="65" pos="984" pan="0" len="24" vol="41" />
          <note key="70" pos="1008" pan="0" len="48" vol="100" />
          <note key="70" pos="1056" pan="0" len="24" vol="41" />
          <note key="72" pos="1080" pan="0" len="48" vol="100" />
          <note key="72" pos="1128" pan="0" len="24" vol="41" />
          <note key="60" pos="1152" pan="0" len="48" vol="100" />
          <note key="60" pos="1200" pan="0" len="48" vol="41" />
          <note key="67" pos="1248" pan="0" len="48" vol="100" />
          <note key="67" pos="1296" pan="0" len="24" vol="41" />
          <note key="65" pos="1320" pan="0" len="48" vol="100" />
          <note key="65" pos="1368" pan="0" len="24" vol="41" />
          <note key="70" pos="1392" pan="0" len="48" vol="100" />
          <note key="70" pos="1440" pan="0" len="24" vol="41" />
          <note key="72" pos="1464" pan="0" len="48" vol="100" />
          <note key="72" pos="1512" pan="0" len="24" vol="41" />
        </pattern>
        <pattern pos="58368" muted="0" steps="16" name="" type="1">
          <note key="60" pos="0" pan="0" len="48" vol="100" />
          <note key="60" pos="48" pan="0" len="48" vol="41" />
          <note key="67" pos="96" pan="0" len="48" vol="100" />
          <note key="67" pos="144" pan="0" len="24" vol="41" />
          <note key="65" pos="168" pan="0" len="48" vol="100" />
          <note key="65" pos="216" pan="0" len="24" vol="41" />
          <note key="70" pos="240" pan="0" len="48" vol="100" />
          <note key="70" pos="288" pan="0" len="24" vol="41" />
          <note key="72" pos="312" pan="0" len="48" vol="100" />
          <note key="72" pos="360" pan="0" len="24" vol="41" />
          <note key="60" pos="384" pan="0" len="48" vol="100" />
          <note key="60" pos="432" pan="0" len="48" vol="41" />
          <note key="67" pos="480" pan="0" len="48" vol="100" />
          <note key="67" pos="528" pan="0" len="24" vol="41" />
          <note key="65" pos="552" pan="0" len="48" vol="100" />
          <note key="65" pos="600" pan="0" len="24" vol="41" />
          <note key="70" pos="624" pan="0" len="48" vol="100" />
          <note key="70" pos="672" pan="0" len="24" vol="41" />
          <note key="72" pos="696" pan="0" len="48" vol="100" />
          <note key="72" pos="744" pan="0" len="24" vol="41" />
          <note key="60" pos="768" pan="0" len="48" vol="100" />
          <note key="60" pos="816" pan="0" len="48" vol="41" />
          <note key="67" pos="864" pan="0" len="48" vol="100" />
          <note key="67" pos="912" pan="0" len="24" vol="41" />
          <note key="65" pos="936" pan="0" len="48" vol="100" />
          <note key="65" pos="984" pan="0" len="24" vol="41" />
          <note key="70" pos="1008" pan="0" len="48" vol="100" />
          <note key="70" pos="1056" pan="0" len="24" vol="41" />
          <note key="72" pos="1080" pan="0" len="48" vol="100" />
          <note key="72" pos="1128" pan="0" len="24" vol="41" />
          <note key="60" pos="1152" pan="0" len="48" vol="100" />
          <note key="60" pos="1200" pan="0" len="48" vol="41" />
          <note key="67" pos="1248" pan="0" len="48" vol="100" />
          <note key="67" pos="1296" pan="0" len="24" vol="41" />
          <note key="65" pos="1320" pan="0" len="48" vol="100" />
          <note key="65" pos="1368" pan="0" len="24" vol="41" />
          <note key="70" pos="1392" pan="0" len="48" vol="100" />
          <note key="70" pos="1440" pan="0" len="24" vol="41" />
          <note key="72" pos="1464" pan="0" len="48" vol="100" />
          <note key="72" pos="1512" pan="0" len="24" vol="41" />
        </pattern>
        <pattern pos="59904" muted="0" steps="16" name="" type="1">
          <note key="60" pos="0" pan="0" len="48" vol="100" />
          <note key="60" pos="48" pan="0" len="48" vol="41" />
          <note key="67" pos="96" pan="0" len="48" vol="100" />
          <note key="67" pos="144" pan="0" len="24" vol="41" />
          <note key="65" pos="168" pan="0" len="48" vol="100" />
          <note key="65" pos="216" pan="0" len="24" vol="41" />
          <note key="70" pos="240" pan="0" len="48" vol="100" />
          <note key="70" pos="288" pan="0" len="24" vol="41" />
          <note key="72" pos="312" pan="0" len="48" vol="100" />
          <note key="72" pos="360" pan="0" len="24" vol="41" />
          <note key="60" pos="384" pan="0" len="48" vol="100" />
          <note key="60" pos="432" pan="0" len="48" vol="41" />
          <note key="67" pos="480" pan="0" len="48" vol="100" />
          <note key="67" pos="528" pan="0" len="24" vol="41" />
          <note key="65" pos="552" pan="0" len="48" vol="100" />
          <note key="65" pos="600" pan="0" len="24" vol="41" />
          <note key="70" pos="624" pan="0" len="48" vol="100" />
          <note key="70" pos="672" pan="0" len="24" vol="41" />
          <note key="72" pos="696" pan="0" len="48" vol="100" />
          <note key="72" pos="744" pan="0" len="24" vol="41" />
          <note key="60" pos="768" pan="0" len="48" vol="100" />
          <note key="60" pos="816" pan="0" len="48" vol="41" />
          <note key="67" pos="864" pan="0" len="48" vol="100" />
          <note key="67" pos="912" pan="0" len="24" vol="41" />
          <note key="65" pos="936" pan="0" len="48" vol="100" />
          <note key="65" pos="984" pan="0" len="24" vol="41" />
          <note key="70" pos="1008" pan="0" len="48" vol="100" />
          <note key="70" pos="1056" pan="0" len="24" vol="41" />
          <note key="72" pos="1080" pan="0" len="48" vol="100" />
          <note key="72" pos="1128" pan="0" len="24" vol="41" />
          <note key="60" pos="1152" pan="0" len="48" vol="100" />
          <note key="60" pos="1200" pan="0" len="48" vol="41" />
          <note key="67" pos="1248" pan="0" len="48" vol="100" />
          <note key="67" pos="1296" pan="0" len="24" vol="41" />
          <note key="65" pos="1320" pan="0" len="48" vol="100" />
          <note key="65" pos="1368" pan="0" len="24" vol="41" />
          <note key="70" pos="1392" pan="0" len="48" vol="100" />
          <note key="70" pos="1440" pan="0" len="24" vol="41" />
          <note key="72" pos="1464" pan="0" len="48" vol="100" />
          <note key="72" pos="1512" pan="0" len="24" vol="41" />
        </pattern>
        <pattern pos="61440" muted="0" steps="16" name="" type="1">
          <note key="60" pos="0" pan="0" len="48" vol="100" />
          <note key="60" pos="48" pan="0" len="48" vol="41" />
          <note key="67" pos="96" pan="0" len="48" vol="100" />
          <note key="67" pos="144" pan="0" len="24" vol="41" />
          <note key="65" pos="168" pan="0" len="48" vol="100" />
          <note key="65" pos="216" pan="0" len="24" vol="41" />
          <note key="70" pos="240" pan="0" len="48" vol="100" />
          <note key="70" pos="288" pan="0" len="24" vol="41" />
          <note key="72" pos="312" pan="0" len="48" vol="100" />
          <note key="72" pos="360" pan="0" len="24" vol="41" />
          <note key="60" pos="384" pan="0" len="48" vol="100" />
          <note key="60" pos="432" pan="0" len="48" vol="41" />
          <note key="67" pos="480" pan="0" len="48" vol="100" />
          <note key="67" pos="528" pan="0" len="24" vol="41" />
          <note key="65" pos="552" pan="0" len="48" vol="100" />
          <note key="65" pos="600" pan="0" len="24" vol="41" />
          <note key="70" pos="624" pan="0" len="48" vol="100" />
          <note key="70" pos="672" pan="0" len="24" vol="41" />
          <note key="72" pos="696" pan="0" len="48" vol="100" />
          <note key="72" pos="744" pan="0" len="24" vol="41" />
          <note key="60" pos="768" pan="0" len="48" vol="100" />
          <note key="60" pos="816" pan="0" len="48" vol="41" />
          <note key="67" pos="864" pan="0" len="48" vol="100" />
          <note key="67" pos="912" pan="0" len="24" vol="41" />
          <note key="65" pos="936" pan="0" len="48" vol="100" />
          <note key="65" pos="984" pan="0" len="24" vol="41" />
          <note key="70" pos="1008" pan="0" len="48" vol="100" />
          <note key="70" pos="1056" pan="0" len="24" vol="41" />
          <note key="72" pos="1080" pan="0" len="48" vol="100" />
          <note key="72" pos="1128" pan="0" len="24" vol="41" />
          <note key="60" pos="1152" pan="0" len="48" vol="100" />
          <note key="60" pos="1200" pan="0" len="48" vol="41" />
          <note key="67" pos="1248" pan="0" len="48" vol="100" />
          <note key="67" pos="1296" pan="0" len="24" vol="41" />
          <note key="65" pos="1320" pan="0" len="48" vol="100" />
          <note key="65" pos="1368" pan="0" len="24" vol="41" />
          <note key="70" pos="1392" pan="0" len="48" vol="100" />
          <note key="70" pos="1440" pan="0" len="24" vol="41" />
          <note key="72" pos="1464" pan="0" len="48" vol="100" />
          <note key="72" pos="1512" pan="0" len="24" vol="41" />
        </pattern>
        <pattern pos="62976" muted="0" steps="16" name="" type="1">
          <note key="60" pos="0" pan="0" len="48" vol="100" />
          <note key="60" pos="48" pan="0" len="48" vol="41" />
          <note key="67" pos="96" pan="0" len="48" vol="100" />
          <note key="67" pos="144" pan="0" len="24" vol="41" />
          <note key="65" pos="168" pan="0" len="48" vol="100" />
          <note key="65" pos="216" pan="0" len="24" vol="41" />
          <note key="70" pos="240" pan="0" len="48" vol="100" />
          <note key="70" pos="288" pan="0" len="24" vol="41" />
          <note key="72" pos="312" pan="0" len="48" vol="100" />
          <note key="72" pos="360" pan="0" len="24" vol="41" />
          <note key="60" pos="384" pan="0" len="48" vol="100" />
          <note key="60" pos="432" pan="0" len="48" vol="41" />
          <note key="67" pos="480" pan="0" len="48" vol="100" />
          <note key="67" pos="528" pan="0" len="24" vol="41" />
          <note key="65" pos="552" pan="0" len="48" vol="100" />
          <note key="65" pos="600" pan="0" len="24" vol="41" />
          <note key="70" pos="624" pan="0" len="48" vol="100" />
          <note key="70" pos="672" pan="0" len="24" vol="41" />
          <note key="72" pos="696" pan="0" len="48" vol="100" />
          <note key="72" pos="744" pan="0" len="24" vol="41" />
          <note key="60" pos="768" pan="0" len="48" vol="100" />
          <note key="60" pos="816" pan="0" len="48" vol="41" />
          <note key="67" pos="864" pan="0" len="48" vol="100" />
          <note key="67" pos="912" pan="0" len="24" vol="41" />
          <note key="65" pos="936" pan="0" len="48" vol="100" />
          <note key="65" pos="984" pan="0" len="24" vol="41" />
          <note key="70" pos="1008" pan="0" len="48" vol="100" />
          <note key="70" pos="1056" pan="0" len="24" vol="41" />
          <note key="72" pos="1080" pan="0" len="48" vol="100" />
          <note key="72" pos="1128" pan="0" len="24" vol="41" />
          <note key="60" pos="1152" pan="0" len="48" vol="100" />
          <note key="60" pos="1200" pan="0" len="48" vol="41" />
          <note key="67" pos="1248" pan="0" len="48" vol="100" />
          <note key="67" pos="1296" pan="0" len="24" vol="41" />
          <note key="65" pos="1320" pan="0" len="48" vol="100" />
          <note key="65" pos="1368" pan="0" len="24" vol="41" />
          <note key="70" pos="1392" pan="0" len="48" vol="100" />
          <note key="70" pos="1440" pan="0" len="24" vol="41" />
          <note key="72" pos="1464" pan="0" len="48" vol="100" />
          <note key="72" pos="1512" pan="0" len="24" vol="41" />
        </pattern>
        <pattern pos="64512" muted="0" steps="16" name="" type="1">
          <note key="60" pos="0" pan="0" len="48" vol="100" />
          <note key="60" pos="48" pan="0" len="48" vol="41" />
          <note key="67" pos="96" pan="0" len="48" vol="100" />
          <note key="67" pos="144" pan="0" len="24" vol="41" />
          <note key="65" pos="168" pan="0" len="48" vol="100" />
          <note key="65" pos="216" pan="0" len="24" vol="41" />
          <note key="70" pos="240" pan="0" len="48" vol="100" />
          <note key="70" pos="288" pan="0" len="24" vol="41" />
          <note key="72" pos="312" pan="0" len="48" vol="100" />
          <note key="72" pos="360" pan="0" len="24" vol="41" />
          <note key="60" pos="384" pan="0" len="48" vol="100" />
          <note key="60" pos="432" pan="0" len="48" vol="41" />
          <note key="67" pos="480" pan="0" len="48" vol="100" />
          <note key="67" pos="528" pan="0" len="24" vol="41" />
          <note key="65" pos="552" pan="0" len="48" vol="100" />
          <note key="65" pos="600" pan="0" len="24" vol="41" />
          <note key="70" pos="624" pan="0" len="48" vol="100" />
          <note key="70" pos="672" pan="0" len="24" vol="41" />
          <note key="72" pos="696" pan="0" len="48" vol="100" />
          <note key="72" pos="744" pan="0" len="24" vol="41" />
          <note key="60" pos="768" pan="0" len="48" vol="100" />
          <note key="60" pos="816" pan="0" len="48" vol="41" />
          <note key="67" pos="864" pan="0" len="48" vol="100" />
          <note key="67" pos="912" pan="0" len="24" vol="41" />
          <note key="65" pos="936" pan="0" len="48" vol="100" />
          <note key="65" pos="984" pan="0" len="24" vol="41" />
          <note key="70" pos="1008" pan="0" len="48" vol="100" />
          <note key="70" pos="1056" pan="0" len="24" vol="41" />
          <note key="72" pos="1080" pan="0" len="48" vol="100" />
          <note key="72" pos="1128" pan="0" len="24" vol="41" />
          <note key="60" pos="1152" pan="0" len="48" vol="100" />
          <note key="60" pos="1200" pan="0" len="48" vol="41" />
          <note key="67" pos="1248" pan="0" len="48" vol="100" />
          <note key="67" pos="1296" pan="0" len="24" vol="41" />
          <note key="65" pos="1320" pan="0" len="48" vol="100" />
          <note key="65" pos="1368" pan="0" len="24" vol="41" />
          <note key="70" pos="1392" pan="0" len="48" vol="100" />
          <note key="70" pos="1440" pan="0" len="24" vol="41" />
          <note key="72" pos="1464" pan="0" len="48" vol="100" />
          <note key="72" pos="1512" pan="0" len="24" vol="41" />
        </pattern>
        <pattern pos="66048" muted="0" steps="16" name="" type="1">
          <note key="60" pos="0" pan="0" len="48" vol="100" />
          <note key="60" pos="48" pan="0" len="48" vol="41" />
          <note key="67" pos="96" pan="0" len="48" vol="100" />
          <note key="67" pos="144" pan="0" len="24" vol="41" />
          <note key="65" pos="168" pan="0" len="48" vol="100" />
          <note key="65" pos="216" pan="0" len="24" vol="41" />
          <note key="70" pos="240" pan="0" len="48" vol="100" />
          <note key="70" pos="288" pan="0" len="24" vol="41" />
          <note key="72" pos="312" pan="0" len="48" vol="100" />
          <note key="72" pos="360" pan="0" len="24" vol="41" />
          <note key="60" pos="384" pan="0" len="48" vol="100" />
          <note key="60" pos="432" pan="0" len="48" vol="41" />
          <note key="67" pos="480" pan="0" len="48" vol="100" />
          <note key="67" pos="528" pan="0" len="24" vol="41" />
          <note key="65" pos="552" pan="0" len="48" vol="100" />
          <note key="65" pos="600" pan="0" len="24" vol="41" />
          <note key="70" pos="624" pan="0" len="48" vol="100" />
          <note key="70" pos="672" pan="0" len="24" vol="41" />
          <note key="72" pos="696" pan="0" len="48" vol="100" />
          <note key="72" pos="744" pan="0" len="24" vol="41" />
          <note key="60" pos="768" pan="0" len="48" vol="100" />
          <note key="60" pos="816" pan="0" len="48" vol="41" />
          <note key="67" pos="864" pan="0" len="48" vol="100" />
          <note key="67" pos="912" pan="0" len="24" vol="41" />
          <note key="65" pos="936" pan="0" len="48" vol="100" />
          <note key="65" pos="984" pan="0" len="24" vol="41" />
          <note key="70" pos="1008" pan="0" len="48" vol="100" />
          <note key="70" pos="1056" pan="0" len="24" vol="41" />
          <note key="72" pos="1080" pan="0" len="48" vol="100" />
          <note key="72" pos="1128" pan="0" len="24" vol="41" />
          <note key="60" pos="1152" pan="0" len="48" vol="100" />
          <note key="60" pos="1200" pan="0" len="48" vol="41" />
          <note key="67" pos="1248" pan="0" len="48" vol="100" />
          <note key="67" pos="1296" pan="0" len="24" vol="41" />
          <note key="65" pos="1320" pan="0" len="48" vol="100" />
          <note key="65" pos="1368" pan="0" len="24" vol="41" />
          <note key="70" pos="1392" pan="0" len="48" vol="100" />
          <note key="70" pos="1440" pan="0" len="24" vol="41" />
          <note key="72" pos="1464" pan="0" len="48" vol="100" />
          <note key="72" pos="1512" pan="0" len="24" vol="41" />
        </pattern>
        <pattern pos="67584" muted="0" steps="16" name="" type="1">
          <note key="60" pos="0" pan="0" len="48" vol="100" />
          <note key="60" pos="48" pan="0" len="48" vol="41" />
          <note key="67" pos="96" pan="0" len="48" vol="100" />
          <note key="67" pos="144" pan="0" len="24" vol="41" />
          <note key="65" pos="168" pan="0" len="48" vol="100" />
          <note key="65" pos="216" pan="0" len="24" vol="41" />
          <note key="70" pos="240" pan="0" len="48" vol="100" />
          <note key="70" pos="288" pan="0" len="24" vol="41" />
          <note key="72" pos="312" pan="0" len="48" vol="100" />
          <note key="72" pos="360" pan="0" len="24" vol="41" />
          <note key="60" pos="384" pan="0" len="48" vol="100" />
          <note key="60" pos="432" pan="0" len="48" vol="41" />
          <note key="67" pos="480" pan="0" len="48" vol="100" />
          <note key="67" pos="528" pan="0" len="24" vol="41" />
          <note key="65" pos="552" pan="0" len="48" vol="100" />
          <note key="65" pos="600" pan="0" len="24" vol="41" />
          <note key="70" pos="624" pan="0" len="48" vol="100" />
          <note key="70" pos="672" pan="0" len="24" vol="41" />
          <note key="72" pos="696" pan="0" len="48" vol="100" />
          <note key="72" pos="744" pan="0" len="24" vol="41" />
          <note key="60" pos="768" pan="0" len="48" vol="100" />
          <note key="60" pos="816" pan="0" len="48" vol="41" />
          <note key="67" pos="864" pan="0" len="48" vol="100" />
          <note key="67" pos="912" pan="0" len="24" vol="41" />
          <note key="65" pos="936" pan="0" len="48" vol="100" />
          <note key="65" pos="984" pan="0" len="24" vol="41" />
          <note key="70" pos="1008" pan="0" len="48" vol="100" />
          <note key="70" pos="1056" pan="0" len="24" vol="41" />
          <note key="72" pos="1080" pan="0" len="48" vol="100" />
          <note key="72" pos="1128" pan="0" len="24" vol="41" />
          <note key="60" pos="1152" pan="0" len="48" vol="100" />
          <note key="60" pos="1200" pan="0" len="48" vol="41" />
          <note key="67" pos="1248" pan="0" len="48" vol="100" />
          <note key="67" pos="1296" pan="0" len="24" vol="41" />
          <note key="65" pos="1320" pan="0" len="48" vol="100" />
          <note key="65" pos="1368" pan="0" len="24" vol="41" />
          <note key="70" pos="1392" pan="0" len="48" vol="100" />
          <note key="70" pos="1440" pan="0" len="24" vol="41" />
          <note key="72" pos="1464" pan="0" len="48" vol="100" />
          <note key="72" pos="1512" pan="0" len="24" vol="41" />
        </pattern>
        <pattern pos="69120" muted="0" steps="16" name="" type="1">
          <note key="60" pos="0" pan="0" len="48" vol="100" />
          <note key="60" pos="48" pan="0" len="48" vol="41" />
          <note key="67" pos="96" pan="0" len="48" vol="100" />
          <note key="67" pos="144" pan="0" len="24" vol="41" />
          <note key="65" pos="168" pan="0" len="48" vol="100" />
          <note key="65" pos="216" pan="0" len="24" vol="41" />
          <note key="70" pos="240" pan="0" len="48" vol="100" />
          <note key="70" pos="288" pan="0" len="24" vol="41" />
          <note key="72" pos="312" pan="0" len="48" vol="100" />
          <note key="72" pos="360" pan="0" len="24" vol="41" />
          <note key="60" pos="384" pan="0" len="48" vol="100" />
          <note key="60" pos="432" pan="0" len="48" vol="41" />
          <note key="67" pos="480" pan="0" len="48" vol="100" />
          <note key="67" pos="528" pan="0" len="24" vol="41" />
          <note key="65" pos="552" pan="0" len="48" vol="100" />
          <note key="65" pos="600" pan="0" len="24" vol="41" />
          <note key="70" pos="624" pan="0" len="48" vol="100" />
          <note key="70" pos="672" pan="0" len="24" vol="41" />
          <note key="72" pos="696" pan="0" len="48" vol="100" />
          <note key="72" pos="744" pan="0" len="24" vol="41" />
          <note key="60" pos="768" pan="0" len="48" vol="100" />
          <note key="60" pos="816" pan="0" len="48" vol="41" />
          <note key="67" pos="864" pan="0" len="48" vol="100" />
          <note key="67" pos="912" pan="0" len="24" vol="41" />
          <note key="65" pos="936" pan="0" len="48" vol="100" />
          <note key="65" pos="984" pan="0" len="24" vol="41" />
          <note key="70" pos="1008" pan="0" len="48" vol="100" />
          <note key="70" pos="1056" pan="0" len="24" vol="41" />
          <note key="72" pos="1080" pan="0" len="48" vol="100" />
          <note key="72" pos="1128" pan="0" len="24" vol="41" />
          <note key="60" pos="1152" pan="0" len="48" vol="100" />
          <note key="60" pos="1200" pan="0" len="48" vol="41" />
          <note key="67" pos="1248" pan="0" len="48" vol="100" />
          <note key="67" pos="1296" pan="0" len="24" vol="41" />
          <note key="65" pos="1320" pan="0" len="48" vol="100" />
          <note key="65" pos="1368" pan="0" len="24" vol="41" />
          <note key="70" pos="1392" pan="0" len="48" vol="100" />
          <note key="70" pos="1440" pan="0" len="24" vol="41" />
          <note key="72" pos="1464" pan="0" len="48" vol="100" />
          <note key="72" pos="1512" pan="0" len="24" vol="41" />
        </pattern>
        <pattern pos="70656" muted="0" steps="16" name="" type="1">
          <note key="60" pos="0" pan="0" len="48" vol="100" />
          <note key="60" pos="48" pan="0" len="48" vol="41" />
          <note key="67" pos="96" pan="0" len="48" vol="100" />
          <note key="67" pos="144" pan="0" len="24" vol="41" />
          <note key="65" pos="168" pan="0" len="48" vol="100" />
          <note key="65" pos="216" pan="0" len="24" vol="41" />
          <note key="70" pos="240" pan="0" len="48" vol="100" />
          <note key="70" pos="288" pan="0" len="24" vol="41" />
          <note key="72" pos="312" pan="0" len="48" vol="100" />
          <note key="72" pos="360" pan="0" len="24" vol="41" />
          <note key="60" pos="384" pan="0" len="48" vol="100" />
          <note key="60" pos="432" pan="0" len="48" vol="41" />
          <note key="67" pos="480" pan="0" len="48" vol="100" />
          <note key="67" pos="528" pan="0" len="24" vol="41" />
          <note key="65" pos="552" pan="0" len="48" vol="100" />
          <note key="65" pos="600" pan="0" len="24" vol="41" />
          <note key="70" pos="624" pan="0" len="48" vol="100" />
          <note key="70" pos="672" pan="0" len="24" vol="41" />
          <note key="72" pos="696" pan="0" len="48" vol="100" />
          <note key="72" pos="744" pan="0" len="24" vol="41" />
          <note key="60" pos="768" pan="0" len="48" vol="100" />
          <note key="60" pos="816" pan="0" len="48" vol="41" />
          <note key="67" pos="864" pan="0" len="48" vol="100" />
          <note key="67" pos="912" pan="0" len="24" vol="41" />
          <note key="65" pos="936" pan="0" len="48" vol="100" />
          <note key="65" pos="984" pan="0" len="24" vol="41" />
          <note key="70" pos="1008" pan="0" len="48" vol="100" />
          <note key="70" pos="1056" pan="0" len="24" vol="41" />
          <note key="72" pos="1080" pan="0" len="48" vol="100" />
          <note key="72" pos="1128" pan="0" len="24" vol="41" />
          <note key="60" pos="1152" pan="0" len="48" vol="100" />
          <note key="60" pos="1200" pan="0" len="48" vol="41" />
          <note key="67" pos="1248" pan="0" len="48" vol="100" />
          <note key="67" pos="1296" pan="0" len="24" vol="41" />
          <note key="65" pos="1320" pan="0" len="48" vol="100" />
          <note key="65" pos="1368" pan="0" len="24" vol="41" />
          <note key="70" pos="1392" pan="0" len="48" vol="100" />
          <note key="70" pos="1440" pan="0" len="24" vol="41" />
          <note key="72" pos="1464" pan="0" len="48" vol="100" />
          <note key="72" pos="1512" pan="0" len="24" vol="41" />
        </pattern>
        <pattern pos="72192" muted="0" steps="16" name="" type="1">
          <note key="60" pos="0" pan="0" len="48" vol="100" />
          <note key="60" pos="48" pan="0" len="48" vol="41" />
          <note key="67" pos="96" pan="0" len="48" vol="100" />
          <note key="67" pos="144" pan="0" len="24" vol="41" />
          <note key="65" pos="168" pan="0" len="48" vol="100" />
          <note key="65" pos="216" pan="0" len="24" vol="41" />
          <note key="70" pos="240" pan="0" len="48" vol="100" />
          <note key="70" pos="288" pan="0" len="24" vol="41" />
          <note key="72" pos="312" pan="0" len="48" vol="100" />
          <note key="72" pos="360" pan="0" len="24" vol="41" />
          <note key="60" pos="384" pan="0" len="48" vol="100" />
          <note key="60" pos="432" pan="0" len="48" vol="41" />
          <note key="67" pos="480" pan="0" len="48" vol="100" />
          <note key="67" pos="528" pan="0" len="24" vol="41" />
          <note key="65" pos="552" pan="0" len="48" vol="100" />
          <note key="65" pos="600" pan="0" len="24" vol="41" />
          <note key="70" pos="624" pan="0" len="48" vol="100" />
          <note key="70" pos="672" pan="0" len="24" vol="41" />
          <note key="72" pos="696" pan="0" len="48" vol="100" />
          <note key="72" pos="744" pan="0" len="24" vol="41" />
          <note key="60" pos="768" pan="0" len="48" vol="100" />
          <note key="60" pos="816" pan="0" len="48" vol="41" />
          <note key="67" pos="864" pan="0" len="48" vol="100" />
          <note key="67" pos="912" pan="0" len="24" vol="41" />
          <note key="65" pos="936" pan="0" len="48" vol="100" />
          <note key="65" pos="984" pan="0" len="24" vol="41" />
          <note key="70" pos="1008" pan="0" len="48" vol="100" />
          <note key="70" pos="1056" pan="0" len="24" vol="41" />
          <note key="72" pos="1080" pan="0" len="48" vol="100" />
          <note key="72" pos="1128" pan="0" len="24" vol="41" />
          <note key="60" pos="1152" pan="0" len="48" vol="100" />
          <note key="60" pos="1200" pan="0" len="48" vol="41" />
          <note key="67" pos="1248" pan="0" len="48" vol="100" />
          <note key="67" pos="1296" pan="0" len="24" vol="41" />
          <note key="65" pos="1320" pan="0" len="48" vol="100" />
          <note key="65" pos="1368" pan="0" len="24" vol="41" />
          <note key="70" pos="1392" pan="0" len="48" vol="100" />
          <note key="70" pos="1440" pan="0" len="24" vol="41" />
          <note key="72" pos="1464" pan="0" len="48" vol="100" />
          <note key="72" pos="1512" pan="0" len="24" vol="41" />
        </pattern>
        <pattern pos="73728" muted="0" steps="16" name="" type="1">
          <note key="60" pos="0" pan="0" len="48" vol="100" />
          <note key="60" pos="48" pan="0" len="48" vol="41" />
          <note key="67" pos="96" pan="0" len="48" vol="100" />
          <note key="67" pos="144" pan="0" len="24" vol="41" />
          <note key="65" pos="168" pan="0" len="48" vol="100" />
          <note key="65" pos="216" pan="0" len="24" vol="41" />
          <note key="70" pos="240" pan="0" len="48" vol="100" />
          <note key="70" pos="288" pan="0" len="24" vol="41" />
          <note key="72" pos="312" pan="0" len="48" vol="100" />
          <note key="72" pos="360" pan="0" len="24" vol="41" />
          <note key="60" pos="384" pan="0" len="48" vol="100" />
          <note key="60" pos="432" pan="0" len="48" vol="41" />
          <note key="67" pos="480" pan="0" len="48" vol="100" />
          <note key="67" pos="528" pan="0" len="24" vol="41" />
          <note key="65" pos="552" pan="0" len="48" vol="100" />
          <note key="65" pos="600" pan="0" len="24" vol="41" />
          <note key="70" pos="624" pan="0" len="48" vol="100" />
          <note key="70" pos="672" pan="0" len="24" vol="41" />
          <note key="72" pos="696" pan="0" len="48" vol="100" />
          <note key="72" pos="744" pan="0" len="24" vol="41" />
          <note key="60" pos="768" pan="0" len="48" vol="100" />
          <note key="60" pos="816" pan="0" len="48" vol="41" />
          <note key="67" pos="864" pan="0" len="48" vol="100" />
          <note key="67" pos="912" pan="0" len="24" vol="41" />
          <note key="65" pos="936" pan="0" len="48" vol="100" />
          <note key="65" pos="984" pan="0" len="24" vol="41" />
          <note key="70" pos="1008" pan="0" len="48" vol="100" />
          <note key="70" pos="1056" pan="0" len="24" vol="41" />
          <note key="72" pos="1080" pan="0" len="48" vol="100" />
          <note key="72" pos="1128" pan="0" len="24" vol="41" />
          <note key="60" pos="1152" pan="0" len="48" vol="100" />
          <note key="60" pos="1200" pan="0" len="48" vol="41" />
          <note key="67" pos="1248" pan="0" len="48" vol="100" />
          <note key="67" pos="1296" pan="0" len="24" vol="41" />
          <note key="65" pos="1320" pan="0" len="48" vol="100" />
          <note key="65" pos="1368" pan="0" len="24" vol="41" />
          <note key="70" pos="1392" pan="0" len="48" vol="100" />
          <note key="70" pos="1440" pan="0" len="24" vol="41" />
          <note key="72" pos="1464" pan="0" len="48" vol="100" />
          <note key="72" pos="1512" pan="0" len="24" vol="41" />
        </pattern>
      </track>
      <track solo="0" name="21 (Ch13)" type="0" muted="0">
        <instrumenttrack usemasterpitch="1" pitch="0.0" basenote="57" pan="0" pitchrange="12" vol="30">
          <eldata />
          <instrument name="tripleoscillator" />
        </instrumenttrack>
        <pattern pos="135168" muted="0" steps="16" name="" type="1">
          <note key="72" pos="0" pan="0" len="1536" vol="100" />
        </pattern>
        <pattern pos="107520" muted="0" steps="16" name="" type="1">
          <note key="74" pos="0" pan="0" len="72" vol="100" />
          <note key="74" pos="72" pan="0" len="72" vol="100" />
          <note key="72" pos="144" pan="0" len="48" vol="100" />
          <note key="74" pos="192" pan="0" len="144" vol="100" />
          <note key="77" pos="336" pan="0" len="24" vol="100" />
          <note key="76" pos="360" pan="0" len="24" vol="100" />
          <note key="77" pos="384" pan="0" len="72" vol="100" />
          <note key="74" pos="456" pan="0" len="72" vol="100" />
          <note key="72" pos="528" pan="0" len="48" vol="100" />
          <note key="74" pos="576" pan="0" len="192" vol="100" />
          <note key="81" pos="768" pan="0" len="72" vol="100" />
          <note key="81" pos="840" pan="0" len="72" vol="100" />
          <note key="79" pos="912" pan="0" len="24" vol="100" />
          <note key="81" pos="936" pan="0" len="24" vol="100" />
          <note key="79" pos="960" pan="0" len="144" vol="100" />
          <note key="84" pos="1104" pan="0" len="24" vol="17" />
          <note key="84" pos="1128" pan="0" len="24" vol="34" />
          <note key="84" pos="1152" pan="0" len="24" vol="100" />
          <note key="83" pos="1176" pan="0" len="24" vol="100" />
          <note key="79" pos="1200" pan="0" len="24" vol="100" />
          <note key="81" pos="1224" pan="0" len="312" vol="100" />
        </pattern>
        <pattern pos="109056" muted="0" steps="16" name="" type="1">
          <note key="74" pos="0" pan="0" len="72" vol="100" />
          <note key="74" pos="72" pan="0" len="72" vol="100" />
          <note key="72" pos="144" pan="0" len="48" vol="100" />
          <note key="74" pos="192" pan="0" len="144" vol="100" />
          <note key="81" pos="336" pan="0" len="24" vol="100" />
          <note key="79" pos="360" pan="0" len="24" vol="100" />
          <note key="81" pos="384" pan="0" len="72" vol="100" />
          <note key="81" pos="456" pan="0" len="72" vol="100" />
          <note key="79" pos="528" pan="0" len="24" vol="100" />
          <note key="81" pos="552" pan="0" len="24" vol="100" />
          <note key="79" pos="576" pan="0" len="192" vol="100" />
          <note key="74" pos="768" pan="0" len="72" vol="100" />
          <note key="74" pos="840" pan="0" len="72" vol="100" />
          <note key="72" pos="912" pan="0" len="48" vol="100" />
          <note key="74" pos="960" pan="0" len="144" vol="100" />
          <note key="77" pos="1104" pan="0" len="24" vol="17" />
          <note key="77" pos="1128" pan="0" len="24" vol="34" />
          <note key="77" pos="1152" pan="0" len="24" vol="100" />
          <note key="76" pos="1176" pan="0" len="24" vol="100" />
          <note key="72" pos="1200" pan="0" len="24" vol="100" />
          <note key="74" pos="1224" pan="0" len="312" vol="100" />
        </pattern>
        <pattern pos="132096" muted="0" steps="16" name="" type="1">
          <note key="72" pos="0" pan="0" len="72" vol="100" />
          <note key="72" pos="72" pan="0" len="72" vol="100" />
          <note key="70" pos="144" pan="0" len="48" vol="100" />
          <note key="72" pos="192" pan="0" len="144" vol="100" />
          <note key="75" pos="336" pan="0" len="24" vol="100" />
          <note key="74" pos="360" pan="0" len="24" vol="100" />
          <note key="75" pos="384" pan="0" len="72" vol="100" />
          <note key="72" pos="456" pan="0" len="72" vol="100" />
          <note key="70" pos="528" pan="0" len="48" vol="100" />
          <note key="72" pos="576" pan="0" len="192" vol="100" />
          <note key="79" pos="768" pan="0" len="72" vol="100" />
          <note key="79" pos="840" pan="0" len="72" vol="100" />
          <note key="77" pos="912" pan="0" len="24" vol="100" />
          <note key="79" pos="936" pan="0" len="24" vol="100" />
          <note key="77" pos="960" pan="0" len="144" vol="100" />
          <note key="82" pos="1104" pan="0" len="24" vol="17" />
          <note key="82" pos="1128" pan="0" len="24" vol="34" />
          <note key="82" pos="1152" pan="0" len="24" vol="100" />
          <note key="81" pos="1176" pan="0" len="24" vol="100" />
          <note key="77" pos="1200" pan="0" len="24" vol="100" />
          <note key="79" pos="1224" pan="0" len="312" vol="100" />
        </pattern>
        <pattern pos="133632" muted="0" steps="16" name="" type="1">
          <note key="72" pos="0" pan="0" len="72" vol="100" />
          <note key="72" pos="72" pan="0" len="72" vol="100" />
          <note key="70" pos="144" pan="0" len="48" vol="100" />
          <note key="72" pos="192" pan="0" len="144" vol="100" />
          <note key="79" pos="336" pan="0" len="24" vol="100" />
          <note key="77" pos="360" pan="0" len="24" vol="100" />
          <note key="79" pos="384" pan="0" len="72" vol="100" />
          <note key="79" pos="456" pan="0" len="72" vol="100" />
          <note key="77" pos="528" pan="0" len="24" vol="100" />
          <note key="79" pos="552" pan="0" len="24" vol="100" />
          <note key="77" pos="576" pan="0" len="192" vol="100" />
          <note key="72" pos="768" pan="0" len="72" vol="100" />
          <note key="72" pos="840" pan="0" len="72" vol="100" />
          <note key="70" pos="912" pan="0" len="48" vol="100" />
          <note key="72" pos="960" pan="0" len="144" vol="100" />
          <note key="75" pos="1104" pan="0" len="24" vol="17" />
          <note key="75" pos="1128" pan="0" len="24" vol="34" />
          <note key="75" pos="1152" pan="0" len="24" vol="100" />
          <note key="74" pos="1176" pan="0" len="24" vol="100" />
          <note key="70" pos="1200" pan="0" len="24" vol="100" />
          <note key="72" pos="1224" pan="0" len="72" vol="100" />
          <note key="87" pos="1296" pan="0" len="24" vol="17" />
          <note key="87" pos="1320" pan="0" len="24" vol="34" />
          <note key="87" pos="1344" pan="0" len="24" vol="100" />
          <note key="86" pos="1368" pan="0" len="24" vol="100" />
          <note key="82" pos="1392" pan="0" len="24" vol="100" />
          <note key="84" pos="1416" pan="0" len="72" vol="100" />
          <note key="67" pos="1488" pan="0" len="24" vol="100" />
          <note key="70" pos="1512" pan="0" len="24" vol="100" />
        </pattern>
      </track>
      <track solo="0" name="21 (Ch14)" type="0" muted="0">
        <instrumenttrack usemasterpitch="1" pitch="0.0" basenote="57" pan="0" pitchrange="12" vol="30">
          <eldata />
          <instrument name="tripleoscillator" />
        </instrumenttrack>
        <pattern pos="75264" muted="0" steps="16" name="" type="1">
          <note key="72" pos="0" pan="0" len="12" vol="100" />
          <note key="77" pos="24" pan="0" len="12" vol="98" />
          <note key="79" pos="48" pan="0" len="12" vol="97" />
          <note key="82" pos="72" pan="0" len="12" vol="95" />
          <note key="72" pos="96" pan="0" len="12" vol="94" />
          <note key="77" pos="120" pan="0" len="12" vol="92" />
          <note key="79" pos="144" pan="0" len="12" vol="91" />
          <note key="82" pos="168" pan="0" len="12" vol="89" />
          <note key="72" pos="192" pan="0" len="12" vol="88" />
          <note key="77" pos="216" pan="0" len="12" vol="86" />
          <note key="79" pos="240" pan="0" len="12" vol="84" />
          <note key="84" pos="264" pan="0" len="12" vol="83" />
          <note key="72" pos="288" pan="0" len="12" vol="81" />
          <note key="77" pos="312" pan="0" len="12" vol="80" />
          <note key="79" pos="336" pan="0" len="12" vol="78" />
          <note key="84" pos="360" pan="0" len="12" vol="77" />
          <note key="72" pos="384" pan="0" len="12" vol="75" />
          <note key="77" pos="408" pan="0" len="12" vol="73" />
          <note key="79" pos="432" pan="0" len="12" vol="72" />
          <note key="82" pos="456" pan="0" len="12" vol="70" />
          <note key="72" pos="480" pan="0" len="12" vol="69" />
          <note key="77" pos="504" pan="0" len="12" vol="67" />
          <note key="79" pos="528" pan="0" len="12" vol="66" />
          <note key="82" pos="552" pan="0" len="12" vol="64" />
          <note key="72" pos="576" pan="0" len="12" vol="62" />
          <note key="77" pos="600" pan="0" len="12" vol="61" />
          <note key="79" pos="624" pan="0" len="12" vol="59" />
          <note key="84" pos="648" pan="0" len="12" vol="58" />
          <note key="72" pos="672" pan="0" len="12" vol="56" />
          <note key="77" pos="696" pan="0" len="12" vol="55" />
          <note key="79" pos="720" pan="0" len="12" vol="53" />
          <note key="84" pos="744" pan="0" len="12" vol="52" />
          <note key="72" pos="768" pan="0" len="12" vol="50" />
          <note key="77" pos="792" pan="0" len="12" vol="48" />
          <note key="79" pos="816" pan="0" len="12" vol="47" />
          <note key="82" pos="840" pan="0" len="12" vol="45" />
          <note key="72" pos="864" pan="0" len="12" vol="44" />
          <note key="77" pos="888" pan="0" len="12" vol="42" />
          <note key="79" pos="912" pan="0" len="12" vol="41" />
          <note key="82" pos="936" pan="0" len="12" vol="39" />
          <note key="72" pos="960" pan="0" len="12" vol="38" />
          <note key="77" pos="984" pan="0" len="12" vol="36" />
          <note key="79" pos="1008" pan="0" len="12" vol="34" />
          <note key="84" pos="1032" pan="0" len="12" vol="33" />
          <note key="72" pos="1056" pan="0" len="12" vol="31" />
          <note key="77" pos="1080" pan="0" len="12" vol="30" />
          <note key="79" pos="1104" pan="0" len="12" vol="28" />
          <note key="84" pos="1128" pan="0" len="12" vol="27" />
          <note key="72" pos="1152" pan="0" len="12" vol="25" />
          <note key="77" pos="1176" pan="0" len="12" vol="23" />
          <note key="79" pos="1200" pan="0" len="12" vol="22" />
          <note key="82" pos="1224" pan="0" len="12" vol="20" />
          <note key="72" pos="1248" pan="0" len="12" vol="19" />
          <note key="77" pos="1272" pan="0" len="12" vol="17" />
          <note key="79" pos="1296" pan="0" len="12" vol="16" />
          <note key="82" pos="1320" pan="0" len="12" vol="14" />
          <note key="72" pos="1344" pan="0" len="12" vol="12" />
          <note key="77" pos="1368" pan="0" len="12" vol="11" />
          <note key="79" pos="1392" pan="0" len="12" vol="9" />
          <note key="84" pos="1416" pan="0" len="12" vol="8" />
          <note key="72" pos="1440" pan="0" len="12" vol="6" />
          <note key="77" pos="1464" pan="0" len="12" vol="5" />
          <note key="79" pos="1488" pan="0" len="12" vol="3" />
          <note key="84" pos="1512" pan="0" len="12" vol="3" />
        </pattern>
        <pattern pos="62976" muted="0" steps="16" name="" type="1">
          <note key="72" pos="816" pan="0" len="96" vol="100" />
          <note key="74" pos="912" pan="0" len="24" vol="100" />
          <note key="75" pos="936" pan="0" len="72" vol="100" />
          <note key="79" pos="1008" pan="0" len="48" vol="100" />
          <note key="81" pos="1080" pan="0" len="72" vol="100" />
          <note key="77" pos="1152" pan="0" len="72" vol="100" />
          <note key="72" pos="1224" pan="0" len="96" vol="100" />
          <note key="72" pos="1320" pan="0" len="24" vol="100" />
          <note key="75" pos="1344" pan="0" len="24" vol="100" />
          <note key="74" pos="1368" pan="0" len="24" vol="100" />
          <note key="72" pos="1392" pan="0" len="24" vol="100" />
          <note key="70" pos="1416" pan="0" len="48" vol="100" />
          <note key="67" pos="1464" pan="0" len="48" vol="100" />
          <note key="70" pos="1512" pan="0" len="24" vol="100" />
        </pattern>
        <pattern pos="72192" muted="0" steps="16" name="" type="1">
          <note key="72" pos="816" pan="0" len="96" vol="100" />
          <note key="74" pos="912" pan="0" len="24" vol="100" />
          <note key="75" pos="936" pan="0" len="72" vol="100" />
          <note key="79" pos="1008" pan="0" len="48" vol="100" />
          <note key="81" pos="1080" pan="0" len="72" vol="100" />
          <note key="77" pos="1152" pan="0" len="72" vol="100" />
          <note key="72" pos="1224" pan="0" len="96" vol="100" />
          <note key="72" pos="1320" pan="0" len="24" vol="100" />
          <note key="75" pos="1344" pan="0" len="24" vol="100" />
          <note key="74" pos="1368" pan="0" len="24" vol="100" />
          <note key="72" pos="1392" pan="0" len="24" vol="100" />
          <note key="70" pos="1416" pan="0" len="48" vol="100" />
          <note key="67" pos="1464" pan="0" len="48" vol="100" />
          <note key="70" pos="1512" pan="0" len="24" vol="100" />
        </pattern>
        <pattern pos="73728" muted="0" steps="16" name="" type="1">
          <note key="60" pos="0" pan="0" len="12" vol="100" />
          <note key="65" pos="24" pan="0" len="12" vol="100" />
          <note key="67" pos="48" pan="0" len="12" vol="100" />
          <note key="70" pos="72" pan="0" len="12" vol="100" />
          <note key="60" pos="96" pan="0" len="12" vol="100" />
          <note key="65" pos="120" pan="0" len="12" vol="100" />
          <note key="67" pos="144" pan="0" len="12" vol="100" />
          <note key="70" pos="168" pan="0" len="12" vol="100" />
          <note key="60" pos="192" pan="0" len="12" vol="100" />
          <note key="65" pos="216" pan="0" len="12" vol="100" />
          <note key="67" pos="240" pan="0" len="12" vol="100" />
          <note key="72" pos="264" pan="0" len="12" vol="100" />
          <note key="60" pos="288" pan="0" len="12" vol="100" />
          <note key="65" pos="312" pan="0" len="12" vol="100" />
          <note key="67" pos="336" pan="0" len="12" vol="100" />
          <note key="72" pos="360" pan="0" len="12" vol="100" />
          <note key="60" pos="384" pan="0" len="12" vol="100" />
          <note key="65" pos="408" pan="0" len="12" vol="100" />
          <note key="67" pos="432" pan="0" len="12" vol="100" />
          <note key="70" pos="456" pan="0" len="12" vol="100" />
          <note key="60" pos="480" pan="0" len="12" vol="100" />
          <note key="65" pos="504" pan="0" len="12" vol="100" />
          <note key="67" pos="528" pan="0" len="12" vol="100" />
          <note key="70" pos="552" pan="0" len="12" vol="100" />
          <note key="60" pos="576" pan="0" len="12" vol="100" />
          <note key="65" pos="600" pan="0" len="12" vol="100" />
          <note key="67" pos="624" pan="0" len="12" vol="100" />
          <note key="72" pos="648" pan="0" len="12" vol="100" />
          <note key="60" pos="672" pan="0" len="12" vol="100" />
          <note key="65" pos="696" pan="0" len="12" vol="100" />
          <note key="67" pos="720" pan="0" len="12" vol="100" />
          <note key="72" pos="744" pan="0" len="12" vol="100" />
          <note key="60" pos="768" pan="0" len="12" vol="100" />
          <note key="65" pos="792" pan="0" len="12" vol="100" />
          <note key="67" pos="816" pan="0" len="12" vol="100" />
          <note key="70" pos="840" pan="0" len="12" vol="100" />
          <note key="60" pos="864" pan="0" len="12" vol="100" />
          <note key="65" pos="888" pan="0" len="12" vol="100" />
          <note key="67" pos="912" pan="0" len="12" vol="100" />
          <note key="70" pos="936" pan="0" len="12" vol="100" />
          <note key="60" pos="960" pan="0" len="12" vol="100" />
          <note key="65" pos="984" pan="0" len="12" vol="100" />
          <note key="67" pos="1008" pan="0" len="12" vol="100" />
          <note key="72" pos="1032" pan="0" len="12" vol="100" />
          <note key="60" pos="1056" pan="0" len="12" vol="100" />
          <note key="65" pos="1080" pan="0" len="12" vol="100" />
          <note key="67" pos="1104" pan="0" len="12" vol="100" />
          <note key="72" pos="1128" pan="0" len="12" vol="100" />
          <note key="60" pos="1152" pan="0" len="12" vol="100" />
          <note key="65" pos="1176" pan="0" len="12" vol="100" />
          <note key="67" pos="1200" pan="0" len="12" vol="100" />
          <note key="70" pos="1224" pan="0" len="12" vol="100" />
          <note key="60" pos="1248" pan="0" len="12" vol="100" />
          <note key="65" pos="1272" pan="0" len="12" vol="100" />
          <note key="67" pos="1296" pan="0" len="12" vol="100" />
          <note key="70" pos="1320" pan="0" len="12" vol="100" />
          <note key="60" pos="1344" pan="0" len="12" vol="100" />
          <note key="65" pos="1368" pan="0" len="12" vol="100" />
          <note key="67" pos="1392" pan="0" len="12" vol="100" />
          <note key="72" pos="1416" pan="0" len="12" vol="100" />
          <note key="60" pos="1440" pan="0" len="12" vol="100" />
          <note key="65" pos="1464" pan="0" len="12" vol="100" />
          <note key="67" pos="1488" pan="0" len="12" vol="100" />
          <note key="72" pos="1512" pan="0" len="12" vol="100" />
        </pattern>
      </track>
      <track solo="0" name="22 (Ch3)" type="0" muted="0">
        <instrumenttrack usemasterpitch="1" pitch="0.0" basenote="57" pan="0" pitchrange="12" vol="30">
          <eldata />
          <instrument name="tripleoscillator" />
        </instrumenttrack>
        <pattern pos="0" muted="0" steps="16" name="" type="1">
          <note key="48" pos="0" pan="0" len="768" vol="34" />
        </pattern>
      </track>
      <track solo="0" name="22 (Ch6)" type="0" muted="0">
        <instrumenttrack usemasterpitch="1" pitch="0.0" basenote="57" pan="0" pitchrange="12" vol="30">
          <eldata />
          <instrument name="tripleoscillator" />
        </instrumenttrack>
        <pattern pos="104448" muted="0" steps="16" name="" type="1">
          <note key="69" pos="288" pan="0" len="96" vol="34" />
        </pattern>
        <pattern pos="77568" muted="0" steps="16" name="" type="1">
          <note key="67" pos="144" pan="0" len="24" vol="100" />
          <note key="65" pos="312" pan="0" len="24" vol="100" />
          <note key="58" pos="432" pan="0" len="12" vol="100" />
          <note key="60" pos="444" pan="0" len="12" vol="100" />
        </pattern>
        <pattern pos="78336" muted="0" steps="16" name="" type="1">
          <note key="67" pos="144" pan="0" len="24" vol="100" />
          <note key="65" pos="312" pan="0" len="24" vol="100" />
          <note key="58" pos="432" pan="0" len="12" vol="100" />
          <note key="60" pos="444" pan="0" len="12" vol="100" />
        </pattern>
        <pattern pos="79104" muted="0" steps="16" name="" type="1">
          <note key="67" pos="144" pan="0" len="24" vol="100" />
          <note key="65" pos="312" pan="0" len="24" vol="100" />
          <note key="58" pos="432" pan="0" len="12" vol="100" />
          <note key="60" pos="444" pan="0" len="12" vol="100" />
        </pattern>
        <pattern pos="80640" muted="0" steps="16" name="" type="1">
          <note key="67" pos="144" pan="0" len="24" vol="100" />
          <note key="65" pos="312" pan="0" len="24" vol="100" />
          <note key="58" pos="432" pan="0" len="12" vol="100" />
          <note key="60" pos="444" pan="0" len="12" vol="100" />
        </pattern>
      </track>
      <track solo="0" name="22 (Ch7)" type="0" muted="0">
        <instrumenttrack usemasterpitch="1" pitch="0.0" basenote="57" pan="0" pitchrange="12" vol="30">
          <eldata />
          <instrument name="tripleoscillator" />
        </instrumenttrack>
        <pattern pos="104448" muted="0" steps="16" name="" type="1">
          <note key="74" pos="288" pan="0" len="96" vol="34" />
        </pattern>
        <pattern pos="22272" muted="0" steps="16" name="" type="1">
          <note key="60" pos="0" pan="0" len="384" vol="34" />
          <note key="67" pos="384" pan="0" len="192" vol="34" />
          <note key="63" pos="576" pan="0" len="192" vol="34" />
          <note key="65" pos="768" pan="0" len="192" vol="34" />
          <note key="57" pos="960" pan="0" len="192" vol="34" />
          <note key="58" pos="1152" pan="0" len="192" vol="34" />
          <note key="62" pos="1344" pan="0" len="192" vol="34" />
        </pattern>
        <pattern pos="23808" muted="0" steps="16" name="" type="1">
          <note key="60" pos="0" pan="0" len="384" vol="34" />
          <note key="67" pos="384" pan="0" len="192" vol="34" />
          <note key="63" pos="576" pan="0" len="192" vol="34" />
          <note key="65" pos="768" pan="0" len="192" vol="34" />
          <note key="57" pos="960" pan="0" len="192" vol="34" />
          <note key="58" pos="1152" pan="0" len="192" vol="34" />
          <note key="62" pos="1344" pan="0" len="192" vol="34" />
        </pattern>
        <pattern pos="29568" muted="0" steps="16" name="" type="1">
          <note key="60" pos="288" pan="0" len="144" vol="52" />
          <note key="65" pos="864" pan="0" len="144" vol="50" />
        </pattern>
        <pattern pos="81408" muted="0" steps="16" name="" type="1">
          <note key="60" pos="48" pan="0" len="96" vol="100" />
          <note key="60" pos="432" pan="0" len="96" vol="100" />
        </pattern>
        <pattern pos="82176" muted="0" steps="16" name="" type="1">
          <note key="60" pos="48" pan="0" len="96" vol="100" />
          <note key="60" pos="432" pan="0" len="96" vol="100" />
        </pattern>
      </track>
      <track solo="0" name="22 (Ch9)" type="0" muted="0">
        <instrumenttrack usemasterpitch="1" pitch="0.0" basenote="57" pan="0" pitchrange="12" vol="30">
          <eldata />
          <instrument name="tripleoscillator" />
        </instrumenttrack>
        <pattern pos="133632" muted="0" steps="16" name="" type="1">
          <note key="60" pos="192" pan="0" len="96" vol="100" />
          <note key="60" pos="576" pan="0" len="96" vol="100" />
          <note key="63" pos="960" pan="0" len="96" vol="100" />
          <note key="58" pos="1344" pan="0" len="96" vol="100" />
        </pattern>
        <pattern pos="129024" muted="0" steps="16" name="" type="1">
          <note key="60" pos="192" pan="0" len="96" vol="100" />
          <note key="60" pos="576" pan="0" len="96" vol="100" />
          <note key="58" pos="1344" pan="0" len="96" vol="100" />
        </pattern>
        <pattern pos="130560" muted="0" steps="16" name="" type="1">
          <note key="60" pos="192" pan="0" len="96" vol="100" />
          <note key="60" pos="576" pan="0" len="96" vol="100" />
          <note key="58" pos="1344" pan="0" len="96" vol="100" />
        </pattern>
        <pattern pos="132096" muted="0" steps="16" name="" type="1">
          <note key="60" pos="192" pan="0" len="96" vol="100" />
          <note key="60" pos="576" pan="0" len="96" vol="100" />
          <note key="63" pos="960" pan="0" len="96" vol="100" />
          <note key="58" pos="1344" pan="0" len="96" vol="100" />
        </pattern>
      </track>
      <track solo="0" name="23 (Ch1)" type="0" muted="0">
        <instrumenttrack usemasterpitch="1" pitch="0.0" basenote="57" pan="0" pitchrange="12" vol="30">
          <eldata />
          <instrument name="tripleoscillator" />
        </instrumenttrack>
        <pattern pos="136704" muted="0" steps="16" name="" type="1">
          <note key="60" pos="0" pan="0" len="36" vol="100" />
          <note key="58" pos="36" pan="0" len="36" vol="100" />
          <note key="60" pos="72" pan="0" len="36" vol="100" />
          <note key="58" pos="132" pan="0" len="36" vol="100" />
          <note key="60" pos="192" pan="0" len="36" vol="100" />
          <note key="58" pos="228" pan="0" len="36" vol="100" />
          <note key="60" pos="264" pan="0" len="36" vol="100" />
          <note key="58" pos="324" pan="0" len="36" vol="100" />
          <note key="60" pos="384" pan="0" len="36" vol="100" />
          <note key="58" pos="420" pan="0" len="36" vol="100" />
          <note key="60" pos="456" pan="0" len="36" vol="100" />
          <note key="58" pos="516" pan="0" len="36" vol="100" />
          <note key="60" pos="576" pan="0" len="36" vol="100" />
          <note key="58" pos="612" pan="0" len="36" vol="100" />
          <note key="60" pos="648" pan="0" len="36" vol="100" />
          <note key="58" pos="708" pan="0" len="36" vol="100" />
          <note key="60" pos="768" pan="0" len="36" vol="100" />
          <note key="58" pos="804" pan="0" len="36" vol="95" />
          <note key="60" pos="840" pan="0" len="36" vol="91" />
          <note key="58" pos="900" pan="0" len="36" vol="83" />
          <note key="60" pos="960" pan="0" len="36" vol="75" />
          <note key="58" pos="996" pan="0" len="36" vol="70" />
          <note key="60" pos="1032" pan="0" len="36" vol="66" />
          <note key="58" pos="1092" pan="0" len="36" vol="58" />
          <note key="60" pos="1152" pan="0" len="36" vol="50" />
          <note key="58" pos="1188" pan="0" len="36" vol="45" />
          <note key="60" pos="1224" pan="0" len="36" vol="41" />
          <note key="58" pos="1284" pan="0" len="36" vol="33" />
          <note key="60" pos="1344" pan="0" len="36" vol="25" />
          <note key="58" pos="1380" pan="0" len="36" vol="20" />
          <note key="60" pos="1416" pan="0" len="36" vol="16" />
          <note key="58" pos="1476" pan="0" len="36" vol="8" />
        </pattern>
        <pattern pos="17664" muted="0" steps="16" name="" type="1">
          <note key="60" pos="816" pan="0" len="24" vol="100" />
          <note key="60" pos="864" pan="0" len="24" vol="100" />
          <note key="58" pos="912" pan="0" len="24" vol="100" />
          <note key="60" pos="936" pan="0" len="24" vol="100" />
          <note key="60" pos="960" pan="0" len="24" vol="100" />
          <note key="60" pos="984" pan="0" len="24" vol="100" />
          <note key="60" pos="1008" pan="0" len="24" vol="100" />
          <note key="60" pos="1056" pan="0" len="24" vol="100" />
          <note key="58" pos="1104" pan="0" len="24" vol="100" />
          <note key="60" pos="1128" pan="0" len="24" vol="100" />
          <note key="60" pos="1200" pan="0" len="24" vol="100" />
          <note key="60" pos="1248" pan="0" len="24" vol="100" />
          <note key="58" pos="1296" pan="0" len="24" vol="100" />
          <note key="60" pos="1320" pan="0" len="24" vol="100" />
          <note key="60" pos="1392" pan="0" len="24" vol="100" />
          <note key="60" pos="1440" pan="0" len="24" vol="100" />
          <note key="58" pos="1488" pan="0" len="24" vol="100" />
          <note key="60" pos="1512" pan="0" len="24" vol="100" />
        </pattern>
        <pattern pos="19200" muted="0" steps="16" name="" type="1">
          <note key="60" pos="48" pan="0" len="24" vol="100" />
          <note key="60" pos="96" pan="0" len="24" vol="100" />
          <note key="58" pos="144" pan="0" len="24" vol="100" />
          <note key="60" pos="168" pan="0" len="24" vol="100" />
          <note key="60" pos="240" pan="0" len="24" vol="100" />
          <note key="60" pos="288" pan="0" len="24" vol="100" />
          <note key="58" pos="336" pan="0" len="24" vol="100" />
          <note key="60" pos="360" pan="0" len="24" vol="100" />
          <note key="60" pos="432" pan="0" len="24" vol="100" />
          <note key="60" pos="480" pan="0" len="24" vol="100" />
          <note key="58" pos="528" pan="0" len="24" vol="100" />
          <note key="60" pos="552" pan="0" len="24" vol="100" />
          <note key="60" pos="624" pan="0" len="24" vol="100" />
          <note key="60" pos="672" pan="0" len="24" vol="100" />
          <note key="58" pos="720" pan="0" len="24" vol="100" />
          <note key="60" pos="744" pan="0" len="24" vol="100" />
          <note key="60" pos="816" pan="0" len="24" vol="100" />
          <note key="60" pos="864" pan="0" len="24" vol="100" />
          <note key="58" pos="912" pan="0" len="24" vol="100" />
          <note key="60" pos="936" pan="0" len="24" vol="100" />
          <note key="60" pos="1008" pan="0" len="24" vol="100" />
          <note key="60" pos="1056" pan="0" len="24" vol="100" />
          <note key="58" pos="1104" pan="0" len="24" vol="100" />
          <note key="60" pos="1128" pan="0" len="24" vol="100" />
          <note key="60" pos="1200" pan="0" len="24" vol="100" />
          <note key="60" pos="1248" pan="0" len="24" vol="100" />
          <note key="58" pos="1296" pan="0" len="24" vol="100" />
          <note key="60" pos="1320" pan="0" len="24" vol="100" />
          <note key="60" pos="1392" pan="0" len="24" vol="100" />
          <note key="60" pos="1440" pan="0" len="24" vol="100" />
          <note key="58" pos="1488" pan="0" len="24" vol="100" />
          <note key="60" pos="1512" pan="0" len="24" vol="100" />
        </pattern>
        <pattern pos="20736" muted="0" steps="16" name="" type="1">
          <note key="60" pos="48" pan="0" len="24" vol="100" />
          <note key="60" pos="96" pan="0" len="24" vol="100" />
          <note key="58" pos="144" pan="0" len="24" vol="100" />
          <note key="60" pos="168" pan="0" len="24" vol="100" />
          <note key="60" pos="240" pan="0" len="24" vol="100" />
          <note key="60" pos="288" pan="0" len="24" vol="100" />
          <note key="58" pos="336" pan="0" len="24" vol="100" />
          <note key="60" pos="360" pan="0" len="24" vol="100" />
          <note key="60" pos="432" pan="0" len="24" vol="100" />
          <note key="60" pos="480" pan="0" len="24" vol="100" />
          <note key="58" pos="528" pan="0" len="24" vol="100" />
          <note key="60" pos="552" pan="0" len="24" vol="100" />
          <note key="60" pos="624" pan="0" len="24" vol="100" />
          <note key="60" pos="672" pan="0" len="24" vol="100" />
          <note key="58" pos="720" pan="0" len="24" vol="100" />
          <note key="60" pos="744" pan="0" len="24" vol="100" />
          <note key="60" pos="816" pan="0" len="24" vol="100" />
          <note key="60" pos="864" pan="0" len="24" vol="100" />
          <note key="58" pos="912" pan="0" len="24" vol="100" />
          <note key="60" pos="936" pan="0" len="24" vol="100" />
          <note key="60" pos="1008" pan="0" len="24" vol="100" />
          <note key="60" pos="1056" pan="0" len="24" vol="100" />
          <note key="58" pos="1104" pan="0" len="24" vol="100" />
          <note key="60" pos="1128" pan="0" len="24" vol="100" />
          <note key="60" pos="1200" pan="0" len="24" vol="100" />
          <note key="60" pos="1248" pan="0" len="24" vol="100" />
          <note key="58" pos="1296" pan="0" len="24" vol="100" />
          <note key="60" pos="1320" pan="0" len="24" vol="100" />
          <note key="60" pos="1392" pan="0" len="24" vol="100" />
          <note key="60" pos="1440" pan="0" len="24" vol="100" />
          <note key="58" pos="1488" pan="0" len="24" vol="100" />
          <note key="60" pos="1512" pan="0" len="24" vol="100" />
        </pattern>
        <pattern pos="22272" muted="0" steps="16" name="" type="1">
          <note key="60" pos="48" pan="0" len="24" vol="100" />
          <note key="60" pos="96" pan="0" len="24" vol="100" />
          <note key="58" pos="144" pan="0" len="24" vol="100" />
          <note key="60" pos="168" pan="0" len="24" vol="100" />
          <note key="60" pos="240" pan="0" len="24" vol="100" />
          <note key="60" pos="288" pan="0" len="24" vol="100" />
          <note key="58" pos="336" pan="0" len="24" vol="100" />
          <note key="60" pos="360" pan="0" len="24" vol="100" />
          <note key="60" pos="432" pan="0" len="24" vol="100" />
          <note key="60" pos="480" pan="0" len="24" vol="100" />
          <note key="58" pos="528" pan="0" len="24" vol="100" />
          <note key="60" pos="552" pan="0" len="24" vol="100" />
          <note key="60" pos="624" pan="0" len="24" vol="100" />
          <note key="60" pos="672" pan="0" len="24" vol="100" />
          <note key="58" pos="720" pan="0" len="24" vol="100" />
          <note key="60" pos="744" pan="0" len="24" vol="100" />
          <note key="60" pos="816" pan="0" len="24" vol="100" />
          <note key="60" pos="864" pan="0" len="24" vol="100" />
          <note key="58" pos="912" pan="0" len="24" vol="100" />
          <note key="60" pos="936" pan="0" len="24" vol="100" />
          <note key="60" pos="1008" pan="0" len="24" vol="100" />
          <note key="60" pos="1056" pan="0" len="24" vol="100" />
          <note key="58" pos="1104" pan="0" len="24" vol="100" />
          <note key="60" pos="1128" pan="0" len="24" vol="100" />
          <note key="60" pos="1200" pan="0" len="24" vol="100" />
          <note key="60" pos="1248" pan="0" len="24" vol="100" />
          <note key="58" pos="1296" pan="0" len="24" vol="100" />
          <note key="60" pos="1320" pan="0" len="24" vol="100" />
          <note key="60" pos="1392" pan="0" len="24" vol="100" />
          <note key="60" pos="1440" pan="0" len="24" vol="100" />
          <note key="58" pos="1488" pan="0" len="24" vol="100" />
          <note key="60" pos="1512" pan="0" len="24" vol="100" />
        </pattern>
        <pattern pos="23808" muted="0" steps="16" name="" type="1">
          <note key="60" pos="48" pan="0" len="24" vol="100" />
          <note key="60" pos="96" pan="0" len="24" vol="100" />
          <note key="58" pos="144" pan="0" len="24" vol="100" />
          <note key="60" pos="168" pan="0" len="24" vol="100" />
          <note key="60" pos="240" pan="0" len="24" vol="100" />
          <note key="60" pos="288" pan="0" len="24" vol="100" />
          <note key="58" pos="336" pan="0" len="24" vol="100" />
          <note key="60" pos="360" pan="0" len="24" vol="100" />
          <note key="60" pos="432" pan="0" len="24" vol="100" />
          <note key="60" pos="480" pan="0" len="24" vol="100" />
          <note key="58" pos="528" pan="0" len="24" vol="100" />
          <note key="60" pos="552" pan="0" len="24" vol="100" />
          <note key="60" pos="624" pan="0" len="24" vol="100" />
          <note key="60" pos="672" pan="0" len="24" vol="100" />
          <note key="58" pos="720" pan="0" len="24" vol="100" />
          <note key="60" pos="744" pan="0" len="24" vol="100" />
          <note key="60" pos="816" pan="0" len="24" vol="100" />
          <note key="60" pos="864" pan="0" len="24" vol="100" />
          <note key="58" pos="912" pan="0" len="24" vol="100" />
          <note key="60" pos="936" pan="0" len="24" vol="100" />
          <note key="60" pos="1008" pan="0" len="24" vol="100" />
          <note key="60" pos="1056" pan="0" len="24" vol="100" />
          <note key="58" pos="1104" pan="0" len="24" vol="100" />
          <note key="60" pos="1128" pan="0" len="24" vol="100" />
          <note key="60" pos="1200" pan="0" len="24" vol="100" />
          <note key="60" pos="1248" pan="0" len="24" vol="100" />
          <note key="58" pos="1296" pan="0" len="24" vol="100" />
          <note key="60" pos="1320" pan="0" len="24" vol="100" />
          <note key="60" pos="1392" pan="0" len="24" vol="100" />
          <note key="60" pos="1440" pan="0" len="24" vol="100" />
          <note key="58" pos="1488" pan="0" len="24" vol="100" />
          <note key="60" pos="1512" pan="0" len="24" vol="100" />
        </pattern>
        <pattern pos="25344" muted="0" steps="16" name="" type="1">
          <note key="60" pos="48" pan="0" len="24" vol="97" />
          <note key="60" pos="96" pan="0" len="24" vol="94" />
          <note key="58" pos="144" pan="0" len="24" vol="91" />
          <note key="60" pos="168" pan="0" len="24" vol="89" />
          <note key="60" pos="240" pan="0" len="24" vol="84" />
          <note key="60" pos="288" pan="0" len="24" vol="81" />
          <note key="58" pos="336" pan="0" len="24" vol="78" />
          <note key="60" pos="360" pan="0" len="24" vol="77" />
          <note key="60" pos="432" pan="0" len="24" vol="72" />
          <note key="60" pos="480" pan="0" len="24" vol="69" />
          <note key="58" pos="528" pan="0" len="24" vol="66" />
          <note key="60" pos="552" pan="0" len="24" vol="64" />
          <note key="60" pos="624" pan="0" len="24" vol="59" />
          <note key="60" pos="672" pan="0" len="24" vol="56" />
          <note key="58" pos="720" pan="0" len="24" vol="53" />
          <note key="60" pos="744" pan="0" len="24" vol="52" />
          <note key="60" pos="816" pan="0" len="24" vol="47" />
          <note key="60" pos="864" pan="0" len="24" vol="44" />
          <note key="58" pos="912" pan="0" len="24" vol="41" />
          <note key="60" pos="936" pan="0" len="24" vol="39" />
          <note key="60" pos="1008" pan="0" len="24" vol="34" />
          <note key="60" pos="1056" pan="0" len="24" vol="31" />
          <note key="58" pos="1104" pan="0" len="24" vol="28" />
          <note key="60" pos="1128" pan="0" len="24" vol="27" />
          <note key="60" pos="1200" pan="0" len="24" vol="22" />
          <note key="60" pos="1248" pan="0" len="24" vol="19" />
          <note key="58" pos="1296" pan="0" len="24" vol="16" />
          <note key="60" pos="1320" pan="0" len="24" vol="14" />
          <note key="60" pos="1392" pan="0" len="24" vol="9" />
          <note key="60" pos="1440" pan="0" len="24" vol="6" />
          <note key="58" pos="1488" pan="0" len="24" vol="3" />
          <note key="60" pos="1512" pan="0" len="24" vol="2" />
        </pattern>
        <pattern pos="95232" muted="0" steps="16" name="" type="1">
          <note key="60" pos="0" pan="0" len="72" vol="100" />
          <note key="58" pos="72" pan="0" len="72" vol="100" />
          <note key="60" pos="144" pan="0" len="72" vol="100" />
          <note key="58" pos="264" pan="0" len="72" vol="100" />
          <note key="60" pos="384" pan="0" len="72" vol="100" />
          <note key="58" pos="456" pan="0" len="72" vol="100" />
          <note key="60" pos="528" pan="0" len="72" vol="100" />
          <note key="58" pos="648" pan="0" len="72" vol="100" />
          <note key="60" pos="768" pan="0" len="72" vol="100" />
          <note key="58" pos="840" pan="0" len="72" vol="100" />
          <note key="60" pos="912" pan="0" len="72" vol="100" />
          <note key="58" pos="1032" pan="0" len="72" vol="100" />
          <note key="60" pos="1152" pan="0" len="72" vol="100" />
          <note key="58" pos="1224" pan="0" len="72" vol="100" />
          <note key="60" pos="1296" pan="0" len="72" vol="100" />
          <note key="58" pos="1416" pan="0" len="72" vol="100" />
        </pattern>
        <pattern pos="96768" muted="0" steps="16" name="" type="1">
          <note key="60" pos="0" pan="0" len="72" vol="100" />
          <note key="58" pos="72" pan="0" len="72" vol="100" />
          <note key="60" pos="144" pan="0" len="72" vol="100" />
          <note key="58" pos="264" pan="0" len="72" vol="100" />
          <note key="60" pos="384" pan="0" len="72" vol="100" />
          <note key="58" pos="456" pan="0" len="72" vol="100" />
          <note key="60" pos="528" pan="0" len="72" vol="100" />
          <note key="58" pos="648" pan="0" len="72" vol="100" />
          <note key="60" pos="768" pan="0" len="72" vol="100" />
          <note key="58" pos="840" pan="0" len="72" vol="100" />
          <note key="60" pos="912" pan="0" len="72" vol="100" />
          <note key="58" pos="1032" pan="0" len="72" vol="100" />
          <note key="60" pos="1152" pan="0" len="72" vol="100" />
          <note key="58" pos="1224" pan="0" len="72" vol="100" />
          <note key="60" pos="1296" pan="0" len="72" vol="100" />
          <note key="58" pos="1416" pan="0" len="72" vol="100" />
        </pattern>
        <pattern pos="98304" muted="0" steps="16" name="" type="1">
          <note key="60" pos="0" pan="0" len="72" vol="100" />
          <note key="58" pos="72" pan="0" len="72" vol="100" />
          <note key="60" pos="144" pan="0" len="72" vol="100" />
          <note key="58" pos="264" pan="0" len="72" vol="100" />
          <note key="60" pos="384" pan="0" len="72" vol="100" />
          <note key="58" pos="456" pan="0" len="72" vol="100" />
          <note key="60" pos="528" pan="0" len="72" vol="100" />
          <note key="58" pos="648" pan="0" len="72" vol="100" />
          <note key="60" pos="768" pan="0" len="72" vol="100" />
          <note key="58" pos="840" pan="0" len="72" vol="100" />
          <note key="60" pos="912" pan="0" len="72" vol="100" />
          <note key="58" pos="1032" pan="0" len="72" vol="100" />
          <note key="60" pos="1152" pan="0" len="72" vol="100" />
          <note key="58" pos="1224" pan="0" len="72" vol="100" />
          <note key="60" pos="1296" pan="0" len="72" vol="100" />
          <note key="58" pos="1416" pan="0" len="72" vol="100" />
        </pattern>
        <pattern pos="99840" muted="0" steps="16" name="" type="1">
          <note key="60" pos="0" pan="0" len="72" vol="100" />
          <note key="58" pos="72" pan="0" len="72" vol="100" />
          <note key="60" pos="144" pan="0" len="72" vol="100" />
          <note key="58" pos="264" pan="0" len="72" vol="100" />
          <note key="60" pos="384" pan="0" len="72" vol="100" />
          <note key="58" pos="456" pan="0" len="72" vol="100" />
          <note key="60" pos="528" pan="0" len="72" vol="100" />
          <note key="58" pos="648" pan="0" len="72" vol="100" />
          <note key="60" pos="768" pan="0" len="72" vol="100" />
          <note key="58" pos="840" pan="0" len="72" vol="100" />
          <note key="60" pos="912" pan="0" len="72" vol="100" />
          <note key="58" pos="1032" pan="0" len="72" vol="100" />
          <note key="60" pos="1152" pan="0" len="72" vol="100" />
          <note key="58" pos="1224" pan="0" len="72" vol="100" />
          <note key="60" pos="1296" pan="0" len="72" vol="100" />
          <note key="58" pos="1416" pan="0" len="72" vol="100" />
        </pattern>
        <pattern pos="101376" muted="0" steps="16" name="" type="1">
          <note key="62" pos="0" pan="0" len="72" vol="100" />
          <note key="60" pos="72" pan="0" len="72" vol="100" />
          <note key="62" pos="144" pan="0" len="72" vol="100" />
          <note key="60" pos="264" pan="0" len="72" vol="100" />
          <note key="62" pos="384" pan="0" len="72" vol="100" />
          <note key="60" pos="456" pan="0" len="72" vol="100" />
          <note key="62" pos="528" pan="0" len="72" vol="100" />
          <note key="60" pos="648" pan="0" len="72" vol="100" />
          <note key="67" pos="768" pan="0" len="72" vol="100" />
          <note key="65" pos="840" pan="0" len="72" vol="100" />
          <note key="67" pos="912" pan="0" len="72" vol="100" />
          <note key="65" pos="1032" pan="0" len="72" vol="100" />
          <note key="67" pos="1152" pan="0" len="72" vol="100" />
          <note key="65" pos="1224" pan="0" len="72" vol="100" />
          <note key="67" pos="1296" pan="0" len="72" vol="100" />
          <note key="65" pos="1416" pan="0" len="72" vol="100" />
        </pattern>
        <pattern pos="102912" muted="0" steps="16" name="" type="1">
          <note key="62" pos="0" pan="0" len="72" vol="100" />
          <note key="60" pos="72" pan="0" len="72" vol="100" />
          <note key="62" pos="144" pan="0" len="72" vol="100" />
          <note key="60" pos="264" pan="0" len="72" vol="100" />
          <note key="62" pos="384" pan="0" len="72" vol="100" />
          <note key="60" pos="456" pan="0" len="72" vol="100" />
          <note key="62" pos="528" pan="0" len="72" vol="100" />
          <note key="60" pos="648" pan="0" len="72" vol="100" />
          <note key="67" pos="768" pan="0" len="72" vol="100" />
          <note key="65" pos="840" pan="0" len="72" vol="100" />
          <note key="67" pos="912" pan="0" len="72" vol="100" />
          <note key="65" pos="1032" pan="0" len="72" vol="100" />
          <note key="67" pos="1152" pan="0" len="72" vol="100" />
          <note key="65" pos="1224" pan="0" len="72" vol="100" />
          <note key="67" pos="1296" pan="0" len="72" vol="100" />
          <note key="65" pos="1416" pan="0" len="72" vol="100" />
        </pattern>
        <pattern pos="104448" muted="0" steps="16" name="" type="1">
          <note key="62" pos="0" pan="0" len="1536" vol="100" />
        </pattern>
        <pattern pos="105984" muted="0" steps="16" name="" type="1">
          <note key="62" pos="0" pan="0" len="72" vol="2" />
          <note key="60" pos="72" pan="0" len="72" vol="6" />
          <note key="62" pos="144" pan="0" len="72" vol="11" />
          <note key="60" pos="264" pan="0" len="72" vol="19" />
          <note key="62" pos="384" pan="0" len="72" vol="27" />
          <note key="60" pos="456" pan="0" len="72" vol="31" />
          <note key="62" pos="528" pan="0" len="72" vol="36" />
          <note key="60" pos="648" pan="0" len="72" vol="44" />
          <note key="62" pos="768" pan="0" len="72" vol="52" />
          <note key="60" pos="840" pan="0" len="72" vol="56" />
          <note key="62" pos="912" pan="0" len="72" vol="61" />
          <note key="60" pos="1032" pan="0" len="72" vol="69" />
          <note key="62" pos="1152" pan="0" len="72" vol="77" />
          <note key="60" pos="1224" pan="0" len="72" vol="81" />
          <note key="62" pos="1296" pan="0" len="72" vol="86" />
          <note key="60" pos="1416" pan="0" len="72" vol="94" />
        </pattern>
        <pattern pos="107520" muted="0" steps="16" name="" type="1">
          <note key="62" pos="0" pan="0" len="72" vol="100" />
          <note key="65" pos="144" pan="0" len="72" vol="100" />
          <note key="67" pos="264" pan="0" len="72" vol="100" />
          <note key="62" pos="384" pan="0" len="72" vol="100" />
          <note key="65" pos="528" pan="0" len="72" vol="100" />
          <note key="67" pos="648" pan="0" len="72" vol="100" />
          <note key="62" pos="768" pan="0" len="72" vol="100" />
          <note key="65" pos="912" pan="0" len="72" vol="100" />
          <note key="67" pos="1032" pan="0" len="72" vol="100" />
          <note key="62" pos="1152" pan="0" len="72" vol="100" />
          <note key="65" pos="1296" pan="0" len="72" vol="100" />
          <note key="67" pos="1416" pan="0" len="72" vol="100" />
        </pattern>
        <pattern pos="109056" muted="0" steps="16" name="" type="1">
          <note key="62" pos="0" pan="0" len="72" vol="100" />
          <note key="65" pos="144" pan="0" len="72" vol="100" />
          <note key="67" pos="264" pan="0" len="72" vol="100" />
          <note key="62" pos="384" pan="0" len="72" vol="100" />
          <note key="65" pos="528" pan="0" len="72" vol="100" />
          <note key="67" pos="648" pan="0" len="72" vol="100" />
          <note key="62" pos="768" pan="0" len="72" vol="100" />
          <note key="65" pos="912" pan="0" len="72" vol="100" />
          <note key="67" pos="1032" pan="0" len="72" vol="100" />
          <note key="62" pos="1152" pan="0" len="72" vol="100" />
          <note key="65" pos="1296" pan="0" len="72" vol="100" />
          <note key="67" pos="1416" pan="0" len="72" vol="100" />
        </pattern>
        <pattern pos="110592" muted="0" steps="16" name="" type="1">
          <note key="65" pos="0" pan="0" len="72" vol="100" />
          <note key="63" pos="144" pan="0" len="72" vol="100" />
          <note key="70" pos="264" pan="0" len="72" vol="100" />
          <note key="65" pos="384" pan="0" len="72" vol="100" />
          <note key="63" pos="528" pan="0" len="72" vol="100" />
          <note key="70" pos="648" pan="0" len="72" vol="100" />
          <note key="65" pos="768" pan="0" len="72" vol="100" />
          <note key="63" pos="912" pan="0" len="72" vol="100" />
          <note key="70" pos="1032" pan="0" len="72" vol="100" />
          <note key="65" pos="1152" pan="0" len="72" vol="100" />
          <note key="63" pos="1296" pan="0" len="72" vol="100" />
          <note key="70" pos="1416" pan="0" len="72" vol="100" />
        </pattern>
        <pattern pos="112128" muted="0" steps="16" name="" type="1">
          <note key="65" pos="0" pan="0" len="72" vol="100" />
          <note key="63" pos="144" pan="0" len="72" vol="100" />
          <note key="70" pos="264" pan="0" len="72" vol="100" />
          <note key="65" pos="384" pan="0" len="72" vol="100" />
          <note key="63" pos="528" pan="0" len="72" vol="100" />
          <note key="70" pos="648" pan="0" len="72" vol="100" />
          <note key="65" pos="768" pan="0" len="72" vol="100" />
          <note key="63" pos="912" pan="0" len="72" vol="100" />
          <note key="70" pos="1032" pan="0" len="72" vol="100" />
          <note key="65" pos="1152" pan="0" len="72" vol="100" />
          <note key="63" pos="1296" pan="0" len="72" vol="100" />
          <note key="70" pos="1416" pan="0" len="72" vol="100" />
        </pattern>
        <pattern pos="122880" muted="0" steps="16" name="" type="1">
          <note key="60" pos="0" pan="0" len="72" vol="100" />
          <note key="58" pos="72" pan="0" len="72" vol="100" />
          <note key="60" pos="144" pan="0" len="72" vol="100" />
          <note key="58" pos="264" pan="0" len="72" vol="100" />
          <note key="60" pos="384" pan="0" len="72" vol="100" />
          <note key="58" pos="456" pan="0" len="72" vol="100" />
          <note key="60" pos="528" pan="0" len="72" vol="100" />
          <note key="58" pos="648" pan="0" len="72" vol="100" />
          <note key="60" pos="768" pan="0" len="72" vol="100" />
          <note key="58" pos="840" pan="0" len="72" vol="100" />
          <note key="60" pos="912" pan="0" len="72" vol="100" />
          <note key="58" pos="1032" pan="0" len="72" vol="100" />
          <note key="60" pos="1152" pan="0" len="72" vol="100" />
          <note key="58" pos="1224" pan="0" len="72" vol="100" />
          <note key="60" pos="1296" pan="0" len="72" vol="100" />
          <note key="58" pos="1416" pan="0" len="72" vol="100" />
        </pattern>
        <pattern pos="124416" muted="0" steps="16" name="" type="1">
          <note key="60" pos="0" pan="0" len="72" vol="100" />
          <note key="58" pos="72" pan="0" len="72" vol="100" />
          <note key="60" pos="144" pan="0" len="72" vol="100" />
          <note key="58" pos="264" pan="0" len="72" vol="100" />
          <note key="60" pos="384" pan="0" len="72" vol="100" />
          <note key="58" pos="456" pan="0" len="72" vol="100" />
          <note key="60" pos="528" pan="0" len="72" vol="100" />
          <note key="58" pos="648" pan="0" len="72" vol="100" />
          <note key="60" pos="768" pan="0" len="72" vol="100" />
          <note key="58" pos="840" pan="0" len="72" vol="100" />
          <note key="60" pos="912" pan="0" len="72" vol="100" />
          <note key="58" pos="1032" pan="0" len="72" vol="100" />
          <note key="60" pos="1152" pan="0" len="72" vol="100" />
          <note key="58" pos="1224" pan="0" len="72" vol="100" />
          <note key="60" pos="1296" pan="0" len="72" vol="100" />
          <note key="58" pos="1416" pan="0" len="72" vol="100" />
        </pattern>
        <pattern pos="125952" muted="0" steps="16" name="" type="1">
          <note key="60" pos="0" pan="0" len="72" vol="100" />
          <note key="58" pos="72" pan="0" len="72" vol="100" />
          <note key="60" pos="144" pan="0" len="72" vol="100" />
          <note key="58" pos="264" pan="0" len="72" vol="100" />
          <note key="60" pos="384" pan="0" len="72" vol="100" />
          <note key="58" pos="456" pan="0" len="72" vol="100" />
          <note key="60" pos="528" pan="0" len="72" vol="100" />
          <note key="58" pos="648" pan="0" len="72" vol="100" />
          <note key="60" pos="768" pan="0" len="72" vol="100" />
          <note key="58" pos="840" pan="0" len="72" vol="100" />
          <note key="60" pos="912" pan="0" len="72" vol="100" />
          <note key="58" pos="1032" pan="0" len="72" vol="100" />
          <note key="60" pos="1152" pan="0" len="72" vol="100" />
          <note key="58" pos="1224" pan="0" len="72" vol="100" />
          <note key="60" pos="1296" pan="0" len="72" vol="100" />
          <note key="58" pos="1416" pan="0" len="72" vol="100" />
        </pattern>
        <pattern pos="127488" muted="0" steps="16" name="" type="1">
          <note key="60" pos="0" pan="0" len="72" vol="100" />
          <note key="58" pos="72" pan="0" len="72" vol="100" />
          <note key="60" pos="144" pan="0" len="72" vol="100" />
          <note key="58" pos="264" pan="0" len="72" vol="100" />
          <note key="60" pos="384" pan="0" len="72" vol="100" />
          <note key="58" pos="456" pan="0" len="72" vol="100" />
          <note key="60" pos="528" pan="0" len="72" vol="100" />
          <note key="58" pos="648" pan="0" len="72" vol="100" />
          <note key="60" pos="768" pan="0" len="72" vol="100" />
          <note key="58" pos="840" pan="0" len="72" vol="100" />
          <note key="60" pos="912" pan="0" len="72" vol="100" />
          <note key="58" pos="1032" pan="0" len="72" vol="100" />
          <note key="60" pos="1152" pan="0" len="72" vol="100" />
          <note key="58" pos="1224" pan="0" len="72" vol="100" />
          <note key="60" pos="1296" pan="0" len="72" vol="100" />
          <note key="58" pos="1416" pan="0" len="72" vol="100" />
        </pattern>
        <pattern pos="129024" muted="0" steps="16" name="" type="1">
          <note key="60" pos="0" pan="0" len="72" vol="100" />
          <note key="58" pos="72" pan="0" len="72" vol="100" />
          <note key="60" pos="144" pan="0" len="72" vol="100" />
          <note key="58" pos="264" pan="0" len="72" vol="100" />
          <note key="60" pos="384" pan="0" len="72" vol="100" />
          <note key="58" pos="456" pan="0" len="72" vol="100" />
          <note key="60" pos="528" pan="0" len="72" vol="100" />
          <note key="58" pos="648" pan="0" len="72" vol="100" />
          <note key="63" pos="768" pan="0" len="72" vol="100" />
          <note key="58" pos="840" pan="0" len="72" vol="100" />
          <note key="63" pos="912" pan="0" len="72" vol="100" />
          <note key="61" pos="1032" pan="0" len="72" vol="100" />
          <note key="58" pos="1152" pan="0" len="72" vol="100" />
          <note key="53" pos="1224" pan="0" len="72" vol="100" />
          <note key="58" pos="1296" pan="0" len="72" vol="100" />
          <note key="53" pos="1416" pan="0" len="72" vol="100" />
        </pattern>
        <pattern pos="130560" muted="0" steps="16" name="" type="1">
          <note key="60" pos="0" pan="0" len="72" vol="100" />
          <note key="58" pos="72" pan="0" len="72" vol="100" />
          <note key="60" pos="144" pan="0" len="72" vol="100" />
          <note key="58" pos="264" pan="0" len="72" vol="100" />
          <note key="60" pos="384" pan="0" len="72" vol="100" />
          <note key="58" pos="456" pan="0" len="72" vol="100" />
          <note key="60" pos="528" pan="0" len="72" vol="100" />
          <note key="58" pos="648" pan="0" len="72" vol="100" />
          <note key="63" pos="768" pan="0" len="72" vol="100" />
          <note key="58" pos="840" pan="0" len="72" vol="100" />
          <note key="63" pos="912" pan="0" len="72" vol="100" />
          <note key="61" pos="1032" pan="0" len="72" vol="100" />
          <note key="58" pos="1152" pan="0" len="72" vol="100" />
          <note key="53" pos="1224" pan="0" len="72" vol="100" />
          <note key="58" pos="1296" pan="0" len="72" vol="100" />
          <note key="53" pos="1416" pan="0" len="72" vol="100" />
        </pattern>
        <pattern pos="132096" muted="0" steps="16" name="" type="1">
          <note key="60" pos="0" pan="0" len="72" vol="100" />
          <note key="58" pos="72" pan="0" len="72" vol="100" />
          <note key="60" pos="144" pan="0" len="72" vol="100" />
          <note key="58" pos="264" pan="0" len="72" vol="100" />
          <note key="60" pos="384" pan="0" len="72" vol="100" />
          <note key="58" pos="456" pan="0" len="72" vol="100" />
          <note key="60" pos="528" pan="0" len="72" vol="100" />
          <note key="58" pos="648" pan="0" len="72" vol="100" />
          <note key="63" pos="768" pan="0" len="72" vol="100" />
          <note key="58" pos="840" pan="0" len="72" vol="100" />
          <note key="63" pos="912" pan="0" len="72" vol="100" />
          <note key="61" pos="1032" pan="0" len="72" vol="100" />
          <note key="58" pos="1152" pan="0" len="72" vol="100" />
          <note key="53" pos="1224" pan="0" len="72" vol="100" />
          <note key="58" pos="1296" pan="0" len="72" vol="100" />
          <note key="53" pos="1416" pan="0" len="72" vol="100" />
        </pattern>
        <pattern pos="133632" muted="0" steps="16" name="" type="1">
          <note key="60" pos="0" pan="0" len="72" vol="100" />
          <note key="58" pos="72" pan="0" len="72" vol="100" />
          <note key="60" pos="144" pan="0" len="72" vol="100" />
          <note key="58" pos="264" pan="0" len="72" vol="100" />
          <note key="60" pos="384" pan="0" len="72" vol="100" />
          <note key="58" pos="456" pan="0" len="72" vol="100" />
          <note key="60" pos="528" pan="0" len="72" vol="100" />
          <note key="58" pos="648" pan="0" len="72" vol="100" />
          <note key="63" pos="768" pan="0" len="72" vol="100" />
          <note key="58" pos="840" pan="0" len="72" vol="100" />
          <note key="63" pos="912" pan="0" len="72" vol="100" />
          <note key="61" pos="1032" pan="0" len="72" vol="100" />
          <note key="58" pos="1152" pan="0" len="72" vol="100" />
          <note key="53" pos="1224" pan="0" len="72" vol="100" />
          <note key="58" pos="1296" pan="0" len="72" vol="100" />
          <note key="53" pos="1416" pan="0" len="72" vol="100" />
        </pattern>
        <pattern pos="135168" muted="0" steps="16" name="" type="1">
          <note key="60" pos="0" pan="0" len="36" vol="100" />
          <note key="58" pos="36" pan="0" len="36" vol="100" />
          <note key="60" pos="72" pan="0" len="36" vol="100" />
          <note key="58" pos="132" pan="0" len="36" vol="100" />
          <note key="60" pos="192" pan="0" len="36" vol="100" />
          <note key="58" pos="228" pan="0" len="36" vol="100" />
          <note key="60" pos="264" pan="0" len="36" vol="100" />
          <note key="58" pos="324" pan="0" len="36" vol="100" />
          <note key="60" pos="384" pan="0" len="36" vol="100" />
          <note key="58" pos="420" pan="0" len="36" vol="100" />
          <note key="60" pos="456" pan="0" len="36" vol="100" />
          <note key="58" pos="516" pan="0" len="36" vol="100" />
          <note key="60" pos="576" pan="0" len="36" vol="100" />
          <note key="58" pos="612" pan="0" len="36" vol="100" />
          <note key="60" pos="648" pan="0" len="36" vol="100" />
          <note key="58" pos="708" pan="0" len="36" vol="100" />
          <note key="60" pos="768" pan="0" len="36" vol="100" />
          <note key="58" pos="804" pan="0" len="36" vol="100" />
          <note key="60" pos="840" pan="0" len="36" vol="100" />
          <note key="58" pos="900" pan="0" len="36" vol="100" />
          <note key="60" pos="960" pan="0" len="36" vol="100" />
          <note key="58" pos="996" pan="0" len="36" vol="100" />
          <note key="60" pos="1032" pan="0" len="36" vol="100" />
          <note key="58" pos="1092" pan="0" len="36" vol="100" />
          <note key="60" pos="1152" pan="0" len="36" vol="100" />
          <note key="58" pos="1188" pan="0" len="36" vol="100" />
          <note key="60" pos="1224" pan="0" len="36" vol="100" />
          <note key="58" pos="1284" pan="0" len="36" vol="100" />
          <note key="60" pos="1344" pan="0" len="36" vol="100" />
          <note key="58" pos="1380" pan="0" len="36" vol="100" />
          <note key="60" pos="1416" pan="0" len="36" vol="100" />
          <note key="58" pos="1476" pan="0" len="36" vol="100" />
        </pattern>
      </track>
      <track solo="0" name="23 (Ch2)" type="0" muted="0">
        <instrumenttrack usemasterpitch="1" pitch="0.0" basenote="57" pan="0" pitchrange="12" vol="30">
          <eldata />
          <instrument name="tripleoscillator" />
        </instrumenttrack>
        <pattern pos="39936" muted="0" steps="16" name="" type="1">
          <note key="60" pos="12" pan="0" len="12" vol="100" />
          <note key="58" pos="48" pan="0" len="12" vol="100" />
          <note key="60" pos="60" pan="0" len="12" vol="100" />
          <note key="60" pos="84" pan="0" len="12" vol="100" />
          <note key="58" pos="120" pan="0" len="12" vol="100" />
          <note key="60" pos="132" pan="0" len="12" vol="100" />
          <note key="60" pos="156" pan="0" len="12" vol="100" />
          <note key="58" pos="192" pan="0" len="12" vol="100" />
          <note key="60" pos="204" pan="0" len="12" vol="100" />
          <note key="60" pos="228" pan="0" len="12" vol="100" />
          <note key="58" pos="264" pan="0" len="12" vol="100" />
          <note key="60" pos="276" pan="0" len="12" vol="100" />
          <note key="60" pos="300" pan="0" len="12" vol="100" />
          <note key="58" pos="336" pan="0" len="12" vol="100" />
          <note key="60" pos="348" pan="0" len="12" vol="100" />
          <note key="60" pos="372" pan="0" len="12" vol="100" />
          <note key="58" pos="408" pan="0" len="12" vol="100" />
          <note key="60" pos="420" pan="0" len="12" vol="100" />
          <note key="60" pos="444" pan="0" len="12" vol="100" />
          <note key="58" pos="480" pan="0" len="12" vol="100" />
          <note key="60" pos="492" pan="0" len="12" vol="100" />
          <note key="60" pos="516" pan="0" len="12" vol="100" />
          <note key="58" pos="552" pan="0" len="12" vol="100" />
          <note key="60" pos="564" pan="0" len="12" vol="100" />
          <note key="60" pos="588" pan="0" len="12" vol="98" />
          <note key="58" pos="624" pan="0" len="12" vol="92" />
          <note key="60" pos="636" pan="0" len="12" vol="89" />
          <note key="60" pos="660" pan="0" len="12" vol="86" />
          <note key="58" pos="696" pan="0" len="12" vol="80" />
          <note key="60" pos="708" pan="0" len="12" vol="77" />
          <note key="60" pos="732" pan="0" len="12" vol="73" />
          <note key="58" pos="768" pan="0" len="12" vol="67" />
          <note key="60" pos="780" pan="0" len="12" vol="64" />
          <note key="60" pos="804" pan="0" len="12" vol="61" />
          <note key="58" pos="840" pan="0" len="12" vol="55" />
          <note key="60" pos="852" pan="0" len="12" vol="52" />
          <note key="60" pos="876" pan="0" len="12" vol="47" />
          <note key="58" pos="912" pan="0" len="12" vol="41" />
          <note key="60" pos="924" pan="0" len="12" vol="39" />
          <note key="60" pos="948" pan="0" len="12" vol="34" />
          <note key="58" pos="984" pan="0" len="12" vol="28" />
          <note key="60" pos="996" pan="0" len="12" vol="27" />
          <note key="60" pos="1020" pan="0" len="12" vol="22" />
          <note key="58" pos="1056" pan="0" len="12" vol="16" />
          <note key="60" pos="1068" pan="0" len="12" vol="14" />
          <note key="60" pos="1092" pan="0" len="12" vol="9" />
          <note key="58" pos="1128" pan="0" len="12" vol="3" />
          <note key="60" pos="1140" pan="0" len="12" vol="2" />
        </pattern>
        <pattern pos="17664" muted="0" steps="16" name="" type="1">
          <note key="60" pos="780" pan="0" len="24" vol="34" />
          <note key="60" pos="852" pan="0" len="24" vol="34" />
          <note key="60" pos="900" pan="0" len="24" vol="34" />
          <note key="58" pos="948" pan="0" len="24" vol="34" />
          <note key="60" pos="972" pan="0" len="24" vol="34" />
          <note key="60" pos="1044" pan="0" len="24" vol="34" />
          <note key="60" pos="1092" pan="0" len="24" vol="34" />
          <note key="58" pos="1140" pan="0" len="24" vol="34" />
          <note key="60" pos="1164" pan="0" len="24" vol="34" />
          <note key="60" pos="1236" pan="0" len="24" vol="34" />
          <note key="60" pos="1284" pan="0" len="24" vol="34" />
          <note key="58" pos="1332" pan="0" len="24" vol="34" />
          <note key="60" pos="1356" pan="0" len="24" vol="34" />
          <note key="60" pos="1428" pan="0" len="24" vol="34" />
          <note key="60" pos="1476" pan="0" len="24" vol="34" />
          <note key="58" pos="1524" pan="0" len="12" vol="34" />
        </pattern>
        <pattern pos="19200" muted="0" steps="16" name="" type="1">
          <note key="60" pos="84" pan="0" len="24" vol="34" />
          <note key="60" pos="132" pan="0" len="24" vol="34" />
          <note key="58" pos="180" pan="0" len="24" vol="34" />
          <note key="60" pos="204" pan="0" len="24" vol="34" />
          <note key="60" pos="276" pan="0" len="24" vol="34" />
          <note key="60" pos="324" pan="0" len="24" vol="34" />
          <note key="58" pos="372" pan="0" len="24" vol="34" />
          <note key="60" pos="396" pan="0" len="24" vol="34" />
          <note key="60" pos="468" pan="0" len="24" vol="34" />
          <note key="60" pos="516" pan="0" len="24" vol="34" />
          <note key="58" pos="564" pan="0" len="24" vol="34" />
          <note key="60" pos="588" pan="0" len="24" vol="34" />
          <note key="60" pos="660" pan="0" len="24" vol="34" />
          <note key="60" pos="708" pan="0" len="24" vol="34" />
          <note key="58" pos="756" pan="0" len="24" vol="34" />
          <note key="60" pos="780" pan="0" len="24" vol="34" />
          <note key="60" pos="852" pan="0" len="24" vol="34" />
          <note key="60" pos="900" pan="0" len="24" vol="34" />
          <note key="58" pos="948" pan="0" len="24" vol="34" />
          <note key="60" pos="972" pan="0" len="24" vol="34" />
          <note key="60" pos="1044" pan="0" len="24" vol="34" />
          <note key="60" pos="1092" pan="0" len="24" vol="34" />
          <note key="58" pos="1140" pan="0" len="24" vol="34" />
          <note key="60" pos="1164" pan="0" len="24" vol="34" />
          <note key="60" pos="1236" pan="0" len="24" vol="34" />
          <note key="60" pos="1284" pan="0" len="24" vol="34" />
          <note key="58" pos="1332" pan="0" len="24" vol="34" />
          <note key="60" pos="1356" pan="0" len="24" vol="34" />
          <note key="60" pos="1428" pan="0" len="24" vol="34" />
          <note key="60" pos="1476" pan="0" len="24" vol="34" />
          <note key="58" pos="1524" pan="0" len="12" vol="34" />
        </pattern>
        <pattern pos="20736" muted="0" steps="16" name="" type="1">
          <note key="60" pos="84" pan="0" len="24" vol="34" />
          <note key="60" pos="132" pan="0" len="24" vol="34" />
          <note key="58" pos="180" pan="0" len="24" vol="34" />
          <note key="60" pos="204" pan="0" len="24" vol="34" />
          <note key="60" pos="276" pan="0" len="24" vol="34" />
          <note key="60" pos="324" pan="0" len="24" vol="34" />
          <note key="58" pos="372" pan="0" len="24" vol="34" />
          <note key="60" pos="396" pan="0" len="24" vol="34" />
          <note key="60" pos="468" pan="0" len="24" vol="34" />
          <note key="60" pos="516" pan="0" len="24" vol="34" />
          <note key="58" pos="564" pan="0" len="24" vol="34" />
          <note key="60" pos="588" pan="0" len="24" vol="34" />
          <note key="60" pos="660" pan="0" len="24" vol="34" />
          <note key="60" pos="708" pan="0" len="24" vol="34" />
          <note key="58" pos="756" pan="0" len="24" vol="34" />
          <note key="60" pos="780" pan="0" len="24" vol="34" />
          <note key="60" pos="852" pan="0" len="24" vol="34" />
          <note key="60" pos="900" pan="0" len="24" vol="34" />
          <note key="58" pos="948" pan="0" len="24" vol="34" />
          <note key="60" pos="972" pan="0" len="24" vol="34" />
          <note key="60" pos="1044" pan="0" len="24" vol="34" />
          <note key="60" pos="1092" pan="0" len="24" vol="34" />
          <note key="58" pos="1140" pan="0" len="24" vol="34" />
          <note key="60" pos="1164" pan="0" len="24" vol="34" />
          <note key="60" pos="1236" pan="0" len="24" vol="34" />
          <note key="60" pos="1284" pan="0" len="24" vol="34" />
          <note key="58" pos="1332" pan="0" len="24" vol="34" />
          <note key="60" pos="1356" pan="0" len="24" vol="34" />
          <note key="60" pos="1428" pan="0" len="24" vol="34" />
          <note key="60" pos="1476" pan="0" len="24" vol="34" />
          <note key="58" pos="1524" pan="0" len="12" vol="34" />
        </pattern>
        <pattern pos="22272" muted="0" steps="16" name="" type="1">
          <note key="60" pos="84" pan="0" len="24" vol="34" />
          <note key="60" pos="132" pan="0" len="24" vol="34" />
          <note key="58" pos="180" pan="0" len="24" vol="34" />
          <note key="60" pos="204" pan="0" len="24" vol="34" />
          <note key="60" pos="276" pan="0" len="24" vol="34" />
          <note key="60" pos="324" pan="0" len="24" vol="34" />
          <note key="58" pos="372" pan="0" len="24" vol="34" />
          <note key="60" pos="396" pan="0" len="24" vol="34" />
          <note key="60" pos="468" pan="0" len="24" vol="34" />
          <note key="60" pos="516" pan="0" len="24" vol="34" />
          <note key="58" pos="564" pan="0" len="24" vol="34" />
          <note key="60" pos="588" pan="0" len="24" vol="34" />
          <note key="60" pos="660" pan="0" len="24" vol="34" />
          <note key="60" pos="708" pan="0" len="24" vol="34" />
          <note key="58" pos="756" pan="0" len="24" vol="34" />
          <note key="60" pos="780" pan="0" len="24" vol="34" />
          <note key="60" pos="852" pan="0" len="24" vol="34" />
          <note key="60" pos="900" pan="0" len="24" vol="34" />
          <note key="58" pos="948" pan="0" len="24" vol="34" />
          <note key="60" pos="972" pan="0" len="24" vol="34" />
          <note key="60" pos="1044" pan="0" len="24" vol="34" />
          <note key="60" pos="1092" pan="0" len="24" vol="34" />
          <note key="58" pos="1140" pan="0" len="24" vol="34" />
          <note key="60" pos="1164" pan="0" len="24" vol="34" />
          <note key="60" pos="1236" pan="0" len="24" vol="34" />
          <note key="60" pos="1284" pan="0" len="24" vol="34" />
          <note key="58" pos="1332" pan="0" len="24" vol="34" />
          <note key="60" pos="1356" pan="0" len="24" vol="34" />
          <note key="60" pos="1428" pan="0" len="24" vol="34" />
          <note key="60" pos="1476" pan="0" len="24" vol="34" />
          <note key="58" pos="1524" pan="0" len="12" vol="34" />
        </pattern>
        <pattern pos="23808" muted="0" steps="16" name="" type="1">
          <note key="60" pos="84" pan="0" len="24" vol="34" />
          <note key="60" pos="132" pan="0" len="24" vol="34" />
          <note key="58" pos="180" pan="0" len="24" vol="34" />
          <note key="60" pos="204" pan="0" len="24" vol="34" />
          <note key="60" pos="276" pan="0" len="24" vol="34" />
          <note key="60" pos="324" pan="0" len="24" vol="34" />
          <note key="58" pos="372" pan="0" len="24" vol="34" />
          <note key="60" pos="396" pan="0" len="24" vol="34" />
          <note key="60" pos="468" pan="0" len="24" vol="34" />
          <note key="60" pos="516" pan="0" len="24" vol="34" />
          <note key="58" pos="564" pan="0" len="24" vol="34" />
          <note key="60" pos="588" pan="0" len="24" vol="34" />
          <note key="60" pos="660" pan="0" len="24" vol="34" />
          <note key="60" pos="708" pan="0" len="24" vol="34" />
          <note key="58" pos="756" pan="0" len="24" vol="34" />
          <note key="60" pos="780" pan="0" len="24" vol="34" />
          <note key="60" pos="852" pan="0" len="24" vol="34" />
          <note key="60" pos="900" pan="0" len="24" vol="34" />
          <note key="58" pos="948" pan="0" len="24" vol="34" />
          <note key="60" pos="972" pan="0" len="24" vol="34" />
          <note key="60" pos="1044" pan="0" len="24" vol="34" />
          <note key="60" pos="1092" pan="0" len="24" vol="34" />
          <note key="58" pos="1140" pan="0" len="24" vol="34" />
          <note key="60" pos="1164" pan="0" len="24" vol="34" />
          <note key="60" pos="1236" pan="0" len="24" vol="34" />
          <note key="60" pos="1284" pan="0" len="24" vol="34" />
          <note key="58" pos="1332" pan="0" len="24" vol="34" />
          <note key="60" pos="1356" pan="0" len="24" vol="34" />
          <note key="60" pos="1428" pan="0" len="24" vol="34" />
          <note key="60" pos="1476" pan="0" len="24" vol="34" />
          <note key="58" pos="1524" pan="0" len="12" vol="34" />
        </pattern>
        <pattern pos="25344" muted="0" steps="16" name="" type="1">
          <note key="60" pos="84" pan="0" len="24" vol="33" />
          <note key="60" pos="132" pan="0" len="24" vol="31" />
          <note key="58" pos="180" pan="0" len="24" vol="30" />
          <note key="60" pos="204" pan="0" len="24" vol="30" />
          <note key="60" pos="276" pan="0" len="24" vol="28" />
          <note key="60" pos="324" pan="0" len="24" vol="27" />
          <note key="58" pos="372" pan="0" len="24" vol="27" />
          <note key="60" pos="396" pan="0" len="24" vol="25" />
          <note key="60" pos="468" pan="0" len="24" vol="23" />
          <note key="60" pos="516" pan="0" len="24" vol="23" />
          <note key="58" pos="564" pan="0" len="24" vol="22" />
          <note key="60" pos="588" pan="0" len="24" vol="22" />
          <note key="60" pos="660" pan="0" len="24" vol="20" />
          <note key="60" pos="708" pan="0" len="24" vol="19" />
          <note key="58" pos="756" pan="0" len="24" vol="17" />
          <note key="60" pos="780" pan="0" len="24" vol="17" />
          <note key="60" pos="852" pan="0" len="24" vol="16" />
          <note key="60" pos="900" pan="0" len="24" vol="14" />
          <note key="58" pos="948" pan="0" len="24" vol="12" />
          <note key="60" pos="972" pan="0" len="24" vol="12" />
          <note key="60" pos="1044" pan="0" len="24" vol="11" />
          <note key="60" pos="1092" pan="0" len="24" vol="9" />
          <note key="58" pos="1140" pan="0" len="24" vol="9" />
          <note key="60" pos="1164" pan="0" len="24" vol="8" />
          <note key="60" pos="1236" pan="0" len="24" vol="6" />
          <note key="60" pos="1284" pan="0" len="24" vol="6" />
          <note key="58" pos="1332" pan="0" len="24" vol="5" />
          <note key="60" pos="1356" pan="0" len="24" vol="5" />
          <note key="60" pos="1428" pan="0" len="24" vol="3" />
          <note key="60" pos="1476" pan="0" len="24" vol="2" />
          <note key="58" pos="1524" pan="0" len="12" vol="0" />
        </pattern>
        <pattern pos="30720" muted="0" steps="16" name="" type="1">
          <note key="60" pos="12" pan="0" len="12" vol="100" />
          <note key="58" pos="48" pan="0" len="12" vol="100" />
          <note key="60" pos="60" pan="0" len="12" vol="100" />
          <note key="60" pos="84" pan="0" len="12" vol="100" />
          <note key="58" pos="120" pan="0" len="12" vol="100" />
          <note key="60" pos="132" pan="0" len="12" vol="100" />
          <note key="60" pos="156" pan="0" len="12" vol="100" />
          <note key="58" pos="192" pan="0" len="12" vol="100" />
          <note key="60" pos="204" pan="0" len="12" vol="100" />
          <note key="60" pos="228" pan="0" len="12" vol="100" />
          <note key="58" pos="264" pan="0" len="12" vol="100" />
          <note key="60" pos="276" pan="0" len="12" vol="100" />
          <note key="60" pos="300" pan="0" len="12" vol="100" />
          <note key="58" pos="336" pan="0" len="12" vol="100" />
          <note key="60" pos="348" pan="0" len="12" vol="100" />
          <note key="60" pos="372" pan="0" len="12" vol="100" />
          <note key="58" pos="408" pan="0" len="12" vol="100" />
          <note key="60" pos="420" pan="0" len="12" vol="100" />
          <note key="60" pos="444" pan="0" len="12" vol="100" />
          <note key="58" pos="480" pan="0" len="12" vol="100" />
          <note key="60" pos="492" pan="0" len="12" vol="100" />
          <note key="60" pos="516" pan="0" len="12" vol="100" />
          <note key="58" pos="552" pan="0" len="12" vol="100" />
          <note key="60" pos="564" pan="0" len="12" vol="100" />
          <note key="60" pos="588" pan="0" len="12" vol="100" />
          <note key="58" pos="624" pan="0" len="12" vol="100" />
          <note key="60" pos="636" pan="0" len="12" vol="100" />
          <note key="60" pos="660" pan="0" len="12" vol="100" />
          <note key="58" pos="696" pan="0" len="12" vol="100" />
          <note key="60" pos="708" pan="0" len="12" vol="100" />
          <note key="60" pos="732" pan="0" len="12" vol="100" />
          <note key="58" pos="768" pan="0" len="12" vol="100" />
          <note key="60" pos="780" pan="0" len="12" vol="100" />
          <note key="60" pos="804" pan="0" len="12" vol="100" />
          <note key="58" pos="840" pan="0" len="12" vol="100" />
          <note key="60" pos="852" pan="0" len="12" vol="100" />
          <note key="60" pos="876" pan="0" len="12" vol="100" />
          <note key="58" pos="912" pan="0" len="12" vol="100" />
          <note key="60" pos="924" pan="0" len="12" vol="100" />
          <note key="60" pos="948" pan="0" len="12" vol="100" />
          <note key="58" pos="984" pan="0" len="12" vol="100" />
          <note key="60" pos="996" pan="0" len="12" vol="100" />
          <note key="60" pos="1020" pan="0" len="12" vol="100" />
          <note key="58" pos="1056" pan="0" len="12" vol="100" />
          <note key="60" pos="1068" pan="0" len="12" vol="100" />
          <note key="60" pos="1092" pan="0" len="12" vol="100" />
          <note key="58" pos="1128" pan="0" len="12" vol="100" />
          <note key="60" pos="1140" pan="0" len="12" vol="100" />
        </pattern>
        <pattern pos="31872" muted="0" steps="16" name="" type="1">
          <note key="60" pos="12" pan="0" len="12" vol="100" />
          <note key="58" pos="48" pan="0" len="12" vol="100" />
          <note key="60" pos="60" pan="0" len="12" vol="100" />
          <note key="60" pos="84" pan="0" len="12" vol="100" />
          <note key="58" pos="120" pan="0" len="12" vol="100" />
          <note key="60" pos="132" pan="0" len="12" vol="100" />
          <note key="60" pos="156" pan="0" len="12" vol="100" />
          <note key="58" pos="192" pan="0" len="12" vol="100" />
          <note key="60" pos="204" pan="0" len="12" vol="100" />
          <note key="60" pos="228" pan="0" len="12" vol="100" />
          <note key="58" pos="264" pan="0" len="12" vol="100" />
          <note key="60" pos="276" pan="0" len="12" vol="100" />
          <note key="60" pos="300" pan="0" len="12" vol="100" />
          <note key="58" pos="336" pan="0" len="12" vol="100" />
          <note key="60" pos="348" pan="0" len="12" vol="100" />
          <note key="60" pos="372" pan="0" len="12" vol="100" />
          <note key="58" pos="408" pan="0" len="12" vol="100" />
          <note key="60" pos="420" pan="0" len="12" vol="100" />
          <note key="60" pos="444" pan="0" len="12" vol="100" />
          <note key="58" pos="480" pan="0" len="12" vol="100" />
          <note key="60" pos="492" pan="0" len="12" vol="100" />
          <note key="60" pos="516" pan="0" len="12" vol="100" />
          <note key="58" pos="552" pan="0" len="12" vol="100" />
          <note key="60" pos="564" pan="0" len="12" vol="100" />
          <note key="60" pos="588" pan="0" len="12" vol="100" />
          <note key="58" pos="624" pan="0" len="12" vol="100" />
          <note key="60" pos="636" pan="0" len="12" vol="100" />
          <note key="60" pos="660" pan="0" len="12" vol="100" />
          <note key="58" pos="696" pan="0" len="12" vol="100" />
          <note key="60" pos="708" pan="0" len="12" vol="100" />
          <note key="60" pos="732" pan="0" len="12" vol="100" />
          <note key="58" pos="768" pan="0" len="12" vol="100" />
          <note key="60" pos="780" pan="0" len="12" vol="100" />
          <note key="60" pos="804" pan="0" len="12" vol="100" />
          <note key="58" pos="840" pan="0" len="12" vol="100" />
          <note key="60" pos="852" pan="0" len="12" vol="100" />
          <note key="60" pos="876" pan="0" len="12" vol="100" />
          <note key="58" pos="912" pan="0" len="12" vol="100" />
          <note key="60" pos="924" pan="0" len="12" vol="100" />
          <note key="60" pos="948" pan="0" len="12" vol="100" />
          <note key="58" pos="984" pan="0" len="12" vol="100" />
          <note key="60" pos="996" pan="0" len="12" vol="100" />
          <note key="60" pos="1020" pan="0" len="12" vol="100" />
          <note key="58" pos="1056" pan="0" len="12" vol="100" />
          <note key="60" pos="1068" pan="0" len="12" vol="100" />
          <note key="60" pos="1092" pan="0" len="12" vol="100" />
          <note key="58" pos="1128" pan="0" len="12" vol="100" />
          <note key="60" pos="1140" pan="0" len="12" vol="100" />
        </pattern>
        <pattern pos="33024" muted="0" steps="16" name="" type="1">
          <note key="60" pos="12" pan="0" len="12" vol="100" />
          <note key="58" pos="48" pan="0" len="12" vol="100" />
          <note key="60" pos="60" pan="0" len="12" vol="100" />
          <note key="60" pos="84" pan="0" len="12" vol="100" />
          <note key="58" pos="120" pan="0" len="12" vol="100" />
          <note key="60" pos="132" pan="0" len="12" vol="100" />
          <note key="60" pos="156" pan="0" len="12" vol="100" />
          <note key="58" pos="192" pan="0" len="12" vol="100" />
          <note key="60" pos="204" pan="0" len="12" vol="100" />
          <note key="60" pos="228" pan="0" len="12" vol="100" />
          <note key="58" pos="264" pan="0" len="12" vol="100" />
          <note key="60" pos="276" pan="0" len="12" vol="100" />
          <note key="60" pos="300" pan="0" len="12" vol="100" />
          <note key="58" pos="336" pan="0" len="12" vol="100" />
          <note key="60" pos="348" pan="0" len="12" vol="100" />
          <note key="60" pos="372" pan="0" len="12" vol="100" />
          <note key="58" pos="408" pan="0" len="12" vol="100" />
          <note key="60" pos="420" pan="0" len="12" vol="100" />
          <note key="60" pos="444" pan="0" len="12" vol="100" />
          <note key="58" pos="480" pan="0" len="12" vol="100" />
          <note key="60" pos="492" pan="0" len="12" vol="100" />
          <note key="60" pos="516" pan="0" len="12" vol="100" />
          <note key="58" pos="552" pan="0" len="12" vol="100" />
          <note key="60" pos="564" pan="0" len="12" vol="100" />
          <note key="60" pos="588" pan="0" len="12" vol="100" />
          <note key="58" pos="624" pan="0" len="12" vol="100" />
          <note key="60" pos="636" pan="0" len="12" vol="100" />
          <note key="60" pos="660" pan="0" len="12" vol="100" />
          <note key="58" pos="696" pan="0" len="12" vol="100" />
          <note key="60" pos="708" pan="0" len="12" vol="100" />
          <note key="60" pos="732" pan="0" len="12" vol="100" />
          <note key="58" pos="768" pan="0" len="12" vol="100" />
          <note key="60" pos="780" pan="0" len="12" vol="100" />
          <note key="60" pos="804" pan="0" len="12" vol="100" />
          <note key="58" pos="840" pan="0" len="12" vol="100" />
          <note key="60" pos="852" pan="0" len="12" vol="100" />
          <note key="60" pos="876" pan="0" len="12" vol="100" />
          <note key="58" pos="912" pan="0" len="12" vol="100" />
          <note key="60" pos="924" pan="0" len="12" vol="100" />
          <note key="60" pos="948" pan="0" len="12" vol="100" />
          <note key="58" pos="984" pan="0" len="12" vol="100" />
          <note key="60" pos="996" pan="0" len="12" vol="100" />
          <note key="60" pos="1020" pan="0" len="12" vol="100" />
          <note key="58" pos="1056" pan="0" len="12" vol="100" />
          <note key="60" pos="1068" pan="0" len="12" vol="100" />
          <note key="60" pos="1092" pan="0" len="12" vol="100" />
          <note key="58" pos="1128" pan="0" len="12" vol="100" />
          <note key="60" pos="1140" pan="0" len="12" vol="100" />
        </pattern>
        <pattern pos="34176" muted="0" steps="16" name="" type="1">
          <note key="63" pos="12" pan="0" len="12" vol="100" />
          <note key="61" pos="48" pan="0" len="12" vol="100" />
          <note key="63" pos="60" pan="0" len="12" vol="100" />
          <note key="63" pos="84" pan="0" len="12" vol="100" />
          <note key="61" pos="120" pan="0" len="12" vol="100" />
          <note key="63" pos="132" pan="0" len="12" vol="100" />
          <note key="63" pos="156" pan="0" len="12" vol="100" />
          <note key="61" pos="192" pan="0" len="12" vol="100" />
          <note key="63" pos="204" pan="0" len="12" vol="100" />
          <note key="63" pos="228" pan="0" len="12" vol="100" />
          <note key="61" pos="264" pan="0" len="12" vol="100" />
          <note key="63" pos="276" pan="0" len="12" vol="100" />
          <note key="63" pos="300" pan="0" len="12" vol="100" />
          <note key="61" pos="336" pan="0" len="12" vol="100" />
          <note key="63" pos="348" pan="0" len="12" vol="100" />
          <note key="63" pos="372" pan="0" len="12" vol="100" />
          <note key="61" pos="408" pan="0" len="12" vol="100" />
          <note key="63" pos="420" pan="0" len="12" vol="100" />
          <note key="63" pos="444" pan="0" len="12" vol="100" />
          <note key="61" pos="480" pan="0" len="12" vol="100" />
          <note key="63" pos="492" pan="0" len="12" vol="100" />
          <note key="63" pos="516" pan="0" len="12" vol="100" />
          <note key="61" pos="552" pan="0" len="12" vol="100" />
          <note key="63" pos="564" pan="0" len="12" vol="100" />
          <note key="63" pos="588" pan="0" len="12" vol="100" />
          <note key="61" pos="624" pan="0" len="12" vol="100" />
          <note key="63" pos="636" pan="0" len="12" vol="100" />
          <note key="63" pos="660" pan="0" len="12" vol="100" />
          <note key="61" pos="696" pan="0" len="12" vol="100" />
          <note key="63" pos="708" pan="0" len="12" vol="100" />
          <note key="63" pos="732" pan="0" len="12" vol="100" />
          <note key="61" pos="768" pan="0" len="12" vol="100" />
          <note key="63" pos="780" pan="0" len="12" vol="100" />
          <note key="63" pos="804" pan="0" len="12" vol="100" />
          <note key="61" pos="840" pan="0" len="12" vol="100" />
          <note key="63" pos="852" pan="0" len="12" vol="100" />
          <note key="63" pos="876" pan="0" len="12" vol="100" />
          <note key="61" pos="912" pan="0" len="12" vol="100" />
          <note key="63" pos="924" pan="0" len="12" vol="100" />
          <note key="63" pos="948" pan="0" len="12" vol="100" />
          <note key="61" pos="984" pan="0" len="12" vol="100" />
          <note key="63" pos="996" pan="0" len="12" vol="100" />
          <note key="63" pos="1020" pan="0" len="12" vol="100" />
          <note key="61" pos="1056" pan="0" len="12" vol="100" />
          <note key="63" pos="1068" pan="0" len="12" vol="100" />
          <note key="63" pos="1092" pan="0" len="12" vol="100" />
          <note key="61" pos="1128" pan="0" len="12" vol="100" />
          <note key="63" pos="1140" pan="0" len="12" vol="100" />
        </pattern>
        <pattern pos="35328" muted="0" steps="16" name="" type="1">
          <note key="63" pos="12" pan="0" len="12" vol="100" />
          <note key="61" pos="48" pan="0" len="12" vol="100" />
          <note key="63" pos="60" pan="0" len="12" vol="100" />
          <note key="63" pos="84" pan="0" len="12" vol="100" />
          <note key="61" pos="120" pan="0" len="12" vol="100" />
          <note key="63" pos="132" pan="0" len="12" vol="100" />
          <note key="63" pos="156" pan="0" len="12" vol="100" />
          <note key="61" pos="192" pan="0" len="12" vol="100" />
          <note key="63" pos="204" pan="0" len="12" vol="100" />
          <note key="63" pos="228" pan="0" len="12" vol="100" />
          <note key="61" pos="264" pan="0" len="12" vol="100" />
          <note key="63" pos="276" pan="0" len="12" vol="100" />
          <note key="65" pos="300" pan="0" len="12" vol="100" />
          <note key="63" pos="336" pan="0" len="12" vol="100" />
          <note key="65" pos="348" pan="0" len="12" vol="100" />
          <note key="65" pos="372" pan="0" len="12" vol="100" />
          <note key="63" pos="408" pan="0" len="12" vol="100" />
          <note key="65" pos="420" pan="0" len="12" vol="100" />
          <note key="65" pos="444" pan="0" len="12" vol="100" />
          <note key="63" pos="480" pan="0" len="12" vol="100" />
          <note key="65" pos="492" pan="0" len="12" vol="100" />
          <note key="65" pos="516" pan="0" len="12" vol="100" />
          <note key="63" pos="552" pan="0" len="12" vol="100" />
          <note key="65" pos="564" pan="0" len="12" vol="100" />
          <note key="66" pos="588" pan="0" len="12" vol="100" />
          <note key="64" pos="624" pan="0" len="12" vol="100" />
          <note key="66" pos="636" pan="0" len="12" vol="100" />
          <note key="66" pos="660" pan="0" len="12" vol="100" />
          <note key="64" pos="696" pan="0" len="12" vol="100" />
          <note key="66" pos="708" pan="0" len="12" vol="100" />
          <note key="66" pos="732" pan="0" len="12" vol="100" />
          <note key="64" pos="768" pan="0" len="12" vol="100" />
          <note key="66" pos="780" pan="0" len="12" vol="100" />
          <note key="66" pos="804" pan="0" len="12" vol="100" />
          <note key="64" pos="840" pan="0" len="12" vol="100" />
          <note key="66" pos="852" pan="0" len="12" vol="100" />
          <note key="68" pos="876" pan="0" len="12" vol="100" />
          <note key="66" pos="912" pan="0" len="12" vol="100" />
          <note key="68" pos="924" pan="0" len="12" vol="100" />
          <note key="68" pos="948" pan="0" len="12" vol="100" />
          <note key="63" pos="984" pan="0" len="12" vol="100" />
          <note key="65" pos="996" pan="0" len="12" vol="100" />
          <note key="65" pos="1020" pan="0" len="12" vol="100" />
          <note key="63" pos="1056" pan="0" len="12" vol="100" />
          <note key="65" pos="1068" pan="0" len="12" vol="100" />
          <note key="65" pos="1092" pan="0" len="12" vol="100" />
          <note key="63" pos="1128" pan="0" len="12" vol="100" />
          <note key="65" pos="1140" pan="0" len="12" vol="100" />
        </pattern>
        <pattern pos="36480" muted="0" steps="16" name="" type="1">
          <note key="60" pos="12" pan="0" len="12" vol="100" />
          <note key="58" pos="48" pan="0" len="12" vol="100" />
          <note key="60" pos="60" pan="0" len="12" vol="100" />
          <note key="60" pos="84" pan="0" len="12" vol="100" />
          <note key="58" pos="120" pan="0" len="12" vol="100" />
          <note key="60" pos="132" pan="0" len="12" vol="100" />
          <note key="60" pos="156" pan="0" len="12" vol="100" />
          <note key="58" pos="192" pan="0" len="12" vol="100" />
          <note key="60" pos="204" pan="0" len="12" vol="100" />
          <note key="60" pos="228" pan="0" len="12" vol="100" />
          <note key="58" pos="264" pan="0" len="12" vol="100" />
          <note key="60" pos="276" pan="0" len="12" vol="100" />
          <note key="60" pos="300" pan="0" len="12" vol="100" />
          <note key="58" pos="336" pan="0" len="12" vol="100" />
          <note key="60" pos="348" pan="0" len="12" vol="100" />
          <note key="60" pos="372" pan="0" len="12" vol="100" />
          <note key="58" pos="408" pan="0" len="12" vol="100" />
          <note key="60" pos="420" pan="0" len="12" vol="100" />
          <note key="60" pos="444" pan="0" len="12" vol="100" />
          <note key="58" pos="480" pan="0" len="12" vol="100" />
          <note key="60" pos="492" pan="0" len="12" vol="100" />
          <note key="60" pos="516" pan="0" len="12" vol="100" />
          <note key="58" pos="552" pan="0" len="12" vol="100" />
          <note key="60" pos="564" pan="0" len="12" vol="100" />
          <note key="60" pos="588" pan="0" len="12" vol="100" />
          <note key="58" pos="624" pan="0" len="12" vol="100" />
          <note key="60" pos="636" pan="0" len="12" vol="100" />
          <note key="60" pos="660" pan="0" len="12" vol="100" />
          <note key="58" pos="696" pan="0" len="12" vol="100" />
          <note key="60" pos="708" pan="0" len="12" vol="100" />
          <note key="60" pos="732" pan="0" len="12" vol="100" />
          <note key="58" pos="768" pan="0" len="12" vol="100" />
          <note key="60" pos="780" pan="0" len="12" vol="100" />
          <note key="60" pos="804" pan="0" len="12" vol="100" />
          <note key="58" pos="840" pan="0" len="12" vol="100" />
          <note key="60" pos="852" pan="0" len="12" vol="100" />
          <note key="60" pos="876" pan="0" len="12" vol="100" />
          <note key="58" pos="912" pan="0" len="12" vol="100" />
          <note key="60" pos="924" pan="0" len="12" vol="100" />
          <note key="60" pos="948" pan="0" len="12" vol="100" />
          <note key="58" pos="984" pan="0" len="12" vol="100" />
          <note key="60" pos="996" pan="0" len="12" vol="100" />
          <note key="60" pos="1020" pan="0" len="12" vol="100" />
          <note key="58" pos="1056" pan="0" len="12" vol="100" />
          <note key="60" pos="1068" pan="0" len="12" vol="100" />
          <note key="60" pos="1092" pan="0" len="12" vol="100" />
          <note key="58" pos="1128" pan="0" len="12" vol="100" />
          <note key="60" pos="1140" pan="0" len="12" vol="100" />
        </pattern>
        <pattern pos="37632" muted="0" steps="16" name="" type="1">
          <note key="60" pos="12" pan="0" len="12" vol="100" />
          <note key="58" pos="48" pan="0" len="12" vol="100" />
          <note key="60" pos="60" pan="0" len="12" vol="100" />
          <note key="60" pos="84" pan="0" len="12" vol="100" />
          <note key="58" pos="120" pan="0" len="12" vol="100" />
          <note key="60" pos="132" pan="0" len="12" vol="100" />
          <note key="60" pos="156" pan="0" len="12" vol="100" />
          <note key="58" pos="192" pan="0" len="12" vol="100" />
          <note key="60" pos="204" pan="0" len="12" vol="100" />
          <note key="60" pos="228" pan="0" len="12" vol="100" />
          <note key="58" pos="264" pan="0" len="12" vol="100" />
          <note key="60" pos="276" pan="0" len="12" vol="100" />
          <note key="60" pos="300" pan="0" len="12" vol="100" />
          <note key="58" pos="336" pan="0" len="12" vol="100" />
          <note key="60" pos="348" pan="0" len="12" vol="100" />
          <note key="60" pos="372" pan="0" len="12" vol="100" />
          <note key="58" pos="408" pan="0" len="12" vol="100" />
          <note key="60" pos="420" pan="0" len="12" vol="100" />
          <note key="60" pos="444" pan="0" len="12" vol="100" />
          <note key="58" pos="480" pan="0" len="12" vol="100" />
          <note key="60" pos="492" pan="0" len="12" vol="100" />
          <note key="60" pos="516" pan="0" len="12" vol="100" />
          <note key="58" pos="552" pan="0" len="12" vol="100" />
          <note key="60" pos="564" pan="0" len="12" vol="100" />
          <note key="53" pos="588" pan="0" len="12" vol="100" />
          <note key="51" pos="624" pan="0" len="12" vol="100" />
          <note key="53" pos="636" pan="0" len="12" vol="100" />
          <note key="53" pos="660" pan="0" len="12" vol="100" />
          <note key="51" pos="696" pan="0" len="12" vol="100" />
          <note key="53" pos="708" pan="0" len="12" vol="100" />
          <note key="53" pos="732" pan="0" len="12" vol="100" />
          <note key="51" pos="768" pan="0" len="12" vol="100" />
          <note key="53" pos="780" pan="0" len="12" vol="100" />
          <note key="53" pos="804" pan="0" len="12" vol="100" />
          <note key="51" pos="840" pan="0" len="12" vol="100" />
          <note key="53" pos="852" pan="0" len="12" vol="100" />
          <note key="53" pos="876" pan="0" len="12" vol="100" />
          <note key="51" pos="912" pan="0" len="12" vol="100" />
          <note key="53" pos="924" pan="0" len="12" vol="100" />
          <note key="53" pos="948" pan="0" len="12" vol="100" />
          <note key="51" pos="984" pan="0" len="12" vol="100" />
          <note key="53" pos="996" pan="0" len="12" vol="100" />
          <note key="53" pos="1020" pan="0" len="12" vol="100" />
          <note key="53" pos="1056" pan="0" len="12" vol="100" />
          <note key="55" pos="1068" pan="0" len="12" vol="100" />
          <note key="55" pos="1092" pan="0" len="12" vol="100" />
          <note key="53" pos="1128" pan="0" len="12" vol="100" />
          <note key="55" pos="1140" pan="0" len="12" vol="100" />
        </pattern>
        <pattern pos="38784" muted="0" steps="16" name="" type="1">
          <note key="60" pos="12" pan="0" len="12" vol="100" />
          <note key="58" pos="48" pan="0" len="12" vol="100" />
          <note key="60" pos="60" pan="0" len="12" vol="100" />
          <note key="60" pos="84" pan="0" len="12" vol="100" />
          <note key="58" pos="120" pan="0" len="12" vol="100" />
          <note key="60" pos="132" pan="0" len="12" vol="100" />
          <note key="60" pos="156" pan="0" len="12" vol="100" />
          <note key="58" pos="192" pan="0" len="12" vol="100" />
          <note key="60" pos="204" pan="0" len="12" vol="100" />
          <note key="60" pos="228" pan="0" len="12" vol="100" />
          <note key="58" pos="264" pan="0" len="12" vol="100" />
          <note key="60" pos="276" pan="0" len="12" vol="100" />
          <note key="60" pos="300" pan="0" len="12" vol="100" />
          <note key="58" pos="336" pan="0" len="12" vol="100" />
          <note key="60" pos="348" pan="0" len="12" vol="100" />
          <note key="60" pos="372" pan="0" len="12" vol="100" />
          <note key="58" pos="408" pan="0" len="12" vol="100" />
          <note key="60" pos="420" pan="0" len="12" vol="100" />
          <note key="60" pos="444" pan="0" len="12" vol="100" />
          <note key="58" pos="480" pan="0" len="12" vol="100" />
          <note key="60" pos="492" pan="0" len="12" vol="100" />
          <note key="60" pos="516" pan="0" len="12" vol="100" />
          <note key="58" pos="552" pan="0" len="12" vol="100" />
          <note key="60" pos="564" pan="0" len="12" vol="100" />
          <note key="60" pos="588" pan="0" len="12" vol="100" />
          <note key="58" pos="624" pan="0" len="12" vol="100" />
          <note key="60" pos="636" pan="0" len="12" vol="100" />
          <note key="60" pos="660" pan="0" len="12" vol="100" />
          <note key="58" pos="696" pan="0" len="12" vol="100" />
          <note key="60" pos="708" pan="0" len="12" vol="100" />
          <note key="60" pos="732" pan="0" len="12" vol="100" />
          <note key="58" pos="768" pan="0" len="12" vol="100" />
          <note key="60" pos="780" pan="0" len="12" vol="100" />
          <note key="60" pos="804" pan="0" len="12" vol="100" />
          <note key="58" pos="840" pan="0" len="12" vol="100" />
          <note key="60" pos="852" pan="0" len="12" vol="100" />
          <note key="60" pos="876" pan="0" len="12" vol="100" />
          <note key="58" pos="912" pan="0" len="12" vol="100" />
          <note key="60" pos="924" pan="0" len="12" vol="100" />
          <note key="60" pos="948" pan="0" len="12" vol="100" />
          <note key="58" pos="984" pan="0" len="12" vol="100" />
          <note key="60" pos="996" pan="0" len="12" vol="100" />
          <note key="60" pos="1020" pan="0" len="12" vol="100" />
          <note key="58" pos="1056" pan="0" len="12" vol="100" />
          <note key="60" pos="1068" pan="0" len="12" vol="100" />
          <note key="60" pos="1092" pan="0" len="12" vol="100" />
          <note key="58" pos="1128" pan="0" len="12" vol="100" />
          <note key="60" pos="1140" pan="0" len="12" vol="100" />
        </pattern>
      </track>
      <track solo="0" name="23 (Ch3)" type="0" muted="0">
        <instrumenttrack usemasterpitch="1" pitch="0.0" basenote="57" pan="0" pitchrange="12" vol="30">
          <eldata />
          <instrument name="tripleoscillator" />
        </instrumenttrack>
        <pattern pos="16128" muted="0" steps="16" name="" type="1">
          <note key="58" pos="48" pan="0" len="72" vol="100" />
          <note key="58" pos="240" pan="0" len="72" vol="100" />
          <note key="60" pos="432" pan="0" len="72" vol="100" />
          <note key="60" pos="624" pan="0" len="72" vol="100" />
          <note key="58" pos="816" pan="0" len="72" vol="100" />
          <note key="58" pos="1008" pan="0" len="72" vol="100" />
          <note key="60" pos="1200" pan="0" len="72" vol="100" />
          <note key="60" pos="1392" pan="0" len="72" vol="100" />
        </pattern>
        <pattern pos="6912" muted="0" steps="16" name="" type="1">
          <note key="60" pos="48" pan="0" len="72" vol="100" />
          <note key="60" pos="240" pan="0" len="72" vol="100" />
          <note key="60" pos="432" pan="0" len="72" vol="100" />
          <note key="60" pos="624" pan="0" len="72" vol="100" />
        </pattern>
        <pattern pos="7680" muted="0" steps="16" name="" type="1">
          <note key="60" pos="48" pan="0" len="72" vol="100" />
          <note key="60" pos="240" pan="0" len="72" vol="100" />
          <note key="60" pos="432" pan="0" len="72" vol="100" />
          <note key="60" pos="624" pan="0" len="72" vol="100" />
        </pattern>
        <pattern pos="8448" muted="0" steps="16" name="" type="1">
          <note key="60" pos="48" pan="0" len="72" vol="100" />
          <note key="60" pos="240" pan="0" len="72" vol="100" />
          <note key="55" pos="432" pan="0" len="72" vol="100" />
          <note key="55" pos="624" pan="0" len="72" vol="100" />
        </pattern>
        <pattern pos="9216" muted="0" steps="16" name="" type="1">
          <note key="60" pos="48" pan="0" len="72" vol="100" />
          <note key="60" pos="240" pan="0" len="72" vol="100" />
          <note key="55" pos="432" pan="0" len="72" vol="100" />
          <note key="55" pos="624" pan="0" len="72" vol="100" />
        </pattern>
        <pattern pos="9984" muted="0" steps="16" name="" type="1">
          <note key="58" pos="48" pan="0" len="72" vol="100" />
          <note key="58" pos="240" pan="0" len="72" vol="100" />
          <note key="60" pos="432" pan="0" len="72" vol="100" />
          <note key="60" pos="624" pan="0" len="72" vol="100" />
        </pattern>
        <pattern pos="10752" muted="0" steps="16" name="" type="1">
          <note key="58" pos="48" pan="0" len="72" vol="100" />
          <note key="58" pos="240" pan="0" len="72" vol="100" />
          <note key="60" pos="432" pan="0" len="72" vol="100" />
          <note key="60" pos="624" pan="0" len="72" vol="100" />
        </pattern>
        <pattern pos="11520" muted="0" steps="16" name="" type="1">
          <note key="60" pos="48" pan="0" len="72" vol="100" />
          <note key="60" pos="240" pan="0" len="72" vol="100" />
          <note key="55" pos="432" pan="0" len="72" vol="100" />
          <note key="55" pos="624" pan="0" len="72" vol="100" />
          <note key="60" pos="816" pan="0" len="72" vol="100" />
          <note key="60" pos="1008" pan="0" len="72" vol="100" />
          <note key="55" pos="1200" pan="0" len="72" vol="100" />
          <note key="55" pos="1392" pan="0" len="72" vol="100" />
        </pattern>
        <pattern pos="13056" muted="0" steps="16" name="" type="1">
          <note key="58" pos="48" pan="0" len="72" vol="100" />
          <note key="58" pos="240" pan="0" len="72" vol="100" />
          <note key="60" pos="432" pan="0" len="72" vol="100" />
          <note key="60" pos="624" pan="0" len="72" vol="100" />
          <note key="58" pos="816" pan="0" len="72" vol="100" />
          <note key="58" pos="1008" pan="0" len="72" vol="100" />
          <note key="60" pos="1200" pan="0" len="72" vol="100" />
          <note key="60" pos="1392" pan="0" len="72" vol="100" />
        </pattern>
        <pattern pos="14592" muted="0" steps="16" name="" type="1">
          <note key="60" pos="48" pan="0" len="72" vol="100" />
          <note key="60" pos="240" pan="0" len="72" vol="100" />
          <note key="55" pos="432" pan="0" len="72" vol="100" />
          <note key="55" pos="624" pan="0" len="72" vol="100" />
          <note key="60" pos="816" pan="0" len="72" vol="100" />
          <note key="60" pos="1008" pan="0" len="72" vol="100" />
          <note key="55" pos="1200" pan="0" len="72" vol="100" />
          <note key="55" pos="1392" pan="0" len="72" vol="100" />
        </pattern>
      </track>
      <track solo="0" name="23 (Ch4)" type="0" muted="0">
        <instrumenttrack usemasterpitch="1" pitch="0.0" basenote="57" pan="0" pitchrange="12" vol="30">
          <eldata />
          <instrument name="tripleoscillator" />
        </instrumenttrack>
        <pattern pos="89856" muted="0" steps="16" name="" type="1">
          <note key="48" pos="0" pan="0" len="24" vol="100" />
        </pattern>
        <pattern pos="89088" muted="0" steps="16" name="" type="1">
          <note key="48" pos="0" pan="0" len="24" vol="100" />
        </pattern>
      </track>
      <track solo="0" name="23 (Ch5)" type="0" muted="0">
        <instrumenttrack usemasterpitch="1" pitch="0.0" basenote="57" pan="0" pitchrange="12" vol="30">
          <eldata />
          <instrument name="tripleoscillator" />
        </instrumenttrack>
        <pattern pos="91392" muted="0" steps="16" name="" type="1">
          <note key="50" pos="240" pan="0" len="72" vol="100" />
          <note key="51" pos="312" pan="0" len="48" vol="100" />
          <note key="53" pos="360" pan="0" len="48" vol="100" />
          <note key="50" pos="624" pan="0" len="72" vol="100" />
          <note key="51" pos="696" pan="0" len="48" vol="100" />
          <note key="53" pos="744" pan="0" len="24" vol="100" />
        </pattern>
        <pattern pos="76800" muted="0" steps="16" name="" type="1">
          <note key="50" pos="240" pan="0" len="72" vol="100" />
          <note key="51" pos="312" pan="0" len="48" vol="100" />
          <note key="53" pos="360" pan="0" len="48" vol="100" />
          <note key="50" pos="624" pan="0" len="72" vol="100" />
          <note key="51" pos="696" pan="0" len="48" vol="100" />
          <note key="53" pos="744" pan="0" len="24" vol="100" />
        </pattern>
        <pattern pos="77568" muted="0" steps="16" name="" type="1">
          <note key="50" pos="240" pan="0" len="72" vol="100" />
          <note key="51" pos="312" pan="0" len="48" vol="100" />
          <note key="53" pos="360" pan="0" len="48" vol="100" />
          <note key="50" pos="624" pan="0" len="72" vol="100" />
          <note key="51" pos="696" pan="0" len="48" vol="100" />
          <note key="53" pos="744" pan="0" len="24" vol="100" />
        </pattern>
        <pattern pos="78336" muted="0" steps="16" name="" type="1">
          <note key="50" pos="240" pan="0" len="72" vol="100" />
          <note key="51" pos="312" pan="0" len="48" vol="100" />
          <note key="53" pos="360" pan="0" len="48" vol="100" />
          <note key="50" pos="624" pan="0" len="72" vol="100" />
          <note key="51" pos="696" pan="0" len="48" vol="100" />
          <note key="53" pos="744" pan="0" len="24" vol="100" />
        </pattern>
        <pattern pos="79104" muted="0" steps="16" name="" type="1">
          <note key="50" pos="240" pan="0" len="72" vol="100" />
          <note key="51" pos="312" pan="0" len="48" vol="100" />
          <note key="53" pos="360" pan="0" len="48" vol="100" />
          <note key="50" pos="624" pan="0" len="72" vol="100" />
          <note key="51" pos="696" pan="0" len="48" vol="100" />
          <note key="53" pos="744" pan="0" len="24" vol="100" />
        </pattern>
        <pattern pos="79872" muted="0" steps="16" name="" type="1">
          <note key="50" pos="240" pan="0" len="72" vol="100" />
          <note key="51" pos="312" pan="0" len="48" vol="100" />
          <note key="53" pos="360" pan="0" len="48" vol="100" />
          <note key="50" pos="624" pan="0" len="72" vol="100" />
          <note key="51" pos="696" pan="0" len="48" vol="100" />
          <note key="53" pos="744" pan="0" len="24" vol="100" />
        </pattern>
        <pattern pos="80640" muted="0" steps="16" name="" type="1">
          <note key="50" pos="240" pan="0" len="72" vol="100" />
          <note key="51" pos="312" pan="0" len="48" vol="100" />
          <note key="53" pos="360" pan="0" len="48" vol="100" />
          <note key="50" pos="624" pan="0" len="72" vol="100" />
          <note key="51" pos="696" pan="0" len="48" vol="100" />
          <note key="53" pos="744" pan="0" len="24" vol="100" />
        </pattern>
        <pattern pos="81408" muted="0" steps="16" name="" type="1">
          <note key="50" pos="240" pan="0" len="72" vol="100" />
          <note key="51" pos="312" pan="0" len="48" vol="100" />
          <note key="53" pos="360" pan="0" len="24" vol="100" />
          <note key="51" pos="600" pan="0" len="96" vol="100" />
          <note key="53" pos="696" pan="0" len="48" vol="100" />
          <note key="55" pos="744" pan="0" len="24" vol="100" />
        </pattern>
        <pattern pos="82176" muted="0" steps="16" name="" type="1">
          <note key="50" pos="240" pan="0" len="72" vol="100" />
          <note key="51" pos="312" pan="0" len="48" vol="100" />
          <note key="53" pos="360" pan="0" len="24" vol="100" />
          <note key="51" pos="600" pan="0" len="96" vol="100" />
          <note key="53" pos="696" pan="0" len="48" vol="100" />
          <note key="55" pos="744" pan="0" len="24" vol="100" />
        </pattern>
        <pattern pos="82944" muted="0" steps="16" name="" type="1">
          <note key="50" pos="240" pan="0" len="72" vol="100" />
          <note key="51" pos="312" pan="0" len="48" vol="100" />
          <note key="53" pos="360" pan="0" len="24" vol="100" />
          <note key="50" pos="624" pan="0" len="72" vol="100" />
          <note key="51" pos="696" pan="0" len="48" vol="100" />
          <note key="53" pos="744" pan="0" len="24" vol="100" />
        </pattern>
        <pattern pos="83712" muted="0" steps="16" name="" type="1">
          <note key="50" pos="240" pan="0" len="72" vol="100" />
          <note key="51" pos="312" pan="0" len="48" vol="100" />
          <note key="53" pos="360" pan="0" len="24" vol="100" />
          <note key="50" pos="624" pan="0" len="72" vol="100" />
          <note key="51" pos="696" pan="0" len="48" vol="100" />
          <note key="53" pos="744" pan="0" len="24" vol="100" />
        </pattern>
        <pattern pos="84480" muted="0" steps="16" name="" type="1">
          <note key="50" pos="240" pan="0" len="72" vol="100" />
          <note key="51" pos="312" pan="0" len="48" vol="100" />
          <note key="53" pos="360" pan="0" len="24" vol="100" />
          <note key="50" pos="624" pan="0" len="72" vol="100" />
          <note key="51" pos="696" pan="0" len="48" vol="100" />
          <note key="53" pos="744" pan="0" len="24" vol="100" />
        </pattern>
        <pattern pos="85248" muted="0" steps="16" name="" type="1">
          <note key="50" pos="240" pan="0" len="72" vol="100" />
          <note key="51" pos="312" pan="0" len="48" vol="100" />
          <note key="53" pos="360" pan="0" len="24" vol="100" />
          <note key="50" pos="624" pan="0" len="72" vol="100" />
          <note key="51" pos="696" pan="0" len="48" vol="100" />
          <note key="53" pos="744" pan="0" len="24" vol="100" />
        </pattern>
        <pattern pos="86016" muted="0" steps="16" name="" type="1">
          <note key="50" pos="240" pan="0" len="72" vol="100" />
          <note key="51" pos="312" pan="0" len="48" vol="100" />
          <note key="53" pos="360" pan="0" len="24" vol="100" />
          <note key="51" pos="600" pan="0" len="96" vol="100" />
          <note key="53" pos="696" pan="0" len="48" vol="100" />
          <note key="55" pos="744" pan="0" len="24" vol="100" />
        </pattern>
        <pattern pos="86784" muted="0" steps="16" name="" type="1">
          <note key="50" pos="240" pan="0" len="72" vol="100" />
          <note key="51" pos="312" pan="0" len="48" vol="100" />
          <note key="53" pos="360" pan="0" len="24" vol="100" />
          <note key="51" pos="600" pan="0" len="96" vol="100" />
          <note key="53" pos="696" pan="0" len="48" vol="100" />
          <note key="55" pos="744" pan="0" len="24" vol="100" />
        </pattern>
        <pattern pos="87552" muted="0" steps="16" name="" type="1">
          <note key="50" pos="240" pan="0" len="72" vol="100" />
          <note key="51" pos="312" pan="0" len="48" vol="100" />
          <note key="53" pos="360" pan="0" len="24" vol="100" />
          <note key="51" pos="600" pan="0" len="96" vol="100" />
          <note key="53" pos="696" pan="0" len="48" vol="100" />
          <note key="55" pos="744" pan="0" len="24" vol="100" />
        </pattern>
        <pattern pos="88320" muted="0" steps="16" name="" type="1">
          <note key="50" pos="240" pan="0" len="72" vol="100" />
          <note key="51" pos="312" pan="0" len="48" vol="100" />
          <note key="53" pos="360" pan="0" len="24" vol="100" />
          <note key="51" pos="600" pan="0" len="96" vol="100" />
          <note key="53" pos="696" pan="0" len="48" vol="100" />
          <note key="55" pos="744" pan="0" len="24" vol="100" />
        </pattern>
        <pattern pos="89088" muted="0" steps="16" name="" type="1">
          <note key="50" pos="240" pan="0" len="72" vol="100" />
          <note key="51" pos="312" pan="0" len="48" vol="100" />
          <note key="53" pos="360" pan="0" len="24" vol="100" />
          <note key="51" pos="600" pan="0" len="96" vol="100" />
          <note key="53" pos="696" pan="0" len="48" vol="100" />
          <note key="55" pos="744" pan="0" len="24" vol="100" />
        </pattern>
        <pattern pos="89856" muted="0" steps="16" name="" type="1">
          <note key="50" pos="240" pan="0" len="72" vol="100" />
          <note key="51" pos="312" pan="0" len="48" vol="100" />
          <note key="53" pos="360" pan="0" len="24" vol="100" />
          <note key="51" pos="600" pan="0" len="96" vol="100" />
          <note key="53" pos="696" pan="0" len="48" vol="100" />
          <note key="55" pos="744" pan="0" len="24" vol="100" />
        </pattern>
        <pattern pos="90624" muted="0" steps="16" name="" type="1">
          <note key="50" pos="240" pan="0" len="72" vol="100" />
          <note key="51" pos="312" pan="0" len="48" vol="100" />
          <note key="53" pos="360" pan="0" len="48" vol="100" />
          <note key="50" pos="624" pan="0" len="72" vol="100" />
          <note key="51" pos="696" pan="0" len="48" vol="100" />
          <note key="53" pos="744" pan="0" len="24" vol="100" />
        </pattern>
      </track>
      <track solo="0" name="23 (Ch11)" type="0" muted="0">
        <instrumenttrack usemasterpitch="1" pitch="0.0" basenote="57" pan="0" pitchrange="12" vol="30">
          <eldata />
          <instrument name="tripleoscillator" />
        </instrumenttrack>
        <pattern pos="267648" muted="0" steps="16" name="" type="1">
          <note key="75" pos="36" pan="0" len="12" vol="100" />
          <note key="63" pos="48" pan="0" len="288" vol="100" />
          <note key="63" pos="336" pan="0" len="48" vol="100" />
          <note key="68" pos="420" pan="0" len="12" vol="100" />
          <note key="56" pos="432" pan="0" len="336" vol="100" />
          <note key="75" pos="804" pan="0" len="12" vol="100" />
          <note key="63" pos="816" pan="0" len="264" vol="100" />
        </pattern>
        <pattern pos="259968" muted="0" steps="16" name="" type="1">
          <note key="77" pos="36" pan="0" len="12" vol="100" />
          <note key="65" pos="48" pan="0" len="288" vol="100" />
          <note key="65" pos="336" pan="0" len="48" vol="100" />
          <note key="75" pos="420" pan="0" len="12" vol="100" />
          <note key="63" pos="432" pan="0" len="336" vol="100" />
        </pattern>
        <pattern pos="260736" muted="0" steps="16" name="" type="1">
          <note key="77" pos="36" pan="0" len="12" vol="100" />
          <note key="65" pos="48" pan="0" len="288" vol="100" />
          <note key="65" pos="336" pan="0" len="48" vol="100" />
          <note key="75" pos="420" pan="0" len="12" vol="100" />
          <note key="63" pos="432" pan="0" len="336" vol="100" />
        </pattern>
        <pattern pos="261504" muted="0" steps="16" name="" type="1">
          <note key="80" pos="36" pan="0" len="12" vol="100" />
          <note key="68" pos="48" pan="0" len="288" vol="100" />
          <note key="68" pos="336" pan="0" len="48" vol="100" />
          <note key="78" pos="420" pan="0" len="12" vol="100" />
          <note key="66" pos="432" pan="0" len="336" vol="100" />
        </pattern>
        <pattern pos="262272" muted="0" steps="16" name="" type="1">
          <note key="80" pos="36" pan="0" len="12" vol="100" />
          <note key="68" pos="48" pan="0" len="288" vol="100" />
          <note key="68" pos="336" pan="0" len="48" vol="100" />
          <note key="78" pos="420" pan="0" len="12" vol="100" />
          <note key="66" pos="432" pan="0" len="336" vol="100" />
        </pattern>
        <pattern pos="263040" muted="0" steps="16" name="" type="1">
          <note key="77" pos="36" pan="0" len="12" vol="100" />
          <note key="65" pos="48" pan="0" len="288" vol="100" />
          <note key="65" pos="336" pan="0" len="48" vol="100" />
          <note key="75" pos="420" pan="0" len="12" vol="100" />
          <note key="63" pos="432" pan="0" len="336" vol="100" />
        </pattern>
        <pattern pos="263808" muted="0" steps="16" name="" type="1">
          <note key="77" pos="36" pan="0" len="12" vol="100" />
          <note key="65" pos="48" pan="0" len="288" vol="100" />
          <note key="65" pos="336" pan="0" len="48" vol="100" />
          <note key="75" pos="420" pan="0" len="12" vol="100" />
          <note key="63" pos="432" pan="0" len="336" vol="100" />
        </pattern>
        <pattern pos="264576" muted="0" steps="16" name="" type="1">
          <note key="77" pos="36" pan="0" len="12" vol="100" />
          <note key="65" pos="48" pan="0" len="288" vol="100" />
          <note key="65" pos="336" pan="0" len="48" vol="100" />
          <note key="75" pos="420" pan="0" len="12" vol="100" />
          <note key="63" pos="432" pan="0" len="336" vol="100" />
        </pattern>
        <pattern pos="265344" muted="0" steps="16" name="" type="1">
          <note key="77" pos="36" pan="0" len="12" vol="100" />
          <note key="65" pos="48" pan="0" len="288" vol="100" />
          <note key="65" pos="336" pan="0" len="48" vol="100" />
          <note key="75" pos="420" pan="0" len="12" vol="100" />
          <note key="63" pos="432" pan="0" len="336" vol="100" />
        </pattern>
        <pattern pos="266112" muted="0" steps="16" name="" type="1">
          <note key="77" pos="36" pan="0" len="12" vol="100" />
          <note key="65" pos="48" pan="0" len="288" vol="100" />
          <note key="65" pos="336" pan="0" len="48" vol="100" />
          <note key="72" pos="420" pan="0" len="12" vol="100" />
          <note key="60" pos="432" pan="0" len="336" vol="100" />
          <note key="77" pos="804" pan="0" len="12" vol="100" />
          <note key="65" pos="816" pan="0" len="288" vol="100" />
          <note key="65" pos="1104" pan="0" len="48" vol="100" />
          <note key="72" pos="1188" pan="0" len="12" vol="100" />
          <note key="60" pos="1200" pan="0" len="336" vol="100" />
        </pattern>
      </track>
      <track solo="0" name="23 (Ch12)" type="0" muted="0">
        <instrumenttrack usemasterpitch="1" pitch="0.0" basenote="57" pan="0" pitchrange="12" vol="30">
          <eldata />
          <instrument name="tripleoscillator" />
        </instrumenttrack>
        <pattern pos="88320" muted="0" steps="16" name="" type="1">
          <note key="60" pos="24" pan="0" len="24" vol="100" />
          <note key="63" pos="48" pan="0" len="12" vol="100" />
          <note key="60" pos="60" pan="0" len="24" vol="100" />
          <note key="57" pos="120" pan="0" len="24" vol="100" />
          <note key="60" pos="144" pan="0" len="12" vol="100" />
          <note key="58" pos="156" pan="0" len="24" vol="100" />
          <note key="60" pos="216" pan="0" len="24" vol="100" />
          <note key="63" pos="240" pan="0" len="12" vol="100" />
          <note key="60" pos="252" pan="0" len="24" vol="100" />
          <note key="57" pos="312" pan="0" len="24" vol="100" />
          <note key="60" pos="336" pan="0" len="12" vol="100" />
          <note key="58" pos="348" pan="0" len="24" vol="100" />
          <note key="60" pos="408" pan="0" len="24" vol="100" />
          <note key="63" pos="432" pan="0" len="12" vol="100" />
          <note key="60" pos="444" pan="0" len="24" vol="100" />
          <note key="57" pos="504" pan="0" len="24" vol="100" />
          <note key="60" pos="528" pan="0" len="12" vol="100" />
          <note key="58" pos="540" pan="0" len="24" vol="100" />
          <note key="60" pos="600" pan="0" len="24" vol="100" />
          <note key="63" pos="624" pan="0" len="12" vol="100" />
          <note key="60" pos="636" pan="0" len="24" vol="100" />
          <note key="57" pos="696" pan="0" len="24" vol="100" />
          <note key="60" pos="720" pan="0" len="12" vol="100" />
          <note key="58" pos="732" pan="0" len="24" vol="100" />
        </pattern>
        <pattern pos="82944" muted="0" steps="16" name="" type="1">
          <note key="60" pos="24" pan="0" len="24" vol="100" />
          <note key="63" pos="48" pan="0" len="12" vol="100" />
          <note key="60" pos="60" pan="0" len="24" vol="100" />
          <note key="57" pos="120" pan="0" len="24" vol="100" />
          <note key="60" pos="144" pan="0" len="12" vol="100" />
          <note key="58" pos="156" pan="0" len="24" vol="100" />
          <note key="60" pos="216" pan="0" len="24" vol="100" />
          <note key="63" pos="240" pan="0" len="12" vol="100" />
          <note key="60" pos="252" pan="0" len="24" vol="100" />
          <note key="57" pos="312" pan="0" len="24" vol="100" />
          <note key="60" pos="336" pan="0" len="12" vol="100" />
          <note key="58" pos="348" pan="0" len="24" vol="100" />
          <note key="60" pos="408" pan="0" len="24" vol="100" />
          <note key="63" pos="432" pan="0" len="12" vol="100" />
          <note key="60" pos="444" pan="0" len="24" vol="100" />
          <note key="57" pos="504" pan="0" len="24" vol="100" />
          <note key="60" pos="528" pan="0" len="12" vol="100" />
          <note key="58" pos="540" pan="0" len="24" vol="100" />
          <note key="60" pos="600" pan="0" len="24" vol="100" />
          <note key="63" pos="624" pan="0" len="12" vol="100" />
          <note key="60" pos="636" pan="0" len="24" vol="100" />
          <note key="57" pos="696" pan="0" len="24" vol="100" />
          <note key="60" pos="720" pan="0" len="12" vol="100" />
          <note key="58" pos="732" pan="0" len="24" vol="100" />
        </pattern>
        <pattern pos="83712" muted="0" steps="16" name="" type="1">
          <note key="60" pos="24" pan="0" len="24" vol="100" />
          <note key="63" pos="48" pan="0" len="12" vol="100" />
          <note key="60" pos="60" pan="0" len="24" vol="100" />
          <note key="57" pos="120" pan="0" len="24" vol="100" />
          <note key="60" pos="144" pan="0" len="12" vol="100" />
          <note key="58" pos="156" pan="0" len="24" vol="100" />
          <note key="60" pos="216" pan="0" len="24" vol="100" />
          <note key="63" pos="240" pan="0" len="12" vol="100" />
          <note key="60" pos="252" pan="0" len="24" vol="100" />
          <note key="57" pos="312" pan="0" len="24" vol="100" />
          <note key="60" pos="336" pan="0" len="12" vol="100" />
          <note key="58" pos="348" pan="0" len="24" vol="100" />
          <note key="60" pos="408" pan="0" len="24" vol="100" />
          <note key="63" pos="432" pan="0" len="12" vol="100" />
          <note key="60" pos="444" pan="0" len="24" vol="100" />
          <note key="57" pos="504" pan="0" len="24" vol="100" />
          <note key="60" pos="528" pan="0" len="12" vol="100" />
          <note key="58" pos="540" pan="0" len="24" vol="100" />
          <note key="60" pos="600" pan="0" len="24" vol="100" />
          <note key="63" pos="624" pan="0" len="12" vol="100" />
          <note key="60" pos="636" pan="0" len="24" vol="100" />
          <note key="57" pos="696" pan="0" len="24" vol="100" />
          <note key="60" pos="720" pan="0" len="12" vol="100" />
          <note key="58" pos="732" pan="0" len="24" vol="100" />
        </pattern>
        <pattern pos="84480" muted="0" steps="16" name="" type="1">
          <note key="60" pos="24" pan="0" len="24" vol="100" />
          <note key="63" pos="48" pan="0" len="12" vol="100" />
          <note key="60" pos="60" pan="0" len="24" vol="100" />
          <note key="57" pos="120" pan="0" len="24" vol="100" />
          <note key="60" pos="144" pan="0" len="12" vol="100" />
          <note key="58" pos="156" pan="0" len="24" vol="100" />
          <note key="60" pos="216" pan="0" len="24" vol="100" />
          <note key="63" pos="240" pan="0" len="12" vol="100" />
          <note key="60" pos="252" pan="0" len="24" vol="100" />
          <note key="57" pos="312" pan="0" len="24" vol="100" />
          <note key="60" pos="336" pan="0" len="12" vol="100" />
          <note key="58" pos="348" pan="0" len="24" vol="100" />
          <note key="60" pos="408" pan="0" len="24" vol="100" />
          <note key="63" pos="432" pan="0" len="12" vol="100" />
          <note key="60" pos="444" pan="0" len="24" vol="100" />
          <note key="57" pos="504" pan="0" len="24" vol="100" />
          <note key="60" pos="528" pan="0" len="12" vol="100" />
          <note key="58" pos="540" pan="0" len="24" vol="100" />
          <note key="60" pos="600" pan="0" len="24" vol="100" />
          <note key="63" pos="624" pan="0" len="12" vol="100" />
          <note key="60" pos="636" pan="0" len="24" vol="100" />
          <note key="57" pos="696" pan="0" len="24" vol="100" />
          <note key="60" pos="720" pan="0" len="12" vol="100" />
          <note key="58" pos="732" pan="0" len="24" vol="100" />
        </pattern>
        <pattern pos="85248" muted="0" steps="16" name="" type="1">
          <note key="60" pos="24" pan="0" len="24" vol="100" />
          <note key="63" pos="48" pan="0" len="12" vol="100" />
          <note key="60" pos="60" pan="0" len="24" vol="100" />
          <note key="57" pos="120" pan="0" len="24" vol="100" />
          <note key="60" pos="144" pan="0" len="12" vol="100" />
          <note key="58" pos="156" pan="0" len="24" vol="100" />
          <note key="60" pos="216" pan="0" len="24" vol="100" />
          <note key="63" pos="240" pan="0" len="12" vol="100" />
          <note key="60" pos="252" pan="0" len="24" vol="100" />
          <note key="57" pos="312" pan="0" len="24" vol="100" />
          <note key="60" pos="336" pan="0" len="12" vol="100" />
          <note key="58" pos="348" pan="0" len="24" vol="100" />
          <note key="60" pos="408" pan="0" len="24" vol="100" />
          <note key="63" pos="432" pan="0" len="12" vol="100" />
          <note key="60" pos="444" pan="0" len="24" vol="100" />
          <note key="57" pos="504" pan="0" len="24" vol="100" />
          <note key="60" pos="528" pan="0" len="12" vol="100" />
          <note key="58" pos="540" pan="0" len="24" vol="100" />
          <note key="60" pos="600" pan="0" len="24" vol="100" />
          <note key="63" pos="624" pan="0" len="12" vol="100" />
          <note key="60" pos="636" pan="0" len="24" vol="100" />
          <note key="57" pos="696" pan="0" len="24" vol="100" />
          <note key="60" pos="720" pan="0" len="12" vol="100" />
          <note key="58" pos="732" pan="0" len="24" vol="100" />
        </pattern>
        <pattern pos="86784" muted="0" steps="16" name="" type="1">
          <note key="60" pos="24" pan="0" len="24" vol="100" />
          <note key="63" pos="48" pan="0" len="12" vol="100" />
          <note key="60" pos="60" pan="0" len="24" vol="100" />
          <note key="57" pos="120" pan="0" len="24" vol="100" />
          <note key="60" pos="144" pan="0" len="12" vol="100" />
          <note key="58" pos="156" pan="0" len="24" vol="100" />
          <note key="60" pos="216" pan="0" len="24" vol="100" />
          <note key="63" pos="240" pan="0" len="12" vol="100" />
          <note key="60" pos="252" pan="0" len="24" vol="100" />
          <note key="57" pos="312" pan="0" len="24" vol="100" />
          <note key="60" pos="336" pan="0" len="12" vol="100" />
          <note key="58" pos="348" pan="0" len="24" vol="100" />
          <note key="60" pos="408" pan="0" len="24" vol="100" />
          <note key="63" pos="432" pan="0" len="12" vol="100" />
          <note key="60" pos="444" pan="0" len="24" vol="100" />
          <note key="57" pos="504" pan="0" len="24" vol="100" />
          <note key="60" pos="528" pan="0" len="12" vol="100" />
          <note key="58" pos="540" pan="0" len="24" vol="100" />
          <note key="60" pos="600" pan="0" len="24" vol="100" />
          <note key="63" pos="624" pan="0" len="12" vol="100" />
          <note key="60" pos="636" pan="0" len="24" vol="100" />
          <note key="57" pos="696" pan="0" len="24" vol="100" />
          <note key="60" pos="720" pan="0" len="12" vol="100" />
          <note key="58" pos="732" pan="0" len="24" vol="100" />
        </pattern>
      </track>
      <track solo="0" name="23 (Ch14)" type="0" muted="0">
        <instrumenttrack usemasterpitch="1" pitch="0.0" basenote="57" pan="0" pitchrange="12" vol="30">
          <eldata />
          <instrument name="tripleoscillator" />
        </instrumenttrack>
        <pattern pos="87552" muted="0" steps="16" name="" type="1">
          <note key="60" pos="24" pan="0" len="24" vol="100" />
          <note key="63" pos="48" pan="0" len="12" vol="100" />
          <note key="60" pos="60" pan="0" len="24" vol="100" />
          <note key="57" pos="120" pan="0" len="24" vol="100" />
          <note key="60" pos="144" pan="0" len="12" vol="100" />
          <note key="58" pos="156" pan="0" len="24" vol="100" />
          <note key="60" pos="216" pan="0" len="24" vol="100" />
          <note key="63" pos="240" pan="0" len="12" vol="100" />
          <note key="60" pos="252" pan="0" len="24" vol="100" />
          <note key="57" pos="312" pan="0" len="24" vol="100" />
          <note key="60" pos="336" pan="0" len="12" vol="100" />
          <note key="58" pos="348" pan="0" len="24" vol="100" />
          <note key="60" pos="408" pan="0" len="24" vol="100" />
          <note key="63" pos="432" pan="0" len="12" vol="100" />
          <note key="60" pos="444" pan="0" len="24" vol="100" />
          <note key="57" pos="504" pan="0" len="24" vol="100" />
          <note key="60" pos="528" pan="0" len="12" vol="100" />
          <note key="58" pos="540" pan="0" len="24" vol="100" />
          <note key="60" pos="600" pan="0" len="24" vol="100" />
          <note key="63" pos="624" pan="0" len="12" vol="100" />
          <note key="60" pos="636" pan="0" len="24" vol="100" />
          <note key="57" pos="696" pan="0" len="24" vol="100" />
          <note key="60" pos="720" pan="0" len="12" vol="100" />
          <note key="58" pos="732" pan="0" len="24" vol="100" />
        </pattern>
      </track>
      <track solo="0" name="24 (Ch1)" type="0" muted="0">
        <instrumenttrack usemasterpitch="1" pitch="0.0" basenote="57" pan="0" pitchrange="12" vol="30">
          <eldata />
          <instrument name="tripleoscillator" />
        </instrumenttrack>
        <pattern pos="136704" muted="0" steps="16" name="" type="1">
          <note key="60" pos="108" pan="0" len="24" vol="100" />
          <note key="60" pos="168" pan="0" len="24" vol="100" />
          <note key="60" pos="300" pan="0" len="24" vol="100" />
          <note key="60" pos="360" pan="0" len="24" vol="100" />
          <note key="60" pos="492" pan="0" len="24" vol="100" />
          <note key="60" pos="552" pan="0" len="24" vol="100" />
          <note key="60" pos="684" pan="0" len="24" vol="100" />
          <note key="60" pos="744" pan="0" len="24" vol="100" />
          <note key="60" pos="876" pan="0" len="24" vol="86" />
          <note key="60" pos="936" pan="0" len="24" vol="78" />
          <note key="60" pos="1068" pan="0" len="24" vol="61" />
          <note key="60" pos="1128" pan="0" len="24" vol="53" />
          <note key="60" pos="1260" pan="0" len="24" vol="36" />
          <note key="60" pos="1320" pan="0" len="24" vol="28" />
          <note key="60" pos="1452" pan="0" len="24" vol="11" />
          <note key="60" pos="1512" pan="0" len="24" vol="3" />
        </pattern>
        <pattern pos="17664" muted="0" steps="16" name="" type="1">
          <note key="60" pos="768" pan="0" len="24" vol="100" />
          <note key="60" pos="792" pan="0" len="24" vol="100" />
          <note key="60" pos="840" pan="0" len="24" vol="100" />
          <note key="60" pos="888" pan="0" len="24" vol="100" />
          <note key="60" pos="1032" pan="0" len="24" vol="100" />
          <note key="60" pos="1080" pan="0" len="24" vol="100" />
          <note key="60" pos="1152" pan="0" len="24" vol="100" />
          <note key="60" pos="1176" pan="0" len="24" vol="100" />
          <note key="60" pos="1224" pan="0" len="24" vol="100" />
          <note key="60" pos="1272" pan="0" len="24" vol="100" />
          <note key="60" pos="1344" pan="0" len="24" vol="100" />
          <note key="60" pos="1368" pan="0" len="24" vol="100" />
          <note key="60" pos="1416" pan="0" len="24" vol="100" />
          <note key="60" pos="1464" pan="0" len="24" vol="100" />
        </pattern>
        <pattern pos="19200" muted="0" steps="16" name="" type="1">
          <note key="60" pos="0" pan="0" len="24" vol="100" />
          <note key="60" pos="24" pan="0" len="24" vol="100" />
          <note key="60" pos="72" pan="0" len="24" vol="100" />
          <note key="60" pos="120" pan="0" len="24" vol="100" />
          <note key="60" pos="192" pan="0" len="24" vol="100" />
          <note key="60" pos="216" pan="0" len="24" vol="100" />
          <note key="60" pos="264" pan="0" len="24" vol="100" />
          <note key="60" pos="312" pan="0" len="24" vol="100" />
          <note key="60" pos="384" pan="0" len="24" vol="100" />
          <note key="60" pos="408" pan="0" len="24" vol="100" />
          <note key="60" pos="456" pan="0" len="24" vol="100" />
          <note key="60" pos="504" pan="0" len="24" vol="100" />
          <note key="60" pos="576" pan="0" len="24" vol="100" />
          <note key="60" pos="600" pan="0" len="24" vol="100" />
          <note key="60" pos="648" pan="0" len="24" vol="100" />
          <note key="60" pos="696" pan="0" len="24" vol="100" />
          <note key="60" pos="768" pan="0" len="24" vol="100" />
          <note key="60" pos="792" pan="0" len="24" vol="100" />
          <note key="60" pos="840" pan="0" len="24" vol="100" />
          <note key="60" pos="888" pan="0" len="24" vol="100" />
          <note key="60" pos="960" pan="0" len="24" vol="100" />
          <note key="60" pos="984" pan="0" len="24" vol="100" />
          <note key="60" pos="1032" pan="0" len="24" vol="100" />
          <note key="60" pos="1080" pan="0" len="24" vol="100" />
          <note key="60" pos="1152" pan="0" len="24" vol="100" />
          <note key="60" pos="1176" pan="0" len="24" vol="100" />
          <note key="60" pos="1224" pan="0" len="24" vol="100" />
          <note key="60" pos="1272" pan="0" len="24" vol="100" />
          <note key="60" pos="1344" pan="0" len="24" vol="100" />
          <note key="60" pos="1368" pan="0" len="24" vol="100" />
          <note key="60" pos="1416" pan="0" len="24" vol="100" />
          <note key="60" pos="1464" pan="0" len="24" vol="100" />
        </pattern>
        <pattern pos="20736" muted="0" steps="16" name="" type="1">
          <note key="60" pos="0" pan="0" len="24" vol="100" />
          <note key="60" pos="24" pan="0" len="24" vol="100" />
          <note key="60" pos="72" pan="0" len="24" vol="100" />
          <note key="60" pos="120" pan="0" len="24" vol="100" />
          <note key="60" pos="192" pan="0" len="24" vol="100" />
          <note key="60" pos="216" pan="0" len="24" vol="100" />
          <note key="60" pos="264" pan="0" len="24" vol="100" />
          <note key="60" pos="312" pan="0" len="24" vol="100" />
          <note key="60" pos="384" pan="0" len="24" vol="100" />
          <note key="60" pos="408" pan="0" len="24" vol="100" />
          <note key="60" pos="456" pan="0" len="24" vol="100" />
          <note key="60" pos="504" pan="0" len="24" vol="100" />
          <note key="60" pos="576" pan="0" len="24" vol="100" />
          <note key="60" pos="600" pan="0" len="24" vol="100" />
          <note key="60" pos="648" pan="0" len="24" vol="100" />
          <note key="60" pos="696" pan="0" len="24" vol="100" />
          <note key="60" pos="768" pan="0" len="24" vol="100" />
          <note key="60" pos="792" pan="0" len="24" vol="100" />
          <note key="60" pos="840" pan="0" len="24" vol="100" />
          <note key="60" pos="888" pan="0" len="24" vol="100" />
          <note key="60" pos="960" pan="0" len="24" vol="100" />
          <note key="60" pos="984" pan="0" len="24" vol="100" />
          <note key="60" pos="1032" pan="0" len="24" vol="100" />
          <note key="60" pos="1080" pan="0" len="24" vol="100" />
          <note key="60" pos="1152" pan="0" len="24" vol="100" />
          <note key="60" pos="1176" pan="0" len="24" vol="100" />
          <note key="60" pos="1224" pan="0" len="24" vol="100" />
          <note key="60" pos="1272" pan="0" len="24" vol="100" />
          <note key="60" pos="1344" pan="0" len="24" vol="100" />
          <note key="60" pos="1368" pan="0" len="24" vol="100" />
          <note key="60" pos="1416" pan="0" len="24" vol="100" />
          <note key="60" pos="1464" pan="0" len="24" vol="100" />
        </pattern>
        <pattern pos="22272" muted="0" steps="16" name="" type="1">
          <note key="60" pos="0" pan="0" len="24" vol="100" />
          <note key="60" pos="24" pan="0" len="24" vol="100" />
          <note key="60" pos="72" pan="0" len="24" vol="100" />
          <note key="60" pos="120" pan="0" len="24" vol="100" />
          <note key="60" pos="192" pan="0" len="24" vol="100" />
          <note key="60" pos="216" pan="0" len="24" vol="100" />
          <note key="60" pos="264" pan="0" len="24" vol="100" />
          <note key="60" pos="312" pan="0" len="24" vol="100" />
          <note key="60" pos="384" pan="0" len="24" vol="100" />
          <note key="60" pos="408" pan="0" len="24" vol="100" />
          <note key="60" pos="456" pan="0" len="24" vol="100" />
          <note key="60" pos="504" pan="0" len="24" vol="100" />
          <note key="60" pos="576" pan="0" len="24" vol="100" />
          <note key="60" pos="600" pan="0" len="24" vol="100" />
          <note key="60" pos="648" pan="0" len="24" vol="100" />
          <note key="60" pos="696" pan="0" len="24" vol="100" />
          <note key="60" pos="768" pan="0" len="24" vol="100" />
          <note key="60" pos="792" pan="0" len="24" vol="100" />
          <note key="60" pos="840" pan="0" len="24" vol="100" />
          <note key="60" pos="888" pan="0" len="24" vol="100" />
          <note key="60" pos="960" pan="0" len="24" vol="100" />
          <note key="60" pos="984" pan="0" len="24" vol="100" />
          <note key="60" pos="1032" pan="0" len="24" vol="100" />
          <note key="60" pos="1080" pan="0" len="24" vol="100" />
          <note key="60" pos="1152" pan="0" len="24" vol="100" />
          <note key="60" pos="1176" pan="0" len="24" vol="100" />
          <note key="60" pos="1224" pan="0" len="24" vol="100" />
          <note key="60" pos="1272" pan="0" len="24" vol="100" />
          <note key="60" pos="1344" pan="0" len="24" vol="100" />
          <note key="60" pos="1368" pan="0" len="24" vol="100" />
          <note key="60" pos="1416" pan="0" len="24" vol="100" />
          <note key="60" pos="1464" pan="0" len="24" vol="100" />
        </pattern>
        <pattern pos="23808" muted="0" steps="16" name="" type="1">
          <note key="60" pos="0" pan="0" len="24" vol="100" />
          <note key="60" pos="24" pan="0" len="24" vol="100" />
          <note key="60" pos="72" pan="0" len="24" vol="100" />
          <note key="60" pos="120" pan="0" len="24" vol="100" />
          <note key="60" pos="192" pan="0" len="24" vol="100" />
          <note key="60" pos="216" pan="0" len="24" vol="100" />
          <note key="60" pos="264" pan="0" len="24" vol="100" />
          <note key="60" pos="312" pan="0" len="24" vol="100" />
          <note key="60" pos="384" pan="0" len="24" vol="100" />
          <note key="60" pos="408" pan="0" len="24" vol="100" />
          <note key="60" pos="456" pan="0" len="24" vol="100" />
          <note key="60" pos="504" pan="0" len="24" vol="100" />
          <note key="60" pos="576" pan="0" len="24" vol="100" />
          <note key="60" pos="600" pan="0" len="24" vol="100" />
          <note key="60" pos="648" pan="0" len="24" vol="100" />
          <note key="60" pos="696" pan="0" len="24" vol="100" />
          <note key="60" pos="768" pan="0" len="24" vol="100" />
          <note key="60" pos="792" pan="0" len="24" vol="100" />
          <note key="60" pos="840" pan="0" len="24" vol="100" />
          <note key="60" pos="888" pan="0" len="24" vol="100" />
          <note key="60" pos="960" pan="0" len="24" vol="100" />
          <note key="60" pos="984" pan="0" len="24" vol="100" />
          <note key="60" pos="1032" pan="0" len="24" vol="100" />
          <note key="60" pos="1080" pan="0" len="24" vol="100" />
          <note key="60" pos="1152" pan="0" len="24" vol="100" />
          <note key="60" pos="1176" pan="0" len="24" vol="100" />
          <note key="60" pos="1224" pan="0" len="24" vol="100" />
          <note key="60" pos="1272" pan="0" len="24" vol="100" />
          <note key="60" pos="1344" pan="0" len="24" vol="100" />
          <note key="60" pos="1368" pan="0" len="24" vol="100" />
          <note key="60" pos="1416" pan="0" len="24" vol="100" />
          <note key="60" pos="1464" pan="0" len="24" vol="100" />
        </pattern>
        <pattern pos="25344" muted="0" steps="16" name="" type="1">
          <note key="60" pos="0" pan="0" len="24" vol="100" />
          <note key="60" pos="24" pan="0" len="24" vol="98" />
          <note key="60" pos="72" pan="0" len="24" vol="95" />
          <note key="60" pos="120" pan="0" len="24" vol="92" />
          <note key="60" pos="192" pan="0" len="24" vol="88" />
          <note key="60" pos="216" pan="0" len="24" vol="86" />
          <note key="60" pos="264" pan="0" len="24" vol="83" />
          <note key="60" pos="312" pan="0" len="24" vol="80" />
          <note key="60" pos="384" pan="0" len="24" vol="75" />
          <note key="60" pos="408" pan="0" len="24" vol="73" />
          <note key="60" pos="456" pan="0" len="24" vol="70" />
          <note key="60" pos="504" pan="0" len="24" vol="67" />
          <note key="60" pos="576" pan="0" len="24" vol="62" />
          <note key="60" pos="600" pan="0" len="24" vol="61" />
          <note key="60" pos="648" pan="0" len="24" vol="58" />
          <note key="60" pos="696" pan="0" len="24" vol="55" />
          <note key="60" pos="768" pan="0" len="24" vol="50" />
          <note key="60" pos="792" pan="0" len="24" vol="48" />
          <note key="60" pos="840" pan="0" len="24" vol="45" />
          <note key="60" pos="888" pan="0" len="24" vol="42" />
          <note key="60" pos="960" pan="0" len="24" vol="38" />
          <note key="60" pos="984" pan="0" len="24" vol="36" />
          <note key="60" pos="1032" pan="0" len="24" vol="33" />
          <note key="60" pos="1080" pan="0" len="24" vol="30" />
          <note key="60" pos="1152" pan="0" len="24" vol="25" />
          <note key="60" pos="1176" pan="0" len="24" vol="23" />
          <note key="60" pos="1224" pan="0" len="24" vol="20" />
          <note key="60" pos="1272" pan="0" len="24" vol="17" />
          <note key="60" pos="1344" pan="0" len="24" vol="12" />
          <note key="60" pos="1368" pan="0" len="24" vol="11" />
          <note key="60" pos="1416" pan="0" len="24" vol="8" />
          <note key="60" pos="1464" pan="0" len="24" vol="5" />
        </pattern>
        <pattern pos="95232" muted="0" steps="16" name="" type="1">
          <note key="60" pos="216" pan="0" len="48" vol="100" />
          <note key="60" pos="336" pan="0" len="48" vol="100" />
          <note key="60" pos="600" pan="0" len="48" vol="100" />
          <note key="60" pos="720" pan="0" len="48" vol="100" />
          <note key="60" pos="984" pan="0" len="48" vol="100" />
          <note key="60" pos="1104" pan="0" len="48" vol="100" />
          <note key="60" pos="1368" pan="0" len="48" vol="100" />
          <note key="60" pos="1488" pan="0" len="48" vol="100" />
        </pattern>
        <pattern pos="96768" muted="0" steps="16" name="" type="1">
          <note key="60" pos="216" pan="0" len="48" vol="100" />
          <note key="60" pos="336" pan="0" len="48" vol="100" />
          <note key="60" pos="600" pan="0" len="48" vol="100" />
          <note key="60" pos="720" pan="0" len="48" vol="100" />
          <note key="60" pos="984" pan="0" len="48" vol="100" />
          <note key="60" pos="1104" pan="0" len="48" vol="100" />
          <note key="60" pos="1368" pan="0" len="48" vol="100" />
          <note key="60" pos="1488" pan="0" len="48" vol="100" />
        </pattern>
        <pattern pos="98304" muted="0" steps="16" name="" type="1">
          <note key="60" pos="216" pan="0" len="48" vol="100" />
          <note key="60" pos="336" pan="0" len="48" vol="100" />
          <note key="60" pos="600" pan="0" len="48" vol="100" />
          <note key="60" pos="720" pan="0" len="48" vol="100" />
          <note key="60" pos="984" pan="0" len="48" vol="100" />
          <note key="60" pos="1104" pan="0" len="48" vol="100" />
          <note key="60" pos="1368" pan="0" len="48" vol="100" />
          <note key="60" pos="1488" pan="0" len="48" vol="100" />
        </pattern>
        <pattern pos="99840" muted="0" steps="16" name="" type="1">
          <note key="60" pos="216" pan="0" len="48" vol="100" />
          <note key="60" pos="336" pan="0" len="48" vol="100" />
          <note key="60" pos="600" pan="0" len="48" vol="100" />
          <note key="60" pos="720" pan="0" len="48" vol="100" />
          <note key="60" pos="984" pan="0" len="48" vol="100" />
          <note key="60" pos="1104" pan="0" len="48" vol="100" />
          <note key="60" pos="1368" pan="0" len="48" vol="100" />
          <note key="60" pos="1488" pan="0" len="48" vol="100" />
        </pattern>
        <pattern pos="101376" muted="0" steps="16" name="" type="1">
          <note key="62" pos="216" pan="0" len="48" vol="100" />
          <note key="62" pos="336" pan="0" len="48" vol="100" />
          <note key="62" pos="600" pan="0" len="48" vol="100" />
          <note key="62" pos="720" pan="0" len="48" vol="100" />
          <note key="62" pos="984" pan="0" len="48" vol="100" />
          <note key="62" pos="1104" pan="0" len="48" vol="100" />
          <note key="62" pos="1368" pan="0" len="48" vol="100" />
          <note key="62" pos="1488" pan="0" len="48" vol="100" />
        </pattern>
        <pattern pos="102912" muted="0" steps="16" name="" type="1">
          <note key="62" pos="216" pan="0" len="48" vol="100" />
          <note key="62" pos="336" pan="0" len="48" vol="100" />
          <note key="62" pos="600" pan="0" len="48" vol="100" />
          <note key="62" pos="720" pan="0" len="48" vol="100" />
          <note key="62" pos="984" pan="0" len="48" vol="100" />
          <note key="62" pos="1104" pan="0" len="48" vol="100" />
          <note key="62" pos="1368" pan="0" len="48" vol="100" />
          <note key="62" pos="1488" pan="0" len="48" vol="100" />
        </pattern>
        <pattern pos="105984" muted="0" steps="16" name="" type="1">
          <note key="62" pos="216" pan="0" len="48" vol="16" />
          <note key="62" pos="336" pan="0" len="48" vol="23" />
          <note key="62" pos="600" pan="0" len="48" vol="41" />
          <note key="62" pos="720" pan="0" len="48" vol="48" />
          <note key="62" pos="984" pan="0" len="48" vol="66" />
          <note key="62" pos="1104" pan="0" len="48" vol="73" />
          <note key="62" pos="1368" pan="0" len="48" vol="91" />
          <note key="62" pos="1488" pan="0" len="48" vol="98" />
        </pattern>
        <pattern pos="107520" muted="0" steps="16" name="" type="1">
          <note key="62" pos="72" pan="0" len="72" vol="100" />
          <note key="67" pos="216" pan="0" len="48" vol="100" />
          <note key="65" pos="336" pan="0" len="48" vol="100" />
          <note key="62" pos="456" pan="0" len="72" vol="100" />
          <note key="67" pos="600" pan="0" len="48" vol="100" />
          <note key="65" pos="720" pan="0" len="48" vol="100" />
          <note key="62" pos="840" pan="0" len="72" vol="100" />
          <note key="67" pos="984" pan="0" len="48" vol="100" />
          <note key="65" pos="1104" pan="0" len="48" vol="100" />
          <note key="62" pos="1224" pan="0" len="72" vol="100" />
          <note key="67" pos="1368" pan="0" len="48" vol="100" />
          <note key="65" pos="1488" pan="0" len="48" vol="100" />
        </pattern>
        <pattern pos="109056" muted="0" steps="16" name="" type="1">
          <note key="62" pos="72" pan="0" len="72" vol="100" />
          <note key="67" pos="216" pan="0" len="48" vol="100" />
          <note key="65" pos="336" pan="0" len="48" vol="100" />
          <note key="62" pos="456" pan="0" len="72" vol="100" />
          <note key="67" pos="600" pan="0" len="48" vol="100" />
          <note key="65" pos="720" pan="0" len="48" vol="100" />
          <note key="62" pos="840" pan="0" len="72" vol="100" />
          <note key="67" pos="984" pan="0" len="48" vol="100" />
          <note key="65" pos="1104" pan="0" len="48" vol="100" />
          <note key="62" pos="1224" pan="0" len="72" vol="100" />
          <note key="67" pos="1368" pan="0" len="48" vol="100" />
          <note key="65" pos="1488" pan="0" len="48" vol="100" />
        </pattern>
        <pattern pos="110592" muted="0" steps="16" name="" type="1">
          <note key="65" pos="72" pan="0" len="72" vol="100" />
          <note key="70" pos="216" pan="0" len="48" vol="100" />
          <note key="68" pos="336" pan="0" len="48" vol="100" />
          <note key="65" pos="456" pan="0" len="72" vol="100" />
          <note key="70" pos="600" pan="0" len="48" vol="100" />
          <note key="68" pos="720" pan="0" len="48" vol="100" />
          <note key="65" pos="840" pan="0" len="72" vol="100" />
          <note key="70" pos="984" pan="0" len="48" vol="100" />
          <note key="68" pos="1104" pan="0" len="48" vol="100" />
          <note key="65" pos="1224" pan="0" len="72" vol="100" />
          <note key="70" pos="1368" pan="0" len="48" vol="100" />
          <note key="68" pos="1488" pan="0" len="48" vol="100" />
        </pattern>
        <pattern pos="112128" muted="0" steps="16" name="" type="1">
          <note key="65" pos="72" pan="0" len="72" vol="100" />
          <note key="70" pos="216" pan="0" len="48" vol="100" />
          <note key="68" pos="336" pan="0" len="48" vol="100" />
          <note key="65" pos="456" pan="0" len="72" vol="100" />
          <note key="70" pos="600" pan="0" len="48" vol="100" />
          <note key="68" pos="720" pan="0" len="48" vol="100" />
          <note key="65" pos="840" pan="0" len="72" vol="100" />
          <note key="70" pos="984" pan="0" len="48" vol="100" />
          <note key="68" pos="1104" pan="0" len="48" vol="100" />
          <note key="65" pos="1224" pan="0" len="72" vol="100" />
          <note key="70" pos="1368" pan="0" len="48" vol="100" />
          <note key="68" pos="1488" pan="0" len="48" vol="100" />
        </pattern>
        <pattern pos="122880" muted="0" steps="16" name="" type="1">
          <note key="60" pos="216" pan="0" len="48" vol="100" />
          <note key="60" pos="336" pan="0" len="48" vol="100" />
          <note key="60" pos="600" pan="0" len="48" vol="100" />
          <note key="60" pos="720" pan="0" len="48" vol="100" />
          <note key="60" pos="984" pan="0" len="48" vol="100" />
          <note key="60" pos="1104" pan="0" len="48" vol="100" />
          <note key="60" pos="1368" pan="0" len="48" vol="100" />
          <note key="60" pos="1488" pan="0" len="48" vol="100" />
        </pattern>
        <pattern pos="124416" muted="0" steps="16" name="" type="1">
          <note key="60" pos="216" pan="0" len="48" vol="100" />
          <note key="60" pos="336" pan="0" len="48" vol="100" />
          <note key="60" pos="600" pan="0" len="48" vol="100" />
          <note key="60" pos="720" pan="0" len="48" vol="100" />
          <note key="60" pos="984" pan="0" len="48" vol="100" />
          <note key="60" pos="1104" pan="0" len="48" vol="100" />
          <note key="60" pos="1368" pan="0" len="48" vol="100" />
          <note key="60" pos="1488" pan="0" len="48" vol="100" />
        </pattern>
        <pattern pos="125952" muted="0" steps="16" name="" type="1">
          <note key="60" pos="216" pan="0" len="48" vol="100" />
          <note key="60" pos="336" pan="0" len="48" vol="100" />
          <note key="60" pos="600" pan="0" len="48" vol="100" />
          <note key="60" pos="720" pan="0" len="48" vol="100" />
          <note key="60" pos="984" pan="0" len="48" vol="100" />
          <note key="60" pos="1104" pan="0" len="48" vol="100" />
          <note key="60" pos="1368" pan="0" len="48" vol="100" />
          <note key="60" pos="1488" pan="0" len="48" vol="100" />
        </pattern>
        <pattern pos="127488" muted="0" steps="16" name="" type="1">
          <note key="60" pos="216" pan="0" len="48" vol="100" />
          <note key="60" pos="336" pan="0" len="48" vol="100" />
          <note key="60" pos="600" pan="0" len="48" vol="100" />
          <note key="60" pos="720" pan="0" len="48" vol="100" />
          <note key="60" pos="984" pan="0" len="48" vol="100" />
          <note key="60" pos="1104" pan="0" len="48" vol="100" />
          <note key="60" pos="1368" pan="0" len="48" vol="100" />
          <note key="60" pos="1488" pan="0" len="48" vol="100" />
        </pattern>
        <pattern pos="129024" muted="0" steps="16" name="" type="1">
          <note key="60" pos="216" pan="0" len="48" vol="100" />
          <note key="60" pos="336" pan="0" len="48" vol="100" />
          <note key="60" pos="600" pan="0" len="48" vol="100" />
          <note key="60" pos="720" pan="0" len="48" vol="100" />
          <note key="63" pos="984" pan="0" len="48" vol="100" />
          <note key="63" pos="1104" pan="0" len="48" vol="100" />
          <note key="58" pos="1368" pan="0" len="48" vol="100" />
          <note key="58" pos="1488" pan="0" len="48" vol="100" />
        </pattern>
        <pattern pos="130560" muted="0" steps="16" name="" type="1">
          <note key="60" pos="216" pan="0" len="48" vol="100" />
          <note key="60" pos="336" pan="0" len="48" vol="100" />
          <note key="60" pos="600" pan="0" len="48" vol="100" />
          <note key="60" pos="720" pan="0" len="48" vol="100" />
          <note key="63" pos="984" pan="0" len="48" vol="100" />
          <note key="63" pos="1104" pan="0" len="48" vol="100" />
          <note key="58" pos="1368" pan="0" len="48" vol="100" />
          <note key="58" pos="1488" pan="0" len="48" vol="100" />
        </pattern>
        <pattern pos="132096" muted="0" steps="16" name="" type="1">
          <note key="60" pos="216" pan="0" len="48" vol="100" />
          <note key="60" pos="336" pan="0" len="48" vol="100" />
          <note key="60" pos="600" pan="0" len="48" vol="100" />
          <note key="60" pos="720" pan="0" len="48" vol="100" />
          <note key="63" pos="984" pan="0" len="48" vol="100" />
          <note key="63" pos="1104" pan="0" len="48" vol="100" />
          <note key="58" pos="1368" pan="0" len="48" vol="100" />
          <note key="58" pos="1488" pan="0" len="48" vol="100" />
        </pattern>
        <pattern pos="133632" muted="0" steps="16" name="" type="1">
          <note key="60" pos="216" pan="0" len="48" vol="100" />
          <note key="60" pos="336" pan="0" len="48" vol="100" />
          <note key="60" pos="600" pan="0" len="48" vol="100" />
          <note key="60" pos="720" pan="0" len="48" vol="100" />
          <note key="63" pos="984" pan="0" len="48" vol="100" />
          <note key="63" pos="1104" pan="0" len="48" vol="100" />
          <note key="58" pos="1368" pan="0" len="48" vol="100" />
          <note key="58" pos="1488" pan="0" len="48" vol="100" />
        </pattern>
        <pattern pos="135168" muted="0" steps="16" name="" type="1">
          <note key="60" pos="108" pan="0" len="24" vol="100" />
          <note key="60" pos="168" pan="0" len="24" vol="100" />
          <note key="60" pos="300" pan="0" len="24" vol="100" />
          <note key="60" pos="360" pan="0" len="24" vol="100" />
          <note key="60" pos="492" pan="0" len="24" vol="100" />
          <note key="60" pos="552" pan="0" len="24" vol="100" />
          <note key="60" pos="684" pan="0" len="24" vol="100" />
          <note key="60" pos="744" pan="0" len="24" vol="100" />
          <note key="60" pos="876" pan="0" len="24" vol="100" />
          <note key="60" pos="936" pan="0" len="24" vol="100" />
          <note key="60" pos="1068" pan="0" len="24" vol="100" />
          <note key="60" pos="1128" pan="0" len="24" vol="100" />
          <note key="60" pos="1260" pan="0" len="24" vol="100" />
          <note key="60" pos="1320" pan="0" len="24" vol="100" />
          <note key="60" pos="1452" pan="0" len="24" vol="100" />
          <note key="60" pos="1512" pan="0" len="24" vol="100" />
        </pattern>
      </track>
      <track solo="0" name="24 (Ch2)" type="0" muted="0">
        <instrumenttrack usemasterpitch="1" pitch="0.0" basenote="57" pan="0" pitchrange="12" vol="30">
          <eldata />
          <instrument name="tripleoscillator" />
        </instrumenttrack>
        <pattern pos="39936" muted="0" steps="16" name="" type="1">
          <note key="60" pos="0" pan="0" len="12" vol="100" />
          <note key="60" pos="24" pan="0" len="12" vol="100" />
          <note key="67" pos="36" pan="0" len="12" vol="100" />
          <note key="60" pos="72" pan="0" len="12" vol="100" />
          <note key="60" pos="96" pan="0" len="12" vol="100" />
          <note key="67" pos="108" pan="0" len="12" vol="100" />
          <note key="60" pos="144" pan="0" len="12" vol="100" />
          <note key="60" pos="168" pan="0" len="12" vol="100" />
          <note key="67" pos="180" pan="0" len="12" vol="100" />
          <note key="60" pos="216" pan="0" len="12" vol="100" />
          <note key="60" pos="240" pan="0" len="12" vol="100" />
          <note key="67" pos="252" pan="0" len="12" vol="100" />
          <note key="60" pos="288" pan="0" len="12" vol="100" />
          <note key="60" pos="312" pan="0" len="12" vol="100" />
          <note key="67" pos="324" pan="0" len="12" vol="100" />
          <note key="60" pos="360" pan="0" len="12" vol="100" />
          <note key="60" pos="384" pan="0" len="12" vol="100" />
          <note key="67" pos="396" pan="0" len="12" vol="100" />
          <note key="60" pos="432" pan="0" len="12" vol="100" />
          <note key="60" pos="456" pan="0" len="12" vol="100" />
          <note key="67" pos="468" pan="0" len="12" vol="100" />
          <note key="60" pos="504" pan="0" len="12" vol="100" />
          <note key="60" pos="528" pan="0" len="12" vol="100" />
          <note key="67" pos="540" pan="0" len="12" vol="100" />
          <note key="60" pos="576" pan="0" len="12" vol="100" />
          <note key="60" pos="600" pan="0" len="12" vol="95" />
          <note key="67" pos="612" pan="0" len="12" vol="94" />
          <note key="60" pos="648" pan="0" len="12" vol="88" />
          <note key="60" pos="672" pan="0" len="12" vol="83" />
          <note key="67" pos="684" pan="0" len="12" vol="81" />
          <note key="60" pos="720" pan="0" len="12" vol="75" />
          <note key="60" pos="744" pan="0" len="12" vol="70" />
          <note key="67" pos="756" pan="0" len="12" vol="69" />
          <note key="60" pos="792" pan="0" len="12" vol="62" />
          <note key="60" pos="816" pan="0" len="12" vol="58" />
          <note key="67" pos="828" pan="0" len="12" vol="56" />
          <note key="60" pos="864" pan="0" len="12" vol="50" />
          <note key="60" pos="888" pan="0" len="12" vol="45" />
          <note key="67" pos="900" pan="0" len="12" vol="44" />
          <note key="60" pos="936" pan="0" len="12" vol="38" />
          <note key="60" pos="960" pan="0" len="12" vol="33" />
          <note key="67" pos="972" pan="0" len="12" vol="31" />
          <note key="60" pos="1008" pan="0" len="12" vol="25" />
          <note key="60" pos="1032" pan="0" len="12" vol="20" />
          <note key="67" pos="1044" pan="0" len="12" vol="19" />
          <note key="60" pos="1080" pan="0" len="12" vol="12" />
          <note key="60" pos="1104" pan="0" len="12" vol="8" />
          <note key="67" pos="1116" pan="0" len="12" vol="6" />
        </pattern>
        <pattern pos="17664" muted="0" steps="16" name="" type="1">
          <note key="60" pos="804" pan="0" len="24" vol="34" />
          <note key="60" pos="828" pan="0" len="24" vol="34" />
          <note key="60" pos="876" pan="0" len="24" vol="34" />
          <note key="60" pos="924" pan="0" len="24" vol="34" />
          <note key="60" pos="996" pan="0" len="24" vol="34" />
          <note key="60" pos="1020" pan="0" len="24" vol="34" />
          <note key="60" pos="1068" pan="0" len="24" vol="34" />
          <note key="60" pos="1116" pan="0" len="24" vol="34" />
          <note key="60" pos="1188" pan="0" len="24" vol="34" />
          <note key="60" pos="1212" pan="0" len="24" vol="34" />
          <note key="60" pos="1260" pan="0" len="24" vol="34" />
          <note key="60" pos="1308" pan="0" len="24" vol="34" />
          <note key="60" pos="1380" pan="0" len="24" vol="34" />
          <note key="60" pos="1404" pan="0" len="24" vol="34" />
          <note key="60" pos="1452" pan="0" len="24" vol="34" />
          <note key="60" pos="1500" pan="0" len="24" vol="34" />
        </pattern>
        <pattern pos="19200" muted="0" steps="16" name="" type="1">
          <note key="60" pos="36" pan="0" len="24" vol="34" />
          <note key="60" pos="60" pan="0" len="24" vol="34" />
          <note key="60" pos="108" pan="0" len="24" vol="34" />
          <note key="60" pos="156" pan="0" len="24" vol="34" />
          <note key="60" pos="228" pan="0" len="24" vol="34" />
          <note key="60" pos="252" pan="0" len="24" vol="34" />
          <note key="60" pos="300" pan="0" len="24" vol="34" />
          <note key="60" pos="348" pan="0" len="24" vol="34" />
          <note key="60" pos="420" pan="0" len="24" vol="34" />
          <note key="60" pos="444" pan="0" len="24" vol="34" />
          <note key="60" pos="492" pan="0" len="24" vol="34" />
          <note key="60" pos="540" pan="0" len="24" vol="34" />
          <note key="60" pos="612" pan="0" len="24" vol="34" />
          <note key="60" pos="636" pan="0" len="24" vol="34" />
          <note key="60" pos="684" pan="0" len="24" vol="34" />
          <note key="60" pos="732" pan="0" len="24" vol="34" />
          <note key="60" pos="804" pan="0" len="24" vol="34" />
          <note key="60" pos="828" pan="0" len="24" vol="34" />
          <note key="60" pos="876" pan="0" len="24" vol="34" />
          <note key="60" pos="924" pan="0" len="24" vol="34" />
          <note key="60" pos="996" pan="0" len="24" vol="34" />
          <note key="60" pos="1020" pan="0" len="24" vol="34" />
          <note key="60" pos="1068" pan="0" len="24" vol="34" />
          <note key="60" pos="1116" pan="0" len="24" vol="34" />
          <note key="60" pos="1188" pan="0" len="24" vol="34" />
          <note key="60" pos="1212" pan="0" len="24" vol="34" />
          <note key="60" pos="1260" pan="0" len="24" vol="34" />
          <note key="60" pos="1308" pan="0" len="24" vol="34" />
          <note key="60" pos="1380" pan="0" len="24" vol="34" />
          <note key="60" pos="1404" pan="0" len="24" vol="34" />
          <note key="60" pos="1452" pan="0" len="24" vol="34" />
          <note key="60" pos="1500" pan="0" len="24" vol="34" />
        </pattern>
        <pattern pos="20736" muted="0" steps="16" name="" type="1">
          <note key="60" pos="36" pan="0" len="24" vol="34" />
          <note key="60" pos="60" pan="0" len="24" vol="34" />
          <note key="60" pos="108" pan="0" len="24" vol="34" />
          <note key="60" pos="156" pan="0" len="24" vol="34" />
          <note key="60" pos="228" pan="0" len="24" vol="34" />
          <note key="60" pos="252" pan="0" len="24" vol="34" />
          <note key="60" pos="300" pan="0" len="24" vol="34" />
          <note key="60" pos="348" pan="0" len="24" vol="34" />
          <note key="60" pos="420" pan="0" len="24" vol="34" />
          <note key="60" pos="444" pan="0" len="24" vol="34" />
          <note key="60" pos="492" pan="0" len="24" vol="34" />
          <note key="60" pos="540" pan="0" len="24" vol="34" />
          <note key="60" pos="612" pan="0" len="24" vol="34" />
          <note key="60" pos="636" pan="0" len="24" vol="34" />
          <note key="60" pos="684" pan="0" len="24" vol="34" />
          <note key="60" pos="732" pan="0" len="24" vol="34" />
          <note key="60" pos="804" pan="0" len="24" vol="34" />
          <note key="60" pos="828" pan="0" len="24" vol="34" />
          <note key="60" pos="876" pan="0" len="24" vol="34" />
          <note key="60" pos="924" pan="0" len="24" vol="34" />
          <note key="60" pos="996" pan="0" len="24" vol="34" />
          <note key="60" pos="1020" pan="0" len="24" vol="34" />
          <note key="60" pos="1068" pan="0" len="24" vol="34" />
          <note key="60" pos="1116" pan="0" len="24" vol="34" />
          <note key="60" pos="1188" pan="0" len="24" vol="34" />
          <note key="60" pos="1212" pan="0" len="24" vol="34" />
          <note key="60" pos="1260" pan="0" len="24" vol="34" />
          <note key="60" pos="1308" pan="0" len="24" vol="34" />
          <note key="60" pos="1380" pan="0" len="24" vol="34" />
          <note key="60" pos="1404" pan="0" len="24" vol="34" />
          <note key="60" pos="1452" pan="0" len="24" vol="34" />
          <note key="60" pos="1500" pan="0" len="24" vol="34" />
        </pattern>
        <pattern pos="22272" muted="0" steps="16" name="" type="1">
          <note key="60" pos="36" pan="0" len="24" vol="34" />
          <note key="60" pos="60" pan="0" len="24" vol="34" />
          <note key="60" pos="108" pan="0" len="24" vol="34" />
          <note key="60" pos="156" pan="0" len="24" vol="34" />
          <note key="60" pos="228" pan="0" len="24" vol="34" />
          <note key="60" pos="252" pan="0" len="24" vol="34" />
          <note key="60" pos="300" pan="0" len="24" vol="34" />
          <note key="60" pos="348" pan="0" len="24" vol="34" />
          <note key="60" pos="420" pan="0" len="24" vol="34" />
          <note key="60" pos="444" pan="0" len="24" vol="34" />
          <note key="60" pos="492" pan="0" len="24" vol="34" />
          <note key="60" pos="540" pan="0" len="24" vol="34" />
          <note key="60" pos="612" pan="0" len="24" vol="34" />
          <note key="60" pos="636" pan="0" len="24" vol="34" />
          <note key="60" pos="684" pan="0" len="24" vol="34" />
          <note key="60" pos="732" pan="0" len="24" vol="34" />
          <note key="60" pos="804" pan="0" len="24" vol="34" />
          <note key="60" pos="828" pan="0" len="24" vol="34" />
          <note key="60" pos="876" pan="0" len="24" vol="34" />
          <note key="60" pos="924" pan="0" len="24" vol="34" />
          <note key="60" pos="996" pan="0" len="24" vol="34" />
          <note key="60" pos="1020" pan="0" len="24" vol="34" />
          <note key="60" pos="1068" pan="0" len="24" vol="34" />
          <note key="60" pos="1116" pan="0" len="24" vol="34" />
          <note key="60" pos="1188" pan="0" len="24" vol="34" />
          <note key="60" pos="1212" pan="0" len="24" vol="34" />
          <note key="60" pos="1260" pan="0" len="24" vol="34" />
          <note key="60" pos="1308" pan="0" len="24" vol="34" />
          <note key="60" pos="1380" pan="0" len="24" vol="34" />
          <note key="60" pos="1404" pan="0" len="24" vol="34" />
          <note key="60" pos="1452" pan="0" len="24" vol="34" />
          <note key="60" pos="1500" pan="0" len="24" vol="34" />
        </pattern>
        <pattern pos="23808" muted="0" steps="16" name="" type="1">
          <note key="60" pos="36" pan="0" len="24" vol="34" />
          <note key="60" pos="60" pan="0" len="24" vol="34" />
          <note key="60" pos="108" pan="0" len="24" vol="34" />
          <note key="60" pos="156" pan="0" len="24" vol="34" />
          <note key="60" pos="228" pan="0" len="24" vol="34" />
          <note key="60" pos="252" pan="0" len="24" vol="34" />
          <note key="60" pos="300" pan="0" len="24" vol="34" />
          <note key="60" pos="348" pan="0" len="24" vol="34" />
          <note key="60" pos="420" pan="0" len="24" vol="34" />
          <note key="60" pos="444" pan="0" len="24" vol="34" />
          <note key="60" pos="492" pan="0" len="24" vol="34" />
          <note key="60" pos="540" pan="0" len="24" vol="34" />
          <note key="60" pos="612" pan="0" len="24" vol="34" />
          <note key="60" pos="636" pan="0" len="24" vol="34" />
          <note key="60" pos="684" pan="0" len="24" vol="34" />
          <note key="60" pos="732" pan="0" len="24" vol="34" />
          <note key="60" pos="804" pan="0" len="24" vol="34" />
          <note key="60" pos="828" pan="0" len="24" vol="34" />
          <note key="60" pos="876" pan="0" len="24" vol="34" />
          <note key="60" pos="924" pan="0" len="24" vol="34" />
          <note key="60" pos="996" pan="0" len="24" vol="34" />
          <note key="60" pos="1020" pan="0" len="24" vol="34" />
          <note key="60" pos="1068" pan="0" len="24" vol="34" />
          <note key="60" pos="1116" pan="0" len="24" vol="34" />
          <note key="60" pos="1188" pan="0" len="24" vol="34" />
          <note key="60" pos="1212" pan="0" len="24" vol="34" />
          <note key="60" pos="1260" pan="0" len="24" vol="34" />
          <note key="60" pos="1308" pan="0" len="24" vol="34" />
          <note key="60" pos="1380" pan="0" len="24" vol="34" />
          <note key="60" pos="1404" pan="0" len="24" vol="34" />
          <note key="60" pos="1452" pan="0" len="24" vol="34" />
          <note key="60" pos="1500" pan="0" len="24" vol="34" />
        </pattern>
        <pattern pos="25344" muted="0" steps="16" name="" type="1">
          <note key="60" pos="36" pan="0" len="24" vol="33" />
          <note key="60" pos="60" pan="0" len="24" vol="33" />
          <note key="60" pos="108" pan="0" len="24" vol="31" />
          <note key="60" pos="156" pan="0" len="24" vol="31" />
          <note key="60" pos="228" pan="0" len="24" vol="30" />
          <note key="60" pos="252" pan="0" len="24" vol="28" />
          <note key="60" pos="300" pan="0" len="24" vol="28" />
          <note key="60" pos="348" pan="0" len="24" vol="27" />
          <note key="60" pos="420" pan="0" len="24" vol="25" />
          <note key="60" pos="444" pan="0" len="24" vol="25" />
          <note key="60" pos="492" pan="0" len="24" vol="23" />
          <note key="60" pos="540" pan="0" len="24" vol="22" />
          <note key="60" pos="612" pan="0" len="24" vol="20" />
          <note key="60" pos="636" pan="0" len="24" vol="20" />
          <note key="60" pos="684" pan="0" len="24" vol="19" />
          <note key="60" pos="732" pan="0" len="24" vol="19" />
          <note key="60" pos="804" pan="0" len="24" vol="16" />
          <note key="60" pos="828" pan="0" len="24" vol="16" />
          <note key="60" pos="876" pan="0" len="24" vol="14" />
          <note key="60" pos="924" pan="0" len="24" vol="14" />
          <note key="60" pos="996" pan="0" len="24" vol="12" />
          <note key="60" pos="1020" pan="0" len="24" vol="11" />
          <note key="60" pos="1068" pan="0" len="24" vol="11" />
          <note key="60" pos="1116" pan="0" len="24" vol="9" />
          <note key="60" pos="1188" pan="0" len="24" vol="8" />
          <note key="60" pos="1212" pan="0" len="24" vol="8" />
          <note key="60" pos="1260" pan="0" len="24" vol="6" />
          <note key="60" pos="1308" pan="0" len="24" vol="5" />
          <note key="60" pos="1380" pan="0" len="24" vol="3" />
          <note key="60" pos="1404" pan="0" len="24" vol="3" />
          <note key="60" pos="1452" pan="0" len="24" vol="2" />
          <note key="60" pos="1500" pan="0" len="24" vol="2" />
        </pattern>
        <pattern pos="30720" muted="0" steps="16" name="" type="1">
          <note key="60" pos="0" pan="0" len="12" vol="100" />
          <note key="60" pos="24" pan="0" len="12" vol="100" />
          <note key="67" pos="36" pan="0" len="12" vol="100" />
          <note key="60" pos="72" pan="0" len="12" vol="100" />
          <note key="60" pos="96" pan="0" len="12" vol="100" />
          <note key="67" pos="108" pan="0" len="12" vol="100" />
          <note key="60" pos="144" pan="0" len="12" vol="100" />
          <note key="60" pos="168" pan="0" len="12" vol="100" />
          <note key="67" pos="180" pan="0" len="12" vol="100" />
          <note key="60" pos="216" pan="0" len="12" vol="100" />
          <note key="60" pos="240" pan="0" len="12" vol="100" />
          <note key="67" pos="252" pan="0" len="12" vol="100" />
          <note key="60" pos="288" pan="0" len="12" vol="100" />
          <note key="60" pos="312" pan="0" len="12" vol="100" />
          <note key="67" pos="324" pan="0" len="12" vol="100" />
          <note key="60" pos="360" pan="0" len="12" vol="100" />
          <note key="60" pos="384" pan="0" len="12" vol="100" />
          <note key="67" pos="396" pan="0" len="12" vol="100" />
          <note key="60" pos="432" pan="0" len="12" vol="100" />
          <note key="60" pos="456" pan="0" len="12" vol="100" />
          <note key="67" pos="468" pan="0" len="12" vol="100" />
          <note key="60" pos="504" pan="0" len="12" vol="100" />
          <note key="60" pos="528" pan="0" len="12" vol="100" />
          <note key="67" pos="540" pan="0" len="12" vol="100" />
          <note key="60" pos="576" pan="0" len="12" vol="100" />
          <note key="60" pos="600" pan="0" len="12" vol="100" />
          <note key="67" pos="612" pan="0" len="12" vol="100" />
          <note key="60" pos="648" pan="0" len="12" vol="100" />
          <note key="60" pos="672" pan="0" len="12" vol="100" />
          <note key="67" pos="684" pan="0" len="12" vol="100" />
          <note key="60" pos="720" pan="0" len="12" vol="100" />
          <note key="60" pos="744" pan="0" len="12" vol="100" />
          <note key="67" pos="756" pan="0" len="12" vol="100" />
          <note key="60" pos="792" pan="0" len="12" vol="100" />
          <note key="60" pos="816" pan="0" len="12" vol="100" />
          <note key="67" pos="828" pan="0" len="12" vol="100" />
          <note key="60" pos="864" pan="0" len="12" vol="100" />
          <note key="60" pos="888" pan="0" len="12" vol="100" />
          <note key="67" pos="900" pan="0" len="12" vol="100" />
          <note key="60" pos="936" pan="0" len="12" vol="100" />
          <note key="60" pos="960" pan="0" len="12" vol="100" />
          <note key="67" pos="972" pan="0" len="12" vol="100" />
          <note key="60" pos="1008" pan="0" len="12" vol="100" />
          <note key="60" pos="1032" pan="0" len="12" vol="100" />
          <note key="67" pos="1044" pan="0" len="12" vol="100" />
          <note key="60" pos="1080" pan="0" len="12" vol="100" />
          <note key="60" pos="1104" pan="0" len="12" vol="100" />
          <note key="67" pos="1116" pan="0" len="12" vol="100" />
        </pattern>
        <pattern pos="31872" muted="0" steps="16" name="" type="1">
          <note key="60" pos="0" pan="0" len="12" vol="100" />
          <note key="60" pos="24" pan="0" len="12" vol="100" />
          <note key="67" pos="36" pan="0" len="12" vol="100" />
          <note key="60" pos="72" pan="0" len="12" vol="100" />
          <note key="60" pos="96" pan="0" len="12" vol="100" />
          <note key="67" pos="108" pan="0" len="12" vol="100" />
          <note key="60" pos="144" pan="0" len="12" vol="100" />
          <note key="60" pos="168" pan="0" len="12" vol="100" />
          <note key="67" pos="180" pan="0" len="12" vol="100" />
          <note key="60" pos="216" pan="0" len="12" vol="100" />
          <note key="60" pos="240" pan="0" len="12" vol="100" />
          <note key="67" pos="252" pan="0" len="12" vol="100" />
          <note key="60" pos="288" pan="0" len="12" vol="100" />
          <note key="60" pos="312" pan="0" len="12" vol="100" />
          <note key="67" pos="324" pan="0" len="12" vol="100" />
          <note key="60" pos="360" pan="0" len="12" vol="100" />
          <note key="60" pos="384" pan="0" len="12" vol="100" />
          <note key="67" pos="396" pan="0" len="12" vol="100" />
          <note key="60" pos="432" pan="0" len="12" vol="100" />
          <note key="60" pos="456" pan="0" len="12" vol="100" />
          <note key="67" pos="468" pan="0" len="12" vol="100" />
          <note key="60" pos="504" pan="0" len="12" vol="100" />
          <note key="60" pos="528" pan="0" len="12" vol="100" />
          <note key="67" pos="540" pan="0" len="12" vol="100" />
          <note key="60" pos="576" pan="0" len="12" vol="100" />
          <note key="60" pos="600" pan="0" len="12" vol="100" />
          <note key="67" pos="612" pan="0" len="12" vol="100" />
          <note key="60" pos="648" pan="0" len="12" vol="100" />
          <note key="60" pos="672" pan="0" len="12" vol="100" />
          <note key="67" pos="684" pan="0" len="12" vol="100" />
          <note key="60" pos="720" pan="0" len="12" vol="100" />
          <note key="60" pos="744" pan="0" len="12" vol="100" />
          <note key="67" pos="756" pan="0" len="12" vol="100" />
          <note key="60" pos="792" pan="0" len="12" vol="100" />
          <note key="60" pos="816" pan="0" len="12" vol="100" />
          <note key="67" pos="828" pan="0" len="12" vol="100" />
          <note key="60" pos="864" pan="0" len="12" vol="100" />
          <note key="60" pos="888" pan="0" len="12" vol="100" />
          <note key="67" pos="900" pan="0" len="12" vol="100" />
          <note key="60" pos="936" pan="0" len="12" vol="100" />
          <note key="60" pos="960" pan="0" len="12" vol="100" />
          <note key="67" pos="972" pan="0" len="12" vol="100" />
          <note key="60" pos="1008" pan="0" len="12" vol="100" />
          <note key="60" pos="1032" pan="0" len="12" vol="100" />
          <note key="67" pos="1044" pan="0" len="12" vol="100" />
          <note key="60" pos="1080" pan="0" len="12" vol="100" />
          <note key="60" pos="1104" pan="0" len="12" vol="100" />
          <note key="67" pos="1116" pan="0" len="12" vol="100" />
        </pattern>
        <pattern pos="33024" muted="0" steps="16" name="" type="1">
          <note key="60" pos="0" pan="0" len="12" vol="100" />
          <note key="60" pos="24" pan="0" len="12" vol="100" />
          <note key="67" pos="36" pan="0" len="12" vol="100" />
          <note key="60" pos="72" pan="0" len="12" vol="100" />
          <note key="60" pos="96" pan="0" len="12" vol="100" />
          <note key="67" pos="108" pan="0" len="12" vol="100" />
          <note key="60" pos="144" pan="0" len="12" vol="100" />
          <note key="60" pos="168" pan="0" len="12" vol="100" />
          <note key="67" pos="180" pan="0" len="12" vol="100" />
          <note key="60" pos="216" pan="0" len="12" vol="100" />
          <note key="60" pos="240" pan="0" len="12" vol="100" />
          <note key="67" pos="252" pan="0" len="12" vol="100" />
          <note key="60" pos="288" pan="0" len="12" vol="100" />
          <note key="60" pos="312" pan="0" len="12" vol="100" />
          <note key="67" pos="324" pan="0" len="12" vol="100" />
          <note key="60" pos="360" pan="0" len="12" vol="100" />
          <note key="60" pos="384" pan="0" len="12" vol="100" />
          <note key="67" pos="396" pan="0" len="12" vol="100" />
          <note key="60" pos="432" pan="0" len="12" vol="100" />
          <note key="60" pos="456" pan="0" len="12" vol="100" />
          <note key="67" pos="468" pan="0" len="12" vol="100" />
          <note key="60" pos="504" pan="0" len="12" vol="100" />
          <note key="60" pos="528" pan="0" len="12" vol="100" />
          <note key="67" pos="540" pan="0" len="12" vol="100" />
          <note key="60" pos="576" pan="0" len="12" vol="100" />
          <note key="60" pos="600" pan="0" len="12" vol="100" />
          <note key="67" pos="612" pan="0" len="12" vol="100" />
          <note key="60" pos="648" pan="0" len="12" vol="100" />
          <note key="60" pos="672" pan="0" len="12" vol="100" />
          <note key="67" pos="684" pan="0" len="12" vol="100" />
          <note key="60" pos="720" pan="0" len="12" vol="100" />
          <note key="60" pos="744" pan="0" len="12" vol="100" />
          <note key="67" pos="756" pan="0" len="12" vol="100" />
          <note key="60" pos="792" pan="0" len="12" vol="100" />
          <note key="60" pos="816" pan="0" len="12" vol="100" />
          <note key="67" pos="828" pan="0" len="12" vol="100" />
          <note key="60" pos="864" pan="0" len="12" vol="100" />
          <note key="60" pos="888" pan="0" len="12" vol="100" />
          <note key="67" pos="900" pan="0" len="12" vol="100" />
          <note key="60" pos="936" pan="0" len="12" vol="100" />
          <note key="60" pos="960" pan="0" len="12" vol="100" />
          <note key="67" pos="972" pan="0" len="12" vol="100" />
          <note key="60" pos="1008" pan="0" len="12" vol="100" />
          <note key="60" pos="1032" pan="0" len="12" vol="100" />
          <note key="67" pos="1044" pan="0" len="12" vol="100" />
          <note key="60" pos="1080" pan="0" len="12" vol="100" />
          <note key="60" pos="1104" pan="0" len="12" vol="100" />
          <note key="67" pos="1116" pan="0" len="12" vol="100" />
        </pattern>
        <pattern pos="34176" muted="0" steps="16" name="" type="1">
          <note key="63" pos="0" pan="0" len="12" vol="100" />
          <note key="63" pos="24" pan="0" len="12" vol="100" />
          <note key="70" pos="36" pan="0" len="12" vol="100" />
          <note key="63" pos="72" pan="0" len="12" vol="100" />
          <note key="63" pos="96" pan="0" len="12" vol="100" />
          <note key="70" pos="108" pan="0" len="12" vol="100" />
          <note key="63" pos="144" pan="0" len="12" vol="100" />
          <note key="63" pos="168" pan="0" len="12" vol="100" />
          <note key="70" pos="180" pan="0" len="12" vol="100" />
          <note key="63" pos="216" pan="0" len="12" vol="100" />
          <note key="63" pos="240" pan="0" len="12" vol="100" />
          <note key="70" pos="252" pan="0" len="12" vol="100" />
          <note key="63" pos="288" pan="0" len="12" vol="100" />
          <note key="63" pos="312" pan="0" len="12" vol="100" />
          <note key="70" pos="324" pan="0" len="12" vol="100" />
          <note key="63" pos="360" pan="0" len="12" vol="100" />
          <note key="63" pos="384" pan="0" len="12" vol="100" />
          <note key="70" pos="396" pan="0" len="12" vol="100" />
          <note key="63" pos="432" pan="0" len="12" vol="100" />
          <note key="63" pos="456" pan="0" len="12" vol="100" />
          <note key="70" pos="468" pan="0" len="12" vol="100" />
          <note key="63" pos="504" pan="0" len="12" vol="100" />
          <note key="63" pos="528" pan="0" len="12" vol="100" />
          <note key="70" pos="540" pan="0" len="12" vol="100" />
          <note key="63" pos="576" pan="0" len="12" vol="100" />
          <note key="63" pos="600" pan="0" len="12" vol="100" />
          <note key="70" pos="612" pan="0" len="12" vol="100" />
          <note key="63" pos="648" pan="0" len="12" vol="100" />
          <note key="63" pos="672" pan="0" len="12" vol="100" />
          <note key="70" pos="684" pan="0" len="12" vol="100" />
          <note key="63" pos="720" pan="0" len="12" vol="100" />
          <note key="63" pos="744" pan="0" len="12" vol="100" />
          <note key="70" pos="756" pan="0" len="12" vol="100" />
          <note key="63" pos="792" pan="0" len="12" vol="100" />
          <note key="63" pos="816" pan="0" len="12" vol="100" />
          <note key="70" pos="828" pan="0" len="12" vol="100" />
          <note key="63" pos="864" pan="0" len="12" vol="100" />
          <note key="63" pos="888" pan="0" len="12" vol="100" />
          <note key="70" pos="900" pan="0" len="12" vol="100" />
          <note key="63" pos="936" pan="0" len="12" vol="100" />
          <note key="63" pos="960" pan="0" len="12" vol="100" />
          <note key="70" pos="972" pan="0" len="12" vol="100" />
          <note key="63" pos="1008" pan="0" len="12" vol="100" />
          <note key="63" pos="1032" pan="0" len="12" vol="100" />
          <note key="70" pos="1044" pan="0" len="12" vol="100" />
          <note key="63" pos="1080" pan="0" len="12" vol="100" />
          <note key="63" pos="1104" pan="0" len="12" vol="100" />
          <note key="70" pos="1116" pan="0" len="12" vol="100" />
        </pattern>
        <pattern pos="35328" muted="0" steps="16" name="" type="1">
          <note key="63" pos="0" pan="0" len="12" vol="100" />
          <note key="63" pos="24" pan="0" len="12" vol="100" />
          <note key="70" pos="36" pan="0" len="12" vol="100" />
          <note key="63" pos="72" pan="0" len="12" vol="100" />
          <note key="63" pos="96" pan="0" len="12" vol="100" />
          <note key="70" pos="108" pan="0" len="12" vol="100" />
          <note key="63" pos="144" pan="0" len="12" vol="100" />
          <note key="63" pos="168" pan="0" len="12" vol="100" />
          <note key="70" pos="180" pan="0" len="12" vol="100" />
          <note key="63" pos="216" pan="0" len="12" vol="100" />
          <note key="63" pos="240" pan="0" len="12" vol="100" />
          <note key="70" pos="252" pan="0" len="12" vol="100" />
          <note key="65" pos="288" pan="0" len="12" vol="100" />
          <note key="65" pos="312" pan="0" len="12" vol="100" />
          <note key="72" pos="324" pan="0" len="12" vol="100" />
          <note key="65" pos="360" pan="0" len="12" vol="100" />
          <note key="65" pos="384" pan="0" len="12" vol="100" />
          <note key="72" pos="396" pan="0" len="12" vol="100" />
          <note key="65" pos="432" pan="0" len="12" vol="100" />
          <note key="65" pos="456" pan="0" len="12" vol="100" />
          <note key="72" pos="468" pan="0" len="12" vol="100" />
          <note key="65" pos="504" pan="0" len="12" vol="100" />
          <note key="65" pos="528" pan="0" len="12" vol="100" />
          <note key="72" pos="540" pan="0" len="12" vol="100" />
          <note key="66" pos="576" pan="0" len="12" vol="100" />
          <note key="66" pos="600" pan="0" len="12" vol="100" />
          <note key="73" pos="612" pan="0" len="12" vol="100" />
          <note key="66" pos="648" pan="0" len="12" vol="100" />
          <note key="66" pos="672" pan="0" len="12" vol="100" />
          <note key="73" pos="684" pan="0" len="12" vol="100" />
          <note key="66" pos="720" pan="0" len="12" vol="100" />
          <note key="66" pos="744" pan="0" len="12" vol="100" />
          <note key="73" pos="756" pan="0" len="12" vol="100" />
          <note key="66" pos="792" pan="0" len="12" vol="100" />
          <note key="66" pos="816" pan="0" len="12" vol="100" />
          <note key="73" pos="828" pan="0" len="12" vol="100" />
          <note key="68" pos="864" pan="0" len="12" vol="100" />
          <note key="68" pos="888" pan="0" len="12" vol="100" />
          <note key="75" pos="900" pan="0" len="12" vol="100" />
          <note key="68" pos="936" pan="0" len="12" vol="100" />
          <note key="65" pos="960" pan="0" len="12" vol="100" />
          <note key="72" pos="972" pan="0" len="12" vol="100" />
          <note key="65" pos="1008" pan="0" len="12" vol="100" />
          <note key="65" pos="1032" pan="0" len="12" vol="100" />
          <note key="72" pos="1044" pan="0" len="12" vol="100" />
          <note key="65" pos="1080" pan="0" len="12" vol="100" />
          <note key="65" pos="1104" pan="0" len="12" vol="100" />
          <note key="72" pos="1116" pan="0" len="12" vol="100" />
        </pattern>
        <pattern pos="36480" muted="0" steps="16" name="" type="1">
          <note key="60" pos="0" pan="0" len="12" vol="100" />
          <note key="60" pos="24" pan="0" len="12" vol="100" />
          <note key="67" pos="36" pan="0" len="12" vol="100" />
          <note key="60" pos="72" pan="0" len="12" vol="100" />
          <note key="60" pos="96" pan="0" len="12" vol="100" />
          <note key="67" pos="108" pan="0" len="12" vol="100" />
          <note key="60" pos="144" pan="0" len="12" vol="100" />
          <note key="60" pos="168" pan="0" len="12" vol="100" />
          <note key="67" pos="180" pan="0" len="12" vol="100" />
          <note key="60" pos="216" pan="0" len="12" vol="100" />
          <note key="60" pos="240" pan="0" len="12" vol="100" />
          <note key="67" pos="252" pan="0" len="12" vol="100" />
          <note key="60" pos="288" pan="0" len="12" vol="100" />
          <note key="60" pos="312" pan="0" len="12" vol="100" />
          <note key="67" pos="324" pan="0" len="12" vol="100" />
          <note key="60" pos="360" pan="0" len="12" vol="100" />
          <note key="60" pos="384" pan="0" len="12" vol="100" />
          <note key="67" pos="396" pan="0" len="12" vol="100" />
          <note key="60" pos="432" pan="0" len="12" vol="100" />
          <note key="60" pos="456" pan="0" len="12" vol="100" />
          <note key="67" pos="468" pan="0" len="12" vol="100" />
          <note key="60" pos="504" pan="0" len="12" vol="100" />
          <note key="60" pos="528" pan="0" len="12" vol="100" />
          <note key="67" pos="540" pan="0" len="12" vol="100" />
          <note key="60" pos="576" pan="0" len="12" vol="100" />
          <note key="60" pos="600" pan="0" len="12" vol="100" />
          <note key="67" pos="612" pan="0" len="12" vol="100" />
          <note key="60" pos="648" pan="0" len="12" vol="100" />
          <note key="60" pos="672" pan="0" len="12" vol="100" />
          <note key="67" pos="684" pan="0" len="12" vol="100" />
          <note key="60" pos="720" pan="0" len="12" vol="100" />
          <note key="60" pos="744" pan="0" len="12" vol="100" />
          <note key="67" pos="756" pan="0" len="12" vol="100" />
          <note key="60" pos="792" pan="0" len="12" vol="100" />
          <note key="60" pos="816" pan="0" len="12" vol="100" />
          <note key="67" pos="828" pan="0" len="12" vol="100" />
          <note key="60" pos="864" pan="0" len="12" vol="100" />
          <note key="60" pos="888" pan="0" len="12" vol="100" />
          <note key="67" pos="900" pan="0" len="12" vol="100" />
          <note key="60" pos="936" pan="0" len="12" vol="100" />
          <note key="60" pos="960" pan="0" len="12" vol="100" />
          <note key="67" pos="972" pan="0" len="12" vol="100" />
          <note key="60" pos="1008" pan="0" len="12" vol="100" />
          <note key="60" pos="1032" pan="0" len="12" vol="100" />
          <note key="67" pos="1044" pan="0" len="12" vol="100" />
          <note key="60" pos="1080" pan="0" len="12" vol="100" />
          <note key="60" pos="1104" pan="0" len="12" vol="100" />
          <note key="67" pos="1116" pan="0" len="12" vol="100" />
        </pattern>
        <pattern pos="37632" muted="0" steps="16" name="" type="1">
          <note key="60" pos="0" pan="0" len="12" vol="100" />
          <note key="60" pos="24" pan="0" len="12" vol="100" />
          <note key="67" pos="36" pan="0" len="12" vol="100" />
          <note key="60" pos="72" pan="0" len="12" vol="100" />
          <note key="60" pos="96" pan="0" len="12" vol="100" />
          <note key="67" pos="108" pan="0" len="12" vol="100" />
          <note key="60" pos="144" pan="0" len="12" vol="100" />
          <note key="60" pos="168" pan="0" len="12" vol="100" />
          <note key="67" pos="180" pan="0" len="12" vol="100" />
          <note key="60" pos="216" pan="0" len="12" vol="100" />
          <note key="60" pos="240" pan="0" len="12" vol="100" />
          <note key="67" pos="252" pan="0" len="12" vol="100" />
          <note key="60" pos="288" pan="0" len="12" vol="100" />
          <note key="60" pos="312" pan="0" len="12" vol="100" />
          <note key="67" pos="324" pan="0" len="12" vol="100" />
          <note key="60" pos="360" pan="0" len="12" vol="100" />
          <note key="60" pos="384" pan="0" len="12" vol="100" />
          <note key="67" pos="396" pan="0" len="12" vol="100" />
          <note key="60" pos="432" pan="0" len="12" vol="100" />
          <note key="60" pos="456" pan="0" len="12" vol="100" />
          <note key="67" pos="468" pan="0" len="12" vol="100" />
          <note key="60" pos="504" pan="0" len="12" vol="100" />
          <note key="60" pos="528" pan="0" len="12" vol="100" />
          <note key="67" pos="540" pan="0" len="12" vol="100" />
          <note key="53" pos="576" pan="0" len="12" vol="100" />
          <note key="53" pos="600" pan="0" len="12" vol="100" />
          <note key="60" pos="612" pan="0" len="12" vol="100" />
          <note key="53" pos="648" pan="0" len="12" vol="100" />
          <note key="53" pos="672" pan="0" len="12" vol="100" />
          <note key="60" pos="684" pan="0" len="12" vol="100" />
          <note key="53" pos="720" pan="0" len="12" vol="100" />
          <note key="53" pos="744" pan="0" len="12" vol="100" />
          <note key="60" pos="756" pan="0" len="12" vol="100" />
          <note key="53" pos="792" pan="0" len="12" vol="100" />
          <note key="53" pos="816" pan="0" len="12" vol="100" />
          <note key="60" pos="828" pan="0" len="12" vol="100" />
          <note key="53" pos="864" pan="0" len="12" vol="100" />
          <note key="53" pos="888" pan="0" len="12" vol="100" />
          <note key="60" pos="900" pan="0" len="12" vol="100" />
          <note key="53" pos="936" pan="0" len="12" vol="100" />
          <note key="53" pos="960" pan="0" len="12" vol="100" />
          <note key="60" pos="972" pan="0" len="12" vol="100" />
          <note key="53" pos="1008" pan="0" len="12" vol="100" />
          <note key="53" pos="1032" pan="0" len="12" vol="100" />
          <note key="60" pos="1044" pan="0" len="12" vol="100" />
          <note key="55" pos="1080" pan="0" len="12" vol="100" />
          <note key="55" pos="1104" pan="0" len="12" vol="100" />
          <note key="62" pos="1116" pan="0" len="12" vol="100" />
        </pattern>
        <pattern pos="38784" muted="0" steps="16" name="" type="1">
          <note key="60" pos="0" pan="0" len="12" vol="100" />
          <note key="60" pos="24" pan="0" len="12" vol="100" />
          <note key="67" pos="36" pan="0" len="12" vol="100" />
          <note key="60" pos="72" pan="0" len="12" vol="100" />
          <note key="60" pos="96" pan="0" len="12" vol="100" />
          <note key="67" pos="108" pan="0" len="12" vol="100" />
          <note key="60" pos="144" pan="0" len="12" vol="100" />
          <note key="60" pos="168" pan="0" len="12" vol="100" />
          <note key="67" pos="180" pan="0" len="12" vol="100" />
          <note key="60" pos="216" pan="0" len="12" vol="100" />
          <note key="60" pos="240" pan="0" len="12" vol="100" />
          <note key="67" pos="252" pan="0" len="12" vol="100" />
          <note key="60" pos="288" pan="0" len="12" vol="100" />
          <note key="60" pos="312" pan="0" len="12" vol="100" />
          <note key="67" pos="324" pan="0" len="12" vol="100" />
          <note key="60" pos="360" pan="0" len="12" vol="100" />
          <note key="60" pos="384" pan="0" len="12" vol="100" />
          <note key="67" pos="396" pan="0" len="12" vol="100" />
          <note key="60" pos="432" pan="0" len="12" vol="100" />
          <note key="60" pos="456" pan="0" len="12" vol="100" />
          <note key="67" pos="468" pan="0" len="12" vol="100" />
          <note key="60" pos="504" pan="0" len="12" vol="100" />
          <note key="60" pos="528" pan="0" len="12" vol="100" />
          <note key="67" pos="540" pan="0" len="12" vol="100" />
          <note key="60" pos="576" pan="0" len="12" vol="100" />
          <note key="60" pos="600" pan="0" len="12" vol="100" />
          <note key="67" pos="612" pan="0" len="12" vol="100" />
          <note key="60" pos="648" pan="0" len="12" vol="100" />
          <note key="60" pos="672" pan="0" len="12" vol="100" />
          <note key="67" pos="684" pan="0" len="12" vol="100" />
          <note key="60" pos="720" pan="0" len="12" vol="100" />
          <note key="60" pos="744" pan="0" len="12" vol="100" />
          <note key="67" pos="756" pan="0" len="12" vol="100" />
          <note key="60" pos="792" pan="0" len="12" vol="100" />
          <note key="60" pos="816" pan="0" len="12" vol="100" />
          <note key="67" pos="828" pan="0" len="12" vol="100" />
          <note key="60" pos="864" pan="0" len="12" vol="100" />
          <note key="60" pos="888" pan="0" len="12" vol="100" />
          <note key="67" pos="900" pan="0" len="12" vol="100" />
          <note key="60" pos="936" pan="0" len="12" vol="100" />
          <note key="60" pos="960" pan="0" len="12" vol="100" />
          <note key="67" pos="972" pan="0" len="12" vol="100" />
          <note key="60" pos="1008" pan="0" len="12" vol="100" />
          <note key="60" pos="1032" pan="0" len="12" vol="100" />
          <note key="67" pos="1044" pan="0" len="12" vol="100" />
          <note key="60" pos="1080" pan="0" len="12" vol="100" />
          <note key="60" pos="1104" pan="0" len="12" vol="100" />
          <note key="67" pos="1116" pan="0" len="12" vol="100" />
        </pattern>
      </track>
      <track solo="0" name="24 (Ch3)" type="0" muted="0">
        <instrumenttrack usemasterpitch="1" pitch="0.0" basenote="57" pan="0" pitchrange="12" vol="30">
          <eldata />
          <instrument name="tripleoscillator" />
        </instrumenttrack>
        <pattern pos="16128" muted="0" steps="16" name="" type="1">
          <note key="70" pos="120" pan="0" len="36" vol="100" />
          <note key="70" pos="156" pan="0" len="24" vol="100" />
          <note key="67" pos="312" pan="0" len="36" vol="100" />
          <note key="55" pos="348" pan="0" len="24" vol="100" />
          <note key="72" pos="504" pan="0" len="36" vol="100" />
          <note key="72" pos="540" pan="0" len="24" vol="100" />
          <note key="72" pos="696" pan="0" len="36" vol="100" />
          <note key="72" pos="732" pan="0" len="24" vol="100" />
          <note key="70" pos="888" pan="0" len="36" vol="100" />
          <note key="70" pos="924" pan="0" len="24" vol="100" />
          <note key="67" pos="1080" pan="0" len="36" vol="100" />
          <note key="55" pos="1116" pan="0" len="24" vol="100" />
          <note key="72" pos="1272" pan="0" len="36" vol="100" />
          <note key="72" pos="1308" pan="0" len="24" vol="100" />
          <note key="72" pos="1464" pan="0" len="36" vol="100" />
          <note key="72" pos="1500" pan="0" len="24" vol="100" />
        </pattern>
        <pattern pos="6912" muted="0" steps="16" name="" type="1">
          <note key="72" pos="120" pan="0" len="36" vol="100" />
          <note key="72" pos="156" pan="0" len="24" vol="100" />
          <note key="72" pos="312" pan="0" len="36" vol="100" />
          <note key="72" pos="348" pan="0" len="24" vol="100" />
          <note key="72" pos="504" pan="0" len="36" vol="100" />
          <note key="72" pos="540" pan="0" len="24" vol="100" />
          <note key="72" pos="696" pan="0" len="36" vol="100" />
          <note key="72" pos="732" pan="0" len="24" vol="100" />
        </pattern>
        <pattern pos="7680" muted="0" steps="16" name="" type="1">
          <note key="72" pos="120" pan="0" len="36" vol="100" />
          <note key="72" pos="156" pan="0" len="24" vol="100" />
          <note key="72" pos="312" pan="0" len="36" vol="100" />
          <note key="72" pos="348" pan="0" len="24" vol="100" />
          <note key="72" pos="504" pan="0" len="36" vol="100" />
          <note key="72" pos="540" pan="0" len="24" vol="100" />
          <note key="72" pos="696" pan="0" len="36" vol="100" />
          <note key="72" pos="732" pan="0" len="24" vol="100" />
        </pattern>
        <pattern pos="8448" muted="0" steps="16" name="" type="1">
          <note key="72" pos="120" pan="0" len="36" vol="100" />
          <note key="72" pos="156" pan="0" len="24" vol="100" />
          <note key="72" pos="312" pan="0" len="36" vol="100" />
          <note key="72" pos="348" pan="0" len="24" vol="100" />
          <note key="67" pos="504" pan="0" len="36" vol="100" />
          <note key="67" pos="540" pan="0" len="24" vol="100" />
          <note key="67" pos="696" pan="0" len="36" vol="100" />
          <note key="67" pos="732" pan="0" len="24" vol="100" />
        </pattern>
        <pattern pos="9216" muted="0" steps="16" name="" type="1">
          <note key="72" pos="120" pan="0" len="36" vol="100" />
          <note key="72" pos="156" pan="0" len="24" vol="100" />
          <note key="72" pos="312" pan="0" len="36" vol="100" />
          <note key="72" pos="348" pan="0" len="24" vol="100" />
          <note key="67" pos="504" pan="0" len="36" vol="100" />
          <note key="67" pos="540" pan="0" len="24" vol="100" />
          <note key="67" pos="696" pan="0" len="36" vol="100" />
          <note key="67" pos="732" pan="0" len="24" vol="100" />
        </pattern>
        <pattern pos="9984" muted="0" steps="16" name="" type="1">
          <note key="70" pos="120" pan="0" len="36" vol="100" />
          <note key="70" pos="156" pan="0" len="24" vol="100" />
          <note key="67" pos="312" pan="0" len="36" vol="100" />
          <note key="55" pos="348" pan="0" len="24" vol="100" />
          <note key="72" pos="504" pan="0" len="36" vol="100" />
          <note key="72" pos="540" pan="0" len="24" vol="100" />
          <note key="72" pos="696" pan="0" len="36" vol="100" />
          <note key="72" pos="732" pan="0" len="24" vol="100" />
        </pattern>
        <pattern pos="10752" muted="0" steps="16" name="" type="1">
          <note key="70" pos="120" pan="0" len="36" vol="100" />
          <note key="70" pos="156" pan="0" len="24" vol="100" />
          <note key="67" pos="312" pan="0" len="36" vol="100" />
          <note key="55" pos="348" pan="0" len="24" vol="100" />
          <note key="72" pos="504" pan="0" len="36" vol="100" />
          <note key="72" pos="540" pan="0" len="24" vol="100" />
          <note key="72" pos="696" pan="0" len="72" vol="100" />
        </pattern>
        <pattern pos="11520" muted="0" steps="16" name="" type="1">
          <note key="72" pos="120" pan="0" len="36" vol="100" />
          <note key="72" pos="156" pan="0" len="24" vol="100" />
          <note key="72" pos="312" pan="0" len="36" vol="100" />
          <note key="72" pos="348" pan="0" len="24" vol="100" />
          <note key="67" pos="504" pan="0" len="36" vol="100" />
          <note key="67" pos="540" pan="0" len="24" vol="100" />
          <note key="67" pos="696" pan="0" len="36" vol="100" />
          <note key="67" pos="732" pan="0" len="24" vol="100" />
          <note key="72" pos="888" pan="0" len="36" vol="100" />
          <note key="72" pos="924" pan="0" len="24" vol="100" />
          <note key="72" pos="1080" pan="0" len="36" vol="100" />
          <note key="72" pos="1116" pan="0" len="24" vol="100" />
          <note key="67" pos="1272" pan="0" len="36" vol="100" />
          <note key="67" pos="1308" pan="0" len="24" vol="100" />
          <note key="67" pos="1464" pan="0" len="36" vol="100" />
          <note key="67" pos="1500" pan="0" len="24" vol="100" />
        </pattern>
        <pattern pos="13056" muted="0" steps="16" name="" type="1">
          <note key="70" pos="120" pan="0" len="36" vol="100" />
          <note key="70" pos="156" pan="0" len="24" vol="100" />
          <note key="67" pos="312" pan="0" len="36" vol="100" />
          <note key="55" pos="348" pan="0" len="24" vol="100" />
          <note key="72" pos="504" pan="0" len="36" vol="100" />
          <note key="72" pos="540" pan="0" len="24" vol="100" />
          <note key="72" pos="696" pan="0" len="36" vol="100" />
          <note key="72" pos="732" pan="0" len="24" vol="100" />
          <note key="70" pos="888" pan="0" len="36" vol="100" />
          <note key="70" pos="924" pan="0" len="24" vol="100" />
          <note key="67" pos="1080" pan="0" len="36" vol="100" />
          <note key="55" pos="1116" pan="0" len="24" vol="100" />
          <note key="72" pos="1272" pan="0" len="36" vol="100" />
          <note key="72" pos="1308" pan="0" len="24" vol="100" />
          <note key="72" pos="1464" pan="0" len="36" vol="100" />
          <note key="72" pos="1500" pan="0" len="24" vol="100" />
        </pattern>
        <pattern pos="14592" muted="0" steps="16" name="" type="1">
          <note key="72" pos="120" pan="0" len="36" vol="100" />
          <note key="72" pos="156" pan="0" len="24" vol="100" />
          <note key="72" pos="312" pan="0" len="36" vol="100" />
          <note key="72" pos="348" pan="0" len="24" vol="100" />
          <note key="67" pos="504" pan="0" len="36" vol="100" />
          <note key="67" pos="540" pan="0" len="24" vol="100" />
          <note key="67" pos="696" pan="0" len="36" vol="100" />
          <note key="67" pos="732" pan="0" len="24" vol="100" />
          <note key="72" pos="888" pan="0" len="36" vol="100" />
          <note key="72" pos="924" pan="0" len="24" vol="100" />
          <note key="72" pos="1080" pan="0" len="36" vol="100" />
          <note key="72" pos="1116" pan="0" len="24" vol="100" />
          <note key="67" pos="1272" pan="0" len="36" vol="100" />
          <note key="67" pos="1308" pan="0" len="24" vol="100" />
          <note key="67" pos="1464" pan="0" len="36" vol="100" />
          <note key="67" pos="1500" pan="0" len="24" vol="100" />
        </pattern>
      </track>
      <track solo="0" name="24 (Ch5)" type="0" muted="0">
        <instrumenttrack usemasterpitch="1" pitch="0.0" basenote="57" pan="0" pitchrange="12" vol="30">
          <eldata />
          <instrument name="tripleoscillator" />
        </instrumenttrack>
        <pattern pos="91392" muted="0" steps="16" name="" type="1">
          <note key="60" pos="24" pan="0" len="72" vol="100" />
          <note key="60" pos="96" pan="0" len="144" vol="100" />
          <note key="60" pos="408" pan="0" len="72" vol="100" />
          <note key="60" pos="480" pan="0" len="144" vol="100" />
        </pattern>
        <pattern pos="76800" muted="0" steps="16" name="" type="1">
          <note key="60" pos="24" pan="0" len="72" vol="100" />
          <note key="60" pos="96" pan="0" len="144" vol="100" />
          <note key="60" pos="408" pan="0" len="72" vol="100" />
          <note key="60" pos="480" pan="0" len="144" vol="100" />
        </pattern>
        <pattern pos="77568" muted="0" steps="16" name="" type="1">
          <note key="60" pos="24" pan="0" len="72" vol="100" />
          <note key="60" pos="96" pan="0" len="144" vol="100" />
          <note key="60" pos="408" pan="0" len="72" vol="100" />
          <note key="60" pos="480" pan="0" len="144" vol="100" />
        </pattern>
        <pattern pos="78336" muted="0" steps="16" name="" type="1">
          <note key="60" pos="24" pan="0" len="72" vol="100" />
          <note key="60" pos="96" pan="0" len="144" vol="100" />
          <note key="60" pos="408" pan="0" len="72" vol="100" />
          <note key="60" pos="480" pan="0" len="144" vol="100" />
        </pattern>
        <pattern pos="79104" muted="0" steps="16" name="" type="1">
          <note key="60" pos="24" pan="0" len="72" vol="100" />
          <note key="60" pos="96" pan="0" len="144" vol="100" />
          <note key="60" pos="408" pan="0" len="72" vol="100" />
          <note key="60" pos="480" pan="0" len="144" vol="100" />
        </pattern>
        <pattern pos="79872" muted="0" steps="16" name="" type="1">
          <note key="60" pos="24" pan="0" len="72" vol="100" />
          <note key="60" pos="96" pan="0" len="144" vol="100" />
          <note key="60" pos="408" pan="0" len="72" vol="100" />
          <note key="60" pos="480" pan="0" len="144" vol="100" />
        </pattern>
        <pattern pos="80640" muted="0" steps="16" name="" type="1">
          <note key="60" pos="24" pan="0" len="72" vol="100" />
          <note key="60" pos="96" pan="0" len="144" vol="100" />
          <note key="60" pos="408" pan="0" len="72" vol="100" />
          <note key="60" pos="480" pan="0" len="144" vol="100" />
        </pattern>
        <pattern pos="81408" muted="0" steps="16" name="" type="1">
          <note key="60" pos="0" pan="0" len="72" vol="100" />
          <note key="60" pos="72" pan="0" len="168" vol="100" />
          <note key="60" pos="384" pan="0" len="72" vol="100" />
          <note key="60" pos="456" pan="0" len="144" vol="100" />
        </pattern>
        <pattern pos="82176" muted="0" steps="16" name="" type="1">
          <note key="60" pos="0" pan="0" len="72" vol="100" />
          <note key="60" pos="72" pan="0" len="168" vol="100" />
          <note key="60" pos="384" pan="0" len="72" vol="100" />
          <note key="60" pos="456" pan="0" len="144" vol="100" />
        </pattern>
        <pattern pos="82944" muted="0" steps="16" name="" type="1">
          <note key="60" pos="0" pan="0" len="72" vol="100" />
          <note key="60" pos="72" pan="0" len="168" vol="100" />
          <note key="60" pos="384" pan="0" len="72" vol="100" />
          <note key="60" pos="456" pan="0" len="168" vol="100" />
        </pattern>
        <pattern pos="83712" muted="0" steps="16" name="" type="1">
          <note key="60" pos="0" pan="0" len="72" vol="100" />
          <note key="60" pos="72" pan="0" len="168" vol="100" />
          <note key="60" pos="384" pan="0" len="72" vol="100" />
          <note key="60" pos="456" pan="0" len="168" vol="100" />
        </pattern>
        <pattern pos="84480" muted="0" steps="16" name="" type="1">
          <note key="60" pos="0" pan="0" len="72" vol="100" />
          <note key="60" pos="72" pan="0" len="168" vol="100" />
          <note key="60" pos="384" pan="0" len="72" vol="100" />
          <note key="60" pos="456" pan="0" len="168" vol="100" />
        </pattern>
        <pattern pos="85248" muted="0" steps="16" name="" type="1">
          <note key="60" pos="0" pan="0" len="72" vol="100" />
          <note key="60" pos="72" pan="0" len="168" vol="100" />
          <note key="60" pos="384" pan="0" len="72" vol="100" />
          <note key="60" pos="456" pan="0" len="168" vol="100" />
        </pattern>
        <pattern pos="86016" muted="0" steps="16" name="" type="1">
          <note key="60" pos="0" pan="0" len="72" vol="100" />
          <note key="60" pos="72" pan="0" len="168" vol="100" />
          <note key="60" pos="384" pan="0" len="72" vol="100" />
          <note key="60" pos="456" pan="0" len="144" vol="100" />
        </pattern>
        <pattern pos="86784" muted="0" steps="16" name="" type="1">
          <note key="60" pos="0" pan="0" len="72" vol="100" />
          <note key="60" pos="72" pan="0" len="168" vol="100" />
          <note key="60" pos="384" pan="0" len="72" vol="100" />
          <note key="60" pos="456" pan="0" len="144" vol="100" />
        </pattern>
        <pattern pos="87552" muted="0" steps="16" name="" type="1">
          <note key="60" pos="0" pan="0" len="72" vol="100" />
          <note key="60" pos="72" pan="0" len="168" vol="100" />
          <note key="60" pos="384" pan="0" len="72" vol="100" />
          <note key="60" pos="456" pan="0" len="144" vol="100" />
        </pattern>
        <pattern pos="88320" muted="0" steps="16" name="" type="1">
          <note key="60" pos="0" pan="0" len="72" vol="100" />
          <note key="60" pos="72" pan="0" len="168" vol="100" />
          <note key="60" pos="384" pan="0" len="72" vol="100" />
          <note key="60" pos="456" pan="0" len="144" vol="100" />
        </pattern>
        <pattern pos="89088" muted="0" steps="16" name="" type="1">
          <note key="60" pos="0" pan="0" len="72" vol="100" />
          <note key="60" pos="72" pan="0" len="168" vol="100" />
          <note key="60" pos="384" pan="0" len="72" vol="100" />
          <note key="60" pos="456" pan="0" len="144" vol="100" />
        </pattern>
        <pattern pos="89856" muted="0" steps="16" name="" type="1">
          <note key="60" pos="0" pan="0" len="72" vol="100" />
          <note key="60" pos="72" pan="0" len="168" vol="100" />
          <note key="60" pos="384" pan="0" len="72" vol="100" />
          <note key="60" pos="456" pan="0" len="144" vol="100" />
        </pattern>
        <pattern pos="90624" muted="0" steps="16" name="" type="1">
          <note key="60" pos="24" pan="0" len="72" vol="100" />
          <note key="60" pos="96" pan="0" len="144" vol="100" />
          <note key="60" pos="408" pan="0" len="72" vol="100" />
          <note key="60" pos="480" pan="0" len="144" vol="100" />
        </pattern>
      </track>
      <track solo="0" name="24 (Ch11)" type="0" muted="0">
        <instrumenttrack usemasterpitch="1" pitch="0.0" basenote="57" pan="0" pitchrange="12" vol="30">
          <eldata />
          <instrument name="tripleoscillator" />
        </instrumenttrack>
        <pattern pos="267648" muted="0" steps="16" name="" type="1">
          <note key="75" pos="0" pan="0" len="24" vol="100" />
          <note key="75" pos="24" pan="0" len="12" vol="100" />
          <note key="68" pos="384" pan="0" len="24" vol="100" />
          <note key="68" pos="408" pan="0" len="12" vol="100" />
          <note key="75" pos="768" pan="0" len="24" vol="100" />
          <note key="75" pos="792" pan="0" len="12" vol="100" />
        </pattern>
        <pattern pos="25344" muted="0" steps="16" name="" type="1">
          <note key="48" pos="0" pan="0" len="768" vol="100" />
          <note key="48" pos="768" pan="0" len="768" vol="100" />
        </pattern>
        <pattern pos="26880" muted="0" steps="16" name="" type="1">
          <note key="51" pos="0" pan="0" len="768" vol="100" />
          <note key="53" pos="768" pan="0" len="768" vol="100" />
        </pattern>
        <pattern pos="28416" muted="0" steps="16" name="" type="1">
          <note key="48" pos="0" pan="0" len="576" vol="100" />
          <note key="48" pos="576" pan="0" len="576" vol="100" />
        </pattern>
        <pattern pos="259968" muted="0" steps="16" name="" type="1">
          <note key="77" pos="0" pan="0" len="24" vol="100" />
          <note key="77" pos="24" pan="0" len="12" vol="100" />
          <note key="75" pos="384" pan="0" len="24" vol="100" />
          <note key="75" pos="408" pan="0" len="12" vol="100" />
        </pattern>
        <pattern pos="260736" muted="0" steps="16" name="" type="1">
          <note key="77" pos="0" pan="0" len="24" vol="100" />
          <note key="77" pos="24" pan="0" len="12" vol="100" />
          <note key="75" pos="384" pan="0" len="24" vol="100" />
          <note key="75" pos="408" pan="0" len="12" vol="100" />
        </pattern>
        <pattern pos="261504" muted="0" steps="16" name="" type="1">
          <note key="80" pos="0" pan="0" len="24" vol="100" />
          <note key="80" pos="24" pan="0" len="12" vol="100" />
          <note key="78" pos="384" pan="0" len="24" vol="100" />
          <note key="78" pos="408" pan="0" len="12" vol="100" />
        </pattern>
        <pattern pos="262272" muted="0" steps="16" name="" type="1">
          <note key="80" pos="0" pan="0" len="24" vol="100" />
          <note key="80" pos="24" pan="0" len="12" vol="100" />
          <note key="78" pos="384" pan="0" len="24" vol="100" />
          <note key="78" pos="408" pan="0" len="12" vol="100" />
        </pattern>
        <pattern pos="263040" muted="0" steps="16" name="" type="1">
          <note key="77" pos="0" pan="0" len="24" vol="100" />
          <note key="77" pos="24" pan="0" len="12" vol="100" />
          <note key="75" pos="384" pan="0" len="24" vol="100" />
          <note key="75" pos="408" pan="0" len="12" vol="100" />
        </pattern>
        <pattern pos="263808" muted="0" steps="16" name="" type="1">
          <note key="77" pos="0" pan="0" len="24" vol="100" />
          <note key="77" pos="24" pan="0" len="12" vol="100" />
          <note key="75" pos="384" pan="0" len="24" vol="100" />
          <note key="75" pos="408" pan="0" len="12" vol="100" />
        </pattern>
        <pattern pos="264576" muted="0" steps="16" name="" type="1">
          <note key="77" pos="0" pan="0" len="24" vol="100" />
          <note key="77" pos="24" pan="0" len="12" vol="100" />
          <note key="75" pos="384" pan="0" len="24" vol="100" />
          <note key="75" pos="408" pan="0" len="12" vol="100" />
        </pattern>
        <pattern pos="265344" muted="0" steps="16" name="" type="1">
          <note key="77" pos="0" pan="0" len="24" vol="100" />
          <note key="77" pos="24" pan="0" len="12" vol="100" />
          <note key="75" pos="384" pan="0" len="24" vol="100" />
          <note key="75" pos="408" pan="0" len="12" vol="100" />
        </pattern>
        <pattern pos="266112" muted="0" steps="16" name="" type="1">
          <note key="77" pos="0" pan="0" len="24" vol="100" />
          <note key="77" pos="24" pan="0" len="12" vol="100" />
          <note key="72" pos="384" pan="0" len="24" vol="100" />
          <note key="72" pos="408" pan="0" len="12" vol="100" />
          <note key="77" pos="768" pan="0" len="24" vol="100" />
          <note key="77" pos="792" pan="0" len="12" vol="100" />
          <note key="72" pos="1152" pan="0" len="24" vol="100" />
          <note key="72" pos="1176" pan="0" len="12" vol="100" />
        </pattern>
      </track>
      <track solo="0" name="24 (Ch12)" type="0" muted="0">
        <instrumenttrack usemasterpitch="1" pitch="0.0" basenote="57" pan="0" pitchrange="12" vol="30">
          <eldata />
          <instrument name="tripleoscillator" />
        </instrumenttrack>
        <pattern pos="88320" muted="0" steps="16" name="" type="1">
          <note key="60" pos="0" pan="0" len="12" vol="100" />
          <note key="60" pos="12" pan="0" len="12" vol="100" />
          <note key="62" pos="84" pan="0" len="12" vol="100" />
          <note key="63" pos="96" pan="0" len="24" vol="100" />
          <note key="62" pos="180" pan="0" len="12" vol="100" />
          <note key="60" pos="192" pan="0" len="12" vol="100" />
          <note key="60" pos="204" pan="0" len="12" vol="100" />
          <note key="62" pos="276" pan="0" len="12" vol="100" />
          <note key="63" pos="288" pan="0" len="24" vol="100" />
          <note key="62" pos="372" pan="0" len="12" vol="100" />
          <note key="60" pos="384" pan="0" len="12" vol="100" />
          <note key="60" pos="396" pan="0" len="12" vol="100" />
          <note key="62" pos="468" pan="0" len="12" vol="100" />
          <note key="63" pos="480" pan="0" len="24" vol="100" />
          <note key="62" pos="564" pan="0" len="12" vol="100" />
          <note key="60" pos="576" pan="0" len="12" vol="100" />
          <note key="60" pos="588" pan="0" len="12" vol="100" />
          <note key="62" pos="660" pan="0" len="12" vol="100" />
          <note key="63" pos="672" pan="0" len="24" vol="100" />
          <note key="62" pos="756" pan="0" len="12" vol="100" />
        </pattern>
        <pattern pos="82944" muted="0" steps="16" name="" type="1">
          <note key="60" pos="0" pan="0" len="12" vol="100" />
          <note key="60" pos="12" pan="0" len="12" vol="100" />
          <note key="62" pos="84" pan="0" len="12" vol="100" />
          <note key="63" pos="96" pan="0" len="24" vol="100" />
          <note key="62" pos="180" pan="0" len="12" vol="100" />
          <note key="60" pos="192" pan="0" len="12" vol="100" />
          <note key="60" pos="204" pan="0" len="12" vol="100" />
          <note key="62" pos="276" pan="0" len="12" vol="100" />
          <note key="63" pos="288" pan="0" len="24" vol="100" />
          <note key="62" pos="372" pan="0" len="12" vol="100" />
          <note key="60" pos="384" pan="0" len="12" vol="100" />
          <note key="60" pos="396" pan="0" len="12" vol="100" />
          <note key="62" pos="468" pan="0" len="12" vol="100" />
          <note key="63" pos="480" pan="0" len="24" vol="100" />
          <note key="62" pos="564" pan="0" len="12" vol="100" />
          <note key="60" pos="576" pan="0" len="12" vol="100" />
          <note key="60" pos="588" pan="0" len="12" vol="100" />
          <note key="62" pos="660" pan="0" len="12" vol="100" />
          <note key="63" pos="672" pan="0" len="24" vol="100" />
          <note key="62" pos="756" pan="0" len="12" vol="100" />
        </pattern>
        <pattern pos="83712" muted="0" steps="16" name="" type="1">
          <note key="60" pos="0" pan="0" len="12" vol="100" />
          <note key="60" pos="12" pan="0" len="12" vol="100" />
          <note key="62" pos="84" pan="0" len="12" vol="100" />
          <note key="63" pos="96" pan="0" len="24" vol="100" />
          <note key="62" pos="180" pan="0" len="12" vol="100" />
          <note key="60" pos="192" pan="0" len="12" vol="100" />
          <note key="60" pos="204" pan="0" len="12" vol="100" />
          <note key="62" pos="276" pan="0" len="12" vol="100" />
          <note key="63" pos="288" pan="0" len="24" vol="100" />
          <note key="62" pos="372" pan="0" len="12" vol="100" />
          <note key="60" pos="384" pan="0" len="12" vol="100" />
          <note key="60" pos="396" pan="0" len="12" vol="100" />
          <note key="62" pos="468" pan="0" len="12" vol="100" />
          <note key="63" pos="480" pan="0" len="24" vol="100" />
          <note key="62" pos="564" pan="0" len="12" vol="100" />
          <note key="60" pos="576" pan="0" len="12" vol="100" />
          <note key="60" pos="588" pan="0" len="12" vol="100" />
          <note key="62" pos="660" pan="0" len="12" vol="100" />
          <note key="63" pos="672" pan="0" len="24" vol="100" />
          <note key="62" pos="756" pan="0" len="12" vol="100" />
        </pattern>
        <pattern pos="84480" muted="0" steps="16" name="" type="1">
          <note key="60" pos="0" pan="0" len="12" vol="100" />
          <note key="60" pos="12" pan="0" len="12" vol="100" />
          <note key="62" pos="84" pan="0" len="12" vol="100" />
          <note key="63" pos="96" pan="0" len="24" vol="100" />
          <note key="62" pos="180" pan="0" len="12" vol="100" />
          <note key="60" pos="192" pan="0" len="12" vol="100" />
          <note key="60" pos="204" pan="0" len="12" vol="100" />
          <note key="62" pos="276" pan="0" len="12" vol="100" />
          <note key="63" pos="288" pan="0" len="24" vol="100" />
          <note key="62" pos="372" pan="0" len="12" vol="100" />
          <note key="60" pos="384" pan="0" len="12" vol="100" />
          <note key="60" pos="396" pan="0" len="12" vol="100" />
          <note key="62" pos="468" pan="0" len="12" vol="100" />
          <note key="63" pos="480" pan="0" len="24" vol="100" />
          <note key="62" pos="564" pan="0" len="12" vol="100" />
          <note key="60" pos="576" pan="0" len="12" vol="100" />
          <note key="60" pos="588" pan="0" len="12" vol="100" />
          <note key="62" pos="660" pan="0" len="12" vol="100" />
          <note key="63" pos="672" pan="0" len="24" vol="100" />
          <note key="62" pos="756" pan="0" len="12" vol="100" />
        </pattern>
        <pattern pos="85248" muted="0" steps="16" name="" type="1">
          <note key="60" pos="0" pan="0" len="12" vol="100" />
          <note key="60" pos="12" pan="0" len="12" vol="100" />
          <note key="62" pos="84" pan="0" len="12" vol="100" />
          <note key="63" pos="96" pan="0" len="24" vol="100" />
          <note key="62" pos="180" pan="0" len="12" vol="100" />
          <note key="60" pos="192" pan="0" len="12" vol="100" />
          <note key="60" pos="204" pan="0" len="12" vol="100" />
          <note key="62" pos="276" pan="0" len="12" vol="100" />
          <note key="63" pos="288" pan="0" len="24" vol="100" />
          <note key="62" pos="372" pan="0" len="12" vol="100" />
          <note key="60" pos="384" pan="0" len="12" vol="100" />
          <note key="60" pos="396" pan="0" len="12" vol="100" />
          <note key="62" pos="468" pan="0" len="12" vol="100" />
          <note key="63" pos="480" pan="0" len="24" vol="100" />
          <note key="62" pos="564" pan="0" len="12" vol="100" />
          <note key="60" pos="576" pan="0" len="12" vol="100" />
          <note key="60" pos="588" pan="0" len="12" vol="100" />
          <note key="62" pos="660" pan="0" len="12" vol="100" />
          <note key="63" pos="672" pan="0" len="24" vol="100" />
          <note key="62" pos="756" pan="0" len="12" vol="100" />
        </pattern>
        <pattern pos="86784" muted="0" steps="16" name="" type="1">
          <note key="60" pos="0" pan="0" len="12" vol="100" />
          <note key="60" pos="12" pan="0" len="12" vol="100" />
          <note key="62" pos="84" pan="0" len="12" vol="100" />
          <note key="63" pos="96" pan="0" len="24" vol="100" />
          <note key="62" pos="180" pan="0" len="12" vol="100" />
          <note key="60" pos="192" pan="0" len="12" vol="100" />
          <note key="60" pos="204" pan="0" len="12" vol="100" />
          <note key="62" pos="276" pan="0" len="12" vol="100" />
          <note key="63" pos="288" pan="0" len="24" vol="100" />
          <note key="62" pos="372" pan="0" len="12" vol="100" />
          <note key="60" pos="384" pan="0" len="12" vol="100" />
          <note key="60" pos="396" pan="0" len="12" vol="100" />
          <note key="62" pos="468" pan="0" len="12" vol="100" />
          <note key="63" pos="480" pan="0" len="24" vol="100" />
          <note key="62" pos="564" pan="0" len="12" vol="100" />
          <note key="60" pos="576" pan="0" len="12" vol="100" />
          <note key="60" pos="588" pan="0" len="12" vol="100" />
          <note key="62" pos="660" pan="0" len="12" vol="100" />
          <note key="63" pos="672" pan="0" len="24" vol="100" />
          <note key="62" pos="756" pan="0" len="12" vol="100" />
        </pattern>
      </track>
      <track solo="0" name="24 (Ch14)" type="0" muted="0">
        <instrumenttrack usemasterpitch="1" pitch="0.0" basenote="57" pan="0" pitchrange="12" vol="30">
          <eldata />
          <instrument name="tripleoscillator" />
        </instrumenttrack>
        <pattern pos="87552" muted="0" steps="16" name="" type="1">
          <note key="60" pos="0" pan="0" len="12" vol="100" />
          <note key="60" pos="12" pan="0" len="12" vol="100" />
          <note key="62" pos="84" pan="0" len="12" vol="100" />
          <note key="63" pos="96" pan="0" len="24" vol="100" />
          <note key="62" pos="180" pan="0" len="12" vol="100" />
          <note key="60" pos="192" pan="0" len="12" vol="100" />
          <note key="60" pos="204" pan="0" len="12" vol="100" />
          <note key="62" pos="276" pan="0" len="12" vol="100" />
          <note key="63" pos="288" pan="0" len="24" vol="100" />
          <note key="62" pos="372" pan="0" len="12" vol="100" />
          <note key="60" pos="384" pan="0" len="12" vol="100" />
          <note key="60" pos="396" pan="0" len="12" vol="100" />
          <note key="62" pos="468" pan="0" len="12" vol="100" />
          <note key="63" pos="480" pan="0" len="24" vol="100" />
          <note key="62" pos="564" pan="0" len="12" vol="100" />
          <note key="60" pos="576" pan="0" len="12" vol="100" />
          <note key="60" pos="588" pan="0" len="12" vol="100" />
          <note key="62" pos="660" pan="0" len="12" vol="100" />
          <note key="63" pos="672" pan="0" len="24" vol="100" />
          <note key="62" pos="756" pan="0" len="12" vol="100" />
        </pattern>
      </track>
      <track solo="0" name="25 (Ch1)" type="0" muted="0">
        <instrumenttrack usemasterpitch="1" pitch="0.0" basenote="57" pan="0" pitchrange="12" vol="30">
          <eldata />
          <instrument name="tripleoscillator" />
        </instrumenttrack>
        <pattern pos="91392" muted="0" steps="16" name="" type="1">
          <note key="60" pos="0" pan="0" len="120" vol="100" />
          <note key="60" pos="120" pan="0" len="36" vol="100" />
          <note key="60" pos="192" pan="0" len="120" vol="100" />
          <note key="60" pos="312" pan="0" len="36" vol="100" />
          <note key="60" pos="384" pan="0" len="120" vol="100" />
          <note key="60" pos="504" pan="0" len="36" vol="100" />
          <note key="60" pos="576" pan="0" len="120" vol="100" />
          <note key="60" pos="696" pan="0" len="36" vol="100" />
        </pattern>
        <pattern pos="76800" muted="0" steps="16" name="" type="1">
          <note key="60" pos="0" pan="0" len="120" vol="100" />
          <note key="60" pos="120" pan="0" len="36" vol="100" />
          <note key="60" pos="192" pan="0" len="120" vol="100" />
          <note key="60" pos="312" pan="0" len="36" vol="100" />
          <note key="60" pos="384" pan="0" len="120" vol="100" />
          <note key="60" pos="504" pan="0" len="36" vol="100" />
          <note key="60" pos="576" pan="0" len="120" vol="100" />
          <note key="60" pos="696" pan="0" len="36" vol="100" />
        </pattern>
        <pattern pos="77568" muted="0" steps="16" name="" type="1">
          <note key="60" pos="0" pan="0" len="120" vol="100" />
          <note key="60" pos="120" pan="0" len="36" vol="100" />
          <note key="60" pos="192" pan="0" len="120" vol="100" />
          <note key="60" pos="312" pan="0" len="36" vol="100" />
          <note key="60" pos="384" pan="0" len="120" vol="100" />
          <note key="60" pos="504" pan="0" len="36" vol="100" />
          <note key="60" pos="576" pan="0" len="120" vol="100" />
          <note key="60" pos="696" pan="0" len="36" vol="100" />
        </pattern>
        <pattern pos="78336" muted="0" steps="16" name="" type="1">
          <note key="60" pos="0" pan="0" len="120" vol="100" />
          <note key="60" pos="120" pan="0" len="36" vol="100" />
          <note key="60" pos="192" pan="0" len="120" vol="100" />
          <note key="60" pos="312" pan="0" len="36" vol="100" />
          <note key="60" pos="384" pan="0" len="120" vol="100" />
          <note key="60" pos="504" pan="0" len="36" vol="100" />
          <note key="60" pos="576" pan="0" len="120" vol="100" />
          <note key="60" pos="696" pan="0" len="36" vol="100" />
        </pattern>
        <pattern pos="79104" muted="0" steps="16" name="" type="1">
          <note key="60" pos="0" pan="0" len="120" vol="100" />
          <note key="60" pos="120" pan="0" len="36" vol="100" />
          <note key="60" pos="192" pan="0" len="120" vol="100" />
          <note key="60" pos="312" pan="0" len="36" vol="100" />
          <note key="60" pos="384" pan="0" len="120" vol="100" />
          <note key="60" pos="504" pan="0" len="36" vol="100" />
          <note key="60" pos="576" pan="0" len="120" vol="100" />
          <note key="60" pos="696" pan="0" len="36" vol="100" />
        </pattern>
        <pattern pos="79872" muted="0" steps="16" name="" type="1">
          <note key="60" pos="0" pan="0" len="120" vol="100" />
          <note key="60" pos="120" pan="0" len="36" vol="100" />
          <note key="60" pos="192" pan="0" len="120" vol="100" />
          <note key="60" pos="312" pan="0" len="36" vol="100" />
          <note key="60" pos="384" pan="0" len="120" vol="100" />
          <note key="60" pos="504" pan="0" len="36" vol="100" />
          <note key="60" pos="576" pan="0" len="120" vol="100" />
          <note key="60" pos="696" pan="0" len="36" vol="100" />
        </pattern>
        <pattern pos="80640" muted="0" steps="16" name="" type="1">
          <note key="60" pos="0" pan="0" len="120" vol="100" />
          <note key="60" pos="120" pan="0" len="36" vol="100" />
          <note key="60" pos="192" pan="0" len="120" vol="100" />
          <note key="60" pos="312" pan="0" len="36" vol="100" />
          <note key="60" pos="384" pan="0" len="120" vol="100" />
          <note key="60" pos="504" pan="0" len="36" vol="100" />
          <note key="60" pos="576" pan="0" len="120" vol="100" />
          <note key="60" pos="696" pan="0" len="36" vol="100" />
        </pattern>
        <pattern pos="81408" muted="0" steps="16" name="" type="1">
          <note key="60" pos="0" pan="0" len="120" vol="100" />
          <note key="60" pos="120" pan="0" len="36" vol="100" />
          <note key="60" pos="192" pan="0" len="120" vol="100" />
          <note key="60" pos="312" pan="0" len="36" vol="100" />
          <note key="60" pos="384" pan="0" len="120" vol="100" />
          <note key="60" pos="504" pan="0" len="36" vol="100" />
          <note key="60" pos="576" pan="0" len="120" vol="100" />
          <note key="60" pos="696" pan="0" len="36" vol="100" />
        </pattern>
        <pattern pos="82176" muted="0" steps="16" name="" type="1">
          <note key="60" pos="0" pan="0" len="120" vol="100" />
          <note key="60" pos="120" pan="0" len="36" vol="100" />
          <note key="60" pos="192" pan="0" len="120" vol="100" />
          <note key="60" pos="312" pan="0" len="36" vol="100" />
          <note key="60" pos="384" pan="0" len="120" vol="100" />
          <note key="60" pos="504" pan="0" len="36" vol="100" />
          <note key="60" pos="576" pan="0" len="120" vol="100" />
          <note key="60" pos="696" pan="0" len="36" vol="100" />
        </pattern>
        <pattern pos="82944" muted="0" steps="16" name="" type="1">
          <note key="60" pos="0" pan="0" len="120" vol="100" />
          <note key="60" pos="120" pan="0" len="36" vol="100" />
          <note key="60" pos="192" pan="0" len="120" vol="100" />
          <note key="60" pos="312" pan="0" len="36" vol="100" />
          <note key="60" pos="384" pan="0" len="120" vol="100" />
          <note key="60" pos="504" pan="0" len="36" vol="100" />
          <note key="60" pos="576" pan="0" len="120" vol="100" />
          <note key="60" pos="696" pan="0" len="36" vol="100" />
        </pattern>
        <pattern pos="83712" muted="0" steps="16" name="" type="1">
          <note key="60" pos="0" pan="0" len="120" vol="100" />
          <note key="60" pos="120" pan="0" len="36" vol="100" />
          <note key="60" pos="192" pan="0" len="120" vol="100" />
          <note key="60" pos="312" pan="0" len="36" vol="100" />
          <note key="60" pos="384" pan="0" len="120" vol="100" />
          <note key="60" pos="504" pan="0" len="36" vol="100" />
          <note key="60" pos="576" pan="0" len="120" vol="100" />
          <note key="60" pos="696" pan="0" len="36" vol="100" />
        </pattern>
        <pattern pos="84480" muted="0" steps="16" name="" type="1">
          <note key="60" pos="0" pan="0" len="120" vol="100" />
          <note key="60" pos="120" pan="0" len="36" vol="100" />
          <note key="60" pos="192" pan="0" len="120" vol="100" />
          <note key="60" pos="312" pan="0" len="36" vol="100" />
          <note key="60" pos="384" pan="0" len="120" vol="100" />
          <note key="60" pos="504" pan="0" len="36" vol="100" />
          <note key="60" pos="576" pan="0" len="120" vol="100" />
          <note key="60" pos="696" pan="0" len="36" vol="100" />
        </pattern>
        <pattern pos="85248" muted="0" steps="16" name="" type="1">
          <note key="60" pos="0" pan="0" len="120" vol="100" />
          <note key="60" pos="120" pan="0" len="36" vol="100" />
          <note key="60" pos="192" pan="0" len="120" vol="100" />
          <note key="60" pos="312" pan="0" len="36" vol="100" />
          <note key="60" pos="384" pan="0" len="120" vol="100" />
          <note key="60" pos="504" pan="0" len="36" vol="100" />
          <note key="60" pos="576" pan="0" len="120" vol="100" />
          <note key="60" pos="696" pan="0" len="36" vol="100" />
        </pattern>
        <pattern pos="86016" muted="0" steps="16" name="" type="1">
          <note key="60" pos="0" pan="0" len="120" vol="100" />
          <note key="60" pos="120" pan="0" len="36" vol="100" />
          <note key="60" pos="192" pan="0" len="120" vol="100" />
          <note key="60" pos="312" pan="0" len="36" vol="100" />
          <note key="60" pos="384" pan="0" len="120" vol="100" />
          <note key="60" pos="504" pan="0" len="36" vol="100" />
          <note key="60" pos="576" pan="0" len="120" vol="100" />
          <note key="60" pos="696" pan="0" len="36" vol="100" />
        </pattern>
        <pattern pos="86784" muted="0" steps="16" name="" type="1">
          <note key="60" pos="0" pan="0" len="120" vol="100" />
          <note key="60" pos="120" pan="0" len="36" vol="100" />
          <note key="60" pos="192" pan="0" len="120" vol="100" />
          <note key="60" pos="312" pan="0" len="36" vol="100" />
          <note key="60" pos="384" pan="0" len="120" vol="100" />
          <note key="60" pos="504" pan="0" len="36" vol="100" />
          <note key="60" pos="576" pan="0" len="120" vol="100" />
          <note key="60" pos="696" pan="0" len="36" vol="100" />
        </pattern>
        <pattern pos="87552" muted="0" steps="16" name="" type="1">
          <note key="60" pos="0" pan="0" len="120" vol="100" />
          <note key="60" pos="120" pan="0" len="36" vol="100" />
          <note key="60" pos="192" pan="0" len="120" vol="100" />
          <note key="60" pos="312" pan="0" len="36" vol="100" />
          <note key="60" pos="384" pan="0" len="120" vol="100" />
          <note key="60" pos="504" pan="0" len="36" vol="100" />
          <note key="60" pos="576" pan="0" len="120" vol="100" />
          <note key="60" pos="696" pan="0" len="36" vol="100" />
        </pattern>
        <pattern pos="88320" muted="0" steps="16" name="" type="1">
          <note key="60" pos="0" pan="0" len="120" vol="100" />
          <note key="60" pos="120" pan="0" len="36" vol="100" />
          <note key="60" pos="192" pan="0" len="120" vol="100" />
          <note key="60" pos="312" pan="0" len="36" vol="100" />
          <note key="60" pos="384" pan="0" len="120" vol="100" />
          <note key="60" pos="504" pan="0" len="36" vol="100" />
          <note key="60" pos="576" pan="0" len="120" vol="100" />
          <note key="60" pos="696" pan="0" len="36" vol="100" />
        </pattern>
        <pattern pos="89088" muted="0" steps="16" name="" type="1">
          <note key="60" pos="0" pan="0" len="120" vol="100" />
          <note key="60" pos="120" pan="0" len="36" vol="100" />
          <note key="60" pos="192" pan="0" len="120" vol="100" />
          <note key="60" pos="312" pan="0" len="36" vol="100" />
          <note key="60" pos="384" pan="0" len="120" vol="100" />
          <note key="60" pos="504" pan="0" len="36" vol="100" />
          <note key="60" pos="576" pan="0" len="120" vol="100" />
          <note key="60" pos="696" pan="0" len="36" vol="100" />
        </pattern>
        <pattern pos="89856" muted="0" steps="16" name="" type="1">
          <note key="60" pos="0" pan="0" len="120" vol="100" />
          <note key="60" pos="120" pan="0" len="36" vol="100" />
          <note key="60" pos="192" pan="0" len="120" vol="100" />
          <note key="60" pos="312" pan="0" len="36" vol="100" />
          <note key="60" pos="384" pan="0" len="120" vol="100" />
          <note key="60" pos="504" pan="0" len="36" vol="100" />
          <note key="60" pos="576" pan="0" len="120" vol="100" />
          <note key="60" pos="696" pan="0" len="36" vol="100" />
        </pattern>
        <pattern pos="90624" muted="0" steps="16" name="" type="1">
          <note key="60" pos="0" pan="0" len="120" vol="100" />
          <note key="60" pos="120" pan="0" len="36" vol="100" />
          <note key="60" pos="192" pan="0" len="120" vol="100" />
          <note key="60" pos="312" pan="0" len="36" vol="100" />
          <note key="60" pos="384" pan="0" len="120" vol="100" />
          <note key="60" pos="504" pan="0" len="36" vol="100" />
          <note key="60" pos="576" pan="0" len="120" vol="100" />
          <note key="60" pos="696" pan="0" len="36" vol="100" />
        </pattern>
      </track>
      <track solo="0" name="25 (Ch2)" type="0" muted="0">
        <instrumenttrack usemasterpitch="1" pitch="0.0" basenote="57" pan="0" pitchrange="12" vol="30">
          <eldata />
          <instrument name="tripleoscillator" />
        </instrumenttrack>
        <pattern pos="136704" muted="0" steps="16" name="" type="1">
          <note key="60" pos="0" pan="0" len="36" vol="100" />
          <note key="60" pos="72" pan="0" len="72" vol="100" />
          <note key="60" pos="144" pan="0" len="24" vol="100" />
          <note key="60" pos="192" pan="0" len="36" vol="100" />
          <note key="60" pos="264" pan="0" len="72" vol="100" />
          <note key="60" pos="336" pan="0" len="24" vol="100" />
          <note key="60" pos="384" pan="0" len="36" vol="100" />
          <note key="60" pos="456" pan="0" len="72" vol="100" />
          <note key="60" pos="528" pan="0" len="24" vol="100" />
          <note key="60" pos="576" pan="0" len="36" vol="100" />
          <note key="60" pos="648" pan="0" len="72" vol="100" />
          <note key="60" pos="720" pan="0" len="24" vol="100" />
          <note key="60" pos="768" pan="0" len="36" vol="100" />
          <note key="60" pos="840" pan="0" len="72" vol="91" />
          <note key="60" pos="912" pan="0" len="24" vol="81" />
          <note key="60" pos="960" pan="0" len="36" vol="75" />
          <note key="60" pos="1032" pan="0" len="72" vol="66" />
          <note key="60" pos="1104" pan="0" len="24" vol="56" />
          <note key="60" pos="1152" pan="0" len="36" vol="50" />
          <note key="60" pos="1224" pan="0" len="72" vol="41" />
          <note key="60" pos="1296" pan="0" len="24" vol="31" />
          <note key="60" pos="1344" pan="0" len="36" vol="25" />
          <note key="60" pos="1416" pan="0" len="72" vol="16" />
          <note key="60" pos="1488" pan="0" len="24" vol="6" />
        </pattern>
        <pattern pos="7680" muted="0" steps="16" name="" type="1">
          <note key="60" pos="0" pan="0" len="48" vol="100" />
          <note key="60" pos="48" pan="0" len="48" vol="100" />
          <note key="60" pos="96" pan="0" len="48" vol="100" />
          <note key="60" pos="144" pan="0" len="48" vol="100" />
          <note key="60" pos="192" pan="0" len="48" vol="100" />
          <note key="60" pos="240" pan="0" len="48" vol="100" />
          <note key="60" pos="288" pan="0" len="48" vol="100" />
          <note key="60" pos="336" pan="0" len="48" vol="100" />
          <note key="60" pos="384" pan="0" len="48" vol="100" />
          <note key="60" pos="432" pan="0" len="48" vol="100" />
          <note key="60" pos="480" pan="0" len="48" vol="100" />
          <note key="60" pos="528" pan="0" len="48" vol="100" />
          <note key="60" pos="576" pan="0" len="48" vol="100" />
          <note key="60" pos="624" pan="0" len="48" vol="100" />
          <note key="60" pos="672" pan="0" len="48" vol="100" />
          <note key="60" pos="720" pan="0" len="48" vol="100" />
        </pattern>
        <pattern pos="8448" muted="0" steps="16" name="" type="1">
          <note key="60" pos="0" pan="0" len="48" vol="100" />
          <note key="60" pos="48" pan="0" len="48" vol="100" />
          <note key="60" pos="96" pan="0" len="48" vol="100" />
          <note key="60" pos="144" pan="0" len="48" vol="100" />
          <note key="60" pos="192" pan="0" len="48" vol="100" />
          <note key="60" pos="240" pan="0" len="48" vol="100" />
          <note key="60" pos="288" pan="0" len="48" vol="100" />
          <note key="60" pos="336" pan="0" len="48" vol="100" />
          <note key="60" pos="384" pan="0" len="48" vol="100" />
          <note key="60" pos="432" pan="0" len="48" vol="100" />
          <note key="60" pos="480" pan="0" len="48" vol="100" />
          <note key="60" pos="528" pan="0" len="48" vol="100" />
          <note key="60" pos="576" pan="0" len="48" vol="100" />
          <note key="60" pos="624" pan="0" len="48" vol="100" />
          <note key="60" pos="672" pan="0" len="48" vol="100" />
          <note key="60" pos="720" pan="0" len="48" vol="100" />
        </pattern>
        <pattern pos="9216" muted="0" steps="16" name="" type="1">
          <note key="60" pos="0" pan="0" len="48" vol="100" />
          <note key="60" pos="48" pan="0" len="48" vol="100" />
          <note key="60" pos="96" pan="0" len="48" vol="100" />
          <note key="60" pos="144" pan="0" len="48" vol="100" />
          <note key="60" pos="192" pan="0" len="48" vol="100" />
          <note key="60" pos="240" pan="0" len="48" vol="100" />
          <note key="60" pos="288" pan="0" len="48" vol="100" />
          <note key="60" pos="336" pan="0" len="48" vol="100" />
          <note key="60" pos="384" pan="0" len="48" vol="100" />
          <note key="60" pos="432" pan="0" len="48" vol="100" />
          <note key="60" pos="480" pan="0" len="48" vol="100" />
          <note key="60" pos="528" pan="0" len="48" vol="100" />
          <note key="60" pos="576" pan="0" len="48" vol="100" />
          <note key="60" pos="624" pan="0" len="48" vol="100" />
          <note key="60" pos="672" pan="0" len="48" vol="100" />
          <note key="60" pos="720" pan="0" len="48" vol="100" />
        </pattern>
        <pattern pos="9984" muted="0" steps="16" name="" type="1">
          <note key="60" pos="0" pan="0" len="48" vol="100" />
          <note key="60" pos="48" pan="0" len="48" vol="100" />
          <note key="60" pos="96" pan="0" len="48" vol="100" />
          <note key="60" pos="144" pan="0" len="48" vol="100" />
          <note key="60" pos="192" pan="0" len="48" vol="100" />
          <note key="60" pos="240" pan="0" len="48" vol="100" />
          <note key="60" pos="288" pan="0" len="48" vol="100" />
          <note key="60" pos="336" pan="0" len="48" vol="100" />
          <note key="60" pos="384" pan="0" len="48" vol="100" />
          <note key="60" pos="432" pan="0" len="48" vol="100" />
          <note key="60" pos="480" pan="0" len="48" vol="100" />
          <note key="60" pos="528" pan="0" len="48" vol="100" />
          <note key="60" pos="576" pan="0" len="48" vol="100" />
          <note key="60" pos="624" pan="0" len="48" vol="100" />
          <note key="60" pos="672" pan="0" len="48" vol="100" />
          <note key="60" pos="720" pan="0" len="48" vol="100" />
        </pattern>
        <pattern pos="10752" muted="0" steps="16" name="" type="1">
          <note key="60" pos="0" pan="0" len="48" vol="100" />
          <note key="60" pos="48" pan="0" len="48" vol="100" />
          <note key="60" pos="96" pan="0" len="48" vol="100" />
          <note key="60" pos="144" pan="0" len="48" vol="100" />
          <note key="60" pos="192" pan="0" len="48" vol="100" />
          <note key="60" pos="240" pan="0" len="48" vol="100" />
          <note key="60" pos="288" pan="0" len="48" vol="100" />
          <note key="60" pos="336" pan="0" len="48" vol="100" />
          <note key="60" pos="384" pan="0" len="48" vol="100" />
          <note key="60" pos="432" pan="0" len="48" vol="100" />
          <note key="60" pos="480" pan="0" len="48" vol="100" />
          <note key="60" pos="528" pan="0" len="48" vol="100" />
          <note key="60" pos="576" pan="0" len="48" vol="100" />
          <note key="60" pos="624" pan="0" len="48" vol="100" />
          <note key="60" pos="672" pan="0" len="48" vol="100" />
          <note key="60" pos="720" pan="0" len="48" vol="100" />
        </pattern>
        <pattern pos="11520" muted="0" steps="16" name="" type="1">
          <note key="60" pos="0" pan="0" len="48" vol="100" />
          <note key="60" pos="48" pan="0" len="48" vol="100" />
          <note key="60" pos="96" pan="0" len="48" vol="100" />
          <note key="60" pos="144" pan="0" len="48" vol="100" />
          <note key="60" pos="192" pan="0" len="48" vol="100" />
          <note key="60" pos="240" pan="0" len="48" vol="100" />
          <note key="60" pos="288" pan="0" len="48" vol="100" />
          <note key="60" pos="336" pan="0" len="48" vol="100" />
          <note key="60" pos="384" pan="0" len="48" vol="100" />
          <note key="60" pos="432" pan="0" len="48" vol="100" />
          <note key="60" pos="480" pan="0" len="48" vol="100" />
          <note key="60" pos="528" pan="0" len="48" vol="100" />
          <note key="60" pos="576" pan="0" len="48" vol="100" />
          <note key="60" pos="624" pan="0" len="48" vol="100" />
          <note key="60" pos="672" pan="0" len="48" vol="100" />
          <note key="60" pos="720" pan="0" len="48" vol="100" />
          <note key="60" pos="768" pan="0" len="48" vol="100" />
          <note key="60" pos="816" pan="0" len="48" vol="100" />
          <note key="60" pos="864" pan="0" len="48" vol="100" />
          <note key="60" pos="912" pan="0" len="48" vol="100" />
          <note key="60" pos="960" pan="0" len="48" vol="100" />
          <note key="60" pos="1008" pan="0" len="48" vol="100" />
          <note key="60" pos="1056" pan="0" len="48" vol="100" />
          <note key="60" pos="1104" pan="0" len="48" vol="100" />
          <note key="60" pos="1152" pan="0" len="48" vol="100" />
          <note key="60" pos="1200" pan="0" len="48" vol="100" />
          <note key="60" pos="1248" pan="0" len="48" vol="100" />
          <note key="60" pos="1296" pan="0" len="48" vol="100" />
          <note key="60" pos="1344" pan="0" len="48" vol="100" />
          <note key="60" pos="1392" pan="0" len="48" vol="100" />
          <note key="60" pos="1440" pan="0" len="48" vol="100" />
          <note key="60" pos="1488" pan="0" len="48" vol="100" />
        </pattern>
        <pattern pos="13056" muted="0" steps="16" name="" type="1">
          <note key="60" pos="0" pan="0" len="48" vol="100" />
          <note key="60" pos="48" pan="0" len="48" vol="100" />
          <note key="60" pos="96" pan="0" len="48" vol="100" />
          <note key="60" pos="144" pan="0" len="48" vol="100" />
          <note key="60" pos="192" pan="0" len="48" vol="100" />
          <note key="60" pos="240" pan="0" len="48" vol="100" />
          <note key="60" pos="288" pan="0" len="48" vol="100" />
          <note key="60" pos="336" pan="0" len="48" vol="100" />
          <note key="60" pos="384" pan="0" len="48" vol="100" />
          <note key="60" pos="432" pan="0" len="48" vol="100" />
          <note key="60" pos="480" pan="0" len="48" vol="100" />
          <note key="60" pos="528" pan="0" len="48" vol="100" />
          <note key="60" pos="576" pan="0" len="48" vol="100" />
          <note key="60" pos="624" pan="0" len="48" vol="100" />
          <note key="60" pos="672" pan="0" len="48" vol="100" />
          <note key="60" pos="720" pan="0" len="48" vol="100" />
          <note key="60" pos="768" pan="0" len="48" vol="100" />
          <note key="60" pos="816" pan="0" len="48" vol="100" />
          <note key="60" pos="864" pan="0" len="48" vol="100" />
          <note key="60" pos="912" pan="0" len="48" vol="100" />
          <note key="60" pos="960" pan="0" len="48" vol="100" />
          <note key="60" pos="1008" pan="0" len="48" vol="100" />
          <note key="60" pos="1056" pan="0" len="48" vol="100" />
          <note key="60" pos="1104" pan="0" len="48" vol="100" />
          <note key="60" pos="1152" pan="0" len="48" vol="100" />
          <note key="60" pos="1200" pan="0" len="48" vol="100" />
          <note key="60" pos="1248" pan="0" len="48" vol="100" />
          <note key="60" pos="1296" pan="0" len="48" vol="100" />
          <note key="60" pos="1344" pan="0" len="48" vol="100" />
          <note key="60" pos="1392" pan="0" len="48" vol="100" />
          <note key="60" pos="1440" pan="0" len="48" vol="100" />
          <note key="60" pos="1488" pan="0" len="48" vol="100" />
        </pattern>
        <pattern pos="14592" muted="0" steps="16" name="" type="1">
          <note key="60" pos="0" pan="0" len="48" vol="100" />
          <note key="60" pos="48" pan="0" len="48" vol="100" />
          <note key="60" pos="96" pan="0" len="48" vol="100" />
          <note key="60" pos="144" pan="0" len="48" vol="100" />
          <note key="60" pos="192" pan="0" len="48" vol="100" />
          <note key="60" pos="240" pan="0" len="48" vol="100" />
          <note key="60" pos="288" pan="0" len="48" vol="100" />
          <note key="60" pos="336" pan="0" len="48" vol="100" />
          <note key="60" pos="384" pan="0" len="48" vol="100" />
          <note key="60" pos="432" pan="0" len="48" vol="100" />
          <note key="60" pos="480" pan="0" len="48" vol="100" />
          <note key="60" pos="528" pan="0" len="48" vol="100" />
          <note key="60" pos="576" pan="0" len="48" vol="100" />
          <note key="60" pos="624" pan="0" len="48" vol="100" />
          <note key="60" pos="672" pan="0" len="48" vol="100" />
          <note key="60" pos="720" pan="0" len="48" vol="100" />
          <note key="60" pos="768" pan="0" len="48" vol="100" />
          <note key="60" pos="816" pan="0" len="48" vol="100" />
          <note key="60" pos="864" pan="0" len="48" vol="100" />
          <note key="60" pos="912" pan="0" len="48" vol="100" />
          <note key="60" pos="960" pan="0" len="48" vol="100" />
          <note key="60" pos="1008" pan="0" len="48" vol="100" />
          <note key="60" pos="1056" pan="0" len="48" vol="100" />
          <note key="60" pos="1104" pan="0" len="48" vol="100" />
          <note key="60" pos="1152" pan="0" len="48" vol="100" />
          <note key="60" pos="1200" pan="0" len="48" vol="100" />
          <note key="60" pos="1248" pan="0" len="48" vol="100" />
          <note key="60" pos="1296" pan="0" len="48" vol="100" />
          <note key="60" pos="1344" pan="0" len="48" vol="100" />
          <note key="60" pos="1392" pan="0" len="48" vol="100" />
          <note key="60" pos="1440" pan="0" len="48" vol="100" />
          <note key="60" pos="1488" pan="0" len="48" vol="100" />
        </pattern>
        <pattern pos="16128" muted="0" steps="16" name="" type="1">
          <note key="60" pos="0" pan="0" len="48" vol="100" />
          <note key="60" pos="48" pan="0" len="48" vol="100" />
          <note key="60" pos="96" pan="0" len="48" vol="100" />
          <note key="60" pos="144" pan="0" len="48" vol="100" />
          <note key="60" pos="192" pan="0" len="48" vol="100" />
          <note key="60" pos="240" pan="0" len="48" vol="100" />
          <note key="60" pos="288" pan="0" len="48" vol="100" />
          <note key="60" pos="336" pan="0" len="48" vol="100" />
          <note key="60" pos="384" pan="0" len="48" vol="100" />
          <note key="60" pos="432" pan="0" len="48" vol="100" />
          <note key="60" pos="480" pan="0" len="48" vol="100" />
          <note key="60" pos="528" pan="0" len="48" vol="100" />
          <note key="60" pos="576" pan="0" len="48" vol="100" />
          <note key="60" pos="624" pan="0" len="48" vol="100" />
          <note key="60" pos="672" pan="0" len="48" vol="100" />
          <note key="60" pos="720" pan="0" len="48" vol="100" />
          <note key="60" pos="768" pan="0" len="48" vol="100" />
          <note key="60" pos="816" pan="0" len="48" vol="100" />
          <note key="60" pos="864" pan="0" len="48" vol="100" />
          <note key="60" pos="912" pan="0" len="48" vol="100" />
          <note key="60" pos="960" pan="0" len="48" vol="100" />
          <note key="60" pos="1008" pan="0" len="48" vol="100" />
          <note key="60" pos="1056" pan="0" len="48" vol="100" />
          <note key="60" pos="1104" pan="0" len="48" vol="100" />
          <note key="60" pos="1152" pan="0" len="48" vol="100" />
          <note key="60" pos="1200" pan="0" len="48" vol="100" />
          <note key="60" pos="1248" pan="0" len="48" vol="100" />
          <note key="60" pos="1296" pan="0" len="48" vol="100" />
          <note key="60" pos="1344" pan="0" len="48" vol="100" />
          <note key="60" pos="1392" pan="0" len="48" vol="100" />
          <note key="60" pos="1440" pan="0" len="48" vol="100" />
          <note key="60" pos="1488" pan="0" len="48" vol="100" />
        </pattern>
        <pattern pos="95232" muted="0" steps="16" name="" type="1">
          <note key="60" pos="0" pan="0" len="72" vol="100" />
          <note key="60" pos="144" pan="0" len="144" vol="100" />
          <note key="60" pos="288" pan="0" len="48" vol="100" />
          <note key="60" pos="384" pan="0" len="72" vol="100" />
          <note key="60" pos="528" pan="0" len="144" vol="100" />
          <note key="60" pos="672" pan="0" len="48" vol="100" />
          <note key="60" pos="768" pan="0" len="72" vol="100" />
          <note key="60" pos="840" pan="0" len="72" vol="100" />
          <note key="60" pos="912" pan="0" len="144" vol="100" />
          <note key="60" pos="1056" pan="0" len="96" vol="100" />
          <note key="60" pos="1152" pan="0" len="72" vol="100" />
          <note key="60" pos="1224" pan="0" len="72" vol="100" />
          <note key="60" pos="1296" pan="0" len="144" vol="100" />
          <note key="60" pos="1440" pan="0" len="96" vol="100" />
        </pattern>
        <pattern pos="96768" muted="0" steps="16" name="" type="1">
          <note key="60" pos="0" pan="0" len="72" vol="100" />
          <note key="60" pos="144" pan="0" len="144" vol="100" />
          <note key="60" pos="288" pan="0" len="48" vol="100" />
          <note key="60" pos="384" pan="0" len="72" vol="100" />
          <note key="60" pos="528" pan="0" len="144" vol="100" />
          <note key="60" pos="672" pan="0" len="48" vol="100" />
          <note key="60" pos="768" pan="0" len="72" vol="100" />
          <note key="60" pos="840" pan="0" len="72" vol="100" />
          <note key="60" pos="912" pan="0" len="144" vol="100" />
          <note key="60" pos="1056" pan="0" len="96" vol="100" />
          <note key="60" pos="1152" pan="0" len="72" vol="100" />
          <note key="60" pos="1224" pan="0" len="72" vol="100" />
          <note key="60" pos="1296" pan="0" len="144" vol="100" />
          <note key="60" pos="1440" pan="0" len="96" vol="100" />
        </pattern>
        <pattern pos="98304" muted="0" steps="16" name="" type="1">
          <note key="60" pos="0" pan="0" len="72" vol="100" />
          <note key="60" pos="144" pan="0" len="144" vol="100" />
          <note key="60" pos="288" pan="0" len="48" vol="100" />
          <note key="60" pos="384" pan="0" len="72" vol="100" />
          <note key="60" pos="528" pan="0" len="144" vol="100" />
          <note key="60" pos="672" pan="0" len="48" vol="100" />
          <note key="60" pos="768" pan="0" len="72" vol="100" />
          <note key="60" pos="840" pan="0" len="72" vol="100" />
          <note key="60" pos="912" pan="0" len="144" vol="100" />
          <note key="60" pos="1056" pan="0" len="96" vol="100" />
          <note key="60" pos="1152" pan="0" len="72" vol="100" />
          <note key="60" pos="1224" pan="0" len="72" vol="100" />
          <note key="60" pos="1296" pan="0" len="144" vol="100" />
          <note key="60" pos="1440" pan="0" len="96" vol="100" />
        </pattern>
        <pattern pos="99840" muted="0" steps="16" name="" type="1">
          <note key="60" pos="0" pan="0" len="72" vol="100" />
          <note key="60" pos="144" pan="0" len="144" vol="100" />
          <note key="60" pos="288" pan="0" len="48" vol="100" />
          <note key="60" pos="384" pan="0" len="72" vol="100" />
          <note key="60" pos="528" pan="0" len="144" vol="100" />
          <note key="60" pos="672" pan="0" len="48" vol="100" />
          <note key="60" pos="768" pan="0" len="72" vol="100" />
          <note key="60" pos="840" pan="0" len="72" vol="100" />
          <note key="60" pos="912" pan="0" len="144" vol="100" />
          <note key="60" pos="1056" pan="0" len="96" vol="100" />
          <note key="60" pos="1152" pan="0" len="72" vol="100" />
          <note key="60" pos="1224" pan="0" len="72" vol="100" />
          <note key="60" pos="1296" pan="0" len="144" vol="100" />
          <note key="60" pos="1440" pan="0" len="96" vol="100" />
        </pattern>
        <pattern pos="101376" muted="0" steps="16" name="" type="1">
          <note key="59" pos="0" pan="0" len="72" vol="100" />
          <note key="59" pos="144" pan="0" len="144" vol="100" />
          <note key="59" pos="288" pan="0" len="48" vol="100" />
          <note key="59" pos="384" pan="0" len="72" vol="100" />
          <note key="59" pos="528" pan="0" len="144" vol="100" />
          <note key="59" pos="672" pan="0" len="48" vol="100" />
          <note key="59" pos="768" pan="0" len="72" vol="100" />
          <note key="59" pos="840" pan="0" len="72" vol="100" />
          <note key="59" pos="912" pan="0" len="144" vol="100" />
          <note key="59" pos="1056" pan="0" len="96" vol="100" />
          <note key="59" pos="1152" pan="0" len="72" vol="100" />
          <note key="59" pos="1224" pan="0" len="72" vol="100" />
          <note key="59" pos="1296" pan="0" len="144" vol="100" />
          <note key="59" pos="1440" pan="0" len="96" vol="100" />
        </pattern>
        <pattern pos="102912" muted="0" steps="16" name="" type="1">
          <note key="60" pos="0" pan="0" len="72" vol="100" />
          <note key="60" pos="144" pan="0" len="144" vol="100" />
          <note key="60" pos="288" pan="0" len="48" vol="100" />
          <note key="60" pos="384" pan="0" len="72" vol="100" />
          <note key="60" pos="528" pan="0" len="144" vol="100" />
          <note key="60" pos="672" pan="0" len="48" vol="100" />
          <note key="60" pos="768" pan="0" len="72" vol="100" />
          <note key="60" pos="840" pan="0" len="72" vol="100" />
          <note key="60" pos="912" pan="0" len="144" vol="100" />
          <note key="60" pos="1056" pan="0" len="96" vol="100" />
          <note key="60" pos="1152" pan="0" len="72" vol="100" />
          <note key="60" pos="1224" pan="0" len="72" vol="100" />
          <note key="60" pos="1296" pan="0" len="144" vol="100" />
          <note key="60" pos="1440" pan="0" len="96" vol="100" />
        </pattern>
        <pattern pos="104448" muted="0" steps="16" name="" type="1">
          <note key="60" pos="0" pan="0" len="1536" vol="100" />
        </pattern>
        <pattern pos="105984" muted="0" steps="16" name="" type="1">
          <note key="60" pos="0" pan="0" len="72" vol="2" />
          <note key="60" pos="144" pan="0" len="144" vol="11" />
          <note key="60" pos="288" pan="0" len="48" vol="20" />
          <note key="60" pos="384" pan="0" len="72" vol="27" />
          <note key="60" pos="528" pan="0" len="144" vol="36" />
          <note key="60" pos="672" pan="0" len="48" vol="45" />
          <note key="60" pos="768" pan="0" len="72" vol="52" />
          <note key="60" pos="840" pan="0" len="72" vol="56" />
          <note key="60" pos="912" pan="0" len="144" vol="61" />
          <note key="60" pos="1056" pan="0" len="96" vol="70" />
          <note key="60" pos="1152" pan="0" len="72" vol="77" />
          <note key="60" pos="1224" pan="0" len="72" vol="81" />
          <note key="60" pos="1296" pan="0" len="144" vol="86" />
          <note key="60" pos="1440" pan="0" len="96" vol="95" />
        </pattern>
        <pattern pos="107520" muted="0" steps="16" name="" type="1">
          <note key="60" pos="0" pan="0" len="72" vol="100" />
          <note key="60" pos="144" pan="0" len="144" vol="100" />
          <note key="60" pos="288" pan="0" len="48" vol="100" />
          <note key="60" pos="384" pan="0" len="72" vol="100" />
          <note key="60" pos="528" pan="0" len="144" vol="100" />
          <note key="60" pos="672" pan="0" len="48" vol="100" />
          <note key="60" pos="768" pan="0" len="72" vol="100" />
          <note key="60" pos="840" pan="0" len="72" vol="100" />
          <note key="60" pos="912" pan="0" len="144" vol="100" />
          <note key="60" pos="1056" pan="0" len="96" vol="100" />
          <note key="60" pos="1152" pan="0" len="72" vol="100" />
          <note key="60" pos="1224" pan="0" len="72" vol="100" />
          <note key="60" pos="1296" pan="0" len="144" vol="100" />
          <note key="60" pos="1440" pan="0" len="96" vol="100" />
        </pattern>
        <pattern pos="109056" muted="0" steps="16" name="" type="1">
          <note key="60" pos="0" pan="0" len="72" vol="100" />
          <note key="60" pos="144" pan="0" len="144" vol="100" />
          <note key="60" pos="288" pan="0" len="48" vol="100" />
          <note key="60" pos="384" pan="0" len="72" vol="100" />
          <note key="60" pos="528" pan="0" len="144" vol="100" />
          <note key="60" pos="672" pan="0" len="48" vol="100" />
          <note key="60" pos="768" pan="0" len="72" vol="100" />
          <note key="60" pos="840" pan="0" len="72" vol="100" />
          <note key="60" pos="912" pan="0" len="144" vol="100" />
          <note key="60" pos="1056" pan="0" len="96" vol="100" />
          <note key="60" pos="1152" pan="0" len="72" vol="100" />
          <note key="60" pos="1224" pan="0" len="72" vol="100" />
          <note key="60" pos="1296" pan="0" len="144" vol="100" />
          <note key="60" pos="1440" pan="0" len="96" vol="100" />
        </pattern>
        <pattern pos="110592" muted="0" steps="16" name="" type="1">
          <note key="61" pos="0" pan="0" len="72" vol="100" />
          <note key="61" pos="144" pan="0" len="144" vol="100" />
          <note key="61" pos="288" pan="0" len="48" vol="100" />
          <note key="61" pos="384" pan="0" len="72" vol="100" />
          <note key="61" pos="528" pan="0" len="144" vol="100" />
          <note key="61" pos="672" pan="0" len="48" vol="100" />
          <note key="61" pos="768" pan="0" len="72" vol="100" />
          <note key="61" pos="840" pan="0" len="72" vol="100" />
          <note key="61" pos="912" pan="0" len="144" vol="100" />
          <note key="61" pos="1056" pan="0" len="96" vol="100" />
          <note key="61" pos="1152" pan="0" len="72" vol="100" />
          <note key="61" pos="1224" pan="0" len="72" vol="100" />
          <note key="61" pos="1296" pan="0" len="144" vol="100" />
          <note key="61" pos="1440" pan="0" len="96" vol="100" />
        </pattern>
        <pattern pos="112128" muted="0" steps="16" name="" type="1">
          <note key="61" pos="0" pan="0" len="72" vol="100" />
          <note key="61" pos="144" pan="0" len="144" vol="100" />
          <note key="61" pos="288" pan="0" len="48" vol="100" />
          <note key="61" pos="384" pan="0" len="72" vol="100" />
          <note key="61" pos="528" pan="0" len="144" vol="100" />
          <note key="61" pos="672" pan="0" len="48" vol="100" />
          <note key="61" pos="768" pan="0" len="72" vol="100" />
          <note key="61" pos="840" pan="0" len="72" vol="100" />
          <note key="61" pos="912" pan="0" len="144" vol="100" />
          <note key="61" pos="1056" pan="0" len="96" vol="100" />
          <note key="61" pos="1152" pan="0" len="72" vol="100" />
          <note key="61" pos="1224" pan="0" len="72" vol="100" />
          <note key="61" pos="1296" pan="0" len="144" vol="100" />
          <note key="61" pos="1440" pan="0" len="96" vol="100" />
        </pattern>
        <pattern pos="116736" muted="0" steps="16" name="" type="1">
          <note key="60" pos="0" pan="0" len="24" vol="100" />
          <note key="60" pos="24" pan="0" len="72" vol="100" />
          <note key="60" pos="240" pan="0" len="48" vol="100" />
          <note key="60" pos="384" pan="0" len="24" vol="100" />
          <note key="60" pos="408" pan="0" len="72" vol="100" />
          <note key="60" pos="624" pan="0" len="48" vol="100" />
          <note key="60" pos="768" pan="0" len="24" vol="100" />
          <note key="60" pos="792" pan="0" len="72" vol="100" />
          <note key="60" pos="1008" pan="0" len="48" vol="100" />
          <note key="60" pos="1152" pan="0" len="24" vol="100" />
          <note key="60" pos="1176" pan="0" len="72" vol="100" />
          <note key="60" pos="1392" pan="0" len="48" vol="100" />
        </pattern>
        <pattern pos="118272" muted="0" steps="16" name="" type="1">
          <note key="60" pos="0" pan="0" len="24" vol="100" />
          <note key="60" pos="24" pan="0" len="72" vol="100" />
          <note key="60" pos="240" pan="0" len="48" vol="100" />
          <note key="60" pos="384" pan="0" len="24" vol="100" />
          <note key="60" pos="408" pan="0" len="72" vol="100" />
          <note key="60" pos="624" pan="0" len="48" vol="100" />
          <note key="60" pos="768" pan="0" len="24" vol="100" />
          <note key="60" pos="792" pan="0" len="72" vol="100" />
          <note key="60" pos="1008" pan="0" len="48" vol="100" />
          <note key="60" pos="1152" pan="0" len="24" vol="100" />
          <note key="60" pos="1176" pan="0" len="72" vol="100" />
          <note key="60" pos="1392" pan="0" len="48" vol="100" />
        </pattern>
        <pattern pos="121344" muted="0" steps="16" name="" type="1">
          <note key="60" pos="1392" pan="0" len="48" vol="100" />
        </pattern>
        <pattern pos="122880" muted="0" steps="16" name="" type="1">
          <note key="60" pos="0" pan="0" len="72" vol="100" />
          <note key="60" pos="144" pan="0" len="144" vol="100" />
          <note key="60" pos="288" pan="0" len="48" vol="100" />
          <note key="60" pos="384" pan="0" len="72" vol="100" />
          <note key="60" pos="528" pan="0" len="144" vol="100" />
          <note key="60" pos="672" pan="0" len="48" vol="100" />
          <note key="60" pos="768" pan="0" len="72" vol="100" />
          <note key="60" pos="840" pan="0" len="72" vol="100" />
          <note key="60" pos="912" pan="0" len="144" vol="100" />
          <note key="60" pos="1056" pan="0" len="96" vol="100" />
          <note key="60" pos="1152" pan="0" len="72" vol="100" />
          <note key="60" pos="1224" pan="0" len="72" vol="100" />
          <note key="60" pos="1296" pan="0" len="144" vol="100" />
          <note key="60" pos="1440" pan="0" len="96" vol="100" />
        </pattern>
        <pattern pos="124416" muted="0" steps="16" name="" type="1">
          <note key="60" pos="0" pan="0" len="72" vol="100" />
          <note key="60" pos="144" pan="0" len="144" vol="100" />
          <note key="60" pos="288" pan="0" len="48" vol="100" />
          <note key="60" pos="384" pan="0" len="72" vol="100" />
          <note key="60" pos="528" pan="0" len="144" vol="100" />
          <note key="60" pos="672" pan="0" len="48" vol="100" />
          <note key="60" pos="768" pan="0" len="72" vol="100" />
          <note key="60" pos="840" pan="0" len="72" vol="100" />
          <note key="60" pos="912" pan="0" len="144" vol="100" />
          <note key="60" pos="1056" pan="0" len="96" vol="100" />
          <note key="60" pos="1152" pan="0" len="72" vol="100" />
          <note key="60" pos="1224" pan="0" len="72" vol="100" />
          <note key="60" pos="1296" pan="0" len="144" vol="100" />
          <note key="60" pos="1440" pan="0" len="96" vol="100" />
        </pattern>
        <pattern pos="125952" muted="0" steps="16" name="" type="1">
          <note key="60" pos="0" pan="0" len="72" vol="100" />
          <note key="60" pos="144" pan="0" len="144" vol="100" />
          <note key="60" pos="288" pan="0" len="48" vol="100" />
          <note key="60" pos="384" pan="0" len="72" vol="100" />
          <note key="60" pos="528" pan="0" len="144" vol="100" />
          <note key="60" pos="672" pan="0" len="48" vol="100" />
          <note key="60" pos="768" pan="0" len="72" vol="100" />
          <note key="60" pos="912" pan="0" len="144" vol="100" />
          <note key="60" pos="1056" pan="0" len="48" vol="100" />
          <note key="60" pos="1152" pan="0" len="72" vol="100" />
          <note key="60" pos="1296" pan="0" len="144" vol="100" />
          <note key="60" pos="1440" pan="0" len="48" vol="100" />
        </pattern>
        <pattern pos="127488" muted="0" steps="16" name="" type="1">
          <note key="60" pos="0" pan="0" len="72" vol="100" />
          <note key="60" pos="144" pan="0" len="144" vol="100" />
          <note key="60" pos="288" pan="0" len="48" vol="100" />
          <note key="60" pos="384" pan="0" len="72" vol="100" />
          <note key="60" pos="528" pan="0" len="144" vol="100" />
          <note key="60" pos="672" pan="0" len="48" vol="100" />
          <note key="60" pos="768" pan="0" len="72" vol="100" />
          <note key="60" pos="912" pan="0" len="144" vol="100" />
          <note key="60" pos="1056" pan="0" len="48" vol="100" />
          <note key="60" pos="1152" pan="0" len="72" vol="100" />
          <note key="60" pos="1296" pan="0" len="144" vol="100" />
          <note key="60" pos="1440" pan="0" len="48" vol="100" />
        </pattern>
        <pattern pos="129024" muted="0" steps="16" name="" type="1">
          <note key="60" pos="0" pan="0" len="72" vol="100" />
          <note key="60" pos="144" pan="0" len="144" vol="100" />
          <note key="60" pos="288" pan="0" len="48" vol="100" />
          <note key="60" pos="384" pan="0" len="72" vol="100" />
          <note key="60" pos="528" pan="0" len="144" vol="100" />
          <note key="60" pos="672" pan="0" len="48" vol="100" />
          <note key="60" pos="768" pan="0" len="72" vol="100" />
          <note key="60" pos="840" pan="0" len="72" vol="100" />
          <note key="60" pos="912" pan="0" len="144" vol="100" />
          <note key="60" pos="1056" pan="0" len="96" vol="100" />
          <note key="60" pos="1152" pan="0" len="72" vol="100" />
          <note key="60" pos="1224" pan="0" len="72" vol="100" />
          <note key="60" pos="1296" pan="0" len="144" vol="100" />
          <note key="60" pos="1440" pan="0" len="96" vol="100" />
        </pattern>
        <pattern pos="130560" muted="0" steps="16" name="" type="1">
          <note key="60" pos="0" pan="0" len="72" vol="100" />
          <note key="60" pos="144" pan="0" len="144" vol="100" />
          <note key="60" pos="288" pan="0" len="48" vol="100" />
          <note key="60" pos="384" pan="0" len="72" vol="100" />
          <note key="60" pos="528" pan="0" len="144" vol="100" />
          <note key="60" pos="672" pan="0" len="48" vol="100" />
          <note key="60" pos="768" pan="0" len="72" vol="100" />
          <note key="60" pos="840" pan="0" len="72" vol="100" />
          <note key="60" pos="912" pan="0" len="144" vol="100" />
          <note key="60" pos="1056" pan="0" len="96" vol="100" />
          <note key="60" pos="1152" pan="0" len="72" vol="100" />
          <note key="60" pos="1224" pan="0" len="72" vol="100" />
          <note key="60" pos="1296" pan="0" len="144" vol="100" />
          <note key="60" pos="1440" pan="0" len="96" vol="100" />
        </pattern>
        <pattern pos="132096" muted="0" steps="16" name="" type="1">
          <note key="60" pos="0" pan="0" len="72" vol="100" />
          <note key="60" pos="144" pan="0" len="144" vol="100" />
          <note key="60" pos="288" pan="0" len="48" vol="100" />
          <note key="60" pos="384" pan="0" len="72" vol="100" />
          <note key="60" pos="528" pan="0" len="144" vol="100" />
          <note key="60" pos="672" pan="0" len="48" vol="100" />
          <note key="60" pos="768" pan="0" len="72" vol="100" />
          <note key="60" pos="840" pan="0" len="72" vol="100" />
          <note key="60" pos="912" pan="0" len="144" vol="100" />
          <note key="60" pos="1056" pan="0" len="96" vol="100" />
          <note key="60" pos="1152" pan="0" len="72" vol="100" />
          <note key="60" pos="1224" pan="0" len="72" vol="100" />
          <note key="60" pos="1296" pan="0" len="144" vol="100" />
          <note key="60" pos="1440" pan="0" len="96" vol="100" />
        </pattern>
        <pattern pos="133632" muted="0" steps="16" name="" type="1">
          <note key="60" pos="0" pan="0" len="72" vol="100" />
          <note key="60" pos="144" pan="0" len="144" vol="100" />
          <note key="60" pos="288" pan="0" len="48" vol="100" />
          <note key="60" pos="384" pan="0" len="72" vol="100" />
          <note key="60" pos="528" pan="0" len="144" vol="100" />
          <note key="60" pos="672" pan="0" len="48" vol="100" />
          <note key="60" pos="768" pan="0" len="72" vol="100" />
          <note key="60" pos="840" pan="0" len="72" vol="100" />
          <note key="60" pos="912" pan="0" len="144" vol="100" />
          <note key="60" pos="1056" pan="0" len="96" vol="100" />
          <note key="60" pos="1152" pan="0" len="72" vol="100" />
          <note key="60" pos="1224" pan="0" len="72" vol="100" />
          <note key="60" pos="1296" pan="0" len="144" vol="100" />
          <note key="60" pos="1440" pan="0" len="24" vol="100" />
        </pattern>
        <pattern pos="135168" muted="0" steps="16" name="" type="1">
          <note key="60" pos="0" pan="0" len="36" vol="100" />
          <note key="60" pos="72" pan="0" len="72" vol="100" />
          <note key="60" pos="144" pan="0" len="24" vol="100" />
          <note key="60" pos="192" pan="0" len="36" vol="100" />
          <note key="60" pos="264" pan="0" len="72" vol="100" />
          <note key="60" pos="336" pan="0" len="24" vol="100" />
          <note key="60" pos="384" pan="0" len="36" vol="100" />
          <note key="60" pos="456" pan="0" len="72" vol="100" />
          <note key="60" pos="528" pan="0" len="24" vol="100" />
          <note key="60" pos="576" pan="0" len="36" vol="100" />
          <note key="60" pos="648" pan="0" len="72" vol="100" />
          <note key="60" pos="720" pan="0" len="24" vol="100" />
          <note key="60" pos="768" pan="0" len="36" vol="100" />
          <note key="60" pos="840" pan="0" len="72" vol="100" />
          <note key="60" pos="912" pan="0" len="24" vol="100" />
          <note key="60" pos="960" pan="0" len="36" vol="100" />
          <note key="60" pos="1032" pan="0" len="72" vol="100" />
          <note key="60" pos="1104" pan="0" len="24" vol="100" />
          <note key="60" pos="1152" pan="0" len="36" vol="100" />
          <note key="60" pos="1224" pan="0" len="72" vol="100" />
          <note key="60" pos="1296" pan="0" len="24" vol="100" />
          <note key="60" pos="1344" pan="0" len="36" vol="100" />
          <note key="60" pos="1416" pan="0" len="72" vol="100" />
          <note key="60" pos="1488" pan="0" len="24" vol="100" />
        </pattern>
      </track>
      <track solo="0" name="25 (Ch3)" type="0" muted="0">
        <instrumenttrack usemasterpitch="1" pitch="0.0" basenote="57" pan="0" pitchrange="12" vol="30">
          <eldata />
          <instrument name="tripleoscillator" />
        </instrumenttrack>
        <pattern pos="161280" muted="0" steps="16" name="" type="1">
          <note key="60" pos="0" pan="0" len="96" vol="34" />
          <note key="60" pos="192" pan="0" len="48" vol="34" />
          <note key="60" pos="240" pan="0" len="48" vol="34" />
          <note key="60" pos="384" pan="0" len="96" vol="34" />
          <note key="60" pos="576" pan="0" len="48" vol="34" />
          <note key="60" pos="624" pan="0" len="48" vol="34" />
          <note key="60" pos="768" pan="0" len="96" vol="34" />
          <note key="60" pos="960" pan="0" len="48" vol="34" />
          <note key="60" pos="1008" pan="0" len="48" vol="34" />
          <note key="60" pos="1152" pan="0" len="96" vol="34" />
          <note key="60" pos="1344" pan="0" len="48" vol="34" />
          <note key="60" pos="1392" pan="0" len="48" vol="34" />
        </pattern>
        <pattern pos="141312" muted="0" steps="16" name="" type="1">
          <note key="60" pos="0" pan="0" len="96" vol="34" />
          <note key="60" pos="192" pan="0" len="48" vol="34" />
          <note key="60" pos="240" pan="0" len="48" vol="34" />
          <note key="60" pos="384" pan="0" len="96" vol="34" />
          <note key="60" pos="576" pan="0" len="48" vol="34" />
          <note key="60" pos="624" pan="0" len="48" vol="34" />
          <note key="60" pos="768" pan="0" len="96" vol="34" />
          <note key="60" pos="960" pan="0" len="48" vol="34" />
          <note key="60" pos="1008" pan="0" len="48" vol="34" />
          <note key="60" pos="1152" pan="0" len="96" vol="34" />
          <note key="60" pos="1344" pan="0" len="48" vol="34" />
          <note key="60" pos="1392" pan="0" len="48" vol="34" />
        </pattern>
        <pattern pos="142848" muted="0" steps="16" name="" type="1">
          <note key="60" pos="0" pan="0" len="96" vol="34" />
          <note key="60" pos="192" pan="0" len="48" vol="34" />
          <note key="60" pos="240" pan="0" len="48" vol="34" />
          <note key="60" pos="384" pan="0" len="96" vol="34" />
          <note key="60" pos="576" pan="0" len="48" vol="34" />
          <note key="60" pos="624" pan="0" len="48" vol="34" />
          <note key="60" pos="768" pan="0" len="96" vol="34" />
          <note key="60" pos="960" pan="0" len="48" vol="34" />
          <note key="60" pos="1008" pan="0" len="48" vol="34" />
          <note key="60" pos="1152" pan="0" len="96" vol="34" />
          <note key="60" pos="1344" pan="0" len="48" vol="34" />
          <note key="60" pos="1392" pan="0" len="48" vol="34" />
        </pattern>
        <pattern pos="144384" muted="0" steps="16" name="" type="1">
          <note key="60" pos="0" pan="0" len="96" vol="34" />
          <note key="60" pos="192" pan="0" len="48" vol="34" />
          <note key="60" pos="240" pan="0" len="48" vol="34" />
          <note key="60" pos="384" pan="0" len="96" vol="34" />
          <note key="60" pos="576" pan="0" len="48" vol="34" />
          <note key="60" pos="624" pan="0" len="48" vol="34" />
          <note key="60" pos="768" pan="0" len="96" vol="34" />
          <note key="60" pos="960" pan="0" len="48" vol="34" />
          <note key="60" pos="1008" pan="0" len="48" vol="34" />
          <note key="60" pos="1152" pan="0" len="96" vol="34" />
          <note key="60" pos="1344" pan="0" len="48" vol="34" />
          <note key="60" pos="1392" pan="0" len="48" vol="34" />
        </pattern>
        <pattern pos="145920" muted="0" steps="16" name="" type="1">
          <note key="60" pos="0" pan="0" len="96" vol="34" />
          <note key="60" pos="192" pan="0" len="48" vol="34" />
          <note key="60" pos="240" pan="0" len="48" vol="34" />
          <note key="60" pos="384" pan="0" len="96" vol="34" />
          <note key="60" pos="576" pan="0" len="48" vol="34" />
          <note key="60" pos="624" pan="0" len="48" vol="34" />
          <note key="60" pos="768" pan="0" len="96" vol="34" />
          <note key="60" pos="960" pan="0" len="48" vol="34" />
          <note key="60" pos="1008" pan="0" len="48" vol="34" />
          <note key="60" pos="1152" pan="0" len="96" vol="34" />
          <note key="60" pos="1344" pan="0" len="48" vol="34" />
          <note key="60" pos="1392" pan="0" len="48" vol="34" />
        </pattern>
        <pattern pos="147456" muted="0" steps="16" name="" type="1">
          <note key="60" pos="0" pan="0" len="96" vol="34" />
          <note key="60" pos="192" pan="0" len="48" vol="34" />
          <note key="60" pos="240" pan="0" len="48" vol="34" />
          <note key="60" pos="384" pan="0" len="96" vol="34" />
          <note key="60" pos="576" pan="0" len="48" vol="34" />
          <note key="60" pos="624" pan="0" len="48" vol="34" />
          <note key="60" pos="768" pan="0" len="96" vol="34" />
          <note key="60" pos="960" pan="0" len="48" vol="34" />
          <note key="60" pos="1008" pan="0" len="48" vol="34" />
          <note key="60" pos="1152" pan="0" len="96" vol="34" />
          <note key="60" pos="1344" pan="0" len="48" vol="34" />
          <note key="60" pos="1392" pan="0" len="48" vol="34" />
        </pattern>
        <pattern pos="148992" muted="0" steps="16" name="" type="1">
          <note key="60" pos="0" pan="0" len="96" vol="34" />
          <note key="60" pos="192" pan="0" len="48" vol="34" />
          <note key="60" pos="240" pan="0" len="48" vol="34" />
          <note key="60" pos="384" pan="0" len="96" vol="34" />
          <note key="60" pos="576" pan="0" len="48" vol="34" />
          <note key="60" pos="624" pan="0" len="48" vol="34" />
          <note key="60" pos="768" pan="0" len="96" vol="34" />
          <note key="60" pos="960" pan="0" len="48" vol="34" />
          <note key="60" pos="1008" pan="0" len="48" vol="34" />
          <note key="60" pos="1152" pan="0" len="96" vol="34" />
          <note key="60" pos="1344" pan="0" len="48" vol="34" />
          <note key="60" pos="1392" pan="0" len="48" vol="34" />
        </pattern>
        <pattern pos="150528" muted="0" steps="16" name="" type="1">
          <note key="60" pos="0" pan="0" len="96" vol="34" />
          <note key="60" pos="192" pan="0" len="48" vol="34" />
          <note key="60" pos="240" pan="0" len="48" vol="34" />
          <note key="60" pos="384" pan="0" len="96" vol="34" />
          <note key="60" pos="576" pan="0" len="48" vol="34" />
          <note key="60" pos="624" pan="0" len="48" vol="34" />
          <note key="60" pos="768" pan="0" len="96" vol="34" />
          <note key="60" pos="960" pan="0" len="48" vol="34" />
          <note key="60" pos="1008" pan="0" len="48" vol="34" />
          <note key="60" pos="1152" pan="0" len="96" vol="34" />
          <note key="60" pos="1344" pan="0" len="48" vol="34" />
          <note key="60" pos="1392" pan="0" len="48" vol="34" />
        </pattern>
        <pattern pos="152064" muted="0" steps="16" name="" type="1">
          <note key="60" pos="0" pan="0" len="96" vol="34" />
          <note key="60" pos="192" pan="0" len="48" vol="34" />
          <note key="60" pos="240" pan="0" len="48" vol="34" />
          <note key="60" pos="384" pan="0" len="96" vol="34" />
          <note key="60" pos="576" pan="0" len="48" vol="34" />
          <note key="60" pos="624" pan="0" len="48" vol="34" />
          <note key="60" pos="768" pan="0" len="96" vol="34" />
          <note key="60" pos="960" pan="0" len="48" vol="34" />
          <note key="60" pos="1008" pan="0" len="48" vol="34" />
          <note key="60" pos="1152" pan="0" len="96" vol="34" />
          <note key="60" pos="1344" pan="0" len="48" vol="34" />
          <note key="60" pos="1392" pan="0" len="48" vol="34" />
        </pattern>
        <pattern pos="153600" muted="0" steps="16" name="" type="1">
          <note key="60" pos="0" pan="0" len="96" vol="34" />
          <note key="60" pos="192" pan="0" len="48" vol="34" />
          <note key="60" pos="240" pan="0" len="48" vol="34" />
          <note key="60" pos="384" pan="0" len="96" vol="34" />
          <note key="60" pos="576" pan="0" len="48" vol="34" />
          <note key="60" pos="624" pan="0" len="48" vol="34" />
          <note key="60" pos="768" pan="0" len="96" vol="34" />
          <note key="60" pos="960" pan="0" len="48" vol="34" />
          <note key="60" pos="1008" pan="0" len="48" vol="34" />
          <note key="60" pos="1152" pan="0" len="96" vol="34" />
          <note key="60" pos="1344" pan="0" len="48" vol="34" />
          <note key="60" pos="1392" pan="0" len="48" vol="34" />
        </pattern>
        <pattern pos="155136" muted="0" steps="16" name="" type="1">
          <note key="60" pos="0" pan="0" len="96" vol="34" />
          <note key="60" pos="192" pan="0" len="48" vol="34" />
          <note key="60" pos="240" pan="0" len="48" vol="34" />
          <note key="60" pos="384" pan="0" len="96" vol="34" />
          <note key="60" pos="576" pan="0" len="48" vol="34" />
          <note key="60" pos="624" pan="0" len="48" vol="34" />
          <note key="60" pos="768" pan="0" len="96" vol="34" />
          <note key="60" pos="960" pan="0" len="48" vol="34" />
          <note key="60" pos="1008" pan="0" len="48" vol="34" />
          <note key="60" pos="1152" pan="0" len="96" vol="34" />
          <note key="60" pos="1344" pan="0" len="48" vol="34" />
          <note key="60" pos="1392" pan="0" len="48" vol="34" />
        </pattern>
        <pattern pos="156672" muted="0" steps="16" name="" type="1">
          <note key="60" pos="0" pan="0" len="96" vol="34" />
          <note key="60" pos="192" pan="0" len="48" vol="34" />
          <note key="60" pos="240" pan="0" len="48" vol="34" />
          <note key="60" pos="384" pan="0" len="96" vol="34" />
          <note key="60" pos="576" pan="0" len="48" vol="34" />
          <note key="60" pos="624" pan="0" len="48" vol="34" />
          <note key="60" pos="768" pan="0" len="96" vol="34" />
          <note key="60" pos="960" pan="0" len="48" vol="34" />
          <note key="60" pos="1008" pan="0" len="48" vol="34" />
          <note key="60" pos="1152" pan="0" len="96" vol="34" />
          <note key="60" pos="1344" pan="0" len="48" vol="34" />
          <note key="60" pos="1392" pan="0" len="48" vol="34" />
        </pattern>
        <pattern pos="158208" muted="0" steps="16" name="" type="1">
          <note key="60" pos="0" pan="0" len="96" vol="34" />
          <note key="60" pos="192" pan="0" len="48" vol="34" />
          <note key="60" pos="240" pan="0" len="48" vol="34" />
          <note key="60" pos="384" pan="0" len="96" vol="34" />
          <note key="60" pos="576" pan="0" len="48" vol="34" />
          <note key="60" pos="624" pan="0" len="48" vol="34" />
          <note key="60" pos="768" pan="0" len="96" vol="34" />
          <note key="60" pos="960" pan="0" len="48" vol="34" />
          <note key="60" pos="1008" pan="0" len="48" vol="34" />
          <note key="60" pos="1152" pan="0" len="96" vol="34" />
          <note key="60" pos="1344" pan="0" len="48" vol="34" />
          <note key="60" pos="1392" pan="0" len="48" vol="34" />
        </pattern>
        <pattern pos="159744" muted="0" steps="16" name="" type="1">
          <note key="60" pos="0" pan="0" len="96" vol="34" />
          <note key="60" pos="192" pan="0" len="48" vol="34" />
          <note key="60" pos="240" pan="0" len="48" vol="34" />
          <note key="60" pos="384" pan="0" len="96" vol="34" />
          <note key="60" pos="576" pan="0" len="48" vol="34" />
          <note key="60" pos="624" pan="0" len="48" vol="34" />
          <note key="60" pos="768" pan="0" len="96" vol="34" />
          <note key="60" pos="960" pan="0" len="48" vol="34" />
          <note key="60" pos="1008" pan="0" len="48" vol="34" />
          <note key="60" pos="1152" pan="0" len="96" vol="34" />
          <note key="60" pos="1344" pan="0" len="48" vol="34" />
          <note key="60" pos="1392" pan="0" len="48" vol="34" />
        </pattern>
      </track>
      <track solo="0" name="25 (Ch4)" type="0" muted="0">
        <instrumenttrack usemasterpitch="1" pitch="0.0" basenote="57" pan="0" pitchrange="12" vol="30">
          <eldata />
          <instrument name="tripleoscillator" />
        </instrumenttrack>
        <pattern pos="215040" muted="0" steps="16" name="" type="1">
          <note key="62" pos="0" pan="0" len="96" vol="100" />
          <note key="62" pos="240" pan="0" len="96" vol="100" />
          <note key="62" pos="384" pan="0" len="96" vol="100" />
          <note key="62" pos="624" pan="0" len="96" vol="100" />
          <note key="62" pos="768" pan="0" len="96" vol="100" />
          <note key="62" pos="1008" pan="0" len="96" vol="100" />
          <note key="62" pos="1152" pan="0" len="96" vol="100" />
          <note key="62" pos="1392" pan="0" len="96" vol="100" />
        </pattern>
        <pattern pos="0" muted="0" steps="16" name="" type="1">
          <note key="60" pos="0" pan="0" len="48" vol="100" />
        </pattern>
        <pattern pos="199680" muted="0" steps="16" name="" type="1">
          <note key="60" pos="0" pan="0" len="48" vol="100" />
          <note key="60" pos="120" pan="0" len="48" vol="100" />
          <note key="60" pos="192" pan="0" len="48" vol="100" />
          <note key="60" pos="312" pan="0" len="48" vol="100" />
          <note key="60" pos="384" pan="0" len="48" vol="100" />
          <note key="60" pos="504" pan="0" len="48" vol="100" />
          <note key="60" pos="576" pan="0" len="48" vol="100" />
          <note key="60" pos="696" pan="0" len="48" vol="100" />
          <note key="60" pos="768" pan="0" len="48" vol="100" />
          <note key="60" pos="888" pan="0" len="48" vol="100" />
          <note key="60" pos="960" pan="0" len="48" vol="100" />
          <note key="60" pos="1080" pan="0" len="48" vol="100" />
          <note key="60" pos="1152" pan="0" len="48" vol="100" />
          <note key="60" pos="1272" pan="0" len="48" vol="100" />
          <note key="60" pos="1344" pan="0" len="48" vol="100" />
          <note key="60" pos="1464" pan="0" len="48" vol="100" />
        </pattern>
        <pattern pos="201216" muted="0" steps="16" name="" type="1">
          <note key="60" pos="0" pan="0" len="96" vol="100" />
          <note key="60" pos="240" pan="0" len="96" vol="100" />
          <note key="60" pos="384" pan="0" len="96" vol="100" />
          <note key="60" pos="624" pan="0" len="96" vol="100" />
          <note key="60" pos="768" pan="0" len="96" vol="100" />
          <note key="60" pos="1008" pan="0" len="96" vol="100" />
          <note key="60" pos="1152" pan="0" len="96" vol="100" />
          <note key="60" pos="1392" pan="0" len="96" vol="100" />
        </pattern>
        <pattern pos="202752" muted="0" steps="16" name="" type="1">
          <note key="60" pos="0" pan="0" len="96" vol="100" />
          <note key="60" pos="240" pan="0" len="96" vol="100" />
          <note key="60" pos="384" pan="0" len="96" vol="100" />
          <note key="60" pos="624" pan="0" len="96" vol="100" />
          <note key="60" pos="768" pan="0" len="96" vol="100" />
          <note key="60" pos="1008" pan="0" len="96" vol="100" />
          <note key="60" pos="1152" pan="0" len="96" vol="100" />
          <note key="60" pos="1392" pan="0" len="96" vol="100" />
        </pattern>
        <pattern pos="204288" muted="0" steps="16" name="" type="1">
          <note key="60" pos="0" pan="0" len="96" vol="100" />
          <note key="60" pos="240" pan="0" len="96" vol="100" />
          <note key="60" pos="384" pan="0" len="96" vol="100" />
          <note key="60" pos="624" pan="0" len="96" vol="100" />
          <note key="60" pos="768" pan="0" len="96" vol="100" />
          <note key="60" pos="1008" pan="0" len="96" vol="100" />
          <note key="60" pos="1152" pan="0" len="96" vol="100" />
          <note key="60" pos="1392" pan="0" len="96" vol="100" />
        </pattern>
        <pattern pos="205824" muted="0" steps="16" name="" type="1">
          <note key="60" pos="0" pan="0" len="96" vol="100" />
          <note key="60" pos="240" pan="0" len="96" vol="100" />
          <note key="60" pos="384" pan="0" len="96" vol="100" />
          <note key="60" pos="624" pan="0" len="96" vol="100" />
          <note key="60" pos="768" pan="0" len="96" vol="100" />
          <note key="60" pos="1008" pan="0" len="96" vol="100" />
          <note key="60" pos="1152" pan="0" len="96" vol="100" />
          <note key="60" pos="1392" pan="0" len="96" vol="100" />
        </pattern>
        <pattern pos="207360" muted="0" steps="16" name="" type="1">
          <note key="60" pos="0" pan="0" len="96" vol="100" />
          <note key="60" pos="240" pan="0" len="96" vol="100" />
          <note key="60" pos="384" pan="0" len="96" vol="100" />
          <note key="60" pos="624" pan="0" len="96" vol="100" />
          <note key="60" pos="768" pan="0" len="96" vol="100" />
          <note key="60" pos="1008" pan="0" len="96" vol="100" />
          <note key="60" pos="1152" pan="0" len="96" vol="100" />
          <note key="60" pos="1392" pan="0" len="96" vol="100" />
        </pattern>
        <pattern pos="208896" muted="0" steps="16" name="" type="1">
          <note key="60" pos="0" pan="0" len="96" vol="100" />
          <note key="60" pos="240" pan="0" len="96" vol="100" />
          <note key="60" pos="384" pan="0" len="96" vol="100" />
          <note key="60" pos="624" pan="0" len="96" vol="100" />
          <note key="60" pos="768" pan="0" len="96" vol="100" />
          <note key="60" pos="1008" pan="0" len="96" vol="100" />
          <note key="60" pos="1152" pan="0" len="96" vol="100" />
          <note key="60" pos="1392" pan="0" len="96" vol="100" />
        </pattern>
        <pattern pos="210432" muted="0" steps="16" name="" type="1">
          <note key="60" pos="0" pan="0" len="96" vol="100" />
          <note key="60" pos="240" pan="0" len="96" vol="100" />
          <note key="60" pos="384" pan="0" len="96" vol="100" />
          <note key="60" pos="624" pan="0" len="96" vol="100" />
          <note key="60" pos="768" pan="0" len="96" vol="100" />
          <note key="60" pos="1008" pan="0" len="96" vol="100" />
          <note key="60" pos="1152" pan="0" len="96" vol="100" />
          <note key="60" pos="1392" pan="0" len="96" vol="100" />
        </pattern>
        <pattern pos="211968" muted="0" steps="16" name="" type="1">
          <note key="60" pos="0" pan="0" len="96" vol="100" />
          <note key="60" pos="240" pan="0" len="96" vol="100" />
          <note key="60" pos="384" pan="0" len="96" vol="100" />
          <note key="60" pos="624" pan="0" len="96" vol="100" />
          <note key="60" pos="768" pan="0" len="96" vol="100" />
          <note key="60" pos="1008" pan="0" len="96" vol="100" />
          <note key="60" pos="1152" pan="0" len="96" vol="100" />
          <note key="60" pos="1392" pan="0" len="96" vol="100" />
        </pattern>
        <pattern pos="213504" muted="0" steps="16" name="" type="1">
          <note key="60" pos="0" pan="0" len="48" vol="100" />
          <note key="60" pos="120" pan="0" len="48" vol="100" />
          <note key="60" pos="192" pan="0" len="48" vol="100" />
          <note key="60" pos="312" pan="0" len="48" vol="100" />
          <note key="60" pos="384" pan="0" len="48" vol="100" />
          <note key="60" pos="504" pan="0" len="48" vol="100" />
          <note key="60" pos="576" pan="0" len="48" vol="100" />
          <note key="60" pos="696" pan="0" len="48" vol="100" />
          <note key="60" pos="768" pan="0" len="48" vol="100" />
          <note key="60" pos="888" pan="0" len="48" vol="100" />
          <note key="60" pos="960" pan="0" len="48" vol="100" />
          <note key="60" pos="1080" pan="0" len="48" vol="100" />
          <note key="60" pos="1152" pan="0" len="48" vol="100" />
          <note key="60" pos="1272" pan="0" len="48" vol="100" />
          <note key="60" pos="1344" pan="0" len="48" vol="100" />
          <note key="60" pos="1464" pan="0" len="48" vol="100" />
        </pattern>
      </track>
      <track solo="0" name="25 (Ch5)" type="0" muted="0">
        <instrumenttrack usemasterpitch="1" pitch="0.0" basenote="57" pan="0" pitchrange="12" vol="30">
          <eldata />
          <instrument name="tripleoscillator" />
        </instrumenttrack>
        <pattern pos="138240" muted="0" steps="16" name="" type="1">
          <note key="60" pos="0" pan="0" len="768" vol="100" />
        </pattern>
        <pattern pos="59904" muted="0" steps="16" name="" type="1">
          <note key="60" pos="0" pan="0" len="24" vol="100" />
          <note key="60" pos="96" pan="0" len="24" vol="100" />
          <note key="60" pos="192" pan="0" len="48" vol="100" />
          <note key="60" pos="288" pan="0" len="24" vol="100" />
          <note key="60" pos="384" pan="0" len="24" vol="100" />
          <note key="60" pos="480" pan="0" len="24" vol="100" />
          <note key="60" pos="576" pan="0" len="48" vol="100" />
          <note key="60" pos="672" pan="0" len="24" vol="100" />
          <note key="60" pos="768" pan="0" len="24" vol="100" />
          <note key="60" pos="864" pan="0" len="24" vol="100" />
          <note key="60" pos="960" pan="0" len="48" vol="100" />
          <note key="60" pos="1056" pan="0" len="12" vol="100" />
          <note key="60" pos="1152" pan="0" len="24" vol="100" />
          <note key="60" pos="1248" pan="0" len="24" vol="100" />
          <note key="60" pos="1344" pan="0" len="48" vol="100" />
          <note key="60" pos="1464" pan="0" len="24" vol="100" />
        </pattern>
        <pattern pos="61440" muted="0" steps="16" name="" type="1">
          <note key="60" pos="0" pan="0" len="24" vol="100" />
          <note key="60" pos="96" pan="0" len="24" vol="100" />
          <note key="60" pos="192" pan="0" len="48" vol="100" />
          <note key="60" pos="288" pan="0" len="24" vol="100" />
          <note key="60" pos="384" pan="0" len="24" vol="100" />
          <note key="60" pos="480" pan="0" len="24" vol="100" />
          <note key="60" pos="576" pan="0" len="48" vol="100" />
          <note key="60" pos="672" pan="0" len="24" vol="100" />
          <note key="60" pos="768" pan="0" len="24" vol="100" />
          <note key="60" pos="864" pan="0" len="24" vol="100" />
          <note key="60" pos="960" pan="0" len="48" vol="100" />
          <note key="60" pos="1056" pan="0" len="12" vol="100" />
          <note key="60" pos="1152" pan="0" len="24" vol="100" />
          <note key="60" pos="1248" pan="0" len="24" vol="100" />
          <note key="60" pos="1344" pan="0" len="48" vol="100" />
          <note key="60" pos="1464" pan="0" len="24" vol="100" />
        </pattern>
        <pattern pos="62976" muted="0" steps="16" name="" type="1">
          <note key="60" pos="0" pan="0" len="24" vol="100" />
          <note key="60" pos="96" pan="0" len="24" vol="100" />
          <note key="60" pos="192" pan="0" len="48" vol="100" />
          <note key="60" pos="288" pan="0" len="24" vol="100" />
          <note key="60" pos="384" pan="0" len="24" vol="100" />
          <note key="60" pos="480" pan="0" len="24" vol="100" />
          <note key="60" pos="576" pan="0" len="48" vol="100" />
          <note key="60" pos="672" pan="0" len="24" vol="100" />
          <note key="60" pos="768" pan="0" len="24" vol="100" />
          <note key="60" pos="864" pan="0" len="24" vol="100" />
          <note key="60" pos="960" pan="0" len="48" vol="100" />
          <note key="60" pos="1056" pan="0" len="12" vol="100" />
          <note key="60" pos="1152" pan="0" len="24" vol="100" />
          <note key="60" pos="1248" pan="0" len="24" vol="100" />
          <note key="60" pos="1344" pan="0" len="48" vol="100" />
          <note key="60" pos="1464" pan="0" len="24" vol="100" />
        </pattern>
        <pattern pos="64512" muted="0" steps="16" name="" type="1">
          <note key="60" pos="0" pan="0" len="24" vol="100" />
          <note key="60" pos="96" pan="0" len="24" vol="100" />
          <note key="60" pos="192" pan="0" len="48" vol="100" />
          <note key="60" pos="288" pan="0" len="24" vol="100" />
          <note key="60" pos="384" pan="0" len="24" vol="100" />
          <note key="60" pos="480" pan="0" len="24" vol="100" />
          <note key="60" pos="576" pan="0" len="48" vol="100" />
          <note key="60" pos="672" pan="0" len="24" vol="100" />
          <note key="60" pos="768" pan="0" len="24" vol="100" />
          <note key="60" pos="864" pan="0" len="24" vol="100" />
          <note key="60" pos="960" pan="0" len="48" vol="100" />
          <note key="60" pos="1056" pan="0" len="24" vol="100" />
          <note key="60" pos="1152" pan="0" len="24" vol="100" />
          <note key="60" pos="1248" pan="0" len="24" vol="100" />
          <note key="60" pos="1344" pan="0" len="48" vol="100" />
          <note key="60" pos="1440" pan="0" len="24" vol="100" />
        </pattern>
        <pattern pos="66048" muted="0" steps="16" name="" type="1">
          <note key="60" pos="0" pan="0" len="24" vol="100" />
          <note key="60" pos="96" pan="0" len="24" vol="100" />
          <note key="60" pos="192" pan="0" len="48" vol="100" />
          <note key="60" pos="288" pan="0" len="24" vol="100" />
          <note key="60" pos="384" pan="0" len="24" vol="100" />
          <note key="60" pos="480" pan="0" len="24" vol="100" />
          <note key="60" pos="576" pan="0" len="48" vol="100" />
          <note key="60" pos="672" pan="0" len="24" vol="100" />
          <note key="60" pos="768" pan="0" len="24" vol="100" />
          <note key="60" pos="864" pan="0" len="24" vol="100" />
          <note key="60" pos="960" pan="0" len="48" vol="100" />
          <note key="60" pos="1056" pan="0" len="24" vol="100" />
          <note key="60" pos="1152" pan="0" len="24" vol="100" />
          <note key="60" pos="1248" pan="0" len="24" vol="100" />
          <note key="60" pos="1344" pan="0" len="48" vol="100" />
          <note key="60" pos="1440" pan="0" len="24" vol="100" />
        </pattern>
        <pattern pos="67584" muted="0" steps="16" name="" type="1">
          <note key="60" pos="0" pan="0" len="24" vol="100" />
          <note key="60" pos="96" pan="0" len="24" vol="100" />
          <note key="60" pos="192" pan="0" len="48" vol="100" />
          <note key="60" pos="288" pan="0" len="24" vol="100" />
          <note key="60" pos="384" pan="0" len="24" vol="100" />
          <note key="60" pos="480" pan="0" len="24" vol="100" />
          <note key="60" pos="576" pan="0" len="48" vol="100" />
          <note key="60" pos="672" pan="0" len="24" vol="100" />
          <note key="60" pos="768" pan="0" len="24" vol="100" />
          <note key="60" pos="864" pan="0" len="24" vol="100" />
          <note key="60" pos="960" pan="0" len="48" vol="100" />
          <note key="60" pos="1056" pan="0" len="12" vol="100" />
          <note key="60" pos="1152" pan="0" len="24" vol="100" />
          <note key="60" pos="1248" pan="0" len="24" vol="100" />
          <note key="60" pos="1344" pan="0" len="48" vol="100" />
          <note key="60" pos="1464" pan="0" len="24" vol="100" />
        </pattern>
        <pattern pos="69120" muted="0" steps="16" name="" type="1">
          <note key="60" pos="0" pan="0" len="24" vol="100" />
          <note key="60" pos="96" pan="0" len="24" vol="100" />
          <note key="60" pos="192" pan="0" len="48" vol="100" />
          <note key="60" pos="288" pan="0" len="24" vol="100" />
          <note key="60" pos="384" pan="0" len="24" vol="100" />
          <note key="60" pos="480" pan="0" len="24" vol="100" />
          <note key="60" pos="576" pan="0" len="48" vol="100" />
          <note key="60" pos="672" pan="0" len="24" vol="100" />
          <note key="60" pos="768" pan="0" len="24" vol="100" />
          <note key="60" pos="864" pan="0" len="24" vol="100" />
          <note key="60" pos="960" pan="0" len="48" vol="100" />
          <note key="60" pos="1056" pan="0" len="12" vol="100" />
          <note key="60" pos="1152" pan="0" len="24" vol="100" />
          <note key="60" pos="1248" pan="0" len="24" vol="100" />
          <note key="60" pos="1344" pan="0" len="48" vol="100" />
          <note key="60" pos="1464" pan="0" len="24" vol="100" />
        </pattern>
        <pattern pos="70656" muted="0" steps="16" name="" type="1">
          <note key="60" pos="0" pan="0" len="24" vol="100" />
          <note key="60" pos="96" pan="0" len="24" vol="100" />
          <note key="60" pos="192" pan="0" len="48" vol="100" />
          <note key="60" pos="288" pan="0" len="24" vol="100" />
          <note key="60" pos="384" pan="0" len="24" vol="100" />
          <note key="60" pos="480" pan="0" len="24" vol="100" />
          <note key="60" pos="576" pan="0" len="48" vol="100" />
          <note key="60" pos="672" pan="0" len="24" vol="100" />
          <note key="60" pos="768" pan="0" len="24" vol="100" />
          <note key="60" pos="864" pan="0" len="24" vol="100" />
          <note key="60" pos="960" pan="0" len="48" vol="100" />
          <note key="60" pos="1056" pan="0" len="12" vol="100" />
          <note key="60" pos="1152" pan="0" len="24" vol="100" />
          <note key="60" pos="1248" pan="0" len="24" vol="100" />
          <note key="60" pos="1344" pan="0" len="48" vol="100" />
          <note key="60" pos="1464" pan="0" len="24" vol="100" />
        </pattern>
        <pattern pos="72192" muted="0" steps="16" name="" type="1">
          <note key="60" pos="0" pan="0" len="24" vol="100" />
          <note key="60" pos="96" pan="0" len="24" vol="100" />
          <note key="60" pos="192" pan="0" len="48" vol="100" />
          <note key="60" pos="288" pan="0" len="24" vol="100" />
          <note key="60" pos="384" pan="0" len="24" vol="100" />
          <note key="60" pos="480" pan="0" len="24" vol="100" />
          <note key="60" pos="576" pan="0" len="48" vol="100" />
          <note key="60" pos="672" pan="0" len="24" vol="100" />
          <note key="60" pos="768" pan="0" len="24" vol="100" />
          <note key="60" pos="864" pan="0" len="24" vol="100" />
          <note key="60" pos="960" pan="0" len="48" vol="100" />
          <note key="60" pos="1056" pan="0" len="12" vol="100" />
          <note key="60" pos="1152" pan="0" len="24" vol="100" />
          <note key="60" pos="1248" pan="0" len="24" vol="100" />
          <note key="60" pos="1344" pan="0" len="48" vol="100" />
          <note key="60" pos="1464" pan="0" len="24" vol="100" />
        </pattern>
        <pattern pos="73728" muted="0" steps="16" name="" type="1">
          <note key="60" pos="0" pan="0" len="24" vol="100" />
          <note key="60" pos="96" pan="0" len="24" vol="100" />
          <note key="60" pos="192" pan="0" len="48" vol="100" />
          <note key="60" pos="288" pan="0" len="24" vol="100" />
          <note key="60" pos="384" pan="0" len="24" vol="100" />
          <note key="60" pos="480" pan="0" len="24" vol="100" />
          <note key="60" pos="576" pan="0" len="48" vol="100" />
          <note key="60" pos="672" pan="0" len="24" vol="100" />
          <note key="60" pos="768" pan="0" len="24" vol="100" />
          <note key="60" pos="864" pan="0" len="24" vol="100" />
          <note key="60" pos="960" pan="0" len="48" vol="100" />
          <note key="60" pos="1056" pan="0" len="24" vol="100" />
          <note key="60" pos="1152" pan="0" len="24" vol="100" />
          <note key="60" pos="1248" pan="0" len="24" vol="100" />
          <note key="60" pos="1344" pan="0" len="48" vol="100" />
          <note key="60" pos="1440" pan="0" len="24" vol="100" />
        </pattern>
        <pattern pos="75264" muted="0" steps="16" name="" type="1">
          <note key="60" pos="0" pan="0" len="24" vol="100" />
          <note key="60" pos="96" pan="0" len="24" vol="100" />
          <note key="60" pos="192" pan="0" len="48" vol="100" />
          <note key="60" pos="288" pan="0" len="24" vol="100" />
          <note key="60" pos="384" pan="0" len="24" vol="100" />
          <note key="60" pos="480" pan="0" len="24" vol="100" />
          <note key="60" pos="576" pan="0" len="48" vol="100" />
          <note key="60" pos="672" pan="0" len="24" vol="100" />
          <note key="60" pos="768" pan="0" len="24" vol="100" />
          <note key="60" pos="864" pan="0" len="24" vol="100" />
          <note key="60" pos="960" pan="0" len="48" vol="100" />
          <note key="60" pos="1056" pan="0" len="24" vol="100" />
          <note key="60" pos="1152" pan="0" len="24" vol="100" />
          <note key="60" pos="1248" pan="0" len="24" vol="100" />
          <note key="60" pos="1344" pan="0" len="48" vol="100" />
          <note key="60" pos="1440" pan="0" len="24" vol="100" />
        </pattern>
        <pattern pos="136704" muted="0" steps="16" name="" type="1">
          <note key="60" pos="768" pan="0" len="768" vol="2" />
        </pattern>
      </track>
      <track solo="0" name="25 (Ch6)" type="0" muted="0">
        <instrumenttrack usemasterpitch="1" pitch="0.0" basenote="57" pan="0" pitchrange="12" vol="30">
          <eldata />
          <instrument name="tripleoscillator" />
        </instrumenttrack>
        <pattern pos="104448" muted="0" steps="16" name="" type="1">
          <note key="47" pos="240" pan="0" len="48" vol="100" />
          <note key="50" pos="768" pan="0" len="144" vol="100" />
          <note key="50" pos="912" pan="0" len="48" vol="100" />
          <note key="50" pos="960" pan="0" len="192" vol="100" />
          <note key="50" pos="1152" pan="0" len="384" vol="100" />
        </pattern>
      </track>
      <track solo="0" name="25 (Ch7)" type="0" muted="0">
        <instrumenttrack usemasterpitch="1" pitch="0.0" basenote="57" pan="0" pitchrange="12" vol="30">
          <eldata />
          <instrument name="tripleoscillator" />
        </instrumenttrack>
        <pattern pos="256896" muted="0" steps="16" name="" type="1">
          <note key="60" pos="0" pan="0" len="48" vol="100" />
          <note key="60" pos="96" pan="0" len="48" vol="100" />
          <note key="60" pos="192" pan="0" len="24" vol="100" />
          <note key="60" pos="288" pan="0" len="48" vol="100" />
          <note key="60" pos="384" pan="0" len="48" vol="100" />
          <note key="60" pos="480" pan="0" len="48" vol="100" />
          <note key="60" pos="576" pan="0" len="24" vol="100" />
          <note key="60" pos="672" pan="0" len="48" vol="100" />
          <note key="60" pos="768" pan="0" len="48" vol="100" />
          <note key="60" pos="864" pan="0" len="48" vol="100" />
          <note key="60" pos="960" pan="0" len="24" vol="100" />
          <note key="60" pos="1056" pan="0" len="48" vol="100" />
          <note key="60" pos="1152" pan="0" len="48" vol="100" />
          <note key="60" pos="1200" pan="0" len="24" vol="100" />
          <note key="60" pos="1272" pan="0" len="24" vol="100" />
          <note key="60" pos="1320" pan="0" len="24" vol="100" />
          <note key="60" pos="1392" pan="0" len="96" vol="100" />
          <note key="60" pos="1488" pan="0" len="48" vol="100" />
        </pattern>
        <pattern pos="240000" muted="0" steps="16" name="" type="1">
          <note key="60" pos="0" pan="0" len="96" vol="100" />
          <note key="60" pos="96" pan="0" len="96" vol="100" />
          <note key="60" pos="192" pan="0" len="96" vol="100" />
          <note key="60" pos="288" pan="0" len="96" vol="100" />
          <note key="60" pos="384" pan="0" len="96" vol="100" />
          <note key="60" pos="480" pan="0" len="96" vol="100" />
          <note key="60" pos="576" pan="0" len="96" vol="100" />
          <note key="60" pos="672" pan="0" len="96" vol="100" />
          <note key="60" pos="768" pan="0" len="96" vol="100" />
          <note key="60" pos="864" pan="0" len="96" vol="100" />
          <note key="60" pos="960" pan="0" len="96" vol="100" />
          <note key="60" pos="1056" pan="0" len="96" vol="100" />
          <note key="60" pos="1152" pan="0" len="96" vol="100" />
          <note key="60" pos="1248" pan="0" len="96" vol="100" />
          <note key="60" pos="1344" pan="0" len="96" vol="100" />
          <note key="60" pos="1440" pan="0" len="96" vol="100" />
        </pattern>
        <pattern pos="241536" muted="0" steps="16" name="" type="1">
          <note key="60" pos="0" pan="0" len="48" vol="100" />
          <note key="60" pos="96" pan="0" len="48" vol="100" />
          <note key="60" pos="192" pan="0" len="24" vol="100" />
          <note key="60" pos="288" pan="0" len="48" vol="100" />
          <note key="60" pos="384" pan="0" len="48" vol="100" />
          <note key="60" pos="480" pan="0" len="48" vol="100" />
          <note key="60" pos="576" pan="0" len="24" vol="100" />
          <note key="60" pos="672" pan="0" len="48" vol="100" />
          <note key="60" pos="768" pan="0" len="48" vol="100" />
          <note key="60" pos="864" pan="0" len="48" vol="100" />
          <note key="60" pos="960" pan="0" len="24" vol="100" />
          <note key="60" pos="1056" pan="0" len="48" vol="100" />
          <note key="60" pos="1152" pan="0" len="48" vol="100" />
          <note key="60" pos="1248" pan="0" len="48" vol="100" />
          <note key="60" pos="1344" pan="0" len="24" vol="100" />
          <note key="60" pos="1440" pan="0" len="48" vol="100" />
        </pattern>
        <pattern pos="243072" muted="0" steps="16" name="" type="1">
          <note key="60" pos="0" pan="0" len="48" vol="100" />
          <note key="60" pos="96" pan="0" len="48" vol="100" />
          <note key="60" pos="192" pan="0" len="24" vol="100" />
          <note key="60" pos="288" pan="0" len="48" vol="100" />
          <note key="60" pos="384" pan="0" len="48" vol="100" />
          <note key="60" pos="480" pan="0" len="48" vol="100" />
          <note key="60" pos="576" pan="0" len="24" vol="100" />
          <note key="60" pos="672" pan="0" len="48" vol="100" />
          <note key="60" pos="768" pan="0" len="48" vol="100" />
          <note key="60" pos="864" pan="0" len="48" vol="100" />
          <note key="60" pos="960" pan="0" len="24" vol="100" />
          <note key="60" pos="1056" pan="0" len="48" vol="100" />
          <note key="60" pos="1152" pan="0" len="48" vol="100" />
          <note key="60" pos="1200" pan="0" len="24" vol="100" />
          <note key="60" pos="1272" pan="0" len="24" vol="100" />
          <note key="60" pos="1320" pan="0" len="24" vol="100" />
          <note key="60" pos="1392" pan="0" len="96" vol="100" />
          <note key="60" pos="1488" pan="0" len="48" vol="100" />
        </pattern>
        <pattern pos="244608" muted="0" steps="16" name="" type="1">
          <note key="60" pos="0" pan="0" len="48" vol="100" />
          <note key="60" pos="96" pan="0" len="48" vol="100" />
          <note key="60" pos="192" pan="0" len="24" vol="100" />
          <note key="60" pos="288" pan="0" len="48" vol="100" />
          <note key="60" pos="384" pan="0" len="48" vol="100" />
          <note key="60" pos="480" pan="0" len="48" vol="100" />
          <note key="60" pos="576" pan="0" len="24" vol="100" />
          <note key="60" pos="672" pan="0" len="48" vol="100" />
          <note key="60" pos="768" pan="0" len="48" vol="100" />
          <note key="60" pos="864" pan="0" len="48" vol="100" />
          <note key="60" pos="960" pan="0" len="24" vol="100" />
          <note key="60" pos="1056" pan="0" len="48" vol="100" />
          <note key="60" pos="1152" pan="0" len="48" vol="100" />
          <note key="60" pos="1248" pan="0" len="48" vol="100" />
          <note key="60" pos="1344" pan="0" len="24" vol="100" />
          <note key="60" pos="1440" pan="0" len="48" vol="100" />
        </pattern>
        <pattern pos="246144" muted="0" steps="16" name="" type="1">
          <note key="60" pos="0" pan="0" len="48" vol="100" />
          <note key="60" pos="96" pan="0" len="48" vol="100" />
          <note key="60" pos="192" pan="0" len="24" vol="100" />
          <note key="60" pos="288" pan="0" len="48" vol="100" />
          <note key="60" pos="384" pan="0" len="48" vol="100" />
          <note key="60" pos="480" pan="0" len="48" vol="100" />
          <note key="60" pos="576" pan="0" len="24" vol="100" />
          <note key="60" pos="672" pan="0" len="48" vol="100" />
          <note key="60" pos="768" pan="0" len="48" vol="100" />
          <note key="60" pos="864" pan="0" len="48" vol="100" />
          <note key="60" pos="960" pan="0" len="24" vol="100" />
          <note key="60" pos="1056" pan="0" len="48" vol="100" />
          <note key="60" pos="1152" pan="0" len="48" vol="100" />
          <note key="60" pos="1248" pan="0" len="48" vol="100" />
          <note key="60" pos="1344" pan="0" len="24" vol="100" />
          <note key="60" pos="1440" pan="0" len="48" vol="100" />
        </pattern>
        <pattern pos="247680" muted="0" steps="16" name="" type="1">
          <note key="60" pos="0" pan="0" len="96" vol="100" />
          <note key="60" pos="96" pan="0" len="96" vol="100" />
          <note key="60" pos="192" pan="0" len="96" vol="100" />
          <note key="60" pos="288" pan="0" len="96" vol="100" />
          <note key="60" pos="384" pan="0" len="96" vol="100" />
          <note key="60" pos="480" pan="0" len="96" vol="100" />
          <note key="60" pos="576" pan="0" len="96" vol="100" />
          <note key="60" pos="672" pan="0" len="96" vol="100" />
          <note key="60" pos="768" pan="0" len="96" vol="100" />
          <note key="60" pos="864" pan="0" len="96" vol="100" />
          <note key="60" pos="960" pan="0" len="96" vol="100" />
          <note key="60" pos="1056" pan="0" len="96" vol="100" />
          <note key="60" pos="1152" pan="0" len="96" vol="100" />
          <note key="60" pos="1248" pan="0" len="96" vol="100" />
          <note key="60" pos="1344" pan="0" len="96" vol="100" />
          <note key="60" pos="1440" pan="0" len="96" vol="100" />
        </pattern>
        <pattern pos="249216" muted="0" steps="16" name="" type="1">
          <note key="60" pos="0" pan="0" len="48" vol="100" />
          <note key="60" pos="96" pan="0" len="48" vol="100" />
          <note key="60" pos="192" pan="0" len="24" vol="100" />
          <note key="60" pos="288" pan="0" len="48" vol="100" />
          <note key="60" pos="384" pan="0" len="48" vol="100" />
          <note key="60" pos="480" pan="0" len="48" vol="100" />
          <note key="60" pos="576" pan="0" len="24" vol="100" />
          <note key="60" pos="672" pan="0" len="48" vol="100" />
          <note key="60" pos="768" pan="0" len="48" vol="100" />
          <note key="60" pos="864" pan="0" len="48" vol="100" />
          <note key="60" pos="960" pan="0" len="24" vol="100" />
          <note key="60" pos="1056" pan="0" len="48" vol="100" />
          <note key="60" pos="1152" pan="0" len="48" vol="100" />
          <note key="60" pos="1248" pan="0" len="48" vol="100" />
          <note key="60" pos="1344" pan="0" len="24" vol="100" />
          <note key="60" pos="1440" pan="0" len="48" vol="100" />
        </pattern>
        <pattern pos="250752" muted="0" steps="16" name="" type="1">
          <note key="60" pos="0" pan="0" len="48" vol="100" />
          <note key="60" pos="96" pan="0" len="48" vol="100" />
          <note key="60" pos="192" pan="0" len="24" vol="100" />
          <note key="60" pos="288" pan="0" len="48" vol="100" />
          <note key="60" pos="384" pan="0" len="48" vol="100" />
          <note key="60" pos="480" pan="0" len="48" vol="100" />
          <note key="60" pos="576" pan="0" len="24" vol="100" />
          <note key="60" pos="672" pan="0" len="48" vol="100" />
          <note key="60" pos="768" pan="0" len="48" vol="100" />
          <note key="60" pos="864" pan="0" len="48" vol="100" />
          <note key="60" pos="960" pan="0" len="24" vol="100" />
          <note key="60" pos="1056" pan="0" len="48" vol="100" />
          <note key="60" pos="1152" pan="0" len="48" vol="100" />
          <note key="60" pos="1248" pan="0" len="48" vol="100" />
          <note key="60" pos="1344" pan="0" len="24" vol="100" />
          <note key="60" pos="1440" pan="0" len="48" vol="100" />
        </pattern>
        <pattern pos="252288" muted="0" steps="16" name="" type="1">
          <note key="60" pos="0" pan="0" len="48" vol="100" />
          <note key="60" pos="96" pan="0" len="48" vol="100" />
          <note key="60" pos="192" pan="0" len="24" vol="100" />
          <note key="60" pos="288" pan="0" len="48" vol="100" />
          <note key="60" pos="384" pan="0" len="48" vol="100" />
          <note key="60" pos="480" pan="0" len="48" vol="100" />
          <note key="60" pos="576" pan="0" len="24" vol="100" />
          <note key="60" pos="672" pan="0" len="48" vol="100" />
          <note key="60" pos="768" pan="0" len="48" vol="100" />
          <note key="60" pos="864" pan="0" len="48" vol="100" />
          <note key="60" pos="960" pan="0" len="24" vol="100" />
          <note key="60" pos="1056" pan="0" len="48" vol="100" />
          <note key="60" pos="1152" pan="0" len="48" vol="100" />
          <note key="60" pos="1248" pan="0" len="48" vol="100" />
          <note key="60" pos="1344" pan="0" len="24" vol="100" />
          <note key="60" pos="1440" pan="0" len="48" vol="100" />
        </pattern>
        <pattern pos="253824" muted="0" steps="16" name="" type="1">
          <note key="60" pos="0" pan="0" len="48" vol="100" />
          <note key="60" pos="96" pan="0" len="48" vol="100" />
          <note key="60" pos="192" pan="0" len="24" vol="100" />
          <note key="60" pos="288" pan="0" len="48" vol="100" />
          <note key="60" pos="384" pan="0" len="48" vol="100" />
          <note key="60" pos="480" pan="0" len="48" vol="100" />
          <note key="60" pos="576" pan="0" len="24" vol="100" />
          <note key="60" pos="672" pan="0" len="48" vol="100" />
          <note key="60" pos="768" pan="0" len="48" vol="100" />
          <note key="60" pos="864" pan="0" len="48" vol="100" />
          <note key="60" pos="960" pan="0" len="24" vol="100" />
          <note key="60" pos="1056" pan="0" len="48" vol="100" />
          <note key="60" pos="1152" pan="0" len="48" vol="100" />
          <note key="60" pos="1248" pan="0" len="48" vol="100" />
          <note key="60" pos="1344" pan="0" len="24" vol="100" />
          <note key="60" pos="1440" pan="0" len="48" vol="100" />
        </pattern>
        <pattern pos="255360" muted="0" steps="16" name="" type="1">
          <note key="60" pos="0" pan="0" len="48" vol="100" />
          <note key="60" pos="96" pan="0" len="48" vol="100" />
          <note key="60" pos="192" pan="0" len="24" vol="100" />
          <note key="60" pos="288" pan="0" len="48" vol="100" />
          <note key="60" pos="384" pan="0" len="48" vol="100" />
          <note key="60" pos="480" pan="0" len="48" vol="100" />
          <note key="60" pos="576" pan="0" len="24" vol="100" />
          <note key="60" pos="672" pan="0" len="48" vol="100" />
          <note key="60" pos="768" pan="0" len="48" vol="100" />
          <note key="60" pos="864" pan="0" len="48" vol="100" />
          <note key="60" pos="960" pan="0" len="24" vol="100" />
          <note key="60" pos="1056" pan="0" len="48" vol="100" />
          <note key="60" pos="1152" pan="0" len="48" vol="100" />
          <note key="60" pos="1248" pan="0" len="48" vol="100" />
          <note key="60" pos="1344" pan="0" len="24" vol="100" />
          <note key="60" pos="1440" pan="0" len="48" vol="100" />
        </pattern>
      </track>
      <track solo="0" name="25 (Ch10)" type="0" muted="0">
        <instrumenttrack usemasterpitch="1" pitch="0.0" basenote="57" pan="0" pitchrange="12" vol="30">
          <eldata />
          <instrument name="tripleoscillator" />
        </instrumenttrack>
        <pattern pos="53760" muted="0" steps="16" name="" type="1">
          <note key="60" pos="0" pan="0" len="1536" vol="100" />
        </pattern>
      </track>
      <track solo="0" name="25 (Ch11)" type="0" muted="0">
        <instrumenttrack usemasterpitch="1" pitch="0.0" basenote="57" pan="0" pitchrange="12" vol="30">
          <eldata />
          <instrument name="tripleoscillator" />
        </instrumenttrack>
        <pattern pos="53760" muted="0" steps="16" name="" type="1">
          <note key="48" pos="0" pan="0" len="1536" vol="100" />
        </pattern>
      </track>
      <track solo="0" name="26 (Ch1)" type="0" muted="0">
        <instrumenttrack usemasterpitch="1" pitch="0.0" basenote="57" pan="0" pitchrange="12" vol="30">
          <eldata />
          <instrument name="tripleoscillator" />
        </instrumenttrack>
        <pattern pos="91392" muted="0" steps="16" name="" type="1">
          <note key="60" pos="156" pan="0" len="36" vol="100" />
          <note key="60" pos="348" pan="0" len="36" vol="100" />
          <note key="60" pos="540" pan="0" len="36" vol="100" />
          <note key="60" pos="732" pan="0" len="36" vol="100" />
        </pattern>
        <pattern pos="76800" muted="0" steps="16" name="" type="1">
          <note key="60" pos="156" pan="0" len="36" vol="100" />
          <note key="60" pos="348" pan="0" len="36" vol="100" />
          <note key="60" pos="540" pan="0" len="36" vol="100" />
          <note key="60" pos="732" pan="0" len="36" vol="100" />
        </pattern>
        <pattern pos="77568" muted="0" steps="16" name="" type="1">
          <note key="60" pos="156" pan="0" len="36" vol="100" />
          <note key="60" pos="348" pan="0" len="36" vol="100" />
          <note key="60" pos="540" pan="0" len="36" vol="100" />
          <note key="60" pos="732" pan="0" len="36" vol="100" />
        </pattern>
        <pattern pos="78336" muted="0" steps="16" name="" type="1">
          <note key="60" pos="156" pan="0" len="36" vol="100" />
          <note key="60" pos="348" pan="0" len="36" vol="100" />
          <note key="60" pos="540" pan="0" len="36" vol="100" />
          <note key="60" pos="732" pan="0" len="36" vol="100" />
        </pattern>
        <pattern pos="79104" muted="0" steps="16" name="" type="1">
          <note key="60" pos="156" pan="0" len="36" vol="100" />
          <note key="60" pos="348" pan="0" len="36" vol="100" />
          <note key="60" pos="540" pan="0" len="36" vol="100" />
          <note key="60" pos="732" pan="0" len="36" vol="100" />
        </pattern>
        <pattern pos="79872" muted="0" steps="16" name="" type="1">
          <note key="60" pos="156" pan="0" len="36" vol="100" />
          <note key="60" pos="348" pan="0" len="36" vol="100" />
          <note key="60" pos="540" pan="0" len="36" vol="100" />
          <note key="60" pos="732" pan="0" len="36" vol="100" />
        </pattern>
        <pattern pos="80640" muted="0" steps="16" name="" type="1">
          <note key="60" pos="156" pan="0" len="36" vol="100" />
          <note key="60" pos="348" pan="0" len="36" vol="100" />
          <note key="60" pos="540" pan="0" len="36" vol="100" />
          <note key="60" pos="732" pan="0" len="36" vol="100" />
        </pattern>
        <pattern pos="81408" muted="0" steps="16" name="" type="1">
          <note key="60" pos="156" pan="0" len="36" vol="100" />
          <note key="60" pos="348" pan="0" len="36" vol="100" />
          <note key="60" pos="540" pan="0" len="36" vol="100" />
          <note key="60" pos="732" pan="0" len="36" vol="100" />
        </pattern>
        <pattern pos="82176" muted="0" steps="16" name="" type="1">
          <note key="60" pos="156" pan="0" len="36" vol="100" />
          <note key="60" pos="348" pan="0" len="36" vol="100" />
          <note key="60" pos="540" pan="0" len="36" vol="100" />
          <note key="60" pos="732" pan="0" len="36" vol="100" />
        </pattern>
        <pattern pos="82944" muted="0" steps="16" name="" type="1">
          <note key="60" pos="156" pan="0" len="36" vol="100" />
          <note key="60" pos="348" pan="0" len="36" vol="100" />
          <note key="60" pos="540" pan="0" len="36" vol="100" />
          <note key="60" pos="732" pan="0" len="36" vol="100" />
        </pattern>
        <pattern pos="83712" muted="0" steps="16" name="" type="1">
          <note key="60" pos="156" pan="0" len="36" vol="100" />
          <note key="60" pos="348" pan="0" len="36" vol="100" />
          <note key="60" pos="540" pan="0" len="36" vol="100" />
          <note key="60" pos="732" pan="0" len="36" vol="100" />
        </pattern>
        <pattern pos="84480" muted="0" steps="16" name="" type="1">
          <note key="60" pos="156" pan="0" len="36" vol="100" />
          <note key="60" pos="348" pan="0" len="36" vol="100" />
          <note key="60" pos="540" pan="0" len="36" vol="100" />
          <note key="60" pos="732" pan="0" len="36" vol="100" />
        </pattern>
        <pattern pos="85248" muted="0" steps="16" name="" type="1">
          <note key="60" pos="156" pan="0" len="36" vol="100" />
          <note key="60" pos="348" pan="0" len="36" vol="100" />
          <note key="60" pos="540" pan="0" len="36" vol="100" />
          <note key="60" pos="732" pan="0" len="36" vol="100" />
        </pattern>
        <pattern pos="86016" muted="0" steps="16" name="" type="1">
          <note key="60" pos="156" pan="0" len="36" vol="100" />
          <note key="60" pos="348" pan="0" len="36" vol="100" />
          <note key="60" pos="540" pan="0" len="36" vol="100" />
          <note key="60" pos="732" pan="0" len="36" vol="100" />
        </pattern>
        <pattern pos="86784" muted="0" steps="16" name="" type="1">
          <note key="60" pos="156" pan="0" len="36" vol="100" />
          <note key="60" pos="348" pan="0" len="36" vol="100" />
          <note key="60" pos="540" pan="0" len="36" vol="100" />
          <note key="60" pos="732" pan="0" len="36" vol="100" />
        </pattern>
        <pattern pos="87552" muted="0" steps="16" name="" type="1">
          <note key="60" pos="156" pan="0" len="36" vol="100" />
          <note key="60" pos="348" pan="0" len="36" vol="100" />
          <note key="60" pos="540" pan="0" len="36" vol="100" />
          <note key="60" pos="732" pan="0" len="36" vol="100" />
        </pattern>
        <pattern pos="88320" muted="0" steps="16" name="" type="1">
          <note key="60" pos="156" pan="0" len="36" vol="100" />
          <note key="60" pos="348" pan="0" len="36" vol="100" />
          <note key="60" pos="540" pan="0" len="36" vol="100" />
          <note key="60" pos="732" pan="0" len="36" vol="100" />
        </pattern>
        <pattern pos="89088" muted="0" steps="16" name="" type="1">
          <note key="60" pos="156" pan="0" len="36" vol="100" />
          <note key="60" pos="348" pan="0" len="36" vol="100" />
          <note key="60" pos="540" pan="0" len="36" vol="100" />
          <note key="60" pos="732" pan="0" len="36" vol="100" />
        </pattern>
        <pattern pos="89856" muted="0" steps="16" name="" type="1">
          <note key="60" pos="156" pan="0" len="36" vol="100" />
          <note key="60" pos="348" pan="0" len="36" vol="100" />
          <note key="60" pos="540" pan="0" len="36" vol="100" />
          <note key="60" pos="732" pan="0" len="36" vol="100" />
        </pattern>
        <pattern pos="90624" muted="0" steps="16" name="" type="1">
          <note key="60" pos="156" pan="0" len="36" vol="100" />
          <note key="60" pos="348" pan="0" len="36" vol="100" />
          <note key="60" pos="540" pan="0" len="36" vol="100" />
          <note key="60" pos="732" pan="0" len="36" vol="100" />
        </pattern>
      </track>
      <track solo="0" name="26 (Ch2)" type="0" muted="0">
        <instrumenttrack usemasterpitch="1" pitch="0.0" basenote="57" pan="0" pitchrange="12" vol="30">
          <eldata />
          <instrument name="tripleoscillator" />
        </instrumenttrack>
        <pattern pos="136704" muted="0" steps="16" name="" type="1">
          <note key="60" pos="36" pan="0" len="36" vol="100" />
          <note key="60" pos="168" pan="0" len="24" vol="100" />
          <note key="60" pos="228" pan="0" len="36" vol="100" />
          <note key="60" pos="360" pan="0" len="24" vol="100" />
          <note key="60" pos="420" pan="0" len="36" vol="100" />
          <note key="60" pos="552" pan="0" len="24" vol="100" />
          <note key="60" pos="612" pan="0" len="36" vol="100" />
          <note key="60" pos="744" pan="0" len="24" vol="100" />
          <note key="60" pos="804" pan="0" len="36" vol="95" />
          <note key="60" pos="936" pan="0" len="24" vol="78" />
          <note key="60" pos="996" pan="0" len="36" vol="70" />
          <note key="60" pos="1128" pan="0" len="24" vol="53" />
          <note key="60" pos="1188" pan="0" len="36" vol="45" />
          <note key="60" pos="1320" pan="0" len="24" vol="28" />
          <note key="60" pos="1380" pan="0" len="36" vol="20" />
          <note key="60" pos="1512" pan="0" len="24" vol="3" />
        </pattern>
        <pattern pos="95232" muted="0" steps="16" name="" type="1">
          <note key="60" pos="72" pan="0" len="72" vol="100" />
          <note key="60" pos="336" pan="0" len="48" vol="100" />
          <note key="60" pos="456" pan="0" len="72" vol="100" />
          <note key="60" pos="720" pan="0" len="48" vol="100" />
        </pattern>
        <pattern pos="96768" muted="0" steps="16" name="" type="1">
          <note key="60" pos="72" pan="0" len="72" vol="100" />
          <note key="60" pos="336" pan="0" len="48" vol="100" />
          <note key="60" pos="456" pan="0" len="72" vol="100" />
          <note key="60" pos="720" pan="0" len="48" vol="100" />
        </pattern>
        <pattern pos="98304" muted="0" steps="16" name="" type="1">
          <note key="60" pos="72" pan="0" len="72" vol="100" />
          <note key="60" pos="336" pan="0" len="48" vol="100" />
          <note key="60" pos="456" pan="0" len="72" vol="100" />
          <note key="60" pos="720" pan="0" len="48" vol="100" />
        </pattern>
        <pattern pos="99840" muted="0" steps="16" name="" type="1">
          <note key="60" pos="72" pan="0" len="72" vol="100" />
          <note key="60" pos="336" pan="0" len="48" vol="100" />
          <note key="60" pos="456" pan="0" len="72" vol="100" />
          <note key="60" pos="720" pan="0" len="48" vol="100" />
        </pattern>
        <pattern pos="101376" muted="0" steps="16" name="" type="1">
          <note key="59" pos="72" pan="0" len="72" vol="100" />
          <note key="59" pos="336" pan="0" len="48" vol="100" />
          <note key="59" pos="456" pan="0" len="72" vol="100" />
          <note key="59" pos="720" pan="0" len="48" vol="100" />
        </pattern>
        <pattern pos="102912" muted="0" steps="16" name="" type="1">
          <note key="60" pos="72" pan="0" len="72" vol="100" />
          <note key="60" pos="336" pan="0" len="48" vol="100" />
          <note key="60" pos="456" pan="0" len="72" vol="100" />
          <note key="60" pos="720" pan="0" len="48" vol="100" />
        </pattern>
        <pattern pos="105984" muted="0" steps="16" name="" type="1">
          <note key="60" pos="72" pan="0" len="72" vol="6" />
          <note key="60" pos="336" pan="0" len="48" vol="23" />
          <note key="60" pos="456" pan="0" len="72" vol="31" />
          <note key="60" pos="720" pan="0" len="48" vol="48" />
        </pattern>
        <pattern pos="107520" muted="0" steps="16" name="" type="1">
          <note key="60" pos="72" pan="0" len="72" vol="100" />
          <note key="60" pos="336" pan="0" len="48" vol="100" />
          <note key="60" pos="456" pan="0" len="72" vol="100" />
          <note key="60" pos="720" pan="0" len="48" vol="100" />
        </pattern>
        <pattern pos="109056" muted="0" steps="16" name="" type="1">
          <note key="60" pos="72" pan="0" len="72" vol="100" />
          <note key="60" pos="336" pan="0" len="48" vol="100" />
          <note key="60" pos="456" pan="0" len="72" vol="100" />
          <note key="60" pos="720" pan="0" len="48" vol="100" />
        </pattern>
        <pattern pos="110592" muted="0" steps="16" name="" type="1">
          <note key="61" pos="72" pan="0" len="72" vol="100" />
          <note key="61" pos="336" pan="0" len="48" vol="100" />
          <note key="61" pos="456" pan="0" len="72" vol="100" />
          <note key="61" pos="720" pan="0" len="48" vol="100" />
        </pattern>
        <pattern pos="112128" muted="0" steps="16" name="" type="1">
          <note key="61" pos="72" pan="0" len="72" vol="100" />
          <note key="61" pos="336" pan="0" len="48" vol="100" />
          <note key="61" pos="456" pan="0" len="72" vol="100" />
          <note key="61" pos="720" pan="0" len="48" vol="100" />
        </pattern>
        <pattern pos="116736" muted="0" steps="16" name="" type="1">
          <note key="60" pos="336" pan="0" len="48" vol="100" />
        </pattern>
        <pattern pos="118272" muted="0" steps="16" name="" type="1">
          <note key="60" pos="336" pan="0" len="48" vol="100" />
        </pattern>
        <pattern pos="122880" muted="0" steps="16" name="" type="1">
          <note key="60" pos="72" pan="0" len="72" vol="100" />
          <note key="60" pos="336" pan="0" len="48" vol="100" />
          <note key="60" pos="456" pan="0" len="72" vol="100" />
          <note key="60" pos="720" pan="0" len="48" vol="100" />
        </pattern>
        <pattern pos="124416" muted="0" steps="16" name="" type="1">
          <note key="60" pos="72" pan="0" len="72" vol="100" />
          <note key="60" pos="336" pan="0" len="48" vol="100" />
          <note key="60" pos="456" pan="0" len="72" vol="100" />
          <note key="60" pos="720" pan="0" len="48" vol="100" />
        </pattern>
        <pattern pos="125952" muted="0" steps="16" name="" type="1">
          <note key="60" pos="72" pan="0" len="72" vol="100" />
          <note key="60" pos="336" pan="0" len="48" vol="100" />
          <note key="60" pos="456" pan="0" len="72" vol="100" />
          <note key="60" pos="720" pan="0" len="48" vol="100" />
          <note key="60" pos="840" pan="0" len="72" vol="100" />
          <note key="60" pos="1104" pan="0" len="48" vol="100" />
          <note key="60" pos="1224" pan="0" len="72" vol="100" />
          <note key="60" pos="1488" pan="0" len="48" vol="100" />
        </pattern>
        <pattern pos="127488" muted="0" steps="16" name="" type="1">
          <note key="60" pos="72" pan="0" len="72" vol="100" />
          <note key="60" pos="336" pan="0" len="48" vol="100" />
          <note key="60" pos="456" pan="0" len="72" vol="100" />
          <note key="60" pos="720" pan="0" len="48" vol="100" />
          <note key="60" pos="840" pan="0" len="72" vol="100" />
          <note key="60" pos="1104" pan="0" len="48" vol="100" />
          <note key="60" pos="1224" pan="0" len="72" vol="100" />
          <note key="60" pos="1488" pan="0" len="48" vol="100" />
        </pattern>
        <pattern pos="129024" muted="0" steps="16" name="" type="1">
          <note key="60" pos="72" pan="0" len="72" vol="100" />
          <note key="60" pos="336" pan="0" len="48" vol="100" />
          <note key="60" pos="456" pan="0" len="72" vol="100" />
          <note key="60" pos="720" pan="0" len="48" vol="100" />
        </pattern>
        <pattern pos="130560" muted="0" steps="16" name="" type="1">
          <note key="60" pos="72" pan="0" len="72" vol="100" />
          <note key="60" pos="336" pan="0" len="48" vol="100" />
          <note key="60" pos="456" pan="0" len="72" vol="100" />
          <note key="60" pos="720" pan="0" len="48" vol="100" />
        </pattern>
        <pattern pos="132096" muted="0" steps="16" name="" type="1">
          <note key="60" pos="72" pan="0" len="72" vol="100" />
          <note key="60" pos="336" pan="0" len="48" vol="100" />
          <note key="60" pos="456" pan="0" len="72" vol="100" />
          <note key="60" pos="720" pan="0" len="48" vol="100" />
        </pattern>
        <pattern pos="133632" muted="0" steps="16" name="" type="1">
          <note key="60" pos="72" pan="0" len="72" vol="100" />
          <note key="60" pos="336" pan="0" len="48" vol="100" />
          <note key="60" pos="456" pan="0" len="72" vol="100" />
          <note key="60" pos="720" pan="0" len="48" vol="100" />
        </pattern>
        <pattern pos="135168" muted="0" steps="16" name="" type="1">
          <note key="60" pos="36" pan="0" len="36" vol="100" />
          <note key="60" pos="168" pan="0" len="24" vol="100" />
          <note key="60" pos="228" pan="0" len="36" vol="100" />
          <note key="60" pos="360" pan="0" len="24" vol="100" />
          <note key="60" pos="420" pan="0" len="36" vol="100" />
          <note key="60" pos="552" pan="0" len="24" vol="100" />
          <note key="60" pos="612" pan="0" len="36" vol="100" />
          <note key="60" pos="744" pan="0" len="24" vol="100" />
          <note key="60" pos="804" pan="0" len="36" vol="100" />
          <note key="60" pos="936" pan="0" len="24" vol="100" />
          <note key="60" pos="996" pan="0" len="36" vol="100" />
          <note key="60" pos="1128" pan="0" len="24" vol="100" />
          <note key="60" pos="1188" pan="0" len="36" vol="100" />
          <note key="60" pos="1320" pan="0" len="24" vol="100" />
          <note key="60" pos="1380" pan="0" len="36" vol="100" />
          <note key="60" pos="1512" pan="0" len="24" vol="100" />
        </pattern>
      </track>
      <track solo="0" name="26 (Ch3)" type="0" muted="0">
        <instrumenttrack usemasterpitch="1" pitch="0.0" basenote="57" pan="0" pitchrange="12" vol="30">
          <eldata />
          <instrument name="tripleoscillator" />
        </instrumenttrack>
        <pattern pos="3072" muted="0" steps="16" name="" type="1">
          <note key="60" pos="192" pan="0" len="48" vol="100" />
          <note key="60" pos="240" pan="0" len="72" vol="100" />
          <note key="60" pos="432" pan="0" len="48" vol="100" />
          <note key="60" pos="576" pan="0" len="24" vol="100" />
          <note key="60" pos="600" pan="0" len="72" vol="100" />
          <note key="60" pos="672" pan="0" len="24" vol="100" />
        </pattern>
        <pattern pos="2304" muted="0" steps="16" name="" type="1">
          <note key="60" pos="192" pan="0" len="48" vol="100" />
          <note key="60" pos="240" pan="0" len="72" vol="100" />
          <note key="60" pos="432" pan="0" len="48" vol="100" />
          <note key="60" pos="576" pan="0" len="24" vol="100" />
          <note key="60" pos="600" pan="0" len="72" vol="100" />
          <note key="60" pos="672" pan="0" len="24" vol="100" />
        </pattern>
      </track>
      <track solo="0" name="26 (Ch4)" type="0" muted="0">
        <instrumenttrack usemasterpitch="1" pitch="0.0" basenote="57" pan="0" pitchrange="12" vol="30">
          <eldata />
          <instrument name="tripleoscillator" />
        </instrumenttrack>
        <pattern pos="92160" muted="0" steps="16" name="" type="1">
          <note key="60" pos="1440" pan="0" len="96" vol="100" />
        </pattern>
      </track>
      <track solo="0" name="26 (Ch5)" type="0" muted="0">
        <instrumenttrack usemasterpitch="1" pitch="0.0" basenote="57" pan="0" pitchrange="12" vol="30">
          <eldata />
          <instrument name="tripleoscillator" />
        </instrumenttrack>
        <pattern pos="92160" muted="0" steps="16" name="" type="1">
          <note key="67" pos="1440" pan="0" len="96" vol="100" />
        </pattern>
        <pattern pos="0" muted="0" steps="16" name="" type="1">
          <note key="60" pos="0" pan="0" len="48" vol="100" />
          <note key="60" pos="48" pan="0" len="720" vol="100" />
        </pattern>
      </track>
      <track solo="0" name="26 (Ch6)" type="0" muted="0">
        <instrumenttrack usemasterpitch="1" pitch="0.0" basenote="57" pan="0" pitchrange="12" vol="30">
          <eldata />
          <instrument name="tripleoscillator" />
        </instrumenttrack>
        <pattern pos="138240" muted="0" steps="16" name="" type="1">
          <note key="60" pos="0" pan="0" len="768" vol="100" />
        </pattern>
        <pattern pos="19200" muted="0" steps="16" name="" type="1">
          <note key="48" pos="0" pan="0" len="1536" vol="100" />
        </pattern>
        <pattern pos="136704" muted="0" steps="16" name="" type="1">
          <note key="60" pos="768" pan="0" len="768" vol="2" />
        </pattern>
      </track>
      <track solo="0" name="26 (Ch7)" type="0" muted="0">
        <instrumenttrack usemasterpitch="1" pitch="0.0" basenote="57" pan="0" pitchrange="12" vol="30">
          <eldata />
          <instrument name="tripleoscillator" />
        </instrumenttrack>
        <pattern pos="104448" muted="0" steps="16" name="" type="1">
          <note key="59" pos="240" pan="0" len="48" vol="100" />
          <note key="50" pos="720" pan="0" len="24" vol="100" />
          <note key="50" pos="744" pan="0" len="24" vol="100" />
          <note key="50" pos="768" pan="0" len="72" vol="100" />
          <note key="50" pos="840" pan="0" len="72" vol="100" />
          <note key="50" pos="912" pan="0" len="48" vol="100" />
          <note key="50" pos="960" pan="0" len="144" vol="100" />
          <note key="50" pos="1104" pan="0" len="24" vol="100" />
          <note key="50" pos="1128" pan="0" len="24" vol="100" />
          <note key="50" pos="1152" pan="0" len="384" vol="100" />
        </pattern>
        <pattern pos="19200" muted="0" steps="16" name="" type="1">
          <note key="60" pos="0" pan="0" len="1536" vol="100" />
        </pattern>
      </track>
      <track solo="0" name="26 (Ch8)" type="0" muted="0">
        <instrumenttrack usemasterpitch="1" pitch="0.0" basenote="57" pan="0" pitchrange="12" vol="30">
          <eldata />
          <instrument name="tripleoscillator" />
        </instrumenttrack>
        <pattern pos="17664" muted="0" steps="16" name="" type="1">
          <note key="60" pos="768" pan="0" len="144" vol="100" />
          <note key="60" pos="1152" pan="0" len="384" vol="100" />
        </pattern>
      </track>
      <track solo="0" name="26 (Ch10)" type="0" muted="0">
        <instrumenttrack usemasterpitch="1" pitch="0.0" basenote="57" pan="0" pitchrange="12" vol="30">
          <eldata />
          <instrument name="tripleoscillator" />
        </instrumenttrack>
        <pattern pos="247680" muted="0" steps="16" name="" type="1">
          <note key="48" pos="0" pan="0" len="1536" vol="100" />
        </pattern>
        <pattern pos="240000" muted="0" steps="16" name="" type="1">
          <note key="48" pos="0" pan="0" len="1536" vol="100" />
        </pattern>
      </track>
      <track solo="0" name="27 (Ch1)" type="0" muted="0">
        <instrumenttrack usemasterpitch="1" pitch="0.0" basenote="57" pan="0" pitchrange="12" vol="30">
          <eldata />
          <instrument name="tripleoscillator" />
        </instrumenttrack>
        <pattern pos="16128" muted="0" steps="16" name="" type="1">
          <note key="60" pos="0" pan="0" len="24" vol="100" />
          <note key="60" pos="72" pan="0" len="12" vol="100" />
          <note key="60" pos="132" pan="0" len="12" vol="100" />
          <note key="60" pos="192" pan="0" len="24" vol="100" />
          <note key="60" pos="264" pan="0" len="12" vol="100" />
          <note key="60" pos="324" pan="0" len="12" vol="100" />
          <note key="60" pos="384" pan="0" len="24" vol="100" />
          <note key="60" pos="456" pan="0" len="12" vol="100" />
          <note key="60" pos="516" pan="0" len="12" vol="100" />
          <note key="60" pos="576" pan="0" len="24" vol="100" />
          <note key="60" pos="648" pan="0" len="12" vol="100" />
          <note key="60" pos="708" pan="0" len="12" vol="100" />
          <note key="60" pos="768" pan="0" len="24" vol="100" />
          <note key="60" pos="840" pan="0" len="12" vol="100" />
          <note key="60" pos="900" pan="0" len="12" vol="100" />
          <note key="60" pos="960" pan="0" len="24" vol="100" />
          <note key="60" pos="1032" pan="0" len="12" vol="100" />
          <note key="60" pos="1092" pan="0" len="12" vol="100" />
          <note key="60" pos="1152" pan="0" len="24" vol="100" />
          <note key="60" pos="1224" pan="0" len="12" vol="100" />
          <note key="60" pos="1284" pan="0" len="12" vol="100" />
          <note key="60" pos="1344" pan="0" len="24" vol="100" />
          <note key="60" pos="1416" pan="0" len="12" vol="100" />
          <note key="60" pos="1476" pan="0" len="60" vol="100" />
        </pattern>
        <pattern pos="6912" muted="0" steps="16" name="" type="1">
          <note key="60" pos="0" pan="0" len="24" vol="100" />
          <note key="60" pos="72" pan="0" len="12" vol="100" />
          <note key="60" pos="132" pan="0" len="12" vol="100" />
          <note key="60" pos="192" pan="0" len="24" vol="100" />
          <note key="60" pos="264" pan="0" len="12" vol="100" />
          <note key="60" pos="324" pan="0" len="12" vol="100" />
          <note key="60" pos="384" pan="0" len="24" vol="100" />
          <note key="60" pos="456" pan="0" len="12" vol="100" />
          <note key="60" pos="516" pan="0" len="12" vol="100" />
          <note key="60" pos="576" pan="0" len="24" vol="100" />
          <note key="60" pos="648" pan="0" len="12" vol="100" />
          <note key="60" pos="708" pan="0" len="12" vol="100" />
        </pattern>
        <pattern pos="7680" muted="0" steps="16" name="" type="1">
          <note key="60" pos="0" pan="0" len="24" vol="100" />
          <note key="60" pos="72" pan="0" len="12" vol="100" />
          <note key="60" pos="132" pan="0" len="12" vol="100" />
          <note key="60" pos="192" pan="0" len="24" vol="100" />
          <note key="60" pos="264" pan="0" len="12" vol="100" />
          <note key="60" pos="324" pan="0" len="12" vol="100" />
          <note key="60" pos="384" pan="0" len="24" vol="100" />
          <note key="60" pos="456" pan="0" len="12" vol="100" />
          <note key="60" pos="516" pan="0" len="12" vol="100" />
          <note key="60" pos="576" pan="0" len="24" vol="100" />
          <note key="60" pos="648" pan="0" len="12" vol="100" />
          <note key="60" pos="708" pan="0" len="12" vol="100" />
        </pattern>
        <pattern pos="8448" muted="0" steps="16" name="" type="1">
          <note key="60" pos="0" pan="0" len="24" vol="100" />
          <note key="60" pos="72" pan="0" len="12" vol="100" />
          <note key="60" pos="132" pan="0" len="12" vol="100" />
          <note key="60" pos="192" pan="0" len="24" vol="100" />
          <note key="60" pos="264" pan="0" len="12" vol="100" />
          <note key="60" pos="324" pan="0" len="12" vol="100" />
          <note key="60" pos="384" pan="0" len="24" vol="100" />
          <note key="60" pos="456" pan="0" len="12" vol="100" />
          <note key="60" pos="516" pan="0" len="12" vol="100" />
          <note key="60" pos="576" pan="0" len="24" vol="100" />
          <note key="60" pos="648" pan="0" len="12" vol="100" />
          <note key="60" pos="708" pan="0" len="12" vol="100" />
        </pattern>
        <pattern pos="9216" muted="0" steps="16" name="" type="1">
          <note key="60" pos="0" pan="0" len="24" vol="100" />
          <note key="60" pos="72" pan="0" len="12" vol="100" />
          <note key="60" pos="132" pan="0" len="12" vol="100" />
          <note key="60" pos="192" pan="0" len="24" vol="100" />
          <note key="60" pos="264" pan="0" len="12" vol="100" />
          <note key="60" pos="324" pan="0" len="12" vol="100" />
          <note key="60" pos="384" pan="0" len="24" vol="100" />
          <note key="60" pos="456" pan="0" len="12" vol="100" />
          <note key="60" pos="516" pan="0" len="12" vol="100" />
          <note key="60" pos="576" pan="0" len="24" vol="100" />
          <note key="60" pos="648" pan="0" len="12" vol="100" />
          <note key="60" pos="708" pan="0" len="12" vol="100" />
        </pattern>
        <pattern pos="9984" muted="0" steps="16" name="" type="1">
          <note key="60" pos="0" pan="0" len="24" vol="100" />
          <note key="60" pos="72" pan="0" len="12" vol="100" />
          <note key="60" pos="132" pan="0" len="12" vol="100" />
          <note key="60" pos="192" pan="0" len="24" vol="100" />
          <note key="60" pos="264" pan="0" len="12" vol="100" />
          <note key="60" pos="324" pan="0" len="12" vol="100" />
          <note key="60" pos="384" pan="0" len="24" vol="100" />
          <note key="60" pos="456" pan="0" len="12" vol="100" />
          <note key="60" pos="516" pan="0" len="12" vol="100" />
          <note key="60" pos="576" pan="0" len="24" vol="100" />
          <note key="60" pos="648" pan="0" len="12" vol="100" />
          <note key="60" pos="708" pan="0" len="12" vol="100" />
        </pattern>
        <pattern pos="10752" muted="0" steps="16" name="" type="1">
          <note key="60" pos="0" pan="0" len="24" vol="100" />
          <note key="60" pos="72" pan="0" len="12" vol="100" />
          <note key="60" pos="132" pan="0" len="12" vol="100" />
          <note key="60" pos="192" pan="0" len="24" vol="100" />
          <note key="60" pos="264" pan="0" len="12" vol="100" />
          <note key="60" pos="324" pan="0" len="12" vol="100" />
          <note key="60" pos="384" pan="0" len="24" vol="100" />
          <note key="60" pos="456" pan="0" len="12" vol="100" />
          <note key="60" pos="516" pan="0" len="12" vol="100" />
          <note key="60" pos="576" pan="0" len="24" vol="100" />
          <note key="60" pos="648" pan="0" len="12" vol="100" />
          <note key="60" pos="708" pan="0" len="12" vol="100" />
        </pattern>
        <pattern pos="11520" muted="0" steps="16" name="" type="1">
          <note key="60" pos="0" pan="0" len="24" vol="100" />
          <note key="60" pos="72" pan="0" len="12" vol="100" />
          <note key="60" pos="132" pan="0" len="12" vol="100" />
          <note key="60" pos="192" pan="0" len="24" vol="100" />
          <note key="60" pos="264" pan="0" len="12" vol="100" />
          <note key="60" pos="324" pan="0" len="12" vol="100" />
          <note key="60" pos="384" pan="0" len="24" vol="100" />
          <note key="60" pos="456" pan="0" len="12" vol="100" />
          <note key="60" pos="516" pan="0" len="12" vol="100" />
          <note key="60" pos="576" pan="0" len="24" vol="100" />
          <note key="60" pos="648" pan="0" len="12" vol="100" />
          <note key="60" pos="708" pan="0" len="12" vol="100" />
          <note key="60" pos="768" pan="0" len="24" vol="100" />
          <note key="60" pos="840" pan="0" len="12" vol="100" />
          <note key="60" pos="900" pan="0" len="12" vol="100" />
          <note key="60" pos="960" pan="0" len="24" vol="100" />
          <note key="60" pos="1032" pan="0" len="12" vol="100" />
          <note key="60" pos="1092" pan="0" len="12" vol="100" />
          <note key="60" pos="1152" pan="0" len="24" vol="100" />
          <note key="60" pos="1224" pan="0" len="12" vol="100" />
          <note key="60" pos="1284" pan="0" len="12" vol="100" />
          <note key="60" pos="1344" pan="0" len="24" vol="100" />
          <note key="60" pos="1416" pan="0" len="12" vol="100" />
          <note key="60" pos="1476" pan="0" len="12" vol="100" />
        </pattern>
        <pattern pos="13056" muted="0" steps="16" name="" type="1">
          <note key="60" pos="0" pan="0" len="24" vol="100" />
          <note key="60" pos="72" pan="0" len="12" vol="100" />
          <note key="60" pos="132" pan="0" len="12" vol="100" />
          <note key="60" pos="192" pan="0" len="24" vol="100" />
          <note key="60" pos="264" pan="0" len="12" vol="100" />
          <note key="60" pos="324" pan="0" len="12" vol="100" />
          <note key="60" pos="384" pan="0" len="24" vol="100" />
          <note key="60" pos="456" pan="0" len="12" vol="100" />
          <note key="60" pos="516" pan="0" len="12" vol="100" />
          <note key="60" pos="576" pan="0" len="24" vol="100" />
          <note key="60" pos="648" pan="0" len="12" vol="100" />
          <note key="60" pos="708" pan="0" len="12" vol="100" />
          <note key="60" pos="768" pan="0" len="24" vol="100" />
          <note key="60" pos="840" pan="0" len="12" vol="100" />
          <note key="60" pos="900" pan="0" len="12" vol="100" />
          <note key="60" pos="960" pan="0" len="24" vol="100" />
          <note key="60" pos="1032" pan="0" len="12" vol="100" />
          <note key="60" pos="1092" pan="0" len="12" vol="100" />
          <note key="60" pos="1152" pan="0" len="24" vol="100" />
          <note key="60" pos="1224" pan="0" len="12" vol="100" />
          <note key="60" pos="1284" pan="0" len="12" vol="100" />
          <note key="60" pos="1344" pan="0" len="24" vol="100" />
          <note key="60" pos="1416" pan="0" len="12" vol="100" />
          <note key="60" pos="1476" pan="0" len="60" vol="100" />
        </pattern>
        <pattern pos="14592" muted="0" steps="16" name="" type="1">
          <note key="60" pos="0" pan="0" len="24" vol="100" />
          <note key="60" pos="72" pan="0" len="12" vol="100" />
          <note key="60" pos="132" pan="0" len="12" vol="100" />
          <note key="60" pos="192" pan="0" len="24" vol="100" />
          <note key="60" pos="264" pan="0" len="12" vol="100" />
          <note key="60" pos="324" pan="0" len="12" vol="100" />
          <note key="60" pos="384" pan="0" len="24" vol="100" />
          <note key="60" pos="456" pan="0" len="12" vol="100" />
          <note key="60" pos="516" pan="0" len="12" vol="100" />
          <note key="60" pos="576" pan="0" len="24" vol="100" />
          <note key="60" pos="648" pan="0" len="12" vol="100" />
          <note key="60" pos="708" pan="0" len="12" vol="100" />
          <note key="60" pos="768" pan="0" len="24" vol="100" />
          <note key="60" pos="840" pan="0" len="12" vol="100" />
          <note key="60" pos="900" pan="0" len="12" vol="100" />
          <note key="60" pos="960" pan="0" len="24" vol="100" />
          <note key="60" pos="1032" pan="0" len="12" vol="100" />
          <note key="60" pos="1092" pan="0" len="12" vol="100" />
          <note key="60" pos="1152" pan="0" len="24" vol="100" />
          <note key="60" pos="1224" pan="0" len="12" vol="100" />
          <note key="60" pos="1284" pan="0" len="12" vol="100" />
          <note key="60" pos="1344" pan="0" len="24" vol="100" />
          <note key="60" pos="1416" pan="0" len="12" vol="100" />
          <note key="60" pos="1476" pan="0" len="12" vol="100" />
        </pattern>
      </track>
      <track solo="0" name="27 (Ch2)" type="0" muted="0">
        <instrumenttrack usemasterpitch="1" pitch="0.0" basenote="57" pan="0" pitchrange="12" vol="30">
          <eldata />
          <instrument name="tripleoscillator" />
        </instrumenttrack>
        <pattern pos="267648" muted="0" steps="16" name="" type="1">
          <note key="63" pos="0" pan="0" len="24" vol="100" />
          <note key="63" pos="192" pan="0" len="24" vol="100" />
          <note key="65" pos="384" pan="0" len="24" vol="100" />
          <note key="65" pos="576" pan="0" len="24" vol="100" />
          <note key="63" pos="768" pan="0" len="24" vol="100" />
          <note key="63" pos="960" pan="0" len="24" vol="100" />
          <note key="65" pos="1152" pan="0" len="24" vol="100" />
          <note key="65" pos="1344" pan="0" len="24" vol="100" />
        </pattern>
        <pattern pos="76800" muted="0" steps="16" name="" type="1">
          <note key="60" pos="12" pan="0" len="12" vol="17" />
          <note key="60" pos="204" pan="0" len="12" vol="17" />
          <note key="60" pos="396" pan="0" len="12" vol="17" />
          <note key="60" pos="588" pan="0" len="12" vol="17" />
        </pattern>
        <pattern pos="77568" muted="0" steps="16" name="" type="1">
          <note key="60" pos="12" pan="0" len="12" vol="17" />
          <note key="60" pos="204" pan="0" len="12" vol="17" />
          <note key="60" pos="396" pan="0" len="12" vol="17" />
          <note key="60" pos="588" pan="0" len="12" vol="17" />
        </pattern>
        <pattern pos="78336" muted="0" steps="16" name="" type="1">
          <note key="60" pos="12" pan="0" len="12" vol="17" />
          <note key="60" pos="204" pan="0" len="12" vol="17" />
          <note key="60" pos="396" pan="0" len="12" vol="17" />
          <note key="60" pos="588" pan="0" len="12" vol="17" />
        </pattern>
        <pattern pos="79104" muted="0" steps="16" name="" type="1">
          <note key="60" pos="12" pan="0" len="12" vol="17" />
          <note key="60" pos="204" pan="0" len="12" vol="17" />
          <note key="60" pos="396" pan="0" len="12" vol="17" />
          <note key="60" pos="588" pan="0" len="12" vol="17" />
        </pattern>
        <pattern pos="79872" muted="0" steps="16" name="" type="1">
          <note key="60" pos="12" pan="0" len="12" vol="17" />
          <note key="60" pos="204" pan="0" len="12" vol="17" />
          <note key="60" pos="396" pan="0" len="12" vol="17" />
          <note key="60" pos="588" pan="0" len="12" vol="17" />
        </pattern>
        <pattern pos="80640" muted="0" steps="16" name="" type="1">
          <note key="60" pos="12" pan="0" len="12" vol="17" />
          <note key="60" pos="204" pan="0" len="12" vol="17" />
          <note key="60" pos="396" pan="0" len="12" vol="17" />
          <note key="60" pos="588" pan="0" len="12" vol="17" />
        </pattern>
        <pattern pos="81408" muted="0" steps="16" name="" type="1">
          <note key="60" pos="12" pan="0" len="12" vol="17" />
          <note key="60" pos="204" pan="0" len="12" vol="17" />
          <note key="60" pos="396" pan="0" len="12" vol="17" />
          <note key="60" pos="588" pan="0" len="12" vol="17" />
        </pattern>
        <pattern pos="82176" muted="0" steps="16" name="" type="1">
          <note key="60" pos="12" pan="0" len="12" vol="17" />
          <note key="60" pos="204" pan="0" len="12" vol="17" />
          <note key="60" pos="396" pan="0" len="12" vol="17" />
          <note key="60" pos="588" pan="0" len="12" vol="17" />
        </pattern>
        <pattern pos="82944" muted="0" steps="16" name="" type="1">
          <note key="60" pos="12" pan="0" len="12" vol="17" />
          <note key="60" pos="204" pan="0" len="12" vol="17" />
          <note key="60" pos="396" pan="0" len="12" vol="17" />
          <note key="60" pos="588" pan="0" len="12" vol="17" />
        </pattern>
        <pattern pos="83712" muted="0" steps="16" name="" type="1">
          <note key="60" pos="12" pan="0" len="12" vol="17" />
          <note key="60" pos="204" pan="0" len="12" vol="17" />
          <note key="60" pos="396" pan="0" len="12" vol="17" />
          <note key="60" pos="588" pan="0" len="12" vol="17" />
        </pattern>
        <pattern pos="86016" muted="0" steps="16" name="" type="1">
          <note key="60" pos="12" pan="0" len="12" vol="17" />
          <note key="60" pos="204" pan="0" len="12" vol="17" />
          <note key="60" pos="396" pan="0" len="12" vol="17" />
          <note key="60" pos="588" pan="0" len="12" vol="17" />
        </pattern>
        <pattern pos="86784" muted="0" steps="16" name="" type="1">
          <note key="60" pos="12" pan="0" len="12" vol="17" />
          <note key="60" pos="204" pan="0" len="12" vol="17" />
          <note key="60" pos="396" pan="0" len="12" vol="17" />
          <note key="60" pos="588" pan="0" len="12" vol="17" />
        </pattern>
        <pattern pos="87552" muted="0" steps="16" name="" type="1">
          <note key="60" pos="12" pan="0" len="12" vol="17" />
          <note key="60" pos="204" pan="0" len="12" vol="17" />
          <note key="60" pos="396" pan="0" len="12" vol="17" />
          <note key="60" pos="588" pan="0" len="12" vol="17" />
        </pattern>
        <pattern pos="88320" muted="0" steps="16" name="" type="1">
          <note key="60" pos="12" pan="0" len="12" vol="17" />
          <note key="60" pos="204" pan="0" len="12" vol="17" />
          <note key="60" pos="396" pan="0" len="12" vol="17" />
          <note key="60" pos="588" pan="0" len="12" vol="17" />
        </pattern>
        <pattern pos="89088" muted="0" steps="16" name="" type="1">
          <note key="60" pos="12" pan="0" len="12" vol="17" />
          <note key="60" pos="204" pan="0" len="12" vol="17" />
          <note key="60" pos="396" pan="0" len="12" vol="17" />
          <note key="60" pos="588" pan="0" len="12" vol="17" />
        </pattern>
        <pattern pos="89856" muted="0" steps="16" name="" type="1">
          <note key="60" pos="12" pan="0" len="12" vol="17" />
          <note key="60" pos="204" pan="0" len="12" vol="17" />
          <note key="60" pos="396" pan="0" len="12" vol="17" />
          <note key="60" pos="588" pan="0" len="12" vol="17" />
        </pattern>
        <pattern pos="90624" muted="0" steps="16" name="" type="1">
          <note key="60" pos="12" pan="0" len="12" vol="17" />
          <note key="60" pos="204" pan="0" len="12" vol="17" />
          <note key="60" pos="396" pan="0" len="12" vol="17" />
          <note key="60" pos="588" pan="0" len="12" vol="17" />
        </pattern>
        <pattern pos="91392" muted="0" steps="16" name="" type="1">
          <note key="60" pos="12" pan="0" len="12" vol="17" />
          <note key="60" pos="204" pan="0" len="12" vol="12" />
          <note key="60" pos="396" pan="0" len="12" vol="8" />
          <note key="60" pos="588" pan="0" len="12" vol="5" />
        </pattern>
        <pattern pos="259968" muted="0" steps="16" name="" type="1">
          <note key="65" pos="0" pan="0" len="24" vol="100" />
          <note key="65" pos="192" pan="0" len="24" vol="100" />
          <note key="65" pos="384" pan="0" len="24" vol="100" />
          <note key="65" pos="576" pan="0" len="24" vol="100" />
        </pattern>
        <pattern pos="260736" muted="0" steps="16" name="" type="1">
          <note key="65" pos="0" pan="0" len="24" vol="100" />
          <note key="65" pos="192" pan="0" len="24" vol="100" />
          <note key="65" pos="384" pan="0" len="24" vol="100" />
          <note key="65" pos="576" pan="0" len="24" vol="100" />
        </pattern>
        <pattern pos="261504" muted="0" steps="16" name="" type="1">
          <note key="56" pos="0" pan="0" len="24" vol="100" />
          <note key="56" pos="192" pan="0" len="24" vol="100" />
          <note key="56" pos="384" pan="0" len="24" vol="100" />
          <note key="56" pos="576" pan="0" len="24" vol="100" />
        </pattern>
        <pattern pos="262272" muted="0" steps="16" name="" type="1">
          <note key="56" pos="0" pan="0" len="24" vol="100" />
          <note key="56" pos="192" pan="0" len="24" vol="100" />
          <note key="56" pos="384" pan="0" len="24" vol="100" />
          <note key="56" pos="576" pan="0" len="24" vol="100" />
        </pattern>
        <pattern pos="263040" muted="0" steps="16" name="" type="1">
          <note key="55" pos="0" pan="0" len="24" vol="100" />
          <note key="55" pos="192" pan="0" len="24" vol="100" />
          <note key="55" pos="384" pan="0" len="24" vol="100" />
          <note key="55" pos="576" pan="0" len="24" vol="100" />
        </pattern>
        <pattern pos="263808" muted="0" steps="16" name="" type="1">
          <note key="55" pos="0" pan="0" len="24" vol="100" />
          <note key="55" pos="192" pan="0" len="24" vol="100" />
          <note key="55" pos="384" pan="0" len="24" vol="100" />
          <note key="55" pos="576" pan="0" len="24" vol="100" />
        </pattern>
        <pattern pos="264576" muted="0" steps="16" name="" type="1">
          <note key="65" pos="0" pan="0" len="24" vol="100" />
          <note key="65" pos="192" pan="0" len="24" vol="100" />
          <note key="65" pos="384" pan="0" len="24" vol="100" />
          <note key="65" pos="576" pan="0" len="24" vol="100" />
        </pattern>
        <pattern pos="265344" muted="0" steps="16" name="" type="1">
          <note key="65" pos="0" pan="0" len="24" vol="100" />
          <note key="65" pos="192" pan="0" len="24" vol="100" />
          <note key="65" pos="384" pan="0" len="24" vol="100" />
          <note key="65" pos="576" pan="0" len="24" vol="100" />
        </pattern>
        <pattern pos="266112" muted="0" steps="16" name="" type="1">
          <note key="65" pos="0" pan="0" len="24" vol="100" />
          <note key="65" pos="192" pan="0" len="24" vol="100" />
          <note key="60" pos="384" pan="0" len="24" vol="100" />
          <note key="60" pos="576" pan="0" len="24" vol="100" />
          <note key="65" pos="768" pan="0" len="24" vol="100" />
          <note key="65" pos="960" pan="0" len="24" vol="100" />
          <note key="60" pos="1152" pan="0" len="24" vol="100" />
          <note key="60" pos="1344" pan="0" len="24" vol="100" />
        </pattern>
      </track>
      <track solo="0" name="27 (Ch3)" type="0" muted="0">
        <instrumenttrack usemasterpitch="1" pitch="0.0" basenote="57" pan="0" pitchrange="12" vol="30">
          <eldata />
          <instrument name="tripleoscillator" />
        </instrumenttrack>
        <pattern pos="121344" muted="0" steps="16" name="" type="1">
          <note key="60" pos="1416" pan="0" len="24" vol="34" />
        </pattern>
        <pattern pos="116736" muted="0" steps="16" name="" type="1">
          <note key="60" pos="0" pan="0" len="24" vol="100" />
          <note key="60" pos="264" pan="0" len="24" vol="34" />
          <note key="60" pos="384" pan="0" len="24" vol="100" />
          <note key="60" pos="648" pan="0" len="24" vol="34" />
          <note key="60" pos="768" pan="0" len="24" vol="100" />
          <note key="60" pos="1032" pan="0" len="24" vol="34" />
          <note key="60" pos="1152" pan="0" len="24" vol="100" />
          <note key="60" pos="1416" pan="0" len="24" vol="34" />
        </pattern>
        <pattern pos="118272" muted="0" steps="16" name="" type="1">
          <note key="60" pos="0" pan="0" len="24" vol="100" />
          <note key="60" pos="264" pan="0" len="24" vol="34" />
          <note key="60" pos="384" pan="0" len="24" vol="100" />
          <note key="60" pos="648" pan="0" len="24" vol="34" />
          <note key="60" pos="768" pan="0" len="24" vol="100" />
          <note key="60" pos="1032" pan="0" len="24" vol="34" />
          <note key="60" pos="1416" pan="0" len="24" vol="34" />
        </pattern>
      </track>
      <track solo="0" name="27 (Ch4)" type="0" muted="0">
        <instrumenttrack usemasterpitch="1" pitch="0.0" basenote="57" pan="0" pitchrange="12" vol="30">
          <eldata />
          <instrument name="tripleoscillator" />
        </instrumenttrack>
        <pattern pos="0" muted="0" steps="16" name="" type="1">
          <note key="36" pos="48" pan="0" len="24" vol="100" />
        </pattern>
      </track>
      <track solo="0" name="27 (Ch6)" type="0" muted="0">
        <instrumenttrack usemasterpitch="1" pitch="0.0" basenote="57" pan="0" pitchrange="12" vol="30">
          <eldata />
          <instrument name="tripleoscillator" />
        </instrumenttrack>
        <pattern pos="215040" muted="0" steps="16" name="" type="1">
          <note key="66" pos="0" pan="0" len="24" vol="100" />
          <note key="66" pos="768" pan="0" len="24" vol="100" />
        </pattern>
        <pattern pos="59904" muted="0" steps="16" name="" type="1">
          <note key="60" pos="24" pan="0" len="24" vol="100" />
          <note key="60" pos="408" pan="0" len="24" vol="100" />
          <note key="63" pos="792" pan="0" len="24" vol="100" />
          <note key="65" pos="1176" pan="0" len="24" vol="100" />
        </pattern>
        <pattern pos="61440" muted="0" steps="16" name="" type="1">
          <note key="60" pos="24" pan="0" len="24" vol="100" />
          <note key="60" pos="408" pan="0" len="24" vol="100" />
          <note key="63" pos="792" pan="0" len="24" vol="100" />
          <note key="65" pos="1176" pan="0" len="24" vol="100" />
        </pattern>
        <pattern pos="62976" muted="0" steps="16" name="" type="1">
          <note key="60" pos="24" pan="0" len="24" vol="100" />
          <note key="60" pos="408" pan="0" len="24" vol="100" />
          <note key="63" pos="792" pan="0" len="24" vol="100" />
          <note key="65" pos="1176" pan="0" len="24" vol="100" />
        </pattern>
        <pattern pos="64512" muted="0" steps="16" name="" type="1">
          <note key="60" pos="24" pan="0" len="24" vol="100" />
          <note key="60" pos="408" pan="0" len="24" vol="100" />
          <note key="60" pos="792" pan="0" len="24" vol="100" />
          <note key="60" pos="1176" pan="0" len="24" vol="100" />
        </pattern>
        <pattern pos="66048" muted="0" steps="16" name="" type="1">
          <note key="60" pos="24" pan="0" len="24" vol="100" />
          <note key="60" pos="408" pan="0" len="24" vol="100" />
          <note key="60" pos="792" pan="0" len="24" vol="100" />
          <note key="60" pos="1176" pan="0" len="24" vol="100" />
        </pattern>
        <pattern pos="67584" muted="0" steps="16" name="" type="1">
          <note key="60" pos="24" pan="0" len="24" vol="100" />
          <note key="60" pos="408" pan="0" len="24" vol="100" />
          <note key="63" pos="792" pan="0" len="24" vol="100" />
          <note key="65" pos="1176" pan="0" len="24" vol="100" />
        </pattern>
        <pattern pos="69120" muted="0" steps="16" name="" type="1">
          <note key="60" pos="24" pan="0" len="24" vol="100" />
          <note key="60" pos="408" pan="0" len="24" vol="100" />
          <note key="63" pos="792" pan="0" len="24" vol="100" />
          <note key="65" pos="1176" pan="0" len="24" vol="100" />
        </pattern>
        <pattern pos="70656" muted="0" steps="16" name="" type="1">
          <note key="60" pos="24" pan="0" len="24" vol="100" />
          <note key="60" pos="408" pan="0" len="24" vol="100" />
          <note key="63" pos="792" pan="0" len="24" vol="100" />
          <note key="65" pos="1176" pan="0" len="24" vol="100" />
        </pattern>
        <pattern pos="72192" muted="0" steps="16" name="" type="1">
          <note key="60" pos="24" pan="0" len="24" vol="100" />
          <note key="60" pos="408" pan="0" len="24" vol="100" />
          <note key="63" pos="792" pan="0" len="24" vol="100" />
          <note key="65" pos="1176" pan="0" len="24" vol="100" />
        </pattern>
        <pattern pos="73728" muted="0" steps="16" name="" type="1">
          <note key="60" pos="24" pan="0" len="24" vol="100" />
          <note key="60" pos="408" pan="0" len="24" vol="100" />
          <note key="60" pos="792" pan="0" len="24" vol="100" />
          <note key="60" pos="1176" pan="0" len="24" vol="100" />
        </pattern>
        <pattern pos="75264" muted="0" steps="16" name="" type="1">
          <note key="60" pos="24" pan="0" len="24" vol="100" />
          <note key="60" pos="408" pan="0" len="24" vol="100" />
          <note key="60" pos="792" pan="0" len="24" vol="100" />
          <note key="60" pos="1176" pan="0" len="24" vol="100" />
        </pattern>
        <pattern pos="198144" muted="0" steps="16" name="" type="1">
          <note key="64" pos="0" pan="0" len="12" vol="100" />
          <note key="64" pos="384" pan="0" len="12" vol="100" />
          <note key="64" pos="768" pan="0" len="12" vol="100" />
          <note key="64" pos="1152" pan="0" len="12" vol="100" />
        </pattern>
        <pattern pos="199680" muted="0" steps="16" name="" type="1">
          <note key="64" pos="0" pan="0" len="12" vol="100" />
          <note key="64" pos="384" pan="0" len="12" vol="100" />
          <note key="64" pos="768" pan="0" len="12" vol="100" />
          <note key="64" pos="1152" pan="0" len="12" vol="100" />
        </pattern>
        <pattern pos="201216" muted="0" steps="16" name="" type="1">
          <note key="64" pos="0" pan="0" len="24" vol="100" />
          <note key="64" pos="768" pan="0" len="24" vol="100" />
        </pattern>
        <pattern pos="202752" muted="0" steps="16" name="" type="1">
          <note key="64" pos="0" pan="0" len="24" vol="100" />
          <note key="64" pos="768" pan="0" len="24" vol="100" />
        </pattern>
        <pattern pos="204288" muted="0" steps="16" name="" type="1">
          <note key="57" pos="0" pan="0" len="24" vol="100" />
          <note key="64" pos="768" pan="0" len="24" vol="100" />
        </pattern>
        <pattern pos="205824" muted="0" steps="16" name="" type="1">
          <note key="57" pos="0" pan="0" len="24" vol="100" />
          <note key="64" pos="768" pan="0" len="24" vol="100" />
        </pattern>
        <pattern pos="207360" muted="0" steps="16" name="" type="1">
          <note key="64" pos="0" pan="0" len="24" vol="100" />
          <note key="64" pos="768" pan="0" len="24" vol="100" />
        </pattern>
        <pattern pos="208896" muted="0" steps="16" name="" type="1">
          <note key="64" pos="0" pan="0" len="24" vol="100" />
          <note key="64" pos="768" pan="0" len="24" vol="100" />
        </pattern>
        <pattern pos="210432" muted="0" steps="16" name="" type="1">
          <note key="57" pos="0" pan="0" len="24" vol="100" />
          <note key="64" pos="768" pan="0" len="24" vol="100" />
        </pattern>
        <pattern pos="211968" muted="0" steps="16" name="" type="1">
          <note key="57" pos="0" pan="0" len="24" vol="100" />
          <note key="64" pos="768" pan="0" len="24" vol="100" />
        </pattern>
        <pattern pos="213504" muted="0" steps="16" name="" type="1">
          <note key="66" pos="0" pan="0" len="12" vol="100" />
          <note key="66" pos="384" pan="0" len="12" vol="100" />
          <note key="66" pos="768" pan="0" len="12" vol="100" />
          <note key="66" pos="1152" pan="0" len="12" vol="100" />
        </pattern>
      </track>
      <track solo="0" name="27 (Ch7)" type="0" muted="0">
        <instrumenttrack usemasterpitch="1" pitch="0.0" basenote="57" pan="0" pitchrange="12" vol="30">
          <eldata />
          <instrument name="tripleoscillator" />
        </instrumenttrack>
        <pattern pos="175104" muted="0" steps="16" name="" type="1">
          <note key="48" pos="0" pan="0" len="24" vol="100" />
          <note key="48" pos="192" pan="0" len="24" vol="100" />
          <note key="48" pos="384" pan="0" len="24" vol="100" />
          <note key="48" pos="576" pan="0" len="24" vol="100" />
          <note key="48" pos="768" pan="0" len="24" vol="100" />
          <note key="48" pos="960" pan="0" len="24" vol="100" />
          <note key="48" pos="1152" pan="0" len="24" vol="67" />
          <note key="48" pos="1344" pan="0" len="24" vol="33" />
        </pattern>
        <pattern pos="164352" muted="0" steps="16" name="" type="1">
          <note key="48" pos="0" pan="0" len="24" vol="100" />
          <note key="48" pos="192" pan="0" len="24" vol="100" />
          <note key="48" pos="384" pan="0" len="24" vol="100" />
          <note key="48" pos="576" pan="0" len="24" vol="100" />
          <note key="48" pos="768" pan="0" len="24" vol="100" />
          <note key="48" pos="960" pan="0" len="24" vol="100" />
          <note key="48" pos="1152" pan="0" len="24" vol="100" />
          <note key="48" pos="1344" pan="0" len="24" vol="100" />
        </pattern>
        <pattern pos="165888" muted="0" steps="16" name="" type="1">
          <note key="48" pos="0" pan="0" len="24" vol="100" />
          <note key="48" pos="192" pan="0" len="24" vol="100" />
          <note key="48" pos="384" pan="0" len="24" vol="100" />
          <note key="48" pos="576" pan="0" len="24" vol="100" />
          <note key="48" pos="768" pan="0" len="24" vol="100" />
          <note key="48" pos="960" pan="0" len="24" vol="100" />
          <note key="48" pos="1152" pan="0" len="24" vol="100" />
          <note key="48" pos="1344" pan="0" len="24" vol="100" />
        </pattern>
        <pattern pos="167424" muted="0" steps="16" name="" type="1">
          <note key="48" pos="0" pan="0" len="24" vol="100" />
          <note key="48" pos="192" pan="0" len="24" vol="100" />
          <note key="48" pos="384" pan="0" len="24" vol="100" />
          <note key="48" pos="576" pan="0" len="24" vol="100" />
          <note key="48" pos="768" pan="0" len="24" vol="100" />
          <note key="48" pos="960" pan="0" len="24" vol="100" />
          <note key="48" pos="1152" pan="0" len="24" vol="100" />
          <note key="48" pos="1344" pan="0" len="24" vol="100" />
        </pattern>
        <pattern pos="168960" muted="0" steps="16" name="" type="1">
          <note key="48" pos="0" pan="0" len="24" vol="100" />
          <note key="48" pos="192" pan="0" len="24" vol="100" />
          <note key="48" pos="384" pan="0" len="24" vol="100" />
          <note key="48" pos="576" pan="0" len="24" vol="100" />
          <note key="48" pos="768" pan="0" len="24" vol="100" />
          <note key="48" pos="960" pan="0" len="24" vol="100" />
          <note key="48" pos="1152" pan="0" len="24" vol="100" />
          <note key="48" pos="1344" pan="0" len="24" vol="100" />
        </pattern>
        <pattern pos="170496" muted="0" steps="16" name="" type="1">
          <note key="48" pos="0" pan="0" len="24" vol="100" />
          <note key="48" pos="192" pan="0" len="24" vol="100" />
          <note key="48" pos="384" pan="0" len="24" vol="100" />
          <note key="48" pos="576" pan="0" len="24" vol="100" />
          <note key="48" pos="768" pan="0" len="24" vol="100" />
          <note key="48" pos="960" pan="0" len="24" vol="100" />
          <note key="48" pos="1152" pan="0" len="24" vol="100" />
          <note key="48" pos="1344" pan="0" len="24" vol="100" />
        </pattern>
        <pattern pos="172032" muted="0" steps="16" name="" type="1">
          <note key="48" pos="0" pan="0" len="24" vol="100" />
          <note key="48" pos="192" pan="0" len="24" vol="100" />
          <note key="48" pos="384" pan="0" len="24" vol="100" />
          <note key="48" pos="576" pan="0" len="24" vol="100" />
          <note key="48" pos="768" pan="0" len="24" vol="100" />
          <note key="48" pos="960" pan="0" len="24" vol="100" />
          <note key="48" pos="1152" pan="0" len="24" vol="100" />
          <note key="48" pos="1344" pan="0" len="24" vol="100" />
        </pattern>
        <pattern pos="173568" muted="0" steps="16" name="" type="1">
          <note key="48" pos="0" pan="0" len="24" vol="100" />
          <note key="48" pos="192" pan="0" len="24" vol="100" />
          <note key="48" pos="384" pan="0" len="24" vol="100" />
          <note key="48" pos="576" pan="0" len="24" vol="100" />
          <note key="48" pos="768" pan="0" len="24" vol="100" />
          <note key="48" pos="960" pan="0" len="24" vol="100" />
          <note key="48" pos="1152" pan="0" len="24" vol="100" />
          <note key="48" pos="1344" pan="0" len="24" vol="100" />
        </pattern>
      </track>
      <track solo="0" name="27 (Ch8)" type="0" muted="0">
        <instrumenttrack usemasterpitch="1" pitch="0.0" basenote="57" pan="0" pitchrange="12" vol="30">
          <eldata />
          <instrument name="tripleoscillator" />
        </instrumenttrack>
        <pattern pos="256896" muted="0" steps="16" name="" type="1">
          <note key="60" pos="312" pan="0" len="24" vol="52" />
          <note key="60" pos="696" pan="0" len="24" vol="52" />
          <note key="60" pos="1080" pan="0" len="24" vol="52" />
        </pattern>
        <pattern pos="196608" muted="0" steps="16" name="" type="1">
          <note key="64" pos="768" pan="0" len="12" vol="2" />
          <note key="64" pos="1152" pan="0" len="12" vol="52" />
        </pattern>
        <pattern pos="227520" muted="0" steps="16" name="" type="1">
          <note key="60" pos="0" pan="0" len="24" vol="100" />
          <note key="62" pos="192" pan="0" len="24" vol="100" />
          <note key="63" pos="384" pan="0" len="24" vol="100" />
          <note key="65" pos="576" pan="0" len="24" vol="100" />
          <note key="60" pos="768" pan="0" len="24" vol="100" />
          <note key="62" pos="960" pan="0" len="24" vol="100" />
          <note key="63" pos="1152" pan="0" len="24" vol="100" />
          <note key="65" pos="1344" pan="0" len="24" vol="100" />
        </pattern>
        <pattern pos="229056" muted="0" steps="16" name="" type="1">
          <note key="60" pos="0" pan="0" len="24" vol="100" />
          <note key="62" pos="192" pan="0" len="24" vol="100" />
          <note key="63" pos="384" pan="0" len="24" vol="100" />
          <note key="65" pos="576" pan="0" len="24" vol="100" />
          <note key="60" pos="768" pan="0" len="24" vol="100" />
          <note key="62" pos="960" pan="0" len="24" vol="100" />
          <note key="63" pos="1152" pan="0" len="24" vol="100" />
          <note key="65" pos="1344" pan="0" len="24" vol="100" />
        </pattern>
        <pattern pos="244608" muted="0" steps="16" name="" type="1">
          <note key="60" pos="312" pan="0" len="24" vol="52" />
          <note key="60" pos="696" pan="0" len="24" vol="52" />
          <note key="60" pos="1080" pan="0" len="24" vol="52" />
          <note key="60" pos="1464" pan="0" len="24" vol="52" />
        </pattern>
        <pattern pos="246144" muted="0" steps="16" name="" type="1">
          <note key="60" pos="312" pan="0" len="24" vol="52" />
          <note key="60" pos="696" pan="0" len="24" vol="52" />
          <note key="60" pos="1080" pan="0" len="24" vol="52" />
        </pattern>
        <pattern pos="249216" muted="0" steps="16" name="" type="1">
          <note key="60" pos="312" pan="0" len="24" vol="52" />
          <note key="60" pos="696" pan="0" len="24" vol="52" />
          <note key="60" pos="1080" pan="0" len="24" vol="52" />
          <note key="60" pos="1464" pan="0" len="24" vol="52" />
        </pattern>
        <pattern pos="250752" muted="0" steps="16" name="" type="1">
          <note key="60" pos="312" pan="0" len="24" vol="52" />
          <note key="60" pos="696" pan="0" len="24" vol="52" />
          <note key="60" pos="1080" pan="0" len="24" vol="52" />
        </pattern>
        <pattern pos="252288" muted="0" steps="16" name="" type="1">
          <note key="60" pos="312" pan="0" len="24" vol="52" />
          <note key="60" pos="696" pan="0" len="24" vol="52" />
          <note key="60" pos="1080" pan="0" len="24" vol="52" />
          <note key="60" pos="1464" pan="0" len="24" vol="52" />
        </pattern>
        <pattern pos="253824" muted="0" steps="16" name="" type="1">
          <note key="60" pos="312" pan="0" len="24" vol="52" />
          <note key="60" pos="696" pan="0" len="24" vol="52" />
          <note key="60" pos="1080" pan="0" len="24" vol="52" />
        </pattern>
        <pattern pos="255360" muted="0" steps="16" name="" type="1">
          <note key="60" pos="312" pan="0" len="24" vol="52" />
          <note key="60" pos="696" pan="0" len="24" vol="52" />
          <note key="60" pos="1080" pan="0" len="24" vol="52" />
          <note key="60" pos="1464" pan="0" len="24" vol="52" />
        </pattern>
      </track>
      <track solo="0" name="27 (Ch9)" type="0" muted="0">
        <instrumenttrack usemasterpitch="1" pitch="0.0" basenote="57" pan="0" pitchrange="12" vol="30">
          <eldata />
          <instrument name="tripleoscillator" />
        </instrumenttrack>
        <pattern pos="235200" muted="0" steps="16" name="" type="1">
          <note key="67" pos="0" pan="0" len="24" vol="100" />
          <note key="65" pos="192" pan="0" len="24" vol="100" />
          <note key="63" pos="384" pan="0" len="24" vol="100" />
          <note key="60" pos="576" pan="0" len="24" vol="100" />
          <note key="67" pos="768" pan="0" len="24" vol="100" />
          <note key="65" pos="960" pan="0" len="24" vol="100" />
          <note key="63" pos="1152" pan="0" len="24" vol="100" />
          <note key="60" pos="1344" pan="0" len="24" vol="100" />
        </pattern>
        <pattern pos="224448" muted="0" steps="16" name="" type="1">
          <note key="67" pos="0" pan="0" len="24" vol="100" />
          <note key="65" pos="192" pan="0" len="24" vol="100" />
          <note key="63" pos="384" pan="0" len="24" vol="100" />
          <note key="60" pos="576" pan="0" len="24" vol="100" />
          <note key="67" pos="768" pan="0" len="24" vol="100" />
          <note key="65" pos="960" pan="0" len="24" vol="100" />
          <note key="63" pos="1152" pan="0" len="24" vol="100" />
          <note key="60" pos="1344" pan="0" len="24" vol="100" />
        </pattern>
        <pattern pos="225984" muted="0" steps="16" name="" type="1">
          <note key="67" pos="0" pan="0" len="24" vol="100" />
          <note key="65" pos="192" pan="0" len="24" vol="100" />
          <note key="63" pos="384" pan="0" len="24" vol="100" />
          <note key="60" pos="576" pan="0" len="24" vol="100" />
          <note key="67" pos="768" pan="0" len="24" vol="100" />
          <note key="65" pos="960" pan="0" len="24" vol="100" />
          <note key="63" pos="1152" pan="0" len="24" vol="100" />
          <note key="60" pos="1344" pan="0" len="24" vol="100" />
        </pattern>
        <pattern pos="230592" muted="0" steps="16" name="" type="1">
          <note key="67" pos="0" pan="0" len="24" vol="100" />
          <note key="65" pos="192" pan="0" len="24" vol="100" />
          <note key="63" pos="384" pan="0" len="24" vol="100" />
          <note key="65" pos="576" pan="0" len="24" vol="100" />
          <note key="60" pos="768" pan="0" len="24" vol="100" />
          <note key="62" pos="960" pan="0" len="24" vol="100" />
          <note key="63" pos="1152" pan="0" len="24" vol="100" />
          <note key="65" pos="1344" pan="0" len="24" vol="100" />
        </pattern>
        <pattern pos="232128" muted="0" steps="16" name="" type="1">
          <note key="67" pos="0" pan="0" len="24" vol="100" />
          <note key="65" pos="192" pan="0" len="24" vol="100" />
          <note key="63" pos="384" pan="0" len="24" vol="100" />
          <note key="65" pos="576" pan="0" len="24" vol="100" />
          <note key="60" pos="768" pan="0" len="24" vol="100" />
          <note key="62" pos="960" pan="0" len="24" vol="100" />
          <note key="67" pos="1152" pan="0" len="24" vol="100" />
          <note key="67" pos="1344" pan="0" len="24" vol="100" />
        </pattern>
        <pattern pos="233664" muted="0" steps="16" name="" type="1">
          <note key="67" pos="0" pan="0" len="24" vol="100" />
          <note key="65" pos="192" pan="0" len="24" vol="100" />
          <note key="63" pos="384" pan="0" len="24" vol="100" />
          <note key="60" pos="576" pan="0" len="24" vol="100" />
          <note key="67" pos="768" pan="0" len="24" vol="100" />
          <note key="65" pos="960" pan="0" len="24" vol="100" />
          <note key="63" pos="1152" pan="0" len="24" vol="100" />
          <note key="60" pos="1344" pan="0" len="24" vol="100" />
        </pattern>
      </track>
      <track solo="0" name="28 (Ch2)" type="0" muted="0">
        <instrumenttrack usemasterpitch="1" pitch="0.0" basenote="57" pan="0" pitchrange="12" vol="30">
          <eldata />
          <instrument name="tripleoscillator" />
        </instrumenttrack>
        <pattern pos="267648" muted="0" steps="16" name="" type="1">
          <note key="63" pos="48" pan="0" len="12" vol="100" />
          <note key="63" pos="240" pan="0" len="12" vol="100" />
          <note key="65" pos="432" pan="0" len="12" vol="100" />
          <note key="65" pos="624" pan="0" len="12" vol="100" />
          <note key="63" pos="816" pan="0" len="12" vol="100" />
          <note key="63" pos="1008" pan="0" len="12" vol="100" />
          <note key="65" pos="1200" pan="0" len="12" vol="100" />
          <note key="65" pos="1392" pan="0" len="12" vol="100" />
        </pattern>
        <pattern pos="76800" muted="0" steps="16" name="" type="1">
          <note key="60" pos="48" pan="0" len="12" vol="100" />
          <note key="60" pos="240" pan="0" len="12" vol="100" />
          <note key="60" pos="432" pan="0" len="12" vol="100" />
          <note key="60" pos="624" pan="0" len="12" vol="100" />
        </pattern>
        <pattern pos="77568" muted="0" steps="16" name="" type="1">
          <note key="60" pos="48" pan="0" len="12" vol="100" />
          <note key="60" pos="240" pan="0" len="12" vol="100" />
          <note key="60" pos="432" pan="0" len="12" vol="100" />
          <note key="60" pos="624" pan="0" len="12" vol="100" />
        </pattern>
        <pattern pos="78336" muted="0" steps="16" name="" type="1">
          <note key="60" pos="48" pan="0" len="12" vol="100" />
          <note key="60" pos="240" pan="0" len="12" vol="100" />
          <note key="60" pos="432" pan="0" len="12" vol="100" />
          <note key="60" pos="624" pan="0" len="12" vol="100" />
        </pattern>
        <pattern pos="79104" muted="0" steps="16" name="" type="1">
          <note key="60" pos="48" pan="0" len="12" vol="100" />
          <note key="60" pos="240" pan="0" len="12" vol="100" />
          <note key="60" pos="432" pan="0" len="12" vol="100" />
          <note key="60" pos="624" pan="0" len="12" vol="100" />
        </pattern>
        <pattern pos="79872" muted="0" steps="16" name="" type="1">
          <note key="60" pos="48" pan="0" len="12" vol="100" />
          <note key="60" pos="240" pan="0" len="12" vol="100" />
          <note key="60" pos="432" pan="0" len="12" vol="100" />
          <note key="60" pos="624" pan="0" len="12" vol="100" />
        </pattern>
        <pattern pos="80640" muted="0" steps="16" name="" type="1">
          <note key="60" pos="48" pan="0" len="12" vol="100" />
          <note key="60" pos="240" pan="0" len="12" vol="100" />
          <note key="60" pos="432" pan="0" len="12" vol="100" />
          <note key="60" pos="624" pan="0" len="12" vol="100" />
        </pattern>
        <pattern pos="81408" muted="0" steps="16" name="" type="1">
          <note key="60" pos="48" pan="0" len="12" vol="100" />
          <note key="60" pos="240" pan="0" len="12" vol="100" />
          <note key="60" pos="432" pan="0" len="12" vol="100" />
          <note key="60" pos="624" pan="0" len="12" vol="100" />
        </pattern>
        <pattern pos="82176" muted="0" steps="16" name="" type="1">
          <note key="60" pos="48" pan="0" len="12" vol="100" />
          <note key="60" pos="240" pan="0" len="12" vol="100" />
          <note key="60" pos="432" pan="0" len="12" vol="100" />
          <note key="60" pos="624" pan="0" len="12" vol="100" />
        </pattern>
        <pattern pos="82944" muted="0" steps="16" name="" type="1">
          <note key="60" pos="48" pan="0" len="12" vol="100" />
          <note key="60" pos="240" pan="0" len="12" vol="100" />
          <note key="60" pos="432" pan="0" len="12" vol="100" />
          <note key="60" pos="624" pan="0" len="12" vol="100" />
        </pattern>
        <pattern pos="83712" muted="0" steps="16" name="" type="1">
          <note key="60" pos="48" pan="0" len="12" vol="100" />
          <note key="60" pos="240" pan="0" len="12" vol="100" />
          <note key="60" pos="432" pan="0" len="12" vol="100" />
          <note key="60" pos="624" pan="0" len="12" vol="100" />
        </pattern>
        <pattern pos="86016" muted="0" steps="16" name="" type="1">
          <note key="60" pos="48" pan="0" len="12" vol="100" />
          <note key="60" pos="240" pan="0" len="12" vol="100" />
          <note key="60" pos="432" pan="0" len="12" vol="100" />
          <note key="60" pos="624" pan="0" len="12" vol="100" />
        </pattern>
        <pattern pos="86784" muted="0" steps="16" name="" type="1">
          <note key="60" pos="48" pan="0" len="12" vol="100" />
          <note key="60" pos="240" pan="0" len="12" vol="100" />
          <note key="60" pos="432" pan="0" len="12" vol="100" />
          <note key="60" pos="624" pan="0" len="12" vol="100" />
        </pattern>
        <pattern pos="87552" muted="0" steps="16" name="" type="1">
          <note key="60" pos="48" pan="0" len="12" vol="100" />
          <note key="60" pos="240" pan="0" len="12" vol="100" />
          <note key="60" pos="432" pan="0" len="12" vol="100" />
          <note key="60" pos="624" pan="0" len="12" vol="100" />
        </pattern>
        <pattern pos="88320" muted="0" steps="16" name="" type="1">
          <note key="60" pos="48" pan="0" len="12" vol="100" />
          <note key="60" pos="240" pan="0" len="12" vol="100" />
          <note key="60" pos="432" pan="0" len="12" vol="100" />
          <note key="60" pos="624" pan="0" len="12" vol="100" />
        </pattern>
        <pattern pos="89088" muted="0" steps="16" name="" type="1">
          <note key="60" pos="48" pan="0" len="12" vol="100" />
          <note key="60" pos="240" pan="0" len="12" vol="100" />
          <note key="60" pos="432" pan="0" len="12" vol="100" />
          <note key="60" pos="624" pan="0" len="12" vol="100" />
        </pattern>
        <pattern pos="89856" muted="0" steps="16" name="" type="1">
          <note key="60" pos="48" pan="0" len="12" vol="100" />
          <note key="60" pos="240" pan="0" len="12" vol="100" />
          <note key="60" pos="432" pan="0" len="12" vol="100" />
          <note key="60" pos="624" pan="0" len="12" vol="100" />
        </pattern>
        <pattern pos="90624" muted="0" steps="16" name="" type="1">
          <note key="60" pos="48" pan="0" len="12" vol="100" />
          <note key="60" pos="240" pan="0" len="12" vol="100" />
          <note key="60" pos="432" pan="0" len="12" vol="100" />
          <note key="60" pos="624" pan="0" len="12" vol="100" />
        </pattern>
        <pattern pos="91392" muted="0" steps="16" name="" type="1">
          <note key="60" pos="48" pan="0" len="12" vol="94" />
          <note key="60" pos="240" pan="0" len="12" vol="69" />
          <note key="60" pos="432" pan="0" len="12" vol="44" />
          <note key="60" pos="624" pan="0" len="12" vol="19" />
        </pattern>
        <pattern pos="141312" muted="0" steps="16" name="" type="1">
          <note key="48" pos="96" pan="0" len="24" vol="17" />
          <note key="48" pos="288" pan="0" len="24" vol="17" />
          <note key="48" pos="480" pan="0" len="24" vol="17" />
          <note key="48" pos="672" pan="0" len="24" vol="17" />
          <note key="48" pos="864" pan="0" len="24" vol="17" />
          <note key="48" pos="1056" pan="0" len="24" vol="17" />
          <note key="48" pos="1248" pan="0" len="24" vol="17" />
          <note key="48" pos="1440" pan="0" len="24" vol="17" />
        </pattern>
        <pattern pos="142848" muted="0" steps="16" name="" type="1">
          <note key="48" pos="96" pan="0" len="24" vol="17" />
          <note key="48" pos="288" pan="0" len="24" vol="17" />
          <note key="48" pos="480" pan="0" len="24" vol="17" />
          <note key="48" pos="672" pan="0" len="24" vol="17" />
          <note key="48" pos="864" pan="0" len="24" vol="17" />
          <note key="48" pos="1056" pan="0" len="24" vol="17" />
          <note key="48" pos="1248" pan="0" len="24" vol="17" />
          <note key="48" pos="1440" pan="0" len="24" vol="17" />
        </pattern>
        <pattern pos="144384" muted="0" steps="16" name="" type="1">
          <note key="48" pos="96" pan="0" len="24" vol="17" />
          <note key="48" pos="288" pan="0" len="24" vol="17" />
          <note key="48" pos="480" pan="0" len="24" vol="17" />
          <note key="48" pos="672" pan="0" len="24" vol="17" />
          <note key="48" pos="864" pan="0" len="24" vol="17" />
          <note key="48" pos="1056" pan="0" len="24" vol="17" />
          <note key="48" pos="1248" pan="0" len="24" vol="17" />
          <note key="48" pos="1440" pan="0" len="24" vol="17" />
        </pattern>
        <pattern pos="145920" muted="0" steps="16" name="" type="1">
          <note key="48" pos="96" pan="0" len="24" vol="17" />
          <note key="48" pos="288" pan="0" len="24" vol="17" />
          <note key="48" pos="480" pan="0" len="24" vol="17" />
          <note key="48" pos="672" pan="0" len="24" vol="17" />
          <note key="48" pos="864" pan="0" len="24" vol="17" />
          <note key="48" pos="1056" pan="0" len="24" vol="17" />
          <note key="48" pos="1248" pan="0" len="24" vol="17" />
          <note key="48" pos="1440" pan="0" len="24" vol="17" />
        </pattern>
        <pattern pos="147456" muted="0" steps="16" name="" type="1">
          <note key="48" pos="96" pan="0" len="24" vol="17" />
          <note key="48" pos="288" pan="0" len="24" vol="17" />
          <note key="48" pos="480" pan="0" len="24" vol="17" />
          <note key="48" pos="672" pan="0" len="24" vol="17" />
          <note key="48" pos="864" pan="0" len="24" vol="17" />
          <note key="48" pos="1056" pan="0" len="24" vol="17" />
          <note key="48" pos="1248" pan="0" len="24" vol="17" />
          <note key="48" pos="1440" pan="0" len="24" vol="17" />
        </pattern>
        <pattern pos="148992" muted="0" steps="16" name="" type="1">
          <note key="48" pos="96" pan="0" len="24" vol="17" />
          <note key="48" pos="288" pan="0" len="24" vol="17" />
          <note key="48" pos="480" pan="0" len="24" vol="17" />
          <note key="48" pos="672" pan="0" len="24" vol="17" />
          <note key="48" pos="864" pan="0" len="24" vol="17" />
          <note key="48" pos="1056" pan="0" len="24" vol="17" />
          <note key="48" pos="1248" pan="0" len="24" vol="17" />
          <note key="48" pos="1440" pan="0" len="24" vol="17" />
        </pattern>
        <pattern pos="150528" muted="0" steps="16" name="" type="1">
          <note key="48" pos="96" pan="0" len="24" vol="17" />
          <note key="48" pos="288" pan="0" len="24" vol="17" />
          <note key="48" pos="480" pan="0" len="24" vol="17" />
          <note key="48" pos="672" pan="0" len="24" vol="17" />
          <note key="48" pos="864" pan="0" len="24" vol="17" />
          <note key="48" pos="1056" pan="0" len="24" vol="17" />
          <note key="48" pos="1248" pan="0" len="24" vol="17" />
          <note key="48" pos="1440" pan="0" len="24" vol="17" />
        </pattern>
        <pattern pos="152064" muted="0" steps="16" name="" type="1">
          <note key="48" pos="96" pan="0" len="24" vol="17" />
          <note key="48" pos="288" pan="0" len="24" vol="17" />
          <note key="48" pos="480" pan="0" len="24" vol="17" />
          <note key="48" pos="672" pan="0" len="24" vol="17" />
          <note key="48" pos="864" pan="0" len="24" vol="17" />
          <note key="48" pos="1056" pan="0" len="24" vol="17" />
          <note key="48" pos="1248" pan="0" len="24" vol="17" />
          <note key="48" pos="1440" pan="0" len="24" vol="17" />
        </pattern>
        <pattern pos="153600" muted="0" steps="16" name="" type="1">
          <note key="48" pos="96" pan="0" len="24" vol="17" />
          <note key="48" pos="288" pan="0" len="24" vol="17" />
          <note key="48" pos="480" pan="0" len="24" vol="17" />
          <note key="48" pos="672" pan="0" len="24" vol="17" />
          <note key="48" pos="864" pan="0" len="24" vol="17" />
          <note key="48" pos="1056" pan="0" len="24" vol="17" />
          <note key="48" pos="1248" pan="0" len="24" vol="17" />
          <note key="48" pos="1440" pan="0" len="24" vol="17" />
        </pattern>
        <pattern pos="155136" muted="0" steps="16" name="" type="1">
          <note key="48" pos="96" pan="0" len="24" vol="17" />
          <note key="48" pos="288" pan="0" len="24" vol="17" />
          <note key="48" pos="480" pan="0" len="24" vol="17" />
          <note key="48" pos="672" pan="0" len="24" vol="17" />
          <note key="48" pos="864" pan="0" len="24" vol="17" />
          <note key="48" pos="1056" pan="0" len="24" vol="17" />
          <note key="48" pos="1248" pan="0" len="24" vol="17" />
          <note key="48" pos="1440" pan="0" len="24" vol="17" />
        </pattern>
        <pattern pos="156672" muted="0" steps="16" name="" type="1">
          <note key="48" pos="96" pan="0" len="24" vol="17" />
          <note key="48" pos="288" pan="0" len="24" vol="17" />
          <note key="48" pos="480" pan="0" len="24" vol="17" />
          <note key="48" pos="672" pan="0" len="24" vol="17" />
          <note key="48" pos="864" pan="0" len="24" vol="17" />
          <note key="48" pos="1056" pan="0" len="24" vol="17" />
          <note key="48" pos="1248" pan="0" len="24" vol="17" />
          <note key="48" pos="1440" pan="0" len="24" vol="17" />
        </pattern>
        <pattern pos="158208" muted="0" steps="16" name="" type="1">
          <note key="48" pos="96" pan="0" len="24" vol="17" />
          <note key="48" pos="288" pan="0" len="24" vol="17" />
          <note key="48" pos="480" pan="0" len="24" vol="17" />
          <note key="48" pos="672" pan="0" len="24" vol="17" />
          <note key="48" pos="864" pan="0" len="24" vol="17" />
          <note key="48" pos="1056" pan="0" len="24" vol="17" />
          <note key="48" pos="1248" pan="0" len="24" vol="17" />
          <note key="48" pos="1440" pan="0" len="24" vol="17" />
        </pattern>
        <pattern pos="159744" muted="0" steps="16" name="" type="1">
          <note key="48" pos="96" pan="0" len="24" vol="17" />
          <note key="48" pos="288" pan="0" len="24" vol="17" />
          <note key="48" pos="480" pan="0" len="24" vol="17" />
          <note key="48" pos="672" pan="0" len="24" vol="17" />
          <note key="48" pos="864" pan="0" len="24" vol="17" />
          <note key="48" pos="1056" pan="0" len="24" vol="17" />
          <note key="48" pos="1248" pan="0" len="24" vol="17" />
          <note key="48" pos="1440" pan="0" len="24" vol="17" />
        </pattern>
        <pattern pos="161280" muted="0" steps="16" name="" type="1">
          <note key="48" pos="96" pan="0" len="24" vol="17" />
          <note key="48" pos="288" pan="0" len="24" vol="17" />
          <note key="48" pos="480" pan="0" len="24" vol="17" />
          <note key="48" pos="672" pan="0" len="24" vol="17" />
          <note key="48" pos="864" pan="0" len="24" vol="16" />
          <note key="48" pos="1056" pan="0" len="24" vol="11" />
          <note key="48" pos="1248" pan="0" len="24" vol="6" />
          <note key="48" pos="1440" pan="0" len="24" vol="2" />
        </pattern>
        <pattern pos="259968" muted="0" steps="16" name="" type="1">
          <note key="65" pos="48" pan="0" len="12" vol="100" />
          <note key="65" pos="240" pan="0" len="12" vol="100" />
          <note key="65" pos="432" pan="0" len="12" vol="100" />
          <note key="65" pos="624" pan="0" len="12" vol="100" />
        </pattern>
        <pattern pos="260736" muted="0" steps="16" name="" type="1">
          <note key="65" pos="48" pan="0" len="12" vol="100" />
          <note key="65" pos="240" pan="0" len="12" vol="100" />
          <note key="65" pos="432" pan="0" len="12" vol="100" />
          <note key="65" pos="624" pan="0" len="12" vol="100" />
        </pattern>
        <pattern pos="261504" muted="0" steps="16" name="" type="1">
          <note key="56" pos="48" pan="0" len="12" vol="100" />
          <note key="56" pos="240" pan="0" len="12" vol="100" />
          <note key="56" pos="432" pan="0" len="12" vol="100" />
          <note key="56" pos="624" pan="0" len="12" vol="100" />
        </pattern>
        <pattern pos="262272" muted="0" steps="16" name="" type="1">
          <note key="56" pos="48" pan="0" len="12" vol="100" />
          <note key="56" pos="240" pan="0" len="12" vol="100" />
          <note key="56" pos="432" pan="0" len="12" vol="100" />
          <note key="56" pos="624" pan="0" len="12" vol="100" />
        </pattern>
        <pattern pos="263040" muted="0" steps="16" name="" type="1">
          <note key="55" pos="48" pan="0" len="12" vol="100" />
          <note key="55" pos="240" pan="0" len="12" vol="100" />
          <note key="55" pos="432" pan="0" len="12" vol="100" />
          <note key="55" pos="624" pan="0" len="12" vol="100" />
        </pattern>
        <pattern pos="263808" muted="0" steps="16" name="" type="1">
          <note key="55" pos="48" pan="0" len="12" vol="100" />
          <note key="55" pos="240" pan="0" len="12" vol="100" />
          <note key="55" pos="432" pan="0" len="12" vol="100" />
          <note key="55" pos="624" pan="0" len="12" vol="100" />
        </pattern>
        <pattern pos="264576" muted="0" steps="16" name="" type="1">
          <note key="65" pos="48" pan="0" len="12" vol="100" />
          <note key="65" pos="240" pan="0" len="12" vol="100" />
          <note key="65" pos="432" pan="0" len="12" vol="100" />
          <note key="65" pos="624" pan="0" len="12" vol="100" />
        </pattern>
        <pattern pos="265344" muted="0" steps="16" name="" type="1">
          <note key="65" pos="48" pan="0" len="12" vol="100" />
          <note key="65" pos="240" pan="0" len="12" vol="100" />
          <note key="65" pos="432" pan="0" len="12" vol="100" />
          <note key="65" pos="624" pan="0" len="12" vol="100" />
        </pattern>
        <pattern pos="266112" muted="0" steps="16" name="" type="1">
          <note key="65" pos="48" pan="0" len="12" vol="100" />
          <note key="65" pos="240" pan="0" len="12" vol="100" />
          <note key="60" pos="432" pan="0" len="12" vol="100" />
          <note key="60" pos="624" pan="0" len="12" vol="100" />
          <note key="65" pos="816" pan="0" len="12" vol="100" />
          <note key="65" pos="1008" pan="0" len="12" vol="100" />
          <note key="60" pos="1200" pan="0" len="12" vol="100" />
          <note key="60" pos="1392" pan="0" len="12" vol="100" />
        </pattern>
      </track>
      <track solo="0" name="28 (Ch3)" type="0" muted="0">
        <instrumenttrack usemasterpitch="1" pitch="0.0" basenote="57" pan="0" pitchrange="12" vol="30">
          <eldata />
          <instrument name="tripleoscillator" />
        </instrumenttrack>
        <pattern pos="133632" muted="0" steps="16" name="" type="1">
          <note key="60" pos="96" pan="0" len="24" vol="100" />
          <note key="60" pos="480" pan="0" len="24" vol="100" />
          <note key="63" pos="864" pan="0" len="24" vol="100" />
          <note key="58" pos="1248" pan="0" len="24" vol="100" />
          <note key="60" pos="1440" pan="0" len="24" vol="100" />
          <note key="60" pos="1464" pan="0" len="24" vol="100" />
        </pattern>
        <pattern pos="768" muted="0" steps="16" name="" type="1">
          <note key="36" pos="168" pan="0" len="144" vol="100" />
          <note key="36" pos="552" pan="0" len="144" vol="100" />
        </pattern>
        <pattern pos="1536" muted="0" steps="16" name="" type="1">
          <note key="36" pos="168" pan="0" len="144" vol="100" />
          <note key="36" pos="552" pan="0" len="144" vol="100" />
        </pattern>
        <pattern pos="2304" muted="0" steps="16" name="" type="1">
          <note key="36" pos="168" pan="0" len="24" vol="100" />
          <note key="36" pos="552" pan="0" len="24" vol="100" />
        </pattern>
        <pattern pos="3072" muted="0" steps="16" name="" type="1">
          <note key="36" pos="168" pan="0" len="24" vol="100" />
          <note key="36" pos="552" pan="0" len="24" vol="100" />
        </pattern>
        <pattern pos="95232" muted="0" steps="16" name="" type="1">
          <note key="60" pos="96" pan="0" len="24" vol="100" />
          <note key="60" pos="480" pan="0" len="24" vol="100" />
          <note key="60" pos="864" pan="0" len="24" vol="100" />
          <note key="60" pos="1248" pan="0" len="24" vol="100" />
        </pattern>
        <pattern pos="96768" muted="0" steps="16" name="" type="1">
          <note key="60" pos="96" pan="0" len="24" vol="100" />
          <note key="60" pos="480" pan="0" len="24" vol="100" />
          <note key="60" pos="864" pan="0" len="24" vol="100" />
          <note key="60" pos="1248" pan="0" len="24" vol="100" />
        </pattern>
        <pattern pos="98304" muted="0" steps="16" name="" type="1">
          <note key="60" pos="96" pan="0" len="24" vol="100" />
          <note key="60" pos="480" pan="0" len="24" vol="100" />
          <note key="60" pos="864" pan="0" len="24" vol="100" />
          <note key="60" pos="1248" pan="0" len="24" vol="100" />
        </pattern>
        <pattern pos="99840" muted="0" steps="16" name="" type="1">
          <note key="60" pos="96" pan="0" len="24" vol="100" />
          <note key="60" pos="480" pan="0" len="24" vol="100" />
          <note key="60" pos="864" pan="0" len="24" vol="100" />
          <note key="60" pos="1248" pan="0" len="24" vol="100" />
        </pattern>
        <pattern pos="101376" muted="0" steps="16" name="" type="1">
          <note key="60" pos="96" pan="0" len="24" vol="100" />
          <note key="60" pos="480" pan="0" len="24" vol="100" />
          <note key="60" pos="864" pan="0" len="24" vol="100" />
          <note key="60" pos="1248" pan="0" len="24" vol="100" />
        </pattern>
        <pattern pos="102912" muted="0" steps="16" name="" type="1">
          <note key="60" pos="96" pan="0" len="24" vol="100" />
          <note key="60" pos="480" pan="0" len="24" vol="100" />
          <note key="60" pos="864" pan="0" len="24" vol="100" />
          <note key="60" pos="1248" pan="0" len="24" vol="100" />
        </pattern>
        <pattern pos="105984" muted="0" steps="16" name="" type="1">
          <note key="62" pos="96" pan="0" len="24" vol="0" />
          <note key="62" pos="480" pan="0" len="24" vol="3" />
          <note key="62" pos="864" pan="0" len="24" vol="19" />
          <note key="62" pos="1248" pan="0" len="24" vol="55" />
        </pattern>
        <pattern pos="107520" muted="0" steps="16" name="" type="1">
          <note key="65" pos="96" pan="0" len="24" vol="100" />
          <note key="65" pos="480" pan="0" len="24" vol="100" />
          <note key="65" pos="864" pan="0" len="24" vol="100" />
          <note key="65" pos="1248" pan="0" len="24" vol="100" />
        </pattern>
        <pattern pos="109056" muted="0" steps="16" name="" type="1">
          <note key="65" pos="96" pan="0" len="24" vol="100" />
          <note key="65" pos="480" pan="0" len="24" vol="100" />
          <note key="65" pos="864" pan="0" len="24" vol="100" />
          <note key="65" pos="1248" pan="0" len="24" vol="100" />
        </pattern>
        <pattern pos="110592" muted="0" steps="16" name="" type="1">
          <note key="63" pos="96" pan="0" len="24" vol="100" />
          <note key="63" pos="480" pan="0" len="24" vol="100" />
          <note key="63" pos="864" pan="0" len="24" vol="100" />
          <note key="63" pos="1248" pan="0" len="24" vol="100" />
        </pattern>
        <pattern pos="112128" muted="0" steps="16" name="" type="1">
          <note key="63" pos="96" pan="0" len="24" vol="100" />
          <note key="63" pos="480" pan="0" len="24" vol="100" />
          <note key="63" pos="864" pan="0" len="24" vol="100" />
          <note key="63" pos="1248" pan="0" len="24" vol="100" />
        </pattern>
        <pattern pos="118272" muted="0" steps="16" name="" type="1">
          <note key="60" pos="1152" pan="0" len="24" vol="100" />
          <note key="60" pos="1512" pan="0" len="24" vol="100" />
        </pattern>
        <pattern pos="121344" muted="0" steps="16" name="" type="1">
          <note key="60" pos="1512" pan="0" len="24" vol="100" />
        </pattern>
        <pattern pos="122880" muted="0" steps="16" name="" type="1">
          <note key="60" pos="96" pan="0" len="24" vol="100" />
          <note key="60" pos="480" pan="0" len="24" vol="100" />
          <note key="60" pos="864" pan="0" len="24" vol="100" />
          <note key="60" pos="1248" pan="0" len="24" vol="100" />
        </pattern>
        <pattern pos="124416" muted="0" steps="16" name="" type="1">
          <note key="60" pos="96" pan="0" len="24" vol="100" />
          <note key="60" pos="480" pan="0" len="24" vol="100" />
          <note key="60" pos="864" pan="0" len="24" vol="100" />
          <note key="60" pos="1248" pan="0" len="24" vol="100" />
        </pattern>
        <pattern pos="125952" muted="0" steps="16" name="" type="1">
          <note key="60" pos="96" pan="0" len="24" vol="100" />
          <note key="60" pos="480" pan="0" len="24" vol="100" />
          <note key="60" pos="864" pan="0" len="24" vol="100" />
          <note key="60" pos="1248" pan="0" len="24" vol="100" />
        </pattern>
        <pattern pos="127488" muted="0" steps="16" name="" type="1">
          <note key="60" pos="96" pan="0" len="24" vol="100" />
          <note key="60" pos="480" pan="0" len="24" vol="100" />
          <note key="60" pos="864" pan="0" len="24" vol="100" />
          <note key="60" pos="1248" pan="0" len="24" vol="100" />
        </pattern>
        <pattern pos="129024" muted="0" steps="16" name="" type="1">
          <note key="60" pos="96" pan="0" len="24" vol="100" />
          <note key="60" pos="480" pan="0" len="24" vol="100" />
          <note key="63" pos="864" pan="0" len="24" vol="100" />
          <note key="58" pos="1248" pan="0" len="24" vol="100" />
        </pattern>
        <pattern pos="130560" muted="0" steps="16" name="" type="1">
          <note key="60" pos="96" pan="0" len="24" vol="100" />
          <note key="60" pos="480" pan="0" len="24" vol="100" />
          <note key="63" pos="864" pan="0" len="24" vol="100" />
          <note key="58" pos="1248" pan="0" len="24" vol="100" />
        </pattern>
        <pattern pos="132096" muted="0" steps="16" name="" type="1">
          <note key="60" pos="96" pan="0" len="24" vol="100" />
          <note key="60" pos="480" pan="0" len="24" vol="100" />
          <note key="63" pos="864" pan="0" len="24" vol="100" />
          <note key="58" pos="1248" pan="0" len="24" vol="100" />
        </pattern>
      </track>
      <track solo="0" name="28 (Ch4)" type="0" muted="0">
        <instrumenttrack usemasterpitch="1" pitch="0.0" basenote="57" pan="0" pitchrange="12" vol="30">
          <eldata />
          <instrument name="tripleoscillator" />
        </instrumenttrack>
        <pattern pos="0" muted="0" steps="16" name="" type="1">
          <note key="36" pos="72" pan="0" len="24" vol="100" />
        </pattern>
      </track>
      <track solo="0" name="28 (Ch6)" type="0" muted="0">
        <instrumenttrack usemasterpitch="1" pitch="0.0" basenote="57" pan="0" pitchrange="12" vol="30">
          <eldata />
          <instrument name="tripleoscillator" />
        </instrumenttrack>
        <pattern pos="215040" muted="0" steps="16" name="" type="1">
          <note key="66" pos="96" pan="0" len="24" vol="100" />
          <note key="66" pos="672" pan="0" len="24" vol="100" />
          <note key="66" pos="864" pan="0" len="24" vol="100" />
          <note key="66" pos="1440" pan="0" len="24" vol="100" />
        </pattern>
        <pattern pos="198144" muted="0" steps="16" name="" type="1">
          <note key="64" pos="48" pan="0" len="12" vol="100" />
          <note key="64" pos="336" pan="0" len="12" vol="100" />
          <note key="64" pos="432" pan="0" len="12" vol="100" />
          <note key="64" pos="720" pan="0" len="12" vol="100" />
          <note key="64" pos="816" pan="0" len="12" vol="100" />
          <note key="64" pos="1104" pan="0" len="12" vol="100" />
          <note key="64" pos="1200" pan="0" len="12" vol="100" />
          <note key="64" pos="1488" pan="0" len="12" vol="100" />
        </pattern>
        <pattern pos="199680" muted="0" steps="16" name="" type="1">
          <note key="64" pos="48" pan="0" len="12" vol="100" />
          <note key="64" pos="336" pan="0" len="12" vol="100" />
          <note key="64" pos="432" pan="0" len="12" vol="100" />
          <note key="64" pos="720" pan="0" len="12" vol="100" />
          <note key="64" pos="816" pan="0" len="12" vol="100" />
          <note key="64" pos="1104" pan="0" len="12" vol="100" />
          <note key="64" pos="1200" pan="0" len="12" vol="100" />
          <note key="64" pos="1488" pan="0" len="12" vol="100" />
        </pattern>
        <pattern pos="201216" muted="0" steps="16" name="" type="1">
          <note key="64" pos="96" pan="0" len="24" vol="100" />
          <note key="64" pos="672" pan="0" len="24" vol="100" />
          <note key="64" pos="864" pan="0" len="24" vol="100" />
          <note key="64" pos="1440" pan="0" len="24" vol="100" />
        </pattern>
        <pattern pos="202752" muted="0" steps="16" name="" type="1">
          <note key="64" pos="96" pan="0" len="24" vol="100" />
          <note key="64" pos="672" pan="0" len="24" vol="100" />
          <note key="64" pos="864" pan="0" len="24" vol="100" />
          <note key="59" pos="1440" pan="0" len="24" vol="100" />
        </pattern>
        <pattern pos="204288" muted="0" steps="16" name="" type="1">
          <note key="57" pos="96" pan="0" len="24" vol="100" />
          <note key="62" pos="672" pan="0" len="24" vol="100" />
          <note key="64" pos="864" pan="0" len="24" vol="100" />
          <note key="64" pos="1440" pan="0" len="24" vol="100" />
        </pattern>
        <pattern pos="205824" muted="0" steps="16" name="" type="1">
          <note key="57" pos="96" pan="0" len="24" vol="100" />
          <note key="62" pos="672" pan="0" len="24" vol="100" />
          <note key="64" pos="864" pan="0" len="24" vol="100" />
          <note key="64" pos="1440" pan="0" len="24" vol="100" />
        </pattern>
        <pattern pos="207360" muted="0" steps="16" name="" type="1">
          <note key="64" pos="96" pan="0" len="24" vol="100" />
          <note key="64" pos="672" pan="0" len="24" vol="100" />
          <note key="64" pos="864" pan="0" len="24" vol="100" />
          <note key="64" pos="1440" pan="0" len="24" vol="100" />
        </pattern>
        <pattern pos="208896" muted="0" steps="16" name="" type="1">
          <note key="64" pos="96" pan="0" len="24" vol="100" />
          <note key="64" pos="672" pan="0" len="24" vol="100" />
          <note key="64" pos="864" pan="0" len="24" vol="100" />
          <note key="59" pos="1440" pan="0" len="24" vol="100" />
        </pattern>
        <pattern pos="210432" muted="0" steps="16" name="" type="1">
          <note key="57" pos="96" pan="0" len="24" vol="100" />
          <note key="62" pos="672" pan="0" len="24" vol="100" />
          <note key="64" pos="864" pan="0" len="24" vol="100" />
          <note key="64" pos="1440" pan="0" len="24" vol="100" />
        </pattern>
        <pattern pos="211968" muted="0" steps="16" name="" type="1">
          <note key="57" pos="96" pan="0" len="24" vol="100" />
          <note key="62" pos="672" pan="0" len="24" vol="100" />
          <note key="64" pos="864" pan="0" len="24" vol="100" />
          <note key="64" pos="1440" pan="0" len="24" vol="100" />
        </pattern>
        <pattern pos="213504" muted="0" steps="16" name="" type="1">
          <note key="66" pos="48" pan="0" len="12" vol="100" />
          <note key="66" pos="336" pan="0" len="12" vol="100" />
          <note key="66" pos="432" pan="0" len="12" vol="100" />
          <note key="66" pos="720" pan="0" len="12" vol="100" />
          <note key="66" pos="816" pan="0" len="12" vol="100" />
          <note key="66" pos="1104" pan="0" len="12" vol="100" />
          <note key="66" pos="1200" pan="0" len="12" vol="100" />
          <note key="66" pos="1488" pan="0" len="12" vol="100" />
        </pattern>
      </track>
      <track solo="0" name="28 (Ch7)" type="0" muted="0">
        <instrumenttrack usemasterpitch="1" pitch="0.0" basenote="57" pan="0" pitchrange="12" vol="30">
          <eldata />
          <instrument name="tripleoscillator" />
        </instrumenttrack>
        <pattern pos="175104" muted="0" steps="16" name="" type="1">
          <note key="48" pos="96" pan="0" len="24" vol="100" />
          <note key="48" pos="288" pan="0" len="24" vol="100" />
          <note key="48" pos="480" pan="0" len="24" vol="100" />
          <note key="48" pos="672" pan="0" len="24" vol="100" />
          <note key="48" pos="864" pan="0" len="24" vol="100" />
          <note key="48" pos="1056" pan="0" len="24" vol="83" />
          <note key="48" pos="1248" pan="0" len="24" vol="50" />
          <note key="48" pos="1440" pan="0" len="24" vol="17" />
        </pattern>
        <pattern pos="164352" muted="0" steps="16" name="" type="1">
          <note key="48" pos="96" pan="0" len="24" vol="100" />
          <note key="48" pos="288" pan="0" len="24" vol="100" />
          <note key="48" pos="480" pan="0" len="24" vol="100" />
          <note key="48" pos="672" pan="0" len="24" vol="100" />
          <note key="48" pos="864" pan="0" len="24" vol="100" />
          <note key="48" pos="1056" pan="0" len="24" vol="100" />
          <note key="48" pos="1248" pan="0" len="24" vol="100" />
          <note key="48" pos="1440" pan="0" len="24" vol="100" />
        </pattern>
        <pattern pos="165888" muted="0" steps="16" name="" type="1">
          <note key="48" pos="96" pan="0" len="24" vol="100" />
          <note key="48" pos="288" pan="0" len="24" vol="100" />
          <note key="48" pos="480" pan="0" len="24" vol="100" />
          <note key="48" pos="672" pan="0" len="24" vol="100" />
          <note key="48" pos="864" pan="0" len="24" vol="100" />
          <note key="48" pos="1056" pan="0" len="24" vol="100" />
          <note key="48" pos="1248" pan="0" len="24" vol="100" />
          <note key="48" pos="1440" pan="0" len="24" vol="100" />
        </pattern>
        <pattern pos="167424" muted="0" steps="16" name="" type="1">
          <note key="48" pos="96" pan="0" len="24" vol="100" />
          <note key="48" pos="288" pan="0" len="24" vol="100" />
          <note key="48" pos="480" pan="0" len="24" vol="100" />
          <note key="48" pos="672" pan="0" len="24" vol="100" />
          <note key="48" pos="864" pan="0" len="24" vol="100" />
          <note key="48" pos="1056" pan="0" len="24" vol="100" />
          <note key="48" pos="1248" pan="0" len="24" vol="100" />
          <note key="48" pos="1440" pan="0" len="24" vol="100" />
        </pattern>
        <pattern pos="168960" muted="0" steps="16" name="" type="1">
          <note key="48" pos="96" pan="0" len="24" vol="100" />
          <note key="48" pos="288" pan="0" len="24" vol="100" />
          <note key="48" pos="480" pan="0" len="24" vol="100" />
          <note key="48" pos="672" pan="0" len="24" vol="100" />
          <note key="48" pos="864" pan="0" len="24" vol="100" />
          <note key="48" pos="1056" pan="0" len="24" vol="100" />
          <note key="48" pos="1248" pan="0" len="24" vol="100" />
          <note key="48" pos="1440" pan="0" len="24" vol="100" />
        </pattern>
        <pattern pos="170496" muted="0" steps="16" name="" type="1">
          <note key="48" pos="96" pan="0" len="24" vol="100" />
          <note key="48" pos="288" pan="0" len="24" vol="100" />
          <note key="48" pos="480" pan="0" len="24" vol="100" />
          <note key="48" pos="672" pan="0" len="24" vol="100" />
          <note key="48" pos="864" pan="0" len="24" vol="100" />
          <note key="48" pos="1056" pan="0" len="24" vol="100" />
          <note key="48" pos="1248" pan="0" len="24" vol="100" />
          <note key="48" pos="1440" pan="0" len="24" vol="100" />
        </pattern>
        <pattern pos="172032" muted="0" steps="16" name="" type="1">
          <note key="48" pos="96" pan="0" len="24" vol="100" />
          <note key="48" pos="288" pan="0" len="24" vol="100" />
          <note key="48" pos="480" pan="0" len="24" vol="100" />
          <note key="48" pos="672" pan="0" len="24" vol="100" />
          <note key="48" pos="864" pan="0" len="24" vol="100" />
          <note key="48" pos="1056" pan="0" len="24" vol="100" />
          <note key="48" pos="1248" pan="0" len="24" vol="100" />
          <note key="48" pos="1440" pan="0" len="24" vol="100" />
        </pattern>
        <pattern pos="173568" muted="0" steps="16" name="" type="1">
          <note key="48" pos="96" pan="0" len="24" vol="100" />
          <note key="48" pos="288" pan="0" len="24" vol="100" />
          <note key="48" pos="480" pan="0" len="24" vol="100" />
          <note key="48" pos="672" pan="0" len="24" vol="100" />
          <note key="48" pos="864" pan="0" len="24" vol="100" />
          <note key="48" pos="1056" pan="0" len="24" vol="100" />
          <note key="48" pos="1248" pan="0" len="24" vol="100" />
          <note key="48" pos="1440" pan="0" len="24" vol="100" />
        </pattern>
      </track>
      <track solo="0" name="28 (Ch8)" type="0" muted="0">
        <instrumenttrack usemasterpitch="1" pitch="0.0" basenote="57" pan="0" pitchrange="12" vol="30">
          <eldata />
          <instrument name="tripleoscillator" />
        </instrumenttrack>
        <pattern pos="256896" muted="0" steps="16" name="" type="1">
          <note key="60" pos="120" pan="0" len="24" vol="34" />
          <note key="60" pos="504" pan="0" len="24" vol="34" />
          <note key="60" pos="888" pan="0" len="24" vol="34" />
          <note key="60" pos="1236" pan="0" len="12" vol="100" />
          <note key="60" pos="1272" pan="0" len="24" vol="34" />
          <note key="60" pos="1440" pan="0" len="72" vol="100" />
        </pattern>
        <pattern pos="196608" muted="0" steps="16" name="" type="1">
          <note key="64" pos="816" pan="0" len="12" vol="8" />
          <note key="64" pos="1104" pan="0" len="12" vol="45" />
          <note key="64" pos="1200" pan="0" len="12" vol="58" />
          <note key="64" pos="1488" pan="0" len="12" vol="95" />
        </pattern>
        <pattern pos="241536" muted="0" steps="16" name="" type="1">
          <note key="60" pos="120" pan="0" len="24" vol="34" />
          <note key="60" pos="504" pan="0" len="24" vol="34" />
          <note key="60" pos="888" pan="0" len="24" vol="34" />
          <note key="60" pos="1272" pan="0" len="24" vol="34" />
        </pattern>
        <pattern pos="243072" muted="0" steps="16" name="" type="1">
          <note key="60" pos="120" pan="0" len="24" vol="34" />
          <note key="60" pos="504" pan="0" len="24" vol="34" />
          <note key="60" pos="888" pan="0" len="24" vol="34" />
          <note key="60" pos="1236" pan="0" len="12" vol="100" />
          <note key="60" pos="1272" pan="0" len="24" vol="34" />
          <note key="60" pos="1440" pan="0" len="72" vol="100" />
        </pattern>
        <pattern pos="244608" muted="0" steps="16" name="" type="1">
          <note key="60" pos="120" pan="0" len="24" vol="34" />
          <note key="60" pos="504" pan="0" len="24" vol="34" />
          <note key="60" pos="888" pan="0" len="24" vol="34" />
          <note key="60" pos="1272" pan="0" len="24" vol="34" />
        </pattern>
        <pattern pos="246144" muted="0" steps="16" name="" type="1">
          <note key="60" pos="120" pan="0" len="24" vol="34" />
          <note key="60" pos="504" pan="0" len="24" vol="34" />
          <note key="60" pos="888" pan="0" len="24" vol="34" />
          <note key="60" pos="1272" pan="0" len="24" vol="34" />
          <note key="60" pos="1488" pan="0" len="24" vol="100" />
        </pattern>
        <pattern pos="249216" muted="0" steps="16" name="" type="1">
          <note key="60" pos="120" pan="0" len="24" vol="34" />
          <note key="60" pos="504" pan="0" len="24" vol="34" />
          <note key="60" pos="888" pan="0" len="24" vol="34" />
          <note key="60" pos="1272" pan="0" len="24" vol="34" />
        </pattern>
        <pattern pos="250752" muted="0" steps="16" name="" type="1">
          <note key="60" pos="120" pan="0" len="24" vol="34" />
          <note key="60" pos="504" pan="0" len="24" vol="34" />
          <note key="60" pos="888" pan="0" len="24" vol="34" />
          <note key="60" pos="1272" pan="0" len="24" vol="34" />
          <note key="60" pos="1488" pan="0" len="24" vol="100" />
        </pattern>
        <pattern pos="252288" muted="0" steps="16" name="" type="1">
          <note key="60" pos="120" pan="0" len="24" vol="34" />
          <note key="60" pos="504" pan="0" len="24" vol="34" />
          <note key="60" pos="888" pan="0" len="24" vol="34" />
          <note key="60" pos="1272" pan="0" len="24" vol="34" />
        </pattern>
        <pattern pos="253824" muted="0" steps="16" name="" type="1">
          <note key="60" pos="120" pan="0" len="24" vol="34" />
          <note key="60" pos="504" pan="0" len="24" vol="34" />
          <note key="60" pos="888" pan="0" len="24" vol="34" />
          <note key="60" pos="1272" pan="0" len="24" vol="34" />
          <note key="60" pos="1488" pan="0" len="24" vol="100" />
        </pattern>
        <pattern pos="255360" muted="0" steps="16" name="" type="1">
          <note key="60" pos="120" pan="0" len="24" vol="34" />
          <note key="60" pos="504" pan="0" len="24" vol="34" />
          <note key="60" pos="888" pan="0" len="24" vol="34" />
          <note key="60" pos="1272" pan="0" len="24" vol="34" />
        </pattern>
      </track>
      <track solo="0" name="28 (Ch9)" type="0" muted="0">
        <instrumenttrack usemasterpitch="1" pitch="0.0" basenote="57" pan="0" pitchrange="12" vol="30">
          <eldata />
          <instrument name="tripleoscillator" />
        </instrumenttrack>
        <pattern pos="247680" muted="0" steps="16" name="" type="1">
          <note key="60" pos="1464" pan="0" len="12" vol="17" />
        </pattern>
        <pattern pos="240000" muted="0" steps="16" name="" type="1">
          <note key="60" pos="1464" pan="0" len="12" vol="17" />
        </pattern>
      </track>
      <track solo="0" name="28 (Ch11)" type="0" muted="0">
        <instrumenttrack usemasterpitch="1" pitch="0.0" basenote="57" pan="0" pitchrange="12" vol="30">
          <eldata />
          <instrument name="tripleoscillator" />
        </instrumenttrack>
        <pattern pos="196608" muted="0" steps="16" name="" type="1">
          <note key="64" pos="180" pan="0" len="12" vol="17" />
          <note key="64" pos="372" pan="0" len="12" vol="17" />
          <note key="64" pos="564" pan="0" len="12" vol="17" />
          <note key="64" pos="756" pan="0" len="12" vol="14" />
          <note key="64" pos="948" pan="0" len="12" vol="11" />
          <note key="64" pos="1140" pan="0" len="12" vol="8" />
          <note key="64" pos="1332" pan="0" len="12" vol="3" />
          <note key="64" pos="1524" pan="0" len="12" vol="0" />
        </pattern>
        <pattern pos="190464" muted="0" steps="16" name="" type="1">
          <note key="64" pos="180" pan="0" len="12" vol="17" />
          <note key="64" pos="372" pan="0" len="12" vol="17" />
          <note key="64" pos="564" pan="0" len="12" vol="17" />
          <note key="64" pos="756" pan="0" len="12" vol="17" />
          <note key="64" pos="948" pan="0" len="12" vol="17" />
          <note key="64" pos="1140" pan="0" len="12" vol="17" />
          <note key="64" pos="1332" pan="0" len="12" vol="17" />
          <note key="64" pos="1524" pan="0" len="12" vol="17" />
        </pattern>
        <pattern pos="192000" muted="0" steps="16" name="" type="1">
          <note key="64" pos="180" pan="0" len="12" vol="17" />
          <note key="64" pos="372" pan="0" len="12" vol="17" />
          <note key="64" pos="564" pan="0" len="12" vol="17" />
          <note key="64" pos="756" pan="0" len="12" vol="17" />
          <note key="64" pos="948" pan="0" len="12" vol="17" />
          <note key="64" pos="1140" pan="0" len="12" vol="17" />
          <note key="64" pos="1332" pan="0" len="12" vol="17" />
          <note key="64" pos="1524" pan="0" len="12" vol="17" />
        </pattern>
        <pattern pos="195072" muted="0" steps="16" name="" type="1">
          <note key="64" pos="180" pan="0" len="12" vol="17" />
          <note key="64" pos="372" pan="0" len="12" vol="17" />
          <note key="64" pos="564" pan="0" len="12" vol="17" />
          <note key="64" pos="756" pan="0" len="12" vol="17" />
          <note key="64" pos="948" pan="0" len="12" vol="17" />
          <note key="64" pos="1140" pan="0" len="12" vol="17" />
          <note key="64" pos="1332" pan="0" len="12" vol="17" />
          <note key="64" pos="1524" pan="0" len="12" vol="17" />
        </pattern>
      </track>
      <track solo="0" name="29 (Ch2)" type="0" muted="0">
        <instrumenttrack usemasterpitch="1" pitch="0.0" basenote="57" pan="0" pitchrange="12" vol="30">
          <eldata />
          <instrument name="tripleoscillator" />
        </instrumenttrack>
        <pattern pos="91392" muted="0" steps="16" name="" type="1">
          <note key="60" pos="72" pan="0" len="12" vol="8" />
          <note key="60" pos="264" pan="0" len="12" vol="5" />
          <note key="60" pos="456" pan="0" len="12" vol="3" />
          <note key="60" pos="648" pan="0" len="12" vol="2" />
        </pattern>
        <pattern pos="76800" muted="0" steps="16" name="" type="1">
          <note key="60" pos="72" pan="0" len="12" vol="8" />
          <note key="60" pos="264" pan="0" len="12" vol="8" />
          <note key="60" pos="456" pan="0" len="12" vol="8" />
          <note key="60" pos="648" pan="0" len="12" vol="8" />
        </pattern>
        <pattern pos="77568" muted="0" steps="16" name="" type="1">
          <note key="60" pos="72" pan="0" len="12" vol="8" />
          <note key="60" pos="264" pan="0" len="12" vol="8" />
          <note key="60" pos="456" pan="0" len="12" vol="8" />
          <note key="60" pos="648" pan="0" len="12" vol="8" />
        </pattern>
        <pattern pos="78336" muted="0" steps="16" name="" type="1">
          <note key="60" pos="72" pan="0" len="12" vol="8" />
          <note key="60" pos="264" pan="0" len="12" vol="8" />
          <note key="60" pos="456" pan="0" len="12" vol="8" />
          <note key="60" pos="648" pan="0" len="12" vol="8" />
        </pattern>
        <pattern pos="79104" muted="0" steps="16" name="" type="1">
          <note key="60" pos="72" pan="0" len="12" vol="8" />
          <note key="60" pos="264" pan="0" len="12" vol="8" />
          <note key="60" pos="456" pan="0" len="12" vol="8" />
          <note key="60" pos="648" pan="0" len="12" vol="8" />
        </pattern>
        <pattern pos="79872" muted="0" steps="16" name="" type="1">
          <note key="60" pos="72" pan="0" len="12" vol="8" />
          <note key="60" pos="264" pan="0" len="12" vol="8" />
          <note key="60" pos="456" pan="0" len="12" vol="8" />
          <note key="60" pos="648" pan="0" len="12" vol="8" />
        </pattern>
        <pattern pos="80640" muted="0" steps="16" name="" type="1">
          <note key="60" pos="72" pan="0" len="12" vol="8" />
          <note key="60" pos="264" pan="0" len="12" vol="8" />
          <note key="60" pos="456" pan="0" len="12" vol="8" />
          <note key="60" pos="648" pan="0" len="12" vol="8" />
        </pattern>
        <pattern pos="81408" muted="0" steps="16" name="" type="1">
          <note key="60" pos="72" pan="0" len="12" vol="8" />
          <note key="60" pos="264" pan="0" len="12" vol="8" />
          <note key="60" pos="456" pan="0" len="12" vol="8" />
          <note key="60" pos="648" pan="0" len="12" vol="8" />
        </pattern>
        <pattern pos="82176" muted="0" steps="16" name="" type="1">
          <note key="60" pos="72" pan="0" len="12" vol="8" />
          <note key="60" pos="264" pan="0" len="12" vol="8" />
          <note key="60" pos="456" pan="0" len="12" vol="8" />
          <note key="60" pos="648" pan="0" len="12" vol="8" />
        </pattern>
        <pattern pos="82944" muted="0" steps="16" name="" type="1">
          <note key="60" pos="72" pan="0" len="12" vol="8" />
          <note key="60" pos="264" pan="0" len="12" vol="8" />
          <note key="60" pos="456" pan="0" len="12" vol="8" />
          <note key="60" pos="648" pan="0" len="12" vol="8" />
        </pattern>
        <pattern pos="83712" muted="0" steps="16" name="" type="1">
          <note key="60" pos="72" pan="0" len="12" vol="8" />
          <note key="60" pos="264" pan="0" len="12" vol="8" />
          <note key="60" pos="456" pan="0" len="12" vol="8" />
          <note key="60" pos="648" pan="0" len="12" vol="8" />
        </pattern>
        <pattern pos="86016" muted="0" steps="16" name="" type="1">
          <note key="60" pos="72" pan="0" len="12" vol="8" />
          <note key="60" pos="264" pan="0" len="12" vol="8" />
          <note key="60" pos="456" pan="0" len="12" vol="8" />
          <note key="60" pos="648" pan="0" len="12" vol="8" />
        </pattern>
        <pattern pos="86784" muted="0" steps="16" name="" type="1">
          <note key="60" pos="72" pan="0" len="12" vol="8" />
          <note key="60" pos="264" pan="0" len="12" vol="8" />
          <note key="60" pos="456" pan="0" len="12" vol="8" />
          <note key="60" pos="648" pan="0" len="12" vol="8" />
        </pattern>
        <pattern pos="87552" muted="0" steps="16" name="" type="1">
          <note key="60" pos="72" pan="0" len="12" vol="8" />
          <note key="60" pos="264" pan="0" len="12" vol="8" />
          <note key="60" pos="456" pan="0" len="12" vol="8" />
          <note key="60" pos="648" pan="0" len="12" vol="8" />
        </pattern>
        <pattern pos="88320" muted="0" steps="16" name="" type="1">
          <note key="60" pos="72" pan="0" len="12" vol="8" />
          <note key="60" pos="264" pan="0" len="12" vol="8" />
          <note key="60" pos="456" pan="0" len="12" vol="8" />
          <note key="60" pos="648" pan="0" len="12" vol="8" />
        </pattern>
        <pattern pos="89088" muted="0" steps="16" name="" type="1">
          <note key="60" pos="72" pan="0" len="12" vol="8" />
          <note key="60" pos="264" pan="0" len="12" vol="8" />
          <note key="60" pos="456" pan="0" len="12" vol="8" />
          <note key="60" pos="648" pan="0" len="12" vol="8" />
        </pattern>
        <pattern pos="89856" muted="0" steps="16" name="" type="1">
          <note key="60" pos="72" pan="0" len="12" vol="8" />
          <note key="60" pos="264" pan="0" len="12" vol="8" />
          <note key="60" pos="456" pan="0" len="12" vol="8" />
          <note key="60" pos="648" pan="0" len="12" vol="8" />
        </pattern>
        <pattern pos="90624" muted="0" steps="16" name="" type="1">
          <note key="60" pos="72" pan="0" len="12" vol="8" />
          <note key="60" pos="264" pan="0" len="12" vol="8" />
          <note key="60" pos="456" pan="0" len="12" vol="8" />
          <note key="60" pos="648" pan="0" len="12" vol="8" />
        </pattern>
      </track>
      <track solo="0" name="29 (Ch3)" type="0" muted="0">
        <instrumenttrack usemasterpitch="1" pitch="0.0" basenote="57" pan="0" pitchrange="12" vol="30">
          <eldata />
          <instrument name="tripleoscillator" />
        </instrumenttrack>
        <pattern pos="121344" muted="0" steps="16" name="" type="1">
          <note key="60" pos="1392" pan="0" len="24" vol="100" />
        </pattern>
        <pattern pos="116736" muted="0" steps="16" name="" type="1">
          <note key="60" pos="240" pan="0" len="24" vol="100" />
          <note key="60" pos="624" pan="0" len="24" vol="100" />
          <note key="60" pos="1008" pan="0" len="24" vol="100" />
          <note key="60" pos="1392" pan="0" len="24" vol="100" />
        </pattern>
        <pattern pos="118272" muted="0" steps="16" name="" type="1">
          <note key="60" pos="240" pan="0" len="24" vol="100" />
          <note key="60" pos="624" pan="0" len="24" vol="100" />
          <note key="60" pos="1008" pan="0" len="24" vol="100" />
          <note key="60" pos="1392" pan="0" len="24" vol="100" />
        </pattern>
      </track>
      <track solo="0" name="29 (Ch4)" type="0" muted="0">
        <instrumenttrack usemasterpitch="1" pitch="0.0" basenote="57" pan="0" pitchrange="12" vol="30">
          <eldata />
          <instrument name="tripleoscillator" />
        </instrumenttrack>
        <pattern pos="0" muted="0" steps="16" name="" type="1">
          <note key="36" pos="96" pan="0" len="672" vol="100" />
        </pattern>
      </track>
      <track solo="0" name="29 (Ch8)" type="0" muted="0">
        <instrumenttrack usemasterpitch="1" pitch="0.0" basenote="57" pan="0" pitchrange="12" vol="30">
          <eldata />
          <instrument name="tripleoscillator" />
        </instrumenttrack>
        <pattern pos="256896" muted="0" steps="16" name="" type="1">
          <note key="60" pos="168" pan="0" len="24" vol="100" />
          <note key="60" pos="552" pan="0" len="24" vol="100" />
          <note key="60" pos="936" pan="0" len="24" vol="100" />
          <note key="60" pos="1320" pan="0" len="24" vol="100" />
        </pattern>
        <pattern pos="227520" muted="0" steps="16" name="" type="1">
          <note key="60" pos="24" pan="0" len="24" vol="100" />
          <note key="60" pos="120" pan="0" len="24" vol="17" />
          <note key="62" pos="216" pan="0" len="24" vol="17" />
          <note key="62" pos="312" pan="0" len="24" vol="17" />
          <note key="63" pos="408" pan="0" len="24" vol="17" />
          <note key="63" pos="504" pan="0" len="24" vol="17" />
          <note key="65" pos="600" pan="0" len="24" vol="100" />
          <note key="65" pos="696" pan="0" len="24" vol="17" />
          <note key="60" pos="792" pan="0" len="24" vol="100" />
          <note key="60" pos="888" pan="0" len="24" vol="17" />
          <note key="62" pos="984" pan="0" len="24" vol="17" />
          <note key="62" pos="1080" pan="0" len="24" vol="17" />
          <note key="63" pos="1176" pan="0" len="24" vol="17" />
          <note key="63" pos="1272" pan="0" len="24" vol="17" />
          <note key="65" pos="1368" pan="0" len="24" vol="100" />
          <note key="65" pos="1464" pan="0" len="24" vol="17" />
        </pattern>
        <pattern pos="229056" muted="0" steps="16" name="" type="1">
          <note key="60" pos="24" pan="0" len="24" vol="100" />
          <note key="60" pos="120" pan="0" len="24" vol="17" />
          <note key="62" pos="216" pan="0" len="24" vol="17" />
          <note key="62" pos="312" pan="0" len="24" vol="17" />
          <note key="63" pos="408" pan="0" len="24" vol="17" />
          <note key="63" pos="504" pan="0" len="24" vol="17" />
          <note key="65" pos="600" pan="0" len="24" vol="100" />
          <note key="65" pos="696" pan="0" len="24" vol="17" />
          <note key="60" pos="792" pan="0" len="24" vol="100" />
          <note key="60" pos="888" pan="0" len="24" vol="17" />
          <note key="62" pos="984" pan="0" len="24" vol="17" />
          <note key="62" pos="1080" pan="0" len="24" vol="17" />
          <note key="63" pos="1176" pan="0" len="24" vol="17" />
          <note key="63" pos="1272" pan="0" len="24" vol="17" />
          <note key="65" pos="1368" pan="0" len="24" vol="100" />
          <note key="65" pos="1464" pan="0" len="24" vol="17" />
        </pattern>
        <pattern pos="241536" muted="0" steps="16" name="" type="1">
          <note key="60" pos="168" pan="0" len="24" vol="100" />
          <note key="60" pos="552" pan="0" len="24" vol="100" />
          <note key="60" pos="936" pan="0" len="24" vol="100" />
          <note key="60" pos="1320" pan="0" len="24" vol="100" />
        </pattern>
        <pattern pos="243072" muted="0" steps="16" name="" type="1">
          <note key="60" pos="168" pan="0" len="24" vol="100" />
          <note key="60" pos="552" pan="0" len="24" vol="100" />
          <note key="60" pos="936" pan="0" len="24" vol="100" />
          <note key="60" pos="1320" pan="0" len="24" vol="100" />
        </pattern>
        <pattern pos="244608" muted="0" steps="16" name="" type="1">
          <note key="60" pos="168" pan="0" len="24" vol="100" />
          <note key="60" pos="552" pan="0" len="24" vol="100" />
          <note key="60" pos="936" pan="0" len="24" vol="100" />
          <note key="60" pos="1320" pan="0" len="24" vol="100" />
        </pattern>
        <pattern pos="246144" muted="0" steps="16" name="" type="1">
          <note key="60" pos="168" pan="0" len="24" vol="100" />
          <note key="60" pos="552" pan="0" len="24" vol="100" />
          <note key="60" pos="936" pan="0" len="24" vol="100" />
          <note key="60" pos="1320" pan="0" len="24" vol="100" />
        </pattern>
        <pattern pos="249216" muted="0" steps="16" name="" type="1">
          <note key="60" pos="168" pan="0" len="24" vol="100" />
          <note key="60" pos="552" pan="0" len="24" vol="100" />
          <note key="60" pos="936" pan="0" len="24" vol="100" />
          <note key="60" pos="1320" pan="0" len="24" vol="100" />
        </pattern>
        <pattern pos="250752" muted="0" steps="16" name="" type="1">
          <note key="60" pos="168" pan="0" len="24" vol="100" />
          <note key="60" pos="552" pan="0" len="24" vol="100" />
          <note key="60" pos="936" pan="0" len="24" vol="100" />
          <note key="60" pos="1320" pan="0" len="24" vol="100" />
        </pattern>
        <pattern pos="252288" muted="0" steps="16" name="" type="1">
          <note key="60" pos="168" pan="0" len="24" vol="100" />
          <note key="60" pos="552" pan="0" len="24" vol="100" />
          <note key="60" pos="936" pan="0" len="24" vol="100" />
          <note key="60" pos="1320" pan="0" len="24" vol="100" />
        </pattern>
        <pattern pos="253824" muted="0" steps="16" name="" type="1">
          <note key="60" pos="168" pan="0" len="24" vol="100" />
          <note key="60" pos="552" pan="0" len="24" vol="100" />
          <note key="60" pos="936" pan="0" len="24" vol="100" />
          <note key="60" pos="1320" pan="0" len="24" vol="100" />
        </pattern>
        <pattern pos="255360" muted="0" steps="16" name="" type="1">
          <note key="60" pos="168" pan="0" len="24" vol="100" />
          <note key="60" pos="552" pan="0" len="24" vol="100" />
          <note key="60" pos="936" pan="0" len="24" vol="100" />
          <note key="60" pos="1320" pan="0" len="24" vol="100" />
        </pattern>
      </track>
      <track solo="0" name="29 (Ch9)" type="0" muted="0">
        <instrumenttrack usemasterpitch="1" pitch="0.0" basenote="57" pan="0" pitchrange="12" vol="30">
          <eldata />
          <instrument name="tripleoscillator" />
        </instrumenttrack>
        <pattern pos="235200" muted="0" steps="16" name="" type="1">
          <note key="67" pos="24" pan="0" len="24" vol="17" />
          <note key="67" pos="120" pan="0" len="24" vol="17" />
          <note key="65" pos="216" pan="0" len="24" vol="100" />
          <note key="65" pos="312" pan="0" len="24" vol="17" />
          <note key="63" pos="408" pan="0" len="24" vol="17" />
          <note key="63" pos="504" pan="0" len="24" vol="17" />
          <note key="60" pos="600" pan="0" len="24" vol="100" />
          <note key="65" pos="696" pan="0" len="24" vol="17" />
          <note key="67" pos="792" pan="0" len="24" vol="17" />
          <note key="67" pos="888" pan="0" len="24" vol="17" />
          <note key="65" pos="984" pan="0" len="24" vol="100" />
          <note key="65" pos="1080" pan="0" len="24" vol="17" />
          <note key="63" pos="1176" pan="0" len="24" vol="17" />
          <note key="63" pos="1272" pan="0" len="24" vol="17" />
          <note key="60" pos="1368" pan="0" len="24" vol="100" />
          <note key="65" pos="1464" pan="0" len="24" vol="17" />
        </pattern>
        <pattern pos="224448" muted="0" steps="16" name="" type="1">
          <note key="67" pos="24" pan="0" len="24" vol="17" />
          <note key="67" pos="120" pan="0" len="24" vol="17" />
          <note key="65" pos="216" pan="0" len="24" vol="100" />
          <note key="65" pos="312" pan="0" len="24" vol="17" />
          <note key="63" pos="408" pan="0" len="24" vol="17" />
          <note key="63" pos="504" pan="0" len="24" vol="17" />
          <note key="60" pos="600" pan="0" len="24" vol="100" />
          <note key="65" pos="696" pan="0" len="24" vol="17" />
          <note key="67" pos="792" pan="0" len="24" vol="17" />
          <note key="67" pos="888" pan="0" len="24" vol="17" />
          <note key="65" pos="984" pan="0" len="24" vol="100" />
          <note key="65" pos="1080" pan="0" len="24" vol="17" />
          <note key="63" pos="1176" pan="0" len="24" vol="17" />
          <note key="63" pos="1272" pan="0" len="24" vol="17" />
          <note key="60" pos="1368" pan="0" len="24" vol="100" />
          <note key="65" pos="1464" pan="0" len="24" vol="17" />
        </pattern>
        <pattern pos="225984" muted="0" steps="16" name="" type="1">
          <note key="67" pos="24" pan="0" len="24" vol="17" />
          <note key="67" pos="120" pan="0" len="24" vol="17" />
          <note key="65" pos="216" pan="0" len="24" vol="100" />
          <note key="65" pos="312" pan="0" len="24" vol="17" />
          <note key="63" pos="408" pan="0" len="24" vol="17" />
          <note key="63" pos="504" pan="0" len="24" vol="17" />
          <note key="60" pos="600" pan="0" len="24" vol="100" />
          <note key="65" pos="696" pan="0" len="24" vol="17" />
          <note key="67" pos="792" pan="0" len="24" vol="17" />
          <note key="67" pos="888" pan="0" len="24" vol="17" />
          <note key="65" pos="984" pan="0" len="24" vol="100" />
          <note key="65" pos="1080" pan="0" len="24" vol="17" />
          <note key="63" pos="1176" pan="0" len="24" vol="17" />
          <note key="63" pos="1272" pan="0" len="24" vol="17" />
          <note key="60" pos="1368" pan="0" len="24" vol="100" />
          <note key="65" pos="1464" pan="0" len="24" vol="17" />
        </pattern>
        <pattern pos="230592" muted="0" steps="16" name="" type="1">
          <note key="67" pos="24" pan="0" len="24" vol="17" />
          <note key="67" pos="120" pan="0" len="24" vol="17" />
          <note key="65" pos="216" pan="0" len="24" vol="100" />
          <note key="65" pos="312" pan="0" len="24" vol="17" />
          <note key="63" pos="408" pan="0" len="24" vol="17" />
          <note key="63" pos="504" pan="0" len="24" vol="17" />
          <note key="65" pos="600" pan="0" len="24" vol="100" />
          <note key="65" pos="696" pan="0" len="24" vol="17" />
          <note key="60" pos="792" pan="0" len="24" vol="100" />
          <note key="60" pos="888" pan="0" len="24" vol="17" />
          <note key="62" pos="984" pan="0" len="24" vol="100" />
          <note key="62" pos="1080" pan="0" len="24" vol="17" />
          <note key="63" pos="1176" pan="0" len="24" vol="17" />
          <note key="63" pos="1272" pan="0" len="24" vol="17" />
          <note key="65" pos="1368" pan="0" len="24" vol="100" />
          <note key="65" pos="1464" pan="0" len="24" vol="17" />
        </pattern>
        <pattern pos="232128" muted="0" steps="16" name="" type="1">
          <note key="67" pos="24" pan="0" len="24" vol="17" />
          <note key="67" pos="120" pan="0" len="24" vol="17" />
          <note key="65" pos="216" pan="0" len="24" vol="100" />
          <note key="65" pos="312" pan="0" len="24" vol="17" />
          <note key="63" pos="408" pan="0" len="24" vol="17" />
          <note key="63" pos="504" pan="0" len="24" vol="17" />
          <note key="65" pos="600" pan="0" len="24" vol="100" />
          <note key="65" pos="696" pan="0" len="24" vol="17" />
          <note key="60" pos="792" pan="0" len="24" vol="100" />
          <note key="60" pos="888" pan="0" len="24" vol="17" />
          <note key="62" pos="984" pan="0" len="24" vol="100" />
          <note key="62" pos="1080" pan="0" len="24" vol="17" />
          <note key="67" pos="1176" pan="0" len="24" vol="17" />
          <note key="67" pos="1272" pan="0" len="24" vol="17" />
          <note key="67" pos="1368" pan="0" len="24" vol="100" />
          <note key="67" pos="1464" pan="0" len="24" vol="17" />
        </pattern>
        <pattern pos="233664" muted="0" steps="16" name="" type="1">
          <note key="67" pos="24" pan="0" len="24" vol="17" />
          <note key="67" pos="120" pan="0" len="24" vol="17" />
          <note key="65" pos="216" pan="0" len="24" vol="100" />
          <note key="65" pos="312" pan="0" len="24" vol="17" />
          <note key="63" pos="408" pan="0" len="24" vol="17" />
          <note key="63" pos="504" pan="0" len="24" vol="17" />
          <note key="60" pos="600" pan="0" len="24" vol="100" />
          <note key="65" pos="696" pan="0" len="24" vol="17" />
          <note key="67" pos="792" pan="0" len="24" vol="17" />
          <note key="67" pos="888" pan="0" len="24" vol="17" />
          <note key="65" pos="984" pan="0" len="24" vol="100" />
          <note key="65" pos="1080" pan="0" len="24" vol="17" />
          <note key="63" pos="1176" pan="0" len="24" vol="17" />
          <note key="63" pos="1272" pan="0" len="24" vol="17" />
          <note key="60" pos="1368" pan="0" len="24" vol="100" />
          <note key="65" pos="1464" pan="0" len="24" vol="17" />
        </pattern>
      </track>
      <track solo="0" name="30 (Ch1)" type="0" muted="0">
        <instrumenttrack usemasterpitch="1" pitch="0.0" basenote="57" pan="0" pitchrange="12" vol="30">
          <eldata />
          <instrument name="tripleoscillator" />
        </instrumenttrack>
        <pattern pos="16128" muted="0" steps="16" name="" type="1">
          <note key="60" pos="156" pan="0" len="12" vol="100" />
          <note key="60" pos="348" pan="0" len="12" vol="100" />
          <note key="60" pos="540" pan="0" len="12" vol="100" />
          <note key="60" pos="732" pan="0" len="12" vol="100" />
          <note key="60" pos="924" pan="0" len="12" vol="100" />
          <note key="60" pos="1116" pan="0" len="12" vol="100" />
          <note key="60" pos="1308" pan="0" len="12" vol="100" />
        </pattern>
        <pattern pos="6912" muted="0" steps="16" name="" type="1">
          <note key="60" pos="156" pan="0" len="12" vol="100" />
          <note key="60" pos="348" pan="0" len="12" vol="100" />
          <note key="60" pos="540" pan="0" len="12" vol="100" />
          <note key="60" pos="732" pan="0" len="12" vol="100" />
        </pattern>
        <pattern pos="7680" muted="0" steps="16" name="" type="1">
          <note key="60" pos="156" pan="0" len="12" vol="100" />
          <note key="60" pos="348" pan="0" len="12" vol="100" />
          <note key="60" pos="540" pan="0" len="12" vol="100" />
          <note key="60" pos="732" pan="0" len="12" vol="100" />
        </pattern>
        <pattern pos="8448" muted="0" steps="16" name="" type="1">
          <note key="60" pos="156" pan="0" len="12" vol="100" />
          <note key="60" pos="348" pan="0" len="12" vol="100" />
          <note key="60" pos="540" pan="0" len="12" vol="100" />
          <note key="60" pos="732" pan="0" len="12" vol="100" />
        </pattern>
        <pattern pos="9216" muted="0" steps="16" name="" type="1">
          <note key="60" pos="156" pan="0" len="12" vol="100" />
          <note key="60" pos="348" pan="0" len="12" vol="100" />
          <note key="60" pos="540" pan="0" len="12" vol="100" />
          <note key="60" pos="732" pan="0" len="12" vol="100" />
        </pattern>
        <pattern pos="9984" muted="0" steps="16" name="" type="1">
          <note key="60" pos="156" pan="0" len="12" vol="100" />
          <note key="60" pos="348" pan="0" len="12" vol="100" />
          <note key="60" pos="540" pan="0" len="12" vol="100" />
          <note key="60" pos="732" pan="0" len="12" vol="100" />
        </pattern>
        <pattern pos="10752" muted="0" steps="16" name="" type="1">
          <note key="60" pos="156" pan="0" len="12" vol="100" />
          <note key="60" pos="348" pan="0" len="12" vol="100" />
          <note key="60" pos="540" pan="0" len="12" vol="100" />
        </pattern>
        <pattern pos="11520" muted="0" steps="16" name="" type="1">
          <note key="60" pos="156" pan="0" len="12" vol="100" />
          <note key="60" pos="348" pan="0" len="12" vol="100" />
          <note key="60" pos="540" pan="0" len="12" vol="100" />
          <note key="60" pos="732" pan="0" len="12" vol="100" />
          <note key="60" pos="924" pan="0" len="12" vol="100" />
          <note key="60" pos="1116" pan="0" len="12" vol="100" />
          <note key="60" pos="1308" pan="0" len="12" vol="100" />
          <note key="60" pos="1500" pan="0" len="12" vol="100" />
        </pattern>
        <pattern pos="13056" muted="0" steps="16" name="" type="1">
          <note key="60" pos="156" pan="0" len="12" vol="100" />
          <note key="60" pos="348" pan="0" len="12" vol="100" />
          <note key="60" pos="540" pan="0" len="12" vol="100" />
          <note key="60" pos="732" pan="0" len="12" vol="100" />
          <note key="60" pos="924" pan="0" len="12" vol="100" />
          <note key="60" pos="1116" pan="0" len="12" vol="100" />
          <note key="60" pos="1308" pan="0" len="12" vol="100" />
        </pattern>
        <pattern pos="14592" muted="0" steps="16" name="" type="1">
          <note key="60" pos="156" pan="0" len="12" vol="100" />
          <note key="60" pos="348" pan="0" len="12" vol="100" />
          <note key="60" pos="540" pan="0" len="12" vol="100" />
          <note key="60" pos="732" pan="0" len="12" vol="100" />
          <note key="60" pos="924" pan="0" len="12" vol="100" />
          <note key="60" pos="1116" pan="0" len="12" vol="100" />
          <note key="60" pos="1308" pan="0" len="12" vol="100" />
          <note key="60" pos="1500" pan="0" len="12" vol="100" />
        </pattern>
      </track>
      <track solo="0" name="30 (Ch2)" type="0" muted="0">
        <instrumenttrack usemasterpitch="1" pitch="0.0" basenote="57" pan="0" pitchrange="12" vol="30">
          <eldata />
          <instrument name="tripleoscillator" />
        </instrumenttrack>
        <pattern pos="267648" muted="0" steps="16" name="" type="1">
          <note key="63" pos="24" pan="0" len="12" vol="100" />
          <note key="63" pos="216" pan="0" len="12" vol="100" />
          <note key="65" pos="408" pan="0" len="12" vol="100" />
          <note key="65" pos="600" pan="0" len="12" vol="100" />
          <note key="63" pos="792" pan="0" len="12" vol="100" />
          <note key="63" pos="984" pan="0" len="12" vol="100" />
          <note key="65" pos="1176" pan="0" len="12" vol="100" />
          <note key="65" pos="1368" pan="0" len="12" vol="100" />
        </pattern>
        <pattern pos="76800" muted="0" steps="16" name="" type="1">
          <note key="60" pos="540" pan="0" len="12" vol="16" />
        </pattern>
        <pattern pos="77568" muted="0" steps="16" name="" type="1">
          <note key="60" pos="540" pan="0" len="12" vol="16" />
        </pattern>
        <pattern pos="78336" muted="0" steps="16" name="" type="1">
          <note key="60" pos="540" pan="0" len="12" vol="16" />
        </pattern>
        <pattern pos="79104" muted="0" steps="16" name="" type="1">
          <note key="60" pos="540" pan="0" len="12" vol="16" />
        </pattern>
        <pattern pos="79872" muted="0" steps="16" name="" type="1">
          <note key="60" pos="540" pan="0" len="12" vol="16" />
        </pattern>
        <pattern pos="80640" muted="0" steps="16" name="" type="1">
          <note key="60" pos="540" pan="0" len="12" vol="16" />
        </pattern>
        <pattern pos="81408" muted="0" steps="16" name="" type="1">
          <note key="60" pos="540" pan="0" len="12" vol="16" />
        </pattern>
        <pattern pos="82176" muted="0" steps="16" name="" type="1">
          <note key="60" pos="540" pan="0" len="12" vol="16" />
        </pattern>
        <pattern pos="82944" muted="0" steps="16" name="" type="1">
          <note key="60" pos="540" pan="0" len="12" vol="16" />
        </pattern>
        <pattern pos="83712" muted="0" steps="16" name="" type="1">
          <note key="60" pos="540" pan="0" len="12" vol="16" />
        </pattern>
        <pattern pos="86016" muted="0" steps="16" name="" type="1">
          <note key="60" pos="540" pan="0" len="12" vol="16" />
        </pattern>
        <pattern pos="86784" muted="0" steps="16" name="" type="1">
          <note key="60" pos="540" pan="0" len="12" vol="16" />
        </pattern>
        <pattern pos="87552" muted="0" steps="16" name="" type="1">
          <note key="60" pos="540" pan="0" len="12" vol="16" />
        </pattern>
        <pattern pos="88320" muted="0" steps="16" name="" type="1">
          <note key="60" pos="540" pan="0" len="12" vol="16" />
        </pattern>
        <pattern pos="89088" muted="0" steps="16" name="" type="1">
          <note key="60" pos="540" pan="0" len="12" vol="16" />
        </pattern>
        <pattern pos="89856" muted="0" steps="16" name="" type="1">
          <note key="60" pos="540" pan="0" len="12" vol="16" />
        </pattern>
        <pattern pos="90624" muted="0" steps="16" name="" type="1">
          <note key="60" pos="540" pan="0" len="12" vol="16" />
        </pattern>
        <pattern pos="91392" muted="0" steps="16" name="" type="1">
          <note key="60" pos="540" pan="0" len="12" vol="5" />
        </pattern>
        <pattern pos="259968" muted="0" steps="16" name="" type="1">
          <note key="65" pos="24" pan="0" len="12" vol="100" />
          <note key="65" pos="216" pan="0" len="12" vol="100" />
          <note key="65" pos="408" pan="0" len="12" vol="100" />
          <note key="65" pos="600" pan="0" len="12" vol="100" />
        </pattern>
        <pattern pos="260736" muted="0" steps="16" name="" type="1">
          <note key="65" pos="24" pan="0" len="12" vol="100" />
          <note key="65" pos="216" pan="0" len="12" vol="100" />
          <note key="65" pos="408" pan="0" len="12" vol="100" />
          <note key="65" pos="600" pan="0" len="12" vol="100" />
        </pattern>
        <pattern pos="261504" muted="0" steps="16" name="" type="1">
          <note key="56" pos="24" pan="0" len="12" vol="100" />
          <note key="56" pos="216" pan="0" len="12" vol="100" />
          <note key="56" pos="408" pan="0" len="12" vol="100" />
          <note key="56" pos="600" pan="0" len="12" vol="100" />
        </pattern>
        <pattern pos="262272" muted="0" steps="16" name="" type="1">
          <note key="56" pos="24" pan="0" len="12" vol="100" />
          <note key="56" pos="216" pan="0" len="12" vol="100" />
          <note key="56" pos="408" pan="0" len="12" vol="100" />
          <note key="56" pos="600" pan="0" len="12" vol="100" />
        </pattern>
        <pattern pos="263040" muted="0" steps="16" name="" type="1">
          <note key="55" pos="24" pan="0" len="12" vol="100" />
          <note key="55" pos="216" pan="0" len="12" vol="100" />
          <note key="55" pos="408" pan="0" len="12" vol="100" />
          <note key="55" pos="600" pan="0" len="12" vol="100" />
        </pattern>
        <pattern pos="263808" muted="0" steps="16" name="" type="1">
          <note key="55" pos="24" pan="0" len="12" vol="100" />
          <note key="55" pos="216" pan="0" len="12" vol="100" />
          <note key="55" pos="408" pan="0" len="12" vol="100" />
          <note key="55" pos="600" pan="0" len="12" vol="100" />
        </pattern>
        <pattern pos="264576" muted="0" steps="16" name="" type="1">
          <note key="65" pos="24" pan="0" len="12" vol="100" />
          <note key="65" pos="216" pan="0" len="12" vol="100" />
          <note key="65" pos="408" pan="0" len="12" vol="100" />
          <note key="65" pos="600" pan="0" len="12" vol="100" />
        </pattern>
        <pattern pos="265344" muted="0" steps="16" name="" type="1">
          <note key="65" pos="24" pan="0" len="12" vol="100" />
          <note key="65" pos="216" pan="0" len="12" vol="100" />
          <note key="65" pos="408" pan="0" len="12" vol="100" />
          <note key="65" pos="600" pan="0" len="12" vol="100" />
        </pattern>
        <pattern pos="266112" muted="0" steps="16" name="" type="1">
          <note key="65" pos="24" pan="0" len="12" vol="100" />
          <note key="65" pos="216" pan="0" len="12" vol="100" />
          <note key="60" pos="408" pan="0" len="12" vol="100" />
          <note key="60" pos="600" pan="0" len="12" vol="100" />
          <note key="65" pos="792" pan="0" len="12" vol="100" />
          <note key="65" pos="984" pan="0" len="12" vol="100" />
          <note key="60" pos="1176" pan="0" len="12" vol="100" />
          <note key="60" pos="1368" pan="0" len="12" vol="100" />
        </pattern>
      </track>
      <track solo="0" name="30 (Ch5)" type="0" muted="0">
        <instrumenttrack usemasterpitch="1" pitch="0.0" basenote="57" pan="0" pitchrange="12" vol="30">
          <eldata />
          <instrument name="tripleoscillator" />
        </instrumenttrack>
        <pattern pos="23808" muted="0" steps="16" name="" type="1">
          <note key="48" pos="1152" pan="0" len="24" vol="100" />
        </pattern>
        <pattern pos="17664" muted="0" steps="16" name="" type="1">
          <note key="48" pos="384" pan="0" len="24" vol="20" />
        </pattern>
        <pattern pos="20736" muted="0" steps="16" name="" type="1">
          <note key="48" pos="384" pan="0" len="24" vol="100" />
        </pattern>
        <pattern pos="22272" muted="0" steps="16" name="" type="1">
          <note key="48" pos="384" pan="0" len="24" vol="100" />
        </pattern>
      </track>
      <track solo="0" name="30 (Ch6)" type="0" muted="0">
        <instrumenttrack usemasterpitch="1" pitch="0.0" basenote="57" pan="0" pitchrange="12" vol="30">
          <eldata />
          <instrument name="tripleoscillator" />
        </instrumenttrack>
        <pattern pos="215040" muted="0" steps="16" name="" type="1">
          <note key="66" pos="168" pan="0" len="24" vol="34" />
          <note key="66" pos="384" pan="0" len="24" vol="100" />
          <note key="66" pos="552" pan="0" len="24" vol="34" />
          <note key="66" pos="720" pan="0" len="24" vol="100" />
          <note key="66" pos="936" pan="0" len="24" vol="34" />
          <note key="66" pos="1152" pan="0" len="24" vol="100" />
          <note key="66" pos="1320" pan="0" len="24" vol="34" />
          <note key="66" pos="1488" pan="0" len="24" vol="100" />
        </pattern>
        <pattern pos="20736" muted="0" steps="16" name="" type="1">
          <note key="60" pos="96" pan="0" len="12" vol="3" />
        </pattern>
        <pattern pos="22272" muted="0" steps="16" name="" type="1">
          <note key="60" pos="96" pan="0" len="12" vol="100" />
        </pattern>
        <pattern pos="23808" muted="0" steps="16" name="" type="1">
          <note key="60" pos="96" pan="0" len="12" vol="100" />
        </pattern>
        <pattern pos="59904" muted="0" steps="16" name="" type="1">
          <note key="60" pos="72" pan="0" len="48" vol="100" />
          <note key="60" pos="360" pan="0" len="24" vol="100" />
          <note key="60" pos="456" pan="0" len="48" vol="100" />
          <note key="60" pos="744" pan="0" len="24" vol="100" />
          <note key="60" pos="840" pan="0" len="48" vol="100" />
          <note key="60" pos="1128" pan="0" len="24" vol="100" />
          <note key="60" pos="1224" pan="0" len="48" vol="100" />
          <note key="60" pos="1512" pan="0" len="24" vol="100" />
        </pattern>
        <pattern pos="61440" muted="0" steps="16" name="" type="1">
          <note key="60" pos="72" pan="0" len="48" vol="100" />
          <note key="60" pos="360" pan="0" len="24" vol="100" />
          <note key="60" pos="456" pan="0" len="48" vol="100" />
          <note key="60" pos="744" pan="0" len="24" vol="100" />
          <note key="60" pos="840" pan="0" len="48" vol="100" />
          <note key="60" pos="1128" pan="0" len="24" vol="100" />
          <note key="60" pos="1224" pan="0" len="48" vol="100" />
          <note key="60" pos="1512" pan="0" len="24" vol="100" />
        </pattern>
        <pattern pos="62976" muted="0" steps="16" name="" type="1">
          <note key="60" pos="72" pan="0" len="48" vol="100" />
          <note key="60" pos="360" pan="0" len="24" vol="100" />
          <note key="60" pos="456" pan="0" len="48" vol="100" />
          <note key="60" pos="744" pan="0" len="24" vol="100" />
          <note key="60" pos="840" pan="0" len="48" vol="100" />
          <note key="60" pos="1128" pan="0" len="24" vol="100" />
          <note key="60" pos="1224" pan="0" len="48" vol="100" />
          <note key="60" pos="1512" pan="0" len="24" vol="100" />
        </pattern>
        <pattern pos="64512" muted="0" steps="16" name="" type="1">
          <note key="60" pos="72" pan="0" len="48" vol="100" />
          <note key="60" pos="360" pan="0" len="24" vol="100" />
          <note key="60" pos="456" pan="0" len="48" vol="100" />
          <note key="60" pos="744" pan="0" len="24" vol="100" />
          <note key="60" pos="840" pan="0" len="48" vol="100" />
          <note key="60" pos="1128" pan="0" len="24" vol="100" />
          <note key="60" pos="1224" pan="0" len="48" vol="100" />
          <note key="60" pos="1512" pan="0" len="24" vol="100" />
        </pattern>
        <pattern pos="66048" muted="0" steps="16" name="" type="1">
          <note key="60" pos="72" pan="0" len="48" vol="100" />
          <note key="60" pos="360" pan="0" len="24" vol="100" />
          <note key="60" pos="456" pan="0" len="48" vol="100" />
          <note key="60" pos="744" pan="0" len="24" vol="100" />
          <note key="60" pos="840" pan="0" len="48" vol="100" />
          <note key="60" pos="1128" pan="0" len="24" vol="100" />
          <note key="60" pos="1224" pan="0" len="48" vol="100" />
          <note key="60" pos="1512" pan="0" len="24" vol="100" />
        </pattern>
        <pattern pos="67584" muted="0" steps="16" name="" type="1">
          <note key="60" pos="72" pan="0" len="48" vol="100" />
          <note key="60" pos="360" pan="0" len="24" vol="100" />
          <note key="60" pos="456" pan="0" len="48" vol="100" />
          <note key="60" pos="744" pan="0" len="24" vol="100" />
          <note key="60" pos="840" pan="0" len="48" vol="100" />
          <note key="60" pos="1128" pan="0" len="24" vol="100" />
          <note key="60" pos="1224" pan="0" len="48" vol="100" />
          <note key="60" pos="1512" pan="0" len="24" vol="100" />
        </pattern>
        <pattern pos="69120" muted="0" steps="16" name="" type="1">
          <note key="60" pos="72" pan="0" len="48" vol="100" />
          <note key="60" pos="360" pan="0" len="24" vol="100" />
          <note key="60" pos="456" pan="0" len="48" vol="100" />
          <note key="60" pos="744" pan="0" len="24" vol="100" />
          <note key="60" pos="840" pan="0" len="48" vol="100" />
          <note key="60" pos="1128" pan="0" len="24" vol="100" />
          <note key="60" pos="1224" pan="0" len="48" vol="100" />
          <note key="60" pos="1512" pan="0" len="24" vol="100" />
        </pattern>
        <pattern pos="70656" muted="0" steps="16" name="" type="1">
          <note key="60" pos="72" pan="0" len="48" vol="100" />
          <note key="60" pos="360" pan="0" len="24" vol="100" />
          <note key="60" pos="456" pan="0" len="48" vol="100" />
          <note key="60" pos="744" pan="0" len="24" vol="100" />
          <note key="60" pos="840" pan="0" len="48" vol="100" />
          <note key="60" pos="1128" pan="0" len="24" vol="100" />
          <note key="60" pos="1224" pan="0" len="48" vol="100" />
          <note key="60" pos="1512" pan="0" len="24" vol="100" />
        </pattern>
        <pattern pos="72192" muted="0" steps="16" name="" type="1">
          <note key="60" pos="72" pan="0" len="48" vol="100" />
          <note key="60" pos="360" pan="0" len="24" vol="100" />
          <note key="60" pos="456" pan="0" len="48" vol="100" />
          <note key="60" pos="744" pan="0" len="24" vol="100" />
          <note key="60" pos="840" pan="0" len="48" vol="100" />
          <note key="60" pos="1128" pan="0" len="24" vol="100" />
          <note key="60" pos="1224" pan="0" len="48" vol="100" />
          <note key="60" pos="1512" pan="0" len="24" vol="100" />
        </pattern>
        <pattern pos="73728" muted="0" steps="16" name="" type="1">
          <note key="60" pos="72" pan="0" len="48" vol="100" />
          <note key="60" pos="360" pan="0" len="24" vol="100" />
          <note key="60" pos="456" pan="0" len="48" vol="100" />
          <note key="60" pos="744" pan="0" len="24" vol="100" />
          <note key="60" pos="840" pan="0" len="48" vol="100" />
          <note key="60" pos="1128" pan="0" len="24" vol="100" />
          <note key="60" pos="1224" pan="0" len="48" vol="100" />
          <note key="60" pos="1512" pan="0" len="24" vol="100" />
        </pattern>
        <pattern pos="75264" muted="0" steps="16" name="" type="1">
          <note key="60" pos="72" pan="0" len="48" vol="100" />
          <note key="60" pos="360" pan="0" len="24" vol="100" />
          <note key="60" pos="456" pan="0" len="48" vol="100" />
          <note key="60" pos="744" pan="0" len="24" vol="100" />
          <note key="60" pos="840" pan="0" len="48" vol="100" />
          <note key="60" pos="1128" pan="0" len="24" vol="100" />
          <note key="60" pos="1224" pan="0" len="48" vol="100" />
          <note key="60" pos="1512" pan="0" len="24" vol="100" />
        </pattern>
        <pattern pos="198144" muted="0" steps="16" name="" type="1">
          <note key="64" pos="84" pan="0" len="12" vol="34" />
          <note key="64" pos="192" pan="0" len="12" vol="100" />
          <note key="64" pos="276" pan="0" len="12" vol="34" />
          <note key="64" pos="360" pan="0" len="12" vol="100" />
          <note key="64" pos="468" pan="0" len="12" vol="34" />
          <note key="64" pos="576" pan="0" len="12" vol="100" />
          <note key="64" pos="660" pan="0" len="12" vol="34" />
          <note key="64" pos="744" pan="0" len="12" vol="100" />
          <note key="64" pos="852" pan="0" len="12" vol="34" />
          <note key="64" pos="960" pan="0" len="12" vol="100" />
          <note key="64" pos="1044" pan="0" len="12" vol="34" />
          <note key="64" pos="1128" pan="0" len="12" vol="100" />
          <note key="64" pos="1236" pan="0" len="12" vol="34" />
          <note key="64" pos="1344" pan="0" len="12" vol="100" />
          <note key="64" pos="1428" pan="0" len="12" vol="34" />
          <note key="64" pos="1512" pan="0" len="12" vol="100" />
        </pattern>
        <pattern pos="199680" muted="0" steps="16" name="" type="1">
          <note key="64" pos="84" pan="0" len="12" vol="34" />
          <note key="64" pos="192" pan="0" len="12" vol="100" />
          <note key="64" pos="276" pan="0" len="12" vol="34" />
          <note key="64" pos="360" pan="0" len="12" vol="100" />
          <note key="64" pos="468" pan="0" len="12" vol="34" />
          <note key="64" pos="576" pan="0" len="12" vol="100" />
          <note key="64" pos="660" pan="0" len="12" vol="34" />
          <note key="64" pos="744" pan="0" len="12" vol="100" />
          <note key="64" pos="852" pan="0" len="12" vol="34" />
          <note key="64" pos="960" pan="0" len="12" vol="100" />
          <note key="64" pos="1044" pan="0" len="12" vol="34" />
          <note key="64" pos="1128" pan="0" len="12" vol="100" />
          <note key="64" pos="1236" pan="0" len="12" vol="34" />
          <note key="64" pos="1344" pan="0" len="12" vol="100" />
          <note key="64" pos="1428" pan="0" len="12" vol="34" />
          <note key="64" pos="1512" pan="0" len="12" vol="100" />
        </pattern>
        <pattern pos="201216" muted="0" steps="16" name="" type="1">
          <note key="64" pos="168" pan="0" len="24" vol="34" />
          <note key="64" pos="384" pan="0" len="24" vol="100" />
          <note key="64" pos="552" pan="0" len="24" vol="34" />
          <note key="64" pos="720" pan="0" len="24" vol="100" />
          <note key="64" pos="936" pan="0" len="24" vol="34" />
          <note key="64" pos="1152" pan="0" len="24" vol="100" />
          <note key="64" pos="1320" pan="0" len="24" vol="34" />
          <note key="64" pos="1488" pan="0" len="24" vol="100" />
        </pattern>
        <pattern pos="202752" muted="0" steps="16" name="" type="1">
          <note key="64" pos="168" pan="0" len="24" vol="34" />
          <note key="64" pos="384" pan="0" len="24" vol="100" />
          <note key="64" pos="552" pan="0" len="24" vol="34" />
          <note key="64" pos="720" pan="0" len="24" vol="100" />
          <note key="64" pos="936" pan="0" len="24" vol="34" />
          <note key="64" pos="1152" pan="0" len="24" vol="100" />
          <note key="62" pos="1320" pan="0" len="24" vol="34" />
          <note key="59" pos="1488" pan="0" len="24" vol="100" />
        </pattern>
        <pattern pos="204288" muted="0" steps="16" name="" type="1">
          <note key="57" pos="168" pan="0" len="24" vol="34" />
          <note key="60" pos="384" pan="0" len="24" vol="100" />
          <note key="60" pos="552" pan="0" len="24" vol="34" />
          <note key="62" pos="720" pan="0" len="24" vol="100" />
          <note key="64" pos="936" pan="0" len="24" vol="34" />
          <note key="64" pos="1152" pan="0" len="24" vol="100" />
          <note key="64" pos="1320" pan="0" len="24" vol="34" />
          <note key="64" pos="1488" pan="0" len="24" vol="100" />
        </pattern>
        <pattern pos="205824" muted="0" steps="16" name="" type="1">
          <note key="57" pos="168" pan="0" len="24" vol="34" />
          <note key="60" pos="384" pan="0" len="24" vol="100" />
          <note key="60" pos="552" pan="0" len="24" vol="34" />
          <note key="62" pos="720" pan="0" len="24" vol="100" />
          <note key="64" pos="936" pan="0" len="24" vol="34" />
          <note key="64" pos="1152" pan="0" len="24" vol="100" />
          <note key="64" pos="1320" pan="0" len="24" vol="34" />
          <note key="64" pos="1488" pan="0" len="24" vol="100" />
        </pattern>
        <pattern pos="207360" muted="0" steps="16" name="" type="1">
          <note key="64" pos="168" pan="0" len="24" vol="34" />
          <note key="64" pos="384" pan="0" len="24" vol="100" />
          <note key="64" pos="552" pan="0" len="24" vol="34" />
          <note key="64" pos="720" pan="0" len="24" vol="100" />
          <note key="64" pos="936" pan="0" len="24" vol="34" />
          <note key="64" pos="1152" pan="0" len="24" vol="100" />
          <note key="64" pos="1320" pan="0" len="24" vol="34" />
          <note key="64" pos="1488" pan="0" len="24" vol="100" />
        </pattern>
        <pattern pos="208896" muted="0" steps="16" name="" type="1">
          <note key="64" pos="168" pan="0" len="24" vol="34" />
          <note key="64" pos="384" pan="0" len="24" vol="100" />
          <note key="64" pos="552" pan="0" len="24" vol="34" />
          <note key="64" pos="720" pan="0" len="24" vol="100" />
          <note key="64" pos="936" pan="0" len="24" vol="34" />
          <note key="64" pos="1152" pan="0" len="24" vol="100" />
          <note key="62" pos="1320" pan="0" len="24" vol="34" />
          <note key="59" pos="1488" pan="0" len="24" vol="100" />
        </pattern>
        <pattern pos="210432" muted="0" steps="16" name="" type="1">
          <note key="57" pos="168" pan="0" len="24" vol="34" />
          <note key="60" pos="384" pan="0" len="24" vol="100" />
          <note key="60" pos="552" pan="0" len="24" vol="34" />
          <note key="62" pos="720" pan="0" len="24" vol="100" />
          <note key="64" pos="936" pan="0" len="24" vol="34" />
          <note key="64" pos="1152" pan="0" len="24" vol="100" />
          <note key="64" pos="1320" pan="0" len="24" vol="34" />
          <note key="64" pos="1488" pan="0" len="24" vol="100" />
        </pattern>
        <pattern pos="211968" muted="0" steps="16" name="" type="1">
          <note key="57" pos="168" pan="0" len="24" vol="34" />
          <note key="60" pos="384" pan="0" len="24" vol="100" />
          <note key="60" pos="552" pan="0" len="24" vol="34" />
          <note key="62" pos="720" pan="0" len="24" vol="100" />
          <note key="64" pos="936" pan="0" len="24" vol="34" />
          <note key="64" pos="1152" pan="0" len="24" vol="100" />
          <note key="64" pos="1320" pan="0" len="24" vol="34" />
          <note key="64" pos="1488" pan="0" len="24" vol="100" />
        </pattern>
        <pattern pos="213504" muted="0" steps="16" name="" type="1">
          <note key="66" pos="84" pan="0" len="12" vol="34" />
          <note key="66" pos="192" pan="0" len="12" vol="100" />
          <note key="66" pos="276" pan="0" len="12" vol="34" />
          <note key="66" pos="360" pan="0" len="12" vol="100" />
          <note key="66" pos="468" pan="0" len="12" vol="34" />
          <note key="66" pos="576" pan="0" len="12" vol="100" />
          <note key="66" pos="660" pan="0" len="12" vol="34" />
          <note key="66" pos="744" pan="0" len="12" vol="100" />
          <note key="66" pos="852" pan="0" len="12" vol="34" />
          <note key="66" pos="960" pan="0" len="12" vol="100" />
          <note key="66" pos="1044" pan="0" len="12" vol="34" />
          <note key="66" pos="1128" pan="0" len="12" vol="100" />
          <note key="66" pos="1236" pan="0" len="12" vol="34" />
          <note key="66" pos="1344" pan="0" len="12" vol="100" />
          <note key="66" pos="1428" pan="0" len="12" vol="34" />
          <note key="66" pos="1512" pan="0" len="12" vol="100" />
        </pattern>
      </track>
      <track solo="0" name="30 (Ch8)" type="0" muted="0">
        <instrumenttrack usemasterpitch="1" pitch="0.0" basenote="57" pan="0" pitchrange="12" vol="30">
          <eldata />
          <instrument name="tripleoscillator" />
        </instrumenttrack>
        <pattern pos="229056" muted="0" steps="16" name="" type="1">
          <note key="60" pos="48" pan="0" len="24" vol="100" />
          <note key="62" pos="240" pan="0" len="24" vol="100" />
          <note key="63" pos="432" pan="0" len="24" vol="100" />
          <note key="65" pos="624" pan="0" len="24" vol="100" />
          <note key="60" pos="816" pan="0" len="24" vol="100" />
          <note key="62" pos="1008" pan="0" len="24" vol="100" />
          <note key="63" pos="1200" pan="0" len="24" vol="100" />
          <note key="65" pos="1392" pan="0" len="24" vol="100" />
        </pattern>
        <pattern pos="196608" muted="0" steps="16" name="" type="1">
          <note key="64" pos="852" pan="0" len="12" vol="5" />
          <note key="64" pos="960" pan="0" len="12" vol="27" />
          <note key="64" pos="1044" pan="0" len="12" vol="12" />
          <note key="64" pos="1128" pan="0" len="12" vol="48" />
          <note key="64" pos="1236" pan="0" len="12" vol="22" />
          <note key="64" pos="1344" pan="0" len="12" vol="77" />
          <note key="64" pos="1428" pan="0" len="12" vol="30" />
          <note key="64" pos="1512" pan="0" len="12" vol="98" />
        </pattern>
        <pattern pos="227520" muted="0" steps="16" name="" type="1">
          <note key="60" pos="48" pan="0" len="24" vol="100" />
          <note key="62" pos="240" pan="0" len="24" vol="100" />
          <note key="63" pos="432" pan="0" len="24" vol="100" />
          <note key="65" pos="624" pan="0" len="24" vol="100" />
          <note key="60" pos="816" pan="0" len="24" vol="100" />
          <note key="62" pos="1008" pan="0" len="24" vol="100" />
          <note key="63" pos="1200" pan="0" len="24" vol="100" />
          <note key="65" pos="1392" pan="0" len="24" vol="100" />
        </pattern>
      </track>
      <track solo="0" name="30 (Ch9)" type="0" muted="0">
        <instrumenttrack usemasterpitch="1" pitch="0.0" basenote="57" pan="0" pitchrange="12" vol="30">
          <eldata />
          <instrument name="tripleoscillator" />
        </instrumenttrack>
        <pattern pos="235200" muted="0" steps="16" name="" type="1">
          <note key="67" pos="48" pan="0" len="24" vol="100" />
          <note key="65" pos="240" pan="0" len="24" vol="100" />
          <note key="63" pos="432" pan="0" len="24" vol="100" />
          <note key="60" pos="624" pan="0" len="24" vol="100" />
          <note key="67" pos="816" pan="0" len="24" vol="100" />
          <note key="65" pos="1008" pan="0" len="24" vol="100" />
          <note key="63" pos="1200" pan="0" len="24" vol="100" />
          <note key="60" pos="1392" pan="0" len="24" vol="100" />
        </pattern>
        <pattern pos="224448" muted="0" steps="16" name="" type="1">
          <note key="67" pos="48" pan="0" len="24" vol="100" />
          <note key="65" pos="240" pan="0" len="24" vol="100" />
          <note key="63" pos="432" pan="0" len="24" vol="100" />
          <note key="60" pos="624" pan="0" len="24" vol="100" />
          <note key="67" pos="816" pan="0" len="24" vol="100" />
          <note key="65" pos="1008" pan="0" len="24" vol="100" />
          <note key="63" pos="1200" pan="0" len="24" vol="100" />
          <note key="60" pos="1392" pan="0" len="24" vol="100" />
        </pattern>
        <pattern pos="225984" muted="0" steps="16" name="" type="1">
          <note key="67" pos="48" pan="0" len="24" vol="100" />
          <note key="65" pos="240" pan="0" len="24" vol="100" />
          <note key="63" pos="432" pan="0" len="24" vol="100" />
          <note key="60" pos="624" pan="0" len="24" vol="100" />
          <note key="67" pos="816" pan="0" len="24" vol="100" />
          <note key="65" pos="1008" pan="0" len="24" vol="100" />
          <note key="63" pos="1200" pan="0" len="24" vol="100" />
          <note key="60" pos="1392" pan="0" len="24" vol="100" />
        </pattern>
        <pattern pos="230592" muted="0" steps="16" name="" type="1">
          <note key="67" pos="48" pan="0" len="24" vol="100" />
          <note key="65" pos="240" pan="0" len="24" vol="100" />
          <note key="63" pos="432" pan="0" len="24" vol="100" />
          <note key="65" pos="624" pan="0" len="24" vol="100" />
          <note key="60" pos="816" pan="0" len="24" vol="100" />
          <note key="62" pos="1008" pan="0" len="24" vol="100" />
          <note key="63" pos="1200" pan="0" len="24" vol="100" />
          <note key="65" pos="1392" pan="0" len="24" vol="100" />
        </pattern>
        <pattern pos="232128" muted="0" steps="16" name="" type="1">
          <note key="67" pos="48" pan="0" len="24" vol="100" />
          <note key="65" pos="240" pan="0" len="24" vol="100" />
          <note key="63" pos="432" pan="0" len="24" vol="100" />
          <note key="65" pos="624" pan="0" len="24" vol="100" />
          <note key="60" pos="816" pan="0" len="24" vol="100" />
          <note key="62" pos="1008" pan="0" len="24" vol="100" />
          <note key="67" pos="1200" pan="0" len="24" vol="100" />
          <note key="67" pos="1392" pan="0" len="24" vol="100" />
        </pattern>
        <pattern pos="233664" muted="0" steps="16" name="" type="1">
          <note key="67" pos="48" pan="0" len="24" vol="100" />
          <note key="65" pos="240" pan="0" len="24" vol="100" />
          <note key="63" pos="432" pan="0" len="24" vol="100" />
          <note key="60" pos="624" pan="0" len="24" vol="100" />
          <note key="67" pos="816" pan="0" len="24" vol="100" />
          <note key="65" pos="1008" pan="0" len="24" vol="100" />
          <note key="63" pos="1200" pan="0" len="24" vol="100" />
          <note key="60" pos="1392" pan="0" len="24" vol="100" />
        </pattern>
      </track>
      <track solo="0" name="31 (Ch1)" type="0" muted="0">
        <instrumenttrack usemasterpitch="1" pitch="0.0" basenote="57" pan="0" pitchrange="12" vol="30">
          <eldata />
          <instrument name="tripleoscillator" />
        </instrumenttrack>
        <pattern pos="16128" muted="0" steps="16" name="" type="1">
          <note key="60" pos="144" pan="0" len="12" vol="100" />
          <note key="60" pos="336" pan="0" len="12" vol="100" />
          <note key="60" pos="528" pan="0" len="12" vol="100" />
          <note key="60" pos="720" pan="0" len="12" vol="100" />
          <note key="60" pos="912" pan="0" len="12" vol="100" />
          <note key="60" pos="1104" pan="0" len="12" vol="100" />
          <note key="60" pos="1296" pan="0" len="12" vol="100" />
        </pattern>
        <pattern pos="6912" muted="0" steps="16" name="" type="1">
          <note key="60" pos="144" pan="0" len="12" vol="100" />
          <note key="60" pos="336" pan="0" len="12" vol="100" />
          <note key="60" pos="528" pan="0" len="12" vol="100" />
          <note key="60" pos="720" pan="0" len="12" vol="100" />
        </pattern>
        <pattern pos="7680" muted="0" steps="16" name="" type="1">
          <note key="60" pos="144" pan="0" len="12" vol="100" />
          <note key="60" pos="336" pan="0" len="12" vol="100" />
          <note key="60" pos="528" pan="0" len="12" vol="100" />
          <note key="60" pos="720" pan="0" len="12" vol="100" />
        </pattern>
        <pattern pos="8448" muted="0" steps="16" name="" type="1">
          <note key="60" pos="144" pan="0" len="12" vol="100" />
          <note key="60" pos="336" pan="0" len="12" vol="100" />
          <note key="60" pos="528" pan="0" len="12" vol="100" />
          <note key="60" pos="720" pan="0" len="12" vol="100" />
        </pattern>
        <pattern pos="9216" muted="0" steps="16" name="" type="1">
          <note key="60" pos="144" pan="0" len="12" vol="100" />
          <note key="60" pos="336" pan="0" len="12" vol="100" />
          <note key="60" pos="528" pan="0" len="12" vol="100" />
          <note key="60" pos="720" pan="0" len="12" vol="100" />
        </pattern>
        <pattern pos="9984" muted="0" steps="16" name="" type="1">
          <note key="60" pos="144" pan="0" len="12" vol="100" />
          <note key="60" pos="336" pan="0" len="12" vol="100" />
          <note key="60" pos="528" pan="0" len="12" vol="100" />
          <note key="60" pos="720" pan="0" len="12" vol="100" />
        </pattern>
        <pattern pos="10752" muted="0" steps="16" name="" type="1">
          <note key="60" pos="144" pan="0" len="12" vol="100" />
          <note key="60" pos="336" pan="0" len="12" vol="100" />
          <note key="60" pos="528" pan="0" len="12" vol="100" />
          <note key="60" pos="720" pan="0" len="24" vol="100" />
        </pattern>
        <pattern pos="11520" muted="0" steps="16" name="" type="1">
          <note key="60" pos="144" pan="0" len="12" vol="100" />
          <note key="60" pos="336" pan="0" len="12" vol="100" />
          <note key="60" pos="528" pan="0" len="12" vol="100" />
          <note key="60" pos="720" pan="0" len="12" vol="100" />
          <note key="60" pos="912" pan="0" len="12" vol="100" />
          <note key="60" pos="1104" pan="0" len="12" vol="100" />
          <note key="60" pos="1296" pan="0" len="12" vol="100" />
          <note key="60" pos="1488" pan="0" len="12" vol="100" />
        </pattern>
        <pattern pos="13056" muted="0" steps="16" name="" type="1">
          <note key="60" pos="144" pan="0" len="12" vol="100" />
          <note key="60" pos="336" pan="0" len="12" vol="100" />
          <note key="60" pos="528" pan="0" len="12" vol="100" />
          <note key="60" pos="720" pan="0" len="12" vol="100" />
          <note key="60" pos="912" pan="0" len="12" vol="100" />
          <note key="60" pos="1104" pan="0" len="12" vol="100" />
          <note key="60" pos="1296" pan="0" len="12" vol="100" />
        </pattern>
        <pattern pos="14592" muted="0" steps="16" name="" type="1">
          <note key="60" pos="144" pan="0" len="12" vol="100" />
          <note key="60" pos="336" pan="0" len="12" vol="100" />
          <note key="60" pos="528" pan="0" len="12" vol="100" />
          <note key="60" pos="720" pan="0" len="12" vol="100" />
          <note key="60" pos="912" pan="0" len="12" vol="100" />
          <note key="60" pos="1104" pan="0" len="12" vol="100" />
          <note key="60" pos="1296" pan="0" len="12" vol="100" />
          <note key="60" pos="1488" pan="0" len="12" vol="100" />
        </pattern>
      </track>
      <track solo="0" name="31 (Ch2)" type="0" muted="0">
        <instrumenttrack usemasterpitch="1" pitch="0.0" basenote="57" pan="0" pitchrange="12" vol="30">
          <eldata />
          <instrument name="tripleoscillator" />
        </instrumenttrack>
        <pattern pos="267648" muted="0" steps="16" name="" type="1">
          <note key="63" pos="144" pan="0" len="24" vol="100" />
          <note key="63" pos="336" pan="0" len="24" vol="100" />
          <note key="65" pos="528" pan="0" len="24" vol="100" />
          <note key="65" pos="720" pan="0" len="24" vol="100" />
          <note key="63" pos="912" pan="0" len="24" vol="100" />
          <note key="63" pos="1104" pan="0" len="24" vol="100" />
          <note key="65" pos="1296" pan="0" len="24" vol="100" />
          <note key="65" pos="1488" pan="0" len="24" vol="100" />
        </pattern>
        <pattern pos="76800" muted="0" steps="16" name="" type="1">
          <note key="60" pos="156" pan="0" len="12" vol="100" />
          <note key="60" pos="348" pan="0" len="12" vol="100" />
          <note key="60" pos="732" pan="0" len="12" vol="100" />
        </pattern>
        <pattern pos="77568" muted="0" steps="16" name="" type="1">
          <note key="60" pos="156" pan="0" len="12" vol="100" />
          <note key="60" pos="348" pan="0" len="12" vol="100" />
          <note key="60" pos="732" pan="0" len="12" vol="100" />
        </pattern>
        <pattern pos="78336" muted="0" steps="16" name="" type="1">
          <note key="60" pos="156" pan="0" len="12" vol="100" />
          <note key="60" pos="348" pan="0" len="12" vol="100" />
          <note key="60" pos="732" pan="0" len="12" vol="100" />
        </pattern>
        <pattern pos="79104" muted="0" steps="16" name="" type="1">
          <note key="60" pos="156" pan="0" len="12" vol="100" />
          <note key="60" pos="348" pan="0" len="12" vol="100" />
          <note key="60" pos="732" pan="0" len="12" vol="100" />
        </pattern>
        <pattern pos="79872" muted="0" steps="16" name="" type="1">
          <note key="60" pos="156" pan="0" len="12" vol="100" />
          <note key="60" pos="348" pan="0" len="12" vol="100" />
          <note key="60" pos="732" pan="0" len="12" vol="100" />
        </pattern>
        <pattern pos="80640" muted="0" steps="16" name="" type="1">
          <note key="60" pos="156" pan="0" len="12" vol="100" />
          <note key="60" pos="348" pan="0" len="12" vol="100" />
          <note key="60" pos="732" pan="0" len="12" vol="100" />
        </pattern>
        <pattern pos="81408" muted="0" steps="16" name="" type="1">
          <note key="60" pos="156" pan="0" len="12" vol="100" />
          <note key="60" pos="348" pan="0" len="12" vol="100" />
          <note key="60" pos="732" pan="0" len="12" vol="100" />
        </pattern>
        <pattern pos="82176" muted="0" steps="16" name="" type="1">
          <note key="60" pos="156" pan="0" len="12" vol="100" />
          <note key="60" pos="348" pan="0" len="12" vol="100" />
          <note key="60" pos="732" pan="0" len="12" vol="100" />
        </pattern>
        <pattern pos="82944" muted="0" steps="16" name="" type="1">
          <note key="60" pos="156" pan="0" len="12" vol="100" />
          <note key="60" pos="348" pan="0" len="12" vol="100" />
          <note key="60" pos="732" pan="0" len="12" vol="100" />
        </pattern>
        <pattern pos="83712" muted="0" steps="16" name="" type="1">
          <note key="60" pos="156" pan="0" len="12" vol="100" />
          <note key="60" pos="348" pan="0" len="12" vol="100" />
          <note key="60" pos="732" pan="0" len="12" vol="100" />
        </pattern>
        <pattern pos="86016" muted="0" steps="16" name="" type="1">
          <note key="60" pos="156" pan="0" len="12" vol="100" />
          <note key="60" pos="348" pan="0" len="12" vol="100" />
          <note key="60" pos="732" pan="0" len="12" vol="100" />
        </pattern>
        <pattern pos="86784" muted="0" steps="16" name="" type="1">
          <note key="60" pos="156" pan="0" len="12" vol="100" />
          <note key="60" pos="348" pan="0" len="12" vol="100" />
          <note key="60" pos="732" pan="0" len="12" vol="100" />
        </pattern>
        <pattern pos="87552" muted="0" steps="16" name="" type="1">
          <note key="60" pos="156" pan="0" len="12" vol="100" />
          <note key="60" pos="348" pan="0" len="12" vol="100" />
          <note key="60" pos="732" pan="0" len="12" vol="100" />
        </pattern>
        <pattern pos="88320" muted="0" steps="16" name="" type="1">
          <note key="60" pos="156" pan="0" len="12" vol="100" />
          <note key="60" pos="348" pan="0" len="12" vol="100" />
          <note key="60" pos="732" pan="0" len="12" vol="100" />
        </pattern>
        <pattern pos="89088" muted="0" steps="16" name="" type="1">
          <note key="60" pos="156" pan="0" len="12" vol="100" />
          <note key="60" pos="348" pan="0" len="12" vol="100" />
          <note key="60" pos="732" pan="0" len="12" vol="100" />
        </pattern>
        <pattern pos="89856" muted="0" steps="16" name="" type="1">
          <note key="60" pos="156" pan="0" len="12" vol="100" />
          <note key="60" pos="348" pan="0" len="12" vol="100" />
          <note key="60" pos="732" pan="0" len="12" vol="100" />
        </pattern>
        <pattern pos="90624" muted="0" steps="16" name="" type="1">
          <note key="60" pos="156" pan="0" len="12" vol="100" />
          <note key="60" pos="348" pan="0" len="12" vol="100" />
          <note key="60" pos="732" pan="0" len="12" vol="100" />
        </pattern>
        <pattern pos="91392" muted="0" steps="16" name="" type="1">
          <note key="60" pos="156" pan="0" len="12" vol="80" />
          <note key="60" pos="348" pan="0" len="12" vol="55" />
          <note key="60" pos="732" pan="0" len="12" vol="5" />
        </pattern>
        <pattern pos="259968" muted="0" steps="16" name="" type="1">
          <note key="65" pos="144" pan="0" len="24" vol="100" />
          <note key="65" pos="336" pan="0" len="24" vol="100" />
          <note key="65" pos="528" pan="0" len="24" vol="100" />
          <note key="65" pos="720" pan="0" len="24" vol="100" />
        </pattern>
        <pattern pos="260736" muted="0" steps="16" name="" type="1">
          <note key="65" pos="144" pan="0" len="24" vol="100" />
          <note key="65" pos="336" pan="0" len="24" vol="100" />
          <note key="65" pos="528" pan="0" len="24" vol="100" />
          <note key="65" pos="720" pan="0" len="24" vol="100" />
        </pattern>
        <pattern pos="261504" muted="0" steps="16" name="" type="1">
          <note key="56" pos="144" pan="0" len="24" vol="100" />
          <note key="56" pos="336" pan="0" len="24" vol="100" />
          <note key="56" pos="528" pan="0" len="24" vol="100" />
          <note key="56" pos="720" pan="0" len="24" vol="100" />
        </pattern>
        <pattern pos="262272" muted="0" steps="16" name="" type="1">
          <note key="56" pos="144" pan="0" len="24" vol="100" />
          <note key="56" pos="336" pan="0" len="24" vol="100" />
          <note key="56" pos="528" pan="0" len="24" vol="100" />
          <note key="56" pos="720" pan="0" len="24" vol="100" />
        </pattern>
        <pattern pos="263040" muted="0" steps="16" name="" type="1">
          <note key="55" pos="144" pan="0" len="24" vol="100" />
          <note key="55" pos="336" pan="0" len="24" vol="100" />
          <note key="55" pos="528" pan="0" len="24" vol="100" />
          <note key="55" pos="720" pan="0" len="24" vol="100" />
        </pattern>
        <pattern pos="263808" muted="0" steps="16" name="" type="1">
          <note key="55" pos="144" pan="0" len="24" vol="100" />
          <note key="55" pos="336" pan="0" len="24" vol="100" />
          <note key="55" pos="528" pan="0" len="24" vol="100" />
          <note key="55" pos="720" pan="0" len="24" vol="100" />
        </pattern>
        <pattern pos="264576" muted="0" steps="16" name="" type="1">
          <note key="65" pos="144" pan="0" len="24" vol="100" />
          <note key="65" pos="336" pan="0" len="24" vol="100" />
          <note key="65" pos="528" pan="0" len="24" vol="100" />
          <note key="65" pos="720" pan="0" len="24" vol="100" />
        </pattern>
        <pattern pos="265344" muted="0" steps="16" name="" type="1">
          <note key="65" pos="144" pan="0" len="24" vol="100" />
          <note key="65" pos="336" pan="0" len="24" vol="100" />
          <note key="65" pos="528" pan="0" len="24" vol="100" />
          <note key="65" pos="720" pan="0" len="24" vol="100" />
        </pattern>
        <pattern pos="266112" muted="0" steps="16" name="" type="1">
          <note key="65" pos="144" pan="0" len="24" vol="100" />
          <note key="65" pos="336" pan="0" len="24" vol="100" />
          <note key="60" pos="528" pan="0" len="24" vol="100" />
          <note key="60" pos="720" pan="0" len="24" vol="100" />
          <note key="65" pos="912" pan="0" len="24" vol="100" />
          <note key="65" pos="1104" pan="0" len="24" vol="100" />
          <note key="60" pos="1296" pan="0" len="24" vol="100" />
          <note key="60" pos="1488" pan="0" len="24" vol="100" />
        </pattern>
      </track>
      <track solo="0" name="31 (Ch3)" type="0" muted="0">
        <instrumenttrack usemasterpitch="1" pitch="0.0" basenote="57" pan="0" pitchrange="12" vol="30">
          <eldata />
          <instrument name="tripleoscillator" />
        </instrumenttrack>
        <pattern pos="133632" muted="0" steps="16" name="" type="1">
          <note key="60" pos="672" pan="0" len="24" vol="100" />
          <note key="60" pos="1488" pan="0" len="24" vol="100" />
        </pattern>
        <pattern pos="93696" muted="0" steps="16" name="" type="1">
          <note key="60" pos="1440" pan="0" len="72" vol="100" />
        </pattern>
        <pattern pos="95232" muted="0" steps="16" name="" type="1">
          <note key="60" pos="672" pan="0" len="24" vol="100" />
          <note key="60" pos="1440" pan="0" len="24" vol="100" />
        </pattern>
        <pattern pos="96768" muted="0" steps="16" name="" type="1">
          <note key="60" pos="672" pan="0" len="24" vol="100" />
          <note key="60" pos="1440" pan="0" len="24" vol="100" />
        </pattern>
        <pattern pos="98304" muted="0" steps="16" name="" type="1">
          <note key="60" pos="672" pan="0" len="24" vol="100" />
          <note key="60" pos="1440" pan="0" len="24" vol="100" />
        </pattern>
        <pattern pos="99840" muted="0" steps="16" name="" type="1">
          <note key="60" pos="672" pan="0" len="24" vol="100" />
          <note key="60" pos="1440" pan="0" len="24" vol="100" />
        </pattern>
        <pattern pos="101376" muted="0" steps="16" name="" type="1">
          <note key="60" pos="672" pan="0" len="24" vol="100" />
          <note key="60" pos="1440" pan="0" len="24" vol="100" />
        </pattern>
        <pattern pos="102912" muted="0" steps="16" name="" type="1">
          <note key="60" pos="672" pan="0" len="24" vol="100" />
          <note key="60" pos="1440" pan="0" len="24" vol="100" />
        </pattern>
        <pattern pos="105984" muted="0" steps="16" name="" type="1">
          <note key="62" pos="672" pan="0" len="24" vol="9" />
          <note key="62" pos="1440" pan="0" len="24" vol="86" />
        </pattern>
        <pattern pos="116736" muted="0" steps="16" name="" type="1">
          <note key="60" pos="288" pan="0" len="24" vol="100" />
          <note key="60" pos="672" pan="0" len="24" vol="100" />
          <note key="60" pos="1056" pan="0" len="24" vol="100" />
          <note key="60" pos="1368" pan="0" len="24" vol="34" />
          <note key="60" pos="1440" pan="0" len="24" vol="100" />
        </pattern>
        <pattern pos="118272" muted="0" steps="16" name="" type="1">
          <note key="60" pos="288" pan="0" len="24" vol="100" />
          <note key="60" pos="672" pan="0" len="24" vol="100" />
          <note key="60" pos="1056" pan="0" len="24" vol="100" />
          <note key="60" pos="1368" pan="0" len="24" vol="34" />
          <note key="60" pos="1440" pan="0" len="24" vol="100" />
        </pattern>
        <pattern pos="121344" muted="0" steps="16" name="" type="1">
          <note key="60" pos="1368" pan="0" len="24" vol="34" />
          <note key="60" pos="1440" pan="0" len="24" vol="100" />
        </pattern>
        <pattern pos="122880" muted="0" steps="16" name="" type="1">
          <note key="60" pos="672" pan="0" len="24" vol="100" />
          <note key="60" pos="1440" pan="0" len="24" vol="100" />
        </pattern>
        <pattern pos="124416" muted="0" steps="16" name="" type="1">
          <note key="60" pos="672" pan="0" len="24" vol="100" />
          <note key="60" pos="1440" pan="0" len="24" vol="100" />
        </pattern>
        <pattern pos="125952" muted="0" steps="16" name="" type="1">
          <note key="60" pos="672" pan="0" len="24" vol="100" />
          <note key="60" pos="1440" pan="0" len="24" vol="100" />
        </pattern>
        <pattern pos="127488" muted="0" steps="16" name="" type="1">
          <note key="60" pos="672" pan="0" len="24" vol="100" />
          <note key="60" pos="1440" pan="0" len="24" vol="100" />
        </pattern>
        <pattern pos="129024" muted="0" steps="16" name="" type="1">
          <note key="60" pos="672" pan="0" len="24" vol="100" />
          <note key="58" pos="1440" pan="0" len="24" vol="100" />
        </pattern>
        <pattern pos="130560" muted="0" steps="16" name="" type="1">
          <note key="60" pos="672" pan="0" len="24" vol="100" />
          <note key="58" pos="1440" pan="0" len="24" vol="100" />
        </pattern>
        <pattern pos="132096" muted="0" steps="16" name="" type="1">
          <note key="60" pos="672" pan="0" len="24" vol="100" />
          <note key="58" pos="1440" pan="0" len="24" vol="100" />
        </pattern>
      </track>
      <track solo="0" name="31 (Ch7)" type="0" muted="0">
        <instrumenttrack usemasterpitch="1" pitch="0.0" basenote="57" pan="0" pitchrange="12" vol="30">
          <eldata />
          <instrument name="tripleoscillator" />
        </instrumenttrack>
        <pattern pos="175104" muted="0" steps="16" name="" type="1">
          <note key="48" pos="144" pan="0" len="24" vol="34" />
          <note key="48" pos="336" pan="0" len="24" vol="34" />
          <note key="48" pos="528" pan="0" len="24" vol="34" />
          <note key="48" pos="720" pan="0" len="24" vol="34" />
          <note key="48" pos="912" pan="0" len="24" vol="34" />
          <note key="48" pos="1104" pan="0" len="24" vol="27" />
          <note key="48" pos="1296" pan="0" len="24" vol="14" />
          <note key="48" pos="1488" pan="0" len="24" vol="3" />
        </pattern>
        <pattern pos="164352" muted="0" steps="16" name="" type="1">
          <note key="48" pos="144" pan="0" len="24" vol="34" />
          <note key="48" pos="336" pan="0" len="24" vol="34" />
          <note key="48" pos="528" pan="0" len="24" vol="34" />
          <note key="48" pos="720" pan="0" len="24" vol="34" />
          <note key="48" pos="912" pan="0" len="24" vol="34" />
          <note key="48" pos="1104" pan="0" len="24" vol="34" />
          <note key="48" pos="1296" pan="0" len="24" vol="34" />
          <note key="48" pos="1488" pan="0" len="24" vol="34" />
        </pattern>
        <pattern pos="165888" muted="0" steps="16" name="" type="1">
          <note key="48" pos="144" pan="0" len="24" vol="34" />
          <note key="48" pos="336" pan="0" len="24" vol="34" />
          <note key="48" pos="528" pan="0" len="24" vol="34" />
          <note key="48" pos="720" pan="0" len="24" vol="34" />
          <note key="48" pos="912" pan="0" len="24" vol="34" />
          <note key="48" pos="1104" pan="0" len="24" vol="34" />
          <note key="48" pos="1296" pan="0" len="24" vol="34" />
          <note key="48" pos="1488" pan="0" len="24" vol="34" />
        </pattern>
        <pattern pos="167424" muted="0" steps="16" name="" type="1">
          <note key="48" pos="144" pan="0" len="24" vol="34" />
          <note key="48" pos="336" pan="0" len="24" vol="34" />
          <note key="48" pos="528" pan="0" len="24" vol="34" />
          <note key="48" pos="720" pan="0" len="24" vol="34" />
          <note key="48" pos="912" pan="0" len="24" vol="34" />
          <note key="48" pos="1104" pan="0" len="24" vol="34" />
          <note key="48" pos="1296" pan="0" len="24" vol="34" />
          <note key="48" pos="1488" pan="0" len="24" vol="34" />
        </pattern>
        <pattern pos="168960" muted="0" steps="16" name="" type="1">
          <note key="48" pos="144" pan="0" len="24" vol="34" />
          <note key="48" pos="336" pan="0" len="24" vol="34" />
          <note key="48" pos="528" pan="0" len="24" vol="34" />
          <note key="48" pos="720" pan="0" len="24" vol="34" />
          <note key="48" pos="912" pan="0" len="24" vol="34" />
          <note key="48" pos="1104" pan="0" len="24" vol="34" />
          <note key="48" pos="1296" pan="0" len="24" vol="34" />
          <note key="48" pos="1488" pan="0" len="24" vol="34" />
        </pattern>
        <pattern pos="170496" muted="0" steps="16" name="" type="1">
          <note key="48" pos="144" pan="0" len="24" vol="34" />
          <note key="48" pos="336" pan="0" len="24" vol="34" />
          <note key="48" pos="528" pan="0" len="24" vol="34" />
          <note key="48" pos="720" pan="0" len="24" vol="34" />
          <note key="48" pos="912" pan="0" len="24" vol="34" />
          <note key="48" pos="1104" pan="0" len="24" vol="34" />
          <note key="48" pos="1296" pan="0" len="24" vol="34" />
          <note key="48" pos="1488" pan="0" len="24" vol="34" />
        </pattern>
        <pattern pos="172032" muted="0" steps="16" name="" type="1">
          <note key="48" pos="144" pan="0" len="24" vol="34" />
          <note key="48" pos="336" pan="0" len="24" vol="34" />
          <note key="48" pos="528" pan="0" len="24" vol="34" />
          <note key="48" pos="720" pan="0" len="24" vol="34" />
          <note key="48" pos="912" pan="0" len="24" vol="34" />
          <note key="48" pos="1104" pan="0" len="24" vol="34" />
          <note key="48" pos="1296" pan="0" len="24" vol="34" />
          <note key="48" pos="1488" pan="0" len="24" vol="34" />
        </pattern>
        <pattern pos="173568" muted="0" steps="16" name="" type="1">
          <note key="48" pos="144" pan="0" len="24" vol="34" />
          <note key="48" pos="336" pan="0" len="24" vol="34" />
          <note key="48" pos="528" pan="0" len="24" vol="34" />
          <note key="48" pos="720" pan="0" len="24" vol="34" />
          <note key="48" pos="912" pan="0" len="24" vol="34" />
          <note key="48" pos="1104" pan="0" len="24" vol="34" />
          <note key="48" pos="1296" pan="0" len="24" vol="34" />
          <note key="48" pos="1488" pan="0" len="24" vol="34" />
        </pattern>
      </track>
      <track solo="0" name="31 (Ch8)" type="0" muted="0">
        <instrumenttrack usemasterpitch="1" pitch="0.0" basenote="57" pan="0" pitchrange="12" vol="30">
          <eldata />
          <instrument name="tripleoscillator" />
        </instrumenttrack>
        <pattern pos="256896" muted="0" steps="16" name="" type="1">
          <note key="60" pos="96" pan="0" len="24" vol="100" />
          <note key="60" pos="480" pan="0" len="24" vol="100" />
          <note key="60" pos="864" pan="0" len="24" vol="100" />
          <note key="60" pos="1248" pan="0" len="24" vol="100" />
        </pattern>
        <pattern pos="227520" muted="0" steps="16" name="" type="1">
          <note key="60" pos="96" pan="0" len="24" vol="100" />
          <note key="62" pos="288" pan="0" len="24" vol="100" />
          <note key="63" pos="480" pan="0" len="24" vol="100" />
          <note key="65" pos="672" pan="0" len="24" vol="100" />
          <note key="60" pos="864" pan="0" len="24" vol="100" />
          <note key="62" pos="1056" pan="0" len="24" vol="100" />
          <note key="63" pos="1248" pan="0" len="24" vol="100" />
          <note key="65" pos="1440" pan="0" len="24" vol="100" />
        </pattern>
        <pattern pos="229056" muted="0" steps="16" name="" type="1">
          <note key="60" pos="96" pan="0" len="24" vol="100" />
          <note key="62" pos="288" pan="0" len="24" vol="100" />
          <note key="63" pos="480" pan="0" len="24" vol="100" />
          <note key="65" pos="672" pan="0" len="24" vol="100" />
          <note key="60" pos="864" pan="0" len="24" vol="100" />
          <note key="62" pos="1056" pan="0" len="24" vol="100" />
          <note key="63" pos="1248" pan="0" len="24" vol="100" />
          <note key="65" pos="1440" pan="0" len="24" vol="100" />
        </pattern>
        <pattern pos="241536" muted="0" steps="16" name="" type="1">
          <note key="60" pos="96" pan="0" len="24" vol="100" />
          <note key="60" pos="312" pan="0" len="24" vol="34" />
          <note key="60" pos="480" pan="0" len="24" vol="100" />
          <note key="60" pos="696" pan="0" len="24" vol="34" />
          <note key="60" pos="864" pan="0" len="24" vol="100" />
          <note key="60" pos="1080" pan="0" len="24" vol="34" />
          <note key="60" pos="1248" pan="0" len="24" vol="100" />
          <note key="60" pos="1464" pan="0" len="24" vol="34" />
        </pattern>
        <pattern pos="243072" muted="0" steps="16" name="" type="1">
          <note key="60" pos="96" pan="0" len="24" vol="100" />
          <note key="60" pos="312" pan="0" len="24" vol="34" />
          <note key="60" pos="480" pan="0" len="24" vol="100" />
          <note key="60" pos="696" pan="0" len="24" vol="34" />
          <note key="60" pos="864" pan="0" len="24" vol="100" />
          <note key="60" pos="1080" pan="0" len="24" vol="34" />
          <note key="60" pos="1248" pan="0" len="24" vol="100" />
        </pattern>
        <pattern pos="244608" muted="0" steps="16" name="" type="1">
          <note key="60" pos="96" pan="0" len="24" vol="100" />
          <note key="60" pos="480" pan="0" len="24" vol="100" />
          <note key="60" pos="864" pan="0" len="24" vol="100" />
          <note key="60" pos="1248" pan="0" len="24" vol="100" />
        </pattern>
        <pattern pos="246144" muted="0" steps="16" name="" type="1">
          <note key="60" pos="96" pan="0" len="24" vol="100" />
          <note key="60" pos="480" pan="0" len="24" vol="100" />
          <note key="60" pos="864" pan="0" len="24" vol="100" />
          <note key="60" pos="1248" pan="0" len="24" vol="100" />
          <note key="60" pos="1464" pan="0" len="24" vol="100" />
        </pattern>
        <pattern pos="249216" muted="0" steps="16" name="" type="1">
          <note key="60" pos="96" pan="0" len="24" vol="100" />
          <note key="60" pos="480" pan="0" len="24" vol="100" />
          <note key="60" pos="864" pan="0" len="24" vol="100" />
          <note key="60" pos="1248" pan="0" len="24" vol="100" />
        </pattern>
        <pattern pos="250752" muted="0" steps="16" name="" type="1">
          <note key="60" pos="96" pan="0" len="24" vol="100" />
          <note key="60" pos="480" pan="0" len="24" vol="100" />
          <note key="60" pos="864" pan="0" len="24" vol="100" />
          <note key="60" pos="1248" pan="0" len="24" vol="100" />
          <note key="60" pos="1464" pan="0" len="24" vol="100" />
        </pattern>
        <pattern pos="252288" muted="0" steps="16" name="" type="1">
          <note key="60" pos="96" pan="0" len="24" vol="100" />
          <note key="60" pos="480" pan="0" len="24" vol="100" />
          <note key="60" pos="864" pan="0" len="24" vol="100" />
          <note key="60" pos="1248" pan="0" len="24" vol="100" />
        </pattern>
        <pattern pos="253824" muted="0" steps="16" name="" type="1">
          <note key="60" pos="96" pan="0" len="24" vol="100" />
          <note key="60" pos="480" pan="0" len="24" vol="100" />
          <note key="60" pos="864" pan="0" len="24" vol="100" />
          <note key="60" pos="1248" pan="0" len="24" vol="100" />
          <note key="60" pos="1464" pan="0" len="24" vol="100" />
        </pattern>
        <pattern pos="255360" muted="0" steps="16" name="" type="1">
          <note key="60" pos="96" pan="0" len="24" vol="100" />
          <note key="60" pos="480" pan="0" len="24" vol="100" />
          <note key="60" pos="864" pan="0" len="24" vol="100" />
          <note key="60" pos="1248" pan="0" len="24" vol="100" />
        </pattern>
      </track>
      <track solo="0" name="31 (Ch9)" type="0" muted="0">
        <instrumenttrack usemasterpitch="1" pitch="0.0" basenote="57" pan="0" pitchrange="12" vol="30">
          <eldata />
          <instrument name="tripleoscillator" />
        </instrumenttrack>
        <pattern pos="247680" muted="0" steps="16" name="" type="1">
          <note key="60" pos="1476" pan="0" len="12" vol="34" />
        </pattern>
        <pattern pos="224448" muted="0" steps="16" name="" type="1">
          <note key="67" pos="96" pan="0" len="24" vol="100" />
          <note key="65" pos="288" pan="0" len="24" vol="100" />
          <note key="63" pos="480" pan="0" len="24" vol="100" />
          <note key="65" pos="672" pan="0" len="24" vol="100" />
          <note key="67" pos="864" pan="0" len="24" vol="100" />
          <note key="65" pos="1056" pan="0" len="24" vol="100" />
          <note key="63" pos="1248" pan="0" len="24" vol="100" />
          <note key="65" pos="1440" pan="0" len="24" vol="100" />
        </pattern>
        <pattern pos="225984" muted="0" steps="16" name="" type="1">
          <note key="67" pos="96" pan="0" len="24" vol="100" />
          <note key="65" pos="288" pan="0" len="24" vol="100" />
          <note key="63" pos="480" pan="0" len="24" vol="100" />
          <note key="65" pos="672" pan="0" len="24" vol="100" />
          <note key="67" pos="864" pan="0" len="24" vol="100" />
          <note key="65" pos="1056" pan="0" len="24" vol="100" />
          <note key="63" pos="1248" pan="0" len="24" vol="100" />
          <note key="65" pos="1440" pan="0" len="24" vol="100" />
        </pattern>
        <pattern pos="230592" muted="0" steps="16" name="" type="1">
          <note key="67" pos="96" pan="0" len="24" vol="100" />
          <note key="65" pos="288" pan="0" len="24" vol="100" />
          <note key="63" pos="480" pan="0" len="24" vol="100" />
          <note key="65" pos="672" pan="0" len="24" vol="100" />
          <note key="60" pos="864" pan="0" len="24" vol="100" />
          <note key="62" pos="1056" pan="0" len="24" vol="100" />
          <note key="63" pos="1248" pan="0" len="24" vol="100" />
          <note key="65" pos="1440" pan="0" len="24" vol="100" />
        </pattern>
        <pattern pos="232128" muted="0" steps="16" name="" type="1">
          <note key="67" pos="96" pan="0" len="24" vol="100" />
          <note key="65" pos="288" pan="0" len="24" vol="100" />
          <note key="63" pos="480" pan="0" len="24" vol="100" />
          <note key="65" pos="672" pan="0" len="24" vol="100" />
          <note key="60" pos="864" pan="0" len="24" vol="100" />
          <note key="62" pos="1056" pan="0" len="24" vol="100" />
          <note key="67" pos="1248" pan="0" len="24" vol="100" />
          <note key="67" pos="1440" pan="0" len="24" vol="100" />
        </pattern>
        <pattern pos="233664" muted="0" steps="16" name="" type="1">
          <note key="67" pos="96" pan="0" len="24" vol="100" />
          <note key="65" pos="288" pan="0" len="24" vol="100" />
          <note key="63" pos="480" pan="0" len="24" vol="100" />
          <note key="65" pos="672" pan="0" len="24" vol="100" />
          <note key="67" pos="864" pan="0" len="24" vol="100" />
          <note key="65" pos="1056" pan="0" len="24" vol="100" />
          <note key="63" pos="1248" pan="0" len="24" vol="100" />
          <note key="65" pos="1440" pan="0" len="24" vol="100" />
        </pattern>
        <pattern pos="235200" muted="0" steps="16" name="" type="1">
          <note key="67" pos="96" pan="0" len="24" vol="100" />
          <note key="65" pos="288" pan="0" len="24" vol="100" />
          <note key="63" pos="480" pan="0" len="24" vol="100" />
          <note key="65" pos="672" pan="0" len="24" vol="100" />
          <note key="67" pos="864" pan="0" len="24" vol="100" />
          <note key="65" pos="1056" pan="0" len="24" vol="100" />
          <note key="63" pos="1248" pan="0" len="24" vol="100" />
          <note key="65" pos="1440" pan="0" len="24" vol="100" />
        </pattern>
        <pattern pos="240000" muted="0" steps="16" name="" type="1">
          <note key="60" pos="1476" pan="0" len="12" vol="34" />
        </pattern>
      </track>
      <track solo="0" name="31 (Ch11)" type="0" muted="0">
        <instrumenttrack usemasterpitch="1" pitch="0.0" basenote="57" pan="0" pitchrange="12" vol="30">
          <eldata />
          <instrument name="tripleoscillator" />
        </instrumenttrack>
        <pattern pos="196608" muted="0" steps="16" name="" type="1">
          <note key="64" pos="144" pan="0" len="36" vol="50" />
          <note key="64" pos="336" pan="0" len="36" vol="50" />
          <note key="64" pos="528" pan="0" len="36" vol="50" />
          <note key="64" pos="720" pan="0" len="36" vol="42" />
          <note key="64" pos="912" pan="0" len="36" vol="33" />
          <note key="64" pos="1104" pan="0" len="36" vol="22" />
          <note key="64" pos="1296" pan="0" len="36" vol="12" />
          <note key="64" pos="1488" pan="0" len="36" vol="3" />
        </pattern>
        <pattern pos="190464" muted="0" steps="16" name="" type="1">
          <note key="64" pos="144" pan="0" len="36" vol="50" />
          <note key="64" pos="336" pan="0" len="36" vol="50" />
          <note key="64" pos="528" pan="0" len="36" vol="50" />
          <note key="64" pos="720" pan="0" len="36" vol="50" />
          <note key="64" pos="912" pan="0" len="36" vol="50" />
          <note key="64" pos="1104" pan="0" len="36" vol="50" />
          <note key="64" pos="1296" pan="0" len="36" vol="50" />
          <note key="64" pos="1488" pan="0" len="36" vol="50" />
        </pattern>
        <pattern pos="192000" muted="0" steps="16" name="" type="1">
          <note key="64" pos="144" pan="0" len="36" vol="50" />
          <note key="64" pos="336" pan="0" len="36" vol="50" />
          <note key="64" pos="528" pan="0" len="36" vol="50" />
          <note key="64" pos="720" pan="0" len="36" vol="50" />
          <note key="64" pos="912" pan="0" len="36" vol="50" />
          <note key="64" pos="1104" pan="0" len="36" vol="50" />
          <note key="64" pos="1296" pan="0" len="36" vol="50" />
          <note key="64" pos="1488" pan="0" len="36" vol="50" />
        </pattern>
        <pattern pos="195072" muted="0" steps="16" name="" type="1">
          <note key="64" pos="144" pan="0" len="36" vol="50" />
          <note key="64" pos="336" pan="0" len="36" vol="50" />
          <note key="64" pos="528" pan="0" len="36" vol="50" />
          <note key="64" pos="720" pan="0" len="36" vol="50" />
          <note key="64" pos="912" pan="0" len="36" vol="50" />
          <note key="64" pos="1104" pan="0" len="36" vol="50" />
          <note key="64" pos="1296" pan="0" len="36" vol="50" />
          <note key="64" pos="1488" pan="0" len="36" vol="50" />
        </pattern>
      </track>
      <track solo="0" name="32 (Ch1)" type="0" muted="0">
        <instrumenttrack usemasterpitch="1" pitch="0.0" basenote="57" pan="0" pitchrange="12" vol="30">
          <eldata />
          <instrument name="tripleoscillator" />
        </instrumenttrack>
        <pattern pos="16128" muted="0" steps="16" name="" type="1">
          <note key="60" pos="96" pan="0" len="24" vol="100" />
          <note key="60" pos="288" pan="0" len="24" vol="100" />
          <note key="60" pos="480" pan="0" len="24" vol="100" />
          <note key="60" pos="672" pan="0" len="24" vol="100" />
          <note key="60" pos="864" pan="0" len="24" vol="100" />
          <note key="60" pos="1056" pan="0" len="24" vol="100" />
          <note key="60" pos="1248" pan="0" len="24" vol="100" />
          <note key="60" pos="1440" pan="0" len="24" vol="100" />
        </pattern>
        <pattern pos="6912" muted="0" steps="16" name="" type="1">
          <note key="60" pos="96" pan="0" len="24" vol="100" />
          <note key="60" pos="288" pan="0" len="24" vol="100" />
          <note key="60" pos="480" pan="0" len="24" vol="100" />
          <note key="60" pos="672" pan="0" len="24" vol="100" />
        </pattern>
        <pattern pos="7680" muted="0" steps="16" name="" type="1">
          <note key="60" pos="96" pan="0" len="24" vol="100" />
          <note key="60" pos="288" pan="0" len="24" vol="100" />
          <note key="60" pos="480" pan="0" len="24" vol="100" />
          <note key="60" pos="672" pan="0" len="24" vol="100" />
        </pattern>
        <pattern pos="8448" muted="0" steps="16" name="" type="1">
          <note key="60" pos="96" pan="0" len="24" vol="100" />
          <note key="60" pos="288" pan="0" len="24" vol="100" />
          <note key="60" pos="480" pan="0" len="24" vol="100" />
          <note key="60" pos="672" pan="0" len="24" vol="100" />
        </pattern>
        <pattern pos="9216" muted="0" steps="16" name="" type="1">
          <note key="60" pos="96" pan="0" len="24" vol="100" />
          <note key="60" pos="288" pan="0" len="24" vol="100" />
          <note key="60" pos="480" pan="0" len="24" vol="100" />
          <note key="60" pos="672" pan="0" len="24" vol="100" />
        </pattern>
        <pattern pos="9984" muted="0" steps="16" name="" type="1">
          <note key="60" pos="96" pan="0" len="24" vol="100" />
          <note key="60" pos="288" pan="0" len="24" vol="100" />
          <note key="60" pos="480" pan="0" len="24" vol="100" />
          <note key="60" pos="672" pan="0" len="24" vol="100" />
        </pattern>
        <pattern pos="10752" muted="0" steps="16" name="" type="1">
          <note key="60" pos="96" pan="0" len="24" vol="100" />
          <note key="60" pos="288" pan="0" len="24" vol="100" />
          <note key="60" pos="480" pan="0" len="24" vol="100" />
          <note key="60" pos="672" pan="0" len="24" vol="100" />
        </pattern>
        <pattern pos="11520" muted="0" steps="16" name="" type="1">
          <note key="60" pos="96" pan="0" len="24" vol="100" />
          <note key="60" pos="288" pan="0" len="24" vol="100" />
          <note key="60" pos="480" pan="0" len="24" vol="100" />
          <note key="60" pos="672" pan="0" len="24" vol="100" />
          <note key="60" pos="864" pan="0" len="24" vol="100" />
          <note key="60" pos="1056" pan="0" len="24" vol="100" />
          <note key="60" pos="1248" pan="0" len="24" vol="100" />
          <note key="60" pos="1440" pan="0" len="24" vol="100" />
        </pattern>
        <pattern pos="13056" muted="0" steps="16" name="" type="1">
          <note key="60" pos="96" pan="0" len="24" vol="100" />
          <note key="60" pos="288" pan="0" len="24" vol="100" />
          <note key="60" pos="480" pan="0" len="24" vol="100" />
          <note key="60" pos="672" pan="0" len="24" vol="100" />
          <note key="60" pos="864" pan="0" len="24" vol="100" />
          <note key="60" pos="1056" pan="0" len="24" vol="100" />
          <note key="60" pos="1248" pan="0" len="24" vol="100" />
          <note key="60" pos="1440" pan="0" len="24" vol="100" />
        </pattern>
        <pattern pos="14592" muted="0" steps="16" name="" type="1">
          <note key="60" pos="96" pan="0" len="24" vol="100" />
          <note key="60" pos="288" pan="0" len="24" vol="100" />
          <note key="60" pos="480" pan="0" len="24" vol="100" />
          <note key="60" pos="672" pan="0" len="24" vol="100" />
          <note key="60" pos="864" pan="0" len="24" vol="100" />
          <note key="60" pos="1056" pan="0" len="24" vol="100" />
          <note key="60" pos="1248" pan="0" len="24" vol="100" />
          <note key="60" pos="1440" pan="0" len="24" vol="100" />
        </pattern>
      </track>
      <track solo="0" name="32 (Ch2)" type="0" muted="0">
        <instrumenttrack usemasterpitch="1" pitch="0.0" basenote="57" pan="0" pitchrange="12" vol="30">
          <eldata />
          <instrument name="tripleoscillator" />
        </instrumenttrack>
        <pattern pos="267648" muted="0" steps="16" name="" type="1">
          <note key="63" pos="36" pan="0" len="12" vol="34" />
          <note key="63" pos="228" pan="0" len="12" vol="34" />
          <note key="65" pos="420" pan="0" len="12" vol="34" />
          <note key="65" pos="612" pan="0" len="12" vol="34" />
          <note key="63" pos="804" pan="0" len="12" vol="34" />
          <note key="63" pos="996" pan="0" len="12" vol="34" />
          <note key="65" pos="1188" pan="0" len="12" vol="34" />
          <note key="65" pos="1380" pan="0" len="12" vol="34" />
        </pattern>
        <pattern pos="259968" muted="0" steps="16" name="" type="1">
          <note key="65" pos="36" pan="0" len="12" vol="34" />
          <note key="65" pos="228" pan="0" len="12" vol="34" />
          <note key="65" pos="420" pan="0" len="12" vol="34" />
          <note key="65" pos="612" pan="0" len="12" vol="34" />
        </pattern>
        <pattern pos="260736" muted="0" steps="16" name="" type="1">
          <note key="65" pos="36" pan="0" len="12" vol="34" />
          <note key="65" pos="228" pan="0" len="12" vol="34" />
          <note key="65" pos="420" pan="0" len="12" vol="34" />
          <note key="65" pos="612" pan="0" len="12" vol="34" />
        </pattern>
        <pattern pos="261504" muted="0" steps="16" name="" type="1">
          <note key="56" pos="36" pan="0" len="12" vol="34" />
          <note key="56" pos="228" pan="0" len="12" vol="34" />
          <note key="56" pos="420" pan="0" len="12" vol="34" />
          <note key="56" pos="612" pan="0" len="12" vol="34" />
        </pattern>
        <pattern pos="262272" muted="0" steps="16" name="" type="1">
          <note key="56" pos="36" pan="0" len="12" vol="34" />
          <note key="56" pos="228" pan="0" len="12" vol="34" />
          <note key="56" pos="420" pan="0" len="12" vol="34" />
          <note key="56" pos="612" pan="0" len="12" vol="34" />
        </pattern>
        <pattern pos="263040" muted="0" steps="16" name="" type="1">
          <note key="55" pos="36" pan="0" len="12" vol="34" />
          <note key="55" pos="228" pan="0" len="12" vol="34" />
          <note key="55" pos="420" pan="0" len="12" vol="34" />
          <note key="55" pos="612" pan="0" len="12" vol="34" />
        </pattern>
        <pattern pos="263808" muted="0" steps="16" name="" type="1">
          <note key="55" pos="36" pan="0" len="12" vol="34" />
          <note key="55" pos="228" pan="0" len="12" vol="34" />
          <note key="55" pos="420" pan="0" len="12" vol="34" />
          <note key="55" pos="612" pan="0" len="12" vol="34" />
        </pattern>
        <pattern pos="264576" muted="0" steps="16" name="" type="1">
          <note key="65" pos="36" pan="0" len="12" vol="34" />
          <note key="65" pos="228" pan="0" len="12" vol="34" />
          <note key="65" pos="420" pan="0" len="12" vol="34" />
          <note key="65" pos="612" pan="0" len="12" vol="34" />
        </pattern>
        <pattern pos="265344" muted="0" steps="16" name="" type="1">
          <note key="65" pos="36" pan="0" len="12" vol="34" />
          <note key="65" pos="228" pan="0" len="12" vol="34" />
          <note key="65" pos="420" pan="0" len="12" vol="34" />
          <note key="65" pos="612" pan="0" len="12" vol="34" />
        </pattern>
        <pattern pos="266112" muted="0" steps="16" name="" type="1">
          <note key="65" pos="36" pan="0" len="12" vol="34" />
          <note key="65" pos="228" pan="0" len="12" vol="34" />
          <note key="60" pos="420" pan="0" len="12" vol="34" />
          <note key="60" pos="612" pan="0" len="12" vol="34" />
          <note key="65" pos="804" pan="0" len="12" vol="34" />
          <note key="65" pos="996" pan="0" len="12" vol="34" />
          <note key="60" pos="1188" pan="0" len="12" vol="34" />
          <note key="60" pos="1380" pan="0" len="12" vol="34" />
        </pattern>
      </track>
      <track solo="0" name="32 (Ch3)" type="0" muted="0">
        <instrumenttrack usemasterpitch="1" pitch="0.0" basenote="57" pan="0" pitchrange="12" vol="30">
          <eldata />
          <instrument name="tripleoscillator" />
        </instrumenttrack>
        <pattern pos="133632" muted="0" steps="16" name="" type="1">
          <note key="60" pos="264" pan="0" len="24" vol="34" />
          <note key="60" pos="1032" pan="0" len="24" vol="34" />
        </pattern>
        <pattern pos="93696" muted="0" steps="16" name="" type="1">
          <note key="60" pos="1032" pan="0" len="24" vol="34" />
          <note key="60" pos="1080" pan="0" len="24" vol="100" />
        </pattern>
        <pattern pos="95232" muted="0" steps="16" name="" type="1">
          <note key="60" pos="264" pan="0" len="24" vol="34" />
          <note key="60" pos="1032" pan="0" len="24" vol="34" />
        </pattern>
        <pattern pos="96768" muted="0" steps="16" name="" type="1">
          <note key="60" pos="264" pan="0" len="24" vol="34" />
          <note key="60" pos="1032" pan="0" len="24" vol="34" />
        </pattern>
        <pattern pos="98304" muted="0" steps="16" name="" type="1">
          <note key="60" pos="264" pan="0" len="24" vol="34" />
          <note key="60" pos="1032" pan="0" len="24" vol="34" />
        </pattern>
        <pattern pos="99840" muted="0" steps="16" name="" type="1">
          <note key="60" pos="264" pan="0" len="24" vol="34" />
          <note key="60" pos="1032" pan="0" len="24" vol="34" />
        </pattern>
        <pattern pos="101376" muted="0" steps="16" name="" type="1">
          <note key="60" pos="264" pan="0" len="24" vol="34" />
          <note key="60" pos="1032" pan="0" len="24" vol="34" />
        </pattern>
        <pattern pos="102912" muted="0" steps="16" name="" type="1">
          <note key="60" pos="264" pan="0" len="24" vol="34" />
          <note key="60" pos="1032" pan="0" len="24" vol="34" />
        </pattern>
        <pattern pos="105984" muted="0" steps="16" name="" type="1">
          <note key="62" pos="264" pan="0" len="24" vol="0" />
          <note key="62" pos="1032" pan="0" len="24" vol="11" />
        </pattern>
        <pattern pos="107520" muted="0" steps="16" name="" type="1">
          <note key="67" pos="264" pan="0" len="24" vol="34" />
          <note key="67" pos="648" pan="0" len="24" vol="34" />
          <note key="67" pos="1032" pan="0" len="24" vol="34" />
          <note key="67" pos="1416" pan="0" len="24" vol="34" />
        </pattern>
        <pattern pos="109056" muted="0" steps="16" name="" type="1">
          <note key="67" pos="264" pan="0" len="24" vol="34" />
          <note key="67" pos="648" pan="0" len="24" vol="34" />
          <note key="67" pos="1032" pan="0" len="24" vol="34" />
          <note key="67" pos="1416" pan="0" len="24" vol="34" />
        </pattern>
        <pattern pos="110592" muted="0" steps="16" name="" type="1">
          <note key="58" pos="264" pan="0" len="24" vol="34" />
          <note key="58" pos="648" pan="0" len="24" vol="34" />
          <note key="58" pos="1032" pan="0" len="24" vol="34" />
          <note key="58" pos="1416" pan="0" len="24" vol="34" />
        </pattern>
        <pattern pos="112128" muted="0" steps="16" name="" type="1">
          <note key="58" pos="264" pan="0" len="24" vol="34" />
          <note key="58" pos="648" pan="0" len="24" vol="34" />
          <note key="58" pos="1032" pan="0" len="24" vol="34" />
          <note key="58" pos="1416" pan="0" len="24" vol="34" />
        </pattern>
        <pattern pos="116736" muted="0" steps="16" name="" type="1">
          <note key="60" pos="168" pan="0" len="24" vol="100" />
          <note key="60" pos="552" pan="0" len="24" vol="100" />
          <note key="60" pos="936" pan="0" len="24" vol="100" />
          <note key="60" pos="1320" pan="0" len="24" vol="100" />
        </pattern>
        <pattern pos="118272" muted="0" steps="16" name="" type="1">
          <note key="60" pos="168" pan="0" len="24" vol="100" />
          <note key="60" pos="552" pan="0" len="24" vol="100" />
          <note key="60" pos="936" pan="0" len="24" vol="100" />
          <note key="60" pos="1320" pan="0" len="24" vol="100" />
        </pattern>
        <pattern pos="122880" muted="0" steps="16" name="" type="1">
          <note key="60" pos="264" pan="0" len="24" vol="34" />
          <note key="60" pos="1032" pan="0" len="24" vol="34" />
        </pattern>
        <pattern pos="124416" muted="0" steps="16" name="" type="1">
          <note key="60" pos="264" pan="0" len="24" vol="34" />
          <note key="60" pos="1032" pan="0" len="24" vol="34" />
        </pattern>
        <pattern pos="125952" muted="0" steps="16" name="" type="1">
          <note key="60" pos="264" pan="0" len="24" vol="34" />
          <note key="60" pos="1032" pan="0" len="24" vol="34" />
        </pattern>
        <pattern pos="127488" muted="0" steps="16" name="" type="1">
          <note key="60" pos="264" pan="0" len="24" vol="34" />
          <note key="60" pos="1032" pan="0" len="24" vol="34" />
        </pattern>
        <pattern pos="129024" muted="0" steps="16" name="" type="1">
          <note key="60" pos="264" pan="0" len="24" vol="34" />
          <note key="60" pos="1032" pan="0" len="24" vol="34" />
        </pattern>
        <pattern pos="130560" muted="0" steps="16" name="" type="1">
          <note key="60" pos="264" pan="0" len="24" vol="34" />
          <note key="60" pos="1032" pan="0" len="24" vol="34" />
        </pattern>
        <pattern pos="132096" muted="0" steps="16" name="" type="1">
          <note key="60" pos="264" pan="0" len="24" vol="34" />
          <note key="60" pos="1032" pan="0" len="24" vol="34" />
        </pattern>
      </track>
      <track solo="0" name="32 (Ch6)" type="0" muted="0">
        <instrumenttrack usemasterpitch="1" pitch="0.0" basenote="57" pan="0" pitchrange="12" vol="30">
          <eldata />
          <instrument name="tripleoscillator" />
        </instrumenttrack>
        <pattern pos="215040" muted="0" steps="16" name="" type="1">
          <note key="66" pos="240" pan="0" len="24" vol="100" />
          <note key="66" pos="336" pan="0" len="24" vol="100" />
          <note key="66" pos="1008" pan="0" len="24" vol="100" />
          <note key="66" pos="1104" pan="0" len="24" vol="100" />
        </pattern>
        <pattern pos="59904" muted="0" steps="16" name="" type="1">
          <note key="60" pos="336" pan="0" len="24" vol="100" />
          <note key="60" pos="720" pan="0" len="24" vol="100" />
          <note key="60" pos="1104" pan="0" len="24" vol="100" />
          <note key="60" pos="1488" pan="0" len="24" vol="100" />
        </pattern>
        <pattern pos="61440" muted="0" steps="16" name="" type="1">
          <note key="60" pos="336" pan="0" len="24" vol="100" />
          <note key="60" pos="720" pan="0" len="24" vol="100" />
          <note key="60" pos="1104" pan="0" len="24" vol="100" />
          <note key="60" pos="1488" pan="0" len="24" vol="100" />
        </pattern>
        <pattern pos="62976" muted="0" steps="16" name="" type="1">
          <note key="60" pos="336" pan="0" len="24" vol="100" />
          <note key="60" pos="720" pan="0" len="24" vol="100" />
          <note key="60" pos="1104" pan="0" len="24" vol="100" />
          <note key="60" pos="1488" pan="0" len="24" vol="100" />
        </pattern>
        <pattern pos="64512" muted="0" steps="16" name="" type="1">
          <note key="60" pos="336" pan="0" len="24" vol="100" />
          <note key="60" pos="720" pan="0" len="24" vol="100" />
          <note key="60" pos="1104" pan="0" len="24" vol="100" />
          <note key="60" pos="1488" pan="0" len="24" vol="100" />
        </pattern>
        <pattern pos="66048" muted="0" steps="16" name="" type="1">
          <note key="60" pos="336" pan="0" len="24" vol="100" />
          <note key="60" pos="720" pan="0" len="24" vol="100" />
          <note key="60" pos="1104" pan="0" len="24" vol="100" />
          <note key="60" pos="1488" pan="0" len="24" vol="100" />
        </pattern>
        <pattern pos="67584" muted="0" steps="16" name="" type="1">
          <note key="60" pos="336" pan="0" len="24" vol="100" />
          <note key="60" pos="720" pan="0" len="24" vol="100" />
          <note key="60" pos="1104" pan="0" len="24" vol="100" />
          <note key="60" pos="1488" pan="0" len="24" vol="100" />
        </pattern>
        <pattern pos="69120" muted="0" steps="16" name="" type="1">
          <note key="60" pos="336" pan="0" len="24" vol="100" />
          <note key="60" pos="720" pan="0" len="24" vol="100" />
          <note key="60" pos="1104" pan="0" len="24" vol="100" />
          <note key="60" pos="1488" pan="0" len="24" vol="100" />
        </pattern>
        <pattern pos="70656" muted="0" steps="16" name="" type="1">
          <note key="60" pos="336" pan="0" len="24" vol="100" />
          <note key="60" pos="720" pan="0" len="24" vol="100" />
          <note key="60" pos="1104" pan="0" len="24" vol="100" />
          <note key="60" pos="1488" pan="0" len="24" vol="100" />
        </pattern>
        <pattern pos="72192" muted="0" steps="16" name="" type="1">
          <note key="60" pos="336" pan="0" len="24" vol="100" />
          <note key="60" pos="720" pan="0" len="24" vol="100" />
          <note key="60" pos="1104" pan="0" len="24" vol="100" />
          <note key="60" pos="1488" pan="0" len="24" vol="100" />
        </pattern>
        <pattern pos="73728" muted="0" steps="16" name="" type="1">
          <note key="60" pos="336" pan="0" len="24" vol="100" />
          <note key="60" pos="720" pan="0" len="24" vol="100" />
          <note key="60" pos="1104" pan="0" len="24" vol="100" />
          <note key="60" pos="1488" pan="0" len="24" vol="100" />
        </pattern>
        <pattern pos="75264" muted="0" steps="16" name="" type="1">
          <note key="60" pos="336" pan="0" len="24" vol="100" />
          <note key="60" pos="720" pan="0" len="24" vol="100" />
          <note key="60" pos="1104" pan="0" len="24" vol="100" />
          <note key="60" pos="1488" pan="0" len="24" vol="100" />
        </pattern>
        <pattern pos="198144" muted="0" steps="16" name="" type="1">
          <note key="64" pos="120" pan="0" len="12" vol="100" />
          <note key="64" pos="168" pan="0" len="12" vol="100" />
          <note key="64" pos="504" pan="0" len="12" vol="100" />
          <note key="64" pos="552" pan="0" len="12" vol="100" />
          <note key="64" pos="888" pan="0" len="12" vol="100" />
          <note key="64" pos="936" pan="0" len="12" vol="100" />
          <note key="64" pos="1272" pan="0" len="12" vol="100" />
          <note key="64" pos="1320" pan="0" len="12" vol="100" />
        </pattern>
        <pattern pos="199680" muted="0" steps="16" name="" type="1">
          <note key="64" pos="120" pan="0" len="12" vol="100" />
          <note key="64" pos="168" pan="0" len="12" vol="100" />
          <note key="64" pos="504" pan="0" len="12" vol="100" />
          <note key="64" pos="552" pan="0" len="12" vol="100" />
          <note key="64" pos="888" pan="0" len="12" vol="100" />
          <note key="64" pos="936" pan="0" len="12" vol="100" />
          <note key="64" pos="1272" pan="0" len="12" vol="100" />
          <note key="64" pos="1320" pan="0" len="12" vol="100" />
        </pattern>
        <pattern pos="201216" muted="0" steps="16" name="" type="1">
          <note key="64" pos="240" pan="0" len="24" vol="100" />
          <note key="64" pos="336" pan="0" len="24" vol="100" />
          <note key="64" pos="1008" pan="0" len="24" vol="100" />
          <note key="64" pos="1104" pan="0" len="24" vol="100" />
        </pattern>
        <pattern pos="202752" muted="0" steps="16" name="" type="1">
          <note key="64" pos="240" pan="0" len="24" vol="100" />
          <note key="64" pos="336" pan="0" len="24" vol="100" />
          <note key="64" pos="1008" pan="0" len="24" vol="100" />
          <note key="64" pos="1104" pan="0" len="24" vol="100" />
        </pattern>
        <pattern pos="204288" muted="0" steps="16" name="" type="1">
          <note key="57" pos="240" pan="0" len="24" vol="100" />
          <note key="59" pos="336" pan="0" len="24" vol="100" />
          <note key="64" pos="1008" pan="0" len="24" vol="100" />
          <note key="64" pos="1104" pan="0" len="24" vol="100" />
        </pattern>
        <pattern pos="205824" muted="0" steps="16" name="" type="1">
          <note key="57" pos="240" pan="0" len="24" vol="100" />
          <note key="59" pos="336" pan="0" len="24" vol="100" />
          <note key="64" pos="1008" pan="0" len="24" vol="100" />
          <note key="64" pos="1104" pan="0" len="24" vol="100" />
        </pattern>
        <pattern pos="207360" muted="0" steps="16" name="" type="1">
          <note key="64" pos="240" pan="0" len="24" vol="100" />
          <note key="64" pos="336" pan="0" len="24" vol="100" />
          <note key="64" pos="1008" pan="0" len="24" vol="100" />
          <note key="64" pos="1104" pan="0" len="24" vol="100" />
        </pattern>
        <pattern pos="208896" muted="0" steps="16" name="" type="1">
          <note key="64" pos="240" pan="0" len="24" vol="100" />
          <note key="64" pos="336" pan="0" len="24" vol="100" />
          <note key="64" pos="1008" pan="0" len="24" vol="100" />
          <note key="64" pos="1104" pan="0" len="24" vol="100" />
        </pattern>
        <pattern pos="210432" muted="0" steps="16" name="" type="1">
          <note key="57" pos="240" pan="0" len="24" vol="100" />
          <note key="59" pos="336" pan="0" len="24" vol="100" />
          <note key="64" pos="1008" pan="0" len="24" vol="100" />
          <note key="64" pos="1104" pan="0" len="24" vol="100" />
        </pattern>
        <pattern pos="211968" muted="0" steps="16" name="" type="1">
          <note key="57" pos="240" pan="0" len="24" vol="100" />
          <note key="59" pos="336" pan="0" len="24" vol="100" />
          <note key="64" pos="1008" pan="0" len="24" vol="100" />
          <note key="64" pos="1104" pan="0" len="24" vol="100" />
        </pattern>
        <pattern pos="213504" muted="0" steps="16" name="" type="1">
          <note key="66" pos="120" pan="0" len="12" vol="100" />
          <note key="66" pos="168" pan="0" len="12" vol="100" />
          <note key="66" pos="504" pan="0" len="12" vol="100" />
          <note key="66" pos="552" pan="0" len="12" vol="100" />
          <note key="66" pos="888" pan="0" len="12" vol="100" />
          <note key="66" pos="936" pan="0" len="12" vol="100" />
          <note key="66" pos="1272" pan="0" len="12" vol="100" />
          <note key="66" pos="1320" pan="0" len="12" vol="100" />
        </pattern>
      </track>
      <track solo="0" name="32 (Ch7)" type="0" muted="0">
        <instrumenttrack usemasterpitch="1" pitch="0.0" basenote="57" pan="0" pitchrange="12" vol="30">
          <eldata />
          <instrument name="tripleoscillator" />
        </instrumenttrack>
        <pattern pos="175104" muted="0" steps="16" name="" type="1">
          <note key="48" pos="120" pan="0" len="24" vol="100" />
          <note key="48" pos="312" pan="0" len="24" vol="100" />
          <note key="48" pos="504" pan="0" len="24" vol="100" />
          <note key="48" pos="696" pan="0" len="24" vol="100" />
          <note key="48" pos="888" pan="0" len="24" vol="100" />
          <note key="48" pos="1080" pan="0" len="24" vol="80" />
          <note key="48" pos="1272" pan="0" len="24" vol="45" />
          <note key="48" pos="1464" pan="0" len="24" vol="12" />
        </pattern>
        <pattern pos="164352" muted="0" steps="16" name="" type="1">
          <note key="48" pos="120" pan="0" len="24" vol="100" />
          <note key="48" pos="312" pan="0" len="24" vol="100" />
          <note key="48" pos="504" pan="0" len="24" vol="100" />
          <note key="48" pos="696" pan="0" len="24" vol="100" />
          <note key="48" pos="888" pan="0" len="24" vol="100" />
          <note key="48" pos="1080" pan="0" len="24" vol="100" />
          <note key="48" pos="1272" pan="0" len="24" vol="100" />
          <note key="48" pos="1464" pan="0" len="24" vol="100" />
        </pattern>
        <pattern pos="165888" muted="0" steps="16" name="" type="1">
          <note key="48" pos="120" pan="0" len="24" vol="100" />
          <note key="48" pos="312" pan="0" len="24" vol="100" />
          <note key="48" pos="504" pan="0" len="24" vol="100" />
          <note key="48" pos="696" pan="0" len="24" vol="100" />
          <note key="48" pos="888" pan="0" len="24" vol="100" />
          <note key="48" pos="1080" pan="0" len="24" vol="100" />
          <note key="48" pos="1272" pan="0" len="24" vol="100" />
          <note key="48" pos="1464" pan="0" len="24" vol="100" />
        </pattern>
        <pattern pos="167424" muted="0" steps="16" name="" type="1">
          <note key="48" pos="120" pan="0" len="24" vol="100" />
          <note key="48" pos="312" pan="0" len="24" vol="100" />
          <note key="48" pos="504" pan="0" len="24" vol="100" />
          <note key="48" pos="696" pan="0" len="24" vol="100" />
          <note key="48" pos="888" pan="0" len="24" vol="100" />
          <note key="48" pos="1080" pan="0" len="24" vol="100" />
          <note key="48" pos="1272" pan="0" len="24" vol="100" />
          <note key="48" pos="1464" pan="0" len="24" vol="100" />
        </pattern>
        <pattern pos="168960" muted="0" steps="16" name="" type="1">
          <note key="48" pos="120" pan="0" len="24" vol="100" />
          <note key="48" pos="312" pan="0" len="24" vol="100" />
          <note key="48" pos="504" pan="0" len="24" vol="100" />
          <note key="48" pos="696" pan="0" len="24" vol="100" />
          <note key="48" pos="888" pan="0" len="24" vol="100" />
          <note key="48" pos="1080" pan="0" len="24" vol="100" />
          <note key="48" pos="1272" pan="0" len="24" vol="100" />
          <note key="48" pos="1464" pan="0" len="24" vol="100" />
        </pattern>
        <pattern pos="170496" muted="0" steps="16" name="" type="1">
          <note key="48" pos="120" pan="0" len="24" vol="100" />
          <note key="48" pos="312" pan="0" len="24" vol="100" />
          <note key="48" pos="504" pan="0" len="24" vol="100" />
          <note key="48" pos="696" pan="0" len="24" vol="100" />
          <note key="48" pos="888" pan="0" len="24" vol="100" />
          <note key="48" pos="1080" pan="0" len="24" vol="100" />
          <note key="48" pos="1272" pan="0" len="24" vol="100" />
          <note key="48" pos="1464" pan="0" len="24" vol="100" />
        </pattern>
        <pattern pos="172032" muted="0" steps="16" name="" type="1">
          <note key="48" pos="120" pan="0" len="24" vol="100" />
          <note key="48" pos="312" pan="0" len="24" vol="100" />
          <note key="48" pos="504" pan="0" len="24" vol="100" />
          <note key="48" pos="696" pan="0" len="24" vol="100" />
          <note key="48" pos="888" pan="0" len="24" vol="100" />
          <note key="48" pos="1080" pan="0" len="24" vol="100" />
          <note key="48" pos="1272" pan="0" len="24" vol="100" />
          <note key="48" pos="1464" pan="0" len="24" vol="100" />
        </pattern>
        <pattern pos="173568" muted="0" steps="16" name="" type="1">
          <note key="48" pos="120" pan="0" len="24" vol="100" />
          <note key="48" pos="312" pan="0" len="24" vol="100" />
          <note key="48" pos="504" pan="0" len="24" vol="100" />
          <note key="48" pos="696" pan="0" len="24" vol="100" />
          <note key="48" pos="888" pan="0" len="24" vol="100" />
          <note key="48" pos="1080" pan="0" len="24" vol="100" />
          <note key="48" pos="1272" pan="0" len="24" vol="100" />
          <note key="48" pos="1464" pan="0" len="24" vol="100" />
        </pattern>
      </track>
      <track solo="0" name="32 (Ch8)" type="0" muted="0">
        <instrumenttrack usemasterpitch="1" pitch="0.0" basenote="57" pan="0" pitchrange="12" vol="30">
          <eldata />
          <instrument name="tripleoscillator" />
        </instrumenttrack>
        <pattern pos="256896" muted="0" steps="16" name="" type="1">
          <note key="60" pos="192" pan="0" len="48" vol="100" />
          <note key="60" pos="576" pan="0" len="48" vol="100" />
          <note key="60" pos="960" pan="0" len="48" vol="100" />
          <note key="60" pos="1152" pan="0" len="24" vol="100" />
          <note key="60" pos="1344" pan="0" len="24" vol="100" />
        </pattern>
        <pattern pos="196608" muted="0" steps="16" name="" type="1">
          <note key="64" pos="888" pan="0" len="12" vol="17" />
          <note key="64" pos="936" pan="0" len="12" vol="23" />
          <note key="64" pos="1272" pan="0" len="12" vol="67" />
          <note key="64" pos="1320" pan="0" len="12" vol="73" />
        </pattern>
        <pattern pos="227520" muted="0" steps="16" name="" type="1">
          <note key="60" pos="72" pan="0" len="24" vol="17" />
          <note key="62" pos="264" pan="0" len="24" vol="17" />
          <note key="63" pos="456" pan="0" len="24" vol="17" />
          <note key="65" pos="648" pan="0" len="24" vol="17" />
          <note key="60" pos="840" pan="0" len="24" vol="17" />
          <note key="62" pos="1032" pan="0" len="24" vol="17" />
          <note key="63" pos="1224" pan="0" len="24" vol="17" />
          <note key="65" pos="1416" pan="0" len="24" vol="17" />
        </pattern>
        <pattern pos="229056" muted="0" steps="16" name="" type="1">
          <note key="60" pos="72" pan="0" len="24" vol="17" />
          <note key="62" pos="264" pan="0" len="24" vol="17" />
          <note key="63" pos="456" pan="0" len="24" vol="17" />
          <note key="65" pos="648" pan="0" len="24" vol="17" />
          <note key="60" pos="840" pan="0" len="24" vol="17" />
          <note key="62" pos="1032" pan="0" len="24" vol="17" />
          <note key="63" pos="1224" pan="0" len="24" vol="17" />
          <note key="65" pos="1416" pan="0" len="24" vol="17" />
        </pattern>
        <pattern pos="241536" muted="0" steps="16" name="" type="1">
          <note key="60" pos="0" pan="0" len="24" vol="100" />
          <note key="60" pos="192" pan="0" len="24" vol="100" />
          <note key="60" pos="384" pan="0" len="24" vol="100" />
          <note key="60" pos="576" pan="0" len="24" vol="100" />
          <note key="60" pos="768" pan="0" len="24" vol="100" />
          <note key="60" pos="960" pan="0" len="24" vol="100" />
          <note key="60" pos="1152" pan="0" len="24" vol="100" />
          <note key="60" pos="1344" pan="0" len="24" vol="100" />
        </pattern>
        <pattern pos="243072" muted="0" steps="16" name="" type="1">
          <note key="60" pos="0" pan="0" len="24" vol="100" />
          <note key="60" pos="192" pan="0" len="24" vol="100" />
          <note key="60" pos="384" pan="0" len="24" vol="100" />
          <note key="60" pos="576" pan="0" len="24" vol="100" />
          <note key="60" pos="768" pan="0" len="24" vol="100" />
          <note key="60" pos="960" pan="0" len="24" vol="100" />
          <note key="60" pos="1152" pan="0" len="24" vol="100" />
          <note key="60" pos="1344" pan="0" len="24" vol="100" />
        </pattern>
        <pattern pos="244608" muted="0" steps="16" name="" type="1">
          <note key="60" pos="192" pan="0" len="48" vol="100" />
          <note key="60" pos="576" pan="0" len="48" vol="100" />
          <note key="60" pos="960" pan="0" len="48" vol="100" />
          <note key="60" pos="1344" pan="0" len="48" vol="100" />
        </pattern>
        <pattern pos="246144" muted="0" steps="16" name="" type="1">
          <note key="60" pos="192" pan="0" len="48" vol="100" />
          <note key="60" pos="576" pan="0" len="48" vol="100" />
          <note key="60" pos="960" pan="0" len="48" vol="100" />
          <note key="60" pos="1344" pan="0" len="48" vol="100" />
        </pattern>
        <pattern pos="249216" muted="0" steps="16" name="" type="1">
          <note key="60" pos="192" pan="0" len="48" vol="100" />
          <note key="60" pos="576" pan="0" len="48" vol="100" />
          <note key="60" pos="960" pan="0" len="48" vol="100" />
          <note key="60" pos="1344" pan="0" len="48" vol="100" />
        </pattern>
        <pattern pos="250752" muted="0" steps="16" name="" type="1">
          <note key="60" pos="192" pan="0" len="48" vol="100" />
          <note key="60" pos="576" pan="0" len="48" vol="100" />
          <note key="60" pos="960" pan="0" len="48" vol="100" />
          <note key="60" pos="1344" pan="0" len="48" vol="100" />
        </pattern>
        <pattern pos="252288" muted="0" steps="16" name="" type="1">
          <note key="60" pos="192" pan="0" len="48" vol="100" />
          <note key="60" pos="576" pan="0" len="48" vol="100" />
          <note key="60" pos="960" pan="0" len="48" vol="100" />
          <note key="60" pos="1344" pan="0" len="48" vol="100" />
        </pattern>
        <pattern pos="253824" muted="0" steps="16" name="" type="1">
          <note key="60" pos="192" pan="0" len="48" vol="100" />
          <note key="60" pos="576" pan="0" len="48" vol="100" />
          <note key="60" pos="960" pan="0" len="48" vol="100" />
          <note key="60" pos="1344" pan="0" len="48" vol="100" />
        </pattern>
        <pattern pos="255360" muted="0" steps="16" name="" type="1">
          <note key="60" pos="192" pan="0" len="48" vol="100" />
          <note key="60" pos="576" pan="0" len="48" vol="100" />
          <note key="60" pos="960" pan="0" len="48" vol="100" />
          <note key="60" pos="1344" pan="0" len="48" vol="100" />
        </pattern>
      </track>
      <track solo="0" name="32 (Ch9)" type="0" muted="0">
        <instrumenttrack usemasterpitch="1" pitch="0.0" basenote="57" pan="0" pitchrange="12" vol="30">
          <eldata />
          <instrument name="tripleoscillator" />
        </instrumenttrack>
        <pattern pos="235200" muted="0" steps="16" name="" type="1">
          <note key="67" pos="72" pan="0" len="24" vol="17" />
          <note key="65" pos="264" pan="0" len="24" vol="17" />
          <note key="63" pos="456" pan="0" len="24" vol="17" />
          <note key="60" pos="648" pan="0" len="24" vol="17" />
          <note key="67" pos="840" pan="0" len="24" vol="17" />
          <note key="65" pos="1032" pan="0" len="24" vol="17" />
          <note key="63" pos="1224" pan="0" len="24" vol="17" />
          <note key="60" pos="1416" pan="0" len="24" vol="17" />
        </pattern>
        <pattern pos="224448" muted="0" steps="16" name="" type="1">
          <note key="67" pos="72" pan="0" len="24" vol="17" />
          <note key="65" pos="264" pan="0" len="24" vol="17" />
          <note key="63" pos="456" pan="0" len="24" vol="17" />
          <note key="60" pos="648" pan="0" len="24" vol="17" />
          <note key="67" pos="840" pan="0" len="24" vol="17" />
          <note key="65" pos="1032" pan="0" len="24" vol="17" />
          <note key="63" pos="1224" pan="0" len="24" vol="17" />
          <note key="60" pos="1416" pan="0" len="24" vol="17" />
        </pattern>
        <pattern pos="225984" muted="0" steps="16" name="" type="1">
          <note key="67" pos="72" pan="0" len="24" vol="17" />
          <note key="65" pos="264" pan="0" len="24" vol="17" />
          <note key="63" pos="456" pan="0" len="24" vol="17" />
          <note key="60" pos="648" pan="0" len="24" vol="17" />
          <note key="67" pos="840" pan="0" len="24" vol="17" />
          <note key="65" pos="1032" pan="0" len="24" vol="17" />
          <note key="63" pos="1224" pan="0" len="24" vol="17" />
          <note key="60" pos="1416" pan="0" len="24" vol="17" />
        </pattern>
        <pattern pos="230592" muted="0" steps="16" name="" type="1">
          <note key="67" pos="72" pan="0" len="24" vol="17" />
          <note key="65" pos="264" pan="0" len="24" vol="17" />
          <note key="63" pos="456" pan="0" len="24" vol="17" />
          <note key="65" pos="648" pan="0" len="24" vol="17" />
          <note key="60" pos="840" pan="0" len="24" vol="17" />
          <note key="62" pos="1032" pan="0" len="24" vol="17" />
          <note key="63" pos="1224" pan="0" len="24" vol="17" />
          <note key="65" pos="1416" pan="0" len="24" vol="17" />
        </pattern>
        <pattern pos="232128" muted="0" steps="16" name="" type="1">
          <note key="67" pos="72" pan="0" len="24" vol="17" />
          <note key="65" pos="264" pan="0" len="24" vol="17" />
          <note key="63" pos="456" pan="0" len="24" vol="17" />
          <note key="65" pos="648" pan="0" len="24" vol="17" />
          <note key="60" pos="840" pan="0" len="24" vol="17" />
          <note key="62" pos="1032" pan="0" len="24" vol="17" />
          <note key="67" pos="1224" pan="0" len="24" vol="17" />
          <note key="67" pos="1416" pan="0" len="24" vol="17" />
        </pattern>
        <pattern pos="233664" muted="0" steps="16" name="" type="1">
          <note key="67" pos="72" pan="0" len="24" vol="17" />
          <note key="65" pos="264" pan="0" len="24" vol="17" />
          <note key="63" pos="456" pan="0" len="24" vol="17" />
          <note key="60" pos="648" pan="0" len="24" vol="17" />
          <note key="67" pos="840" pan="0" len="24" vol="17" />
          <note key="65" pos="1032" pan="0" len="24" vol="17" />
          <note key="63" pos="1224" pan="0" len="24" vol="17" />
          <note key="60" pos="1416" pan="0" len="24" vol="17" />
        </pattern>
      </track>
      <track solo="0" name="33 (Ch1)" type="0" muted="0">
        <instrumenttrack usemasterpitch="1" pitch="0.0" basenote="57" pan="0" pitchrange="12" vol="30">
          <eldata />
          <instrument name="tripleoscillator" />
        </instrumenttrack>
        <pattern pos="16128" muted="0" steps="16" name="" type="1">
          <note key="60" pos="60" pan="0" len="12" vol="8" />
          <note key="60" pos="120" pan="0" len="12" vol="17" />
          <note key="60" pos="168" pan="0" len="12" vol="8" />
          <note key="60" pos="252" pan="0" len="12" vol="8" />
          <note key="60" pos="312" pan="0" len="12" vol="17" />
          <note key="60" pos="360" pan="0" len="12" vol="8" />
          <note key="60" pos="444" pan="0" len="12" vol="8" />
          <note key="60" pos="504" pan="0" len="12" vol="17" />
          <note key="60" pos="552" pan="0" len="12" vol="8" />
          <note key="60" pos="636" pan="0" len="12" vol="8" />
          <note key="60" pos="696" pan="0" len="12" vol="17" />
          <note key="60" pos="744" pan="0" len="12" vol="8" />
          <note key="60" pos="828" pan="0" len="12" vol="8" />
          <note key="60" pos="888" pan="0" len="12" vol="17" />
          <note key="60" pos="936" pan="0" len="12" vol="8" />
          <note key="60" pos="1020" pan="0" len="12" vol="8" />
          <note key="60" pos="1080" pan="0" len="12" vol="17" />
          <note key="60" pos="1128" pan="0" len="12" vol="8" />
          <note key="60" pos="1212" pan="0" len="12" vol="8" />
          <note key="60" pos="1272" pan="0" len="12" vol="17" />
          <note key="60" pos="1320" pan="0" len="12" vol="8" />
          <note key="60" pos="1404" pan="0" len="12" vol="8" />
          <note key="60" pos="1464" pan="0" len="12" vol="17" />
        </pattern>
        <pattern pos="6912" muted="0" steps="16" name="" type="1">
          <note key="60" pos="60" pan="0" len="12" vol="8" />
          <note key="60" pos="120" pan="0" len="12" vol="17" />
          <note key="60" pos="168" pan="0" len="12" vol="8" />
          <note key="60" pos="252" pan="0" len="12" vol="8" />
          <note key="60" pos="312" pan="0" len="12" vol="17" />
          <note key="60" pos="360" pan="0" len="12" vol="8" />
          <note key="60" pos="444" pan="0" len="12" vol="8" />
          <note key="60" pos="504" pan="0" len="12" vol="17" />
          <note key="60" pos="552" pan="0" len="12" vol="8" />
          <note key="60" pos="636" pan="0" len="12" vol="8" />
          <note key="60" pos="696" pan="0" len="12" vol="17" />
          <note key="60" pos="744" pan="0" len="12" vol="8" />
        </pattern>
        <pattern pos="7680" muted="0" steps="16" name="" type="1">
          <note key="60" pos="60" pan="0" len="12" vol="8" />
          <note key="60" pos="120" pan="0" len="12" vol="17" />
          <note key="60" pos="168" pan="0" len="12" vol="8" />
          <note key="60" pos="252" pan="0" len="12" vol="8" />
          <note key="60" pos="312" pan="0" len="12" vol="17" />
          <note key="60" pos="360" pan="0" len="12" vol="8" />
          <note key="60" pos="444" pan="0" len="12" vol="8" />
          <note key="60" pos="504" pan="0" len="12" vol="17" />
          <note key="60" pos="552" pan="0" len="12" vol="8" />
          <note key="60" pos="636" pan="0" len="12" vol="8" />
          <note key="60" pos="696" pan="0" len="12" vol="17" />
          <note key="60" pos="744" pan="0" len="12" vol="8" />
        </pattern>
        <pattern pos="8448" muted="0" steps="16" name="" type="1">
          <note key="60" pos="60" pan="0" len="12" vol="8" />
          <note key="60" pos="120" pan="0" len="12" vol="17" />
          <note key="60" pos="168" pan="0" len="12" vol="8" />
          <note key="60" pos="252" pan="0" len="12" vol="8" />
          <note key="60" pos="312" pan="0" len="12" vol="17" />
          <note key="60" pos="360" pan="0" len="12" vol="8" />
          <note key="60" pos="444" pan="0" len="12" vol="8" />
          <note key="60" pos="504" pan="0" len="12" vol="17" />
          <note key="60" pos="552" pan="0" len="12" vol="8" />
          <note key="60" pos="636" pan="0" len="12" vol="8" />
          <note key="60" pos="696" pan="0" len="12" vol="17" />
          <note key="60" pos="744" pan="0" len="12" vol="8" />
        </pattern>
        <pattern pos="9216" muted="0" steps="16" name="" type="1">
          <note key="60" pos="60" pan="0" len="12" vol="8" />
          <note key="60" pos="120" pan="0" len="12" vol="17" />
          <note key="60" pos="168" pan="0" len="12" vol="8" />
          <note key="60" pos="252" pan="0" len="12" vol="8" />
          <note key="60" pos="312" pan="0" len="12" vol="17" />
          <note key="60" pos="360" pan="0" len="12" vol="8" />
          <note key="60" pos="444" pan="0" len="12" vol="8" />
          <note key="60" pos="504" pan="0" len="12" vol="17" />
          <note key="60" pos="552" pan="0" len="12" vol="8" />
          <note key="60" pos="636" pan="0" len="12" vol="8" />
          <note key="60" pos="696" pan="0" len="12" vol="17" />
          <note key="60" pos="744" pan="0" len="12" vol="8" />
        </pattern>
        <pattern pos="9984" muted="0" steps="16" name="" type="1">
          <note key="60" pos="60" pan="0" len="12" vol="8" />
          <note key="60" pos="120" pan="0" len="12" vol="17" />
          <note key="60" pos="168" pan="0" len="12" vol="8" />
          <note key="60" pos="252" pan="0" len="12" vol="8" />
          <note key="60" pos="312" pan="0" len="12" vol="17" />
          <note key="60" pos="360" pan="0" len="12" vol="8" />
          <note key="60" pos="444" pan="0" len="12" vol="8" />
          <note key="60" pos="504" pan="0" len="12" vol="17" />
          <note key="60" pos="552" pan="0" len="12" vol="8" />
          <note key="60" pos="636" pan="0" len="12" vol="8" />
          <note key="60" pos="696" pan="0" len="12" vol="17" />
          <note key="60" pos="744" pan="0" len="12" vol="8" />
        </pattern>
        <pattern pos="10752" muted="0" steps="16" name="" type="1">
          <note key="60" pos="60" pan="0" len="12" vol="8" />
          <note key="60" pos="120" pan="0" len="12" vol="17" />
          <note key="60" pos="168" pan="0" len="12" vol="8" />
          <note key="60" pos="252" pan="0" len="12" vol="8" />
          <note key="60" pos="312" pan="0" len="12" vol="17" />
          <note key="60" pos="360" pan="0" len="12" vol="8" />
          <note key="60" pos="444" pan="0" len="12" vol="8" />
          <note key="60" pos="504" pan="0" len="12" vol="17" />
          <note key="60" pos="552" pan="0" len="12" vol="8" />
          <note key="60" pos="636" pan="0" len="12" vol="8" />
          <note key="60" pos="696" pan="0" len="12" vol="17" />
        </pattern>
        <pattern pos="11520" muted="0" steps="16" name="" type="1">
          <note key="60" pos="60" pan="0" len="12" vol="8" />
          <note key="60" pos="120" pan="0" len="12" vol="17" />
          <note key="60" pos="168" pan="0" len="12" vol="8" />
          <note key="60" pos="252" pan="0" len="12" vol="8" />
          <note key="60" pos="312" pan="0" len="12" vol="17" />
          <note key="60" pos="360" pan="0" len="12" vol="8" />
          <note key="60" pos="444" pan="0" len="12" vol="8" />
          <note key="60" pos="504" pan="0" len="12" vol="17" />
          <note key="60" pos="552" pan="0" len="12" vol="8" />
          <note key="60" pos="636" pan="0" len="12" vol="8" />
          <note key="60" pos="696" pan="0" len="12" vol="17" />
          <note key="60" pos="744" pan="0" len="12" vol="8" />
          <note key="60" pos="828" pan="0" len="12" vol="8" />
          <note key="60" pos="888" pan="0" len="12" vol="17" />
          <note key="60" pos="936" pan="0" len="12" vol="8" />
          <note key="60" pos="1020" pan="0" len="12" vol="8" />
          <note key="60" pos="1080" pan="0" len="12" vol="17" />
          <note key="60" pos="1128" pan="0" len="12" vol="8" />
          <note key="60" pos="1212" pan="0" len="12" vol="8" />
          <note key="60" pos="1272" pan="0" len="12" vol="17" />
          <note key="60" pos="1320" pan="0" len="12" vol="8" />
          <note key="60" pos="1404" pan="0" len="12" vol="8" />
          <note key="60" pos="1464" pan="0" len="12" vol="17" />
          <note key="60" pos="1512" pan="0" len="12" vol="8" />
        </pattern>
        <pattern pos="13056" muted="0" steps="16" name="" type="1">
          <note key="60" pos="60" pan="0" len="12" vol="8" />
          <note key="60" pos="120" pan="0" len="12" vol="17" />
          <note key="60" pos="168" pan="0" len="12" vol="8" />
          <note key="60" pos="252" pan="0" len="12" vol="8" />
          <note key="60" pos="312" pan="0" len="12" vol="17" />
          <note key="60" pos="360" pan="0" len="12" vol="8" />
          <note key="60" pos="444" pan="0" len="12" vol="8" />
          <note key="60" pos="504" pan="0" len="12" vol="17" />
          <note key="60" pos="552" pan="0" len="12" vol="8" />
          <note key="60" pos="636" pan="0" len="12" vol="8" />
          <note key="60" pos="696" pan="0" len="12" vol="17" />
          <note key="60" pos="744" pan="0" len="12" vol="8" />
          <note key="60" pos="828" pan="0" len="12" vol="8" />
          <note key="60" pos="888" pan="0" len="12" vol="17" />
          <note key="60" pos="936" pan="0" len="12" vol="8" />
          <note key="60" pos="1020" pan="0" len="12" vol="8" />
          <note key="60" pos="1080" pan="0" len="12" vol="17" />
          <note key="60" pos="1128" pan="0" len="12" vol="8" />
          <note key="60" pos="1212" pan="0" len="12" vol="8" />
          <note key="60" pos="1272" pan="0" len="12" vol="17" />
          <note key="60" pos="1320" pan="0" len="12" vol="8" />
          <note key="60" pos="1404" pan="0" len="12" vol="8" />
          <note key="60" pos="1464" pan="0" len="12" vol="17" />
        </pattern>
        <pattern pos="14592" muted="0" steps="16" name="" type="1">
          <note key="60" pos="60" pan="0" len="12" vol="8" />
          <note key="60" pos="120" pan="0" len="12" vol="17" />
          <note key="60" pos="168" pan="0" len="12" vol="8" />
          <note key="60" pos="252" pan="0" len="12" vol="8" />
          <note key="60" pos="312" pan="0" len="12" vol="17" />
          <note key="60" pos="360" pan="0" len="12" vol="8" />
          <note key="60" pos="444" pan="0" len="12" vol="8" />
          <note key="60" pos="504" pan="0" len="12" vol="17" />
          <note key="60" pos="552" pan="0" len="12" vol="8" />
          <note key="60" pos="636" pan="0" len="12" vol="8" />
          <note key="60" pos="696" pan="0" len="12" vol="17" />
          <note key="60" pos="744" pan="0" len="12" vol="8" />
          <note key="60" pos="828" pan="0" len="12" vol="8" />
          <note key="60" pos="888" pan="0" len="12" vol="17" />
          <note key="60" pos="936" pan="0" len="12" vol="8" />
          <note key="60" pos="1020" pan="0" len="12" vol="8" />
          <note key="60" pos="1080" pan="0" len="12" vol="17" />
          <note key="60" pos="1128" pan="0" len="12" vol="8" />
          <note key="60" pos="1212" pan="0" len="12" vol="8" />
          <note key="60" pos="1272" pan="0" len="12" vol="17" />
          <note key="60" pos="1320" pan="0" len="12" vol="8" />
          <note key="60" pos="1404" pan="0" len="12" vol="8" />
          <note key="60" pos="1464" pan="0" len="12" vol="17" />
          <note key="60" pos="1512" pan="0" len="12" vol="8" />
        </pattern>
      </track>
      <track solo="0" name="33 (Ch2)" type="0" muted="0">
        <instrumenttrack usemasterpitch="1" pitch="0.0" basenote="57" pan="0" pitchrange="12" vol="30">
          <eldata />
          <instrument name="tripleoscillator" />
        </instrumenttrack>
        <pattern pos="267648" muted="0" steps="16" name="" type="1">
          <note key="63" pos="60" pan="0" len="12" vol="100" />
          <note key="63" pos="120" pan="0" len="24" vol="100" />
          <note key="63" pos="252" pan="0" len="12" vol="100" />
          <note key="63" pos="312" pan="0" len="24" vol="100" />
          <note key="65" pos="444" pan="0" len="12" vol="100" />
          <note key="65" pos="504" pan="0" len="24" vol="100" />
          <note key="65" pos="636" pan="0" len="12" vol="100" />
          <note key="65" pos="696" pan="0" len="24" vol="100" />
          <note key="63" pos="828" pan="0" len="12" vol="100" />
          <note key="63" pos="888" pan="0" len="24" vol="100" />
          <note key="63" pos="1020" pan="0" len="12" vol="100" />
          <note key="63" pos="1080" pan="0" len="24" vol="100" />
          <note key="65" pos="1212" pan="0" len="12" vol="100" />
          <note key="65" pos="1272" pan="0" len="24" vol="100" />
          <note key="65" pos="1404" pan="0" len="12" vol="100" />
          <note key="65" pos="1464" pan="0" len="24" vol="100" />
        </pattern>
        <pattern pos="76800" muted="0" steps="16" name="" type="1">
          <note key="60" pos="24" pan="0" len="12" vol="100" />
          <note key="60" pos="180" pan="0" len="12" vol="100" />
          <note key="60" pos="216" pan="0" len="12" vol="100" />
          <note key="60" pos="372" pan="0" len="12" vol="100" />
          <note key="60" pos="408" pan="0" len="12" vol="100" />
          <note key="60" pos="564" pan="0" len="12" vol="100" />
          <note key="60" pos="600" pan="0" len="12" vol="100" />
          <note key="60" pos="756" pan="0" len="12" vol="100" />
        </pattern>
        <pattern pos="77568" muted="0" steps="16" name="" type="1">
          <note key="60" pos="24" pan="0" len="12" vol="100" />
          <note key="60" pos="180" pan="0" len="12" vol="100" />
          <note key="60" pos="216" pan="0" len="12" vol="100" />
          <note key="60" pos="372" pan="0" len="12" vol="100" />
          <note key="60" pos="408" pan="0" len="12" vol="100" />
          <note key="60" pos="564" pan="0" len="12" vol="100" />
          <note key="60" pos="600" pan="0" len="12" vol="100" />
          <note key="60" pos="756" pan="0" len="12" vol="100" />
        </pattern>
        <pattern pos="78336" muted="0" steps="16" name="" type="1">
          <note key="60" pos="24" pan="0" len="12" vol="100" />
          <note key="60" pos="180" pan="0" len="12" vol="100" />
          <note key="60" pos="216" pan="0" len="12" vol="100" />
          <note key="60" pos="372" pan="0" len="12" vol="100" />
          <note key="60" pos="408" pan="0" len="12" vol="100" />
          <note key="60" pos="564" pan="0" len="12" vol="100" />
          <note key="60" pos="600" pan="0" len="12" vol="100" />
          <note key="60" pos="756" pan="0" len="12" vol="100" />
        </pattern>
        <pattern pos="79104" muted="0" steps="16" name="" type="1">
          <note key="60" pos="24" pan="0" len="12" vol="100" />
          <note key="60" pos="180" pan="0" len="12" vol="100" />
          <note key="60" pos="216" pan="0" len="12" vol="100" />
          <note key="60" pos="372" pan="0" len="12" vol="100" />
          <note key="60" pos="408" pan="0" len="12" vol="100" />
          <note key="60" pos="564" pan="0" len="12" vol="100" />
          <note key="60" pos="600" pan="0" len="12" vol="100" />
          <note key="60" pos="756" pan="0" len="12" vol="100" />
        </pattern>
        <pattern pos="79872" muted="0" steps="16" name="" type="1">
          <note key="60" pos="24" pan="0" len="12" vol="100" />
          <note key="60" pos="180" pan="0" len="12" vol="100" />
          <note key="60" pos="216" pan="0" len="12" vol="100" />
          <note key="60" pos="372" pan="0" len="12" vol="100" />
          <note key="60" pos="408" pan="0" len="12" vol="100" />
          <note key="60" pos="564" pan="0" len="12" vol="100" />
          <note key="60" pos="600" pan="0" len="12" vol="100" />
          <note key="60" pos="756" pan="0" len="12" vol="100" />
        </pattern>
        <pattern pos="80640" muted="0" steps="16" name="" type="1">
          <note key="60" pos="24" pan="0" len="12" vol="100" />
          <note key="60" pos="180" pan="0" len="12" vol="100" />
          <note key="60" pos="216" pan="0" len="12" vol="100" />
          <note key="60" pos="372" pan="0" len="12" vol="100" />
          <note key="60" pos="408" pan="0" len="12" vol="100" />
          <note key="60" pos="564" pan="0" len="12" vol="100" />
          <note key="60" pos="600" pan="0" len="12" vol="100" />
          <note key="60" pos="756" pan="0" len="12" vol="100" />
        </pattern>
        <pattern pos="81408" muted="0" steps="16" name="" type="1">
          <note key="60" pos="24" pan="0" len="12" vol="100" />
          <note key="60" pos="180" pan="0" len="12" vol="100" />
          <note key="60" pos="216" pan="0" len="12" vol="100" />
          <note key="60" pos="372" pan="0" len="12" vol="100" />
          <note key="60" pos="408" pan="0" len="12" vol="100" />
          <note key="60" pos="564" pan="0" len="12" vol="100" />
          <note key="60" pos="600" pan="0" len="12" vol="100" />
          <note key="60" pos="756" pan="0" len="12" vol="100" />
        </pattern>
        <pattern pos="82176" muted="0" steps="16" name="" type="1">
          <note key="60" pos="24" pan="0" len="12" vol="100" />
          <note key="60" pos="180" pan="0" len="12" vol="100" />
          <note key="60" pos="216" pan="0" len="12" vol="100" />
          <note key="60" pos="372" pan="0" len="12" vol="100" />
          <note key="60" pos="408" pan="0" len="12" vol="100" />
          <note key="60" pos="564" pan="0" len="12" vol="100" />
          <note key="60" pos="600" pan="0" len="12" vol="100" />
          <note key="60" pos="756" pan="0" len="12" vol="100" />
        </pattern>
        <pattern pos="82944" muted="0" steps="16" name="" type="1">
          <note key="60" pos="24" pan="0" len="12" vol="100" />
          <note key="60" pos="180" pan="0" len="12" vol="100" />
          <note key="60" pos="216" pan="0" len="12" vol="100" />
          <note key="60" pos="372" pan="0" len="12" vol="100" />
          <note key="60" pos="408" pan="0" len="12" vol="100" />
          <note key="60" pos="564" pan="0" len="12" vol="100" />
          <note key="60" pos="600" pan="0" len="12" vol="100" />
          <note key="60" pos="756" pan="0" len="12" vol="100" />
        </pattern>
        <pattern pos="83712" muted="0" steps="16" name="" type="1">
          <note key="60" pos="24" pan="0" len="12" vol="100" />
          <note key="60" pos="180" pan="0" len="12" vol="100" />
          <note key="60" pos="216" pan="0" len="12" vol="100" />
          <note key="60" pos="372" pan="0" len="12" vol="100" />
          <note key="60" pos="408" pan="0" len="12" vol="100" />
          <note key="60" pos="564" pan="0" len="12" vol="100" />
          <note key="60" pos="600" pan="0" len="12" vol="100" />
          <note key="60" pos="756" pan="0" len="12" vol="100" />
        </pattern>
        <pattern pos="86016" muted="0" steps="16" name="" type="1">
          <note key="60" pos="24" pan="0" len="12" vol="100" />
          <note key="60" pos="180" pan="0" len="12" vol="100" />
          <note key="60" pos="216" pan="0" len="12" vol="100" />
          <note key="60" pos="372" pan="0" len="12" vol="100" />
          <note key="60" pos="408" pan="0" len="12" vol="100" />
          <note key="60" pos="564" pan="0" len="12" vol="100" />
          <note key="60" pos="600" pan="0" len="12" vol="100" />
          <note key="60" pos="756" pan="0" len="12" vol="100" />
        </pattern>
        <pattern pos="86784" muted="0" steps="16" name="" type="1">
          <note key="60" pos="24" pan="0" len="12" vol="100" />
          <note key="60" pos="180" pan="0" len="12" vol="100" />
          <note key="60" pos="216" pan="0" len="12" vol="100" />
          <note key="60" pos="372" pan="0" len="12" vol="100" />
          <note key="60" pos="408" pan="0" len="12" vol="100" />
          <note key="60" pos="564" pan="0" len="12" vol="100" />
          <note key="60" pos="600" pan="0" len="12" vol="100" />
          <note key="60" pos="756" pan="0" len="12" vol="100" />
        </pattern>
        <pattern pos="87552" muted="0" steps="16" name="" type="1">
          <note key="60" pos="24" pan="0" len="12" vol="100" />
          <note key="60" pos="180" pan="0" len="12" vol="100" />
          <note key="60" pos="216" pan="0" len="12" vol="100" />
          <note key="60" pos="372" pan="0" len="12" vol="100" />
          <note key="60" pos="408" pan="0" len="12" vol="100" />
          <note key="60" pos="564" pan="0" len="12" vol="100" />
          <note key="60" pos="600" pan="0" len="12" vol="100" />
          <note key="60" pos="756" pan="0" len="12" vol="100" />
        </pattern>
        <pattern pos="88320" muted="0" steps="16" name="" type="1">
          <note key="60" pos="24" pan="0" len="12" vol="100" />
          <note key="60" pos="180" pan="0" len="12" vol="100" />
          <note key="60" pos="216" pan="0" len="12" vol="100" />
          <note key="60" pos="372" pan="0" len="12" vol="100" />
          <note key="60" pos="408" pan="0" len="12" vol="100" />
          <note key="60" pos="564" pan="0" len="12" vol="100" />
          <note key="60" pos="600" pan="0" len="12" vol="100" />
          <note key="60" pos="756" pan="0" len="12" vol="100" />
        </pattern>
        <pattern pos="89088" muted="0" steps="16" name="" type="1">
          <note key="60" pos="24" pan="0" len="12" vol="100" />
          <note key="60" pos="180" pan="0" len="12" vol="100" />
          <note key="60" pos="216" pan="0" len="12" vol="100" />
          <note key="60" pos="372" pan="0" len="12" vol="100" />
          <note key="60" pos="408" pan="0" len="12" vol="100" />
          <note key="60" pos="564" pan="0" len="12" vol="100" />
          <note key="60" pos="600" pan="0" len="12" vol="100" />
          <note key="60" pos="756" pan="0" len="12" vol="100" />
        </pattern>
        <pattern pos="89856" muted="0" steps="16" name="" type="1">
          <note key="60" pos="24" pan="0" len="12" vol="100" />
          <note key="60" pos="180" pan="0" len="12" vol="100" />
          <note key="60" pos="216" pan="0" len="12" vol="100" />
          <note key="60" pos="372" pan="0" len="12" vol="100" />
          <note key="60" pos="408" pan="0" len="12" vol="100" />
          <note key="60" pos="564" pan="0" len="12" vol="100" />
          <note key="60" pos="600" pan="0" len="12" vol="100" />
          <note key="60" pos="756" pan="0" len="12" vol="100" />
        </pattern>
        <pattern pos="90624" muted="0" steps="16" name="" type="1">
          <note key="60" pos="24" pan="0" len="12" vol="100" />
          <note key="60" pos="180" pan="0" len="12" vol="100" />
          <note key="60" pos="216" pan="0" len="12" vol="100" />
          <note key="60" pos="372" pan="0" len="12" vol="100" />
          <note key="60" pos="408" pan="0" len="12" vol="100" />
          <note key="60" pos="564" pan="0" len="12" vol="100" />
          <note key="60" pos="600" pan="0" len="12" vol="100" />
          <note key="60" pos="756" pan="0" len="12" vol="100" />
        </pattern>
        <pattern pos="91392" muted="0" steps="16" name="" type="1">
          <note key="60" pos="24" pan="0" len="12" vol="97" />
          <note key="60" pos="180" pan="0" len="12" vol="77" />
          <note key="60" pos="216" pan="0" len="12" vol="72" />
          <note key="60" pos="372" pan="0" len="12" vol="52" />
          <note key="60" pos="408" pan="0" len="12" vol="47" />
          <note key="60" pos="564" pan="0" len="12" vol="27" />
          <note key="60" pos="600" pan="0" len="12" vol="22" />
          <note key="60" pos="756" pan="0" len="12" vol="2" />
        </pattern>
        <pattern pos="259968" muted="0" steps="16" name="" type="1">
          <note key="65" pos="60" pan="0" len="12" vol="100" />
          <note key="65" pos="120" pan="0" len="24" vol="100" />
          <note key="65" pos="252" pan="0" len="12" vol="100" />
          <note key="65" pos="312" pan="0" len="24" vol="100" />
          <note key="65" pos="444" pan="0" len="12" vol="100" />
          <note key="65" pos="504" pan="0" len="24" vol="100" />
          <note key="65" pos="636" pan="0" len="12" vol="100" />
          <note key="65" pos="696" pan="0" len="24" vol="100" />
        </pattern>
        <pattern pos="260736" muted="0" steps="16" name="" type="1">
          <note key="65" pos="60" pan="0" len="12" vol="100" />
          <note key="65" pos="120" pan="0" len="24" vol="100" />
          <note key="65" pos="252" pan="0" len="12" vol="100" />
          <note key="65" pos="312" pan="0" len="24" vol="100" />
          <note key="65" pos="444" pan="0" len="12" vol="100" />
          <note key="65" pos="504" pan="0" len="24" vol="100" />
          <note key="65" pos="636" pan="0" len="12" vol="100" />
          <note key="65" pos="696" pan="0" len="24" vol="100" />
        </pattern>
        <pattern pos="261504" muted="0" steps="16" name="" type="1">
          <note key="56" pos="60" pan="0" len="12" vol="100" />
          <note key="56" pos="120" pan="0" len="24" vol="100" />
          <note key="56" pos="252" pan="0" len="12" vol="100" />
          <note key="56" pos="312" pan="0" len="24" vol="100" />
          <note key="56" pos="444" pan="0" len="12" vol="100" />
          <note key="56" pos="504" pan="0" len="24" vol="100" />
          <note key="56" pos="636" pan="0" len="12" vol="100" />
          <note key="56" pos="696" pan="0" len="24" vol="100" />
        </pattern>
        <pattern pos="262272" muted="0" steps="16" name="" type="1">
          <note key="56" pos="60" pan="0" len="12" vol="100" />
          <note key="56" pos="120" pan="0" len="24" vol="100" />
          <note key="56" pos="252" pan="0" len="12" vol="100" />
          <note key="56" pos="312" pan="0" len="24" vol="100" />
          <note key="56" pos="444" pan="0" len="12" vol="100" />
          <note key="56" pos="504" pan="0" len="24" vol="100" />
          <note key="56" pos="636" pan="0" len="12" vol="100" />
          <note key="56" pos="696" pan="0" len="24" vol="100" />
        </pattern>
        <pattern pos="263040" muted="0" steps="16" name="" type="1">
          <note key="55" pos="60" pan="0" len="12" vol="100" />
          <note key="55" pos="120" pan="0" len="24" vol="100" />
          <note key="55" pos="252" pan="0" len="12" vol="100" />
          <note key="55" pos="312" pan="0" len="24" vol="100" />
          <note key="55" pos="444" pan="0" len="12" vol="100" />
          <note key="55" pos="504" pan="0" len="24" vol="100" />
          <note key="55" pos="636" pan="0" len="12" vol="100" />
          <note key="55" pos="696" pan="0" len="24" vol="100" />
        </pattern>
        <pattern pos="263808" muted="0" steps="16" name="" type="1">
          <note key="55" pos="60" pan="0" len="12" vol="100" />
          <note key="55" pos="120" pan="0" len="24" vol="100" />
          <note key="55" pos="252" pan="0" len="12" vol="100" />
          <note key="55" pos="312" pan="0" len="24" vol="100" />
          <note key="55" pos="444" pan="0" len="12" vol="100" />
          <note key="55" pos="504" pan="0" len="24" vol="100" />
          <note key="55" pos="636" pan="0" len="12" vol="100" />
          <note key="55" pos="696" pan="0" len="24" vol="100" />
        </pattern>
        <pattern pos="264576" muted="0" steps="16" name="" type="1">
          <note key="65" pos="60" pan="0" len="12" vol="100" />
          <note key="65" pos="120" pan="0" len="24" vol="100" />
          <note key="65" pos="252" pan="0" len="12" vol="100" />
          <note key="65" pos="312" pan="0" len="24" vol="100" />
          <note key="65" pos="444" pan="0" len="12" vol="100" />
          <note key="65" pos="504" pan="0" len="24" vol="100" />
          <note key="65" pos="636" pan="0" len="12" vol="100" />
          <note key="65" pos="696" pan="0" len="24" vol="100" />
        </pattern>
        <pattern pos="265344" muted="0" steps="16" name="" type="1">
          <note key="65" pos="60" pan="0" len="12" vol="100" />
          <note key="65" pos="120" pan="0" len="24" vol="100" />
          <note key="65" pos="252" pan="0" len="12" vol="100" />
          <note key="65" pos="312" pan="0" len="24" vol="100" />
          <note key="65" pos="444" pan="0" len="12" vol="100" />
          <note key="65" pos="504" pan="0" len="24" vol="100" />
          <note key="65" pos="636" pan="0" len="12" vol="100" />
          <note key="65" pos="696" pan="0" len="24" vol="100" />
        </pattern>
        <pattern pos="266112" muted="0" steps="16" name="" type="1">
          <note key="65" pos="60" pan="0" len="12" vol="100" />
          <note key="65" pos="120" pan="0" len="24" vol="100" />
          <note key="65" pos="252" pan="0" len="12" vol="100" />
          <note key="65" pos="312" pan="0" len="24" vol="100" />
          <note key="60" pos="444" pan="0" len="12" vol="100" />
          <note key="60" pos="504" pan="0" len="24" vol="100" />
          <note key="60" pos="636" pan="0" len="12" vol="100" />
          <note key="60" pos="696" pan="0" len="24" vol="100" />
          <note key="65" pos="828" pan="0" len="12" vol="100" />
          <note key="65" pos="888" pan="0" len="24" vol="100" />
          <note key="65" pos="1020" pan="0" len="12" vol="100" />
          <note key="65" pos="1080" pan="0" len="24" vol="100" />
          <note key="60" pos="1212" pan="0" len="12" vol="100" />
          <note key="60" pos="1272" pan="0" len="24" vol="100" />
          <note key="60" pos="1404" pan="0" len="12" vol="100" />
          <note key="60" pos="1464" pan="0" len="24" vol="100" />
        </pattern>
      </track>
      <track solo="0" name="33 (Ch3)" type="0" muted="0">
        <instrumenttrack usemasterpitch="1" pitch="0.0" basenote="57" pan="0" pitchrange="12" vol="30">
          <eldata />
          <instrument name="tripleoscillator" />
        </instrumenttrack>
        <pattern pos="118272" muted="0" steps="16" name="" type="1">
          <note key="60" pos="24" pan="0" len="24" vol="34" />
          <note key="60" pos="408" pan="0" len="24" vol="34" />
          <note key="60" pos="792" pan="0" len="24" vol="34" />
          <note key="60" pos="1176" pan="0" len="24" vol="34" />
        </pattern>
        <pattern pos="93696" muted="0" steps="16" name="" type="1">
          <note key="60" pos="1056" pan="0" len="24" vol="100" />
        </pattern>
        <pattern pos="116736" muted="0" steps="16" name="" type="1">
          <note key="60" pos="24" pan="0" len="24" vol="34" />
          <note key="60" pos="408" pan="0" len="24" vol="34" />
          <note key="60" pos="792" pan="0" len="24" vol="34" />
          <note key="60" pos="1176" pan="0" len="24" vol="34" />
        </pattern>
      </track>
      <track solo="0" name="33 (Ch6)" type="0" muted="0">
        <instrumenttrack usemasterpitch="1" pitch="0.0" basenote="57" pan="0" pitchrange="12" vol="30">
          <eldata />
          <instrument name="tripleoscillator" />
        </instrumenttrack>
        <pattern pos="215040" muted="0" steps="16" name="" type="1">
          <note key="66" pos="24" pan="0" len="24" vol="34" />
          <note key="66" pos="120" pan="0" len="24" vol="34" />
          <note key="66" pos="408" pan="0" len="24" vol="34" />
          <note key="66" pos="792" pan="0" len="24" vol="34" />
          <note key="66" pos="888" pan="0" len="24" vol="34" />
          <note key="66" pos="1176" pan="0" len="24" vol="34" />
        </pattern>
        <pattern pos="59904" muted="0" steps="16" name="" type="1">
          <note key="60" pos="48" pan="0" len="24" vol="100" />
          <note key="60" pos="312" pan="0" len="24" vol="100" />
          <note key="60" pos="432" pan="0" len="24" vol="100" />
          <note key="60" pos="696" pan="0" len="24" vol="100" />
          <note key="60" pos="816" pan="0" len="24" vol="100" />
          <note key="60" pos="1080" pan="0" len="24" vol="100" />
          <note key="60" pos="1200" pan="0" len="24" vol="100" />
          <note key="60" pos="1464" pan="0" len="24" vol="100" />
        </pattern>
        <pattern pos="61440" muted="0" steps="16" name="" type="1">
          <note key="60" pos="48" pan="0" len="24" vol="100" />
          <note key="60" pos="312" pan="0" len="24" vol="100" />
          <note key="60" pos="432" pan="0" len="24" vol="100" />
          <note key="60" pos="696" pan="0" len="24" vol="100" />
          <note key="60" pos="816" pan="0" len="24" vol="100" />
          <note key="60" pos="1080" pan="0" len="24" vol="100" />
          <note key="60" pos="1200" pan="0" len="24" vol="100" />
          <note key="60" pos="1464" pan="0" len="24" vol="100" />
        </pattern>
        <pattern pos="62976" muted="0" steps="16" name="" type="1">
          <note key="60" pos="48" pan="0" len="24" vol="100" />
          <note key="60" pos="312" pan="0" len="24" vol="100" />
          <note key="60" pos="432" pan="0" len="24" vol="100" />
          <note key="60" pos="696" pan="0" len="24" vol="100" />
          <note key="60" pos="816" pan="0" len="24" vol="100" />
          <note key="60" pos="1080" pan="0" len="24" vol="100" />
          <note key="60" pos="1200" pan="0" len="24" vol="100" />
          <note key="60" pos="1464" pan="0" len="24" vol="100" />
        </pattern>
        <pattern pos="64512" muted="0" steps="16" name="" type="1">
          <note key="60" pos="48" pan="0" len="24" vol="100" />
          <note key="60" pos="312" pan="0" len="24" vol="100" />
          <note key="60" pos="432" pan="0" len="24" vol="100" />
          <note key="60" pos="696" pan="0" len="24" vol="100" />
          <note key="60" pos="816" pan="0" len="24" vol="100" />
          <note key="60" pos="1080" pan="0" len="24" vol="100" />
          <note key="60" pos="1200" pan="0" len="24" vol="100" />
          <note key="60" pos="1464" pan="0" len="24" vol="100" />
        </pattern>
        <pattern pos="66048" muted="0" steps="16" name="" type="1">
          <note key="60" pos="48" pan="0" len="24" vol="100" />
          <note key="60" pos="312" pan="0" len="24" vol="100" />
          <note key="60" pos="432" pan="0" len="24" vol="100" />
          <note key="60" pos="696" pan="0" len="24" vol="100" />
          <note key="60" pos="816" pan="0" len="24" vol="100" />
          <note key="60" pos="1080" pan="0" len="24" vol="100" />
          <note key="60" pos="1200" pan="0" len="24" vol="100" />
          <note key="60" pos="1464" pan="0" len="24" vol="100" />
        </pattern>
        <pattern pos="67584" muted="0" steps="16" name="" type="1">
          <note key="60" pos="48" pan="0" len="24" vol="100" />
          <note key="60" pos="312" pan="0" len="24" vol="100" />
          <note key="60" pos="432" pan="0" len="24" vol="100" />
          <note key="60" pos="696" pan="0" len="24" vol="100" />
          <note key="60" pos="816" pan="0" len="24" vol="100" />
          <note key="60" pos="1080" pan="0" len="24" vol="100" />
          <note key="60" pos="1200" pan="0" len="24" vol="100" />
          <note key="60" pos="1464" pan="0" len="24" vol="100" />
        </pattern>
        <pattern pos="69120" muted="0" steps="16" name="" type="1">
          <note key="60" pos="48" pan="0" len="24" vol="100" />
          <note key="60" pos="312" pan="0" len="24" vol="100" />
          <note key="60" pos="432" pan="0" len="24" vol="100" />
          <note key="60" pos="696" pan="0" len="24" vol="100" />
          <note key="60" pos="816" pan="0" len="24" vol="100" />
          <note key="60" pos="1080" pan="0" len="24" vol="100" />
          <note key="60" pos="1200" pan="0" len="24" vol="100" />
          <note key="60" pos="1464" pan="0" len="24" vol="100" />
        </pattern>
        <pattern pos="70656" muted="0" steps="16" name="" type="1">
          <note key="60" pos="48" pan="0" len="24" vol="100" />
          <note key="60" pos="312" pan="0" len="24" vol="100" />
          <note key="60" pos="432" pan="0" len="24" vol="100" />
          <note key="60" pos="696" pan="0" len="24" vol="100" />
          <note key="60" pos="816" pan="0" len="24" vol="100" />
          <note key="60" pos="1080" pan="0" len="24" vol="100" />
          <note key="60" pos="1200" pan="0" len="24" vol="100" />
          <note key="60" pos="1464" pan="0" len="24" vol="100" />
        </pattern>
        <pattern pos="72192" muted="0" steps="16" name="" type="1">
          <note key="60" pos="48" pan="0" len="24" vol="100" />
          <note key="60" pos="312" pan="0" len="24" vol="100" />
          <note key="60" pos="432" pan="0" len="24" vol="100" />
          <note key="60" pos="696" pan="0" len="24" vol="100" />
          <note key="60" pos="816" pan="0" len="24" vol="100" />
          <note key="60" pos="1080" pan="0" len="24" vol="100" />
          <note key="60" pos="1200" pan="0" len="24" vol="100" />
          <note key="60" pos="1464" pan="0" len="24" vol="100" />
        </pattern>
        <pattern pos="73728" muted="0" steps="16" name="" type="1">
          <note key="60" pos="48" pan="0" len="24" vol="100" />
          <note key="60" pos="312" pan="0" len="24" vol="100" />
          <note key="60" pos="432" pan="0" len="24" vol="100" />
          <note key="60" pos="696" pan="0" len="24" vol="100" />
          <note key="60" pos="816" pan="0" len="24" vol="100" />
          <note key="60" pos="1080" pan="0" len="24" vol="100" />
          <note key="60" pos="1200" pan="0" len="24" vol="100" />
          <note key="60" pos="1464" pan="0" len="24" vol="100" />
        </pattern>
        <pattern pos="75264" muted="0" steps="16" name="" type="1">
          <note key="60" pos="48" pan="0" len="24" vol="100" />
          <note key="60" pos="312" pan="0" len="24" vol="100" />
          <note key="60" pos="432" pan="0" len="24" vol="100" />
          <note key="60" pos="696" pan="0" len="24" vol="100" />
          <note key="60" pos="816" pan="0" len="24" vol="100" />
          <note key="60" pos="1080" pan="0" len="24" vol="100" />
          <note key="60" pos="1200" pan="0" len="24" vol="100" />
          <note key="60" pos="1464" pan="0" len="24" vol="100" />
        </pattern>
        <pattern pos="198144" muted="0" steps="16" name="" type="1">
          <note key="64" pos="12" pan="0" len="12" vol="34" />
          <note key="64" pos="60" pan="0" len="12" vol="34" />
          <note key="64" pos="204" pan="0" len="12" vol="34" />
          <note key="64" pos="396" pan="0" len="12" vol="34" />
          <note key="64" pos="444" pan="0" len="12" vol="34" />
          <note key="64" pos="588" pan="0" len="12" vol="34" />
          <note key="64" pos="780" pan="0" len="12" vol="34" />
          <note key="64" pos="828" pan="0" len="12" vol="34" />
          <note key="64" pos="972" pan="0" len="12" vol="34" />
          <note key="64" pos="1164" pan="0" len="12" vol="34" />
          <note key="64" pos="1212" pan="0" len="12" vol="34" />
          <note key="64" pos="1356" pan="0" len="12" vol="34" />
        </pattern>
        <pattern pos="199680" muted="0" steps="16" name="" type="1">
          <note key="64" pos="12" pan="0" len="12" vol="34" />
          <note key="64" pos="60" pan="0" len="12" vol="34" />
          <note key="64" pos="204" pan="0" len="12" vol="34" />
          <note key="64" pos="396" pan="0" len="12" vol="34" />
          <note key="64" pos="444" pan="0" len="12" vol="34" />
          <note key="64" pos="588" pan="0" len="12" vol="34" />
          <note key="64" pos="780" pan="0" len="12" vol="34" />
          <note key="64" pos="828" pan="0" len="12" vol="34" />
          <note key="64" pos="972" pan="0" len="12" vol="34" />
          <note key="64" pos="1164" pan="0" len="12" vol="34" />
          <note key="64" pos="1212" pan="0" len="12" vol="34" />
          <note key="64" pos="1356" pan="0" len="12" vol="34" />
        </pattern>
        <pattern pos="201216" muted="0" steps="16" name="" type="1">
          <note key="64" pos="24" pan="0" len="24" vol="34" />
          <note key="64" pos="120" pan="0" len="24" vol="34" />
          <note key="64" pos="408" pan="0" len="24" vol="34" />
          <note key="64" pos="792" pan="0" len="24" vol="34" />
          <note key="64" pos="888" pan="0" len="24" vol="34" />
          <note key="64" pos="1176" pan="0" len="24" vol="34" />
        </pattern>
        <pattern pos="202752" muted="0" steps="16" name="" type="1">
          <note key="64" pos="24" pan="0" len="24" vol="34" />
          <note key="64" pos="120" pan="0" len="24" vol="34" />
          <note key="64" pos="408" pan="0" len="24" vol="34" />
          <note key="64" pos="792" pan="0" len="24" vol="34" />
          <note key="64" pos="888" pan="0" len="24" vol="34" />
          <note key="64" pos="1176" pan="0" len="24" vol="34" />
        </pattern>
        <pattern pos="204288" muted="0" steps="16" name="" type="1">
          <note key="57" pos="24" pan="0" len="24" vol="34" />
          <note key="57" pos="120" pan="0" len="24" vol="34" />
          <note key="60" pos="408" pan="0" len="24" vol="34" />
          <note key="64" pos="792" pan="0" len="24" vol="34" />
          <note key="64" pos="888" pan="0" len="24" vol="34" />
          <note key="64" pos="1176" pan="0" len="24" vol="34" />
        </pattern>
        <pattern pos="205824" muted="0" steps="16" name="" type="1">
          <note key="57" pos="24" pan="0" len="24" vol="34" />
          <note key="57" pos="120" pan="0" len="24" vol="34" />
          <note key="60" pos="408" pan="0" len="24" vol="34" />
          <note key="64" pos="792" pan="0" len="24" vol="34" />
          <note key="64" pos="888" pan="0" len="24" vol="34" />
          <note key="64" pos="1176" pan="0" len="24" vol="34" />
        </pattern>
        <pattern pos="207360" muted="0" steps="16" name="" type="1">
          <note key="64" pos="24" pan="0" len="24" vol="34" />
          <note key="64" pos="120" pan="0" len="24" vol="34" />
          <note key="64" pos="408" pan="0" len="24" vol="34" />
          <note key="64" pos="792" pan="0" len="24" vol="34" />
          <note key="64" pos="888" pan="0" len="24" vol="34" />
          <note key="64" pos="1176" pan="0" len="24" vol="34" />
        </pattern>
        <pattern pos="208896" muted="0" steps="16" name="" type="1">
          <note key="64" pos="24" pan="0" len="24" vol="34" />
          <note key="64" pos="120" pan="0" len="24" vol="34" />
          <note key="64" pos="408" pan="0" len="24" vol="34" />
          <note key="64" pos="792" pan="0" len="24" vol="34" />
          <note key="64" pos="888" pan="0" len="24" vol="34" />
          <note key="64" pos="1176" pan="0" len="24" vol="34" />
        </pattern>
        <pattern pos="210432" muted="0" steps="16" name="" type="1">
          <note key="57" pos="24" pan="0" len="24" vol="34" />
          <note key="57" pos="120" pan="0" len="24" vol="34" />
          <note key="60" pos="408" pan="0" len="24" vol="34" />
          <note key="64" pos="792" pan="0" len="24" vol="34" />
          <note key="64" pos="888" pan="0" len="24" vol="34" />
          <note key="64" pos="1176" pan="0" len="24" vol="34" />
        </pattern>
        <pattern pos="211968" muted="0" steps="16" name="" type="1">
          <note key="57" pos="24" pan="0" len="24" vol="34" />
          <note key="57" pos="120" pan="0" len="24" vol="34" />
          <note key="60" pos="408" pan="0" len="24" vol="34" />
          <note key="64" pos="792" pan="0" len="24" vol="34" />
          <note key="64" pos="888" pan="0" len="24" vol="34" />
          <note key="64" pos="1176" pan="0" len="24" vol="34" />
        </pattern>
        <pattern pos="213504" muted="0" steps="16" name="" type="1">
          <note key="66" pos="12" pan="0" len="12" vol="34" />
          <note key="66" pos="60" pan="0" len="12" vol="34" />
          <note key="66" pos="204" pan="0" len="12" vol="34" />
          <note key="66" pos="396" pan="0" len="12" vol="34" />
          <note key="66" pos="444" pan="0" len="12" vol="34" />
          <note key="66" pos="588" pan="0" len="12" vol="34" />
          <note key="66" pos="780" pan="0" len="12" vol="34" />
          <note key="66" pos="828" pan="0" len="12" vol="34" />
          <note key="66" pos="972" pan="0" len="12" vol="34" />
          <note key="66" pos="1164" pan="0" len="12" vol="34" />
          <note key="66" pos="1212" pan="0" len="12" vol="34" />
          <note key="66" pos="1356" pan="0" len="12" vol="34" />
        </pattern>
      </track>
      <track solo="0" name="33 (Ch8)" type="0" muted="0">
        <instrumenttrack usemasterpitch="1" pitch="0.0" basenote="57" pan="0" pitchrange="12" vol="30">
          <eldata />
          <instrument name="tripleoscillator" />
        </instrumenttrack>
        <pattern pos="256896" muted="0" steps="16" name="" type="1">
          <note key="60" pos="48" pan="0" len="48" vol="100" />
          <note key="60" pos="432" pan="0" len="48" vol="100" />
          <note key="60" pos="816" pan="0" len="48" vol="100" />
          <note key="60" pos="1176" pan="0" len="24" vol="50" />
        </pattern>
        <pattern pos="196608" muted="0" steps="16" name="" type="1">
          <note key="64" pos="780" pan="0" len="12" vol="2" />
          <note key="64" pos="828" pan="0" len="12" vol="3" />
          <note key="64" pos="972" pan="0" len="12" vol="9" />
          <note key="64" pos="1164" pan="0" len="12" vol="19" />
          <note key="64" pos="1212" pan="0" len="12" vol="20" />
          <note key="64" pos="1356" pan="0" len="12" vol="27" />
        </pattern>
        <pattern pos="227520" muted="0" steps="16" name="" type="1">
          <note key="62" pos="360" pan="0" len="24" vol="17" />
          <note key="63" pos="552" pan="0" len="24" vol="17" />
          <note key="62" pos="1128" pan="0" len="24" vol="17" />
          <note key="63" pos="1320" pan="0" len="24" vol="17" />
        </pattern>
        <pattern pos="229056" muted="0" steps="16" name="" type="1">
          <note key="62" pos="360" pan="0" len="24" vol="17" />
          <note key="63" pos="552" pan="0" len="24" vol="17" />
          <note key="62" pos="1128" pan="0" len="24" vol="17" />
          <note key="63" pos="1320" pan="0" len="24" vol="17" />
        </pattern>
        <pattern pos="241536" muted="0" steps="16" name="" type="1">
          <note key="60" pos="24" pan="0" len="24" vol="50" />
          <note key="60" pos="408" pan="0" len="24" vol="50" />
          <note key="60" pos="792" pan="0" len="24" vol="50" />
          <note key="60" pos="1176" pan="0" len="24" vol="50" />
        </pattern>
        <pattern pos="243072" muted="0" steps="16" name="" type="1">
          <note key="60" pos="24" pan="0" len="24" vol="50" />
          <note key="60" pos="408" pan="0" len="24" vol="50" />
          <note key="60" pos="792" pan="0" len="24" vol="50" />
          <note key="60" pos="1176" pan="0" len="24" vol="50" />
        </pattern>
        <pattern pos="244608" muted="0" steps="16" name="" type="1">
          <note key="60" pos="48" pan="0" len="48" vol="100" />
          <note key="60" pos="432" pan="0" len="48" vol="100" />
          <note key="60" pos="816" pan="0" len="48" vol="100" />
          <note key="60" pos="1200" pan="0" len="48" vol="100" />
        </pattern>
        <pattern pos="246144" muted="0" steps="16" name="" type="1">
          <note key="60" pos="48" pan="0" len="48" vol="100" />
          <note key="60" pos="432" pan="0" len="48" vol="100" />
          <note key="60" pos="816" pan="0" len="48" vol="100" />
          <note key="60" pos="1200" pan="0" len="48" vol="100" />
        </pattern>
        <pattern pos="249216" muted="0" steps="16" name="" type="1">
          <note key="60" pos="48" pan="0" len="48" vol="100" />
          <note key="60" pos="432" pan="0" len="48" vol="100" />
          <note key="60" pos="816" pan="0" len="48" vol="100" />
          <note key="60" pos="1200" pan="0" len="48" vol="100" />
        </pattern>
        <pattern pos="250752" muted="0" steps="16" name="" type="1">
          <note key="60" pos="48" pan="0" len="48" vol="100" />
          <note key="60" pos="432" pan="0" len="48" vol="100" />
          <note key="60" pos="816" pan="0" len="48" vol="100" />
          <note key="60" pos="1200" pan="0" len="48" vol="100" />
        </pattern>
        <pattern pos="252288" muted="0" steps="16" name="" type="1">
          <note key="60" pos="48" pan="0" len="48" vol="100" />
          <note key="60" pos="432" pan="0" len="48" vol="100" />
          <note key="60" pos="816" pan="0" len="48" vol="100" />
          <note key="60" pos="1200" pan="0" len="48" vol="100" />
        </pattern>
        <pattern pos="253824" muted="0" steps="16" name="" type="1">
          <note key="60" pos="48" pan="0" len="48" vol="100" />
          <note key="60" pos="432" pan="0" len="48" vol="100" />
          <note key="60" pos="816" pan="0" len="48" vol="100" />
          <note key="60" pos="1200" pan="0" len="48" vol="100" />
        </pattern>
        <pattern pos="255360" muted="0" steps="16" name="" type="1">
          <note key="60" pos="48" pan="0" len="48" vol="100" />
          <note key="60" pos="432" pan="0" len="48" vol="100" />
          <note key="60" pos="816" pan="0" len="48" vol="100" />
          <note key="60" pos="1200" pan="0" len="48" vol="100" />
        </pattern>
      </track>
      <track solo="0" name="33 (Ch9)" type="0" muted="0">
        <instrumenttrack usemasterpitch="1" pitch="0.0" basenote="57" pan="0" pitchrange="12" vol="30">
          <eldata />
          <instrument name="tripleoscillator" />
        </instrumenttrack>
        <pattern pos="235200" muted="0" steps="16" name="" type="1">
          <note key="67" pos="168" pan="0" len="24" vol="17" />
          <note key="63" pos="552" pan="0" len="24" vol="17" />
          <note key="67" pos="936" pan="0" len="24" vol="17" />
          <note key="63" pos="1320" pan="0" len="24" vol="17" />
        </pattern>
        <pattern pos="224448" muted="0" steps="16" name="" type="1">
          <note key="67" pos="168" pan="0" len="24" vol="17" />
          <note key="63" pos="552" pan="0" len="24" vol="17" />
          <note key="67" pos="936" pan="0" len="24" vol="17" />
          <note key="63" pos="1320" pan="0" len="24" vol="17" />
        </pattern>
        <pattern pos="225984" muted="0" steps="16" name="" type="1">
          <note key="67" pos="168" pan="0" len="24" vol="17" />
          <note key="63" pos="552" pan="0" len="24" vol="17" />
          <note key="67" pos="936" pan="0" len="24" vol="17" />
          <note key="63" pos="1320" pan="0" len="24" vol="17" />
        </pattern>
        <pattern pos="230592" muted="0" steps="16" name="" type="1">
          <note key="67" pos="168" pan="0" len="24" vol="17" />
          <note key="63" pos="552" pan="0" len="24" vol="17" />
          <note key="60" pos="936" pan="0" len="24" vol="17" />
          <note key="63" pos="1320" pan="0" len="24" vol="17" />
        </pattern>
        <pattern pos="232128" muted="0" steps="16" name="" type="1">
          <note key="67" pos="168" pan="0" len="24" vol="17" />
          <note key="63" pos="552" pan="0" len="24" vol="17" />
          <note key="60" pos="936" pan="0" len="24" vol="17" />
          <note key="67" pos="1320" pan="0" len="24" vol="17" />
        </pattern>
        <pattern pos="233664" muted="0" steps="16" name="" type="1">
          <note key="67" pos="168" pan="0" len="24" vol="17" />
          <note key="63" pos="552" pan="0" len="24" vol="17" />
          <note key="67" pos="936" pan="0" len="24" vol="17" />
          <note key="63" pos="1320" pan="0" len="24" vol="17" />
        </pattern>
      </track>
      <track solo="0" name="33 (Ch11)" type="0" muted="0">
        <instrumenttrack usemasterpitch="1" pitch="0.0" basenote="57" pan="0" pitchrange="12" vol="30">
          <eldata />
          <instrument name="tripleoscillator" />
        </instrumenttrack>
        <pattern pos="196608" muted="0" steps="16" name="" type="1">
          <note key="64" pos="72" pan="0" len="48" vol="100" />
          <note key="64" pos="264" pan="0" len="48" vol="100" />
          <note key="64" pos="456" pan="0" len="48" vol="100" />
          <note key="64" pos="648" pan="0" len="48" vol="92" />
          <note key="64" pos="840" pan="0" len="48" vol="72" />
          <note key="64" pos="1032" pan="0" len="48" vol="53" />
          <note key="64" pos="1224" pan="0" len="48" vol="33" />
          <note key="64" pos="1416" pan="0" len="48" vol="12" />
        </pattern>
        <pattern pos="190464" muted="0" steps="16" name="" type="1">
          <note key="64" pos="72" pan="0" len="48" vol="100" />
          <note key="64" pos="264" pan="0" len="48" vol="100" />
          <note key="64" pos="456" pan="0" len="48" vol="100" />
          <note key="64" pos="648" pan="0" len="48" vol="100" />
          <note key="64" pos="840" pan="0" len="48" vol="100" />
          <note key="64" pos="1032" pan="0" len="48" vol="100" />
          <note key="64" pos="1224" pan="0" len="48" vol="100" />
          <note key="64" pos="1416" pan="0" len="48" vol="100" />
        </pattern>
        <pattern pos="192000" muted="0" steps="16" name="" type="1">
          <note key="64" pos="72" pan="0" len="48" vol="100" />
          <note key="64" pos="264" pan="0" len="48" vol="100" />
          <note key="64" pos="456" pan="0" len="48" vol="100" />
          <note key="64" pos="648" pan="0" len="48" vol="100" />
          <note key="64" pos="840" pan="0" len="48" vol="100" />
          <note key="64" pos="1032" pan="0" len="48" vol="100" />
          <note key="64" pos="1224" pan="0" len="48" vol="100" />
          <note key="64" pos="1416" pan="0" len="48" vol="100" />
        </pattern>
        <pattern pos="195072" muted="0" steps="16" name="" type="1">
          <note key="64" pos="72" pan="0" len="48" vol="100" />
          <note key="64" pos="264" pan="0" len="48" vol="100" />
          <note key="64" pos="456" pan="0" len="48" vol="100" />
          <note key="64" pos="648" pan="0" len="48" vol="100" />
          <note key="64" pos="840" pan="0" len="48" vol="100" />
          <note key="64" pos="1032" pan="0" len="48" vol="100" />
          <note key="64" pos="1224" pan="0" len="48" vol="100" />
          <note key="64" pos="1416" pan="0" len="48" vol="100" />
        </pattern>
      </track>
      <track solo="0" name="34 (Ch1)" type="0" muted="0">
        <instrumenttrack usemasterpitch="1" pitch="0.0" basenote="57" pan="0" pitchrange="12" vol="30">
          <eldata />
          <instrument name="tripleoscillator" />
        </instrumenttrack>
        <pattern pos="16128" muted="0" steps="16" name="" type="1">
          <note key="60" pos="48" pan="0" len="12" vol="100" />
          <note key="60" pos="240" pan="0" len="12" vol="100" />
          <note key="60" pos="432" pan="0" len="12" vol="100" />
          <note key="60" pos="624" pan="0" len="12" vol="100" />
          <note key="60" pos="816" pan="0" len="12" vol="100" />
          <note key="60" pos="1008" pan="0" len="12" vol="100" />
          <note key="60" pos="1200" pan="0" len="12" vol="100" />
          <note key="60" pos="1392" pan="0" len="12" vol="100" />
        </pattern>
        <pattern pos="6912" muted="0" steps="16" name="" type="1">
          <note key="60" pos="48" pan="0" len="12" vol="100" />
          <note key="60" pos="240" pan="0" len="12" vol="100" />
          <note key="60" pos="432" pan="0" len="12" vol="100" />
          <note key="60" pos="624" pan="0" len="12" vol="100" />
        </pattern>
        <pattern pos="7680" muted="0" steps="16" name="" type="1">
          <note key="60" pos="48" pan="0" len="12" vol="100" />
          <note key="60" pos="240" pan="0" len="12" vol="100" />
          <note key="60" pos="432" pan="0" len="12" vol="100" />
          <note key="60" pos="624" pan="0" len="12" vol="100" />
        </pattern>
        <pattern pos="8448" muted="0" steps="16" name="" type="1">
          <note key="60" pos="48" pan="0" len="12" vol="100" />
          <note key="60" pos="240" pan="0" len="12" vol="100" />
          <note key="60" pos="432" pan="0" len="12" vol="100" />
          <note key="60" pos="624" pan="0" len="12" vol="100" />
        </pattern>
        <pattern pos="9216" muted="0" steps="16" name="" type="1">
          <note key="60" pos="48" pan="0" len="12" vol="100" />
          <note key="60" pos="240" pan="0" len="12" vol="100" />
          <note key="60" pos="432" pan="0" len="12" vol="100" />
          <note key="60" pos="624" pan="0" len="12" vol="100" />
        </pattern>
        <pattern pos="9984" muted="0" steps="16" name="" type="1">
          <note key="60" pos="48" pan="0" len="12" vol="100" />
          <note key="60" pos="240" pan="0" len="12" vol="100" />
          <note key="60" pos="432" pan="0" len="12" vol="100" />
          <note key="60" pos="624" pan="0" len="12" vol="100" />
        </pattern>
        <pattern pos="10752" muted="0" steps="16" name="" type="1">
          <note key="60" pos="48" pan="0" len="12" vol="100" />
          <note key="60" pos="240" pan="0" len="12" vol="100" />
          <note key="60" pos="432" pan="0" len="12" vol="100" />
          <note key="60" pos="624" pan="0" len="12" vol="100" />
        </pattern>
        <pattern pos="11520" muted="0" steps="16" name="" type="1">
          <note key="60" pos="48" pan="0" len="12" vol="100" />
          <note key="60" pos="240" pan="0" len="12" vol="100" />
          <note key="60" pos="432" pan="0" len="12" vol="100" />
          <note key="60" pos="624" pan="0" len="12" vol="100" />
          <note key="60" pos="816" pan="0" len="12" vol="100" />
          <note key="60" pos="1008" pan="0" len="12" vol="100" />
          <note key="60" pos="1200" pan="0" len="12" vol="100" />
          <note key="60" pos="1392" pan="0" len="12" vol="100" />
        </pattern>
        <pattern pos="13056" muted="0" steps="16" name="" type="1">
          <note key="60" pos="48" pan="0" len="12" vol="100" />
          <note key="60" pos="240" pan="0" len="12" vol="100" />
          <note key="60" pos="432" pan="0" len="12" vol="100" />
          <note key="60" pos="624" pan="0" len="12" vol="100" />
          <note key="60" pos="816" pan="0" len="12" vol="100" />
          <note key="60" pos="1008" pan="0" len="12" vol="100" />
          <note key="60" pos="1200" pan="0" len="12" vol="100" />
          <note key="60" pos="1392" pan="0" len="12" vol="100" />
        </pattern>
        <pattern pos="14592" muted="0" steps="16" name="" type="1">
          <note key="60" pos="48" pan="0" len="12" vol="100" />
          <note key="60" pos="240" pan="0" len="12" vol="100" />
          <note key="60" pos="432" pan="0" len="12" vol="100" />
          <note key="60" pos="624" pan="0" len="12" vol="100" />
          <note key="60" pos="816" pan="0" len="12" vol="100" />
          <note key="60" pos="1008" pan="0" len="12" vol="100" />
          <note key="60" pos="1200" pan="0" len="12" vol="100" />
          <note key="60" pos="1392" pan="0" len="12" vol="100" />
        </pattern>
      </track>
      <track solo="0" name="34 (Ch2)" type="0" muted="0">
        <instrumenttrack usemasterpitch="1" pitch="0.0" basenote="57" pan="0" pitchrange="12" vol="30">
          <eldata />
          <instrument name="tripleoscillator" />
        </instrumenttrack>
        <pattern pos="91392" muted="0" steps="16" name="" type="1">
          <note key="60" pos="96" pan="0" len="12" vol="88" />
          <note key="60" pos="288" pan="0" len="12" vol="62" />
          <note key="60" pos="480" pan="0" len="12" vol="38" />
          <note key="60" pos="672" pan="0" len="12" vol="12" />
          <note key="60" pos="744" pan="0" len="12" vol="3" />
        </pattern>
        <pattern pos="76800" muted="0" steps="16" name="" type="1">
          <note key="60" pos="96" pan="0" len="12" vol="100" />
          <note key="60" pos="288" pan="0" len="12" vol="100" />
          <note key="60" pos="480" pan="0" len="12" vol="100" />
          <note key="60" pos="672" pan="0" len="12" vol="100" />
          <note key="60" pos="744" pan="0" len="12" vol="100" />
        </pattern>
        <pattern pos="77568" muted="0" steps="16" name="" type="1">
          <note key="60" pos="96" pan="0" len="12" vol="100" />
          <note key="60" pos="288" pan="0" len="12" vol="100" />
          <note key="60" pos="480" pan="0" len="12" vol="100" />
          <note key="60" pos="672" pan="0" len="12" vol="100" />
          <note key="60" pos="744" pan="0" len="12" vol="100" />
        </pattern>
        <pattern pos="78336" muted="0" steps="16" name="" type="1">
          <note key="60" pos="96" pan="0" len="12" vol="100" />
          <note key="60" pos="288" pan="0" len="12" vol="100" />
          <note key="60" pos="480" pan="0" len="12" vol="100" />
          <note key="60" pos="672" pan="0" len="12" vol="100" />
          <note key="60" pos="744" pan="0" len="12" vol="100" />
        </pattern>
        <pattern pos="79104" muted="0" steps="16" name="" type="1">
          <note key="60" pos="96" pan="0" len="12" vol="100" />
          <note key="60" pos="288" pan="0" len="12" vol="100" />
          <note key="60" pos="480" pan="0" len="12" vol="100" />
          <note key="60" pos="672" pan="0" len="12" vol="100" />
          <note key="60" pos="744" pan="0" len="12" vol="100" />
        </pattern>
        <pattern pos="79872" muted="0" steps="16" name="" type="1">
          <note key="60" pos="96" pan="0" len="12" vol="100" />
          <note key="60" pos="288" pan="0" len="12" vol="100" />
          <note key="60" pos="480" pan="0" len="12" vol="100" />
          <note key="60" pos="672" pan="0" len="12" vol="100" />
          <note key="60" pos="744" pan="0" len="12" vol="100" />
        </pattern>
        <pattern pos="80640" muted="0" steps="16" name="" type="1">
          <note key="60" pos="96" pan="0" len="12" vol="100" />
          <note key="60" pos="288" pan="0" len="12" vol="100" />
          <note key="60" pos="480" pan="0" len="12" vol="100" />
          <note key="60" pos="672" pan="0" len="12" vol="100" />
          <note key="60" pos="744" pan="0" len="12" vol="100" />
        </pattern>
        <pattern pos="81408" muted="0" steps="16" name="" type="1">
          <note key="60" pos="96" pan="0" len="12" vol="100" />
          <note key="60" pos="288" pan="0" len="12" vol="100" />
          <note key="60" pos="480" pan="0" len="12" vol="100" />
          <note key="60" pos="672" pan="0" len="12" vol="100" />
          <note key="60" pos="744" pan="0" len="12" vol="100" />
        </pattern>
        <pattern pos="82176" muted="0" steps="16" name="" type="1">
          <note key="60" pos="96" pan="0" len="12" vol="100" />
          <note key="60" pos="288" pan="0" len="12" vol="100" />
          <note key="60" pos="480" pan="0" len="12" vol="100" />
          <note key="60" pos="672" pan="0" len="12" vol="100" />
          <note key="60" pos="744" pan="0" len="12" vol="100" />
        </pattern>
        <pattern pos="82944" muted="0" steps="16" name="" type="1">
          <note key="60" pos="96" pan="0" len="12" vol="100" />
          <note key="60" pos="288" pan="0" len="12" vol="100" />
          <note key="60" pos="480" pan="0" len="12" vol="100" />
          <note key="60" pos="672" pan="0" len="12" vol="100" />
          <note key="60" pos="744" pan="0" len="12" vol="100" />
        </pattern>
        <pattern pos="83712" muted="0" steps="16" name="" type="1">
          <note key="60" pos="96" pan="0" len="12" vol="100" />
          <note key="60" pos="288" pan="0" len="12" vol="100" />
          <note key="60" pos="480" pan="0" len="12" vol="100" />
          <note key="60" pos="672" pan="0" len="12" vol="100" />
          <note key="60" pos="744" pan="0" len="12" vol="100" />
        </pattern>
        <pattern pos="86016" muted="0" steps="16" name="" type="1">
          <note key="60" pos="96" pan="0" len="12" vol="100" />
          <note key="60" pos="288" pan="0" len="12" vol="100" />
          <note key="60" pos="480" pan="0" len="12" vol="100" />
          <note key="60" pos="672" pan="0" len="12" vol="100" />
          <note key="60" pos="744" pan="0" len="12" vol="100" />
        </pattern>
        <pattern pos="86784" muted="0" steps="16" name="" type="1">
          <note key="60" pos="96" pan="0" len="12" vol="100" />
          <note key="60" pos="288" pan="0" len="12" vol="100" />
          <note key="60" pos="480" pan="0" len="12" vol="100" />
          <note key="60" pos="672" pan="0" len="12" vol="100" />
          <note key="60" pos="744" pan="0" len="12" vol="100" />
        </pattern>
        <pattern pos="87552" muted="0" steps="16" name="" type="1">
          <note key="60" pos="96" pan="0" len="12" vol="100" />
          <note key="60" pos="288" pan="0" len="12" vol="100" />
          <note key="60" pos="480" pan="0" len="12" vol="100" />
          <note key="60" pos="672" pan="0" len="12" vol="100" />
          <note key="60" pos="744" pan="0" len="12" vol="100" />
        </pattern>
        <pattern pos="88320" muted="0" steps="16" name="" type="1">
          <note key="60" pos="96" pan="0" len="12" vol="100" />
          <note key="60" pos="288" pan="0" len="12" vol="100" />
          <note key="60" pos="480" pan="0" len="12" vol="100" />
          <note key="60" pos="672" pan="0" len="12" vol="100" />
          <note key="60" pos="744" pan="0" len="12" vol="100" />
        </pattern>
        <pattern pos="89088" muted="0" steps="16" name="" type="1">
          <note key="60" pos="96" pan="0" len="12" vol="100" />
          <note key="60" pos="288" pan="0" len="12" vol="100" />
          <note key="60" pos="480" pan="0" len="12" vol="100" />
          <note key="60" pos="672" pan="0" len="12" vol="100" />
          <note key="60" pos="744" pan="0" len="12" vol="100" />
        </pattern>
        <pattern pos="89856" muted="0" steps="16" name="" type="1">
          <note key="60" pos="96" pan="0" len="12" vol="100" />
          <note key="60" pos="288" pan="0" len="12" vol="100" />
          <note key="60" pos="480" pan="0" len="12" vol="100" />
          <note key="60" pos="672" pan="0" len="12" vol="100" />
          <note key="60" pos="744" pan="0" len="12" vol="100" />
        </pattern>
        <pattern pos="90624" muted="0" steps="16" name="" type="1">
          <note key="60" pos="96" pan="0" len="12" vol="100" />
          <note key="60" pos="288" pan="0" len="12" vol="100" />
          <note key="60" pos="480" pan="0" len="12" vol="100" />
          <note key="60" pos="672" pan="0" len="12" vol="100" />
          <note key="60" pos="744" pan="0" len="12" vol="100" />
        </pattern>
      </track>
      <track solo="0" name="34 (Ch3)" type="0" muted="0">
        <instrumenttrack usemasterpitch="1" pitch="0.0" basenote="57" pan="0" pitchrange="12" vol="30">
          <eldata />
          <instrument name="tripleoscillator" />
        </instrumenttrack>
        <pattern pos="133632" muted="0" steps="16" name="" type="1">
          <note key="60" pos="312" pan="0" len="24" vol="100" />
          <note key="60" pos="696" pan="0" len="24" vol="100" />
          <note key="63" pos="1080" pan="0" len="24" vol="100" />
          <note key="60" pos="1512" pan="0" len="24" vol="100" />
        </pattern>
        <pattern pos="95232" muted="0" steps="16" name="" type="1">
          <note key="60" pos="288" pan="0" len="24" vol="100" />
          <note key="60" pos="696" pan="0" len="24" vol="100" />
          <note key="60" pos="1080" pan="0" len="24" vol="100" />
          <note key="60" pos="1464" pan="0" len="24" vol="100" />
        </pattern>
        <pattern pos="96768" muted="0" steps="16" name="" type="1">
          <note key="60" pos="288" pan="0" len="24" vol="100" />
          <note key="60" pos="696" pan="0" len="24" vol="100" />
          <note key="60" pos="1080" pan="0" len="24" vol="100" />
          <note key="60" pos="1464" pan="0" len="24" vol="100" />
        </pattern>
        <pattern pos="98304" muted="0" steps="16" name="" type="1">
          <note key="60" pos="288" pan="0" len="24" vol="100" />
          <note key="60" pos="696" pan="0" len="24" vol="100" />
          <note key="60" pos="1080" pan="0" len="24" vol="100" />
          <note key="60" pos="1464" pan="0" len="24" vol="100" />
        </pattern>
        <pattern pos="99840" muted="0" steps="16" name="" type="1">
          <note key="60" pos="288" pan="0" len="24" vol="100" />
          <note key="60" pos="696" pan="0" len="24" vol="100" />
          <note key="60" pos="1080" pan="0" len="24" vol="100" />
          <note key="60" pos="1464" pan="0" len="24" vol="100" />
        </pattern>
        <pattern pos="101376" muted="0" steps="16" name="" type="1">
          <note key="60" pos="288" pan="0" len="24" vol="100" />
          <note key="60" pos="696" pan="0" len="24" vol="100" />
          <note key="60" pos="1080" pan="0" len="24" vol="100" />
          <note key="60" pos="1464" pan="0" len="24" vol="100" />
        </pattern>
        <pattern pos="102912" muted="0" steps="16" name="" type="1">
          <note key="60" pos="288" pan="0" len="24" vol="100" />
          <note key="60" pos="696" pan="0" len="24" vol="100" />
          <note key="60" pos="1080" pan="0" len="24" vol="100" />
          <note key="60" pos="1464" pan="0" len="24" vol="100" />
        </pattern>
        <pattern pos="105984" muted="0" steps="16" name="" type="1">
          <note key="62" pos="288" pan="0" len="24" vol="2" />
          <note key="62" pos="696" pan="0" len="24" vol="9" />
          <note key="62" pos="1080" pan="0" len="24" vol="36" />
          <note key="62" pos="1464" pan="0" len="24" vol="91" />
        </pattern>
        <pattern pos="107520" muted="0" steps="16" name="" type="1">
          <note key="69" pos="312" pan="0" len="24" vol="100" />
          <note key="69" pos="696" pan="0" len="24" vol="100" />
          <note key="69" pos="1080" pan="0" len="24" vol="100" />
          <note key="69" pos="1464" pan="0" len="24" vol="100" />
        </pattern>
        <pattern pos="109056" muted="0" steps="16" name="" type="1">
          <note key="69" pos="312" pan="0" len="24" vol="100" />
          <note key="69" pos="696" pan="0" len="24" vol="100" />
          <note key="69" pos="1080" pan="0" len="24" vol="100" />
          <note key="69" pos="1464" pan="0" len="24" vol="100" />
        </pattern>
        <pattern pos="110592" muted="0" steps="16" name="" type="1">
          <note key="68" pos="312" pan="0" len="24" vol="100" />
          <note key="68" pos="696" pan="0" len="24" vol="100" />
          <note key="68" pos="1080" pan="0" len="24" vol="100" />
          <note key="68" pos="1464" pan="0" len="24" vol="100" />
        </pattern>
        <pattern pos="112128" muted="0" steps="16" name="" type="1">
          <note key="68" pos="312" pan="0" len="24" vol="100" />
          <note key="68" pos="696" pan="0" len="24" vol="100" />
          <note key="68" pos="1080" pan="0" len="24" vol="100" />
          <note key="68" pos="1464" pan="0" len="24" vol="100" />
        </pattern>
        <pattern pos="116736" muted="0" steps="16" name="" type="1">
          <note key="60" pos="96" pan="0" len="24" vol="100" />
          <note key="60" pos="480" pan="0" len="24" vol="100" />
          <note key="60" pos="864" pan="0" len="24" vol="100" />
          <note key="60" pos="1248" pan="0" len="24" vol="100" />
          <note key="60" pos="1344" pan="0" len="24" vol="100" />
        </pattern>
        <pattern pos="118272" muted="0" steps="16" name="" type="1">
          <note key="60" pos="96" pan="0" len="24" vol="100" />
          <note key="60" pos="480" pan="0" len="24" vol="100" />
          <note key="60" pos="864" pan="0" len="24" vol="100" />
          <note key="60" pos="1248" pan="0" len="24" vol="100" />
          <note key="60" pos="1344" pan="0" len="24" vol="100" />
        </pattern>
        <pattern pos="121344" muted="0" steps="16" name="" type="1">
          <note key="60" pos="1344" pan="0" len="24" vol="100" />
        </pattern>
        <pattern pos="122880" muted="0" steps="16" name="" type="1">
          <note key="60" pos="288" pan="0" len="24" vol="100" />
          <note key="60" pos="696" pan="0" len="24" vol="100" />
          <note key="60" pos="1080" pan="0" len="24" vol="100" />
          <note key="60" pos="1464" pan="0" len="24" vol="100" />
        </pattern>
        <pattern pos="124416" muted="0" steps="16" name="" type="1">
          <note key="60" pos="288" pan="0" len="24" vol="100" />
          <note key="60" pos="696" pan="0" len="24" vol="100" />
          <note key="60" pos="1080" pan="0" len="24" vol="100" />
          <note key="60" pos="1464" pan="0" len="24" vol="100" />
        </pattern>
        <pattern pos="125952" muted="0" steps="16" name="" type="1">
          <note key="60" pos="312" pan="0" len="24" vol="100" />
          <note key="60" pos="696" pan="0" len="24" vol="100" />
          <note key="60" pos="1080" pan="0" len="24" vol="100" />
          <note key="60" pos="1464" pan="0" len="24" vol="100" />
        </pattern>
        <pattern pos="127488" muted="0" steps="16" name="" type="1">
          <note key="60" pos="312" pan="0" len="24" vol="100" />
          <note key="60" pos="696" pan="0" len="24" vol="100" />
          <note key="60" pos="1080" pan="0" len="24" vol="100" />
          <note key="60" pos="1464" pan="0" len="24" vol="100" />
        </pattern>
        <pattern pos="129024" muted="0" steps="16" name="" type="1">
          <note key="60" pos="312" pan="0" len="24" vol="100" />
          <note key="60" pos="696" pan="0" len="24" vol="100" />
          <note key="63" pos="1080" pan="0" len="24" vol="100" />
          <note key="58" pos="1464" pan="0" len="24" vol="100" />
        </pattern>
        <pattern pos="130560" muted="0" steps="16" name="" type="1">
          <note key="60" pos="312" pan="0" len="24" vol="100" />
          <note key="60" pos="696" pan="0" len="24" vol="100" />
          <note key="63" pos="1080" pan="0" len="24" vol="100" />
          <note key="58" pos="1464" pan="0" len="24" vol="100" />
        </pattern>
        <pattern pos="132096" muted="0" steps="16" name="" type="1">
          <note key="60" pos="312" pan="0" len="24" vol="100" />
          <note key="60" pos="696" pan="0" len="24" vol="100" />
          <note key="63" pos="1080" pan="0" len="24" vol="100" />
          <note key="58" pos="1464" pan="0" len="24" vol="100" />
        </pattern>
      </track>
      <track solo="0" name="34 (Ch6)" type="0" muted="0">
        <instrumenttrack usemasterpitch="1" pitch="0.0" basenote="57" pan="0" pitchrange="12" vol="30">
          <eldata />
          <instrument name="tripleoscillator" />
        </instrumenttrack>
        <pattern pos="215040" muted="0" steps="16" name="" type="1">
          <note key="66" pos="288" pan="0" len="24" vol="100" />
          <note key="66" pos="480" pan="0" len="24" vol="100" />
          <note key="66" pos="624" pan="0" len="24" vol="100" />
          <note key="66" pos="1056" pan="0" len="24" vol="100" />
          <note key="66" pos="1248" pan="0" len="24" vol="100" />
          <note key="66" pos="1392" pan="0" len="24" vol="100" />
        </pattern>
        <pattern pos="59904" muted="0" steps="16" name="" type="1">
          <note key="60" pos="240" pan="0" len="24" vol="100" />
          <note key="60" pos="624" pan="0" len="24" vol="100" />
          <note key="63" pos="1008" pan="0" len="24" vol="100" />
          <note key="65" pos="1392" pan="0" len="24" vol="100" />
        </pattern>
        <pattern pos="61440" muted="0" steps="16" name="" type="1">
          <note key="60" pos="240" pan="0" len="24" vol="100" />
          <note key="60" pos="624" pan="0" len="24" vol="100" />
          <note key="63" pos="1008" pan="0" len="24" vol="100" />
          <note key="65" pos="1392" pan="0" len="24" vol="100" />
        </pattern>
        <pattern pos="62976" muted="0" steps="16" name="" type="1">
          <note key="60" pos="240" pan="0" len="24" vol="100" />
          <note key="60" pos="624" pan="0" len="24" vol="100" />
          <note key="63" pos="1008" pan="0" len="24" vol="100" />
          <note key="65" pos="1392" pan="0" len="24" vol="100" />
        </pattern>
        <pattern pos="64512" muted="0" steps="16" name="" type="1">
          <note key="60" pos="240" pan="0" len="24" vol="100" />
          <note key="60" pos="624" pan="0" len="24" vol="100" />
          <note key="60" pos="1008" pan="0" len="24" vol="100" />
          <note key="60" pos="1392" pan="0" len="24" vol="100" />
        </pattern>
        <pattern pos="66048" muted="0" steps="16" name="" type="1">
          <note key="60" pos="240" pan="0" len="24" vol="100" />
          <note key="60" pos="624" pan="0" len="24" vol="100" />
          <note key="60" pos="1008" pan="0" len="24" vol="100" />
          <note key="60" pos="1392" pan="0" len="24" vol="100" />
        </pattern>
        <pattern pos="67584" muted="0" steps="16" name="" type="1">
          <note key="60" pos="240" pan="0" len="24" vol="100" />
          <note key="60" pos="624" pan="0" len="24" vol="100" />
          <note key="63" pos="1008" pan="0" len="24" vol="100" />
          <note key="65" pos="1392" pan="0" len="24" vol="100" />
        </pattern>
        <pattern pos="69120" muted="0" steps="16" name="" type="1">
          <note key="60" pos="240" pan="0" len="24" vol="100" />
          <note key="60" pos="624" pan="0" len="24" vol="100" />
          <note key="63" pos="1008" pan="0" len="24" vol="100" />
          <note key="65" pos="1392" pan="0" len="24" vol="100" />
        </pattern>
        <pattern pos="70656" muted="0" steps="16" name="" type="1">
          <note key="60" pos="240" pan="0" len="24" vol="100" />
          <note key="60" pos="624" pan="0" len="24" vol="100" />
          <note key="63" pos="1008" pan="0" len="24" vol="100" />
          <note key="65" pos="1392" pan="0" len="24" vol="100" />
        </pattern>
        <pattern pos="72192" muted="0" steps="16" name="" type="1">
          <note key="60" pos="240" pan="0" len="24" vol="100" />
          <note key="60" pos="624" pan="0" len="24" vol="100" />
          <note key="63" pos="1008" pan="0" len="24" vol="100" />
          <note key="65" pos="1392" pan="0" len="24" vol="100" />
        </pattern>
        <pattern pos="73728" muted="0" steps="16" name="" type="1">
          <note key="60" pos="240" pan="0" len="24" vol="100" />
          <note key="60" pos="624" pan="0" len="24" vol="100" />
          <note key="60" pos="1008" pan="0" len="24" vol="100" />
          <note key="60" pos="1392" pan="0" len="24" vol="100" />
        </pattern>
        <pattern pos="75264" muted="0" steps="16" name="" type="1">
          <note key="60" pos="240" pan="0" len="24" vol="100" />
          <note key="60" pos="624" pan="0" len="24" vol="100" />
          <note key="60" pos="1008" pan="0" len="24" vol="100" />
          <note key="60" pos="1392" pan="0" len="24" vol="100" />
        </pattern>
        <pattern pos="198144" muted="0" steps="16" name="" type="1">
          <note key="64" pos="144" pan="0" len="12" vol="100" />
          <note key="64" pos="240" pan="0" len="12" vol="100" />
          <note key="64" pos="312" pan="0" len="12" vol="100" />
          <note key="64" pos="528" pan="0" len="12" vol="100" />
          <note key="64" pos="624" pan="0" len="12" vol="100" />
          <note key="64" pos="696" pan="0" len="12" vol="100" />
          <note key="64" pos="912" pan="0" len="12" vol="100" />
          <note key="64" pos="1008" pan="0" len="12" vol="100" />
          <note key="64" pos="1080" pan="0" len="12" vol="100" />
          <note key="64" pos="1296" pan="0" len="12" vol="100" />
          <note key="64" pos="1392" pan="0" len="12" vol="100" />
          <note key="64" pos="1464" pan="0" len="12" vol="100" />
        </pattern>
        <pattern pos="199680" muted="0" steps="16" name="" type="1">
          <note key="64" pos="144" pan="0" len="12" vol="100" />
          <note key="64" pos="240" pan="0" len="12" vol="100" />
          <note key="64" pos="312" pan="0" len="12" vol="100" />
          <note key="64" pos="528" pan="0" len="12" vol="100" />
          <note key="64" pos="624" pan="0" len="12" vol="100" />
          <note key="64" pos="696" pan="0" len="12" vol="100" />
          <note key="64" pos="912" pan="0" len="12" vol="100" />
          <note key="64" pos="1008" pan="0" len="12" vol="100" />
          <note key="64" pos="1080" pan="0" len="12" vol="100" />
          <note key="64" pos="1296" pan="0" len="12" vol="100" />
          <note key="64" pos="1392" pan="0" len="12" vol="100" />
          <note key="64" pos="1464" pan="0" len="12" vol="100" />
        </pattern>
        <pattern pos="201216" muted="0" steps="16" name="" type="1">
          <note key="64" pos="288" pan="0" len="24" vol="100" />
          <note key="64" pos="480" pan="0" len="24" vol="100" />
          <note key="64" pos="624" pan="0" len="24" vol="100" />
          <note key="64" pos="1056" pan="0" len="24" vol="100" />
          <note key="64" pos="1248" pan="0" len="24" vol="100" />
          <note key="64" pos="1392" pan="0" len="24" vol="100" />
        </pattern>
        <pattern pos="202752" muted="0" steps="16" name="" type="1">
          <note key="64" pos="288" pan="0" len="24" vol="100" />
          <note key="64" pos="480" pan="0" len="24" vol="100" />
          <note key="64" pos="624" pan="0" len="24" vol="100" />
          <note key="64" pos="1056" pan="0" len="24" vol="100" />
          <note key="64" pos="1248" pan="0" len="24" vol="100" />
          <note key="60" pos="1392" pan="0" len="24" vol="100" />
        </pattern>
        <pattern pos="204288" muted="0" steps="16" name="" type="1">
          <note key="59" pos="288" pan="0" len="24" vol="100" />
          <note key="60" pos="480" pan="0" len="24" vol="100" />
          <note key="62" pos="624" pan="0" len="24" vol="100" />
          <note key="64" pos="1056" pan="0" len="24" vol="100" />
          <note key="64" pos="1248" pan="0" len="24" vol="100" />
          <note key="64" pos="1392" pan="0" len="24" vol="100" />
        </pattern>
        <pattern pos="205824" muted="0" steps="16" name="" type="1">
          <note key="59" pos="288" pan="0" len="24" vol="100" />
          <note key="60" pos="480" pan="0" len="24" vol="100" />
          <note key="62" pos="624" pan="0" len="24" vol="100" />
          <note key="64" pos="1056" pan="0" len="24" vol="100" />
          <note key="64" pos="1248" pan="0" len="24" vol="100" />
          <note key="64" pos="1392" pan="0" len="24" vol="100" />
        </pattern>
        <pattern pos="207360" muted="0" steps="16" name="" type="1">
          <note key="64" pos="288" pan="0" len="24" vol="100" />
          <note key="64" pos="480" pan="0" len="24" vol="100" />
          <note key="64" pos="624" pan="0" len="24" vol="100" />
          <note key="64" pos="1056" pan="0" len="24" vol="100" />
          <note key="64" pos="1248" pan="0" len="24" vol="100" />
          <note key="64" pos="1392" pan="0" len="24" vol="100" />
        </pattern>
        <pattern pos="208896" muted="0" steps="16" name="" type="1">
          <note key="64" pos="288" pan="0" len="24" vol="100" />
          <note key="64" pos="480" pan="0" len="24" vol="100" />
          <note key="64" pos="624" pan="0" len="24" vol="100" />
          <note key="64" pos="1056" pan="0" len="24" vol="100" />
          <note key="64" pos="1248" pan="0" len="24" vol="100" />
          <note key="60" pos="1392" pan="0" len="24" vol="100" />
        </pattern>
        <pattern pos="210432" muted="0" steps="16" name="" type="1">
          <note key="59" pos="288" pan="0" len="24" vol="100" />
          <note key="60" pos="480" pan="0" len="24" vol="100" />
          <note key="62" pos="624" pan="0" len="24" vol="100" />
          <note key="64" pos="1056" pan="0" len="24" vol="100" />
          <note key="64" pos="1248" pan="0" len="24" vol="100" />
          <note key="64" pos="1392" pan="0" len="24" vol="100" />
        </pattern>
        <pattern pos="211968" muted="0" steps="16" name="" type="1">
          <note key="59" pos="288" pan="0" len="24" vol="100" />
          <note key="60" pos="480" pan="0" len="24" vol="100" />
          <note key="62" pos="624" pan="0" len="24" vol="100" />
          <note key="64" pos="1056" pan="0" len="24" vol="100" />
          <note key="64" pos="1248" pan="0" len="24" vol="100" />
          <note key="64" pos="1392" pan="0" len="24" vol="100" />
        </pattern>
        <pattern pos="213504" muted="0" steps="16" name="" type="1">
          <note key="66" pos="144" pan="0" len="12" vol="100" />
          <note key="66" pos="240" pan="0" len="12" vol="100" />
          <note key="66" pos="312" pan="0" len="12" vol="100" />
          <note key="66" pos="528" pan="0" len="12" vol="100" />
          <note key="66" pos="624" pan="0" len="12" vol="100" />
          <note key="66" pos="696" pan="0" len="12" vol="100" />
          <note key="66" pos="912" pan="0" len="12" vol="100" />
          <note key="66" pos="1008" pan="0" len="12" vol="100" />
          <note key="66" pos="1080" pan="0" len="12" vol="100" />
          <note key="66" pos="1296" pan="0" len="12" vol="100" />
          <note key="66" pos="1392" pan="0" len="12" vol="100" />
          <note key="66" pos="1464" pan="0" len="12" vol="100" />
        </pattern>
      </track>
      <track solo="0" name="34 (Ch8)" type="0" muted="0">
        <instrumenttrack usemasterpitch="1" pitch="0.0" basenote="57" pan="0" pitchrange="12" vol="30">
          <eldata />
          <instrument name="tripleoscillator" />
        </instrumenttrack>
        <pattern pos="256896" muted="0" steps="16" name="" type="1">
          <note key="60" pos="288" pan="0" len="24" vol="100" />
          <note key="60" pos="672" pan="0" len="24" vol="100" />
          <note key="60" pos="1056" pan="0" len="24" vol="100" />
          <note key="60" pos="1368" pan="0" len="24" vol="100" />
          <note key="60" pos="1416" pan="0" len="24" vol="17" />
          <note key="60" pos="1512" pan="0" len="24" vol="100" />
        </pattern>
        <pattern pos="196608" muted="0" steps="16" name="" type="1">
          <note key="64" pos="912" pan="0" len="12" vol="20" />
          <note key="64" pos="1008" pan="0" len="12" vol="33" />
          <note key="64" pos="1080" pan="0" len="12" vol="42" />
          <note key="64" pos="1296" pan="0" len="12" vol="70" />
          <note key="64" pos="1392" pan="0" len="12" vol="83" />
          <note key="64" pos="1464" pan="0" len="12" vol="92" />
        </pattern>
        <pattern pos="227520" muted="0" steps="16" name="" type="1">
          <note key="60" pos="168" pan="0" len="24" vol="100" />
          <note key="65" pos="744" pan="0" len="24" vol="100" />
          <note key="60" pos="936" pan="0" len="24" vol="100" />
          <note key="65" pos="1512" pan="0" len="24" vol="100" />
        </pattern>
        <pattern pos="229056" muted="0" steps="16" name="" type="1">
          <note key="60" pos="168" pan="0" len="24" vol="100" />
          <note key="65" pos="744" pan="0" len="24" vol="100" />
          <note key="60" pos="936" pan="0" len="24" vol="100" />
          <note key="65" pos="1512" pan="0" len="24" vol="100" />
        </pattern>
        <pattern pos="241536" muted="0" steps="16" name="" type="1">
          <note key="60" pos="288" pan="0" len="24" vol="100" />
          <note key="60" pos="672" pan="0" len="24" vol="100" />
          <note key="60" pos="1056" pan="0" len="24" vol="100" />
          <note key="60" pos="1440" pan="0" len="24" vol="100" />
        </pattern>
        <pattern pos="243072" muted="0" steps="16" name="" type="1">
          <note key="60" pos="288" pan="0" len="24" vol="100" />
          <note key="60" pos="672" pan="0" len="24" vol="100" />
          <note key="60" pos="1056" pan="0" len="24" vol="100" />
          <note key="60" pos="1368" pan="0" len="24" vol="100" />
          <note key="60" pos="1416" pan="0" len="24" vol="17" />
          <note key="60" pos="1512" pan="0" len="24" vol="100" />
        </pattern>
        <pattern pos="244608" muted="0" steps="16" name="" type="1">
          <note key="60" pos="288" pan="0" len="24" vol="100" />
          <note key="60" pos="672" pan="0" len="24" vol="100" />
          <note key="60" pos="1056" pan="0" len="24" vol="100" />
          <note key="60" pos="1440" pan="0" len="24" vol="100" />
        </pattern>
        <pattern pos="246144" muted="0" steps="16" name="" type="1">
          <note key="60" pos="288" pan="0" len="24" vol="100" />
          <note key="60" pos="672" pan="0" len="24" vol="100" />
          <note key="60" pos="1056" pan="0" len="24" vol="100" />
          <note key="60" pos="1440" pan="0" len="24" vol="100" />
        </pattern>
        <pattern pos="249216" muted="0" steps="16" name="" type="1">
          <note key="60" pos="288" pan="0" len="24" vol="100" />
          <note key="60" pos="672" pan="0" len="24" vol="100" />
          <note key="60" pos="1056" pan="0" len="24" vol="100" />
          <note key="60" pos="1440" pan="0" len="24" vol="100" />
        </pattern>
        <pattern pos="250752" muted="0" steps="16" name="" type="1">
          <note key="60" pos="288" pan="0" len="24" vol="100" />
          <note key="60" pos="672" pan="0" len="24" vol="100" />
          <note key="60" pos="1056" pan="0" len="24" vol="100" />
          <note key="60" pos="1440" pan="0" len="24" vol="100" />
        </pattern>
        <pattern pos="252288" muted="0" steps="16" name="" type="1">
          <note key="60" pos="288" pan="0" len="24" vol="100" />
          <note key="60" pos="672" pan="0" len="24" vol="100" />
          <note key="60" pos="1056" pan="0" len="24" vol="100" />
          <note key="60" pos="1440" pan="0" len="24" vol="100" />
        </pattern>
        <pattern pos="253824" muted="0" steps="16" name="" type="1">
          <note key="60" pos="288" pan="0" len="24" vol="100" />
          <note key="60" pos="672" pan="0" len="24" vol="100" />
          <note key="60" pos="1056" pan="0" len="24" vol="100" />
          <note key="60" pos="1440" pan="0" len="24" vol="100" />
        </pattern>
        <pattern pos="255360" muted="0" steps="16" name="" type="1">
          <note key="60" pos="288" pan="0" len="24" vol="100" />
          <note key="60" pos="672" pan="0" len="24" vol="100" />
          <note key="60" pos="1056" pan="0" len="24" vol="100" />
          <note key="60" pos="1440" pan="0" len="24" vol="100" />
        </pattern>
      </track>
      <track solo="0" name="34 (Ch9)" type="0" muted="0">
        <instrumenttrack usemasterpitch="1" pitch="0.0" basenote="57" pan="0" pitchrange="12" vol="30">
          <eldata />
          <instrument name="tripleoscillator" />
        </instrumenttrack>
        <pattern pos="247680" muted="0" steps="16" name="" type="1">
          <note key="60" pos="1488" pan="0" len="24" vol="69" />
        </pattern>
        <pattern pos="224448" muted="0" steps="16" name="" type="1">
          <note key="65" pos="360" pan="0" len="24" vol="100" />
          <note key="65" pos="744" pan="0" len="24" vol="100" />
          <note key="65" pos="1128" pan="0" len="24" vol="100" />
          <note key="65" pos="1512" pan="0" len="24" vol="100" />
        </pattern>
        <pattern pos="225984" muted="0" steps="16" name="" type="1">
          <note key="65" pos="360" pan="0" len="24" vol="100" />
          <note key="65" pos="744" pan="0" len="24" vol="100" />
          <note key="65" pos="1128" pan="0" len="24" vol="100" />
          <note key="65" pos="1512" pan="0" len="24" vol="100" />
        </pattern>
        <pattern pos="230592" muted="0" steps="16" name="" type="1">
          <note key="65" pos="360" pan="0" len="24" vol="100" />
          <note key="65" pos="744" pan="0" len="24" vol="100" />
          <note key="62" pos="1128" pan="0" len="24" vol="100" />
          <note key="65" pos="1512" pan="0" len="24" vol="100" />
        </pattern>
        <pattern pos="232128" muted="0" steps="16" name="" type="1">
          <note key="65" pos="360" pan="0" len="24" vol="100" />
          <note key="65" pos="744" pan="0" len="24" vol="100" />
          <note key="62" pos="1128" pan="0" len="24" vol="100" />
          <note key="67" pos="1512" pan="0" len="24" vol="100" />
        </pattern>
        <pattern pos="233664" muted="0" steps="16" name="" type="1">
          <note key="65" pos="360" pan="0" len="24" vol="100" />
          <note key="65" pos="744" pan="0" len="24" vol="100" />
          <note key="65" pos="1128" pan="0" len="24" vol="100" />
          <note key="65" pos="1512" pan="0" len="24" vol="100" />
        </pattern>
        <pattern pos="235200" muted="0" steps="16" name="" type="1">
          <note key="65" pos="360" pan="0" len="24" vol="100" />
          <note key="65" pos="744" pan="0" len="24" vol="100" />
          <note key="65" pos="1128" pan="0" len="24" vol="100" />
          <note key="65" pos="1512" pan="0" len="24" vol="100" />
        </pattern>
        <pattern pos="240000" muted="0" steps="16" name="" type="1">
          <note key="60" pos="1488" pan="0" len="24" vol="69" />
        </pattern>
      </track>
      <track solo="0" name="35 (Ch1)" type="0" muted="0">
        <instrumenttrack usemasterpitch="1" pitch="0.0" basenote="57" pan="0" pitchrange="12" vol="30">
          <eldata />
          <instrument name="tripleoscillator" />
        </instrumenttrack>
        <pattern pos="16128" muted="0" steps="16" name="" type="1">
          <note key="60" pos="84" pan="0" len="12" vol="100" />
          <note key="60" pos="276" pan="0" len="12" vol="100" />
          <note key="60" pos="468" pan="0" len="12" vol="100" />
          <note key="60" pos="660" pan="0" len="12" vol="100" />
          <note key="60" pos="852" pan="0" len="12" vol="100" />
          <note key="60" pos="1044" pan="0" len="12" vol="100" />
          <note key="60" pos="1236" pan="0" len="12" vol="100" />
          <note key="60" pos="1428" pan="0" len="12" vol="100" />
        </pattern>
        <pattern pos="6912" muted="0" steps="16" name="" type="1">
          <note key="60" pos="84" pan="0" len="12" vol="100" />
          <note key="60" pos="276" pan="0" len="12" vol="100" />
          <note key="60" pos="468" pan="0" len="12" vol="100" />
          <note key="60" pos="660" pan="0" len="12" vol="100" />
        </pattern>
        <pattern pos="7680" muted="0" steps="16" name="" type="1">
          <note key="60" pos="84" pan="0" len="12" vol="100" />
          <note key="60" pos="276" pan="0" len="12" vol="100" />
          <note key="60" pos="468" pan="0" len="12" vol="100" />
          <note key="60" pos="660" pan="0" len="12" vol="100" />
        </pattern>
        <pattern pos="8448" muted="0" steps="16" name="" type="1">
          <note key="60" pos="84" pan="0" len="12" vol="100" />
          <note key="60" pos="276" pan="0" len="12" vol="100" />
          <note key="60" pos="468" pan="0" len="12" vol="100" />
          <note key="60" pos="660" pan="0" len="12" vol="100" />
        </pattern>
        <pattern pos="9216" muted="0" steps="16" name="" type="1">
          <note key="60" pos="84" pan="0" len="12" vol="100" />
          <note key="60" pos="276" pan="0" len="12" vol="100" />
          <note key="60" pos="468" pan="0" len="12" vol="100" />
          <note key="60" pos="660" pan="0" len="12" vol="100" />
        </pattern>
        <pattern pos="9984" muted="0" steps="16" name="" type="1">
          <note key="60" pos="84" pan="0" len="12" vol="100" />
          <note key="60" pos="276" pan="0" len="12" vol="100" />
          <note key="60" pos="468" pan="0" len="12" vol="100" />
          <note key="60" pos="660" pan="0" len="12" vol="100" />
        </pattern>
        <pattern pos="10752" muted="0" steps="16" name="" type="1">
          <note key="60" pos="84" pan="0" len="12" vol="100" />
          <note key="60" pos="276" pan="0" len="12" vol="100" />
          <note key="60" pos="468" pan="0" len="12" vol="100" />
          <note key="60" pos="660" pan="0" len="12" vol="100" />
          <note key="60" pos="744" pan="0" len="12" vol="17" />
          <note key="60" pos="756" pan="0" len="12" vol="34" />
        </pattern>
        <pattern pos="11520" muted="0" steps="16" name="" type="1">
          <note key="60" pos="84" pan="0" len="12" vol="100" />
          <note key="60" pos="276" pan="0" len="12" vol="100" />
          <note key="60" pos="468" pan="0" len="12" vol="100" />
          <note key="60" pos="660" pan="0" len="12" vol="100" />
          <note key="60" pos="852" pan="0" len="12" vol="100" />
          <note key="60" pos="1044" pan="0" len="12" vol="100" />
          <note key="60" pos="1236" pan="0" len="12" vol="100" />
          <note key="60" pos="1428" pan="0" len="12" vol="100" />
        </pattern>
        <pattern pos="13056" muted="0" steps="16" name="" type="1">
          <note key="60" pos="84" pan="0" len="12" vol="100" />
          <note key="60" pos="276" pan="0" len="12" vol="100" />
          <note key="60" pos="468" pan="0" len="12" vol="100" />
          <note key="60" pos="660" pan="0" len="12" vol="100" />
          <note key="60" pos="852" pan="0" len="12" vol="100" />
          <note key="60" pos="1044" pan="0" len="12" vol="100" />
          <note key="60" pos="1236" pan="0" len="12" vol="100" />
          <note key="60" pos="1428" pan="0" len="12" vol="100" />
        </pattern>
        <pattern pos="14592" muted="0" steps="16" name="" type="1">
          <note key="60" pos="84" pan="0" len="12" vol="100" />
          <note key="60" pos="276" pan="0" len="12" vol="100" />
          <note key="60" pos="468" pan="0" len="12" vol="100" />
          <note key="60" pos="660" pan="0" len="12" vol="100" />
          <note key="60" pos="852" pan="0" len="12" vol="100" />
          <note key="60" pos="1044" pan="0" len="12" vol="100" />
          <note key="60" pos="1236" pan="0" len="12" vol="100" />
          <note key="60" pos="1428" pan="0" len="12" vol="100" />
        </pattern>
      </track>
      <track solo="0" name="35 (Ch2)" type="0" muted="0">
        <instrumenttrack usemasterpitch="1" pitch="0.0" basenote="57" pan="0" pitchrange="12" vol="30">
          <eldata />
          <instrument name="tripleoscillator" />
        </instrumenttrack>
        <pattern pos="267648" muted="0" steps="16" name="" type="1">
          <note key="63" pos="72" pan="0" len="24" vol="100" />
          <note key="63" pos="264" pan="0" len="24" vol="100" />
          <note key="65" pos="456" pan="0" len="24" vol="100" />
          <note key="65" pos="648" pan="0" len="24" vol="100" />
          <note key="63" pos="840" pan="0" len="24" vol="100" />
          <note key="63" pos="1032" pan="0" len="24" vol="100" />
          <note key="65" pos="1224" pan="0" len="24" vol="100" />
          <note key="65" pos="1416" pan="0" len="24" vol="100" />
        </pattern>
        <pattern pos="76800" muted="0" steps="16" name="" type="1">
          <note key="60" pos="108" pan="0" len="12" vol="100" />
          <note key="60" pos="132" pan="0" len="12" vol="8" />
          <note key="60" pos="300" pan="0" len="12" vol="100" />
          <note key="60" pos="324" pan="0" len="12" vol="8" />
          <note key="60" pos="492" pan="0" len="12" vol="100" />
          <note key="60" pos="516" pan="0" len="12" vol="8" />
          <note key="60" pos="684" pan="0" len="12" vol="100" />
          <note key="60" pos="708" pan="0" len="12" vol="8" />
        </pattern>
        <pattern pos="77568" muted="0" steps="16" name="" type="1">
          <note key="60" pos="108" pan="0" len="12" vol="100" />
          <note key="60" pos="132" pan="0" len="12" vol="8" />
          <note key="60" pos="300" pan="0" len="12" vol="100" />
          <note key="60" pos="324" pan="0" len="12" vol="8" />
          <note key="60" pos="492" pan="0" len="12" vol="100" />
          <note key="60" pos="516" pan="0" len="12" vol="8" />
          <note key="60" pos="684" pan="0" len="12" vol="100" />
          <note key="60" pos="708" pan="0" len="12" vol="8" />
        </pattern>
        <pattern pos="78336" muted="0" steps="16" name="" type="1">
          <note key="60" pos="108" pan="0" len="12" vol="100" />
          <note key="60" pos="132" pan="0" len="12" vol="8" />
          <note key="60" pos="300" pan="0" len="12" vol="100" />
          <note key="60" pos="324" pan="0" len="12" vol="8" />
          <note key="60" pos="492" pan="0" len="12" vol="100" />
          <note key="60" pos="516" pan="0" len="12" vol="8" />
          <note key="60" pos="684" pan="0" len="12" vol="100" />
          <note key="60" pos="708" pan="0" len="12" vol="8" />
        </pattern>
        <pattern pos="79104" muted="0" steps="16" name="" type="1">
          <note key="60" pos="108" pan="0" len="12" vol="100" />
          <note key="60" pos="132" pan="0" len="12" vol="8" />
          <note key="60" pos="300" pan="0" len="12" vol="100" />
          <note key="60" pos="324" pan="0" len="12" vol="8" />
          <note key="60" pos="492" pan="0" len="12" vol="100" />
          <note key="60" pos="516" pan="0" len="12" vol="8" />
          <note key="60" pos="684" pan="0" len="12" vol="100" />
          <note key="60" pos="708" pan="0" len="12" vol="8" />
        </pattern>
        <pattern pos="79872" muted="0" steps="16" name="" type="1">
          <note key="60" pos="108" pan="0" len="12" vol="100" />
          <note key="60" pos="132" pan="0" len="12" vol="8" />
          <note key="60" pos="300" pan="0" len="12" vol="100" />
          <note key="60" pos="324" pan="0" len="12" vol="8" />
          <note key="60" pos="492" pan="0" len="12" vol="100" />
          <note key="60" pos="516" pan="0" len="12" vol="8" />
          <note key="60" pos="684" pan="0" len="12" vol="100" />
          <note key="60" pos="708" pan="0" len="12" vol="8" />
        </pattern>
        <pattern pos="80640" muted="0" steps="16" name="" type="1">
          <note key="60" pos="108" pan="0" len="12" vol="100" />
          <note key="60" pos="132" pan="0" len="12" vol="8" />
          <note key="60" pos="300" pan="0" len="12" vol="100" />
          <note key="60" pos="324" pan="0" len="12" vol="8" />
          <note key="60" pos="492" pan="0" len="12" vol="100" />
          <note key="60" pos="516" pan="0" len="12" vol="8" />
          <note key="60" pos="684" pan="0" len="12" vol="100" />
          <note key="60" pos="708" pan="0" len="12" vol="8" />
        </pattern>
        <pattern pos="81408" muted="0" steps="16" name="" type="1">
          <note key="60" pos="108" pan="0" len="12" vol="100" />
          <note key="60" pos="132" pan="0" len="12" vol="8" />
          <note key="60" pos="300" pan="0" len="12" vol="100" />
          <note key="60" pos="324" pan="0" len="12" vol="8" />
          <note key="60" pos="492" pan="0" len="12" vol="100" />
          <note key="60" pos="516" pan="0" len="12" vol="8" />
          <note key="60" pos="684" pan="0" len="12" vol="100" />
          <note key="60" pos="708" pan="0" len="12" vol="8" />
        </pattern>
        <pattern pos="82176" muted="0" steps="16" name="" type="1">
          <note key="60" pos="108" pan="0" len="12" vol="100" />
          <note key="60" pos="132" pan="0" len="12" vol="8" />
          <note key="60" pos="300" pan="0" len="12" vol="100" />
          <note key="60" pos="324" pan="0" len="12" vol="8" />
          <note key="60" pos="492" pan="0" len="12" vol="100" />
          <note key="60" pos="516" pan="0" len="12" vol="8" />
          <note key="60" pos="684" pan="0" len="12" vol="100" />
          <note key="60" pos="708" pan="0" len="12" vol="8" />
        </pattern>
        <pattern pos="82944" muted="0" steps="16" name="" type="1">
          <note key="60" pos="108" pan="0" len="12" vol="100" />
          <note key="60" pos="132" pan="0" len="12" vol="8" />
          <note key="60" pos="300" pan="0" len="12" vol="100" />
          <note key="60" pos="324" pan="0" len="12" vol="8" />
          <note key="60" pos="492" pan="0" len="12" vol="100" />
          <note key="60" pos="516" pan="0" len="12" vol="8" />
          <note key="60" pos="684" pan="0" len="12" vol="100" />
          <note key="60" pos="708" pan="0" len="12" vol="8" />
        </pattern>
        <pattern pos="83712" muted="0" steps="16" name="" type="1">
          <note key="60" pos="108" pan="0" len="12" vol="100" />
          <note key="60" pos="132" pan="0" len="12" vol="8" />
          <note key="60" pos="300" pan="0" len="12" vol="100" />
          <note key="60" pos="324" pan="0" len="12" vol="8" />
          <note key="60" pos="492" pan="0" len="12" vol="100" />
          <note key="60" pos="516" pan="0" len="12" vol="8" />
          <note key="60" pos="684" pan="0" len="12" vol="100" />
          <note key="60" pos="708" pan="0" len="12" vol="8" />
        </pattern>
        <pattern pos="86016" muted="0" steps="16" name="" type="1">
          <note key="60" pos="108" pan="0" len="12" vol="100" />
          <note key="60" pos="132" pan="0" len="12" vol="8" />
          <note key="60" pos="300" pan="0" len="12" vol="100" />
          <note key="60" pos="324" pan="0" len="12" vol="8" />
          <note key="60" pos="492" pan="0" len="12" vol="100" />
          <note key="60" pos="516" pan="0" len="12" vol="8" />
          <note key="60" pos="684" pan="0" len="12" vol="100" />
          <note key="60" pos="708" pan="0" len="12" vol="8" />
        </pattern>
        <pattern pos="86784" muted="0" steps="16" name="" type="1">
          <note key="60" pos="108" pan="0" len="12" vol="100" />
          <note key="60" pos="132" pan="0" len="12" vol="8" />
          <note key="60" pos="300" pan="0" len="12" vol="100" />
          <note key="60" pos="324" pan="0" len="12" vol="8" />
          <note key="60" pos="492" pan="0" len="12" vol="100" />
          <note key="60" pos="516" pan="0" len="12" vol="8" />
          <note key="60" pos="684" pan="0" len="12" vol="100" />
          <note key="60" pos="708" pan="0" len="12" vol="8" />
        </pattern>
        <pattern pos="87552" muted="0" steps="16" name="" type="1">
          <note key="60" pos="108" pan="0" len="12" vol="100" />
          <note key="60" pos="132" pan="0" len="12" vol="8" />
          <note key="60" pos="300" pan="0" len="12" vol="100" />
          <note key="60" pos="324" pan="0" len="12" vol="8" />
          <note key="60" pos="492" pan="0" len="12" vol="100" />
          <note key="60" pos="516" pan="0" len="12" vol="8" />
          <note key="60" pos="684" pan="0" len="12" vol="100" />
          <note key="60" pos="708" pan="0" len="12" vol="8" />
        </pattern>
        <pattern pos="88320" muted="0" steps="16" name="" type="1">
          <note key="60" pos="108" pan="0" len="12" vol="100" />
          <note key="60" pos="132" pan="0" len="12" vol="8" />
          <note key="60" pos="300" pan="0" len="12" vol="100" />
          <note key="60" pos="324" pan="0" len="12" vol="8" />
          <note key="60" pos="492" pan="0" len="12" vol="100" />
          <note key="60" pos="516" pan="0" len="12" vol="8" />
          <note key="60" pos="684" pan="0" len="12" vol="100" />
          <note key="60" pos="708" pan="0" len="12" vol="8" />
        </pattern>
        <pattern pos="89088" muted="0" steps="16" name="" type="1">
          <note key="60" pos="108" pan="0" len="12" vol="100" />
          <note key="60" pos="132" pan="0" len="12" vol="8" />
          <note key="60" pos="300" pan="0" len="12" vol="100" />
          <note key="60" pos="324" pan="0" len="12" vol="8" />
          <note key="60" pos="492" pan="0" len="12" vol="100" />
          <note key="60" pos="516" pan="0" len="12" vol="8" />
          <note key="60" pos="684" pan="0" len="12" vol="100" />
          <note key="60" pos="708" pan="0" len="12" vol="8" />
        </pattern>
        <pattern pos="89856" muted="0" steps="16" name="" type="1">
          <note key="60" pos="108" pan="0" len="12" vol="100" />
          <note key="60" pos="132" pan="0" len="12" vol="8" />
          <note key="60" pos="300" pan="0" len="12" vol="100" />
          <note key="60" pos="324" pan="0" len="12" vol="8" />
          <note key="60" pos="492" pan="0" len="12" vol="100" />
          <note key="60" pos="516" pan="0" len="12" vol="8" />
          <note key="60" pos="684" pan="0" len="12" vol="100" />
          <note key="60" pos="708" pan="0" len="12" vol="8" />
        </pattern>
        <pattern pos="90624" muted="0" steps="16" name="" type="1">
          <note key="60" pos="108" pan="0" len="12" vol="100" />
          <note key="60" pos="132" pan="0" len="12" vol="8" />
          <note key="60" pos="300" pan="0" len="12" vol="100" />
          <note key="60" pos="324" pan="0" len="12" vol="8" />
          <note key="60" pos="492" pan="0" len="12" vol="100" />
          <note key="60" pos="516" pan="0" len="12" vol="8" />
          <note key="60" pos="684" pan="0" len="12" vol="100" />
          <note key="60" pos="708" pan="0" len="12" vol="8" />
        </pattern>
        <pattern pos="91392" muted="0" steps="16" name="" type="1">
          <note key="60" pos="108" pan="0" len="12" vol="86" />
          <note key="60" pos="132" pan="0" len="12" vol="6" />
          <note key="60" pos="300" pan="0" len="12" vol="61" />
          <note key="60" pos="324" pan="0" len="12" vol="5" />
          <note key="60" pos="492" pan="0" len="12" vol="36" />
          <note key="60" pos="516" pan="0" len="12" vol="3" />
          <note key="60" pos="684" pan="0" len="12" vol="11" />
          <note key="60" pos="708" pan="0" len="12" vol="0" />
        </pattern>
        <pattern pos="259968" muted="0" steps="16" name="" type="1">
          <note key="65" pos="72" pan="0" len="24" vol="100" />
          <note key="65" pos="264" pan="0" len="24" vol="100" />
          <note key="65" pos="456" pan="0" len="24" vol="100" />
          <note key="65" pos="648" pan="0" len="24" vol="100" />
        </pattern>
        <pattern pos="260736" muted="0" steps="16" name="" type="1">
          <note key="65" pos="72" pan="0" len="24" vol="100" />
          <note key="65" pos="264" pan="0" len="24" vol="100" />
          <note key="65" pos="456" pan="0" len="24" vol="100" />
          <note key="65" pos="648" pan="0" len="24" vol="100" />
        </pattern>
        <pattern pos="261504" muted="0" steps="16" name="" type="1">
          <note key="56" pos="72" pan="0" len="24" vol="100" />
          <note key="56" pos="264" pan="0" len="24" vol="100" />
          <note key="56" pos="456" pan="0" len="24" vol="100" />
          <note key="56" pos="648" pan="0" len="24" vol="100" />
        </pattern>
        <pattern pos="262272" muted="0" steps="16" name="" type="1">
          <note key="56" pos="72" pan="0" len="24" vol="100" />
          <note key="56" pos="264" pan="0" len="24" vol="100" />
          <note key="56" pos="456" pan="0" len="24" vol="100" />
          <note key="56" pos="648" pan="0" len="24" vol="100" />
        </pattern>
        <pattern pos="263040" muted="0" steps="16" name="" type="1">
          <note key="55" pos="72" pan="0" len="24" vol="100" />
          <note key="55" pos="264" pan="0" len="24" vol="100" />
          <note key="55" pos="456" pan="0" len="24" vol="100" />
          <note key="55" pos="648" pan="0" len="24" vol="100" />
        </pattern>
        <pattern pos="263808" muted="0" steps="16" name="" type="1">
          <note key="55" pos="72" pan="0" len="24" vol="100" />
          <note key="55" pos="264" pan="0" len="24" vol="100" />
          <note key="55" pos="456" pan="0" len="24" vol="100" />
          <note key="55" pos="648" pan="0" len="24" vol="100" />
        </pattern>
        <pattern pos="264576" muted="0" steps="16" name="" type="1">
          <note key="65" pos="72" pan="0" len="24" vol="100" />
          <note key="65" pos="264" pan="0" len="24" vol="100" />
          <note key="65" pos="456" pan="0" len="24" vol="100" />
          <note key="65" pos="648" pan="0" len="24" vol="100" />
        </pattern>
        <pattern pos="265344" muted="0" steps="16" name="" type="1">
          <note key="65" pos="72" pan="0" len="24" vol="100" />
          <note key="65" pos="264" pan="0" len="24" vol="100" />
          <note key="65" pos="456" pan="0" len="24" vol="100" />
          <note key="65" pos="648" pan="0" len="24" vol="100" />
        </pattern>
        <pattern pos="266112" muted="0" steps="16" name="" type="1">
          <note key="65" pos="72" pan="0" len="24" vol="100" />
          <note key="65" pos="264" pan="0" len="24" vol="100" />
          <note key="60" pos="456" pan="0" len="24" vol="100" />
          <note key="60" pos="648" pan="0" len="24" vol="100" />
          <note key="65" pos="840" pan="0" len="24" vol="100" />
          <note key="65" pos="1032" pan="0" len="24" vol="100" />
          <note key="60" pos="1224" pan="0" len="24" vol="100" />
          <note key="60" pos="1416" pan="0" len="24" vol="100" />
        </pattern>
      </track>
      <track solo="0" name="35 (Ch3)" type="0" muted="0">
        <instrumenttrack usemasterpitch="1" pitch="0.0" basenote="57" pan="0" pitchrange="12" vol="30">
          <eldata />
          <instrument name="tripleoscillator" />
        </instrumenttrack>
        <pattern pos="133632" muted="0" steps="16" name="" type="1">
          <note key="60" pos="192" pan="0" len="24" vol="100" />
          <note key="60" pos="576" pan="0" len="24" vol="100" />
          <note key="60" pos="960" pan="0" len="24" vol="100" />
          <note key="58" pos="1344" pan="0" len="24" vol="100" />
        </pattern>
        <pattern pos="93696" muted="0" steps="16" name="" type="1">
          <note key="60" pos="192" pan="0" len="24" vol="100" />
          <note key="60" pos="576" pan="0" len="24" vol="100" />
          <note key="60" pos="960" pan="0" len="24" vol="100" />
          <note key="60" pos="1344" pan="0" len="24" vol="100" />
        </pattern>
        <pattern pos="95232" muted="0" steps="16" name="" type="1">
          <note key="60" pos="192" pan="0" len="24" vol="100" />
          <note key="60" pos="576" pan="0" len="24" vol="100" />
          <note key="60" pos="960" pan="0" len="24" vol="100" />
          <note key="60" pos="1344" pan="0" len="24" vol="100" />
        </pattern>
        <pattern pos="96768" muted="0" steps="16" name="" type="1">
          <note key="60" pos="192" pan="0" len="24" vol="100" />
          <note key="60" pos="576" pan="0" len="24" vol="100" />
          <note key="60" pos="960" pan="0" len="24" vol="100" />
          <note key="60" pos="1344" pan="0" len="24" vol="100" />
        </pattern>
        <pattern pos="98304" muted="0" steps="16" name="" type="1">
          <note key="60" pos="192" pan="0" len="24" vol="100" />
          <note key="60" pos="576" pan="0" len="24" vol="100" />
          <note key="60" pos="960" pan="0" len="24" vol="100" />
          <note key="60" pos="1344" pan="0" len="24" vol="100" />
        </pattern>
        <pattern pos="99840" muted="0" steps="16" name="" type="1">
          <note key="60" pos="192" pan="0" len="24" vol="100" />
          <note key="60" pos="576" pan="0" len="24" vol="100" />
          <note key="60" pos="960" pan="0" len="24" vol="100" />
          <note key="60" pos="1344" pan="0" len="24" vol="100" />
        </pattern>
        <pattern pos="101376" muted="0" steps="16" name="" type="1">
          <note key="60" pos="192" pan="0" len="24" vol="100" />
          <note key="60" pos="576" pan="0" len="24" vol="100" />
          <note key="60" pos="960" pan="0" len="24" vol="100" />
          <note key="60" pos="1344" pan="0" len="24" vol="100" />
        </pattern>
        <pattern pos="102912" muted="0" steps="16" name="" type="1">
          <note key="60" pos="192" pan="0" len="24" vol="100" />
          <note key="60" pos="576" pan="0" len="24" vol="100" />
          <note key="60" pos="960" pan="0" len="24" vol="100" />
          <note key="60" pos="1344" pan="0" len="24" vol="100" />
        </pattern>
        <pattern pos="105984" muted="0" steps="16" name="" type="1">
          <note key="62" pos="192" pan="0" len="24" vol="0" />
          <note key="62" pos="576" pan="0" len="24" vol="6" />
          <note key="62" pos="960" pan="0" len="24" vol="25" />
          <note key="62" pos="1344" pan="0" len="24" vol="69" />
        </pattern>
        <pattern pos="107520" muted="0" steps="16" name="" type="1">
          <note key="67" pos="192" pan="0" len="24" vol="100" />
          <note key="67" pos="576" pan="0" len="24" vol="100" />
          <note key="67" pos="960" pan="0" len="24" vol="100" />
          <note key="67" pos="1344" pan="0" len="24" vol="100" />
        </pattern>
        <pattern pos="109056" muted="0" steps="16" name="" type="1">
          <note key="67" pos="192" pan="0" len="24" vol="100" />
          <note key="67" pos="576" pan="0" len="24" vol="100" />
          <note key="67" pos="960" pan="0" len="24" vol="100" />
          <note key="67" pos="1344" pan="0" len="24" vol="100" />
        </pattern>
        <pattern pos="110592" muted="0" steps="16" name="" type="1">
          <note key="58" pos="192" pan="0" len="24" vol="100" />
          <note key="58" pos="576" pan="0" len="24" vol="100" />
          <note key="58" pos="960" pan="0" len="24" vol="100" />
          <note key="58" pos="1344" pan="0" len="24" vol="100" />
        </pattern>
        <pattern pos="112128" muted="0" steps="16" name="" type="1">
          <note key="58" pos="192" pan="0" len="24" vol="100" />
          <note key="58" pos="576" pan="0" len="24" vol="100" />
          <note key="58" pos="960" pan="0" len="24" vol="100" />
          <note key="58" pos="1344" pan="0" len="24" vol="100" />
        </pattern>
        <pattern pos="116736" muted="0" steps="16" name="" type="1">
          <note key="60" pos="144" pan="0" len="24" vol="100" />
          <note key="60" pos="336" pan="0" len="24" vol="100" />
          <note key="60" pos="528" pan="0" len="24" vol="100" />
          <note key="60" pos="720" pan="0" len="24" vol="100" />
          <note key="60" pos="912" pan="0" len="24" vol="100" />
          <note key="60" pos="1104" pan="0" len="24" vol="100" />
          <note key="60" pos="1296" pan="0" len="24" vol="100" />
          <note key="60" pos="1488" pan="0" len="24" vol="100" />
        </pattern>
        <pattern pos="118272" muted="0" steps="16" name="" type="1">
          <note key="60" pos="144" pan="0" len="24" vol="100" />
          <note key="60" pos="336" pan="0" len="24" vol="100" />
          <note key="60" pos="528" pan="0" len="24" vol="100" />
          <note key="60" pos="720" pan="0" len="24" vol="100" />
          <note key="60" pos="912" pan="0" len="24" vol="100" />
          <note key="60" pos="1104" pan="0" len="24" vol="100" />
          <note key="60" pos="1296" pan="0" len="24" vol="100" />
          <note key="60" pos="1488" pan="0" len="24" vol="100" />
        </pattern>
        <pattern pos="121344" muted="0" steps="16" name="" type="1">
          <note key="60" pos="1488" pan="0" len="24" vol="100" />
        </pattern>
        <pattern pos="122880" muted="0" steps="16" name="" type="1">
          <note key="60" pos="192" pan="0" len="24" vol="100" />
          <note key="60" pos="576" pan="0" len="24" vol="100" />
          <note key="60" pos="960" pan="0" len="24" vol="100" />
          <note key="60" pos="1344" pan="0" len="24" vol="100" />
        </pattern>
        <pattern pos="124416" muted="0" steps="16" name="" type="1">
          <note key="60" pos="192" pan="0" len="24" vol="100" />
          <note key="60" pos="576" pan="0" len="24" vol="100" />
          <note key="60" pos="960" pan="0" len="24" vol="100" />
          <note key="60" pos="1344" pan="0" len="24" vol="100" />
        </pattern>
        <pattern pos="125952" muted="0" steps="16" name="" type="1">
          <note key="60" pos="192" pan="0" len="24" vol="100" />
          <note key="60" pos="576" pan="0" len="24" vol="100" />
          <note key="60" pos="960" pan="0" len="24" vol="100" />
          <note key="60" pos="1344" pan="0" len="24" vol="100" />
        </pattern>
        <pattern pos="127488" muted="0" steps="16" name="" type="1">
          <note key="60" pos="192" pan="0" len="24" vol="100" />
          <note key="60" pos="576" pan="0" len="24" vol="100" />
          <note key="60" pos="960" pan="0" len="24" vol="100" />
          <note key="60" pos="1344" pan="0" len="24" vol="100" />
        </pattern>
        <pattern pos="129024" muted="0" steps="16" name="" type="1">
          <note key="60" pos="192" pan="0" len="24" vol="100" />
          <note key="60" pos="576" pan="0" len="24" vol="100" />
          <note key="60" pos="960" pan="0" len="24" vol="100" />
          <note key="58" pos="1344" pan="0" len="24" vol="100" />
        </pattern>
        <pattern pos="130560" muted="0" steps="16" name="" type="1">
          <note key="60" pos="192" pan="0" len="24" vol="100" />
          <note key="60" pos="576" pan="0" len="24" vol="100" />
          <note key="60" pos="960" pan="0" len="24" vol="100" />
          <note key="58" pos="1344" pan="0" len="24" vol="100" />
        </pattern>
        <pattern pos="132096" muted="0" steps="16" name="" type="1">
          <note key="60" pos="192" pan="0" len="24" vol="100" />
          <note key="60" pos="576" pan="0" len="24" vol="100" />
          <note key="60" pos="960" pan="0" len="24" vol="100" />
          <note key="58" pos="1344" pan="0" len="24" vol="100" />
        </pattern>
      </track>
      <track solo="0" name="35 (Ch6)" type="0" muted="0">
        <instrumenttrack usemasterpitch="1" pitch="0.0" basenote="57" pan="0" pitchrange="12" vol="30">
          <eldata />
          <instrument name="tripleoscillator" />
        </instrumenttrack>
        <pattern pos="215040" muted="0" steps="16" name="" type="1">
          <note key="66" pos="144" pan="0" len="24" vol="100" />
          <note key="66" pos="264" pan="0" len="24" vol="100" />
          <note key="66" pos="504" pan="0" len="24" vol="34" />
          <note key="66" pos="528" pan="0" len="24" vol="100" />
          <note key="66" pos="912" pan="0" len="24" vol="100" />
          <note key="66" pos="1032" pan="0" len="24" vol="100" />
          <note key="66" pos="1272" pan="0" len="24" vol="34" />
          <note key="66" pos="1296" pan="0" len="24" vol="100" />
        </pattern>
        <pattern pos="59904" muted="0" steps="16" name="" type="1">
          <note key="60" pos="216" pan="0" len="24" vol="100" />
          <note key="60" pos="600" pan="0" len="24" vol="100" />
          <note key="63" pos="984" pan="0" len="24" vol="100" />
          <note key="65" pos="1368" pan="0" len="24" vol="100" />
        </pattern>
        <pattern pos="61440" muted="0" steps="16" name="" type="1">
          <note key="60" pos="216" pan="0" len="24" vol="100" />
          <note key="60" pos="600" pan="0" len="24" vol="100" />
          <note key="63" pos="984" pan="0" len="24" vol="100" />
          <note key="65" pos="1368" pan="0" len="24" vol="100" />
        </pattern>
        <pattern pos="62976" muted="0" steps="16" name="" type="1">
          <note key="60" pos="216" pan="0" len="24" vol="100" />
          <note key="60" pos="600" pan="0" len="24" vol="100" />
          <note key="63" pos="984" pan="0" len="24" vol="100" />
          <note key="65" pos="1368" pan="0" len="24" vol="100" />
        </pattern>
        <pattern pos="64512" muted="0" steps="16" name="" type="1">
          <note key="60" pos="216" pan="0" len="24" vol="100" />
          <note key="60" pos="600" pan="0" len="24" vol="100" />
          <note key="60" pos="984" pan="0" len="24" vol="100" />
          <note key="60" pos="1368" pan="0" len="24" vol="100" />
        </pattern>
        <pattern pos="66048" muted="0" steps="16" name="" type="1">
          <note key="60" pos="216" pan="0" len="24" vol="100" />
          <note key="60" pos="600" pan="0" len="24" vol="100" />
          <note key="60" pos="984" pan="0" len="24" vol="100" />
          <note key="60" pos="1368" pan="0" len="24" vol="100" />
        </pattern>
        <pattern pos="67584" muted="0" steps="16" name="" type="1">
          <note key="60" pos="216" pan="0" len="24" vol="100" />
          <note key="60" pos="600" pan="0" len="24" vol="100" />
          <note key="63" pos="984" pan="0" len="24" vol="100" />
          <note key="65" pos="1368" pan="0" len="24" vol="100" />
        </pattern>
        <pattern pos="69120" muted="0" steps="16" name="" type="1">
          <note key="60" pos="216" pan="0" len="24" vol="100" />
          <note key="60" pos="600" pan="0" len="24" vol="100" />
          <note key="63" pos="984" pan="0" len="24" vol="100" />
          <note key="65" pos="1368" pan="0" len="24" vol="100" />
        </pattern>
        <pattern pos="70656" muted="0" steps="16" name="" type="1">
          <note key="60" pos="216" pan="0" len="24" vol="100" />
          <note key="60" pos="600" pan="0" len="24" vol="100" />
          <note key="63" pos="984" pan="0" len="24" vol="100" />
          <note key="65" pos="1368" pan="0" len="24" vol="100" />
        </pattern>
        <pattern pos="72192" muted="0" steps="16" name="" type="1">
          <note key="60" pos="216" pan="0" len="24" vol="100" />
          <note key="60" pos="600" pan="0" len="24" vol="100" />
          <note key="63" pos="984" pan="0" len="24" vol="100" />
          <note key="65" pos="1368" pan="0" len="24" vol="100" />
        </pattern>
        <pattern pos="73728" muted="0" steps="16" name="" type="1">
          <note key="60" pos="216" pan="0" len="24" vol="100" />
          <note key="60" pos="600" pan="0" len="24" vol="100" />
          <note key="60" pos="984" pan="0" len="24" vol="100" />
          <note key="60" pos="1368" pan="0" len="24" vol="100" />
        </pattern>
        <pattern pos="75264" muted="0" steps="16" name="" type="1">
          <note key="60" pos="216" pan="0" len="24" vol="100" />
          <note key="60" pos="600" pan="0" len="24" vol="100" />
          <note key="60" pos="984" pan="0" len="24" vol="100" />
          <note key="60" pos="1368" pan="0" len="24" vol="100" />
        </pattern>
        <pattern pos="198144" muted="0" steps="16" name="" type="1">
          <note key="64" pos="72" pan="0" len="12" vol="100" />
          <note key="64" pos="132" pan="0" len="12" vol="100" />
          <note key="64" pos="252" pan="0" len="12" vol="34" />
          <note key="64" pos="264" pan="0" len="12" vol="100" />
          <note key="64" pos="456" pan="0" len="12" vol="100" />
          <note key="64" pos="516" pan="0" len="12" vol="100" />
          <note key="64" pos="636" pan="0" len="12" vol="34" />
          <note key="64" pos="648" pan="0" len="12" vol="100" />
          <note key="64" pos="840" pan="0" len="12" vol="100" />
          <note key="64" pos="900" pan="0" len="12" vol="100" />
          <note key="64" pos="1020" pan="0" len="12" vol="34" />
          <note key="64" pos="1032" pan="0" len="12" vol="100" />
          <note key="64" pos="1224" pan="0" len="12" vol="100" />
          <note key="64" pos="1284" pan="0" len="12" vol="100" />
          <note key="64" pos="1404" pan="0" len="12" vol="34" />
          <note key="64" pos="1416" pan="0" len="12" vol="100" />
        </pattern>
        <pattern pos="199680" muted="0" steps="16" name="" type="1">
          <note key="64" pos="72" pan="0" len="12" vol="100" />
          <note key="64" pos="132" pan="0" len="12" vol="100" />
          <note key="64" pos="252" pan="0" len="12" vol="34" />
          <note key="64" pos="264" pan="0" len="12" vol="100" />
          <note key="64" pos="456" pan="0" len="12" vol="100" />
          <note key="64" pos="516" pan="0" len="12" vol="100" />
          <note key="64" pos="636" pan="0" len="12" vol="34" />
          <note key="64" pos="648" pan="0" len="12" vol="100" />
          <note key="64" pos="840" pan="0" len="12" vol="100" />
          <note key="64" pos="900" pan="0" len="12" vol="100" />
          <note key="64" pos="1020" pan="0" len="12" vol="34" />
          <note key="64" pos="1032" pan="0" len="12" vol="100" />
          <note key="64" pos="1224" pan="0" len="12" vol="100" />
          <note key="64" pos="1284" pan="0" len="12" vol="100" />
          <note key="64" pos="1404" pan="0" len="12" vol="34" />
          <note key="64" pos="1416" pan="0" len="12" vol="100" />
        </pattern>
        <pattern pos="201216" muted="0" steps="16" name="" type="1">
          <note key="64" pos="144" pan="0" len="24" vol="100" />
          <note key="64" pos="264" pan="0" len="24" vol="100" />
          <note key="64" pos="504" pan="0" len="24" vol="34" />
          <note key="64" pos="528" pan="0" len="24" vol="100" />
          <note key="64" pos="912" pan="0" len="24" vol="100" />
          <note key="64" pos="1032" pan="0" len="24" vol="100" />
          <note key="64" pos="1272" pan="0" len="24" vol="34" />
          <note key="64" pos="1296" pan="0" len="24" vol="100" />
        </pattern>
        <pattern pos="202752" muted="0" steps="16" name="" type="1">
          <note key="64" pos="144" pan="0" len="24" vol="100" />
          <note key="64" pos="264" pan="0" len="24" vol="100" />
          <note key="64" pos="504" pan="0" len="24" vol="34" />
          <note key="64" pos="528" pan="0" len="24" vol="100" />
          <note key="64" pos="912" pan="0" len="24" vol="100" />
          <note key="64" pos="1032" pan="0" len="24" vol="100" />
          <note key="64" pos="1272" pan="0" len="24" vol="34" />
          <note key="62" pos="1296" pan="0" len="24" vol="100" />
        </pattern>
        <pattern pos="204288" muted="0" steps="16" name="" type="1">
          <note key="57" pos="144" pan="0" len="24" vol="100" />
          <note key="57" pos="264" pan="0" len="24" vol="100" />
          <note key="60" pos="504" pan="0" len="24" vol="34" />
          <note key="60" pos="528" pan="0" len="24" vol="100" />
          <note key="64" pos="912" pan="0" len="24" vol="100" />
          <note key="64" pos="1032" pan="0" len="24" vol="100" />
          <note key="64" pos="1272" pan="0" len="24" vol="34" />
          <note key="64" pos="1296" pan="0" len="24" vol="100" />
        </pattern>
        <pattern pos="205824" muted="0" steps="16" name="" type="1">
          <note key="57" pos="144" pan="0" len="24" vol="100" />
          <note key="57" pos="264" pan="0" len="24" vol="100" />
          <note key="60" pos="504" pan="0" len="24" vol="34" />
          <note key="60" pos="528" pan="0" len="24" vol="100" />
          <note key="64" pos="912" pan="0" len="24" vol="100" />
          <note key="64" pos="1032" pan="0" len="24" vol="100" />
          <note key="64" pos="1272" pan="0" len="24" vol="34" />
          <note key="64" pos="1296" pan="0" len="24" vol="100" />
        </pattern>
        <pattern pos="207360" muted="0" steps="16" name="" type="1">
          <note key="64" pos="144" pan="0" len="24" vol="100" />
          <note key="64" pos="264" pan="0" len="24" vol="100" />
          <note key="64" pos="504" pan="0" len="24" vol="34" />
          <note key="64" pos="528" pan="0" len="24" vol="100" />
          <note key="64" pos="912" pan="0" len="24" vol="100" />
          <note key="64" pos="1032" pan="0" len="24" vol="100" />
          <note key="64" pos="1272" pan="0" len="24" vol="34" />
          <note key="64" pos="1296" pan="0" len="24" vol="100" />
        </pattern>
        <pattern pos="208896" muted="0" steps="16" name="" type="1">
          <note key="64" pos="144" pan="0" len="24" vol="100" />
          <note key="64" pos="264" pan="0" len="24" vol="100" />
          <note key="64" pos="504" pan="0" len="24" vol="34" />
          <note key="64" pos="528" pan="0" len="24" vol="100" />
          <note key="64" pos="912" pan="0" len="24" vol="100" />
          <note key="64" pos="1032" pan="0" len="24" vol="100" />
          <note key="64" pos="1272" pan="0" len="24" vol="34" />
          <note key="62" pos="1296" pan="0" len="24" vol="100" />
        </pattern>
        <pattern pos="210432" muted="0" steps="16" name="" type="1">
          <note key="57" pos="144" pan="0" len="24" vol="100" />
          <note key="57" pos="264" pan="0" len="24" vol="100" />
          <note key="60" pos="504" pan="0" len="24" vol="34" />
          <note key="60" pos="528" pan="0" len="24" vol="100" />
          <note key="64" pos="912" pan="0" len="24" vol="100" />
          <note key="64" pos="1032" pan="0" len="24" vol="100" />
          <note key="64" pos="1272" pan="0" len="24" vol="34" />
          <note key="64" pos="1296" pan="0" len="24" vol="100" />
        </pattern>
        <pattern pos="211968" muted="0" steps="16" name="" type="1">
          <note key="57" pos="144" pan="0" len="24" vol="100" />
          <note key="57" pos="264" pan="0" len="24" vol="100" />
          <note key="60" pos="504" pan="0" len="24" vol="34" />
          <note key="60" pos="528" pan="0" len="24" vol="100" />
          <note key="64" pos="912" pan="0" len="24" vol="100" />
          <note key="64" pos="1032" pan="0" len="24" vol="100" />
          <note key="64" pos="1272" pan="0" len="24" vol="34" />
          <note key="64" pos="1296" pan="0" len="24" vol="100" />
        </pattern>
        <pattern pos="213504" muted="0" steps="16" name="" type="1">
          <note key="66" pos="72" pan="0" len="12" vol="100" />
          <note key="66" pos="132" pan="0" len="12" vol="100" />
          <note key="66" pos="252" pan="0" len="12" vol="34" />
          <note key="66" pos="264" pan="0" len="12" vol="100" />
          <note key="66" pos="456" pan="0" len="12" vol="100" />
          <note key="66" pos="516" pan="0" len="12" vol="100" />
          <note key="66" pos="636" pan="0" len="12" vol="34" />
          <note key="66" pos="648" pan="0" len="12" vol="100" />
          <note key="66" pos="840" pan="0" len="12" vol="100" />
          <note key="66" pos="900" pan="0" len="12" vol="100" />
          <note key="66" pos="1020" pan="0" len="12" vol="34" />
          <note key="66" pos="1032" pan="0" len="12" vol="100" />
          <note key="66" pos="1224" pan="0" len="12" vol="100" />
          <note key="66" pos="1284" pan="0" len="12" vol="100" />
          <note key="66" pos="1404" pan="0" len="12" vol="34" />
          <note key="66" pos="1416" pan="0" len="12" vol="100" />
        </pattern>
      </track>
      <track solo="0" name="35 (Ch8)" type="0" muted="0">
        <instrumenttrack usemasterpitch="1" pitch="0.0" basenote="57" pan="0" pitchrange="12" vol="30">
          <eldata />
          <instrument name="tripleoscillator" />
        </instrumenttrack>
        <pattern pos="256896" muted="0" steps="16" name="" type="1">
          <note key="60" pos="144" pan="0" len="24" vol="100" />
          <note key="60" pos="240" pan="0" len="48" vol="100" />
          <note key="60" pos="528" pan="0" len="24" vol="100" />
          <note key="60" pos="624" pan="0" len="48" vol="100" />
          <note key="60" pos="912" pan="0" len="24" vol="100" />
          <note key="60" pos="1008" pan="0" len="48" vol="100" />
          <note key="60" pos="1296" pan="0" len="24" vol="100" />
        </pattern>
        <pattern pos="196608" muted="0" steps="16" name="" type="1">
          <note key="64" pos="840" pan="0" len="12" vol="11" />
          <note key="64" pos="900" pan="0" len="12" vol="19" />
          <note key="64" pos="1020" pan="0" len="12" vol="12" />
          <note key="64" pos="1032" pan="0" len="12" vol="36" />
          <note key="64" pos="1224" pan="0" len="12" vol="61" />
          <note key="64" pos="1284" pan="0" len="12" vol="69" />
          <note key="64" pos="1404" pan="0" len="12" vol="30" />
          <note key="64" pos="1416" pan="0" len="12" vol="86" />
        </pattern>
        <pattern pos="227520" muted="0" steps="16" name="" type="1">
          <note key="60" pos="144" pan="0" len="24" vol="100" />
          <note key="62" pos="336" pan="0" len="24" vol="100" />
          <note key="63" pos="528" pan="0" len="24" vol="100" />
          <note key="65" pos="720" pan="0" len="24" vol="100" />
          <note key="60" pos="912" pan="0" len="24" vol="100" />
          <note key="62" pos="1104" pan="0" len="24" vol="100" />
          <note key="63" pos="1296" pan="0" len="24" vol="100" />
          <note key="65" pos="1488" pan="0" len="24" vol="100" />
        </pattern>
        <pattern pos="229056" muted="0" steps="16" name="" type="1">
          <note key="60" pos="144" pan="0" len="24" vol="100" />
          <note key="62" pos="336" pan="0" len="24" vol="100" />
          <note key="63" pos="528" pan="0" len="24" vol="100" />
          <note key="65" pos="720" pan="0" len="24" vol="100" />
          <note key="60" pos="912" pan="0" len="24" vol="100" />
          <note key="62" pos="1104" pan="0" len="24" vol="100" />
          <note key="63" pos="1296" pan="0" len="24" vol="100" />
          <note key="65" pos="1488" pan="0" len="24" vol="100" />
        </pattern>
        <pattern pos="241536" muted="0" steps="16" name="" type="1">
          <note key="60" pos="144" pan="0" len="24" vol="100" />
          <note key="60" pos="528" pan="0" len="24" vol="100" />
          <note key="60" pos="912" pan="0" len="24" vol="100" />
          <note key="60" pos="1296" pan="0" len="24" vol="100" />
        </pattern>
        <pattern pos="243072" muted="0" steps="16" name="" type="1">
          <note key="60" pos="144" pan="0" len="24" vol="100" />
          <note key="60" pos="528" pan="0" len="24" vol="100" />
          <note key="60" pos="912" pan="0" len="24" vol="100" />
          <note key="60" pos="1296" pan="0" len="24" vol="100" />
        </pattern>
        <pattern pos="244608" muted="0" steps="16" name="" type="1">
          <note key="60" pos="144" pan="0" len="24" vol="100" />
          <note key="60" pos="240" pan="0" len="48" vol="100" />
          <note key="60" pos="528" pan="0" len="24" vol="100" />
          <note key="60" pos="624" pan="0" len="48" vol="100" />
          <note key="60" pos="912" pan="0" len="24" vol="100" />
          <note key="60" pos="1008" pan="0" len="48" vol="100" />
          <note key="60" pos="1296" pan="0" len="24" vol="100" />
          <note key="60" pos="1392" pan="0" len="48" vol="100" />
        </pattern>
        <pattern pos="246144" muted="0" steps="16" name="" type="1">
          <note key="60" pos="144" pan="0" len="24" vol="100" />
          <note key="60" pos="240" pan="0" len="48" vol="100" />
          <note key="60" pos="528" pan="0" len="24" vol="100" />
          <note key="60" pos="624" pan="0" len="48" vol="100" />
          <note key="60" pos="912" pan="0" len="24" vol="100" />
          <note key="60" pos="1008" pan="0" len="48" vol="100" />
          <note key="60" pos="1296" pan="0" len="24" vol="100" />
          <note key="60" pos="1392" pan="0" len="48" vol="100" />
        </pattern>
        <pattern pos="249216" muted="0" steps="16" name="" type="1">
          <note key="60" pos="144" pan="0" len="24" vol="100" />
          <note key="60" pos="240" pan="0" len="48" vol="100" />
          <note key="60" pos="528" pan="0" len="24" vol="100" />
          <note key="60" pos="624" pan="0" len="48" vol="100" />
          <note key="60" pos="912" pan="0" len="24" vol="100" />
          <note key="60" pos="1008" pan="0" len="48" vol="100" />
          <note key="60" pos="1296" pan="0" len="24" vol="100" />
          <note key="60" pos="1392" pan="0" len="48" vol="100" />
        </pattern>
        <pattern pos="250752" muted="0" steps="16" name="" type="1">
          <note key="60" pos="144" pan="0" len="24" vol="100" />
          <note key="60" pos="240" pan="0" len="48" vol="100" />
          <note key="60" pos="528" pan="0" len="24" vol="100" />
          <note key="60" pos="624" pan="0" len="48" vol="100" />
          <note key="60" pos="912" pan="0" len="24" vol="100" />
          <note key="60" pos="1008" pan="0" len="48" vol="100" />
          <note key="60" pos="1296" pan="0" len="24" vol="100" />
          <note key="60" pos="1392" pan="0" len="48" vol="100" />
        </pattern>
        <pattern pos="252288" muted="0" steps="16" name="" type="1">
          <note key="60" pos="144" pan="0" len="24" vol="100" />
          <note key="60" pos="240" pan="0" len="48" vol="100" />
          <note key="60" pos="528" pan="0" len="24" vol="100" />
          <note key="60" pos="624" pan="0" len="48" vol="100" />
          <note key="60" pos="912" pan="0" len="24" vol="100" />
          <note key="60" pos="1008" pan="0" len="48" vol="100" />
          <note key="60" pos="1296" pan="0" len="24" vol="100" />
          <note key="60" pos="1392" pan="0" len="48" vol="100" />
        </pattern>
        <pattern pos="253824" muted="0" steps="16" name="" type="1">
          <note key="60" pos="144" pan="0" len="24" vol="100" />
          <note key="60" pos="240" pan="0" len="48" vol="100" />
          <note key="60" pos="528" pan="0" len="24" vol="100" />
          <note key="60" pos="624" pan="0" len="48" vol="100" />
          <note key="60" pos="912" pan="0" len="24" vol="100" />
          <note key="60" pos="1008" pan="0" len="48" vol="100" />
          <note key="60" pos="1296" pan="0" len="24" vol="100" />
          <note key="60" pos="1392" pan="0" len="48" vol="100" />
        </pattern>
        <pattern pos="255360" muted="0" steps="16" name="" type="1">
          <note key="60" pos="144" pan="0" len="24" vol="100" />
          <note key="60" pos="240" pan="0" len="48" vol="100" />
          <note key="60" pos="528" pan="0" len="24" vol="100" />
          <note key="60" pos="624" pan="0" len="48" vol="100" />
          <note key="60" pos="912" pan="0" len="24" vol="100" />
          <note key="60" pos="1008" pan="0" len="48" vol="100" />
          <note key="60" pos="1296" pan="0" len="24" vol="100" />
          <note key="60" pos="1392" pan="0" len="48" vol="100" />
        </pattern>
      </track>
      <track solo="0" name="35 (Ch9)" type="0" muted="0">
        <instrumenttrack usemasterpitch="1" pitch="0.0" basenote="57" pan="0" pitchrange="12" vol="30">
          <eldata />
          <instrument name="tripleoscillator" />
        </instrumenttrack>
        <pattern pos="235200" muted="0" steps="16" name="" type="1">
          <note key="67" pos="144" pan="0" len="24" vol="100" />
          <note key="65" pos="336" pan="0" len="24" vol="100" />
          <note key="63" pos="528" pan="0" len="24" vol="100" />
          <note key="65" pos="720" pan="0" len="24" vol="100" />
          <note key="67" pos="912" pan="0" len="24" vol="100" />
          <note key="65" pos="1104" pan="0" len="24" vol="100" />
          <note key="63" pos="1296" pan="0" len="24" vol="100" />
          <note key="65" pos="1488" pan="0" len="24" vol="100" />
        </pattern>
        <pattern pos="224448" muted="0" steps="16" name="" type="1">
          <note key="67" pos="144" pan="0" len="24" vol="100" />
          <note key="65" pos="336" pan="0" len="24" vol="100" />
          <note key="63" pos="528" pan="0" len="24" vol="100" />
          <note key="65" pos="720" pan="0" len="24" vol="100" />
          <note key="67" pos="912" pan="0" len="24" vol="100" />
          <note key="65" pos="1104" pan="0" len="24" vol="100" />
          <note key="63" pos="1296" pan="0" len="24" vol="100" />
          <note key="65" pos="1488" pan="0" len="24" vol="100" />
        </pattern>
        <pattern pos="225984" muted="0" steps="16" name="" type="1">
          <note key="67" pos="144" pan="0" len="24" vol="100" />
          <note key="65" pos="336" pan="0" len="24" vol="100" />
          <note key="63" pos="528" pan="0" len="24" vol="100" />
          <note key="65" pos="720" pan="0" len="24" vol="100" />
          <note key="67" pos="912" pan="0" len="24" vol="100" />
          <note key="65" pos="1104" pan="0" len="24" vol="100" />
          <note key="63" pos="1296" pan="0" len="24" vol="100" />
          <note key="65" pos="1488" pan="0" len="24" vol="100" />
        </pattern>
        <pattern pos="230592" muted="0" steps="16" name="" type="1">
          <note key="67" pos="144" pan="0" len="24" vol="100" />
          <note key="65" pos="336" pan="0" len="24" vol="100" />
          <note key="63" pos="528" pan="0" len="24" vol="100" />
          <note key="65" pos="720" pan="0" len="24" vol="100" />
          <note key="60" pos="912" pan="0" len="24" vol="100" />
          <note key="62" pos="1104" pan="0" len="24" vol="100" />
          <note key="63" pos="1296" pan="0" len="24" vol="100" />
          <note key="65" pos="1488" pan="0" len="24" vol="100" />
        </pattern>
        <pattern pos="232128" muted="0" steps="16" name="" type="1">
          <note key="67" pos="144" pan="0" len="24" vol="100" />
          <note key="65" pos="336" pan="0" len="24" vol="100" />
          <note key="63" pos="528" pan="0" len="24" vol="100" />
          <note key="65" pos="720" pan="0" len="24" vol="100" />
          <note key="60" pos="912" pan="0" len="24" vol="100" />
          <note key="62" pos="1104" pan="0" len="24" vol="100" />
          <note key="67" pos="1296" pan="0" len="24" vol="100" />
          <note key="67" pos="1488" pan="0" len="24" vol="100" />
        </pattern>
        <pattern pos="233664" muted="0" steps="16" name="" type="1">
          <note key="67" pos="144" pan="0" len="24" vol="100" />
          <note key="65" pos="336" pan="0" len="24" vol="100" />
          <note key="63" pos="528" pan="0" len="24" vol="100" />
          <note key="65" pos="720" pan="0" len="24" vol="100" />
          <note key="67" pos="912" pan="0" len="24" vol="100" />
          <note key="65" pos="1104" pan="0" len="24" vol="100" />
          <note key="63" pos="1296" pan="0" len="24" vol="100" />
          <note key="65" pos="1488" pan="0" len="24" vol="100" />
        </pattern>
      </track>
      <track solo="0" name="36 (Ch2)" type="0" muted="0">
        <instrumenttrack usemasterpitch="1" pitch="0.0" basenote="57" pan="0" pitchrange="12" vol="30">
          <eldata />
          <instrument name="tripleoscillator" />
        </instrumenttrack>
        <pattern pos="267648" muted="0" steps="16" name="" type="1">
          <note key="63" pos="180" pan="0" len="12" vol="100" />
          <note key="63" pos="372" pan="0" len="12" vol="100" />
          <note key="65" pos="564" pan="0" len="12" vol="100" />
          <note key="65" pos="756" pan="0" len="12" vol="100" />
          <note key="63" pos="948" pan="0" len="12" vol="100" />
          <note key="63" pos="1140" pan="0" len="12" vol="100" />
          <note key="65" pos="1332" pan="0" len="12" vol="100" />
          <note key="65" pos="1524" pan="0" len="12" vol="100" />
        </pattern>
        <pattern pos="259968" muted="0" steps="16" name="" type="1">
          <note key="65" pos="180" pan="0" len="12" vol="100" />
          <note key="65" pos="372" pan="0" len="12" vol="100" />
          <note key="65" pos="564" pan="0" len="12" vol="100" />
          <note key="65" pos="756" pan="0" len="12" vol="100" />
        </pattern>
        <pattern pos="260736" muted="0" steps="16" name="" type="1">
          <note key="65" pos="180" pan="0" len="12" vol="100" />
          <note key="65" pos="372" pan="0" len="12" vol="100" />
          <note key="65" pos="564" pan="0" len="12" vol="100" />
          <note key="65" pos="756" pan="0" len="12" vol="100" />
        </pattern>
        <pattern pos="261504" muted="0" steps="16" name="" type="1">
          <note key="56" pos="180" pan="0" len="12" vol="100" />
          <note key="56" pos="372" pan="0" len="12" vol="100" />
          <note key="56" pos="564" pan="0" len="12" vol="100" />
          <note key="56" pos="756" pan="0" len="12" vol="100" />
        </pattern>
        <pattern pos="262272" muted="0" steps="16" name="" type="1">
          <note key="56" pos="180" pan="0" len="12" vol="100" />
          <note key="56" pos="372" pan="0" len="12" vol="100" />
          <note key="56" pos="564" pan="0" len="12" vol="100" />
          <note key="56" pos="756" pan="0" len="12" vol="100" />
        </pattern>
        <pattern pos="263040" muted="0" steps="16" name="" type="1">
          <note key="55" pos="180" pan="0" len="12" vol="100" />
          <note key="55" pos="372" pan="0" len="12" vol="100" />
          <note key="55" pos="564" pan="0" len="12" vol="100" />
          <note key="55" pos="756" pan="0" len="12" vol="100" />
        </pattern>
        <pattern pos="263808" muted="0" steps="16" name="" type="1">
          <note key="55" pos="180" pan="0" len="12" vol="100" />
          <note key="55" pos="372" pan="0" len="12" vol="100" />
          <note key="55" pos="564" pan="0" len="12" vol="100" />
          <note key="55" pos="756" pan="0" len="12" vol="100" />
        </pattern>
        <pattern pos="264576" muted="0" steps="16" name="" type="1">
          <note key="65" pos="180" pan="0" len="12" vol="100" />
          <note key="65" pos="372" pan="0" len="12" vol="100" />
          <note key="65" pos="564" pan="0" len="12" vol="100" />
          <note key="65" pos="756" pan="0" len="12" vol="100" />
        </pattern>
        <pattern pos="265344" muted="0" steps="16" name="" type="1">
          <note key="65" pos="180" pan="0" len="12" vol="100" />
          <note key="65" pos="372" pan="0" len="12" vol="100" />
          <note key="65" pos="564" pan="0" len="12" vol="100" />
          <note key="65" pos="756" pan="0" len="12" vol="100" />
        </pattern>
        <pattern pos="266112" muted="0" steps="16" name="" type="1">
          <note key="65" pos="180" pan="0" len="12" vol="100" />
          <note key="65" pos="372" pan="0" len="12" vol="100" />
          <note key="60" pos="564" pan="0" len="12" vol="100" />
          <note key="60" pos="756" pan="0" len="12" vol="100" />
          <note key="65" pos="948" pan="0" len="12" vol="100" />
          <note key="65" pos="1140" pan="0" len="12" vol="100" />
          <note key="60" pos="1332" pan="0" len="12" vol="100" />
          <note key="60" pos="1524" pan="0" len="12" vol="100" />
        </pattern>
      </track>
      <track solo="0" name="36 (Ch3)" type="0" muted="0">
        <instrumenttrack usemasterpitch="1" pitch="0.0" basenote="57" pan="0" pitchrange="12" vol="30">
          <eldata />
          <instrument name="tripleoscillator" />
        </instrumenttrack>
        <pattern pos="133632" muted="0" steps="16" name="" type="1">
          <note key="60" pos="72" pan="0" len="24" vol="100" />
          <note key="60" pos="456" pan="0" len="24" vol="100" />
          <note key="63" pos="840" pan="0" len="24" vol="100" />
          <note key="58" pos="1224" pan="0" len="24" vol="100" />
        </pattern>
        <pattern pos="6912" muted="0" steps="16" name="" type="1">
          <note key="60" pos="180" pan="0" len="12" vol="100" />
          <note key="60" pos="372" pan="0" len="12" vol="100" />
          <note key="60" pos="564" pan="0" len="12" vol="100" />
          <note key="60" pos="756" pan="0" len="12" vol="100" />
        </pattern>
        <pattern pos="7680" muted="0" steps="16" name="" type="1">
          <note key="60" pos="180" pan="0" len="12" vol="100" />
          <note key="60" pos="372" pan="0" len="12" vol="100" />
          <note key="60" pos="564" pan="0" len="12" vol="100" />
          <note key="60" pos="756" pan="0" len="12" vol="100" />
        </pattern>
        <pattern pos="8448" muted="0" steps="16" name="" type="1">
          <note key="60" pos="180" pan="0" len="12" vol="100" />
          <note key="60" pos="372" pan="0" len="12" vol="100" />
          <note key="55" pos="564" pan="0" len="12" vol="100" />
          <note key="55" pos="756" pan="0" len="12" vol="100" />
        </pattern>
        <pattern pos="9216" muted="0" steps="16" name="" type="1">
          <note key="60" pos="180" pan="0" len="12" vol="100" />
          <note key="60" pos="372" pan="0" len="12" vol="100" />
          <note key="55" pos="564" pan="0" len="12" vol="100" />
          <note key="55" pos="756" pan="0" len="12" vol="100" />
        </pattern>
        <pattern pos="9984" muted="0" steps="16" name="" type="1">
          <note key="58" pos="180" pan="0" len="12" vol="100" />
          <note key="60" pos="372" pan="0" len="12" vol="100" />
          <note key="60" pos="564" pan="0" len="12" vol="100" />
          <note key="60" pos="756" pan="0" len="12" vol="100" />
        </pattern>
        <pattern pos="10752" muted="0" steps="16" name="" type="1">
          <note key="58" pos="180" pan="0" len="12" vol="100" />
          <note key="60" pos="372" pan="0" len="12" vol="100" />
          <note key="60" pos="564" pan="0" len="12" vol="100" />
        </pattern>
        <pattern pos="11520" muted="0" steps="16" name="" type="1">
          <note key="60" pos="180" pan="0" len="12" vol="100" />
          <note key="60" pos="372" pan="0" len="12" vol="100" />
          <note key="55" pos="564" pan="0" len="12" vol="100" />
          <note key="55" pos="756" pan="0" len="12" vol="100" />
          <note key="60" pos="948" pan="0" len="12" vol="100" />
          <note key="60" pos="1140" pan="0" len="12" vol="100" />
          <note key="55" pos="1332" pan="0" len="12" vol="100" />
          <note key="55" pos="1524" pan="0" len="12" vol="100" />
        </pattern>
        <pattern pos="13056" muted="0" steps="16" name="" type="1">
          <note key="58" pos="180" pan="0" len="12" vol="100" />
          <note key="60" pos="372" pan="0" len="12" vol="100" />
          <note key="60" pos="564" pan="0" len="12" vol="100" />
          <note key="60" pos="756" pan="0" len="12" vol="100" />
          <note key="58" pos="948" pan="0" len="12" vol="100" />
          <note key="60" pos="1140" pan="0" len="12" vol="100" />
          <note key="60" pos="1332" pan="0" len="12" vol="100" />
          <note key="60" pos="1524" pan="0" len="12" vol="100" />
        </pattern>
        <pattern pos="14592" muted="0" steps="16" name="" type="1">
          <note key="60" pos="180" pan="0" len="12" vol="100" />
          <note key="60" pos="372" pan="0" len="12" vol="100" />
          <note key="55" pos="564" pan="0" len="12" vol="100" />
          <note key="55" pos="756" pan="0" len="12" vol="100" />
          <note key="60" pos="948" pan="0" len="12" vol="100" />
          <note key="60" pos="1140" pan="0" len="12" vol="100" />
          <note key="55" pos="1332" pan="0" len="12" vol="100" />
          <note key="55" pos="1524" pan="0" len="12" vol="100" />
        </pattern>
        <pattern pos="16128" muted="0" steps="16" name="" type="1">
          <note key="58" pos="180" pan="0" len="12" vol="100" />
          <note key="60" pos="372" pan="0" len="12" vol="100" />
          <note key="60" pos="564" pan="0" len="12" vol="100" />
          <note key="60" pos="756" pan="0" len="12" vol="100" />
          <note key="58" pos="948" pan="0" len="12" vol="100" />
          <note key="60" pos="1140" pan="0" len="12" vol="100" />
          <note key="60" pos="1332" pan="0" len="12" vol="100" />
          <note key="60" pos="1524" pan="0" len="12" vol="100" />
        </pattern>
        <pattern pos="92160" muted="0" steps="16" name="" type="1">
          <note key="60" pos="1512" pan="0" len="12" vol="17" />
          <note key="60" pos="1524" pan="0" len="12" vol="34" />
        </pattern>
        <pattern pos="93696" muted="0" steps="16" name="" type="1">
          <note key="60" pos="72" pan="0" len="96" vol="100" />
        </pattern>
        <pattern pos="95232" muted="0" steps="16" name="" type="1">
          <note key="60" pos="72" pan="0" len="24" vol="100" />
          <note key="60" pos="456" pan="0" len="24" vol="100" />
          <note key="60" pos="840" pan="0" len="24" vol="100" />
          <note key="60" pos="1224" pan="0" len="24" vol="100" />
        </pattern>
        <pattern pos="96768" muted="0" steps="16" name="" type="1">
          <note key="60" pos="72" pan="0" len="24" vol="100" />
          <note key="60" pos="456" pan="0" len="24" vol="100" />
          <note key="60" pos="840" pan="0" len="24" vol="100" />
          <note key="60" pos="1224" pan="0" len="24" vol="100" />
        </pattern>
        <pattern pos="98304" muted="0" steps="16" name="" type="1">
          <note key="60" pos="72" pan="0" len="24" vol="100" />
          <note key="60" pos="456" pan="0" len="24" vol="100" />
          <note key="60" pos="840" pan="0" len="24" vol="100" />
          <note key="60" pos="1224" pan="0" len="24" vol="100" />
        </pattern>
        <pattern pos="99840" muted="0" steps="16" name="" type="1">
          <note key="60" pos="72" pan="0" len="24" vol="100" />
          <note key="60" pos="456" pan="0" len="24" vol="100" />
          <note key="60" pos="840" pan="0" len="24" vol="100" />
          <note key="60" pos="1224" pan="0" len="24" vol="100" />
        </pattern>
        <pattern pos="101376" muted="0" steps="16" name="" type="1">
          <note key="60" pos="72" pan="0" len="24" vol="100" />
          <note key="60" pos="456" pan="0" len="24" vol="100" />
          <note key="60" pos="840" pan="0" len="24" vol="100" />
          <note key="60" pos="1224" pan="0" len="24" vol="100" />
        </pattern>
        <pattern pos="102912" muted="0" steps="16" name="" type="1">
          <note key="60" pos="72" pan="0" len="24" vol="100" />
          <note key="60" pos="456" pan="0" len="24" vol="100" />
          <note key="60" pos="840" pan="0" len="24" vol="100" />
          <note key="60" pos="1224" pan="0" len="24" vol="100" />
        </pattern>
        <pattern pos="105984" muted="0" steps="16" name="" type="1">
          <note key="62" pos="72" pan="0" len="24" vol="0" />
          <note key="62" pos="456" pan="0" len="24" vol="3" />
          <note key="62" pos="840" pan="0" len="24" vol="17" />
          <note key="62" pos="1224" pan="0" len="24" vol="53" />
        </pattern>
        <pattern pos="107520" muted="0" steps="16" name="" type="1">
          <note key="62" pos="72" pan="0" len="24" vol="100" />
          <note key="62" pos="456" pan="0" len="24" vol="100" />
          <note key="62" pos="840" pan="0" len="24" vol="100" />
          <note key="62" pos="1224" pan="0" len="24" vol="100" />
        </pattern>
        <pattern pos="109056" muted="0" steps="16" name="" type="1">
          <note key="62" pos="72" pan="0" len="24" vol="100" />
          <note key="62" pos="456" pan="0" len="24" vol="100" />
          <note key="62" pos="840" pan="0" len="24" vol="100" />
          <note key="62" pos="1224" pan="0" len="24" vol="100" />
        </pattern>
        <pattern pos="110592" muted="0" steps="16" name="" type="1">
          <note key="65" pos="72" pan="0" len="24" vol="100" />
          <note key="65" pos="456" pan="0" len="24" vol="100" />
          <note key="65" pos="840" pan="0" len="24" vol="100" />
          <note key="65" pos="1224" pan="0" len="24" vol="100" />
        </pattern>
        <pattern pos="112128" muted="0" steps="16" name="" type="1">
          <note key="65" pos="72" pan="0" len="24" vol="100" />
          <note key="65" pos="456" pan="0" len="24" vol="100" />
          <note key="65" pos="840" pan="0" len="24" vol="100" />
          <note key="65" pos="1224" pan="0" len="24" vol="100" />
        </pattern>
        <pattern pos="122880" muted="0" steps="16" name="" type="1">
          <note key="60" pos="72" pan="0" len="24" vol="100" />
          <note key="60" pos="456" pan="0" len="24" vol="100" />
          <note key="60" pos="840" pan="0" len="24" vol="100" />
          <note key="60" pos="1224" pan="0" len="24" vol="100" />
        </pattern>
        <pattern pos="124416" muted="0" steps="16" name="" type="1">
          <note key="60" pos="72" pan="0" len="24" vol="100" />
          <note key="60" pos="456" pan="0" len="24" vol="100" />
          <note key="60" pos="840" pan="0" len="24" vol="100" />
          <note key="60" pos="1224" pan="0" len="24" vol="100" />
        </pattern>
        <pattern pos="125952" muted="0" steps="16" name="" type="1">
          <note key="60" pos="72" pan="0" len="24" vol="100" />
          <note key="60" pos="456" pan="0" len="24" vol="100" />
          <note key="60" pos="840" pan="0" len="24" vol="100" />
          <note key="60" pos="1224" pan="0" len="24" vol="100" />
        </pattern>
        <pattern pos="127488" muted="0" steps="16" name="" type="1">
          <note key="60" pos="72" pan="0" len="24" vol="100" />
          <note key="60" pos="456" pan="0" len="24" vol="100" />
          <note key="60" pos="840" pan="0" len="24" vol="100" />
          <note key="60" pos="1224" pan="0" len="24" vol="100" />
        </pattern>
        <pattern pos="129024" muted="0" steps="16" name="" type="1">
          <note key="60" pos="72" pan="0" len="24" vol="100" />
          <note key="60" pos="456" pan="0" len="24" vol="100" />
          <note key="63" pos="840" pan="0" len="24" vol="100" />
          <note key="58" pos="1224" pan="0" len="24" vol="100" />
        </pattern>
        <pattern pos="130560" muted="0" steps="16" name="" type="1">
          <note key="60" pos="72" pan="0" len="24" vol="100" />
          <note key="60" pos="456" pan="0" len="24" vol="100" />
          <note key="63" pos="840" pan="0" len="24" vol="100" />
          <note key="58" pos="1224" pan="0" len="24" vol="100" />
        </pattern>
        <pattern pos="132096" muted="0" steps="16" name="" type="1">
          <note key="60" pos="72" pan="0" len="24" vol="100" />
          <note key="60" pos="456" pan="0" len="24" vol="100" />
          <note key="63" pos="840" pan="0" len="24" vol="100" />
          <note key="58" pos="1224" pan="0" len="24" vol="100" />
        </pattern>
      </track>
      <track solo="0" name="36 (Ch6)" type="0" muted="0">
        <instrumenttrack usemasterpitch="1" pitch="0.0" basenote="57" pan="0" pitchrange="12" vol="30">
          <eldata />
          <instrument name="tripleoscillator" />
        </instrumenttrack>
        <pattern pos="215040" muted="0" steps="16" name="" type="1">
          <note key="66" pos="216" pan="0" len="24" vol="100" />
          <note key="66" pos="984" pan="0" len="24" vol="100" />
        </pattern>
        <pattern pos="59904" muted="0" steps="16" name="" type="1">
          <note key="60" pos="120" pan="0" len="24" vol="100" />
          <note key="60" pos="504" pan="0" len="24" vol="100" />
          <note key="63" pos="888" pan="0" len="24" vol="100" />
          <note key="65" pos="1272" pan="0" len="24" vol="100" />
        </pattern>
        <pattern pos="61440" muted="0" steps="16" name="" type="1">
          <note key="60" pos="120" pan="0" len="24" vol="100" />
          <note key="60" pos="504" pan="0" len="24" vol="100" />
          <note key="63" pos="888" pan="0" len="24" vol="100" />
          <note key="65" pos="1272" pan="0" len="24" vol="100" />
        </pattern>
        <pattern pos="62976" muted="0" steps="16" name="" type="1">
          <note key="60" pos="120" pan="0" len="24" vol="100" />
          <note key="60" pos="504" pan="0" len="24" vol="100" />
          <note key="63" pos="888" pan="0" len="24" vol="100" />
          <note key="65" pos="1272" pan="0" len="24" vol="100" />
        </pattern>
        <pattern pos="64512" muted="0" steps="16" name="" type="1">
          <note key="63" pos="120" pan="0" len="24" vol="100" />
          <note key="63" pos="504" pan="0" len="24" vol="100" />
          <note key="63" pos="888" pan="0" len="24" vol="100" />
          <note key="63" pos="1272" pan="0" len="24" vol="100" />
        </pattern>
        <pattern pos="66048" muted="0" steps="16" name="" type="1">
          <note key="63" pos="120" pan="0" len="24" vol="100" />
          <note key="63" pos="504" pan="0" len="24" vol="100" />
          <note key="63" pos="888" pan="0" len="24" vol="100" />
          <note key="63" pos="1272" pan="0" len="24" vol="100" />
        </pattern>
        <pattern pos="67584" muted="0" steps="16" name="" type="1">
          <note key="60" pos="120" pan="0" len="24" vol="100" />
          <note key="60" pos="504" pan="0" len="24" vol="100" />
          <note key="63" pos="888" pan="0" len="24" vol="100" />
          <note key="65" pos="1272" pan="0" len="24" vol="100" />
        </pattern>
        <pattern pos="69120" muted="0" steps="16" name="" type="1">
          <note key="60" pos="120" pan="0" len="24" vol="100" />
          <note key="60" pos="504" pan="0" len="24" vol="100" />
          <note key="63" pos="888" pan="0" len="24" vol="100" />
          <note key="65" pos="1272" pan="0" len="24" vol="100" />
        </pattern>
        <pattern pos="70656" muted="0" steps="16" name="" type="1">
          <note key="60" pos="120" pan="0" len="24" vol="100" />
          <note key="60" pos="504" pan="0" len="24" vol="100" />
          <note key="63" pos="888" pan="0" len="24" vol="100" />
          <note key="65" pos="1272" pan="0" len="24" vol="100" />
        </pattern>
        <pattern pos="72192" muted="0" steps="16" name="" type="1">
          <note key="60" pos="120" pan="0" len="24" vol="100" />
          <note key="60" pos="504" pan="0" len="24" vol="100" />
          <note key="63" pos="888" pan="0" len="24" vol="100" />
          <note key="65" pos="1272" pan="0" len="24" vol="100" />
        </pattern>
        <pattern pos="73728" muted="0" steps="16" name="" type="1">
          <note key="63" pos="120" pan="0" len="24" vol="100" />
          <note key="63" pos="504" pan="0" len="24" vol="100" />
          <note key="63" pos="888" pan="0" len="24" vol="100" />
          <note key="63" pos="1272" pan="0" len="24" vol="100" />
        </pattern>
        <pattern pos="75264" muted="0" steps="16" name="" type="1">
          <note key="63" pos="120" pan="0" len="24" vol="100" />
          <note key="63" pos="504" pan="0" len="24" vol="100" />
          <note key="63" pos="888" pan="0" len="24" vol="100" />
          <note key="63" pos="1272" pan="0" len="24" vol="100" />
        </pattern>
        <pattern pos="198144" muted="0" steps="16" name="" type="1">
          <note key="64" pos="108" pan="0" len="12" vol="100" />
          <note key="64" pos="492" pan="0" len="12" vol="100" />
          <note key="64" pos="876" pan="0" len="12" vol="100" />
          <note key="64" pos="1260" pan="0" len="12" vol="100" />
        </pattern>
        <pattern pos="199680" muted="0" steps="16" name="" type="1">
          <note key="64" pos="108" pan="0" len="12" vol="100" />
          <note key="64" pos="492" pan="0" len="12" vol="100" />
          <note key="64" pos="876" pan="0" len="12" vol="100" />
          <note key="64" pos="1260" pan="0" len="12" vol="100" />
        </pattern>
        <pattern pos="201216" muted="0" steps="16" name="" type="1">
          <note key="64" pos="216" pan="0" len="24" vol="100" />
          <note key="64" pos="984" pan="0" len="24" vol="100" />
        </pattern>
        <pattern pos="202752" muted="0" steps="16" name="" type="1">
          <note key="64" pos="216" pan="0" len="24" vol="100" />
          <note key="64" pos="984" pan="0" len="24" vol="100" />
        </pattern>
        <pattern pos="204288" muted="0" steps="16" name="" type="1">
          <note key="57" pos="216" pan="0" len="24" vol="100" />
          <note key="64" pos="984" pan="0" len="24" vol="100" />
        </pattern>
        <pattern pos="205824" muted="0" steps="16" name="" type="1">
          <note key="57" pos="216" pan="0" len="24" vol="100" />
          <note key="64" pos="984" pan="0" len="24" vol="100" />
        </pattern>
        <pattern pos="207360" muted="0" steps="16" name="" type="1">
          <note key="64" pos="216" pan="0" len="24" vol="100" />
          <note key="64" pos="984" pan="0" len="24" vol="100" />
        </pattern>
        <pattern pos="208896" muted="0" steps="16" name="" type="1">
          <note key="64" pos="216" pan="0" len="24" vol="100" />
          <note key="64" pos="984" pan="0" len="24" vol="100" />
        </pattern>
        <pattern pos="210432" muted="0" steps="16" name="" type="1">
          <note key="57" pos="216" pan="0" len="24" vol="100" />
          <note key="64" pos="984" pan="0" len="24" vol="100" />
        </pattern>
        <pattern pos="211968" muted="0" steps="16" name="" type="1">
          <note key="57" pos="216" pan="0" len="24" vol="100" />
          <note key="64" pos="984" pan="0" len="24" vol="100" />
        </pattern>
        <pattern pos="213504" muted="0" steps="16" name="" type="1">
          <note key="66" pos="108" pan="0" len="12" vol="100" />
          <note key="66" pos="492" pan="0" len="12" vol="100" />
          <note key="66" pos="876" pan="0" len="12" vol="100" />
          <note key="66" pos="1260" pan="0" len="12" vol="100" />
        </pattern>
      </track>
      <track solo="0" name="36 (Ch8)" type="0" muted="0">
        <instrumenttrack usemasterpitch="1" pitch="0.0" basenote="57" pan="0" pitchrange="12" vol="30">
          <eldata />
          <instrument name="tripleoscillator" />
        </instrumenttrack>
        <pattern pos="256896" muted="0" steps="16" name="" type="1">
          <note key="60" pos="360" pan="0" len="72" vol="17" />
          <note key="60" pos="744" pan="0" len="72" vol="17" />
          <note key="60" pos="1128" pan="0" len="24" vol="17" />
        </pattern>
        <pattern pos="196608" muted="0" steps="16" name="" type="1">
          <note key="64" pos="876" pan="0" len="12" vol="16" />
          <note key="64" pos="1260" pan="0" len="12" vol="66" />
        </pattern>
        <pattern pos="241536" muted="0" steps="16" name="" type="1">
          <note key="60" pos="240" pan="0" len="24" vol="100" />
          <note key="60" pos="360" pan="0" len="24" vol="100" />
          <note key="60" pos="624" pan="0" len="24" vol="100" />
          <note key="60" pos="744" pan="0" len="24" vol="100" />
          <note key="60" pos="1008" pan="0" len="24" vol="100" />
          <note key="60" pos="1128" pan="0" len="24" vol="100" />
          <note key="60" pos="1392" pan="0" len="24" vol="100" />
          <note key="60" pos="1512" pan="0" len="24" vol="100" />
        </pattern>
        <pattern pos="243072" muted="0" steps="16" name="" type="1">
          <note key="60" pos="240" pan="0" len="24" vol="100" />
          <note key="60" pos="360" pan="0" len="24" vol="100" />
          <note key="60" pos="624" pan="0" len="24" vol="100" />
          <note key="60" pos="744" pan="0" len="24" vol="100" />
          <note key="60" pos="1008" pan="0" len="24" vol="100" />
          <note key="60" pos="1128" pan="0" len="24" vol="100" />
        </pattern>
        <pattern pos="244608" muted="0" steps="16" name="" type="1">
          <note key="60" pos="360" pan="0" len="72" vol="17" />
          <note key="60" pos="744" pan="0" len="72" vol="17" />
          <note key="60" pos="1128" pan="0" len="72" vol="17" />
          <note key="60" pos="1512" pan="0" len="24" vol="17" />
        </pattern>
        <pattern pos="246144" muted="0" steps="16" name="" type="1">
          <note key="60" pos="360" pan="0" len="72" vol="17" />
          <note key="60" pos="744" pan="0" len="72" vol="17" />
          <note key="60" pos="1128" pan="0" len="72" vol="17" />
          <note key="60" pos="1512" pan="0" len="24" vol="17" />
        </pattern>
        <pattern pos="249216" muted="0" steps="16" name="" type="1">
          <note key="60" pos="360" pan="0" len="72" vol="17" />
          <note key="60" pos="744" pan="0" len="72" vol="17" />
          <note key="60" pos="1128" pan="0" len="72" vol="17" />
          <note key="60" pos="1512" pan="0" len="24" vol="17" />
        </pattern>
        <pattern pos="250752" muted="0" steps="16" name="" type="1">
          <note key="60" pos="360" pan="0" len="72" vol="17" />
          <note key="60" pos="744" pan="0" len="72" vol="17" />
          <note key="60" pos="1128" pan="0" len="72" vol="17" />
          <note key="60" pos="1512" pan="0" len="24" vol="17" />
        </pattern>
        <pattern pos="252288" muted="0" steps="16" name="" type="1">
          <note key="60" pos="360" pan="0" len="72" vol="17" />
          <note key="60" pos="744" pan="0" len="72" vol="17" />
          <note key="60" pos="1128" pan="0" len="72" vol="17" />
          <note key="60" pos="1512" pan="0" len="24" vol="17" />
        </pattern>
        <pattern pos="253824" muted="0" steps="16" name="" type="1">
          <note key="60" pos="360" pan="0" len="72" vol="17" />
          <note key="60" pos="744" pan="0" len="72" vol="17" />
          <note key="60" pos="1128" pan="0" len="72" vol="17" />
          <note key="60" pos="1512" pan="0" len="24" vol="17" />
        </pattern>
        <pattern pos="255360" muted="0" steps="16" name="" type="1">
          <note key="60" pos="360" pan="0" len="72" vol="17" />
          <note key="60" pos="744" pan="0" len="72" vol="17" />
          <note key="60" pos="1128" pan="0" len="72" vol="17" />
          <note key="60" pos="1512" pan="0" len="24" vol="17" />
        </pattern>
      </track>
      <track solo="0" name="37 (Ch3)" type="0" muted="0">
        <instrumenttrack usemasterpitch="1" pitch="0.0" basenote="57" pan="0" pitchrange="12" vol="30">
          <eldata />
          <instrument name="tripleoscillator" />
        </instrumenttrack>
        <pattern pos="133632" muted="0" steps="16" name="" type="1">
          <note key="60" pos="288" pan="0" len="24" vol="100" />
          <note key="63" pos="1056" pan="0" len="24" vol="100" />
        </pattern>
        <pattern pos="95232" muted="0" steps="16" name="" type="1">
          <note key="60" pos="312" pan="0" len="24" vol="100" />
          <note key="60" pos="1056" pan="0" len="24" vol="100" />
        </pattern>
        <pattern pos="96768" muted="0" steps="16" name="" type="1">
          <note key="60" pos="312" pan="0" len="24" vol="100" />
          <note key="60" pos="1056" pan="0" len="24" vol="100" />
        </pattern>
        <pattern pos="98304" muted="0" steps="16" name="" type="1">
          <note key="60" pos="312" pan="0" len="24" vol="100" />
          <note key="60" pos="1056" pan="0" len="24" vol="100" />
        </pattern>
        <pattern pos="99840" muted="0" steps="16" name="" type="1">
          <note key="60" pos="312" pan="0" len="24" vol="100" />
          <note key="60" pos="1056" pan="0" len="24" vol="100" />
        </pattern>
        <pattern pos="101376" muted="0" steps="16" name="" type="1">
          <note key="60" pos="312" pan="0" len="24" vol="100" />
          <note key="60" pos="1056" pan="0" len="24" vol="100" />
        </pattern>
        <pattern pos="102912" muted="0" steps="16" name="" type="1">
          <note key="60" pos="312" pan="0" len="24" vol="100" />
          <note key="60" pos="1056" pan="0" len="24" vol="100" />
        </pattern>
        <pattern pos="105984" muted="0" steps="16" name="" type="1">
          <note key="62" pos="312" pan="0" len="24" vol="2" />
          <note key="62" pos="1056" pan="0" len="24" vol="34" />
        </pattern>
        <pattern pos="107520" muted="0" steps="16" name="" type="1">
          <note key="69" pos="288" pan="0" len="24" vol="100" />
          <note key="69" pos="672" pan="0" len="24" vol="100" />
          <note key="69" pos="1056" pan="0" len="24" vol="100" />
          <note key="69" pos="1440" pan="0" len="24" vol="100" />
        </pattern>
        <pattern pos="109056" muted="0" steps="16" name="" type="1">
          <note key="69" pos="288" pan="0" len="24" vol="100" />
          <note key="69" pos="672" pan="0" len="24" vol="100" />
          <note key="69" pos="1056" pan="0" len="24" vol="100" />
          <note key="69" pos="1440" pan="0" len="24" vol="100" />
        </pattern>
        <pattern pos="110592" muted="0" steps="16" name="" type="1">
          <note key="68" pos="288" pan="0" len="24" vol="100" />
          <note key="68" pos="672" pan="0" len="24" vol="100" />
          <note key="68" pos="1056" pan="0" len="24" vol="100" />
          <note key="68" pos="1440" pan="0" len="24" vol="100" />
        </pattern>
        <pattern pos="112128" muted="0" steps="16" name="" type="1">
          <note key="68" pos="288" pan="0" len="24" vol="100" />
          <note key="68" pos="672" pan="0" len="24" vol="100" />
          <note key="68" pos="1056" pan="0" len="24" vol="100" />
          <note key="68" pos="1440" pan="0" len="24" vol="100" />
        </pattern>
        <pattern pos="122880" muted="0" steps="16" name="" type="1">
          <note key="60" pos="312" pan="0" len="24" vol="100" />
          <note key="60" pos="1056" pan="0" len="24" vol="100" />
        </pattern>
        <pattern pos="124416" muted="0" steps="16" name="" type="1">
          <note key="60" pos="312" pan="0" len="24" vol="100" />
          <note key="60" pos="1056" pan="0" len="24" vol="100" />
        </pattern>
        <pattern pos="125952" muted="0" steps="16" name="" type="1">
          <note key="60" pos="288" pan="0" len="24" vol="100" />
          <note key="60" pos="1056" pan="0" len="24" vol="100" />
        </pattern>
        <pattern pos="127488" muted="0" steps="16" name="" type="1">
          <note key="60" pos="288" pan="0" len="24" vol="100" />
          <note key="60" pos="1056" pan="0" len="24" vol="100" />
        </pattern>
        <pattern pos="129024" muted="0" steps="16" name="" type="1">
          <note key="60" pos="288" pan="0" len="24" vol="100" />
          <note key="63" pos="1056" pan="0" len="24" vol="100" />
        </pattern>
        <pattern pos="130560" muted="0" steps="16" name="" type="1">
          <note key="60" pos="288" pan="0" len="24" vol="100" />
          <note key="63" pos="1056" pan="0" len="24" vol="100" />
        </pattern>
        <pattern pos="132096" muted="0" steps="16" name="" type="1">
          <note key="60" pos="288" pan="0" len="24" vol="100" />
          <note key="63" pos="1056" pan="0" len="24" vol="100" />
        </pattern>
      </track>
      <track solo="0" name="37 (Ch6)" type="0" muted="0">
        <instrumenttrack usemasterpitch="1" pitch="0.0" basenote="57" pan="0" pitchrange="12" vol="30">
          <eldata />
          <instrument name="tripleoscillator" />
        </instrumenttrack>
        <pattern pos="215040" muted="0" steps="16" name="" type="1">
          <note key="66" pos="600" pan="0" len="24" vol="100" />
          <note key="66" pos="1368" pan="0" len="24" vol="100" />
        </pattern>
        <pattern pos="59904" muted="0" steps="16" name="" type="1">
          <note key="60" pos="168" pan="0" len="24" vol="100" />
          <note key="60" pos="552" pan="0" len="24" vol="100" />
          <note key="63" pos="936" pan="0" len="24" vol="100" />
          <note key="65" pos="1320" pan="0" len="24" vol="100" />
        </pattern>
        <pattern pos="61440" muted="0" steps="16" name="" type="1">
          <note key="60" pos="168" pan="0" len="24" vol="100" />
          <note key="60" pos="552" pan="0" len="24" vol="100" />
          <note key="63" pos="936" pan="0" len="24" vol="100" />
          <note key="65" pos="1320" pan="0" len="24" vol="100" />
        </pattern>
        <pattern pos="62976" muted="0" steps="16" name="" type="1">
          <note key="60" pos="168" pan="0" len="24" vol="100" />
          <note key="60" pos="552" pan="0" len="24" vol="100" />
          <note key="63" pos="936" pan="0" len="24" vol="100" />
          <note key="65" pos="1320" pan="0" len="24" vol="100" />
        </pattern>
        <pattern pos="64512" muted="0" steps="16" name="" type="1">
          <note key="63" pos="168" pan="0" len="24" vol="100" />
          <note key="63" pos="552" pan="0" len="24" vol="100" />
          <note key="63" pos="936" pan="0" len="24" vol="100" />
          <note key="63" pos="1320" pan="0" len="24" vol="100" />
        </pattern>
        <pattern pos="66048" muted="0" steps="16" name="" type="1">
          <note key="63" pos="168" pan="0" len="24" vol="100" />
          <note key="63" pos="552" pan="0" len="24" vol="100" />
          <note key="63" pos="936" pan="0" len="24" vol="100" />
          <note key="63" pos="1320" pan="0" len="24" vol="100" />
        </pattern>
        <pattern pos="67584" muted="0" steps="16" name="" type="1">
          <note key="60" pos="168" pan="0" len="24" vol="100" />
          <note key="60" pos="552" pan="0" len="24" vol="100" />
          <note key="63" pos="936" pan="0" len="24" vol="100" />
          <note key="65" pos="1320" pan="0" len="24" vol="100" />
        </pattern>
        <pattern pos="69120" muted="0" steps="16" name="" type="1">
          <note key="60" pos="168" pan="0" len="24" vol="100" />
          <note key="60" pos="552" pan="0" len="24" vol="100" />
          <note key="63" pos="936" pan="0" len="24" vol="100" />
          <note key="65" pos="1320" pan="0" len="24" vol="100" />
        </pattern>
        <pattern pos="70656" muted="0" steps="16" name="" type="1">
          <note key="60" pos="168" pan="0" len="24" vol="100" />
          <note key="60" pos="552" pan="0" len="24" vol="100" />
          <note key="63" pos="936" pan="0" len="24" vol="100" />
          <note key="65" pos="1320" pan="0" len="24" vol="100" />
        </pattern>
        <pattern pos="72192" muted="0" steps="16" name="" type="1">
          <note key="60" pos="168" pan="0" len="24" vol="100" />
          <note key="60" pos="552" pan="0" len="24" vol="100" />
          <note key="63" pos="936" pan="0" len="24" vol="100" />
          <note key="65" pos="1320" pan="0" len="24" vol="100" />
        </pattern>
        <pattern pos="73728" muted="0" steps="16" name="" type="1">
          <note key="63" pos="168" pan="0" len="24" vol="100" />
          <note key="63" pos="552" pan="0" len="24" vol="100" />
          <note key="63" pos="936" pan="0" len="24" vol="100" />
          <note key="63" pos="1320" pan="0" len="24" vol="100" />
        </pattern>
        <pattern pos="75264" muted="0" steps="16" name="" type="1">
          <note key="63" pos="168" pan="0" len="24" vol="100" />
          <note key="63" pos="552" pan="0" len="24" vol="100" />
          <note key="63" pos="936" pan="0" len="24" vol="100" />
          <note key="63" pos="1320" pan="0" len="24" vol="100" />
        </pattern>
        <pattern pos="198144" muted="0" steps="16" name="" type="1">
          <note key="64" pos="300" pan="0" len="12" vol="100" />
          <note key="64" pos="684" pan="0" len="12" vol="100" />
          <note key="64" pos="1068" pan="0" len="12" vol="100" />
          <note key="64" pos="1452" pan="0" len="12" vol="100" />
        </pattern>
        <pattern pos="199680" muted="0" steps="16" name="" type="1">
          <note key="64" pos="300" pan="0" len="12" vol="100" />
          <note key="64" pos="684" pan="0" len="12" vol="100" />
          <note key="64" pos="1068" pan="0" len="12" vol="100" />
          <note key="64" pos="1452" pan="0" len="12" vol="100" />
        </pattern>
        <pattern pos="201216" muted="0" steps="16" name="" type="1">
          <note key="64" pos="600" pan="0" len="24" vol="100" />
          <note key="64" pos="1368" pan="0" len="24" vol="100" />
        </pattern>
        <pattern pos="202752" muted="0" steps="16" name="" type="1">
          <note key="64" pos="600" pan="0" len="24" vol="100" />
          <note key="60" pos="1368" pan="0" len="24" vol="100" />
        </pattern>
        <pattern pos="204288" muted="0" steps="16" name="" type="1">
          <note key="62" pos="600" pan="0" len="24" vol="100" />
          <note key="64" pos="1368" pan="0" len="24" vol="100" />
        </pattern>
        <pattern pos="205824" muted="0" steps="16" name="" type="1">
          <note key="62" pos="600" pan="0" len="24" vol="100" />
          <note key="64" pos="1368" pan="0" len="24" vol="100" />
        </pattern>
        <pattern pos="207360" muted="0" steps="16" name="" type="1">
          <note key="64" pos="600" pan="0" len="24" vol="100" />
          <note key="64" pos="1368" pan="0" len="24" vol="100" />
        </pattern>
        <pattern pos="208896" muted="0" steps="16" name="" type="1">
          <note key="64" pos="600" pan="0" len="24" vol="100" />
          <note key="60" pos="1368" pan="0" len="24" vol="100" />
        </pattern>
        <pattern pos="210432" muted="0" steps="16" name="" type="1">
          <note key="62" pos="600" pan="0" len="24" vol="100" />
          <note key="64" pos="1368" pan="0" len="24" vol="100" />
        </pattern>
        <pattern pos="211968" muted="0" steps="16" name="" type="1">
          <note key="62" pos="600" pan="0" len="24" vol="100" />
          <note key="64" pos="1368" pan="0" len="24" vol="100" />
        </pattern>
        <pattern pos="213504" muted="0" steps="16" name="" type="1">
          <note key="66" pos="300" pan="0" len="12" vol="100" />
          <note key="66" pos="684" pan="0" len="12" vol="100" />
          <note key="66" pos="1068" pan="0" len="12" vol="100" />
          <note key="66" pos="1452" pan="0" len="12" vol="100" />
        </pattern>
      </track>
      <track solo="0" name="37 (Ch8)" type="0" muted="0">
        <instrumenttrack usemasterpitch="1" pitch="0.0" basenote="57" pan="0" pitchrange="12" vol="30">
          <eldata />
          <instrument name="tripleoscillator" />
        </instrumenttrack>
        <pattern pos="196608" muted="0" steps="16" name="" type="1">
          <note key="64" pos="1068" pan="0" len="12" vol="41" />
          <note key="64" pos="1452" pan="0" len="12" vol="91" />
        </pattern>
      </track>
      <track solo="0" name="38 (Ch2)" type="0" muted="0">
        <instrumenttrack usemasterpitch="1" pitch="0.0" basenote="57" pan="0" pitchrange="12" vol="30">
          <eldata />
          <instrument name="tripleoscillator" />
        </instrumenttrack>
        <pattern pos="267648" muted="0" steps="16" name="" type="1">
          <note key="63" pos="168" pan="0" len="12" vol="100" />
          <note key="63" pos="360" pan="0" len="12" vol="100" />
          <note key="65" pos="552" pan="0" len="12" vol="100" />
          <note key="65" pos="744" pan="0" len="12" vol="100" />
          <note key="63" pos="936" pan="0" len="12" vol="100" />
          <note key="63" pos="1128" pan="0" len="12" vol="100" />
          <note key="65" pos="1320" pan="0" len="12" vol="100" />
          <note key="65" pos="1512" pan="0" len="12" vol="100" />
        </pattern>
        <pattern pos="76800" muted="0" steps="16" name="" type="1">
          <note key="60" pos="144" pan="0" len="12" vol="100" />
          <note key="60" pos="336" pan="0" len="12" vol="100" />
          <note key="60" pos="528" pan="0" len="12" vol="100" />
          <note key="60" pos="720" pan="0" len="12" vol="100" />
        </pattern>
        <pattern pos="77568" muted="0" steps="16" name="" type="1">
          <note key="60" pos="144" pan="0" len="12" vol="100" />
          <note key="60" pos="336" pan="0" len="12" vol="100" />
          <note key="60" pos="528" pan="0" len="12" vol="100" />
          <note key="60" pos="720" pan="0" len="12" vol="100" />
        </pattern>
        <pattern pos="78336" muted="0" steps="16" name="" type="1">
          <note key="60" pos="144" pan="0" len="12" vol="100" />
          <note key="60" pos="336" pan="0" len="12" vol="100" />
          <note key="60" pos="528" pan="0" len="12" vol="100" />
          <note key="60" pos="720" pan="0" len="12" vol="100" />
        </pattern>
        <pattern pos="79104" muted="0" steps="16" name="" type="1">
          <note key="60" pos="144" pan="0" len="12" vol="100" />
          <note key="60" pos="336" pan="0" len="12" vol="100" />
          <note key="60" pos="528" pan="0" len="12" vol="100" />
          <note key="60" pos="720" pan="0" len="12" vol="100" />
        </pattern>
        <pattern pos="79872" muted="0" steps="16" name="" type="1">
          <note key="60" pos="144" pan="0" len="12" vol="100" />
          <note key="60" pos="336" pan="0" len="12" vol="100" />
          <note key="60" pos="528" pan="0" len="12" vol="100" />
          <note key="60" pos="720" pan="0" len="12" vol="100" />
        </pattern>
        <pattern pos="80640" muted="0" steps="16" name="" type="1">
          <note key="60" pos="144" pan="0" len="12" vol="100" />
          <note key="60" pos="336" pan="0" len="12" vol="100" />
          <note key="60" pos="528" pan="0" len="12" vol="100" />
          <note key="60" pos="720" pan="0" len="12" vol="100" />
        </pattern>
        <pattern pos="81408" muted="0" steps="16" name="" type="1">
          <note key="60" pos="144" pan="0" len="12" vol="100" />
          <note key="60" pos="336" pan="0" len="12" vol="100" />
          <note key="60" pos="528" pan="0" len="12" vol="100" />
          <note key="60" pos="720" pan="0" len="12" vol="100" />
        </pattern>
        <pattern pos="82176" muted="0" steps="16" name="" type="1">
          <note key="60" pos="144" pan="0" len="12" vol="100" />
          <note key="60" pos="336" pan="0" len="12" vol="100" />
          <note key="60" pos="528" pan="0" len="12" vol="100" />
          <note key="60" pos="720" pan="0" len="12" vol="100" />
        </pattern>
        <pattern pos="82944" muted="0" steps="16" name="" type="1">
          <note key="60" pos="144" pan="0" len="12" vol="100" />
          <note key="60" pos="336" pan="0" len="12" vol="100" />
          <note key="60" pos="528" pan="0" len="12" vol="100" />
          <note key="60" pos="720" pan="0" len="12" vol="100" />
        </pattern>
        <pattern pos="83712" muted="0" steps="16" name="" type="1">
          <note key="60" pos="144" pan="0" len="12" vol="100" />
          <note key="60" pos="336" pan="0" len="12" vol="100" />
          <note key="60" pos="528" pan="0" len="12" vol="100" />
          <note key="60" pos="720" pan="0" len="12" vol="100" />
        </pattern>
        <pattern pos="86016" muted="0" steps="16" name="" type="1">
          <note key="60" pos="144" pan="0" len="12" vol="100" />
          <note key="60" pos="336" pan="0" len="12" vol="100" />
          <note key="60" pos="528" pan="0" len="12" vol="100" />
          <note key="60" pos="720" pan="0" len="12" vol="100" />
        </pattern>
        <pattern pos="86784" muted="0" steps="16" name="" type="1">
          <note key="60" pos="144" pan="0" len="12" vol="100" />
          <note key="60" pos="336" pan="0" len="12" vol="100" />
          <note key="60" pos="528" pan="0" len="12" vol="100" />
          <note key="60" pos="720" pan="0" len="12" vol="100" />
        </pattern>
        <pattern pos="87552" muted="0" steps="16" name="" type="1">
          <note key="60" pos="144" pan="0" len="12" vol="100" />
          <note key="60" pos="336" pan="0" len="12" vol="100" />
          <note key="60" pos="528" pan="0" len="12" vol="100" />
          <note key="60" pos="720" pan="0" len="12" vol="100" />
        </pattern>
        <pattern pos="88320" muted="0" steps="16" name="" type="1">
          <note key="60" pos="144" pan="0" len="12" vol="100" />
          <note key="60" pos="336" pan="0" len="12" vol="100" />
          <note key="60" pos="528" pan="0" len="12" vol="100" />
          <note key="60" pos="720" pan="0" len="12" vol="100" />
        </pattern>
        <pattern pos="89088" muted="0" steps="16" name="" type="1">
          <note key="60" pos="144" pan="0" len="12" vol="100" />
          <note key="60" pos="336" pan="0" len="12" vol="100" />
          <note key="60" pos="528" pan="0" len="12" vol="100" />
          <note key="60" pos="720" pan="0" len="12" vol="100" />
        </pattern>
        <pattern pos="89856" muted="0" steps="16" name="" type="1">
          <note key="60" pos="144" pan="0" len="12" vol="100" />
          <note key="60" pos="336" pan="0" len="12" vol="100" />
          <note key="60" pos="528" pan="0" len="12" vol="100" />
          <note key="60" pos="720" pan="0" len="12" vol="100" />
        </pattern>
        <pattern pos="90624" muted="0" steps="16" name="" type="1">
          <note key="60" pos="144" pan="0" len="12" vol="100" />
          <note key="60" pos="336" pan="0" len="12" vol="100" />
          <note key="60" pos="528" pan="0" len="12" vol="100" />
          <note key="60" pos="720" pan="0" len="12" vol="100" />
        </pattern>
        <pattern pos="91392" muted="0" steps="16" name="" type="1">
          <note key="60" pos="144" pan="0" len="12" vol="81" />
          <note key="60" pos="336" pan="0" len="12" vol="56" />
          <note key="60" pos="528" pan="0" len="12" vol="31" />
          <note key="60" pos="720" pan="0" len="12" vol="6" />
        </pattern>
        <pattern pos="259968" muted="0" steps="16" name="" type="1">
          <note key="65" pos="168" pan="0" len="12" vol="100" />
          <note key="65" pos="360" pan="0" len="12" vol="100" />
          <note key="65" pos="552" pan="0" len="12" vol="100" />
          <note key="65" pos="744" pan="0" len="12" vol="100" />
        </pattern>
        <pattern pos="260736" muted="0" steps="16" name="" type="1">
          <note key="65" pos="168" pan="0" len="12" vol="100" />
          <note key="65" pos="360" pan="0" len="12" vol="100" />
          <note key="65" pos="552" pan="0" len="12" vol="100" />
          <note key="65" pos="744" pan="0" len="12" vol="100" />
        </pattern>
        <pattern pos="261504" muted="0" steps="16" name="" type="1">
          <note key="56" pos="168" pan="0" len="12" vol="100" />
          <note key="56" pos="360" pan="0" len="12" vol="100" />
          <note key="56" pos="552" pan="0" len="12" vol="100" />
          <note key="56" pos="744" pan="0" len="12" vol="100" />
        </pattern>
        <pattern pos="262272" muted="0" steps="16" name="" type="1">
          <note key="56" pos="168" pan="0" len="12" vol="100" />
          <note key="56" pos="360" pan="0" len="12" vol="100" />
          <note key="56" pos="552" pan="0" len="12" vol="100" />
          <note key="56" pos="744" pan="0" len="12" vol="100" />
        </pattern>
        <pattern pos="263040" muted="0" steps="16" name="" type="1">
          <note key="55" pos="168" pan="0" len="12" vol="100" />
          <note key="55" pos="360" pan="0" len="12" vol="100" />
          <note key="55" pos="552" pan="0" len="12" vol="100" />
          <note key="55" pos="744" pan="0" len="12" vol="100" />
        </pattern>
        <pattern pos="263808" muted="0" steps="16" name="" type="1">
          <note key="55" pos="168" pan="0" len="12" vol="100" />
          <note key="55" pos="360" pan="0" len="12" vol="100" />
          <note key="55" pos="552" pan="0" len="12" vol="100" />
          <note key="55" pos="744" pan="0" len="12" vol="100" />
        </pattern>
        <pattern pos="264576" muted="0" steps="16" name="" type="1">
          <note key="65" pos="168" pan="0" len="12" vol="100" />
          <note key="65" pos="360" pan="0" len="12" vol="100" />
          <note key="65" pos="552" pan="0" len="12" vol="100" />
          <note key="65" pos="744" pan="0" len="12" vol="100" />
        </pattern>
        <pattern pos="265344" muted="0" steps="16" name="" type="1">
          <note key="65" pos="168" pan="0" len="12" vol="100" />
          <note key="65" pos="360" pan="0" len="12" vol="100" />
          <note key="65" pos="552" pan="0" len="12" vol="100" />
          <note key="65" pos="744" pan="0" len="12" vol="100" />
        </pattern>
        <pattern pos="266112" muted="0" steps="16" name="" type="1">
          <note key="65" pos="168" pan="0" len="12" vol="100" />
          <note key="65" pos="360" pan="0" len="12" vol="100" />
          <note key="60" pos="552" pan="0" len="12" vol="100" />
          <note key="60" pos="744" pan="0" len="12" vol="100" />
          <note key="65" pos="936" pan="0" len="12" vol="100" />
          <note key="65" pos="1128" pan="0" len="12" vol="100" />
          <note key="60" pos="1320" pan="0" len="12" vol="100" />
          <note key="60" pos="1512" pan="0" len="12" vol="100" />
        </pattern>
      </track>
      <track solo="0" name="38 (Ch3)" type="0" muted="0">
        <instrumenttrack usemasterpitch="1" pitch="0.0" basenote="57" pan="0" pitchrange="12" vol="30">
          <eldata />
          <instrument name="tripleoscillator" />
        </instrumenttrack>
        <pattern pos="135168" muted="0" steps="16" name="" type="1">
          <note key="60" pos="0" pan="0" len="1536" vol="100" />
        </pattern>
        <pattern pos="93696" muted="0" steps="16" name="" type="1">
          <note key="60" pos="0" pan="0" len="24" vol="100" />
          <note key="60" pos="384" pan="0" len="24" vol="100" />
          <note key="60" pos="648" pan="0" len="24" vol="100" />
          <note key="60" pos="768" pan="0" len="24" vol="100" />
          <note key="60" pos="1152" pan="0" len="24" vol="100" />
          <note key="60" pos="1416" pan="0" len="24" vol="100" />
        </pattern>
        <pattern pos="95232" muted="0" steps="16" name="" type="1">
          <note key="60" pos="0" pan="0" len="24" vol="100" />
          <note key="60" pos="384" pan="0" len="24" vol="100" />
          <note key="60" pos="648" pan="0" len="24" vol="100" />
          <note key="60" pos="768" pan="0" len="24" vol="100" />
          <note key="60" pos="1152" pan="0" len="24" vol="100" />
          <note key="60" pos="1416" pan="0" len="24" vol="100" />
        </pattern>
        <pattern pos="96768" muted="0" steps="16" name="" type="1">
          <note key="60" pos="0" pan="0" len="24" vol="100" />
          <note key="60" pos="384" pan="0" len="24" vol="100" />
          <note key="60" pos="648" pan="0" len="24" vol="100" />
          <note key="60" pos="768" pan="0" len="24" vol="100" />
          <note key="60" pos="1152" pan="0" len="24" vol="100" />
          <note key="60" pos="1416" pan="0" len="24" vol="100" />
        </pattern>
        <pattern pos="98304" muted="0" steps="16" name="" type="1">
          <note key="60" pos="0" pan="0" len="24" vol="100" />
          <note key="60" pos="384" pan="0" len="24" vol="100" />
          <note key="60" pos="648" pan="0" len="24" vol="100" />
          <note key="60" pos="768" pan="0" len="24" vol="100" />
          <note key="60" pos="1152" pan="0" len="24" vol="100" />
          <note key="60" pos="1416" pan="0" len="24" vol="100" />
        </pattern>
        <pattern pos="99840" muted="0" steps="16" name="" type="1">
          <note key="60" pos="0" pan="0" len="24" vol="100" />
          <note key="60" pos="384" pan="0" len="24" vol="100" />
          <note key="60" pos="648" pan="0" len="24" vol="100" />
          <note key="60" pos="768" pan="0" len="24" vol="100" />
          <note key="60" pos="1152" pan="0" len="24" vol="100" />
          <note key="60" pos="1416" pan="0" len="24" vol="100" />
        </pattern>
        <pattern pos="101376" muted="0" steps="16" name="" type="1">
          <note key="60" pos="0" pan="0" len="24" vol="100" />
          <note key="60" pos="384" pan="0" len="24" vol="100" />
          <note key="60" pos="648" pan="0" len="24" vol="100" />
          <note key="60" pos="768" pan="0" len="24" vol="100" />
          <note key="60" pos="1152" pan="0" len="24" vol="100" />
          <note key="60" pos="1416" pan="0" len="24" vol="100" />
        </pattern>
        <pattern pos="102912" muted="0" steps="16" name="" type="1">
          <note key="60" pos="0" pan="0" len="24" vol="100" />
          <note key="60" pos="384" pan="0" len="24" vol="100" />
          <note key="60" pos="648" pan="0" len="24" vol="100" />
          <note key="60" pos="768" pan="0" len="24" vol="100" />
          <note key="60" pos="1152" pan="0" len="24" vol="100" />
          <note key="60" pos="1416" pan="0" len="24" vol="100" />
        </pattern>
        <pattern pos="104448" muted="0" steps="16" name="" type="1">
          <note key="62" pos="0" pan="0" len="1536" vol="100" />
        </pattern>
        <pattern pos="105984" muted="0" steps="16" name="" type="1">
          <note key="62" pos="0" pan="0" len="24" vol="0" />
          <note key="62" pos="384" pan="0" len="24" vol="2" />
          <note key="62" pos="648" pan="0" len="24" vol="8" />
          <note key="62" pos="768" pan="0" len="24" vol="14" />
          <note key="62" pos="1152" pan="0" len="24" vol="44" />
          <note key="62" pos="1416" pan="0" len="24" vol="81" />
        </pattern>
        <pattern pos="107520" muted="0" steps="16" name="" type="1">
          <note key="62" pos="0" pan="0" len="24" vol="100" />
          <note key="62" pos="384" pan="0" len="24" vol="100" />
          <note key="62" pos="768" pan="0" len="24" vol="100" />
          <note key="62" pos="1152" pan="0" len="24" vol="100" />
        </pattern>
        <pattern pos="109056" muted="0" steps="16" name="" type="1">
          <note key="62" pos="0" pan="0" len="24" vol="100" />
          <note key="62" pos="384" pan="0" len="24" vol="100" />
          <note key="62" pos="768" pan="0" len="24" vol="100" />
          <note key="62" pos="1152" pan="0" len="24" vol="100" />
        </pattern>
        <pattern pos="110592" muted="0" steps="16" name="" type="1">
          <note key="65" pos="0" pan="0" len="24" vol="100" />
          <note key="65" pos="384" pan="0" len="24" vol="100" />
          <note key="65" pos="768" pan="0" len="24" vol="100" />
          <note key="65" pos="1152" pan="0" len="24" vol="100" />
        </pattern>
        <pattern pos="112128" muted="0" steps="16" name="" type="1">
          <note key="65" pos="0" pan="0" len="24" vol="100" />
          <note key="65" pos="384" pan="0" len="24" vol="100" />
          <note key="65" pos="768" pan="0" len="24" vol="100" />
          <note key="65" pos="1152" pan="0" len="24" vol="100" />
        </pattern>
        <pattern pos="122880" muted="0" steps="16" name="" type="1">
          <note key="60" pos="0" pan="0" len="24" vol="100" />
          <note key="60" pos="384" pan="0" len="24" vol="100" />
          <note key="60" pos="648" pan="0" len="24" vol="100" />
          <note key="60" pos="768" pan="0" len="24" vol="100" />
          <note key="60" pos="1152" pan="0" len="24" vol="100" />
          <note key="60" pos="1416" pan="0" len="24" vol="100" />
        </pattern>
        <pattern pos="124416" muted="0" steps="16" name="" type="1">
          <note key="60" pos="0" pan="0" len="24" vol="100" />
          <note key="60" pos="384" pan="0" len="24" vol="100" />
          <note key="60" pos="648" pan="0" len="24" vol="100" />
          <note key="60" pos="768" pan="0" len="24" vol="100" />
          <note key="60" pos="1152" pan="0" len="24" vol="100" />
          <note key="60" pos="1416" pan="0" len="24" vol="100" />
        </pattern>
        <pattern pos="125952" muted="0" steps="16" name="" type="1">
          <note key="60" pos="0" pan="0" len="24" vol="100" />
          <note key="60" pos="384" pan="0" len="24" vol="100" />
          <note key="60" pos="648" pan="0" len="24" vol="100" />
          <note key="60" pos="768" pan="0" len="24" vol="100" />
          <note key="60" pos="1152" pan="0" len="24" vol="100" />
          <note key="60" pos="1416" pan="0" len="24" vol="100" />
        </pattern>
        <pattern pos="127488" muted="0" steps="16" name="" type="1">
          <note key="60" pos="0" pan="0" len="24" vol="100" />
          <note key="60" pos="384" pan="0" len="24" vol="100" />
          <note key="60" pos="648" pan="0" len="24" vol="100" />
          <note key="60" pos="768" pan="0" len="24" vol="100" />
          <note key="60" pos="1152" pan="0" len="24" vol="100" />
          <note key="60" pos="1416" pan="0" len="24" vol="100" />
        </pattern>
        <pattern pos="129024" muted="0" steps="16" name="" type="1">
          <note key="60" pos="0" pan="0" len="24" vol="100" />
          <note key="60" pos="384" pan="0" len="24" vol="100" />
          <note key="60" pos="648" pan="0" len="24" vol="100" />
          <note key="51" pos="768" pan="0" len="24" vol="100" />
          <note key="58" pos="1152" pan="0" len="24" vol="100" />
          <note key="58" pos="1416" pan="0" len="24" vol="100" />
        </pattern>
        <pattern pos="130560" muted="0" steps="16" name="" type="1">
          <note key="60" pos="0" pan="0" len="24" vol="100" />
          <note key="60" pos="384" pan="0" len="24" vol="100" />
          <note key="60" pos="648" pan="0" len="24" vol="100" />
          <note key="51" pos="768" pan="0" len="24" vol="100" />
          <note key="58" pos="1152" pan="0" len="24" vol="100" />
          <note key="58" pos="1416" pan="0" len="24" vol="100" />
        </pattern>
        <pattern pos="132096" muted="0" steps="16" name="" type="1">
          <note key="60" pos="0" pan="0" len="24" vol="100" />
          <note key="60" pos="384" pan="0" len="24" vol="100" />
          <note key="60" pos="648" pan="0" len="24" vol="100" />
          <note key="51" pos="768" pan="0" len="24" vol="100" />
          <note key="58" pos="1152" pan="0" len="24" vol="100" />
          <note key="58" pos="1416" pan="0" len="24" vol="100" />
        </pattern>
        <pattern pos="133632" muted="0" steps="16" name="" type="1">
          <note key="60" pos="0" pan="0" len="24" vol="100" />
          <note key="60" pos="384" pan="0" len="24" vol="100" />
          <note key="60" pos="648" pan="0" len="24" vol="100" />
          <note key="51" pos="768" pan="0" len="24" vol="100" />
          <note key="58" pos="1152" pan="0" len="24" vol="100" />
          <note key="58" pos="1416" pan="0" len="24" vol="100" />
        </pattern>
      </track>
      <track solo="0" name="38 (Ch6)" type="0" muted="0">
        <instrumenttrack usemasterpitch="1" pitch="0.0" basenote="57" pan="0" pitchrange="12" vol="30">
          <eldata />
          <instrument name="tripleoscillator" />
        </instrumenttrack>
        <pattern pos="215040" muted="0" steps="16" name="" type="1">
          <note key="54" pos="192" pan="0" len="24" vol="100" />
          <note key="54" pos="576" pan="0" len="24" vol="100" />
          <note key="54" pos="960" pan="0" len="24" vol="100" />
          <note key="54" pos="1344" pan="0" len="24" vol="100" />
        </pattern>
        <pattern pos="59904" muted="0" steps="16" name="" type="1">
          <note key="60" pos="0" pan="0" len="24" vol="100" />
          <note key="60" pos="144" pan="0" len="24" vol="100" />
          <note key="60" pos="384" pan="0" len="24" vol="100" />
          <note key="60" pos="528" pan="0" len="24" vol="100" />
          <note key="63" pos="768" pan="0" len="24" vol="100" />
          <note key="63" pos="912" pan="0" len="24" vol="100" />
          <note key="65" pos="1152" pan="0" len="24" vol="100" />
          <note key="65" pos="1296" pan="0" len="24" vol="100" />
        </pattern>
        <pattern pos="61440" muted="0" steps="16" name="" type="1">
          <note key="60" pos="0" pan="0" len="24" vol="100" />
          <note key="60" pos="144" pan="0" len="24" vol="100" />
          <note key="60" pos="384" pan="0" len="24" vol="100" />
          <note key="60" pos="528" pan="0" len="24" vol="100" />
          <note key="63" pos="768" pan="0" len="24" vol="100" />
          <note key="63" pos="912" pan="0" len="24" vol="100" />
          <note key="65" pos="1152" pan="0" len="24" vol="100" />
          <note key="65" pos="1296" pan="0" len="24" vol="100" />
        </pattern>
        <pattern pos="62976" muted="0" steps="16" name="" type="1">
          <note key="60" pos="0" pan="0" len="24" vol="100" />
          <note key="60" pos="144" pan="0" len="24" vol="100" />
          <note key="60" pos="384" pan="0" len="24" vol="100" />
          <note key="60" pos="528" pan="0" len="24" vol="100" />
          <note key="63" pos="768" pan="0" len="24" vol="100" />
          <note key="63" pos="912" pan="0" len="24" vol="100" />
          <note key="65" pos="1152" pan="0" len="24" vol="100" />
          <note key="65" pos="1296" pan="0" len="24" vol="100" />
        </pattern>
        <pattern pos="64512" muted="0" steps="16" name="" type="1">
          <note key="60" pos="0" pan="0" len="24" vol="100" />
          <note key="63" pos="144" pan="0" len="24" vol="100" />
          <note key="60" pos="384" pan="0" len="24" vol="100" />
          <note key="63" pos="528" pan="0" len="24" vol="100" />
          <note key="60" pos="768" pan="0" len="24" vol="100" />
          <note key="63" pos="912" pan="0" len="24" vol="100" />
          <note key="60" pos="1152" pan="0" len="24" vol="100" />
          <note key="63" pos="1296" pan="0" len="24" vol="100" />
        </pattern>
        <pattern pos="66048" muted="0" steps="16" name="" type="1">
          <note key="60" pos="0" pan="0" len="24" vol="100" />
          <note key="63" pos="144" pan="0" len="24" vol="100" />
          <note key="60" pos="384" pan="0" len="24" vol="100" />
          <note key="63" pos="528" pan="0" len="24" vol="100" />
          <note key="60" pos="768" pan="0" len="24" vol="100" />
          <note key="63" pos="912" pan="0" len="24" vol="100" />
          <note key="60" pos="1152" pan="0" len="24" vol="100" />
          <note key="63" pos="1296" pan="0" len="24" vol="100" />
        </pattern>
        <pattern pos="67584" muted="0" steps="16" name="" type="1">
          <note key="60" pos="0" pan="0" len="24" vol="100" />
          <note key="60" pos="144" pan="0" len="24" vol="100" />
          <note key="60" pos="384" pan="0" len="24" vol="100" />
          <note key="60" pos="528" pan="0" len="24" vol="100" />
          <note key="63" pos="768" pan="0" len="24" vol="100" />
          <note key="63" pos="912" pan="0" len="24" vol="100" />
          <note key="65" pos="1152" pan="0" len="24" vol="100" />
          <note key="65" pos="1296" pan="0" len="24" vol="100" />
        </pattern>
        <pattern pos="69120" muted="0" steps="16" name="" type="1">
          <note key="60" pos="0" pan="0" len="24" vol="100" />
          <note key="60" pos="144" pan="0" len="24" vol="100" />
          <note key="60" pos="384" pan="0" len="24" vol="100" />
          <note key="60" pos="528" pan="0" len="24" vol="100" />
          <note key="63" pos="768" pan="0" len="24" vol="100" />
          <note key="63" pos="912" pan="0" len="24" vol="100" />
          <note key="65" pos="1152" pan="0" len="24" vol="100" />
          <note key="65" pos="1296" pan="0" len="24" vol="100" />
        </pattern>
        <pattern pos="70656" muted="0" steps="16" name="" type="1">
          <note key="60" pos="0" pan="0" len="24" vol="100" />
          <note key="60" pos="144" pan="0" len="24" vol="100" />
          <note key="60" pos="384" pan="0" len="24" vol="100" />
          <note key="60" pos="528" pan="0" len="24" vol="100" />
          <note key="63" pos="768" pan="0" len="24" vol="100" />
          <note key="63" pos="912" pan="0" len="24" vol="100" />
          <note key="65" pos="1152" pan="0" len="24" vol="100" />
          <note key="65" pos="1296" pan="0" len="24" vol="100" />
        </pattern>
        <pattern pos="72192" muted="0" steps="16" name="" type="1">
          <note key="60" pos="0" pan="0" len="24" vol="100" />
          <note key="60" pos="144" pan="0" len="24" vol="100" />
          <note key="60" pos="384" pan="0" len="24" vol="100" />
          <note key="60" pos="528" pan="0" len="24" vol="100" />
          <note key="63" pos="768" pan="0" len="24" vol="100" />
          <note key="63" pos="912" pan="0" len="24" vol="100" />
          <note key="65" pos="1152" pan="0" len="24" vol="100" />
          <note key="65" pos="1296" pan="0" len="24" vol="100" />
        </pattern>
        <pattern pos="73728" muted="0" steps="16" name="" type="1">
          <note key="60" pos="0" pan="0" len="24" vol="100" />
          <note key="63" pos="144" pan="0" len="24" vol="100" />
          <note key="60" pos="384" pan="0" len="24" vol="100" />
          <note key="63" pos="528" pan="0" len="24" vol="100" />
          <note key="60" pos="768" pan="0" len="24" vol="100" />
          <note key="63" pos="912" pan="0" len="24" vol="100" />
          <note key="60" pos="1152" pan="0" len="24" vol="100" />
          <note key="63" pos="1296" pan="0" len="24" vol="100" />
        </pattern>
        <pattern pos="75264" muted="0" steps="16" name="" type="1">
          <note key="60" pos="0" pan="0" len="24" vol="100" />
          <note key="63" pos="144" pan="0" len="24" vol="100" />
          <note key="60" pos="384" pan="0" len="24" vol="100" />
          <note key="63" pos="528" pan="0" len="24" vol="100" />
          <note key="60" pos="768" pan="0" len="24" vol="100" />
          <note key="63" pos="912" pan="0" len="24" vol="100" />
          <note key="60" pos="1152" pan="0" len="24" vol="100" />
          <note key="63" pos="1296" pan="0" len="24" vol="100" />
        </pattern>
        <pattern pos="198144" muted="0" steps="16" name="" type="1">
          <note key="52" pos="96" pan="0" len="12" vol="100" />
          <note key="52" pos="288" pan="0" len="12" vol="100" />
          <note key="52" pos="480" pan="0" len="12" vol="100" />
          <note key="52" pos="672" pan="0" len="12" vol="100" />
          <note key="52" pos="864" pan="0" len="12" vol="100" />
          <note key="52" pos="1056" pan="0" len="12" vol="100" />
          <note key="52" pos="1248" pan="0" len="12" vol="100" />
          <note key="52" pos="1440" pan="0" len="12" vol="100" />
        </pattern>
        <pattern pos="199680" muted="0" steps="16" name="" type="1">
          <note key="52" pos="96" pan="0" len="12" vol="100" />
          <note key="52" pos="288" pan="0" len="12" vol="100" />
          <note key="52" pos="480" pan="0" len="12" vol="100" />
          <note key="52" pos="672" pan="0" len="12" vol="100" />
          <note key="52" pos="864" pan="0" len="12" vol="100" />
          <note key="52" pos="1056" pan="0" len="12" vol="100" />
          <note key="52" pos="1248" pan="0" len="12" vol="100" />
          <note key="52" pos="1440" pan="0" len="12" vol="100" />
        </pattern>
        <pattern pos="201216" muted="0" steps="16" name="" type="1">
          <note key="52" pos="192" pan="0" len="24" vol="100" />
          <note key="52" pos="576" pan="0" len="24" vol="100" />
          <note key="52" pos="960" pan="0" len="24" vol="100" />
          <note key="52" pos="1344" pan="0" len="24" vol="100" />
        </pattern>
        <pattern pos="202752" muted="0" steps="16" name="" type="1">
          <note key="52" pos="192" pan="0" len="24" vol="100" />
          <note key="52" pos="576" pan="0" len="24" vol="100" />
          <note key="52" pos="960" pan="0" len="24" vol="100" />
          <note key="48" pos="1344" pan="0" len="24" vol="100" />
        </pattern>
        <pattern pos="204288" muted="0" steps="16" name="" type="1">
          <note key="45" pos="192" pan="0" len="24" vol="100" />
          <note key="50" pos="576" pan="0" len="24" vol="100" />
          <note key="52" pos="960" pan="0" len="24" vol="100" />
          <note key="52" pos="1344" pan="0" len="24" vol="100" />
        </pattern>
        <pattern pos="205824" muted="0" steps="16" name="" type="1">
          <note key="45" pos="192" pan="0" len="24" vol="100" />
          <note key="50" pos="576" pan="0" len="24" vol="100" />
          <note key="52" pos="960" pan="0" len="24" vol="100" />
          <note key="52" pos="1344" pan="0" len="24" vol="100" />
        </pattern>
        <pattern pos="207360" muted="0" steps="16" name="" type="1">
          <note key="52" pos="192" pan="0" len="24" vol="100" />
          <note key="52" pos="576" pan="0" len="24" vol="100" />
          <note key="52" pos="960" pan="0" len="24" vol="100" />
          <note key="52" pos="1344" pan="0" len="24" vol="100" />
        </pattern>
        <pattern pos="208896" muted="0" steps="16" name="" type="1">
          <note key="52" pos="192" pan="0" len="24" vol="100" />
          <note key="52" pos="576" pan="0" len="24" vol="100" />
          <note key="52" pos="960" pan="0" len="24" vol="100" />
          <note key="48" pos="1344" pan="0" len="24" vol="100" />
        </pattern>
        <pattern pos="210432" muted="0" steps="16" name="" type="1">
          <note key="45" pos="192" pan="0" len="24" vol="100" />
          <note key="50" pos="576" pan="0" len="24" vol="100" />
          <note key="52" pos="960" pan="0" len="24" vol="100" />
          <note key="52" pos="1344" pan="0" len="24" vol="100" />
        </pattern>
        <pattern pos="211968" muted="0" steps="16" name="" type="1">
          <note key="45" pos="192" pan="0" len="24" vol="100" />
          <note key="50" pos="576" pan="0" len="24" vol="100" />
          <note key="52" pos="960" pan="0" len="24" vol="100" />
          <note key="52" pos="1344" pan="0" len="24" vol="100" />
        </pattern>
        <pattern pos="213504" muted="0" steps="16" name="" type="1">
          <note key="54" pos="96" pan="0" len="12" vol="100" />
          <note key="54" pos="288" pan="0" len="12" vol="100" />
          <note key="54" pos="480" pan="0" len="12" vol="100" />
          <note key="54" pos="672" pan="0" len="12" vol="100" />
          <note key="54" pos="864" pan="0" len="12" vol="100" />
          <note key="54" pos="1056" pan="0" len="12" vol="100" />
          <note key="54" pos="1248" pan="0" len="12" vol="100" />
          <note key="54" pos="1440" pan="0" len="12" vol="100" />
        </pattern>
      </track>
      <track solo="0" name="38 (Ch8)" type="0" muted="0">
        <instrumenttrack usemasterpitch="1" pitch="0.0" basenote="57" pan="0" pitchrange="12" vol="30">
          <eldata />
          <instrument name="tripleoscillator" />
        </instrumenttrack>
        <pattern pos="256896" muted="0" steps="16" name="" type="1">
          <note key="60" pos="336" pan="0" len="24" vol="100" />
          <note key="60" pos="720" pan="0" len="24" vol="100" />
          <note key="60" pos="1104" pan="0" len="24" vol="100" />
        </pattern>
        <pattern pos="196608" muted="0" steps="16" name="" type="1">
          <note key="52" pos="864" pan="0" len="12" vol="14" />
          <note key="52" pos="1056" pan="0" len="12" vol="39" />
          <note key="52" pos="1248" pan="0" len="12" vol="64" />
          <note key="52" pos="1440" pan="0" len="12" vol="89" />
        </pattern>
        <pattern pos="241536" muted="0" steps="16" name="" type="1">
          <note key="60" pos="336" pan="0" len="24" vol="100" />
          <note key="60" pos="720" pan="0" len="24" vol="100" />
          <note key="60" pos="1104" pan="0" len="24" vol="100" />
          <note key="60" pos="1488" pan="0" len="24" vol="100" />
        </pattern>
        <pattern pos="243072" muted="0" steps="16" name="" type="1">
          <note key="60" pos="336" pan="0" len="24" vol="100" />
          <note key="60" pos="720" pan="0" len="24" vol="100" />
          <note key="60" pos="1104" pan="0" len="24" vol="100" />
        </pattern>
        <pattern pos="244608" muted="0" steps="16" name="" type="1">
          <note key="60" pos="336" pan="0" len="24" vol="100" />
          <note key="60" pos="720" pan="0" len="24" vol="100" />
          <note key="60" pos="1104" pan="0" len="24" vol="100" />
          <note key="60" pos="1488" pan="0" len="24" vol="100" />
        </pattern>
        <pattern pos="246144" muted="0" steps="16" name="" type="1">
          <note key="60" pos="336" pan="0" len="24" vol="100" />
          <note key="60" pos="720" pan="0" len="24" vol="100" />
          <note key="60" pos="1104" pan="0" len="24" vol="100" />
        </pattern>
        <pattern pos="249216" muted="0" steps="16" name="" type="1">
          <note key="60" pos="336" pan="0" len="24" vol="100" />
          <note key="60" pos="720" pan="0" len="24" vol="100" />
          <note key="60" pos="1104" pan="0" len="24" vol="100" />
          <note key="60" pos="1488" pan="0" len="24" vol="100" />
        </pattern>
        <pattern pos="250752" muted="0" steps="16" name="" type="1">
          <note key="60" pos="336" pan="0" len="24" vol="100" />
          <note key="60" pos="720" pan="0" len="24" vol="100" />
          <note key="60" pos="1104" pan="0" len="24" vol="100" />
        </pattern>
        <pattern pos="252288" muted="0" steps="16" name="" type="1">
          <note key="60" pos="336" pan="0" len="24" vol="100" />
          <note key="60" pos="720" pan="0" len="24" vol="100" />
          <note key="60" pos="1104" pan="0" len="24" vol="100" />
          <note key="60" pos="1488" pan="0" len="24" vol="100" />
        </pattern>
        <pattern pos="253824" muted="0" steps="16" name="" type="1">
          <note key="60" pos="336" pan="0" len="24" vol="100" />
          <note key="60" pos="720" pan="0" len="24" vol="100" />
          <note key="60" pos="1104" pan="0" len="24" vol="100" />
        </pattern>
        <pattern pos="255360" muted="0" steps="16" name="" type="1">
          <note key="60" pos="336" pan="0" len="24" vol="100" />
          <note key="60" pos="720" pan="0" len="24" vol="100" />
          <note key="60" pos="1104" pan="0" len="24" vol="100" />
          <note key="60" pos="1488" pan="0" len="24" vol="100" />
        </pattern>
      </track>
      <track solo="0" name="39 (Ch1)" type="0" muted="0">
        <instrumenttrack usemasterpitch="1" pitch="0.0" basenote="57" pan="0" pitchrange="12" vol="30">
          <eldata />
          <instrument name="tripleoscillator" />
        </instrumenttrack>
        <pattern pos="16128" muted="0" steps="16" name="" type="1">
          <note key="60" pos="180" pan="0" len="12" vol="100" />
          <note key="60" pos="372" pan="0" len="12" vol="100" />
          <note key="60" pos="564" pan="0" len="12" vol="100" />
          <note key="60" pos="756" pan="0" len="12" vol="100" />
          <note key="60" pos="948" pan="0" len="12" vol="100" />
          <note key="60" pos="1140" pan="0" len="12" vol="100" />
          <note key="60" pos="1332" pan="0" len="12" vol="100" />
        </pattern>
        <pattern pos="6912" muted="0" steps="16" name="" type="1">
          <note key="60" pos="180" pan="0" len="12" vol="100" />
          <note key="60" pos="372" pan="0" len="12" vol="100" />
          <note key="60" pos="564" pan="0" len="12" vol="100" />
          <note key="60" pos="756" pan="0" len="12" vol="100" />
        </pattern>
        <pattern pos="7680" muted="0" steps="16" name="" type="1">
          <note key="60" pos="180" pan="0" len="12" vol="100" />
          <note key="60" pos="372" pan="0" len="12" vol="100" />
          <note key="60" pos="564" pan="0" len="12" vol="100" />
          <note key="60" pos="756" pan="0" len="12" vol="100" />
        </pattern>
        <pattern pos="8448" muted="0" steps="16" name="" type="1">
          <note key="60" pos="180" pan="0" len="12" vol="100" />
          <note key="60" pos="372" pan="0" len="12" vol="100" />
          <note key="60" pos="564" pan="0" len="12" vol="100" />
          <note key="60" pos="756" pan="0" len="12" vol="100" />
        </pattern>
        <pattern pos="9216" muted="0" steps="16" name="" type="1">
          <note key="60" pos="180" pan="0" len="12" vol="100" />
          <note key="60" pos="372" pan="0" len="12" vol="100" />
          <note key="60" pos="564" pan="0" len="12" vol="100" />
          <note key="60" pos="756" pan="0" len="12" vol="100" />
        </pattern>
        <pattern pos="9984" muted="0" steps="16" name="" type="1">
          <note key="60" pos="180" pan="0" len="12" vol="100" />
          <note key="60" pos="372" pan="0" len="12" vol="100" />
          <note key="60" pos="564" pan="0" len="12" vol="100" />
          <note key="60" pos="756" pan="0" len="12" vol="100" />
        </pattern>
        <pattern pos="10752" muted="0" steps="16" name="" type="1">
          <note key="60" pos="180" pan="0" len="12" vol="100" />
          <note key="60" pos="372" pan="0" len="12" vol="100" />
          <note key="60" pos="564" pan="0" len="12" vol="100" />
        </pattern>
        <pattern pos="11520" muted="0" steps="16" name="" type="1">
          <note key="60" pos="180" pan="0" len="12" vol="100" />
          <note key="60" pos="372" pan="0" len="12" vol="100" />
          <note key="60" pos="564" pan="0" len="12" vol="100" />
          <note key="60" pos="756" pan="0" len="12" vol="100" />
          <note key="60" pos="948" pan="0" len="12" vol="100" />
          <note key="60" pos="1140" pan="0" len="12" vol="100" />
          <note key="60" pos="1332" pan="0" len="12" vol="100" />
          <note key="60" pos="1524" pan="0" len="12" vol="100" />
        </pattern>
        <pattern pos="13056" muted="0" steps="16" name="" type="1">
          <note key="60" pos="180" pan="0" len="12" vol="100" />
          <note key="60" pos="372" pan="0" len="12" vol="100" />
          <note key="60" pos="564" pan="0" len="12" vol="100" />
          <note key="60" pos="756" pan="0" len="12" vol="100" />
          <note key="60" pos="948" pan="0" len="12" vol="100" />
          <note key="60" pos="1140" pan="0" len="12" vol="100" />
          <note key="60" pos="1332" pan="0" len="12" vol="100" />
        </pattern>
        <pattern pos="14592" muted="0" steps="16" name="" type="1">
          <note key="60" pos="180" pan="0" len="12" vol="100" />
          <note key="60" pos="372" pan="0" len="12" vol="100" />
          <note key="60" pos="564" pan="0" len="12" vol="100" />
          <note key="60" pos="756" pan="0" len="12" vol="100" />
          <note key="60" pos="948" pan="0" len="12" vol="100" />
          <note key="60" pos="1140" pan="0" len="12" vol="100" />
          <note key="60" pos="1332" pan="0" len="12" vol="100" />
          <note key="60" pos="1524" pan="0" len="12" vol="100" />
        </pattern>
      </track>
      <track solo="0" name="39 (Ch2)" type="0" muted="0">
        <instrumenttrack usemasterpitch="1" pitch="0.0" basenote="57" pan="0" pitchrange="12" vol="30">
          <eldata />
          <instrument name="tripleoscillator" />
        </instrumenttrack>
        <pattern pos="267648" muted="0" steps="16" name="" type="1">
          <note key="63" pos="96" pan="0" len="12" vol="100" />
          <note key="63" pos="288" pan="0" len="12" vol="100" />
          <note key="65" pos="480" pan="0" len="12" vol="100" />
          <note key="65" pos="672" pan="0" len="12" vol="100" />
          <note key="63" pos="864" pan="0" len="12" vol="100" />
          <note key="63" pos="1056" pan="0" len="12" vol="100" />
          <note key="65" pos="1248" pan="0" len="12" vol="100" />
          <note key="65" pos="1440" pan="0" len="12" vol="100" />
        </pattern>
        <pattern pos="76800" muted="0" steps="16" name="" type="1">
          <note key="60" pos="36" pan="0" len="12" vol="100" />
          <note key="60" pos="228" pan="0" len="12" vol="100" />
          <note key="60" pos="420" pan="0" len="12" vol="100" />
          <note key="60" pos="612" pan="0" len="12" vol="100" />
        </pattern>
        <pattern pos="77568" muted="0" steps="16" name="" type="1">
          <note key="60" pos="36" pan="0" len="12" vol="100" />
          <note key="60" pos="228" pan="0" len="12" vol="100" />
          <note key="60" pos="420" pan="0" len="12" vol="100" />
          <note key="60" pos="612" pan="0" len="12" vol="100" />
        </pattern>
        <pattern pos="78336" muted="0" steps="16" name="" type="1">
          <note key="60" pos="36" pan="0" len="12" vol="100" />
          <note key="60" pos="228" pan="0" len="12" vol="100" />
          <note key="60" pos="420" pan="0" len="12" vol="100" />
          <note key="60" pos="612" pan="0" len="12" vol="100" />
        </pattern>
        <pattern pos="79104" muted="0" steps="16" name="" type="1">
          <note key="60" pos="36" pan="0" len="12" vol="100" />
          <note key="60" pos="228" pan="0" len="12" vol="100" />
          <note key="60" pos="420" pan="0" len="12" vol="100" />
          <note key="60" pos="612" pan="0" len="12" vol="100" />
        </pattern>
        <pattern pos="79872" muted="0" steps="16" name="" type="1">
          <note key="60" pos="36" pan="0" len="12" vol="100" />
          <note key="60" pos="228" pan="0" len="12" vol="100" />
          <note key="60" pos="420" pan="0" len="12" vol="100" />
          <note key="60" pos="612" pan="0" len="12" vol="100" />
        </pattern>
        <pattern pos="80640" muted="0" steps="16" name="" type="1">
          <note key="60" pos="36" pan="0" len="12" vol="100" />
          <note key="60" pos="228" pan="0" len="12" vol="100" />
          <note key="60" pos="420" pan="0" len="12" vol="100" />
          <note key="60" pos="612" pan="0" len="12" vol="100" />
        </pattern>
        <pattern pos="81408" muted="0" steps="16" name="" type="1">
          <note key="60" pos="36" pan="0" len="12" vol="100" />
          <note key="60" pos="228" pan="0" len="12" vol="100" />
          <note key="60" pos="420" pan="0" len="12" vol="100" />
          <note key="60" pos="612" pan="0" len="12" vol="100" />
        </pattern>
        <pattern pos="82176" muted="0" steps="16" name="" type="1">
          <note key="60" pos="36" pan="0" len="12" vol="100" />
          <note key="60" pos="228" pan="0" len="12" vol="100" />
          <note key="60" pos="420" pan="0" len="12" vol="100" />
          <note key="60" pos="612" pan="0" len="12" vol="100" />
        </pattern>
        <pattern pos="82944" muted="0" steps="16" name="" type="1">
          <note key="60" pos="36" pan="0" len="12" vol="100" />
          <note key="60" pos="228" pan="0" len="12" vol="100" />
          <note key="60" pos="420" pan="0" len="12" vol="100" />
          <note key="60" pos="612" pan="0" len="12" vol="100" />
        </pattern>
        <pattern pos="83712" muted="0" steps="16" name="" type="1">
          <note key="60" pos="36" pan="0" len="12" vol="100" />
          <note key="60" pos="228" pan="0" len="12" vol="100" />
          <note key="60" pos="420" pan="0" len="12" vol="100" />
          <note key="60" pos="612" pan="0" len="12" vol="100" />
        </pattern>
        <pattern pos="86016" muted="0" steps="16" name="" type="1">
          <note key="60" pos="36" pan="0" len="12" vol="100" />
          <note key="60" pos="228" pan="0" len="12" vol="100" />
          <note key="60" pos="420" pan="0" len="12" vol="100" />
          <note key="60" pos="612" pan="0" len="12" vol="100" />
        </pattern>
        <pattern pos="86784" muted="0" steps="16" name="" type="1">
          <note key="60" pos="36" pan="0" len="12" vol="100" />
          <note key="60" pos="228" pan="0" len="12" vol="100" />
          <note key="60" pos="420" pan="0" len="12" vol="100" />
          <note key="60" pos="612" pan="0" len="12" vol="100" />
        </pattern>
        <pattern pos="87552" muted="0" steps="16" name="" type="1">
          <note key="60" pos="36" pan="0" len="12" vol="100" />
          <note key="60" pos="228" pan="0" len="12" vol="100" />
          <note key="60" pos="420" pan="0" len="12" vol="100" />
          <note key="60" pos="612" pan="0" len="12" vol="100" />
        </pattern>
        <pattern pos="88320" muted="0" steps="16" name="" type="1">
          <note key="60" pos="36" pan="0" len="12" vol="100" />
          <note key="60" pos="228" pan="0" len="12" vol="100" />
          <note key="60" pos="420" pan="0" len="12" vol="100" />
          <note key="60" pos="612" pan="0" len="12" vol="100" />
        </pattern>
        <pattern pos="89088" muted="0" steps="16" name="" type="1">
          <note key="60" pos="36" pan="0" len="12" vol="100" />
          <note key="60" pos="228" pan="0" len="12" vol="100" />
          <note key="60" pos="420" pan="0" len="12" vol="100" />
          <note key="60" pos="612" pan="0" len="12" vol="100" />
        </pattern>
        <pattern pos="89856" muted="0" steps="16" name="" type="1">
          <note key="60" pos="36" pan="0" len="12" vol="100" />
          <note key="60" pos="228" pan="0" len="12" vol="100" />
          <note key="60" pos="420" pan="0" len="12" vol="100" />
          <note key="60" pos="612" pan="0" len="12" vol="100" />
        </pattern>
        <pattern pos="90624" muted="0" steps="16" name="" type="1">
          <note key="60" pos="36" pan="0" len="12" vol="100" />
          <note key="60" pos="228" pan="0" len="12" vol="100" />
          <note key="60" pos="420" pan="0" len="12" vol="100" />
          <note key="60" pos="612" pan="0" len="12" vol="100" />
        </pattern>
        <pattern pos="91392" muted="0" steps="16" name="" type="1">
          <note key="60" pos="36" pan="0" len="12" vol="95" />
          <note key="60" pos="228" pan="0" len="12" vol="70" />
          <note key="60" pos="420" pan="0" len="12" vol="45" />
          <note key="60" pos="612" pan="0" len="12" vol="20" />
        </pattern>
        <pattern pos="141312" muted="0" steps="16" name="" type="1">
          <note key="67" pos="0" pan="0" len="24" vol="100" />
          <note key="60" pos="72" pan="0" len="24" vol="34" />
          <note key="60" pos="168" pan="0" len="24" vol="17" />
          <note key="67" pos="192" pan="0" len="24" vol="100" />
          <note key="60" pos="264" pan="0" len="24" vol="34" />
          <note key="60" pos="360" pan="0" len="24" vol="17" />
          <note key="67" pos="384" pan="0" len="24" vol="100" />
          <note key="60" pos="456" pan="0" len="24" vol="34" />
          <note key="60" pos="552" pan="0" len="24" vol="17" />
          <note key="67" pos="576" pan="0" len="24" vol="100" />
          <note key="60" pos="648" pan="0" len="24" vol="34" />
          <note key="60" pos="744" pan="0" len="24" vol="17" />
          <note key="67" pos="768" pan="0" len="24" vol="100" />
          <note key="60" pos="840" pan="0" len="24" vol="34" />
          <note key="60" pos="936" pan="0" len="24" vol="17" />
          <note key="67" pos="960" pan="0" len="24" vol="100" />
          <note key="60" pos="1032" pan="0" len="24" vol="34" />
          <note key="60" pos="1128" pan="0" len="24" vol="17" />
          <note key="67" pos="1152" pan="0" len="24" vol="100" />
          <note key="60" pos="1224" pan="0" len="24" vol="34" />
          <note key="60" pos="1320" pan="0" len="24" vol="17" />
          <note key="67" pos="1344" pan="0" len="24" vol="100" />
          <note key="60" pos="1416" pan="0" len="24" vol="34" />
          <note key="60" pos="1512" pan="0" len="24" vol="17" />
        </pattern>
        <pattern pos="142848" muted="0" steps="16" name="" type="1">
          <note key="67" pos="0" pan="0" len="24" vol="100" />
          <note key="60" pos="72" pan="0" len="24" vol="34" />
          <note key="60" pos="168" pan="0" len="24" vol="17" />
          <note key="67" pos="192" pan="0" len="24" vol="100" />
          <note key="60" pos="264" pan="0" len="24" vol="34" />
          <note key="60" pos="360" pan="0" len="24" vol="17" />
          <note key="67" pos="384" pan="0" len="24" vol="100" />
          <note key="60" pos="456" pan="0" len="24" vol="34" />
          <note key="60" pos="552" pan="0" len="24" vol="17" />
          <note key="67" pos="576" pan="0" len="24" vol="100" />
          <note key="60" pos="648" pan="0" len="24" vol="34" />
          <note key="60" pos="744" pan="0" len="24" vol="17" />
          <note key="67" pos="768" pan="0" len="24" vol="100" />
          <note key="60" pos="840" pan="0" len="24" vol="34" />
          <note key="60" pos="936" pan="0" len="24" vol="17" />
          <note key="67" pos="960" pan="0" len="24" vol="100" />
          <note key="60" pos="1032" pan="0" len="24" vol="34" />
          <note key="60" pos="1128" pan="0" len="24" vol="17" />
          <note key="67" pos="1152" pan="0" len="24" vol="100" />
          <note key="60" pos="1224" pan="0" len="24" vol="34" />
          <note key="60" pos="1320" pan="0" len="24" vol="17" />
          <note key="67" pos="1344" pan="0" len="24" vol="100" />
          <note key="60" pos="1416" pan="0" len="24" vol="34" />
          <note key="60" pos="1512" pan="0" len="24" vol="17" />
        </pattern>
        <pattern pos="144384" muted="0" steps="16" name="" type="1">
          <note key="67" pos="0" pan="0" len="24" vol="100" />
          <note key="60" pos="72" pan="0" len="24" vol="34" />
          <note key="60" pos="168" pan="0" len="24" vol="17" />
          <note key="67" pos="192" pan="0" len="24" vol="100" />
          <note key="60" pos="264" pan="0" len="24" vol="34" />
          <note key="60" pos="360" pan="0" len="24" vol="17" />
          <note key="67" pos="384" pan="0" len="24" vol="100" />
          <note key="60" pos="456" pan="0" len="24" vol="34" />
          <note key="60" pos="552" pan="0" len="24" vol="17" />
          <note key="67" pos="576" pan="0" len="24" vol="100" />
          <note key="60" pos="648" pan="0" len="24" vol="34" />
          <note key="60" pos="744" pan="0" len="24" vol="17" />
          <note key="67" pos="768" pan="0" len="24" vol="100" />
          <note key="60" pos="840" pan="0" len="24" vol="34" />
          <note key="60" pos="936" pan="0" len="24" vol="17" />
          <note key="67" pos="960" pan="0" len="24" vol="100" />
          <note key="60" pos="1032" pan="0" len="24" vol="34" />
          <note key="60" pos="1128" pan="0" len="24" vol="17" />
          <note key="67" pos="1152" pan="0" len="24" vol="100" />
          <note key="60" pos="1224" pan="0" len="24" vol="34" />
          <note key="60" pos="1320" pan="0" len="24" vol="17" />
          <note key="67" pos="1344" pan="0" len="24" vol="100" />
          <note key="60" pos="1416" pan="0" len="24" vol="34" />
          <note key="60" pos="1512" pan="0" len="24" vol="17" />
        </pattern>
        <pattern pos="145920" muted="0" steps="16" name="" type="1">
          <note key="67" pos="0" pan="0" len="24" vol="100" />
          <note key="60" pos="72" pan="0" len="24" vol="34" />
          <note key="60" pos="168" pan="0" len="24" vol="17" />
          <note key="67" pos="192" pan="0" len="24" vol="100" />
          <note key="60" pos="264" pan="0" len="24" vol="34" />
          <note key="60" pos="360" pan="0" len="24" vol="17" />
          <note key="67" pos="384" pan="0" len="24" vol="100" />
          <note key="60" pos="456" pan="0" len="24" vol="34" />
          <note key="60" pos="552" pan="0" len="24" vol="17" />
          <note key="67" pos="576" pan="0" len="24" vol="100" />
          <note key="60" pos="648" pan="0" len="24" vol="34" />
          <note key="60" pos="744" pan="0" len="24" vol="17" />
          <note key="67" pos="768" pan="0" len="24" vol="100" />
          <note key="60" pos="840" pan="0" len="24" vol="34" />
          <note key="60" pos="936" pan="0" len="24" vol="17" />
          <note key="67" pos="960" pan="0" len="24" vol="100" />
          <note key="60" pos="1032" pan="0" len="24" vol="34" />
          <note key="60" pos="1128" pan="0" len="24" vol="17" />
          <note key="67" pos="1152" pan="0" len="24" vol="100" />
          <note key="60" pos="1224" pan="0" len="24" vol="34" />
          <note key="60" pos="1320" pan="0" len="24" vol="17" />
          <note key="67" pos="1344" pan="0" len="24" vol="100" />
          <note key="60" pos="1416" pan="0" len="24" vol="34" />
          <note key="60" pos="1512" pan="0" len="24" vol="17" />
        </pattern>
        <pattern pos="147456" muted="0" steps="16" name="" type="1">
          <note key="67" pos="0" pan="0" len="24" vol="100" />
          <note key="60" pos="72" pan="0" len="24" vol="34" />
          <note key="60" pos="168" pan="0" len="24" vol="17" />
          <note key="67" pos="192" pan="0" len="24" vol="100" />
          <note key="60" pos="264" pan="0" len="24" vol="34" />
          <note key="60" pos="360" pan="0" len="24" vol="17" />
          <note key="67" pos="384" pan="0" len="24" vol="100" />
          <note key="60" pos="456" pan="0" len="24" vol="34" />
          <note key="60" pos="552" pan="0" len="24" vol="17" />
          <note key="67" pos="576" pan="0" len="24" vol="100" />
          <note key="60" pos="648" pan="0" len="24" vol="34" />
          <note key="60" pos="744" pan="0" len="24" vol="17" />
          <note key="67" pos="768" pan="0" len="24" vol="100" />
          <note key="60" pos="840" pan="0" len="24" vol="34" />
          <note key="60" pos="936" pan="0" len="24" vol="17" />
          <note key="67" pos="960" pan="0" len="24" vol="100" />
          <note key="60" pos="1032" pan="0" len="24" vol="34" />
          <note key="60" pos="1128" pan="0" len="24" vol="17" />
          <note key="67" pos="1152" pan="0" len="24" vol="100" />
          <note key="60" pos="1224" pan="0" len="24" vol="34" />
          <note key="60" pos="1320" pan="0" len="24" vol="17" />
          <note key="67" pos="1344" pan="0" len="24" vol="100" />
          <note key="60" pos="1416" pan="0" len="24" vol="34" />
          <note key="60" pos="1512" pan="0" len="24" vol="17" />
        </pattern>
        <pattern pos="148992" muted="0" steps="16" name="" type="1">
          <note key="67" pos="0" pan="0" len="24" vol="100" />
          <note key="60" pos="72" pan="0" len="24" vol="34" />
          <note key="60" pos="168" pan="0" len="24" vol="17" />
          <note key="67" pos="192" pan="0" len="24" vol="100" />
          <note key="60" pos="264" pan="0" len="24" vol="34" />
          <note key="60" pos="360" pan="0" len="24" vol="17" />
          <note key="67" pos="384" pan="0" len="24" vol="100" />
          <note key="60" pos="456" pan="0" len="24" vol="34" />
          <note key="60" pos="552" pan="0" len="24" vol="17" />
          <note key="67" pos="576" pan="0" len="24" vol="100" />
          <note key="60" pos="648" pan="0" len="24" vol="34" />
          <note key="60" pos="744" pan="0" len="24" vol="17" />
          <note key="67" pos="768" pan="0" len="24" vol="100" />
          <note key="60" pos="840" pan="0" len="24" vol="34" />
          <note key="60" pos="936" pan="0" len="24" vol="17" />
          <note key="67" pos="960" pan="0" len="24" vol="100" />
          <note key="60" pos="1032" pan="0" len="24" vol="34" />
          <note key="60" pos="1128" pan="0" len="24" vol="17" />
          <note key="67" pos="1152" pan="0" len="24" vol="100" />
          <note key="60" pos="1224" pan="0" len="24" vol="34" />
          <note key="60" pos="1320" pan="0" len="24" vol="17" />
          <note key="67" pos="1344" pan="0" len="24" vol="100" />
          <note key="60" pos="1416" pan="0" len="24" vol="34" />
          <note key="60" pos="1512" pan="0" len="24" vol="17" />
        </pattern>
        <pattern pos="150528" muted="0" steps="16" name="" type="1">
          <note key="67" pos="0" pan="0" len="24" vol="100" />
          <note key="60" pos="72" pan="0" len="24" vol="34" />
          <note key="60" pos="168" pan="0" len="24" vol="17" />
          <note key="67" pos="192" pan="0" len="24" vol="100" />
          <note key="60" pos="264" pan="0" len="24" vol="34" />
          <note key="60" pos="360" pan="0" len="24" vol="17" />
          <note key="67" pos="384" pan="0" len="24" vol="100" />
          <note key="60" pos="456" pan="0" len="24" vol="34" />
          <note key="60" pos="552" pan="0" len="24" vol="17" />
          <note key="67" pos="576" pan="0" len="24" vol="100" />
          <note key="60" pos="648" pan="0" len="24" vol="34" />
          <note key="60" pos="744" pan="0" len="24" vol="17" />
          <note key="67" pos="768" pan="0" len="24" vol="100" />
          <note key="60" pos="840" pan="0" len="24" vol="34" />
          <note key="60" pos="936" pan="0" len="24" vol="17" />
          <note key="67" pos="960" pan="0" len="24" vol="100" />
          <note key="60" pos="1032" pan="0" len="24" vol="34" />
          <note key="60" pos="1128" pan="0" len="24" vol="17" />
          <note key="67" pos="1152" pan="0" len="24" vol="100" />
          <note key="60" pos="1224" pan="0" len="24" vol="34" />
          <note key="60" pos="1320" pan="0" len="24" vol="17" />
          <note key="67" pos="1344" pan="0" len="24" vol="100" />
          <note key="60" pos="1416" pan="0" len="24" vol="34" />
          <note key="60" pos="1512" pan="0" len="24" vol="17" />
        </pattern>
        <pattern pos="152064" muted="0" steps="16" name="" type="1">
          <note key="67" pos="0" pan="0" len="24" vol="100" />
          <note key="60" pos="72" pan="0" len="24" vol="34" />
          <note key="60" pos="168" pan="0" len="24" vol="17" />
          <note key="67" pos="192" pan="0" len="24" vol="100" />
          <note key="60" pos="264" pan="0" len="24" vol="34" />
          <note key="60" pos="360" pan="0" len="24" vol="17" />
          <note key="67" pos="384" pan="0" len="24" vol="100" />
          <note key="60" pos="456" pan="0" len="24" vol="34" />
          <note key="60" pos="552" pan="0" len="24" vol="17" />
          <note key="67" pos="576" pan="0" len="24" vol="100" />
          <note key="60" pos="648" pan="0" len="24" vol="34" />
          <note key="60" pos="744" pan="0" len="24" vol="17" />
          <note key="67" pos="768" pan="0" len="24" vol="100" />
          <note key="60" pos="840" pan="0" len="24" vol="34" />
          <note key="60" pos="936" pan="0" len="24" vol="17" />
          <note key="67" pos="960" pan="0" len="24" vol="100" />
          <note key="60" pos="1032" pan="0" len="24" vol="34" />
          <note key="60" pos="1128" pan="0" len="24" vol="17" />
          <note key="67" pos="1152" pan="0" len="24" vol="100" />
          <note key="60" pos="1224" pan="0" len="24" vol="34" />
          <note key="60" pos="1320" pan="0" len="24" vol="17" />
          <note key="67" pos="1344" pan="0" len="24" vol="100" />
          <note key="60" pos="1416" pan="0" len="24" vol="34" />
          <note key="60" pos="1512" pan="0" len="24" vol="17" />
        </pattern>
        <pattern pos="153600" muted="0" steps="16" name="" type="1">
          <note key="67" pos="0" pan="0" len="24" vol="100" />
          <note key="60" pos="72" pan="0" len="24" vol="34" />
          <note key="60" pos="168" pan="0" len="24" vol="17" />
          <note key="67" pos="192" pan="0" len="24" vol="100" />
          <note key="60" pos="264" pan="0" len="24" vol="34" />
          <note key="60" pos="360" pan="0" len="24" vol="17" />
          <note key="67" pos="384" pan="0" len="24" vol="100" />
          <note key="60" pos="456" pan="0" len="24" vol="34" />
          <note key="60" pos="552" pan="0" len="24" vol="17" />
          <note key="67" pos="576" pan="0" len="24" vol="100" />
          <note key="60" pos="648" pan="0" len="24" vol="34" />
          <note key="60" pos="744" pan="0" len="24" vol="17" />
          <note key="67" pos="768" pan="0" len="24" vol="100" />
          <note key="60" pos="840" pan="0" len="24" vol="34" />
          <note key="60" pos="936" pan="0" len="24" vol="17" />
          <note key="67" pos="960" pan="0" len="24" vol="100" />
          <note key="60" pos="1032" pan="0" len="24" vol="34" />
          <note key="60" pos="1128" pan="0" len="24" vol="17" />
          <note key="67" pos="1152" pan="0" len="24" vol="100" />
          <note key="60" pos="1224" pan="0" len="24" vol="34" />
          <note key="60" pos="1320" pan="0" len="24" vol="17" />
          <note key="67" pos="1344" pan="0" len="24" vol="100" />
          <note key="60" pos="1416" pan="0" len="24" vol="34" />
          <note key="60" pos="1512" pan="0" len="24" vol="17" />
        </pattern>
        <pattern pos="155136" muted="0" steps="16" name="" type="1">
          <note key="67" pos="0" pan="0" len="24" vol="100" />
          <note key="60" pos="72" pan="0" len="24" vol="34" />
          <note key="60" pos="168" pan="0" len="24" vol="17" />
          <note key="67" pos="192" pan="0" len="24" vol="100" />
          <note key="60" pos="264" pan="0" len="24" vol="34" />
          <note key="60" pos="360" pan="0" len="24" vol="17" />
          <note key="67" pos="384" pan="0" len="24" vol="100" />
          <note key="60" pos="456" pan="0" len="24" vol="34" />
          <note key="60" pos="552" pan="0" len="24" vol="17" />
          <note key="67" pos="576" pan="0" len="24" vol="100" />
          <note key="60" pos="648" pan="0" len="24" vol="34" />
          <note key="60" pos="744" pan="0" len="24" vol="17" />
          <note key="67" pos="768" pan="0" len="24" vol="100" />
          <note key="60" pos="840" pan="0" len="24" vol="34" />
          <note key="60" pos="936" pan="0" len="24" vol="17" />
          <note key="67" pos="960" pan="0" len="24" vol="100" />
          <note key="60" pos="1032" pan="0" len="24" vol="34" />
          <note key="60" pos="1128" pan="0" len="24" vol="17" />
          <note key="67" pos="1152" pan="0" len="24" vol="100" />
          <note key="60" pos="1224" pan="0" len="24" vol="34" />
          <note key="60" pos="1320" pan="0" len="24" vol="17" />
          <note key="67" pos="1344" pan="0" len="24" vol="100" />
          <note key="60" pos="1416" pan="0" len="24" vol="34" />
          <note key="60" pos="1512" pan="0" len="24" vol="17" />
        </pattern>
        <pattern pos="156672" muted="0" steps="16" name="" type="1">
          <note key="67" pos="0" pan="0" len="24" vol="100" />
          <note key="60" pos="72" pan="0" len="24" vol="34" />
          <note key="60" pos="168" pan="0" len="24" vol="17" />
          <note key="67" pos="192" pan="0" len="24" vol="100" />
          <note key="60" pos="264" pan="0" len="24" vol="34" />
          <note key="60" pos="360" pan="0" len="24" vol="17" />
          <note key="67" pos="384" pan="0" len="24" vol="100" />
          <note key="60" pos="456" pan="0" len="24" vol="34" />
          <note key="60" pos="552" pan="0" len="24" vol="17" />
          <note key="67" pos="576" pan="0" len="24" vol="100" />
          <note key="60" pos="648" pan="0" len="24" vol="34" />
          <note key="60" pos="744" pan="0" len="24" vol="17" />
          <note key="67" pos="768" pan="0" len="24" vol="100" />
          <note key="60" pos="840" pan="0" len="24" vol="34" />
          <note key="60" pos="936" pan="0" len="24" vol="17" />
          <note key="67" pos="960" pan="0" len="24" vol="100" />
          <note key="60" pos="1032" pan="0" len="24" vol="34" />
          <note key="60" pos="1128" pan="0" len="24" vol="17" />
          <note key="67" pos="1152" pan="0" len="24" vol="100" />
          <note key="60" pos="1224" pan="0" len="24" vol="34" />
          <note key="60" pos="1320" pan="0" len="24" vol="17" />
          <note key="67" pos="1344" pan="0" len="24" vol="100" />
          <note key="60" pos="1416" pan="0" len="24" vol="34" />
          <note key="60" pos="1512" pan="0" len="24" vol="17" />
        </pattern>
        <pattern pos="158208" muted="0" steps="16" name="" type="1">
          <note key="67" pos="0" pan="0" len="24" vol="100" />
          <note key="60" pos="72" pan="0" len="24" vol="34" />
          <note key="60" pos="168" pan="0" len="24" vol="17" />
          <note key="67" pos="192" pan="0" len="24" vol="100" />
          <note key="60" pos="264" pan="0" len="24" vol="34" />
          <note key="60" pos="360" pan="0" len="24" vol="17" />
          <note key="67" pos="384" pan="0" len="24" vol="100" />
          <note key="60" pos="456" pan="0" len="24" vol="34" />
          <note key="60" pos="552" pan="0" len="24" vol="17" />
          <note key="67" pos="576" pan="0" len="24" vol="100" />
          <note key="60" pos="648" pan="0" len="24" vol="34" />
          <note key="60" pos="744" pan="0" len="24" vol="17" />
          <note key="67" pos="768" pan="0" len="24" vol="100" />
          <note key="60" pos="840" pan="0" len="24" vol="34" />
          <note key="60" pos="936" pan="0" len="24" vol="17" />
          <note key="67" pos="960" pan="0" len="24" vol="100" />
          <note key="60" pos="1032" pan="0" len="24" vol="34" />
          <note key="60" pos="1128" pan="0" len="24" vol="17" />
          <note key="67" pos="1152" pan="0" len="24" vol="100" />
          <note key="60" pos="1224" pan="0" len="24" vol="34" />
          <note key="60" pos="1320" pan="0" len="24" vol="17" />
          <note key="67" pos="1344" pan="0" len="24" vol="100" />
          <note key="60" pos="1416" pan="0" len="24" vol="34" />
          <note key="60" pos="1512" pan="0" len="24" vol="17" />
        </pattern>
        <pattern pos="159744" muted="0" steps="16" name="" type="1">
          <note key="67" pos="0" pan="0" len="24" vol="100" />
          <note key="60" pos="72" pan="0" len="24" vol="34" />
          <note key="60" pos="168" pan="0" len="24" vol="17" />
          <note key="67" pos="192" pan="0" len="24" vol="100" />
          <note key="60" pos="264" pan="0" len="24" vol="34" />
          <note key="60" pos="360" pan="0" len="24" vol="17" />
          <note key="67" pos="384" pan="0" len="24" vol="100" />
          <note key="60" pos="456" pan="0" len="24" vol="34" />
          <note key="60" pos="552" pan="0" len="24" vol="17" />
          <note key="67" pos="576" pan="0" len="24" vol="100" />
          <note key="60" pos="648" pan="0" len="24" vol="34" />
          <note key="60" pos="744" pan="0" len="24" vol="17" />
          <note key="67" pos="768" pan="0" len="24" vol="100" />
          <note key="60" pos="840" pan="0" len="24" vol="34" />
          <note key="60" pos="936" pan="0" len="24" vol="17" />
          <note key="67" pos="960" pan="0" len="24" vol="100" />
          <note key="60" pos="1032" pan="0" len="24" vol="34" />
          <note key="60" pos="1128" pan="0" len="24" vol="17" />
          <note key="67" pos="1152" pan="0" len="24" vol="100" />
          <note key="60" pos="1224" pan="0" len="24" vol="34" />
          <note key="60" pos="1320" pan="0" len="24" vol="17" />
          <note key="67" pos="1344" pan="0" len="24" vol="100" />
          <note key="60" pos="1416" pan="0" len="24" vol="34" />
          <note key="60" pos="1512" pan="0" len="24" vol="17" />
        </pattern>
        <pattern pos="161280" muted="0" steps="16" name="" type="1">
          <note key="67" pos="0" pan="0" len="24" vol="100" />
          <note key="60" pos="72" pan="0" len="24" vol="34" />
          <note key="60" pos="168" pan="0" len="24" vol="17" />
          <note key="67" pos="192" pan="0" len="24" vol="100" />
          <note key="60" pos="264" pan="0" len="24" vol="34" />
          <note key="60" pos="360" pan="0" len="24" vol="17" />
          <note key="67" pos="384" pan="0" len="24" vol="100" />
          <note key="60" pos="456" pan="0" len="24" vol="34" />
          <note key="60" pos="552" pan="0" len="24" vol="17" />
          <note key="67" pos="576" pan="0" len="24" vol="100" />
          <note key="60" pos="648" pan="0" len="24" vol="34" />
          <note key="60" pos="744" pan="0" len="24" vol="17" />
          <note key="67" pos="768" pan="0" len="24" vol="100" />
          <note key="60" pos="840" pan="0" len="24" vol="31" />
          <note key="60" pos="936" pan="0" len="24" vol="14" />
          <note key="67" pos="960" pan="0" len="24" vol="75" />
          <note key="60" pos="1032" pan="0" len="24" vol="22" />
          <note key="60" pos="1128" pan="0" len="24" vol="9" />
          <note key="67" pos="1152" pan="0" len="24" vol="50" />
          <note key="60" pos="1224" pan="0" len="24" vol="14" />
          <note key="60" pos="1320" pan="0" len="24" vol="5" />
          <note key="67" pos="1344" pan="0" len="24" vol="25" />
          <note key="60" pos="1416" pan="0" len="24" vol="5" />
          <note key="60" pos="1512" pan="0" len="24" vol="0" />
        </pattern>
        <pattern pos="259968" muted="0" steps="16" name="" type="1">
          <note key="65" pos="96" pan="0" len="12" vol="100" />
          <note key="65" pos="288" pan="0" len="12" vol="100" />
          <note key="65" pos="480" pan="0" len="12" vol="100" />
          <note key="65" pos="672" pan="0" len="12" vol="100" />
        </pattern>
        <pattern pos="260736" muted="0" steps="16" name="" type="1">
          <note key="65" pos="96" pan="0" len="12" vol="100" />
          <note key="65" pos="288" pan="0" len="12" vol="100" />
          <note key="65" pos="480" pan="0" len="12" vol="100" />
          <note key="65" pos="672" pan="0" len="12" vol="100" />
        </pattern>
        <pattern pos="261504" muted="0" steps="16" name="" type="1">
          <note key="56" pos="96" pan="0" len="12" vol="100" />
          <note key="56" pos="288" pan="0" len="12" vol="100" />
          <note key="56" pos="480" pan="0" len="12" vol="100" />
          <note key="56" pos="672" pan="0" len="12" vol="100" />
        </pattern>
        <pattern pos="262272" muted="0" steps="16" name="" type="1">
          <note key="56" pos="96" pan="0" len="12" vol="100" />
          <note key="56" pos="288" pan="0" len="12" vol="100" />
          <note key="56" pos="480" pan="0" len="12" vol="100" />
          <note key="56" pos="672" pan="0" len="12" vol="100" />
        </pattern>
        <pattern pos="263040" muted="0" steps="16" name="" type="1">
          <note key="55" pos="96" pan="0" len="12" vol="100" />
          <note key="55" pos="288" pan="0" len="12" vol="100" />
          <note key="55" pos="480" pan="0" len="12" vol="100" />
          <note key="55" pos="672" pan="0" len="12" vol="100" />
        </pattern>
        <pattern pos="263808" muted="0" steps="16" name="" type="1">
          <note key="55" pos="96" pan="0" len="12" vol="100" />
          <note key="55" pos="288" pan="0" len="12" vol="100" />
          <note key="55" pos="480" pan="0" len="12" vol="100" />
          <note key="55" pos="672" pan="0" len="12" vol="100" />
        </pattern>
        <pattern pos="264576" muted="0" steps="16" name="" type="1">
          <note key="65" pos="96" pan="0" len="12" vol="100" />
          <note key="65" pos="288" pan="0" len="12" vol="100" />
          <note key="65" pos="480" pan="0" len="12" vol="100" />
          <note key="65" pos="672" pan="0" len="12" vol="100" />
        </pattern>
        <pattern pos="265344" muted="0" steps="16" name="" type="1">
          <note key="65" pos="96" pan="0" len="12" vol="100" />
          <note key="65" pos="288" pan="0" len="12" vol="100" />
          <note key="65" pos="480" pan="0" len="12" vol="100" />
          <note key="65" pos="672" pan="0" len="12" vol="100" />
        </pattern>
        <pattern pos="266112" muted="0" steps="16" name="" type="1">
          <note key="65" pos="96" pan="0" len="12" vol="100" />
          <note key="65" pos="288" pan="0" len="12" vol="100" />
          <note key="60" pos="480" pan="0" len="12" vol="100" />
          <note key="60" pos="672" pan="0" len="12" vol="100" />
          <note key="65" pos="864" pan="0" len="12" vol="100" />
          <note key="65" pos="1056" pan="0" len="12" vol="100" />
          <note key="60" pos="1248" pan="0" len="12" vol="100" />
          <note key="60" pos="1440" pan="0" len="12" vol="100" />
        </pattern>
      </track>
      <track solo="0" name="39 (Ch3)" type="0" muted="0">
        <instrumenttrack usemasterpitch="1" pitch="0.0" basenote="57" pan="0" pitchrange="12" vol="30">
          <eldata />
          <instrument name="tripleoscillator" />
        </instrumenttrack>
        <pattern pos="215040" muted="0" steps="16" name="" type="1">
          <note key="66" pos="0" pan="0" len="768" vol="100" />
          <note key="66" pos="768" pan="0" len="384" vol="100" />
        </pattern>
        <pattern pos="768" muted="0" steps="16" name="" type="1">
          <note key="55" pos="96" pan="0" len="24" vol="100" />
          <note key="55" pos="480" pan="0" len="24" vol="100" />
        </pattern>
        <pattern pos="1536" muted="0" steps="16" name="" type="1">
          <note key="55" pos="96" pan="0" len="24" vol="100" />
          <note key="55" pos="480" pan="0" len="24" vol="100" />
        </pattern>
        <pattern pos="2304" muted="0" steps="16" name="" type="1">
          <note key="55" pos="96" pan="0" len="24" vol="100" />
          <note key="55" pos="480" pan="0" len="24" vol="100" />
        </pattern>
        <pattern pos="3072" muted="0" steps="16" name="" type="1">
          <note key="55" pos="96" pan="0" len="24" vol="100" />
          <note key="55" pos="480" pan="0" len="24" vol="100" />
        </pattern>
        <pattern pos="29568" muted="0" steps="16" name="" type="1">
          <note key="60" pos="0" pan="0" len="12" vol="100" />
          <note key="60" pos="288" pan="0" len="12" vol="100" />
          <note key="60" pos="576" pan="0" len="12" vol="100" />
          <note key="60" pos="864" pan="0" len="12" vol="100" />
        </pattern>
        <pattern pos="30720" muted="0" steps="16" name="" type="1">
          <note key="60" pos="0" pan="0" len="12" vol="100" />
          <note key="60" pos="288" pan="0" len="12" vol="100" />
          <note key="60" pos="576" pan="0" len="12" vol="100" />
          <note key="60" pos="864" pan="0" len="12" vol="100" />
        </pattern>
        <pattern pos="31872" muted="0" steps="16" name="" type="1">
          <note key="60" pos="0" pan="0" len="12" vol="100" />
          <note key="60" pos="288" pan="0" len="12" vol="100" />
          <note key="60" pos="576" pan="0" len="12" vol="100" />
          <note key="60" pos="864" pan="0" len="12" vol="100" />
        </pattern>
        <pattern pos="33024" muted="0" steps="16" name="" type="1">
          <note key="60" pos="0" pan="0" len="12" vol="100" />
          <note key="60" pos="288" pan="0" len="12" vol="100" />
          <note key="60" pos="576" pan="0" len="12" vol="100" />
          <note key="60" pos="864" pan="0" len="12" vol="100" />
        </pattern>
        <pattern pos="36480" muted="0" steps="16" name="" type="1">
          <note key="60" pos="0" pan="0" len="12" vol="100" />
          <note key="60" pos="288" pan="0" len="12" vol="100" />
          <note key="60" pos="576" pan="0" len="12" vol="100" />
          <note key="60" pos="864" pan="0" len="12" vol="100" />
        </pattern>
        <pattern pos="37632" muted="0" steps="16" name="" type="1">
          <note key="60" pos="0" pan="0" len="12" vol="100" />
          <note key="60" pos="288" pan="0" len="12" vol="100" />
          <note key="60" pos="576" pan="0" len="12" vol="100" />
          <note key="60" pos="864" pan="0" len="12" vol="100" />
        </pattern>
        <pattern pos="38784" muted="0" steps="16" name="" type="1">
          <note key="60" pos="0" pan="0" len="12" vol="100" />
          <note key="60" pos="288" pan="0" len="12" vol="100" />
          <note key="60" pos="576" pan="0" len="12" vol="100" />
          <note key="60" pos="864" pan="0" len="12" vol="100" />
        </pattern>
        <pattern pos="39936" muted="0" steps="16" name="" type="1">
          <note key="60" pos="0" pan="0" len="12" vol="100" />
          <note key="60" pos="288" pan="0" len="12" vol="100" />
          <note key="60" pos="576" pan="0" len="12" vol="100" />
          <note key="60" pos="864" pan="0" len="12" vol="100" />
        </pattern>
        <pattern pos="92160" muted="0" steps="16" name="" type="1">
          <note key="60" pos="336" pan="0" len="24" vol="100" />
          <note key="60" pos="720" pan="0" len="720" vol="100" />
        </pattern>
        <pattern pos="116736" muted="0" steps="16" name="" type="1">
          <note key="60" pos="48" pan="0" len="24" vol="100" />
          <note key="60" pos="432" pan="0" len="24" vol="100" />
          <note key="60" pos="816" pan="0" len="24" vol="100" />
          <note key="60" pos="1200" pan="0" len="24" vol="100" />
        </pattern>
        <pattern pos="118272" muted="0" steps="16" name="" type="1">
          <note key="60" pos="48" pan="0" len="24" vol="100" />
          <note key="60" pos="432" pan="0" len="24" vol="100" />
          <note key="60" pos="816" pan="0" len="24" vol="100" />
          <note key="60" pos="1200" pan="0" len="24" vol="100" />
        </pattern>
        <pattern pos="198144" muted="0" steps="16" name="" type="1">
          <note key="64" pos="0" pan="0" len="384" vol="100" />
          <note key="64" pos="384" pan="0" len="384" vol="100" />
          <note key="64" pos="768" pan="0" len="384" vol="100" />
          <note key="64" pos="1152" pan="0" len="384" vol="100" />
        </pattern>
        <pattern pos="199680" muted="0" steps="16" name="" type="1">
          <note key="64" pos="0" pan="0" len="384" vol="100" />
          <note key="64" pos="384" pan="0" len="384" vol="100" />
          <note key="64" pos="768" pan="0" len="384" vol="100" />
          <note key="64" pos="1152" pan="0" len="384" vol="100" />
        </pattern>
        <pattern pos="201216" muted="0" steps="16" name="" type="1">
          <note key="64" pos="0" pan="0" len="768" vol="100" />
          <note key="64" pos="768" pan="0" len="768" vol="100" />
        </pattern>
        <pattern pos="202752" muted="0" steps="16" name="" type="1">
          <note key="64" pos="0" pan="0" len="768" vol="100" />
          <note key="64" pos="768" pan="0" len="528" vol="100" />
        </pattern>
        <pattern pos="207360" muted="0" steps="16" name="" type="1">
          <note key="64" pos="0" pan="0" len="768" vol="100" />
          <note key="64" pos="768" pan="0" len="768" vol="100" />
        </pattern>
        <pattern pos="208896" muted="0" steps="16" name="" type="1">
          <note key="64" pos="0" pan="0" len="768" vol="100" />
          <note key="64" pos="768" pan="0" len="528" vol="100" />
        </pattern>
        <pattern pos="213504" muted="0" steps="16" name="" type="1">
          <note key="66" pos="0" pan="0" len="768" vol="100" />
          <note key="66" pos="768" pan="0" len="768" vol="100" />
        </pattern>
      </track>
      <track solo="0" name="39 (Ch5)" type="0" muted="0">
        <instrumenttrack usemasterpitch="1" pitch="0.0" basenote="57" pan="0" pitchrange="12" vol="30">
          <eldata />
          <instrument name="tripleoscillator" />
        </instrumenttrack>
        <pattern pos="28416" muted="0" steps="16" name="" type="1">
          <note key="60" pos="0" pan="0" len="12" vol="100" />
          <note key="60" pos="288" pan="0" len="12" vol="100" />
          <note key="60" pos="576" pan="0" len="12" vol="100" />
          <note key="60" pos="864" pan="0" len="12" vol="100" />
        </pattern>
        <pattern pos="17664" muted="0" steps="16" name="" type="1">
          <note key="48" pos="192" pan="0" len="24" vol="20" />
        </pattern>
        <pattern pos="20736" muted="0" steps="16" name="" type="1">
          <note key="48" pos="192" pan="0" len="24" vol="100" />
        </pattern>
        <pattern pos="22272" muted="0" steps="16" name="" type="1">
          <note key="48" pos="192" pan="0" len="24" vol="100" />
        </pattern>
        <pattern pos="23808" muted="0" steps="16" name="" type="1">
          <note key="48" pos="960" pan="0" len="24" vol="100" />
        </pattern>
      </track>
      <track solo="0" name="39 (Ch6)" type="0" muted="0">
        <instrumenttrack usemasterpitch="1" pitch="0.0" basenote="57" pan="0" pitchrange="12" vol="30">
          <eldata />
          <instrument name="tripleoscillator" />
        </instrumenttrack>
        <pattern pos="215040" muted="0" steps="16" name="" type="1">
          <note key="66" pos="648" pan="0" len="24" vol="100" />
          <note key="66" pos="696" pan="0" len="24" vol="100" />
          <note key="66" pos="1416" pan="0" len="24" vol="100" />
          <note key="66" pos="1464" pan="0" len="24" vol="100" />
        </pattern>
        <pattern pos="198144" muted="0" steps="16" name="" type="1">
          <note key="64" pos="324" pan="0" len="12" vol="100" />
          <note key="64" pos="348" pan="0" len="12" vol="100" />
          <note key="64" pos="708" pan="0" len="12" vol="100" />
          <note key="64" pos="732" pan="0" len="12" vol="100" />
          <note key="64" pos="1092" pan="0" len="12" vol="100" />
          <note key="64" pos="1116" pan="0" len="12" vol="100" />
          <note key="64" pos="1476" pan="0" len="12" vol="100" />
          <note key="64" pos="1500" pan="0" len="12" vol="100" />
        </pattern>
        <pattern pos="199680" muted="0" steps="16" name="" type="1">
          <note key="64" pos="324" pan="0" len="12" vol="100" />
          <note key="64" pos="348" pan="0" len="12" vol="100" />
          <note key="64" pos="708" pan="0" len="12" vol="100" />
          <note key="64" pos="732" pan="0" len="12" vol="100" />
          <note key="64" pos="1092" pan="0" len="12" vol="100" />
          <note key="64" pos="1116" pan="0" len="12" vol="100" />
          <note key="64" pos="1476" pan="0" len="12" vol="100" />
          <note key="64" pos="1500" pan="0" len="12" vol="100" />
        </pattern>
        <pattern pos="201216" muted="0" steps="16" name="" type="1">
          <note key="64" pos="648" pan="0" len="24" vol="100" />
          <note key="64" pos="696" pan="0" len="24" vol="100" />
          <note key="64" pos="1416" pan="0" len="24" vol="100" />
          <note key="64" pos="1464" pan="0" len="24" vol="100" />
        </pattern>
        <pattern pos="202752" muted="0" steps="16" name="" type="1">
          <note key="64" pos="648" pan="0" len="24" vol="100" />
          <note key="64" pos="696" pan="0" len="24" vol="100" />
          <note key="60" pos="1416" pan="0" len="24" vol="100" />
          <note key="59" pos="1464" pan="0" len="24" vol="100" />
        </pattern>
        <pattern pos="204288" muted="0" steps="16" name="" type="1">
          <note key="62" pos="648" pan="0" len="24" vol="100" />
          <note key="62" pos="696" pan="0" len="24" vol="100" />
          <note key="64" pos="1416" pan="0" len="24" vol="100" />
          <note key="64" pos="1464" pan="0" len="24" vol="100" />
        </pattern>
        <pattern pos="205824" muted="0" steps="16" name="" type="1">
          <note key="62" pos="648" pan="0" len="24" vol="100" />
          <note key="62" pos="696" pan="0" len="24" vol="100" />
          <note key="64" pos="1416" pan="0" len="24" vol="100" />
          <note key="64" pos="1464" pan="0" len="24" vol="100" />
        </pattern>
        <pattern pos="207360" muted="0" steps="16" name="" type="1">
          <note key="64" pos="648" pan="0" len="24" vol="100" />
          <note key="64" pos="696" pan="0" len="24" vol="100" />
          <note key="64" pos="1416" pan="0" len="24" vol="100" />
          <note key="64" pos="1464" pan="0" len="24" vol="100" />
        </pattern>
        <pattern pos="208896" muted="0" steps="16" name="" type="1">
          <note key="64" pos="648" pan="0" len="24" vol="100" />
          <note key="64" pos="696" pan="0" len="24" vol="100" />
          <note key="60" pos="1416" pan="0" len="24" vol="100" />
          <note key="59" pos="1464" pan="0" len="24" vol="100" />
        </pattern>
        <pattern pos="210432" muted="0" steps="16" name="" type="1">
          <note key="62" pos="648" pan="0" len="24" vol="100" />
          <note key="62" pos="696" pan="0" len="24" vol="100" />
          <note key="64" pos="1416" pan="0" len="24" vol="100" />
          <note key="64" pos="1464" pan="0" len="24" vol="100" />
        </pattern>
        <pattern pos="211968" muted="0" steps="16" name="" type="1">
          <note key="62" pos="648" pan="0" len="24" vol="100" />
          <note key="62" pos="696" pan="0" len="24" vol="100" />
          <note key="64" pos="1416" pan="0" len="24" vol="100" />
          <note key="64" pos="1464" pan="0" len="24" vol="100" />
        </pattern>
        <pattern pos="213504" muted="0" steps="16" name="" type="1">
          <note key="66" pos="324" pan="0" len="12" vol="100" />
          <note key="66" pos="348" pan="0" len="12" vol="100" />
          <note key="66" pos="708" pan="0" len="12" vol="100" />
          <note key="66" pos="732" pan="0" len="12" vol="100" />
          <note key="66" pos="1092" pan="0" len="12" vol="100" />
          <note key="66" pos="1116" pan="0" len="12" vol="100" />
          <note key="66" pos="1476" pan="0" len="12" vol="100" />
          <note key="66" pos="1500" pan="0" len="12" vol="100" />
        </pattern>
      </track>
      <track solo="0" name="39 (Ch7)" type="0" muted="0">
        <instrumenttrack usemasterpitch="1" pitch="0.0" basenote="57" pan="0" pitchrange="12" vol="30">
          <eldata />
          <instrument name="tripleoscillator" />
        </instrumenttrack>
        <pattern pos="175104" muted="0" steps="16" name="" type="1">
          <note key="60" pos="168" pan="0" len="24" vol="100" />
          <note key="60" pos="360" pan="0" len="24" vol="100" />
          <note key="60" pos="552" pan="0" len="24" vol="100" />
          <note key="60" pos="744" pan="0" len="24" vol="100" />
          <note key="60" pos="936" pan="0" len="24" vol="100" />
          <note key="60" pos="1128" pan="0" len="24" vol="70" />
          <note key="60" pos="1320" pan="0" len="24" vol="38" />
          <note key="60" pos="1512" pan="0" len="24" vol="5" />
        </pattern>
        <pattern pos="164352" muted="0" steps="16" name="" type="1">
          <note key="60" pos="168" pan="0" len="24" vol="100" />
          <note key="60" pos="360" pan="0" len="24" vol="100" />
          <note key="60" pos="552" pan="0" len="24" vol="100" />
          <note key="60" pos="744" pan="0" len="24" vol="100" />
          <note key="60" pos="936" pan="0" len="24" vol="100" />
          <note key="60" pos="1128" pan="0" len="24" vol="100" />
          <note key="60" pos="1320" pan="0" len="24" vol="100" />
          <note key="60" pos="1512" pan="0" len="24" vol="100" />
        </pattern>
        <pattern pos="165888" muted="0" steps="16" name="" type="1">
          <note key="60" pos="168" pan="0" len="24" vol="100" />
          <note key="60" pos="360" pan="0" len="24" vol="100" />
          <note key="60" pos="552" pan="0" len="24" vol="100" />
          <note key="60" pos="744" pan="0" len="24" vol="100" />
          <note key="60" pos="936" pan="0" len="24" vol="100" />
          <note key="60" pos="1128" pan="0" len="24" vol="100" />
          <note key="60" pos="1320" pan="0" len="24" vol="100" />
          <note key="60" pos="1512" pan="0" len="24" vol="100" />
        </pattern>
        <pattern pos="167424" muted="0" steps="16" name="" type="1">
          <note key="60" pos="168" pan="0" len="24" vol="100" />
          <note key="60" pos="360" pan="0" len="24" vol="100" />
          <note key="60" pos="552" pan="0" len="24" vol="100" />
          <note key="60" pos="744" pan="0" len="24" vol="100" />
          <note key="60" pos="936" pan="0" len="24" vol="100" />
          <note key="60" pos="1128" pan="0" len="24" vol="100" />
          <note key="60" pos="1320" pan="0" len="24" vol="100" />
          <note key="60" pos="1512" pan="0" len="24" vol="100" />
        </pattern>
        <pattern pos="168960" muted="0" steps="16" name="" type="1">
          <note key="60" pos="168" pan="0" len="24" vol="100" />
          <note key="60" pos="360" pan="0" len="24" vol="100" />
          <note key="60" pos="552" pan="0" len="24" vol="100" />
          <note key="60" pos="744" pan="0" len="24" vol="100" />
          <note key="60" pos="936" pan="0" len="24" vol="100" />
          <note key="60" pos="1128" pan="0" len="24" vol="100" />
          <note key="60" pos="1320" pan="0" len="24" vol="100" />
          <note key="60" pos="1512" pan="0" len="24" vol="100" />
        </pattern>
        <pattern pos="170496" muted="0" steps="16" name="" type="1">
          <note key="60" pos="168" pan="0" len="24" vol="100" />
          <note key="60" pos="360" pan="0" len="24" vol="100" />
          <note key="60" pos="552" pan="0" len="24" vol="100" />
          <note key="60" pos="744" pan="0" len="24" vol="100" />
          <note key="60" pos="936" pan="0" len="24" vol="100" />
          <note key="60" pos="1128" pan="0" len="24" vol="100" />
          <note key="60" pos="1320" pan="0" len="24" vol="100" />
          <note key="60" pos="1512" pan="0" len="24" vol="100" />
        </pattern>
        <pattern pos="172032" muted="0" steps="16" name="" type="1">
          <note key="60" pos="168" pan="0" len="24" vol="100" />
          <note key="60" pos="360" pan="0" len="24" vol="100" />
          <note key="60" pos="552" pan="0" len="24" vol="100" />
          <note key="60" pos="744" pan="0" len="24" vol="100" />
          <note key="60" pos="936" pan="0" len="24" vol="100" />
          <note key="60" pos="1128" pan="0" len="24" vol="100" />
          <note key="60" pos="1320" pan="0" len="24" vol="100" />
          <note key="60" pos="1512" pan="0" len="24" vol="100" />
        </pattern>
        <pattern pos="173568" muted="0" steps="16" name="" type="1">
          <note key="60" pos="168" pan="0" len="24" vol="100" />
          <note key="60" pos="360" pan="0" len="24" vol="100" />
          <note key="60" pos="552" pan="0" len="24" vol="100" />
          <note key="60" pos="744" pan="0" len="24" vol="100" />
          <note key="60" pos="936" pan="0" len="24" vol="100" />
          <note key="60" pos="1128" pan="0" len="24" vol="100" />
          <note key="60" pos="1320" pan="0" len="24" vol="100" />
          <note key="60" pos="1512" pan="0" len="24" vol="100" />
        </pattern>
      </track>
      <track solo="0" name="39 (Ch8)" type="0" muted="0">
        <instrumenttrack usemasterpitch="1" pitch="0.0" basenote="57" pan="0" pitchrange="12" vol="30">
          <eldata />
          <instrument name="tripleoscillator" />
        </instrumenttrack>
        <pattern pos="196608" muted="0" steps="16" name="" type="1">
          <note key="64" pos="1092" pan="0" len="12" vol="44" />
          <note key="64" pos="1116" pan="0" len="12" vol="47" />
          <note key="64" pos="1476" pan="0" len="12" vol="94" />
          <note key="64" pos="1500" pan="0" len="12" vol="97" />
        </pattern>
      </track>
      <track solo="0" name="39 (Ch11)" type="0" muted="0">
        <instrumenttrack usemasterpitch="1" pitch="0.0" basenote="57" pan="0" pitchrange="12" vol="30">
          <eldata />
          <instrument name="tripleoscillator" />
        </instrumenttrack>
        <pattern pos="196608" muted="0" steps="16" name="" type="1">
          <note key="64" pos="0" pan="0" len="72" vol="100" />
          <note key="64" pos="120" pan="0" len="24" vol="100" />
          <note key="64" pos="192" pan="0" len="72" vol="100" />
          <note key="64" pos="312" pan="0" len="24" vol="100" />
          <note key="64" pos="384" pan="0" len="72" vol="100" />
          <note key="64" pos="504" pan="0" len="24" vol="100" />
          <note key="64" pos="576" pan="0" len="72" vol="100" />
          <note key="64" pos="696" pan="0" len="24" vol="88" />
          <note key="64" pos="768" pan="0" len="72" vol="80" />
          <note key="64" pos="888" pan="0" len="24" vol="67" />
          <note key="64" pos="960" pan="0" len="72" vol="59" />
          <note key="64" pos="1080" pan="0" len="24" vol="47" />
          <note key="64" pos="1152" pan="0" len="72" vol="41" />
          <note key="64" pos="1272" pan="0" len="24" vol="28" />
          <note key="64" pos="1344" pan="0" len="72" vol="20" />
          <note key="64" pos="1464" pan="0" len="24" vol="8" />
        </pattern>
        <pattern pos="190464" muted="0" steps="16" name="" type="1">
          <note key="64" pos="0" pan="0" len="72" vol="100" />
          <note key="64" pos="120" pan="0" len="24" vol="100" />
          <note key="64" pos="192" pan="0" len="72" vol="100" />
          <note key="64" pos="312" pan="0" len="24" vol="100" />
          <note key="64" pos="384" pan="0" len="72" vol="100" />
          <note key="64" pos="504" pan="0" len="24" vol="100" />
          <note key="64" pos="576" pan="0" len="72" vol="100" />
          <note key="64" pos="696" pan="0" len="24" vol="100" />
          <note key="64" pos="768" pan="0" len="72" vol="100" />
          <note key="64" pos="888" pan="0" len="24" vol="100" />
          <note key="64" pos="960" pan="0" len="72" vol="100" />
          <note key="64" pos="1080" pan="0" len="24" vol="100" />
          <note key="64" pos="1152" pan="0" len="72" vol="100" />
          <note key="64" pos="1272" pan="0" len="24" vol="100" />
          <note key="64" pos="1344" pan="0" len="72" vol="100" />
          <note key="64" pos="1464" pan="0" len="24" vol="100" />
        </pattern>
        <pattern pos="192000" muted="0" steps="16" name="" type="1">
          <note key="64" pos="0" pan="0" len="72" vol="100" />
          <note key="64" pos="120" pan="0" len="24" vol="100" />
          <note key="64" pos="192" pan="0" len="72" vol="100" />
          <note key="64" pos="312" pan="0" len="24" vol="100" />
          <note key="64" pos="384" pan="0" len="72" vol="100" />
          <note key="64" pos="504" pan="0" len="24" vol="100" />
          <note key="64" pos="576" pan="0" len="72" vol="100" />
          <note key="64" pos="696" pan="0" len="24" vol="100" />
          <note key="64" pos="768" pan="0" len="72" vol="100" />
          <note key="64" pos="888" pan="0" len="24" vol="100" />
          <note key="64" pos="960" pan="0" len="72" vol="100" />
          <note key="64" pos="1080" pan="0" len="24" vol="100" />
          <note key="64" pos="1152" pan="0" len="72" vol="100" />
          <note key="64" pos="1272" pan="0" len="24" vol="100" />
          <note key="64" pos="1344" pan="0" len="72" vol="100" />
          <note key="64" pos="1464" pan="0" len="24" vol="100" />
        </pattern>
        <pattern pos="195072" muted="0" steps="16" name="" type="1">
          <note key="64" pos="0" pan="0" len="72" vol="100" />
          <note key="64" pos="120" pan="0" len="24" vol="100" />
          <note key="64" pos="192" pan="0" len="72" vol="100" />
          <note key="64" pos="312" pan="0" len="24" vol="100" />
          <note key="64" pos="384" pan="0" len="72" vol="100" />
          <note key="64" pos="504" pan="0" len="24" vol="100" />
          <note key="64" pos="576" pan="0" len="72" vol="100" />
          <note key="64" pos="696" pan="0" len="24" vol="100" />
          <note key="64" pos="768" pan="0" len="72" vol="100" />
          <note key="64" pos="888" pan="0" len="24" vol="100" />
          <note key="64" pos="960" pan="0" len="72" vol="100" />
          <note key="64" pos="1080" pan="0" len="24" vol="100" />
          <note key="64" pos="1152" pan="0" len="72" vol="100" />
          <note key="64" pos="1272" pan="0" len="24" vol="100" />
          <note key="64" pos="1344" pan="0" len="72" vol="100" />
          <note key="64" pos="1464" pan="0" len="24" vol="100" />
        </pattern>
      </track>
      <track solo="0" name="39 (Ch12)" type="0" muted="0">
        <instrumenttrack usemasterpitch="1" pitch="0.0" basenote="57" pan="0" pitchrange="12" vol="30">
          <eldata />
          <instrument name="tripleoscillator" />
        </instrumenttrack>
        <pattern pos="53760" muted="0" steps="16" name="" type="1">
          <note key="60" pos="216" pan="0" len="24" vol="34" />
          <note key="48" pos="1200" pan="0" len="24" vol="34" />
        </pattern>
      </track>
      <track solo="0" name="40 (Ch2)" type="0" muted="0">
        <instrumenttrack usemasterpitch="1" pitch="0.0" basenote="57" pan="0" pitchrange="12" vol="30">
          <eldata />
          <instrument name="tripleoscillator" />
        </instrumenttrack>
        <pattern pos="161280" muted="0" steps="16" name="" type="1">
          <note key="67" pos="24" pan="0" len="24" vol="17" />
          <note key="65" pos="120" pan="0" len="24" vol="34" />
          <note key="67" pos="216" pan="0" len="24" vol="34" />
          <note key="65" pos="312" pan="0" len="24" vol="34" />
          <note key="67" pos="408" pan="0" len="24" vol="34" />
          <note key="65" pos="504" pan="0" len="24" vol="34" />
          <note key="67" pos="600" pan="0" len="24" vol="34" />
          <note key="65" pos="696" pan="0" len="24" vol="34" />
          <note key="67" pos="792" pan="0" len="24" vol="17" />
          <note key="65" pos="888" pan="0" len="24" vol="30" />
          <note key="67" pos="984" pan="0" len="24" vol="25" />
          <note key="65" pos="1080" pan="0" len="24" vol="20" />
          <note key="67" pos="1176" pan="0" len="24" vol="16" />
          <note key="65" pos="1272" pan="0" len="24" vol="12" />
          <note key="67" pos="1368" pan="0" len="24" vol="8" />
          <note key="65" pos="1464" pan="0" len="24" vol="3" />
        </pattern>
        <pattern pos="76800" muted="0" steps="16" name="" type="1">
          <note key="60" pos="168" pan="0" len="12" vol="100" />
          <note key="60" pos="360" pan="0" len="12" vol="100" />
          <note key="60" pos="552" pan="0" len="12" vol="100" />
        </pattern>
        <pattern pos="77568" muted="0" steps="16" name="" type="1">
          <note key="60" pos="168" pan="0" len="12" vol="100" />
          <note key="60" pos="360" pan="0" len="12" vol="100" />
          <note key="60" pos="552" pan="0" len="12" vol="100" />
        </pattern>
        <pattern pos="78336" muted="0" steps="16" name="" type="1">
          <note key="60" pos="168" pan="0" len="12" vol="100" />
          <note key="60" pos="360" pan="0" len="12" vol="100" />
          <note key="60" pos="552" pan="0" len="12" vol="100" />
        </pattern>
        <pattern pos="79104" muted="0" steps="16" name="" type="1">
          <note key="60" pos="168" pan="0" len="12" vol="100" />
          <note key="60" pos="360" pan="0" len="12" vol="100" />
          <note key="60" pos="552" pan="0" len="12" vol="100" />
        </pattern>
        <pattern pos="79872" muted="0" steps="16" name="" type="1">
          <note key="60" pos="168" pan="0" len="12" vol="100" />
          <note key="60" pos="360" pan="0" len="12" vol="100" />
          <note key="60" pos="552" pan="0" len="12" vol="100" />
        </pattern>
        <pattern pos="80640" muted="0" steps="16" name="" type="1">
          <note key="60" pos="168" pan="0" len="12" vol="100" />
          <note key="60" pos="360" pan="0" len="12" vol="100" />
          <note key="60" pos="552" pan="0" len="12" vol="100" />
        </pattern>
        <pattern pos="81408" muted="0" steps="16" name="" type="1">
          <note key="60" pos="168" pan="0" len="12" vol="100" />
          <note key="60" pos="360" pan="0" len="12" vol="100" />
          <note key="60" pos="552" pan="0" len="12" vol="100" />
        </pattern>
        <pattern pos="82176" muted="0" steps="16" name="" type="1">
          <note key="60" pos="168" pan="0" len="12" vol="100" />
          <note key="60" pos="360" pan="0" len="12" vol="100" />
          <note key="60" pos="552" pan="0" len="12" vol="100" />
        </pattern>
        <pattern pos="82944" muted="0" steps="16" name="" type="1">
          <note key="60" pos="168" pan="0" len="12" vol="100" />
          <note key="60" pos="360" pan="0" len="12" vol="100" />
          <note key="60" pos="552" pan="0" len="12" vol="100" />
        </pattern>
        <pattern pos="83712" muted="0" steps="16" name="" type="1">
          <note key="60" pos="168" pan="0" len="12" vol="100" />
          <note key="60" pos="360" pan="0" len="12" vol="100" />
          <note key="60" pos="552" pan="0" len="12" vol="100" />
        </pattern>
        <pattern pos="86016" muted="0" steps="16" name="" type="1">
          <note key="60" pos="168" pan="0" len="12" vol="100" />
          <note key="60" pos="360" pan="0" len="12" vol="100" />
          <note key="60" pos="552" pan="0" len="12" vol="100" />
        </pattern>
        <pattern pos="86784" muted="0" steps="16" name="" type="1">
          <note key="60" pos="168" pan="0" len="12" vol="100" />
          <note key="60" pos="360" pan="0" len="12" vol="100" />
          <note key="60" pos="552" pan="0" len="12" vol="100" />
        </pattern>
        <pattern pos="87552" muted="0" steps="16" name="" type="1">
          <note key="60" pos="168" pan="0" len="12" vol="100" />
          <note key="60" pos="360" pan="0" len="12" vol="100" />
          <note key="60" pos="552" pan="0" len="12" vol="100" />
        </pattern>
        <pattern pos="88320" muted="0" steps="16" name="" type="1">
          <note key="60" pos="168" pan="0" len="12" vol="100" />
          <note key="60" pos="360" pan="0" len="12" vol="100" />
          <note key="60" pos="552" pan="0" len="12" vol="100" />
        </pattern>
        <pattern pos="89088" muted="0" steps="16" name="" type="1">
          <note key="60" pos="168" pan="0" len="12" vol="100" />
          <note key="60" pos="360" pan="0" len="12" vol="100" />
          <note key="60" pos="552" pan="0" len="12" vol="100" />
        </pattern>
        <pattern pos="89856" muted="0" steps="16" name="" type="1">
          <note key="60" pos="168" pan="0" len="12" vol="100" />
          <note key="60" pos="360" pan="0" len="12" vol="100" />
          <note key="60" pos="552" pan="0" len="12" vol="100" />
        </pattern>
        <pattern pos="90624" muted="0" steps="16" name="" type="1">
          <note key="60" pos="168" pan="0" len="12" vol="100" />
          <note key="60" pos="360" pan="0" len="12" vol="100" />
          <note key="60" pos="552" pan="0" len="12" vol="100" />
        </pattern>
        <pattern pos="91392" muted="0" steps="16" name="" type="1">
          <note key="60" pos="168" pan="0" len="12" vol="78" />
          <note key="60" pos="360" pan="0" len="12" vol="53" />
          <note key="60" pos="552" pan="0" len="12" vol="28" />
        </pattern>
        <pattern pos="141312" muted="0" steps="16" name="" type="1">
          <note key="67" pos="24" pan="0" len="24" vol="17" />
          <note key="65" pos="120" pan="0" len="24" vol="34" />
          <note key="67" pos="216" pan="0" len="24" vol="34" />
          <note key="65" pos="312" pan="0" len="24" vol="34" />
          <note key="67" pos="408" pan="0" len="24" vol="34" />
          <note key="65" pos="504" pan="0" len="24" vol="34" />
          <note key="67" pos="600" pan="0" len="24" vol="34" />
          <note key="65" pos="696" pan="0" len="24" vol="34" />
          <note key="67" pos="792" pan="0" len="24" vol="17" />
          <note key="65" pos="888" pan="0" len="24" vol="34" />
          <note key="67" pos="984" pan="0" len="24" vol="34" />
          <note key="65" pos="1080" pan="0" len="24" vol="34" />
          <note key="67" pos="1176" pan="0" len="24" vol="34" />
          <note key="65" pos="1272" pan="0" len="24" vol="34" />
          <note key="67" pos="1368" pan="0" len="24" vol="34" />
          <note key="65" pos="1464" pan="0" len="24" vol="34" />
        </pattern>
        <pattern pos="142848" muted="0" steps="16" name="" type="1">
          <note key="67" pos="24" pan="0" len="24" vol="34" />
          <note key="65" pos="120" pan="0" len="24" vol="34" />
          <note key="67" pos="216" pan="0" len="24" vol="34" />
          <note key="65" pos="312" pan="0" len="24" vol="34" />
          <note key="67" pos="408" pan="0" len="24" vol="34" />
          <note key="65" pos="504" pan="0" len="24" vol="34" />
          <note key="67" pos="600" pan="0" len="24" vol="34" />
          <note key="65" pos="696" pan="0" len="24" vol="34" />
          <note key="67" pos="792" pan="0" len="24" vol="34" />
          <note key="65" pos="888" pan="0" len="24" vol="34" />
          <note key="67" pos="984" pan="0" len="24" vol="34" />
          <note key="65" pos="1080" pan="0" len="24" vol="34" />
          <note key="67" pos="1176" pan="0" len="24" vol="34" />
          <note key="65" pos="1272" pan="0" len="24" vol="34" />
          <note key="67" pos="1368" pan="0" len="24" vol="34" />
          <note key="65" pos="1464" pan="0" len="24" vol="34" />
        </pattern>
        <pattern pos="144384" muted="0" steps="16" name="" type="1">
          <note key="67" pos="24" pan="0" len="24" vol="34" />
          <note key="65" pos="120" pan="0" len="24" vol="34" />
          <note key="67" pos="216" pan="0" len="24" vol="34" />
          <note key="65" pos="312" pan="0" len="24" vol="34" />
          <note key="67" pos="408" pan="0" len="24" vol="34" />
          <note key="65" pos="504" pan="0" len="24" vol="34" />
          <note key="67" pos="600" pan="0" len="24" vol="34" />
          <note key="65" pos="696" pan="0" len="24" vol="34" />
          <note key="67" pos="792" pan="0" len="24" vol="34" />
          <note key="65" pos="888" pan="0" len="24" vol="34" />
          <note key="67" pos="984" pan="0" len="24" vol="34" />
          <note key="65" pos="1080" pan="0" len="24" vol="34" />
          <note key="67" pos="1176" pan="0" len="24" vol="34" />
          <note key="65" pos="1272" pan="0" len="24" vol="34" />
          <note key="67" pos="1368" pan="0" len="24" vol="34" />
          <note key="65" pos="1464" pan="0" len="24" vol="34" />
        </pattern>
        <pattern pos="145920" muted="0" steps="16" name="" type="1">
          <note key="67" pos="24" pan="0" len="24" vol="34" />
          <note key="65" pos="120" pan="0" len="24" vol="34" />
          <note key="67" pos="216" pan="0" len="24" vol="34" />
          <note key="65" pos="312" pan="0" len="24" vol="34" />
          <note key="67" pos="408" pan="0" len="24" vol="34" />
          <note key="65" pos="504" pan="0" len="24" vol="34" />
          <note key="67" pos="600" pan="0" len="24" vol="34" />
          <note key="65" pos="696" pan="0" len="24" vol="34" />
          <note key="67" pos="792" pan="0" len="24" vol="34" />
          <note key="65" pos="888" pan="0" len="24" vol="34" />
          <note key="67" pos="984" pan="0" len="24" vol="34" />
          <note key="65" pos="1080" pan="0" len="24" vol="34" />
          <note key="67" pos="1176" pan="0" len="24" vol="34" />
          <note key="65" pos="1272" pan="0" len="24" vol="34" />
          <note key="67" pos="1368" pan="0" len="24" vol="34" />
          <note key="65" pos="1464" pan="0" len="24" vol="34" />
        </pattern>
        <pattern pos="147456" muted="0" steps="16" name="" type="1">
          <note key="67" pos="24" pan="0" len="24" vol="34" />
          <note key="65" pos="120" pan="0" len="24" vol="34" />
          <note key="67" pos="216" pan="0" len="24" vol="34" />
          <note key="65" pos="312" pan="0" len="24" vol="34" />
          <note key="67" pos="408" pan="0" len="24" vol="34" />
          <note key="65" pos="504" pan="0" len="24" vol="34" />
          <note key="67" pos="600" pan="0" len="24" vol="34" />
          <note key="65" pos="696" pan="0" len="24" vol="34" />
          <note key="67" pos="792" pan="0" len="24" vol="34" />
          <note key="65" pos="888" pan="0" len="24" vol="34" />
          <note key="67" pos="984" pan="0" len="24" vol="34" />
          <note key="65" pos="1080" pan="0" len="24" vol="34" />
          <note key="67" pos="1176" pan="0" len="24" vol="34" />
          <note key="65" pos="1272" pan="0" len="24" vol="34" />
          <note key="67" pos="1368" pan="0" len="24" vol="34" />
          <note key="65" pos="1464" pan="0" len="24" vol="34" />
        </pattern>
        <pattern pos="148992" muted="0" steps="16" name="" type="1">
          <note key="67" pos="24" pan="0" len="24" vol="34" />
          <note key="65" pos="120" pan="0" len="24" vol="34" />
          <note key="67" pos="216" pan="0" len="24" vol="34" />
          <note key="65" pos="312" pan="0" len="24" vol="34" />
          <note key="67" pos="408" pan="0" len="24" vol="34" />
          <note key="65" pos="504" pan="0" len="24" vol="34" />
          <note key="67" pos="600" pan="0" len="24" vol="34" />
          <note key="65" pos="696" pan="0" len="24" vol="34" />
          <note key="67" pos="792" pan="0" len="24" vol="34" />
          <note key="65" pos="888" pan="0" len="24" vol="34" />
          <note key="67" pos="984" pan="0" len="24" vol="34" />
          <note key="65" pos="1080" pan="0" len="24" vol="34" />
          <note key="67" pos="1176" pan="0" len="24" vol="34" />
          <note key="65" pos="1272" pan="0" len="24" vol="34" />
          <note key="67" pos="1368" pan="0" len="24" vol="34" />
          <note key="65" pos="1464" pan="0" len="24" vol="34" />
        </pattern>
        <pattern pos="150528" muted="0" steps="16" name="" type="1">
          <note key="67" pos="24" pan="0" len="24" vol="34" />
          <note key="65" pos="120" pan="0" len="24" vol="34" />
          <note key="67" pos="216" pan="0" len="24" vol="34" />
          <note key="65" pos="312" pan="0" len="24" vol="34" />
          <note key="67" pos="408" pan="0" len="24" vol="34" />
          <note key="65" pos="504" pan="0" len="24" vol="34" />
          <note key="67" pos="600" pan="0" len="24" vol="34" />
          <note key="65" pos="696" pan="0" len="24" vol="34" />
          <note key="67" pos="792" pan="0" len="24" vol="34" />
          <note key="65" pos="888" pan="0" len="24" vol="34" />
          <note key="67" pos="984" pan="0" len="24" vol="34" />
          <note key="65" pos="1080" pan="0" len="24" vol="34" />
          <note key="67" pos="1176" pan="0" len="24" vol="34" />
          <note key="65" pos="1272" pan="0" len="24" vol="34" />
          <note key="67" pos="1368" pan="0" len="24" vol="34" />
          <note key="65" pos="1464" pan="0" len="24" vol="34" />
        </pattern>
        <pattern pos="152064" muted="0" steps="16" name="" type="1">
          <note key="67" pos="24" pan="0" len="24" vol="34" />
          <note key="65" pos="120" pan="0" len="24" vol="34" />
          <note key="67" pos="216" pan="0" len="24" vol="34" />
          <note key="65" pos="312" pan="0" len="24" vol="34" />
          <note key="67" pos="408" pan="0" len="24" vol="34" />
          <note key="65" pos="504" pan="0" len="24" vol="34" />
          <note key="67" pos="600" pan="0" len="24" vol="34" />
          <note key="65" pos="696" pan="0" len="24" vol="34" />
          <note key="67" pos="792" pan="0" len="24" vol="34" />
          <note key="65" pos="888" pan="0" len="24" vol="34" />
          <note key="67" pos="984" pan="0" len="24" vol="34" />
          <note key="65" pos="1080" pan="0" len="24" vol="34" />
          <note key="67" pos="1176" pan="0" len="24" vol="34" />
          <note key="65" pos="1272" pan="0" len="24" vol="34" />
          <note key="67" pos="1368" pan="0" len="24" vol="34" />
          <note key="65" pos="1464" pan="0" len="24" vol="34" />
        </pattern>
        <pattern pos="153600" muted="0" steps="16" name="" type="1">
          <note key="67" pos="24" pan="0" len="24" vol="34" />
          <note key="65" pos="120" pan="0" len="24" vol="34" />
          <note key="67" pos="216" pan="0" len="24" vol="34" />
          <note key="65" pos="312" pan="0" len="24" vol="34" />
          <note key="67" pos="408" pan="0" len="24" vol="34" />
          <note key="65" pos="504" pan="0" len="24" vol="34" />
          <note key="67" pos="600" pan="0" len="24" vol="34" />
          <note key="65" pos="696" pan="0" len="24" vol="34" />
          <note key="67" pos="792" pan="0" len="24" vol="34" />
          <note key="65" pos="888" pan="0" len="24" vol="34" />
          <note key="67" pos="984" pan="0" len="24" vol="34" />
          <note key="65" pos="1080" pan="0" len="24" vol="34" />
          <note key="67" pos="1176" pan="0" len="24" vol="34" />
          <note key="65" pos="1272" pan="0" len="24" vol="34" />
          <note key="67" pos="1368" pan="0" len="24" vol="34" />
          <note key="65" pos="1464" pan="0" len="24" vol="34" />
        </pattern>
        <pattern pos="155136" muted="0" steps="16" name="" type="1">
          <note key="67" pos="24" pan="0" len="24" vol="34" />
          <note key="65" pos="120" pan="0" len="24" vol="34" />
          <note key="67" pos="216" pan="0" len="24" vol="34" />
          <note key="65" pos="312" pan="0" len="24" vol="34" />
          <note key="67" pos="408" pan="0" len="24" vol="34" />
          <note key="65" pos="504" pan="0" len="24" vol="34" />
          <note key="67" pos="600" pan="0" len="24" vol="34" />
          <note key="65" pos="696" pan="0" len="24" vol="34" />
          <note key="67" pos="792" pan="0" len="24" vol="34" />
          <note key="65" pos="888" pan="0" len="24" vol="34" />
          <note key="67" pos="984" pan="0" len="24" vol="34" />
          <note key="65" pos="1080" pan="0" len="24" vol="34" />
          <note key="67" pos="1176" pan="0" len="24" vol="34" />
          <note key="65" pos="1272" pan="0" len="24" vol="34" />
          <note key="67" pos="1368" pan="0" len="24" vol="34" />
          <note key="65" pos="1464" pan="0" len="24" vol="34" />
        </pattern>
        <pattern pos="156672" muted="0" steps="16" name="" type="1">
          <note key="67" pos="24" pan="0" len="24" vol="34" />
          <note key="65" pos="120" pan="0" len="24" vol="34" />
          <note key="67" pos="216" pan="0" len="24" vol="34" />
          <note key="65" pos="312" pan="0" len="24" vol="34" />
          <note key="67" pos="408" pan="0" len="24" vol="34" />
          <note key="65" pos="504" pan="0" len="24" vol="34" />
          <note key="67" pos="600" pan="0" len="24" vol="34" />
          <note key="65" pos="696" pan="0" len="24" vol="34" />
          <note key="67" pos="792" pan="0" len="24" vol="34" />
          <note key="65" pos="888" pan="0" len="24" vol="34" />
          <note key="67" pos="984" pan="0" len="24" vol="34" />
          <note key="65" pos="1080" pan="0" len="24" vol="34" />
          <note key="67" pos="1176" pan="0" len="24" vol="34" />
          <note key="65" pos="1272" pan="0" len="24" vol="34" />
          <note key="67" pos="1368" pan="0" len="24" vol="34" />
          <note key="65" pos="1464" pan="0" len="24" vol="34" />
        </pattern>
        <pattern pos="158208" muted="0" steps="16" name="" type="1">
          <note key="67" pos="24" pan="0" len="24" vol="34" />
          <note key="65" pos="120" pan="0" len="24" vol="34" />
          <note key="67" pos="216" pan="0" len="24" vol="34" />
          <note key="65" pos="312" pan="0" len="24" vol="34" />
          <note key="67" pos="408" pan="0" len="24" vol="34" />
          <note key="65" pos="504" pan="0" len="24" vol="34" />
          <note key="67" pos="600" pan="0" len="24" vol="34" />
          <note key="65" pos="696" pan="0" len="24" vol="34" />
          <note key="67" pos="792" pan="0" len="24" vol="34" />
          <note key="65" pos="888" pan="0" len="24" vol="34" />
          <note key="67" pos="984" pan="0" len="24" vol="34" />
          <note key="65" pos="1080" pan="0" len="24" vol="34" />
          <note key="67" pos="1176" pan="0" len="24" vol="34" />
          <note key="65" pos="1272" pan="0" len="24" vol="34" />
          <note key="67" pos="1368" pan="0" len="24" vol="34" />
          <note key="65" pos="1464" pan="0" len="24" vol="34" />
        </pattern>
        <pattern pos="159744" muted="0" steps="16" name="" type="1">
          <note key="67" pos="24" pan="0" len="24" vol="34" />
          <note key="65" pos="120" pan="0" len="24" vol="34" />
          <note key="67" pos="216" pan="0" len="24" vol="34" />
          <note key="65" pos="312" pan="0" len="24" vol="34" />
          <note key="67" pos="408" pan="0" len="24" vol="34" />
          <note key="65" pos="504" pan="0" len="24" vol="34" />
          <note key="67" pos="600" pan="0" len="24" vol="34" />
          <note key="65" pos="696" pan="0" len="24" vol="34" />
          <note key="67" pos="792" pan="0" len="24" vol="34" />
          <note key="65" pos="888" pan="0" len="24" vol="34" />
          <note key="67" pos="984" pan="0" len="24" vol="34" />
          <note key="65" pos="1080" pan="0" len="24" vol="34" />
          <note key="67" pos="1176" pan="0" len="24" vol="34" />
          <note key="65" pos="1272" pan="0" len="24" vol="34" />
          <note key="67" pos="1368" pan="0" len="24" vol="34" />
          <note key="65" pos="1464" pan="0" len="24" vol="34" />
        </pattern>
      </track>
      <track solo="0" name="40 (Ch3)" type="0" muted="0">
        <instrumenttrack usemasterpitch="1" pitch="0.0" basenote="57" pan="0" pitchrange="12" vol="30">
          <eldata />
          <instrument name="tripleoscillator" />
        </instrumenttrack>
        <pattern pos="133632" muted="0" steps="16" name="" type="1">
          <note key="60" pos="48" pan="0" len="24" vol="100" />
          <note key="60" pos="240" pan="0" len="24" vol="100" />
          <note key="60" pos="432" pan="0" len="24" vol="100" />
          <note key="60" pos="624" pan="0" len="24" vol="100" />
          <note key="60" pos="816" pan="0" len="24" vol="100" />
          <note key="60" pos="1008" pan="0" len="24" vol="100" />
          <note key="60" pos="1200" pan="0" len="24" vol="100" />
          <note key="60" pos="1392" pan="0" len="24" vol="100" />
        </pattern>
        <pattern pos="768" muted="0" steps="16" name="" type="1">
          <note key="55" pos="120" pan="0" len="24" vol="100" />
          <note key="55" pos="312" pan="0" len="24" vol="100" />
          <note key="55" pos="504" pan="0" len="24" vol="100" />
          <note key="55" pos="696" pan="0" len="24" vol="100" />
        </pattern>
        <pattern pos="1536" muted="0" steps="16" name="" type="1">
          <note key="55" pos="120" pan="0" len="24" vol="100" />
          <note key="55" pos="312" pan="0" len="24" vol="100" />
          <note key="55" pos="504" pan="0" len="24" vol="100" />
          <note key="55" pos="696" pan="0" len="24" vol="100" />
        </pattern>
        <pattern pos="2304" muted="0" steps="16" name="" type="1">
          <note key="55" pos="120" pan="0" len="24" vol="100" />
          <note key="55" pos="312" pan="0" len="24" vol="100" />
          <note key="55" pos="504" pan="0" len="24" vol="100" />
          <note key="55" pos="696" pan="0" len="24" vol="100" />
        </pattern>
        <pattern pos="3072" muted="0" steps="16" name="" type="1">
          <note key="55" pos="120" pan="0" len="24" vol="100" />
          <note key="55" pos="312" pan="0" len="24" vol="100" />
          <note key="55" pos="504" pan="0" len="24" vol="100" />
          <note key="55" pos="696" pan="0" len="24" vol="100" />
        </pattern>
        <pattern pos="29568" muted="0" steps="16" name="" type="1">
          <note key="67" pos="12" pan="0" len="12" vol="100" />
          <note key="67" pos="84" pan="0" len="12" vol="100" />
          <note key="67" pos="300" pan="0" len="12" vol="100" />
          <note key="67" pos="372" pan="0" len="12" vol="100" />
          <note key="67" pos="588" pan="0" len="12" vol="100" />
          <note key="67" pos="660" pan="0" len="12" vol="100" />
          <note key="67" pos="876" pan="0" len="12" vol="100" />
          <note key="67" pos="948" pan="0" len="12" vol="100" />
        </pattern>
        <pattern pos="30720" muted="0" steps="16" name="" type="1">
          <note key="67" pos="12" pan="0" len="12" vol="100" />
          <note key="67" pos="84" pan="0" len="12" vol="100" />
          <note key="67" pos="300" pan="0" len="12" vol="100" />
          <note key="67" pos="372" pan="0" len="12" vol="100" />
          <note key="67" pos="588" pan="0" len="12" vol="100" />
          <note key="67" pos="660" pan="0" len="12" vol="100" />
          <note key="67" pos="876" pan="0" len="12" vol="100" />
          <note key="67" pos="948" pan="0" len="12" vol="100" />
        </pattern>
        <pattern pos="31872" muted="0" steps="16" name="" type="1">
          <note key="67" pos="12" pan="0" len="12" vol="100" />
          <note key="67" pos="84" pan="0" len="12" vol="100" />
          <note key="67" pos="300" pan="0" len="12" vol="100" />
          <note key="67" pos="372" pan="0" len="12" vol="100" />
          <note key="67" pos="588" pan="0" len="12" vol="100" />
          <note key="67" pos="660" pan="0" len="12" vol="100" />
          <note key="67" pos="876" pan="0" len="12" vol="100" />
          <note key="67" pos="948" pan="0" len="12" vol="100" />
        </pattern>
        <pattern pos="33024" muted="0" steps="16" name="" type="1">
          <note key="67" pos="12" pan="0" len="12" vol="100" />
          <note key="67" pos="84" pan="0" len="12" vol="100" />
          <note key="67" pos="300" pan="0" len="12" vol="100" />
          <note key="67" pos="372" pan="0" len="12" vol="100" />
          <note key="67" pos="588" pan="0" len="12" vol="100" />
          <note key="67" pos="660" pan="0" len="12" vol="100" />
          <note key="67" pos="876" pan="0" len="12" vol="100" />
          <note key="67" pos="948" pan="0" len="12" vol="100" />
        </pattern>
        <pattern pos="36480" muted="0" steps="16" name="" type="1">
          <note key="67" pos="12" pan="0" len="12" vol="100" />
          <note key="67" pos="84" pan="0" len="12" vol="100" />
          <note key="67" pos="300" pan="0" len="12" vol="100" />
          <note key="67" pos="372" pan="0" len="12" vol="100" />
          <note key="67" pos="588" pan="0" len="12" vol="100" />
          <note key="67" pos="660" pan="0" len="12" vol="100" />
          <note key="67" pos="876" pan="0" len="12" vol="100" />
          <note key="67" pos="948" pan="0" len="12" vol="100" />
        </pattern>
        <pattern pos="37632" muted="0" steps="16" name="" type="1">
          <note key="67" pos="12" pan="0" len="12" vol="100" />
          <note key="67" pos="84" pan="0" len="12" vol="100" />
          <note key="67" pos="300" pan="0" len="12" vol="100" />
          <note key="67" pos="372" pan="0" len="12" vol="100" />
          <note key="67" pos="588" pan="0" len="12" vol="100" />
          <note key="67" pos="660" pan="0" len="12" vol="100" />
          <note key="67" pos="876" pan="0" len="12" vol="100" />
          <note key="67" pos="948" pan="0" len="12" vol="100" />
        </pattern>
        <pattern pos="38784" muted="0" steps="16" name="" type="1">
          <note key="67" pos="12" pan="0" len="12" vol="100" />
          <note key="67" pos="84" pan="0" len="12" vol="100" />
          <note key="67" pos="300" pan="0" len="12" vol="100" />
          <note key="67" pos="372" pan="0" len="12" vol="100" />
          <note key="67" pos="588" pan="0" len="12" vol="100" />
          <note key="67" pos="660" pan="0" len="12" vol="100" />
          <note key="67" pos="876" pan="0" len="12" vol="100" />
          <note key="67" pos="948" pan="0" len="12" vol="100" />
        </pattern>
        <pattern pos="39936" muted="0" steps="16" name="" type="1">
          <note key="67" pos="12" pan="0" len="12" vol="100" />
          <note key="67" pos="84" pan="0" len="12" vol="100" />
          <note key="67" pos="300" pan="0" len="12" vol="100" />
          <note key="67" pos="372" pan="0" len="12" vol="100" />
          <note key="67" pos="588" pan="0" len="12" vol="100" />
          <note key="67" pos="660" pan="0" len="12" vol="100" />
          <note key="67" pos="876" pan="0" len="12" vol="100" />
          <note key="67" pos="948" pan="0" len="12" vol="100" />
        </pattern>
        <pattern pos="92160" muted="0" steps="16" name="" type="1">
          <note key="60" pos="360" pan="0" len="24" vol="100" />
          <note key="60" pos="696" pan="0" len="24" vol="100" />
        </pattern>
        <pattern pos="93696" muted="0" steps="16" name="" type="1">
          <note key="60" pos="48" pan="0" len="24" vol="100" />
          <note key="60" pos="240" pan="0" len="96" vol="100" />
          <note key="60" pos="432" pan="0" len="120" vol="100" />
          <note key="60" pos="624" pan="0" len="24" vol="100" />
          <note key="60" pos="816" pan="0" len="120" vol="100" />
          <note key="60" pos="1008" pan="0" len="24" vol="100" />
          <note key="60" pos="1200" pan="0" len="120" vol="100" />
          <note key="60" pos="1392" pan="0" len="24" vol="100" />
        </pattern>
        <pattern pos="95232" muted="0" steps="16" name="" type="1">
          <note key="60" pos="48" pan="0" len="24" vol="100" />
          <note key="60" pos="240" pan="0" len="24" vol="100" />
          <note key="60" pos="432" pan="0" len="24" vol="100" />
          <note key="60" pos="624" pan="0" len="24" vol="100" />
          <note key="60" pos="816" pan="0" len="24" vol="100" />
          <note key="60" pos="1008" pan="0" len="24" vol="100" />
          <note key="60" pos="1200" pan="0" len="24" vol="100" />
          <note key="60" pos="1392" pan="0" len="24" vol="100" />
        </pattern>
        <pattern pos="96768" muted="0" steps="16" name="" type="1">
          <note key="60" pos="48" pan="0" len="24" vol="100" />
          <note key="60" pos="240" pan="0" len="24" vol="100" />
          <note key="60" pos="432" pan="0" len="24" vol="100" />
          <note key="60" pos="624" pan="0" len="24" vol="100" />
          <note key="60" pos="816" pan="0" len="24" vol="100" />
          <note key="60" pos="1008" pan="0" len="24" vol="100" />
          <note key="60" pos="1200" pan="0" len="24" vol="100" />
          <note key="60" pos="1392" pan="0" len="24" vol="100" />
        </pattern>
        <pattern pos="98304" muted="0" steps="16" name="" type="1">
          <note key="60" pos="48" pan="0" len="24" vol="100" />
          <note key="60" pos="240" pan="0" len="24" vol="100" />
          <note key="60" pos="432" pan="0" len="24" vol="100" />
          <note key="60" pos="624" pan="0" len="24" vol="100" />
          <note key="60" pos="816" pan="0" len="24" vol="100" />
          <note key="60" pos="1008" pan="0" len="24" vol="100" />
          <note key="60" pos="1200" pan="0" len="24" vol="100" />
          <note key="60" pos="1392" pan="0" len="24" vol="100" />
        </pattern>
        <pattern pos="99840" muted="0" steps="16" name="" type="1">
          <note key="60" pos="48" pan="0" len="24" vol="100" />
          <note key="60" pos="240" pan="0" len="24" vol="100" />
          <note key="60" pos="432" pan="0" len="24" vol="100" />
          <note key="60" pos="624" pan="0" len="24" vol="100" />
          <note key="60" pos="816" pan="0" len="24" vol="100" />
          <note key="60" pos="1008" pan="0" len="24" vol="100" />
          <note key="60" pos="1200" pan="0" len="24" vol="100" />
          <note key="60" pos="1392" pan="0" len="24" vol="100" />
        </pattern>
        <pattern pos="101376" muted="0" steps="16" name="" type="1">
          <note key="60" pos="48" pan="0" len="24" vol="100" />
          <note key="60" pos="240" pan="0" len="24" vol="100" />
          <note key="60" pos="432" pan="0" len="24" vol="100" />
          <note key="60" pos="624" pan="0" len="24" vol="100" />
          <note key="60" pos="816" pan="0" len="24" vol="100" />
          <note key="60" pos="1008" pan="0" len="24" vol="100" />
          <note key="60" pos="1200" pan="0" len="24" vol="100" />
          <note key="60" pos="1392" pan="0" len="24" vol="100" />
        </pattern>
        <pattern pos="102912" muted="0" steps="16" name="" type="1">
          <note key="60" pos="48" pan="0" len="24" vol="100" />
          <note key="60" pos="240" pan="0" len="24" vol="100" />
          <note key="60" pos="432" pan="0" len="24" vol="100" />
          <note key="60" pos="624" pan="0" len="24" vol="100" />
          <note key="60" pos="816" pan="0" len="24" vol="100" />
          <note key="60" pos="1008" pan="0" len="24" vol="100" />
          <note key="60" pos="1200" pan="0" len="24" vol="100" />
          <note key="60" pos="1392" pan="0" len="24" vol="100" />
        </pattern>
        <pattern pos="105984" muted="0" steps="16" name="" type="1">
          <note key="62" pos="48" pan="0" len="24" vol="0" />
          <note key="62" pos="240" pan="0" len="24" vol="0" />
          <note key="62" pos="432" pan="0" len="24" vol="2" />
          <note key="62" pos="624" pan="0" len="24" vol="8" />
          <note key="62" pos="816" pan="0" len="24" vol="16" />
          <note key="62" pos="1008" pan="0" len="24" vol="30" />
          <note key="62" pos="1200" pan="0" len="24" vol="50" />
          <note key="62" pos="1392" pan="0" len="24" vol="77" />
        </pattern>
        <pattern pos="107520" muted="0" steps="16" name="" type="1">
          <note key="62" pos="48" pan="0" len="24" vol="100" />
          <note key="67" pos="240" pan="0" len="24" vol="100" />
          <note key="62" pos="432" pan="0" len="24" vol="100" />
          <note key="67" pos="624" pan="0" len="24" vol="100" />
          <note key="62" pos="816" pan="0" len="24" vol="100" />
          <note key="67" pos="1008" pan="0" len="24" vol="100" />
          <note key="62" pos="1200" pan="0" len="24" vol="100" />
          <note key="67" pos="1392" pan="0" len="24" vol="100" />
        </pattern>
        <pattern pos="109056" muted="0" steps="16" name="" type="1">
          <note key="62" pos="48" pan="0" len="24" vol="100" />
          <note key="67" pos="240" pan="0" len="24" vol="100" />
          <note key="62" pos="432" pan="0" len="24" vol="100" />
          <note key="67" pos="624" pan="0" len="24" vol="100" />
          <note key="62" pos="816" pan="0" len="24" vol="100" />
          <note key="67" pos="1008" pan="0" len="24" vol="100" />
          <note key="62" pos="1200" pan="0" len="24" vol="100" />
          <note key="67" pos="1392" pan="0" len="24" vol="100" />
        </pattern>
        <pattern pos="110592" muted="0" steps="16" name="" type="1">
          <note key="65" pos="48" pan="0" len="24" vol="100" />
          <note key="58" pos="240" pan="0" len="24" vol="100" />
          <note key="65" pos="432" pan="0" len="24" vol="100" />
          <note key="58" pos="624" pan="0" len="24" vol="100" />
          <note key="65" pos="816" pan="0" len="24" vol="100" />
          <note key="58" pos="1008" pan="0" len="24" vol="100" />
          <note key="65" pos="1200" pan="0" len="24" vol="100" />
          <note key="58" pos="1392" pan="0" len="24" vol="100" />
        </pattern>
        <pattern pos="112128" muted="0" steps="16" name="" type="1">
          <note key="65" pos="48" pan="0" len="24" vol="100" />
          <note key="58" pos="240" pan="0" len="24" vol="100" />
          <note key="65" pos="432" pan="0" len="24" vol="100" />
          <note key="58" pos="624" pan="0" len="24" vol="100" />
          <note key="65" pos="816" pan="0" len="24" vol="100" />
          <note key="58" pos="1008" pan="0" len="24" vol="100" />
          <note key="65" pos="1200" pan="0" len="24" vol="100" />
          <note key="58" pos="1392" pan="0" len="24" vol="100" />
        </pattern>
        <pattern pos="122880" muted="0" steps="16" name="" type="1">
          <note key="60" pos="48" pan="0" len="24" vol="100" />
          <note key="60" pos="240" pan="0" len="24" vol="100" />
          <note key="60" pos="432" pan="0" len="24" vol="100" />
          <note key="60" pos="624" pan="0" len="24" vol="100" />
          <note key="60" pos="816" pan="0" len="24" vol="100" />
          <note key="60" pos="1008" pan="0" len="24" vol="100" />
          <note key="60" pos="1200" pan="0" len="24" vol="100" />
          <note key="60" pos="1392" pan="0" len="24" vol="100" />
        </pattern>
        <pattern pos="124416" muted="0" steps="16" name="" type="1">
          <note key="60" pos="48" pan="0" len="24" vol="100" />
          <note key="60" pos="240" pan="0" len="24" vol="100" />
          <note key="60" pos="432" pan="0" len="24" vol="100" />
          <note key="60" pos="624" pan="0" len="24" vol="100" />
          <note key="60" pos="816" pan="0" len="24" vol="100" />
          <note key="60" pos="1008" pan="0" len="24" vol="100" />
          <note key="60" pos="1200" pan="0" len="24" vol="100" />
          <note key="60" pos="1392" pan="0" len="24" vol="100" />
        </pattern>
        <pattern pos="125952" muted="0" steps="16" name="" type="1">
          <note key="60" pos="48" pan="0" len="24" vol="100" />
          <note key="60" pos="240" pan="0" len="24" vol="100" />
          <note key="60" pos="432" pan="0" len="24" vol="100" />
          <note key="60" pos="624" pan="0" len="24" vol="100" />
          <note key="60" pos="816" pan="0" len="24" vol="100" />
          <note key="60" pos="1008" pan="0" len="24" vol="100" />
          <note key="60" pos="1200" pan="0" len="24" vol="100" />
          <note key="60" pos="1392" pan="0" len="24" vol="100" />
        </pattern>
        <pattern pos="127488" muted="0" steps="16" name="" type="1">
          <note key="60" pos="48" pan="0" len="24" vol="100" />
          <note key="60" pos="240" pan="0" len="24" vol="100" />
          <note key="60" pos="432" pan="0" len="24" vol="100" />
          <note key="60" pos="624" pan="0" len="24" vol="100" />
          <note key="60" pos="816" pan="0" len="24" vol="100" />
          <note key="60" pos="1008" pan="0" len="24" vol="100" />
          <note key="60" pos="1200" pan="0" len="24" vol="100" />
          <note key="60" pos="1392" pan="0" len="24" vol="100" />
        </pattern>
        <pattern pos="129024" muted="0" steps="16" name="" type="1">
          <note key="60" pos="48" pan="0" len="24" vol="100" />
          <note key="60" pos="240" pan="0" len="24" vol="100" />
          <note key="60" pos="432" pan="0" len="24" vol="100" />
          <note key="60" pos="624" pan="0" len="24" vol="100" />
          <note key="60" pos="816" pan="0" len="24" vol="100" />
          <note key="60" pos="1008" pan="0" len="24" vol="100" />
          <note key="60" pos="1200" pan="0" len="24" vol="100" />
          <note key="60" pos="1392" pan="0" len="24" vol="100" />
        </pattern>
        <pattern pos="130560" muted="0" steps="16" name="" type="1">
          <note key="60" pos="48" pan="0" len="24" vol="100" />
          <note key="60" pos="240" pan="0" len="24" vol="100" />
          <note key="60" pos="432" pan="0" len="24" vol="100" />
          <note key="60" pos="624" pan="0" len="24" vol="100" />
          <note key="60" pos="816" pan="0" len="24" vol="100" />
          <note key="60" pos="1008" pan="0" len="24" vol="100" />
          <note key="60" pos="1200" pan="0" len="24" vol="100" />
          <note key="60" pos="1392" pan="0" len="24" vol="100" />
        </pattern>
        <pattern pos="132096" muted="0" steps="16" name="" type="1">
          <note key="60" pos="48" pan="0" len="24" vol="100" />
          <note key="60" pos="240" pan="0" len="24" vol="100" />
          <note key="60" pos="432" pan="0" len="24" vol="100" />
          <note key="60" pos="624" pan="0" len="24" vol="100" />
          <note key="60" pos="816" pan="0" len="24" vol="100" />
          <note key="60" pos="1008" pan="0" len="24" vol="100" />
          <note key="60" pos="1200" pan="0" len="24" vol="100" />
          <note key="60" pos="1392" pan="0" len="24" vol="100" />
        </pattern>
      </track>
      <track solo="0" name="40 (Ch5)" type="0" muted="0">
        <instrumenttrack usemasterpitch="1" pitch="0.0" basenote="57" pan="0" pitchrange="12" vol="30">
          <eldata />
          <instrument name="tripleoscillator" />
        </instrumenttrack>
        <pattern pos="28416" muted="0" steps="16" name="" type="1">
          <note key="67" pos="12" pan="0" len="12" vol="100" />
          <note key="67" pos="84" pan="0" len="12" vol="100" />
          <note key="67" pos="300" pan="0" len="12" vol="100" />
          <note key="67" pos="372" pan="0" len="12" vol="100" />
          <note key="67" pos="588" pan="0" len="12" vol="100" />
          <note key="67" pos="660" pan="0" len="12" vol="100" />
          <note key="67" pos="876" pan="0" len="12" vol="100" />
          <note key="67" pos="948" pan="0" len="12" vol="100" />
        </pattern>
        <pattern pos="17664" muted="0" steps="16" name="" type="1">
          <note key="48" pos="216" pan="0" len="24" vol="20" />
          <note key="48" pos="552" pan="0" len="960" vol="20" />
        </pattern>
        <pattern pos="20736" muted="0" steps="16" name="" type="1">
          <note key="48" pos="216" pan="0" len="24" vol="100" />
          <note key="48" pos="552" pan="0" len="912" vol="100" />
        </pattern>
        <pattern pos="22272" muted="0" steps="16" name="" type="1">
          <note key="48" pos="216" pan="0" len="24" vol="100" />
          <note key="48" pos="552" pan="0" len="984" vol="100" />
        </pattern>
        <pattern pos="23808" muted="0" steps="16" name="" type="1">
          <note key="48" pos="984" pan="0" len="24" vol="100" />
          <note key="48" pos="1320" pan="0" len="120" vol="100" />
        </pattern>
      </track>
      <track solo="0" name="40 (Ch12)" type="0" muted="0">
        <instrumenttrack usemasterpitch="1" pitch="0.0" basenote="57" pan="0" pitchrange="12" vol="30">
          <eldata />
          <instrument name="tripleoscillator" />
        </instrumenttrack>
        <pattern pos="53760" muted="0" steps="16" name="" type="1">
          <note key="60" pos="240" pan="0" len="24" vol="34" />
          <note key="48" pos="1224" pan="0" len="24" vol="50" />
        </pattern>
      </track>
      <track solo="0" name="41 (Ch1)" type="0" muted="0">
        <instrumenttrack usemasterpitch="1" pitch="0.0" basenote="57" pan="0" pitchrange="12" vol="30">
          <eldata />
          <instrument name="tripleoscillator" />
        </instrumenttrack>
        <pattern pos="16128" muted="0" steps="16" name="" type="1">
          <note key="60" pos="24" pan="0" len="12" vol="100" />
          <note key="60" pos="216" pan="0" len="12" vol="100" />
          <note key="60" pos="408" pan="0" len="12" vol="100" />
          <note key="60" pos="600" pan="0" len="12" vol="100" />
          <note key="60" pos="792" pan="0" len="12" vol="100" />
          <note key="60" pos="984" pan="0" len="12" vol="100" />
          <note key="60" pos="1176" pan="0" len="12" vol="100" />
          <note key="60" pos="1368" pan="0" len="12" vol="100" />
        </pattern>
        <pattern pos="6912" muted="0" steps="16" name="" type="1">
          <note key="60" pos="24" pan="0" len="12" vol="100" />
          <note key="60" pos="216" pan="0" len="12" vol="100" />
          <note key="60" pos="408" pan="0" len="12" vol="100" />
          <note key="60" pos="600" pan="0" len="12" vol="100" />
        </pattern>
        <pattern pos="7680" muted="0" steps="16" name="" type="1">
          <note key="60" pos="24" pan="0" len="12" vol="100" />
          <note key="60" pos="216" pan="0" len="12" vol="100" />
          <note key="60" pos="408" pan="0" len="12" vol="100" />
          <note key="60" pos="600" pan="0" len="12" vol="100" />
        </pattern>
        <pattern pos="8448" muted="0" steps="16" name="" type="1">
          <note key="60" pos="24" pan="0" len="12" vol="100" />
          <note key="60" pos="216" pan="0" len="12" vol="100" />
          <note key="60" pos="408" pan="0" len="12" vol="100" />
          <note key="60" pos="600" pan="0" len="12" vol="100" />
        </pattern>
        <pattern pos="9216" muted="0" steps="16" name="" type="1">
          <note key="60" pos="24" pan="0" len="12" vol="100" />
          <note key="60" pos="216" pan="0" len="12" vol="100" />
          <note key="60" pos="408" pan="0" len="12" vol="100" />
          <note key="60" pos="600" pan="0" len="12" vol="100" />
        </pattern>
        <pattern pos="9984" muted="0" steps="16" name="" type="1">
          <note key="60" pos="24" pan="0" len="12" vol="100" />
          <note key="60" pos="216" pan="0" len="12" vol="100" />
          <note key="60" pos="408" pan="0" len="12" vol="100" />
          <note key="60" pos="600" pan="0" len="12" vol="100" />
        </pattern>
        <pattern pos="10752" muted="0" steps="16" name="" type="1">
          <note key="60" pos="24" pan="0" len="12" vol="100" />
          <note key="60" pos="216" pan="0" len="12" vol="100" />
          <note key="60" pos="408" pan="0" len="12" vol="100" />
          <note key="60" pos="600" pan="0" len="12" vol="100" />
        </pattern>
        <pattern pos="11520" muted="0" steps="16" name="" type="1">
          <note key="60" pos="24" pan="0" len="12" vol="100" />
          <note key="60" pos="216" pan="0" len="12" vol="100" />
          <note key="60" pos="408" pan="0" len="12" vol="100" />
          <note key="60" pos="600" pan="0" len="12" vol="100" />
          <note key="60" pos="792" pan="0" len="12" vol="100" />
          <note key="60" pos="984" pan="0" len="12" vol="100" />
          <note key="60" pos="1176" pan="0" len="12" vol="100" />
          <note key="60" pos="1368" pan="0" len="12" vol="100" />
        </pattern>
        <pattern pos="13056" muted="0" steps="16" name="" type="1">
          <note key="60" pos="24" pan="0" len="12" vol="100" />
          <note key="60" pos="216" pan="0" len="12" vol="100" />
          <note key="60" pos="408" pan="0" len="12" vol="100" />
          <note key="60" pos="600" pan="0" len="12" vol="100" />
          <note key="60" pos="792" pan="0" len="12" vol="100" />
          <note key="60" pos="984" pan="0" len="12" vol="100" />
          <note key="60" pos="1176" pan="0" len="12" vol="100" />
          <note key="60" pos="1368" pan="0" len="12" vol="100" />
        </pattern>
        <pattern pos="14592" muted="0" steps="16" name="" type="1">
          <note key="60" pos="24" pan="0" len="12" vol="100" />
          <note key="60" pos="216" pan="0" len="12" vol="100" />
          <note key="60" pos="408" pan="0" len="12" vol="100" />
          <note key="60" pos="600" pan="0" len="12" vol="100" />
          <note key="60" pos="792" pan="0" len="12" vol="100" />
          <note key="60" pos="984" pan="0" len="12" vol="100" />
          <note key="60" pos="1176" pan="0" len="12" vol="100" />
          <note key="60" pos="1368" pan="0" len="12" vol="100" />
        </pattern>
      </track>
      <track solo="0" name="41 (Ch2)" type="0" muted="0">
        <instrumenttrack usemasterpitch="1" pitch="0.0" basenote="57" pan="0" pitchrange="12" vol="30">
          <eldata />
          <instrument name="tripleoscillator" />
        </instrumenttrack>
        <pattern pos="91392" muted="0" steps="16" name="" type="1">
          <note key="60" pos="60" pan="0" len="12" vol="92" />
          <note key="60" pos="120" pan="0" len="12" vol="84" />
          <note key="60" pos="252" pan="0" len="12" vol="67" />
          <note key="60" pos="312" pan="0" len="12" vol="59" />
          <note key="60" pos="444" pan="0" len="12" vol="42" />
          <note key="60" pos="504" pan="0" len="12" vol="34" />
          <note key="60" pos="636" pan="0" len="12" vol="17" />
          <note key="60" pos="696" pan="0" len="12" vol="9" />
        </pattern>
        <pattern pos="76800" muted="0" steps="16" name="" type="1">
          <note key="60" pos="60" pan="0" len="12" vol="100" />
          <note key="60" pos="120" pan="0" len="12" vol="100" />
          <note key="60" pos="252" pan="0" len="12" vol="100" />
          <note key="60" pos="312" pan="0" len="12" vol="100" />
          <note key="60" pos="444" pan="0" len="12" vol="100" />
          <note key="60" pos="504" pan="0" len="12" vol="100" />
          <note key="60" pos="636" pan="0" len="12" vol="100" />
          <note key="60" pos="696" pan="0" len="12" vol="100" />
        </pattern>
        <pattern pos="77568" muted="0" steps="16" name="" type="1">
          <note key="60" pos="60" pan="0" len="12" vol="100" />
          <note key="60" pos="120" pan="0" len="12" vol="100" />
          <note key="60" pos="252" pan="0" len="12" vol="100" />
          <note key="60" pos="312" pan="0" len="12" vol="100" />
          <note key="60" pos="444" pan="0" len="12" vol="100" />
          <note key="60" pos="504" pan="0" len="12" vol="100" />
          <note key="60" pos="636" pan="0" len="12" vol="100" />
          <note key="60" pos="696" pan="0" len="12" vol="100" />
        </pattern>
        <pattern pos="78336" muted="0" steps="16" name="" type="1">
          <note key="60" pos="60" pan="0" len="12" vol="100" />
          <note key="60" pos="120" pan="0" len="12" vol="100" />
          <note key="60" pos="252" pan="0" len="12" vol="100" />
          <note key="60" pos="312" pan="0" len="12" vol="100" />
          <note key="60" pos="444" pan="0" len="12" vol="100" />
          <note key="60" pos="504" pan="0" len="12" vol="100" />
          <note key="60" pos="636" pan="0" len="12" vol="100" />
          <note key="60" pos="696" pan="0" len="12" vol="100" />
        </pattern>
        <pattern pos="79104" muted="0" steps="16" name="" type="1">
          <note key="60" pos="60" pan="0" len="12" vol="100" />
          <note key="60" pos="120" pan="0" len="12" vol="100" />
          <note key="60" pos="252" pan="0" len="12" vol="100" />
          <note key="60" pos="312" pan="0" len="12" vol="100" />
          <note key="60" pos="444" pan="0" len="12" vol="100" />
          <note key="60" pos="504" pan="0" len="12" vol="100" />
          <note key="60" pos="636" pan="0" len="12" vol="100" />
          <note key="60" pos="696" pan="0" len="12" vol="100" />
        </pattern>
        <pattern pos="79872" muted="0" steps="16" name="" type="1">
          <note key="60" pos="60" pan="0" len="12" vol="100" />
          <note key="60" pos="120" pan="0" len="12" vol="100" />
          <note key="60" pos="252" pan="0" len="12" vol="100" />
          <note key="60" pos="312" pan="0" len="12" vol="100" />
          <note key="60" pos="444" pan="0" len="12" vol="100" />
          <note key="60" pos="504" pan="0" len="12" vol="100" />
          <note key="60" pos="636" pan="0" len="12" vol="100" />
          <note key="60" pos="696" pan="0" len="12" vol="100" />
        </pattern>
        <pattern pos="80640" muted="0" steps="16" name="" type="1">
          <note key="60" pos="60" pan="0" len="12" vol="100" />
          <note key="60" pos="120" pan="0" len="12" vol="100" />
          <note key="60" pos="252" pan="0" len="12" vol="100" />
          <note key="60" pos="312" pan="0" len="12" vol="100" />
          <note key="60" pos="444" pan="0" len="12" vol="100" />
          <note key="60" pos="504" pan="0" len="12" vol="100" />
          <note key="60" pos="636" pan="0" len="12" vol="100" />
          <note key="60" pos="696" pan="0" len="12" vol="100" />
        </pattern>
        <pattern pos="81408" muted="0" steps="16" name="" type="1">
          <note key="60" pos="60" pan="0" len="12" vol="100" />
          <note key="60" pos="120" pan="0" len="12" vol="100" />
          <note key="60" pos="252" pan="0" len="12" vol="100" />
          <note key="60" pos="312" pan="0" len="12" vol="100" />
          <note key="60" pos="444" pan="0" len="12" vol="100" />
          <note key="60" pos="504" pan="0" len="12" vol="100" />
          <note key="60" pos="636" pan="0" len="12" vol="100" />
          <note key="60" pos="696" pan="0" len="12" vol="100" />
        </pattern>
        <pattern pos="82176" muted="0" steps="16" name="" type="1">
          <note key="60" pos="60" pan="0" len="12" vol="100" />
          <note key="60" pos="120" pan="0" len="12" vol="100" />
          <note key="60" pos="252" pan="0" len="12" vol="100" />
          <note key="60" pos="312" pan="0" len="12" vol="100" />
          <note key="60" pos="444" pan="0" len="12" vol="100" />
          <note key="60" pos="504" pan="0" len="12" vol="100" />
          <note key="60" pos="636" pan="0" len="12" vol="100" />
          <note key="60" pos="696" pan="0" len="12" vol="100" />
        </pattern>
        <pattern pos="82944" muted="0" steps="16" name="" type="1">
          <note key="60" pos="60" pan="0" len="12" vol="100" />
          <note key="60" pos="120" pan="0" len="12" vol="100" />
          <note key="60" pos="252" pan="0" len="12" vol="100" />
          <note key="60" pos="312" pan="0" len="12" vol="100" />
          <note key="60" pos="444" pan="0" len="12" vol="100" />
          <note key="60" pos="504" pan="0" len="12" vol="100" />
          <note key="60" pos="636" pan="0" len="12" vol="100" />
          <note key="60" pos="696" pan="0" len="12" vol="100" />
        </pattern>
        <pattern pos="83712" muted="0" steps="16" name="" type="1">
          <note key="60" pos="60" pan="0" len="12" vol="100" />
          <note key="60" pos="120" pan="0" len="12" vol="100" />
          <note key="60" pos="252" pan="0" len="12" vol="100" />
          <note key="60" pos="312" pan="0" len="12" vol="100" />
          <note key="60" pos="444" pan="0" len="12" vol="100" />
          <note key="60" pos="504" pan="0" len="12" vol="100" />
          <note key="60" pos="636" pan="0" len="12" vol="100" />
          <note key="60" pos="696" pan="0" len="12" vol="100" />
        </pattern>
        <pattern pos="86016" muted="0" steps="16" name="" type="1">
          <note key="60" pos="60" pan="0" len="12" vol="100" />
          <note key="60" pos="120" pan="0" len="12" vol="100" />
          <note key="60" pos="252" pan="0" len="12" vol="100" />
          <note key="60" pos="312" pan="0" len="12" vol="100" />
          <note key="60" pos="444" pan="0" len="12" vol="100" />
          <note key="60" pos="504" pan="0" len="12" vol="100" />
          <note key="60" pos="636" pan="0" len="12" vol="100" />
          <note key="60" pos="696" pan="0" len="12" vol="100" />
        </pattern>
        <pattern pos="86784" muted="0" steps="16" name="" type="1">
          <note key="60" pos="60" pan="0" len="12" vol="100" />
          <note key="60" pos="120" pan="0" len="12" vol="100" />
          <note key="60" pos="252" pan="0" len="12" vol="100" />
          <note key="60" pos="312" pan="0" len="12" vol="100" />
          <note key="60" pos="444" pan="0" len="12" vol="100" />
          <note key="60" pos="504" pan="0" len="12" vol="100" />
          <note key="60" pos="636" pan="0" len="12" vol="100" />
          <note key="60" pos="696" pan="0" len="12" vol="100" />
        </pattern>
        <pattern pos="87552" muted="0" steps="16" name="" type="1">
          <note key="60" pos="60" pan="0" len="12" vol="100" />
          <note key="60" pos="120" pan="0" len="12" vol="100" />
          <note key="60" pos="252" pan="0" len="12" vol="100" />
          <note key="60" pos="312" pan="0" len="12" vol="100" />
          <note key="60" pos="444" pan="0" len="12" vol="100" />
          <note key="60" pos="504" pan="0" len="12" vol="100" />
          <note key="60" pos="636" pan="0" len="12" vol="100" />
          <note key="60" pos="696" pan="0" len="12" vol="100" />
        </pattern>
        <pattern pos="88320" muted="0" steps="16" name="" type="1">
          <note key="60" pos="60" pan="0" len="12" vol="100" />
          <note key="60" pos="120" pan="0" len="12" vol="100" />
          <note key="60" pos="252" pan="0" len="12" vol="100" />
          <note key="60" pos="312" pan="0" len="12" vol="100" />
          <note key="60" pos="444" pan="0" len="12" vol="100" />
          <note key="60" pos="504" pan="0" len="12" vol="100" />
          <note key="60" pos="636" pan="0" len="12" vol="100" />
          <note key="60" pos="696" pan="0" len="12" vol="100" />
        </pattern>
        <pattern pos="89088" muted="0" steps="16" name="" type="1">
          <note key="60" pos="60" pan="0" len="12" vol="100" />
          <note key="60" pos="120" pan="0" len="12" vol="100" />
          <note key="60" pos="252" pan="0" len="12" vol="100" />
          <note key="60" pos="312" pan="0" len="12" vol="100" />
          <note key="60" pos="444" pan="0" len="12" vol="100" />
          <note key="60" pos="504" pan="0" len="12" vol="100" />
          <note key="60" pos="636" pan="0" len="12" vol="100" />
          <note key="60" pos="696" pan="0" len="12" vol="100" />
        </pattern>
        <pattern pos="89856" muted="0" steps="16" name="" type="1">
          <note key="60" pos="60" pan="0" len="12" vol="100" />
          <note key="60" pos="120" pan="0" len="12" vol="100" />
          <note key="60" pos="252" pan="0" len="12" vol="100" />
          <note key="60" pos="312" pan="0" len="12" vol="100" />
          <note key="60" pos="444" pan="0" len="12" vol="100" />
          <note key="60" pos="504" pan="0" len="12" vol="100" />
          <note key="60" pos="636" pan="0" len="12" vol="100" />
          <note key="60" pos="696" pan="0" len="12" vol="100" />
        </pattern>
        <pattern pos="90624" muted="0" steps="16" name="" type="1">
          <note key="60" pos="60" pan="0" len="12" vol="100" />
          <note key="60" pos="120" pan="0" len="12" vol="100" />
          <note key="60" pos="252" pan="0" len="12" vol="100" />
          <note key="60" pos="312" pan="0" len="12" vol="100" />
          <note key="60" pos="444" pan="0" len="12" vol="100" />
          <note key="60" pos="504" pan="0" len="12" vol="100" />
          <note key="60" pos="636" pan="0" len="12" vol="100" />
          <note key="60" pos="696" pan="0" len="12" vol="100" />
        </pattern>
      </track>
      <track solo="0" name="41 (Ch3)" type="0" muted="0">
        <instrumenttrack usemasterpitch="1" pitch="0.0" basenote="57" pan="0" pitchrange="12" vol="30">
          <eldata />
          <instrument name="tripleoscillator" />
        </instrumenttrack>
        <pattern pos="133632" muted="0" steps="16" name="" type="1">
          <note key="60" pos="120" pan="0" len="24" vol="100" />
          <note key="60" pos="504" pan="0" len="24" vol="100" />
          <note key="60" pos="888" pan="0" len="24" vol="100" />
          <note key="60" pos="1272" pan="0" len="24" vol="100" />
        </pattern>
        <pattern pos="768" muted="0" steps="16" name="" type="1">
          <note key="57" pos="144" pan="0" len="24" vol="100" />
          <note key="57" pos="336" pan="0" len="24" vol="100" />
          <note key="57" pos="528" pan="0" len="24" vol="100" />
          <note key="57" pos="720" pan="0" len="24" vol="100" />
        </pattern>
        <pattern pos="1536" muted="0" steps="16" name="" type="1">
          <note key="57" pos="144" pan="0" len="24" vol="100" />
          <note key="57" pos="336" pan="0" len="24" vol="100" />
          <note key="57" pos="528" pan="0" len="24" vol="100" />
          <note key="57" pos="720" pan="0" len="24" vol="100" />
        </pattern>
        <pattern pos="2304" muted="0" steps="16" name="" type="1">
          <note key="57" pos="144" pan="0" len="24" vol="100" />
          <note key="57" pos="336" pan="0" len="24" vol="100" />
          <note key="57" pos="528" pan="0" len="24" vol="100" />
          <note key="57" pos="720" pan="0" len="24" vol="100" />
        </pattern>
        <pattern pos="3072" muted="0" steps="16" name="" type="1">
          <note key="57" pos="144" pan="0" len="24" vol="100" />
          <note key="57" pos="336" pan="0" len="24" vol="100" />
          <note key="57" pos="528" pan="0" len="24" vol="100" />
          <note key="57" pos="720" pan="0" len="24" vol="100" />
        </pattern>
        <pattern pos="92160" muted="0" steps="16" name="" type="1">
          <note key="60" pos="384" pan="0" len="96" vol="100" />
          <note key="60" pos="672" pan="0" len="24" vol="100" />
        </pattern>
        <pattern pos="93696" muted="0" steps="16" name="" type="1">
          <note key="60" pos="672" pan="0" len="24" vol="100" />
        </pattern>
        <pattern pos="95232" muted="0" steps="16" name="" type="1">
          <note key="60" pos="120" pan="0" len="24" vol="100" />
          <note key="60" pos="504" pan="0" len="24" vol="100" />
          <note key="60" pos="888" pan="0" len="24" vol="100" />
          <note key="60" pos="1272" pan="0" len="24" vol="100" />
        </pattern>
        <pattern pos="96768" muted="0" steps="16" name="" type="1">
          <note key="60" pos="120" pan="0" len="24" vol="100" />
          <note key="60" pos="504" pan="0" len="24" vol="100" />
          <note key="60" pos="888" pan="0" len="24" vol="100" />
          <note key="60" pos="1272" pan="0" len="24" vol="100" />
        </pattern>
        <pattern pos="98304" muted="0" steps="16" name="" type="1">
          <note key="60" pos="120" pan="0" len="24" vol="100" />
          <note key="60" pos="504" pan="0" len="24" vol="100" />
          <note key="60" pos="888" pan="0" len="24" vol="100" />
          <note key="60" pos="1272" pan="0" len="24" vol="100" />
        </pattern>
        <pattern pos="99840" muted="0" steps="16" name="" type="1">
          <note key="60" pos="120" pan="0" len="24" vol="100" />
          <note key="60" pos="504" pan="0" len="24" vol="100" />
          <note key="60" pos="888" pan="0" len="24" vol="100" />
          <note key="60" pos="1272" pan="0" len="24" vol="100" />
        </pattern>
        <pattern pos="101376" muted="0" steps="16" name="" type="1">
          <note key="60" pos="120" pan="0" len="24" vol="100" />
          <note key="60" pos="504" pan="0" len="24" vol="100" />
          <note key="60" pos="888" pan="0" len="24" vol="100" />
          <note key="60" pos="1272" pan="0" len="24" vol="100" />
        </pattern>
        <pattern pos="102912" muted="0" steps="16" name="" type="1">
          <note key="60" pos="120" pan="0" len="24" vol="100" />
          <note key="60" pos="504" pan="0" len="24" vol="100" />
          <note key="60" pos="888" pan="0" len="24" vol="100" />
          <note key="60" pos="1272" pan="0" len="24" vol="100" />
        </pattern>
        <pattern pos="105984" muted="0" steps="16" name="" type="1">
          <note key="62" pos="120" pan="0" len="24" vol="0" />
          <note key="62" pos="504" pan="0" len="24" vol="3" />
          <note key="62" pos="888" pan="0" len="24" vol="20" />
          <note key="62" pos="1272" pan="0" len="24" vol="59" />
        </pattern>
        <pattern pos="107520" muted="0" steps="16" name="" type="1">
          <note key="65" pos="120" pan="0" len="24" vol="100" />
          <note key="65" pos="504" pan="0" len="24" vol="100" />
          <note key="65" pos="888" pan="0" len="24" vol="100" />
          <note key="65" pos="1272" pan="0" len="24" vol="100" />
        </pattern>
        <pattern pos="109056" muted="0" steps="16" name="" type="1">
          <note key="65" pos="120" pan="0" len="24" vol="100" />
          <note key="65" pos="504" pan="0" len="24" vol="100" />
          <note key="65" pos="888" pan="0" len="24" vol="100" />
          <note key="65" pos="1272" pan="0" len="24" vol="100" />
        </pattern>
        <pattern pos="110592" muted="0" steps="16" name="" type="1">
          <note key="63" pos="120" pan="0" len="24" vol="100" />
          <note key="63" pos="504" pan="0" len="24" vol="100" />
          <note key="63" pos="888" pan="0" len="24" vol="100" />
          <note key="63" pos="1272" pan="0" len="24" vol="100" />
        </pattern>
        <pattern pos="112128" muted="0" steps="16" name="" type="1">
          <note key="63" pos="120" pan="0" len="24" vol="100" />
          <note key="63" pos="504" pan="0" len="24" vol="100" />
          <note key="63" pos="888" pan="0" len="24" vol="100" />
          <note key="63" pos="1272" pan="0" len="24" vol="100" />
        </pattern>
        <pattern pos="116736" muted="0" steps="16" name="" type="1">
          <note key="60" pos="72" pan="0" len="24" vol="34" />
          <note key="60" pos="360" pan="0" len="24" vol="100" />
          <note key="60" pos="456" pan="0" len="24" vol="34" />
          <note key="60" pos="744" pan="0" len="24" vol="100" />
          <note key="60" pos="840" pan="0" len="24" vol="34" />
          <note key="60" pos="1128" pan="0" len="24" vol="100" />
          <note key="60" pos="1224" pan="0" len="24" vol="34" />
          <note key="60" pos="1512" pan="0" len="24" vol="100" />
        </pattern>
        <pattern pos="118272" muted="0" steps="16" name="" type="1">
          <note key="60" pos="72" pan="0" len="24" vol="34" />
          <note key="60" pos="360" pan="0" len="24" vol="100" />
          <note key="60" pos="456" pan="0" len="24" vol="34" />
          <note key="60" pos="744" pan="0" len="24" vol="100" />
          <note key="60" pos="840" pan="0" len="24" vol="34" />
          <note key="60" pos="1128" pan="0" len="24" vol="100" />
          <note key="60" pos="1224" pan="0" len="24" vol="34" />
        </pattern>
        <pattern pos="122880" muted="0" steps="16" name="" type="1">
          <note key="60" pos="120" pan="0" len="24" vol="100" />
          <note key="60" pos="504" pan="0" len="24" vol="100" />
          <note key="60" pos="888" pan="0" len="24" vol="100" />
          <note key="60" pos="1272" pan="0" len="24" vol="100" />
        </pattern>
        <pattern pos="124416" muted="0" steps="16" name="" type="1">
          <note key="60" pos="120" pan="0" len="24" vol="100" />
          <note key="60" pos="504" pan="0" len="24" vol="100" />
          <note key="60" pos="888" pan="0" len="24" vol="100" />
          <note key="60" pos="1272" pan="0" len="24" vol="100" />
        </pattern>
        <pattern pos="125952" muted="0" steps="16" name="" type="1">
          <note key="60" pos="120" pan="0" len="24" vol="100" />
          <note key="60" pos="504" pan="0" len="24" vol="100" />
          <note key="60" pos="888" pan="0" len="24" vol="100" />
          <note key="60" pos="1272" pan="0" len="24" vol="100" />
        </pattern>
        <pattern pos="127488" muted="0" steps="16" name="" type="1">
          <note key="60" pos="120" pan="0" len="24" vol="100" />
          <note key="60" pos="504" pan="0" len="24" vol="100" />
          <note key="60" pos="888" pan="0" len="24" vol="100" />
          <note key="60" pos="1272" pan="0" len="24" vol="100" />
        </pattern>
        <pattern pos="129024" muted="0" steps="16" name="" type="1">
          <note key="60" pos="120" pan="0" len="24" vol="100" />
          <note key="60" pos="504" pan="0" len="24" vol="100" />
          <note key="60" pos="888" pan="0" len="24" vol="100" />
          <note key="60" pos="1272" pan="0" len="24" vol="100" />
        </pattern>
        <pattern pos="130560" muted="0" steps="16" name="" type="1">
          <note key="60" pos="120" pan="0" len="24" vol="100" />
          <note key="60" pos="504" pan="0" len="24" vol="100" />
          <note key="60" pos="888" pan="0" len="24" vol="100" />
          <note key="60" pos="1272" pan="0" len="24" vol="100" />
        </pattern>
        <pattern pos="132096" muted="0" steps="16" name="" type="1">
          <note key="60" pos="120" pan="0" len="24" vol="100" />
          <note key="60" pos="504" pan="0" len="24" vol="100" />
          <note key="60" pos="888" pan="0" len="24" vol="100" />
          <note key="60" pos="1272" pan="0" len="24" vol="100" />
        </pattern>
      </track>
      <track solo="0" name="41 (Ch5)" type="0" muted="0">
        <instrumenttrack usemasterpitch="1" pitch="0.0" basenote="57" pan="0" pitchrange="12" vol="30">
          <eldata />
          <instrument name="tripleoscillator" />
        </instrumenttrack>
        <pattern pos="23808" muted="0" steps="16" name="" type="1">
          <note key="48" pos="1008" pan="0" len="24" vol="100" />
          <note key="48" pos="1296" pan="0" len="24" vol="100" />
        </pattern>
        <pattern pos="17664" muted="0" steps="16" name="" type="1">
          <note key="48" pos="240" pan="0" len="24" vol="20" />
          <note key="48" pos="528" pan="0" len="24" vol="20" />
        </pattern>
        <pattern pos="20736" muted="0" steps="16" name="" type="1">
          <note key="48" pos="240" pan="0" len="24" vol="100" />
          <note key="48" pos="528" pan="0" len="24" vol="100" />
        </pattern>
        <pattern pos="22272" muted="0" steps="16" name="" type="1">
          <note key="48" pos="240" pan="0" len="24" vol="100" />
          <note key="48" pos="528" pan="0" len="24" vol="100" />
        </pattern>
      </track>
      <track solo="0" name="41 (Ch12)" type="0" muted="0">
        <instrumenttrack usemasterpitch="1" pitch="0.0" basenote="57" pan="0" pitchrange="12" vol="30">
          <eldata />
          <instrument name="tripleoscillator" />
        </instrumenttrack>
        <pattern pos="53760" muted="0" steps="16" name="" type="1">
          <note key="60" pos="264" pan="0" len="336" vol="34" />
          <note key="48" pos="1248" pan="0" len="24" vol="50" />
        </pattern>
      </track>
      <track solo="0" name="42 (Ch2)" type="0" muted="0">
        <instrumenttrack usemasterpitch="1" pitch="0.0" basenote="57" pan="0" pitchrange="12" vol="30">
          <eldata />
          <instrument name="tripleoscillator" />
        </instrumenttrack>
        <pattern pos="161280" muted="0" steps="16" name="" type="1">
          <note key="67" pos="48" pan="0" len="24" vol="100" />
          <note key="67" pos="144" pan="0" len="24" vol="100" />
          <note key="67" pos="240" pan="0" len="24" vol="100" />
          <note key="67" pos="336" pan="0" len="24" vol="100" />
          <note key="67" pos="432" pan="0" len="24" vol="100" />
          <note key="67" pos="528" pan="0" len="24" vol="100" />
          <note key="67" pos="624" pan="0" len="24" vol="100" />
          <note key="67" pos="720" pan="0" len="24" vol="100" />
          <note key="67" pos="816" pan="0" len="24" vol="94" />
          <note key="67" pos="912" pan="0" len="24" vol="81" />
          <note key="67" pos="1008" pan="0" len="24" vol="69" />
          <note key="67" pos="1104" pan="0" len="24" vol="56" />
          <note key="67" pos="1200" pan="0" len="24" vol="44" />
          <note key="67" pos="1296" pan="0" len="24" vol="31" />
          <note key="67" pos="1392" pan="0" len="24" vol="19" />
          <note key="67" pos="1488" pan="0" len="24" vol="6" />
        </pattern>
        <pattern pos="76800" muted="0" steps="16" name="" type="1">
          <note key="67" pos="84" pan="0" len="12" vol="100" />
          <note key="67" pos="276" pan="0" len="12" vol="100" />
          <note key="67" pos="468" pan="0" len="12" vol="100" />
          <note key="67" pos="660" pan="0" len="12" vol="100" />
        </pattern>
        <pattern pos="77568" muted="0" steps="16" name="" type="1">
          <note key="67" pos="84" pan="0" len="12" vol="100" />
          <note key="67" pos="276" pan="0" len="12" vol="100" />
          <note key="67" pos="468" pan="0" len="12" vol="100" />
          <note key="67" pos="660" pan="0" len="12" vol="100" />
        </pattern>
        <pattern pos="78336" muted="0" steps="16" name="" type="1">
          <note key="67" pos="84" pan="0" len="12" vol="100" />
          <note key="67" pos="276" pan="0" len="12" vol="100" />
          <note key="67" pos="468" pan="0" len="12" vol="100" />
          <note key="67" pos="660" pan="0" len="12" vol="100" />
        </pattern>
        <pattern pos="79104" muted="0" steps="16" name="" type="1">
          <note key="67" pos="84" pan="0" len="12" vol="100" />
          <note key="67" pos="276" pan="0" len="12" vol="100" />
          <note key="67" pos="468" pan="0" len="12" vol="100" />
          <note key="67" pos="660" pan="0" len="12" vol="100" />
        </pattern>
        <pattern pos="79872" muted="0" steps="16" name="" type="1">
          <note key="67" pos="84" pan="0" len="12" vol="100" />
          <note key="67" pos="276" pan="0" len="12" vol="100" />
          <note key="67" pos="468" pan="0" len="12" vol="100" />
          <note key="67" pos="660" pan="0" len="12" vol="100" />
        </pattern>
        <pattern pos="80640" muted="0" steps="16" name="" type="1">
          <note key="67" pos="84" pan="0" len="12" vol="100" />
          <note key="67" pos="276" pan="0" len="12" vol="100" />
          <note key="67" pos="468" pan="0" len="12" vol="100" />
          <note key="67" pos="660" pan="0" len="12" vol="100" />
        </pattern>
        <pattern pos="81408" muted="0" steps="16" name="" type="1">
          <note key="67" pos="84" pan="0" len="12" vol="100" />
          <note key="67" pos="276" pan="0" len="12" vol="100" />
          <note key="67" pos="468" pan="0" len="12" vol="100" />
          <note key="67" pos="660" pan="0" len="12" vol="100" />
        </pattern>
        <pattern pos="82176" muted="0" steps="16" name="" type="1">
          <note key="67" pos="84" pan="0" len="12" vol="100" />
          <note key="67" pos="276" pan="0" len="12" vol="100" />
          <note key="67" pos="468" pan="0" len="12" vol="100" />
          <note key="67" pos="660" pan="0" len="12" vol="100" />
        </pattern>
        <pattern pos="82944" muted="0" steps="16" name="" type="1">
          <note key="67" pos="84" pan="0" len="12" vol="100" />
          <note key="67" pos="276" pan="0" len="12" vol="100" />
          <note key="67" pos="468" pan="0" len="12" vol="100" />
          <note key="67" pos="660" pan="0" len="12" vol="100" />
        </pattern>
        <pattern pos="83712" muted="0" steps="16" name="" type="1">
          <note key="67" pos="84" pan="0" len="12" vol="100" />
          <note key="67" pos="276" pan="0" len="12" vol="100" />
          <note key="67" pos="468" pan="0" len="12" vol="100" />
          <note key="67" pos="660" pan="0" len="12" vol="100" />
        </pattern>
        <pattern pos="86016" muted="0" steps="16" name="" type="1">
          <note key="67" pos="84" pan="0" len="12" vol="100" />
          <note key="67" pos="276" pan="0" len="12" vol="100" />
          <note key="67" pos="468" pan="0" len="12" vol="100" />
          <note key="67" pos="660" pan="0" len="12" vol="100" />
        </pattern>
        <pattern pos="86784" muted="0" steps="16" name="" type="1">
          <note key="67" pos="84" pan="0" len="12" vol="100" />
          <note key="67" pos="276" pan="0" len="12" vol="100" />
          <note key="67" pos="468" pan="0" len="12" vol="100" />
          <note key="67" pos="660" pan="0" len="12" vol="100" />
        </pattern>
        <pattern pos="87552" muted="0" steps="16" name="" type="1">
          <note key="67" pos="84" pan="0" len="12" vol="100" />
          <note key="67" pos="276" pan="0" len="12" vol="100" />
          <note key="67" pos="468" pan="0" len="12" vol="100" />
          <note key="67" pos="660" pan="0" len="12" vol="100" />
        </pattern>
        <pattern pos="88320" muted="0" steps="16" name="" type="1">
          <note key="67" pos="84" pan="0" len="12" vol="100" />
          <note key="67" pos="276" pan="0" len="12" vol="100" />
          <note key="67" pos="468" pan="0" len="12" vol="100" />
          <note key="67" pos="660" pan="0" len="12" vol="100" />
        </pattern>
        <pattern pos="89088" muted="0" steps="16" name="" type="1">
          <note key="67" pos="84" pan="0" len="12" vol="100" />
          <note key="67" pos="276" pan="0" len="12" vol="100" />
          <note key="67" pos="468" pan="0" len="12" vol="100" />
          <note key="67" pos="660" pan="0" len="12" vol="100" />
        </pattern>
        <pattern pos="89856" muted="0" steps="16" name="" type="1">
          <note key="67" pos="84" pan="0" len="12" vol="100" />
          <note key="67" pos="276" pan="0" len="12" vol="100" />
          <note key="67" pos="468" pan="0" len="12" vol="100" />
          <note key="67" pos="660" pan="0" len="12" vol="100" />
        </pattern>
        <pattern pos="90624" muted="0" steps="16" name="" type="1">
          <note key="67" pos="84" pan="0" len="12" vol="100" />
          <note key="67" pos="276" pan="0" len="12" vol="100" />
          <note key="67" pos="468" pan="0" len="12" vol="100" />
          <note key="67" pos="660" pan="0" len="12" vol="100" />
        </pattern>
        <pattern pos="91392" muted="0" steps="16" name="" type="1">
          <note key="67" pos="84" pan="0" len="12" vol="89" />
          <note key="67" pos="276" pan="0" len="12" vol="64" />
          <note key="67" pos="468" pan="0" len="12" vol="39" />
          <note key="67" pos="660" pan="0" len="12" vol="14" />
        </pattern>
        <pattern pos="141312" muted="0" steps="16" name="" type="1">
          <note key="67" pos="48" pan="0" len="24" vol="100" />
          <note key="67" pos="144" pan="0" len="24" vol="100" />
          <note key="67" pos="240" pan="0" len="24" vol="100" />
          <note key="67" pos="336" pan="0" len="24" vol="100" />
          <note key="67" pos="432" pan="0" len="24" vol="100" />
          <note key="67" pos="528" pan="0" len="24" vol="100" />
          <note key="67" pos="624" pan="0" len="24" vol="100" />
          <note key="67" pos="720" pan="0" len="24" vol="100" />
          <note key="67" pos="816" pan="0" len="24" vol="100" />
          <note key="67" pos="912" pan="0" len="24" vol="100" />
          <note key="67" pos="1008" pan="0" len="24" vol="100" />
          <note key="67" pos="1104" pan="0" len="24" vol="100" />
          <note key="67" pos="1200" pan="0" len="24" vol="100" />
          <note key="67" pos="1296" pan="0" len="24" vol="100" />
          <note key="67" pos="1392" pan="0" len="24" vol="100" />
          <note key="67" pos="1488" pan="0" len="24" vol="100" />
        </pattern>
        <pattern pos="142848" muted="0" steps="16" name="" type="1">
          <note key="67" pos="48" pan="0" len="24" vol="100" />
          <note key="67" pos="144" pan="0" len="24" vol="100" />
          <note key="67" pos="240" pan="0" len="24" vol="100" />
          <note key="67" pos="336" pan="0" len="24" vol="100" />
          <note key="67" pos="432" pan="0" len="24" vol="100" />
          <note key="67" pos="528" pan="0" len="24" vol="100" />
          <note key="67" pos="624" pan="0" len="24" vol="100" />
          <note key="67" pos="720" pan="0" len="24" vol="100" />
          <note key="67" pos="816" pan="0" len="24" vol="100" />
          <note key="67" pos="912" pan="0" len="24" vol="100" />
          <note key="67" pos="1008" pan="0" len="24" vol="100" />
          <note key="67" pos="1104" pan="0" len="24" vol="100" />
          <note key="67" pos="1200" pan="0" len="24" vol="100" />
          <note key="67" pos="1296" pan="0" len="24" vol="100" />
          <note key="67" pos="1392" pan="0" len="24" vol="100" />
          <note key="67" pos="1488" pan="0" len="24" vol="100" />
        </pattern>
        <pattern pos="144384" muted="0" steps="16" name="" type="1">
          <note key="67" pos="48" pan="0" len="24" vol="100" />
          <note key="67" pos="144" pan="0" len="24" vol="100" />
          <note key="67" pos="240" pan="0" len="24" vol="100" />
          <note key="67" pos="336" pan="0" len="24" vol="100" />
          <note key="67" pos="432" pan="0" len="24" vol="100" />
          <note key="67" pos="528" pan="0" len="24" vol="100" />
          <note key="67" pos="624" pan="0" len="24" vol="100" />
          <note key="67" pos="720" pan="0" len="24" vol="100" />
          <note key="67" pos="816" pan="0" len="24" vol="100" />
          <note key="67" pos="912" pan="0" len="24" vol="100" />
          <note key="67" pos="1008" pan="0" len="24" vol="100" />
          <note key="67" pos="1104" pan="0" len="24" vol="100" />
          <note key="67" pos="1200" pan="0" len="24" vol="100" />
          <note key="67" pos="1296" pan="0" len="24" vol="100" />
          <note key="67" pos="1392" pan="0" len="24" vol="100" />
          <note key="67" pos="1488" pan="0" len="24" vol="100" />
        </pattern>
        <pattern pos="145920" muted="0" steps="16" name="" type="1">
          <note key="67" pos="48" pan="0" len="24" vol="100" />
          <note key="67" pos="144" pan="0" len="24" vol="100" />
          <note key="67" pos="240" pan="0" len="24" vol="100" />
          <note key="67" pos="336" pan="0" len="24" vol="100" />
          <note key="67" pos="432" pan="0" len="24" vol="100" />
          <note key="67" pos="528" pan="0" len="24" vol="100" />
          <note key="67" pos="624" pan="0" len="24" vol="100" />
          <note key="67" pos="720" pan="0" len="24" vol="100" />
          <note key="67" pos="816" pan="0" len="24" vol="100" />
          <note key="67" pos="912" pan="0" len="24" vol="100" />
          <note key="67" pos="1008" pan="0" len="24" vol="100" />
          <note key="67" pos="1104" pan="0" len="24" vol="100" />
          <note key="67" pos="1200" pan="0" len="24" vol="100" />
          <note key="67" pos="1296" pan="0" len="24" vol="100" />
          <note key="67" pos="1392" pan="0" len="24" vol="100" />
          <note key="67" pos="1488" pan="0" len="24" vol="100" />
        </pattern>
        <pattern pos="147456" muted="0" steps="16" name="" type="1">
          <note key="67" pos="48" pan="0" len="24" vol="100" />
          <note key="67" pos="144" pan="0" len="24" vol="100" />
          <note key="67" pos="240" pan="0" len="24" vol="100" />
          <note key="67" pos="336" pan="0" len="24" vol="100" />
          <note key="67" pos="432" pan="0" len="24" vol="100" />
          <note key="67" pos="528" pan="0" len="24" vol="100" />
          <note key="67" pos="624" pan="0" len="24" vol="100" />
          <note key="67" pos="720" pan="0" len="24" vol="100" />
          <note key="67" pos="816" pan="0" len="24" vol="100" />
          <note key="67" pos="912" pan="0" len="24" vol="100" />
          <note key="67" pos="1008" pan="0" len="24" vol="100" />
          <note key="67" pos="1104" pan="0" len="24" vol="100" />
          <note key="67" pos="1200" pan="0" len="24" vol="100" />
          <note key="67" pos="1296" pan="0" len="24" vol="100" />
          <note key="67" pos="1392" pan="0" len="24" vol="100" />
          <note key="67" pos="1488" pan="0" len="24" vol="100" />
        </pattern>
        <pattern pos="148992" muted="0" steps="16" name="" type="1">
          <note key="67" pos="48" pan="0" len="24" vol="100" />
          <note key="67" pos="144" pan="0" len="24" vol="100" />
          <note key="67" pos="240" pan="0" len="24" vol="100" />
          <note key="67" pos="336" pan="0" len="24" vol="100" />
          <note key="67" pos="432" pan="0" len="24" vol="100" />
          <note key="67" pos="528" pan="0" len="24" vol="100" />
          <note key="67" pos="624" pan="0" len="24" vol="100" />
          <note key="67" pos="720" pan="0" len="24" vol="100" />
          <note key="67" pos="816" pan="0" len="24" vol="100" />
          <note key="67" pos="912" pan="0" len="24" vol="100" />
          <note key="67" pos="1008" pan="0" len="24" vol="100" />
          <note key="67" pos="1104" pan="0" len="24" vol="100" />
          <note key="67" pos="1200" pan="0" len="24" vol="100" />
          <note key="67" pos="1296" pan="0" len="24" vol="100" />
          <note key="67" pos="1392" pan="0" len="24" vol="100" />
          <note key="67" pos="1488" pan="0" len="24" vol="100" />
        </pattern>
        <pattern pos="150528" muted="0" steps="16" name="" type="1">
          <note key="67" pos="48" pan="0" len="24" vol="100" />
          <note key="67" pos="144" pan="0" len="24" vol="100" />
          <note key="67" pos="240" pan="0" len="24" vol="100" />
          <note key="67" pos="336" pan="0" len="24" vol="100" />
          <note key="67" pos="432" pan="0" len="24" vol="100" />
          <note key="67" pos="528" pan="0" len="24" vol="100" />
          <note key="67" pos="624" pan="0" len="24" vol="100" />
          <note key="67" pos="720" pan="0" len="24" vol="100" />
          <note key="67" pos="816" pan="0" len="24" vol="100" />
          <note key="67" pos="912" pan="0" len="24" vol="100" />
          <note key="67" pos="1008" pan="0" len="24" vol="100" />
          <note key="67" pos="1104" pan="0" len="24" vol="100" />
          <note key="67" pos="1200" pan="0" len="24" vol="100" />
          <note key="67" pos="1296" pan="0" len="24" vol="100" />
          <note key="67" pos="1392" pan="0" len="24" vol="100" />
          <note key="67" pos="1488" pan="0" len="24" vol="100" />
        </pattern>
        <pattern pos="152064" muted="0" steps="16" name="" type="1">
          <note key="67" pos="48" pan="0" len="24" vol="100" />
          <note key="67" pos="144" pan="0" len="24" vol="100" />
          <note key="67" pos="240" pan="0" len="24" vol="100" />
          <note key="67" pos="336" pan="0" len="24" vol="100" />
          <note key="67" pos="432" pan="0" len="24" vol="100" />
          <note key="67" pos="528" pan="0" len="24" vol="100" />
          <note key="67" pos="624" pan="0" len="24" vol="100" />
          <note key="67" pos="720" pan="0" len="24" vol="100" />
          <note key="67" pos="816" pan="0" len="24" vol="100" />
          <note key="67" pos="912" pan="0" len="24" vol="100" />
          <note key="67" pos="1008" pan="0" len="24" vol="100" />
          <note key="67" pos="1104" pan="0" len="24" vol="100" />
          <note key="67" pos="1200" pan="0" len="24" vol="100" />
          <note key="67" pos="1296" pan="0" len="24" vol="100" />
          <note key="67" pos="1392" pan="0" len="24" vol="100" />
          <note key="67" pos="1488" pan="0" len="24" vol="100" />
        </pattern>
        <pattern pos="153600" muted="0" steps="16" name="" type="1">
          <note key="67" pos="48" pan="0" len="24" vol="100" />
          <note key="67" pos="144" pan="0" len="24" vol="100" />
          <note key="67" pos="240" pan="0" len="24" vol="100" />
          <note key="67" pos="336" pan="0" len="24" vol="100" />
          <note key="67" pos="432" pan="0" len="24" vol="100" />
          <note key="67" pos="528" pan="0" len="24" vol="100" />
          <note key="67" pos="624" pan="0" len="24" vol="100" />
          <note key="67" pos="720" pan="0" len="24" vol="100" />
          <note key="67" pos="816" pan="0" len="24" vol="100" />
          <note key="67" pos="912" pan="0" len="24" vol="100" />
          <note key="67" pos="1008" pan="0" len="24" vol="100" />
          <note key="67" pos="1104" pan="0" len="24" vol="100" />
          <note key="67" pos="1200" pan="0" len="24" vol="100" />
          <note key="67" pos="1296" pan="0" len="24" vol="100" />
          <note key="67" pos="1392" pan="0" len="24" vol="100" />
          <note key="67" pos="1488" pan="0" len="24" vol="100" />
        </pattern>
        <pattern pos="155136" muted="0" steps="16" name="" type="1">
          <note key="67" pos="48" pan="0" len="24" vol="100" />
          <note key="67" pos="144" pan="0" len="24" vol="100" />
          <note key="67" pos="240" pan="0" len="24" vol="100" />
          <note key="67" pos="336" pan="0" len="24" vol="100" />
          <note key="67" pos="432" pan="0" len="24" vol="100" />
          <note key="67" pos="528" pan="0" len="24" vol="100" />
          <note key="67" pos="624" pan="0" len="24" vol="100" />
          <note key="67" pos="720" pan="0" len="24" vol="100" />
          <note key="67" pos="816" pan="0" len="24" vol="100" />
          <note key="67" pos="912" pan="0" len="24" vol="100" />
          <note key="67" pos="1008" pan="0" len="24" vol="100" />
          <note key="67" pos="1104" pan="0" len="24" vol="100" />
          <note key="67" pos="1200" pan="0" len="24" vol="100" />
          <note key="67" pos="1296" pan="0" len="24" vol="100" />
          <note key="67" pos="1392" pan="0" len="24" vol="100" />
          <note key="67" pos="1488" pan="0" len="24" vol="100" />
        </pattern>
        <pattern pos="156672" muted="0" steps="16" name="" type="1">
          <note key="67" pos="48" pan="0" len="24" vol="100" />
          <note key="67" pos="144" pan="0" len="24" vol="100" />
          <note key="67" pos="240" pan="0" len="24" vol="100" />
          <note key="67" pos="336" pan="0" len="24" vol="100" />
          <note key="67" pos="432" pan="0" len="24" vol="100" />
          <note key="67" pos="528" pan="0" len="24" vol="100" />
          <note key="67" pos="624" pan="0" len="24" vol="100" />
          <note key="67" pos="720" pan="0" len="24" vol="100" />
          <note key="67" pos="816" pan="0" len="24" vol="100" />
          <note key="67" pos="912" pan="0" len="24" vol="100" />
          <note key="67" pos="1008" pan="0" len="24" vol="100" />
          <note key="67" pos="1104" pan="0" len="24" vol="100" />
          <note key="67" pos="1200" pan="0" len="24" vol="100" />
          <note key="67" pos="1296" pan="0" len="24" vol="100" />
          <note key="67" pos="1392" pan="0" len="24" vol="100" />
          <note key="67" pos="1488" pan="0" len="24" vol="100" />
        </pattern>
        <pattern pos="158208" muted="0" steps="16" name="" type="1">
          <note key="67" pos="48" pan="0" len="24" vol="100" />
          <note key="67" pos="144" pan="0" len="24" vol="100" />
          <note key="67" pos="240" pan="0" len="24" vol="100" />
          <note key="67" pos="336" pan="0" len="24" vol="100" />
          <note key="67" pos="432" pan="0" len="24" vol="100" />
          <note key="67" pos="528" pan="0" len="24" vol="100" />
          <note key="67" pos="624" pan="0" len="24" vol="100" />
          <note key="67" pos="720" pan="0" len="24" vol="100" />
          <note key="67" pos="816" pan="0" len="24" vol="100" />
          <note key="67" pos="912" pan="0" len="24" vol="100" />
          <note key="67" pos="1008" pan="0" len="24" vol="100" />
          <note key="67" pos="1104" pan="0" len="24" vol="100" />
          <note key="67" pos="1200" pan="0" len="24" vol="100" />
          <note key="67" pos="1296" pan="0" len="24" vol="100" />
          <note key="67" pos="1392" pan="0" len="24" vol="100" />
          <note key="67" pos="1488" pan="0" len="24" vol="100" />
        </pattern>
        <pattern pos="159744" muted="0" steps="16" name="" type="1">
          <note key="67" pos="48" pan="0" len="24" vol="100" />
          <note key="67" pos="144" pan="0" len="24" vol="100" />
          <note key="67" pos="240" pan="0" len="24" vol="100" />
          <note key="67" pos="336" pan="0" len="24" vol="100" />
          <note key="67" pos="432" pan="0" len="24" vol="100" />
          <note key="67" pos="528" pan="0" len="24" vol="100" />
          <note key="67" pos="624" pan="0" len="24" vol="100" />
          <note key="67" pos="720" pan="0" len="24" vol="100" />
          <note key="67" pos="816" pan="0" len="24" vol="100" />
          <note key="67" pos="912" pan="0" len="24" vol="100" />
          <note key="67" pos="1008" pan="0" len="24" vol="100" />
          <note key="67" pos="1104" pan="0" len="24" vol="100" />
          <note key="67" pos="1200" pan="0" len="24" vol="100" />
          <note key="67" pos="1296" pan="0" len="24" vol="100" />
          <note key="67" pos="1392" pan="0" len="24" vol="100" />
          <note key="67" pos="1488" pan="0" len="24" vol="100" />
        </pattern>
      </track>
      <track solo="0" name="42 (Ch3)" type="0" muted="0">
        <instrumenttrack usemasterpitch="1" pitch="0.0" basenote="57" pan="0" pitchrange="12" vol="30">
          <eldata />
          <instrument name="tripleoscillator" />
        </instrumenttrack>
        <pattern pos="93696" muted="0" steps="16" name="" type="1">
          <note key="60" pos="696" pan="0" len="24" vol="100" />
        </pattern>
        <pattern pos="29568" muted="0" steps="16" name="" type="1">
          <note key="60" pos="24" pan="0" len="12" vol="100" />
          <note key="60" pos="36" pan="0" len="48" vol="100" />
          <note key="60" pos="96" pan="0" len="12" vol="100" />
          <note key="60" pos="108" pan="0" len="12" vol="100" />
          <note key="60" pos="168" pan="0" len="12" vol="100" />
          <note key="60" pos="180" pan="0" len="12" vol="100" />
          <note key="60" pos="240" pan="0" len="12" vol="100" />
          <note key="60" pos="252" pan="0" len="12" vol="100" />
          <note key="60" pos="312" pan="0" len="12" vol="100" />
          <note key="60" pos="324" pan="0" len="48" vol="100" />
          <note key="60" pos="384" pan="0" len="12" vol="100" />
          <note key="60" pos="396" pan="0" len="12" vol="100" />
          <note key="60" pos="456" pan="0" len="12" vol="100" />
          <note key="60" pos="468" pan="0" len="12" vol="100" />
          <note key="60" pos="528" pan="0" len="12" vol="100" />
          <note key="60" pos="540" pan="0" len="12" vol="100" />
          <note key="60" pos="600" pan="0" len="12" vol="100" />
          <note key="60" pos="612" pan="0" len="48" vol="100" />
          <note key="60" pos="672" pan="0" len="12" vol="100" />
          <note key="60" pos="684" pan="0" len="12" vol="100" />
          <note key="60" pos="744" pan="0" len="12" vol="100" />
          <note key="60" pos="756" pan="0" len="12" vol="100" />
          <note key="60" pos="816" pan="0" len="12" vol="100" />
          <note key="60" pos="828" pan="0" len="12" vol="100" />
          <note key="60" pos="888" pan="0" len="12" vol="100" />
          <note key="60" pos="900" pan="0" len="48" vol="100" />
          <note key="60" pos="960" pan="0" len="12" vol="100" />
          <note key="60" pos="972" pan="0" len="12" vol="100" />
          <note key="60" pos="1032" pan="0" len="12" vol="100" />
          <note key="60" pos="1044" pan="0" len="12" vol="100" />
          <note key="60" pos="1104" pan="0" len="12" vol="100" />
          <note key="60" pos="1116" pan="0" len="12" vol="100" />
        </pattern>
        <pattern pos="30720" muted="0" steps="16" name="" type="1">
          <note key="60" pos="24" pan="0" len="12" vol="100" />
          <note key="60" pos="36" pan="0" len="48" vol="100" />
          <note key="60" pos="96" pan="0" len="12" vol="100" />
          <note key="60" pos="108" pan="0" len="12" vol="100" />
          <note key="60" pos="168" pan="0" len="12" vol="100" />
          <note key="60" pos="180" pan="0" len="12" vol="100" />
          <note key="60" pos="240" pan="0" len="12" vol="100" />
          <note key="60" pos="252" pan="0" len="12" vol="100" />
          <note key="60" pos="312" pan="0" len="12" vol="100" />
          <note key="60" pos="324" pan="0" len="48" vol="100" />
          <note key="60" pos="384" pan="0" len="12" vol="100" />
          <note key="60" pos="396" pan="0" len="12" vol="100" />
          <note key="60" pos="456" pan="0" len="12" vol="100" />
          <note key="60" pos="468" pan="0" len="12" vol="100" />
          <note key="60" pos="528" pan="0" len="12" vol="100" />
          <note key="60" pos="540" pan="0" len="12" vol="100" />
          <note key="60" pos="600" pan="0" len="12" vol="100" />
          <note key="60" pos="612" pan="0" len="48" vol="100" />
          <note key="60" pos="672" pan="0" len="12" vol="100" />
          <note key="60" pos="684" pan="0" len="12" vol="100" />
          <note key="60" pos="744" pan="0" len="12" vol="100" />
          <note key="60" pos="756" pan="0" len="12" vol="100" />
          <note key="60" pos="816" pan="0" len="12" vol="100" />
          <note key="60" pos="828" pan="0" len="12" vol="100" />
          <note key="60" pos="888" pan="0" len="12" vol="100" />
          <note key="60" pos="900" pan="0" len="48" vol="100" />
          <note key="60" pos="960" pan="0" len="12" vol="100" />
          <note key="60" pos="972" pan="0" len="12" vol="100" />
          <note key="60" pos="1032" pan="0" len="12" vol="100" />
          <note key="60" pos="1044" pan="0" len="12" vol="100" />
          <note key="60" pos="1104" pan="0" len="12" vol="100" />
          <note key="60" pos="1116" pan="0" len="12" vol="100" />
        </pattern>
        <pattern pos="31872" muted="0" steps="16" name="" type="1">
          <note key="60" pos="24" pan="0" len="12" vol="100" />
          <note key="60" pos="36" pan="0" len="48" vol="100" />
          <note key="60" pos="96" pan="0" len="12" vol="100" />
          <note key="60" pos="108" pan="0" len="12" vol="100" />
          <note key="60" pos="168" pan="0" len="12" vol="100" />
          <note key="60" pos="180" pan="0" len="12" vol="100" />
          <note key="60" pos="240" pan="0" len="12" vol="100" />
          <note key="60" pos="252" pan="0" len="12" vol="100" />
          <note key="60" pos="312" pan="0" len="12" vol="100" />
          <note key="60" pos="324" pan="0" len="48" vol="100" />
          <note key="60" pos="384" pan="0" len="12" vol="100" />
          <note key="60" pos="396" pan="0" len="12" vol="100" />
          <note key="60" pos="456" pan="0" len="12" vol="100" />
          <note key="60" pos="468" pan="0" len="12" vol="100" />
          <note key="60" pos="528" pan="0" len="12" vol="100" />
          <note key="60" pos="540" pan="0" len="12" vol="100" />
          <note key="60" pos="600" pan="0" len="12" vol="100" />
          <note key="60" pos="612" pan="0" len="48" vol="100" />
          <note key="60" pos="672" pan="0" len="12" vol="100" />
          <note key="60" pos="684" pan="0" len="12" vol="100" />
          <note key="60" pos="744" pan="0" len="12" vol="100" />
          <note key="60" pos="756" pan="0" len="12" vol="100" />
          <note key="60" pos="816" pan="0" len="12" vol="100" />
          <note key="60" pos="828" pan="0" len="12" vol="100" />
          <note key="60" pos="888" pan="0" len="12" vol="100" />
          <note key="60" pos="900" pan="0" len="48" vol="100" />
          <note key="60" pos="960" pan="0" len="12" vol="100" />
          <note key="60" pos="972" pan="0" len="12" vol="100" />
          <note key="60" pos="1032" pan="0" len="12" vol="100" />
          <note key="60" pos="1044" pan="0" len="12" vol="100" />
          <note key="60" pos="1104" pan="0" len="12" vol="100" />
          <note key="60" pos="1116" pan="0" len="12" vol="100" />
        </pattern>
        <pattern pos="33024" muted="0" steps="16" name="" type="1">
          <note key="60" pos="24" pan="0" len="12" vol="100" />
          <note key="60" pos="36" pan="0" len="48" vol="100" />
          <note key="60" pos="96" pan="0" len="12" vol="100" />
          <note key="60" pos="108" pan="0" len="12" vol="100" />
          <note key="60" pos="168" pan="0" len="12" vol="100" />
          <note key="60" pos="180" pan="0" len="12" vol="100" />
          <note key="60" pos="240" pan="0" len="12" vol="100" />
          <note key="60" pos="252" pan="0" len="12" vol="100" />
          <note key="60" pos="312" pan="0" len="12" vol="100" />
          <note key="60" pos="324" pan="0" len="48" vol="100" />
          <note key="60" pos="384" pan="0" len="12" vol="100" />
          <note key="60" pos="396" pan="0" len="12" vol="100" />
          <note key="60" pos="456" pan="0" len="12" vol="100" />
          <note key="60" pos="468" pan="0" len="12" vol="100" />
          <note key="60" pos="528" pan="0" len="12" vol="100" />
          <note key="60" pos="540" pan="0" len="12" vol="100" />
          <note key="60" pos="600" pan="0" len="12" vol="100" />
          <note key="60" pos="612" pan="0" len="48" vol="100" />
          <note key="60" pos="672" pan="0" len="12" vol="100" />
          <note key="60" pos="684" pan="0" len="12" vol="100" />
          <note key="60" pos="744" pan="0" len="12" vol="100" />
          <note key="60" pos="756" pan="0" len="12" vol="100" />
          <note key="60" pos="816" pan="0" len="12" vol="100" />
          <note key="60" pos="828" pan="0" len="12" vol="100" />
          <note key="60" pos="888" pan="0" len="12" vol="100" />
          <note key="60" pos="900" pan="0" len="48" vol="100" />
          <note key="60" pos="960" pan="0" len="12" vol="100" />
          <note key="60" pos="972" pan="0" len="12" vol="100" />
          <note key="60" pos="1032" pan="0" len="12" vol="100" />
          <note key="60" pos="1044" pan="0" len="12" vol="100" />
          <note key="60" pos="1104" pan="0" len="12" vol="100" />
          <note key="60" pos="1116" pan="0" len="12" vol="100" />
        </pattern>
        <pattern pos="36480" muted="0" steps="16" name="" type="1">
          <note key="60" pos="24" pan="0" len="12" vol="100" />
          <note key="60" pos="36" pan="0" len="48" vol="100" />
          <note key="60" pos="96" pan="0" len="12" vol="100" />
          <note key="60" pos="108" pan="0" len="12" vol="100" />
          <note key="60" pos="168" pan="0" len="12" vol="100" />
          <note key="60" pos="180" pan="0" len="12" vol="100" />
          <note key="60" pos="240" pan="0" len="12" vol="100" />
          <note key="60" pos="252" pan="0" len="12" vol="100" />
          <note key="60" pos="312" pan="0" len="12" vol="100" />
          <note key="60" pos="324" pan="0" len="48" vol="100" />
          <note key="60" pos="384" pan="0" len="12" vol="100" />
          <note key="60" pos="396" pan="0" len="12" vol="100" />
          <note key="60" pos="456" pan="0" len="12" vol="100" />
          <note key="60" pos="468" pan="0" len="12" vol="100" />
          <note key="60" pos="528" pan="0" len="12" vol="100" />
          <note key="60" pos="540" pan="0" len="12" vol="100" />
          <note key="60" pos="600" pan="0" len="12" vol="100" />
          <note key="60" pos="612" pan="0" len="48" vol="100" />
          <note key="60" pos="672" pan="0" len="12" vol="100" />
          <note key="60" pos="684" pan="0" len="12" vol="100" />
          <note key="60" pos="744" pan="0" len="12" vol="100" />
          <note key="60" pos="756" pan="0" len="12" vol="100" />
          <note key="60" pos="816" pan="0" len="12" vol="100" />
          <note key="60" pos="828" pan="0" len="12" vol="100" />
          <note key="60" pos="888" pan="0" len="12" vol="100" />
          <note key="60" pos="900" pan="0" len="48" vol="100" />
          <note key="60" pos="960" pan="0" len="12" vol="100" />
          <note key="60" pos="972" pan="0" len="12" vol="100" />
          <note key="60" pos="1032" pan="0" len="12" vol="100" />
          <note key="60" pos="1044" pan="0" len="12" vol="100" />
          <note key="60" pos="1104" pan="0" len="12" vol="100" />
          <note key="60" pos="1116" pan="0" len="12" vol="100" />
        </pattern>
        <pattern pos="37632" muted="0" steps="16" name="" type="1">
          <note key="60" pos="24" pan="0" len="12" vol="100" />
          <note key="60" pos="36" pan="0" len="48" vol="100" />
          <note key="60" pos="96" pan="0" len="12" vol="100" />
          <note key="60" pos="108" pan="0" len="12" vol="100" />
          <note key="60" pos="168" pan="0" len="12" vol="100" />
          <note key="60" pos="180" pan="0" len="12" vol="100" />
          <note key="60" pos="240" pan="0" len="12" vol="100" />
          <note key="60" pos="252" pan="0" len="12" vol="100" />
          <note key="60" pos="312" pan="0" len="12" vol="100" />
          <note key="60" pos="324" pan="0" len="48" vol="100" />
          <note key="60" pos="384" pan="0" len="12" vol="100" />
          <note key="60" pos="396" pan="0" len="12" vol="100" />
          <note key="60" pos="456" pan="0" len="12" vol="100" />
          <note key="60" pos="468" pan="0" len="12" vol="100" />
          <note key="60" pos="528" pan="0" len="12" vol="100" />
          <note key="60" pos="540" pan="0" len="12" vol="100" />
          <note key="60" pos="600" pan="0" len="12" vol="100" />
          <note key="60" pos="612" pan="0" len="48" vol="100" />
          <note key="60" pos="672" pan="0" len="12" vol="100" />
          <note key="60" pos="684" pan="0" len="12" vol="100" />
          <note key="60" pos="744" pan="0" len="12" vol="100" />
          <note key="60" pos="756" pan="0" len="12" vol="100" />
          <note key="60" pos="816" pan="0" len="12" vol="100" />
          <note key="60" pos="828" pan="0" len="12" vol="100" />
          <note key="60" pos="888" pan="0" len="12" vol="100" />
          <note key="60" pos="900" pan="0" len="48" vol="100" />
          <note key="60" pos="960" pan="0" len="12" vol="100" />
          <note key="60" pos="972" pan="0" len="12" vol="100" />
          <note key="60" pos="1032" pan="0" len="12" vol="100" />
          <note key="60" pos="1044" pan="0" len="12" vol="100" />
          <note key="60" pos="1104" pan="0" len="12" vol="100" />
          <note key="60" pos="1116" pan="0" len="12" vol="100" />
        </pattern>
        <pattern pos="38784" muted="0" steps="16" name="" type="1">
          <note key="60" pos="24" pan="0" len="12" vol="100" />
          <note key="60" pos="36" pan="0" len="48" vol="100" />
          <note key="60" pos="96" pan="0" len="12" vol="100" />
          <note key="60" pos="108" pan="0" len="12" vol="100" />
          <note key="60" pos="168" pan="0" len="12" vol="100" />
          <note key="60" pos="180" pan="0" len="12" vol="100" />
          <note key="60" pos="240" pan="0" len="12" vol="100" />
          <note key="60" pos="252" pan="0" len="12" vol="100" />
          <note key="60" pos="312" pan="0" len="12" vol="100" />
          <note key="60" pos="324" pan="0" len="48" vol="100" />
          <note key="60" pos="384" pan="0" len="12" vol="100" />
          <note key="60" pos="396" pan="0" len="12" vol="100" />
          <note key="60" pos="456" pan="0" len="12" vol="100" />
          <note key="60" pos="468" pan="0" len="12" vol="100" />
          <note key="60" pos="528" pan="0" len="12" vol="100" />
          <note key="60" pos="540" pan="0" len="12" vol="100" />
          <note key="60" pos="600" pan="0" len="12" vol="100" />
          <note key="60" pos="612" pan="0" len="48" vol="100" />
          <note key="60" pos="672" pan="0" len="12" vol="100" />
          <note key="60" pos="684" pan="0" len="12" vol="100" />
          <note key="60" pos="744" pan="0" len="12" vol="100" />
          <note key="60" pos="756" pan="0" len="12" vol="100" />
          <note key="60" pos="816" pan="0" len="12" vol="100" />
          <note key="60" pos="828" pan="0" len="12" vol="100" />
          <note key="60" pos="888" pan="0" len="12" vol="100" />
          <note key="60" pos="900" pan="0" len="48" vol="100" />
          <note key="60" pos="960" pan="0" len="12" vol="100" />
          <note key="60" pos="972" pan="0" len="12" vol="100" />
          <note key="60" pos="1032" pan="0" len="12" vol="100" />
          <note key="60" pos="1044" pan="0" len="12" vol="100" />
          <note key="60" pos="1104" pan="0" len="12" vol="100" />
          <note key="60" pos="1116" pan="0" len="12" vol="100" />
        </pattern>
        <pattern pos="39936" muted="0" steps="16" name="" type="1">
          <note key="60" pos="24" pan="0" len="12" vol="100" />
          <note key="60" pos="36" pan="0" len="48" vol="100" />
          <note key="60" pos="96" pan="0" len="12" vol="100" />
          <note key="60" pos="108" pan="0" len="12" vol="100" />
          <note key="60" pos="168" pan="0" len="12" vol="100" />
          <note key="60" pos="180" pan="0" len="12" vol="100" />
          <note key="60" pos="240" pan="0" len="12" vol="100" />
          <note key="60" pos="252" pan="0" len="12" vol="100" />
          <note key="60" pos="312" pan="0" len="12" vol="100" />
          <note key="60" pos="324" pan="0" len="48" vol="100" />
          <note key="60" pos="384" pan="0" len="12" vol="100" />
          <note key="60" pos="396" pan="0" len="12" vol="100" />
          <note key="60" pos="456" pan="0" len="12" vol="100" />
          <note key="60" pos="468" pan="0" len="12" vol="100" />
          <note key="60" pos="528" pan="0" len="12" vol="100" />
          <note key="60" pos="540" pan="0" len="12" vol="100" />
          <note key="60" pos="600" pan="0" len="12" vol="100" />
          <note key="60" pos="612" pan="0" len="48" vol="100" />
          <note key="60" pos="672" pan="0" len="12" vol="100" />
          <note key="60" pos="684" pan="0" len="12" vol="100" />
          <note key="60" pos="744" pan="0" len="12" vol="100" />
          <note key="60" pos="756" pan="0" len="12" vol="100" />
          <note key="60" pos="816" pan="0" len="12" vol="100" />
          <note key="60" pos="828" pan="0" len="12" vol="100" />
          <note key="60" pos="888" pan="0" len="12" vol="100" />
          <note key="60" pos="900" pan="0" len="48" vol="100" />
          <note key="60" pos="960" pan="0" len="12" vol="100" />
          <note key="60" pos="972" pan="0" len="12" vol="94" />
          <note key="60" pos="1032" pan="0" len="12" vol="62" />
          <note key="60" pos="1044" pan="0" len="12" vol="56" />
          <note key="60" pos="1104" pan="0" len="12" vol="25" />
          <note key="60" pos="1116" pan="0" len="12" vol="19" />
        </pattern>
      </track>
      <track solo="0" name="42 (Ch5)" type="0" muted="0">
        <instrumenttrack usemasterpitch="1" pitch="0.0" basenote="57" pan="0" pitchrange="12" vol="30">
          <eldata />
          <instrument name="tripleoscillator" />
        </instrumenttrack>
        <pattern pos="28416" muted="0" steps="16" name="" type="1">
          <note key="60" pos="24" pan="0" len="12" vol="100" />
          <note key="60" pos="36" pan="0" len="48" vol="100" />
          <note key="60" pos="96" pan="0" len="12" vol="100" />
          <note key="60" pos="108" pan="0" len="12" vol="100" />
          <note key="60" pos="168" pan="0" len="12" vol="100" />
          <note key="60" pos="180" pan="0" len="12" vol="100" />
          <note key="60" pos="240" pan="0" len="12" vol="100" />
          <note key="60" pos="252" pan="0" len="12" vol="100" />
          <note key="60" pos="312" pan="0" len="12" vol="100" />
          <note key="60" pos="324" pan="0" len="48" vol="100" />
          <note key="60" pos="384" pan="0" len="12" vol="100" />
          <note key="60" pos="396" pan="0" len="12" vol="100" />
          <note key="60" pos="456" pan="0" len="12" vol="100" />
          <note key="60" pos="468" pan="0" len="12" vol="100" />
          <note key="60" pos="528" pan="0" len="12" vol="100" />
          <note key="60" pos="540" pan="0" len="12" vol="100" />
          <note key="60" pos="600" pan="0" len="12" vol="100" />
          <note key="60" pos="612" pan="0" len="48" vol="100" />
          <note key="60" pos="672" pan="0" len="12" vol="100" />
          <note key="60" pos="684" pan="0" len="12" vol="100" />
          <note key="60" pos="744" pan="0" len="12" vol="100" />
          <note key="60" pos="756" pan="0" len="12" vol="100" />
          <note key="60" pos="816" pan="0" len="12" vol="100" />
          <note key="60" pos="828" pan="0" len="12" vol="100" />
          <note key="60" pos="888" pan="0" len="12" vol="100" />
          <note key="60" pos="900" pan="0" len="48" vol="100" />
          <note key="60" pos="960" pan="0" len="12" vol="100" />
          <note key="60" pos="972" pan="0" len="12" vol="100" />
          <note key="60" pos="1032" pan="0" len="12" vol="100" />
          <note key="60" pos="1044" pan="0" len="12" vol="100" />
          <note key="60" pos="1104" pan="0" len="12" vol="100" />
          <note key="60" pos="1116" pan="0" len="12" vol="100" />
        </pattern>
        <pattern pos="17664" muted="0" steps="16" name="" type="1">
          <note key="48" pos="264" pan="0" len="24" vol="20" />
          <note key="48" pos="504" pan="0" len="24" vol="20" />
        </pattern>
        <pattern pos="20736" muted="0" steps="16" name="" type="1">
          <note key="48" pos="264" pan="0" len="24" vol="100" />
          <note key="48" pos="504" pan="0" len="24" vol="100" />
        </pattern>
        <pattern pos="22272" muted="0" steps="16" name="" type="1">
          <note key="48" pos="264" pan="0" len="24" vol="100" />
          <note key="48" pos="504" pan="0" len="24" vol="100" />
        </pattern>
        <pattern pos="23808" muted="0" steps="16" name="" type="1">
          <note key="48" pos="1032" pan="0" len="24" vol="100" />
          <note key="48" pos="1272" pan="0" len="24" vol="100" />
        </pattern>
      </track>
      <track solo="0" name="42 (Ch6)" type="0" muted="0">
        <instrumenttrack usemasterpitch="1" pitch="0.0" basenote="57" pan="0" pitchrange="12" vol="30">
          <eldata />
          <instrument name="tripleoscillator" />
        </instrumenttrack>
        <pattern pos="215040" muted="0" steps="16" name="" type="1">
          <note key="66" pos="72" pan="0" len="24" vol="34" />
          <note key="66" pos="312" pan="0" len="24" vol="100" />
          <note key="66" pos="456" pan="0" len="24" vol="34" />
          <note key="66" pos="840" pan="0" len="24" vol="34" />
          <note key="66" pos="1080" pan="0" len="24" vol="100" />
          <note key="66" pos="1224" pan="0" len="24" vol="34" />
        </pattern>
        <pattern pos="198144" muted="0" steps="16" name="" type="1">
          <note key="64" pos="36" pan="0" len="12" vol="34" />
          <note key="64" pos="156" pan="0" len="12" vol="100" />
          <note key="64" pos="228" pan="0" len="12" vol="34" />
          <note key="64" pos="420" pan="0" len="12" vol="34" />
          <note key="64" pos="540" pan="0" len="12" vol="100" />
          <note key="64" pos="612" pan="0" len="12" vol="34" />
          <note key="64" pos="804" pan="0" len="12" vol="34" />
          <note key="64" pos="924" pan="0" len="12" vol="100" />
          <note key="64" pos="996" pan="0" len="12" vol="34" />
          <note key="64" pos="1188" pan="0" len="12" vol="34" />
          <note key="64" pos="1308" pan="0" len="12" vol="100" />
          <note key="64" pos="1380" pan="0" len="12" vol="34" />
        </pattern>
        <pattern pos="199680" muted="0" steps="16" name="" type="1">
          <note key="64" pos="36" pan="0" len="12" vol="34" />
          <note key="64" pos="156" pan="0" len="12" vol="100" />
          <note key="64" pos="228" pan="0" len="12" vol="34" />
          <note key="64" pos="420" pan="0" len="12" vol="34" />
          <note key="64" pos="540" pan="0" len="12" vol="100" />
          <note key="64" pos="612" pan="0" len="12" vol="34" />
          <note key="64" pos="804" pan="0" len="12" vol="34" />
          <note key="64" pos="924" pan="0" len="12" vol="100" />
          <note key="64" pos="996" pan="0" len="12" vol="34" />
          <note key="64" pos="1188" pan="0" len="12" vol="34" />
          <note key="64" pos="1308" pan="0" len="12" vol="100" />
          <note key="64" pos="1380" pan="0" len="12" vol="34" />
        </pattern>
        <pattern pos="201216" muted="0" steps="16" name="" type="1">
          <note key="64" pos="72" pan="0" len="24" vol="34" />
          <note key="64" pos="312" pan="0" len="24" vol="100" />
          <note key="64" pos="456" pan="0" len="24" vol="34" />
          <note key="64" pos="840" pan="0" len="24" vol="34" />
          <note key="64" pos="1080" pan="0" len="24" vol="100" />
          <note key="64" pos="1224" pan="0" len="24" vol="34" />
        </pattern>
        <pattern pos="202752" muted="0" steps="16" name="" type="1">
          <note key="64" pos="72" pan="0" len="24" vol="34" />
          <note key="64" pos="312" pan="0" len="24" vol="100" />
          <note key="64" pos="456" pan="0" len="24" vol="34" />
          <note key="64" pos="840" pan="0" len="24" vol="34" />
          <note key="64" pos="1080" pan="0" len="24" vol="100" />
          <note key="64" pos="1224" pan="0" len="24" vol="34" />
        </pattern>
        <pattern pos="204288" muted="0" steps="16" name="" type="1">
          <note key="57" pos="72" pan="0" len="24" vol="34" />
          <note key="59" pos="312" pan="0" len="24" vol="100" />
          <note key="60" pos="456" pan="0" len="24" vol="34" />
          <note key="64" pos="840" pan="0" len="24" vol="34" />
          <note key="64" pos="1080" pan="0" len="24" vol="100" />
          <note key="64" pos="1224" pan="0" len="24" vol="34" />
        </pattern>
        <pattern pos="205824" muted="0" steps="16" name="" type="1">
          <note key="57" pos="72" pan="0" len="24" vol="34" />
          <note key="59" pos="312" pan="0" len="24" vol="100" />
          <note key="60" pos="456" pan="0" len="24" vol="34" />
          <note key="64" pos="840" pan="0" len="24" vol="34" />
          <note key="64" pos="1080" pan="0" len="24" vol="100" />
          <note key="64" pos="1224" pan="0" len="24" vol="34" />
        </pattern>
        <pattern pos="207360" muted="0" steps="16" name="" type="1">
          <note key="64" pos="72" pan="0" len="24" vol="34" />
          <note key="64" pos="312" pan="0" len="24" vol="100" />
          <note key="64" pos="456" pan="0" len="24" vol="34" />
          <note key="64" pos="840" pan="0" len="24" vol="34" />
          <note key="64" pos="1080" pan="0" len="24" vol="100" />
          <note key="64" pos="1224" pan="0" len="24" vol="34" />
        </pattern>
        <pattern pos="208896" muted="0" steps="16" name="" type="1">
          <note key="64" pos="72" pan="0" len="24" vol="34" />
          <note key="64" pos="312" pan="0" len="24" vol="100" />
          <note key="64" pos="456" pan="0" len="24" vol="34" />
          <note key="64" pos="840" pan="0" len="24" vol="34" />
          <note key="64" pos="1080" pan="0" len="24" vol="100" />
          <note key="64" pos="1224" pan="0" len="24" vol="34" />
        </pattern>
        <pattern pos="210432" muted="0" steps="16" name="" type="1">
          <note key="57" pos="72" pan="0" len="24" vol="34" />
          <note key="59" pos="312" pan="0" len="24" vol="100" />
          <note key="60" pos="456" pan="0" len="24" vol="34" />
          <note key="64" pos="840" pan="0" len="24" vol="34" />
          <note key="64" pos="1080" pan="0" len="24" vol="100" />
          <note key="64" pos="1224" pan="0" len="24" vol="34" />
        </pattern>
        <pattern pos="211968" muted="0" steps="16" name="" type="1">
          <note key="57" pos="72" pan="0" len="24" vol="34" />
          <note key="59" pos="312" pan="0" len="24" vol="100" />
          <note key="60" pos="456" pan="0" len="24" vol="34" />
          <note key="64" pos="840" pan="0" len="24" vol="34" />
          <note key="64" pos="1080" pan="0" len="24" vol="100" />
          <note key="64" pos="1224" pan="0" len="24" vol="34" />
        </pattern>
        <pattern pos="213504" muted="0" steps="16" name="" type="1">
          <note key="66" pos="36" pan="0" len="12" vol="34" />
          <note key="66" pos="156" pan="0" len="12" vol="100" />
          <note key="66" pos="228" pan="0" len="12" vol="34" />
          <note key="66" pos="420" pan="0" len="12" vol="34" />
          <note key="66" pos="540" pan="0" len="12" vol="100" />
          <note key="66" pos="612" pan="0" len="12" vol="34" />
          <note key="66" pos="804" pan="0" len="12" vol="34" />
          <note key="66" pos="924" pan="0" len="12" vol="100" />
          <note key="66" pos="996" pan="0" len="12" vol="34" />
          <note key="66" pos="1188" pan="0" len="12" vol="34" />
          <note key="66" pos="1308" pan="0" len="12" vol="100" />
          <note key="66" pos="1380" pan="0" len="12" vol="34" />
        </pattern>
      </track>
      <track solo="0" name="42 (Ch7)" type="0" muted="0">
        <instrumenttrack usemasterpitch="1" pitch="0.0" basenote="57" pan="0" pitchrange="12" vol="30">
          <eldata />
          <instrument name="tripleoscillator" />
        </instrumenttrack>
        <pattern pos="175104" muted="0" steps="16" name="" type="1">
          <note key="48" pos="72" pan="0" len="24" vol="100" />
          <note key="48" pos="264" pan="0" len="24" vol="100" />
          <note key="48" pos="456" pan="0" len="24" vol="100" />
          <note key="48" pos="648" pan="0" len="24" vol="100" />
          <note key="48" pos="840" pan="0" len="24" vol="100" />
          <note key="48" pos="1032" pan="0" len="24" vol="88" />
          <note key="48" pos="1224" pan="0" len="24" vol="55" />
          <note key="48" pos="1416" pan="0" len="24" vol="20" />
        </pattern>
        <pattern pos="164352" muted="0" steps="16" name="" type="1">
          <note key="48" pos="72" pan="0" len="24" vol="100" />
          <note key="48" pos="264" pan="0" len="24" vol="100" />
          <note key="48" pos="456" pan="0" len="24" vol="100" />
          <note key="48" pos="648" pan="0" len="24" vol="100" />
          <note key="48" pos="840" pan="0" len="24" vol="100" />
          <note key="48" pos="1032" pan="0" len="24" vol="100" />
          <note key="48" pos="1224" pan="0" len="24" vol="100" />
          <note key="48" pos="1416" pan="0" len="24" vol="100" />
        </pattern>
        <pattern pos="165888" muted="0" steps="16" name="" type="1">
          <note key="48" pos="72" pan="0" len="24" vol="100" />
          <note key="48" pos="264" pan="0" len="24" vol="100" />
          <note key="48" pos="456" pan="0" len="24" vol="100" />
          <note key="48" pos="648" pan="0" len="24" vol="100" />
          <note key="48" pos="840" pan="0" len="24" vol="100" />
          <note key="48" pos="1032" pan="0" len="24" vol="100" />
          <note key="48" pos="1224" pan="0" len="24" vol="100" />
          <note key="48" pos="1416" pan="0" len="24" vol="100" />
        </pattern>
        <pattern pos="167424" muted="0" steps="16" name="" type="1">
          <note key="48" pos="72" pan="0" len="24" vol="100" />
          <note key="48" pos="264" pan="0" len="24" vol="100" />
          <note key="48" pos="456" pan="0" len="24" vol="100" />
          <note key="48" pos="648" pan="0" len="24" vol="100" />
          <note key="48" pos="840" pan="0" len="24" vol="100" />
          <note key="48" pos="1032" pan="0" len="24" vol="100" />
          <note key="48" pos="1224" pan="0" len="24" vol="100" />
          <note key="48" pos="1416" pan="0" len="24" vol="100" />
        </pattern>
        <pattern pos="168960" muted="0" steps="16" name="" type="1">
          <note key="48" pos="72" pan="0" len="24" vol="100" />
          <note key="48" pos="264" pan="0" len="24" vol="100" />
          <note key="48" pos="456" pan="0" len="24" vol="100" />
          <note key="48" pos="648" pan="0" len="24" vol="100" />
          <note key="48" pos="840" pan="0" len="24" vol="100" />
          <note key="48" pos="1032" pan="0" len="24" vol="100" />
          <note key="48" pos="1224" pan="0" len="24" vol="100" />
          <note key="48" pos="1416" pan="0" len="24" vol="100" />
        </pattern>
        <pattern pos="170496" muted="0" steps="16" name="" type="1">
          <note key="48" pos="72" pan="0" len="24" vol="100" />
          <note key="48" pos="264" pan="0" len="24" vol="100" />
          <note key="48" pos="456" pan="0" len="24" vol="100" />
          <note key="48" pos="648" pan="0" len="24" vol="100" />
          <note key="48" pos="840" pan="0" len="24" vol="100" />
          <note key="48" pos="1032" pan="0" len="24" vol="100" />
          <note key="48" pos="1224" pan="0" len="24" vol="100" />
          <note key="48" pos="1416" pan="0" len="24" vol="100" />
        </pattern>
        <pattern pos="172032" muted="0" steps="16" name="" type="1">
          <note key="48" pos="72" pan="0" len="24" vol="100" />
          <note key="48" pos="264" pan="0" len="24" vol="100" />
          <note key="48" pos="456" pan="0" len="24" vol="100" />
          <note key="48" pos="648" pan="0" len="24" vol="100" />
          <note key="48" pos="840" pan="0" len="24" vol="100" />
          <note key="48" pos="1032" pan="0" len="24" vol="100" />
          <note key="48" pos="1224" pan="0" len="24" vol="100" />
          <note key="48" pos="1416" pan="0" len="24" vol="100" />
        </pattern>
        <pattern pos="173568" muted="0" steps="16" name="" type="1">
          <note key="48" pos="72" pan="0" len="24" vol="100" />
          <note key="48" pos="264" pan="0" len="24" vol="100" />
          <note key="48" pos="456" pan="0" len="24" vol="100" />
          <note key="48" pos="648" pan="0" len="24" vol="100" />
          <note key="48" pos="840" pan="0" len="24" vol="100" />
          <note key="48" pos="1032" pan="0" len="24" vol="100" />
          <note key="48" pos="1224" pan="0" len="24" vol="100" />
          <note key="48" pos="1416" pan="0" len="24" vol="100" />
        </pattern>
      </track>
      <track solo="0" name="42 (Ch8)" type="0" muted="0">
        <instrumenttrack usemasterpitch="1" pitch="0.0" basenote="57" pan="0" pitchrange="12" vol="30">
          <eldata />
          <instrument name="tripleoscillator" />
        </instrumenttrack>
        <pattern pos="196608" muted="0" steps="16" name="" type="1">
          <note key="64" pos="804" pan="0" len="12" vol="2" />
          <note key="64" pos="924" pan="0" len="12" vol="22" />
          <note key="64" pos="996" pan="0" len="12" vol="11" />
          <note key="64" pos="1188" pan="0" len="12" vol="19" />
          <note key="64" pos="1308" pan="0" len="12" vol="72" />
          <note key="64" pos="1380" pan="0" len="12" vol="28" />
        </pattern>
      </track>
      <track solo="0" name="42 (Ch12)" type="0" muted="0">
        <instrumenttrack usemasterpitch="1" pitch="0.0" basenote="57" pan="0" pitchrange="12" vol="30">
          <eldata />
          <instrument name="tripleoscillator" />
        </instrumenttrack>
        <pattern pos="229056" muted="0" steps="16" name="" type="1">
          <note key="60" pos="288" pan="0" len="24" vol="100" />
          <note key="60" pos="672" pan="0" len="24" vol="100" />
          <note key="60" pos="1056" pan="0" len="24" vol="100" />
          <note key="60" pos="1440" pan="0" len="24" vol="100" />
        </pattern>
        <pattern pos="53760" muted="0" steps="16" name="" type="1">
          <note key="48" pos="600" pan="0" len="24" vol="34" />
          <note key="48" pos="1008" pan="0" len="24" vol="34" />
          <note key="48" pos="1272" pan="0" len="24" vol="50" />
        </pattern>
        <pattern pos="221376" muted="0" steps="16" name="" type="1">
          <note key="60" pos="288" pan="0" len="24" vol="100" />
          <note key="60" pos="672" pan="0" len="24" vol="100" />
          <note key="60" pos="1056" pan="0" len="24" vol="100" />
          <note key="60" pos="1440" pan="0" len="24" vol="100" />
        </pattern>
        <pattern pos="222912" muted="0" steps="16" name="" type="1">
          <note key="60" pos="288" pan="0" len="24" vol="100" />
          <note key="60" pos="672" pan="0" len="24" vol="100" />
          <note key="60" pos="1056" pan="0" len="24" vol="100" />
          <note key="60" pos="1440" pan="0" len="24" vol="100" />
        </pattern>
        <pattern pos="227520" muted="0" steps="16" name="" type="1">
          <note key="60" pos="288" pan="0" len="24" vol="100" />
          <note key="60" pos="672" pan="0" len="24" vol="100" />
          <note key="60" pos="1056" pan="0" len="24" vol="100" />
          <note key="60" pos="1440" pan="0" len="24" vol="100" />
        </pattern>
      </track>
      <track solo="0" name="43 (Ch3)" type="0" muted="0">
        <instrumenttrack usemasterpitch="1" pitch="0.0" basenote="57" pan="0" pitchrange="12" vol="30">
          <eldata />
          <instrument name="tripleoscillator" />
        </instrumenttrack>
        <pattern pos="118272" muted="0" steps="16" name="" type="1">
          <note key="60" pos="192" pan="0" len="24" vol="100" />
          <note key="60" pos="576" pan="0" len="24" vol="100" />
          <note key="60" pos="960" pan="0" len="24" vol="100" />
        </pattern>
        <pattern pos="29568" muted="0" steps="16" name="" type="1">
          <note key="60" pos="204" pan="0" len="36" vol="100" />
          <note key="60" pos="276" pan="0" len="12" vol="100" />
          <note key="60" pos="492" pan="0" len="36" vol="100" />
          <note key="60" pos="564" pan="0" len="12" vol="100" />
          <note key="60" pos="780" pan="0" len="36" vol="100" />
          <note key="60" pos="852" pan="0" len="12" vol="100" />
          <note key="60" pos="1068" pan="0" len="36" vol="100" />
          <note key="60" pos="1140" pan="0" len="12" vol="100" />
        </pattern>
        <pattern pos="30720" muted="0" steps="16" name="" type="1">
          <note key="60" pos="204" pan="0" len="36" vol="100" />
          <note key="60" pos="276" pan="0" len="12" vol="100" />
          <note key="60" pos="492" pan="0" len="36" vol="100" />
          <note key="60" pos="564" pan="0" len="12" vol="100" />
          <note key="60" pos="780" pan="0" len="36" vol="100" />
          <note key="60" pos="852" pan="0" len="12" vol="100" />
          <note key="60" pos="1068" pan="0" len="36" vol="100" />
          <note key="60" pos="1140" pan="0" len="12" vol="100" />
        </pattern>
        <pattern pos="31872" muted="0" steps="16" name="" type="1">
          <note key="60" pos="204" pan="0" len="36" vol="100" />
          <note key="60" pos="276" pan="0" len="12" vol="100" />
          <note key="60" pos="492" pan="0" len="36" vol="100" />
          <note key="60" pos="564" pan="0" len="12" vol="100" />
          <note key="60" pos="780" pan="0" len="36" vol="100" />
          <note key="60" pos="852" pan="0" len="12" vol="100" />
          <note key="60" pos="1068" pan="0" len="36" vol="100" />
          <note key="60" pos="1140" pan="0" len="12" vol="100" />
        </pattern>
        <pattern pos="33024" muted="0" steps="16" name="" type="1">
          <note key="60" pos="204" pan="0" len="36" vol="100" />
          <note key="60" pos="276" pan="0" len="12" vol="100" />
          <note key="60" pos="492" pan="0" len="36" vol="100" />
          <note key="60" pos="564" pan="0" len="12" vol="100" />
          <note key="60" pos="780" pan="0" len="36" vol="100" />
          <note key="60" pos="852" pan="0" len="12" vol="100" />
          <note key="60" pos="1068" pan="0" len="36" vol="100" />
          <note key="60" pos="1140" pan="0" len="12" vol="100" />
        </pattern>
        <pattern pos="36480" muted="0" steps="16" name="" type="1">
          <note key="60" pos="204" pan="0" len="36" vol="100" />
          <note key="60" pos="276" pan="0" len="12" vol="100" />
          <note key="60" pos="492" pan="0" len="36" vol="100" />
          <note key="60" pos="564" pan="0" len="12" vol="100" />
          <note key="60" pos="780" pan="0" len="36" vol="100" />
          <note key="60" pos="852" pan="0" len="12" vol="100" />
          <note key="60" pos="1068" pan="0" len="36" vol="100" />
          <note key="60" pos="1140" pan="0" len="12" vol="100" />
        </pattern>
        <pattern pos="37632" muted="0" steps="16" name="" type="1">
          <note key="60" pos="204" pan="0" len="36" vol="100" />
          <note key="60" pos="276" pan="0" len="12" vol="100" />
          <note key="60" pos="492" pan="0" len="36" vol="100" />
          <note key="60" pos="564" pan="0" len="12" vol="100" />
          <note key="60" pos="780" pan="0" len="36" vol="100" />
          <note key="60" pos="852" pan="0" len="12" vol="100" />
          <note key="60" pos="1068" pan="0" len="36" vol="100" />
          <note key="60" pos="1140" pan="0" len="12" vol="100" />
        </pattern>
        <pattern pos="38784" muted="0" steps="16" name="" type="1">
          <note key="60" pos="204" pan="0" len="36" vol="100" />
          <note key="60" pos="276" pan="0" len="12" vol="100" />
          <note key="60" pos="492" pan="0" len="36" vol="100" />
          <note key="60" pos="564" pan="0" len="12" vol="100" />
          <note key="60" pos="780" pan="0" len="36" vol="100" />
          <note key="60" pos="852" pan="0" len="12" vol="100" />
          <note key="60" pos="1068" pan="0" len="36" vol="100" />
          <note key="60" pos="1140" pan="0" len="12" vol="100" />
        </pattern>
        <pattern pos="39936" muted="0" steps="16" name="" type="1">
          <note key="60" pos="204" pan="0" len="36" vol="100" />
          <note key="60" pos="276" pan="0" len="12" vol="100" />
          <note key="60" pos="492" pan="0" len="36" vol="100" />
          <note key="60" pos="564" pan="0" len="12" vol="100" />
          <note key="60" pos="780" pan="0" len="36" vol="100" />
          <note key="60" pos="852" pan="0" len="12" vol="100" />
          <note key="60" pos="1068" pan="0" len="36" vol="44" />
          <note key="60" pos="1140" pan="0" len="12" vol="6" />
        </pattern>
        <pattern pos="116736" muted="0" steps="16" name="" type="1">
          <note key="60" pos="192" pan="0" len="24" vol="100" />
          <note key="60" pos="576" pan="0" len="24" vol="100" />
          <note key="60" pos="960" pan="0" len="24" vol="100" />
        </pattern>
      </track>
      <track solo="0" name="43 (Ch5)" type="0" muted="0">
        <instrumenttrack usemasterpitch="1" pitch="0.0" basenote="57" pan="0" pitchrange="12" vol="30">
          <eldata />
          <instrument name="tripleoscillator" />
        </instrumenttrack>
        <pattern pos="28416" muted="0" steps="16" name="" type="1">
          <note key="60" pos="204" pan="0" len="36" vol="100" />
          <note key="60" pos="276" pan="0" len="12" vol="100" />
          <note key="60" pos="492" pan="0" len="36" vol="100" />
          <note key="60" pos="564" pan="0" len="12" vol="100" />
          <note key="60" pos="780" pan="0" len="36" vol="100" />
          <note key="60" pos="852" pan="0" len="12" vol="100" />
          <note key="60" pos="1068" pan="0" len="36" vol="100" />
          <note key="60" pos="1140" pan="0" len="12" vol="100" />
        </pattern>
        <pattern pos="17664" muted="0" steps="16" name="" type="1">
          <note key="48" pos="288" pan="0" len="24" vol="20" />
          <note key="48" pos="480" pan="0" len="24" vol="20" />
        </pattern>
        <pattern pos="20736" muted="0" steps="16" name="" type="1">
          <note key="48" pos="288" pan="0" len="24" vol="100" />
          <note key="48" pos="480" pan="0" len="24" vol="100" />
        </pattern>
        <pattern pos="22272" muted="0" steps="16" name="" type="1">
          <note key="48" pos="288" pan="0" len="24" vol="100" />
          <note key="48" pos="480" pan="0" len="24" vol="100" />
        </pattern>
        <pattern pos="23808" muted="0" steps="16" name="" type="1">
          <note key="48" pos="1056" pan="0" len="24" vol="100" />
          <note key="48" pos="1248" pan="0" len="24" vol="100" />
        </pattern>
      </track>
      <track solo="0" name="43 (Ch6)" type="0" muted="0">
        <instrumenttrack usemasterpitch="1" pitch="0.0" basenote="57" pan="0" pitchrange="12" vol="30">
          <eldata />
          <instrument name="tripleoscillator" />
        </instrumenttrack>
        <pattern pos="215040" muted="0" steps="16" name="" type="1">
          <note key="66" pos="432" pan="0" len="24" vol="100" />
          <note key="66" pos="744" pan="0" len="24" vol="100" />
          <note key="66" pos="1200" pan="0" len="24" vol="100" />
          <note key="66" pos="1512" pan="0" len="24" vol="100" />
        </pattern>
        <pattern pos="198144" muted="0" steps="16" name="" type="1">
          <note key="64" pos="216" pan="0" len="12" vol="100" />
          <note key="64" pos="372" pan="0" len="12" vol="100" />
          <note key="64" pos="600" pan="0" len="12" vol="100" />
          <note key="64" pos="756" pan="0" len="12" vol="100" />
          <note key="64" pos="984" pan="0" len="12" vol="100" />
          <note key="64" pos="1140" pan="0" len="12" vol="100" />
          <note key="64" pos="1368" pan="0" len="12" vol="100" />
          <note key="64" pos="1524" pan="0" len="12" vol="100" />
        </pattern>
        <pattern pos="199680" muted="0" steps="16" name="" type="1">
          <note key="64" pos="216" pan="0" len="12" vol="100" />
          <note key="64" pos="372" pan="0" len="12" vol="100" />
          <note key="64" pos="600" pan="0" len="12" vol="100" />
          <note key="64" pos="756" pan="0" len="12" vol="100" />
          <note key="64" pos="984" pan="0" len="12" vol="100" />
          <note key="64" pos="1140" pan="0" len="12" vol="100" />
          <note key="64" pos="1368" pan="0" len="12" vol="100" />
          <note key="64" pos="1524" pan="0" len="12" vol="100" />
        </pattern>
        <pattern pos="201216" muted="0" steps="16" name="" type="1">
          <note key="64" pos="432" pan="0" len="24" vol="100" />
          <note key="64" pos="744" pan="0" len="24" vol="100" />
          <note key="64" pos="1200" pan="0" len="24" vol="100" />
          <note key="64" pos="1512" pan="0" len="24" vol="100" />
        </pattern>
        <pattern pos="202752" muted="0" steps="16" name="" type="1">
          <note key="64" pos="432" pan="0" len="24" vol="100" />
          <note key="64" pos="744" pan="0" len="24" vol="100" />
          <note key="64" pos="1200" pan="0" len="24" vol="100" />
          <note key="59" pos="1512" pan="0" len="24" vol="100" />
        </pattern>
        <pattern pos="204288" muted="0" steps="16" name="" type="1">
          <note key="60" pos="432" pan="0" len="24" vol="100" />
          <note key="62" pos="744" pan="0" len="24" vol="100" />
          <note key="64" pos="1200" pan="0" len="24" vol="100" />
          <note key="64" pos="1512" pan="0" len="24" vol="100" />
        </pattern>
        <pattern pos="205824" muted="0" steps="16" name="" type="1">
          <note key="60" pos="432" pan="0" len="24" vol="100" />
          <note key="62" pos="744" pan="0" len="24" vol="100" />
          <note key="64" pos="1200" pan="0" len="24" vol="100" />
          <note key="64" pos="1512" pan="0" len="24" vol="100" />
        </pattern>
        <pattern pos="207360" muted="0" steps="16" name="" type="1">
          <note key="64" pos="432" pan="0" len="24" vol="100" />
          <note key="64" pos="744" pan="0" len="24" vol="100" />
          <note key="64" pos="1200" pan="0" len="24" vol="100" />
          <note key="64" pos="1512" pan="0" len="24" vol="100" />
        </pattern>
        <pattern pos="208896" muted="0" steps="16" name="" type="1">
          <note key="64" pos="432" pan="0" len="24" vol="100" />
          <note key="64" pos="744" pan="0" len="24" vol="100" />
          <note key="64" pos="1200" pan="0" len="24" vol="100" />
          <note key="59" pos="1512" pan="0" len="24" vol="100" />
        </pattern>
        <pattern pos="210432" muted="0" steps="16" name="" type="1">
          <note key="60" pos="432" pan="0" len="24" vol="100" />
          <note key="62" pos="744" pan="0" len="24" vol="100" />
          <note key="64" pos="1200" pan="0" len="24" vol="100" />
          <note key="64" pos="1512" pan="0" len="24" vol="100" />
        </pattern>
        <pattern pos="211968" muted="0" steps="16" name="" type="1">
          <note key="60" pos="432" pan="0" len="24" vol="100" />
          <note key="62" pos="744" pan="0" len="24" vol="100" />
          <note key="64" pos="1200" pan="0" len="24" vol="100" />
          <note key="64" pos="1512" pan="0" len="24" vol="100" />
        </pattern>
        <pattern pos="213504" muted="0" steps="16" name="" type="1">
          <note key="66" pos="216" pan="0" len="12" vol="100" />
          <note key="66" pos="372" pan="0" len="12" vol="100" />
          <note key="66" pos="600" pan="0" len="12" vol="100" />
          <note key="66" pos="756" pan="0" len="12" vol="100" />
          <note key="66" pos="984" pan="0" len="12" vol="100" />
          <note key="66" pos="1140" pan="0" len="12" vol="100" />
          <note key="66" pos="1368" pan="0" len="12" vol="100" />
          <note key="66" pos="1524" pan="0" len="12" vol="100" />
        </pattern>
      </track>
      <track solo="0" name="43 (Ch8)" type="0" muted="0">
        <instrumenttrack usemasterpitch="1" pitch="0.0" basenote="57" pan="0" pitchrange="12" vol="30">
          <eldata />
          <instrument name="tripleoscillator" />
        </instrumenttrack>
        <pattern pos="256896" muted="0" steps="16" name="" type="1">
          <note key="60" pos="1224" pan="0" len="12" vol="34" />
        </pattern>
        <pattern pos="196608" muted="0" steps="16" name="" type="1">
          <note key="64" pos="984" pan="0" len="12" vol="30" />
          <note key="64" pos="1140" pan="0" len="12" vol="50" />
          <note key="64" pos="1368" pan="0" len="12" vol="80" />
          <note key="64" pos="1524" pan="0" len="12" vol="100" />
        </pattern>
        <pattern pos="241536" muted="0" steps="16" name="" type="1">
          <note key="60" pos="72" pan="0" len="24" vol="34" />
          <note key="60" pos="216" pan="0" len="24" vol="100" />
          <note key="60" pos="456" pan="0" len="24" vol="34" />
          <note key="60" pos="600" pan="0" len="24" vol="100" />
          <note key="60" pos="840" pan="0" len="24" vol="34" />
          <note key="60" pos="984" pan="0" len="24" vol="100" />
          <note key="60" pos="1224" pan="0" len="24" vol="34" />
          <note key="60" pos="1368" pan="0" len="24" vol="100" />
        </pattern>
        <pattern pos="243072" muted="0" steps="16" name="" type="1">
          <note key="60" pos="72" pan="0" len="24" vol="34" />
          <note key="60" pos="216" pan="0" len="24" vol="100" />
          <note key="60" pos="456" pan="0" len="24" vol="34" />
          <note key="60" pos="600" pan="0" len="24" vol="100" />
          <note key="60" pos="840" pan="0" len="24" vol="34" />
          <note key="60" pos="984" pan="0" len="24" vol="100" />
          <note key="60" pos="1224" pan="0" len="12" vol="34" />
        </pattern>
      </track>
      <track solo="0" name="43 (Ch12)" type="0" muted="0">
        <instrumenttrack usemasterpitch="1" pitch="0.0" basenote="57" pan="0" pitchrange="12" vol="30">
          <eldata />
          <instrument name="tripleoscillator" />
        </instrumenttrack>
        <pattern pos="229056" muted="0" steps="16" name="" type="1">
          <note key="60" pos="312" pan="0" len="24" vol="100" />
          <note key="60" pos="696" pan="0" len="24" vol="100" />
          <note key="60" pos="1080" pan="0" len="24" vol="100" />
          <note key="60" pos="1464" pan="0" len="24" vol="100" />
        </pattern>
        <pattern pos="53760" muted="0" steps="16" name="" type="1">
          <note key="48" pos="624" pan="0" len="24" vol="34" />
          <note key="48" pos="1032" pan="0" len="24" vol="34" />
          <note key="48" pos="1296" pan="0" len="240" vol="34" />
        </pattern>
        <pattern pos="221376" muted="0" steps="16" name="" type="1">
          <note key="60" pos="312" pan="0" len="24" vol="100" />
          <note key="60" pos="696" pan="0" len="24" vol="100" />
          <note key="60" pos="1080" pan="0" len="24" vol="100" />
          <note key="60" pos="1464" pan="0" len="24" vol="100" />
        </pattern>
        <pattern pos="222912" muted="0" steps="16" name="" type="1">
          <note key="60" pos="312" pan="0" len="24" vol="100" />
          <note key="60" pos="696" pan="0" len="24" vol="100" />
          <note key="60" pos="1080" pan="0" len="24" vol="100" />
          <note key="60" pos="1464" pan="0" len="24" vol="100" />
        </pattern>
        <pattern pos="227520" muted="0" steps="16" name="" type="1">
          <note key="60" pos="312" pan="0" len="24" vol="100" />
          <note key="60" pos="696" pan="0" len="24" vol="100" />
          <note key="60" pos="1080" pan="0" len="24" vol="100" />
          <note key="60" pos="1464" pan="0" len="24" vol="100" />
        </pattern>
      </track>
      <track solo="0" name="44 (Ch1)" type="0" muted="0">
        <instrumenttrack usemasterpitch="1" pitch="0.0" basenote="57" pan="0" pitchrange="12" vol="30">
          <eldata />
          <instrument name="tripleoscillator" />
        </instrumenttrack>
        <pattern pos="16128" muted="0" steps="16" name="" type="1">
          <note key="60" pos="36" pan="0" len="12" vol="100" />
          <note key="60" pos="228" pan="0" len="12" vol="100" />
          <note key="60" pos="420" pan="0" len="12" vol="100" />
          <note key="60" pos="612" pan="0" len="12" vol="100" />
          <note key="60" pos="804" pan="0" len="12" vol="100" />
          <note key="60" pos="996" pan="0" len="12" vol="100" />
          <note key="60" pos="1188" pan="0" len="12" vol="100" />
          <note key="60" pos="1380" pan="0" len="12" vol="100" />
        </pattern>
        <pattern pos="6912" muted="0" steps="16" name="" type="1">
          <note key="60" pos="36" pan="0" len="12" vol="100" />
          <note key="60" pos="228" pan="0" len="12" vol="100" />
          <note key="60" pos="420" pan="0" len="12" vol="100" />
          <note key="60" pos="612" pan="0" len="12" vol="100" />
        </pattern>
        <pattern pos="7680" muted="0" steps="16" name="" type="1">
          <note key="60" pos="36" pan="0" len="12" vol="100" />
          <note key="60" pos="228" pan="0" len="12" vol="100" />
          <note key="60" pos="420" pan="0" len="12" vol="100" />
          <note key="60" pos="612" pan="0" len="12" vol="100" />
        </pattern>
        <pattern pos="8448" muted="0" steps="16" name="" type="1">
          <note key="60" pos="36" pan="0" len="12" vol="100" />
          <note key="60" pos="228" pan="0" len="12" vol="100" />
          <note key="60" pos="420" pan="0" len="12" vol="100" />
          <note key="60" pos="612" pan="0" len="12" vol="100" />
        </pattern>
        <pattern pos="9216" muted="0" steps="16" name="" type="1">
          <note key="60" pos="36" pan="0" len="12" vol="100" />
          <note key="60" pos="228" pan="0" len="12" vol="100" />
          <note key="60" pos="420" pan="0" len="12" vol="100" />
          <note key="60" pos="612" pan="0" len="12" vol="100" />
        </pattern>
        <pattern pos="9984" muted="0" steps="16" name="" type="1">
          <note key="60" pos="36" pan="0" len="12" vol="100" />
          <note key="60" pos="228" pan="0" len="12" vol="100" />
          <note key="60" pos="420" pan="0" len="12" vol="100" />
          <note key="60" pos="612" pan="0" len="12" vol="100" />
        </pattern>
        <pattern pos="10752" muted="0" steps="16" name="" type="1">
          <note key="60" pos="36" pan="0" len="12" vol="100" />
          <note key="60" pos="228" pan="0" len="12" vol="100" />
          <note key="60" pos="420" pan="0" len="12" vol="100" />
          <note key="60" pos="612" pan="0" len="12" vol="100" />
        </pattern>
        <pattern pos="11520" muted="0" steps="16" name="" type="1">
          <note key="60" pos="36" pan="0" len="12" vol="100" />
          <note key="60" pos="228" pan="0" len="12" vol="100" />
          <note key="60" pos="420" pan="0" len="12" vol="100" />
          <note key="60" pos="612" pan="0" len="12" vol="100" />
          <note key="60" pos="804" pan="0" len="12" vol="100" />
          <note key="60" pos="996" pan="0" len="12" vol="100" />
          <note key="60" pos="1188" pan="0" len="12" vol="100" />
          <note key="60" pos="1380" pan="0" len="12" vol="100" />
        </pattern>
        <pattern pos="13056" muted="0" steps="16" name="" type="1">
          <note key="60" pos="36" pan="0" len="12" vol="100" />
          <note key="60" pos="228" pan="0" len="12" vol="100" />
          <note key="60" pos="420" pan="0" len="12" vol="100" />
          <note key="60" pos="612" pan="0" len="12" vol="100" />
          <note key="60" pos="804" pan="0" len="12" vol="100" />
          <note key="60" pos="996" pan="0" len="12" vol="100" />
          <note key="60" pos="1188" pan="0" len="12" vol="100" />
          <note key="60" pos="1380" pan="0" len="12" vol="100" />
        </pattern>
        <pattern pos="14592" muted="0" steps="16" name="" type="1">
          <note key="60" pos="36" pan="0" len="12" vol="100" />
          <note key="60" pos="228" pan="0" len="12" vol="100" />
          <note key="60" pos="420" pan="0" len="12" vol="100" />
          <note key="60" pos="612" pan="0" len="12" vol="100" />
          <note key="60" pos="804" pan="0" len="12" vol="100" />
          <note key="60" pos="996" pan="0" len="12" vol="100" />
          <note key="60" pos="1188" pan="0" len="12" vol="100" />
          <note key="60" pos="1380" pan="0" len="12" vol="100" />
        </pattern>
      </track>
      <track solo="0" name="44 (Ch3)" type="0" muted="0">
        <instrumenttrack usemasterpitch="1" pitch="0.0" basenote="57" pan="0" pitchrange="12" vol="30">
          <eldata />
          <instrument name="tripleoscillator" />
        </instrumenttrack>
        <pattern pos="92160" muted="0" steps="16" name="" type="1">
          <note key="60" pos="1440" pan="0" len="72" vol="100" />
        </pattern>
        <pattern pos="768" muted="0" steps="16" name="" type="1">
          <note key="55" pos="360" pan="0" len="120" vol="100" />
          <note key="55" pos="744" pan="0" len="24" vol="100" />
        </pattern>
        <pattern pos="1536" muted="0" steps="16" name="" type="1">
          <note key="55" pos="360" pan="0" len="120" vol="100" />
          <note key="55" pos="744" pan="0" len="24" vol="100" />
        </pattern>
        <pattern pos="2304" muted="0" steps="16" name="" type="1">
          <note key="55" pos="360" pan="0" len="72" vol="100" />
          <note key="55" pos="744" pan="0" len="24" vol="100" />
        </pattern>
        <pattern pos="3072" muted="0" steps="16" name="" type="1">
          <note key="55" pos="360" pan="0" len="72" vol="100" />
          <note key="55" pos="744" pan="0" len="24" vol="100" />
        </pattern>
        <pattern pos="29568" muted="0" steps="16" name="" type="1">
          <note key="60" pos="120" pan="0" len="48" vol="100" />
          <note key="60" pos="192" pan="0" len="12" vol="100" />
          <note key="60" pos="264" pan="0" len="12" vol="100" />
          <note key="60" pos="408" pan="0" len="48" vol="100" />
          <note key="60" pos="480" pan="0" len="12" vol="100" />
          <note key="60" pos="552" pan="0" len="12" vol="100" />
          <note key="60" pos="696" pan="0" len="48" vol="100" />
          <note key="60" pos="768" pan="0" len="12" vol="100" />
          <note key="60" pos="840" pan="0" len="12" vol="100" />
          <note key="60" pos="984" pan="0" len="48" vol="100" />
          <note key="60" pos="1056" pan="0" len="12" vol="100" />
          <note key="60" pos="1128" pan="0" len="12" vol="100" />
        </pattern>
        <pattern pos="30720" muted="0" steps="16" name="" type="1">
          <note key="60" pos="120" pan="0" len="48" vol="100" />
          <note key="60" pos="192" pan="0" len="12" vol="100" />
          <note key="60" pos="264" pan="0" len="12" vol="100" />
          <note key="60" pos="408" pan="0" len="48" vol="100" />
          <note key="60" pos="480" pan="0" len="12" vol="100" />
          <note key="60" pos="552" pan="0" len="12" vol="100" />
          <note key="60" pos="696" pan="0" len="48" vol="100" />
          <note key="60" pos="768" pan="0" len="12" vol="100" />
          <note key="60" pos="840" pan="0" len="12" vol="100" />
          <note key="60" pos="984" pan="0" len="48" vol="100" />
          <note key="60" pos="1056" pan="0" len="12" vol="100" />
          <note key="60" pos="1128" pan="0" len="12" vol="100" />
        </pattern>
        <pattern pos="31872" muted="0" steps="16" name="" type="1">
          <note key="60" pos="120" pan="0" len="48" vol="100" />
          <note key="60" pos="192" pan="0" len="12" vol="100" />
          <note key="60" pos="264" pan="0" len="12" vol="100" />
          <note key="60" pos="408" pan="0" len="48" vol="100" />
          <note key="60" pos="480" pan="0" len="12" vol="100" />
          <note key="60" pos="552" pan="0" len="12" vol="100" />
          <note key="60" pos="696" pan="0" len="48" vol="100" />
          <note key="60" pos="768" pan="0" len="12" vol="100" />
          <note key="60" pos="840" pan="0" len="12" vol="100" />
          <note key="60" pos="984" pan="0" len="48" vol="100" />
          <note key="60" pos="1056" pan="0" len="12" vol="100" />
          <note key="60" pos="1128" pan="0" len="12" vol="100" />
        </pattern>
        <pattern pos="33024" muted="0" steps="16" name="" type="1">
          <note key="60" pos="120" pan="0" len="48" vol="100" />
          <note key="60" pos="192" pan="0" len="12" vol="100" />
          <note key="60" pos="264" pan="0" len="12" vol="100" />
          <note key="60" pos="408" pan="0" len="48" vol="100" />
          <note key="60" pos="480" pan="0" len="12" vol="100" />
          <note key="60" pos="552" pan="0" len="12" vol="100" />
          <note key="60" pos="696" pan="0" len="48" vol="100" />
          <note key="60" pos="768" pan="0" len="12" vol="100" />
          <note key="60" pos="840" pan="0" len="12" vol="100" />
          <note key="60" pos="984" pan="0" len="48" vol="100" />
          <note key="60" pos="1056" pan="0" len="12" vol="100" />
          <note key="60" pos="1128" pan="0" len="12" vol="100" />
        </pattern>
        <pattern pos="36480" muted="0" steps="16" name="" type="1">
          <note key="60" pos="120" pan="0" len="48" vol="100" />
          <note key="60" pos="192" pan="0" len="12" vol="100" />
          <note key="60" pos="264" pan="0" len="12" vol="100" />
          <note key="60" pos="408" pan="0" len="48" vol="100" />
          <note key="60" pos="480" pan="0" len="12" vol="100" />
          <note key="60" pos="552" pan="0" len="12" vol="100" />
          <note key="60" pos="696" pan="0" len="48" vol="100" />
          <note key="60" pos="768" pan="0" len="12" vol="100" />
          <note key="60" pos="840" pan="0" len="12" vol="100" />
          <note key="60" pos="984" pan="0" len="48" vol="100" />
          <note key="60" pos="1056" pan="0" len="12" vol="100" />
          <note key="60" pos="1128" pan="0" len="12" vol="100" />
        </pattern>
        <pattern pos="37632" muted="0" steps="16" name="" type="1">
          <note key="60" pos="120" pan="0" len="48" vol="100" />
          <note key="60" pos="192" pan="0" len="12" vol="100" />
          <note key="60" pos="264" pan="0" len="12" vol="100" />
          <note key="60" pos="408" pan="0" len="48" vol="100" />
          <note key="60" pos="480" pan="0" len="12" vol="100" />
          <note key="60" pos="552" pan="0" len="12" vol="100" />
          <note key="60" pos="696" pan="0" len="48" vol="100" />
          <note key="60" pos="768" pan="0" len="12" vol="100" />
          <note key="60" pos="840" pan="0" len="12" vol="100" />
          <note key="60" pos="984" pan="0" len="48" vol="100" />
          <note key="60" pos="1056" pan="0" len="12" vol="100" />
          <note key="60" pos="1128" pan="0" len="12" vol="100" />
        </pattern>
        <pattern pos="38784" muted="0" steps="16" name="" type="1">
          <note key="60" pos="120" pan="0" len="48" vol="100" />
          <note key="60" pos="192" pan="0" len="12" vol="100" />
          <note key="60" pos="264" pan="0" len="12" vol="100" />
          <note key="60" pos="408" pan="0" len="48" vol="100" />
          <note key="60" pos="480" pan="0" len="12" vol="100" />
          <note key="60" pos="552" pan="0" len="12" vol="100" />
          <note key="60" pos="696" pan="0" len="48" vol="100" />
          <note key="60" pos="768" pan="0" len="12" vol="100" />
          <note key="60" pos="840" pan="0" len="12" vol="100" />
          <note key="60" pos="984" pan="0" len="48" vol="100" />
          <note key="60" pos="1056" pan="0" len="12" vol="100" />
          <note key="60" pos="1128" pan="0" len="12" vol="100" />
        </pattern>
        <pattern pos="39936" muted="0" steps="16" name="" type="1">
          <note key="60" pos="120" pan="0" len="48" vol="100" />
          <note key="60" pos="192" pan="0" len="12" vol="100" />
          <note key="60" pos="264" pan="0" len="12" vol="100" />
          <note key="60" pos="408" pan="0" len="48" vol="100" />
          <note key="60" pos="480" pan="0" len="12" vol="100" />
          <note key="60" pos="552" pan="0" len="12" vol="100" />
          <note key="60" pos="696" pan="0" len="48" vol="100" />
          <note key="60" pos="768" pan="0" len="12" vol="100" />
          <note key="60" pos="840" pan="0" len="12" vol="100" />
          <note key="60" pos="984" pan="0" len="48" vol="88" />
          <note key="60" pos="1056" pan="0" len="12" vol="50" />
          <note key="60" pos="1128" pan="0" len="12" vol="12" />
        </pattern>
      </track>
      <track solo="0" name="44 (Ch5)" type="0" muted="0">
        <instrumenttrack usemasterpitch="1" pitch="0.0" basenote="57" pan="0" pitchrange="12" vol="30">
          <eldata />
          <instrument name="tripleoscillator" />
        </instrumenttrack>
        <pattern pos="28416" muted="0" steps="16" name="" type="1">
          <note key="60" pos="120" pan="0" len="48" vol="100" />
          <note key="60" pos="192" pan="0" len="12" vol="100" />
          <note key="60" pos="264" pan="0" len="12" vol="100" />
          <note key="60" pos="408" pan="0" len="48" vol="100" />
          <note key="60" pos="480" pan="0" len="12" vol="100" />
          <note key="60" pos="552" pan="0" len="12" vol="100" />
          <note key="60" pos="696" pan="0" len="48" vol="100" />
          <note key="60" pos="768" pan="0" len="12" vol="100" />
          <note key="60" pos="840" pan="0" len="12" vol="100" />
          <note key="60" pos="984" pan="0" len="48" vol="100" />
          <note key="60" pos="1056" pan="0" len="12" vol="100" />
          <note key="60" pos="1128" pan="0" len="12" vol="100" />
        </pattern>
        <pattern pos="17664" muted="0" steps="16" name="" type="1">
          <note key="48" pos="312" pan="0" len="24" vol="20" />
          <note key="48" pos="456" pan="0" len="24" vol="20" />
        </pattern>
        <pattern pos="20736" muted="0" steps="16" name="" type="1">
          <note key="48" pos="312" pan="0" len="24" vol="100" />
          <note key="48" pos="456" pan="0" len="24" vol="100" />
        </pattern>
        <pattern pos="22272" muted="0" steps="16" name="" type="1">
          <note key="48" pos="312" pan="0" len="24" vol="100" />
          <note key="48" pos="456" pan="0" len="24" vol="100" />
        </pattern>
        <pattern pos="23808" muted="0" steps="16" name="" type="1">
          <note key="48" pos="1080" pan="0" len="24" vol="100" />
          <note key="48" pos="1224" pan="0" len="24" vol="100" />
        </pattern>
      </track>
      <track solo="0" name="44 (Ch6)" type="0" muted="0">
        <instrumenttrack usemasterpitch="1" pitch="0.0" basenote="57" pan="0" pitchrange="12" vol="30">
          <eldata />
          <instrument name="tripleoscillator" />
        </instrumenttrack>
        <pattern pos="215040" muted="0" steps="16" name="" type="1">
          <note key="66" pos="360" pan="0" len="24" vol="100" />
          <note key="66" pos="1128" pan="0" len="24" vol="100" />
        </pattern>
        <pattern pos="198144" muted="0" steps="16" name="" type="1">
          <note key="64" pos="180" pan="0" len="12" vol="100" />
          <note key="64" pos="564" pan="0" len="12" vol="100" />
          <note key="64" pos="948" pan="0" len="12" vol="100" />
          <note key="64" pos="1332" pan="0" len="12" vol="100" />
        </pattern>
        <pattern pos="199680" muted="0" steps="16" name="" type="1">
          <note key="64" pos="180" pan="0" len="12" vol="100" />
          <note key="64" pos="564" pan="0" len="12" vol="100" />
          <note key="64" pos="948" pan="0" len="12" vol="100" />
          <note key="64" pos="1332" pan="0" len="12" vol="100" />
        </pattern>
        <pattern pos="201216" muted="0" steps="16" name="" type="1">
          <note key="64" pos="360" pan="0" len="24" vol="100" />
          <note key="64" pos="1128" pan="0" len="24" vol="100" />
        </pattern>
        <pattern pos="202752" muted="0" steps="16" name="" type="1">
          <note key="64" pos="360" pan="0" len="24" vol="100" />
          <note key="64" pos="1128" pan="0" len="24" vol="100" />
        </pattern>
        <pattern pos="204288" muted="0" steps="16" name="" type="1">
          <note key="59" pos="360" pan="0" len="24" vol="100" />
          <note key="64" pos="1128" pan="0" len="24" vol="100" />
        </pattern>
        <pattern pos="205824" muted="0" steps="16" name="" type="1">
          <note key="59" pos="360" pan="0" len="24" vol="100" />
          <note key="64" pos="1128" pan="0" len="24" vol="100" />
        </pattern>
        <pattern pos="207360" muted="0" steps="16" name="" type="1">
          <note key="64" pos="360" pan="0" len="24" vol="100" />
          <note key="64" pos="1128" pan="0" len="24" vol="100" />
        </pattern>
        <pattern pos="208896" muted="0" steps="16" name="" type="1">
          <note key="64" pos="360" pan="0" len="24" vol="100" />
          <note key="64" pos="1128" pan="0" len="24" vol="100" />
        </pattern>
        <pattern pos="210432" muted="0" steps="16" name="" type="1">
          <note key="59" pos="360" pan="0" len="24" vol="100" />
          <note key="64" pos="1128" pan="0" len="24" vol="100" />
        </pattern>
        <pattern pos="211968" muted="0" steps="16" name="" type="1">
          <note key="59" pos="360" pan="0" len="24" vol="100" />
          <note key="64" pos="1128" pan="0" len="24" vol="100" />
        </pattern>
        <pattern pos="213504" muted="0" steps="16" name="" type="1">
          <note key="66" pos="180" pan="0" len="12" vol="100" />
          <note key="66" pos="564" pan="0" len="12" vol="100" />
          <note key="66" pos="948" pan="0" len="12" vol="100" />
          <note key="66" pos="1332" pan="0" len="12" vol="100" />
        </pattern>
      </track>
      <track solo="0" name="44 (Ch8)" type="0" muted="0">
        <instrumenttrack usemasterpitch="1" pitch="0.0" basenote="57" pan="0" pitchrange="12" vol="30">
          <eldata />
          <instrument name="tripleoscillator" />
        </instrumenttrack>
        <pattern pos="196608" muted="0" steps="16" name="" type="1">
          <note key="64" pos="948" pan="0" len="12" vol="25" />
          <note key="64" pos="1332" pan="0" len="12" vol="75" />
        </pattern>
      </track>
      <track solo="0" name="44 (Ch12)" type="0" muted="0">
        <instrumenttrack usemasterpitch="1" pitch="0.0" basenote="57" pan="0" pitchrange="12" vol="30">
          <eldata />
          <instrument name="tripleoscillator" />
        </instrumenttrack>
        <pattern pos="229056" muted="0" steps="16" name="" type="1">
          <note key="60" pos="336" pan="0" len="24" vol="100" />
          <note key="60" pos="720" pan="0" len="24" vol="100" />
          <note key="60" pos="1104" pan="0" len="24" vol="100" />
          <note key="60" pos="1488" pan="0" len="24" vol="100" />
        </pattern>
        <pattern pos="53760" muted="0" steps="16" name="" type="1">
          <note key="48" pos="648" pan="0" len="144" vol="34" />
          <note key="48" pos="1056" pan="0" len="144" vol="34" />
        </pattern>
        <pattern pos="221376" muted="0" steps="16" name="" type="1">
          <note key="60" pos="336" pan="0" len="24" vol="100" />
          <note key="60" pos="720" pan="0" len="24" vol="100" />
          <note key="60" pos="1104" pan="0" len="24" vol="100" />
          <note key="60" pos="1488" pan="0" len="24" vol="100" />
        </pattern>
        <pattern pos="222912" muted="0" steps="16" name="" type="1">
          <note key="60" pos="336" pan="0" len="24" vol="100" />
          <note key="60" pos="720" pan="0" len="24" vol="100" />
          <note key="60" pos="1104" pan="0" len="24" vol="100" />
          <note key="60" pos="1488" pan="0" len="24" vol="100" />
        </pattern>
        <pattern pos="227520" muted="0" steps="16" name="" type="1">
          <note key="60" pos="336" pan="0" len="24" vol="100" />
          <note key="60" pos="720" pan="0" len="24" vol="100" />
          <note key="60" pos="1104" pan="0" len="24" vol="100" />
          <note key="60" pos="1488" pan="0" len="24" vol="100" />
        </pattern>
      </track>
      <track solo="0" name="45 (Ch2)" type="0" muted="0">
        <instrumenttrack usemasterpitch="1" pitch="0.0" basenote="57" pan="0" pitchrange="12" vol="30">
          <eldata />
          <instrument name="tripleoscillator" />
        </instrumenttrack>
        <pattern pos="267648" muted="0" steps="16" name="" type="1">
          <note key="63" pos="108" pan="0" len="12" vol="100" />
          <note key="63" pos="300" pan="0" len="12" vol="100" />
          <note key="65" pos="492" pan="0" len="12" vol="100" />
          <note key="65" pos="684" pan="0" len="12" vol="100" />
          <note key="63" pos="876" pan="0" len="12" vol="100" />
          <note key="63" pos="1068" pan="0" len="12" vol="100" />
          <note key="65" pos="1260" pan="0" len="12" vol="100" />
          <note key="65" pos="1452" pan="0" len="12" vol="100" />
        </pattern>
        <pattern pos="259968" muted="0" steps="16" name="" type="1">
          <note key="65" pos="108" pan="0" len="12" vol="100" />
          <note key="65" pos="300" pan="0" len="12" vol="100" />
          <note key="65" pos="492" pan="0" len="12" vol="100" />
          <note key="65" pos="684" pan="0" len="12" vol="100" />
        </pattern>
        <pattern pos="260736" muted="0" steps="16" name="" type="1">
          <note key="65" pos="108" pan="0" len="12" vol="100" />
          <note key="65" pos="300" pan="0" len="12" vol="100" />
          <note key="65" pos="492" pan="0" len="12" vol="100" />
          <note key="65" pos="684" pan="0" len="12" vol="100" />
        </pattern>
        <pattern pos="261504" muted="0" steps="16" name="" type="1">
          <note key="56" pos="108" pan="0" len="12" vol="100" />
          <note key="56" pos="300" pan="0" len="12" vol="100" />
          <note key="56" pos="492" pan="0" len="12" vol="100" />
          <note key="56" pos="684" pan="0" len="12" vol="100" />
        </pattern>
        <pattern pos="262272" muted="0" steps="16" name="" type="1">
          <note key="56" pos="108" pan="0" len="12" vol="100" />
          <note key="56" pos="300" pan="0" len="12" vol="100" />
          <note key="56" pos="492" pan="0" len="12" vol="100" />
          <note key="56" pos="684" pan="0" len="12" vol="100" />
        </pattern>
        <pattern pos="263040" muted="0" steps="16" name="" type="1">
          <note key="55" pos="108" pan="0" len="12" vol="100" />
          <note key="55" pos="300" pan="0" len="12" vol="100" />
          <note key="55" pos="492" pan="0" len="12" vol="100" />
          <note key="55" pos="684" pan="0" len="12" vol="100" />
        </pattern>
        <pattern pos="263808" muted="0" steps="16" name="" type="1">
          <note key="55" pos="108" pan="0" len="12" vol="100" />
          <note key="55" pos="300" pan="0" len="12" vol="100" />
          <note key="55" pos="492" pan="0" len="12" vol="100" />
          <note key="55" pos="684" pan="0" len="12" vol="100" />
        </pattern>
        <pattern pos="264576" muted="0" steps="16" name="" type="1">
          <note key="65" pos="108" pan="0" len="12" vol="100" />
          <note key="65" pos="300" pan="0" len="12" vol="100" />
          <note key="65" pos="492" pan="0" len="12" vol="100" />
          <note key="65" pos="684" pan="0" len="12" vol="100" />
        </pattern>
        <pattern pos="265344" muted="0" steps="16" name="" type="1">
          <note key="65" pos="108" pan="0" len="12" vol="100" />
          <note key="65" pos="300" pan="0" len="12" vol="100" />
          <note key="65" pos="492" pan="0" len="12" vol="100" />
          <note key="65" pos="684" pan="0" len="12" vol="100" />
        </pattern>
        <pattern pos="266112" muted="0" steps="16" name="" type="1">
          <note key="65" pos="108" pan="0" len="12" vol="100" />
          <note key="65" pos="300" pan="0" len="12" vol="100" />
          <note key="60" pos="492" pan="0" len="12" vol="100" />
          <note key="60" pos="684" pan="0" len="12" vol="100" />
          <note key="65" pos="876" pan="0" len="12" vol="100" />
          <note key="65" pos="1068" pan="0" len="12" vol="100" />
          <note key="60" pos="1260" pan="0" len="12" vol="100" />
          <note key="60" pos="1452" pan="0" len="12" vol="100" />
        </pattern>
      </track>
      <track solo="0" name="45 (Ch3)" type="0" muted="0">
        <instrumenttrack usemasterpitch="1" pitch="0.0" basenote="57" pan="0" pitchrange="12" vol="30">
          <eldata />
          <instrument name="tripleoscillator" />
        </instrumenttrack>
        <pattern pos="133632" muted="0" steps="16" name="" type="1">
          <note key="60" pos="168" pan="0" len="24" vol="100" />
          <note key="60" pos="552" pan="0" len="24" vol="100" />
          <note key="60" pos="936" pan="0" len="24" vol="100" />
          <note key="60" pos="1320" pan="0" len="24" vol="100" />
        </pattern>
        <pattern pos="92160" muted="0" steps="16" name="" type="1">
          <note key="60" pos="480" pan="0" len="192" vol="100" />
        </pattern>
        <pattern pos="93696" muted="0" steps="16" name="" type="1">
          <note key="60" pos="168" pan="0" len="24" vol="100" />
          <note key="60" pos="552" pan="0" len="24" vol="100" />
          <note key="60" pos="936" pan="0" len="24" vol="100" />
          <note key="60" pos="1320" pan="0" len="24" vol="100" />
        </pattern>
        <pattern pos="95232" muted="0" steps="16" name="" type="1">
          <note key="60" pos="168" pan="0" len="24" vol="100" />
          <note key="60" pos="552" pan="0" len="24" vol="100" />
          <note key="60" pos="936" pan="0" len="24" vol="100" />
          <note key="60" pos="1320" pan="0" len="24" vol="100" />
        </pattern>
        <pattern pos="96768" muted="0" steps="16" name="" type="1">
          <note key="60" pos="168" pan="0" len="24" vol="100" />
          <note key="60" pos="552" pan="0" len="24" vol="100" />
          <note key="60" pos="936" pan="0" len="24" vol="100" />
          <note key="60" pos="1320" pan="0" len="24" vol="100" />
        </pattern>
        <pattern pos="98304" muted="0" steps="16" name="" type="1">
          <note key="60" pos="168" pan="0" len="24" vol="100" />
          <note key="60" pos="552" pan="0" len="24" vol="100" />
          <note key="60" pos="936" pan="0" len="24" vol="100" />
          <note key="60" pos="1320" pan="0" len="24" vol="100" />
        </pattern>
        <pattern pos="99840" muted="0" steps="16" name="" type="1">
          <note key="60" pos="168" pan="0" len="24" vol="100" />
          <note key="60" pos="552" pan="0" len="24" vol="100" />
          <note key="60" pos="936" pan="0" len="24" vol="100" />
          <note key="60" pos="1320" pan="0" len="24" vol="100" />
        </pattern>
        <pattern pos="101376" muted="0" steps="16" name="" type="1">
          <note key="60" pos="168" pan="0" len="24" vol="100" />
          <note key="60" pos="552" pan="0" len="24" vol="100" />
          <note key="60" pos="936" pan="0" len="24" vol="100" />
          <note key="60" pos="1320" pan="0" len="24" vol="100" />
        </pattern>
        <pattern pos="102912" muted="0" steps="16" name="" type="1">
          <note key="60" pos="168" pan="0" len="24" vol="100" />
          <note key="60" pos="552" pan="0" len="24" vol="100" />
          <note key="60" pos="936" pan="0" len="24" vol="100" />
          <note key="60" pos="1320" pan="0" len="24" vol="100" />
        </pattern>
        <pattern pos="105984" muted="0" steps="16" name="" type="1">
          <note key="62" pos="168" pan="0" len="24" vol="0" />
          <note key="62" pos="552" pan="0" len="24" vol="5" />
          <note key="62" pos="936" pan="0" len="24" vol="23" />
          <note key="62" pos="1320" pan="0" len="24" vol="66" />
        </pattern>
        <pattern pos="107520" muted="0" steps="16" name="" type="1">
          <note key="65" pos="168" pan="0" len="24" vol="100" />
          <note key="65" pos="552" pan="0" len="24" vol="100" />
          <note key="65" pos="936" pan="0" len="24" vol="100" />
          <note key="65" pos="1320" pan="0" len="24" vol="100" />
        </pattern>
        <pattern pos="109056" muted="0" steps="16" name="" type="1">
          <note key="65" pos="168" pan="0" len="24" vol="100" />
          <note key="65" pos="552" pan="0" len="24" vol="100" />
          <note key="65" pos="936" pan="0" len="24" vol="100" />
          <note key="65" pos="1320" pan="0" len="24" vol="100" />
        </pattern>
        <pattern pos="110592" muted="0" steps="16" name="" type="1">
          <note key="63" pos="168" pan="0" len="24" vol="100" />
          <note key="63" pos="552" pan="0" len="24" vol="100" />
          <note key="63" pos="936" pan="0" len="24" vol="100" />
          <note key="63" pos="1320" pan="0" len="24" vol="100" />
        </pattern>
        <pattern pos="112128" muted="0" steps="16" name="" type="1">
          <note key="63" pos="168" pan="0" len="24" vol="100" />
          <note key="63" pos="552" pan="0" len="24" vol="100" />
          <note key="63" pos="936" pan="0" len="24" vol="100" />
          <note key="63" pos="1320" pan="0" len="24" vol="100" />
        </pattern>
        <pattern pos="122880" muted="0" steps="16" name="" type="1">
          <note key="60" pos="168" pan="0" len="24" vol="100" />
          <note key="60" pos="552" pan="0" len="24" vol="100" />
          <note key="60" pos="936" pan="0" len="24" vol="100" />
          <note key="60" pos="1320" pan="0" len="24" vol="100" />
        </pattern>
        <pattern pos="124416" muted="0" steps="16" name="" type="1">
          <note key="60" pos="168" pan="0" len="24" vol="100" />
          <note key="60" pos="552" pan="0" len="24" vol="100" />
          <note key="60" pos="936" pan="0" len="24" vol="100" />
          <note key="60" pos="1320" pan="0" len="24" vol="100" />
        </pattern>
        <pattern pos="125952" muted="0" steps="16" name="" type="1">
          <note key="60" pos="168" pan="0" len="24" vol="100" />
          <note key="60" pos="552" pan="0" len="24" vol="100" />
          <note key="60" pos="936" pan="0" len="24" vol="100" />
          <note key="60" pos="1320" pan="0" len="24" vol="100" />
        </pattern>
        <pattern pos="127488" muted="0" steps="16" name="" type="1">
          <note key="60" pos="168" pan="0" len="24" vol="100" />
          <note key="60" pos="552" pan="0" len="24" vol="100" />
          <note key="60" pos="936" pan="0" len="24" vol="100" />
          <note key="60" pos="1320" pan="0" len="24" vol="100" />
        </pattern>
        <pattern pos="129024" muted="0" steps="16" name="" type="1">
          <note key="60" pos="168" pan="0" len="24" vol="100" />
          <note key="60" pos="552" pan="0" len="24" vol="100" />
          <note key="60" pos="936" pan="0" len="24" vol="100" />
          <note key="60" pos="1320" pan="0" len="24" vol="100" />
        </pattern>
        <pattern pos="130560" muted="0" steps="16" name="" type="1">
          <note key="60" pos="168" pan="0" len="24" vol="100" />
          <note key="60" pos="552" pan="0" len="24" vol="100" />
          <note key="60" pos="936" pan="0" len="24" vol="100" />
          <note key="60" pos="1320" pan="0" len="24" vol="100" />
        </pattern>
        <pattern pos="132096" muted="0" steps="16" name="" type="1">
          <note key="60" pos="168" pan="0" len="24" vol="100" />
          <note key="60" pos="552" pan="0" len="24" vol="100" />
          <note key="60" pos="936" pan="0" len="24" vol="100" />
          <note key="60" pos="1320" pan="0" len="24" vol="100" />
        </pattern>
      </track>
      <track solo="0" name="45 (Ch5)" type="0" muted="0">
        <instrumenttrack usemasterpitch="1" pitch="0.0" basenote="57" pan="0" pitchrange="12" vol="30">
          <eldata />
          <instrument name="tripleoscillator" />
        </instrumenttrack>
        <pattern pos="23808" muted="0" steps="16" name="" type="1">
          <note key="48" pos="1104" pan="0" len="24" vol="100" />
          <note key="48" pos="1200" pan="0" len="24" vol="100" />
        </pattern>
        <pattern pos="17664" muted="0" steps="16" name="" type="1">
          <note key="48" pos="336" pan="0" len="24" vol="20" />
          <note key="48" pos="432" pan="0" len="24" vol="20" />
        </pattern>
        <pattern pos="20736" muted="0" steps="16" name="" type="1">
          <note key="48" pos="336" pan="0" len="24" vol="100" />
          <note key="48" pos="432" pan="0" len="24" vol="100" />
        </pattern>
        <pattern pos="22272" muted="0" steps="16" name="" type="1">
          <note key="48" pos="336" pan="0" len="24" vol="100" />
          <note key="48" pos="432" pan="0" len="24" vol="100" />
        </pattern>
      </track>
      <track solo="0" name="45 (Ch6)" type="0" muted="0">
        <instrumenttrack usemasterpitch="1" pitch="0.0" basenote="57" pan="0" pitchrange="12" vol="30">
          <eldata />
          <instrument name="tripleoscillator" />
        </instrumenttrack>
        <pattern pos="75264" muted="0" steps="16" name="" type="1">
          <note key="60" pos="264" pan="0" len="48" vol="100" />
          <note key="60" pos="648" pan="0" len="48" vol="100" />
          <note key="60" pos="1032" pan="0" len="48" vol="100" />
          <note key="60" pos="1416" pan="0" len="48" vol="100" />
        </pattern>
        <pattern pos="59904" muted="0" steps="16" name="" type="1">
          <note key="60" pos="264" pan="0" len="48" vol="100" />
          <note key="60" pos="648" pan="0" len="48" vol="100" />
          <note key="60" pos="1032" pan="0" len="48" vol="100" />
          <note key="60" pos="1416" pan="0" len="48" vol="100" />
        </pattern>
        <pattern pos="61440" muted="0" steps="16" name="" type="1">
          <note key="60" pos="264" pan="0" len="48" vol="100" />
          <note key="60" pos="648" pan="0" len="48" vol="100" />
          <note key="60" pos="1032" pan="0" len="48" vol="100" />
          <note key="60" pos="1416" pan="0" len="48" vol="100" />
        </pattern>
        <pattern pos="62976" muted="0" steps="16" name="" type="1">
          <note key="60" pos="264" pan="0" len="48" vol="100" />
          <note key="60" pos="648" pan="0" len="48" vol="100" />
          <note key="60" pos="1032" pan="0" len="48" vol="100" />
          <note key="60" pos="1416" pan="0" len="48" vol="100" />
        </pattern>
        <pattern pos="64512" muted="0" steps="16" name="" type="1">
          <note key="60" pos="264" pan="0" len="48" vol="100" />
          <note key="60" pos="648" pan="0" len="48" vol="100" />
          <note key="60" pos="1032" pan="0" len="48" vol="100" />
          <note key="60" pos="1416" pan="0" len="48" vol="100" />
        </pattern>
        <pattern pos="66048" muted="0" steps="16" name="" type="1">
          <note key="60" pos="264" pan="0" len="48" vol="100" />
          <note key="60" pos="648" pan="0" len="48" vol="100" />
          <note key="60" pos="1032" pan="0" len="48" vol="100" />
          <note key="60" pos="1416" pan="0" len="48" vol="100" />
        </pattern>
        <pattern pos="67584" muted="0" steps="16" name="" type="1">
          <note key="60" pos="264" pan="0" len="48" vol="100" />
          <note key="60" pos="648" pan="0" len="48" vol="100" />
          <note key="60" pos="1032" pan="0" len="48" vol="100" />
          <note key="60" pos="1416" pan="0" len="48" vol="100" />
        </pattern>
        <pattern pos="69120" muted="0" steps="16" name="" type="1">
          <note key="60" pos="264" pan="0" len="48" vol="100" />
          <note key="60" pos="648" pan="0" len="48" vol="100" />
          <note key="60" pos="1032" pan="0" len="48" vol="100" />
          <note key="60" pos="1416" pan="0" len="48" vol="100" />
        </pattern>
        <pattern pos="70656" muted="0" steps="16" name="" type="1">
          <note key="60" pos="264" pan="0" len="48" vol="100" />
          <note key="60" pos="648" pan="0" len="48" vol="100" />
          <note key="60" pos="1032" pan="0" len="48" vol="100" />
          <note key="60" pos="1416" pan="0" len="48" vol="100" />
        </pattern>
        <pattern pos="72192" muted="0" steps="16" name="" type="1">
          <note key="60" pos="264" pan="0" len="48" vol="100" />
          <note key="60" pos="648" pan="0" len="48" vol="100" />
          <note key="60" pos="1032" pan="0" len="48" vol="100" />
          <note key="60" pos="1416" pan="0" len="48" vol="100" />
        </pattern>
        <pattern pos="73728" muted="0" steps="16" name="" type="1">
          <note key="60" pos="264" pan="0" len="48" vol="100" />
          <note key="60" pos="648" pan="0" len="48" vol="100" />
          <note key="60" pos="1032" pan="0" len="48" vol="100" />
          <note key="60" pos="1416" pan="0" len="48" vol="100" />
        </pattern>
      </track>
      <track solo="0" name="45 (Ch7)" type="0" muted="0">
        <instrumenttrack usemasterpitch="1" pitch="0.0" basenote="57" pan="0" pitchrange="12" vol="30">
          <eldata />
          <instrument name="tripleoscillator" />
        </instrumenttrack>
        <pattern pos="175104" muted="0" steps="16" name="" type="1">
          <note key="48" pos="24" pan="0" len="24" vol="34" />
          <note key="48" pos="216" pan="0" len="24" vol="34" />
          <note key="48" pos="408" pan="0" len="24" vol="34" />
          <note key="48" pos="600" pan="0" len="24" vol="34" />
          <note key="48" pos="792" pan="0" len="24" vol="34" />
          <note key="48" pos="984" pan="0" len="24" vol="33" />
          <note key="48" pos="1176" pan="0" len="24" vol="22" />
          <note key="48" pos="1368" pan="0" len="24" vol="9" />
        </pattern>
        <pattern pos="164352" muted="0" steps="16" name="" type="1">
          <note key="48" pos="24" pan="0" len="24" vol="34" />
          <note key="48" pos="216" pan="0" len="24" vol="34" />
          <note key="48" pos="408" pan="0" len="24" vol="34" />
          <note key="48" pos="600" pan="0" len="24" vol="34" />
          <note key="48" pos="792" pan="0" len="24" vol="34" />
          <note key="48" pos="984" pan="0" len="24" vol="34" />
          <note key="48" pos="1176" pan="0" len="24" vol="34" />
          <note key="48" pos="1368" pan="0" len="24" vol="34" />
        </pattern>
        <pattern pos="165888" muted="0" steps="16" name="" type="1">
          <note key="48" pos="24" pan="0" len="24" vol="34" />
          <note key="48" pos="216" pan="0" len="24" vol="34" />
          <note key="48" pos="408" pan="0" len="24" vol="34" />
          <note key="48" pos="600" pan="0" len="24" vol="34" />
          <note key="48" pos="792" pan="0" len="24" vol="34" />
          <note key="48" pos="984" pan="0" len="24" vol="34" />
          <note key="48" pos="1176" pan="0" len="24" vol="34" />
          <note key="48" pos="1368" pan="0" len="24" vol="34" />
        </pattern>
        <pattern pos="167424" muted="0" steps="16" name="" type="1">
          <note key="48" pos="24" pan="0" len="24" vol="34" />
          <note key="48" pos="216" pan="0" len="24" vol="34" />
          <note key="48" pos="408" pan="0" len="24" vol="34" />
          <note key="48" pos="600" pan="0" len="24" vol="34" />
          <note key="48" pos="792" pan="0" len="24" vol="34" />
          <note key="48" pos="984" pan="0" len="24" vol="34" />
          <note key="48" pos="1176" pan="0" len="24" vol="34" />
          <note key="48" pos="1368" pan="0" len="24" vol="34" />
        </pattern>
        <pattern pos="168960" muted="0" steps="16" name="" type="1">
          <note key="48" pos="24" pan="0" len="24" vol="34" />
          <note key="48" pos="216" pan="0" len="24" vol="34" />
          <note key="48" pos="408" pan="0" len="24" vol="34" />
          <note key="48" pos="600" pan="0" len="24" vol="34" />
          <note key="48" pos="792" pan="0" len="24" vol="34" />
          <note key="48" pos="984" pan="0" len="24" vol="34" />
          <note key="48" pos="1176" pan="0" len="24" vol="34" />
          <note key="48" pos="1368" pan="0" len="24" vol="34" />
        </pattern>
        <pattern pos="170496" muted="0" steps="16" name="" type="1">
          <note key="48" pos="24" pan="0" len="24" vol="34" />
          <note key="48" pos="216" pan="0" len="24" vol="34" />
          <note key="48" pos="408" pan="0" len="24" vol="34" />
          <note key="48" pos="600" pan="0" len="24" vol="34" />
          <note key="48" pos="792" pan="0" len="24" vol="34" />
          <note key="48" pos="984" pan="0" len="24" vol="34" />
          <note key="48" pos="1176" pan="0" len="24" vol="34" />
          <note key="48" pos="1368" pan="0" len="24" vol="34" />
        </pattern>
        <pattern pos="172032" muted="0" steps="16" name="" type="1">
          <note key="48" pos="24" pan="0" len="24" vol="34" />
          <note key="48" pos="216" pan="0" len="24" vol="34" />
          <note key="48" pos="408" pan="0" len="24" vol="34" />
          <note key="48" pos="600" pan="0" len="24" vol="34" />
          <note key="48" pos="792" pan="0" len="24" vol="34" />
          <note key="48" pos="984" pan="0" len="24" vol="34" />
          <note key="48" pos="1176" pan="0" len="24" vol="34" />
          <note key="48" pos="1368" pan="0" len="24" vol="34" />
        </pattern>
        <pattern pos="173568" muted="0" steps="16" name="" type="1">
          <note key="48" pos="24" pan="0" len="24" vol="34" />
          <note key="48" pos="216" pan="0" len="24" vol="34" />
          <note key="48" pos="408" pan="0" len="24" vol="34" />
          <note key="48" pos="600" pan="0" len="24" vol="34" />
          <note key="48" pos="792" pan="0" len="24" vol="34" />
          <note key="48" pos="984" pan="0" len="24" vol="34" />
          <note key="48" pos="1176" pan="0" len="24" vol="34" />
          <note key="48" pos="1368" pan="0" len="24" vol="34" />
        </pattern>
      </track>
      <track solo="0" name="45 (Ch9)" type="0" muted="0">
        <instrumenttrack usemasterpitch="1" pitch="0.0" basenote="57" pan="0" pitchrange="12" vol="30">
          <eldata />
          <instrument name="tripleoscillator" />
        </instrumenttrack>
        <pattern pos="247680" muted="0" steps="16" name="" type="1">
          <note key="60" pos="1512" pan="0" len="24" vol="100" />
        </pattern>
        <pattern pos="240000" muted="0" steps="16" name="" type="1">
          <note key="60" pos="1512" pan="0" len="24" vol="100" />
        </pattern>
      </track>
      <track solo="0" name="45 (Ch12)" type="0" muted="0">
        <instrumenttrack usemasterpitch="1" pitch="0.0" basenote="57" pan="0" pitchrange="12" vol="30">
          <eldata />
          <instrument name="tripleoscillator" />
        </instrumenttrack>
        <pattern pos="53760" muted="0" steps="16" name="" type="1">
          <note key="48" pos="792" pan="0" len="24" vol="34" />
        </pattern>
      </track>
      <track solo="0" name="46 (Ch2)" type="0" muted="0">
        <instrumenttrack usemasterpitch="1" pitch="0.0" basenote="57" pan="0" pitchrange="12" vol="30">
          <eldata />
          <instrument name="tripleoscillator" />
        </instrumenttrack>
        <pattern pos="91392" muted="0" steps="16" name="" type="1">
          <note key="60" pos="0" pan="0" len="12" vol="100" />
          <note key="60" pos="192" pan="0" len="12" vol="75" />
          <note key="60" pos="384" pan="0" len="12" vol="50" />
          <note key="60" pos="576" pan="0" len="12" vol="25" />
        </pattern>
        <pattern pos="76800" muted="0" steps="16" name="" type="1">
          <note key="60" pos="0" pan="0" len="12" vol="100" />
          <note key="60" pos="192" pan="0" len="12" vol="100" />
          <note key="60" pos="384" pan="0" len="12" vol="100" />
          <note key="60" pos="576" pan="0" len="12" vol="100" />
        </pattern>
        <pattern pos="77568" muted="0" steps="16" name="" type="1">
          <note key="60" pos="0" pan="0" len="12" vol="100" />
          <note key="60" pos="192" pan="0" len="12" vol="100" />
          <note key="60" pos="384" pan="0" len="12" vol="100" />
          <note key="60" pos="576" pan="0" len="12" vol="100" />
        </pattern>
        <pattern pos="78336" muted="0" steps="16" name="" type="1">
          <note key="60" pos="0" pan="0" len="12" vol="100" />
          <note key="60" pos="192" pan="0" len="12" vol="100" />
          <note key="60" pos="384" pan="0" len="12" vol="100" />
          <note key="60" pos="576" pan="0" len="12" vol="100" />
        </pattern>
        <pattern pos="79104" muted="0" steps="16" name="" type="1">
          <note key="60" pos="0" pan="0" len="12" vol="100" />
          <note key="60" pos="192" pan="0" len="12" vol="100" />
          <note key="60" pos="384" pan="0" len="12" vol="100" />
          <note key="60" pos="576" pan="0" len="12" vol="100" />
        </pattern>
        <pattern pos="79872" muted="0" steps="16" name="" type="1">
          <note key="60" pos="0" pan="0" len="12" vol="100" />
          <note key="60" pos="192" pan="0" len="12" vol="100" />
          <note key="60" pos="384" pan="0" len="12" vol="100" />
          <note key="60" pos="576" pan="0" len="12" vol="100" />
        </pattern>
        <pattern pos="80640" muted="0" steps="16" name="" type="1">
          <note key="60" pos="0" pan="0" len="12" vol="100" />
          <note key="60" pos="192" pan="0" len="12" vol="100" />
          <note key="60" pos="384" pan="0" len="12" vol="100" />
          <note key="60" pos="576" pan="0" len="12" vol="100" />
        </pattern>
        <pattern pos="81408" muted="0" steps="16" name="" type="1">
          <note key="60" pos="0" pan="0" len="12" vol="100" />
          <note key="60" pos="192" pan="0" len="12" vol="100" />
          <note key="60" pos="384" pan="0" len="12" vol="100" />
          <note key="60" pos="576" pan="0" len="12" vol="100" />
        </pattern>
        <pattern pos="82176" muted="0" steps="16" name="" type="1">
          <note key="60" pos="0" pan="0" len="12" vol="100" />
          <note key="60" pos="192" pan="0" len="12" vol="100" />
          <note key="60" pos="384" pan="0" len="12" vol="100" />
          <note key="60" pos="576" pan="0" len="12" vol="100" />
        </pattern>
        <pattern pos="82944" muted="0" steps="16" name="" type="1">
          <note key="60" pos="0" pan="0" len="12" vol="100" />
          <note key="60" pos="192" pan="0" len="12" vol="100" />
          <note key="60" pos="384" pan="0" len="12" vol="100" />
          <note key="60" pos="576" pan="0" len="12" vol="100" />
        </pattern>
        <pattern pos="83712" muted="0" steps="16" name="" type="1">
          <note key="60" pos="0" pan="0" len="12" vol="100" />
          <note key="60" pos="192" pan="0" len="12" vol="100" />
          <note key="60" pos="384" pan="0" len="12" vol="100" />
          <note key="60" pos="576" pan="0" len="12" vol="100" />
        </pattern>
        <pattern pos="86016" muted="0" steps="16" name="" type="1">
          <note key="60" pos="0" pan="0" len="12" vol="100" />
          <note key="60" pos="192" pan="0" len="12" vol="100" />
          <note key="60" pos="384" pan="0" len="12" vol="100" />
          <note key="60" pos="576" pan="0" len="12" vol="100" />
        </pattern>
        <pattern pos="86784" muted="0" steps="16" name="" type="1">
          <note key="60" pos="0" pan="0" len="12" vol="100" />
          <note key="60" pos="192" pan="0" len="12" vol="100" />
          <note key="60" pos="384" pan="0" len="12" vol="100" />
          <note key="60" pos="576" pan="0" len="12" vol="100" />
        </pattern>
        <pattern pos="87552" muted="0" steps="16" name="" type="1">
          <note key="60" pos="0" pan="0" len="12" vol="100" />
          <note key="60" pos="192" pan="0" len="12" vol="100" />
          <note key="60" pos="384" pan="0" len="12" vol="100" />
          <note key="60" pos="576" pan="0" len="12" vol="100" />
        </pattern>
        <pattern pos="88320" muted="0" steps="16" name="" type="1">
          <note key="60" pos="0" pan="0" len="12" vol="100" />
          <note key="60" pos="192" pan="0" len="12" vol="100" />
          <note key="60" pos="384" pan="0" len="12" vol="100" />
          <note key="60" pos="576" pan="0" len="12" vol="100" />
        </pattern>
        <pattern pos="89088" muted="0" steps="16" name="" type="1">
          <note key="60" pos="0" pan="0" len="12" vol="100" />
          <note key="60" pos="192" pan="0" len="12" vol="100" />
          <note key="60" pos="384" pan="0" len="12" vol="100" />
          <note key="60" pos="576" pan="0" len="12" vol="100" />
        </pattern>
        <pattern pos="89856" muted="0" steps="16" name="" type="1">
          <note key="60" pos="0" pan="0" len="12" vol="100" />
          <note key="60" pos="192" pan="0" len="12" vol="100" />
          <note key="60" pos="384" pan="0" len="12" vol="100" />
          <note key="60" pos="576" pan="0" len="12" vol="100" />
        </pattern>
        <pattern pos="90624" muted="0" steps="16" name="" type="1">
          <note key="60" pos="0" pan="0" len="12" vol="100" />
          <note key="60" pos="192" pan="0" len="12" vol="100" />
          <note key="60" pos="384" pan="0" len="12" vol="100" />
          <note key="60" pos="576" pan="0" len="12" vol="100" />
        </pattern>
      </track>
      <track solo="0" name="46 (Ch3)" type="0" muted="0">
        <instrumenttrack usemasterpitch="1" pitch="0.0" basenote="57" pan="0" pitchrange="12" vol="30">
          <eldata />
          <instrument name="tripleoscillator" />
        </instrumenttrack>
        <pattern pos="133632" muted="0" steps="16" name="" type="1">
          <note key="60" pos="24" pan="0" len="24" vol="34" />
          <note key="60" pos="216" pan="0" len="24" vol="100" />
          <note key="60" pos="360" pan="0" len="24" vol="100" />
          <note key="60" pos="408" pan="0" len="24" vol="34" />
          <note key="60" pos="600" pan="0" len="24" vol="100" />
          <note key="60" pos="744" pan="0" len="24" vol="100" />
          <note key="60" pos="792" pan="0" len="24" vol="34" />
          <note key="60" pos="984" pan="0" len="24" vol="100" />
          <note key="60" pos="1128" pan="0" len="24" vol="100" />
          <note key="60" pos="1176" pan="0" len="24" vol="34" />
          <note key="60" pos="1368" pan="0" len="24" vol="100" />
        </pattern>
        <pattern pos="93696" muted="0" steps="16" name="" type="1">
          <note key="60" pos="24" pan="0" len="24" vol="34" />
          <note key="60" pos="216" pan="0" len="24" vol="100" />
          <note key="60" pos="360" pan="0" len="24" vol="100" />
          <note key="60" pos="408" pan="0" len="24" vol="34" />
          <note key="60" pos="600" pan="0" len="24" vol="100" />
          <note key="60" pos="744" pan="0" len="24" vol="100" />
          <note key="60" pos="792" pan="0" len="24" vol="34" />
          <note key="60" pos="984" pan="0" len="24" vol="100" />
          <note key="60" pos="1128" pan="0" len="24" vol="100" />
          <note key="60" pos="1176" pan="0" len="24" vol="34" />
          <note key="60" pos="1368" pan="0" len="24" vol="100" />
          <note key="60" pos="1512" pan="0" len="24" vol="100" />
        </pattern>
        <pattern pos="95232" muted="0" steps="16" name="" type="1">
          <note key="60" pos="24" pan="0" len="24" vol="34" />
          <note key="60" pos="216" pan="0" len="24" vol="100" />
          <note key="60" pos="360" pan="0" len="24" vol="100" />
          <note key="60" pos="408" pan="0" len="24" vol="34" />
          <note key="60" pos="600" pan="0" len="24" vol="100" />
          <note key="60" pos="744" pan="0" len="24" vol="100" />
          <note key="60" pos="792" pan="0" len="24" vol="34" />
          <note key="60" pos="984" pan="0" len="24" vol="100" />
          <note key="60" pos="1128" pan="0" len="24" vol="100" />
          <note key="60" pos="1176" pan="0" len="24" vol="34" />
          <note key="60" pos="1368" pan="0" len="24" vol="100" />
          <note key="60" pos="1512" pan="0" len="24" vol="100" />
        </pattern>
        <pattern pos="96768" muted="0" steps="16" name="" type="1">
          <note key="60" pos="24" pan="0" len="24" vol="34" />
          <note key="60" pos="216" pan="0" len="24" vol="100" />
          <note key="60" pos="360" pan="0" len="24" vol="100" />
          <note key="60" pos="408" pan="0" len="24" vol="34" />
          <note key="60" pos="600" pan="0" len="24" vol="100" />
          <note key="60" pos="744" pan="0" len="24" vol="100" />
          <note key="60" pos="792" pan="0" len="24" vol="34" />
          <note key="60" pos="984" pan="0" len="24" vol="100" />
          <note key="60" pos="1128" pan="0" len="24" vol="100" />
          <note key="60" pos="1176" pan="0" len="24" vol="34" />
          <note key="60" pos="1368" pan="0" len="24" vol="100" />
          <note key="60" pos="1512" pan="0" len="24" vol="100" />
        </pattern>
        <pattern pos="98304" muted="0" steps="16" name="" type="1">
          <note key="60" pos="24" pan="0" len="24" vol="34" />
          <note key="60" pos="216" pan="0" len="24" vol="100" />
          <note key="60" pos="360" pan="0" len="24" vol="100" />
          <note key="60" pos="408" pan="0" len="24" vol="34" />
          <note key="60" pos="600" pan="0" len="24" vol="100" />
          <note key="60" pos="744" pan="0" len="24" vol="100" />
          <note key="60" pos="792" pan="0" len="24" vol="34" />
          <note key="60" pos="984" pan="0" len="24" vol="100" />
          <note key="60" pos="1128" pan="0" len="24" vol="100" />
          <note key="60" pos="1176" pan="0" len="24" vol="34" />
          <note key="60" pos="1368" pan="0" len="24" vol="100" />
          <note key="60" pos="1512" pan="0" len="24" vol="100" />
        </pattern>
        <pattern pos="99840" muted="0" steps="16" name="" type="1">
          <note key="60" pos="24" pan="0" len="24" vol="34" />
          <note key="60" pos="216" pan="0" len="24" vol="100" />
          <note key="60" pos="360" pan="0" len="24" vol="100" />
          <note key="60" pos="408" pan="0" len="24" vol="34" />
          <note key="60" pos="600" pan="0" len="24" vol="100" />
          <note key="60" pos="744" pan="0" len="24" vol="100" />
          <note key="60" pos="792" pan="0" len="24" vol="34" />
          <note key="60" pos="984" pan="0" len="24" vol="100" />
          <note key="60" pos="1128" pan="0" len="24" vol="100" />
          <note key="60" pos="1176" pan="0" len="24" vol="34" />
          <note key="60" pos="1368" pan="0" len="24" vol="100" />
          <note key="60" pos="1512" pan="0" len="24" vol="100" />
        </pattern>
        <pattern pos="101376" muted="0" steps="16" name="" type="1">
          <note key="60" pos="24" pan="0" len="24" vol="34" />
          <note key="60" pos="216" pan="0" len="24" vol="100" />
          <note key="60" pos="360" pan="0" len="24" vol="100" />
          <note key="60" pos="408" pan="0" len="24" vol="34" />
          <note key="60" pos="600" pan="0" len="24" vol="100" />
          <note key="60" pos="744" pan="0" len="24" vol="100" />
          <note key="60" pos="792" pan="0" len="24" vol="34" />
          <note key="60" pos="984" pan="0" len="24" vol="100" />
          <note key="60" pos="1128" pan="0" len="24" vol="100" />
          <note key="60" pos="1176" pan="0" len="24" vol="34" />
          <note key="60" pos="1368" pan="0" len="24" vol="100" />
          <note key="60" pos="1512" pan="0" len="24" vol="100" />
        </pattern>
        <pattern pos="102912" muted="0" steps="16" name="" type="1">
          <note key="60" pos="24" pan="0" len="24" vol="34" />
          <note key="60" pos="216" pan="0" len="24" vol="100" />
          <note key="60" pos="360" pan="0" len="24" vol="100" />
          <note key="60" pos="408" pan="0" len="24" vol="34" />
          <note key="60" pos="600" pan="0" len="24" vol="100" />
          <note key="60" pos="744" pan="0" len="24" vol="100" />
          <note key="60" pos="792" pan="0" len="24" vol="34" />
          <note key="60" pos="984" pan="0" len="24" vol="100" />
          <note key="60" pos="1128" pan="0" len="24" vol="100" />
          <note key="60" pos="1176" pan="0" len="24" vol="34" />
          <note key="60" pos="1368" pan="0" len="24" vol="100" />
          <note key="60" pos="1512" pan="0" len="24" vol="100" />
        </pattern>
        <pattern pos="105984" muted="0" steps="16" name="" type="1">
          <note key="62" pos="24" pan="0" len="24" vol="0" />
          <note key="62" pos="216" pan="0" len="24" vol="0" />
          <note key="62" pos="360" pan="0" len="24" vol="2" />
          <note key="62" pos="408" pan="0" len="24" vol="2" />
          <note key="62" pos="600" pan="0" len="24" vol="6" />
          <note key="62" pos="744" pan="0" len="24" vol="12" />
          <note key="62" pos="792" pan="0" len="24" vol="5" />
          <note key="62" pos="984" pan="0" len="24" vol="28" />
          <note key="62" pos="1128" pan="0" len="24" vol="42" />
          <note key="62" pos="1176" pan="0" len="24" vol="16" />
          <note key="62" pos="1368" pan="0" len="24" vol="73" />
          <note key="62" pos="1512" pan="0" len="24" vol="100" />
        </pattern>
        <pattern pos="107520" muted="0" steps="16" name="" type="1">
          <note key="62" pos="24" pan="0" len="24" vol="34" />
          <note key="67" pos="216" pan="0" len="24" vol="100" />
          <note key="65" pos="360" pan="0" len="24" vol="100" />
          <note key="62" pos="408" pan="0" len="24" vol="34" />
          <note key="67" pos="600" pan="0" len="24" vol="100" />
          <note key="65" pos="744" pan="0" len="24" vol="100" />
          <note key="62" pos="792" pan="0" len="24" vol="34" />
          <note key="67" pos="984" pan="0" len="24" vol="100" />
          <note key="65" pos="1128" pan="0" len="24" vol="100" />
          <note key="62" pos="1176" pan="0" len="24" vol="34" />
          <note key="67" pos="1368" pan="0" len="24" vol="100" />
          <note key="65" pos="1512" pan="0" len="24" vol="100" />
        </pattern>
        <pattern pos="109056" muted="0" steps="16" name="" type="1">
          <note key="62" pos="24" pan="0" len="24" vol="34" />
          <note key="67" pos="216" pan="0" len="24" vol="100" />
          <note key="65" pos="360" pan="0" len="24" vol="100" />
          <note key="62" pos="408" pan="0" len="24" vol="34" />
          <note key="67" pos="600" pan="0" len="24" vol="100" />
          <note key="65" pos="744" pan="0" len="24" vol="100" />
          <note key="62" pos="792" pan="0" len="24" vol="34" />
          <note key="67" pos="984" pan="0" len="24" vol="100" />
          <note key="65" pos="1128" pan="0" len="24" vol="100" />
          <note key="62" pos="1176" pan="0" len="24" vol="34" />
          <note key="67" pos="1368" pan="0" len="24" vol="100" />
          <note key="65" pos="1512" pan="0" len="24" vol="100" />
        </pattern>
        <pattern pos="110592" muted="0" steps="16" name="" type="1">
          <note key="65" pos="24" pan="0" len="24" vol="34" />
          <note key="58" pos="216" pan="0" len="24" vol="100" />
          <note key="68" pos="360" pan="0" len="24" vol="100" />
          <note key="65" pos="408" pan="0" len="24" vol="34" />
          <note key="58" pos="600" pan="0" len="24" vol="100" />
          <note key="68" pos="744" pan="0" len="24" vol="100" />
          <note key="65" pos="792" pan="0" len="24" vol="34" />
          <note key="58" pos="984" pan="0" len="24" vol="100" />
          <note key="68" pos="1128" pan="0" len="24" vol="100" />
          <note key="65" pos="1176" pan="0" len="24" vol="34" />
          <note key="58" pos="1368" pan="0" len="24" vol="100" />
          <note key="68" pos="1512" pan="0" len="24" vol="100" />
        </pattern>
        <pattern pos="112128" muted="0" steps="16" name="" type="1">
          <note key="65" pos="24" pan="0" len="24" vol="34" />
          <note key="58" pos="216" pan="0" len="24" vol="100" />
          <note key="68" pos="360" pan="0" len="24" vol="100" />
          <note key="65" pos="408" pan="0" len="24" vol="34" />
          <note key="58" pos="600" pan="0" len="24" vol="100" />
          <note key="68" pos="744" pan="0" len="24" vol="100" />
          <note key="65" pos="792" pan="0" len="24" vol="34" />
          <note key="58" pos="984" pan="0" len="24" vol="100" />
          <note key="68" pos="1128" pan="0" len="24" vol="100" />
          <note key="65" pos="1176" pan="0" len="24" vol="34" />
          <note key="58" pos="1368" pan="0" len="24" vol="100" />
          <note key="68" pos="1512" pan="0" len="24" vol="100" />
        </pattern>
        <pattern pos="116736" muted="0" steps="16" name="" type="1">
          <note key="60" pos="120" pan="0" len="24" vol="34" />
          <note key="60" pos="216" pan="0" len="24" vol="34" />
          <note key="60" pos="312" pan="0" len="24" vol="34" />
          <note key="60" pos="504" pan="0" len="24" vol="34" />
          <note key="60" pos="600" pan="0" len="24" vol="34" />
          <note key="60" pos="696" pan="0" len="24" vol="34" />
          <note key="60" pos="888" pan="0" len="24" vol="34" />
          <note key="60" pos="984" pan="0" len="24" vol="34" />
          <note key="60" pos="1080" pan="0" len="24" vol="34" />
          <note key="60" pos="1272" pan="0" len="24" vol="34" />
          <note key="60" pos="1464" pan="0" len="24" vol="34" />
        </pattern>
        <pattern pos="118272" muted="0" steps="16" name="" type="1">
          <note key="60" pos="120" pan="0" len="24" vol="34" />
          <note key="60" pos="216" pan="0" len="24" vol="34" />
          <note key="60" pos="312" pan="0" len="24" vol="34" />
          <note key="60" pos="504" pan="0" len="24" vol="34" />
          <note key="60" pos="600" pan="0" len="24" vol="34" />
          <note key="60" pos="696" pan="0" len="24" vol="34" />
          <note key="60" pos="888" pan="0" len="24" vol="34" />
          <note key="60" pos="984" pan="0" len="24" vol="34" />
          <note key="60" pos="1080" pan="0" len="24" vol="34" />
          <note key="60" pos="1272" pan="0" len="24" vol="34" />
          <note key="60" pos="1464" pan="0" len="24" vol="34" />
        </pattern>
        <pattern pos="121344" muted="0" steps="16" name="" type="1">
          <note key="60" pos="1464" pan="0" len="24" vol="34" />
        </pattern>
        <pattern pos="122880" muted="0" steps="16" name="" type="1">
          <note key="60" pos="24" pan="0" len="24" vol="34" />
          <note key="60" pos="216" pan="0" len="24" vol="100" />
          <note key="60" pos="360" pan="0" len="24" vol="100" />
          <note key="60" pos="408" pan="0" len="24" vol="34" />
          <note key="60" pos="600" pan="0" len="24" vol="100" />
          <note key="60" pos="744" pan="0" len="24" vol="100" />
          <note key="60" pos="792" pan="0" len="24" vol="34" />
          <note key="60" pos="984" pan="0" len="24" vol="100" />
          <note key="60" pos="1128" pan="0" len="24" vol="100" />
          <note key="60" pos="1176" pan="0" len="24" vol="34" />
          <note key="60" pos="1368" pan="0" len="24" vol="100" />
          <note key="60" pos="1512" pan="0" len="24" vol="100" />
        </pattern>
        <pattern pos="124416" muted="0" steps="16" name="" type="1">
          <note key="60" pos="24" pan="0" len="24" vol="34" />
          <note key="60" pos="216" pan="0" len="24" vol="100" />
          <note key="60" pos="360" pan="0" len="24" vol="100" />
          <note key="60" pos="408" pan="0" len="24" vol="34" />
          <note key="60" pos="600" pan="0" len="24" vol="100" />
          <note key="60" pos="744" pan="0" len="24" vol="100" />
          <note key="60" pos="792" pan="0" len="24" vol="34" />
          <note key="60" pos="984" pan="0" len="24" vol="100" />
          <note key="60" pos="1128" pan="0" len="24" vol="100" />
          <note key="60" pos="1176" pan="0" len="24" vol="34" />
          <note key="60" pos="1368" pan="0" len="24" vol="100" />
          <note key="60" pos="1512" pan="0" len="24" vol="100" />
        </pattern>
        <pattern pos="125952" muted="0" steps="16" name="" type="1">
          <note key="60" pos="24" pan="0" len="24" vol="34" />
          <note key="60" pos="216" pan="0" len="24" vol="100" />
          <note key="60" pos="360" pan="0" len="24" vol="100" />
          <note key="60" pos="408" pan="0" len="24" vol="34" />
          <note key="60" pos="600" pan="0" len="24" vol="100" />
          <note key="60" pos="744" pan="0" len="24" vol="100" />
          <note key="60" pos="792" pan="0" len="24" vol="34" />
          <note key="60" pos="984" pan="0" len="24" vol="100" />
          <note key="60" pos="1128" pan="0" len="24" vol="100" />
          <note key="60" pos="1176" pan="0" len="24" vol="34" />
          <note key="60" pos="1368" pan="0" len="24" vol="100" />
          <note key="60" pos="1512" pan="0" len="24" vol="100" />
        </pattern>
        <pattern pos="127488" muted="0" steps="16" name="" type="1">
          <note key="60" pos="24" pan="0" len="24" vol="34" />
          <note key="60" pos="216" pan="0" len="24" vol="100" />
          <note key="60" pos="360" pan="0" len="24" vol="100" />
          <note key="60" pos="408" pan="0" len="24" vol="34" />
          <note key="60" pos="600" pan="0" len="24" vol="100" />
          <note key="60" pos="744" pan="0" len="24" vol="100" />
          <note key="60" pos="792" pan="0" len="24" vol="34" />
          <note key="60" pos="984" pan="0" len="24" vol="100" />
          <note key="60" pos="1128" pan="0" len="24" vol="100" />
          <note key="60" pos="1176" pan="0" len="24" vol="34" />
          <note key="60" pos="1368" pan="0" len="24" vol="100" />
          <note key="60" pos="1512" pan="0" len="24" vol="100" />
        </pattern>
        <pattern pos="129024" muted="0" steps="16" name="" type="1">
          <note key="60" pos="24" pan="0" len="24" vol="34" />
          <note key="60" pos="216" pan="0" len="24" vol="100" />
          <note key="60" pos="360" pan="0" len="24" vol="100" />
          <note key="60" pos="408" pan="0" len="24" vol="34" />
          <note key="60" pos="600" pan="0" len="24" vol="100" />
          <note key="60" pos="744" pan="0" len="24" vol="100" />
          <note key="60" pos="792" pan="0" len="24" vol="34" />
          <note key="60" pos="984" pan="0" len="24" vol="100" />
          <note key="60" pos="1128" pan="0" len="24" vol="100" />
          <note key="60" pos="1176" pan="0" len="24" vol="34" />
          <note key="60" pos="1368" pan="0" len="24" vol="100" />
          <note key="60" pos="1512" pan="0" len="24" vol="100" />
        </pattern>
        <pattern pos="130560" muted="0" steps="16" name="" type="1">
          <note key="60" pos="24" pan="0" len="24" vol="34" />
          <note key="60" pos="216" pan="0" len="24" vol="100" />
          <note key="60" pos="360" pan="0" len="24" vol="100" />
          <note key="60" pos="408" pan="0" len="24" vol="34" />
          <note key="60" pos="600" pan="0" len="24" vol="100" />
          <note key="60" pos="744" pan="0" len="24" vol="100" />
          <note key="60" pos="792" pan="0" len="24" vol="34" />
          <note key="60" pos="984" pan="0" len="24" vol="100" />
          <note key="60" pos="1128" pan="0" len="24" vol="100" />
          <note key="60" pos="1176" pan="0" len="24" vol="34" />
          <note key="60" pos="1368" pan="0" len="24" vol="100" />
          <note key="60" pos="1512" pan="0" len="24" vol="100" />
        </pattern>
        <pattern pos="132096" muted="0" steps="16" name="" type="1">
          <note key="60" pos="24" pan="0" len="24" vol="34" />
          <note key="60" pos="216" pan="0" len="24" vol="100" />
          <note key="60" pos="360" pan="0" len="24" vol="100" />
          <note key="60" pos="408" pan="0" len="24" vol="34" />
          <note key="60" pos="600" pan="0" len="24" vol="100" />
          <note key="60" pos="744" pan="0" len="24" vol="100" />
          <note key="60" pos="792" pan="0" len="24" vol="34" />
          <note key="60" pos="984" pan="0" len="24" vol="100" />
          <note key="60" pos="1128" pan="0" len="24" vol="100" />
          <note key="60" pos="1176" pan="0" len="24" vol="34" />
          <note key="60" pos="1368" pan="0" len="24" vol="100" />
          <note key="60" pos="1512" pan="0" len="24" vol="100" />
        </pattern>
      </track>
      <track solo="0" name="46 (Ch5)" type="0" muted="0">
        <instrumenttrack usemasterpitch="1" pitch="0.0" basenote="57" pan="0" pitchrange="12" vol="30">
          <eldata />
          <instrument name="tripleoscillator" />
        </instrumenttrack>
        <pattern pos="23808" muted="0" steps="16" name="" type="1">
          <note key="48" pos="1128" pan="0" len="24" vol="100" />
          <note key="48" pos="1176" pan="0" len="24" vol="100" />
        </pattern>
        <pattern pos="17664" muted="0" steps="16" name="" type="1">
          <note key="48" pos="360" pan="0" len="24" vol="20" />
          <note key="48" pos="408" pan="0" len="24" vol="20" />
        </pattern>
        <pattern pos="20736" muted="0" steps="16" name="" type="1">
          <note key="48" pos="360" pan="0" len="24" vol="100" />
          <note key="48" pos="408" pan="0" len="24" vol="100" />
        </pattern>
        <pattern pos="22272" muted="0" steps="16" name="" type="1">
          <note key="48" pos="360" pan="0" len="24" vol="100" />
          <note key="48" pos="408" pan="0" len="24" vol="100" />
        </pattern>
      </track>
      <track solo="0" name="46 (Ch6)" type="0" muted="0">
        <instrumenttrack usemasterpitch="1" pitch="0.0" basenote="57" pan="0" pitchrange="12" vol="30">
          <eldata />
          <instrument name="tripleoscillator" />
        </instrumenttrack>
        <pattern pos="75264" muted="0" steps="16" name="" type="1">
          <note key="60" pos="192" pan="0" len="24" vol="100" />
          <note key="60" pos="576" pan="0" len="24" vol="100" />
          <note key="60" pos="960" pan="0" len="24" vol="100" />
          <note key="60" pos="1344" pan="0" len="24" vol="100" />
        </pattern>
        <pattern pos="59904" muted="0" steps="16" name="" type="1">
          <note key="60" pos="192" pan="0" len="24" vol="100" />
          <note key="60" pos="576" pan="0" len="24" vol="100" />
          <note key="60" pos="960" pan="0" len="24" vol="100" />
          <note key="60" pos="1344" pan="0" len="24" vol="100" />
        </pattern>
        <pattern pos="61440" muted="0" steps="16" name="" type="1">
          <note key="60" pos="192" pan="0" len="24" vol="100" />
          <note key="60" pos="576" pan="0" len="24" vol="100" />
          <note key="60" pos="960" pan="0" len="24" vol="100" />
          <note key="60" pos="1344" pan="0" len="24" vol="100" />
        </pattern>
        <pattern pos="62976" muted="0" steps="16" name="" type="1">
          <note key="60" pos="192" pan="0" len="24" vol="100" />
          <note key="60" pos="576" pan="0" len="24" vol="100" />
          <note key="60" pos="960" pan="0" len="24" vol="100" />
          <note key="60" pos="1344" pan="0" len="24" vol="100" />
        </pattern>
        <pattern pos="64512" muted="0" steps="16" name="" type="1">
          <note key="60" pos="192" pan="0" len="24" vol="100" />
          <note key="60" pos="576" pan="0" len="24" vol="100" />
          <note key="60" pos="960" pan="0" len="24" vol="100" />
          <note key="60" pos="1344" pan="0" len="24" vol="100" />
        </pattern>
        <pattern pos="66048" muted="0" steps="16" name="" type="1">
          <note key="60" pos="192" pan="0" len="24" vol="100" />
          <note key="60" pos="576" pan="0" len="24" vol="100" />
          <note key="60" pos="960" pan="0" len="24" vol="100" />
          <note key="60" pos="1344" pan="0" len="24" vol="100" />
        </pattern>
        <pattern pos="67584" muted="0" steps="16" name="" type="1">
          <note key="60" pos="192" pan="0" len="24" vol="100" />
          <note key="60" pos="576" pan="0" len="24" vol="100" />
          <note key="60" pos="960" pan="0" len="24" vol="100" />
          <note key="60" pos="1344" pan="0" len="24" vol="100" />
        </pattern>
        <pattern pos="69120" muted="0" steps="16" name="" type="1">
          <note key="60" pos="192" pan="0" len="24" vol="100" />
          <note key="60" pos="576" pan="0" len="24" vol="100" />
          <note key="60" pos="960" pan="0" len="24" vol="100" />
          <note key="60" pos="1344" pan="0" len="24" vol="100" />
        </pattern>
        <pattern pos="70656" muted="0" steps="16" name="" type="1">
          <note key="60" pos="192" pan="0" len="24" vol="100" />
          <note key="60" pos="576" pan="0" len="24" vol="100" />
          <note key="60" pos="960" pan="0" len="24" vol="100" />
          <note key="60" pos="1344" pan="0" len="24" vol="100" />
        </pattern>
        <pattern pos="72192" muted="0" steps="16" name="" type="1">
          <note key="60" pos="192" pan="0" len="24" vol="100" />
          <note key="60" pos="576" pan="0" len="24" vol="100" />
          <note key="60" pos="960" pan="0" len="24" vol="100" />
          <note key="60" pos="1344" pan="0" len="24" vol="100" />
        </pattern>
        <pattern pos="73728" muted="0" steps="16" name="" type="1">
          <note key="60" pos="192" pan="0" len="24" vol="100" />
          <note key="60" pos="576" pan="0" len="24" vol="100" />
          <note key="60" pos="960" pan="0" len="24" vol="100" />
          <note key="60" pos="1344" pan="0" len="24" vol="100" />
        </pattern>
      </track>
      <track solo="0" name="46 (Ch7)" type="0" muted="0">
        <instrumenttrack usemasterpitch="1" pitch="0.0" basenote="57" pan="0" pitchrange="12" vol="30">
          <eldata />
          <instrument name="tripleoscillator" />
        </instrumenttrack>
        <pattern pos="175104" muted="0" steps="16" name="" type="1">
          <note key="60" pos="48" pan="0" len="24" vol="100" />
          <note key="60" pos="240" pan="0" len="24" vol="100" />
          <note key="60" pos="432" pan="0" len="24" vol="100" />
          <note key="60" pos="624" pan="0" len="24" vol="100" />
          <note key="60" pos="816" pan="0" len="24" vol="100" />
          <note key="60" pos="1008" pan="0" len="24" vol="92" />
          <note key="60" pos="1200" pan="0" len="24" vol="58" />
          <note key="60" pos="1392" pan="0" len="24" vol="25" />
        </pattern>
        <pattern pos="164352" muted="0" steps="16" name="" type="1">
          <note key="60" pos="48" pan="0" len="24" vol="100" />
          <note key="60" pos="240" pan="0" len="24" vol="100" />
          <note key="60" pos="432" pan="0" len="24" vol="100" />
          <note key="60" pos="624" pan="0" len="24" vol="100" />
          <note key="60" pos="816" pan="0" len="24" vol="100" />
          <note key="60" pos="1008" pan="0" len="24" vol="100" />
          <note key="60" pos="1200" pan="0" len="24" vol="100" />
          <note key="60" pos="1392" pan="0" len="24" vol="100" />
        </pattern>
        <pattern pos="165888" muted="0" steps="16" name="" type="1">
          <note key="60" pos="48" pan="0" len="24" vol="100" />
          <note key="60" pos="240" pan="0" len="24" vol="100" />
          <note key="60" pos="432" pan="0" len="24" vol="100" />
          <note key="60" pos="624" pan="0" len="24" vol="100" />
          <note key="60" pos="816" pan="0" len="24" vol="100" />
          <note key="60" pos="1008" pan="0" len="24" vol="100" />
          <note key="60" pos="1200" pan="0" len="24" vol="100" />
          <note key="60" pos="1392" pan="0" len="24" vol="100" />
        </pattern>
        <pattern pos="167424" muted="0" steps="16" name="" type="1">
          <note key="60" pos="48" pan="0" len="24" vol="100" />
          <note key="60" pos="240" pan="0" len="24" vol="100" />
          <note key="60" pos="432" pan="0" len="24" vol="100" />
          <note key="60" pos="624" pan="0" len="24" vol="100" />
          <note key="60" pos="816" pan="0" len="24" vol="100" />
          <note key="60" pos="1008" pan="0" len="24" vol="100" />
          <note key="60" pos="1200" pan="0" len="24" vol="100" />
          <note key="60" pos="1392" pan="0" len="24" vol="100" />
        </pattern>
        <pattern pos="168960" muted="0" steps="16" name="" type="1">
          <note key="60" pos="48" pan="0" len="24" vol="100" />
          <note key="60" pos="240" pan="0" len="24" vol="100" />
          <note key="60" pos="432" pan="0" len="24" vol="100" />
          <note key="60" pos="624" pan="0" len="24" vol="100" />
          <note key="60" pos="816" pan="0" len="24" vol="100" />
          <note key="60" pos="1008" pan="0" len="24" vol="100" />
          <note key="60" pos="1200" pan="0" len="24" vol="100" />
          <note key="60" pos="1392" pan="0" len="24" vol="100" />
        </pattern>
        <pattern pos="170496" muted="0" steps="16" name="" type="1">
          <note key="60" pos="48" pan="0" len="24" vol="100" />
          <note key="60" pos="240" pan="0" len="24" vol="100" />
          <note key="60" pos="432" pan="0" len="24" vol="100" />
          <note key="60" pos="624" pan="0" len="24" vol="100" />
          <note key="60" pos="816" pan="0" len="24" vol="100" />
          <note key="60" pos="1008" pan="0" len="24" vol="100" />
          <note key="60" pos="1200" pan="0" len="24" vol="100" />
          <note key="60" pos="1392" pan="0" len="24" vol="100" />
        </pattern>
        <pattern pos="172032" muted="0" steps="16" name="" type="1">
          <note key="60" pos="48" pan="0" len="24" vol="100" />
          <note key="60" pos="240" pan="0" len="24" vol="100" />
          <note key="60" pos="432" pan="0" len="24" vol="100" />
          <note key="60" pos="624" pan="0" len="24" vol="100" />
          <note key="60" pos="816" pan="0" len="24" vol="100" />
          <note key="60" pos="1008" pan="0" len="24" vol="100" />
          <note key="60" pos="1200" pan="0" len="24" vol="100" />
          <note key="60" pos="1392" pan="0" len="24" vol="100" />
        </pattern>
        <pattern pos="173568" muted="0" steps="16" name="" type="1">
          <note key="60" pos="48" pan="0" len="24" vol="100" />
          <note key="60" pos="240" pan="0" len="24" vol="100" />
          <note key="60" pos="432" pan="0" len="24" vol="100" />
          <note key="60" pos="624" pan="0" len="24" vol="100" />
          <note key="60" pos="816" pan="0" len="24" vol="100" />
          <note key="60" pos="1008" pan="0" len="24" vol="100" />
          <note key="60" pos="1200" pan="0" len="24" vol="100" />
          <note key="60" pos="1392" pan="0" len="24" vol="100" />
        </pattern>
      </track>
      <track solo="0" name="46 (Ch8)" type="0" muted="0">
        <instrumenttrack usemasterpitch="1" pitch="0.0" basenote="57" pan="0" pitchrange="12" vol="30">
          <eldata />
          <instrument name="tripleoscillator" />
        </instrumenttrack>
        <pattern pos="256896" muted="0" steps="16" name="" type="1">
          <note key="60" pos="1392" pan="0" len="24" vol="33" />
        </pattern>
        <pattern pos="241536" muted="0" steps="16" name="" type="1">
          <note key="60" pos="264" pan="0" len="24" vol="33" />
          <note key="60" pos="648" pan="0" len="24" vol="33" />
          <note key="60" pos="1032" pan="0" len="24" vol="33" />
          <note key="60" pos="1416" pan="0" len="24" vol="33" />
        </pattern>
        <pattern pos="243072" muted="0" steps="16" name="" type="1">
          <note key="60" pos="264" pan="0" len="24" vol="33" />
          <note key="60" pos="648" pan="0" len="24" vol="33" />
          <note key="60" pos="1032" pan="0" len="24" vol="33" />
          <note key="60" pos="1392" pan="0" len="24" vol="33" />
        </pattern>
      </track>
      <track solo="0" name="46 (Ch12)" type="0" muted="0">
        <instrumenttrack usemasterpitch="1" pitch="0.0" basenote="57" pan="0" pitchrange="12" vol="30">
          <eldata />
          <instrument name="tripleoscillator" />
        </instrumenttrack>
        <pattern pos="229056" muted="0" steps="16" name="" type="1">
          <note key="60" pos="360" pan="0" len="312" vol="100" />
          <note key="60" pos="744" pan="0" len="312" vol="100" />
          <note key="60" pos="1128" pan="0" len="312" vol="100" />
          <note key="60" pos="1512" pan="0" len="24" vol="100" />
        </pattern>
        <pattern pos="53760" muted="0" steps="16" name="" type="1">
          <note key="48" pos="816" pan="0" len="24" vol="34" />
        </pattern>
        <pattern pos="221376" muted="0" steps="16" name="" type="1">
          <note key="60" pos="360" pan="0" len="312" vol="100" />
          <note key="60" pos="744" pan="0" len="312" vol="100" />
          <note key="60" pos="1128" pan="0" len="312" vol="100" />
          <note key="60" pos="1512" pan="0" len="24" vol="100" />
        </pattern>
        <pattern pos="222912" muted="0" steps="16" name="" type="1">
          <note key="60" pos="360" pan="0" len="312" vol="100" />
          <note key="60" pos="744" pan="0" len="312" vol="100" />
          <note key="60" pos="1128" pan="0" len="312" vol="100" />
          <note key="60" pos="1512" pan="0" len="24" vol="100" />
        </pattern>
        <pattern pos="227520" muted="0" steps="16" name="" type="1">
          <note key="60" pos="360" pan="0" len="312" vol="100" />
          <note key="60" pos="744" pan="0" len="312" vol="100" />
          <note key="60" pos="1128" pan="0" len="312" vol="100" />
          <note key="60" pos="1512" pan="0" len="24" vol="100" />
        </pattern>
      </track>
      <track solo="0" name="47 (Ch3)" type="0" muted="0">
        <instrumenttrack usemasterpitch="1" pitch="0.0" basenote="57" pan="0" pitchrange="12" vol="30">
          <eldata />
          <instrument name="tripleoscillator" />
        </instrumenttrack>
        <pattern pos="133632" muted="0" steps="16" name="" type="1">
          <note key="48" pos="336" pan="0" len="24" vol="34" />
          <note key="48" pos="720" pan="0" len="24" vol="34" />
          <note key="51" pos="1104" pan="0" len="24" vol="34" />
        </pattern>
        <pattern pos="6912" muted="0" steps="16" name="" type="1">
          <note key="48" pos="0" pan="0" len="12" vol="100" />
          <note key="48" pos="192" pan="0" len="12" vol="100" />
          <note key="48" pos="384" pan="0" len="12" vol="100" />
          <note key="48" pos="576" pan="0" len="12" vol="100" />
        </pattern>
        <pattern pos="7680" muted="0" steps="16" name="" type="1">
          <note key="48" pos="0" pan="0" len="12" vol="100" />
          <note key="48" pos="192" pan="0" len="12" vol="100" />
          <note key="48" pos="384" pan="0" len="12" vol="100" />
          <note key="48" pos="576" pan="0" len="12" vol="100" />
        </pattern>
        <pattern pos="8448" muted="0" steps="16" name="" type="1">
          <note key="48" pos="0" pan="0" len="12" vol="100" />
          <note key="48" pos="192" pan="0" len="12" vol="100" />
          <note key="43" pos="384" pan="0" len="12" vol="100" />
          <note key="43" pos="576" pan="0" len="12" vol="100" />
        </pattern>
        <pattern pos="9216" muted="0" steps="16" name="" type="1">
          <note key="48" pos="0" pan="0" len="12" vol="100" />
          <note key="48" pos="192" pan="0" len="12" vol="100" />
          <note key="43" pos="384" pan="0" len="12" vol="100" />
          <note key="43" pos="576" pan="0" len="12" vol="100" />
        </pattern>
        <pattern pos="9984" muted="0" steps="16" name="" type="1">
          <note key="46" pos="0" pan="0" len="12" vol="100" />
          <note key="46" pos="192" pan="0" len="12" vol="100" />
          <note key="48" pos="384" pan="0" len="12" vol="100" />
          <note key="48" pos="576" pan="0" len="12" vol="100" />
        </pattern>
        <pattern pos="10752" muted="0" steps="16" name="" type="1">
          <note key="46" pos="0" pan="0" len="12" vol="100" />
          <note key="46" pos="192" pan="0" len="12" vol="100" />
          <note key="48" pos="384" pan="0" len="12" vol="100" />
          <note key="48" pos="576" pan="0" len="12" vol="100" />
        </pattern>
        <pattern pos="11520" muted="0" steps="16" name="" type="1">
          <note key="48" pos="0" pan="0" len="12" vol="100" />
          <note key="48" pos="192" pan="0" len="12" vol="100" />
          <note key="43" pos="384" pan="0" len="12" vol="100" />
          <note key="43" pos="576" pan="0" len="12" vol="100" />
          <note key="48" pos="768" pan="0" len="12" vol="100" />
          <note key="48" pos="960" pan="0" len="12" vol="100" />
          <note key="43" pos="1152" pan="0" len="12" vol="100" />
          <note key="43" pos="1344" pan="0" len="12" vol="100" />
        </pattern>
        <pattern pos="13056" muted="0" steps="16" name="" type="1">
          <note key="46" pos="0" pan="0" len="12" vol="100" />
          <note key="46" pos="192" pan="0" len="12" vol="100" />
          <note key="48" pos="384" pan="0" len="12" vol="100" />
          <note key="48" pos="576" pan="0" len="12" vol="100" />
          <note key="46" pos="768" pan="0" len="12" vol="100" />
          <note key="46" pos="960" pan="0" len="12" vol="100" />
          <note key="48" pos="1152" pan="0" len="12" vol="100" />
          <note key="48" pos="1344" pan="0" len="12" vol="100" />
        </pattern>
        <pattern pos="14592" muted="0" steps="16" name="" type="1">
          <note key="48" pos="0" pan="0" len="12" vol="100" />
          <note key="48" pos="192" pan="0" len="12" vol="100" />
          <note key="43" pos="384" pan="0" len="12" vol="100" />
          <note key="43" pos="576" pan="0" len="12" vol="100" />
          <note key="48" pos="768" pan="0" len="12" vol="100" />
          <note key="48" pos="960" pan="0" len="12" vol="100" />
          <note key="43" pos="1152" pan="0" len="12" vol="100" />
          <note key="43" pos="1344" pan="0" len="12" vol="100" />
        </pattern>
        <pattern pos="16128" muted="0" steps="16" name="" type="1">
          <note key="46" pos="0" pan="0" len="12" vol="100" />
          <note key="46" pos="192" pan="0" len="12" vol="100" />
          <note key="48" pos="384" pan="0" len="12" vol="100" />
          <note key="48" pos="576" pan="0" len="12" vol="100" />
          <note key="46" pos="768" pan="0" len="12" vol="100" />
          <note key="46" pos="960" pan="0" len="12" vol="100" />
          <note key="48" pos="1152" pan="0" len="12" vol="100" />
          <note key="48" pos="1344" pan="0" len="12" vol="100" />
        </pattern>
        <pattern pos="93696" muted="0" steps="16" name="" type="1">
          <note key="48" pos="336" pan="0" len="24" vol="34" />
          <note key="48" pos="720" pan="0" len="24" vol="34" />
          <note key="48" pos="1104" pan="0" len="24" vol="34" />
        </pattern>
        <pattern pos="95232" muted="0" steps="16" name="" type="1">
          <note key="48" pos="336" pan="0" len="24" vol="34" />
          <note key="48" pos="720" pan="0" len="24" vol="34" />
          <note key="48" pos="1104" pan="0" len="24" vol="34" />
          <note key="48" pos="1488" pan="0" len="24" vol="34" />
        </pattern>
        <pattern pos="96768" muted="0" steps="16" name="" type="1">
          <note key="48" pos="336" pan="0" len="24" vol="34" />
          <note key="48" pos="720" pan="0" len="24" vol="34" />
          <note key="48" pos="1104" pan="0" len="24" vol="34" />
          <note key="48" pos="1488" pan="0" len="24" vol="34" />
        </pattern>
        <pattern pos="98304" muted="0" steps="16" name="" type="1">
          <note key="48" pos="336" pan="0" len="24" vol="34" />
          <note key="48" pos="720" pan="0" len="24" vol="34" />
          <note key="48" pos="1104" pan="0" len="24" vol="34" />
          <note key="48" pos="1488" pan="0" len="24" vol="34" />
        </pattern>
        <pattern pos="99840" muted="0" steps="16" name="" type="1">
          <note key="48" pos="336" pan="0" len="24" vol="34" />
          <note key="48" pos="720" pan="0" len="24" vol="34" />
          <note key="48" pos="1104" pan="0" len="24" vol="34" />
          <note key="48" pos="1488" pan="0" len="24" vol="34" />
        </pattern>
        <pattern pos="101376" muted="0" steps="16" name="" type="1">
          <note key="48" pos="336" pan="0" len="24" vol="34" />
          <note key="48" pos="720" pan="0" len="24" vol="34" />
          <note key="48" pos="1104" pan="0" len="24" vol="34" />
          <note key="48" pos="1488" pan="0" len="24" vol="34" />
        </pattern>
        <pattern pos="102912" muted="0" steps="16" name="" type="1">
          <note key="48" pos="336" pan="0" len="24" vol="34" />
          <note key="48" pos="720" pan="0" len="24" vol="34" />
          <note key="48" pos="1104" pan="0" len="24" vol="34" />
          <note key="48" pos="1488" pan="0" len="24" vol="34" />
        </pattern>
        <pattern pos="105984" muted="0" steps="16" name="" type="1">
          <note key="50" pos="336" pan="0" len="24" vol="0" />
          <note key="50" pos="720" pan="0" len="24" vol="3" />
          <note key="50" pos="1104" pan="0" len="24" vol="14" />
          <note key="50" pos="1488" pan="0" len="24" vol="33" />
        </pattern>
        <pattern pos="107520" muted="0" steps="16" name="" type="1">
          <note key="53" pos="336" pan="0" len="24" vol="34" />
          <note key="53" pos="720" pan="0" len="24" vol="34" />
          <note key="53" pos="1104" pan="0" len="24" vol="34" />
          <note key="53" pos="1488" pan="0" len="24" vol="34" />
        </pattern>
        <pattern pos="109056" muted="0" steps="16" name="" type="1">
          <note key="53" pos="336" pan="0" len="24" vol="34" />
          <note key="53" pos="720" pan="0" len="24" vol="34" />
          <note key="53" pos="1104" pan="0" len="24" vol="34" />
          <note key="53" pos="1488" pan="0" len="24" vol="34" />
        </pattern>
        <pattern pos="110592" muted="0" steps="16" name="" type="1">
          <note key="56" pos="336" pan="0" len="24" vol="34" />
          <note key="56" pos="720" pan="0" len="24" vol="34" />
          <note key="56" pos="1104" pan="0" len="24" vol="34" />
          <note key="56" pos="1488" pan="0" len="24" vol="34" />
        </pattern>
        <pattern pos="112128" muted="0" steps="16" name="" type="1">
          <note key="56" pos="336" pan="0" len="24" vol="34" />
          <note key="56" pos="720" pan="0" len="24" vol="34" />
          <note key="56" pos="1104" pan="0" len="24" vol="34" />
          <note key="56" pos="1488" pan="0" len="24" vol="34" />
        </pattern>
        <pattern pos="122880" muted="0" steps="16" name="" type="1">
          <note key="48" pos="336" pan="0" len="24" vol="34" />
          <note key="48" pos="720" pan="0" len="24" vol="34" />
          <note key="48" pos="1104" pan="0" len="24" vol="34" />
          <note key="48" pos="1488" pan="0" len="24" vol="34" />
        </pattern>
        <pattern pos="124416" muted="0" steps="16" name="" type="1">
          <note key="48" pos="336" pan="0" len="24" vol="34" />
          <note key="48" pos="720" pan="0" len="24" vol="34" />
          <note key="48" pos="1104" pan="0" len="24" vol="34" />
          <note key="48" pos="1488" pan="0" len="24" vol="34" />
        </pattern>
        <pattern pos="125952" muted="0" steps="16" name="" type="1">
          <note key="48" pos="336" pan="0" len="24" vol="34" />
          <note key="48" pos="720" pan="0" len="24" vol="34" />
          <note key="48" pos="1104" pan="0" len="24" vol="34" />
          <note key="48" pos="1488" pan="0" len="24" vol="34" />
        </pattern>
        <pattern pos="127488" muted="0" steps="16" name="" type="1">
          <note key="48" pos="336" pan="0" len="24" vol="34" />
          <note key="48" pos="720" pan="0" len="24" vol="34" />
          <note key="48" pos="1104" pan="0" len="24" vol="34" />
          <note key="48" pos="1488" pan="0" len="24" vol="34" />
        </pattern>
        <pattern pos="129024" muted="0" steps="16" name="" type="1">
          <note key="48" pos="336" pan="0" len="24" vol="34" />
          <note key="48" pos="720" pan="0" len="24" vol="34" />
          <note key="51" pos="1104" pan="0" len="24" vol="34" />
          <note key="46" pos="1488" pan="0" len="24" vol="34" />
        </pattern>
        <pattern pos="130560" muted="0" steps="16" name="" type="1">
          <note key="48" pos="336" pan="0" len="24" vol="34" />
          <note key="48" pos="720" pan="0" len="24" vol="34" />
          <note key="51" pos="1104" pan="0" len="24" vol="34" />
          <note key="46" pos="1488" pan="0" len="24" vol="34" />
        </pattern>
        <pattern pos="132096" muted="0" steps="16" name="" type="1">
          <note key="48" pos="336" pan="0" len="24" vol="34" />
          <note key="48" pos="720" pan="0" len="24" vol="34" />
          <note key="51" pos="1104" pan="0" len="24" vol="34" />
          <note key="46" pos="1488" pan="0" len="24" vol="34" />
        </pattern>
      </track>
      <track solo="0" name="47 (Ch6)" type="0" muted="0">
        <instrumenttrack usemasterpitch="1" pitch="0.0" basenote="57" pan="0" pitchrange="12" vol="30">
          <eldata />
          <instrument name="tripleoscillator" />
        </instrumenttrack>
        <pattern pos="215040" muted="0" steps="16" name="" type="1">
          <note key="66" pos="48" pan="0" len="24" vol="52" />
          <note key="66" pos="816" pan="0" len="24" vol="52" />
        </pattern>
        <pattern pos="198144" muted="0" steps="16" name="" type="1">
          <note key="64" pos="24" pan="0" len="12" vol="52" />
          <note key="64" pos="408" pan="0" len="12" vol="52" />
          <note key="64" pos="792" pan="0" len="12" vol="52" />
          <note key="64" pos="1176" pan="0" len="12" vol="52" />
        </pattern>
        <pattern pos="199680" muted="0" steps="16" name="" type="1">
          <note key="64" pos="24" pan="0" len="12" vol="52" />
          <note key="64" pos="408" pan="0" len="12" vol="52" />
          <note key="64" pos="792" pan="0" len="12" vol="52" />
          <note key="64" pos="1176" pan="0" len="12" vol="52" />
        </pattern>
        <pattern pos="201216" muted="0" steps="16" name="" type="1">
          <note key="64" pos="48" pan="0" len="24" vol="52" />
          <note key="64" pos="816" pan="0" len="24" vol="52" />
        </pattern>
        <pattern pos="202752" muted="0" steps="16" name="" type="1">
          <note key="64" pos="48" pan="0" len="24" vol="52" />
          <note key="64" pos="816" pan="0" len="24" vol="52" />
        </pattern>
        <pattern pos="204288" muted="0" steps="16" name="" type="1">
          <note key="57" pos="48" pan="0" len="24" vol="52" />
          <note key="64" pos="816" pan="0" len="24" vol="52" />
        </pattern>
        <pattern pos="205824" muted="0" steps="16" name="" type="1">
          <note key="57" pos="48" pan="0" len="24" vol="52" />
          <note key="64" pos="816" pan="0" len="24" vol="52" />
        </pattern>
        <pattern pos="207360" muted="0" steps="16" name="" type="1">
          <note key="64" pos="48" pan="0" len="24" vol="52" />
          <note key="64" pos="816" pan="0" len="24" vol="52" />
        </pattern>
        <pattern pos="208896" muted="0" steps="16" name="" type="1">
          <note key="64" pos="48" pan="0" len="24" vol="52" />
          <note key="64" pos="816" pan="0" len="24" vol="52" />
        </pattern>
        <pattern pos="210432" muted="0" steps="16" name="" type="1">
          <note key="57" pos="48" pan="0" len="24" vol="52" />
          <note key="64" pos="816" pan="0" len="24" vol="52" />
        </pattern>
        <pattern pos="211968" muted="0" steps="16" name="" type="1">
          <note key="57" pos="48" pan="0" len="24" vol="52" />
          <note key="64" pos="816" pan="0" len="24" vol="52" />
        </pattern>
        <pattern pos="213504" muted="0" steps="16" name="" type="1">
          <note key="66" pos="24" pan="0" len="12" vol="52" />
          <note key="66" pos="408" pan="0" len="12" vol="52" />
          <note key="66" pos="792" pan="0" len="12" vol="52" />
          <note key="66" pos="1176" pan="0" len="12" vol="52" />
        </pattern>
      </track>
      <track solo="0" name="47 (Ch8)" type="0" muted="0">
        <instrumenttrack usemasterpitch="1" pitch="0.0" basenote="57" pan="0" pitchrange="12" vol="30">
          <eldata />
          <instrument name="tripleoscillator" />
        </instrumenttrack>
        <pattern pos="196608" muted="0" steps="16" name="" type="1">
          <note key="64" pos="792" pan="0" len="12" vol="3" />
          <note key="64" pos="1176" pan="0" len="12" vol="28" />
        </pattern>
      </track>
      <track solo="0" name="47 (Ch11)" type="0" muted="0">
        <instrumenttrack usemasterpitch="1" pitch="0.0" basenote="57" pan="0" pitchrange="12" vol="30">
          <eldata />
          <instrument name="tripleoscillator" />
        </instrumenttrack>
        <pattern pos="88320" muted="0" steps="16" name="" type="1">
          <note key="48" pos="0" pan="0" len="12" vol="100" />
          <note key="48" pos="12" pan="0" len="12" vol="100" />
          <note key="50" pos="84" pan="0" len="12" vol="100" />
          <note key="51" pos="96" pan="0" len="24" vol="100" />
          <note key="62" pos="180" pan="0" len="12" vol="100" />
          <note key="48" pos="192" pan="0" len="12" vol="100" />
          <note key="48" pos="204" pan="0" len="12" vol="100" />
          <note key="50" pos="276" pan="0" len="12" vol="100" />
          <note key="51" pos="288" pan="0" len="24" vol="100" />
          <note key="62" pos="372" pan="0" len="12" vol="100" />
          <note key="48" pos="384" pan="0" len="12" vol="100" />
          <note key="48" pos="396" pan="0" len="12" vol="100" />
          <note key="50" pos="468" pan="0" len="12" vol="100" />
          <note key="51" pos="480" pan="0" len="24" vol="100" />
          <note key="62" pos="564" pan="0" len="12" vol="100" />
          <note key="48" pos="576" pan="0" len="12" vol="100" />
          <note key="48" pos="588" pan="0" len="12" vol="100" />
          <note key="50" pos="660" pan="0" len="12" vol="100" />
          <note key="51" pos="672" pan="0" len="24" vol="100" />
          <note key="62" pos="756" pan="0" len="12" vol="100" />
        </pattern>
        <pattern pos="82944" muted="0" steps="16" name="" type="1">
          <note key="48" pos="0" pan="0" len="12" vol="100" />
          <note key="48" pos="12" pan="0" len="12" vol="100" />
          <note key="50" pos="84" pan="0" len="12" vol="100" />
          <note key="51" pos="96" pan="0" len="24" vol="100" />
          <note key="62" pos="180" pan="0" len="12" vol="100" />
          <note key="48" pos="192" pan="0" len="12" vol="100" />
          <note key="48" pos="204" pan="0" len="12" vol="100" />
          <note key="50" pos="276" pan="0" len="12" vol="100" />
          <note key="51" pos="288" pan="0" len="24" vol="100" />
          <note key="62" pos="372" pan="0" len="12" vol="100" />
          <note key="48" pos="384" pan="0" len="12" vol="100" />
          <note key="48" pos="396" pan="0" len="12" vol="100" />
          <note key="50" pos="468" pan="0" len="12" vol="100" />
          <note key="51" pos="480" pan="0" len="24" vol="100" />
          <note key="62" pos="564" pan="0" len="12" vol="100" />
          <note key="48" pos="576" pan="0" len="12" vol="100" />
          <note key="48" pos="588" pan="0" len="12" vol="100" />
          <note key="50" pos="660" pan="0" len="12" vol="100" />
          <note key="51" pos="672" pan="0" len="24" vol="100" />
          <note key="62" pos="756" pan="0" len="12" vol="100" />
        </pattern>
        <pattern pos="83712" muted="0" steps="16" name="" type="1">
          <note key="48" pos="0" pan="0" len="12" vol="100" />
          <note key="48" pos="12" pan="0" len="12" vol="100" />
          <note key="50" pos="84" pan="0" len="12" vol="100" />
          <note key="51" pos="96" pan="0" len="24" vol="100" />
          <note key="62" pos="180" pan="0" len="12" vol="100" />
          <note key="48" pos="192" pan="0" len="12" vol="100" />
          <note key="48" pos="204" pan="0" len="12" vol="100" />
          <note key="50" pos="276" pan="0" len="12" vol="100" />
          <note key="51" pos="288" pan="0" len="24" vol="100" />
          <note key="62" pos="372" pan="0" len="12" vol="100" />
          <note key="48" pos="384" pan="0" len="12" vol="100" />
          <note key="48" pos="396" pan="0" len="12" vol="100" />
          <note key="50" pos="468" pan="0" len="12" vol="100" />
          <note key="51" pos="480" pan="0" len="24" vol="100" />
          <note key="62" pos="564" pan="0" len="12" vol="100" />
          <note key="48" pos="576" pan="0" len="12" vol="100" />
          <note key="48" pos="588" pan="0" len="12" vol="100" />
          <note key="50" pos="660" pan="0" len="12" vol="100" />
          <note key="51" pos="672" pan="0" len="24" vol="100" />
          <note key="62" pos="756" pan="0" len="12" vol="100" />
        </pattern>
        <pattern pos="84480" muted="0" steps="16" name="" type="1">
          <note key="48" pos="0" pan="0" len="12" vol="100" />
          <note key="48" pos="12" pan="0" len="12" vol="100" />
          <note key="50" pos="84" pan="0" len="12" vol="100" />
          <note key="51" pos="96" pan="0" len="24" vol="100" />
          <note key="62" pos="180" pan="0" len="12" vol="100" />
          <note key="48" pos="192" pan="0" len="12" vol="100" />
          <note key="48" pos="204" pan="0" len="12" vol="100" />
          <note key="50" pos="276" pan="0" len="12" vol="100" />
          <note key="51" pos="288" pan="0" len="24" vol="100" />
          <note key="62" pos="372" pan="0" len="12" vol="100" />
          <note key="48" pos="384" pan="0" len="12" vol="100" />
          <note key="48" pos="396" pan="0" len="12" vol="100" />
          <note key="50" pos="468" pan="0" len="12" vol="100" />
          <note key="51" pos="480" pan="0" len="24" vol="100" />
          <note key="62" pos="564" pan="0" len="12" vol="100" />
          <note key="48" pos="576" pan="0" len="12" vol="100" />
          <note key="48" pos="588" pan="0" len="12" vol="100" />
          <note key="50" pos="660" pan="0" len="12" vol="100" />
          <note key="51" pos="672" pan="0" len="24" vol="100" />
          <note key="62" pos="756" pan="0" len="12" vol="100" />
        </pattern>
        <pattern pos="85248" muted="0" steps="16" name="" type="1">
          <note key="48" pos="0" pan="0" len="12" vol="100" />
          <note key="48" pos="12" pan="0" len="12" vol="100" />
          <note key="50" pos="84" pan="0" len="12" vol="100" />
          <note key="51" pos="96" pan="0" len="24" vol="100" />
          <note key="62" pos="180" pan="0" len="12" vol="100" />
          <note key="48" pos="192" pan="0" len="12" vol="100" />
          <note key="48" pos="204" pan="0" len="12" vol="100" />
          <note key="50" pos="276" pan="0" len="12" vol="100" />
          <note key="51" pos="288" pan="0" len="24" vol="100" />
          <note key="62" pos="372" pan="0" len="12" vol="100" />
          <note key="48" pos="384" pan="0" len="12" vol="100" />
          <note key="48" pos="396" pan="0" len="12" vol="100" />
          <note key="50" pos="468" pan="0" len="12" vol="100" />
          <note key="51" pos="480" pan="0" len="24" vol="100" />
          <note key="62" pos="564" pan="0" len="12" vol="100" />
          <note key="48" pos="576" pan="0" len="12" vol="100" />
          <note key="48" pos="588" pan="0" len="12" vol="100" />
          <note key="50" pos="660" pan="0" len="12" vol="100" />
          <note key="51" pos="672" pan="0" len="24" vol="100" />
          <note key="62" pos="756" pan="0" len="12" vol="100" />
        </pattern>
        <pattern pos="86784" muted="0" steps="16" name="" type="1">
          <note key="48" pos="0" pan="0" len="12" vol="100" />
          <note key="48" pos="12" pan="0" len="12" vol="100" />
          <note key="50" pos="84" pan="0" len="12" vol="100" />
          <note key="51" pos="96" pan="0" len="24" vol="100" />
          <note key="62" pos="180" pan="0" len="12" vol="100" />
          <note key="48" pos="192" pan="0" len="12" vol="100" />
          <note key="48" pos="204" pan="0" len="12" vol="100" />
          <note key="50" pos="276" pan="0" len="12" vol="100" />
          <note key="51" pos="288" pan="0" len="24" vol="100" />
          <note key="62" pos="372" pan="0" len="12" vol="100" />
          <note key="48" pos="384" pan="0" len="12" vol="100" />
          <note key="48" pos="396" pan="0" len="12" vol="100" />
          <note key="50" pos="468" pan="0" len="12" vol="100" />
          <note key="51" pos="480" pan="0" len="24" vol="100" />
          <note key="62" pos="564" pan="0" len="12" vol="100" />
          <note key="48" pos="576" pan="0" len="12" vol="100" />
          <note key="48" pos="588" pan="0" len="12" vol="100" />
          <note key="50" pos="660" pan="0" len="12" vol="100" />
          <note key="51" pos="672" pan="0" len="24" vol="100" />
          <note key="62" pos="756" pan="0" len="12" vol="100" />
        </pattern>
      </track>
      <track solo="0" name="48 (Ch11)" type="0" muted="0">
        <instrumenttrack usemasterpitch="1" pitch="0.0" basenote="57" pan="0" pitchrange="12" vol="30">
          <eldata />
          <instrument name="tripleoscillator" />
        </instrumenttrack>
        <pattern pos="88320" muted="0" steps="16" name="" type="1">
          <note key="60" pos="24" pan="0" len="24" vol="100" />
          <note key="63" pos="48" pan="0" len="12" vol="100" />
          <note key="60" pos="60" pan="0" len="24" vol="100" />
          <note key="60" pos="144" pan="0" len="12" vol="100" />
          <note key="58" pos="156" pan="0" len="24" vol="100" />
          <note key="60" pos="216" pan="0" len="24" vol="100" />
          <note key="63" pos="240" pan="0" len="12" vol="100" />
          <note key="60" pos="252" pan="0" len="24" vol="100" />
          <note key="60" pos="336" pan="0" len="12" vol="100" />
          <note key="58" pos="348" pan="0" len="24" vol="100" />
          <note key="60" pos="408" pan="0" len="24" vol="100" />
          <note key="63" pos="432" pan="0" len="12" vol="100" />
          <note key="60" pos="444" pan="0" len="24" vol="100" />
          <note key="60" pos="528" pan="0" len="12" vol="100" />
          <note key="58" pos="540" pan="0" len="24" vol="100" />
          <note key="60" pos="600" pan="0" len="24" vol="100" />
          <note key="63" pos="624" pan="0" len="12" vol="100" />
          <note key="60" pos="636" pan="0" len="24" vol="100" />
          <note key="60" pos="720" pan="0" len="12" vol="100" />
          <note key="58" pos="732" pan="0" len="24" vol="100" />
        </pattern>
        <pattern pos="82944" muted="0" steps="16" name="" type="1">
          <note key="60" pos="24" pan="0" len="24" vol="100" />
          <note key="63" pos="48" pan="0" len="12" vol="100" />
          <note key="60" pos="60" pan="0" len="24" vol="100" />
          <note key="60" pos="144" pan="0" len="12" vol="100" />
          <note key="58" pos="156" pan="0" len="24" vol="100" />
          <note key="60" pos="216" pan="0" len="24" vol="100" />
          <note key="63" pos="240" pan="0" len="12" vol="100" />
          <note key="60" pos="252" pan="0" len="24" vol="100" />
          <note key="60" pos="336" pan="0" len="12" vol="100" />
          <note key="58" pos="348" pan="0" len="24" vol="100" />
          <note key="60" pos="408" pan="0" len="24" vol="100" />
          <note key="63" pos="432" pan="0" len="12" vol="100" />
          <note key="60" pos="444" pan="0" len="24" vol="100" />
          <note key="60" pos="528" pan="0" len="12" vol="100" />
          <note key="58" pos="540" pan="0" len="24" vol="100" />
          <note key="60" pos="600" pan="0" len="24" vol="100" />
          <note key="63" pos="624" pan="0" len="12" vol="100" />
          <note key="60" pos="636" pan="0" len="24" vol="100" />
          <note key="60" pos="720" pan="0" len="12" vol="100" />
          <note key="58" pos="732" pan="0" len="24" vol="100" />
        </pattern>
        <pattern pos="83712" muted="0" steps="16" name="" type="1">
          <note key="60" pos="24" pan="0" len="24" vol="100" />
          <note key="63" pos="48" pan="0" len="12" vol="100" />
          <note key="60" pos="60" pan="0" len="24" vol="100" />
          <note key="60" pos="144" pan="0" len="12" vol="100" />
          <note key="58" pos="156" pan="0" len="24" vol="100" />
          <note key="60" pos="216" pan="0" len="24" vol="100" />
          <note key="63" pos="240" pan="0" len="12" vol="100" />
          <note key="60" pos="252" pan="0" len="24" vol="100" />
          <note key="60" pos="336" pan="0" len="12" vol="100" />
          <note key="58" pos="348" pan="0" len="24" vol="100" />
          <note key="60" pos="408" pan="0" len="24" vol="100" />
          <note key="63" pos="432" pan="0" len="12" vol="100" />
          <note key="60" pos="444" pan="0" len="24" vol="100" />
          <note key="60" pos="528" pan="0" len="12" vol="100" />
          <note key="58" pos="540" pan="0" len="24" vol="100" />
          <note key="60" pos="600" pan="0" len="24" vol="100" />
          <note key="63" pos="624" pan="0" len="12" vol="100" />
          <note key="60" pos="636" pan="0" len="24" vol="100" />
          <note key="60" pos="720" pan="0" len="12" vol="100" />
          <note key="58" pos="732" pan="0" len="24" vol="100" />
        </pattern>
        <pattern pos="84480" muted="0" steps="16" name="" type="1">
          <note key="60" pos="24" pan="0" len="24" vol="100" />
          <note key="63" pos="48" pan="0" len="12" vol="100" />
          <note key="60" pos="60" pan="0" len="24" vol="100" />
          <note key="60" pos="144" pan="0" len="12" vol="100" />
          <note key="58" pos="156" pan="0" len="24" vol="100" />
          <note key="60" pos="216" pan="0" len="24" vol="100" />
          <note key="63" pos="240" pan="0" len="12" vol="100" />
          <note key="60" pos="252" pan="0" len="24" vol="100" />
          <note key="60" pos="336" pan="0" len="12" vol="100" />
          <note key="58" pos="348" pan="0" len="24" vol="100" />
          <note key="60" pos="408" pan="0" len="24" vol="100" />
          <note key="63" pos="432" pan="0" len="12" vol="100" />
          <note key="60" pos="444" pan="0" len="24" vol="100" />
          <note key="60" pos="528" pan="0" len="12" vol="100" />
          <note key="58" pos="540" pan="0" len="24" vol="100" />
          <note key="60" pos="600" pan="0" len="24" vol="100" />
          <note key="63" pos="624" pan="0" len="12" vol="100" />
          <note key="60" pos="636" pan="0" len="24" vol="100" />
          <note key="60" pos="720" pan="0" len="12" vol="100" />
          <note key="58" pos="732" pan="0" len="24" vol="100" />
        </pattern>
        <pattern pos="85248" muted="0" steps="16" name="" type="1">
          <note key="60" pos="24" pan="0" len="24" vol="100" />
          <note key="63" pos="48" pan="0" len="12" vol="100" />
          <note key="60" pos="60" pan="0" len="24" vol="100" />
          <note key="60" pos="144" pan="0" len="12" vol="100" />
          <note key="58" pos="156" pan="0" len="24" vol="100" />
          <note key="60" pos="216" pan="0" len="24" vol="100" />
          <note key="63" pos="240" pan="0" len="12" vol="100" />
          <note key="60" pos="252" pan="0" len="24" vol="100" />
          <note key="60" pos="336" pan="0" len="12" vol="100" />
          <note key="58" pos="348" pan="0" len="24" vol="100" />
          <note key="60" pos="408" pan="0" len="24" vol="100" />
          <note key="63" pos="432" pan="0" len="12" vol="100" />
          <note key="60" pos="444" pan="0" len="24" vol="100" />
          <note key="60" pos="528" pan="0" len="12" vol="100" />
          <note key="58" pos="540" pan="0" len="24" vol="100" />
          <note key="60" pos="600" pan="0" len="24" vol="100" />
          <note key="63" pos="624" pan="0" len="12" vol="100" />
          <note key="60" pos="636" pan="0" len="24" vol="100" />
          <note key="60" pos="720" pan="0" len="12" vol="100" />
          <note key="58" pos="732" pan="0" len="24" vol="100" />
        </pattern>
        <pattern pos="86784" muted="0" steps="16" name="" type="1">
          <note key="60" pos="24" pan="0" len="24" vol="100" />
          <note key="63" pos="48" pan="0" len="12" vol="100" />
          <note key="60" pos="60" pan="0" len="24" vol="100" />
          <note key="60" pos="144" pan="0" len="12" vol="100" />
          <note key="58" pos="156" pan="0" len="24" vol="100" />
          <note key="60" pos="216" pan="0" len="24" vol="100" />
          <note key="63" pos="240" pan="0" len="12" vol="100" />
          <note key="60" pos="252" pan="0" len="24" vol="100" />
          <note key="60" pos="336" pan="0" len="12" vol="100" />
          <note key="58" pos="348" pan="0" len="24" vol="100" />
          <note key="60" pos="408" pan="0" len="24" vol="100" />
          <note key="63" pos="432" pan="0" len="12" vol="100" />
          <note key="60" pos="444" pan="0" len="24" vol="100" />
          <note key="60" pos="528" pan="0" len="12" vol="100" />
          <note key="58" pos="540" pan="0" len="24" vol="100" />
          <note key="60" pos="600" pan="0" len="24" vol="100" />
          <note key="63" pos="624" pan="0" len="12" vol="100" />
          <note key="60" pos="636" pan="0" len="24" vol="100" />
          <note key="60" pos="720" pan="0" len="12" vol="100" />
          <note key="58" pos="732" pan="0" len="24" vol="100" />
        </pattern>
      </track>
      <track solo="0" name="48 (Ch12)" type="0" muted="0">
        <instrumenttrack usemasterpitch="1" pitch="0.0" basenote="57" pan="0" pitchrange="12" vol="30">
          <eldata />
          <instrument name="tripleoscillator" />
        </instrumenttrack>
        <pattern pos="53760" muted="0" steps="16" name="" type="1">
          <note key="36" pos="840" pan="0" len="168" vol="52" />
        </pattern>
      </track>
      <track solo="0" name="49 (Ch8)" type="0" muted="0">
        <instrumenttrack usemasterpitch="1" pitch="0.0" basenote="57" pan="0" pitchrange="12" vol="30">
          <eldata />
          <instrument name="tripleoscillator" />
        </instrumenttrack>
        <pattern pos="256896" muted="0" steps="16" name="" type="1">
          <note key="60" pos="1200" pan="0" len="24" vol="100" />
        </pattern>
        <pattern pos="241536" muted="0" steps="16" name="" type="1">
          <note key="60" pos="48" pan="0" len="24" vol="100" />
          <note key="60" pos="432" pan="0" len="24" vol="100" />
          <note key="60" pos="816" pan="0" len="24" vol="100" />
          <note key="60" pos="1200" pan="0" len="24" vol="100" />
        </pattern>
        <pattern pos="243072" muted="0" steps="16" name="" type="1">
          <note key="60" pos="48" pan="0" len="24" vol="100" />
          <note key="60" pos="432" pan="0" len="24" vol="100" />
          <note key="60" pos="816" pan="0" len="24" vol="100" />
          <note key="60" pos="1200" pan="0" len="24" vol="100" />
        </pattern>
      </track>
      <track solo="0" name="49 (Ch11)" type="0" muted="0">
        <instrumenttrack usemasterpitch="1" pitch="0.0" basenote="57" pan="0" pitchrange="12" vol="30">
          <eldata />
          <instrument name="tripleoscillator" />
        </instrumenttrack>
        <pattern pos="88320" muted="0" steps="16" name="" type="1">
          <note key="57" pos="120" pan="0" len="24" vol="100" />
          <note key="57" pos="312" pan="0" len="24" vol="100" />
          <note key="57" pos="504" pan="0" len="24" vol="100" />
          <note key="57" pos="696" pan="0" len="24" vol="100" />
        </pattern>
        <pattern pos="82944" muted="0" steps="16" name="" type="1">
          <note key="57" pos="120" pan="0" len="24" vol="100" />
          <note key="57" pos="312" pan="0" len="24" vol="100" />
          <note key="57" pos="504" pan="0" len="24" vol="100" />
          <note key="57" pos="696" pan="0" len="24" vol="100" />
        </pattern>
        <pattern pos="83712" muted="0" steps="16" name="" type="1">
          <note key="57" pos="120" pan="0" len="24" vol="100" />
          <note key="57" pos="312" pan="0" len="24" vol="100" />
          <note key="57" pos="504" pan="0" len="24" vol="100" />
          <note key="57" pos="696" pan="0" len="24" vol="100" />
        </pattern>
        <pattern pos="84480" muted="0" steps="16" name="" type="1">
          <note key="57" pos="120" pan="0" len="24" vol="100" />
          <note key="57" pos="312" pan="0" len="24" vol="100" />
          <note key="57" pos="504" pan="0" len="24" vol="100" />
          <note key="57" pos="696" pan="0" len="24" vol="100" />
        </pattern>
        <pattern pos="85248" muted="0" steps="16" name="" type="1">
          <note key="57" pos="120" pan="0" len="24" vol="100" />
          <note key="57" pos="312" pan="0" len="24" vol="100" />
          <note key="57" pos="504" pan="0" len="24" vol="100" />
          <note key="57" pos="696" pan="0" len="24" vol="100" />
        </pattern>
        <pattern pos="86784" muted="0" steps="16" name="" type="1">
          <note key="57" pos="120" pan="0" len="24" vol="100" />
          <note key="57" pos="312" pan="0" len="24" vol="100" />
          <note key="57" pos="504" pan="0" len="24" vol="100" />
          <note key="57" pos="696" pan="0" len="24" vol="100" />
        </pattern>
      </track>
      <track solo="0" name="49 (Ch12)" type="0" muted="0">
        <instrumenttrack usemasterpitch="1" pitch="0.0" basenote="57" pan="0" pitchrange="12" vol="30">
          <eldata />
          <instrument name="tripleoscillator" />
        </instrumenttrack>
        <pattern pos="55296" muted="0" steps="16" name="" type="1">
          <note key="12" pos="0" pan="0" len="1536" vol="100" />
        </pattern>
      </track>
      <track solo="0" name="50 (Ch7)" type="0" muted="0">
        <instrumenttrack usemasterpitch="1" pitch="0.0" basenote="57" pan="0" pitchrange="12" vol="30">
          <eldata />
          <instrument name="tripleoscillator" />
        </instrumenttrack>
        <pattern pos="130560" muted="0" steps="16" name="" type="1">
          <note key="60" pos="0" pan="0" len="48" vol="100" />
          <note key="67" pos="48" pan="0" len="24" vol="100" />
          <note key="60" pos="72" pan="0" len="48" vol="100" />
          <note key="67" pos="120" pan="0" len="24" vol="100" />
          <note key="60" pos="144" pan="0" len="72" vol="100" />
          <note key="67" pos="216" pan="0" len="24" vol="100" />
          <note key="60" pos="240" pan="0" len="48" vol="100" />
          <note key="58" pos="288" pan="0" len="48" vol="100" />
          <note key="60" pos="336" pan="0" len="24" vol="100" />
          <note key="67" pos="360" pan="0" len="24" vol="100" />
          <note key="60" pos="384" pan="0" len="48" vol="100" />
          <note key="67" pos="432" pan="0" len="24" vol="100" />
          <note key="60" pos="456" pan="0" len="48" vol="100" />
          <note key="67" pos="504" pan="0" len="24" vol="100" />
          <note key="60" pos="528" pan="0" len="72" vol="100" />
          <note key="67" pos="600" pan="0" len="24" vol="100" />
          <note key="60" pos="624" pan="0" len="48" vol="100" />
          <note key="58" pos="672" pan="0" len="48" vol="100" />
          <note key="60" pos="720" pan="0" len="24" vol="100" />
          <note key="67" pos="744" pan="0" len="24" vol="100" />
          <note key="60" pos="768" pan="0" len="48" vol="100" />
          <note key="67" pos="816" pan="0" len="24" vol="100" />
          <note key="60" pos="840" pan="0" len="48" vol="100" />
          <note key="67" pos="888" pan="0" len="24" vol="100" />
          <note key="60" pos="912" pan="0" len="72" vol="100" />
          <note key="67" pos="984" pan="0" len="24" vol="100" />
          <note key="60" pos="1008" pan="0" len="48" vol="100" />
          <note key="58" pos="1056" pan="0" len="48" vol="100" />
          <note key="60" pos="1104" pan="0" len="24" vol="100" />
          <note key="67" pos="1128" pan="0" len="24" vol="100" />
          <note key="60" pos="1152" pan="0" len="48" vol="100" />
          <note key="67" pos="1200" pan="0" len="24" vol="100" />
          <note key="60" pos="1224" pan="0" len="48" vol="100" />
          <note key="67" pos="1272" pan="0" len="24" vol="100" />
          <note key="60" pos="1296" pan="0" len="72" vol="100" />
          <note key="67" pos="1368" pan="0" len="24" vol="100" />
          <note key="60" pos="1392" pan="0" len="48" vol="100" />
          <note key="58" pos="1440" pan="0" len="48" vol="100" />
          <note key="60" pos="1488" pan="0" len="24" vol="100" />
          <note key="67" pos="1512" pan="0" len="24" vol="100" />
        </pattern>
        <pattern pos="125952" muted="0" steps="16" name="" type="1">
          <note key="60" pos="0" pan="0" len="48" vol="2" />
          <note key="67" pos="48" pan="0" len="24" vol="5" />
          <note key="60" pos="72" pan="0" len="48" vol="6" />
          <note key="67" pos="120" pan="0" len="24" vol="9" />
          <note key="60" pos="144" pan="0" len="72" vol="11" />
          <note key="67" pos="216" pan="0" len="24" vol="16" />
          <note key="60" pos="240" pan="0" len="48" vol="17" />
          <note key="58" pos="288" pan="0" len="48" vol="20" />
          <note key="60" pos="336" pan="0" len="24" vol="23" />
          <note key="67" pos="360" pan="0" len="24" vol="25" />
          <note key="60" pos="384" pan="0" len="48" vol="27" />
          <note key="67" pos="432" pan="0" len="24" vol="30" />
          <note key="60" pos="456" pan="0" len="48" vol="31" />
          <note key="67" pos="504" pan="0" len="24" vol="34" />
          <note key="60" pos="528" pan="0" len="72" vol="36" />
          <note key="67" pos="600" pan="0" len="24" vol="41" />
          <note key="60" pos="624" pan="0" len="48" vol="42" />
          <note key="58" pos="672" pan="0" len="48" vol="45" />
          <note key="60" pos="720" pan="0" len="24" vol="48" />
          <note key="67" pos="744" pan="0" len="24" vol="50" />
          <note key="60" pos="768" pan="0" len="48" vol="34" />
          <note key="67" pos="816" pan="0" len="24" vol="55" />
          <note key="60" pos="840" pan="0" len="48" vol="56" />
          <note key="67" pos="888" pan="0" len="24" vol="59" />
          <note key="60" pos="912" pan="0" len="72" vol="61" />
          <note key="67" pos="984" pan="0" len="24" vol="66" />
          <note key="60" pos="1008" pan="0" len="48" vol="67" />
          <note key="58" pos="1056" pan="0" len="48" vol="70" />
          <note key="60" pos="1104" pan="0" len="24" vol="73" />
          <note key="67" pos="1128" pan="0" len="24" vol="75" />
          <note key="60" pos="1152" pan="0" len="48" vol="77" />
          <note key="67" pos="1200" pan="0" len="24" vol="80" />
          <note key="60" pos="1224" pan="0" len="48" vol="81" />
          <note key="67" pos="1272" pan="0" len="24" vol="84" />
          <note key="60" pos="1296" pan="0" len="72" vol="86" />
          <note key="67" pos="1368" pan="0" len="24" vol="91" />
          <note key="60" pos="1392" pan="0" len="48" vol="92" />
          <note key="58" pos="1440" pan="0" len="48" vol="95" />
          <note key="60" pos="1488" pan="0" len="24" vol="98" />
          <note key="67" pos="1512" pan="0" len="24" vol="100" />
        </pattern>
        <pattern pos="127488" muted="0" steps="16" name="" type="1">
          <note key="60" pos="0" pan="0" len="48" vol="100" />
          <note key="67" pos="48" pan="0" len="24" vol="100" />
          <note key="60" pos="72" pan="0" len="48" vol="100" />
          <note key="67" pos="120" pan="0" len="24" vol="100" />
          <note key="60" pos="144" pan="0" len="72" vol="100" />
          <note key="67" pos="216" pan="0" len="24" vol="100" />
          <note key="60" pos="240" pan="0" len="48" vol="100" />
          <note key="58" pos="288" pan="0" len="48" vol="100" />
          <note key="60" pos="336" pan="0" len="24" vol="100" />
          <note key="67" pos="360" pan="0" len="24" vol="100" />
          <note key="60" pos="384" pan="0" len="48" vol="100" />
          <note key="67" pos="432" pan="0" len="24" vol="100" />
          <note key="60" pos="456" pan="0" len="48" vol="100" />
          <note key="67" pos="504" pan="0" len="24" vol="100" />
          <note key="60" pos="528" pan="0" len="72" vol="100" />
          <note key="67" pos="600" pan="0" len="24" vol="100" />
          <note key="60" pos="624" pan="0" len="48" vol="100" />
          <note key="58" pos="672" pan="0" len="48" vol="100" />
          <note key="60" pos="720" pan="0" len="24" vol="100" />
          <note key="67" pos="744" pan="0" len="24" vol="100" />
          <note key="60" pos="768" pan="0" len="48" vol="100" />
          <note key="67" pos="816" pan="0" len="24" vol="100" />
          <note key="60" pos="840" pan="0" len="48" vol="100" />
          <note key="67" pos="888" pan="0" len="24" vol="100" />
          <note key="60" pos="912" pan="0" len="72" vol="100" />
          <note key="67" pos="984" pan="0" len="24" vol="100" />
          <note key="60" pos="1008" pan="0" len="48" vol="100" />
          <note key="58" pos="1056" pan="0" len="48" vol="100" />
          <note key="60" pos="1104" pan="0" len="24" vol="100" />
          <note key="67" pos="1128" pan="0" len="24" vol="100" />
          <note key="60" pos="1152" pan="0" len="48" vol="100" />
          <note key="67" pos="1200" pan="0" len="24" vol="100" />
          <note key="60" pos="1224" pan="0" len="48" vol="100" />
          <note key="67" pos="1272" pan="0" len="24" vol="100" />
          <note key="60" pos="1296" pan="0" len="72" vol="100" />
          <note key="67" pos="1368" pan="0" len="24" vol="100" />
          <note key="60" pos="1392" pan="0" len="48" vol="100" />
          <note key="58" pos="1440" pan="0" len="48" vol="100" />
          <note key="60" pos="1488" pan="0" len="24" vol="100" />
          <note key="67" pos="1512" pan="0" len="24" vol="100" />
        </pattern>
        <pattern pos="129024" muted="0" steps="16" name="" type="1">
          <note key="60" pos="0" pan="0" len="48" vol="100" />
          <note key="67" pos="48" pan="0" len="24" vol="100" />
          <note key="60" pos="72" pan="0" len="48" vol="100" />
          <note key="67" pos="120" pan="0" len="24" vol="100" />
          <note key="60" pos="144" pan="0" len="72" vol="100" />
          <note key="67" pos="216" pan="0" len="24" vol="100" />
          <note key="60" pos="240" pan="0" len="48" vol="100" />
          <note key="58" pos="288" pan="0" len="48" vol="100" />
          <note key="60" pos="336" pan="0" len="24" vol="100" />
          <note key="67" pos="360" pan="0" len="24" vol="100" />
          <note key="60" pos="384" pan="0" len="48" vol="100" />
          <note key="67" pos="432" pan="0" len="24" vol="100" />
          <note key="60" pos="456" pan="0" len="48" vol="100" />
          <note key="67" pos="504" pan="0" len="24" vol="100" />
          <note key="60" pos="528" pan="0" len="72" vol="100" />
          <note key="67" pos="600" pan="0" len="24" vol="100" />
          <note key="60" pos="624" pan="0" len="48" vol="100" />
          <note key="58" pos="672" pan="0" len="48" vol="100" />
          <note key="60" pos="720" pan="0" len="24" vol="100" />
          <note key="67" pos="744" pan="0" len="24" vol="100" />
          <note key="60" pos="768" pan="0" len="48" vol="100" />
          <note key="67" pos="816" pan="0" len="24" vol="100" />
          <note key="60" pos="840" pan="0" len="48" vol="100" />
          <note key="67" pos="888" pan="0" len="24" vol="100" />
          <note key="60" pos="912" pan="0" len="72" vol="100" />
          <note key="67" pos="984" pan="0" len="24" vol="100" />
          <note key="60" pos="1008" pan="0" len="48" vol="100" />
          <note key="58" pos="1056" pan="0" len="48" vol="100" />
          <note key="60" pos="1104" pan="0" len="24" vol="100" />
          <note key="67" pos="1128" pan="0" len="24" vol="100" />
          <note key="60" pos="1152" pan="0" len="48" vol="100" />
          <note key="67" pos="1200" pan="0" len="24" vol="100" />
          <note key="60" pos="1224" pan="0" len="48" vol="100" />
          <note key="67" pos="1272" pan="0" len="24" vol="100" />
          <note key="60" pos="1296" pan="0" len="72" vol="100" />
          <note key="67" pos="1368" pan="0" len="24" vol="100" />
          <note key="60" pos="1392" pan="0" len="48" vol="100" />
          <note key="58" pos="1440" pan="0" len="48" vol="100" />
          <note key="60" pos="1488" pan="0" len="24" vol="100" />
          <note key="67" pos="1512" pan="0" len="24" vol="100" />
        </pattern>
      </track>
      <track solo="0" name="50 (Ch8)" type="0" muted="0">
        <instrumenttrack usemasterpitch="1" pitch="0.0" basenote="57" pan="0" pitchrange="12" vol="30">
          <eldata />
          <instrument name="tripleoscillator" />
        </instrumenttrack>
        <pattern pos="130560" muted="0" steps="16" name="" type="1">
          <note key="60" pos="72" pan="0" len="48" vol="59" />
          <note key="67" pos="120" pan="0" len="24" vol="59" />
          <note key="60" pos="144" pan="0" len="48" vol="59" />
          <note key="67" pos="192" pan="0" len="24" vol="59" />
          <note key="60" pos="216" pan="0" len="72" vol="59" />
          <note key="67" pos="288" pan="0" len="24" vol="59" />
          <note key="60" pos="312" pan="0" len="48" vol="59" />
          <note key="58" pos="360" pan="0" len="48" vol="59" />
          <note key="60" pos="408" pan="0" len="24" vol="59" />
          <note key="67" pos="432" pan="0" len="24" vol="59" />
          <note key="60" pos="456" pan="0" len="48" vol="59" />
          <note key="67" pos="504" pan="0" len="24" vol="59" />
          <note key="60" pos="528" pan="0" len="48" vol="59" />
          <note key="67" pos="576" pan="0" len="24" vol="59" />
          <note key="60" pos="600" pan="0" len="72" vol="59" />
          <note key="67" pos="672" pan="0" len="24" vol="59" />
          <note key="60" pos="696" pan="0" len="48" vol="59" />
          <note key="58" pos="744" pan="0" len="48" vol="59" />
          <note key="60" pos="792" pan="0" len="24" vol="59" />
          <note key="67" pos="816" pan="0" len="24" vol="59" />
          <note key="60" pos="840" pan="0" len="48" vol="59" />
          <note key="67" pos="888" pan="0" len="24" vol="59" />
          <note key="60" pos="912" pan="0" len="48" vol="59" />
          <note key="67" pos="960" pan="0" len="24" vol="59" />
          <note key="60" pos="984" pan="0" len="72" vol="59" />
          <note key="67" pos="1056" pan="0" len="24" vol="59" />
          <note key="60" pos="1080" pan="0" len="48" vol="59" />
          <note key="58" pos="1128" pan="0" len="48" vol="59" />
          <note key="60" pos="1176" pan="0" len="24" vol="59" />
          <note key="67" pos="1200" pan="0" len="24" vol="59" />
          <note key="60" pos="1224" pan="0" len="48" vol="59" />
          <note key="67" pos="1272" pan="0" len="24" vol="59" />
          <note key="60" pos="1296" pan="0" len="48" vol="59" />
          <note key="67" pos="1344" pan="0" len="24" vol="59" />
          <note key="60" pos="1368" pan="0" len="72" vol="59" />
          <note key="67" pos="1440" pan="0" len="24" vol="59" />
          <note key="60" pos="1464" pan="0" len="48" vol="59" />
          <note key="58" pos="1512" pan="0" len="24" vol="59" />
        </pattern>
        <pattern pos="125952" muted="0" steps="16" name="" type="1">
          <note key="60" pos="72" pan="0" len="48" vol="3" />
          <note key="67" pos="120" pan="0" len="24" vol="5" />
          <note key="60" pos="144" pan="0" len="48" vol="6" />
          <note key="67" pos="192" pan="0" len="24" vol="8" />
          <note key="60" pos="216" pan="0" len="72" vol="9" />
          <note key="67" pos="288" pan="0" len="24" vol="11" />
          <note key="60" pos="312" pan="0" len="48" vol="12" />
          <note key="58" pos="360" pan="0" len="48" vol="14" />
          <note key="60" pos="408" pan="0" len="24" vol="16" />
          <note key="67" pos="432" pan="0" len="24" vol="17" />
          <note key="60" pos="456" pan="0" len="48" vol="19" />
          <note key="67" pos="504" pan="0" len="24" vol="20" />
          <note key="60" pos="528" pan="0" len="48" vol="20" />
          <note key="67" pos="576" pan="0" len="24" vol="23" />
          <note key="60" pos="600" pan="0" len="72" vol="23" />
          <note key="67" pos="672" pan="0" len="24" vol="27" />
          <note key="60" pos="696" pan="0" len="48" vol="28" />
          <note key="58" pos="744" pan="0" len="24" vol="30" />
          <note key="60" pos="840" pan="0" len="48" vol="33" />
          <note key="67" pos="888" pan="0" len="24" vol="34" />
          <note key="60" pos="912" pan="0" len="48" vol="36" />
          <note key="67" pos="960" pan="0" len="24" vol="38" />
          <note key="60" pos="984" pan="0" len="72" vol="39" />
          <note key="67" pos="1056" pan="0" len="24" vol="41" />
          <note key="60" pos="1080" pan="0" len="48" vol="42" />
          <note key="58" pos="1128" pan="0" len="48" vol="44" />
          <note key="60" pos="1176" pan="0" len="24" vol="45" />
          <note key="67" pos="1200" pan="0" len="24" vol="47" />
          <note key="60" pos="1224" pan="0" len="48" vol="48" />
          <note key="67" pos="1272" pan="0" len="24" vol="50" />
          <note key="60" pos="1296" pan="0" len="48" vol="50" />
          <note key="67" pos="1344" pan="0" len="24" vol="53" />
          <note key="60" pos="1368" pan="0" len="72" vol="53" />
          <note key="67" pos="1440" pan="0" len="24" vol="56" />
          <note key="60" pos="1464" pan="0" len="48" vol="58" />
          <note key="58" pos="1512" pan="0" len="24" vol="59" />
        </pattern>
        <pattern pos="127488" muted="0" steps="16" name="" type="1">
          <note key="60" pos="72" pan="0" len="48" vol="100" />
          <note key="67" pos="120" pan="0" len="24" vol="100" />
          <note key="60" pos="144" pan="0" len="48" vol="100" />
          <note key="67" pos="192" pan="0" len="24" vol="100" />
          <note key="60" pos="216" pan="0" len="72" vol="100" />
          <note key="67" pos="288" pan="0" len="24" vol="100" />
          <note key="60" pos="312" pan="0" len="48" vol="100" />
          <note key="58" pos="360" pan="0" len="48" vol="100" />
          <note key="60" pos="408" pan="0" len="24" vol="100" />
          <note key="67" pos="432" pan="0" len="24" vol="100" />
          <note key="60" pos="456" pan="0" len="48" vol="100" />
          <note key="67" pos="504" pan="0" len="24" vol="100" />
          <note key="60" pos="528" pan="0" len="48" vol="100" />
          <note key="67" pos="576" pan="0" len="24" vol="100" />
          <note key="60" pos="600" pan="0" len="72" vol="100" />
          <note key="67" pos="672" pan="0" len="24" vol="100" />
          <note key="60" pos="696" pan="0" len="48" vol="100" />
          <note key="58" pos="744" pan="0" len="24" vol="100" />
          <note key="60" pos="840" pan="0" len="48" vol="100" />
          <note key="67" pos="888" pan="0" len="24" vol="100" />
          <note key="60" pos="912" pan="0" len="48" vol="100" />
          <note key="67" pos="960" pan="0" len="24" vol="100" />
          <note key="60" pos="984" pan="0" len="72" vol="100" />
          <note key="67" pos="1056" pan="0" len="24" vol="100" />
          <note key="60" pos="1080" pan="0" len="48" vol="100" />
          <note key="58" pos="1128" pan="0" len="48" vol="100" />
          <note key="60" pos="1176" pan="0" len="24" vol="100" />
          <note key="67" pos="1200" pan="0" len="24" vol="100" />
          <note key="60" pos="1224" pan="0" len="48" vol="100" />
          <note key="67" pos="1272" pan="0" len="24" vol="100" />
          <note key="60" pos="1296" pan="0" len="48" vol="100" />
          <note key="67" pos="1344" pan="0" len="24" vol="100" />
          <note key="60" pos="1368" pan="0" len="72" vol="100" />
          <note key="67" pos="1440" pan="0" len="24" vol="100" />
          <note key="60" pos="1464" pan="0" len="48" vol="100" />
          <note key="58" pos="1512" pan="0" len="24" vol="100" />
        </pattern>
        <pattern pos="129024" muted="0" steps="16" name="" type="1">
          <note key="60" pos="72" pan="0" len="48" vol="59" />
          <note key="67" pos="120" pan="0" len="24" vol="59" />
          <note key="60" pos="144" pan="0" len="48" vol="59" />
          <note key="67" pos="192" pan="0" len="24" vol="59" />
          <note key="60" pos="216" pan="0" len="72" vol="59" />
          <note key="67" pos="288" pan="0" len="24" vol="59" />
          <note key="60" pos="312" pan="0" len="48" vol="59" />
          <note key="58" pos="360" pan="0" len="48" vol="59" />
          <note key="60" pos="408" pan="0" len="24" vol="59" />
          <note key="67" pos="432" pan="0" len="24" vol="59" />
          <note key="60" pos="456" pan="0" len="48" vol="59" />
          <note key="67" pos="504" pan="0" len="24" vol="59" />
          <note key="60" pos="528" pan="0" len="48" vol="59" />
          <note key="67" pos="576" pan="0" len="24" vol="59" />
          <note key="60" pos="600" pan="0" len="72" vol="59" />
          <note key="67" pos="672" pan="0" len="24" vol="59" />
          <note key="60" pos="696" pan="0" len="48" vol="59" />
          <note key="58" pos="744" pan="0" len="48" vol="59" />
          <note key="60" pos="792" pan="0" len="24" vol="59" />
          <note key="67" pos="816" pan="0" len="24" vol="59" />
          <note key="60" pos="840" pan="0" len="48" vol="59" />
          <note key="67" pos="888" pan="0" len="24" vol="59" />
          <note key="60" pos="912" pan="0" len="48" vol="59" />
          <note key="67" pos="960" pan="0" len="24" vol="59" />
          <note key="60" pos="984" pan="0" len="72" vol="59" />
          <note key="67" pos="1056" pan="0" len="24" vol="59" />
          <note key="60" pos="1080" pan="0" len="48" vol="59" />
          <note key="58" pos="1128" pan="0" len="48" vol="59" />
          <note key="60" pos="1176" pan="0" len="24" vol="59" />
          <note key="67" pos="1200" pan="0" len="24" vol="59" />
          <note key="60" pos="1224" pan="0" len="48" vol="59" />
          <note key="67" pos="1272" pan="0" len="24" vol="59" />
          <note key="60" pos="1296" pan="0" len="48" vol="59" />
          <note key="67" pos="1344" pan="0" len="24" vol="59" />
          <note key="60" pos="1368" pan="0" len="72" vol="59" />
          <note key="67" pos="1440" pan="0" len="24" vol="59" />
          <note key="60" pos="1464" pan="0" len="48" vol="59" />
          <note key="58" pos="1512" pan="0" len="24" vol="59" />
        </pattern>
      </track>
      <track solo="0" name="51 (Ch2)" type="0" muted="0">
        <instrumenttrack usemasterpitch="1" pitch="0.0" basenote="57" pan="0" pitchrange="12" vol="30">
          <eldata />
          <instrument name="tripleoscillator" />
        </instrumenttrack>
        <pattern pos="50304" muted="0" steps="16" name="" type="1">
          <note key="72" pos="0" pan="0" len="144" vol="100" />
          <note key="70" pos="144" pan="0" len="108" vol="100" />
          <note key="75" pos="252" pan="0" len="36" vol="100" />
          <note key="74" pos="288" pan="0" len="144" vol="100" />
          <note key="67" pos="432" pan="0" len="132" vol="100" />
          <note key="72" pos="576" pan="0" len="144" vol="100" />
          <note key="70" pos="720" pan="0" len="96" vol="100" />
          <note key="67" pos="816" pan="0" len="24" vol="100" />
          <note key="70" pos="840" pan="0" len="24" vol="100" />
          <note key="67" pos="864" pan="0" len="288" vol="100" />
        </pattern>
        <pattern pos="3072" muted="0" steps="16" name="" type="1">
          <note key="72" pos="0" pan="0" len="192" vol="34" />
          <note key="79" pos="192" pan="0" len="192" vol="34" />
          <note key="70" pos="384" pan="0" len="192" vol="34" />
        </pattern>
        <pattern pos="43392" muted="0" steps="16" name="" type="1">
          <note key="65" pos="1104" pan="0" len="24" vol="100" />
          <note key="67" pos="1128" pan="0" len="12" vol="100" />
        </pattern>
        <pattern pos="44544" muted="0" steps="16" name="" type="1">
          <note key="72" pos="0" pan="0" len="144" vol="100" />
          <note key="70" pos="144" pan="0" len="108" vol="100" />
          <note key="75" pos="252" pan="0" len="36" vol="100" />
          <note key="74" pos="288" pan="0" len="144" vol="100" />
          <note key="67" pos="432" pan="0" len="132" vol="100" />
          <note key="72" pos="576" pan="0" len="144" vol="100" />
          <note key="70" pos="720" pan="0" len="96" vol="100" />
          <note key="67" pos="816" pan="0" len="24" vol="100" />
          <note key="70" pos="840" pan="0" len="24" vol="100" />
          <note key="67" pos="864" pan="0" len="288" vol="100" />
        </pattern>
        <pattern pos="49152" muted="0" steps="16" name="" type="1">
          <note key="65" pos="1104" pan="0" len="24" vol="100" />
          <note key="67" pos="1128" pan="0" len="12" vol="100" />
        </pattern>
      </track>
      <track solo="0" name="51 (Ch4)" type="0" muted="0">
        <instrumenttrack usemasterpitch="1" pitch="0.0" basenote="57" pan="0" pitchrange="12" vol="30">
          <eldata />
          <instrument name="tripleoscillator" />
        </instrumenttrack>
        <pattern pos="35328" muted="0" steps="16" name="" type="1">
          <note key="51" pos="0" pan="0" len="12" vol="100" />
          <note key="63" pos="12" pan="0" len="276" vol="100" />
          <note key="58" pos="576" pan="0" len="12" vol="100" />
          <note key="51" pos="588" pan="0" len="228" vol="100" />
        </pattern>
      </track>
      <track solo="0" name="51 (Ch5)" type="0" muted="0">
        <instrumenttrack usemasterpitch="1" pitch="0.0" basenote="57" pan="0" pitchrange="12" vol="30">
          <eldata />
          <instrument name="tripleoscillator" />
        </instrumenttrack>
        <pattern pos="58368" muted="0" steps="16" name="" type="1">
          <note key="60" pos="1200" pan="0" len="24" vol="59" />
          <note key="70" pos="1224" pan="0" len="168" vol="59" />
          <note key="69" pos="1392" pan="0" len="48" vol="59" />
          <note key="60" pos="1440" pan="0" len="48" vol="59" />
        </pattern>
      </track>
      <track solo="0" name="51 (Ch6)" type="0" muted="0">
        <instrumenttrack usemasterpitch="1" pitch="0.0" basenote="57" pan="0" pitchrange="12" vol="30">
          <eldata />
          <instrument name="tripleoscillator" />
        </instrumenttrack>
        <pattern pos="256896" muted="0" steps="16" name="" type="1">
          <note key="84" pos="0" pan="0" len="12" vol="100" />
          <note key="86" pos="12" pan="0" len="12" vol="100" />
          <note key="87" pos="24" pan="0" len="12" vol="100" />
          <note key="92" pos="36" pan="0" len="12" vol="100" />
          <note key="87" pos="48" pan="0" len="12" vol="100" />
          <note key="86" pos="60" pan="0" len="12" vol="100" />
          <note key="84" pos="72" pan="0" len="12" vol="100" />
          <note key="80" pos="84" pan="0" len="12" vol="100" />
          <note key="84" pos="96" pan="0" len="12" vol="100" />
          <note key="86" pos="108" pan="0" len="12" vol="100" />
          <note key="87" pos="120" pan="0" len="12" vol="100" />
          <note key="92" pos="132" pan="0" len="12" vol="100" />
          <note key="87" pos="144" pan="0" len="12" vol="100" />
          <note key="86" pos="156" pan="0" len="12" vol="100" />
          <note key="84" pos="168" pan="0" len="12" vol="100" />
          <note key="80" pos="180" pan="0" len="12" vol="100" />
          <note key="84" pos="192" pan="0" len="12" vol="100" />
          <note key="86" pos="204" pan="0" len="12" vol="100" />
          <note key="87" pos="216" pan="0" len="12" vol="100" />
          <note key="92" pos="228" pan="0" len="12" vol="100" />
          <note key="87" pos="240" pan="0" len="12" vol="100" />
          <note key="86" pos="252" pan="0" len="12" vol="100" />
          <note key="84" pos="264" pan="0" len="12" vol="100" />
          <note key="80" pos="276" pan="0" len="12" vol="100" />
          <note key="84" pos="288" pan="0" len="12" vol="100" />
          <note key="86" pos="300" pan="0" len="12" vol="100" />
          <note key="87" pos="312" pan="0" len="12" vol="100" />
          <note key="92" pos="324" pan="0" len="12" vol="100" />
          <note key="87" pos="336" pan="0" len="12" vol="100" />
          <note key="86" pos="348" pan="0" len="12" vol="100" />
          <note key="84" pos="360" pan="0" len="12" vol="100" />
          <note key="80" pos="372" pan="0" len="12" vol="100" />
          <note key="84" pos="384" pan="0" len="12" vol="100" />
          <note key="86" pos="396" pan="0" len="12" vol="97" />
          <note key="87" pos="408" pan="0" len="12" vol="94" />
          <note key="92" pos="420" pan="0" len="12" vol="91" />
          <note key="87" pos="432" pan="0" len="12" vol="88" />
          <note key="86" pos="444" pan="0" len="12" vol="84" />
          <note key="84" pos="456" pan="0" len="12" vol="80" />
          <note key="80" pos="468" pan="0" len="12" vol="77" />
          <note key="84" pos="480" pan="0" len="12" vol="73" />
          <note key="86" pos="492" pan="0" len="12" vol="70" />
          <note key="87" pos="504" pan="0" len="12" vol="67" />
          <note key="92" pos="516" pan="0" len="12" vol="64" />
          <note key="87" pos="528" pan="0" len="12" vol="61" />
          <note key="86" pos="540" pan="0" len="12" vol="58" />
          <note key="84" pos="552" pan="0" len="12" vol="55" />
          <note key="80" pos="564" pan="0" len="12" vol="52" />
          <note key="84" pos="576" pan="0" len="12" vol="47" />
          <note key="86" pos="588" pan="0" len="12" vol="44" />
          <note key="87" pos="600" pan="0" len="12" vol="41" />
          <note key="92" pos="612" pan="0" len="12" vol="38" />
          <note key="87" pos="624" pan="0" len="12" vol="34" />
          <note key="86" pos="636" pan="0" len="12" vol="31" />
          <note key="84" pos="648" pan="0" len="12" vol="28" />
          <note key="80" pos="660" pan="0" len="12" vol="25" />
          <note key="84" pos="672" pan="0" len="12" vol="22" />
          <note key="86" pos="684" pan="0" len="12" vol="19" />
          <note key="87" pos="696" pan="0" len="12" vol="14" />
          <note key="92" pos="708" pan="0" len="12" vol="11" />
          <note key="87" pos="720" pan="0" len="12" vol="8" />
          <note key="86" pos="732" pan="0" len="12" vol="5" />
          <note key="84" pos="744" pan="0" len="12" vol="2" />
          <note key="84" pos="768" pan="0" len="12" vol="100" />
          <note key="86" pos="780" pan="0" len="12" vol="100" />
          <note key="87" pos="792" pan="0" len="12" vol="100" />
          <note key="91" pos="804" pan="0" len="12" vol="100" />
          <note key="87" pos="816" pan="0" len="12" vol="100" />
          <note key="86" pos="828" pan="0" len="12" vol="100" />
          <note key="84" pos="840" pan="0" len="12" vol="100" />
          <note key="79" pos="852" pan="0" len="12" vol="100" />
          <note key="84" pos="864" pan="0" len="12" vol="100" />
          <note key="86" pos="876" pan="0" len="12" vol="100" />
          <note key="87" pos="888" pan="0" len="12" vol="100" />
          <note key="91" pos="900" pan="0" len="12" vol="100" />
          <note key="87" pos="912" pan="0" len="12" vol="100" />
          <note key="86" pos="924" pan="0" len="12" vol="100" />
          <note key="84" pos="936" pan="0" len="12" vol="100" />
          <note key="79" pos="948" pan="0" len="12" vol="100" />
          <note key="84" pos="960" pan="0" len="12" vol="100" />
          <note key="86" pos="972" pan="0" len="12" vol="100" />
          <note key="87" pos="984" pan="0" len="12" vol="100" />
          <note key="91" pos="996" pan="0" len="12" vol="100" />
          <note key="87" pos="1008" pan="0" len="12" vol="100" />
          <note key="86" pos="1020" pan="0" len="12" vol="100" />
          <note key="84" pos="1032" pan="0" len="12" vol="100" />
          <note key="79" pos="1044" pan="0" len="12" vol="100" />
          <note key="84" pos="1056" pan="0" len="12" vol="100" />
          <note key="86" pos="1068" pan="0" len="12" vol="100" />
          <note key="87" pos="1080" pan="0" len="12" vol="100" />
          <note key="91" pos="1092" pan="0" len="12" vol="100" />
          <note key="87" pos="1104" pan="0" len="12" vol="100" />
          <note key="86" pos="1116" pan="0" len="12" vol="100" />
          <note key="84" pos="1128" pan="0" len="12" vol="100" />
          <note key="79" pos="1140" pan="0" len="12" vol="100" />
          <note key="84" pos="1152" pan="0" len="12" vol="100" />
          <note key="86" pos="1164" pan="0" len="12" vol="97" />
          <note key="87" pos="1176" pan="0" len="12" vol="94" />
          <note key="91" pos="1188" pan="0" len="12" vol="91" />
          <note key="87" pos="1200" pan="0" len="12" vol="88" />
          <note key="86" pos="1212" pan="0" len="12" vol="84" />
          <note key="84" pos="1224" pan="0" len="12" vol="80" />
          <note key="79" pos="1236" pan="0" len="12" vol="77" />
          <note key="84" pos="1248" pan="0" len="12" vol="73" />
          <note key="86" pos="1260" pan="0" len="12" vol="70" />
          <note key="87" pos="1272" pan="0" len="12" vol="67" />
          <note key="91" pos="1284" pan="0" len="12" vol="64" />
          <note key="87" pos="1296" pan="0" len="12" vol="61" />
          <note key="86" pos="1308" pan="0" len="12" vol="58" />
          <note key="84" pos="1320" pan="0" len="12" vol="55" />
          <note key="79" pos="1332" pan="0" len="12" vol="52" />
          <note key="84" pos="1344" pan="0" len="12" vol="47" />
          <note key="86" pos="1356" pan="0" len="12" vol="44" />
          <note key="87" pos="1368" pan="0" len="12" vol="41" />
          <note key="91" pos="1380" pan="0" len="12" vol="38" />
          <note key="87" pos="1392" pan="0" len="12" vol="34" />
          <note key="86" pos="1404" pan="0" len="12" vol="31" />
          <note key="84" pos="1416" pan="0" len="12" vol="28" />
          <note key="79" pos="1428" pan="0" len="12" vol="25" />
          <note key="84" pos="1440" pan="0" len="12" vol="22" />
          <note key="86" pos="1452" pan="0" len="12" vol="19" />
          <note key="87" pos="1464" pan="0" len="12" vol="14" />
          <note key="91" pos="1476" pan="0" len="12" vol="11" />
          <note key="87" pos="1488" pan="0" len="12" vol="8" />
          <note key="86" pos="1500" pan="0" len="12" vol="5" />
          <note key="84" pos="1512" pan="0" len="12" vol="2" />
        </pattern>
        <pattern pos="3072" muted="0" steps="16" name="" type="1">
          <note key="67" pos="192" pan="0" len="192" vol="100" />
          <note key="58" pos="384" pan="0" len="192" vol="100" />
        </pattern>
        <pattern pos="30720" muted="0" steps="16" name="" type="1">
          <note key="55" pos="96" pan="0" len="96" vol="100" />
          <note key="48" pos="192" pan="0" len="96" vol="100" />
          <note key="51" pos="576" pan="0" len="120" vol="100" />
          <note key="55" pos="696" pan="0" len="84" vol="100" />
          <note key="58" pos="864" pan="0" len="120" vol="100" />
          <note key="57" pos="984" pan="0" len="96" vol="100" />
        </pattern>
        <pattern pos="38784" muted="0" steps="16" name="" type="1">
          <note key="55" pos="96" pan="0" len="96" vol="100" />
          <note key="48" pos="192" pan="0" len="96" vol="100" />
          <note key="51" pos="576" pan="0" len="120" vol="100" />
          <note key="55" pos="696" pan="0" len="84" vol="100" />
          <note key="58" pos="864" pan="0" len="120" vol="100" />
          <note key="57" pos="984" pan="0" len="96" vol="100" />
        </pattern>
        <pattern pos="39936" muted="0" steps="16" name="" type="1">
          <note key="48" pos="0" pan="0" len="48" vol="100" />
          <note key="55" pos="96" pan="0" len="96" vol="100" />
          <note key="48" pos="192" pan="0" len="96" vol="100" />
        </pattern>
        <pattern pos="58368" muted="0" steps="16" name="" type="1">
          <note key="60" pos="1152" pan="0" len="24" vol="100" />
          <note key="70" pos="1176" pan="0" len="168" vol="100" />
          <note key="69" pos="1344" pan="0" len="48" vol="100" />
          <note key="60" pos="1392" pan="0" len="48" vol="100" />
        </pattern>
        <pattern pos="252288" muted="0" steps="16" name="" type="1">
          <note key="84" pos="0" pan="0" len="12" vol="100" />
          <note key="86" pos="12" pan="0" len="12" vol="100" />
          <note key="87" pos="24" pan="0" len="12" vol="100" />
          <note key="91" pos="36" pan="0" len="12" vol="100" />
          <note key="87" pos="48" pan="0" len="12" vol="100" />
          <note key="86" pos="60" pan="0" len="12" vol="100" />
          <note key="84" pos="72" pan="0" len="12" vol="100" />
          <note key="79" pos="84" pan="0" len="12" vol="100" />
          <note key="84" pos="96" pan="0" len="12" vol="100" />
          <note key="86" pos="108" pan="0" len="12" vol="100" />
          <note key="87" pos="120" pan="0" len="12" vol="100" />
          <note key="91" pos="132" pan="0" len="12" vol="100" />
          <note key="87" pos="144" pan="0" len="12" vol="100" />
          <note key="86" pos="156" pan="0" len="12" vol="100" />
          <note key="84" pos="168" pan="0" len="12" vol="100" />
          <note key="79" pos="180" pan="0" len="12" vol="100" />
          <note key="84" pos="192" pan="0" len="12" vol="100" />
          <note key="86" pos="204" pan="0" len="12" vol="100" />
          <note key="87" pos="216" pan="0" len="12" vol="100" />
          <note key="91" pos="228" pan="0" len="12" vol="100" />
          <note key="87" pos="240" pan="0" len="12" vol="100" />
          <note key="86" pos="252" pan="0" len="12" vol="100" />
          <note key="84" pos="264" pan="0" len="12" vol="100" />
          <note key="79" pos="276" pan="0" len="12" vol="100" />
          <note key="84" pos="288" pan="0" len="12" vol="100" />
          <note key="86" pos="300" pan="0" len="12" vol="100" />
          <note key="87" pos="312" pan="0" len="12" vol="100" />
          <note key="91" pos="324" pan="0" len="12" vol="100" />
          <note key="87" pos="336" pan="0" len="12" vol="100" />
          <note key="86" pos="348" pan="0" len="12" vol="100" />
          <note key="84" pos="360" pan="0" len="12" vol="100" />
          <note key="79" pos="372" pan="0" len="12" vol="100" />
          <note key="84" pos="384" pan="0" len="12" vol="100" />
          <note key="86" pos="396" pan="0" len="12" vol="97" />
          <note key="87" pos="408" pan="0" len="12" vol="94" />
          <note key="91" pos="420" pan="0" len="12" vol="91" />
          <note key="87" pos="432" pan="0" len="12" vol="88" />
          <note key="86" pos="444" pan="0" len="12" vol="84" />
          <note key="84" pos="456" pan="0" len="12" vol="80" />
          <note key="79" pos="468" pan="0" len="12" vol="77" />
          <note key="84" pos="480" pan="0" len="12" vol="73" />
          <note key="86" pos="492" pan="0" len="12" vol="70" />
          <note key="87" pos="504" pan="0" len="12" vol="67" />
          <note key="91" pos="516" pan="0" len="12" vol="64" />
          <note key="87" pos="528" pan="0" len="12" vol="61" />
          <note key="86" pos="540" pan="0" len="12" vol="58" />
          <note key="84" pos="552" pan="0" len="12" vol="55" />
          <note key="79" pos="564" pan="0" len="12" vol="52" />
          <note key="84" pos="576" pan="0" len="12" vol="47" />
          <note key="86" pos="588" pan="0" len="12" vol="44" />
          <note key="87" pos="600" pan="0" len="12" vol="41" />
          <note key="91" pos="612" pan="0" len="12" vol="38" />
          <note key="87" pos="624" pan="0" len="12" vol="34" />
          <note key="86" pos="636" pan="0" len="12" vol="31" />
          <note key="84" pos="648" pan="0" len="12" vol="28" />
          <note key="79" pos="660" pan="0" len="12" vol="25" />
          <note key="84" pos="672" pan="0" len="12" vol="22" />
          <note key="86" pos="684" pan="0" len="12" vol="19" />
          <note key="87" pos="696" pan="0" len="12" vol="14" />
          <note key="91" pos="708" pan="0" len="12" vol="11" />
          <note key="87" pos="720" pan="0" len="12" vol="8" />
          <note key="86" pos="732" pan="0" len="12" vol="5" />
          <note key="84" pos="744" pan="0" len="12" vol="2" />
          <note key="84" pos="768" pan="0" len="12" vol="100" />
          <note key="89" pos="780" pan="0" len="12" vol="100" />
          <note key="91" pos="792" pan="0" len="12" vol="100" />
          <note key="93" pos="804" pan="0" len="12" vol="100" />
          <note key="91" pos="816" pan="0" len="12" vol="100" />
          <note key="89" pos="828" pan="0" len="12" vol="100" />
          <note key="84" pos="840" pan="0" len="12" vol="100" />
          <note key="81" pos="852" pan="0" len="12" vol="100" />
          <note key="84" pos="864" pan="0" len="12" vol="100" />
          <note key="89" pos="876" pan="0" len="12" vol="100" />
          <note key="91" pos="888" pan="0" len="12" vol="100" />
          <note key="93" pos="900" pan="0" len="12" vol="100" />
          <note key="91" pos="912" pan="0" len="12" vol="100" />
          <note key="89" pos="924" pan="0" len="12" vol="100" />
          <note key="84" pos="936" pan="0" len="12" vol="100" />
          <note key="81" pos="948" pan="0" len="12" vol="100" />
          <note key="84" pos="960" pan="0" len="12" vol="100" />
          <note key="89" pos="972" pan="0" len="12" vol="100" />
          <note key="91" pos="984" pan="0" len="12" vol="100" />
          <note key="93" pos="996" pan="0" len="12" vol="100" />
          <note key="91" pos="1008" pan="0" len="12" vol="100" />
          <note key="89" pos="1020" pan="0" len="12" vol="100" />
          <note key="84" pos="1032" pan="0" len="12" vol="100" />
          <note key="81" pos="1044" pan="0" len="12" vol="100" />
          <note key="84" pos="1056" pan="0" len="12" vol="100" />
          <note key="89" pos="1068" pan="0" len="12" vol="100" />
          <note key="91" pos="1080" pan="0" len="12" vol="100" />
          <note key="93" pos="1092" pan="0" len="12" vol="100" />
          <note key="91" pos="1104" pan="0" len="12" vol="100" />
          <note key="89" pos="1116" pan="0" len="12" vol="100" />
          <note key="84" pos="1128" pan="0" len="12" vol="100" />
          <note key="81" pos="1140" pan="0" len="12" vol="100" />
          <note key="84" pos="1152" pan="0" len="12" vol="100" />
          <note key="89" pos="1164" pan="0" len="12" vol="97" />
          <note key="91" pos="1176" pan="0" len="12" vol="94" />
          <note key="93" pos="1188" pan="0" len="12" vol="91" />
          <note key="91" pos="1200" pan="0" len="12" vol="88" />
          <note key="89" pos="1212" pan="0" len="12" vol="84" />
          <note key="84" pos="1224" pan="0" len="12" vol="80" />
          <note key="81" pos="1236" pan="0" len="12" vol="77" />
          <note key="84" pos="1248" pan="0" len="12" vol="73" />
          <note key="89" pos="1260" pan="0" len="12" vol="70" />
          <note key="91" pos="1272" pan="0" len="12" vol="67" />
          <note key="93" pos="1284" pan="0" len="12" vol="64" />
          <note key="91" pos="1296" pan="0" len="12" vol="61" />
          <note key="89" pos="1308" pan="0" len="12" vol="58" />
          <note key="84" pos="1320" pan="0" len="12" vol="55" />
          <note key="81" pos="1332" pan="0" len="12" vol="52" />
          <note key="84" pos="1344" pan="0" len="12" vol="47" />
          <note key="89" pos="1356" pan="0" len="12" vol="44" />
          <note key="91" pos="1368" pan="0" len="12" vol="41" />
          <note key="93" pos="1380" pan="0" len="12" vol="38" />
          <note key="91" pos="1392" pan="0" len="12" vol="34" />
          <note key="89" pos="1404" pan="0" len="12" vol="31" />
          <note key="84" pos="1416" pan="0" len="12" vol="28" />
          <note key="81" pos="1428" pan="0" len="12" vol="25" />
          <note key="84" pos="1440" pan="0" len="12" vol="22" />
          <note key="89" pos="1452" pan="0" len="12" vol="19" />
          <note key="91" pos="1464" pan="0" len="12" vol="14" />
          <note key="93" pos="1476" pan="0" len="12" vol="11" />
          <note key="91" pos="1488" pan="0" len="12" vol="8" />
          <note key="89" pos="1500" pan="0" len="12" vol="5" />
          <note key="84" pos="1512" pan="0" len="12" vol="2" />
        </pattern>
        <pattern pos="253824" muted="0" steps="16" name="" type="1">
          <note key="84" pos="0" pan="0" len="12" vol="100" />
          <note key="86" pos="12" pan="0" len="12" vol="100" />
          <note key="87" pos="24" pan="0" len="12" vol="100" />
          <note key="92" pos="36" pan="0" len="12" vol="100" />
          <note key="87" pos="48" pan="0" len="12" vol="100" />
          <note key="86" pos="60" pan="0" len="12" vol="100" />
          <note key="84" pos="72" pan="0" len="12" vol="100" />
          <note key="80" pos="84" pan="0" len="12" vol="100" />
          <note key="84" pos="96" pan="0" len="12" vol="100" />
          <note key="86" pos="108" pan="0" len="12" vol="100" />
          <note key="87" pos="120" pan="0" len="12" vol="100" />
          <note key="92" pos="132" pan="0" len="12" vol="100" />
          <note key="87" pos="144" pan="0" len="12" vol="100" />
          <note key="86" pos="156" pan="0" len="12" vol="100" />
          <note key="84" pos="168" pan="0" len="12" vol="100" />
          <note key="80" pos="180" pan="0" len="12" vol="100" />
          <note key="84" pos="192" pan="0" len="12" vol="100" />
          <note key="86" pos="204" pan="0" len="12" vol="100" />
          <note key="87" pos="216" pan="0" len="12" vol="100" />
          <note key="92" pos="228" pan="0" len="12" vol="100" />
          <note key="87" pos="240" pan="0" len="12" vol="100" />
          <note key="86" pos="252" pan="0" len="12" vol="100" />
          <note key="84" pos="264" pan="0" len="12" vol="100" />
          <note key="80" pos="276" pan="0" len="12" vol="100" />
          <note key="84" pos="288" pan="0" len="12" vol="100" />
          <note key="86" pos="300" pan="0" len="12" vol="100" />
          <note key="87" pos="312" pan="0" len="12" vol="100" />
          <note key="92" pos="324" pan="0" len="12" vol="100" />
          <note key="87" pos="336" pan="0" len="12" vol="100" />
          <note key="86" pos="348" pan="0" len="12" vol="100" />
          <note key="84" pos="360" pan="0" len="12" vol="100" />
          <note key="80" pos="372" pan="0" len="12" vol="100" />
          <note key="84" pos="384" pan="0" len="12" vol="100" />
          <note key="86" pos="396" pan="0" len="12" vol="97" />
          <note key="87" pos="408" pan="0" len="12" vol="94" />
          <note key="92" pos="420" pan="0" len="12" vol="91" />
          <note key="87" pos="432" pan="0" len="12" vol="88" />
          <note key="86" pos="444" pan="0" len="12" vol="84" />
          <note key="84" pos="456" pan="0" len="12" vol="80" />
          <note key="80" pos="468" pan="0" len="12" vol="77" />
          <note key="84" pos="480" pan="0" len="12" vol="73" />
          <note key="86" pos="492" pan="0" len="12" vol="70" />
          <note key="87" pos="504" pan="0" len="12" vol="67" />
          <note key="92" pos="516" pan="0" len="12" vol="64" />
          <note key="87" pos="528" pan="0" len="12" vol="61" />
          <note key="86" pos="540" pan="0" len="12" vol="58" />
          <note key="84" pos="552" pan="0" len="12" vol="55" />
          <note key="80" pos="564" pan="0" len="12" vol="52" />
          <note key="84" pos="576" pan="0" len="12" vol="47" />
          <note key="86" pos="588" pan="0" len="12" vol="44" />
          <note key="87" pos="600" pan="0" len="12" vol="41" />
          <note key="92" pos="612" pan="0" len="12" vol="38" />
          <note key="87" pos="624" pan="0" len="12" vol="34" />
          <note key="86" pos="636" pan="0" len="12" vol="31" />
          <note key="84" pos="648" pan="0" len="12" vol="28" />
          <note key="80" pos="660" pan="0" len="12" vol="25" />
          <note key="84" pos="672" pan="0" len="12" vol="22" />
          <note key="86" pos="684" pan="0" len="12" vol="19" />
          <note key="87" pos="696" pan="0" len="12" vol="14" />
          <note key="92" pos="708" pan="0" len="12" vol="11" />
          <note key="87" pos="720" pan="0" len="12" vol="8" />
          <note key="86" pos="732" pan="0" len="12" vol="5" />
          <note key="84" pos="744" pan="0" len="12" vol="2" />
          <note key="84" pos="768" pan="0" len="12" vol="100" />
          <note key="86" pos="780" pan="0" len="12" vol="100" />
          <note key="87" pos="792" pan="0" len="12" vol="100" />
          <note key="91" pos="804" pan="0" len="12" vol="100" />
          <note key="87" pos="816" pan="0" len="12" vol="100" />
          <note key="86" pos="828" pan="0" len="12" vol="100" />
          <note key="84" pos="840" pan="0" len="12" vol="100" />
          <note key="79" pos="852" pan="0" len="12" vol="100" />
          <note key="84" pos="864" pan="0" len="12" vol="100" />
          <note key="86" pos="876" pan="0" len="12" vol="100" />
          <note key="87" pos="888" pan="0" len="12" vol="100" />
          <note key="91" pos="900" pan="0" len="12" vol="100" />
          <note key="87" pos="912" pan="0" len="12" vol="100" />
          <note key="86" pos="924" pan="0" len="12" vol="100" />
          <note key="84" pos="936" pan="0" len="12" vol="100" />
          <note key="79" pos="948" pan="0" len="12" vol="100" />
          <note key="84" pos="960" pan="0" len="12" vol="100" />
          <note key="86" pos="972" pan="0" len="12" vol="100" />
          <note key="87" pos="984" pan="0" len="12" vol="100" />
          <note key="91" pos="996" pan="0" len="12" vol="100" />
          <note key="87" pos="1008" pan="0" len="12" vol="100" />
          <note key="86" pos="1020" pan="0" len="12" vol="100" />
          <note key="84" pos="1032" pan="0" len="12" vol="100" />
          <note key="79" pos="1044" pan="0" len="12" vol="100" />
          <note key="84" pos="1056" pan="0" len="12" vol="100" />
          <note key="86" pos="1068" pan="0" len="12" vol="100" />
          <note key="87" pos="1080" pan="0" len="12" vol="100" />
          <note key="91" pos="1092" pan="0" len="12" vol="100" />
          <note key="87" pos="1104" pan="0" len="12" vol="100" />
          <note key="86" pos="1116" pan="0" len="12" vol="100" />
          <note key="84" pos="1128" pan="0" len="12" vol="100" />
          <note key="79" pos="1140" pan="0" len="12" vol="100" />
          <note key="84" pos="1152" pan="0" len="12" vol="100" />
          <note key="86" pos="1164" pan="0" len="12" vol="97" />
          <note key="87" pos="1176" pan="0" len="12" vol="94" />
          <note key="91" pos="1188" pan="0" len="12" vol="91" />
          <note key="87" pos="1200" pan="0" len="12" vol="88" />
          <note key="86" pos="1212" pan="0" len="12" vol="84" />
          <note key="84" pos="1224" pan="0" len="12" vol="80" />
          <note key="79" pos="1236" pan="0" len="12" vol="77" />
          <note key="84" pos="1248" pan="0" len="12" vol="73" />
          <note key="86" pos="1260" pan="0" len="12" vol="70" />
          <note key="87" pos="1272" pan="0" len="12" vol="67" />
          <note key="91" pos="1284" pan="0" len="12" vol="64" />
          <note key="87" pos="1296" pan="0" len="12" vol="61" />
          <note key="86" pos="1308" pan="0" len="12" vol="58" />
          <note key="84" pos="1320" pan="0" len="12" vol="55" />
          <note key="79" pos="1332" pan="0" len="12" vol="52" />
          <note key="84" pos="1344" pan="0" len="12" vol="47" />
          <note key="86" pos="1356" pan="0" len="12" vol="44" />
          <note key="87" pos="1368" pan="0" len="12" vol="41" />
          <note key="91" pos="1380" pan="0" len="12" vol="38" />
          <note key="87" pos="1392" pan="0" len="12" vol="34" />
          <note key="86" pos="1404" pan="0" len="12" vol="31" />
          <note key="84" pos="1416" pan="0" len="12" vol="28" />
          <note key="79" pos="1428" pan="0" len="12" vol="25" />
          <note key="84" pos="1440" pan="0" len="12" vol="22" />
          <note key="86" pos="1452" pan="0" len="12" vol="19" />
          <note key="87" pos="1464" pan="0" len="12" vol="14" />
          <note key="91" pos="1476" pan="0" len="12" vol="11" />
          <note key="87" pos="1488" pan="0" len="12" vol="8" />
          <note key="86" pos="1500" pan="0" len="12" vol="5" />
          <note key="84" pos="1512" pan="0" len="12" vol="2" />
        </pattern>
        <pattern pos="255360" muted="0" steps="16" name="" type="1">
          <note key="84" pos="0" pan="0" len="12" vol="100" />
          <note key="86" pos="12" pan="0" len="12" vol="100" />
          <note key="87" pos="24" pan="0" len="12" vol="100" />
          <note key="91" pos="36" pan="0" len="12" vol="100" />
          <note key="87" pos="48" pan="0" len="12" vol="100" />
          <note key="86" pos="60" pan="0" len="12" vol="100" />
          <note key="84" pos="72" pan="0" len="12" vol="100" />
          <note key="79" pos="84" pan="0" len="12" vol="100" />
          <note key="84" pos="96" pan="0" len="12" vol="100" />
          <note key="86" pos="108" pan="0" len="12" vol="100" />
          <note key="87" pos="120" pan="0" len="12" vol="100" />
          <note key="91" pos="132" pan="0" len="12" vol="100" />
          <note key="87" pos="144" pan="0" len="12" vol="100" />
          <note key="86" pos="156" pan="0" len="12" vol="100" />
          <note key="84" pos="168" pan="0" len="12" vol="100" />
          <note key="79" pos="180" pan="0" len="12" vol="100" />
          <note key="84" pos="192" pan="0" len="12" vol="100" />
          <note key="86" pos="204" pan="0" len="12" vol="100" />
          <note key="87" pos="216" pan="0" len="12" vol="100" />
          <note key="91" pos="228" pan="0" len="12" vol="100" />
          <note key="87" pos="240" pan="0" len="12" vol="100" />
          <note key="86" pos="252" pan="0" len="12" vol="100" />
          <note key="84" pos="264" pan="0" len="12" vol="100" />
          <note key="79" pos="276" pan="0" len="12" vol="100" />
          <note key="84" pos="288" pan="0" len="12" vol="100" />
          <note key="86" pos="300" pan="0" len="12" vol="100" />
          <note key="87" pos="312" pan="0" len="12" vol="100" />
          <note key="91" pos="324" pan="0" len="12" vol="100" />
          <note key="87" pos="336" pan="0" len="12" vol="100" />
          <note key="86" pos="348" pan="0" len="12" vol="100" />
          <note key="84" pos="360" pan="0" len="12" vol="100" />
          <note key="79" pos="372" pan="0" len="12" vol="100" />
          <note key="84" pos="384" pan="0" len="12" vol="100" />
          <note key="86" pos="396" pan="0" len="12" vol="97" />
          <note key="87" pos="408" pan="0" len="12" vol="94" />
          <note key="91" pos="420" pan="0" len="12" vol="91" />
          <note key="87" pos="432" pan="0" len="12" vol="88" />
          <note key="86" pos="444" pan="0" len="12" vol="84" />
          <note key="84" pos="456" pan="0" len="12" vol="80" />
          <note key="79" pos="468" pan="0" len="12" vol="77" />
          <note key="84" pos="480" pan="0" len="12" vol="73" />
          <note key="86" pos="492" pan="0" len="12" vol="70" />
          <note key="87" pos="504" pan="0" len="12" vol="67" />
          <note key="91" pos="516" pan="0" len="12" vol="64" />
          <note key="87" pos="528" pan="0" len="12" vol="61" />
          <note key="86" pos="540" pan="0" len="12" vol="58" />
          <note key="84" pos="552" pan="0" len="12" vol="55" />
          <note key="79" pos="564" pan="0" len="12" vol="52" />
          <note key="84" pos="576" pan="0" len="12" vol="47" />
          <note key="86" pos="588" pan="0" len="12" vol="44" />
          <note key="87" pos="600" pan="0" len="12" vol="41" />
          <note key="91" pos="612" pan="0" len="12" vol="38" />
          <note key="87" pos="624" pan="0" len="12" vol="34" />
          <note key="86" pos="636" pan="0" len="12" vol="31" />
          <note key="84" pos="648" pan="0" len="12" vol="28" />
          <note key="79" pos="660" pan="0" len="12" vol="25" />
          <note key="84" pos="672" pan="0" len="12" vol="22" />
          <note key="86" pos="684" pan="0" len="12" vol="19" />
          <note key="87" pos="696" pan="0" len="12" vol="14" />
          <note key="91" pos="708" pan="0" len="12" vol="11" />
          <note key="87" pos="720" pan="0" len="12" vol="8" />
          <note key="86" pos="732" pan="0" len="12" vol="5" />
          <note key="84" pos="744" pan="0" len="12" vol="2" />
          <note key="84" pos="768" pan="0" len="12" vol="100" />
          <note key="89" pos="780" pan="0" len="12" vol="100" />
          <note key="91" pos="792" pan="0" len="12" vol="100" />
          <note key="93" pos="804" pan="0" len="12" vol="100" />
          <note key="91" pos="816" pan="0" len="12" vol="100" />
          <note key="89" pos="828" pan="0" len="12" vol="100" />
          <note key="84" pos="840" pan="0" len="12" vol="100" />
          <note key="81" pos="852" pan="0" len="12" vol="100" />
          <note key="84" pos="864" pan="0" len="12" vol="100" />
          <note key="89" pos="876" pan="0" len="12" vol="100" />
          <note key="91" pos="888" pan="0" len="12" vol="100" />
          <note key="93" pos="900" pan="0" len="12" vol="100" />
          <note key="91" pos="912" pan="0" len="12" vol="100" />
          <note key="89" pos="924" pan="0" len="12" vol="100" />
          <note key="84" pos="936" pan="0" len="12" vol="100" />
          <note key="81" pos="948" pan="0" len="12" vol="100" />
          <note key="84" pos="960" pan="0" len="12" vol="100" />
          <note key="89" pos="972" pan="0" len="12" vol="100" />
          <note key="91" pos="984" pan="0" len="12" vol="100" />
          <note key="93" pos="996" pan="0" len="12" vol="100" />
          <note key="91" pos="1008" pan="0" len="12" vol="100" />
          <note key="89" pos="1020" pan="0" len="12" vol="100" />
          <note key="84" pos="1032" pan="0" len="12" vol="100" />
          <note key="81" pos="1044" pan="0" len="12" vol="100" />
          <note key="84" pos="1056" pan="0" len="12" vol="100" />
          <note key="89" pos="1068" pan="0" len="12" vol="100" />
          <note key="91" pos="1080" pan="0" len="12" vol="100" />
          <note key="93" pos="1092" pan="0" len="12" vol="100" />
          <note key="91" pos="1104" pan="0" len="12" vol="100" />
          <note key="89" pos="1116" pan="0" len="12" vol="100" />
          <note key="84" pos="1128" pan="0" len="12" vol="100" />
          <note key="81" pos="1140" pan="0" len="12" vol="100" />
          <note key="84" pos="1152" pan="0" len="12" vol="100" />
          <note key="89" pos="1164" pan="0" len="12" vol="97" />
          <note key="91" pos="1176" pan="0" len="12" vol="94" />
          <note key="93" pos="1188" pan="0" len="12" vol="91" />
          <note key="91" pos="1200" pan="0" len="12" vol="88" />
          <note key="89" pos="1212" pan="0" len="12" vol="84" />
          <note key="84" pos="1224" pan="0" len="12" vol="80" />
          <note key="81" pos="1236" pan="0" len="12" vol="77" />
          <note key="84" pos="1248" pan="0" len="12" vol="73" />
          <note key="89" pos="1260" pan="0" len="12" vol="70" />
          <note key="91" pos="1272" pan="0" len="12" vol="67" />
          <note key="93" pos="1284" pan="0" len="12" vol="64" />
          <note key="91" pos="1296" pan="0" len="12" vol="61" />
          <note key="89" pos="1308" pan="0" len="12" vol="58" />
          <note key="84" pos="1320" pan="0" len="12" vol="55" />
          <note key="81" pos="1332" pan="0" len="12" vol="52" />
          <note key="84" pos="1344" pan="0" len="12" vol="47" />
          <note key="89" pos="1356" pan="0" len="12" vol="44" />
          <note key="91" pos="1368" pan="0" len="12" vol="41" />
          <note key="93" pos="1380" pan="0" len="12" vol="38" />
          <note key="91" pos="1392" pan="0" len="12" vol="34" />
          <note key="89" pos="1404" pan="0" len="12" vol="31" />
          <note key="84" pos="1416" pan="0" len="12" vol="28" />
          <note key="81" pos="1428" pan="0" len="12" vol="25" />
          <note key="84" pos="1440" pan="0" len="12" vol="22" />
          <note key="89" pos="1452" pan="0" len="12" vol="19" />
          <note key="91" pos="1464" pan="0" len="12" vol="14" />
          <note key="93" pos="1476" pan="0" len="12" vol="11" />
          <note key="91" pos="1488" pan="0" len="12" vol="8" />
          <note key="89" pos="1500" pan="0" len="12" vol="5" />
          <note key="84" pos="1512" pan="0" len="12" vol="2" />
        </pattern>
      </track>
      <track solo="0" name="51 (Ch7)" type="0" muted="0">
        <instrumenttrack usemasterpitch="1" pitch="0.0" basenote="57" pan="0" pitchrange="12" vol="30">
          <eldata />
          <instrument name="tripleoscillator" />
        </instrumenttrack>
        <pattern pos="58368" muted="0" steps="16" name="" type="1">
          <note key="39" pos="768" pan="0" len="384" vol="100" />
          <note key="41" pos="1152" pan="0" len="288" vol="100" />
        </pattern>
        <pattern pos="30720" muted="0" steps="16" name="" type="1">
          <note key="63" pos="576" pan="0" len="120" vol="100" />
          <note key="67" pos="696" pan="0" len="168" vol="100" />
          <note key="70" pos="864" pan="0" len="120" vol="100" />
          <note key="69" pos="984" pan="0" len="96" vol="100" />
        </pattern>
        <pattern pos="31872" muted="0" steps="16" name="" type="1">
          <note key="60" pos="0" pan="0" len="192" vol="100" />
          <note key="67" pos="192" pan="0" len="96" vol="100" />
          <note key="63" pos="288" pan="0" len="192" vol="100" />
          <note key="70" pos="480" pan="0" len="96" vol="100" />
          <note key="69" pos="576" pan="0" len="192" vol="100" />
          <note key="65" pos="768" pan="0" len="96" vol="100" />
          <note key="67" pos="864" pan="0" len="192" vol="100" />
        </pattern>
        <pattern pos="33024" muted="0" steps="16" name="" type="1">
          <note key="60" pos="0" pan="0" len="192" vol="100" />
          <note key="67" pos="192" pan="0" len="96" vol="100" />
          <note key="63" pos="288" pan="0" len="192" vol="100" />
          <note key="70" pos="480" pan="0" len="96" vol="100" />
          <note key="69" pos="576" pan="0" len="384" vol="100" />
          <note key="58" pos="960" pan="0" len="144" vol="100" />
        </pattern>
        <pattern pos="38784" muted="0" steps="16" name="" type="1">
          <note key="63" pos="576" pan="0" len="120" vol="100" />
          <note key="67" pos="696" pan="0" len="168" vol="100" />
          <note key="70" pos="864" pan="0" len="120" vol="100" />
          <note key="69" pos="984" pan="0" len="96" vol="100" />
        </pattern>
        <pattern pos="39936" muted="0" steps="16" name="" type="1">
          <note key="60" pos="0" pan="0" len="48" vol="100" />
        </pattern>
      </track>
      <track solo="0" name="51 (Ch8)" type="0" muted="0">
        <instrumenttrack usemasterpitch="1" pitch="0.0" basenote="57" pan="0" pitchrange="12" vol="30">
          <eldata />
          <instrument name="tripleoscillator" />
        </instrumenttrack>
        <pattern pos="175104" muted="0" steps="16" name="" type="1">
          <note key="60" pos="0" pan="0" len="144" vol="100" />
        </pattern>
        <pattern pos="11520" muted="0" steps="16" name="" type="1">
          <note key="67" pos="384" pan="0" len="96" vol="100" />
          <note key="65" pos="480" pan="0" len="96" vol="100" />
          <note key="64" pos="576" pan="0" len="96" vol="100" />
          <note key="65" pos="672" pan="0" len="96" vol="100" />
          <note key="60" pos="768" pan="0" len="192" vol="100" />
          <note key="58" pos="1056" pan="0" len="48" vol="100" />
          <note key="60" pos="1104" pan="0" len="48" vol="100" />
          <note key="62" pos="1152" pan="0" len="192" vol="100" />
          <note key="58" pos="1344" pan="0" len="96" vol="100" />
          <note key="55" pos="1440" pan="0" len="96" vol="100" />
        </pattern>
        <pattern pos="165888" muted="0" steps="16" name="" type="1">
          <note key="63" pos="768" pan="0" len="96" vol="100" />
          <note key="65" pos="864" pan="0" len="48" vol="100" />
          <note key="67" pos="912" pan="0" len="48" vol="100" />
          <note key="62" pos="960" pan="0" len="96" vol="100" />
          <note key="58" pos="1056" pan="0" len="96" vol="100" />
          <note key="60" pos="1152" pan="0" len="96" vol="100" />
          <note key="63" pos="1248" pan="0" len="48" vol="100" />
          <note key="62" pos="1296" pan="0" len="48" vol="100" />
          <note key="58" pos="1344" pan="0" len="96" vol="100" />
        </pattern>
        <pattern pos="167424" muted="0" steps="16" name="" type="1">
          <note key="63" pos="768" pan="0" len="96" vol="100" />
          <note key="65" pos="864" pan="0" len="48" vol="100" />
          <note key="67" pos="912" pan="0" len="48" vol="100" />
          <note key="62" pos="960" pan="0" len="96" vol="100" />
          <note key="58" pos="1056" pan="0" len="96" vol="100" />
          <note key="56" pos="1152" pan="0" len="192" vol="100" />
          <note key="58" pos="1344" pan="0" len="192" vol="100" />
        </pattern>
        <pattern pos="168960" muted="0" steps="16" name="" type="1">
          <note key="60" pos="0" pan="0" len="96" vol="100" />
        </pattern>
        <pattern pos="172032" muted="0" steps="16" name="" type="1">
          <note key="63" pos="768" pan="0" len="96" vol="100" />
          <note key="65" pos="864" pan="0" len="48" vol="100" />
          <note key="67" pos="912" pan="0" len="48" vol="100" />
          <note key="62" pos="960" pan="0" len="96" vol="100" />
          <note key="58" pos="1056" pan="0" len="96" vol="100" />
          <note key="60" pos="1152" pan="0" len="96" vol="100" />
          <note key="63" pos="1248" pan="0" len="48" vol="100" />
          <note key="62" pos="1296" pan="0" len="48" vol="100" />
          <note key="58" pos="1344" pan="0" len="96" vol="100" />
        </pattern>
        <pattern pos="173568" muted="0" steps="16" name="" type="1">
          <note key="63" pos="768" pan="0" len="96" vol="100" />
          <note key="65" pos="864" pan="0" len="48" vol="100" />
          <note key="67" pos="912" pan="0" len="48" vol="100" />
          <note key="62" pos="960" pan="0" len="96" vol="100" />
          <note key="58" pos="1056" pan="0" len="96" vol="100" />
          <note key="56" pos="1152" pan="0" len="192" vol="100" />
          <note key="58" pos="1344" pan="0" len="192" vol="100" />
        </pattern>
      </track>
      <track solo="0" name="51 (Ch9)" type="0" muted="0">
        <instrumenttrack usemasterpitch="1" pitch="0.0" basenote="57" pan="0" pitchrange="12" vol="30">
          <eldata />
          <instrument name="tripleoscillator" />
        </instrumenttrack>
        <pattern pos="256896" muted="0" steps="16" name="" type="1">
          <note key="72" pos="0" pan="0" len="12" vol="100" />
          <note key="74" pos="12" pan="0" len="12" vol="100" />
          <note key="75" pos="24" pan="0" len="12" vol="100" />
          <note key="80" pos="36" pan="0" len="12" vol="100" />
          <note key="75" pos="48" pan="0" len="12" vol="100" />
          <note key="74" pos="60" pan="0" len="12" vol="100" />
          <note key="72" pos="72" pan="0" len="12" vol="100" />
          <note key="68" pos="84" pan="0" len="12" vol="100" />
          <note key="72" pos="96" pan="0" len="12" vol="100" />
          <note key="74" pos="108" pan="0" len="12" vol="100" />
          <note key="75" pos="120" pan="0" len="12" vol="100" />
          <note key="80" pos="132" pan="0" len="12" vol="100" />
          <note key="75" pos="144" pan="0" len="12" vol="100" />
          <note key="74" pos="156" pan="0" len="12" vol="100" />
          <note key="72" pos="168" pan="0" len="12" vol="100" />
          <note key="68" pos="180" pan="0" len="12" vol="100" />
          <note key="72" pos="192" pan="0" len="12" vol="100" />
          <note key="74" pos="204" pan="0" len="12" vol="100" />
          <note key="75" pos="216" pan="0" len="12" vol="100" />
          <note key="80" pos="228" pan="0" len="12" vol="100" />
          <note key="75" pos="240" pan="0" len="12" vol="100" />
          <note key="74" pos="252" pan="0" len="12" vol="100" />
          <note key="72" pos="264" pan="0" len="12" vol="100" />
          <note key="68" pos="276" pan="0" len="12" vol="100" />
          <note key="72" pos="288" pan="0" len="12" vol="100" />
          <note key="74" pos="300" pan="0" len="12" vol="100" />
          <note key="75" pos="312" pan="0" len="12" vol="100" />
          <note key="80" pos="324" pan="0" len="12" vol="100" />
          <note key="75" pos="336" pan="0" len="12" vol="100" />
          <note key="74" pos="348" pan="0" len="12" vol="100" />
          <note key="72" pos="360" pan="0" len="12" vol="100" />
          <note key="68" pos="372" pan="0" len="12" vol="100" />
          <note key="72" pos="384" pan="0" len="12" vol="100" />
          <note key="74" pos="396" pan="0" len="12" vol="97" />
          <note key="75" pos="408" pan="0" len="12" vol="94" />
          <note key="80" pos="420" pan="0" len="12" vol="91" />
          <note key="75" pos="432" pan="0" len="12" vol="88" />
          <note key="74" pos="444" pan="0" len="12" vol="84" />
          <note key="72" pos="456" pan="0" len="12" vol="80" />
          <note key="68" pos="468" pan="0" len="12" vol="77" />
          <note key="72" pos="480" pan="0" len="12" vol="73" />
          <note key="74" pos="492" pan="0" len="12" vol="70" />
          <note key="75" pos="504" pan="0" len="12" vol="67" />
          <note key="80" pos="516" pan="0" len="12" vol="64" />
          <note key="75" pos="528" pan="0" len="12" vol="61" />
          <note key="74" pos="540" pan="0" len="12" vol="58" />
          <note key="72" pos="552" pan="0" len="12" vol="55" />
          <note key="68" pos="564" pan="0" len="12" vol="52" />
          <note key="72" pos="576" pan="0" len="12" vol="47" />
          <note key="74" pos="588" pan="0" len="12" vol="44" />
          <note key="75" pos="600" pan="0" len="12" vol="41" />
          <note key="80" pos="612" pan="0" len="12" vol="38" />
          <note key="75" pos="624" pan="0" len="12" vol="34" />
          <note key="74" pos="636" pan="0" len="12" vol="31" />
          <note key="72" pos="648" pan="0" len="12" vol="28" />
          <note key="68" pos="660" pan="0" len="12" vol="25" />
          <note key="72" pos="672" pan="0" len="12" vol="22" />
          <note key="74" pos="684" pan="0" len="12" vol="19" />
          <note key="75" pos="696" pan="0" len="12" vol="14" />
          <note key="80" pos="708" pan="0" len="12" vol="11" />
          <note key="75" pos="720" pan="0" len="12" vol="8" />
          <note key="74" pos="732" pan="0" len="12" vol="5" />
          <note key="72" pos="744" pan="0" len="12" vol="2" />
          <note key="72" pos="768" pan="0" len="12" vol="100" />
          <note key="74" pos="780" pan="0" len="12" vol="100" />
          <note key="75" pos="792" pan="0" len="12" vol="100" />
          <note key="79" pos="804" pan="0" len="12" vol="100" />
          <note key="75" pos="816" pan="0" len="12" vol="100" />
          <note key="74" pos="828" pan="0" len="12" vol="100" />
          <note key="72" pos="840" pan="0" len="12" vol="100" />
          <note key="67" pos="852" pan="0" len="12" vol="100" />
          <note key="72" pos="864" pan="0" len="12" vol="100" />
          <note key="74" pos="876" pan="0" len="12" vol="100" />
          <note key="75" pos="888" pan="0" len="12" vol="100" />
          <note key="79" pos="900" pan="0" len="12" vol="100" />
          <note key="75" pos="912" pan="0" len="12" vol="100" />
          <note key="74" pos="924" pan="0" len="12" vol="100" />
          <note key="72" pos="936" pan="0" len="12" vol="100" />
          <note key="67" pos="948" pan="0" len="12" vol="100" />
          <note key="72" pos="960" pan="0" len="12" vol="100" />
          <note key="74" pos="972" pan="0" len="12" vol="100" />
          <note key="75" pos="984" pan="0" len="12" vol="100" />
          <note key="79" pos="996" pan="0" len="12" vol="100" />
          <note key="75" pos="1008" pan="0" len="12" vol="100" />
          <note key="74" pos="1020" pan="0" len="12" vol="100" />
          <note key="72" pos="1032" pan="0" len="12" vol="100" />
          <note key="67" pos="1044" pan="0" len="12" vol="100" />
          <note key="72" pos="1056" pan="0" len="12" vol="100" />
          <note key="74" pos="1068" pan="0" len="12" vol="100" />
          <note key="75" pos="1080" pan="0" len="12" vol="100" />
          <note key="79" pos="1092" pan="0" len="12" vol="100" />
          <note key="75" pos="1104" pan="0" len="12" vol="100" />
          <note key="74" pos="1116" pan="0" len="12" vol="100" />
          <note key="72" pos="1128" pan="0" len="12" vol="100" />
          <note key="67" pos="1140" pan="0" len="12" vol="100" />
          <note key="72" pos="1152" pan="0" len="12" vol="100" />
          <note key="74" pos="1164" pan="0" len="12" vol="97" />
          <note key="75" pos="1176" pan="0" len="12" vol="94" />
          <note key="79" pos="1188" pan="0" len="12" vol="91" />
          <note key="75" pos="1200" pan="0" len="12" vol="88" />
          <note key="74" pos="1212" pan="0" len="12" vol="84" />
          <note key="72" pos="1224" pan="0" len="12" vol="80" />
          <note key="67" pos="1236" pan="0" len="12" vol="77" />
          <note key="72" pos="1248" pan="0" len="12" vol="73" />
          <note key="74" pos="1260" pan="0" len="12" vol="70" />
          <note key="75" pos="1272" pan="0" len="12" vol="67" />
          <note key="79" pos="1284" pan="0" len="12" vol="64" />
          <note key="75" pos="1296" pan="0" len="12" vol="61" />
          <note key="74" pos="1308" pan="0" len="12" vol="58" />
          <note key="72" pos="1320" pan="0" len="12" vol="55" />
          <note key="67" pos="1332" pan="0" len="12" vol="52" />
          <note key="72" pos="1344" pan="0" len="12" vol="47" />
          <note key="74" pos="1356" pan="0" len="12" vol="44" />
          <note key="75" pos="1368" pan="0" len="12" vol="41" />
          <note key="79" pos="1380" pan="0" len="12" vol="38" />
          <note key="75" pos="1392" pan="0" len="12" vol="34" />
          <note key="74" pos="1404" pan="0" len="12" vol="31" />
          <note key="72" pos="1416" pan="0" len="12" vol="28" />
          <note key="67" pos="1428" pan="0" len="12" vol="25" />
          <note key="72" pos="1440" pan="0" len="12" vol="22" />
          <note key="74" pos="1452" pan="0" len="12" vol="19" />
          <note key="75" pos="1464" pan="0" len="12" vol="14" />
          <note key="79" pos="1476" pan="0" len="12" vol="11" />
          <note key="75" pos="1488" pan="0" len="12" vol="8" />
          <note key="74" pos="1500" pan="0" len="12" vol="5" />
          <note key="72" pos="1512" pan="0" len="12" vol="2" />
        </pattern>
        <pattern pos="22272" muted="0" steps="16" name="" type="1">
          <note key="60" pos="192" pan="0" len="96" vol="100" />
          <note key="67" pos="288" pan="0" len="96" vol="100" />
          <note key="72" pos="480" pan="0" len="48" vol="100" />
          <note key="60" pos="672" pan="0" len="96" vol="100" />
          <note key="65" pos="768" pan="0" len="96" vol="100" />
          <note key="69" pos="960" pan="0" len="96" vol="100" />
          <note key="70" pos="1152" pan="0" len="96" vol="100" />
        </pattern>
        <pattern pos="23808" muted="0" steps="16" name="" type="1">
          <note key="60" pos="192" pan="0" len="96" vol="100" />
          <note key="67" pos="288" pan="0" len="96" vol="100" />
          <note key="72" pos="480" pan="0" len="48" vol="100" />
          <note key="60" pos="672" pan="0" len="96" vol="100" />
          <note key="65" pos="768" pan="0" len="96" vol="100" />
          <note key="69" pos="960" pan="0" len="96" vol="100" />
          <note key="70" pos="1152" pan="0" len="96" vol="100" />
        </pattern>
        <pattern pos="244608" muted="0" steps="16" name="" type="1">
          <note key="72" pos="0" pan="0" len="12" vol="100" />
          <note key="74" pos="12" pan="0" len="12" vol="100" />
          <note key="75" pos="24" pan="0" len="12" vol="100" />
          <note key="79" pos="36" pan="0" len="12" vol="100" />
          <note key="75" pos="48" pan="0" len="12" vol="100" />
          <note key="74" pos="60" pan="0" len="12" vol="100" />
          <note key="72" pos="72" pan="0" len="12" vol="100" />
          <note key="67" pos="84" pan="0" len="12" vol="100" />
          <note key="72" pos="96" pan="0" len="12" vol="100" />
          <note key="74" pos="108" pan="0" len="12" vol="100" />
          <note key="75" pos="120" pan="0" len="12" vol="100" />
          <note key="79" pos="132" pan="0" len="12" vol="100" />
          <note key="75" pos="144" pan="0" len="12" vol="100" />
          <note key="74" pos="156" pan="0" len="12" vol="100" />
          <note key="72" pos="168" pan="0" len="12" vol="100" />
          <note key="67" pos="180" pan="0" len="12" vol="100" />
          <note key="72" pos="192" pan="0" len="12" vol="100" />
          <note key="74" pos="204" pan="0" len="12" vol="100" />
          <note key="75" pos="216" pan="0" len="12" vol="100" />
          <note key="79" pos="228" pan="0" len="12" vol="100" />
          <note key="75" pos="240" pan="0" len="12" vol="100" />
          <note key="74" pos="252" pan="0" len="12" vol="100" />
          <note key="72" pos="264" pan="0" len="12" vol="100" />
          <note key="67" pos="276" pan="0" len="12" vol="100" />
          <note key="72" pos="288" pan="0" len="12" vol="100" />
          <note key="74" pos="300" pan="0" len="12" vol="100" />
          <note key="75" pos="312" pan="0" len="12" vol="100" />
          <note key="79" pos="324" pan="0" len="12" vol="100" />
          <note key="75" pos="336" pan="0" len="12" vol="100" />
          <note key="74" pos="348" pan="0" len="12" vol="100" />
          <note key="72" pos="360" pan="0" len="12" vol="100" />
          <note key="67" pos="372" pan="0" len="12" vol="100" />
          <note key="72" pos="384" pan="0" len="12" vol="100" />
          <note key="74" pos="396" pan="0" len="12" vol="97" />
          <note key="75" pos="408" pan="0" len="12" vol="94" />
          <note key="79" pos="420" pan="0" len="12" vol="91" />
          <note key="75" pos="432" pan="0" len="12" vol="88" />
          <note key="74" pos="444" pan="0" len="12" vol="84" />
          <note key="72" pos="456" pan="0" len="12" vol="80" />
          <note key="67" pos="468" pan="0" len="12" vol="77" />
          <note key="72" pos="480" pan="0" len="12" vol="73" />
          <note key="74" pos="492" pan="0" len="12" vol="70" />
          <note key="75" pos="504" pan="0" len="12" vol="67" />
          <note key="79" pos="516" pan="0" len="12" vol="64" />
          <note key="75" pos="528" pan="0" len="12" vol="61" />
          <note key="74" pos="540" pan="0" len="12" vol="58" />
          <note key="72" pos="552" pan="0" len="12" vol="55" />
          <note key="67" pos="564" pan="0" len="12" vol="52" />
          <note key="72" pos="576" pan="0" len="12" vol="47" />
          <note key="74" pos="588" pan="0" len="12" vol="44" />
          <note key="75" pos="600" pan="0" len="12" vol="41" />
          <note key="79" pos="612" pan="0" len="12" vol="38" />
          <note key="75" pos="624" pan="0" len="12" vol="34" />
          <note key="74" pos="636" pan="0" len="12" vol="31" />
          <note key="72" pos="648" pan="0" len="12" vol="28" />
          <note key="67" pos="660" pan="0" len="12" vol="25" />
          <note key="72" pos="672" pan="0" len="12" vol="22" />
          <note key="74" pos="684" pan="0" len="12" vol="19" />
          <note key="75" pos="696" pan="0" len="12" vol="14" />
          <note key="79" pos="708" pan="0" len="12" vol="11" />
          <note key="75" pos="720" pan="0" len="12" vol="8" />
          <note key="74" pos="732" pan="0" len="12" vol="5" />
          <note key="72" pos="744" pan="0" len="12" vol="2" />
          <note key="70" pos="768" pan="0" len="12" vol="100" />
          <note key="72" pos="780" pan="0" len="12" vol="100" />
          <note key="74" pos="792" pan="0" len="12" vol="100" />
          <note key="77" pos="804" pan="0" len="12" vol="100" />
          <note key="74" pos="816" pan="0" len="12" vol="100" />
          <note key="72" pos="828" pan="0" len="12" vol="100" />
          <note key="70" pos="840" pan="0" len="12" vol="100" />
          <note key="65" pos="852" pan="0" len="12" vol="100" />
          <note key="70" pos="864" pan="0" len="12" vol="100" />
          <note key="72" pos="876" pan="0" len="12" vol="100" />
          <note key="74" pos="888" pan="0" len="12" vol="100" />
          <note key="77" pos="900" pan="0" len="12" vol="100" />
          <note key="74" pos="912" pan="0" len="12" vol="100" />
          <note key="72" pos="924" pan="0" len="12" vol="100" />
          <note key="70" pos="936" pan="0" len="12" vol="100" />
          <note key="65" pos="948" pan="0" len="12" vol="100" />
          <note key="70" pos="960" pan="0" len="12" vol="100" />
          <note key="72" pos="972" pan="0" len="12" vol="100" />
          <note key="74" pos="984" pan="0" len="12" vol="100" />
          <note key="77" pos="996" pan="0" len="12" vol="100" />
          <note key="74" pos="1008" pan="0" len="12" vol="100" />
          <note key="72" pos="1020" pan="0" len="12" vol="100" />
          <note key="70" pos="1032" pan="0" len="12" vol="100" />
          <note key="65" pos="1044" pan="0" len="12" vol="100" />
          <note key="70" pos="1056" pan="0" len="12" vol="100" />
          <note key="72" pos="1068" pan="0" len="12" vol="100" />
          <note key="74" pos="1080" pan="0" len="12" vol="100" />
          <note key="77" pos="1092" pan="0" len="12" vol="100" />
          <note key="74" pos="1104" pan="0" len="12" vol="100" />
          <note key="72" pos="1116" pan="0" len="12" vol="100" />
          <note key="70" pos="1128" pan="0" len="12" vol="100" />
          <note key="65" pos="1140" pan="0" len="12" vol="100" />
          <note key="70" pos="1152" pan="0" len="12" vol="100" />
          <note key="72" pos="1164" pan="0" len="12" vol="97" />
          <note key="74" pos="1176" pan="0" len="12" vol="94" />
          <note key="77" pos="1188" pan="0" len="12" vol="91" />
          <note key="74" pos="1200" pan="0" len="12" vol="88" />
          <note key="72" pos="1212" pan="0" len="12" vol="84" />
          <note key="70" pos="1224" pan="0" len="12" vol="80" />
          <note key="65" pos="1236" pan="0" len="12" vol="77" />
          <note key="70" pos="1248" pan="0" len="12" vol="73" />
          <note key="72" pos="1260" pan="0" len="12" vol="70" />
          <note key="74" pos="1272" pan="0" len="12" vol="67" />
          <note key="77" pos="1284" pan="0" len="12" vol="64" />
          <note key="74" pos="1296" pan="0" len="12" vol="61" />
          <note key="72" pos="1308" pan="0" len="12" vol="58" />
          <note key="70" pos="1320" pan="0" len="12" vol="55" />
          <note key="65" pos="1332" pan="0" len="12" vol="52" />
          <note key="70" pos="1344" pan="0" len="12" vol="47" />
          <note key="72" pos="1356" pan="0" len="12" vol="44" />
          <note key="74" pos="1368" pan="0" len="12" vol="41" />
          <note key="77" pos="1380" pan="0" len="12" vol="38" />
          <note key="74" pos="1392" pan="0" len="12" vol="34" />
          <note key="72" pos="1404" pan="0" len="12" vol="31" />
          <note key="70" pos="1416" pan="0" len="12" vol="28" />
          <note key="65" pos="1428" pan="0" len="12" vol="25" />
          <note key="70" pos="1440" pan="0" len="12" vol="22" />
          <note key="72" pos="1452" pan="0" len="12" vol="19" />
          <note key="74" pos="1464" pan="0" len="12" vol="14" />
          <note key="77" pos="1476" pan="0" len="12" vol="11" />
          <note key="74" pos="1488" pan="0" len="12" vol="8" />
          <note key="72" pos="1500" pan="0" len="12" vol="5" />
          <note key="70" pos="1512" pan="0" len="24" vol="2" />
        </pattern>
        <pattern pos="246144" muted="0" steps="16" name="" type="1">
          <note key="67" pos="0" pan="0" len="12" vol="100" />
          <note key="69" pos="12" pan="0" len="12" vol="100" />
          <note key="70" pos="24" pan="0" len="12" vol="100" />
          <note key="74" pos="36" pan="0" len="12" vol="100" />
          <note key="70" pos="48" pan="0" len="12" vol="100" />
          <note key="69" pos="60" pan="0" len="12" vol="100" />
          <note key="67" pos="72" pan="0" len="12" vol="100" />
          <note key="62" pos="84" pan="0" len="12" vol="100" />
          <note key="67" pos="96" pan="0" len="12" vol="100" />
          <note key="69" pos="108" pan="0" len="12" vol="100" />
          <note key="70" pos="120" pan="0" len="12" vol="100" />
          <note key="74" pos="132" pan="0" len="12" vol="100" />
          <note key="70" pos="144" pan="0" len="12" vol="100" />
          <note key="69" pos="156" pan="0" len="12" vol="100" />
          <note key="67" pos="168" pan="0" len="12" vol="100" />
          <note key="62" pos="180" pan="0" len="12" vol="100" />
          <note key="67" pos="192" pan="0" len="12" vol="100" />
          <note key="69" pos="204" pan="0" len="12" vol="100" />
          <note key="70" pos="216" pan="0" len="12" vol="100" />
          <note key="74" pos="228" pan="0" len="12" vol="100" />
          <note key="70" pos="240" pan="0" len="12" vol="100" />
          <note key="69" pos="252" pan="0" len="12" vol="100" />
          <note key="67" pos="264" pan="0" len="12" vol="100" />
          <note key="62" pos="276" pan="0" len="12" vol="100" />
          <note key="67" pos="288" pan="0" len="12" vol="100" />
          <note key="69" pos="300" pan="0" len="12" vol="100" />
          <note key="70" pos="312" pan="0" len="12" vol="100" />
          <note key="74" pos="324" pan="0" len="12" vol="100" />
          <note key="70" pos="336" pan="0" len="12" vol="100" />
          <note key="69" pos="348" pan="0" len="12" vol="100" />
          <note key="67" pos="360" pan="0" len="12" vol="100" />
          <note key="62" pos="372" pan="0" len="12" vol="100" />
          <note key="67" pos="384" pan="0" len="12" vol="100" />
          <note key="69" pos="396" pan="0" len="12" vol="97" />
          <note key="70" pos="408" pan="0" len="12" vol="94" />
          <note key="74" pos="420" pan="0" len="12" vol="91" />
          <note key="70" pos="432" pan="0" len="12" vol="88" />
          <note key="69" pos="444" pan="0" len="12" vol="84" />
          <note key="67" pos="456" pan="0" len="12" vol="80" />
          <note key="62" pos="468" pan="0" len="12" vol="77" />
          <note key="67" pos="480" pan="0" len="12" vol="73" />
          <note key="69" pos="492" pan="0" len="12" vol="70" />
          <note key="70" pos="504" pan="0" len="12" vol="67" />
          <note key="74" pos="516" pan="0" len="12" vol="64" />
          <note key="70" pos="528" pan="0" len="12" vol="61" />
          <note key="69" pos="540" pan="0" len="12" vol="58" />
          <note key="67" pos="552" pan="0" len="12" vol="55" />
          <note key="62" pos="564" pan="0" len="12" vol="52" />
          <note key="63" pos="576" pan="0" len="12" vol="47" />
          <note key="65" pos="588" pan="0" len="12" vol="44" />
          <note key="66" pos="600" pan="0" len="12" vol="41" />
          <note key="70" pos="612" pan="0" len="12" vol="38" />
          <note key="66" pos="624" pan="0" len="12" vol="34" />
          <note key="65" pos="636" pan="0" len="12" vol="31" />
          <note key="63" pos="648" pan="0" len="12" vol="28" />
          <note key="58" pos="660" pan="0" len="12" vol="25" />
          <note key="63" pos="672" pan="0" len="12" vol="22" />
          <note key="65" pos="684" pan="0" len="12" vol="19" />
          <note key="66" pos="696" pan="0" len="12" vol="14" />
          <note key="70" pos="708" pan="0" len="12" vol="11" />
          <note key="66" pos="720" pan="0" len="12" vol="8" />
          <note key="65" pos="732" pan="0" len="12" vol="5" />
          <note key="63" pos="744" pan="0" len="12" vol="2" />
          <note key="68" pos="768" pan="0" len="12" vol="100" />
          <note key="70" pos="780" pan="0" len="12" vol="100" />
          <note key="72" pos="792" pan="0" len="12" vol="100" />
          <note key="75" pos="804" pan="0" len="12" vol="100" />
          <note key="72" pos="816" pan="0" len="12" vol="100" />
          <note key="70" pos="828" pan="0" len="12" vol="100" />
          <note key="68" pos="840" pan="0" len="12" vol="100" />
          <note key="63" pos="852" pan="0" len="12" vol="100" />
          <note key="68" pos="864" pan="0" len="12" vol="100" />
          <note key="70" pos="876" pan="0" len="12" vol="100" />
          <note key="72" pos="888" pan="0" len="12" vol="100" />
          <note key="75" pos="900" pan="0" len="12" vol="100" />
          <note key="72" pos="912" pan="0" len="12" vol="100" />
          <note key="70" pos="924" pan="0" len="12" vol="100" />
          <note key="68" pos="936" pan="0" len="12" vol="100" />
          <note key="63" pos="948" pan="0" len="12" vol="100" />
          <note key="68" pos="960" pan="0" len="12" vol="100" />
          <note key="70" pos="972" pan="0" len="12" vol="100" />
          <note key="72" pos="984" pan="0" len="12" vol="100" />
          <note key="75" pos="996" pan="0" len="12" vol="100" />
          <note key="72" pos="1008" pan="0" len="12" vol="100" />
          <note key="70" pos="1020" pan="0" len="12" vol="100" />
          <note key="68" pos="1032" pan="0" len="12" vol="100" />
          <note key="63" pos="1044" pan="0" len="12" vol="100" />
          <note key="68" pos="1056" pan="0" len="12" vol="100" />
          <note key="70" pos="1068" pan="0" len="12" vol="100" />
          <note key="72" pos="1080" pan="0" len="12" vol="100" />
          <note key="75" pos="1092" pan="0" len="12" vol="100" />
          <note key="72" pos="1104" pan="0" len="12" vol="100" />
          <note key="70" pos="1116" pan="0" len="12" vol="100" />
          <note key="68" pos="1128" pan="0" len="12" vol="100" />
          <note key="63" pos="1140" pan="0" len="12" vol="100" />
          <note key="68" pos="1152" pan="0" len="12" vol="100" />
          <note key="70" pos="1164" pan="0" len="12" vol="97" />
          <note key="72" pos="1176" pan="0" len="12" vol="94" />
          <note key="75" pos="1188" pan="0" len="12" vol="91" />
          <note key="72" pos="1200" pan="0" len="12" vol="88" />
          <note key="70" pos="1212" pan="0" len="12" vol="84" />
          <note key="68" pos="1224" pan="0" len="12" vol="80" />
          <note key="63" pos="1236" pan="0" len="12" vol="77" />
          <note key="68" pos="1248" pan="0" len="12" vol="73" />
          <note key="70" pos="1260" pan="0" len="12" vol="70" />
          <note key="72" pos="1272" pan="0" len="12" vol="67" />
          <note key="75" pos="1284" pan="0" len="12" vol="64" />
          <note key="72" pos="1296" pan="0" len="12" vol="61" />
          <note key="70" pos="1308" pan="0" len="12" vol="58" />
          <note key="68" pos="1320" pan="0" len="12" vol="55" />
          <note key="63" pos="1332" pan="0" len="12" vol="52" />
          <note key="68" pos="1344" pan="0" len="12" vol="47" />
          <note key="70" pos="1356" pan="0" len="12" vol="44" />
          <note key="72" pos="1368" pan="0" len="12" vol="41" />
          <note key="75" pos="1380" pan="0" len="12" vol="38" />
          <note key="72" pos="1392" pan="0" len="12" vol="34" />
          <note key="70" pos="1404" pan="0" len="12" vol="31" />
          <note key="68" pos="1416" pan="0" len="12" vol="28" />
          <note key="63" pos="1428" pan="0" len="12" vol="25" />
          <note key="68" pos="1440" pan="0" len="12" vol="22" />
          <note key="70" pos="1452" pan="0" len="12" vol="19" />
          <note key="72" pos="1464" pan="0" len="12" vol="14" />
          <note key="75" pos="1476" pan="0" len="12" vol="11" />
          <note key="72" pos="1488" pan="0" len="12" vol="8" />
          <note key="70" pos="1500" pan="0" len="12" vol="5" />
          <note key="68" pos="1512" pan="0" len="12" vol="2" />
        </pattern>
        <pattern pos="249216" muted="0" steps="16" name="" type="1">
          <note key="72" pos="0" pan="0" len="12" vol="100" />
          <note key="74" pos="12" pan="0" len="12" vol="100" />
          <note key="75" pos="24" pan="0" len="12" vol="100" />
          <note key="79" pos="36" pan="0" len="12" vol="100" />
          <note key="75" pos="48" pan="0" len="12" vol="100" />
          <note key="74" pos="60" pan="0" len="12" vol="100" />
          <note key="72" pos="72" pan="0" len="12" vol="100" />
          <note key="67" pos="84" pan="0" len="12" vol="100" />
          <note key="72" pos="96" pan="0" len="12" vol="100" />
          <note key="74" pos="108" pan="0" len="12" vol="100" />
          <note key="75" pos="120" pan="0" len="12" vol="100" />
          <note key="79" pos="132" pan="0" len="12" vol="100" />
          <note key="75" pos="144" pan="0" len="12" vol="100" />
          <note key="74" pos="156" pan="0" len="12" vol="100" />
          <note key="72" pos="168" pan="0" len="12" vol="100" />
          <note key="67" pos="180" pan="0" len="12" vol="100" />
          <note key="72" pos="192" pan="0" len="12" vol="100" />
          <note key="74" pos="204" pan="0" len="12" vol="100" />
          <note key="75" pos="216" pan="0" len="12" vol="100" />
          <note key="79" pos="228" pan="0" len="12" vol="100" />
          <note key="75" pos="240" pan="0" len="12" vol="100" />
          <note key="74" pos="252" pan="0" len="12" vol="100" />
          <note key="72" pos="264" pan="0" len="12" vol="100" />
          <note key="67" pos="276" pan="0" len="12" vol="100" />
          <note key="72" pos="288" pan="0" len="12" vol="100" />
          <note key="74" pos="300" pan="0" len="12" vol="100" />
          <note key="75" pos="312" pan="0" len="12" vol="100" />
          <note key="79" pos="324" pan="0" len="12" vol="100" />
          <note key="75" pos="336" pan="0" len="12" vol="100" />
          <note key="74" pos="348" pan="0" len="12" vol="100" />
          <note key="72" pos="360" pan="0" len="12" vol="100" />
          <note key="67" pos="372" pan="0" len="12" vol="100" />
          <note key="72" pos="384" pan="0" len="12" vol="100" />
          <note key="74" pos="396" pan="0" len="12" vol="97" />
          <note key="75" pos="408" pan="0" len="12" vol="94" />
          <note key="79" pos="420" pan="0" len="12" vol="91" />
          <note key="75" pos="432" pan="0" len="12" vol="88" />
          <note key="74" pos="444" pan="0" len="12" vol="84" />
          <note key="72" pos="456" pan="0" len="12" vol="80" />
          <note key="67" pos="468" pan="0" len="12" vol="77" />
          <note key="72" pos="480" pan="0" len="12" vol="73" />
          <note key="74" pos="492" pan="0" len="12" vol="70" />
          <note key="75" pos="504" pan="0" len="12" vol="67" />
          <note key="79" pos="516" pan="0" len="12" vol="64" />
          <note key="75" pos="528" pan="0" len="12" vol="61" />
          <note key="74" pos="540" pan="0" len="12" vol="58" />
          <note key="72" pos="552" pan="0" len="12" vol="55" />
          <note key="67" pos="564" pan="0" len="12" vol="52" />
          <note key="72" pos="576" pan="0" len="12" vol="47" />
          <note key="74" pos="588" pan="0" len="12" vol="44" />
          <note key="75" pos="600" pan="0" len="12" vol="41" />
          <note key="79" pos="612" pan="0" len="12" vol="38" />
          <note key="75" pos="624" pan="0" len="12" vol="34" />
          <note key="74" pos="636" pan="0" len="12" vol="31" />
          <note key="72" pos="648" pan="0" len="12" vol="28" />
          <note key="67" pos="660" pan="0" len="12" vol="25" />
          <note key="72" pos="672" pan="0" len="12" vol="22" />
          <note key="74" pos="684" pan="0" len="12" vol="19" />
          <note key="75" pos="696" pan="0" len="12" vol="14" />
          <note key="79" pos="708" pan="0" len="12" vol="11" />
          <note key="75" pos="720" pan="0" len="12" vol="8" />
          <note key="74" pos="732" pan="0" len="12" vol="5" />
          <note key="72" pos="744" pan="0" len="12" vol="2" />
          <note key="70" pos="768" pan="0" len="12" vol="100" />
          <note key="72" pos="780" pan="0" len="12" vol="100" />
          <note key="74" pos="792" pan="0" len="12" vol="100" />
          <note key="77" pos="804" pan="0" len="12" vol="100" />
          <note key="74" pos="816" pan="0" len="12" vol="100" />
          <note key="72" pos="828" pan="0" len="12" vol="100" />
          <note key="70" pos="840" pan="0" len="12" vol="100" />
          <note key="65" pos="852" pan="0" len="12" vol="100" />
          <note key="70" pos="864" pan="0" len="12" vol="100" />
          <note key="72" pos="876" pan="0" len="12" vol="100" />
          <note key="74" pos="888" pan="0" len="12" vol="100" />
          <note key="77" pos="900" pan="0" len="12" vol="100" />
          <note key="74" pos="912" pan="0" len="12" vol="100" />
          <note key="72" pos="924" pan="0" len="12" vol="100" />
          <note key="70" pos="936" pan="0" len="12" vol="100" />
          <note key="65" pos="948" pan="0" len="12" vol="100" />
          <note key="70" pos="960" pan="0" len="12" vol="100" />
          <note key="72" pos="972" pan="0" len="12" vol="100" />
          <note key="74" pos="984" pan="0" len="12" vol="100" />
          <note key="77" pos="996" pan="0" len="12" vol="100" />
          <note key="74" pos="1008" pan="0" len="12" vol="100" />
          <note key="72" pos="1020" pan="0" len="12" vol="100" />
          <note key="70" pos="1032" pan="0" len="12" vol="100" />
          <note key="65" pos="1044" pan="0" len="12" vol="100" />
          <note key="70" pos="1056" pan="0" len="12" vol="100" />
          <note key="72" pos="1068" pan="0" len="12" vol="100" />
          <note key="74" pos="1080" pan="0" len="12" vol="100" />
          <note key="77" pos="1092" pan="0" len="12" vol="100" />
          <note key="74" pos="1104" pan="0" len="12" vol="100" />
          <note key="72" pos="1116" pan="0" len="12" vol="100" />
          <note key="70" pos="1128" pan="0" len="12" vol="100" />
          <note key="65" pos="1140" pan="0" len="12" vol="100" />
          <note key="70" pos="1152" pan="0" len="12" vol="100" />
          <note key="72" pos="1164" pan="0" len="12" vol="97" />
          <note key="74" pos="1176" pan="0" len="12" vol="94" />
          <note key="77" pos="1188" pan="0" len="12" vol="91" />
          <note key="74" pos="1200" pan="0" len="12" vol="88" />
          <note key="72" pos="1212" pan="0" len="12" vol="84" />
          <note key="70" pos="1224" pan="0" len="12" vol="80" />
          <note key="65" pos="1236" pan="0" len="12" vol="77" />
          <note key="70" pos="1248" pan="0" len="12" vol="73" />
          <note key="72" pos="1260" pan="0" len="12" vol="70" />
          <note key="74" pos="1272" pan="0" len="12" vol="67" />
          <note key="77" pos="1284" pan="0" len="12" vol="64" />
          <note key="74" pos="1296" pan="0" len="12" vol="61" />
          <note key="72" pos="1308" pan="0" len="12" vol="58" />
          <note key="70" pos="1320" pan="0" len="12" vol="55" />
          <note key="65" pos="1332" pan="0" len="12" vol="52" />
          <note key="70" pos="1344" pan="0" len="12" vol="47" />
          <note key="72" pos="1356" pan="0" len="12" vol="44" />
          <note key="74" pos="1368" pan="0" len="12" vol="41" />
          <note key="77" pos="1380" pan="0" len="12" vol="38" />
          <note key="74" pos="1392" pan="0" len="12" vol="34" />
          <note key="72" pos="1404" pan="0" len="12" vol="31" />
          <note key="70" pos="1416" pan="0" len="12" vol="28" />
          <note key="65" pos="1428" pan="0" len="12" vol="25" />
          <note key="70" pos="1440" pan="0" len="12" vol="22" />
          <note key="72" pos="1452" pan="0" len="12" vol="19" />
          <note key="74" pos="1464" pan="0" len="12" vol="14" />
          <note key="77" pos="1476" pan="0" len="12" vol="11" />
          <note key="74" pos="1488" pan="0" len="12" vol="8" />
          <note key="72" pos="1500" pan="0" len="12" vol="5" />
          <note key="70" pos="1512" pan="0" len="24" vol="2" />
        </pattern>
        <pattern pos="250752" muted="0" steps="16" name="" type="1">
          <note key="67" pos="0" pan="0" len="12" vol="100" />
          <note key="69" pos="12" pan="0" len="12" vol="100" />
          <note key="70" pos="24" pan="0" len="12" vol="100" />
          <note key="74" pos="36" pan="0" len="12" vol="100" />
          <note key="70" pos="48" pan="0" len="12" vol="100" />
          <note key="69" pos="60" pan="0" len="12" vol="100" />
          <note key="67" pos="72" pan="0" len="12" vol="100" />
          <note key="62" pos="84" pan="0" len="12" vol="100" />
          <note key="67" pos="96" pan="0" len="12" vol="100" />
          <note key="69" pos="108" pan="0" len="12" vol="100" />
          <note key="70" pos="120" pan="0" len="12" vol="100" />
          <note key="74" pos="132" pan="0" len="12" vol="100" />
          <note key="70" pos="144" pan="0" len="12" vol="100" />
          <note key="69" pos="156" pan="0" len="12" vol="100" />
          <note key="67" pos="168" pan="0" len="12" vol="100" />
          <note key="62" pos="180" pan="0" len="12" vol="100" />
          <note key="67" pos="192" pan="0" len="12" vol="100" />
          <note key="69" pos="204" pan="0" len="12" vol="100" />
          <note key="70" pos="216" pan="0" len="12" vol="100" />
          <note key="74" pos="228" pan="0" len="12" vol="100" />
          <note key="70" pos="240" pan="0" len="12" vol="100" />
          <note key="69" pos="252" pan="0" len="12" vol="100" />
          <note key="67" pos="264" pan="0" len="12" vol="100" />
          <note key="62" pos="276" pan="0" len="12" vol="100" />
          <note key="67" pos="288" pan="0" len="12" vol="100" />
          <note key="69" pos="300" pan="0" len="12" vol="100" />
          <note key="70" pos="312" pan="0" len="12" vol="100" />
          <note key="74" pos="324" pan="0" len="12" vol="100" />
          <note key="70" pos="336" pan="0" len="12" vol="100" />
          <note key="69" pos="348" pan="0" len="12" vol="100" />
          <note key="67" pos="360" pan="0" len="12" vol="100" />
          <note key="62" pos="372" pan="0" len="12" vol="100" />
          <note key="67" pos="384" pan="0" len="12" vol="100" />
          <note key="69" pos="396" pan="0" len="12" vol="97" />
          <note key="70" pos="408" pan="0" len="12" vol="94" />
          <note key="74" pos="420" pan="0" len="12" vol="91" />
          <note key="70" pos="432" pan="0" len="12" vol="88" />
          <note key="69" pos="444" pan="0" len="12" vol="84" />
          <note key="67" pos="456" pan="0" len="12" vol="80" />
          <note key="62" pos="468" pan="0" len="12" vol="77" />
          <note key="67" pos="480" pan="0" len="12" vol="73" />
          <note key="69" pos="492" pan="0" len="12" vol="70" />
          <note key="70" pos="504" pan="0" len="12" vol="67" />
          <note key="74" pos="516" pan="0" len="12" vol="64" />
          <note key="70" pos="528" pan="0" len="12" vol="61" />
          <note key="69" pos="540" pan="0" len="12" vol="58" />
          <note key="67" pos="552" pan="0" len="12" vol="55" />
          <note key="62" pos="564" pan="0" len="12" vol="52" />
          <note key="63" pos="576" pan="0" len="12" vol="47" />
          <note key="65" pos="588" pan="0" len="12" vol="44" />
          <note key="66" pos="600" pan="0" len="12" vol="41" />
          <note key="70" pos="612" pan="0" len="12" vol="38" />
          <note key="66" pos="624" pan="0" len="12" vol="34" />
          <note key="65" pos="636" pan="0" len="12" vol="31" />
          <note key="63" pos="648" pan="0" len="12" vol="28" />
          <note key="58" pos="660" pan="0" len="12" vol="25" />
          <note key="63" pos="672" pan="0" len="12" vol="22" />
          <note key="65" pos="684" pan="0" len="12" vol="19" />
          <note key="66" pos="696" pan="0" len="12" vol="14" />
          <note key="70" pos="708" pan="0" len="12" vol="11" />
          <note key="66" pos="720" pan="0" len="12" vol="8" />
          <note key="65" pos="732" pan="0" len="12" vol="5" />
          <note key="63" pos="744" pan="0" len="12" vol="2" />
          <note key="68" pos="768" pan="0" len="12" vol="100" />
          <note key="70" pos="780" pan="0" len="12" vol="100" />
          <note key="72" pos="792" pan="0" len="12" vol="100" />
          <note key="75" pos="804" pan="0" len="12" vol="100" />
          <note key="72" pos="816" pan="0" len="12" vol="100" />
          <note key="70" pos="828" pan="0" len="12" vol="100" />
          <note key="68" pos="840" pan="0" len="12" vol="100" />
          <note key="63" pos="852" pan="0" len="12" vol="100" />
          <note key="68" pos="864" pan="0" len="12" vol="100" />
          <note key="70" pos="876" pan="0" len="12" vol="100" />
          <note key="72" pos="888" pan="0" len="12" vol="100" />
          <note key="75" pos="900" pan="0" len="12" vol="100" />
          <note key="72" pos="912" pan="0" len="12" vol="100" />
          <note key="70" pos="924" pan="0" len="12" vol="100" />
          <note key="68" pos="936" pan="0" len="12" vol="100" />
          <note key="63" pos="948" pan="0" len="12" vol="100" />
          <note key="68" pos="960" pan="0" len="12" vol="100" />
          <note key="70" pos="972" pan="0" len="12" vol="100" />
          <note key="72" pos="984" pan="0" len="12" vol="100" />
          <note key="75" pos="996" pan="0" len="12" vol="100" />
          <note key="72" pos="1008" pan="0" len="12" vol="100" />
          <note key="70" pos="1020" pan="0" len="12" vol="100" />
          <note key="68" pos="1032" pan="0" len="12" vol="100" />
          <note key="63" pos="1044" pan="0" len="12" vol="100" />
          <note key="68" pos="1056" pan="0" len="12" vol="100" />
          <note key="70" pos="1068" pan="0" len="12" vol="100" />
          <note key="72" pos="1080" pan="0" len="12" vol="100" />
          <note key="75" pos="1092" pan="0" len="12" vol="100" />
          <note key="72" pos="1104" pan="0" len="12" vol="100" />
          <note key="70" pos="1116" pan="0" len="12" vol="100" />
          <note key="68" pos="1128" pan="0" len="12" vol="100" />
          <note key="63" pos="1140" pan="0" len="12" vol="100" />
          <note key="68" pos="1152" pan="0" len="12" vol="100" />
          <note key="70" pos="1164" pan="0" len="12" vol="97" />
          <note key="72" pos="1176" pan="0" len="12" vol="94" />
          <note key="75" pos="1188" pan="0" len="12" vol="91" />
          <note key="72" pos="1200" pan="0" len="12" vol="88" />
          <note key="70" pos="1212" pan="0" len="12" vol="84" />
          <note key="68" pos="1224" pan="0" len="12" vol="80" />
          <note key="63" pos="1236" pan="0" len="12" vol="77" />
          <note key="68" pos="1248" pan="0" len="12" vol="73" />
          <note key="70" pos="1260" pan="0" len="12" vol="70" />
          <note key="72" pos="1272" pan="0" len="12" vol="67" />
          <note key="75" pos="1284" pan="0" len="12" vol="64" />
          <note key="72" pos="1296" pan="0" len="12" vol="61" />
          <note key="70" pos="1308" pan="0" len="12" vol="58" />
          <note key="68" pos="1320" pan="0" len="12" vol="55" />
          <note key="63" pos="1332" pan="0" len="12" vol="52" />
          <note key="68" pos="1344" pan="0" len="12" vol="47" />
          <note key="70" pos="1356" pan="0" len="12" vol="44" />
          <note key="72" pos="1368" pan="0" len="12" vol="41" />
          <note key="75" pos="1380" pan="0" len="12" vol="38" />
          <note key="72" pos="1392" pan="0" len="12" vol="34" />
          <note key="70" pos="1404" pan="0" len="12" vol="31" />
          <note key="68" pos="1416" pan="0" len="12" vol="28" />
          <note key="63" pos="1428" pan="0" len="12" vol="25" />
          <note key="68" pos="1440" pan="0" len="12" vol="22" />
          <note key="70" pos="1452" pan="0" len="12" vol="19" />
          <note key="72" pos="1464" pan="0" len="12" vol="14" />
          <note key="75" pos="1476" pan="0" len="12" vol="11" />
          <note key="72" pos="1488" pan="0" len="12" vol="8" />
          <note key="70" pos="1500" pan="0" len="12" vol="5" />
          <note key="68" pos="1512" pan="0" len="12" vol="2" />
        </pattern>
        <pattern pos="252288" muted="0" steps="16" name="" type="1">
          <note key="72" pos="0" pan="0" len="12" vol="100" />
          <note key="74" pos="12" pan="0" len="12" vol="100" />
          <note key="75" pos="24" pan="0" len="12" vol="100" />
          <note key="79" pos="36" pan="0" len="12" vol="100" />
          <note key="75" pos="48" pan="0" len="12" vol="100" />
          <note key="74" pos="60" pan="0" len="12" vol="100" />
          <note key="72" pos="72" pan="0" len="12" vol="100" />
          <note key="67" pos="84" pan="0" len="12" vol="100" />
          <note key="72" pos="96" pan="0" len="12" vol="100" />
          <note key="74" pos="108" pan="0" len="12" vol="100" />
          <note key="75" pos="120" pan="0" len="12" vol="100" />
          <note key="79" pos="132" pan="0" len="12" vol="100" />
          <note key="75" pos="144" pan="0" len="12" vol="100" />
          <note key="74" pos="156" pan="0" len="12" vol="100" />
          <note key="72" pos="168" pan="0" len="12" vol="100" />
          <note key="67" pos="180" pan="0" len="12" vol="100" />
          <note key="72" pos="192" pan="0" len="12" vol="100" />
          <note key="74" pos="204" pan="0" len="12" vol="100" />
          <note key="75" pos="216" pan="0" len="12" vol="100" />
          <note key="79" pos="228" pan="0" len="12" vol="100" />
          <note key="75" pos="240" pan="0" len="12" vol="100" />
          <note key="74" pos="252" pan="0" len="12" vol="100" />
          <note key="72" pos="264" pan="0" len="12" vol="100" />
          <note key="67" pos="276" pan="0" len="12" vol="100" />
          <note key="72" pos="288" pan="0" len="12" vol="100" />
          <note key="74" pos="300" pan="0" len="12" vol="100" />
          <note key="75" pos="312" pan="0" len="12" vol="100" />
          <note key="79" pos="324" pan="0" len="12" vol="100" />
          <note key="75" pos="336" pan="0" len="12" vol="100" />
          <note key="74" pos="348" pan="0" len="12" vol="100" />
          <note key="72" pos="360" pan="0" len="12" vol="100" />
          <note key="67" pos="372" pan="0" len="12" vol="100" />
          <note key="72" pos="384" pan="0" len="12" vol="100" />
          <note key="74" pos="396" pan="0" len="12" vol="97" />
          <note key="75" pos="408" pan="0" len="12" vol="94" />
          <note key="79" pos="420" pan="0" len="12" vol="91" />
          <note key="75" pos="432" pan="0" len="12" vol="88" />
          <note key="74" pos="444" pan="0" len="12" vol="84" />
          <note key="72" pos="456" pan="0" len="12" vol="80" />
          <note key="67" pos="468" pan="0" len="12" vol="77" />
          <note key="72" pos="480" pan="0" len="12" vol="73" />
          <note key="74" pos="492" pan="0" len="12" vol="70" />
          <note key="75" pos="504" pan="0" len="12" vol="67" />
          <note key="79" pos="516" pan="0" len="12" vol="64" />
          <note key="75" pos="528" pan="0" len="12" vol="61" />
          <note key="74" pos="540" pan="0" len="12" vol="58" />
          <note key="72" pos="552" pan="0" len="12" vol="55" />
          <note key="67" pos="564" pan="0" len="12" vol="52" />
          <note key="72" pos="576" pan="0" len="12" vol="47" />
          <note key="74" pos="588" pan="0" len="12" vol="44" />
          <note key="75" pos="600" pan="0" len="12" vol="41" />
          <note key="79" pos="612" pan="0" len="12" vol="38" />
          <note key="75" pos="624" pan="0" len="12" vol="34" />
          <note key="74" pos="636" pan="0" len="12" vol="31" />
          <note key="72" pos="648" pan="0" len="12" vol="28" />
          <note key="67" pos="660" pan="0" len="12" vol="25" />
          <note key="72" pos="672" pan="0" len="12" vol="22" />
          <note key="74" pos="684" pan="0" len="12" vol="19" />
          <note key="75" pos="696" pan="0" len="12" vol="14" />
          <note key="79" pos="708" pan="0" len="12" vol="11" />
          <note key="75" pos="720" pan="0" len="12" vol="8" />
          <note key="74" pos="732" pan="0" len="12" vol="5" />
          <note key="72" pos="744" pan="0" len="12" vol="2" />
          <note key="72" pos="768" pan="0" len="12" vol="100" />
          <note key="77" pos="780" pan="0" len="12" vol="100" />
          <note key="79" pos="792" pan="0" len="12" vol="100" />
          <note key="81" pos="804" pan="0" len="12" vol="100" />
          <note key="79" pos="816" pan="0" len="12" vol="100" />
          <note key="77" pos="828" pan="0" len="12" vol="100" />
          <note key="72" pos="840" pan="0" len="12" vol="100" />
          <note key="69" pos="852" pan="0" len="12" vol="100" />
          <note key="72" pos="864" pan="0" len="12" vol="100" />
          <note key="77" pos="876" pan="0" len="12" vol="100" />
          <note key="79" pos="888" pan="0" len="12" vol="100" />
          <note key="81" pos="900" pan="0" len="12" vol="100" />
          <note key="79" pos="912" pan="0" len="12" vol="100" />
          <note key="77" pos="924" pan="0" len="12" vol="100" />
          <note key="72" pos="936" pan="0" len="12" vol="100" />
          <note key="69" pos="948" pan="0" len="12" vol="100" />
          <note key="72" pos="960" pan="0" len="12" vol="100" />
          <note key="77" pos="972" pan="0" len="12" vol="100" />
          <note key="79" pos="984" pan="0" len="12" vol="100" />
          <note key="81" pos="996" pan="0" len="12" vol="100" />
          <note key="79" pos="1008" pan="0" len="12" vol="100" />
          <note key="77" pos="1020" pan="0" len="12" vol="100" />
          <note key="72" pos="1032" pan="0" len="12" vol="100" />
          <note key="69" pos="1044" pan="0" len="12" vol="100" />
          <note key="72" pos="1056" pan="0" len="12" vol="100" />
          <note key="77" pos="1068" pan="0" len="12" vol="100" />
          <note key="79" pos="1080" pan="0" len="12" vol="100" />
          <note key="81" pos="1092" pan="0" len="12" vol="100" />
          <note key="79" pos="1104" pan="0" len="12" vol="100" />
          <note key="77" pos="1116" pan="0" len="12" vol="100" />
          <note key="72" pos="1128" pan="0" len="12" vol="100" />
          <note key="69" pos="1140" pan="0" len="12" vol="100" />
          <note key="72" pos="1152" pan="0" len="12" vol="100" />
          <note key="77" pos="1164" pan="0" len="12" vol="97" />
          <note key="79" pos="1176" pan="0" len="12" vol="94" />
          <note key="81" pos="1188" pan="0" len="12" vol="91" />
          <note key="79" pos="1200" pan="0" len="12" vol="88" />
          <note key="77" pos="1212" pan="0" len="12" vol="84" />
          <note key="72" pos="1224" pan="0" len="12" vol="80" />
          <note key="69" pos="1236" pan="0" len="12" vol="77" />
          <note key="72" pos="1248" pan="0" len="12" vol="73" />
          <note key="77" pos="1260" pan="0" len="12" vol="70" />
          <note key="79" pos="1272" pan="0" len="12" vol="67" />
          <note key="81" pos="1284" pan="0" len="12" vol="64" />
          <note key="79" pos="1296" pan="0" len="12" vol="61" />
          <note key="77" pos="1308" pan="0" len="12" vol="58" />
          <note key="72" pos="1320" pan="0" len="12" vol="55" />
          <note key="69" pos="1332" pan="0" len="12" vol="52" />
          <note key="72" pos="1344" pan="0" len="12" vol="47" />
          <note key="77" pos="1356" pan="0" len="12" vol="44" />
          <note key="79" pos="1368" pan="0" len="12" vol="41" />
          <note key="81" pos="1380" pan="0" len="12" vol="38" />
          <note key="79" pos="1392" pan="0" len="12" vol="34" />
          <note key="77" pos="1404" pan="0" len="12" vol="31" />
          <note key="72" pos="1416" pan="0" len="12" vol="28" />
          <note key="69" pos="1428" pan="0" len="12" vol="25" />
          <note key="72" pos="1440" pan="0" len="12" vol="22" />
          <note key="77" pos="1452" pan="0" len="12" vol="19" />
          <note key="79" pos="1464" pan="0" len="12" vol="14" />
          <note key="81" pos="1476" pan="0" len="12" vol="11" />
          <note key="79" pos="1488" pan="0" len="12" vol="8" />
          <note key="77" pos="1500" pan="0" len="12" vol="5" />
          <note key="72" pos="1512" pan="0" len="12" vol="2" />
        </pattern>
        <pattern pos="253824" muted="0" steps="16" name="" type="1">
          <note key="72" pos="0" pan="0" len="12" vol="100" />
          <note key="74" pos="12" pan="0" len="12" vol="100" />
          <note key="75" pos="24" pan="0" len="12" vol="100" />
          <note key="80" pos="36" pan="0" len="12" vol="100" />
          <note key="75" pos="48" pan="0" len="12" vol="100" />
          <note key="74" pos="60" pan="0" len="12" vol="100" />
          <note key="72" pos="72" pan="0" len="12" vol="100" />
          <note key="68" pos="84" pan="0" len="12" vol="100" />
          <note key="72" pos="96" pan="0" len="12" vol="100" />
          <note key="74" pos="108" pan="0" len="12" vol="100" />
          <note key="75" pos="120" pan="0" len="12" vol="100" />
          <note key="80" pos="132" pan="0" len="12" vol="100" />
          <note key="75" pos="144" pan="0" len="12" vol="100" />
          <note key="74" pos="156" pan="0" len="12" vol="100" />
          <note key="72" pos="168" pan="0" len="12" vol="100" />
          <note key="68" pos="180" pan="0" len="12" vol="100" />
          <note key="72" pos="192" pan="0" len="12" vol="100" />
          <note key="74" pos="204" pan="0" len="12" vol="100" />
          <note key="75" pos="216" pan="0" len="12" vol="100" />
          <note key="80" pos="228" pan="0" len="12" vol="100" />
          <note key="75" pos="240" pan="0" len="12" vol="100" />
          <note key="74" pos="252" pan="0" len="12" vol="100" />
          <note key="72" pos="264" pan="0" len="12" vol="100" />
          <note key="68" pos="276" pan="0" len="12" vol="100" />
          <note key="72" pos="288" pan="0" len="12" vol="100" />
          <note key="74" pos="300" pan="0" len="12" vol="100" />
          <note key="75" pos="312" pan="0" len="12" vol="100" />
          <note key="80" pos="324" pan="0" len="12" vol="100" />
          <note key="75" pos="336" pan="0" len="12" vol="100" />
          <note key="74" pos="348" pan="0" len="12" vol="100" />
          <note key="72" pos="360" pan="0" len="12" vol="100" />
          <note key="68" pos="372" pan="0" len="12" vol="100" />
          <note key="72" pos="384" pan="0" len="12" vol="100" />
          <note key="74" pos="396" pan="0" len="12" vol="97" />
          <note key="75" pos="408" pan="0" len="12" vol="94" />
          <note key="80" pos="420" pan="0" len="12" vol="91" />
          <note key="75" pos="432" pan="0" len="12" vol="88" />
          <note key="74" pos="444" pan="0" len="12" vol="84" />
          <note key="72" pos="456" pan="0" len="12" vol="80" />
          <note key="68" pos="468" pan="0" len="12" vol="77" />
          <note key="72" pos="480" pan="0" len="12" vol="73" />
          <note key="74" pos="492" pan="0" len="12" vol="70" />
          <note key="75" pos="504" pan="0" len="12" vol="67" />
          <note key="80" pos="516" pan="0" len="12" vol="64" />
          <note key="75" pos="528" pan="0" len="12" vol="61" />
          <note key="74" pos="540" pan="0" len="12" vol="58" />
          <note key="72" pos="552" pan="0" len="12" vol="55" />
          <note key="68" pos="564" pan="0" len="12" vol="52" />
          <note key="72" pos="576" pan="0" len="12" vol="47" />
          <note key="74" pos="588" pan="0" len="12" vol="44" />
          <note key="75" pos="600" pan="0" len="12" vol="41" />
          <note key="80" pos="612" pan="0" len="12" vol="38" />
          <note key="75" pos="624" pan="0" len="12" vol="34" />
          <note key="74" pos="636" pan="0" len="12" vol="31" />
          <note key="72" pos="648" pan="0" len="12" vol="28" />
          <note key="68" pos="660" pan="0" len="12" vol="25" />
          <note key="72" pos="672" pan="0" len="12" vol="22" />
          <note key="74" pos="684" pan="0" len="12" vol="19" />
          <note key="75" pos="696" pan="0" len="12" vol="14" />
          <note key="80" pos="708" pan="0" len="12" vol="11" />
          <note key="75" pos="720" pan="0" len="12" vol="8" />
          <note key="74" pos="732" pan="0" len="12" vol="5" />
          <note key="72" pos="744" pan="0" len="12" vol="2" />
          <note key="72" pos="768" pan="0" len="12" vol="100" />
          <note key="74" pos="780" pan="0" len="12" vol="100" />
          <note key="75" pos="792" pan="0" len="12" vol="100" />
          <note key="79" pos="804" pan="0" len="12" vol="100" />
          <note key="75" pos="816" pan="0" len="12" vol="100" />
          <note key="74" pos="828" pan="0" len="12" vol="100" />
          <note key="72" pos="840" pan="0" len="12" vol="100" />
          <note key="67" pos="852" pan="0" len="12" vol="100" />
          <note key="72" pos="864" pan="0" len="12" vol="100" />
          <note key="74" pos="876" pan="0" len="12" vol="100" />
          <note key="75" pos="888" pan="0" len="12" vol="100" />
          <note key="79" pos="900" pan="0" len="12" vol="100" />
          <note key="75" pos="912" pan="0" len="12" vol="100" />
          <note key="74" pos="924" pan="0" len="12" vol="100" />
          <note key="72" pos="936" pan="0" len="12" vol="100" />
          <note key="67" pos="948" pan="0" len="12" vol="100" />
          <note key="72" pos="960" pan="0" len="12" vol="100" />
          <note key="74" pos="972" pan="0" len="12" vol="100" />
          <note key="75" pos="984" pan="0" len="12" vol="100" />
          <note key="79" pos="996" pan="0" len="12" vol="100" />
          <note key="75" pos="1008" pan="0" len="12" vol="100" />
          <note key="74" pos="1020" pan="0" len="12" vol="100" />
          <note key="72" pos="1032" pan="0" len="12" vol="100" />
          <note key="67" pos="1044" pan="0" len="12" vol="100" />
          <note key="72" pos="1056" pan="0" len="12" vol="100" />
          <note key="74" pos="1068" pan="0" len="12" vol="100" />
          <note key="75" pos="1080" pan="0" len="12" vol="100" />
          <note key="79" pos="1092" pan="0" len="12" vol="100" />
          <note key="75" pos="1104" pan="0" len="12" vol="100" />
          <note key="74" pos="1116" pan="0" len="12" vol="100" />
          <note key="72" pos="1128" pan="0" len="12" vol="100" />
          <note key="67" pos="1140" pan="0" len="12" vol="100" />
          <note key="72" pos="1152" pan="0" len="12" vol="100" />
          <note key="74" pos="1164" pan="0" len="12" vol="97" />
          <note key="75" pos="1176" pan="0" len="12" vol="94" />
          <note key="79" pos="1188" pan="0" len="12" vol="91" />
          <note key="75" pos="1200" pan="0" len="12" vol="88" />
          <note key="74" pos="1212" pan="0" len="12" vol="84" />
          <note key="72" pos="1224" pan="0" len="12" vol="80" />
          <note key="67" pos="1236" pan="0" len="12" vol="77" />
          <note key="72" pos="1248" pan="0" len="12" vol="73" />
          <note key="74" pos="1260" pan="0" len="12" vol="70" />
          <note key="75" pos="1272" pan="0" len="12" vol="67" />
          <note key="79" pos="1284" pan="0" len="12" vol="64" />
          <note key="75" pos="1296" pan="0" len="12" vol="61" />
          <note key="74" pos="1308" pan="0" len="12" vol="58" />
          <note key="72" pos="1320" pan="0" len="12" vol="55" />
          <note key="67" pos="1332" pan="0" len="12" vol="52" />
          <note key="72" pos="1344" pan="0" len="12" vol="47" />
          <note key="74" pos="1356" pan="0" len="12" vol="44" />
          <note key="75" pos="1368" pan="0" len="12" vol="41" />
          <note key="79" pos="1380" pan="0" len="12" vol="38" />
          <note key="75" pos="1392" pan="0" len="12" vol="34" />
          <note key="74" pos="1404" pan="0" len="12" vol="31" />
          <note key="72" pos="1416" pan="0" len="12" vol="28" />
          <note key="67" pos="1428" pan="0" len="12" vol="25" />
          <note key="72" pos="1440" pan="0" len="12" vol="22" />
          <note key="74" pos="1452" pan="0" len="12" vol="19" />
          <note key="75" pos="1464" pan="0" len="12" vol="14" />
          <note key="79" pos="1476" pan="0" len="12" vol="11" />
          <note key="75" pos="1488" pan="0" len="12" vol="8" />
          <note key="74" pos="1500" pan="0" len="12" vol="5" />
          <note key="72" pos="1512" pan="0" len="12" vol="2" />
        </pattern>
        <pattern pos="255360" muted="0" steps="16" name="" type="1">
          <note key="72" pos="0" pan="0" len="12" vol="100" />
          <note key="74" pos="12" pan="0" len="12" vol="100" />
          <note key="75" pos="24" pan="0" len="12" vol="100" />
          <note key="79" pos="36" pan="0" len="12" vol="100" />
          <note key="75" pos="48" pan="0" len="12" vol="100" />
          <note key="74" pos="60" pan="0" len="12" vol="100" />
          <note key="72" pos="72" pan="0" len="12" vol="100" />
          <note key="67" pos="84" pan="0" len="12" vol="100" />
          <note key="72" pos="96" pan="0" len="12" vol="100" />
          <note key="74" pos="108" pan="0" len="12" vol="100" />
          <note key="75" pos="120" pan="0" len="12" vol="100" />
          <note key="79" pos="132" pan="0" len="12" vol="100" />
          <note key="75" pos="144" pan="0" len="12" vol="100" />
          <note key="74" pos="156" pan="0" len="12" vol="100" />
          <note key="72" pos="168" pan="0" len="12" vol="100" />
          <note key="67" pos="180" pan="0" len="12" vol="100" />
          <note key="72" pos="192" pan="0" len="12" vol="100" />
          <note key="74" pos="204" pan="0" len="12" vol="100" />
          <note key="75" pos="216" pan="0" len="12" vol="100" />
          <note key="79" pos="228" pan="0" len="12" vol="100" />
          <note key="75" pos="240" pan="0" len="12" vol="100" />
          <note key="74" pos="252" pan="0" len="12" vol="100" />
          <note key="72" pos="264" pan="0" len="12" vol="100" />
          <note key="67" pos="276" pan="0" len="12" vol="100" />
          <note key="72" pos="288" pan="0" len="12" vol="100" />
          <note key="74" pos="300" pan="0" len="12" vol="100" />
          <note key="75" pos="312" pan="0" len="12" vol="100" />
          <note key="79" pos="324" pan="0" len="12" vol="100" />
          <note key="75" pos="336" pan="0" len="12" vol="100" />
          <note key="74" pos="348" pan="0" len="12" vol="100" />
          <note key="72" pos="360" pan="0" len="12" vol="100" />
          <note key="67" pos="372" pan="0" len="12" vol="100" />
          <note key="72" pos="384" pan="0" len="12" vol="100" />
          <note key="74" pos="396" pan="0" len="12" vol="97" />
          <note key="75" pos="408" pan="0" len="12" vol="94" />
          <note key="79" pos="420" pan="0" len="12" vol="91" />
          <note key="75" pos="432" pan="0" len="12" vol="88" />
          <note key="74" pos="444" pan="0" len="12" vol="84" />
          <note key="72" pos="456" pan="0" len="12" vol="80" />
          <note key="67" pos="468" pan="0" len="12" vol="77" />
          <note key="72" pos="480" pan="0" len="12" vol="73" />
          <note key="74" pos="492" pan="0" len="12" vol="70" />
          <note key="75" pos="504" pan="0" len="12" vol="67" />
          <note key="79" pos="516" pan="0" len="12" vol="64" />
          <note key="75" pos="528" pan="0" len="12" vol="61" />
          <note key="74" pos="540" pan="0" len="12" vol="58" />
          <note key="72" pos="552" pan="0" len="12" vol="55" />
          <note key="67" pos="564" pan="0" len="12" vol="52" />
          <note key="72" pos="576" pan="0" len="12" vol="47" />
          <note key="74" pos="588" pan="0" len="12" vol="44" />
          <note key="75" pos="600" pan="0" len="12" vol="41" />
          <note key="79" pos="612" pan="0" len="12" vol="38" />
          <note key="75" pos="624" pan="0" len="12" vol="34" />
          <note key="74" pos="636" pan="0" len="12" vol="31" />
          <note key="72" pos="648" pan="0" len="12" vol="28" />
          <note key="67" pos="660" pan="0" len="12" vol="25" />
          <note key="72" pos="672" pan="0" len="12" vol="22" />
          <note key="74" pos="684" pan="0" len="12" vol="19" />
          <note key="75" pos="696" pan="0" len="12" vol="14" />
          <note key="79" pos="708" pan="0" len="12" vol="11" />
          <note key="75" pos="720" pan="0" len="12" vol="8" />
          <note key="74" pos="732" pan="0" len="12" vol="5" />
          <note key="72" pos="744" pan="0" len="12" vol="2" />
          <note key="72" pos="768" pan="0" len="12" vol="100" />
          <note key="77" pos="780" pan="0" len="12" vol="100" />
          <note key="79" pos="792" pan="0" len="12" vol="100" />
          <note key="81" pos="804" pan="0" len="12" vol="100" />
          <note key="79" pos="816" pan="0" len="12" vol="100" />
          <note key="77" pos="828" pan="0" len="12" vol="100" />
          <note key="72" pos="840" pan="0" len="12" vol="100" />
          <note key="69" pos="852" pan="0" len="12" vol="100" />
          <note key="72" pos="864" pan="0" len="12" vol="100" />
          <note key="77" pos="876" pan="0" len="12" vol="100" />
          <note key="79" pos="888" pan="0" len="12" vol="100" />
          <note key="81" pos="900" pan="0" len="12" vol="100" />
          <note key="79" pos="912" pan="0" len="12" vol="100" />
          <note key="77" pos="924" pan="0" len="12" vol="100" />
          <note key="72" pos="936" pan="0" len="12" vol="100" />
          <note key="69" pos="948" pan="0" len="12" vol="100" />
          <note key="72" pos="960" pan="0" len="12" vol="100" />
          <note key="77" pos="972" pan="0" len="12" vol="100" />
          <note key="79" pos="984" pan="0" len="12" vol="100" />
          <note key="81" pos="996" pan="0" len="12" vol="100" />
          <note key="79" pos="1008" pan="0" len="12" vol="100" />
          <note key="77" pos="1020" pan="0" len="12" vol="100" />
          <note key="72" pos="1032" pan="0" len="12" vol="100" />
          <note key="69" pos="1044" pan="0" len="12" vol="100" />
          <note key="72" pos="1056" pan="0" len="12" vol="100" />
          <note key="77" pos="1068" pan="0" len="12" vol="100" />
          <note key="79" pos="1080" pan="0" len="12" vol="100" />
          <note key="81" pos="1092" pan="0" len="12" vol="100" />
          <note key="79" pos="1104" pan="0" len="12" vol="100" />
          <note key="77" pos="1116" pan="0" len="12" vol="100" />
          <note key="72" pos="1128" pan="0" len="12" vol="100" />
          <note key="69" pos="1140" pan="0" len="12" vol="100" />
          <note key="72" pos="1152" pan="0" len="12" vol="100" />
          <note key="77" pos="1164" pan="0" len="12" vol="97" />
          <note key="79" pos="1176" pan="0" len="12" vol="94" />
          <note key="81" pos="1188" pan="0" len="12" vol="91" />
          <note key="79" pos="1200" pan="0" len="12" vol="88" />
          <note key="77" pos="1212" pan="0" len="12" vol="84" />
          <note key="72" pos="1224" pan="0" len="12" vol="80" />
          <note key="69" pos="1236" pan="0" len="12" vol="77" />
          <note key="72" pos="1248" pan="0" len="12" vol="73" />
          <note key="77" pos="1260" pan="0" len="12" vol="70" />
          <note key="79" pos="1272" pan="0" len="12" vol="67" />
          <note key="81" pos="1284" pan="0" len="12" vol="64" />
          <note key="79" pos="1296" pan="0" len="12" vol="61" />
          <note key="77" pos="1308" pan="0" len="12" vol="58" />
          <note key="72" pos="1320" pan="0" len="12" vol="55" />
          <note key="69" pos="1332" pan="0" len="12" vol="52" />
          <note key="72" pos="1344" pan="0" len="12" vol="47" />
          <note key="77" pos="1356" pan="0" len="12" vol="44" />
          <note key="79" pos="1368" pan="0" len="12" vol="41" />
          <note key="81" pos="1380" pan="0" len="12" vol="38" />
          <note key="79" pos="1392" pan="0" len="12" vol="34" />
          <note key="77" pos="1404" pan="0" len="12" vol="31" />
          <note key="72" pos="1416" pan="0" len="12" vol="28" />
          <note key="69" pos="1428" pan="0" len="12" vol="25" />
          <note key="72" pos="1440" pan="0" len="12" vol="22" />
          <note key="77" pos="1452" pan="0" len="12" vol="19" />
          <note key="79" pos="1464" pan="0" len="12" vol="14" />
          <note key="81" pos="1476" pan="0" len="12" vol="11" />
          <note key="79" pos="1488" pan="0" len="12" vol="8" />
          <note key="77" pos="1500" pan="0" len="12" vol="5" />
          <note key="72" pos="1512" pan="0" len="12" vol="2" />
        </pattern>
      </track>
      <track solo="0" name="51 (Ch10)" type="0" muted="0">
        <instrumenttrack usemasterpitch="1" pitch="0.0" basenote="57" pan="0" pitchrange="12" vol="30">
          <eldata />
          <instrument name="tripleoscillator" />
        </instrumenttrack>
        <pattern pos="161280" muted="0" steps="16" name="" type="1">
          <note key="70" pos="0" pan="0" len="768" vol="17" />
          <note key="70" pos="768" pan="0" len="768" vol="16" />
        </pattern>
        <pattern pos="141312" muted="0" steps="16" name="" type="1">
          <note key="70" pos="0" pan="0" len="576" vol="17" />
          <note key="69" pos="576" pan="0" len="192" vol="17" />
          <note key="70" pos="768" pan="0" len="576" vol="17" />
          <note key="69" pos="1344" pan="0" len="192" vol="17" />
        </pattern>
        <pattern pos="142848" muted="0" steps="16" name="" type="1">
          <note key="70" pos="0" pan="0" len="576" vol="17" />
          <note key="69" pos="576" pan="0" len="192" vol="17" />
          <note key="70" pos="768" pan="0" len="576" vol="17" />
          <note key="69" pos="1344" pan="0" len="192" vol="17" />
        </pattern>
        <pattern pos="144384" muted="0" steps="16" name="" type="1">
          <note key="70" pos="0" pan="0" len="576" vol="17" />
          <note key="69" pos="576" pan="0" len="192" vol="17" />
          <note key="70" pos="768" pan="0" len="576" vol="17" />
          <note key="69" pos="1344" pan="0" len="192" vol="17" />
        </pattern>
        <pattern pos="148992" muted="0" steps="16" name="" type="1">
          <note key="70" pos="0" pan="0" len="576" vol="17" />
          <note key="69" pos="576" pan="0" len="192" vol="17" />
          <note key="70" pos="768" pan="0" len="576" vol="17" />
          <note key="69" pos="1344" pan="0" len="192" vol="17" />
        </pattern>
        <pattern pos="150528" muted="0" steps="16" name="" type="1">
          <note key="70" pos="0" pan="0" len="576" vol="17" />
          <note key="69" pos="576" pan="0" len="192" vol="17" />
          <note key="70" pos="768" pan="0" len="576" vol="17" />
          <note key="69" pos="1344" pan="0" len="192" vol="17" />
        </pattern>
        <pattern pos="155136" muted="0" steps="16" name="" type="1">
          <note key="70" pos="0" pan="0" len="576" vol="17" />
          <note key="69" pos="576" pan="0" len="192" vol="17" />
          <note key="70" pos="768" pan="0" len="576" vol="17" />
          <note key="69" pos="1344" pan="0" len="192" vol="17" />
        </pattern>
        <pattern pos="156672" muted="0" steps="16" name="" type="1">
          <note key="70" pos="0" pan="0" len="576" vol="17" />
          <note key="69" pos="576" pan="0" len="192" vol="17" />
          <note key="70" pos="768" pan="0" len="576" vol="17" />
          <note key="69" pos="1344" pan="0" len="192" vol="17" />
        </pattern>
      </track>
      <track solo="0" name="51 (Ch11)" type="0" muted="0">
        <instrumenttrack usemasterpitch="1" pitch="0.0" basenote="57" pan="0" pitchrange="12" vol="30">
          <eldata />
          <instrument name="tripleoscillator" />
        </instrumenttrack>
        <pattern pos="250752" muted="0" steps="16" name="" type="1">
          <note key="79" pos="0" pan="0" len="12" vol="100" />
          <note key="81" pos="12" pan="0" len="12" vol="100" />
          <note key="82" pos="24" pan="0" len="12" vol="100" />
          <note key="86" pos="36" pan="0" len="12" vol="100" />
          <note key="82" pos="48" pan="0" len="12" vol="100" />
          <note key="81" pos="60" pan="0" len="12" vol="100" />
          <note key="79" pos="72" pan="0" len="12" vol="100" />
          <note key="74" pos="84" pan="0" len="12" vol="100" />
          <note key="79" pos="96" pan="0" len="12" vol="100" />
          <note key="81" pos="108" pan="0" len="12" vol="100" />
          <note key="82" pos="120" pan="0" len="12" vol="100" />
          <note key="86" pos="132" pan="0" len="12" vol="100" />
          <note key="82" pos="144" pan="0" len="12" vol="100" />
          <note key="81" pos="156" pan="0" len="12" vol="100" />
          <note key="79" pos="168" pan="0" len="12" vol="100" />
          <note key="74" pos="180" pan="0" len="12" vol="100" />
          <note key="79" pos="192" pan="0" len="12" vol="100" />
          <note key="81" pos="204" pan="0" len="12" vol="100" />
          <note key="82" pos="216" pan="0" len="12" vol="100" />
          <note key="86" pos="228" pan="0" len="12" vol="100" />
          <note key="82" pos="240" pan="0" len="12" vol="100" />
          <note key="81" pos="252" pan="0" len="12" vol="100" />
          <note key="79" pos="264" pan="0" len="12" vol="100" />
          <note key="74" pos="276" pan="0" len="12" vol="100" />
          <note key="79" pos="288" pan="0" len="12" vol="100" />
          <note key="81" pos="300" pan="0" len="12" vol="100" />
          <note key="82" pos="312" pan="0" len="12" vol="100" />
          <note key="86" pos="324" pan="0" len="12" vol="100" />
          <note key="82" pos="336" pan="0" len="12" vol="100" />
          <note key="81" pos="348" pan="0" len="12" vol="100" />
          <note key="79" pos="360" pan="0" len="12" vol="100" />
          <note key="74" pos="372" pan="0" len="12" vol="100" />
          <note key="79" pos="384" pan="0" len="12" vol="100" />
          <note key="81" pos="396" pan="0" len="12" vol="97" />
          <note key="82" pos="408" pan="0" len="12" vol="94" />
          <note key="86" pos="420" pan="0" len="12" vol="91" />
          <note key="82" pos="432" pan="0" len="12" vol="88" />
          <note key="81" pos="444" pan="0" len="12" vol="84" />
          <note key="79" pos="456" pan="0" len="12" vol="80" />
          <note key="74" pos="468" pan="0" len="12" vol="77" />
          <note key="79" pos="480" pan="0" len="12" vol="73" />
          <note key="81" pos="492" pan="0" len="12" vol="70" />
          <note key="82" pos="504" pan="0" len="12" vol="67" />
          <note key="86" pos="516" pan="0" len="12" vol="64" />
          <note key="82" pos="528" pan="0" len="12" vol="61" />
          <note key="81" pos="540" pan="0" len="12" vol="58" />
          <note key="79" pos="552" pan="0" len="12" vol="55" />
          <note key="74" pos="564" pan="0" len="12" vol="52" />
          <note key="75" pos="576" pan="0" len="12" vol="47" />
          <note key="77" pos="588" pan="0" len="12" vol="44" />
          <note key="78" pos="600" pan="0" len="12" vol="41" />
          <note key="82" pos="612" pan="0" len="12" vol="38" />
          <note key="78" pos="624" pan="0" len="12" vol="34" />
          <note key="77" pos="636" pan="0" len="12" vol="31" />
          <note key="75" pos="648" pan="0" len="12" vol="28" />
          <note key="70" pos="660" pan="0" len="12" vol="25" />
          <note key="75" pos="672" pan="0" len="12" vol="22" />
          <note key="77" pos="684" pan="0" len="12" vol="19" />
          <note key="78" pos="696" pan="0" len="12" vol="14" />
          <note key="82" pos="708" pan="0" len="12" vol="11" />
          <note key="78" pos="720" pan="0" len="12" vol="8" />
          <note key="77" pos="732" pan="0" len="12" vol="5" />
          <note key="75" pos="744" pan="0" len="12" vol="2" />
          <note key="80" pos="768" pan="0" len="12" vol="100" />
          <note key="82" pos="780" pan="0" len="12" vol="100" />
          <note key="84" pos="792" pan="0" len="12" vol="100" />
          <note key="87" pos="804" pan="0" len="12" vol="100" />
          <note key="84" pos="816" pan="0" len="12" vol="100" />
          <note key="82" pos="828" pan="0" len="12" vol="100" />
          <note key="80" pos="840" pan="0" len="12" vol="100" />
          <note key="75" pos="852" pan="0" len="12" vol="100" />
          <note key="80" pos="864" pan="0" len="12" vol="100" />
          <note key="82" pos="876" pan="0" len="12" vol="100" />
          <note key="84" pos="888" pan="0" len="12" vol="100" />
          <note key="87" pos="900" pan="0" len="12" vol="100" />
          <note key="84" pos="912" pan="0" len="12" vol="100" />
          <note key="82" pos="924" pan="0" len="12" vol="100" />
          <note key="80" pos="936" pan="0" len="12" vol="100" />
          <note key="75" pos="948" pan="0" len="12" vol="100" />
          <note key="80" pos="960" pan="0" len="12" vol="100" />
          <note key="82" pos="972" pan="0" len="12" vol="100" />
          <note key="84" pos="984" pan="0" len="12" vol="100" />
          <note key="87" pos="996" pan="0" len="12" vol="100" />
          <note key="84" pos="1008" pan="0" len="12" vol="100" />
          <note key="82" pos="1020" pan="0" len="12" vol="100" />
          <note key="80" pos="1032" pan="0" len="12" vol="100" />
          <note key="75" pos="1044" pan="0" len="12" vol="100" />
          <note key="80" pos="1056" pan="0" len="12" vol="100" />
          <note key="82" pos="1068" pan="0" len="12" vol="100" />
          <note key="84" pos="1080" pan="0" len="12" vol="100" />
          <note key="87" pos="1092" pan="0" len="12" vol="100" />
          <note key="84" pos="1104" pan="0" len="12" vol="100" />
          <note key="82" pos="1116" pan="0" len="12" vol="100" />
          <note key="80" pos="1128" pan="0" len="12" vol="100" />
          <note key="75" pos="1140" pan="0" len="12" vol="100" />
          <note key="80" pos="1152" pan="0" len="12" vol="100" />
          <note key="82" pos="1164" pan="0" len="12" vol="97" />
          <note key="84" pos="1176" pan="0" len="12" vol="94" />
          <note key="87" pos="1188" pan="0" len="12" vol="91" />
          <note key="84" pos="1200" pan="0" len="12" vol="88" />
          <note key="82" pos="1212" pan="0" len="12" vol="84" />
          <note key="80" pos="1224" pan="0" len="12" vol="80" />
          <note key="75" pos="1236" pan="0" len="12" vol="77" />
          <note key="80" pos="1248" pan="0" len="12" vol="73" />
          <note key="82" pos="1260" pan="0" len="12" vol="70" />
          <note key="84" pos="1272" pan="0" len="12" vol="67" />
          <note key="87" pos="1284" pan="0" len="12" vol="64" />
          <note key="84" pos="1296" pan="0" len="12" vol="61" />
          <note key="82" pos="1308" pan="0" len="12" vol="58" />
          <note key="80" pos="1320" pan="0" len="12" vol="55" />
          <note key="75" pos="1332" pan="0" len="12" vol="52" />
          <note key="80" pos="1344" pan="0" len="12" vol="47" />
          <note key="82" pos="1356" pan="0" len="12" vol="44" />
          <note key="84" pos="1368" pan="0" len="12" vol="41" />
          <note key="87" pos="1380" pan="0" len="12" vol="38" />
          <note key="84" pos="1392" pan="0" len="12" vol="34" />
          <note key="82" pos="1404" pan="0" len="12" vol="31" />
          <note key="80" pos="1416" pan="0" len="12" vol="28" />
          <note key="75" pos="1428" pan="0" len="12" vol="25" />
          <note key="80" pos="1440" pan="0" len="12" vol="22" />
          <note key="82" pos="1452" pan="0" len="12" vol="19" />
          <note key="84" pos="1464" pan="0" len="12" vol="14" />
          <note key="87" pos="1476" pan="0" len="12" vol="11" />
          <note key="84" pos="1488" pan="0" len="12" vol="8" />
          <note key="82" pos="1500" pan="0" len="12" vol="5" />
          <note key="80" pos="1512" pan="0" len="12" vol="2" />
        </pattern>
        <pattern pos="139776" muted="0" steps="16" name="" type="1">
          <note key="70" pos="768" pan="0" len="768" vol="34" />
        </pattern>
        <pattern pos="244608" muted="0" steps="16" name="" type="1">
          <note key="84" pos="0" pan="0" len="12" vol="50" />
          <note key="86" pos="12" pan="0" len="12" vol="50" />
          <note key="87" pos="24" pan="0" len="12" vol="50" />
          <note key="91" pos="36" pan="0" len="12" vol="50" />
          <note key="87" pos="48" pan="0" len="12" vol="50" />
          <note key="86" pos="60" pan="0" len="12" vol="50" />
          <note key="84" pos="72" pan="0" len="12" vol="50" />
          <note key="79" pos="84" pan="0" len="12" vol="50" />
          <note key="84" pos="96" pan="0" len="12" vol="50" />
          <note key="86" pos="108" pan="0" len="12" vol="50" />
          <note key="87" pos="120" pan="0" len="12" vol="50" />
          <note key="91" pos="132" pan="0" len="12" vol="50" />
          <note key="87" pos="144" pan="0" len="12" vol="50" />
          <note key="86" pos="156" pan="0" len="12" vol="50" />
          <note key="84" pos="168" pan="0" len="12" vol="50" />
          <note key="79" pos="180" pan="0" len="12" vol="50" />
          <note key="84" pos="192" pan="0" len="12" vol="50" />
          <note key="86" pos="204" pan="0" len="12" vol="50" />
          <note key="87" pos="216" pan="0" len="12" vol="50" />
          <note key="91" pos="228" pan="0" len="12" vol="50" />
          <note key="87" pos="240" pan="0" len="12" vol="50" />
          <note key="86" pos="252" pan="0" len="12" vol="50" />
          <note key="84" pos="264" pan="0" len="12" vol="50" />
          <note key="79" pos="276" pan="0" len="12" vol="50" />
          <note key="84" pos="288" pan="0" len="12" vol="50" />
          <note key="86" pos="300" pan="0" len="12" vol="50" />
          <note key="87" pos="312" pan="0" len="12" vol="50" />
          <note key="91" pos="324" pan="0" len="12" vol="50" />
          <note key="87" pos="336" pan="0" len="12" vol="50" />
          <note key="86" pos="348" pan="0" len="12" vol="50" />
          <note key="84" pos="360" pan="0" len="12" vol="50" />
          <note key="79" pos="372" pan="0" len="12" vol="50" />
          <note key="84" pos="384" pan="0" len="12" vol="50" />
          <note key="86" pos="396" pan="0" len="12" vol="48" />
          <note key="87" pos="408" pan="0" len="12" vol="47" />
          <note key="91" pos="420" pan="0" len="12" vol="45" />
          <note key="87" pos="432" pan="0" len="12" vol="44" />
          <note key="86" pos="444" pan="0" len="12" vol="42" />
          <note key="84" pos="456" pan="0" len="12" vol="41" />
          <note key="79" pos="468" pan="0" len="12" vol="39" />
          <note key="84" pos="480" pan="0" len="12" vol="38" />
          <note key="86" pos="492" pan="0" len="12" vol="36" />
          <note key="87" pos="504" pan="0" len="12" vol="34" />
          <note key="91" pos="516" pan="0" len="12" vol="33" />
          <note key="87" pos="528" pan="0" len="12" vol="31" />
          <note key="86" pos="540" pan="0" len="12" vol="30" />
          <note key="84" pos="552" pan="0" len="12" vol="28" />
          <note key="79" pos="564" pan="0" len="12" vol="27" />
          <note key="84" pos="576" pan="0" len="12" vol="23" />
          <note key="86" pos="588" pan="0" len="12" vol="22" />
          <note key="87" pos="600" pan="0" len="12" vol="20" />
          <note key="91" pos="612" pan="0" len="12" vol="19" />
          <note key="87" pos="624" pan="0" len="12" vol="17" />
          <note key="86" pos="636" pan="0" len="12" vol="16" />
          <note key="84" pos="648" pan="0" len="12" vol="14" />
          <note key="79" pos="660" pan="0" len="12" vol="12" />
          <note key="84" pos="672" pan="0" len="12" vol="11" />
          <note key="86" pos="684" pan="0" len="12" vol="9" />
          <note key="87" pos="696" pan="0" len="12" vol="8" />
          <note key="91" pos="708" pan="0" len="12" vol="6" />
          <note key="87" pos="720" pan="0" len="12" vol="5" />
          <note key="86" pos="732" pan="0" len="12" vol="3" />
          <note key="84" pos="744" pan="0" len="12" vol="2" />
          <note key="82" pos="768" pan="0" len="12" vol="50" />
          <note key="84" pos="780" pan="0" len="12" vol="50" />
          <note key="86" pos="792" pan="0" len="12" vol="50" />
          <note key="89" pos="804" pan="0" len="12" vol="50" />
          <note key="86" pos="816" pan="0" len="12" vol="50" />
          <note key="84" pos="828" pan="0" len="12" vol="50" />
          <note key="82" pos="840" pan="0" len="12" vol="50" />
          <note key="77" pos="852" pan="0" len="12" vol="50" />
          <note key="82" pos="864" pan="0" len="12" vol="50" />
          <note key="84" pos="876" pan="0" len="12" vol="50" />
          <note key="86" pos="888" pan="0" len="12" vol="50" />
          <note key="89" pos="900" pan="0" len="12" vol="50" />
          <note key="86" pos="912" pan="0" len="12" vol="50" />
          <note key="84" pos="924" pan="0" len="12" vol="50" />
          <note key="82" pos="936" pan="0" len="12" vol="50" />
          <note key="77" pos="948" pan="0" len="12" vol="50" />
          <note key="82" pos="960" pan="0" len="12" vol="50" />
          <note key="84" pos="972" pan="0" len="12" vol="50" />
          <note key="86" pos="984" pan="0" len="12" vol="50" />
          <note key="89" pos="996" pan="0" len="12" vol="50" />
          <note key="86" pos="1008" pan="0" len="12" vol="50" />
          <note key="84" pos="1020" pan="0" len="12" vol="50" />
          <note key="82" pos="1032" pan="0" len="12" vol="50" />
          <note key="77" pos="1044" pan="0" len="12" vol="50" />
          <note key="82" pos="1056" pan="0" len="12" vol="50" />
          <note key="84" pos="1068" pan="0" len="12" vol="50" />
          <note key="86" pos="1080" pan="0" len="12" vol="50" />
          <note key="89" pos="1092" pan="0" len="12" vol="50" />
          <note key="86" pos="1104" pan="0" len="12" vol="50" />
          <note key="84" pos="1116" pan="0" len="12" vol="50" />
          <note key="82" pos="1128" pan="0" len="12" vol="50" />
          <note key="77" pos="1140" pan="0" len="12" vol="50" />
          <note key="82" pos="1152" pan="0" len="12" vol="50" />
          <note key="84" pos="1164" pan="0" len="12" vol="48" />
          <note key="86" pos="1176" pan="0" len="12" vol="47" />
          <note key="89" pos="1188" pan="0" len="12" vol="45" />
          <note key="86" pos="1200" pan="0" len="12" vol="44" />
          <note key="84" pos="1212" pan="0" len="12" vol="42" />
          <note key="82" pos="1224" pan="0" len="12" vol="41" />
          <note key="77" pos="1236" pan="0" len="12" vol="39" />
          <note key="82" pos="1248" pan="0" len="12" vol="38" />
          <note key="84" pos="1260" pan="0" len="12" vol="36" />
          <note key="86" pos="1272" pan="0" len="12" vol="34" />
          <note key="89" pos="1284" pan="0" len="12" vol="33" />
          <note key="86" pos="1296" pan="0" len="12" vol="31" />
          <note key="84" pos="1308" pan="0" len="12" vol="30" />
          <note key="82" pos="1320" pan="0" len="12" vol="28" />
          <note key="77" pos="1332" pan="0" len="12" vol="27" />
          <note key="82" pos="1344" pan="0" len="12" vol="23" />
          <note key="84" pos="1356" pan="0" len="12" vol="22" />
          <note key="86" pos="1368" pan="0" len="12" vol="20" />
          <note key="89" pos="1380" pan="0" len="12" vol="19" />
          <note key="86" pos="1392" pan="0" len="12" vol="17" />
          <note key="84" pos="1404" pan="0" len="12" vol="16" />
          <note key="82" pos="1416" pan="0" len="12" vol="14" />
          <note key="77" pos="1428" pan="0" len="12" vol="12" />
          <note key="82" pos="1440" pan="0" len="12" vol="11" />
          <note key="84" pos="1452" pan="0" len="12" vol="9" />
          <note key="86" pos="1464" pan="0" len="12" vol="8" />
          <note key="89" pos="1476" pan="0" len="12" vol="6" />
          <note key="86" pos="1488" pan="0" len="12" vol="5" />
          <note key="84" pos="1500" pan="0" len="12" vol="3" />
          <note key="82" pos="1512" pan="0" len="24" vol="2" />
        </pattern>
        <pattern pos="246144" muted="0" steps="16" name="" type="1">
          <note key="79" pos="0" pan="0" len="12" vol="50" />
          <note key="81" pos="12" pan="0" len="12" vol="50" />
          <note key="82" pos="24" pan="0" len="12" vol="50" />
          <note key="86" pos="36" pan="0" len="12" vol="50" />
          <note key="82" pos="48" pan="0" len="12" vol="50" />
          <note key="81" pos="60" pan="0" len="12" vol="50" />
          <note key="79" pos="72" pan="0" len="12" vol="50" />
          <note key="74" pos="84" pan="0" len="12" vol="50" />
          <note key="79" pos="96" pan="0" len="12" vol="50" />
          <note key="81" pos="108" pan="0" len="12" vol="50" />
          <note key="82" pos="120" pan="0" len="12" vol="50" />
          <note key="86" pos="132" pan="0" len="12" vol="50" />
          <note key="82" pos="144" pan="0" len="12" vol="50" />
          <note key="81" pos="156" pan="0" len="12" vol="50" />
          <note key="79" pos="168" pan="0" len="12" vol="50" />
          <note key="74" pos="180" pan="0" len="12" vol="50" />
          <note key="79" pos="192" pan="0" len="12" vol="50" />
          <note key="81" pos="204" pan="0" len="12" vol="50" />
          <note key="82" pos="216" pan="0" len="12" vol="50" />
          <note key="86" pos="228" pan="0" len="12" vol="50" />
          <note key="82" pos="240" pan="0" len="12" vol="50" />
          <note key="81" pos="252" pan="0" len="12" vol="50" />
          <note key="79" pos="264" pan="0" len="12" vol="50" />
          <note key="74" pos="276" pan="0" len="12" vol="50" />
          <note key="79" pos="288" pan="0" len="12" vol="50" />
          <note key="81" pos="300" pan="0" len="12" vol="50" />
          <note key="82" pos="312" pan="0" len="12" vol="50" />
          <note key="86" pos="324" pan="0" len="12" vol="50" />
          <note key="82" pos="336" pan="0" len="12" vol="50" />
          <note key="81" pos="348" pan="0" len="12" vol="50" />
          <note key="79" pos="360" pan="0" len="12" vol="50" />
          <note key="74" pos="372" pan="0" len="12" vol="50" />
          <note key="79" pos="384" pan="0" len="12" vol="50" />
          <note key="81" pos="396" pan="0" len="12" vol="48" />
          <note key="82" pos="408" pan="0" len="12" vol="47" />
          <note key="86" pos="420" pan="0" len="12" vol="45" />
          <note key="82" pos="432" pan="0" len="12" vol="44" />
          <note key="81" pos="444" pan="0" len="12" vol="42" />
          <note key="79" pos="456" pan="0" len="12" vol="41" />
          <note key="74" pos="468" pan="0" len="12" vol="39" />
          <note key="79" pos="480" pan="0" len="12" vol="38" />
          <note key="81" pos="492" pan="0" len="12" vol="36" />
          <note key="82" pos="504" pan="0" len="12" vol="34" />
          <note key="86" pos="516" pan="0" len="12" vol="33" />
          <note key="82" pos="528" pan="0" len="12" vol="31" />
          <note key="81" pos="540" pan="0" len="12" vol="30" />
          <note key="79" pos="552" pan="0" len="12" vol="28" />
          <note key="74" pos="564" pan="0" len="12" vol="27" />
          <note key="75" pos="576" pan="0" len="12" vol="23" />
          <note key="77" pos="588" pan="0" len="12" vol="22" />
          <note key="78" pos="600" pan="0" len="12" vol="20" />
          <note key="82" pos="612" pan="0" len="12" vol="19" />
          <note key="78" pos="624" pan="0" len="12" vol="17" />
          <note key="77" pos="636" pan="0" len="12" vol="16" />
          <note key="75" pos="648" pan="0" len="12" vol="14" />
          <note key="70" pos="660" pan="0" len="12" vol="12" />
          <note key="75" pos="672" pan="0" len="12" vol="11" />
          <note key="77" pos="684" pan="0" len="12" vol="9" />
          <note key="78" pos="696" pan="0" len="12" vol="8" />
          <note key="82" pos="708" pan="0" len="12" vol="6" />
          <note key="78" pos="720" pan="0" len="12" vol="5" />
          <note key="77" pos="732" pan="0" len="12" vol="3" />
          <note key="75" pos="744" pan="0" len="12" vol="2" />
          <note key="80" pos="768" pan="0" len="12" vol="50" />
          <note key="82" pos="780" pan="0" len="12" vol="50" />
          <note key="84" pos="792" pan="0" len="12" vol="50" />
          <note key="87" pos="804" pan="0" len="12" vol="50" />
          <note key="84" pos="816" pan="0" len="12" vol="50" />
          <note key="82" pos="828" pan="0" len="12" vol="50" />
          <note key="80" pos="840" pan="0" len="12" vol="50" />
          <note key="75" pos="852" pan="0" len="12" vol="50" />
          <note key="80" pos="864" pan="0" len="12" vol="50" />
          <note key="82" pos="876" pan="0" len="12" vol="50" />
          <note key="84" pos="888" pan="0" len="12" vol="50" />
          <note key="87" pos="900" pan="0" len="12" vol="50" />
          <note key="84" pos="912" pan="0" len="12" vol="50" />
          <note key="82" pos="924" pan="0" len="12" vol="50" />
          <note key="80" pos="936" pan="0" len="12" vol="50" />
          <note key="75" pos="948" pan="0" len="12" vol="50" />
          <note key="80" pos="960" pan="0" len="12" vol="50" />
          <note key="82" pos="972" pan="0" len="12" vol="50" />
          <note key="84" pos="984" pan="0" len="12" vol="50" />
          <note key="87" pos="996" pan="0" len="12" vol="50" />
          <note key="84" pos="1008" pan="0" len="12" vol="50" />
          <note key="82" pos="1020" pan="0" len="12" vol="50" />
          <note key="80" pos="1032" pan="0" len="12" vol="50" />
          <note key="75" pos="1044" pan="0" len="12" vol="50" />
          <note key="80" pos="1056" pan="0" len="12" vol="50" />
          <note key="82" pos="1068" pan="0" len="12" vol="50" />
          <note key="84" pos="1080" pan="0" len="12" vol="50" />
          <note key="87" pos="1092" pan="0" len="12" vol="50" />
          <note key="84" pos="1104" pan="0" len="12" vol="50" />
          <note key="82" pos="1116" pan="0" len="12" vol="50" />
          <note key="80" pos="1128" pan="0" len="12" vol="50" />
          <note key="75" pos="1140" pan="0" len="12" vol="50" />
          <note key="80" pos="1152" pan="0" len="12" vol="50" />
          <note key="82" pos="1164" pan="0" len="12" vol="48" />
          <note key="84" pos="1176" pan="0" len="12" vol="47" />
          <note key="87" pos="1188" pan="0" len="12" vol="45" />
          <note key="84" pos="1200" pan="0" len="12" vol="44" />
          <note key="82" pos="1212" pan="0" len="12" vol="42" />
          <note key="80" pos="1224" pan="0" len="12" vol="41" />
          <note key="75" pos="1236" pan="0" len="12" vol="39" />
          <note key="80" pos="1248" pan="0" len="12" vol="38" />
          <note key="82" pos="1260" pan="0" len="12" vol="36" />
          <note key="84" pos="1272" pan="0" len="12" vol="34" />
          <note key="87" pos="1284" pan="0" len="12" vol="33" />
          <note key="84" pos="1296" pan="0" len="12" vol="31" />
          <note key="82" pos="1308" pan="0" len="12" vol="30" />
          <note key="80" pos="1320" pan="0" len="12" vol="28" />
          <note key="75" pos="1332" pan="0" len="12" vol="27" />
          <note key="80" pos="1344" pan="0" len="12" vol="23" />
          <note key="82" pos="1356" pan="0" len="12" vol="22" />
          <note key="84" pos="1368" pan="0" len="12" vol="20" />
          <note key="87" pos="1380" pan="0" len="12" vol="19" />
          <note key="84" pos="1392" pan="0" len="12" vol="17" />
          <note key="82" pos="1404" pan="0" len="12" vol="16" />
          <note key="80" pos="1416" pan="0" len="12" vol="14" />
          <note key="75" pos="1428" pan="0" len="12" vol="12" />
          <note key="80" pos="1440" pan="0" len="12" vol="11" />
          <note key="82" pos="1452" pan="0" len="12" vol="9" />
          <note key="84" pos="1464" pan="0" len="12" vol="8" />
          <note key="87" pos="1476" pan="0" len="12" vol="6" />
          <note key="84" pos="1488" pan="0" len="12" vol="5" />
          <note key="82" pos="1500" pan="0" len="12" vol="3" />
          <note key="80" pos="1512" pan="0" len="12" vol="2" />
        </pattern>
        <pattern pos="249216" muted="0" steps="16" name="" type="1">
          <note key="84" pos="0" pan="0" len="12" vol="100" />
          <note key="86" pos="12" pan="0" len="12" vol="100" />
          <note key="87" pos="24" pan="0" len="12" vol="100" />
          <note key="91" pos="36" pan="0" len="12" vol="100" />
          <note key="87" pos="48" pan="0" len="12" vol="100" />
          <note key="86" pos="60" pan="0" len="12" vol="100" />
          <note key="84" pos="72" pan="0" len="12" vol="100" />
          <note key="79" pos="84" pan="0" len="12" vol="100" />
          <note key="84" pos="96" pan="0" len="12" vol="100" />
          <note key="86" pos="108" pan="0" len="12" vol="100" />
          <note key="87" pos="120" pan="0" len="12" vol="100" />
          <note key="91" pos="132" pan="0" len="12" vol="100" />
          <note key="87" pos="144" pan="0" len="12" vol="100" />
          <note key="86" pos="156" pan="0" len="12" vol="100" />
          <note key="84" pos="168" pan="0" len="12" vol="100" />
          <note key="79" pos="180" pan="0" len="12" vol="100" />
          <note key="84" pos="192" pan="0" len="12" vol="100" />
          <note key="86" pos="204" pan="0" len="12" vol="100" />
          <note key="87" pos="216" pan="0" len="12" vol="100" />
          <note key="91" pos="228" pan="0" len="12" vol="100" />
          <note key="87" pos="240" pan="0" len="12" vol="100" />
          <note key="86" pos="252" pan="0" len="12" vol="100" />
          <note key="84" pos="264" pan="0" len="12" vol="100" />
          <note key="79" pos="276" pan="0" len="12" vol="100" />
          <note key="84" pos="288" pan="0" len="12" vol="100" />
          <note key="86" pos="300" pan="0" len="12" vol="100" />
          <note key="87" pos="312" pan="0" len="12" vol="100" />
          <note key="91" pos="324" pan="0" len="12" vol="100" />
          <note key="87" pos="336" pan="0" len="12" vol="100" />
          <note key="86" pos="348" pan="0" len="12" vol="100" />
          <note key="84" pos="360" pan="0" len="12" vol="100" />
          <note key="79" pos="372" pan="0" len="12" vol="100" />
          <note key="84" pos="384" pan="0" len="12" vol="100" />
          <note key="86" pos="396" pan="0" len="12" vol="97" />
          <note key="87" pos="408" pan="0" len="12" vol="94" />
          <note key="91" pos="420" pan="0" len="12" vol="91" />
          <note key="87" pos="432" pan="0" len="12" vol="88" />
          <note key="86" pos="444" pan="0" len="12" vol="84" />
          <note key="84" pos="456" pan="0" len="12" vol="80" />
          <note key="79" pos="468" pan="0" len="12" vol="77" />
          <note key="84" pos="480" pan="0" len="12" vol="73" />
          <note key="86" pos="492" pan="0" len="12" vol="70" />
          <note key="87" pos="504" pan="0" len="12" vol="67" />
          <note key="91" pos="516" pan="0" len="12" vol="64" />
          <note key="87" pos="528" pan="0" len="12" vol="61" />
          <note key="86" pos="540" pan="0" len="12" vol="58" />
          <note key="84" pos="552" pan="0" len="12" vol="55" />
          <note key="79" pos="564" pan="0" len="12" vol="52" />
          <note key="84" pos="576" pan="0" len="12" vol="47" />
          <note key="86" pos="588" pan="0" len="12" vol="44" />
          <note key="87" pos="600" pan="0" len="12" vol="41" />
          <note key="91" pos="612" pan="0" len="12" vol="38" />
          <note key="87" pos="624" pan="0" len="12" vol="34" />
          <note key="86" pos="636" pan="0" len="12" vol="31" />
          <note key="84" pos="648" pan="0" len="12" vol="28" />
          <note key="79" pos="660" pan="0" len="12" vol="25" />
          <note key="84" pos="672" pan="0" len="12" vol="22" />
          <note key="86" pos="684" pan="0" len="12" vol="19" />
          <note key="87" pos="696" pan="0" len="12" vol="14" />
          <note key="91" pos="708" pan="0" len="12" vol="11" />
          <note key="87" pos="720" pan="0" len="12" vol="8" />
          <note key="86" pos="732" pan="0" len="12" vol="5" />
          <note key="84" pos="744" pan="0" len="12" vol="2" />
          <note key="82" pos="768" pan="0" len="12" vol="100" />
          <note key="84" pos="780" pan="0" len="12" vol="100" />
          <note key="86" pos="792" pan="0" len="12" vol="100" />
          <note key="89" pos="804" pan="0" len="12" vol="100" />
          <note key="86" pos="816" pan="0" len="12" vol="100" />
          <note key="84" pos="828" pan="0" len="12" vol="100" />
          <note key="82" pos="840" pan="0" len="12" vol="100" />
          <note key="77" pos="852" pan="0" len="12" vol="100" />
          <note key="82" pos="864" pan="0" len="12" vol="100" />
          <note key="84" pos="876" pan="0" len="12" vol="100" />
          <note key="86" pos="888" pan="0" len="12" vol="100" />
          <note key="89" pos="900" pan="0" len="12" vol="100" />
          <note key="86" pos="912" pan="0" len="12" vol="100" />
          <note key="84" pos="924" pan="0" len="12" vol="100" />
          <note key="82" pos="936" pan="0" len="12" vol="100" />
          <note key="77" pos="948" pan="0" len="12" vol="100" />
          <note key="82" pos="960" pan="0" len="12" vol="100" />
          <note key="84" pos="972" pan="0" len="12" vol="100" />
          <note key="86" pos="984" pan="0" len="12" vol="100" />
          <note key="89" pos="996" pan="0" len="12" vol="100" />
          <note key="86" pos="1008" pan="0" len="12" vol="100" />
          <note key="84" pos="1020" pan="0" len="12" vol="100" />
          <note key="82" pos="1032" pan="0" len="12" vol="100" />
          <note key="77" pos="1044" pan="0" len="12" vol="100" />
          <note key="82" pos="1056" pan="0" len="12" vol="100" />
          <note key="84" pos="1068" pan="0" len="12" vol="100" />
          <note key="86" pos="1080" pan="0" len="12" vol="100" />
          <note key="89" pos="1092" pan="0" len="12" vol="100" />
          <note key="86" pos="1104" pan="0" len="12" vol="100" />
          <note key="84" pos="1116" pan="0" len="12" vol="100" />
          <note key="82" pos="1128" pan="0" len="12" vol="100" />
          <note key="77" pos="1140" pan="0" len="12" vol="100" />
          <note key="82" pos="1152" pan="0" len="12" vol="100" />
          <note key="84" pos="1164" pan="0" len="12" vol="97" />
          <note key="86" pos="1176" pan="0" len="12" vol="94" />
          <note key="89" pos="1188" pan="0" len="12" vol="91" />
          <note key="86" pos="1200" pan="0" len="12" vol="88" />
          <note key="84" pos="1212" pan="0" len="12" vol="84" />
          <note key="82" pos="1224" pan="0" len="12" vol="80" />
          <note key="77" pos="1236" pan="0" len="12" vol="77" />
          <note key="82" pos="1248" pan="0" len="12" vol="73" />
          <note key="84" pos="1260" pan="0" len="12" vol="70" />
          <note key="86" pos="1272" pan="0" len="12" vol="67" />
          <note key="89" pos="1284" pan="0" len="12" vol="64" />
          <note key="86" pos="1296" pan="0" len="12" vol="61" />
          <note key="84" pos="1308" pan="0" len="12" vol="58" />
          <note key="82" pos="1320" pan="0" len="12" vol="55" />
          <note key="77" pos="1332" pan="0" len="12" vol="52" />
          <note key="82" pos="1344" pan="0" len="12" vol="47" />
          <note key="84" pos="1356" pan="0" len="12" vol="44" />
          <note key="86" pos="1368" pan="0" len="12" vol="41" />
          <note key="89" pos="1380" pan="0" len="12" vol="38" />
          <note key="86" pos="1392" pan="0" len="12" vol="34" />
          <note key="84" pos="1404" pan="0" len="12" vol="31" />
          <note key="82" pos="1416" pan="0" len="12" vol="28" />
          <note key="77" pos="1428" pan="0" len="12" vol="25" />
          <note key="82" pos="1440" pan="0" len="12" vol="22" />
          <note key="84" pos="1452" pan="0" len="12" vol="19" />
          <note key="86" pos="1464" pan="0" len="12" vol="14" />
          <note key="89" pos="1476" pan="0" len="12" vol="11" />
          <note key="86" pos="1488" pan="0" len="12" vol="8" />
          <note key="84" pos="1500" pan="0" len="12" vol="5" />
          <note key="82" pos="1512" pan="0" len="24" vol="2" />
        </pattern>
      </track>
      <track solo="0" name="51 (Ch12)" type="0" muted="0">
        <instrumenttrack usemasterpitch="1" pitch="0.0" basenote="57" pan="0" pitchrange="12" vol="30">
          <eldata />
          <instrument name="tripleoscillator" />
        </instrumenttrack>
        <pattern pos="38784" muted="0" steps="16" name="" type="1">
          <note key="63" pos="576" pan="0" len="288" vol="52" />
          <note key="60" pos="864" pan="0" len="192" vol="52" />
        </pattern>
        <pattern pos="20736" muted="0" steps="16" name="" type="1">
          <note key="60" pos="96" pan="0" len="96" vol="100" />
          <note key="63" pos="192" pan="0" len="96" vol="100" />
          <note key="67" pos="384" pan="0" len="96" vol="100" />
          <note key="70" pos="576" pan="0" len="96" vol="100" />
          <note key="65" pos="768" pan="0" len="96" vol="100" />
          <note key="69" pos="1056" pan="0" len="96" vol="100" />
          <note key="70" pos="1152" pan="0" len="96" vol="100" />
          <note key="69" pos="1344" pan="0" len="96" vol="100" />
        </pattern>
        <pattern pos="30720" muted="0" steps="16" name="" type="1">
          <note key="63" pos="576" pan="0" len="288" vol="52" />
          <note key="60" pos="864" pan="0" len="192" vol="52" />
        </pattern>
        <pattern pos="31872" muted="0" steps="16" name="" type="1">
          <note key="72" pos="0" pan="0" len="192" vol="100" />
          <note key="79" pos="192" pan="0" len="96" vol="100" />
          <note key="75" pos="288" pan="0" len="192" vol="100" />
          <note key="82" pos="480" pan="0" len="96" vol="100" />
          <note key="81" pos="576" pan="0" len="192" vol="100" />
          <note key="79" pos="768" pan="0" len="48" vol="100" />
          <note key="77" pos="816" pan="0" len="48" vol="100" />
          <note key="79" pos="864" pan="0" len="192" vol="100" />
        </pattern>
        <pattern pos="33024" muted="0" steps="16" name="" type="1">
          <note key="72" pos="0" pan="0" len="192" vol="100" />
          <note key="79" pos="192" pan="0" len="96" vol="100" />
          <note key="75" pos="288" pan="0" len="192" vol="100" />
          <note key="82" pos="480" pan="0" len="96" vol="100" />
          <note key="81" pos="576" pan="0" len="288" vol="100" />
          <note key="70" pos="960" pan="0" len="192" vol="100" />
        </pattern>
      </track>
      <track solo="0" name="51 (Ch13)" type="0" muted="0">
        <instrumenttrack usemasterpitch="1" pitch="0.0" basenote="57" pan="0" pitchrange="12" vol="30">
          <eldata />
          <instrument name="tripleoscillator" />
        </instrumenttrack>
        <pattern pos="112128" muted="0" steps="16" name="" type="1">
          <note key="80" pos="288" pan="0" len="96" vol="100" />
          <note key="72" pos="384" pan="0" len="192" vol="100" />
          <note key="75" pos="672" pan="0" len="96" vol="100" />
          <note key="77" pos="768" pan="0" len="192" vol="100" />
          <note key="75" pos="960" pan="0" len="192" vol="100" />
          <note key="77" pos="1152" pan="0" len="96" vol="100" />
        </pattern>
        <pattern pos="30720" muted="0" steps="16" name="" type="1">
          <note key="67" pos="576" pan="0" len="288" vol="52" />
          <note key="65" pos="864" pan="0" len="192" vol="52" />
        </pattern>
        <pattern pos="33024" muted="0" steps="16" name="" type="1">
          <note key="74" pos="480" pan="0" len="96" vol="100" />
          <note key="72" pos="576" pan="0" len="96" vol="100" />
        </pattern>
        <pattern pos="34176" muted="0" steps="16" name="" type="1">
          <note key="63" pos="0" pan="0" len="216" vol="100" />
          <note key="61" pos="288" pan="0" len="216" vol="100" />
          <note key="60" pos="576" pan="0" len="216" vol="100" />
          <note key="61" pos="864" pan="0" len="216" vol="100" />
        </pattern>
        <pattern pos="35328" muted="0" steps="16" name="" type="1">
          <note key="63" pos="0" pan="0" len="216" vol="100" />
          <note key="61" pos="288" pan="0" len="216" vol="100" />
          <note key="60" pos="576" pan="0" len="216" vol="100" />
        </pattern>
        <pattern pos="36480" muted="0" steps="16" name="" type="1">
          <note key="60" pos="0" pan="0" len="216" vol="100" />
          <note key="58" pos="288" pan="0" len="216" vol="100" />
          <note key="57" pos="576" pan="0" len="216" vol="100" />
          <note key="58" pos="864" pan="0" len="216" vol="100" />
        </pattern>
        <pattern pos="37632" muted="0" steps="16" name="" type="1">
          <note key="60" pos="0" pan="0" len="216" vol="100" />
          <note key="58" pos="288" pan="0" len="216" vol="100" />
          <note key="57" pos="576" pan="0" len="216" vol="100" />
          <note key="65" pos="864" pan="0" len="216" vol="100" />
        </pattern>
        <pattern pos="38784" muted="0" steps="16" name="" type="1">
          <note key="67" pos="576" pan="0" len="288" vol="52" />
          <note key="65" pos="864" pan="0" len="192" vol="52" />
        </pattern>
        <pattern pos="98304" muted="0" steps="16" name="" type="1">
          <note key="60" pos="0" pan="0" len="336" vol="100" />
          <note key="63" pos="336" pan="0" len="24" vol="100" />
          <note key="62" pos="360" pan="0" len="24" vol="100" />
          <note key="63" pos="384" pan="0" len="384" vol="100" />
          <note key="65" pos="768" pan="0" len="384" vol="100" />
          <note key="65" pos="1152" pan="0" len="12" vol="100" />
          <note key="67" pos="1164" pan="0" len="372" vol="100" />
        </pattern>
        <pattern pos="99840" muted="0" steps="16" name="" type="1">
          <note key="70" pos="0" pan="0" len="24" vol="100" />
          <note key="72" pos="24" pan="0" len="552" vol="100" />
          <note key="63" pos="672" pan="0" len="96" vol="100" />
          <note key="63" pos="768" pan="0" len="12" vol="100" />
          <note key="65" pos="780" pan="0" len="372" vol="100" />
          <note key="70" pos="1152" pan="0" len="96" vol="100" />
          <note key="72" pos="1248" pan="0" len="288" vol="100" />
        </pattern>
        <pattern pos="101376" muted="0" steps="16" name="" type="1">
          <note key="74" pos="0" pan="0" len="384" vol="100" />
          <note key="77" pos="384" pan="0" len="192" vol="100" />
          <note key="69" pos="576" pan="0" len="192" vol="100" />
          <note key="74" pos="768" pan="0" len="384" vol="100" />
          <note key="72" pos="1152" pan="0" len="384" vol="100" />
        </pattern>
        <pattern pos="102912" muted="0" steps="16" name="" type="1">
          <note key="69" pos="0" pan="0" len="576" vol="100" />
          <note key="74" pos="576" pan="0" len="192" vol="100" />
          <note key="67" pos="768" pan="0" len="384" vol="100" />
          <note key="72" pos="1152" pan="0" len="384" vol="100" />
        </pattern>
        <pattern pos="104448" muted="0" steps="16" name="" type="1">
          <note key="74" pos="0" pan="0" len="96" vol="100" />
        </pattern>
        <pattern pos="110592" muted="0" steps="16" name="" type="1">
          <note key="77" pos="1440" pan="0" len="96" vol="100" />
        </pattern>
      </track>
      <track solo="0" name="51 (Ch14)" type="0" muted="0">
        <instrumenttrack usemasterpitch="1" pitch="0.0" basenote="57" pan="0" pitchrange="12" vol="30">
          <eldata />
          <instrument name="tripleoscillator" />
        </instrumenttrack>
        <pattern pos="70656" muted="0" steps="16" name="" type="1">
          <note key="60" pos="0" pan="0" len="192" vol="100" />
          <note key="62" pos="192" pan="0" len="192" vol="100" />
          <note key="63" pos="384" pan="0" len="192" vol="100" />
          <note key="65" pos="576" pan="0" len="192" vol="100" />
          <note key="67" pos="768" pan="0" len="192" vol="100" />
          <note key="70" pos="960" pan="0" len="192" vol="100" />
          <note key="69" pos="1152" pan="0" len="192" vol="100" />
          <note key="60" pos="1344" pan="0" len="96" vol="100" />
          <note key="58" pos="1440" pan="0" len="96" vol="100" />
        </pattern>
        <pattern pos="30720" muted="0" steps="16" name="" type="1">
          <note key="70" pos="576" pan="0" len="288" vol="52" />
          <note key="69" pos="864" pan="0" len="192" vol="52" />
        </pattern>
        <pattern pos="33024" muted="0" steps="16" name="" type="1">
          <note key="60" pos="576" pan="0" len="12" vol="100" />
          <note key="69" pos="588" pan="0" len="228" vol="100" />
        </pattern>
        <pattern pos="35328" muted="0" steps="16" name="" type="1">
          <note key="63" pos="0" pan="0" len="12" vol="100" />
          <note key="75" pos="12" pan="0" len="204" vol="100" />
          <note key="70" pos="576" pan="0" len="12" vol="100" />
          <note key="63" pos="588" pan="0" len="228" vol="100" />
        </pattern>
        <pattern pos="38784" muted="0" steps="16" name="" type="1">
          <note key="70" pos="576" pan="0" len="288" vol="52" />
          <note key="69" pos="864" pan="0" len="192" vol="52" />
        </pattern>
        <pattern pos="61440" muted="0" steps="16" name="" type="1">
          <note key="60" pos="0" pan="0" len="192" vol="100" />
          <note key="62" pos="192" pan="0" len="192" vol="100" />
          <note key="63" pos="384" pan="0" len="192" vol="100" />
          <note key="65" pos="576" pan="0" len="192" vol="100" />
          <note key="67" pos="768" pan="0" len="192" vol="100" />
          <note key="70" pos="960" pan="0" len="192" vol="100" />
          <note key="69" pos="1152" pan="0" len="192" vol="100" />
          <note key="60" pos="1344" pan="0" len="96" vol="100" />
          <note key="58" pos="1440" pan="0" len="96" vol="100" />
        </pattern>
      </track>
      <track solo="0" name="54 (Ch2)" type="0" muted="0">
        <instrumenttrack usemasterpitch="1" pitch="0.0" basenote="57" pan="0" pitchrange="12" vol="30">
          <eldata />
          <instrument name="tripleoscillator" />
        </instrumenttrack>
        <pattern pos="258432" muted="0" steps="16" name="" type="1">
          <note key="70" pos="0" pan="0" len="24" vol="100" />
          <note key="65" pos="24" pan="0" len="24" vol="100" />
        </pattern>
        <pattern pos="53760" muted="0" steps="16" name="" type="1">
          <note key="60" pos="0" pan="0" len="576" vol="100" />
        </pattern>
        <pattern pos="55296" muted="0" steps="16" name="" type="1">
          <note key="60" pos="0" pan="0" len="864" vol="100" />
        </pattern>
        <pattern pos="56832" muted="0" steps="16" name="" type="1">
          <note key="60" pos="0" pan="0" len="1536" vol="100" />
        </pattern>
        <pattern pos="58368" muted="0" steps="16" name="" type="1">
          <note key="60" pos="0" pan="0" len="1392" vol="100" />
        </pattern>
        <pattern pos="59904" muted="0" steps="16" name="" type="1">
          <note key="60" pos="0" pan="0" len="1536" vol="100" />
        </pattern>
        <pattern pos="61440" muted="0" steps="16" name="" type="1">
          <note key="60" pos="0" pan="0" len="1536" vol="100" />
        </pattern>
        <pattern pos="62976" muted="0" steps="16" name="" type="1">
          <note key="60" pos="0" pan="0" len="1536" vol="100" />
        </pattern>
        <pattern pos="64512" muted="0" steps="16" name="" type="1">
          <note key="60" pos="0" pan="0" len="48" vol="100" />
          <note key="60" pos="48" pan="0" len="72" vol="100" />
          <note key="63" pos="120" pan="0" len="24" vol="100" />
          <note key="51" pos="144" pan="0" len="96" vol="100" />
          <note key="65" pos="240" pan="0" len="72" vol="100" />
          <note key="65" pos="312" pan="0" len="24" vol="100" />
          <note key="63" pos="336" pan="0" len="24" vol="100" />
          <note key="62" pos="360" pan="0" len="336" vol="100" />
          <note key="67" pos="696" pan="0" len="24" vol="100" />
          <note key="63" pos="720" pan="0" len="24" vol="100" />
          <note key="62" pos="744" pan="0" len="24" vol="100" />
          <note key="60" pos="768" pan="0" len="48" vol="100" />
          <note key="60" pos="816" pan="0" len="72" vol="100" />
          <note key="63" pos="888" pan="0" len="24" vol="100" />
          <note key="51" pos="912" pan="0" len="96" vol="100" />
          <note key="65" pos="1008" pan="0" len="72" vol="100" />
          <note key="65" pos="1080" pan="0" len="24" vol="100" />
          <note key="63" pos="1104" pan="0" len="24" vol="100" />
          <note key="62" pos="1128" pan="0" len="408" vol="100" />
        </pattern>
        <pattern pos="66048" muted="0" steps="16" name="" type="1">
          <note key="60" pos="0" pan="0" len="48" vol="100" />
          <note key="60" pos="48" pan="0" len="72" vol="100" />
          <note key="63" pos="120" pan="0" len="24" vol="100" />
          <note key="51" pos="144" pan="0" len="96" vol="100" />
          <note key="65" pos="240" pan="0" len="72" vol="100" />
          <note key="65" pos="312" pan="0" len="24" vol="100" />
          <note key="63" pos="336" pan="0" len="24" vol="100" />
          <note key="62" pos="360" pan="0" len="336" vol="100" />
          <note key="67" pos="696" pan="0" len="24" vol="100" />
          <note key="63" pos="720" pan="0" len="24" vol="100" />
          <note key="62" pos="744" pan="0" len="24" vol="100" />
          <note key="60" pos="768" pan="0" len="48" vol="100" />
          <note key="60" pos="816" pan="0" len="72" vol="100" />
          <note key="63" pos="888" pan="0" len="24" vol="100" />
          <note key="51" pos="912" pan="0" len="96" vol="100" />
          <note key="65" pos="1008" pan="0" len="72" vol="100" />
          <note key="65" pos="1080" pan="0" len="24" vol="100" />
          <note key="63" pos="1104" pan="0" len="24" vol="100" />
          <note key="62" pos="1128" pan="0" len="408" vol="100" />
        </pattern>
        <pattern pos="67584" muted="0" steps="16" name="" type="1">
          <note key="60" pos="0" pan="0" len="1536" vol="100" />
        </pattern>
        <pattern pos="69120" muted="0" steps="16" name="" type="1">
          <note key="60" pos="0" pan="0" len="1536" vol="100" />
        </pattern>
        <pattern pos="70656" muted="0" steps="16" name="" type="1">
          <note key="60" pos="0" pan="0" len="1536" vol="100" />
        </pattern>
        <pattern pos="72192" muted="0" steps="16" name="" type="1">
          <note key="60" pos="0" pan="0" len="1536" vol="100" />
        </pattern>
        <pattern pos="73728" muted="0" steps="16" name="" type="1">
          <note key="60" pos="0" pan="0" len="48" vol="100" />
          <note key="60" pos="48" pan="0" len="72" vol="100" />
          <note key="63" pos="120" pan="0" len="24" vol="100" />
          <note key="51" pos="144" pan="0" len="96" vol="100" />
          <note key="65" pos="240" pan="0" len="72" vol="100" />
          <note key="65" pos="312" pan="0" len="24" vol="100" />
          <note key="63" pos="336" pan="0" len="24" vol="100" />
          <note key="62" pos="360" pan="0" len="336" vol="100" />
          <note key="67" pos="696" pan="0" len="24" vol="100" />
          <note key="63" pos="720" pan="0" len="24" vol="100" />
          <note key="62" pos="744" pan="0" len="24" vol="100" />
          <note key="60" pos="768" pan="0" len="48" vol="100" />
          <note key="60" pos="816" pan="0" len="72" vol="100" />
          <note key="63" pos="888" pan="0" len="24" vol="100" />
          <note key="51" pos="912" pan="0" len="96" vol="100" />
          <note key="65" pos="1008" pan="0" len="72" vol="100" />
          <note key="65" pos="1080" pan="0" len="24" vol="100" />
          <note key="63" pos="1104" pan="0" len="24" vol="100" />
          <note key="62" pos="1128" pan="0" len="408" vol="100" />
        </pattern>
        <pattern pos="75264" muted="0" steps="16" name="" type="1">
          <note key="60" pos="0" pan="0" len="48" vol="100" />
          <note key="60" pos="48" pan="0" len="72" vol="100" />
          <note key="63" pos="120" pan="0" len="24" vol="100" />
          <note key="51" pos="144" pan="0" len="96" vol="100" />
          <note key="65" pos="240" pan="0" len="72" vol="100" />
          <note key="65" pos="312" pan="0" len="24" vol="100" />
          <note key="63" pos="336" pan="0" len="24" vol="100" />
          <note key="62" pos="360" pan="0" len="336" vol="100" />
          <note key="67" pos="696" pan="0" len="24" vol="100" />
          <note key="63" pos="720" pan="0" len="24" vol="100" />
          <note key="62" pos="744" pan="0" len="24" vol="100" />
          <note key="60" pos="768" pan="0" len="48" vol="100" />
          <note key="60" pos="816" pan="0" len="72" vol="100" />
          <note key="63" pos="888" pan="0" len="24" vol="100" />
          <note key="51" pos="912" pan="0" len="96" vol="100" />
          <note key="65" pos="1008" pan="0" len="72" vol="100" />
          <note key="65" pos="1080" pan="0" len="24" vol="100" />
          <note key="63" pos="1104" pan="0" len="24" vol="100" />
          <note key="62" pos="1128" pan="0" len="408" vol="100" />
        </pattern>
        <pattern pos="198144" muted="0" steps="16" name="" type="1">
          <note key="64" pos="0" pan="0" len="12" vol="100" />
          <note key="64" pos="120" pan="0" len="12" vol="100" />
          <note key="64" pos="192" pan="0" len="12" vol="100" />
          <note key="64" pos="312" pan="0" len="12" vol="100" />
          <note key="64" pos="384" pan="0" len="12" vol="100" />
          <note key="64" pos="504" pan="0" len="12" vol="100" />
          <note key="64" pos="576" pan="0" len="12" vol="100" />
          <note key="64" pos="696" pan="0" len="12" vol="100" />
          <note key="64" pos="768" pan="0" len="12" vol="100" />
          <note key="64" pos="888" pan="0" len="12" vol="100" />
          <note key="64" pos="960" pan="0" len="12" vol="100" />
          <note key="64" pos="1080" pan="0" len="12" vol="100" />
          <note key="64" pos="1152" pan="0" len="12" vol="100" />
          <note key="64" pos="1272" pan="0" len="12" vol="100" />
          <note key="64" pos="1344" pan="0" len="12" vol="100" />
          <note key="64" pos="1464" pan="0" len="12" vol="100" />
        </pattern>
        <pattern pos="199680" muted="0" steps="16" name="" type="1">
          <note key="64" pos="0" pan="0" len="12" vol="100" />
          <note key="64" pos="120" pan="0" len="12" vol="100" />
          <note key="64" pos="192" pan="0" len="12" vol="100" />
          <note key="64" pos="312" pan="0" len="12" vol="100" />
          <note key="64" pos="384" pan="0" len="12" vol="100" />
          <note key="64" pos="504" pan="0" len="12" vol="100" />
          <note key="64" pos="576" pan="0" len="12" vol="100" />
          <note key="64" pos="696" pan="0" len="12" vol="100" />
          <note key="64" pos="768" pan="0" len="12" vol="100" />
          <note key="64" pos="888" pan="0" len="12" vol="100" />
          <note key="64" pos="960" pan="0" len="12" vol="100" />
          <note key="64" pos="1080" pan="0" len="12" vol="100" />
          <note key="64" pos="1152" pan="0" len="12" vol="100" />
          <note key="64" pos="1272" pan="0" len="12" vol="100" />
          <note key="64" pos="1344" pan="0" len="12" vol="100" />
          <note key="64" pos="1464" pan="0" len="12" vol="100" />
        </pattern>
        <pattern pos="201216" muted="0" steps="16" name="" type="1">
          <note key="64" pos="0" pan="0" len="24" vol="100" />
          <note key="64" pos="240" pan="0" len="24" vol="100" />
          <note key="64" pos="384" pan="0" len="24" vol="100" />
          <note key="64" pos="624" pan="0" len="24" vol="100" />
          <note key="64" pos="768" pan="0" len="24" vol="100" />
          <note key="64" pos="1008" pan="0" len="24" vol="100" />
          <note key="64" pos="1152" pan="0" len="24" vol="100" />
          <note key="64" pos="1392" pan="0" len="24" vol="100" />
        </pattern>
        <pattern pos="202752" muted="0" steps="16" name="" type="1">
          <note key="64" pos="0" pan="0" len="24" vol="100" />
          <note key="64" pos="240" pan="0" len="24" vol="100" />
          <note key="64" pos="384" pan="0" len="24" vol="100" />
          <note key="64" pos="624" pan="0" len="24" vol="100" />
          <note key="64" pos="768" pan="0" len="24" vol="100" />
          <note key="64" pos="1008" pan="0" len="24" vol="100" />
          <note key="64" pos="1152" pan="0" len="24" vol="100" />
          <note key="72" pos="1344" pan="0" len="24" vol="100" />
        </pattern>
        <pattern pos="204288" muted="0" steps="16" name="" type="1">
          <note key="57" pos="0" pan="0" len="24" vol="100" />
          <note key="57" pos="240" pan="0" len="24" vol="100" />
          <note key="60" pos="384" pan="0" len="24" vol="100" />
          <note key="62" pos="624" pan="0" len="24" vol="100" />
          <note key="52" pos="768" pan="0" len="24" vol="100" />
          <note key="52" pos="1008" pan="0" len="24" vol="100" />
        </pattern>
        <pattern pos="205824" muted="0" steps="16" name="" type="1">
          <note key="57" pos="0" pan="0" len="24" vol="100" />
          <note key="57" pos="240" pan="0" len="24" vol="100" />
          <note key="60" pos="384" pan="0" len="24" vol="100" />
          <note key="62" pos="624" pan="0" len="24" vol="100" />
          <note key="52" pos="768" pan="0" len="24" vol="100" />
          <note key="52" pos="1008" pan="0" len="24" vol="100" />
        </pattern>
        <pattern pos="207360" muted="0" steps="16" name="" type="1">
          <note key="64" pos="0" pan="0" len="24" vol="100" />
          <note key="64" pos="240" pan="0" len="24" vol="100" />
          <note key="64" pos="384" pan="0" len="24" vol="100" />
          <note key="64" pos="624" pan="0" len="24" vol="100" />
          <note key="64" pos="768" pan="0" len="24" vol="100" />
          <note key="64" pos="1008" pan="0" len="24" vol="100" />
          <note key="64" pos="1152" pan="0" len="24" vol="100" />
          <note key="64" pos="1392" pan="0" len="24" vol="100" />
        </pattern>
        <pattern pos="208896" muted="0" steps="16" name="" type="1">
          <note key="64" pos="0" pan="0" len="24" vol="100" />
          <note key="64" pos="240" pan="0" len="24" vol="100" />
          <note key="64" pos="384" pan="0" len="24" vol="100" />
          <note key="64" pos="624" pan="0" len="24" vol="100" />
          <note key="64" pos="768" pan="0" len="24" vol="100" />
          <note key="64" pos="1008" pan="0" len="24" vol="100" />
          <note key="64" pos="1152" pan="0" len="24" vol="100" />
          <note key="72" pos="1344" pan="0" len="24" vol="100" />
        </pattern>
        <pattern pos="210432" muted="0" steps="16" name="" type="1">
          <note key="57" pos="0" pan="0" len="24" vol="100" />
          <note key="57" pos="240" pan="0" len="24" vol="100" />
          <note key="60" pos="384" pan="0" len="24" vol="100" />
          <note key="62" pos="624" pan="0" len="24" vol="100" />
          <note key="52" pos="768" pan="0" len="24" vol="100" />
          <note key="52" pos="1008" pan="0" len="24" vol="100" />
        </pattern>
        <pattern pos="211968" muted="0" steps="16" name="" type="1">
          <note key="57" pos="0" pan="0" len="24" vol="100" />
          <note key="57" pos="240" pan="0" len="24" vol="100" />
          <note key="60" pos="384" pan="0" len="24" vol="100" />
          <note key="62" pos="624" pan="0" len="24" vol="100" />
          <note key="52" pos="768" pan="0" len="24" vol="100" />
          <note key="52" pos="1008" pan="0" len="24" vol="100" />
        </pattern>
        <pattern pos="213504" muted="0" steps="16" name="" type="1">
          <note key="66" pos="0" pan="0" len="12" vol="100" />
          <note key="66" pos="120" pan="0" len="12" vol="100" />
          <note key="66" pos="192" pan="0" len="12" vol="100" />
          <note key="66" pos="312" pan="0" len="12" vol="100" />
          <note key="66" pos="384" pan="0" len="12" vol="100" />
          <note key="66" pos="504" pan="0" len="12" vol="100" />
          <note key="66" pos="576" pan="0" len="12" vol="100" />
          <note key="66" pos="696" pan="0" len="12" vol="100" />
          <note key="66" pos="768" pan="0" len="12" vol="100" />
          <note key="66" pos="888" pan="0" len="12" vol="100" />
          <note key="66" pos="960" pan="0" len="12" vol="100" />
          <note key="66" pos="1080" pan="0" len="12" vol="100" />
          <note key="66" pos="1152" pan="0" len="12" vol="100" />
          <note key="66" pos="1272" pan="0" len="12" vol="100" />
          <note key="66" pos="1344" pan="0" len="12" vol="100" />
          <note key="66" pos="1464" pan="0" len="12" vol="100" />
        </pattern>
        <pattern pos="215040" muted="0" steps="16" name="" type="1">
          <note key="66" pos="0" pan="0" len="24" vol="100" />
          <note key="66" pos="240" pan="0" len="24" vol="100" />
          <note key="66" pos="384" pan="0" len="24" vol="100" />
          <note key="66" pos="624" pan="0" len="24" vol="100" />
          <note key="66" pos="768" pan="0" len="24" vol="100" />
          <note key="66" pos="1008" pan="0" len="24" vol="100" />
          <note key="66" pos="1152" pan="0" len="24" vol="100" />
          <note key="66" pos="1392" pan="0" len="24" vol="100" />
        </pattern>
        <pattern pos="237696" muted="0" steps="16" name="" type="1">
          <note key="73" pos="0" pan="0" len="24" vol="100" />
          <note key="68" pos="24" pan="0" len="24" vol="100" />
        </pattern>
      </track>
      <track solo="0" name="54 (Ch3)" type="0" muted="0">
        <instrumenttrack usemasterpitch="1" pitch="0.0" basenote="57" pan="0" pitchrange="12" vol="30">
          <eldata />
          <instrument name="tripleoscillator" />
        </instrumenttrack>
        <pattern pos="133632" muted="0" steps="16" name="" type="1">
          <note key="60" pos="144" pan="0" len="24" vol="34" />
          <note key="60" pos="528" pan="0" len="24" vol="34" />
          <note key="63" pos="912" pan="0" len="24" vol="34" />
          <note key="58" pos="1296" pan="0" len="24" vol="34" />
        </pattern>
        <pattern pos="17664" muted="0" steps="16" name="" type="1">
          <note key="60" pos="0" pan="0" len="24" vol="100" />
          <note key="60" pos="24" pan="0" len="24" vol="100" />
          <note key="60" pos="48" pan="0" len="24" vol="100" />
          <note key="70" pos="72" pan="0" len="24" vol="100" />
          <note key="72" pos="96" pan="0" len="24" vol="100" />
          <note key="60" pos="120" pan="0" len="24" vol="100" />
          <note key="60" pos="144" pan="0" len="24" vol="100" />
          <note key="70" pos="168" pan="0" len="24" vol="100" />
          <note key="60" pos="192" pan="0" len="24" vol="100" />
          <note key="60" pos="216" pan="0" len="24" vol="100" />
          <note key="60" pos="240" pan="0" len="24" vol="100" />
          <note key="70" pos="264" pan="0" len="24" vol="100" />
          <note key="72" pos="288" pan="0" len="24" vol="100" />
          <note key="60" pos="312" pan="0" len="24" vol="100" />
          <note key="60" pos="336" pan="0" len="24" vol="100" />
          <note key="70" pos="360" pan="0" len="24" vol="100" />
          <note key="60" pos="384" pan="0" len="24" vol="100" />
          <note key="60" pos="408" pan="0" len="24" vol="100" />
          <note key="60" pos="432" pan="0" len="24" vol="100" />
          <note key="70" pos="456" pan="0" len="24" vol="100" />
          <note key="72" pos="480" pan="0" len="24" vol="100" />
          <note key="60" pos="504" pan="0" len="24" vol="100" />
          <note key="60" pos="528" pan="0" len="24" vol="100" />
          <note key="70" pos="552" pan="0" len="24" vol="100" />
          <note key="60" pos="576" pan="0" len="24" vol="100" />
          <note key="60" pos="600" pan="0" len="24" vol="100" />
          <note key="60" pos="624" pan="0" len="24" vol="100" />
          <note key="70" pos="648" pan="0" len="24" vol="100" />
          <note key="72" pos="672" pan="0" len="24" vol="100" />
          <note key="60" pos="696" pan="0" len="24" vol="100" />
          <note key="60" pos="720" pan="0" len="24" vol="100" />
          <note key="70" pos="744" pan="0" len="24" vol="100" />
          <note key="60" pos="768" pan="0" len="24" vol="100" />
          <note key="60" pos="792" pan="0" len="24" vol="100" />
          <note key="60" pos="816" pan="0" len="24" vol="100" />
          <note key="70" pos="840" pan="0" len="24" vol="100" />
          <note key="72" pos="864" pan="0" len="24" vol="100" />
          <note key="60" pos="888" pan="0" len="24" vol="100" />
          <note key="60" pos="912" pan="0" len="24" vol="100" />
          <note key="70" pos="936" pan="0" len="24" vol="100" />
          <note key="60" pos="960" pan="0" len="24" vol="100" />
          <note key="60" pos="984" pan="0" len="24" vol="100" />
          <note key="60" pos="1008" pan="0" len="24" vol="100" />
          <note key="70" pos="1032" pan="0" len="24" vol="100" />
          <note key="72" pos="1056" pan="0" len="24" vol="100" />
          <note key="60" pos="1080" pan="0" len="24" vol="100" />
          <note key="60" pos="1104" pan="0" len="24" vol="100" />
          <note key="70" pos="1128" pan="0" len="24" vol="100" />
          <note key="60" pos="1152" pan="0" len="24" vol="100" />
          <note key="60" pos="1176" pan="0" len="24" vol="100" />
          <note key="60" pos="1200" pan="0" len="24" vol="100" />
          <note key="70" pos="1224" pan="0" len="24" vol="100" />
          <note key="72" pos="1248" pan="0" len="24" vol="100" />
          <note key="60" pos="1272" pan="0" len="24" vol="100" />
          <note key="60" pos="1296" pan="0" len="24" vol="100" />
          <note key="70" pos="1320" pan="0" len="24" vol="100" />
          <note key="60" pos="1344" pan="0" len="24" vol="100" />
          <note key="60" pos="1368" pan="0" len="24" vol="100" />
          <note key="60" pos="1392" pan="0" len="24" vol="100" />
          <note key="70" pos="1416" pan="0" len="24" vol="100" />
          <note key="72" pos="1440" pan="0" len="24" vol="100" />
          <note key="60" pos="1464" pan="0" len="24" vol="100" />
          <note key="60" pos="1488" pan="0" len="24" vol="100" />
          <note key="70" pos="1512" pan="0" len="24" vol="100" />
        </pattern>
        <pattern pos="19200" muted="0" steps="16" name="" type="1">
          <note key="60" pos="0" pan="0" len="24" vol="100" />
          <note key="60" pos="24" pan="0" len="24" vol="100" />
          <note key="60" pos="48" pan="0" len="24" vol="100" />
          <note key="70" pos="72" pan="0" len="24" vol="100" />
          <note key="72" pos="96" pan="0" len="24" vol="100" />
          <note key="60" pos="120" pan="0" len="24" vol="100" />
          <note key="60" pos="144" pan="0" len="24" vol="100" />
          <note key="70" pos="168" pan="0" len="24" vol="100" />
          <note key="60" pos="192" pan="0" len="24" vol="100" />
          <note key="60" pos="216" pan="0" len="24" vol="100" />
          <note key="60" pos="240" pan="0" len="24" vol="100" />
          <note key="70" pos="264" pan="0" len="24" vol="100" />
          <note key="72" pos="288" pan="0" len="24" vol="100" />
          <note key="60" pos="312" pan="0" len="24" vol="100" />
          <note key="60" pos="336" pan="0" len="24" vol="100" />
          <note key="70" pos="360" pan="0" len="24" vol="100" />
          <note key="60" pos="384" pan="0" len="24" vol="100" />
          <note key="60" pos="408" pan="0" len="24" vol="100" />
          <note key="60" pos="432" pan="0" len="24" vol="100" />
          <note key="70" pos="456" pan="0" len="24" vol="100" />
          <note key="72" pos="480" pan="0" len="24" vol="100" />
          <note key="60" pos="504" pan="0" len="24" vol="100" />
          <note key="60" pos="528" pan="0" len="24" vol="100" />
          <note key="70" pos="552" pan="0" len="24" vol="100" />
          <note key="60" pos="576" pan="0" len="24" vol="100" />
          <note key="60" pos="600" pan="0" len="24" vol="100" />
          <note key="60" pos="624" pan="0" len="24" vol="100" />
          <note key="70" pos="648" pan="0" len="24" vol="100" />
          <note key="72" pos="672" pan="0" len="24" vol="100" />
          <note key="60" pos="696" pan="0" len="24" vol="100" />
          <note key="60" pos="720" pan="0" len="24" vol="100" />
          <note key="70" pos="744" pan="0" len="24" vol="100" />
          <note key="60" pos="768" pan="0" len="24" vol="100" />
          <note key="60" pos="792" pan="0" len="24" vol="100" />
          <note key="60" pos="816" pan="0" len="24" vol="100" />
          <note key="70" pos="840" pan="0" len="24" vol="100" />
          <note key="72" pos="864" pan="0" len="24" vol="100" />
          <note key="60" pos="888" pan="0" len="24" vol="100" />
          <note key="60" pos="912" pan="0" len="24" vol="100" />
          <note key="70" pos="936" pan="0" len="24" vol="100" />
          <note key="60" pos="960" pan="0" len="24" vol="100" />
          <note key="60" pos="984" pan="0" len="24" vol="100" />
          <note key="60" pos="1008" pan="0" len="24" vol="100" />
          <note key="70" pos="1032" pan="0" len="24" vol="100" />
          <note key="72" pos="1056" pan="0" len="24" vol="100" />
          <note key="60" pos="1080" pan="0" len="24" vol="100" />
          <note key="60" pos="1104" pan="0" len="24" vol="100" />
          <note key="70" pos="1128" pan="0" len="24" vol="100" />
          <note key="60" pos="1152" pan="0" len="24" vol="100" />
          <note key="60" pos="1176" pan="0" len="24" vol="100" />
          <note key="60" pos="1200" pan="0" len="24" vol="100" />
          <note key="70" pos="1224" pan="0" len="24" vol="100" />
          <note key="72" pos="1248" pan="0" len="24" vol="100" />
          <note key="60" pos="1272" pan="0" len="24" vol="100" />
          <note key="60" pos="1296" pan="0" len="24" vol="100" />
          <note key="70" pos="1320" pan="0" len="24" vol="100" />
          <note key="60" pos="1344" pan="0" len="24" vol="100" />
          <note key="60" pos="1368" pan="0" len="24" vol="100" />
          <note key="60" pos="1392" pan="0" len="24" vol="100" />
          <note key="70" pos="1416" pan="0" len="24" vol="100" />
          <note key="72" pos="1440" pan="0" len="24" vol="100" />
          <note key="60" pos="1464" pan="0" len="24" vol="100" />
          <note key="60" pos="1488" pan="0" len="24" vol="100" />
          <note key="70" pos="1512" pan="0" len="24" vol="100" />
        </pattern>
        <pattern pos="20736" muted="0" steps="16" name="" type="1">
          <note key="60" pos="0" pan="0" len="24" vol="100" />
          <note key="60" pos="24" pan="0" len="24" vol="100" />
          <note key="60" pos="48" pan="0" len="24" vol="100" />
          <note key="70" pos="72" pan="0" len="24" vol="100" />
          <note key="72" pos="96" pan="0" len="24" vol="100" />
          <note key="60" pos="120" pan="0" len="24" vol="100" />
          <note key="60" pos="144" pan="0" len="24" vol="100" />
          <note key="70" pos="168" pan="0" len="24" vol="100" />
          <note key="60" pos="192" pan="0" len="24" vol="100" />
          <note key="60" pos="216" pan="0" len="24" vol="100" />
          <note key="60" pos="240" pan="0" len="24" vol="100" />
          <note key="70" pos="264" pan="0" len="24" vol="100" />
          <note key="72" pos="288" pan="0" len="24" vol="100" />
          <note key="60" pos="312" pan="0" len="24" vol="100" />
          <note key="60" pos="336" pan="0" len="24" vol="100" />
          <note key="70" pos="360" pan="0" len="24" vol="100" />
          <note key="60" pos="384" pan="0" len="24" vol="100" />
          <note key="60" pos="408" pan="0" len="24" vol="100" />
          <note key="60" pos="432" pan="0" len="24" vol="100" />
          <note key="70" pos="456" pan="0" len="24" vol="100" />
          <note key="72" pos="480" pan="0" len="24" vol="100" />
          <note key="60" pos="504" pan="0" len="24" vol="100" />
          <note key="60" pos="528" pan="0" len="24" vol="100" />
          <note key="70" pos="552" pan="0" len="24" vol="100" />
          <note key="60" pos="576" pan="0" len="24" vol="100" />
          <note key="60" pos="600" pan="0" len="24" vol="100" />
          <note key="60" pos="624" pan="0" len="24" vol="100" />
          <note key="70" pos="648" pan="0" len="24" vol="100" />
          <note key="72" pos="672" pan="0" len="24" vol="100" />
          <note key="60" pos="696" pan="0" len="24" vol="100" />
          <note key="60" pos="720" pan="0" len="24" vol="100" />
          <note key="70" pos="744" pan="0" len="24" vol="100" />
          <note key="60" pos="768" pan="0" len="24" vol="100" />
          <note key="60" pos="792" pan="0" len="24" vol="100" />
          <note key="60" pos="816" pan="0" len="24" vol="100" />
          <note key="70" pos="840" pan="0" len="24" vol="100" />
          <note key="72" pos="864" pan="0" len="24" vol="100" />
          <note key="60" pos="888" pan="0" len="24" vol="100" />
          <note key="60" pos="912" pan="0" len="24" vol="100" />
          <note key="70" pos="936" pan="0" len="24" vol="100" />
          <note key="60" pos="960" pan="0" len="24" vol="100" />
          <note key="60" pos="984" pan="0" len="24" vol="100" />
          <note key="60" pos="1008" pan="0" len="24" vol="100" />
          <note key="70" pos="1032" pan="0" len="24" vol="100" />
          <note key="72" pos="1056" pan="0" len="24" vol="100" />
          <note key="60" pos="1080" pan="0" len="24" vol="100" />
          <note key="60" pos="1104" pan="0" len="24" vol="100" />
          <note key="70" pos="1128" pan="0" len="24" vol="100" />
          <note key="60" pos="1152" pan="0" len="24" vol="100" />
          <note key="60" pos="1176" pan="0" len="24" vol="100" />
          <note key="60" pos="1200" pan="0" len="24" vol="100" />
          <note key="70" pos="1224" pan="0" len="24" vol="100" />
          <note key="72" pos="1248" pan="0" len="24" vol="100" />
          <note key="60" pos="1272" pan="0" len="24" vol="100" />
          <note key="60" pos="1296" pan="0" len="24" vol="100" />
          <note key="70" pos="1320" pan="0" len="24" vol="100" />
          <note key="60" pos="1344" pan="0" len="24" vol="100" />
          <note key="60" pos="1368" pan="0" len="24" vol="100" />
          <note key="60" pos="1392" pan="0" len="24" vol="100" />
          <note key="70" pos="1416" pan="0" len="24" vol="100" />
          <note key="72" pos="1440" pan="0" len="24" vol="100" />
          <note key="60" pos="1464" pan="0" len="24" vol="100" />
          <note key="60" pos="1488" pan="0" len="24" vol="100" />
          <note key="70" pos="1512" pan="0" len="24" vol="100" />
        </pattern>
        <pattern pos="22272" muted="0" steps="16" name="" type="1">
          <note key="60" pos="0" pan="0" len="24" vol="100" />
          <note key="60" pos="24" pan="0" len="24" vol="100" />
          <note key="60" pos="48" pan="0" len="24" vol="100" />
          <note key="70" pos="72" pan="0" len="24" vol="100" />
          <note key="72" pos="96" pan="0" len="24" vol="100" />
          <note key="60" pos="120" pan="0" len="24" vol="100" />
          <note key="60" pos="144" pan="0" len="24" vol="100" />
          <note key="70" pos="168" pan="0" len="24" vol="100" />
          <note key="60" pos="192" pan="0" len="24" vol="100" />
          <note key="60" pos="216" pan="0" len="24" vol="100" />
          <note key="60" pos="240" pan="0" len="24" vol="100" />
          <note key="70" pos="264" pan="0" len="24" vol="100" />
          <note key="72" pos="288" pan="0" len="24" vol="100" />
          <note key="60" pos="312" pan="0" len="24" vol="100" />
          <note key="60" pos="336" pan="0" len="24" vol="100" />
          <note key="70" pos="360" pan="0" len="24" vol="100" />
          <note key="60" pos="384" pan="0" len="24" vol="100" />
          <note key="60" pos="408" pan="0" len="24" vol="100" />
          <note key="60" pos="432" pan="0" len="24" vol="100" />
          <note key="70" pos="456" pan="0" len="24" vol="100" />
          <note key="72" pos="480" pan="0" len="24" vol="100" />
          <note key="60" pos="504" pan="0" len="24" vol="100" />
          <note key="60" pos="528" pan="0" len="24" vol="100" />
          <note key="70" pos="552" pan="0" len="24" vol="100" />
          <note key="60" pos="576" pan="0" len="24" vol="100" />
          <note key="60" pos="600" pan="0" len="24" vol="100" />
          <note key="60" pos="624" pan="0" len="24" vol="100" />
          <note key="70" pos="648" pan="0" len="24" vol="100" />
          <note key="72" pos="672" pan="0" len="24" vol="100" />
          <note key="60" pos="696" pan="0" len="24" vol="100" />
          <note key="60" pos="720" pan="0" len="24" vol="100" />
          <note key="70" pos="744" pan="0" len="24" vol="100" />
          <note key="60" pos="768" pan="0" len="24" vol="100" />
          <note key="60" pos="792" pan="0" len="24" vol="100" />
          <note key="60" pos="816" pan="0" len="24" vol="100" />
          <note key="70" pos="840" pan="0" len="24" vol="100" />
          <note key="72" pos="864" pan="0" len="24" vol="100" />
          <note key="60" pos="888" pan="0" len="24" vol="100" />
          <note key="60" pos="912" pan="0" len="24" vol="100" />
          <note key="70" pos="936" pan="0" len="24" vol="100" />
          <note key="60" pos="960" pan="0" len="24" vol="100" />
          <note key="60" pos="984" pan="0" len="24" vol="100" />
          <note key="60" pos="1008" pan="0" len="24" vol="100" />
          <note key="70" pos="1032" pan="0" len="24" vol="100" />
          <note key="72" pos="1056" pan="0" len="24" vol="100" />
          <note key="60" pos="1080" pan="0" len="24" vol="100" />
          <note key="60" pos="1104" pan="0" len="24" vol="100" />
          <note key="70" pos="1128" pan="0" len="24" vol="100" />
          <note key="60" pos="1152" pan="0" len="24" vol="100" />
          <note key="60" pos="1176" pan="0" len="24" vol="100" />
          <note key="60" pos="1200" pan="0" len="24" vol="100" />
          <note key="70" pos="1224" pan="0" len="24" vol="100" />
          <note key="72" pos="1248" pan="0" len="24" vol="100" />
          <note key="60" pos="1272" pan="0" len="24" vol="100" />
          <note key="60" pos="1296" pan="0" len="24" vol="100" />
          <note key="70" pos="1320" pan="0" len="24" vol="100" />
          <note key="60" pos="1344" pan="0" len="24" vol="100" />
          <note key="60" pos="1368" pan="0" len="24" vol="100" />
          <note key="60" pos="1392" pan="0" len="24" vol="100" />
          <note key="70" pos="1416" pan="0" len="24" vol="100" />
          <note key="72" pos="1440" pan="0" len="24" vol="100" />
          <note key="60" pos="1464" pan="0" len="24" vol="100" />
          <note key="60" pos="1488" pan="0" len="24" vol="100" />
          <note key="70" pos="1512" pan="0" len="24" vol="100" />
        </pattern>
        <pattern pos="23808" muted="0" steps="16" name="" type="1">
          <note key="60" pos="0" pan="0" len="24" vol="100" />
          <note key="60" pos="24" pan="0" len="24" vol="100" />
          <note key="60" pos="48" pan="0" len="24" vol="100" />
          <note key="70" pos="72" pan="0" len="24" vol="100" />
          <note key="72" pos="96" pan="0" len="24" vol="100" />
          <note key="60" pos="120" pan="0" len="24" vol="100" />
          <note key="60" pos="144" pan="0" len="24" vol="100" />
          <note key="70" pos="168" pan="0" len="24" vol="100" />
          <note key="60" pos="192" pan="0" len="24" vol="100" />
          <note key="60" pos="216" pan="0" len="24" vol="100" />
          <note key="60" pos="240" pan="0" len="24" vol="100" />
          <note key="70" pos="264" pan="0" len="24" vol="100" />
          <note key="72" pos="288" pan="0" len="24" vol="100" />
          <note key="60" pos="312" pan="0" len="24" vol="100" />
          <note key="60" pos="336" pan="0" len="24" vol="100" />
          <note key="70" pos="360" pan="0" len="24" vol="100" />
          <note key="60" pos="384" pan="0" len="24" vol="100" />
          <note key="60" pos="408" pan="0" len="24" vol="100" />
          <note key="60" pos="432" pan="0" len="24" vol="100" />
          <note key="70" pos="456" pan="0" len="24" vol="100" />
          <note key="72" pos="480" pan="0" len="24" vol="100" />
          <note key="60" pos="504" pan="0" len="24" vol="100" />
          <note key="60" pos="528" pan="0" len="24" vol="100" />
          <note key="70" pos="552" pan="0" len="24" vol="100" />
          <note key="60" pos="576" pan="0" len="24" vol="100" />
          <note key="60" pos="600" pan="0" len="24" vol="100" />
          <note key="60" pos="624" pan="0" len="24" vol="100" />
          <note key="70" pos="648" pan="0" len="24" vol="100" />
          <note key="72" pos="672" pan="0" len="24" vol="100" />
          <note key="60" pos="696" pan="0" len="24" vol="100" />
          <note key="60" pos="720" pan="0" len="24" vol="100" />
          <note key="70" pos="744" pan="0" len="24" vol="100" />
          <note key="60" pos="768" pan="0" len="24" vol="100" />
          <note key="60" pos="792" pan="0" len="24" vol="100" />
          <note key="60" pos="816" pan="0" len="24" vol="100" />
          <note key="70" pos="840" pan="0" len="24" vol="100" />
          <note key="72" pos="864" pan="0" len="24" vol="100" />
          <note key="60" pos="888" pan="0" len="24" vol="100" />
          <note key="60" pos="912" pan="0" len="24" vol="100" />
          <note key="70" pos="936" pan="0" len="24" vol="100" />
          <note key="60" pos="960" pan="0" len="24" vol="100" />
          <note key="60" pos="984" pan="0" len="24" vol="100" />
          <note key="60" pos="1008" pan="0" len="24" vol="100" />
          <note key="70" pos="1032" pan="0" len="24" vol="100" />
          <note key="72" pos="1056" pan="0" len="24" vol="100" />
          <note key="60" pos="1080" pan="0" len="24" vol="100" />
          <note key="60" pos="1104" pan="0" len="24" vol="100" />
          <note key="70" pos="1128" pan="0" len="24" vol="100" />
          <note key="60" pos="1152" pan="0" len="24" vol="100" />
          <note key="60" pos="1176" pan="0" len="24" vol="100" />
          <note key="60" pos="1200" pan="0" len="24" vol="100" />
          <note key="70" pos="1224" pan="0" len="24" vol="100" />
          <note key="72" pos="1248" pan="0" len="24" vol="100" />
          <note key="60" pos="1272" pan="0" len="24" vol="100" />
          <note key="60" pos="1296" pan="0" len="24" vol="100" />
          <note key="70" pos="1320" pan="0" len="24" vol="100" />
          <note key="60" pos="1344" pan="0" len="24" vol="100" />
          <note key="60" pos="1368" pan="0" len="24" vol="100" />
          <note key="60" pos="1392" pan="0" len="24" vol="100" />
          <note key="70" pos="1416" pan="0" len="24" vol="100" />
          <note key="72" pos="1440" pan="0" len="24" vol="100" />
          <note key="60" pos="1464" pan="0" len="24" vol="100" />
          <note key="60" pos="1488" pan="0" len="24" vol="100" />
          <note key="70" pos="1512" pan="0" len="24" vol="100" />
        </pattern>
        <pattern pos="25344" muted="0" steps="16" name="" type="1">
          <note key="60" pos="0" pan="0" len="24" vol="100" />
          <note key="60" pos="24" pan="0" len="24" vol="100" />
          <note key="60" pos="48" pan="0" len="24" vol="100" />
          <note key="70" pos="72" pan="0" len="24" vol="100" />
          <note key="72" pos="96" pan="0" len="24" vol="100" />
          <note key="60" pos="120" pan="0" len="24" vol="100" />
          <note key="60" pos="144" pan="0" len="24" vol="100" />
          <note key="70" pos="168" pan="0" len="24" vol="100" />
          <note key="60" pos="192" pan="0" len="24" vol="100" />
          <note key="60" pos="216" pan="0" len="24" vol="100" />
          <note key="60" pos="240" pan="0" len="24" vol="100" />
          <note key="70" pos="264" pan="0" len="24" vol="100" />
          <note key="72" pos="288" pan="0" len="24" vol="100" />
          <note key="60" pos="312" pan="0" len="24" vol="100" />
          <note key="60" pos="336" pan="0" len="24" vol="100" />
          <note key="70" pos="360" pan="0" len="24" vol="100" />
          <note key="60" pos="384" pan="0" len="24" vol="100" />
          <note key="60" pos="408" pan="0" len="24" vol="100" />
          <note key="60" pos="432" pan="0" len="24" vol="100" />
          <note key="70" pos="456" pan="0" len="24" vol="100" />
          <note key="72" pos="480" pan="0" len="24" vol="100" />
          <note key="60" pos="504" pan="0" len="24" vol="100" />
          <note key="60" pos="528" pan="0" len="24" vol="100" />
          <note key="70" pos="552" pan="0" len="24" vol="100" />
          <note key="60" pos="576" pan="0" len="24" vol="100" />
          <note key="60" pos="600" pan="0" len="24" vol="100" />
          <note key="60" pos="624" pan="0" len="24" vol="100" />
          <note key="70" pos="648" pan="0" len="24" vol="100" />
          <note key="72" pos="672" pan="0" len="24" vol="100" />
          <note key="60" pos="696" pan="0" len="24" vol="100" />
          <note key="60" pos="720" pan="0" len="24" vol="100" />
          <note key="70" pos="744" pan="0" len="24" vol="100" />
          <note key="60" pos="768" pan="0" len="24" vol="100" />
          <note key="60" pos="792" pan="0" len="24" vol="100" />
          <note key="60" pos="816" pan="0" len="24" vol="100" />
          <note key="70" pos="840" pan="0" len="24" vol="100" />
          <note key="72" pos="864" pan="0" len="24" vol="100" />
          <note key="60" pos="888" pan="0" len="24" vol="100" />
          <note key="60" pos="912" pan="0" len="24" vol="100" />
          <note key="70" pos="936" pan="0" len="24" vol="100" />
          <note key="60" pos="960" pan="0" len="24" vol="100" />
          <note key="60" pos="984" pan="0" len="24" vol="100" />
          <note key="60" pos="1008" pan="0" len="24" vol="100" />
          <note key="70" pos="1032" pan="0" len="24" vol="100" />
          <note key="72" pos="1056" pan="0" len="24" vol="100" />
          <note key="60" pos="1080" pan="0" len="24" vol="100" />
          <note key="60" pos="1104" pan="0" len="24" vol="100" />
          <note key="70" pos="1128" pan="0" len="24" vol="100" />
          <note key="60" pos="1152" pan="0" len="24" vol="100" />
          <note key="60" pos="1176" pan="0" len="24" vol="100" />
          <note key="60" pos="1200" pan="0" len="24" vol="100" />
          <note key="70" pos="1224" pan="0" len="24" vol="100" />
          <note key="72" pos="1248" pan="0" len="24" vol="100" />
          <note key="60" pos="1272" pan="0" len="24" vol="100" />
          <note key="60" pos="1296" pan="0" len="24" vol="100" />
          <note key="70" pos="1320" pan="0" len="24" vol="100" />
          <note key="60" pos="1344" pan="0" len="24" vol="100" />
          <note key="60" pos="1368" pan="0" len="24" vol="100" />
          <note key="60" pos="1392" pan="0" len="24" vol="100" />
          <note key="70" pos="1416" pan="0" len="24" vol="100" />
          <note key="72" pos="1440" pan="0" len="24" vol="100" />
          <note key="60" pos="1464" pan="0" len="24" vol="100" />
          <note key="60" pos="1488" pan="0" len="24" vol="100" />
          <note key="70" pos="1512" pan="0" len="24" vol="100" />
        </pattern>
        <pattern pos="26880" muted="0" steps="16" name="" type="1">
          <note key="60" pos="0" pan="0" len="24" vol="100" />
          <note key="60" pos="24" pan="0" len="24" vol="100" />
          <note key="60" pos="48" pan="0" len="24" vol="100" />
          <note key="70" pos="72" pan="0" len="24" vol="100" />
          <note key="72" pos="96" pan="0" len="24" vol="100" />
          <note key="60" pos="120" pan="0" len="24" vol="100" />
          <note key="60" pos="144" pan="0" len="24" vol="100" />
          <note key="70" pos="168" pan="0" len="24" vol="100" />
          <note key="60" pos="192" pan="0" len="24" vol="100" />
          <note key="60" pos="216" pan="0" len="24" vol="100" />
          <note key="60" pos="240" pan="0" len="24" vol="100" />
          <note key="70" pos="264" pan="0" len="24" vol="100" />
          <note key="72" pos="288" pan="0" len="24" vol="100" />
          <note key="60" pos="312" pan="0" len="24" vol="100" />
          <note key="60" pos="336" pan="0" len="24" vol="100" />
          <note key="70" pos="360" pan="0" len="24" vol="100" />
          <note key="60" pos="384" pan="0" len="24" vol="100" />
          <note key="60" pos="408" pan="0" len="24" vol="100" />
          <note key="60" pos="432" pan="0" len="24" vol="100" />
          <note key="70" pos="456" pan="0" len="24" vol="100" />
          <note key="72" pos="480" pan="0" len="24" vol="100" />
          <note key="60" pos="504" pan="0" len="24" vol="100" />
          <note key="60" pos="528" pan="0" len="24" vol="100" />
          <note key="70" pos="552" pan="0" len="24" vol="100" />
          <note key="60" pos="576" pan="0" len="24" vol="100" />
          <note key="60" pos="600" pan="0" len="24" vol="100" />
          <note key="60" pos="624" pan="0" len="24" vol="100" />
          <note key="70" pos="648" pan="0" len="24" vol="100" />
          <note key="72" pos="672" pan="0" len="24" vol="100" />
          <note key="60" pos="696" pan="0" len="24" vol="100" />
          <note key="60" pos="720" pan="0" len="24" vol="100" />
          <note key="70" pos="744" pan="0" len="24" vol="100" />
          <note key="60" pos="768" pan="0" len="24" vol="100" />
          <note key="60" pos="792" pan="0" len="24" vol="100" />
          <note key="60" pos="816" pan="0" len="24" vol="100" />
          <note key="70" pos="840" pan="0" len="24" vol="100" />
          <note key="72" pos="864" pan="0" len="24" vol="100" />
          <note key="60" pos="888" pan="0" len="24" vol="100" />
          <note key="60" pos="912" pan="0" len="24" vol="100" />
          <note key="70" pos="936" pan="0" len="24" vol="100" />
          <note key="60" pos="960" pan="0" len="24" vol="100" />
          <note key="60" pos="984" pan="0" len="24" vol="100" />
          <note key="60" pos="1008" pan="0" len="24" vol="100" />
          <note key="70" pos="1032" pan="0" len="24" vol="100" />
          <note key="72" pos="1056" pan="0" len="24" vol="100" />
          <note key="60" pos="1080" pan="0" len="24" vol="100" />
          <note key="60" pos="1104" pan="0" len="24" vol="100" />
          <note key="70" pos="1128" pan="0" len="24" vol="100" />
          <note key="60" pos="1152" pan="0" len="24" vol="100" />
          <note key="60" pos="1176" pan="0" len="24" vol="100" />
          <note key="60" pos="1200" pan="0" len="24" vol="100" />
          <note key="70" pos="1224" pan="0" len="24" vol="100" />
          <note key="72" pos="1248" pan="0" len="24" vol="100" />
          <note key="60" pos="1272" pan="0" len="24" vol="100" />
          <note key="60" pos="1296" pan="0" len="24" vol="100" />
          <note key="70" pos="1320" pan="0" len="24" vol="100" />
          <note key="60" pos="1344" pan="0" len="24" vol="100" />
          <note key="60" pos="1368" pan="0" len="24" vol="100" />
          <note key="60" pos="1392" pan="0" len="24" vol="100" />
          <note key="70" pos="1416" pan="0" len="24" vol="100" />
          <note key="72" pos="1440" pan="0" len="24" vol="100" />
          <note key="60" pos="1464" pan="0" len="24" vol="100" />
          <note key="60" pos="1488" pan="0" len="24" vol="100" />
          <note key="70" pos="1512" pan="0" len="24" vol="100" />
        </pattern>
        <pattern pos="28416" muted="0" steps="16" name="" type="1">
          <note key="60" pos="0" pan="0" len="12" vol="100" />
          <note key="72" pos="12" pan="0" len="12" vol="98" />
          <note key="60" pos="24" pan="0" len="12" vol="98" />
          <note key="70" pos="36" pan="0" len="12" vol="97" />
          <note key="72" pos="48" pan="0" len="12" vol="95" />
          <note key="60" pos="60" pan="0" len="12" vol="95" />
          <note key="60" pos="72" pan="0" len="12" vol="94" />
          <note key="72" pos="84" pan="0" len="12" vol="92" />
          <note key="60" pos="96" pan="0" len="12" vol="92" />
          <note key="70" pos="108" pan="0" len="12" vol="91" />
          <note key="72" pos="120" pan="0" len="12" vol="89" />
          <note key="60" pos="132" pan="0" len="12" vol="89" />
          <note key="60" pos="144" pan="0" len="12" vol="88" />
          <note key="72" pos="156" pan="0" len="12" vol="86" />
          <note key="60" pos="168" pan="0" len="12" vol="86" />
          <note key="70" pos="180" pan="0" len="12" vol="84" />
          <note key="72" pos="192" pan="0" len="12" vol="83" />
          <note key="60" pos="204" pan="0" len="12" vol="83" />
          <note key="60" pos="216" pan="0" len="12" vol="81" />
          <note key="72" pos="228" pan="0" len="12" vol="80" />
          <note key="60" pos="240" pan="0" len="12" vol="80" />
          <note key="70" pos="252" pan="0" len="12" vol="78" />
          <note key="72" pos="264" pan="0" len="12" vol="77" />
          <note key="60" pos="276" pan="0" len="12" vol="77" />
          <note key="60" pos="288" pan="0" len="12" vol="75" />
          <note key="72" pos="300" pan="0" len="12" vol="73" />
          <note key="60" pos="312" pan="0" len="12" vol="73" />
          <note key="70" pos="324" pan="0" len="12" vol="72" />
          <note key="72" pos="336" pan="0" len="12" vol="70" />
          <note key="60" pos="348" pan="0" len="12" vol="70" />
          <note key="60" pos="360" pan="0" len="12" vol="69" />
          <note key="72" pos="372" pan="0" len="12" vol="67" />
          <note key="60" pos="384" pan="0" len="12" vol="67" />
          <note key="70" pos="396" pan="0" len="12" vol="66" />
          <note key="72" pos="408" pan="0" len="12" vol="64" />
          <note key="60" pos="420" pan="0" len="12" vol="64" />
          <note key="60" pos="432" pan="0" len="12" vol="62" />
          <note key="72" pos="444" pan="0" len="12" vol="61" />
          <note key="60" pos="456" pan="0" len="12" vol="61" />
          <note key="70" pos="468" pan="0" len="12" vol="59" />
          <note key="72" pos="480" pan="0" len="12" vol="58" />
          <note key="60" pos="492" pan="0" len="12" vol="58" />
          <note key="60" pos="504" pan="0" len="12" vol="56" />
          <note key="72" pos="516" pan="0" len="12" vol="55" />
          <note key="60" pos="528" pan="0" len="12" vol="55" />
          <note key="70" pos="540" pan="0" len="12" vol="53" />
          <note key="72" pos="552" pan="0" len="12" vol="52" />
          <note key="60" pos="564" pan="0" len="12" vol="52" />
          <note key="60" pos="576" pan="0" len="12" vol="50" />
          <note key="72" pos="588" pan="0" len="12" vol="48" />
          <note key="60" pos="600" pan="0" len="12" vol="48" />
          <note key="70" pos="612" pan="0" len="12" vol="47" />
          <note key="72" pos="624" pan="0" len="12" vol="45" />
          <note key="60" pos="636" pan="0" len="12" vol="45" />
          <note key="60" pos="648" pan="0" len="12" vol="44" />
          <note key="72" pos="660" pan="0" len="12" vol="42" />
          <note key="60" pos="672" pan="0" len="12" vol="42" />
          <note key="70" pos="684" pan="0" len="12" vol="41" />
          <note key="72" pos="696" pan="0" len="12" vol="39" />
          <note key="60" pos="708" pan="0" len="12" vol="39" />
          <note key="60" pos="720" pan="0" len="12" vol="38" />
          <note key="72" pos="732" pan="0" len="12" vol="36" />
          <note key="60" pos="744" pan="0" len="12" vol="36" />
          <note key="70" pos="756" pan="0" len="12" vol="34" />
          <note key="72" pos="768" pan="0" len="12" vol="33" />
          <note key="60" pos="780" pan="0" len="12" vol="33" />
          <note key="60" pos="792" pan="0" len="12" vol="31" />
          <note key="72" pos="804" pan="0" len="12" vol="30" />
          <note key="60" pos="816" pan="0" len="12" vol="30" />
          <note key="70" pos="828" pan="0" len="12" vol="28" />
          <note key="72" pos="840" pan="0" len="12" vol="27" />
          <note key="60" pos="852" pan="0" len="12" vol="27" />
          <note key="60" pos="864" pan="0" len="12" vol="25" />
          <note key="72" pos="876" pan="0" len="12" vol="23" />
          <note key="60" pos="888" pan="0" len="12" vol="23" />
          <note key="70" pos="900" pan="0" len="12" vol="22" />
          <note key="72" pos="912" pan="0" len="12" vol="20" />
          <note key="60" pos="924" pan="0" len="12" vol="20" />
          <note key="60" pos="936" pan="0" len="12" vol="19" />
          <note key="72" pos="948" pan="0" len="12" vol="17" />
          <note key="60" pos="960" pan="0" len="12" vol="17" />
          <note key="70" pos="972" pan="0" len="12" vol="16" />
          <note key="72" pos="984" pan="0" len="12" vol="14" />
          <note key="60" pos="996" pan="0" len="12" vol="14" />
          <note key="60" pos="1008" pan="0" len="12" vol="12" />
          <note key="72" pos="1020" pan="0" len="12" vol="11" />
          <note key="60" pos="1032" pan="0" len="12" vol="11" />
          <note key="70" pos="1044" pan="0" len="12" vol="9" />
          <note key="72" pos="1056" pan="0" len="12" vol="8" />
          <note key="60" pos="1068" pan="0" len="12" vol="8" />
          <note key="60" pos="1080" pan="0" len="12" vol="6" />
          <note key="72" pos="1092" pan="0" len="12" vol="5" />
          <note key="60" pos="1104" pan="0" len="12" vol="5" />
          <note key="70" pos="1116" pan="0" len="12" vol="3" />
          <note key="72" pos="1128" pan="0" len="12" vol="2" />
          <note key="60" pos="1140" pan="0" len="12" vol="2" />
        </pattern>
        <pattern pos="95232" muted="0" steps="16" name="" type="1">
          <note key="60" pos="144" pan="0" len="24" vol="34" />
          <note key="60" pos="528" pan="0" len="24" vol="34" />
          <note key="60" pos="912" pan="0" len="24" vol="34" />
          <note key="60" pos="1296" pan="0" len="24" vol="34" />
        </pattern>
        <pattern pos="96768" muted="0" steps="16" name="" type="1">
          <note key="60" pos="144" pan="0" len="24" vol="34" />
          <note key="60" pos="528" pan="0" len="24" vol="34" />
          <note key="60" pos="912" pan="0" len="24" vol="34" />
          <note key="60" pos="1296" pan="0" len="24" vol="34" />
        </pattern>
        <pattern pos="98304" muted="0" steps="16" name="" type="1">
          <note key="60" pos="144" pan="0" len="24" vol="34" />
          <note key="60" pos="528" pan="0" len="24" vol="34" />
          <note key="60" pos="912" pan="0" len="24" vol="34" />
          <note key="60" pos="1296" pan="0" len="24" vol="34" />
        </pattern>
        <pattern pos="99840" muted="0" steps="16" name="" type="1">
          <note key="60" pos="144" pan="0" len="24" vol="34" />
          <note key="60" pos="528" pan="0" len="24" vol="34" />
          <note key="60" pos="912" pan="0" len="24" vol="34" />
          <note key="60" pos="1296" pan="0" len="24" vol="34" />
        </pattern>
        <pattern pos="101376" muted="0" steps="16" name="" type="1">
          <note key="60" pos="144" pan="0" len="24" vol="34" />
          <note key="60" pos="528" pan="0" len="24" vol="34" />
          <note key="60" pos="912" pan="0" len="24" vol="34" />
          <note key="60" pos="1296" pan="0" len="24" vol="34" />
        </pattern>
        <pattern pos="102912" muted="0" steps="16" name="" type="1">
          <note key="60" pos="144" pan="0" len="24" vol="34" />
          <note key="60" pos="528" pan="0" len="24" vol="34" />
          <note key="60" pos="912" pan="0" len="24" vol="34" />
          <note key="60" pos="1296" pan="0" len="24" vol="34" />
        </pattern>
        <pattern pos="105984" muted="0" steps="16" name="" type="1">
          <note key="62" pos="144" pan="0" len="24" vol="0" />
          <note key="62" pos="528" pan="0" len="24" vol="2" />
          <note key="62" pos="912" pan="0" len="24" vol="8" />
          <note key="62" pos="1296" pan="0" len="24" vol="22" />
        </pattern>
        <pattern pos="107520" muted="0" steps="16" name="" type="1">
          <note key="65" pos="144" pan="0" len="24" vol="34" />
          <note key="65" pos="528" pan="0" len="24" vol="34" />
          <note key="65" pos="912" pan="0" len="24" vol="34" />
          <note key="65" pos="1296" pan="0" len="24" vol="34" />
        </pattern>
        <pattern pos="109056" muted="0" steps="16" name="" type="1">
          <note key="65" pos="144" pan="0" len="24" vol="34" />
          <note key="65" pos="528" pan="0" len="24" vol="34" />
          <note key="65" pos="912" pan="0" len="24" vol="34" />
          <note key="65" pos="1296" pan="0" len="24" vol="34" />
        </pattern>
        <pattern pos="110592" muted="0" steps="16" name="" type="1">
          <note key="63" pos="144" pan="0" len="24" vol="34" />
          <note key="63" pos="528" pan="0" len="24" vol="34" />
          <note key="63" pos="912" pan="0" len="24" vol="34" />
          <note key="63" pos="1296" pan="0" len="24" vol="34" />
        </pattern>
        <pattern pos="112128" muted="0" steps="16" name="" type="1">
          <note key="63" pos="144" pan="0" len="24" vol="34" />
          <note key="63" pos="528" pan="0" len="24" vol="34" />
          <note key="63" pos="912" pan="0" len="24" vol="34" />
          <note key="63" pos="1296" pan="0" len="24" vol="34" />
        </pattern>
        <pattern pos="122880" muted="0" steps="16" name="" type="1">
          <note key="60" pos="144" pan="0" len="24" vol="34" />
          <note key="60" pos="528" pan="0" len="24" vol="34" />
          <note key="60" pos="912" pan="0" len="24" vol="34" />
          <note key="60" pos="1296" pan="0" len="24" vol="34" />
        </pattern>
        <pattern pos="124416" muted="0" steps="16" name="" type="1">
          <note key="60" pos="144" pan="0" len="24" vol="34" />
          <note key="60" pos="528" pan="0" len="24" vol="34" />
          <note key="60" pos="912" pan="0" len="24" vol="34" />
          <note key="60" pos="1296" pan="0" len="24" vol="34" />
        </pattern>
        <pattern pos="125952" muted="0" steps="16" name="" type="1">
          <note key="60" pos="144" pan="0" len="24" vol="34" />
          <note key="60" pos="528" pan="0" len="24" vol="34" />
          <note key="60" pos="912" pan="0" len="24" vol="34" />
          <note key="60" pos="1296" pan="0" len="24" vol="34" />
        </pattern>
        <pattern pos="127488" muted="0" steps="16" name="" type="1">
          <note key="60" pos="144" pan="0" len="24" vol="34" />
          <note key="60" pos="528" pan="0" len="24" vol="34" />
          <note key="60" pos="912" pan="0" len="24" vol="34" />
          <note key="60" pos="1296" pan="0" len="24" vol="34" />
        </pattern>
        <pattern pos="129024" muted="0" steps="16" name="" type="1">
          <note key="60" pos="144" pan="0" len="24" vol="34" />
          <note key="60" pos="528" pan="0" len="24" vol="34" />
          <note key="63" pos="912" pan="0" len="24" vol="34" />
          <note key="58" pos="1296" pan="0" len="24" vol="34" />
        </pattern>
        <pattern pos="130560" muted="0" steps="16" name="" type="1">
          <note key="60" pos="144" pan="0" len="24" vol="34" />
          <note key="60" pos="528" pan="0" len="24" vol="34" />
          <note key="63" pos="912" pan="0" len="24" vol="34" />
          <note key="58" pos="1296" pan="0" len="24" vol="34" />
        </pattern>
        <pattern pos="132096" muted="0" steps="16" name="" type="1">
          <note key="60" pos="144" pan="0" len="24" vol="34" />
          <note key="60" pos="528" pan="0" len="24" vol="34" />
          <note key="63" pos="912" pan="0" len="24" vol="34" />
          <note key="58" pos="1296" pan="0" len="24" vol="34" />
        </pattern>
      </track>
      <track solo="0" name="54 (Ch4)" type="0" muted="0">
        <instrumenttrack usemasterpitch="1" pitch="0.0" basenote="57" pan="0" pitchrange="12" vol="30">
          <eldata />
          <instrument name="tripleoscillator" />
        </instrumenttrack>
        <pattern pos="267648" muted="0" steps="16" name="" type="1">
          <note key="68" pos="0" pan="0" len="36" vol="100" />
          <note key="68" pos="36" pan="0" len="12" vol="100" />
          <note key="63" pos="144" pan="0" len="48" vol="100" />
          <note key="68" pos="192" pan="0" len="36" vol="100" />
          <note key="68" pos="228" pan="0" len="12" vol="100" />
          <note key="68" pos="336" pan="0" len="48" vol="100" />
          <note key="70" pos="384" pan="0" len="36" vol="100" />
          <note key="70" pos="420" pan="0" len="12" vol="100" />
          <note key="65" pos="528" pan="0" len="48" vol="100" />
          <note key="70" pos="576" pan="0" len="36" vol="100" />
          <note key="70" pos="612" pan="0" len="12" vol="100" />
          <note key="65" pos="720" pan="0" len="48" vol="100" />
          <note key="68" pos="768" pan="0" len="36" vol="100" />
          <note key="68" pos="804" pan="0" len="12" vol="100" />
          <note key="63" pos="912" pan="0" len="48" vol="100" />
          <note key="68" pos="960" pan="0" len="36" vol="100" />
          <note key="68" pos="996" pan="0" len="12" vol="100" />
          <note key="68" pos="1104" pan="0" len="48" vol="100" />
          <note key="70" pos="1152" pan="0" len="36" vol="100" />
          <note key="70" pos="1188" pan="0" len="12" vol="100" />
          <note key="65" pos="1296" pan="0" len="48" vol="100" />
          <note key="70" pos="1344" pan="0" len="48" vol="100" />
        </pattern>
        <pattern pos="93696" muted="0" steps="16" name="" type="1">
          <note key="60" pos="0" pan="0" len="48" vol="100" />
          <note key="60" pos="384" pan="0" len="48" vol="100" />
          <note key="60" pos="768" pan="0" len="48" vol="100" />
          <note key="60" pos="1152" pan="0" len="48" vol="100" />
        </pattern>
        <pattern pos="95232" muted="0" steps="16" name="" type="1">
          <note key="60" pos="0" pan="0" len="48" vol="100" />
          <note key="60" pos="384" pan="0" len="48" vol="100" />
          <note key="60" pos="768" pan="0" len="48" vol="100" />
          <note key="60" pos="1152" pan="0" len="48" vol="100" />
        </pattern>
        <pattern pos="96768" muted="0" steps="16" name="" type="1">
          <note key="60" pos="0" pan="0" len="48" vol="100" />
          <note key="60" pos="384" pan="0" len="48" vol="100" />
          <note key="60" pos="768" pan="0" len="48" vol="100" />
          <note key="60" pos="1152" pan="0" len="48" vol="100" />
        </pattern>
        <pattern pos="98304" muted="0" steps="16" name="" type="1">
          <note key="60" pos="0" pan="0" len="48" vol="100" />
          <note key="60" pos="384" pan="0" len="48" vol="100" />
          <note key="60" pos="768" pan="0" len="48" vol="100" />
          <note key="60" pos="1152" pan="0" len="48" vol="100" />
        </pattern>
        <pattern pos="99840" muted="0" steps="16" name="" type="1">
          <note key="60" pos="0" pan="0" len="48" vol="100" />
          <note key="60" pos="384" pan="0" len="48" vol="100" />
          <note key="60" pos="768" pan="0" len="48" vol="100" />
          <note key="60" pos="1152" pan="0" len="48" vol="100" />
        </pattern>
        <pattern pos="101376" muted="0" steps="16" name="" type="1">
          <note key="62" pos="0" pan="0" len="48" vol="100" />
          <note key="62" pos="384" pan="0" len="48" vol="100" />
          <note key="67" pos="768" pan="0" len="48" vol="100" />
          <note key="67" pos="1152" pan="0" len="48" vol="100" />
        </pattern>
        <pattern pos="102912" muted="0" steps="16" name="" type="1">
          <note key="62" pos="0" pan="0" len="48" vol="100" />
          <note key="62" pos="384" pan="0" len="48" vol="100" />
          <note key="67" pos="768" pan="0" len="48" vol="100" />
          <note key="67" pos="1152" pan="0" len="48" vol="100" />
        </pattern>
        <pattern pos="104448" muted="0" steps="16" name="" type="1">
          <note key="62" pos="768" pan="0" len="48" vol="2" />
          <note key="74" pos="816" pan="0" len="24" vol="8" />
          <note key="62" pos="960" pan="0" len="48" vol="27" />
          <note key="74" pos="1008" pan="0" len="24" vol="33" />
          <note key="62" pos="1152" pan="0" len="48" vol="52" />
          <note key="74" pos="1200" pan="0" len="24" vol="58" />
          <note key="62" pos="1344" pan="0" len="48" vol="77" />
          <note key="74" pos="1392" pan="0" len="24" vol="83" />
        </pattern>
        <pattern pos="105984" muted="0" steps="16" name="" type="1">
          <note key="62" pos="0" pan="0" len="48" vol="100" />
          <note key="74" pos="48" pan="0" len="24" vol="100" />
          <note key="62" pos="192" pan="0" len="48" vol="100" />
          <note key="74" pos="240" pan="0" len="24" vol="100" />
          <note key="62" pos="384" pan="0" len="48" vol="100" />
          <note key="74" pos="432" pan="0" len="24" vol="100" />
          <note key="62" pos="576" pan="0" len="48" vol="100" />
          <note key="74" pos="624" pan="0" len="24" vol="100" />
          <note key="62" pos="768" pan="0" len="48" vol="100" />
          <note key="74" pos="816" pan="0" len="24" vol="100" />
          <note key="62" pos="960" pan="0" len="48" vol="100" />
          <note key="74" pos="1008" pan="0" len="24" vol="100" />
          <note key="62" pos="1152" pan="0" len="48" vol="100" />
          <note key="74" pos="1200" pan="0" len="24" vol="100" />
          <note key="62" pos="1344" pan="0" len="48" vol="100" />
          <note key="74" pos="1392" pan="0" len="24" vol="100" />
        </pattern>
        <pattern pos="107520" muted="0" steps="16" name="" type="1">
          <note key="62" pos="768" pan="0" len="48" vol="100" />
        </pattern>
        <pattern pos="109056" muted="0" steps="16" name="" type="1">
          <note key="62" pos="768" pan="0" len="48" vol="100" />
        </pattern>
        <pattern pos="122880" muted="0" steps="16" name="" type="1">
          <note key="60" pos="0" pan="0" len="48" vol="100" />
          <note key="60" pos="384" pan="0" len="48" vol="100" />
          <note key="60" pos="768" pan="0" len="48" vol="100" />
          <note key="60" pos="1152" pan="0" len="48" vol="100" />
        </pattern>
        <pattern pos="124416" muted="0" steps="16" name="" type="1">
          <note key="60" pos="0" pan="0" len="48" vol="100" />
          <note key="60" pos="384" pan="0" len="48" vol="100" />
          <note key="60" pos="768" pan="0" len="48" vol="100" />
          <note key="60" pos="1152" pan="0" len="48" vol="100" />
        </pattern>
        <pattern pos="125952" muted="0" steps="16" name="" type="1">
          <note key="60" pos="0" pan="0" len="48" vol="100" />
          <note key="60" pos="384" pan="0" len="48" vol="100" />
          <note key="60" pos="768" pan="0" len="48" vol="100" />
          <note key="60" pos="1152" pan="0" len="48" vol="100" />
        </pattern>
        <pattern pos="127488" muted="0" steps="16" name="" type="1">
          <note key="60" pos="0" pan="0" len="48" vol="100" />
          <note key="60" pos="384" pan="0" len="48" vol="100" />
          <note key="60" pos="768" pan="0" len="48" vol="100" />
          <note key="60" pos="1152" pan="0" len="48" vol="100" />
        </pattern>
        <pattern pos="129024" muted="0" steps="16" name="" type="1">
          <note key="60" pos="0" pan="0" len="48" vol="100" />
          <note key="60" pos="384" pan="0" len="48" vol="100" />
          <note key="63" pos="768" pan="0" len="48" vol="100" />
          <note key="58" pos="1152" pan="0" len="48" vol="100" />
        </pattern>
        <pattern pos="130560" muted="0" steps="16" name="" type="1">
          <note key="60" pos="0" pan="0" len="48" vol="100" />
          <note key="60" pos="384" pan="0" len="48" vol="100" />
          <note key="63" pos="768" pan="0" len="48" vol="100" />
          <note key="58" pos="1152" pan="0" len="48" vol="100" />
        </pattern>
        <pattern pos="132096" muted="0" steps="16" name="" type="1">
          <note key="60" pos="0" pan="0" len="48" vol="100" />
          <note key="60" pos="384" pan="0" len="48" vol="100" />
          <note key="63" pos="768" pan="0" len="48" vol="100" />
          <note key="58" pos="1152" pan="0" len="48" vol="100" />
        </pattern>
        <pattern pos="133632" muted="0" steps="16" name="" type="1">
          <note key="60" pos="0" pan="0" len="48" vol="100" />
          <note key="60" pos="384" pan="0" len="48" vol="100" />
          <note key="63" pos="768" pan="0" len="48" vol="100" />
          <note key="58" pos="1152" pan="0" len="48" vol="100" />
        </pattern>
        <pattern pos="135168" muted="0" steps="16" name="" type="1">
          <note key="60" pos="0" pan="0" len="768" vol="100" />
        </pattern>
        <pattern pos="141312" muted="0" steps="16" name="" type="1">
          <note key="60" pos="0" pan="0" len="240" vol="100" />
          <note key="60" pos="240" pan="0" len="144" vol="100" />
          <note key="60" pos="384" pan="0" len="240" vol="100" />
          <note key="60" pos="624" pan="0" len="144" vol="100" />
          <note key="60" pos="768" pan="0" len="240" vol="100" />
          <note key="60" pos="1008" pan="0" len="144" vol="100" />
          <note key="60" pos="1152" pan="0" len="240" vol="100" />
          <note key="60" pos="1392" pan="0" len="144" vol="100" />
        </pattern>
        <pattern pos="142848" muted="0" steps="16" name="" type="1">
          <note key="60" pos="0" pan="0" len="96" vol="100" />
          <note key="60" pos="192" pan="0" len="48" vol="100" />
          <note key="60" pos="240" pan="0" len="48" vol="100" />
          <note key="60" pos="384" pan="0" len="96" vol="100" />
          <note key="60" pos="576" pan="0" len="48" vol="100" />
          <note key="60" pos="624" pan="0" len="48" vol="100" />
          <note key="60" pos="768" pan="0" len="96" vol="100" />
          <note key="60" pos="960" pan="0" len="48" vol="100" />
          <note key="60" pos="1008" pan="0" len="48" vol="100" />
          <note key="60" pos="1152" pan="0" len="96" vol="100" />
          <note key="65" pos="1344" pan="0" len="48" vol="100" />
          <note key="65" pos="1392" pan="0" len="48" vol="100" />
        </pattern>
        <pattern pos="144384" muted="0" steps="16" name="" type="1">
          <note key="60" pos="0" pan="0" len="96" vol="100" />
          <note key="60" pos="192" pan="0" len="48" vol="100" />
          <note key="60" pos="240" pan="0" len="48" vol="100" />
          <note key="60" pos="384" pan="0" len="96" vol="100" />
          <note key="60" pos="576" pan="0" len="48" vol="100" />
          <note key="60" pos="624" pan="0" len="48" vol="100" />
          <note key="60" pos="768" pan="0" len="96" vol="100" />
          <note key="60" pos="960" pan="0" len="48" vol="100" />
          <note key="60" pos="1008" pan="0" len="48" vol="100" />
          <note key="60" pos="1152" pan="0" len="96" vol="100" />
          <note key="65" pos="1344" pan="0" len="48" vol="100" />
          <note key="65" pos="1392" pan="0" len="48" vol="100" />
        </pattern>
        <pattern pos="145920" muted="0" steps="16" name="" type="1">
          <note key="68" pos="0" pan="0" len="192" vol="100" />
          <note key="68" pos="192" pan="0" len="48" vol="100" />
          <note key="68" pos="240" pan="0" len="144" vol="100" />
          <note key="67" pos="384" pan="0" len="192" vol="100" />
          <note key="67" pos="576" pan="0" len="48" vol="100" />
          <note key="67" pos="624" pan="0" len="144" vol="100" />
          <note key="65" pos="768" pan="0" len="192" vol="100" />
          <note key="65" pos="960" pan="0" len="48" vol="100" />
          <note key="65" pos="1008" pan="0" len="144" vol="100" />
          <note key="67" pos="1152" pan="0" len="192" vol="100" />
          <note key="67" pos="1344" pan="0" len="48" vol="100" />
          <note key="67" pos="1392" pan="0" len="144" vol="100" />
        </pattern>
        <pattern pos="147456" muted="0" steps="16" name="" type="1">
          <note key="68" pos="0" pan="0" len="192" vol="100" />
          <note key="68" pos="192" pan="0" len="48" vol="100" />
          <note key="68" pos="240" pan="0" len="144" vol="100" />
          <note key="67" pos="384" pan="0" len="192" vol="100" />
          <note key="67" pos="576" pan="0" len="48" vol="100" />
          <note key="67" pos="624" pan="0" len="144" vol="100" />
          <note key="65" pos="768" pan="0" len="192" vol="100" />
          <note key="65" pos="960" pan="0" len="48" vol="100" />
          <note key="65" pos="1008" pan="0" len="144" vol="100" />
          <note key="67" pos="1152" pan="0" len="192" vol="100" />
          <note key="67" pos="1344" pan="0" len="48" vol="100" />
          <note key="67" pos="1392" pan="0" len="48" vol="100" />
          <note key="70" pos="1440" pan="0" len="96" vol="100" />
        </pattern>
        <pattern pos="148992" muted="0" steps="16" name="" type="1">
          <note key="60" pos="0" pan="0" len="96" vol="100" />
          <note key="60" pos="192" pan="0" len="48" vol="100" />
          <note key="60" pos="240" pan="0" len="48" vol="100" />
          <note key="60" pos="384" pan="0" len="96" vol="100" />
          <note key="60" pos="576" pan="0" len="48" vol="100" />
          <note key="60" pos="624" pan="0" len="48" vol="100" />
          <note key="60" pos="768" pan="0" len="96" vol="100" />
          <note key="60" pos="960" pan="0" len="48" vol="100" />
          <note key="60" pos="1008" pan="0" len="48" vol="100" />
          <note key="60" pos="1152" pan="0" len="96" vol="100" />
          <note key="65" pos="1344" pan="0" len="48" vol="100" />
          <note key="65" pos="1392" pan="0" len="48" vol="100" />
        </pattern>
        <pattern pos="150528" muted="0" steps="16" name="" type="1">
          <note key="60" pos="0" pan="0" len="96" vol="100" />
          <note key="60" pos="192" pan="0" len="48" vol="100" />
          <note key="60" pos="240" pan="0" len="48" vol="100" />
          <note key="60" pos="384" pan="0" len="96" vol="100" />
          <note key="60" pos="576" pan="0" len="48" vol="100" />
          <note key="60" pos="624" pan="0" len="48" vol="100" />
          <note key="60" pos="768" pan="0" len="96" vol="100" />
          <note key="60" pos="960" pan="0" len="48" vol="100" />
          <note key="60" pos="1008" pan="0" len="48" vol="100" />
          <note key="60" pos="1152" pan="0" len="96" vol="100" />
          <note key="65" pos="1344" pan="0" len="48" vol="100" />
          <note key="65" pos="1392" pan="0" len="48" vol="100" />
        </pattern>
        <pattern pos="152064" muted="0" steps="16" name="" type="1">
          <note key="63" pos="0" pan="0" len="96" vol="100" />
          <note key="63" pos="192" pan="0" len="48" vol="100" />
          <note key="67" pos="240" pan="0" len="48" vol="100" />
          <note key="65" pos="384" pan="0" len="96" vol="100" />
          <note key="65" pos="576" pan="0" len="48" vol="100" />
          <note key="65" pos="624" pan="0" len="48" vol="100" />
          <note key="62" pos="768" pan="0" len="96" vol="100" />
          <note key="63" pos="960" pan="0" len="48" vol="100" />
          <note key="67" pos="1008" pan="0" len="48" vol="100" />
          <note key="65" pos="1152" pan="0" len="96" vol="100" />
          <note key="65" pos="1344" pan="0" len="48" vol="100" />
          <note key="65" pos="1392" pan="0" len="144" vol="100" />
        </pattern>
        <pattern pos="153600" muted="0" steps="16" name="" type="1">
          <note key="62" pos="0" pan="0" len="96" vol="100" />
          <note key="63" pos="192" pan="0" len="48" vol="100" />
          <note key="67" pos="240" pan="0" len="48" vol="100" />
          <note key="65" pos="384" pan="0" len="96" vol="100" />
          <note key="65" pos="576" pan="0" len="48" vol="100" />
          <note key="65" pos="624" pan="0" len="48" vol="100" />
          <note key="62" pos="768" pan="0" len="96" vol="100" />
          <note key="63" pos="960" pan="0" len="48" vol="100" />
          <note key="67" pos="1008" pan="0" len="48" vol="100" />
          <note key="65" pos="1152" pan="0" len="96" vol="100" />
        </pattern>
        <pattern pos="155136" muted="0" steps="16" name="" type="1">
          <note key="60" pos="0" pan="0" len="96" vol="100" />
          <note key="60" pos="192" pan="0" len="48" vol="100" />
          <note key="60" pos="240" pan="0" len="48" vol="100" />
          <note key="60" pos="384" pan="0" len="96" vol="100" />
          <note key="60" pos="576" pan="0" len="48" vol="100" />
          <note key="60" pos="624" pan="0" len="48" vol="100" />
          <note key="60" pos="768" pan="0" len="96" vol="100" />
          <note key="60" pos="960" pan="0" len="48" vol="100" />
          <note key="60" pos="1008" pan="0" len="48" vol="100" />
          <note key="60" pos="1152" pan="0" len="96" vol="100" />
          <note key="65" pos="1344" pan="0" len="48" vol="100" />
          <note key="65" pos="1392" pan="0" len="48" vol="100" />
        </pattern>
        <pattern pos="156672" muted="0" steps="16" name="" type="1">
          <note key="60" pos="0" pan="0" len="96" vol="100" />
          <note key="60" pos="192" pan="0" len="48" vol="100" />
          <note key="60" pos="240" pan="0" len="48" vol="100" />
          <note key="60" pos="384" pan="0" len="96" vol="100" />
          <note key="60" pos="576" pan="0" len="48" vol="100" />
          <note key="60" pos="624" pan="0" len="48" vol="100" />
          <note key="60" pos="768" pan="0" len="96" vol="100" />
          <note key="60" pos="960" pan="0" len="48" vol="100" />
          <note key="60" pos="1008" pan="0" len="48" vol="100" />
          <note key="60" pos="1152" pan="0" len="96" vol="100" />
          <note key="65" pos="1344" pan="0" len="48" vol="100" />
          <note key="65" pos="1392" pan="0" len="48" vol="100" />
        </pattern>
        <pattern pos="158208" muted="0" steps="16" name="" type="1">
          <note key="68" pos="0" pan="0" len="192" vol="100" />
          <note key="68" pos="192" pan="0" len="48" vol="100" />
          <note key="68" pos="240" pan="0" len="144" vol="100" />
          <note key="67" pos="384" pan="0" len="192" vol="100" />
          <note key="67" pos="576" pan="0" len="48" vol="100" />
          <note key="67" pos="624" pan="0" len="144" vol="100" />
          <note key="65" pos="768" pan="0" len="192" vol="100" />
          <note key="65" pos="960" pan="0" len="48" vol="100" />
          <note key="65" pos="1008" pan="0" len="144" vol="100" />
          <note key="67" pos="1152" pan="0" len="192" vol="100" />
          <note key="67" pos="1344" pan="0" len="48" vol="100" />
          <note key="67" pos="1392" pan="0" len="144" vol="100" />
        </pattern>
        <pattern pos="159744" muted="0" steps="16" name="" type="1">
          <note key="68" pos="0" pan="0" len="192" vol="100" />
          <note key="68" pos="192" pan="0" len="48" vol="100" />
          <note key="68" pos="240" pan="0" len="144" vol="100" />
          <note key="67" pos="384" pan="0" len="192" vol="100" />
          <note key="67" pos="576" pan="0" len="48" vol="100" />
          <note key="67" pos="624" pan="0" len="144" vol="100" />
          <note key="65" pos="768" pan="0" len="192" vol="100" />
          <note key="65" pos="960" pan="0" len="48" vol="100" />
          <note key="65" pos="1008" pan="0" len="144" vol="100" />
          <note key="67" pos="1152" pan="0" len="192" vol="100" />
          <note key="67" pos="1344" pan="0" len="48" vol="100" />
          <note key="67" pos="1392" pan="0" len="48" vol="100" />
          <note key="70" pos="1440" pan="0" len="96" vol="100" />
        </pattern>
        <pattern pos="161280" muted="0" steps="16" name="" type="1">
          <note key="60" pos="0" pan="0" len="240" vol="100" />
          <note key="60" pos="240" pan="0" len="144" vol="100" />
          <note key="60" pos="384" pan="0" len="240" vol="100" />
          <note key="60" pos="624" pan="0" len="144" vol="100" />
          <note key="60" pos="768" pan="0" len="240" vol="100" />
          <note key="60" pos="1008" pan="0" len="144" vol="50" />
          <note key="60" pos="1152" pan="0" len="240" vol="34" />
          <note key="60" pos="1392" pan="0" len="144" vol="17" />
        </pattern>
        <pattern pos="259968" muted="0" steps="16" name="" type="1">
          <note key="65" pos="0" pan="0" len="36" vol="100" />
          <note key="65" pos="36" pan="0" len="12" vol="100" />
          <note key="65" pos="144" pan="0" len="48" vol="100" />
          <note key="65" pos="192" pan="0" len="36" vol="100" />
          <note key="65" pos="228" pan="0" len="12" vol="100" />
          <note key="65" pos="336" pan="0" len="48" vol="100" />
          <note key="63" pos="384" pan="0" len="36" vol="100" />
          <note key="63" pos="420" pan="0" len="12" vol="100" />
          <note key="65" pos="528" pan="0" len="48" vol="100" />
          <note key="63" pos="576" pan="0" len="36" vol="100" />
          <note key="63" pos="612" pan="0" len="12" vol="100" />
          <note key="63" pos="720" pan="0" len="48" vol="100" />
        </pattern>
        <pattern pos="260736" muted="0" steps="16" name="" type="1">
          <note key="65" pos="0" pan="0" len="36" vol="100" />
          <note key="65" pos="36" pan="0" len="12" vol="100" />
          <note key="65" pos="144" pan="0" len="48" vol="100" />
          <note key="65" pos="192" pan="0" len="36" vol="100" />
          <note key="65" pos="228" pan="0" len="12" vol="100" />
          <note key="65" pos="336" pan="0" len="48" vol="100" />
          <note key="63" pos="384" pan="0" len="36" vol="100" />
          <note key="63" pos="420" pan="0" len="12" vol="100" />
          <note key="65" pos="528" pan="0" len="48" vol="100" />
          <note key="63" pos="576" pan="0" len="36" vol="100" />
          <note key="63" pos="612" pan="0" len="12" vol="100" />
          <note key="63" pos="720" pan="0" len="48" vol="100" />
        </pattern>
        <pattern pos="261504" muted="0" steps="16" name="" type="1">
          <note key="68" pos="0" pan="0" len="36" vol="100" />
          <note key="68" pos="36" pan="0" len="12" vol="100" />
          <note key="68" pos="144" pan="0" len="48" vol="100" />
          <note key="68" pos="192" pan="0" len="36" vol="100" />
          <note key="68" pos="228" pan="0" len="12" vol="100" />
          <note key="68" pos="336" pan="0" len="48" vol="100" />
          <note key="68" pos="384" pan="0" len="36" vol="100" />
          <note key="68" pos="420" pan="0" len="12" vol="100" />
          <note key="68" pos="528" pan="0" len="48" vol="100" />
          <note key="68" pos="576" pan="0" len="36" vol="100" />
          <note key="68" pos="612" pan="0" len="12" vol="100" />
          <note key="68" pos="720" pan="0" len="48" vol="100" />
        </pattern>
        <pattern pos="262272" muted="0" steps="16" name="" type="1">
          <note key="68" pos="0" pan="0" len="36" vol="100" />
          <note key="68" pos="36" pan="0" len="12" vol="100" />
          <note key="68" pos="144" pan="0" len="48" vol="100" />
          <note key="68" pos="192" pan="0" len="36" vol="100" />
          <note key="68" pos="228" pan="0" len="12" vol="100" />
          <note key="68" pos="336" pan="0" len="48" vol="100" />
          <note key="61" pos="384" pan="0" len="36" vol="100" />
          <note key="61" pos="420" pan="0" len="12" vol="100" />
          <note key="73" pos="432" pan="0" len="72" vol="100" />
          <note key="56" pos="528" pan="0" len="24" vol="100" />
          <note key="59" pos="552" pan="0" len="24" vol="100" />
          <note key="61" pos="576" pan="0" len="36" vol="100" />
          <note key="61" pos="612" pan="0" len="12" vol="100" />
          <note key="73" pos="624" pan="0" len="72" vol="100" />
          <note key="68" pos="720" pan="0" len="24" vol="100" />
          <note key="71" pos="744" pan="0" len="24" vol="100" />
        </pattern>
        <pattern pos="263040" muted="0" steps="16" name="" type="1">
          <note key="65" pos="0" pan="0" len="36" vol="100" />
          <note key="65" pos="36" pan="0" len="12" vol="100" />
          <note key="65" pos="144" pan="0" len="48" vol="100" />
          <note key="65" pos="192" pan="0" len="36" vol="100" />
          <note key="65" pos="228" pan="0" len="12" vol="100" />
          <note key="65" pos="336" pan="0" len="48" vol="100" />
          <note key="65" pos="384" pan="0" len="36" vol="100" />
          <note key="65" pos="420" pan="0" len="12" vol="100" />
          <note key="65" pos="528" pan="0" len="48" vol="100" />
          <note key="65" pos="576" pan="0" len="36" vol="100" />
          <note key="65" pos="612" pan="0" len="12" vol="100" />
          <note key="65" pos="720" pan="0" len="48" vol="100" />
        </pattern>
        <pattern pos="263808" muted="0" steps="16" name="" type="1">
          <note key="65" pos="0" pan="0" len="36" vol="100" />
          <note key="65" pos="36" pan="0" len="12" vol="100" />
          <note key="65" pos="144" pan="0" len="48" vol="100" />
          <note key="65" pos="192" pan="0" len="36" vol="100" />
          <note key="65" pos="228" pan="0" len="12" vol="100" />
          <note key="65" pos="336" pan="0" len="48" vol="100" />
          <note key="70" pos="384" pan="0" len="36" vol="100" />
          <note key="70" pos="420" pan="0" len="12" vol="100" />
          <note key="68" pos="528" pan="0" len="48" vol="100" />
          <note key="70" pos="576" pan="0" len="36" vol="100" />
          <note key="70" pos="612" pan="0" len="12" vol="100" />
          <note key="68" pos="720" pan="0" len="48" vol="100" />
        </pattern>
        <pattern pos="264576" muted="0" steps="16" name="" type="1">
          <note key="65" pos="0" pan="0" len="36" vol="100" />
          <note key="65" pos="36" pan="0" len="12" vol="100" />
          <note key="65" pos="144" pan="0" len="48" vol="100" />
          <note key="65" pos="192" pan="0" len="36" vol="100" />
          <note key="65" pos="228" pan="0" len="12" vol="100" />
          <note key="65" pos="336" pan="0" len="48" vol="100" />
          <note key="63" pos="384" pan="0" len="36" vol="100" />
          <note key="63" pos="420" pan="0" len="12" vol="100" />
          <note key="65" pos="528" pan="0" len="48" vol="100" />
          <note key="63" pos="576" pan="0" len="36" vol="100" />
          <note key="63" pos="612" pan="0" len="12" vol="100" />
          <note key="63" pos="720" pan="0" len="48" vol="100" />
        </pattern>
        <pattern pos="265344" muted="0" steps="16" name="" type="1">
          <note key="65" pos="0" pan="0" len="36" vol="100" />
          <note key="65" pos="36" pan="0" len="12" vol="100" />
          <note key="65" pos="144" pan="0" len="48" vol="100" />
          <note key="65" pos="192" pan="0" len="36" vol="100" />
          <note key="65" pos="228" pan="0" len="12" vol="100" />
          <note key="65" pos="336" pan="0" len="48" vol="100" />
          <note key="63" pos="384" pan="0" len="36" vol="100" />
          <note key="63" pos="420" pan="0" len="12" vol="100" />
          <note key="65" pos="528" pan="0" len="48" vol="100" />
          <note key="63" pos="576" pan="0" len="36" vol="100" />
          <note key="63" pos="612" pan="0" len="12" vol="100" />
          <note key="63" pos="720" pan="0" len="48" vol="100" />
        </pattern>
        <pattern pos="266112" muted="0" steps="16" name="" type="1">
          <note key="65" pos="0" pan="0" len="36" vol="100" />
          <note key="65" pos="36" pan="0" len="12" vol="100" />
          <note key="60" pos="144" pan="0" len="48" vol="100" />
          <note key="65" pos="192" pan="0" len="36" vol="100" />
          <note key="65" pos="228" pan="0" len="12" vol="100" />
          <note key="65" pos="336" pan="0" len="48" vol="100" />
          <note key="60" pos="384" pan="0" len="36" vol="100" />
          <note key="60" pos="420" pan="0" len="12" vol="100" />
          <note key="58" pos="528" pan="0" len="48" vol="100" />
          <note key="60" pos="576" pan="0" len="36" vol="100" />
          <note key="60" pos="612" pan="0" len="12" vol="100" />
          <note key="63" pos="720" pan="0" len="48" vol="100" />
          <note key="65" pos="768" pan="0" len="36" vol="100" />
          <note key="65" pos="804" pan="0" len="12" vol="100" />
          <note key="60" pos="912" pan="0" len="48" vol="100" />
          <note key="65" pos="960" pan="0" len="36" vol="100" />
          <note key="65" pos="996" pan="0" len="12" vol="100" />
          <note key="65" pos="1104" pan="0" len="48" vol="100" />
          <note key="60" pos="1152" pan="0" len="36" vol="100" />
          <note key="60" pos="1188" pan="0" len="12" vol="100" />
          <note key="58" pos="1296" pan="0" len="48" vol="100" />
          <note key="60" pos="1344" pan="0" len="36" vol="100" />
          <note key="60" pos="1380" pan="0" len="12" vol="100" />
          <note key="63" pos="1488" pan="0" len="48" vol="100" />
        </pattern>
      </track>
      <track solo="0" name="54 (Ch5)" type="0" muted="0">
        <instrumenttrack usemasterpitch="1" pitch="0.0" basenote="57" pan="0" pitchrange="12" vol="30">
          <eldata />
          <instrument name="tripleoscillator" />
        </instrumenttrack>
        <pattern pos="112128" muted="0" steps="16" name="" type="1">
          <note key="65" pos="0" pan="0" len="72" vol="100" />
          <note key="77" pos="72" pan="0" len="24" vol="100" />
          <note key="63" pos="96" pan="0" len="48" vol="100" />
          <note key="75" pos="144" pan="0" len="48" vol="100" />
          <note key="70" pos="192" pan="0" len="48" vol="100" />
          <note key="82" pos="240" pan="0" len="48" vol="100" />
          <note key="68" pos="288" pan="0" len="48" vol="100" />
          <note key="80" pos="336" pan="0" len="48" vol="100" />
          <note key="65" pos="384" pan="0" len="72" vol="100" />
          <note key="77" pos="456" pan="0" len="24" vol="100" />
          <note key="63" pos="480" pan="0" len="48" vol="100" />
          <note key="75" pos="528" pan="0" len="48" vol="100" />
          <note key="70" pos="576" pan="0" len="48" vol="100" />
          <note key="82" pos="624" pan="0" len="48" vol="100" />
          <note key="68" pos="672" pan="0" len="48" vol="100" />
          <note key="80" pos="720" pan="0" len="48" vol="100" />
          <note key="65" pos="768" pan="0" len="72" vol="100" />
          <note key="77" pos="840" pan="0" len="24" vol="100" />
          <note key="63" pos="864" pan="0" len="48" vol="100" />
          <note key="75" pos="912" pan="0" len="48" vol="100" />
          <note key="70" pos="960" pan="0" len="48" vol="100" />
          <note key="82" pos="1008" pan="0" len="48" vol="100" />
          <note key="68" pos="1056" pan="0" len="48" vol="100" />
          <note key="80" pos="1104" pan="0" len="48" vol="100" />
          <note key="65" pos="1152" pan="0" len="72" vol="100" />
          <note key="77" pos="1224" pan="0" len="24" vol="100" />
          <note key="63" pos="1248" pan="0" len="48" vol="100" />
          <note key="75" pos="1296" pan="0" len="48" vol="100" />
          <note key="70" pos="1344" pan="0" len="48" vol="100" />
          <note key="82" pos="1392" pan="0" len="48" vol="100" />
          <note key="68" pos="1440" pan="0" len="48" vol="100" />
          <note key="80" pos="1488" pan="0" len="48" vol="100" />
        </pattern>
        <pattern pos="107520" muted="0" steps="16" name="" type="1">
          <note key="62" pos="0" pan="0" len="72" vol="100" />
          <note key="74" pos="72" pan="0" len="24" vol="100" />
          <note key="65" pos="96" pan="0" len="48" vol="100" />
          <note key="77" pos="144" pan="0" len="48" vol="100" />
          <note key="67" pos="192" pan="0" len="48" vol="100" />
          <note key="79" pos="240" pan="0" len="48" vol="100" />
          <note key="69" pos="288" pan="0" len="48" vol="100" />
          <note key="65" pos="336" pan="0" len="48" vol="100" />
          <note key="62" pos="384" pan="0" len="72" vol="100" />
          <note key="74" pos="456" pan="0" len="24" vol="100" />
          <note key="65" pos="480" pan="0" len="48" vol="100" />
          <note key="77" pos="528" pan="0" len="48" vol="100" />
          <note key="67" pos="576" pan="0" len="48" vol="100" />
          <note key="79" pos="624" pan="0" len="48" vol="100" />
          <note key="69" pos="672" pan="0" len="48" vol="100" />
          <note key="65" pos="720" pan="0" len="48" vol="100" />
          <note key="62" pos="768" pan="0" len="72" vol="100" />
          <note key="74" pos="840" pan="0" len="24" vol="100" />
          <note key="65" pos="864" pan="0" len="48" vol="100" />
          <note key="77" pos="912" pan="0" len="48" vol="100" />
          <note key="67" pos="960" pan="0" len="48" vol="100" />
          <note key="79" pos="1008" pan="0" len="48" vol="100" />
          <note key="69" pos="1056" pan="0" len="48" vol="100" />
          <note key="65" pos="1104" pan="0" len="48" vol="100" />
          <note key="62" pos="1152" pan="0" len="72" vol="100" />
          <note key="74" pos="1224" pan="0" len="24" vol="100" />
          <note key="65" pos="1248" pan="0" len="48" vol="100" />
          <note key="77" pos="1296" pan="0" len="48" vol="100" />
          <note key="67" pos="1344" pan="0" len="48" vol="100" />
          <note key="79" pos="1392" pan="0" len="48" vol="100" />
          <note key="69" pos="1440" pan="0" len="48" vol="100" />
          <note key="65" pos="1488" pan="0" len="48" vol="100" />
        </pattern>
        <pattern pos="109056" muted="0" steps="16" name="" type="1">
          <note key="62" pos="0" pan="0" len="72" vol="100" />
          <note key="74" pos="72" pan="0" len="24" vol="100" />
          <note key="65" pos="96" pan="0" len="48" vol="100" />
          <note key="77" pos="144" pan="0" len="48" vol="100" />
          <note key="67" pos="192" pan="0" len="48" vol="100" />
          <note key="79" pos="240" pan="0" len="48" vol="100" />
          <note key="69" pos="288" pan="0" len="48" vol="100" />
          <note key="65" pos="336" pan="0" len="48" vol="100" />
          <note key="62" pos="384" pan="0" len="72" vol="100" />
          <note key="74" pos="456" pan="0" len="24" vol="100" />
          <note key="65" pos="480" pan="0" len="48" vol="100" />
          <note key="77" pos="528" pan="0" len="48" vol="100" />
          <note key="67" pos="576" pan="0" len="48" vol="100" />
          <note key="79" pos="624" pan="0" len="48" vol="100" />
          <note key="69" pos="672" pan="0" len="48" vol="100" />
          <note key="65" pos="720" pan="0" len="48" vol="100" />
          <note key="62" pos="768" pan="0" len="72" vol="100" />
          <note key="74" pos="840" pan="0" len="24" vol="100" />
          <note key="65" pos="864" pan="0" len="48" vol="100" />
          <note key="77" pos="912" pan="0" len="48" vol="100" />
          <note key="67" pos="960" pan="0" len="48" vol="100" />
          <note key="79" pos="1008" pan="0" len="48" vol="100" />
          <note key="69" pos="1056" pan="0" len="48" vol="100" />
          <note key="65" pos="1104" pan="0" len="48" vol="100" />
          <note key="62" pos="1152" pan="0" len="72" vol="100" />
          <note key="74" pos="1224" pan="0" len="24" vol="100" />
          <note key="65" pos="1248" pan="0" len="48" vol="100" />
          <note key="77" pos="1296" pan="0" len="48" vol="100" />
          <note key="67" pos="1344" pan="0" len="48" vol="100" />
          <note key="79" pos="1392" pan="0" len="48" vol="100" />
          <note key="69" pos="1440" pan="0" len="48" vol="100" />
          <note key="65" pos="1488" pan="0" len="48" vol="100" />
        </pattern>
        <pattern pos="110592" muted="0" steps="16" name="" type="1">
          <note key="65" pos="0" pan="0" len="72" vol="100" />
          <note key="77" pos="72" pan="0" len="24" vol="100" />
          <note key="63" pos="96" pan="0" len="48" vol="100" />
          <note key="75" pos="144" pan="0" len="48" vol="100" />
          <note key="70" pos="192" pan="0" len="48" vol="100" />
          <note key="82" pos="240" pan="0" len="48" vol="100" />
          <note key="68" pos="288" pan="0" len="48" vol="100" />
          <note key="80" pos="336" pan="0" len="48" vol="100" />
          <note key="65" pos="384" pan="0" len="72" vol="100" />
          <note key="77" pos="456" pan="0" len="24" vol="100" />
          <note key="63" pos="480" pan="0" len="48" vol="100" />
          <note key="75" pos="528" pan="0" len="48" vol="100" />
          <note key="70" pos="576" pan="0" len="48" vol="100" />
          <note key="82" pos="624" pan="0" len="48" vol="100" />
          <note key="68" pos="672" pan="0" len="48" vol="100" />
          <note key="80" pos="720" pan="0" len="48" vol="100" />
          <note key="65" pos="768" pan="0" len="72" vol="100" />
          <note key="77" pos="840" pan="0" len="24" vol="100" />
          <note key="63" pos="864" pan="0" len="48" vol="100" />
          <note key="75" pos="912" pan="0" len="48" vol="100" />
          <note key="70" pos="960" pan="0" len="48" vol="100" />
          <note key="82" pos="1008" pan="0" len="48" vol="100" />
          <note key="68" pos="1056" pan="0" len="48" vol="100" />
          <note key="80" pos="1104" pan="0" len="48" vol="100" />
          <note key="65" pos="1152" pan="0" len="72" vol="100" />
          <note key="77" pos="1224" pan="0" len="24" vol="100" />
          <note key="63" pos="1248" pan="0" len="48" vol="100" />
          <note key="75" pos="1296" pan="0" len="48" vol="100" />
          <note key="70" pos="1344" pan="0" len="48" vol="100" />
          <note key="82" pos="1392" pan="0" len="48" vol="100" />
          <note key="68" pos="1440" pan="0" len="48" vol="100" />
          <note key="80" pos="1488" pan="0" len="48" vol="100" />
        </pattern>
      </track>
      <track solo="0" name="54 (Ch7)" type="0" muted="0">
        <instrumenttrack usemasterpitch="1" pitch="0.0" basenote="57" pan="0" pitchrange="12" vol="30">
          <eldata />
          <instrument name="tripleoscillator" />
        </instrumenttrack>
        <pattern pos="196608" muted="0" steps="16" name="" type="1">
          <note key="64" pos="768" pan="0" len="12" vol="2" />
          <note key="64" pos="888" pan="0" len="12" vol="17" />
          <note key="64" pos="960" pan="0" len="12" vol="27" />
          <note key="64" pos="1080" pan="0" len="12" vol="42" />
          <note key="64" pos="1152" pan="0" len="12" vol="52" />
          <note key="64" pos="1272" pan="0" len="12" vol="67" />
          <note key="64" pos="1344" pan="0" len="12" vol="77" />
          <note key="64" pos="1464" pan="0" len="12" vol="92" />
        </pattern>
      </track>
      <track solo="0" name="55 (Ch4)" type="0" muted="0">
        <instrumenttrack usemasterpitch="1" pitch="0.0" basenote="57" pan="0" pitchrange="12" vol="30">
          <eldata />
          <instrument name="tripleoscillator" />
        </instrumenttrack>
        <pattern pos="258432" muted="0" steps="16" name="" type="1">
          <note key="60" pos="0" pan="0" len="24" vol="100" />
          <note key="65" pos="24" pan="0" len="24" vol="100" />
        </pattern>
        <pattern pos="236928" muted="0" steps="16" name="" type="1">
          <note key="62" pos="0" pan="0" len="144" vol="100" />
          <note key="65" pos="144" pan="0" len="144" vol="100" />
          <note key="62" pos="288" pan="0" len="144" vol="100" />
          <note key="65" pos="432" pan="0" len="96" vol="100" />
        </pattern>
        <pattern pos="237696" muted="0" steps="16" name="" type="1">
          <note key="63" pos="0" pan="0" len="24" vol="100" />
          <note key="68" pos="24" pan="0" len="24" vol="100" />
        </pattern>
      </track>
      <track solo="0" name="55 (Ch7)" type="0" muted="0">
        <instrumenttrack usemasterpitch="1" pitch="0.0" basenote="57" pan="0" pitchrange="12" vol="30">
          <eldata />
          <instrument name="tripleoscillator" />
        </instrumenttrack>
        <pattern pos="267648" muted="0" steps="16" name="" type="1">
          <note key="68" pos="0" pan="0" len="144" vol="100" />
          <note key="68" pos="144" pan="0" len="48" vol="100" />
          <note key="68" pos="192" pan="0" len="144" vol="100" />
          <note key="68" pos="336" pan="0" len="48" vol="100" />
          <note key="70" pos="384" pan="0" len="144" vol="100" />
          <note key="70" pos="528" pan="0" len="48" vol="100" />
          <note key="70" pos="576" pan="0" len="144" vol="100" />
          <note key="70" pos="720" pan="0" len="48" vol="100" />
          <note key="68" pos="768" pan="0" len="144" vol="100" />
          <note key="68" pos="912" pan="0" len="48" vol="100" />
          <note key="68" pos="960" pan="0" len="144" vol="100" />
          <note key="68" pos="1104" pan="0" len="48" vol="100" />
          <note key="70" pos="1152" pan="0" len="144" vol="100" />
          <note key="70" pos="1296" pan="0" len="48" vol="100" />
          <note key="82" pos="1344" pan="0" len="192" vol="100" />
        </pattern>
        <pattern pos="259968" muted="0" steps="16" name="" type="1">
          <note key="65" pos="0" pan="0" len="144" vol="100" />
          <note key="65" pos="144" pan="0" len="48" vol="100" />
          <note key="65" pos="192" pan="0" len="144" vol="100" />
          <note key="65" pos="336" pan="0" len="48" vol="100" />
          <note key="63" pos="384" pan="0" len="144" vol="100" />
          <note key="63" pos="528" pan="0" len="48" vol="100" />
          <note key="63" pos="576" pan="0" len="144" vol="100" />
          <note key="63" pos="720" pan="0" len="48" vol="100" />
        </pattern>
        <pattern pos="260736" muted="0" steps="16" name="" type="1">
          <note key="65" pos="0" pan="0" len="144" vol="100" />
          <note key="65" pos="144" pan="0" len="48" vol="100" />
          <note key="65" pos="192" pan="0" len="144" vol="100" />
          <note key="65" pos="336" pan="0" len="48" vol="100" />
          <note key="63" pos="384" pan="0" len="144" vol="100" />
          <note key="63" pos="528" pan="0" len="48" vol="100" />
          <note key="63" pos="576" pan="0" len="144" vol="100" />
          <note key="63" pos="720" pan="0" len="48" vol="100" />
        </pattern>
        <pattern pos="261504" muted="0" steps="16" name="" type="1">
          <note key="68" pos="0" pan="0" len="144" vol="100" />
          <note key="68" pos="144" pan="0" len="48" vol="100" />
          <note key="68" pos="192" pan="0" len="144" vol="100" />
          <note key="68" pos="336" pan="0" len="48" vol="100" />
          <note key="66" pos="384" pan="0" len="144" vol="100" />
          <note key="66" pos="528" pan="0" len="48" vol="100" />
          <note key="66" pos="576" pan="0" len="144" vol="100" />
          <note key="66" pos="720" pan="0" len="48" vol="100" />
        </pattern>
        <pattern pos="262272" muted="0" steps="16" name="" type="1">
          <note key="68" pos="0" pan="0" len="144" vol="100" />
          <note key="68" pos="144" pan="0" len="48" vol="100" />
          <note key="68" pos="192" pan="0" len="144" vol="100" />
          <note key="68" pos="336" pan="0" len="48" vol="100" />
          <note key="66" pos="384" pan="0" len="144" vol="100" />
          <note key="66" pos="528" pan="0" len="48" vol="100" />
          <note key="66" pos="576" pan="0" len="144" vol="100" />
          <note key="66" pos="720" pan="0" len="48" vol="100" />
        </pattern>
        <pattern pos="263040" muted="0" steps="16" name="" type="1">
          <note key="65" pos="0" pan="0" len="144" vol="100" />
          <note key="65" pos="144" pan="0" len="48" vol="100" />
          <note key="65" pos="192" pan="0" len="144" vol="100" />
          <note key="65" pos="336" pan="0" len="48" vol="100" />
          <note key="63" pos="384" pan="0" len="144" vol="100" />
          <note key="63" pos="528" pan="0" len="48" vol="100" />
          <note key="63" pos="576" pan="0" len="144" vol="100" />
          <note key="63" pos="720" pan="0" len="48" vol="100" />
        </pattern>
        <pattern pos="263808" muted="0" steps="16" name="" type="1">
          <note key="65" pos="0" pan="0" len="144" vol="100" />
          <note key="65" pos="144" pan="0" len="48" vol="100" />
          <note key="65" pos="192" pan="0" len="144" vol="100" />
          <note key="65" pos="336" pan="0" len="48" vol="100" />
          <note key="63" pos="384" pan="0" len="144" vol="100" />
          <note key="63" pos="528" pan="0" len="48" vol="100" />
          <note key="63" pos="576" pan="0" len="144" vol="100" />
          <note key="63" pos="720" pan="0" len="48" vol="100" />
        </pattern>
        <pattern pos="264576" muted="0" steps="16" name="" type="1">
          <note key="65" pos="0" pan="0" len="144" vol="100" />
          <note key="65" pos="144" pan="0" len="48" vol="100" />
          <note key="65" pos="192" pan="0" len="144" vol="100" />
          <note key="65" pos="336" pan="0" len="48" vol="100" />
          <note key="63" pos="384" pan="0" len="144" vol="100" />
          <note key="63" pos="528" pan="0" len="48" vol="100" />
          <note key="63" pos="576" pan="0" len="144" vol="100" />
          <note key="63" pos="720" pan="0" len="48" vol="100" />
        </pattern>
        <pattern pos="265344" muted="0" steps="16" name="" type="1">
          <note key="65" pos="0" pan="0" len="144" vol="100" />
          <note key="65" pos="144" pan="0" len="48" vol="100" />
          <note key="65" pos="192" pan="0" len="144" vol="100" />
          <note key="65" pos="336" pan="0" len="48" vol="100" />
          <note key="63" pos="384" pan="0" len="144" vol="100" />
          <note key="63" pos="528" pan="0" len="48" vol="100" />
          <note key="63" pos="576" pan="0" len="144" vol="100" />
          <note key="63" pos="720" pan="0" len="48" vol="100" />
        </pattern>
        <pattern pos="266112" muted="0" steps="16" name="" type="1">
          <note key="65" pos="0" pan="0" len="144" vol="100" />
          <note key="65" pos="144" pan="0" len="48" vol="100" />
          <note key="65" pos="192" pan="0" len="144" vol="100" />
          <note key="65" pos="336" pan="0" len="48" vol="100" />
          <note key="72" pos="384" pan="0" len="144" vol="100" />
          <note key="72" pos="528" pan="0" len="48" vol="100" />
          <note key="72" pos="576" pan="0" len="144" vol="100" />
          <note key="72" pos="720" pan="0" len="48" vol="100" />
          <note key="65" pos="768" pan="0" len="144" vol="100" />
          <note key="65" pos="912" pan="0" len="48" vol="100" />
          <note key="65" pos="960" pan="0" len="144" vol="100" />
          <note key="65" pos="1104" pan="0" len="48" vol="100" />
          <note key="72" pos="1152" pan="0" len="144" vol="100" />
          <note key="72" pos="1296" pan="0" len="48" vol="100" />
          <note key="72" pos="1344" pan="0" len="144" vol="100" />
          <note key="72" pos="1488" pan="0" len="48" vol="100" />
        </pattern>
      </track>
      <track solo="0" name="55 (Ch8)" type="0" muted="0">
        <instrumenttrack usemasterpitch="1" pitch="0.0" basenote="57" pan="0" pitchrange="12" vol="30">
          <eldata />
          <instrument name="tripleoscillator" />
        </instrumenttrack>
        <pattern pos="211968" muted="0" steps="16" name="" type="1">
          <note key="69" pos="0" pan="0" len="192" vol="100" />
          <note key="76" pos="192" pan="0" len="192" vol="100" />
          <note key="81" pos="384" pan="0" len="384" vol="100" />
          <note key="76" pos="768" pan="0" len="384" vol="100" />
          <note key="64" pos="1152" pan="0" len="384" vol="100" />
        </pattern>
        <pattern pos="204288" muted="0" steps="16" name="" type="1">
          <note key="69" pos="0" pan="0" len="192" vol="100" />
          <note key="76" pos="192" pan="0" len="192" vol="100" />
          <note key="81" pos="384" pan="0" len="384" vol="100" />
          <note key="76" pos="768" pan="0" len="384" vol="100" />
          <note key="64" pos="1152" pan="0" len="384" vol="100" />
        </pattern>
        <pattern pos="205824" muted="0" steps="16" name="" type="1">
          <note key="69" pos="0" pan="0" len="192" vol="100" />
          <note key="76" pos="192" pan="0" len="192" vol="100" />
          <note key="81" pos="384" pan="0" len="384" vol="100" />
          <note key="76" pos="768" pan="0" len="384" vol="100" />
          <note key="64" pos="1152" pan="0" len="384" vol="100" />
        </pattern>
        <pattern pos="210432" muted="0" steps="16" name="" type="1">
          <note key="69" pos="0" pan="0" len="192" vol="100" />
          <note key="76" pos="192" pan="0" len="192" vol="100" />
          <note key="81" pos="384" pan="0" len="384" vol="100" />
          <note key="76" pos="768" pan="0" len="384" vol="100" />
          <note key="64" pos="1152" pan="0" len="384" vol="100" />
        </pattern>
      </track>
      <track solo="0" name="55 (Ch9)" type="0" muted="0">
        <instrumenttrack usemasterpitch="1" pitch="0.0" basenote="57" pan="0" pitchrange="12" vol="30">
          <eldata />
          <instrument name="tripleoscillator" />
        </instrumenttrack>
        <pattern pos="135168" muted="0" steps="16" name="" type="1">
          <note key="72" pos="0" pan="0" len="384" vol="100" />
          <note key="77" pos="384" pan="0" len="384" vol="100" />
          <note key="72" pos="768" pan="0" len="384" vol="100" />
          <note key="77" pos="1152" pan="0" len="384" vol="100" />
        </pattern>
        <pattern pos="98304" muted="0" steps="16" name="" type="1">
          <note key="72" pos="0" pan="0" len="1536" vol="100" />
        </pattern>
        <pattern pos="99840" muted="0" steps="16" name="" type="1">
          <note key="72" pos="0" pan="0" len="1536" vol="100" />
        </pattern>
        <pattern pos="101376" muted="0" steps="16" name="" type="1">
          <note key="74" pos="0" pan="0" len="1536" vol="100" />
        </pattern>
        <pattern pos="102912" muted="0" steps="16" name="" type="1">
          <note key="74" pos="0" pan="0" len="1536" vol="100" />
        </pattern>
        <pattern pos="104448" muted="0" steps="16" name="" type="1">
          <note key="74" pos="0" pan="0" len="1440" vol="100" />
        </pattern>
        <pattern pos="125952" muted="0" steps="16" name="" type="1">
          <note key="72" pos="0" pan="0" len="24" vol="100" />
          <note key="72" pos="24" pan="0" len="1512" vol="52" />
        </pattern>
        <pattern pos="127488" muted="0" steps="16" name="" type="1">
          <note key="72" pos="0" pan="0" len="24" vol="100" />
          <note key="72" pos="24" pan="0" len="1512" vol="52" />
        </pattern>
        <pattern pos="129024" muted="0" steps="16" name="" type="1">
          <note key="72" pos="0" pan="0" len="24" vol="100" />
          <note key="72" pos="24" pan="0" len="168" vol="52" />
          <note key="75" pos="768" pan="0" len="24" vol="100" />
          <note key="75" pos="792" pan="0" len="264" vol="52" />
          <note key="77" pos="1152" pan="0" len="24" vol="100" />
          <note key="77" pos="1176" pan="0" len="168" vol="52" />
        </pattern>
        <pattern pos="130560" muted="0" steps="16" name="" type="1">
          <note key="72" pos="0" pan="0" len="24" vol="100" />
          <note key="72" pos="24" pan="0" len="168" vol="52" />
          <note key="75" pos="768" pan="0" len="24" vol="100" />
          <note key="75" pos="792" pan="0" len="264" vol="52" />
          <note key="77" pos="1152" pan="0" len="24" vol="100" />
          <note key="77" pos="1176" pan="0" len="168" vol="52" />
        </pattern>
        <pattern pos="132096" muted="0" steps="16" name="" type="1">
          <note key="72" pos="0" pan="0" len="24" vol="100" />
          <note key="72" pos="24" pan="0" len="168" vol="52" />
          <note key="75" pos="768" pan="0" len="24" vol="100" />
          <note key="75" pos="792" pan="0" len="168" vol="52" />
          <note key="77" pos="1152" pan="0" len="24" vol="100" />
          <note key="77" pos="1176" pan="0" len="168" vol="52" />
        </pattern>
        <pattern pos="133632" muted="0" steps="16" name="" type="1">
          <note key="72" pos="0" pan="0" len="24" vol="100" />
          <note key="72" pos="24" pan="0" len="168" vol="52" />
          <note key="75" pos="768" pan="0" len="24" vol="100" />
          <note key="75" pos="792" pan="0" len="168" vol="52" />
          <note key="77" pos="1152" pan="0" len="24" vol="100" />
          <note key="77" pos="1176" pan="0" len="168" vol="52" />
        </pattern>
      </track>
      <track solo="0" name="55 (Ch14)" type="0" muted="0">
        <instrumenttrack usemasterpitch="1" pitch="0.0" basenote="57" pan="0" pitchrange="12" vol="30">
          <eldata />
          <instrument name="tripleoscillator" />
        </instrumenttrack>
        <pattern pos="121344" muted="0" steps="16" name="" type="1">
          <note key="72" pos="0" pan="0" len="672" vol="100" />
          <note key="70" pos="672" pan="0" len="96" vol="100" />
          <note key="72" pos="768" pan="0" len="768" vol="100" />
        </pattern>
        <pattern pos="116736" muted="0" steps="16" name="" type="1">
          <note key="77" pos="0" pan="0" len="672" vol="100" />
          <note key="75" pos="672" pan="0" len="96" vol="100" />
          <note key="77" pos="768" pan="0" len="672" vol="100" />
          <note key="75" pos="1440" pan="0" len="96" vol="100" />
        </pattern>
        <pattern pos="118272" muted="0" steps="16" name="" type="1">
          <note key="72" pos="0" pan="0" len="672" vol="100" />
          <note key="70" pos="672" pan="0" len="96" vol="100" />
          <note key="72" pos="768" pan="0" len="768" vol="100" />
        </pattern>
        <pattern pos="119808" muted="0" steps="16" name="" type="1">
          <note key="77" pos="0" pan="0" len="672" vol="100" />
          <note key="75" pos="672" pan="0" len="96" vol="100" />
          <note key="77" pos="768" pan="0" len="672" vol="100" />
          <note key="75" pos="1440" pan="0" len="96" vol="100" />
        </pattern>
      </track>
      <track solo="0" name="56 (Ch1)" type="0" muted="0">
        <instrumenttrack usemasterpitch="1" pitch="0.0" basenote="57" pan="0" pitchrange="12" vol="30">
          <eldata />
          <instrument name="tripleoscillator" />
        </instrumenttrack>
        <pattern pos="156672" muted="0" steps="16" name="" type="1">
          <note key="91" pos="0" pan="0" len="24" vol="100" />
          <note key="84" pos="24" pan="0" len="24" vol="100" />
          <note key="89" pos="48" pan="0" len="24" vol="100" />
          <note key="91" pos="72" pan="0" len="48" vol="100" />
          <note key="84" pos="120" pan="0" len="24" vol="100" />
          <note key="87" pos="144" pan="0" len="48" vol="100" />
          <note key="91" pos="192" pan="0" len="24" vol="100" />
          <note key="84" pos="216" pan="0" len="24" vol="100" />
          <note key="89" pos="240" pan="0" len="24" vol="100" />
          <note key="94" pos="264" pan="0" len="48" vol="100" />
          <note key="84" pos="312" pan="0" len="24" vol="100" />
          <note key="87" pos="336" pan="0" len="48" vol="100" />
          <note key="96" pos="384" pan="0" len="24" vol="100" />
          <note key="91" pos="408" pan="0" len="24" vol="100" />
          <note key="94" pos="432" pan="0" len="24" vol="100" />
          <note key="96" pos="456" pan="0" len="48" vol="100" />
          <note key="91" pos="504" pan="0" len="24" vol="100" />
          <note key="94" pos="528" pan="0" len="12" vol="100" />
          <note key="93" pos="576" pan="0" len="24" vol="100" />
          <note key="94" pos="600" pan="0" len="24" vol="100" />
          <note key="93" pos="624" pan="0" len="24" vol="100" />
          <note key="84" pos="648" pan="0" len="48" vol="100" />
          <note key="93" pos="696" pan="0" len="24" vol="100" />
          <note key="84" pos="720" pan="0" len="48" vol="100" />
          <note key="91" pos="768" pan="0" len="24" vol="100" />
          <note key="84" pos="792" pan="0" len="24" vol="100" />
          <note key="89" pos="816" pan="0" len="24" vol="100" />
          <note key="91" pos="840" pan="0" len="48" vol="100" />
          <note key="84" pos="888" pan="0" len="24" vol="100" />
          <note key="87" pos="912" pan="0" len="48" vol="100" />
          <note key="91" pos="960" pan="0" len="24" vol="100" />
          <note key="84" pos="984" pan="0" len="24" vol="100" />
          <note key="89" pos="1008" pan="0" len="24" vol="100" />
          <note key="94" pos="1032" pan="0" len="48" vol="100" />
          <note key="84" pos="1080" pan="0" len="24" vol="100" />
          <note key="87" pos="1104" pan="0" len="48" vol="100" />
          <note key="96" pos="1152" pan="0" len="24" vol="100" />
          <note key="91" pos="1176" pan="0" len="24" vol="100" />
          <note key="94" pos="1200" pan="0" len="24" vol="100" />
          <note key="96" pos="1224" pan="0" len="48" vol="100" />
          <note key="91" pos="1272" pan="0" len="24" vol="100" />
          <note key="94" pos="1296" pan="0" len="12" vol="100" />
          <note key="93" pos="1344" pan="0" len="24" vol="100" />
          <note key="84" pos="1368" pan="0" len="24" vol="100" />
          <note key="89" pos="1392" pan="0" len="24" vol="100" />
          <note key="93" pos="1416" pan="0" len="48" vol="100" />
          <note key="89" pos="1464" pan="0" len="24" vol="100" />
          <note key="93" pos="1488" pan="0" len="48" vol="100" />
        </pattern>
        <pattern pos="155136" muted="0" steps="16" name="" type="1">
          <note key="91" pos="0" pan="0" len="24" vol="100" />
          <note key="84" pos="24" pan="0" len="24" vol="100" />
          <note key="89" pos="48" pan="0" len="24" vol="100" />
          <note key="91" pos="72" pan="0" len="48" vol="100" />
          <note key="84" pos="120" pan="0" len="24" vol="100" />
          <note key="87" pos="144" pan="0" len="48" vol="100" />
          <note key="91" pos="192" pan="0" len="24" vol="100" />
          <note key="84" pos="216" pan="0" len="24" vol="100" />
          <note key="89" pos="240" pan="0" len="24" vol="100" />
          <note key="94" pos="264" pan="0" len="48" vol="100" />
          <note key="84" pos="312" pan="0" len="24" vol="100" />
          <note key="87" pos="336" pan="0" len="48" vol="100" />
          <note key="96" pos="384" pan="0" len="24" vol="100" />
          <note key="91" pos="408" pan="0" len="24" vol="100" />
          <note key="94" pos="432" pan="0" len="24" vol="100" />
          <note key="96" pos="456" pan="0" len="48" vol="100" />
          <note key="91" pos="504" pan="0" len="24" vol="100" />
          <note key="94" pos="528" pan="0" len="12" vol="100" />
          <note key="93" pos="576" pan="0" len="24" vol="100" />
          <note key="94" pos="600" pan="0" len="24" vol="100" />
          <note key="93" pos="624" pan="0" len="24" vol="100" />
          <note key="84" pos="648" pan="0" len="48" vol="100" />
          <note key="93" pos="696" pan="0" len="24" vol="100" />
          <note key="84" pos="720" pan="0" len="48" vol="100" />
          <note key="91" pos="768" pan="0" len="24" vol="100" />
          <note key="84" pos="792" pan="0" len="24" vol="100" />
          <note key="89" pos="816" pan="0" len="24" vol="100" />
          <note key="91" pos="840" pan="0" len="48" vol="100" />
          <note key="84" pos="888" pan="0" len="24" vol="100" />
          <note key="87" pos="912" pan="0" len="48" vol="100" />
          <note key="91" pos="960" pan="0" len="24" vol="100" />
          <note key="84" pos="984" pan="0" len="24" vol="100" />
          <note key="89" pos="1008" pan="0" len="24" vol="100" />
          <note key="94" pos="1032" pan="0" len="48" vol="100" />
          <note key="84" pos="1080" pan="0" len="24" vol="100" />
          <note key="87" pos="1104" pan="0" len="48" vol="100" />
          <note key="96" pos="1152" pan="0" len="24" vol="100" />
          <note key="91" pos="1176" pan="0" len="24" vol="100" />
          <note key="94" pos="1200" pan="0" len="24" vol="100" />
          <note key="96" pos="1224" pan="0" len="48" vol="100" />
          <note key="91" pos="1272" pan="0" len="24" vol="100" />
          <note key="94" pos="1296" pan="0" len="12" vol="100" />
          <note key="93" pos="1344" pan="0" len="24" vol="100" />
          <note key="84" pos="1368" pan="0" len="24" vol="100" />
          <note key="89" pos="1392" pan="0" len="24" vol="100" />
          <note key="93" pos="1416" pan="0" len="48" vol="100" />
          <note key="89" pos="1464" pan="0" len="24" vol="100" />
          <note key="93" pos="1488" pan="0" len="48" vol="100" />
        </pattern>
      </track>
      <track solo="0" name="56 (Ch2)" type="0" muted="0">
        <instrumenttrack usemasterpitch="1" pitch="0.0" basenote="57" pan="0" pitchrange="12" vol="30">
          <eldata />
          <instrument name="tripleoscillator" />
        </instrumenttrack>
        <pattern pos="215040" muted="0" steps="16" name="" type="1">
          <note key="78" pos="192" pan="0" len="48" vol="100" />
          <note key="78" pos="576" pan="0" len="48" vol="100" />
          <note key="78" pos="960" pan="0" len="48" vol="100" />
          <note key="78" pos="1344" pan="0" len="48" vol="100" />
        </pattern>
        <pattern pos="198144" muted="0" steps="16" name="" type="1">
          <note key="76" pos="96" pan="0" len="24" vol="100" />
          <note key="76" pos="288" pan="0" len="24" vol="100" />
          <note key="76" pos="480" pan="0" len="24" vol="100" />
          <note key="76" pos="672" pan="0" len="24" vol="100" />
          <note key="76" pos="864" pan="0" len="24" vol="100" />
          <note key="76" pos="1056" pan="0" len="24" vol="100" />
          <note key="76" pos="1248" pan="0" len="24" vol="100" />
          <note key="76" pos="1440" pan="0" len="24" vol="100" />
        </pattern>
        <pattern pos="199680" muted="0" steps="16" name="" type="1">
          <note key="76" pos="96" pan="0" len="24" vol="100" />
          <note key="76" pos="288" pan="0" len="24" vol="100" />
          <note key="76" pos="480" pan="0" len="24" vol="100" />
          <note key="76" pos="672" pan="0" len="24" vol="100" />
          <note key="76" pos="864" pan="0" len="24" vol="100" />
          <note key="76" pos="1056" pan="0" len="24" vol="100" />
          <note key="76" pos="1248" pan="0" len="24" vol="100" />
          <note key="76" pos="1440" pan="0" len="24" vol="100" />
        </pattern>
        <pattern pos="201216" muted="0" steps="16" name="" type="1">
          <note key="76" pos="192" pan="0" len="48" vol="100" />
          <note key="76" pos="576" pan="0" len="48" vol="100" />
          <note key="76" pos="960" pan="0" len="48" vol="100" />
          <note key="76" pos="1344" pan="0" len="48" vol="100" />
        </pattern>
        <pattern pos="202752" muted="0" steps="16" name="" type="1">
          <note key="76" pos="192" pan="0" len="48" vol="100" />
          <note key="76" pos="576" pan="0" len="48" vol="100" />
          <note key="76" pos="960" pan="0" len="48" vol="100" />
          <note key="62" pos="1296" pan="0" len="48" vol="100" />
        </pattern>
        <pattern pos="204288" muted="0" steps="16" name="" type="1">
          <note key="57" pos="192" pan="0" len="12" vol="100" />
          <note key="62" pos="576" pan="0" len="48" vol="100" />
          <note key="64" pos="960" pan="0" len="12" vol="100" />
          <note key="64" pos="1344" pan="0" len="48" vol="100" />
        </pattern>
        <pattern pos="205824" muted="0" steps="16" name="" type="1">
          <note key="57" pos="192" pan="0" len="12" vol="100" />
          <note key="62" pos="576" pan="0" len="48" vol="100" />
          <note key="64" pos="960" pan="0" len="12" vol="100" />
          <note key="64" pos="1344" pan="0" len="48" vol="100" />
        </pattern>
        <pattern pos="207360" muted="0" steps="16" name="" type="1">
          <note key="76" pos="192" pan="0" len="48" vol="100" />
          <note key="76" pos="576" pan="0" len="48" vol="100" />
          <note key="76" pos="960" pan="0" len="48" vol="100" />
          <note key="76" pos="1344" pan="0" len="48" vol="100" />
        </pattern>
        <pattern pos="208896" muted="0" steps="16" name="" type="1">
          <note key="76" pos="192" pan="0" len="48" vol="100" />
          <note key="76" pos="576" pan="0" len="48" vol="100" />
          <note key="76" pos="960" pan="0" len="48" vol="100" />
          <note key="62" pos="1296" pan="0" len="48" vol="100" />
        </pattern>
        <pattern pos="210432" muted="0" steps="16" name="" type="1">
          <note key="57" pos="192" pan="0" len="12" vol="100" />
          <note key="62" pos="576" pan="0" len="48" vol="100" />
          <note key="64" pos="960" pan="0" len="12" vol="100" />
          <note key="64" pos="1344" pan="0" len="48" vol="100" />
        </pattern>
        <pattern pos="211968" muted="0" steps="16" name="" type="1">
          <note key="57" pos="192" pan="0" len="12" vol="100" />
          <note key="62" pos="576" pan="0" len="48" vol="100" />
          <note key="64" pos="960" pan="0" len="12" vol="100" />
          <note key="64" pos="1344" pan="0" len="48" vol="100" />
        </pattern>
        <pattern pos="213504" muted="0" steps="16" name="" type="1">
          <note key="78" pos="96" pan="0" len="24" vol="100" />
          <note key="78" pos="288" pan="0" len="24" vol="100" />
          <note key="78" pos="480" pan="0" len="24" vol="100" />
          <note key="78" pos="672" pan="0" len="24" vol="100" />
          <note key="78" pos="864" pan="0" len="24" vol="100" />
          <note key="78" pos="1056" pan="0" len="24" vol="100" />
          <note key="78" pos="1248" pan="0" len="24" vol="100" />
          <note key="78" pos="1440" pan="0" len="24" vol="100" />
        </pattern>
      </track>
      <track solo="0" name="56 (Ch4)" type="0" muted="0">
        <instrumenttrack usemasterpitch="1" pitch="0.0" basenote="57" pan="0" pitchrange="12" vol="30">
          <eldata />
          <instrument name="tripleoscillator" />
        </instrumenttrack>
        <pattern pos="156672" muted="0" steps="16" name="" type="1">
          <note key="79" pos="96" pan="0" len="96" vol="100" />
          <note key="79" pos="288" pan="0" len="24" vol="100" />
          <note key="79" pos="480" pan="0" len="96" vol="100" />
          <note key="77" pos="672" pan="0" len="24" vol="100" />
          <note key="79" pos="864" pan="0" len="96" vol="100" />
          <note key="79" pos="1056" pan="0" len="24" vol="100" />
          <note key="79" pos="1248" pan="0" len="96" vol="100" />
          <note key="77" pos="1440" pan="0" len="24" vol="100" />
        </pattern>
        <pattern pos="142848" muted="0" steps="16" name="" type="1">
          <note key="79" pos="96" pan="0" len="96" vol="100" />
          <note key="79" pos="288" pan="0" len="24" vol="100" />
          <note key="79" pos="480" pan="0" len="96" vol="100" />
          <note key="77" pos="672" pan="0" len="24" vol="100" />
          <note key="79" pos="864" pan="0" len="96" vol="100" />
          <note key="79" pos="1056" pan="0" len="24" vol="100" />
          <note key="79" pos="1248" pan="0" len="96" vol="100" />
          <note key="77" pos="1440" pan="0" len="24" vol="100" />
        </pattern>
        <pattern pos="144384" muted="0" steps="16" name="" type="1">
          <note key="79" pos="96" pan="0" len="96" vol="100" />
          <note key="79" pos="288" pan="0" len="24" vol="100" />
          <note key="79" pos="480" pan="0" len="96" vol="100" />
          <note key="77" pos="672" pan="0" len="24" vol="100" />
          <note key="79" pos="864" pan="0" len="96" vol="100" />
          <note key="79" pos="1056" pan="0" len="24" vol="100" />
          <note key="79" pos="1248" pan="0" len="96" vol="100" />
          <note key="77" pos="1440" pan="0" len="24" vol="100" />
        </pattern>
        <pattern pos="148992" muted="0" steps="16" name="" type="1">
          <note key="79" pos="96" pan="0" len="96" vol="100" />
          <note key="79" pos="288" pan="0" len="24" vol="100" />
          <note key="79" pos="480" pan="0" len="96" vol="100" />
          <note key="77" pos="672" pan="0" len="24" vol="100" />
          <note key="79" pos="864" pan="0" len="96" vol="100" />
          <note key="79" pos="1056" pan="0" len="24" vol="100" />
          <note key="79" pos="1248" pan="0" len="96" vol="100" />
          <note key="77" pos="1440" pan="0" len="24" vol="100" />
        </pattern>
        <pattern pos="150528" muted="0" steps="16" name="" type="1">
          <note key="79" pos="96" pan="0" len="96" vol="100" />
          <note key="79" pos="288" pan="0" len="24" vol="100" />
          <note key="79" pos="480" pan="0" len="96" vol="100" />
          <note key="77" pos="672" pan="0" len="24" vol="100" />
          <note key="79" pos="864" pan="0" len="96" vol="100" />
          <note key="79" pos="1056" pan="0" len="24" vol="100" />
          <note key="79" pos="1248" pan="0" len="96" vol="100" />
          <note key="77" pos="1440" pan="0" len="24" vol="100" />
        </pattern>
        <pattern pos="152064" muted="0" steps="16" name="" type="1">
          <note key="79" pos="96" pan="0" len="96" vol="100" />
          <note key="79" pos="288" pan="0" len="24" vol="100" />
          <note key="77" pos="480" pan="0" len="96" vol="100" />
          <note key="77" pos="672" pan="0" len="24" vol="100" />
          <note key="79" pos="864" pan="0" len="96" vol="100" />
          <note key="79" pos="1056" pan="0" len="24" vol="100" />
          <note key="79" pos="1248" pan="0" len="96" vol="100" />
        </pattern>
        <pattern pos="153600" muted="0" steps="16" name="" type="1">
          <note key="79" pos="96" pan="0" len="96" vol="100" />
          <note key="79" pos="288" pan="0" len="24" vol="100" />
          <note key="77" pos="480" pan="0" len="96" vol="100" />
          <note key="77" pos="672" pan="0" len="24" vol="100" />
          <note key="79" pos="864" pan="0" len="96" vol="100" />
          <note key="79" pos="1056" pan="0" len="24" vol="100" />
          <note key="79" pos="1248" pan="0" len="288" vol="100" />
        </pattern>
        <pattern pos="155136" muted="0" steps="16" name="" type="1">
          <note key="79" pos="96" pan="0" len="96" vol="100" />
          <note key="79" pos="288" pan="0" len="24" vol="100" />
          <note key="79" pos="480" pan="0" len="96" vol="100" />
          <note key="77" pos="672" pan="0" len="24" vol="100" />
          <note key="79" pos="864" pan="0" len="96" vol="100" />
          <note key="79" pos="1056" pan="0" len="24" vol="100" />
          <note key="79" pos="1248" pan="0" len="96" vol="100" />
          <note key="77" pos="1440" pan="0" len="24" vol="100" />
        </pattern>
      </track>
      <track solo="0" name="56 (Ch5)" type="0" muted="0">
        <instrumenttrack usemasterpitch="1" pitch="0.0" basenote="57" pan="0" pitchrange="12" vol="30">
          <eldata />
          <instrument name="tripleoscillator" />
        </instrumenttrack>
        <pattern pos="216768" muted="0" steps="16" name="" type="1">
          <note key="43" pos="0" pan="0" len="768" vol="100" />
          <note key="43" pos="768" pan="0" len="768" vol="100" />
        </pattern>
      </track>
      <track solo="0" name="56 (Ch7)" type="0" muted="0">
        <instrumenttrack usemasterpitch="1" pitch="0.0" basenote="57" pan="0" pitchrange="12" vol="30">
          <eldata />
          <instrument name="tripleoscillator" />
        </instrumenttrack>
        <pattern pos="196608" muted="0" steps="16" name="" type="1">
          <note key="76" pos="864" pan="0" len="24" vol="14" />
          <note key="76" pos="1056" pan="0" len="24" vol="39" />
          <note key="76" pos="1248" pan="0" len="24" vol="64" />
          <note key="76" pos="1440" pan="0" len="24" vol="89" />
        </pattern>
      </track>
      <track solo="0" name="56 (Ch9)" type="0" muted="0">
        <instrumenttrack usemasterpitch="1" pitch="0.0" basenote="57" pan="0" pitchrange="12" vol="30">
          <eldata />
          <instrument name="tripleoscillator" />
        </instrumenttrack>
        <pattern pos="6144" muted="0" steps="16" name="" type="1">
          <note key="98" pos="72" pan="0" len="24" vol="100" />
          <note key="103" pos="96" pan="0" len="24" vol="100" />
          <note key="102" pos="120" pan="0" len="24" vol="100" />
          <note key="105" pos="144" pan="0" len="624" vol="100" />
        </pattern>
        <pattern pos="5376" muted="0" steps="16" name="" type="1">
          <note key="98" pos="72" pan="0" len="24" vol="100" />
          <note key="103" pos="96" pan="0" len="24" vol="100" />
          <note key="102" pos="120" pan="0" len="24" vol="100" />
          <note key="105" pos="144" pan="0" len="624" vol="100" />
        </pattern>
      </track>
      <track solo="0" name="56 (Ch11)" type="0" muted="0">
        <instrumenttrack usemasterpitch="1" pitch="0.0" basenote="57" pan="0" pitchrange="12" vol="30">
          <eldata />
          <instrument name="tripleoscillator" />
        </instrumenttrack>
        <pattern pos="75264" muted="0" steps="16" name="" type="1">
          <note key="96" pos="0" pan="0" len="24" vol="100" />
          <note key="91" pos="24" pan="0" len="24" vol="97" />
          <note key="94" pos="48" pan="0" len="24" vol="94" />
          <note key="96" pos="72" pan="0" len="48" vol="91" />
          <note key="91" pos="120" pan="0" len="24" vol="84" />
          <note key="94" pos="144" pan="0" len="48" vol="81" />
          <note key="96" pos="192" pan="0" len="24" vol="75" />
          <note key="91" pos="216" pan="0" len="24" vol="72" />
          <note key="94" pos="240" pan="0" len="24" vol="69" />
          <note key="99" pos="264" pan="0" len="48" vol="66" />
          <note key="91" pos="312" pan="0" len="24" vol="59" />
          <note key="94" pos="336" pan="0" len="48" vol="56" />
          <note key="96" pos="384" pan="0" len="24" vol="50" />
          <note key="91" pos="408" pan="0" len="24" vol="47" />
          <note key="94" pos="432" pan="0" len="24" vol="44" />
          <note key="96" pos="456" pan="0" len="48" vol="41" />
          <note key="91" pos="504" pan="0" len="24" vol="34" />
          <note key="94" pos="528" pan="0" len="48" vol="31" />
          <note key="96" pos="576" pan="0" len="24" vol="25" />
          <note key="91" pos="600" pan="0" len="24" vol="22" />
          <note key="94" pos="624" pan="0" len="24" vol="19" />
          <note key="99" pos="648" pan="0" len="48" vol="16" />
          <note key="91" pos="696" pan="0" len="24" vol="9" />
          <note key="94" pos="720" pan="0" len="816" vol="6" />
        </pattern>
        <pattern pos="55296" muted="0" steps="16" name="" type="1">
          <note key="96" pos="0" pan="0" len="24" vol="2" />
          <note key="91" pos="24" pan="0" len="24" vol="3" />
          <note key="94" pos="48" pan="0" len="24" vol="5" />
          <note key="96" pos="72" pan="0" len="48" vol="6" />
          <note key="91" pos="120" pan="0" len="24" vol="9" />
          <note key="94" pos="144" pan="0" len="48" vol="11" />
          <note key="96" pos="192" pan="0" len="24" vol="14" />
          <note key="91" pos="216" pan="0" len="24" vol="16" />
          <note key="94" pos="240" pan="0" len="24" vol="17" />
          <note key="99" pos="264" pan="0" len="48" vol="19" />
          <note key="91" pos="312" pan="0" len="24" vol="22" />
          <note key="94" pos="336" pan="0" len="48" vol="23" />
          <note key="96" pos="384" pan="0" len="24" vol="27" />
          <note key="91" pos="408" pan="0" len="24" vol="28" />
          <note key="94" pos="432" pan="0" len="24" vol="30" />
          <note key="96" pos="456" pan="0" len="48" vol="31" />
          <note key="91" pos="504" pan="0" len="24" vol="34" />
          <note key="94" pos="528" pan="0" len="48" vol="36" />
          <note key="96" pos="576" pan="0" len="24" vol="39" />
          <note key="91" pos="600" pan="0" len="24" vol="41" />
          <note key="94" pos="624" pan="0" len="24" vol="42" />
          <note key="99" pos="648" pan="0" len="48" vol="44" />
          <note key="91" pos="696" pan="0" len="24" vol="47" />
          <note key="94" pos="720" pan="0" len="48" vol="48" />
          <note key="96" pos="768" pan="0" len="24" vol="53" />
          <note key="91" pos="792" pan="0" len="24" vol="55" />
          <note key="94" pos="816" pan="0" len="24" vol="56" />
          <note key="96" pos="840" pan="0" len="48" vol="58" />
          <note key="91" pos="888" pan="0" len="24" vol="61" />
          <note key="94" pos="912" pan="0" len="48" vol="62" />
          <note key="96" pos="960" pan="0" len="24" vol="66" />
          <note key="91" pos="984" pan="0" len="24" vol="67" />
          <note key="94" pos="1008" pan="0" len="24" vol="69" />
          <note key="99" pos="1032" pan="0" len="48" vol="70" />
          <note key="91" pos="1080" pan="0" len="24" vol="73" />
          <note key="94" pos="1104" pan="0" len="48" vol="75" />
          <note key="96" pos="1152" pan="0" len="24" vol="78" />
          <note key="91" pos="1176" pan="0" len="24" vol="80" />
          <note key="94" pos="1200" pan="0" len="24" vol="81" />
          <note key="96" pos="1224" pan="0" len="48" vol="83" />
          <note key="91" pos="1272" pan="0" len="24" vol="86" />
          <note key="94" pos="1296" pan="0" len="48" vol="88" />
          <note key="96" pos="1344" pan="0" len="24" vol="91" />
          <note key="91" pos="1368" pan="0" len="24" vol="92" />
          <note key="94" pos="1392" pan="0" len="24" vol="94" />
          <note key="99" pos="1416" pan="0" len="48" vol="95" />
          <note key="91" pos="1464" pan="0" len="24" vol="98" />
          <note key="94" pos="1488" pan="0" len="48" vol="100" />
        </pattern>
        <pattern pos="56832" muted="0" steps="16" name="" type="1">
          <note key="96" pos="0" pan="0" len="24" vol="100" />
          <note key="91" pos="24" pan="0" len="24" vol="100" />
          <note key="94" pos="48" pan="0" len="24" vol="100" />
          <note key="96" pos="72" pan="0" len="48" vol="100" />
          <note key="91" pos="120" pan="0" len="24" vol="100" />
          <note key="94" pos="144" pan="0" len="48" vol="100" />
          <note key="96" pos="192" pan="0" len="24" vol="100" />
          <note key="91" pos="216" pan="0" len="24" vol="100" />
          <note key="94" pos="240" pan="0" len="24" vol="100" />
          <note key="99" pos="264" pan="0" len="48" vol="100" />
          <note key="91" pos="312" pan="0" len="24" vol="100" />
          <note key="94" pos="336" pan="0" len="48" vol="100" />
          <note key="96" pos="384" pan="0" len="24" vol="100" />
          <note key="91" pos="408" pan="0" len="24" vol="100" />
          <note key="94" pos="432" pan="0" len="24" vol="100" />
          <note key="96" pos="456" pan="0" len="48" vol="100" />
          <note key="91" pos="504" pan="0" len="24" vol="100" />
          <note key="94" pos="528" pan="0" len="48" vol="100" />
          <note key="96" pos="576" pan="0" len="24" vol="100" />
          <note key="91" pos="600" pan="0" len="24" vol="100" />
          <note key="94" pos="624" pan="0" len="24" vol="100" />
          <note key="99" pos="648" pan="0" len="48" vol="100" />
          <note key="91" pos="696" pan="0" len="24" vol="100" />
          <note key="94" pos="720" pan="0" len="48" vol="100" />
          <note key="96" pos="768" pan="0" len="24" vol="100" />
          <note key="91" pos="792" pan="0" len="24" vol="100" />
          <note key="94" pos="816" pan="0" len="24" vol="100" />
          <note key="96" pos="840" pan="0" len="48" vol="100" />
          <note key="91" pos="888" pan="0" len="24" vol="100" />
          <note key="94" pos="912" pan="0" len="48" vol="100" />
          <note key="96" pos="960" pan="0" len="24" vol="100" />
          <note key="91" pos="984" pan="0" len="24" vol="100" />
          <note key="94" pos="1008" pan="0" len="24" vol="100" />
          <note key="99" pos="1032" pan="0" len="48" vol="100" />
          <note key="91" pos="1080" pan="0" len="24" vol="100" />
          <note key="94" pos="1104" pan="0" len="48" vol="100" />
          <note key="96" pos="1152" pan="0" len="24" vol="100" />
          <note key="91" pos="1176" pan="0" len="24" vol="100" />
          <note key="94" pos="1200" pan="0" len="24" vol="100" />
          <note key="96" pos="1224" pan="0" len="48" vol="100" />
          <note key="91" pos="1272" pan="0" len="24" vol="100" />
          <note key="94" pos="1296" pan="0" len="48" vol="100" />
          <note key="96" pos="1344" pan="0" len="24" vol="100" />
          <note key="91" pos="1368" pan="0" len="24" vol="100" />
          <note key="94" pos="1392" pan="0" len="24" vol="100" />
          <note key="99" pos="1416" pan="0" len="48" vol="100" />
          <note key="91" pos="1464" pan="0" len="24" vol="100" />
          <note key="94" pos="1488" pan="0" len="48" vol="100" />
        </pattern>
        <pattern pos="58368" muted="0" steps="16" name="" type="1">
          <note key="96" pos="0" pan="0" len="24" vol="100" />
          <note key="91" pos="24" pan="0" len="24" vol="100" />
          <note key="94" pos="48" pan="0" len="24" vol="100" />
          <note key="96" pos="72" pan="0" len="48" vol="100" />
          <note key="91" pos="120" pan="0" len="24" vol="100" />
          <note key="94" pos="144" pan="0" len="48" vol="100" />
          <note key="96" pos="192" pan="0" len="24" vol="100" />
          <note key="91" pos="216" pan="0" len="24" vol="100" />
          <note key="94" pos="240" pan="0" len="24" vol="100" />
          <note key="99" pos="264" pan="0" len="48" vol="100" />
          <note key="91" pos="312" pan="0" len="24" vol="100" />
          <note key="94" pos="336" pan="0" len="48" vol="100" />
          <note key="96" pos="384" pan="0" len="24" vol="100" />
          <note key="91" pos="408" pan="0" len="24" vol="100" />
          <note key="94" pos="432" pan="0" len="24" vol="100" />
          <note key="96" pos="456" pan="0" len="48" vol="100" />
          <note key="91" pos="504" pan="0" len="24" vol="100" />
          <note key="94" pos="528" pan="0" len="48" vol="100" />
          <note key="96" pos="576" pan="0" len="24" vol="100" />
          <note key="91" pos="600" pan="0" len="24" vol="100" />
          <note key="94" pos="624" pan="0" len="24" vol="100" />
          <note key="99" pos="648" pan="0" len="48" vol="100" />
          <note key="91" pos="696" pan="0" len="24" vol="100" />
          <note key="94" pos="720" pan="0" len="48" vol="100" />
          <note key="96" pos="768" pan="0" len="24" vol="100" />
          <note key="91" pos="792" pan="0" len="24" vol="100" />
          <note key="94" pos="816" pan="0" len="24" vol="100" />
          <note key="96" pos="840" pan="0" len="48" vol="100" />
          <note key="91" pos="888" pan="0" len="24" vol="100" />
          <note key="94" pos="912" pan="0" len="48" vol="100" />
          <note key="96" pos="960" pan="0" len="24" vol="100" />
          <note key="91" pos="984" pan="0" len="24" vol="100" />
          <note key="94" pos="1008" pan="0" len="24" vol="100" />
          <note key="99" pos="1032" pan="0" len="48" vol="100" />
          <note key="91" pos="1080" pan="0" len="24" vol="100" />
          <note key="94" pos="1104" pan="0" len="48" vol="100" />
          <note key="96" pos="1152" pan="0" len="24" vol="100" />
          <note key="91" pos="1176" pan="0" len="24" vol="100" />
          <note key="94" pos="1200" pan="0" len="24" vol="100" />
          <note key="96" pos="1224" pan="0" len="48" vol="100" />
          <note key="91" pos="1272" pan="0" len="24" vol="100" />
          <note key="94" pos="1296" pan="0" len="48" vol="100" />
          <note key="96" pos="1344" pan="0" len="24" vol="100" />
          <note key="91" pos="1368" pan="0" len="24" vol="100" />
          <note key="94" pos="1392" pan="0" len="24" vol="100" />
          <note key="99" pos="1416" pan="0" len="48" vol="100" />
          <note key="91" pos="1464" pan="0" len="24" vol="100" />
          <note key="94" pos="1488" pan="0" len="48" vol="100" />
        </pattern>
        <pattern pos="59904" muted="0" steps="16" name="" type="1">
          <note key="96" pos="0" pan="0" len="24" vol="100" />
          <note key="91" pos="24" pan="0" len="24" vol="100" />
          <note key="94" pos="48" pan="0" len="24" vol="100" />
          <note key="96" pos="72" pan="0" len="48" vol="100" />
          <note key="91" pos="120" pan="0" len="24" vol="100" />
          <note key="94" pos="144" pan="0" len="48" vol="100" />
          <note key="96" pos="192" pan="0" len="24" vol="100" />
          <note key="91" pos="216" pan="0" len="24" vol="100" />
          <note key="94" pos="240" pan="0" len="24" vol="100" />
          <note key="99" pos="264" pan="0" len="48" vol="100" />
          <note key="91" pos="312" pan="0" len="24" vol="100" />
          <note key="94" pos="336" pan="0" len="48" vol="100" />
          <note key="96" pos="384" pan="0" len="24" vol="100" />
          <note key="91" pos="408" pan="0" len="24" vol="100" />
          <note key="94" pos="432" pan="0" len="24" vol="100" />
          <note key="96" pos="456" pan="0" len="48" vol="100" />
          <note key="91" pos="504" pan="0" len="24" vol="100" />
          <note key="94" pos="528" pan="0" len="48" vol="100" />
          <note key="96" pos="576" pan="0" len="24" vol="100" />
          <note key="91" pos="600" pan="0" len="24" vol="100" />
          <note key="94" pos="624" pan="0" len="24" vol="100" />
          <note key="99" pos="648" pan="0" len="48" vol="100" />
          <note key="91" pos="696" pan="0" len="24" vol="100" />
          <note key="94" pos="720" pan="0" len="48" vol="100" />
          <note key="96" pos="768" pan="0" len="24" vol="100" />
          <note key="91" pos="792" pan="0" len="24" vol="100" />
          <note key="94" pos="816" pan="0" len="24" vol="100" />
          <note key="96" pos="840" pan="0" len="48" vol="100" />
          <note key="91" pos="888" pan="0" len="24" vol="100" />
          <note key="94" pos="912" pan="0" len="48" vol="100" />
          <note key="96" pos="960" pan="0" len="24" vol="100" />
          <note key="91" pos="984" pan="0" len="24" vol="100" />
          <note key="94" pos="1008" pan="0" len="24" vol="100" />
          <note key="99" pos="1032" pan="0" len="48" vol="100" />
          <note key="91" pos="1080" pan="0" len="24" vol="100" />
          <note key="94" pos="1104" pan="0" len="48" vol="100" />
          <note key="96" pos="1152" pan="0" len="24" vol="100" />
          <note key="91" pos="1176" pan="0" len="24" vol="100" />
          <note key="94" pos="1200" pan="0" len="24" vol="100" />
          <note key="96" pos="1224" pan="0" len="48" vol="100" />
          <note key="91" pos="1272" pan="0" len="24" vol="100" />
          <note key="94" pos="1296" pan="0" len="48" vol="100" />
          <note key="96" pos="1344" pan="0" len="24" vol="100" />
          <note key="91" pos="1368" pan="0" len="24" vol="100" />
          <note key="94" pos="1392" pan="0" len="24" vol="100" />
          <note key="99" pos="1416" pan="0" len="48" vol="100" />
          <note key="91" pos="1464" pan="0" len="24" vol="100" />
          <note key="94" pos="1488" pan="0" len="48" vol="100" />
        </pattern>
        <pattern pos="61440" muted="0" steps="16" name="" type="1">
          <note key="96" pos="0" pan="0" len="24" vol="100" />
          <note key="91" pos="24" pan="0" len="24" vol="100" />
          <note key="94" pos="48" pan="0" len="24" vol="100" />
          <note key="96" pos="72" pan="0" len="48" vol="100" />
          <note key="91" pos="120" pan="0" len="24" vol="100" />
          <note key="94" pos="144" pan="0" len="48" vol="100" />
          <note key="96" pos="192" pan="0" len="24" vol="100" />
          <note key="91" pos="216" pan="0" len="24" vol="100" />
          <note key="94" pos="240" pan="0" len="24" vol="100" />
          <note key="99" pos="264" pan="0" len="48" vol="100" />
          <note key="91" pos="312" pan="0" len="24" vol="100" />
          <note key="94" pos="336" pan="0" len="48" vol="100" />
          <note key="96" pos="384" pan="0" len="24" vol="100" />
          <note key="91" pos="408" pan="0" len="24" vol="100" />
          <note key="94" pos="432" pan="0" len="24" vol="100" />
          <note key="96" pos="456" pan="0" len="48" vol="100" />
          <note key="91" pos="504" pan="0" len="24" vol="100" />
          <note key="94" pos="528" pan="0" len="48" vol="100" />
          <note key="96" pos="576" pan="0" len="24" vol="100" />
          <note key="91" pos="600" pan="0" len="24" vol="100" />
          <note key="94" pos="624" pan="0" len="24" vol="100" />
          <note key="99" pos="648" pan="0" len="48" vol="100" />
          <note key="91" pos="696" pan="0" len="24" vol="100" />
          <note key="94" pos="720" pan="0" len="48" vol="100" />
          <note key="96" pos="768" pan="0" len="24" vol="100" />
          <note key="91" pos="792" pan="0" len="24" vol="100" />
          <note key="94" pos="816" pan="0" len="24" vol="100" />
          <note key="96" pos="840" pan="0" len="48" vol="100" />
          <note key="91" pos="888" pan="0" len="24" vol="100" />
          <note key="94" pos="912" pan="0" len="48" vol="100" />
          <note key="96" pos="960" pan="0" len="24" vol="100" />
          <note key="91" pos="984" pan="0" len="24" vol="100" />
          <note key="94" pos="1008" pan="0" len="24" vol="100" />
          <note key="99" pos="1032" pan="0" len="48" vol="100" />
          <note key="91" pos="1080" pan="0" len="24" vol="100" />
          <note key="94" pos="1104" pan="0" len="48" vol="100" />
          <note key="96" pos="1152" pan="0" len="24" vol="100" />
          <note key="91" pos="1176" pan="0" len="24" vol="100" />
          <note key="94" pos="1200" pan="0" len="24" vol="100" />
          <note key="96" pos="1224" pan="0" len="48" vol="100" />
          <note key="91" pos="1272" pan="0" len="24" vol="100" />
          <note key="94" pos="1296" pan="0" len="48" vol="100" />
          <note key="96" pos="1344" pan="0" len="24" vol="100" />
          <note key="91" pos="1368" pan="0" len="24" vol="100" />
          <note key="94" pos="1392" pan="0" len="24" vol="100" />
          <note key="99" pos="1416" pan="0" len="48" vol="100" />
          <note key="91" pos="1464" pan="0" len="24" vol="100" />
          <note key="94" pos="1488" pan="0" len="48" vol="100" />
        </pattern>
        <pattern pos="62976" muted="0" steps="16" name="" type="1">
          <note key="96" pos="0" pan="0" len="24" vol="100" />
          <note key="91" pos="24" pan="0" len="24" vol="100" />
          <note key="94" pos="48" pan="0" len="24" vol="100" />
          <note key="96" pos="72" pan="0" len="48" vol="100" />
          <note key="91" pos="120" pan="0" len="24" vol="100" />
          <note key="94" pos="144" pan="0" len="48" vol="100" />
          <note key="96" pos="192" pan="0" len="24" vol="100" />
          <note key="91" pos="216" pan="0" len="24" vol="100" />
          <note key="94" pos="240" pan="0" len="24" vol="100" />
          <note key="99" pos="264" pan="0" len="48" vol="100" />
          <note key="91" pos="312" pan="0" len="24" vol="100" />
          <note key="94" pos="336" pan="0" len="48" vol="100" />
          <note key="96" pos="384" pan="0" len="24" vol="100" />
          <note key="91" pos="408" pan="0" len="24" vol="100" />
          <note key="94" pos="432" pan="0" len="24" vol="100" />
          <note key="96" pos="456" pan="0" len="48" vol="100" />
          <note key="91" pos="504" pan="0" len="24" vol="100" />
          <note key="94" pos="528" pan="0" len="48" vol="100" />
          <note key="96" pos="576" pan="0" len="24" vol="100" />
          <note key="91" pos="600" pan="0" len="24" vol="100" />
          <note key="94" pos="624" pan="0" len="24" vol="100" />
          <note key="99" pos="648" pan="0" len="48" vol="100" />
          <note key="91" pos="696" pan="0" len="24" vol="100" />
          <note key="94" pos="720" pan="0" len="48" vol="100" />
          <note key="96" pos="768" pan="0" len="24" vol="100" />
          <note key="91" pos="792" pan="0" len="24" vol="100" />
          <note key="94" pos="816" pan="0" len="24" vol="100" />
          <note key="96" pos="840" pan="0" len="48" vol="100" />
          <note key="91" pos="888" pan="0" len="24" vol="100" />
          <note key="94" pos="912" pan="0" len="48" vol="100" />
          <note key="96" pos="960" pan="0" len="24" vol="100" />
          <note key="91" pos="984" pan="0" len="24" vol="100" />
          <note key="94" pos="1008" pan="0" len="24" vol="100" />
          <note key="99" pos="1032" pan="0" len="48" vol="100" />
          <note key="91" pos="1080" pan="0" len="24" vol="100" />
          <note key="94" pos="1104" pan="0" len="48" vol="100" />
          <note key="96" pos="1152" pan="0" len="24" vol="100" />
          <note key="91" pos="1176" pan="0" len="24" vol="100" />
          <note key="94" pos="1200" pan="0" len="24" vol="100" />
          <note key="96" pos="1224" pan="0" len="48" vol="100" />
          <note key="91" pos="1272" pan="0" len="24" vol="100" />
          <note key="94" pos="1296" pan="0" len="48" vol="100" />
          <note key="96" pos="1344" pan="0" len="24" vol="100" />
          <note key="91" pos="1368" pan="0" len="24" vol="100" />
          <note key="94" pos="1392" pan="0" len="24" vol="100" />
          <note key="99" pos="1416" pan="0" len="48" vol="100" />
          <note key="91" pos="1464" pan="0" len="24" vol="100" />
          <note key="94" pos="1488" pan="0" len="48" vol="100" />
        </pattern>
        <pattern pos="64512" muted="0" steps="16" name="" type="1">
          <note key="96" pos="0" pan="0" len="24" vol="100" />
          <note key="91" pos="24" pan="0" len="24" vol="100" />
          <note key="94" pos="48" pan="0" len="24" vol="100" />
          <note key="96" pos="72" pan="0" len="48" vol="100" />
          <note key="91" pos="120" pan="0" len="24" vol="100" />
          <note key="94" pos="144" pan="0" len="48" vol="100" />
          <note key="96" pos="192" pan="0" len="24" vol="100" />
          <note key="91" pos="216" pan="0" len="24" vol="100" />
          <note key="94" pos="240" pan="0" len="24" vol="100" />
          <note key="99" pos="264" pan="0" len="48" vol="100" />
          <note key="91" pos="312" pan="0" len="24" vol="100" />
          <note key="94" pos="336" pan="0" len="48" vol="100" />
          <note key="96" pos="384" pan="0" len="24" vol="100" />
          <note key="91" pos="408" pan="0" len="24" vol="100" />
          <note key="94" pos="432" pan="0" len="24" vol="100" />
          <note key="96" pos="456" pan="0" len="48" vol="100" />
          <note key="91" pos="504" pan="0" len="24" vol="100" />
          <note key="94" pos="528" pan="0" len="48" vol="100" />
          <note key="96" pos="576" pan="0" len="24" vol="100" />
          <note key="91" pos="600" pan="0" len="24" vol="100" />
          <note key="94" pos="624" pan="0" len="24" vol="100" />
          <note key="99" pos="648" pan="0" len="48" vol="100" />
          <note key="91" pos="696" pan="0" len="24" vol="100" />
          <note key="94" pos="720" pan="0" len="48" vol="100" />
          <note key="96" pos="768" pan="0" len="24" vol="100" />
          <note key="91" pos="792" pan="0" len="24" vol="100" />
          <note key="94" pos="816" pan="0" len="24" vol="100" />
          <note key="96" pos="840" pan="0" len="48" vol="100" />
          <note key="91" pos="888" pan="0" len="24" vol="100" />
          <note key="94" pos="912" pan="0" len="48" vol="100" />
          <note key="96" pos="960" pan="0" len="24" vol="100" />
          <note key="91" pos="984" pan="0" len="24" vol="100" />
          <note key="94" pos="1008" pan="0" len="24" vol="100" />
          <note key="99" pos="1032" pan="0" len="48" vol="100" />
          <note key="91" pos="1080" pan="0" len="24" vol="100" />
          <note key="94" pos="1104" pan="0" len="48" vol="100" />
          <note key="96" pos="1152" pan="0" len="24" vol="100" />
          <note key="91" pos="1176" pan="0" len="24" vol="100" />
          <note key="94" pos="1200" pan="0" len="24" vol="100" />
          <note key="96" pos="1224" pan="0" len="48" vol="100" />
          <note key="91" pos="1272" pan="0" len="24" vol="100" />
          <note key="94" pos="1296" pan="0" len="48" vol="100" />
          <note key="96" pos="1344" pan="0" len="24" vol="100" />
          <note key="91" pos="1368" pan="0" len="24" vol="100" />
          <note key="94" pos="1392" pan="0" len="24" vol="100" />
          <note key="99" pos="1416" pan="0" len="48" vol="100" />
          <note key="91" pos="1464" pan="0" len="24" vol="100" />
          <note key="94" pos="1488" pan="0" len="48" vol="100" />
        </pattern>
        <pattern pos="66048" muted="0" steps="16" name="" type="1">
          <note key="96" pos="0" pan="0" len="24" vol="100" />
          <note key="91" pos="24" pan="0" len="24" vol="100" />
          <note key="94" pos="48" pan="0" len="24" vol="100" />
          <note key="96" pos="72" pan="0" len="48" vol="100" />
          <note key="91" pos="120" pan="0" len="24" vol="100" />
          <note key="94" pos="144" pan="0" len="48" vol="100" />
          <note key="96" pos="192" pan="0" len="24" vol="100" />
          <note key="91" pos="216" pan="0" len="24" vol="100" />
          <note key="94" pos="240" pan="0" len="24" vol="100" />
          <note key="99" pos="264" pan="0" len="48" vol="100" />
          <note key="91" pos="312" pan="0" len="24" vol="100" />
          <note key="94" pos="336" pan="0" len="48" vol="100" />
          <note key="96" pos="384" pan="0" len="24" vol="100" />
          <note key="91" pos="408" pan="0" len="24" vol="100" />
          <note key="94" pos="432" pan="0" len="24" vol="100" />
          <note key="96" pos="456" pan="0" len="48" vol="100" />
          <note key="91" pos="504" pan="0" len="24" vol="100" />
          <note key="94" pos="528" pan="0" len="48" vol="100" />
          <note key="96" pos="576" pan="0" len="24" vol="100" />
          <note key="91" pos="600" pan="0" len="24" vol="100" />
          <note key="94" pos="624" pan="0" len="24" vol="100" />
          <note key="99" pos="648" pan="0" len="48" vol="100" />
          <note key="91" pos="696" pan="0" len="24" vol="100" />
          <note key="94" pos="720" pan="0" len="48" vol="100" />
          <note key="96" pos="768" pan="0" len="24" vol="100" />
          <note key="91" pos="792" pan="0" len="24" vol="100" />
          <note key="94" pos="816" pan="0" len="24" vol="100" />
          <note key="96" pos="840" pan="0" len="48" vol="100" />
          <note key="91" pos="888" pan="0" len="24" vol="100" />
          <note key="94" pos="912" pan="0" len="48" vol="100" />
          <note key="96" pos="960" pan="0" len="24" vol="100" />
          <note key="91" pos="984" pan="0" len="24" vol="100" />
          <note key="94" pos="1008" pan="0" len="24" vol="100" />
          <note key="99" pos="1032" pan="0" len="48" vol="100" />
          <note key="91" pos="1080" pan="0" len="24" vol="100" />
          <note key="94" pos="1104" pan="0" len="48" vol="100" />
          <note key="96" pos="1152" pan="0" len="24" vol="100" />
          <note key="91" pos="1176" pan="0" len="24" vol="100" />
          <note key="94" pos="1200" pan="0" len="24" vol="100" />
          <note key="96" pos="1224" pan="0" len="48" vol="100" />
          <note key="91" pos="1272" pan="0" len="24" vol="100" />
          <note key="94" pos="1296" pan="0" len="48" vol="100" />
          <note key="96" pos="1344" pan="0" len="24" vol="100" />
          <note key="91" pos="1368" pan="0" len="24" vol="100" />
          <note key="94" pos="1392" pan="0" len="24" vol="100" />
          <note key="99" pos="1416" pan="0" len="48" vol="100" />
          <note key="91" pos="1464" pan="0" len="24" vol="100" />
          <note key="94" pos="1488" pan="0" len="48" vol="100" />
        </pattern>
        <pattern pos="67584" muted="0" steps="16" name="" type="1">
          <note key="96" pos="0" pan="0" len="24" vol="100" />
          <note key="91" pos="24" pan="0" len="24" vol="100" />
          <note key="94" pos="48" pan="0" len="24" vol="100" />
          <note key="96" pos="72" pan="0" len="48" vol="100" />
          <note key="91" pos="120" pan="0" len="24" vol="100" />
          <note key="94" pos="144" pan="0" len="48" vol="100" />
          <note key="96" pos="192" pan="0" len="24" vol="100" />
          <note key="91" pos="216" pan="0" len="24" vol="100" />
          <note key="94" pos="240" pan="0" len="24" vol="100" />
          <note key="99" pos="264" pan="0" len="48" vol="100" />
          <note key="91" pos="312" pan="0" len="24" vol="100" />
          <note key="94" pos="336" pan="0" len="48" vol="100" />
          <note key="96" pos="384" pan="0" len="24" vol="100" />
          <note key="91" pos="408" pan="0" len="24" vol="100" />
          <note key="94" pos="432" pan="0" len="24" vol="100" />
          <note key="96" pos="456" pan="0" len="48" vol="100" />
          <note key="91" pos="504" pan="0" len="24" vol="100" />
          <note key="94" pos="528" pan="0" len="48" vol="100" />
          <note key="96" pos="576" pan="0" len="24" vol="100" />
          <note key="91" pos="600" pan="0" len="24" vol="100" />
          <note key="94" pos="624" pan="0" len="24" vol="100" />
          <note key="99" pos="648" pan="0" len="48" vol="100" />
          <note key="91" pos="696" pan="0" len="24" vol="100" />
          <note key="94" pos="720" pan="0" len="48" vol="100" />
          <note key="96" pos="768" pan="0" len="24" vol="100" />
          <note key="91" pos="792" pan="0" len="24" vol="100" />
          <note key="94" pos="816" pan="0" len="24" vol="100" />
          <note key="96" pos="840" pan="0" len="48" vol="100" />
          <note key="91" pos="888" pan="0" len="24" vol="100" />
          <note key="94" pos="912" pan="0" len="48" vol="100" />
          <note key="96" pos="960" pan="0" len="24" vol="100" />
          <note key="91" pos="984" pan="0" len="24" vol="100" />
          <note key="94" pos="1008" pan="0" len="24" vol="100" />
          <note key="99" pos="1032" pan="0" len="48" vol="100" />
          <note key="91" pos="1080" pan="0" len="24" vol="100" />
          <note key="94" pos="1104" pan="0" len="48" vol="100" />
          <note key="96" pos="1152" pan="0" len="24" vol="100" />
          <note key="91" pos="1176" pan="0" len="24" vol="100" />
          <note key="94" pos="1200" pan="0" len="24" vol="100" />
          <note key="96" pos="1224" pan="0" len="48" vol="100" />
          <note key="91" pos="1272" pan="0" len="24" vol="100" />
          <note key="94" pos="1296" pan="0" len="48" vol="100" />
          <note key="96" pos="1344" pan="0" len="24" vol="100" />
          <note key="91" pos="1368" pan="0" len="24" vol="100" />
          <note key="94" pos="1392" pan="0" len="24" vol="100" />
          <note key="99" pos="1416" pan="0" len="48" vol="100" />
          <note key="91" pos="1464" pan="0" len="24" vol="100" />
          <note key="94" pos="1488" pan="0" len="48" vol="100" />
        </pattern>
        <pattern pos="69120" muted="0" steps="16" name="" type="1">
          <note key="96" pos="0" pan="0" len="24" vol="100" />
          <note key="91" pos="24" pan="0" len="24" vol="100" />
          <note key="94" pos="48" pan="0" len="24" vol="100" />
          <note key="96" pos="72" pan="0" len="48" vol="100" />
          <note key="91" pos="120" pan="0" len="24" vol="100" />
          <note key="94" pos="144" pan="0" len="48" vol="100" />
          <note key="96" pos="192" pan="0" len="24" vol="100" />
          <note key="91" pos="216" pan="0" len="24" vol="100" />
          <note key="94" pos="240" pan="0" len="24" vol="100" />
          <note key="99" pos="264" pan="0" len="48" vol="100" />
          <note key="91" pos="312" pan="0" len="24" vol="100" />
          <note key="94" pos="336" pan="0" len="48" vol="100" />
          <note key="96" pos="384" pan="0" len="24" vol="100" />
          <note key="91" pos="408" pan="0" len="24" vol="100" />
          <note key="94" pos="432" pan="0" len="24" vol="100" />
          <note key="96" pos="456" pan="0" len="48" vol="100" />
          <note key="91" pos="504" pan="0" len="24" vol="100" />
          <note key="94" pos="528" pan="0" len="48" vol="100" />
          <note key="96" pos="576" pan="0" len="24" vol="100" />
          <note key="91" pos="600" pan="0" len="24" vol="100" />
          <note key="94" pos="624" pan="0" len="24" vol="100" />
          <note key="99" pos="648" pan="0" len="48" vol="100" />
          <note key="91" pos="696" pan="0" len="24" vol="100" />
          <note key="94" pos="720" pan="0" len="48" vol="100" />
          <note key="96" pos="768" pan="0" len="24" vol="100" />
          <note key="91" pos="792" pan="0" len="24" vol="100" />
          <note key="94" pos="816" pan="0" len="24" vol="100" />
          <note key="96" pos="840" pan="0" len="48" vol="100" />
          <note key="91" pos="888" pan="0" len="24" vol="100" />
          <note key="94" pos="912" pan="0" len="48" vol="100" />
          <note key="96" pos="960" pan="0" len="24" vol="100" />
          <note key="91" pos="984" pan="0" len="24" vol="100" />
          <note key="94" pos="1008" pan="0" len="24" vol="100" />
          <note key="99" pos="1032" pan="0" len="48" vol="100" />
          <note key="91" pos="1080" pan="0" len="24" vol="100" />
          <note key="94" pos="1104" pan="0" len="48" vol="100" />
          <note key="96" pos="1152" pan="0" len="24" vol="100" />
          <note key="91" pos="1176" pan="0" len="24" vol="100" />
          <note key="94" pos="1200" pan="0" len="24" vol="100" />
          <note key="96" pos="1224" pan="0" len="48" vol="100" />
          <note key="91" pos="1272" pan="0" len="24" vol="100" />
          <note key="94" pos="1296" pan="0" len="48" vol="100" />
          <note key="96" pos="1344" pan="0" len="24" vol="100" />
          <note key="91" pos="1368" pan="0" len="24" vol="100" />
          <note key="94" pos="1392" pan="0" len="24" vol="100" />
          <note key="99" pos="1416" pan="0" len="48" vol="100" />
          <note key="91" pos="1464" pan="0" len="24" vol="100" />
          <note key="94" pos="1488" pan="0" len="48" vol="100" />
        </pattern>
        <pattern pos="70656" muted="0" steps="16" name="" type="1">
          <note key="96" pos="0" pan="0" len="24" vol="100" />
          <note key="91" pos="24" pan="0" len="24" vol="100" />
          <note key="94" pos="48" pan="0" len="24" vol="100" />
          <note key="96" pos="72" pan="0" len="48" vol="100" />
          <note key="91" pos="120" pan="0" len="24" vol="100" />
          <note key="94" pos="144" pan="0" len="48" vol="100" />
          <note key="96" pos="192" pan="0" len="24" vol="100" />
          <note key="91" pos="216" pan="0" len="24" vol="100" />
          <note key="94" pos="240" pan="0" len="24" vol="100" />
          <note key="99" pos="264" pan="0" len="48" vol="100" />
          <note key="91" pos="312" pan="0" len="24" vol="100" />
          <note key="94" pos="336" pan="0" len="48" vol="100" />
          <note key="96" pos="384" pan="0" len="24" vol="100" />
          <note key="91" pos="408" pan="0" len="24" vol="100" />
          <note key="94" pos="432" pan="0" len="24" vol="100" />
          <note key="96" pos="456" pan="0" len="48" vol="100" />
          <note key="91" pos="504" pan="0" len="24" vol="100" />
          <note key="94" pos="528" pan="0" len="48" vol="100" />
          <note key="96" pos="576" pan="0" len="24" vol="100" />
          <note key="91" pos="600" pan="0" len="24" vol="100" />
          <note key="94" pos="624" pan="0" len="24" vol="100" />
          <note key="99" pos="648" pan="0" len="48" vol="100" />
          <note key="91" pos="696" pan="0" len="24" vol="100" />
          <note key="94" pos="720" pan="0" len="48" vol="100" />
          <note key="96" pos="768" pan="0" len="24" vol="100" />
          <note key="91" pos="792" pan="0" len="24" vol="100" />
          <note key="94" pos="816" pan="0" len="24" vol="100" />
          <note key="96" pos="840" pan="0" len="48" vol="100" />
          <note key="91" pos="888" pan="0" len="24" vol="100" />
          <note key="94" pos="912" pan="0" len="48" vol="100" />
          <note key="96" pos="960" pan="0" len="24" vol="100" />
          <note key="91" pos="984" pan="0" len="24" vol="100" />
          <note key="94" pos="1008" pan="0" len="24" vol="100" />
          <note key="99" pos="1032" pan="0" len="48" vol="100" />
          <note key="91" pos="1080" pan="0" len="24" vol="100" />
          <note key="94" pos="1104" pan="0" len="48" vol="100" />
          <note key="96" pos="1152" pan="0" len="24" vol="100" />
          <note key="91" pos="1176" pan="0" len="24" vol="100" />
          <note key="94" pos="1200" pan="0" len="24" vol="100" />
          <note key="96" pos="1224" pan="0" len="48" vol="100" />
          <note key="91" pos="1272" pan="0" len="24" vol="100" />
          <note key="94" pos="1296" pan="0" len="48" vol="100" />
          <note key="96" pos="1344" pan="0" len="24" vol="100" />
          <note key="91" pos="1368" pan="0" len="24" vol="100" />
          <note key="94" pos="1392" pan="0" len="24" vol="100" />
          <note key="99" pos="1416" pan="0" len="48" vol="100" />
          <note key="91" pos="1464" pan="0" len="24" vol="100" />
          <note key="94" pos="1488" pan="0" len="48" vol="100" />
        </pattern>
        <pattern pos="72192" muted="0" steps="16" name="" type="1">
          <note key="96" pos="0" pan="0" len="24" vol="100" />
          <note key="91" pos="24" pan="0" len="24" vol="100" />
          <note key="94" pos="48" pan="0" len="24" vol="100" />
          <note key="96" pos="72" pan="0" len="48" vol="100" />
          <note key="91" pos="120" pan="0" len="24" vol="100" />
          <note key="94" pos="144" pan="0" len="48" vol="100" />
          <note key="96" pos="192" pan="0" len="24" vol="100" />
          <note key="91" pos="216" pan="0" len="24" vol="100" />
          <note key="94" pos="240" pan="0" len="24" vol="100" />
          <note key="99" pos="264" pan="0" len="48" vol="100" />
          <note key="91" pos="312" pan="0" len="24" vol="100" />
          <note key="94" pos="336" pan="0" len="48" vol="100" />
          <note key="96" pos="384" pan="0" len="24" vol="100" />
          <note key="91" pos="408" pan="0" len="24" vol="100" />
          <note key="94" pos="432" pan="0" len="24" vol="100" />
          <note key="96" pos="456" pan="0" len="48" vol="100" />
          <note key="91" pos="504" pan="0" len="24" vol="100" />
          <note key="94" pos="528" pan="0" len="48" vol="100" />
          <note key="96" pos="576" pan="0" len="24" vol="100" />
          <note key="91" pos="600" pan="0" len="24" vol="100" />
          <note key="94" pos="624" pan="0" len="24" vol="100" />
          <note key="99" pos="648" pan="0" len="48" vol="100" />
          <note key="91" pos="696" pan="0" len="24" vol="100" />
          <note key="94" pos="720" pan="0" len="48" vol="100" />
          <note key="96" pos="768" pan="0" len="24" vol="100" />
          <note key="91" pos="792" pan="0" len="24" vol="100" />
          <note key="94" pos="816" pan="0" len="24" vol="100" />
          <note key="96" pos="840" pan="0" len="48" vol="100" />
          <note key="91" pos="888" pan="0" len="24" vol="100" />
          <note key="94" pos="912" pan="0" len="48" vol="100" />
          <note key="96" pos="960" pan="0" len="24" vol="100" />
          <note key="91" pos="984" pan="0" len="24" vol="100" />
          <note key="94" pos="1008" pan="0" len="24" vol="100" />
          <note key="99" pos="1032" pan="0" len="48" vol="100" />
          <note key="91" pos="1080" pan="0" len="24" vol="100" />
          <note key="94" pos="1104" pan="0" len="48" vol="100" />
          <note key="96" pos="1152" pan="0" len="24" vol="100" />
          <note key="91" pos="1176" pan="0" len="24" vol="100" />
          <note key="94" pos="1200" pan="0" len="24" vol="100" />
          <note key="96" pos="1224" pan="0" len="48" vol="100" />
          <note key="91" pos="1272" pan="0" len="24" vol="100" />
          <note key="94" pos="1296" pan="0" len="48" vol="100" />
          <note key="96" pos="1344" pan="0" len="24" vol="100" />
          <note key="91" pos="1368" pan="0" len="24" vol="100" />
          <note key="94" pos="1392" pan="0" len="24" vol="100" />
          <note key="99" pos="1416" pan="0" len="48" vol="100" />
          <note key="91" pos="1464" pan="0" len="24" vol="100" />
          <note key="94" pos="1488" pan="0" len="48" vol="100" />
        </pattern>
        <pattern pos="73728" muted="0" steps="16" name="" type="1">
          <note key="96" pos="0" pan="0" len="24" vol="100" />
          <note key="91" pos="24" pan="0" len="24" vol="100" />
          <note key="94" pos="48" pan="0" len="24" vol="100" />
          <note key="96" pos="72" pan="0" len="48" vol="100" />
          <note key="91" pos="120" pan="0" len="24" vol="100" />
          <note key="94" pos="144" pan="0" len="48" vol="100" />
          <note key="96" pos="192" pan="0" len="24" vol="100" />
          <note key="91" pos="216" pan="0" len="24" vol="100" />
          <note key="94" pos="240" pan="0" len="24" vol="100" />
          <note key="99" pos="264" pan="0" len="48" vol="100" />
          <note key="91" pos="312" pan="0" len="24" vol="100" />
          <note key="94" pos="336" pan="0" len="48" vol="100" />
          <note key="96" pos="384" pan="0" len="24" vol="100" />
          <note key="91" pos="408" pan="0" len="24" vol="100" />
          <note key="94" pos="432" pan="0" len="24" vol="100" />
          <note key="96" pos="456" pan="0" len="48" vol="100" />
          <note key="91" pos="504" pan="0" len="24" vol="100" />
          <note key="94" pos="528" pan="0" len="48" vol="100" />
          <note key="96" pos="576" pan="0" len="24" vol="100" />
          <note key="91" pos="600" pan="0" len="24" vol="100" />
          <note key="94" pos="624" pan="0" len="24" vol="100" />
          <note key="99" pos="648" pan="0" len="48" vol="100" />
          <note key="91" pos="696" pan="0" len="24" vol="100" />
          <note key="94" pos="720" pan="0" len="48" vol="100" />
          <note key="96" pos="768" pan="0" len="24" vol="100" />
          <note key="91" pos="792" pan="0" len="24" vol="100" />
          <note key="94" pos="816" pan="0" len="24" vol="100" />
          <note key="96" pos="840" pan="0" len="48" vol="100" />
          <note key="91" pos="888" pan="0" len="24" vol="100" />
          <note key="94" pos="912" pan="0" len="48" vol="100" />
          <note key="96" pos="960" pan="0" len="24" vol="100" />
          <note key="91" pos="984" pan="0" len="24" vol="100" />
          <note key="94" pos="1008" pan="0" len="24" vol="100" />
          <note key="99" pos="1032" pan="0" len="48" vol="100" />
          <note key="91" pos="1080" pan="0" len="24" vol="100" />
          <note key="94" pos="1104" pan="0" len="48" vol="100" />
          <note key="96" pos="1152" pan="0" len="24" vol="100" />
          <note key="91" pos="1176" pan="0" len="24" vol="100" />
          <note key="94" pos="1200" pan="0" len="24" vol="100" />
          <note key="96" pos="1224" pan="0" len="48" vol="100" />
          <note key="91" pos="1272" pan="0" len="24" vol="100" />
          <note key="94" pos="1296" pan="0" len="48" vol="100" />
          <note key="96" pos="1344" pan="0" len="24" vol="100" />
          <note key="91" pos="1368" pan="0" len="24" vol="100" />
          <note key="94" pos="1392" pan="0" len="24" vol="100" />
          <note key="99" pos="1416" pan="0" len="48" vol="100" />
          <note key="91" pos="1464" pan="0" len="24" vol="100" />
          <note key="94" pos="1488" pan="0" len="48" vol="100" />
        </pattern>
      </track>
      <track solo="0" name="57 (Ch1)" type="0" muted="0">
        <instrumenttrack usemasterpitch="1" pitch="0.0" basenote="57" pan="0" pitchrange="12" vol="30">
          <eldata />
          <instrument name="tripleoscillator" />
        </instrumenttrack>
        <pattern pos="269232" muted="0" steps="16" name="" type="1">
          <note key="45" pos="0" pan="0" len="192" vol="100" />
          <note key="48" pos="192" pan="0" len="576" vol="100" />
        </pattern>
        <pattern pos="236928" muted="0" steps="16" name="" type="1">
          <note key="43" pos="0" pan="0" len="144" vol="100" />
          <note key="48" pos="144" pan="0" len="96" vol="100" />
          <note key="50" pos="240" pan="0" len="48" vol="100" />
          <note key="43" pos="288" pan="0" len="144" vol="100" />
          <note key="46" pos="432" pan="0" len="96" vol="100" />
        </pattern>
        <pattern pos="237696" muted="0" steps="16" name="" type="1">
          <note key="49" pos="0" pan="0" len="24" vol="100" />
          <note key="44" pos="24" pan="0" len="24" vol="100" />
        </pattern>
        <pattern pos="258432" muted="0" steps="16" name="" type="1">
          <note key="46" pos="0" pan="0" len="24" vol="100" />
          <note key="41" pos="24" pan="0" len="24" vol="100" />
        </pattern>
      </track>
      <track solo="0" name="57 (Ch2)" type="0" muted="0">
        <instrumenttrack usemasterpitch="1" pitch="0.0" basenote="57" pan="0" pitchrange="12" vol="30">
          <eldata />
          <instrument name="tripleoscillator" />
        </instrumenttrack>
        <pattern pos="259200" muted="0" steps="16" name="" type="1">
          <note key="41" pos="0" pan="0" len="192" vol="100" />
          <note key="46" pos="192" pan="0" len="96" vol="100" />
          <note key="44" pos="384" pan="0" len="192" vol="100" />
          <note key="46" pos="576" pan="0" len="96" vol="100" />
        </pattern>
        <pattern pos="139008" muted="0" steps="16" name="" type="1">
          <note key="36" pos="48" pan="0" len="192" vol="100" />
          <note key="41" pos="240" pan="0" len="96" vol="100" />
          <note key="39" pos="432" pan="0" len="192" vol="100" />
          <note key="41" pos="624" pan="0" len="96" vol="100" />
        </pattern>
        <pattern pos="185856" muted="0" steps="16" name="" type="1">
          <note key="52" pos="0" pan="0" len="384" vol="59" />
          <note key="49" pos="384" pan="0" len="384" vol="59" />
          <note key="52" pos="768" pan="0" len="384" vol="59" />
          <note key="49" pos="1152" pan="0" len="384" vol="59" />
        </pattern>
        <pattern pos="187392" muted="0" steps="16" name="" type="1">
          <note key="52" pos="0" pan="0" len="384" vol="59" />
          <note key="49" pos="384" pan="0" len="384" vol="59" />
          <note key="52" pos="768" pan="0" len="384" vol="59" />
          <note key="49" pos="1152" pan="0" len="384" vol="59" />
        </pattern>
        <pattern pos="190464" muted="0" steps="16" name="" type="1">
          <note key="52" pos="0" pan="0" len="384" vol="59" />
          <note key="49" pos="384" pan="0" len="288" vol="59" />
          <note key="51" pos="672" pan="0" len="96" vol="59" />
          <note key="52" pos="768" pan="0" len="384" vol="59" />
          <note key="49" pos="1152" pan="0" len="288" vol="59" />
          <note key="51" pos="1440" pan="0" len="96" vol="59" />
        </pattern>
        <pattern pos="192000" muted="0" steps="16" name="" type="1">
          <note key="52" pos="0" pan="0" len="384" vol="59" />
          <note key="49" pos="384" pan="0" len="288" vol="59" />
          <note key="51" pos="672" pan="0" len="96" vol="59" />
          <note key="52" pos="768" pan="0" len="336" vol="59" />
          <note key="51" pos="1104" pan="0" len="48" vol="59" />
          <note key="49" pos="1152" pan="0" len="384" vol="59" />
        </pattern>
        <pattern pos="195072" muted="0" steps="16" name="" type="1">
          <note key="52" pos="0" pan="0" len="384" vol="59" />
          <note key="49" pos="384" pan="0" len="288" vol="59" />
          <note key="51" pos="672" pan="0" len="96" vol="59" />
          <note key="52" pos="768" pan="0" len="384" vol="59" />
          <note key="49" pos="1152" pan="0" len="288" vol="59" />
          <note key="51" pos="1440" pan="0" len="96" vol="59" />
        </pattern>
        <pattern pos="196608" muted="0" steps="16" name="" type="1">
          <note key="52" pos="0" pan="0" len="384" vol="59" />
          <note key="49" pos="384" pan="0" len="288" vol="59" />
          <note key="51" pos="672" pan="0" len="96" vol="59" />
          <note key="52" pos="768" pan="0" len="768" vol="59" />
        </pattern>
        <pattern pos="198144" muted="0" steps="16" name="" type="1">
          <note key="52" pos="48" pan="0" len="12" vol="100" />
          <note key="52" pos="144" pan="0" len="12" vol="100" />
          <note key="52" pos="240" pan="0" len="12" vol="100" />
          <note key="52" pos="360" pan="0" len="12" vol="100" />
          <note key="52" pos="432" pan="0" len="12" vol="100" />
          <note key="52" pos="528" pan="0" len="12" vol="100" />
          <note key="52" pos="624" pan="0" len="12" vol="100" />
          <note key="52" pos="744" pan="0" len="12" vol="100" />
          <note key="52" pos="816" pan="0" len="12" vol="100" />
          <note key="52" pos="912" pan="0" len="12" vol="100" />
          <note key="52" pos="1008" pan="0" len="12" vol="100" />
          <note key="52" pos="1128" pan="0" len="12" vol="100" />
          <note key="52" pos="1200" pan="0" len="12" vol="100" />
          <note key="52" pos="1296" pan="0" len="12" vol="100" />
          <note key="52" pos="1392" pan="0" len="12" vol="100" />
          <note key="52" pos="1512" pan="0" len="12" vol="100" />
        </pattern>
        <pattern pos="199680" muted="0" steps="16" name="" type="1">
          <note key="52" pos="48" pan="0" len="12" vol="100" />
          <note key="52" pos="144" pan="0" len="12" vol="100" />
          <note key="52" pos="240" pan="0" len="12" vol="100" />
          <note key="52" pos="360" pan="0" len="12" vol="100" />
          <note key="52" pos="432" pan="0" len="12" vol="100" />
          <note key="52" pos="528" pan="0" len="12" vol="100" />
          <note key="52" pos="624" pan="0" len="12" vol="100" />
          <note key="52" pos="744" pan="0" len="12" vol="100" />
          <note key="52" pos="816" pan="0" len="12" vol="100" />
          <note key="52" pos="912" pan="0" len="12" vol="100" />
          <note key="52" pos="1008" pan="0" len="12" vol="100" />
          <note key="52" pos="1128" pan="0" len="12" vol="100" />
          <note key="52" pos="1200" pan="0" len="12" vol="100" />
          <note key="52" pos="1296" pan="0" len="12" vol="100" />
          <note key="52" pos="1392" pan="0" len="12" vol="100" />
          <note key="52" pos="1512" pan="0" len="12" vol="100" />
        </pattern>
        <pattern pos="201216" muted="0" steps="16" name="" type="1">
          <note key="52" pos="96" pan="0" len="24" vol="100" />
          <note key="52" pos="288" pan="0" len="24" vol="100" />
          <note key="52" pos="480" pan="0" len="24" vol="100" />
          <note key="52" pos="720" pan="0" len="24" vol="100" />
          <note key="52" pos="864" pan="0" len="24" vol="100" />
          <note key="52" pos="1056" pan="0" len="24" vol="100" />
          <note key="52" pos="1248" pan="0" len="24" vol="100" />
          <note key="52" pos="1488" pan="0" len="24" vol="100" />
        </pattern>
        <pattern pos="202752" muted="0" steps="16" name="" type="1">
          <note key="52" pos="96" pan="0" len="24" vol="100" />
          <note key="52" pos="288" pan="0" len="24" vol="100" />
          <note key="52" pos="480" pan="0" len="24" vol="100" />
          <note key="52" pos="720" pan="0" len="24" vol="100" />
          <note key="52" pos="864" pan="0" len="24" vol="100" />
          <note key="52" pos="1056" pan="0" len="24" vol="100" />
          <note key="52" pos="1248" pan="0" len="24" vol="100" />
          <note key="47" pos="1440" pan="0" len="48" vol="100" />
        </pattern>
        <pattern pos="204288" muted="0" steps="16" name="" type="1">
          <note key="57" pos="96" pan="0" len="24" vol="100" />
          <note key="59" pos="288" pan="0" len="24" vol="100" />
          <note key="48" pos="480" pan="0" len="24" vol="100" />
          <note key="50" pos="720" pan="0" len="24" vol="100" />
          <note key="52" pos="864" pan="0" len="24" vol="100" />
          <note key="52" pos="1056" pan="0" len="24" vol="100" />
          <note key="40" pos="1152" pan="0" len="24" vol="100" />
          <note key="52" pos="1248" pan="0" len="24" vol="100" />
          <note key="48" pos="1392" pan="0" len="24" vol="100" />
          <note key="47" pos="1488" pan="0" len="24" vol="100" />
        </pattern>
        <pattern pos="205824" muted="0" steps="16" name="" type="1">
          <note key="57" pos="96" pan="0" len="24" vol="100" />
          <note key="59" pos="288" pan="0" len="24" vol="100" />
          <note key="48" pos="480" pan="0" len="24" vol="100" />
          <note key="50" pos="720" pan="0" len="24" vol="100" />
          <note key="52" pos="864" pan="0" len="24" vol="100" />
          <note key="52" pos="1056" pan="0" len="24" vol="100" />
          <note key="40" pos="1152" pan="0" len="24" vol="100" />
          <note key="52" pos="1248" pan="0" len="24" vol="100" />
          <note key="40" pos="1392" pan="0" len="24" vol="100" />
          <note key="52" pos="1488" pan="0" len="24" vol="100" />
        </pattern>
        <pattern pos="207360" muted="0" steps="16" name="" type="1">
          <note key="52" pos="96" pan="0" len="24" vol="100" />
          <note key="52" pos="288" pan="0" len="24" vol="100" />
          <note key="52" pos="480" pan="0" len="24" vol="100" />
          <note key="52" pos="720" pan="0" len="24" vol="100" />
          <note key="52" pos="864" pan="0" len="24" vol="100" />
          <note key="52" pos="1056" pan="0" len="24" vol="100" />
          <note key="52" pos="1248" pan="0" len="24" vol="100" />
          <note key="52" pos="1488" pan="0" len="24" vol="100" />
        </pattern>
        <pattern pos="208896" muted="0" steps="16" name="" type="1">
          <note key="52" pos="96" pan="0" len="24" vol="100" />
          <note key="52" pos="288" pan="0" len="24" vol="100" />
          <note key="52" pos="480" pan="0" len="24" vol="100" />
          <note key="52" pos="720" pan="0" len="24" vol="100" />
          <note key="52" pos="864" pan="0" len="24" vol="100" />
          <note key="52" pos="1056" pan="0" len="24" vol="100" />
          <note key="52" pos="1248" pan="0" len="24" vol="100" />
          <note key="47" pos="1440" pan="0" len="48" vol="100" />
        </pattern>
        <pattern pos="210432" muted="0" steps="16" name="" type="1">
          <note key="57" pos="96" pan="0" len="24" vol="100" />
          <note key="59" pos="288" pan="0" len="24" vol="100" />
          <note key="48" pos="480" pan="0" len="24" vol="100" />
          <note key="50" pos="720" pan="0" len="24" vol="100" />
          <note key="52" pos="864" pan="0" len="24" vol="100" />
          <note key="52" pos="1056" pan="0" len="24" vol="100" />
          <note key="40" pos="1152" pan="0" len="24" vol="100" />
          <note key="52" pos="1248" pan="0" len="24" vol="100" />
          <note key="48" pos="1392" pan="0" len="24" vol="100" />
          <note key="47" pos="1488" pan="0" len="24" vol="100" />
        </pattern>
        <pattern pos="211968" muted="0" steps="16" name="" type="1">
          <note key="57" pos="96" pan="0" len="24" vol="100" />
          <note key="59" pos="288" pan="0" len="24" vol="100" />
          <note key="48" pos="480" pan="0" len="24" vol="100" />
          <note key="50" pos="720" pan="0" len="24" vol="100" />
          <note key="52" pos="864" pan="0" len="24" vol="100" />
          <note key="52" pos="1056" pan="0" len="24" vol="100" />
          <note key="40" pos="1152" pan="0" len="24" vol="100" />
          <note key="52" pos="1248" pan="0" len="24" vol="100" />
          <note key="40" pos="1392" pan="0" len="24" vol="100" />
          <note key="52" pos="1488" pan="0" len="24" vol="100" />
        </pattern>
        <pattern pos="213504" muted="0" steps="16" name="" type="1">
          <note key="54" pos="48" pan="0" len="12" vol="100" />
          <note key="54" pos="144" pan="0" len="12" vol="100" />
          <note key="54" pos="240" pan="0" len="12" vol="100" />
          <note key="54" pos="360" pan="0" len="12" vol="100" />
          <note key="54" pos="432" pan="0" len="12" vol="100" />
          <note key="54" pos="528" pan="0" len="12" vol="100" />
          <note key="54" pos="624" pan="0" len="12" vol="100" />
          <note key="54" pos="744" pan="0" len="12" vol="100" />
          <note key="54" pos="816" pan="0" len="12" vol="100" />
          <note key="54" pos="912" pan="0" len="12" vol="100" />
          <note key="54" pos="1008" pan="0" len="12" vol="100" />
          <note key="54" pos="1128" pan="0" len="12" vol="100" />
          <note key="54" pos="1200" pan="0" len="12" vol="100" />
          <note key="54" pos="1296" pan="0" len="12" vol="100" />
          <note key="54" pos="1392" pan="0" len="12" vol="100" />
          <note key="54" pos="1512" pan="0" len="12" vol="100" />
        </pattern>
        <pattern pos="215040" muted="0" steps="16" name="" type="1">
          <note key="54" pos="96" pan="0" len="24" vol="100" />
          <note key="54" pos="288" pan="0" len="24" vol="100" />
          <note key="54" pos="480" pan="0" len="24" vol="100" />
          <note key="54" pos="720" pan="0" len="24" vol="100" />
          <note key="54" pos="864" pan="0" len="24" vol="100" />
          <note key="54" pos="1056" pan="0" len="24" vol="100" />
          <note key="54" pos="1248" pan="0" len="24" vol="100" />
          <note key="54" pos="1488" pan="0" len="24" vol="100" />
        </pattern>
      </track>
      <track solo="0" name="57 (Ch3)" type="0" muted="0">
        <instrumenttrack usemasterpitch="1" pitch="0.0" basenote="57" pan="0" pitchrange="12" vol="30">
          <eldata />
          <instrument name="tripleoscillator" />
        </instrumenttrack>
        <pattern pos="256896" muted="0" steps="16" name="" type="1">
          <note key="36" pos="0" pan="0" len="12" vol="100" />
          <note key="48" pos="48" pan="0" len="12" vol="100" />
          <note key="48" pos="96" pan="0" len="24" vol="100" />
          <note key="58" pos="120" pan="0" len="24" vol="100" />
          <note key="60" pos="144" pan="0" len="24" vol="100" />
          <note key="48" pos="168" pan="0" len="12" vol="100" />
          <note key="36" pos="240" pan="0" len="12" vol="100" />
          <note key="48" pos="288" pan="0" len="12" vol="100" />
          <note key="60" pos="336" pan="0" len="12" vol="100" />
          <note key="36" pos="384" pan="0" len="12" vol="100" />
          <note key="48" pos="432" pan="0" len="12" vol="100" />
          <note key="48" pos="480" pan="0" len="24" vol="100" />
          <note key="58" pos="504" pan="0" len="24" vol="100" />
          <note key="60" pos="528" pan="0" len="24" vol="100" />
          <note key="48" pos="552" pan="0" len="12" vol="100" />
          <note key="36" pos="624" pan="0" len="12" vol="100" />
          <note key="48" pos="672" pan="0" len="12" vol="100" />
          <note key="60" pos="720" pan="0" len="12" vol="100" />
          <note key="36" pos="768" pan="0" len="12" vol="100" />
          <note key="48" pos="816" pan="0" len="12" vol="100" />
          <note key="48" pos="864" pan="0" len="24" vol="100" />
          <note key="58" pos="888" pan="0" len="24" vol="100" />
          <note key="60" pos="912" pan="0" len="24" vol="100" />
          <note key="48" pos="936" pan="0" len="12" vol="100" />
          <note key="36" pos="1008" pan="0" len="12" vol="100" />
          <note key="48" pos="1056" pan="0" len="12" vol="100" />
          <note key="60" pos="1104" pan="0" len="12" vol="100" />
          <note key="36" pos="1152" pan="0" len="12" vol="100" />
          <note key="48" pos="1200" pan="0" len="12" vol="100" />
          <note key="48" pos="1248" pan="0" len="24" vol="100" />
          <note key="58" pos="1272" pan="0" len="24" vol="100" />
          <note key="60" pos="1296" pan="0" len="24" vol="100" />
          <note key="48" pos="1320" pan="0" len="12" vol="100" />
          <note key="36" pos="1392" pan="0" len="12" vol="100" />
          <note key="48" pos="1440" pan="0" len="12" vol="100" />
          <note key="60" pos="1488" pan="0" len="12" vol="100" />
        </pattern>
        <pattern pos="53760" muted="0" steps="16" name="" type="1">
          <note key="48" pos="0" pan="0" len="384" vol="100" />
          <note key="48" pos="384" pan="0" len="384" vol="100" />
          <note key="48" pos="768" pan="0" len="384" vol="100" />
          <note key="48" pos="1152" pan="0" len="384" vol="100" />
        </pattern>
        <pattern pos="55296" muted="0" steps="16" name="" type="1">
          <note key="48" pos="0" pan="0" len="384" vol="100" />
          <note key="48" pos="384" pan="0" len="384" vol="100" />
          <note key="48" pos="768" pan="0" len="384" vol="100" />
          <note key="48" pos="1152" pan="0" len="384" vol="100" />
        </pattern>
        <pattern pos="56832" muted="0" steps="16" name="" type="1">
          <note key="48" pos="0" pan="0" len="384" vol="100" />
          <note key="48" pos="384" pan="0" len="384" vol="100" />
          <note key="51" pos="768" pan="0" len="384" vol="100" />
          <note key="53" pos="1152" pan="0" len="384" vol="100" />
        </pattern>
        <pattern pos="58368" muted="0" steps="16" name="" type="1">
          <note key="48" pos="0" pan="0" len="384" vol="100" />
          <note key="48" pos="384" pan="0" len="384" vol="100" />
          <note key="39" pos="768" pan="0" len="384" vol="100" />
          <note key="41" pos="1152" pan="0" len="240" vol="100" />
        </pattern>
        <pattern pos="59904" muted="0" steps="16" name="" type="1">
          <note key="48" pos="0" pan="0" len="192" vol="100" />
          <note key="48" pos="384" pan="0" len="192" vol="100" />
          <note key="51" pos="768" pan="0" len="192" vol="100" />
          <note key="53" pos="1152" pan="0" len="192" vol="100" />
        </pattern>
        <pattern pos="61440" muted="0" steps="16" name="" type="1">
          <note key="48" pos="0" pan="0" len="192" vol="100" />
          <note key="48" pos="384" pan="0" len="192" vol="100" />
          <note key="51" pos="768" pan="0" len="192" vol="100" />
          <note key="53" pos="1152" pan="0" len="192" vol="100" />
        </pattern>
        <pattern pos="62976" muted="0" steps="16" name="" type="1">
          <note key="48" pos="0" pan="0" len="192" vol="100" />
          <note key="48" pos="384" pan="0" len="192" vol="100" />
          <note key="51" pos="768" pan="0" len="192" vol="100" />
          <note key="53" pos="1152" pan="0" len="192" vol="100" />
        </pattern>
        <pattern pos="64512" muted="0" steps="16" name="" type="1">
          <note key="48" pos="0" pan="0" len="192" vol="100" />
          <note key="48" pos="384" pan="0" len="192" vol="100" />
          <note key="48" pos="768" pan="0" len="192" vol="100" />
          <note key="48" pos="1152" pan="0" len="192" vol="100" />
        </pattern>
        <pattern pos="66048" muted="0" steps="16" name="" type="1">
          <note key="48" pos="0" pan="0" len="192" vol="100" />
          <note key="48" pos="384" pan="0" len="192" vol="100" />
          <note key="48" pos="768" pan="0" len="192" vol="100" />
          <note key="48" pos="1152" pan="0" len="192" vol="100" />
        </pattern>
        <pattern pos="67584" muted="0" steps="16" name="" type="1">
          <note key="48" pos="0" pan="0" len="192" vol="100" />
          <note key="48" pos="384" pan="0" len="192" vol="100" />
          <note key="51" pos="768" pan="0" len="192" vol="100" />
          <note key="53" pos="1152" pan="0" len="192" vol="100" />
        </pattern>
        <pattern pos="69120" muted="0" steps="16" name="" type="1">
          <note key="48" pos="0" pan="0" len="192" vol="100" />
          <note key="48" pos="384" pan="0" len="192" vol="100" />
          <note key="51" pos="768" pan="0" len="192" vol="100" />
          <note key="53" pos="1152" pan="0" len="192" vol="100" />
        </pattern>
        <pattern pos="70656" muted="0" steps="16" name="" type="1">
          <note key="48" pos="0" pan="0" len="192" vol="100" />
          <note key="48" pos="384" pan="0" len="192" vol="100" />
          <note key="51" pos="768" pan="0" len="192" vol="100" />
          <note key="53" pos="1152" pan="0" len="192" vol="100" />
        </pattern>
        <pattern pos="72192" muted="0" steps="16" name="" type="1">
          <note key="48" pos="0" pan="0" len="192" vol="100" />
          <note key="48" pos="384" pan="0" len="192" vol="100" />
          <note key="51" pos="768" pan="0" len="192" vol="100" />
          <note key="53" pos="1152" pan="0" len="192" vol="100" />
        </pattern>
        <pattern pos="73728" muted="0" steps="16" name="" type="1">
          <note key="48" pos="0" pan="0" len="192" vol="100" />
          <note key="48" pos="384" pan="0" len="192" vol="100" />
          <note key="48" pos="768" pan="0" len="192" vol="100" />
          <note key="48" pos="1152" pan="0" len="192" vol="100" />
        </pattern>
        <pattern pos="75264" muted="0" steps="16" name="" type="1">
          <note key="48" pos="0" pan="0" len="192" vol="100" />
          <note key="48" pos="384" pan="0" len="192" vol="100" />
          <note key="48" pos="768" pan="0" len="192" vol="100" />
          <note key="48" pos="1152" pan="0" len="384" vol="100" />
        </pattern>
        <pattern pos="238464" muted="0" steps="16" name="" type="1">
          <note key="36" pos="0" pan="0" len="12" vol="100" />
          <note key="48" pos="48" pan="0" len="12" vol="100" />
          <note key="36" pos="768" pan="0" len="12" vol="100" />
          <note key="48" pos="816" pan="0" len="12" vol="100" />
        </pattern>
        <pattern pos="240000" muted="0" steps="16" name="" type="1">
          <note key="36" pos="0" pan="0" len="12" vol="100" />
          <note key="48" pos="48" pan="0" len="12" vol="100" />
          <note key="36" pos="768" pan="0" len="12" vol="100" />
          <note key="48" pos="816" pan="0" len="12" vol="100" />
        </pattern>
        <pattern pos="241536" muted="0" steps="16" name="" type="1">
          <note key="36" pos="0" pan="0" len="12" vol="100" />
          <note key="48" pos="48" pan="0" len="12" vol="100" />
          <note key="36" pos="768" pan="0" len="12" vol="100" />
          <note key="48" pos="816" pan="0" len="12" vol="100" />
        </pattern>
        <pattern pos="243072" muted="0" steps="16" name="" type="1">
          <note key="36" pos="0" pan="0" len="12" vol="100" />
          <note key="48" pos="48" pan="0" len="12" vol="100" />
          <note key="36" pos="768" pan="0" len="12" vol="100" />
          <note key="48" pos="816" pan="0" len="12" vol="100" />
        </pattern>
        <pattern pos="244608" muted="0" steps="16" name="" type="1">
          <note key="36" pos="0" pan="0" len="12" vol="100" />
          <note key="48" pos="48" pan="0" len="12" vol="100" />
          <note key="48" pos="96" pan="0" len="24" vol="100" />
          <note key="58" pos="120" pan="0" len="24" vol="100" />
          <note key="60" pos="144" pan="0" len="24" vol="100" />
          <note key="48" pos="168" pan="0" len="12" vol="100" />
          <note key="36" pos="240" pan="0" len="12" vol="100" />
          <note key="48" pos="288" pan="0" len="12" vol="100" />
          <note key="60" pos="336" pan="0" len="12" vol="100" />
          <note key="36" pos="384" pan="0" len="12" vol="100" />
          <note key="48" pos="432" pan="0" len="12" vol="100" />
          <note key="48" pos="480" pan="0" len="24" vol="100" />
          <note key="58" pos="504" pan="0" len="24" vol="100" />
          <note key="60" pos="528" pan="0" len="24" vol="100" />
          <note key="48" pos="552" pan="0" len="12" vol="100" />
          <note key="36" pos="624" pan="0" len="12" vol="100" />
          <note key="48" pos="672" pan="0" len="12" vol="100" />
          <note key="60" pos="720" pan="0" len="12" vol="100" />
          <note key="36" pos="768" pan="0" len="12" vol="100" />
          <note key="48" pos="816" pan="0" len="12" vol="100" />
          <note key="48" pos="864" pan="0" len="24" vol="100" />
          <note key="58" pos="888" pan="0" len="24" vol="100" />
          <note key="60" pos="912" pan="0" len="24" vol="100" />
          <note key="48" pos="936" pan="0" len="12" vol="100" />
          <note key="36" pos="1008" pan="0" len="12" vol="100" />
          <note key="48" pos="1056" pan="0" len="12" vol="100" />
          <note key="60" pos="1104" pan="0" len="12" vol="100" />
          <note key="36" pos="1152" pan="0" len="12" vol="100" />
          <note key="48" pos="1200" pan="0" len="12" vol="100" />
          <note key="48" pos="1248" pan="0" len="24" vol="100" />
          <note key="58" pos="1272" pan="0" len="24" vol="100" />
          <note key="60" pos="1296" pan="0" len="24" vol="100" />
          <note key="48" pos="1320" pan="0" len="12" vol="100" />
          <note key="36" pos="1392" pan="0" len="12" vol="100" />
          <note key="48" pos="1440" pan="0" len="12" vol="100" />
          <note key="60" pos="1488" pan="0" len="12" vol="100" />
        </pattern>
        <pattern pos="246144" muted="0" steps="16" name="" type="1">
          <note key="36" pos="0" pan="0" len="12" vol="100" />
          <note key="48" pos="48" pan="0" len="12" vol="100" />
          <note key="48" pos="96" pan="0" len="24" vol="100" />
          <note key="58" pos="120" pan="0" len="24" vol="100" />
          <note key="60" pos="144" pan="0" len="24" vol="100" />
          <note key="48" pos="168" pan="0" len="12" vol="100" />
          <note key="36" pos="240" pan="0" len="12" vol="100" />
          <note key="48" pos="288" pan="0" len="12" vol="100" />
          <note key="60" pos="336" pan="0" len="12" vol="100" />
          <note key="36" pos="384" pan="0" len="12" vol="100" />
          <note key="48" pos="432" pan="0" len="12" vol="100" />
          <note key="48" pos="480" pan="0" len="24" vol="100" />
          <note key="58" pos="504" pan="0" len="24" vol="100" />
          <note key="60" pos="528" pan="0" len="24" vol="100" />
          <note key="48" pos="552" pan="0" len="12" vol="100" />
          <note key="36" pos="624" pan="0" len="12" vol="100" />
          <note key="48" pos="672" pan="0" len="12" vol="100" />
          <note key="60" pos="720" pan="0" len="12" vol="100" />
          <note key="36" pos="768" pan="0" len="12" vol="100" />
          <note key="48" pos="816" pan="0" len="12" vol="100" />
          <note key="48" pos="864" pan="0" len="24" vol="100" />
          <note key="58" pos="888" pan="0" len="24" vol="100" />
          <note key="60" pos="912" pan="0" len="24" vol="100" />
          <note key="48" pos="936" pan="0" len="12" vol="100" />
          <note key="36" pos="1008" pan="0" len="12" vol="100" />
          <note key="48" pos="1056" pan="0" len="12" vol="100" />
          <note key="60" pos="1104" pan="0" len="12" vol="100" />
          <note key="36" pos="1152" pan="0" len="12" vol="100" />
          <note key="48" pos="1200" pan="0" len="12" vol="100" />
          <note key="48" pos="1248" pan="0" len="24" vol="100" />
          <note key="58" pos="1272" pan="0" len="24" vol="100" />
          <note key="60" pos="1296" pan="0" len="24" vol="100" />
          <note key="48" pos="1320" pan="0" len="12" vol="100" />
          <note key="36" pos="1392" pan="0" len="12" vol="100" />
          <note key="48" pos="1440" pan="0" len="12" vol="100" />
          <note key="60" pos="1488" pan="0" len="12" vol="100" />
        </pattern>
        <pattern pos="247680" muted="0" steps="16" name="" type="1">
          <note key="36" pos="0" pan="0" len="12" vol="100" />
          <note key="48" pos="48" pan="0" len="12" vol="100" />
          <note key="36" pos="768" pan="0" len="12" vol="100" />
          <note key="48" pos="816" pan="0" len="12" vol="100" />
        </pattern>
        <pattern pos="249216" muted="0" steps="16" name="" type="1">
          <note key="36" pos="0" pan="0" len="12" vol="100" />
          <note key="48" pos="48" pan="0" len="12" vol="100" />
          <note key="48" pos="96" pan="0" len="24" vol="100" />
          <note key="58" pos="120" pan="0" len="24" vol="100" />
          <note key="60" pos="144" pan="0" len="24" vol="100" />
          <note key="48" pos="168" pan="0" len="12" vol="100" />
          <note key="36" pos="240" pan="0" len="12" vol="100" />
          <note key="48" pos="288" pan="0" len="12" vol="100" />
          <note key="60" pos="336" pan="0" len="12" vol="100" />
          <note key="36" pos="384" pan="0" len="12" vol="100" />
          <note key="48" pos="432" pan="0" len="12" vol="100" />
          <note key="48" pos="480" pan="0" len="24" vol="100" />
          <note key="58" pos="504" pan="0" len="24" vol="100" />
          <note key="60" pos="528" pan="0" len="24" vol="100" />
          <note key="48" pos="552" pan="0" len="12" vol="100" />
          <note key="36" pos="624" pan="0" len="12" vol="100" />
          <note key="48" pos="672" pan="0" len="12" vol="100" />
          <note key="60" pos="720" pan="0" len="12" vol="100" />
          <note key="36" pos="768" pan="0" len="12" vol="100" />
          <note key="48" pos="816" pan="0" len="12" vol="100" />
          <note key="48" pos="864" pan="0" len="24" vol="100" />
          <note key="58" pos="888" pan="0" len="24" vol="100" />
          <note key="60" pos="912" pan="0" len="24" vol="100" />
          <note key="48" pos="936" pan="0" len="12" vol="100" />
          <note key="36" pos="1008" pan="0" len="12" vol="100" />
          <note key="48" pos="1056" pan="0" len="12" vol="100" />
          <note key="60" pos="1104" pan="0" len="12" vol="100" />
          <note key="36" pos="1152" pan="0" len="12" vol="100" />
          <note key="48" pos="1200" pan="0" len="12" vol="100" />
          <note key="48" pos="1248" pan="0" len="24" vol="100" />
          <note key="58" pos="1272" pan="0" len="24" vol="100" />
          <note key="60" pos="1296" pan="0" len="24" vol="100" />
          <note key="48" pos="1320" pan="0" len="12" vol="100" />
          <note key="36" pos="1392" pan="0" len="12" vol="100" />
          <note key="48" pos="1440" pan="0" len="12" vol="100" />
          <note key="60" pos="1488" pan="0" len="12" vol="100" />
        </pattern>
        <pattern pos="250752" muted="0" steps="16" name="" type="1">
          <note key="36" pos="0" pan="0" len="12" vol="100" />
          <note key="48" pos="48" pan="0" len="12" vol="100" />
          <note key="48" pos="96" pan="0" len="24" vol="100" />
          <note key="58" pos="120" pan="0" len="24" vol="100" />
          <note key="60" pos="144" pan="0" len="24" vol="100" />
          <note key="48" pos="168" pan="0" len="12" vol="100" />
          <note key="36" pos="240" pan="0" len="12" vol="100" />
          <note key="48" pos="288" pan="0" len="12" vol="100" />
          <note key="60" pos="336" pan="0" len="12" vol="100" />
          <note key="36" pos="384" pan="0" len="12" vol="100" />
          <note key="48" pos="432" pan="0" len="12" vol="100" />
          <note key="48" pos="480" pan="0" len="24" vol="100" />
          <note key="58" pos="504" pan="0" len="24" vol="100" />
          <note key="60" pos="528" pan="0" len="24" vol="100" />
          <note key="48" pos="552" pan="0" len="12" vol="100" />
          <note key="36" pos="624" pan="0" len="12" vol="100" />
          <note key="48" pos="672" pan="0" len="12" vol="100" />
          <note key="60" pos="720" pan="0" len="12" vol="100" />
          <note key="36" pos="768" pan="0" len="12" vol="100" />
          <note key="48" pos="816" pan="0" len="12" vol="100" />
          <note key="48" pos="864" pan="0" len="24" vol="100" />
          <note key="58" pos="888" pan="0" len="24" vol="100" />
          <note key="60" pos="912" pan="0" len="24" vol="100" />
          <note key="48" pos="936" pan="0" len="12" vol="100" />
          <note key="36" pos="1008" pan="0" len="12" vol="100" />
          <note key="48" pos="1056" pan="0" len="12" vol="100" />
          <note key="60" pos="1104" pan="0" len="12" vol="100" />
          <note key="36" pos="1152" pan="0" len="12" vol="100" />
          <note key="48" pos="1200" pan="0" len="12" vol="100" />
          <note key="48" pos="1248" pan="0" len="24" vol="100" />
          <note key="58" pos="1272" pan="0" len="24" vol="100" />
          <note key="60" pos="1296" pan="0" len="24" vol="100" />
          <note key="48" pos="1320" pan="0" len="12" vol="100" />
          <note key="36" pos="1392" pan="0" len="12" vol="100" />
          <note key="48" pos="1440" pan="0" len="12" vol="100" />
          <note key="60" pos="1488" pan="0" len="12" vol="100" />
        </pattern>
        <pattern pos="252288" muted="0" steps="16" name="" type="1">
          <note key="36" pos="0" pan="0" len="12" vol="100" />
          <note key="48" pos="48" pan="0" len="12" vol="100" />
          <note key="48" pos="96" pan="0" len="24" vol="100" />
          <note key="58" pos="120" pan="0" len="24" vol="100" />
          <note key="60" pos="144" pan="0" len="24" vol="100" />
          <note key="48" pos="168" pan="0" len="12" vol="100" />
          <note key="36" pos="240" pan="0" len="12" vol="100" />
          <note key="48" pos="288" pan="0" len="12" vol="100" />
          <note key="60" pos="336" pan="0" len="12" vol="100" />
          <note key="36" pos="384" pan="0" len="12" vol="100" />
          <note key="48" pos="432" pan="0" len="12" vol="100" />
          <note key="48" pos="480" pan="0" len="24" vol="100" />
          <note key="58" pos="504" pan="0" len="24" vol="100" />
          <note key="60" pos="528" pan="0" len="24" vol="100" />
          <note key="48" pos="552" pan="0" len="12" vol="100" />
          <note key="36" pos="624" pan="0" len="12" vol="100" />
          <note key="48" pos="672" pan="0" len="12" vol="100" />
          <note key="60" pos="720" pan="0" len="12" vol="100" />
          <note key="36" pos="768" pan="0" len="12" vol="100" />
          <note key="48" pos="816" pan="0" len="12" vol="100" />
          <note key="48" pos="864" pan="0" len="24" vol="100" />
          <note key="58" pos="888" pan="0" len="24" vol="100" />
          <note key="60" pos="912" pan="0" len="24" vol="100" />
          <note key="48" pos="936" pan="0" len="12" vol="100" />
          <note key="36" pos="1008" pan="0" len="12" vol="100" />
          <note key="48" pos="1056" pan="0" len="12" vol="100" />
          <note key="60" pos="1104" pan="0" len="12" vol="100" />
          <note key="36" pos="1152" pan="0" len="12" vol="100" />
          <note key="48" pos="1200" pan="0" len="12" vol="100" />
          <note key="48" pos="1248" pan="0" len="24" vol="100" />
          <note key="58" pos="1272" pan="0" len="24" vol="100" />
          <note key="60" pos="1296" pan="0" len="24" vol="100" />
          <note key="48" pos="1320" pan="0" len="12" vol="100" />
          <note key="36" pos="1392" pan="0" len="12" vol="100" />
          <note key="48" pos="1440" pan="0" len="12" vol="100" />
          <note key="60" pos="1488" pan="0" len="12" vol="100" />
        </pattern>
        <pattern pos="253824" muted="0" steps="16" name="" type="1">
          <note key="36" pos="0" pan="0" len="12" vol="100" />
          <note key="48" pos="48" pan="0" len="12" vol="100" />
          <note key="48" pos="96" pan="0" len="24" vol="100" />
          <note key="58" pos="120" pan="0" len="24" vol="100" />
          <note key="60" pos="144" pan="0" len="24" vol="100" />
          <note key="48" pos="168" pan="0" len="12" vol="100" />
          <note key="36" pos="240" pan="0" len="12" vol="100" />
          <note key="48" pos="288" pan="0" len="12" vol="100" />
          <note key="60" pos="336" pan="0" len="12" vol="100" />
          <note key="36" pos="384" pan="0" len="12" vol="100" />
          <note key="48" pos="432" pan="0" len="12" vol="100" />
          <note key="48" pos="480" pan="0" len="24" vol="100" />
          <note key="58" pos="504" pan="0" len="24" vol="100" />
          <note key="60" pos="528" pan="0" len="24" vol="100" />
          <note key="48" pos="552" pan="0" len="12" vol="100" />
          <note key="36" pos="624" pan="0" len="12" vol="100" />
          <note key="48" pos="672" pan="0" len="12" vol="100" />
          <note key="60" pos="720" pan="0" len="12" vol="100" />
          <note key="36" pos="768" pan="0" len="12" vol="100" />
          <note key="48" pos="816" pan="0" len="12" vol="100" />
          <note key="48" pos="864" pan="0" len="24" vol="100" />
          <note key="58" pos="888" pan="0" len="24" vol="100" />
          <note key="60" pos="912" pan="0" len="24" vol="100" />
          <note key="48" pos="936" pan="0" len="12" vol="100" />
          <note key="36" pos="1008" pan="0" len="12" vol="100" />
          <note key="48" pos="1056" pan="0" len="12" vol="100" />
          <note key="60" pos="1104" pan="0" len="12" vol="100" />
          <note key="36" pos="1152" pan="0" len="12" vol="100" />
          <note key="48" pos="1200" pan="0" len="12" vol="100" />
          <note key="48" pos="1248" pan="0" len="24" vol="100" />
          <note key="58" pos="1272" pan="0" len="24" vol="100" />
          <note key="60" pos="1296" pan="0" len="24" vol="100" />
          <note key="48" pos="1320" pan="0" len="12" vol="100" />
          <note key="36" pos="1392" pan="0" len="12" vol="100" />
          <note key="48" pos="1440" pan="0" len="12" vol="100" />
          <note key="60" pos="1488" pan="0" len="12" vol="100" />
        </pattern>
        <pattern pos="255360" muted="0" steps="16" name="" type="1">
          <note key="36" pos="0" pan="0" len="12" vol="100" />
          <note key="48" pos="48" pan="0" len="12" vol="100" />
          <note key="48" pos="96" pan="0" len="24" vol="100" />
          <note key="58" pos="120" pan="0" len="24" vol="100" />
          <note key="60" pos="144" pan="0" len="24" vol="100" />
          <note key="48" pos="168" pan="0" len="12" vol="100" />
          <note key="36" pos="240" pan="0" len="12" vol="100" />
          <note key="48" pos="288" pan="0" len="12" vol="100" />
          <note key="60" pos="336" pan="0" len="12" vol="100" />
          <note key="36" pos="384" pan="0" len="12" vol="100" />
          <note key="48" pos="432" pan="0" len="12" vol="100" />
          <note key="48" pos="480" pan="0" len="24" vol="100" />
          <note key="58" pos="504" pan="0" len="24" vol="100" />
          <note key="60" pos="528" pan="0" len="24" vol="100" />
          <note key="48" pos="552" pan="0" len="12" vol="100" />
          <note key="36" pos="624" pan="0" len="12" vol="100" />
          <note key="48" pos="672" pan="0" len="12" vol="100" />
          <note key="60" pos="720" pan="0" len="12" vol="100" />
          <note key="36" pos="768" pan="0" len="12" vol="100" />
          <note key="48" pos="816" pan="0" len="12" vol="100" />
          <note key="48" pos="864" pan="0" len="24" vol="100" />
          <note key="58" pos="888" pan="0" len="24" vol="100" />
          <note key="60" pos="912" pan="0" len="24" vol="100" />
          <note key="48" pos="936" pan="0" len="12" vol="100" />
          <note key="36" pos="1008" pan="0" len="12" vol="100" />
          <note key="48" pos="1056" pan="0" len="12" vol="100" />
          <note key="60" pos="1104" pan="0" len="12" vol="100" />
          <note key="36" pos="1152" pan="0" len="12" vol="100" />
          <note key="48" pos="1200" pan="0" len="12" vol="100" />
          <note key="48" pos="1248" pan="0" len="24" vol="100" />
          <note key="58" pos="1272" pan="0" len="24" vol="100" />
          <note key="60" pos="1296" pan="0" len="24" vol="100" />
          <note key="48" pos="1320" pan="0" len="12" vol="100" />
          <note key="36" pos="1392" pan="0" len="12" vol="100" />
          <note key="48" pos="1440" pan="0" len="12" vol="100" />
          <note key="60" pos="1488" pan="0" len="12" vol="100" />
        </pattern>
      </track>
      <track solo="0" name="57 (Ch4)" type="0" muted="0">
        <instrumenttrack usemasterpitch="1" pitch="0.0" basenote="57" pan="0" pitchrange="12" vol="30">
          <eldata />
          <instrument name="tripleoscillator" />
        </instrumenttrack>
        <pattern pos="256896" muted="0" steps="16" name="" type="1">
          <note key="48" pos="0" pan="0" len="12" vol="100" />
          <note key="36" pos="48" pan="0" len="12" vol="100" />
          <note key="48" pos="240" pan="0" len="12" vol="100" />
          <note key="36" pos="288" pan="0" len="12" vol="100" />
          <note key="48" pos="336" pan="0" len="12" vol="100" />
          <note key="48" pos="384" pan="0" len="12" vol="100" />
          <note key="36" pos="432" pan="0" len="12" vol="100" />
          <note key="48" pos="624" pan="0" len="12" vol="100" />
          <note key="36" pos="672" pan="0" len="12" vol="100" />
          <note key="48" pos="720" pan="0" len="12" vol="100" />
          <note key="48" pos="768" pan="0" len="12" vol="100" />
          <note key="36" pos="816" pan="0" len="12" vol="100" />
          <note key="48" pos="1008" pan="0" len="12" vol="100" />
          <note key="36" pos="1056" pan="0" len="12" vol="100" />
          <note key="48" pos="1104" pan="0" len="12" vol="100" />
          <note key="48" pos="1152" pan="0" len="12" vol="100" />
          <note key="36" pos="1200" pan="0" len="12" vol="100" />
          <note key="48" pos="1392" pan="0" len="12" vol="100" />
          <note key="36" pos="1440" pan="0" len="12" vol="100" />
          <note key="48" pos="1488" pan="0" len="12" vol="100" />
        </pattern>
        <pattern pos="41088" muted="0" steps="16" name="" type="1">
          <note key="36" pos="0" pan="0" len="288" vol="100" />
          <note key="39" pos="288" pan="0" len="288" vol="100" />
          <note key="41" pos="576" pan="0" len="288" vol="100" />
          <note key="39" pos="864" pan="0" len="288" vol="100" />
        </pattern>
        <pattern pos="42240" muted="0" steps="16" name="" type="1">
          <note key="36" pos="0" pan="0" len="288" vol="100" />
          <note key="39" pos="288" pan="0" len="288" vol="100" />
          <note key="41" pos="576" pan="0" len="288" vol="100" />
          <note key="39" pos="864" pan="0" len="288" vol="100" />
        </pattern>
        <pattern pos="43392" muted="0" steps="16" name="" type="1">
          <note key="36" pos="0" pan="0" len="288" vol="100" />
          <note key="39" pos="288" pan="0" len="288" vol="100" />
          <note key="41" pos="576" pan="0" len="288" vol="100" />
          <note key="39" pos="864" pan="0" len="288" vol="100" />
        </pattern>
        <pattern pos="48000" muted="0" steps="16" name="" type="1">
          <note key="36" pos="0" pan="0" len="288" vol="100" />
          <note key="39" pos="288" pan="0" len="288" vol="100" />
          <note key="41" pos="576" pan="0" len="288" vol="100" />
          <note key="39" pos="864" pan="0" len="288" vol="100" />
        </pattern>
        <pattern pos="49152" muted="0" steps="16" name="" type="1">
          <note key="36" pos="0" pan="0" len="288" vol="100" />
          <note key="39" pos="288" pan="0" len="288" vol="100" />
          <note key="41" pos="576" pan="0" len="288" vol="100" />
          <note key="39" pos="864" pan="0" len="288" vol="100" />
        </pattern>
        <pattern pos="58368" muted="0" steps="16" name="" type="1">
          <note key="51" pos="768" pan="0" len="192" vol="100" />
          <note key="53" pos="1152" pan="0" len="192" vol="100" />
        </pattern>
        <pattern pos="135168" muted="0" steps="16" name="" type="1">
          <note key="46" pos="768" pan="0" len="384" vol="100" />
          <note key="41" pos="1152" pan="0" len="384" vol="100" />
        </pattern>
        <pattern pos="136704" muted="0" steps="16" name="" type="1">
          <note key="48" pos="0" pan="0" len="384" vol="100" />
          <note key="41" pos="384" pan="0" len="384" vol="50" />
        </pattern>
        <pattern pos="142848" muted="0" steps="16" name="" type="1">
          <note key="60" pos="312" pan="0" len="24" vol="100" />
          <note key="65" pos="336" pan="0" len="24" vol="100" />
          <note key="67" pos="360" pan="0" len="12" vol="100" />
          <note key="63" pos="696" pan="0" len="24" vol="100" />
          <note key="62" pos="720" pan="0" len="24" vol="100" />
          <note key="58" pos="744" pan="0" len="12" vol="100" />
          <note key="60" pos="1080" pan="0" len="24" vol="100" />
          <note key="65" pos="1104" pan="0" len="24" vol="100" />
          <note key="67" pos="1128" pan="0" len="12" vol="100" />
          <note key="63" pos="1464" pan="0" len="24" vol="100" />
          <note key="62" pos="1488" pan="0" len="24" vol="100" />
          <note key="58" pos="1512" pan="0" len="12" vol="100" />
        </pattern>
        <pattern pos="144384" muted="0" steps="16" name="" type="1">
          <note key="60" pos="312" pan="0" len="24" vol="100" />
          <note key="65" pos="336" pan="0" len="24" vol="100" />
          <note key="67" pos="360" pan="0" len="12" vol="100" />
          <note key="63" pos="696" pan="0" len="24" vol="100" />
          <note key="62" pos="720" pan="0" len="24" vol="100" />
          <note key="58" pos="744" pan="0" len="12" vol="100" />
          <note key="60" pos="1080" pan="0" len="24" vol="100" />
          <note key="65" pos="1104" pan="0" len="24" vol="100" />
          <note key="67" pos="1128" pan="0" len="12" vol="100" />
          <note key="63" pos="1464" pan="0" len="24" vol="100" />
          <note key="62" pos="1488" pan="0" len="24" vol="100" />
          <note key="58" pos="1512" pan="0" len="12" vol="100" />
        </pattern>
        <pattern pos="148992" muted="0" steps="16" name="" type="1">
          <note key="60" pos="312" pan="0" len="24" vol="100" />
          <note key="65" pos="336" pan="0" len="24" vol="100" />
          <note key="67" pos="360" pan="0" len="12" vol="100" />
          <note key="63" pos="696" pan="0" len="24" vol="100" />
          <note key="62" pos="720" pan="0" len="24" vol="100" />
          <note key="58" pos="744" pan="0" len="12" vol="100" />
          <note key="60" pos="1080" pan="0" len="24" vol="100" />
          <note key="65" pos="1104" pan="0" len="24" vol="100" />
          <note key="67" pos="1128" pan="0" len="12" vol="100" />
          <note key="63" pos="1464" pan="0" len="24" vol="100" />
          <note key="62" pos="1488" pan="0" len="24" vol="100" />
          <note key="58" pos="1512" pan="0" len="12" vol="100" />
        </pattern>
        <pattern pos="150528" muted="0" steps="16" name="" type="1">
          <note key="60" pos="312" pan="0" len="24" vol="100" />
          <note key="65" pos="336" pan="0" len="24" vol="100" />
          <note key="67" pos="360" pan="0" len="12" vol="100" />
          <note key="63" pos="696" pan="0" len="24" vol="100" />
          <note key="62" pos="720" pan="0" len="24" vol="100" />
          <note key="58" pos="744" pan="0" len="12" vol="100" />
          <note key="60" pos="1080" pan="0" len="24" vol="100" />
          <note key="65" pos="1104" pan="0" len="24" vol="100" />
          <note key="67" pos="1128" pan="0" len="12" vol="100" />
          <note key="63" pos="1464" pan="0" len="24" vol="100" />
          <note key="62" pos="1488" pan="0" len="24" vol="100" />
          <note key="58" pos="1512" pan="0" len="12" vol="100" />
        </pattern>
        <pattern pos="152064" muted="0" steps="16" name="" type="1">
          <note key="60" pos="312" pan="0" len="24" vol="100" />
          <note key="65" pos="336" pan="0" len="24" vol="100" />
          <note key="67" pos="360" pan="0" len="12" vol="100" />
          <note key="63" pos="696" pan="0" len="24" vol="100" />
          <note key="62" pos="720" pan="0" len="24" vol="100" />
          <note key="58" pos="744" pan="0" len="12" vol="100" />
          <note key="55" pos="1080" pan="0" len="24" vol="100" />
          <note key="58" pos="1104" pan="0" len="24" vol="100" />
          <note key="60" pos="1128" pan="0" len="12" vol="100" />
        </pattern>
        <pattern pos="153600" muted="0" steps="16" name="" type="1">
          <note key="60" pos="312" pan="0" len="24" vol="100" />
          <note key="65" pos="336" pan="0" len="24" vol="100" />
          <note key="67" pos="360" pan="0" len="12" vol="100" />
          <note key="63" pos="696" pan="0" len="24" vol="100" />
          <note key="62" pos="720" pan="0" len="24" vol="100" />
          <note key="58" pos="744" pan="0" len="12" vol="100" />
          <note key="55" pos="1080" pan="0" len="24" vol="100" />
          <note key="58" pos="1104" pan="0" len="24" vol="100" />
          <note key="60" pos="1128" pan="0" len="12" vol="100" />
        </pattern>
        <pattern pos="155136" muted="0" steps="16" name="" type="1">
          <note key="60" pos="312" pan="0" len="24" vol="100" />
          <note key="65" pos="336" pan="0" len="24" vol="100" />
          <note key="67" pos="360" pan="0" len="12" vol="100" />
          <note key="63" pos="696" pan="0" len="24" vol="100" />
          <note key="62" pos="720" pan="0" len="24" vol="100" />
          <note key="58" pos="744" pan="0" len="12" vol="100" />
          <note key="60" pos="1080" pan="0" len="24" vol="100" />
          <note key="65" pos="1104" pan="0" len="24" vol="100" />
          <note key="67" pos="1128" pan="0" len="12" vol="100" />
          <note key="63" pos="1464" pan="0" len="24" vol="100" />
          <note key="62" pos="1488" pan="0" len="24" vol="100" />
          <note key="58" pos="1512" pan="0" len="12" vol="100" />
        </pattern>
        <pattern pos="156672" muted="0" steps="16" name="" type="1">
          <note key="60" pos="312" pan="0" len="24" vol="100" />
          <note key="65" pos="336" pan="0" len="24" vol="100" />
          <note key="67" pos="360" pan="0" len="12" vol="100" />
          <note key="63" pos="696" pan="0" len="24" vol="100" />
          <note key="62" pos="720" pan="0" len="24" vol="100" />
          <note key="58" pos="744" pan="0" len="12" vol="100" />
          <note key="60" pos="1080" pan="0" len="24" vol="100" />
          <note key="65" pos="1104" pan="0" len="24" vol="100" />
          <note key="67" pos="1128" pan="0" len="12" vol="100" />
          <note key="63" pos="1464" pan="0" len="24" vol="100" />
          <note key="62" pos="1488" pan="0" len="24" vol="100" />
          <note key="58" pos="1512" pan="0" len="12" vol="100" />
        </pattern>
        <pattern pos="176640" muted="0" steps="16" name="" type="1">
          <note key="48" pos="0" pan="0" len="48" vol="100" />
          <note key="48" pos="144" pan="0" len="48" vol="100" />
          <note key="48" pos="288" pan="0" len="48" vol="100" />
          <note key="48" pos="432" pan="0" len="48" vol="100" />
          <note key="48" pos="576" pan="0" len="48" vol="100" />
          <note key="48" pos="720" pan="0" len="48" vol="100" />
          <note key="48" pos="864" pan="0" len="48" vol="100" />
          <note key="48" pos="1008" pan="0" len="48" vol="100" />
        </pattern>
        <pattern pos="177792" muted="0" steps="16" name="" type="1">
          <note key="48" pos="0" pan="0" len="48" vol="100" />
          <note key="48" pos="144" pan="0" len="48" vol="100" />
          <note key="48" pos="288" pan="0" len="48" vol="100" />
          <note key="48" pos="432" pan="0" len="48" vol="100" />
          <note key="48" pos="576" pan="0" len="48" vol="100" />
          <note key="48" pos="720" pan="0" len="48" vol="100" />
          <note key="48" pos="864" pan="0" len="48" vol="100" />
          <note key="52" pos="1008" pan="0" len="48" vol="100" />
        </pattern>
        <pattern pos="178944" muted="0" steps="16" name="" type="1">
          <note key="48" pos="0" pan="0" len="48" vol="100" />
          <note key="48" pos="144" pan="0" len="48" vol="100" />
          <note key="48" pos="288" pan="0" len="48" vol="100" />
          <note key="48" pos="432" pan="0" len="48" vol="100" />
          <note key="48" pos="576" pan="0" len="48" vol="100" />
          <note key="48" pos="720" pan="0" len="48" vol="100" />
          <note key="48" pos="864" pan="0" len="48" vol="100" />
          <note key="48" pos="1008" pan="0" len="48" vol="100" />
        </pattern>
        <pattern pos="180096" muted="0" steps="16" name="" type="1">
          <note key="48" pos="0" pan="0" len="48" vol="100" />
          <note key="48" pos="144" pan="0" len="48" vol="100" />
          <note key="48" pos="288" pan="0" len="48" vol="100" />
          <note key="48" pos="432" pan="0" len="48" vol="100" />
          <note key="48" pos="576" pan="0" len="48" vol="100" />
          <note key="48" pos="720" pan="0" len="48" vol="100" />
          <note key="48" pos="864" pan="0" len="48" vol="100" />
          <note key="52" pos="1008" pan="0" len="48" vol="100" />
        </pattern>
        <pattern pos="181248" muted="0" steps="16" name="" type="1">
          <note key="52" pos="0" pan="0" len="48" vol="100" />
          <note key="43" pos="144" pan="0" len="48" vol="100" />
          <note key="48" pos="288" pan="0" len="48" vol="100" />
          <note key="45" pos="432" pan="0" len="48" vol="100" />
          <note key="52" pos="576" pan="0" len="48" vol="100" />
          <note key="43" pos="720" pan="0" len="48" vol="100" />
          <note key="48" pos="864" pan="0" len="48" vol="100" />
          <note key="43" pos="1008" pan="0" len="48" vol="100" />
        </pattern>
        <pattern pos="182400" muted="0" steps="16" name="" type="1">
          <note key="52" pos="0" pan="0" len="48" vol="100" />
          <note key="43" pos="144" pan="0" len="48" vol="100" />
          <note key="48" pos="288" pan="0" len="48" vol="100" />
          <note key="45" pos="432" pan="0" len="48" vol="100" />
          <note key="52" pos="576" pan="0" len="48" vol="100" />
          <note key="43" pos="720" pan="0" len="48" vol="100" />
          <note key="48" pos="864" pan="0" len="48" vol="100" />
          <note key="50" pos="1008" pan="0" len="48" vol="100" />
        </pattern>
        <pattern pos="183552" muted="0" steps="16" name="" type="1">
          <note key="52" pos="0" pan="0" len="48" vol="100" />
          <note key="48" pos="144" pan="0" len="48" vol="100" />
          <note key="52" pos="288" pan="0" len="48" vol="100" />
          <note key="48" pos="432" pan="0" len="48" vol="100" />
          <note key="52" pos="576" pan="0" len="48" vol="100" />
          <note key="48" pos="720" pan="0" len="48" vol="100" />
          <note key="52" pos="864" pan="0" len="48" vol="100" />
          <note key="48" pos="1008" pan="0" len="48" vol="100" />
        </pattern>
        <pattern pos="184704" muted="0" steps="16" name="" type="1">
          <note key="48" pos="0" pan="0" len="48" vol="100" />
          <note key="48" pos="144" pan="0" len="48" vol="100" />
          <note key="48" pos="288" pan="0" len="48" vol="100" />
          <note key="48" pos="432" pan="0" len="48" vol="100" />
          <note key="48" pos="576" pan="0" len="48" vol="100" />
          <note key="48" pos="720" pan="0" len="48" vol="100" />
          <note key="48" pos="864" pan="0" len="48" vol="100" />
          <note key="52" pos="1008" pan="0" len="48" vol="100" />
        </pattern>
        <pattern pos="188928" muted="0" steps="16" name="" type="1">
          <note key="48" pos="0" pan="0" len="384" vol="100" />
          <note key="47" pos="384" pan="0" len="384" vol="100" />
          <note key="48" pos="768" pan="0" len="384" vol="100" />
          <note key="47" pos="1152" pan="0" len="384" vol="100" />
        </pattern>
        <pattern pos="193536" muted="0" steps="16" name="" type="1">
          <note key="48" pos="0" pan="0" len="384" vol="100" />
          <note key="47" pos="384" pan="0" len="384" vol="100" />
          <note key="48" pos="768" pan="0" len="384" vol="100" />
          <note key="47" pos="1152" pan="0" len="384" vol="100" />
        </pattern>
        <pattern pos="238464" muted="0" steps="16" name="" type="1">
          <note key="48" pos="0" pan="0" len="12" vol="100" />
          <note key="36" pos="48" pan="0" len="12" vol="100" />
          <note key="48" pos="768" pan="0" len="12" vol="100" />
          <note key="36" pos="816" pan="0" len="12" vol="100" />
        </pattern>
        <pattern pos="240000" muted="0" steps="16" name="" type="1">
          <note key="48" pos="0" pan="0" len="12" vol="100" />
          <note key="36" pos="48" pan="0" len="12" vol="100" />
          <note key="48" pos="768" pan="0" len="12" vol="100" />
          <note key="36" pos="816" pan="0" len="12" vol="100" />
        </pattern>
        <pattern pos="241536" muted="0" steps="16" name="" type="1">
          <note key="48" pos="0" pan="0" len="12" vol="100" />
          <note key="36" pos="48" pan="0" len="12" vol="100" />
          <note key="48" pos="768" pan="0" len="12" vol="100" />
          <note key="36" pos="816" pan="0" len="12" vol="100" />
        </pattern>
        <pattern pos="243072" muted="0" steps="16" name="" type="1">
          <note key="48" pos="0" pan="0" len="12" vol="100" />
          <note key="36" pos="48" pan="0" len="12" vol="100" />
          <note key="48" pos="768" pan="0" len="12" vol="100" />
          <note key="36" pos="816" pan="0" len="12" vol="100" />
        </pattern>
        <pattern pos="244608" muted="0" steps="16" name="" type="1">
          <note key="48" pos="0" pan="0" len="12" vol="100" />
          <note key="36" pos="48" pan="0" len="12" vol="100" />
          <note key="48" pos="240" pan="0" len="12" vol="100" />
          <note key="36" pos="288" pan="0" len="12" vol="100" />
          <note key="48" pos="336" pan="0" len="12" vol="100" />
          <note key="48" pos="384" pan="0" len="12" vol="100" />
          <note key="36" pos="432" pan="0" len="12" vol="100" />
          <note key="48" pos="624" pan="0" len="12" vol="100" />
          <note key="36" pos="672" pan="0" len="12" vol="100" />
          <note key="48" pos="720" pan="0" len="12" vol="100" />
          <note key="48" pos="768" pan="0" len="12" vol="100" />
          <note key="36" pos="816" pan="0" len="12" vol="100" />
          <note key="48" pos="1008" pan="0" len="12" vol="100" />
          <note key="36" pos="1056" pan="0" len="12" vol="100" />
          <note key="48" pos="1104" pan="0" len="12" vol="100" />
          <note key="48" pos="1152" pan="0" len="12" vol="100" />
          <note key="36" pos="1200" pan="0" len="12" vol="100" />
          <note key="48" pos="1392" pan="0" len="12" vol="100" />
          <note key="36" pos="1440" pan="0" len="12" vol="100" />
          <note key="48" pos="1488" pan="0" len="12" vol="100" />
        </pattern>
        <pattern pos="246144" muted="0" steps="16" name="" type="1">
          <note key="48" pos="0" pan="0" len="12" vol="100" />
          <note key="36" pos="48" pan="0" len="12" vol="100" />
          <note key="48" pos="240" pan="0" len="12" vol="100" />
          <note key="36" pos="288" pan="0" len="12" vol="100" />
          <note key="48" pos="336" pan="0" len="12" vol="100" />
          <note key="48" pos="384" pan="0" len="12" vol="100" />
          <note key="36" pos="432" pan="0" len="12" vol="100" />
          <note key="48" pos="624" pan="0" len="12" vol="100" />
          <note key="36" pos="672" pan="0" len="12" vol="100" />
          <note key="48" pos="720" pan="0" len="12" vol="100" />
          <note key="48" pos="768" pan="0" len="12" vol="100" />
          <note key="36" pos="816" pan="0" len="12" vol="100" />
          <note key="48" pos="1008" pan="0" len="12" vol="100" />
          <note key="36" pos="1056" pan="0" len="12" vol="100" />
          <note key="48" pos="1104" pan="0" len="12" vol="100" />
          <note key="48" pos="1152" pan="0" len="12" vol="100" />
          <note key="36" pos="1200" pan="0" len="12" vol="100" />
          <note key="48" pos="1392" pan="0" len="12" vol="100" />
          <note key="36" pos="1440" pan="0" len="12" vol="100" />
          <note key="48" pos="1488" pan="0" len="12" vol="100" />
        </pattern>
        <pattern pos="247680" muted="0" steps="16" name="" type="1">
          <note key="48" pos="0" pan="0" len="12" vol="100" />
          <note key="36" pos="48" pan="0" len="12" vol="100" />
          <note key="48" pos="768" pan="0" len="12" vol="100" />
          <note key="36" pos="816" pan="0" len="12" vol="100" />
        </pattern>
        <pattern pos="249216" muted="0" steps="16" name="" type="1">
          <note key="48" pos="0" pan="0" len="12" vol="100" />
          <note key="36" pos="48" pan="0" len="12" vol="100" />
          <note key="48" pos="240" pan="0" len="12" vol="100" />
          <note key="36" pos="288" pan="0" len="12" vol="100" />
          <note key="48" pos="336" pan="0" len="12" vol="100" />
          <note key="48" pos="384" pan="0" len="12" vol="100" />
          <note key="36" pos="432" pan="0" len="12" vol="100" />
          <note key="48" pos="624" pan="0" len="12" vol="100" />
          <note key="36" pos="672" pan="0" len="12" vol="100" />
          <note key="48" pos="720" pan="0" len="12" vol="100" />
          <note key="48" pos="768" pan="0" len="12" vol="100" />
          <note key="36" pos="816" pan="0" len="12" vol="100" />
          <note key="48" pos="1008" pan="0" len="12" vol="100" />
          <note key="36" pos="1056" pan="0" len="12" vol="100" />
          <note key="48" pos="1104" pan="0" len="12" vol="100" />
          <note key="48" pos="1152" pan="0" len="12" vol="100" />
          <note key="36" pos="1200" pan="0" len="12" vol="100" />
          <note key="48" pos="1392" pan="0" len="12" vol="100" />
          <note key="36" pos="1440" pan="0" len="12" vol="100" />
          <note key="48" pos="1488" pan="0" len="12" vol="100" />
        </pattern>
        <pattern pos="250752" muted="0" steps="16" name="" type="1">
          <note key="48" pos="0" pan="0" len="12" vol="100" />
          <note key="36" pos="48" pan="0" len="12" vol="100" />
          <note key="48" pos="240" pan="0" len="12" vol="100" />
          <note key="36" pos="288" pan="0" len="12" vol="100" />
          <note key="48" pos="336" pan="0" len="12" vol="100" />
          <note key="48" pos="384" pan="0" len="12" vol="100" />
          <note key="36" pos="432" pan="0" len="12" vol="100" />
          <note key="48" pos="624" pan="0" len="12" vol="100" />
          <note key="36" pos="672" pan="0" len="12" vol="100" />
          <note key="48" pos="720" pan="0" len="12" vol="100" />
          <note key="48" pos="768" pan="0" len="12" vol="100" />
          <note key="36" pos="816" pan="0" len="12" vol="100" />
          <note key="48" pos="1008" pan="0" len="12" vol="100" />
          <note key="36" pos="1056" pan="0" len="12" vol="100" />
          <note key="48" pos="1104" pan="0" len="12" vol="100" />
          <note key="48" pos="1152" pan="0" len="12" vol="100" />
          <note key="36" pos="1200" pan="0" len="12" vol="100" />
          <note key="48" pos="1392" pan="0" len="12" vol="100" />
          <note key="36" pos="1440" pan="0" len="12" vol="100" />
          <note key="48" pos="1488" pan="0" len="12" vol="100" />
        </pattern>
        <pattern pos="252288" muted="0" steps="16" name="" type="1">
          <note key="48" pos="0" pan="0" len="12" vol="100" />
          <note key="36" pos="48" pan="0" len="12" vol="100" />
          <note key="48" pos="240" pan="0" len="12" vol="100" />
          <note key="36" pos="288" pan="0" len="12" vol="100" />
          <note key="48" pos="336" pan="0" len="12" vol="100" />
          <note key="48" pos="384" pan="0" len="12" vol="100" />
          <note key="36" pos="432" pan="0" len="12" vol="100" />
          <note key="48" pos="624" pan="0" len="12" vol="100" />
          <note key="36" pos="672" pan="0" len="12" vol="100" />
          <note key="48" pos="720" pan="0" len="12" vol="100" />
          <note key="48" pos="768" pan="0" len="12" vol="100" />
          <note key="36" pos="816" pan="0" len="12" vol="100" />
          <note key="48" pos="1008" pan="0" len="12" vol="100" />
          <note key="36" pos="1056" pan="0" len="12" vol="100" />
          <note key="48" pos="1104" pan="0" len="12" vol="100" />
          <note key="48" pos="1152" pan="0" len="12" vol="100" />
          <note key="36" pos="1200" pan="0" len="12" vol="100" />
          <note key="48" pos="1392" pan="0" len="12" vol="100" />
          <note key="36" pos="1440" pan="0" len="12" vol="100" />
          <note key="48" pos="1488" pan="0" len="12" vol="100" />
        </pattern>
        <pattern pos="253824" muted="0" steps="16" name="" type="1">
          <note key="48" pos="0" pan="0" len="12" vol="100" />
          <note key="36" pos="48" pan="0" len="12" vol="100" />
          <note key="48" pos="240" pan="0" len="12" vol="100" />
          <note key="36" pos="288" pan="0" len="12" vol="100" />
          <note key="48" pos="336" pan="0" len="12" vol="100" />
          <note key="48" pos="384" pan="0" len="12" vol="100" />
          <note key="36" pos="432" pan="0" len="12" vol="100" />
          <note key="48" pos="624" pan="0" len="12" vol="100" />
          <note key="36" pos="672" pan="0" len="12" vol="100" />
          <note key="48" pos="720" pan="0" len="12" vol="100" />
          <note key="48" pos="768" pan="0" len="12" vol="100" />
          <note key="36" pos="816" pan="0" len="12" vol="100" />
          <note key="48" pos="1008" pan="0" len="12" vol="100" />
          <note key="36" pos="1056" pan="0" len="12" vol="100" />
          <note key="48" pos="1104" pan="0" len="12" vol="100" />
          <note key="48" pos="1152" pan="0" len="12" vol="100" />
          <note key="36" pos="1200" pan="0" len="12" vol="100" />
          <note key="48" pos="1392" pan="0" len="12" vol="100" />
          <note key="36" pos="1440" pan="0" len="12" vol="100" />
          <note key="48" pos="1488" pan="0" len="12" vol="100" />
        </pattern>
        <pattern pos="255360" muted="0" steps="16" name="" type="1">
          <note key="48" pos="0" pan="0" len="12" vol="100" />
          <note key="36" pos="48" pan="0" len="12" vol="100" />
          <note key="48" pos="240" pan="0" len="12" vol="100" />
          <note key="36" pos="288" pan="0" len="12" vol="100" />
          <note key="48" pos="336" pan="0" len="12" vol="100" />
          <note key="48" pos="384" pan="0" len="12" vol="100" />
          <note key="36" pos="432" pan="0" len="12" vol="100" />
          <note key="48" pos="624" pan="0" len="12" vol="100" />
          <note key="36" pos="672" pan="0" len="12" vol="100" />
          <note key="48" pos="720" pan="0" len="12" vol="100" />
          <note key="48" pos="768" pan="0" len="12" vol="100" />
          <note key="36" pos="816" pan="0" len="12" vol="100" />
          <note key="48" pos="1008" pan="0" len="12" vol="100" />
          <note key="36" pos="1056" pan="0" len="12" vol="100" />
          <note key="48" pos="1104" pan="0" len="12" vol="100" />
          <note key="48" pos="1152" pan="0" len="12" vol="100" />
          <note key="36" pos="1200" pan="0" len="12" vol="100" />
          <note key="48" pos="1392" pan="0" len="12" vol="100" />
          <note key="36" pos="1440" pan="0" len="12" vol="100" />
          <note key="48" pos="1488" pan="0" len="12" vol="100" />
        </pattern>
      </track>
      <track solo="0" name="57 (Ch5)" type="0" muted="0">
        <instrumenttrack usemasterpitch="1" pitch="0.0" basenote="57" pan="0" pitchrange="12" vol="30">
          <eldata />
          <instrument name="tripleoscillator" />
        </instrumenttrack>
        <pattern pos="193536" muted="0" steps="16" name="" type="1">
          <note key="36" pos="768" pan="0" len="384" vol="100" />
          <note key="35" pos="1152" pan="0" len="384" vol="100" />
        </pattern>
        <pattern pos="39936" muted="0" steps="16" name="" type="1">
          <note key="36" pos="768" pan="0" len="384" vol="2" />
        </pattern>
        <pattern pos="104448" muted="0" steps="16" name="" type="1">
          <note key="38" pos="240" pan="0" len="96" vol="100" />
          <note key="50" pos="336" pan="0" len="144" vol="100" />
          <note key="38" pos="1056" pan="0" len="96" vol="100" />
          <note key="50" pos="1152" pan="0" len="96" vol="100" />
        </pattern>
        <pattern pos="105984" muted="0" steps="16" name="" type="1">
          <note key="38" pos="288" pan="0" len="96" vol="100" />
          <note key="50" pos="384" pan="0" len="96" vol="100" />
        </pattern>
        <pattern pos="113664" muted="0" steps="16" name="" type="1">
          <note key="53" pos="0" pan="0" len="192" vol="100" />
          <note key="55" pos="192" pan="0" len="192" vol="100" />
          <note key="56" pos="384" pan="0" len="192" vol="100" />
          <note key="58" pos="576" pan="0" len="96" vol="100" />
          <note key="51" pos="672" pan="0" len="96" vol="100" />
          <note key="53" pos="768" pan="0" len="192" vol="100" />
          <note key="55" pos="960" pan="0" len="192" vol="100" />
          <note key="56" pos="1152" pan="0" len="192" vol="100" />
          <note key="58" pos="1344" pan="0" len="96" vol="100" />
          <note key="51" pos="1440" pan="0" len="96" vol="100" />
        </pattern>
        <pattern pos="115200" muted="0" steps="16" name="" type="1">
          <note key="48" pos="0" pan="0" len="192" vol="100" />
          <note key="50" pos="192" pan="0" len="192" vol="100" />
          <note key="51" pos="384" pan="0" len="192" vol="100" />
          <note key="53" pos="576" pan="0" len="96" vol="100" />
          <note key="46" pos="672" pan="0" len="96" vol="100" />
          <note key="48" pos="768" pan="0" len="192" vol="100" />
          <note key="50" pos="960" pan="0" len="192" vol="100" />
          <note key="51" pos="1152" pan="0" len="192" vol="100" />
          <note key="53" pos="1344" pan="0" len="48" vol="100" />
          <note key="46" pos="1392" pan="0" len="144" vol="100" />
        </pattern>
        <pattern pos="116736" muted="0" steps="16" name="" type="1">
          <note key="53" pos="0" pan="0" len="192" vol="100" />
          <note key="55" pos="192" pan="0" len="192" vol="100" />
          <note key="56" pos="384" pan="0" len="192" vol="100" />
          <note key="58" pos="576" pan="0" len="96" vol="100" />
          <note key="51" pos="672" pan="0" len="96" vol="100" />
          <note key="53" pos="768" pan="0" len="192" vol="100" />
          <note key="55" pos="960" pan="0" len="192" vol="100" />
          <note key="56" pos="1152" pan="0" len="192" vol="100" />
          <note key="58" pos="1344" pan="0" len="120" vol="100" />
          <note key="51" pos="1464" pan="0" len="72" vol="100" />
        </pattern>
        <pattern pos="118272" muted="0" steps="16" name="" type="1">
          <note key="48" pos="0" pan="0" len="192" vol="100" />
          <note key="50" pos="192" pan="0" len="192" vol="100" />
          <note key="51" pos="384" pan="0" len="192" vol="100" />
          <note key="53" pos="576" pan="0" len="96" vol="100" />
          <note key="46" pos="672" pan="0" len="96" vol="100" />
          <note key="48" pos="768" pan="0" len="192" vol="100" />
          <note key="50" pos="960" pan="0" len="192" vol="100" />
          <note key="51" pos="1152" pan="0" len="192" vol="100" />
          <note key="53" pos="1344" pan="0" len="96" vol="100" />
          <note key="51" pos="1440" pan="0" len="96" vol="100" />
        </pattern>
        <pattern pos="119808" muted="0" steps="16" name="" type="1">
          <note key="53" pos="0" pan="0" len="192" vol="100" />
          <note key="55" pos="192" pan="0" len="192" vol="100" />
          <note key="56" pos="384" pan="0" len="192" vol="100" />
          <note key="58" pos="576" pan="0" len="96" vol="100" />
          <note key="51" pos="672" pan="0" len="96" vol="100" />
          <note key="53" pos="768" pan="0" len="192" vol="100" />
          <note key="55" pos="960" pan="0" len="192" vol="100" />
          <note key="56" pos="1152" pan="0" len="192" vol="100" />
          <note key="58" pos="1344" pan="0" len="48" vol="100" />
          <note key="51" pos="1392" pan="0" len="144" vol="100" />
        </pattern>
        <pattern pos="121344" muted="0" steps="16" name="" type="1">
          <note key="48" pos="0" pan="0" len="192" vol="100" />
          <note key="50" pos="192" pan="0" len="192" vol="100" />
          <note key="51" pos="384" pan="0" len="192" vol="100" />
          <note key="53" pos="576" pan="0" len="96" vol="100" />
          <note key="46" pos="672" pan="0" len="96" vol="100" />
          <note key="48" pos="768" pan="0" len="192" vol="100" />
          <note key="50" pos="960" pan="0" len="192" vol="100" />
          <note key="51" pos="1152" pan="0" len="192" vol="100" />
          <note key="50" pos="1344" pan="0" len="48" vol="100" />
          <note key="46" pos="1392" pan="0" len="144" vol="100" />
        </pattern>
        <pattern pos="145920" muted="0" steps="16" name="" type="1">
          <note key="44" pos="0" pan="0" len="384" vol="34" />
          <note key="43" pos="384" pan="0" len="288" vol="34" />
          <note key="41" pos="768" pan="0" len="288" vol="34" />
          <note key="63" pos="1056" pan="0" len="24" vol="100" />
          <note key="56" pos="1080" pan="0" len="24" vol="100" />
          <note key="65" pos="1104" pan="0" len="24" vol="100" />
          <note key="67" pos="1128" pan="0" len="24" vol="100" />
          <note key="43" pos="1152" pan="0" len="288" vol="34" />
        </pattern>
        <pattern pos="147456" muted="0" steps="16" name="" type="1">
          <note key="44" pos="0" pan="0" len="384" vol="34" />
          <note key="43" pos="384" pan="0" len="192" vol="34" />
          <note key="41" pos="768" pan="0" len="288" vol="34" />
          <note key="63" pos="1056" pan="0" len="24" vol="100" />
          <note key="56" pos="1080" pan="0" len="24" vol="100" />
          <note key="65" pos="1104" pan="0" len="24" vol="100" />
          <note key="67" pos="1128" pan="0" len="24" vol="100" />
          <note key="43" pos="1152" pan="0" len="192" vol="34" />
          <note key="46" pos="1440" pan="0" len="24" vol="34" />
          <note key="70" pos="1464" pan="0" len="24" vol="100" />
          <note key="67" pos="1488" pan="0" len="24" vol="100" />
          <note key="63" pos="1512" pan="0" len="24" vol="100" />
        </pattern>
        <pattern pos="158208" muted="0" steps="16" name="" type="1">
          <note key="44" pos="0" pan="0" len="384" vol="34" />
          <note key="43" pos="384" pan="0" len="288" vol="34" />
          <note key="41" pos="768" pan="0" len="288" vol="34" />
          <note key="63" pos="1056" pan="0" len="24" vol="100" />
          <note key="56" pos="1080" pan="0" len="24" vol="100" />
          <note key="65" pos="1104" pan="0" len="24" vol="100" />
          <note key="67" pos="1128" pan="0" len="24" vol="100" />
          <note key="43" pos="1152" pan="0" len="288" vol="34" />
        </pattern>
        <pattern pos="159744" muted="0" steps="16" name="" type="1">
          <note key="44" pos="0" pan="0" len="384" vol="34" />
          <note key="43" pos="384" pan="0" len="192" vol="34" />
          <note key="41" pos="768" pan="0" len="288" vol="34" />
          <note key="63" pos="1056" pan="0" len="24" vol="100" />
          <note key="56" pos="1080" pan="0" len="24" vol="100" />
          <note key="65" pos="1104" pan="0" len="24" vol="100" />
          <note key="67" pos="1128" pan="0" len="24" vol="100" />
          <note key="43" pos="1152" pan="0" len="192" vol="34" />
          <note key="46" pos="1440" pan="0" len="24" vol="34" />
          <note key="70" pos="1464" pan="0" len="24" vol="100" />
          <note key="67" pos="1488" pan="0" len="24" vol="100" />
          <note key="63" pos="1512" pan="0" len="24" vol="100" />
        </pattern>
        <pattern pos="188928" muted="0" steps="16" name="" type="1">
          <note key="36" pos="768" pan="0" len="384" vol="100" />
          <note key="35" pos="1152" pan="0" len="384" vol="100" />
        </pattern>
      </track>
      <track solo="0" name="57 (Ch6)" type="0" muted="0">
        <instrumenttrack usemasterpitch="1" pitch="0.0" basenote="57" pan="0" pitchrange="12" vol="30">
          <eldata />
          <instrument name="tripleoscillator" />
        </instrumenttrack>
        <pattern pos="175104" muted="0" steps="16" name="" type="1">
          <note key="48" pos="0" pan="0" len="24" vol="100" />
          <note key="43" pos="312" pan="0" len="24" vol="100" />
          <note key="46" pos="336" pan="0" len="24" vol="100" />
          <note key="36" pos="384" pan="0" len="48" vol="100" />
          <note key="43" pos="672" pan="0" len="24" vol="100" />
          <note key="46" pos="696" pan="0" len="24" vol="100" />
          <note key="48" pos="768" pan="0" len="24" vol="100" />
          <note key="43" pos="1080" pan="0" len="24" vol="100" />
          <note key="46" pos="1104" pan="0" len="24" vol="100" />
          <note key="36" pos="1152" pan="0" len="48" vol="100" />
          <note key="43" pos="1440" pan="0" len="24" vol="100" />
          <note key="46" pos="1464" pan="0" len="24" vol="100" />
        </pattern>
        <pattern pos="113664" muted="0" steps="16" name="" type="1">
          <note key="41" pos="0" pan="0" len="192" vol="100" />
          <note key="43" pos="192" pan="0" len="192" vol="100" />
          <note key="44" pos="384" pan="0" len="192" vol="100" />
          <note key="46" pos="576" pan="0" len="96" vol="100" />
          <note key="39" pos="672" pan="0" len="96" vol="100" />
          <note key="41" pos="768" pan="0" len="192" vol="100" />
          <note key="43" pos="960" pan="0" len="192" vol="100" />
          <note key="44" pos="1152" pan="0" len="192" vol="100" />
          <note key="46" pos="1344" pan="0" len="96" vol="100" />
          <note key="39" pos="1440" pan="0" len="96" vol="100" />
        </pattern>
        <pattern pos="162816" muted="0" steps="16" name="" type="1">
          <note key="55" pos="1488" pan="0" len="24" vol="100" />
          <note key="58" pos="1512" pan="0" len="24" vol="100" />
        </pattern>
        <pattern pos="164352" muted="0" steps="16" name="" type="1">
          <note key="48" pos="0" pan="0" len="24" vol="100" />
          <note key="43" pos="120" pan="0" len="24" vol="100" />
          <note key="46" pos="144" pan="0" len="24" vol="100" />
          <note key="48" pos="192" pan="0" len="24" vol="100" />
          <note key="43" pos="312" pan="0" len="12" vol="100" />
          <note key="46" pos="336" pan="0" len="12" vol="100" />
          <note key="41" pos="384" pan="0" len="24" vol="100" />
          <note key="48" pos="480" pan="0" len="12" vol="100" />
          <note key="51" pos="504" pan="0" len="12" vol="100" />
          <note key="41" pos="576" pan="0" len="12" vol="100" />
          <note key="44" pos="696" pan="0" len="12" vol="100" />
          <note key="46" pos="720" pan="0" len="12" vol="100" />
          <note key="48" pos="768" pan="0" len="24" vol="100" />
          <note key="43" pos="888" pan="0" len="24" vol="100" />
          <note key="46" pos="912" pan="0" len="24" vol="100" />
          <note key="48" pos="960" pan="0" len="24" vol="100" />
          <note key="43" pos="1080" pan="0" len="12" vol="100" />
          <note key="46" pos="1104" pan="0" len="12" vol="100" />
          <note key="41" pos="1152" pan="0" len="24" vol="100" />
          <note key="48" pos="1248" pan="0" len="12" vol="100" />
          <note key="51" pos="1272" pan="0" len="12" vol="100" />
          <note key="41" pos="1344" pan="0" len="12" vol="100" />
          <note key="44" pos="1464" pan="0" len="12" vol="100" />
          <note key="46" pos="1488" pan="0" len="12" vol="100" />
        </pattern>
        <pattern pos="165888" muted="0" steps="16" name="" type="1">
          <note key="48" pos="0" pan="0" len="24" vol="100" />
          <note key="43" pos="192" pan="0" len="192" vol="100" />
          <note key="44" pos="384" pan="0" len="96" vol="100" />
          <note key="39" pos="576" pan="0" len="48" vol="100" />
          <note key="51" pos="672" pan="0" len="48" vol="100" />
          <note key="43" pos="720" pan="0" len="48" vol="100" />
          <note key="48" pos="768" pan="0" len="24" vol="100" />
          <note key="43" pos="960" pan="0" len="192" vol="100" />
          <note key="44" pos="1152" pan="0" len="96" vol="100" />
          <note key="39" pos="1344" pan="0" len="48" vol="100" />
        </pattern>
        <pattern pos="167424" muted="0" steps="16" name="" type="1">
          <note key="48" pos="0" pan="0" len="156" vol="100" />
          <note key="43" pos="192" pan="0" len="132" vol="100" />
          <note key="44" pos="384" pan="0" len="144" vol="100" />
          <note key="39" pos="576" pan="0" len="48" vol="100" />
          <note key="51" pos="672" pan="0" len="48" vol="100" />
          <note key="43" pos="720" pan="0" len="48" vol="100" />
          <note key="48" pos="768" pan="0" len="144" vol="100" />
          <note key="43" pos="960" pan="0" len="180" vol="100" />
          <note key="44" pos="1152" pan="0" len="180" vol="100" />
          <note key="46" pos="1344" pan="0" len="168" vol="100" />
        </pattern>
        <pattern pos="168960" muted="0" steps="16" name="" type="1">
          <note key="48" pos="0" pan="0" len="24" vol="100" />
          <note key="43" pos="120" pan="0" len="24" vol="100" />
          <note key="46" pos="144" pan="0" len="24" vol="100" />
          <note key="48" pos="192" pan="0" len="24" vol="100" />
          <note key="43" pos="312" pan="0" len="12" vol="100" />
          <note key="46" pos="336" pan="0" len="12" vol="100" />
          <note key="41" pos="384" pan="0" len="24" vol="100" />
          <note key="48" pos="480" pan="0" len="12" vol="100" />
          <note key="51" pos="504" pan="0" len="12" vol="100" />
          <note key="41" pos="576" pan="0" len="12" vol="100" />
          <note key="44" pos="696" pan="0" len="12" vol="100" />
          <note key="46" pos="720" pan="0" len="12" vol="100" />
          <note key="48" pos="768" pan="0" len="24" vol="100" />
          <note key="43" pos="888" pan="0" len="24" vol="100" />
          <note key="46" pos="912" pan="0" len="24" vol="100" />
          <note key="48" pos="960" pan="0" len="24" vol="100" />
          <note key="43" pos="1080" pan="0" len="12" vol="100" />
          <note key="46" pos="1104" pan="0" len="12" vol="100" />
          <note key="41" pos="1152" pan="0" len="24" vol="100" />
          <note key="48" pos="1248" pan="0" len="12" vol="100" />
          <note key="51" pos="1272" pan="0" len="12" vol="100" />
          <note key="41" pos="1344" pan="0" len="12" vol="100" />
          <note key="44" pos="1464" pan="0" len="12" vol="100" />
          <note key="46" pos="1488" pan="0" len="12" vol="100" />
        </pattern>
        <pattern pos="170496" muted="0" steps="16" name="" type="1">
          <note key="48" pos="0" pan="0" len="24" vol="100" />
          <note key="43" pos="120" pan="0" len="24" vol="100" />
          <note key="46" pos="144" pan="0" len="24" vol="100" />
          <note key="48" pos="192" pan="0" len="24" vol="100" />
          <note key="43" pos="312" pan="0" len="12" vol="100" />
          <note key="46" pos="336" pan="0" len="12" vol="100" />
          <note key="41" pos="384" pan="0" len="24" vol="100" />
          <note key="48" pos="480" pan="0" len="12" vol="100" />
          <note key="51" pos="504" pan="0" len="12" vol="100" />
          <note key="41" pos="576" pan="0" len="12" vol="100" />
          <note key="44" pos="696" pan="0" len="12" vol="100" />
          <note key="46" pos="720" pan="0" len="12" vol="100" />
          <note key="48" pos="768" pan="0" len="24" vol="100" />
          <note key="43" pos="888" pan="0" len="24" vol="100" />
          <note key="46" pos="912" pan="0" len="24" vol="100" />
          <note key="48" pos="960" pan="0" len="24" vol="100" />
          <note key="43" pos="1080" pan="0" len="12" vol="100" />
          <note key="46" pos="1104" pan="0" len="12" vol="100" />
          <note key="41" pos="1152" pan="0" len="24" vol="100" />
          <note key="48" pos="1248" pan="0" len="12" vol="100" />
          <note key="51" pos="1272" pan="0" len="12" vol="100" />
          <note key="41" pos="1344" pan="0" len="12" vol="100" />
          <note key="44" pos="1464" pan="0" len="12" vol="100" />
          <note key="46" pos="1488" pan="0" len="12" vol="100" />
        </pattern>
        <pattern pos="172032" muted="0" steps="16" name="" type="1">
          <note key="48" pos="0" pan="0" len="24" vol="100" />
          <note key="43" pos="192" pan="0" len="192" vol="100" />
          <note key="44" pos="384" pan="0" len="96" vol="100" />
          <note key="39" pos="576" pan="0" len="48" vol="100" />
          <note key="51" pos="672" pan="0" len="48" vol="100" />
          <note key="43" pos="720" pan="0" len="48" vol="100" />
          <note key="48" pos="768" pan="0" len="24" vol="100" />
          <note key="43" pos="960" pan="0" len="192" vol="100" />
          <note key="44" pos="1152" pan="0" len="96" vol="100" />
          <note key="39" pos="1344" pan="0" len="48" vol="100" />
        </pattern>
        <pattern pos="173568" muted="0" steps="16" name="" type="1">
          <note key="48" pos="0" pan="0" len="156" vol="100" />
          <note key="43" pos="192" pan="0" len="132" vol="100" />
          <note key="44" pos="384" pan="0" len="144" vol="100" />
          <note key="39" pos="576" pan="0" len="48" vol="100" />
          <note key="51" pos="672" pan="0" len="48" vol="100" />
          <note key="43" pos="720" pan="0" len="48" vol="100" />
          <note key="48" pos="768" pan="0" len="144" vol="100" />
          <note key="43" pos="960" pan="0" len="180" vol="100" />
          <note key="44" pos="1152" pan="0" len="180" vol="100" />
          <note key="46" pos="1344" pan="0" len="168" vol="100" />
        </pattern>
      </track>
      <track solo="0" name="57 (Ch7)" type="0" muted="0">
        <instrumenttrack usemasterpitch="1" pitch="0.0" basenote="57" pan="0" pitchrange="12" vol="30">
          <eldata />
          <instrument name="tripleoscillator" />
        </instrumenttrack>
        <pattern pos="232128" muted="0" steps="16" name="" type="1">
          <note key="36" pos="768" pan="0" len="192" vol="50" />
          <note key="38" pos="960" pan="0" len="192" vol="100" />
          <note key="43" pos="1152" pan="0" len="384" vol="100" />
        </pattern>
        <pattern pos="196608" muted="0" steps="16" name="" type="1">
          <note key="52" pos="816" pan="0" len="12" vol="8" />
          <note key="52" pos="912" pan="0" len="12" vol="20" />
          <note key="52" pos="1008" pan="0" len="12" vol="33" />
          <note key="52" pos="1128" pan="0" len="12" vol="48" />
          <note key="52" pos="1200" pan="0" len="12" vol="58" />
          <note key="52" pos="1296" pan="0" len="12" vol="70" />
          <note key="52" pos="1392" pan="0" len="12" vol="83" />
          <note key="52" pos="1512" pan="0" len="12" vol="98" />
        </pattern>
        <pattern pos="221376" muted="0" steps="16" name="" type="1">
          <note key="48" pos="0" pan="0" len="192" vol="100" />
          <note key="50" pos="192" pan="0" len="192" vol="100" />
          <note key="51" pos="384" pan="0" len="192" vol="100" />
          <note key="53" pos="576" pan="0" len="48" vol="100" />
          <note key="41" pos="624" pan="0" len="48" vol="100" />
          <note key="53" pos="672" pan="0" len="96" vol="100" />
          <note key="48" pos="768" pan="0" len="192" vol="100" />
          <note key="50" pos="960" pan="0" len="192" vol="100" />
          <note key="51" pos="1152" pan="0" len="192" vol="100" />
          <note key="53" pos="1344" pan="0" len="192" vol="100" />
        </pattern>
        <pattern pos="222912" muted="0" steps="16" name="" type="1">
          <note key="48" pos="0" pan="0" len="192" vol="100" />
          <note key="50" pos="192" pan="0" len="192" vol="100" />
          <note key="51" pos="384" pan="0" len="192" vol="100" />
          <note key="53" pos="576" pan="0" len="48" vol="100" />
          <note key="41" pos="624" pan="0" len="48" vol="100" />
          <note key="53" pos="672" pan="0" len="96" vol="100" />
          <note key="48" pos="768" pan="0" len="192" vol="100" />
          <note key="50" pos="960" pan="0" len="192" vol="100" />
          <note key="51" pos="1152" pan="0" len="192" vol="100" />
          <note key="53" pos="1344" pan="0" len="192" vol="100" />
        </pattern>
        <pattern pos="227520" muted="0" steps="16" name="" type="1">
          <note key="48" pos="0" pan="0" len="192" vol="100" />
          <note key="50" pos="192" pan="0" len="192" vol="100" />
          <note key="51" pos="384" pan="0" len="192" vol="100" />
          <note key="53" pos="576" pan="0" len="48" vol="100" />
          <note key="41" pos="624" pan="0" len="48" vol="100" />
          <note key="53" pos="672" pan="0" len="96" vol="100" />
          <note key="48" pos="768" pan="0" len="192" vol="100" />
          <note key="50" pos="960" pan="0" len="192" vol="100" />
          <note key="51" pos="1152" pan="0" len="192" vol="100" />
          <note key="53" pos="1344" pan="0" len="192" vol="100" />
        </pattern>
        <pattern pos="229056" muted="0" steps="16" name="" type="1">
          <note key="48" pos="0" pan="0" len="192" vol="100" />
          <note key="50" pos="192" pan="0" len="192" vol="100" />
          <note key="51" pos="384" pan="0" len="192" vol="100" />
          <note key="53" pos="576" pan="0" len="48" vol="100" />
          <note key="41" pos="624" pan="0" len="48" vol="100" />
          <note key="53" pos="672" pan="0" len="96" vol="100" />
          <note key="48" pos="768" pan="0" len="192" vol="100" />
          <note key="50" pos="960" pan="0" len="192" vol="100" />
          <note key="51" pos="1152" pan="0" len="192" vol="100" />
          <note key="50" pos="1344" pan="0" len="96" vol="100" />
          <note key="53" pos="1440" pan="0" len="96" vol="100" />
        </pattern>
        <pattern pos="230592" muted="0" steps="16" name="" type="1">
          <note key="43" pos="0" pan="0" len="192" vol="100" />
          <note key="41" pos="192" pan="0" len="180" vol="100" />
        </pattern>
      </track>
      <track solo="0" name="58 (Ch1)" type="0" muted="0">
        <instrumenttrack usemasterpitch="1" pitch="0.0" basenote="57" pan="0" pitchrange="12" vol="30">
          <eldata />
          <instrument name="tripleoscillator" />
        </instrumenttrack>
        <pattern pos="213504" muted="0" steps="16" name="" type="1">
          <note key="73" pos="0" pan="0" len="72" vol="100" />
          <note key="78" pos="72" pan="0" len="48" vol="100" />
          <note key="73" pos="120" pan="0" len="48" vol="100" />
          <note key="74" pos="168" pan="0" len="96" vol="100" />
          <note key="78" pos="264" pan="0" len="48" vol="100" />
          <note key="74" pos="312" pan="0" len="456" vol="100" />
          <note key="73" pos="768" pan="0" len="72" vol="100" />
          <note key="78" pos="840" pan="0" len="48" vol="100" />
          <note key="73" pos="888" pan="0" len="48" vol="100" />
          <note key="74" pos="936" pan="0" len="96" vol="100" />
          <note key="78" pos="1032" pan="0" len="48" vol="100" />
          <note key="74" pos="1080" pan="0" len="456" vol="100" />
        </pattern>
        <pattern pos="41088" muted="0" steps="16" name="" type="1">
          <note key="60" pos="0" pan="0" len="12" vol="100" />
          <note key="63" pos="24" pan="0" len="12" vol="100" />
          <note key="62" pos="48" pan="0" len="12" vol="100" />
          <note key="79" pos="72" pan="0" len="12" vol="100" />
          <note key="75" pos="96" pan="0" len="12" vol="100" />
          <note key="72" pos="120" pan="0" len="12" vol="100" />
          <note key="67" pos="144" pan="0" len="12" vol="100" />
          <note key="72" pos="168" pan="0" len="12" vol="100" />
          <note key="75" pos="192" pan="0" len="12" vol="100" />
          <note key="91" pos="216" pan="0" len="12" vol="100" />
          <note key="87" pos="240" pan="0" len="12" vol="100" />
          <note key="84" pos="264" pan="0" len="12" vol="100" />
          <note key="60" pos="288" pan="0" len="12" vol="100" />
          <note key="63" pos="312" pan="0" len="12" vol="100" />
          <note key="62" pos="336" pan="0" len="12" vol="100" />
          <note key="79" pos="360" pan="0" len="12" vol="100" />
          <note key="75" pos="384" pan="0" len="12" vol="100" />
          <note key="72" pos="408" pan="0" len="12" vol="100" />
          <note key="67" pos="432" pan="0" len="12" vol="100" />
          <note key="72" pos="456" pan="0" len="12" vol="100" />
          <note key="75" pos="480" pan="0" len="12" vol="100" />
          <note key="91" pos="504" pan="0" len="12" vol="100" />
          <note key="87" pos="528" pan="0" len="12" vol="100" />
          <note key="84" pos="552" pan="0" len="12" vol="100" />
          <note key="60" pos="576" pan="0" len="12" vol="100" />
          <note key="63" pos="600" pan="0" len="12" vol="100" />
          <note key="62" pos="624" pan="0" len="12" vol="100" />
          <note key="79" pos="648" pan="0" len="12" vol="100" />
          <note key="75" pos="672" pan="0" len="12" vol="100" />
          <note key="72" pos="696" pan="0" len="12" vol="100" />
          <note key="67" pos="720" pan="0" len="12" vol="100" />
          <note key="72" pos="744" pan="0" len="12" vol="100" />
          <note key="75" pos="768" pan="0" len="12" vol="100" />
          <note key="91" pos="792" pan="0" len="12" vol="100" />
          <note key="87" pos="816" pan="0" len="12" vol="100" />
          <note key="84" pos="840" pan="0" len="12" vol="100" />
          <note key="60" pos="864" pan="0" len="12" vol="100" />
          <note key="63" pos="888" pan="0" len="12" vol="100" />
          <note key="62" pos="912" pan="0" len="12" vol="100" />
          <note key="79" pos="936" pan="0" len="12" vol="100" />
          <note key="75" pos="960" pan="0" len="12" vol="100" />
          <note key="72" pos="984" pan="0" len="12" vol="100" />
          <note key="67" pos="1008" pan="0" len="12" vol="100" />
          <note key="72" pos="1032" pan="0" len="12" vol="100" />
          <note key="75" pos="1056" pan="0" len="12" vol="100" />
          <note key="91" pos="1080" pan="0" len="12" vol="100" />
          <note key="87" pos="1104" pan="0" len="12" vol="100" />
          <note key="84" pos="1128" pan="0" len="12" vol="100" />
        </pattern>
        <pattern pos="42240" muted="0" steps="16" name="" type="1">
          <note key="60" pos="0" pan="0" len="12" vol="100" />
          <note key="63" pos="24" pan="0" len="12" vol="100" />
          <note key="62" pos="48" pan="0" len="12" vol="100" />
          <note key="79" pos="72" pan="0" len="12" vol="100" />
          <note key="75" pos="96" pan="0" len="12" vol="100" />
          <note key="72" pos="120" pan="0" len="12" vol="100" />
          <note key="67" pos="144" pan="0" len="12" vol="100" />
          <note key="72" pos="168" pan="0" len="12" vol="100" />
          <note key="75" pos="192" pan="0" len="12" vol="100" />
          <note key="91" pos="216" pan="0" len="12" vol="100" />
          <note key="87" pos="240" pan="0" len="12" vol="100" />
          <note key="84" pos="264" pan="0" len="12" vol="100" />
          <note key="60" pos="288" pan="0" len="12" vol="100" />
          <note key="63" pos="312" pan="0" len="12" vol="100" />
          <note key="62" pos="336" pan="0" len="12" vol="100" />
          <note key="79" pos="360" pan="0" len="12" vol="100" />
          <note key="75" pos="384" pan="0" len="12" vol="100" />
          <note key="72" pos="408" pan="0" len="12" vol="100" />
          <note key="67" pos="432" pan="0" len="12" vol="100" />
          <note key="72" pos="456" pan="0" len="12" vol="100" />
          <note key="75" pos="480" pan="0" len="12" vol="100" />
          <note key="91" pos="504" pan="0" len="12" vol="100" />
          <note key="87" pos="528" pan="0" len="12" vol="100" />
          <note key="84" pos="552" pan="0" len="12" vol="100" />
          <note key="60" pos="576" pan="0" len="12" vol="100" />
          <note key="63" pos="600" pan="0" len="12" vol="100" />
          <note key="62" pos="624" pan="0" len="12" vol="100" />
          <note key="79" pos="648" pan="0" len="12" vol="100" />
          <note key="75" pos="672" pan="0" len="12" vol="100" />
          <note key="72" pos="696" pan="0" len="12" vol="100" />
          <note key="67" pos="720" pan="0" len="12" vol="100" />
          <note key="72" pos="744" pan="0" len="12" vol="100" />
          <note key="75" pos="768" pan="0" len="12" vol="100" />
          <note key="91" pos="792" pan="0" len="12" vol="100" />
          <note key="87" pos="816" pan="0" len="12" vol="100" />
          <note key="84" pos="840" pan="0" len="12" vol="100" />
          <note key="60" pos="864" pan="0" len="12" vol="100" />
          <note key="63" pos="888" pan="0" len="12" vol="100" />
          <note key="62" pos="912" pan="0" len="12" vol="100" />
          <note key="79" pos="936" pan="0" len="12" vol="100" />
          <note key="75" pos="960" pan="0" len="12" vol="100" />
          <note key="72" pos="984" pan="0" len="12" vol="100" />
          <note key="67" pos="1008" pan="0" len="12" vol="100" />
          <note key="72" pos="1032" pan="0" len="12" vol="100" />
          <note key="75" pos="1056" pan="0" len="12" vol="100" />
          <note key="91" pos="1080" pan="0" len="12" vol="100" />
          <note key="87" pos="1104" pan="0" len="12" vol="100" />
          <note key="84" pos="1128" pan="0" len="12" vol="100" />
        </pattern>
        <pattern pos="43392" muted="0" steps="16" name="" type="1">
          <note key="60" pos="0" pan="0" len="12" vol="100" />
          <note key="63" pos="24" pan="0" len="12" vol="100" />
          <note key="62" pos="48" pan="0" len="12" vol="100" />
          <note key="79" pos="72" pan="0" len="12" vol="100" />
          <note key="75" pos="96" pan="0" len="12" vol="100" />
          <note key="72" pos="120" pan="0" len="12" vol="100" />
          <note key="67" pos="144" pan="0" len="12" vol="100" />
          <note key="72" pos="168" pan="0" len="12" vol="100" />
          <note key="75" pos="192" pan="0" len="12" vol="100" />
          <note key="91" pos="216" pan="0" len="12" vol="100" />
          <note key="87" pos="240" pan="0" len="12" vol="100" />
          <note key="84" pos="264" pan="0" len="12" vol="100" />
          <note key="60" pos="288" pan="0" len="12" vol="100" />
          <note key="63" pos="312" pan="0" len="12" vol="100" />
          <note key="62" pos="336" pan="0" len="12" vol="100" />
          <note key="79" pos="360" pan="0" len="12" vol="100" />
          <note key="75" pos="384" pan="0" len="12" vol="100" />
          <note key="72" pos="408" pan="0" len="12" vol="100" />
          <note key="67" pos="432" pan="0" len="12" vol="100" />
          <note key="72" pos="456" pan="0" len="12" vol="100" />
          <note key="75" pos="480" pan="0" len="12" vol="100" />
          <note key="91" pos="504" pan="0" len="12" vol="100" />
          <note key="87" pos="528" pan="0" len="12" vol="100" />
          <note key="84" pos="552" pan="0" len="12" vol="100" />
          <note key="60" pos="576" pan="0" len="12" vol="100" />
          <note key="63" pos="600" pan="0" len="12" vol="100" />
          <note key="62" pos="624" pan="0" len="12" vol="100" />
          <note key="79" pos="648" pan="0" len="12" vol="100" />
          <note key="75" pos="672" pan="0" len="12" vol="100" />
          <note key="72" pos="696" pan="0" len="12" vol="100" />
          <note key="67" pos="720" pan="0" len="12" vol="100" />
          <note key="72" pos="744" pan="0" len="12" vol="100" />
          <note key="75" pos="768" pan="0" len="12" vol="100" />
          <note key="91" pos="792" pan="0" len="12" vol="100" />
          <note key="87" pos="816" pan="0" len="12" vol="100" />
          <note key="84" pos="840" pan="0" len="12" vol="100" />
          <note key="60" pos="864" pan="0" len="12" vol="100" />
          <note key="63" pos="888" pan="0" len="12" vol="100" />
          <note key="62" pos="912" pan="0" len="12" vol="100" />
          <note key="79" pos="936" pan="0" len="12" vol="100" />
          <note key="75" pos="960" pan="0" len="12" vol="100" />
          <note key="72" pos="984" pan="0" len="12" vol="100" />
          <note key="67" pos="1008" pan="0" len="12" vol="100" />
          <note key="72" pos="1032" pan="0" len="12" vol="100" />
          <note key="75" pos="1056" pan="0" len="12" vol="100" />
          <note key="91" pos="1080" pan="0" len="12" vol="100" />
          <note key="87" pos="1104" pan="0" len="12" vol="100" />
          <note key="84" pos="1128" pan="0" len="12" vol="100" />
        </pattern>
        <pattern pos="44544" muted="0" steps="16" name="" type="1">
          <note key="60" pos="0" pan="0" len="12" vol="100" />
          <note key="63" pos="24" pan="0" len="12" vol="100" />
          <note key="62" pos="48" pan="0" len="12" vol="100" />
          <note key="79" pos="72" pan="0" len="12" vol="100" />
          <note key="75" pos="96" pan="0" len="12" vol="100" />
          <note key="72" pos="120" pan="0" len="12" vol="100" />
          <note key="67" pos="144" pan="0" len="12" vol="100" />
          <note key="72" pos="168" pan="0" len="12" vol="100" />
          <note key="75" pos="192" pan="0" len="12" vol="100" />
          <note key="91" pos="216" pan="0" len="12" vol="100" />
          <note key="87" pos="240" pan="0" len="12" vol="100" />
          <note key="84" pos="264" pan="0" len="12" vol="100" />
          <note key="60" pos="288" pan="0" len="12" vol="100" />
          <note key="63" pos="312" pan="0" len="12" vol="100" />
          <note key="62" pos="336" pan="0" len="12" vol="100" />
          <note key="79" pos="360" pan="0" len="12" vol="100" />
          <note key="75" pos="384" pan="0" len="12" vol="100" />
          <note key="72" pos="408" pan="0" len="12" vol="100" />
          <note key="67" pos="432" pan="0" len="12" vol="100" />
          <note key="72" pos="456" pan="0" len="12" vol="100" />
          <note key="75" pos="480" pan="0" len="12" vol="100" />
          <note key="91" pos="504" pan="0" len="12" vol="100" />
          <note key="87" pos="528" pan="0" len="12" vol="100" />
          <note key="84" pos="552" pan="0" len="12" vol="100" />
          <note key="60" pos="576" pan="0" len="12" vol="100" />
          <note key="63" pos="600" pan="0" len="12" vol="100" />
          <note key="62" pos="624" pan="0" len="12" vol="100" />
          <note key="79" pos="648" pan="0" len="12" vol="100" />
          <note key="75" pos="672" pan="0" len="12" vol="100" />
          <note key="72" pos="696" pan="0" len="12" vol="100" />
          <note key="67" pos="720" pan="0" len="12" vol="100" />
          <note key="72" pos="744" pan="0" len="12" vol="100" />
          <note key="75" pos="768" pan="0" len="12" vol="100" />
          <note key="91" pos="792" pan="0" len="12" vol="100" />
          <note key="87" pos="816" pan="0" len="12" vol="100" />
          <note key="84" pos="840" pan="0" len="12" vol="100" />
          <note key="60" pos="864" pan="0" len="12" vol="100" />
          <note key="63" pos="888" pan="0" len="12" vol="100" />
          <note key="62" pos="912" pan="0" len="12" vol="100" />
          <note key="79" pos="936" pan="0" len="12" vol="100" />
          <note key="75" pos="960" pan="0" len="12" vol="100" />
          <note key="72" pos="984" pan="0" len="12" vol="100" />
          <note key="67" pos="1008" pan="0" len="12" vol="100" />
          <note key="72" pos="1032" pan="0" len="12" vol="100" />
          <note key="75" pos="1056" pan="0" len="12" vol="100" />
          <note key="91" pos="1080" pan="0" len="12" vol="100" />
          <note key="87" pos="1104" pan="0" len="12" vol="100" />
          <note key="84" pos="1128" pan="0" len="12" vol="100" />
        </pattern>
        <pattern pos="48000" muted="0" steps="16" name="" type="1">
          <note key="60" pos="0" pan="0" len="12" vol="100" />
          <note key="63" pos="24" pan="0" len="12" vol="100" />
          <note key="62" pos="48" pan="0" len="12" vol="100" />
          <note key="79" pos="72" pan="0" len="12" vol="100" />
          <note key="75" pos="96" pan="0" len="12" vol="100" />
          <note key="72" pos="120" pan="0" len="12" vol="100" />
          <note key="67" pos="144" pan="0" len="12" vol="100" />
          <note key="72" pos="168" pan="0" len="12" vol="100" />
          <note key="75" pos="192" pan="0" len="12" vol="100" />
          <note key="91" pos="216" pan="0" len="12" vol="100" />
          <note key="87" pos="240" pan="0" len="12" vol="100" />
          <note key="84" pos="264" pan="0" len="12" vol="100" />
          <note key="60" pos="288" pan="0" len="12" vol="100" />
          <note key="63" pos="312" pan="0" len="12" vol="100" />
          <note key="62" pos="336" pan="0" len="12" vol="100" />
          <note key="79" pos="360" pan="0" len="12" vol="100" />
          <note key="75" pos="384" pan="0" len="12" vol="100" />
          <note key="72" pos="408" pan="0" len="12" vol="100" />
          <note key="67" pos="432" pan="0" len="12" vol="100" />
          <note key="72" pos="456" pan="0" len="12" vol="100" />
          <note key="75" pos="480" pan="0" len="12" vol="100" />
          <note key="91" pos="504" pan="0" len="12" vol="100" />
          <note key="87" pos="528" pan="0" len="12" vol="100" />
          <note key="84" pos="552" pan="0" len="12" vol="100" />
          <note key="60" pos="576" pan="0" len="12" vol="100" />
          <note key="63" pos="600" pan="0" len="12" vol="100" />
          <note key="62" pos="624" pan="0" len="12" vol="100" />
          <note key="79" pos="648" pan="0" len="12" vol="100" />
          <note key="75" pos="672" pan="0" len="12" vol="100" />
          <note key="72" pos="696" pan="0" len="12" vol="100" />
          <note key="67" pos="720" pan="0" len="12" vol="100" />
          <note key="72" pos="744" pan="0" len="12" vol="100" />
          <note key="75" pos="768" pan="0" len="12" vol="100" />
          <note key="91" pos="792" pan="0" len="12" vol="100" />
          <note key="87" pos="816" pan="0" len="12" vol="100" />
          <note key="84" pos="840" pan="0" len="12" vol="100" />
          <note key="60" pos="864" pan="0" len="12" vol="100" />
          <note key="63" pos="888" pan="0" len="12" vol="100" />
          <note key="62" pos="912" pan="0" len="12" vol="100" />
          <note key="79" pos="936" pan="0" len="12" vol="100" />
          <note key="75" pos="960" pan="0" len="12" vol="100" />
          <note key="72" pos="984" pan="0" len="12" vol="100" />
          <note key="67" pos="1008" pan="0" len="12" vol="100" />
          <note key="72" pos="1032" pan="0" len="12" vol="100" />
          <note key="75" pos="1056" pan="0" len="12" vol="100" />
          <note key="91" pos="1080" pan="0" len="12" vol="100" />
          <note key="87" pos="1104" pan="0" len="12" vol="100" />
          <note key="84" pos="1128" pan="0" len="12" vol="100" />
        </pattern>
        <pattern pos="49152" muted="0" steps="16" name="" type="1">
          <note key="60" pos="0" pan="0" len="12" vol="100" />
          <note key="63" pos="24" pan="0" len="12" vol="100" />
          <note key="62" pos="48" pan="0" len="12" vol="100" />
          <note key="79" pos="72" pan="0" len="12" vol="100" />
          <note key="75" pos="96" pan="0" len="12" vol="100" />
          <note key="72" pos="120" pan="0" len="12" vol="100" />
          <note key="67" pos="144" pan="0" len="12" vol="100" />
          <note key="72" pos="168" pan="0" len="12" vol="100" />
          <note key="75" pos="192" pan="0" len="12" vol="100" />
          <note key="91" pos="216" pan="0" len="12" vol="100" />
          <note key="87" pos="240" pan="0" len="12" vol="100" />
          <note key="84" pos="264" pan="0" len="12" vol="100" />
          <note key="60" pos="288" pan="0" len="12" vol="100" />
          <note key="63" pos="312" pan="0" len="12" vol="100" />
          <note key="62" pos="336" pan="0" len="12" vol="100" />
          <note key="79" pos="360" pan="0" len="12" vol="100" />
          <note key="75" pos="384" pan="0" len="12" vol="100" />
          <note key="72" pos="408" pan="0" len="12" vol="100" />
          <note key="67" pos="432" pan="0" len="12" vol="100" />
          <note key="72" pos="456" pan="0" len="12" vol="100" />
          <note key="75" pos="480" pan="0" len="12" vol="100" />
          <note key="91" pos="504" pan="0" len="12" vol="100" />
          <note key="87" pos="528" pan="0" len="12" vol="100" />
          <note key="84" pos="552" pan="0" len="12" vol="100" />
          <note key="60" pos="576" pan="0" len="12" vol="100" />
          <note key="63" pos="600" pan="0" len="12" vol="100" />
          <note key="62" pos="624" pan="0" len="12" vol="100" />
          <note key="79" pos="648" pan="0" len="12" vol="100" />
          <note key="75" pos="672" pan="0" len="12" vol="100" />
          <note key="72" pos="696" pan="0" len="12" vol="100" />
          <note key="67" pos="720" pan="0" len="12" vol="100" />
          <note key="72" pos="744" pan="0" len="12" vol="100" />
          <note key="75" pos="768" pan="0" len="12" vol="100" />
          <note key="91" pos="792" pan="0" len="12" vol="100" />
          <note key="87" pos="816" pan="0" len="12" vol="100" />
          <note key="84" pos="840" pan="0" len="12" vol="100" />
          <note key="60" pos="864" pan="0" len="12" vol="100" />
          <note key="63" pos="888" pan="0" len="12" vol="100" />
          <note key="62" pos="912" pan="0" len="12" vol="100" />
          <note key="79" pos="936" pan="0" len="12" vol="100" />
          <note key="75" pos="960" pan="0" len="12" vol="100" />
          <note key="72" pos="984" pan="0" len="12" vol="100" />
          <note key="67" pos="1008" pan="0" len="12" vol="100" />
          <note key="72" pos="1032" pan="0" len="12" vol="100" />
          <note key="75" pos="1056" pan="0" len="12" vol="100" />
          <note key="91" pos="1080" pan="0" len="12" vol="100" />
          <note key="87" pos="1104" pan="0" len="12" vol="100" />
          <note key="84" pos="1128" pan="0" len="12" vol="100" />
        </pattern>
        <pattern pos="50304" muted="0" steps="16" name="" type="1">
          <note key="60" pos="0" pan="0" len="12" vol="100" />
          <note key="63" pos="24" pan="0" len="12" vol="100" />
          <note key="62" pos="48" pan="0" len="12" vol="100" />
          <note key="79" pos="72" pan="0" len="12" vol="100" />
          <note key="75" pos="96" pan="0" len="12" vol="100" />
          <note key="72" pos="120" pan="0" len="12" vol="100" />
          <note key="67" pos="144" pan="0" len="12" vol="100" />
          <note key="72" pos="168" pan="0" len="12" vol="100" />
          <note key="75" pos="192" pan="0" len="12" vol="100" />
          <note key="91" pos="216" pan="0" len="12" vol="100" />
          <note key="87" pos="240" pan="0" len="12" vol="100" />
          <note key="84" pos="264" pan="0" len="12" vol="100" />
          <note key="60" pos="288" pan="0" len="12" vol="100" />
          <note key="63" pos="312" pan="0" len="12" vol="100" />
          <note key="62" pos="336" pan="0" len="12" vol="100" />
          <note key="79" pos="360" pan="0" len="12" vol="100" />
          <note key="75" pos="384" pan="0" len="12" vol="100" />
          <note key="72" pos="408" pan="0" len="12" vol="100" />
          <note key="67" pos="432" pan="0" len="12" vol="100" />
          <note key="72" pos="456" pan="0" len="12" vol="100" />
          <note key="75" pos="480" pan="0" len="12" vol="100" />
          <note key="91" pos="504" pan="0" len="12" vol="100" />
          <note key="87" pos="528" pan="0" len="12" vol="100" />
          <note key="84" pos="552" pan="0" len="12" vol="100" />
          <note key="60" pos="576" pan="0" len="12" vol="100" />
          <note key="63" pos="600" pan="0" len="12" vol="100" />
          <note key="62" pos="624" pan="0" len="12" vol="100" />
          <note key="79" pos="648" pan="0" len="12" vol="100" />
          <note key="75" pos="672" pan="0" len="12" vol="100" />
          <note key="72" pos="696" pan="0" len="12" vol="100" />
          <note key="67" pos="720" pan="0" len="12" vol="100" />
          <note key="72" pos="744" pan="0" len="12" vol="100" />
          <note key="75" pos="768" pan="0" len="12" vol="100" />
          <note key="91" pos="792" pan="0" len="12" vol="100" />
          <note key="87" pos="816" pan="0" len="12" vol="100" />
          <note key="84" pos="840" pan="0" len="12" vol="100" />
          <note key="60" pos="864" pan="0" len="12" vol="100" />
          <note key="63" pos="888" pan="0" len="12" vol="100" />
          <note key="62" pos="912" pan="0" len="12" vol="100" />
          <note key="79" pos="936" pan="0" len="12" vol="100" />
          <note key="75" pos="960" pan="0" len="12" vol="100" />
          <note key="72" pos="984" pan="0" len="12" vol="100" />
          <note key="67" pos="1008" pan="0" len="12" vol="100" />
          <note key="72" pos="1032" pan="0" len="12" vol="100" />
          <note key="75" pos="1056" pan="0" len="12" vol="100" />
          <note key="91" pos="1080" pan="0" len="12" vol="100" />
          <note key="87" pos="1104" pan="0" len="12" vol="100" />
          <note key="84" pos="1128" pan="0" len="12" vol="100" />
        </pattern>
        <pattern pos="53760" muted="0" steps="16" name="" type="1">
          <note key="75" pos="0" pan="0" len="12" vol="100" />
          <note key="74" pos="24" pan="0" len="12" vol="100" />
          <note key="70" pos="48" pan="0" len="12" vol="100" />
          <note key="72" pos="72" pan="0" len="12" vol="100" />
          <note key="72" pos="744" pan="0" len="12" vol="100" />
          <note key="75" pos="768" pan="0" len="12" vol="100" />
          <note key="74" pos="792" pan="0" len="12" vol="100" />
          <note key="70" pos="816" pan="0" len="12" vol="100" />
          <note key="72" pos="840" pan="0" len="12" vol="100" />
          <note key="79" pos="864" pan="0" len="12" vol="100" />
          <note key="72" pos="1512" pan="0" len="12" vol="100" />
        </pattern>
        <pattern pos="55296" muted="0" steps="16" name="" type="1">
          <note key="75" pos="0" pan="0" len="12" vol="100" />
          <note key="74" pos="24" pan="0" len="12" vol="100" />
          <note key="70" pos="48" pan="0" len="12" vol="100" />
          <note key="72" pos="72" pan="0" len="12" vol="100" />
          <note key="77" pos="96" pan="0" len="12" vol="100" />
          <note key="72" pos="744" pan="0" len="12" vol="100" />
          <note key="75" pos="768" pan="0" len="12" vol="100" />
          <note key="74" pos="792" pan="0" len="12" vol="100" />
          <note key="70" pos="816" pan="0" len="12" vol="100" />
          <note key="72" pos="840" pan="0" len="12" vol="100" />
          <note key="79" pos="864" pan="0" len="12" vol="100" />
          <note key="70" pos="1488" pan="0" len="12" vol="100" />
          <note key="72" pos="1512" pan="0" len="12" vol="100" />
        </pattern>
        <pattern pos="56832" muted="0" steps="16" name="" type="1">
          <note key="75" pos="0" pan="0" len="12" vol="100" />
          <note key="74" pos="24" pan="0" len="12" vol="100" />
          <note key="70" pos="48" pan="0" len="12" vol="100" />
          <note key="72" pos="72" pan="0" len="12" vol="100" />
          <note key="84" pos="1152" pan="0" len="12" vol="100" />
          <note key="86" pos="1164" pan="0" len="12" vol="100" />
          <note key="87" pos="1176" pan="0" len="12" vol="100" />
          <note key="89" pos="1188" pan="0" len="12" vol="100" />
          <note key="91" pos="1200" pan="0" len="48" vol="100" />
          <note key="72" pos="1512" pan="0" len="12" vol="100" />
        </pattern>
        <pattern pos="58368" muted="0" steps="16" name="" type="1">
          <note key="75" pos="0" pan="0" len="12" vol="100" />
          <note key="74" pos="24" pan="0" len="12" vol="100" />
          <note key="70" pos="48" pan="0" len="12" vol="100" />
          <note key="72" pos="72" pan="0" len="12" vol="100" />
          <note key="67" pos="312" pan="0" len="12" vol="100" />
          <note key="70" pos="336" pan="0" len="12" vol="100" />
          <note key="67" pos="360" pan="0" len="12" vol="100" />
          <note key="75" pos="384" pan="0" len="12" vol="100" />
          <note key="74" pos="408" pan="0" len="12" vol="100" />
          <note key="70" pos="432" pan="0" len="12" vol="100" />
          <note key="72" pos="456" pan="0" len="12" vol="100" />
          <note key="72" pos="744" pan="0" len="24" vol="100" />
          <note key="77" pos="768" pan="0" len="24" vol="100" />
          <note key="72" pos="792" pan="0" len="24" vol="100" />
          <note key="75" pos="816" pan="0" len="24" vol="100" />
          <note key="77" pos="840" pan="0" len="264" vol="100" />
          <note key="79" pos="1104" pan="0" len="24" vol="100" />
          <note key="82" pos="1128" pan="0" len="24" vol="100" />
          <note key="81" pos="1152" pan="0" len="24" vol="100" />
          <note key="77" pos="1176" pan="0" len="24" vol="100" />
          <note key="79" pos="1200" pan="0" len="24" vol="100" />
          <note key="72" pos="1224" pan="0" len="312" vol="100" />
        </pattern>
        <pattern pos="59904" muted="0" steps="16" name="" type="1">
          <note key="75" pos="0" pan="0" len="12" vol="100" />
          <note key="74" pos="24" pan="0" len="12" vol="100" />
          <note key="70" pos="48" pan="0" len="12" vol="100" />
          <note key="72" pos="72" pan="0" len="12" vol="100" />
        </pattern>
        <pattern pos="61440" muted="0" steps="16" name="" type="1">
          <note key="75" pos="0" pan="0" len="12" vol="100" />
          <note key="74" pos="24" pan="0" len="12" vol="100" />
          <note key="70" pos="48" pan="0" len="12" vol="100" />
          <note key="72" pos="72" pan="0" len="12" vol="100" />
        </pattern>
        <pattern pos="62976" muted="0" steps="16" name="" type="1">
          <note key="75" pos="0" pan="0" len="12" vol="100" />
          <note key="74" pos="24" pan="0" len="12" vol="100" />
          <note key="70" pos="48" pan="0" len="12" vol="100" />
          <note key="72" pos="72" pan="0" len="12" vol="100" />
        </pattern>
        <pattern pos="64512" muted="0" steps="16" name="" type="1">
          <note key="75" pos="0" pan="0" len="12" vol="100" />
          <note key="74" pos="24" pan="0" len="12" vol="100" />
          <note key="70" pos="48" pan="0" len="12" vol="100" />
          <note key="72" pos="72" pan="0" len="12" vol="100" />
          <note key="75" pos="768" pan="0" len="12" vol="100" />
          <note key="74" pos="792" pan="0" len="12" vol="100" />
          <note key="70" pos="816" pan="0" len="12" vol="100" />
          <note key="72" pos="840" pan="0" len="12" vol="100" />
        </pattern>
        <pattern pos="66048" muted="0" steps="16" name="" type="1">
          <note key="75" pos="0" pan="0" len="12" vol="100" />
          <note key="74" pos="24" pan="0" len="12" vol="100" />
          <note key="70" pos="48" pan="0" len="12" vol="100" />
          <note key="72" pos="72" pan="0" len="12" vol="100" />
          <note key="75" pos="768" pan="0" len="12" vol="100" />
          <note key="74" pos="792" pan="0" len="12" vol="100" />
          <note key="70" pos="816" pan="0" len="12" vol="100" />
          <note key="72" pos="840" pan="0" len="12" vol="100" />
        </pattern>
        <pattern pos="67584" muted="0" steps="16" name="" type="1">
          <note key="75" pos="0" pan="0" len="12" vol="100" />
          <note key="74" pos="24" pan="0" len="12" vol="100" />
          <note key="70" pos="48" pan="0" len="12" vol="100" />
          <note key="72" pos="72" pan="0" len="12" vol="100" />
          <note key="84" pos="1152" pan="0" len="12" vol="100" />
          <note key="86" pos="1164" pan="0" len="12" vol="100" />
          <note key="87" pos="1176" pan="0" len="12" vol="100" />
          <note key="89" pos="1188" pan="0" len="12" vol="100" />
          <note key="91" pos="1200" pan="0" len="48" vol="100" />
          <note key="72" pos="1512" pan="0" len="12" vol="100" />
        </pattern>
        <pattern pos="69120" muted="0" steps="16" name="" type="1">
          <note key="75" pos="0" pan="0" len="12" vol="100" />
          <note key="74" pos="24" pan="0" len="12" vol="100" />
          <note key="70" pos="48" pan="0" len="12" vol="100" />
          <note key="72" pos="72" pan="0" len="12" vol="100" />
        </pattern>
        <pattern pos="70656" muted="0" steps="16" name="" type="1">
          <note key="75" pos="0" pan="0" len="12" vol="100" />
          <note key="74" pos="24" pan="0" len="12" vol="100" />
          <note key="70" pos="48" pan="0" len="12" vol="100" />
          <note key="72" pos="72" pan="0" len="12" vol="100" />
        </pattern>
        <pattern pos="72192" muted="0" steps="16" name="" type="1">
          <note key="75" pos="0" pan="0" len="12" vol="100" />
          <note key="74" pos="24" pan="0" len="12" vol="100" />
          <note key="70" pos="48" pan="0" len="12" vol="100" />
          <note key="72" pos="72" pan="0" len="12" vol="100" />
        </pattern>
        <pattern pos="73728" muted="0" steps="16" name="" type="1">
          <note key="75" pos="0" pan="0" len="12" vol="100" />
          <note key="74" pos="24" pan="0" len="12" vol="100" />
          <note key="70" pos="48" pan="0" len="12" vol="100" />
          <note key="72" pos="72" pan="0" len="12" vol="100" />
          <note key="75" pos="768" pan="0" len="12" vol="100" />
          <note key="74" pos="792" pan="0" len="12" vol="100" />
          <note key="70" pos="816" pan="0" len="12" vol="100" />
          <note key="72" pos="840" pan="0" len="12" vol="100" />
        </pattern>
        <pattern pos="75264" muted="0" steps="16" name="" type="1">
          <note key="75" pos="0" pan="0" len="12" vol="100" />
          <note key="74" pos="24" pan="0" len="12" vol="100" />
          <note key="70" pos="48" pan="0" len="12" vol="100" />
          <note key="72" pos="72" pan="0" len="12" vol="100" />
          <note key="75" pos="768" pan="0" len="12" vol="100" />
          <note key="74" pos="792" pan="0" len="12" vol="100" />
          <note key="70" pos="816" pan="0" len="12" vol="100" />
          <note key="72" pos="840" pan="0" len="12" vol="100" />
        </pattern>
        <pattern pos="164352" muted="0" steps="16" name="" type="1">
          <note key="79" pos="768" pan="0" len="48" vol="100" />
          <note key="82" pos="816" pan="0" len="48" vol="100" />
          <note key="84" pos="864" pan="0" len="72" vol="100" />
          <note key="82" pos="936" pan="0" len="48" vol="100" />
          <note key="84" pos="984" pan="0" len="48" vol="100" />
          <note key="82" pos="1032" pan="0" len="24" vol="100" />
          <note key="84" pos="1056" pan="0" len="48" vol="100" />
          <note key="82" pos="1104" pan="0" len="48" vol="100" />
          <note key="77" pos="1152" pan="0" len="144" vol="100" />
          <note key="79" pos="1296" pan="0" len="24" vol="100" />
          <note key="72" pos="1320" pan="0" len="168" vol="100" />
          <note key="72" pos="1488" pan="0" len="24" vol="100" />
          <note key="74" pos="1512" pan="0" len="24" vol="100" />
        </pattern>
        <pattern pos="165888" muted="0" steps="16" name="" type="1">
          <note key="87" pos="0" pan="0" len="144" vol="100" />
          <note key="86" pos="144" pan="0" len="24" vol="100" />
          <note key="84" pos="168" pan="0" len="24" vol="100" />
          <note key="86" pos="192" pan="0" len="72" vol="100" />
          <note key="79" pos="264" pan="0" len="72" vol="100" />
          <note key="84" pos="336" pan="0" len="192" vol="100" />
          <note key="82" pos="528" pan="0" len="24" vol="100" />
          <note key="80" pos="552" pan="0" len="24" vol="100" />
          <note key="82" pos="576" pan="0" len="96" vol="100" />
          <note key="75" pos="672" pan="0" len="48" vol="100" />
          <note key="74" pos="720" pan="0" len="48" vol="100" />
          <note key="75" pos="768" pan="0" len="144" vol="100" />
          <note key="74" pos="912" pan="0" len="24" vol="100" />
          <note key="72" pos="936" pan="0" len="24" vol="100" />
          <note key="74" pos="960" pan="0" len="96" vol="100" />
          <note key="67" pos="1056" pan="0" len="96" vol="100" />
          <note key="72" pos="1152" pan="0" len="144" vol="100" />
          <note key="70" pos="1296" pan="0" len="24" vol="100" />
          <note key="68" pos="1320" pan="0" len="24" vol="100" />
          <note key="70" pos="1344" pan="0" len="144" vol="100" />
          <note key="67" pos="1488" pan="0" len="24" vol="100" />
          <note key="70" pos="1512" pan="0" len="24" vol="100" />
        </pattern>
        <pattern pos="167424" muted="0" steps="16" name="" type="1">
          <note key="87" pos="0" pan="0" len="120" vol="100" />
          <note key="77" pos="120" pan="0" len="48" vol="100" />
          <note key="79" pos="168" pan="0" len="24" vol="100" />
          <note key="74" pos="192" pan="0" len="72" vol="100" />
          <note key="70" pos="264" pan="0" len="72" vol="100" />
          <note key="84" pos="336" pan="0" len="192" vol="100" />
          <note key="75" pos="528" pan="0" len="24" vol="100" />
          <note key="74" pos="552" pan="0" len="24" vol="100" />
          <note key="70" pos="576" pan="0" len="120" vol="100" />
          <note key="67" pos="696" pan="0" len="48" vol="100" />
          <note key="70" pos="744" pan="0" len="24" vol="100" />
          <note key="72" pos="768" pan="0" len="144" vol="100" />
          <note key="74" pos="912" pan="0" len="24" vol="100" />
          <note key="72" pos="936" pan="0" len="24" vol="100" />
          <note key="74" pos="960" pan="0" len="96" vol="100" />
          <note key="67" pos="1056" pan="0" len="96" vol="100" />
          <note key="65" pos="1152" pan="0" len="96" vol="100" />
          <note key="70" pos="1248" pan="0" len="96" vol="100" />
          <note key="72" pos="1344" pan="0" len="96" vol="100" />
          <note key="75" pos="1440" pan="0" len="48" vol="100" />
          <note key="74" pos="1488" pan="0" len="48" vol="100" />
        </pattern>
        <pattern pos="168960" muted="0" steps="16" name="" type="1">
          <note key="79" pos="768" pan="0" len="48" vol="100" />
          <note key="82" pos="816" pan="0" len="48" vol="100" />
          <note key="84" pos="864" pan="0" len="72" vol="100" />
          <note key="82" pos="936" pan="0" len="48" vol="100" />
          <note key="84" pos="984" pan="0" len="48" vol="100" />
          <note key="82" pos="1032" pan="0" len="24" vol="100" />
          <note key="84" pos="1056" pan="0" len="48" vol="100" />
          <note key="82" pos="1104" pan="0" len="48" vol="100" />
          <note key="77" pos="1152" pan="0" len="144" vol="100" />
          <note key="79" pos="1296" pan="0" len="24" vol="100" />
          <note key="72" pos="1320" pan="0" len="192" vol="100" />
          <note key="72" pos="1512" pan="0" len="24" vol="100" />
        </pattern>
        <pattern pos="170496" muted="0" steps="16" name="" type="1">
          <note key="79" pos="768" pan="0" len="48" vol="100" />
          <note key="82" pos="816" pan="0" len="48" vol="100" />
          <note key="84" pos="864" pan="0" len="72" vol="100" />
          <note key="82" pos="936" pan="0" len="48" vol="100" />
          <note key="84" pos="984" pan="0" len="48" vol="100" />
          <note key="82" pos="1032" pan="0" len="24" vol="100" />
          <note key="84" pos="1056" pan="0" len="48" vol="100" />
          <note key="82" pos="1104" pan="0" len="48" vol="100" />
          <note key="77" pos="1152" pan="0" len="144" vol="100" />
          <note key="79" pos="1296" pan="0" len="24" vol="100" />
          <note key="72" pos="1320" pan="0" len="168" vol="100" />
          <note key="72" pos="1488" pan="0" len="24" vol="100" />
          <note key="74" pos="1512" pan="0" len="24" vol="100" />
        </pattern>
        <pattern pos="172032" muted="0" steps="16" name="" type="1">
          <note key="87" pos="0" pan="0" len="144" vol="100" />
          <note key="86" pos="144" pan="0" len="24" vol="100" />
          <note key="84" pos="168" pan="0" len="24" vol="100" />
          <note key="86" pos="192" pan="0" len="72" vol="100" />
          <note key="79" pos="264" pan="0" len="72" vol="100" />
          <note key="84" pos="336" pan="0" len="192" vol="100" />
          <note key="82" pos="528" pan="0" len="24" vol="100" />
          <note key="80" pos="552" pan="0" len="24" vol="100" />
          <note key="82" pos="576" pan="0" len="96" vol="100" />
          <note key="75" pos="672" pan="0" len="48" vol="100" />
          <note key="74" pos="720" pan="0" len="48" vol="100" />
          <note key="75" pos="768" pan="0" len="144" vol="100" />
          <note key="74" pos="912" pan="0" len="24" vol="100" />
          <note key="72" pos="936" pan="0" len="24" vol="100" />
          <note key="74" pos="960" pan="0" len="96" vol="100" />
          <note key="67" pos="1056" pan="0" len="96" vol="100" />
          <note key="72" pos="1152" pan="0" len="144" vol="100" />
          <note key="70" pos="1296" pan="0" len="24" vol="100" />
          <note key="68" pos="1320" pan="0" len="24" vol="100" />
          <note key="70" pos="1344" pan="0" len="144" vol="100" />
          <note key="67" pos="1488" pan="0" len="24" vol="100" />
          <note key="70" pos="1512" pan="0" len="24" vol="100" />
        </pattern>
        <pattern pos="173568" muted="0" steps="16" name="" type="1">
          <note key="87" pos="0" pan="0" len="120" vol="100" />
          <note key="77" pos="120" pan="0" len="48" vol="100" />
          <note key="79" pos="168" pan="0" len="24" vol="100" />
          <note key="74" pos="192" pan="0" len="72" vol="100" />
          <note key="70" pos="264" pan="0" len="72" vol="100" />
          <note key="84" pos="336" pan="0" len="192" vol="100" />
          <note key="75" pos="528" pan="0" len="24" vol="100" />
          <note key="74" pos="552" pan="0" len="24" vol="100" />
          <note key="70" pos="576" pan="0" len="120" vol="100" />
          <note key="67" pos="696" pan="0" len="48" vol="100" />
          <note key="70" pos="744" pan="0" len="24" vol="100" />
          <note key="72" pos="768" pan="0" len="144" vol="100" />
          <note key="74" pos="912" pan="0" len="24" vol="100" />
          <note key="72" pos="936" pan="0" len="24" vol="100" />
          <note key="74" pos="960" pan="0" len="96" vol="100" />
          <note key="67" pos="1056" pan="0" len="96" vol="100" />
          <note key="65" pos="1152" pan="0" len="96" vol="100" />
          <note key="70" pos="1248" pan="0" len="96" vol="100" />
          <note key="72" pos="1344" pan="0" len="96" vol="100" />
          <note key="75" pos="1440" pan="0" len="48" vol="100" />
          <note key="74" pos="1488" pan="0" len="48" vol="100" />
        </pattern>
        <pattern pos="175104" muted="0" steps="16" name="" type="1">
          <note key="72" pos="0" pan="0" len="1536" vol="100" />
        </pattern>
        <pattern pos="185856" muted="0" steps="16" name="" type="1">
          <note key="71" pos="0" pan="0" len="24" vol="100" />
          <note key="63" pos="24" pan="0" len="24" vol="100" />
          <note key="64" pos="48" pan="0" len="24" vol="100" />
          <note key="71" pos="72" pan="0" len="24" vol="100" />
          <note key="63" pos="96" pan="0" len="24" vol="100" />
          <note key="64" pos="120" pan="0" len="24" vol="100" />
          <note key="71" pos="144" pan="0" len="12" vol="100" />
          <note key="63" pos="156" pan="0" len="12" vol="100" />
          <note key="64" pos="168" pan="0" len="24" vol="100" />
          <note key="71" pos="192" pan="0" len="24" vol="100" />
          <note key="63" pos="216" pan="0" len="24" vol="100" />
          <note key="64" pos="240" pan="0" len="24" vol="100" />
          <note key="71" pos="264" pan="0" len="24" vol="100" />
          <note key="63" pos="288" pan="0" len="24" vol="100" />
          <note key="64" pos="312" pan="0" len="24" vol="100" />
          <note key="71" pos="336" pan="0" len="12" vol="100" />
          <note key="63" pos="348" pan="0" len="12" vol="100" />
          <note key="64" pos="360" pan="0" len="24" vol="100" />
          <note key="71" pos="384" pan="0" len="24" vol="100" />
          <note key="63" pos="408" pan="0" len="24" vol="100" />
          <note key="64" pos="432" pan="0" len="24" vol="100" />
          <note key="71" pos="456" pan="0" len="24" vol="100" />
          <note key="63" pos="480" pan="0" len="24" vol="100" />
          <note key="64" pos="504" pan="0" len="24" vol="100" />
          <note key="71" pos="528" pan="0" len="12" vol="100" />
          <note key="63" pos="540" pan="0" len="12" vol="100" />
          <note key="64" pos="552" pan="0" len="24" vol="100" />
          <note key="71" pos="576" pan="0" len="24" vol="100" />
          <note key="63" pos="600" pan="0" len="24" vol="100" />
          <note key="64" pos="624" pan="0" len="24" vol="100" />
          <note key="73" pos="648" pan="0" len="24" vol="100" />
          <note key="63" pos="672" pan="0" len="24" vol="100" />
          <note key="64" pos="696" pan="0" len="24" vol="100" />
          <note key="71" pos="720" pan="0" len="12" vol="100" />
          <note key="63" pos="732" pan="0" len="12" vol="100" />
          <note key="64" pos="744" pan="0" len="24" vol="100" />
          <note key="71" pos="768" pan="0" len="24" vol="100" />
          <note key="63" pos="792" pan="0" len="24" vol="100" />
          <note key="64" pos="816" pan="0" len="24" vol="100" />
          <note key="71" pos="840" pan="0" len="24" vol="100" />
          <note key="63" pos="864" pan="0" len="24" vol="100" />
          <note key="64" pos="888" pan="0" len="24" vol="100" />
          <note key="71" pos="912" pan="0" len="12" vol="100" />
          <note key="63" pos="924" pan="0" len="12" vol="100" />
          <note key="64" pos="936" pan="0" len="24" vol="100" />
          <note key="71" pos="960" pan="0" len="24" vol="100" />
          <note key="63" pos="984" pan="0" len="24" vol="100" />
          <note key="64" pos="1008" pan="0" len="24" vol="100" />
          <note key="71" pos="1032" pan="0" len="24" vol="100" />
          <note key="63" pos="1056" pan="0" len="24" vol="100" />
          <note key="64" pos="1080" pan="0" len="24" vol="100" />
          <note key="71" pos="1104" pan="0" len="12" vol="100" />
          <note key="63" pos="1116" pan="0" len="12" vol="100" />
          <note key="64" pos="1128" pan="0" len="24" vol="100" />
          <note key="71" pos="1152" pan="0" len="24" vol="100" />
          <note key="63" pos="1176" pan="0" len="24" vol="100" />
          <note key="64" pos="1200" pan="0" len="24" vol="100" />
          <note key="71" pos="1224" pan="0" len="24" vol="100" />
          <note key="63" pos="1248" pan="0" len="24" vol="100" />
          <note key="64" pos="1272" pan="0" len="24" vol="100" />
          <note key="71" pos="1296" pan="0" len="12" vol="100" />
          <note key="63" pos="1308" pan="0" len="12" vol="100" />
          <note key="64" pos="1320" pan="0" len="24" vol="100" />
          <note key="71" pos="1344" pan="0" len="24" vol="100" />
          <note key="63" pos="1368" pan="0" len="24" vol="100" />
          <note key="64" pos="1392" pan="0" len="24" vol="100" />
          <note key="73" pos="1416" pan="0" len="24" vol="100" />
          <note key="63" pos="1440" pan="0" len="24" vol="100" />
          <note key="64" pos="1464" pan="0" len="24" vol="100" />
          <note key="71" pos="1488" pan="0" len="12" vol="100" />
          <note key="63" pos="1500" pan="0" len="12" vol="100" />
          <note key="64" pos="1512" pan="0" len="24" vol="100" />
        </pattern>
        <pattern pos="187392" muted="0" steps="16" name="" type="1">
          <note key="71" pos="0" pan="0" len="24" vol="100" />
          <note key="63" pos="24" pan="0" len="24" vol="100" />
          <note key="64" pos="48" pan="0" len="24" vol="100" />
          <note key="71" pos="72" pan="0" len="24" vol="100" />
          <note key="63" pos="96" pan="0" len="24" vol="100" />
          <note key="64" pos="120" pan="0" len="24" vol="100" />
          <note key="71" pos="144" pan="0" len="12" vol="100" />
          <note key="63" pos="156" pan="0" len="12" vol="100" />
          <note key="64" pos="168" pan="0" len="24" vol="100" />
          <note key="71" pos="192" pan="0" len="24" vol="100" />
          <note key="63" pos="216" pan="0" len="24" vol="100" />
          <note key="64" pos="240" pan="0" len="24" vol="100" />
          <note key="71" pos="264" pan="0" len="24" vol="100" />
          <note key="63" pos="288" pan="0" len="24" vol="100" />
          <note key="64" pos="312" pan="0" len="24" vol="100" />
          <note key="71" pos="336" pan="0" len="12" vol="100" />
          <note key="63" pos="348" pan="0" len="12" vol="100" />
          <note key="64" pos="360" pan="0" len="24" vol="100" />
          <note key="71" pos="384" pan="0" len="24" vol="100" />
          <note key="63" pos="408" pan="0" len="24" vol="100" />
          <note key="64" pos="432" pan="0" len="24" vol="100" />
          <note key="71" pos="456" pan="0" len="24" vol="100" />
          <note key="63" pos="480" pan="0" len="24" vol="100" />
          <note key="64" pos="504" pan="0" len="24" vol="100" />
          <note key="71" pos="528" pan="0" len="12" vol="100" />
          <note key="63" pos="540" pan="0" len="12" vol="100" />
          <note key="64" pos="552" pan="0" len="24" vol="100" />
          <note key="71" pos="576" pan="0" len="24" vol="100" />
          <note key="63" pos="600" pan="0" len="24" vol="100" />
          <note key="64" pos="624" pan="0" len="24" vol="100" />
          <note key="73" pos="648" pan="0" len="24" vol="100" />
          <note key="63" pos="672" pan="0" len="24" vol="100" />
          <note key="64" pos="696" pan="0" len="24" vol="100" />
          <note key="71" pos="720" pan="0" len="12" vol="100" />
          <note key="63" pos="732" pan="0" len="12" vol="100" />
          <note key="64" pos="744" pan="0" len="24" vol="100" />
          <note key="71" pos="768" pan="0" len="24" vol="100" />
          <note key="63" pos="792" pan="0" len="24" vol="100" />
          <note key="64" pos="816" pan="0" len="24" vol="100" />
          <note key="71" pos="840" pan="0" len="24" vol="100" />
          <note key="63" pos="864" pan="0" len="24" vol="100" />
          <note key="64" pos="888" pan="0" len="24" vol="100" />
          <note key="71" pos="912" pan="0" len="12" vol="100" />
          <note key="63" pos="924" pan="0" len="12" vol="100" />
          <note key="64" pos="936" pan="0" len="24" vol="100" />
          <note key="71" pos="960" pan="0" len="24" vol="100" />
          <note key="63" pos="984" pan="0" len="24" vol="100" />
          <note key="64" pos="1008" pan="0" len="24" vol="100" />
          <note key="71" pos="1032" pan="0" len="24" vol="100" />
          <note key="63" pos="1056" pan="0" len="24" vol="100" />
          <note key="64" pos="1080" pan="0" len="24" vol="100" />
          <note key="71" pos="1104" pan="0" len="12" vol="100" />
          <note key="63" pos="1116" pan="0" len="12" vol="100" />
          <note key="64" pos="1128" pan="0" len="24" vol="100" />
          <note key="71" pos="1152" pan="0" len="24" vol="100" />
          <note key="63" pos="1176" pan="0" len="24" vol="100" />
          <note key="64" pos="1200" pan="0" len="24" vol="100" />
          <note key="71" pos="1224" pan="0" len="24" vol="100" />
          <note key="63" pos="1248" pan="0" len="24" vol="100" />
          <note key="64" pos="1272" pan="0" len="24" vol="100" />
          <note key="71" pos="1296" pan="0" len="12" vol="100" />
          <note key="63" pos="1308" pan="0" len="12" vol="100" />
          <note key="64" pos="1320" pan="0" len="24" vol="100" />
          <note key="71" pos="1344" pan="0" len="24" vol="100" />
          <note key="63" pos="1368" pan="0" len="24" vol="100" />
          <note key="64" pos="1392" pan="0" len="24" vol="100" />
          <note key="73" pos="1416" pan="0" len="24" vol="100" />
          <note key="63" pos="1440" pan="0" len="24" vol="100" />
          <note key="64" pos="1464" pan="0" len="24" vol="100" />
          <note key="71" pos="1488" pan="0" len="12" vol="100" />
          <note key="63" pos="1500" pan="0" len="12" vol="100" />
          <note key="64" pos="1512" pan="0" len="24" vol="100" />
        </pattern>
        <pattern pos="190464" muted="0" steps="16" name="" type="1">
          <note key="71" pos="0" pan="0" len="24" vol="100" />
          <note key="63" pos="24" pan="0" len="24" vol="100" />
          <note key="64" pos="48" pan="0" len="24" vol="100" />
          <note key="71" pos="72" pan="0" len="24" vol="100" />
          <note key="63" pos="96" pan="0" len="24" vol="100" />
          <note key="64" pos="120" pan="0" len="24" vol="100" />
          <note key="71" pos="144" pan="0" len="12" vol="100" />
          <note key="63" pos="156" pan="0" len="12" vol="100" />
          <note key="64" pos="168" pan="0" len="24" vol="100" />
          <note key="71" pos="192" pan="0" len="24" vol="100" />
          <note key="63" pos="216" pan="0" len="24" vol="100" />
          <note key="64" pos="240" pan="0" len="24" vol="100" />
          <note key="71" pos="264" pan="0" len="24" vol="100" />
          <note key="63" pos="288" pan="0" len="24" vol="100" />
          <note key="64" pos="312" pan="0" len="24" vol="100" />
          <note key="71" pos="336" pan="0" len="12" vol="100" />
          <note key="63" pos="348" pan="0" len="12" vol="100" />
          <note key="64" pos="360" pan="0" len="24" vol="100" />
          <note key="71" pos="384" pan="0" len="24" vol="100" />
          <note key="63" pos="408" pan="0" len="24" vol="100" />
          <note key="64" pos="432" pan="0" len="24" vol="100" />
          <note key="71" pos="456" pan="0" len="24" vol="100" />
          <note key="63" pos="480" pan="0" len="24" vol="100" />
          <note key="64" pos="504" pan="0" len="24" vol="100" />
          <note key="71" pos="528" pan="0" len="12" vol="100" />
          <note key="63" pos="540" pan="0" len="12" vol="100" />
          <note key="64" pos="552" pan="0" len="24" vol="100" />
          <note key="71" pos="576" pan="0" len="24" vol="100" />
          <note key="63" pos="600" pan="0" len="24" vol="100" />
          <note key="64" pos="624" pan="0" len="24" vol="100" />
          <note key="73" pos="648" pan="0" len="24" vol="100" />
          <note key="63" pos="672" pan="0" len="24" vol="100" />
          <note key="64" pos="696" pan="0" len="24" vol="100" />
          <note key="71" pos="720" pan="0" len="12" vol="100" />
          <note key="63" pos="732" pan="0" len="12" vol="100" />
          <note key="64" pos="744" pan="0" len="24" vol="100" />
          <note key="71" pos="768" pan="0" len="24" vol="100" />
          <note key="63" pos="792" pan="0" len="24" vol="100" />
          <note key="64" pos="816" pan="0" len="24" vol="100" />
          <note key="71" pos="840" pan="0" len="24" vol="100" />
          <note key="63" pos="864" pan="0" len="24" vol="100" />
          <note key="64" pos="888" pan="0" len="24" vol="100" />
          <note key="71" pos="912" pan="0" len="12" vol="100" />
          <note key="63" pos="924" pan="0" len="12" vol="100" />
          <note key="64" pos="936" pan="0" len="24" vol="100" />
          <note key="71" pos="960" pan="0" len="24" vol="100" />
          <note key="63" pos="984" pan="0" len="24" vol="100" />
          <note key="64" pos="1008" pan="0" len="24" vol="100" />
          <note key="71" pos="1032" pan="0" len="24" vol="100" />
          <note key="63" pos="1056" pan="0" len="24" vol="100" />
          <note key="64" pos="1080" pan="0" len="24" vol="100" />
          <note key="71" pos="1104" pan="0" len="12" vol="100" />
          <note key="63" pos="1116" pan="0" len="12" vol="100" />
          <note key="64" pos="1128" pan="0" len="24" vol="100" />
          <note key="71" pos="1152" pan="0" len="24" vol="100" />
          <note key="63" pos="1176" pan="0" len="24" vol="100" />
          <note key="64" pos="1200" pan="0" len="24" vol="100" />
          <note key="71" pos="1224" pan="0" len="24" vol="100" />
          <note key="63" pos="1248" pan="0" len="24" vol="100" />
          <note key="64" pos="1272" pan="0" len="24" vol="100" />
          <note key="71" pos="1296" pan="0" len="12" vol="100" />
          <note key="63" pos="1308" pan="0" len="12" vol="100" />
          <note key="64" pos="1320" pan="0" len="24" vol="100" />
          <note key="71" pos="1344" pan="0" len="24" vol="100" />
          <note key="63" pos="1368" pan="0" len="24" vol="100" />
          <note key="64" pos="1392" pan="0" len="24" vol="100" />
          <note key="73" pos="1416" pan="0" len="24" vol="100" />
          <note key="63" pos="1440" pan="0" len="24" vol="100" />
          <note key="64" pos="1464" pan="0" len="24" vol="100" />
          <note key="71" pos="1488" pan="0" len="12" vol="100" />
          <note key="63" pos="1500" pan="0" len="12" vol="100" />
          <note key="64" pos="1512" pan="0" len="24" vol="100" />
        </pattern>
        <pattern pos="192000" muted="0" steps="16" name="" type="1">
          <note key="71" pos="0" pan="0" len="24" vol="100" />
          <note key="63" pos="24" pan="0" len="24" vol="100" />
          <note key="64" pos="48" pan="0" len="24" vol="100" />
          <note key="71" pos="72" pan="0" len="24" vol="100" />
          <note key="63" pos="96" pan="0" len="24" vol="100" />
          <note key="64" pos="120" pan="0" len="24" vol="100" />
          <note key="71" pos="144" pan="0" len="12" vol="100" />
          <note key="63" pos="156" pan="0" len="12" vol="100" />
          <note key="64" pos="168" pan="0" len="24" vol="100" />
          <note key="71" pos="192" pan="0" len="24" vol="100" />
          <note key="63" pos="216" pan="0" len="24" vol="100" />
          <note key="64" pos="240" pan="0" len="24" vol="100" />
          <note key="71" pos="264" pan="0" len="24" vol="100" />
          <note key="63" pos="288" pan="0" len="24" vol="100" />
          <note key="64" pos="312" pan="0" len="24" vol="100" />
          <note key="71" pos="336" pan="0" len="12" vol="100" />
          <note key="63" pos="348" pan="0" len="12" vol="100" />
          <note key="64" pos="360" pan="0" len="24" vol="100" />
          <note key="71" pos="384" pan="0" len="24" vol="100" />
          <note key="63" pos="408" pan="0" len="24" vol="100" />
          <note key="64" pos="432" pan="0" len="24" vol="100" />
          <note key="71" pos="456" pan="0" len="24" vol="100" />
          <note key="63" pos="480" pan="0" len="24" vol="100" />
          <note key="64" pos="504" pan="0" len="24" vol="100" />
          <note key="71" pos="528" pan="0" len="12" vol="100" />
          <note key="63" pos="540" pan="0" len="12" vol="100" />
          <note key="64" pos="552" pan="0" len="24" vol="100" />
          <note key="71" pos="576" pan="0" len="24" vol="100" />
          <note key="63" pos="600" pan="0" len="24" vol="100" />
          <note key="64" pos="624" pan="0" len="24" vol="100" />
          <note key="73" pos="648" pan="0" len="24" vol="100" />
          <note key="63" pos="672" pan="0" len="24" vol="100" />
          <note key="64" pos="696" pan="0" len="24" vol="100" />
          <note key="71" pos="720" pan="0" len="12" vol="100" />
          <note key="63" pos="732" pan="0" len="12" vol="100" />
          <note key="64" pos="744" pan="0" len="24" vol="100" />
          <note key="71" pos="768" pan="0" len="24" vol="100" />
          <note key="63" pos="792" pan="0" len="24" vol="100" />
          <note key="64" pos="816" pan="0" len="24" vol="100" />
          <note key="71" pos="840" pan="0" len="24" vol="100" />
          <note key="63" pos="864" pan="0" len="24" vol="100" />
          <note key="64" pos="888" pan="0" len="24" vol="100" />
          <note key="71" pos="912" pan="0" len="12" vol="100" />
          <note key="63" pos="924" pan="0" len="12" vol="100" />
          <note key="64" pos="936" pan="0" len="24" vol="100" />
          <note key="71" pos="960" pan="0" len="24" vol="100" />
          <note key="63" pos="984" pan="0" len="24" vol="100" />
          <note key="64" pos="1008" pan="0" len="24" vol="100" />
          <note key="71" pos="1032" pan="0" len="24" vol="100" />
          <note key="63" pos="1056" pan="0" len="24" vol="100" />
          <note key="64" pos="1080" pan="0" len="24" vol="100" />
          <note key="71" pos="1104" pan="0" len="12" vol="100" />
          <note key="63" pos="1116" pan="0" len="12" vol="100" />
          <note key="64" pos="1128" pan="0" len="24" vol="100" />
          <note key="71" pos="1152" pan="0" len="24" vol="100" />
          <note key="63" pos="1176" pan="0" len="24" vol="100" />
          <note key="64" pos="1200" pan="0" len="24" vol="100" />
          <note key="71" pos="1224" pan="0" len="24" vol="100" />
          <note key="63" pos="1248" pan="0" len="24" vol="100" />
          <note key="64" pos="1272" pan="0" len="24" vol="100" />
          <note key="71" pos="1296" pan="0" len="12" vol="100" />
          <note key="63" pos="1308" pan="0" len="12" vol="100" />
          <note key="64" pos="1320" pan="0" len="24" vol="100" />
          <note key="71" pos="1344" pan="0" len="24" vol="100" />
          <note key="63" pos="1368" pan="0" len="24" vol="100" />
          <note key="64" pos="1392" pan="0" len="24" vol="100" />
          <note key="73" pos="1416" pan="0" len="24" vol="100" />
          <note key="63" pos="1440" pan="0" len="24" vol="100" />
          <note key="64" pos="1464" pan="0" len="24" vol="100" />
          <note key="71" pos="1488" pan="0" len="12" vol="100" />
          <note key="63" pos="1500" pan="0" len="12" vol="100" />
          <note key="64" pos="1512" pan="0" len="24" vol="100" />
        </pattern>
        <pattern pos="195072" muted="0" steps="16" name="" type="1">
          <note key="71" pos="0" pan="0" len="24" vol="100" />
          <note key="63" pos="24" pan="0" len="24" vol="100" />
          <note key="64" pos="48" pan="0" len="24" vol="100" />
          <note key="71" pos="72" pan="0" len="24" vol="100" />
          <note key="63" pos="96" pan="0" len="24" vol="100" />
          <note key="64" pos="120" pan="0" len="24" vol="100" />
          <note key="71" pos="144" pan="0" len="12" vol="100" />
          <note key="63" pos="156" pan="0" len="12" vol="100" />
          <note key="64" pos="168" pan="0" len="24" vol="100" />
          <note key="71" pos="192" pan="0" len="24" vol="100" />
          <note key="63" pos="216" pan="0" len="24" vol="100" />
          <note key="64" pos="240" pan="0" len="24" vol="100" />
          <note key="71" pos="264" pan="0" len="24" vol="100" />
          <note key="63" pos="288" pan="0" len="24" vol="100" />
          <note key="64" pos="312" pan="0" len="24" vol="100" />
          <note key="71" pos="336" pan="0" len="12" vol="100" />
          <note key="63" pos="348" pan="0" len="12" vol="100" />
          <note key="64" pos="360" pan="0" len="24" vol="100" />
          <note key="71" pos="384" pan="0" len="24" vol="100" />
          <note key="63" pos="408" pan="0" len="24" vol="100" />
          <note key="64" pos="432" pan="0" len="24" vol="100" />
          <note key="71" pos="456" pan="0" len="24" vol="100" />
          <note key="63" pos="480" pan="0" len="24" vol="100" />
          <note key="64" pos="504" pan="0" len="24" vol="100" />
          <note key="71" pos="528" pan="0" len="12" vol="100" />
          <note key="63" pos="540" pan="0" len="12" vol="100" />
          <note key="64" pos="552" pan="0" len="24" vol="100" />
          <note key="71" pos="576" pan="0" len="24" vol="100" />
          <note key="63" pos="600" pan="0" len="24" vol="100" />
          <note key="64" pos="624" pan="0" len="24" vol="100" />
          <note key="73" pos="648" pan="0" len="24" vol="100" />
          <note key="63" pos="672" pan="0" len="24" vol="100" />
          <note key="64" pos="696" pan="0" len="24" vol="100" />
          <note key="71" pos="720" pan="0" len="12" vol="100" />
          <note key="63" pos="732" pan="0" len="12" vol="100" />
          <note key="64" pos="744" pan="0" len="24" vol="100" />
          <note key="71" pos="768" pan="0" len="24" vol="100" />
          <note key="63" pos="792" pan="0" len="24" vol="100" />
          <note key="64" pos="816" pan="0" len="24" vol="100" />
          <note key="71" pos="840" pan="0" len="24" vol="100" />
          <note key="63" pos="864" pan="0" len="24" vol="100" />
          <note key="64" pos="888" pan="0" len="24" vol="100" />
          <note key="71" pos="912" pan="0" len="12" vol="100" />
          <note key="63" pos="924" pan="0" len="12" vol="100" />
          <note key="64" pos="936" pan="0" len="24" vol="100" />
          <note key="71" pos="960" pan="0" len="24" vol="100" />
          <note key="63" pos="984" pan="0" len="24" vol="100" />
          <note key="64" pos="1008" pan="0" len="24" vol="100" />
          <note key="71" pos="1032" pan="0" len="24" vol="100" />
          <note key="63" pos="1056" pan="0" len="24" vol="100" />
          <note key="64" pos="1080" pan="0" len="24" vol="100" />
          <note key="71" pos="1104" pan="0" len="12" vol="100" />
          <note key="63" pos="1116" pan="0" len="12" vol="100" />
          <note key="64" pos="1128" pan="0" len="24" vol="100" />
          <note key="71" pos="1152" pan="0" len="24" vol="100" />
          <note key="63" pos="1176" pan="0" len="24" vol="100" />
          <note key="64" pos="1200" pan="0" len="24" vol="100" />
          <note key="71" pos="1224" pan="0" len="24" vol="100" />
          <note key="63" pos="1248" pan="0" len="24" vol="100" />
          <note key="64" pos="1272" pan="0" len="24" vol="100" />
          <note key="71" pos="1296" pan="0" len="12" vol="100" />
          <note key="63" pos="1308" pan="0" len="12" vol="100" />
          <note key="64" pos="1320" pan="0" len="24" vol="100" />
          <note key="71" pos="1344" pan="0" len="24" vol="100" />
          <note key="63" pos="1368" pan="0" len="24" vol="100" />
          <note key="64" pos="1392" pan="0" len="24" vol="100" />
          <note key="73" pos="1416" pan="0" len="24" vol="100" />
          <note key="63" pos="1440" pan="0" len="24" vol="100" />
          <note key="64" pos="1464" pan="0" len="24" vol="100" />
          <note key="71" pos="1488" pan="0" len="12" vol="100" />
          <note key="63" pos="1500" pan="0" len="12" vol="100" />
          <note key="64" pos="1512" pan="0" len="24" vol="100" />
        </pattern>
        <pattern pos="196608" muted="0" steps="16" name="" type="1">
          <note key="71" pos="0" pan="0" len="24" vol="100" />
          <note key="63" pos="24" pan="0" len="24" vol="100" />
          <note key="64" pos="48" pan="0" len="24" vol="100" />
          <note key="71" pos="72" pan="0" len="24" vol="100" />
          <note key="63" pos="96" pan="0" len="24" vol="100" />
          <note key="64" pos="120" pan="0" len="24" vol="100" />
          <note key="71" pos="144" pan="0" len="12" vol="100" />
          <note key="63" pos="156" pan="0" len="12" vol="100" />
          <note key="64" pos="168" pan="0" len="24" vol="100" />
          <note key="71" pos="192" pan="0" len="24" vol="100" />
          <note key="63" pos="216" pan="0" len="24" vol="100" />
          <note key="64" pos="240" pan="0" len="24" vol="100" />
          <note key="71" pos="264" pan="0" len="24" vol="100" />
          <note key="63" pos="288" pan="0" len="24" vol="100" />
          <note key="64" pos="312" pan="0" len="24" vol="100" />
          <note key="71" pos="336" pan="0" len="12" vol="100" />
          <note key="63" pos="348" pan="0" len="12" vol="100" />
          <note key="64" pos="360" pan="0" len="24" vol="100" />
          <note key="71" pos="384" pan="0" len="24" vol="100" />
          <note key="63" pos="408" pan="0" len="24" vol="100" />
          <note key="64" pos="432" pan="0" len="24" vol="100" />
          <note key="71" pos="456" pan="0" len="24" vol="100" />
          <note key="63" pos="480" pan="0" len="24" vol="100" />
          <note key="64" pos="504" pan="0" len="24" vol="100" />
          <note key="71" pos="528" pan="0" len="12" vol="100" />
          <note key="63" pos="540" pan="0" len="12" vol="100" />
          <note key="64" pos="552" pan="0" len="24" vol="100" />
          <note key="71" pos="576" pan="0" len="24" vol="100" />
          <note key="63" pos="600" pan="0" len="24" vol="100" />
          <note key="64" pos="624" pan="0" len="24" vol="100" />
          <note key="73" pos="648" pan="0" len="24" vol="100" />
          <note key="63" pos="672" pan="0" len="24" vol="100" />
          <note key="64" pos="696" pan="0" len="24" vol="100" />
          <note key="71" pos="720" pan="0" len="12" vol="100" />
          <note key="63" pos="732" pan="0" len="12" vol="100" />
          <note key="64" pos="744" pan="0" len="24" vol="100" />
          <note key="71" pos="768" pan="0" len="24" vol="100" />
          <note key="63" pos="792" pan="0" len="24" vol="97" />
          <note key="64" pos="816" pan="0" len="24" vol="94" />
          <note key="71" pos="840" pan="0" len="24" vol="91" />
          <note key="63" pos="864" pan="0" len="24" vol="88" />
          <note key="64" pos="888" pan="0" len="24" vol="84" />
          <note key="71" pos="912" pan="0" len="12" vol="81" />
          <note key="63" pos="924" pan="0" len="12" vol="80" />
          <note key="64" pos="936" pan="0" len="24" vol="78" />
          <note key="71" pos="960" pan="0" len="24" vol="75" />
          <note key="63" pos="984" pan="0" len="24" vol="72" />
          <note key="64" pos="1008" pan="0" len="24" vol="69" />
          <note key="71" pos="1032" pan="0" len="24" vol="66" />
          <note key="63" pos="1056" pan="0" len="24" vol="62" />
          <note key="64" pos="1080" pan="0" len="24" vol="59" />
          <note key="71" pos="1104" pan="0" len="12" vol="56" />
          <note key="63" pos="1116" pan="0" len="12" vol="55" />
          <note key="64" pos="1128" pan="0" len="24" vol="53" />
          <note key="71" pos="1152" pan="0" len="24" vol="50" />
          <note key="63" pos="1176" pan="0" len="24" vol="47" />
          <note key="64" pos="1200" pan="0" len="24" vol="44" />
          <note key="71" pos="1224" pan="0" len="24" vol="41" />
          <note key="63" pos="1248" pan="0" len="24" vol="38" />
          <note key="64" pos="1272" pan="0" len="24" vol="34" />
          <note key="71" pos="1296" pan="0" len="12" vol="31" />
          <note key="63" pos="1308" pan="0" len="12" vol="30" />
          <note key="64" pos="1320" pan="0" len="24" vol="28" />
          <note key="71" pos="1344" pan="0" len="24" vol="25" />
          <note key="63" pos="1368" pan="0" len="24" vol="22" />
          <note key="64" pos="1392" pan="0" len="24" vol="19" />
          <note key="73" pos="1416" pan="0" len="24" vol="16" />
          <note key="63" pos="1440" pan="0" len="24" vol="12" />
          <note key="64" pos="1464" pan="0" len="24" vol="9" />
          <note key="71" pos="1488" pan="0" len="12" vol="6" />
          <note key="63" pos="1500" pan="0" len="12" vol="5" />
          <note key="64" pos="1512" pan="0" len="24" vol="3" />
        </pattern>
        <pattern pos="198144" muted="0" steps="16" name="" type="1">
          <note key="64" pos="0" pan="0" len="120" vol="100" />
          <note key="64" pos="120" pan="0" len="24" vol="100" />
          <note key="66" pos="144" pan="0" len="24" vol="100" />
          <note key="64" pos="168" pan="0" len="24" vol="100" />
          <note key="69" pos="192" pan="0" len="24" vol="100" />
          <note key="68" pos="216" pan="0" len="48" vol="100" />
          <note key="66" pos="264" pan="0" len="48" vol="100" />
          <note key="64" pos="312" pan="0" len="24" vol="100" />
          <note key="60" pos="336" pan="0" len="24" vol="100" />
          <note key="59" pos="360" pan="0" len="48" vol="100" />
          <note key="64" pos="408" pan="0" len="96" vol="100" />
          <note key="64" pos="504" pan="0" len="24" vol="100" />
          <note key="66" pos="528" pan="0" len="24" vol="100" />
          <note key="64" pos="552" pan="0" len="24" vol="100" />
          <note key="69" pos="576" pan="0" len="24" vol="100" />
          <note key="68" pos="600" pan="0" len="48" vol="100" />
          <note key="72" pos="648" pan="0" len="48" vol="100" />
          <note key="74" pos="696" pan="0" len="24" vol="100" />
          <note key="72" pos="720" pan="0" len="48" vol="100" />
          <note key="71" pos="768" pan="0" len="120" vol="100" />
          <note key="64" pos="888" pan="0" len="24" vol="100" />
          <note key="66" pos="912" pan="0" len="24" vol="100" />
          <note key="64" pos="936" pan="0" len="24" vol="100" />
          <note key="69" pos="960" pan="0" len="24" vol="100" />
          <note key="68" pos="984" pan="0" len="48" vol="100" />
          <note key="66" pos="1032" pan="0" len="48" vol="100" />
          <note key="64" pos="1080" pan="0" len="24" vol="100" />
          <note key="60" pos="1104" pan="0" len="24" vol="100" />
          <note key="59" pos="1128" pan="0" len="48" vol="100" />
          <note key="64" pos="1176" pan="0" len="96" vol="100" />
          <note key="64" pos="1272" pan="0" len="24" vol="100" />
          <note key="66" pos="1296" pan="0" len="24" vol="100" />
          <note key="64" pos="1320" pan="0" len="24" vol="100" />
          <note key="69" pos="1344" pan="0" len="24" vol="100" />
          <note key="68" pos="1368" pan="0" len="48" vol="100" />
          <note key="72" pos="1416" pan="0" len="48" vol="100" />
          <note key="74" pos="1464" pan="0" len="24" vol="100" />
          <note key="72" pos="1488" pan="0" len="48" vol="100" />
        </pattern>
        <pattern pos="199680" muted="0" steps="16" name="" type="1">
          <note key="64" pos="0" pan="0" len="120" vol="100" />
          <note key="64" pos="120" pan="0" len="24" vol="100" />
          <note key="66" pos="144" pan="0" len="24" vol="100" />
          <note key="64" pos="168" pan="0" len="24" vol="100" />
          <note key="69" pos="192" pan="0" len="24" vol="100" />
          <note key="68" pos="216" pan="0" len="48" vol="100" />
          <note key="66" pos="264" pan="0" len="48" vol="100" />
          <note key="64" pos="312" pan="0" len="24" vol="100" />
          <note key="60" pos="336" pan="0" len="24" vol="100" />
          <note key="59" pos="360" pan="0" len="48" vol="100" />
          <note key="64" pos="408" pan="0" len="96" vol="100" />
          <note key="64" pos="504" pan="0" len="24" vol="100" />
          <note key="66" pos="528" pan="0" len="24" vol="100" />
          <note key="64" pos="552" pan="0" len="24" vol="100" />
          <note key="69" pos="576" pan="0" len="24" vol="100" />
          <note key="68" pos="600" pan="0" len="48" vol="100" />
          <note key="72" pos="648" pan="0" len="48" vol="100" />
          <note key="74" pos="696" pan="0" len="24" vol="100" />
          <note key="72" pos="720" pan="0" len="48" vol="100" />
          <note key="64" pos="768" pan="0" len="120" vol="100" />
          <note key="64" pos="888" pan="0" len="24" vol="100" />
          <note key="66" pos="912" pan="0" len="24" vol="100" />
          <note key="64" pos="936" pan="0" len="24" vol="100" />
          <note key="69" pos="960" pan="0" len="24" vol="100" />
          <note key="68" pos="984" pan="0" len="48" vol="100" />
          <note key="66" pos="1032" pan="0" len="48" vol="100" />
          <note key="64" pos="1080" pan="0" len="24" vol="100" />
          <note key="60" pos="1104" pan="0" len="24" vol="100" />
          <note key="59" pos="1128" pan="0" len="48" vol="100" />
          <note key="64" pos="1176" pan="0" len="96" vol="100" />
          <note key="64" pos="1272" pan="0" len="24" vol="100" />
          <note key="66" pos="1296" pan="0" len="24" vol="100" />
          <note key="64" pos="1320" pan="0" len="24" vol="100" />
          <note key="69" pos="1344" pan="0" len="24" vol="100" />
          <note key="68" pos="1368" pan="0" len="48" vol="100" />
          <note key="72" pos="1416" pan="0" len="48" vol="100" />
          <note key="74" pos="1464" pan="0" len="24" vol="100" />
          <note key="72" pos="1488" pan="0" len="48" vol="100" />
        </pattern>
        <pattern pos="201216" muted="0" steps="16" name="" type="1">
          <note key="64" pos="0" pan="0" len="240" vol="100" />
          <note key="64" pos="240" pan="0" len="48" vol="100" />
          <note key="66" pos="288" pan="0" len="48" vol="100" />
          <note key="64" pos="336" pan="0" len="48" vol="100" />
          <note key="69" pos="384" pan="0" len="48" vol="100" />
          <note key="68" pos="432" pan="0" len="96" vol="100" />
          <note key="66" pos="528" pan="0" len="96" vol="100" />
          <note key="64" pos="624" pan="0" len="48" vol="100" />
          <note key="60" pos="672" pan="0" len="48" vol="100" />
          <note key="59" pos="720" pan="0" len="96" vol="100" />
          <note key="64" pos="816" pan="0" len="192" vol="100" />
          <note key="64" pos="1008" pan="0" len="48" vol="100" />
          <note key="66" pos="1056" pan="0" len="48" vol="100" />
          <note key="64" pos="1104" pan="0" len="48" vol="100" />
          <note key="69" pos="1152" pan="0" len="48" vol="100" />
          <note key="68" pos="1200" pan="0" len="96" vol="100" />
          <note key="72" pos="1296" pan="0" len="96" vol="100" />
          <note key="74" pos="1392" pan="0" len="48" vol="100" />
          <note key="72" pos="1440" pan="0" len="96" vol="100" />
        </pattern>
        <pattern pos="202752" muted="0" steps="16" name="" type="1">
          <note key="71" pos="0" pan="0" len="240" vol="100" />
          <note key="71" pos="240" pan="0" len="48" vol="100" />
          <note key="72" pos="288" pan="0" len="48" vol="100" />
          <note key="71" pos="336" pan="0" len="48" vol="100" />
          <note key="72" pos="384" pan="0" len="48" vol="100" />
          <note key="69" pos="432" pan="0" len="96" vol="100" />
          <note key="69" pos="528" pan="0" len="96" vol="100" />
          <note key="68" pos="624" pan="0" len="48" vol="100" />
          <note key="69" pos="672" pan="0" len="96" vol="100" />
          <note key="71" pos="768" pan="0" len="240" vol="100" />
          <note key="71" pos="1008" pan="0" len="48" vol="100" />
          <note key="72" pos="1056" pan="0" len="48" vol="100" />
          <note key="71" pos="1104" pan="0" len="48" vol="100" />
          <note key="72" pos="1152" pan="0" len="96" vol="100" />
          <note key="76" pos="1248" pan="0" len="96" vol="100" />
          <note key="76" pos="1344" pan="0" len="96" vol="100" />
          <note key="74" pos="1440" pan="0" len="48" vol="100" />
          <note key="71" pos="1488" pan="0" len="48" vol="100" />
        </pattern>
        <pattern pos="207360" muted="0" steps="16" name="" type="1">
          <note key="64" pos="0" pan="0" len="240" vol="100" />
          <note key="64" pos="240" pan="0" len="48" vol="100" />
          <note key="66" pos="288" pan="0" len="48" vol="100" />
          <note key="64" pos="336" pan="0" len="48" vol="100" />
          <note key="69" pos="384" pan="0" len="48" vol="100" />
          <note key="68" pos="432" pan="0" len="96" vol="100" />
          <note key="66" pos="528" pan="0" len="96" vol="100" />
          <note key="64" pos="624" pan="0" len="48" vol="100" />
          <note key="60" pos="672" pan="0" len="48" vol="100" />
          <note key="59" pos="720" pan="0" len="96" vol="100" />
          <note key="64" pos="816" pan="0" len="192" vol="100" />
          <note key="64" pos="1008" pan="0" len="48" vol="100" />
          <note key="66" pos="1056" pan="0" len="48" vol="100" />
          <note key="64" pos="1104" pan="0" len="48" vol="100" />
          <note key="69" pos="1152" pan="0" len="48" vol="100" />
          <note key="68" pos="1200" pan="0" len="96" vol="100" />
          <note key="72" pos="1296" pan="0" len="96" vol="100" />
          <note key="74" pos="1392" pan="0" len="48" vol="100" />
          <note key="72" pos="1440" pan="0" len="96" vol="100" />
        </pattern>
        <pattern pos="208896" muted="0" steps="16" name="" type="1">
          <note key="71" pos="0" pan="0" len="240" vol="100" />
          <note key="71" pos="240" pan="0" len="48" vol="100" />
          <note key="72" pos="288" pan="0" len="48" vol="100" />
          <note key="71" pos="336" pan="0" len="48" vol="100" />
          <note key="72" pos="384" pan="0" len="48" vol="100" />
          <note key="69" pos="432" pan="0" len="96" vol="100" />
          <note key="69" pos="528" pan="0" len="96" vol="100" />
          <note key="68" pos="624" pan="0" len="48" vol="100" />
          <note key="69" pos="672" pan="0" len="96" vol="100" />
          <note key="71" pos="768" pan="0" len="240" vol="100" />
          <note key="71" pos="1008" pan="0" len="48" vol="100" />
          <note key="72" pos="1056" pan="0" len="48" vol="100" />
          <note key="71" pos="1104" pan="0" len="48" vol="100" />
          <note key="72" pos="1152" pan="0" len="96" vol="100" />
          <note key="76" pos="1248" pan="0" len="96" vol="100" />
          <note key="76" pos="1344" pan="0" len="96" vol="100" />
          <note key="74" pos="1440" pan="0" len="48" vol="100" />
          <note key="71" pos="1488" pan="0" len="48" vol="100" />
        </pattern>
      </track>
      <track solo="0" name="58 (Ch4)" type="0" muted="0">
        <instrumenttrack usemasterpitch="1" pitch="0.0" basenote="57" pan="0" pitchrange="12" vol="30">
          <eldata />
          <instrument name="tripleoscillator" />
        </instrumenttrack>
        <pattern pos="39936" muted="0" steps="16" name="" type="1">
          <note key="60" pos="576" pan="0" len="12" vol="100" />
          <note key="63" pos="600" pan="0" len="12" vol="100" />
          <note key="62" pos="624" pan="0" len="12" vol="100" />
          <note key="79" pos="648" pan="0" len="12" vol="100" />
          <note key="75" pos="672" pan="0" len="12" vol="100" />
          <note key="72" pos="696" pan="0" len="12" vol="100" />
          <note key="67" pos="720" pan="0" len="12" vol="100" />
          <note key="72" pos="744" pan="0" len="12" vol="100" />
          <note key="75" pos="768" pan="0" len="12" vol="100" />
          <note key="91" pos="792" pan="0" len="12" vol="100" />
          <note key="87" pos="816" pan="0" len="12" vol="100" />
          <note key="84" pos="840" pan="0" len="12" vol="100" />
          <note key="60" pos="864" pan="0" len="12" vol="100" />
          <note key="63" pos="888" pan="0" len="12" vol="100" />
          <note key="62" pos="912" pan="0" len="12" vol="100" />
          <note key="79" pos="936" pan="0" len="12" vol="100" />
          <note key="75" pos="960" pan="0" len="12" vol="100" />
          <note key="72" pos="984" pan="0" len="12" vol="100" />
          <note key="67" pos="1008" pan="0" len="12" vol="100" />
          <note key="72" pos="1032" pan="0" len="12" vol="100" />
          <note key="75" pos="1056" pan="0" len="12" vol="100" />
          <note key="91" pos="1080" pan="0" len="12" vol="100" />
          <note key="87" pos="1104" pan="0" len="12" vol="100" />
          <note key="84" pos="1128" pan="0" len="12" vol="100" />
        </pattern>
      </track>
      <track solo="0" name="58 (Ch5)" type="0" muted="0">
        <instrumenttrack usemasterpitch="1" pitch="0.0" basenote="57" pan="0" pitchrange="12" vol="30">
          <eldata />
          <instrument name="tripleoscillator" />
        </instrumenttrack>
        <pattern pos="235200" muted="0" steps="16" name="" type="1">
          <note key="70" pos="0" pan="0" len="48" vol="100" />
          <note key="74" pos="48" pan="0" len="144" vol="100" />
          <note key="79" pos="192" pan="0" len="192" vol="100" />
          <note key="77" pos="384" pan="0" len="48" vol="100" />
          <note key="69" pos="432" pan="0" len="48" vol="100" />
          <note key="70" pos="480" pan="0" len="288" vol="100" />
          <note key="70" pos="768" pan="0" len="48" vol="100" />
          <note key="74" pos="816" pan="0" len="144" vol="100" />
          <note key="79" pos="960" pan="0" len="168" vol="100" />
          <note key="77" pos="1128" pan="0" len="12" vol="34" />
          <note key="79" pos="1140" pan="0" len="12" vol="69" />
          <note key="77" pos="1152" pan="0" len="48" vol="100" />
          <note key="69" pos="1200" pan="0" len="48" vol="100" />
          <note key="70" pos="1248" pan="0" len="96" vol="100" />
          <note key="81" pos="1344" pan="0" len="48" vol="100" />
          <note key="72" pos="1392" pan="0" len="48" vol="100" />
          <note key="74" pos="1440" pan="0" len="48" vol="100" />
          <note key="77" pos="1488" pan="0" len="48" vol="100" />
        </pattern>
        <pattern pos="218304" muted="0" steps="16" name="" type="1">
          <note key="70" pos="0" pan="0" len="48" vol="100" />
          <note key="74" pos="48" pan="0" len="144" vol="100" />
          <note key="79" pos="192" pan="0" len="192" vol="100" />
          <note key="77" pos="384" pan="0" len="48" vol="100" />
          <note key="69" pos="432" pan="0" len="48" vol="100" />
          <note key="70" pos="480" pan="0" len="288" vol="100" />
          <note key="70" pos="768" pan="0" len="48" vol="100" />
          <note key="74" pos="816" pan="0" len="144" vol="100" />
          <note key="79" pos="960" pan="0" len="168" vol="100" />
          <note key="77" pos="1128" pan="0" len="12" vol="34" />
          <note key="79" pos="1140" pan="0" len="12" vol="69" />
          <note key="77" pos="1152" pan="0" len="48" vol="100" />
          <note key="69" pos="1200" pan="0" len="48" vol="100" />
          <note key="70" pos="1248" pan="0" len="96" vol="100" />
          <note key="81" pos="1344" pan="0" len="48" vol="100" />
          <note key="72" pos="1392" pan="0" len="48" vol="100" />
          <note key="74" pos="1440" pan="0" len="48" vol="100" />
          <note key="77" pos="1488" pan="0" len="48" vol="100" />
        </pattern>
        <pattern pos="219840" muted="0" steps="16" name="" type="1">
          <note key="70" pos="0" pan="0" len="48" vol="100" />
          <note key="74" pos="48" pan="0" len="144" vol="100" />
          <note key="79" pos="192" pan="0" len="192" vol="100" />
          <note key="77" pos="384" pan="0" len="48" vol="100" />
          <note key="69" pos="432" pan="0" len="48" vol="100" />
          <note key="70" pos="480" pan="0" len="288" vol="100" />
          <note key="70" pos="768" pan="0" len="48" vol="100" />
          <note key="74" pos="816" pan="0" len="144" vol="100" />
          <note key="79" pos="960" pan="0" len="168" vol="100" />
          <note key="77" pos="1128" pan="0" len="12" vol="34" />
          <note key="79" pos="1140" pan="0" len="12" vol="69" />
          <note key="77" pos="1152" pan="0" len="48" vol="100" />
          <note key="69" pos="1200" pan="0" len="48" vol="100" />
          <note key="70" pos="1248" pan="0" len="96" vol="100" />
          <note key="81" pos="1344" pan="0" len="48" vol="100" />
          <note key="72" pos="1392" pan="0" len="48" vol="100" />
          <note key="74" pos="1440" pan="0" len="48" vol="100" />
          <note key="77" pos="1488" pan="0" len="48" vol="100" />
        </pattern>
        <pattern pos="221376" muted="0" steps="16" name="" type="1">
          <note key="69" pos="24" pan="0" len="24" vol="100" />
          <note key="70" pos="48" pan="0" len="48" vol="100" />
          <note key="72" pos="96" pan="0" len="24" vol="100" />
          <note key="70" pos="120" pan="0" len="24" vol="100" />
          <note key="69" pos="144" pan="0" len="24" vol="100" />
          <note key="70" pos="168" pan="0" len="48" vol="100" />
          <note key="69" pos="216" pan="0" len="24" vol="100" />
          <note key="70" pos="240" pan="0" len="48" vol="100" />
          <note key="72" pos="288" pan="0" len="24" vol="100" />
          <note key="70" pos="312" pan="0" len="24" vol="100" />
          <note key="69" pos="336" pan="0" len="24" vol="100" />
          <note key="70" pos="360" pan="0" len="48" vol="100" />
          <note key="69" pos="408" pan="0" len="24" vol="100" />
          <note key="70" pos="432" pan="0" len="48" vol="100" />
          <note key="72" pos="480" pan="0" len="24" vol="100" />
          <note key="70" pos="504" pan="0" len="24" vol="100" />
          <note key="69" pos="528" pan="0" len="24" vol="100" />
          <note key="70" pos="552" pan="0" len="48" vol="100" />
          <note key="70" pos="600" pan="0" len="24" vol="100" />
          <note key="72" pos="624" pan="0" len="48" vol="100" />
          <note key="74" pos="672" pan="0" len="24" vol="100" />
          <note key="72" pos="696" pan="0" len="24" vol="100" />
          <note key="70" pos="720" pan="0" len="24" vol="100" />
          <note key="72" pos="744" pan="0" len="48" vol="100" />
          <note key="69" pos="792" pan="0" len="24" vol="100" />
          <note key="70" pos="816" pan="0" len="48" vol="100" />
          <note key="72" pos="864" pan="0" len="24" vol="100" />
          <note key="70" pos="888" pan="0" len="24" vol="100" />
          <note key="69" pos="912" pan="0" len="24" vol="100" />
          <note key="70" pos="936" pan="0" len="48" vol="100" />
          <note key="69" pos="984" pan="0" len="24" vol="100" />
          <note key="70" pos="1008" pan="0" len="48" vol="100" />
          <note key="72" pos="1056" pan="0" len="24" vol="100" />
          <note key="70" pos="1080" pan="0" len="24" vol="100" />
          <note key="69" pos="1104" pan="0" len="24" vol="100" />
          <note key="70" pos="1128" pan="0" len="48" vol="100" />
          <note key="70" pos="1176" pan="0" len="24" vol="100" />
          <note key="72" pos="1200" pan="0" len="48" vol="100" />
          <note key="74" pos="1248" pan="0" len="24" vol="100" />
          <note key="72" pos="1272" pan="0" len="24" vol="100" />
          <note key="70" pos="1296" pan="0" len="24" vol="100" />
          <note key="72" pos="1320" pan="0" len="48" vol="100" />
          <note key="72" pos="1368" pan="0" len="24" vol="100" />
          <note key="74" pos="1392" pan="0" len="48" vol="100" />
          <note key="77" pos="1440" pan="0" len="24" vol="100" />
          <note key="74" pos="1464" pan="0" len="24" vol="100" />
          <note key="72" pos="1488" pan="0" len="24" vol="100" />
          <note key="74" pos="1512" pan="0" len="24" vol="100" />
        </pattern>
        <pattern pos="222912" muted="0" steps="16" name="" type="1">
          <note key="69" pos="24" pan="0" len="24" vol="100" />
          <note key="70" pos="48" pan="0" len="48" vol="100" />
          <note key="72" pos="96" pan="0" len="24" vol="100" />
          <note key="70" pos="120" pan="0" len="24" vol="100" />
          <note key="69" pos="144" pan="0" len="24" vol="100" />
          <note key="70" pos="168" pan="0" len="48" vol="100" />
          <note key="69" pos="216" pan="0" len="24" vol="100" />
          <note key="70" pos="240" pan="0" len="48" vol="100" />
          <note key="72" pos="288" pan="0" len="24" vol="100" />
          <note key="70" pos="312" pan="0" len="24" vol="100" />
          <note key="69" pos="336" pan="0" len="24" vol="100" />
          <note key="70" pos="360" pan="0" len="48" vol="100" />
          <note key="69" pos="408" pan="0" len="24" vol="100" />
          <note key="70" pos="432" pan="0" len="48" vol="100" />
          <note key="72" pos="480" pan="0" len="24" vol="100" />
          <note key="70" pos="504" pan="0" len="24" vol="100" />
          <note key="69" pos="528" pan="0" len="24" vol="100" />
          <note key="70" pos="552" pan="0" len="48" vol="100" />
          <note key="70" pos="600" pan="0" len="24" vol="100" />
          <note key="72" pos="624" pan="0" len="48" vol="100" />
          <note key="74" pos="672" pan="0" len="24" vol="100" />
          <note key="72" pos="696" pan="0" len="24" vol="100" />
          <note key="70" pos="720" pan="0" len="24" vol="100" />
          <note key="72" pos="744" pan="0" len="48" vol="100" />
          <note key="69" pos="792" pan="0" len="24" vol="100" />
          <note key="70" pos="816" pan="0" len="48" vol="100" />
          <note key="72" pos="864" pan="0" len="24" vol="100" />
          <note key="70" pos="888" pan="0" len="24" vol="100" />
          <note key="69" pos="912" pan="0" len="24" vol="100" />
          <note key="70" pos="936" pan="0" len="48" vol="100" />
          <note key="69" pos="984" pan="0" len="24" vol="100" />
          <note key="70" pos="1008" pan="0" len="48" vol="100" />
          <note key="72" pos="1056" pan="0" len="24" vol="100" />
          <note key="70" pos="1080" pan="0" len="24" vol="100" />
          <note key="69" pos="1104" pan="0" len="24" vol="100" />
          <note key="70" pos="1128" pan="0" len="48" vol="100" />
          <note key="70" pos="1176" pan="0" len="24" vol="100" />
          <note key="72" pos="1200" pan="0" len="48" vol="100" />
          <note key="74" pos="1248" pan="0" len="24" vol="100" />
          <note key="72" pos="1272" pan="0" len="24" vol="100" />
          <note key="70" pos="1296" pan="0" len="24" vol="100" />
          <note key="72" pos="1320" pan="0" len="48" vol="100" />
          <note key="72" pos="1368" pan="0" len="24" vol="100" />
          <note key="74" pos="1392" pan="0" len="48" vol="100" />
          <note key="77" pos="1440" pan="0" len="24" vol="100" />
          <note key="74" pos="1464" pan="0" len="24" vol="100" />
          <note key="72" pos="1488" pan="0" len="24" vol="100" />
          <note key="74" pos="1512" pan="0" len="24" vol="100" />
        </pattern>
        <pattern pos="224448" muted="0" steps="16" name="" type="1">
          <note key="43" pos="0" pan="0" len="768" vol="100" />
        </pattern>
        <pattern pos="225984" muted="0" steps="16" name="" type="1">
          <note key="43" pos="0" pan="0" len="768" vol="100" />
        </pattern>
        <pattern pos="227520" muted="0" steps="16" name="" type="1">
          <note key="69" pos="24" pan="0" len="24" vol="100" />
          <note key="70" pos="48" pan="0" len="48" vol="100" />
          <note key="72" pos="96" pan="0" len="24" vol="100" />
          <note key="70" pos="120" pan="0" len="24" vol="100" />
          <note key="69" pos="144" pan="0" len="24" vol="100" />
          <note key="70" pos="168" pan="0" len="48" vol="100" />
          <note key="69" pos="216" pan="0" len="24" vol="100" />
          <note key="70" pos="240" pan="0" len="48" vol="100" />
          <note key="72" pos="288" pan="0" len="24" vol="100" />
          <note key="70" pos="312" pan="0" len="24" vol="100" />
          <note key="69" pos="336" pan="0" len="24" vol="100" />
          <note key="70" pos="360" pan="0" len="48" vol="100" />
          <note key="69" pos="408" pan="0" len="24" vol="100" />
          <note key="70" pos="432" pan="0" len="48" vol="100" />
          <note key="72" pos="480" pan="0" len="24" vol="100" />
          <note key="70" pos="504" pan="0" len="24" vol="100" />
          <note key="69" pos="528" pan="0" len="24" vol="100" />
          <note key="70" pos="552" pan="0" len="48" vol="100" />
          <note key="70" pos="600" pan="0" len="24" vol="100" />
          <note key="72" pos="624" pan="0" len="48" vol="100" />
          <note key="74" pos="672" pan="0" len="24" vol="100" />
          <note key="72" pos="696" pan="0" len="24" vol="100" />
          <note key="70" pos="720" pan="0" len="24" vol="100" />
          <note key="72" pos="744" pan="0" len="48" vol="100" />
          <note key="69" pos="792" pan="0" len="24" vol="100" />
          <note key="70" pos="816" pan="0" len="48" vol="100" />
          <note key="72" pos="864" pan="0" len="24" vol="100" />
          <note key="70" pos="888" pan="0" len="24" vol="100" />
          <note key="69" pos="912" pan="0" len="24" vol="100" />
          <note key="70" pos="936" pan="0" len="48" vol="100" />
          <note key="69" pos="984" pan="0" len="24" vol="100" />
          <note key="70" pos="1008" pan="0" len="48" vol="100" />
          <note key="72" pos="1056" pan="0" len="24" vol="100" />
          <note key="70" pos="1080" pan="0" len="24" vol="100" />
          <note key="69" pos="1104" pan="0" len="24" vol="100" />
          <note key="70" pos="1128" pan="0" len="48" vol="100" />
          <note key="70" pos="1176" pan="0" len="24" vol="100" />
          <note key="72" pos="1200" pan="0" len="48" vol="100" />
          <note key="74" pos="1248" pan="0" len="24" vol="100" />
          <note key="72" pos="1272" pan="0" len="24" vol="100" />
          <note key="70" pos="1296" pan="0" len="24" vol="100" />
          <note key="72" pos="1320" pan="0" len="48" vol="100" />
          <note key="72" pos="1368" pan="0" len="24" vol="100" />
          <note key="74" pos="1392" pan="0" len="48" vol="100" />
          <note key="77" pos="1440" pan="0" len="24" vol="100" />
          <note key="74" pos="1464" pan="0" len="24" vol="100" />
          <note key="72" pos="1488" pan="0" len="24" vol="100" />
          <note key="74" pos="1512" pan="0" len="24" vol="100" />
        </pattern>
        <pattern pos="229056" muted="0" steps="16" name="" type="1">
          <note key="69" pos="24" pan="0" len="24" vol="100" />
          <note key="70" pos="48" pan="0" len="48" vol="100" />
          <note key="72" pos="96" pan="0" len="24" vol="100" />
          <note key="70" pos="120" pan="0" len="24" vol="100" />
          <note key="69" pos="144" pan="0" len="24" vol="100" />
          <note key="70" pos="168" pan="0" len="48" vol="100" />
          <note key="69" pos="216" pan="0" len="24" vol="100" />
          <note key="70" pos="240" pan="0" len="48" vol="100" />
          <note key="72" pos="288" pan="0" len="24" vol="100" />
          <note key="70" pos="312" pan="0" len="24" vol="100" />
          <note key="69" pos="336" pan="0" len="24" vol="100" />
          <note key="70" pos="360" pan="0" len="48" vol="100" />
          <note key="69" pos="408" pan="0" len="24" vol="100" />
          <note key="70" pos="432" pan="0" len="48" vol="100" />
          <note key="72" pos="480" pan="0" len="24" vol="100" />
          <note key="70" pos="504" pan="0" len="24" vol="100" />
          <note key="69" pos="528" pan="0" len="24" vol="100" />
          <note key="70" pos="552" pan="0" len="48" vol="100" />
          <note key="70" pos="600" pan="0" len="24" vol="100" />
          <note key="72" pos="624" pan="0" len="48" vol="100" />
          <note key="74" pos="672" pan="0" len="24" vol="100" />
          <note key="72" pos="696" pan="0" len="24" vol="100" />
          <note key="70" pos="720" pan="0" len="24" vol="100" />
          <note key="72" pos="744" pan="0" len="48" vol="100" />
          <note key="69" pos="792" pan="0" len="24" vol="100" />
          <note key="70" pos="816" pan="0" len="48" vol="100" />
          <note key="72" pos="864" pan="0" len="24" vol="100" />
          <note key="70" pos="888" pan="0" len="24" vol="100" />
          <note key="69" pos="912" pan="0" len="24" vol="100" />
          <note key="70" pos="936" pan="0" len="48" vol="100" />
          <note key="69" pos="984" pan="0" len="24" vol="100" />
          <note key="70" pos="1008" pan="0" len="48" vol="100" />
          <note key="72" pos="1056" pan="0" len="24" vol="100" />
          <note key="70" pos="1080" pan="0" len="24" vol="100" />
          <note key="69" pos="1104" pan="0" len="24" vol="100" />
          <note key="70" pos="1128" pan="0" len="48" vol="100" />
          <note key="70" pos="1176" pan="0" len="24" vol="100" />
          <note key="72" pos="1200" pan="0" len="48" vol="100" />
          <note key="74" pos="1248" pan="0" len="24" vol="100" />
          <note key="72" pos="1272" pan="0" len="24" vol="100" />
          <note key="70" pos="1296" pan="0" len="24" vol="100" />
          <note key="72" pos="1320" pan="0" len="48" vol="100" />
          <note key="72" pos="1368" pan="0" len="24" vol="100" />
          <note key="74" pos="1392" pan="0" len="48" vol="100" />
          <note key="77" pos="1440" pan="0" len="24" vol="100" />
          <note key="74" pos="1464" pan="0" len="24" vol="100" />
          <note key="72" pos="1488" pan="0" len="24" vol="100" />
          <note key="74" pos="1512" pan="0" len="24" vol="100" />
        </pattern>
        <pattern pos="230592" muted="0" steps="16" name="" type="1">
          <note key="70" pos="0" pan="0" len="144" vol="100" />
          <note key="69" pos="144" pan="0" len="24" vol="100" />
          <note key="70" pos="168" pan="0" len="24" vol="100" />
          <note key="72" pos="192" pan="0" len="96" vol="100" />
          <note key="65" pos="288" pan="0" len="96" vol="100" />
          <note key="74" pos="384" pan="0" len="144" vol="100" />
          <note key="77" pos="528" pan="0" len="48" vol="100" />
          <note key="72" pos="576" pan="0" len="96" vol="100" />
          <note key="70" pos="672" pan="0" len="48" vol="100" />
          <note key="69" pos="720" pan="0" len="48" vol="100" />
          <note key="67" pos="768" pan="0" len="144" vol="100" />
          <note key="69" pos="912" pan="0" len="48" vol="100" />
          <note key="65" pos="960" pan="0" len="144" vol="100" />
          <note key="62" pos="1104" pan="0" len="48" vol="100" />
          <note key="67" pos="1152" pan="0" len="96" vol="100" />
          <note key="69" pos="1248" pan="0" len="48" vol="100" />
          <note key="70" pos="1296" pan="0" len="48" vol="100" />
          <note key="72" pos="1344" pan="0" len="144" vol="100" />
          <note key="65" pos="1488" pan="0" len="48" vol="100" />
        </pattern>
        <pattern pos="232128" muted="0" steps="16" name="" type="1">
          <note key="70" pos="0" pan="0" len="144" vol="100" />
          <note key="69" pos="144" pan="0" len="24" vol="100" />
          <note key="70" pos="168" pan="0" len="24" vol="100" />
          <note key="72" pos="192" pan="0" len="96" vol="100" />
          <note key="65" pos="288" pan="0" len="96" vol="100" />
          <note key="74" pos="384" pan="0" len="144" vol="100" />
          <note key="77" pos="528" pan="0" len="48" vol="100" />
          <note key="72" pos="576" pan="0" len="96" vol="100" />
          <note key="70" pos="672" pan="0" len="48" vol="100" />
          <note key="69" pos="720" pan="0" len="48" vol="100" />
          <note key="67" pos="768" pan="0" len="144" vol="100" />
          <note key="69" pos="912" pan="0" len="48" vol="100" />
          <note key="65" pos="960" pan="0" len="96" vol="100" />
          <note key="62" pos="1056" pan="0" len="48" vol="100" />
          <note key="65" pos="1104" pan="0" len="48" vol="100" />
          <note key="67" pos="1152" pan="0" len="384" vol="100" />
        </pattern>
        <pattern pos="233664" muted="0" steps="16" name="" type="1">
          <note key="70" pos="0" pan="0" len="48" vol="100" />
          <note key="74" pos="48" pan="0" len="144" vol="100" />
          <note key="79" pos="192" pan="0" len="192" vol="100" />
          <note key="77" pos="384" pan="0" len="48" vol="100" />
          <note key="69" pos="432" pan="0" len="48" vol="100" />
          <note key="70" pos="480" pan="0" len="288" vol="100" />
          <note key="70" pos="768" pan="0" len="48" vol="100" />
          <note key="74" pos="816" pan="0" len="144" vol="100" />
          <note key="79" pos="960" pan="0" len="168" vol="100" />
          <note key="77" pos="1128" pan="0" len="12" vol="34" />
          <note key="79" pos="1140" pan="0" len="12" vol="69" />
          <note key="77" pos="1152" pan="0" len="48" vol="100" />
          <note key="69" pos="1200" pan="0" len="48" vol="100" />
          <note key="70" pos="1248" pan="0" len="96" vol="100" />
          <note key="81" pos="1344" pan="0" len="48" vol="100" />
          <note key="72" pos="1392" pan="0" len="48" vol="100" />
          <note key="74" pos="1440" pan="0" len="48" vol="100" />
          <note key="77" pos="1488" pan="0" len="48" vol="100" />
        </pattern>
      </track>
      <track solo="0" name="58 (Ch6)" type="0" muted="0">
        <instrumenttrack usemasterpitch="1" pitch="0.0" basenote="57" pan="0" pitchrange="12" vol="30">
          <eldata />
          <instrument name="tripleoscillator" />
        </instrumenttrack>
        <pattern pos="161280" muted="0" steps="16" name="" type="1">
          <note key="60" pos="0" pan="0" len="768" vol="100" />
          <note key="60" pos="768" pan="0" len="768" vol="50" />
        </pattern>
        <pattern pos="119808" muted="0" steps="16" name="" type="1">
          <note key="77" pos="0" pan="0" len="96" vol="100" />
          <note key="72" pos="96" pan="0" len="48" vol="100" />
          <note key="75" pos="144" pan="0" len="96" vol="100" />
          <note key="74" pos="240" pan="0" len="48" vol="100" />
          <note key="70" pos="288" pan="0" len="48" vol="100" />
          <note key="72" pos="336" pan="0" len="48" vol="100" />
          <note key="77" pos="384" pan="0" len="48" vol="100" />
          <note key="75" pos="432" pan="0" len="48" vol="100" />
          <note key="77" pos="480" pan="0" len="96" vol="100" />
          <note key="80" pos="576" pan="0" len="48" vol="100" />
          <note key="75" pos="624" pan="0" len="96" vol="100" />
          <note key="72" pos="720" pan="0" len="48" vol="100" />
          <note key="77" pos="768" pan="0" len="96" vol="100" />
          <note key="72" pos="864" pan="0" len="48" vol="100" />
          <note key="75" pos="912" pan="0" len="96" vol="100" />
          <note key="74" pos="1008" pan="0" len="48" vol="100" />
          <note key="70" pos="1056" pan="0" len="48" vol="100" />
          <note key="72" pos="1104" pan="0" len="48" vol="100" />
          <note key="77" pos="1152" pan="0" len="48" vol="100" />
          <note key="75" pos="1200" pan="0" len="48" vol="100" />
          <note key="77" pos="1248" pan="0" len="96" vol="100" />
          <note key="79" pos="1344" pan="0" len="48" vol="100" />
          <note key="75" pos="1392" pan="0" len="144" vol="100" />
        </pattern>
        <pattern pos="121344" muted="0" steps="16" name="" type="1">
          <note key="75" pos="0" pan="0" len="96" vol="100" />
          <note key="70" pos="96" pan="0" len="48" vol="100" />
          <note key="74" pos="144" pan="0" len="96" vol="100" />
          <note key="72" pos="240" pan="0" len="48" vol="100" />
          <note key="75" pos="288" pan="0" len="48" vol="100" />
          <note key="77" pos="336" pan="0" len="48" vol="100" />
          <note key="75" pos="384" pan="0" len="48" vol="100" />
          <note key="74" pos="432" pan="0" len="48" vol="100" />
          <note key="70" pos="480" pan="0" len="48" vol="100" />
          <note key="72" pos="528" pan="0" len="48" vol="100" />
          <note key="77" pos="576" pan="0" len="96" vol="100" />
          <note key="75" pos="672" pan="0" len="48" vol="100" />
          <note key="70" pos="720" pan="0" len="48" vol="100" />
          <note key="75" pos="768" pan="0" len="96" vol="100" />
          <note key="70" pos="864" pan="0" len="48" vol="100" />
          <note key="74" pos="912" pan="0" len="96" vol="100" />
          <note key="72" pos="1008" pan="0" len="48" vol="100" />
          <note key="75" pos="1056" pan="0" len="48" vol="100" />
          <note key="77" pos="1104" pan="0" len="48" vol="100" />
          <note key="75" pos="1152" pan="0" len="48" vol="100" />
          <note key="70" pos="1200" pan="0" len="48" vol="100" />
          <note key="72" pos="1248" pan="0" len="96" vol="100" />
          <note key="74" pos="1344" pan="0" len="96" vol="100" />
          <note key="70" pos="1440" pan="0" len="84" vol="100" />
          <note key="72" pos="1524" pan="0" len="12" vol="100" />
        </pattern>
        <pattern pos="141312" muted="0" steps="16" name="" type="1">
          <note key="60" pos="0" pan="0" len="768" vol="100" />
          <note key="60" pos="768" pan="0" len="768" vol="100" />
        </pattern>
        <pattern pos="142848" muted="0" steps="16" name="" type="1">
          <note key="77" pos="0" pan="0" len="48" vol="100" />
          <note key="79" pos="48" pan="0" len="48" vol="100" />
          <note key="72" pos="96" pan="0" len="192" vol="100" />
          <note key="72" pos="288" pan="0" len="48" vol="100" />
          <note key="77" pos="336" pan="0" len="48" vol="100" />
          <note key="79" pos="384" pan="0" len="96" vol="100" />
          <note key="82" pos="480" pan="0" len="96" vol="100" />
          <note key="81" pos="576" pan="0" len="24" vol="100" />
          <note key="82" pos="600" pan="0" len="24" vol="100" />
          <note key="77" pos="624" pan="0" len="72" vol="100" />
          <note key="77" pos="696" pan="0" len="24" vol="100" />
          <note key="75" pos="720" pan="0" len="24" vol="100" />
          <note key="74" pos="744" pan="0" len="24" vol="100" />
          <note key="72" pos="768" pan="0" len="288" vol="100" />
          <note key="72" pos="1056" pan="0" len="48" vol="100" />
          <note key="77" pos="1104" pan="0" len="48" vol="100" />
          <note key="79" pos="1152" pan="0" len="96" vol="100" />
          <note key="82" pos="1248" pan="0" len="96" vol="100" />
          <note key="84" pos="1344" pan="0" len="48" vol="100" />
          <note key="81" pos="1392" pan="0" len="72" vol="100" />
          <note key="77" pos="1464" pan="0" len="24" vol="100" />
          <note key="75" pos="1488" pan="0" len="24" vol="100" />
          <note key="74" pos="1512" pan="0" len="24" vol="100" />
        </pattern>
        <pattern pos="144384" muted="0" steps="16" name="" type="1">
          <note key="77" pos="0" pan="0" len="48" vol="100" />
          <note key="79" pos="48" pan="0" len="48" vol="100" />
          <note key="72" pos="96" pan="0" len="192" vol="100" />
          <note key="72" pos="288" pan="0" len="48" vol="100" />
          <note key="77" pos="336" pan="0" len="48" vol="100" />
          <note key="79" pos="384" pan="0" len="96" vol="100" />
          <note key="82" pos="480" pan="0" len="96" vol="100" />
          <note key="81" pos="576" pan="0" len="24" vol="100" />
          <note key="82" pos="600" pan="0" len="24" vol="100" />
          <note key="77" pos="624" pan="0" len="72" vol="100" />
          <note key="77" pos="696" pan="0" len="24" vol="100" />
          <note key="75" pos="720" pan="0" len="24" vol="100" />
          <note key="74" pos="744" pan="0" len="24" vol="100" />
          <note key="72" pos="768" pan="0" len="288" vol="100" />
          <note key="72" pos="1056" pan="0" len="48" vol="100" />
          <note key="77" pos="1104" pan="0" len="48" vol="100" />
          <note key="79" pos="1152" pan="0" len="96" vol="100" />
          <note key="82" pos="1248" pan="0" len="96" vol="100" />
          <note key="84" pos="1344" pan="0" len="48" vol="100" />
          <note key="81" pos="1392" pan="0" len="72" vol="100" />
          <note key="77" pos="1464" pan="0" len="24" vol="100" />
          <note key="75" pos="1488" pan="0" len="24" vol="100" />
          <note key="74" pos="1512" pan="0" len="24" vol="100" />
        </pattern>
        <pattern pos="145920" muted="0" steps="16" name="" type="1">
          <note key="72" pos="0" pan="0" len="144" vol="100" />
          <note key="74" pos="144" pan="0" len="48" vol="100" />
          <note key="75" pos="192" pan="0" len="96" vol="100" />
          <note key="79" pos="288" pan="0" len="96" vol="100" />
          <note key="74" pos="384" pan="0" len="144" vol="100" />
          <note key="75" pos="528" pan="0" len="24" vol="100" />
          <note key="74" pos="552" pan="0" len="24" vol="100" />
          <note key="70" pos="576" pan="0" len="144" vol="100" />
          <note key="74" pos="720" pan="0" len="48" vol="100" />
          <note key="75" pos="768" pan="0" len="144" vol="100" />
          <note key="77" pos="912" pan="0" len="48" vol="100" />
          <note key="79" pos="960" pan="0" len="96" vol="100" />
          <note key="82" pos="1056" pan="0" len="48" vol="100" />
          <note key="79" pos="1104" pan="0" len="48" vol="100" />
          <note key="77" pos="1152" pan="0" len="336" vol="100" />
          <note key="75" pos="1488" pan="0" len="24" vol="100" />
          <note key="77" pos="1512" pan="0" len="24" vol="100" />
        </pattern>
        <pattern pos="147456" muted="0" steps="16" name="" type="1">
          <note key="79" pos="0" pan="0" len="336" vol="100" />
          <note key="79" pos="336" pan="0" len="24" vol="100" />
          <note key="75" pos="360" pan="0" len="24" vol="100" />
          <note key="77" pos="384" pan="0" len="144" vol="100" />
          <note key="79" pos="528" pan="0" len="24" vol="100" />
          <note key="77" pos="552" pan="0" len="24" vol="100" />
          <note key="70" pos="576" pan="0" len="144" vol="100" />
          <note key="75" pos="720" pan="0" len="24" vol="100" />
          <note key="77" pos="744" pan="0" len="24" vol="100" />
          <note key="79" pos="768" pan="0" len="288" vol="100" />
          <note key="75" pos="1056" pan="0" len="24" vol="100" />
          <note key="72" pos="1080" pan="0" len="24" vol="100" />
          <note key="74" pos="1104" pan="0" len="24" vol="100" />
          <note key="75" pos="1128" pan="0" len="24" vol="100" />
          <note key="77" pos="1152" pan="0" len="192" vol="100" />
          <note key="74" pos="1344" pan="0" len="48" vol="100" />
          <note key="70" pos="1392" pan="0" len="96" vol="100" />
          <note key="67" pos="1488" pan="0" len="48" vol="100" />
        </pattern>
        <pattern pos="148992" muted="0" steps="16" name="" type="1">
          <note key="77" pos="0" pan="0" len="48" vol="100" />
          <note key="79" pos="48" pan="0" len="48" vol="100" />
          <note key="72" pos="96" pan="0" len="192" vol="100" />
          <note key="72" pos="288" pan="0" len="48" vol="100" />
          <note key="77" pos="336" pan="0" len="48" vol="100" />
          <note key="79" pos="384" pan="0" len="96" vol="100" />
          <note key="82" pos="480" pan="0" len="96" vol="100" />
          <note key="81" pos="576" pan="0" len="24" vol="100" />
          <note key="82" pos="600" pan="0" len="24" vol="100" />
          <note key="77" pos="624" pan="0" len="72" vol="100" />
          <note key="77" pos="696" pan="0" len="24" vol="100" />
          <note key="75" pos="720" pan="0" len="24" vol="100" />
          <note key="74" pos="744" pan="0" len="24" vol="100" />
          <note key="72" pos="768" pan="0" len="288" vol="100" />
          <note key="72" pos="1056" pan="0" len="48" vol="100" />
          <note key="77" pos="1104" pan="0" len="48" vol="100" />
          <note key="79" pos="1152" pan="0" len="96" vol="100" />
          <note key="82" pos="1248" pan="0" len="96" vol="100" />
          <note key="84" pos="1344" pan="0" len="48" vol="100" />
          <note key="81" pos="1392" pan="0" len="72" vol="100" />
          <note key="77" pos="1464" pan="0" len="24" vol="100" />
          <note key="75" pos="1488" pan="0" len="24" vol="100" />
          <note key="74" pos="1512" pan="0" len="24" vol="100" />
        </pattern>
        <pattern pos="150528" muted="0" steps="16" name="" type="1">
          <note key="77" pos="0" pan="0" len="48" vol="100" />
          <note key="79" pos="48" pan="0" len="48" vol="100" />
          <note key="72" pos="96" pan="0" len="192" vol="100" />
          <note key="72" pos="288" pan="0" len="48" vol="100" />
          <note key="77" pos="336" pan="0" len="48" vol="100" />
          <note key="79" pos="384" pan="0" len="96" vol="100" />
          <note key="82" pos="480" pan="0" len="96" vol="100" />
          <note key="81" pos="576" pan="0" len="24" vol="100" />
          <note key="82" pos="600" pan="0" len="24" vol="100" />
          <note key="77" pos="624" pan="0" len="72" vol="100" />
          <note key="77" pos="696" pan="0" len="24" vol="100" />
          <note key="75" pos="720" pan="0" len="24" vol="100" />
          <note key="74" pos="744" pan="0" len="24" vol="100" />
          <note key="72" pos="768" pan="0" len="288" vol="100" />
          <note key="72" pos="1056" pan="0" len="48" vol="100" />
          <note key="77" pos="1104" pan="0" len="48" vol="100" />
          <note key="79" pos="1152" pan="0" len="96" vol="100" />
          <note key="82" pos="1248" pan="0" len="96" vol="100" />
          <note key="84" pos="1344" pan="0" len="48" vol="100" />
          <note key="81" pos="1392" pan="0" len="72" vol="100" />
          <note key="77" pos="1464" pan="0" len="24" vol="100" />
          <note key="75" pos="1488" pan="0" len="24" vol="100" />
          <note key="74" pos="1512" pan="0" len="24" vol="100" />
        </pattern>
        <pattern pos="152064" muted="0" steps="16" name="" type="1">
          <note key="81" pos="48" pan="0" len="24" vol="100" />
          <note key="82" pos="72" pan="0" len="24" vol="100" />
          <note key="77" pos="96" pan="0" len="144" vol="100" />
          <note key="77" pos="240" pan="0" len="24" vol="100" />
          <note key="81" pos="264" pan="0" len="24" vol="100" />
          <note key="82" pos="288" pan="0" len="24" vol="100" />
          <note key="84" pos="312" pan="0" len="24" vol="100" />
          <note key="81" pos="336" pan="0" len="96" vol="100" />
          <note key="81" pos="432" pan="0" len="24" vol="100" />
          <note key="82" pos="456" pan="0" len="24" vol="100" />
          <note key="77" pos="480" pan="0" len="96" vol="100" />
          <note key="81" pos="576" pan="0" len="48" vol="100" />
          <note key="77" pos="624" pan="0" len="24" vol="100" />
          <note key="81" pos="648" pan="0" len="24" vol="100" />
          <note key="82" pos="672" pan="0" len="24" vol="100" />
          <note key="84" pos="696" pan="0" len="24" vol="100" />
          <note key="77" pos="720" pan="0" len="48" vol="100" />
          <note key="72" pos="1056" pan="0" len="48" vol="100" />
          <note key="77" pos="1104" pan="0" len="48" vol="100" />
          <note key="79" pos="1152" pan="0" len="96" vol="100" />
          <note key="82" pos="1248" pan="0" len="96" vol="100" />
          <note key="81" pos="1344" pan="0" len="48" vol="100" />
          <note key="77" pos="1392" pan="0" len="144" vol="100" />
        </pattern>
        <pattern pos="153600" muted="0" steps="16" name="" type="1">
          <note key="72" pos="288" pan="0" len="48" vol="100" />
          <note key="77" pos="336" pan="0" len="48" vol="100" />
          <note key="79" pos="384" pan="0" len="96" vol="100" />
          <note key="82" pos="480" pan="0" len="96" vol="100" />
          <note key="81" pos="576" pan="0" len="48" vol="100" />
          <note key="77" pos="624" pan="0" len="144" vol="100" />
          <note key="72" pos="1056" pan="0" len="48" vol="100" />
          <note key="77" pos="1104" pan="0" len="48" vol="100" />
          <note key="79" pos="1152" pan="0" len="96" vol="100" />
          <note key="82" pos="1248" pan="0" len="96" vol="100" />
          <note key="81" pos="1344" pan="0" len="48" vol="100" />
          <note key="77" pos="1392" pan="0" len="144" vol="100" />
        </pattern>
        <pattern pos="155136" muted="0" steps="16" name="" type="1">
          <note key="77" pos="0" pan="0" len="24" vol="100" />
          <note key="79" pos="24" pan="0" len="24" vol="100" />
          <note key="77" pos="48" pan="0" len="24" vol="100" />
          <note key="79" pos="72" pan="0" len="24" vol="100" />
          <note key="72" pos="96" pan="0" len="192" vol="100" />
          <note key="72" pos="288" pan="0" len="48" vol="100" />
          <note key="77" pos="336" pan="0" len="48" vol="100" />
          <note key="79" pos="384" pan="0" len="96" vol="100" />
          <note key="82" pos="480" pan="0" len="96" vol="100" />
          <note key="81" pos="576" pan="0" len="24" vol="100" />
          <note key="82" pos="600" pan="0" len="24" vol="100" />
          <note key="77" pos="624" pan="0" len="72" vol="100" />
          <note key="77" pos="696" pan="0" len="24" vol="100" />
          <note key="75" pos="720" pan="0" len="24" vol="100" />
          <note key="74" pos="744" pan="0" len="24" vol="100" />
          <note key="72" pos="768" pan="0" len="288" vol="100" />
          <note key="72" pos="1056" pan="0" len="48" vol="100" />
          <note key="77" pos="1104" pan="0" len="48" vol="100" />
          <note key="79" pos="1152" pan="0" len="96" vol="100" />
          <note key="82" pos="1248" pan="0" len="96" vol="100" />
          <note key="84" pos="1344" pan="0" len="48" vol="100" />
          <note key="81" pos="1392" pan="0" len="72" vol="100" />
          <note key="77" pos="1464" pan="0" len="24" vol="100" />
          <note key="75" pos="1488" pan="0" len="24" vol="100" />
          <note key="74" pos="1512" pan="0" len="24" vol="100" />
        </pattern>
        <pattern pos="156672" muted="0" steps="16" name="" type="1">
          <note key="77" pos="0" pan="0" len="24" vol="100" />
          <note key="79" pos="24" pan="0" len="24" vol="100" />
          <note key="77" pos="48" pan="0" len="24" vol="100" />
          <note key="79" pos="72" pan="0" len="24" vol="100" />
          <note key="72" pos="96" pan="0" len="192" vol="100" />
          <note key="72" pos="288" pan="0" len="48" vol="100" />
          <note key="77" pos="336" pan="0" len="48" vol="100" />
          <note key="79" pos="384" pan="0" len="96" vol="100" />
          <note key="82" pos="480" pan="0" len="96" vol="100" />
          <note key="81" pos="576" pan="0" len="24" vol="100" />
          <note key="82" pos="600" pan="0" len="24" vol="100" />
          <note key="77" pos="624" pan="0" len="72" vol="100" />
          <note key="77" pos="696" pan="0" len="24" vol="100" />
          <note key="75" pos="720" pan="0" len="24" vol="100" />
          <note key="74" pos="744" pan="0" len="24" vol="100" />
          <note key="72" pos="768" pan="0" len="288" vol="100" />
          <note key="72" pos="1056" pan="0" len="48" vol="100" />
          <note key="77" pos="1104" pan="0" len="48" vol="100" />
          <note key="79" pos="1152" pan="0" len="96" vol="100" />
          <note key="82" pos="1248" pan="0" len="96" vol="100" />
          <note key="84" pos="1344" pan="0" len="48" vol="100" />
          <note key="81" pos="1392" pan="0" len="72" vol="100" />
          <note key="77" pos="1464" pan="0" len="24" vol="100" />
          <note key="75" pos="1488" pan="0" len="24" vol="100" />
          <note key="74" pos="1512" pan="0" len="24" vol="100" />
        </pattern>
        <pattern pos="158208" muted="0" steps="16" name="" type="1">
          <note key="72" pos="0" pan="0" len="144" vol="100" />
          <note key="74" pos="144" pan="0" len="48" vol="100" />
          <note key="75" pos="192" pan="0" len="96" vol="100" />
          <note key="79" pos="288" pan="0" len="96" vol="100" />
          <note key="74" pos="384" pan="0" len="144" vol="100" />
          <note key="75" pos="528" pan="0" len="24" vol="100" />
          <note key="74" pos="552" pan="0" len="24" vol="100" />
          <note key="70" pos="576" pan="0" len="144" vol="100" />
          <note key="74" pos="720" pan="0" len="48" vol="100" />
          <note key="75" pos="768" pan="0" len="144" vol="100" />
          <note key="77" pos="912" pan="0" len="48" vol="100" />
          <note key="79" pos="960" pan="0" len="96" vol="100" />
          <note key="82" pos="1056" pan="0" len="48" vol="100" />
          <note key="79" pos="1104" pan="0" len="48" vol="100" />
          <note key="77" pos="1152" pan="0" len="336" vol="100" />
          <note key="75" pos="1488" pan="0" len="24" vol="100" />
          <note key="77" pos="1512" pan="0" len="24" vol="100" />
        </pattern>
        <pattern pos="159744" muted="0" steps="16" name="" type="1">
          <note key="79" pos="0" pan="0" len="336" vol="100" />
          <note key="79" pos="336" pan="0" len="24" vol="100" />
          <note key="75" pos="360" pan="0" len="24" vol="100" />
          <note key="77" pos="384" pan="0" len="144" vol="100" />
          <note key="79" pos="528" pan="0" len="24" vol="100" />
          <note key="77" pos="552" pan="0" len="24" vol="100" />
          <note key="70" pos="576" pan="0" len="144" vol="100" />
          <note key="75" pos="720" pan="0" len="24" vol="100" />
          <note key="77" pos="744" pan="0" len="24" vol="100" />
          <note key="79" pos="768" pan="0" len="288" vol="100" />
          <note key="75" pos="1056" pan="0" len="24" vol="100" />
          <note key="72" pos="1080" pan="0" len="24" vol="100" />
          <note key="74" pos="1104" pan="0" len="24" vol="100" />
          <note key="75" pos="1128" pan="0" len="24" vol="100" />
          <note key="77" pos="1152" pan="0" len="192" vol="100" />
          <note key="74" pos="1344" pan="0" len="48" vol="100" />
          <note key="70" pos="1392" pan="0" len="96" vol="100" />
          <note key="67" pos="1488" pan="0" len="48" vol="100" />
        </pattern>
      </track>
      <track solo="0" name="58 (Ch9)" type="0" muted="0">
        <instrumenttrack usemasterpitch="1" pitch="0.0" basenote="57" pan="0" pitchrange="12" vol="30">
          <eldata />
          <instrument name="tripleoscillator" />
        </instrumenttrack>
        <pattern pos="184704" muted="0" steps="16" name="" type="1">
          <note key="71" pos="0" pan="0" len="48" vol="100" />
          <note key="76" pos="48" pan="0" len="48" vol="100" />
          <note key="71" pos="96" pan="0" len="48" vol="100" />
          <note key="69" pos="144" pan="0" len="120" vol="100" />
          <note key="72" pos="264" pan="0" len="24" vol="100" />
          <note key="71" pos="288" pan="0" len="48" vol="100" />
          <note key="76" pos="336" pan="0" len="48" vol="100" />
          <note key="79" pos="384" pan="0" len="48" vol="100" />
          <note key="79" pos="432" pan="0" len="120" vol="100" />
          <note key="72" pos="552" pan="0" len="24" vol="100" />
          <note key="71" pos="576" pan="0" len="48" vol="100" />
          <note key="79" pos="624" pan="0" len="72" vol="100" />
          <note key="79" pos="696" pan="0" len="24" vol="100" />
          <note key="81" pos="720" pan="0" len="48" vol="100" />
          <note key="76" pos="768" pan="0" len="72" vol="100" />
          <note key="72" pos="840" pan="0" len="24" vol="100" />
          <note key="71" pos="864" pan="0" len="48" vol="100" />
          <note key="67" pos="912" pan="0" len="48" vol="100" />
          <note key="66" pos="960" pan="0" len="48" vol="100" />
          <note key="64" pos="1008" pan="0" len="144" vol="100" />
        </pattern>
        <pattern pos="176640" muted="0" steps="16" name="" type="1">
          <note key="72" pos="1128" pan="0" len="24" vol="100" />
        </pattern>
        <pattern pos="177792" muted="0" steps="16" name="" type="1">
          <note key="71" pos="0" pan="0" len="48" vol="100" />
          <note key="76" pos="48" pan="0" len="48" vol="100" />
          <note key="71" pos="96" pan="0" len="48" vol="100" />
          <note key="69" pos="144" pan="0" len="120" vol="100" />
          <note key="72" pos="264" pan="0" len="24" vol="100" />
          <note key="71" pos="288" pan="0" len="48" vol="100" />
          <note key="76" pos="336" pan="0" len="48" vol="100" />
          <note key="79" pos="384" pan="0" len="48" vol="100" />
          <note key="79" pos="432" pan="0" len="120" vol="100" />
          <note key="72" pos="552" pan="0" len="24" vol="100" />
          <note key="71" pos="576" pan="0" len="48" vol="100" />
          <note key="79" pos="624" pan="0" len="72" vol="100" />
          <note key="79" pos="696" pan="0" len="24" vol="100" />
          <note key="81" pos="720" pan="0" len="48" vol="100" />
          <note key="76" pos="768" pan="0" len="72" vol="100" />
          <note key="72" pos="840" pan="0" len="24" vol="100" />
          <note key="71" pos="864" pan="0" len="48" vol="100" />
          <note key="67" pos="912" pan="0" len="48" vol="100" />
          <note key="66" pos="960" pan="0" len="48" vol="100" />
          <note key="64" pos="1008" pan="0" len="144" vol="100" />
        </pattern>
        <pattern pos="178944" muted="0" steps="16" name="" type="1">
          <note key="72" pos="1128" pan="0" len="24" vol="100" />
        </pattern>
        <pattern pos="180096" muted="0" steps="16" name="" type="1">
          <note key="71" pos="0" pan="0" len="48" vol="100" />
          <note key="76" pos="48" pan="0" len="48" vol="100" />
          <note key="71" pos="96" pan="0" len="48" vol="100" />
          <note key="69" pos="144" pan="0" len="120" vol="100" />
          <note key="72" pos="264" pan="0" len="24" vol="100" />
          <note key="71" pos="288" pan="0" len="48" vol="100" />
          <note key="76" pos="336" pan="0" len="48" vol="100" />
          <note key="79" pos="384" pan="0" len="48" vol="100" />
          <note key="79" pos="432" pan="0" len="120" vol="100" />
          <note key="72" pos="552" pan="0" len="24" vol="100" />
          <note key="71" pos="576" pan="0" len="48" vol="100" />
          <note key="79" pos="624" pan="0" len="72" vol="100" />
          <note key="79" pos="696" pan="0" len="24" vol="100" />
          <note key="81" pos="720" pan="0" len="48" vol="100" />
          <note key="76" pos="768" pan="0" len="72" vol="100" />
          <note key="72" pos="840" pan="0" len="24" vol="100" />
          <note key="71" pos="864" pan="0" len="48" vol="100" />
          <note key="67" pos="912" pan="0" len="48" vol="100" />
          <note key="66" pos="960" pan="0" len="48" vol="100" />
          <note key="64" pos="1008" pan="0" len="144" vol="100" />
        </pattern>
        <pattern pos="181248" muted="0" steps="16" name="" type="1">
          <note key="76" pos="0" pan="0" len="24" vol="100" />
          <note key="79" pos="24" pan="0" len="24" vol="100" />
          <note key="83" pos="48" pan="0" len="72" vol="100" />
          <note key="79" pos="120" pan="0" len="24" vol="100" />
          <note key="81" pos="144" pan="0" len="48" vol="100" />
          <note key="76" pos="192" pan="0" len="48" vol="100" />
          <note key="76" pos="240" pan="0" len="24" vol="100" />
          <note key="78" pos="264" pan="0" len="24" vol="100" />
          <note key="79" pos="288" pan="0" len="96" vol="100" />
          <note key="79" pos="384" pan="0" len="24" vol="100" />
          <note key="81" pos="408" pan="0" len="24" vol="100" />
          <note key="78" pos="432" pan="0" len="48" vol="100" />
          <note key="74" pos="480" pan="0" len="48" vol="100" />
          <note key="71" pos="528" pan="0" len="48" vol="100" />
          <note key="76" pos="576" pan="0" len="24" vol="100" />
          <note key="80" pos="600" pan="0" len="24" vol="100" />
          <note key="83" pos="624" pan="0" len="72" vol="100" />
          <note key="85" pos="696" pan="0" len="24" vol="100" />
          <note key="86" pos="720" pan="0" len="48" vol="100" />
          <note key="81" pos="768" pan="0" len="48" vol="100" />
          <note key="79" pos="816" pan="0" len="48" vol="100" />
          <note key="76" pos="864" pan="0" len="96" vol="100" />
          <note key="79" pos="960" pan="0" len="48" vol="100" />
          <note key="74" pos="1008" pan="0" len="120" vol="100" />
          <note key="74" pos="1128" pan="0" len="24" vol="100" />
        </pattern>
        <pattern pos="182400" muted="0" steps="16" name="" type="1">
          <note key="76" pos="0" pan="0" len="24" vol="100" />
          <note key="79" pos="24" pan="0" len="24" vol="100" />
          <note key="83" pos="48" pan="0" len="72" vol="100" />
          <note key="79" pos="120" pan="0" len="24" vol="100" />
          <note key="81" pos="144" pan="0" len="48" vol="100" />
          <note key="76" pos="192" pan="0" len="48" vol="100" />
          <note key="76" pos="240" pan="0" len="24" vol="100" />
          <note key="78" pos="264" pan="0" len="24" vol="100" />
          <note key="79" pos="288" pan="0" len="96" vol="100" />
          <note key="79" pos="384" pan="0" len="24" vol="100" />
          <note key="81" pos="408" pan="0" len="24" vol="100" />
          <note key="78" pos="432" pan="0" len="48" vol="100" />
          <note key="74" pos="480" pan="0" len="48" vol="100" />
          <note key="71" pos="528" pan="0" len="48" vol="100" />
          <note key="76" pos="576" pan="0" len="24" vol="100" />
          <note key="80" pos="600" pan="0" len="24" vol="100" />
          <note key="83" pos="624" pan="0" len="72" vol="100" />
          <note key="85" pos="696" pan="0" len="24" vol="100" />
          <note key="86" pos="720" pan="0" len="48" vol="100" />
          <note key="81" pos="768" pan="0" len="48" vol="100" />
          <note key="79" pos="816" pan="0" len="48" vol="100" />
          <note key="76" pos="864" pan="0" len="96" vol="100" />
          <note key="76" pos="960" pan="0" len="24" vol="100" />
          <note key="78" pos="984" pan="0" len="24" vol="100" />
          <note key="74" pos="1008" pan="0" len="48" vol="100" />
          <note key="71" pos="1056" pan="0" len="48" vol="100" />
          <note key="74" pos="1104" pan="0" len="48" vol="100" />
        </pattern>
        <pattern pos="183552" muted="0" steps="16" name="" type="1">
          <note key="76" pos="0" pan="0" len="12" vol="100" />
          <note key="74" pos="144" pan="0" len="120" vol="100" />
          <note key="72" pos="264" pan="0" len="24" vol="100" />
          <note key="67" pos="288" pan="0" len="96" vol="100" />
          <note key="72" pos="384" pan="0" len="48" vol="100" />
          <note key="74" pos="432" pan="0" len="96" vol="100" />
          <note key="72" pos="528" pan="0" len="24" vol="100" />
          <note key="74" pos="552" pan="0" len="24" vol="100" />
          <note key="76" pos="576" pan="0" len="12" vol="100" />
          <note key="74" pos="720" pan="0" len="120" vol="100" />
          <note key="72" pos="840" pan="0" len="24" vol="100" />
          <note key="67" pos="864" pan="0" len="48" vol="100" />
          <note key="72" pos="912" pan="0" len="48" vol="100" />
          <note key="72" pos="960" pan="0" len="24" vol="100" />
          <note key="71" pos="984" pan="0" len="24" vol="100" />
          <note key="67" pos="1008" pan="0" len="120" vol="100" />
          <note key="72" pos="1128" pan="0" len="24" vol="100" />
        </pattern>
      </track>
      <track solo="0" name="58 (Ch10)" type="0" muted="0">
        <instrumenttrack usemasterpitch="1" pitch="0.0" basenote="57" pan="0" pitchrange="12" vol="30">
          <eldata />
          <instrument name="tripleoscillator" />
        </instrumenttrack>
        <pattern pos="259200" muted="0" steps="16" name="" type="1">
          <note key="84" pos="0" pan="0" len="144" vol="100" />
          <note key="84" pos="144" pan="0" len="48" vol="100" />
          <note key="82" pos="192" pan="0" len="144" vol="100" />
          <note key="82" pos="336" pan="0" len="48" vol="100" />
          <note key="84" pos="384" pan="0" len="144" vol="100" />
          <note key="84" pos="528" pan="0" len="48" vol="100" />
          <note key="87" pos="576" pan="0" len="96" vol="100" />
          <note key="84" pos="672" pan="0" len="48" vol="100" />
          <note key="87" pos="720" pan="0" len="12" vol="100" />
        </pattern>
        <pattern pos="86016" muted="0" steps="16" name="" type="1">
          <note key="72" pos="0" pan="0" len="156" vol="100" />
          <note key="75" pos="156" pan="0" len="36" vol="100" />
          <note key="70" pos="192" pan="0" len="96" vol="100" />
          <note key="75" pos="288" pan="0" len="96" vol="100" />
          <note key="69" pos="384" pan="0" len="144" vol="100" />
          <note key="75" pos="528" pan="0" len="48" vol="100" />
          <note key="70" pos="576" pan="0" len="72" vol="100" />
          <note key="69" pos="648" pan="0" len="72" vol="100" />
          <note key="70" pos="720" pan="0" len="48" vol="100" />
        </pattern>
        <pattern pos="86784" muted="0" steps="16" name="" type="1">
          <note key="72" pos="0" pan="0" len="156" vol="100" />
          <note key="75" pos="156" pan="0" len="36" vol="100" />
          <note key="70" pos="192" pan="0" len="96" vol="100" />
          <note key="75" pos="288" pan="0" len="96" vol="100" />
          <note key="69" pos="384" pan="0" len="384" vol="100" />
        </pattern>
        <pattern pos="88320" muted="0" steps="16" name="" type="1">
          <note key="72" pos="0" pan="0" len="156" vol="100" />
          <note key="75" pos="156" pan="0" len="36" vol="100" />
          <note key="70" pos="192" pan="0" len="96" vol="100" />
          <note key="75" pos="288" pan="0" len="96" vol="100" />
          <note key="69" pos="384" pan="0" len="384" vol="100" />
        </pattern>
        <pattern pos="139008" muted="0" steps="16" name="" type="1">
          <note key="72" pos="0" pan="0" len="24" vol="100" />
          <note key="77" pos="24" pan="0" len="24" vol="100" />
          <note key="79" pos="48" pan="0" len="144" vol="100" />
          <note key="72" pos="192" pan="0" len="24" vol="100" />
          <note key="79" pos="216" pan="0" len="24" vol="100" />
          <note key="77" pos="240" pan="0" len="144" vol="100" />
          <note key="75" pos="384" pan="0" len="24" vol="100" />
          <note key="77" pos="408" pan="0" len="24" vol="100" />
          <note key="79" pos="432" pan="0" len="144" vol="100" />
          <note key="77" pos="576" pan="0" len="24" vol="100" />
          <note key="79" pos="600" pan="0" len="24" vol="100" />
          <note key="82" pos="624" pan="0" len="144" vol="100" />
        </pattern>
        <pattern pos="172032" muted="0" steps="16" name="" type="1">
          <note key="79" pos="48" pan="0" len="24" vol="100" />
          <note key="72" pos="72" pan="0" len="48" vol="100" />
          <note key="75" pos="120" pan="0" len="48" vol="100" />
          <note key="77" pos="168" pan="0" len="48" vol="100" />
          <note key="75" pos="216" pan="0" len="24" vol="100" />
          <note key="77" pos="240" pan="0" len="48" vol="100" />
          <note key="74" pos="288" pan="0" len="24" vol="100" />
          <note key="70" pos="312" pan="0" len="24" vol="100" />
          <note key="67" pos="336" pan="0" len="48" vol="100" />
          <note key="72" pos="384" pan="0" len="48" vol="100" />
          <note key="75" pos="432" pan="0" len="24" vol="100" />
          <note key="74" pos="456" pan="0" len="48" vol="100" />
          <note key="70" pos="504" pan="0" len="48" vol="100" />
          <note key="72" pos="552" pan="0" len="48" vol="100" />
          <note key="75" pos="600" pan="0" len="24" vol="100" />
          <note key="74" pos="624" pan="0" len="24" vol="100" />
          <note key="70" pos="648" pan="0" len="24" vol="100" />
          <note key="67" pos="672" pan="0" len="48" vol="100" />
          <note key="72" pos="720" pan="0" len="96" vol="100" />
          <note key="91" pos="816" pan="0" len="24" vol="100" />
          <note key="84" pos="840" pan="0" len="48" vol="100" />
          <note key="87" pos="888" pan="0" len="48" vol="100" />
          <note key="89" pos="936" pan="0" len="48" vol="100" />
          <note key="87" pos="984" pan="0" len="24" vol="100" />
          <note key="89" pos="1008" pan="0" len="24" vol="100" />
          <note key="87" pos="1032" pan="0" len="24" vol="100" />
          <note key="89" pos="1056" pan="0" len="48" vol="100" />
          <note key="84" pos="1104" pan="0" len="48" vol="100" />
          <note key="82" pos="1152" pan="0" len="48" vol="100" />
          <note key="87" pos="1200" pan="0" len="24" vol="100" />
          <note key="86" pos="1224" pan="0" len="48" vol="100" />
          <note key="82" pos="1272" pan="0" len="24" vol="100" />
          <note key="79" pos="1296" pan="0" len="24" vol="100" />
          <note key="84" pos="1320" pan="0" len="48" vol="100" />
          <note key="87" pos="1368" pan="0" len="24" vol="100" />
          <note key="89" pos="1392" pan="0" len="24" vol="100" />
          <note key="82" pos="1416" pan="0" len="24" vol="100" />
          <note key="79" pos="1440" pan="0" len="48" vol="100" />
          <note key="82" pos="1488" pan="0" len="48" vol="100" />
        </pattern>
        <pattern pos="173568" muted="0" steps="16" name="" type="1">
          <note key="79" pos="48" pan="0" len="24" vol="100" />
          <note key="75" pos="72" pan="0" len="48" vol="100" />
          <note key="72" pos="120" pan="0" len="24" vol="100" />
          <note key="75" pos="144" pan="0" len="48" vol="100" />
          <note key="77" pos="192" pan="0" len="48" vol="100" />
          <note key="75" pos="240" pan="0" len="24" vol="100" />
          <note key="72" pos="264" pan="0" len="24" vol="100" />
          <note key="67" pos="288" pan="0" len="48" vol="100" />
          <note key="72" pos="336" pan="0" len="48" vol="100" />
          <note key="72" pos="384" pan="0" len="48" vol="100" />
          <note key="75" pos="432" pan="0" len="24" vol="100" />
          <note key="74" pos="456" pan="0" len="48" vol="100" />
          <note key="70" pos="504" pan="0" len="48" vol="100" />
          <note key="67" pos="552" pan="0" len="24" vol="100" />
          <note key="72" pos="576" pan="0" len="24" vol="100" />
          <note key="75" pos="600" pan="0" len="24" vol="100" />
          <note key="74" pos="624" pan="0" len="48" vol="100" />
          <note key="65" pos="672" pan="0" len="48" vol="100" />
          <note key="70" pos="720" pan="0" len="48" vol="100" />
          <note key="72" pos="768" pan="0" len="48" vol="100" />
          <note key="79" pos="816" pan="0" len="24" vol="100" />
          <note key="72" pos="840" pan="0" len="48" vol="100" />
          <note key="75" pos="888" pan="0" len="48" vol="100" />
          <note key="77" pos="936" pan="0" len="48" vol="100" />
          <note key="75" pos="984" pan="0" len="24" vol="100" />
          <note key="77" pos="1008" pan="0" len="24" vol="100" />
          <note key="75" pos="1032" pan="0" len="24" vol="100" />
          <note key="77" pos="1056" pan="0" len="24" vol="100" />
          <note key="75" pos="1080" pan="0" len="24" vol="100" />
          <note key="72" pos="1104" pan="0" len="48" vol="100" />
          <note key="70" pos="1152" pan="0" len="48" vol="100" />
          <note key="75" pos="1200" pan="0" len="24" vol="100" />
          <note key="74" pos="1224" pan="0" len="48" vol="100" />
          <note key="70" pos="1272" pan="0" len="48" vol="100" />
          <note key="72" pos="1320" pan="0" len="48" vol="100" />
          <note key="75" pos="1368" pan="0" len="24" vol="100" />
          <note key="74" pos="1392" pan="0" len="24" vol="100" />
          <note key="70" pos="1416" pan="0" len="24" vol="100" />
          <note key="67" pos="1440" pan="0" len="48" vol="100" />
          <note key="70" pos="1488" pan="0" len="48" vol="100" />
        </pattern>
        <pattern pos="177792" muted="0" steps="16" name="" type="1">
          <note key="76" pos="624" pan="0" len="72" vol="100" />
        </pattern>
        <pattern pos="180096" muted="0" steps="16" name="" type="1">
          <note key="76" pos="624" pan="0" len="72" vol="100" />
        </pattern>
        <pattern pos="184704" muted="0" steps="16" name="" type="1">
          <note key="76" pos="624" pan="0" len="72" vol="100" />
        </pattern>
      </track>
      <track solo="0" name="58 (Ch11)" type="0" muted="0">
        <instrumenttrack usemasterpitch="1" pitch="0.0" basenote="57" pan="0" pitchrange="12" vol="30">
          <eldata />
          <instrument name="tripleoscillator" />
        </instrumenttrack>
        <pattern pos="184704" muted="0" steps="16" name="" type="1">
          <note key="71" pos="624" pan="0" len="384" vol="100" />
        </pattern>
        <pattern pos="177792" muted="0" steps="16" name="" type="1">
          <note key="71" pos="624" pan="0" len="528" vol="100" />
        </pattern>
        <pattern pos="180096" muted="0" steps="16" name="" type="1">
          <note key="71" pos="624" pan="0" len="528" vol="100" />
        </pattern>
      </track>
      <track solo="0" name="58 (Ch13)" type="0" muted="0">
        <instrumenttrack usemasterpitch="1" pitch="0.0" basenote="57" pan="0" pitchrange="12" vol="30">
          <eldata />
          <instrument name="tripleoscillator" />
        </instrumenttrack>
        <pattern pos="193536" muted="0" steps="16" name="" type="1">
          <note key="71" pos="0" pan="0" len="24" vol="100" />
          <note key="62" pos="24" pan="0" len="24" vol="100" />
          <note key="64" pos="48" pan="0" len="24" vol="100" />
          <note key="71" pos="72" pan="0" len="24" vol="100" />
          <note key="62" pos="96" pan="0" len="24" vol="100" />
          <note key="64" pos="120" pan="0" len="24" vol="100" />
          <note key="71" pos="144" pan="0" len="12" vol="100" />
          <note key="62" pos="156" pan="0" len="12" vol="100" />
          <note key="64" pos="168" pan="0" len="24" vol="100" />
          <note key="71" pos="192" pan="0" len="24" vol="100" />
          <note key="62" pos="216" pan="0" len="24" vol="100" />
          <note key="64" pos="240" pan="0" len="24" vol="100" />
          <note key="71" pos="264" pan="0" len="24" vol="100" />
          <note key="62" pos="288" pan="0" len="24" vol="100" />
          <note key="64" pos="312" pan="0" len="24" vol="100" />
          <note key="71" pos="336" pan="0" len="12" vol="100" />
          <note key="62" pos="348" pan="0" len="12" vol="100" />
          <note key="64" pos="360" pan="0" len="24" vol="100" />
          <note key="69" pos="384" pan="0" len="24" vol="100" />
          <note key="62" pos="408" pan="0" len="24" vol="100" />
          <note key="64" pos="432" pan="0" len="24" vol="100" />
          <note key="69" pos="456" pan="0" len="24" vol="100" />
          <note key="62" pos="480" pan="0" len="24" vol="100" />
          <note key="64" pos="504" pan="0" len="24" vol="100" />
          <note key="69" pos="528" pan="0" len="12" vol="100" />
          <note key="62" pos="540" pan="0" len="12" vol="100" />
          <note key="64" pos="552" pan="0" len="24" vol="100" />
          <note key="69" pos="576" pan="0" len="24" vol="100" />
          <note key="62" pos="600" pan="0" len="24" vol="100" />
          <note key="64" pos="624" pan="0" len="24" vol="100" />
          <note key="71" pos="648" pan="0" len="24" vol="100" />
          <note key="62" pos="672" pan="0" len="24" vol="100" />
          <note key="64" pos="696" pan="0" len="24" vol="100" />
          <note key="73" pos="720" pan="0" len="12" vol="100" />
          <note key="62" pos="732" pan="0" len="12" vol="100" />
          <note key="64" pos="744" pan="0" len="24" vol="100" />
          <note key="71" pos="768" pan="0" len="24" vol="100" />
          <note key="62" pos="792" pan="0" len="24" vol="100" />
          <note key="64" pos="816" pan="0" len="24" vol="100" />
          <note key="71" pos="840" pan="0" len="24" vol="100" />
          <note key="62" pos="864" pan="0" len="24" vol="100" />
          <note key="64" pos="888" pan="0" len="24" vol="100" />
          <note key="71" pos="912" pan="0" len="12" vol="100" />
          <note key="62" pos="924" pan="0" len="12" vol="100" />
          <note key="64" pos="936" pan="0" len="24" vol="100" />
          <note key="71" pos="960" pan="0" len="24" vol="100" />
          <note key="62" pos="984" pan="0" len="24" vol="100" />
          <note key="64" pos="1008" pan="0" len="24" vol="100" />
          <note key="71" pos="1032" pan="0" len="24" vol="100" />
          <note key="62" pos="1056" pan="0" len="24" vol="100" />
          <note key="64" pos="1080" pan="0" len="24" vol="100" />
          <note key="71" pos="1104" pan="0" len="12" vol="100" />
          <note key="62" pos="1116" pan="0" len="12" vol="100" />
          <note key="64" pos="1128" pan="0" len="24" vol="100" />
          <note key="69" pos="1152" pan="0" len="24" vol="100" />
          <note key="62" pos="1176" pan="0" len="24" vol="100" />
          <note key="64" pos="1200" pan="0" len="24" vol="100" />
          <note key="69" pos="1224" pan="0" len="24" vol="100" />
          <note key="62" pos="1248" pan="0" len="24" vol="100" />
          <note key="64" pos="1272" pan="0" len="24" vol="100" />
          <note key="69" pos="1296" pan="0" len="12" vol="100" />
          <note key="62" pos="1308" pan="0" len="12" vol="100" />
          <note key="64" pos="1320" pan="0" len="24" vol="100" />
          <note key="69" pos="1344" pan="0" len="24" vol="100" />
          <note key="62" pos="1368" pan="0" len="24" vol="100" />
          <note key="64" pos="1392" pan="0" len="24" vol="100" />
          <note key="71" pos="1416" pan="0" len="24" vol="100" />
          <note key="62" pos="1440" pan="0" len="24" vol="100" />
          <note key="64" pos="1464" pan="0" len="24" vol="100" />
          <note key="73" pos="1488" pan="0" len="12" vol="100" />
          <note key="62" pos="1500" pan="0" len="12" vol="100" />
          <note key="64" pos="1512" pan="0" len="24" vol="100" />
        </pattern>
        <pattern pos="87552" muted="0" steps="16" name="" type="1">
          <note key="72" pos="0" pan="0" len="156" vol="100" />
          <note key="74" pos="156" pan="0" len="36" vol="100" />
          <note key="75" pos="192" pan="0" len="96" vol="100" />
          <note key="79" pos="288" pan="0" len="96" vol="100" />
          <note key="77" pos="384" pan="0" len="144" vol="100" />
          <note key="74" pos="528" pan="0" len="48" vol="100" />
          <note key="81" pos="576" pan="0" len="96" vol="100" />
          <note key="81" pos="672" pan="0" len="96" vol="100" />
        </pattern>
      </track>
      <track solo="0" name="59 (Ch4)" type="0" muted="0">
        <instrumenttrack usemasterpitch="1" pitch="0.0" basenote="57" pan="0" pitchrange="12" vol="30">
          <eldata />
          <instrument name="tripleoscillator" />
        </instrumenttrack>
        <pattern pos="70656" muted="0" steps="16" name="" type="1">
          <note key="108" pos="0" pan="0" len="768" vol="100" />
        </pattern>
        <pattern pos="61440" muted="0" steps="16" name="" type="1">
          <note key="108" pos="0" pan="0" len="768" vol="100" />
        </pattern>
      </track>
      <track solo="0" name="59 (Ch6)" type="0" muted="0">
        <instrumenttrack usemasterpitch="1" pitch="0.0" basenote="57" pan="0" pitchrange="12" vol="30">
          <eldata />
          <instrument name="tripleoscillator" />
        </instrumenttrack>
        <pattern pos="225984" muted="0" steps="16" name="" type="1">
          <note key="79" pos="0" pan="0" len="12" vol="100" />
          <note key="82" pos="288" pan="0" len="12" vol="100" />
          <note key="84" pos="336" pan="0" len="12" vol="100" />
          <note key="81" pos="384" pan="0" len="12" vol="100" />
          <note key="77" pos="528" pan="0" len="12" vol="100" />
          <note key="74" pos="576" pan="0" len="12" vol="100" />
        </pattern>
        <pattern pos="224448" muted="0" steps="16" name="" type="1">
          <note key="79" pos="0" pan="0" len="12" vol="100" />
          <note key="82" pos="288" pan="0" len="12" vol="100" />
          <note key="81" pos="384" pan="0" len="12" vol="100" />
          <note key="74" pos="528" pan="0" len="12" vol="100" />
        </pattern>
      </track>
      <track solo="0" name="59 (Ch10)" type="0" muted="0">
        <instrumenttrack usemasterpitch="1" pitch="0.0" basenote="57" pan="0" pitchrange="12" vol="30">
          <eldata />
          <instrument name="tripleoscillator" />
        </instrumenttrack>
        <pattern pos="127488" muted="0" steps="16" name="" type="1">
          <note key="72" pos="0" pan="0" len="24" vol="100" />
          <note key="72" pos="24" pan="0" len="1512" vol="100" />
        </pattern>
        <pattern pos="125952" muted="0" steps="16" name="" type="1">
          <note key="72" pos="0" pan="0" len="24" vol="100" />
          <note key="72" pos="24" pan="0" len="1512" vol="100" />
        </pattern>
      </track>
      <track solo="0" name="59 (Ch12)" type="0" muted="0">
        <instrumenttrack usemasterpitch="1" pitch="0.0" basenote="57" pan="0" pitchrange="12" vol="30">
          <eldata />
          <instrument name="tripleoscillator" />
        </instrumenttrack>
        <pattern pos="75264" muted="0" steps="16" name="" type="1">
          <note key="84" pos="0" pan="0" len="36" vol="100" />
          <note key="84" pos="36" pan="0" len="156" vol="50" />
          <note key="81" pos="192" pan="0" len="192" vol="100" />
          <note key="79" pos="384" pan="0" len="120" vol="100" />
          <note key="72" pos="504" pan="0" len="72" vol="100" />
          <note key="77" pos="576" pan="0" len="192" vol="100" />
          <note key="84" pos="768" pan="0" len="36" vol="100" />
          <note key="84" pos="804" pan="0" len="156" vol="50" />
          <note key="81" pos="960" pan="0" len="192" vol="100" />
          <note key="79" pos="1152" pan="0" len="120" vol="100" />
          <note key="72" pos="1272" pan="0" len="72" vol="100" />
          <note key="77" pos="1344" pan="0" len="192" vol="100" />
        </pattern>
        <pattern pos="56832" muted="0" steps="16" name="" type="1">
          <note key="82" pos="0" pan="0" len="36" vol="100" />
          <note key="82" pos="36" pan="0" len="156" vol="50" />
          <note key="81" pos="192" pan="0" len="192" vol="100" />
          <note key="79" pos="384" pan="0" len="120" vol="100" />
          <note key="72" pos="504" pan="0" len="72" vol="100" />
          <note key="77" pos="576" pan="0" len="192" vol="100" />
          <note key="75" pos="768" pan="0" len="192" vol="100" />
          <note key="79" pos="960" pan="0" len="192" vol="100" />
          <note key="82" pos="1152" pan="0" len="120" vol="100" />
          <note key="72" pos="1272" pan="0" len="72" vol="100" />
          <note key="81" pos="1344" pan="0" len="120" vol="100" />
          <note key="70" pos="1464" pan="0" len="72" vol="100" />
        </pattern>
        <pattern pos="58368" muted="0" steps="16" name="" type="1">
          <note key="82" pos="0" pan="0" len="36" vol="100" />
          <note key="82" pos="36" pan="0" len="156" vol="50" />
          <note key="81" pos="192" pan="0" len="192" vol="100" />
          <note key="79" pos="384" pan="0" len="192" vol="100" />
          <note key="72" pos="576" pan="0" len="192" vol="100" />
          <note key="75" pos="768" pan="0" len="192" vol="100" />
          <note key="79" pos="960" pan="0" len="192" vol="100" />
          <note key="82" pos="1152" pan="0" len="192" vol="100" />
          <note key="81" pos="1344" pan="0" len="96" vol="100" />
          <note key="72" pos="1440" pan="0" len="96" vol="100" />
        </pattern>
        <pattern pos="59904" muted="0" steps="16" name="" type="1">
          <note key="82" pos="0" pan="0" len="36" vol="100" />
          <note key="82" pos="36" pan="0" len="156" vol="50" />
          <note key="81" pos="192" pan="0" len="192" vol="100" />
          <note key="79" pos="384" pan="0" len="120" vol="100" />
          <note key="72" pos="504" pan="0" len="72" vol="100" />
          <note key="77" pos="576" pan="0" len="192" vol="100" />
          <note key="75" pos="768" pan="0" len="192" vol="100" />
          <note key="79" pos="960" pan="0" len="192" vol="100" />
          <note key="82" pos="1152" pan="0" len="120" vol="100" />
          <note key="72" pos="1272" pan="0" len="72" vol="100" />
          <note key="81" pos="1344" pan="0" len="120" vol="100" />
          <note key="70" pos="1464" pan="0" len="72" vol="100" />
        </pattern>
        <pattern pos="62976" muted="0" steps="16" name="" type="1">
          <note key="82" pos="0" pan="0" len="36" vol="100" />
          <note key="82" pos="36" pan="0" len="156" vol="50" />
          <note key="81" pos="192" pan="0" len="192" vol="100" />
          <note key="79" pos="384" pan="0" len="120" vol="100" />
          <note key="72" pos="504" pan="0" len="72" vol="100" />
          <note key="77" pos="576" pan="0" len="192" vol="100" />
          <note key="75" pos="768" pan="0" len="192" vol="100" />
          <note key="79" pos="960" pan="0" len="192" vol="100" />
          <note key="82" pos="1152" pan="0" len="120" vol="100" />
          <note key="72" pos="1272" pan="0" len="72" vol="100" />
          <note key="81" pos="1344" pan="0" len="120" vol="100" />
          <note key="70" pos="1464" pan="0" len="72" vol="100" />
        </pattern>
        <pattern pos="64512" muted="0" steps="16" name="" type="1">
          <note key="84" pos="0" pan="0" len="36" vol="100" />
          <note key="84" pos="36" pan="0" len="156" vol="50" />
          <note key="81" pos="192" pan="0" len="192" vol="100" />
          <note key="79" pos="384" pan="0" len="120" vol="100" />
          <note key="72" pos="504" pan="0" len="72" vol="100" />
          <note key="77" pos="576" pan="0" len="192" vol="100" />
          <note key="84" pos="768" pan="0" len="36" vol="100" />
          <note key="84" pos="804" pan="0" len="156" vol="50" />
          <note key="81" pos="960" pan="0" len="192" vol="100" />
          <note key="79" pos="1152" pan="0" len="120" vol="100" />
          <note key="72" pos="1272" pan="0" len="72" vol="100" />
          <note key="77" pos="1344" pan="0" len="192" vol="100" />
        </pattern>
        <pattern pos="66048" muted="0" steps="16" name="" type="1">
          <note key="84" pos="0" pan="0" len="36" vol="100" />
          <note key="84" pos="36" pan="0" len="156" vol="50" />
          <note key="81" pos="192" pan="0" len="192" vol="100" />
          <note key="79" pos="384" pan="0" len="120" vol="100" />
          <note key="72" pos="504" pan="0" len="72" vol="100" />
          <note key="77" pos="576" pan="0" len="192" vol="100" />
          <note key="84" pos="768" pan="0" len="36" vol="100" />
          <note key="84" pos="804" pan="0" len="156" vol="50" />
          <note key="81" pos="960" pan="0" len="192" vol="100" />
          <note key="79" pos="1152" pan="0" len="120" vol="100" />
          <note key="72" pos="1272" pan="0" len="72" vol="100" />
          <note key="77" pos="1344" pan="0" len="192" vol="100" />
        </pattern>
        <pattern pos="67584" muted="0" steps="16" name="" type="1">
          <note key="82" pos="0" pan="0" len="36" vol="100" />
          <note key="82" pos="36" pan="0" len="156" vol="50" />
          <note key="81" pos="192" pan="0" len="192" vol="100" />
          <note key="79" pos="384" pan="0" len="120" vol="100" />
          <note key="72" pos="504" pan="0" len="72" vol="100" />
          <note key="77" pos="576" pan="0" len="192" vol="100" />
          <note key="75" pos="768" pan="0" len="192" vol="100" />
          <note key="79" pos="960" pan="0" len="192" vol="100" />
          <note key="82" pos="1152" pan="0" len="120" vol="100" />
          <note key="72" pos="1272" pan="0" len="72" vol="100" />
          <note key="81" pos="1344" pan="0" len="120" vol="100" />
          <note key="70" pos="1464" pan="0" len="72" vol="100" />
        </pattern>
        <pattern pos="69120" muted="0" steps="16" name="" type="1">
          <note key="82" pos="0" pan="0" len="36" vol="100" />
          <note key="82" pos="36" pan="0" len="156" vol="50" />
          <note key="81" pos="192" pan="0" len="192" vol="100" />
          <note key="79" pos="384" pan="0" len="120" vol="100" />
          <note key="72" pos="504" pan="0" len="72" vol="100" />
          <note key="77" pos="576" pan="0" len="192" vol="100" />
          <note key="75" pos="768" pan="0" len="192" vol="100" />
          <note key="79" pos="960" pan="0" len="192" vol="100" />
          <note key="82" pos="1152" pan="0" len="120" vol="100" />
          <note key="72" pos="1272" pan="0" len="72" vol="100" />
          <note key="81" pos="1344" pan="0" len="120" vol="100" />
          <note key="70" pos="1464" pan="0" len="72" vol="100" />
        </pattern>
        <pattern pos="72192" muted="0" steps="16" name="" type="1">
          <note key="82" pos="0" pan="0" len="36" vol="100" />
          <note key="82" pos="36" pan="0" len="156" vol="50" />
          <note key="81" pos="192" pan="0" len="192" vol="100" />
          <note key="79" pos="384" pan="0" len="120" vol="100" />
          <note key="72" pos="504" pan="0" len="72" vol="100" />
          <note key="77" pos="576" pan="0" len="192" vol="100" />
          <note key="75" pos="768" pan="0" len="192" vol="100" />
          <note key="79" pos="960" pan="0" len="192" vol="100" />
          <note key="82" pos="1152" pan="0" len="120" vol="100" />
          <note key="72" pos="1272" pan="0" len="72" vol="100" />
          <note key="81" pos="1344" pan="0" len="120" vol="100" />
          <note key="70" pos="1464" pan="0" len="72" vol="100" />
        </pattern>
        <pattern pos="73728" muted="0" steps="16" name="" type="1">
          <note key="84" pos="0" pan="0" len="36" vol="100" />
          <note key="84" pos="36" pan="0" len="156" vol="50" />
          <note key="81" pos="192" pan="0" len="192" vol="100" />
          <note key="79" pos="384" pan="0" len="120" vol="100" />
          <note key="72" pos="504" pan="0" len="72" vol="100" />
          <note key="77" pos="576" pan="0" len="192" vol="100" />
          <note key="84" pos="768" pan="0" len="36" vol="100" />
          <note key="84" pos="804" pan="0" len="156" vol="50" />
          <note key="81" pos="960" pan="0" len="192" vol="100" />
          <note key="79" pos="1152" pan="0" len="120" vol="100" />
          <note key="72" pos="1272" pan="0" len="72" vol="100" />
          <note key="77" pos="1344" pan="0" len="192" vol="100" />
        </pattern>
      </track>
      <track solo="0" name="60 (Ch1)" type="0" muted="0">
        <instrumenttrack usemasterpitch="1" pitch="0.0" basenote="57" pan="0" pitchrange="12" vol="30">
          <eldata />
          <instrument name="tripleoscillator" />
        </instrumenttrack>
        <pattern pos="259200" muted="0" steps="16" name="" type="1">
          <note key="24" pos="720" pan="0" len="48" vol="100" />
        </pattern>
      </track>
      <track solo="0" name="60 (Ch2)" type="0" muted="0">
        <instrumenttrack usemasterpitch="1" pitch="0.0" basenote="57" pan="0" pitchrange="12" vol="30">
          <eldata />
          <instrument name="tripleoscillator" />
        </instrumenttrack>
        <pattern pos="58368" muted="0" steps="16" name="" type="1">
          <note key="19" pos="1392" pan="0" len="144" vol="100" />
        </pattern>
      </track>
      <track solo="0" name="60 (Ch3)" type="0" muted="0">
        <instrumenttrack usemasterpitch="1" pitch="0.0" basenote="57" pan="0" pitchrange="12" vol="30">
          <eldata />
          <instrument name="tripleoscillator" />
        </instrumenttrack>
        <pattern pos="211968" muted="0" steps="16" name="" type="1">
          <note key="48" pos="672" pan="0" len="96" vol="100" />
        </pattern>
        <pattern pos="58368" muted="0" steps="16" name="" type="1">
          <note key="12" pos="1392" pan="0" len="144" vol="100" />
        </pattern>
        <pattern pos="115200" muted="0" steps="16" name="" type="1">
          <note key="72" pos="1440" pan="0" len="96" vol="100" />
        </pattern>
        <pattern pos="204288" muted="0" steps="16" name="" type="1">
          <note key="36" pos="672" pan="0" len="96" vol="100" />
        </pattern>
        <pattern pos="205824" muted="0" steps="16" name="" type="1">
          <note key="48" pos="672" pan="0" len="96" vol="100" />
        </pattern>
        <pattern pos="210432" muted="0" steps="16" name="" type="1">
          <note key="36" pos="672" pan="0" len="96" vol="100" />
        </pattern>
      </track>
      <track solo="0" name="60 (Ch5)" type="0" muted="0">
        <instrumenttrack usemasterpitch="1" pitch="0.0" basenote="57" pan="0" pitchrange="12" vol="30">
          <eldata />
          <instrument name="tripleoscillator" />
        </instrumenttrack>
        <pattern pos="133632" muted="0" steps="16" name="" type="1">
          <note key="24" pos="1344" pan="0" len="192" vol="100" />
        </pattern>
        <pattern pos="20736" muted="0" steps="16" name="" type="1">
          <note key="36" pos="1464" pan="0" len="72" vol="100" />
        </pattern>
        <pattern pos="92160" muted="0" steps="16" name="" type="1">
          <note key="46" pos="168" pan="0" len="1272" vol="34" />
        </pattern>
      </track>
      <track solo="0" name="60 (Ch6)" type="0" muted="0">
        <instrumenttrack usemasterpitch="1" pitch="0.0" basenote="57" pan="0" pitchrange="12" vol="30">
          <eldata />
          <instrument name="tripleoscillator" />
        </instrumenttrack>
        <pattern pos="133632" muted="0" steps="16" name="" type="1">
          <note key="29" pos="1344" pan="0" len="192" vol="100" />
        </pattern>
        <pattern pos="92160" muted="0" steps="16" name="" type="1">
          <note key="46" pos="144" pan="0" len="1392" vol="100" />
        </pattern>
      </track>
      <track solo="0" name="60 (Ch7)" type="0" muted="0">
        <instrumenttrack usemasterpitch="1" pitch="0.0" basenote="57" pan="0" pitchrange="12" vol="30">
          <eldata />
          <instrument name="tripleoscillator" />
        </instrumenttrack>
        <pattern pos="105984" muted="0" steps="16" name="" type="1">
          <note key="62" pos="1344" pan="0" len="192" vol="34" />
        </pattern>
      </track>
      <track solo="0" name="60 (Ch8)" type="0" muted="0">
        <instrumenttrack usemasterpitch="1" pitch="0.0" basenote="57" pan="0" pitchrange="12" vol="30">
          <eldata />
          <instrument name="tripleoscillator" />
        </instrumenttrack>
        <pattern pos="104448" muted="0" steps="16" name="" type="1">
          <note key="50" pos="1440" pan="0" len="96" vol="100" />
        </pattern>
      </track>
      <track solo="0" name="60 (Ch9)" type="0" muted="0">
        <instrumenttrack usemasterpitch="1" pitch="0.0" basenote="57" pan="0" pitchrange="12" vol="30">
          <eldata />
          <instrument name="tripleoscillator" />
        </instrumenttrack>
        <pattern pos="193536" muted="0" steps="16" name="" type="1">
          <note key="7" pos="96" pan="0" len="480" vol="100" />
          <note key="7" pos="576" pan="0" len="480" vol="100" />
          <note key="7" pos="1056" pan="0" len="480" vol="100" />
        </pattern>
        <pattern pos="0" muted="0" steps="16" name="" type="1">
          <note key="48" pos="480" pan="0" len="288" vol="100" />
        </pattern>
        <pattern pos="30720" muted="0" steps="16" name="" type="1">
          <note key="72" pos="0" pan="0" len="288" vol="100" />
        </pattern>
        <pattern pos="38784" muted="0" steps="16" name="" type="1">
          <note key="72" pos="0" pan="0" len="288" vol="100" />
        </pattern>
        <pattern pos="39936" muted="0" steps="16" name="" type="1">
          <note key="72" pos="0" pan="0" len="288" vol="100" />
        </pattern>
        <pattern pos="104448" muted="0" steps="16" name="" type="1">
          <note key="65" pos="1440" pan="0" len="96" vol="100" />
        </pattern>
        <pattern pos="188928" muted="0" steps="16" name="" type="1">
          <note key="7" pos="96" pan="0" len="480" vol="100" />
          <note key="7" pos="576" pan="0" len="480" vol="100" />
          <note key="7" pos="1056" pan="0" len="480" vol="100" />
        </pattern>
      </track>
      <track solo="0" name="60 (Ch10)" type="0" muted="0">
        <instrumenttrack usemasterpitch="1" pitch="0.0" basenote="57" pan="0" pitchrange="12" vol="30">
          <eldata />
          <instrument name="tripleoscillator" />
        </instrumenttrack>
        <pattern pos="198144" muted="0" steps="16" name="" type="1">
          <note key="72" pos="1464" pan="0" len="72" vol="47" />
        </pattern>
        <pattern pos="0" muted="0" steps="16" name="" type="1">
          <note key="24" pos="480" pan="0" len="288" vol="100" />
        </pattern>
        <pattern pos="30720" muted="0" steps="16" name="" type="1">
          <note key="72" pos="36" pan="0" len="288" vol="34" />
        </pattern>
        <pattern pos="38784" muted="0" steps="16" name="" type="1">
          <note key="72" pos="36" pan="0" len="288" vol="34" />
        </pattern>
        <pattern pos="39936" muted="0" steps="16" name="" type="1">
          <note key="72" pos="36" pan="0" len="288" vol="34" />
        </pattern>
        <pattern pos="188928" muted="0" steps="16" name="" type="1">
          <note key="10" pos="96" pan="0" len="480" vol="100" />
          <note key="10" pos="576" pan="0" len="480" vol="100" />
          <note key="10" pos="1056" pan="0" len="480" vol="100" />
        </pattern>
        <pattern pos="193536" muted="0" steps="16" name="" type="1">
          <note key="10" pos="96" pan="0" len="480" vol="100" />
          <note key="10" pos="576" pan="0" len="480" vol="100" />
          <note key="10" pos="1056" pan="0" len="480" vol="100" />
        </pattern>
      </track>
      <track solo="0" name="60 (Ch11)" type="0" muted="0">
        <instrumenttrack usemasterpitch="1" pitch="0.0" basenote="57" pan="0" pitchrange="12" vol="30">
          <eldata />
          <instrument name="tripleoscillator" />
        </instrumenttrack>
        <pattern pos="247680" muted="0" steps="16" name="" type="1">
          <note key="60" pos="192" pan="0" len="1344" vol="8" />
        </pattern>
        <pattern pos="44544" muted="0" steps="16" name="" type="1">
          <note key="12" pos="1068" pan="0" len="84" vol="100" />
        </pattern>
        <pattern pos="50304" muted="0" steps="16" name="" type="1">
          <note key="12" pos="1068" pan="0" len="84" vol="100" />
        </pattern>
        <pattern pos="173568" muted="0" steps="16" name="" type="1">
          <note key="24" pos="1440" pan="0" len="96" vol="100" />
        </pattern>
        <pattern pos="240000" muted="0" steps="16" name="" type="1">
          <note key="60" pos="192" pan="0" len="1344" vol="8" />
        </pattern>
      </track>
      <track solo="0" name="60 (Ch12)" type="0" muted="0">
        <instrumenttrack usemasterpitch="1" pitch="0.0" basenote="57" pan="0" pitchrange="12" vol="30">
          <eldata />
          <instrument name="tripleoscillator" />
        </instrumenttrack>
        <pattern pos="247680" muted="0" steps="16" name="" type="1">
          <note key="55" pos="192" pan="0" len="1344" vol="8" />
        </pattern>
        <pattern pos="53760" muted="0" steps="16" name="" type="1">
          <note key="60" pos="0" pan="0" len="144" vol="100" />
        </pattern>
        <pattern pos="173568" muted="0" steps="16" name="" type="1">
          <note key="31" pos="1440" pan="0" len="96" vol="100" />
        </pattern>
        <pattern pos="240000" muted="0" steps="16" name="" type="1">
          <note key="55" pos="192" pan="0" len="1344" vol="8" />
        </pattern>
      </track>
      <track solo="0" name="60 (Ch13)" type="0" muted="0">
        <instrumenttrack usemasterpitch="1" pitch="0.0" basenote="57" pan="0" pitchrange="12" vol="30">
          <eldata />
          <instrument name="tripleoscillator" />
        </instrumenttrack>
        <pattern pos="265344" muted="0" steps="16" name="" type="1">
          <note key="24" pos="720" pan="0" len="48" vol="100" />
        </pattern>
        <pattern pos="33024" muted="0" steps="16" name="" type="1">
          <note key="55" pos="1008" pan="0" len="144" vol="100" />
        </pattern>
        <pattern pos="53760" muted="0" steps="16" name="" type="1">
          <note key="63" pos="0" pan="0" len="144" vol="100" />
        </pattern>
        <pattern pos="112128" muted="0" steps="16" name="" type="1">
          <note key="24" pos="1440" pan="0" len="96" vol="100" />
        </pattern>
        <pattern pos="260736" muted="0" steps="16" name="" type="1">
          <note key="24" pos="720" pan="0" len="48" vol="100" />
        </pattern>
      </track>
      <track solo="0" name="60 (Ch14)" type="0" muted="0">
        <instrumenttrack usemasterpitch="1" pitch="0.0" basenote="57" pan="0" pitchrange="12" vol="30">
          <eldata />
          <instrument name="tripleoscillator" />
        </instrumenttrack>
        <pattern pos="265344" muted="0" steps="16" name="" type="1">
          <note key="31" pos="720" pan="0" len="48" vol="100" />
        </pattern>
        <pattern pos="33024" muted="0" steps="16" name="" type="1">
          <note key="48" pos="1008" pan="0" len="144" vol="100" />
        </pattern>
        <pattern pos="112128" muted="0" steps="16" name="" type="1">
          <note key="31" pos="1440" pan="0" len="96" vol="100" />
        </pattern>
        <pattern pos="260736" muted="0" steps="16" name="" type="1">
          <note key="31" pos="720" pan="0" len="48" vol="100" />
        </pattern>
      </track>
      <track solo="0" name="61 (Ch1)" type="0" muted="0">
        <instrumenttrack usemasterpitch="1" pitch="0.0" basenote="57" pan="0" pitchrange="12" vol="30">
          <eldata />
          <instrument name="tripleoscillator" />
        </instrumenttrack>
        <pattern pos="215040" muted="0" steps="16" name="" type="1">
          <note key="24" pos="1152" pan="0" len="384" vol="2" />
        </pattern>
        <pattern pos="5376" muted="0" steps="16" name="" type="1">
          <note key="74" pos="0" pan="0" len="12" vol="100" />
          <note key="79" pos="24" pan="0" len="12" vol="100" />
          <note key="81" pos="48" pan="0" len="12" vol="100" />
          <note key="71" pos="192" pan="0" len="12" vol="100" />
          <note key="79" pos="216" pan="0" len="12" vol="100" />
          <note key="81" pos="240" pan="0" len="24" vol="100" />
          <note key="71" pos="384" pan="0" len="12" vol="100" />
          <note key="78" pos="408" pan="0" len="12" vol="100" />
          <note key="79" pos="432" pan="0" len="24" vol="100" />
          <note key="67" pos="576" pan="0" len="12" vol="100" />
          <note key="78" pos="600" pan="0" len="12" vol="100" />
          <note key="79" pos="624" pan="0" len="24" vol="100" />
        </pattern>
        <pattern pos="6144" muted="0" steps="16" name="" type="1">
          <note key="74" pos="0" pan="0" len="12" vol="100" />
          <note key="79" pos="24" pan="0" len="12" vol="100" />
          <note key="81" pos="48" pan="0" len="12" vol="100" />
          <note key="71" pos="192" pan="0" len="12" vol="100" />
          <note key="79" pos="216" pan="0" len="12" vol="100" />
          <note key="81" pos="240" pan="0" len="24" vol="100" />
          <note key="71" pos="384" pan="0" len="12" vol="100" />
          <note key="78" pos="408" pan="0" len="12" vol="100" />
          <note key="79" pos="432" pan="0" len="24" vol="100" />
          <note key="67" pos="576" pan="0" len="12" vol="100" />
          <note key="78" pos="600" pan="0" len="12" vol="100" />
          <note key="79" pos="624" pan="0" len="24" vol="100" />
        </pattern>
      </track>
      <track solo="0" name="61 (Ch3)" type="0" muted="0">
        <instrumenttrack usemasterpitch="1" pitch="0.0" basenote="57" pan="0" pitchrange="12" vol="30">
          <eldata />
          <instrument name="tripleoscillator" />
        </instrumenttrack>
        <pattern pos="180096" muted="0" steps="16" name="" type="1">
          <note key="64" pos="0" pan="0" len="192" vol="59" />
          <note key="55" pos="192" pan="0" len="48" vol="59" />
          <note key="57" pos="240" pan="0" len="48" vol="59" />
          <note key="64" pos="288" pan="0" len="288" vol="59" />
          <note key="64" pos="576" pan="0" len="192" vol="59" />
          <note key="55" pos="768" pan="0" len="48" vol="59" />
          <note key="57" pos="816" pan="0" len="48" vol="59" />
          <note key="64" pos="864" pan="0" len="288" vol="59" />
        </pattern>
        <pattern pos="178944" muted="0" steps="16" name="" type="1">
          <note key="64" pos="0" pan="0" len="192" vol="59" />
          <note key="55" pos="192" pan="0" len="48" vol="59" />
          <note key="57" pos="240" pan="0" len="48" vol="59" />
          <note key="64" pos="288" pan="0" len="288" vol="59" />
          <note key="64" pos="576" pan="0" len="192" vol="59" />
          <note key="55" pos="768" pan="0" len="48" vol="59" />
          <note key="57" pos="816" pan="0" len="48" vol="59" />
          <note key="64" pos="864" pan="0" len="288" vol="59" />
        </pattern>
      </track>
      <track solo="0" name="61 (Ch7)" type="0" muted="0">
        <instrumenttrack usemasterpitch="1" pitch="0.0" basenote="57" pan="0" pitchrange="12" vol="30">
          <eldata />
          <instrument name="tripleoscillator" />
        </instrumenttrack>
        <pattern pos="211968" muted="0" steps="16" name="" type="1">
          <note key="78" pos="0" pan="0" len="192" vol="100" />
          <note key="76" pos="192" pan="0" len="192" vol="100" />
          <note key="71" pos="384" pan="0" len="192" vol="100" />
          <note key="69" pos="576" pan="0" len="96" vol="100" />
          <note key="76" pos="672" pan="0" len="48" vol="100" />
          <note key="81" pos="720" pan="0" len="48" vol="100" />
          <note key="80" pos="768" pan="0" len="768" vol="100" />
        </pattern>
        <pattern pos="0" muted="0" steps="16" name="" type="1">
          <note key="24" pos="0" pan="0" len="96" vol="100" />
          <note key="12" pos="96" pan="0" len="96" vol="100" />
          <note key="24" pos="192" pan="0" len="96" vol="100" />
          <note key="12" pos="288" pan="0" len="96" vol="100" />
          <note key="24" pos="384" pan="0" len="96" vol="100" />
          <note key="12" pos="480" pan="0" len="288" vol="100" />
        </pattern>
        <pattern pos="204288" muted="0" steps="16" name="" type="1">
          <note key="78" pos="0" pan="0" len="192" vol="100" />
          <note key="76" pos="192" pan="0" len="192" vol="100" />
          <note key="71" pos="384" pan="0" len="192" vol="100" />
          <note key="69" pos="576" pan="0" len="96" vol="100" />
          <note key="76" pos="672" pan="0" len="48" vol="100" />
          <note key="81" pos="720" pan="0" len="48" vol="100" />
          <note key="80" pos="768" pan="0" len="768" vol="100" />
        </pattern>
        <pattern pos="205824" muted="0" steps="16" name="" type="1">
          <note key="78" pos="0" pan="0" len="192" vol="100" />
          <note key="76" pos="192" pan="0" len="192" vol="100" />
          <note key="71" pos="384" pan="0" len="192" vol="100" />
          <note key="69" pos="576" pan="0" len="96" vol="100" />
          <note key="76" pos="672" pan="0" len="48" vol="100" />
          <note key="81" pos="720" pan="0" len="48" vol="100" />
          <note key="80" pos="768" pan="0" len="768" vol="100" />
        </pattern>
        <pattern pos="210432" muted="0" steps="16" name="" type="1">
          <note key="78" pos="0" pan="0" len="192" vol="100" />
          <note key="76" pos="192" pan="0" len="192" vol="100" />
          <note key="71" pos="384" pan="0" len="192" vol="100" />
          <note key="69" pos="576" pan="0" len="96" vol="100" />
          <note key="76" pos="672" pan="0" len="48" vol="100" />
          <note key="81" pos="720" pan="0" len="48" vol="100" />
          <note key="80" pos="768" pan="0" len="768" vol="100" />
        </pattern>
      </track>
      <track solo="0" name="61 (Ch8)" type="0" muted="0">
        <instrumenttrack usemasterpitch="1" pitch="0.0" basenote="57" pan="0" pitchrange="12" vol="30">
          <eldata />
          <instrument name="tripleoscillator" />
        </instrumenttrack>
        <pattern pos="138240" muted="0" steps="16" name="" type="1">
          <note key="24" pos="0" pan="0" len="768" vol="100" />
        </pattern>
        <pattern pos="136704" muted="0" steps="16" name="" type="1">
          <note key="24" pos="768" pan="0" len="768" vol="2" />
        </pattern>
      </track>
      <track solo="0" name="61 (Ch11)" type="0" muted="0">
        <instrumenttrack usemasterpitch="1" pitch="0.0" basenote="57" pan="0" pitchrange="12" vol="30">
          <eldata />
          <instrument name="tripleoscillator" />
        </instrumenttrack>
        <pattern pos="79104" muted="0" steps="16" name="" type="1">
          <note key="84" pos="528" pan="0" len="240" vol="2" />
        </pattern>
      </track>
      <track solo="0" name="61 (Ch12)" type="0" muted="0">
        <instrumenttrack usemasterpitch="1" pitch="0.0" basenote="57" pan="0" pitchrange="12" vol="30">
          <eldata />
          <instrument name="tripleoscillator" />
        </instrumenttrack>
        <pattern pos="79104" muted="0" steps="16" name="" type="1">
          <note key="77" pos="528" pan="0" len="240" vol="2" />
        </pattern>
      </track>
      <track solo="0" name="62 (Ch2)" type="0" muted="0">
        <instrumenttrack usemasterpitch="1" pitch="0.0" basenote="57" pan="0" pitchrange="12" vol="30">
          <eldata />
          <instrument name="tripleoscillator" />
        </instrumenttrack>
        <pattern pos="49152" muted="0" steps="16" name="" type="1">
          <note key="60" pos="0" pan="0" len="240" vol="100" />
          <note key="55" pos="240" pan="0" len="24" vol="100" />
          <note key="57" pos="264" pan="0" len="24" vol="100" />
          <note key="58" pos="288" pan="0" len="240" vol="100" />
          <note key="72" pos="528" pan="0" len="24" vol="100" />
          <note key="70" pos="552" pan="0" len="24" vol="100" />
          <note key="69" pos="576" pan="0" len="144" vol="100" />
          <note key="65" pos="720" pan="0" len="144" vol="100" />
          <note key="63" pos="864" pan="0" len="144" vol="100" />
          <note key="62" pos="1008" pan="0" len="84" vol="100" />
        </pattern>
        <pattern pos="42240" muted="0" steps="16" name="" type="1">
          <note key="72" pos="0" pan="0" len="96" vol="100" />
          <note key="70" pos="96" pan="0" len="192" vol="100" />
          <note key="69" pos="288" pan="0" len="144" vol="100" />
          <note key="65" pos="432" pan="0" len="144" vol="100" />
          <note key="67" pos="576" pan="0" len="192" vol="100" />
          <note key="65" pos="768" pan="0" len="336" vol="100" />
          <note key="60" pos="1104" pan="0" len="24" vol="100" />
          <note key="58" pos="1128" pan="0" len="24" vol="100" />
        </pattern>
        <pattern pos="43392" muted="0" steps="16" name="" type="1">
          <note key="60" pos="0" pan="0" len="240" vol="100" />
          <note key="55" pos="240" pan="0" len="24" vol="100" />
          <note key="57" pos="264" pan="0" len="24" vol="100" />
          <note key="58" pos="288" pan="0" len="240" vol="100" />
          <note key="72" pos="528" pan="0" len="24" vol="100" />
          <note key="70" pos="552" pan="0" len="24" vol="100" />
          <note key="69" pos="576" pan="0" len="144" vol="100" />
          <note key="65" pos="720" pan="0" len="144" vol="100" />
          <note key="63" pos="864" pan="0" len="144" vol="100" />
          <note key="62" pos="1008" pan="0" len="84" vol="100" />
        </pattern>
        <pattern pos="48000" muted="0" steps="16" name="" type="1">
          <note key="72" pos="0" pan="0" len="96" vol="100" />
          <note key="70" pos="96" pan="0" len="192" vol="100" />
          <note key="69" pos="288" pan="0" len="144" vol="100" />
          <note key="65" pos="432" pan="0" len="144" vol="100" />
          <note key="67" pos="576" pan="0" len="192" vol="100" />
          <note key="65" pos="768" pan="0" len="336" vol="100" />
          <note key="60" pos="1104" pan="0" len="24" vol="100" />
          <note key="58" pos="1128" pan="0" len="24" vol="100" />
        </pattern>
      </track>
      <track solo="0" name="62 (Ch4)" type="0" muted="0">
        <instrumenttrack usemasterpitch="1" pitch="0.0" basenote="57" pan="0" pitchrange="12" vol="30">
          <eldata />
          <instrument name="tripleoscillator" />
        </instrumenttrack>
        <pattern pos="119808" muted="0" steps="16" name="" type="1">
          <note key="77" pos="0" pan="0" len="384" vol="100" />
          <note key="75" pos="480" pan="0" len="384" vol="100" />
          <note key="72" pos="864" pan="0" len="432" vol="100" />
        </pattern>
        <pattern pos="116736" muted="0" steps="16" name="" type="1">
          <note key="77" pos="0" pan="0" len="384" vol="100" />
          <note key="75" pos="480" pan="0" len="384" vol="100" />
          <note key="72" pos="864" pan="0" len="432" vol="100" />
        </pattern>
      </track>
      <track solo="0" name="62 (Ch5)" type="0" muted="0">
        <instrumenttrack usemasterpitch="1" pitch="0.0" basenote="57" pan="0" pitchrange="12" vol="30">
          <eldata />
          <instrument name="tripleoscillator" />
        </instrumenttrack>
        <pattern pos="270000" muted="0" steps="16" name="" type="1">
          <note key="57" pos="0" pan="0" len="192" vol="100" />
          <note key="60" pos="192" pan="0" len="192" vol="100" />
          <note key="62" pos="384" pan="0" len="192" vol="100" />
          <note key="64" pos="576" pan="0" len="192" vol="100" />
        </pattern>
        <pattern pos="95232" muted="0" steps="16" name="" type="1">
          <note key="63" pos="0" pan="0" len="768" vol="34" />
          <note key="75" pos="768" pan="0" len="384" vol="52" />
          <note key="69" pos="1152" pan="0" len="384" vol="34" />
        </pattern>
        <pattern pos="96768" muted="0" steps="16" name="" type="1">
          <note key="63" pos="0" pan="0" len="768" vol="34" />
          <note key="75" pos="768" pan="0" len="384" vol="52" />
          <note key="69" pos="1152" pan="0" len="384" vol="34" />
        </pattern>
        <pattern pos="122880" muted="0" steps="16" name="" type="1">
          <note key="63" pos="0" pan="0" len="768" vol="34" />
          <note key="75" pos="768" pan="0" len="384" vol="52" />
          <note key="69" pos="1152" pan="0" len="384" vol="34" />
        </pattern>
        <pattern pos="124416" muted="0" steps="16" name="" type="1">
          <note key="63" pos="0" pan="0" len="768" vol="34" />
          <note key="75" pos="768" pan="0" len="384" vol="52" />
          <note key="69" pos="1152" pan="0" len="384" vol="34" />
        </pattern>
      </track>
      <track solo="0" name="62 (Ch6)" type="0" muted="0">
        <instrumenttrack usemasterpitch="1" pitch="0.0" basenote="57" pan="0" pitchrange="12" vol="30">
          <eldata />
          <instrument name="tripleoscillator" />
        </instrumenttrack>
        <pattern pos="193536" muted="0" steps="16" name="" type="1">
          <note key="76" pos="0" pan="0" len="84" vol="100" />
          <note key="74" pos="84" pan="0" len="96" vol="100" />
          <note key="71" pos="180" pan="0" len="96" vol="100" />
          <note key="69" pos="372" pan="0" len="96" vol="100" />
          <note key="71" pos="468" pan="0" len="96" vol="100" />
          <note key="76" pos="756" pan="0" len="96" vol="100" />
          <note key="74" pos="852" pan="0" len="48" vol="100" />
          <note key="79" pos="900" pan="0" len="48" vol="100" />
          <note key="71" pos="948" pan="0" len="96" vol="100" />
          <note key="69" pos="1140" pan="0" len="96" vol="100" />
          <note key="71" pos="1236" pan="0" len="96" vol="100" />
        </pattern>
        <pattern pos="17664" muted="0" steps="16" name="" type="1">
          <note key="48" pos="0" pan="0" len="1536" vol="100" />
        </pattern>
        <pattern pos="31872" muted="0" steps="16" name="" type="1">
          <note key="60" pos="0" pan="0" len="192" vol="100" />
          <note key="67" pos="192" pan="0" len="96" vol="100" />
          <note key="63" pos="288" pan="0" len="192" vol="100" />
          <note key="70" pos="480" pan="0" len="96" vol="100" />
          <note key="69" pos="576" pan="0" len="192" vol="100" />
          <note key="65" pos="768" pan="0" len="96" vol="100" />
          <note key="67" pos="864" pan="0" len="192" vol="100" />
        </pattern>
        <pattern pos="33024" muted="0" steps="16" name="" type="1">
          <note key="60" pos="0" pan="0" len="192" vol="100" />
          <note key="67" pos="192" pan="0" len="96" vol="100" />
          <note key="63" pos="288" pan="0" len="192" vol="100" />
          <note key="70" pos="480" pan="0" len="96" vol="100" />
          <note key="69" pos="576" pan="0" len="384" vol="100" />
          <note key="70" pos="960" pan="0" len="144" vol="100" />
        </pattern>
        <pattern pos="34176" muted="0" steps="16" name="" type="1">
          <note key="87" pos="0" pan="0" len="288" vol="100" />
          <note key="85" pos="288" pan="0" len="288" vol="100" />
          <note key="60" pos="576" pan="0" len="288" vol="100" />
          <note key="85" pos="864" pan="0" len="192" vol="100" />
        </pattern>
        <pattern pos="35328" muted="0" steps="16" name="" type="1">
          <note key="87" pos="0" pan="0" len="288" vol="100" />
          <note key="85" pos="288" pan="0" len="288" vol="100" />
          <note key="60" pos="576" pan="0" len="432" vol="100" />
        </pattern>
        <pattern pos="36480" muted="0" steps="16" name="" type="1">
          <note key="84" pos="0" pan="0" len="288" vol="100" />
          <note key="82" pos="288" pan="0" len="288" vol="100" />
          <note key="57" pos="576" pan="0" len="288" vol="100" />
          <note key="82" pos="864" pan="0" len="192" vol="100" />
        </pattern>
        <pattern pos="37632" muted="0" steps="16" name="" type="1">
          <note key="84" pos="0" pan="0" len="288" vol="100" />
          <note key="82" pos="288" pan="0" len="288" vol="100" />
          <note key="57" pos="576" pan="0" len="480" vol="100" />
        </pattern>
        <pattern pos="95232" muted="0" steps="16" name="" type="1">
          <note key="67" pos="0" pan="0" len="768" vol="34" />
          <note key="67" pos="768" pan="0" len="384" vol="52" />
          <note key="72" pos="1152" pan="0" len="384" vol="34" />
        </pattern>
        <pattern pos="96768" muted="0" steps="16" name="" type="1">
          <note key="67" pos="0" pan="0" len="768" vol="34" />
          <note key="67" pos="768" pan="0" len="384" vol="52" />
          <note key="72" pos="1152" pan="0" len="384" vol="34" />
        </pattern>
        <pattern pos="122880" muted="0" steps="16" name="" type="1">
          <note key="67" pos="0" pan="0" len="768" vol="34" />
          <note key="67" pos="768" pan="0" len="384" vol="52" />
          <note key="72" pos="1152" pan="0" len="384" vol="34" />
        </pattern>
        <pattern pos="124416" muted="0" steps="16" name="" type="1">
          <note key="67" pos="0" pan="0" len="768" vol="34" />
          <note key="67" pos="768" pan="0" len="384" vol="52" />
          <note key="72" pos="1152" pan="0" len="384" vol="34" />
        </pattern>
        <pattern pos="188928" muted="0" steps="16" name="" type="1">
          <note key="76" pos="0" pan="0" len="84" vol="100" />
          <note key="74" pos="84" pan="0" len="96" vol="100" />
          <note key="71" pos="180" pan="0" len="96" vol="100" />
          <note key="69" pos="372" pan="0" len="96" vol="100" />
          <note key="71" pos="468" pan="0" len="96" vol="100" />
          <note key="76" pos="756" pan="0" len="96" vol="100" />
          <note key="74" pos="852" pan="0" len="48" vol="100" />
          <note key="79" pos="900" pan="0" len="48" vol="100" />
          <note key="71" pos="948" pan="0" len="96" vol="100" />
          <note key="69" pos="1140" pan="0" len="96" vol="100" />
          <note key="71" pos="1236" pan="0" len="96" vol="100" />
          <note key="76" pos="1440" pan="0" len="96" vol="100" />
        </pattern>
      </track>
      <track solo="0" name="62 (Ch7)" type="0" muted="0">
        <instrumenttrack usemasterpitch="1" pitch="0.0" basenote="57" pan="0" pitchrange="12" vol="30">
          <eldata />
          <instrument name="tripleoscillator" />
        </instrumenttrack>
        <pattern pos="193536" muted="0" steps="16" name="" type="1">
          <note key="83" pos="948" pan="0" len="96" vol="100" />
          <note key="81" pos="1140" pan="0" len="96" vol="100" />
        </pattern>
        <pattern pos="17664" muted="0" steps="16" name="" type="1">
          <note key="36" pos="0" pan="0" len="1536" vol="100" />
        </pattern>
        <pattern pos="95232" muted="0" steps="16" name="" type="1">
          <note key="72" pos="0" pan="0" len="768" vol="34" />
          <note key="70" pos="768" pan="0" len="384" vol="52" />
          <note key="65" pos="1152" pan="0" len="384" vol="34" />
        </pattern>
        <pattern pos="96768" muted="0" steps="16" name="" type="1">
          <note key="72" pos="0" pan="0" len="768" vol="34" />
          <note key="70" pos="768" pan="0" len="384" vol="52" />
          <note key="65" pos="1152" pan="0" len="384" vol="34" />
        </pattern>
        <pattern pos="122880" muted="0" steps="16" name="" type="1">
          <note key="72" pos="0" pan="0" len="768" vol="34" />
          <note key="70" pos="768" pan="0" len="384" vol="52" />
          <note key="65" pos="1152" pan="0" len="384" vol="34" />
        </pattern>
        <pattern pos="124416" muted="0" steps="16" name="" type="1">
          <note key="72" pos="0" pan="0" len="768" vol="34" />
          <note key="70" pos="768" pan="0" len="384" vol="52" />
          <note key="65" pos="1152" pan="0" len="384" vol="34" />
        </pattern>
        <pattern pos="188928" muted="0" steps="16" name="" type="1">
          <note key="83" pos="948" pan="0" len="96" vol="100" />
          <note key="81" pos="1140" pan="0" len="96" vol="100" />
        </pattern>
      </track>
      <track solo="0" name="62 (Ch8)" type="0" muted="0">
        <instrumenttrack usemasterpitch="1" pitch="0.0" basenote="57" pan="0" pitchrange="12" vol="30">
          <eldata />
          <instrument name="tripleoscillator" />
        </instrumenttrack>
        <pattern pos="213504" muted="0" steps="16" name="" type="1">
          <note key="73" pos="0" pan="0" len="96" vol="100" />
          <note key="78" pos="96" pan="0" len="96" vol="100" />
          <note key="76" pos="192" pan="0" len="96" vol="100" />
          <note key="74" pos="288" pan="0" len="96" vol="100" />
          <note key="73" pos="384" pan="0" len="96" vol="100" />
          <note key="70" pos="480" pan="0" len="96" vol="100" />
          <note key="71" pos="576" pan="0" len="96" vol="100" />
          <note key="74" pos="672" pan="0" len="96" vol="100" />
          <note key="73" pos="768" pan="0" len="96" vol="100" />
          <note key="78" pos="864" pan="0" len="96" vol="100" />
          <note key="76" pos="960" pan="0" len="96" vol="100" />
          <note key="74" pos="1056" pan="0" len="96" vol="100" />
          <note key="73" pos="1152" pan="0" len="96" vol="100" />
          <note key="70" pos="1248" pan="0" len="96" vol="100" />
          <note key="71" pos="1344" pan="0" len="96" vol="100" />
          <note key="74" pos="1440" pan="0" len="96" vol="100" />
        </pattern>
        <pattern pos="176640" muted="0" steps="16" name="" type="1">
          <note key="67" pos="552" pan="0" len="144" vol="100" />
          <note key="64" pos="696" pan="0" len="144" vol="100" />
          <note key="67" pos="840" pan="0" len="96" vol="100" />
          <note key="69" pos="936" pan="0" len="48" vol="100" />
          <note key="64" pos="984" pan="0" len="144" vol="100" />
          <note key="67" pos="1128" pan="0" len="24" vol="100" />
        </pattern>
        <pattern pos="177792" muted="0" steps="16" name="" type="1">
          <note key="64" pos="120" pan="0" len="144" vol="100" />
          <note key="67" pos="264" pan="0" len="96" vol="100" />
          <note key="69" pos="360" pan="0" len="48" vol="100" />
          <note key="64" pos="408" pan="0" len="144" vol="100" />
          <note key="67" pos="552" pan="0" len="144" vol="100" />
          <note key="64" pos="696" pan="0" len="144" vol="100" />
          <note key="67" pos="840" pan="0" len="96" vol="100" />
          <note key="69" pos="936" pan="0" len="48" vol="100" />
          <note key="64" pos="984" pan="0" len="168" vol="100" />
        </pattern>
        <pattern pos="178944" muted="0" steps="16" name="" type="1">
          <note key="67" pos="552" pan="0" len="144" vol="100" />
          <note key="64" pos="696" pan="0" len="144" vol="100" />
          <note key="67" pos="840" pan="0" len="96" vol="100" />
          <note key="69" pos="936" pan="0" len="48" vol="100" />
          <note key="64" pos="984" pan="0" len="144" vol="100" />
          <note key="67" pos="1128" pan="0" len="24" vol="100" />
        </pattern>
        <pattern pos="180096" muted="0" steps="16" name="" type="1">
          <note key="64" pos="120" pan="0" len="144" vol="100" />
          <note key="67" pos="264" pan="0" len="96" vol="100" />
          <note key="69" pos="360" pan="0" len="48" vol="100" />
          <note key="64" pos="408" pan="0" len="144" vol="100" />
          <note key="67" pos="552" pan="0" len="144" vol="100" />
          <note key="64" pos="696" pan="0" len="144" vol="100" />
          <note key="67" pos="840" pan="0" len="96" vol="100" />
          <note key="69" pos="936" pan="0" len="48" vol="100" />
          <note key="64" pos="984" pan="0" len="168" vol="100" />
        </pattern>
        <pattern pos="183552" muted="0" steps="16" name="" type="1">
          <note key="67" pos="552" pan="0" len="144" vol="100" />
          <note key="64" pos="696" pan="0" len="144" vol="100" />
          <note key="67" pos="840" pan="0" len="96" vol="100" />
          <note key="69" pos="936" pan="0" len="48" vol="100" />
          <note key="64" pos="984" pan="0" len="144" vol="100" />
          <note key="67" pos="1128" pan="0" len="24" vol="100" />
        </pattern>
        <pattern pos="184704" muted="0" steps="16" name="" type="1">
          <note key="64" pos="120" pan="0" len="144" vol="100" />
          <note key="67" pos="264" pan="0" len="96" vol="100" />
          <note key="69" pos="360" pan="0" len="48" vol="100" />
          <note key="64" pos="408" pan="0" len="144" vol="100" />
          <note key="67" pos="552" pan="0" len="144" vol="100" />
          <note key="64" pos="696" pan="0" len="144" vol="100" />
          <note key="67" pos="840" pan="0" len="96" vol="100" />
          <note key="69" pos="936" pan="0" len="48" vol="100" />
          <note key="64" pos="984" pan="0" len="168" vol="100" />
        </pattern>
        <pattern pos="199680" muted="0" steps="16" name="" type="1">
          <note key="71" pos="0" pan="0" len="96" vol="100" />
          <note key="76" pos="96" pan="0" len="96" vol="100" />
          <note key="74" pos="192" pan="0" len="96" vol="100" />
          <note key="72" pos="288" pan="0" len="96" vol="100" />
          <note key="71" pos="384" pan="0" len="96" vol="100" />
          <note key="68" pos="480" pan="0" len="96" vol="100" />
          <note key="69" pos="576" pan="0" len="96" vol="100" />
          <note key="72" pos="672" pan="0" len="96" vol="100" />
          <note key="71" pos="768" pan="0" len="96" vol="100" />
          <note key="76" pos="864" pan="0" len="96" vol="100" />
          <note key="74" pos="960" pan="0" len="96" vol="100" />
          <note key="72" pos="1056" pan="0" len="96" vol="100" />
          <note key="71" pos="1152" pan="0" len="96" vol="100" />
          <note key="68" pos="1248" pan="0" len="96" vol="100" />
          <note key="69" pos="1344" pan="0" len="96" vol="100" />
          <note key="72" pos="1440" pan="0" len="96" vol="100" />
        </pattern>
      </track>
      <track solo="0" name="62 (Ch10)" type="0" muted="0">
        <instrumenttrack usemasterpitch="1" pitch="0.0" basenote="57" pan="0" pitchrange="12" vol="30">
          <eldata />
          <instrument name="tripleoscillator" />
        </instrumenttrack>
        <pattern pos="93696" muted="0" steps="16" name="" type="1">
          <note key="60" pos="0" pan="0" len="480" vol="34" />
          <note key="67" pos="480" pan="0" len="288" vol="52" />
          <note key="65" pos="768" pan="0" len="384" vol="52" />
          <note key="67" pos="1152" pan="0" len="384" vol="34" />
        </pattern>
        <pattern pos="92160" muted="0" steps="16" name="" type="1">
          <note key="60" pos="0" pan="0" len="480" vol="34" />
          <note key="67" pos="480" pan="0" len="288" vol="52" />
          <note key="65" pos="768" pan="0" len="384" vol="52" />
          <note key="67" pos="1152" pan="0" len="384" vol="34" />
        </pattern>
      </track>
      <track solo="0" name="62 (Ch11)" type="0" muted="0">
        <instrumenttrack usemasterpitch="1" pitch="0.0" basenote="57" pan="0" pitchrange="12" vol="30">
          <eldata />
          <instrument name="tripleoscillator" />
        </instrumenttrack>
        <pattern pos="93696" muted="0" steps="16" name="" type="1">
          <note key="67" pos="0" pan="0" len="480" vol="34" />
          <note key="72" pos="480" pan="0" len="288" vol="52" />
          <note key="70" pos="768" pan="0" len="384" vol="52" />
          <note key="72" pos="1152" pan="0" len="384" vol="34" />
        </pattern>
        <pattern pos="92160" muted="0" steps="16" name="" type="1">
          <note key="67" pos="0" pan="0" len="480" vol="34" />
          <note key="72" pos="480" pan="0" len="288" vol="52" />
          <note key="70" pos="768" pan="0" len="384" vol="52" />
          <note key="72" pos="1152" pan="0" len="384" vol="34" />
        </pattern>
      </track>
      <track solo="0" name="62 (Ch12)" type="0" muted="0">
        <instrumenttrack usemasterpitch="1" pitch="0.0" basenote="57" pan="0" pitchrange="12" vol="30">
          <eldata />
          <instrument name="tripleoscillator" />
        </instrumenttrack>
        <pattern pos="253824" muted="0" steps="16" name="" type="1">
          <note key="60" pos="192" pan="0" len="240" vol="100" />
          <note key="60" pos="960" pan="0" len="192" vol="100" />
        </pattern>
        <pattern pos="34176" muted="0" steps="16" name="" type="1">
          <note key="75" pos="0" pan="0" len="288" vol="100" />
          <note key="73" pos="288" pan="0" len="288" vol="100" />
          <note key="72" pos="576" pan="0" len="288" vol="100" />
          <note key="73" pos="864" pan="0" len="288" vol="100" />
        </pattern>
        <pattern pos="35328" muted="0" steps="16" name="" type="1">
          <note key="75" pos="0" pan="0" len="288" vol="100" />
          <note key="73" pos="288" pan="0" len="288" vol="100" />
        </pattern>
        <pattern pos="36480" muted="0" steps="16" name="" type="1">
          <note key="72" pos="0" pan="0" len="288" vol="100" />
          <note key="70" pos="288" pan="0" len="288" vol="100" />
          <note key="69" pos="576" pan="0" len="288" vol="100" />
          <note key="70" pos="864" pan="0" len="288" vol="100" />
        </pattern>
        <pattern pos="37632" muted="0" steps="16" name="" type="1">
          <note key="72" pos="0" pan="0" len="288" vol="100" />
          <note key="70" pos="288" pan="0" len="288" vol="100" />
          <note key="69" pos="576" pan="0" len="288" vol="100" />
          <note key="65" pos="864" pan="0" len="192" vol="100" />
        </pattern>
        <pattern pos="243072" muted="0" steps="16" name="" type="1">
          <note key="82" pos="0" pan="0" len="768" vol="100" />
          <note key="84" pos="768" pan="0" len="384" vol="100" />
        </pattern>
        <pattern pos="244608" muted="0" steps="16" name="" type="1">
          <note key="55" pos="192" pan="0" len="240" vol="100" />
          <note key="58" pos="960" pan="0" len="192" vol="100" />
        </pattern>
        <pattern pos="246144" muted="0" steps="16" name="" type="1">
          <note key="58" pos="192" pan="0" len="240" vol="100" />
          <note key="56" pos="960" pan="0" len="192" vol="100" />
        </pattern>
        <pattern pos="249216" muted="0" steps="16" name="" type="1">
          <note key="55" pos="192" pan="0" len="240" vol="100" />
          <note key="58" pos="960" pan="0" len="192" vol="100" />
        </pattern>
        <pattern pos="250752" muted="0" steps="16" name="" type="1">
          <note key="58" pos="192" pan="0" len="240" vol="100" />
          <note key="56" pos="960" pan="0" len="192" vol="100" />
        </pattern>
        <pattern pos="252288" muted="0" steps="16" name="" type="1">
          <note key="55" pos="192" pan="0" len="240" vol="100" />
          <note key="57" pos="960" pan="0" len="192" vol="100" />
        </pattern>
      </track>
      <track solo="0" name="62 (Ch13)" type="0" muted="0">
        <instrumenttrack usemasterpitch="1" pitch="0.0" basenote="57" pan="0" pitchrange="12" vol="30">
          <eldata />
          <instrument name="tripleoscillator" />
        </instrumenttrack>
        <pattern pos="263808" muted="0" steps="16" name="" type="1">
          <note key="77" pos="0" pan="0" len="192" vol="100" />
          <note key="75" pos="192" pan="0" len="192" vol="100" />
          <note key="74" pos="384" pan="0" len="192" vol="100" />
          <note key="70" pos="576" pan="0" len="120" vol="100" />
        </pattern>
        <pattern pos="105984" muted="0" steps="16" name="" type="1">
          <note key="89" pos="768" pan="0" len="192" vol="100" />
          <note key="88" pos="1152" pan="0" len="12" vol="100" />
        </pattern>
        <pattern pos="240000" muted="0" steps="16" name="" type="1">
          <note key="60" pos="0" pan="0" len="336" vol="100" />
          <note key="58" pos="336" pan="0" len="240" vol="100" />
          <note key="63" pos="768" pan="0" len="336" vol="100" />
          <note key="62" pos="1104" pan="0" len="240" vol="100" />
        </pattern>
        <pattern pos="241536" muted="0" steps="16" name="" type="1">
          <note key="60" pos="0" pan="0" len="336" vol="100" />
          <note key="58" pos="336" pan="0" len="240" vol="100" />
          <note key="60" pos="768" pan="0" len="336" vol="100" />
          <note key="62" pos="1104" pan="0" len="240" vol="100" />
        </pattern>
        <pattern pos="243072" muted="0" steps="16" name="" type="1">
          <note key="60" pos="0" pan="0" len="336" vol="100" />
          <note key="58" pos="336" pan="0" len="240" vol="100" />
          <note key="60" pos="768" pan="0" len="336" vol="100" />
        </pattern>
        <pattern pos="244608" muted="0" steps="16" name="" type="1">
          <note key="60" pos="192" pan="0" len="240" vol="100" />
          <note key="62" pos="960" pan="0" len="192" vol="100" />
        </pattern>
        <pattern pos="246144" muted="0" steps="16" name="" type="1">
          <note key="62" pos="192" pan="0" len="240" vol="100" />
          <note key="60" pos="960" pan="0" len="192" vol="100" />
        </pattern>
        <pattern pos="247680" muted="0" steps="16" name="" type="1">
          <note key="60" pos="0" pan="0" len="336" vol="100" />
          <note key="58" pos="336" pan="0" len="240" vol="100" />
          <note key="63" pos="768" pan="0" len="336" vol="100" />
          <note key="62" pos="1104" pan="0" len="240" vol="100" />
        </pattern>
        <pattern pos="249216" muted="0" steps="16" name="" type="1">
          <note key="60" pos="192" pan="0" len="240" vol="100" />
          <note key="62" pos="960" pan="0" len="192" vol="100" />
        </pattern>
        <pattern pos="250752" muted="0" steps="16" name="" type="1">
          <note key="62" pos="192" pan="0" len="240" vol="100" />
          <note key="60" pos="960" pan="0" len="192" vol="100" />
        </pattern>
        <pattern pos="252288" muted="0" steps="16" name="" type="1">
          <note key="60" pos="192" pan="0" len="240" vol="100" />
          <note key="60" pos="960" pan="0" len="192" vol="100" />
        </pattern>
        <pattern pos="253824" muted="0" steps="16" name="" type="1">
          <note key="63" pos="192" pan="0" len="240" vol="100" />
          <note key="63" pos="960" pan="0" len="192" vol="100" />
        </pattern>
        <pattern pos="261504" muted="0" steps="16" name="" type="1">
          <note key="80" pos="0" pan="0" len="192" vol="100" />
          <note key="78" pos="192" pan="0" len="192" vol="100" />
          <note key="77" pos="384" pan="0" len="192" vol="100" />
          <note key="78" pos="576" pan="0" len="192" vol="100" />
        </pattern>
        <pattern pos="262272" muted="0" steps="16" name="" type="1">
          <note key="80" pos="0" pan="0" len="192" vol="100" />
          <note key="78" pos="192" pan="0" len="192" vol="100" />
          <note key="77" pos="384" pan="0" len="384" vol="100" />
        </pattern>
        <pattern pos="263040" muted="0" steps="16" name="" type="1">
          <note key="77" pos="0" pan="0" len="192" vol="100" />
          <note key="75" pos="192" pan="0" len="192" vol="100" />
          <note key="74" pos="384" pan="0" len="192" vol="100" />
          <note key="75" pos="576" pan="0" len="192" vol="100" />
        </pattern>
      </track>
      <track solo="0" name="62 (Ch14)" type="0" muted="0">
        <instrumenttrack usemasterpitch="1" pitch="0.0" basenote="57" pan="0" pitchrange="12" vol="30">
          <eldata />
          <instrument name="tripleoscillator" />
        </instrumenttrack>
        <pattern pos="253824" muted="0" steps="16" name="" type="1">
          <note key="68" pos="192" pan="0" len="240" vol="100" />
          <note key="67" pos="960" pan="0" len="192" vol="100" />
        </pattern>
        <pattern pos="240000" muted="0" steps="16" name="" type="1">
          <note key="55" pos="0" pan="0" len="336" vol="100" />
          <note key="53" pos="336" pan="0" len="240" vol="100" />
          <note key="60" pos="768" pan="0" len="336" vol="100" />
          <note key="58" pos="1104" pan="0" len="240" vol="100" />
        </pattern>
        <pattern pos="241536" muted="0" steps="16" name="" type="1">
          <note key="55" pos="0" pan="0" len="336" vol="100" />
          <note key="53" pos="336" pan="0" len="240" vol="100" />
          <note key="63" pos="768" pan="0" len="336" vol="100" />
          <note key="65" pos="1104" pan="0" len="240" vol="100" />
        </pattern>
        <pattern pos="243072" muted="0" steps="16" name="" type="1">
          <note key="55" pos="0" pan="0" len="336" vol="100" />
          <note key="53" pos="336" pan="0" len="240" vol="100" />
          <note key="67" pos="768" pan="0" len="336" vol="100" />
        </pattern>
        <pattern pos="244608" muted="0" steps="16" name="" type="1">
          <note key="63" pos="192" pan="0" len="240" vol="100" />
          <note key="65" pos="960" pan="0" len="192" vol="100" />
        </pattern>
        <pattern pos="246144" muted="0" steps="16" name="" type="1">
          <note key="67" pos="192" pan="0" len="240" vol="100" />
          <note key="63" pos="960" pan="0" len="192" vol="100" />
        </pattern>
        <pattern pos="247680" muted="0" steps="16" name="" type="1">
          <note key="55" pos="0" pan="0" len="336" vol="100" />
          <note key="53" pos="336" pan="0" len="240" vol="100" />
          <note key="60" pos="768" pan="0" len="336" vol="100" />
          <note key="58" pos="1104" pan="0" len="240" vol="100" />
        </pattern>
        <pattern pos="249216" muted="0" steps="16" name="" type="1">
          <note key="63" pos="192" pan="0" len="240" vol="100" />
          <note key="65" pos="960" pan="0" len="192" vol="100" />
        </pattern>
        <pattern pos="250752" muted="0" steps="16" name="" type="1">
          <note key="67" pos="192" pan="0" len="240" vol="100" />
          <note key="63" pos="960" pan="0" len="192" vol="100" />
        </pattern>
        <pattern pos="252288" muted="0" steps="16" name="" type="1">
          <note key="63" pos="192" pan="0" len="240" vol="100" />
          <note key="65" pos="960" pan="0" len="192" vol="100" />
        </pattern>
      </track>
      <track solo="0" name="63 (Ch9)" type="0" muted="0">
        <instrumenttrack usemasterpitch="1" pitch="0.0" basenote="57" pan="0" pitchrange="12" vol="30">
          <eldata />
          <instrument name="tripleoscillator" />
        </instrumenttrack>
        <pattern pos="49152" muted="0" steps="16" name="" type="1">
          <note key="60" pos="0" pan="0" len="12" vol="100" />
          <note key="58" pos="12" pan="0" len="12" vol="100" />
          <note key="60" pos="24" pan="0" len="12" vol="100" />
          <note key="55" pos="36" pan="0" len="12" vol="100" />
          <note key="53" pos="48" pan="0" len="12" vol="100" />
          <note key="55" pos="60" pan="0" len="12" vol="100" />
          <note key="60" pos="72" pan="0" len="12" vol="100" />
          <note key="58" pos="84" pan="0" len="12" vol="100" />
          <note key="60" pos="96" pan="0" len="12" vol="100" />
          <note key="55" pos="108" pan="0" len="12" vol="100" />
          <note key="53" pos="120" pan="0" len="12" vol="100" />
          <note key="55" pos="132" pan="0" len="12" vol="100" />
          <note key="60" pos="144" pan="0" len="12" vol="100" />
          <note key="58" pos="156" pan="0" len="12" vol="100" />
          <note key="60" pos="168" pan="0" len="12" vol="100" />
          <note key="55" pos="180" pan="0" len="12" vol="100" />
          <note key="53" pos="192" pan="0" len="12" vol="100" />
          <note key="55" pos="204" pan="0" len="12" vol="100" />
          <note key="60" pos="216" pan="0" len="12" vol="100" />
          <note key="58" pos="228" pan="0" len="12" vol="100" />
          <note key="60" pos="240" pan="0" len="12" vol="100" />
          <note key="55" pos="252" pan="0" len="12" vol="100" />
          <note key="53" pos="264" pan="0" len="12" vol="100" />
          <note key="55" pos="276" pan="0" len="12" vol="100" />
          <note key="65" pos="288" pan="0" len="12" vol="100" />
          <note key="63" pos="300" pan="0" len="12" vol="100" />
          <note key="65" pos="312" pan="0" len="12" vol="100" />
          <note key="60" pos="324" pan="0" len="12" vol="100" />
          <note key="58" pos="336" pan="0" len="12" vol="100" />
          <note key="60" pos="348" pan="0" len="12" vol="100" />
          <note key="65" pos="360" pan="0" len="12" vol="100" />
          <note key="63" pos="372" pan="0" len="12" vol="100" />
          <note key="65" pos="384" pan="0" len="12" vol="100" />
          <note key="60" pos="396" pan="0" len="12" vol="100" />
          <note key="58" pos="408" pan="0" len="12" vol="100" />
          <note key="60" pos="420" pan="0" len="12" vol="100" />
          <note key="65" pos="432" pan="0" len="12" vol="100" />
          <note key="63" pos="444" pan="0" len="12" vol="100" />
          <note key="65" pos="456" pan="0" len="12" vol="100" />
          <note key="60" pos="468" pan="0" len="12" vol="100" />
          <note key="58" pos="480" pan="0" len="12" vol="100" />
          <note key="60" pos="492" pan="0" len="12" vol="100" />
          <note key="65" pos="504" pan="0" len="12" vol="100" />
          <note key="63" pos="516" pan="0" len="12" vol="100" />
          <note key="65" pos="528" pan="0" len="12" vol="100" />
          <note key="60" pos="540" pan="0" len="12" vol="100" />
          <note key="58" pos="552" pan="0" len="12" vol="100" />
          <note key="60" pos="564" pan="0" len="12" vol="100" />
          <note key="60" pos="576" pan="0" len="12" vol="100" />
          <note key="58" pos="588" pan="0" len="12" vol="100" />
          <note key="60" pos="600" pan="0" len="12" vol="100" />
          <note key="55" pos="612" pan="0" len="12" vol="100" />
          <note key="53" pos="624" pan="0" len="12" vol="100" />
          <note key="55" pos="636" pan="0" len="12" vol="100" />
          <note key="60" pos="648" pan="0" len="12" vol="100" />
          <note key="58" pos="660" pan="0" len="12" vol="100" />
          <note key="60" pos="672" pan="0" len="12" vol="100" />
          <note key="55" pos="684" pan="0" len="12" vol="100" />
          <note key="53" pos="696" pan="0" len="12" vol="100" />
          <note key="55" pos="708" pan="0" len="12" vol="100" />
          <note key="60" pos="720" pan="0" len="12" vol="100" />
          <note key="58" pos="732" pan="0" len="12" vol="100" />
          <note key="60" pos="744" pan="0" len="12" vol="100" />
          <note key="55" pos="756" pan="0" len="12" vol="100" />
          <note key="53" pos="768" pan="0" len="12" vol="100" />
          <note key="55" pos="780" pan="0" len="12" vol="100" />
          <note key="60" pos="792" pan="0" len="12" vol="100" />
          <note key="58" pos="804" pan="0" len="12" vol="100" />
          <note key="60" pos="816" pan="0" len="12" vol="100" />
          <note key="55" pos="828" pan="0" len="12" vol="100" />
          <note key="53" pos="840" pan="0" len="12" vol="100" />
          <note key="55" pos="852" pan="0" len="12" vol="100" />
          <note key="65" pos="864" pan="0" len="12" vol="100" />
          <note key="63" pos="876" pan="0" len="12" vol="100" />
          <note key="65" pos="888" pan="0" len="12" vol="100" />
          <note key="60" pos="900" pan="0" len="12" vol="100" />
          <note key="58" pos="912" pan="0" len="12" vol="100" />
          <note key="60" pos="924" pan="0" len="12" vol="100" />
          <note key="65" pos="936" pan="0" len="12" vol="100" />
          <note key="63" pos="948" pan="0" len="12" vol="100" />
          <note key="65" pos="960" pan="0" len="12" vol="100" />
          <note key="60" pos="972" pan="0" len="12" vol="100" />
          <note key="58" pos="984" pan="0" len="12" vol="100" />
          <note key="60" pos="996" pan="0" len="12" vol="100" />
          <note key="65" pos="1008" pan="0" len="12" vol="100" />
          <note key="63" pos="1020" pan="0" len="12" vol="100" />
          <note key="65" pos="1032" pan="0" len="12" vol="100" />
          <note key="60" pos="1044" pan="0" len="12" vol="100" />
          <note key="58" pos="1056" pan="0" len="12" vol="100" />
          <note key="60" pos="1068" pan="0" len="12" vol="100" />
          <note key="65" pos="1080" pan="0" len="12" vol="100" />
          <note key="63" pos="1092" pan="0" len="12" vol="100" />
          <note key="65" pos="1104" pan="0" len="12" vol="100" />
          <note key="60" pos="1116" pan="0" len="12" vol="100" />
          <note key="58" pos="1128" pan="0" len="12" vol="100" />
          <note key="60" pos="1140" pan="0" len="12" vol="100" />
        </pattern>
        <pattern pos="42240" muted="0" steps="16" name="" type="1">
          <note key="60" pos="0" pan="0" len="12" vol="100" />
          <note key="58" pos="12" pan="0" len="12" vol="100" />
          <note key="60" pos="24" pan="0" len="12" vol="100" />
          <note key="55" pos="36" pan="0" len="12" vol="100" />
          <note key="53" pos="48" pan="0" len="12" vol="100" />
          <note key="55" pos="60" pan="0" len="12" vol="100" />
          <note key="60" pos="72" pan="0" len="12" vol="100" />
          <note key="58" pos="84" pan="0" len="12" vol="100" />
          <note key="60" pos="96" pan="0" len="12" vol="100" />
          <note key="55" pos="108" pan="0" len="12" vol="100" />
          <note key="53" pos="120" pan="0" len="12" vol="100" />
          <note key="55" pos="132" pan="0" len="12" vol="100" />
          <note key="60" pos="144" pan="0" len="12" vol="100" />
          <note key="58" pos="156" pan="0" len="12" vol="100" />
          <note key="60" pos="168" pan="0" len="12" vol="100" />
          <note key="55" pos="180" pan="0" len="12" vol="100" />
          <note key="53" pos="192" pan="0" len="12" vol="100" />
          <note key="55" pos="204" pan="0" len="12" vol="100" />
          <note key="60" pos="216" pan="0" len="12" vol="100" />
          <note key="58" pos="228" pan="0" len="12" vol="100" />
          <note key="60" pos="240" pan="0" len="12" vol="100" />
          <note key="55" pos="252" pan="0" len="12" vol="100" />
          <note key="53" pos="264" pan="0" len="12" vol="100" />
          <note key="55" pos="276" pan="0" len="12" vol="100" />
          <note key="65" pos="288" pan="0" len="12" vol="100" />
          <note key="63" pos="300" pan="0" len="12" vol="100" />
          <note key="65" pos="312" pan="0" len="12" vol="100" />
          <note key="60" pos="324" pan="0" len="12" vol="100" />
          <note key="58" pos="336" pan="0" len="12" vol="100" />
          <note key="60" pos="348" pan="0" len="12" vol="100" />
          <note key="65" pos="360" pan="0" len="12" vol="100" />
          <note key="63" pos="372" pan="0" len="12" vol="100" />
          <note key="65" pos="384" pan="0" len="12" vol="100" />
          <note key="60" pos="396" pan="0" len="12" vol="100" />
          <note key="58" pos="408" pan="0" len="12" vol="100" />
          <note key="60" pos="420" pan="0" len="12" vol="100" />
          <note key="65" pos="432" pan="0" len="12" vol="100" />
          <note key="63" pos="444" pan="0" len="12" vol="100" />
          <note key="65" pos="456" pan="0" len="12" vol="100" />
          <note key="60" pos="468" pan="0" len="12" vol="100" />
          <note key="58" pos="480" pan="0" len="12" vol="100" />
          <note key="60" pos="492" pan="0" len="12" vol="100" />
          <note key="65" pos="504" pan="0" len="12" vol="100" />
          <note key="63" pos="516" pan="0" len="12" vol="100" />
          <note key="65" pos="528" pan="0" len="12" vol="100" />
          <note key="60" pos="540" pan="0" len="12" vol="100" />
          <note key="58" pos="552" pan="0" len="12" vol="100" />
          <note key="60" pos="564" pan="0" len="12" vol="100" />
          <note key="60" pos="576" pan="0" len="12" vol="100" />
          <note key="58" pos="588" pan="0" len="12" vol="100" />
          <note key="60" pos="600" pan="0" len="12" vol="100" />
          <note key="55" pos="612" pan="0" len="12" vol="100" />
          <note key="53" pos="624" pan="0" len="12" vol="100" />
          <note key="55" pos="636" pan="0" len="12" vol="100" />
          <note key="60" pos="648" pan="0" len="12" vol="100" />
          <note key="58" pos="660" pan="0" len="12" vol="100" />
          <note key="60" pos="672" pan="0" len="12" vol="100" />
          <note key="55" pos="684" pan="0" len="12" vol="100" />
          <note key="53" pos="696" pan="0" len="12" vol="100" />
          <note key="55" pos="708" pan="0" len="12" vol="100" />
          <note key="60" pos="720" pan="0" len="12" vol="100" />
          <note key="58" pos="732" pan="0" len="12" vol="100" />
          <note key="60" pos="744" pan="0" len="12" vol="100" />
          <note key="55" pos="756" pan="0" len="12" vol="100" />
          <note key="53" pos="768" pan="0" len="12" vol="100" />
          <note key="55" pos="780" pan="0" len="12" vol="100" />
          <note key="60" pos="792" pan="0" len="12" vol="100" />
          <note key="58" pos="804" pan="0" len="12" vol="100" />
          <note key="60" pos="816" pan="0" len="12" vol="100" />
          <note key="55" pos="828" pan="0" len="12" vol="100" />
          <note key="53" pos="840" pan="0" len="12" vol="100" />
          <note key="55" pos="852" pan="0" len="12" vol="100" />
          <note key="65" pos="864" pan="0" len="12" vol="100" />
          <note key="63" pos="876" pan="0" len="12" vol="100" />
          <note key="65" pos="888" pan="0" len="12" vol="100" />
          <note key="60" pos="900" pan="0" len="12" vol="100" />
          <note key="58" pos="912" pan="0" len="12" vol="100" />
          <note key="60" pos="924" pan="0" len="12" vol="100" />
          <note key="65" pos="936" pan="0" len="12" vol="100" />
          <note key="63" pos="948" pan="0" len="12" vol="100" />
          <note key="65" pos="960" pan="0" len="12" vol="100" />
          <note key="60" pos="972" pan="0" len="12" vol="100" />
          <note key="58" pos="984" pan="0" len="12" vol="100" />
          <note key="60" pos="996" pan="0" len="12" vol="100" />
          <note key="65" pos="1008" pan="0" len="12" vol="100" />
          <note key="63" pos="1020" pan="0" len="12" vol="100" />
          <note key="65" pos="1032" pan="0" len="12" vol="100" />
          <note key="60" pos="1044" pan="0" len="12" vol="100" />
          <note key="58" pos="1056" pan="0" len="12" vol="100" />
          <note key="60" pos="1068" pan="0" len="12" vol="100" />
          <note key="65" pos="1080" pan="0" len="12" vol="100" />
          <note key="63" pos="1092" pan="0" len="12" vol="100" />
          <note key="65" pos="1104" pan="0" len="12" vol="100" />
          <note key="60" pos="1116" pan="0" len="12" vol="100" />
          <note key="58" pos="1128" pan="0" len="12" vol="100" />
          <note key="60" pos="1140" pan="0" len="12" vol="100" />
        </pattern>
        <pattern pos="43392" muted="0" steps="16" name="" type="1">
          <note key="60" pos="0" pan="0" len="12" vol="100" />
          <note key="58" pos="12" pan="0" len="12" vol="100" />
          <note key="60" pos="24" pan="0" len="12" vol="100" />
          <note key="55" pos="36" pan="0" len="12" vol="100" />
          <note key="53" pos="48" pan="0" len="12" vol="100" />
          <note key="55" pos="60" pan="0" len="12" vol="100" />
          <note key="60" pos="72" pan="0" len="12" vol="100" />
          <note key="58" pos="84" pan="0" len="12" vol="100" />
          <note key="60" pos="96" pan="0" len="12" vol="100" />
          <note key="55" pos="108" pan="0" len="12" vol="100" />
          <note key="53" pos="120" pan="0" len="12" vol="100" />
          <note key="55" pos="132" pan="0" len="12" vol="100" />
          <note key="60" pos="144" pan="0" len="12" vol="100" />
          <note key="58" pos="156" pan="0" len="12" vol="100" />
          <note key="60" pos="168" pan="0" len="12" vol="100" />
          <note key="55" pos="180" pan="0" len="12" vol="100" />
          <note key="53" pos="192" pan="0" len="12" vol="100" />
          <note key="55" pos="204" pan="0" len="12" vol="100" />
          <note key="60" pos="216" pan="0" len="12" vol="100" />
          <note key="58" pos="228" pan="0" len="12" vol="100" />
          <note key="60" pos="240" pan="0" len="12" vol="100" />
          <note key="55" pos="252" pan="0" len="12" vol="100" />
          <note key="53" pos="264" pan="0" len="12" vol="100" />
          <note key="55" pos="276" pan="0" len="12" vol="100" />
          <note key="65" pos="288" pan="0" len="12" vol="100" />
          <note key="63" pos="300" pan="0" len="12" vol="100" />
          <note key="65" pos="312" pan="0" len="12" vol="100" />
          <note key="60" pos="324" pan="0" len="12" vol="100" />
          <note key="58" pos="336" pan="0" len="12" vol="100" />
          <note key="60" pos="348" pan="0" len="12" vol="100" />
          <note key="65" pos="360" pan="0" len="12" vol="100" />
          <note key="63" pos="372" pan="0" len="12" vol="100" />
          <note key="65" pos="384" pan="0" len="12" vol="100" />
          <note key="60" pos="396" pan="0" len="12" vol="100" />
          <note key="58" pos="408" pan="0" len="12" vol="100" />
          <note key="60" pos="420" pan="0" len="12" vol="100" />
          <note key="65" pos="432" pan="0" len="12" vol="100" />
          <note key="63" pos="444" pan="0" len="12" vol="100" />
          <note key="65" pos="456" pan="0" len="12" vol="100" />
          <note key="60" pos="468" pan="0" len="12" vol="100" />
          <note key="58" pos="480" pan="0" len="12" vol="100" />
          <note key="60" pos="492" pan="0" len="12" vol="100" />
          <note key="65" pos="504" pan="0" len="12" vol="100" />
          <note key="63" pos="516" pan="0" len="12" vol="100" />
          <note key="65" pos="528" pan="0" len="12" vol="100" />
          <note key="60" pos="540" pan="0" len="12" vol="100" />
          <note key="58" pos="552" pan="0" len="12" vol="100" />
          <note key="60" pos="564" pan="0" len="12" vol="100" />
          <note key="60" pos="576" pan="0" len="12" vol="100" />
          <note key="58" pos="588" pan="0" len="12" vol="100" />
          <note key="60" pos="600" pan="0" len="12" vol="100" />
          <note key="55" pos="612" pan="0" len="12" vol="100" />
          <note key="53" pos="624" pan="0" len="12" vol="100" />
          <note key="55" pos="636" pan="0" len="12" vol="100" />
          <note key="60" pos="648" pan="0" len="12" vol="100" />
          <note key="58" pos="660" pan="0" len="12" vol="100" />
          <note key="60" pos="672" pan="0" len="12" vol="100" />
          <note key="55" pos="684" pan="0" len="12" vol="100" />
          <note key="53" pos="696" pan="0" len="12" vol="100" />
          <note key="55" pos="708" pan="0" len="12" vol="100" />
          <note key="60" pos="720" pan="0" len="12" vol="100" />
          <note key="58" pos="732" pan="0" len="12" vol="100" />
          <note key="60" pos="744" pan="0" len="12" vol="100" />
          <note key="55" pos="756" pan="0" len="12" vol="100" />
          <note key="53" pos="768" pan="0" len="12" vol="100" />
          <note key="55" pos="780" pan="0" len="12" vol="100" />
          <note key="60" pos="792" pan="0" len="12" vol="100" />
          <note key="58" pos="804" pan="0" len="12" vol="100" />
          <note key="60" pos="816" pan="0" len="12" vol="100" />
          <note key="55" pos="828" pan="0" len="12" vol="100" />
          <note key="53" pos="840" pan="0" len="12" vol="100" />
          <note key="55" pos="852" pan="0" len="12" vol="100" />
          <note key="65" pos="864" pan="0" len="12" vol="100" />
          <note key="63" pos="876" pan="0" len="12" vol="100" />
          <note key="65" pos="888" pan="0" len="12" vol="100" />
          <note key="60" pos="900" pan="0" len="12" vol="100" />
          <note key="58" pos="912" pan="0" len="12" vol="100" />
          <note key="60" pos="924" pan="0" len="12" vol="100" />
          <note key="65" pos="936" pan="0" len="12" vol="100" />
          <note key="63" pos="948" pan="0" len="12" vol="100" />
          <note key="65" pos="960" pan="0" len="12" vol="100" />
          <note key="60" pos="972" pan="0" len="12" vol="100" />
          <note key="58" pos="984" pan="0" len="12" vol="100" />
          <note key="60" pos="996" pan="0" len="12" vol="100" />
          <note key="65" pos="1008" pan="0" len="12" vol="100" />
          <note key="63" pos="1020" pan="0" len="12" vol="100" />
          <note key="65" pos="1032" pan="0" len="12" vol="100" />
          <note key="60" pos="1044" pan="0" len="12" vol="100" />
          <note key="58" pos="1056" pan="0" len="12" vol="100" />
          <note key="60" pos="1068" pan="0" len="12" vol="100" />
          <note key="65" pos="1080" pan="0" len="12" vol="100" />
          <note key="63" pos="1092" pan="0" len="12" vol="100" />
          <note key="65" pos="1104" pan="0" len="12" vol="100" />
          <note key="60" pos="1116" pan="0" len="12" vol="100" />
          <note key="58" pos="1128" pan="0" len="12" vol="100" />
          <note key="60" pos="1140" pan="0" len="12" vol="100" />
        </pattern>
        <pattern pos="48000" muted="0" steps="16" name="" type="1">
          <note key="60" pos="0" pan="0" len="12" vol="100" />
          <note key="58" pos="12" pan="0" len="12" vol="100" />
          <note key="60" pos="24" pan="0" len="12" vol="100" />
          <note key="55" pos="36" pan="0" len="12" vol="100" />
          <note key="53" pos="48" pan="0" len="12" vol="100" />
          <note key="55" pos="60" pan="0" len="12" vol="100" />
          <note key="60" pos="72" pan="0" len="12" vol="100" />
          <note key="58" pos="84" pan="0" len="12" vol="100" />
          <note key="60" pos="96" pan="0" len="12" vol="100" />
          <note key="55" pos="108" pan="0" len="12" vol="100" />
          <note key="53" pos="120" pan="0" len="12" vol="100" />
          <note key="55" pos="132" pan="0" len="12" vol="100" />
          <note key="60" pos="144" pan="0" len="12" vol="100" />
          <note key="58" pos="156" pan="0" len="12" vol="100" />
          <note key="60" pos="168" pan="0" len="12" vol="100" />
          <note key="55" pos="180" pan="0" len="12" vol="100" />
          <note key="53" pos="192" pan="0" len="12" vol="100" />
          <note key="55" pos="204" pan="0" len="12" vol="100" />
          <note key="60" pos="216" pan="0" len="12" vol="100" />
          <note key="58" pos="228" pan="0" len="12" vol="100" />
          <note key="60" pos="240" pan="0" len="12" vol="100" />
          <note key="55" pos="252" pan="0" len="12" vol="100" />
          <note key="53" pos="264" pan="0" len="12" vol="100" />
          <note key="55" pos="276" pan="0" len="12" vol="100" />
          <note key="65" pos="288" pan="0" len="12" vol="100" />
          <note key="63" pos="300" pan="0" len="12" vol="100" />
          <note key="65" pos="312" pan="0" len="12" vol="100" />
          <note key="60" pos="324" pan="0" len="12" vol="100" />
          <note key="58" pos="336" pan="0" len="12" vol="100" />
          <note key="60" pos="348" pan="0" len="12" vol="100" />
          <note key="65" pos="360" pan="0" len="12" vol="100" />
          <note key="63" pos="372" pan="0" len="12" vol="100" />
          <note key="65" pos="384" pan="0" len="12" vol="100" />
          <note key="60" pos="396" pan="0" len="12" vol="100" />
          <note key="58" pos="408" pan="0" len="12" vol="100" />
          <note key="60" pos="420" pan="0" len="12" vol="100" />
          <note key="65" pos="432" pan="0" len="12" vol="100" />
          <note key="63" pos="444" pan="0" len="12" vol="100" />
          <note key="65" pos="456" pan="0" len="12" vol="100" />
          <note key="60" pos="468" pan="0" len="12" vol="100" />
          <note key="58" pos="480" pan="0" len="12" vol="100" />
          <note key="60" pos="492" pan="0" len="12" vol="100" />
          <note key="65" pos="504" pan="0" len="12" vol="100" />
          <note key="63" pos="516" pan="0" len="12" vol="100" />
          <note key="65" pos="528" pan="0" len="12" vol="100" />
          <note key="60" pos="540" pan="0" len="12" vol="100" />
          <note key="58" pos="552" pan="0" len="12" vol="100" />
          <note key="60" pos="564" pan="0" len="12" vol="100" />
          <note key="60" pos="576" pan="0" len="12" vol="100" />
          <note key="58" pos="588" pan="0" len="12" vol="100" />
          <note key="60" pos="600" pan="0" len="12" vol="100" />
          <note key="55" pos="612" pan="0" len="12" vol="100" />
          <note key="53" pos="624" pan="0" len="12" vol="100" />
          <note key="55" pos="636" pan="0" len="12" vol="100" />
          <note key="60" pos="648" pan="0" len="12" vol="100" />
          <note key="58" pos="660" pan="0" len="12" vol="100" />
          <note key="60" pos="672" pan="0" len="12" vol="100" />
          <note key="55" pos="684" pan="0" len="12" vol="100" />
          <note key="53" pos="696" pan="0" len="12" vol="100" />
          <note key="55" pos="708" pan="0" len="12" vol="100" />
          <note key="60" pos="720" pan="0" len="12" vol="100" />
          <note key="58" pos="732" pan="0" len="12" vol="100" />
          <note key="60" pos="744" pan="0" len="12" vol="100" />
          <note key="55" pos="756" pan="0" len="12" vol="100" />
          <note key="53" pos="768" pan="0" len="12" vol="100" />
          <note key="55" pos="780" pan="0" len="12" vol="100" />
          <note key="60" pos="792" pan="0" len="12" vol="100" />
          <note key="58" pos="804" pan="0" len="12" vol="100" />
          <note key="60" pos="816" pan="0" len="12" vol="100" />
          <note key="55" pos="828" pan="0" len="12" vol="100" />
          <note key="53" pos="840" pan="0" len="12" vol="100" />
          <note key="55" pos="852" pan="0" len="12" vol="100" />
          <note key="65" pos="864" pan="0" len="12" vol="100" />
          <note key="63" pos="876" pan="0" len="12" vol="100" />
          <note key="65" pos="888" pan="0" len="12" vol="100" />
          <note key="60" pos="900" pan="0" len="12" vol="100" />
          <note key="58" pos="912" pan="0" len="12" vol="100" />
          <note key="60" pos="924" pan="0" len="12" vol="100" />
          <note key="65" pos="936" pan="0" len="12" vol="100" />
          <note key="63" pos="948" pan="0" len="12" vol="100" />
          <note key="65" pos="960" pan="0" len="12" vol="100" />
          <note key="60" pos="972" pan="0" len="12" vol="100" />
          <note key="58" pos="984" pan="0" len="12" vol="100" />
          <note key="60" pos="996" pan="0" len="12" vol="100" />
          <note key="65" pos="1008" pan="0" len="12" vol="100" />
          <note key="63" pos="1020" pan="0" len="12" vol="100" />
          <note key="65" pos="1032" pan="0" len="12" vol="100" />
          <note key="60" pos="1044" pan="0" len="12" vol="100" />
          <note key="58" pos="1056" pan="0" len="12" vol="100" />
          <note key="60" pos="1068" pan="0" len="12" vol="100" />
          <note key="65" pos="1080" pan="0" len="12" vol="100" />
          <note key="63" pos="1092" pan="0" len="12" vol="100" />
          <note key="65" pos="1104" pan="0" len="12" vol="100" />
          <note key="60" pos="1116" pan="0" len="12" vol="100" />
          <note key="58" pos="1128" pan="0" len="12" vol="100" />
          <note key="60" pos="1140" pan="0" len="12" vol="100" />
        </pattern>
      </track>
      <track solo="0" name="63 (Ch10)" type="0" muted="0">
        <instrumenttrack usemasterpitch="1" pitch="0.0" basenote="57" pan="0" pitchrange="12" vol="30">
          <eldata />
          <instrument name="tripleoscillator" />
        </instrumenttrack>
        <pattern pos="51456" muted="0" steps="16" name="" type="1">
          <note key="60" pos="36" pan="0" len="12" vol="50" />
          <note key="58" pos="48" pan="0" len="12" vol="50" />
          <note key="60" pos="60" pan="0" len="12" vol="50" />
          <note key="55" pos="72" pan="0" len="12" vol="50" />
          <note key="53" pos="84" pan="0" len="12" vol="50" />
          <note key="55" pos="96" pan="0" len="12" vol="50" />
          <note key="60" pos="108" pan="0" len="12" vol="50" />
          <note key="58" pos="120" pan="0" len="12" vol="50" />
          <note key="60" pos="132" pan="0" len="12" vol="50" />
          <note key="55" pos="144" pan="0" len="12" vol="50" />
          <note key="53" pos="156" pan="0" len="12" vol="50" />
          <note key="55" pos="168" pan="0" len="12" vol="50" />
          <note key="60" pos="180" pan="0" len="12" vol="50" />
          <note key="58" pos="192" pan="0" len="12" vol="50" />
          <note key="60" pos="204" pan="0" len="12" vol="50" />
          <note key="55" pos="216" pan="0" len="12" vol="50" />
          <note key="53" pos="228" pan="0" len="12" vol="50" />
          <note key="55" pos="240" pan="0" len="12" vol="50" />
          <note key="60" pos="252" pan="0" len="12" vol="50" />
          <note key="58" pos="264" pan="0" len="12" vol="50" />
          <note key="60" pos="276" pan="0" len="12" vol="50" />
          <note key="55" pos="288" pan="0" len="12" vol="50" />
          <note key="53" pos="300" pan="0" len="12" vol="50" />
          <note key="55" pos="312" pan="0" len="12" vol="50" />
          <note key="65" pos="324" pan="0" len="12" vol="50" />
          <note key="63" pos="336" pan="0" len="12" vol="50" />
          <note key="65" pos="348" pan="0" len="12" vol="50" />
          <note key="60" pos="360" pan="0" len="12" vol="50" />
          <note key="58" pos="372" pan="0" len="12" vol="50" />
          <note key="60" pos="384" pan="0" len="12" vol="50" />
          <note key="65" pos="396" pan="0" len="12" vol="50" />
          <note key="63" pos="408" pan="0" len="12" vol="50" />
          <note key="65" pos="420" pan="0" len="12" vol="50" />
          <note key="60" pos="432" pan="0" len="12" vol="50" />
          <note key="58" pos="444" pan="0" len="12" vol="50" />
          <note key="60" pos="456" pan="0" len="12" vol="50" />
          <note key="65" pos="468" pan="0" len="12" vol="50" />
          <note key="63" pos="480" pan="0" len="12" vol="50" />
          <note key="65" pos="492" pan="0" len="12" vol="50" />
          <note key="60" pos="504" pan="0" len="12" vol="50" />
          <note key="58" pos="516" pan="0" len="12" vol="50" />
          <note key="60" pos="528" pan="0" len="12" vol="50" />
          <note key="65" pos="540" pan="0" len="12" vol="50" />
          <note key="63" pos="552" pan="0" len="12" vol="50" />
          <note key="65" pos="564" pan="0" len="12" vol="50" />
          <note key="60" pos="576" pan="0" len="12" vol="50" />
          <note key="58" pos="588" pan="0" len="12" vol="50" />
          <note key="60" pos="600" pan="0" len="12" vol="50" />
          <note key="60" pos="612" pan="0" len="12" vol="50" />
          <note key="58" pos="624" pan="0" len="12" vol="50" />
          <note key="60" pos="636" pan="0" len="12" vol="50" />
          <note key="55" pos="648" pan="0" len="12" vol="50" />
          <note key="53" pos="660" pan="0" len="12" vol="50" />
          <note key="55" pos="672" pan="0" len="12" vol="50" />
          <note key="60" pos="684" pan="0" len="12" vol="50" />
          <note key="58" pos="696" pan="0" len="12" vol="50" />
          <note key="60" pos="708" pan="0" len="12" vol="50" />
          <note key="55" pos="720" pan="0" len="12" vol="50" />
          <note key="53" pos="732" pan="0" len="12" vol="50" />
          <note key="55" pos="744" pan="0" len="12" vol="50" />
          <note key="60" pos="756" pan="0" len="12" vol="50" />
          <note key="58" pos="768" pan="0" len="12" vol="50" />
          <note key="60" pos="780" pan="0" len="12" vol="50" />
          <note key="55" pos="792" pan="0" len="12" vol="50" />
          <note key="53" pos="804" pan="0" len="12" vol="50" />
          <note key="55" pos="816" pan="0" len="12" vol="50" />
          <note key="60" pos="828" pan="0" len="12" vol="50" />
          <note key="58" pos="840" pan="0" len="12" vol="50" />
          <note key="60" pos="852" pan="0" len="12" vol="50" />
          <note key="55" pos="864" pan="0" len="12" vol="50" />
          <note key="53" pos="876" pan="0" len="12" vol="50" />
          <note key="55" pos="888" pan="0" len="12" vol="50" />
          <note key="65" pos="900" pan="0" len="12" vol="50" />
          <note key="63" pos="912" pan="0" len="12" vol="50" />
          <note key="65" pos="924" pan="0" len="12" vol="50" />
          <note key="60" pos="936" pan="0" len="12" vol="50" />
          <note key="58" pos="948" pan="0" len="12" vol="50" />
          <note key="60" pos="960" pan="0" len="12" vol="50" />
          <note key="65" pos="972" pan="0" len="12" vol="50" />
          <note key="63" pos="984" pan="0" len="12" vol="50" />
          <note key="65" pos="996" pan="0" len="12" vol="50" />
          <note key="60" pos="1008" pan="0" len="12" vol="50" />
          <note key="58" pos="1020" pan="0" len="12" vol="50" />
          <note key="60" pos="1032" pan="0" len="12" vol="50" />
          <note key="65" pos="1044" pan="0" len="12" vol="50" />
          <note key="63" pos="1056" pan="0" len="12" vol="50" />
          <note key="65" pos="1068" pan="0" len="12" vol="50" />
          <note key="60" pos="1080" pan="0" len="12" vol="50" />
          <note key="58" pos="1092" pan="0" len="12" vol="50" />
          <note key="60" pos="1104" pan="0" len="12" vol="50" />
          <note key="65" pos="1116" pan="0" len="12" vol="50" />
          <note key="63" pos="1128" pan="0" len="12" vol="50" />
          <note key="65" pos="1140" pan="0" len="12" vol="50" />
        </pattern>
        <pattern pos="42240" muted="0" steps="16" name="" type="1">
          <note key="60" pos="36" pan="0" len="12" vol="50" />
          <note key="58" pos="48" pan="0" len="12" vol="50" />
          <note key="60" pos="60" pan="0" len="12" vol="50" />
          <note key="55" pos="72" pan="0" len="12" vol="50" />
          <note key="53" pos="84" pan="0" len="12" vol="50" />
          <note key="55" pos="96" pan="0" len="12" vol="50" />
          <note key="60" pos="108" pan="0" len="12" vol="50" />
          <note key="58" pos="120" pan="0" len="12" vol="50" />
          <note key="60" pos="132" pan="0" len="12" vol="50" />
          <note key="55" pos="144" pan="0" len="12" vol="50" />
          <note key="53" pos="156" pan="0" len="12" vol="50" />
          <note key="55" pos="168" pan="0" len="12" vol="50" />
          <note key="60" pos="180" pan="0" len="12" vol="50" />
          <note key="58" pos="192" pan="0" len="12" vol="50" />
          <note key="60" pos="204" pan="0" len="12" vol="50" />
          <note key="55" pos="216" pan="0" len="12" vol="50" />
          <note key="53" pos="228" pan="0" len="12" vol="50" />
          <note key="55" pos="240" pan="0" len="12" vol="50" />
          <note key="60" pos="252" pan="0" len="12" vol="50" />
          <note key="58" pos="264" pan="0" len="12" vol="50" />
          <note key="60" pos="276" pan="0" len="12" vol="50" />
          <note key="55" pos="288" pan="0" len="12" vol="50" />
          <note key="53" pos="300" pan="0" len="12" vol="50" />
          <note key="55" pos="312" pan="0" len="12" vol="50" />
          <note key="65" pos="324" pan="0" len="12" vol="50" />
          <note key="63" pos="336" pan="0" len="12" vol="50" />
          <note key="65" pos="348" pan="0" len="12" vol="50" />
          <note key="60" pos="360" pan="0" len="12" vol="50" />
          <note key="58" pos="372" pan="0" len="12" vol="50" />
          <note key="60" pos="384" pan="0" len="12" vol="50" />
          <note key="65" pos="396" pan="0" len="12" vol="50" />
          <note key="63" pos="408" pan="0" len="12" vol="50" />
          <note key="65" pos="420" pan="0" len="12" vol="50" />
          <note key="60" pos="432" pan="0" len="12" vol="50" />
          <note key="58" pos="444" pan="0" len="12" vol="50" />
          <note key="60" pos="456" pan="0" len="12" vol="50" />
          <note key="65" pos="468" pan="0" len="12" vol="50" />
          <note key="63" pos="480" pan="0" len="12" vol="50" />
          <note key="65" pos="492" pan="0" len="12" vol="50" />
          <note key="60" pos="504" pan="0" len="12" vol="50" />
          <note key="58" pos="516" pan="0" len="12" vol="50" />
          <note key="60" pos="528" pan="0" len="12" vol="50" />
          <note key="65" pos="540" pan="0" len="12" vol="50" />
          <note key="63" pos="552" pan="0" len="12" vol="50" />
          <note key="65" pos="564" pan="0" len="12" vol="50" />
          <note key="60" pos="576" pan="0" len="12" vol="50" />
          <note key="58" pos="588" pan="0" len="12" vol="50" />
          <note key="60" pos="600" pan="0" len="12" vol="50" />
          <note key="60" pos="612" pan="0" len="12" vol="50" />
          <note key="58" pos="624" pan="0" len="12" vol="50" />
          <note key="60" pos="636" pan="0" len="12" vol="50" />
          <note key="55" pos="648" pan="0" len="12" vol="50" />
          <note key="53" pos="660" pan="0" len="12" vol="50" />
          <note key="55" pos="672" pan="0" len="12" vol="50" />
          <note key="60" pos="684" pan="0" len="12" vol="50" />
          <note key="58" pos="696" pan="0" len="12" vol="50" />
          <note key="60" pos="708" pan="0" len="12" vol="50" />
          <note key="55" pos="720" pan="0" len="12" vol="50" />
          <note key="53" pos="732" pan="0" len="12" vol="50" />
          <note key="55" pos="744" pan="0" len="12" vol="50" />
          <note key="60" pos="756" pan="0" len="12" vol="50" />
          <note key="58" pos="768" pan="0" len="12" vol="50" />
          <note key="60" pos="780" pan="0" len="12" vol="50" />
          <note key="55" pos="792" pan="0" len="12" vol="50" />
          <note key="53" pos="804" pan="0" len="12" vol="50" />
          <note key="55" pos="816" pan="0" len="12" vol="50" />
          <note key="60" pos="828" pan="0" len="12" vol="50" />
          <note key="58" pos="840" pan="0" len="12" vol="50" />
          <note key="60" pos="852" pan="0" len="12" vol="50" />
          <note key="55" pos="864" pan="0" len="12" vol="50" />
          <note key="53" pos="876" pan="0" len="12" vol="50" />
          <note key="55" pos="888" pan="0" len="12" vol="50" />
          <note key="65" pos="900" pan="0" len="12" vol="50" />
          <note key="63" pos="912" pan="0" len="12" vol="50" />
          <note key="65" pos="924" pan="0" len="12" vol="50" />
          <note key="60" pos="936" pan="0" len="12" vol="50" />
          <note key="58" pos="948" pan="0" len="12" vol="50" />
          <note key="60" pos="960" pan="0" len="12" vol="50" />
          <note key="65" pos="972" pan="0" len="12" vol="50" />
          <note key="63" pos="984" pan="0" len="12" vol="50" />
          <note key="65" pos="996" pan="0" len="12" vol="50" />
          <note key="60" pos="1008" pan="0" len="12" vol="50" />
          <note key="58" pos="1020" pan="0" len="12" vol="50" />
          <note key="60" pos="1032" pan="0" len="12" vol="50" />
          <note key="65" pos="1044" pan="0" len="12" vol="50" />
          <note key="63" pos="1056" pan="0" len="12" vol="50" />
          <note key="65" pos="1068" pan="0" len="12" vol="50" />
          <note key="60" pos="1080" pan="0" len="12" vol="50" />
          <note key="58" pos="1092" pan="0" len="12" vol="50" />
          <note key="60" pos="1104" pan="0" len="12" vol="50" />
          <note key="65" pos="1116" pan="0" len="12" vol="50" />
          <note key="63" pos="1128" pan="0" len="12" vol="50" />
          <note key="65" pos="1140" pan="0" len="12" vol="50" />
        </pattern>
        <pattern pos="43392" muted="0" steps="16" name="" type="1">
          <note key="60" pos="36" pan="0" len="12" vol="50" />
          <note key="58" pos="48" pan="0" len="12" vol="50" />
          <note key="60" pos="60" pan="0" len="12" vol="50" />
          <note key="55" pos="72" pan="0" len="12" vol="50" />
          <note key="53" pos="84" pan="0" len="12" vol="50" />
          <note key="55" pos="96" pan="0" len="12" vol="50" />
          <note key="60" pos="108" pan="0" len="12" vol="50" />
          <note key="58" pos="120" pan="0" len="12" vol="50" />
          <note key="60" pos="132" pan="0" len="12" vol="50" />
          <note key="55" pos="144" pan="0" len="12" vol="50" />
          <note key="53" pos="156" pan="0" len="12" vol="50" />
          <note key="55" pos="168" pan="0" len="12" vol="50" />
          <note key="60" pos="180" pan="0" len="12" vol="50" />
          <note key="58" pos="192" pan="0" len="12" vol="50" />
          <note key="60" pos="204" pan="0" len="12" vol="50" />
          <note key="55" pos="216" pan="0" len="12" vol="50" />
          <note key="53" pos="228" pan="0" len="12" vol="50" />
          <note key="55" pos="240" pan="0" len="12" vol="50" />
          <note key="60" pos="252" pan="0" len="12" vol="50" />
          <note key="58" pos="264" pan="0" len="12" vol="50" />
          <note key="60" pos="276" pan="0" len="12" vol="50" />
          <note key="55" pos="288" pan="0" len="12" vol="50" />
          <note key="53" pos="300" pan="0" len="12" vol="50" />
          <note key="55" pos="312" pan="0" len="12" vol="50" />
          <note key="65" pos="324" pan="0" len="12" vol="50" />
          <note key="63" pos="336" pan="0" len="12" vol="50" />
          <note key="65" pos="348" pan="0" len="12" vol="50" />
          <note key="60" pos="360" pan="0" len="12" vol="50" />
          <note key="58" pos="372" pan="0" len="12" vol="50" />
          <note key="60" pos="384" pan="0" len="12" vol="50" />
          <note key="65" pos="396" pan="0" len="12" vol="50" />
          <note key="63" pos="408" pan="0" len="12" vol="50" />
          <note key="65" pos="420" pan="0" len="12" vol="50" />
          <note key="60" pos="432" pan="0" len="12" vol="50" />
          <note key="58" pos="444" pan="0" len="12" vol="50" />
          <note key="60" pos="456" pan="0" len="12" vol="50" />
          <note key="65" pos="468" pan="0" len="12" vol="50" />
          <note key="63" pos="480" pan="0" len="12" vol="50" />
          <note key="65" pos="492" pan="0" len="12" vol="50" />
          <note key="60" pos="504" pan="0" len="12" vol="50" />
          <note key="58" pos="516" pan="0" len="12" vol="50" />
          <note key="60" pos="528" pan="0" len="12" vol="50" />
          <note key="65" pos="540" pan="0" len="12" vol="50" />
          <note key="63" pos="552" pan="0" len="12" vol="50" />
          <note key="65" pos="564" pan="0" len="12" vol="50" />
          <note key="60" pos="576" pan="0" len="12" vol="50" />
          <note key="58" pos="588" pan="0" len="12" vol="50" />
          <note key="60" pos="600" pan="0" len="12" vol="50" />
          <note key="60" pos="612" pan="0" len="12" vol="50" />
          <note key="58" pos="624" pan="0" len="12" vol="50" />
          <note key="60" pos="636" pan="0" len="12" vol="50" />
          <note key="55" pos="648" pan="0" len="12" vol="50" />
          <note key="53" pos="660" pan="0" len="12" vol="50" />
          <note key="55" pos="672" pan="0" len="12" vol="50" />
          <note key="60" pos="684" pan="0" len="12" vol="50" />
          <note key="58" pos="696" pan="0" len="12" vol="50" />
          <note key="60" pos="708" pan="0" len="12" vol="50" />
          <note key="55" pos="720" pan="0" len="12" vol="50" />
          <note key="53" pos="732" pan="0" len="12" vol="50" />
          <note key="55" pos="744" pan="0" len="12" vol="50" />
          <note key="60" pos="756" pan="0" len="12" vol="50" />
          <note key="58" pos="768" pan="0" len="12" vol="50" />
          <note key="60" pos="780" pan="0" len="12" vol="50" />
          <note key="55" pos="792" pan="0" len="12" vol="50" />
          <note key="53" pos="804" pan="0" len="12" vol="50" />
          <note key="55" pos="816" pan="0" len="12" vol="50" />
          <note key="60" pos="828" pan="0" len="12" vol="50" />
          <note key="58" pos="840" pan="0" len="12" vol="50" />
          <note key="60" pos="852" pan="0" len="12" vol="50" />
          <note key="55" pos="864" pan="0" len="12" vol="50" />
          <note key="53" pos="876" pan="0" len="12" vol="50" />
          <note key="55" pos="888" pan="0" len="12" vol="50" />
          <note key="65" pos="900" pan="0" len="12" vol="50" />
          <note key="63" pos="912" pan="0" len="12" vol="50" />
          <note key="65" pos="924" pan="0" len="12" vol="50" />
          <note key="60" pos="936" pan="0" len="12" vol="50" />
          <note key="58" pos="948" pan="0" len="12" vol="50" />
          <note key="60" pos="960" pan="0" len="12" vol="50" />
          <note key="65" pos="972" pan="0" len="12" vol="50" />
          <note key="63" pos="984" pan="0" len="12" vol="50" />
          <note key="65" pos="996" pan="0" len="12" vol="50" />
          <note key="60" pos="1008" pan="0" len="12" vol="50" />
          <note key="58" pos="1020" pan="0" len="12" vol="50" />
          <note key="60" pos="1032" pan="0" len="12" vol="50" />
          <note key="65" pos="1044" pan="0" len="12" vol="50" />
          <note key="63" pos="1056" pan="0" len="12" vol="50" />
          <note key="65" pos="1068" pan="0" len="12" vol="50" />
          <note key="60" pos="1080" pan="0" len="12" vol="50" />
          <note key="58" pos="1092" pan="0" len="12" vol="50" />
          <note key="60" pos="1104" pan="0" len="12" vol="50" />
          <note key="65" pos="1116" pan="0" len="12" vol="50" />
          <note key="63" pos="1128" pan="0" len="12" vol="50" />
          <note key="65" pos="1140" pan="0" len="12" vol="50" />
        </pattern>
        <pattern pos="44544" muted="0" steps="16" name="" type="1">
          <note key="60" pos="36" pan="0" len="12" vol="50" />
          <note key="58" pos="48" pan="0" len="12" vol="50" />
          <note key="60" pos="60" pan="0" len="12" vol="50" />
          <note key="55" pos="72" pan="0" len="12" vol="50" />
          <note key="53" pos="84" pan="0" len="12" vol="50" />
          <note key="55" pos="96" pan="0" len="12" vol="50" />
          <note key="60" pos="108" pan="0" len="12" vol="50" />
          <note key="58" pos="120" pan="0" len="12" vol="50" />
          <note key="60" pos="132" pan="0" len="12" vol="50" />
          <note key="55" pos="144" pan="0" len="12" vol="50" />
          <note key="53" pos="156" pan="0" len="12" vol="50" />
          <note key="55" pos="168" pan="0" len="12" vol="50" />
          <note key="60" pos="180" pan="0" len="12" vol="50" />
          <note key="58" pos="192" pan="0" len="12" vol="50" />
          <note key="60" pos="204" pan="0" len="12" vol="50" />
          <note key="55" pos="216" pan="0" len="12" vol="50" />
          <note key="53" pos="228" pan="0" len="12" vol="50" />
          <note key="55" pos="240" pan="0" len="12" vol="50" />
          <note key="60" pos="252" pan="0" len="12" vol="50" />
          <note key="58" pos="264" pan="0" len="12" vol="50" />
          <note key="60" pos="276" pan="0" len="12" vol="50" />
          <note key="55" pos="288" pan="0" len="12" vol="50" />
          <note key="53" pos="300" pan="0" len="12" vol="50" />
          <note key="55" pos="312" pan="0" len="12" vol="50" />
          <note key="65" pos="324" pan="0" len="12" vol="50" />
          <note key="63" pos="336" pan="0" len="12" vol="50" />
          <note key="65" pos="348" pan="0" len="12" vol="50" />
          <note key="60" pos="360" pan="0" len="12" vol="50" />
          <note key="58" pos="372" pan="0" len="12" vol="50" />
          <note key="60" pos="384" pan="0" len="12" vol="50" />
          <note key="65" pos="396" pan="0" len="12" vol="50" />
          <note key="63" pos="408" pan="0" len="12" vol="50" />
          <note key="65" pos="420" pan="0" len="12" vol="50" />
          <note key="60" pos="432" pan="0" len="12" vol="50" />
          <note key="58" pos="444" pan="0" len="12" vol="50" />
          <note key="60" pos="456" pan="0" len="12" vol="50" />
          <note key="65" pos="468" pan="0" len="12" vol="50" />
          <note key="63" pos="480" pan="0" len="12" vol="50" />
          <note key="65" pos="492" pan="0" len="12" vol="50" />
          <note key="60" pos="504" pan="0" len="12" vol="50" />
          <note key="58" pos="516" pan="0" len="12" vol="50" />
          <note key="60" pos="528" pan="0" len="12" vol="50" />
          <note key="65" pos="540" pan="0" len="12" vol="50" />
          <note key="63" pos="552" pan="0" len="12" vol="50" />
          <note key="65" pos="564" pan="0" len="12" vol="50" />
          <note key="60" pos="576" pan="0" len="12" vol="50" />
          <note key="58" pos="588" pan="0" len="12" vol="50" />
          <note key="60" pos="600" pan="0" len="12" vol="50" />
          <note key="60" pos="612" pan="0" len="12" vol="50" />
          <note key="58" pos="624" pan="0" len="12" vol="50" />
          <note key="60" pos="636" pan="0" len="12" vol="50" />
          <note key="55" pos="648" pan="0" len="12" vol="50" />
          <note key="53" pos="660" pan="0" len="12" vol="50" />
          <note key="55" pos="672" pan="0" len="12" vol="50" />
          <note key="60" pos="684" pan="0" len="12" vol="50" />
          <note key="58" pos="696" pan="0" len="12" vol="50" />
          <note key="60" pos="708" pan="0" len="12" vol="50" />
          <note key="55" pos="720" pan="0" len="12" vol="50" />
          <note key="53" pos="732" pan="0" len="12" vol="50" />
          <note key="55" pos="744" pan="0" len="12" vol="50" />
          <note key="60" pos="756" pan="0" len="12" vol="50" />
          <note key="58" pos="768" pan="0" len="12" vol="50" />
          <note key="60" pos="780" pan="0" len="12" vol="50" />
          <note key="55" pos="792" pan="0" len="12" vol="50" />
          <note key="53" pos="804" pan="0" len="12" vol="50" />
          <note key="55" pos="816" pan="0" len="12" vol="50" />
          <note key="60" pos="828" pan="0" len="12" vol="50" />
          <note key="58" pos="840" pan="0" len="12" vol="50" />
          <note key="60" pos="852" pan="0" len="12" vol="50" />
          <note key="55" pos="864" pan="0" len="12" vol="50" />
          <note key="53" pos="876" pan="0" len="12" vol="50" />
          <note key="55" pos="888" pan="0" len="12" vol="50" />
          <note key="65" pos="900" pan="0" len="12" vol="50" />
          <note key="63" pos="912" pan="0" len="12" vol="50" />
          <note key="65" pos="924" pan="0" len="12" vol="50" />
          <note key="60" pos="936" pan="0" len="12" vol="50" />
          <note key="58" pos="948" pan="0" len="12" vol="50" />
          <note key="60" pos="960" pan="0" len="12" vol="50" />
          <note key="65" pos="972" pan="0" len="12" vol="50" />
          <note key="63" pos="984" pan="0" len="12" vol="50" />
          <note key="65" pos="996" pan="0" len="12" vol="50" />
          <note key="60" pos="1008" pan="0" len="12" vol="50" />
          <note key="58" pos="1020" pan="0" len="12" vol="50" />
          <note key="60" pos="1032" pan="0" len="12" vol="50" />
          <note key="65" pos="1044" pan="0" len="12" vol="50" />
          <note key="63" pos="1056" pan="0" len="12" vol="50" />
          <note key="65" pos="1068" pan="0" len="12" vol="50" />
          <note key="60" pos="1080" pan="0" len="12" vol="50" />
          <note key="58" pos="1092" pan="0" len="12" vol="50" />
          <note key="60" pos="1104" pan="0" len="12" vol="50" />
          <note key="65" pos="1116" pan="0" len="12" vol="50" />
          <note key="63" pos="1128" pan="0" len="12" vol="50" />
          <note key="65" pos="1140" pan="0" len="12" vol="50" />
        </pattern>
        <pattern pos="45696" muted="0" steps="16" name="" type="1">
          <note key="60" pos="36" pan="0" len="12" vol="50" />
          <note key="58" pos="48" pan="0" len="12" vol="50" />
          <note key="60" pos="60" pan="0" len="12" vol="50" />
          <note key="55" pos="72" pan="0" len="12" vol="50" />
          <note key="53" pos="84" pan="0" len="12" vol="50" />
          <note key="55" pos="96" pan="0" len="12" vol="50" />
          <note key="60" pos="108" pan="0" len="12" vol="50" />
          <note key="58" pos="120" pan="0" len="12" vol="50" />
          <note key="60" pos="132" pan="0" len="12" vol="50" />
          <note key="55" pos="144" pan="0" len="12" vol="50" />
          <note key="53" pos="156" pan="0" len="12" vol="50" />
          <note key="55" pos="168" pan="0" len="12" vol="50" />
          <note key="60" pos="180" pan="0" len="12" vol="50" />
          <note key="58" pos="192" pan="0" len="12" vol="50" />
          <note key="60" pos="204" pan="0" len="12" vol="50" />
          <note key="55" pos="216" pan="0" len="12" vol="50" />
          <note key="53" pos="228" pan="0" len="12" vol="50" />
          <note key="55" pos="240" pan="0" len="12" vol="50" />
          <note key="60" pos="252" pan="0" len="12" vol="50" />
          <note key="58" pos="264" pan="0" len="12" vol="50" />
          <note key="60" pos="276" pan="0" len="12" vol="50" />
          <note key="55" pos="288" pan="0" len="12" vol="50" />
          <note key="53" pos="300" pan="0" len="12" vol="50" />
          <note key="55" pos="312" pan="0" len="12" vol="50" />
          <note key="65" pos="324" pan="0" len="12" vol="50" />
          <note key="63" pos="336" pan="0" len="12" vol="50" />
          <note key="65" pos="348" pan="0" len="12" vol="50" />
          <note key="60" pos="360" pan="0" len="12" vol="50" />
          <note key="58" pos="372" pan="0" len="12" vol="50" />
          <note key="60" pos="384" pan="0" len="12" vol="50" />
          <note key="65" pos="396" pan="0" len="12" vol="50" />
          <note key="63" pos="408" pan="0" len="12" vol="50" />
          <note key="65" pos="420" pan="0" len="12" vol="50" />
          <note key="60" pos="432" pan="0" len="12" vol="50" />
          <note key="58" pos="444" pan="0" len="12" vol="50" />
          <note key="60" pos="456" pan="0" len="12" vol="50" />
          <note key="65" pos="468" pan="0" len="12" vol="50" />
          <note key="63" pos="480" pan="0" len="12" vol="50" />
          <note key="65" pos="492" pan="0" len="12" vol="50" />
          <note key="60" pos="504" pan="0" len="12" vol="50" />
          <note key="58" pos="516" pan="0" len="12" vol="50" />
          <note key="60" pos="528" pan="0" len="12" vol="50" />
          <note key="65" pos="540" pan="0" len="12" vol="50" />
          <note key="63" pos="552" pan="0" len="12" vol="50" />
          <note key="65" pos="564" pan="0" len="12" vol="50" />
          <note key="60" pos="576" pan="0" len="12" vol="50" />
          <note key="58" pos="588" pan="0" len="12" vol="50" />
          <note key="60" pos="600" pan="0" len="12" vol="50" />
          <note key="60" pos="612" pan="0" len="12" vol="50" />
          <note key="58" pos="624" pan="0" len="12" vol="50" />
          <note key="60" pos="636" pan="0" len="12" vol="50" />
          <note key="55" pos="648" pan="0" len="12" vol="50" />
          <note key="53" pos="660" pan="0" len="12" vol="50" />
          <note key="55" pos="672" pan="0" len="12" vol="50" />
          <note key="60" pos="684" pan="0" len="12" vol="50" />
          <note key="58" pos="696" pan="0" len="12" vol="50" />
          <note key="60" pos="708" pan="0" len="12" vol="50" />
          <note key="55" pos="720" pan="0" len="12" vol="50" />
          <note key="53" pos="732" pan="0" len="12" vol="50" />
          <note key="55" pos="744" pan="0" len="12" vol="50" />
          <note key="60" pos="756" pan="0" len="12" vol="50" />
          <note key="58" pos="768" pan="0" len="12" vol="50" />
          <note key="60" pos="780" pan="0" len="12" vol="50" />
          <note key="55" pos="792" pan="0" len="12" vol="50" />
          <note key="53" pos="804" pan="0" len="12" vol="50" />
          <note key="55" pos="816" pan="0" len="12" vol="50" />
          <note key="60" pos="828" pan="0" len="12" vol="50" />
          <note key="58" pos="840" pan="0" len="12" vol="50" />
          <note key="60" pos="852" pan="0" len="12" vol="50" />
          <note key="55" pos="864" pan="0" len="12" vol="50" />
          <note key="53" pos="876" pan="0" len="12" vol="50" />
          <note key="55" pos="888" pan="0" len="12" vol="50" />
          <note key="65" pos="900" pan="0" len="12" vol="50" />
          <note key="63" pos="912" pan="0" len="12" vol="50" />
          <note key="65" pos="924" pan="0" len="12" vol="50" />
          <note key="60" pos="936" pan="0" len="12" vol="50" />
          <note key="58" pos="948" pan="0" len="12" vol="50" />
          <note key="60" pos="960" pan="0" len="12" vol="50" />
          <note key="65" pos="972" pan="0" len="12" vol="50" />
          <note key="63" pos="984" pan="0" len="12" vol="50" />
          <note key="65" pos="996" pan="0" len="12" vol="50" />
          <note key="60" pos="1008" pan="0" len="12" vol="50" />
          <note key="58" pos="1020" pan="0" len="12" vol="50" />
          <note key="60" pos="1032" pan="0" len="12" vol="50" />
          <note key="65" pos="1044" pan="0" len="12" vol="50" />
          <note key="63" pos="1056" pan="0" len="12" vol="50" />
          <note key="65" pos="1068" pan="0" len="12" vol="50" />
          <note key="60" pos="1080" pan="0" len="12" vol="50" />
          <note key="58" pos="1092" pan="0" len="12" vol="50" />
          <note key="60" pos="1104" pan="0" len="12" vol="50" />
          <note key="65" pos="1116" pan="0" len="12" vol="50" />
          <note key="63" pos="1128" pan="0" len="12" vol="50" />
          <note key="65" pos="1140" pan="0" len="12" vol="50" />
        </pattern>
        <pattern pos="48000" muted="0" steps="16" name="" type="1">
          <note key="60" pos="36" pan="0" len="12" vol="50" />
          <note key="58" pos="48" pan="0" len="12" vol="50" />
          <note key="60" pos="60" pan="0" len="12" vol="50" />
          <note key="55" pos="72" pan="0" len="12" vol="50" />
          <note key="53" pos="84" pan="0" len="12" vol="50" />
          <note key="55" pos="96" pan="0" len="12" vol="50" />
          <note key="60" pos="108" pan="0" len="12" vol="50" />
          <note key="58" pos="120" pan="0" len="12" vol="50" />
          <note key="60" pos="132" pan="0" len="12" vol="50" />
          <note key="55" pos="144" pan="0" len="12" vol="50" />
          <note key="53" pos="156" pan="0" len="12" vol="50" />
          <note key="55" pos="168" pan="0" len="12" vol="50" />
          <note key="60" pos="180" pan="0" len="12" vol="50" />
          <note key="58" pos="192" pan="0" len="12" vol="50" />
          <note key="60" pos="204" pan="0" len="12" vol="50" />
          <note key="55" pos="216" pan="0" len="12" vol="50" />
          <note key="53" pos="228" pan="0" len="12" vol="50" />
          <note key="55" pos="240" pan="0" len="12" vol="50" />
          <note key="60" pos="252" pan="0" len="12" vol="50" />
          <note key="58" pos="264" pan="0" len="12" vol="50" />
          <note key="60" pos="276" pan="0" len="12" vol="50" />
          <note key="55" pos="288" pan="0" len="12" vol="50" />
          <note key="53" pos="300" pan="0" len="12" vol="50" />
          <note key="55" pos="312" pan="0" len="12" vol="50" />
          <note key="65" pos="324" pan="0" len="12" vol="50" />
          <note key="63" pos="336" pan="0" len="12" vol="50" />
          <note key="65" pos="348" pan="0" len="12" vol="50" />
          <note key="60" pos="360" pan="0" len="12" vol="50" />
          <note key="58" pos="372" pan="0" len="12" vol="50" />
          <note key="60" pos="384" pan="0" len="12" vol="50" />
          <note key="65" pos="396" pan="0" len="12" vol="50" />
          <note key="63" pos="408" pan="0" len="12" vol="50" />
          <note key="65" pos="420" pan="0" len="12" vol="50" />
          <note key="60" pos="432" pan="0" len="12" vol="50" />
          <note key="58" pos="444" pan="0" len="12" vol="50" />
          <note key="60" pos="456" pan="0" len="12" vol="50" />
          <note key="65" pos="468" pan="0" len="12" vol="50" />
          <note key="63" pos="480" pan="0" len="12" vol="50" />
          <note key="65" pos="492" pan="0" len="12" vol="50" />
          <note key="60" pos="504" pan="0" len="12" vol="50" />
          <note key="58" pos="516" pan="0" len="12" vol="50" />
          <note key="60" pos="528" pan="0" len="12" vol="50" />
          <note key="65" pos="540" pan="0" len="12" vol="50" />
          <note key="63" pos="552" pan="0" len="12" vol="50" />
          <note key="65" pos="564" pan="0" len="12" vol="50" />
          <note key="60" pos="576" pan="0" len="12" vol="50" />
          <note key="58" pos="588" pan="0" len="12" vol="50" />
          <note key="60" pos="600" pan="0" len="12" vol="50" />
          <note key="60" pos="612" pan="0" len="12" vol="50" />
          <note key="58" pos="624" pan="0" len="12" vol="50" />
          <note key="60" pos="636" pan="0" len="12" vol="50" />
          <note key="55" pos="648" pan="0" len="12" vol="50" />
          <note key="53" pos="660" pan="0" len="12" vol="50" />
          <note key="55" pos="672" pan="0" len="12" vol="50" />
          <note key="60" pos="684" pan="0" len="12" vol="50" />
          <note key="58" pos="696" pan="0" len="12" vol="50" />
          <note key="60" pos="708" pan="0" len="12" vol="50" />
          <note key="55" pos="720" pan="0" len="12" vol="50" />
          <note key="53" pos="732" pan="0" len="12" vol="50" />
          <note key="55" pos="744" pan="0" len="12" vol="50" />
          <note key="60" pos="756" pan="0" len="12" vol="50" />
          <note key="58" pos="768" pan="0" len="12" vol="50" />
          <note key="60" pos="780" pan="0" len="12" vol="50" />
          <note key="55" pos="792" pan="0" len="12" vol="50" />
          <note key="53" pos="804" pan="0" len="12" vol="50" />
          <note key="55" pos="816" pan="0" len="12" vol="50" />
          <note key="60" pos="828" pan="0" len="12" vol="50" />
          <note key="58" pos="840" pan="0" len="12" vol="50" />
          <note key="60" pos="852" pan="0" len="12" vol="50" />
          <note key="55" pos="864" pan="0" len="12" vol="50" />
          <note key="53" pos="876" pan="0" len="12" vol="50" />
          <note key="55" pos="888" pan="0" len="12" vol="50" />
          <note key="65" pos="900" pan="0" len="12" vol="50" />
          <note key="63" pos="912" pan="0" len="12" vol="50" />
          <note key="65" pos="924" pan="0" len="12" vol="50" />
          <note key="60" pos="936" pan="0" len="12" vol="50" />
          <note key="58" pos="948" pan="0" len="12" vol="50" />
          <note key="60" pos="960" pan="0" len="12" vol="50" />
          <note key="65" pos="972" pan="0" len="12" vol="50" />
          <note key="63" pos="984" pan="0" len="12" vol="50" />
          <note key="65" pos="996" pan="0" len="12" vol="50" />
          <note key="60" pos="1008" pan="0" len="12" vol="50" />
          <note key="58" pos="1020" pan="0" len="12" vol="50" />
          <note key="60" pos="1032" pan="0" len="12" vol="50" />
          <note key="65" pos="1044" pan="0" len="12" vol="50" />
          <note key="63" pos="1056" pan="0" len="12" vol="50" />
          <note key="65" pos="1068" pan="0" len="12" vol="50" />
          <note key="60" pos="1080" pan="0" len="12" vol="50" />
          <note key="58" pos="1092" pan="0" len="12" vol="50" />
          <note key="60" pos="1104" pan="0" len="12" vol="50" />
          <note key="65" pos="1116" pan="0" len="12" vol="50" />
          <note key="63" pos="1128" pan="0" len="12" vol="50" />
          <note key="65" pos="1140" pan="0" len="12" vol="50" />
        </pattern>
        <pattern pos="49152" muted="0" steps="16" name="" type="1">
          <note key="60" pos="36" pan="0" len="12" vol="50" />
          <note key="58" pos="48" pan="0" len="12" vol="50" />
          <note key="60" pos="60" pan="0" len="12" vol="50" />
          <note key="55" pos="72" pan="0" len="12" vol="50" />
          <note key="53" pos="84" pan="0" len="12" vol="50" />
          <note key="55" pos="96" pan="0" len="12" vol="50" />
          <note key="60" pos="108" pan="0" len="12" vol="50" />
          <note key="58" pos="120" pan="0" len="12" vol="50" />
          <note key="60" pos="132" pan="0" len="12" vol="50" />
          <note key="55" pos="144" pan="0" len="12" vol="50" />
          <note key="53" pos="156" pan="0" len="12" vol="50" />
          <note key="55" pos="168" pan="0" len="12" vol="50" />
          <note key="60" pos="180" pan="0" len="12" vol="50" />
          <note key="58" pos="192" pan="0" len="12" vol="50" />
          <note key="60" pos="204" pan="0" len="12" vol="50" />
          <note key="55" pos="216" pan="0" len="12" vol="50" />
          <note key="53" pos="228" pan="0" len="12" vol="50" />
          <note key="55" pos="240" pan="0" len="12" vol="50" />
          <note key="60" pos="252" pan="0" len="12" vol="50" />
          <note key="58" pos="264" pan="0" len="12" vol="50" />
          <note key="60" pos="276" pan="0" len="12" vol="50" />
          <note key="55" pos="288" pan="0" len="12" vol="50" />
          <note key="53" pos="300" pan="0" len="12" vol="50" />
          <note key="55" pos="312" pan="0" len="12" vol="50" />
          <note key="65" pos="324" pan="0" len="12" vol="50" />
          <note key="63" pos="336" pan="0" len="12" vol="50" />
          <note key="65" pos="348" pan="0" len="12" vol="50" />
          <note key="60" pos="360" pan="0" len="12" vol="50" />
          <note key="58" pos="372" pan="0" len="12" vol="50" />
          <note key="60" pos="384" pan="0" len="12" vol="50" />
          <note key="65" pos="396" pan="0" len="12" vol="50" />
          <note key="63" pos="408" pan="0" len="12" vol="50" />
          <note key="65" pos="420" pan="0" len="12" vol="50" />
          <note key="60" pos="432" pan="0" len="12" vol="50" />
          <note key="58" pos="444" pan="0" len="12" vol="50" />
          <note key="60" pos="456" pan="0" len="12" vol="50" />
          <note key="65" pos="468" pan="0" len="12" vol="50" />
          <note key="63" pos="480" pan="0" len="12" vol="50" />
          <note key="65" pos="492" pan="0" len="12" vol="50" />
          <note key="60" pos="504" pan="0" len="12" vol="50" />
          <note key="58" pos="516" pan="0" len="12" vol="50" />
          <note key="60" pos="528" pan="0" len="12" vol="50" />
          <note key="65" pos="540" pan="0" len="12" vol="50" />
          <note key="63" pos="552" pan="0" len="12" vol="50" />
          <note key="65" pos="564" pan="0" len="12" vol="50" />
          <note key="60" pos="576" pan="0" len="12" vol="50" />
          <note key="58" pos="588" pan="0" len="12" vol="50" />
          <note key="60" pos="600" pan="0" len="12" vol="50" />
          <note key="60" pos="612" pan="0" len="12" vol="50" />
          <note key="58" pos="624" pan="0" len="12" vol="50" />
          <note key="60" pos="636" pan="0" len="12" vol="50" />
          <note key="55" pos="648" pan="0" len="12" vol="50" />
          <note key="53" pos="660" pan="0" len="12" vol="50" />
          <note key="55" pos="672" pan="0" len="12" vol="50" />
          <note key="60" pos="684" pan="0" len="12" vol="50" />
          <note key="58" pos="696" pan="0" len="12" vol="50" />
          <note key="60" pos="708" pan="0" len="12" vol="50" />
          <note key="55" pos="720" pan="0" len="12" vol="50" />
          <note key="53" pos="732" pan="0" len="12" vol="50" />
          <note key="55" pos="744" pan="0" len="12" vol="50" />
          <note key="60" pos="756" pan="0" len="12" vol="50" />
          <note key="58" pos="768" pan="0" len="12" vol="50" />
          <note key="60" pos="780" pan="0" len="12" vol="50" />
          <note key="55" pos="792" pan="0" len="12" vol="50" />
          <note key="53" pos="804" pan="0" len="12" vol="50" />
          <note key="55" pos="816" pan="0" len="12" vol="50" />
          <note key="60" pos="828" pan="0" len="12" vol="50" />
          <note key="58" pos="840" pan="0" len="12" vol="50" />
          <note key="60" pos="852" pan="0" len="12" vol="50" />
          <note key="55" pos="864" pan="0" len="12" vol="50" />
          <note key="53" pos="876" pan="0" len="12" vol="50" />
          <note key="55" pos="888" pan="0" len="12" vol="50" />
          <note key="65" pos="900" pan="0" len="12" vol="50" />
          <note key="63" pos="912" pan="0" len="12" vol="50" />
          <note key="65" pos="924" pan="0" len="12" vol="50" />
          <note key="60" pos="936" pan="0" len="12" vol="50" />
          <note key="58" pos="948" pan="0" len="12" vol="50" />
          <note key="60" pos="960" pan="0" len="12" vol="50" />
          <note key="65" pos="972" pan="0" len="12" vol="50" />
          <note key="63" pos="984" pan="0" len="12" vol="50" />
          <note key="65" pos="996" pan="0" len="12" vol="50" />
          <note key="60" pos="1008" pan="0" len="12" vol="50" />
          <note key="58" pos="1020" pan="0" len="12" vol="50" />
          <note key="60" pos="1032" pan="0" len="12" vol="50" />
          <note key="65" pos="1044" pan="0" len="12" vol="50" />
          <note key="63" pos="1056" pan="0" len="12" vol="50" />
          <note key="65" pos="1068" pan="0" len="12" vol="50" />
          <note key="60" pos="1080" pan="0" len="12" vol="50" />
          <note key="58" pos="1092" pan="0" len="12" vol="50" />
          <note key="60" pos="1104" pan="0" len="12" vol="50" />
          <note key="65" pos="1116" pan="0" len="12" vol="50" />
          <note key="63" pos="1128" pan="0" len="12" vol="50" />
          <note key="65" pos="1140" pan="0" len="12" vol="50" />
        </pattern>
        <pattern pos="50304" muted="0" steps="16" name="" type="1">
          <note key="60" pos="36" pan="0" len="12" vol="50" />
          <note key="58" pos="48" pan="0" len="12" vol="50" />
          <note key="60" pos="60" pan="0" len="12" vol="50" />
          <note key="55" pos="72" pan="0" len="12" vol="50" />
          <note key="53" pos="84" pan="0" len="12" vol="50" />
          <note key="55" pos="96" pan="0" len="12" vol="50" />
          <note key="60" pos="108" pan="0" len="12" vol="50" />
          <note key="58" pos="120" pan="0" len="12" vol="50" />
          <note key="60" pos="132" pan="0" len="12" vol="50" />
          <note key="55" pos="144" pan="0" len="12" vol="50" />
          <note key="53" pos="156" pan="0" len="12" vol="50" />
          <note key="55" pos="168" pan="0" len="12" vol="50" />
          <note key="60" pos="180" pan="0" len="12" vol="50" />
          <note key="58" pos="192" pan="0" len="12" vol="50" />
          <note key="60" pos="204" pan="0" len="12" vol="50" />
          <note key="55" pos="216" pan="0" len="12" vol="50" />
          <note key="53" pos="228" pan="0" len="12" vol="50" />
          <note key="55" pos="240" pan="0" len="12" vol="50" />
          <note key="60" pos="252" pan="0" len="12" vol="50" />
          <note key="58" pos="264" pan="0" len="12" vol="50" />
          <note key="60" pos="276" pan="0" len="12" vol="50" />
          <note key="55" pos="288" pan="0" len="12" vol="50" />
          <note key="53" pos="300" pan="0" len="12" vol="50" />
          <note key="55" pos="312" pan="0" len="12" vol="50" />
          <note key="65" pos="324" pan="0" len="12" vol="50" />
          <note key="63" pos="336" pan="0" len="12" vol="50" />
          <note key="65" pos="348" pan="0" len="12" vol="50" />
          <note key="60" pos="360" pan="0" len="12" vol="50" />
          <note key="58" pos="372" pan="0" len="12" vol="50" />
          <note key="60" pos="384" pan="0" len="12" vol="50" />
          <note key="65" pos="396" pan="0" len="12" vol="50" />
          <note key="63" pos="408" pan="0" len="12" vol="50" />
          <note key="65" pos="420" pan="0" len="12" vol="50" />
          <note key="60" pos="432" pan="0" len="12" vol="50" />
          <note key="58" pos="444" pan="0" len="12" vol="50" />
          <note key="60" pos="456" pan="0" len="12" vol="50" />
          <note key="65" pos="468" pan="0" len="12" vol="50" />
          <note key="63" pos="480" pan="0" len="12" vol="50" />
          <note key="65" pos="492" pan="0" len="12" vol="50" />
          <note key="60" pos="504" pan="0" len="12" vol="50" />
          <note key="58" pos="516" pan="0" len="12" vol="50" />
          <note key="60" pos="528" pan="0" len="12" vol="50" />
          <note key="65" pos="540" pan="0" len="12" vol="50" />
          <note key="63" pos="552" pan="0" len="12" vol="50" />
          <note key="65" pos="564" pan="0" len="12" vol="50" />
          <note key="60" pos="576" pan="0" len="12" vol="50" />
          <note key="58" pos="588" pan="0" len="12" vol="50" />
          <note key="60" pos="600" pan="0" len="12" vol="50" />
          <note key="60" pos="612" pan="0" len="12" vol="50" />
          <note key="58" pos="624" pan="0" len="12" vol="50" />
          <note key="60" pos="636" pan="0" len="12" vol="50" />
          <note key="55" pos="648" pan="0" len="12" vol="50" />
          <note key="53" pos="660" pan="0" len="12" vol="50" />
          <note key="55" pos="672" pan="0" len="12" vol="50" />
          <note key="60" pos="684" pan="0" len="12" vol="50" />
          <note key="58" pos="696" pan="0" len="12" vol="50" />
          <note key="60" pos="708" pan="0" len="12" vol="50" />
          <note key="55" pos="720" pan="0" len="12" vol="50" />
          <note key="53" pos="732" pan="0" len="12" vol="50" />
          <note key="55" pos="744" pan="0" len="12" vol="50" />
          <note key="60" pos="756" pan="0" len="12" vol="50" />
          <note key="58" pos="768" pan="0" len="12" vol="50" />
          <note key="60" pos="780" pan="0" len="12" vol="50" />
          <note key="55" pos="792" pan="0" len="12" vol="50" />
          <note key="53" pos="804" pan="0" len="12" vol="50" />
          <note key="55" pos="816" pan="0" len="12" vol="50" />
          <note key="60" pos="828" pan="0" len="12" vol="50" />
          <note key="58" pos="840" pan="0" len="12" vol="50" />
          <note key="60" pos="852" pan="0" len="12" vol="50" />
          <note key="55" pos="864" pan="0" len="12" vol="50" />
          <note key="53" pos="876" pan="0" len="12" vol="50" />
          <note key="55" pos="888" pan="0" len="12" vol="50" />
          <note key="65" pos="900" pan="0" len="12" vol="50" />
          <note key="63" pos="912" pan="0" len="12" vol="50" />
          <note key="65" pos="924" pan="0" len="12" vol="50" />
          <note key="60" pos="936" pan="0" len="12" vol="50" />
          <note key="58" pos="948" pan="0" len="12" vol="50" />
          <note key="60" pos="960" pan="0" len="12" vol="50" />
          <note key="65" pos="972" pan="0" len="12" vol="50" />
          <note key="63" pos="984" pan="0" len="12" vol="50" />
          <note key="65" pos="996" pan="0" len="12" vol="50" />
          <note key="60" pos="1008" pan="0" len="12" vol="50" />
          <note key="58" pos="1020" pan="0" len="12" vol="50" />
          <note key="60" pos="1032" pan="0" len="12" vol="50" />
          <note key="65" pos="1044" pan="0" len="12" vol="50" />
          <note key="63" pos="1056" pan="0" len="12" vol="50" />
          <note key="65" pos="1068" pan="0" len="12" vol="50" />
          <note key="60" pos="1080" pan="0" len="12" vol="50" />
          <note key="58" pos="1092" pan="0" len="12" vol="50" />
          <note key="60" pos="1104" pan="0" len="12" vol="50" />
          <note key="65" pos="1116" pan="0" len="12" vol="50" />
          <note key="63" pos="1128" pan="0" len="12" vol="50" />
          <note key="65" pos="1140" pan="0" len="12" vol="50" />
        </pattern>
      </track>
      <track solo="0" name="63 (Ch11)" type="0" muted="0">
        <instrumenttrack usemasterpitch="1" pitch="0.0" basenote="57" pan="0" pitchrange="12" vol="30">
          <eldata />
          <instrument name="tripleoscillator" />
        </instrumenttrack>
        <pattern pos="182400" muted="0" steps="16" name="" type="1">
          <note key="76" pos="0" pan="0" len="144" vol="50" />
          <note key="74" pos="144" pan="0" len="144" vol="52" />
          <note key="72" pos="288" pan="0" len="144" vol="52" />
          <note key="71" pos="432" pan="0" len="144" vol="52" />
          <note key="76" pos="576" pan="0" len="144" vol="52" />
          <note key="79" pos="720" pan="0" len="144" vol="52" />
          <note key="81" pos="864" pan="0" len="144" vol="52" />
          <note key="78" pos="1008" pan="0" len="72" vol="52" />
          <note key="74" pos="1080" pan="0" len="72" vol="52" />
        </pattern>
      </track>
      <track solo="0" name="63 (Ch14)" type="0" muted="0">
        <instrumenttrack usemasterpitch="1" pitch="0.0" basenote="57" pan="0" pitchrange="12" vol="30">
          <eldata />
          <instrument name="tripleoscillator" />
        </instrumenttrack>
        <pattern pos="112128" muted="0" steps="16" name="" type="1">
          <note key="80" pos="288" pan="0" len="96" vol="100" />
          <note key="72" pos="384" pan="0" len="192" vol="100" />
          <note key="75" pos="672" pan="0" len="96" vol="100" />
          <note key="77" pos="768" pan="0" len="192" vol="100" />
          <note key="75" pos="960" pan="0" len="192" vol="100" />
          <note key="77" pos="1152" pan="0" len="96" vol="100" />
        </pattern>
        <pattern pos="98304" muted="0" steps="16" name="" type="1">
          <note key="60" pos="0" pan="0" len="336" vol="100" />
          <note key="63" pos="336" pan="0" len="24" vol="100" />
          <note key="62" pos="360" pan="0" len="24" vol="100" />
          <note key="63" pos="384" pan="0" len="384" vol="100" />
          <note key="65" pos="768" pan="0" len="384" vol="100" />
          <note key="65" pos="1152" pan="0" len="12" vol="100" />
          <note key="67" pos="1164" pan="0" len="372" vol="100" />
        </pattern>
        <pattern pos="99840" muted="0" steps="16" name="" type="1">
          <note key="70" pos="0" pan="0" len="24" vol="100" />
          <note key="72" pos="24" pan="0" len="552" vol="100" />
          <note key="63" pos="672" pan="0" len="96" vol="100" />
          <note key="63" pos="768" pan="0" len="12" vol="100" />
          <note key="65" pos="780" pan="0" len="372" vol="100" />
          <note key="70" pos="1152" pan="0" len="96" vol="100" />
          <note key="72" pos="1248" pan="0" len="288" vol="100" />
        </pattern>
        <pattern pos="101376" muted="0" steps="16" name="" type="1">
          <note key="74" pos="0" pan="0" len="384" vol="100" />
          <note key="77" pos="384" pan="0" len="192" vol="100" />
          <note key="69" pos="576" pan="0" len="192" vol="100" />
          <note key="74" pos="768" pan="0" len="384" vol="100" />
          <note key="72" pos="1152" pan="0" len="384" vol="100" />
        </pattern>
        <pattern pos="102912" muted="0" steps="16" name="" type="1">
          <note key="69" pos="0" pan="0" len="576" vol="100" />
          <note key="74" pos="576" pan="0" len="192" vol="100" />
          <note key="67" pos="768" pan="0" len="384" vol="100" />
          <note key="72" pos="1152" pan="0" len="384" vol="100" />
        </pattern>
        <pattern pos="104448" muted="0" steps="16" name="" type="1">
          <note key="74" pos="0" pan="0" len="96" vol="100" />
        </pattern>
        <pattern pos="110592" muted="0" steps="16" name="" type="1">
          <note key="77" pos="1440" pan="0" len="96" vol="100" />
        </pattern>
      </track>
      <track solo="0" name="64 (Ch3)" type="0" muted="0">
        <instrumenttrack usemasterpitch="1" pitch="0.0" basenote="57" pan="0" pitchrange="12" vol="30">
          <eldata />
          <instrument name="tripleoscillator" />
        </instrumenttrack>
        <pattern pos="215040" muted="0" steps="16" name="" type="1">
          <note key="60" pos="1152" pan="0" len="384" vol="2" />
        </pattern>
        <pattern pos="43392" muted="0" steps="16" name="" type="1">
          <note key="72" pos="0" pan="0" len="288" vol="100" />
          <note key="75" pos="288" pan="0" len="288" vol="100" />
          <note key="77" pos="576" pan="0" len="288" vol="100" />
          <note key="75" pos="864" pan="0" len="240" vol="100" />
        </pattern>
        <pattern pos="49152" muted="0" steps="16" name="" type="1">
          <note key="72" pos="0" pan="0" len="288" vol="100" />
          <note key="75" pos="288" pan="0" len="288" vol="100" />
          <note key="77" pos="576" pan="0" len="288" vol="100" />
          <note key="75" pos="864" pan="0" len="240" vol="100" />
        </pattern>
      </track>
      <track solo="0" name="64 (Ch6)" type="0" muted="0">
        <instrumenttrack usemasterpitch="1" pitch="0.0" basenote="57" pan="0" pitchrange="12" vol="30">
          <eldata />
          <instrument name="tripleoscillator" />
        </instrumenttrack>
        <pattern pos="53760" muted="0" steps="16" name="" type="1">
          <note key="60" pos="0" pan="0" len="1440" vol="100" />
        </pattern>
      </track>
      <track solo="0" name="64 (Ch7)" type="0" muted="0">
        <instrumenttrack usemasterpitch="1" pitch="0.0" basenote="57" pan="0" pitchrange="12" vol="30">
          <eldata />
          <instrument name="tripleoscillator" />
        </instrumenttrack>
        <pattern pos="53760" muted="0" steps="16" name="" type="1">
          <note key="72" pos="0" pan="0" len="1440" vol="100" />
        </pattern>
      </track>
      <track solo="0" name="64 (Ch8)" type="0" muted="0">
        <instrumenttrack usemasterpitch="1" pitch="0.0" basenote="57" pan="0" pitchrange="12" vol="30">
          <eldata />
          <instrument name="tripleoscillator" />
        </instrumenttrack>
        <pattern pos="0" muted="0" steps="16" name="" type="1">
          <note key="60" pos="0" pan="0" len="768" vol="100" />
        </pattern>
      </track>
      <track solo="0" name="64 (Ch9)" type="0" muted="0">
        <instrumenttrack usemasterpitch="1" pitch="0.0" basenote="57" pan="0" pitchrange="12" vol="30">
          <eldata />
          <instrument name="tripleoscillator" />
        </instrumenttrack>
        <pattern pos="138240" muted="0" steps="16" name="" type="1">
          <note key="60" pos="0" pan="0" len="768" vol="100" />
        </pattern>
        <pattern pos="136704" muted="0" steps="16" name="" type="1">
          <note key="60" pos="768" pan="0" len="768" vol="2" />
        </pattern>
      </track>
      <track solo="0" name="64 (Ch11)" type="0" muted="0">
        <instrumenttrack usemasterpitch="1" pitch="0.0" basenote="57" pan="0" pitchrange="12" vol="30">
          <eldata />
          <instrument name="tripleoscillator" />
        </instrumenttrack>
        <pattern pos="139776" muted="0" steps="16" name="" type="1">
          <note key="60" pos="48" pan="0" len="192" vol="100" />
          <note key="65" pos="240" pan="0" len="192" vol="100" />
          <note key="63" pos="432" pan="0" len="192" vol="100" />
          <note key="65" pos="624" pan="0" len="96" vol="100" />
        </pattern>
        <pattern pos="768" muted="0" steps="16" name="" type="1">
          <note key="65" pos="0" pan="0" len="768" vol="34" />
        </pattern>
        <pattern pos="1536" muted="0" steps="16" name="" type="1">
          <note key="65" pos="0" pan="0" len="768" vol="34" />
        </pattern>
      </track>
      <track solo="0" name="64 (Ch12)" type="0" muted="0">
        <instrumenttrack usemasterpitch="1" pitch="0.0" basenote="57" pan="0" pitchrange="12" vol="30">
          <eldata />
          <instrument name="tripleoscillator" />
        </instrumenttrack>
        <pattern pos="1536" muted="0" steps="16" name="" type="1">
          <note key="72" pos="0" pan="0" len="768" vol="52" />
        </pattern>
        <pattern pos="768" muted="0" steps="16" name="" type="1">
          <note key="72" pos="0" pan="0" len="768" vol="52" />
        </pattern>
      </track>
      <track solo="0" name="64 (Ch13)" type="0" muted="0">
        <instrumenttrack usemasterpitch="1" pitch="0.0" basenote="57" pan="0" pitchrange="12" vol="30">
          <eldata />
          <instrument name="tripleoscillator" />
        </instrumenttrack>
        <pattern pos="141312" muted="0" steps="16" name="" type="1">
          <note key="60" pos="0" pan="0" len="768" vol="86" />
        </pattern>
      </track>
      <track solo="0" name="65 (Ch1)" type="0" muted="0">
        <instrumenttrack usemasterpitch="1" pitch="0.0" basenote="57" pan="0" pitchrange="12" vol="30">
          <eldata />
          <instrument name="tripleoscillator" />
        </instrumenttrack>
        <pattern pos="17664" muted="0" steps="16" name="" type="1">
          <note key="60" pos="0" pan="0" len="768" vol="100" />
        </pattern>
      </track>
      <track solo="0" name="65 (Ch4)" type="0" muted="0">
        <instrumenttrack usemasterpitch="1" pitch="0.0" basenote="57" pan="0" pitchrange="12" vol="30">
          <eldata />
          <instrument name="tripleoscillator" />
        </instrumenttrack>
        <pattern pos="267648" muted="0" steps="16" name="" type="1">
          <note key="60" pos="1392" pan="0" len="144" vol="100" />
        </pattern>
        <pattern pos="16128" muted="0" steps="16" name="" type="1">
          <note key="48" pos="1488" pan="0" len="48" vol="100" />
        </pattern>
        <pattern pos="17664" muted="0" steps="16" name="" type="1">
          <note key="48" pos="0" pan="0" len="1536" vol="100" />
        </pattern>
        <pattern pos="64512" muted="0" steps="16" name="" type="1">
          <note key="60" pos="0" pan="0" len="348" vol="100" />
        </pattern>
        <pattern pos="66048" muted="0" steps="16" name="" type="1">
          <note key="60" pos="0" pan="0" len="348" vol="100" />
        </pattern>
        <pattern pos="73728" muted="0" steps="16" name="" type="1">
          <note key="60" pos="0" pan="0" len="348" vol="100" />
        </pattern>
        <pattern pos="75264" muted="0" steps="16" name="" type="1">
          <note key="60" pos="0" pan="0" len="348" vol="100" />
        </pattern>
      </track>
      <track solo="0" name="65 (Ch5)" type="0" muted="0">
        <instrumenttrack usemasterpitch="1" pitch="0.0" basenote="57" pan="0" pitchrange="12" vol="30">
          <eldata />
          <instrument name="tripleoscillator" />
        </instrumenttrack>
        <pattern pos="267648" muted="0" steps="16" name="" type="1">
          <note key="55" pos="1464" pan="0" len="72" vol="100" />
        </pattern>
        <pattern pos="19200" muted="0" steps="16" name="" type="1">
          <note key="36" pos="0" pan="0" len="1536" vol="34" />
        </pattern>
        <pattern pos="104448" muted="0" steps="16" name="" type="1">
          <note key="36" pos="720" pan="0" len="24" vol="100" />
          <note key="36" pos="744" pan="0" len="24" vol="100" />
          <note key="36" pos="768" pan="0" len="72" vol="100" />
          <note key="36" pos="840" pan="0" len="72" vol="100" />
          <note key="36" pos="912" pan="0" len="48" vol="100" />
          <note key="36" pos="960" pan="0" len="96" vol="100" />
        </pattern>
        <pattern pos="135168" muted="0" steps="16" name="" type="1">
          <note key="48" pos="0" pan="0" len="1536" vol="100" />
        </pattern>
        <pattern pos="240000" muted="0" steps="16" name="" type="1">
          <note key="72" pos="0" pan="0" len="1536" vol="100" />
        </pattern>
        <pattern pos="244608" muted="0" steps="16" name="" type="1">
          <note key="60" pos="0" pan="0" len="1536" vol="100" />
        </pattern>
        <pattern pos="247680" muted="0" steps="16" name="" type="1">
          <note key="72" pos="0" pan="0" len="1536" vol="100" />
        </pattern>
        <pattern pos="252288" muted="0" steps="16" name="" type="1">
          <note key="60" pos="0" pan="0" len="1536" vol="100" />
        </pattern>
      </track>
      <track solo="0" name="65 (Ch6)" type="0" muted="0">
        <instrumenttrack usemasterpitch="1" pitch="0.0" basenote="57" pan="0" pitchrange="12" vol="30">
          <eldata />
          <instrument name="tripleoscillator" />
        </instrumenttrack>
        <pattern pos="247680" muted="0" steps="16" name="" type="1">
          <note key="84" pos="0" pan="0" len="1536" vol="100" />
        </pattern>
        <pattern pos="104448" muted="0" steps="16" name="" type="1">
          <note key="48" pos="384" pan="0" len="384" vol="100" />
        </pattern>
        <pattern pos="135168" muted="0" steps="16" name="" type="1">
          <note key="53" pos="0" pan="0" len="1536" vol="100" />
        </pattern>
        <pattern pos="240000" muted="0" steps="16" name="" type="1">
          <note key="84" pos="0" pan="0" len="1536" vol="100" />
        </pattern>
        <pattern pos="244608" muted="0" steps="16" name="" type="1">
          <note key="72" pos="0" pan="0" len="1536" vol="100" />
        </pattern>
      </track>
      <track solo="0" name="65 (Ch7)" type="0" muted="0">
        <instrumenttrack usemasterpitch="1" pitch="0.0" basenote="57" pan="0" pitchrange="12" vol="30">
          <eldata />
          <instrument name="tripleoscillator" />
        </instrumenttrack>
        <pattern pos="104448" muted="0" steps="16" name="" type="1">
          <note key="55" pos="384" pan="0" len="336" vol="100" />
        </pattern>
      </track>
      <track solo="0" name="65 (Ch8)" type="0" muted="0">
        <instrumenttrack usemasterpitch="1" pitch="0.0" basenote="57" pan="0" pitchrange="12" vol="30">
          <eldata />
          <instrument name="tripleoscillator" />
        </instrumenttrack>
        <pattern pos="104448" muted="0" steps="16" name="" type="1">
          <note key="50" pos="0" pan="0" len="1440" vol="100" />
        </pattern>
      </track>
      <track solo="0" name="65 (Ch13)" type="0" muted="0">
        <instrumenttrack usemasterpitch="1" pitch="0.0" basenote="57" pan="0" pitchrange="12" vol="30">
          <eldata />
          <instrument name="tripleoscillator" />
        </instrumenttrack>
        <pattern pos="252288" muted="0" steps="16" name="" type="1">
          <note key="72" pos="0" pan="0" len="192" vol="100" />
        </pattern>
      </track>
      <track solo="0" name="65 (Ch14)" type="0" muted="0">
        <instrumenttrack usemasterpitch="1" pitch="0.0" basenote="57" pan="0" pitchrange="12" vol="30">
          <eldata />
          <instrument name="tripleoscillator" />
        </instrumenttrack>
        <pattern pos="175104" muted="0" steps="16" name="" type="1">
          <note key="84" pos="0" pan="0" len="1536" vol="100" />
        </pattern>
      </track>
      <track solo="0" name="66 (Ch1)" type="0" muted="0">
        <instrumenttrack usemasterpitch="1" pitch="0.0" basenote="57" pan="0" pitchrange="12" vol="30">
          <eldata />
          <instrument name="tripleoscillator" />
        </instrumenttrack>
        <pattern pos="162816" muted="0" steps="16" name="" type="1">
          <note key="79" pos="768" pan="0" len="24" vol="100" />
          <note key="82" pos="816" pan="0" len="24" vol="100" />
          <note key="84" pos="864" pan="0" len="48" vol="100" />
          <note key="82" pos="936" pan="0" len="24" vol="100" />
          <note key="84" pos="984" pan="0" len="24" vol="100" />
          <note key="82" pos="1032" pan="0" len="24" vol="100" />
          <note key="84" pos="1056" pan="0" len="24" vol="100" />
          <note key="82" pos="1104" pan="0" len="24" vol="100" />
          <note key="77" pos="1152" pan="0" len="96" vol="100" />
          <note key="79" pos="1296" pan="0" len="24" vol="100" />
          <note key="72" pos="1320" pan="0" len="72" vol="100" />
        </pattern>
      </track>
      <track solo="0" name="66 (Ch2)" type="0" muted="0">
        <instrumenttrack usemasterpitch="1" pitch="0.0" basenote="57" pan="0" pitchrange="12" vol="30">
          <eldata />
          <instrument name="tripleoscillator" />
        </instrumenttrack>
        <pattern pos="235200" muted="0" steps="16" name="" type="1">
          <note key="62" pos="0" pan="0" len="192" vol="69" />
          <note key="62" pos="192" pan="0" len="192" vol="69" />
          <note key="62" pos="384" pan="0" len="192" vol="69" />
          <note key="62" pos="576" pan="0" len="120" vol="69" />
          <note key="60" pos="696" pan="0" len="72" vol="50" />
          <note key="62" pos="768" pan="0" len="192" vol="69" />
          <note key="62" pos="960" pan="0" len="192" vol="69" />
          <note key="62" pos="1152" pan="0" len="192" vol="69" />
          <note key="62" pos="1344" pan="0" len="120" vol="69" />
          <note key="60" pos="1464" pan="0" len="72" vol="50" />
        </pattern>
        <pattern pos="216768" muted="0" steps="16" name="" type="1">
          <note key="62" pos="0" pan="0" len="192" vol="69" />
          <note key="62" pos="192" pan="0" len="192" vol="69" />
          <note key="62" pos="384" pan="0" len="192" vol="69" />
          <note key="62" pos="576" pan="0" len="120" vol="69" />
          <note key="60" pos="696" pan="0" len="72" vol="50" />
          <note key="62" pos="768" pan="0" len="192" vol="69" />
          <note key="62" pos="960" pan="0" len="192" vol="69" />
          <note key="62" pos="1152" pan="0" len="192" vol="69" />
          <note key="62" pos="1344" pan="0" len="120" vol="69" />
          <note key="60" pos="1464" pan="0" len="72" vol="50" />
        </pattern>
        <pattern pos="218304" muted="0" steps="16" name="" type="1">
          <note key="62" pos="0" pan="0" len="192" vol="69" />
          <note key="62" pos="192" pan="0" len="192" vol="69" />
          <note key="62" pos="384" pan="0" len="192" vol="69" />
          <note key="62" pos="576" pan="0" len="120" vol="69" />
          <note key="60" pos="696" pan="0" len="72" vol="50" />
          <note key="62" pos="768" pan="0" len="192" vol="69" />
          <note key="62" pos="960" pan="0" len="192" vol="69" />
          <note key="62" pos="1152" pan="0" len="192" vol="69" />
          <note key="62" pos="1344" pan="0" len="120" vol="69" />
          <note key="60" pos="1464" pan="0" len="72" vol="50" />
        </pattern>
        <pattern pos="219840" muted="0" steps="16" name="" type="1">
          <note key="62" pos="0" pan="0" len="192" vol="69" />
          <note key="62" pos="192" pan="0" len="192" vol="69" />
          <note key="62" pos="384" pan="0" len="192" vol="69" />
          <note key="62" pos="576" pan="0" len="120" vol="69" />
          <note key="60" pos="696" pan="0" len="72" vol="50" />
          <note key="62" pos="768" pan="0" len="192" vol="69" />
          <note key="62" pos="960" pan="0" len="192" vol="69" />
          <note key="62" pos="1152" pan="0" len="192" vol="69" />
          <note key="62" pos="1344" pan="0" len="120" vol="69" />
          <note key="60" pos="1464" pan="0" len="72" vol="50" />
        </pattern>
        <pattern pos="221376" muted="0" steps="16" name="" type="1">
          <note key="62" pos="0" pan="0" len="192" vol="69" />
          <note key="62" pos="192" pan="0" len="192" vol="69" />
          <note key="62" pos="384" pan="0" len="192" vol="69" />
          <note key="62" pos="576" pan="0" len="120" vol="69" />
          <note key="60" pos="696" pan="0" len="72" vol="50" />
          <note key="62" pos="768" pan="0" len="192" vol="69" />
          <note key="62" pos="960" pan="0" len="192" vol="69" />
          <note key="62" pos="1152" pan="0" len="192" vol="69" />
          <note key="62" pos="1344" pan="0" len="120" vol="69" />
          <note key="60" pos="1464" pan="0" len="72" vol="50" />
        </pattern>
        <pattern pos="222912" muted="0" steps="16" name="" type="1">
          <note key="62" pos="0" pan="0" len="192" vol="69" />
          <note key="62" pos="192" pan="0" len="192" vol="69" />
          <note key="62" pos="384" pan="0" len="192" vol="69" />
          <note key="62" pos="576" pan="0" len="120" vol="69" />
          <note key="60" pos="696" pan="0" len="72" vol="50" />
          <note key="62" pos="768" pan="0" len="192" vol="69" />
          <note key="62" pos="960" pan="0" len="192" vol="69" />
          <note key="62" pos="1152" pan="0" len="192" vol="69" />
          <note key="62" pos="1344" pan="0" len="120" vol="69" />
          <note key="60" pos="1464" pan="0" len="72" vol="50" />
        </pattern>
        <pattern pos="224448" muted="0" steps="16" name="" type="1">
          <note key="62" pos="0" pan="0" len="192" vol="69" />
          <note key="62" pos="192" pan="0" len="192" vol="69" />
          <note key="62" pos="384" pan="0" len="192" vol="69" />
          <note key="62" pos="576" pan="0" len="120" vol="69" />
          <note key="60" pos="696" pan="0" len="72" vol="50" />
          <note key="62" pos="768" pan="0" len="192" vol="69" />
          <note key="62" pos="960" pan="0" len="192" vol="69" />
          <note key="62" pos="1152" pan="0" len="192" vol="69" />
          <note key="62" pos="1344" pan="0" len="120" vol="69" />
          <note key="60" pos="1464" pan="0" len="72" vol="50" />
        </pattern>
        <pattern pos="225984" muted="0" steps="16" name="" type="1">
          <note key="62" pos="0" pan="0" len="192" vol="69" />
          <note key="62" pos="192" pan="0" len="192" vol="69" />
          <note key="62" pos="384" pan="0" len="192" vol="69" />
          <note key="62" pos="576" pan="0" len="120" vol="69" />
          <note key="60" pos="696" pan="0" len="72" vol="50" />
          <note key="62" pos="768" pan="0" len="192" vol="69" />
          <note key="62" pos="960" pan="0" len="192" vol="69" />
          <note key="62" pos="1152" pan="0" len="192" vol="69" />
          <note key="62" pos="1344" pan="0" len="120" vol="69" />
          <note key="60" pos="1464" pan="0" len="72" vol="50" />
        </pattern>
        <pattern pos="227520" muted="0" steps="16" name="" type="1">
          <note key="62" pos="0" pan="0" len="192" vol="69" />
          <note key="62" pos="192" pan="0" len="192" vol="69" />
          <note key="62" pos="384" pan="0" len="192" vol="69" />
          <note key="62" pos="576" pan="0" len="120" vol="69" />
          <note key="60" pos="696" pan="0" len="72" vol="50" />
          <note key="62" pos="768" pan="0" len="192" vol="69" />
          <note key="62" pos="960" pan="0" len="192" vol="69" />
          <note key="62" pos="1152" pan="0" len="192" vol="69" />
          <note key="62" pos="1344" pan="0" len="120" vol="69" />
          <note key="60" pos="1464" pan="0" len="72" vol="50" />
        </pattern>
        <pattern pos="229056" muted="0" steps="16" name="" type="1">
          <note key="62" pos="0" pan="0" len="192" vol="69" />
          <note key="62" pos="192" pan="0" len="192" vol="69" />
          <note key="62" pos="384" pan="0" len="192" vol="69" />
          <note key="62" pos="576" pan="0" len="120" vol="69" />
          <note key="60" pos="696" pan="0" len="72" vol="50" />
          <note key="62" pos="768" pan="0" len="192" vol="69" />
          <note key="62" pos="960" pan="0" len="192" vol="69" />
          <note key="62" pos="1152" pan="0" len="192" vol="69" />
          <note key="62" pos="1344" pan="0" len="120" vol="69" />
          <note key="60" pos="1464" pan="0" len="72" vol="50" />
        </pattern>
        <pattern pos="230592" muted="0" steps="16" name="" type="1">
          <note key="62" pos="0" pan="0" len="192" vol="69" />
          <note key="60" pos="192" pan="0" len="192" vol="69" />
          <note key="58" pos="384" pan="0" len="192" vol="69" />
          <note key="60" pos="576" pan="0" len="120" vol="69" />
          <note key="60" pos="696" pan="0" len="72" vol="50" />
          <note key="60" pos="768" pan="0" len="192" vol="69" />
          <note key="60" pos="960" pan="0" len="192" vol="69" />
          <note key="62" pos="1152" pan="0" len="192" vol="69" />
          <note key="65" pos="1344" pan="0" len="120" vol="69" />
          <note key="65" pos="1464" pan="0" len="72" vol="50" />
        </pattern>
        <pattern pos="232128" muted="0" steps="16" name="" type="1">
          <note key="62" pos="0" pan="0" len="192" vol="69" />
          <note key="60" pos="192" pan="0" len="192" vol="69" />
          <note key="58" pos="384" pan="0" len="192" vol="69" />
          <note key="60" pos="576" pan="0" len="120" vol="69" />
          <note key="60" pos="696" pan="0" len="72" vol="50" />
          <note key="60" pos="768" pan="0" len="192" vol="69" />
          <note key="60" pos="960" pan="0" len="192" vol="69" />
          <note key="58" pos="1152" pan="0" len="192" vol="69" />
          <note key="58" pos="1344" pan="0" len="192" vol="69" />
        </pattern>
        <pattern pos="233664" muted="0" steps="16" name="" type="1">
          <note key="62" pos="0" pan="0" len="192" vol="69" />
          <note key="62" pos="192" pan="0" len="192" vol="69" />
          <note key="62" pos="384" pan="0" len="192" vol="69" />
          <note key="62" pos="576" pan="0" len="120" vol="69" />
          <note key="60" pos="696" pan="0" len="72" vol="50" />
          <note key="62" pos="768" pan="0" len="192" vol="69" />
          <note key="62" pos="960" pan="0" len="192" vol="69" />
          <note key="62" pos="1152" pan="0" len="192" vol="69" />
          <note key="62" pos="1344" pan="0" len="120" vol="69" />
          <note key="60" pos="1464" pan="0" len="72" vol="50" />
        </pattern>
      </track>
      <track solo="0" name="66 (Ch3)" type="0" muted="0">
        <instrumenttrack usemasterpitch="1" pitch="0.0" basenote="57" pan="0" pitchrange="12" vol="30">
          <eldata />
          <instrument name="tripleoscillator" />
        </instrumenttrack>
        <pattern pos="267648" muted="0" steps="16" name="" type="1">
          <note key="75" pos="0" pan="0" len="192" vol="100" />
          <note key="68" pos="240" pan="0" len="48" vol="100" />
          <note key="70" pos="288" pan="0" len="48" vol="100" />
          <note key="75" pos="336" pan="0" len="48" vol="100" />
          <note key="77" pos="384" pan="0" len="72" vol="100" />
          <note key="74" pos="456" pan="0" len="24" vol="100" />
          <note key="70" pos="480" pan="0" len="240" vol="100" />
          <note key="70" pos="720" pan="0" len="12" vol="100" />
          <note key="72" pos="744" pan="0" len="12" vol="100" />
          <note key="75" pos="768" pan="0" len="312" vol="100" />
          <note key="77" pos="1080" pan="0" len="36" vol="100" />
          <note key="82" pos="1152" pan="0" len="96" vol="100" />
        </pattern>
        <pattern pos="216768" muted="0" steps="16" name="" type="1">
          <note key="67" pos="0" pan="0" len="192" vol="69" />
          <note key="67" pos="192" pan="0" len="192" vol="69" />
          <note key="67" pos="384" pan="0" len="192" vol="69" />
          <note key="67" pos="576" pan="0" len="120" vol="69" />
          <note key="65" pos="696" pan="0" len="72" vol="50" />
          <note key="67" pos="768" pan="0" len="192" vol="69" />
          <note key="67" pos="960" pan="0" len="192" vol="69" />
          <note key="67" pos="1152" pan="0" len="192" vol="69" />
          <note key="67" pos="1344" pan="0" len="120" vol="69" />
          <note key="65" pos="1464" pan="0" len="72" vol="50" />
        </pattern>
        <pattern pos="218304" muted="0" steps="16" name="" type="1">
          <note key="67" pos="0" pan="0" len="192" vol="69" />
          <note key="67" pos="192" pan="0" len="192" vol="69" />
          <note key="67" pos="384" pan="0" len="192" vol="69" />
          <note key="67" pos="576" pan="0" len="120" vol="69" />
          <note key="65" pos="696" pan="0" len="72" vol="50" />
          <note key="67" pos="768" pan="0" len="192" vol="69" />
          <note key="67" pos="960" pan="0" len="192" vol="69" />
          <note key="67" pos="1152" pan="0" len="192" vol="69" />
          <note key="67" pos="1344" pan="0" len="120" vol="69" />
          <note key="65" pos="1464" pan="0" len="72" vol="50" />
        </pattern>
        <pattern pos="219840" muted="0" steps="16" name="" type="1">
          <note key="67" pos="0" pan="0" len="192" vol="69" />
          <note key="67" pos="192" pan="0" len="192" vol="69" />
          <note key="67" pos="384" pan="0" len="192" vol="69" />
          <note key="67" pos="576" pan="0" len="120" vol="69" />
          <note key="65" pos="696" pan="0" len="72" vol="50" />
          <note key="67" pos="768" pan="0" len="192" vol="69" />
          <note key="67" pos="960" pan="0" len="192" vol="69" />
          <note key="67" pos="1152" pan="0" len="192" vol="69" />
          <note key="67" pos="1344" pan="0" len="120" vol="69" />
          <note key="65" pos="1464" pan="0" len="72" vol="50" />
        </pattern>
        <pattern pos="221376" muted="0" steps="16" name="" type="1">
          <note key="67" pos="0" pan="0" len="192" vol="69" />
          <note key="67" pos="192" pan="0" len="192" vol="69" />
          <note key="67" pos="384" pan="0" len="192" vol="69" />
          <note key="67" pos="576" pan="0" len="120" vol="69" />
          <note key="65" pos="696" pan="0" len="72" vol="50" />
          <note key="67" pos="768" pan="0" len="192" vol="69" />
          <note key="67" pos="960" pan="0" len="192" vol="69" />
          <note key="67" pos="1152" pan="0" len="192" vol="69" />
          <note key="67" pos="1344" pan="0" len="120" vol="69" />
          <note key="65" pos="1464" pan="0" len="72" vol="50" />
        </pattern>
        <pattern pos="222912" muted="0" steps="16" name="" type="1">
          <note key="67" pos="0" pan="0" len="192" vol="69" />
          <note key="67" pos="192" pan="0" len="192" vol="69" />
          <note key="67" pos="384" pan="0" len="192" vol="69" />
          <note key="67" pos="576" pan="0" len="120" vol="69" />
          <note key="65" pos="696" pan="0" len="72" vol="50" />
          <note key="67" pos="768" pan="0" len="192" vol="69" />
          <note key="67" pos="960" pan="0" len="192" vol="69" />
          <note key="67" pos="1152" pan="0" len="192" vol="69" />
          <note key="67" pos="1344" pan="0" len="120" vol="69" />
          <note key="65" pos="1464" pan="0" len="72" vol="50" />
        </pattern>
        <pattern pos="224448" muted="0" steps="16" name="" type="1">
          <note key="67" pos="0" pan="0" len="192" vol="69" />
          <note key="67" pos="192" pan="0" len="192" vol="69" />
          <note key="67" pos="384" pan="0" len="192" vol="69" />
          <note key="67" pos="576" pan="0" len="120" vol="69" />
          <note key="65" pos="696" pan="0" len="72" vol="50" />
          <note key="67" pos="768" pan="0" len="192" vol="69" />
          <note key="67" pos="960" pan="0" len="192" vol="69" />
          <note key="67" pos="1152" pan="0" len="192" vol="69" />
          <note key="67" pos="1344" pan="0" len="120" vol="69" />
          <note key="65" pos="1464" pan="0" len="72" vol="50" />
        </pattern>
        <pattern pos="225984" muted="0" steps="16" name="" type="1">
          <note key="67" pos="0" pan="0" len="192" vol="69" />
          <note key="67" pos="192" pan="0" len="192" vol="69" />
          <note key="67" pos="384" pan="0" len="192" vol="69" />
          <note key="67" pos="576" pan="0" len="120" vol="69" />
          <note key="65" pos="696" pan="0" len="72" vol="50" />
          <note key="67" pos="768" pan="0" len="192" vol="69" />
          <note key="67" pos="960" pan="0" len="192" vol="69" />
          <note key="67" pos="1152" pan="0" len="192" vol="69" />
          <note key="67" pos="1344" pan="0" len="120" vol="69" />
          <note key="65" pos="1464" pan="0" len="72" vol="50" />
        </pattern>
        <pattern pos="227520" muted="0" steps="16" name="" type="1">
          <note key="67" pos="0" pan="0" len="192" vol="69" />
          <note key="67" pos="192" pan="0" len="192" vol="69" />
          <note key="67" pos="384" pan="0" len="192" vol="69" />
          <note key="67" pos="576" pan="0" len="120" vol="69" />
          <note key="65" pos="696" pan="0" len="72" vol="50" />
          <note key="67" pos="768" pan="0" len="192" vol="69" />
          <note key="67" pos="960" pan="0" len="192" vol="69" />
          <note key="67" pos="1152" pan="0" len="192" vol="69" />
          <note key="67" pos="1344" pan="0" len="120" vol="69" />
          <note key="65" pos="1464" pan="0" len="72" vol="50" />
        </pattern>
        <pattern pos="229056" muted="0" steps="16" name="" type="1">
          <note key="67" pos="0" pan="0" len="192" vol="69" />
          <note key="67" pos="192" pan="0" len="192" vol="69" />
          <note key="67" pos="384" pan="0" len="192" vol="69" />
          <note key="67" pos="576" pan="0" len="120" vol="69" />
          <note key="65" pos="696" pan="0" len="72" vol="50" />
          <note key="67" pos="768" pan="0" len="192" vol="69" />
          <note key="67" pos="960" pan="0" len="192" vol="69" />
          <note key="67" pos="1152" pan="0" len="192" vol="69" />
          <note key="67" pos="1344" pan="0" len="120" vol="69" />
          <note key="65" pos="1464" pan="0" len="72" vol="50" />
        </pattern>
        <pattern pos="230592" muted="0" steps="16" name="" type="1">
          <note key="67" pos="0" pan="0" len="192" vol="69" />
          <note key="65" pos="192" pan="0" len="192" vol="69" />
          <note key="62" pos="384" pan="0" len="192" vol="69" />
          <note key="65" pos="576" pan="0" len="120" vol="69" />
          <note key="65" pos="696" pan="0" len="72" vol="50" />
          <note key="63" pos="768" pan="0" len="192" vol="69" />
          <note key="65" pos="960" pan="0" len="192" vol="69" />
          <note key="67" pos="1152" pan="0" len="192" vol="69" />
          <note key="69" pos="1344" pan="0" len="120" vol="69" />
          <note key="69" pos="1464" pan="0" len="72" vol="50" />
        </pattern>
        <pattern pos="232128" muted="0" steps="16" name="" type="1">
          <note key="67" pos="0" pan="0" len="192" vol="69" />
          <note key="65" pos="192" pan="0" len="192" vol="69" />
          <note key="62" pos="384" pan="0" len="192" vol="69" />
          <note key="65" pos="576" pan="0" len="120" vol="69" />
          <note key="65" pos="696" pan="0" len="72" vol="50" />
          <note key="63" pos="768" pan="0" len="192" vol="69" />
          <note key="65" pos="960" pan="0" len="192" vol="69" />
          <note key="62" pos="1152" pan="0" len="192" vol="69" />
          <note key="62" pos="1344" pan="0" len="192" vol="69" />
        </pattern>
        <pattern pos="233664" muted="0" steps="16" name="" type="1">
          <note key="67" pos="0" pan="0" len="192" vol="69" />
          <note key="67" pos="192" pan="0" len="192" vol="69" />
          <note key="67" pos="384" pan="0" len="192" vol="69" />
          <note key="67" pos="576" pan="0" len="120" vol="69" />
          <note key="65" pos="696" pan="0" len="72" vol="50" />
          <note key="67" pos="768" pan="0" len="192" vol="69" />
          <note key="67" pos="960" pan="0" len="192" vol="69" />
          <note key="67" pos="1152" pan="0" len="192" vol="69" />
          <note key="67" pos="1344" pan="0" len="120" vol="69" />
          <note key="65" pos="1464" pan="0" len="72" vol="50" />
        </pattern>
        <pattern pos="235200" muted="0" steps="16" name="" type="1">
          <note key="67" pos="0" pan="0" len="192" vol="69" />
          <note key="67" pos="192" pan="0" len="192" vol="69" />
          <note key="67" pos="384" pan="0" len="192" vol="69" />
          <note key="67" pos="576" pan="0" len="120" vol="69" />
          <note key="65" pos="696" pan="0" len="72" vol="50" />
          <note key="67" pos="768" pan="0" len="192" vol="69" />
          <note key="67" pos="960" pan="0" len="192" vol="69" />
          <note key="67" pos="1152" pan="0" len="192" vol="69" />
          <note key="67" pos="1344" pan="0" len="120" vol="69" />
          <note key="65" pos="1464" pan="0" len="72" vol="50" />
        </pattern>
        <pattern pos="266112" muted="0" steps="16" name="" type="1">
          <note key="77" pos="0" pan="0" len="240" vol="100" />
          <note key="70" pos="240" pan="0" len="48" vol="100" />
          <note key="72" pos="288" pan="0" len="48" vol="100" />
          <note key="77" pos="336" pan="0" len="48" vol="100" />
          <note key="75" pos="384" pan="0" len="72" vol="100" />
          <note key="74" pos="456" pan="0" len="24" vol="100" />
          <note key="70" pos="480" pan="0" len="192" vol="100" />
          <note key="72" pos="672" pan="0" len="96" vol="100" />
          <note key="77" pos="768" pan="0" len="240" vol="100" />
          <note key="70" pos="1008" pan="0" len="48" vol="100" />
          <note key="72" pos="1056" pan="0" len="48" vol="100" />
          <note key="77" pos="1104" pan="0" len="48" vol="100" />
          <note key="79" pos="1152" pan="0" len="72" vol="100" />
          <note key="75" pos="1224" pan="0" len="24" vol="100" />
          <note key="72" pos="1248" pan="0" len="192" vol="100" />
          <note key="70" pos="1440" pan="0" len="96" vol="100" />
        </pattern>
      </track>
      <track solo="0" name="66 (Ch4)" type="0" muted="0">
        <instrumenttrack usemasterpitch="1" pitch="0.0" basenote="57" pan="0" pitchrange="12" vol="30">
          <eldata />
          <instrument name="tripleoscillator" />
        </instrumenttrack>
        <pattern pos="235200" muted="0" steps="16" name="" type="1">
          <note key="70" pos="0" pan="0" len="72" vol="69" />
          <note key="72" pos="72" pan="0" len="48" vol="69" />
          <note key="70" pos="120" pan="0" len="72" vol="50" />
          <note key="70" pos="192" pan="0" len="72" vol="69" />
          <note key="72" pos="264" pan="0" len="48" vol="69" />
          <note key="70" pos="312" pan="0" len="72" vol="50" />
          <note key="70" pos="384" pan="0" len="72" vol="69" />
          <note key="72" pos="456" pan="0" len="48" vol="69" />
          <note key="70" pos="504" pan="0" len="72" vol="50" />
          <note key="70" pos="576" pan="0" len="72" vol="69" />
          <note key="69" pos="648" pan="0" len="48" vol="69" />
          <note key="69" pos="696" pan="0" len="72" vol="50" />
          <note key="70" pos="768" pan="0" len="72" vol="69" />
          <note key="72" pos="840" pan="0" len="48" vol="69" />
          <note key="70" pos="888" pan="0" len="72" vol="50" />
          <note key="70" pos="960" pan="0" len="72" vol="69" />
          <note key="72" pos="1032" pan="0" len="48" vol="69" />
          <note key="70" pos="1080" pan="0" len="72" vol="50" />
          <note key="70" pos="1152" pan="0" len="72" vol="69" />
          <note key="72" pos="1224" pan="0" len="48" vol="69" />
          <note key="70" pos="1272" pan="0" len="72" vol="50" />
          <note key="70" pos="1344" pan="0" len="72" vol="69" />
          <note key="69" pos="1416" pan="0" len="48" vol="69" />
          <note key="69" pos="1464" pan="0" len="72" vol="50" />
        </pattern>
        <pattern pos="216768" muted="0" steps="16" name="" type="1">
          <note key="70" pos="0" pan="0" len="72" vol="69" />
          <note key="72" pos="72" pan="0" len="48" vol="69" />
          <note key="70" pos="120" pan="0" len="72" vol="50" />
          <note key="70" pos="192" pan="0" len="72" vol="69" />
          <note key="72" pos="264" pan="0" len="48" vol="69" />
          <note key="70" pos="312" pan="0" len="72" vol="50" />
          <note key="70" pos="384" pan="0" len="72" vol="69" />
          <note key="72" pos="456" pan="0" len="48" vol="69" />
          <note key="70" pos="504" pan="0" len="72" vol="50" />
          <note key="70" pos="576" pan="0" len="72" vol="69" />
          <note key="69" pos="648" pan="0" len="48" vol="69" />
          <note key="69" pos="696" pan="0" len="72" vol="50" />
          <note key="70" pos="768" pan="0" len="72" vol="69" />
          <note key="72" pos="840" pan="0" len="48" vol="69" />
          <note key="70" pos="888" pan="0" len="72" vol="50" />
          <note key="70" pos="960" pan="0" len="72" vol="69" />
          <note key="72" pos="1032" pan="0" len="48" vol="69" />
          <note key="70" pos="1080" pan="0" len="72" vol="50" />
          <note key="70" pos="1152" pan="0" len="72" vol="69" />
          <note key="72" pos="1224" pan="0" len="48" vol="69" />
          <note key="70" pos="1272" pan="0" len="72" vol="50" />
          <note key="70" pos="1344" pan="0" len="72" vol="69" />
          <note key="69" pos="1416" pan="0" len="48" vol="69" />
          <note key="69" pos="1464" pan="0" len="72" vol="50" />
        </pattern>
        <pattern pos="218304" muted="0" steps="16" name="" type="1">
          <note key="70" pos="0" pan="0" len="72" vol="69" />
          <note key="72" pos="72" pan="0" len="48" vol="69" />
          <note key="70" pos="120" pan="0" len="72" vol="50" />
          <note key="70" pos="192" pan="0" len="72" vol="69" />
          <note key="72" pos="264" pan="0" len="48" vol="69" />
          <note key="70" pos="312" pan="0" len="72" vol="50" />
          <note key="70" pos="384" pan="0" len="72" vol="69" />
          <note key="72" pos="456" pan="0" len="48" vol="69" />
          <note key="70" pos="504" pan="0" len="72" vol="50" />
          <note key="70" pos="576" pan="0" len="72" vol="69" />
          <note key="69" pos="648" pan="0" len="48" vol="69" />
          <note key="69" pos="696" pan="0" len="72" vol="50" />
          <note key="70" pos="768" pan="0" len="72" vol="69" />
          <note key="72" pos="840" pan="0" len="48" vol="69" />
          <note key="70" pos="888" pan="0" len="72" vol="50" />
          <note key="70" pos="960" pan="0" len="72" vol="69" />
          <note key="72" pos="1032" pan="0" len="48" vol="69" />
          <note key="70" pos="1080" pan="0" len="72" vol="50" />
          <note key="70" pos="1152" pan="0" len="72" vol="69" />
          <note key="72" pos="1224" pan="0" len="48" vol="69" />
          <note key="70" pos="1272" pan="0" len="72" vol="50" />
          <note key="70" pos="1344" pan="0" len="72" vol="69" />
          <note key="69" pos="1416" pan="0" len="48" vol="69" />
          <note key="69" pos="1464" pan="0" len="72" vol="50" />
        </pattern>
        <pattern pos="219840" muted="0" steps="16" name="" type="1">
          <note key="70" pos="0" pan="0" len="72" vol="69" />
          <note key="72" pos="72" pan="0" len="48" vol="69" />
          <note key="70" pos="120" pan="0" len="72" vol="50" />
          <note key="70" pos="192" pan="0" len="72" vol="69" />
          <note key="72" pos="264" pan="0" len="48" vol="69" />
          <note key="70" pos="312" pan="0" len="72" vol="50" />
          <note key="70" pos="384" pan="0" len="72" vol="69" />
          <note key="72" pos="456" pan="0" len="48" vol="69" />
          <note key="70" pos="504" pan="0" len="72" vol="50" />
          <note key="70" pos="576" pan="0" len="72" vol="69" />
          <note key="69" pos="648" pan="0" len="48" vol="69" />
          <note key="69" pos="696" pan="0" len="72" vol="50" />
          <note key="70" pos="768" pan="0" len="72" vol="69" />
          <note key="72" pos="840" pan="0" len="48" vol="69" />
          <note key="70" pos="888" pan="0" len="72" vol="50" />
          <note key="70" pos="960" pan="0" len="72" vol="69" />
          <note key="72" pos="1032" pan="0" len="48" vol="69" />
          <note key="70" pos="1080" pan="0" len="72" vol="50" />
          <note key="70" pos="1152" pan="0" len="72" vol="69" />
          <note key="72" pos="1224" pan="0" len="48" vol="69" />
          <note key="70" pos="1272" pan="0" len="72" vol="50" />
          <note key="70" pos="1344" pan="0" len="72" vol="69" />
          <note key="69" pos="1416" pan="0" len="48" vol="69" />
          <note key="69" pos="1464" pan="0" len="72" vol="50" />
        </pattern>
        <pattern pos="221376" muted="0" steps="16" name="" type="1">
          <note key="70" pos="0" pan="0" len="72" vol="69" />
          <note key="72" pos="72" pan="0" len="48" vol="69" />
          <note key="70" pos="120" pan="0" len="72" vol="50" />
          <note key="70" pos="192" pan="0" len="72" vol="69" />
          <note key="72" pos="264" pan="0" len="48" vol="69" />
          <note key="70" pos="312" pan="0" len="72" vol="50" />
          <note key="70" pos="384" pan="0" len="72" vol="69" />
          <note key="72" pos="456" pan="0" len="48" vol="69" />
          <note key="70" pos="504" pan="0" len="72" vol="50" />
          <note key="70" pos="576" pan="0" len="72" vol="69" />
          <note key="69" pos="648" pan="0" len="48" vol="69" />
          <note key="69" pos="696" pan="0" len="72" vol="50" />
          <note key="70" pos="768" pan="0" len="72" vol="69" />
          <note key="72" pos="840" pan="0" len="48" vol="69" />
          <note key="70" pos="888" pan="0" len="72" vol="50" />
          <note key="70" pos="960" pan="0" len="72" vol="69" />
          <note key="72" pos="1032" pan="0" len="48" vol="69" />
          <note key="70" pos="1080" pan="0" len="72" vol="50" />
          <note key="70" pos="1152" pan="0" len="72" vol="69" />
          <note key="72" pos="1224" pan="0" len="48" vol="69" />
          <note key="70" pos="1272" pan="0" len="72" vol="50" />
          <note key="70" pos="1344" pan="0" len="72" vol="69" />
          <note key="69" pos="1416" pan="0" len="48" vol="69" />
          <note key="69" pos="1464" pan="0" len="72" vol="50" />
        </pattern>
        <pattern pos="222912" muted="0" steps="16" name="" type="1">
          <note key="70" pos="0" pan="0" len="72" vol="69" />
          <note key="72" pos="72" pan="0" len="48" vol="69" />
          <note key="70" pos="120" pan="0" len="72" vol="50" />
          <note key="70" pos="192" pan="0" len="72" vol="69" />
          <note key="72" pos="264" pan="0" len="48" vol="69" />
          <note key="70" pos="312" pan="0" len="72" vol="50" />
          <note key="70" pos="384" pan="0" len="72" vol="69" />
          <note key="72" pos="456" pan="0" len="48" vol="69" />
          <note key="70" pos="504" pan="0" len="72" vol="50" />
          <note key="70" pos="576" pan="0" len="72" vol="69" />
          <note key="69" pos="648" pan="0" len="48" vol="69" />
          <note key="69" pos="696" pan="0" len="72" vol="50" />
          <note key="70" pos="768" pan="0" len="72" vol="69" />
          <note key="72" pos="840" pan="0" len="48" vol="69" />
          <note key="70" pos="888" pan="0" len="72" vol="50" />
          <note key="70" pos="960" pan="0" len="72" vol="69" />
          <note key="72" pos="1032" pan="0" len="48" vol="69" />
          <note key="70" pos="1080" pan="0" len="72" vol="50" />
          <note key="70" pos="1152" pan="0" len="72" vol="69" />
          <note key="72" pos="1224" pan="0" len="48" vol="69" />
          <note key="70" pos="1272" pan="0" len="72" vol="50" />
          <note key="70" pos="1344" pan="0" len="72" vol="69" />
          <note key="69" pos="1416" pan="0" len="48" vol="69" />
          <note key="69" pos="1464" pan="0" len="72" vol="50" />
        </pattern>
        <pattern pos="224448" muted="0" steps="16" name="" type="1">
          <note key="70" pos="0" pan="0" len="72" vol="69" />
          <note key="72" pos="72" pan="0" len="48" vol="69" />
          <note key="70" pos="120" pan="0" len="72" vol="50" />
          <note key="70" pos="192" pan="0" len="72" vol="69" />
          <note key="72" pos="264" pan="0" len="48" vol="69" />
          <note key="70" pos="312" pan="0" len="72" vol="50" />
          <note key="70" pos="384" pan="0" len="72" vol="69" />
          <note key="72" pos="456" pan="0" len="48" vol="69" />
          <note key="70" pos="504" pan="0" len="72" vol="50" />
          <note key="70" pos="576" pan="0" len="72" vol="69" />
          <note key="69" pos="648" pan="0" len="48" vol="69" />
          <note key="69" pos="696" pan="0" len="72" vol="50" />
          <note key="70" pos="768" pan="0" len="72" vol="69" />
          <note key="72" pos="840" pan="0" len="48" vol="69" />
          <note key="70" pos="888" pan="0" len="72" vol="50" />
          <note key="70" pos="960" pan="0" len="72" vol="69" />
          <note key="72" pos="1032" pan="0" len="48" vol="69" />
          <note key="70" pos="1080" pan="0" len="72" vol="50" />
          <note key="70" pos="1152" pan="0" len="72" vol="69" />
          <note key="72" pos="1224" pan="0" len="48" vol="69" />
          <note key="70" pos="1272" pan="0" len="72" vol="50" />
          <note key="70" pos="1344" pan="0" len="72" vol="69" />
          <note key="69" pos="1416" pan="0" len="48" vol="69" />
          <note key="69" pos="1464" pan="0" len="72" vol="50" />
        </pattern>
        <pattern pos="225984" muted="0" steps="16" name="" type="1">
          <note key="70" pos="0" pan="0" len="72" vol="69" />
          <note key="72" pos="72" pan="0" len="48" vol="69" />
          <note key="70" pos="120" pan="0" len="72" vol="50" />
          <note key="70" pos="192" pan="0" len="72" vol="69" />
          <note key="72" pos="264" pan="0" len="48" vol="69" />
          <note key="70" pos="312" pan="0" len="72" vol="50" />
          <note key="70" pos="384" pan="0" len="72" vol="69" />
          <note key="72" pos="456" pan="0" len="48" vol="69" />
          <note key="70" pos="504" pan="0" len="72" vol="50" />
          <note key="70" pos="576" pan="0" len="72" vol="69" />
          <note key="69" pos="648" pan="0" len="48" vol="69" />
          <note key="69" pos="696" pan="0" len="72" vol="50" />
          <note key="70" pos="768" pan="0" len="72" vol="69" />
          <note key="72" pos="840" pan="0" len="48" vol="69" />
          <note key="70" pos="888" pan="0" len="72" vol="50" />
          <note key="70" pos="960" pan="0" len="72" vol="69" />
          <note key="72" pos="1032" pan="0" len="48" vol="69" />
          <note key="70" pos="1080" pan="0" len="72" vol="50" />
          <note key="70" pos="1152" pan="0" len="72" vol="69" />
          <note key="72" pos="1224" pan="0" len="48" vol="69" />
          <note key="70" pos="1272" pan="0" len="72" vol="50" />
          <note key="70" pos="1344" pan="0" len="72" vol="69" />
          <note key="69" pos="1416" pan="0" len="48" vol="69" />
          <note key="69" pos="1464" pan="0" len="72" vol="50" />
        </pattern>
        <pattern pos="227520" muted="0" steps="16" name="" type="1">
          <note key="70" pos="0" pan="0" len="72" vol="69" />
          <note key="72" pos="72" pan="0" len="48" vol="69" />
          <note key="70" pos="120" pan="0" len="72" vol="50" />
          <note key="70" pos="192" pan="0" len="72" vol="69" />
          <note key="72" pos="264" pan="0" len="48" vol="69" />
          <note key="70" pos="312" pan="0" len="72" vol="50" />
          <note key="70" pos="384" pan="0" len="72" vol="69" />
          <note key="72" pos="456" pan="0" len="48" vol="69" />
          <note key="70" pos="504" pan="0" len="72" vol="50" />
          <note key="70" pos="576" pan="0" len="72" vol="69" />
          <note key="69" pos="648" pan="0" len="48" vol="69" />
          <note key="69" pos="696" pan="0" len="72" vol="50" />
          <note key="70" pos="768" pan="0" len="72" vol="69" />
          <note key="72" pos="840" pan="0" len="48" vol="69" />
          <note key="70" pos="888" pan="0" len="72" vol="50" />
          <note key="70" pos="960" pan="0" len="72" vol="69" />
          <note key="72" pos="1032" pan="0" len="48" vol="69" />
          <note key="70" pos="1080" pan="0" len="72" vol="50" />
          <note key="70" pos="1152" pan="0" len="72" vol="69" />
          <note key="72" pos="1224" pan="0" len="48" vol="69" />
          <note key="70" pos="1272" pan="0" len="72" vol="50" />
          <note key="70" pos="1344" pan="0" len="72" vol="69" />
          <note key="69" pos="1416" pan="0" len="48" vol="69" />
          <note key="69" pos="1464" pan="0" len="72" vol="50" />
        </pattern>
        <pattern pos="229056" muted="0" steps="16" name="" type="1">
          <note key="70" pos="0" pan="0" len="72" vol="69" />
          <note key="72" pos="72" pan="0" len="48" vol="69" />
          <note key="70" pos="120" pan="0" len="72" vol="50" />
          <note key="70" pos="192" pan="0" len="72" vol="69" />
          <note key="72" pos="264" pan="0" len="48" vol="69" />
          <note key="70" pos="312" pan="0" len="72" vol="50" />
          <note key="70" pos="384" pan="0" len="72" vol="69" />
          <note key="72" pos="456" pan="0" len="48" vol="69" />
          <note key="70" pos="504" pan="0" len="72" vol="50" />
          <note key="70" pos="576" pan="0" len="72" vol="69" />
          <note key="69" pos="648" pan="0" len="48" vol="69" />
          <note key="69" pos="696" pan="0" len="72" vol="50" />
          <note key="70" pos="768" pan="0" len="72" vol="69" />
          <note key="72" pos="840" pan="0" len="48" vol="69" />
          <note key="70" pos="888" pan="0" len="72" vol="50" />
          <note key="70" pos="960" pan="0" len="72" vol="69" />
          <note key="72" pos="1032" pan="0" len="48" vol="69" />
          <note key="70" pos="1080" pan="0" len="72" vol="50" />
          <note key="70" pos="1152" pan="0" len="72" vol="69" />
          <note key="72" pos="1224" pan="0" len="48" vol="69" />
          <note key="70" pos="1272" pan="0" len="72" vol="50" />
          <note key="70" pos="1344" pan="0" len="72" vol="69" />
          <note key="69" pos="1416" pan="0" len="48" vol="69" />
          <note key="69" pos="1464" pan="0" len="72" vol="50" />
        </pattern>
        <pattern pos="230592" muted="0" steps="16" name="" type="1">
          <note key="70" pos="0" pan="0" len="72" vol="69" />
          <note key="72" pos="72" pan="0" len="48" vol="69" />
          <note key="70" pos="120" pan="0" len="72" vol="50" />
          <note key="69" pos="192" pan="0" len="72" vol="69" />
          <note key="70" pos="264" pan="0" len="48" vol="69" />
          <note key="69" pos="312" pan="0" len="72" vol="50" />
          <note key="67" pos="384" pan="0" len="72" vol="69" />
          <note key="69" pos="456" pan="0" len="48" vol="69" />
          <note key="67" pos="504" pan="0" len="72" vol="50" />
          <note key="69" pos="576" pan="0" len="72" vol="69" />
          <note key="70" pos="648" pan="0" len="48" vol="69" />
          <note key="69" pos="696" pan="0" len="72" vol="50" />
          <note key="67" pos="768" pan="0" len="72" vol="69" />
          <note key="69" pos="840" pan="0" len="48" vol="69" />
          <note key="67" pos="888" pan="0" len="72" vol="50" />
          <note key="69" pos="960" pan="0" len="72" vol="69" />
          <note key="70" pos="1032" pan="0" len="48" vol="69" />
          <note key="69" pos="1080" pan="0" len="72" vol="50" />
          <note key="70" pos="1152" pan="0" len="72" vol="69" />
          <note key="72" pos="1224" pan="0" len="48" vol="69" />
          <note key="70" pos="1272" pan="0" len="72" vol="50" />
          <note key="72" pos="1344" pan="0" len="72" vol="69" />
          <note key="74" pos="1416" pan="0" len="48" vol="69" />
          <note key="72" pos="1464" pan="0" len="72" vol="50" />
        </pattern>
        <pattern pos="232128" muted="0" steps="16" name="" type="1">
          <note key="70" pos="0" pan="0" len="72" vol="69" />
          <note key="72" pos="72" pan="0" len="48" vol="69" />
          <note key="70" pos="120" pan="0" len="72" vol="50" />
          <note key="69" pos="192" pan="0" len="72" vol="69" />
          <note key="70" pos="264" pan="0" len="48" vol="69" />
          <note key="69" pos="312" pan="0" len="72" vol="50" />
          <note key="67" pos="384" pan="0" len="72" vol="69" />
          <note key="69" pos="456" pan="0" len="48" vol="69" />
          <note key="67" pos="504" pan="0" len="72" vol="50" />
          <note key="69" pos="576" pan="0" len="72" vol="69" />
          <note key="70" pos="648" pan="0" len="48" vol="69" />
          <note key="69" pos="696" pan="0" len="72" vol="50" />
          <note key="67" pos="768" pan="0" len="72" vol="69" />
          <note key="69" pos="840" pan="0" len="48" vol="69" />
          <note key="67" pos="888" pan="0" len="72" vol="50" />
          <note key="69" pos="960" pan="0" len="72" vol="69" />
          <note key="70" pos="1032" pan="0" len="48" vol="69" />
          <note key="69" pos="1080" pan="0" len="72" vol="50" />
          <note key="67" pos="1152" pan="0" len="72" vol="69" />
          <note key="69" pos="1224" pan="0" len="48" vol="69" />
          <note key="67" pos="1272" pan="0" len="72" vol="50" />
          <note key="67" pos="1344" pan="0" len="72" vol="69" />
          <note key="69" pos="1416" pan="0" len="48" vol="69" />
          <note key="67" pos="1464" pan="0" len="72" vol="50" />
        </pattern>
        <pattern pos="233664" muted="0" steps="16" name="" type="1">
          <note key="70" pos="0" pan="0" len="72" vol="69" />
          <note key="72" pos="72" pan="0" len="48" vol="69" />
          <note key="70" pos="120" pan="0" len="72" vol="50" />
          <note key="70" pos="192" pan="0" len="72" vol="69" />
          <note key="72" pos="264" pan="0" len="48" vol="69" />
          <note key="70" pos="312" pan="0" len="72" vol="50" />
          <note key="70" pos="384" pan="0" len="72" vol="69" />
          <note key="72" pos="456" pan="0" len="48" vol="69" />
          <note key="70" pos="504" pan="0" len="72" vol="50" />
          <note key="70" pos="576" pan="0" len="72" vol="69" />
          <note key="69" pos="648" pan="0" len="48" vol="69" />
          <note key="69" pos="696" pan="0" len="72" vol="50" />
          <note key="70" pos="768" pan="0" len="72" vol="69" />
          <note key="72" pos="840" pan="0" len="48" vol="69" />
          <note key="70" pos="888" pan="0" len="72" vol="50" />
          <note key="70" pos="960" pan="0" len="72" vol="69" />
          <note key="72" pos="1032" pan="0" len="48" vol="69" />
          <note key="70" pos="1080" pan="0" len="72" vol="50" />
          <note key="70" pos="1152" pan="0" len="72" vol="69" />
          <note key="72" pos="1224" pan="0" len="48" vol="69" />
          <note key="70" pos="1272" pan="0" len="72" vol="50" />
          <note key="70" pos="1344" pan="0" len="72" vol="69" />
          <note key="69" pos="1416" pan="0" len="48" vol="69" />
          <note key="69" pos="1464" pan="0" len="72" vol="50" />
        </pattern>
      </track>
      <track solo="0" name="66 (Ch5)" type="0" muted="0">
        <instrumenttrack usemasterpitch="1" pitch="0.0" basenote="57" pan="0" pitchrange="12" vol="30">
          <eldata />
          <instrument name="tripleoscillator" />
        </instrumenttrack>
        <pattern pos="16128" muted="0" steps="16" name="" type="1">
          <note key="70" pos="0" pan="0" len="144" vol="100" />
          <note key="72" pos="144" pan="0" len="48" vol="100" />
          <note key="72" pos="192" pan="0" len="72" vol="100" />
          <note key="70" pos="264" pan="0" len="120" vol="100" />
          <note key="72" pos="384" pan="0" len="144" vol="100" />
          <note key="67" pos="528" pan="0" len="48" vol="100" />
          <note key="70" pos="576" pan="0" len="72" vol="100" />
          <note key="67" pos="648" pan="0" len="120" vol="100" />
          <note key="70" pos="768" pan="0" len="96" vol="100" />
          <note key="70" pos="864" pan="0" len="96" vol="100" />
          <note key="72" pos="960" pan="0" len="96" vol="100" />
          <note key="76" pos="1056" pan="0" len="96" vol="100" />
          <note key="67" pos="1152" pan="0" len="144" vol="100" />
        </pattern>
        <pattern pos="14592" muted="0" steps="16" name="" type="1">
          <note key="70" pos="0" pan="0" len="24" vol="100" />
          <note key="72" pos="24" pan="0" len="120" vol="100" />
          <note key="67" pos="144" pan="0" len="48" vol="100" />
          <note key="70" pos="192" pan="0" len="72" vol="100" />
          <note key="76" pos="264" pan="0" len="108" vol="100" />
          <note key="74" pos="384" pan="0" len="72" vol="100" />
          <note key="72" pos="456" pan="0" len="72" vol="100" />
          <note key="69" pos="528" pan="0" len="48" vol="100" />
          <note key="67" pos="576" pan="0" len="96" vol="100" />
          <note key="70" pos="672" pan="0" len="96" vol="100" />
          <note key="72" pos="768" pan="0" len="144" vol="100" />
          <note key="74" pos="912" pan="0" len="48" vol="100" />
          <note key="74" pos="960" pan="0" len="96" vol="100" />
          <note key="77" pos="1056" pan="0" len="96" vol="100" />
          <note key="74" pos="1152" pan="0" len="120" vol="100" />
          <note key="72" pos="1272" pan="0" len="72" vol="100" />
          <note key="69" pos="1344" pan="0" len="96" vol="100" />
          <note key="70" pos="1440" pan="0" len="96" vol="100" />
        </pattern>
      </track>
      <track solo="0" name="66 (Ch6)" type="0" muted="0">
        <instrumenttrack usemasterpitch="1" pitch="0.0" basenote="57" pan="0" pitchrange="12" vol="30">
          <eldata />
          <instrument name="tripleoscillator" />
        </instrumenttrack>
        <pattern pos="259200" muted="0" steps="16" name="" type="1">
          <note key="72" pos="0" pan="0" len="12" vol="100" />
          <note key="72" pos="144" pan="0" len="12" vol="100" />
          <note key="70" pos="192" pan="0" len="12" vol="100" />
          <note key="70" pos="336" pan="0" len="12" vol="100" />
          <note key="72" pos="384" pan="0" len="12" vol="100" />
          <note key="72" pos="528" pan="0" len="12" vol="100" />
          <note key="75" pos="576" pan="0" len="12" vol="100" />
          <note key="72" pos="672" pan="0" len="12" vol="100" />
          <note key="75" pos="720" pan="0" len="12" vol="100" />
          <note key="39" pos="744" pan="0" len="24" vol="100" />
        </pattern>
        <pattern pos="14592" muted="0" steps="16" name="" type="1">
          <note key="74" pos="0" pan="0" len="24" vol="100" />
          <note key="76" pos="24" pan="0" len="120" vol="100" />
          <note key="72" pos="144" pan="0" len="48" vol="100" />
          <note key="74" pos="192" pan="0" len="72" vol="100" />
          <note key="79" pos="264" pan="0" len="108" vol="100" />
          <note key="77" pos="384" pan="0" len="72" vol="100" />
          <note key="77" pos="456" pan="0" len="72" vol="100" />
          <note key="72" pos="528" pan="0" len="48" vol="100" />
          <note key="70" pos="576" pan="0" len="96" vol="100" />
          <note key="74" pos="672" pan="0" len="96" vol="100" />
          <note key="76" pos="768" pan="0" len="144" vol="100" />
          <note key="77" pos="912" pan="0" len="48" vol="100" />
          <note key="77" pos="960" pan="0" len="96" vol="100" />
          <note key="82" pos="1056" pan="0" len="96" vol="100" />
          <note key="79" pos="1152" pan="0" len="120" vol="100" />
          <note key="77" pos="1272" pan="0" len="72" vol="100" />
          <note key="72" pos="1344" pan="0" len="96" vol="100" />
          <note key="74" pos="1440" pan="0" len="96" vol="100" />
        </pattern>
        <pattern pos="16128" muted="0" steps="16" name="" type="1">
          <note key="74" pos="0" pan="0" len="144" vol="100" />
          <note key="76" pos="144" pan="0" len="48" vol="100" />
          <note key="77" pos="192" pan="0" len="72" vol="100" />
          <note key="74" pos="264" pan="0" len="120" vol="100" />
          <note key="76" pos="384" pan="0" len="144" vol="100" />
          <note key="72" pos="528" pan="0" len="48" vol="100" />
          <note key="74" pos="576" pan="0" len="72" vol="100" />
          <note key="72" pos="648" pan="0" len="120" vol="100" />
          <note key="74" pos="768" pan="0" len="96" vol="100" />
          <note key="74" pos="864" pan="0" len="96" vol="100" />
          <note key="77" pos="960" pan="0" len="96" vol="100" />
          <note key="79" pos="1056" pan="0" len="96" vol="100" />
          <note key="72" pos="1152" pan="0" len="144" vol="100" />
        </pattern>
        <pattern pos="139008" muted="0" steps="16" name="" type="1">
          <note key="60" pos="0" pan="0" len="12" vol="100" />
          <note key="65" pos="24" pan="0" len="12" vol="100" />
          <note key="67" pos="48" pan="0" len="12" vol="100" />
          <note key="60" pos="192" pan="0" len="12" vol="100" />
          <note key="67" pos="216" pan="0" len="12" vol="100" />
          <note key="65" pos="240" pan="0" len="12" vol="100" />
          <note key="60" pos="384" pan="0" len="12" vol="100" />
          <note key="65" pos="408" pan="0" len="12" vol="100" />
          <note key="67" pos="432" pan="0" len="12" vol="100" />
          <note key="65" pos="576" pan="0" len="12" vol="100" />
          <note key="67" pos="600" pan="0" len="12" vol="100" />
          <note key="70" pos="624" pan="0" len="12" vol="100" />
        </pattern>
        <pattern pos="139776" muted="0" steps="16" name="" type="1">
          <note key="60" pos="0" pan="0" len="12" vol="100" />
          <note key="65" pos="24" pan="0" len="12" vol="100" />
          <note key="67" pos="48" pan="0" len="12" vol="100" />
          <note key="60" pos="192" pan="0" len="12" vol="100" />
          <note key="67" pos="216" pan="0" len="12" vol="100" />
          <note key="65" pos="240" pan="0" len="12" vol="100" />
          <note key="75" pos="384" pan="0" len="12" vol="100" />
          <note key="65" pos="408" pan="0" len="12" vol="100" />
          <note key="67" pos="432" pan="0" len="12" vol="100" />
          <note key="65" pos="576" pan="0" len="12" vol="100" />
          <note key="67" pos="600" pan="0" len="12" vol="100" />
          <note key="70" pos="624" pan="0" len="12" vol="100" />
          <note key="72" pos="720" pan="0" len="12" vol="100" />
        </pattern>
        <pattern pos="218304" muted="0" steps="16" name="" type="1">
          <note key="70" pos="0" pan="0" len="12" vol="50" />
          <note key="74" pos="48" pan="0" len="12" vol="50" />
          <note key="79" pos="192" pan="0" len="12" vol="50" />
          <note key="77" pos="384" pan="0" len="12" vol="50" />
          <note key="69" pos="432" pan="0" len="12" vol="50" />
          <note key="70" pos="480" pan="0" len="12" vol="50" />
          <note key="70" pos="768" pan="0" len="12" vol="34" />
          <note key="74" pos="816" pan="0" len="12" vol="34" />
          <note key="79" pos="960" pan="0" len="12" vol="34" />
          <note key="77" pos="1128" pan="0" len="12" vol="17" />
          <note key="79" pos="1140" pan="0" len="12" vol="34" />
          <note key="77" pos="1152" pan="0" len="12" vol="52" />
          <note key="69" pos="1200" pan="0" len="12" vol="52" />
          <note key="70" pos="1248" pan="0" len="12" vol="52" />
          <note key="81" pos="1344" pan="0" len="12" vol="52" />
          <note key="72" pos="1392" pan="0" len="12" vol="52" />
          <note key="74" pos="1440" pan="0" len="12" vol="52" />
          <note key="77" pos="1488" pan="0" len="12" vol="52" />
        </pattern>
        <pattern pos="225984" muted="0" steps="16" name="" type="1">
          <note key="70" pos="768" pan="0" len="12" vol="100" />
          <note key="69" pos="780" pan="0" len="12" vol="100" />
          <note key="70" pos="792" pan="0" len="12" vol="100" />
          <note key="72" pos="912" pan="0" len="12" vol="100" />
          <note key="69" pos="960" pan="0" len="12" vol="100" />
          <note key="74" pos="1056" pan="0" len="12" vol="100" />
          <note key="77" pos="1104" pan="0" len="12" vol="100" />
          <note key="69" pos="1152" pan="0" len="12" vol="100" />
          <note key="70" pos="1248" pan="0" len="12" vol="100" />
          <note key="67" pos="1296" pan="0" len="12" vol="100" />
          <note key="62" pos="1392" pan="0" len="12" vol="100" />
          <note key="65" pos="1440" pan="0" len="12" vol="100" />
        </pattern>
      </track>
      <track solo="0" name="66 (Ch7)" type="0" muted="0">
        <instrumenttrack usemasterpitch="1" pitch="0.0" basenote="57" pan="0" pitchrange="12" vol="30">
          <eldata />
          <instrument name="tripleoscillator" />
        </instrumenttrack>
        <pattern pos="16128" muted="0" steps="16" name="" type="1">
          <note key="77" pos="0" pan="0" len="144" vol="100" />
          <note key="79" pos="144" pan="0" len="48" vol="100" />
          <note key="81" pos="192" pan="0" len="72" vol="100" />
          <note key="77" pos="264" pan="0" len="120" vol="100" />
          <note key="79" pos="384" pan="0" len="144" vol="100" />
          <note key="76" pos="528" pan="0" len="48" vol="100" />
          <note key="77" pos="576" pan="0" len="72" vol="100" />
          <note key="76" pos="648" pan="0" len="120" vol="100" />
          <note key="77" pos="768" pan="0" len="96" vol="100" />
          <note key="79" pos="864" pan="0" len="96" vol="100" />
          <note key="81" pos="960" pan="0" len="96" vol="100" />
          <note key="84" pos="1056" pan="0" len="96" vol="100" />
          <note key="76" pos="1152" pan="0" len="144" vol="100" />
        </pattern>
        <pattern pos="14592" muted="0" steps="16" name="" type="1">
          <note key="77" pos="0" pan="0" len="24" vol="100" />
          <note key="79" pos="24" pan="0" len="120" vol="100" />
          <note key="76" pos="144" pan="0" len="48" vol="100" />
          <note key="77" pos="192" pan="0" len="72" vol="100" />
          <note key="84" pos="264" pan="0" len="108" vol="100" />
          <note key="82" pos="384" pan="0" len="72" vol="100" />
          <note key="81" pos="456" pan="0" len="72" vol="100" />
          <note key="77" pos="528" pan="0" len="48" vol="100" />
          <note key="74" pos="576" pan="0" len="96" vol="100" />
          <note key="79" pos="672" pan="0" len="96" vol="100" />
          <note key="79" pos="768" pan="0" len="144" vol="100" />
          <note key="81" pos="912" pan="0" len="48" vol="100" />
          <note key="82" pos="960" pan="0" len="96" vol="100" />
          <note key="86" pos="1056" pan="0" len="96" vol="100" />
          <note key="82" pos="1152" pan="0" len="120" vol="100" />
          <note key="81" pos="1272" pan="0" len="72" vol="100" />
          <note key="77" pos="1344" pan="0" len="96" vol="100" />
          <note key="79" pos="1440" pan="0" len="96" vol="100" />
        </pattern>
      </track>
      <track solo="0" name="66 (Ch8)" type="0" muted="0">
        <instrumenttrack usemasterpitch="1" pitch="0.0" basenote="57" pan="0" pitchrange="12" vol="30">
          <eldata />
          <instrument name="tripleoscillator" />
        </instrumenttrack>
        <pattern pos="235200" muted="0" steps="16" name="" type="1">
          <note key="79" pos="0" pan="0" len="12" vol="50" />
          <note key="77" pos="48" pan="0" len="12" vol="50" />
          <note key="74" pos="96" pan="0" len="12" vol="50" />
          <note key="79" pos="144" pan="0" len="12" vol="50" />
          <note key="77" pos="192" pan="0" len="12" vol="50" />
          <note key="74" pos="240" pan="0" len="12" vol="50" />
          <note key="79" pos="288" pan="0" len="12" vol="50" />
          <note key="74" pos="336" pan="0" len="12" vol="50" />
          <note key="79" pos="384" pan="0" len="12" vol="50" />
          <note key="77" pos="432" pan="0" len="12" vol="50" />
          <note key="74" pos="480" pan="0" len="12" vol="50" />
          <note key="79" pos="528" pan="0" len="12" vol="50" />
          <note key="77" pos="576" pan="0" len="12" vol="50" />
          <note key="74" pos="624" pan="0" len="12" vol="50" />
          <note key="79" pos="672" pan="0" len="12" vol="50" />
          <note key="74" pos="696" pan="0" len="12" vol="50" />
          <note key="77" pos="720" pan="0" len="12" vol="50" />
          <note key="79" pos="768" pan="0" len="12" vol="50" />
          <note key="77" pos="816" pan="0" len="12" vol="50" />
          <note key="74" pos="864" pan="0" len="12" vol="50" />
          <note key="79" pos="912" pan="0" len="12" vol="50" />
          <note key="77" pos="960" pan="0" len="12" vol="50" />
          <note key="74" pos="1008" pan="0" len="12" vol="50" />
          <note key="79" pos="1056" pan="0" len="12" vol="50" />
          <note key="74" pos="1104" pan="0" len="12" vol="50" />
          <note key="79" pos="1152" pan="0" len="12" vol="50" />
          <note key="77" pos="1200" pan="0" len="12" vol="50" />
          <note key="74" pos="1248" pan="0" len="12" vol="50" />
          <note key="79" pos="1296" pan="0" len="12" vol="50" />
          <note key="77" pos="1344" pan="0" len="12" vol="50" />
          <note key="74" pos="1392" pan="0" len="12" vol="50" />
          <note key="79" pos="1440" pan="0" len="12" vol="50" />
          <note key="74" pos="1464" pan="0" len="12" vol="50" />
          <note key="77" pos="1488" pan="0" len="12" vol="50" />
        </pattern>
        <pattern pos="167424" muted="0" steps="16" name="" type="1">
          <note key="75" pos="0" pan="0" len="192" vol="100" />
          <note key="74" pos="192" pan="0" len="96" vol="100" />
          <note key="72" pos="288" pan="0" len="48" vol="100" />
          <note key="70" pos="336" pan="0" len="48" vol="100" />
          <note key="72" pos="384" pan="0" len="96" vol="100" />
          <note key="70" pos="480" pan="0" len="48" vol="100" />
          <note key="68" pos="528" pan="0" len="48" vol="100" />
          <note key="70" pos="576" pan="0" len="96" vol="100" />
        </pattern>
        <pattern pos="173568" muted="0" steps="16" name="" type="1">
          <note key="75" pos="0" pan="0" len="192" vol="100" />
          <note key="74" pos="192" pan="0" len="96" vol="100" />
          <note key="72" pos="288" pan="0" len="48" vol="100" />
          <note key="70" pos="336" pan="0" len="48" vol="100" />
          <note key="72" pos="384" pan="0" len="96" vol="100" />
          <note key="70" pos="480" pan="0" len="48" vol="100" />
          <note key="68" pos="528" pan="0" len="48" vol="100" />
          <note key="70" pos="576" pan="0" len="96" vol="100" />
        </pattern>
        <pattern pos="224448" muted="0" steps="16" name="" type="1">
          <note key="79" pos="0" pan="0" len="12" vol="50" />
          <note key="77" pos="48" pan="0" len="12" vol="50" />
          <note key="74" pos="96" pan="0" len="12" vol="50" />
          <note key="79" pos="144" pan="0" len="12" vol="50" />
          <note key="77" pos="192" pan="0" len="12" vol="50" />
          <note key="74" pos="240" pan="0" len="12" vol="50" />
          <note key="79" pos="288" pan="0" len="12" vol="50" />
          <note key="74" pos="336" pan="0" len="12" vol="50" />
          <note key="79" pos="384" pan="0" len="12" vol="50" />
          <note key="77" pos="432" pan="0" len="12" vol="50" />
          <note key="74" pos="480" pan="0" len="12" vol="50" />
          <note key="79" pos="528" pan="0" len="12" vol="50" />
          <note key="77" pos="576" pan="0" len="12" vol="50" />
          <note key="74" pos="624" pan="0" len="12" vol="50" />
          <note key="79" pos="672" pan="0" len="12" vol="50" />
          <note key="74" pos="696" pan="0" len="12" vol="50" />
          <note key="77" pos="720" pan="0" len="12" vol="50" />
          <note key="79" pos="768" pan="0" len="12" vol="50" />
          <note key="77" pos="816" pan="0" len="12" vol="50" />
          <note key="74" pos="864" pan="0" len="12" vol="50" />
          <note key="79" pos="912" pan="0" len="12" vol="50" />
          <note key="77" pos="960" pan="0" len="12" vol="50" />
          <note key="74" pos="1008" pan="0" len="12" vol="50" />
          <note key="79" pos="1056" pan="0" len="12" vol="50" />
          <note key="74" pos="1104" pan="0" len="12" vol="50" />
          <note key="79" pos="1152" pan="0" len="12" vol="50" />
          <note key="77" pos="1200" pan="0" len="12" vol="50" />
          <note key="74" pos="1248" pan="0" len="12" vol="50" />
          <note key="79" pos="1296" pan="0" len="12" vol="50" />
          <note key="77" pos="1344" pan="0" len="12" vol="50" />
          <note key="74" pos="1392" pan="0" len="12" vol="50" />
          <note key="79" pos="1440" pan="0" len="12" vol="50" />
          <note key="74" pos="1464" pan="0" len="12" vol="50" />
          <note key="77" pos="1488" pan="0" len="12" vol="50" />
        </pattern>
        <pattern pos="225984" muted="0" steps="16" name="" type="1">
          <note key="79" pos="0" pan="0" len="12" vol="50" />
          <note key="77" pos="48" pan="0" len="12" vol="50" />
          <note key="74" pos="96" pan="0" len="12" vol="50" />
          <note key="79" pos="144" pan="0" len="12" vol="50" />
          <note key="77" pos="192" pan="0" len="12" vol="50" />
          <note key="74" pos="240" pan="0" len="12" vol="50" />
          <note key="79" pos="288" pan="0" len="12" vol="50" />
          <note key="74" pos="336" pan="0" len="12" vol="50" />
          <note key="79" pos="384" pan="0" len="12" vol="50" />
          <note key="77" pos="432" pan="0" len="12" vol="50" />
          <note key="74" pos="480" pan="0" len="12" vol="50" />
          <note key="79" pos="528" pan="0" len="12" vol="50" />
          <note key="77" pos="576" pan="0" len="12" vol="50" />
          <note key="74" pos="624" pan="0" len="12" vol="50" />
          <note key="79" pos="672" pan="0" len="12" vol="50" />
          <note key="74" pos="696" pan="0" len="12" vol="50" />
          <note key="77" pos="720" pan="0" len="12" vol="50" />
          <note key="79" pos="768" pan="0" len="12" vol="50" />
          <note key="77" pos="816" pan="0" len="12" vol="50" />
          <note key="74" pos="864" pan="0" len="12" vol="50" />
          <note key="79" pos="912" pan="0" len="12" vol="50" />
          <note key="77" pos="960" pan="0" len="12" vol="50" />
          <note key="74" pos="1008" pan="0" len="12" vol="50" />
          <note key="79" pos="1056" pan="0" len="12" vol="50" />
          <note key="74" pos="1104" pan="0" len="12" vol="50" />
          <note key="79" pos="1152" pan="0" len="12" vol="50" />
          <note key="77" pos="1200" pan="0" len="12" vol="50" />
          <note key="74" pos="1248" pan="0" len="12" vol="50" />
          <note key="79" pos="1296" pan="0" len="12" vol="50" />
          <note key="77" pos="1344" pan="0" len="12" vol="50" />
          <note key="74" pos="1392" pan="0" len="12" vol="50" />
          <note key="79" pos="1440" pan="0" len="12" vol="50" />
          <note key="74" pos="1464" pan="0" len="12" vol="50" />
          <note key="77" pos="1488" pan="0" len="12" vol="50" />
        </pattern>
        <pattern pos="233664" muted="0" steps="16" name="" type="1">
          <note key="79" pos="0" pan="0" len="12" vol="50" />
          <note key="77" pos="48" pan="0" len="12" vol="50" />
          <note key="74" pos="96" pan="0" len="12" vol="50" />
          <note key="79" pos="144" pan="0" len="12" vol="50" />
          <note key="77" pos="192" pan="0" len="12" vol="50" />
          <note key="74" pos="240" pan="0" len="12" vol="50" />
          <note key="79" pos="288" pan="0" len="12" vol="50" />
          <note key="74" pos="336" pan="0" len="12" vol="50" />
          <note key="79" pos="384" pan="0" len="12" vol="50" />
          <note key="77" pos="432" pan="0" len="12" vol="50" />
          <note key="74" pos="480" pan="0" len="12" vol="50" />
          <note key="79" pos="528" pan="0" len="12" vol="50" />
          <note key="77" pos="576" pan="0" len="12" vol="50" />
          <note key="74" pos="624" pan="0" len="12" vol="50" />
          <note key="79" pos="672" pan="0" len="12" vol="50" />
          <note key="74" pos="696" pan="0" len="12" vol="50" />
          <note key="77" pos="720" pan="0" len="12" vol="50" />
          <note key="79" pos="768" pan="0" len="12" vol="50" />
          <note key="77" pos="816" pan="0" len="12" vol="50" />
          <note key="74" pos="864" pan="0" len="12" vol="50" />
          <note key="79" pos="912" pan="0" len="12" vol="50" />
          <note key="77" pos="960" pan="0" len="12" vol="50" />
          <note key="74" pos="1008" pan="0" len="12" vol="50" />
          <note key="79" pos="1056" pan="0" len="12" vol="50" />
          <note key="74" pos="1104" pan="0" len="12" vol="50" />
          <note key="79" pos="1152" pan="0" len="12" vol="50" />
          <note key="77" pos="1200" pan="0" len="12" vol="50" />
          <note key="74" pos="1248" pan="0" len="12" vol="50" />
          <note key="79" pos="1296" pan="0" len="12" vol="50" />
          <note key="77" pos="1344" pan="0" len="12" vol="50" />
          <note key="74" pos="1392" pan="0" len="12" vol="50" />
          <note key="79" pos="1440" pan="0" len="12" vol="50" />
          <note key="74" pos="1464" pan="0" len="12" vol="50" />
          <note key="77" pos="1488" pan="0" len="12" vol="50" />
        </pattern>
      </track>
      <track solo="0" name="66 (Ch9)" type="0" muted="0">
        <instrumenttrack usemasterpitch="1" pitch="0.0" basenote="57" pan="0" pitchrange="12" vol="30">
          <eldata />
          <instrument name="tripleoscillator" />
        </instrumenttrack>
        <pattern pos="243072" muted="0" steps="16" name="" type="1">
          <note key="55" pos="0" pan="0" len="12" vol="100" />
          <note key="55" pos="48" pan="0" len="12" vol="100" />
          <note key="55" pos="96" pan="0" len="12" vol="100" />
          <note key="55" pos="144" pan="0" len="12" vol="100" />
          <note key="55" pos="192" pan="0" len="12" vol="100" />
          <note key="55" pos="240" pan="0" len="12" vol="100" />
          <note key="55" pos="288" pan="0" len="12" vol="100" />
          <note key="55" pos="336" pan="0" len="12" vol="100" />
          <note key="53" pos="384" pan="0" len="12" vol="100" />
          <note key="53" pos="432" pan="0" len="12" vol="100" />
          <note key="53" pos="480" pan="0" len="12" vol="100" />
          <note key="53" pos="528" pan="0" len="12" vol="100" />
          <note key="53" pos="576" pan="0" len="12" vol="100" />
          <note key="53" pos="624" pan="0" len="12" vol="100" />
          <note key="53" pos="672" pan="0" len="12" vol="100" />
          <note key="53" pos="720" pan="0" len="12" vol="100" />
          <note key="55" pos="768" pan="0" len="12" vol="100" />
          <note key="55" pos="816" pan="0" len="12" vol="100" />
          <note key="55" pos="864" pan="0" len="12" vol="100" />
          <note key="55" pos="912" pan="0" len="12" vol="100" />
          <note key="55" pos="960" pan="0" len="12" vol="100" />
          <note key="55" pos="1008" pan="0" len="12" vol="100" />
          <note key="55" pos="1056" pan="0" len="12" vol="100" />
          <note key="55" pos="1104" pan="0" len="12" vol="100" />
        </pattern>
        <pattern pos="89088" muted="0" steps="16" name="" type="1">
          <note key="77" pos="204" pan="0" len="12" vol="100" />
          <note key="79" pos="216" pan="0" len="12" vol="100" />
          <note key="82" pos="240" pan="0" len="12" vol="100" />
          <note key="81" pos="288" pan="0" len="24" vol="100" />
          <note key="77" pos="312" pan="0" len="48" vol="100" />
          <note key="79" pos="360" pan="0" len="12" vol="100" />
          <note key="72" pos="552" pan="0" len="12" vol="100" />
          <note key="74" pos="600" pan="0" len="12" vol="100" />
          <note key="72" pos="624" pan="0" len="12" vol="100" />
          <note key="70" pos="648" pan="0" len="12" vol="100" />
          <note key="72" pos="672" pan="0" len="12" vol="100" />
        </pattern>
        <pattern pos="89856" muted="0" steps="16" name="" type="1">
          <note key="77" pos="204" pan="0" len="12" vol="100" />
          <note key="79" pos="216" pan="0" len="12" vol="100" />
          <note key="82" pos="240" pan="0" len="12" vol="100" />
          <note key="81" pos="288" pan="0" len="24" vol="100" />
          <note key="77" pos="312" pan="0" len="48" vol="100" />
          <note key="79" pos="360" pan="0" len="12" vol="100" />
          <note key="72" pos="552" pan="0" len="12" vol="100" />
          <note key="74" pos="600" pan="0" len="12" vol="100" />
          <note key="72" pos="624" pan="0" len="12" vol="100" />
          <note key="70" pos="648" pan="0" len="12" vol="100" />
          <note key="72" pos="672" pan="0" len="12" vol="100" />
        </pattern>
        <pattern pos="168960" muted="0" steps="16" name="" type="1">
          <note key="72" pos="0" pan="0" len="24" vol="100" />
          <note key="67" pos="24" pan="0" len="24" vol="100" />
          <note key="75" pos="72" pan="0" len="24" vol="100" />
          <note key="74" pos="96" pan="0" len="24" vol="100" />
          <note key="67" pos="120" pan="0" len="24" vol="100" />
          <note key="70" pos="168" pan="0" len="24" vol="100" />
          <note key="72" pos="192" pan="0" len="24" vol="100" />
          <note key="67" pos="216" pan="0" len="24" vol="100" />
          <note key="75" pos="264" pan="0" len="24" vol="100" />
          <note key="74" pos="288" pan="0" len="24" vol="100" />
          <note key="67" pos="312" pan="0" len="24" vol="100" />
          <note key="70" pos="360" pan="0" len="24" vol="100" />
          <note key="75" pos="384" pan="0" len="24" vol="100" />
          <note key="67" pos="408" pan="0" len="24" vol="100" />
          <note key="77" pos="456" pan="0" len="24" vol="100" />
          <note key="75" pos="480" pan="0" len="24" vol="100" />
          <note key="67" pos="504" pan="0" len="24" vol="100" />
          <note key="74" pos="552" pan="0" len="24" vol="100" />
          <note key="75" pos="576" pan="0" len="24" vol="100" />
          <note key="67" pos="600" pan="0" len="24" vol="100" />
          <note key="74" pos="648" pan="0" len="24" vol="100" />
          <note key="70" pos="672" pan="0" len="24" vol="100" />
          <note key="65" pos="696" pan="0" len="24" vol="100" />
          <note key="70" pos="744" pan="0" len="24" vol="100" />
          <note key="72" pos="768" pan="0" len="24" vol="100" />
          <note key="67" pos="792" pan="0" len="24" vol="100" />
          <note key="75" pos="840" pan="0" len="24" vol="100" />
          <note key="74" pos="864" pan="0" len="24" vol="100" />
          <note key="67" pos="888" pan="0" len="24" vol="100" />
          <note key="70" pos="936" pan="0" len="24" vol="100" />
          <note key="72" pos="960" pan="0" len="24" vol="100" />
          <note key="67" pos="984" pan="0" len="24" vol="100" />
          <note key="75" pos="1032" pan="0" len="24" vol="100" />
          <note key="74" pos="1056" pan="0" len="24" vol="100" />
          <note key="67" pos="1080" pan="0" len="24" vol="100" />
          <note key="72" pos="1128" pan="0" len="24" vol="100" />
          <note key="70" pos="1152" pan="0" len="24" vol="100" />
          <note key="65" pos="1176" pan="0" len="24" vol="100" />
          <note key="72" pos="1224" pan="0" len="24" vol="100" />
          <note key="70" pos="1248" pan="0" len="24" vol="100" />
          <note key="65" pos="1272" pan="0" len="24" vol="100" />
          <note key="70" pos="1320" pan="0" len="24" vol="100" />
          <note key="72" pos="1344" pan="0" len="24" vol="100" />
          <note key="65" pos="1368" pan="0" len="24" vol="100" />
          <note key="72" pos="1416" pan="0" len="24" vol="100" />
          <note key="74" pos="1440" pan="0" len="24" vol="100" />
          <note key="65" pos="1464" pan="0" len="24" vol="100" />
          <note key="70" pos="1512" pan="0" len="24" vol="100" />
        </pattern>
        <pattern pos="170496" muted="0" steps="16" name="" type="1">
          <note key="84" pos="0" pan="0" len="24" vol="100" />
          <note key="79" pos="24" pan="0" len="24" vol="100" />
          <note key="87" pos="72" pan="0" len="24" vol="100" />
          <note key="86" pos="96" pan="0" len="24" vol="100" />
          <note key="79" pos="120" pan="0" len="24" vol="100" />
          <note key="82" pos="168" pan="0" len="24" vol="100" />
          <note key="84" pos="192" pan="0" len="24" vol="100" />
          <note key="79" pos="216" pan="0" len="24" vol="100" />
          <note key="87" pos="264" pan="0" len="24" vol="100" />
          <note key="86" pos="288" pan="0" len="24" vol="100" />
          <note key="79" pos="312" pan="0" len="24" vol="100" />
          <note key="82" pos="360" pan="0" len="24" vol="100" />
          <note key="82" pos="384" pan="0" len="24" vol="100" />
          <note key="77" pos="408" pan="0" len="24" vol="100" />
          <note key="84" pos="456" pan="0" len="24" vol="100" />
          <note key="82" pos="480" pan="0" len="24" vol="100" />
          <note key="77" pos="504" pan="0" len="24" vol="100" />
          <note key="82" pos="552" pan="0" len="24" vol="100" />
          <note key="84" pos="576" pan="0" len="24" vol="100" />
          <note key="77" pos="600" pan="0" len="24" vol="100" />
          <note key="86" pos="648" pan="0" len="24" vol="100" />
          <note key="84" pos="672" pan="0" len="24" vol="100" />
          <note key="77" pos="696" pan="0" len="24" vol="100" />
          <note key="82" pos="744" pan="0" len="24" vol="100" />
          <note key="84" pos="768" pan="0" len="24" vol="100" />
          <note key="79" pos="792" pan="0" len="24" vol="100" />
          <note key="87" pos="840" pan="0" len="24" vol="100" />
          <note key="86" pos="864" pan="0" len="24" vol="100" />
          <note key="79" pos="888" pan="0" len="24" vol="100" />
          <note key="82" pos="936" pan="0" len="24" vol="100" />
          <note key="84" pos="960" pan="0" len="24" vol="100" />
          <note key="79" pos="984" pan="0" len="24" vol="100" />
          <note key="87" pos="1032" pan="0" len="24" vol="100" />
          <note key="86" pos="1056" pan="0" len="24" vol="100" />
          <note key="79" pos="1080" pan="0" len="24" vol="100" />
          <note key="82" pos="1128" pan="0" len="24" vol="100" />
          <note key="89" pos="1152" pan="0" len="24" vol="100" />
          <note key="84" pos="1176" pan="0" len="24" vol="100" />
          <note key="79" pos="1224" pan="0" len="24" vol="100" />
          <note key="77" pos="1248" pan="0" len="24" vol="100" />
          <note key="72" pos="1272" pan="0" len="24" vol="100" />
          <note key="84" pos="1320" pan="0" len="24" vol="100" />
          <note key="89" pos="1344" pan="0" len="24" vol="100" />
          <note key="84" pos="1368" pan="0" len="24" vol="100" />
          <note key="87" pos="1416" pan="0" len="24" vol="100" />
          <note key="86" pos="1440" pan="0" len="24" vol="100" />
          <note key="82" pos="1464" pan="0" len="24" vol="100" />
          <note key="79" pos="1512" pan="0" len="24" vol="100" />
        </pattern>
        <pattern pos="241536" muted="0" steps="16" name="" type="1">
          <note key="55" pos="0" pan="0" len="12" vol="100" />
          <note key="55" pos="48" pan="0" len="12" vol="100" />
          <note key="55" pos="96" pan="0" len="12" vol="100" />
          <note key="55" pos="144" pan="0" len="12" vol="100" />
          <note key="55" pos="192" pan="0" len="12" vol="100" />
          <note key="55" pos="240" pan="0" len="12" vol="100" />
          <note key="55" pos="288" pan="0" len="12" vol="100" />
          <note key="55" pos="336" pan="0" len="12" vol="100" />
          <note key="53" pos="384" pan="0" len="12" vol="100" />
          <note key="53" pos="432" pan="0" len="12" vol="100" />
          <note key="53" pos="480" pan="0" len="12" vol="100" />
          <note key="53" pos="528" pan="0" len="12" vol="100" />
          <note key="53" pos="576" pan="0" len="12" vol="100" />
          <note key="53" pos="624" pan="0" len="12" vol="100" />
          <note key="53" pos="672" pan="0" len="12" vol="100" />
          <note key="53" pos="720" pan="0" len="12" vol="100" />
          <note key="55" pos="768" pan="0" len="12" vol="100" />
          <note key="55" pos="816" pan="0" len="12" vol="100" />
          <note key="55" pos="864" pan="0" len="12" vol="100" />
          <note key="55" pos="912" pan="0" len="12" vol="100" />
          <note key="55" pos="960" pan="0" len="12" vol="100" />
          <note key="55" pos="1008" pan="0" len="12" vol="100" />
          <note key="55" pos="1056" pan="0" len="12" vol="100" />
          <note key="55" pos="1104" pan="0" len="12" vol="100" />
          <note key="53" pos="1152" pan="0" len="12" vol="100" />
          <note key="53" pos="1200" pan="0" len="12" vol="100" />
          <note key="53" pos="1248" pan="0" len="12" vol="100" />
          <note key="53" pos="1296" pan="0" len="12" vol="100" />
          <note key="53" pos="1344" pan="0" len="12" vol="100" />
          <note key="53" pos="1392" pan="0" len="12" vol="100" />
          <note key="53" pos="1440" pan="0" len="12" vol="100" />
          <note key="53" pos="1488" pan="0" len="12" vol="100" />
        </pattern>
      </track>
      <track solo="0" name="66 (Ch10)" type="0" muted="0">
        <instrumenttrack usemasterpitch="1" pitch="0.0" basenote="57" pan="0" pitchrange="12" vol="30">
          <eldata />
          <instrument name="tripleoscillator" />
        </instrumenttrack>
        <pattern pos="243072" muted="0" steps="16" name="" type="1">
          <note key="60" pos="0" pan="0" len="12" vol="100" />
          <note key="60" pos="48" pan="0" len="12" vol="100" />
          <note key="60" pos="96" pan="0" len="12" vol="100" />
          <note key="60" pos="144" pan="0" len="12" vol="100" />
          <note key="60" pos="192" pan="0" len="12" vol="100" />
          <note key="60" pos="240" pan="0" len="12" vol="100" />
          <note key="60" pos="288" pan="0" len="12" vol="100" />
          <note key="60" pos="336" pan="0" len="12" vol="100" />
          <note key="58" pos="384" pan="0" len="12" vol="100" />
          <note key="58" pos="432" pan="0" len="12" vol="100" />
          <note key="58" pos="480" pan="0" len="12" vol="100" />
          <note key="58" pos="528" pan="0" len="12" vol="100" />
          <note key="58" pos="576" pan="0" len="12" vol="100" />
          <note key="58" pos="624" pan="0" len="12" vol="100" />
          <note key="58" pos="672" pan="0" len="12" vol="100" />
          <note key="58" pos="720" pan="0" len="12" vol="100" />
          <note key="60" pos="768" pan="0" len="12" vol="100" />
          <note key="60" pos="816" pan="0" len="12" vol="100" />
          <note key="60" pos="864" pan="0" len="12" vol="100" />
          <note key="60" pos="912" pan="0" len="12" vol="100" />
          <note key="60" pos="960" pan="0" len="12" vol="100" />
          <note key="60" pos="1008" pan="0" len="12" vol="100" />
          <note key="60" pos="1056" pan="0" len="12" vol="100" />
          <note key="60" pos="1104" pan="0" len="12" vol="100" />
        </pattern>
        <pattern pos="23808" muted="0" steps="16" name="" type="1">
          <note key="67" pos="384" pan="0" len="192" vol="100" />
          <note key="70" pos="576" pan="0" len="96" vol="100" />
          <note key="72" pos="672" pan="0" len="96" vol="100" />
          <note key="69" pos="768" pan="0" len="96" vol="100" />
          <note key="72" pos="960" pan="0" len="192" vol="100" />
          <note key="58" pos="1152" pan="0" len="192" vol="100" />
          <note key="69" pos="1344" pan="0" len="96" vol="100" />
          <note key="82" pos="1440" pan="0" len="96" vol="100" />
        </pattern>
        <pattern pos="182400" muted="0" steps="16" name="" type="1">
          <note key="76" pos="0" pan="0" len="12" vol="100" />
          <note key="79" pos="24" pan="0" len="12" vol="100" />
          <note key="83" pos="48" pan="0" len="12" vol="100" />
          <note key="79" pos="120" pan="0" len="12" vol="100" />
          <note key="81" pos="144" pan="0" len="12" vol="100" />
          <note key="76" pos="192" pan="0" len="12" vol="100" />
          <note key="76" pos="240" pan="0" len="12" vol="100" />
          <note key="78" pos="264" pan="0" len="12" vol="100" />
          <note key="79" pos="288" pan="0" len="12" vol="100" />
          <note key="79" pos="384" pan="0" len="12" vol="100" />
          <note key="81" pos="408" pan="0" len="12" vol="100" />
          <note key="78" pos="432" pan="0" len="12" vol="100" />
          <note key="74" pos="480" pan="0" len="12" vol="100" />
          <note key="71" pos="528" pan="0" len="12" vol="100" />
          <note key="76" pos="576" pan="0" len="12" vol="100" />
          <note key="80" pos="600" pan="0" len="12" vol="100" />
          <note key="83" pos="624" pan="0" len="12" vol="100" />
          <note key="85" pos="696" pan="0" len="12" vol="100" />
          <note key="86" pos="720" pan="0" len="12" vol="100" />
          <note key="81" pos="768" pan="0" len="12" vol="100" />
          <note key="79" pos="816" pan="0" len="12" vol="100" />
          <note key="76" pos="864" pan="0" len="12" vol="100" />
          <note key="76" pos="960" pan="0" len="12" vol="100" />
          <note key="78" pos="984" pan="0" len="12" vol="100" />
          <note key="74" pos="1008" pan="0" len="12" vol="100" />
          <note key="71" pos="1056" pan="0" len="12" vol="100" />
          <note key="74" pos="1104" pan="0" len="12" vol="100" />
        </pattern>
        <pattern pos="183552" muted="0" steps="16" name="" type="1">
          <note key="76" pos="0" pan="0" len="12" vol="100" />
          <note key="76" pos="576" pan="0" len="12" vol="100" />
          <note key="74" pos="720" pan="0" len="12" vol="100" />
          <note key="72" pos="840" pan="0" len="12" vol="100" />
          <note key="67" pos="864" pan="0" len="12" vol="100" />
          <note key="72" pos="912" pan="0" len="12" vol="100" />
          <note key="67" pos="960" pan="0" len="12" vol="100" />
          <note key="72" pos="984" pan="0" len="12" vol="100" />
          <note key="74" pos="1008" pan="0" len="12" vol="100" />
          <note key="72" pos="1128" pan="0" len="12" vol="100" />
        </pattern>
        <pattern pos="202752" muted="0" steps="16" name="" type="1">
          <note key="71" pos="0" pan="0" len="48" vol="50" />
          <note key="71" pos="240" pan="0" len="36" vol="50" />
          <note key="72" pos="288" pan="0" len="36" vol="50" />
          <note key="71" pos="336" pan="0" len="36" vol="50" />
          <note key="72" pos="384" pan="0" len="36" vol="50" />
          <note key="69" pos="432" pan="0" len="60" vol="50" />
          <note key="69" pos="528" pan="0" len="72" vol="50" />
          <note key="68" pos="624" pan="0" len="36" vol="50" />
          <note key="69" pos="672" pan="0" len="72" vol="50" />
          <note key="71" pos="768" pan="0" len="84" vol="50" />
          <note key="71" pos="1008" pan="0" len="36" vol="50" />
          <note key="72" pos="1056" pan="0" len="36" vol="50" />
          <note key="71" pos="1104" pan="0" len="36" vol="50" />
          <note key="72" pos="1152" pan="0" len="72" vol="50" />
        </pattern>
        <pattern pos="208896" muted="0" steps="16" name="" type="1">
          <note key="71" pos="0" pan="0" len="48" vol="50" />
          <note key="71" pos="240" pan="0" len="36" vol="50" />
          <note key="72" pos="288" pan="0" len="36" vol="50" />
          <note key="71" pos="336" pan="0" len="36" vol="50" />
          <note key="72" pos="384" pan="0" len="36" vol="50" />
          <note key="69" pos="432" pan="0" len="60" vol="50" />
          <note key="69" pos="528" pan="0" len="72" vol="50" />
          <note key="68" pos="624" pan="0" len="36" vol="50" />
          <note key="69" pos="672" pan="0" len="72" vol="50" />
          <note key="71" pos="768" pan="0" len="84" vol="50" />
          <note key="71" pos="1008" pan="0" len="36" vol="50" />
          <note key="72" pos="1056" pan="0" len="36" vol="50" />
          <note key="71" pos="1104" pan="0" len="36" vol="50" />
          <note key="72" pos="1152" pan="0" len="72" vol="50" />
        </pattern>
        <pattern pos="241536" muted="0" steps="16" name="" type="1">
          <note key="60" pos="0" pan="0" len="12" vol="100" />
          <note key="60" pos="48" pan="0" len="12" vol="100" />
          <note key="60" pos="96" pan="0" len="12" vol="100" />
          <note key="60" pos="144" pan="0" len="12" vol="100" />
          <note key="60" pos="192" pan="0" len="12" vol="100" />
          <note key="60" pos="240" pan="0" len="12" vol="100" />
          <note key="60" pos="288" pan="0" len="12" vol="100" />
          <note key="60" pos="336" pan="0" len="12" vol="100" />
          <note key="58" pos="384" pan="0" len="12" vol="100" />
          <note key="58" pos="432" pan="0" len="12" vol="100" />
          <note key="58" pos="480" pan="0" len="12" vol="100" />
          <note key="58" pos="528" pan="0" len="12" vol="100" />
          <note key="58" pos="576" pan="0" len="12" vol="100" />
          <note key="58" pos="624" pan="0" len="12" vol="100" />
          <note key="58" pos="672" pan="0" len="12" vol="100" />
          <note key="58" pos="720" pan="0" len="12" vol="100" />
          <note key="60" pos="768" pan="0" len="12" vol="100" />
          <note key="60" pos="816" pan="0" len="12" vol="100" />
          <note key="60" pos="864" pan="0" len="12" vol="100" />
          <note key="60" pos="912" pan="0" len="12" vol="100" />
          <note key="60" pos="960" pan="0" len="12" vol="100" />
          <note key="60" pos="1008" pan="0" len="12" vol="100" />
          <note key="60" pos="1056" pan="0" len="12" vol="100" />
          <note key="60" pos="1104" pan="0" len="12" vol="100" />
          <note key="58" pos="1152" pan="0" len="12" vol="100" />
          <note key="58" pos="1200" pan="0" len="12" vol="100" />
          <note key="58" pos="1248" pan="0" len="12" vol="100" />
          <note key="58" pos="1296" pan="0" len="12" vol="100" />
          <note key="58" pos="1344" pan="0" len="12" vol="100" />
          <note key="58" pos="1392" pan="0" len="12" vol="100" />
          <note key="58" pos="1440" pan="0" len="12" vol="100" />
          <note key="58" pos="1488" pan="0" len="12" vol="100" />
        </pattern>
      </track>
      <track solo="0" name="66 (Ch13)" type="0" muted="0">
        <instrumenttrack usemasterpitch="1" pitch="0.0" basenote="57" pan="0" pitchrange="12" vol="30">
          <eldata />
          <instrument name="tripleoscillator" />
        </instrumenttrack>
        <pattern pos="13056" muted="0" steps="16" name="" type="1">
          <note key="65" pos="0" pan="0" len="12" vol="100" />
          <note key="58" pos="240" pan="0" len="12" vol="100" />
          <note key="60" pos="288" pan="0" len="12" vol="100" />
          <note key="65" pos="336" pan="0" len="12" vol="100" />
          <note key="67" pos="384" pan="0" len="12" vol="100" />
          <note key="64" pos="456" pan="0" len="12" vol="100" />
          <note key="60" pos="480" pan="0" len="96" vol="100" />
          <note key="60" pos="720" pan="0" len="12" vol="100" />
          <note key="62" pos="744" pan="0" len="12" vol="100" />
          <note key="65" pos="768" pan="0" len="12" vol="100" />
          <note key="67" pos="1080" pan="0" len="12" vol="100" />
          <note key="72" pos="1152" pan="0" len="96" vol="100" />
        </pattern>
        <pattern pos="11520" muted="0" steps="16" name="" type="1">
          <note key="72" pos="0" pan="0" len="48" vol="100" />
          <note key="65" pos="240" pan="0" len="12" vol="100" />
          <note key="67" pos="288" pan="0" len="12" vol="100" />
          <note key="72" pos="336" pan="0" len="12" vol="100" />
          <note key="70" pos="384" pan="0" len="12" vol="100" />
          <note key="69" pos="456" pan="0" len="12" vol="100" />
          <note key="65" pos="480" pan="0" len="12" vol="100" />
          <note key="65" pos="720" pan="0" len="12" vol="100" />
          <note key="67" pos="744" pan="0" len="12" vol="100" />
          <note key="72" pos="768" pan="0" len="12" vol="100" />
          <note key="65" pos="1008" pan="0" len="12" vol="100" />
          <note key="67" pos="1056" pan="0" len="12" vol="100" />
          <note key="72" pos="1104" pan="0" len="12" vol="100" />
          <note key="74" pos="1152" pan="0" len="12" vol="100" />
          <note key="70" pos="1224" pan="0" len="12" vol="100" />
          <note key="67" pos="1248" pan="0" len="12" vol="100" />
        </pattern>
      </track>
      <track solo="0" name="66 (Ch14)" type="0" muted="0">
        <instrumenttrack usemasterpitch="1" pitch="0.0" basenote="57" pan="0" pitchrange="12" vol="30">
          <eldata />
          <instrument name="tripleoscillator" />
        </instrumenttrack>
        <pattern pos="135168" muted="0" steps="16" name="" type="1">
          <note key="72" pos="0" pan="0" len="48" vol="100" />
        </pattern>
        <pattern pos="62976" muted="0" steps="16" name="" type="1">
          <note key="84" pos="48" pan="0" len="12" vol="100" />
          <note key="86" pos="144" pan="0" len="12" vol="100" />
          <note key="87" pos="168" pan="0" len="12" vol="100" />
          <note key="82" pos="240" pan="0" len="12" vol="100" />
          <note key="81" pos="312" pan="0" len="12" vol="100" />
        </pattern>
        <pattern pos="72192" muted="0" steps="16" name="" type="1">
          <note key="84" pos="48" pan="0" len="12" vol="100" />
          <note key="86" pos="144" pan="0" len="12" vol="100" />
          <note key="87" pos="168" pan="0" len="12" vol="100" />
          <note key="82" pos="240" pan="0" len="12" vol="100" />
          <note key="81" pos="312" pan="0" len="12" vol="100" />
        </pattern>
        <pattern pos="83712" muted="0" steps="16" name="" type="1">
          <note key="77" pos="36" pan="0" len="12" vol="100" />
          <note key="79" pos="48" pan="0" len="24" vol="100" />
          <note key="72" pos="72" pan="0" len="12" vol="100" />
          <note key="81" pos="180" pan="0" len="12" vol="100" />
          <note key="82" pos="192" pan="0" len="24" vol="100" />
          <note key="81" pos="216" pan="0" len="12" vol="100" />
          <note key="77" pos="264" pan="0" len="12" vol="100" />
          <note key="79" pos="420" pan="0" len="12" vol="100" />
          <note key="82" pos="432" pan="0" len="24" vol="100" />
          <note key="84" pos="456" pan="0" len="12" vol="100" />
          <note key="86" pos="564" pan="0" len="12" vol="100" />
          <note key="87" pos="576" pan="0" len="12" vol="100" />
          <note key="86" pos="600" pan="0" len="12" vol="100" />
          <note key="82" pos="624" pan="0" len="12" vol="100" />
          <note key="81" pos="648" pan="0" len="12" vol="100" />
        </pattern>
        <pattern pos="86784" muted="0" steps="16" name="" type="1">
          <note key="72" pos="0" pan="0" len="84" vol="100" />
          <note key="70" pos="156" pan="0" len="24" vol="100" />
          <note key="72" pos="192" pan="0" len="72" vol="100" />
          <note key="70" pos="288" pan="0" len="72" vol="100" />
          <note key="72" pos="384" pan="0" len="48" vol="100" />
        </pattern>
        <pattern pos="88320" muted="0" steps="16" name="" type="1">
          <note key="72" pos="0" pan="0" len="84" vol="100" />
          <note key="70" pos="156" pan="0" len="24" vol="100" />
          <note key="72" pos="192" pan="0" len="72" vol="100" />
          <note key="70" pos="288" pan="0" len="72" vol="100" />
          <note key="72" pos="384" pan="0" len="48" vol="100" />
        </pattern>
        <pattern pos="107520" muted="0" steps="16" name="" type="1">
          <note key="74" pos="0" pan="0" len="48" vol="100" />
          <note key="74" pos="72" pan="0" len="48" vol="100" />
          <note key="72" pos="144" pan="0" len="48" vol="100" />
          <note key="74" pos="192" pan="0" len="60" vol="100" />
          <note key="77" pos="336" pan="0" len="24" vol="100" />
          <note key="76" pos="360" pan="0" len="24" vol="100" />
          <note key="77" pos="384" pan="0" len="48" vol="100" />
          <note key="74" pos="456" pan="0" len="48" vol="100" />
          <note key="72" pos="528" pan="0" len="24" vol="100" />
          <note key="74" pos="576" pan="0" len="84" vol="100" />
          <note key="81" pos="768" pan="0" len="48" vol="100" />
          <note key="81" pos="840" pan="0" len="48" vol="100" />
          <note key="79" pos="912" pan="0" len="24" vol="100" />
          <note key="81" pos="936" pan="0" len="24" vol="100" />
          <note key="79" pos="960" pan="0" len="72" vol="100" />
          <note key="84" pos="1104" pan="0" len="24" vol="17" />
          <note key="84" pos="1128" pan="0" len="24" vol="34" />
          <note key="84" pos="1152" pan="0" len="24" vol="100" />
          <note key="83" pos="1176" pan="0" len="24" vol="100" />
          <note key="79" pos="1200" pan="0" len="24" vol="100" />
          <note key="81" pos="1224" pan="0" len="84" vol="100" />
        </pattern>
        <pattern pos="109056" muted="0" steps="16" name="" type="1">
          <note key="74" pos="0" pan="0" len="48" vol="100" />
          <note key="74" pos="72" pan="0" len="48" vol="100" />
          <note key="72" pos="144" pan="0" len="48" vol="100" />
          <note key="74" pos="192" pan="0" len="60" vol="100" />
          <note key="81" pos="336" pan="0" len="24" vol="100" />
          <note key="79" pos="360" pan="0" len="24" vol="100" />
          <note key="81" pos="384" pan="0" len="48" vol="100" />
          <note key="81" pos="456" pan="0" len="48" vol="100" />
          <note key="79" pos="528" pan="0" len="24" vol="100" />
          <note key="81" pos="552" pan="0" len="24" vol="100" />
          <note key="79" pos="576" pan="0" len="84" vol="100" />
          <note key="74" pos="768" pan="0" len="48" vol="100" />
          <note key="74" pos="840" pan="0" len="48" vol="100" />
          <note key="72" pos="912" pan="0" len="48" vol="100" />
          <note key="74" pos="960" pan="0" len="72" vol="100" />
          <note key="77" pos="1104" pan="0" len="24" vol="17" />
          <note key="77" pos="1128" pan="0" len="24" vol="34" />
          <note key="77" pos="1152" pan="0" len="24" vol="100" />
          <note key="76" pos="1176" pan="0" len="24" vol="100" />
          <note key="72" pos="1200" pan="0" len="24" vol="100" />
          <note key="74" pos="1224" pan="0" len="84" vol="100" />
        </pattern>
        <pattern pos="132096" muted="0" steps="16" name="" type="1">
          <note key="72" pos="0" pan="0" len="48" vol="100" />
          <note key="72" pos="72" pan="0" len="48" vol="100" />
          <note key="70" pos="144" pan="0" len="48" vol="100" />
          <note key="72" pos="192" pan="0" len="60" vol="100" />
          <note key="75" pos="336" pan="0" len="24" vol="100" />
          <note key="74" pos="360" pan="0" len="24" vol="100" />
          <note key="75" pos="384" pan="0" len="48" vol="100" />
          <note key="72" pos="456" pan="0" len="48" vol="100" />
          <note key="70" pos="528" pan="0" len="24" vol="100" />
          <note key="72" pos="576" pan="0" len="84" vol="100" />
          <note key="79" pos="768" pan="0" len="48" vol="100" />
          <note key="79" pos="840" pan="0" len="48" vol="100" />
          <note key="77" pos="912" pan="0" len="24" vol="100" />
          <note key="79" pos="936" pan="0" len="24" vol="100" />
          <note key="77" pos="960" pan="0" len="72" vol="100" />
          <note key="82" pos="1104" pan="0" len="24" vol="17" />
          <note key="82" pos="1128" pan="0" len="24" vol="34" />
          <note key="82" pos="1152" pan="0" len="24" vol="100" />
          <note key="81" pos="1176" pan="0" len="24" vol="100" />
          <note key="77" pos="1200" pan="0" len="24" vol="100" />
          <note key="79" pos="1224" pan="0" len="84" vol="100" />
        </pattern>
        <pattern pos="133632" muted="0" steps="16" name="" type="1">
          <note key="72" pos="0" pan="0" len="48" vol="100" />
          <note key="72" pos="72" pan="0" len="48" vol="100" />
          <note key="70" pos="144" pan="0" len="48" vol="100" />
          <note key="72" pos="192" pan="0" len="60" vol="100" />
          <note key="79" pos="336" pan="0" len="24" vol="100" />
          <note key="77" pos="360" pan="0" len="24" vol="100" />
          <note key="79" pos="384" pan="0" len="48" vol="100" />
          <note key="79" pos="456" pan="0" len="48" vol="100" />
          <note key="77" pos="528" pan="0" len="24" vol="100" />
          <note key="79" pos="552" pan="0" len="24" vol="100" />
          <note key="77" pos="576" pan="0" len="84" vol="100" />
          <note key="72" pos="768" pan="0" len="48" vol="100" />
          <note key="72" pos="840" pan="0" len="48" vol="100" />
          <note key="70" pos="912" pan="0" len="48" vol="100" />
          <note key="72" pos="960" pan="0" len="72" vol="100" />
          <note key="75" pos="1104" pan="0" len="24" vol="17" />
          <note key="75" pos="1128" pan="0" len="24" vol="34" />
          <note key="75" pos="1152" pan="0" len="24" vol="100" />
          <note key="74" pos="1176" pan="0" len="24" vol="100" />
          <note key="70" pos="1200" pan="0" len="24" vol="100" />
          <note key="72" pos="1224" pan="0" len="72" vol="100" />
          <note key="87" pos="1296" pan="0" len="24" vol="17" />
          <note key="87" pos="1320" pan="0" len="24" vol="34" />
          <note key="87" pos="1344" pan="0" len="24" vol="100" />
          <note key="86" pos="1368" pan="0" len="24" vol="100" />
          <note key="82" pos="1392" pan="0" len="24" vol="100" />
          <note key="84" pos="1416" pan="0" len="72" vol="100" />
          <note key="67" pos="1488" pan="0" len="24" vol="100" />
          <note key="70" pos="1512" pan="0" len="24" vol="100" />
        </pattern>
      </track>
      <track solo="0" name="67 (Ch3)" type="0" muted="0">
        <instrumenttrack usemasterpitch="1" pitch="0.0" basenote="57" pan="0" pitchrange="12" vol="30">
          <eldata />
          <instrument name="tripleoscillator" />
        </instrumenttrack>
        <pattern pos="161280" muted="0" steps="16" name="" type="1">
          <note key="84" pos="96" pan="0" len="96" vol="100" />
          <note key="84" pos="288" pan="0" len="96" vol="100" />
          <note key="84" pos="480" pan="0" len="96" vol="100" />
          <note key="84" pos="672" pan="0" len="96" vol="100" />
          <note key="84" pos="864" pan="0" len="96" vol="100" />
          <note key="84" pos="1056" pan="0" len="96" vol="100" />
          <note key="84" pos="1248" pan="0" len="96" vol="52" />
          <note key="84" pos="1440" pan="0" len="96" vol="34" />
        </pattern>
        <pattern pos="141312" muted="0" steps="16" name="" type="1">
          <note key="84" pos="96" pan="0" len="96" vol="100" />
          <note key="84" pos="288" pan="0" len="96" vol="100" />
          <note key="84" pos="480" pan="0" len="96" vol="100" />
          <note key="84" pos="672" pan="0" len="96" vol="100" />
          <note key="84" pos="864" pan="0" len="96" vol="100" />
          <note key="84" pos="1056" pan="0" len="96" vol="100" />
          <note key="84" pos="1248" pan="0" len="96" vol="100" />
          <note key="84" pos="1440" pan="0" len="96" vol="100" />
        </pattern>
        <pattern pos="142848" muted="0" steps="16" name="" type="1">
          <note key="84" pos="96" pan="0" len="96" vol="100" />
          <note key="84" pos="288" pan="0" len="96" vol="100" />
          <note key="84" pos="480" pan="0" len="96" vol="100" />
          <note key="84" pos="672" pan="0" len="96" vol="100" />
          <note key="84" pos="864" pan="0" len="96" vol="100" />
          <note key="84" pos="1056" pan="0" len="96" vol="100" />
          <note key="84" pos="1248" pan="0" len="96" vol="100" />
          <note key="84" pos="1440" pan="0" len="96" vol="100" />
        </pattern>
        <pattern pos="144384" muted="0" steps="16" name="" type="1">
          <note key="84" pos="96" pan="0" len="96" vol="100" />
          <note key="84" pos="288" pan="0" len="96" vol="100" />
          <note key="84" pos="480" pan="0" len="96" vol="100" />
          <note key="84" pos="672" pan="0" len="96" vol="100" />
          <note key="84" pos="864" pan="0" len="96" vol="100" />
          <note key="84" pos="1056" pan="0" len="96" vol="100" />
          <note key="84" pos="1248" pan="0" len="96" vol="100" />
          <note key="84" pos="1440" pan="0" len="96" vol="100" />
        </pattern>
        <pattern pos="145920" muted="0" steps="16" name="" type="1">
          <note key="84" pos="96" pan="0" len="96" vol="100" />
          <note key="84" pos="288" pan="0" len="96" vol="100" />
          <note key="84" pos="480" pan="0" len="96" vol="100" />
          <note key="84" pos="672" pan="0" len="96" vol="100" />
          <note key="84" pos="864" pan="0" len="96" vol="100" />
          <note key="84" pos="1056" pan="0" len="96" vol="100" />
          <note key="84" pos="1248" pan="0" len="96" vol="100" />
          <note key="84" pos="1440" pan="0" len="96" vol="100" />
        </pattern>
        <pattern pos="147456" muted="0" steps="16" name="" type="1">
          <note key="84" pos="96" pan="0" len="96" vol="100" />
          <note key="84" pos="288" pan="0" len="96" vol="100" />
          <note key="84" pos="480" pan="0" len="96" vol="100" />
          <note key="84" pos="672" pan="0" len="96" vol="100" />
          <note key="84" pos="864" pan="0" len="96" vol="100" />
          <note key="84" pos="1056" pan="0" len="96" vol="100" />
          <note key="84" pos="1248" pan="0" len="96" vol="100" />
          <note key="84" pos="1440" pan="0" len="96" vol="100" />
        </pattern>
        <pattern pos="148992" muted="0" steps="16" name="" type="1">
          <note key="84" pos="96" pan="0" len="96" vol="100" />
          <note key="84" pos="288" pan="0" len="96" vol="100" />
          <note key="84" pos="480" pan="0" len="96" vol="100" />
          <note key="84" pos="672" pan="0" len="96" vol="100" />
          <note key="84" pos="864" pan="0" len="96" vol="100" />
          <note key="84" pos="1056" pan="0" len="96" vol="100" />
          <note key="84" pos="1248" pan="0" len="96" vol="100" />
          <note key="84" pos="1440" pan="0" len="96" vol="100" />
        </pattern>
        <pattern pos="150528" muted="0" steps="16" name="" type="1">
          <note key="84" pos="96" pan="0" len="96" vol="100" />
          <note key="84" pos="288" pan="0" len="96" vol="100" />
          <note key="84" pos="480" pan="0" len="96" vol="100" />
          <note key="84" pos="672" pan="0" len="96" vol="100" />
          <note key="84" pos="864" pan="0" len="96" vol="100" />
          <note key="84" pos="1056" pan="0" len="96" vol="100" />
          <note key="84" pos="1248" pan="0" len="96" vol="100" />
          <note key="84" pos="1440" pan="0" len="96" vol="100" />
        </pattern>
        <pattern pos="152064" muted="0" steps="16" name="" type="1">
          <note key="84" pos="96" pan="0" len="96" vol="100" />
          <note key="84" pos="288" pan="0" len="96" vol="100" />
          <note key="84" pos="480" pan="0" len="96" vol="100" />
          <note key="84" pos="672" pan="0" len="96" vol="100" />
          <note key="84" pos="864" pan="0" len="96" vol="100" />
          <note key="84" pos="1056" pan="0" len="96" vol="100" />
          <note key="84" pos="1248" pan="0" len="96" vol="100" />
          <note key="84" pos="1440" pan="0" len="96" vol="100" />
        </pattern>
        <pattern pos="153600" muted="0" steps="16" name="" type="1">
          <note key="84" pos="96" pan="0" len="96" vol="100" />
          <note key="84" pos="288" pan="0" len="96" vol="100" />
          <note key="84" pos="480" pan="0" len="96" vol="100" />
          <note key="84" pos="672" pan="0" len="96" vol="100" />
          <note key="84" pos="864" pan="0" len="96" vol="100" />
          <note key="84" pos="1056" pan="0" len="96" vol="100" />
          <note key="84" pos="1248" pan="0" len="96" vol="100" />
          <note key="84" pos="1440" pan="0" len="96" vol="100" />
        </pattern>
        <pattern pos="155136" muted="0" steps="16" name="" type="1">
          <note key="84" pos="96" pan="0" len="96" vol="100" />
          <note key="84" pos="288" pan="0" len="96" vol="100" />
          <note key="84" pos="480" pan="0" len="96" vol="100" />
          <note key="84" pos="672" pan="0" len="96" vol="100" />
          <note key="84" pos="864" pan="0" len="96" vol="100" />
          <note key="84" pos="1056" pan="0" len="96" vol="100" />
          <note key="84" pos="1248" pan="0" len="96" vol="100" />
          <note key="84" pos="1440" pan="0" len="96" vol="100" />
        </pattern>
        <pattern pos="156672" muted="0" steps="16" name="" type="1">
          <note key="84" pos="96" pan="0" len="96" vol="100" />
          <note key="84" pos="288" pan="0" len="96" vol="100" />
          <note key="84" pos="480" pan="0" len="96" vol="100" />
          <note key="84" pos="672" pan="0" len="96" vol="100" />
          <note key="84" pos="864" pan="0" len="96" vol="100" />
          <note key="84" pos="1056" pan="0" len="96" vol="100" />
          <note key="84" pos="1248" pan="0" len="96" vol="100" />
          <note key="84" pos="1440" pan="0" len="96" vol="100" />
        </pattern>
        <pattern pos="158208" muted="0" steps="16" name="" type="1">
          <note key="84" pos="96" pan="0" len="96" vol="100" />
          <note key="84" pos="288" pan="0" len="96" vol="100" />
          <note key="84" pos="480" pan="0" len="96" vol="100" />
          <note key="84" pos="672" pan="0" len="96" vol="100" />
          <note key="84" pos="864" pan="0" len="96" vol="100" />
          <note key="84" pos="1056" pan="0" len="96" vol="100" />
          <note key="84" pos="1248" pan="0" len="96" vol="100" />
          <note key="84" pos="1440" pan="0" len="96" vol="100" />
        </pattern>
        <pattern pos="159744" muted="0" steps="16" name="" type="1">
          <note key="84" pos="96" pan="0" len="96" vol="100" />
          <note key="84" pos="288" pan="0" len="96" vol="100" />
          <note key="84" pos="480" pan="0" len="96" vol="100" />
          <note key="84" pos="672" pan="0" len="96" vol="100" />
          <note key="84" pos="864" pan="0" len="96" vol="100" />
          <note key="84" pos="1056" pan="0" len="96" vol="100" />
          <note key="84" pos="1248" pan="0" len="96" vol="100" />
          <note key="84" pos="1440" pan="0" len="96" vol="100" />
        </pattern>
      </track>
      <track solo="0" name="67 (Ch9)" type="0" muted="0">
        <instrumenttrack usemasterpitch="1" pitch="0.0" basenote="57" pan="0" pitchrange="12" vol="30">
          <eldata />
          <instrument name="tripleoscillator" />
        </instrumenttrack>
        <pattern pos="247680" muted="0" steps="16" name="" type="1">
          <note key="60" pos="0" pan="0" len="1464" vol="100" />
        </pattern>
        <pattern pos="17664" muted="0" steps="16" name="" type="1">
          <note key="60" pos="768" pan="0" len="384" vol="100" />
          <note key="60" pos="1152" pan="0" len="384" vol="100" />
        </pattern>
        <pattern pos="240000" muted="0" steps="16" name="" type="1">
          <note key="60" pos="0" pan="0" len="1464" vol="100" />
        </pattern>
      </track>
      <track solo="0" name="67 (Ch10)" type="0" muted="0">
        <instrumenttrack usemasterpitch="1" pitch="0.0" basenote="57" pan="0" pitchrange="12" vol="30">
          <eldata />
          <instrument name="tripleoscillator" />
        </instrumenttrack>
        <pattern pos="196608" muted="0" steps="16" name="" type="1">
          <note key="55" pos="0" pan="0" len="48" vol="100" />
          <note key="55" pos="48" pan="0" len="144" vol="100" />
          <note key="55" pos="192" pan="0" len="48" vol="100" />
          <note key="55" pos="240" pan="0" len="120" vol="100" />
          <note key="55" pos="360" pan="0" len="24" vol="100" />
          <note key="55" pos="384" pan="0" len="48" vol="100" />
          <note key="55" pos="432" pan="0" len="120" vol="100" />
          <note key="55" pos="552" pan="0" len="24" vol="100" />
          <note key="55" pos="576" pan="0" len="48" vol="100" />
          <note key="55" pos="624" pan="0" len="120" vol="95" />
          <note key="55" pos="744" pan="0" len="24" vol="83" />
          <note key="55" pos="768" pan="0" len="48" vol="80" />
          <note key="55" pos="816" pan="0" len="120" vol="75" />
          <note key="55" pos="936" pan="0" len="24" vol="62" />
          <note key="55" pos="960" pan="0" len="48" vol="59" />
          <note key="55" pos="1008" pan="0" len="120" vol="55" />
          <note key="55" pos="1128" pan="0" len="24" vol="42" />
          <note key="55" pos="1152" pan="0" len="48" vol="41" />
          <note key="55" pos="1200" pan="0" len="120" vol="34" />
          <note key="55" pos="1320" pan="0" len="24" vol="22" />
          <note key="55" pos="1344" pan="0" len="48" vol="20" />
          <note key="55" pos="1392" pan="0" len="120" vol="16" />
          <note key="55" pos="1512" pan="0" len="24" vol="3" />
        </pattern>
        <pattern pos="190464" muted="0" steps="16" name="" type="1">
          <note key="55" pos="0" pan="0" len="48" vol="100" />
          <note key="55" pos="48" pan="0" len="144" vol="100" />
          <note key="55" pos="192" pan="0" len="48" vol="100" />
          <note key="55" pos="240" pan="0" len="120" vol="100" />
          <note key="55" pos="360" pan="0" len="24" vol="100" />
          <note key="55" pos="384" pan="0" len="48" vol="100" />
          <note key="55" pos="432" pan="0" len="120" vol="100" />
          <note key="55" pos="552" pan="0" len="24" vol="100" />
          <note key="55" pos="576" pan="0" len="48" vol="100" />
          <note key="55" pos="624" pan="0" len="120" vol="100" />
          <note key="55" pos="744" pan="0" len="24" vol="100" />
          <note key="55" pos="768" pan="0" len="48" vol="100" />
          <note key="55" pos="816" pan="0" len="120" vol="100" />
          <note key="55" pos="936" pan="0" len="24" vol="100" />
          <note key="55" pos="960" pan="0" len="48" vol="100" />
          <note key="55" pos="1008" pan="0" len="120" vol="100" />
          <note key="55" pos="1128" pan="0" len="24" vol="100" />
          <note key="55" pos="1152" pan="0" len="48" vol="100" />
          <note key="55" pos="1200" pan="0" len="120" vol="100" />
          <note key="55" pos="1320" pan="0" len="24" vol="100" />
          <note key="55" pos="1344" pan="0" len="48" vol="100" />
          <note key="55" pos="1392" pan="0" len="120" vol="100" />
          <note key="55" pos="1512" pan="0" len="24" vol="100" />
        </pattern>
        <pattern pos="195072" muted="0" steps="16" name="" type="1">
          <note key="55" pos="0" pan="0" len="48" vol="100" />
          <note key="55" pos="48" pan="0" len="144" vol="100" />
          <note key="55" pos="192" pan="0" len="48" vol="100" />
          <note key="55" pos="240" pan="0" len="120" vol="100" />
          <note key="55" pos="360" pan="0" len="24" vol="100" />
          <note key="55" pos="384" pan="0" len="48" vol="100" />
          <note key="55" pos="432" pan="0" len="120" vol="100" />
          <note key="55" pos="552" pan="0" len="24" vol="100" />
          <note key="55" pos="576" pan="0" len="48" vol="100" />
          <note key="55" pos="624" pan="0" len="120" vol="100" />
          <note key="55" pos="744" pan="0" len="24" vol="100" />
          <note key="55" pos="768" pan="0" len="48" vol="100" />
          <note key="55" pos="816" pan="0" len="120" vol="100" />
          <note key="55" pos="936" pan="0" len="24" vol="100" />
          <note key="55" pos="960" pan="0" len="48" vol="100" />
          <note key="55" pos="1008" pan="0" len="120" vol="100" />
          <note key="55" pos="1128" pan="0" len="24" vol="100" />
          <note key="55" pos="1152" pan="0" len="48" vol="100" />
          <note key="55" pos="1200" pan="0" len="120" vol="100" />
          <note key="55" pos="1320" pan="0" len="24" vol="100" />
          <note key="55" pos="1344" pan="0" len="48" vol="100" />
          <note key="55" pos="1392" pan="0" len="120" vol="100" />
          <note key="55" pos="1512" pan="0" len="24" vol="100" />
        </pattern>
      </track>
      <track solo="0" name="68 (Ch5)" type="0" muted="0">
        <instrumenttrack usemasterpitch="1" pitch="0.0" basenote="57" pan="0" pitchrange="12" vol="30">
          <eldata />
          <instrument name="tripleoscillator" />
        </instrumenttrack>
        <pattern pos="153600" muted="0" steps="16" name="" type="1">
          <note key="60" pos="48" pan="0" len="24" vol="100" />
          <note key="65" pos="72" pan="0" len="24" vol="100" />
          <note key="67" pos="96" pan="0" len="24" vol="100" />
          <note key="70" pos="120" pan="0" len="120" vol="100" />
          <note key="72" pos="240" pan="0" len="24" vol="100" />
          <note key="70" pos="264" pan="0" len="24" vol="100" />
          <note key="67" pos="288" pan="0" len="144" vol="100" />
          <note key="60" pos="432" pan="0" len="24" vol="100" />
          <note key="67" pos="456" pan="0" len="24" vol="100" />
          <note key="70" pos="480" pan="0" len="24" vol="100" />
          <note key="72" pos="504" pan="0" len="120" vol="100" />
          <note key="72" pos="624" pan="0" len="24" vol="100" />
          <note key="70" pos="648" pan="0" len="24" vol="100" />
          <note key="65" pos="672" pan="0" len="96" vol="100" />
          <note key="60" pos="816" pan="0" len="24" vol="100" />
          <note key="65" pos="840" pan="0" len="24" vol="100" />
          <note key="67" pos="864" pan="0" len="24" vol="100" />
          <note key="70" pos="888" pan="0" len="120" vol="100" />
          <note key="72" pos="1008" pan="0" len="24" vol="100" />
          <note key="70" pos="1032" pan="0" len="24" vol="100" />
          <note key="67" pos="1056" pan="0" len="144" vol="100" />
          <note key="60" pos="1200" pan="0" len="24" vol="100" />
          <note key="67" pos="1224" pan="0" len="24" vol="100" />
          <note key="70" pos="1248" pan="0" len="24" vol="100" />
          <note key="72" pos="1272" pan="0" len="120" vol="100" />
          <note key="72" pos="1392" pan="0" len="24" vol="100" />
          <note key="70" pos="1416" pan="0" len="24" vol="100" />
          <note key="72" pos="1440" pan="0" len="96" vol="100" />
        </pattern>
        <pattern pos="152064" muted="0" steps="16" name="" type="1">
          <note key="60" pos="48" pan="0" len="24" vol="100" />
          <note key="65" pos="72" pan="0" len="24" vol="100" />
          <note key="67" pos="96" pan="0" len="24" vol="100" />
          <note key="70" pos="120" pan="0" len="120" vol="100" />
          <note key="72" pos="240" pan="0" len="24" vol="100" />
          <note key="70" pos="264" pan="0" len="24" vol="100" />
          <note key="67" pos="288" pan="0" len="144" vol="100" />
          <note key="60" pos="432" pan="0" len="24" vol="100" />
          <note key="67" pos="456" pan="0" len="24" vol="100" />
          <note key="70" pos="480" pan="0" len="24" vol="100" />
          <note key="72" pos="504" pan="0" len="120" vol="100" />
          <note key="72" pos="624" pan="0" len="24" vol="100" />
          <note key="70" pos="648" pan="0" len="24" vol="100" />
          <note key="65" pos="672" pan="0" len="96" vol="100" />
          <note key="60" pos="816" pan="0" len="24" vol="100" />
          <note key="65" pos="840" pan="0" len="24" vol="100" />
          <note key="67" pos="864" pan="0" len="24" vol="100" />
          <note key="70" pos="888" pan="0" len="120" vol="100" />
          <note key="72" pos="1008" pan="0" len="24" vol="100" />
          <note key="70" pos="1032" pan="0" len="24" vol="100" />
          <note key="67" pos="1056" pan="0" len="144" vol="100" />
          <note key="60" pos="1200" pan="0" len="24" vol="100" />
          <note key="67" pos="1224" pan="0" len="24" vol="100" />
          <note key="70" pos="1248" pan="0" len="24" vol="100" />
          <note key="72" pos="1272" pan="0" len="120" vol="100" />
          <note key="72" pos="1392" pan="0" len="24" vol="100" />
          <note key="70" pos="1416" pan="0" len="24" vol="100" />
          <note key="72" pos="1440" pan="0" len="96" vol="100" />
        </pattern>
      </track>
      <track solo="0" name="68 (Ch7)" type="0" muted="0">
        <instrumenttrack usemasterpitch="1" pitch="0.0" basenote="57" pan="0" pitchrange="12" vol="30">
          <eldata />
          <instrument name="tripleoscillator" />
        </instrumenttrack>
        <pattern pos="213504" muted="0" steps="16" name="" type="1">
          <note key="78" pos="0" pan="0" len="48" vol="100" />
          <note key="83" pos="48" pan="0" len="24" vol="100" />
          <note key="82" pos="72" pan="0" len="24" vol="100" />
          <note key="78" pos="96" pan="0" len="48" vol="100" />
          <note key="83" pos="144" pan="0" len="24" vol="100" />
          <note key="82" pos="168" pan="0" len="24" vol="100" />
          <note key="78" pos="192" pan="0" len="48" vol="100" />
          <note key="83" pos="240" pan="0" len="24" vol="100" />
          <note key="82" pos="264" pan="0" len="24" vol="100" />
          <note key="86" pos="288" pan="0" len="48" vol="100" />
          <note key="88" pos="336" pan="0" len="24" vol="100" />
          <note key="86" pos="360" pan="0" len="24" vol="100" />
          <note key="85" pos="384" pan="0" len="48" vol="100" />
          <note key="86" pos="432" pan="0" len="24" vol="100" />
          <note key="85" pos="456" pan="0" len="24" vol="100" />
          <note key="78" pos="480" pan="0" len="48" vol="100" />
          <note key="83" pos="528" pan="0" len="24" vol="100" />
          <note key="82" pos="552" pan="0" len="24" vol="100" />
          <note key="78" pos="576" pan="0" len="48" vol="100" />
          <note key="83" pos="624" pan="0" len="24" vol="100" />
          <note key="82" pos="648" pan="0" len="24" vol="100" />
          <note key="86" pos="672" pan="0" len="48" vol="100" />
          <note key="85" pos="720" pan="0" len="24" vol="100" />
          <note key="83" pos="744" pan="0" len="24" vol="100" />
          <note key="78" pos="768" pan="0" len="48" vol="100" />
          <note key="83" pos="816" pan="0" len="24" vol="100" />
          <note key="82" pos="840" pan="0" len="24" vol="100" />
          <note key="78" pos="864" pan="0" len="48" vol="100" />
          <note key="83" pos="912" pan="0" len="24" vol="100" />
          <note key="82" pos="936" pan="0" len="24" vol="100" />
          <note key="78" pos="960" pan="0" len="48" vol="100" />
          <note key="83" pos="1008" pan="0" len="24" vol="100" />
          <note key="82" pos="1032" pan="0" len="24" vol="100" />
          <note key="86" pos="1056" pan="0" len="48" vol="100" />
          <note key="88" pos="1104" pan="0" len="24" vol="100" />
          <note key="86" pos="1128" pan="0" len="24" vol="100" />
          <note key="85" pos="1152" pan="0" len="48" vol="100" />
          <note key="86" pos="1200" pan="0" len="24" vol="100" />
          <note key="85" pos="1224" pan="0" len="24" vol="100" />
          <note key="78" pos="1248" pan="0" len="48" vol="100" />
          <note key="83" pos="1296" pan="0" len="24" vol="100" />
          <note key="82" pos="1320" pan="0" len="24" vol="100" />
          <note key="78" pos="1344" pan="0" len="48" vol="100" />
          <note key="83" pos="1392" pan="0" len="24" vol="100" />
          <note key="82" pos="1416" pan="0" len="24" vol="100" />
          <note key="86" pos="1440" pan="0" len="48" vol="100" />
          <note key="85" pos="1488" pan="0" len="24" vol="100" />
          <note key="83" pos="1512" pan="0" len="24" vol="100" />
        </pattern>
        <pattern pos="110592" muted="0" steps="16" name="" type="1">
          <note key="77" pos="0" pan="0" len="48" vol="100" />
          <note key="77" pos="48" pan="0" len="48" vol="100" />
          <note key="72" pos="96" pan="0" len="48" vol="100" />
          <note key="75" pos="144" pan="0" len="24" vol="100" />
          <note key="77" pos="168" pan="0" len="72" vol="100" />
          <note key="77" pos="240" pan="0" len="48" vol="100" />
          <note key="72" pos="288" pan="0" len="24" vol="100" />
          <note key="75" pos="312" pan="0" len="48" vol="100" />
          <note key="72" pos="360" pan="0" len="24" vol="100" />
          <note key="77" pos="384" pan="0" len="48" vol="100" />
          <note key="77" pos="432" pan="0" len="48" vol="100" />
          <note key="72" pos="480" pan="0" len="48" vol="100" />
          <note key="75" pos="528" pan="0" len="24" vol="100" />
          <note key="77" pos="552" pan="0" len="72" vol="100" />
          <note key="77" pos="624" pan="0" len="48" vol="100" />
          <note key="72" pos="672" pan="0" len="24" vol="100" />
          <note key="75" pos="696" pan="0" len="48" vol="100" />
          <note key="72" pos="744" pan="0" len="24" vol="100" />
          <note key="77" pos="768" pan="0" len="48" vol="100" />
          <note key="77" pos="816" pan="0" len="48" vol="100" />
          <note key="72" pos="864" pan="0" len="48" vol="100" />
          <note key="75" pos="912" pan="0" len="24" vol="100" />
          <note key="77" pos="936" pan="0" len="72" vol="100" />
          <note key="77" pos="1008" pan="0" len="48" vol="100" />
          <note key="72" pos="1056" pan="0" len="24" vol="100" />
          <note key="75" pos="1080" pan="0" len="48" vol="100" />
          <note key="72" pos="1128" pan="0" len="24" vol="100" />
          <note key="77" pos="1152" pan="0" len="48" vol="100" />
          <note key="77" pos="1200" pan="0" len="48" vol="100" />
          <note key="72" pos="1248" pan="0" len="48" vol="100" />
          <note key="75" pos="1296" pan="0" len="24" vol="100" />
          <note key="77" pos="1320" pan="0" len="72" vol="100" />
          <note key="77" pos="1392" pan="0" len="48" vol="100" />
          <note key="72" pos="1440" pan="0" len="24" vol="100" />
          <note key="75" pos="1464" pan="0" len="48" vol="100" />
          <note key="72" pos="1512" pan="0" len="24" vol="100" />
        </pattern>
        <pattern pos="112128" muted="0" steps="16" name="" type="1">
          <note key="77" pos="0" pan="0" len="48" vol="100" />
          <note key="77" pos="48" pan="0" len="48" vol="100" />
          <note key="72" pos="96" pan="0" len="48" vol="100" />
          <note key="75" pos="144" pan="0" len="24" vol="100" />
          <note key="77" pos="168" pan="0" len="72" vol="100" />
          <note key="77" pos="240" pan="0" len="48" vol="100" />
          <note key="72" pos="288" pan="0" len="24" vol="100" />
          <note key="75" pos="312" pan="0" len="48" vol="100" />
          <note key="72" pos="360" pan="0" len="24" vol="100" />
          <note key="77" pos="384" pan="0" len="48" vol="100" />
          <note key="77" pos="432" pan="0" len="48" vol="100" />
          <note key="72" pos="480" pan="0" len="48" vol="100" />
          <note key="75" pos="528" pan="0" len="24" vol="100" />
          <note key="77" pos="552" pan="0" len="72" vol="100" />
          <note key="77" pos="624" pan="0" len="48" vol="100" />
          <note key="72" pos="672" pan="0" len="24" vol="100" />
          <note key="75" pos="696" pan="0" len="48" vol="100" />
          <note key="72" pos="744" pan="0" len="24" vol="100" />
          <note key="77" pos="768" pan="0" len="48" vol="100" />
          <note key="77" pos="816" pan="0" len="48" vol="100" />
          <note key="72" pos="864" pan="0" len="48" vol="100" />
          <note key="75" pos="912" pan="0" len="24" vol="100" />
          <note key="77" pos="936" pan="0" len="72" vol="100" />
          <note key="77" pos="1008" pan="0" len="48" vol="100" />
          <note key="72" pos="1056" pan="0" len="24" vol="100" />
          <note key="75" pos="1080" pan="0" len="48" vol="100" />
          <note key="72" pos="1128" pan="0" len="24" vol="100" />
          <note key="77" pos="1152" pan="0" len="48" vol="100" />
          <note key="77" pos="1200" pan="0" len="48" vol="100" />
          <note key="72" pos="1248" pan="0" len="48" vol="100" />
          <note key="75" pos="1296" pan="0" len="24" vol="100" />
          <note key="77" pos="1320" pan="0" len="72" vol="100" />
          <note key="77" pos="1392" pan="0" len="48" vol="100" />
          <note key="72" pos="1440" pan="0" len="24" vol="100" />
          <note key="75" pos="1464" pan="0" len="48" vol="100" />
          <note key="72" pos="1512" pan="0" len="24" vol="100" />
        </pattern>
        <pattern pos="113664" muted="0" steps="16" name="" type="1">
          <note key="77" pos="0" pan="0" len="48" vol="100" />
          <note key="75" pos="48" pan="0" len="48" vol="100" />
          <note key="72" pos="96" pan="0" len="48" vol="100" />
          <note key="77" pos="144" pan="0" len="48" vol="100" />
          <note key="75" pos="192" pan="0" len="48" vol="100" />
          <note key="72" pos="240" pan="0" len="48" vol="100" />
          <note key="77" pos="288" pan="0" len="24" vol="100" />
          <note key="72" pos="312" pan="0" len="24" vol="100" />
          <note key="75" pos="336" pan="0" len="48" vol="100" />
          <note key="77" pos="384" pan="0" len="48" vol="100" />
          <note key="75" pos="432" pan="0" len="48" vol="100" />
          <note key="72" pos="480" pan="0" len="48" vol="100" />
          <note key="77" pos="528" pan="0" len="48" vol="100" />
          <note key="75" pos="576" pan="0" len="48" vol="100" />
          <note key="72" pos="624" pan="0" len="48" vol="100" />
          <note key="77" pos="672" pan="0" len="24" vol="100" />
          <note key="72" pos="696" pan="0" len="24" vol="100" />
          <note key="75" pos="720" pan="0" len="48" vol="100" />
          <note key="77" pos="768" pan="0" len="48" vol="100" />
          <note key="75" pos="816" pan="0" len="48" vol="100" />
          <note key="72" pos="864" pan="0" len="48" vol="100" />
          <note key="77" pos="912" pan="0" len="48" vol="100" />
          <note key="75" pos="960" pan="0" len="48" vol="100" />
          <note key="72" pos="1008" pan="0" len="48" vol="100" />
          <note key="77" pos="1056" pan="0" len="24" vol="100" />
          <note key="72" pos="1080" pan="0" len="24" vol="100" />
          <note key="75" pos="1104" pan="0" len="48" vol="100" />
          <note key="77" pos="1152" pan="0" len="48" vol="100" />
          <note key="75" pos="1200" pan="0" len="48" vol="100" />
          <note key="72" pos="1248" pan="0" len="48" vol="100" />
          <note key="77" pos="1296" pan="0" len="48" vol="100" />
          <note key="75" pos="1344" pan="0" len="48" vol="100" />
          <note key="72" pos="1392" pan="0" len="48" vol="100" />
          <note key="77" pos="1440" pan="0" len="24" vol="100" />
          <note key="72" pos="1464" pan="0" len="24" vol="100" />
          <note key="75" pos="1488" pan="0" len="48" vol="100" />
        </pattern>
        <pattern pos="115200" muted="0" steps="16" name="" type="1">
          <note key="77" pos="0" pan="0" len="48" vol="100" />
          <note key="75" pos="48" pan="0" len="48" vol="100" />
          <note key="72" pos="96" pan="0" len="48" vol="100" />
          <note key="77" pos="144" pan="0" len="48" vol="100" />
          <note key="75" pos="192" pan="0" len="48" vol="100" />
          <note key="72" pos="240" pan="0" len="48" vol="100" />
          <note key="77" pos="288" pan="0" len="24" vol="100" />
          <note key="72" pos="312" pan="0" len="24" vol="100" />
          <note key="75" pos="336" pan="0" len="48" vol="100" />
          <note key="77" pos="384" pan="0" len="48" vol="100" />
          <note key="75" pos="432" pan="0" len="48" vol="100" />
          <note key="72" pos="480" pan="0" len="48" vol="100" />
          <note key="77" pos="528" pan="0" len="48" vol="100" />
          <note key="75" pos="576" pan="0" len="48" vol="100" />
          <note key="72" pos="624" pan="0" len="48" vol="100" />
          <note key="77" pos="672" pan="0" len="24" vol="100" />
          <note key="72" pos="696" pan="0" len="24" vol="100" />
          <note key="75" pos="720" pan="0" len="48" vol="100" />
          <note key="77" pos="768" pan="0" len="48" vol="100" />
          <note key="75" pos="816" pan="0" len="48" vol="100" />
          <note key="72" pos="864" pan="0" len="48" vol="100" />
          <note key="77" pos="912" pan="0" len="48" vol="100" />
          <note key="75" pos="960" pan="0" len="48" vol="100" />
          <note key="72" pos="1008" pan="0" len="48" vol="100" />
          <note key="77" pos="1056" pan="0" len="24" vol="100" />
          <note key="72" pos="1080" pan="0" len="24" vol="100" />
          <note key="75" pos="1104" pan="0" len="48" vol="100" />
          <note key="77" pos="1152" pan="0" len="48" vol="100" />
          <note key="75" pos="1200" pan="0" len="48" vol="100" />
          <note key="72" pos="1248" pan="0" len="48" vol="100" />
          <note key="77" pos="1296" pan="0" len="48" vol="100" />
          <note key="75" pos="1344" pan="0" len="48" vol="100" />
          <note key="72" pos="1392" pan="0" len="48" vol="100" />
          <note key="77" pos="1440" pan="0" len="24" vol="100" />
          <note key="72" pos="1464" pan="0" len="24" vol="100" />
          <note key="75" pos="1488" pan="0" len="48" vol="100" />
        </pattern>
        <pattern pos="116736" muted="0" steps="16" name="" type="1">
          <note key="77" pos="0" pan="0" len="48" vol="100" />
          <note key="75" pos="48" pan="0" len="48" vol="100" />
          <note key="72" pos="96" pan="0" len="48" vol="100" />
          <note key="77" pos="144" pan="0" len="48" vol="100" />
          <note key="75" pos="192" pan="0" len="48" vol="100" />
          <note key="72" pos="240" pan="0" len="48" vol="100" />
          <note key="77" pos="288" pan="0" len="24" vol="100" />
          <note key="72" pos="312" pan="0" len="24" vol="100" />
          <note key="75" pos="336" pan="0" len="48" vol="100" />
          <note key="77" pos="384" pan="0" len="48" vol="100" />
          <note key="75" pos="432" pan="0" len="48" vol="100" />
          <note key="72" pos="480" pan="0" len="48" vol="100" />
          <note key="77" pos="528" pan="0" len="48" vol="100" />
          <note key="75" pos="576" pan="0" len="48" vol="100" />
          <note key="72" pos="624" pan="0" len="48" vol="100" />
          <note key="77" pos="672" pan="0" len="24" vol="100" />
          <note key="72" pos="696" pan="0" len="24" vol="100" />
          <note key="75" pos="720" pan="0" len="48" vol="100" />
          <note key="77" pos="768" pan="0" len="48" vol="100" />
          <note key="75" pos="816" pan="0" len="48" vol="100" />
          <note key="72" pos="864" pan="0" len="48" vol="100" />
          <note key="77" pos="912" pan="0" len="48" vol="100" />
          <note key="75" pos="960" pan="0" len="48" vol="100" />
          <note key="72" pos="1008" pan="0" len="48" vol="100" />
          <note key="77" pos="1056" pan="0" len="24" vol="100" />
          <note key="72" pos="1080" pan="0" len="24" vol="100" />
          <note key="75" pos="1104" pan="0" len="48" vol="100" />
          <note key="77" pos="1152" pan="0" len="48" vol="100" />
          <note key="75" pos="1200" pan="0" len="48" vol="100" />
          <note key="72" pos="1248" pan="0" len="48" vol="100" />
          <note key="77" pos="1296" pan="0" len="48" vol="100" />
          <note key="75" pos="1344" pan="0" len="48" vol="100" />
          <note key="72" pos="1392" pan="0" len="48" vol="100" />
          <note key="77" pos="1440" pan="0" len="24" vol="100" />
          <note key="72" pos="1464" pan="0" len="24" vol="100" />
          <note key="75" pos="1488" pan="0" len="48" vol="100" />
        </pattern>
        <pattern pos="118272" muted="0" steps="16" name="" type="1">
          <note key="77" pos="0" pan="0" len="48" vol="100" />
          <note key="75" pos="48" pan="0" len="48" vol="100" />
          <note key="72" pos="96" pan="0" len="48" vol="100" />
          <note key="77" pos="144" pan="0" len="48" vol="100" />
          <note key="75" pos="192" pan="0" len="48" vol="100" />
          <note key="72" pos="240" pan="0" len="48" vol="100" />
          <note key="77" pos="288" pan="0" len="24" vol="100" />
          <note key="72" pos="312" pan="0" len="24" vol="100" />
          <note key="75" pos="336" pan="0" len="48" vol="100" />
          <note key="77" pos="384" pan="0" len="48" vol="100" />
          <note key="75" pos="432" pan="0" len="48" vol="100" />
          <note key="72" pos="480" pan="0" len="48" vol="100" />
          <note key="77" pos="528" pan="0" len="48" vol="100" />
          <note key="75" pos="576" pan="0" len="48" vol="100" />
          <note key="72" pos="624" pan="0" len="48" vol="100" />
          <note key="77" pos="672" pan="0" len="24" vol="100" />
          <note key="72" pos="696" pan="0" len="24" vol="100" />
          <note key="75" pos="720" pan="0" len="48" vol="100" />
          <note key="77" pos="768" pan="0" len="48" vol="100" />
          <note key="75" pos="816" pan="0" len="48" vol="100" />
          <note key="72" pos="864" pan="0" len="48" vol="100" />
          <note key="77" pos="912" pan="0" len="48" vol="100" />
          <note key="75" pos="960" pan="0" len="48" vol="100" />
          <note key="72" pos="1008" pan="0" len="48" vol="100" />
          <note key="77" pos="1056" pan="0" len="24" vol="100" />
          <note key="72" pos="1080" pan="0" len="24" vol="100" />
          <note key="75" pos="1104" pan="0" len="48" vol="100" />
          <note key="77" pos="1152" pan="0" len="48" vol="100" />
          <note key="75" pos="1200" pan="0" len="48" vol="100" />
          <note key="72" pos="1248" pan="0" len="48" vol="100" />
          <note key="77" pos="1296" pan="0" len="48" vol="100" />
          <note key="75" pos="1344" pan="0" len="48" vol="100" />
          <note key="72" pos="1392" pan="0" len="48" vol="100" />
          <note key="77" pos="1440" pan="0" len="24" vol="100" />
          <note key="72" pos="1464" pan="0" len="24" vol="100" />
          <note key="75" pos="1488" pan="0" len="48" vol="100" />
        </pattern>
        <pattern pos="119808" muted="0" steps="16" name="" type="1">
          <note key="77" pos="0" pan="0" len="48" vol="100" />
          <note key="75" pos="48" pan="0" len="48" vol="100" />
          <note key="72" pos="96" pan="0" len="48" vol="100" />
          <note key="77" pos="144" pan="0" len="48" vol="100" />
          <note key="75" pos="192" pan="0" len="48" vol="100" />
          <note key="72" pos="240" pan="0" len="48" vol="100" />
          <note key="77" pos="288" pan="0" len="24" vol="100" />
          <note key="72" pos="312" pan="0" len="24" vol="100" />
          <note key="75" pos="336" pan="0" len="48" vol="100" />
          <note key="77" pos="384" pan="0" len="48" vol="100" />
          <note key="75" pos="432" pan="0" len="48" vol="100" />
          <note key="72" pos="480" pan="0" len="48" vol="100" />
          <note key="77" pos="528" pan="0" len="48" vol="100" />
          <note key="75" pos="576" pan="0" len="48" vol="100" />
          <note key="72" pos="624" pan="0" len="48" vol="100" />
          <note key="77" pos="672" pan="0" len="24" vol="100" />
          <note key="72" pos="696" pan="0" len="24" vol="100" />
          <note key="75" pos="720" pan="0" len="48" vol="100" />
          <note key="77" pos="768" pan="0" len="48" vol="100" />
          <note key="75" pos="816" pan="0" len="48" vol="100" />
          <note key="72" pos="864" pan="0" len="48" vol="100" />
          <note key="77" pos="912" pan="0" len="48" vol="100" />
          <note key="75" pos="960" pan="0" len="48" vol="100" />
          <note key="72" pos="1008" pan="0" len="48" vol="100" />
          <note key="77" pos="1056" pan="0" len="24" vol="100" />
          <note key="72" pos="1080" pan="0" len="24" vol="100" />
          <note key="75" pos="1104" pan="0" len="48" vol="100" />
          <note key="77" pos="1152" pan="0" len="48" vol="100" />
          <note key="75" pos="1200" pan="0" len="48" vol="100" />
          <note key="72" pos="1248" pan="0" len="48" vol="100" />
          <note key="77" pos="1296" pan="0" len="48" vol="100" />
          <note key="75" pos="1344" pan="0" len="48" vol="100" />
          <note key="72" pos="1392" pan="0" len="48" vol="100" />
          <note key="77" pos="1440" pan="0" len="24" vol="100" />
          <note key="72" pos="1464" pan="0" len="24" vol="100" />
          <note key="75" pos="1488" pan="0" len="48" vol="100" />
        </pattern>
        <pattern pos="121344" muted="0" steps="16" name="" type="1">
          <note key="77" pos="0" pan="0" len="48" vol="100" />
          <note key="75" pos="48" pan="0" len="48" vol="100" />
          <note key="72" pos="96" pan="0" len="48" vol="100" />
          <note key="77" pos="144" pan="0" len="48" vol="100" />
          <note key="75" pos="192" pan="0" len="48" vol="100" />
          <note key="72" pos="240" pan="0" len="48" vol="100" />
          <note key="77" pos="288" pan="0" len="24" vol="100" />
          <note key="72" pos="312" pan="0" len="24" vol="100" />
          <note key="75" pos="336" pan="0" len="48" vol="100" />
          <note key="77" pos="384" pan="0" len="48" vol="100" />
          <note key="75" pos="432" pan="0" len="48" vol="100" />
          <note key="72" pos="480" pan="0" len="48" vol="100" />
          <note key="77" pos="528" pan="0" len="48" vol="100" />
          <note key="75" pos="576" pan="0" len="48" vol="100" />
          <note key="72" pos="624" pan="0" len="48" vol="100" />
          <note key="77" pos="672" pan="0" len="24" vol="100" />
          <note key="72" pos="696" pan="0" len="24" vol="100" />
          <note key="75" pos="720" pan="0" len="48" vol="100" />
          <note key="77" pos="768" pan="0" len="48" vol="100" />
          <note key="75" pos="816" pan="0" len="48" vol="100" />
          <note key="72" pos="864" pan="0" len="48" vol="100" />
          <note key="77" pos="912" pan="0" len="48" vol="100" />
          <note key="75" pos="960" pan="0" len="48" vol="100" />
          <note key="72" pos="1008" pan="0" len="48" vol="100" />
          <note key="77" pos="1056" pan="0" len="24" vol="100" />
          <note key="72" pos="1080" pan="0" len="24" vol="100" />
          <note key="75" pos="1104" pan="0" len="48" vol="100" />
          <note key="77" pos="1152" pan="0" len="48" vol="100" />
          <note key="75" pos="1200" pan="0" len="48" vol="100" />
          <note key="72" pos="1248" pan="0" len="48" vol="100" />
          <note key="77" pos="1296" pan="0" len="48" vol="100" />
          <note key="75" pos="1344" pan="0" len="48" vol="100" />
          <note key="72" pos="1392" pan="0" len="48" vol="100" />
          <note key="77" pos="1440" pan="0" len="24" vol="100" />
          <note key="72" pos="1464" pan="0" len="24" vol="100" />
          <note key="75" pos="1488" pan="0" len="48" vol="100" />
        </pattern>
        <pattern pos="187392" muted="0" steps="16" name="" type="1">
          <note key="88" pos="0" pan="0" len="48" vol="100" />
          <note key="83" pos="48" pan="0" len="24" vol="100" />
          <note key="87" pos="72" pan="0" len="48" vol="100" />
          <note key="83" pos="120" pan="0" len="48" vol="100" />
          <note key="87" pos="168" pan="0" len="24" vol="100" />
          <note key="88" pos="192" pan="0" len="48" vol="100" />
          <note key="83" pos="240" pan="0" len="24" vol="100" />
          <note key="87" pos="264" pan="0" len="48" vol="100" />
          <note key="83" pos="312" pan="0" len="48" vol="100" />
          <note key="87" pos="360" pan="0" len="24" vol="100" />
          <note key="88" pos="384" pan="0" len="48" vol="100" />
          <note key="85" pos="432" pan="0" len="24" vol="100" />
          <note key="87" pos="456" pan="0" len="48" vol="100" />
          <note key="85" pos="504" pan="0" len="48" vol="100" />
          <note key="87" pos="552" pan="0" len="24" vol="100" />
          <note key="88" pos="576" pan="0" len="48" vol="100" />
          <note key="85" pos="624" pan="0" len="24" vol="100" />
          <note key="87" pos="648" pan="0" len="48" vol="100" />
          <note key="71" pos="696" pan="0" len="48" vol="100" />
          <note key="87" pos="744" pan="0" len="24" vol="100" />
          <note key="88" pos="768" pan="0" len="48" vol="100" />
          <note key="83" pos="816" pan="0" len="24" vol="100" />
          <note key="87" pos="840" pan="0" len="48" vol="100" />
          <note key="83" pos="888" pan="0" len="48" vol="100" />
          <note key="87" pos="936" pan="0" len="24" vol="100" />
          <note key="88" pos="960" pan="0" len="48" vol="100" />
          <note key="83" pos="1008" pan="0" len="24" vol="100" />
          <note key="87" pos="1032" pan="0" len="48" vol="100" />
          <note key="83" pos="1080" pan="0" len="48" vol="100" />
          <note key="87" pos="1128" pan="0" len="24" vol="100" />
          <note key="88" pos="1152" pan="0" len="48" vol="100" />
          <note key="85" pos="1200" pan="0" len="24" vol="100" />
          <note key="87" pos="1224" pan="0" len="48" vol="100" />
          <note key="85" pos="1272" pan="0" len="48" vol="100" />
          <note key="87" pos="1320" pan="0" len="24" vol="100" />
          <note key="88" pos="1344" pan="0" len="48" vol="100" />
          <note key="85" pos="1392" pan="0" len="24" vol="100" />
          <note key="87" pos="1416" pan="0" len="48" vol="100" />
          <note key="71" pos="1464" pan="0" len="72" vol="100" />
        </pattern>
        <pattern pos="192000" muted="0" steps="16" name="" type="1">
          <note key="88" pos="0" pan="0" len="48" vol="100" />
          <note key="83" pos="48" pan="0" len="24" vol="100" />
          <note key="87" pos="72" pan="0" len="48" vol="100" />
          <note key="83" pos="120" pan="0" len="48" vol="100" />
          <note key="87" pos="168" pan="0" len="24" vol="100" />
          <note key="88" pos="192" pan="0" len="48" vol="100" />
          <note key="83" pos="240" pan="0" len="24" vol="100" />
          <note key="87" pos="264" pan="0" len="48" vol="100" />
          <note key="83" pos="312" pan="0" len="48" vol="100" />
          <note key="87" pos="360" pan="0" len="24" vol="100" />
          <note key="88" pos="384" pan="0" len="48" vol="100" />
          <note key="85" pos="432" pan="0" len="24" vol="100" />
          <note key="87" pos="456" pan="0" len="48" vol="100" />
          <note key="85" pos="504" pan="0" len="48" vol="100" />
          <note key="87" pos="552" pan="0" len="24" vol="100" />
          <note key="88" pos="576" pan="0" len="48" vol="100" />
          <note key="85" pos="624" pan="0" len="24" vol="100" />
          <note key="87" pos="648" pan="0" len="48" vol="100" />
          <note key="71" pos="696" pan="0" len="48" vol="100" />
          <note key="87" pos="744" pan="0" len="24" vol="100" />
          <note key="88" pos="768" pan="0" len="48" vol="100" />
          <note key="83" pos="816" pan="0" len="24" vol="100" />
          <note key="87" pos="840" pan="0" len="48" vol="100" />
          <note key="83" pos="888" pan="0" len="48" vol="100" />
          <note key="87" pos="936" pan="0" len="24" vol="100" />
          <note key="88" pos="960" pan="0" len="48" vol="100" />
          <note key="83" pos="1008" pan="0" len="24" vol="100" />
          <note key="87" pos="1032" pan="0" len="48" vol="100" />
          <note key="83" pos="1080" pan="0" len="48" vol="100" />
          <note key="87" pos="1128" pan="0" len="24" vol="100" />
          <note key="88" pos="1152" pan="0" len="48" vol="100" />
          <note key="85" pos="1200" pan="0" len="24" vol="100" />
          <note key="87" pos="1224" pan="0" len="48" vol="100" />
          <note key="85" pos="1272" pan="0" len="48" vol="100" />
          <note key="87" pos="1320" pan="0" len="24" vol="100" />
          <note key="88" pos="1344" pan="0" len="48" vol="100" />
          <note key="85" pos="1392" pan="0" len="24" vol="100" />
          <note key="87" pos="1416" pan="0" len="48" vol="100" />
          <note key="71" pos="1464" pan="0" len="72" vol="100" />
        </pattern>
        <pattern pos="195072" muted="0" steps="16" name="" type="1">
          <note key="88" pos="0" pan="0" len="48" vol="100" />
          <note key="83" pos="48" pan="0" len="24" vol="100" />
          <note key="87" pos="72" pan="0" len="48" vol="100" />
          <note key="83" pos="120" pan="0" len="48" vol="100" />
          <note key="87" pos="168" pan="0" len="24" vol="100" />
          <note key="88" pos="192" pan="0" len="48" vol="100" />
          <note key="83" pos="240" pan="0" len="24" vol="100" />
          <note key="87" pos="264" pan="0" len="48" vol="100" />
          <note key="83" pos="312" pan="0" len="48" vol="100" />
          <note key="87" pos="360" pan="0" len="24" vol="100" />
          <note key="88" pos="384" pan="0" len="48" vol="100" />
          <note key="85" pos="432" pan="0" len="24" vol="100" />
          <note key="87" pos="456" pan="0" len="48" vol="100" />
          <note key="85" pos="504" pan="0" len="48" vol="100" />
          <note key="87" pos="552" pan="0" len="24" vol="100" />
          <note key="88" pos="576" pan="0" len="48" vol="100" />
          <note key="85" pos="624" pan="0" len="24" vol="100" />
          <note key="87" pos="648" pan="0" len="48" vol="100" />
          <note key="71" pos="696" pan="0" len="48" vol="100" />
          <note key="87" pos="744" pan="0" len="24" vol="100" />
          <note key="88" pos="768" pan="0" len="48" vol="100" />
          <note key="83" pos="816" pan="0" len="24" vol="100" />
          <note key="87" pos="840" pan="0" len="48" vol="100" />
          <note key="83" pos="888" pan="0" len="48" vol="100" />
          <note key="87" pos="936" pan="0" len="24" vol="100" />
          <note key="88" pos="960" pan="0" len="48" vol="100" />
          <note key="83" pos="1008" pan="0" len="24" vol="100" />
          <note key="87" pos="1032" pan="0" len="48" vol="100" />
          <note key="83" pos="1080" pan="0" len="48" vol="100" />
          <note key="87" pos="1128" pan="0" len="24" vol="100" />
          <note key="88" pos="1152" pan="0" len="48" vol="100" />
          <note key="85" pos="1200" pan="0" len="24" vol="100" />
          <note key="87" pos="1224" pan="0" len="48" vol="100" />
          <note key="85" pos="1272" pan="0" len="48" vol="100" />
          <note key="87" pos="1320" pan="0" len="24" vol="100" />
          <note key="88" pos="1344" pan="0" len="48" vol="100" />
          <note key="85" pos="1392" pan="0" len="24" vol="100" />
          <note key="87" pos="1416" pan="0" len="48" vol="100" />
          <note key="71" pos="1464" pan="0" len="72" vol="100" />
        </pattern>
        <pattern pos="199680" muted="0" steps="16" name="" type="1">
          <note key="76" pos="0" pan="0" len="48" vol="100" />
          <note key="81" pos="48" pan="0" len="24" vol="100" />
          <note key="80" pos="72" pan="0" len="24" vol="100" />
          <note key="76" pos="96" pan="0" len="48" vol="100" />
          <note key="81" pos="144" pan="0" len="24" vol="100" />
          <note key="80" pos="168" pan="0" len="24" vol="100" />
          <note key="76" pos="192" pan="0" len="48" vol="100" />
          <note key="81" pos="240" pan="0" len="24" vol="100" />
          <note key="80" pos="264" pan="0" len="24" vol="100" />
          <note key="84" pos="288" pan="0" len="48" vol="100" />
          <note key="86" pos="336" pan="0" len="24" vol="100" />
          <note key="84" pos="360" pan="0" len="24" vol="100" />
          <note key="83" pos="384" pan="0" len="48" vol="100" />
          <note key="84" pos="432" pan="0" len="24" vol="100" />
          <note key="83" pos="456" pan="0" len="24" vol="100" />
          <note key="76" pos="480" pan="0" len="48" vol="100" />
          <note key="81" pos="528" pan="0" len="24" vol="100" />
          <note key="80" pos="552" pan="0" len="24" vol="100" />
          <note key="76" pos="576" pan="0" len="48" vol="100" />
          <note key="81" pos="624" pan="0" len="24" vol="100" />
          <note key="80" pos="648" pan="0" len="24" vol="100" />
          <note key="84" pos="672" pan="0" len="48" vol="100" />
          <note key="83" pos="720" pan="0" len="24" vol="100" />
          <note key="81" pos="744" pan="0" len="24" vol="100" />
          <note key="76" pos="768" pan="0" len="48" vol="100" />
          <note key="81" pos="816" pan="0" len="24" vol="100" />
          <note key="80" pos="840" pan="0" len="24" vol="100" />
          <note key="76" pos="864" pan="0" len="48" vol="100" />
          <note key="81" pos="912" pan="0" len="24" vol="100" />
          <note key="80" pos="936" pan="0" len="24" vol="100" />
          <note key="76" pos="960" pan="0" len="48" vol="100" />
          <note key="81" pos="1008" pan="0" len="24" vol="100" />
          <note key="80" pos="1032" pan="0" len="24" vol="100" />
          <note key="84" pos="1056" pan="0" len="48" vol="100" />
          <note key="86" pos="1104" pan="0" len="24" vol="100" />
          <note key="84" pos="1128" pan="0" len="24" vol="100" />
          <note key="83" pos="1152" pan="0" len="48" vol="100" />
          <note key="84" pos="1200" pan="0" len="24" vol="100" />
          <note key="83" pos="1224" pan="0" len="24" vol="100" />
          <note key="76" pos="1248" pan="0" len="48" vol="100" />
          <note key="81" pos="1296" pan="0" len="24" vol="100" />
          <note key="80" pos="1320" pan="0" len="24" vol="100" />
          <note key="76" pos="1344" pan="0" len="48" vol="100" />
          <note key="81" pos="1392" pan="0" len="24" vol="100" />
          <note key="80" pos="1416" pan="0" len="24" vol="100" />
          <note key="84" pos="1440" pan="0" len="48" vol="100" />
          <note key="83" pos="1488" pan="0" len="24" vol="100" />
          <note key="81" pos="1512" pan="0" len="24" vol="100" />
        </pattern>
        <pattern pos="201216" muted="0" steps="16" name="" type="1">
          <note key="76" pos="0" pan="0" len="96" vol="100" />
          <note key="81" pos="96" pan="0" len="48" vol="100" />
          <note key="80" pos="144" pan="0" len="48" vol="100" />
          <note key="76" pos="192" pan="0" len="96" vol="100" />
          <note key="83" pos="288" pan="0" len="48" vol="100" />
          <note key="81" pos="336" pan="0" len="48" vol="100" />
          <note key="76" pos="384" pan="0" len="96" vol="100" />
          <note key="81" pos="480" pan="0" len="48" vol="100" />
          <note key="80" pos="528" pan="0" len="48" vol="100" />
          <note key="84" pos="576" pan="0" len="96" vol="100" />
          <note key="86" pos="672" pan="0" len="48" vol="100" />
          <note key="84" pos="720" pan="0" len="48" vol="100" />
          <note key="83" pos="768" pan="0" len="96" vol="100" />
          <note key="84" pos="864" pan="0" len="48" vol="100" />
          <note key="83" pos="912" pan="0" len="48" vol="100" />
          <note key="76" pos="960" pan="0" len="96" vol="100" />
          <note key="81" pos="1056" pan="0" len="48" vol="100" />
          <note key="80" pos="1104" pan="0" len="48" vol="100" />
          <note key="76" pos="1152" pan="0" len="96" vol="100" />
          <note key="81" pos="1248" pan="0" len="48" vol="100" />
          <note key="80" pos="1296" pan="0" len="48" vol="100" />
          <note key="84" pos="1344" pan="0" len="96" vol="100" />
          <note key="83" pos="1440" pan="0" len="48" vol="100" />
          <note key="81" pos="1488" pan="0" len="48" vol="100" />
        </pattern>
        <pattern pos="202752" muted="0" steps="16" name="" type="1">
          <note key="76" pos="0" pan="0" len="96" vol="100" />
          <note key="81" pos="96" pan="0" len="48" vol="100" />
          <note key="80" pos="144" pan="0" len="48" vol="100" />
          <note key="76" pos="192" pan="0" len="96" vol="100" />
          <note key="83" pos="288" pan="0" len="48" vol="100" />
          <note key="81" pos="336" pan="0" len="48" vol="100" />
          <note key="76" pos="384" pan="0" len="96" vol="100" />
          <note key="81" pos="480" pan="0" len="48" vol="100" />
          <note key="80" pos="528" pan="0" len="48" vol="100" />
          <note key="84" pos="576" pan="0" len="96" vol="100" />
          <note key="86" pos="672" pan="0" len="48" vol="100" />
          <note key="84" pos="720" pan="0" len="48" vol="100" />
          <note key="83" pos="768" pan="0" len="96" vol="100" />
          <note key="84" pos="864" pan="0" len="48" vol="100" />
          <note key="83" pos="912" pan="0" len="48" vol="100" />
          <note key="76" pos="960" pan="0" len="96" vol="100" />
          <note key="81" pos="1056" pan="0" len="48" vol="100" />
          <note key="80" pos="1104" pan="0" len="48" vol="100" />
          <note key="76" pos="1152" pan="0" len="96" vol="100" />
          <note key="81" pos="1248" pan="0" len="48" vol="100" />
          <note key="80" pos="1296" pan="0" len="48" vol="100" />
          <note key="84" pos="1344" pan="0" len="96" vol="100" />
          <note key="83" pos="1440" pan="0" len="48" vol="100" />
          <note key="81" pos="1488" pan="0" len="48" vol="100" />
        </pattern>
        <pattern pos="207360" muted="0" steps="16" name="" type="1">
          <note key="76" pos="0" pan="0" len="96" vol="100" />
          <note key="81" pos="96" pan="0" len="48" vol="100" />
          <note key="80" pos="144" pan="0" len="48" vol="100" />
          <note key="76" pos="192" pan="0" len="96" vol="100" />
          <note key="83" pos="288" pan="0" len="48" vol="100" />
          <note key="81" pos="336" pan="0" len="48" vol="100" />
          <note key="76" pos="384" pan="0" len="96" vol="100" />
          <note key="81" pos="480" pan="0" len="48" vol="100" />
          <note key="80" pos="528" pan="0" len="48" vol="100" />
          <note key="84" pos="576" pan="0" len="96" vol="100" />
          <note key="86" pos="672" pan="0" len="48" vol="100" />
          <note key="84" pos="720" pan="0" len="48" vol="100" />
          <note key="83" pos="768" pan="0" len="96" vol="100" />
          <note key="84" pos="864" pan="0" len="48" vol="100" />
          <note key="83" pos="912" pan="0" len="48" vol="100" />
          <note key="76" pos="960" pan="0" len="96" vol="100" />
          <note key="81" pos="1056" pan="0" len="48" vol="100" />
          <note key="80" pos="1104" pan="0" len="48" vol="100" />
          <note key="76" pos="1152" pan="0" len="96" vol="100" />
          <note key="81" pos="1248" pan="0" len="48" vol="100" />
          <note key="80" pos="1296" pan="0" len="48" vol="100" />
          <note key="84" pos="1344" pan="0" len="96" vol="100" />
          <note key="83" pos="1440" pan="0" len="48" vol="100" />
          <note key="81" pos="1488" pan="0" len="48" vol="100" />
        </pattern>
        <pattern pos="208896" muted="0" steps="16" name="" type="1">
          <note key="76" pos="0" pan="0" len="96" vol="100" />
          <note key="81" pos="96" pan="0" len="48" vol="100" />
          <note key="80" pos="144" pan="0" len="48" vol="100" />
          <note key="76" pos="192" pan="0" len="96" vol="100" />
          <note key="83" pos="288" pan="0" len="48" vol="100" />
          <note key="81" pos="336" pan="0" len="48" vol="100" />
          <note key="76" pos="384" pan="0" len="96" vol="100" />
          <note key="81" pos="480" pan="0" len="48" vol="100" />
          <note key="80" pos="528" pan="0" len="48" vol="100" />
          <note key="84" pos="576" pan="0" len="96" vol="100" />
          <note key="86" pos="672" pan="0" len="48" vol="100" />
          <note key="84" pos="720" pan="0" len="48" vol="100" />
          <note key="83" pos="768" pan="0" len="96" vol="100" />
          <note key="84" pos="864" pan="0" len="48" vol="100" />
          <note key="83" pos="912" pan="0" len="48" vol="100" />
          <note key="76" pos="960" pan="0" len="96" vol="100" />
          <note key="81" pos="1056" pan="0" len="48" vol="100" />
          <note key="80" pos="1104" pan="0" len="48" vol="100" />
          <note key="76" pos="1152" pan="0" len="96" vol="100" />
          <note key="81" pos="1248" pan="0" len="48" vol="100" />
          <note key="80" pos="1296" pan="0" len="48" vol="100" />
          <note key="84" pos="1344" pan="0" len="96" vol="100" />
          <note key="83" pos="1440" pan="0" len="48" vol="100" />
          <note key="81" pos="1488" pan="0" len="48" vol="100" />
        </pattern>
      </track>
      <track solo="0" name="68 (Ch8)" type="0" muted="0">
        <instrumenttrack usemasterpitch="1" pitch="0.0" basenote="57" pan="0" pitchrange="12" vol="30">
          <eldata />
          <instrument name="tripleoscillator" />
        </instrumenttrack>
        <pattern pos="192000" muted="0" steps="16" name="" type="1">
          <note key="76" pos="0" pan="0" len="48" vol="100" />
          <note key="71" pos="48" pan="0" len="24" vol="100" />
          <note key="75" pos="72" pan="0" len="48" vol="100" />
          <note key="71" pos="120" pan="0" len="48" vol="100" />
          <note key="75" pos="168" pan="0" len="24" vol="100" />
          <note key="76" pos="192" pan="0" len="48" vol="100" />
          <note key="71" pos="240" pan="0" len="24" vol="100" />
          <note key="75" pos="264" pan="0" len="48" vol="100" />
          <note key="71" pos="312" pan="0" len="48" vol="100" />
          <note key="75" pos="360" pan="0" len="24" vol="100" />
          <note key="76" pos="384" pan="0" len="48" vol="100" />
          <note key="73" pos="432" pan="0" len="24" vol="100" />
          <note key="75" pos="456" pan="0" len="48" vol="100" />
          <note key="73" pos="504" pan="0" len="48" vol="100" />
          <note key="75" pos="552" pan="0" len="24" vol="100" />
          <note key="76" pos="576" pan="0" len="48" vol="100" />
          <note key="73" pos="624" pan="0" len="24" vol="100" />
          <note key="75" pos="648" pan="0" len="48" vol="100" />
          <note key="83" pos="696" pan="0" len="48" vol="100" />
          <note key="75" pos="744" pan="0" len="24" vol="100" />
          <note key="76" pos="768" pan="0" len="48" vol="100" />
          <note key="71" pos="816" pan="0" len="24" vol="100" />
          <note key="75" pos="840" pan="0" len="48" vol="100" />
          <note key="71" pos="888" pan="0" len="48" vol="100" />
          <note key="75" pos="936" pan="0" len="24" vol="100" />
          <note key="76" pos="960" pan="0" len="48" vol="100" />
          <note key="71" pos="1008" pan="0" len="24" vol="100" />
          <note key="75" pos="1032" pan="0" len="48" vol="100" />
          <note key="71" pos="1080" pan="0" len="48" vol="100" />
          <note key="75" pos="1128" pan="0" len="24" vol="100" />
          <note key="76" pos="1152" pan="0" len="48" vol="100" />
          <note key="73" pos="1200" pan="0" len="24" vol="100" />
          <note key="75" pos="1224" pan="0" len="48" vol="100" />
          <note key="73" pos="1272" pan="0" len="48" vol="100" />
          <note key="75" pos="1320" pan="0" len="24" vol="100" />
          <note key="76" pos="1344" pan="0" len="48" vol="100" />
          <note key="73" pos="1392" pan="0" len="24" vol="100" />
          <note key="75" pos="1416" pan="0" len="48" vol="100" />
          <note key="83" pos="1464" pan="0" len="72" vol="100" />
        </pattern>
        <pattern pos="95232" muted="0" steps="16" name="" type="1">
          <note key="82" pos="0" pan="0" len="48" vol="100" />
          <note key="84" pos="48" pan="0" len="48" vol="100" />
          <note key="79" pos="96" pan="0" len="48" vol="100" />
          <note key="82" pos="144" pan="0" len="24" vol="100" />
          <note key="84" pos="168" pan="0" len="72" vol="100" />
          <note key="79" pos="240" pan="0" len="48" vol="100" />
          <note key="82" pos="288" pan="0" len="24" vol="100" />
          <note key="84" pos="312" pan="0" len="48" vol="100" />
          <note key="84" pos="360" pan="0" len="24" vol="100" />
          <note key="82" pos="384" pan="0" len="48" vol="100" />
          <note key="84" pos="432" pan="0" len="48" vol="100" />
          <note key="79" pos="480" pan="0" len="48" vol="100" />
          <note key="82" pos="528" pan="0" len="24" vol="100" />
          <note key="84" pos="552" pan="0" len="72" vol="100" />
          <note key="79" pos="624" pan="0" len="48" vol="100" />
          <note key="82" pos="672" pan="0" len="24" vol="100" />
          <note key="84" pos="696" pan="0" len="48" vol="100" />
          <note key="84" pos="744" pan="0" len="24" vol="100" />
          <note key="82" pos="768" pan="0" len="48" vol="100" />
          <note key="84" pos="816" pan="0" len="48" vol="100" />
          <note key="79" pos="864" pan="0" len="48" vol="100" />
          <note key="82" pos="912" pan="0" len="24" vol="100" />
          <note key="84" pos="936" pan="0" len="72" vol="100" />
          <note key="79" pos="1008" pan="0" len="48" vol="100" />
          <note key="82" pos="1056" pan="0" len="24" vol="100" />
          <note key="84" pos="1080" pan="0" len="48" vol="100" />
          <note key="84" pos="1128" pan="0" len="24" vol="100" />
          <note key="82" pos="1152" pan="0" len="48" vol="100" />
          <note key="84" pos="1200" pan="0" len="48" vol="100" />
          <note key="79" pos="1248" pan="0" len="48" vol="100" />
          <note key="82" pos="1296" pan="0" len="24" vol="100" />
          <note key="84" pos="1320" pan="0" len="72" vol="100" />
          <note key="79" pos="1392" pan="0" len="48" vol="100" />
          <note key="82" pos="1440" pan="0" len="24" vol="100" />
          <note key="84" pos="1464" pan="0" len="48" vol="100" />
          <note key="84" pos="1512" pan="0" len="24" vol="100" />
        </pattern>
        <pattern pos="96768" muted="0" steps="16" name="" type="1">
          <note key="82" pos="0" pan="0" len="48" vol="100" />
          <note key="84" pos="48" pan="0" len="48" vol="100" />
          <note key="79" pos="96" pan="0" len="48" vol="100" />
          <note key="82" pos="144" pan="0" len="24" vol="100" />
          <note key="84" pos="168" pan="0" len="72" vol="100" />
          <note key="79" pos="240" pan="0" len="48" vol="100" />
          <note key="82" pos="288" pan="0" len="24" vol="100" />
          <note key="84" pos="312" pan="0" len="48" vol="100" />
          <note key="84" pos="360" pan="0" len="24" vol="100" />
          <note key="82" pos="384" pan="0" len="48" vol="100" />
          <note key="84" pos="432" pan="0" len="48" vol="100" />
          <note key="79" pos="480" pan="0" len="48" vol="100" />
          <note key="82" pos="528" pan="0" len="24" vol="100" />
          <note key="84" pos="552" pan="0" len="72" vol="100" />
          <note key="79" pos="624" pan="0" len="48" vol="100" />
          <note key="82" pos="672" pan="0" len="24" vol="100" />
          <note key="84" pos="696" pan="0" len="48" vol="100" />
          <note key="84" pos="744" pan="0" len="24" vol="100" />
          <note key="82" pos="768" pan="0" len="48" vol="100" />
          <note key="84" pos="816" pan="0" len="48" vol="100" />
          <note key="79" pos="864" pan="0" len="48" vol="100" />
          <note key="82" pos="912" pan="0" len="24" vol="100" />
          <note key="84" pos="936" pan="0" len="72" vol="100" />
          <note key="79" pos="1008" pan="0" len="48" vol="100" />
          <note key="82" pos="1056" pan="0" len="24" vol="100" />
          <note key="84" pos="1080" pan="0" len="48" vol="100" />
          <note key="84" pos="1128" pan="0" len="24" vol="100" />
          <note key="82" pos="1152" pan="0" len="48" vol="100" />
          <note key="84" pos="1200" pan="0" len="48" vol="100" />
          <note key="79" pos="1248" pan="0" len="48" vol="100" />
          <note key="82" pos="1296" pan="0" len="24" vol="100" />
          <note key="84" pos="1320" pan="0" len="72" vol="100" />
          <note key="79" pos="1392" pan="0" len="48" vol="100" />
          <note key="82" pos="1440" pan="0" len="24" vol="100" />
          <note key="84" pos="1464" pan="0" len="48" vol="100" />
          <note key="84" pos="1512" pan="0" len="24" vol="100" />
        </pattern>
        <pattern pos="98304" muted="0" steps="16" name="" type="1">
          <note key="82" pos="0" pan="0" len="48" vol="100" />
          <note key="84" pos="48" pan="0" len="48" vol="100" />
          <note key="79" pos="96" pan="0" len="48" vol="100" />
          <note key="82" pos="144" pan="0" len="24" vol="100" />
          <note key="84" pos="168" pan="0" len="72" vol="100" />
          <note key="79" pos="240" pan="0" len="48" vol="100" />
          <note key="82" pos="288" pan="0" len="24" vol="100" />
          <note key="84" pos="312" pan="0" len="48" vol="100" />
          <note key="84" pos="360" pan="0" len="24" vol="100" />
          <note key="82" pos="384" pan="0" len="48" vol="100" />
          <note key="84" pos="432" pan="0" len="48" vol="100" />
          <note key="79" pos="480" pan="0" len="48" vol="100" />
          <note key="82" pos="528" pan="0" len="24" vol="100" />
          <note key="84" pos="552" pan="0" len="72" vol="100" />
          <note key="79" pos="624" pan="0" len="48" vol="100" />
          <note key="82" pos="672" pan="0" len="24" vol="100" />
          <note key="84" pos="696" pan="0" len="48" vol="100" />
          <note key="84" pos="744" pan="0" len="24" vol="100" />
          <note key="82" pos="768" pan="0" len="48" vol="100" />
          <note key="84" pos="816" pan="0" len="48" vol="100" />
          <note key="79" pos="864" pan="0" len="48" vol="100" />
          <note key="82" pos="912" pan="0" len="24" vol="100" />
          <note key="84" pos="936" pan="0" len="72" vol="100" />
          <note key="79" pos="1008" pan="0" len="48" vol="100" />
          <note key="82" pos="1056" pan="0" len="24" vol="100" />
          <note key="84" pos="1080" pan="0" len="48" vol="100" />
          <note key="84" pos="1128" pan="0" len="24" vol="100" />
          <note key="82" pos="1152" pan="0" len="48" vol="100" />
          <note key="84" pos="1200" pan="0" len="48" vol="100" />
          <note key="79" pos="1248" pan="0" len="48" vol="100" />
          <note key="82" pos="1296" pan="0" len="24" vol="100" />
          <note key="84" pos="1320" pan="0" len="72" vol="100" />
          <note key="79" pos="1392" pan="0" len="48" vol="100" />
          <note key="82" pos="1440" pan="0" len="24" vol="100" />
          <note key="84" pos="1464" pan="0" len="48" vol="100" />
          <note key="84" pos="1512" pan="0" len="24" vol="100" />
        </pattern>
        <pattern pos="99840" muted="0" steps="16" name="" type="1">
          <note key="82" pos="0" pan="0" len="48" vol="100" />
          <note key="84" pos="48" pan="0" len="48" vol="100" />
          <note key="79" pos="96" pan="0" len="48" vol="100" />
          <note key="82" pos="144" pan="0" len="24" vol="100" />
          <note key="84" pos="168" pan="0" len="72" vol="100" />
          <note key="79" pos="240" pan="0" len="48" vol="100" />
          <note key="82" pos="288" pan="0" len="24" vol="100" />
          <note key="84" pos="312" pan="0" len="48" vol="100" />
          <note key="84" pos="360" pan="0" len="24" vol="100" />
          <note key="82" pos="384" pan="0" len="48" vol="100" />
          <note key="84" pos="432" pan="0" len="48" vol="100" />
          <note key="79" pos="480" pan="0" len="48" vol="100" />
          <note key="82" pos="528" pan="0" len="24" vol="100" />
          <note key="84" pos="552" pan="0" len="72" vol="100" />
          <note key="79" pos="624" pan="0" len="48" vol="100" />
          <note key="82" pos="672" pan="0" len="24" vol="100" />
          <note key="84" pos="696" pan="0" len="48" vol="100" />
          <note key="84" pos="744" pan="0" len="24" vol="100" />
          <note key="82" pos="768" pan="0" len="48" vol="100" />
          <note key="84" pos="816" pan="0" len="48" vol="100" />
          <note key="79" pos="864" pan="0" len="48" vol="100" />
          <note key="82" pos="912" pan="0" len="24" vol="100" />
          <note key="84" pos="936" pan="0" len="72" vol="100" />
          <note key="79" pos="1008" pan="0" len="48" vol="100" />
          <note key="82" pos="1056" pan="0" len="24" vol="100" />
          <note key="84" pos="1080" pan="0" len="48" vol="100" />
          <note key="84" pos="1128" pan="0" len="24" vol="100" />
          <note key="82" pos="1152" pan="0" len="48" vol="100" />
          <note key="84" pos="1200" pan="0" len="48" vol="100" />
          <note key="79" pos="1248" pan="0" len="48" vol="100" />
          <note key="82" pos="1296" pan="0" len="24" vol="100" />
          <note key="84" pos="1320" pan="0" len="72" vol="100" />
          <note key="79" pos="1392" pan="0" len="48" vol="100" />
          <note key="82" pos="1440" pan="0" len="24" vol="100" />
          <note key="84" pos="1464" pan="0" len="48" vol="100" />
          <note key="84" pos="1512" pan="0" len="24" vol="100" />
        </pattern>
        <pattern pos="101376" muted="0" steps="16" name="" type="1">
          <note key="84" pos="0" pan="0" len="48" vol="100" />
          <note key="86" pos="48" pan="0" len="48" vol="100" />
          <note key="81" pos="96" pan="0" len="48" vol="100" />
          <note key="84" pos="144" pan="0" len="24" vol="100" />
          <note key="86" pos="168" pan="0" len="72" vol="100" />
          <note key="81" pos="240" pan="0" len="48" vol="100" />
          <note key="84" pos="288" pan="0" len="24" vol="100" />
          <note key="86" pos="312" pan="0" len="48" vol="100" />
          <note key="86" pos="360" pan="0" len="24" vol="100" />
          <note key="84" pos="384" pan="0" len="48" vol="100" />
          <note key="86" pos="432" pan="0" len="48" vol="100" />
          <note key="81" pos="480" pan="0" len="48" vol="100" />
          <note key="84" pos="528" pan="0" len="24" vol="100" />
          <note key="86" pos="552" pan="0" len="72" vol="100" />
          <note key="81" pos="624" pan="0" len="48" vol="100" />
          <note key="84" pos="672" pan="0" len="24" vol="100" />
          <note key="86" pos="696" pan="0" len="48" vol="100" />
          <note key="86" pos="744" pan="0" len="24" vol="100" />
          <note key="77" pos="768" pan="0" len="48" vol="100" />
          <note key="79" pos="816" pan="0" len="48" vol="100" />
          <note key="74" pos="864" pan="0" len="48" vol="100" />
          <note key="77" pos="912" pan="0" len="24" vol="100" />
          <note key="79" pos="936" pan="0" len="72" vol="100" />
          <note key="74" pos="1008" pan="0" len="48" vol="100" />
          <note key="77" pos="1056" pan="0" len="24" vol="100" />
          <note key="79" pos="1080" pan="0" len="48" vol="100" />
          <note key="77" pos="1128" pan="0" len="24" vol="100" />
          <note key="77" pos="1152" pan="0" len="48" vol="100" />
          <note key="79" pos="1200" pan="0" len="48" vol="100" />
          <note key="74" pos="1248" pan="0" len="48" vol="100" />
          <note key="77" pos="1296" pan="0" len="24" vol="100" />
          <note key="79" pos="1320" pan="0" len="72" vol="100" />
          <note key="74" pos="1392" pan="0" len="48" vol="100" />
          <note key="77" pos="1440" pan="0" len="24" vol="100" />
          <note key="79" pos="1464" pan="0" len="48" vol="100" />
          <note key="77" pos="1512" pan="0" len="24" vol="100" />
        </pattern>
        <pattern pos="102912" muted="0" steps="16" name="" type="1">
          <note key="84" pos="0" pan="0" len="48" vol="100" />
          <note key="86" pos="48" pan="0" len="48" vol="100" />
          <note key="81" pos="96" pan="0" len="48" vol="100" />
          <note key="84" pos="144" pan="0" len="24" vol="100" />
          <note key="86" pos="168" pan="0" len="72" vol="100" />
          <note key="81" pos="240" pan="0" len="48" vol="100" />
          <note key="84" pos="288" pan="0" len="24" vol="100" />
          <note key="86" pos="312" pan="0" len="48" vol="100" />
          <note key="86" pos="360" pan="0" len="24" vol="100" />
          <note key="84" pos="384" pan="0" len="48" vol="100" />
          <note key="86" pos="432" pan="0" len="48" vol="100" />
          <note key="81" pos="480" pan="0" len="48" vol="100" />
          <note key="84" pos="528" pan="0" len="24" vol="100" />
          <note key="86" pos="552" pan="0" len="72" vol="100" />
          <note key="81" pos="624" pan="0" len="48" vol="100" />
          <note key="84" pos="672" pan="0" len="24" vol="100" />
          <note key="86" pos="696" pan="0" len="48" vol="100" />
          <note key="86" pos="744" pan="0" len="24" vol="100" />
          <note key="77" pos="768" pan="0" len="48" vol="100" />
          <note key="79" pos="816" pan="0" len="48" vol="100" />
          <note key="74" pos="864" pan="0" len="48" vol="100" />
          <note key="77" pos="912" pan="0" len="24" vol="100" />
          <note key="79" pos="936" pan="0" len="72" vol="100" />
          <note key="74" pos="1008" pan="0" len="48" vol="100" />
          <note key="77" pos="1056" pan="0" len="24" vol="100" />
          <note key="79" pos="1080" pan="0" len="48" vol="100" />
          <note key="77" pos="1128" pan="0" len="24" vol="100" />
          <note key="77" pos="1152" pan="0" len="48" vol="100" />
          <note key="79" pos="1200" pan="0" len="48" vol="100" />
          <note key="74" pos="1248" pan="0" len="48" vol="100" />
          <note key="77" pos="1296" pan="0" len="24" vol="100" />
          <note key="79" pos="1320" pan="0" len="72" vol="100" />
          <note key="74" pos="1392" pan="0" len="48" vol="100" />
          <note key="77" pos="1440" pan="0" len="24" vol="100" />
          <note key="79" pos="1464" pan="0" len="48" vol="100" />
          <note key="77" pos="1512" pan="0" len="24" vol="100" />
        </pattern>
        <pattern pos="113664" muted="0" steps="16" name="" type="1">
          <note key="89" pos="0" pan="0" len="48" vol="100" />
          <note key="87" pos="48" pan="0" len="48" vol="100" />
          <note key="84" pos="96" pan="0" len="48" vol="100" />
          <note key="89" pos="144" pan="0" len="48" vol="100" />
          <note key="87" pos="192" pan="0" len="48" vol="100" />
          <note key="84" pos="240" pan="0" len="48" vol="100" />
          <note key="89" pos="288" pan="0" len="24" vol="100" />
          <note key="84" pos="312" pan="0" len="24" vol="100" />
          <note key="87" pos="336" pan="0" len="48" vol="100" />
          <note key="89" pos="384" pan="0" len="48" vol="100" />
          <note key="87" pos="432" pan="0" len="48" vol="100" />
          <note key="84" pos="480" pan="0" len="48" vol="100" />
          <note key="89" pos="528" pan="0" len="48" vol="100" />
          <note key="87" pos="576" pan="0" len="48" vol="100" />
          <note key="84" pos="624" pan="0" len="48" vol="100" />
          <note key="89" pos="672" pan="0" len="24" vol="100" />
          <note key="84" pos="696" pan="0" len="24" vol="100" />
          <note key="87" pos="720" pan="0" len="48" vol="100" />
          <note key="89" pos="768" pan="0" len="48" vol="100" />
          <note key="87" pos="816" pan="0" len="48" vol="100" />
          <note key="84" pos="864" pan="0" len="48" vol="100" />
          <note key="89" pos="912" pan="0" len="48" vol="100" />
          <note key="87" pos="960" pan="0" len="48" vol="100" />
          <note key="84" pos="1008" pan="0" len="48" vol="100" />
          <note key="89" pos="1056" pan="0" len="24" vol="100" />
          <note key="84" pos="1080" pan="0" len="24" vol="100" />
          <note key="87" pos="1104" pan="0" len="48" vol="100" />
          <note key="89" pos="1152" pan="0" len="48" vol="100" />
          <note key="87" pos="1200" pan="0" len="48" vol="100" />
          <note key="84" pos="1248" pan="0" len="48" vol="100" />
          <note key="89" pos="1296" pan="0" len="48" vol="100" />
          <note key="87" pos="1344" pan="0" len="48" vol="100" />
          <note key="84" pos="1392" pan="0" len="48" vol="100" />
          <note key="89" pos="1440" pan="0" len="24" vol="100" />
          <note key="84" pos="1464" pan="0" len="24" vol="100" />
          <note key="87" pos="1488" pan="0" len="48" vol="100" />
        </pattern>
        <pattern pos="115200" muted="0" steps="16" name="" type="1">
          <note key="89" pos="0" pan="0" len="48" vol="100" />
          <note key="87" pos="48" pan="0" len="48" vol="100" />
          <note key="84" pos="96" pan="0" len="48" vol="100" />
          <note key="89" pos="144" pan="0" len="48" vol="100" />
          <note key="87" pos="192" pan="0" len="48" vol="100" />
          <note key="84" pos="240" pan="0" len="48" vol="100" />
          <note key="89" pos="288" pan="0" len="24" vol="100" />
          <note key="84" pos="312" pan="0" len="24" vol="100" />
          <note key="87" pos="336" pan="0" len="48" vol="100" />
          <note key="89" pos="384" pan="0" len="48" vol="100" />
          <note key="87" pos="432" pan="0" len="48" vol="100" />
          <note key="84" pos="480" pan="0" len="48" vol="100" />
          <note key="89" pos="528" pan="0" len="48" vol="100" />
          <note key="87" pos="576" pan="0" len="48" vol="100" />
          <note key="84" pos="624" pan="0" len="48" vol="100" />
          <note key="89" pos="672" pan="0" len="24" vol="100" />
          <note key="84" pos="696" pan="0" len="24" vol="100" />
          <note key="87" pos="720" pan="0" len="48" vol="100" />
          <note key="89" pos="768" pan="0" len="48" vol="100" />
          <note key="87" pos="816" pan="0" len="48" vol="100" />
          <note key="84" pos="864" pan="0" len="48" vol="100" />
          <note key="89" pos="912" pan="0" len="48" vol="100" />
          <note key="87" pos="960" pan="0" len="48" vol="100" />
          <note key="84" pos="1008" pan="0" len="48" vol="100" />
          <note key="89" pos="1056" pan="0" len="24" vol="100" />
          <note key="84" pos="1080" pan="0" len="24" vol="100" />
          <note key="87" pos="1104" pan="0" len="48" vol="100" />
          <note key="89" pos="1152" pan="0" len="48" vol="100" />
          <note key="87" pos="1200" pan="0" len="48" vol="100" />
          <note key="84" pos="1248" pan="0" len="48" vol="100" />
          <note key="89" pos="1296" pan="0" len="48" vol="100" />
          <note key="87" pos="1344" pan="0" len="48" vol="100" />
          <note key="84" pos="1392" pan="0" len="48" vol="100" />
          <note key="89" pos="1440" pan="0" len="24" vol="100" />
          <note key="84" pos="1464" pan="0" len="24" vol="100" />
          <note key="87" pos="1488" pan="0" len="48" vol="100" />
        </pattern>
        <pattern pos="116736" muted="0" steps="16" name="" type="1">
          <note key="89" pos="0" pan="0" len="48" vol="100" />
          <note key="87" pos="48" pan="0" len="48" vol="100" />
          <note key="84" pos="96" pan="0" len="48" vol="100" />
          <note key="89" pos="144" pan="0" len="48" vol="100" />
          <note key="87" pos="192" pan="0" len="48" vol="100" />
          <note key="84" pos="240" pan="0" len="48" vol="100" />
          <note key="89" pos="288" pan="0" len="24" vol="100" />
          <note key="84" pos="312" pan="0" len="24" vol="100" />
          <note key="87" pos="336" pan="0" len="48" vol="100" />
          <note key="89" pos="384" pan="0" len="48" vol="100" />
          <note key="87" pos="432" pan="0" len="48" vol="100" />
          <note key="84" pos="480" pan="0" len="48" vol="100" />
          <note key="89" pos="528" pan="0" len="48" vol="100" />
          <note key="87" pos="576" pan="0" len="48" vol="100" />
          <note key="84" pos="624" pan="0" len="48" vol="100" />
          <note key="89" pos="672" pan="0" len="24" vol="100" />
          <note key="84" pos="696" pan="0" len="24" vol="100" />
          <note key="87" pos="720" pan="0" len="48" vol="100" />
          <note key="89" pos="768" pan="0" len="48" vol="100" />
          <note key="87" pos="816" pan="0" len="48" vol="100" />
          <note key="84" pos="864" pan="0" len="48" vol="100" />
          <note key="89" pos="912" pan="0" len="48" vol="100" />
          <note key="87" pos="960" pan="0" len="48" vol="100" />
          <note key="84" pos="1008" pan="0" len="48" vol="100" />
          <note key="89" pos="1056" pan="0" len="24" vol="100" />
          <note key="84" pos="1080" pan="0" len="24" vol="100" />
          <note key="87" pos="1104" pan="0" len="48" vol="100" />
          <note key="89" pos="1152" pan="0" len="48" vol="100" />
          <note key="87" pos="1200" pan="0" len="48" vol="100" />
          <note key="84" pos="1248" pan="0" len="48" vol="100" />
          <note key="89" pos="1296" pan="0" len="48" vol="100" />
          <note key="87" pos="1344" pan="0" len="48" vol="100" />
          <note key="84" pos="1392" pan="0" len="48" vol="100" />
          <note key="89" pos="1440" pan="0" len="24" vol="100" />
          <note key="84" pos="1464" pan="0" len="24" vol="100" />
          <note key="87" pos="1488" pan="0" len="48" vol="100" />
        </pattern>
        <pattern pos="118272" muted="0" steps="16" name="" type="1">
          <note key="89" pos="0" pan="0" len="48" vol="100" />
          <note key="87" pos="48" pan="0" len="48" vol="100" />
          <note key="84" pos="96" pan="0" len="48" vol="100" />
          <note key="89" pos="144" pan="0" len="48" vol="100" />
          <note key="87" pos="192" pan="0" len="48" vol="100" />
          <note key="84" pos="240" pan="0" len="48" vol="100" />
          <note key="89" pos="288" pan="0" len="24" vol="100" />
          <note key="84" pos="312" pan="0" len="24" vol="100" />
          <note key="87" pos="336" pan="0" len="48" vol="100" />
          <note key="89" pos="384" pan="0" len="48" vol="100" />
          <note key="87" pos="432" pan="0" len="48" vol="100" />
          <note key="84" pos="480" pan="0" len="48" vol="100" />
          <note key="89" pos="528" pan="0" len="48" vol="100" />
          <note key="87" pos="576" pan="0" len="48" vol="100" />
          <note key="84" pos="624" pan="0" len="48" vol="100" />
          <note key="89" pos="672" pan="0" len="24" vol="100" />
          <note key="84" pos="696" pan="0" len="24" vol="100" />
          <note key="87" pos="720" pan="0" len="48" vol="100" />
          <note key="89" pos="768" pan="0" len="48" vol="100" />
          <note key="87" pos="816" pan="0" len="48" vol="100" />
          <note key="84" pos="864" pan="0" len="48" vol="100" />
          <note key="89" pos="912" pan="0" len="48" vol="100" />
          <note key="87" pos="960" pan="0" len="48" vol="100" />
          <note key="84" pos="1008" pan="0" len="48" vol="100" />
          <note key="89" pos="1056" pan="0" len="24" vol="100" />
          <note key="84" pos="1080" pan="0" len="24" vol="100" />
          <note key="87" pos="1104" pan="0" len="48" vol="100" />
          <note key="89" pos="1152" pan="0" len="48" vol="100" />
          <note key="87" pos="1200" pan="0" len="48" vol="100" />
          <note key="84" pos="1248" pan="0" len="48" vol="100" />
          <note key="89" pos="1296" pan="0" len="48" vol="100" />
          <note key="87" pos="1344" pan="0" len="48" vol="100" />
          <note key="84" pos="1392" pan="0" len="48" vol="100" />
          <note key="89" pos="1440" pan="0" len="24" vol="100" />
          <note key="84" pos="1464" pan="0" len="24" vol="100" />
          <note key="87" pos="1488" pan="0" len="48" vol="100" />
        </pattern>
        <pattern pos="119808" muted="0" steps="16" name="" type="1">
          <note key="89" pos="0" pan="0" len="48" vol="100" />
          <note key="87" pos="48" pan="0" len="48" vol="100" />
          <note key="84" pos="96" pan="0" len="48" vol="100" />
          <note key="89" pos="144" pan="0" len="48" vol="100" />
          <note key="87" pos="192" pan="0" len="48" vol="100" />
          <note key="84" pos="240" pan="0" len="48" vol="100" />
          <note key="89" pos="288" pan="0" len="24" vol="100" />
          <note key="84" pos="312" pan="0" len="24" vol="100" />
          <note key="87" pos="336" pan="0" len="48" vol="100" />
          <note key="89" pos="384" pan="0" len="48" vol="100" />
          <note key="87" pos="432" pan="0" len="48" vol="100" />
          <note key="84" pos="480" pan="0" len="48" vol="100" />
          <note key="89" pos="528" pan="0" len="48" vol="100" />
          <note key="87" pos="576" pan="0" len="48" vol="100" />
          <note key="84" pos="624" pan="0" len="48" vol="100" />
          <note key="89" pos="672" pan="0" len="24" vol="100" />
          <note key="84" pos="696" pan="0" len="24" vol="100" />
          <note key="87" pos="720" pan="0" len="48" vol="100" />
          <note key="89" pos="768" pan="0" len="48" vol="100" />
          <note key="87" pos="816" pan="0" len="48" vol="100" />
          <note key="84" pos="864" pan="0" len="48" vol="100" />
          <note key="89" pos="912" pan="0" len="48" vol="100" />
          <note key="87" pos="960" pan="0" len="48" vol="100" />
          <note key="84" pos="1008" pan="0" len="48" vol="100" />
          <note key="89" pos="1056" pan="0" len="24" vol="100" />
          <note key="84" pos="1080" pan="0" len="24" vol="100" />
          <note key="87" pos="1104" pan="0" len="48" vol="100" />
          <note key="89" pos="1152" pan="0" len="48" vol="100" />
          <note key="87" pos="1200" pan="0" len="48" vol="100" />
          <note key="84" pos="1248" pan="0" len="48" vol="100" />
          <note key="89" pos="1296" pan="0" len="48" vol="100" />
          <note key="87" pos="1344" pan="0" len="48" vol="100" />
          <note key="84" pos="1392" pan="0" len="48" vol="100" />
          <note key="89" pos="1440" pan="0" len="24" vol="100" />
          <note key="84" pos="1464" pan="0" len="24" vol="100" />
          <note key="87" pos="1488" pan="0" len="48" vol="100" />
        </pattern>
        <pattern pos="121344" muted="0" steps="16" name="" type="1">
          <note key="89" pos="0" pan="0" len="48" vol="100" />
          <note key="87" pos="48" pan="0" len="48" vol="100" />
          <note key="84" pos="96" pan="0" len="48" vol="100" />
          <note key="89" pos="144" pan="0" len="48" vol="100" />
          <note key="87" pos="192" pan="0" len="48" vol="100" />
          <note key="84" pos="240" pan="0" len="48" vol="100" />
          <note key="89" pos="288" pan="0" len="24" vol="100" />
          <note key="84" pos="312" pan="0" len="24" vol="100" />
          <note key="87" pos="336" pan="0" len="48" vol="100" />
          <note key="89" pos="384" pan="0" len="48" vol="100" />
          <note key="87" pos="432" pan="0" len="48" vol="100" />
          <note key="84" pos="480" pan="0" len="48" vol="100" />
          <note key="89" pos="528" pan="0" len="48" vol="100" />
          <note key="87" pos="576" pan="0" len="48" vol="100" />
          <note key="84" pos="624" pan="0" len="48" vol="100" />
          <note key="89" pos="672" pan="0" len="24" vol="100" />
          <note key="84" pos="696" pan="0" len="24" vol="100" />
          <note key="87" pos="720" pan="0" len="48" vol="100" />
          <note key="89" pos="768" pan="0" len="48" vol="100" />
          <note key="87" pos="816" pan="0" len="48" vol="100" />
          <note key="84" pos="864" pan="0" len="48" vol="100" />
          <note key="89" pos="912" pan="0" len="48" vol="100" />
          <note key="87" pos="960" pan="0" len="48" vol="100" />
          <note key="84" pos="1008" pan="0" len="48" vol="100" />
          <note key="89" pos="1056" pan="0" len="24" vol="100" />
          <note key="84" pos="1080" pan="0" len="24" vol="100" />
          <note key="87" pos="1104" pan="0" len="48" vol="100" />
          <note key="89" pos="1152" pan="0" len="48" vol="100" />
          <note key="87" pos="1200" pan="0" len="48" vol="100" />
          <note key="84" pos="1248" pan="0" len="48" vol="100" />
          <note key="89" pos="1296" pan="0" len="48" vol="100" />
          <note key="87" pos="1344" pan="0" len="48" vol="100" />
          <note key="84" pos="1392" pan="0" len="48" vol="100" />
          <note key="89" pos="1440" pan="0" len="24" vol="100" />
          <note key="84" pos="1464" pan="0" len="24" vol="100" />
          <note key="87" pos="1488" pan="0" len="48" vol="100" />
        </pattern>
        <pattern pos="122880" muted="0" steps="16" name="" type="1">
          <note key="82" pos="0" pan="0" len="48" vol="100" />
          <note key="84" pos="48" pan="0" len="48" vol="100" />
          <note key="79" pos="96" pan="0" len="48" vol="100" />
          <note key="82" pos="144" pan="0" len="24" vol="100" />
          <note key="84" pos="168" pan="0" len="72" vol="100" />
          <note key="79" pos="240" pan="0" len="48" vol="100" />
          <note key="82" pos="288" pan="0" len="24" vol="100" />
          <note key="84" pos="312" pan="0" len="48" vol="100" />
          <note key="84" pos="360" pan="0" len="24" vol="100" />
          <note key="82" pos="384" pan="0" len="48" vol="100" />
          <note key="84" pos="432" pan="0" len="48" vol="100" />
          <note key="79" pos="480" pan="0" len="48" vol="100" />
          <note key="82" pos="528" pan="0" len="24" vol="100" />
          <note key="84" pos="552" pan="0" len="72" vol="100" />
          <note key="79" pos="624" pan="0" len="48" vol="100" />
          <note key="82" pos="672" pan="0" len="24" vol="100" />
          <note key="84" pos="696" pan="0" len="48" vol="100" />
          <note key="84" pos="744" pan="0" len="24" vol="100" />
          <note key="82" pos="768" pan="0" len="48" vol="100" />
          <note key="84" pos="816" pan="0" len="48" vol="100" />
          <note key="79" pos="864" pan="0" len="48" vol="100" />
          <note key="82" pos="912" pan="0" len="24" vol="100" />
          <note key="84" pos="936" pan="0" len="72" vol="100" />
          <note key="79" pos="1008" pan="0" len="48" vol="100" />
          <note key="82" pos="1056" pan="0" len="24" vol="100" />
          <note key="84" pos="1080" pan="0" len="48" vol="100" />
          <note key="84" pos="1128" pan="0" len="24" vol="100" />
          <note key="82" pos="1152" pan="0" len="48" vol="100" />
          <note key="84" pos="1200" pan="0" len="48" vol="100" />
          <note key="79" pos="1248" pan="0" len="48" vol="100" />
          <note key="82" pos="1296" pan="0" len="24" vol="100" />
          <note key="84" pos="1320" pan="0" len="72" vol="100" />
          <note key="79" pos="1392" pan="0" len="48" vol="100" />
          <note key="82" pos="1440" pan="0" len="24" vol="100" />
          <note key="84" pos="1464" pan="0" len="48" vol="100" />
          <note key="84" pos="1512" pan="0" len="24" vol="100" />
        </pattern>
        <pattern pos="124416" muted="0" steps="16" name="" type="1">
          <note key="82" pos="0" pan="0" len="48" vol="100" />
          <note key="84" pos="48" pan="0" len="48" vol="100" />
          <note key="79" pos="96" pan="0" len="48" vol="100" />
          <note key="82" pos="144" pan="0" len="24" vol="100" />
          <note key="84" pos="168" pan="0" len="72" vol="100" />
          <note key="79" pos="240" pan="0" len="48" vol="100" />
          <note key="82" pos="288" pan="0" len="24" vol="100" />
          <note key="84" pos="312" pan="0" len="48" vol="100" />
          <note key="84" pos="360" pan="0" len="24" vol="100" />
          <note key="82" pos="384" pan="0" len="48" vol="100" />
          <note key="84" pos="432" pan="0" len="48" vol="100" />
          <note key="79" pos="480" pan="0" len="48" vol="100" />
          <note key="82" pos="528" pan="0" len="24" vol="100" />
          <note key="84" pos="552" pan="0" len="72" vol="100" />
          <note key="79" pos="624" pan="0" len="48" vol="100" />
          <note key="82" pos="672" pan="0" len="24" vol="100" />
          <note key="84" pos="696" pan="0" len="48" vol="100" />
          <note key="84" pos="744" pan="0" len="24" vol="100" />
          <note key="82" pos="768" pan="0" len="48" vol="100" />
          <note key="84" pos="816" pan="0" len="48" vol="100" />
          <note key="79" pos="864" pan="0" len="48" vol="100" />
          <note key="82" pos="912" pan="0" len="24" vol="100" />
          <note key="84" pos="936" pan="0" len="72" vol="100" />
          <note key="79" pos="1008" pan="0" len="48" vol="100" />
          <note key="82" pos="1056" pan="0" len="24" vol="100" />
          <note key="84" pos="1080" pan="0" len="48" vol="100" />
          <note key="84" pos="1128" pan="0" len="24" vol="100" />
          <note key="82" pos="1152" pan="0" len="48" vol="100" />
          <note key="84" pos="1200" pan="0" len="48" vol="100" />
          <note key="79" pos="1248" pan="0" len="48" vol="100" />
          <note key="82" pos="1296" pan="0" len="24" vol="100" />
          <note key="84" pos="1320" pan="0" len="72" vol="100" />
          <note key="79" pos="1392" pan="0" len="48" vol="100" />
          <note key="82" pos="1440" pan="0" len="24" vol="100" />
          <note key="84" pos="1464" pan="0" len="48" vol="100" />
          <note key="84" pos="1512" pan="0" len="24" vol="100" />
        </pattern>
        <pattern pos="187392" muted="0" steps="16" name="" type="1">
          <note key="76" pos="0" pan="0" len="48" vol="100" />
          <note key="71" pos="48" pan="0" len="24" vol="100" />
          <note key="75" pos="72" pan="0" len="48" vol="100" />
          <note key="71" pos="120" pan="0" len="48" vol="100" />
          <note key="75" pos="168" pan="0" len="24" vol="100" />
          <note key="76" pos="192" pan="0" len="48" vol="100" />
          <note key="71" pos="240" pan="0" len="24" vol="100" />
          <note key="75" pos="264" pan="0" len="48" vol="100" />
          <note key="71" pos="312" pan="0" len="48" vol="100" />
          <note key="75" pos="360" pan="0" len="24" vol="100" />
          <note key="76" pos="384" pan="0" len="48" vol="100" />
          <note key="73" pos="432" pan="0" len="24" vol="100" />
          <note key="75" pos="456" pan="0" len="48" vol="100" />
          <note key="73" pos="504" pan="0" len="48" vol="100" />
          <note key="75" pos="552" pan="0" len="24" vol="100" />
          <note key="76" pos="576" pan="0" len="48" vol="100" />
          <note key="73" pos="624" pan="0" len="24" vol="100" />
          <note key="75" pos="648" pan="0" len="48" vol="100" />
          <note key="83" pos="696" pan="0" len="48" vol="100" />
          <note key="75" pos="744" pan="0" len="24" vol="100" />
          <note key="76" pos="768" pan="0" len="48" vol="100" />
          <note key="71" pos="816" pan="0" len="24" vol="100" />
          <note key="75" pos="840" pan="0" len="48" vol="100" />
          <note key="71" pos="888" pan="0" len="48" vol="100" />
          <note key="75" pos="936" pan="0" len="24" vol="100" />
          <note key="76" pos="960" pan="0" len="48" vol="100" />
          <note key="71" pos="1008" pan="0" len="24" vol="100" />
          <note key="75" pos="1032" pan="0" len="48" vol="100" />
          <note key="71" pos="1080" pan="0" len="48" vol="100" />
          <note key="75" pos="1128" pan="0" len="24" vol="100" />
          <note key="76" pos="1152" pan="0" len="48" vol="100" />
          <note key="73" pos="1200" pan="0" len="24" vol="100" />
          <note key="75" pos="1224" pan="0" len="48" vol="100" />
          <note key="73" pos="1272" pan="0" len="48" vol="100" />
          <note key="75" pos="1320" pan="0" len="24" vol="100" />
          <note key="76" pos="1344" pan="0" len="48" vol="100" />
          <note key="73" pos="1392" pan="0" len="24" vol="100" />
          <note key="75" pos="1416" pan="0" len="48" vol="100" />
          <note key="83" pos="1464" pan="0" len="72" vol="100" />
        </pattern>
      </track>
      <track solo="0" name="68 (Ch10)" type="0" muted="0">
        <instrumenttrack usemasterpitch="1" pitch="0.0" basenote="57" pan="0" pitchrange="12" vol="30">
          <eldata />
          <instrument name="tripleoscillator" />
        </instrumenttrack>
        <pattern pos="184704" muted="0" steps="16" name="" type="1">
          <note key="71" pos="0" pan="0" len="48" vol="100" />
          <note key="76" pos="48" pan="0" len="48" vol="100" />
          <note key="71" pos="96" pan="0" len="48" vol="100" />
          <note key="69" pos="144" pan="0" len="120" vol="100" />
          <note key="72" pos="264" pan="0" len="24" vol="100" />
          <note key="71" pos="288" pan="0" len="48" vol="100" />
          <note key="76" pos="336" pan="0" len="48" vol="100" />
          <note key="79" pos="384" pan="0" len="48" vol="100" />
          <note key="79" pos="432" pan="0" len="120" vol="100" />
          <note key="72" pos="552" pan="0" len="24" vol="100" />
          <note key="71" pos="576" pan="0" len="48" vol="100" />
          <note key="79" pos="696" pan="0" len="24" vol="100" />
          <note key="81" pos="720" pan="0" len="48" vol="100" />
          <note key="76" pos="768" pan="0" len="72" vol="100" />
          <note key="72" pos="840" pan="0" len="24" vol="100" />
          <note key="71" pos="864" pan="0" len="48" vol="100" />
          <note key="79" pos="912" pan="0" len="48" vol="100" />
          <note key="78" pos="960" pan="0" len="48" vol="100" />
          <note key="76" pos="1008" pan="0" len="144" vol="100" />
        </pattern>
        <pattern pos="177792" muted="0" steps="16" name="" type="1">
          <note key="71" pos="0" pan="0" len="48" vol="100" />
          <note key="76" pos="48" pan="0" len="48" vol="100" />
          <note key="71" pos="96" pan="0" len="48" vol="100" />
          <note key="69" pos="144" pan="0" len="120" vol="100" />
          <note key="72" pos="264" pan="0" len="24" vol="100" />
          <note key="71" pos="288" pan="0" len="48" vol="100" />
          <note key="76" pos="336" pan="0" len="48" vol="100" />
          <note key="79" pos="384" pan="0" len="48" vol="100" />
          <note key="79" pos="432" pan="0" len="120" vol="100" />
          <note key="72" pos="552" pan="0" len="24" vol="100" />
          <note key="71" pos="576" pan="0" len="48" vol="100" />
          <note key="79" pos="696" pan="0" len="24" vol="100" />
          <note key="81" pos="720" pan="0" len="48" vol="100" />
          <note key="76" pos="768" pan="0" len="72" vol="100" />
          <note key="72" pos="840" pan="0" len="24" vol="100" />
          <note key="71" pos="864" pan="0" len="48" vol="100" />
          <note key="79" pos="912" pan="0" len="48" vol="100" />
          <note key="78" pos="960" pan="0" len="48" vol="100" />
          <note key="76" pos="1008" pan="0" len="144" vol="100" />
        </pattern>
        <pattern pos="180096" muted="0" steps="16" name="" type="1">
          <note key="71" pos="0" pan="0" len="48" vol="100" />
          <note key="76" pos="48" pan="0" len="48" vol="100" />
          <note key="71" pos="96" pan="0" len="48" vol="100" />
          <note key="69" pos="144" pan="0" len="120" vol="100" />
          <note key="72" pos="264" pan="0" len="24" vol="100" />
          <note key="71" pos="288" pan="0" len="48" vol="100" />
          <note key="76" pos="336" pan="0" len="48" vol="100" />
          <note key="79" pos="384" pan="0" len="48" vol="100" />
          <note key="79" pos="432" pan="0" len="120" vol="100" />
          <note key="72" pos="552" pan="0" len="24" vol="100" />
          <note key="71" pos="576" pan="0" len="48" vol="100" />
          <note key="79" pos="696" pan="0" len="24" vol="100" />
          <note key="81" pos="720" pan="0" len="48" vol="100" />
          <note key="76" pos="768" pan="0" len="72" vol="100" />
          <note key="72" pos="840" pan="0" len="24" vol="100" />
          <note key="71" pos="864" pan="0" len="48" vol="100" />
          <note key="79" pos="912" pan="0" len="48" vol="100" />
          <note key="78" pos="960" pan="0" len="48" vol="100" />
          <note key="76" pos="1008" pan="0" len="144" vol="100" />
        </pattern>
      </track>
      <track solo="0" name="68 (Ch11)" type="0" muted="0">
        <instrumenttrack usemasterpitch="1" pitch="0.0" basenote="57" pan="0" pitchrange="12" vol="30">
          <eldata />
          <instrument name="tripleoscillator" />
        </instrumenttrack>
        <pattern pos="253824" muted="0" steps="16" name="" type="1">
          <note key="84" pos="0" pan="0" len="24" vol="100" />
          <note key="80" pos="24" pan="0" len="24" vol="100" />
          <note key="75" pos="48" pan="0" len="24" vol="100" />
          <note key="74" pos="72" pan="0" len="24" vol="100" />
          <note key="72" pos="96" pan="0" len="24" vol="100" />
          <note key="74" pos="120" pan="0" len="24" vol="100" />
          <note key="75" pos="144" pan="0" len="24" vol="100" />
          <note key="80" pos="168" pan="0" len="24" vol="100" />
          <note key="84" pos="192" pan="0" len="24" vol="100" />
          <note key="80" pos="216" pan="0" len="24" vol="100" />
          <note key="75" pos="240" pan="0" len="24" vol="100" />
          <note key="74" pos="264" pan="0" len="24" vol="100" />
          <note key="72" pos="288" pan="0" len="24" vol="100" />
          <note key="74" pos="312" pan="0" len="24" vol="100" />
          <note key="75" pos="336" pan="0" len="24" vol="100" />
          <note key="80" pos="360" pan="0" len="24" vol="100" />
          <note key="84" pos="384" pan="0" len="24" vol="100" />
          <note key="80" pos="408" pan="0" len="24" vol="100" />
          <note key="75" pos="432" pan="0" len="24" vol="100" />
          <note key="74" pos="456" pan="0" len="24" vol="100" />
          <note key="72" pos="480" pan="0" len="24" vol="100" />
          <note key="74" pos="504" pan="0" len="24" vol="100" />
          <note key="75" pos="528" pan="0" len="24" vol="100" />
          <note key="80" pos="552" pan="0" len="24" vol="100" />
          <note key="84" pos="576" pan="0" len="24" vol="100" />
          <note key="80" pos="600" pan="0" len="24" vol="100" />
          <note key="75" pos="624" pan="0" len="24" vol="100" />
          <note key="74" pos="648" pan="0" len="24" vol="100" />
          <note key="72" pos="672" pan="0" len="24" vol="100" />
          <note key="74" pos="696" pan="0" len="24" vol="100" />
          <note key="75" pos="720" pan="0" len="24" vol="100" />
          <note key="80" pos="744" pan="0" len="24" vol="100" />
          <note key="84" pos="768" pan="0" len="24" vol="100" />
          <note key="79" pos="792" pan="0" len="24" vol="100" />
          <note key="75" pos="816" pan="0" len="24" vol="100" />
          <note key="74" pos="840" pan="0" len="24" vol="100" />
          <note key="72" pos="864" pan="0" len="24" vol="100" />
          <note key="74" pos="888" pan="0" len="24" vol="100" />
          <note key="75" pos="912" pan="0" len="24" vol="100" />
          <note key="79" pos="936" pan="0" len="24" vol="100" />
          <note key="84" pos="960" pan="0" len="24" vol="100" />
          <note key="79" pos="984" pan="0" len="24" vol="100" />
          <note key="75" pos="1008" pan="0" len="24" vol="100" />
          <note key="74" pos="1032" pan="0" len="24" vol="100" />
          <note key="72" pos="1056" pan="0" len="24" vol="100" />
          <note key="74" pos="1080" pan="0" len="24" vol="100" />
          <note key="75" pos="1104" pan="0" len="24" vol="100" />
          <note key="79" pos="1128" pan="0" len="24" vol="100" />
          <note key="84" pos="1152" pan="0" len="24" vol="100" />
          <note key="79" pos="1176" pan="0" len="24" vol="100" />
          <note key="75" pos="1200" pan="0" len="24" vol="100" />
          <note key="74" pos="1224" pan="0" len="24" vol="100" />
          <note key="72" pos="1248" pan="0" len="24" vol="100" />
          <note key="74" pos="1272" pan="0" len="24" vol="100" />
          <note key="75" pos="1296" pan="0" len="24" vol="100" />
          <note key="79" pos="1320" pan="0" len="24" vol="100" />
          <note key="84" pos="1344" pan="0" len="24" vol="100" />
          <note key="79" pos="1368" pan="0" len="24" vol="100" />
          <note key="75" pos="1392" pan="0" len="24" vol="100" />
          <note key="74" pos="1416" pan="0" len="24" vol="100" />
          <note key="72" pos="1440" pan="0" len="24" vol="100" />
          <note key="74" pos="1464" pan="0" len="24" vol="100" />
          <note key="75" pos="1488" pan="0" len="24" vol="100" />
          <note key="79" pos="1512" pan="0" len="24" vol="100" />
        </pattern>
        <pattern pos="252288" muted="0" steps="16" name="" type="1">
          <note key="84" pos="0" pan="0" len="24" vol="100" />
          <note key="79" pos="24" pan="0" len="24" vol="100" />
          <note key="75" pos="48" pan="0" len="24" vol="100" />
          <note key="74" pos="72" pan="0" len="24" vol="100" />
          <note key="72" pos="96" pan="0" len="24" vol="100" />
          <note key="74" pos="120" pan="0" len="24" vol="100" />
          <note key="75" pos="144" pan="0" len="24" vol="100" />
          <note key="79" pos="168" pan="0" len="24" vol="100" />
          <note key="84" pos="192" pan="0" len="24" vol="100" />
          <note key="79" pos="216" pan="0" len="24" vol="100" />
          <note key="75" pos="240" pan="0" len="24" vol="100" />
          <note key="74" pos="264" pan="0" len="24" vol="100" />
          <note key="72" pos="288" pan="0" len="24" vol="100" />
          <note key="74" pos="312" pan="0" len="24" vol="100" />
          <note key="75" pos="336" pan="0" len="24" vol="100" />
          <note key="79" pos="360" pan="0" len="24" vol="100" />
          <note key="84" pos="384" pan="0" len="24" vol="100" />
          <note key="79" pos="408" pan="0" len="24" vol="100" />
          <note key="75" pos="432" pan="0" len="24" vol="100" />
          <note key="74" pos="456" pan="0" len="24" vol="100" />
          <note key="72" pos="480" pan="0" len="24" vol="100" />
          <note key="74" pos="504" pan="0" len="24" vol="100" />
          <note key="75" pos="528" pan="0" len="24" vol="100" />
          <note key="79" pos="552" pan="0" len="24" vol="100" />
          <note key="84" pos="576" pan="0" len="24" vol="100" />
          <note key="79" pos="600" pan="0" len="24" vol="100" />
          <note key="75" pos="624" pan="0" len="24" vol="100" />
          <note key="74" pos="648" pan="0" len="24" vol="100" />
          <note key="72" pos="672" pan="0" len="24" vol="100" />
          <note key="74" pos="696" pan="0" len="24" vol="100" />
          <note key="75" pos="720" pan="0" len="24" vol="100" />
          <note key="79" pos="744" pan="0" len="24" vol="100" />
          <note key="84" pos="768" pan="0" len="24" vol="100" />
          <note key="81" pos="792" pan="0" len="24" vol="100" />
          <note key="77" pos="816" pan="0" len="24" vol="100" />
          <note key="72" pos="840" pan="0" len="24" vol="100" />
          <note key="69" pos="864" pan="0" len="24" vol="100" />
          <note key="72" pos="888" pan="0" len="24" vol="100" />
          <note key="77" pos="912" pan="0" len="24" vol="100" />
          <note key="81" pos="936" pan="0" len="24" vol="100" />
          <note key="84" pos="960" pan="0" len="24" vol="100" />
          <note key="81" pos="984" pan="0" len="24" vol="100" />
          <note key="77" pos="1008" pan="0" len="24" vol="100" />
          <note key="72" pos="1032" pan="0" len="24" vol="100" />
          <note key="69" pos="1056" pan="0" len="24" vol="100" />
          <note key="72" pos="1080" pan="0" len="24" vol="100" />
          <note key="77" pos="1104" pan="0" len="24" vol="100" />
          <note key="81" pos="1128" pan="0" len="24" vol="100" />
          <note key="84" pos="1152" pan="0" len="24" vol="100" />
          <note key="81" pos="1176" pan="0" len="24" vol="100" />
          <note key="77" pos="1200" pan="0" len="24" vol="100" />
          <note key="72" pos="1224" pan="0" len="24" vol="100" />
          <note key="69" pos="1248" pan="0" len="24" vol="100" />
          <note key="72" pos="1272" pan="0" len="24" vol="100" />
          <note key="77" pos="1296" pan="0" len="24" vol="100" />
          <note key="81" pos="1320" pan="0" len="24" vol="100" />
          <note key="84" pos="1344" pan="0" len="24" vol="100" />
          <note key="81" pos="1368" pan="0" len="24" vol="100" />
          <note key="77" pos="1392" pan="0" len="24" vol="100" />
          <note key="72" pos="1416" pan="0" len="24" vol="100" />
          <note key="69" pos="1440" pan="0" len="24" vol="100" />
          <note key="72" pos="1464" pan="0" len="24" vol="100" />
          <note key="77" pos="1488" pan="0" len="24" vol="100" />
          <note key="81" pos="1512" pan="0" len="24" vol="100" />
        </pattern>
      </track>
      <track solo="0" name="70 (Ch3)" type="0" muted="0">
        <instrumenttrack usemasterpitch="1" pitch="0.0" basenote="57" pan="0" pitchrange="12" vol="30">
          <eldata />
          <instrument name="tripleoscillator" />
        </instrumenttrack>
        <pattern pos="121344" muted="0" steps="16" name="" type="1">
          <note key="87" pos="96" pan="0" len="192" vol="100" />
          <note key="86" pos="288" pan="0" len="192" vol="100" />
          <note key="87" pos="480" pan="0" len="192" vol="100" />
          <note key="82" pos="672" pan="0" len="192" vol="100" />
          <note key="84" pos="864" pan="0" len="192" vol="100" />
          <note key="86" pos="1056" pan="0" len="192" vol="100" />
          <note key="87" pos="1248" pan="0" len="96" vol="100" />
        </pattern>
        <pattern pos="119808" muted="0" steps="16" name="" type="1">
          <note key="89" pos="96" pan="0" len="192" vol="100" />
          <note key="87" pos="288" pan="0" len="192" vol="100" />
          <note key="89" pos="480" pan="0" len="192" vol="100" />
          <note key="84" pos="672" pan="0" len="192" vol="100" />
          <note key="89" pos="864" pan="0" len="192" vol="100" />
          <note key="87" pos="1056" pan="0" len="192" vol="100" />
          <note key="89" pos="1248" pan="0" len="192" vol="100" />
          <note key="84" pos="1440" pan="0" len="96" vol="100" />
        </pattern>
      </track>
      <track solo="0" name="70 (Ch10)" type="0" muted="0">
        <instrumenttrack usemasterpitch="1" pitch="0.0" basenote="57" pan="0" pitchrange="12" vol="30">
          <eldata />
          <instrument name="tripleoscillator" />
        </instrumenttrack>
        <pattern pos="256896" muted="0" steps="16" name="" type="1">
          <note key="68" pos="0" pan="0" len="384" vol="100" />
          <note key="80" pos="384" pan="0" len="384" vol="100" />
          <note key="79" pos="768" pan="0" len="384" vol="100" />
          <note key="67" pos="1152" pan="0" len="384" vol="100" />
        </pattern>
        <pattern pos="244608" muted="0" steps="16" name="" type="1">
          <note key="72" pos="0" pan="0" len="384" vol="100" />
          <note key="84" pos="384" pan="0" len="384" vol="100" />
          <note key="70" pos="768" pan="0" len="384" vol="100" />
          <note key="82" pos="1152" pan="0" len="384" vol="100" />
        </pattern>
        <pattern pos="246144" muted="0" steps="16" name="" type="1">
          <note key="79" pos="0" pan="0" len="384" vol="100" />
          <note key="79" pos="384" pan="0" len="384" vol="100" />
          <note key="68" pos="768" pan="0" len="384" vol="100" />
          <note key="80" pos="1152" pan="0" len="288" vol="100" />
          <note key="70" pos="1440" pan="0" len="96" vol="100" />
        </pattern>
        <pattern pos="249216" muted="0" steps="16" name="" type="1">
          <note key="72" pos="0" pan="0" len="384" vol="100" />
          <note key="84" pos="384" pan="0" len="384" vol="100" />
          <note key="70" pos="768" pan="0" len="384" vol="100" />
          <note key="82" pos="1152" pan="0" len="384" vol="100" />
        </pattern>
        <pattern pos="252288" muted="0" steps="16" name="" type="1">
          <note key="72" pos="0" pan="0" len="384" vol="100" />
          <note key="84" pos="384" pan="0" len="384" vol="100" />
          <note key="77" pos="768" pan="0" len="384" vol="100" />
          <note key="65" pos="1152" pan="0" len="384" vol="100" />
        </pattern>
        <pattern pos="253824" muted="0" steps="16" name="" type="1">
          <note key="68" pos="0" pan="0" len="384" vol="100" />
          <note key="80" pos="384" pan="0" len="384" vol="100" />
          <note key="79" pos="768" pan="0" len="384" vol="100" />
          <note key="67" pos="1152" pan="0" len="384" vol="100" />
        </pattern>
        <pattern pos="255360" muted="0" steps="16" name="" type="1">
          <note key="72" pos="0" pan="0" len="384" vol="100" />
          <note key="84" pos="384" pan="0" len="384" vol="100" />
          <note key="77" pos="768" pan="0" len="384" vol="100" />
          <note key="65" pos="1152" pan="0" len="384" vol="100" />
        </pattern>
      </track>
      <track solo="0" name="71 (Ch5)" type="0" muted="0">
        <instrumenttrack usemasterpitch="1" pitch="0.0" basenote="57" pan="0" pitchrange="12" vol="30">
          <eldata />
          <instrument name="tripleoscillator" />
        </instrumenttrack>
        <pattern pos="256896" muted="0" steps="16" name="" type="1">
          <note key="60" pos="0" pan="0" len="24" vol="100" />
          <note key="60" pos="24" pan="0" len="24" vol="100" />
          <note key="48" pos="48" pan="0" len="48" vol="100" />
          <note key="48" pos="96" pan="0" len="48" vol="100" />
          <note key="58" pos="144" pan="0" len="48" vol="100" />
          <note key="60" pos="192" pan="0" len="24" vol="100" />
          <note key="60" pos="216" pan="0" len="24" vol="100" />
          <note key="48" pos="240" pan="0" len="48" vol="100" />
          <note key="48" pos="288" pan="0" len="48" vol="100" />
          <note key="60" pos="336" pan="0" len="48" vol="100" />
          <note key="60" pos="384" pan="0" len="24" vol="100" />
          <note key="60" pos="408" pan="0" len="24" vol="100" />
          <note key="48" pos="432" pan="0" len="48" vol="100" />
          <note key="48" pos="480" pan="0" len="48" vol="100" />
          <note key="58" pos="528" pan="0" len="48" vol="100" />
          <note key="60" pos="576" pan="0" len="24" vol="100" />
          <note key="60" pos="600" pan="0" len="24" vol="100" />
          <note key="48" pos="624" pan="0" len="48" vol="100" />
          <note key="48" pos="672" pan="0" len="48" vol="100" />
          <note key="60" pos="720" pan="0" len="48" vol="100" />
          <note key="60" pos="768" pan="0" len="24" vol="100" />
          <note key="60" pos="792" pan="0" len="24" vol="100" />
          <note key="48" pos="816" pan="0" len="48" vol="100" />
          <note key="48" pos="864" pan="0" len="48" vol="100" />
          <note key="58" pos="912" pan="0" len="48" vol="100" />
          <note key="60" pos="960" pan="0" len="24" vol="100" />
          <note key="60" pos="984" pan="0" len="24" vol="100" />
          <note key="48" pos="1008" pan="0" len="48" vol="100" />
          <note key="48" pos="1056" pan="0" len="48" vol="100" />
          <note key="60" pos="1104" pan="0" len="48" vol="100" />
          <note key="60" pos="1152" pan="0" len="24" vol="100" />
          <note key="60" pos="1176" pan="0" len="24" vol="100" />
          <note key="48" pos="1200" pan="0" len="48" vol="100" />
          <note key="48" pos="1248" pan="0" len="48" vol="100" />
          <note key="58" pos="1296" pan="0" len="48" vol="100" />
          <note key="60" pos="1344" pan="0" len="24" vol="100" />
          <note key="60" pos="1368" pan="0" len="24" vol="100" />
          <note key="48" pos="1392" pan="0" len="48" vol="100" />
          <note key="48" pos="1440" pan="0" len="48" vol="100" />
          <note key="60" pos="1488" pan="0" len="48" vol="100" />
        </pattern>
        <pattern pos="255360" muted="0" steps="16" name="" type="1">
          <note key="60" pos="0" pan="0" len="24" vol="100" />
          <note key="60" pos="24" pan="0" len="24" vol="100" />
          <note key="48" pos="48" pan="0" len="48" vol="100" />
          <note key="48" pos="96" pan="0" len="48" vol="100" />
          <note key="58" pos="144" pan="0" len="48" vol="100" />
          <note key="60" pos="192" pan="0" len="24" vol="100" />
          <note key="60" pos="216" pan="0" len="24" vol="100" />
          <note key="48" pos="240" pan="0" len="48" vol="100" />
          <note key="48" pos="288" pan="0" len="48" vol="100" />
          <note key="60" pos="336" pan="0" len="48" vol="100" />
          <note key="60" pos="384" pan="0" len="24" vol="100" />
          <note key="60" pos="408" pan="0" len="24" vol="100" />
          <note key="48" pos="432" pan="0" len="48" vol="100" />
          <note key="48" pos="480" pan="0" len="48" vol="100" />
          <note key="58" pos="528" pan="0" len="48" vol="100" />
          <note key="60" pos="576" pan="0" len="24" vol="100" />
          <note key="60" pos="600" pan="0" len="24" vol="100" />
          <note key="48" pos="624" pan="0" len="48" vol="100" />
          <note key="48" pos="672" pan="0" len="48" vol="100" />
          <note key="60" pos="720" pan="0" len="48" vol="100" />
          <note key="60" pos="768" pan="0" len="24" vol="100" />
          <note key="60" pos="792" pan="0" len="24" vol="100" />
          <note key="48" pos="816" pan="0" len="48" vol="100" />
          <note key="48" pos="864" pan="0" len="48" vol="100" />
          <note key="58" pos="912" pan="0" len="48" vol="100" />
          <note key="60" pos="960" pan="0" len="24" vol="100" />
          <note key="60" pos="984" pan="0" len="24" vol="100" />
          <note key="48" pos="1008" pan="0" len="48" vol="100" />
          <note key="48" pos="1056" pan="0" len="48" vol="100" />
          <note key="60" pos="1104" pan="0" len="48" vol="100" />
          <note key="60" pos="1152" pan="0" len="24" vol="100" />
          <note key="60" pos="1176" pan="0" len="24" vol="100" />
          <note key="48" pos="1200" pan="0" len="48" vol="100" />
          <note key="48" pos="1248" pan="0" len="48" vol="100" />
          <note key="58" pos="1296" pan="0" len="48" vol="100" />
          <note key="60" pos="1344" pan="0" len="24" vol="100" />
          <note key="60" pos="1368" pan="0" len="24" vol="100" />
          <note key="48" pos="1392" pan="0" len="48" vol="100" />
          <note key="48" pos="1440" pan="0" len="48" vol="100" />
          <note key="60" pos="1488" pan="0" len="48" vol="100" />
        </pattern>
      </track>
      <track solo="0" name="72 (Ch1)" type="0" muted="0">
        <instrumenttrack usemasterpitch="1" pitch="0.0" basenote="57" pan="0" pitchrange="12" vol="30">
          <eldata />
          <instrument name="tripleoscillator" />
        </instrumenttrack>
        <pattern pos="115200" muted="0" steps="16" name="" type="1">
          <note key="43" pos="216" pan="0" len="444" vol="100" />
          <note key="19" pos="660" pan="0" len="420" vol="100" />
          <note key="36" pos="1080" pan="0" len="360" vol="100" />
          <note key="12" pos="1440" pan="0" len="96" vol="100" />
        </pattern>
        <pattern pos="113664" muted="0" steps="16" name="" type="1">
          <note key="24" pos="108" pan="0" len="24" vol="100" />
          <note key="36" pos="132" pan="0" len="360" vol="100" />
          <note key="24" pos="492" pan="0" len="408" vol="100" />
          <note key="36" pos="900" pan="0" len="336" vol="100" />
          <note key="24" pos="1236" pan="0" len="300" vol="100" />
        </pattern>
      </track>
      <track solo="0" name="72 (Ch2)" type="0" muted="0">
        <instrumenttrack usemasterpitch="1" pitch="0.0" basenote="57" pan="0" pitchrange="12" vol="30">
          <eldata />
          <instrument name="tripleoscillator" />
        </instrumenttrack>
        <pattern pos="26880" muted="0" steps="16" name="" type="1">
          <note key="24" pos="1440" pan="0" len="96" vol="100" />
        </pattern>
      </track>
      <track solo="0" name="72 (Ch4)" type="0" muted="0">
        <instrumenttrack usemasterpitch="1" pitch="0.0" basenote="57" pan="0" pitchrange="12" vol="30">
          <eldata />
          <instrument name="tripleoscillator" />
        </instrumenttrack>
        <pattern pos="26880" muted="0" steps="16" name="" type="1">
          <note key="41" pos="1440" pan="0" len="96" vol="100" />
        </pattern>
      </track>
      <track solo="0" name="72 (Ch5)" type="0" muted="0">
        <instrumenttrack usemasterpitch="1" pitch="0.0" basenote="57" pan="0" pitchrange="12" vol="30">
          <eldata />
          <instrument name="tripleoscillator" />
        </instrumenttrack>
        <pattern pos="23808" muted="0" steps="16" name="" type="1">
          <note key="36" pos="1440" pan="0" len="96" vol="100" />
        </pattern>
      </track>
      <track solo="0" name="72 (Ch11)" type="0" muted="0">
        <instrumenttrack usemasterpitch="1" pitch="0.0" basenote="57" pan="0" pitchrange="12" vol="30">
          <eldata />
          <instrument name="tripleoscillator" />
        </instrumenttrack>
        <pattern pos="23808" muted="0" steps="16" name="" type="1">
          <note key="43" pos="1440" pan="0" len="96" vol="100" />
        </pattern>
      </track>
      <track solo="0" name="72 (Ch14)" type="0" muted="0">
        <instrumenttrack usemasterpitch="1" pitch="0.0" basenote="57" pan="0" pitchrange="12" vol="30">
          <eldata />
          <instrument name="tripleoscillator" />
        </instrumenttrack>
        <pattern pos="196608" muted="0" steps="16" name="" type="1">
          <note key="36" pos="48" pan="0" len="24" vol="2" />
          <note key="40" pos="72" pan="0" len="120" vol="3" />
          <note key="36" pos="192" pan="0" len="72" vol="11" />
          <note key="33" pos="264" pan="0" len="72" vol="17" />
          <note key="36" pos="336" pan="0" len="72" vol="22" />
          <note key="40" pos="408" pan="0" len="60" vol="27" />
          <note key="33" pos="468" pan="0" len="60" vol="31" />
          <note key="38" pos="528" pan="0" len="96" vol="36" />
          <note key="31" pos="624" pan="0" len="96" vol="59" />
          <note key="38" pos="720" pan="0" len="96" vol="59" />
          <note key="29" pos="816" pan="0" len="84" vol="59" />
          <note key="38" pos="900" pan="0" len="96" vol="59" />
          <note key="31" pos="996" pan="0" len="72" vol="50" />
          <note key="36" pos="1068" pan="0" len="96" vol="44" />
          <note key="31" pos="1164" pan="0" len="120" vol="34" />
          <note key="28" pos="1284" pan="0" len="144" vol="23" />
          <note key="26" pos="1428" pan="0" len="108" vol="9" />
        </pattern>
        <pattern pos="34176" muted="0" steps="16" name="" type="1">
          <note key="36" pos="48" pan="0" len="24" vol="100" />
          <note key="72" pos="72" pan="0" len="192" vol="100" />
          <note key="36" pos="264" pan="0" len="264" vol="100" />
          <note key="60" pos="528" pan="0" len="288" vol="100" />
          <note key="24" pos="816" pan="0" len="156" vol="100" />
        </pattern>
      </track>
      <track solo="0" name="73 (Ch1)" type="0" muted="0">
        <instrumenttrack usemasterpitch="1" pitch="0.0" basenote="57" pan="0" pitchrange="12" vol="30">
          <eldata />
          <instrument name="tripleoscillator" />
        </instrumenttrack>
        <pattern pos="256896" muted="0" steps="16" name="" type="1">
          <note key="60" pos="96" pan="0" len="24" vol="100" />
          <note key="72" pos="216" pan="0" len="24" vol="100" />
          <note key="60" pos="480" pan="0" len="24" vol="100" />
          <note key="72" pos="600" pan="0" len="24" vol="100" />
          <note key="60" pos="864" pan="0" len="24" vol="100" />
          <note key="72" pos="984" pan="0" len="24" vol="100" />
          <note key="60" pos="1248" pan="0" len="24" vol="100" />
          <note key="72" pos="1368" pan="0" len="24" vol="100" />
        </pattern>
        <pattern pos="238464" muted="0" steps="16" name="" type="1">
          <note key="60" pos="192" pan="0" len="48" vol="100" />
          <note key="60" pos="576" pan="0" len="48" vol="100" />
          <note key="60" pos="960" pan="0" len="48" vol="100" />
          <note key="60" pos="1344" pan="0" len="48" vol="100" />
        </pattern>
        <pattern pos="240000" muted="0" steps="16" name="" type="1">
          <note key="60" pos="192" pan="0" len="48" vol="100" />
          <note key="60" pos="576" pan="0" len="48" vol="100" />
          <note key="60" pos="960" pan="0" len="48" vol="100" />
          <note key="60" pos="1344" pan="0" len="48" vol="100" />
        </pattern>
        <pattern pos="241536" muted="0" steps="16" name="" type="1">
          <note key="60" pos="192" pan="0" len="48" vol="100" />
          <note key="60" pos="576" pan="0" len="48" vol="100" />
          <note key="60" pos="960" pan="0" len="48" vol="100" />
          <note key="60" pos="1344" pan="0" len="48" vol="100" />
        </pattern>
        <pattern pos="243072" muted="0" steps="16" name="" type="1">
          <note key="60" pos="192" pan="0" len="48" vol="100" />
          <note key="60" pos="576" pan="0" len="48" vol="100" />
          <note key="60" pos="960" pan="0" len="48" vol="100" />
          <note key="60" pos="1344" pan="0" len="48" vol="100" />
        </pattern>
        <pattern pos="244608" muted="0" steps="16" name="" type="1">
          <note key="60" pos="96" pan="0" len="24" vol="100" />
          <note key="72" pos="216" pan="0" len="24" vol="100" />
          <note key="60" pos="480" pan="0" len="24" vol="100" />
          <note key="72" pos="600" pan="0" len="24" vol="100" />
          <note key="60" pos="864" pan="0" len="24" vol="100" />
          <note key="72" pos="984" pan="0" len="24" vol="100" />
          <note key="60" pos="1248" pan="0" len="24" vol="100" />
          <note key="72" pos="1368" pan="0" len="24" vol="100" />
        </pattern>
        <pattern pos="246144" muted="0" steps="16" name="" type="1">
          <note key="60" pos="96" pan="0" len="24" vol="100" />
          <note key="72" pos="216" pan="0" len="24" vol="100" />
          <note key="60" pos="480" pan="0" len="24" vol="100" />
          <note key="72" pos="600" pan="0" len="24" vol="100" />
          <note key="60" pos="864" pan="0" len="24" vol="100" />
          <note key="72" pos="984" pan="0" len="24" vol="100" />
          <note key="60" pos="1248" pan="0" len="24" vol="100" />
          <note key="72" pos="1368" pan="0" len="24" vol="100" />
        </pattern>
        <pattern pos="247680" muted="0" steps="16" name="" type="1">
          <note key="60" pos="192" pan="0" len="48" vol="100" />
          <note key="60" pos="576" pan="0" len="48" vol="100" />
          <note key="60" pos="960" pan="0" len="48" vol="100" />
          <note key="60" pos="1344" pan="0" len="48" vol="100" />
        </pattern>
        <pattern pos="249216" muted="0" steps="16" name="" type="1">
          <note key="60" pos="96" pan="0" len="24" vol="100" />
          <note key="72" pos="216" pan="0" len="24" vol="100" />
          <note key="60" pos="480" pan="0" len="24" vol="100" />
          <note key="72" pos="600" pan="0" len="24" vol="100" />
          <note key="60" pos="864" pan="0" len="24" vol="100" />
          <note key="72" pos="984" pan="0" len="24" vol="100" />
          <note key="60" pos="1248" pan="0" len="24" vol="100" />
          <note key="72" pos="1368" pan="0" len="24" vol="100" />
        </pattern>
        <pattern pos="250752" muted="0" steps="16" name="" type="1">
          <note key="60" pos="96" pan="0" len="24" vol="100" />
          <note key="72" pos="216" pan="0" len="24" vol="100" />
          <note key="60" pos="480" pan="0" len="24" vol="100" />
          <note key="72" pos="600" pan="0" len="24" vol="100" />
          <note key="60" pos="864" pan="0" len="24" vol="100" />
          <note key="72" pos="984" pan="0" len="24" vol="100" />
          <note key="60" pos="1248" pan="0" len="24" vol="100" />
          <note key="72" pos="1368" pan="0" len="24" vol="100" />
        </pattern>
        <pattern pos="252288" muted="0" steps="16" name="" type="1">
          <note key="60" pos="96" pan="0" len="24" vol="100" />
          <note key="72" pos="216" pan="0" len="24" vol="100" />
          <note key="60" pos="480" pan="0" len="24" vol="100" />
          <note key="72" pos="600" pan="0" len="24" vol="100" />
          <note key="60" pos="864" pan="0" len="24" vol="100" />
          <note key="72" pos="984" pan="0" len="24" vol="100" />
          <note key="60" pos="1248" pan="0" len="24" vol="100" />
          <note key="72" pos="1368" pan="0" len="24" vol="100" />
        </pattern>
        <pattern pos="253824" muted="0" steps="16" name="" type="1">
          <note key="60" pos="96" pan="0" len="24" vol="100" />
          <note key="72" pos="216" pan="0" len="24" vol="100" />
          <note key="60" pos="480" pan="0" len="24" vol="100" />
          <note key="72" pos="600" pan="0" len="24" vol="100" />
          <note key="60" pos="864" pan="0" len="24" vol="100" />
          <note key="72" pos="984" pan="0" len="24" vol="100" />
          <note key="60" pos="1248" pan="0" len="24" vol="100" />
          <note key="72" pos="1368" pan="0" len="24" vol="100" />
        </pattern>
        <pattern pos="255360" muted="0" steps="16" name="" type="1">
          <note key="60" pos="96" pan="0" len="24" vol="100" />
          <note key="72" pos="216" pan="0" len="24" vol="100" />
          <note key="60" pos="480" pan="0" len="24" vol="100" />
          <note key="72" pos="600" pan="0" len="24" vol="100" />
          <note key="60" pos="864" pan="0" len="24" vol="100" />
          <note key="72" pos="984" pan="0" len="24" vol="100" />
          <note key="60" pos="1248" pan="0" len="24" vol="100" />
          <note key="72" pos="1368" pan="0" len="24" vol="100" />
        </pattern>
      </track>
      <track solo="0" name="73 (Ch2)" type="0" muted="0">
        <instrumenttrack usemasterpitch="1" pitch="0.0" basenote="57" pan="0" pitchrange="12" vol="30">
          <eldata />
          <instrument name="tripleoscillator" />
        </instrumenttrack>
        <pattern pos="256896" muted="0" steps="16" name="" type="1">
          <note key="60" pos="168" pan="0" len="24" vol="41" />
          <note key="72" pos="288" pan="0" len="24" vol="41" />
          <note key="60" pos="552" pan="0" len="24" vol="41" />
          <note key="72" pos="672" pan="0" len="24" vol="41" />
          <note key="60" pos="936" pan="0" len="24" vol="41" />
          <note key="72" pos="1056" pan="0" len="24" vol="41" />
          <note key="60" pos="1320" pan="0" len="24" vol="41" />
          <note key="72" pos="1440" pan="0" len="24" vol="41" />
        </pattern>
        <pattern pos="238464" muted="0" steps="16" name="" type="1">
          <note key="60" pos="264" pan="0" len="48" vol="59" />
          <note key="60" pos="648" pan="0" len="48" vol="59" />
          <note key="60" pos="1032" pan="0" len="48" vol="59" />
          <note key="60" pos="1416" pan="0" len="48" vol="59" />
        </pattern>
        <pattern pos="240000" muted="0" steps="16" name="" type="1">
          <note key="60" pos="264" pan="0" len="48" vol="59" />
          <note key="60" pos="648" pan="0" len="48" vol="59" />
          <note key="60" pos="1032" pan="0" len="48" vol="59" />
          <note key="60" pos="1416" pan="0" len="48" vol="59" />
        </pattern>
        <pattern pos="241536" muted="0" steps="16" name="" type="1">
          <note key="60" pos="264" pan="0" len="48" vol="59" />
          <note key="60" pos="648" pan="0" len="48" vol="59" />
          <note key="60" pos="1032" pan="0" len="48" vol="59" />
          <note key="60" pos="1416" pan="0" len="48" vol="59" />
        </pattern>
        <pattern pos="243072" muted="0" steps="16" name="" type="1">
          <note key="60" pos="264" pan="0" len="48" vol="59" />
          <note key="60" pos="648" pan="0" len="48" vol="59" />
          <note key="60" pos="1032" pan="0" len="48" vol="59" />
          <note key="60" pos="1416" pan="0" len="48" vol="59" />
        </pattern>
        <pattern pos="244608" muted="0" steps="16" name="" type="1">
          <note key="60" pos="168" pan="0" len="24" vol="41" />
          <note key="72" pos="288" pan="0" len="24" vol="41" />
          <note key="60" pos="552" pan="0" len="24" vol="41" />
          <note key="72" pos="672" pan="0" len="24" vol="41" />
          <note key="60" pos="936" pan="0" len="24" vol="41" />
          <note key="72" pos="1056" pan="0" len="24" vol="41" />
          <note key="60" pos="1320" pan="0" len="24" vol="41" />
          <note key="72" pos="1440" pan="0" len="24" vol="41" />
        </pattern>
        <pattern pos="246144" muted="0" steps="16" name="" type="1">
          <note key="60" pos="168" pan="0" len="24" vol="41" />
          <note key="72" pos="288" pan="0" len="24" vol="41" />
          <note key="60" pos="552" pan="0" len="24" vol="41" />
          <note key="72" pos="672" pan="0" len="24" vol="41" />
          <note key="60" pos="936" pan="0" len="24" vol="41" />
          <note key="72" pos="1056" pan="0" len="24" vol="41" />
          <note key="60" pos="1320" pan="0" len="24" vol="41" />
          <note key="72" pos="1440" pan="0" len="24" vol="41" />
        </pattern>
        <pattern pos="247680" muted="0" steps="16" name="" type="1">
          <note key="60" pos="264" pan="0" len="48" vol="59" />
          <note key="60" pos="648" pan="0" len="48" vol="59" />
          <note key="60" pos="1032" pan="0" len="48" vol="59" />
          <note key="60" pos="1416" pan="0" len="48" vol="59" />
        </pattern>
        <pattern pos="249216" muted="0" steps="16" name="" type="1">
          <note key="60" pos="168" pan="0" len="24" vol="41" />
          <note key="72" pos="288" pan="0" len="24" vol="41" />
          <note key="60" pos="552" pan="0" len="24" vol="41" />
          <note key="72" pos="672" pan="0" len="24" vol="41" />
          <note key="60" pos="936" pan="0" len="24" vol="41" />
          <note key="72" pos="1056" pan="0" len="24" vol="41" />
          <note key="60" pos="1320" pan="0" len="24" vol="41" />
          <note key="72" pos="1440" pan="0" len="24" vol="41" />
        </pattern>
        <pattern pos="250752" muted="0" steps="16" name="" type="1">
          <note key="60" pos="168" pan="0" len="24" vol="41" />
          <note key="72" pos="288" pan="0" len="24" vol="41" />
          <note key="60" pos="552" pan="0" len="24" vol="41" />
          <note key="72" pos="672" pan="0" len="24" vol="41" />
          <note key="60" pos="936" pan="0" len="24" vol="41" />
          <note key="72" pos="1056" pan="0" len="24" vol="41" />
          <note key="60" pos="1320" pan="0" len="24" vol="41" />
          <note key="72" pos="1440" pan="0" len="24" vol="41" />
        </pattern>
        <pattern pos="252288" muted="0" steps="16" name="" type="1">
          <note key="60" pos="168" pan="0" len="24" vol="41" />
          <note key="72" pos="288" pan="0" len="24" vol="41" />
          <note key="60" pos="552" pan="0" len="24" vol="41" />
          <note key="72" pos="672" pan="0" len="24" vol="41" />
          <note key="60" pos="936" pan="0" len="24" vol="41" />
          <note key="72" pos="1056" pan="0" len="24" vol="41" />
          <note key="60" pos="1320" pan="0" len="24" vol="41" />
          <note key="72" pos="1440" pan="0" len="24" vol="41" />
        </pattern>
        <pattern pos="253824" muted="0" steps="16" name="" type="1">
          <note key="60" pos="168" pan="0" len="24" vol="41" />
          <note key="72" pos="288" pan="0" len="24" vol="41" />
          <note key="60" pos="552" pan="0" len="24" vol="41" />
          <note key="72" pos="672" pan="0" len="24" vol="41" />
          <note key="60" pos="936" pan="0" len="24" vol="41" />
          <note key="72" pos="1056" pan="0" len="24" vol="41" />
          <note key="60" pos="1320" pan="0" len="24" vol="41" />
          <note key="72" pos="1440" pan="0" len="24" vol="41" />
        </pattern>
        <pattern pos="255360" muted="0" steps="16" name="" type="1">
          <note key="60" pos="168" pan="0" len="24" vol="41" />
          <note key="72" pos="288" pan="0" len="24" vol="41" />
          <note key="60" pos="552" pan="0" len="24" vol="41" />
          <note key="72" pos="672" pan="0" len="24" vol="41" />
          <note key="60" pos="936" pan="0" len="24" vol="41" />
          <note key="72" pos="1056" pan="0" len="24" vol="41" />
          <note key="60" pos="1320" pan="0" len="24" vol="41" />
          <note key="72" pos="1440" pan="0" len="24" vol="41" />
        </pattern>
      </track>
      <track solo="0" name="74 (Ch1)" type="0" muted="0">
        <instrumenttrack usemasterpitch="1" pitch="0.0" basenote="57" pan="0" pitchrange="12" vol="30">
          <eldata />
          <instrument name="tripleoscillator" />
        </instrumenttrack>
        <pattern pos="256896" muted="0" steps="16" name="" type="1">
          <note key="60" pos="24" pan="0" len="24" vol="100" />
          <note key="60" pos="408" pan="0" len="24" vol="100" />
          <note key="60" pos="792" pan="0" len="24" vol="100" />
          <note key="60" pos="1176" pan="0" len="24" vol="100" />
        </pattern>
        <pattern pos="238464" muted="0" steps="16" name="" type="1">
          <note key="60" pos="96" pan="0" len="24" vol="100" />
          <note key="60" pos="336" pan="0" len="24" vol="100" />
          <note key="60" pos="480" pan="0" len="24" vol="100" />
          <note key="60" pos="720" pan="0" len="24" vol="100" />
          <note key="60" pos="864" pan="0" len="24" vol="100" />
          <note key="60" pos="1104" pan="0" len="24" vol="100" />
          <note key="60" pos="1248" pan="0" len="24" vol="100" />
          <note key="60" pos="1488" pan="0" len="24" vol="100" />
        </pattern>
        <pattern pos="240000" muted="0" steps="16" name="" type="1">
          <note key="60" pos="96" pan="0" len="24" vol="100" />
          <note key="60" pos="336" pan="0" len="24" vol="100" />
          <note key="60" pos="480" pan="0" len="24" vol="100" />
          <note key="60" pos="720" pan="0" len="24" vol="100" />
          <note key="60" pos="864" pan="0" len="24" vol="100" />
          <note key="60" pos="1104" pan="0" len="24" vol="100" />
          <note key="60" pos="1248" pan="0" len="24" vol="100" />
          <note key="60" pos="1488" pan="0" len="24" vol="100" />
        </pattern>
        <pattern pos="241536" muted="0" steps="16" name="" type="1">
          <note key="60" pos="96" pan="0" len="24" vol="100" />
          <note key="60" pos="336" pan="0" len="24" vol="100" />
          <note key="60" pos="480" pan="0" len="24" vol="100" />
          <note key="60" pos="720" pan="0" len="24" vol="100" />
          <note key="60" pos="864" pan="0" len="24" vol="100" />
          <note key="60" pos="1104" pan="0" len="24" vol="100" />
          <note key="60" pos="1248" pan="0" len="24" vol="100" />
          <note key="60" pos="1488" pan="0" len="24" vol="100" />
        </pattern>
        <pattern pos="243072" muted="0" steps="16" name="" type="1">
          <note key="60" pos="96" pan="0" len="24" vol="100" />
          <note key="60" pos="336" pan="0" len="24" vol="100" />
          <note key="60" pos="480" pan="0" len="24" vol="100" />
          <note key="60" pos="720" pan="0" len="24" vol="100" />
          <note key="60" pos="864" pan="0" len="24" vol="100" />
          <note key="60" pos="1104" pan="0" len="24" vol="100" />
          <note key="60" pos="1248" pan="0" len="24" vol="100" />
          <note key="60" pos="1488" pan="0" len="24" vol="100" />
        </pattern>
        <pattern pos="244608" muted="0" steps="16" name="" type="1">
          <note key="60" pos="24" pan="0" len="24" vol="100" />
          <note key="60" pos="408" pan="0" len="24" vol="100" />
          <note key="60" pos="792" pan="0" len="24" vol="100" />
          <note key="60" pos="1176" pan="0" len="24" vol="100" />
        </pattern>
        <pattern pos="246144" muted="0" steps="16" name="" type="1">
          <note key="60" pos="24" pan="0" len="24" vol="100" />
          <note key="60" pos="408" pan="0" len="24" vol="100" />
          <note key="60" pos="792" pan="0" len="24" vol="100" />
          <note key="60" pos="1176" pan="0" len="24" vol="100" />
        </pattern>
        <pattern pos="247680" muted="0" steps="16" name="" type="1">
          <note key="60" pos="96" pan="0" len="24" vol="100" />
          <note key="60" pos="336" pan="0" len="24" vol="100" />
          <note key="60" pos="480" pan="0" len="24" vol="100" />
          <note key="60" pos="720" pan="0" len="24" vol="100" />
          <note key="60" pos="864" pan="0" len="24" vol="100" />
          <note key="60" pos="1104" pan="0" len="24" vol="100" />
          <note key="60" pos="1248" pan="0" len="24" vol="100" />
          <note key="60" pos="1488" pan="0" len="24" vol="100" />
        </pattern>
        <pattern pos="249216" muted="0" steps="16" name="" type="1">
          <note key="60" pos="24" pan="0" len="24" vol="100" />
          <note key="60" pos="408" pan="0" len="24" vol="100" />
          <note key="60" pos="792" pan="0" len="24" vol="100" />
          <note key="60" pos="1176" pan="0" len="24" vol="100" />
        </pattern>
        <pattern pos="250752" muted="0" steps="16" name="" type="1">
          <note key="60" pos="24" pan="0" len="24" vol="100" />
          <note key="60" pos="408" pan="0" len="24" vol="100" />
          <note key="60" pos="792" pan="0" len="24" vol="100" />
          <note key="60" pos="1176" pan="0" len="24" vol="100" />
        </pattern>
        <pattern pos="252288" muted="0" steps="16" name="" type="1">
          <note key="60" pos="24" pan="0" len="24" vol="100" />
          <note key="60" pos="408" pan="0" len="24" vol="100" />
          <note key="60" pos="792" pan="0" len="24" vol="100" />
          <note key="60" pos="1176" pan="0" len="24" vol="100" />
        </pattern>
        <pattern pos="253824" muted="0" steps="16" name="" type="1">
          <note key="60" pos="24" pan="0" len="24" vol="100" />
          <note key="60" pos="408" pan="0" len="24" vol="100" />
          <note key="60" pos="792" pan="0" len="24" vol="100" />
          <note key="60" pos="1176" pan="0" len="24" vol="100" />
        </pattern>
        <pattern pos="255360" muted="0" steps="16" name="" type="1">
          <note key="60" pos="24" pan="0" len="24" vol="100" />
          <note key="60" pos="408" pan="0" len="24" vol="100" />
          <note key="60" pos="792" pan="0" len="24" vol="100" />
          <note key="60" pos="1176" pan="0" len="24" vol="100" />
        </pattern>
      </track>
      <track solo="0" name="74 (Ch2)" type="0" muted="0">
        <instrumenttrack usemasterpitch="1" pitch="0.0" basenote="57" pan="0" pitchrange="12" vol="30">
          <eldata />
          <instrument name="tripleoscillator" />
        </instrumenttrack>
        <pattern pos="256896" muted="0" steps="16" name="" type="1">
          <note key="60" pos="96" pan="0" len="24" vol="41" />
          <note key="60" pos="480" pan="0" len="24" vol="41" />
          <note key="60" pos="864" pan="0" len="24" vol="41" />
          <note key="60" pos="1248" pan="0" len="24" vol="41" />
        </pattern>
        <pattern pos="238464" muted="0" steps="16" name="" type="1">
          <note key="60" pos="168" pan="0" len="24" vol="59" />
          <note key="60" pos="408" pan="0" len="24" vol="59" />
          <note key="60" pos="552" pan="0" len="24" vol="59" />
          <note key="60" pos="792" pan="0" len="24" vol="59" />
          <note key="60" pos="936" pan="0" len="24" vol="59" />
          <note key="60" pos="1176" pan="0" len="24" vol="59" />
          <note key="60" pos="1320" pan="0" len="24" vol="59" />
        </pattern>
        <pattern pos="240000" muted="0" steps="16" name="" type="1">
          <note key="60" pos="168" pan="0" len="24" vol="59" />
          <note key="60" pos="408" pan="0" len="24" vol="59" />
          <note key="60" pos="552" pan="0" len="24" vol="59" />
          <note key="60" pos="792" pan="0" len="24" vol="59" />
          <note key="60" pos="936" pan="0" len="24" vol="59" />
          <note key="60" pos="1176" pan="0" len="24" vol="59" />
          <note key="60" pos="1320" pan="0" len="24" vol="59" />
        </pattern>
        <pattern pos="241536" muted="0" steps="16" name="" type="1">
          <note key="60" pos="168" pan="0" len="24" vol="59" />
          <note key="60" pos="408" pan="0" len="24" vol="59" />
          <note key="60" pos="552" pan="0" len="24" vol="59" />
          <note key="60" pos="792" pan="0" len="24" vol="59" />
          <note key="60" pos="936" pan="0" len="24" vol="59" />
          <note key="60" pos="1176" pan="0" len="24" vol="59" />
          <note key="60" pos="1320" pan="0" len="24" vol="59" />
        </pattern>
        <pattern pos="243072" muted="0" steps="16" name="" type="1">
          <note key="60" pos="168" pan="0" len="24" vol="59" />
          <note key="60" pos="408" pan="0" len="24" vol="59" />
          <note key="60" pos="552" pan="0" len="24" vol="59" />
          <note key="60" pos="792" pan="0" len="24" vol="59" />
          <note key="60" pos="936" pan="0" len="24" vol="59" />
          <note key="60" pos="1176" pan="0" len="24" vol="59" />
          <note key="60" pos="1320" pan="0" len="24" vol="59" />
        </pattern>
        <pattern pos="244608" muted="0" steps="16" name="" type="1">
          <note key="60" pos="96" pan="0" len="24" vol="41" />
          <note key="60" pos="480" pan="0" len="24" vol="41" />
          <note key="60" pos="864" pan="0" len="24" vol="41" />
          <note key="60" pos="1248" pan="0" len="24" vol="41" />
        </pattern>
        <pattern pos="246144" muted="0" steps="16" name="" type="1">
          <note key="60" pos="96" pan="0" len="24" vol="41" />
          <note key="60" pos="480" pan="0" len="24" vol="41" />
          <note key="60" pos="864" pan="0" len="24" vol="41" />
          <note key="60" pos="1248" pan="0" len="24" vol="41" />
        </pattern>
        <pattern pos="247680" muted="0" steps="16" name="" type="1">
          <note key="60" pos="168" pan="0" len="24" vol="59" />
          <note key="60" pos="408" pan="0" len="24" vol="59" />
          <note key="60" pos="552" pan="0" len="24" vol="59" />
          <note key="60" pos="792" pan="0" len="24" vol="59" />
          <note key="60" pos="936" pan="0" len="24" vol="59" />
          <note key="60" pos="1176" pan="0" len="24" vol="59" />
          <note key="60" pos="1320" pan="0" len="24" vol="59" />
        </pattern>
        <pattern pos="249216" muted="0" steps="16" name="" type="1">
          <note key="60" pos="96" pan="0" len="24" vol="41" />
          <note key="60" pos="480" pan="0" len="24" vol="41" />
          <note key="60" pos="864" pan="0" len="24" vol="41" />
          <note key="60" pos="1248" pan="0" len="24" vol="41" />
        </pattern>
        <pattern pos="250752" muted="0" steps="16" name="" type="1">
          <note key="60" pos="96" pan="0" len="24" vol="41" />
          <note key="60" pos="480" pan="0" len="24" vol="41" />
          <note key="60" pos="864" pan="0" len="24" vol="41" />
          <note key="60" pos="1248" pan="0" len="24" vol="41" />
        </pattern>
        <pattern pos="252288" muted="0" steps="16" name="" type="1">
          <note key="60" pos="96" pan="0" len="24" vol="41" />
          <note key="60" pos="480" pan="0" len="24" vol="41" />
          <note key="60" pos="864" pan="0" len="24" vol="41" />
          <note key="60" pos="1248" pan="0" len="24" vol="41" />
        </pattern>
        <pattern pos="253824" muted="0" steps="16" name="" type="1">
          <note key="60" pos="96" pan="0" len="24" vol="41" />
          <note key="60" pos="480" pan="0" len="24" vol="41" />
          <note key="60" pos="864" pan="0" len="24" vol="41" />
          <note key="60" pos="1248" pan="0" len="24" vol="41" />
        </pattern>
        <pattern pos="255360" muted="0" steps="16" name="" type="1">
          <note key="60" pos="96" pan="0" len="24" vol="41" />
          <note key="60" pos="480" pan="0" len="24" vol="41" />
          <note key="60" pos="864" pan="0" len="24" vol="41" />
          <note key="60" pos="1248" pan="0" len="24" vol="41" />
        </pattern>
      </track>
      <track solo="0" name="76 (Ch1)" type="0" muted="0">
        <instrumenttrack usemasterpitch="1" pitch="0.0" basenote="57" pan="0" pitchrange="12" vol="30">
          <eldata />
          <instrument name="tripleoscillator" />
        </instrumenttrack>
        <pattern pos="256896" muted="0" steps="16" name="" type="1">
          <note key="58" pos="120" pan="0" len="48" vol="100" />
          <note key="58" pos="504" pan="0" len="48" vol="100" />
          <note key="58" pos="888" pan="0" len="48" vol="100" />
          <note key="58" pos="1272" pan="0" len="48" vol="100" />
        </pattern>
        <pattern pos="244608" muted="0" steps="16" name="" type="1">
          <note key="60" pos="120" pan="0" len="48" vol="100" />
          <note key="60" pos="504" pan="0" len="48" vol="100" />
          <note key="60" pos="888" pan="0" len="48" vol="100" />
          <note key="60" pos="1272" pan="0" len="48" vol="100" />
        </pattern>
        <pattern pos="246144" muted="0" steps="16" name="" type="1">
          <note key="60" pos="120" pan="0" len="48" vol="100" />
          <note key="60" pos="504" pan="0" len="48" vol="100" />
          <note key="60" pos="888" pan="0" len="48" vol="100" />
          <note key="60" pos="1272" pan="0" len="48" vol="100" />
        </pattern>
        <pattern pos="249216" muted="0" steps="16" name="" type="1">
          <note key="60" pos="120" pan="0" len="48" vol="100" />
          <note key="60" pos="504" pan="0" len="48" vol="100" />
          <note key="60" pos="888" pan="0" len="48" vol="100" />
          <note key="60" pos="1272" pan="0" len="48" vol="100" />
        </pattern>
        <pattern pos="250752" muted="0" steps="16" name="" type="1">
          <note key="60" pos="120" pan="0" len="48" vol="100" />
          <note key="60" pos="504" pan="0" len="48" vol="100" />
          <note key="60" pos="888" pan="0" len="48" vol="100" />
          <note key="60" pos="1272" pan="0" len="48" vol="100" />
        </pattern>
        <pattern pos="252288" muted="0" steps="16" name="" type="1">
          <note key="58" pos="120" pan="0" len="48" vol="100" />
          <note key="58" pos="504" pan="0" len="48" vol="100" />
          <note key="58" pos="888" pan="0" len="48" vol="100" />
          <note key="58" pos="1272" pan="0" len="48" vol="100" />
        </pattern>
        <pattern pos="253824" muted="0" steps="16" name="" type="1">
          <note key="58" pos="120" pan="0" len="48" vol="100" />
          <note key="58" pos="504" pan="0" len="48" vol="100" />
          <note key="58" pos="888" pan="0" len="48" vol="100" />
          <note key="58" pos="1272" pan="0" len="48" vol="100" />
        </pattern>
        <pattern pos="255360" muted="0" steps="16" name="" type="1">
          <note key="58" pos="120" pan="0" len="48" vol="100" />
          <note key="58" pos="504" pan="0" len="48" vol="100" />
          <note key="58" pos="888" pan="0" len="48" vol="100" />
          <note key="58" pos="1272" pan="0" len="48" vol="100" />
        </pattern>
      </track>
      <track solo="0" name="76 (Ch2)" type="0" muted="0">
        <instrumenttrack usemasterpitch="1" pitch="0.0" basenote="57" pan="0" pitchrange="12" vol="30">
          <eldata />
          <instrument name="tripleoscillator" />
        </instrumenttrack>
        <pattern pos="256896" muted="0" steps="16" name="" type="1">
          <note key="60" pos="192" pan="0" len="48" vol="41" />
          <note key="60" pos="576" pan="0" len="48" vol="41" />
          <note key="60" pos="960" pan="0" len="48" vol="41" />
          <note key="60" pos="1344" pan="0" len="48" vol="41" />
        </pattern>
        <pattern pos="244608" muted="0" steps="16" name="" type="1">
          <note key="60" pos="192" pan="0" len="48" vol="41" />
          <note key="60" pos="576" pan="0" len="48" vol="41" />
          <note key="60" pos="960" pan="0" len="48" vol="41" />
          <note key="60" pos="1344" pan="0" len="48" vol="41" />
        </pattern>
        <pattern pos="246144" muted="0" steps="16" name="" type="1">
          <note key="60" pos="192" pan="0" len="48" vol="41" />
          <note key="60" pos="576" pan="0" len="48" vol="41" />
          <note key="60" pos="960" pan="0" len="48" vol="41" />
          <note key="60" pos="1344" pan="0" len="48" vol="41" />
        </pattern>
        <pattern pos="249216" muted="0" steps="16" name="" type="1">
          <note key="60" pos="192" pan="0" len="48" vol="41" />
          <note key="60" pos="576" pan="0" len="48" vol="41" />
          <note key="60" pos="960" pan="0" len="48" vol="41" />
          <note key="60" pos="1344" pan="0" len="48" vol="41" />
        </pattern>
        <pattern pos="250752" muted="0" steps="16" name="" type="1">
          <note key="60" pos="192" pan="0" len="48" vol="41" />
          <note key="60" pos="576" pan="0" len="48" vol="41" />
          <note key="60" pos="960" pan="0" len="48" vol="41" />
          <note key="60" pos="1344" pan="0" len="48" vol="41" />
        </pattern>
        <pattern pos="252288" muted="0" steps="16" name="" type="1">
          <note key="60" pos="192" pan="0" len="48" vol="41" />
          <note key="60" pos="576" pan="0" len="48" vol="41" />
          <note key="60" pos="960" pan="0" len="48" vol="41" />
          <note key="60" pos="1344" pan="0" len="48" vol="41" />
        </pattern>
        <pattern pos="253824" muted="0" steps="16" name="" type="1">
          <note key="60" pos="192" pan="0" len="48" vol="41" />
          <note key="60" pos="576" pan="0" len="48" vol="41" />
          <note key="60" pos="960" pan="0" len="48" vol="41" />
          <note key="60" pos="1344" pan="0" len="48" vol="41" />
        </pattern>
        <pattern pos="255360" muted="0" steps="16" name="" type="1">
          <note key="60" pos="192" pan="0" len="48" vol="41" />
          <note key="60" pos="576" pan="0" len="48" vol="41" />
          <note key="60" pos="960" pan="0" len="48" vol="41" />
          <note key="60" pos="1344" pan="0" len="48" vol="41" />
        </pattern>
      </track>
      <track solo="0" name="77 (Ch1)" type="0" muted="0">
        <instrumenttrack usemasterpitch="1" pitch="0.0" basenote="57" pan="0" pitchrange="12" vol="30">
          <eldata />
          <instrument name="tripleoscillator" />
        </instrumenttrack>
        <pattern pos="256896" muted="0" steps="16" name="" type="1">
          <note key="72" pos="240" pan="0" len="48" vol="100" />
          <note key="72" pos="624" pan="0" len="48" vol="100" />
          <note key="72" pos="1008" pan="0" len="48" vol="100" />
          <note key="72" pos="1392" pan="0" len="48" vol="100" />
        </pattern>
        <pattern pos="244608" muted="0" steps="16" name="" type="1">
          <note key="72" pos="240" pan="0" len="48" vol="100" />
          <note key="72" pos="624" pan="0" len="48" vol="100" />
          <note key="72" pos="1008" pan="0" len="48" vol="100" />
          <note key="72" pos="1392" pan="0" len="48" vol="100" />
        </pattern>
        <pattern pos="246144" muted="0" steps="16" name="" type="1">
          <note key="72" pos="240" pan="0" len="48" vol="100" />
          <note key="72" pos="624" pan="0" len="48" vol="100" />
          <note key="72" pos="1008" pan="0" len="48" vol="100" />
          <note key="72" pos="1392" pan="0" len="48" vol="100" />
        </pattern>
        <pattern pos="249216" muted="0" steps="16" name="" type="1">
          <note key="72" pos="240" pan="0" len="48" vol="100" />
          <note key="72" pos="624" pan="0" len="48" vol="100" />
          <note key="72" pos="1008" pan="0" len="48" vol="100" />
          <note key="72" pos="1392" pan="0" len="48" vol="100" />
        </pattern>
        <pattern pos="250752" muted="0" steps="16" name="" type="1">
          <note key="72" pos="240" pan="0" len="48" vol="100" />
          <note key="72" pos="624" pan="0" len="48" vol="100" />
          <note key="72" pos="1008" pan="0" len="48" vol="100" />
          <note key="72" pos="1392" pan="0" len="48" vol="100" />
        </pattern>
        <pattern pos="252288" muted="0" steps="16" name="" type="1">
          <note key="72" pos="240" pan="0" len="48" vol="100" />
          <note key="72" pos="624" pan="0" len="48" vol="100" />
          <note key="72" pos="1008" pan="0" len="48" vol="100" />
          <note key="72" pos="1392" pan="0" len="48" vol="100" />
        </pattern>
        <pattern pos="253824" muted="0" steps="16" name="" type="1">
          <note key="72" pos="240" pan="0" len="48" vol="100" />
          <note key="72" pos="624" pan="0" len="48" vol="100" />
          <note key="72" pos="1008" pan="0" len="48" vol="100" />
          <note key="72" pos="1392" pan="0" len="48" vol="100" />
        </pattern>
        <pattern pos="255360" muted="0" steps="16" name="" type="1">
          <note key="72" pos="240" pan="0" len="48" vol="100" />
          <note key="72" pos="624" pan="0" len="48" vol="100" />
          <note key="72" pos="1008" pan="0" len="48" vol="100" />
          <note key="72" pos="1392" pan="0" len="48" vol="100" />
        </pattern>
      </track>
      <track solo="0" name="77 (Ch2)" type="0" muted="0">
        <instrumenttrack usemasterpitch="1" pitch="0.0" basenote="57" pan="0" pitchrange="12" vol="30">
          <eldata />
          <instrument name="tripleoscillator" />
        </instrumenttrack>
        <pattern pos="256896" muted="0" steps="16" name="" type="1">
          <note key="72" pos="312" pan="0" len="48" vol="41" />
          <note key="72" pos="696" pan="0" len="48" vol="41" />
          <note key="72" pos="1080" pan="0" len="48" vol="41" />
          <note key="72" pos="1464" pan="0" len="48" vol="41" />
        </pattern>
        <pattern pos="244608" muted="0" steps="16" name="" type="1">
          <note key="72" pos="312" pan="0" len="48" vol="41" />
          <note key="72" pos="696" pan="0" len="48" vol="41" />
          <note key="72" pos="1080" pan="0" len="48" vol="41" />
          <note key="72" pos="1464" pan="0" len="48" vol="41" />
        </pattern>
        <pattern pos="246144" muted="0" steps="16" name="" type="1">
          <note key="72" pos="312" pan="0" len="48" vol="41" />
          <note key="72" pos="696" pan="0" len="48" vol="41" />
          <note key="72" pos="1080" pan="0" len="48" vol="41" />
          <note key="72" pos="1464" pan="0" len="48" vol="41" />
        </pattern>
        <pattern pos="249216" muted="0" steps="16" name="" type="1">
          <note key="72" pos="312" pan="0" len="48" vol="41" />
          <note key="72" pos="696" pan="0" len="48" vol="41" />
          <note key="72" pos="1080" pan="0" len="48" vol="41" />
          <note key="72" pos="1464" pan="0" len="48" vol="41" />
        </pattern>
        <pattern pos="250752" muted="0" steps="16" name="" type="1">
          <note key="72" pos="312" pan="0" len="48" vol="41" />
          <note key="72" pos="696" pan="0" len="48" vol="41" />
          <note key="72" pos="1080" pan="0" len="48" vol="41" />
          <note key="72" pos="1464" pan="0" len="48" vol="41" />
        </pattern>
        <pattern pos="252288" muted="0" steps="16" name="" type="1">
          <note key="72" pos="312" pan="0" len="48" vol="41" />
          <note key="72" pos="696" pan="0" len="48" vol="41" />
          <note key="72" pos="1080" pan="0" len="48" vol="41" />
          <note key="72" pos="1464" pan="0" len="48" vol="41" />
        </pattern>
        <pattern pos="253824" muted="0" steps="16" name="" type="1">
          <note key="72" pos="312" pan="0" len="48" vol="41" />
          <note key="72" pos="696" pan="0" len="48" vol="41" />
          <note key="72" pos="1080" pan="0" len="48" vol="41" />
          <note key="72" pos="1464" pan="0" len="48" vol="41" />
        </pattern>
        <pattern pos="255360" muted="0" steps="16" name="" type="1">
          <note key="72" pos="312" pan="0" len="48" vol="41" />
          <note key="72" pos="696" pan="0" len="48" vol="41" />
          <note key="72" pos="1080" pan="0" len="48" vol="41" />
          <note key="72" pos="1464" pan="0" len="48" vol="41" />
        </pattern>
      </track>
      <track solo="0" name="78 (Ch1)" type="0" muted="0">
        <instrumenttrack usemasterpitch="1" pitch="0.0" basenote="57" pan="0" pitchrange="12" vol="30">
          <eldata />
          <instrument name="tripleoscillator" />
        </instrumenttrack>
        <pattern pos="256896" muted="0" steps="16" name="" type="1">
          <note key="72" pos="168" pan="0" len="24" vol="100" />
          <note key="60" pos="192" pan="0" len="24" vol="100" />
          <note key="60" pos="336" pan="0" len="48" vol="100" />
          <note key="72" pos="552" pan="0" len="24" vol="100" />
          <note key="60" pos="576" pan="0" len="24" vol="100" />
          <note key="60" pos="720" pan="0" len="48" vol="100" />
          <note key="72" pos="936" pan="0" len="24" vol="100" />
          <note key="60" pos="960" pan="0" len="24" vol="100" />
          <note key="60" pos="1104" pan="0" len="48" vol="100" />
          <note key="72" pos="1320" pan="0" len="24" vol="100" />
          <note key="60" pos="1344" pan="0" len="24" vol="100" />
          <note key="60" pos="1488" pan="0" len="48" vol="100" />
        </pattern>
        <pattern pos="238464" muted="0" steps="16" name="" type="1">
          <note key="60" pos="240" pan="0" len="48" vol="100" />
          <note key="60" pos="624" pan="0" len="48" vol="100" />
          <note key="60" pos="1008" pan="0" len="48" vol="100" />
          <note key="60" pos="1392" pan="0" len="48" vol="100" />
        </pattern>
        <pattern pos="240000" muted="0" steps="16" name="" type="1">
          <note key="60" pos="240" pan="0" len="48" vol="100" />
          <note key="60" pos="624" pan="0" len="48" vol="100" />
          <note key="60" pos="1008" pan="0" len="48" vol="100" />
          <note key="60" pos="1392" pan="0" len="48" vol="100" />
        </pattern>
        <pattern pos="241536" muted="0" steps="16" name="" type="1">
          <note key="60" pos="240" pan="0" len="48" vol="100" />
          <note key="60" pos="624" pan="0" len="48" vol="100" />
          <note key="60" pos="1008" pan="0" len="48" vol="100" />
          <note key="60" pos="1392" pan="0" len="48" vol="100" />
        </pattern>
        <pattern pos="243072" muted="0" steps="16" name="" type="1">
          <note key="60" pos="240" pan="0" len="48" vol="100" />
          <note key="60" pos="624" pan="0" len="48" vol="100" />
          <note key="60" pos="1008" pan="0" len="48" vol="100" />
          <note key="60" pos="1392" pan="0" len="48" vol="100" />
        </pattern>
        <pattern pos="244608" muted="0" steps="16" name="" type="1">
          <note key="72" pos="168" pan="0" len="24" vol="100" />
          <note key="60" pos="192" pan="0" len="24" vol="100" />
          <note key="60" pos="336" pan="0" len="48" vol="100" />
          <note key="72" pos="552" pan="0" len="24" vol="100" />
          <note key="60" pos="576" pan="0" len="24" vol="100" />
          <note key="60" pos="720" pan="0" len="48" vol="100" />
          <note key="72" pos="936" pan="0" len="24" vol="100" />
          <note key="60" pos="960" pan="0" len="24" vol="100" />
          <note key="60" pos="1104" pan="0" len="48" vol="100" />
          <note key="72" pos="1320" pan="0" len="24" vol="100" />
          <note key="60" pos="1344" pan="0" len="24" vol="100" />
          <note key="60" pos="1488" pan="0" len="48" vol="100" />
        </pattern>
        <pattern pos="246144" muted="0" steps="16" name="" type="1">
          <note key="72" pos="168" pan="0" len="24" vol="100" />
          <note key="60" pos="192" pan="0" len="24" vol="100" />
          <note key="60" pos="336" pan="0" len="48" vol="100" />
          <note key="72" pos="552" pan="0" len="24" vol="100" />
          <note key="60" pos="576" pan="0" len="24" vol="100" />
          <note key="60" pos="720" pan="0" len="48" vol="100" />
          <note key="72" pos="936" pan="0" len="24" vol="100" />
          <note key="60" pos="960" pan="0" len="24" vol="100" />
          <note key="60" pos="1104" pan="0" len="48" vol="100" />
          <note key="72" pos="1320" pan="0" len="24" vol="100" />
          <note key="60" pos="1344" pan="0" len="24" vol="100" />
          <note key="60" pos="1488" pan="0" len="48" vol="100" />
        </pattern>
        <pattern pos="247680" muted="0" steps="16" name="" type="1">
          <note key="60" pos="240" pan="0" len="48" vol="100" />
          <note key="60" pos="624" pan="0" len="48" vol="100" />
          <note key="60" pos="1008" pan="0" len="48" vol="100" />
          <note key="60" pos="1392" pan="0" len="48" vol="100" />
        </pattern>
        <pattern pos="249216" muted="0" steps="16" name="" type="1">
          <note key="72" pos="168" pan="0" len="24" vol="100" />
          <note key="60" pos="192" pan="0" len="24" vol="100" />
          <note key="60" pos="336" pan="0" len="48" vol="100" />
          <note key="72" pos="552" pan="0" len="24" vol="100" />
          <note key="60" pos="576" pan="0" len="24" vol="100" />
          <note key="60" pos="720" pan="0" len="48" vol="100" />
          <note key="72" pos="936" pan="0" len="24" vol="100" />
          <note key="60" pos="960" pan="0" len="24" vol="100" />
          <note key="60" pos="1104" pan="0" len="48" vol="100" />
          <note key="72" pos="1320" pan="0" len="24" vol="100" />
          <note key="60" pos="1344" pan="0" len="24" vol="100" />
          <note key="60" pos="1488" pan="0" len="48" vol="100" />
        </pattern>
        <pattern pos="250752" muted="0" steps="16" name="" type="1">
          <note key="72" pos="168" pan="0" len="24" vol="100" />
          <note key="60" pos="192" pan="0" len="24" vol="100" />
          <note key="60" pos="336" pan="0" len="48" vol="100" />
          <note key="72" pos="552" pan="0" len="24" vol="100" />
          <note key="60" pos="576" pan="0" len="24" vol="100" />
          <note key="60" pos="720" pan="0" len="48" vol="100" />
          <note key="72" pos="936" pan="0" len="24" vol="100" />
          <note key="60" pos="960" pan="0" len="24" vol="100" />
          <note key="60" pos="1104" pan="0" len="48" vol="100" />
          <note key="72" pos="1320" pan="0" len="24" vol="100" />
          <note key="60" pos="1344" pan="0" len="24" vol="100" />
          <note key="60" pos="1488" pan="0" len="48" vol="100" />
        </pattern>
        <pattern pos="252288" muted="0" steps="16" name="" type="1">
          <note key="72" pos="168" pan="0" len="24" vol="100" />
          <note key="60" pos="192" pan="0" len="24" vol="100" />
          <note key="60" pos="336" pan="0" len="48" vol="100" />
          <note key="72" pos="552" pan="0" len="24" vol="100" />
          <note key="60" pos="576" pan="0" len="24" vol="100" />
          <note key="60" pos="720" pan="0" len="48" vol="100" />
          <note key="72" pos="936" pan="0" len="24" vol="100" />
          <note key="60" pos="960" pan="0" len="24" vol="100" />
          <note key="60" pos="1104" pan="0" len="48" vol="100" />
          <note key="72" pos="1320" pan="0" len="24" vol="100" />
          <note key="60" pos="1344" pan="0" len="24" vol="100" />
          <note key="60" pos="1488" pan="0" len="48" vol="100" />
        </pattern>
        <pattern pos="253824" muted="0" steps="16" name="" type="1">
          <note key="72" pos="168" pan="0" len="24" vol="100" />
          <note key="60" pos="192" pan="0" len="24" vol="100" />
          <note key="60" pos="336" pan="0" len="48" vol="100" />
          <note key="72" pos="552" pan="0" len="24" vol="100" />
          <note key="60" pos="576" pan="0" len="24" vol="100" />
          <note key="60" pos="720" pan="0" len="48" vol="100" />
          <note key="72" pos="936" pan="0" len="24" vol="100" />
          <note key="60" pos="960" pan="0" len="24" vol="100" />
          <note key="60" pos="1104" pan="0" len="48" vol="100" />
          <note key="72" pos="1320" pan="0" len="24" vol="100" />
          <note key="60" pos="1344" pan="0" len="24" vol="100" />
          <note key="60" pos="1488" pan="0" len="48" vol="100" />
        </pattern>
        <pattern pos="255360" muted="0" steps="16" name="" type="1">
          <note key="72" pos="168" pan="0" len="24" vol="100" />
          <note key="60" pos="192" pan="0" len="24" vol="100" />
          <note key="60" pos="336" pan="0" len="48" vol="100" />
          <note key="72" pos="552" pan="0" len="24" vol="100" />
          <note key="60" pos="576" pan="0" len="24" vol="100" />
          <note key="60" pos="720" pan="0" len="48" vol="100" />
          <note key="72" pos="936" pan="0" len="24" vol="100" />
          <note key="60" pos="960" pan="0" len="24" vol="100" />
          <note key="60" pos="1104" pan="0" len="48" vol="100" />
          <note key="72" pos="1320" pan="0" len="24" vol="100" />
          <note key="60" pos="1344" pan="0" len="24" vol="100" />
          <note key="60" pos="1488" pan="0" len="48" vol="100" />
        </pattern>
      </track>
      <track solo="0" name="78 (Ch2)" type="0" muted="0">
        <instrumenttrack usemasterpitch="1" pitch="0.0" basenote="57" pan="0" pitchrange="12" vol="30">
          <eldata />
          <instrument name="tripleoscillator" />
        </instrumenttrack>
        <pattern pos="256896" muted="0" steps="16" name="" type="1">
          <note key="72" pos="240" pan="0" len="24" vol="41" />
          <note key="60" pos="264" pan="0" len="24" vol="41" />
          <note key="60" pos="408" pan="0" len="48" vol="41" />
          <note key="72" pos="624" pan="0" len="24" vol="41" />
          <note key="60" pos="648" pan="0" len="24" vol="41" />
          <note key="60" pos="792" pan="0" len="48" vol="41" />
          <note key="72" pos="1008" pan="0" len="24" vol="41" />
          <note key="60" pos="1032" pan="0" len="24" vol="41" />
          <note key="60" pos="1176" pan="0" len="48" vol="41" />
          <note key="72" pos="1392" pan="0" len="24" vol="41" />
          <note key="60" pos="1416" pan="0" len="24" vol="41" />
        </pattern>
        <pattern pos="238464" muted="0" steps="16" name="" type="1">
          <note key="60" pos="312" pan="0" len="48" vol="59" />
          <note key="60" pos="696" pan="0" len="48" vol="59" />
          <note key="60" pos="1080" pan="0" len="48" vol="59" />
          <note key="60" pos="1464" pan="0" len="48" vol="59" />
        </pattern>
        <pattern pos="240000" muted="0" steps="16" name="" type="1">
          <note key="60" pos="312" pan="0" len="48" vol="59" />
          <note key="60" pos="696" pan="0" len="48" vol="59" />
          <note key="60" pos="1080" pan="0" len="48" vol="59" />
          <note key="60" pos="1464" pan="0" len="48" vol="59" />
        </pattern>
        <pattern pos="241536" muted="0" steps="16" name="" type="1">
          <note key="60" pos="312" pan="0" len="48" vol="59" />
          <note key="60" pos="696" pan="0" len="48" vol="59" />
          <note key="60" pos="1080" pan="0" len="48" vol="59" />
          <note key="60" pos="1464" pan="0" len="48" vol="59" />
        </pattern>
        <pattern pos="243072" muted="0" steps="16" name="" type="1">
          <note key="60" pos="312" pan="0" len="48" vol="59" />
          <note key="60" pos="696" pan="0" len="48" vol="59" />
          <note key="60" pos="1080" pan="0" len="48" vol="59" />
          <note key="60" pos="1464" pan="0" len="48" vol="59" />
        </pattern>
        <pattern pos="244608" muted="0" steps="16" name="" type="1">
          <note key="72" pos="240" pan="0" len="24" vol="41" />
          <note key="60" pos="264" pan="0" len="24" vol="41" />
          <note key="60" pos="408" pan="0" len="48" vol="41" />
          <note key="72" pos="624" pan="0" len="24" vol="41" />
          <note key="60" pos="648" pan="0" len="24" vol="41" />
          <note key="60" pos="792" pan="0" len="48" vol="41" />
          <note key="72" pos="1008" pan="0" len="24" vol="41" />
          <note key="60" pos="1032" pan="0" len="24" vol="41" />
          <note key="60" pos="1176" pan="0" len="48" vol="41" />
          <note key="72" pos="1392" pan="0" len="24" vol="41" />
          <note key="60" pos="1416" pan="0" len="24" vol="41" />
        </pattern>
        <pattern pos="246144" muted="0" steps="16" name="" type="1">
          <note key="72" pos="240" pan="0" len="24" vol="41" />
          <note key="60" pos="264" pan="0" len="24" vol="41" />
          <note key="60" pos="408" pan="0" len="48" vol="41" />
          <note key="72" pos="624" pan="0" len="24" vol="41" />
          <note key="60" pos="648" pan="0" len="24" vol="41" />
          <note key="60" pos="792" pan="0" len="48" vol="41" />
          <note key="72" pos="1008" pan="0" len="24" vol="41" />
          <note key="60" pos="1032" pan="0" len="24" vol="41" />
          <note key="60" pos="1176" pan="0" len="48" vol="41" />
          <note key="72" pos="1392" pan="0" len="24" vol="41" />
          <note key="60" pos="1416" pan="0" len="24" vol="41" />
        </pattern>
        <pattern pos="247680" muted="0" steps="16" name="" type="1">
          <note key="60" pos="312" pan="0" len="48" vol="59" />
          <note key="60" pos="696" pan="0" len="48" vol="59" />
          <note key="60" pos="1080" pan="0" len="48" vol="59" />
          <note key="60" pos="1464" pan="0" len="48" vol="59" />
        </pattern>
        <pattern pos="249216" muted="0" steps="16" name="" type="1">
          <note key="72" pos="240" pan="0" len="24" vol="41" />
          <note key="60" pos="264" pan="0" len="24" vol="41" />
          <note key="60" pos="408" pan="0" len="48" vol="41" />
          <note key="72" pos="624" pan="0" len="24" vol="41" />
          <note key="60" pos="648" pan="0" len="24" vol="41" />
          <note key="60" pos="792" pan="0" len="48" vol="41" />
          <note key="72" pos="1008" pan="0" len="24" vol="41" />
          <note key="60" pos="1032" pan="0" len="24" vol="41" />
          <note key="60" pos="1176" pan="0" len="48" vol="41" />
          <note key="72" pos="1392" pan="0" len="24" vol="41" />
          <note key="60" pos="1416" pan="0" len="24" vol="41" />
        </pattern>
        <pattern pos="250752" muted="0" steps="16" name="" type="1">
          <note key="72" pos="240" pan="0" len="24" vol="41" />
          <note key="60" pos="264" pan="0" len="24" vol="41" />
          <note key="60" pos="408" pan="0" len="48" vol="41" />
          <note key="72" pos="624" pan="0" len="24" vol="41" />
          <note key="60" pos="648" pan="0" len="24" vol="41" />
          <note key="60" pos="792" pan="0" len="48" vol="41" />
          <note key="72" pos="1008" pan="0" len="24" vol="41" />
          <note key="60" pos="1032" pan="0" len="24" vol="41" />
          <note key="60" pos="1176" pan="0" len="48" vol="41" />
          <note key="72" pos="1392" pan="0" len="24" vol="41" />
          <note key="60" pos="1416" pan="0" len="24" vol="41" />
        </pattern>
        <pattern pos="252288" muted="0" steps="16" name="" type="1">
          <note key="72" pos="240" pan="0" len="24" vol="41" />
          <note key="60" pos="264" pan="0" len="24" vol="41" />
          <note key="60" pos="408" pan="0" len="48" vol="41" />
          <note key="72" pos="624" pan="0" len="24" vol="41" />
          <note key="60" pos="648" pan="0" len="24" vol="41" />
          <note key="60" pos="792" pan="0" len="48" vol="41" />
          <note key="72" pos="1008" pan="0" len="24" vol="41" />
          <note key="60" pos="1032" pan="0" len="24" vol="41" />
          <note key="60" pos="1176" pan="0" len="48" vol="41" />
          <note key="72" pos="1392" pan="0" len="24" vol="41" />
          <note key="60" pos="1416" pan="0" len="24" vol="41" />
        </pattern>
        <pattern pos="253824" muted="0" steps="16" name="" type="1">
          <note key="72" pos="240" pan="0" len="24" vol="41" />
          <note key="60" pos="264" pan="0" len="24" vol="41" />
          <note key="60" pos="408" pan="0" len="48" vol="41" />
          <note key="72" pos="624" pan="0" len="24" vol="41" />
          <note key="60" pos="648" pan="0" len="24" vol="41" />
          <note key="60" pos="792" pan="0" len="48" vol="41" />
          <note key="72" pos="1008" pan="0" len="24" vol="41" />
          <note key="60" pos="1032" pan="0" len="24" vol="41" />
          <note key="60" pos="1176" pan="0" len="48" vol="41" />
          <note key="72" pos="1392" pan="0" len="24" vol="41" />
          <note key="60" pos="1416" pan="0" len="24" vol="41" />
        </pattern>
        <pattern pos="255360" muted="0" steps="16" name="" type="1">
          <note key="72" pos="240" pan="0" len="24" vol="41" />
          <note key="60" pos="264" pan="0" len="24" vol="41" />
          <note key="60" pos="408" pan="0" len="48" vol="41" />
          <note key="72" pos="624" pan="0" len="24" vol="41" />
          <note key="60" pos="648" pan="0" len="24" vol="41" />
          <note key="60" pos="792" pan="0" len="48" vol="41" />
          <note key="72" pos="1008" pan="0" len="24" vol="41" />
          <note key="60" pos="1032" pan="0" len="24" vol="41" />
          <note key="60" pos="1176" pan="0" len="48" vol="41" />
          <note key="72" pos="1392" pan="0" len="24" vol="41" />
          <note key="60" pos="1416" pan="0" len="24" vol="41" />
        </pattern>
      </track>
      <track solo="0" name="79 (Ch1)" type="0" muted="0">
        <instrumenttrack usemasterpitch="1" pitch="0.0" basenote="57" pan="0" pitchrange="12" vol="30">
          <eldata />
          <instrument name="tripleoscillator" />
        </instrumenttrack>
        <pattern pos="256896" muted="0" steps="16" name="" type="1">
          <note key="60" pos="48" pan="0" len="48" vol="100" />
          <note key="60" pos="432" pan="0" len="48" vol="100" />
          <note key="60" pos="816" pan="0" len="48" vol="100" />
          <note key="60" pos="1200" pan="0" len="48" vol="100" />
        </pattern>
        <pattern pos="238464" muted="0" steps="16" name="" type="1">
          <note key="60" pos="48" pan="0" len="48" vol="100" />
          <note key="60" pos="432" pan="0" len="48" vol="100" />
          <note key="60" pos="816" pan="0" len="48" vol="100" />
          <note key="60" pos="1200" pan="0" len="48" vol="100" />
        </pattern>
        <pattern pos="240000" muted="0" steps="16" name="" type="1">
          <note key="60" pos="48" pan="0" len="48" vol="100" />
          <note key="60" pos="432" pan="0" len="48" vol="100" />
          <note key="60" pos="816" pan="0" len="48" vol="100" />
          <note key="60" pos="1200" pan="0" len="48" vol="100" />
        </pattern>
        <pattern pos="241536" muted="0" steps="16" name="" type="1">
          <note key="60" pos="48" pan="0" len="48" vol="100" />
          <note key="60" pos="432" pan="0" len="48" vol="100" />
          <note key="60" pos="816" pan="0" len="48" vol="100" />
          <note key="60" pos="1200" pan="0" len="48" vol="100" />
        </pattern>
        <pattern pos="243072" muted="0" steps="16" name="" type="1">
          <note key="60" pos="48" pan="0" len="48" vol="100" />
          <note key="60" pos="432" pan="0" len="48" vol="100" />
          <note key="60" pos="816" pan="0" len="48" vol="100" />
          <note key="60" pos="1200" pan="0" len="48" vol="100" />
        </pattern>
        <pattern pos="244608" muted="0" steps="16" name="" type="1">
          <note key="60" pos="48" pan="0" len="48" vol="100" />
          <note key="60" pos="432" pan="0" len="48" vol="100" />
          <note key="60" pos="816" pan="0" len="48" vol="100" />
          <note key="60" pos="1200" pan="0" len="48" vol="100" />
        </pattern>
        <pattern pos="246144" muted="0" steps="16" name="" type="1">
          <note key="60" pos="48" pan="0" len="48" vol="100" />
          <note key="60" pos="432" pan="0" len="48" vol="100" />
          <note key="60" pos="816" pan="0" len="48" vol="100" />
          <note key="60" pos="1200" pan="0" len="48" vol="100" />
        </pattern>
        <pattern pos="247680" muted="0" steps="16" name="" type="1">
          <note key="60" pos="48" pan="0" len="48" vol="100" />
          <note key="60" pos="432" pan="0" len="48" vol="100" />
          <note key="60" pos="816" pan="0" len="48" vol="100" />
          <note key="60" pos="1200" pan="0" len="48" vol="100" />
        </pattern>
        <pattern pos="249216" muted="0" steps="16" name="" type="1">
          <note key="60" pos="48" pan="0" len="48" vol="100" />
          <note key="60" pos="432" pan="0" len="48" vol="100" />
          <note key="60" pos="816" pan="0" len="48" vol="100" />
          <note key="60" pos="1200" pan="0" len="48" vol="100" />
        </pattern>
        <pattern pos="250752" muted="0" steps="16" name="" type="1">
          <note key="60" pos="48" pan="0" len="48" vol="100" />
          <note key="60" pos="432" pan="0" len="48" vol="100" />
          <note key="60" pos="816" pan="0" len="48" vol="100" />
          <note key="60" pos="1200" pan="0" len="48" vol="100" />
        </pattern>
        <pattern pos="252288" muted="0" steps="16" name="" type="1">
          <note key="60" pos="48" pan="0" len="48" vol="100" />
          <note key="60" pos="432" pan="0" len="48" vol="100" />
          <note key="60" pos="816" pan="0" len="48" vol="100" />
          <note key="60" pos="1200" pan="0" len="48" vol="100" />
        </pattern>
        <pattern pos="253824" muted="0" steps="16" name="" type="1">
          <note key="60" pos="48" pan="0" len="48" vol="100" />
          <note key="60" pos="432" pan="0" len="48" vol="100" />
          <note key="60" pos="816" pan="0" len="48" vol="100" />
          <note key="60" pos="1200" pan="0" len="48" vol="100" />
        </pattern>
        <pattern pos="255360" muted="0" steps="16" name="" type="1">
          <note key="60" pos="48" pan="0" len="48" vol="100" />
          <note key="60" pos="432" pan="0" len="48" vol="100" />
          <note key="60" pos="816" pan="0" len="48" vol="100" />
          <note key="60" pos="1200" pan="0" len="48" vol="100" />
        </pattern>
      </track>
      <track solo="0" name="79 (Ch2)" type="0" muted="0">
        <instrumenttrack usemasterpitch="1" pitch="0.0" basenote="57" pan="0" pitchrange="12" vol="30">
          <eldata />
          <instrument name="tripleoscillator" />
        </instrumenttrack>
        <pattern pos="256896" muted="0" steps="16" name="" type="1">
          <note key="60" pos="120" pan="0" len="48" vol="41" />
          <note key="60" pos="504" pan="0" len="48" vol="41" />
          <note key="60" pos="888" pan="0" len="48" vol="41" />
          <note key="60" pos="1272" pan="0" len="48" vol="41" />
        </pattern>
        <pattern pos="238464" muted="0" steps="16" name="" type="1">
          <note key="60" pos="120" pan="0" len="48" vol="59" />
          <note key="60" pos="504" pan="0" len="48" vol="59" />
          <note key="60" pos="888" pan="0" len="48" vol="59" />
          <note key="60" pos="1272" pan="0" len="48" vol="59" />
        </pattern>
        <pattern pos="240000" muted="0" steps="16" name="" type="1">
          <note key="60" pos="120" pan="0" len="48" vol="59" />
          <note key="60" pos="504" pan="0" len="48" vol="59" />
          <note key="60" pos="888" pan="0" len="48" vol="59" />
          <note key="60" pos="1272" pan="0" len="48" vol="59" />
        </pattern>
        <pattern pos="241536" muted="0" steps="16" name="" type="1">
          <note key="60" pos="120" pan="0" len="48" vol="59" />
          <note key="60" pos="504" pan="0" len="48" vol="59" />
          <note key="60" pos="888" pan="0" len="48" vol="59" />
          <note key="60" pos="1272" pan="0" len="48" vol="59" />
        </pattern>
        <pattern pos="243072" muted="0" steps="16" name="" type="1">
          <note key="60" pos="120" pan="0" len="48" vol="59" />
          <note key="60" pos="504" pan="0" len="48" vol="59" />
          <note key="60" pos="888" pan="0" len="48" vol="59" />
          <note key="60" pos="1272" pan="0" len="48" vol="59" />
        </pattern>
        <pattern pos="244608" muted="0" steps="16" name="" type="1">
          <note key="60" pos="120" pan="0" len="48" vol="41" />
          <note key="60" pos="504" pan="0" len="48" vol="41" />
          <note key="60" pos="888" pan="0" len="48" vol="41" />
          <note key="60" pos="1272" pan="0" len="48" vol="41" />
        </pattern>
        <pattern pos="246144" muted="0" steps="16" name="" type="1">
          <note key="60" pos="120" pan="0" len="48" vol="41" />
          <note key="60" pos="504" pan="0" len="48" vol="41" />
          <note key="60" pos="888" pan="0" len="48" vol="41" />
          <note key="60" pos="1272" pan="0" len="48" vol="41" />
        </pattern>
        <pattern pos="247680" muted="0" steps="16" name="" type="1">
          <note key="60" pos="120" pan="0" len="48" vol="59" />
          <note key="60" pos="504" pan="0" len="48" vol="59" />
          <note key="60" pos="888" pan="0" len="48" vol="59" />
          <note key="60" pos="1272" pan="0" len="48" vol="59" />
        </pattern>
        <pattern pos="249216" muted="0" steps="16" name="" type="1">
          <note key="60" pos="120" pan="0" len="48" vol="41" />
          <note key="60" pos="504" pan="0" len="48" vol="41" />
          <note key="60" pos="888" pan="0" len="48" vol="41" />
          <note key="60" pos="1272" pan="0" len="48" vol="41" />
        </pattern>
        <pattern pos="250752" muted="0" steps="16" name="" type="1">
          <note key="60" pos="120" pan="0" len="48" vol="41" />
          <note key="60" pos="504" pan="0" len="48" vol="41" />
          <note key="60" pos="888" pan="0" len="48" vol="41" />
          <note key="60" pos="1272" pan="0" len="48" vol="41" />
        </pattern>
        <pattern pos="252288" muted="0" steps="16" name="" type="1">
          <note key="60" pos="120" pan="0" len="48" vol="41" />
          <note key="60" pos="504" pan="0" len="48" vol="41" />
          <note key="60" pos="888" pan="0" len="48" vol="41" />
          <note key="60" pos="1272" pan="0" len="48" vol="41" />
        </pattern>
        <pattern pos="253824" muted="0" steps="16" name="" type="1">
          <note key="60" pos="120" pan="0" len="48" vol="41" />
          <note key="60" pos="504" pan="0" len="48" vol="41" />
          <note key="60" pos="888" pan="0" len="48" vol="41" />
          <note key="60" pos="1272" pan="0" len="48" vol="41" />
        </pattern>
        <pattern pos="255360" muted="0" steps="16" name="" type="1">
          <note key="60" pos="120" pan="0" len="48" vol="41" />
          <note key="60" pos="504" pan="0" len="48" vol="41" />
          <note key="60" pos="888" pan="0" len="48" vol="41" />
          <note key="60" pos="1272" pan="0" len="48" vol="41" />
        </pattern>
      </track>
      <track solo="0" name="80 (Ch1)" type="0" muted="0">
        <instrumenttrack usemasterpitch="1" pitch="0.0" basenote="57" pan="0" pitchrange="12" vol="30">
          <eldata />
          <instrument name="tripleoscillator" />
        </instrumenttrack>
        <pattern pos="247680" muted="0" steps="16" name="" type="1">
          <note key="60" pos="288" pan="0" len="48" vol="100" />
          <note key="60" pos="672" pan="0" len="48" vol="100" />
          <note key="60" pos="1056" pan="0" len="48" vol="100" />
          <note key="60" pos="1440" pan="0" len="48" vol="100" />
        </pattern>
        <pattern pos="238464" muted="0" steps="16" name="" type="1">
          <note key="60" pos="288" pan="0" len="48" vol="100" />
          <note key="60" pos="672" pan="0" len="48" vol="100" />
          <note key="60" pos="1056" pan="0" len="48" vol="100" />
          <note key="60" pos="1440" pan="0" len="48" vol="100" />
        </pattern>
        <pattern pos="240000" muted="0" steps="16" name="" type="1">
          <note key="60" pos="288" pan="0" len="48" vol="100" />
          <note key="60" pos="672" pan="0" len="48" vol="100" />
          <note key="60" pos="1056" pan="0" len="48" vol="100" />
          <note key="60" pos="1440" pan="0" len="48" vol="100" />
        </pattern>
        <pattern pos="241536" muted="0" steps="16" name="" type="1">
          <note key="60" pos="288" pan="0" len="48" vol="100" />
          <note key="60" pos="672" pan="0" len="48" vol="100" />
          <note key="60" pos="1056" pan="0" len="48" vol="100" />
          <note key="60" pos="1440" pan="0" len="48" vol="100" />
        </pattern>
        <pattern pos="243072" muted="0" steps="16" name="" type="1">
          <note key="60" pos="288" pan="0" len="48" vol="100" />
          <note key="60" pos="672" pan="0" len="48" vol="100" />
          <note key="60" pos="1056" pan="0" len="48" vol="100" />
          <note key="60" pos="1440" pan="0" len="48" vol="100" />
        </pattern>
      </track>
      <track solo="0" name="80 (Ch2)" type="0" muted="0">
        <instrumenttrack usemasterpitch="1" pitch="0.0" basenote="57" pan="0" pitchrange="12" vol="30">
          <eldata />
          <instrument name="tripleoscillator" />
        </instrumenttrack>
        <pattern pos="247680" muted="0" steps="16" name="" type="1">
          <note key="60" pos="360" pan="0" len="48" vol="59" />
          <note key="60" pos="744" pan="0" len="48" vol="59" />
          <note key="60" pos="1128" pan="0" len="48" vol="59" />
          <note key="60" pos="1512" pan="0" len="24" vol="59" />
        </pattern>
        <pattern pos="238464" muted="0" steps="16" name="" type="1">
          <note key="60" pos="360" pan="0" len="48" vol="59" />
          <note key="60" pos="744" pan="0" len="48" vol="59" />
          <note key="60" pos="1128" pan="0" len="48" vol="59" />
          <note key="60" pos="1512" pan="0" len="24" vol="59" />
        </pattern>
        <pattern pos="240000" muted="0" steps="16" name="" type="1">
          <note key="60" pos="360" pan="0" len="48" vol="59" />
          <note key="60" pos="744" pan="0" len="48" vol="59" />
          <note key="60" pos="1128" pan="0" len="48" vol="59" />
          <note key="60" pos="1512" pan="0" len="24" vol="59" />
        </pattern>
        <pattern pos="241536" muted="0" steps="16" name="" type="1">
          <note key="60" pos="360" pan="0" len="48" vol="59" />
          <note key="60" pos="744" pan="0" len="48" vol="59" />
          <note key="60" pos="1128" pan="0" len="48" vol="59" />
          <note key="60" pos="1512" pan="0" len="24" vol="59" />
        </pattern>
        <pattern pos="243072" muted="0" steps="16" name="" type="1">
          <note key="60" pos="360" pan="0" len="48" vol="59" />
          <note key="60" pos="744" pan="0" len="48" vol="59" />
          <note key="60" pos="1128" pan="0" len="48" vol="59" />
          <note key="60" pos="1512" pan="0" len="24" vol="59" />
        </pattern>
      </track>
      <track solo="0" name="81 (Ch1)" type="0" muted="0">
        <instrumenttrack usemasterpitch="1" pitch="0.0" basenote="57" pan="0" pitchrange="12" vol="30">
          <eldata />
          <instrument name="tripleoscillator" />
        </instrumenttrack>
        <pattern pos="247680" muted="0" steps="16" name="" type="1">
          <note key="60" pos="120" pan="0" len="72" vol="100" />
          <note key="60" pos="504" pan="0" len="72" vol="100" />
          <note key="60" pos="888" pan="0" len="72" vol="100" />
          <note key="60" pos="1272" pan="0" len="72" vol="100" />
        </pattern>
        <pattern pos="238464" muted="0" steps="16" name="" type="1">
          <note key="60" pos="120" pan="0" len="72" vol="100" />
          <note key="60" pos="504" pan="0" len="72" vol="100" />
          <note key="60" pos="888" pan="0" len="72" vol="100" />
          <note key="60" pos="1272" pan="0" len="72" vol="100" />
        </pattern>
        <pattern pos="240000" muted="0" steps="16" name="" type="1">
          <note key="60" pos="120" pan="0" len="72" vol="100" />
          <note key="60" pos="504" pan="0" len="72" vol="100" />
          <note key="60" pos="888" pan="0" len="72" vol="100" />
          <note key="60" pos="1272" pan="0" len="72" vol="100" />
        </pattern>
        <pattern pos="241536" muted="0" steps="16" name="" type="1">
          <note key="60" pos="120" pan="0" len="72" vol="100" />
          <note key="60" pos="504" pan="0" len="72" vol="100" />
          <note key="60" pos="888" pan="0" len="72" vol="100" />
          <note key="60" pos="1272" pan="0" len="72" vol="100" />
        </pattern>
        <pattern pos="243072" muted="0" steps="16" name="" type="1">
          <note key="60" pos="120" pan="0" len="72" vol="100" />
          <note key="60" pos="504" pan="0" len="72" vol="100" />
          <note key="60" pos="888" pan="0" len="72" vol="100" />
          <note key="60" pos="1272" pan="0" len="72" vol="100" />
        </pattern>
      </track>
      <track solo="0" name="81 (Ch2)" type="0" muted="0">
        <instrumenttrack usemasterpitch="1" pitch="0.0" basenote="57" pan="0" pitchrange="12" vol="30">
          <eldata />
          <instrument name="tripleoscillator" />
        </instrumenttrack>
        <pattern pos="247680" muted="0" steps="16" name="" type="1">
          <note key="60" pos="192" pan="0" len="72" vol="59" />
          <note key="60" pos="576" pan="0" len="72" vol="59" />
          <note key="60" pos="960" pan="0" len="72" vol="59" />
          <note key="60" pos="1344" pan="0" len="72" vol="59" />
        </pattern>
        <pattern pos="238464" muted="0" steps="16" name="" type="1">
          <note key="60" pos="192" pan="0" len="72" vol="59" />
          <note key="60" pos="576" pan="0" len="72" vol="59" />
          <note key="60" pos="960" pan="0" len="72" vol="59" />
          <note key="60" pos="1344" pan="0" len="72" vol="59" />
        </pattern>
        <pattern pos="240000" muted="0" steps="16" name="" type="1">
          <note key="60" pos="192" pan="0" len="72" vol="59" />
          <note key="60" pos="576" pan="0" len="72" vol="59" />
          <note key="60" pos="960" pan="0" len="72" vol="59" />
          <note key="60" pos="1344" pan="0" len="72" vol="59" />
        </pattern>
        <pattern pos="241536" muted="0" steps="16" name="" type="1">
          <note key="60" pos="192" pan="0" len="72" vol="59" />
          <note key="60" pos="576" pan="0" len="72" vol="59" />
          <note key="60" pos="960" pan="0" len="72" vol="59" />
          <note key="60" pos="1344" pan="0" len="72" vol="59" />
        </pattern>
        <pattern pos="243072" muted="0" steps="16" name="" type="1">
          <note key="60" pos="192" pan="0" len="72" vol="59" />
          <note key="60" pos="576" pan="0" len="72" vol="59" />
          <note key="60" pos="960" pan="0" len="72" vol="59" />
          <note key="60" pos="1344" pan="0" len="72" vol="59" />
        </pattern>
      </track>
      <track solo="0" name="82 (Ch1)" type="0" muted="0">
        <instrumenttrack usemasterpitch="1" pitch="0.0" basenote="57" pan="0" pitchrange="12" vol="30">
          <eldata />
          <instrument name="tripleoscillator" />
        </instrumenttrack>
        <pattern pos="256896" muted="0" steps="16" name="" type="1">
          <note key="60" pos="0" pan="0" len="24" vol="100" />
          <note key="48" pos="288" pan="0" len="48" vol="100" />
          <note key="60" pos="384" pan="0" len="24" vol="100" />
          <note key="48" pos="672" pan="0" len="48" vol="100" />
          <note key="60" pos="768" pan="0" len="24" vol="100" />
          <note key="48" pos="1056" pan="0" len="48" vol="100" />
          <note key="60" pos="1152" pan="0" len="24" vol="100" />
          <note key="48" pos="1440" pan="0" len="48" vol="100" />
        </pattern>
        <pattern pos="238464" muted="0" steps="16" name="" type="1">
          <note key="48" pos="0" pan="0" len="48" vol="100" />
          <note key="60" pos="360" pan="0" len="24" vol="100" />
          <note key="48" pos="384" pan="0" len="48" vol="100" />
          <note key="60" pos="744" pan="0" len="24" vol="100" />
          <note key="48" pos="768" pan="0" len="48" vol="100" />
          <note key="60" pos="1128" pan="0" len="24" vol="100" />
          <note key="48" pos="1152" pan="0" len="48" vol="100" />
          <note key="60" pos="1512" pan="0" len="24" vol="100" />
        </pattern>
        <pattern pos="240000" muted="0" steps="16" name="" type="1">
          <note key="48" pos="0" pan="0" len="48" vol="100" />
          <note key="60" pos="360" pan="0" len="24" vol="100" />
          <note key="48" pos="384" pan="0" len="48" vol="100" />
          <note key="60" pos="744" pan="0" len="24" vol="100" />
          <note key="48" pos="768" pan="0" len="48" vol="100" />
          <note key="60" pos="1128" pan="0" len="24" vol="100" />
          <note key="48" pos="1152" pan="0" len="48" vol="100" />
          <note key="60" pos="1512" pan="0" len="24" vol="100" />
        </pattern>
        <pattern pos="241536" muted="0" steps="16" name="" type="1">
          <note key="48" pos="0" pan="0" len="48" vol="100" />
          <note key="60" pos="360" pan="0" len="24" vol="100" />
          <note key="48" pos="384" pan="0" len="48" vol="100" />
          <note key="60" pos="744" pan="0" len="24" vol="100" />
          <note key="48" pos="768" pan="0" len="48" vol="100" />
          <note key="60" pos="1128" pan="0" len="24" vol="100" />
          <note key="48" pos="1152" pan="0" len="48" vol="100" />
          <note key="60" pos="1512" pan="0" len="24" vol="100" />
        </pattern>
        <pattern pos="243072" muted="0" steps="16" name="" type="1">
          <note key="48" pos="0" pan="0" len="48" vol="100" />
          <note key="60" pos="360" pan="0" len="24" vol="100" />
          <note key="48" pos="384" pan="0" len="48" vol="100" />
          <note key="60" pos="744" pan="0" len="24" vol="100" />
          <note key="48" pos="768" pan="0" len="48" vol="100" />
          <note key="60" pos="1128" pan="0" len="24" vol="100" />
          <note key="48" pos="1152" pan="0" len="48" vol="100" />
          <note key="60" pos="1512" pan="0" len="24" vol="100" />
        </pattern>
        <pattern pos="244608" muted="0" steps="16" name="" type="1">
          <note key="60" pos="0" pan="0" len="24" vol="100" />
          <note key="48" pos="288" pan="0" len="48" vol="100" />
          <note key="60" pos="384" pan="0" len="24" vol="100" />
          <note key="48" pos="672" pan="0" len="48" vol="100" />
          <note key="60" pos="768" pan="0" len="24" vol="100" />
          <note key="48" pos="1056" pan="0" len="48" vol="100" />
          <note key="60" pos="1152" pan="0" len="24" vol="100" />
          <note key="48" pos="1440" pan="0" len="48" vol="100" />
        </pattern>
        <pattern pos="246144" muted="0" steps="16" name="" type="1">
          <note key="60" pos="0" pan="0" len="24" vol="100" />
          <note key="48" pos="288" pan="0" len="48" vol="100" />
          <note key="60" pos="384" pan="0" len="24" vol="100" />
          <note key="48" pos="672" pan="0" len="48" vol="100" />
          <note key="60" pos="768" pan="0" len="24" vol="100" />
          <note key="48" pos="1056" pan="0" len="48" vol="100" />
          <note key="60" pos="1152" pan="0" len="24" vol="100" />
          <note key="48" pos="1440" pan="0" len="48" vol="100" />
        </pattern>
        <pattern pos="247680" muted="0" steps="16" name="" type="1">
          <note key="48" pos="0" pan="0" len="48" vol="100" />
          <note key="60" pos="360" pan="0" len="24" vol="100" />
          <note key="48" pos="384" pan="0" len="48" vol="100" />
          <note key="60" pos="744" pan="0" len="24" vol="100" />
          <note key="48" pos="768" pan="0" len="48" vol="100" />
          <note key="60" pos="1128" pan="0" len="24" vol="100" />
          <note key="48" pos="1152" pan="0" len="48" vol="100" />
          <note key="60" pos="1512" pan="0" len="24" vol="100" />
        </pattern>
        <pattern pos="249216" muted="0" steps="16" name="" type="1">
          <note key="60" pos="0" pan="0" len="24" vol="100" />
          <note key="48" pos="288" pan="0" len="48" vol="100" />
          <note key="60" pos="384" pan="0" len="24" vol="100" />
          <note key="48" pos="672" pan="0" len="48" vol="100" />
          <note key="60" pos="768" pan="0" len="24" vol="100" />
          <note key="48" pos="1056" pan="0" len="48" vol="100" />
          <note key="60" pos="1152" pan="0" len="24" vol="100" />
          <note key="48" pos="1440" pan="0" len="48" vol="100" />
        </pattern>
        <pattern pos="250752" muted="0" steps="16" name="" type="1">
          <note key="60" pos="0" pan="0" len="24" vol="100" />
          <note key="48" pos="288" pan="0" len="48" vol="100" />
          <note key="60" pos="384" pan="0" len="24" vol="100" />
          <note key="48" pos="672" pan="0" len="48" vol="100" />
          <note key="60" pos="768" pan="0" len="24" vol="100" />
          <note key="48" pos="1056" pan="0" len="48" vol="100" />
          <note key="60" pos="1152" pan="0" len="24" vol="100" />
          <note key="48" pos="1440" pan="0" len="48" vol="100" />
        </pattern>
        <pattern pos="252288" muted="0" steps="16" name="" type="1">
          <note key="60" pos="0" pan="0" len="24" vol="100" />
          <note key="48" pos="288" pan="0" len="48" vol="100" />
          <note key="60" pos="384" pan="0" len="24" vol="100" />
          <note key="48" pos="672" pan="0" len="48" vol="100" />
          <note key="60" pos="768" pan="0" len="24" vol="100" />
          <note key="48" pos="1056" pan="0" len="48" vol="100" />
          <note key="60" pos="1152" pan="0" len="24" vol="100" />
          <note key="48" pos="1440" pan="0" len="48" vol="100" />
        </pattern>
        <pattern pos="253824" muted="0" steps="16" name="" type="1">
          <note key="60" pos="0" pan="0" len="24" vol="100" />
          <note key="48" pos="288" pan="0" len="48" vol="100" />
          <note key="60" pos="384" pan="0" len="24" vol="100" />
          <note key="48" pos="672" pan="0" len="48" vol="100" />
          <note key="60" pos="768" pan="0" len="24" vol="100" />
          <note key="48" pos="1056" pan="0" len="48" vol="100" />
          <note key="60" pos="1152" pan="0" len="24" vol="100" />
          <note key="48" pos="1440" pan="0" len="48" vol="100" />
        </pattern>
        <pattern pos="255360" muted="0" steps="16" name="" type="1">
          <note key="60" pos="0" pan="0" len="24" vol="100" />
          <note key="48" pos="288" pan="0" len="48" vol="100" />
          <note key="60" pos="384" pan="0" len="24" vol="100" />
          <note key="48" pos="672" pan="0" len="48" vol="100" />
          <note key="60" pos="768" pan="0" len="24" vol="100" />
          <note key="48" pos="1056" pan="0" len="48" vol="100" />
          <note key="60" pos="1152" pan="0" len="24" vol="100" />
          <note key="48" pos="1440" pan="0" len="48" vol="100" />
        </pattern>
      </track>
      <track solo="0" name="82 (Ch2)" type="0" muted="0">
        <instrumenttrack usemasterpitch="1" pitch="0.0" basenote="57" pan="0" pitchrange="12" vol="30">
          <eldata />
          <instrument name="tripleoscillator" />
        </instrumenttrack>
        <pattern pos="256896" muted="0" steps="16" name="" type="1">
          <note key="60" pos="72" pan="0" len="24" vol="41" />
          <note key="48" pos="360" pan="0" len="48" vol="41" />
          <note key="60" pos="456" pan="0" len="24" vol="41" />
          <note key="48" pos="744" pan="0" len="48" vol="41" />
          <note key="60" pos="840" pan="0" len="24" vol="41" />
          <note key="48" pos="1128" pan="0" len="48" vol="41" />
          <note key="60" pos="1224" pan="0" len="24" vol="41" />
          <note key="48" pos="1512" pan="0" len="24" vol="41" />
        </pattern>
        <pattern pos="238464" muted="0" steps="16" name="" type="1">
          <note key="48" pos="72" pan="0" len="48" vol="59" />
          <note key="60" pos="432" pan="0" len="24" vol="59" />
          <note key="48" pos="456" pan="0" len="48" vol="59" />
          <note key="60" pos="816" pan="0" len="24" vol="59" />
          <note key="48" pos="840" pan="0" len="48" vol="59" />
          <note key="60" pos="1200" pan="0" len="24" vol="59" />
          <note key="48" pos="1224" pan="0" len="48" vol="59" />
        </pattern>
        <pattern pos="240000" muted="0" steps="16" name="" type="1">
          <note key="48" pos="72" pan="0" len="48" vol="59" />
          <note key="60" pos="432" pan="0" len="24" vol="59" />
          <note key="48" pos="456" pan="0" len="48" vol="59" />
          <note key="60" pos="816" pan="0" len="24" vol="59" />
          <note key="48" pos="840" pan="0" len="48" vol="59" />
          <note key="60" pos="1200" pan="0" len="24" vol="59" />
          <note key="48" pos="1224" pan="0" len="48" vol="59" />
        </pattern>
        <pattern pos="241536" muted="0" steps="16" name="" type="1">
          <note key="48" pos="72" pan="0" len="48" vol="59" />
          <note key="60" pos="432" pan="0" len="24" vol="59" />
          <note key="48" pos="456" pan="0" len="48" vol="59" />
          <note key="60" pos="816" pan="0" len="24" vol="59" />
          <note key="48" pos="840" pan="0" len="48" vol="59" />
          <note key="60" pos="1200" pan="0" len="24" vol="59" />
          <note key="48" pos="1224" pan="0" len="48" vol="59" />
        </pattern>
        <pattern pos="243072" muted="0" steps="16" name="" type="1">
          <note key="48" pos="72" pan="0" len="48" vol="59" />
          <note key="60" pos="432" pan="0" len="24" vol="59" />
          <note key="48" pos="456" pan="0" len="48" vol="59" />
          <note key="60" pos="816" pan="0" len="24" vol="59" />
          <note key="48" pos="840" pan="0" len="48" vol="59" />
          <note key="60" pos="1200" pan="0" len="24" vol="59" />
          <note key="48" pos="1224" pan="0" len="48" vol="59" />
        </pattern>
        <pattern pos="244608" muted="0" steps="16" name="" type="1">
          <note key="60" pos="72" pan="0" len="24" vol="41" />
          <note key="48" pos="360" pan="0" len="48" vol="41" />
          <note key="60" pos="456" pan="0" len="24" vol="41" />
          <note key="48" pos="744" pan="0" len="48" vol="41" />
          <note key="60" pos="840" pan="0" len="24" vol="41" />
          <note key="48" pos="1128" pan="0" len="48" vol="41" />
          <note key="60" pos="1224" pan="0" len="24" vol="41" />
          <note key="48" pos="1512" pan="0" len="24" vol="41" />
        </pattern>
        <pattern pos="246144" muted="0" steps="16" name="" type="1">
          <note key="60" pos="72" pan="0" len="24" vol="41" />
          <note key="48" pos="360" pan="0" len="48" vol="41" />
          <note key="60" pos="456" pan="0" len="24" vol="41" />
          <note key="48" pos="744" pan="0" len="48" vol="41" />
          <note key="60" pos="840" pan="0" len="24" vol="41" />
          <note key="48" pos="1128" pan="0" len="48" vol="41" />
          <note key="60" pos="1224" pan="0" len="24" vol="41" />
          <note key="48" pos="1512" pan="0" len="24" vol="41" />
        </pattern>
        <pattern pos="247680" muted="0" steps="16" name="" type="1">
          <note key="48" pos="72" pan="0" len="48" vol="59" />
          <note key="60" pos="432" pan="0" len="24" vol="59" />
          <note key="48" pos="456" pan="0" len="48" vol="59" />
          <note key="60" pos="816" pan="0" len="24" vol="59" />
          <note key="48" pos="840" pan="0" len="48" vol="59" />
          <note key="60" pos="1200" pan="0" len="24" vol="59" />
          <note key="48" pos="1224" pan="0" len="48" vol="59" />
        </pattern>
        <pattern pos="249216" muted="0" steps="16" name="" type="1">
          <note key="60" pos="72" pan="0" len="24" vol="41" />
          <note key="48" pos="360" pan="0" len="48" vol="41" />
          <note key="60" pos="456" pan="0" len="24" vol="41" />
          <note key="48" pos="744" pan="0" len="48" vol="41" />
          <note key="60" pos="840" pan="0" len="24" vol="41" />
          <note key="48" pos="1128" pan="0" len="48" vol="41" />
          <note key="60" pos="1224" pan="0" len="24" vol="41" />
          <note key="48" pos="1512" pan="0" len="24" vol="41" />
        </pattern>
        <pattern pos="250752" muted="0" steps="16" name="" type="1">
          <note key="60" pos="72" pan="0" len="24" vol="41" />
          <note key="48" pos="360" pan="0" len="48" vol="41" />
          <note key="60" pos="456" pan="0" len="24" vol="41" />
          <note key="48" pos="744" pan="0" len="48" vol="41" />
          <note key="60" pos="840" pan="0" len="24" vol="41" />
          <note key="48" pos="1128" pan="0" len="48" vol="41" />
          <note key="60" pos="1224" pan="0" len="24" vol="41" />
          <note key="48" pos="1512" pan="0" len="24" vol="41" />
        </pattern>
        <pattern pos="252288" muted="0" steps="16" name="" type="1">
          <note key="60" pos="72" pan="0" len="24" vol="41" />
          <note key="48" pos="360" pan="0" len="48" vol="41" />
          <note key="60" pos="456" pan="0" len="24" vol="41" />
          <note key="48" pos="744" pan="0" len="48" vol="41" />
          <note key="60" pos="840" pan="0" len="24" vol="41" />
          <note key="48" pos="1128" pan="0" len="48" vol="41" />
          <note key="60" pos="1224" pan="0" len="24" vol="41" />
          <note key="48" pos="1512" pan="0" len="24" vol="41" />
        </pattern>
        <pattern pos="253824" muted="0" steps="16" name="" type="1">
          <note key="60" pos="72" pan="0" len="24" vol="41" />
          <note key="48" pos="360" pan="0" len="48" vol="41" />
          <note key="60" pos="456" pan="0" len="24" vol="41" />
          <note key="48" pos="744" pan="0" len="48" vol="41" />
          <note key="60" pos="840" pan="0" len="24" vol="41" />
          <note key="48" pos="1128" pan="0" len="48" vol="41" />
          <note key="60" pos="1224" pan="0" len="24" vol="41" />
          <note key="48" pos="1512" pan="0" len="24" vol="41" />
        </pattern>
        <pattern pos="255360" muted="0" steps="16" name="" type="1">
          <note key="60" pos="72" pan="0" len="24" vol="41" />
          <note key="48" pos="360" pan="0" len="48" vol="41" />
          <note key="60" pos="456" pan="0" len="24" vol="41" />
          <note key="48" pos="744" pan="0" len="48" vol="41" />
          <note key="60" pos="840" pan="0" len="24" vol="41" />
          <note key="48" pos="1128" pan="0" len="48" vol="41" />
          <note key="60" pos="1224" pan="0" len="24" vol="41" />
          <note key="48" pos="1512" pan="0" len="24" vol="41" />
        </pattern>
      </track>
      <track solo="0" name="83 (Ch1)" type="0" muted="0">
        <instrumenttrack usemasterpitch="1" pitch="0.0" basenote="57" pan="0" pitchrange="12" vol="30">
          <eldata />
          <instrument name="tripleoscillator" />
        </instrumenttrack>
        <pattern pos="193536" muted="0" steps="16" name="" type="1">
          <note key="67" pos="0" pan="0" len="96" vol="100" />
          <note key="67" pos="96" pan="0" len="96" vol="100" />
          <note key="62" pos="192" pan="0" len="192" vol="100" />
          <note key="62" pos="384" pan="0" len="96" vol="100" />
          <note key="62" pos="480" pan="0" len="288" vol="100" />
          <note key="67" pos="768" pan="0" len="96" vol="100" />
          <note key="67" pos="864" pan="0" len="96" vol="100" />
          <note key="62" pos="960" pan="0" len="192" vol="100" />
          <note key="62" pos="1152" pan="0" len="96" vol="100" />
          <note key="62" pos="1248" pan="0" len="288" vol="100" />
        </pattern>
        <pattern pos="188928" muted="0" steps="16" name="" type="1">
          <note key="67" pos="0" pan="0" len="96" vol="100" />
          <note key="67" pos="96" pan="0" len="96" vol="100" />
          <note key="62" pos="192" pan="0" len="192" vol="100" />
          <note key="62" pos="384" pan="0" len="96" vol="100" />
          <note key="62" pos="480" pan="0" len="288" vol="100" />
          <note key="67" pos="768" pan="0" len="96" vol="100" />
          <note key="67" pos="864" pan="0" len="96" vol="100" />
          <note key="62" pos="960" pan="0" len="192" vol="100" />
          <note key="62" pos="1152" pan="0" len="96" vol="100" />
          <note key="62" pos="1248" pan="0" len="288" vol="100" />
        </pattern>
      </track>
      <track solo="0" name="83 (Ch2)" type="0" muted="0">
        <instrumenttrack usemasterpitch="1" pitch="0.0" basenote="57" pan="0" pitchrange="12" vol="30">
          <eldata />
          <instrument name="tripleoscillator" />
        </instrumenttrack>
        <pattern pos="193536" muted="0" steps="16" name="" type="1">
          <note key="71" pos="0" pan="0" len="96" vol="100" />
          <note key="69" pos="96" pan="0" len="96" vol="100" />
          <note key="67" pos="192" pan="0" len="192" vol="100" />
          <note key="66" pos="384" pan="0" len="96" vol="100" />
          <note key="66" pos="480" pan="0" len="288" vol="100" />
          <note key="71" pos="768" pan="0" len="96" vol="100" />
          <note key="69" pos="864" pan="0" len="96" vol="100" />
          <note key="67" pos="960" pan="0" len="192" vol="100" />
          <note key="66" pos="1152" pan="0" len="96" vol="100" />
          <note key="66" pos="1248" pan="0" len="288" vol="100" />
        </pattern>
        <pattern pos="188928" muted="0" steps="16" name="" type="1">
          <note key="71" pos="0" pan="0" len="96" vol="100" />
          <note key="69" pos="96" pan="0" len="96" vol="100" />
          <note key="67" pos="192" pan="0" len="192" vol="100" />
          <note key="66" pos="384" pan="0" len="96" vol="100" />
          <note key="66" pos="480" pan="0" len="288" vol="100" />
          <note key="71" pos="768" pan="0" len="96" vol="100" />
          <note key="69" pos="864" pan="0" len="96" vol="100" />
          <note key="67" pos="960" pan="0" len="192" vol="100" />
          <note key="66" pos="1152" pan="0" len="96" vol="100" />
          <note key="66" pos="1248" pan="0" len="288" vol="100" />
        </pattern>
      </track>
      <track solo="0" name="83 (Ch3)" type="0" muted="0">
        <instrumenttrack usemasterpitch="1" pitch="0.0" basenote="57" pan="0" pitchrange="12" vol="30">
          <eldata />
          <instrument name="tripleoscillator" />
        </instrumenttrack>
        <pattern pos="193536" muted="0" steps="16" name="" type="1">
          <note key="76" pos="0" pan="0" len="96" vol="100" />
          <note key="74" pos="96" pan="0" len="96" vol="100" />
          <note key="71" pos="192" pan="0" len="192" vol="100" />
          <note key="69" pos="384" pan="0" len="96" vol="100" />
          <note key="71" pos="480" pan="0" len="288" vol="100" />
          <note key="76" pos="768" pan="0" len="96" vol="100" />
          <note key="74" pos="864" pan="0" len="48" vol="100" />
          <note key="79" pos="912" pan="0" len="48" vol="100" />
          <note key="71" pos="960" pan="0" len="192" vol="100" />
          <note key="69" pos="1152" pan="0" len="96" vol="100" />
          <note key="71" pos="1248" pan="0" len="288" vol="100" />
        </pattern>
        <pattern pos="188928" muted="0" steps="16" name="" type="1">
          <note key="76" pos="0" pan="0" len="96" vol="100" />
          <note key="74" pos="96" pan="0" len="96" vol="100" />
          <note key="71" pos="192" pan="0" len="192" vol="100" />
          <note key="69" pos="384" pan="0" len="96" vol="100" />
          <note key="71" pos="480" pan="0" len="288" vol="100" />
          <note key="76" pos="768" pan="0" len="96" vol="100" />
          <note key="74" pos="864" pan="0" len="48" vol="100" />
          <note key="79" pos="912" pan="0" len="48" vol="100" />
          <note key="71" pos="960" pan="0" len="192" vol="100" />
          <note key="69" pos="1152" pan="0" len="96" vol="100" />
          <note key="71" pos="1248" pan="0" len="288" vol="100" />
        </pattern>
      </track>
      <track solo="0" name="84 (Ch5)" type="0" muted="0">
        <instrumenttrack usemasterpitch="1" pitch="0.0" basenote="57" pan="0" pitchrange="12" vol="30">
          <eldata />
          <instrument name="tripleoscillator" />
        </instrumenttrack>
        <pattern pos="17664" muted="0" steps="16" name="" type="1">
          <note key="60" pos="1512" pan="0" len="24" vol="100" />
        </pattern>
      </track>
      <track solo="0" name="84 (Ch8)" type="0" muted="0">
        <instrumenttrack usemasterpitch="1" pitch="0.0" basenote="57" pan="0" pitchrange="12" vol="30">
          <eldata />
          <instrument name="tripleoscillator" />
        </instrumenttrack>
        <pattern pos="17664" muted="0" steps="16" name="" type="1">
          <note key="60" pos="744" pan="0" len="24" vol="100" />
          <note key="60" pos="912" pan="0" len="216" vol="100" />
          <note key="60" pos="1128" pan="0" len="24" vol="100" />
        </pattern>
      </track>
      <track solo="0" name="84 (Ch11)" type="0" muted="0">
        <instrumenttrack usemasterpitch="1" pitch="0.0" basenote="57" pan="0" pitchrange="12" vol="30">
          <eldata />
          <instrument name="tripleoscillator" />
        </instrumenttrack>
        <pattern pos="193536" muted="0" steps="16" name="" type="1">
          <note key="48" pos="0" pan="0" len="144" vol="100" />
          <note key="48" pos="144" pan="0" len="48" vol="100" />
          <note key="48" pos="192" pan="0" len="144" vol="100" />
          <note key="48" pos="336" pan="0" len="48" vol="100" />
          <note key="48" pos="384" pan="0" len="144" vol="100" />
          <note key="48" pos="528" pan="0" len="48" vol="100" />
          <note key="48" pos="576" pan="0" len="144" vol="100" />
          <note key="48" pos="720" pan="0" len="48" vol="100" />
          <note key="48" pos="768" pan="0" len="144" vol="100" />
          <note key="48" pos="912" pan="0" len="48" vol="100" />
          <note key="48" pos="960" pan="0" len="144" vol="100" />
          <note key="48" pos="1104" pan="0" len="48" vol="100" />
          <note key="48" pos="1152" pan="0" len="144" vol="100" />
          <note key="48" pos="1296" pan="0" len="48" vol="100" />
          <note key="48" pos="1344" pan="0" len="144" vol="100" />
          <note key="48" pos="1488" pan="0" len="48" vol="100" />
        </pattern>
        <pattern pos="188928" muted="0" steps="16" name="" type="1">
          <note key="48" pos="0" pan="0" len="144" vol="100" />
          <note key="48" pos="144" pan="0" len="48" vol="100" />
          <note key="48" pos="192" pan="0" len="144" vol="100" />
          <note key="48" pos="336" pan="0" len="48" vol="100" />
          <note key="48" pos="384" pan="0" len="144" vol="100" />
          <note key="48" pos="528" pan="0" len="48" vol="100" />
          <note key="48" pos="576" pan="0" len="144" vol="100" />
          <note key="48" pos="720" pan="0" len="48" vol="100" />
          <note key="48" pos="768" pan="0" len="144" vol="100" />
          <note key="48" pos="912" pan="0" len="48" vol="100" />
          <note key="48" pos="960" pan="0" len="144" vol="100" />
          <note key="48" pos="1104" pan="0" len="48" vol="100" />
          <note key="48" pos="1152" pan="0" len="144" vol="100" />
          <note key="48" pos="1296" pan="0" len="48" vol="100" />
          <note key="48" pos="1344" pan="0" len="144" vol="100" />
          <note key="48" pos="1488" pan="0" len="48" vol="100" />
        </pattern>
      </track>
      <track solo="0" name="85 (Ch4)" type="0" muted="0">
        <instrumenttrack usemasterpitch="1" pitch="0.0" basenote="57" pan="0" pitchrange="12" vol="30">
          <eldata />
          <instrument name="tripleoscillator" />
        </instrumenttrack>
        <pattern pos="215040" muted="0" steps="16" name="" type="1">
          <note key="57" pos="96" pan="0" len="144" vol="100" />
          <note key="57" pos="336" pan="0" len="48" vol="100" />
          <note key="57" pos="480" pan="0" len="144" vol="100" />
          <note key="57" pos="720" pan="0" len="48" vol="100" />
          <note key="57" pos="864" pan="0" len="144" vol="100" />
          <note key="57" pos="1104" pan="0" len="48" vol="100" />
          <note key="57" pos="1248" pan="0" len="144" vol="100" />
          <note key="57" pos="1488" pan="0" len="48" vol="100" />
        </pattern>
        <pattern pos="199680" muted="0" steps="16" name="" type="1">
          <note key="55" pos="48" pan="0" len="72" vol="100" />
          <note key="55" pos="168" pan="0" len="24" vol="100" />
          <note key="55" pos="240" pan="0" len="72" vol="100" />
          <note key="55" pos="360" pan="0" len="24" vol="100" />
          <note key="55" pos="432" pan="0" len="72" vol="100" />
          <note key="55" pos="552" pan="0" len="24" vol="100" />
          <note key="55" pos="624" pan="0" len="72" vol="100" />
          <note key="55" pos="744" pan="0" len="24" vol="100" />
          <note key="55" pos="816" pan="0" len="72" vol="100" />
          <note key="55" pos="936" pan="0" len="24" vol="100" />
          <note key="55" pos="1008" pan="0" len="72" vol="100" />
          <note key="55" pos="1128" pan="0" len="24" vol="100" />
          <note key="55" pos="1200" pan="0" len="72" vol="100" />
          <note key="55" pos="1320" pan="0" len="24" vol="100" />
          <note key="55" pos="1392" pan="0" len="72" vol="100" />
          <note key="55" pos="1512" pan="0" len="24" vol="100" />
        </pattern>
        <pattern pos="201216" muted="0" steps="16" name="" type="1">
          <note key="55" pos="96" pan="0" len="144" vol="100" />
          <note key="55" pos="336" pan="0" len="48" vol="100" />
          <note key="55" pos="480" pan="0" len="144" vol="100" />
          <note key="55" pos="720" pan="0" len="48" vol="100" />
          <note key="55" pos="864" pan="0" len="144" vol="100" />
          <note key="55" pos="1104" pan="0" len="48" vol="100" />
          <note key="55" pos="1248" pan="0" len="144" vol="100" />
          <note key="55" pos="1488" pan="0" len="48" vol="100" />
        </pattern>
        <pattern pos="202752" muted="0" steps="16" name="" type="1">
          <note key="55" pos="96" pan="0" len="144" vol="100" />
          <note key="55" pos="336" pan="0" len="48" vol="100" />
          <note key="55" pos="480" pan="0" len="144" vol="100" />
          <note key="55" pos="720" pan="0" len="48" vol="100" />
          <note key="55" pos="864" pan="0" len="144" vol="100" />
          <note key="55" pos="1104" pan="0" len="48" vol="100" />
          <note key="55" pos="1248" pan="0" len="144" vol="100" />
          <note key="55" pos="1488" pan="0" len="48" vol="100" />
        </pattern>
        <pattern pos="204288" muted="0" steps="16" name="" type="1">
          <note key="55" pos="96" pan="0" len="144" vol="100" />
          <note key="55" pos="336" pan="0" len="48" vol="100" />
          <note key="55" pos="480" pan="0" len="144" vol="100" />
          <note key="55" pos="720" pan="0" len="48" vol="100" />
          <note key="55" pos="864" pan="0" len="144" vol="100" />
          <note key="55" pos="1104" pan="0" len="48" vol="100" />
          <note key="55" pos="1248" pan="0" len="144" vol="100" />
          <note key="55" pos="1488" pan="0" len="48" vol="100" />
        </pattern>
        <pattern pos="205824" muted="0" steps="16" name="" type="1">
          <note key="55" pos="96" pan="0" len="144" vol="100" />
          <note key="55" pos="336" pan="0" len="48" vol="100" />
          <note key="55" pos="480" pan="0" len="144" vol="100" />
          <note key="55" pos="720" pan="0" len="48" vol="100" />
          <note key="55" pos="864" pan="0" len="144" vol="100" />
          <note key="55" pos="1104" pan="0" len="48" vol="100" />
          <note key="55" pos="1248" pan="0" len="144" vol="100" />
          <note key="55" pos="1488" pan="0" len="48" vol="100" />
        </pattern>
        <pattern pos="207360" muted="0" steps="16" name="" type="1">
          <note key="55" pos="96" pan="0" len="144" vol="100" />
          <note key="55" pos="336" pan="0" len="48" vol="100" />
          <note key="55" pos="480" pan="0" len="144" vol="100" />
          <note key="55" pos="720" pan="0" len="48" vol="100" />
          <note key="55" pos="864" pan="0" len="144" vol="100" />
          <note key="55" pos="1104" pan="0" len="48" vol="100" />
          <note key="55" pos="1248" pan="0" len="144" vol="100" />
          <note key="55" pos="1488" pan="0" len="48" vol="100" />
        </pattern>
        <pattern pos="208896" muted="0" steps="16" name="" type="1">
          <note key="55" pos="96" pan="0" len="144" vol="100" />
          <note key="55" pos="336" pan="0" len="48" vol="100" />
          <note key="55" pos="480" pan="0" len="144" vol="100" />
          <note key="55" pos="720" pan="0" len="48" vol="100" />
          <note key="55" pos="864" pan="0" len="144" vol="100" />
          <note key="55" pos="1104" pan="0" len="48" vol="100" />
          <note key="55" pos="1248" pan="0" len="144" vol="100" />
          <note key="55" pos="1488" pan="0" len="48" vol="100" />
        </pattern>
        <pattern pos="210432" muted="0" steps="16" name="" type="1">
          <note key="55" pos="96" pan="0" len="144" vol="100" />
          <note key="55" pos="336" pan="0" len="48" vol="100" />
          <note key="55" pos="480" pan="0" len="144" vol="100" />
          <note key="55" pos="720" pan="0" len="48" vol="100" />
          <note key="55" pos="864" pan="0" len="144" vol="100" />
          <note key="55" pos="1104" pan="0" len="48" vol="100" />
          <note key="55" pos="1248" pan="0" len="144" vol="100" />
          <note key="55" pos="1488" pan="0" len="48" vol="100" />
        </pattern>
        <pattern pos="211968" muted="0" steps="16" name="" type="1">
          <note key="55" pos="96" pan="0" len="144" vol="100" />
          <note key="55" pos="336" pan="0" len="48" vol="100" />
          <note key="55" pos="480" pan="0" len="144" vol="100" />
          <note key="55" pos="720" pan="0" len="48" vol="100" />
          <note key="55" pos="864" pan="0" len="144" vol="100" />
          <note key="55" pos="1104" pan="0" len="48" vol="100" />
          <note key="55" pos="1248" pan="0" len="144" vol="100" />
          <note key="55" pos="1488" pan="0" len="48" vol="100" />
        </pattern>
        <pattern pos="213504" muted="0" steps="16" name="" type="1">
          <note key="55" pos="48" pan="0" len="72" vol="100" />
          <note key="55" pos="168" pan="0" len="24" vol="100" />
          <note key="55" pos="240" pan="0" len="72" vol="100" />
          <note key="55" pos="360" pan="0" len="24" vol="100" />
          <note key="55" pos="432" pan="0" len="72" vol="100" />
          <note key="55" pos="552" pan="0" len="24" vol="100" />
          <note key="55" pos="624" pan="0" len="72" vol="100" />
          <note key="55" pos="744" pan="0" len="24" vol="100" />
          <note key="55" pos="816" pan="0" len="72" vol="100" />
          <note key="55" pos="936" pan="0" len="24" vol="100" />
          <note key="55" pos="1008" pan="0" len="72" vol="100" />
          <note key="55" pos="1128" pan="0" len="24" vol="100" />
          <note key="55" pos="1200" pan="0" len="72" vol="100" />
          <note key="55" pos="1320" pan="0" len="24" vol="100" />
          <note key="55" pos="1392" pan="0" len="72" vol="100" />
          <note key="55" pos="1512" pan="0" len="24" vol="100" />
        </pattern>
      </track>
      <track solo="0" name="85 (Ch7)" type="0" muted="0">
        <instrumenttrack usemasterpitch="1" pitch="0.0" basenote="57" pan="0" pitchrange="12" vol="30">
          <eldata />
          <instrument name="tripleoscillator" />
        </instrumenttrack>
        <pattern pos="256896" muted="0" steps="16" name="" type="1">
          <note key="72" pos="48" pan="0" len="24" vol="100" />
          <note key="72" pos="432" pan="0" len="24" vol="100" />
          <note key="72" pos="816" pan="0" len="24" vol="100" />
        </pattern>
        <pattern pos="244608" muted="0" steps="16" name="" type="1">
          <note key="72" pos="48" pan="0" len="24" vol="100" />
          <note key="72" pos="432" pan="0" len="24" vol="100" />
          <note key="72" pos="816" pan="0" len="24" vol="100" />
          <note key="72" pos="1200" pan="0" len="24" vol="100" />
        </pattern>
        <pattern pos="246144" muted="0" steps="16" name="" type="1">
          <note key="72" pos="48" pan="0" len="24" vol="100" />
          <note key="72" pos="432" pan="0" len="24" vol="100" />
          <note key="72" pos="816" pan="0" len="24" vol="100" />
          <note key="72" pos="1200" pan="0" len="24" vol="100" />
        </pattern>
        <pattern pos="249216" muted="0" steps="16" name="" type="1">
          <note key="72" pos="48" pan="0" len="24" vol="100" />
          <note key="72" pos="432" pan="0" len="24" vol="100" />
          <note key="72" pos="816" pan="0" len="24" vol="100" />
          <note key="72" pos="1200" pan="0" len="24" vol="100" />
        </pattern>
        <pattern pos="250752" muted="0" steps="16" name="" type="1">
          <note key="72" pos="48" pan="0" len="24" vol="100" />
          <note key="72" pos="432" pan="0" len="24" vol="100" />
          <note key="72" pos="816" pan="0" len="24" vol="100" />
          <note key="72" pos="1200" pan="0" len="24" vol="100" />
        </pattern>
        <pattern pos="252288" muted="0" steps="16" name="" type="1">
          <note key="72" pos="48" pan="0" len="24" vol="100" />
          <note key="72" pos="432" pan="0" len="24" vol="100" />
          <note key="72" pos="816" pan="0" len="24" vol="100" />
          <note key="72" pos="1200" pan="0" len="24" vol="100" />
        </pattern>
        <pattern pos="253824" muted="0" steps="16" name="" type="1">
          <note key="72" pos="48" pan="0" len="24" vol="100" />
          <note key="72" pos="432" pan="0" len="24" vol="100" />
          <note key="72" pos="816" pan="0" len="24" vol="100" />
          <note key="72" pos="1200" pan="0" len="24" vol="100" />
        </pattern>
        <pattern pos="255360" muted="0" steps="16" name="" type="1">
          <note key="72" pos="48" pan="0" len="24" vol="100" />
          <note key="72" pos="432" pan="0" len="24" vol="100" />
          <note key="72" pos="816" pan="0" len="24" vol="100" />
          <note key="72" pos="1200" pan="0" len="24" vol="100" />
        </pattern>
      </track>
      <track solo="0" name="86 (Ch6)" type="0" muted="0">
        <instrumenttrack usemasterpitch="1" pitch="0.0" basenote="57" pan="0" pitchrange="12" vol="30">
          <eldata />
          <instrument name="tripleoscillator" />
        </instrumenttrack>
        <pattern pos="246144" muted="0" steps="16" name="" type="1">
          <note key="79" pos="0" pan="0" len="12" vol="100" />
          <note key="79" pos="24" pan="0" len="12" vol="86" />
          <note key="79" pos="48" pan="0" len="12" vol="69" />
          <note key="79" pos="72" pan="0" len="12" vol="52" />
          <note key="79" pos="96" pan="0" len="12" vol="34" />
          <note key="79" pos="120" pan="0" len="12" vol="17" />
          <note key="79" pos="144" pan="0" len="12" vol="8" />
          <note key="79" pos="168" pan="0" len="12" vol="3" />
          <note key="80" pos="768" pan="0" len="12" vol="100" />
          <note key="80" pos="792" pan="0" len="12" vol="86" />
          <note key="80" pos="816" pan="0" len="12" vol="69" />
          <note key="80" pos="840" pan="0" len="12" vol="52" />
          <note key="80" pos="864" pan="0" len="12" vol="34" />
          <note key="80" pos="888" pan="0" len="12" vol="17" />
          <note key="80" pos="912" pan="0" len="12" vol="8" />
          <note key="80" pos="936" pan="0" len="12" vol="3" />
        </pattern>
      </track>
      <track solo="0" name="86 (Ch10)" type="0" muted="0">
        <instrumenttrack usemasterpitch="1" pitch="0.0" basenote="57" pan="0" pitchrange="12" vol="30">
          <eldata />
          <instrument name="tripleoscillator" />
        </instrumenttrack>
        <pattern pos="250752" muted="0" steps="16" name="" type="1">
          <note key="79" pos="0" pan="0" len="12" vol="100" />
          <note key="79" pos="24" pan="0" len="12" vol="86" />
          <note key="79" pos="48" pan="0" len="12" vol="69" />
          <note key="79" pos="72" pan="0" len="12" vol="52" />
          <note key="79" pos="96" pan="0" len="12" vol="34" />
          <note key="79" pos="120" pan="0" len="12" vol="17" />
          <note key="79" pos="144" pan="0" len="12" vol="8" />
          <note key="79" pos="168" pan="0" len="12" vol="3" />
          <note key="80" pos="768" pan="0" len="12" vol="100" />
          <note key="80" pos="792" pan="0" len="12" vol="86" />
          <note key="80" pos="816" pan="0" len="12" vol="69" />
          <note key="80" pos="840" pan="0" len="12" vol="52" />
          <note key="80" pos="864" pan="0" len="12" vol="34" />
          <note key="80" pos="888" pan="0" len="12" vol="17" />
          <note key="80" pos="912" pan="0" len="12" vol="8" />
          <note key="80" pos="936" pan="0" len="12" vol="3" />
        </pattern>
      </track>
      <track solo="0" name="86 (Ch11)" type="0" muted="0">
        <instrumenttrack usemasterpitch="1" pitch="0.0" basenote="57" pan="0" pitchrange="12" vol="30">
          <eldata />
          <instrument name="tripleoscillator" />
        </instrumenttrack>
        <pattern pos="243072" muted="0" steps="16" name="" type="1">
          <note key="72" pos="0" pan="0" len="12" vol="100" />
          <note key="72" pos="48" pan="0" len="12" vol="100" />
          <note key="72" pos="96" pan="0" len="12" vol="100" />
          <note key="72" pos="144" pan="0" len="12" vol="100" />
          <note key="72" pos="192" pan="0" len="12" vol="100" />
          <note key="72" pos="240" pan="0" len="12" vol="100" />
          <note key="72" pos="288" pan="0" len="12" vol="100" />
          <note key="72" pos="336" pan="0" len="12" vol="100" />
          <note key="70" pos="384" pan="0" len="12" vol="100" />
          <note key="70" pos="432" pan="0" len="12" vol="100" />
          <note key="70" pos="480" pan="0" len="12" vol="100" />
          <note key="70" pos="528" pan="0" len="12" vol="100" />
          <note key="70" pos="576" pan="0" len="12" vol="100" />
          <note key="70" pos="624" pan="0" len="12" vol="100" />
          <note key="70" pos="672" pan="0" len="12" vol="100" />
          <note key="70" pos="720" pan="0" len="12" vol="100" />
          <note key="67" pos="768" pan="0" len="12" vol="100" />
          <note key="67" pos="816" pan="0" len="12" vol="100" />
          <note key="67" pos="864" pan="0" len="12" vol="100" />
          <note key="67" pos="912" pan="0" len="12" vol="100" />
          <note key="67" pos="960" pan="0" len="12" vol="100" />
          <note key="67" pos="1008" pan="0" len="12" vol="100" />
          <note key="67" pos="1056" pan="0" len="12" vol="100" />
          <note key="67" pos="1104" pan="0" len="12" vol="100" />
          <note key="65" pos="1152" pan="0" len="12" vol="100" />
          <note key="65" pos="1200" pan="0" len="12" vol="100" />
          <note key="65" pos="1248" pan="0" len="12" vol="100" />
          <note key="65" pos="1296" pan="0" len="12" vol="100" />
          <note key="65" pos="1344" pan="0" len="12" vol="100" />
          <note key="65" pos="1392" pan="0" len="12" vol="100" />
          <note key="63" pos="1440" pan="0" len="12" vol="100" />
          <note key="58" pos="1488" pan="0" len="12" vol="100" />
        </pattern>
      </track>
      <track solo="0" name="86 (Ch12)" type="0" muted="0">
        <instrumenttrack usemasterpitch="1" pitch="0.0" basenote="57" pan="0" pitchrange="12" vol="30">
          <eldata />
          <instrument name="tripleoscillator" />
        </instrumenttrack>
        <pattern pos="250752" muted="0" steps="16" name="" type="1">
          <note key="82" pos="1440" pan="0" len="96" vol="2" />
        </pattern>
      </track>
      <track solo="0" name="86 (Ch13)" type="0" muted="0">
        <instrumenttrack usemasterpitch="1" pitch="0.0" basenote="57" pan="0" pitchrange="12" vol="30">
          <eldata />
          <instrument name="tripleoscillator" />
        </instrumenttrack>
        <pattern pos="250752" muted="0" steps="16" name="" type="1">
          <note key="70" pos="1440" pan="0" len="96" vol="2" />
        </pattern>
      </track>
      <track solo="0" name="88 (Ch7)" type="0" muted="0">
        <instrumenttrack usemasterpitch="1" pitch="0.0" basenote="57" pan="0" pitchrange="12" vol="30">
          <eldata />
          <instrument name="tripleoscillator" />
        </instrumenttrack>
        <pattern pos="259200" muted="0" steps="16" name="" type="1">
          <note key="65" pos="0" pan="0" len="192" vol="100" />
          <note key="63" pos="192" pan="0" len="96" vol="100" />
          <note key="62" pos="288" pan="0" len="96" vol="100" />
          <note key="63" pos="384" pan="0" len="192" vol="100" />
          <note key="63" pos="576" pan="0" len="96" vol="100" />
          <note key="75" pos="672" pan="0" len="96" vol="100" />
        </pattern>
        <pattern pos="139008" muted="0" steps="16" name="" type="1">
          <note key="60" pos="48" pan="0" len="192" vol="100" />
          <note key="58" pos="240" pan="0" len="96" vol="100" />
          <note key="57" pos="336" pan="0" len="96" vol="100" />
          <note key="58" pos="432" pan="0" len="192" vol="100" />
          <note key="58" pos="624" pan="0" len="96" vol="100" />
          <note key="57" pos="720" pan="0" len="48" vol="100" />
        </pattern>
        <pattern pos="139776" muted="0" steps="16" name="" type="1">
          <note key="60" pos="48" pan="0" len="192" vol="100" />
          <note key="58" pos="240" pan="0" len="96" vol="100" />
          <note key="57" pos="336" pan="0" len="96" vol="100" />
          <note key="58" pos="432" pan="0" len="192" vol="100" />
          <note key="58" pos="624" pan="0" len="96" vol="100" />
          <note key="57" pos="720" pan="0" len="48" vol="100" />
        </pattern>
      </track>
      <track solo="0" name="88 (Ch8)" type="0" muted="0">
        <instrumenttrack usemasterpitch="1" pitch="0.0" basenote="57" pan="0" pitchrange="12" vol="30">
          <eldata />
          <instrument name="tripleoscillator" />
        </instrumenttrack>
        <pattern pos="259200" muted="0" steps="16" name="" type="1">
          <note key="68" pos="0" pan="0" len="192" vol="100" />
          <note key="68" pos="192" pan="0" len="192" vol="100" />
          <note key="68" pos="384" pan="0" len="192" vol="100" />
          <note key="65" pos="576" pan="0" len="192" vol="100" />
        </pattern>
        <pattern pos="139008" muted="0" steps="16" name="" type="1">
          <note key="63" pos="48" pan="0" len="192" vol="100" />
          <note key="63" pos="240" pan="0" len="192" vol="100" />
          <note key="63" pos="432" pan="0" len="192" vol="100" />
          <note key="60" pos="624" pan="0" len="144" vol="100" />
        </pattern>
        <pattern pos="139776" muted="0" steps="16" name="" type="1">
          <note key="63" pos="48" pan="0" len="192" vol="100" />
          <note key="63" pos="240" pan="0" len="192" vol="100" />
          <note key="63" pos="432" pan="0" len="192" vol="100" />
          <note key="60" pos="624" pan="0" len="912" vol="100" />
        </pattern>
      </track>
      <track solo="0" name="88 (Ch9)" type="0" muted="0">
        <instrumenttrack usemasterpitch="1" pitch="0.0" basenote="57" pan="0" pitchrange="12" vol="30">
          <eldata />
          <instrument name="tripleoscillator" />
        </instrumenttrack>
        <pattern pos="259200" muted="0" steps="16" name="" type="1">
          <note key="72" pos="0" pan="0" len="192" vol="100" />
          <note key="70" pos="192" pan="0" len="192" vol="100" />
          <note key="72" pos="384" pan="0" len="192" vol="100" />
          <note key="70" pos="576" pan="0" len="192" vol="100" />
        </pattern>
        <pattern pos="139008" muted="0" steps="16" name="" type="1">
          <note key="67" pos="48" pan="0" len="192" vol="100" />
          <note key="65" pos="240" pan="0" len="192" vol="100" />
          <note key="67" pos="432" pan="0" len="192" vol="100" />
          <note key="65" pos="624" pan="0" len="144" vol="100" />
        </pattern>
        <pattern pos="139776" muted="0" steps="16" name="" type="1">
          <note key="67" pos="48" pan="0" len="192" vol="100" />
          <note key="65" pos="240" pan="0" len="192" vol="100" />
          <note key="67" pos="432" pan="0" len="192" vol="100" />
          <note key="65" pos="624" pan="0" len="912" vol="100" />
        </pattern>
      </track>
      <track solo="0" name="88 (Ch11)" type="0" muted="0">
        <instrumenttrack usemasterpitch="1" pitch="0.0" basenote="57" pan="0" pitchrange="12" vol="30">
          <eldata />
          <instrument name="tripleoscillator" />
        </instrumenttrack>
        <pattern pos="184704" muted="0" steps="16" name="" type="1">
          <note key="64" pos="1008" pan="0" len="144" vol="100" />
        </pattern>
        <pattern pos="175104" muted="0" steps="16" name="" type="1">
          <note key="72" pos="0" pan="0" len="1536" vol="100" />
        </pattern>
      </track>
      <track solo="0" name="88 (Ch12)" type="0" muted="0">
        <instrumenttrack usemasterpitch="1" pitch="0.0" basenote="57" pan="0" pitchrange="12" vol="30">
          <eldata />
          <instrument name="tripleoscillator" />
        </instrumenttrack>
        <pattern pos="184704" muted="0" steps="16" name="" type="1">
          <note key="67" pos="1008" pan="0" len="144" vol="100" />
        </pattern>
        <pattern pos="175104" muted="0" steps="16" name="" type="1">
          <note key="75" pos="0" pan="0" len="1536" vol="100" />
        </pattern>
        <pattern pos="183552" muted="0" steps="16" name="" type="1">
          <note key="64" pos="0" pan="0" len="144" vol="100" />
          <note key="60" pos="144" pan="0" len="144" vol="100" />
          <note key="55" pos="288" pan="0" len="144" vol="100" />
          <note key="64" pos="432" pan="0" len="144" vol="100" />
          <note key="64" pos="576" pan="0" len="144" vol="100" />
          <note key="60" pos="720" pan="0" len="144" vol="100" />
          <note key="55" pos="864" pan="0" len="144" vol="100" />
          <note key="64" pos="1008" pan="0" len="144" vol="100" />
        </pattern>
      </track>
      <track solo="0" name="88 (Ch13)" type="0" muted="0">
        <instrumenttrack usemasterpitch="1" pitch="0.0" basenote="57" pan="0" pitchrange="12" vol="30">
          <eldata />
          <instrument name="tripleoscillator" />
        </instrumenttrack>
        <pattern pos="184704" muted="0" steps="16" name="" type="1">
          <note key="71" pos="1008" pan="0" len="144" vol="100" />
        </pattern>
        <pattern pos="175104" muted="0" steps="16" name="" type="1">
          <note key="79" pos="0" pan="0" len="1536" vol="100" />
        </pattern>
        <pattern pos="183552" muted="0" steps="16" name="" type="1">
          <note key="67" pos="0" pan="0" len="144" vol="100" />
          <note key="64" pos="144" pan="0" len="144" vol="100" />
          <note key="59" pos="288" pan="0" len="144" vol="100" />
          <note key="72" pos="432" pan="0" len="144" vol="100" />
          <note key="67" pos="576" pan="0" len="144" vol="100" />
          <note key="64" pos="720" pan="0" len="144" vol="100" />
          <note key="59" pos="864" pan="0" len="144" vol="100" />
          <note key="72" pos="1008" pan="0" len="144" vol="100" />
        </pattern>
      </track>
      <track solo="0" name="88 (Ch14)" type="0" muted="0">
        <instrumenttrack usemasterpitch="1" pitch="0.0" basenote="57" pan="0" pitchrange="12" vol="30">
          <eldata />
          <instrument name="tripleoscillator" />
        </instrumenttrack>
        <pattern pos="183552" muted="0" steps="16" name="" type="1">
          <note key="71" pos="0" pan="0" len="144" vol="100" />
          <note key="67" pos="144" pan="0" len="144" vol="100" />
          <note key="64" pos="288" pan="0" len="144" vol="100" />
          <note key="67" pos="432" pan="0" len="144" vol="100" />
          <note key="71" pos="576" pan="0" len="144" vol="100" />
          <note key="67" pos="720" pan="0" len="144" vol="100" />
          <note key="64" pos="864" pan="0" len="144" vol="100" />
          <note key="67" pos="1008" pan="0" len="144" vol="100" />
        </pattern>
      </track>
      <track solo="0" name="89 (Ch1)" type="0" muted="0">
        <instrumenttrack usemasterpitch="1" pitch="0.0" basenote="57" pan="0" pitchrange="12" vol="30">
          <eldata />
          <instrument name="tripleoscillator" />
        </instrumenttrack>
        <pattern pos="161280" muted="0" steps="16" name="" type="1">
          <note key="60" pos="0" pan="0" len="1536" vol="50" />
        </pattern>
        <pattern pos="158208" muted="0" steps="16" name="" type="1">
          <note key="67" pos="0" pan="0" len="192" vol="100" />
          <note key="72" pos="192" pan="0" len="192" vol="100" />
          <note key="65" pos="384" pan="0" len="192" vol="100" />
          <note key="63" pos="576" pan="0" len="96" vol="100" />
          <note key="65" pos="672" pan="0" len="96" vol="100" />
          <note key="67" pos="768" pan="0" len="192" vol="100" />
          <note key="72" pos="960" pan="0" len="96" vol="100" />
          <note key="75" pos="1056" pan="0" len="96" vol="100" />
          <note key="74" pos="1152" pan="0" len="96" vol="100" />
          <note key="70" pos="1248" pan="0" len="96" vol="100" />
          <note key="67" pos="1344" pan="0" len="192" vol="100" />
        </pattern>
        <pattern pos="159744" muted="0" steps="16" name="" type="1">
          <note key="67" pos="0" pan="0" len="192" vol="100" />
          <note key="72" pos="192" pan="0" len="96" vol="100" />
          <note key="67" pos="288" pan="0" len="96" vol="100" />
          <note key="65" pos="384" pan="0" len="192" vol="100" />
          <note key="63" pos="576" pan="0" len="96" vol="100" />
          <note key="65" pos="672" pan="0" len="96" vol="100" />
          <note key="67" pos="768" pan="0" len="192" vol="100" />
          <note key="67" pos="960" pan="0" len="96" vol="100" />
          <note key="63" pos="1056" pan="0" len="96" vol="100" />
          <note key="62" pos="1152" pan="0" len="192" vol="100" />
          <note key="58" pos="1344" pan="0" len="96" vol="100" />
          <note key="55" pos="1440" pan="0" len="96" vol="100" />
        </pattern>
      </track>
      <track solo="0" name="89 (Ch2)" type="0" muted="0">
        <instrumenttrack usemasterpitch="1" pitch="0.0" basenote="57" pan="0" pitchrange="12" vol="30">
          <eldata />
          <instrument name="tripleoscillator" />
        </instrumenttrack>
        <pattern pos="270000" muted="0" steps="16" name="" type="1">
          <note key="67" pos="0" pan="0" len="384" vol="100" />
          <note key="64" pos="384" pan="0" len="192" vol="100" />
          <note key="65" pos="576" pan="0" len="192" vol="100" />
        </pattern>
        <pattern pos="178944" muted="0" steps="16" name="" type="1">
          <note key="79" pos="360" pan="0" len="48" vol="100" />
          <note key="71" pos="408" pan="0" len="120" vol="100" />
          <note key="69" pos="528" pan="0" len="48" vol="100" />
          <note key="79" pos="960" pan="0" len="48" vol="100" />
          <note key="71" pos="1008" pan="0" len="120" vol="100" />
          <note key="69" pos="1128" pan="0" len="24" vol="100" />
        </pattern>
      </track>
      <track solo="0" name="89 (Ch3)" type="0" muted="0">
        <instrumenttrack usemasterpitch="1" pitch="0.0" basenote="57" pan="0" pitchrange="12" vol="30">
          <eldata />
          <instrument name="tripleoscillator" />
        </instrumenttrack>
        <pattern pos="270000" muted="0" steps="16" name="" type="1">
          <note key="69" pos="0" pan="0" len="384" vol="100" />
          <note key="69" pos="384" pan="0" len="192" vol="100" />
          <note key="67" pos="576" pan="0" len="192" vol="100" />
        </pattern>
      </track>
      <track solo="0" name="89 (Ch4)" type="0" muted="0">
        <instrumenttrack usemasterpitch="1" pitch="0.0" basenote="57" pan="0" pitchrange="12" vol="30">
          <eldata />
          <instrument name="tripleoscillator" />
        </instrumenttrack>
        <pattern pos="270000" muted="0" steps="16" name="" type="1">
          <note key="71" pos="0" pan="0" len="192" vol="100" />
          <note key="72" pos="192" pan="0" len="192" vol="100" />
          <note key="74" pos="384" pan="0" len="192" vol="100" />
          <note key="72" pos="576" pan="0" len="192" vol="100" />
        </pattern>
      </track>
      <track solo="0" name="89 (Ch5)" type="0" muted="0">
        <instrumenttrack usemasterpitch="1" pitch="0.0" basenote="57" pan="0" pitchrange="12" vol="30">
          <eldata />
          <instrument name="tripleoscillator" />
        </instrumenttrack>
        <pattern pos="26880" muted="0" steps="16" name="" type="1">
          <note key="60" pos="864" pan="0" len="96" vol="100" />
          <note key="67" pos="960" pan="0" len="96" vol="100" />
          <note key="70" pos="1152" pan="0" len="192" vol="100" />
          <note key="69" pos="1344" pan="0" len="96" vol="100" />
        </pattern>
      </track>
      <track solo="0" name="89 (Ch6)" type="0" muted="0">
        <instrumenttrack usemasterpitch="1" pitch="0.0" basenote="57" pan="0" pitchrange="12" vol="30">
          <eldata />
          <instrument name="tripleoscillator" />
        </instrumenttrack>
        <pattern pos="269232" muted="0" steps="16" name="" type="1">
          <note key="72" pos="24" pan="0" len="120" vol="100" />
          <note key="71" pos="216" pan="0" len="120" vol="100" />
        </pattern>
      </track>
      <track solo="0" name="89 (Ch8)" type="0" muted="0">
        <instrumenttrack usemasterpitch="1" pitch="0.0" basenote="57" pan="0" pitchrange="12" vol="30">
          <eldata />
          <instrument name="tripleoscillator" />
        </instrumenttrack>
        <pattern pos="265344" muted="0" steps="16" name="" type="1">
          <note key="65" pos="0" pan="0" len="384" vol="30" />
          <note key="70" pos="384" pan="0" len="384" vol="30" />
        </pattern>
        <pattern pos="6144" muted="0" steps="16" name="" type="1">
          <note key="74" pos="0" pan="0" len="192" vol="100" />
          <note key="71" pos="192" pan="0" len="192" vol="100" />
          <note key="72" pos="384" pan="0" len="96" vol="100" />
        </pattern>
        <pattern pos="9984" muted="0" steps="16" name="" type="1">
          <note key="58" pos="0" pan="0" len="192" vol="100" />
          <note key="65" pos="192" pan="0" len="192" vol="100" />
          <note key="64" pos="384" pan="0" len="192" vol="100" />
          <note key="60" pos="576" pan="0" len="192" vol="100" />
        </pattern>
        <pattern pos="10752" muted="0" steps="16" name="" type="1">
          <note key="58" pos="0" pan="0" len="192" vol="100" />
          <note key="65" pos="192" pan="0" len="192" vol="100" />
          <note key="67" pos="384" pan="0" len="180" vol="100" />
        </pattern>
        <pattern pos="20736" muted="0" steps="16" name="" type="1">
          <note key="75" pos="0" pan="0" len="384" vol="100" />
          <note key="77" pos="384" pan="0" len="384" vol="100" />
          <note key="74" pos="768" pan="0" len="384" vol="100" />
          <note key="75" pos="1152" pan="0" len="192" vol="100" />
          <note key="72" pos="1344" pan="0" len="192" vol="100" />
        </pattern>
        <pattern pos="105984" muted="0" steps="16" name="" type="1">
          <note key="89" pos="768" pan="0" len="384" vol="34" />
          <note key="88" pos="1152" pan="0" len="384" vol="69" />
        </pattern>
        <pattern pos="107520" muted="0" steps="16" name="" type="1">
          <note key="74" pos="0" pan="0" len="48" vol="52" />
        </pattern>
        <pattern pos="259968" muted="0" steps="16" name="" type="1">
          <note key="60" pos="0" pan="0" len="384" vol="30" />
          <note key="70" pos="384" pan="0" len="384" vol="30" />
        </pattern>
        <pattern pos="260736" muted="0" steps="16" name="" type="1">
          <note key="65" pos="0" pan="0" len="384" vol="30" />
          <note key="70" pos="384" pan="0" len="384" vol="30" />
        </pattern>
        <pattern pos="264576" muted="0" steps="16" name="" type="1">
          <note key="60" pos="0" pan="0" len="384" vol="30" />
          <note key="70" pos="384" pan="0" len="384" vol="30" />
        </pattern>
      </track>
      <track solo="0" name="89 (Ch9)" type="0" muted="0">
        <instrumenttrack usemasterpitch="1" pitch="0.0" basenote="57" pan="0" pitchrange="12" vol="30">
          <eldata />
          <instrument name="tripleoscillator" />
        </instrumenttrack>
        <pattern pos="265344" muted="0" steps="16" name="" type="1">
          <note key="70" pos="0" pan="0" len="384" vol="30" />
          <note key="72" pos="384" pan="0" len="384" vol="30" />
        </pattern>
        <pattern pos="19200" muted="0" steps="16" name="" type="1">
          <note key="60" pos="48" pan="0" len="96" vol="100" />
          <note key="63" pos="144" pan="0" len="240" vol="100" />
          <note key="67" pos="384" pan="0" len="192" vol="100" />
          <note key="70" pos="576" pan="0" len="192" vol="100" />
          <note key="69" pos="768" pan="0" len="384" vol="100" />
          <note key="65" pos="1152" pan="0" len="384" vol="100" />
        </pattern>
        <pattern pos="95232" muted="0" steps="16" name="" type="1">
          <note key="63" pos="768" pan="0" len="240" vol="50" />
          <note key="65" pos="1152" pan="0" len="240" vol="50" />
        </pattern>
        <pattern pos="96768" muted="0" steps="16" name="" type="1">
          <note key="63" pos="768" pan="0" len="240" vol="50" />
          <note key="65" pos="1152" pan="0" len="240" vol="50" />
        </pattern>
        <pattern pos="105984" muted="0" steps="16" name="" type="1">
          <note key="77" pos="768" pan="0" len="384" vol="69" />
          <note key="76" pos="1152" pan="0" len="384" vol="69" />
        </pattern>
        <pattern pos="107520" muted="0" steps="16" name="" type="1">
          <note key="86" pos="0" pan="0" len="48" vol="52" />
        </pattern>
        <pattern pos="122880" muted="0" steps="16" name="" type="1">
          <note key="63" pos="768" pan="0" len="240" vol="50" />
          <note key="65" pos="1152" pan="0" len="240" vol="50" />
        </pattern>
        <pattern pos="124416" muted="0" steps="16" name="" type="1">
          <note key="63" pos="768" pan="0" len="240" vol="50" />
          <note key="65" pos="1152" pan="0" len="240" vol="50" />
        </pattern>
        <pattern pos="175104" muted="0" steps="16" name="" type="1">
          <note key="48" pos="0" pan="0" len="1440" vol="34" />
        </pattern>
        <pattern pos="259968" muted="0" steps="16" name="" type="1">
          <note key="65" pos="0" pan="0" len="384" vol="30" />
          <note key="72" pos="384" pan="0" len="384" vol="30" />
        </pattern>
        <pattern pos="260736" muted="0" steps="16" name="" type="1">
          <note key="70" pos="0" pan="0" len="384" vol="30" />
          <note key="72" pos="384" pan="0" len="384" vol="30" />
        </pattern>
        <pattern pos="264576" muted="0" steps="16" name="" type="1">
          <note key="65" pos="0" pan="0" len="384" vol="30" />
          <note key="72" pos="384" pan="0" len="384" vol="30" />
        </pattern>
      </track>
      <track solo="0" name="89 (Ch10)" type="0" muted="0">
        <instrumenttrack usemasterpitch="1" pitch="0.0" basenote="57" pan="0" pitchrange="12" vol="30">
          <eldata />
          <instrument name="tripleoscillator" />
        </instrumenttrack>
        <pattern pos="265344" muted="0" steps="16" name="" type="1">
          <note key="72" pos="0" pan="0" len="384" vol="30" />
          <note key="75" pos="384" pan="0" len="384" vol="30" />
        </pattern>
        <pattern pos="136704" muted="0" steps="16" name="" type="1">
          <note key="67" pos="0" pan="0" len="192" vol="50" />
          <note key="72" pos="192" pan="0" len="192" vol="50" />
        </pattern>
        <pattern pos="175104" muted="0" steps="16" name="" type="1">
          <note key="72" pos="0" pan="0" len="96" vol="34" />
        </pattern>
        <pattern pos="204288" muted="0" steps="16" name="" type="1">
          <note key="57" pos="0" pan="0" len="192" vol="100" />
          <note key="59" pos="192" pan="0" len="192" vol="100" />
          <note key="60" pos="384" pan="0" len="96" vol="100" />
          <note key="64" pos="480" pan="0" len="96" vol="100" />
          <note key="69" pos="576" pan="0" len="192" vol="100" />
          <note key="68" pos="768" pan="0" len="384" vol="100" />
          <note key="64" pos="1152" pan="0" len="240" vol="100" />
        </pattern>
        <pattern pos="205824" muted="0" steps="16" name="" type="1">
          <note key="57" pos="0" pan="0" len="192" vol="100" />
          <note key="59" pos="192" pan="0" len="192" vol="100" />
          <note key="60" pos="384" pan="0" len="96" vol="100" />
          <note key="64" pos="480" pan="0" len="96" vol="100" />
          <note key="69" pos="576" pan="0" len="192" vol="100" />
          <note key="68" pos="768" pan="0" len="384" vol="100" />
          <note key="64" pos="1152" pan="0" len="240" vol="100" />
        </pattern>
        <pattern pos="210432" muted="0" steps="16" name="" type="1">
          <note key="57" pos="0" pan="0" len="192" vol="100" />
          <note key="59" pos="192" pan="0" len="192" vol="100" />
          <note key="60" pos="384" pan="0" len="96" vol="100" />
          <note key="64" pos="480" pan="0" len="96" vol="100" />
          <note key="69" pos="576" pan="0" len="192" vol="100" />
          <note key="68" pos="768" pan="0" len="384" vol="100" />
          <note key="64" pos="1152" pan="0" len="240" vol="100" />
        </pattern>
        <pattern pos="211968" muted="0" steps="16" name="" type="1">
          <note key="57" pos="0" pan="0" len="192" vol="100" />
          <note key="59" pos="192" pan="0" len="192" vol="100" />
          <note key="60" pos="384" pan="0" len="96" vol="100" />
          <note key="64" pos="480" pan="0" len="96" vol="100" />
          <note key="69" pos="576" pan="0" len="192" vol="100" />
          <note key="68" pos="768" pan="0" len="384" vol="100" />
          <note key="64" pos="1152" pan="0" len="240" vol="100" />
        </pattern>
        <pattern pos="213504" muted="0" steps="16" name="" type="1">
          <note key="73" pos="768" pan="0" len="96" vol="100" />
          <note key="78" pos="864" pan="0" len="96" vol="100" />
          <note key="76" pos="960" pan="0" len="96" vol="100" />
          <note key="74" pos="1056" pan="0" len="96" vol="100" />
          <note key="73" pos="1152" pan="0" len="96" vol="100" />
          <note key="70" pos="1248" pan="0" len="96" vol="100" />
          <note key="71" pos="1344" pan="0" len="96" vol="100" />
          <note key="64" pos="1440" pan="0" len="96" vol="100" />
        </pattern>
        <pattern pos="259968" muted="0" steps="16" name="" type="1">
          <note key="67" pos="0" pan="0" len="384" vol="30" />
          <note key="75" pos="384" pan="0" len="384" vol="30" />
        </pattern>
        <pattern pos="260736" muted="0" steps="16" name="" type="1">
          <note key="72" pos="0" pan="0" len="384" vol="30" />
          <note key="75" pos="384" pan="0" len="384" vol="30" />
        </pattern>
        <pattern pos="264576" muted="0" steps="16" name="" type="1">
          <note key="67" pos="0" pan="0" len="384" vol="30" />
          <note key="75" pos="384" pan="0" len="384" vol="30" />
        </pattern>
      </track>
      <track solo="0" name="89 (Ch11)" type="0" muted="0">
        <instrumenttrack usemasterpitch="1" pitch="0.0" basenote="57" pan="0" pitchrange="12" vol="30">
          <eldata />
          <instrument name="tripleoscillator" />
        </instrumenttrack>
        <pattern pos="211968" muted="0" steps="16" name="" type="1">
          <note key="69" pos="0" pan="0" len="192" vol="100" />
          <note key="71" pos="192" pan="0" len="96" vol="100" />
          <note key="72" pos="384" pan="0" len="96" vol="100" />
          <note key="76" pos="480" pan="0" len="96" vol="100" />
          <note key="81" pos="576" pan="0" len="96" vol="100" />
          <note key="80" pos="768" pan="0" len="240" vol="69" />
        </pattern>
        <pattern pos="127488" muted="0" steps="16" name="" type="1">
          <note key="70" pos="0" pan="0" len="384" vol="50" />
          <note key="69" pos="384" pan="0" len="384" vol="50" />
          <note key="60" pos="768" pan="0" len="384" vol="34" />
          <note key="65" pos="1152" pan="0" len="384" vol="34" />
        </pattern>
        <pattern pos="198144" muted="0" steps="16" name="" type="1">
          <note key="78" pos="576" pan="0" len="96" vol="33" />
          <note key="76" pos="672" pan="0" len="96" vol="33" />
          <note key="69" pos="1056" pan="0" len="96" vol="33" />
          <note key="68" pos="1152" pan="0" len="96" vol="33" />
          <note key="64" pos="1248" pan="0" len="96" vol="33" />
          <note key="69" pos="1344" pan="0" len="96" vol="33" />
        </pattern>
        <pattern pos="204288" muted="0" steps="16" name="" type="1">
          <note key="80" pos="768" pan="0" len="240" vol="69" />
        </pattern>
        <pattern pos="205824" muted="0" steps="16" name="" type="1">
          <note key="69" pos="0" pan="0" len="192" vol="100" />
          <note key="71" pos="192" pan="0" len="96" vol="100" />
          <note key="72" pos="384" pan="0" len="96" vol="100" />
          <note key="76" pos="480" pan="0" len="96" vol="100" />
          <note key="81" pos="576" pan="0" len="96" vol="100" />
          <note key="80" pos="768" pan="0" len="240" vol="69" />
        </pattern>
        <pattern pos="210432" muted="0" steps="16" name="" type="1">
          <note key="80" pos="768" pan="0" len="240" vol="69" />
        </pattern>
      </track>
      <track solo="0" name="89 (Ch12)" type="0" muted="0">
        <instrumenttrack usemasterpitch="1" pitch="0.0" basenote="57" pan="0" pitchrange="12" vol="30">
          <eldata />
          <instrument name="tripleoscillator" />
        </instrumenttrack>
        <pattern pos="267648" muted="0" steps="16" name="" type="1">
          <note key="56" pos="0" pan="0" len="384" vol="52" />
          <note key="53" pos="384" pan="0" len="288" vol="50" />
          <note key="53" pos="672" pan="0" len="96" vol="50" />
          <note key="56" pos="768" pan="0" len="384" vol="50" />
          <note key="58" pos="1152" pan="0" len="192" vol="50" />
        </pattern>
        <pattern pos="266112" muted="0" steps="16" name="" type="1">
          <note key="57" pos="0" pan="0" len="384" vol="69" />
          <note key="55" pos="384" pan="0" len="288" vol="69" />
          <note key="53" pos="672" pan="0" len="96" vol="69" />
          <note key="57" pos="768" pan="0" len="384" vol="69" />
          <note key="55" pos="1152" pan="0" len="288" vol="69" />
          <note key="53" pos="1440" pan="0" len="96" vol="69" />
        </pattern>
      </track>
      <track solo="0" name="89 (Ch13)" type="0" muted="0">
        <instrumenttrack usemasterpitch="1" pitch="0.0" basenote="57" pan="0" pitchrange="12" vol="30">
          <eldata />
          <instrument name="tripleoscillator" />
        </instrumenttrack>
        <pattern pos="267648" muted="0" steps="16" name="" type="1">
          <note key="60" pos="0" pan="0" len="384" vol="52" />
          <note key="58" pos="384" pan="0" len="288" vol="50" />
          <note key="56" pos="672" pan="0" len="96" vol="50" />
          <note key="60" pos="768" pan="0" len="384" vol="50" />
          <note key="62" pos="1152" pan="0" len="192" vol="50" />
        </pattern>
        <pattern pos="113664" muted="0" steps="16" name="" type="1">
          <note key="79" pos="0" pan="0" len="96" vol="100" />
          <note key="75" pos="96" pan="0" len="96" vol="100" />
          <note key="74" pos="192" pan="0" len="192" vol="100" />
          <note key="72" pos="576" pan="0" len="132" vol="100" />
          <note key="70" pos="1152" pan="0" len="144" vol="100" />
        </pattern>
        <pattern pos="115200" muted="0" steps="16" name="" type="1">
          <note key="79" pos="0" pan="0" len="144" vol="100" />
          <note key="82" pos="144" pan="0" len="144" vol="100" />
          <note key="81" pos="288" pan="0" len="192" vol="100" />
          <note key="77" pos="576" pan="0" len="144" vol="100" />
          <note key="75" pos="720" pan="0" len="168" vol="100" />
          <note key="72" pos="1152" pan="0" len="156" vol="100" />
        </pattern>
        <pattern pos="266112" muted="0" steps="16" name="" type="1">
          <note key="60" pos="0" pan="0" len="384" vol="69" />
          <note key="60" pos="384" pan="0" len="288" vol="69" />
          <note key="58" pos="672" pan="0" len="96" vol="69" />
          <note key="60" pos="768" pan="0" len="384" vol="69" />
          <note key="60" pos="1152" pan="0" len="288" vol="69" />
          <note key="58" pos="1440" pan="0" len="96" vol="69" />
        </pattern>
      </track>
      <track solo="0" name="89 (Ch14)" type="0" muted="0">
        <instrumenttrack usemasterpitch="1" pitch="0.0" basenote="57" pan="0" pitchrange="12" vol="30">
          <eldata />
          <instrument name="tripleoscillator" />
        </instrumenttrack>
        <pattern pos="267648" muted="0" steps="16" name="" type="1">
          <note key="63" pos="0" pan="0" len="384" vol="52" />
          <note key="62" pos="384" pan="0" len="288" vol="50" />
          <note key="60" pos="672" pan="0" len="96" vol="50" />
          <note key="63" pos="768" pan="0" len="384" vol="50" />
          <note key="65" pos="1152" pan="0" len="192" vol="50" />
        </pattern>
        <pattern pos="14592" muted="0" steps="16" name="" type="1">
          <note key="79" pos="0" pan="0" len="192" vol="100" />
          <note key="84" pos="192" pan="0" len="192" vol="100" />
          <note key="82" pos="384" pan="0" len="192" vol="100" />
          <note key="86" pos="576" pan="0" len="192" vol="100" />
          <note key="88" pos="768" pan="0" len="192" vol="100" />
          <note key="84" pos="960" pan="0" len="192" vol="100" />
          <note key="82" pos="1152" pan="0" len="192" vol="100" />
          <note key="79" pos="1344" pan="0" len="192" vol="100" />
        </pattern>
        <pattern pos="16128" muted="0" steps="16" name="" type="1">
          <note key="77" pos="0" pan="0" len="192" vol="100" />
          <note key="82" pos="192" pan="0" len="192" vol="100" />
          <note key="79" pos="384" pan="0" len="192" vol="100" />
          <note key="84" pos="576" pan="0" len="192" vol="100" />
          <note key="82" pos="768" pan="0" len="192" vol="100" />
          <note key="79" pos="960" pan="0" len="192" vol="100" />
          <note key="84" pos="1152" pan="0" len="192" vol="100" />
        </pattern>
        <pattern pos="129024" muted="0" steps="16" name="" type="1">
          <note key="72" pos="0" pan="0" len="576" vol="100" />
          <note key="70" pos="576" pan="0" len="192" vol="100" />
          <note key="72" pos="768" pan="0" len="384" vol="100" />
          <note key="70" pos="1152" pan="0" len="384" vol="100" />
        </pattern>
        <pattern pos="130560" muted="0" steps="16" name="" type="1">
          <note key="72" pos="0" pan="0" len="576" vol="100" />
          <note key="70" pos="576" pan="0" len="192" vol="100" />
          <note key="72" pos="768" pan="0" len="384" vol="100" />
          <note key="70" pos="1152" pan="0" len="384" vol="100" />
        </pattern>
        <pattern pos="202752" muted="0" steps="16" name="" type="1">
          <note key="71" pos="192" pan="0" len="192" vol="17" />
          <note key="72" pos="384" pan="0" len="192" vol="34" />
          <note key="74" pos="576" pan="0" len="192" vol="33" />
          <note key="76" pos="768" pan="0" len="384" vol="33" />
          <note key="69" pos="1152" pan="0" len="192" vol="34" />
          <note key="72" pos="1344" pan="0" len="96" vol="52" />
          <note key="71" pos="1440" pan="0" len="96" vol="69" />
        </pattern>
        <pattern pos="208896" muted="0" steps="16" name="" type="1">
          <note key="71" pos="192" pan="0" len="192" vol="17" />
          <note key="72" pos="384" pan="0" len="192" vol="34" />
          <note key="74" pos="576" pan="0" len="192" vol="33" />
          <note key="76" pos="768" pan="0" len="384" vol="33" />
          <note key="69" pos="1152" pan="0" len="192" vol="34" />
          <note key="72" pos="1344" pan="0" len="96" vol="52" />
          <note key="71" pos="1440" pan="0" len="96" vol="69" />
        </pattern>
        <pattern pos="266112" muted="0" steps="16" name="" type="1">
          <note key="65" pos="0" pan="0" len="384" vol="69" />
          <note key="63" pos="384" pan="0" len="288" vol="69" />
          <note key="62" pos="672" pan="0" len="96" vol="69" />
          <note key="65" pos="768" pan="0" len="384" vol="69" />
          <note key="63" pos="1152" pan="0" len="288" vol="69" />
          <note key="62" pos="1440" pan="0" len="96" vol="69" />
        </pattern>
      </track>
      <track solo="0" name="90 (Ch4)" type="0" muted="0">
        <instrumenttrack usemasterpitch="1" pitch="0.0" basenote="57" pan="0" pitchrange="12" vol="30">
          <eldata />
          <instrument name="tripleoscillator" />
        </instrumenttrack>
        <pattern pos="138240" muted="0" steps="16" name="" type="1">
          <note key="48" pos="0" pan="0" len="768" vol="34" />
        </pattern>
        <pattern pos="136704" muted="0" steps="16" name="" type="1">
          <note key="48" pos="768" pan="0" len="768" vol="0" />
        </pattern>
      </track>
      <track solo="0" name="90 (Ch8)" type="0" muted="0">
        <instrumenttrack usemasterpitch="1" pitch="0.0" basenote="57" pan="0" pitchrange="12" vol="30">
          <eldata />
          <instrument name="tripleoscillator" />
        </instrumenttrack>
        <pattern pos="208896" muted="0" steps="16" name="" type="1">
          <note key="64" pos="0" pan="0" len="384" vol="33" />
          <note key="77" pos="384" pan="0" len="384" vol="33" />
        </pattern>
        <pattern pos="201216" muted="0" steps="16" name="" type="1">
          <note key="64" pos="0" pan="0" len="384" vol="33" />
          <note key="77" pos="384" pan="0" len="384" vol="33" />
        </pattern>
        <pattern pos="202752" muted="0" steps="16" name="" type="1">
          <note key="64" pos="0" pan="0" len="384" vol="33" />
          <note key="77" pos="384" pan="0" len="384" vol="33" />
        </pattern>
        <pattern pos="207360" muted="0" steps="16" name="" type="1">
          <note key="64" pos="0" pan="0" len="384" vol="33" />
          <note key="77" pos="384" pan="0" len="384" vol="33" />
        </pattern>
      </track>
      <track solo="0" name="90 (Ch10)" type="0" muted="0">
        <instrumenttrack usemasterpitch="1" pitch="0.0" basenote="57" pan="0" pitchrange="12" vol="30">
          <eldata />
          <instrument name="tripleoscillator" />
        </instrumenttrack>
        <pattern pos="138240" muted="0" steps="16" name="" type="1">
          <note key="36" pos="0" pan="0" len="192" vol="100" />
        </pattern>
        <pattern pos="136704" muted="0" steps="16" name="" type="1">
          <note key="36" pos="768" pan="0" len="768" vol="2" />
        </pattern>
      </track>
      <track solo="0" name="90 (Ch11)" type="0" muted="0">
        <instrumenttrack usemasterpitch="1" pitch="0.0" basenote="57" pan="0" pitchrange="12" vol="30">
          <eldata />
          <instrument name="tripleoscillator" />
        </instrumenttrack>
        <pattern pos="138240" muted="0" steps="16" name="" type="1">
          <note key="48" pos="0" pan="0" len="768" vol="100" />
        </pattern>
        <pattern pos="136704" muted="0" steps="16" name="" type="1">
          <note key="48" pos="768" pan="0" len="768" vol="2" />
        </pattern>
      </track>
      <track solo="0" name="91 (Ch12)" type="0" muted="0">
        <instrumenttrack usemasterpitch="1" pitch="0.0" basenote="57" pan="0" pitchrange="12" vol="30">
          <eldata />
          <instrument name="tripleoscillator" />
        </instrumenttrack>
        <pattern pos="265344" muted="0" steps="16" name="" type="1">
          <note key="77" pos="0" pan="0" len="12" vol="100" />
          <note key="75" pos="12" pan="0" len="12" vol="97" />
          <note key="79" pos="24" pan="0" len="12" vol="95" />
          <note key="75" pos="36" pan="0" len="12" vol="92" />
          <note key="77" pos="48" pan="0" len="12" vol="89" />
          <note key="75" pos="60" pan="0" len="12" vol="88" />
          <note key="79" pos="72" pan="0" len="12" vol="84" />
          <note key="75" pos="84" pan="0" len="12" vol="81" />
          <note key="77" pos="96" pan="0" len="12" vol="80" />
          <note key="75" pos="108" pan="0" len="12" vol="77" />
          <note key="79" pos="120" pan="0" len="12" vol="73" />
          <note key="75" pos="132" pan="0" len="12" vol="70" />
          <note key="77" pos="144" pan="0" len="12" vol="69" />
          <note key="75" pos="156" pan="0" len="12" vol="66" />
          <note key="79" pos="168" pan="0" len="12" vol="62" />
          <note key="75" pos="180" pan="0" len="12" vol="61" />
          <note key="77" pos="192" pan="0" len="12" vol="58" />
          <note key="75" pos="204" pan="0" len="12" vol="55" />
          <note key="79" pos="216" pan="0" len="12" vol="53" />
          <note key="75" pos="228" pan="0" len="12" vol="50" />
          <note key="77" pos="240" pan="0" len="12" vol="47" />
          <note key="75" pos="252" pan="0" len="12" vol="45" />
          <note key="79" pos="264" pan="0" len="12" vol="42" />
          <note key="75" pos="276" pan="0" len="12" vol="39" />
          <note key="77" pos="288" pan="0" len="12" vol="38" />
          <note key="75" pos="300" pan="0" len="12" vol="34" />
          <note key="79" pos="312" pan="0" len="12" vol="31" />
          <note key="75" pos="324" pan="0" len="12" vol="28" />
          <note key="77" pos="336" pan="0" len="12" vol="27" />
          <note key="75" pos="348" pan="0" len="12" vol="23" />
          <note key="79" pos="360" pan="0" len="12" vol="20" />
          <note key="75" pos="372" pan="0" len="12" vol="19" />
          <note key="75" pos="384" pan="0" len="12" vol="16" />
          <note key="72" pos="396" pan="0" len="12" vol="19" />
          <note key="79" pos="408" pan="0" len="12" vol="20" />
          <note key="72" pos="420" pan="0" len="12" vol="23" />
          <note key="75" pos="432" pan="0" len="12" vol="27" />
          <note key="72" pos="444" pan="0" len="12" vol="30" />
          <note key="79" pos="456" pan="0" len="12" vol="31" />
          <note key="72" pos="468" pan="0" len="12" vol="34" />
          <note key="75" pos="480" pan="0" len="12" vol="38" />
          <note key="72" pos="492" pan="0" len="12" vol="41" />
          <note key="79" pos="504" pan="0" len="12" vol="42" />
          <note key="72" pos="516" pan="0" len="12" vol="45" />
          <note key="75" pos="528" pan="0" len="12" vol="48" />
          <note key="72" pos="540" pan="0" len="12" vol="52" />
          <note key="79" pos="552" pan="0" len="12" vol="53" />
          <note key="72" pos="564" pan="0" len="12" vol="56" />
          <note key="75" pos="576" pan="0" len="12" vol="59" />
          <note key="72" pos="588" pan="0" len="12" vol="62" />
          <note key="79" pos="600" pan="0" len="12" vol="64" />
          <note key="72" pos="612" pan="0" len="12" vol="67" />
          <note key="75" pos="624" pan="0" len="12" vol="70" />
          <note key="72" pos="636" pan="0" len="12" vol="73" />
          <note key="79" pos="648" pan="0" len="12" vol="75" />
          <note key="72" pos="660" pan="0" len="12" vol="78" />
          <note key="75" pos="672" pan="0" len="12" vol="81" />
          <note key="72" pos="684" pan="0" len="12" vol="84" />
          <note key="79" pos="696" pan="0" len="12" vol="86" />
          <note key="72" pos="708" pan="0" len="12" vol="89" />
          <note key="75" pos="720" pan="0" len="12" vol="92" />
          <note key="72" pos="732" pan="0" len="12" vol="95" />
          <note key="79" pos="744" pan="0" len="12" vol="97" />
          <note key="72" pos="756" pan="0" len="12" vol="100" />
        </pattern>
        <pattern pos="259968" muted="0" steps="16" name="" type="1">
          <note key="77" pos="0" pan="0" len="12" vol="100" />
          <note key="75" pos="12" pan="0" len="12" vol="97" />
          <note key="79" pos="24" pan="0" len="12" vol="95" />
          <note key="75" pos="36" pan="0" len="12" vol="92" />
          <note key="77" pos="48" pan="0" len="12" vol="89" />
          <note key="75" pos="60" pan="0" len="12" vol="88" />
          <note key="79" pos="72" pan="0" len="12" vol="84" />
          <note key="75" pos="84" pan="0" len="12" vol="81" />
          <note key="77" pos="96" pan="0" len="12" vol="80" />
          <note key="75" pos="108" pan="0" len="12" vol="77" />
          <note key="79" pos="120" pan="0" len="12" vol="73" />
          <note key="75" pos="132" pan="0" len="12" vol="70" />
          <note key="77" pos="144" pan="0" len="12" vol="69" />
          <note key="75" pos="156" pan="0" len="12" vol="66" />
          <note key="79" pos="168" pan="0" len="12" vol="62" />
          <note key="75" pos="180" pan="0" len="12" vol="61" />
          <note key="77" pos="192" pan="0" len="12" vol="58" />
          <note key="75" pos="204" pan="0" len="12" vol="55" />
          <note key="79" pos="216" pan="0" len="12" vol="53" />
          <note key="75" pos="228" pan="0" len="12" vol="50" />
          <note key="77" pos="240" pan="0" len="12" vol="47" />
          <note key="75" pos="252" pan="0" len="12" vol="45" />
          <note key="79" pos="264" pan="0" len="12" vol="42" />
          <note key="75" pos="276" pan="0" len="12" vol="39" />
          <note key="77" pos="288" pan="0" len="12" vol="38" />
          <note key="75" pos="300" pan="0" len="12" vol="34" />
          <note key="79" pos="312" pan="0" len="12" vol="31" />
          <note key="75" pos="324" pan="0" len="12" vol="28" />
          <note key="77" pos="336" pan="0" len="12" vol="27" />
          <note key="75" pos="348" pan="0" len="12" vol="23" />
          <note key="79" pos="360" pan="0" len="12" vol="20" />
          <note key="75" pos="372" pan="0" len="12" vol="19" />
          <note key="75" pos="384" pan="0" len="12" vol="16" />
          <note key="72" pos="396" pan="0" len="12" vol="19" />
          <note key="79" pos="408" pan="0" len="12" vol="20" />
          <note key="72" pos="420" pan="0" len="12" vol="23" />
          <note key="75" pos="432" pan="0" len="12" vol="27" />
          <note key="72" pos="444" pan="0" len="12" vol="30" />
          <note key="79" pos="456" pan="0" len="12" vol="31" />
          <note key="72" pos="468" pan="0" len="12" vol="34" />
          <note key="75" pos="480" pan="0" len="12" vol="38" />
          <note key="72" pos="492" pan="0" len="12" vol="41" />
          <note key="79" pos="504" pan="0" len="12" vol="42" />
          <note key="72" pos="516" pan="0" len="12" vol="45" />
          <note key="75" pos="528" pan="0" len="12" vol="48" />
          <note key="72" pos="540" pan="0" len="12" vol="52" />
          <note key="79" pos="552" pan="0" len="12" vol="53" />
          <note key="72" pos="564" pan="0" len="12" vol="56" />
          <note key="75" pos="576" pan="0" len="12" vol="59" />
          <note key="72" pos="588" pan="0" len="12" vol="62" />
          <note key="79" pos="600" pan="0" len="12" vol="64" />
          <note key="72" pos="612" pan="0" len="12" vol="67" />
          <note key="75" pos="624" pan="0" len="12" vol="70" />
          <note key="72" pos="636" pan="0" len="12" vol="73" />
          <note key="79" pos="648" pan="0" len="12" vol="75" />
          <note key="72" pos="660" pan="0" len="12" vol="78" />
          <note key="75" pos="672" pan="0" len="12" vol="81" />
          <note key="72" pos="684" pan="0" len="12" vol="84" />
          <note key="79" pos="696" pan="0" len="12" vol="86" />
          <note key="72" pos="708" pan="0" len="12" vol="89" />
          <note key="75" pos="720" pan="0" len="12" vol="92" />
          <note key="72" pos="732" pan="0" len="12" vol="95" />
          <note key="79" pos="744" pan="0" len="12" vol="97" />
          <note key="72" pos="756" pan="0" len="12" vol="100" />
        </pattern>
        <pattern pos="260736" muted="0" steps="16" name="" type="1">
          <note key="77" pos="0" pan="0" len="12" vol="100" />
          <note key="75" pos="12" pan="0" len="12" vol="97" />
          <note key="79" pos="24" pan="0" len="12" vol="95" />
          <note key="75" pos="36" pan="0" len="12" vol="92" />
          <note key="77" pos="48" pan="0" len="12" vol="89" />
          <note key="75" pos="60" pan="0" len="12" vol="88" />
          <note key="79" pos="72" pan="0" len="12" vol="84" />
          <note key="75" pos="84" pan="0" len="12" vol="81" />
          <note key="77" pos="96" pan="0" len="12" vol="80" />
          <note key="75" pos="108" pan="0" len="12" vol="77" />
          <note key="79" pos="120" pan="0" len="12" vol="73" />
          <note key="75" pos="132" pan="0" len="12" vol="70" />
          <note key="77" pos="144" pan="0" len="12" vol="69" />
          <note key="75" pos="156" pan="0" len="12" vol="66" />
          <note key="79" pos="168" pan="0" len="12" vol="62" />
          <note key="75" pos="180" pan="0" len="12" vol="61" />
          <note key="77" pos="192" pan="0" len="12" vol="58" />
          <note key="75" pos="204" pan="0" len="12" vol="55" />
          <note key="79" pos="216" pan="0" len="12" vol="53" />
          <note key="75" pos="228" pan="0" len="12" vol="50" />
          <note key="77" pos="240" pan="0" len="12" vol="47" />
          <note key="75" pos="252" pan="0" len="12" vol="45" />
          <note key="79" pos="264" pan="0" len="12" vol="42" />
          <note key="75" pos="276" pan="0" len="12" vol="39" />
          <note key="77" pos="288" pan="0" len="12" vol="38" />
          <note key="75" pos="300" pan="0" len="12" vol="34" />
          <note key="79" pos="312" pan="0" len="12" vol="31" />
          <note key="75" pos="324" pan="0" len="12" vol="28" />
          <note key="77" pos="336" pan="0" len="12" vol="27" />
          <note key="75" pos="348" pan="0" len="12" vol="23" />
          <note key="79" pos="360" pan="0" len="12" vol="20" />
          <note key="75" pos="372" pan="0" len="12" vol="19" />
          <note key="75" pos="384" pan="0" len="12" vol="16" />
          <note key="72" pos="396" pan="0" len="12" vol="19" />
          <note key="79" pos="408" pan="0" len="12" vol="20" />
          <note key="72" pos="420" pan="0" len="12" vol="23" />
          <note key="75" pos="432" pan="0" len="12" vol="27" />
          <note key="72" pos="444" pan="0" len="12" vol="30" />
          <note key="79" pos="456" pan="0" len="12" vol="31" />
          <note key="72" pos="468" pan="0" len="12" vol="34" />
          <note key="75" pos="480" pan="0" len="12" vol="38" />
          <note key="72" pos="492" pan="0" len="12" vol="41" />
          <note key="79" pos="504" pan="0" len="12" vol="42" />
          <note key="72" pos="516" pan="0" len="12" vol="45" />
          <note key="75" pos="528" pan="0" len="12" vol="48" />
          <note key="72" pos="540" pan="0" len="12" vol="52" />
          <note key="79" pos="552" pan="0" len="12" vol="53" />
          <note key="72" pos="564" pan="0" len="12" vol="56" />
          <note key="75" pos="576" pan="0" len="12" vol="59" />
          <note key="72" pos="588" pan="0" len="12" vol="62" />
          <note key="79" pos="600" pan="0" len="12" vol="64" />
          <note key="72" pos="612" pan="0" len="12" vol="67" />
          <note key="75" pos="624" pan="0" len="12" vol="70" />
          <note key="72" pos="636" pan="0" len="12" vol="73" />
          <note key="79" pos="648" pan="0" len="12" vol="75" />
          <note key="72" pos="660" pan="0" len="12" vol="78" />
          <note key="75" pos="672" pan="0" len="12" vol="81" />
          <note key="72" pos="684" pan="0" len="12" vol="84" />
          <note key="79" pos="696" pan="0" len="12" vol="86" />
          <note key="72" pos="708" pan="0" len="12" vol="89" />
          <note key="75" pos="720" pan="0" len="12" vol="92" />
          <note key="72" pos="732" pan="0" len="12" vol="95" />
          <note key="79" pos="744" pan="0" len="12" vol="97" />
          <note key="72" pos="756" pan="0" len="12" vol="100" />
        </pattern>
        <pattern pos="261504" muted="0" steps="16" name="" type="1">
          <note key="80" pos="0" pan="0" len="12" vol="100" />
          <note key="78" pos="12" pan="0" len="12" vol="97" />
          <note key="82" pos="24" pan="0" len="12" vol="95" />
          <note key="78" pos="36" pan="0" len="12" vol="92" />
          <note key="80" pos="48" pan="0" len="12" vol="89" />
          <note key="78" pos="60" pan="0" len="12" vol="88" />
          <note key="82" pos="72" pan="0" len="12" vol="84" />
          <note key="78" pos="84" pan="0" len="12" vol="81" />
          <note key="80" pos="96" pan="0" len="12" vol="80" />
          <note key="78" pos="108" pan="0" len="12" vol="77" />
          <note key="82" pos="120" pan="0" len="12" vol="73" />
          <note key="78" pos="132" pan="0" len="12" vol="70" />
          <note key="80" pos="144" pan="0" len="12" vol="69" />
          <note key="78" pos="156" pan="0" len="12" vol="66" />
          <note key="82" pos="168" pan="0" len="12" vol="62" />
          <note key="78" pos="180" pan="0" len="12" vol="61" />
          <note key="80" pos="192" pan="0" len="12" vol="58" />
          <note key="78" pos="204" pan="0" len="12" vol="55" />
          <note key="82" pos="216" pan="0" len="12" vol="53" />
          <note key="78" pos="228" pan="0" len="12" vol="50" />
          <note key="80" pos="240" pan="0" len="12" vol="47" />
          <note key="78" pos="252" pan="0" len="12" vol="45" />
          <note key="82" pos="264" pan="0" len="12" vol="42" />
          <note key="78" pos="276" pan="0" len="12" vol="39" />
          <note key="80" pos="288" pan="0" len="12" vol="38" />
          <note key="78" pos="300" pan="0" len="12" vol="34" />
          <note key="82" pos="312" pan="0" len="12" vol="31" />
          <note key="78" pos="324" pan="0" len="12" vol="28" />
          <note key="80" pos="336" pan="0" len="12" vol="27" />
          <note key="78" pos="348" pan="0" len="12" vol="23" />
          <note key="82" pos="360" pan="0" len="12" vol="20" />
          <note key="78" pos="372" pan="0" len="12" vol="19" />
          <note key="78" pos="384" pan="0" len="12" vol="16" />
          <note key="75" pos="396" pan="0" len="12" vol="19" />
          <note key="82" pos="408" pan="0" len="12" vol="20" />
          <note key="75" pos="420" pan="0" len="12" vol="23" />
          <note key="78" pos="432" pan="0" len="12" vol="27" />
          <note key="75" pos="444" pan="0" len="12" vol="30" />
          <note key="82" pos="456" pan="0" len="12" vol="31" />
          <note key="75" pos="468" pan="0" len="12" vol="34" />
          <note key="78" pos="480" pan="0" len="12" vol="38" />
          <note key="75" pos="492" pan="0" len="12" vol="41" />
          <note key="82" pos="504" pan="0" len="12" vol="42" />
          <note key="75" pos="516" pan="0" len="12" vol="45" />
          <note key="78" pos="528" pan="0" len="12" vol="48" />
          <note key="75" pos="540" pan="0" len="12" vol="52" />
          <note key="82" pos="552" pan="0" len="12" vol="53" />
          <note key="75" pos="564" pan="0" len="12" vol="56" />
          <note key="78" pos="576" pan="0" len="12" vol="59" />
          <note key="75" pos="588" pan="0" len="12" vol="62" />
          <note key="82" pos="600" pan="0" len="12" vol="64" />
          <note key="75" pos="612" pan="0" len="12" vol="67" />
          <note key="78" pos="624" pan="0" len="12" vol="70" />
          <note key="75" pos="636" pan="0" len="12" vol="73" />
          <note key="82" pos="648" pan="0" len="12" vol="75" />
          <note key="75" pos="660" pan="0" len="12" vol="78" />
          <note key="78" pos="672" pan="0" len="12" vol="81" />
          <note key="75" pos="684" pan="0" len="12" vol="84" />
          <note key="82" pos="696" pan="0" len="12" vol="86" />
          <note key="75" pos="708" pan="0" len="12" vol="89" />
          <note key="78" pos="720" pan="0" len="12" vol="92" />
          <note key="75" pos="732" pan="0" len="12" vol="95" />
          <note key="82" pos="744" pan="0" len="12" vol="97" />
          <note key="75" pos="756" pan="0" len="12" vol="100" />
        </pattern>
        <pattern pos="262272" muted="0" steps="16" name="" type="1">
          <note key="80" pos="0" pan="0" len="12" vol="100" />
          <note key="78" pos="12" pan="0" len="12" vol="97" />
          <note key="82" pos="24" pan="0" len="12" vol="95" />
          <note key="78" pos="36" pan="0" len="12" vol="92" />
          <note key="80" pos="48" pan="0" len="12" vol="89" />
          <note key="78" pos="60" pan="0" len="12" vol="88" />
          <note key="82" pos="72" pan="0" len="12" vol="84" />
          <note key="78" pos="84" pan="0" len="12" vol="81" />
          <note key="80" pos="96" pan="0" len="12" vol="80" />
          <note key="78" pos="108" pan="0" len="12" vol="77" />
          <note key="82" pos="120" pan="0" len="12" vol="73" />
          <note key="78" pos="132" pan="0" len="12" vol="70" />
          <note key="80" pos="144" pan="0" len="12" vol="69" />
          <note key="78" pos="156" pan="0" len="12" vol="66" />
          <note key="82" pos="168" pan="0" len="12" vol="62" />
          <note key="78" pos="180" pan="0" len="12" vol="61" />
          <note key="80" pos="192" pan="0" len="12" vol="58" />
          <note key="78" pos="204" pan="0" len="12" vol="55" />
          <note key="82" pos="216" pan="0" len="12" vol="53" />
          <note key="78" pos="228" pan="0" len="12" vol="50" />
          <note key="80" pos="240" pan="0" len="12" vol="47" />
          <note key="78" pos="252" pan="0" len="12" vol="45" />
          <note key="82" pos="264" pan="0" len="12" vol="42" />
          <note key="78" pos="276" pan="0" len="12" vol="39" />
          <note key="80" pos="288" pan="0" len="12" vol="38" />
          <note key="78" pos="300" pan="0" len="12" vol="34" />
          <note key="82" pos="312" pan="0" len="12" vol="31" />
          <note key="78" pos="324" pan="0" len="12" vol="28" />
          <note key="80" pos="336" pan="0" len="12" vol="27" />
          <note key="78" pos="348" pan="0" len="12" vol="23" />
          <note key="82" pos="360" pan="0" len="12" vol="20" />
          <note key="78" pos="372" pan="0" len="12" vol="19" />
          <note key="78" pos="384" pan="0" len="12" vol="16" />
          <note key="75" pos="396" pan="0" len="12" vol="19" />
          <note key="82" pos="408" pan="0" len="12" vol="20" />
          <note key="75" pos="420" pan="0" len="12" vol="23" />
          <note key="78" pos="432" pan="0" len="12" vol="27" />
          <note key="75" pos="444" pan="0" len="12" vol="30" />
          <note key="82" pos="456" pan="0" len="12" vol="31" />
          <note key="75" pos="468" pan="0" len="12" vol="34" />
          <note key="78" pos="480" pan="0" len="12" vol="38" />
          <note key="75" pos="492" pan="0" len="12" vol="41" />
          <note key="82" pos="504" pan="0" len="12" vol="42" />
          <note key="75" pos="516" pan="0" len="12" vol="45" />
          <note key="78" pos="528" pan="0" len="12" vol="48" />
          <note key="75" pos="540" pan="0" len="12" vol="52" />
          <note key="82" pos="552" pan="0" len="12" vol="53" />
          <note key="75" pos="564" pan="0" len="12" vol="56" />
          <note key="78" pos="576" pan="0" len="12" vol="59" />
          <note key="75" pos="588" pan="0" len="12" vol="62" />
          <note key="82" pos="600" pan="0" len="12" vol="64" />
          <note key="75" pos="612" pan="0" len="12" vol="67" />
          <note key="78" pos="624" pan="0" len="12" vol="70" />
          <note key="75" pos="636" pan="0" len="12" vol="73" />
          <note key="82" pos="648" pan="0" len="12" vol="75" />
          <note key="75" pos="660" pan="0" len="12" vol="78" />
          <note key="78" pos="672" pan="0" len="12" vol="81" />
          <note key="75" pos="684" pan="0" len="12" vol="84" />
          <note key="82" pos="696" pan="0" len="12" vol="86" />
          <note key="75" pos="708" pan="0" len="12" vol="89" />
          <note key="78" pos="720" pan="0" len="12" vol="92" />
          <note key="75" pos="732" pan="0" len="12" vol="95" />
          <note key="82" pos="744" pan="0" len="12" vol="97" />
          <note key="75" pos="756" pan="0" len="12" vol="100" />
        </pattern>
        <pattern pos="263040" muted="0" steps="16" name="" type="1">
          <note key="77" pos="0" pan="0" len="12" vol="100" />
          <note key="75" pos="12" pan="0" len="12" vol="97" />
          <note key="79" pos="24" pan="0" len="12" vol="95" />
          <note key="75" pos="36" pan="0" len="12" vol="92" />
          <note key="77" pos="48" pan="0" len="12" vol="89" />
          <note key="75" pos="60" pan="0" len="12" vol="88" />
          <note key="79" pos="72" pan="0" len="12" vol="84" />
          <note key="75" pos="84" pan="0" len="12" vol="81" />
          <note key="77" pos="96" pan="0" len="12" vol="80" />
          <note key="75" pos="108" pan="0" len="12" vol="77" />
          <note key="79" pos="120" pan="0" len="12" vol="73" />
          <note key="75" pos="132" pan="0" len="12" vol="70" />
          <note key="77" pos="144" pan="0" len="12" vol="69" />
          <note key="75" pos="156" pan="0" len="12" vol="66" />
          <note key="79" pos="168" pan="0" len="12" vol="62" />
          <note key="75" pos="180" pan="0" len="12" vol="61" />
          <note key="77" pos="192" pan="0" len="12" vol="58" />
          <note key="75" pos="204" pan="0" len="12" vol="55" />
          <note key="79" pos="216" pan="0" len="12" vol="53" />
          <note key="75" pos="228" pan="0" len="12" vol="50" />
          <note key="77" pos="240" pan="0" len="12" vol="47" />
          <note key="75" pos="252" pan="0" len="12" vol="45" />
          <note key="79" pos="264" pan="0" len="12" vol="42" />
          <note key="75" pos="276" pan="0" len="12" vol="39" />
          <note key="77" pos="288" pan="0" len="12" vol="38" />
          <note key="75" pos="300" pan="0" len="12" vol="34" />
          <note key="79" pos="312" pan="0" len="12" vol="31" />
          <note key="75" pos="324" pan="0" len="12" vol="28" />
          <note key="77" pos="336" pan="0" len="12" vol="27" />
          <note key="75" pos="348" pan="0" len="12" vol="23" />
          <note key="79" pos="360" pan="0" len="12" vol="20" />
          <note key="75" pos="372" pan="0" len="12" vol="19" />
          <note key="75" pos="384" pan="0" len="12" vol="16" />
          <note key="72" pos="396" pan="0" len="12" vol="19" />
          <note key="79" pos="408" pan="0" len="12" vol="20" />
          <note key="72" pos="420" pan="0" len="12" vol="23" />
          <note key="75" pos="432" pan="0" len="12" vol="27" />
          <note key="72" pos="444" pan="0" len="12" vol="30" />
          <note key="79" pos="456" pan="0" len="12" vol="31" />
          <note key="72" pos="468" pan="0" len="12" vol="34" />
          <note key="75" pos="480" pan="0" len="12" vol="38" />
          <note key="72" pos="492" pan="0" len="12" vol="41" />
          <note key="79" pos="504" pan="0" len="12" vol="42" />
          <note key="72" pos="516" pan="0" len="12" vol="45" />
          <note key="75" pos="528" pan="0" len="12" vol="48" />
          <note key="72" pos="540" pan="0" len="12" vol="52" />
          <note key="79" pos="552" pan="0" len="12" vol="53" />
          <note key="72" pos="564" pan="0" len="12" vol="56" />
          <note key="75" pos="576" pan="0" len="12" vol="59" />
          <note key="72" pos="588" pan="0" len="12" vol="62" />
          <note key="79" pos="600" pan="0" len="12" vol="64" />
          <note key="72" pos="612" pan="0" len="12" vol="67" />
          <note key="75" pos="624" pan="0" len="12" vol="70" />
          <note key="72" pos="636" pan="0" len="12" vol="73" />
          <note key="79" pos="648" pan="0" len="12" vol="75" />
          <note key="72" pos="660" pan="0" len="12" vol="78" />
          <note key="75" pos="672" pan="0" len="12" vol="81" />
          <note key="72" pos="684" pan="0" len="12" vol="84" />
          <note key="79" pos="696" pan="0" len="12" vol="86" />
          <note key="72" pos="708" pan="0" len="12" vol="89" />
          <note key="75" pos="720" pan="0" len="12" vol="92" />
          <note key="72" pos="732" pan="0" len="12" vol="95" />
          <note key="79" pos="744" pan="0" len="12" vol="97" />
          <note key="72" pos="756" pan="0" len="12" vol="100" />
        </pattern>
        <pattern pos="263808" muted="0" steps="16" name="" type="1">
          <note key="77" pos="0" pan="0" len="12" vol="100" />
          <note key="75" pos="12" pan="0" len="12" vol="97" />
          <note key="79" pos="24" pan="0" len="12" vol="95" />
          <note key="75" pos="36" pan="0" len="12" vol="92" />
          <note key="77" pos="48" pan="0" len="12" vol="89" />
          <note key="75" pos="60" pan="0" len="12" vol="88" />
          <note key="79" pos="72" pan="0" len="12" vol="84" />
          <note key="75" pos="84" pan="0" len="12" vol="81" />
          <note key="77" pos="96" pan="0" len="12" vol="80" />
          <note key="75" pos="108" pan="0" len="12" vol="77" />
          <note key="79" pos="120" pan="0" len="12" vol="73" />
          <note key="75" pos="132" pan="0" len="12" vol="70" />
          <note key="77" pos="144" pan="0" len="12" vol="69" />
          <note key="75" pos="156" pan="0" len="12" vol="66" />
          <note key="79" pos="168" pan="0" len="12" vol="62" />
          <note key="75" pos="180" pan="0" len="12" vol="61" />
          <note key="77" pos="192" pan="0" len="12" vol="58" />
          <note key="75" pos="204" pan="0" len="12" vol="55" />
          <note key="79" pos="216" pan="0" len="12" vol="53" />
          <note key="75" pos="228" pan="0" len="12" vol="50" />
          <note key="77" pos="240" pan="0" len="12" vol="47" />
          <note key="75" pos="252" pan="0" len="12" vol="45" />
          <note key="79" pos="264" pan="0" len="12" vol="42" />
          <note key="75" pos="276" pan="0" len="12" vol="39" />
          <note key="77" pos="288" pan="0" len="12" vol="38" />
          <note key="75" pos="300" pan="0" len="12" vol="34" />
          <note key="79" pos="312" pan="0" len="12" vol="31" />
          <note key="75" pos="324" pan="0" len="12" vol="28" />
          <note key="77" pos="336" pan="0" len="12" vol="27" />
          <note key="75" pos="348" pan="0" len="12" vol="23" />
          <note key="79" pos="360" pan="0" len="12" vol="20" />
          <note key="75" pos="372" pan="0" len="12" vol="19" />
          <note key="75" pos="384" pan="0" len="12" vol="16" />
          <note key="72" pos="396" pan="0" len="12" vol="19" />
          <note key="79" pos="408" pan="0" len="12" vol="20" />
          <note key="72" pos="420" pan="0" len="12" vol="23" />
          <note key="75" pos="432" pan="0" len="12" vol="27" />
          <note key="72" pos="444" pan="0" len="12" vol="30" />
          <note key="79" pos="456" pan="0" len="12" vol="31" />
          <note key="72" pos="468" pan="0" len="12" vol="34" />
          <note key="75" pos="480" pan="0" len="12" vol="38" />
          <note key="72" pos="492" pan="0" len="12" vol="41" />
          <note key="79" pos="504" pan="0" len="12" vol="42" />
          <note key="72" pos="516" pan="0" len="12" vol="45" />
          <note key="75" pos="528" pan="0" len="12" vol="48" />
          <note key="72" pos="540" pan="0" len="12" vol="52" />
          <note key="79" pos="552" pan="0" len="12" vol="53" />
          <note key="72" pos="564" pan="0" len="12" vol="56" />
          <note key="75" pos="576" pan="0" len="12" vol="59" />
          <note key="72" pos="588" pan="0" len="12" vol="62" />
          <note key="79" pos="600" pan="0" len="12" vol="64" />
          <note key="72" pos="612" pan="0" len="12" vol="67" />
          <note key="75" pos="624" pan="0" len="12" vol="70" />
          <note key="72" pos="636" pan="0" len="12" vol="73" />
          <note key="79" pos="648" pan="0" len="12" vol="75" />
          <note key="72" pos="660" pan="0" len="12" vol="78" />
          <note key="75" pos="672" pan="0" len="12" vol="81" />
          <note key="72" pos="684" pan="0" len="12" vol="84" />
          <note key="79" pos="696" pan="0" len="12" vol="86" />
          <note key="72" pos="708" pan="0" len="12" vol="89" />
          <note key="75" pos="720" pan="0" len="12" vol="92" />
          <note key="72" pos="732" pan="0" len="12" vol="95" />
          <note key="79" pos="744" pan="0" len="12" vol="97" />
          <note key="72" pos="756" pan="0" len="12" vol="100" />
        </pattern>
        <pattern pos="264576" muted="0" steps="16" name="" type="1">
          <note key="77" pos="0" pan="0" len="12" vol="100" />
          <note key="75" pos="12" pan="0" len="12" vol="97" />
          <note key="79" pos="24" pan="0" len="12" vol="95" />
          <note key="75" pos="36" pan="0" len="12" vol="92" />
          <note key="77" pos="48" pan="0" len="12" vol="89" />
          <note key="75" pos="60" pan="0" len="12" vol="88" />
          <note key="79" pos="72" pan="0" len="12" vol="84" />
          <note key="75" pos="84" pan="0" len="12" vol="81" />
          <note key="77" pos="96" pan="0" len="12" vol="80" />
          <note key="75" pos="108" pan="0" len="12" vol="77" />
          <note key="79" pos="120" pan="0" len="12" vol="73" />
          <note key="75" pos="132" pan="0" len="12" vol="70" />
          <note key="77" pos="144" pan="0" len="12" vol="69" />
          <note key="75" pos="156" pan="0" len="12" vol="66" />
          <note key="79" pos="168" pan="0" len="12" vol="62" />
          <note key="75" pos="180" pan="0" len="12" vol="61" />
          <note key="77" pos="192" pan="0" len="12" vol="58" />
          <note key="75" pos="204" pan="0" len="12" vol="55" />
          <note key="79" pos="216" pan="0" len="12" vol="53" />
          <note key="75" pos="228" pan="0" len="12" vol="50" />
          <note key="77" pos="240" pan="0" len="12" vol="47" />
          <note key="75" pos="252" pan="0" len="12" vol="45" />
          <note key="79" pos="264" pan="0" len="12" vol="42" />
          <note key="75" pos="276" pan="0" len="12" vol="39" />
          <note key="77" pos="288" pan="0" len="12" vol="38" />
          <note key="75" pos="300" pan="0" len="12" vol="34" />
          <note key="79" pos="312" pan="0" len="12" vol="31" />
          <note key="75" pos="324" pan="0" len="12" vol="28" />
          <note key="77" pos="336" pan="0" len="12" vol="27" />
          <note key="75" pos="348" pan="0" len="12" vol="23" />
          <note key="79" pos="360" pan="0" len="12" vol="20" />
          <note key="75" pos="372" pan="0" len="12" vol="19" />
          <note key="75" pos="384" pan="0" len="12" vol="16" />
          <note key="72" pos="396" pan="0" len="12" vol="19" />
          <note key="79" pos="408" pan="0" len="12" vol="20" />
          <note key="72" pos="420" pan="0" len="12" vol="23" />
          <note key="75" pos="432" pan="0" len="12" vol="27" />
          <note key="72" pos="444" pan="0" len="12" vol="30" />
          <note key="79" pos="456" pan="0" len="12" vol="31" />
          <note key="72" pos="468" pan="0" len="12" vol="34" />
          <note key="75" pos="480" pan="0" len="12" vol="38" />
          <note key="72" pos="492" pan="0" len="12" vol="41" />
          <note key="79" pos="504" pan="0" len="12" vol="42" />
          <note key="72" pos="516" pan="0" len="12" vol="45" />
          <note key="75" pos="528" pan="0" len="12" vol="48" />
          <note key="72" pos="540" pan="0" len="12" vol="52" />
          <note key="79" pos="552" pan="0" len="12" vol="53" />
          <note key="72" pos="564" pan="0" len="12" vol="56" />
          <note key="75" pos="576" pan="0" len="12" vol="59" />
          <note key="72" pos="588" pan="0" len="12" vol="62" />
          <note key="79" pos="600" pan="0" len="12" vol="64" />
          <note key="72" pos="612" pan="0" len="12" vol="67" />
          <note key="75" pos="624" pan="0" len="12" vol="70" />
          <note key="72" pos="636" pan="0" len="12" vol="73" />
          <note key="79" pos="648" pan="0" len="12" vol="75" />
          <note key="72" pos="660" pan="0" len="12" vol="78" />
          <note key="75" pos="672" pan="0" len="12" vol="81" />
          <note key="72" pos="684" pan="0" len="12" vol="84" />
          <note key="79" pos="696" pan="0" len="12" vol="86" />
          <note key="72" pos="708" pan="0" len="12" vol="89" />
          <note key="75" pos="720" pan="0" len="12" vol="92" />
          <note key="72" pos="732" pan="0" len="12" vol="95" />
          <note key="79" pos="744" pan="0" len="12" vol="97" />
          <note key="72" pos="756" pan="0" len="12" vol="100" />
        </pattern>
      </track>
      <track solo="0" name="93 (Ch1)" type="0" muted="0">
        <instrumenttrack usemasterpitch="1" pitch="0.0" basenote="57" pan="0" pitchrange="12" vol="30">
          <eldata />
          <instrument name="tripleoscillator" />
        </instrumenttrack>
        <pattern pos="270000" muted="0" steps="16" name="" type="1">
          <note key="45" pos="0" pan="0" len="96" vol="100" />
          <note key="40" pos="96" pan="0" len="96" vol="100" />
          <note key="41" pos="192" pan="0" len="96" vol="100" />
          <note key="48" pos="288" pan="0" len="96" vol="100" />
          <note key="45" pos="384" pan="0" len="96" vol="100" />
          <note key="40" pos="480" pan="0" len="96" vol="100" />
          <note key="41" pos="576" pan="0" len="96" vol="100" />
          <note key="48" pos="672" pan="0" len="48" vol="100" />
          <note key="47" pos="720" pan="0" len="48" vol="100" />
        </pattern>
      </track>
      <track solo="0" name="94 (Ch7)" type="0" muted="0">
        <instrumenttrack usemasterpitch="1" pitch="0.0" basenote="57" pan="0" pitchrange="12" vol="30">
          <eldata />
          <instrument name="tripleoscillator" />
        </instrumenttrack>
        <pattern pos="133632" muted="0" steps="16" name="" type="1">
          <note key="60" pos="0" pan="0" len="48" vol="100" />
          <note key="67" pos="48" pan="0" len="24" vol="100" />
          <note key="60" pos="72" pan="0" len="48" vol="100" />
          <note key="67" pos="120" pan="0" len="24" vol="100" />
          <note key="60" pos="144" pan="0" len="72" vol="100" />
          <note key="67" pos="216" pan="0" len="24" vol="100" />
          <note key="60" pos="240" pan="0" len="48" vol="100" />
          <note key="58" pos="288" pan="0" len="48" vol="100" />
          <note key="60" pos="336" pan="0" len="24" vol="100" />
          <note key="67" pos="360" pan="0" len="24" vol="100" />
          <note key="60" pos="384" pan="0" len="48" vol="100" />
          <note key="67" pos="432" pan="0" len="24" vol="100" />
          <note key="60" pos="456" pan="0" len="48" vol="100" />
          <note key="67" pos="504" pan="0" len="24" vol="100" />
          <note key="60" pos="528" pan="0" len="72" vol="100" />
          <note key="67" pos="600" pan="0" len="24" vol="100" />
          <note key="60" pos="624" pan="0" len="48" vol="100" />
          <note key="58" pos="672" pan="0" len="48" vol="100" />
          <note key="60" pos="720" pan="0" len="24" vol="100" />
          <note key="67" pos="744" pan="0" len="24" vol="100" />
          <note key="60" pos="768" pan="0" len="48" vol="100" />
          <note key="67" pos="816" pan="0" len="24" vol="100" />
          <note key="60" pos="840" pan="0" len="48" vol="100" />
          <note key="67" pos="888" pan="0" len="24" vol="100" />
          <note key="60" pos="912" pan="0" len="72" vol="100" />
          <note key="67" pos="984" pan="0" len="24" vol="100" />
          <note key="60" pos="1008" pan="0" len="48" vol="100" />
          <note key="58" pos="1056" pan="0" len="48" vol="100" />
          <note key="60" pos="1104" pan="0" len="24" vol="100" />
          <note key="67" pos="1128" pan="0" len="24" vol="100" />
          <note key="60" pos="1152" pan="0" len="48" vol="100" />
          <note key="67" pos="1200" pan="0" len="24" vol="100" />
          <note key="60" pos="1224" pan="0" len="48" vol="100" />
          <note key="67" pos="1272" pan="0" len="24" vol="100" />
          <note key="60" pos="1296" pan="0" len="72" vol="100" />
          <note key="67" pos="1368" pan="0" len="24" vol="100" />
          <note key="60" pos="1392" pan="0" len="48" vol="100" />
          <note key="58" pos="1440" pan="0" len="48" vol="100" />
          <note key="60" pos="1488" pan="0" len="24" vol="100" />
          <note key="67" pos="1512" pan="0" len="24" vol="100" />
        </pattern>
        <pattern pos="132096" muted="0" steps="16" name="" type="1">
          <note key="60" pos="0" pan="0" len="48" vol="100" />
          <note key="67" pos="48" pan="0" len="24" vol="100" />
          <note key="60" pos="72" pan="0" len="48" vol="100" />
          <note key="67" pos="120" pan="0" len="24" vol="100" />
          <note key="60" pos="144" pan="0" len="72" vol="100" />
          <note key="67" pos="216" pan="0" len="24" vol="100" />
          <note key="60" pos="240" pan="0" len="48" vol="100" />
          <note key="58" pos="288" pan="0" len="48" vol="100" />
          <note key="60" pos="336" pan="0" len="24" vol="100" />
          <note key="67" pos="360" pan="0" len="24" vol="100" />
          <note key="60" pos="384" pan="0" len="48" vol="100" />
          <note key="67" pos="432" pan="0" len="24" vol="100" />
          <note key="60" pos="456" pan="0" len="48" vol="100" />
          <note key="67" pos="504" pan="0" len="24" vol="100" />
          <note key="60" pos="528" pan="0" len="72" vol="100" />
          <note key="67" pos="600" pan="0" len="24" vol="100" />
          <note key="60" pos="624" pan="0" len="48" vol="100" />
          <note key="58" pos="672" pan="0" len="48" vol="100" />
          <note key="60" pos="720" pan="0" len="24" vol="100" />
          <note key="67" pos="744" pan="0" len="24" vol="100" />
          <note key="60" pos="768" pan="0" len="48" vol="100" />
          <note key="67" pos="816" pan="0" len="24" vol="100" />
          <note key="60" pos="840" pan="0" len="48" vol="100" />
          <note key="67" pos="888" pan="0" len="24" vol="100" />
          <note key="60" pos="912" pan="0" len="72" vol="100" />
          <note key="67" pos="984" pan="0" len="24" vol="100" />
          <note key="60" pos="1008" pan="0" len="48" vol="100" />
          <note key="58" pos="1056" pan="0" len="48" vol="100" />
          <note key="60" pos="1104" pan="0" len="24" vol="100" />
          <note key="67" pos="1128" pan="0" len="24" vol="100" />
          <note key="60" pos="1152" pan="0" len="48" vol="100" />
          <note key="67" pos="1200" pan="0" len="24" vol="100" />
          <note key="60" pos="1224" pan="0" len="48" vol="100" />
          <note key="67" pos="1272" pan="0" len="24" vol="100" />
          <note key="60" pos="1296" pan="0" len="72" vol="100" />
          <note key="67" pos="1368" pan="0" len="24" vol="100" />
          <note key="60" pos="1392" pan="0" len="48" vol="100" />
          <note key="58" pos="1440" pan="0" len="48" vol="100" />
          <note key="60" pos="1488" pan="0" len="24" vol="100" />
          <note key="67" pos="1512" pan="0" len="24" vol="100" />
        </pattern>
      </track>
      <track solo="0" name="94 (Ch8)" type="0" muted="0">
        <instrumenttrack usemasterpitch="1" pitch="0.0" basenote="57" pan="0" pitchrange="12" vol="30">
          <eldata />
          <instrument name="tripleoscillator" />
        </instrumenttrack>
        <pattern pos="133632" muted="0" steps="16" name="" type="1">
          <note key="60" pos="72" pan="0" len="48" vol="59" />
          <note key="67" pos="120" pan="0" len="24" vol="59" />
          <note key="60" pos="144" pan="0" len="48" vol="59" />
          <note key="67" pos="192" pan="0" len="24" vol="59" />
          <note key="60" pos="216" pan="0" len="72" vol="59" />
          <note key="67" pos="288" pan="0" len="24" vol="59" />
          <note key="60" pos="312" pan="0" len="48" vol="59" />
          <note key="58" pos="360" pan="0" len="48" vol="59" />
          <note key="60" pos="408" pan="0" len="24" vol="59" />
          <note key="67" pos="432" pan="0" len="24" vol="59" />
          <note key="60" pos="456" pan="0" len="48" vol="59" />
          <note key="67" pos="504" pan="0" len="24" vol="59" />
          <note key="60" pos="528" pan="0" len="48" vol="59" />
          <note key="67" pos="576" pan="0" len="24" vol="59" />
          <note key="60" pos="600" pan="0" len="72" vol="59" />
          <note key="67" pos="672" pan="0" len="24" vol="59" />
          <note key="60" pos="696" pan="0" len="48" vol="59" />
          <note key="58" pos="744" pan="0" len="48" vol="59" />
          <note key="60" pos="792" pan="0" len="24" vol="59" />
          <note key="67" pos="816" pan="0" len="24" vol="59" />
          <note key="60" pos="840" pan="0" len="48" vol="59" />
          <note key="67" pos="888" pan="0" len="24" vol="59" />
          <note key="60" pos="912" pan="0" len="48" vol="59" />
          <note key="67" pos="960" pan="0" len="24" vol="59" />
          <note key="60" pos="984" pan="0" len="72" vol="59" />
          <note key="67" pos="1056" pan="0" len="24" vol="59" />
          <note key="60" pos="1080" pan="0" len="48" vol="59" />
          <note key="58" pos="1128" pan="0" len="48" vol="59" />
          <note key="60" pos="1176" pan="0" len="24" vol="59" />
          <note key="67" pos="1200" pan="0" len="24" vol="59" />
          <note key="60" pos="1224" pan="0" len="48" vol="59" />
          <note key="67" pos="1272" pan="0" len="24" vol="59" />
          <note key="60" pos="1296" pan="0" len="48" vol="59" />
          <note key="67" pos="1344" pan="0" len="24" vol="59" />
          <note key="60" pos="1368" pan="0" len="72" vol="59" />
          <note key="67" pos="1440" pan="0" len="24" vol="59" />
          <note key="60" pos="1464" pan="0" len="48" vol="59" />
          <note key="58" pos="1512" pan="0" len="24" vol="59" />
        </pattern>
        <pattern pos="132096" muted="0" steps="16" name="" type="1">
          <note key="60" pos="72" pan="0" len="48" vol="59" />
          <note key="67" pos="120" pan="0" len="24" vol="59" />
          <note key="60" pos="144" pan="0" len="48" vol="59" />
          <note key="67" pos="192" pan="0" len="24" vol="59" />
          <note key="60" pos="216" pan="0" len="72" vol="59" />
          <note key="67" pos="288" pan="0" len="24" vol="59" />
          <note key="60" pos="312" pan="0" len="48" vol="59" />
          <note key="58" pos="360" pan="0" len="48" vol="59" />
          <note key="60" pos="408" pan="0" len="24" vol="59" />
          <note key="67" pos="432" pan="0" len="24" vol="59" />
          <note key="60" pos="456" pan="0" len="48" vol="59" />
          <note key="67" pos="504" pan="0" len="24" vol="59" />
          <note key="60" pos="528" pan="0" len="48" vol="59" />
          <note key="67" pos="576" pan="0" len="24" vol="59" />
          <note key="60" pos="600" pan="0" len="72" vol="59" />
          <note key="67" pos="672" pan="0" len="24" vol="59" />
          <note key="60" pos="696" pan="0" len="48" vol="59" />
          <note key="58" pos="744" pan="0" len="48" vol="59" />
          <note key="60" pos="792" pan="0" len="24" vol="59" />
          <note key="67" pos="816" pan="0" len="24" vol="59" />
          <note key="60" pos="840" pan="0" len="48" vol="59" />
          <note key="67" pos="888" pan="0" len="24" vol="59" />
          <note key="60" pos="912" pan="0" len="48" vol="59" />
          <note key="67" pos="960" pan="0" len="24" vol="59" />
          <note key="60" pos="984" pan="0" len="72" vol="59" />
          <note key="67" pos="1056" pan="0" len="24" vol="59" />
          <note key="60" pos="1080" pan="0" len="48" vol="59" />
          <note key="58" pos="1128" pan="0" len="48" vol="59" />
          <note key="60" pos="1176" pan="0" len="24" vol="59" />
          <note key="67" pos="1200" pan="0" len="24" vol="59" />
          <note key="60" pos="1224" pan="0" len="48" vol="59" />
          <note key="67" pos="1272" pan="0" len="24" vol="59" />
          <note key="60" pos="1296" pan="0" len="48" vol="59" />
          <note key="67" pos="1344" pan="0" len="24" vol="59" />
          <note key="60" pos="1368" pan="0" len="72" vol="59" />
          <note key="67" pos="1440" pan="0" len="24" vol="59" />
          <note key="60" pos="1464" pan="0" len="48" vol="59" />
          <note key="58" pos="1512" pan="0" len="24" vol="59" />
        </pattern>
      </track>
      <track solo="0" name="95 (Ch3)" type="0" muted="0">
        <instrumenttrack usemasterpitch="1" pitch="0.0" basenote="57" pan="0" pitchrange="12" vol="30">
          <eldata />
          <instrument name="tripleoscillator" />
        </instrumenttrack>
        <pattern pos="183552" muted="0" steps="16" name="" type="1">
          <note key="76" pos="576" pan="0" len="144" vol="100" />
          <note key="74" pos="720" pan="0" len="120" vol="100" />
          <note key="72" pos="840" pan="0" len="24" vol="100" />
          <note key="67" pos="864" pan="0" len="48" vol="100" />
          <note key="72" pos="912" pan="0" len="48" vol="100" />
          <note key="67" pos="960" pan="0" len="24" vol="100" />
          <note key="71" pos="984" pan="0" len="24" vol="100" />
          <note key="76" pos="1008" pan="0" len="144" vol="100" />
        </pattern>
      </track>
      <track solo="0" name="95 (Ch9)" type="0" muted="0">
        <instrumenttrack usemasterpitch="1" pitch="0.0" basenote="57" pan="0" pitchrange="12" vol="30">
          <eldata />
          <instrument name="tripleoscillator" />
        </instrumenttrack>
        <pattern pos="178944" muted="0" steps="16" name="" type="1">
          <note key="76" pos="48" pan="0" len="144" vol="50" />
          <note key="72" pos="192" pan="0" len="144" vol="50" />
          <note key="76" pos="336" pan="0" len="144" vol="50" />
          <note key="72" pos="480" pan="0" len="144" vol="50" />
          <note key="76" pos="624" pan="0" len="144" vol="50" />
          <note key="72" pos="768" pan="0" len="144" vol="50" />
          <note key="76" pos="912" pan="0" len="144" vol="50" />
          <note key="72" pos="1056" pan="0" len="72" vol="50" />
        </pattern>
      </track>
      <track solo="0" name="95 (Ch10)" type="0" muted="0">
        <instrumenttrack usemasterpitch="1" pitch="0.0" basenote="57" pan="0" pitchrange="12" vol="30">
          <eldata />
          <instrument name="tripleoscillator" />
        </instrumenttrack>
        <pattern pos="178944" muted="0" steps="16" name="" type="1">
          <note key="79" pos="48" pan="0" len="144" vol="50" />
          <note key="76" pos="192" pan="0" len="144" vol="50" />
          <note key="79" pos="336" pan="0" len="144" vol="50" />
          <note key="76" pos="480" pan="0" len="144" vol="50" />
          <note key="79" pos="624" pan="0" len="144" vol="50" />
          <note key="76" pos="768" pan="0" len="144" vol="50" />
          <note key="79" pos="912" pan="0" len="144" vol="50" />
          <note key="76" pos="1056" pan="0" len="96" vol="50" />
        </pattern>
      </track>
      <track solo="0" name="95 (Ch11)" type="0" muted="0">
        <instrumenttrack usemasterpitch="1" pitch="0.0" basenote="57" pan="0" pitchrange="12" vol="30">
          <eldata />
          <instrument name="tripleoscillator" />
        </instrumenttrack>
        <pattern pos="184704" muted="0" steps="16" name="" type="1">
          <note key="64" pos="48" pan="0" len="144" vol="100" />
          <note key="60" pos="192" pan="0" len="144" vol="100" />
          <note key="64" pos="336" pan="0" len="144" vol="100" />
          <note key="60" pos="480" pan="0" len="144" vol="100" />
        </pattern>
        <pattern pos="178944" muted="0" steps="16" name="" type="1">
          <note key="83" pos="48" pan="0" len="144" vol="50" />
          <note key="79" pos="192" pan="0" len="144" vol="50" />
          <note key="83" pos="336" pan="0" len="144" vol="50" />
          <note key="79" pos="480" pan="0" len="144" vol="50" />
          <note key="83" pos="624" pan="0" len="144" vol="50" />
          <note key="79" pos="768" pan="0" len="144" vol="50" />
          <note key="83" pos="912" pan="0" len="144" vol="50" />
          <note key="79" pos="1056" pan="0" len="96" vol="50" />
        </pattern>
      </track>
      <track solo="0" name="95 (Ch12)" type="0" muted="0">
        <instrumenttrack usemasterpitch="1" pitch="0.0" basenote="57" pan="0" pitchrange="12" vol="30">
          <eldata />
          <instrument name="tripleoscillator" />
        </instrumenttrack>
        <pattern pos="184704" muted="0" steps="16" name="" type="1">
          <note key="67" pos="48" pan="0" len="144" vol="100" />
          <note key="64" pos="192" pan="0" len="144" vol="100" />
          <note key="67" pos="336" pan="0" len="144" vol="100" />
          <note key="64" pos="480" pan="0" len="144" vol="100" />
          <note key="64" pos="624" pan="0" len="144" vol="100" />
          <note key="60" pos="768" pan="0" len="240" vol="100" />
        </pattern>
        <pattern pos="180096" muted="0" steps="16" name="" type="1">
          <note key="76" pos="48" pan="0" len="144" vol="50" />
          <note key="72" pos="192" pan="0" len="144" vol="50" />
          <note key="76" pos="336" pan="0" len="144" vol="50" />
          <note key="72" pos="480" pan="0" len="144" vol="50" />
          <note key="76" pos="624" pan="0" len="144" vol="50" />
          <note key="72" pos="768" pan="0" len="144" vol="50" />
          <note key="76" pos="912" pan="0" len="144" vol="50" />
          <note key="64" pos="1056" pan="0" len="96" vol="50" />
        </pattern>
      </track>
      <track solo="0" name="95 (Ch13)" type="0" muted="0">
        <instrumenttrack usemasterpitch="1" pitch="0.0" basenote="57" pan="0" pitchrange="12" vol="30">
          <eldata />
          <instrument name="tripleoscillator" />
        </instrumenttrack>
        <pattern pos="184704" muted="0" steps="16" name="" type="1">
          <note key="71" pos="48" pan="0" len="144" vol="100" />
          <note key="67" pos="192" pan="0" len="144" vol="100" />
          <note key="71" pos="336" pan="0" len="144" vol="100" />
          <note key="67" pos="480" pan="0" len="144" vol="100" />
          <note key="67" pos="624" pan="0" len="144" vol="100" />
          <note key="64" pos="768" pan="0" len="240" vol="100" />
        </pattern>
        <pattern pos="180096" muted="0" steps="16" name="" type="1">
          <note key="79" pos="48" pan="0" len="144" vol="50" />
          <note key="76" pos="192" pan="0" len="144" vol="50" />
          <note key="79" pos="336" pan="0" len="144" vol="50" />
          <note key="76" pos="480" pan="0" len="144" vol="50" />
          <note key="79" pos="624" pan="0" len="144" vol="50" />
          <note key="76" pos="768" pan="0" len="144" vol="50" />
          <note key="67" pos="912" pan="0" len="144" vol="50" />
          <note key="67" pos="1056" pan="0" len="96" vol="50" />
        </pattern>
      </track>
      <track solo="0" name="95 (Ch14)" type="0" muted="0">
        <instrumenttrack usemasterpitch="1" pitch="0.0" basenote="57" pan="0" pitchrange="12" vol="30">
          <eldata />
          <instrument name="tripleoscillator" />
        </instrumenttrack>
        <pattern pos="184704" muted="0" steps="16" name="" type="1">
          <note key="71" pos="624" pan="0" len="144" vol="100" />
          <note key="67" pos="768" pan="0" len="384" vol="100" />
        </pattern>
        <pattern pos="180096" muted="0" steps="16" name="" type="1">
          <note key="83" pos="48" pan="0" len="144" vol="50" />
          <note key="79" pos="192" pan="0" len="144" vol="50" />
          <note key="83" pos="336" pan="0" len="144" vol="50" />
          <note key="79" pos="480" pan="0" len="144" vol="50" />
          <note key="83" pos="624" pan="0" len="144" vol="50" />
          <note key="79" pos="768" pan="0" len="144" vol="50" />
          <note key="71" pos="912" pan="0" len="144" vol="50" />
          <note key="71" pos="1056" pan="0" len="96" vol="50" />
        </pattern>
      </track>
    </trackcontainer>
  </song>
</lmms-project>